<svg id="icon_bitcoin" xmlns="http://www.w3.org/2000/svg" width="11.114" height="15.381" viewBox="0 0 11.114 15.381">
  <path id="Path_5548" data-name="Path 5548" d="M76.569,8.069a2.776,2.776,0,0,0-1.618-.952,2.191,2.191,0,0,0,1.211-2.385,2.357,2.357,0,0,0-.337-1.058,2.117,2.117,0,0,0-.763-.721,4.2,4.2,0,0,0-1.045-.416,8.241,8.241,0,0,0-1.294-.208V0H71.3V2.265q-.37,0-1.128.018V0H68.749V2.329q-.305.009-.9.009l-1.96-.009V3.845h1.026a.734.734,0,0,1,.823.629V7.127a.94.94,0,0,1,.148.009h-.148v3.716a.494.494,0,0,1-.536.471H66.18l-.287,1.692h1.849l.508,0q.333,0,.5,0v2.357h1.424V13.051q.388.009,1.128.009v2.32h1.423V13.024a11.066,11.066,0,0,0,1.345-.139,5.473,5.473,0,0,0,1.123-.319,3.03,3.03,0,0,0,.9-.541,2.551,2.551,0,0,0,.6-.823,3.5,3.5,0,0,0,.3-1.156A2.738,2.738,0,0,0,76.569,8.069ZM70.2,3.947l.365,0,.5-.009q.2,0,.536.023a5.1,5.1,0,0,1,.568.074,3.167,3.167,0,0,1,.508.152,1.378,1.378,0,0,1,.444.259,1.284,1.284,0,0,1,.282.388,1.212,1.212,0,0,1,.116.541,1.286,1.286,0,0,1-.083.472.889.889,0,0,1-.249.356,2.528,2.528,0,0,1-.342.25,1.566,1.566,0,0,1-.448.171q-.273.065-.476.1a3.9,3.9,0,0,1-.508.051q-.305.014-.462.019t-.43,0l-.319,0V3.947h0Zm3.887,6.295a1.314,1.314,0,0,1-.226.37,1.284,1.284,0,0,1-.365.277,3.131,3.131,0,0,1-.439.194,3.534,3.534,0,0,1-.513.13q-.3.056-.527.079t-.541.037q-.314.014-.49.014t-.444,0l-.342,0V8.208q.074,0,.439-.009t.6-.009q.231,0,.638.028a5.45,5.45,0,0,1,.684.083,4.5,4.5,0,0,1,.605.171,1.756,1.756,0,0,1,.532.282,1.387,1.387,0,0,1,.342.425,1.321,1.321,0,0,1,.051,1.063Z" transform="translate(-65.893)" fill="#fff"/>
</svg>
