<svg width="15" height="15" viewBox="0 0 15 15" fill="none" xmlns="http://www.w3.org/2000/svg">
<path d="M7.86206 14.2129C6.74331 14.2129 5.74542 14.059 4.86838 13.7513C3.99133 13.4471 3.24896 12.9995 2.64124 12.4085C2.03353 11.821 1.57084 11.1059 1.25317 10.2631C0.935498 9.42033 0.774937 8.46042 0.771484 7.38337C0.774937 6.3168 0.935498 5.3464 1.25317 4.47216C1.57429 3.59443 2.04216 2.83909 2.65678 2.20615C3.27485 1.5697 4.03104 1.07838 4.92535 0.732186C5.82311 0.385989 6.8469 0.212891 7.99672 0.212891C9.04641 0.212891 9.98906 0.363259 10.8247 0.663996C11.6603 0.964732 12.3716 1.39835 12.9586 1.96486C13.549 2.53136 13.9996 3.21501 14.3104 4.01581C14.6212 4.81661 14.7748 5.72057 14.7714 6.72769C14.7748 7.41659 14.7092 8.0338 14.5745 8.57932C14.4399 9.12484 14.2344 9.59168 13.9582 9.97984C13.6854 10.368 13.3401 10.674 12.9223 10.8978C12.508 11.1181 12.0194 11.2492 11.4565 11.2912C11.0008 11.3297 10.6555 11.3017 10.4207 11.2073C10.1859 11.1129 10.0201 10.9765 9.92345 10.7981C9.82677 10.6163 9.75944 10.4135 9.72146 10.1897H9.6593C9.57989 10.403 9.40551 10.5936 9.13619 10.7614C8.87031 10.9258 8.55264 11.0499 8.18318 11.1338C7.81372 11.2213 7.4339 11.2527 7.04372 11.2283C6.65008 11.2003 6.26681 11.1059 5.89389 10.945C5.52098 10.7806 5.18432 10.5411 4.88391 10.2264C4.58696 9.90816 4.35044 9.50776 4.17434 9.02518C4.00169 8.5426 3.91364 7.97435 3.91019 7.32042C3.91364 6.66649 4.00342 6.10524 4.17952 5.63664C4.35907 5.16456 4.59214 4.7729 4.87873 4.46167C5.16878 4.14695 5.48645 3.90391 5.83174 3.73256C6.17703 3.55771 6.51542 3.44406 6.8469 3.39161C7.24744 3.32167 7.63417 3.31642 8.00708 3.37587C8.38 3.43532 8.69421 3.53149 8.94973 3.66437C9.2087 3.79725 9.36926 3.94063 9.43141 4.09449H9.5091V3.50701H11.3012V8.75242C11.3081 8.97972 11.353 9.14408 11.4358 9.24549C11.5187 9.3469 11.6257 9.3976 11.757 9.3976C11.9572 9.3976 12.1333 9.29794 12.2853 9.09862C12.4406 8.89579 12.5598 8.58631 12.6426 8.17018C12.729 7.75055 12.7704 7.21726 12.7669 6.57033C12.7704 5.84996 12.6772 5.2345 12.4872 4.72394C12.3008 4.20989 12.047 3.78501 11.7259 3.44931C11.4048 3.1136 11.0387 2.85133 10.6278 2.6625C10.2204 2.47017 9.78879 2.33553 9.333 2.2586C8.87722 2.18167 8.42834 2.1432 7.98636 2.1432C7.10587 2.1432 6.3445 2.27783 5.70226 2.5471C5.06001 2.81287 4.52826 3.18179 4.10701 3.65388C3.68575 4.12597 3.37153 4.67324 3.16436 5.29569C2.96064 5.91465 2.85705 6.57907 2.8536 7.28895C2.85705 8.09674 2.971 8.81187 3.19544 9.43432C3.41988 10.0533 3.74963 10.5726 4.1847 10.9922C4.61977 11.4118 5.15669 11.7283 5.79549 11.9416C6.43773 12.1584 7.1732 12.2668 8.0019 12.2668C8.40589 12.2668 8.79953 12.2406 9.1828 12.1882C9.56608 12.1357 9.91482 12.0693 10.229 11.9888C10.5467 11.9084 10.8074 11.8245 11.0111 11.7371L11.6016 13.4418C11.384 13.5782 11.0836 13.7041 10.7004 13.8195C10.3205 13.9384 9.88547 14.0328 9.39516 14.1027C8.90829 14.1762 8.39726 14.2129 7.86206 14.2129ZM7.73775 9.28221C8.14865 9.28221 8.47323 9.20527 8.71148 9.05141C8.94973 8.89404 9.11892 8.66325 9.21906 8.35901C9.31919 8.05478 9.36408 7.68235 9.35372 7.24174C9.35372 6.87806 9.30883 6.55634 9.21906 6.27658C9.12928 5.99683 8.96699 5.77652 8.73219 5.61566C8.4974 5.4548 8.15901 5.37437 7.71704 5.37437C7.33721 5.37437 7.01437 5.44956 6.74849 5.59993C6.48607 5.75029 6.28407 5.96536 6.1425 6.24511C6.00439 6.52487 5.93533 6.86232 5.93533 7.25748C5.93533 7.60367 5.9923 7.93239 6.10625 8.24361C6.22019 8.55134 6.40838 8.80138 6.6708 8.99371C6.93322 9.18604 7.28887 9.28221 7.73775 9.28221Z" fill="#F6F2ED"/>
</svg>
