<svg width="14" height="14" viewBox="0 0 14 14" fill="none" xmlns="http://www.w3.org/2000/svg">
<path d="M7 0C8.85652 0 10.637 0.737498 11.9497 2.05025C13.2625 3.36301 14 5.14348 14 7C14 8.85652 13.2625 10.637 11.9497 11.9497C10.637 13.2625 8.85652 14 7 14C5.14348 14 3.36301 13.2625 2.05025 11.9497C0.737498 10.637 0 8.85652 0 7C0 5.14348 0.737498 3.36301 2.05025 2.05025C3.36301 0.737498 5.14348 0 7 0ZM7.92925 3.773C7.92925 3.54094 7.83706 3.31838 7.67297 3.15428C7.50887 2.99019 7.28631 2.898 7.05425 2.898C6.82219 2.898 6.59963 2.99019 6.43553 3.15428C6.27144 3.31838 6.17925 3.54094 6.17925 3.773V6.17925H3.773C3.54094 6.17925 3.31838 6.27144 3.15428 6.43553C2.99019 6.59963 2.898 6.82219 2.898 7.05425C2.898 7.28631 2.99019 7.50887 3.15428 7.67297C3.31838 7.83706 3.54094 7.92925 3.773 7.92925H6.17925V10.3355C6.17925 10.5676 6.27144 10.7901 6.43553 10.9542C6.59963 11.1183 6.82219 11.2105 7.05425 11.2105C7.28631 11.2105 7.50887 11.1183 7.67297 10.9542C7.83706 10.7901 7.92925 10.5676 7.92925 10.3355V7.92925H10.3355C10.5676 7.92925 10.7901 7.83706 10.9542 7.67297C11.1183 7.50887 11.2105 7.28631 11.2105 7.05425C11.2105 6.82219 11.1183 6.59963 10.9542 6.43553C10.7901 6.27144 10.5676 6.17925 10.3355 6.17925H7.92925V3.773Z" fill="#2F4F4F"/>
</svg>
