<svg width="11" height="11" viewBox="0 0 11 11" fill="none" xmlns="http://www.w3.org/2000/svg">
<path d="M4.74995 0.75C4.61188 0.75 4.49995 0.861929 4.49995 1V4.49995H1C0.861929 4.49995 0.75 4.61188 0.75 4.74995V6.2495C0.75 6.38757 0.861929 6.4995 1 6.4995H4.49995V10C4.49995 10.1381 4.61188 10.25 4.74995 10.25H6.2495C6.38757 10.25 6.4995 10.1381 6.4995 10V6.50005H10C10.1381 6.50005 10.25 6.38812 10.25 6.25005V4.74995C10.25 4.61188 10.1381 4.49995 10 4.49995H6.50005V1C6.50005 0.861929 6.38812 0.75 6.25005 0.75H4.74995Z" fill="#3E524D" stroke="#3E524D" stroke-width="0.5" stroke-linejoin="round"/>
</svg>
