<svg width="31" height="31" viewBox="0 0 31 31" fill="none" xmlns="http://www.w3.org/2000/svg">
<rect x="1.96" y="1.96" width="27.08" height="27.08" rx="13.54" fill="#2F4F4F"/>
<rect x="1.96" y="1.96" width="27.08" height="27.08" rx="13.54" stroke="white" stroke-width="2.08"/>
<path fill-rule="evenodd" clip-rule="evenodd" d="M15 9.8125C15.3797 9.8125 15.6875 10.1203 15.6875 10.5V15.3125H20.5C20.8797 15.3125 21.1875 15.6203 21.1875 16C21.1875 16.3797 20.8797 16.6875 20.5 16.6875H15.6875V21.5C15.6875 21.8797 15.3797 22.1875 15 22.1875C14.6203 22.1875 14.3125 21.8797 14.3125 21.5V16.6875H9.5C9.1203 16.6875 8.8125 16.3797 8.8125 16C8.8125 15.6203 9.1203 15.3125 9.5 15.3125H14.3125V10.5C14.3125 10.1203 14.6203 9.8125 15 9.8125Z" fill="white"/>
</svg>
