<svg width="14" height="13" viewBox="0 0 14 13" fill="none" xmlns="http://www.w3.org/2000/svg">
<path d="M5.99994 0.25C5.86187 0.25 5.74994 0.361929 5.74994 0.5V5.24994H1C0.861929 5.24994 0.75 5.36187 0.75 5.49994V7.49933C0.75 7.6374 0.861929 7.74933 1 7.74933H5.74994V12.5C5.74994 12.6381 5.86187 12.75 5.99994 12.75H7.99933C8.1374 12.75 8.24933 12.6381 8.24933 12.5V7.75006H13C13.1381 7.75006 13.25 7.63813 13.25 7.50006V5.49994C13.25 5.36187 13.1381 5.24994 13 5.24994H8.25006V0.5C8.25006 0.361929 8.13813 0.25 8.00006 0.25H5.99994Z" fill="#2D6759" stroke="#2D6759" stroke-width="0.5" stroke-linejoin="round"/>
</svg>
