<svg width="17" height="17" viewBox="0 0 17 17" fill="none" xmlns="http://www.w3.org/2000/svg">
<g clip-path="url(#clip0_6667_11355)">
<path d="M5.40168 11.6113V14.3056H2.70862V16.9999H0.000239185V16.8239C0.000239185 16.0585 0.000239185 15.293 0.000239185 14.4816C-0.00170648 14.4272 0.0082371 14.373 0.0293778 14.3228C0.0505186 14.2726 0.0823513 14.2275 0.122654 14.1909L6.55695 7.76123C6.60056 7.72657 6.63058 7.67771 6.64178 7.62313C6.65297 7.56855 6.6446 7.51182 6.61815 7.46279C6.33522 6.79153 6.19209 6.06954 6.1975 5.34107C6.20292 4.61259 6.35677 3.89285 6.64964 3.22588C6.94252 2.55891 7.36829 1.95878 7.9009 1.46201C8.43351 0.965241 9.06177 0.582287 9.74731 0.336679C10.464 0.0737951 11.2282 -0.034188 11.9896 0.0199334C12.7509 0.0740548 13.4922 0.289007 14.1645 0.650621C14.8368 1.01224 15.4249 1.51238 15.8899 2.11793C16.355 2.72348 16.6865 3.42073 16.8625 4.16378C17.0282 4.88204 17.0452 5.62658 16.9126 6.35166C16.78 7.07675 16.5004 7.76696 16.0912 8.37995C15.682 8.99295 15.1518 9.51584 14.5332 9.91621C13.9145 10.3166 13.2206 10.5861 12.4939 10.7082C11.4863 10.8842 10.4492 10.7619 9.51013 10.3561C9.47203 10.3351 9.42747 10.3288 9.38508 10.3387C9.34269 10.3486 9.30548 10.3738 9.28062 10.4096C8.92103 10.7693 8.56144 11.1751 8.1942 11.4889C8.12866 11.5479 8.04506 11.5829 7.95703 11.5883C7.19195 11.5883 6.38863 11.5883 5.60061 11.5883L5.40168 11.6113ZM9.57899 5.39619C9.57897 5.93354 9.7913 6.44903 10.1697 6.83042C10.548 7.21181 11.0617 7.42811 11.5988 7.43215C12.1326 7.43218 12.6448 7.22156 13.0244 6.84612C13.4039 6.47068 13.6202 5.96062 13.6263 5.42665C13.6303 4.89001 13.4217 4.3736 13.046 3.99055C12.6703 3.60751 12.1581 3.3891 11.6218 3.38304C11.3555 3.38102 11.0915 3.43153 10.8447 3.5316C10.5979 3.63168 10.3733 3.77933 10.1836 3.96626C9.99393 4.15319 9.8429 4.37573 9.73916 4.62106C9.63542 4.86638 9.58099 5.12982 9.57899 5.39619Z" fill="#F7F2EC"/>
<path d="M11.6062 13.7777V11.8948H12.9451V13.77H14.8348V15.1172H12.9604V17.0001H11.6139V15.1248H9.72412V13.7777H11.6062Z" fill="#F7F2EC"/>
</g>
<defs>
<clipPath id="clip0_6667_11355">
<rect width="17" height="17" fill="white"/>
</clipPath>
</defs>
</svg>
