<svg width="44" height="44" viewBox="0 0 44 44" fill="none" xmlns="http://www.w3.org/2000/svg">
<rect width="44" height="44" rx="10" fill="#2F4F4F"/>
<path d="M20.605 32H12.801C12.2486 32 12 31.7387 12 31.1885C12 28.8902 12.9168 26.6861 14.5486 25.061C16.1805 23.4358 18.3937 22.5227 20.7016 22.5227C23.0094 22.5227 25.2228 23.4358 26.8547 25.061C28.4865 26.6861 29.4033 28.8902 29.4033 31.1885C29.4142 31.2887 29.4024 31.3901 29.3687 31.4852C29.3351 31.5803 29.2806 31.6665 29.2091 31.7377C29.1375 31.809 29.0508 31.8634 28.9553 31.8969C28.8599 31.9304 28.758 31.9422 28.6574 31.9313L20.605 32Z" fill="#F6F2ED"/>
<path d="M20.6326 21.326C19.7059 21.3259 18.7999 21.0521 18.0296 20.5391C17.2593 20.0261 16.6593 19.2971 16.3053 18.4443C15.9513 17.5914 15.8595 16.6531 16.0413 15.7482C16.2231 14.8433 16.6703 14.0126 17.3265 13.361C17.9828 12.7094 18.8183 12.2663 19.7275 12.0879C20.6367 11.9096 21.5786 12.0039 22.434 12.3589C23.2893 12.714 24.0196 13.3137 24.5324 14.0823C25.0453 14.851 25.3176 15.7539 25.3149 16.6767C25.3149 17.2884 25.1936 17.8941 24.9581 18.4591C24.7227 19.024 24.3776 19.5372 23.9426 19.9691C23.5077 20.401 22.9913 20.7432 22.4233 20.976C21.8553 21.2089 21.2468 21.3278 20.6326 21.326Z" fill="#F6F2ED"/>
<path d="M27.9944 20.6658V18.6851C27.9944 18.5027 28.0672 18.3277 28.1968 18.1987C28.3263 18.0697 28.5019 17.9974 28.685 17.9974C28.8682 17.9974 29.0438 18.0697 29.1733 18.1987C29.3028 18.3277 29.3757 18.5027 29.3757 18.6851V20.652H31.3094C31.4926 20.652 31.6682 20.7245 31.7977 20.8535C31.9272 20.9825 32 21.1574 32 21.3398C32 21.5222 31.9272 21.6972 31.7977 21.8262C31.6682 21.9552 31.4926 22.0275 31.3094 22.0275H29.3757V23.9533C29.3832 24.047 29.3714 24.1412 29.3409 24.2302C29.3105 24.3191 29.2622 24.401 29.1988 24.4706C29.1354 24.5402 29.0582 24.596 28.9722 24.6348C28.8862 24.6736 28.7932 24.6945 28.6989 24.6961C28.6063 24.6945 28.5151 24.6741 28.4308 24.636C28.3465 24.5979 28.2709 24.543 28.2087 24.4746C28.1466 24.4063 28.0992 24.326 28.0695 24.2387C28.0397 24.1514 28.0283 24.0589 28.0359 23.9671V22.0275H26.0607C25.8775 22.0275 25.7019 21.9552 25.5724 21.8262C25.4429 21.6972 25.3701 21.5222 25.3701 21.3398C25.3701 21.1574 25.4429 20.9825 25.5724 20.8535C25.7019 20.7245 25.8775 20.652 26.0607 20.652L27.9944 20.6658Z" fill="#F6F2ED"/>
</svg>
