<svg width="205" height="160" viewBox="0 0 205 160" fill="none" xmlns="http://www.w3.org/2000/svg">
<g opacity="0.272">
<path d="M46.0696 147.836C66.2497 147.836 82.6089 131.477 82.6089 111.297C82.6089 91.117 66.2497 74.7578 46.0696 74.7578C25.8895 74.7578 9.53027 91.117 9.53027 111.297C9.53027 131.477 25.8895 147.836 46.0696 147.836Z" fill="#073B36"/>
<path d="M56.082 158.03C56.563 158.42 57.1486 158.658 57.765 158.715C58.3813 158.771 59.0006 158.644 59.5445 158.349C60.0885 158.053 60.5327 157.603 60.821 157.056C61.1092 156.508 61.2287 155.887 61.1641 155.272C61.0995 154.656 60.8539 154.073 60.4583 153.597C60.0626 153.122 59.5348 152.774 58.9414 152.598C58.348 152.422 57.7157 152.425 57.1246 152.609C56.5334 152.792 56.0099 153.147 55.6202 153.627C55.0977 154.273 54.8529 155.099 54.9395 155.924C55.0261 156.75 55.437 157.508 56.082 158.03Z" fill="#073B36"/>
<path d="M67.329 151.42C67.6576 151.686 68.0577 151.849 68.4788 151.888C68.8999 151.927 69.323 151.839 69.6946 151.638C70.0662 151.436 70.3696 151.129 70.5665 150.754C70.7634 150.38 70.8449 149.956 70.8007 149.535C70.7565 149.115 70.5886 148.717 70.3182 148.392C70.0478 148.067 69.6871 147.829 69.2816 147.709C68.8762 147.589 68.4443 147.592 68.0405 147.717C67.6366 147.843 67.2791 148.085 67.013 148.413C66.6561 148.854 66.489 149.418 66.5482 149.982C66.6075 150.546 66.8883 151.064 67.329 151.42Z" fill="#073B36"/>
<path d="M3.96965 101.144C4.75478 101.144 5.52227 100.912 6.17508 100.475C6.82788 100.039 7.33668 99.4192 7.63714 98.6938C7.93759 97.9685 8.0162 97.1703 7.86303 96.4003C7.70986 95.6303 7.33179 94.9229 6.77663 94.3678C6.22146 93.8126 5.51413 93.4345 4.7441 93.2814C3.97406 93.1282 3.17589 93.2068 2.45053 93.5073C1.72517 93.8077 1.1052 94.3165 0.669007 94.9693C0.232816 95.6221 0 96.3896 0 97.1747C0 98.2275 0.418229 99.2372 1.16268 99.9817C1.90714 100.726 2.91684 101.144 3.96965 101.144Z" fill="#073B36"/>
</g>
<g opacity="0.272">
<path d="M187.797 37.4614C193.764 32.9659 194.956 24.4846 190.461 18.518C185.965 12.5513 177.484 11.3588 171.517 15.8543C165.551 20.3498 164.358 28.8311 168.854 34.7977C173.349 40.7643 181.831 41.9569 187.797 37.4614Z" fill="#073B36"/>
<path d="M187.106 42.7043C187.051 42.9266 186.931 43.1275 186.761 43.2816C186.591 43.4356 186.38 43.5359 186.153 43.5698C185.927 43.6036 185.695 43.5695 185.488 43.4718C185.281 43.374 185.107 43.217 184.989 43.0205C184.871 42.8241 184.814 42.5971 184.825 42.3682C184.836 42.1393 184.915 41.9188 185.051 41.7346C185.187 41.5504 185.375 41.4108 185.591 41.3334C185.806 41.256 186.04 41.2442 186.263 41.2997C186.561 41.3741 186.817 41.5638 186.975 41.8272C187.134 42.0906 187.181 42.4061 187.106 42.7043Z" fill="#073B36"/>
<path d="M182.309 43.2532C182.271 43.4049 182.189 43.5419 182.073 43.647C181.958 43.7521 181.813 43.8205 181.659 43.8436C181.504 43.8667 181.346 43.8434 181.205 43.7767C181.063 43.71 180.945 43.6029 180.864 43.4689C180.784 43.3349 180.745 43.1801 180.752 43.0239C180.76 42.8678 180.814 42.7174 180.907 42.5918C181 42.4661 181.128 42.3709 181.275 42.3181C181.422 42.2652 181.581 42.2572 181.733 42.2951C181.936 42.3461 182.111 42.4756 182.219 42.6552C182.327 42.8348 182.359 43.0498 182.309 43.2532Z" fill="#073B36"/>
<path d="M189.842 14.277C189.61 14.4518 189.331 14.5539 189.041 14.5703C188.751 14.5868 188.462 14.5168 188.212 14.3694C187.962 14.2219 187.761 14.0035 187.634 13.7418C187.508 13.4801 187.462 13.1869 187.503 12.8992C187.543 12.6115 187.668 12.3422 187.862 12.1255C188.055 11.9087 188.309 11.7542 188.59 11.6815C188.871 11.6088 189.168 11.6211 189.442 11.7169C189.716 11.8127 189.956 11.9877 190.131 12.2198C190.365 12.5309 190.466 12.9225 190.412 13.3083C190.358 13.6941 190.153 14.0425 189.842 14.277Z" fill="#073B36"/>
</g>
<path d="M111.435 142.502C150.786 142.502 182.686 110.602 182.686 71.2509C182.686 31.9001 150.786 0 111.435 0C72.0838 0 40.1836 31.9001 40.1836 71.2509C40.1836 110.602 72.0838 142.502 111.435 142.502Z" fill="#F7F2EC"/>
<path d="M111.434 141.122C150.023 141.122 181.306 109.84 181.306 71.2505C181.306 32.6615 150.023 1.37891 111.434 1.37891C72.8451 1.37891 41.5625 32.6615 41.5625 71.2505C41.5625 109.84 72.8451 141.122 111.434 141.122Z" stroke="#002C27" stroke-width="2"/>
<path d="M177.402 71.9534C177.416 80.6884 175.691 89.3386 172.328 97.4004C168.966 105.462 164.032 112.774 157.816 118.911C151.747 124.955 144.542 129.74 136.617 132.99C128.692 136.24 120.202 137.891 111.637 137.848C98.5979 137.874 85.8447 134.031 74.991 126.806C64.1373 119.581 55.671 109.298 50.6636 97.2591C45.6562 85.2203 44.3328 71.9667 46.8609 59.1755C49.389 46.3842 55.6549 34.6305 64.8656 25.4018C74.0764 16.1731 85.8179 9.8842 98.6042 7.3312C111.391 4.7782 124.647 6.07588 136.695 11.0598C148.744 16.0437 159.043 24.4899 166.29 35.3295C173.536 46.1691 177.404 58.9148 177.404 71.9534H177.402Z" fill="#2C6759"/>
<path d="M111.435 131.894C144.925 131.894 172.075 104.745 172.075 71.2542C172.075 37.7637 144.925 10.6143 111.435 10.6143C77.9444 10.6143 50.7949 37.7637 50.7949 71.2542C50.7949 104.745 77.9444 131.894 111.435 131.894Z" fill="#F7F2EC"/>
<path d="M111.436 130.514C144.164 130.514 170.696 103.982 170.696 71.2537C170.696 38.525 144.164 11.9932 111.436 11.9932C78.7067 11.9932 52.1748 38.525 52.1748 71.2537C52.1748 103.982 78.7067 130.514 111.436 130.514Z" stroke="#002C27" stroke-width="2"/>
<path d="M111.803 20.6615C83.7356 20.6615 60.9824 43.4147 60.9824 71.4821C60.9824 99.5496 83.7356 122.303 111.803 122.303C139.871 122.303 162.624 99.5496 162.624 71.4821C162.624 43.4147 139.871 20.6615 111.803 20.6615Z" stroke="#002C27" stroke-width="1.5" stroke-dasharray="1.5 1.5"/>
<path fill-rule="evenodd" clip-rule="evenodd" d="M102.521 50.4087C102.52 49.5307 102.693 48.661 103.028 47.8495C103.364 47.0381 103.856 46.3008 104.477 45.6799C105.098 45.059 105.835 44.5667 106.646 44.2312C107.458 43.8957 108.328 43.7235 109.206 43.7246H113.662C115.434 43.7261 117.134 44.4308 118.387 45.684C119.64 46.9372 120.345 48.6364 120.346 50.4087V54.8653C120.345 55.4555 120.109 56.0211 119.692 56.4384C119.275 56.8558 118.709 57.091 118.119 57.0929H104.749C104.456 57.0938 104.166 57.0368 103.896 56.9252C103.625 56.8135 103.379 56.6495 103.172 56.4425C102.965 56.2354 102.801 55.9895 102.689 55.7188C102.578 55.4481 102.521 55.1581 102.521 54.8653V50.4087ZM109.206 48.1812C108.912 48.1784 108.621 48.2341 108.35 48.3451C108.078 48.4561 107.832 48.62 107.624 48.8274C107.417 49.0348 107.253 49.2815 107.142 49.553C107.031 49.8245 106.975 50.1154 106.978 50.4087V52.6377H115.891V50.4087C115.892 50.116 115.835 49.8259 115.723 49.5552C115.612 49.2845 115.448 49.0386 115.241 48.8316C115.034 48.6245 114.788 48.4605 114.517 48.3489C114.246 48.2372 113.956 48.1802 113.664 48.1812H109.206Z" fill="#2C6759"/>
<path d="M127.39 89.3439H95.4757C93.7887 89.3439 92.171 88.6726 90.9781 87.4797C89.7853 86.2869 89.1152 84.6704 89.1152 82.9835C89.1152 81.2965 89.7853 79.6774 90.9781 78.4846C92.171 77.2917 93.7887 76.623 95.4757 76.623H127.39C129.077 76.623 130.695 77.2917 131.888 78.4846C133.081 79.6774 133.751 81.2965 133.751 82.9835C133.751 84.6704 133.081 86.2869 131.888 87.4797C130.695 88.6726 129.077 89.3439 127.39 89.3439ZM123.182 81.3914V84.581H126.752V81.3914H123.182ZM114.906 81.3914V84.581H118.492V81.3914H114.906ZM106.164 81.3914V84.581H109.734V81.3914H106.164ZM97.4359 81.3914V84.581H101.005V81.3914H97.4359Z" fill="#2C6759"/>
<path d="M102.523 54.0177C102.229 54.0149 101.938 54.0706 101.667 54.1816C101.395 54.2926 101.149 54.4566 100.941 54.664C100.734 54.8714 100.57 55.118 100.459 55.3895C100.348 55.6611 100.292 55.952 100.295 56.2453V69.6135C100.294 69.9063 100.351 70.1964 100.463 70.467C100.574 70.7377 100.738 70.9836 100.945 71.1907C101.152 71.3977 101.398 71.5618 101.669 71.6734C101.94 71.785 102.23 71.842 102.523 71.8411H120.349C120.939 71.8393 121.505 71.604 121.922 71.1866C122.339 70.7693 122.575 70.2037 122.576 69.6135V56.2453C122.577 55.9525 122.52 55.6624 122.409 55.3917C122.297 55.121 122.133 54.8751 121.926 54.6681C121.719 54.4611 121.473 54.297 121.202 54.1854C120.932 54.0738 120.642 54.0168 120.349 54.0177H102.523Z" fill="#2C6759"/>
</svg>
