<svg xmlns="http://www.w3.org/2000/svg" width="278.027" height="214.833" viewBox="0 0 278.027 214.833">
  <g id="illustration" transform="translate(-51.999 -369)">
    <g id="background" transform="translate(0.063 146.001)">
      <circle id="Ellipse_1999" data-name="Ellipse 1999" cx="100.777" cy="100.777" r="100.777" transform="translate(83.279 222.999)" fill="#073b36" opacity="0.26"/>
      <path id="Path_25534" data-name="Path 25534" d="M122.53,21.4a5.9,5.9,0,1,0-5.9-5.9A5.9,5.9,0,0,0,122.53,21.4Z" transform="translate(189.572 307.115)" fill="#073b36" opacity="0.2"/>
      <g id="Group_41131" data-name="Group 41131" transform="translate(57.255 62.5)">
        <g id="Group_40642" data-name="Group 40642" transform="translate(47.898 362.053)">
          <g id="Group_40641" data-name="Group 40641">
            <rect id="Rectangle_7701" data-name="Rectangle 7701" width="1.822" height="3.536" fill="#508b82"/>
          </g>
        </g>
        <g id="Group_40644" data-name="Group 40644" transform="translate(47.898 371.796)">
          <g id="Group_40643" data-name="Group 40643" transform="translate(0 0)">
            <rect id="Rectangle_7702" data-name="Rectangle 7702" width="1.822" height="3.536" fill="#508b82"/>
          </g>
        </g>
        <g id="Group_40646" data-name="Group 40646" transform="translate(51.913 367.782)">
          <g id="Group_40645" data-name="Group 40645">
            <rect id="Rectangle_7703" data-name="Rectangle 7703" width="3.536" height="1.822" fill="#508b82"/>
          </g>
        </g>
        <g id="Group_40648" data-name="Group 40648" transform="translate(42.17 367.782)">
          <g id="Group_40647" data-name="Group 40647">
            <rect id="Rectangle_7704" data-name="Rectangle 7704" width="3.536" height="1.822" fill="#508b82"/>
          </g>
        </g>
      </g>
      <g id="Group_40650" data-name="Group 40650" transform="translate(51.937 266.141)">
        <g id="Group_40649" data-name="Group 40649">
          <circle id="Ellipse_2034" data-name="Ellipse 2034" cx="3.612" cy="3.612" r="3.612" fill="#508b82"/>
        </g>
      </g>
      <g id="Group_40652" data-name="Group 40652" transform="translate(65.527 320.894)">
        <g id="Group_40651" data-name="Group 40651">
          <circle id="Ellipse_2035" data-name="Ellipse 2035" cx="2.865" cy="2.865" r="2.865" fill="#508b82"/>
        </g>
      </g>
      <g id="Group_40656" data-name="Group 40656" transform="translate(323.563 331.07)">
        <g id="Group_40655" data-name="Group 40655">
          <circle id="Ellipse_2037" data-name="Ellipse 2037" cx="3.201" cy="3.201" r="3.201" fill="#508b82"/>
        </g>
      </g>
      <g id="Group_41157" data-name="Group 41157" transform="translate(274.527 239.751)">
        <g id="Group_40651-2" data-name="Group 40651">
          <circle id="Ellipse_2035-2" data-name="Ellipse 2035" cx="2.865" cy="2.865" r="2.865" fill="#508b82"/>
        </g>
      </g>
    </g>
    <g id="Group_54273" data-name="Group 54273" transform="translate(6.69)">
      <g id="DIGITAL_KEY" data-name="DIGITAL KEY" transform="translate(308.845 399.445) rotate(90)">
        <g id="Group_50039" data-name="Group 50039" transform="translate(65.036 160.981)">
          <g id="Group_50038" data-name="Group 50038">
            <circle id="Ellipse_3192" data-name="Ellipse 3192" cx="1.356" cy="1.356" r="1.356" fill="#f2ede6"/>
          </g>
        </g>
        <g id="Group_50041" data-name="Group 50041" transform="translate(123.227 88.156)">
          <g id="Group_50040" data-name="Group 50040">
            <circle id="Ellipse_3193" data-name="Ellipse 3193" cx="3.346" cy="3.346" r="3.346" fill="#f2ede6"/>
          </g>
        </g>
        <g id="Group_50044" data-name="Group 50044" transform="translate(63.181 110.393)">
          <g id="Group_50043" data-name="Group 50043">
            <g id="Group_50042" data-name="Group 50042">
              <path id="Path_205373" data-name="Path 205373" d="M280.658,170.925H235.911a.741.741,0,0,0-.741.741v38.613a.741.741,0,0,0,.741.741h44.747a.741.741,0,0,0,.741-.741V171.666A.741.741,0,0,0,280.658,170.925Zm-.74,38.613H236.651V172.406h43.266v37.131Z" transform="translate(-235.17 -170.925)" fill="#f2ede6"/>
            </g>
          </g>
        </g>
        <g id="Group_50046" data-name="Group 50046" transform="translate(66.391 113.603)">
          <g id="Group_50045" data-name="Group 50045" transform="translate(0 0)">
            <rect id="Rectangle_9453" data-name="Rectangle 9453" width="39.81" height="33.675" fill="#0b4a40"/>
          </g>
        </g>
        <g id="Group_50049" data-name="Group 50049" transform="translate(107.929 110.393)">
          <g id="Group_50048" data-name="Group 50048">
            <g id="Group_50047" data-name="Group 50047">
              <path id="Path_205374" data-name="Path 205374" d="M420.049,170.925H402.468a.741.741,0,0,0-.741.741v38.613a.741.741,0,0,0,.741.741h17.581a11.317,11.317,0,0,0,11.3-11.3V182.23A11.318,11.318,0,0,0,420.049,170.925Zm9.823,28.789a9.834,9.834,0,0,1-9.823,9.823H403.208V172.406h16.841a9.834,9.834,0,0,1,9.823,9.824v17.484Z" transform="translate(-401.727 -170.925)" fill="#f2ede6"/>
            </g>
          </g>
        </g>
        <g id="Group_50051" data-name="Group 50051" transform="translate(111.139 113.603)">
          <g id="Group_50050" data-name="Group 50050" transform="translate(0 0)">
            <path id="Path_205375" data-name="Path 205375" d="M428.785,182.872H413.673v33.675h15.112a8.1,8.1,0,0,0,8.1-8.1V190.967A8.1,8.1,0,0,0,428.785,182.872Z" transform="translate(-413.673 -182.872)" fill="#508b82"/>
          </g>
        </g>
        <g id="Group_50054" data-name="Group 50054" transform="translate(11.481 96.435)">
          <g id="Group_50053" data-name="Group 50053">
            <g id="Group_50052" data-name="Group 50052">
              <path id="Path_205376" data-name="Path 205376" d="M59.926,145.982a7.195,7.195,0,1,0,7.195,7.195A7.2,7.2,0,0,0,59.926,145.982Zm0,12.907a5.713,5.713,0,1,1,5.713-5.713A5.72,5.72,0,0,1,59.926,158.889Zm35.7-25.607L77.3,119.125a.74.74,0,0,0-.453-.154H52.761a.74.74,0,0,0-.451.153l-9.288,7.12a.741.741,0,0,0-.29.588v52.682a.74.74,0,0,0,.29.588l9.288,7.125a.74.74,0,0,0,.451.153H76.848a.743.743,0,0,0,.453-.155l18.325-14.162a.741.741,0,0,0,.288-.586v-38.61A.741.741,0,0,0,95.625,133.282Zm-1.193,38.832L76.595,185.9H53.012l-8.8-6.75V127.2l8.8-6.745H76.6l17.837,13.78v37.882Z" transform="translate(-42.732 -118.971)" fill="#f2ede6"/>
            </g>
          </g>
        </g>
        <g id="Group_50057" data-name="Group 50057" transform="translate(16.418 101.373)">
          <g id="Group_50056" data-name="Group 50056" transform="translate(0 0)">
            <g id="Group_50055" data-name="Group 50055">
              <path id="Path_205377" data-name="Path 205377" d="M62.592,180.483H61.111v1.481h1.481Zm0-8.888H61.111v1.481h1.481Zm0-11.851H61.111v1.481h1.481Zm0,17.777H61.111V179h1.481Zm0-2.963H61.111v1.481h1.481Zm0-11.851H61.111v1.481h1.481Zm0,5.925H61.111v1.481h1.481Zm0-2.963H61.111v1.481h1.481Zm0-8.888H61.111v1.481h1.481Zm6.339,15.5.915-1.165a5.841,5.841,0,0,1-.933-.921l-1.153.93A7.308,7.308,0,0,0,68.932,172.283Zm-2.591,20.75-.9,1.175.773.593a5.3,5.3,0,0,0,.487.332l.765-1.269a3.737,3.737,0,0,1-.349-.238Zm-3.075-52.341.9,1.176,1.176-.9-.9-1.176Zm5.343,53.626-.313,1.448a5.247,5.247,0,0,0,1.108.118h.523V194.4H69.4A3.751,3.751,0,0,1,68.609,194.318Zm-6.016-7.909H61.111v1.481h1.481Zm.484,5.985,1.187.912.9-1.175L64,191.239Zm-.484-8.948H61.111v1.481h1.481Zm.106,5.741-1.44.349a5.238,5.238,0,0,0,.672,1.58l1.25-.8A3.758,3.758,0,0,1,62.7,189.187Zm16.341-51.836H77.558v1.481h1.481Zm-2.963,0H74.6v1.481h1.481Zm1.479,25.383,1.085-1.008a7.28,7.28,0,0,0-1.249-1.072l-.831,1.226A5.821,5.821,0,0,1,77.555,162.734Zm-14.963-8.915H61.111V155.3h1.481Zm9.608,18.4a5.6,5.6,0,0,1-1.239-.411l-.627,1.342a7.09,7.09,0,0,0,1.567.519Zm8.259-4.381a7.249,7.249,0,0,0,.1-1.216c0-.142,0-.284-.012-.427l-1.479.086q.01.172.01.341a5.756,5.756,0,0,1-.081.967Zm21.256-18.662,1-1.092c-.108-.1-.22-.193-.336-.282l-.874-.675-.906,1.172.876.676Q101.6,149.067,101.714,149.172Zm1.166,2.133,1.46-.253a5.231,5.231,0,0,0-.566-1.621l-1.3.711A3.751,3.751,0,0,1,102.88,151.305ZM70.363,161.757l-.78-1.259a7.235,7.235,0,0,0-1.292,1.021l1.045,1.05A5.712,5.712,0,0,1,70.363,161.757Zm8.484,3.231,1.42-.422a7.125,7.125,0,0,0-.65-1.516l-1.284.738A5.664,5.664,0,0,1,78.848,164.988ZM69.4,138.832h.748v-1.481H69.4a5.231,5.231,0,0,0-.85.07l.241,1.462A3.758,3.758,0,0,1,69.4,138.832Zm-6.119,3.924-1.209-.856a5.238,5.238,0,0,0-.749,1.545l1.421.42A3.763,3.763,0,0,1,63.284,142.757Zm-.692,5.136H61.111v1.481h1.481Zm0-2.963H61.111v1.481h1.481Zm0,5.925H61.111v1.481h1.481Zm3.615,15.05c-.023.235-.035.474-.035.712a7.515,7.515,0,0,0,.059.931l1.47-.186a5.979,5.979,0,0,1-.047-.746q0-.287.028-.567Zm2.006,3.185a5.6,5.6,0,0,1-.427-1.233l-1.447.318a7.084,7.084,0,0,0,.54,1.559Zm-.949-6.285a7.157,7.157,0,0,0-.708,1.489l1.4.478a5.7,5.7,0,0,1,.562-1.181Zm-.149-23.2a3.769,3.769,0,0,1,.512-.33l-.7-1.306a5.22,5.22,0,0,0-.714.46l-.6.457.9,1.176Zm19.954,54.8h-.847v1.481h.847a5.261,5.261,0,0,0,.736-.052l-.208-1.466A3.768,3.768,0,0,1,87.068,194.4Zm13.351-9.327.906,1.172,1.055-.815c.046-.036.091-.072.136-.109l-.946-1.14Zm-2.165-38.594,1.172.906.906-1.172-1.172-.906ZM72.686,159.455a7.177,7.177,0,0,0-1.612.341l.472,1.4a5.714,5.714,0,0,1,1.28-.271ZM102.935,180.8h1.481v-1.481h-1.481Zm-9.548,9.71.906,1.172,1.172-.906-.906-1.172Zm4.688-3.624.906,1.172,1.172-.906-.906-1.172ZM93.566,142.86l1.172.906.906-1.172-1.172-.906Zm2.165,45.84.906,1.172,1.172-.906-.906-1.172Zm.179-44.028,1.172.906.906-1.172-1.172-.906Zm7.025,33.168h1.481v-1.481h-1.481Zm0-20.739h1.481v-1.481h-1.481Zm0,2.963h1.481v-1.481h-1.481Zm0-7.407v1.481h1.481v-1.481Zm0,10.37h1.481v-1.481h-1.481Zm0,11.851h1.481V173.4h-1.481Zm0-2.963h1.481v-1.481h-1.481Zm0-2.963h1.481V167.47h-1.481Zm0-2.963h1.481v-1.481h-1.481Zm-.556,17.265,1.262.775a5.237,5.237,0,0,0,.647-1.59l-1.445-.327A3.759,3.759,0,0,1,102.379,183.254Zm-28.241-22.3a5.554,5.554,0,0,1,1.264.32l.53-1.383a7.036,7.036,0,0,0-1.6-.405Zm2.964,9.987a5.735,5.735,0,0,1-1.081.737l.69,1.311a7.228,7.228,0,0,0,1.36-.928Zm.887-.963,1.2.873A7.177,7.177,0,0,0,80,169.416l-1.365-.576A5.69,5.69,0,0,1,77.988,169.978Zm-3.618,25.907h1.481V194.4H74.371Zm2.963,0h1.481V194.4H77.333ZM74.8,172.15a5.736,5.736,0,0,1-1.3.18l.035,1.481a7.211,7.211,0,0,0,1.632-.227Zm16.42-31.1,1.172.906.906-1.172-1.172-.906Zm-19.589-2.216h1.481v-1.481H71.632Zm-.225,57.052h1.481V194.4H71.408Zm15.038-58.534v1.481h.622a3.765,3.765,0,0,1,.713.068l.281-1.454a5.255,5.255,0,0,0-.994-.1Zm2.922,56.267a3.763,3.763,0,0,1-.6.377l.671,1.321a5.262,5.262,0,0,0,.832-.526l.5-.388-.906-1.172Zm.3-55.575-.736,1.286a3.756,3.756,0,0,1,.431.288l.681.526.906-1.172-.68-.526A5.26,5.26,0,0,0,89.673,138.043Zm1.369,54.281.906,1.172,1.172-.906-.906-1.172Zm-7.559-53.492h1.481v-1.481H83.484Zm-2.963,0H82v-1.481H80.521ZM80.3,195.885h1.481V194.4H80.3Zm2.963,0H84.74V194.4H83.259Z" transform="translate(-61.111 -137.351)" fill="#508b82"/>
            </g>
          </g>
        </g>
        <g id="Group_50059" data-name="Group 50059" transform="translate(19.563 104.452)">
          <g id="Group_50058" data-name="Group 50058">
            <path id="Path_205378" data-name="Path 205378" d="M96.495,148.812H78.149L72.817,152.9v3.9l6.075-4.659H95.747l14.085,10.991v-4.017Z" transform="translate(-72.817 -148.812)" fill="#1f5248"/>
          </g>
        </g>
        <g id="Group_50062" data-name="Group 50062" transform="translate(107.929 117.101)">
          <g id="Group_50061" data-name="Group 50061" transform="translate(0 0)">
            <g id="Group_50060" data-name="Group 50060">
              <path id="Path_205379" data-name="Path 205379" d="M424.721,195.893H402.468a.741.741,0,0,0-.741.741v3.313a.741.741,0,0,0,.741.741h22.253a.741.741,0,0,0,.741-.741v-3.313A.741.741,0,0,0,424.721,195.893Zm-.741,3.313H403.208v-1.832H423.98v1.832Z" transform="translate(-401.727 -195.893)" fill="#f2ede6"/>
            </g>
          </g>
        </g>
        <g id="Group_50065" data-name="Group 50065" transform="translate(107.929 123.373)">
          <g id="Group_50064" data-name="Group 50064" transform="translate(0 0)">
            <g id="Group_50063" data-name="Group 50063">
              <path id="Path_205380" data-name="Path 205380" d="M420.309,219.238H402.467a.741.741,0,0,0-.741.741v3.313a.741.741,0,0,0,.741.741h17.843a.741.741,0,0,0,.741-.741v-3.313A.741.741,0,0,0,420.309,219.238Zm-.74,3.313H403.207v-1.832h16.361v1.832Z" transform="translate(-401.726 -219.238)" fill="#f2ede6"/>
            </g>
          </g>
        </g>
        <g id="Group_50068" data-name="Group 50068" transform="translate(107.929 129.645)">
          <g id="Group_50067" data-name="Group 50067">
            <g id="Group_50066" data-name="Group 50066">
              <path id="Path_205381" data-name="Path 205381" d="M420.8,244.272l-1.683-1.5a.742.742,0,0,0-.493-.188h-16.16a.741.741,0,0,0-.741.741v6.226a.741.741,0,0,0,.741.741h16.16a.74.74,0,0,0,.507-.2l1.683-1.582a.74.74,0,0,0,.233-.54v-3.142A.741.741,0,0,0,420.8,244.272Zm-1.233,3.375-1.236,1.162H403.207v-4.744h15.137l1.225,1.092v2.49Z" transform="translate(-401.726 -242.583)" fill="#f2ede6"/>
            </g>
          </g>
        </g>
        <g id="Group_50071" data-name="Group 50071" transform="translate(107.929 139.23)">
          <g id="Group_50070" data-name="Group 50070">
            <g id="Group_50069" data-name="Group 50069">
              <path id="Path_205382" data-name="Path 205382" d="M424.721,278.261H402.468a.741.741,0,0,0-.741.741v3.313a.741.741,0,0,0,.741.741h22.253a.741.741,0,0,0,.741-.741V279A.741.741,0,0,0,424.721,278.261Zm-.741,3.313H403.208v-1.832H423.98v1.832Z" transform="translate(-401.727 -278.261)" fill="#f2ede6"/>
            </g>
          </g>
        </g>
        <g id="Group_50073" data-name="Group 50073" transform="translate(63.922 117.101)">
          <g id="Group_50072" data-name="Group 50072" transform="translate(0 0)">
            <rect id="Rectangle_9454" data-name="Rectangle 9454" width="42.278" height="1.481" fill="#f2ede6"/>
          </g>
        </g>
        <g id="Group_50075" data-name="Group 50075" transform="translate(63.922 120.414)">
          <g id="Group_50074" data-name="Group 50074">
            <rect id="Rectangle_9455" data-name="Rectangle 9455" width="42.278" height="1.481" fill="#f2ede6"/>
          </g>
        </g>
        <g id="Group_50077" data-name="Group 50077" transform="translate(63.922 126.686)">
          <g id="Group_50076" data-name="Group 50076">
            <rect id="Rectangle_9456" data-name="Rectangle 9456" width="42.278" height="1.481" fill="#f2ede6"/>
          </g>
        </g>
        <g id="Group_50079" data-name="Group 50079" transform="translate(63.922 129.699)">
          <g id="Group_50078" data-name="Group 50078">
            <rect id="Rectangle_9457" data-name="Rectangle 9457" width="42.278" height="1.481" fill="#f2ede6"/>
          </g>
        </g>
        <g id="Group_50081" data-name="Group 50081" transform="translate(63.922 135.87)">
          <g id="Group_50080" data-name="Group 50080">
            <rect id="Rectangle_9458" data-name="Rectangle 9458" width="42.278" height="1.481" fill="#f2ede6"/>
          </g>
        </g>
        <g id="Group_50083" data-name="Group 50083" transform="translate(63.922 142.544)">
          <g id="Group_50082" data-name="Group 50082">
            <rect id="Rectangle_9459" data-name="Rectangle 9459" width="42.278" height="1.481" fill="#f2ede6"/>
          </g>
        </g>
        <g id="Group_50085" data-name="Group 50085" transform="translate(63.922 139.23)">
          <g id="Group_50084" data-name="Group 50084">
            <rect id="Rectangle_9460" data-name="Rectangle 9460" width="42.278" height="1.481" fill="#f2ede6"/>
          </g>
        </g>
      </g>
      <g id="Group_50176" data-name="Group 50176" transform="translate(221.16 494.232)">
        <g id="Group_50175" data-name="Group 50175" transform="translate(0 0)">
          <g id="Group_50174" data-name="Group 50174">
            <path id="Path_205395" data-name="Path 205395" d="M372.105,301.043H356.7a1.179,1.179,0,0,0-1.179,1.179,9.514,9.514,0,0,0,8.794,9.5c.029,0,.059,0,.089,0s.06,0,.089,0a9.514,9.514,0,0,0,8.793-9.5A1.179,1.179,0,0,0,372.105,301.043Zm-3.273,6.252a6.483,6.483,0,0,1-10.859-3.893H370.83A7.159,7.159,0,0,1,368.832,307.295Z" transform="translate(-355.519 -301.043)" fill="#f2ede6"/>
          </g>
        </g>
      </g>
      <g id="Group_50178" data-name="Group 50178" transform="translate(226.709 497.772)">
        <g id="Group_50177" data-name="Group 50177" transform="translate(0)">
          <path id="Path_205396" data-name="Path 205396" d="M369.463,307.812h-3.334a2.774,2.774,0,0,0,1.057,2.125,3.419,3.419,0,0,0,4.553,0,2.774,2.774,0,0,0,1.057-2.125Z" transform="translate(-366.129 -307.812)" fill="#508b82"/>
        </g>
      </g>
      <g id="Group_50180" data-name="Group 50180" transform="translate(240.928 450.025)">
        <g id="Group_50179" data-name="Group 50179" transform="translate(0 0)">
          <path id="Path_205397" data-name="Path 205397" d="M400.813,218.089a3.729,3.729,0,0,0-6.084,0,6.763,6.763,0,0,0-1.413,4.192v.586h8.91v-.586A6.759,6.759,0,0,0,400.813,218.089Z" transform="translate(-393.316 -216.517)" fill="#508b82"/>
        </g>
      </g>
      <g id="Group_50183" data-name="Group 50183" transform="translate(244.271 445.455)">
        <g id="Group_50182" data-name="Group 50182" transform="translate(0 0)">
          <g id="Group_50181" data-name="Group 50181">
            <path id="Path_205398" data-name="Path 205398" d="M438.343,210.566a9.5,9.5,0,0,0-6.741-2.786H400.889a1.179,1.179,0,0,0-.089,2.355,7.209,7.209,0,0,1,6.613,7.177,1.18,1.18,0,0,0,1.179,1.179h31.362a1.179,1.179,0,0,0,1.179-1.179A9.515,9.515,0,0,0,438.343,210.566ZM409.7,216.133a9.511,9.511,0,0,0-2.719-5.567q-.224-.222-.458-.427H431.6a7.161,7.161,0,0,1,7.078,5.995Z" transform="translate(-399.709 -207.78)" fill="#f2ede6"/>
          </g>
        </g>
      </g>
      <g id="Group_50186" data-name="Group 50186" transform="translate(228.864 445.454)">
        <g id="Group_50185" data-name="Group 50185" transform="translate(0 0)">
          <g id="Group_50184" data-name="Group 50184">
            <path id="Path_205399" data-name="Path 205399" d="M410.493,216.118H395.645a9.569,9.569,0,0,0-8.719-8.336,1.126,1.126,0,0,0-.178,0,9.567,9.567,0,0,0-8.793,9.515l0,40.437a7.155,7.155,0,0,1-6.613,7.15,1.179,1.179,0,0,0,.088,2.355l30.713.027a9.517,9.517,0,0,0,9.531-9.532V217.3A1.179,1.179,0,0,0,410.493,216.118Zm-3.273,46.69a7.163,7.163,0,0,1-5.078,2.1l-25.055-.022q.226-.2.439-.41a9.506,9.506,0,0,0,2.786-6.742l0-40.436a6.529,6.529,0,1,1,13.047,0,1.179,1.179,0,0,0,1.179,1.177h14.775v39.259h0A7.156,7.156,0,0,1,407.22,262.808Z" transform="translate(-370.249 -207.778)" fill="#f2ede6"/>
          </g>
        </g>
      </g>
      <g id="Group_50188" data-name="Group 50188" transform="translate(260.042 469.023) rotate(90)">
        <g id="Group_50187" data-name="Group 50187" transform="translate(0 0)">
          <rect id="Rectangle_9485" data-name="Rectangle 9485" width="2.358" height="19.336" fill="#b2d0cb"/>
        </g>
      </g>
      <g id="Group_50190" data-name="Group 50190" transform="translate(253.181 475.939) rotate(90)">
        <g id="Group_50189" data-name="Group 50189" transform="translate(0 0)">
          <rect id="Rectangle_9486" data-name="Rectangle 9486" width="2.358" height="12.431" fill="#b2d0cb"/>
        </g>
      </g>
      <g id="Group_50192" data-name="Group 50192" transform="translate(265.969 482.854) rotate(90)">
        <g id="Group_50191" data-name="Group 50191" transform="translate(0 0)">
          <rect id="Rectangle_9487" data-name="Rectangle 9487" width="2.358" height="25.18" fill="#b2d0cb"/>
        </g>
      </g>
      <g id="Group_50195" data-name="Group 50195" transform="translate(75.31 494.232)">
        <g id="Group_50194" data-name="Group 50194" transform="translate(0 0)">
          <g id="Group_50193" data-name="Group 50193">
            <path id="Path_205400" data-name="Path 205400" d="M54.994,301.043H39.587a1.179,1.179,0,0,0-1.179,1.179,9.513,9.513,0,0,0,8.793,9.5c.029,0,.059,0,.089,0s.059,0,.089,0a9.513,9.513,0,0,0,8.794-9.5A1.179,1.179,0,0,0,54.994,301.043ZM51.72,307.3a7.2,7.2,0,0,1-4.429,2.069,7.155,7.155,0,0,1-6.428-5.963H53.719A7.157,7.157,0,0,1,51.72,307.3Z" transform="translate(-38.408 -301.043)" fill="#f2ede6"/>
          </g>
        </g>
      </g>
      <g id="Group_50197" data-name="Group 50197" transform="translate(80.859 497.772)">
        <g id="Group_50196" data-name="Group 50196" transform="translate(0)">
          <path id="Path_205401" data-name="Path 205401" d="M52.352,307.812H49.018a2.774,2.774,0,0,0,1.057,2.125,3.419,3.419,0,0,0,4.553,0,2.772,2.772,0,0,0,1.057-2.125Z" transform="translate(-49.018 -307.812)" fill="#508b82"/>
        </g>
      </g>
      <g id="Group_50199" data-name="Group 50199" transform="translate(95.077 450.025)">
        <g id="Group_50198" data-name="Group 50198" transform="translate(0 0)">
          <path id="Path_205402" data-name="Path 205402" d="M83.7,218.089a4.619,4.619,0,0,0-3.042-1.572,4.617,4.617,0,0,0-3.042,1.572,6.763,6.763,0,0,0-1.413,4.192v.586h8.91v-.586A6.762,6.762,0,0,0,83.7,218.089Z" transform="translate(-76.204 -216.517)" fill="#508b82"/>
        </g>
      </g>
      <g id="Group_50202" data-name="Group 50202" transform="translate(98.421 445.455)">
        <g id="Group_50201" data-name="Group 50201" transform="translate(0 0)">
          <g id="Group_50200" data-name="Group 50200">
            <path id="Path_205403" data-name="Path 205403" d="M121.232,210.566a9.506,9.506,0,0,0-6.742-2.786H83.778a1.179,1.179,0,0,0-.089,2.355,7.209,7.209,0,0,1,6.613,7.177,1.179,1.179,0,0,0,1.179,1.179h31.362a1.179,1.179,0,0,0,1.179-1.179A9.514,9.514,0,0,0,121.232,210.566Zm-28.644,5.567a9.51,9.51,0,0,0-2.719-5.568q-.223-.221-.458-.427H114.49a7.159,7.159,0,0,1,7.077,5.995Z" transform="translate(-82.598 -207.78)" fill="#f2ede6"/>
          </g>
        </g>
      </g>
      <g id="Group_50205" data-name="Group 50205" transform="translate(83.013 445.455)">
        <g id="Group_50204" data-name="Group 50204" transform="translate(0 0)">
          <g id="Group_50203" data-name="Group 50203">
            <path id="Path_205404" data-name="Path 205404" d="M93.38,216.118H78.532a9.569,9.569,0,0,0-8.719-8.336,1.133,1.133,0,0,0-.179,0,9.566,9.566,0,0,0-8.793,9.515l0,40.437a7.155,7.155,0,0,1-6.613,7.15,1.179,1.179,0,0,0,.088,2.355l30.714.027a9.518,9.518,0,0,0,9.531-9.532V217.3A1.179,1.179,0,0,0,93.38,216.118Zm-3.273,46.69a7.161,7.161,0,0,1-5.077,2.1l-25.056-.022q.225-.2.439-.41a9.5,9.5,0,0,0,2.786-6.742l0-40.436a7.211,7.211,0,0,1,6.524-7.158,7.21,7.21,0,0,1,6.523,7.158,1.179,1.179,0,0,0,1.179,1.177H92.2v39.259h0A7.16,7.16,0,0,1,90.107,262.809Z" transform="translate(-53.136 -207.779)" fill="#f2ede6"/>
          </g>
        </g>
      </g>
      <g id="Group_50207" data-name="Group 50207" transform="translate(114.414 468.023) rotate(90)">
        <g id="Group_50206" data-name="Group 50206" transform="translate(0 0)">
          <rect id="Rectangle_9488" data-name="Rectangle 9488" width="2.358" height="19.336" fill="#b2d0cb"/>
        </g>
      </g>
      <g id="Group_50209" data-name="Group 50209" transform="translate(107.552 474.939) rotate(90)">
        <g id="Group_50208" data-name="Group 50208" transform="translate(0 0)">
          <rect id="Rectangle_9489" data-name="Rectangle 9489" width="2.359" height="12.431" fill="#b2d0cb"/>
        </g>
      </g>
      <g id="Group_50211" data-name="Group 50211" transform="translate(120.34 481.854) rotate(90)">
        <g id="Group_50210" data-name="Group 50210" transform="translate(0 0)">
          <rect id="Rectangle_9490" data-name="Rectangle 9490" width="2.358" height="25.18" fill="#b2d0cb"/>
        </g>
      </g>
      <g id="Group_53680" data-name="Group 53680" transform="translate(92.15 419.681)">
        <g id="Group_53679" data-name="Group 53679">
          <path id="Path_206296" data-name="Path 206296" d="M72.894,155.6a1.257,1.257,0,0,0-1.257,1.257v16.865h2.514V158.116h35.277V155.6H72.894Z" transform="translate(-71.637 -155.601)" fill="#b2d0cb"/>
        </g>
      </g>
      <g id="Group_53682" data-name="Group 53682" transform="translate(92.15 511.2)">
        <g id="Group_53681" data-name="Group 53681" transform="translate(0 0)">
          <path id="Path_206297" data-name="Path 206297" d="M74.151,343.06V327.452H71.637v16.865a1.258,1.258,0,0,0,1.257,1.257h36.533V343.06H74.151Z" transform="translate(-71.637 -327.452)" fill="#b2d0cb"/>
        </g>
      </g>
      <g id="Group_54272" data-name="Group 54272" transform="translate(233.15 419.681)">
        <g id="Group_54270" data-name="Group 54270" transform="translate(0 0)">
          <g id="Group_53679-2" data-name="Group 53679">
            <path id="Path_206296-2" data-name="Path 206296" d="M108.17,155.6a1.257,1.257,0,0,1,1.257,1.257v16.865h-2.514V158.116H71.637V155.6H108.17Z" transform="translate(-71.637 -155.601)" fill="#b2d0cb"/>
          </g>
        </g>
        <g id="Group_54271" data-name="Group 54271" transform="translate(0 91.519)">
          <g id="Group_53681-2" data-name="Group 53681" transform="translate(0 0)">
            <path id="Path_206297-2" data-name="Path 206297" d="M106.913,343.06V327.452h2.514v16.865a1.258,1.258,0,0,1-1.257,1.257H71.637V343.06h35.276Z" transform="translate(-71.637 -327.452)" fill="#b2d0cb"/>
          </g>
        </g>
      </g>
    </g>
  </g>
</svg>
