<svg xmlns="http://www.w3.org/2000/svg" width="101.59" height="105.558" viewBox="0 0 101.59 105.558">
  <g id="illustration" transform="translate(-82.003 -471.916)">
    <g id="Group_39804" data-name="Group 39804" transform="translate(123.779 471.916)" opacity="0.272">
      <circle id="Ellipse_1999" data-name="Ellipse 1999" cx="24.979" cy="24.979" r="24.979" transform="translate(0 8.969)" fill="#2d6759"/>
      <path id="Path_25533" data-name="Path 25533" d="M2.14,4.28A2.14,2.14,0,1,0,0,2.14,2.14,2.14,0,0,0,2.14,4.28Z" transform="translate(54.433 54.003) rotate(39)" fill="#888"/>
      <path id="Path_25534" data-name="Path 25534" d="M1.461,2.923A1.461,1.461,0,1,0,0,1.461,1.461,1.461,0,0,0,1.461,2.923Z" transform="translate(57.543 48.911) rotate(39)" fill="#888"/>
      <path id="Path_25535" data-name="Path 25535" d="M15,5.686a2.714,2.714,0,1,0-2.714-2.714A2.714,2.714,0,0,0,15,5.686Z" transform="translate(-7.747 -0.259)" fill="#888"/>
    </g>
    <rect id="Rectangle_7619" data-name="Rectangle 7619" width="44.002" height="23.295" rx="3" transform="translate(115.649 506.847)" fill="#fdf7f0"/>
    <rect id="Rectangle_7618" data-name="Rectangle 7618" width="44.002" height="23.295" rx="3" transform="translate(115.649 510.73)" fill="#f2ede6"/>
    <g id="Group_39521" data-name="Group 39521" transform="translate(82.003 540.566)" opacity="0.272">
      <circle id="Ellipse_1999-2" data-name="Ellipse 1999" cx="15.821" cy="15.821" r="15.821" transform="translate(4.126)" fill="#2d6759"/>
      <path id="Path_25533-2" data-name="Path 25533" d="M1.355,2.711A1.355,1.355,0,1,0,0,1.355,1.355,1.355,0,0,0,1.355,2.711Z" transform="translate(24.935 33.096) rotate(39)" fill="#2d6759"/>
      <path id="Path_25534-2" data-name="Path 25534" d="M.926,1.851A.926.926,0,1,0,0,.926.926.926,0,0,0,.926,1.851Z" transform="translate(29.598 31.172) rotate(39)" fill="#2d6759"/>
      <path id="Path_25535-2" data-name="Path 25535" d="M14,3.7a1.719,1.719,0,1,0-1.719-1.719A1.719,1.719,0,0,0,14,3.7Z" transform="translate(-12.284 7.728)" fill="#2d6759"/>
    </g>
    <g id="Group_39789" data-name="Group 39789" transform="translate(100.149 506.295)">
      <path id="Path_27329" data-name="Path 27329" d="M62.209,98.919v8.531H6.531a4.266,4.266,0,0,1,0-8.531H17.4L14.982,100H6.531a3.184,3.184,0,0,0,0,6.368h54.6V100h-4.11l-.483-1.082h5.675Z" transform="translate(-2.265 -98.919)" fill="#002c27"/>
    </g>
    <rect id="Rectangle_7617" data-name="Rectangle 7617" width="43.355" height="23.942" rx="3" transform="translate(120.826 513.965)" fill="#f2ede6"/>
    <rect id="Rectangle_7616" data-name="Rectangle 7616" width="30.413" height="25.236" rx="12.618" transform="translate(100.766 530.789)" fill="#fdf7f0"/>
    <path id="Path_27330" data-name="Path 27330" d="M67.15,157.953H8.664a6.409,6.409,0,0,1-6.4-6.4V112.367H3.344a3.19,3.19,0,0,0,3.181,3.184H67.15v16.391H49.24a4.666,4.666,0,0,0-4.654,4.992,4.749,4.749,0,0,0,4.792,4.339H67.15ZM3.344,115.2v36.351a5.326,5.326,0,0,0,5.32,5.32h57.4V142.355H49.378a5.833,5.833,0,0,1-5.871-5.347,5.749,5.749,0,0,1,5.734-6.148H66.068V116.632H6.524A4.262,4.262,0,0,1,3.344,115.2Z" transform="translate(97.886 398.196)" fill="#002c27"/>
    <path id="Union_24" data-name="Union 24" d="M0,34V0A5.5,5.5,0,0,0,1.915.346H60.2v11.7H44.634a7.01,7.01,0,0,0-6.993,7.5,7.1,7.1,0,0,0,7.13,6.523H60.2V38.06H4.058A4.062,4.062,0,0,1,0,34ZM44.635,22.464a3.405,3.405,0,0,1,0-6.811H64.091v6.811Zm-.8-3.4A1.763,1.763,0,1,0,45.6,17.294,1.764,1.764,0,0,0,43.838,19.06Z" transform="translate(102.492 515.745)" fill="#2d6759"/>
    <g id="Group_39792" data-name="Group 39792" transform="translate(141.38 529.056)">
      <path id="Path_27332" data-name="Path 27332" d="M157.523,182.129h-19.6a5.748,5.748,0,0,1,0-11.5h19.6a2.2,2.2,0,0,1,2.2,2.2v7.093A2.2,2.2,0,0,1,157.523,182.129Zm-19.6-10.414a4.666,4.666,0,0,0,0,9.332h19.6a1.12,1.12,0,0,0,1.119-1.119v-7.093a1.12,1.12,0,0,0-1.119-1.119h-19.6Z" transform="translate(-132.175 -170.634)" fill="#002c27"/>
    </g>
    <g id="Group_39794" data-name="Group 39794" transform="translate(145.788 532.499)">
      <path id="Path_27334" data-name="Path 27334" d="M148.369,186.092a2.3,2.3,0,1,1,2.3-2.3A2.307,2.307,0,0,1,148.369,186.092Zm0-3.528a1.223,1.223,0,1,0,1.223,1.223A1.225,1.225,0,0,0,148.369,182.564Z" transform="translate(-146.064 -181.482)" fill="#002c27"/>
    </g>
    <g id="Group_39800" data-name="Group 39800" transform="translate(104.523 491.723)">
      <g id="Group_39795" data-name="Group 39795" transform="translate(0 0.002)">
        <path id="Path_27335" data-name="Path 27335" d="M16.046,114.048l.018-.007v.007Z" transform="translate(-16.046 -94.671)" fill="#4a555f"/>
        <path id="Path_27336" data-name="Path 27336" d="M34.99,71.306h36.63L64.084,54.439,26.314,71.306h5.448v0H23.657l40.975-18.3L72.8,71.31H34.99Z" transform="translate(-21.241 -53.011)" fill="#002c27"/>
      </g>
      <g id="Group_39796" data-name="Group 39796" transform="translate(6.495 4.927)">
        <path id="Path_27337" data-name="Path 27337" d="M74.4,71.108c-.1.018-.209.036-.317.05s-.195.025-.292.036q-.325.032-.649.032c-.1,0-.195,0-.292-.007-.133,0-.263-.015-.393-.029-.054,0-.112-.011-.166-.018-.076-.007-.148-.018-.223-.032a.947.947,0,0,1-.1-.014.865.865,0,0,0-.1-.018c-.065-.011-.13-.025-.195-.04a7.057,7.057,0,0,1-.941-.274,6.961,6.961,0,0,1-1.089-.516s-.007,0-.014-.007c-.09-.054-.18-.108-.267-.166s-.155-.1-.234-.162a6.034,6.034,0,0,1-.537-.422c-.05-.043-.1-.087-.144-.13a1.212,1.212,0,0,1-.119-.112c-.079-.076-.159-.155-.234-.238-.116-.119-.223-.245-.332-.379-.036-.043-.072-.087-.108-.133L36.51,82.441H79.461Z" transform="translate(-36.51 -68.53)" fill="#f2ede6"/>
      </g>
      <g id="Group_39797" data-name="Group 39797" transform="translate(36.097)">
        <path id="Path_27338" data-name="Path 27338" d="M136.8,61.17a7.46,7.46,0,0,1-6.8-4.412l-.221-.494,7.295-3.258,3.258,7.295-.494.221A7.39,7.39,0,0,1,136.8,61.17ZM131.229,56.8a6.379,6.379,0,0,0,5.575,3.287,6.306,6.306,0,0,0,2.09-.355l-2.366-5.3Z" transform="translate(-129.779 -53.006)" fill="#002c27"/>
      </g>
      <g id="Group_39798" data-name="Group 39798" transform="translate(12.299 6.578)">
        <path id="Path_27339" data-name="Path 27339" d="M82.1,74.435,57.448,85.454H54.8L81.026,73.732A7.534,7.534,0,0,0,82.1,74.435Z" transform="translate(-54.798 -73.732)" fill="#002c27"/>
      </g>
      <g id="Group_39799" data-name="Group 39799" transform="translate(41.674 8.024)">
        <path id="Path_27340" data-name="Path 27340" d="M153.128,88.565h-1.186l-4.59-10.276a7.583,7.583,0,0,0,1.251.137Z" transform="translate(-147.352 -78.289)" fill="#002c27"/>
      </g>
    </g>
    <g id="Group_39801" data-name="Group 39801" transform="translate(104.542 510.022)">
      <rect id="Rectangle_7615" data-name="Rectangle 7615" width="54.47" height="1.082" fill="#002c27"/>
    </g>
    <g id="Group_39802" data-name="Group 39802" transform="translate(117.264 474.9)">
      <path id="Path_27341" data-name="Path 27341" d="M112.785,50.928l-.875-.636q.312-.43.61-.871l.9.605Q113.108,50.484,112.785,50.928Zm1.231-1.824-.917-.574q.281-.45.549-.911l.936.542Q114.307,48.638,114.016,49.1Zm1.1-1.9-.954-.509q.25-.468.485-.946l.971.476Q115.378,46.715,115.119,47.2Zm.969-1.976-.987-.443q.217-.484.418-.977l1,.408Q116.312,44.724,116.087,45.225Zm.831-2.038-1.016-.373q.183-.5.35-1l1.027.338Q117.107,42.672,116.918,43.187Zm.688-2.091-1.039-.3q.148-.509.28-1.026l1.048.267Q117.759,40.57,117.606,41.1Zm.542-2.133-1.057-.23q.113-.518.209-1.043l1.064.194Q118.264,38.427,118.148,38.963Zm.394-2.165-1.07-.157q.077-.524.137-1.055l1.075.121Q118.622,36.256,118.542,36.8Zm.246-2.186-1.078-.085q.021-.272.038-.546t.027-.517l1.081.048q-.012.267-.028.535Q118.81,34.331,118.788,34.613Zm.1-2.2L117.8,32.4q0-.168,0-.336c0-.242,0-.485-.009-.727l1.081-.026q.009.375.009.752C118.887,32.182,118.887,32.3,118.886,32.414Zm-1.131-2.137q-.03-.532-.079-1.059l1.077-.1q.05.546.082,1.1Zm-.195-2.116q-.067-.528-.152-1.052l1.068-.173q.088.542.157,1.089Zm-.34-2.1q-.1-.522-.224-1.039l1.053-.246q.125.535.232,1.075Zm-.484-2.069q-.139-.514-.295-1.021l1.034-.318q.161.525.305,1.057ZM57.221,22.722,56.19,22.4q.167-.527.351-1.046l1.019.362Q57.383,22.213,57.221,22.722Zm58.891-.757q-.173-.5-.364-1l1.01-.389q.2.511.376,1.031ZM57.934,20.714l-1.006-.4q.2-.514.422-1.018l.992.431Q58.13,20.217,57.934,20.714Zm57.417-.727q-.208-.488-.432-.969l.981-.457q.231.5.447,1ZM58.783,18.761l-.976-.466q.238-.5.491-.986l.96.5Q59.012,18.28,58.783,18.761Zm55.672-.7q-.24-.474-.5-.937l.947-.523q.265.48.514.971ZM59.764,16.872l-.942-.532q.271-.48.558-.95l.923.564Q60.026,16.408,59.764,16.872Zm53.665-.665q-.273-.456-.56-.9l.909-.586q.3.461.58.933ZM60.874,15.055l-.9-.6q.3-.46.621-.909l.883.625Q61.167,14.611,60.874,15.055Zm51.4-.634q-.3-.436-.62-.862l.867-.647q.328.44.642.892ZM62.1,13.32l-.86-.656q.334-.438.682-.864l.838.685Q62.427,12.9,62.1,13.32Zm48.9-.6q-.332-.415-.678-.818l.821-.7q.358.417.7.846ZM63.45,11.673l-.813-.713q.363-.414.739-.815l.789.74Q63.8,11.273,63.45,11.673Zm46.172-.567q-.36-.391-.733-.77l.771-.759q.386.392.758.8Zm-44.717-.984-.763-.766q.39-.388.792-.763l.737.792Q65.283,9.747,64.906,10.123Zm43.226-.532q-.386-.366-.784-.719l.717-.81q.412.365.811.744ZM66.463,8.675l-.709-.817q.416-.36.843-.707l.681.841Q66.864,8.327,66.463,8.675Zm40.077-.5q-.41-.339-.832-.664l.66-.857q.436.336.86.687ZM68.114,7.337l-.652-.863q.438-.331.889-.647l.621.885Q68.538,7.017,68.114,7.337Zm36.741-.456q-.432-.31-.875-.606l.6-.9q.458.306.905.627Zm-35-.766-.592-.905q.46-.3.931-.585l.56.925Q70.3,5.825,69.852,6.115ZM103.084,5.7q-.452-.279-.915-.544l.537-.939q.479.274.947.564ZM71.669,5.015l-.528-.944q.479-.268.968-.52l.5.961Q72.133,4.756,71.669,5.015Zm29.566-.372q-.471-.248-.951-.48l.471-.974q.5.24.984.5Zm-27.679-.6-.462-.978q.5-.235,1-.453l.429.993Q74.035,3.816,73.556,4.042Zm25.761-.327q-.486-.215-.982-.413l.4-1q.513.206,1.017.428ZM75.5,3.2,75.11,2.194q.511-.2,1.029-.382l.36,1.02Q76,3.009,75.5,3.2Zm21.834-.279q-.5-.18-1.006-.343l.332-1.03q.525.169,1.041.355ZM77.5,2.5l-.324-1.032q.523-.164,1.052-.311L78.522,2.2Q78.01,2.338,77.5,2.5Zm17.812-.226Q94.807,2.125,94.29,2l.26-1.05q.535.133,1.063.283ZM79.548,1.932,79.3.88Q79.83.752,80.37.642l.215,1.06Q80.064,1.808,79.548,1.932Zm13.705-.172q-.518-.109-1.043-.2L92.4.492q.544.1,1.08.209ZM81.631,1.508,81.452.441Q81.993.35,82.54.278l.142,1.072Q82.153,1.42,81.631,1.508Zm9.53-.118q-.525-.074-1.055-.131L90.22.184q.549.059,1.091.135Zm-7.423-.162L83.633.152q.546-.053,1.1-.088l.068,1.08Q84.265,1.177,83.738,1.229Zm5.309-.064-.368-.025q-.347-.02-.693-.034L88.027.025q.358.014.716.036.192.011.382.025Zm-3.188-.07L85.827.013Q86.293,0,86.762,0h.164l0,1.082h-.161Q86.309,1.082,85.859,1.095Z" transform="translate(-56.19)" fill="#002c27"/>
    </g>
  </g>
</svg>
