<svg xmlns="http://www.w3.org/2000/svg" xmlns:xlink="http://www.w3.org/1999/xlink" width="33.817" height="33.816" viewBox="0 0 33.817 33.816">
  <defs>
    <linearGradient id="linear-gradient" x1="0.5" x2="0.617" y2="1" gradientUnits="objectBoundingBox">
      <stop offset="0" stop-color="#00836a"/>
      <stop offset="1" stop-color="#073e39"/>
    </linearGradient>
  </defs>
  <g id="btc" transform="translate(3467.867 5513.511)">
    <g id="Group_31395" data-name="Group 31395" transform="translate(-3467.867 -5513.511)">
      <g id="Group_31394" data-name="Group 31394" transform="translate(0 0)">
        <g id="Group_31393" data-name="Group 31393">
          <path id="Path_22176" data-name="Path 22176" d="M169.713,139.145a16.908,16.908,0,1,0,16.908,16.908A16.928,16.928,0,0,0,169.713,139.145Z" transform="translate(-152.805 -139.145)" fill="url(#linear-gradient)"/>
        </g>
      </g>
    </g>
    <g id="mobile" transform="translate(-3456.24 -5506.215)">
      <path id="Shape" d="M8.84,18.524H2.105A2.1,2.1,0,0,1,0,16.418V2.105A2.1,2.1,0,0,1,2.105,0H8.84a2.119,2.119,0,0,1,1.488.616,2.092,2.092,0,0,1,.617,1.489V16.418a2.092,2.092,0,0,1-.617,1.489A2.119,2.119,0,0,1,8.84,18.524ZM5.516,13.893a1.588,1.588,0,0,0-1.589,1.588A1.6,1.6,0,0,0,4.392,16.6a1.588,1.588,0,1,0,1.124-2.711Z" transform="translate(0 0)" fill="#fff"/>
    </g>
  </g>
</svg>
