<svg xmlns="http://www.w3.org/2000/svg" width="15.49" height="21.51" viewBox="0 0 15.49 21.51">
  <g id="icon" transform="translate(-4.25 -1.24)">
    <path id="Path_206428" data-name="Path 206428" d="M6,1.25A1.746,1.746,0,0,0,4.25,3V21A1.752,1.752,0,0,0,6,22.75h7a.786.786,0,0,0,.53-.22l6-6a.781.781,0,0,0,.21-.54v-13a1.752,1.752,0,0,0-1.75-1.75h-12Z" fill="#2F4F4F"/>
    <g id="Group_54466" data-name="Group 54466">
      <path id="Path_206429" data-name="Path 206429" d="M8.75,6a.743.743,0,0,1,.75-.75h5a.75.75,0,0,1,0,1.5h-5A.749.749,0,0,1,8.75,6Z" fill="#F9F4F0" fill-rule="evenodd"/>
      <path id="Path_206430" data-name="Path 206430" d="M7.25,12A.743.743,0,0,1,8,11.25h8a.75.75,0,0,1,0,1.5H8A.749.749,0,0,1,7.25,12Z" fill="#F9F4F0" fill-rule="evenodd"/>
    </g>
    <path id="Path_206431" data-name="Path 206431" d="M14,15.25A1.746,1.746,0,0,0,12.25,17v5a.751.751,0,0,0,.46.69.74.74,0,0,0,.81-.17l6-6a.776.776,0,0,0,.16-.82.749.749,0,0,0-.7-.47h-5Z" fill="#F9F4F0"/>
  </g>
</svg>
