<svg width="38" height="38" viewBox="0 0 38 38" fill="none" xmlns="http://www.w3.org/2000/svg">
<circle cx="19" cy="19" r="19" fill="#F7F2EC"/>
<circle cx="19" cy="19" r="16.0098" fill="#F7F2EC" stroke="#2D6759" stroke-width="3"/>
<circle cx="18.9992" cy="19" r="13.2843" fill="#F7F2EC" stroke="#2D6759" stroke-dasharray="1 1"/>
<path fill-rule="evenodd" clip-rule="evenodd" d="M17.218 12.615C17.2171 12.5345 17.2322 12.4546 17.2624 12.3799C17.2926 12.3053 17.3373 12.2374 17.394 12.1802C17.4506 12.123 17.5181 12.0776 17.5924 12.0467C17.6668 12.0157 17.7465 11.9999 17.827 12H19.876C19.9569 11.9997 20.037 12.0155 20.1117 12.0463C20.1864 12.0771 20.2543 12.1224 20.3115 12.1795C20.3687 12.2367 20.4139 12.3046 20.4448 12.3793C20.4756 12.4541 20.4913 12.5342 20.491 12.615V13.615C20.7785 13.7082 21.0584 13.8235 21.328 13.96L22.036 13.246C22.0916 13.188 22.1582 13.1417 22.2319 13.1099C22.3056 13.0782 22.385 13.0615 22.4653 13.0609C22.5456 13.0604 22.6251 13.0759 22.6993 13.1067C22.7735 13.1375 22.8407 13.1828 22.897 13.24L24.343 14.686C24.4001 14.7429 24.4454 14.8106 24.4763 14.8851C24.5072 14.9595 24.5231 15.0394 24.5231 15.12C24.5231 15.2006 24.5072 15.2805 24.4763 15.3549C24.4454 15.4294 24.4001 15.4971 24.343 15.554L23.629 16.262C23.7677 16.5307 23.8831 16.8107 23.974 17.099H24.974C25.0544 17.0986 25.1341 17.114 25.2085 17.1444C25.2829 17.1748 25.3506 17.2196 25.4077 17.2761C25.4648 17.3327 25.5102 17.3999 25.5413 17.474C25.5724 17.5481 25.5886 17.6276 25.589 17.708V19.759C25.5885 19.9219 25.5235 20.0781 25.4083 20.1933C25.2931 20.3085 25.137 20.3735 24.974 20.374H23.968C23.8702 20.6606 23.7529 20.9403 23.617 21.211L24.325 21.919C24.3821 21.9759 24.4274 22.0436 24.4583 22.1181C24.4892 22.1925 24.5051 22.2724 24.5051 22.353C24.5051 22.4336 24.4892 22.5135 24.4583 22.5879C24.4274 22.6624 24.3821 22.7301 24.325 22.787L22.873 24.233C22.755 24.3452 22.5989 24.4088 22.436 24.411C22.3546 24.4106 22.274 24.3941 22.199 24.3623C22.1239 24.3306 22.056 24.2842 21.999 24.226L21.285 23.512C21.0138 23.6496 20.7319 23.765 20.442 23.857V24.857C20.4415 25.0199 20.3765 25.1761 20.2613 25.2913C20.1461 25.4065 19.99 25.4715 19.827 25.472H17.772C17.6912 25.4723 17.6111 25.4565 17.5364 25.4257C17.4616 25.3949 17.3937 25.3496 17.3366 25.2925C17.2794 25.2353 17.2341 25.1674 17.2033 25.0927C17.1725 25.0179 17.1568 24.9378 17.157 24.857V23.851C16.868 23.7543 16.5863 23.637 16.314 23.5L15.6 24.208C15.482 24.3202 15.3259 24.3838 15.163 24.386C15.0816 24.3856 15.001 24.3691 14.926 24.3373C14.8509 24.3056 14.783 24.2592 14.726 24.201L13.274 22.749C13.1574 22.6333 13.091 22.4763 13.089 22.312C13.0881 22.231 13.1034 22.1506 13.134 22.0756C13.1646 22.0005 13.2098 21.9323 13.267 21.875L13.975 21.161C13.8338 20.8924 13.7164 20.612 13.624 20.323H12.615C12.5343 20.3233 12.4543 20.3076 12.3796 20.2768C12.3049 20.2461 12.2371 20.2009 12.1799 20.1438C12.1228 20.0868 12.0775 20.019 12.0466 19.9444C12.0157 19.8697 11.9999 19.7898 12 19.709V17.653C11.9992 17.572 12.0146 17.4917 12.0452 17.4167C12.0758 17.3417 12.1211 17.2736 12.1784 17.2163C12.2356 17.1591 12.3038 17.1138 12.3787 17.0832C12.4537 17.0526 12.534 17.0372 12.615 17.038H13.615C13.7083 16.7498 13.8247 16.4695 13.963 16.2L13.25 15.476C13.1915 15.4192 13.1451 15.3513 13.1133 15.2762C13.0816 15.2012 13.0652 15.1205 13.0652 15.039C13.0652 14.9575 13.0816 14.8768 13.1133 14.8018C13.1451 14.7267 13.1915 14.6588 13.25 14.602L14.695 13.151C14.7511 13.0923 14.8184 13.0456 14.893 13.0137C14.9676 12.9818 15.0479 12.9653 15.129 12.9653C15.2102 12.9653 15.2905 12.9818 15.3651 13.0137C15.4397 13.0456 15.507 13.0923 15.563 13.151L16.271 13.859C16.5383 13.7158 16.8186 13.5983 17.108 13.508L17.218 12.615Z" fill="#2D6759"/>
<path d="M18.8425 21.9146C20.585 21.9146 21.9975 20.5021 21.9975 18.7596C21.9975 17.0172 20.585 15.6046 18.8425 15.6046C17.1 15.6046 15.6875 17.0172 15.6875 18.7596C15.6875 20.5021 17.1 21.9146 18.8425 21.9146Z" fill="#FDF7F0"/>
</svg>
