<svg xmlns="http://www.w3.org/2000/svg" width="23.917" height="19.385" viewBox="0 0 23.917 19.385">
  <g id="advanced" transform="translate(-14.01 -387.998)">
    <g id="degrading_multisig" data-name="degrading multisig" transform="translate(14.01 387.998)">
      <path id="daily_wallet" data-name="daily wallet" d="M17.967,17.129H2a1.979,1.979,0,0,1-2-1.958V2.085A1.977,1.977,0,0,1,1.967.128L13.635,0h.035a2.962,2.962,0,0,1,2.989,2.927l.03.049V3.1h1.288a1.979,1.979,0,0,1,2,1.957v7.918l-.01-.842v3.034A1.979,1.979,0,0,1,17.967,17.129ZM2.574,1.958A.578.578,0,0,0,2,2.536v.577H14.473a1.156,1.156,0,0,0-1.155-1.155Z" transform="translate(0 0)" fill="#2d6759"/>
    </g>
    <path id="system" d="M6.068,1.615A.608.608,0,0,1,6.677,1H8.726a.613.613,0,0,1,.615.615v1a5.835,5.835,0,0,1,.837.345l.708-.714a.6.6,0,0,1,.861-.006l1.446,1.446a.613.613,0,0,1,0,.868l-.714.708a5.306,5.306,0,0,1,.345.837h1a.612.612,0,0,1,.615.609V8.759a.617.617,0,0,1-.615.615H12.818a6.671,6.671,0,0,1-.351.837l.708.708a.613.613,0,0,1,0,.868l-1.452,1.446a.647.647,0,0,1-.437.178.615.615,0,0,1-.437-.185l-.714-.714a5.63,5.63,0,0,1-.843.345v1a.617.617,0,0,1-.615.615H6.622a.613.613,0,0,1-.615-.615V12.851a6.39,6.39,0,0,1-.843-.351l-.714.708a.647.647,0,0,1-.437.178.615.615,0,0,1-.437-.185L2.124,11.749a.626.626,0,0,1-.185-.437.609.609,0,0,1,.178-.437l.708-.714a5.2,5.2,0,0,1-.351-.838H1.465A.613.613,0,0,1,.85,8.709V6.653a.609.609,0,0,1,.615-.615h1A5.63,5.63,0,0,1,2.813,5.2L2.1,4.476a.609.609,0,0,1,0-.874L3.545,2.151a.6.6,0,0,1,.868,0l.708.708a4.8,4.8,0,0,1,.837-.351Z" transform="translate(22.985 392.408)" fill="#2d6759" stroke="#fdf7f0" stroke-linecap="square" stroke-width="1" fill-rule="evenodd"/>
    <circle id="Ellipse_2542" data-name="Ellipse 2542" cx="3.155" cy="3.155" r="3.155" transform="translate(27.521 397.013)" fill="#fdf7f0"/>
  </g>
</svg>
