<svg width="16" height="15" viewBox="0 0 16 15" fill="none" xmlns="http://www.w3.org/2000/svg">
<g clip-path="url(#clip0_5396_1856)">
<path d="M6.95543 14.791C6.76034 14.6957 6.6863 14.5224 6.62754 14.316C6.54408 13.9967 6.38037 13.7062 6.1532 13.4742C5.92602 13.2423 5.64356 13.0773 5.33477 12.9962C5.20445 12.9749 5.08482 12.9087 4.99513 12.8082C4.95478 12.754 4.92773 12.6904 4.9163 12.6229C4.90488 12.5554 4.90943 12.4861 4.92955 12.4208C4.94968 12.3556 4.98478 12.2964 5.03183 12.2484C5.07888 12.2004 5.13646 12.1649 5.19962 12.1452C5.42127 12.0715 5.63636 11.9779 5.84248 11.8656C6.03739 11.7456 6.20752 11.5868 6.34306 11.3982C6.4786 11.2096 6.57689 10.995 6.63224 10.7668C6.65298 10.6222 6.72155 10.4897 6.82615 10.3919C6.88091 10.3515 6.94432 10.3256 7.0109 10.3163C7.07749 10.307 7.14524 10.3148 7.2083 10.3388C7.27136 10.3629 7.32784 10.4025 7.37286 10.4543C7.41787 10.5061 7.45007 10.5685 7.46666 10.6361C7.53196 10.8592 7.61816 11.0752 7.72403 11.2808C7.84068 11.4852 7.99532 11.6634 8.17893 11.8051C8.36254 11.9468 8.57145 12.0491 8.7935 12.1061C8.92987 12.1258 9.05495 12.1955 9.14608 12.3027C9.18529 12.3591 9.21073 12.4246 9.22021 12.4935C9.22969 12.5624 9.22292 12.6326 9.2005 12.6982C9.17807 12.7638 9.14065 12.8227 9.09146 12.8699C9.04226 12.9172 8.98277 12.9513 8.91808 12.9693C8.70339 13.0374 8.49557 13.1269 8.29755 13.2367C8.10133 13.3552 7.93014 13.5135 7.79423 13.7024C7.65833 13.8912 7.5605 14.1065 7.50661 14.3356C7.49094 14.4338 7.45304 14.5267 7.39603 14.6067C7.33903 14.6867 7.26455 14.7516 7.17873 14.7958L6.95543 14.791Z" fill="#FDF7F0"/>
<path d="M8.92063 3.91873C8.92092 4.01581 8.88854 4.10995 8.8291 4.18486C8.76965 4.25977 8.68687 4.31074 8.59508 4.32896C8.19841 4.41998 7.81698 4.57181 7.46333 4.77948C6.98204 5.06117 6.56372 5.44568 6.23594 5.90763C5.90817 6.36958 5.6784 6.89847 5.56179 7.45943C5.54942 7.54922 5.51039 7.63278 5.45014 7.69843C5.38989 7.76409 5.31142 7.80858 5.22567 7.82571C5.1488 7.84451 5.06815 7.83737 4.99545 7.80532C4.92275 7.77326 4.86178 7.71797 4.82139 7.64745C4.7778 7.57201 4.74681 7.48945 4.72972 7.40327C4.31526 5.80141 3.33589 4.78803 1.79162 4.36315C1.59888 4.31065 1.43905 4.22641 1.39439 4.01396C1.33916 3.76978 1.48606 3.57565 1.73874 3.49385C2.05086 3.40814 2.35554 3.29542 2.64955 3.15687C3.16909 2.89692 3.62558 2.5187 3.98509 2.0503C4.34461 1.5819 4.59792 1.03536 4.7262 0.451291C4.74283 0.309967 4.80842 0.179767 4.91071 0.0850117C4.96601 0.0419996 5.03086 0.0141918 5.09927 0.00417279C5.16767 -0.00584625 5.2374 0.00224651 5.30199 0.0276986C5.36658 0.0531508 5.42394 0.095134 5.46874 0.149762C5.51354 0.20439 5.54434 0.26989 5.55827 0.340182C5.60976 0.558951 5.67293 0.77458 5.74748 0.986059C6.27399 2.30833 7.21065 3.13856 8.54572 3.4853C8.79252 3.55001 8.9218 3.69774 8.92063 3.91873Z" fill="#FDF7F0"/>
<path d="M12.865 11.1532C12.7703 11.1503 12.6792 11.1147 12.606 11.0522C12.5329 10.9897 12.4817 10.9036 12.4607 10.8077C12.3916 10.5551 12.3 10.3099 12.1869 10.0751C12.0201 9.75751 11.7894 9.48093 11.5106 9.26415C11.2317 9.04737 10.9113 8.89548 10.5709 8.81878C10.3077 8.75285 10.1643 8.55262 10.2183 8.31209C10.2334 8.22758 10.273 8.14988 10.3319 8.08942C10.3907 8.02897 10.4659 7.98866 10.5474 7.9739C10.991 7.8726 11.3999 7.64859 11.7309 7.32559C12.0823 6.98721 12.3303 6.54909 12.4442 6.06559C12.4625 5.9295 12.5271 5.80473 12.6264 5.71396C12.872 5.52105 13.1811 5.65657 13.2798 5.9789C13.3532 6.25297 13.4553 6.51787 13.5842 6.76884C13.7478 7.0662 13.9692 7.32495 14.2342 7.52862C14.4993 7.7323 14.8022 7.87646 15.1238 7.95193C15.3165 8.00076 15.4764 8.08745 15.521 8.30111C15.5763 8.5453 15.4341 8.75407 15.1767 8.81634C14.7123 8.92351 14.2868 9.1657 13.9499 9.51462C13.613 9.86354 13.3786 10.3048 13.274 10.7869C13.2598 10.889 13.2106 10.9822 13.1354 11.0495C13.0603 11.1169 12.9642 11.1537 12.865 11.1532Z" fill="#FDF7F0"/>
</g>
<defs>
<clipPath id="clip0_5396_1856">
<rect width="15" height="15" fill="white" transform="translate(0.5)"/>
</clipPath>
</defs>
</svg>
