<svg width="18" height="17" viewBox="0 0 18 17" fill="none" xmlns="http://www.w3.org/2000/svg">
<g clip-path="url(#clip0_5410_6116)">
<path d="M0.00124151 7.55834C0.00124151 6.10515 0.00124151 4.65196 0.00124151 3.19877C-0.0109431 2.77436 0.0666685 2.352 0.229307 1.95769C0.391945 1.56338 0.636173 1.20544 0.946977 0.905862C1.25778 0.606285 1.62859 0.371405 2.03662 0.215661C2.44465 0.0599184 2.88127 -0.0134024 3.31965 0.000215334H12.3268C12.7652 -0.013738 13.202 0.0593371 13.6102 0.214961C14.0184 0.370585 14.3893 0.60546 14.7002 0.905106C15.0111 1.20475 15.2553 1.56283 15.4178 1.9573C15.5803 2.35176 15.6577 2.77427 15.6452 3.19877C15.6452 4.68102 15.6452 6.16251 15.6452 7.64323C15.6452 8.10213 15.4437 8.21225 15.0099 8.05852C14.7877 7.98263 14.557 7.93256 14.3225 7.90937C13.9812 7.87496 13.8675 7.77631 13.8675 7.43672V3.24924C13.8675 2.29014 13.2725 1.7188 12.277 1.7188H3.36232C2.37153 1.7188 1.77896 2.29244 1.77896 3.25613V11.8766C1.77896 12.8357 2.3739 13.4093 3.36706 13.4093C4.99545 13.4093 6.62147 13.4093 8.24749 13.4093C8.36054 13.4021 8.47312 13.4289 8.56985 13.486C8.66659 13.543 8.74275 13.6277 8.78792 13.7282C8.95177 13.99 9.1381 14.2379 9.34493 14.4694C9.46345 14.6071 9.55115 14.7355 9.47293 14.9122C9.43894 14.9894 9.37971 15.0537 9.30435 15.0951C9.22899 15.1366 9.14165 15.1529 9.05576 15.1417C7.0979 15.1417 5.13767 15.1417 3.17743 15.1417C2.33368 15.1344 1.52693 14.8053 0.932278 14.2258C0.337631 13.6463 0.0030806 12.8632 0.00124151 12.0464C0.00124151 10.5504 0.00124151 9.05435 0.00124151 7.55834Z" fill="#F1F1F1"/>
<path d="M14.2218 17C14.1467 16.9136 14.0801 16.8206 14.0227 16.7224C13.8283 16.2635 13.6395 15.8046 13.4562 15.3457C13.3451 15.0448 13.1675 14.771 12.9358 14.5436C12.704 14.3161 12.4238 14.1403 12.1146 14.0286C11.6405 13.845 11.1522 13.6638 10.6782 13.471C10.5928 13.4389 10.5336 13.3494 10.4648 13.2852C10.5336 13.2141 10.5928 13.1154 10.6782 13.0787C11.119 12.8982 11.5647 12.7269 12.015 12.5647C12.3553 12.4515 12.6644 12.2647 12.919 12.0186C13.1737 11.7726 13.3671 11.4736 13.4846 11.1444C13.6529 10.7039 13.8354 10.2656 14.025 9.83195C14.0582 9.75393 14.1554 9.69886 14.2241 9.63232C14.2905 9.69886 14.3853 9.75393 14.4209 9.83424C14.6184 10.2931 14.808 10.752 14.9897 11.2109C15.1065 11.5207 15.293 11.8014 15.5357 12.0328C15.7784 12.2642 16.0712 12.4404 16.3929 12.5487C16.867 12.7215 17.3332 12.9012 17.7914 13.0879C17.872 13.1223 17.9289 13.2141 17.9976 13.2806C17.9289 13.3471 17.872 13.4389 17.789 13.4733C17.3411 13.6569 16.8883 13.8336 16.4309 13.9942C16.0904 14.1057 15.7809 14.2914 15.5262 14.5368C15.2714 14.7822 15.0782 15.0809 14.9613 15.4099C14.7906 15.8504 14.6081 16.2887 14.4209 16.7224C14.3643 16.8212 14.2976 16.9142 14.2218 17Z" fill="#F1F1F1"/>
<path d="M4.54578 9.62065C4.43912 9.94876 4.33009 10.2608 4.23527 10.5751C4.2219 10.6536 4.17698 10.7237 4.11035 10.7701C4.04372 10.8166 3.9608 10.8356 3.87973 10.823C3.74699 10.823 3.61426 10.823 3.48152 10.823C3.17575 10.823 3.08568 10.6991 3.18049 10.4099C3.34641 9.90056 3.51708 9.39117 3.68537 8.8795C4.20209 7.32382 4.72118 5.76815 5.2308 4.20789C5.23743 4.16043 5.25383 4.11476 5.27903 4.07355C5.30422 4.03235 5.3377 3.99647 5.37748 3.96802C5.41727 3.93956 5.46254 3.91912 5.51063 3.90791C5.55872 3.89669 5.60865 3.89493 5.65745 3.90273C5.89426 3.91658 6.13172 3.91658 6.36854 3.90273C6.45991 3.89022 6.5527 3.91305 6.6268 3.96631C6.70089 4.01956 6.75032 4.09895 6.76438 4.18724C7.34747 5.96625 7.93451 7.74143 8.5255 9.51278C8.62743 9.81795 8.73409 10.1231 8.83127 10.4306C8.91423 10.6899 8.81942 10.8207 8.54209 10.8184C7.74805 10.8184 7.88315 10.9193 7.63427 10.1897C7.57028 10.0015 7.54894 9.75144 7.41147 9.65048C7.27399 9.54952 7.02748 9.61835 6.83074 9.61835L4.54578 9.62065ZM6.02484 5.36203H5.9727L4.9037 8.57434H7.11281C6.7383 7.49363 6.38039 6.42668 6.02484 5.36203Z" fill="#F1F1F1"/>
<path d="M10.476 7.36531C10.476 6.33584 10.476 5.30562 10.476 4.27462C10.476 3.97174 10.54 3.91209 10.8505 3.9075C11.5616 3.9075 11.5427 3.87309 11.5403 4.57292C11.5403 6.52478 11.5403 8.47815 11.5403 10.4331C11.5403 10.7635 11.481 10.8186 11.1421 10.8209C10.4547 10.8209 10.4689 10.8415 10.4737 10.1784C10.4808 9.23993 10.476 8.30377 10.476 7.36531Z" fill="#F1F1F1"/>
</g>
<defs>
<clipPath id="clip0_5410_6116">
<rect width="18" height="17" fill="white"/>
</clipPath>
</defs>
</svg>
