<svg width="19" height="16" viewBox="0 0 19 16" fill="none" xmlns="http://www.w3.org/2000/svg">
<path d="M0.0898438 9.51013C0.105736 5.28236 2.51426 1.92485 6.25282 0.563319C10.4791 -0.975986 15.3795 0.734705 17.6236 4.5324C19.5712 7.82817 19.2989 11.7675 16.903 14.7753C16.6191 15.1308 16.2897 15.4534 15.9664 15.777C15.6748 16.0676 15.2627 16.0703 14.9991 15.8079C14.7355 15.5455 14.7487 15.1489 15.0507 14.869C16.1195 13.8873 16.8958 12.6437 17.2975 11.2693C18.5547 7.02552 15.8332 2.5114 11.4031 1.4969C7.05786 0.501572 2.69401 3.04047 1.65607 7.22885C0.943652 10.094 1.69991 12.6106 3.80977 14.7385C3.94458 14.8743 4.08378 15.026 4.15283 15.1963C4.26243 15.4624 4.1205 15.7578 3.87882 15.9031C3.75256 15.979 3.60358 16.0112 3.45612 15.9943C3.30866 15.9775 3.17139 15.9127 3.06666 15.8105C2.4962 15.2932 1.99519 14.7081 1.57551 14.069C0.590181 12.5712 0.0942279 10.9307 0.0898438 9.51013Z" fill="#F6F2ED"/>
<path d="M15.8546 8.94599C15.8141 10.8962 15.1658 12.3897 13.8675 13.6107C13.5803 13.8811 13.1737 13.8886 12.9134 13.6336C12.6531 13.3787 12.6619 12.9747 12.9583 12.6947C13.7897 11.9096 14.3015 10.9675 14.4774 9.85084C14.8737 7.33057 13.137 4.89015 10.5657 4.36374C7.6574 3.76867 4.86252 5.68215 4.50576 8.5436C4.30903 10.1223 4.82032 11.487 5.96513 12.6292C6.0948 12.7528 6.19262 12.9044 6.25064 13.0716C6.3312 13.3446 6.18104 13.6134 5.93389 13.7427C5.8095 13.8078 5.66698 13.8325 5.5271 13.8133C5.38723 13.7942 5.2573 13.7322 5.15626 13.6363C4.26464 12.8177 3.65086 11.8346 3.35219 10.679C2.58935 7.72604 4.07447 4.75708 6.92415 3.51105C10.5591 1.92172 14.8452 4.0167 15.6924 7.80428C15.7878 8.24287 15.8195 8.69583 15.8546 8.94599Z" fill="#F6F2ED"/>
<path d="M6.20516 9.13388C6.21886 7.46684 7.56259 6.07124 9.2713 5.96C10.9992 5.84769 12.5265 7.05433 12.7468 8.71339C12.8877 9.7726 12.5523 10.678 11.7807 11.4317C11.5023 11.7036 11.128 11.7185 10.8578 11.4849C10.5657 11.2342 10.5564 10.8206 10.8512 10.5327C11.2524 10.1415 11.4677 9.67732 11.4667 9.12483C11.4637 8.70645 11.3191 8.30063 11.0553 7.96988C10.7915 7.63912 10.4231 7.40177 10.0067 7.29438C9.59445 7.18746 9.15754 7.21383 8.76205 7.3695C8.36656 7.52516 8.03401 7.80165 7.81468 8.15718C7.5947 8.51288 7.49955 8.92832 7.54353 9.34105C7.58751 9.75378 7.76823 10.1415 8.05854 10.4459C8.18612 10.572 8.28343 10.724 8.34351 10.8909C8.42352 11.1618 8.27117 11.4359 8.02785 11.5647C7.90425 11.6323 7.7612 11.6585 7.62077 11.6392C7.48033 11.62 7.35031 11.5564 7.25077 11.4583C6.71488 10.975 6.36494 10.3285 6.25886 9.62569C6.23037 9.46495 6.2216 9.29888 6.20516 9.13388Z" fill="#F6F2ED"/>
</svg>
