<svg width="40" height="39" viewBox="0 0 40 39" fill="none" xmlns="http://www.w3.org/2000/svg">
<path d="M20.0462 0C16.2073 0 12.4546 1.13837 9.26261 3.27116C6.07065 5.40396 3.58283 8.4354 2.11373 11.9821C0.644637 15.5288 0.260259 19.4315 1.0092 23.1967C1.75814 26.9619 3.60675 30.4204 6.32129 33.1349C9.03583 35.8495 12.4944 37.6981 16.2595 38.447C20.0247 39.196 23.9274 38.8116 27.4741 37.3425C31.0208 35.8734 34.0523 33.3856 36.1851 30.1936C38.3179 27.0016 39.4562 23.2489 39.4562 19.41C39.4502 14.264 37.4032 9.33053 33.7645 5.69177C30.1257 2.053 25.1922 0.00607627 20.0462 0Z" fill="#2D6759"/>
<path d="M8.67139 20.7836C8.69077 15.6269 11.6285 11.5316 16.1885 9.87093C21.3434 7.9934 27.3205 10.08 30.0577 14.7121C32.4333 18.7321 32.1011 23.5369 29.1788 27.2056C28.8325 27.6393 28.4308 28.0327 28.0364 28.4274C27.6808 28.7819 27.1782 28.7852 26.8566 28.4651C26.5351 28.145 26.5512 27.6614 26.9195 27.3199C28.2232 26.1226 29.17 24.6057 29.66 22.9292C31.1934 17.753 27.874 12.2471 22.4704 11.0096C17.1705 9.79562 11.8478 12.8924 10.5818 18.001C9.7128 21.4958 10.6352 24.5653 13.2087 27.1608C13.3731 27.3264 13.5429 27.5114 13.6271 27.7191C13.7608 28.0437 13.5877 28.4041 13.2929 28.5813C13.1389 28.6738 12.9572 28.7131 12.7773 28.6925C12.5975 28.672 12.43 28.593 12.3023 28.4683C11.6065 27.8373 10.9954 27.1236 10.4835 26.3441C9.28166 24.5172 8.67673 22.5163 8.67139 20.7836Z" fill="#FCFCFC"/>
<path d="M27.9001 20.0955C27.8506 22.4742 27.0599 24.2959 25.4764 25.7852C25.1261 26.115 24.6301 26.1241 24.3126 25.8131C23.9951 25.5021 24.0058 25.0094 24.3674 24.6679C25.3814 23.7103 26.0057 22.5612 26.2203 21.1992C26.7036 18.1251 24.5853 15.1485 21.4491 14.5064C17.9017 13.7806 14.4927 16.1145 14.0576 19.6047C13.8176 21.5303 14.4413 23.1948 15.8376 24.5881C15.9958 24.7388 16.1151 24.9236 16.1859 25.1276C16.2841 25.4606 16.101 25.7885 15.7995 25.9462C15.6478 26.0255 15.474 26.0557 15.3034 26.0323C15.1327 26.009 14.9743 25.9333 14.851 25.8164C13.7635 24.8179 13.0148 23.6188 12.6506 22.2093C11.7201 18.6075 13.5315 14.9862 17.0074 13.4664C21.4411 11.5278 26.6688 14.0831 27.7022 18.7029C27.8185 19.2379 27.8573 19.7904 27.9001 20.0955Z" fill="#FCFCFC"/>
<path d="M16.1304 20.3247C16.1471 18.2913 17.7861 16.5891 19.8702 16.4534C21.9778 16.3164 23.8407 17.7882 24.1094 19.8118C24.2812 21.1037 23.8721 22.208 22.931 23.1273C22.5914 23.4591 22.1349 23.4773 21.8053 23.1922C21.4491 22.8865 21.4377 22.382 21.7973 22.0308C22.2866 21.5536 22.5493 20.9875 22.548 20.3136C22.5443 19.8033 22.368 19.3083 22.0463 18.9049C21.7245 18.5015 21.2751 18.212 20.7673 18.081C20.2644 17.9506 19.7315 17.9827 19.2491 18.1726C18.7667 18.3625 18.3611 18.6997 18.0936 19.1334C17.8253 19.5672 17.7092 20.0739 17.7628 20.5774C17.8165 21.0808 18.0369 21.5537 18.391 21.925C18.5466 22.0788 18.6653 22.2642 18.7386 22.4677C18.8362 22.7982 18.6504 23.1325 18.3536 23.2896C18.2028 23.372 18.0283 23.404 17.857 23.3805C17.6858 23.357 17.5272 23.2795 17.4057 23.1598C16.7521 22.5703 16.3253 21.7817 16.1959 20.9245C16.1611 20.7285 16.1504 20.5259 16.1304 20.3247Z" fill="#FCFCFC"/>
</svg>
