<svg xmlns="http://www.w3.org/2000/svg" xmlns:xlink="http://www.w3.org/1999/xlink" width="196.489" height="158.313" viewBox="0 0 196.489 158.313">
  <defs>
    <linearGradient id="linear-gradient" x1="0.5" x2="0.5" y2="1" gradientUnits="objectBoundingBox">
      <stop offset="0" stop-color="#b17f44"/>
      <stop offset="1" stop-color="#6e4a35"/>
    </linearGradient>
    <linearGradient id="linear-gradient-6" y1="1" y2="0" xlink:href="#linear-gradient"/>
    <linearGradient id="linear-gradient-9" x1="0.167" y1="0.123" x2="0.913" y2="0.79" gradientUnits="objectBoundingBox">
      <stop offset="0" stop-color="#f58e6f"/>
      <stop offset="1" stop-color="#e35a5a"/>
    </linearGradient>
  </defs>
  <g id="illustration" transform="translate(-77.241 -473)">
    <g id="Group_39521" data-name="Group 39521" transform="translate(-19134.279 12384.131)" opacity="0.272">
      <circle id="Ellipse_1999" data-name="Ellipse 1999" cx="36.154" cy="36.154" r="36.154" transform="translate(19220.949 -11837.161)" fill="url(#linear-gradient)"/>
      <path id="Path_25533" data-name="Path 25533" d="M3.1,6.194A3.1,3.1,0,1,0,0,3.1,3.1,3.1,0,0,0,3.1,6.194Z" transform="translate(19268.502 -11761.53) rotate(39)" fill="url(#linear-gradient)"/>
      <path id="Path_25534" data-name="Path 25534" d="M2.115,4.23A2.115,2.115,0,1,0,0,2.115,2.115,2.115,0,0,0,2.115,4.23Z" transform="translate(19279.158 -11765.926) rotate(39)" fill="url(#linear-gradient)"/>
      <path id="Path_25535" data-name="Path 25535" d="M16.212,8.115a3.928,3.928,0,1,0-3.928-3.928A3.928,3.928,0,0,0,16.212,8.115Z" transform="translate(19199.236 -11819.168)" fill="url(#linear-gradient)"/>
    </g>
    <g id="Group_39533" data-name="Group 39533" transform="matrix(0.799, -0.602, 0.602, 0.799, 236.259, 496.742)" opacity="0.272">
      <circle id="Ellipse_1999-2" data-name="Ellipse 1999" cx="13.378" cy="13.378" r="13.378" transform="translate(0)" fill="url(#linear-gradient)"/>
      <path id="Path_25533-2" data-name="Path 25533" d="M1.146,0A1.146,1.146,0,1,1,0,1.146,1.146,1.146,0,0,1,1.146,0Z" transform="translate(10.603 29.767) rotate(141)" fill="url(#linear-gradient-6)"/>
      <path id="Path_25534-2" data-name="Path 25534" d="M.783,0A.783.783,0,1,1,0,.783.783.783,0,0,1,.783,0Z" transform="translate(6.202 27.576) rotate(141)" fill="url(#linear-gradient-6)"/>
      <path id="Path_25535-2" data-name="Path 25535" d="M13.737,3.166a1.454,1.454,0,1,1,1.454-1.454A1.454,1.454,0,0,1,13.737,3.166Z" transform="translate(15.054 6.495)" fill="url(#linear-gradient)"/>
    </g>
    <g id="Ellipse_2007" data-name="Ellipse 2007" transform="translate(117 473)" fill="#F6F2ED" stroke="#002c27" stroke-width="2">
      <circle cx="70.5" cy="70.5" r="70.5" stroke="none"/>
      <circle cx="70.5" cy="70.5" r="69.5" fill="none"/>
    </g>
    <g id="Group_39720" data-name="Group 39720" transform="translate(-782.141 469.71)">
      <g id="Group_39719" data-name="Group 39719" transform="translate(904.768 9.29)">
        <path id="Path_27264" data-name="Path 27264" d="M525.069,1216.331a65.142,65.142,0,0,1-19.381,46.462A64.294,64.294,0,0,1,460,1281.532a65.2,65.2,0,1,1,65.073-65.2Z" transform="translate(-394.923 -1151.13)" fill="url(#linear-gradient-9)"/>
      </g>
    </g>
    <g id="Ellipse_2008" data-name="Ellipse 2008" transform="translate(142 498)" fill="#F6F2ED" stroke="#002c27" stroke-width="2">
      <circle cx="45.5" cy="45.5" r="45.5" stroke="none"/>
      <circle cx="45.5" cy="45.5" r="44.5" fill="none"/>
    </g>
    <g id="Group_39721" data-name="Group 39721" transform="translate(3.963 4.607)">
      <g id="Group_39530" data-name="Group 39530" transform="translate(157.554 513.393)">
        <path id="Path_25555" data-name="Path 25555" d="M102.783,122.666a25.983,25.983,0,1,1,25.983-25.983A26.027,26.027,0,0,1,102.783,122.666Zm0-50.317a24.334,24.334,0,1,0,24.334,24.334A24.332,24.332,0,0,0,102.783,72.349Z" transform="translate(-76.8 -70.7)" fill="#002c27"/>
      </g>
      <g id="Group_39531" data-name="Group 39531" transform="translate(160.402 516.291)">
        <path id="Path_25556" data-name="Path 25556" d="M105.635,122.72c-.55,0-1.1,0-1.7-.05l.1-1.6c.8.05,1.6.05,2.4.05l.05,1.6Zm2.6-.1-.2-1.6c.5-.05,1.049-.15,1.549-.25l.3,1.6C109.332,122.47,108.783,122.52,108.233,122.62Zm-5.946-.1-1.649-.3.35-1.6c.5.1,1,.2,1.549.3Zm9.244-.55-.4-1.549,1.5-.45.55,1.549Q112.28,121.745,111.531,121.97Zm-12.542-.2c-.55-.15-1.049-.35-1.6-.55l.6-1.5c.5.2,1,.35,1.5.5Zm15.69-.9-.65-1.5c.5-.2.949-.45,1.4-.65l.75,1.449A13.746,13.746,0,0,1,114.679,120.871Zm-18.788-.3-1.5-.75.8-1.4a12.178,12.178,0,0,0,1.4.7Zm21.786-1.2-.849-1.4a11.625,11.625,0,0,0,1.3-.849l.949,1.3C118.626,118.772,118.127,119.072,117.677,119.372Zm-24.734-.45c-.45-.3-.949-.65-1.349-.949l1-1.3c.4.3.849.6,1.249.9Zm27.432-1.5-1.049-1.249c.4-.35.8-.7,1.149-1.049l1.1,1.149A8.757,8.757,0,0,1,120.375,117.423Zm-30.08-.55c-.4-.35-.8-.75-1.2-1.149l1.149-1.149c.35.35.75.75,1.149,1.1Zm32.529-1.8-1.2-1.1c.35-.4.7-.8,1-1.2l1.3,1C123.573,114.225,123.173,114.675,122.824,115.075Zm-34.877-.6c-.35-.45-.7-.849-1.049-1.3l1.3-.949c.3.4.65.849.949,1.249Zm36.926-2.049-1.349-.9c.3-.45.55-.9.8-1.349l1.4.8A13.766,13.766,0,0,1,124.872,112.426Zm-38.925-.65c-.3-.45-.55-.949-.849-1.449l1.449-.75c.25.45.5.9.8,1.349Zm40.573-2.249-1.449-.7a12.575,12.575,0,0,0,.6-1.449l1.5.6A10.219,10.219,0,0,1,126.521,109.528Zm-42.122-.75c-.2-.5-.45-1.049-.6-1.549l1.549-.55a12.432,12.432,0,0,0,.55,1.449Zm43.372-2.4-1.549-.5c.15-.5.3-1,.4-1.5l1.6.35Zm-44.471-.75c-.15-.55-.25-1.1-.4-1.649l1.6-.3c.1.5.2,1,.35,1.5Zm45.22-2.5-1.6-.25c.1-.5.15-1.049.2-1.549l1.6.15C128.67,101.983,128.57,102.583,128.52,103.133Zm-45.87-.8-.15-1.649,1.6-.05a8.134,8.134,0,0,0,.15,1.549Zm46.12-2.548h-1.6v-.15a13.093,13.093,0,0,0-.05-1.4l1.6-.1c.05.5.05,1,.05,1.5ZM84.1,99.035l-1.6-.05c0-.55.05-1.1.1-1.7l1.6.15C84.149,97.986,84.149,98.536,84.1,99.035Zm42.822-2.4c-.05-.5-.15-1.049-.25-1.549l1.6-.35.3,1.649Zm-42.472-.7-1.6-.3c.1-.55.2-1.1.35-1.649l1.549.4C84.649,94.888,84.5,95.438,84.449,95.937Zm41.823-2.348c-.15-.5-.3-1-.5-1.5l1.5-.55c.2.5.35,1.049.55,1.6Zm-41.073-.7-1.549-.5a10.407,10.407,0,0,1,.6-1.6l1.5.6C85.548,91.89,85.348,92.39,85.2,92.889Zm40.024-2.249c-.2-.45-.45-.949-.7-1.4l1.4-.8.75,1.5ZM86.4,89.991l-1.449-.75c.25-.5.5-1,.8-1.5l1.4.849A13.011,13.011,0,0,0,86.4,89.991Zm37.326-2.049c-.3-.45-.6-.849-.9-1.3l1.3-1a13.742,13.742,0,0,1,.949,1.4ZM88,87.343l-1.349-.949c.3-.45.65-.9,1-1.349l1.249,1C88.6,86.493,88.246,86.893,88,87.343Zm33.828-1.9c-.35-.4-.7-.75-1.049-1.149l1.149-1.149c.4.4.8.8,1.149,1.2Zm-31.879-.55-1.2-1.1,1.2-1.2,1.1,1.2C90.645,84.145,90.295,84.545,89.945,84.895Zm29.631-1.649c-.4-.35-.8-.65-1.2-.949l.949-1.3c.45.35.9.7,1.3,1.049ZM92.244,82.8l-1-1.249c.45-.35.9-.7,1.349-1l.9,1.349A7.181,7.181,0,0,0,92.244,82.8Zm24.834-1.4c-.45-.3-.9-.55-1.349-.8l.75-1.449a13.766,13.766,0,0,1,1.449.849ZM94.792,81l-.8-1.4c.5-.3,1-.55,1.5-.8l.7,1.449C95.691,80.5,95.242,80.747,94.792,81Zm19.537-1.1c-.45-.2-.949-.4-1.449-.6l.55-1.549a14.393,14.393,0,0,1,1.549.65Zm-16.739-.25-.6-1.5a15.015,15.015,0,0,1,1.6-.55l.5,1.549A8.794,8.794,0,0,0,97.59,79.648Zm13.791-.8c-.5-.15-1-.25-1.5-.35l.3-1.6c.55.1,1.1.25,1.649.4Zm-10.793-.15-.4-1.6c.55-.15,1.1-.25,1.649-.35l.25,1.6C101.587,78.449,101.088,78.549,100.588,78.7Zm7.745-.45c-.5-.05-1.049-.1-1.549-.15l.1-1.6,1.649.15Zm-4.7-.05-.15-1.6c.55-.05,1.1-.1,1.7-.1l.05,1.6C104.685,78.1,104.186,78.149,103.636,78.2Z" transform="translate(-82.5 -76.5)" fill="#002c27"/>
      </g>
      <circle id="Ellipse_2006" data-name="Ellipse 2006" cx="10.041" cy="10.041" r="10.041" transform="translate(173.479 529.465)" fill="#ff7d65"/>
      <line id="Line_836" data-name="Line 836" x2="7.287" y2="7.287" transform="translate(179.893 535.863)" fill="none" stroke="#fff" stroke-linecap="round" stroke-width="2"/>
      <line id="Line_837" data-name="Line 837" x1="7.287" y2="7.287" transform="translate(179.893 535.863)" fill="none" stroke="#fff" stroke-linecap="round" stroke-width="2"/>
    </g>
  </g>
</svg>
