<svg xmlns="http://www.w3.org/2000/svg" width="19" height="14" viewBox="0 0 19 14">
  <g id="align_right" data-name="align right" transform="translate(20 20) rotate(180)">
    <path id="Path_119507" data-name="Path 119507" d="M19,7a1,1,0,0,1,1,1v2a1,1,0,0,1-1,1H2a1,1,0,0,1-1-1V8A.99.99,0,0,1,2,7Z" transform="translate(0 4)" fill="#8d9d96" fill-rule="evenodd"/>
    <path id="Path_119508" data-name="Path 119508" d="M19,16a1,1,0,0,1,1,1v2a1,1,0,0,1-1,1H9a1,1,0,0,1-1-1V17a.99.99,0,0,1,1-1Z" fill="#8d9d96" fill-rule="evenodd"/>
    <path id="Path_119509" data-name="Path 119509" d="M19,7a1,1,0,0,1,1,1v2a1,1,0,0,1-1,1H2a1,1,0,0,1-1-1V8A.99.99,0,0,1,2,7Z" transform="translate(0 -1)" fill="#8d9d96" fill-rule="evenodd"/>
  </g>
</svg>
