<svg width="171" height="148" viewBox="0 0 171 148" fill="none" xmlns="http://www.w3.org/2000/svg">
<g opacity="0.272">
<path d="M37.0545 138.011C53.0668 138.011 66.0474 125.031 66.0474 109.019C66.0474 93.0062 53.0668 80.0256 37.0545 80.0256C21.0421 80.0256 8.06152 93.0062 8.06152 109.019C8.06152 125.031 21.0421 138.011 37.0545 138.011Z" fill="url(#paint0_linear_5575_5940)"/>
<path d="M44.9983 146.098C45.3801 146.407 45.8451 146.596 46.3344 146.641C46.8237 146.686 47.3153 146.585 47.747 146.35C48.1788 146.116 48.5313 145.759 48.76 145.324C48.9887 144.889 49.0833 144.396 49.0319 143.907C48.9804 143.419 48.7852 142.956 48.4709 142.579C48.1566 142.201 47.7374 141.925 47.2663 141.786C46.7951 141.646 46.2932 141.65 45.824 141.796C45.3548 141.941 44.9395 142.223 44.6304 142.605C44.2162 143.117 44.0222 143.773 44.0912 144.428C44.1602 145.083 44.4865 145.683 44.9983 146.098Z" fill="url(#paint1_linear_5575_5940)"/>
<path d="M53.9208 140.853C54.1814 141.065 54.4988 141.194 54.8327 141.224C55.1666 141.255 55.5022 141.186 55.7969 141.026C56.0916 140.866 56.3323 140.622 56.4885 140.326C56.6447 140.029 56.7094 139.692 56.6745 139.359C56.6395 139.025 56.5065 138.71 56.2922 138.452C56.0778 138.194 55.7918 138.005 55.4704 137.91C55.1489 137.815 54.8063 137.817 54.486 137.916C54.1657 138.015 53.882 138.207 53.6708 138.468C53.3877 138.817 53.255 139.265 53.3019 139.712C53.3488 140.16 53.5714 140.57 53.9208 140.853Z" fill="url(#paint2_linear_5575_5940)"/>
<path d="M3.64984 100.962C4.27282 100.962 4.88181 100.778 5.3998 100.431C5.91779 100.085 6.32151 99.5934 6.55992 99.0178C6.79832 98.4423 6.8607 97.8089 6.73916 97.1979C6.61762 96.5869 6.31763 96.0257 5.87712 95.5852C5.4366 95.1447 4.87535 94.8447 4.26434 94.7231C3.65333 94.6016 3.02001 94.664 2.44445 94.9024C1.86889 95.1408 1.37695 95.5445 1.03084 96.0625C0.684734 96.5805 0.5 97.1895 0.5 97.8124C0.5 98.6478 0.831857 99.449 1.42257 100.04C2.01328 100.63 2.81445 100.962 3.64984 100.962Z" fill="url(#paint3_linear_5575_5940)"/>
</g>
<path d="M101.231 140.685C139.487 140.685 170.5 109.673 170.5 71.4165C170.5 33.1606 139.487 2.14795 101.231 2.14795C62.9755 2.14795 31.9629 33.1606 31.9629 71.4165C31.9629 109.673 62.9755 140.685 101.231 140.685Z" fill="#F6F2ED"/>
<path d="M101.232 139.074C138.598 139.074 168.89 108.783 168.89 71.4165C168.89 34.0502 138.598 3.75879 101.232 3.75879C63.8656 3.75879 33.5742 34.0502 33.5742 71.4165C33.5742 108.783 63.8656 139.074 101.232 139.074Z" stroke="#0E2B27" stroke-width="3"/>
<path d="M107.936 133.989L107.39 129.621C108.755 129.485 110.256 129.212 111.621 128.939L112.44 133.307C110.937 133.579 109.436 133.716 107.936 133.989ZM116.943 132.215L115.85 127.985L119.944 126.756L121.448 130.986C119.809 131.396 118.307 131.805 116.943 132.215ZM125.541 129.208L123.766 125.114C125.131 124.569 126.36 123.886 127.587 123.34L129.634 127.297C128.309 128.017 126.942 128.657 125.541 129.212V129.208ZM133.726 125.117L131.406 121.296C132.638 120.603 133.822 119.828 134.95 118.977L137.543 122.521C136.322 123.48 134.957 124.299 133.726 125.117ZM141.095 119.795L138.237 116.383C139.329 115.427 140.42 114.473 141.376 113.517L144.383 116.656C143.39 117.804 142.29 118.855 141.099 119.795H141.095ZM147.783 113.38L144.507 110.373C145.463 109.281 146.418 108.19 147.237 107.098L150.781 109.828C149.835 111.061 148.741 112.289 147.786 113.38H147.783ZM153.378 106.147L149.693 103.691C150.512 102.463 151.197 101.235 151.877 100.007L155.698 102.19C155.006 103.555 154.232 104.877 153.379 106.147H153.378ZM157.882 98.2315L153.925 96.3209C154.553 95.0369 155.101 93.7148 155.564 92.3624L159.658 94.0002C159.186 95.4571 158.594 96.8727 157.889 98.2325L157.882 98.2315ZM161.294 89.6336L157.064 88.2686C157.473 86.9036 157.883 85.5387 158.156 84.1748L162.522 85.1306L161.294 89.6336ZM163.341 80.7629L158.973 80.0809C159.246 78.716 159.382 77.2146 159.519 75.8497L163.886 76.2588C163.753 77.6238 163.48 79.2605 163.344 80.764L163.341 80.7629ZM164.023 71.6194H159.656V71.206C159.679 69.9308 159.633 68.6553 159.52 67.3849L163.887 67.1122C164.024 68.4771 164.024 69.8421 164.024 71.206L164.023 71.6194ZM45.0193 52.7859L40.7891 51.4209C41.2144 49.9226 41.7621 48.4618 42.4268 47.0533L46.5206 48.691C45.9761 50.056 45.4295 51.4209 45.0193 52.7859ZM48.2948 44.87L44.3373 42.8231C45.0193 41.4581 45.7023 40.0931 46.5206 38.7292L50.3417 41.0489C49.5826 42.2798 48.8983 43.5558 48.2948 44.87ZM52.6624 37.637L48.9778 35.0435C49.7961 33.8149 50.7519 32.5874 51.7077 31.3588L55.1196 34.0888C54.3013 35.3163 53.3444 36.4106 52.6624 37.637ZM57.9849 30.9497L54.7094 27.9427L57.9849 24.6672L60.9919 27.9427C59.8964 28.9017 58.9396 29.9939 57.9849 30.9497ZM64.2631 25.2181L61.5342 21.8051C62.7628 20.8493 63.9903 19.8946 65.2189 19.0752L67.6792 22.7609C66.4557 23.4548 65.3104 24.2793 64.2631 25.2181ZM71.2232 20.3016L69.0399 16.4806C70.4049 15.6623 71.7698 14.9771 73.1337 14.2973L75.0453 18.2612C73.6804 18.9388 72.4518 19.6218 71.2232 20.3016ZM78.8653 16.617L77.2276 12.5231C78.654 11.9403 80.1123 11.4384 81.5952 11.0196L82.9602 15.2499C81.5573 15.5825 80.1871 16.0408 78.8664 16.6191L78.8653 16.617ZM87.054 14.0234L85.9618 9.65575C87.4653 9.24658 88.9689 8.9738 90.4659 8.69995L91.1479 13.0676C89.784 13.3436 88.419 13.6164 87.054 14.0267V14.0234Z" fill="#002C27" stroke="#F6F2ED" stroke-width="0.7"/>
<path opacity="0.3" d="M75.7933 29.5974H126.665C127.292 29.5974 127.893 29.8463 128.336 30.2894C128.779 30.7325 129.028 31.3334 129.028 31.9601V111.216C129.028 111.843 128.779 112.444 128.336 112.887C127.893 113.33 127.292 113.579 126.665 113.579H75.7933C75.1667 113.579 74.5658 113.33 74.1227 112.887C73.6796 112.444 73.4307 111.843 73.4307 111.216V31.9601C73.4307 31.3334 73.6796 30.7325 74.1227 30.2894C74.5658 29.8463 75.1667 29.5974 75.7933 29.5974Z" fill="#2D6759"/>
<path d="M128.644 110.412C129.056 110.412 129.451 110.248 129.742 109.957C130.033 109.666 130.197 109.271 130.197 108.859V33.1458C130.197 31.9242 129.718 30.7515 128.861 29.8801C128.005 29.0087 126.841 28.5085 125.62 28.4871H76.9214C75.6858 28.4871 74.5009 28.9779 73.6272 29.8516C72.7535 30.7252 72.2627 31.9102 72.2627 33.1458V111.992C72.3031 113.2 72.8117 114.345 73.6811 115.186C74.5504 116.026 75.7124 116.495 76.9214 116.495H125.698C126.893 116.455 128.027 115.957 128.865 115.105C129.704 114.252 130.182 113.11 130.201 111.914V108.731C130.201 108.527 130.161 108.325 130.083 108.136C130.004 107.947 129.89 107.776 129.745 107.632C129.6 107.487 129.429 107.373 129.24 107.295C129.051 107.217 128.848 107.178 128.644 107.178L127.091 107.133V111.914C127.072 112.3 126.911 112.664 126.638 112.937C126.365 113.21 126.001 113.371 125.616 113.39H76.9214C76.5226 113.39 76.1389 113.237 75.8498 112.963C75.5607 112.688 75.3884 112.313 75.3685 111.914V33.1458C75.3685 32.7339 75.5321 32.3389 75.8233 32.0477C76.1146 31.7565 76.5096 31.5929 76.9214 31.5929H125.698C126.082 31.6318 126.438 31.8125 126.696 32.0996C126.954 32.3867 127.096 32.7597 127.094 33.1458V108.858C127.094 109.269 127.257 109.664 127.548 109.956C127.838 110.247 128.233 110.411 128.644 110.412Z" fill="#162A27"/>
<path d="M104.337 42.1656C104.749 42.1656 105.144 42.002 105.435 41.7108C105.726 41.4196 105.89 41.0246 105.89 40.6127C105.89 40.2009 105.726 39.8059 105.435 39.5146C105.144 39.2234 104.749 39.0598 104.337 39.0598H98.1261C97.9222 39.0598 97.7203 39.1 97.5319 39.178C97.3435 39.2561 97.1723 39.3704 97.0281 39.5146C96.8839 39.6589 96.7695 39.83 96.6915 40.0184C96.6134 40.2069 96.5732 40.4088 96.5732 40.6127C96.5732 40.8167 96.6134 41.0186 96.6915 41.207C96.7695 41.3954 96.8839 41.5666 97.0281 41.7108C97.1723 41.855 97.3435 41.9694 97.5319 42.0474C97.7203 42.1255 97.9222 42.1656 98.1261 42.1656H104.337Z" fill="#162A27"/>
<path d="M124.41 34.2217H78.0547V110.744H124.41V34.2217Z" stroke="#1B2927" stroke-width="2" stroke-dasharray="2 2"/>
<path d="M139.283 47.253C152.331 47.253 162.909 36.675 162.909 23.6265C162.909 10.5779 152.331 0 139.283 0C126.234 0 115.656 10.5779 115.656 23.6265C115.656 36.675 126.234 47.253 139.283 47.253Z" fill="#F5F2ED"/>
<path d="M139.281 45.1057C151.144 45.1057 160.76 35.4894 160.76 23.6271C160.76 11.7647 151.144 2.14844 139.281 2.14844C127.419 2.14844 117.803 11.7647 117.803 23.6271C117.803 35.4894 127.419 45.1057 139.281 45.1057Z" fill="#ED835E"/>
<path d="M133.515 32C133.083 32 132.723 31.8364 132.434 31.5091C132.145 31.1819 132.001 30.7732 132 30.283V16.717C132 16.2275 132.145 15.8192 132.434 15.4919C132.723 15.1647 133.084 15.0007 133.515 15H142.853L147 19.6994V30.2841C147 30.7728 146.856 31.1812 146.567 31.5091C146.278 31.8371 145.918 32.0007 145.485 32H133.515ZM135.281 27.75H143.719V26.6875H135.281V27.75ZM135.281 24.0312H143.719V22.9687H135.281V24.0312ZM142.312 20.3125H146.062L142.312 16.0625V20.3125ZM135.281 20.3125H139.5V19.25H135.281V20.3125Z" fill="#F7F2EC"/>
<path d="M139.281 43.7636C150.402 43.7636 159.417 34.7484 159.417 23.6274C159.417 12.5065 150.402 3.49121 139.281 3.49121C128.16 3.49121 119.145 12.5065 119.145 23.6274C119.145 34.7484 128.16 43.7636 139.281 43.7636Z" stroke="#1B2927" stroke-width="2.5"/>
<defs>
<linearGradient id="paint0_linear_5575_5940" x1="37.0545" y1="80.0256" x2="37.0545" y2="138.011" gradientUnits="userSpaceOnUse">
<stop stop-color="#00836A"/>
<stop offset="1" stop-color="#073E39"/>
</linearGradient>
<linearGradient id="paint1_linear_5575_5940" x1="48.1248" y1="142.237" x2="44.9983" y2="146.098" gradientUnits="userSpaceOnUse">
<stop stop-color="#00836A"/>
<stop offset="1" stop-color="#073E39"/>
</linearGradient>
<linearGradient id="paint2_linear_5575_5940" x1="56.0551" y1="138.218" x2="53.9208" y2="140.853" gradientUnits="userSpaceOnUse">
<stop stop-color="#00836A"/>
<stop offset="1" stop-color="#073E39"/>
</linearGradient>
<linearGradient id="paint3_linear_5575_5940" x1="3.64984" y1="94.6626" x2="3.64984" y2="100.962" gradientUnits="userSpaceOnUse">
<stop stop-color="#00836A"/>
<stop offset="1" stop-color="#073E39"/>
</linearGradient>
</defs>
</svg>
