<svg width="12" height="14" viewBox="0 0 12 14" fill="none" xmlns="http://www.w3.org/2000/svg">
<path d="M7.58333 0H1.63333C0.758333 0 0 0.758333 0 1.63333V12.3667C0 13.2417 0.758333 14 1.63333 14H7.525C8.4 14 9.15833 13.2417 9.15833 12.3667V10.9083H7.99167V11.1417C7.99167 11.4917 7.7 11.725 7.40833 11.725H1.75C1.45833 11.725 1.16667 11.4917 1.16667 11.1417V1.80833C1.16667 1.45833 1.45833 1.225 1.75 1.225H7.40833C7.7 1.225 7.99167 1.45833 7.99167 1.80833V2.275H9.21667V1.69167C9.21667 0.758333 8.45833 0 7.58333 0Z" fill="#F6F2ED"/>
<path d="M11.5499 5.54162C11.6082 5.48328 11.6665 5.36662 11.6082 5.30828L11.1999 4.60828C11.1415 4.54995 11.0832 4.49162 10.9665 4.54995L10.4415 4.72495C10.0915 4.43328 9.68321 4.14162 9.27488 4.02495L9.21654 3.49995C9.21654 3.38328 9.09988 3.32495 9.04155 3.32495H8.28321C8.16655 3.32495 8.10821 3.38328 8.10821 3.49995L8.04988 4.02495C7.58321 4.14162 7.17488 4.37495 6.88321 4.72495L6.35821 4.54995C6.29988 4.49162 6.18321 4.54995 6.12488 4.60828L5.71655 5.30828C5.65821 5.36662 5.71655 5.48328 5.77488 5.54162L6.12488 5.83328C6.18321 5.89162 6.18321 5.94995 6.18321 6.00828C6.12488 6.18328 6.12488 6.35828 6.12488 6.59162C6.12488 6.76662 6.12488 6.99995 6.18321 7.17495C6.18321 7.23328 6.18321 7.29162 6.12488 7.34995L5.77488 7.64162C5.71655 7.69995 5.65821 7.81662 5.71655 7.87495L6.12488 8.45828C6.18321 8.51662 6.29988 8.57495 6.35821 8.51662L6.88321 8.34162C7.23321 8.69162 7.64154 8.92495 8.04988 9.04162L8.10821 9.56662C8.10821 9.68328 8.22488 9.74162 8.28321 9.74162H9.04155C9.15821 9.74162 9.21654 9.68328 9.21654 9.56662L9.27488 9.04162C9.74154 8.92495 10.1499 8.69162 10.4415 8.34162L10.9665 8.51662C11.0832 8.51662 11.1415 8.51662 11.1999 8.45828L11.6082 7.81662C11.6665 7.75828 11.6665 7.64162 11.5499 7.58328L11.2582 7.29162C11.1999 7.23328 11.1999 7.17495 11.1999 7.11662C11.2582 6.94162 11.2582 6.76662 11.2582 6.53328C11.2582 6.35828 11.2582 6.12495 11.1999 5.94995C11.1999 5.89162 11.1999 5.83328 11.2582 5.77495L11.5499 5.54162ZM8.69154 7.75828C8.04988 7.75828 7.46655 7.23328 7.46655 6.53328C7.46655 5.83328 7.99154 5.30828 8.69154 5.30828C9.39154 5.30828 9.91655 5.83328 9.91655 6.53328C9.85821 7.23328 9.33321 7.75828 8.69154 7.75828Z" fill="#F6F2ED"/>
</svg>
