<svg xmlns="http://www.w3.org/2000/svg" width="20.063" height="27.587" viewBox="0 0 20.063 27.587">
  <g id="app" transform="translate(-43.437 -362.85)">
    <path id="mobile_app" data-name="mobile app" d="M7.762,1A3.757,3.757,0,0,0,4,4.762V24.825a3.765,3.765,0,0,0,3.762,3.762H20.3a3.773,3.773,0,0,0,3.762-3.762V4.762A3.765,3.765,0,0,0,20.3,1ZM16.54,25.452H11.524V22.944H16.54ZM7.135,6.016A1.242,1.242,0,0,1,8.389,4.762h3.762A1.25,1.25,0,0,1,13.4,6.016V9.778a1.258,1.258,0,0,1-1.254,1.254H8.389A1.25,1.25,0,0,1,7.135,9.778Z" transform="translate(39.437 361.85)" fill="#2d6759" fill-rule="evenodd"/>
  </g>
</svg>
