<svg xmlns="http://www.w3.org/2000/svg" width="19.061" height="19.001" viewBox="0 0 19.061 19.001">
  <g id="backup" transform="translate(-31.469 -226.5)">
    <g id="backup-2" data-name="backup" transform="translate(30.529 225.51)">
      <path id="Path_119481" data-name="Path 119481" d="M9.732,1.448A.851.851,0,0,1,10.492.99a9.508,9.508,0,0,1,3.8,18.223l-.7-1.591A7.793,7.793,0,0,0,12.23,2.892l.7,1.046-1.444.951L9.758,2.3a.849.849,0,0,1-.043-.89ZM7.38,3.367A7.78,7.78,0,0,0,8.729,18.08L8.02,17.026l1.435-.96,1.729,2.593a.851.851,0,0,1,.035.882.883.883,0,0,1-.769.45A9.516,9.516,0,0,1,6.637,1.759l.692,1.582Z" fill="#fdf7f0" fill-rule="evenodd"/>
    </g>
    <circle id="Ellipse_2536" data-name="Ellipse 2536" cx="4" cy="4" r="4" transform="translate(37 232)" fill="#fdf7f0"/>
  </g>
</svg>
