<svg xmlns="http://www.w3.org/2000/svg" width="15.504" height="11.368" viewBox="0 0 15.504 11.368">
  <path id="arrow" d="M-10329.654-14306.74v-8.363l-1.4,1.395a1.4,1.4,0,0,1-2.021,0,1.4,1.4,0,0,1,0-2.016l3.67-3.67a1.413,1.413,0,0,1,1.182-.607l.011,0a1.292,1.292,0,0,1,.323.035,1.411,1.411,0,0,1,.862.578l3.661,3.662a1.4,1.4,0,0,1,0,2.016,1.4,1.4,0,0,1-1.014.434,1.382,1.382,0,0,1-1.008-.434l-1.391-1.389v8.357a1.446,1.446,0,0,1-1.445,1.441A1.414,1.414,0,0,1-10329.654-14306.74Z" transform="translate(-14304.896 10333.903) rotate(90)" fill="#453228" stroke="#f4d9b8" stroke-width="0.8"/>
</svg>
