<svg width="17" height="17" viewBox="0 0 17 17" fill="none" xmlns="http://www.w3.org/2000/svg">
<g clip-path="url(#clip0_4398_31952)">
<path d="M8.52658 3.44821e-05C3.81175 -0.0132467 -0.0132467 3.81175 3.44821e-05 8.52658C0.0133157 13.1883 3.90139 17 8.5631 17H17V8.5631C17 3.90139 13.1883 0.0133157 8.52658 3.44821e-05ZM9.25705 12.8297C9.03459 13.0256 8.759 13.1252 8.42697 13.1252C8.09494 13.1252 7.81935 13.0256 7.59689 12.8297C7.37443 12.6338 7.26486 12.3815 7.26486 12.076C7.26486 11.7705 7.37443 11.5182 7.59689 11.3223C7.81935 11.1264 8.09494 11.0268 8.42697 11.0268C8.759 11.0268 9.03459 11.1264 9.25705 11.3223C9.47951 11.5182 9.58908 11.7705 9.58908 12.076C9.58908 12.3815 9.47619 12.6305 9.25705 12.8297ZM11.2227 7.27482C11.0865 7.55705 10.8674 7.84592 10.5652 8.1381L9.85138 8.80217C9.64884 8.99806 9.50607 9.19728 9.4297 9.40314C9.35002 9.609 9.30685 9.86798 9.30021 10.1834H7.52053C7.52053 9.57912 7.59025 9.10099 7.72639 8.75236C7.86584 8.39709 8.09494 8.08498 8.39045 7.8426C8.69592 7.58693 8.93166 7.35119 9.09103 7.13869C9.24709 6.93615 9.33009 6.68713 9.33009 6.43479C9.33009 5.81057 9.06115 5.49514 8.52326 5.49514C8.29084 5.4885 8.06838 5.58811 7.92228 5.76741C7.76955 5.95002 7.68654 6.19572 7.6799 6.50783H5.58147C5.59143 5.67776 5.85041 5.03362 6.36506 4.5721C6.87971 4.11057 7.60021 3.87815 8.52658 3.87815C9.44962 3.87815 10.1668 4.09065 10.6748 4.51897C11.1828 4.94729 11.4352 5.55159 11.4352 6.3385C11.4318 6.66057 11.3621 6.98264 11.2227 7.27482Z" fill="#272421"/>
</g>
<defs>
<clipPath id="clip0_4398_31952">
<rect width="17" height="17" fill="white"/>
</clipPath>
</defs>
</svg>
