<svg width="30" height="21" viewBox="0 0 30 21" fill="none" xmlns="http://www.w3.org/2000/svg">
<g clip-path="url(#clip0_3836_4014)">
<path d="M30 14.113V15.2633C29.9718 15.412 29.9439 15.5608 29.9163 15.7096C29.3262 18.8697 26.7266 21.0008 23.443 21.0008C17.8086 21.0038 12.1763 21.0038 6.54608 21.0008C6.20583 21.0023 5.8659 20.9805 5.52876 20.9356C4.2667 20.7604 3.08642 20.2211 2.13818 19.3864C1.18994 18.5517 0.516648 17.4593 0.204044 16.2484C-0.10856 15.0374 -0.0463323 13.7628 0.382793 12.5866C0.811919 11.4105 1.58853 10.386 2.61374 9.64384C2.70142 9.58986 2.77231 9.51334 2.81868 9.42261C2.86504 9.33188 2.8851 9.23042 2.87668 9.12928C2.86949 8.29788 3.03124 7.4734 3.35252 6.70388C3.67379 5.93436 4.14815 5.2352 4.74796 4.64714C5.34777 4.05909 6.06103 3.59392 6.84616 3.27872C7.63129 2.96352 8.47259 2.80462 9.32102 2.81126C9.58005 2.81126 9.71934 2.72538 9.86881 2.5329C12.4293 -0.841208 17.5871 -0.841208 20.1484 2.5329C20.4943 2.98764 20.7541 3.50602 21.0617 4.00754C22.5822 3.22229 24.0886 3.25143 25.3876 4.45231C26.7555 5.71606 26.844 7.24285 26.027 8.84632C26.0381 8.85754 26.0501 8.86781 26.063 8.87699L26.2743 8.97668C28.1775 9.88002 29.3719 11.3403 29.8576 13.3577C29.9116 13.6061 29.9507 13.8607 30 14.113ZM12.5944 13.327H16.8054C16.8508 13.4313 16.8946 13.5379 16.9431 13.6414C17.1201 14.0193 17.3918 14.3473 17.7329 14.5948C18.074 14.8423 18.4733 15.0012 18.8939 15.0569C19.3145 15.1126 19.7426 15.0632 20.1384 14.9133C20.5343 14.7634 20.8851 14.5179 21.1581 14.1996C21.4312 13.8812 21.6177 13.5004 21.7003 13.0925C21.783 12.6845 21.759 12.2628 21.6307 11.8664C21.5024 11.47 21.2739 11.1118 20.9664 10.8251C20.659 10.5384 20.2826 10.3326 19.8722 10.2266C19.2914 10.0746 18.6742 10.133 18.1338 10.3911C17.5935 10.6492 17.1662 11.0896 16.9306 11.6315C16.8288 11.8669 16.7036 11.9237 16.4563 11.9229C14.0171 11.9129 11.5771 11.916 9.1379 11.9175C8.51185 11.9175 8.26457 12.1629 8.26301 12.7611C8.26301 13.2871 8.26301 13.8132 8.26301 14.3392C8.26092 14.4062 8.26274 14.4733 8.26848 14.5401C8.28559 14.7131 8.36867 14.8734 8.50112 14.989C8.63356 15.1045 8.80564 15.1669 8.98295 15.1636C9.16097 15.1677 9.33347 15.1029 9.46299 14.9831C9.59251 14.8634 9.6686 14.6984 9.67473 14.524C9.69194 14.1268 9.67473 13.728 9.67473 13.3308H11.1545C11.1545 13.6974 11.1483 14.0409 11.1545 14.3845C11.1647 14.8599 11.4464 15.1628 11.8659 15.1643C12.2978 15.1643 12.5819 14.8576 12.5874 14.3638C12.5944 14.0248 12.5944 13.6836 12.5944 13.327Z" fill="black"/>
<path d="M19.229 13.6712C19.0871 13.673 18.9463 13.647 18.8148 13.5949C18.6833 13.5428 18.5636 13.4656 18.4628 13.3678C18.362 13.2699 18.2821 13.1534 18.2277 13.025C18.1733 12.8966 18.1455 12.7589 18.1459 12.6199C18.1446 12.4785 18.172 12.3383 18.2266 12.2075C18.2811 12.0766 18.3618 11.9577 18.4638 11.8578C18.5658 11.7578 18.6871 11.6788 18.8206 11.6253C18.9542 11.5718 19.0972 11.545 19.2415 11.5463C19.5278 11.5538 19.8 11.67 20.0007 11.8702C20.2014 12.0705 20.315 12.3392 20.3175 12.6199C20.3144 12.9004 20.1982 13.1684 19.9943 13.3654C19.7904 13.5623 19.5153 13.6723 19.229 13.6712Z" fill="black"/>
</g>
<defs>
<clipPath id="clip0_3836_4014">
<rect width="30" height="21" fill="white"/>
</clipPath>
</defs>
</svg>
