<svg width="21" height="25" viewBox="0 0 21 25" fill="none" xmlns="http://www.w3.org/2000/svg">
  <defs>
    <mask id="cutout">
      <rect width="100%" height="100%" fill="white"/>
      <circle cx="10.5" cy="12" r="6" fill="black"/>
    </mask>
  </defs>
  <path d="M10.5847 24.5H9.60047C7.81393 23.3187 6.03985 22.123 4.24085 20.961C3.51044 20.517 2.88928 19.9237 2.42097 19.2228C1.95265 18.5219 1.64852 17.7304 1.5299 16.9037C1.30814 15.4573 1.17608 13.9939 0.969269 12.5427C0.662792 10.3995 0.323919 8.25875 0 6.118V4.44737C0.518526 4.15524 1.05909 3.90139 1.6171 3.68797C4.30563 2.87073 7.07142 2.26321 9.45098 0.662466C9.67558 0.552858 9.92416 0.497173 10.1757 0.50011C10.4272 0.503048 10.6743 0.564537 10.8961 0.679357C13.2632 2.31626 16.044 2.90207 18.7474 3.66387C19.9584 4.00379 20.2848 4.60887 20.1204 5.75156C19.622 9.28734 19.1578 12.8344 18.7275 16.3926C18.4784 18.3839 17.5639 19.9075 15.8496 21.0189C14.083 22.1616 12.3388 23.338 10.5847 24.5Z" fill="#FDF7F0" mask="url(#cutout)"/>
  <path d="M10.5479 6.26042C11.6867 6.25797 12.8007 6.59313 13.7491 7.22359C14.6975 7.85406 15.4377 8.75154 15.8762 9.80255C16.3147 10.8536 16.4318 12.011 16.2127 13.1285C15.9936 14.2461 15.4481 15.2736 14.6453 16.0812C13.8424 16.8889 12.8181 17.4404 11.7019 17.6661C10.5856 17.8918 9.42757 17.7816 8.37397 17.3494C7.32037 16.9171 6.41857 16.1822 5.78249 15.2376C5.14641 14.293 4.80462 13.181 4.80031 12.0422C4.79619 10.5134 5.39933 9.04558 6.47712 7.96138C7.55492 6.87718 9.01914 6.26536 10.5479 6.26042ZM10.5479 16.9633C11.6907 16.9682 12.7998 16.5762 13.6858 15.8542C13.7152 15.8383 13.7376 15.8119 13.7486 15.7803C13.7595 15.7486 13.7582 15.714 13.7448 15.6833C13.6081 15.1788 13.3522 14.7145 12.9986 14.3296C12.645 13.9446 12.2041 13.6502 11.7129 13.4713C11.6548 13.4496 11.5908 13.4496 11.5327 13.4713C11.2278 13.5995 10.9004 13.6655 10.5696 13.6655C10.2389 13.6655 9.91144 13.5995 9.60653 13.4713C9.55641 13.4527 9.50131 13.4527 9.45119 13.4713C8.95864 13.6465 8.51562 13.9379 8.15973 14.3208C7.80385 14.7037 7.54563 15.1668 7.40693 15.6709C7.39142 15.7051 7.38883 15.7438 7.39968 15.7798C7.41054 15.8158 7.43408 15.8466 7.46594 15.8666C8.3347 16.5705 9.41737 16.9573 10.5355 16.9633H10.5479ZM10.5758 9.55362C10.2506 9.55301 9.93243 9.64875 9.66152 9.82876C9.3906 10.0088 9.17908 10.265 9.05362 10.5651C8.92816 10.8652 8.89439 11.1957 8.95657 11.515C9.01875 11.8343 9.17407 12.128 9.40299 12.3591C9.6319 12.5901 9.92416 12.7482 10.2428 12.8134C10.5615 12.8786 10.8923 12.8479 11.1936 12.7253C11.4949 12.6027 11.7531 12.3936 11.9356 12.1243C12.1182 11.8551 12.2169 11.5379 12.2194 11.2126C12.2206 10.9947 12.1786 10.7787 12.0959 10.577C12.0131 10.3754 11.8913 10.1921 11.7373 10.0379C11.5833 9.88362 11.4003 9.7614 11.1988 9.67827C10.9973 9.59515 10.7814 9.55279 10.5634 9.55362H10.5758Z" fill="none"/>
  <path d="M10.5355 16.9633C9.41234 16.9584 8.32478 16.5692 7.45354 15.8604C7.42168 15.8404 7.39814 15.8096 7.38728 15.7736C7.37643 15.7376 7.37898 15.6989 7.39449 15.6647C7.53319 15.1606 7.79145 14.6975 8.14733 14.3145C8.50322 13.9316 8.94621 13.6402 9.43875 13.465C9.48887 13.4465 9.54397 13.4465 9.59409 13.465C9.89901 13.5932 10.2265 13.6592 10.5572 13.6592C10.888 13.6592 11.2154 13.5932 11.5203 13.465C11.5784 13.4434 11.6424 13.4434 11.7005 13.465C12.1916 13.644 12.6326 13.9383 12.9862 14.3233C13.3398 14.7083 13.5957 15.1725 13.7324 15.6771C13.7457 15.7078 13.7471 15.7424 13.7361 15.774C13.7252 15.8056 13.7028 15.8321 13.6733 15.848C12.7882 16.5722 11.6791 16.9665 10.5355 16.9633Z" fill="#FDF7F0"/>
  <path d="M10.5634 9.55362C10.8897 9.55425 11.2085 9.65184 11.4793 9.83398C11.7501 10.0161 11.9606 10.2746 12.0842 10.5766C12.2077 10.8786 12.2388 11.2105 12.1734 11.5302C12.108 11.8499 11.9491 12.143 11.7168 12.3722C11.4845 12.6014 11.1894 12.7565 10.8688 12.8176C10.5483 12.8788 10.2168 12.8433 9.91646 12.7157C9.61611 12.5882 9.36043 12.3742 9.18189 12.1011C9.00336 11.8279 8.91003 11.5079 8.91373 11.1816C8.91864 10.7476 9.0947 10.3331 9.40364 10.0282C9.71258 9.72333 10.1294 9.55277 10.5634 9.55362Z" fill="#FDF7F0"/>
</svg>
