<svg width="23" height="28" viewBox="0 0 23 28" fill="none" xmlns="http://www.w3.org/2000/svg">
<path d="M12.0679 27.5H10.9607C8.95083 26.1711 6.95499 24.8259 4.93112 23.5187C4.1094 23.0191 3.4106 22.3517 2.88375 21.5632C2.35689 20.7747 2.01474 19.8842 1.88129 18.9542C1.63181 17.3269 1.48325 15.6807 1.25058 14.048C0.905797 11.6369 0.524565 9.2286 0.160156 6.82025V4.94079C0.743498 4.61215 1.35164 4.32656 1.9794 4.08647C5.00399 3.16707 8.1155 2.48361 10.7925 0.682774C11.0452 0.559466 11.3248 0.49682 11.6078 0.500124C11.8908 0.503429 12.1688 0.572605 12.4183 0.701777C15.0813 2.54329 18.2096 3.20233 21.251 4.05936C22.6134 4.44176 22.9806 5.12247 22.7956 6.40801C22.2349 10.3858 21.7126 14.3762 21.2286 18.3792C20.9483 20.6194 19.9195 22.3335 17.991 23.5837C16.0035 24.8693 14.0413 26.1928 12.0679 27.5Z" fill="#2D6759"/>
<path d="M12.0266 6.98048C13.3078 6.97773 14.561 7.35478 15.6279 8.06406C16.6949 8.77333 17.5276 9.78299 18.0209 10.9654C18.5142 12.1478 18.646 13.4499 18.3995 14.7071C18.153 15.9643 17.5394 17.1203 16.6361 18.0289C15.7329 18.9375 14.5806 19.558 13.3248 19.8119C12.0691 20.0658 10.7662 19.9418 9.58093 19.4555C8.39564 18.9692 7.38111 18.1425 6.66552 17.0798C5.94993 16.0171 5.56541 14.7661 5.56057 13.4849C5.55593 11.7651 6.23446 10.1138 7.44698 8.89407C8.6595 7.67434 10.3067 6.98604 12.0266 6.98048ZM12.0266 19.0212C13.3123 19.0267 14.56 18.5857 15.5567 17.7735C15.5898 17.7556 15.6151 17.7259 15.6274 17.6903C15.6397 17.6547 15.6382 17.6158 15.6231 17.5812C15.4694 17.0137 15.1814 16.4913 14.7836 16.0583C14.3858 15.6252 13.8898 15.294 13.3373 15.0927C13.2719 15.0683 13.1999 15.0683 13.1345 15.0927C12.7915 15.2369 12.4232 15.3111 12.0511 15.3111C11.6789 15.3111 11.3106 15.2369 10.9676 15.0927C10.9112 15.0718 10.8492 15.0718 10.7928 15.0927C10.2387 15.2898 9.74029 15.6176 9.33992 16.0484C8.93955 16.4792 8.64905 17.0002 8.49301 17.5673C8.47556 17.6058 8.47265 17.6493 8.48486 17.6898C8.49707 17.7303 8.52356 17.765 8.5594 17.7874C9.53675 18.5793 10.7548 19.0145 12.0126 19.0212H12.0266ZM12.058 10.6853C11.6921 10.6846 11.3342 10.7924 11.0294 10.9949C10.7246 11.1974 10.4867 11.4856 10.3455 11.8233C10.2044 12.1609 10.1664 12.5327 10.2364 12.8919C10.3063 13.2511 10.481 13.5815 10.7386 13.8415C10.9961 14.1014 11.3249 14.2793 11.6834 14.3526C12.0419 14.4259 12.4141 14.3914 12.753 14.2535C13.0919 14.1155 13.3824 13.8803 13.5878 13.5774C13.7931 13.2745 13.9042 12.9176 13.907 12.5517C13.9084 12.3065 13.8612 12.0635 13.7681 11.8367C13.675 11.6098 13.5379 11.4037 13.3647 11.2301C13.1915 11.0566 12.9855 10.9191 12.7589 10.8256C12.5322 10.7321 12.2892 10.6844 12.0441 10.6853H12.058Z" fill="#F7F2EC"/>
<path d="M12.0126 19.0212C10.7491 19.0157 9.5256 18.5778 8.54545 17.7805C8.50961 17.758 8.48312 17.7233 8.47091 17.6828C8.4587 17.6423 8.46157 17.5988 8.47902 17.5603C8.63506 16.9932 8.9256 16.4722 9.32597 16.0414C9.72634 15.6106 10.2247 15.2827 10.7788 15.0857C10.8352 15.0648 10.8972 15.0648 10.9536 15.0857C11.2966 15.2299 11.665 15.3042 12.0371 15.3042C12.4092 15.3042 12.7776 15.2299 13.1206 15.0857C13.186 15.0613 13.2579 15.0613 13.3233 15.0857C13.8758 15.287 14.3719 15.6182 14.7697 16.0512C15.1675 16.4843 15.4554 17.0066 15.6091 17.5742C15.6242 17.6087 15.6257 17.6477 15.6134 17.6833C15.6011 17.7189 15.5759 17.7486 15.5427 17.7665C14.547 18.5812 13.2992 19.0248 12.0126 19.0212Z" fill="#2D6759"/>
<path d="M12.0441 10.6853C12.4112 10.686 12.7698 10.7958 13.0744 11.0007C13.379 11.2057 13.6159 11.4964 13.7549 11.8362C13.8939 12.176 13.9289 12.5494 13.8553 12.909C13.7817 13.2687 13.6029 13.5984 13.3416 13.8563C13.0803 14.1141 12.7483 14.2885 12.3876 14.3574C12.027 14.4262 11.6541 14.3862 11.3162 14.2427C10.9783 14.0992 10.6907 13.8585 10.4898 13.5512C10.289 13.2439 10.184 12.8839 10.1882 12.5168C10.1937 12.0285 10.3918 11.5622 10.7393 11.2192C11.0869 10.8763 11.5558 10.6844 12.0441 10.6853Z" fill="#2D6759"/>
</svg>
