<svg width="44" height="38" viewBox="0 0 44 38" fill="none" xmlns="http://www.w3.org/2000/svg">
<path d="M30.8037 -0.00298977C31.3306 -0.00332761 31.8483 0.135131 32.3047 0.398453C32.7612 0.661775 33.1402 1.04067 33.4037 1.49701L42.6667 17.497C42.9311 17.9538 43.0703 18.4722 43.0703 19C43.0703 19.5278 42.9311 20.0462 42.6667 20.503L33.4037 36.503C33.1402 36.9594 32.7612 37.3382 32.3047 37.6016C31.8483 37.8649 31.3306 38.0033 30.8037 38.003H12.2637C11.7367 38.0033 11.219 37.8649 10.7626 37.6016C10.3061 37.3382 9.92713 36.9594 9.66366 36.503L0.403658 20.497C0.139238 20.0402 0 19.5218 0 18.994C0 18.4662 0.139238 17.9478 0.403658 17.491L9.66666 1.49101C9.93063 1.03623 10.3095 0.658816 10.7653 0.396604C11.2211 0.134392 11.7378 -0.00340984 12.2637 -0.00298977H30.8037Z" fill="#2D6759"/>
</svg>
