<svg width="23" height="27" viewBox="0 0 23 27" fill="none" xmlns="http://www.w3.org/2000/svg">
<path d="M12.0679 27H10.9607C8.95083 25.6711 6.95499 24.3259 4.93112 23.0187C4.1094 22.5191 3.4106 21.8517 2.88375 21.0632C2.35689 20.2747 2.01474 19.3842 1.88129 18.4542C1.63181 16.8269 1.48325 15.1807 1.25058 13.548C0.905797 11.1369 0.524565 8.7286 0.160156 6.32025V4.44079C0.743498 4.11215 1.35164 3.82656 1.9794 3.58647C5.00399 2.66707 8.1155 1.98361 10.7925 0.182774C11.0452 0.0594657 11.3248 -0.00318011 11.6078 0.000124255C11.8908 0.00342862 12.1688 0.0726047 12.4183 0.201777C15.0813 2.04329 18.2096 2.70233 21.251 3.55936C22.6134 3.94176 22.9806 4.62247 22.7956 5.90801C22.2349 9.88575 21.7126 13.8762 21.2286 17.8792C20.9483 20.1194 19.9195 21.8335 17.991 23.0837C16.0035 24.3693 14.0413 25.6928 12.0679 27Z" fill="#A2A2A2"/>
<path d="M12.0286 6.48048C13.3097 6.47773 14.563 6.85478 15.6299 7.56406C16.6968 8.27333 17.5296 9.28299 18.0229 10.4654C18.5162 11.6478 18.6479 12.9499 18.4015 14.2071C18.155 15.4643 17.5413 16.6203 16.6381 17.5289C15.7348 18.4375 14.5825 19.058 13.3268 19.3119C12.071 19.5658 10.7682 19.4418 9.58289 18.9555C8.39759 18.4692 7.38306 17.6425 6.66747 16.5798C5.95189 15.5171 5.56736 14.2661 5.56252 12.9849C5.55788 11.2651 6.23642 9.61379 7.44893 8.39407C8.66145 7.17434 10.3087 6.48604 12.0286 6.48048ZM12.0286 18.5212C13.3143 18.5267 14.562 18.0857 15.5587 17.2735C15.5918 17.2556 15.617 17.2259 15.6293 17.1903C15.6416 17.1547 15.6401 17.1158 15.6251 17.0812C15.4713 16.5137 15.1834 15.9913 14.7856 15.5583C14.3878 15.1252 13.8918 14.794 13.3392 14.5927C13.2739 14.5683 13.2019 14.5683 13.1365 14.5927C12.7935 14.7369 12.4251 14.8111 12.053 14.8111C11.6809 14.8111 11.3125 14.7369 10.9695 14.5927C10.9131 14.5718 10.8511 14.5718 10.7948 14.5927C10.2406 14.7898 9.74224 15.1176 9.34187 15.5484C8.9415 15.9792 8.651 16.5002 8.49496 17.0673C8.47751 17.1058 8.4746 17.1493 8.48681 17.1898C8.49902 17.2303 8.52551 17.265 8.56135 17.2874C9.5387 18.0793 10.7567 18.5145 12.0146 18.5212H12.0286ZM12.06 10.1853C11.6941 10.1846 11.3362 10.2924 11.0314 10.4949C10.7266 10.6974 10.4886 10.9856 10.3475 11.3233C10.2064 11.6609 10.1684 12.0327 10.2383 12.3919C10.3083 12.7511 10.483 13.0815 10.7405 13.3415C10.9981 13.6014 11.3269 13.7793 11.6854 13.8526C12.0439 13.9259 12.4161 13.8914 12.755 13.7535C13.0939 13.6155 13.3844 13.3803 13.5897 13.0774C13.7951 12.7745 13.9062 12.4176 13.9089 12.0517C13.9103 11.8065 13.8631 11.5635 13.77 11.3367C13.6769 11.1098 13.5398 10.9037 13.3666 10.7301C13.1934 10.5566 12.9875 10.4191 12.7608 10.3256C12.5342 10.2321 12.2912 10.1844 12.046 10.1853H12.06Z" fill="#F7F2EC"/>
<path d="M12.0146 18.5212C10.7511 18.5157 9.52755 18.0778 8.5474 17.2805C8.51156 17.258 8.48508 17.2233 8.47286 17.1828C8.46065 17.1423 8.46352 17.0988 8.48097 17.0603C8.63701 16.4932 8.92755 15.9722 9.32792 15.5414C9.72829 15.1106 10.2267 14.7827 10.7808 14.5857C10.8371 14.5648 10.8991 14.5648 10.9555 14.5857C11.2986 14.7299 11.667 14.8042 12.0391 14.8042C12.4112 14.8042 12.7795 14.7299 13.1225 14.5857C13.1879 14.5613 13.2599 14.5613 13.3252 14.5857C13.8778 14.787 14.3738 15.1182 14.7716 15.5512C15.1694 15.9843 15.4573 16.5066 15.6111 17.0742C15.6261 17.1087 15.6276 17.1477 15.6153 17.1833C15.603 17.2189 15.5778 17.2486 15.5447 17.2665C14.549 18.0812 13.3011 18.5248 12.0146 18.5212Z" fill="#A2A2A2"/>
<path d="M12.046 10.1853C12.4131 10.186 12.7718 10.2958 13.0764 10.5007C13.381 10.7057 13.6178 10.9964 13.7569 11.3362C13.8959 11.676 13.9308 12.0494 13.8572 12.409C13.7837 12.7687 13.6049 13.0984 13.3436 13.3563C13.0823 13.6141 12.7502 13.7885 12.3896 13.8574C12.029 13.9262 11.6561 13.8862 11.3182 13.7427C10.9803 13.5992 10.6926 13.3585 10.4918 13.0512C10.2909 12.7439 10.186 12.3839 10.1901 12.0168C10.1956 11.5285 10.3937 11.0622 10.7413 10.7192C11.0888 10.3763 11.5577 10.1844 12.046 10.1853Z" fill="#A2A2A2"/>
</svg>
