<svg width="74" height="9" viewBox="0 0 74 9" fill="none" xmlns="http://www.w3.org/2000/svg">
<path d="M8.641 3.856L5.328 4.571L7.58 7.083L6.02 8.23L4.309 5.33L2.62 8.23L1.061 7.104L3.292 4.57L0 3.856L0.585 2.076L3.66 3.401L3.335 0.000999451H5.284L4.959 3.423L8.034 2.059L8.641 3.856ZM19.534 3.856L16.221 4.571L18.473 7.083L16.914 8.231L15.203 5.331L13.514 8.231L11.955 7.105L14.186 4.571L10.894 3.856L11.479 2.08L14.554 3.401L14.229 0.000999451H16.178L15.853 3.423L18.928 2.059L19.534 3.856ZM30.427 3.856L27.114 4.571L29.366 7.083L27.807 8.231L26.096 5.331L24.407 8.231L22.848 7.105L25.079 4.571L21.787 3.856L22.372 2.08L25.447 3.401L25.122 0.000999451H27.071L26.746 3.423L29.821 2.059L30.427 3.856ZM41.32 3.856L38.007 4.571L40.259 7.083L38.7 8.23L36.989 5.33L35.3 8.23L33.741 7.104L35.972 4.57L32.68 3.856L33.265 2.08L36.34 3.401L36.015 0.000999451H37.964L37.639 3.423L40.714 2.059L41.32 3.856ZM52.213 3.856L48.9 4.571L51.152 7.083L49.593 8.231L47.882 5.331L46.193 8.231L44.634 7.105L46.865 4.571L43.573 3.856L44.158 2.08L47.233 3.401L46.908 0.000999451H48.857L48.532 3.423L51.607 2.059L52.213 3.856ZM63.106 3.856L59.793 4.571L62.045 7.083L60.486 8.231L58.775 5.331L57.086 8.231L55.527 7.105L57.758 4.571L54.466 3.856L55.051 2.08L58.126 3.401L57.801 0.000999451H59.75L59.425 3.423L62.5 2.058L63.106 3.856ZM73.999 3.856L70.686 4.571L72.938 7.083L71.38 8.23L69.669 5.33L67.98 8.23L66.42 7.104L68.651 4.57L65.359 3.855L65.944 2.079L69.019 3.4L68.694 0H70.643L70.318 3.422L73.393 2.058L73.999 3.856Z" fill="#24312E"/>
</svg>
