<svg xmlns="http://www.w3.org/2000/svg" width="24" height="24" viewBox="0 0 24 24">
  <g id="backup" transform="translate(-50 -196)">
    <circle id="Ellipse_2066" data-name="Ellipse 2066" cx="9.5" cy="9.5" r="9.5" transform="translate(53 198)" fill="#0d3f36"/>
    <path id="refresh.fill" d="M12,0A12,12,0,1,0,24,12,12,12,0,0,0,12,0ZM7.114,10.42A5.169,5.169,0,0,1,12,6.5a5.105,5.105,0,0,1,4.67,3.286H14.8a.5.5,0,1,0,0,1H18a.5.5,0,0,0,.5-.5V6.857a.5.5,0,1,0-1,0V9.186A6.082,6.082,0,0,0,12,5.5a6.168,6.168,0,0,0-5.85,4.652.5.5,0,1,0,.964.268ZM17.85,13.848a.5.5,0,1,0-.963-.268A5.169,5.169,0,0,1,12,17.5a5.1,5.1,0,0,1-4.67-3.286H9.2a.5.5,0,0,0,0-1H6a.5.5,0,0,0-.5.5v3.429a.5.5,0,0,0,1,0V14.814A6.083,6.083,0,0,0,12,18.5,6.168,6.168,0,0,0,17.85,13.848Z" transform="translate(50 196)" fill="#fac48b" fill-rule="evenodd"/>
  </g>
</svg>
