<svg width="185" height="146" viewBox="0 0 185 146" fill="none" xmlns="http://www.w3.org/2000/svg">
<g opacity="0.272">
<path d="M41.7501 134.974C60.0376 134.974 74.8626 120.148 74.8626 101.861C74.8626 83.5728 60.0376 68.7476 41.7501 68.7476C23.4626 68.7476 8.6377 83.5728 8.6377 101.861C8.6377 120.148 23.4626 134.974 41.7501 134.974Z" fill="url(#paint0_linear_2194_12478)"/>
<path d="M50.8273 144.214C51.2639 144.567 51.7955 144.783 52.3549 144.834C52.9144 144.886 53.4764 144.77 53.97 144.502C54.4636 144.233 54.8665 143.825 55.1277 143.327C55.3889 142.83 55.4967 142.266 55.4374 141.707C55.3781 141.149 55.1545 140.62 54.7947 140.189C54.435 139.757 53.9553 139.442 53.4165 139.283C52.8776 139.125 52.3037 139.129 51.7675 139.297C51.2313 139.464 50.7568 139.787 50.4041 140.224C49.932 140.81 49.7113 141.559 49.7907 142.307C49.87 143.054 50.2428 143.74 50.8273 144.214Z" fill="url(#paint1_linear_2194_12478)"/>
<path d="M61.0175 138.221C61.3152 138.462 61.6778 138.61 62.0593 138.645C62.4408 138.68 62.8241 138.601 63.1608 138.418C63.4975 138.235 63.7724 137.957 63.9508 137.618C64.1292 137.279 64.203 136.894 64.163 136.513C64.123 136.132 63.9708 135.772 63.7258 135.477C63.4809 135.182 63.154 134.967 62.7867 134.858C62.4194 134.75 62.028 134.752 61.6621 134.866C61.2962 134.979 60.9723 135.199 60.7312 135.497C60.4078 135.896 60.2564 136.407 60.3101 136.918C60.3638 137.429 60.6183 137.898 61.0175 138.221Z" fill="url(#paint2_linear_2194_12478)"/>
<path d="M3.59755 92.6596C4.30907 92.6596 5.00462 92.4486 5.59624 92.0533C6.18785 91.658 6.64896 91.0961 6.92125 90.4387C7.19354 89.7813 7.26478 89.058 7.12597 88.3601C6.98715 87.6622 6.64452 87.0212 6.1414 86.5181C5.63827 86.0149 4.99725 85.6723 4.29939 85.5335C3.60154 85.3947 2.87819 85.4659 2.22082 85.7382C1.56346 86.0105 1.0016 86.4716 0.606296 87.0632C0.210992 87.6549 0 88.3504 0 89.062C0 90.0161 0.379026 90.9312 1.0537 91.6059C1.72837 92.2805 2.64342 92.6596 3.59755 92.6596Z" fill="url(#paint3_linear_2194_12478)"/>
</g>
<g opacity="0.272">
<path d="M170.19 34.9489C175.597 30.8751 176.678 23.1896 172.604 17.7828C168.53 12.3759 160.845 11.2952 155.438 15.369C150.031 19.4427 148.951 27.1282 153.024 32.5351C157.098 37.9419 164.784 39.0226 170.19 34.9489Z" fill="url(#paint4_linear_2194_12478)"/>
<path d="M169.566 39.7005C169.516 39.902 169.407 40.084 169.254 40.2235C169.1 40.3631 168.908 40.454 168.703 40.4846C168.498 40.5153 168.288 40.4844 168.1 40.3958C167.912 40.3073 167.755 40.165 167.648 39.9871C167.541 39.8091 167.49 39.6035 167.5 39.3961C167.51 39.1888 167.581 38.989 167.704 38.8222C167.828 38.6553 167.998 38.5288 168.193 38.4587C168.389 38.3885 168.6 38.3779 168.802 38.4281C169.072 38.4955 169.304 38.6674 169.448 38.906C169.591 39.1446 169.634 39.4304 169.566 39.7005Z" fill="url(#paint5_linear_2194_12478)"/>
<path d="M165.22 40.2012C165.186 40.3388 165.111 40.4632 165.006 40.5585C164.901 40.6539 164.77 40.716 164.63 40.7369C164.49 40.7579 164.347 40.7368 164.218 40.6763C164.09 40.6157 163.983 40.5185 163.909 40.397C163.836 40.2754 163.801 40.1349 163.808 39.9932C163.815 39.8515 163.863 39.7151 163.948 39.601C164.032 39.487 164.148 39.4006 164.282 39.3527C164.415 39.3048 164.56 39.2975 164.698 39.3318C164.882 39.3779 165.041 39.4953 165.139 39.6583C165.237 39.8214 165.266 40.0167 165.22 40.2012Z" fill="url(#paint6_linear_2194_12478)"/>
<path d="M172.043 13.9401C171.833 14.0987 171.58 14.1913 171.317 14.2062C171.054 14.2211 170.792 14.1577 170.565 14.024C170.338 13.8902 170.156 13.6921 170.042 13.4548C169.927 13.2175 169.886 12.9515 169.922 12.6906C169.959 12.4297 170.072 12.1855 170.248 11.9889C170.423 11.7924 170.653 11.6522 170.908 11.5863C171.163 11.5203 171.432 11.5315 171.681 11.6184C171.93 11.7053 172.147 11.864 172.306 12.0744C172.518 12.3566 172.61 12.7117 172.561 13.0616C172.512 13.4115 172.326 13.7275 172.043 13.9401Z" fill="url(#paint7_linear_2194_12478)"/>
</g>
<path d="M100.98 130.14C136.641 130.14 165.549 101.231 165.549 65.5701C165.549 29.909 136.641 1 100.98 1C65.3197 1 36.4111 29.909 36.4111 65.5701C36.4111 101.231 65.3197 130.14 100.98 130.14Z" fill="#F6F2ED"/>
<path d="M100.979 129.225C136.134 129.225 164.632 100.726 164.632 65.5703C164.632 30.415 136.134 1.91602 100.979 1.91602C65.8246 1.91602 37.3262 30.415 37.3262 65.5703C37.3262 100.726 65.8246 129.225 100.979 129.225Z" stroke="#2F4F4F" stroke-width="2"/>
<path d="M160.766 66.2125C160.778 74.1285 159.215 81.9677 156.167 89.2735C153.12 96.5793 148.649 103.206 143.015 108.766C137.516 114.244 130.988 118.58 123.807 121.525C116.625 124.471 108.933 125.968 101.171 125.929C89.3557 125.952 77.799 122.47 67.9636 115.922C58.1283 109.374 50.4564 100.056 45.9189 89.1464C41.3813 78.2368 40.1822 66.2263 42.4731 54.6349C44.7641 43.0435 50.4422 32.3921 58.7888 24.0291C67.1354 15.666 77.7754 9.96715 89.3621 7.65356C100.949 5.33996 112.961 6.51569 123.88 11.032C134.798 15.5483 144.131 23.2022 150.698 33.025C157.264 42.8477 160.77 54.3977 160.77 66.2134L160.766 66.2125Z" fill="url(#paint8_linear_2194_12478)"/>
<path d="M100.979 107.243C123.994 107.243 142.651 88.5852 142.651 65.5699C142.651 42.5546 123.994 23.897 100.979 23.897C77.9639 23.897 59.3066 42.5546 59.3066 65.5699C59.3066 88.5852 77.9639 107.243 100.979 107.243Z" fill="#F6F2ED"/>
<path d="M100.978 106.327C123.487 106.327 141.734 88.0795 141.734 65.57C141.734 43.0605 123.487 24.813 100.978 24.813C78.4689 24.813 60.2217 43.0605 60.2217 65.57C60.2217 88.0795 78.4689 106.327 100.978 106.327Z" stroke="#2F4F4F" stroke-width="2"/>
<path d="M100.986 89.8104C96.279 89.8104 91.678 88.4147 87.7646 85.7998C83.8512 83.1849 80.8011 79.4682 78.9999 75.1198C77.1988 70.7714 76.7275 65.9865 77.6457 61.3702C78.564 56.7539 80.8304 52.5136 84.1585 49.1855C87.4866 45.8573 91.7268 43.5908 96.343 42.6726C100.959 41.7544 105.744 42.2256 110.092 44.0268C114.441 45.828 118.157 48.8782 120.772 52.7917C123.387 56.7052 124.783 61.3062 124.783 66.0129C124.772 72.3211 122.261 78.3679 117.801 82.8285C113.34 87.2891 107.294 89.7997 100.986 89.8104ZM100.986 43.7256C96.5777 43.7256 92.2687 45.0328 88.6037 47.4817C84.9386 49.9307 82.0821 53.4115 80.3952 57.4839C78.7084 61.5564 78.2671 66.0376 79.127 70.3609C79.9869 74.6842 82.1096 78.6554 85.2264 81.7723C88.3433 84.8892 92.3144 87.0119 96.6377 87.8719C100.961 88.7318 105.442 88.2905 109.514 86.6036C113.587 84.9167 117.068 82.0601 119.516 78.395C121.965 74.7299 123.272 70.4209 123.272 66.0129C123.273 63.086 122.696 60.1877 121.576 57.4836C120.457 54.7795 118.815 52.3225 116.745 50.2529C114.676 48.1833 112.219 46.5416 109.515 45.4217C106.811 44.3017 103.912 43.7254 100.986 43.7256Z" fill="#2F4F4F"/>
<path d="M100.983 87.202C100.479 87.202 99.9752 87.202 99.4257 87.1562L99.5173 85.6908C100.25 85.7366 100.983 85.7366 101.715 85.7366L101.761 87.202H100.983ZM103.364 87.1104L103.181 85.645C103.639 85.5992 104.141 85.5076 104.599 85.416L104.874 86.8814C104.369 86.973 103.866 87.0188 103.362 87.1104H103.364ZM97.9181 87.0188L96.4079 86.744L96.7284 85.2786C97.1864 85.3702 97.6443 85.4618 98.1471 85.5534L97.9181 87.0188ZM106.384 86.5151L106.018 85.0964L107.392 84.6842L107.896 86.1029C107.344 86.2403 106.84 86.3777 106.383 86.5151H106.384ZM94.8976 86.3319C94.3939 86.1945 93.9368 86.0113 93.4322 85.8282L93.9817 84.4543C94.4397 84.6375 94.8976 84.7749 95.3555 84.9123L94.8976 86.3319ZM109.268 85.5076L108.672 84.1338C109.13 83.9506 109.541 83.7216 109.955 83.5384L110.641 84.8656C110.196 85.1074 109.737 85.3221 109.266 85.5085L109.268 85.5076ZM92.0602 85.2328L90.6864 84.5459L91.4191 83.2637C91.8323 83.5046 92.2606 83.7188 92.7013 83.9048L92.0602 85.2328ZM112.013 84.1338L111.236 82.8515C111.65 82.6191 112.047 82.3594 112.426 82.0739L113.296 83.2646C112.881 83.5861 112.424 83.8608 112.012 84.1356L112.013 84.1338ZM89.3602 83.7216C88.9481 83.4468 88.4911 83.1263 88.1247 82.8524L89.0406 81.6618C89.4069 81.9365 89.8182 82.2113 90.1845 82.4861L89.3602 83.7216ZM114.484 82.3478L113.524 81.2038C113.89 80.8833 114.256 80.5627 114.576 80.2431L115.583 81.2954C115.251 81.6813 114.882 82.0346 114.483 82.3505L114.484 82.3478ZM86.935 81.844C86.5687 81.5235 86.2023 81.1571 85.836 80.7917L86.8883 79.7393C87.2089 80.0599 87.5752 80.4262 87.9406 80.7468L86.935 81.844ZM116.727 80.1954L115.628 79.188C115.949 78.8216 116.269 78.4552 116.544 78.0889L117.735 79.0048C117.412 79.4215 117.045 79.8337 116.726 80.2L116.727 80.1954ZM84.7845 79.6459C84.464 79.2338 84.1434 78.8683 83.8238 78.4552L85.0144 77.5861C85.2892 77.9524 85.6097 78.3637 85.8836 78.73L84.7845 79.6459ZM118.604 77.7692L117.369 76.945C117.643 76.5328 117.872 76.1206 118.101 75.7094L119.383 76.4421C119.15 76.9016 118.889 77.3463 118.601 77.7738L118.604 77.7692ZM82.9537 77.1739C82.6789 76.7618 82.45 76.3047 82.1761 75.8468L83.5032 75.1599C83.7322 75.572 83.9612 75.9842 84.2359 76.3954L82.9537 77.1739ZM120.113 75.1141L118.786 74.473C118.997 74.0425 119.18 73.5992 119.336 73.1458L120.71 73.6954C120.55 74.1858 120.35 74.6621 120.112 75.1196L120.113 75.1141ZM81.535 74.4272C81.3518 73.9692 81.1229 73.4664 80.9855 73.0085L82.4042 72.5047C82.5443 72.9571 82.7126 73.4004 82.9079 73.8318L81.535 74.4272ZM121.258 72.229L119.84 71.7711C119.977 71.3132 120.114 70.8552 120.206 70.3973L121.671 70.7178L121.258 72.229ZM80.5285 71.5421C80.3911 71.0384 80.2995 70.5346 80.1621 70.0318L81.6275 69.7571C81.7191 70.215 81.8107 70.6729 81.9481 71.1309L80.5285 71.5421ZM121.944 69.2524L120.479 69.0234C120.57 68.5655 120.616 68.0627 120.662 67.6047L122.127 67.7421C122.08 68.2092 121.988 68.7587 121.942 69.2625L121.944 69.2524ZM79.9332 68.5197L79.7958 67.0094L81.2612 66.9636C81.2615 67.4398 81.3075 67.9149 81.3986 68.3823L79.9332 68.5197ZM122.173 66.186H120.708V66.0486C120.715 65.6207 120.7 65.1927 120.662 64.7664L122.127 64.6748C122.173 65.1327 122.173 65.5907 122.173 66.0486V66.186ZM81.2593 65.5092L79.7939 65.4634C79.7939 64.9596 79.8397 64.4559 79.8855 63.9064L81.3509 64.0437C81.3042 64.5484 81.3042 65.0521 81.2593 65.5092ZM120.479 63.311C120.433 62.8531 120.341 62.3503 120.25 61.8923L121.715 61.5718L121.99 63.0821L120.479 63.311ZM81.5799 62.6699L80.1145 62.3952C80.2061 61.8914 80.2977 61.3877 80.4351 60.8849L81.8537 61.2512C81.7622 61.711 81.6257 62.2147 81.579 62.6717L81.5799 62.6699ZM119.884 60.5194C119.747 60.0615 119.61 59.6035 119.426 59.1456L120.8 58.6418C120.983 59.0998 121.121 59.6026 121.304 60.1073L119.884 60.5194ZM82.2668 59.8783L80.8481 59.4203C80.9908 58.9176 81.1746 58.4275 81.3976 57.9549L82.7714 58.5045C82.5855 58.9651 82.4023 59.4231 82.2668 59.8801V59.8783ZM118.924 57.8185C118.741 57.4063 118.512 56.9493 118.283 56.5362L119.565 55.8035L120.252 57.1773L118.924 57.8185ZM83.3658 57.2259L82.0387 56.539C82.2677 56.081 82.4967 55.6231 82.7714 55.1651L84.0537 55.9427C83.7985 56.356 83.5688 56.7845 83.3658 57.2259ZM117.552 55.3492C117.277 54.9371 117.002 54.5716 116.727 54.1586L117.918 53.2427C118.234 53.6518 118.524 54.0801 118.787 54.5249L117.552 55.3492ZM84.8312 54.8006L83.5957 53.9314C83.8705 53.5193 84.191 53.1071 84.5116 52.6959L85.6555 53.6118C85.3808 54.0221 85.0565 54.3885 84.8312 54.8006ZM115.813 53.0604C115.493 52.6941 115.172 52.3735 114.853 52.0081L115.905 50.9557C116.271 51.3221 116.638 51.6884 116.957 52.0548L115.813 53.0604ZM86.6163 52.5567L85.5172 51.5492L86.6163 50.4501L87.6237 51.5492C87.2537 51.8716 86.9332 52.2379 86.6126 52.5585L86.6163 52.5567ZM113.754 51.0464C113.388 50.7258 113.022 50.4511 112.655 50.1772L113.525 48.9865C113.937 49.3071 114.349 49.6277 114.715 49.9473L113.754 51.0464ZM88.7182 50.6397L87.8023 49.4958C88.2145 49.1752 88.6266 48.8547 89.0378 48.5799L89.8621 49.8154C89.4524 50.0484 89.0689 50.3248 88.7182 50.6397ZM111.463 49.3575C111.051 49.0827 110.639 48.8537 110.227 48.6248L110.914 47.2976C111.372 47.5296 111.815 47.7893 112.241 48.0752L111.463 49.3575ZM91.0518 48.9911L90.3191 47.7089C90.7771 47.4341 91.235 47.2051 91.693 46.9762L92.3341 48.3033C91.8752 48.5332 91.464 48.7594 91.0518 48.9911ZM108.945 47.9837C108.533 47.8005 108.076 47.6173 107.618 47.4341L108.122 46.0154C108.606 46.1861 109.08 46.3848 109.541 46.6107L108.945 47.9837ZM93.6145 47.7547L93.0649 46.3808C93.5435 46.1855 94.0328 46.0173 94.5303 45.8771L94.9883 47.2958C94.5175 47.4066 94.0577 47.5596 93.6145 47.7528V47.7547ZM106.245 47.022C105.787 46.8846 105.329 46.793 104.871 46.7014L105.146 45.236C105.65 45.3276 106.154 45.465 106.656 45.6023L106.245 47.022ZM96.3602 46.8846L95.9939 45.4192C96.4976 45.2818 97.0014 45.1902 97.5042 45.0986L97.7331 46.564C97.2752 46.6547 96.8182 46.7463 96.3602 46.8846ZM103.454 46.4724C102.996 46.4266 102.493 46.3808 102.035 46.335L102.127 44.8696L103.637 45.007L103.454 46.4724ZM99.1491 46.4266L99.0117 44.9612C99.5154 44.9154 100.019 44.8696 100.569 44.8696L100.614 46.335C100.113 46.335 99.6556 46.3799 99.1518 46.4266H99.1491Z" fill="#2F4F4F"/>
<path d="M101 57C96.0372 57 92 61.0372 92 66C92 70.9628 96.0372 75 101 75C105.963 75 110 70.9628 110 66C110 61.0372 105.963 57 101 57ZM104.314 68.2537C104.607 68.547 104.607 69.021 104.314 69.3143C104.245 69.384 104.162 69.4394 104.071 69.4771C103.98 69.5148 103.882 69.5341 103.784 69.534C103.592 69.534 103.4 69.4605 103.254 69.3143L101 67.0605L98.7463 69.3143C98.6767 69.3841 98.5941 69.4394 98.5031 69.4771C98.4121 69.5148 98.3145 69.5341 98.216 69.534C98.1175 69.5342 98.02 69.5148 97.929 69.4771C97.838 69.4394 97.7553 69.3841 97.6857 69.3143C97.3925 69.021 97.3925 68.547 97.6857 68.2537L99.9395 66L97.6857 63.7463C97.3925 63.453 97.3925 62.979 97.6857 62.6857C97.979 62.3925 98.453 62.3925 98.7463 62.6857L101 64.9395L103.254 62.6857C103.547 62.3925 104.021 62.3925 104.314 62.6857C104.607 62.979 104.607 63.453 104.314 63.7463L102.06 66L104.314 68.2537Z" fill="#2F4F4F"/>
<defs>
<linearGradient id="paint0_linear_2194_12478" x1="41.7501" y1="68.7476" x2="41.7501" y2="134.974" gradientUnits="userSpaceOnUse">
<stop stop-color="#58A4A4"/>
<stop offset="1" stop-color="#073E39"/>
</linearGradient>
<linearGradient id="paint1_linear_2194_12478" x1="54.4008" y1="139.8" x2="50.8272" y2="144.213" gradientUnits="userSpaceOnUse">
<stop stop-color="#58A4A4"/>
<stop offset="1" stop-color="#073E39"/>
</linearGradient>
<linearGradient id="paint2_linear_2194_12478" x1="63.4556" y1="135.21" x2="61.0175" y2="138.221" gradientUnits="userSpaceOnUse">
<stop stop-color="#58A4A4"/>
<stop offset="1" stop-color="#073E39"/>
</linearGradient>
<linearGradient id="paint3_linear_2194_12478" x1="3.59755" y1="85.4644" x2="3.59755" y2="92.6596" gradientUnits="userSpaceOnUse">
<stop stop-color="#58A4A4"/>
<stop offset="1" stop-color="#073E39"/>
</linearGradient>
<linearGradient id="paint4_linear_2194_12478" x1="155.438" y1="15.369" x2="170.191" y2="34.9486" gradientUnits="userSpaceOnUse">
<stop stop-color="#58A4A4"/>
<stop offset="1" stop-color="#073E39"/>
</linearGradient>
<linearGradient id="paint5_linear_2194_12478" x1="169.566" y1="39.7005" x2="167.53" y2="39.1926" gradientUnits="userSpaceOnUse">
<stop stop-color="#58A4A4"/>
<stop offset="1" stop-color="#073E39"/>
</linearGradient>
<linearGradient id="paint6_linear_2194_12478" x1="165.22" y1="40.2012" x2="163.828" y2="39.8541" gradientUnits="userSpaceOnUse">
<stop stop-color="#58A4A4"/>
<stop offset="1" stop-color="#073E39"/>
</linearGradient>
<linearGradient id="paint7_linear_2194_12478" x1="170.44" y1="11.8121" x2="172.043" y2="13.9401" gradientUnits="userSpaceOnUse">
<stop stop-color="#58A4A4"/>
<stop offset="1" stop-color="#073E39"/>
</linearGradient>
<linearGradient id="paint8_linear_2194_12478" x1="101.055" y1="6.49756" x2="101.055" y2="125.93" gradientUnits="userSpaceOnUse">
<stop stop-color="#58A4A4"/>
<stop offset="1" stop-color="#073E39"/>
</linearGradient>
</defs>
</svg>
