<svg xmlns="http://www.w3.org/2000/svg" width="278.027" height="214.833" viewBox="0 0 278.027 214.833">
  <g id="illustration" transform="translate(-52 -373)">
    <g id="background" transform="translate(0.063 150.001)">
      <circle id="Ellipse_1999" data-name="Ellipse 1999" cx="100.777" cy="100.777" r="100.777" transform="translate(83.279 222.999)" fill="#073b36" opacity="0.26"/>
      <path id="Path_25534" data-name="Path 25534" d="M122.53,21.4a5.9,5.9,0,1,0-5.9-5.9A5.9,5.9,0,0,0,122.53,21.4Z" transform="translate(189.572 307.115)" fill="#073b36" opacity="0.2"/>
      <g id="Group_41131" data-name="Group 41131" transform="translate(57.255 62.5)">
        <g id="Group_40642" data-name="Group 40642" transform="translate(47.898 362.053)">
          <g id="Group_40641" data-name="Group 40641">
            <rect id="Rectangle_7701" data-name="Rectangle 7701" width="1.822" height="3.536" fill="#508b82"/>
          </g>
        </g>
        <g id="Group_40644" data-name="Group 40644" transform="translate(47.898 371.796)">
          <g id="Group_40643" data-name="Group 40643" transform="translate(0 0)">
            <rect id="Rectangle_7702" data-name="Rectangle 7702" width="1.822" height="3.536" fill="#508b82"/>
          </g>
        </g>
        <g id="Group_40646" data-name="Group 40646" transform="translate(51.913 367.782)">
          <g id="Group_40645" data-name="Group 40645">
            <rect id="Rectangle_7703" data-name="Rectangle 7703" width="3.536" height="1.822" fill="#508b82"/>
          </g>
        </g>
        <g id="Group_40648" data-name="Group 40648" transform="translate(42.17 367.782)">
          <g id="Group_40647" data-name="Group 40647">
            <rect id="Rectangle_7704" data-name="Rectangle 7704" width="3.536" height="1.822" fill="#508b82"/>
          </g>
        </g>
      </g>
      <g id="Group_40650" data-name="Group 40650" transform="translate(51.937 266.141)">
        <g id="Group_40649" data-name="Group 40649">
          <circle id="Ellipse_2034" data-name="Ellipse 2034" cx="3.612" cy="3.612" r="3.612" fill="#508b82"/>
        </g>
      </g>
      <g id="Group_40652" data-name="Group 40652" transform="translate(65.527 320.894)">
        <g id="Group_40651" data-name="Group 40651">
          <circle id="Ellipse_2035" data-name="Ellipse 2035" cx="2.865" cy="2.865" r="2.865" fill="#508b82"/>
        </g>
      </g>
      <g id="Group_40656" data-name="Group 40656" transform="translate(323.563 331.07)">
        <g id="Group_40655" data-name="Group 40655">
          <circle id="Ellipse_2037" data-name="Ellipse 2037" cx="3.201" cy="3.201" r="3.201" fill="#508b82"/>
        </g>
      </g>
      <g id="Group_41157" data-name="Group 41157" transform="translate(274.527 239.751)">
        <g id="Group_40651-2" data-name="Group 40651">
          <circle id="Ellipse_2035-2" data-name="Ellipse 2035" cx="2.865" cy="2.865" r="2.865" fill="#508b82"/>
        </g>
      </g>
    </g>
    <g id="LEDGER" transform="translate(86.374 344.267)">
      <g id="Group_51593" data-name="Group 51593" transform="translate(112.057 140.705)">
        <g id="Group_51592" data-name="Group 51592">
          <path id="Path_205773" data-name="Path 205773" d="M292.893,285.835l-4.543,10.012h-.006l-1.905,4.2-2.767,6.1v.006h6.163v-.006l1.821-4.031.421-.92,2.423-5.346,4.555-10.013,18.2-18.073v-6.111Z" transform="translate(-283.672 -261.651)" fill="#508b82"/>
        </g>
      </g>
      <g id="Group_51595" data-name="Group 51595" transform="translate(52.862 85.463)">
        <g id="Group_51594" data-name="Group 51594">
          <path id="Path_205774" data-name="Path 205774" d="M133.82,121.805v100h9.064v-91.5l64.278,0v-8.5Z" transform="translate(-133.82 -121.805)" fill="#508b82"/>
        </g>
      </g>
      <g id="Group_51597" data-name="Group 51597" transform="translate(36.573 70.633)">
        <g id="Group_51596" data-name="Group 51596" transform="translate(0 0)">
          <path id="Path_205775" data-name="Path 205775" d="M92.585,84.263v100h9.064v-91.5l64.278,0v-8.5Z" transform="translate(-92.585 -84.263)" fill="#b2d0cb"/>
        </g>
      </g>
      <g id="Group_51600" data-name="Group 51600" transform="translate(60.951 92.99)">
        <g id="Group_51599" data-name="Group 51599" transform="translate(0 0)">
          <g id="Group_51598" data-name="Group 51598">
            <path id="Path_205776" data-name="Path 205776" d="M239.674,195.376a.97.97,0,0,0,.287-.69V141.833a.972.972,0,0,0-.972-.972h-83.72a.972.972,0,0,0-.972.972V252.2a.972.972,0,0,0,.972.972h83.72a.973.973,0,0,0,.972-.972V216.914a.972.972,0,0,0-1.657-.69l-6.952,6.9-17.84,8.1,8.085-17.9ZM219.9,212.361l-9.221,20.413a.973.973,0,0,0,1.288,1.285l20.348-9.234a.967.967,0,0,0,.283-.2l5.42-5.381v31.979H156.241V142.8h81.776v51.477L220.1,212.071A.969.969,0,0,0,219.9,212.361Z" transform="translate(-154.297 -140.861)" fill="#f2ede6"/>
          </g>
        </g>
      </g>
      <g id="Group_51603" data-name="Group 51603" transform="translate(44.758 77.359)">
        <g id="Group_51602" data-name="Group 51602">
          <g id="Group_51601" data-name="Group 51601">
            <path id="Path_205777" data-name="Path 205777" d="M197.99,101.291H114.277a.972.972,0,0,0-.972.972V212.631a.972.972,0,0,0,.972.972h16.194a.972.972,0,0,0,.972-.972V118.866H197.99a.972.972,0,0,0,.972-.972V102.263A.972.972,0,0,0,197.99,101.291Zm-.972,15.631H130.471a.972.972,0,0,0-.972.972v93.765h-14.25V103.235h81.769v13.687Z" transform="translate(-113.305 -101.291)" fill="#f2ede6"/>
          </g>
        </g>
      </g>
      <g id="Group_51606" data-name="Group 51606" transform="translate(28.541 61.733)">
        <g id="Group_51605" data-name="Group 51605" transform="translate(0 0)">
          <g id="Group_51604" data-name="Group 51604">
            <path id="Path_205778" data-name="Path 205778" d="M156.936,61.733H73.223a.972.972,0,0,0-.972.972V173.072a.972.972,0,0,0,.972.972H89.417a.972.972,0,0,0,.972-.972V79.307h66.547a.972.972,0,0,0,.972-.972V62.705A.972.972,0,0,0,156.936,61.733Zm-.972,15.63H89.417a.972.972,0,0,0-.972.972V172.1H74.2V63.677h81.769V77.363Z" transform="translate(-72.251 -61.733)" fill="#f2ede6"/>
          </g>
        </g>
      </g>
      <g id="Group_51617" data-name="Group 51617" transform="translate(92.876 158.86)">
        <g id="Group_51616" data-name="Group 51616" transform="translate(0 0)">
          <g id="Group_51615" data-name="Group 51615">
            <path id="Path_205779" data-name="Path 205779" d="M251.175,324.178a4.753,4.753,0,0,0-.869-9.425H248.32V307.61h-2.828v7.142H243.7V307.61h-2.837v7.142h-5.747v3.056h2.123a1.138,1.138,0,0,1,1.309,1.281v12.427a1.146,1.146,0,0,1-1.309,1.29h-2.123v3.057h5.747v6.664H243.7v-6.709h1.794v6.709h2.828v-6.709h2.791a5.82,5.82,0,0,0,.064-11.641ZM243.7,318h3.13a2.8,2.8,0,1,1,0,5.6H243.7Zm6.552,13.681a3.029,3.029,0,0,1-2.151.888h-4.4v-6.076h4.4a3.041,3.041,0,0,1,2.151,5.189Z" transform="translate(-235.115 -307.61)" fill="#f2ede6"/>
          </g>
        </g>
      </g>
      <g id="Group_51619" data-name="Group 51619" transform="translate(118.22 174.9)">
        <g id="Group_51618" data-name="Group 51618" transform="translate(0 0)">
          <path id="Path_205780" data-name="Path 205780" d="M307.861,350.682a10.285,10.285,0,0,0-3.919-2.468l-4.669,10.3,10.679-4.8A10.2,10.2,0,0,0,307.861,350.682Z" transform="translate(-299.273 -348.214)" fill="#508b82"/>
        </g>
      </g>
      <g id="Group_51622" data-name="Group 51622" transform="translate(126.468 135.774)">
        <g id="Group_51621" data-name="Group 51621" transform="translate(0 0)">
          <g id="Group_51620" data-name="Group 51620">
            <path id="Path_205781" data-name="Path 205781" d="M361.289,260.632l-11.128-11.18a.975.975,0,0,0-1.374,0L320.44,277.592a.967.967,0,0,0-.287.687.977.977,0,0,0,.283.689l11.127,11.179a.972.972,0,0,0,1.374,0l28.348-28.143a.972.972,0,0,0,0-1.375Zm-29.033,27.456-9.755-9.8,26.967-26.774,9.756,9.8Z" transform="translate(-320.153 -249.167)" fill="#f2ede6"/>
          </g>
        </g>
      </g>
      <g id="Group_51624" data-name="Group 51624" transform="translate(133.873 143.18)">
        <g id="Group_51623" data-name="Group 51623" transform="translate(0 0)">
          <path id="Path_205782" data-name="Path 205782" d="M360.8,267.917l-21.9,21.724,4.708,4.73,21.9-21.724Z" transform="translate(-338.899 -267.917)" fill="#b2d0cb"/>
        </g>
      </g>
      <g id="Group_51627" data-name="Group 51627" transform="translate(154.815 129.659)">
        <g id="Group_51626" data-name="Group 51626" transform="translate(0 0)">
          <g id="Group_51625" data-name="Group 51625">
            <path id="Path_205783" data-name="Path 205783" d="M409.223,238.842l-3.2-3.219a6.6,6.6,0,0,0-9.317-.021l-4.5,4.482a.973.973,0,0,0,0,1.375l11.128,11.18a.974.974,0,0,0,.687.286h0a.976.976,0,0,0,.686-.283l4.5-4.482a6.589,6.589,0,0,0,.021-9.318Zm-1.394,7.94-3.814,3.8-9.757-9.8,3.814-3.8a4.65,4.65,0,0,1,6.568.015l3.2,3.219A4.649,4.649,0,0,1,407.829,246.782Z" transform="translate(-391.913 -233.687)" fill="#f2ede6"/>
          </g>
        </g>
      </g>
      <g id="Group_51630" data-name="Group 51630" transform="translate(136.1 78.867)">
        <g id="Group_51629" data-name="Group 51629">
          <g id="Group_51628" data-name="Group 51628">
            <path id="Path_205784" data-name="Path 205784" d="M348.325,105.907l.532,1.869c.593-.168,1.2-.309,1.8-.418l-.347-1.913C349.647,105.566,348.978,105.721,348.325,105.907Zm-3.788,1.492.885,1.731c.548-.28,1.114-.535,1.685-.76l-.713-1.809C345.765,106.809,345.14,107.09,344.537,107.4Zm11.861-2.165-.211,1.933c.612.066,1.227.164,1.825.289l.4-1.9C357.749,105.415,357.072,105.307,356.4,105.234Zm-4.068-.054.161,1.938c.526-.044,1.06-.066,1.588-.066l.262,0,.026-1.944-.289,0C353.5,105.108,352.909,105.132,352.33,105.18Zm17.641,10.354,1.615-1.082c-.376-.563-.785-1.112-1.215-1.635l-1.5,1.234C369.258,114.525,369.629,115.024,369.971,115.534Zm3.23,10.453,1.944-.019c-.006-.68-.046-1.364-.117-2.033l-1.933.205C373.159,124.747,373.195,125.369,373.2,125.987Zm-.389-3.675,1.9-.39c-.136-.664-.307-1.328-.507-1.975l-1.857.575C372.533,121.108,372.688,121.711,372.812,122.313Zm-1.09-3.528,1.793-.751c-.261-.623-.556-1.242-.879-1.839l-1.711.923C371.217,117.66,371.485,118.221,371.722,118.785ZM369,111.307c-.477-.479-.984-.941-1.505-1.372l-1.239,1.5c.474.391.933.811,1.367,1.245Zm1.17,25.192,1.635,1.051c.367-.57.708-1.163,1.017-1.763L371.1,134.9C370.818,135.443,370.507,135.982,370.175,136.5Zm1.688-3.284,1.808.718c.249-.629.471-1.277.657-1.929l-1.868-.537C372.289,132.058,372.089,132.646,371.862,133.215Zm-3.976,6.184,1.4,1.345c.467-.488.916-1,1.337-1.535L369.1,138C368.72,138.487,368.311,138.956,367.886,139.4Zm5-9.731,1.912.352c.122-.666.214-1.345.272-2.018l-1.936-.167C373.077,128.446,372.994,129.063,372.882,129.669Zm-12.5-23.6-.579,1.855c.584.183,1.168.4,1.733.637l.76-1.79C361.669,106.5,361.025,106.268,360.38,106.066Zm1.494,37.569.792,1.774c.618-.276,1.23-.585,1.818-.92l-.961-1.69C362.99,143.1,362.435,143.385,361.875,143.635Zm-3.5,1.172.434,1.895c.661-.151,1.322-.337,1.963-.552l-.619-1.843C359.569,144.5,358.97,144.67,358.371,144.807Zm5.757-37.152-.928,1.709c.536.291,1.068.615,1.58.96l1.089-1.61C365.305,108.333,364.72,107.977,364.128,107.655Zm.956,34.153,1.12,1.588c.555-.39,1.1-.812,1.606-1.252l-1.268-1.473C366.078,141.07,365.587,141.453,365.084,141.808Z" transform="translate(-344.537 -105.108)" fill="#b2d0cb"/>
          </g>
        </g>
      </g>
      <g id="Group_51633" data-name="Group 51633" transform="translate(25.056 175.587)">
        <g id="Group_51632" data-name="Group 51632" transform="translate(0 0)">
          <g id="Group_51631" data-name="Group 51631">
            <path id="Path_205785" data-name="Path 205785" d="M65.488,366.409l-1.933-.214c-.075.675-.117,1.359-.125,2.034l1.944.024C65.382,367.642,65.421,367.022,65.488,366.409Zm2.41,15.084c.417.534.866,1.053,1.333,1.543l1.406-1.341c-.423-.444-.83-.914-1.208-1.4Zm-.45-4.315-1.734.879c.3.6.643,1.2,1.008,1.771l1.642-1.042C68.032,378.264,67.725,377.723,67.448,377.178ZM65.439,370.1l-1.936.164c.057.675.148,1.354.269,2.019l1.912-.35C65.574,371.33,65.491,370.714,65.439,370.1Zm.809-7.3-1.854-.582c-.2.645-.376,1.308-.516,1.97l1.9.4C65.906,363.984,66.064,363.383,66.248,362.8Zm6.124-9.074-1.234-1.5c-.523.43-1.031.89-1.51,1.368L71,354.964C71.436,354.53,71.9,354.112,72.372,353.722Zm-2.615,2.61-1.5-1.236c-.432.523-.842,1.073-1.219,1.633l1.612,1.086C68.993,357.306,69.365,356.807,69.757,356.332ZM67.69,359.4l-1.709-.928c-.323.595-.62,1.212-.884,1.835l1.79.758C67.127,360.5,67.4,359.936,67.69,359.4ZM66.1,373.737l-1.871.53c.185.653.4,1.3.649,1.93l1.811-.707C66.471,374.919,66.272,374.33,66.1,373.737Zm26.657,12.035.839,1.754c.612-.293,1.216-.619,1.793-.969l-1.006-1.663C93.864,385.211,93.316,385.507,92.761,385.772Zm-3.215,1.2-.257.068.487,1.882.284-.075c.559-.153,1.118-.33,1.661-.529l-.664-1.827C90.564,386.668,90.056,386.829,89.547,386.968Zm-3.907.647.117,1.94c.673-.041,1.355-.115,2.026-.222l-.3-1.92C86.868,387.511,86.249,387.579,85.64,387.616Zm11.7-4.931c-.45.411-.929.807-1.424,1.178l1.165,1.557c.546-.409,1.074-.845,1.571-1.3Zm-26.64,1.758c.51.44,1.049.864,1.6,1.257l1.125-1.586c-.5-.357-.993-.741-1.456-1.142Zm3.817-34.488c-.594.319-1.182.672-1.746,1.05l1.08,1.616c.514-.343,1.047-.664,1.586-.954Zm-.5,36.842c.59.338,1.2.65,1.814.927l.8-1.772c-.556-.251-1.11-.535-1.647-.843Zm7.665,2.609c.669.091,1.353.149,2.03.175l.072-1.943c-.614-.023-1.234-.076-1.841-.158Zm-3.959-.933c.64.218,1.3.407,1.957.563l.447-1.892c-.6-.141-1.2-.313-1.777-.511Z" transform="translate(-63.43 -349.954)" fill="#508b82"/>
          </g>
        </g>
      </g>
      <g id="Group_51635" data-name="Group 51635" transform="translate(5.43 141.522)">
        <g id="Group_51634" data-name="Group 51634">
          <rect id="Rectangle_9674" data-name="Rectangle 9674" width="1.944" height="3.41" fill="#508b82"/>
        </g>
      </g>
      <g id="Group_51637" data-name="Group 51637" transform="translate(5.43 150.918)">
        <g id="Group_51636" data-name="Group 51636" transform="translate(0 0)">
          <rect id="Rectangle_9675" data-name="Rectangle 9675" width="1.944" height="3.41" fill="#508b82"/>
        </g>
      </g>
      <g id="Group_51639" data-name="Group 51639" transform="translate(9.396 146.953)">
        <g id="Group_51638" data-name="Group 51638">
          <rect id="Rectangle_9676" data-name="Rectangle 9676" width="3.41" height="1.944" fill="#508b82"/>
        </g>
      </g>
      <g id="Group_51641" data-name="Group 51641" transform="translate(0 146.954)">
        <g id="Group_51640" data-name="Group 51640" transform="translate(0 0)">
          <rect id="Rectangle_9677" data-name="Rectangle 9677" width="3.41" height="1.944" fill="#508b82"/>
        </g>
      </g>
      <g id="Group_51643" data-name="Group 51643" transform="translate(189.811 111.792)">
        <g id="Group_51642" data-name="Group 51642">
          <rect id="Rectangle_9678" data-name="Rectangle 9678" width="1.944" height="3.41" fill="#508b82"/>
        </g>
      </g>
      <g id="Group_51645" data-name="Group 51645" transform="translate(189.811 121.188)">
        <g id="Group_51644" data-name="Group 51644">
          <rect id="Rectangle_9679" data-name="Rectangle 9679" width="1.944" height="3.41" fill="#508b82"/>
        </g>
      </g>
      <g id="Group_51647" data-name="Group 51647" transform="translate(193.776 117.223)">
        <g id="Group_51646" data-name="Group 51646">
          <rect id="Rectangle_9680" data-name="Rectangle 9680" width="3.41" height="1.944" fill="#508b82"/>
        </g>
      </g>
      <g id="Group_51649" data-name="Group 51649" transform="translate(184.38 117.223)">
        <g id="Group_51648" data-name="Group 51648">
          <rect id="Rectangle_9681" data-name="Rectangle 9681" width="3.41" height="1.944" fill="#508b82"/>
        </g>
      </g>
      <g id="Group_51651" data-name="Group 51651" transform="translate(192.329 146.994)">
        <g id="Group_51650" data-name="Group 51650" transform="translate(0 0)">
          <circle id="Ellipse_3251" data-name="Ellipse 3251" cx="4.961" cy="4.961" r="4.961" fill="#508b82"/>
        </g>
      </g>
      <g id="Group_51653" data-name="Group 51653" transform="translate(182.178 178.473)">
        <g id="Group_51652" data-name="Group 51652">
          <circle id="Ellipse_3252" data-name="Ellipse 3252" cx="2.202" cy="2.202" r="2.202" fill="#b2d0cb"/>
        </g>
      </g>
      <g id="Group_51655" data-name="Group 51655" transform="translate(16.459 107.347)">
        <g id="Group_51654" data-name="Group 51654">
          <circle id="Ellipse_3253" data-name="Ellipse 3253" cx="2.997" cy="2.997" r="2.997" fill="#b2d0cb"/>
        </g>
      </g>
      <g id="Group_51658" data-name="Group 51658" transform="translate(60.951 92.99)">
        <g id="Group_51657" data-name="Group 51657" transform="translate(0 0)">
          <g id="Group_51656" data-name="Group 51656">
            <path id="Path_205786" data-name="Path 205786" d="M239.674,195.376a.97.97,0,0,0,.287-.69V141.833a.972.972,0,0,0-.972-.972h-83.72a.972.972,0,0,0-.972.972V252.2a.972.972,0,0,0,.972.972h83.72a.973.973,0,0,0,.972-.972V216.914a.972.972,0,0,0-1.657-.69l-6.952,6.9-17.84,8.1,8.085-17.9ZM219.9,212.361l-9.221,20.413a.973.973,0,0,0,1.288,1.285l20.348-9.234a.967.967,0,0,0,.283-.2l5.42-5.381v31.979H156.241V142.8h81.776v51.477L220.1,212.071A.969.969,0,0,0,219.9,212.361Z" transform="translate(-154.297 -140.861)" fill="#f2ede6"/>
          </g>
        </g>
      </g>
      <g id="Group_52302" data-name="Group 52302" transform="translate(86.487 105.706)">
        <g id="Group_52300" data-name="Group 52300">
          <path id="Path_205940" data-name="Path 205940" d="M89.419,211.972H67a1.087,1.087,0,0,0-1.087,1.087v6.768A1.087,1.087,0,0,0,67,220.913H89.419a1.087,1.087,0,0,0,1.087-1.087v-6.768A1.087,1.087,0,0,0,89.419,211.972Zm-1.087,6.767H68.087v-4.594H88.333v4.594Z" transform="translate(-75.914 -211.972)" fill="#508b82"/>
        </g>
      </g>
      <g id="Group_52304" data-name="Group 52304" transform="translate(86.487 117.936)">
        <g id="Group_52303" data-name="Group 52303">
          <path id="Path_205941" data-name="Path 205941" d="M89.419,235.08H67a1.087,1.087,0,0,0-1.087,1.087v6.767A1.087,1.087,0,0,0,67,244.02H89.419a1.087,1.087,0,0,0,1.087-1.087v-6.767A1.087,1.087,0,0,0,89.419,235.08Zm-1.087,6.767H68.087v-4.594H88.333v4.594Z" transform="translate(-75.914 -235.08)" fill="#b2d0cb"/>
        </g>
      </g>
      <g id="Group_52319" data-name="Group 52319" transform="translate(86.487 129.947)">
        <g id="Group_52318" data-name="Group 52318">
          <path id="Path_205946" data-name="Path 205946" d="M89.419,257.772H67a1.087,1.087,0,0,0-1.087,1.087v6.767A1.087,1.087,0,0,0,67,266.712H89.419a1.087,1.087,0,0,0,1.087-1.087v-6.767A1.087,1.087,0,0,0,89.419,257.772Zm-1.087,6.767H68.087v-4.594H88.333v4.594Z" transform="translate(-75.914 -257.772)" fill="#508b82"/>
        </g>
      </g>
      <g id="Group_52322" data-name="Group 52322" transform="translate(86.487 142.178)">
        <g id="Group_52321" data-name="Group 52321">
          <path id="Path_205947" data-name="Path 205947" d="M89.419,280.88H67a1.087,1.087,0,0,0-1.087,1.087v6.768A1.087,1.087,0,0,0,67,289.821H89.419a1.087,1.087,0,0,0,1.087-1.087v-6.768A1.087,1.087,0,0,0,89.419,280.88Zm-1.087,6.767H68.087v-4.594H88.333v4.594Z" transform="translate(-75.914 -280.88)" fill="#b2d0cb"/>
        </g>
      </g>
      <g id="Group_54229" data-name="Group 54229" transform="translate(106.486 105.706)">
        <g id="Group_52300-2" data-name="Group 52300">
          <path id="Path_205940-2" data-name="Path 205940" d="M99.419,211.972H77a1.087,1.087,0,0,0-1.087,1.087v6.768A1.087,1.087,0,0,0,77,220.913H99.419a1.087,1.087,0,0,0,1.087-1.087v-6.768A1.087,1.087,0,0,0,99.419,211.972Zm-1.087,6.767H78.087v-4.594H98.333v4.594Z" transform="translate(-75.914 -211.972)" fill="#b2d0cb"/>
        </g>
      </g>
      <g id="Group_54230" data-name="Group 54230" transform="translate(106.486 117.936)">
        <g id="Group_52303-2" data-name="Group 52303">
          <path id="Path_205941-2" data-name="Path 205941" d="M99.419,235.08H77a1.087,1.087,0,0,0-1.087,1.087v6.767A1.087,1.087,0,0,0,77,244.02H99.419a1.087,1.087,0,0,0,1.087-1.087v-6.767A1.087,1.087,0,0,0,99.419,235.08Zm-1.087,6.767H78.087v-4.594H98.333v4.594Z" transform="translate(-75.914 -235.08)" fill="#508b82"/>
        </g>
      </g>
      <g id="Group_54231" data-name="Group 54231" transform="translate(106.486 129.947)">
        <g id="Group_52318-2" data-name="Group 52318">
          <path id="Path_205946-2" data-name="Path 205946" d="M99.419,257.772H77a1.087,1.087,0,0,0-1.087,1.087v6.767A1.087,1.087,0,0,0,77,266.712H99.419a1.087,1.087,0,0,0,1.087-1.087v-6.767A1.087,1.087,0,0,0,99.419,257.772Zm-1.087,6.767H78.087v-4.594H98.333v4.594Z" transform="translate(-75.914 -257.772)" fill="#b2d0cb"/>
        </g>
      </g>
      <g id="Group_54232" data-name="Group 54232" transform="translate(106.486 142.178)">
        <g id="Group_52321-2" data-name="Group 52321">
          <path id="Path_205947-2" data-name="Path 205947" d="M99.419,280.88H77a1.087,1.087,0,0,0-1.087,1.087v6.768A1.087,1.087,0,0,0,77,289.821H99.419a1.087,1.087,0,0,0,1.087-1.087v-6.768A1.087,1.087,0,0,0,99.419,280.88Zm-1.087,6.767H78.087v-4.594H98.333v4.594Z" transform="translate(-75.914 -280.88)" fill="#508b82"/>
        </g>
      </g>
    </g>
  </g>
</svg>
