<svg width="185" height="145" viewBox="0 0 185 145" fill="none" xmlns="http://www.w3.org/2000/svg">
<g opacity="0.272">
<path d="M41.7488 133.977C60.0371 133.977 74.8627 119.151 74.8627 100.863C74.8627 82.5746 60.0371 67.749 41.7488 67.749C23.4604 67.749 8.63477 82.5746 8.63477 100.863C8.63477 119.151 23.4604 133.977 41.7488 133.977Z" fill="url(#paint0_linear_2200_12707)"/>
<path d="M50.8238 143.215C51.2597 143.568 51.7905 143.784 52.349 143.835C52.9076 143.886 53.4688 143.771 53.9618 143.503C54.4548 143.236 54.8573 142.828 55.1186 142.332C55.3798 141.835 55.488 141.273 55.4295 140.715C55.371 140.157 55.1484 139.629 54.7899 139.198C54.4313 138.766 53.9529 138.451 53.4152 138.291C52.8774 138.132 52.3044 138.135 51.7687 138.302C51.233 138.468 50.7585 138.789 50.4053 139.225C49.9319 139.809 49.71 140.558 49.7884 141.306C49.8669 142.055 50.2393 142.741 50.8238 143.215Z" fill="url(#paint1_linear_2200_12707)"/>
<path d="M61.0183 137.225C61.3161 137.466 61.6787 137.613 62.0603 137.649C62.4419 137.684 62.8253 137.605 63.1621 137.422C63.4989 137.239 63.7738 136.96 63.9523 136.621C64.1307 136.282 64.2045 135.898 64.1645 135.517C64.1244 135.136 63.9723 134.775 63.7272 134.48C63.4822 134.186 63.1553 133.97 62.7879 133.861C62.4204 133.753 62.029 133.755 61.663 133.869C61.2971 133.982 60.973 134.202 60.7319 134.5C60.4085 134.899 60.257 135.411 60.3107 135.922C60.3644 136.433 60.6189 136.902 61.0183 137.225Z" fill="url(#paint2_linear_2200_12707)"/>
<path d="M3.59752 91.6618C4.30905 91.6618 5.00459 91.4508 5.5962 91.0555C6.18781 90.6602 6.64892 90.0984 6.92121 89.441C7.19349 88.7837 7.26474 88.0603 7.12592 87.3625C6.98711 86.6646 6.64448 86.0236 6.14136 85.5205C5.63824 85.0174 4.99722 84.6747 4.29937 84.5359C3.60152 84.3971 2.87817 84.4684 2.22081 84.7406C1.56345 85.0129 1.00159 85.474 0.606292 86.0656C0.210991 86.6572 0 87.3528 0 88.0643C0 89.0184 0.379023 89.9335 1.05369 90.6081C1.72836 91.2828 2.6434 91.6618 3.59752 91.6618Z" fill="url(#paint3_linear_2200_12707)"/>
</g>
<g opacity="0.272">
<path d="M170.191 33.9499C175.598 29.8758 176.679 22.1896 172.605 16.7823C168.531 11.375 160.845 10.2942 155.437 14.3683C150.03 18.4424 148.949 26.1286 153.023 31.5359C157.097 36.9432 164.784 38.024 170.191 33.9499Z" fill="#2F4F4F"/>
<path d="M169.566 38.7014C169.516 38.9029 169.407 39.085 169.253 39.2246C169.1 39.3642 168.908 39.4551 168.703 39.4858C168.497 39.5165 168.287 39.4856 168.099 39.397C167.912 39.3084 167.754 39.1661 167.647 38.988C167.54 38.81 167.489 38.6043 167.499 38.3969C167.509 38.1894 167.58 37.9896 167.703 37.8227C167.827 37.6558 167.997 37.5292 168.193 37.4591C168.388 37.3889 168.6 37.3783 168.802 37.4285C169.072 37.4959 169.304 37.6679 169.447 37.9066C169.591 38.1453 169.634 38.4312 169.566 38.7014Z" fill="#2F4F4F"/>
<path d="M165.217 39.1998C165.183 39.3373 165.109 39.4615 165.004 39.5567C164.899 39.652 164.768 39.714 164.628 39.7349C164.488 39.7558 164.345 39.7348 164.217 39.6743C164.089 39.6139 163.981 39.5168 163.908 39.3954C163.835 39.2739 163.8 39.1336 163.807 38.9921C163.814 38.8506 163.862 38.7143 163.947 38.6004C164.031 38.4866 164.147 38.4002 164.28 38.3524C164.414 38.3045 164.558 38.2973 164.696 38.3316C164.88 38.3778 165.038 38.4952 165.136 38.6579C165.234 38.8207 165.263 39.0156 165.217 39.1998Z" fill="#2F4F4F"/>
<path d="M172.042 12.9387C171.832 13.0971 171.58 13.1896 171.317 13.2046C171.054 13.2195 170.792 13.1561 170.566 13.0224C170.339 12.8888 170.157 12.6909 170.042 12.4537C169.928 12.2165 169.886 11.9508 169.923 11.6901C169.96 11.4293 170.073 11.1853 170.248 10.9889C170.424 10.7925 170.653 10.6525 170.908 10.5866C171.163 10.5207 171.432 10.5318 171.68 10.6186C171.929 10.7055 172.146 10.864 172.305 11.0743C172.517 11.3563 172.609 11.7112 172.56 12.0608C172.51 12.4104 172.324 12.7262 172.042 12.9387Z" fill="#2F4F4F"/>
</g>
<path d="M100.988 129.143C136.65 129.143 165.559 100.233 165.559 64.5715C165.559 28.9097 136.65 0 100.988 0C65.3258 0 36.416 28.9097 36.416 64.5715C36.416 100.233 65.3258 129.143 100.988 129.143Z" fill="#F6F2ED"/>
<path d="M100.988 127.893C135.959 127.893 164.309 99.543 164.309 64.5715C164.309 29.6 135.959 1.25 100.988 1.25C66.0161 1.25 37.666 29.6 37.666 64.5715C37.666 99.543 66.0161 127.893 100.988 127.893Z" stroke="#272421" stroke-width="2"/>
<path d="M160.773 65.2075C160.785 73.1236 159.222 80.963 156.175 88.269C153.127 95.575 148.657 102.202 143.023 107.763C137.523 113.241 130.994 117.577 123.811 120.522C116.629 123.468 108.935 124.964 101.173 124.925C89.3563 124.948 77.7986 121.466 67.9624 114.918C58.1261 108.37 50.4535 99.0512 45.9155 88.141C41.3775 77.2307 40.1782 65.2195 42.4693 53.6274C44.7603 42.0353 50.4389 31.3834 58.7862 23.0198C67.1335 14.6563 77.7743 8.95693 89.362 6.64326C100.95 4.32959 112.963 5.50563 123.882 10.0223C134.801 14.539 144.135 22.1935 150.702 32.0169C157.269 41.8403 160.775 53.3912 160.774 65.2075H160.773Z" fill="url(#paint4_linear_2200_12707)"/>
<path d="M101.205 119.91C131.556 119.91 156.161 95.3062 156.161 64.9552C156.161 34.6043 131.556 10 101.205 10C70.8544 10 46.25 34.6043 46.25 64.9552C46.25 95.3062 70.8544 119.91 101.205 119.91Z" fill="#F6F2ED"/>
<path d="M101.205 118.66C130.866 118.66 154.911 94.6158 154.911 64.9552C154.911 35.2947 130.866 11.25 101.205 11.25C71.5447 11.25 47.5 35.2947 47.5 64.9552C47.5 94.6158 71.5447 118.66 101.205 118.66Z" stroke="#272421" stroke-width="2"/>
<path d="M101.32 18.726C75.8839 18.726 55.2637 39.3461 55.2637 64.7824C55.2637 90.2187 75.8839 110.839 101.32 110.839C126.757 110.839 147.377 90.2187 147.377 64.7824C147.377 39.3461 126.757 18.726 101.32 18.726Z" stroke="url(#paint5_linear_2200_12707)" stroke-width="1.5" stroke-dasharray="1.5 1.5"/>
<path d="M112.521 65.5923C112.791 65.5923 113.062 65.5778 113.331 65.5923C113.97 65.6324 114.461 65.9447 114.826 66.4583C115.073 66.8064 115.271 67.1972 115.561 67.5018C115.784 67.726 116.063 67.8864 116.368 67.966C116.749 68.0624 117.158 68.0385 117.555 68.0735C118.251 68.1341 118.801 68.4463 119.166 69.0496C119.416 69.4659 119.662 69.884 119.889 70.3106C120.039 70.579 120.124 70.8787 120.137 71.1857C120.151 71.4928 120.093 71.7988 119.967 72.0794C119.814 72.4454 119.641 72.8046 119.461 73.1596C119.358 73.3462 119.304 73.5558 119.303 73.769C119.302 73.9821 119.355 74.1922 119.456 74.3797C119.627 74.721 119.786 75.0725 119.943 75.4214C120.079 75.704 120.145 76.0147 120.136 76.3278C120.127 76.6409 120.043 76.9474 119.892 77.2218C119.667 77.6484 119.423 78.0673 119.174 78.4803C119.023 78.748 118.809 78.9752 118.551 79.1423C118.293 79.3095 117.998 79.4117 117.692 79.4401C117.24 79.4896 116.775 79.4768 116.338 79.5843C116.033 79.6696 115.757 79.8363 115.539 80.0664C115.258 80.3608 115.06 80.7345 114.829 81.0758C114.48 81.5877 113.99 81.8991 113.379 81.9435C112.782 81.9885 112.183 81.9885 111.587 81.9435C110.977 81.8966 110.49 81.5792 110.142 81.0655C109.919 80.7362 109.732 80.371 109.46 80.0903C109.232 79.8524 108.945 79.6785 108.629 79.586C108.194 79.4743 107.727 79.4905 107.276 79.4393C106.64 79.3685 106.166 79.0417 105.825 78.5076C105.81 78.4828 105.793 78.4598 105.778 78.435C104.703 76.5537 104.475 76.4803 105.533 74.3157C105.678 74.0179 105.619 73.5717 105.533 73.2244C105.436 72.8328 105.192 72.4787 105.021 72.1016C104.891 71.8232 104.828 71.5181 104.838 71.211C104.848 70.9038 104.929 70.6033 105.077 70.3337C105.307 69.8943 105.561 69.4651 105.819 69.0402C106.176 68.4532 106.714 68.1434 107.392 68.0769C107.788 68.0385 108.2 68.0667 108.578 67.9677C108.896 67.879 109.189 67.7171 109.433 67.495C109.659 67.2919 109.81 66.9976 109.97 66.7271C110.465 65.9071 111.171 65.5027 112.137 65.5821C112.264 65.5923 112.393 65.5821 112.521 65.5821V65.5923ZM112.504 67.7791C112.053 67.6341 111.81 67.8764 111.583 68.2347C111.241 68.7714 110.9 69.2936 110.326 69.6545C109.643 70.0871 108.902 70.1784 108.13 70.2117C107.448 70.2415 106.951 71.0734 107.247 71.6937C107.578 72.384 107.909 73.0589 107.888 73.8711C107.869 74.6237 107.527 75.2363 107.235 75.8737C106.979 76.43 107.432 77.2286 108.027 77.3241C108.679 77.4274 109.341 77.5204 109.965 77.7217C110.803 77.9931 111.222 78.7456 111.678 79.4342C112.019 79.9461 112.958 79.9324 113.316 79.4282C113.713 78.8634 114.054 78.2704 114.681 77.877C115.373 77.4427 116.118 77.3924 116.881 77.3233C117.583 77.2593 118.019 76.4649 117.727 75.8284C117.434 75.1919 117.102 74.5768 117.097 73.8174C117.091 73.0495 117.393 72.4138 117.705 71.7611C117.789 71.599 117.829 71.4181 117.823 71.2359C117.816 71.0536 117.763 70.8761 117.668 70.7203C117.573 70.5646 117.44 70.4358 117.281 70.3462C117.122 70.2567 116.943 70.2095 116.761 70.2091C115.983 70.1818 115.201 70.1093 114.596 69.5803C114.149 69.1735 113.748 68.7179 113.402 68.2219C113.162 67.8917 112.943 67.6528 112.504 67.7791Z" fill="url(#paint6_linear_2200_12707)"/>
<path d="M90.6527 82C90.2994 81.9752 89.9428 81.971 89.593 81.9146C89.3391 81.8759 89.0961 81.7844 88.8796 81.6461C88.6632 81.5079 88.4781 81.3258 88.3362 81.1118C88.1715 80.8797 87.9829 80.6587 87.8575 80.4061C87.5222 79.7347 86.9676 79.5077 86.2552 79.5051C85.8713 79.511 85.4884 79.4665 85.1161 79.3729C83.9574 79.0521 82.7407 76.8891 83.082 75.7399C83.2219 75.2672 83.466 74.8243 83.6835 74.3747C83.7836 74.1866 83.8355 73.9766 83.8346 73.7636C83.8337 73.5505 83.78 73.341 83.6784 73.1537C83.5078 72.8124 83.3465 72.4626 83.1904 72.1128C83.0555 71.8288 82.9906 71.5166 83.0011 71.2023C83.0116 70.888 83.0973 70.5809 83.251 70.3065C83.4779 69.8799 83.7219 69.4627 83.9719 69.0497C84.3371 68.4465 84.8866 68.1334 85.5828 68.0719C85.9787 68.0369 86.3891 68.0608 86.7688 67.9644C87.0749 67.8858 87.3542 67.7263 87.5777 67.5028C87.8678 67.1982 88.064 66.8049 88.3123 66.4585C88.7201 65.8919 89.267 65.5805 89.9769 65.5831C90.418 65.5831 90.8592 65.5831 91.2994 65.5831C92.0272 65.5779 92.5835 65.8953 92.9965 66.4798C93.2345 66.816 93.4231 67.1991 93.7072 67.4883C93.9425 67.7178 94.2332 67.8824 94.5511 67.9661C94.9299 68.0642 95.3411 68.0361 95.737 68.0745C96.4154 68.141 96.9546 68.4491 97.3121 69.0369C97.5681 69.4635 97.824 69.8901 98.0544 70.3304C98.2014 70.6002 98.283 70.9007 98.2926 71.2077C98.3022 71.5148 98.2396 71.8198 98.1099 72.0983C97.9392 72.4891 97.6943 72.8551 97.5843 73.2604C97.4981 73.5942 97.4981 73.9445 97.5843 74.2783C97.6943 74.6836 97.9367 75.0513 98.1082 75.4412C98.2386 75.7196 98.3016 76.0249 98.2919 76.3322C98.2823 76.6395 98.2003 76.9403 98.0527 77.21C97.8223 77.6502 97.5706 78.0794 97.3112 78.5034C97.1613 78.7644 96.9511 78.9856 96.6982 79.1486C96.4452 79.3116 96.1569 79.4116 95.8573 79.4403C95.406 79.4932 94.9384 79.4744 94.5041 79.5862C94.2004 79.6638 93.9069 79.8737 93.6714 80.0904C93.4572 80.2875 93.3105 80.5648 93.1595 80.8217C92.6714 81.6527 91.947 82.0273 90.9923 81.9744C90.8788 81.9684 90.7645 81.9744 90.651 81.9744L90.6527 82ZM90.6271 79.7568C91.0929 79.8925 91.3532 79.6596 91.5827 79.2782C91.918 78.7202 92.2951 78.2074 92.8881 77.8507C93.5195 77.4719 94.1842 77.3968 94.883 77.3388C95.7985 77.2663 96.2089 76.5214 95.8215 75.6972C95.5442 75.1076 95.2729 74.5351 95.2533 73.8457C95.2311 73.0437 95.5655 72.3875 95.8864 71.7126C96.1952 71.0599 95.7106 70.2476 94.9871 70.2127C94.2635 70.1777 93.5647 70.0966 92.9043 69.7101C92.2439 69.3236 91.8924 68.7315 91.4914 68.1496C91.0904 67.5677 90.2047 67.5813 89.8071 68.1496C89.4351 68.6803 89.1246 69.2477 88.5435 69.6231C87.8515 70.071 87.1041 70.1871 86.3149 70.2203C85.5913 70.2476 85.1076 71.0642 85.4105 71.7152C85.7134 72.3662 86.0384 72.995 86.0461 73.7629C86.0547 74.5974 85.6664 75.2629 85.3524 75.9711C85.1536 76.4207 85.6315 77.2509 86.1203 77.3166C86.8447 77.4122 87.5785 77.3755 88.2654 77.7654C88.9326 78.1442 89.3694 78.6929 89.7423 79.3166C89.9488 79.6672 90.1928 79.8797 90.6262 79.7543L90.6271 79.7568Z" fill="url(#paint7_linear_2200_12707)"/>
<path d="M101.87 47.0093C105.068 47.1554 107.935 49.3983 108.617 53.019H110.088C112.209 53.019 113.585 54.3937 113.592 56.5112C113.596 58.7444 113.596 60.9783 113.592 63.2114C113.592 63.881 113.305 64.3004 112.763 64.4497C112.054 64.6451 111.398 64.1036 111.398 63.2905V56.2925C111.385 55.6952 110.997 55.2451 110.409 55.2075C109.821 55.17 109.211 55.1997 108.623 55.1997C107.921 58.9912 104.774 61.2004 101.591 61.2124C98.49 61.2243 95.2387 59.0905 94.5135 55.2007C93.925 55.2007 93.328 55.1686 92.7361 55.2095C92.115 55.2521 91.7497 55.7107 91.7488 56.3813C91.7448 58.5996 91.7448 60.8183 91.7488 63.0366C91.7539 63.1786 91.7512 63.3207 91.741 63.4624C91.6753 64.0655 91.2043 64.4938 90.6277 64.4829C90.0672 64.4718 89.6212 64.0481 89.5555 63.4585C89.5501 63.4018 89.5482 63.3445 89.5496 63.2876C89.5496 60.955 89.5308 58.6224 89.5564 56.2915C89.5761 54.4435 90.9481 53.0828 92.7986 53.0229C93.3651 53.0042 93.9334 53.0229 94.534 53.0229C94.9299 50.9351 95.9646 49.2814 97.741 48.1304C98.9625 47.3261 100.409 46.9332 101.87 47.0093Z" fill="url(#paint8_linear_2200_12707)"/>
<path d="M103.052 54.1107C103.479 54.5108 103.855 54.8521 104.213 55.2147C104.697 55.7054 104.71 56.3675 104.267 56.8086C103.823 57.2497 103.172 57.2463 102.675 56.7514C102.314 56.3939 101.978 56.0117 101.573 55.5791C101.169 56.0057 100.839 56.3785 100.489 56.7275C99.9689 57.2471 99.3299 57.2693 98.8683 56.8026C98.4178 56.3495 98.4502 55.6883 98.9621 55.1815C99.312 54.8325 99.6805 54.4989 100.088 54.1175C99.6609 53.7097 99.2838 53.3658 98.9254 53.0032C98.4451 52.5169 98.4306 51.8488 98.8734 51.4077C99.3162 50.9665 99.9706 50.9759 100.464 51.4665C100.825 51.824 101.163 52.2046 101.573 52.6346C101.971 52.208 102.303 51.8445 102.652 51.4947C103.164 50.9828 103.815 50.9512 104.273 51.4094C104.732 51.8675 104.7 52.5262 104.188 53.0356C103.833 53.3846 103.466 53.7182 103.052 54.1107Z" fill="#F6F2ED"/>
<path d="M115.76 73.767C115.763 74.1978 115.681 74.6249 115.518 75.0236C115.354 75.4222 115.113 75.7844 114.809 76.089C114.504 76.3936 114.142 76.6345 113.743 76.7978C113.345 76.9611 112.918 77.0434 112.487 77.04C112.06 77.0423 111.636 76.9602 111.241 76.7983C110.845 76.6365 110.486 76.398 110.183 76.0967C109.88 75.7954 109.639 75.4372 109.475 75.0426C109.311 74.6481 109.227 74.225 109.227 73.7977C109.222 73.3669 109.302 72.9394 109.463 72.5397C109.624 72.1401 109.862 71.7762 110.165 71.4691C110.467 71.1619 110.827 70.9176 111.224 70.7501C111.621 70.5826 112.047 70.4953 112.478 70.4932C112.908 70.4913 113.335 70.5746 113.734 70.7383C114.132 70.9021 114.495 71.143 114.8 71.4473C115.105 71.7516 115.347 72.1132 115.512 72.5113C115.676 72.9094 115.761 73.3362 115.76 73.767ZM112.5 72.6817C112.213 72.6831 111.938 72.7955 111.732 72.9953C111.527 73.1951 111.406 73.4668 111.397 73.7534C111.397 74.0475 111.513 74.3297 111.721 74.5377C111.929 74.7457 112.212 74.8626 112.506 74.8626C112.793 74.8557 113.066 74.7378 113.268 74.5337C113.47 74.3295 113.585 74.055 113.588 73.7679C113.583 73.4812 113.466 73.208 113.263 73.0055C113.06 72.803 112.786 72.6869 112.5 72.6817Z" fill="url(#paint9_linear_2200_12707)"/>
<path d="M93.9118 73.7866C93.9127 74.2174 93.8278 74.6441 93.6621 75.0417C93.4965 75.4394 93.2533 75.8001 92.9469 76.1029C92.6405 76.4057 92.2769 76.6444 91.8773 76.8053C91.4776 76.9662 91.05 77.046 90.6193 77.04C90.1919 77.0393 89.7688 76.9543 89.3744 76.7898C88.9799 76.6253 88.6218 76.3845 88.3206 76.0813C88.0194 75.7781 87.781 75.4184 87.619 75.0229C87.4571 74.6274 87.3749 74.2038 87.377 73.7764C87.3746 73.3452 87.4577 72.9178 87.6214 72.5189C87.785 72.12 88.0261 71.7575 88.3306 71.4523C88.6352 71.147 88.9971 70.9051 89.3957 70.7405C89.7942 70.5759 90.2214 70.4918 90.6525 70.4932C91.0831 70.4942 91.5093 70.5803 91.9065 70.7466C92.3038 70.9129 92.6642 71.156 92.9671 71.4621C93.27 71.7682 93.5094 72.1311 93.6715 72.5301C93.8337 72.929 93.9153 73.356 93.9118 73.7866ZM90.6594 72.6774C90.3723 72.6757 90.0958 72.786 89.8887 72.9848C89.6816 73.1836 89.5602 73.4553 89.5502 73.7423C89.5485 73.8884 89.5757 74.0335 89.6303 74.1691C89.6848 74.3047 89.7656 74.4282 89.8681 74.5324C89.9705 74.6367 90.0926 74.7197 90.2272 74.7766C90.3618 74.8336 90.5064 74.8634 90.6525 74.8642C90.9393 74.8575 91.2125 74.7405 91.4152 74.5376C91.618 74.3347 91.7347 74.0615 91.7412 73.7747C91.7371 73.488 91.6222 73.214 91.4205 73.0103C91.2188 72.8065 90.946 72.6887 90.6594 72.6817V72.6774Z" fill="url(#paint10_linear_2200_12707)"/>
<defs>
<linearGradient id="paint0_linear_2200_12707" x1="41.7488" y1="67.749" x2="41.7488" y2="133.977" gradientUnits="userSpaceOnUse">
<stop stop-color="#58A4A4"/>
<stop offset="1" stop-color="#073E39"/>
</linearGradient>
<linearGradient id="paint1_linear_2200_12707" x1="54.3936" y1="138.806" x2="50.8238" y2="143.215" gradientUnits="userSpaceOnUse">
<stop stop-color="#58A4A4"/>
<stop offset="1" stop-color="#073E39"/>
</linearGradient>
<linearGradient id="paint2_linear_2200_12707" x1="63.4569" y1="134.213" x2="61.0183" y2="137.225" gradientUnits="userSpaceOnUse">
<stop stop-color="#58A4A4"/>
<stop offset="1" stop-color="#073E39"/>
</linearGradient>
<linearGradient id="paint3_linear_2200_12707" x1="3.59753" y1="84.4668" x2="3.59753" y2="91.6618" gradientUnits="userSpaceOnUse">
<stop stop-color="#58A4A4"/>
<stop offset="1" stop-color="#073E39"/>
</linearGradient>
<linearGradient id="paint4_linear_2200_12707" x1="101.055" y1="5.4873" x2="101.055" y2="124.926" gradientUnits="userSpaceOnUse">
<stop stop-color="#58A4A4"/>
<stop offset="1" stop-color="#073E39"/>
</linearGradient>
<linearGradient id="paint5_linear_2200_12707" x1="55.2637" y1="64.7824" x2="147.377" y2="64.7824" gradientUnits="userSpaceOnUse">
<stop stop-color="#58A4A4"/>
<stop offset="1" stop-color="#073E39"/>
</linearGradient>
<linearGradient id="paint6_linear_2200_12707" x1="112.488" y1="65.5723" x2="112.488" y2="81.9772" gradientUnits="userSpaceOnUse">
<stop stop-color="#58A4A4"/>
<stop offset="1" stop-color="#073E39"/>
</linearGradient>
<linearGradient id="paint7_linear_2200_12707" x1="90.6468" y1="65.583" x2="90.6468" y2="82" gradientUnits="userSpaceOnUse">
<stop stop-color="#58A4A4"/>
<stop offset="1" stop-color="#073E39"/>
</linearGradient>
<linearGradient id="paint8_linear_2200_12707" x1="101.569" y1="47" x2="101.569" y2="64.4897" gradientUnits="userSpaceOnUse">
<stop stop-color="#58A4A4"/>
<stop offset="1" stop-color="#073E39"/>
</linearGradient>
<linearGradient id="paint9_linear_2200_12707" x1="112.493" y1="70.4932" x2="112.493" y2="77.0401" gradientUnits="userSpaceOnUse">
<stop stop-color="#58A4A4"/>
<stop offset="1" stop-color="#073E39"/>
</linearGradient>
<linearGradient id="paint10_linear_2200_12707" x1="90.6445" y1="70.4932" x2="90.6445" y2="77.0403" gradientUnits="userSpaceOnUse">
<stop stop-color="#58A4A4"/>
<stop offset="1" stop-color="#073E39"/>
</linearGradient>
</defs>
</svg>
