<svg width="10" height="16" viewBox="0 0 10 16" fill="none" xmlns="http://www.w3.org/2000/svg">
<path d="M10 1.67568C10.0004 1.89693 9.95634 2.11601 9.87045 2.31992C9.78455 2.52382 9.65858 2.70839 9.5 2.86268L4.191 7.99968L9.491 13.1327C9.68784 13.3274 9.83308 13.5681 9.9136 13.833C9.99413 14.0979 10.0074 14.3787 9.95222 14.65C9.89705 14.9213 9.77516 15.1746 9.59756 15.3871C9.41996 15.5995 9.19226 15.7643 8.935 15.8667C8.50539 16.0377 8.02661 16.0377 7.597 15.8667C7.38925 15.7841 7.20018 15.6607 7.041 15.5037L0.508997 9.18368C0.348232 9.03111 0.220208 8.84741 0.132722 8.64377C0.0452356 8.44013 0.000118256 8.22082 0.000118256 7.99918C0.000118256 7.77754 0.0452356 7.55823 0.132722 7.35459C0.220208 7.15095 0.348232 6.96725 0.508997 6.81468L7.042 0.492679C7.20161 0.335035 7.3914 0.21123 7.6 0.128679C8.02984 -0.042893 8.50915 -0.042893 8.939 0.128679C9.14653 0.211585 9.33527 0.335371 9.494 0.492679C9.65341 0.645818 9.78037 0.829481 9.8673 1.03272C9.95423 1.23596 9.99936 1.45463 10 1.67568Z" fill="#2D6759"/>
</svg>
