<svg width="15" height="15" viewBox="0 0 15 15" fill="none" xmlns="http://www.w3.org/2000/svg">
<g clip-path="url(#clip0_2531_8386)">
<path d="M12.6475 7.52183C12.6475 9.44683 12.21 11.2843 11.3131 12.9906C11.2693 13.0781 11.2256 13.1437 11.1818 13.2312C11.0506 13.45 10.8537 13.5812 10.6131 13.4281C10.3725 13.275 10.3725 13.0562 10.4818 12.8375C10.5475 12.6843 10.635 12.5531 10.7006 12.4C11.4225 10.9343 11.8162 9.38121 11.8381 8.06871C11.8381 5.31246 10.1975 3.45308 7.96621 3.08121C4.92559 2.57808 3.63496 5.02808 3.54746 5.15933L3.39434 5.39996C3.02246 5.39996 2.67246 5.46558 2.36621 5.61871L2.62871 5.04996C3.32871 3.67183 4.61934 2.64371 6.17246 2.31558C9.47559 1.59371 12.6256 4.10933 12.6475 7.52183Z" fill="#F6F2ED"/>
<path d="M10.9851 7.87168C10.8976 10.1029 10.1757 12.0936 8.79756 13.8654C8.71006 13.9967 8.60068 14.1061 8.49131 14.2373C8.31631 14.4561 8.09756 14.5654 7.85693 14.3467C7.61631 14.1279 7.68193 13.9092 7.87881 13.6904C8.42568 13.0342 8.90693 12.3342 9.27881 11.5686C9.86943 10.3436 10.1757 9.03106 10.1757 7.67481C10.1976 6.01231 8.95068 4.69981 7.35381 4.69981H7.13506C6.26006 4.74356 5.47256 5.24668 4.99131 5.96856C4.77256 5.79356 4.53193 5.66231 4.24756 5.57481L4.26943 5.53106C4.51006 5.15918 4.79443 4.80918 5.16631 4.54668C5.80068 4.08731 6.56631 3.84668 7.41943 3.86856C9.54131 3.91231 11.0726 5.64043 10.9851 7.87168Z" fill="#F6F2ED"/>
<path d="M9.36641 7.82943C9.25703 9.88568 8.55703 11.6357 7.28828 13.1232L6.85078 13.5826V12.3138L7.28828 11.7451C8.07578 10.5638 8.49141 9.18568 8.53516 7.65443C8.55703 6.84506 8.05391 6.29818 7.35391 6.29818H7.33203C6.78516 6.29818 6.32578 6.71381 6.19453 7.23881L6.04141 7.89506C5.99766 7.39193 5.84453 6.93256 5.58203 6.53881L5.60391 6.49506C5.86641 6.01381 6.30391 5.64193 6.82891 5.53256H6.85078C7.72578 5.31381 8.62266 5.70756 9.08203 6.49506C9.34453 6.91068 9.41016 7.34818 9.36641 7.82943Z" fill="#F6F2ED"/>
<path d="M7.74727 7.69531C7.68164 8.57031 7.52852 9.35781 7.24414 10.1016L6.82852 10.8234V10.4953C6.82852 10.1672 6.69727 9.88281 6.47852 9.68594L6.63164 9.24844C6.76289 8.78906 6.85039 8.28594 6.87227 7.78281V7.73906C6.87227 7.43281 6.91602 7.12656 7.30977 7.14844C7.72539 7.14844 7.74727 7.45469 7.74727 7.69531ZM5.62539 8.08906V9.37969H4.59727V8.08906C4.59727 7.41094 4.05039 6.84219 3.37227 6.84219C2.69414 6.84219 2.14727 7.41094 2.14727 8.08906V8.41719C2.14727 8.70156 1.92852 8.92031 1.64414 8.92031C1.51289 8.92031 1.38164 8.85469 1.27227 8.76719C1.18477 8.67969 1.11914 8.54844 1.11914 8.41719V8.08906C1.14102 6.84219 2.14727 5.83594 3.37227 5.83594C4.61914 5.83594 5.62539 6.84219 5.62539 8.08906ZM5.71289 9.83906H1.03164C0.659766 9.83906 0.353516 10.1453 0.353516 10.5172V13.7766C0.353516 14.1484 0.659766 14.4547 1.03164 14.4547H5.71289C6.08477 14.4547 6.39102 14.1484 6.39102 13.7766V10.5172C6.39102 10.1453 6.08477 9.83906 5.71289 9.83906ZM3.89727 12.9453C3.91914 13.0547 3.85352 13.1422 3.74414 13.1422H3.04414C2.93477 13.1422 2.86914 13.0547 2.89102 12.9453L3.00039 12.4422C3.02227 12.3984 3.00039 12.3328 2.95664 12.2891C2.80352 12.1578 2.71602 11.9391 2.73789 11.6984C2.78164 11.4141 3.02227 11.1734 3.30664 11.1516C3.72227 11.0859 4.07227 11.4141 4.07227 11.8078C4.07227 12.0047 3.98477 12.1797 3.85352 12.3109C3.80977 12.3547 3.78789 12.3984 3.80977 12.4641L3.89727 12.9453Z" fill="#F6F2ED"/>
<path d="M13.8725 7.91541C13.5662 7.91541 13.4787 7.67479 13.435 7.41229C13.3912 7.06229 13.3912 6.71229 13.3256 6.36229C12.7569 3.34354 10.0006 1.19979 6.95998 1.39666C5.05686 1.50604 3.37248 2.49041 2.32248 3.95604C2.08186 4.28416 1.88498 4.63416 1.73186 5.00604C1.55686 5.42166 1.42561 5.85916 1.33811 6.29666C0.944357 6.77791 0.703732 7.41229 0.703732 8.09041V8.41854C0.703732 8.48416 0.703732 8.54979 0.725607 8.61541H0.616232C0.309982 8.57166 0.244357 8.30916 0.288107 8.04666C0.353732 7.56541 0.353732 7.39041 0.375607 7.21541C0.441232 5.72791 0.944357 4.37166 1.88498 3.19041C3.67873 0.959162 6.54436 0.0185365 9.27873 0.849787C12.1225 1.72479 13.7412 3.73729 14.2225 6.64666C14.2444 6.82166 14.2444 7.32479 14.2444 7.39041C14.2881 7.69666 14.2006 7.91541 13.8725 7.91541Z" fill="#F6F2ED"/>
</g>
<defs>
<clipPath id="clip0_2531_8386">
<rect width="14" height="14" fill="white" transform="translate(0.266113 0.5)"/>
</clipPath>
</defs>
</svg>
