<svg width="185" height="145" viewBox="0 0 185 145" fill="none" xmlns="http://www.w3.org/2000/svg">
<g opacity="0.272">
<path d="M41.7527 133.977C60.0421 133.977 74.8686 119.151 74.8686 100.863C74.8686 82.5746 60.0421 67.749 41.7527 67.749C23.4632 67.749 8.63672 82.5746 8.63672 100.863C8.63672 119.151 23.4632 133.977 41.7527 133.977Z" fill="#2F4F4F"/>
<path d="M41.7527 133.977C60.0421 133.977 74.8686 119.151 74.8686 100.863C74.8686 82.5746 60.0421 67.749 41.7527 67.749C23.4632 67.749 8.63672 82.5746 8.63672 100.863C8.63672 119.151 23.4632 133.977 41.7527 133.977Z" fill="url(#paint0_linear_11637_9589)"/>
<path d="M50.8257 143.215C51.2616 143.568 51.7924 143.784 52.351 143.835C52.9096 143.887 53.4709 143.771 53.9639 143.504C54.4569 143.236 54.8594 142.828 55.1207 142.332C55.382 141.836 55.4902 141.273 55.4317 140.715C55.3732 140.157 55.1505 139.629 54.792 139.198C54.4334 138.766 53.955 138.451 53.4172 138.292C52.8794 138.132 52.3064 138.136 51.7706 138.302C51.2349 138.468 50.7604 138.789 50.4072 139.225C49.9337 139.81 49.7118 140.558 49.7903 141.307C49.8687 142.055 50.2412 142.741 50.8257 143.215Z" fill="#2F4F4F"/>
<path d="M50.8257 143.215C51.2616 143.568 51.7924 143.784 52.351 143.835C52.9096 143.887 53.4709 143.771 53.9639 143.504C54.4569 143.236 54.8594 142.828 55.1207 142.332C55.382 141.836 55.4902 141.273 55.4317 140.715C55.3732 140.157 55.1505 139.629 54.792 139.198C54.4334 138.766 53.955 138.451 53.4172 138.292C52.8794 138.132 52.3064 138.136 51.7706 138.302C51.2349 138.468 50.7604 138.789 50.4072 139.225C49.9337 139.81 49.7118 140.558 49.7903 141.307C49.8687 142.055 50.2412 142.741 50.8257 143.215Z" fill="url(#paint1_linear_11637_9589)"/>
<path d="M61.0202 137.225C61.318 137.466 61.6806 137.614 62.0623 137.649C62.4439 137.684 62.8273 137.605 63.1641 137.422C63.5009 137.239 63.7759 136.961 63.9543 136.622C64.1328 136.282 64.2066 135.898 64.1666 135.517C64.1265 135.136 63.9743 134.775 63.7293 134.481C63.4842 134.186 63.1573 133.971 62.7899 133.862C62.4224 133.753 62.031 133.755 61.665 133.869C61.299 133.983 60.9749 134.202 60.7337 134.5C60.4103 134.899 60.2588 135.411 60.3125 135.922C60.3663 136.433 60.6208 136.902 61.0202 137.225Z" fill="#2F4F4F"/>
<path d="M61.0202 137.225C61.318 137.466 61.6806 137.614 62.0623 137.649C62.4439 137.684 62.8273 137.605 63.1641 137.422C63.5009 137.239 63.7759 136.961 63.9543 136.622C64.1328 136.282 64.2066 135.898 64.1666 135.517C64.1265 135.136 63.9743 134.775 63.7293 134.481C63.4842 134.186 63.1573 133.971 62.7899 133.862C62.4224 133.753 62.031 133.755 61.665 133.869C61.299 133.983 60.9749 134.202 60.7337 134.5C60.4103 134.899 60.2588 135.411 60.3125 135.922C60.3663 136.433 60.6208 136.902 61.0202 137.225Z" fill="url(#paint2_linear_11637_9589)"/>
<path d="M3.59774 91.6617C4.3093 91.6617 5.00489 91.4507 5.59653 91.0554C6.18818 90.6601 6.64931 90.0983 6.92161 89.4409C7.19392 88.7835 7.26517 88.0602 7.12635 87.3624C6.98753 86.6645 6.64488 86.0235 6.14172 85.5204C5.63857 85.0172 4.99751 84.6746 4.29962 84.5358C3.60173 84.397 2.87834 84.4682 2.22094 84.7405C1.56354 85.0128 1.00165 85.4739 0.606328 86.0655C0.211003 86.6571 0 87.3527 0 88.0642C0 89.0183 0.379046 89.9334 1.05375 90.608C1.72846 91.2827 2.64356 91.6617 3.59774 91.6617Z" fill="#2F4F4F"/>
<path d="M3.59774 91.6617C4.3093 91.6617 5.00489 91.4507 5.59653 91.0554C6.18818 90.6601 6.64931 90.0983 6.92161 89.4409C7.19392 88.7835 7.26517 88.0602 7.12635 87.3624C6.98753 86.6645 6.64488 86.0235 6.14172 85.5204C5.63857 85.0172 4.99751 84.6746 4.29962 84.5358C3.60173 84.397 2.87834 84.4682 2.22094 84.7405C1.56354 85.0128 1.00165 85.4739 0.606328 86.0655C0.211003 86.6571 0 87.3527 0 88.0642C0 89.0183 0.379046 89.9334 1.05375 90.608C1.72846 91.2827 2.64356 91.6617 3.59774 91.6617Z" fill="url(#paint3_linear_11637_9589)"/>
</g>
<g opacity="0.272">
<path d="M170.202 33.9501C175.61 29.8761 176.691 22.1899 172.616 16.7825C168.542 11.3752 160.855 10.2943 155.448 14.3684C150.04 18.4424 148.959 26.1286 153.034 31.536C157.108 36.9434 164.795 38.0242 170.202 33.9501Z" fill="#2F4F4F"/>
<path d="M170.202 33.9501C175.61 29.8761 176.691 22.1899 172.616 16.7825C168.542 11.3752 160.855 10.2943 155.448 14.3684C150.04 18.4424 148.959 26.1286 153.034 31.536C157.108 36.9434 164.795 38.0242 170.202 33.9501Z" fill="url(#paint4_linear_11637_9589)"/>
<path d="M169.574 38.7015C169.524 38.903 169.415 39.0851 169.261 39.2247C169.107 39.3643 168.916 39.4552 168.71 39.4859C168.505 39.5166 168.295 39.4857 168.107 39.3971C167.919 39.3085 167.762 39.1662 167.655 38.9882C167.548 38.8101 167.496 38.6044 167.506 38.397C167.516 38.1895 167.588 37.9897 167.711 37.8228C167.835 37.6559 168.005 37.5293 168.2 37.4592C168.396 37.389 168.608 37.3784 168.809 37.4286C169.079 37.496 169.312 37.668 169.455 37.9067C169.599 38.1454 169.641 38.4313 169.574 38.7015Z" fill="#2F4F4F"/>
<path d="M169.574 38.7015C169.524 38.903 169.415 39.0851 169.261 39.2247C169.107 39.3643 168.916 39.4552 168.71 39.4859C168.505 39.5166 168.295 39.4857 168.107 39.3971C167.919 39.3085 167.762 39.1662 167.655 38.9882C167.548 38.8101 167.496 38.6044 167.506 38.397C167.516 38.1895 167.588 37.9897 167.711 37.8228C167.835 37.6559 168.005 37.5293 168.2 37.4592C168.396 37.389 168.608 37.3784 168.809 37.4286C169.079 37.496 169.312 37.668 169.455 37.9067C169.599 38.1454 169.641 38.4313 169.574 38.7015Z" fill="url(#paint5_linear_11637_9589)"/>
<path d="M165.229 39.1998C165.195 39.3373 165.12 39.4615 165.016 39.5567C164.911 39.652 164.78 39.714 164.64 39.7349C164.5 39.7558 164.357 39.7347 164.228 39.6743C164.1 39.6139 163.993 39.5168 163.92 39.3954C163.847 39.2739 163.812 39.1336 163.819 38.9921C163.825 38.8506 163.874 38.7143 163.958 38.6004C164.042 38.4866 164.159 38.4002 164.292 38.3524C164.425 38.3045 164.57 38.2973 164.707 38.3316C164.891 38.3778 165.05 38.4952 165.148 38.6579C165.245 38.8207 165.275 39.0155 165.229 39.1998Z" fill="#2F4F4F"/>
<path d="M165.229 39.1998C165.195 39.3373 165.12 39.4615 165.016 39.5567C164.911 39.652 164.78 39.714 164.64 39.7349C164.5 39.7558 164.357 39.7347 164.228 39.6743C164.1 39.6139 163.993 39.5168 163.92 39.3954C163.847 39.2739 163.812 39.1336 163.819 38.9921C163.825 38.8506 163.874 38.7143 163.958 38.6004C164.042 38.4866 164.159 38.4002 164.292 38.3524C164.425 38.3045 164.57 38.2973 164.707 38.3316C164.891 38.3778 165.05 38.4952 165.148 38.6579C165.245 38.8207 165.275 39.0155 165.229 39.1998Z" fill="url(#paint6_linear_11637_9589)"/>
<path d="M172.056 12.9392C171.846 13.0976 171.593 13.1902 171.33 13.2051C171.068 13.22 170.806 13.1566 170.579 13.0229C170.352 12.8893 170.17 12.6914 170.056 12.4542C169.942 12.217 169.9 11.9513 169.937 11.6906C169.973 11.4298 170.087 11.1858 170.262 10.9894C170.437 10.793 170.667 10.653 170.922 10.5871C171.177 10.5212 171.446 10.5323 171.694 10.6191C171.943 10.706 172.16 10.8646 172.318 11.0748C172.531 11.3568 172.623 11.7117 172.573 12.0613C172.524 12.4109 172.338 12.7267 172.056 12.9392Z" fill="#2F4F4F"/>
<path d="M172.056 12.9392C171.846 13.0976 171.593 13.1902 171.33 13.2051C171.068 13.22 170.806 13.1566 170.579 13.0229C170.352 12.8893 170.17 12.6914 170.056 12.4542C169.942 12.217 169.9 11.9513 169.937 11.6906C169.973 11.4298 170.087 11.1858 170.262 10.9894C170.437 10.793 170.667 10.653 170.922 10.5871C171.177 10.5212 171.446 10.5323 171.694 10.6191C171.943 10.706 172.16 10.8646 172.318 11.0748C172.531 11.3568 172.623 11.7117 172.573 12.0613C172.524 12.4109 172.338 12.7267 172.056 12.9392Z" fill="url(#paint7_linear_11637_9589)"/>
</g>
<path d="M100.997 129.143C136.661 129.143 165.573 100.234 165.573 64.5716C165.573 28.9097 136.661 0 100.997 0C65.3333 0 36.4219 28.9097 36.4219 64.5716C36.4219 100.234 65.3333 129.143 100.997 129.143Z" fill="#F6F2ED"/>
<path d="M100.997 127.893C135.971 127.893 164.323 99.5432 164.323 64.5716C164.323 29.6001 135.971 1.25 100.997 1.25C66.0236 1.25 37.6719 29.6001 37.6719 64.5716C37.6719 99.5432 66.0236 127.893 100.997 127.893Z" stroke="#002C27" stroke-width="2"/>
<path d="M160.78 65.2079C160.792 73.124 159.229 80.9633 156.182 88.2694C153.134 95.5754 148.663 102.202 143.029 107.763C137.528 113.241 130.999 117.577 123.816 120.523C116.634 123.468 108.939 124.965 101.176 124.926C89.3591 124.949 77.8008 121.466 67.9639 114.918C58.1271 108.37 50.454 99.0516 45.9157 88.1413C41.3775 77.2311 40.1781 65.2199 42.4693 53.6277C44.7606 42.0356 50.4394 31.3837 58.7872 23.0201C67.135 14.6565 77.7765 8.95718 89.3648 6.64351C100.953 4.32983 112.967 5.50587 123.887 10.0226C134.807 14.5393 144.141 22.1937 150.709 32.0172C157.276 41.8407 160.782 53.3915 160.781 65.2079H160.78Z" fill="url(#paint8_linear_11637_9589)"/>
<path d="M101 113C128.062 113 150 91.2858 150 64.5C150 37.7142 128.062 16 101 16C73.938 16 52 37.7142 52 64.5C52 91.2858 73.938 113 101 113Z" fill="#F6F2ED"/>
<path d="M101.5 21C77.4756 21 58 40.6995 58 65C58 89.3005 77.4756 109 101.5 109C125.524 109 145 89.3005 145 65C145 40.6995 125.524 21 101.5 21Z" stroke="#002C27" stroke-width="1.5" stroke-dasharray="1.5 1.5"/>
<path fill-rule="evenodd" clip-rule="evenodd" d="M111.714 68.6392H110.452C110.231 69.7981 109.906 70.9497 109.441 71.998C108.518 74.0724 107.049 75.7335 104.79 76.2281C104.458 76.3018 104.244 76.6339 104.318 76.9734C104.392 77.3055 104.724 77.5197 105.063 77.4459C107.765 76.8554 109.507 74.914 110.578 72.5C111.116 71.2968 111.478 69.9681 111.714 68.6392ZM90.9932 78.8781H87.2213V75.1059H86.0993V80H90.9932V78.8781ZM86.0993 67.8862C85.8925 67.8862 85.7227 67.7166 85.7227 67.5099C85.7227 67.3033 85.8925 67.1409 86.0993 67.1409H90.7643L90.757 67.1262C90.2775 65.7605 90.0559 64.2766 90.1591 62.7412C90.1591 62.7117 90.1665 62.6894 90.1665 62.6675C90.388 59.6703 91.798 57.0424 93.9092 55.2192C96.013 53.3884 98.8109 52.3623 101.808 52.569C102.148 52.569 102.428 52.8495 102.428 53.1964C102.428 53.5359 102.148 53.8164 101.8 53.8164H101.756C99.0916 53.6247 96.5964 54.5325 94.7214 56.164C92.8535 57.7807 91.5986 60.1206 91.4068 62.7928C91.3107 64.1659 91.5028 65.4947 91.9384 66.7126C91.99 66.853 92.0417 66.9931 92.1006 67.1409H93.8131C93.6509 66.8752 93.4811 66.6094 93.2966 66.3436C93.0973 66.0557 93.171 65.6717 93.4589 65.4726C93.7394 65.2806 94.1308 65.3544 94.3225 65.6349C94.6577 66.1224 94.9706 66.6249 95.2603 67.1409H96.6406C95.836 65.7826 95.1272 64.4613 95.4744 62.4903C95.703 61.154 96.3528 60.0763 97.2164 59.2938C98.0506 58.541 99.0841 58.0608 100.162 57.8838C101.247 57.7068 102.384 57.8249 103.41 58.2751C104.473 58.7476 105.418 59.5669 106.067 60.7704C106.075 60.7775 106.075 60.7922 106.082 60.7999C107.145 62.7856 106.776 64.9117 106.245 67.1409H108.119C108.208 66.4101 108.252 65.6791 108.252 64.9707C108.26 63.0661 107.942 61.2871 107.234 60.0322C106.562 58.8361 105.558 57.8692 104.37 57.2344C103.196 56.6215 101.845 56.3265 100.45 56.4445C98.6191 56.6068 97.0098 57.4557 95.8582 58.718C94.6993 59.9805 94.0052 61.6635 94.0052 63.5017C94.0052 63.841 93.7247 64.1217 93.3853 64.1217C93.0383 64.1217 92.7653 63.841 92.7653 63.5017C92.7578 61.3462 93.5773 59.3676 94.9356 57.8766C96.2939 56.3926 98.1908 55.3961 100.339 55.2045C101.993 55.0641 103.58 55.4109 104.945 56.1343C106.355 56.8727 107.536 58.0166 108.326 59.4267C109.138 60.8736 109.5 62.8667 109.5 64.9707C109.5 65.6865 109.456 66.4101 109.375 67.1409H110.674C110.866 65.4429 110.843 63.7968 110.711 62.4829C110.526 60.6743 109.84 59.006 108.791 57.6255C107.736 56.2304 106.304 55.123 104.628 54.466C104.31 54.3406 104.155 53.9789 104.281 53.6613C104.399 53.3368 104.768 53.1817 105.085 53.3073C106.968 54.0453 108.592 55.3002 109.788 56.8727C110.969 58.4376 111.744 60.3199 111.951 62.3498C112.091 63.7081 112.106 65.3913 111.921 67.1409H116.099C116.306 67.1409 116.476 67.3033 116.476 67.5099C116.476 67.7166 116.306 67.8862 116.099 67.8862H86.0993ZM98.0875 67.1408H101.823C101.896 66.9415 101.963 66.7421 102.037 66.5499C102.428 65.48 102.79 64.4833 102.878 63.3094C102.834 62.8519 102.62 62.4457 102.31 62.1507C101.978 61.848 101.542 61.6634 101.07 61.6634C100.597 61.6634 100.162 61.848 99.8366 62.1507C99.512 62.4532 99.2978 62.874 99.261 63.354C99.2389 63.6934 98.9362 63.9518 98.5968 63.9298C98.2498 63.9075 97.9915 63.6048 98.0135 63.2651C98.0725 62.4604 98.4343 61.7518 98.9804 61.2351C99.5341 60.726 100.265 60.4157 101.07 60.4157C101.874 60.4157 102.605 60.726 103.158 61.2351C103.705 61.7446 104.067 62.4604 104.126 63.258V63.3612C104.03 64.7196 103.631 65.812 103.21 66.971L103.151 67.1408H104.96C105.469 65.0443 105.875 63.0513 104.982 61.3902C104.975 61.3756 104.975 61.3679 104.967 61.3609C104.458 60.4233 103.727 59.781 102.9 59.4193C102.103 59.0649 101.217 58.9691 100.368 59.1091C99.512 59.2496 98.6999 59.6259 98.0505 60.2164C97.3859 60.8217 96.8842 61.6635 96.6994 62.7042C96.4115 64.3359 97.1128 65.4947 97.8437 66.7274C97.925 66.8676 98.0063 67.0004 98.0875 67.1408ZM90.9932 51.1293H87.2213V54.8941H86.0993V50H90.9932V51.1293ZM111.205 51.1293H114.97V54.8941H116.099V50H111.205V51.1293ZM111.205 78.8781H114.97V75.1059H116.099V80H111.205V78.8781ZM91.429 68.6392C91.8791 69.4807 92.4327 70.2558 93.0825 70.9422C93.3188 71.2006 93.7099 71.2081 93.961 70.9794C94.212 70.7432 94.2266 70.3444 93.9978 70.0934C93.5771 69.6432 93.2005 69.1559 92.8683 68.6392H91.429ZM96.013 68.6392C96.1166 68.8829 96.205 69.1191 96.2861 69.3555C96.6996 70.5366 96.8401 71.6142 96.6996 72.596C96.6554 72.9357 96.3382 73.1715 95.9983 73.1274C95.6588 73.0756 95.4152 72.7658 95.4668 72.4188C95.5777 71.6363 95.4595 70.7505 95.1126 69.7613C94.9796 69.3774 94.8218 69.0026 94.6402 68.6392H96.013ZM101.343 68.6392C100.819 70.5659 100.56 73.0094 101.395 76.8628C101.412 76.9434 101.445 77.0197 101.492 77.0875C101.539 77.1553 101.598 77.2132 101.668 77.2578C101.737 77.3024 101.814 77.3329 101.895 77.3474C101.977 77.362 102.06 77.3604 102.14 77.3428C102.472 77.2687 102.687 76.9364 102.612 76.597C101.793 72.8027 102.103 70.4773 102.642 68.6392H101.343ZM107.876 68.6392C107.699 69.5029 107.47 70.3371 107.182 71.1048C107.064 71.4295 107.233 71.7838 107.551 71.9094C107.876 72.0276 108.237 71.8578 108.356 71.5329C108.688 70.6324 108.953 69.6506 109.145 68.6392H107.876ZM105.875 68.6392C105.455 70.4255 105.115 72.249 105.565 73.9836C105.654 74.3159 105.455 74.6556 105.123 74.7441C104.79 74.8329 104.451 74.6334 104.362 74.3013C103.86 72.3746 104.17 70.4773 104.598 68.6392H105.875ZM98.8626 68.6392C98.9216 68.7719 98.9732 68.905 99.0248 69.0451C99.2834 69.7614 99.7336 71.5699 99.8516 73.0906C99.9404 74.1978 99.8367 75.2093 99.3647 75.7261C99.2906 75.7998 99.2169 75.8661 99.1284 75.925C98.7592 76.1687 98.2205 76.2575 97.6667 76.1614C97.1501 76.0729 96.5964 75.8293 96.1387 75.4013C95.9615 75.2386 95.7992 75.0541 95.6588 74.8399C95.4668 74.5521 95.5481 74.1609 95.836 73.9763C96.1166 73.7846 96.5076 73.8657 96.6996 74.1462C96.7808 74.279 96.8768 74.3899 96.9802 74.4857C97.2534 74.7366 97.5781 74.877 97.8734 74.9287C98.1244 74.9728 98.3311 74.9508 98.4418 74.8845V74.877C98.6485 74.6631 98.6708 73.9836 98.6117 73.1865C98.5009 71.7691 98.0876 70.1154 97.8513 69.4734C97.748 69.1854 97.6296 68.905 97.4896 68.6392H98.8626Z" fill="black"/>
<path fill-rule="evenodd" clip-rule="evenodd" d="M111.714 68.6392H110.452C110.231 69.7981 109.906 70.9497 109.441 71.998C108.518 74.0724 107.049 75.7335 104.79 76.2281C104.458 76.3018 104.244 76.6339 104.318 76.9734C104.392 77.3055 104.724 77.5197 105.063 77.4459C107.765 76.8554 109.507 74.914 110.578 72.5C111.116 71.2968 111.478 69.9681 111.714 68.6392ZM90.9932 78.8781H87.2213V75.1059H86.0993V80H90.9932V78.8781ZM86.0993 67.8862C85.8925 67.8862 85.7227 67.7166 85.7227 67.5099C85.7227 67.3033 85.8925 67.1409 86.0993 67.1409H90.7643L90.757 67.1262C90.2775 65.7605 90.0559 64.2766 90.1591 62.7412C90.1591 62.7117 90.1665 62.6894 90.1665 62.6675C90.388 59.6703 91.798 57.0424 93.9092 55.2192C96.013 53.3884 98.8109 52.3623 101.808 52.569C102.148 52.569 102.428 52.8495 102.428 53.1964C102.428 53.5359 102.148 53.8164 101.8 53.8164H101.756C99.0916 53.6247 96.5964 54.5325 94.7214 56.164C92.8535 57.7807 91.5986 60.1206 91.4068 62.7928C91.3107 64.1659 91.5028 65.4947 91.9384 66.7126C91.99 66.853 92.0417 66.9931 92.1006 67.1409H93.8131C93.6509 66.8752 93.4811 66.6094 93.2966 66.3436C93.0973 66.0557 93.171 65.6717 93.4589 65.4726C93.7394 65.2806 94.1308 65.3544 94.3225 65.6349C94.6577 66.1224 94.9706 66.6249 95.2603 67.1409H96.6406C95.836 65.7826 95.1272 64.4613 95.4744 62.4903C95.703 61.154 96.3528 60.0763 97.2164 59.2938C98.0506 58.541 99.0841 58.0608 100.162 57.8838C101.247 57.7068 102.384 57.8249 103.41 58.2751C104.473 58.7476 105.418 59.5669 106.067 60.7704C106.075 60.7775 106.075 60.7922 106.082 60.7999C107.145 62.7856 106.776 64.9117 106.245 67.1409H108.119C108.208 66.4101 108.252 65.6791 108.252 64.9707C108.26 63.0661 107.942 61.2871 107.234 60.0322C106.562 58.8361 105.558 57.8692 104.37 57.2344C103.196 56.6215 101.845 56.3265 100.45 56.4445C98.6191 56.6068 97.0098 57.4557 95.8582 58.718C94.6993 59.9805 94.0052 61.6635 94.0052 63.5017C94.0052 63.841 93.7247 64.1217 93.3853 64.1217C93.0383 64.1217 92.7653 63.841 92.7653 63.5017C92.7578 61.3462 93.5773 59.3676 94.9356 57.8766C96.2939 56.3926 98.1908 55.3961 100.339 55.2045C101.993 55.0641 103.58 55.4109 104.945 56.1343C106.355 56.8727 107.536 58.0166 108.326 59.4267C109.138 60.8736 109.5 62.8667 109.5 64.9707C109.5 65.6865 109.456 66.4101 109.375 67.1409H110.674C110.866 65.4429 110.843 63.7968 110.711 62.4829C110.526 60.6743 109.84 59.006 108.791 57.6255C107.736 56.2304 106.304 55.123 104.628 54.466C104.31 54.3406 104.155 53.9789 104.281 53.6613C104.399 53.3368 104.768 53.1817 105.085 53.3073C106.968 54.0453 108.592 55.3002 109.788 56.8727C110.969 58.4376 111.744 60.3199 111.951 62.3498C112.091 63.7081 112.106 65.3913 111.921 67.1409H116.099C116.306 67.1409 116.476 67.3033 116.476 67.5099C116.476 67.7166 116.306 67.8862 116.099 67.8862H86.0993ZM98.0875 67.1408H101.823C101.896 66.9415 101.963 66.7421 102.037 66.5499C102.428 65.48 102.79 64.4833 102.878 63.3094C102.834 62.8519 102.62 62.4457 102.31 62.1507C101.978 61.848 101.542 61.6634 101.07 61.6634C100.597 61.6634 100.162 61.848 99.8366 62.1507C99.512 62.4532 99.2978 62.874 99.261 63.354C99.2389 63.6934 98.9362 63.9518 98.5968 63.9298C98.2498 63.9075 97.9915 63.6048 98.0135 63.2651C98.0725 62.4604 98.4343 61.7518 98.9804 61.2351C99.5341 60.726 100.265 60.4157 101.07 60.4157C101.874 60.4157 102.605 60.726 103.158 61.2351C103.705 61.7446 104.067 62.4604 104.126 63.258V63.3612C104.03 64.7196 103.631 65.812 103.21 66.971L103.151 67.1408H104.96C105.469 65.0443 105.875 63.0513 104.982 61.3902C104.975 61.3756 104.975 61.3679 104.967 61.3609C104.458 60.4233 103.727 59.781 102.9 59.4193C102.103 59.0649 101.217 58.9691 100.368 59.1091C99.512 59.2496 98.6999 59.6259 98.0505 60.2164C97.3859 60.8217 96.8842 61.6635 96.6994 62.7042C96.4115 64.3359 97.1128 65.4947 97.8437 66.7274C97.925 66.8676 98.0063 67.0004 98.0875 67.1408ZM90.9932 51.1293H87.2213V54.8941H86.0993V50H90.9932V51.1293ZM111.205 51.1293H114.97V54.8941H116.099V50H111.205V51.1293ZM111.205 78.8781H114.97V75.1059H116.099V80H111.205V78.8781ZM91.429 68.6392C91.8791 69.4807 92.4327 70.2558 93.0825 70.9422C93.3188 71.2006 93.7099 71.2081 93.961 70.9794C94.212 70.7432 94.2266 70.3444 93.9978 70.0934C93.5771 69.6432 93.2005 69.1559 92.8683 68.6392H91.429ZM96.013 68.6392C96.1166 68.8829 96.205 69.1191 96.2861 69.3555C96.6996 70.5366 96.8401 71.6142 96.6996 72.596C96.6554 72.9357 96.3382 73.1715 95.9983 73.1274C95.6588 73.0756 95.4152 72.7658 95.4668 72.4188C95.5777 71.6363 95.4595 70.7505 95.1126 69.7613C94.9796 69.3774 94.8218 69.0026 94.6402 68.6392H96.013ZM101.343 68.6392C100.819 70.5659 100.56 73.0094 101.395 76.8628C101.412 76.9434 101.445 77.0197 101.492 77.0875C101.539 77.1553 101.598 77.2132 101.668 77.2578C101.737 77.3024 101.814 77.3329 101.895 77.3474C101.977 77.362 102.06 77.3604 102.14 77.3428C102.472 77.2687 102.687 76.9364 102.612 76.597C101.793 72.8027 102.103 70.4773 102.642 68.6392H101.343ZM107.876 68.6392C107.699 69.5029 107.47 70.3371 107.182 71.1048C107.064 71.4295 107.233 71.7838 107.551 71.9094C107.876 72.0276 108.237 71.8578 108.356 71.5329C108.688 70.6324 108.953 69.6506 109.145 68.6392H107.876ZM105.875 68.6392C105.455 70.4255 105.115 72.249 105.565 73.9836C105.654 74.3159 105.455 74.6556 105.123 74.7441C104.79 74.8329 104.451 74.6334 104.362 74.3013C103.86 72.3746 104.17 70.4773 104.598 68.6392H105.875ZM98.8626 68.6392C98.9216 68.7719 98.9732 68.905 99.0248 69.0451C99.2834 69.7614 99.7336 71.5699 99.8516 73.0906C99.9404 74.1978 99.8367 75.2093 99.3647 75.7261C99.2906 75.7998 99.2169 75.8661 99.1284 75.925C98.7592 76.1687 98.2205 76.2575 97.6667 76.1614C97.1501 76.0729 96.5964 75.8293 96.1387 75.4013C95.9615 75.2386 95.7992 75.0541 95.6588 74.8399C95.4668 74.5521 95.5481 74.1609 95.836 73.9763C96.1166 73.7846 96.5076 73.8657 96.6996 74.1462C96.7808 74.279 96.8768 74.3899 96.9802 74.4857C97.2534 74.7366 97.5781 74.877 97.8734 74.9287C98.1244 74.9728 98.3311 74.9508 98.4418 74.8845V74.877C98.6485 74.6631 98.6708 73.9836 98.6117 73.1865C98.5009 71.7691 98.0876 70.1154 97.8513 69.4734C97.748 69.1854 97.6296 68.905 97.4896 68.6392H98.8626Z" fill="url(#paint9_linear_11637_9589)"/>
<defs>
<linearGradient id="paint0_linear_11637_9589" x1="41.7527" y1="67.749" x2="41.7527" y2="133.977" gradientUnits="userSpaceOnUse">
<stop stop-color="#00836A"/>
<stop offset="1" stop-color="#073E39"/>
</linearGradient>
<linearGradient id="paint1_linear_11637_9589" x1="54.3957" y1="138.807" x2="50.8259" y2="143.215" gradientUnits="userSpaceOnUse">
<stop stop-color="#00836A"/>
<stop offset="1" stop-color="#073E39"/>
</linearGradient>
<linearGradient id="paint2_linear_11637_9589" x1="63.4589" y1="134.214" x2="61.0203" y2="137.225" gradientUnits="userSpaceOnUse">
<stop stop-color="#00836A"/>
<stop offset="1" stop-color="#073E39"/>
</linearGradient>
<linearGradient id="paint3_linear_11637_9589" x1="3.59774" y1="84.4667" x2="3.59774" y2="91.6617" gradientUnits="userSpaceOnUse">
<stop stop-color="#00836A"/>
<stop offset="1" stop-color="#073E39"/>
</linearGradient>
<linearGradient id="paint4_linear_11637_9589" x1="155.448" y1="14.3684" x2="170.201" y2="33.951" gradientUnits="userSpaceOnUse">
<stop stop-color="#00836A"/>
<stop offset="1" stop-color="#073E39"/>
</linearGradient>
<linearGradient id="paint5_linear_11637_9589" x1="169.574" y1="38.7015" x2="167.536" y2="38.1933" gradientUnits="userSpaceOnUse">
<stop stop-color="#00836A"/>
<stop offset="1" stop-color="#073E39"/>
</linearGradient>
<linearGradient id="paint6_linear_11637_9589" x1="165.229" y1="39.1998" x2="163.839" y2="38.8532" gradientUnits="userSpaceOnUse">
<stop stop-color="#00836A"/>
<stop offset="1" stop-color="#073E39"/>
</linearGradient>
<linearGradient id="paint7_linear_11637_9589" x1="170.454" y1="10.8127" x2="172.056" y2="12.9393" gradientUnits="userSpaceOnUse">
<stop stop-color="#00836A"/>
<stop offset="1" stop-color="#073E39"/>
</linearGradient>
<linearGradient id="paint8_linear_11637_9589" x1="101.059" y1="5.48755" x2="101.059" y2="124.926" gradientUnits="userSpaceOnUse">
<stop stop-color="#00836A"/>
<stop offset="1" stop-color="#073E39"/>
</linearGradient>
<linearGradient id="paint9_linear_11637_9589" x1="101.099" y1="50" x2="101.099" y2="80" gradientUnits="userSpaceOnUse">
<stop stop-color="#00836A"/>
<stop offset="1" stop-color="#073E39"/>
</linearGradient>
</defs>
</svg>
