<svg xmlns="http://www.w3.org/2000/svg" width="26.31" height="17.972" viewBox="0 0 26.31 17.972">
  <g id="bird" transform="translate(-0.971 -1.97)">
    <path id="Path_119878" data-name="Path 119878" d="M7.783,2.006A4.779,4.779,0,0,0,6.6,11.416a5.376,5.376,0,0,0,9.829,2.535H25.7a1.2,1.2,0,0,0,1.16-.933,1.221,1.221,0,0,0-.634-1.351L11.992,4.553A4.781,4.781,0,0,0,7.735,1.97Z" transform="translate(0.397)" fill="#2F4F4F" fill-rule="evenodd"/>
    <path id="Path_119879" data-name="Path 119879" d="M1.352,7.681,3.744,5.29,5.43,6.976l-.359.347h.1V9.714H2.177a1.215,1.215,0,0,1-1.112-.741,1.19,1.19,0,0,1,.251-1.3Z" transform="translate(0 0.65)" fill="#2F4F4F" fill-rule="evenodd"/>
    <path id="Path_119880" data-name="Path 119880" d="M9,17.783V13h2.391v4.783Z" transform="translate(1.572 2.159)" fill="#2F4F4F" fill-rule="evenodd"/>
  </g>
</svg>
