<svg id="BitBox" xmlns="http://www.w3.org/2000/svg" xmlns:xlink="http://www.w3.org/1999/xlink" width="13.409" height="15.794" viewBox="0 0 13.409 15.794">
  <defs>
    <clipPath id="clip-path">
      <rect id="Rectangle_8295" data-name="Rectangle 8295" width="13.409" height="15.794" fill="#3c3c3c"/>
    </clipPath>
  </defs>
  <g id="Group_44005" data-name="Group 44005" transform="translate(0 0)">
    <g id="Group_44004" data-name="Group 44004" clip-path="url(#clip-path)">
      <path id="Path_118329" data-name="Path 118329" d="M5.961.336q0,4.365,0,8.73c0,.07.005.14.008.211,0,.006-.007.012-.006.017a.187.187,0,0,0,.013.03,2.82,2.82,0,0,1-.832.417c-1,.405-1.98.866-2.975,1.288-.634.269-1.264.549-1.9.819-.26.111-.273.1-.273-.181,0-1.048,0-2.1,0-3.145a.3.3,0,0,1,.231-.338c.884-.362,1.755-.757,2.635-1.127.165-.069.132-.186.132-.3,0-1.621.024-3.242-.012-4.862a.772.772,0,0,1,.577-.9C4.318.718,5.035.339,5.788.05c.087-.033.164-.116.173.056" transform="translate(0 -0.001)" fill="#3c3c3c"/>
      <path id="Path_118330" data-name="Path 118330" d="M139.9,5.681c0-1.472,0-2.945,0-4.417,0-.108-.121-.326.206-.183.611.268,1.223.535,1.833.807a7.51,7.51,0,0,0,.7.3.281.281,0,0,1,.236.329c0,1.737,0,3.474-.008,5.21a.351.351,0,0,0,.24.389c.638.27,1.264.567,1.907.827a3.546,3.546,0,0,1,.731.333.2.2,0,0,1,.107.2c0,1.084-.006,2.169,0,3.253,0,.25-.133.231-.269.159-.76-.4-1.565-.7-2.356-1.032-.422-.176-.831-.38-1.26-.543-.669-.255-1.316-.567-1.971-.857-.086-.038-.088-.118-.088-.2,0-.581-.013-1.163-.014-1.744,0-.943,0-1.887,0-2.83" transform="translate(-132.45 -0.979)" fill="#3c3c3c"/>
      <path id="Path_118331" data-name="Path 118331" d="M27.611,204.47a1.629,1.629,0,0,1-.3.181c-.826.285-1.6.7-2.406,1.022-.962.387-1.9.825-2.844,1.264a.838.838,0,0,1-.745-.056c-.4-.171-.8-.356-1.194-.531-.723-.318-1.439-.651-2.172-.945-.605-.243-1.17-.578-1.8-.766-.075-.022-.269-.055-.251-.194.01-.076.176-.068.261-.111.593-.3,1.219-.52,1.816-.811.386-.188.8-.342,1.2-.509.769-.321,1.542-.638,2.29-1a.816.816,0,0,1,.752.052c.526.221,1.048.454,1.568.683.912.4,1.828.8,2.732,1.22.322.15.66.267.988.406.04.017.114.013.111.1" transform="translate(-15.052 -191.208)" fill="#3c3c3c"/>
    </g>
  </g>
</svg>
