<svg width="35" height="41" viewBox="0 0 35 41" fill="none" xmlns="http://www.w3.org/2000/svg">
<mask id="mask0_2667_5955" style="mask-type:luminance" maskUnits="userSpaceOnUse" x="0" y="0" width="35" height="41">
<path d="M34.7643 0H0.0683594V40.8664H34.7643V0Z" fill="white"/>
</mask>
<g mask="url(#mask0_2667_5955)">
<path d="M15.4944 0.858692C15.4944 8.3886 15.4979 15.9214 15.5051 23.457C15.5051 23.6378 15.5202 23.8207 15.5266 24.0015C15.5266 24.0166 15.5073 24.0317 15.5116 24.0446C15.5208 24.0714 15.5323 24.0973 15.546 24.1221C14.8931 24.5974 14.1658 24.9611 13.3938 25.1982C10.8004 26.2463 8.26935 27.4386 5.69529 28.5298C4.05315 29.225 2.42607 29.9503 0.786077 30.6497C0.112431 30.9403 0.069387 30.908 0.069387 30.1827C0.069387 27.4709 0.069387 24.757 0.069387 22.0452C0.0416806 21.8511 0.0877645 21.6536 0.198538 21.4919C0.309311 21.3301 0.47672 21.2157 0.667705 21.1714C2.95336 20.2287 5.20674 19.2128 7.48379 18.253C7.91424 18.0743 7.82384 17.7709 7.82599 17.476C7.82599 13.2813 7.88841 9.08233 7.79371 4.89411C7.69446 4.38882 7.79419 3.86473 8.0721 3.43122C8.35001 2.99772 8.78462 2.6883 9.2852 2.56756C11.2416 1.85517 13.0968 0.87591 15.0467 0.126936C15.2619 0.0408474 15.4771 -0.172223 15.4944 0.273287" fill="#41594C"/>
<path d="M19.3388 12.1645C19.3388 8.35502 19.3388 4.54559 19.3388 0.736153C19.3388 0.456364 19.0246 -0.107518 19.8704 0.262664C21.4523 0.95568 23.0364 1.64654 24.6053 2.35032C25.1974 2.63775 25.8036 2.89491 26.4218 3.12081C26.5197 3.13444 26.6139 3.16795 26.6984 3.21928C26.7829 3.27061 26.856 3.33868 26.9133 3.41931C26.9705 3.49993 27.0107 3.59141 27.0313 3.68813C27.0519 3.78484 27.0525 3.88475 27.033 3.9817C27.033 8.47554 27.033 12.9694 27.0115 17.4632C26.9776 17.6772 27.0215 17.8962 27.1352 18.0806C27.2489 18.265 27.425 18.4025 27.6314 18.4683C29.2821 19.1678 30.9006 19.9361 32.5664 20.6076C33.2268 20.8222 33.8608 21.111 34.456 21.4685C34.5488 21.5178 34.6246 21.5938 34.6737 21.6866C34.7228 21.7795 34.743 21.8849 34.7315 21.9893C34.7315 24.7872 34.7165 27.6002 34.7423 30.4067C34.7423 31.0523 34.3979 31.005 34.045 30.8199C32.08 29.7804 29.9945 29.0034 27.9499 28.1512C26.8587 27.6949 25.7977 27.1676 24.6893 26.7458C22.9675 26.085 21.2845 25.2779 19.5885 24.529C19.3733 24.43 19.3625 24.2233 19.3604 24.0103C19.3604 22.5037 19.3281 20.9972 19.3238 19.4906C19.3238 17.05 19.3238 14.6094 19.3238 12.1731" fill="#41594C"/>
<path d="M32.5663 34.3151C32.3248 34.4983 32.0644 34.6549 31.7893 34.7821C29.6522 35.5204 27.6571 36.5835 25.5651 37.4251C23.075 38.428 20.6387 39.5601 18.2067 40.6965C17.8948 40.8248 17.5574 40.8785 17.2211 40.8535C16.8848 40.8285 16.5591 40.7253 16.2697 40.5523C15.2323 40.1089 14.2121 39.6311 13.1791 39.177C11.3088 38.3548 9.45573 37.4918 7.55962 36.732C5.9928 36.1036 4.53144 35.2363 2.90006 34.7499C2.70636 34.6918 2.20489 34.6056 2.25439 34.2462C2.28022 34.0504 2.71066 34.0698 2.92804 33.96C4.46257 33.1895 6.08105 32.6148 7.62634 31.8616C8.62497 31.3752 9.68601 30.9748 10.7234 30.5444C12.7142 29.7136 14.7136 28.8936 16.6485 27.9467C16.9586 27.8126 17.2964 27.755 17.6335 27.7786C17.9705 27.8022 18.297 27.9063 18.5855 28.0823C19.9457 28.6548 21.2973 29.2574 22.6445 29.8514C25.012 30.8931 27.3794 31.9154 29.7124 33.0087C30.5453 33.3983 31.4191 33.6996 32.2671 34.059C32.3704 34.102 32.562 34.0934 32.5555 34.3173" fill="#41594C"/>
</g>
</svg>
