<svg width="77" height="13" viewBox="0 0 77 13" fill="none" xmlns="http://www.w3.org/2000/svg">
<path d="M5.86387 12.6642H0V0.0772206H6.28483C6.91532 0.0250584 7.54953 0.119361 8.13525 0.352367C8.72098 0.585373 9.24146 0.950417 9.65386 1.41745C10.0602 1.97867 10.2696 2.65251 10.251 3.33881C10.2846 4.00601 10.0729 4.66305 9.65386 5.1921C9.37898 5.49302 9.04461 5.73695 8.67072 5.90934C9.2827 6.10624 9.80924 6.49699 10.1663 7.01922C10.5158 7.57282 10.6912 8.21391 10.6706 8.86336C10.6803 9.57395 10.4775 10.272 10.0869 10.8724C9.84851 11.2575 9.53565 11.594 9.16565 11.8632C8.73093 12.1791 8.22838 12.3952 7.69565 12.4953C7.09253 12.612 6.47877 12.6685 5.86387 12.6642ZM5.802 7.12131H2.58091V10.4771H5.75762C6.21057 10.4976 6.66265 10.4216 7.08237 10.2546C7.37104 10.107 7.60739 9.87827 7.76066 9.59816C7.91393 9.31805 7.97704 8.99954 7.94177 8.68405C7.96542 8.40249 7.89767 8.12081 7.74807 7.87872C7.59846 7.63662 7.37456 7.44633 7.10792 7.33465C6.69152 7.17986 6.24749 7.10777 5.802 7.12262V7.12131ZM7.14692 4.72224C7.32921 4.60239 7.47448 4.43646 7.56714 4.2423C7.65979 4.04813 7.69631 3.83306 7.67279 3.62021C7.70006 3.3789 7.64644 3.13548 7.51991 2.92626C7.39339 2.71704 7.20075 2.55324 6.97074 2.45928C6.46988 2.31527 5.94883 2.24901 5.42677 2.26295H2.58091V5.03897H5.75762C6.24077 5.05921 6.72037 4.95011 7.14423 4.72355L7.14692 4.72224ZM15.4854 3.35582V12.6642H12.9489V3.35582H15.4854ZM15.4854 0V2.24594H12.9489V0H15.4854ZM22.4656 10.9313V12.7506L21.2807 12.7938C20.8566 12.8583 20.4235 12.8385 20.0074 12.7357C19.5914 12.6329 19.201 12.4492 18.8599 12.1956C18.5507 11.8365 18.3994 11.3733 18.4389 10.9064V5.1764H17.1047V3.44221H18.4389V0.8455H20.9136V3.44221H22.4602V5.1764H20.9122V10.095C20.8779 10.3423 20.9306 10.5937 21.0615 10.8083C21.3457 10.9395 21.6627 10.9886 21.9747 10.9496C22.0509 10.9496 22.1312 10.9496 22.2154 10.9496C22.2997 10.9496 22.3813 10.9435 22.4602 10.9313H22.4656ZM30.359 12.6642H24.4964V0.0772206H30.7799C31.4104 0.0250584 32.0446 0.119361 32.6303 0.352367C33.2161 0.585373 33.7365 0.950417 34.149 1.41745C34.5553 1.97867 34.7647 2.65251 34.7461 3.33881C34.7797 4.00601 34.568 4.66305 34.149 5.1921C33.8741 5.49302 33.5397 5.73695 33.1658 5.90934C33.7778 6.10624 34.3043 6.49699 34.6614 7.01922C35.0109 7.57282 35.1862 8.21391 35.1657 8.86336C35.1761 9.57267 34.9748 10.2697 34.5861 10.8698C34.3476 11.2549 34.0348 11.5913 33.6648 11.8606C33.2301 12.1765 32.7275 12.3926 32.1948 12.4927C31.5904 12.6105 30.9753 12.6679 30.359 12.6642ZM30.2971 7.12131H27.0773V10.4771H30.2541C30.707 10.4976 31.1591 10.4216 31.5788 10.2546C31.8675 10.107 32.1038 9.87827 32.2571 9.59816C32.4104 9.31805 32.4735 8.99954 32.4382 8.68405C32.4619 8.40249 32.3941 8.12081 32.2445 7.87872C32.0949 7.63662 31.871 7.44633 31.6044 7.33465C31.1875 7.17969 30.743 7.10759 30.2971 7.12262V7.12131ZM31.642 4.72224C31.8243 4.60239 31.9696 4.43646 32.0622 4.2423C32.1549 4.04813 32.1914 3.83306 32.1679 3.62021C32.1965 3.37888 32.1441 3.13504 32.0185 2.92509C31.8929 2.71514 31.7009 2.55036 31.4712 2.45535C30.9704 2.31134 30.4493 2.24509 29.9272 2.25903H27.0773V5.03504H30.2541C30.7368 5.05648 31.2164 4.94874 31.6407 4.72355L31.642 4.72224ZM45.3885 4.53376C46.1981 5.52525 46.6262 6.76088 46.5989 8.02702C46.6322 9.29763 46.2035 10.5389 45.3885 11.532C44.9332 12.0351 44.3641 12.4284 43.726 12.681C43.0879 12.9335 42.3983 13.0384 41.7115 12.9875C41.0246 13.0384 40.335 12.9335 39.6969 12.681C39.0588 12.4284 38.4897 12.0351 38.0344 11.532C37.2194 10.5389 36.7907 9.29763 36.824 8.02702C36.7967 6.76088 37.2248 5.52525 38.0344 4.53376C38.486 4.02491 39.0539 3.62616 39.6924 3.36954C40.331 3.11292 41.0225 3.00556 41.7115 3.0561C42.4001 3.00614 43.0911 3.1139 43.7292 3.37074C44.3673 3.62758 44.9346 4.02635 45.3858 4.53507L45.3885 4.53376ZM41.7034 5.11488C41.38 5.09816 41.0573 5.15816 40.7631 5.28972C40.4688 5.42127 40.2118 5.62044 40.0142 5.87007C39.5803 6.50647 39.3725 7.26356 39.4224 8.02571C39.3728 8.78947 39.5806 9.54813 40.0142 10.1866C40.211 10.4374 40.4677 10.6378 40.762 10.7703C41.0564 10.9028 41.3795 10.9635 41.7034 10.947C42.0267 10.9638 42.3494 10.9033 42.6432 10.7708C42.9369 10.6382 43.1929 10.4376 43.3886 10.1866C43.8196 9.54715 44.0258 8.78891 43.9763 8.02571C44.0259 7.26414 43.8196 6.50754 43.3886 5.87007C43.1916 5.6201 42.9349 5.42075 42.6407 5.28936C42.3466 5.15797 42.0239 5.09852 41.7007 5.11619L41.7034 5.11488ZM57.088 12.6642H53.9731L52.3175 9.87246L50.6646 12.6642H47.6278L50.8919 7.95241L47.7676 3.37153H50.83L52.4265 6.07033L53.9906 3.37153H56.9656L53.8238 7.90791L57.088 12.6642ZM62.4367 0.435836C63.1563 0.393335 63.8731 0.5556 64.4995 0.902825C65.1259 1.25005 65.635 1.76722 65.9645 2.39122C66.5882 3.68403 66.8773 5.10579 66.8064 6.53234C66.8548 7.94418 66.5944 9.34991 66.0425 10.6564C65.7653 11.3643 65.268 11.9703 64.6199 12.3898C63.9718 12.8093 63.2053 13.0215 62.4273 12.9966C61.7366 13.0239 61.0524 12.8583 60.4553 12.5192C59.8583 12.1801 59.3736 11.6818 59.0583 11.0831C58.3832 9.75329 58.0662 8.27839 58.137 6.79672C58.109 5.58192 58.296 4.37149 58.6898 3.2184C58.8987 2.41044 59.383 1.69533 60.0636 1.18991C60.7442 0.684487 61.5808 0.418649 62.4367 0.435836ZM62.4192 11.5975C62.8121 11.6028 63.1995 11.5079 63.5428 11.3221C63.8862 11.1363 64.1735 10.8662 64.3761 10.5387C64.9742 9.30988 65.2258 7.94843 65.1051 6.59385C65.1417 5.42942 64.9636 4.26801 64.5792 3.16474C64.4416 2.75064 64.1656 2.39324 63.7951 2.14942C63.4247 1.9056 62.9811 1.78939 62.5349 1.81926C62.102 1.80572 61.6751 1.92049 61.3107 2.14838C60.9464 2.37627 60.6618 2.70652 60.4947 3.09537C60 4.28837 59.7797 5.57226 59.8491 6.85693C59.8151 7.87566 59.9546 8.89283 60.262 9.86722C60.3681 10.3502 60.6391 10.7841 61.0308 11.0982C61.4224 11.4124 61.9118 11.5883 62.4192 11.5975ZM68.3114 12.6655C68.3449 11.7148 68.5736 10.7803 68.9838 9.91696C69.5099 9.00444 70.3023 8.26427 71.2608 7.79012L72.946 6.84253C73.5195 6.54301 74.0529 6.17597 74.5343 5.74966C74.7608 5.54057 74.9414 5.28893 75.065 5.00997C75.1887 4.73101 75.2529 4.43054 75.2538 4.12672C75.2709 3.81429 75.2213 3.50182 75.1081 3.20898C74.9949 2.91614 74.8206 2.64929 74.5962 2.42525C74.3625 2.21233 74.0875 2.04707 73.7872 1.93917C73.487 1.83128 73.1675 1.78294 72.8478 1.79701C72.3938 1.75632 71.9376 1.84827 71.5375 2.06112C71.1374 2.27397 70.8116 2.59806 70.6018 2.99197C70.3501 3.55162 70.2244 4.15721 70.2333 4.76805H68.618C68.5964 3.86461 68.8042 2.96996 69.2232 2.16349C69.5932 1.56442 70.13 1.07963 70.7715 0.765291C71.413 0.450954 72.1329 0.319934 72.8478 0.387411C73.4273 0.337592 74.011 0.413663 74.5567 0.610131C75.1023 0.806599 75.5963 1.11856 76.003 1.52347C76.6431 2.21808 76.9978 3.1178 76.9996 4.05081C77.0072 4.51744 76.917 4.98068 76.7345 5.41228C76.5521 5.84388 76.2812 6.23478 75.9384 6.56113C75.272 7.14077 74.5316 7.63434 73.7354 8.02963L72.5331 8.68405C72.0546 8.93091 71.6038 9.22568 71.1881 9.56358C70.6511 9.98639 70.2644 10.5629 70.0826 11.2114H76.9417V12.6642L68.3114 12.6655Z" fill="white"/>
</svg>
