<svg xmlns="http://www.w3.org/2000/svg" width="57.25" height="9.931" viewBox="0 0 57.25 9.931">
  <g id="Bitboxlogo" transform="translate(-2267.402 20576.775)">
    <path id="Path_118332" data-name="Path 118332" d="M6.56-10.6H2.2v-9.617H6.873a2.971,2.971,0,0,1,2.505,1.024,2.437,2.437,0,0,1,.444,1.468,2.147,2.147,0,0,1-.444,1.416,2.29,2.29,0,0,1-.731.548,2.144,2.144,0,0,1,1.112.848,2.542,2.542,0,0,1,.375,1.409A2.8,2.8,0,0,1,9.7-11.969a2.658,2.658,0,0,1-.685.757,2.674,2.674,0,0,1-1.093.483A6.737,6.737,0,0,1,6.56-10.6Zm-.046-4.235H4.119v2.564H6.481a2.319,2.319,0,0,0,.985-.17,1.208,1.208,0,0,0,.639-1.2,1.031,1.031,0,0,0-.62-1.031A2.483,2.483,0,0,0,6.514-14.834Zm1-1.833a.9.9,0,0,0,.391-.842.86.86,0,0,0-.522-.887,3.694,3.694,0,0,0-1.148-.15H4.119v2.121H6.481A1.966,1.966,0,0,0,7.512-16.667Zm6.2-1.044V-10.6H11.828v-7.112Zm0-2.564v1.716H11.828v-1.716Zm5.19,8.352v1.39l-.881.033a2.364,2.364,0,0,1-1.8-.457,1.36,1.36,0,0,1-.313-.985v-4.378h-.992v-1.325h.992v-1.984h1.84v1.984H18.9v1.325H17.749v3.758a.846.846,0,0,0,.111.545,1.221,1.221,0,0,0,.679.108q.085,0,.179,0T18.9-11.924ZM24.773-10.6H20.414v-9.617h4.672a2.971,2.971,0,0,1,2.505,1.024,2.437,2.437,0,0,1,.444,1.468,2.147,2.147,0,0,1-.444,1.416,2.29,2.29,0,0,1-.731.548,2.144,2.144,0,0,1,1.112.848,2.542,2.542,0,0,1,.375,1.409,2.8,2.8,0,0,1-.431,1.533,2.658,2.658,0,0,1-.685.757,2.674,2.674,0,0,1-1.093.483A6.737,6.737,0,0,1,24.773-10.6Zm-.046-4.235H22.333v2.564h2.362a2.319,2.319,0,0,0,.985-.17,1.208,1.208,0,0,0,.639-1.2,1.031,1.031,0,0,0-.62-1.031A2.483,2.483,0,0,0,24.727-14.834Zm1-1.833a.9.9,0,0,0,.391-.842A.86.86,0,0,0,25.6-18.4a3.694,3.694,0,0,0-1.148-.15H22.333v2.121h2.362A1.966,1.966,0,0,0,25.726-16.667Zm10.221-.144a4.15,4.15,0,0,1,.9,2.669,4.123,4.123,0,0,1-.9,2.678,3.308,3.308,0,0,1-2.734,1.112,3.308,3.308,0,0,1-2.734-1.112,4.123,4.123,0,0,1-.9-2.678,4.15,4.15,0,0,1,.9-2.669,3.286,3.286,0,0,1,2.734-1.129A3.286,3.286,0,0,1,35.946-16.811Zm-2.74.444a1.486,1.486,0,0,0-1.256.577,2.672,2.672,0,0,0-.44,1.647,2.687,2.687,0,0,0,.44,1.651,1.483,1.483,0,0,0,1.256.581,1.474,1.474,0,0,0,1.253-.581,2.7,2.7,0,0,0,.437-1.651,2.687,2.687,0,0,0-.437-1.647A1.477,1.477,0,0,0,33.206-16.367ZM44.647-10.6H42.331L41.1-12.733,39.871-10.6H37.613l2.427-3.6-2.323-3.5h2.277l1.187,2.062L42.344-17.7h2.212L42.22-14.234Zm3.977-9.343a2.761,2.761,0,0,1,2.623,1.494,6.685,6.685,0,0,1,.626,3.164,7.62,7.62,0,0,1-.568,3.151,2.779,2.779,0,0,1-2.688,1.788,2.692,2.692,0,0,1-2.505-1.462,6.692,6.692,0,0,1-.685-3.275,8.093,8.093,0,0,1,.411-2.734A2.813,2.813,0,0,1,48.624-19.943Zm-.013,8.528a1.671,1.671,0,0,0,1.455-.809,5.858,5.858,0,0,0,.542-3.014,7.448,7.448,0,0,0-.391-2.62,1.49,1.49,0,0,0-1.52-1.028,1.589,1.589,0,0,0-1.517.975,6.736,6.736,0,0,0-.48,2.874,7.058,7.058,0,0,0,.307,2.3A1.672,1.672,0,0,0,48.611-11.415Zm4.381.816a5.449,5.449,0,0,1,.5-2.1,4.041,4.041,0,0,1,1.693-1.625l1.253-.724a5.9,5.9,0,0,0,1.181-.835,1.716,1.716,0,0,0,.535-1.24,1.731,1.731,0,0,0-.489-1.3,1.784,1.784,0,0,0-1.3-.48,1.705,1.705,0,0,0-1.67.913,3.27,3.27,0,0,0-.274,1.357H53.22a4.194,4.194,0,0,1,.45-1.99,2.826,2.826,0,0,1,2.695-1.357,2.921,2.921,0,0,1,2.346.868,2.9,2.9,0,0,1,.741,1.931,2.625,2.625,0,0,1-.789,1.918,7.729,7.729,0,0,1-1.638,1.122l-.894.5a5.79,5.79,0,0,0-1,.672,2.448,2.448,0,0,0-.822,1.259h5.1V-10.6Z" transform="translate(2265.201 -20556.5)" fill="#333"/>
  </g>
</svg>
