<svg width="35" height="41" viewBox="0 0 35 41" fill="none" xmlns="http://www.w3.org/2000/svg">
<mask id="mask0_1227_3957" style="mask-type:luminance" maskUnits="userSpaceOnUse" x="0" y="0" width="35" height="41">
<path d="M34.7643 0H0.0683594V40.8664H34.7643V0Z" fill="white"/>
</mask>
<g mask="url(#mask0_1227_3957)">
<path d="M15.4944 0.858722C15.4944 8.38863 15.4979 15.9214 15.5051 23.4571C15.5051 23.6378 15.5202 23.8208 15.5266 24.0016C15.5266 24.0166 15.5073 24.0317 15.5116 24.0446C15.5208 24.0714 15.5323 24.0973 15.546 24.1221C14.8931 24.5974 14.1658 24.9611 13.3938 25.1982C10.8004 26.2463 8.26935 27.4387 5.69529 28.5298C4.05315 29.225 2.42607 29.9503 0.786077 30.6498C0.112431 30.9403 0.069387 30.908 0.069387 30.1827C0.069387 27.4709 0.069387 24.757 0.069387 22.0452C0.0416806 21.8511 0.0877645 21.6537 0.198538 21.4919C0.309311 21.3301 0.47672 21.2157 0.667705 21.1714C2.95336 20.2287 5.20674 19.2129 7.48379 18.253C7.91424 18.0743 7.82384 17.7709 7.82599 17.476C7.82599 13.2813 7.88841 9.08236 7.79371 4.89414C7.69446 4.38886 7.79419 3.86476 8.0721 3.43126C8.35001 2.99775 8.78462 2.68833 9.2852 2.56759C11.2416 1.8552 13.0968 0.87594 15.0467 0.126967C15.2619 0.0408779 15.4771 -0.172192 15.4944 0.273318" fill="#2D6759"/>
<path d="M19.3388 12.1643C19.3388 8.3549 19.3388 4.54546 19.3388 0.736031C19.3388 0.456242 19.0246 -0.10764 19.8704 0.262542C21.4523 0.955558 23.0364 1.64642 24.6053 2.3502C25.1974 2.63762 25.8036 2.89479 26.4218 3.12069C26.5197 3.13432 26.6139 3.16782 26.6984 3.21915C26.7829 3.27048 26.856 3.33856 26.9133 3.41918C26.9705 3.49981 27.0107 3.59129 27.0313 3.68801C27.0519 3.78472 27.0525 3.88463 27.033 3.98158C27.033 8.47542 27.033 12.9693 27.0115 17.4631C26.9776 17.6771 27.0215 17.8961 27.1352 18.0805C27.2489 18.2649 27.425 18.4024 27.6314 18.4682C29.2821 19.1677 30.9006 19.936 32.5664 20.6075C33.2268 20.822 33.8608 21.1109 34.456 21.4684C34.5488 21.5177 34.6246 21.5937 34.6737 21.6865C34.7228 21.7794 34.743 21.8848 34.7315 21.9892C34.7315 24.7871 34.7165 27.6001 34.7423 30.4066C34.7423 31.0522 34.3979 31.0049 34.045 30.8198C32.08 29.7803 29.9945 29.0033 27.9499 28.151C26.8587 27.6948 25.7977 27.1675 24.6893 26.7456C22.9675 26.0849 21.2845 25.2778 19.5885 24.5288C19.3733 24.4298 19.3625 24.2232 19.3604 24.0102C19.3604 22.5036 19.3281 20.997 19.3238 19.4905C19.3238 17.0499 19.3238 14.6093 19.3238 12.1729" fill="#2D6759"/>
<path d="M32.5663 34.3151C32.3248 34.4982 32.0644 34.6548 31.7893 34.7821C29.6522 35.5203 27.6571 36.5835 25.5651 37.425C23.075 38.428 20.6387 39.5601 18.2067 40.6964C17.8948 40.8247 17.5574 40.8785 17.2211 40.8535C16.8848 40.8284 16.5591 40.7253 16.2697 40.5522C15.2323 40.1089 14.2121 39.6311 13.1791 39.1769C11.3088 38.3548 9.45573 37.4917 7.55962 36.732C5.9928 36.1036 4.53144 35.2362 2.90006 34.7498C2.70636 34.6917 2.20489 34.6056 2.25439 34.2462C2.28022 34.0503 2.71066 34.0697 2.92804 33.96C4.46257 33.1895 6.08105 32.6148 7.62634 31.8615C8.62497 31.3751 9.68601 30.9748 10.7234 30.5444C12.7142 29.7136 14.7136 28.8936 16.6485 27.9466C16.9586 27.8126 17.2964 27.755 17.6335 27.7786C17.9705 27.8022 18.297 27.9063 18.5855 28.0822C19.9457 28.6547 21.2973 29.2574 22.6445 29.8514C25.012 30.8931 27.3794 31.9153 29.7124 33.0087C30.5453 33.3982 31.4191 33.6996 32.2671 34.059C32.3704 34.102 32.562 34.0934 32.5555 34.3172" fill="#2D6759"/>
</g>
</svg>
