<svg width="20" height="27" viewBox="0 0 20 27" fill="none" xmlns="http://www.w3.org/2000/svg">
<path d="M4.42043 17.3683C4.31168 17.6383 4.03607 18.0433 3.41479 17.8895C3.43671 17.9214 1.81982 17.4914 1.81982 17.4914L0.730469 20.0033L3.58605 20.7152C4.11731 20.8483 4.63796 20.9877 5.15045 21.119L4.24229 24.7652L6.43419 25.3121L7.33356 21.7046C7.91483 21.8621 8.49778 22.0134 9.08231 22.1583L8.18604 25.7489L10.3805 26.2958L11.2886 22.6564C15.0305 23.3645 17.8442 23.0789 19.0286 19.6945C19.983 16.9696 18.9811 15.3976 17.0123 14.3726C18.4461 14.042 19.5261 13.0989 19.8142 11.1508C20.2123 8.48951 18.186 7.05887 15.4154 6.10448L16.3142 2.49944L14.1198 1.95256L13.2448 5.46257C12.6679 5.31882 12.0754 5.18319 11.4867 5.0488L12.3679 1.51562L10.1748 0.96875L9.27539 4.57251C8.79786 4.46376 8.32917 4.35621 7.87413 4.24312L7.87661 4.23185L4.85034 3.47623L4.26655 5.81999C4.26655 5.81999 5.89471 6.19312 5.86033 6.21624C6.7491 6.43812 6.90971 7.02621 6.88287 7.49252L4.42043 17.3683ZM14.8004 18.1814C14.1223 20.9064 9.53419 19.4333 8.04668 19.0639L9.2517 14.2333C10.7392 14.6045 15.5092 15.3395 14.8004 18.1814ZM15.4792 11.1114C14.8604 13.5902 11.0417 12.3308 9.80292 12.0221L10.8954 7.64076C12.1342 7.94951 16.1236 8.52576 15.4792 11.1114Z" fill="white"/>
</svg>
