<svg width="20" height="27" viewBox="0 0 20 27" fill="none" xmlns="http://www.w3.org/2000/svg">
<path d="M4.42043 17.3685C4.31168 17.6386 4.03607 18.0436 3.41479 17.8898C3.43671 17.9217 1.81982 17.4917 1.81982 17.4917L0.730469 20.0035L3.58605 20.7155C4.11731 20.8486 4.63796 20.9879 5.15045 21.1192L4.24229 24.7655L6.43419 25.3123L7.33356 21.7048C7.91483 21.8623 8.49778 22.0136 9.08231 22.1586L8.18604 25.7492L10.3805 26.2961L11.2886 22.6567C15.0305 23.3648 17.8442 23.0792 19.0286 19.6948C19.983 16.9698 18.9811 15.3979 17.0123 14.3729C18.4461 14.0423 19.5261 13.0991 19.8142 11.151C20.2123 8.48975 18.186 7.05912 15.4154 6.10473L16.3142 2.49968L14.1198 1.95281L13.2448 5.46281C12.6679 5.31906 12.0754 5.18343 11.4867 5.04904L12.3679 1.51587L10.1748 0.968994L9.27539 4.57275C8.79786 4.46401 8.32917 4.35646 7.87413 4.24337L7.87661 4.23209L4.85034 3.47647L4.26655 5.82023C4.26655 5.82023 5.89471 6.19337 5.86033 6.21648C6.7491 6.43836 6.90971 7.02645 6.88287 7.49276L4.42043 17.3685ZM14.8004 18.1817C14.1223 20.9066 9.53419 19.4335 8.04668 19.0641L9.2517 14.2335C10.7392 14.6048 15.5092 15.3398 14.8004 18.1817ZM15.4792 11.1117C14.8604 13.5904 11.0417 12.3311 9.80292 12.0223L10.8954 7.641C12.1342 7.94975 16.1236 8.526 15.4792 11.1117Z" fill="white"/>
</svg>
