<svg xmlns="http://www.w3.org/2000/svg" width="52.336" height="48.093" viewBox="0 0 52.336 48.093">
  <g id="bluewallet" transform="translate(-213 -598)">
    <path id="hexagontile3" d="M30.117,0a5,5,0,0,1,4.327,2.495l8.105,14a5,5,0,0,1,0,5.01l-8.105,14A5,5,0,0,1,30.117,38H13.883a5,5,0,0,1-4.327-2.495l-8.105-14a5,5,0,0,1,0-5.01l8.105-14A5,5,0,0,1,13.883,0Z" transform="matrix(0.966, 0.259, -0.259, 0.966, 222.835, 598)" fill="#092c27" opacity="0.297"/>
    <g id="bluewallet-2" data-name="bluewallet" transform="translate(-430.88 -297.662)">
      <path id="Rectangle-Copy" d="M5.327,0H12.77a6.025,6.025,0,0,1,3.2.555,3.776,3.776,0,0,1,1.571,1.571,6.025,6.025,0,0,1,.555,3.2V12.77a6.025,6.025,0,0,1-.555,3.2,3.775,3.775,0,0,1-1.571,1.571,6.025,6.025,0,0,1-3.2.555H5.327a6.025,6.025,0,0,1-3.2-.555A3.776,3.776,0,0,1,.555,15.971,6.025,6.025,0,0,1,0,12.77V5.327a6.025,6.025,0,0,1,.555-3.2A3.776,3.776,0,0,1,2.126.555,6.025,6.025,0,0,1,5.327,0Z" transform="translate(661 910.544)" fill="#fff"/>
      <g id="Rectangle-Copy-2" transform="translate(661 901.539)" fill="#a4c3b4">
        <path d="M 12.76969623565674 26.36627197265625 L 5.326596260070801 26.36627197265625 C 3.438736200332642 26.36627197265625 2.886816263198853 26.15135192871094 2.361456155776978 25.87038040161133 C 1.771076202392578 25.55464172363281 1.311626195907593 25.09519195556641 0.9958962202072144 24.50481033325195 C 0.7149162292480469 23.97945213317871 0.4999962449073792 23.42754173278809 0.4999962449073792 21.53967094421387 L 0.4999962449073792 18.56189155578613 C 0.4999962449073792 16.67402076721191 0.7149162292480469 16.12211036682129 0.9958862662315369 15.59676170349121 C 1.311626195907593 15.00637149810791 1.771076202392578 14.54692077636719 2.361456155776978 14.23117160797119 C 2.886816263198853 13.95021152496338 3.438736200332642 13.73529148101807 5.326596260070801 13.73529148101807 L 12.76969623565674 13.73529148101807 C 14.65755653381348 13.73529148101807 15.20947647094727 13.95021152496338 15.73483657836914 14.23118114471436 C 16.32521629333496 14.54692077636719 16.78466606140137 15.00637149810791 17.10041618347168 15.59675121307373 C 17.38137626647949 16.12211036682129 17.5962963104248 16.67403030395508 17.5962963104248 18.56189155578613 L 17.5962963104248 21.53967094421387 C 17.5962963104248 23.42753219604492 17.38137626647949 23.97945213317871 17.10040664672852 24.50481033325195 C 16.78466606140137 25.09519195556641 16.32521629333496 25.55464172363281 15.73483657836914 25.87039184570312 C 15.20947647094727 26.15135192871094 14.65755653381348 26.36627197265625 12.76969623565674 26.36627197265625 Z" stroke="none"/>
        <path d="M 5.326596260070801 14.23529052734375 C 3.551176071166992 14.23529052734375 3.07547664642334 14.41633033752441 2.59726619720459 14.67208099365234 C 2.095546722412109 14.94040107727051 1.705106735229492 15.33084106445312 1.436786651611328 15.83255195617676 C 1.181035995483398 16.31077194213867 0.9999961853027344 16.78647041320801 0.9999961853027344 18.56189155578613 L 0.9999961853027344 21.53967094421387 C 0.9999961853027344 23.31509208679199 1.181035995483398 23.79079055786133 1.436786651611328 24.26900100708008 C 1.705106735229492 24.77072143554688 2.095546722412109 25.16116142272949 2.597256660461426 25.42948150634766 C 3.075466156005859 25.68523025512695 3.551156044006348 25.86626052856445 5.326596260070801 25.86626052856445 L 12.76969623565674 25.86626052856445 C 14.54513645172119 25.86626052856445 15.02082633972168 25.68523025512695 15.49902629852295 25.42948150634766 C 16.00074577331543 25.16116142272949 16.39117622375488 24.77072143554688 16.65949630737305 24.26900100708008 C 16.91525650024414 23.79079055786133 17.0962963104248 23.31509208679199 17.0962963104248 21.53967094421387 L 17.0962963104248 18.56189155578613 C 17.0962963104248 16.78647041320801 16.91525650024414 16.31077194213867 16.65949630737305 15.83255195617676 C 16.39117622375488 15.33084106445312 16.00074577331543 14.94040107727051 15.49903678894043 14.67208099365234 C 15.02081680297852 14.41633033752441 14.54511642456055 14.23529052734375 12.76969623565674 14.23529052734375 L 5.326596260070801 14.23529052734375 M 5.326596260070801 13.23529052734375 L 12.76969623565674 13.23529052734375 C 14.62186622619629 13.23529052734375 15.29351615905762 13.42814064025879 15.97063636779785 13.7902717590332 C 16.64776611328125 14.15241050720215 17.17917633056641 14.6838207244873 17.54130554199219 15.3609504699707 C 17.90344619750977 16.03807067871094 18.0962963104248 16.7097110748291 18.0962963104248 18.56189155578613 L 18.0962963104248 21.53967094421387 C 18.0962963104248 23.39184188842773 17.90344619750977 24.06349182128906 17.54130554199219 24.7406120300293 C 17.17917633056641 25.41773986816406 16.64776611328125 25.94915008544922 15.97063636779785 26.3112907409668 C 15.29351615905762 26.67341995239258 14.62186622619629 26.86626052856445 12.76969623565674 26.86626052856445 L 5.326596260070801 26.86626052856445 C 3.47442626953125 26.86626052856445 2.802776336669922 26.67341995239258 2.125656127929688 26.3112907409668 C 1.448526382446289 25.94915008544922 0.9171161651611328 25.41773986816406 0.5549755096435547 24.7406120300293 C 0.1928462982177734 24.06349182128906 -3.814697265625e-06 23.39184188842773 -3.814697265625e-06 21.53967094421387 L -3.814697265625e-06 18.56189155578613 C -3.814697265625e-06 16.7097110748291 0.1928462982177734 16.03807067871094 0.5549755096435547 15.3609504699707 C 0.9171161651611328 14.6838207244873 1.448526382446289 14.15241050720215 2.125656127929688 13.7902717590332 C 2.802776336669922 13.42814064025879 3.47442626953125 13.23529052734375 5.326596260070801 13.23529052734375 Z" stroke="none" fill="#fff"/>
      </g>
      <path id="Rectangle-Copy-3" d="M4.235,27.206h9.627a4.731,4.731,0,0,1,2.436.47A3.2,3.2,0,0,1,17.627,29a4.731,4.731,0,0,1,.47,2.436v1.166a4.731,4.731,0,0,1-.47,2.436A3.2,3.2,0,0,1,16.3,36.372a4.731,4.731,0,0,1-2.436.47H4.235a4.731,4.731,0,0,1-2.436-.47A3.2,3.2,0,0,1,.47,35.043,4.731,4.731,0,0,1,0,32.607V31.441A4.731,4.731,0,0,1,.47,29,3.2,3.2,0,0,1,1.8,27.675,4.731,4.731,0,0,1,4.235,27.206Z" transform="translate(661 892.034)" fill="#fff"/>
      <path id="blue" d="M26.458,39.864a1.862,1.862,0,0,1-.06.491,1.128,1.128,0,0,1-.172.372.766.766,0,0,1-.277.236.818.818,0,0,1-.373.083.9.9,0,0,1-.193-.02.657.657,0,0,1-.171-.063.94.94,0,0,1-.161-.11,1.517,1.517,0,0,1-.162-.161v.223a.07.07,0,0,1-.013.042.092.092,0,0,1-.041.029A.285.285,0,0,1,24.76,41q-.048,0-.117,0t-.118,0a.282.282,0,0,1-.076-.016.084.084,0,0,1-.04-.029.075.075,0,0,1-.011-.042V37.9a.067.067,0,0,1,.014-.041.1.1,0,0,1,.047-.031.394.394,0,0,1,.088-.02,1.427,1.427,0,0,1,.28,0,.394.394,0,0,1,.088.02.1.1,0,0,1,.047.031.067.067,0,0,1,.014.041v1.131a1.205,1.205,0,0,1,.156-.133.967.967,0,0,1,.156-.091.715.715,0,0,1,.161-.052.913.913,0,0,1,.174-.016.765.765,0,0,1,.386.091.745.745,0,0,1,.258.244,1.09,1.09,0,0,1,.146.359A1.979,1.979,0,0,1,26.458,39.864Zm-.6.041a1.592,1.592,0,0,0-.02-.252.721.721,0,0,0-.068-.216.419.419,0,0,0-.125-.15.32.32,0,0,0-.194-.056.4.4,0,0,0-.112.016.417.417,0,0,0-.114.055.8.8,0,0,0-.12.1,1.442,1.442,0,0,0-.131.154v.679a1.229,1.229,0,0,0,.233.238.389.389,0,0,0,.233.081.313.313,0,0,0,.19-.057.465.465,0,0,0,.13-.149.7.7,0,0,0,.075-.209A1.214,1.214,0,0,0,25.859,39.906Zm1.618,1.01a.062.062,0,0,1-.014.04.1.1,0,0,1-.047.029.409.409,0,0,1-.088.017,1.712,1.712,0,0,1-.28,0,.409.409,0,0,1-.088-.017.1.1,0,0,1-.047-.029.062.062,0,0,1-.014-.04V37.9a.067.067,0,0,1,.014-.041.1.1,0,0,1,.047-.031.394.394,0,0,1,.088-.02,1.427,1.427,0,0,1,.28,0,.394.394,0,0,1,.088.02.1.1,0,0,1,.047.031.067.067,0,0,1,.014.041Zm2.5,0a.071.071,0,0,1-.011.04.084.084,0,0,1-.04.029.31.31,0,0,1-.076.017,1,1,0,0,1-.118.006A1.055,1.055,0,0,1,29.607,41a.291.291,0,0,1-.075-.017.084.084,0,0,1-.039-.029.071.071,0,0,1-.011-.04v-.236a1.3,1.3,0,0,1-.345.275.776.776,0,0,1-.364.092.816.816,0,0,1-.355-.069.612.612,0,0,1-.232-.188.757.757,0,0,1-.126-.277,1.7,1.7,0,0,1-.038-.391V38.868a.066.066,0,0,1,.013-.04.093.093,0,0,1,.046-.029.412.412,0,0,1,.09-.017q.056-.006.139-.006a1.4,1.4,0,0,1,.14.006.409.409,0,0,1,.088.017.1.1,0,0,1,.047.029.062.062,0,0,1,.014.04v1.157a1.106,1.106,0,0,0,.021.246.429.429,0,0,0,.063.146.29.29,0,0,0,.108.094.332.332,0,0,0,.153.033.378.378,0,0,0,.221-.08,1.323,1.323,0,0,0,.238-.234V38.868a.066.066,0,0,1,.013-.04.093.093,0,0,1,.046-.029.409.409,0,0,1,.088-.017,1.711,1.711,0,0,1,.28,0,.388.388,0,0,1,.087.017.1.1,0,0,1,.046.029.062.062,0,0,1,.014.04Zm2.452-1.083a.223.223,0,0,1-.047.156.169.169,0,0,1-.13.05H31a.851.851,0,0,0,.031.238.453.453,0,0,0,.1.181.43.43,0,0,0,.174.114.747.747,0,0,0,.256.039,1.439,1.439,0,0,0,.266-.022,1.765,1.765,0,0,0,.2-.048q.084-.026.139-.048a.258.258,0,0,1,.09-.022.067.067,0,0,1,.034.008.06.06,0,0,1,.023.029.192.192,0,0,1,.013.059q0,.038,0,.1t0,.086a.541.541,0,0,1-.007.061.146.146,0,0,1-.014.042.159.159,0,0,1-.024.033.279.279,0,0,1-.081.044,1.29,1.29,0,0,1-.17.054,2.322,2.322,0,0,1-.236.046,1.964,1.964,0,0,1-.285.02,1.507,1.507,0,0,1-.479-.069.852.852,0,0,1-.343-.209.869.869,0,0,1-.205-.353,1.66,1.66,0,0,1-.068-.5,1.59,1.59,0,0,1,.071-.492,1.032,1.032,0,0,1,.207-.372.888.888,0,0,1,.329-.233,1.133,1.133,0,0,1,.437-.08,1.145,1.145,0,0,1,.44.076.793.793,0,0,1,.3.21.847.847,0,0,1,.172.318,1.385,1.385,0,0,1,.055.4Zm-.56-.165a.594.594,0,0,0-.1-.382.377.377,0,0,0-.322-.139.419.419,0,0,0-.192.041.392.392,0,0,0-.135.111.508.508,0,0,0-.083.165.823.823,0,0,0-.033.2Z" transform="translate(644.401 884.826)" fill="#a4c3b4"/>
    </g>
  </g>
</svg>
