<svg xmlns="http://www.w3.org/2000/svg" xmlns:xlink="http://www.w3.org/1999/xlink" width="159.644" height="117.91" viewBox="0 0 159.644 117.91">
  <defs>
    <linearGradient id="linear-gradient" x1="0.5" x2="0.5" y2="1" gradientUnits="objectBoundingBox">
      <stop offset="0" stop-color="#00836a"/>
      <stop offset="1" stop-color="#073e39"/>
    </linearGradient>
    <linearGradient id="linear-gradient-6" y1="1" y2="0" xlink:href="#linear-gradient"/>
    <clipPath id="clip-path">
      <rect id="Rectangle_8356" data-name="Rectangle 8356" width="20.15" height="19.26" fill="#fff"/>
    </clipPath>
  </defs>
  <g id="illustration" transform="translate(-77 -518.09)">
    <g id="face_ID" data-name="face ID" transform="translate(28 11.09)">
      <g id="Group_39521" data-name="Group 39521" transform="translate(49 562.092)" opacity="0.272">
        <circle id="Ellipse_1999" data-name="Ellipse 1999" cx="26.928" cy="26.928" r="26.928" transform="translate(7.023 0)" fill="url(#linear-gradient)"/>
        <path id="Path_25533" data-name="Path 25533" d="M2.307,4.614A2.307,2.307,0,1,0,0,2.307,2.307,2.307,0,0,0,2.307,4.614Z" transform="translate(42.44 56.329) rotate(39)" fill="url(#linear-gradient)"/>
        <path id="Path_25534" data-name="Path 25534" d="M1.575,3.151A1.575,1.575,0,1,0,0,1.575,1.576,1.576,0,0,0,1.575,3.151Z" transform="translate(50.376 53.056) rotate(39)" fill="url(#linear-gradient)"/>
        <path id="Path_25535" data-name="Path 25535" d="M15.209,6.11a2.926,2.926,0,1,0-2.926-2.926A2.926,2.926,0,0,0,15.209,6.11Z" transform="translate(-12.284 13.335)" fill="url(#linear-gradient)"/>
      </g>
      <g id="Group_39533" data-name="Group 39533" transform="matrix(0.799, -0.602, 0.602, 0.799, 180.736, 572.065)" opacity="0.272">
        <circle id="Ellipse_1999-2" data-name="Ellipse 1999" cx="9.964" cy="9.964" r="9.964" transform="translate(0 0)" fill="url(#linear-gradient)"/>
        <path id="Path_25533-2" data-name="Path 25533" d="M.854,0A.854.854,0,1,1,0,.854.854.854,0,0,1,.854,0Z" transform="translate(7.897 22.17) rotate(141)" fill="url(#linear-gradient-6)"/>
        <path id="Path_25534-2" data-name="Path 25534" d="M.583,0A.583.583,0,1,1,0,.583.583.583,0,0,1,.583,0Z" transform="translate(4.62 20.538) rotate(141)" fill="url(#linear-gradient-6)"/>
        <path id="Path_25535-2" data-name="Path 25535" d="M1.083,2.165A1.083,1.083,0,1,1,2.165,1.083,1.083,1.083,0,0,1,1.083,2.165Z" transform="translate(20.361 5.03)" fill="url(#linear-gradient)"/>
      </g>
      <g id="Ellipse_2007" data-name="Ellipse 2007" transform="translate(86.612 507)" fill="#f7f2ec" stroke="#002c27" stroke-width="2">
        <circle cx="52.508" cy="52.508" r="52.508" stroke="none"/>
        <circle cx="52.508" cy="52.508" r="51.508" fill="none"/>
      </g>
      <g id="Group_39720" data-name="Group 39720" transform="translate(90.804 511.469)">
        <g id="Group_39719" data-name="Group 39719" transform="translate(0 0)">
          <path id="Path_27264" data-name="Path 27264" d="M491.855,1199.692a48.518,48.518,0,0,1-14.435,34.6,47.886,47.886,0,0,1-34.031,13.957,48.561,48.561,0,1,1,48.466-48.561Z" transform="translate(-394.923 -1151.13)" fill="url(#linear-gradient)"/>
        </g>
      </g>
      <g id="Ellipse_2008" data-name="Ellipse 2008" transform="translate(94.433 514.82)" fill="#f7f2ec" stroke="#002c27" stroke-width="2">
        <circle cx="44.688" cy="44.688" r="44.688" stroke="none"/>
        <circle cx="44.688" cy="44.688" r="43.688" fill="none"/>
      </g>
      <g id="Rectangle_7600" data-name="Rectangle 7600" transform="translate(101.178 597.894) rotate(-90)" fill="none" stroke="#002c27" stroke-width="1.5" stroke-dasharray="1.5 1.5">
        <rect width="76.428" height="76.428" rx="38.214" stroke="none"/>
        <rect x="0.75" y="0.75" width="74.928" height="74.928" rx="37.464" fill="none"/>
      </g>
      <g id="Group_23702" data-name="Group 23702" transform="translate(76.333 281.57)">
        <g id="Group_23667" data-name="Group 23667" transform="translate(41.544 256.695)">
          <g id="Group_23666" data-name="Group 23666">
            <path id="Path_16523" data-name="Path 16523" d="M26.342,5.1A21.242,21.242,0,1,1,5.1,26.342,21.271,21.271,0,0,1,26.342,5.1Z" transform="translate(-5.1 -5.1)" fill="url(#linear-gradient)"/>
          </g>
        </g>
      </g>
      <g id="Group_44270" data-name="Group 44270" transform="translate(129.045 549.878)">
        <g id="Group_44269" data-name="Group 44269" transform="translate(0 0)" clip-path="url(#clip-path)">
          <path id="Path_117618" data-name="Path 117618" d="M0,16.586c1.987.246,3.764.9,5.75.005a3.015,3.015,0,0,0-.441-.623c-4.169-3.291-4.2-9.891.9-13.5C9.784-.064,13.687-.864,17.822,1.093A9.561,9.561,0,0,1,20.15,2.914c-1.874-.348-3.678-1.135-5.674-.193a2.154,2.154,0,0,0,.365.612c4.068,3.171,4.194,9.362-.347,13.158-3.317,2.773-8.473,3.621-11.962,1.821A24.209,24.209,0,0,1,0,16.586M10.033,6.4a3.277,3.277,0,0,0,.12,6.553,3.339,3.339,0,0,0,3.2-3.272A3.294,3.294,0,0,0,10.033,6.4" transform="translate(0 0)" fill="#fff"/>
        </g>
      </g>
    </g>
  </g>
</svg>
