<svg width="185" height="145" viewBox="0 0 185 145" fill="none" xmlns="http://www.w3.org/2000/svg">
<g opacity="0.272">
<path d="M41.7488 133.978C60.0371 133.978 74.8627 119.152 74.8627 100.864C74.8627 82.5756 60.0371 67.75 41.7488 67.75C23.4604 67.75 8.63477 82.5756 8.63477 100.864C8.63477 119.152 23.4604 133.978 41.7488 133.978Z" fill="url(#paint0_linear_3046_11409)"/>
<path d="M50.8238 143.217C51.2597 143.57 51.7905 143.786 52.349 143.837C52.9076 143.888 53.4688 143.773 53.9618 143.505C54.4548 143.238 54.8573 142.83 55.1186 142.334C55.3798 141.837 55.488 141.275 55.4295 140.717C55.371 140.159 55.1484 139.631 54.7899 139.2C54.4313 138.768 53.9529 138.453 53.4152 138.293C52.8774 138.134 52.3044 138.137 51.7687 138.304C51.233 138.47 50.7585 138.791 50.4053 139.227C49.9319 139.811 49.71 140.56 49.7884 141.308C49.8669 142.057 50.2393 142.743 50.8238 143.217Z" fill="url(#paint1_linear_3046_11409)"/>
<path d="M61.0183 137.227C61.3161 137.468 61.6787 137.615 62.0603 137.651C62.4419 137.686 62.8253 137.607 63.1621 137.424C63.4989 137.241 63.7738 136.962 63.9523 136.623C64.1307 136.284 64.2045 135.9 64.1645 135.519C64.1244 135.138 63.9723 134.777 63.7272 134.482C63.4822 134.188 63.1553 133.972 62.7879 133.863C62.4204 133.755 62.029 133.757 61.663 133.871C61.2971 133.984 60.973 134.204 60.7319 134.502C60.4085 134.901 60.257 135.413 60.3107 135.924C60.3644 136.435 60.6189 136.903 61.0183 137.227Z" fill="url(#paint2_linear_3046_11409)"/>
<path d="M3.59752 91.6618C4.30905 91.6618 5.00459 91.4508 5.5962 91.0555C6.18781 90.6602 6.64892 90.0984 6.92121 89.441C7.19349 88.7837 7.26474 88.0603 7.12592 87.3625C6.98711 86.6646 6.64448 86.0236 6.14136 85.5205C5.63824 85.0174 4.99722 84.6747 4.29937 84.5359C3.60152 84.3971 2.87817 84.4684 2.22081 84.7406C1.56345 85.0129 1.00159 85.474 0.606292 86.0656C0.210991 86.6572 0 87.3528 0 88.0643C0 89.0184 0.379023 89.9335 1.05369 90.6081C1.72836 91.2828 2.6434 91.6618 3.59752 91.6618Z" fill="url(#paint3_linear_3046_11409)"/>
</g>
<g opacity="0.272">
<path d="M170.191 33.9509C175.598 29.8768 176.679 22.1906 172.605 16.7833C168.531 11.376 160.845 10.2952 155.437 14.3693C150.03 18.4434 148.949 26.1296 153.023 31.5369C157.097 36.9442 164.784 38.025 170.191 33.9509Z" fill="#2F4F4F"/>
<path d="M169.566 38.7024C169.516 38.9039 169.407 39.086 169.253 39.2256C169.1 39.3652 168.908 39.4561 168.703 39.4868C168.497 39.5175 168.287 39.4865 168.099 39.3979C167.912 39.3093 167.754 39.167 167.647 38.989C167.54 38.811 167.489 38.6053 167.499 38.3978C167.509 38.1904 167.58 37.9906 167.703 37.8237C167.827 37.6567 167.997 37.5302 168.193 37.46C168.388 37.3899 168.6 37.3792 168.802 37.4295C169.072 37.4969 169.304 37.6689 169.447 37.9076C169.591 38.1463 169.634 38.4322 169.566 38.7024Z" fill="#2F4F4F"/>
<path d="M165.217 39.2008C165.183 39.3383 165.109 39.4625 165.004 39.5577C164.899 39.653 164.768 39.715 164.628 39.7359C164.488 39.7568 164.345 39.7357 164.217 39.6753C164.089 39.6149 163.981 39.5178 163.908 39.3964C163.835 39.2749 163.8 39.1346 163.807 38.9931C163.814 38.8516 163.862 38.7153 163.947 38.6014C164.031 38.4875 164.147 38.4012 164.28 38.3534C164.414 38.3055 164.558 38.2983 164.696 38.3325C164.88 38.3788 165.038 38.4962 165.136 38.6589C165.234 38.8217 165.263 39.0165 165.217 39.2008Z" fill="#2F4F4F"/>
<path d="M172.042 12.9387C171.832 13.0971 171.58 13.1896 171.317 13.2046C171.054 13.2195 170.792 13.1561 170.566 13.0224C170.339 12.8888 170.157 12.6909 170.042 12.4537C169.928 12.2165 169.886 11.9508 169.923 11.6901C169.96 11.4293 170.073 11.1853 170.248 10.9889C170.424 10.7925 170.653 10.6525 170.908 10.5866C171.163 10.5207 171.432 10.5318 171.68 10.6186C171.929 10.7055 172.146 10.864 172.305 11.0743C172.517 11.3563 172.609 11.7112 172.56 12.0608C172.51 12.4104 172.324 12.7262 172.042 12.9387Z" fill="#2F4F4F"/>
</g>
<path d="M100.988 129.143C136.65 129.143 165.559 100.233 165.559 64.5715C165.559 28.9097 136.65 0 100.988 0C65.3258 0 36.416 28.9097 36.416 64.5715C36.416 100.233 65.3258 129.143 100.988 129.143Z" fill="#F6F2ED"/>
<path d="M100.988 127.893C135.959 127.893 164.309 99.543 164.309 64.5715C164.309 29.6 135.959 1.25 100.988 1.25C66.0161 1.25 37.666 29.6 37.666 64.5715C37.666 99.543 66.0161 127.893 100.988 127.893Z" stroke="#272421" stroke-width="2"/>
<path d="M160.773 65.2065C160.785 73.1226 159.222 80.962 156.175 88.268C153.127 95.574 148.657 102.201 143.023 107.762C137.523 113.24 130.994 117.576 123.811 120.521C116.629 123.467 108.935 124.963 101.173 124.924C89.3563 124.947 77.7986 121.465 67.9624 114.917C58.1261 108.369 50.4535 99.0502 45.9155 88.14C41.3775 77.2298 40.1782 65.2186 42.4693 53.6264C44.7603 42.0343 50.4389 31.3824 58.7862 23.0189C67.1335 14.6553 77.7743 8.95596 89.362 6.64229C100.95 4.32862 112.963 5.50465 123.882 10.0214C134.801 14.5381 144.135 22.1925 150.702 32.0159C157.269 41.8394 160.775 53.3902 160.774 65.2065H160.773Z" fill="url(#paint4_linear_3046_11409)"/>
<path d="M101.205 119.91C131.556 119.91 156.161 95.3062 156.161 64.9552C156.161 34.6043 131.556 10 101.205 10C70.8544 10 46.25 34.6043 46.25 64.9552C46.25 95.3062 70.8544 119.91 101.205 119.91Z" fill="#F6F2ED"/>
<path d="M101.205 118.66C130.866 118.66 154.911 94.6158 154.911 64.9552C154.911 35.2947 130.866 11.25 101.205 11.25C71.5447 11.25 47.5 35.2947 47.5 64.9552C47.5 94.6158 71.5447 118.66 101.205 118.66Z" stroke="#272421" stroke-width="2"/>
<path d="M101.32 18.725C75.8839 18.725 55.2637 39.3452 55.2637 64.7814C55.2637 90.2177 75.8839 110.838 101.32 110.838C126.757 110.838 147.377 90.2177 147.377 64.7814C147.377 39.3452 126.757 18.725 101.32 18.725Z" stroke="url(#paint5_linear_3046_11409)" stroke-width="1.5" stroke-dasharray="1.5 1.5"/>
<path d="M106.024 82.5488C105.868 82.5497 105.714 82.5199 105.57 82.461C105.426 82.4022 105.295 82.3155 105.184 82.206L98.0923 75.1138C97.9828 75.0034 97.8961 74.8724 97.8373 74.7284C97.7784 74.5843 97.7486 74.4301 97.7495 74.2746C97.7476 74.1209 97.7757 73.9683 97.8323 73.8254C97.9217 73.6077 98.0741 73.4216 98.27 73.291C98.4658 73.1605 98.6962 73.0914 98.9316 73.0925L102.478 73.0925L102.478 62.4543C102.478 62.1408 102.602 61.8401 102.824 61.6185C103.046 61.3968 103.346 61.2723 103.66 61.2723L108.388 61.2723C108.701 61.2723 109.002 61.3968 109.224 61.6185C109.445 61.8401 109.57 62.1408 109.57 62.4543L109.57 73.0925L113.116 73.0925C113.35 73.0935 113.578 73.1638 113.772 73.2945C113.966 73.4252 114.116 73.6104 114.205 73.8268C114.293 74.0431 114.316 74.2809 114.269 74.5099C114.223 74.739 114.109 74.9492 113.943 75.1138L106.851 82.206C106.631 82.4244 106.334 82.5475 106.024 82.5488ZM100.114 67.1824L100.114 56.5441L103.66 56.5441C103.893 56.543 104.121 56.4728 104.314 56.3423C104.508 56.2119 104.658 56.0271 104.747 55.8113C104.838 55.596 104.862 55.3588 104.818 55.1295C104.774 54.9002 104.663 54.6891 104.499 54.5229L97.4067 47.4307C97.2963 47.3211 97.1653 47.2345 97.0213 47.1757C96.8773 47.1168 96.7231 47.087 96.5675 47.0879C96.4119 47.087 96.2577 47.1168 96.1137 47.1757C95.9697 47.2345 95.8387 47.3211 95.7283 47.4307L88.6361 54.5229C88.5265 54.6333 88.4399 54.7643 88.381 54.9083C88.3222 55.0523 88.2924 55.2065 88.2933 55.3621C88.2893 55.5172 88.3217 55.671 88.3879 55.8113C88.4765 56.0271 88.6271 56.2119 88.8206 56.3423C89.0142 56.4728 89.242 56.543 89.4753 56.5441L93.0214 56.5441L93.0214 67.1824C93.0214 67.4959 93.1459 67.7965 93.3676 68.0182C93.5893 68.2399 93.8899 68.3644 94.2034 68.3644L98.9316 68.3644C99.245 68.3644 99.5457 68.2399 99.7674 68.0182C99.989 67.7965 100.114 67.4959 100.114 67.1824Z" fill="url(#paint6_linear_3046_11409)"/>
<defs>
<linearGradient id="paint0_linear_3046_11409" x1="41.7488" y1="67.75" x2="41.7488" y2="133.978" gradientUnits="userSpaceOnUse">
<stop stop-color="#58A4A4"/>
<stop offset="1" stop-color="#073E39"/>
</linearGradient>
<linearGradient id="paint1_linear_3046_11409" x1="54.3936" y1="138.808" x2="50.8238" y2="143.217" gradientUnits="userSpaceOnUse">
<stop stop-color="#58A4A4"/>
<stop offset="1" stop-color="#073E39"/>
</linearGradient>
<linearGradient id="paint2_linear_3046_11409" x1="63.4569" y1="134.215" x2="61.0183" y2="137.227" gradientUnits="userSpaceOnUse">
<stop stop-color="#58A4A4"/>
<stop offset="1" stop-color="#073E39"/>
</linearGradient>
<linearGradient id="paint3_linear_3046_11409" x1="3.59753" y1="84.4668" x2="3.59753" y2="91.6618" gradientUnits="userSpaceOnUse">
<stop stop-color="#58A4A4"/>
<stop offset="1" stop-color="#073E39"/>
</linearGradient>
<linearGradient id="paint4_linear_3046_11409" x1="101.055" y1="5.48633" x2="101.055" y2="124.925" gradientUnits="userSpaceOnUse">
<stop stop-color="#58A4A4"/>
<stop offset="1" stop-color="#073E39"/>
</linearGradient>
<linearGradient id="paint5_linear_3046_11409" x1="55.2637" y1="64.7814" x2="147.377" y2="64.7814" gradientUnits="userSpaceOnUse">
<stop stop-color="#58A4A4"/>
<stop offset="1" stop-color="#073E39"/>
</linearGradient>
<linearGradient id="paint6_linear_3046_11409" x1="114.293" y1="64.8183" x2="88.293" y2="64.8183" gradientUnits="userSpaceOnUse">
<stop stop-color="#58A4A4"/>
<stop offset="1" stop-color="#073E39"/>
</linearGradient>
</defs>
</svg>
