<svg xmlns="http://www.w3.org/2000/svg" width="203.137" height="188.672" viewBox="0 0 203.137 188.672">
  <g id="generic_illustration" data-name="generic illustration" transform="translate(-65.145 -363.268)">
    <g id="Group_54702" data-name="Group 54702" transform="translate(239.636 386.797)" opacity="0.25">
      <g id="Group_54646" data-name="Group 54646" transform="translate(2.939 0)">
        <g id="Group_54645" data-name="Group 54645">
          <rect id="Rectangle_10023" data-name="Rectangle 10023" width="1.197" height="1.884" fill="#f2ede6"/>
        </g>
      </g>
      <g id="Group_54648" data-name="Group 54648" transform="translate(2.939 5.19)">
        <g id="Group_54647" data-name="Group 54647">
          <rect id="Rectangle_10024" data-name="Rectangle 10024" width="1.197" height="1.884" fill="#f2ede6"/>
        </g>
      </g>
      <g id="Group_54650" data-name="Group 54650" transform="translate(5.19 2.939)">
        <g id="Group_54649" data-name="Group 54649">
          <rect id="Rectangle_10025" data-name="Rectangle 10025" width="1.884" height="1.197" fill="#f2ede6"/>
        </g>
      </g>
      <g id="Group_54652" data-name="Group 54652" transform="translate(0 2.939)">
        <g id="Group_54651" data-name="Group 54651">
          <rect id="Rectangle_10026" data-name="Rectangle 10026" width="1.884" height="1.197" fill="#f2ede6"/>
        </g>
      </g>
    </g>
    <g id="Group_54703" data-name="Group 54703" transform="translate(236.557 514.821)" opacity="0.25">
      <g id="Group_54654" data-name="Group 54654" transform="translate(5.049)">
        <g id="Group_54653" data-name="Group 54653">
          <rect id="Rectangle_10027" data-name="Rectangle 10027" width="2.056" height="3.237" fill="#f2ede6"/>
        </g>
      </g>
      <g id="Group_54656" data-name="Group 54656" transform="translate(5.049 8.918)">
        <g id="Group_54655" data-name="Group 54655">
          <rect id="Rectangle_10028" data-name="Rectangle 10028" width="2.056" height="3.237" fill="#f2ede6"/>
        </g>
      </g>
      <g id="Group_54658" data-name="Group 54658" transform="translate(8.918 5.05)">
        <g id="Group_54657" data-name="Group 54657">
          <rect id="Rectangle_10029" data-name="Rectangle 10029" width="3.237" height="2.056" fill="#f2ede6"/>
        </g>
      </g>
      <g id="Group_54660" data-name="Group 54660" transform="translate(0 5.05)">
        <g id="Group_54659" data-name="Group 54659">
          <rect id="Rectangle_10030" data-name="Rectangle 10030" width="3.237" height="2.056" fill="#f2ede6"/>
        </g>
      </g>
    </g>
    <g id="Group_54704" data-name="Group 54704" transform="translate(65.145 466.242)" opacity="0.5">
      <g id="Group_54662" data-name="Group 54662" transform="translate(5.049)">
        <g id="Group_54661" data-name="Group 54661">
          <rect id="Rectangle_10031" data-name="Rectangle 10031" width="2.056" height="3.237" fill="#f2ede6"/>
        </g>
      </g>
      <g id="Group_54664" data-name="Group 54664" transform="translate(5.049 8.919)">
        <g id="Group_54663" data-name="Group 54663">
          <rect id="Rectangle_10032" data-name="Rectangle 10032" width="2.056" height="3.237" fill="#f2ede6"/>
        </g>
      </g>
      <g id="Group_54666" data-name="Group 54666" transform="translate(8.919 5.05)">
        <g id="Group_54665" data-name="Group 54665">
          <rect id="Rectangle_10033" data-name="Rectangle 10033" width="3.237" height="2.056" fill="#f2ede6"/>
        </g>
      </g>
      <g id="Group_54668" data-name="Group 54668" transform="translate(0 5.05)">
        <g id="Group_54667" data-name="Group 54667">
          <rect id="Rectangle_10034" data-name="Rectangle 10034" width="3.237" height="2.056" fill="#f2ede6"/>
        </g>
      </g>
    </g>
    <g id="Group_54670" data-name="Group 54670" transform="translate(261.932 500.277)" opacity="0.5">
      <g id="Group_54669" data-name="Group 54669">
        <circle id="Ellipse_3356" data-name="Ellipse 3356" cx="3.175" cy="3.175" r="3.175" fill="#f2ede6"/>
      </g>
    </g>
    <g id="Group_54672" data-name="Group 54672" transform="translate(93.97 419.451)" opacity="0.5">
      <g id="Group_54671" data-name="Group 54671" transform="translate(0 0)">
        <circle id="Ellipse_3357" data-name="Ellipse 3357" cx="4.709" cy="4.709" r="4.709" fill="#f2ede6"/>
      </g>
    </g>
    <g id="Group_54674" data-name="Group 54674" transform="translate(92.288 501.863)" opacity="0.25">
      <g id="Group_54673" data-name="Group 54673">
        <circle id="Ellipse_3358" data-name="Ellipse 3358" cx="6.392" cy="6.392" r="6.392" fill="#f2ede6"/>
      </g>
    </g>
    <g id="Group_54676" data-name="Group 54676" transform="translate(175.1 439.911)">
      <g id="Group_54675" data-name="Group 54675">
        <path id="Path_206466" data-name="Path 206466" d="M284.356,211.4h-7.218v12.948h7.218a6.456,6.456,0,0,0,4.579-1.9,5.846,5.846,0,0,0,.678-.8,6.467,6.467,0,0,0-5.257-10.248Z" transform="translate(-277.138 -211.404)" fill="#8ba099"/>
      </g>
    </g>
    <g id="Group_54678" data-name="Group 54678" transform="translate(175.1 459.528)">
      <g id="Group_54677" data-name="Group 54677">
        <path id="Path_206467" data-name="Path 206467" d="M294.254,266.922a7.006,7.006,0,0,0-6.944-6.073H277.138v14.024H287.31a7.009,7.009,0,0,0,7.005-7.013A7.1,7.1,0,0,0,294.254,266.922Z" transform="translate(-277.138 -260.849)" fill="#8ba099"/>
      </g>
    </g>
    <g id="Group_54681" data-name="Group 54681" transform="translate(114.636 392.711)">
      <g id="Group_54680" data-name="Group 54680">
        <g id="Group_54679" data-name="Group 54679">
          <path id="Path_206468" data-name="Path 206468" d="M231.774,109.089h0c-.356-.322-.713-.644-1.076-.959s-.726-.624-1.1-.932a64.019,64.019,0,0,0-62.613-10.953,60.515,60.515,0,0,0-16.852,9.164q-2.3,1.738-4.435,3.681a64,64,0,0,0,.034,94.764q1.121,1.018,2.3,1.988a63.912,63.912,0,0,0,81.253.131q1.255-1.018,2.454-2.111v-.007a63.984,63.984,0,0,0,.034-94.764Zm-16.862,62.917a13.531,13.531,0,0,1-3.1,4.832,13.392,13.392,0,0,1-9.5,3.935h-6.429v10.515h-6.539V180.773H185.2v10.515h-6.539V180.862h-5.339v.007h-7.937v-7.053h4.9a2.641,2.641,0,0,0,3.037-2.961V142.162a2.64,2.64,0,0,0-3.037-2.961h-4.9v-7.053h13.277V121.625h6.539v10.522h4.14V121.625h6.539v10.522h4.558a10.977,10.977,0,0,1,10.981,10.974,11.408,11.408,0,0,1-.075,1.289,10.983,10.983,0,0,1-8.884,9.5,13.43,13.43,0,0,1,12.447,18.1Z" transform="translate(-124.741 -92.44)" fill="#8ba099"/>
        </g>
      </g>
    </g>
    <g id="Group_54684" data-name="Group 54684" transform="translate(107.534 385.62)" opacity="0.75">
      <g id="Group_54683" data-name="Group 54683">
        <g id="Group_54682" data-name="Group 54682">
          <path id="Path_206469" data-name="Path 206469" d="M115.068,174.217l-1.871.854q.433.947.891,1.88l1.846-.908Q115.487,175.138,115.068,174.217Zm1.783,3.627-1.818.96q.487.922,1,1.827l1.789-1.015Q117.323,178.738,116.851,177.844ZM113.5,170.5l-1.918.74q.376.973.779,1.929l1.895-.8Q113.865,171.439,113.5,170.5Zm-1.348-3.821-1.959.628q.32,1,.665,1.977l1.939-.684Q112.463,167.641,112.154,166.675Zm8.888,18.082-1.693,1.167q.592.858,1.207,1.7l1.658-1.217Q121.615,185.591,121.041,184.757Zm-2.2-3.4-1.758,1.066q.541.891,1.106,1.765l1.726-1.116Q119.369,182.226,118.844,181.361Zm-8.7-22.529-2.019.391q.2,1.027.427,2.042l2.006-.451Q110.339,159.828,110.147,158.832Zm-1.195-16.123-2.054-.087q-.044,1.038-.059,2.085l2.056.028Q108.909,143.718,108.952,142.709Zm-.055,4.052-2.056.032q.017,1.044.063,2.082l2.054-.092Q108.913,147.775,108.9,146.761Zm2.136,16.022-1.992.51q.259,1.013.547,2.014l1.976-.569Q111.286,163.767,111.033,162.783Zm-1.54-7.95-2.038.272q.138,1.036.306,2.063l2.029-.331Q109.628,155.839,109.494,154.834Zm13.941,33.188-1.624,1.262q.64.824,1.3,1.627L124.7,189.6Q124.056,188.821,123.435,188.022Zm20.466,20.07q.917.5,1.848.977l.934-1.833q-.9-.461-1.794-.948Zm-3.6-2.112q.884.554,1.786,1.083l1.04-1.774q-.875-.513-1.735-1.052ZM143.056,86.1l-1.041-1.773q-.9.527-1.78,1.081l1.093,1.742Q142.184,86.613,143.056,86.1Zm3.544-1.946-.937-1.83q-.927.474-1.839.975l.99,1.8Q145.7,84.615,146.6,84.153ZM109.242,138.67l-2.046-.209q-.105,1.035-.18,2.079l2.051.147Q109.14,139.675,109.242,138.67Zm41.007-56.25-.827-1.882q-.954.418-1.893.865l.883,1.857Q149.323,82.828,150.249,82.42ZM136.824,203.658q.85.606,1.719,1.186l1.143-1.71q-.844-.564-1.67-1.151Zm-6.506-5.223q.774.7,1.569,1.378l1.333-1.565q-.771-.656-1.522-1.336Zm2.862-105.3-1.335-1.564q-.793.675-1.566,1.376l1.38,1.525Q132.41,93.793,133.18,93.135Zm-7.166,98.007-1.547,1.355q.687.785,1.4,1.548l1.506-1.4Q126.681,191.9,126.014,191.142ZM139.631,88.251l-1.144-1.708q-.866.579-1.714,1.184l1.193,1.675Q138.79,88.814,139.631,88.251Zm-12.326,107.3q.731.743,1.485,1.464l1.422-1.485q-.731-.7-1.442-1.422ZM136.336,90.6l-1.244-1.637q-.83.63-1.641,1.282l1.289,1.6Q135.529,91.209,136.336,90.6Zm-2.841,110.546q.814.653,1.646,1.283l1.24-1.64q-.809-.611-1.6-1.247Zm97.588-99.509,1.582-1.313q-.665-.8-1.354-1.584l-1.544,1.359Q230.436,100.855,231.083,101.633Zm10.481,17.211,1.894-.8q-.406-.96-.839-1.9L240.75,117Q241.169,117.913,241.564,118.844Zm-5.684-10.695,1.724-1.12q-.568-.874-1.161-1.73l-1.691,1.17Q235.328,107.3,235.88,108.149Zm4,7.023,1.843-.913q-.462-.934-.95-1.852l-1.816.965Q239.433,114.266,239.881,115.173ZM229.91,97.191q-.711-.762-1.445-1.5L227,97.133q.712.721,1.4,1.46Zm3.667,7.631,1.656-1.22q-.618-.839-1.26-1.66l-1.619,1.268Q232.976,104.007,233.577,104.822Zm-85.952,105.17q.944.446,1.9.866l.825-1.884q-.931-.408-1.849-.842ZM237.984,111.6l1.787-1.017q-.516-.906-1.057-1.794l-1.756,1.07Q237.483,110.723,237.984,111.6Zm8.08,22.762,2.029-.336q-.171-1.032-.371-2.053l-2.018.4Q245.9,133.362,246.064,134.364Zm.544,4.014,2.045-.215q-.11-1.041-.25-2.071l-2.038.276Q246.5,137.368,246.608,138.378Zm-3.578-15.765,1.937-.69q-.351-.984-.728-1.955l-1.916.745Q242.69,121.657,243.03,122.614Zm3.884,19.8,2.054-.1q-.049-1.045-.128-2.083l-2.05.157Q246.867,141.4,246.914,142.418Zm-2.64-15.949,1.975-.575q-.292-1-.611-1.994l-1.957.63Q243.99,125.493,244.273,126.469Zm1.012,3.92,2.006-.455q-.232-1.02-.492-2.027l-1.991.514Q245.061,129.4,245.285,130.389Zm-134.755.286-2.008-.447q-.226,1.016-.423,2.044l2.019.387Q110.31,131.661,110.53,130.675Zm3.681-11.585-1.9-.794q-.4.964-.779,1.941l1.92.738Q113.819,120.026,114.211,119.09Zm1.678-3.7-1.847-.905q-.459.939-.892,1.891l1.872.85Q115.443,116.305,115.889,115.394Zm1.892-3.589-1.789-1.013q-.515.91-1,1.835l1.82.959Q117.282,112.686,117.781,111.8Zm-5.027,11.078-1.941-.68q-.346.986-.663,1.985l1.96.623Q112.418,123.84,112.754,122.882Zm-1.228,3.867-1.977-.565q-.286,1-.543,2.015l1.993.5Q111.248,127.721,111.526,126.749Zm-1.758,7.9-2.03-.327q-.165,1.026-.3,2.064l2.039.268Q109.608,135.65,109.768,134.652Zm14.9-32.863-1.587-1.308q-.664.8-1.3,1.629l1.623,1.262Q124.022,102.571,124.667,101.789Zm2.669-3.048-1.506-1.4q-.711.765-1.4,1.551l1.548,1.353Q126.647,99.484,127.336,98.741Zm2.842-2.89-1.424-1.483q-.752.722-1.483,1.465l1.466,1.442Q129.446,96.553,130.178,95.852Zm96.8-1.624q-.755-.72-1.531-1.418l-1.375,1.529q.753.678,1.486,1.377Zm-104.8,10.763-1.66-1.214q-.615.842-1.207,1.7L121,106.644Q121.58,105.809,122.178,104.991Zm-2.3,3.341-1.727-1.115q-.567.878-1.107,1.771l1.76,1.064Q119.331,109.184,119.881,108.332Zm-10.8,42.472-2.051.151q.077,1.043.184,2.078l2.046-.211Q109.153,151.818,109.078,150.8Zm114.8-59.369q-.8-.674-1.61-1.326l-1.284,1.606q.792.633,1.565,1.289Zm-2.623,107.98,1.293,1.6q.811-.656,1.6-1.333l-1.338-1.561Q222.039,198.778,221.252,199.415Zm-.637-110.584q-.834-.628-1.687-1.232l-1.188,1.679q.827.586,1.637,1.2Zm-2.585,113.033,1.2,1.672q.849-.608,1.677-1.238l-1.245-1.636Q218.855,201.275,218.031,201.864Zm6.3-5.084,1.383,1.521q.772-.7,1.522-1.424l-1.426-1.481Q225.077,196.1,224.327,196.78ZM230,190.994l1.551,1.35q.684-.786,1.347-1.591l-1.589-1.306Q230.661,190.229,230,190.994Zm-2.75,2.976,1.469,1.439q.729-.745,1.437-1.511l-1.51-1.4Q227.954,193.247,227.245,193.969ZM213.664,84.21q-.9-.527-1.82-1.028l-.984,1.806q.891.485,1.767,1ZM207.6,208.026l.885,1.856q.94-.448,1.866-.924l-.941-1.829Q208.511,207.59,207.6,208.026Zm2.4-125.816q-.932-.473-1.879-.918l-.876,1.861q.919.432,1.823.892Zm7.214,4.208q-.869-.577-1.756-1.131l-1.088,1.744q.862.537,1.706,1.1Zm-6.016,119.76.995,1.8q.912-.5,1.807-1.032l-1.045-1.771Q212.078,205.689,211.191,206.179Zm3.482-2.057,1.1,1.739q.882-.556,1.745-1.137l-1.147-1.707Q215.53,203.582,214.673,204.122Zm26.243-30.135,1.874.846q.429-.952.832-1.919l-1.9-.79Q241.333,173.063,240.916,173.987Zm2.9-7.587,1.961.618q.314-.992.6-2l-1.979-.56Q244.117,165.436,243.813,166.4Zm1.974-7.852,2.02.383q.195-1.023.358-2.056l-2.031-.323Q245.975,157.554,245.787,158.548Zm-91.8-77.643-.716-1.928q-.976.362-1.938.752l.771,1.906Q153.043,81.257,153.992,80.906Zm92.431,73.643,2.04.262q.133-1.032.236-2.072l-2.046-.2Q246.552,153.546,246.423,154.548Zm.4-4.032,2.052.143q.072-1.039.114-2.083l-2.054-.083Q246.892,149.508,246.822,150.516Zm2.213-6.11-2.056.036q.011.614.011,1.232,0,.4,0,.794l2.056.023q0-.406,0-.817Q249.046,145.039,249.035,144.406ZM203.9,209.658l.775,1.905q.965-.392,1.915-.813l-.831-1.881Q204.841,209.278,203.9,209.658Zm31.051-25.074,1.7,1.162q.589-.862,1.154-1.741l-1.73-1.111Q235.529,183.749,234.956,184.585Zm2.192-3.411,1.762,1.059q.538-.894,1.051-1.805l-1.792-1.008Q237.671,180.3,237.148,181.173Zm5.329-10.936,1.92.735q.374-.977.718-1.967l-1.942-.676Q242.839,169.29,242.477,170.238Zm-3.339,7.4,1.821.955q.485-.925.943-1.865l-1.848-.9Q239.608,176.737,239.137,177.635Zm-6.569,10.228,1.627,1.257q.638-.825,1.253-1.668l-1.662-1.211Q233.189,187.061,232.568,187.863ZM244.916,162.5l1.994.5q.254-1.009.478-2.031l-2.008-.442Q245.162,161.523,244.916,162.5Zm-77.369,53.52q1.029.152,2.069.273l.238-2.043q-1.008-.117-2.007-.265Zm2.158-138.913-.244-2.042q-1.038.124-2.067.278l.3,2.033Q168.7,77.231,169.706,77.111Zm8.234,137.614q-1.016,0-2.025-.029l-.06,2.055c.693.021,1.388.031,2.079.031h.313l-.014-2.056h-.292Zm-.154-140.158q-1.047,0-2.086.035l.064,2.055q1.009-.031,2.025-.033ZM163.439,215.294q1.019.213,2.05.395l.359-2.024q-1-.178-1.988-.384Zm8.251,1.214q1.037.09,2.08.151l.121-2.052q-1.015-.06-2.021-.147Zm2.05-139.76-.124-2.052q-1.044.063-2.08.156l.183,2.048Q172.726,76.811,173.74,76.749Zm-15.911,2.86-.6-1.967q-1,.305-1.986.639l.658,1.948Q156.858,79.905,157.829,79.609Zm-2.448,133.505q.99.333,1.994.636l.6-1.968q-.974-.3-1.937-.617ZM165.7,77.709l-.365-2.024q-1.028.186-2.047.4l.423,2.012Q164.7,77.889,165.7,77.709ZM151.456,211.667q.969.39,1.952.752l.712-1.929q-.955-.352-1.9-.731ZM206.21,80.429q-.959-.417-1.93-.805l-.765,1.909q.944.377,1.875.782Zm-44.474-1.886-.483-2q-1.016.246-2.02.519l.542,1.984Q160.75,78.782,161.736,78.543Zm-2.355,135.783q1.006.272,2.022.515l.477-2q-.987-.235-1.963-.5ZM198.355,77.554q-1-.3-2.007-.571l-.534,1.985q.98.264,1.948.554Zm-4.031-1.082q-1.012-.239-2.036-.45l-.415,2.014q.994.2,1.979.438ZM181.955,74.68q-1.038-.058-2.085-.086l-.056,2.055q1.016.028,2.023.085Zm14.288,137.583.547,1.983q1.008-.278,2-.584l-.6-1.965Q197.222,211.992,196.243,212.263Zm3.872-1.19.662,1.946q.99-.336,1.966-.7l-.72-1.927Q201.076,210.746,200.116,211.073Zm2.211-132.2q-.981-.359-1.976-.691l-.65,1.951q.965.321,1.918.671ZM192.31,213.22l.425,2.012q1.024-.216,2.036-.464l-.487-2Q193.3,213.01,192.31,213.22Zm-12.051,1.466.068,2.055q1.046-.034,2.084-.1l-.129-2.052Q181.275,214.653,180.26,214.687Zm5.851-139.653q-1.034-.12-2.077-.207l-.174,2.048q1.012.086,2.015.2Zm-1.807,139.4.186,2.048q1.042-.1,2.075-.221l-.248-2.042Q185.315,214.341,184.3,214.434Zm5.935-138.8q-1.025-.18-2.06-.329l-.294,2.035q1,.146,2,.32Zm-1.915,138.314.309,2.034q1.034-.158,2.058-.344l-.368-2.023Q189.327,213.794,188.324,213.945Z" transform="translate(-106.839 -74.567)" fill="#f2ede6"/>
        </g>
      </g>
    </g>
    <g id="Group_54686" data-name="Group 54686" transform="translate(175.1 439.911)">
      <g id="Group_54685" data-name="Group 54685">
        <path id="Path_206470" data-name="Path 206470" d="M284.356,211.4h-7.218V222.44q1.748.144,3.537.144a43.111,43.111,0,0,0,8.938-.932,6.467,6.467,0,0,0-5.258-10.247Z" transform="translate(-277.138 -211.404)" fill="#cbcbcb"/>
      </g>
    </g>
    <g id="Group_54688" data-name="Group 54688" transform="translate(135.597 392.72)">
      <g id="Group_54687" data-name="Group 54687">
        <path id="Path_206471" data-name="Path 206471" d="M262.57,108.143c-.363-.315-.726-.624-1.1-.932a63.836,63.836,0,0,0-48.634-14.277,62.517,62.517,0,0,0-30.83,12.488q-2.3,1.738-4.435,3.681A43.1,43.1,0,0,0,205.2,147.995v-5.82a2.64,2.64,0,0,0-3.037-2.961h-4.9v-7.053h13.277V121.639h6.539v10.522h4.14V121.639h6.539v10.522h4.558a10.977,10.977,0,0,1,10.981,10.974,11.412,11.412,0,0,1-.075,1.289A43.015,43.015,0,0,0,263.646,109.1C263.289,108.78,262.933,108.458,262.57,108.143Z" transform="translate(-177.574 -92.463)" fill="#cbcbcb"/>
      </g>
    </g>
    <g id="Group_54690" data-name="Group 54690" transform="translate(175.1 463.415)">
      <g id="Group_54689" data-name="Group 54689">
        <path id="Path_206472" data-name="Path 206472" d="M294.253,272.831a42.992,42.992,0,0,0-13.579-2.186q-1.789,0-3.537.144v9.994h10.172a7.024,7.024,0,0,0,6.944-7.951Z" transform="translate(-277.137 -270.645)" fill="#cbcbcb"/>
      </g>
    </g>
    <g id="Group_54692" data-name="Group 54692" transform="translate(135.632 466.26)">
      <g id="Group_54691" data-name="Group 54691">
        <path id="Path_206473" data-name="Path 206473" d="M246.836,283.833a13.532,13.532,0,0,1-3.1,4.832,13.392,13.392,0,0,1-9.5,3.935h-6.429v10.515h-6.539V292.6h-4.14v10.515H210.59V292.689h-5.34v.007h-7.937v-7.054h4.9a2.641,2.641,0,0,0,3.037-2.961v-4.867a43.075,43.075,0,0,0-27.589,37.864v.007c.747.678,1.515,1.343,2.3,1.981a63.973,63.973,0,0,0,81.253.13q1.255-1.018,2.454-2.111v-.007A43,43,0,0,0,246.836,283.833Z" transform="translate(-177.661 -277.815)" fill="#cbcbcb"/>
      </g>
    </g>
    <g id="Group_54695" data-name="Group 54695" transform="translate(120.819 398.913)">
      <g id="Group_54694" data-name="Group 54694">
        <g id="Group_54693" data-name="Group 54693">
          <path id="Path_206474" data-name="Path 206474" d="M198.14,108.071a57.814,57.814,0,1,0,57.815,57.815A57.88,57.88,0,0,0,198.14,108.071Zm0,113.572A55.758,55.758,0,1,1,253.9,165.886,55.821,55.821,0,0,1,198.14,221.643Z" transform="translate(-140.325 -108.071)" fill="#f2ede6"/>
        </g>
      </g>
    </g>
    <g id="Group_54698" data-name="Group 54698" transform="translate(136.01 363.268)" opacity="0.5">
      <g id="Group_54697" data-name="Group 54697">
        <g id="Group_54696" data-name="Group 54696">
          <path id="Path_206475" data-name="Path 206475" d="M201.731,22.774l.917,1.841c.607-.3,1.218-.589,1.818-.853l-.828-1.882C203.008,22.157,202.367,22.458,201.731,22.774Zm-3.673,2.058,1.087,1.746c.573-.357,1.155-.7,1.729-1.023l-1.005-1.794C199.268,24.1,198.658,24.459,198.059,24.832ZM194.6,27.226l1.247,1.635c.53-.4,1.077-.8,1.625-1.181l-1.17-1.691C195.724,26.386,195.152,26.8,194.6,27.226Zm10.988-6.148.737,1.92c.621-.239,1.257-.465,1.891-.674l-.643-1.953C206.9,20.589,206.237,20.827,205.585,21.077Zm4-1.316.547,1.983c.64-.177,1.3-.34,1.948-.486l-.448-2.007C210.948,19.4,210.26,19.575,209.587,19.761Zm4.117-.92.346,2.027c.664-.113,1.332-.211,1.986-.291l-.25-2.042C215.1,18.619,214.4,18.721,213.7,18.84ZM181.412,43.375l1.853.892c.291-.6.6-1.206.912-1.787l-1.809-.977C182.038,42.111,181.716,42.742,181.412,43.375Zm7.007-10.449,1.529,1.374c.44-.489.9-.981,1.377-1.461l-1.464-1.445C189.365,31.9,188.88,32.412,188.419,32.926Zm-9.806,18.023,1.987.527q.217-.817.467-1.62l-1.963-.611Q178.841,50.089,178.613,50.948Zm39.269-32.617.15,2.051c.661-.048,1.335-.081,2-.1l-.048-2.056C219.285,18.246,218.577,18.28,217.882,18.331Zm-38.106,28.92,1.931.707c.23-.627.476-1.255.734-1.865l-1.895-.8C180.277,45.934,180.018,46.593,179.777,47.251Zm3.635-7.576,1.76,1.063c.341-.566.7-1.135,1.078-1.691L184.543,37.9C184.151,38.485,183.77,39.082,183.412,39.675Zm2.345-3.495,1.651,1.226c.4-.537.814-1.07,1.234-1.584l-1.592-1.3C186.61,35.06,186.175,35.618,185.757,36.18Zm5.617-6.249,1.394,1.512c.489-.451,1-.9,1.508-1.327l-1.324-1.574C192.418,28.991,191.887,29.458,191.375,29.931Zm56.508.014c.52.425,1.034.865,1.526,1.307l1.373-1.53c-.516-.463-1.054-.924-1.6-1.368Zm9.839,7.665-1.695,1.165c.375.546.744,1.112,1.1,1.682l1.749-1.082C258.5,38.777,258.115,38.183,257.721,37.61Zm-5.405-6.448-1.444,1.464c.476.469.945.955,1.4,1.443l1.511-1.395C253.307,32.163,252.814,31.654,252.316,31.162ZM222.042,20.286c.662.017,1.335.05,2,.1l.151-2.051c-.7-.052-1.405-.086-2.1-.1Zm41.229,28.64-1.959.625c.2.63.39,1.277.562,1.925l1.987-.527C263.68,50.268,263.482,49.588,263.27,48.926Zm-3.332-7.73-1.8.993c.326.59.638,1.189.929,1.783l1.846-.906C260.607,42.444,260.279,41.814,259.938,41.2Zm1.858,3.787-1.889.814c.264.613.516,1.239.749,1.86l1.926-.72C262.337,46.284,262.073,45.626,261.8,44.982Zm-6.625-10.726L253.6,35.579c.427.509.849,1.036,1.253,1.568l1.637-1.244C256.062,35.345,255.619,34.791,255.171,34.256Zm-10.513-6.7c.548.367,1.1.756,1.64,1.157l1.225-1.652c-.566-.42-1.145-.828-1.719-1.214Zm-18.622-6.974c.657.08,1.324.178,1.982.291l.348-2.027c-.691-.119-1.391-.221-2.081-.306Zm7.821,1.728c.631.2,1.269.426,1.894.66l.722-1.925c-.656-.246-1.324-.478-1.986-.692Zm-3.87-1.05c.642.141,1.3.3,1.946.478l.539-1.984c-.681-.186-1.369-.354-2.043-.5Zm11.238,4.214c.579.315,1.164.652,1.74,1l1.066-1.758c-.6-.366-1.216-.719-1.824-1.049Zm-3.612-1.755c.61.262,1.224.543,1.825.835l.9-1.85c-.63-.306-1.273-.6-1.912-.874Z" transform="translate(-178.613 -18.229)" fill="#f2ede6"/>
        </g>
      </g>
    </g>
    <g id="Group_54701" data-name="Group 54701" transform="translate(135.48 517.482)" opacity="0.5">
      <g id="Group_54700" data-name="Group 54700">
        <g id="Group_54699" data-name="Group 54699">
          <path id="Path_206476" data-name="Path 206476" d="M199.962,436.31c.622.325,1.256.638,1.887.93l.866-1.865c-.6-.279-1.207-.578-1.8-.888Zm16.008,4.839c.692.071,1.4.127,2.1.165l.111-2.054c-.665-.035-1.336-.089-1.995-.157Zm-19.642-6.957c.588.38,1.191.75,1.793,1.1l1.035-1.777c-.575-.335-1.15-.688-1.71-1.051Zm15.486,6.325c.682.137,1.379.26,2.07.366l.309-2.033c-.659-.1-1.323-.217-1.973-.349Zm-8.039-2.434c.649.265,1.31.517,1.965.75l.687-1.939c-.624-.221-1.255-.462-1.873-.715Zm3.962,1.407c.661.2,1.343.389,2.025.562l.5-1.993c-.652-.165-1.3-.346-1.933-.536Zm-14.831-7.745c.551.434,1.117.859,1.683,1.264l1.2-1.673c-.54-.386-1.08-.791-1.606-1.205Zm-12.523-20.972-1.946.663c.226.663.471,1.328.728,1.977l1.911-.758C180.832,412.036,180.6,411.4,180.384,410.773Zm1.48,3.73-1.872.851c.289.635.6,1.273.92,1.9l1.828-.941C182.433,415.717,182.139,415.108,181.864,414.5Zm7.863,14.487c.5.477,1.025.952,1.557,1.414l1.347-1.553c-.509-.442-1.009-.9-1.488-1.351ZM179.28,406.919l-2,.469c.16.683.338,1.368.53,2.038l1.977-.566C179.6,408.221,179.432,407.568,179.28,406.919Zm7.537,19.031c.46.528.938,1.051,1.42,1.554l1.485-1.422c-.459-.48-.915-.979-1.354-1.483Zm-.938-4.5-1.672,1.2c.407.57.834,1.136,1.266,1.683l1.613-1.274C186.674,422.53,186.268,421.991,185.879,421.447Zm-2.176-3.374-1.78,1.03c.351.607.721,1.212,1.1,1.8l1.728-1.114C184.389,419.228,184.037,418.651,183.7,418.073Zm48.358,19.558.585,1.972c.669-.2,1.343-.417,2.006-.65l-.681-1.94C233.339,437.234,232.7,437.442,232.061,437.63Zm22.434-16.088,1.673,1.2c.406-.568.8-1.153,1.182-1.74l-1.728-1.115C255.261,420.442,254.882,421,254.494,421.542Zm-2.483,3.154,1.554,1.347c.459-.528.91-1.074,1.341-1.622l-1.615-1.272C252.879,423.671,252.449,424.191,252.011,424.7Zm4.658-6.525,1.779,1.032c.35-.6.69-1.224,1.012-1.845l-1.826-.945C257.328,417.005,257,417.6,256.669,418.171Zm-7.426,9.433,1.422,1.485c.5-.483,1-.983,1.486-1.489l-1.489-1.418C250.2,426.665,249.724,427.143,249.243,427.6Zm11.366-18.622c-.186.64-.391,1.282-.607,1.909l1.944.671c.227-.658.442-1.333.637-2Zm-40.191,30.339h-.232l-.017,2.056h.25q.927,0,1.859-.039l-.089-2.055Q221.3,439.321,220.417,439.321Zm38.095-24.71,1.87.857c.291-.636.57-1.287.83-1.934l-1.909-.765C259.056,413.385,258.789,414,258.512,414.611ZM235.848,436.3l.774,1.905c.64-.26,1.29-.542,1.931-.839l-.864-1.866C237.078,435.784,236.458,436.053,235.848,436.3Zm-7.687,2.282.39,2.019c.689-.133,1.382-.284,2.06-.45l-.489-2C229.477,438.312,228.817,438.456,228.161,438.583Zm-3.973.565.189,2.047c.688-.064,1.391-.145,2.091-.244l-.286-2.036C225.515,439.009,224.844,439.088,224.188,439.148Zm22.028-8.907,1.277,1.612c.541-.429,1.086-.881,1.618-1.344l-1.349-1.552C247.253,429.4,246.733,429.832,246.216,430.242Zm-6.725,4.371.953,1.822c.622-.325,1.242-.668,1.843-1.02l-1.039-1.775C240.674,433.976,240.083,434.3,239.49,434.613Zm3.466-2.027,1.12,1.724c.587-.382,1.172-.781,1.738-1.188l-1.2-1.67C244.074,431.841,243.516,432.222,242.956,432.586Z" transform="translate(-177.278 -406.919)" fill="#f2ede6"/>
        </g>
      </g>
    </g>
  </g>
</svg>
