<svg width="12" height="16" viewBox="0 0 12 16" fill="none" xmlns="http://www.w3.org/2000/svg">
<path opacity="0.998" d="M7.66762 2.25432C7.52723 2.24449 7.38633 2.24449 7.24594 2.25432H1.91736C1.66318 2.25432 1.41942 2.35529 1.23969 2.53502C1.05996 2.71475 0.958984 2.95852 0.958984 3.2127V8.00458C0.958984 8.25876 1.05996 8.50253 1.23969 8.68226C1.41942 8.86199 1.66318 8.96296 1.91736 8.96296H7.24594C7.77202 8.96451 8.29071 8.83902 8.7579 8.59715C9.22509 8.35528 9.62697 8.00418 9.92939 7.5737C10.334 7.01701 10.549 6.34508 10.5428 5.65694V5.54194C10.5471 4.73753 10.2572 3.95928 9.72766 3.35375C9.19811 2.74823 8.46544 2.3572 7.66762 2.25432ZM2.87574 7.04161V4.16648H7.24594C7.61121 4.16889 7.96083 4.31506 8.21913 4.57335C8.47742 4.83164 8.62359 5.18127 8.626 5.54654V5.66154C8.62359 6.02682 8.47742 6.37644 8.21913 6.63473C7.96083 6.89302 7.61121 7.0392 7.24594 7.04161H2.87574Z" fill="#24312E"/>
<path opacity="0.998" d="M9.92939 7.56912C9.39858 7.22427 8.77904 7.04102 8.14604 7.04163H1.91736C1.66318 7.04163 1.41942 7.1426 1.23969 7.32233C1.05996 7.50206 0.958984 7.74583 0.958984 8V12.7919C0.958984 13.0461 1.05996 13.2898 1.23969 13.4696C1.41942 13.6493 1.66318 13.7503 1.91736 13.7503H8.14604C9.03546 13.7503 9.88845 13.3969 10.5174 12.768C11.1463 12.1391 11.4996 11.2861 11.4996 10.3967C11.502 9.83037 11.3588 9.27292 11.0839 8.77779C10.8089 8.28266 10.4114 7.86647 9.92939 7.56912ZM8.14758 11.8335H2.87574V8.95838H8.14604C8.52731 8.95838 8.89296 9.10984 9.16255 9.37943C9.43215 9.64903 9.58361 10.0147 9.58361 10.3959C9.58361 10.7772 9.43215 11.1429 9.16255 11.4125C8.89296 11.6821 8.52884 11.8335 8.14758 11.8335Z" fill="#24312E"/>
<path opacity="0.998" d="M1.91675 13.7503H0.958377C0.7042 13.7503 0.460432 13.6493 0.280701 13.4696C0.100971 13.2898 0 13.0461 0 12.7919C0 12.5377 0.100971 12.294 0.280701 12.1142C0.460432 11.9345 0.7042 11.8335 0.958377 11.8335V4.16651C0.7042 4.16651 0.460432 4.06554 0.280701 3.88581C0.100971 3.70608 0 3.46231 0 3.20813C0 2.95396 0.100971 2.71019 0.280701 2.53046C0.460432 2.35073 0.7042 2.24976 0.958377 2.24976H1.91675C2.17093 2.24976 2.4147 2.35073 2.59443 2.53046C2.77416 2.71019 2.87513 2.95396 2.87513 3.20813V12.7919C2.87513 13.0461 2.77416 13.2898 2.59443 13.4696C2.4147 13.6493 2.17093 13.7503 1.91675 13.7503Z" fill="#24312E"/>
<path opacity="0.998" d="M6.7079 4.16652H2.87439C2.62022 4.16652 2.37645 4.06554 2.19672 3.88581C2.01699 3.70608 1.91602 3.46232 1.91602 3.20814V1.29138C1.91602 1.03721 2.01699 0.79344 2.19672 0.613709C2.37645 0.433979 2.62022 0.333008 2.87439 0.333008C3.12857 0.333008 3.37234 0.433979 3.55207 0.613709C3.7318 0.79344 3.83277 1.03721 3.83277 1.29138V2.24976H5.74952V1.29138C5.74952 1.03721 5.85049 0.79344 6.03022 0.613709C6.20996 0.433979 6.45372 0.333008 6.7079 0.333008C6.96208 0.333008 7.20585 0.433979 7.38558 0.613709C7.56531 0.79344 7.66628 1.03721 7.66628 1.29138V3.20814C7.66628 3.46232 7.56531 3.70608 7.38558 3.88581C7.20585 4.06554 6.96208 4.16652 6.7079 4.16652Z" fill="#24312E"/>
<path opacity="0.998" d="M6.7079 15.667C6.45372 15.667 6.20996 15.566 6.03022 15.3863C5.85049 15.2066 5.74952 14.9628 5.74952 14.7086V13.7502H3.83277V14.7086C3.83277 14.9628 3.7318 15.2066 3.55207 15.3863C3.37234 15.566 3.12857 15.667 2.87439 15.667C2.62022 15.667 2.37645 15.566 2.19672 15.3863C2.01699 15.2066 1.91602 14.9628 1.91602 14.7086V12.7919C1.91602 12.5377 2.01699 12.2939 2.19672 12.1142C2.37645 11.9345 2.62022 11.8335 2.87439 11.8335H6.7079C6.96208 11.8335 7.20585 11.9345 7.38558 12.1142C7.56531 12.2939 7.66628 12.5377 7.66628 12.7919V14.7086C7.66628 14.9628 7.56531 15.2066 7.38558 15.3863C7.20585 15.566 6.96208 15.667 6.7079 15.667Z" fill="#24312E"/>
</svg>
