<svg width="7" height="9" viewBox="0 0 7 9" fill="none" xmlns="http://www.w3.org/2000/svg">
<g opacity="0.998">
<path d="M4.66728 1.12768C4.58181 1.12191 4.49604 1.12191 4.41058 1.12768H1.16682C1.01209 1.12768 0.863696 1.18694 0.754286 1.29243C0.644875 1.39792 0.58341 1.541 0.58341 1.69018V4.50268C0.58341 4.65187 0.644875 4.79494 0.754286 4.90043C0.863696 5.00592 1.01209 5.06518 1.16682 5.06518H4.41058C4.73083 5.06609 5.04658 4.99243 5.33098 4.85047C5.61538 4.70851 5.86003 4.50244 6.04412 4.24978C6.2904 3.92305 6.4213 3.52867 6.41751 3.12478V3.05728C6.42016 2.58515 6.24369 2.12837 5.92132 1.77297C5.59896 1.41757 5.15294 1.18806 4.66728 1.12768ZM1.75023 3.93748V2.24998H4.41058C4.63293 2.2514 4.84577 2.33719 5.003 2.48879C5.16024 2.64039 5.24922 2.84559 5.25069 3.05998V3.12748C5.24922 3.34187 5.16024 3.54707 5.003 3.69867C4.84577 3.85027 4.63293 3.93607 4.41058 3.93748H1.75023Z" fill="white"/>
<path d="M6.04412 4.2471C5.72099 4.0447 5.34385 3.93714 4.95851 3.9375H1.16682C1.01209 3.9375 0.863696 3.99676 0.754286 4.10225C0.644875 4.20774 0.58341 4.35082 0.58341 4.5V7.3125C0.58341 7.46169 0.644875 7.60476 0.754286 7.71025C0.863696 7.81574 1.01209 7.875 1.16682 7.875H4.95851C5.49995 7.875 6.0192 7.66763 6.40205 7.2985C6.7849 6.92937 6.99998 6.42873 6.99998 5.9067C7.00143 5.5743 6.91429 5.24711 6.74692 4.95651C6.57954 4.6659 6.33754 4.42163 6.04412 4.2471ZM4.95945 6.75H1.75023V5.0625H4.95851C5.19061 5.0625 5.4132 5.15139 5.57731 5.30963C5.74143 5.46786 5.83363 5.68247 5.83363 5.90625C5.83363 6.13003 5.74143 6.34464 5.57731 6.50287C5.4132 6.66111 5.19154 6.75 4.95945 6.75Z" fill="white"/>
<path d="M1.16682 7.875L0.58341 7.875C0.42868 7.875 0.280287 7.81574 0.170876 7.71025C0.0614657 7.60476 0 7.46168 0 7.3125C0 7.16332 0.0614657 7.02024 0.170876 6.91475C0.280287 6.80926 0.42868 6.75 0.58341 6.75V2.25C0.42868 2.25 0.280287 2.19074 0.170876 2.08525C0.0614657 1.97976 0 1.83668 0 1.6875C0 1.53832 0.0614657 1.39524 0.170876 1.28975C0.280287 1.18426 0.42868 1.125 0.58341 1.125H1.16682C1.32155 1.125 1.46994 1.18426 1.57935 1.28975C1.68876 1.39524 1.75023 1.53832 1.75023 1.6875V7.3125C1.75023 7.46168 1.68876 7.60476 1.57935 7.71025C1.46994 7.81574 1.32155 7.875 1.16682 7.875Z" fill="white"/>
<path d="M4.08387 2.25L1.75023 2.24998C1.5955 2.24998 1.44711 2.19074 1.3377 2.08525C1.22828 1.97976 1.16682 1.83668 1.16682 1.6875V0.5625C1.16682 0.413316 1.22828 0.270241 1.3377 0.164752C1.44711 0.0592628 1.5955 0 1.75023 0C1.90496 0 2.05335 0.0592628 2.16276 0.164752C2.27217 0.270241 2.33364 0.413316 2.33364 0.5625V1.125H3.50046V0.5625C3.50046 0.413316 3.56192 0.270241 3.67133 0.164752C3.78074 0.0592628 3.92914 0 4.08387 0C4.2386 0 4.38699 0.0592628 4.4964 0.164752C4.60581 0.270241 4.66728 0.413316 4.66728 0.5625V1.6875C4.66728 1.83668 4.60581 1.97976 4.4964 2.08525C4.38699 2.19074 4.2386 2.25 4.08387 2.25Z" fill="white"/>
<path d="M4.08387 9C3.92914 9 3.78074 8.94074 3.67133 8.83525C3.56192 8.72976 3.50046 8.58668 3.50046 8.4375V7.875H2.33364V8.4375C2.33364 8.58668 2.27217 8.72976 2.16276 8.83525C2.05335 8.94074 1.90496 9 1.75023 9C1.5955 9 1.44711 8.94074 1.3377 8.83525C1.22828 8.72976 1.16682 8.58668 1.16682 8.4375V7.3125C1.16682 7.16332 1.22828 7.02024 1.3377 6.91475C1.44711 6.80926 1.5955 6.75 1.75023 6.75L4.08387 6.75C4.2386 6.75 4.38699 6.80926 4.4964 6.91475C4.60581 7.02024 4.66728 7.16332 4.66728 7.3125V8.4375C4.66728 8.58668 4.60581 8.72976 4.4964 8.83525C4.38699 8.94074 4.2386 9 4.08387 9Z" fill="white"/>
</g>
</svg>
