<svg xmlns="http://www.w3.org/2000/svg" width="7.688" height="10.251" viewBox="0 0 7.688 10.251">
  <path id="btc" d="M3.844,9.61V8.97H2.562V9.61a.641.641,0,1,1-1.281,0V8.97H.641a.641.641,0,0,1,0-1.282V2.562a.641.641,0,0,1,0-1.281h.641V.641a.641.641,0,1,1,1.281,0v.641H3.844V.641a.641.641,0,1,1,1.281,0v.641a2.2,2.2,0,0,1,1.922,2.2v.077a2.148,2.148,0,0,1-.41,1.281,2.209,2.209,0,0,1,1.051,1.89A2.243,2.243,0,0,1,5.445,8.97h-.32V9.61a.641.641,0,1,1-1.281,0Zm1.6-1.922a.961.961,0,1,0,0-1.922H1.922V7.688Zm-.6-3.2a.929.929,0,0,0,.923-.923V3.485a.929.929,0,0,0-.923-.923H1.922V4.485Z" fill="#00836a" opacity="0.767"/>
</svg>
