<svg width="24" height="24" viewBox="0 0 24 24" fill="none" xmlns="http://www.w3.org/2000/svg">
<path fill-rule="evenodd" clip-rule="evenodd" d="M14.48 17.04C14.5649 17.04 14.6463 17.0063 14.7063 16.9463C14.7663 16.8863 14.8 16.8049 14.8 16.72C14.8 16.6351 14.7663 16.5537 14.7063 16.4937C14.6463 16.4337 14.5649 16.4 14.48 16.4C14.3951 16.4 14.3137 16.4337 14.2537 16.4937C14.1937 16.5537 14.16 16.6351 14.16 16.72C14.16 16.8049 14.1937 16.8863 14.2537 16.9463C14.3137 17.0063 14.3951 17.04 14.48 17.04ZM14.48 18C14.8195 18 15.145 17.8651 15.3851 17.6251C15.6251 17.385 15.76 17.0595 15.76 16.72C15.76 16.3805 15.6251 16.0549 15.3851 15.8149C15.145 15.5748 14.8195 15.44 14.48 15.44C14.1405 15.44 13.8149 15.5748 13.5749 15.8149C13.3348 16.0549 13.2 16.3805 13.2 16.72C13.2 17.0595 13.3348 17.385 13.5749 17.6251C13.8149 17.8651 14.1405 18 14.48 18ZM10.64 17.04C10.7248 17.04 10.8062 17.0063 10.8663 16.9463C10.9263 16.8863 10.96 16.8049 10.96 16.72C10.96 16.6351 10.9263 16.5537 10.8663 16.4937C10.8062 16.4337 10.7248 16.4 10.64 16.4C10.5551 16.4 10.4737 16.4337 10.4137 16.4937C10.3537 16.5537 10.32 16.6351 10.32 16.72C10.32 16.8049 10.3537 16.8863 10.4137 16.9463C10.4737 17.0063 10.5551 17.04 10.64 17.04ZM10.64 18C10.9795 18 11.305 17.8651 11.5451 17.6251C11.7851 17.385 11.92 17.0595 11.92 16.72C11.92 16.3805 11.7851 16.0549 11.5451 15.8149C11.305 15.5748 10.9795 15.44 10.64 15.44C10.3005 15.44 9.97492 15.5748 9.73488 15.8149C9.49483 16.0549 9.35997 16.3805 9.35997 16.72C9.35997 17.0595 9.49483 17.385 9.73488 17.6251C9.97492 17.8651 10.3005 18 10.64 18ZM6.0806 6.21372C6.15122 6.10781 6.26101 6.03429 6.38584 6.00932C6.51066 5.98436 6.64028 6.01 6.7462 6.0806L7.49373 6.57884C7.73256 6.73802 7.90118 6.9828 7.96477 7.26269L9.28157 13.0573C9.32176 13.2341 9.42086 13.3921 9.56261 13.5052C9.70437 13.6184 9.88036 13.68 10.0617 13.68H15.0582C15.2396 13.68 15.4156 13.6184 15.5573 13.5052C15.6991 13.3921 15.7982 13.2341 15.8384 13.0573L16.8566 8.57725C16.8833 8.46011 16.8832 8.33848 16.8563 8.22139C16.8295 8.10429 16.7767 7.99474 16.7017 7.90086C16.6268 7.80698 16.5317 7.73118 16.4234 7.67909C16.3152 7.627 16.1966 7.59996 16.0765 7.59997H11.12C10.9927 7.59997 10.8706 7.5494 10.7806 7.45938C10.6905 7.36936 10.64 7.24727 10.64 7.11997C10.64 6.99266 10.6905 6.87057 10.7806 6.78055C10.8706 6.69054 10.9927 6.63996 11.12 6.63996H16.0765C17.2061 6.63996 18.0429 7.68861 17.7926 8.79005L16.7744 13.2701C16.6859 13.6591 16.4679 14.0065 16.1561 14.2553C15.8443 14.5041 15.4572 14.6397 15.0582 14.6397H10.0617C9.6628 14.6397 9.2757 14.5041 8.96389 14.2553C8.65208 14.0065 8.43406 13.6591 8.34557 13.2701L7.02844 7.47517C7.01936 7.43523 6.99531 7.4003 6.96124 7.37757L6.21372 6.87932C6.10781 6.80871 6.03429 6.69891 6.00932 6.57409C5.98436 6.44927 6.01 6.31964 6.0806 6.21372Z" fill="#F6F2ED" stroke="#F6F2ED" stroke-width="0.5"/>
<path fill-rule="evenodd" clip-rule="evenodd" d="M10.6366 10.6595C10.7266 10.5696 10.8486 10.519 10.9758 10.5189C11.103 10.5189 11.225 10.5693 11.315 10.6592L11.8814 11.2246L13.8046 9.3014C13.8489 9.25558 13.9019 9.21904 13.9605 9.19391C14.0191 9.16878 14.0821 9.15557 14.1458 9.15505C14.2095 9.15452 14.2727 9.1667 14.3317 9.19086C14.3907 9.21502 14.4443 9.25069 14.4893 9.29578C14.5344 9.34087 14.57 9.39448 14.5941 9.45348C14.6182 9.51248 14.6303 9.57569 14.6297 9.63943C14.6291 9.70316 14.6159 9.76614 14.5907 9.82469C14.5655 9.88324 14.5289 9.93619 14.483 9.98045L12.2206 12.2429C12.1306 12.3327 12.0086 12.3832 11.8814 12.3832C11.7542 12.3832 11.6322 12.3327 11.5422 12.2429L10.6366 11.3382C10.5466 11.2482 10.4961 11.1261 10.4961 10.9988C10.4961 10.8716 10.5466 10.7495 10.6366 10.6595Z" fill="#F6F2ED" stroke="#F6F2ED" stroke-width="0.5"/>
</svg>
