<svg xmlns="http://www.w3.org/2000/svg" width="15.6" height="22.799" viewBox="0 0 15.6 22.799">
  <g id="icon" transform="translate(-11 -5)">
    <path id="Path_206527" data-name="Path 206527" d="M22.2,32.792a8.923,8.923,0,0,1-2.346-.312c-.354,3.078-.354,3.474-.354,3.612a2.7,2.7,0,0,0,5.4,0c0-.138,0-.534-.354-3.612A8.923,8.923,0,0,1,22.2,32.792Zm0,3.9a.6.6,0,1,1,.6-.6A.6.6,0,0,1,22.2,36.692Z" transform="translate(-3.4 -10.992)" fill="#2F4F4F"/>
    <path id="Path_206528" data-name="Path 206528" d="M20.8,10a4.8,4.8,0,1,0,4.8,4.8A4.805,4.805,0,0,0,20.8,10Zm.6,4.8a.6.6,0,0,1-.176.424l-1.5,1.5a.6.6,0,1,1-.848-.848L20.2,14.551V12.4a.6.6,0,1,1,1.2,0Z" transform="translate(-2 -2)" fill="#2F4F4F"/>
    <path id="Path_206529" data-name="Path 206529" d="M18.8,5a7.8,7.8,0,1,0,7.8,7.8A7.808,7.808,0,0,0,18.8,5Zm0,13.8a6,6,0,1,1,6-6A6.007,6.007,0,0,1,18.8,18.8Z" fill="#2F4F4F"/>
  </g>
</svg>
