<svg width="15" height="13" viewBox="0 0 15 13" fill="none" xmlns="http://www.w3.org/2000/svg">
<path d="M14.4992 5.85243V6.02826C14.4992 7.68225 14.4992 9.3395 14.4992 10.9935C14.5126 11.4411 14.3606 11.8793 14.0688 12.235C13.7769 12.5906 13.3628 12.842 12.8959 12.947C12.7146 12.9839 12.5295 13.0013 12.344 12.9991H2.66819C2.15776 13.0135 1.65927 12.8538 1.26628 12.5499C0.87329 12.2459 0.612856 11.8187 0.533938 11.3484C0.518759 11.2404 0.511778 11.1316 0.513002 11.0228V5.99571C0.513002 5.95013 0.513002 5.90452 0.513002 5.84917L14.4992 5.85243Z" fill="#FDF7F0"/>
<path d="M11.7042 1.9324H12.3679C12.6493 1.92799 12.9288 1.97648 13.1897 2.07493C13.4506 2.17338 13.6876 2.31978 13.8864 2.50544C14.0853 2.6911 14.242 2.91221 14.3472 3.15555C14.4524 3.39888 14.5039 3.65945 14.4987 3.92175C14.4987 4.12036 14.4987 4.319 14.4987 4.52738H0.526444C0.442611 3.71992 0.526465 2.96454 1.24604 2.39801C1.58447 2.118 2.01644 1.95578 2.46861 1.93892C2.73757 1.93892 3.01004 1.93892 3.30345 1.93892V0.659377C3.30231 0.573863 3.31925 0.488955 3.3533 0.409541C3.38735 0.330128 3.43784 0.257733 3.5019 0.196509C3.56596 0.135286 3.64233 0.0864251 3.72665 0.0527127C3.81097 0.0190004 3.90158 0.00111977 3.99332 5.08498e-05C4.08507 -0.00101808 4.17612 0.0147753 4.26132 0.0465125C4.34651 0.0782498 4.42418 0.125311 4.48986 0.185023C4.55555 0.244735 4.60797 0.315922 4.64414 0.394518C4.6803 0.473114 4.69953 0.557568 4.70068 0.643082C4.70068 1.011 4.70068 1.37566 4.70068 1.74358V1.92267H10.2896V1.56774C10.2896 1.26495 10.2896 0.958913 10.2896 0.652859C10.2896 0.480156 10.3632 0.314535 10.4942 0.192416C10.6252 0.070296 10.8029 0.00168039 10.9882 0.00168039C11.1735 0.00168039 11.3512 0.070296 11.4822 0.192416C11.6132 0.314535 11.6868 0.480156 11.6868 0.652859L11.7042 1.9324Z" fill="#FDF7F0"/>
</svg>
