<svg xmlns="http://www.w3.org/2000/svg" width="22" height="19" viewBox="0 0 22 19">
  <g id="calendar" transform="translate(-1 -3)">
    <path id="Path_119631" data-name="Path 119631" d="M1,7A3,3,0,0,1,4,4H20a3,3,0,0,1,3,3V19a3.009,3.009,0,0,1-3,3H4a3,3,0,0,1-3-3ZM4,6A.99.99,0,0,0,3,7V19a1,1,0,0,0,1,1H20a1,1,0,0,0,1-1V7a1,1,0,0,0-1-1Z" fill="#a2a2a2" fill-rule="evenodd"/>
    <path id="Path_119632" data-name="Path 119632" d="M4,9a3,3,0,0,0-3,3v7a3,3,0,0,0,3,3H20a3.009,3.009,0,0,0,3-3V12a3,3,0,0,0-3-3Z" fill="#a2a2a2" fill-rule="evenodd"/>
    <path id="Path_119633" data-name="Path 119633" d="M1,7A3,3,0,0,1,4,4H20a3,3,0,0,1,3,3v3a1,1,0,0,1-1,1H2a1,1,0,0,1-1-1ZM4,6A.99.99,0,0,0,3,7V9H21V7a1,1,0,0,0-1-1Z" fill="#a2a2a2" fill-rule="evenodd"/>
    <path id="Path_119634" data-name="Path 119634" d="M6,3V6.5H4V3Z" fill="#a2a2a2" fill-rule="evenodd"/>
    <path id="Path_119635" data-name="Path 119635" d="M13,3V6.5H11V3Z" fill="#a2a2a2" fill-rule="evenodd"/>
    <path id="Path_119636" data-name="Path 119636" d="M20,3V6.5H18V3Z" fill="#a2a2a2" fill-rule="evenodd"/>
  </g>
</svg>
