<svg width="22" height="19" viewBox="0 0 22 19" fill="none" xmlns="http://www.w3.org/2000/svg">
<path fill-rule="evenodd" clip-rule="evenodd" d="M0 4C0 3.20435 0.31607 2.44129 0.87868 1.87868C1.44129 1.31607 2.20435 1 3 1H19C19.7956 1 20.5587 1.31607 21.1213 1.87868C21.6839 2.44129 22 3.20435 22 4V16C21.9976 16.7949 21.6808 17.5566 21.1187 18.1187C20.5566 18.6808 19.7949 18.9976 19 19H3C2.20435 19 1.44129 18.6839 0.87868 18.1213C0.31607 17.5587 0 16.7956 0 16V4ZM3 3C2.86831 2.99866 2.73767 3.02362 2.61574 3.0734C2.49381 3.12318 2.38304 3.19679 2.28991 3.28991C2.19679 3.38304 2.12318 3.49381 2.0734 3.61574C2.02362 3.73767 1.99866 3.86831 2 4V16C2 16.2652 2.10536 16.5196 2.29289 16.7071C2.48043 16.8946 2.73478 17 3 17H19C19.2652 17 19.5196 16.8946 19.7071 16.7071C19.8946 16.5196 20 16.2652 20 16V4C20 3.73478 19.8946 3.48043 19.7071 3.29289C19.5196 3.10536 19.2652 3 19 3H3Z" fill="#A2A2A2"/>
<path fill-rule="evenodd" clip-rule="evenodd" d="M3 6C2.20435 6 1.44129 6.31607 0.87868 6.87868C0.31607 7.44129 0 8.20435 0 9V16C0 16.7956 0.31607 17.5587 0.87868 18.1213C1.44129 18.6839 2.20435 19 3 19H19C19.7949 18.9976 20.5566 18.6808 21.1187 18.1187C21.6808 17.5566 21.9976 16.7949 22 16V9C22 8.20435 21.6839 7.44129 21.1213 6.87868C20.5587 6.31607 19.7956 6 19 6H3Z" fill="#A2A2A2"/>
<path fill-rule="evenodd" clip-rule="evenodd" d="M0 4C0 3.20435 0.31607 2.44129 0.87868 1.87868C1.44129 1.31607 2.20435 1 3 1H19C19.7956 1 20.5587 1.31607 21.1213 1.87868C21.6839 2.44129 22 3.20435 22 4V7C22 7.26522 21.8946 7.51957 21.7071 7.70711C21.5196 7.89464 21.2652 8 21 8H1C0.734784 8 0.48043 7.89464 0.292893 7.70711C0.105357 7.51957 0 7.26522 0 7V4ZM3 3C2.86831 2.99866 2.73767 3.02362 2.61574 3.0734C2.49381 3.12318 2.38304 3.19679 2.28991 3.28991C2.19679 3.38304 2.12318 3.49381 2.0734 3.61574C2.02362 3.73767 1.99866 3.86831 2 4V6H20V4C20 3.73478 19.8946 3.48043 19.7071 3.29289C19.5196 3.10536 19.2652 3 19 3H3Z" fill="#A2A2A2"/>
<path fill-rule="evenodd" clip-rule="evenodd" d="M5 0V3.5H3V0H5Z" fill="#A2A2A2"/>
<path fill-rule="evenodd" clip-rule="evenodd" d="M12 0V3.5H10V0H12Z" fill="#A2A2A2"/>
<path fill-rule="evenodd" clip-rule="evenodd" d="M19 0V3.5H17V0H19Z" fill="#A2A2A2"/>
</svg>
