<svg width="146" height="135" viewBox="0 0 146 135" fill="none" xmlns="http://www.w3.org/2000/svg">
<g opacity="0.25">
<path d="M127.804 16.8422H126.948V18.1897H127.804V16.8422Z" fill="#2F4F4F"/>
<path d="M127.805 20.5559H126.948V21.9035H127.805V20.5559Z" fill="#2F4F4F"/>
<path d="M129.907 18.944H128.559V19.8001H129.907V18.944Z" fill="#2F4F4F"/>
<path d="M126.194 18.944H124.846V19.8001H126.194V18.944Z" fill="#2F4F4F"/>
</g>
<g opacity="0.25">
<path d="M127.727 108.442H126.256V110.758H127.727V108.442Z" fill="#2F4F4F"/>
<path d="M127.727 114.822H126.256V117.138H127.727V114.822Z" fill="#2F4F4F"/>
<path d="M131.34 112.055H129.024V113.527H131.34V112.055Z" fill="#2F4F4F"/>
<path d="M124.959 112.055H122.643V113.527H124.959V112.055Z" fill="#2F4F4F"/>
</g>
<g opacity="0.5">
<path d="M5.08435 73.6843H3.61279V76.0002H5.08435V73.6843Z" fill="#2F4F4F"/>
<path d="M5.08435 80.0658H3.61279V82.3817H5.08435V80.0658Z" fill="#2F4F4F"/>
<path d="M8.69749 77.2977H6.38159V78.7693H8.69749V77.2977Z" fill="#2F4F4F"/>
<path d="M2.3159 77.2977H0V78.7693H2.3159V77.2977Z" fill="#2F4F4F"/>
</g>
<g opacity="0.5">
<path d="M143.07 102.579C144.325 102.579 145.342 101.562 145.342 100.307C145.342 99.0527 144.325 98.0356 143.07 98.0356C141.815 98.0356 140.798 99.0527 140.798 100.307C140.798 101.562 141.815 102.579 143.07 102.579Z" fill="#2F4F4F"/>
</g>
<g opacity="0.5">
<path d="M23.9929 46.9449C25.8537 46.9449 27.3622 45.4364 27.3622 43.5756C27.3622 41.7148 25.8537 40.2063 23.9929 40.2063C22.132 40.2063 20.6235 41.7148 20.6235 43.5756C20.6235 45.4364 22.132 46.9449 23.9929 46.9449Z" fill="#2F4F4F"/>
</g>
<g opacity="0.25">
<path d="M23.9933 108.317C26.5189 108.317 28.5664 106.269 28.5664 103.743C28.5664 101.218 26.5189 99.1703 23.9933 99.1703C21.4676 99.1703 19.4202 101.218 19.4202 103.743C19.4202 106.269 21.4676 108.317 23.9933 108.317Z" fill="#2F4F4F"/>
</g>
<path d="M83.8353 54.842H78.6709V64.1063H83.8353C84.4439 64.1068 85.0466 63.9869 85.6089 63.7538C86.1711 63.5207 86.6817 63.1788 87.1114 62.7477C87.2902 62.5715 87.4527 62.3795 87.5971 62.1741C88.0953 61.4824 88.3928 60.6666 88.4568 59.8166C88.5207 58.9666 88.3486 58.1155 87.9595 57.357C87.5704 56.5986 86.9794 55.9624 86.2516 55.5186C85.5239 55.0748 84.6877 54.8407 83.8353 54.842Z" fill="#8BA099"/>
<path d="M90.9165 73.2252C90.7547 72.0223 90.162 70.919 89.2484 70.1199C88.3348 69.3209 87.1624 68.8804 85.9487 68.8802H78.6709V78.9148H85.9487C86.6073 78.9145 87.2594 78.7845 87.8678 78.5322C88.4761 78.2798 89.0288 77.9102 89.4943 77.4442C89.9597 76.9783 90.3289 76.4252 90.5806 75.8166C90.8323 75.208 90.9616 74.5557 90.9612 73.8971C90.9612 73.6724 90.9463 73.4479 90.9165 73.2252Z" fill="#8BA099"/>
<path d="M111.991 32.9872C111.735 32.7568 111.477 32.5265 111.221 32.3005C110.965 32.0746 110.701 31.8545 110.436 31.6337C104.298 26.5397 96.9354 23.1371 89.078 21.7626C81.2206 20.3881 73.1404 21.0893 65.6373 23.7969C61.2953 25.3276 57.2251 27.5409 53.5802 30.3536C52.4818 31.1826 51.424 32.0604 50.4068 32.9872C45.681 37.2808 41.9055 42.5153 39.3226 48.3545C36.7398 54.1938 35.4067 60.5087 35.4089 66.8937C35.4112 73.2786 36.7488 79.5925 39.3359 85.4299C41.9229 91.2673 45.7022 96.4992 50.431 100.789C50.9655 101.275 51.5133 101.749 52.0742 102.212C60.2503 108.967 70.52 112.669 81.1255 112.686C91.7309 112.703 102.012 109.033 110.21 102.305C110.809 101.819 111.394 101.316 111.966 100.795V100.789C116.696 96.4999 120.476 91.2684 123.064 85.4309C125.652 79.5934 126.99 73.2791 126.992 66.8937C126.995 60.5082 125.661 54.1929 123.077 48.3536C120.494 42.5143 116.718 37.28 111.991 32.9872ZM99.9261 78.0031C99.4429 79.3008 98.6869 80.4797 97.7093 81.4604C96.8177 82.3544 95.7581 83.0634 94.5916 83.5466C93.4251 84.0298 92.1746 84.2776 90.9119 84.2759H86.3117V91.7987H81.6329V84.2751H78.6707V91.7987H73.992V84.3397H70.1715V84.3448H64.4922V79.2978H67.9987C68.2899 79.3447 68.588 79.3227 68.8692 79.2337C69.1504 79.1447 69.4069 78.991 69.618 78.7851C69.8292 78.5792 69.9893 78.3267 70.0854 78.0479C70.1815 77.769 70.211 77.4716 70.1715 77.1793V56.6494C70.2112 56.3571 70.1818 56.0595 70.0857 55.7806C69.9897 55.5017 69.8296 55.2491 69.6184 55.0432C69.4072 54.8372 69.1507 54.6836 68.8694 54.5946C68.5881 54.5057 68.2899 54.4838 67.9987 54.5308H64.4922V49.4838H73.992V41.9566H78.6707V49.4846H81.6329V41.9566H86.3117V49.4846H89.5732C91.6558 49.484 93.6533 50.3105 95.1267 51.7825C96.6 53.2544 97.4284 55.2512 97.4298 57.3338C97.4291 57.642 97.411 57.9498 97.3755 58.2559C97.1781 59.9182 96.4551 61.4741 95.3117 62.6968C94.1683 63.9194 92.6644 64.745 91.019 65.0532C92.5594 65.0702 94.0732 65.4573 95.4327 66.1818C96.7922 66.9064 97.9576 67.9471 98.8306 69.2163C99.7037 70.4856 100.259 71.9461 100.449 73.4748C100.64 75.0035 100.46 76.5555 99.9246 78.0001L99.9261 78.0031Z" fill="#D3D1CE" fill-opacity="0.3"/>
<g opacity="0.75">
<path d="M36.216 87.2981L34.8773 87.9092C35.0836 88.3606 35.2961 88.8088 35.5147 89.2538L36.8352 88.6046C36.6224 88.1728 36.4161 87.7373 36.216 87.2981ZM37.4888 89.8957L36.1882 90.5823C36.4205 91.0225 36.6591 91.4582 36.9041 91.8896L38.1835 91.1633C37.9478 90.7432 37.7162 90.3207 37.4888 89.8957ZM35.0929 84.6382L33.7204 85.1678C33.8994 85.6319 34.0853 86.0921 34.2779 86.5484L35.6336 85.9777C35.4482 85.5331 35.2688 85.0859 35.0951 84.636L35.0929 84.6382ZM34.1283 81.9041L32.7272 82.3538C32.8797 82.8287 33.0384 83.3001 33.2033 83.7682L34.5912 83.2789C34.4317 82.8221 34.2782 82.3624 34.1305 81.8997L34.1283 81.9041ZM40.4869 94.8415L39.2758 95.6763C39.558 96.0851 39.846 96.4903 40.1399 96.8918L41.3261 96.0211C41.0425 95.6313 40.7637 95.2376 40.4899 94.84L40.4869 94.8415ZM38.9149 92.4111L37.6568 93.1733C37.915 93.5983 38.1786 94.0194 38.4476 94.4366L39.6895 93.6369C39.4254 93.2315 39.1682 92.8224 38.9178 92.4097L38.9149 92.4111ZM32.6919 76.2923L31.2475 76.5718C31.3424 77.0608 31.4441 77.5479 31.5527 78.0331L32.9883 77.7103C32.8846 77.2388 32.7868 76.7657 32.6949 76.2908L32.6919 76.2923ZM31.8403 64.7546L30.3731 64.6922C30.3521 65.1876 30.3381 65.6848 30.3313 66.1836L31.8029 66.2034C31.8073 65.7192 31.8197 65.2363 31.8403 64.7546ZM31.8014 67.6537L30.3298 67.6764C30.3377 68.1748 30.3526 68.6712 30.3746 69.1656L31.8417 69.0996C31.8222 68.6198 31.8087 68.1381 31.8014 67.6544V67.6537ZM33.3294 79.1173L31.9041 79.4841C32.0278 79.9672 32.1584 80.4475 32.2958 80.9248L33.7094 80.5177C33.5764 80.0536 33.4497 79.587 33.3294 79.118V79.1173ZM32.2291 73.4291L30.7707 73.6235C30.8367 74.118 30.9101 74.6099 30.9908 75.0995L32.4425 74.8633C32.3633 74.3874 32.2917 73.9096 32.2276 73.4299L32.2291 73.4291ZM42.2057 97.1743L41.0437 98.0773C41.3489 98.4685 41.6599 98.8566 41.9768 99.2415L43.1109 98.304C42.8014 97.9313 42.4984 97.5552 42.202 97.1757L42.2057 97.1743ZM56.8449 111.536C57.2821 111.776 57.7223 112.009 58.1654 112.235L58.8337 110.924C58.4023 110.705 57.9746 110.479 57.5506 110.247L56.8449 111.536ZM54.2664 110.025C54.6885 110.289 55.1144 110.547 55.5443 110.8L56.2889 109.531C55.8712 109.286 55.4575 109.035 55.0477 108.778L54.2664 110.025ZM56.2405 24.2531L55.4952 22.9848C55.0667 23.2361 54.6423 23.4939 54.2217 23.758L55.0037 25.005C55.4125 24.7478 55.825 24.4967 56.2412 24.2517L56.2405 24.2531ZM58.7757 22.8593L58.1052 21.5499C57.6651 21.7758 57.2266 22.0084 56.7899 22.2475L57.4978 23.5372C57.9204 23.3058 58.3466 23.0799 58.7764 22.8593H58.7757ZM32.0464 61.865L30.5792 61.7183C30.5303 62.2118 30.4873 62.7077 30.4501 63.206L31.9173 63.3117C31.9554 62.8265 31.998 62.3443 32.0464 61.865ZM61.3894 21.6196L60.7982 20.2727C60.3434 20.4723 59.892 20.6787 59.444 20.8919L60.0756 22.2204C60.5084 22.014 60.9456 21.8137 61.3872 21.6196H61.3894ZM51.7825 108.363C52.188 108.652 52.5978 108.935 53.012 109.212L53.8299 107.989C53.4275 107.72 53.0291 107.445 52.6349 107.165L51.7825 108.363ZM47.1273 104.626C47.4965 104.96 47.8706 105.289 48.2496 105.612L49.2033 104.492C48.8355 104.179 48.4724 103.861 48.1139 103.538L47.1273 104.626ZM49.1754 29.2877L48.2218 28.169C47.8437 28.4912 47.4703 28.8194 47.1016 29.1534L48.0882 30.245C48.4452 29.9193 48.8074 29.5994 49.1747 29.2855L49.1754 29.2877ZM44.0484 99.4102L42.9415 100.379C43.2691 100.754 43.6024 101.123 43.9413 101.487L45.019 100.485C44.6898 100.13 44.3661 99.7714 44.0477 99.408L44.0484 99.4102ZM53.7903 25.7907L52.9716 24.5686C52.5584 24.8449 52.1496 25.1271 51.7451 25.4151L52.5983 26.613C52.991 26.3338 53.3883 26.0597 53.7903 25.7907ZM44.9713 102.564C45.32 102.918 45.6743 103.268 46.0342 103.611L47.0517 102.549C46.703 102.215 46.3592 101.876 46.0203 101.532L44.9713 102.564ZM51.4333 27.4684L50.5464 26.2947C50.1503 26.5949 49.7591 26.9006 49.3727 27.2116L50.2948 28.3582C50.6685 28.0584 51.048 27.7618 51.4333 27.4684ZM49.4006 106.562C49.7884 106.873 50.1811 107.179 50.5787 107.48L51.4664 106.306C51.0805 106.012 50.699 105.715 50.322 105.414L49.4006 106.562ZM119.223 35.3646L120.355 34.4249C120.038 34.0425 119.715 33.6647 119.386 33.2915L118.281 34.2635C118.601 34.6274 118.915 34.9949 119.223 35.3661V35.3646ZM126.722 47.6784L128.077 47.1055C127.882 46.6477 127.682 46.1937 127.477 45.7432L126.14 46.3558C126.34 46.7944 126.534 47.2358 126.722 47.6799V47.6784ZM122.657 40.0279L123.891 39.2261C123.62 38.809 123.343 38.3962 123.06 37.9879L121.851 38.8249C122.124 39.222 122.392 39.623 122.657 40.0279ZM125.518 45.0529L126.838 44.4001C126.618 43.9545 126.392 43.5129 126.159 43.0752L124.86 43.7655C125.085 44.1915 125.304 44.6206 125.518 45.0529ZM118.384 32.1875C118.044 31.8236 117.7 31.4649 117.35 31.1113L116.304 32.1457C116.644 32.488 116.979 32.8362 117.308 33.1903L118.384 32.1875ZM121.008 37.6475L122.193 36.7745C121.899 36.3745 121.599 35.9786 121.291 35.5869L120.133 36.4936C120.429 36.8741 120.721 37.2587 121.008 37.6475ZM59.51 112.895C59.9604 113.108 60.4143 113.314 60.8715 113.514L61.4584 112.166C61.0143 111.971 60.5742 111.77 60.138 111.564L59.51 112.895ZM124.16 42.4986L125.439 41.7709C125.194 41.3391 124.942 40.9112 124.682 40.4872L123.426 41.2523C123.677 41.6636 123.922 42.079 124.161 42.4986H124.16ZM129.941 58.784L131.393 58.5434C131.311 58.0509 131.223 57.5619 131.128 57.0763L129.684 57.3601C129.777 57.8316 129.863 58.3062 129.941 58.784ZM130.33 61.656L131.793 61.5019C131.741 61.005 131.681 60.5111 131.615 60.0201L130.157 60.2174C130.222 60.6947 130.28 61.1733 130.331 61.653L130.33 61.656ZM127.771 50.3765L129.157 49.8828C128.99 49.4138 128.816 48.9475 128.636 48.4839L127.265 49.0172C127.44 49.4696 127.609 49.9222 127.771 50.3765ZM130.55 64.5463L132.017 64.4773C131.993 63.979 131.963 63.4823 131.925 62.9874L130.458 63.0996C130.496 63.5799 130.527 64.0616 130.55 64.5463ZM128.661 53.1348L130.073 52.7239C129.935 52.2452 129.788 51.7696 129.633 51.2971L128.233 51.7483C128.383 52.2075 128.525 52.6692 128.661 53.1348ZM129.385 55.9399L130.819 55.6142C130.709 55.1276 130.592 54.6442 130.467 54.164L129.043 54.5307C129.164 54.9978 129.277 55.4675 129.385 55.9399ZM32.9692 56.1446L31.5329 55.8248C31.4248 56.3094 31.3241 56.7968 31.2307 57.2868L32.6758 57.5634C32.7668 57.088 32.8646 56.6151 32.9692 56.1446ZM35.6035 47.8552L34.2464 47.2874C34.0542 47.7471 33.8684 48.21 33.6889 48.6761L35.0629 49.2035C35.236 48.7516 35.4162 48.3017 35.6035 47.8552ZM36.8036 45.2143L35.4832 44.5666C35.2641 45.0146 35.0514 45.4655 34.845 45.9193L36.1845 46.5274C36.3845 46.0848 36.5909 45.6462 36.8036 45.2114V45.2143ZM38.1571 42.6468L36.877 41.922C36.6325 42.3563 36.3936 42.794 36.1603 43.2351L37.4624 43.921C37.6878 43.4897 37.9194 43.0637 38.1571 42.6431V42.6468ZM34.5626 50.5694L33.1739 50.0831C33.0091 50.5535 32.8509 51.0269 32.6993 51.5033L34.1019 51.9486C34.2471 51.4859 34.4 51.026 34.5604 50.5687L34.5626 50.5694ZM33.6823 53.3365L32.2672 52.9323C32.1308 53.4101 32.0012 53.8908 31.8784 54.3745L33.3045 54.7354C33.4233 54.2659 33.549 53.7994 33.6815 53.3357L33.6823 53.3365ZM32.4249 58.9909L30.9724 58.7576C30.8937 59.2467 30.8218 59.7389 30.7568 60.2343L32.2159 60.4258C32.278 59.945 32.3484 59.4667 32.4271 58.9909H32.4249ZM43.0845 35.4776L41.9497 34.5415C41.6333 34.9249 41.3222 35.3135 41.0166 35.7072L42.1778 36.6102C42.4752 36.2278 42.7779 35.8502 43.0845 35.4776ZM44.9918 33.2966L43.9142 32.2946C43.5753 32.6594 43.242 33.0294 42.9143 33.4045L44.022 34.3728C44.3409 34.0094 44.6646 33.6507 44.9933 33.2966H44.9918ZM47.0253 31.2294L46.0063 30.1679C45.6474 30.5103 45.2936 30.8597 44.9449 31.2162L45.9939 32.2476C46.3338 31.9033 46.6776 31.5639 47.0253 31.2294ZM116.284 30.0674C115.924 29.7251 115.559 29.3869 115.189 29.0529L114.205 30.1467C114.564 30.4699 114.919 30.7983 115.269 31.1319L116.284 30.0674ZM41.3034 37.7685L40.1157 36.8992C39.8223 37.3008 39.5343 37.7069 39.2516 38.1177L40.4634 38.9511C40.7383 38.5525 41.0183 38.1583 41.3034 37.7685ZM39.6594 40.1593L38.4234 39.3611C38.1529 39.7798 37.8888 40.202 37.6311 40.628L38.8907 41.3895C39.1411 40.9752 39.3973 40.5652 39.6594 40.1593ZM31.9305 70.5476L30.4633 70.6555C30.5 71.1533 30.544 71.649 30.5954 72.1424L32.0625 71.9913C32.0122 71.5121 31.9682 71.0306 31.9305 70.5469V70.5476ZM114.065 28.0692C113.686 27.7479 113.302 27.4317 112.913 27.1207L111.994 28.2702C112.372 28.5724 112.746 28.8798 113.115 29.1923L114.065 28.0692ZM112.189 105.327L113.115 106.471C113.501 106.158 113.883 105.84 114.26 105.517L113.307 104.4C112.938 104.714 112.566 105.024 112.19 105.327H112.189ZM111.733 26.2059C111.336 25.9061 110.933 25.6127 110.527 25.3256L109.676 26.5265C110.071 26.8057 110.462 27.0908 110.85 27.3818L111.733 26.2059ZM109.884 107.079L110.74 108.275C111.145 107.985 111.545 107.69 111.939 107.39L111.049 106.216C110.665 106.511 110.277 106.799 109.884 107.08V107.079ZM114.389 103.441L115.378 104.529C115.747 104.195 116.11 103.855 116.468 103.51L115.447 102.451C115.1 102.786 114.747 103.116 114.39 103.442L114.389 103.441ZM118.444 99.3009L119.554 100.266C119.881 99.8917 120.202 99.5122 120.518 99.1278L119.382 98.1932C119.074 98.5673 118.762 98.9368 118.445 99.3016L118.444 99.3009ZM116.477 101.428L117.528 102.455C117.876 102.1 118.218 101.739 118.555 101.374L117.474 100.375C117.148 100.734 116.815 101.086 116.477 101.431L116.477 101.428ZM106.76 22.8997C106.329 22.6483 105.895 22.4038 105.458 22.1661L104.753 23.4579C105.178 23.6893 105.6 23.9269 106.017 24.171L106.76 22.8997ZM102.42 111.488L103.053 112.816C103.501 112.602 103.946 112.382 104.388 112.155L103.715 110.847C103.285 111.066 102.854 111.28 102.42 111.488ZM104.133 21.4685C103.689 21.243 103.241 21.0229 102.79 20.8083L102.163 22.1397C102.603 22.3456 103.038 22.5583 103.467 22.7779L104.133 21.4685ZM109.295 24.4761C108.881 24.2008 108.462 23.9318 108.039 23.6692L107.261 24.9163C107.671 25.1725 108.078 25.4347 108.481 25.7027L109.295 24.4761ZM104.99 110.163L105.702 111.45C106.137 111.21 106.568 110.964 106.995 110.712L106.247 109.445C105.832 109.693 105.414 109.933 104.991 110.167L104.99 110.163ZM107.484 108.691L108.269 109.938C108.69 109.673 109.106 109.402 109.516 109.125L108.696 107.904C108.295 108.174 107.891 108.437 107.482 108.695L107.484 108.691ZM126.264 87.1309L127.605 87.7361C127.81 87.2822 128.008 86.8245 128.2 86.3628L126.841 85.798C126.652 86.2479 126.457 86.6932 126.258 87.1338L126.264 87.1309ZM128.336 81.7024L129.74 82.1425C129.889 81.6692 130.032 81.1926 130.168 80.7128L128.752 80.3123C128.616 80.7837 128.476 81.2481 128.331 81.7053L128.336 81.7024ZM129.748 76.0847L131.194 76.3583C131.287 75.8692 131.372 75.3802 131.45 74.8911L129.996 74.6601C129.917 75.1379 129.833 75.6137 129.743 76.0876L129.748 76.0847ZM64.0655 20.5354L63.552 19.1562C63.0864 19.3289 62.6243 19.5081 62.1656 19.6939L62.7172 21.0577C63.1618 20.8772 63.6112 20.7031 64.0655 20.5354ZM130.199 73.2252L131.658 73.413C131.722 72.9205 131.778 72.4263 131.827 71.9304L130.36 71.7837C130.314 72.2679 130.26 72.7486 130.198 73.2259L130.199 73.2252ZM130.484 70.3408L131.951 70.4435C131.986 69.9481 132.013 69.4512 132.033 68.9529L130.566 68.8934C130.545 69.3776 130.517 69.86 130.484 70.3408ZM132.067 65.9687L130.596 65.9943C130.602 66.2878 130.605 66.5812 130.605 66.8746C130.605 67.0644 130.605 67.2536 130.605 67.4424L132.076 67.4586C132.076 67.2629 132.076 67.0673 132.076 66.8717C132.076 66.5714 132.073 66.2704 132.067 65.9687ZM99.7775 112.656L100.332 114.019C100.792 113.832 101.249 113.638 101.702 113.438L101.107 112.092C100.667 112.286 100.224 112.474 99.7775 112.656V112.656ZM121.997 94.716L123.209 95.5443C123.49 95.1334 123.765 94.7178 124.035 94.2972L122.796 93.502C122.535 93.9128 122.268 94.3175 121.997 94.716ZM123.565 92.2754L124.826 93.0332C125.083 92.6068 125.334 92.1762 125.578 91.7414L124.296 91.0203C124.056 91.4443 123.812 91.8627 123.562 92.2754H123.565ZM127.38 84.4511L128.754 84.9771C128.932 84.511 129.103 84.042 129.267 83.5701L127.878 83.0867C127.715 83.5444 127.548 83.9992 127.375 84.4511H127.38ZM124.99 89.7439L126.294 90.4268C126.525 89.9867 126.75 89.5419 126.969 89.0924L125.648 88.4476C125.431 88.8834 125.211 89.3157 124.986 89.7446L124.99 89.7439ZM120.29 97.0613L121.455 97.9607C121.759 97.567 122.058 97.1691 122.351 96.7671L121.162 95.9008C120.874 96.2925 120.582 96.6796 120.286 97.062L120.29 97.0613ZM129.125 78.9178L130.552 79.2757C130.673 78.7945 130.787 78.3101 130.894 77.8225L129.458 77.5063C129.35 77.9797 129.238 78.4502 129.121 78.9178H129.125ZM73.7685 117.21C74.2576 117.283 74.751 117.348 75.2489 117.406L75.4198 115.944C74.9391 115.889 74.4603 115.825 73.9835 115.755L73.7685 117.21ZM75.3127 17.8204L75.1381 16.3598C74.6427 16.419 74.1497 16.4853 73.6592 16.5586L73.8793 18.0133C74.3512 17.9419 74.8276 17.8776 75.3083 17.8204H75.3127ZM81.2041 116.281C80.7194 116.281 80.2365 116.274 79.7552 116.26L79.712 117.727C80.2079 117.742 80.7052 117.749 81.1989 117.749H81.4234L81.4131 116.277H81.2041V116.281ZM81.094 16.0011C80.5947 16.0011 80.0973 16.0094 79.6019 16.0261L79.6481 17.4932C80.1294 17.4785 80.6126 17.4705 81.0977 17.469L81.094 16.0011ZM70.8247 116.689C71.3108 116.791 71.7999 116.885 72.2918 116.971L72.5486 115.523C72.0718 115.438 71.5976 115.346 71.1262 115.248L70.8247 116.689ZM76.7285 117.558C77.2229 117.601 77.7191 117.637 78.2169 117.666L78.3035 116.199C77.8193 116.17 77.3374 116.135 76.8576 116.093L76.7285 117.558ZM78.1957 17.5622L78.1069 16.095C77.6086 16.1253 77.1124 16.1625 76.6185 16.2065L76.7498 17.6737C77.2291 17.6282 77.7108 17.592 78.1949 17.5651L78.1957 17.5622ZM66.8113 19.6081L66.3814 18.2011C65.9046 18.3478 65.431 18.5002 64.9605 18.6581L65.4314 20.0519C65.8882 19.8974 66.3482 19.7495 66.8113 19.6081ZM65.0603 115.131C65.5327 115.289 66.0083 115.441 66.4871 115.586L66.9133 114.178C66.4487 114.037 65.9868 113.89 65.5275 113.738L65.0603 115.131ZM72.4422 18.2488L72.1811 16.8007C71.692 16.8892 71.203 16.9846 70.7139 17.0868L71.0162 18.5268C71.49 18.4271 71.9654 18.3344 72.4422 18.2488ZM62.2514 114.093C62.7135 114.279 63.1781 114.459 63.6452 114.632L64.155 113.252C63.6997 113.084 63.2476 112.909 62.7986 112.729L62.2514 114.093ZM101.424 20.1957C100.967 19.9972 100.507 19.805 100.043 19.6191L99.4958 20.985C99.9462 21.165 100.393 21.3516 100.837 21.5448L101.424 20.1957ZM69.604 18.8459L69.2585 17.4155C68.7739 17.5328 68.2921 17.6568 67.8134 17.7874L68.2007 19.2069C68.6672 19.0797 69.1358 18.9592 69.6062 18.8452L69.604 18.8459ZM67.9168 115.996C68.3966 116.126 68.8788 116.248 69.3634 116.363L69.7053 114.932C69.2348 114.82 68.7668 114.701 68.3012 114.574L67.9168 115.996ZM95.8081 18.1373C95.3323 17.9945 94.8537 17.8585 94.3725 17.7294L93.991 19.1496C94.4586 19.2758 94.9231 19.4081 95.3848 19.5465L95.8081 18.1373ZM92.9244 17.3634C92.4417 17.2494 91.9561 17.1421 91.4675 17.0413L91.1741 18.4821C91.6485 18.5799 92.1204 18.6843 92.5899 18.7953L92.9244 17.3634ZM84.0709 16.0811C83.5755 16.0532 83.0784 16.0327 82.5795 16.0195L82.5392 17.4866C83.0238 17.4998 83.5065 17.5201 83.9872 17.5475L84.0709 16.0811ZM94.2933 114.52L94.6842 115.938C95.165 115.806 95.6425 115.667 96.1169 115.521L95.6849 114.115C95.2256 114.254 94.7625 114.389 94.2955 114.52H94.2933ZM97.064 113.668L97.5379 115.062C98.0098 114.901 98.4786 114.734 98.9441 114.561L98.4306 113.182C97.9792 113.351 97.5244 113.512 97.0662 113.668H97.064ZM98.6456 19.0829C98.1775 18.9112 97.7063 18.7464 97.232 18.5885L96.7691 19.9859C97.2298 20.139 97.6873 20.2989 98.1416 20.4657L98.6456 19.0829ZM91.48 115.204L91.7837 116.644C92.2727 116.541 92.7584 116.43 93.2406 116.313L92.8921 114.884C92.4251 114.999 91.9544 115.106 91.48 115.204ZM82.8583 116.253L82.9074 117.72C83.4063 117.704 83.9034 117.68 84.3988 117.647L84.3064 116.18C83.8261 116.214 83.3439 116.239 82.8597 116.254L82.8583 116.253ZM87.0448 16.3334C86.5518 16.2762 86.0567 16.2273 85.5593 16.1867L85.4346 17.6539C85.9173 17.695 86.3978 17.7439 86.8761 17.8006L87.0448 16.3334ZM85.7515 116.072L85.8843 117.539C86.3812 117.494 86.8761 117.441 87.369 117.381L87.1922 115.92C86.7149 115.978 86.2352 116.029 85.753 116.073L85.7515 116.072ZM89.9982 16.7611C89.5091 16.6755 89.0179 16.597 88.5244 16.5256L88.3139 17.9818C88.7932 18.0512 89.2702 18.1275 89.7451 18.2107L89.9982 16.7611ZM88.6278 115.721L88.8479 117.176C89.3409 117.101 89.8316 117.019 90.3202 116.93L90.0569 115.483C89.5839 115.571 89.1081 115.652 88.6293 115.723L88.6278 115.721Z" fill="#2F4F4F"/>
</g>
<path d="M83.8353 54.842H78.6709V62.7382C79.5023 62.8067 80.3459 62.8409 81.2017 62.8409C83.3509 62.842 85.4943 62.6185 87.5971 62.1741C88.0956 61.4825 88.3933 60.6666 88.4574 59.8165C88.5215 58.9664 88.3495 58.1152 87.9603 57.3567C87.5712 56.5981 86.98 55.9619 86.2521 55.5182C85.5242 55.0744 84.6878 54.8404 83.8353 54.842Z" fill="#2F4F4F"/>
<path d="M111.22 32.2999C110.96 32.0739 110.7 31.8539 110.435 31.6331C105.64 27.6447 100.079 24.6807 94.094 22.9239C88.1094 21.167 81.8283 20.6546 75.6381 21.418C67.6139 22.3495 59.9917 25.4366 53.5809 30.3515C52.4825 31.1805 51.4247 32.0583 50.4075 32.9851C50.596 39.054 52.5722 44.9321 56.0881 49.8824C59.6041 54.8327 64.5033 58.6348 70.1715 60.8118V56.648C70.2111 56.3557 70.1817 56.0581 70.0857 55.7792C69.9896 55.5003 69.8295 55.2477 69.6183 55.0418C69.4071 54.8358 69.1506 54.6822 68.8693 54.5933C68.588 54.5043 68.2899 54.4824 67.9986 54.5294H64.4921V49.4824H73.9919V41.956H78.6692V49.4839H81.6314V41.956H86.3102V49.4839H89.5716C91.6542 49.4833 93.6518 50.3099 95.1251 51.7818C96.5984 53.2538 97.4269 55.2506 97.4282 57.3332C97.4275 57.6413 97.4094 57.9492 97.3739 58.2553C101.712 55.5819 105.318 51.8734 107.869 47.4626C110.419 43.0518 111.835 38.0766 111.989 32.9836C111.735 32.7562 111.481 32.5251 111.22 32.2999Z" fill="#2F4F4F"/>
<path d="M90.9172 73.2259C87.7837 72.1863 84.5032 71.658 81.2017 71.6612C80.3484 71.6612 79.5047 71.6957 78.6709 71.7646V78.9148H85.9487C86.6636 78.9129 87.3698 78.7585 88.0203 78.462C88.6708 78.1654 89.2505 77.7335 89.7207 77.1951C90.191 76.6566 90.541 76.024 90.7473 75.3396C90.9536 74.6551 91.0115 73.9346 90.9172 73.2259Z" fill="#2F4F4F"/>
<path d="M99.9263 78.004C99.443 79.3017 98.6871 80.4807 97.7094 81.4614C96.8177 82.3552 95.7582 83.0641 94.5917 83.5471C93.4251 84.0302 92.1747 84.2779 90.9121 84.2761H86.3118V91.7989H81.6331V84.2761H78.6709V91.7989H73.9921V84.3399H70.1724V84.345H64.4931V79.298H67.9996C68.2908 79.3449 68.5889 79.3229 68.8701 79.2339C69.1513 79.1449 69.4077 78.9912 69.6189 78.7853C69.8301 78.5794 69.9902 78.327 70.0863 78.0481C70.1824 77.7693 70.2119 77.4718 70.1724 77.1795V73.6972C64.6189 75.8265 59.8001 79.5174 56.2975 84.3244C52.7949 89.1314 50.758 94.8493 50.4326 100.788V100.793C50.9674 101.279 51.5161 101.754 52.0758 102.211C60.2558 108.957 70.5239 112.654 81.1267 112.671C91.7296 112.688 102.009 109.023 110.211 102.304C110.81 101.818 111.395 101.315 111.966 100.793V100.788C111.726 96.3457 110.525 92.0083 108.447 88.0748C106.368 84.1413 103.461 80.7054 99.9263 78.004Z" fill="#2F4F4F"/>
<path d="M81.1994 25.5118C73.0179 25.5114 65.0201 27.9371 58.2173 32.4821C51.4144 37.0272 46.1122 43.4874 42.981 51.046C39.8498 58.6045 39.0303 66.9218 40.6261 74.9461C42.222 82.9704 46.1615 90.3413 51.9465 96.1266C57.7315 101.912 65.1021 105.852 73.1263 107.448C81.1505 109.044 89.4679 108.225 97.0266 105.095C104.585 101.964 111.046 96.6618 115.591 89.8592C120.137 83.0566 122.563 75.0589 122.563 66.8775C122.55 55.9108 118.189 45.3968 110.434 37.642C102.68 29.8872 92.166 25.5248 81.1994 25.5118ZM81.1994 106.772C73.3092 106.771 65.5963 104.431 59.036 100.047C52.4758 95.6632 47.3628 89.4324 44.3436 82.1427C41.3245 74.853 40.5348 66.8317 42.0743 59.0932C43.6139 51.3546 47.4136 44.2464 52.993 38.6673C58.5724 33.0882 65.6808 29.2889 73.4194 27.7498C81.1581 26.2106 89.1793 27.0008 96.4689 30.0203C103.758 33.0399 109.989 38.1532 114.372 44.7137C118.756 51.2742 121.096 58.9872 121.096 66.8775C121.084 77.4547 116.876 87.5952 109.397 95.0743C101.917 102.553 91.7766 106.76 81.1994 106.772Z" fill="#2F4F4F"/>
<g opacity="0.5">
<path d="M67.2431 3.26001L67.8989 4.58045C68.3332 4.36478 68.7704 4.15864 69.1995 3.97011L68.6068 2.62327C68.1571 2.8184 67.6979 3.03334 67.2431 3.26001ZM64.6154 4.7323L65.393 5.97938C65.8023 5.72409 66.219 5.47835 66.6305 5.2458L65.9109 3.96278C65.4803 4.20779 65.0445 4.46601 64.6154 4.7323ZM62.1366 6.44226L63.0287 7.61158C63.4079 7.32256 63.7997 7.03793 64.1914 6.7665L63.3566 5.56197C62.9436 5.8444 62.5357 6.14223 62.1366 6.44226ZM69.9984 2.04081L70.5258 3.4148C70.9704 3.24387 71.4252 3.08175 71.8785 2.93284L71.4186 1.53537C70.9447 1.69676 70.4671 1.86695 70.0006 2.04594L69.9984 2.04081ZM72.8593 1.0989L73.2503 2.51763C73.7088 2.39072 74.1776 2.27409 74.6441 2.16992L74.3236 0.734309C73.8379 0.848747 73.3457 0.971254 72.8637 1.10403L72.8593 1.0989ZM75.8054 0.438678L76.0526 1.88896C76.5279 1.80826 77.0062 1.73784 77.4735 1.68062L77.2953 0.220072C76.8082 0.286828 76.3071 0.360186 75.8098 0.445281L75.8054 0.438678ZM52.6977 17.9924L54.0233 18.6306C54.2316 18.1986 54.451 17.7679 54.6755 17.352L53.3814 16.6529C53.1525 17.0953 52.9222 17.5464 52.7051 17.9998L52.6977 17.9924ZM57.7117 10.5158L58.8062 11.4988C59.1209 11.1489 59.4525 10.7968 59.7914 10.4535L58.7439 9.41985C58.3954 9.78737 58.0484 10.1556 57.7183 10.5231L57.7117 10.5158ZM50.6958 23.4106L52.1175 23.7877C52.2207 23.3964 52.3319 23.0101 52.4512 22.6286L51.0464 22.1885C50.9257 22.5968 50.811 23.0067 50.7024 23.4179L50.6958 23.4106ZM78.7918 0.0733579L78.8989 1.54051C79.372 1.50603 79.8525 1.48256 80.3315 1.47155L80.2971 0C79.8026 0.0205401 79.2965 0.0447472 78.7991 0.0806924L78.7918 0.0733579ZM51.535 20.7727L52.9163 21.2788C53.0807 20.8299 53.2567 20.3809 53.4416 19.9445L52.0859 19.373C51.893 19.8308 51.7074 20.3017 51.535 20.7727ZM54.1363 15.3523L55.3958 16.113C55.6401 15.7081 55.8998 15.3009 56.1668 14.9026L54.9476 14.0832C54.6644 14.5006 54.3923 14.9283 54.1363 15.3523ZM55.814 12.8515L56.995 13.7318C57.2804 13.3474 57.5775 12.9667 57.8753 12.5984L56.7361 11.6675C56.4236 12.0505 56.1133 12.4495 55.814 12.8515ZM59.8332 8.3767L60.8309 9.458C61.1808 9.13522 61.5439 8.81612 61.9092 8.50875L60.9629 7.38638C60.58 7.70842 60.2 8.04219 59.8332 8.38037V8.3767ZM100.264 8.38697C100.635 8.69067 101.003 9.00611 101.356 9.32155L102.337 8.23072C101.97 7.89915 101.582 7.57051 101.193 7.2514L100.264 8.38697ZM107.306 13.8712L106.093 14.7045C106.362 15.0948 106.626 15.4997 106.878 15.9083L108.13 15.1344C107.862 14.7097 107.585 14.2849 107.303 13.8749L107.306 13.8712ZM103.437 9.2614L102.404 10.3089C102.744 10.6442 103.08 10.9919 103.403 11.3418L104.485 10.3434C104.144 9.9781 103.792 9.61351 103.437 9.2614ZM81.7752 1.47962C82.2491 1.49136 82.7289 1.51483 83.2072 1.55298L83.315 0.0858274C82.8154 0.0491486 82.3093 0.0242082 81.8119 0.0124709L81.7752 1.47962ZM111.274 21.9706L109.873 22.4181C110.019 22.8692 110.151 23.3321 110.275 23.795L111.696 23.4179C111.566 22.9316 111.425 22.4452 111.273 21.9713L111.274 21.9706ZM108.89 16.4402L107.601 17.151C107.835 17.5728 108.059 18.002 108.266 18.4267L109.587 17.7782C109.368 17.3329 109.133 16.8833 108.89 16.4402ZM110.219 19.1493L108.868 19.7317C109.057 20.1719 109.234 20.6179 109.403 21.0624L110.781 20.5489C110.606 20.0809 110.416 19.6107 110.218 19.15L110.219 19.1493ZM105.479 11.4746L104.352 12.4209C104.658 12.7877 104.959 13.1626 105.248 13.5425L106.422 12.6527C106.116 12.2544 105.799 11.8568 105.479 11.4746ZM97.9564 6.67921C98.3482 6.94183 98.7428 7.22059 99.1302 7.50742L100.007 6.32563C99.6018 6.02559 99.1881 5.7329 98.7766 5.45707L97.9564 6.67921ZM84.6332 1.69089C85.1035 1.74811 85.5803 1.81853 86.0512 1.89923L86.2999 0.448948C85.8055 0.363853 85.3044 0.290496 84.8107 0.228876L84.6332 1.69089ZM90.2289 2.92697C90.6808 3.07368 91.1371 3.2314 91.5846 3.39939L92.0981 2.02174C91.6286 1.84568 91.1511 1.67916 90.6772 1.52657L90.2289 2.92697ZM87.4597 2.17579C87.9189 2.27702 88.3877 2.39219 88.8535 2.51837L89.2386 1.0989C88.7515 0.966119 88.2593 0.845079 87.7766 0.739444L87.4597 2.17579ZM95.5004 5.19078C95.9149 5.41673 96.3338 5.65734 96.7475 5.90675L97.5104 4.6494C97.0791 4.38752 96.6404 4.1359 96.2054 3.89896L95.5004 5.19078ZM92.916 3.9349C93.3525 4.1227 93.7919 4.32296 94.2218 4.53277L94.8644 3.21233C94.4133 2.99226 93.9533 2.78319 93.4963 2.58659L92.916 3.9349Z" fill="#2F4F4F"/>
</g>
<g opacity="0.5">
<path d="M66.5524 131.375C66.9969 131.607 67.451 131.831 67.9022 132.04L68.5213 130.706C68.0914 130.506 67.6579 130.293 67.2339 130.07L66.5524 131.375ZM78.0057 134.836C78.5009 134.888 79.0056 134.927 79.5052 134.954L79.5844 133.487C79.1083 133.462 78.6307 133.424 78.1568 133.375L78.0057 134.836ZM63.9526 129.859C64.3729 130.13 64.8043 130.396 65.2349 130.646L65.9751 129.375C65.5643 129.135 65.1527 128.883 64.7515 128.623L63.9526 129.859ZM75.0296 134.384C75.5174 134.483 76.0163 134.571 76.5107 134.646L76.7308 133.192C76.2591 133.118 75.7837 133.036 75.3194 132.942L75.0296 134.384ZM69.2776 132.643C69.742 132.832 70.2151 133.01 70.6839 133.179L71.1754 131.792C70.7286 131.634 70.2775 131.462 69.8352 131.278L69.2776 132.643ZM72.1129 133.649C72.5861 133.796 73.0739 133.927 73.5617 134.051L73.9219 132.625C73.4553 132.507 72.9903 132.378 72.5384 132.242L72.1129 133.649ZM61.5017 128.108C61.8957 128.419 62.3006 128.723 62.7055 129.012L63.5609 127.815C63.1743 127.539 62.7877 127.248 62.4121 126.953L61.5017 128.108ZM52.5418 113.103L51.148 113.577C51.3094 114.052 51.4847 114.531 51.6689 114.992L53.0363 114.45C52.8675 114.007 52.7003 113.555 52.547 113.103H52.5418ZM53.6004 115.772L52.2609 116.381C52.4677 116.835 52.6885 117.292 52.9211 117.739L54.2291 117.065C54.0126 116.641 53.8021 116.205 53.6055 115.772H53.6004ZM59.2262 126.138C59.5849 126.479 59.9598 126.818 60.3405 127.149L61.3044 126.038C60.9376 125.722 60.5826 125.397 60.24 125.071L59.2262 126.138ZM51.7518 110.346L50.3191 110.681C50.4335 111.17 50.5612 111.66 50.6983 112.139L52.1127 111.735C51.9865 111.278 51.8655 110.81 51.7569 110.346H51.7518ZM57.1443 123.963C57.4737 124.34 57.8148 124.714 58.1603 125.075L59.2232 124.057C58.8946 123.714 58.5689 123.357 58.2549 122.996L57.1443 123.963ZM56.4731 120.741L55.2766 121.597C55.57 122.005 55.873 122.41 56.1826 122.801L57.3365 121.889C57.0467 121.515 56.7562 121.129 56.4782 120.741H56.4731ZM54.9157 118.326L53.6422 119.06C53.8931 119.494 54.1557 119.927 54.4286 120.347L55.6654 119.549C55.4123 119.153 55.16 118.74 54.9208 118.328L54.9157 118.326ZM89.5155 132.319L89.9344 133.73C90.4127 133.588 90.8954 133.432 91.3693 133.265L90.8822 131.877C90.4354 132.036 89.9762 132.184 89.5207 132.319H89.5155ZM105.566 120.808L106.763 121.663C107.056 121.257 107.338 120.838 107.608 120.416L106.372 119.618C106.12 120.021 105.849 120.421 105.571 120.809L105.566 120.808ZM103.789 123.065L104.901 124.029C105.229 123.651 105.551 123.26 105.86 122.868L104.705 121.958C104.415 122.332 104.108 122.704 103.795 123.065L103.789 123.065ZM107.122 118.396L108.395 119.135C108.646 118.704 108.889 118.26 109.119 117.814L107.812 117.138C107.599 117.563 107.366 117.985 107.128 118.397L107.122 118.396ZM101.809 125.145L102.826 126.207C103.187 125.862 103.544 125.504 103.889 125.141L102.823 124.127C102.498 124.474 102.159 124.816 101.814 125.146L101.809 125.145ZM109.94 111.822C109.807 112.28 109.661 112.739 109.506 113.188L110.9 113.668C111.063 113.197 111.216 112.714 111.356 112.233L109.94 111.822ZM81.1843 133.528H81.0178L81.0053 135H81.1843C81.6244 135 82.0678 134.991 82.5143 134.972L82.4512 133.505C82.0316 133.521 81.611 133.529 81.1894 133.529L81.1843 133.528ZM108.44 115.849L109.778 116.462C109.986 116.008 110.186 115.542 110.371 115.079L109.005 114.532C108.835 114.973 108.644 115.416 108.446 115.849H108.44ZM92.2283 131.368L92.7822 132.731C93.2406 132.545 93.705 132.343 94.1642 132.131L93.5465 130.796C93.1079 130.998 92.6677 131.191 92.2276 131.368H92.2283ZM86.7265 133.001L87.006 134.445C87.4989 134.35 87.9948 134.242 88.4797 134.123L88.1298 132.694C87.6721 132.807 87.1996 132.911 86.7301 132.999L86.7265 133.001ZM83.8839 133.405L84.0196 134.872C84.5118 134.827 85.015 134.768 85.5153 134.698L85.3107 133.241C84.8368 133.306 84.357 133.362 83.8875 133.406L83.8839 133.405ZM99.644 127.033L100.558 128.186C100.945 127.878 101.335 127.556 101.716 127.224L100.75 126.114C100.39 126.431 100.018 126.74 99.6484 127.033L99.644 127.033ZM94.8325 130.16L95.514 131.463C95.9585 131.232 96.4023 130.985 96.8344 130.734L96.0913 129.464C95.6834 129.704 95.2602 129.939 94.8362 130.16L94.8325 130.16ZM97.3127 128.709L98.1138 129.943C98.5341 129.67 98.9522 129.384 99.3609 129.093L98.5018 127.899C98.1152 128.177 97.7162 128.451 97.3164 128.71L97.3127 128.709Z" fill="#2F4F4F"/>
</g>
</svg>
