<svg width="20" height="14" viewBox="0 0 20 14" fill="none" xmlns="http://www.w3.org/2000/svg">
<path fill-rule="evenodd" clip-rule="evenodd" d="M5.47819 0.197538C4.59295 0.197003 3.73799 0.519772 3.07396 1.10519C2.40993 1.69061 1.98255 2.49838 1.87213 3.37671C1.76171 4.25504 1.97585 5.14346 2.47431 5.87502C2.97277 6.60659 3.72124 7.13094 4.57906 7.34954C4.64986 8.19419 4.98159 8.99591 5.52829 9.64365C6.07498 10.2914 6.80959 10.7531 7.63035 10.9648C8.4511 11.1764 9.31737 11.1276 10.1092 10.8251C10.9009 10.5226 11.579 9.98129 12.0495 9.27624H19.0959C19.3012 9.27454 19.4999 9.20361 19.6599 9.07492C19.8199 8.94623 19.9318 8.76731 19.9775 8.56712C20.0221 8.36678 19.9989 8.15732 19.9117 7.97153C19.8245 7.78573 19.6782 7.63408 19.4957 7.54031L8.67721 2.13337C8.37029 1.54049 7.90597 1.04363 7.33521 0.697314C6.76445 0.350997 6.10932 0.168612 5.44171 0.170176L5.47819 0.197538Z" fill="#F6F2ED"/>
<path fill-rule="evenodd" clip-rule="evenodd" d="M0.289249 5.00549L2.10727 3.18823L3.3887 4.46966L3.11585 4.7334H3.19185V6.55066H0.916284C0.735783 6.54966 0.559532 6.49578 0.409323 6.39569C0.259114 6.29559 0.141533 6.15367 0.0711169 5.98747C0.00148147 5.8224 -0.017562 5.64037 0.0164016 5.46446C0.0503653 5.28855 0.135806 5.12669 0.261887 4.99941L0.289249 5.00549Z" fill="#F6F2ED"/>
<path fill-rule="evenodd" clip-rule="evenodd" d="M7.29639 13.8299V10.1946H9.11365V13.8299H7.29639Z" fill="#F6F2ED"/>
</svg>
