<svg xmlns="http://www.w3.org/2000/svg" xmlns:xlink="http://www.w3.org/1999/xlink" width="154" height="142.379" viewBox="0 0 154 142.379">
  <defs>
    <linearGradient id="linear-gradient" x1="0.5" x2="0.5" y2="1" gradientUnits="objectBoundingBox">
      <stop offset="0" stop-color="#00836a"/>
      <stop offset="1" stop-color="#073e39"/>
    </linearGradient>
    <linearGradient id="linear-gradient-6" y1="1" y2="0" xlink:href="#linear-gradient"/>
  </defs>
  <g id="illustration" transform="translate(-105 -479.199)">
    <g id="illustration_battery">
      <g id="Group_44556" data-name="Group 44556">
        <g id="Group_39521" data-name="Group 39521" transform="translate(105 533.061)" opacity="0.272">
          <circle id="Ellipse_1999" data-name="Ellipse 1999" cx="29.446" cy="29.446" r="29.446" transform="translate(7.68)" fill="url(#linear-gradient)"/>
          <path id="Path_25533" data-name="Path 25533" d="M2.523,5.045A2.523,2.523,0,1,0,0,2.523,2.523,2.523,0,0,0,2.523,5.045Z" transform="translate(46.41 61.599) rotate(39)" fill="url(#linear-gradient)"/>
          <path id="Path_25534" data-name="Path 25534" d="M1.723,3.445A1.723,1.723,0,1,0,0,1.723,1.723,1.723,0,0,0,1.723,3.445Z" transform="translate(55.089 58.019) rotate(39)" fill="url(#linear-gradient)"/>
          <path id="Path_25535" data-name="Path 25535" d="M15.483,6.657a3.2,3.2,0,1,0-3.2-3.2A3.2,3.2,0,0,0,15.483,6.657Z" transform="translate(-12.284 14.607)" fill="url(#linear-gradient)"/>
        </g>
        <g id="Group_39533" data-name="Group 39533" transform="matrix(0.799, -0.602, 0.602, 0.799, 213.515, 562.151)" opacity="0.272">
          <circle id="Ellipse_1999-2" data-name="Ellipse 1999" cx="10.896" cy="10.896" r="10.896" transform="translate(0 0)" fill="url(#linear-gradient)"/>
          <path id="Path_25533-2" data-name="Path 25533" d="M.933,0A.933.933,0,1,1,0,.933.933.933,0,0,1,.933,0Z" transform="translate(8.636 24.244) rotate(141)" fill="url(#linear-gradient-6)"/>
          <path id="Path_25534-2" data-name="Path 25534" d="M.637,0A.637.637,0,1,1,0,.637.638.638,0,0,1,.637,0Z" transform="translate(5.052 22.459) rotate(141)" fill="url(#linear-gradient-6)"/>
          <path id="Path_25535-2" data-name="Path 25535" d="M1.184,2.368A1.184,1.184,0,1,1,2.368,1.184,1.184,1.184,0,0,1,1.184,2.368Z" transform="translate(22.266 5.501)" fill="url(#linear-gradient)"/>
        </g>
      </g>
    </g>
    <g id="Group_45166" data-name="Group 45166">
      <rect id="Rectangle_8582" data-name="Rectangle 8582" width="19" height="73" transform="translate(146 527)" fill="#f6f2ed"/>
      <rect id="Rectangle_8583" data-name="Rectangle 8583" width="19" height="47" transform="translate(205 553)" fill="#f6f2ed"/>
    </g>
    <g id="CHAT_1" transform="translate(42.116 479.199)">
      <g id="Group_45155" data-name="Group 45155" transform="translate(102.88)">
        <path id="Path_118674" data-name="Path 118674" d="M172.487,142.379H113.27c-.068,0-.134,0-.2-.007a10.389,10.389,0,0,1-10.19-10.39V10.39A10.389,10.389,0,0,1,113.158,0h59.329a10.269,10.269,0,0,1,7.347,3.049,10.322,10.322,0,0,1,3.05,7.341V24.008c0,.579,0,31.247,0,31.247v76.734A10.405,10.405,0,0,1,172.487,142.379ZM104.976,102.07v29.912a8.449,8.449,0,0,0,2.519,5.955,8.294,8.294,0,0,0,5.629,2.339,1.038,1.038,0,0,1,.144.01l59.22,0a8.307,8.307,0,0,0,8.3-8.294V10.39a8.315,8.315,0,0,0-8.3-8.294H113.158a8.292,8.292,0,0,0-8.182,8.294v91.68Z" transform="translate(-102.88)" fill="#002c27"/>
      </g>
      <g id="Group_45156" data-name="Group 45156" transform="translate(133.691 126.378)">
        <path id="Path_118675" data-name="Path 118675" d="M227.469,454.46h-9.2a4.589,4.589,0,0,0-4.592,4.592v.558a4.6,4.6,0,0,0,4.592,4.6h9.2a4.6,4.6,0,0,0,4.592-4.6v-.558A4.589,4.589,0,0,0,227.469,454.46Z" transform="translate(-213.679 -454.46)" fill="none"/>
      </g>
      <g id="Group_45157" data-name="Group 45157" transform="translate(107.834 4.94)">
        <path id="Path_118676" data-name="Path 118676" d="M164.934,142.353a4.6,4.6,0,0,1-4.592,4.6h-9.2a4.6,4.6,0,0,1-4.592-4.6V141.8a4.589,4.589,0,0,1,4.592-4.592h9.2a4.589,4.589,0,0,1,4.592,4.592ZM187.9,128.471A5.576,5.576,0,0,1,182.392,134H129.086a5.593,5.593,0,0,1-5.5-5.527V113.847H120.7v30.967a5.445,5.445,0,0,0,5.443,5.443h59.21a5.445,5.445,0,0,0,5.443-5.443V68.08H187.9Zm-2.55-110.706h-59.21a5.451,5.451,0,0,0-5.443,5.45v92.748h2.893V26.555a5.486,5.486,0,0,1,1.321-3.57,5.651,5.651,0,0,1,4.185-1.942h12.368a5.488,5.488,0,0,1,2.942.873c.112.07.224.147.328.224a5.132,5.132,0,0,1,.58.51,7.563,7.563,0,0,1,1.16,1.544,5.708,5.708,0,0,0,4.737,2.683h9.062a5.635,5.635,0,0,0,4.744-2.683,5.938,5.938,0,0,1,5.01-3.151h12.368a5.587,5.587,0,0,1,5.506,5.513V70.2h2.893V23.215A5.452,5.452,0,0,0,185.348,17.765Z" transform="translate(-120.695 -17.765)" fill="url(#linear-gradient)"/>
      </g>
      <g id="Group_45161" data-name="Group 45161" transform="translate(109.679 7.169)">
        <path id="Path_118678" data-name="Path 118678" d="M187.181,140.833H133.875a6.649,6.649,0,0,1-6.546-6.575V32.342a6.531,6.531,0,0,1,1.573-4.253,6.66,6.66,0,0,1,4.98-2.307h12.368a6.5,6.5,0,0,1,3.506,1.039c.122.076.257.168.382.26a6.3,6.3,0,0,1,.718.63,8.432,8.432,0,0,1,1.3,1.732A4.66,4.66,0,0,0,156,31.615h9.063a4.567,4.567,0,0,0,3.845-2.175,6.92,6.92,0,0,1,5.908-3.659H187.18a6.645,6.645,0,0,1,6.554,6.561V134.258A6.651,6.651,0,0,1,187.181,140.833Zm-57.756-20.151v13.576a4.524,4.524,0,0,0,4.45,4.479h53.306a4.528,4.528,0,0,0,4.458-4.479V32.342a4.521,4.521,0,0,0-4.458-4.465H174.813a4.883,4.883,0,0,0-4.11,2.64,6.7,6.7,0,0,1-5.644,3.194H156a6.718,6.718,0,0,1-5.625-3.175,6.593,6.593,0,0,0-1.007-1.354,4.236,4.236,0,0,0-.482-.425c-.065-.047-.154-.109-.244-.165a4.479,4.479,0,0,0-2.388-.716H133.882a4.6,4.6,0,0,0-3.391,1.577,4.431,4.431,0,0,0-1.067,2.887v88.34Z" transform="translate(-127.328 -25.781)" fill="#002c27"/>
      </g>
      <g id="Group_45162" data-name="Group 45162" transform="translate(114.227 11.711)">
        <path id="Path_118679" data-name="Path 118679" d="M201.008,54.409V44.131A2.1,2.1,0,0,0,199,42.112H186.629a2.7,2.7,0,0,0-2.019,1.454,9.061,9.061,0,0,1-7.735,4.381h-9.062a9.191,9.191,0,0,1-7.735-4.381,3.078,3.078,0,0,0-.936-1.118,2,2,0,0,0-1.076-.335H145.7a2.154,2.154,0,0,0-1.544.727,2.012,2.012,0,0,0-.468,1.293V146.047a2.092,2.092,0,0,0,2.005,2.033H199a2.083,2.083,0,0,0,2.012-2.033V54.409Z" transform="translate(-143.685 -42.112)" fill="#f7f2ec"/>
      </g>
    </g>
    <g id="Group_45167" data-name="Group 45167">
      <g id="Group_45163" data-name="Group 45163" transform="translate(204.523 495.912)">
        <path id="Path_25555" data-name="Path 25555" d="M103.125,123.35A26.325,26.325,0,1,1,129.45,97.025,26.369,26.369,0,0,1,103.125,123.35Z" transform="translate(-74.972 -68.872)" fill="#f6f2ed"/>
      </g>
      <g id="Group_45164" data-name="Group 45164" transform="translate(207.64 499.029)">
        <path id="Path_25555-2" data-name="Path 25555" d="M101.835,120.771a25.035,25.035,0,1,1,25.035-25.035A25.078,25.078,0,0,1,101.835,120.771Zm0-48.482a23.447,23.447,0,1,0,23.447,23.447A23.444,23.444,0,0,0,101.835,72.289Z" transform="translate(-76.8 -70.7)" fill="#002c27"/>
      </g>
      <g id="Group_45165" data-name="Group 45165" transform="translate(210.384 501.821)">
        <path id="Path_25556" data-name="Path 25556" d="M104.791,121.034c-.53,0-1.059,0-1.637-.048l.1-1.541c.77.048,1.541.048,2.311.048l.048,1.541Zm2.5-.1L107.1,119.4c.481-.048,1.011-.144,1.493-.241l.289,1.541C108.354,120.793,107.824,120.842,107.295,120.938Zm-5.729-.1-1.589-.289.337-1.541c.481.1.963.193,1.493.289Zm8.907-.53-.385-1.492,1.444-.433.53,1.492Q111.195,120.1,110.472,120.312Zm-12.084-.193c-.53-.144-1.011-.337-1.541-.53l.578-1.444c.481.193.963.337,1.444.481Zm15.118-.867-.626-1.444c.481-.193.915-.433,1.348-.626l.722,1.4A13.235,13.235,0,0,1,113.505,119.253Zm-18.1-.289-1.444-.722.77-1.348a11.727,11.727,0,0,0,1.348.674Zm20.991-1.155-.818-1.348a11.205,11.205,0,0,0,1.252-.818l.915,1.252C117.309,117.231,116.827,117.52,116.394,117.809Zm-23.832-.433c-.433-.289-.915-.626-1.3-.915l.963-1.252c.385.289.818.578,1.2.867Zm26.432-1.444-1.011-1.2c.385-.337.77-.674,1.107-1.011l1.059,1.107A8.436,8.436,0,0,1,118.994,115.931Zm-28.983-.53c-.385-.337-.77-.722-1.155-1.107l1.107-1.107c.337.337.722.722,1.107,1.059Zm31.342-1.733-1.155-1.059c.337-.385.674-.77.963-1.155l1.252.963C122.075,112.85,121.69,113.283,121.353,113.668Zm-33.605-.578c-.337-.433-.674-.818-1.011-1.252l1.252-.915c.289.385.626.818.915,1.2Zm35.579-1.974-1.3-.867c.289-.433.53-.867.77-1.3l1.348.77A13.266,13.266,0,0,1,123.327,111.116Zm-37.505-.626c-.289-.433-.53-.915-.818-1.4l1.4-.722c.241.433.481.867.77,1.3Zm39.094-2.167-1.4-.674a12.115,12.115,0,0,0,.578-1.4l1.444.578A9.849,9.849,0,0,1,124.916,108.324ZM84.33,107.6c-.193-.481-.433-1.011-.578-1.493l1.492-.53a11.978,11.978,0,0,0,.53,1.4Zm41.79-2.311-1.493-.481c.144-.481.289-.963.385-1.444l1.541.337Zm-42.849-.722c-.144-.53-.241-1.059-.385-1.589l1.541-.289c.1.481.193.963.337,1.444Zm43.571-2.407-1.541-.241c.1-.481.144-1.011.193-1.492l1.541.144C126.986,101.054,126.89,101.632,126.842,102.161Zm-44.2-.77L82.5,99.8l1.541-.048a7.838,7.838,0,0,0,.144,1.493Zm44.438-2.455h-1.541v-.144a12.611,12.611,0,0,0-.048-1.348l1.541-.1c.048.481.048.963.048,1.444Zm-43.042-.722L82.5,98.165c0-.53.048-1.059.1-1.637l1.541.144C84.089,97.2,84.089,97.732,84.041,98.213ZM125.3,95.9c-.048-.481-.144-1.011-.241-1.492l1.541-.337.289,1.589Zm-40.923-.674-1.541-.289c.1-.53.193-1.059.337-1.589l1.493.385C84.57,94.217,84.426,94.747,84.378,95.228Zm40.3-2.263c-.144-.481-.289-.963-.481-1.444l1.444-.53c.193.481.337,1.011.53,1.541ZM85.1,92.292l-1.493-.481a10.027,10.027,0,0,1,.578-1.541l1.444.578C85.437,91.329,85.244,91.81,85.1,92.292Zm38.564-2.167c-.193-.433-.433-.915-.674-1.348l1.348-.77.722,1.444ZM86.255,89.5l-1.4-.722c.241-.481.481-.963.77-1.444l1.348.818A12.537,12.537,0,0,0,86.255,89.5Zm35.964-1.974c-.289-.433-.578-.818-.867-1.252l1.252-.963a13.24,13.24,0,0,1,.915,1.348ZM87.8,86.947l-1.3-.915c.289-.433.626-.867.963-1.3l1.2.963C88.374,86.129,88.037,86.514,87.8,86.947Zm32.594-1.83c-.337-.385-.674-.722-1.011-1.107l1.107-1.107c.385.385.77.77,1.107,1.156Zm-30.717-.53-1.155-1.059,1.155-1.156,1.059,1.156C90.348,83.866,90.011,84.251,89.674,84.588ZM118.224,83c-.385-.337-.77-.626-1.155-.915l.915-1.252c.433.337.867.674,1.252,1.011Zm-26.335-.433-.963-1.2c.433-.337.867-.674,1.3-.963l.867,1.3A6.919,6.919,0,0,0,91.888,82.566Zm23.928-1.348c-.433-.289-.867-.53-1.3-.77l.722-1.4a13.264,13.264,0,0,1,1.4.818Zm-21.473-.385-.77-1.348c.481-.289.963-.53,1.444-.77l.674,1.4C95.21,80.352,94.777,80.592,94.344,80.833Zm18.825-1.059c-.433-.193-.915-.385-1.4-.578l.53-1.492a13.855,13.855,0,0,1,1.493.626ZM97.04,79.533l-.578-1.444A14.469,14.469,0,0,1,98,77.559l.481,1.493A8.473,8.473,0,0,0,97.04,79.533Zm13.288-.77c-.481-.144-.963-.241-1.444-.337l.289-1.541c.53.1,1.059.241,1.589.385Zm-10.4-.144-.385-1.541c.53-.144,1.059-.241,1.589-.337l.241,1.541C100.891,78.378,100.41,78.474,99.929,78.618Zm7.462-.433c-.481-.048-1.011-.1-1.492-.144l.1-1.541,1.589.144Zm-4.526-.048-.144-1.541c.53-.048,1.059-.1,1.637-.1l.048,1.541C103.876,78.041,103.395,78.089,102.865,78.137Z" transform="translate(-82.5 -76.5)" fill="#002c27"/>
      </g>
      <ellipse id="Ellipse_2480" data-name="Ellipse 2480" cx="11.507" cy="11.507" rx="11.507" ry="11.507" transform="translate(221.251 512.609)" fill="url(#linear-gradient)"/>
      <g id="Group_12326" data-name="Group 12326" transform="translate(57.941 922.903) rotate(-90)">
        <path id="Close" d="M401.43,170.486l-2.527,2.527-2.531-2.529a1.446,1.446,0,1,0-2.045,2.046l2.529,2.529-2.527,2.527a1.448,1.448,0,0,0,2.047,2.048l2.528-2.527,2.528,2.528a1.446,1.446,0,1,0,2.046-2.045l-2.528-2.53,2.527-2.527a1.448,1.448,0,0,0-2.047-2.047Z" transform="translate(0 0)" fill="#f6f2ed" fill-rule="evenodd"/>
        <path id="Close-2" data-name="Close" d="M401.43,170.486l-2.527,2.527-2.531-2.529a1.446,1.446,0,1,0-2.045,2.046l2.529,2.529-2.527,2.527a1.448,1.448,0,0,0,2.047,2.048l2.528-2.527,2.528,2.528a1.446,1.446,0,1,0,2.046-2.045l-2.528-2.53,2.527-2.527a1.448,1.448,0,0,0-2.047-2.047Z" transform="translate(0 0)" fill="#f6f2ed" fill-rule="evenodd"/>
      </g>
    </g>
  </g>
</svg>
