<svg width="25" height="25" viewBox="0 0 25 25" fill="none" xmlns="http://www.w3.org/2000/svg">
<g clip-path="url(#clip0_5513_9966)">
<path d="M12.3789 23.9583V24.0833H12.5039H13.2216H13.238L13.2539 24.0791C13.3114 24.0637 13.3697 24.0521 13.4287 24.0443C14.2472 23.9829 15.0565 23.8328 15.8426 23.5968C18.4483 22.8149 20.6952 21.1401 22.1884 18.8665C23.6816 16.5931 24.3258 13.8663 24.0079 11.1652C23.7615 8.90964 22.8435 6.78 21.3727 5.05204L21.3728 5.05202L21.3708 5.04976C21.3651 5.04346 21.3596 5.03706 21.3541 5.03042H22.27H22.395V4.90542V3.59399V3.46899H22.27H18.8645H18.7395V3.59399V6.98639V7.11139H18.8645H20.2047H20.3297V6.98639V6.30951C22.1185 8.45844 23.0991 11.784 22.1599 15.0178C21.4596 17.4108 20.2706 19.1962 18.6485 20.4314C17.0255 21.6671 14.9596 22.3591 12.4943 22.5482L12.3789 22.5571V22.6729V23.9583Z" fill="#2F4F4F" stroke="#2F4F4F" stroke-width="0.25"/>
<path d="M0.91716 11.7673L0.915978 11.776L0.916017 11.7847L0.922204 13.1729L0.922272 13.188L0.925955 13.2027C0.940449 13.2605 0.951786 13.3191 0.959916 13.3781C1.1224 15.7053 1.99611 17.9263 3.46263 19.7406H2.5235H2.3985V19.8656V21.1856V21.3106H2.5235H5.9253H6.0503V21.1856V17.7871V17.6621H5.9253H4.59379H4.46879V17.7871V18.4213C2.79363 16.2443 1.92001 12.9963 2.88555 9.84873L2.88556 9.84871C3.60728 7.49458 4.80322 5.74085 6.41753 4.52897C8.03264 3.31649 10.0756 2.63959 12.502 2.45535L12.6175 2.44657V2.33071V1.04527V0.927258L12.4997 0.920474C12.4191 0.915832 12.3383 0.915832 12.2577 0.920474L12.2577 0.920272L12.2506 0.921083C12.0354 0.94579 11.8173 0.966674 11.5978 0.987687C11.0809 1.03718 10.5564 1.08739 10.0462 1.18994L10.0461 1.18996C5.52154 2.10218 1.84552 5.9227 1.09463 10.4834C1.04548 10.7791 1.00687 11.0786 0.968621 11.3754C0.951692 11.5068 0.934833 11.6376 0.91716 11.7673Z" fill="#2F4F4F" stroke="#2F4F4F" stroke-width="0.25"/>
<path d="M12.3868 6.58432L12.3877 6.70931C12.6141 6.70779 12.8385 6.75101 13.0482 6.83648C13.2578 6.92194 13.4485 7.04798 13.6093 7.20734C13.7701 7.36669 13.8978 7.55623 13.9851 7.76507C14.0724 7.97386 14.1176 8.19783 14.118 8.42411C14.1183 8.76295 14.0181 9.09428 13.8303 9.37631C13.6424 9.65834 13.3753 9.87846 13.0625 10.0089C12.7497 10.1394 12.4052 10.1743 12.0726 10.1093C11.74 10.0444 11.434 9.8824 11.1933 9.64384C10.9526 9.40529 10.788 9.10083 10.7201 8.76886C10.6522 8.43689 10.6842 8.09227 10.8119 7.77842C10.9397 7.46458 11.1575 7.19556 11.438 7.00531C11.7184 6.81505 12.0489 6.71205 12.3878 6.70931L12.3868 6.58432ZM12.3868 6.58432C12.6297 6.58269 12.8705 6.62904 13.0954 6.72072C13.3203 6.8124 13.5248 6.94761 13.6973 7.11855C13.8698 7.2895 14.0068 7.49282 14.1004 7.71686C14.1941 7.94089 14.2425 8.18122 14.243 8.42403C14.2433 8.78756 14.1358 9.14303 13.9343 9.4456C13.7328 9.74818 13.4462 9.98433 13.1106 10.1243C12.775 10.2642 12.4055 10.3017 12.0486 10.232C11.6918 10.1623 11.3636 9.98855 11.1053 9.73262C10.8471 9.4767 10.6705 9.15006 10.5976 8.7939C10.5248 8.43774 10.5591 8.06801 10.6962 7.7313C10.8332 7.39459 11.0669 7.10598 11.3678 6.90186C11.6687 6.69775 12.0232 6.58725 12.3868 6.58432ZM15.0734 15.7632H15.1984V15.6382V14.2896V14.1646H15.0734H13.1863V14.1595V14.1543V14.1491V14.1439V14.1387V14.1335V14.1283V14.1231V14.1179V14.1127V14.1075V14.1023V14.0971V14.0919V14.0867V14.0815V14.0763V14.0712V14.066V14.0608V14.0556V14.0504V14.0452V14.04V14.0348V14.0296V14.0245V14.0193V14.0141V14.0089V14.0037V13.9985V13.9934V13.9882V13.983V13.9778V13.9726V13.9674V13.9623V13.9571V13.9519V13.9467V13.9415V13.9364V13.9312V13.926V13.9208V13.9157V13.9105V13.9053V13.9001V13.895V13.8898V13.8846V13.8794V13.8743V13.8691V13.8639V13.8587V13.8536V13.8484V13.8432V13.8381V13.8329V13.8277V13.8226V13.8174V13.8122V13.8071V13.8019V13.7967V13.7916V13.7864V13.7812V13.7761V13.7709V13.7657V13.7606V13.7554V13.7503V13.7451V13.7399V13.7348V13.7296V13.7244V13.7193V13.7141V13.709V13.7038V13.6987V13.6935V13.6883V13.6832V13.678V13.6729V13.6677V13.6626V13.6574V13.6523V13.6471V13.6419V13.6368V13.6316V13.6265V13.6213V13.6162V13.611V13.6059V13.6007V13.5956V13.5904V13.5853V13.5801V13.575V13.5698V13.5647V13.5595V13.5544V13.5493V13.5441V13.539V13.5338V13.5287V13.5235V13.5184V13.5132V13.5081V13.503V13.4978V13.4927V13.4875V13.4824V13.4772V13.4721V13.467V13.4618V13.4567V13.4515V13.4464V13.4413V13.4361V13.431V13.4259V13.4207V13.4156V13.4104V13.4053V13.4002V13.395V13.3899V13.3848V13.3796V13.3745V13.3694V13.3642V13.3591V13.354V13.3488V13.3437V13.3386V13.3335V13.3283V13.3232V13.3181V13.3129V13.3078V13.3027V13.2975V13.2924V13.2873V13.2822V13.277V13.2719V13.2668V13.2617V13.2565V13.2514V13.2463V13.2412V13.236V13.2309V13.2258V13.2207V13.2155V13.2104V13.2053V13.2002V13.195V13.1899V13.1848V13.1797V13.1746V13.1694V13.1643V13.1592V13.1541V13.149V13.1438V13.1387V13.1336V13.1285V13.1234V13.1183V13.1131V13.108V13.1029V13.0978V13.0927V13.0876V13.0824V13.0773V13.0722V13.0671V13.062V13.0569V13.0518V13.0466V13.0415V13.0364V13.0313V13.0262V13.0211V13.016V13.0109V13.0058V13.0006V12.9955V12.9904V12.9853V12.9802V12.9751V12.97V12.9649V12.9598V12.9547V12.9495V12.9444V12.9393V12.9342V12.9291V12.924V12.9189V12.9138V12.9087V12.9036V12.8985V12.8934V12.8883V12.8832V12.8781V12.873V12.8679V12.8628V12.8576V12.8525V12.8474V12.8423V12.8372V12.8321V12.827V12.8219V12.8168V12.8117V12.8066V12.8015V12.7964V12.7913V12.7862V12.7811V12.776V12.7709V12.7658V12.7607V12.7556V12.7505V12.7454V12.7403V12.7352V12.7301V12.725V12.7199V12.7149V12.7098V12.7047V12.6996V12.6945V12.6894V12.6843V12.6792V12.6741V12.669V12.6639V12.6588V12.6537V12.6486V12.6435V12.6384V12.6333V12.6282V12.6231V12.6181V12.613V12.6079V12.6028V12.5977V12.5926V12.5875V12.5824V12.5773V12.5722V12.5671V12.562V12.557V12.5519V12.5468V12.5417V12.5366V12.5315V12.5264V12.5213V12.5162V12.5111V12.5061V12.501V12.4959V12.4908V12.4857V12.4806V12.4755V12.4704V12.4654V12.4603V12.4552V12.4501V12.445V12.4399V12.4348V12.4297V12.4247V12.4196V12.4145V12.4094V12.4043V12.3992V12.3941V12.3891V12.384V12.3789V12.3738V12.3687V12.3636V12.3586V12.3535V12.3484V12.3433V12.3382V12.3331V12.328V12.323V12.3179V12.3128V12.3077V12.3026V12.2976V12.2925V12.2874V12.2823V12.2772V12.2721V12.2671V12.262V12.2569V12.2518V12.2467V12.2417V12.2366V12.2315V12.2264V12.2213V12.2162V12.2112V12.2061V12.201V12.1959V12.1908V12.1858V12.1807V12.1756V12.1705V12.1654V12.1604V12.1553V12.1502V12.1451V12.1401V12.135V12.1299V12.1248V12.1197V12.1147V12.1096V12.1045V12.0994V12.0943V12.0893V12.0842V12.0791V12.074V12.069V12.0639V12.0588V12.0537V12.0486V12.0436V12.0385V12.0334V12.0283V12.0233V12.0182V12.0131V12.008V12.003V11.9979V11.9928V11.9877V11.9826V11.9776V11.9725V11.9674V11.9623V11.9573V11.9522V11.9471V11.942V11.937V11.9319V11.9268V11.9217V11.9167V11.9116V11.9065V11.9014V11.8964V11.8913V11.8862V11.8811V11.8761V11.871V11.8659V11.8608V11.8557V11.8507V11.8456V11.8405V11.8354V11.8304V11.8253V11.8202V11.8151V11.8101V11.805V11.7999V11.7948V11.7898V11.7847V11.7796V11.7746V11.7695V11.7644V11.7593V11.7543V11.7492V11.7441V11.739V11.734V11.7289V11.7238V11.7187V11.7137V11.7086V11.7035V11.6984V11.6934V11.6883V11.6832V11.6781V11.6731L13.1863 11.668L13.1862 11.667C13.1861 11.6489 13.1882 11.6395 13.1894 11.6356C13.1941 11.6332 13.2032 11.6297 13.2225 11.6248C13.2298 11.623 13.2366 11.6214 13.2447 11.6195C13.2482 11.6187 13.252 11.6179 13.2561 11.6169C13.2683 11.614 13.2826 11.6106 13.2973 11.6063C14.0767 11.3833 14.7474 10.8828 15.1828 10.1992C15.6181 9.51585 15.7882 8.69689 15.661 7.89681C15.431 6.30235 13.9947 5.1016 12.3462 5.11572L12.3459 5.11573C11.5536 5.12395 10.7907 5.41657 10.1961 5.94022C9.6016 6.46388 9.21508 7.18371 9.10704 7.9685C8.999 8.75329 9.17664 9.55076 9.60758 10.2155C10.0385 10.8803 10.694 11.3681 11.4547 11.59L11.4553 11.5902C11.5388 11.6141 11.564 11.6377 11.5747 11.6535C11.5872 11.672 11.5985 11.7067 11.5985 11.7929V11.8077V11.8225V11.8373V11.852V11.8668V11.8816V11.8964V11.9111V11.9259V11.9407V11.9555V11.9702V11.985V11.9998V12.0146V12.0293V12.0441V12.0589V12.0736V12.0884V12.1032V12.118V12.1327V12.1475V12.1623V12.1771V12.1918V12.2066V12.2214V12.2362V12.2509V12.2657V12.2805V12.2952V12.31V12.3248V12.3396V12.3543V12.3691V12.3839V12.3987V12.4134V12.4282V12.443V12.4578V12.4725V12.4873V12.5021V12.5168V12.5316V12.5464V12.5612V12.5759V12.5907V12.6055V12.6203V12.635V12.6498V12.6646V12.6793V12.6941V12.7089V12.7237V12.7384V12.7532V12.768V12.7828V12.7975V12.8123V12.8271V12.8418V12.8566V12.8714V12.8862V12.9009V12.9157V12.9305V12.9453V12.96V12.9748V12.9896V13.0043V13.0191V13.0339V13.0487V13.0634V13.0782V13.093V13.1077V13.1225V13.1373V13.1521V13.1668V13.1816V13.1964V13.2112V13.2259V13.2407V13.2555V13.2702V13.285V13.2998V13.3146V13.3293V13.3441V13.3589V13.3736V13.3884V13.4032V13.418V13.4327V13.4475V13.4623V13.477V13.4918V13.5066V13.5214V13.5361V13.5509V13.5657V13.5805V13.5952V13.61V13.6248V13.6395V13.6543V13.6691V13.6839V13.6986V13.7134V13.7282V13.7429V13.7577V13.7725V13.7873V13.802V13.8168V13.8316V13.8463V13.8611V13.8759V13.8906V13.9054V13.9202V13.935V13.9497V13.9645V13.9793V13.994V14.0088V14.0236V14.0384V14.0531V14.0679V14.0827V14.0974V14.1122V14.127V14.1418V14.1565V14.1713V14.1861V14.2008V14.2156V14.2304V14.2452V14.2599V14.2747V14.2895V14.3042V14.319V14.3338V14.3485V14.3633V14.3781V14.3929V14.4076V14.4224V14.4372V14.4519V14.4667V14.4815V14.4963V14.511V14.5258V14.5406V14.5553V14.5701V14.5849V14.5996V14.6144V14.6292V14.644V14.6587V14.6735V14.6883V14.703V14.7178V14.7326V14.7473V14.7621V14.7769V14.7917V14.8064V14.8212V14.836V14.8507V14.8655V14.8803V14.8951V14.9098V14.9246V14.9394V14.9541V14.9689V14.9837V14.9984V15.0132V15.028V15.0427V15.0575V15.0723V15.0871V15.1018V15.1166V15.1314V15.1461V15.1609V15.1757V15.1904V15.2052V15.22V15.2348V15.2495V15.2643V15.2791V15.2938V15.3086V15.3234V15.3381V15.3529V15.3677V15.3824V15.3972V15.412V15.4268V15.4415V15.4563V15.4711V15.4858V15.5006V15.5154V15.5301V15.5449V15.5597V15.5744V15.5892V15.604V15.6188V15.6335V15.6483V15.6631V15.6778V15.6926V15.7074V15.7221V15.7369V15.7517V15.7664V15.7812V15.796V15.8108V15.8255V15.8403V15.8551V15.8698V15.8846V15.8994V15.9141V15.9289V15.9437V15.9584V15.9732V15.988V16.0027V16.0175V16.0323V16.047V16.0618V16.0766V16.0914V16.1061V16.1209V16.1357V16.1504V16.1652V16.18V16.1947V16.2095V16.2243V16.239V16.2538V16.2686V16.2833V16.2981V16.3129V16.3276V16.3424V16.3572V16.372V16.3867V16.4015V16.4163V16.431V16.4458V16.4606V16.4753V16.4901V16.5049V16.5196V16.5344V16.5492V16.5639V16.5787V16.5935V16.6082V16.623V16.6378V16.6525V16.6673V16.6821V16.6968V16.7116V16.7264V16.7411V16.7559V16.7707V16.7854V16.8002V16.815V16.8298V16.8445V16.8593V16.8741V16.8888V16.9036V16.9184V16.9331V16.9479V16.9627V16.9774V16.9922V17.007V17.0217V17.0365V17.0513V17.066V17.0808V17.0956V17.1103V17.1251V17.1399V17.1546V17.1694V17.1842V17.1989V17.2137V17.2285V17.2432V17.258V17.2728V17.2875V17.3023V17.3171V17.3318V17.3466V17.3614V17.3761V17.3909V17.4057V17.4204V17.4352V17.45V17.4647V17.4795V17.4943V17.509V17.5238V17.5386V17.5533V17.5681V17.5829V17.5976V17.6124V17.6272V17.6419V17.6567V17.6715V17.6862V17.701V17.7158V17.7305V17.7453V17.7601V17.7748V17.7896V17.8044V17.8191V17.8339V17.8487V17.8634V17.8782V17.893V17.9077V17.9225V17.9373V17.952V17.9668V17.9816V17.9963V18.0111V18.0259V18.0406V18.0554V18.0702V18.0849V18.0997V18.1145V18.1292V18.144V18.1587V18.1735V18.1883V18.203V18.2178V18.2326V18.2473V18.2621V18.2769V18.2916V18.3064V18.3212V18.3359V18.3507V18.3655V18.3802V18.395V18.4098V18.4245V18.4393V18.4541V18.4688V18.4836V18.4984V18.5131V18.5279V18.5427V18.5574V18.5722V18.5869V18.6017V18.6165V18.6312V18.646V18.6608V18.6755V18.6903V18.7051V18.7198V18.7346V18.7494V18.7641V18.7789V18.7937V18.8084V18.8232V18.838V18.8527V18.8675V18.8822V18.897V18.9118V18.9265V18.9413V18.9561V18.9708V18.9856V19.0004V19.0151V19.0299V19.0447V19.0594V19.0742V19.089V19.1037V19.1185V19.1332V19.148V19.1628V19.1775V19.1923V19.2071V19.2218V19.2366V19.2514V19.2661V19.2809V19.2957V19.3104V19.3252V19.34V19.3547V19.6479V19.7729H11.7235H13.0773H13.2023V19.6479V18.4479H15.0734H15.1984V18.3229V16.9756V16.8506H15.0734H13.2184V15.7632H15.0734Z" fill="#2F4F4F" stroke="#2F4F4F" stroke-width="0.25"/>
</g>
<defs>
<clipPath id="clip0_5513_9966">
<rect width="25" height="25" fill="white"/>
</clipPath>
</defs>
</svg>
