<svg xmlns="http://www.w3.org/2000/svg" width="17.237" height="17.237" viewBox="0 0 17.237 17.237">
  <path id="change" d="M16.2,2H5.042A3.042,3.042,0,0,0,2,5.042V16.195a3.042,3.042,0,0,0,3.042,3.042H16.2a3.04,3.04,0,0,0,3.034-3.042V5.042A3.04,3.04,0,0,0,16.2,2ZM13.962,13.936a.646.646,0,0,1,0-1.293,2.025,2.025,0,0,0,0-4.051H10.825l.5.5a.635.635,0,0,1,0,.914.612.612,0,0,1-.457.19.639.639,0,0,1-.457-.19l-1.6-1.6a.65.65,0,0,1,0-.914l1.6-1.6a.646.646,0,1,1,.914.914l-.5.5h3.137a3.318,3.318,0,0,1,0,6.636ZM3.956,10.618A3.325,3.325,0,0,1,7.274,7.3a.646.646,0,1,1,0,1.293,2.025,2.025,0,0,0,0,4.051h3.12l-.5-.5a.646.646,0,1,1,.914-.914l1.6,1.6a.65.65,0,0,1,0,.914l-1.6,1.6a.645.645,0,0,1-.914,0,.65.65,0,0,1,0-.914l.5-.5H7.274A3.325,3.325,0,0,1,3.956,10.618Z" transform="translate(-2 -2)" fill="#2D6759"/>
</svg>  