<svg width="16" height="13" viewBox="0 0 16 13" fill="none" xmlns="http://www.w3.org/2000/svg">
<path d="M0 9.50006V8.50006C0 7.30659 0.474106 6.16199 1.31802 5.31808C2.16193 4.47417 3.30653 4.00006 4.5 4.00006H12.086L10.086 2.00006L11.5 0.58606L15.914 5.00006L11.5 9.41406L10.086 8.00006L12.086 6.00006H4.5C3.83696 6.00006 3.20107 6.26345 2.73223 6.73229C2.26339 7.20113 2 7.83702 2 8.50006C2 9.1631 2.26339 9.79899 2.73223 10.2678C3.20107 10.7367 3.83696 11.0001 4.5 11.0001H12V13.0001H4.5C3.48023 13.0002 2.49067 12.6539 1.69344 12.018C0.896217 11.3821 0.338615 10.4943 0.112 9.50006H0Z" fill="#2D6759"/>
</svg>
