<svg width="185" height="145" viewBox="0 0 185 145" fill="none" xmlns="http://www.w3.org/2000/svg">
<g opacity="0.272">
<path d="M41.7527 133.976C60.0421 133.976 74.8686 119.15 74.8686 100.862C74.8686 82.5737 60.0421 67.748 41.7527 67.748C23.4632 67.748 8.63672 82.5737 8.63672 100.862C8.63672 119.15 23.4632 133.976 41.7527 133.976Z" fill="#2F4F4F"/>
<path d="M41.7527 133.976C60.0421 133.976 74.8686 119.15 74.8686 100.862C74.8686 82.5737 60.0421 67.748 41.7527 67.748C23.4632 67.748 8.63672 82.5737 8.63672 100.862C8.63672 119.15 23.4632 133.976 41.7527 133.976Z" fill="url(#paint0_linear_12827_9471)"/>
<path d="M50.8257 143.215C51.2616 143.568 51.7924 143.784 52.351 143.835C52.9096 143.886 53.4709 143.771 53.9639 143.503C54.4569 143.236 54.8594 142.828 55.1207 142.332C55.382 141.835 55.4902 141.273 55.4317 140.715C55.3732 140.157 55.1505 139.629 54.792 139.198C54.4334 138.766 53.955 138.451 53.4172 138.291C52.8794 138.132 52.3064 138.135 51.7706 138.302C51.2349 138.468 50.7604 138.789 50.4072 139.225C49.9337 139.809 49.7118 140.558 49.7903 141.306C49.8687 142.055 50.2412 142.741 50.8257 143.215Z" fill="#2F4F4F"/>
<path d="M50.8257 143.215C51.2616 143.568 51.7924 143.784 52.351 143.835C52.9096 143.886 53.4709 143.771 53.9639 143.503C54.4569 143.236 54.8594 142.828 55.1207 142.332C55.382 141.835 55.4902 141.273 55.4317 140.715C55.3732 140.157 55.1505 139.629 54.792 139.198C54.4334 138.766 53.955 138.451 53.4172 138.291C52.8794 138.132 52.3064 138.135 51.7706 138.302C51.2349 138.468 50.7604 138.789 50.4072 139.225C49.9337 139.809 49.7118 140.558 49.7903 141.306C49.8687 142.055 50.2412 142.741 50.8257 143.215Z" fill="url(#paint1_linear_12827_9471)"/>
<path d="M61.0221 137.225C61.3199 137.466 61.6826 137.614 62.0642 137.649C62.4458 137.684 62.8293 137.605 63.1661 137.422C63.5029 137.239 63.7779 136.96 63.9563 136.621C64.1347 136.282 64.2086 135.898 64.1685 135.517C64.1285 135.136 63.9763 134.775 63.7312 134.48C63.4862 134.186 63.1593 133.97 62.7918 133.861C62.4244 133.753 62.0329 133.755 61.6669 133.869C61.3009 133.982 60.9769 134.202 60.7357 134.5C60.4123 134.899 60.2608 135.411 60.3145 135.922C60.3682 136.433 60.6228 136.902 61.0221 137.225Z" fill="#2F4F4F"/>
<path d="M61.0221 137.225C61.3199 137.466 61.6826 137.614 62.0642 137.649C62.4458 137.684 62.8293 137.605 63.1661 137.422C63.5029 137.239 63.7779 136.96 63.9563 136.621C64.1347 136.282 64.2086 135.898 64.1685 135.517C64.1285 135.136 63.9763 134.775 63.7312 134.48C63.4862 134.186 63.1593 133.97 62.7918 133.861C62.4244 133.753 62.0329 133.755 61.6669 133.869C61.3009 133.982 60.9769 134.202 60.7357 134.5C60.4123 134.899 60.2608 135.411 60.3145 135.922C60.3682 136.433 60.6228 136.902 61.0221 137.225Z" fill="url(#paint2_linear_12827_9471)"/>
<path d="M3.59774 91.6599C4.3093 91.6599 5.00489 91.4489 5.59653 91.0536C6.18818 90.6583 6.64931 90.0964 6.92161 89.4391C7.19392 88.7817 7.26517 88.0584 7.12635 87.3605C6.98753 86.6627 6.64488 86.0217 6.14172 85.5185C5.63857 85.0154 4.99751 84.6728 4.29962 84.534C3.60173 84.3952 2.87834 84.4664 2.22094 84.7387C1.56354 85.011 1.00165 85.4721 0.606328 86.0637C0.211003 86.6553 0 87.3508 0 88.0624C0 89.0165 0.379046 89.9315 1.05375 90.6062C1.72846 91.2809 2.64356 91.6599 3.59774 91.6599Z" fill="#2F4F4F"/>
<path d="M3.59774 91.6599C4.3093 91.6599 5.00489 91.4489 5.59653 91.0536C6.18818 90.6583 6.64931 90.0964 6.92161 89.4391C7.19392 88.7817 7.26517 88.0584 7.12635 87.3605C6.98753 86.6627 6.64488 86.0217 6.14172 85.5185C5.63857 85.0154 4.99751 84.6728 4.29962 84.534C3.60173 84.3952 2.87834 84.4664 2.22094 84.7387C1.56354 85.011 1.00165 85.4721 0.606328 86.0637C0.211003 86.6553 0 87.3508 0 88.0624C0 89.0165 0.379046 89.9315 1.05375 90.6062C1.72846 91.2809 2.64356 91.6599 3.59774 91.6599Z" fill="url(#paint3_linear_12827_9471)"/>
</g>
<g opacity="0.272">
<path d="M170.2 33.9492C175.608 29.8751 176.689 22.1889 172.614 16.7815C168.54 11.3742 160.853 10.2933 155.446 14.3674C150.038 18.4415 148.957 26.1277 153.032 31.535C157.106 36.9424 164.793 38.0232 170.2 33.9492Z" fill="#2F4F4F"/>
<path d="M170.2 33.9492C175.608 29.8751 176.689 22.1889 172.614 16.7815C168.54 11.3742 160.853 10.2933 155.446 14.3674C150.038 18.4415 148.957 26.1277 153.032 31.535C157.106 36.9424 164.793 38.0232 170.2 33.9492Z" fill="url(#paint4_linear_12827_9471)"/>
<path d="M169.574 38.7004C169.524 38.9019 169.415 39.084 169.261 39.2236C169.107 39.3632 168.916 39.4541 168.71 39.4848C168.505 39.5155 168.295 39.4846 168.107 39.396C167.919 39.3074 167.762 39.1651 167.655 38.9871C167.548 38.809 167.496 38.6033 167.506 38.3959C167.516 38.1884 167.588 37.9886 167.711 37.8217C167.835 37.6548 168.005 37.5282 168.2 37.4581C168.396 37.3879 168.608 37.3773 168.809 37.4275C169.079 37.4949 169.312 37.6669 169.455 37.9056C169.599 38.1443 169.641 38.4302 169.574 38.7004Z" fill="#2F4F4F"/>
<path d="M169.574 38.7004C169.524 38.9019 169.415 39.084 169.261 39.2236C169.107 39.3632 168.916 39.4541 168.71 39.4848C168.505 39.5155 168.295 39.4846 168.107 39.396C167.919 39.3074 167.762 39.1651 167.655 38.9871C167.548 38.809 167.496 38.6033 167.506 38.3959C167.516 38.1884 167.588 37.9886 167.711 37.8217C167.835 37.6548 168.005 37.5282 168.2 37.4581C168.396 37.3879 168.608 37.3773 168.809 37.4275C169.079 37.4949 169.312 37.6669 169.455 37.9056C169.599 38.1443 169.641 38.4302 169.574 38.7004Z" fill="url(#paint5_linear_12827_9471)"/>
<path d="M165.227 39.1989C165.193 39.3363 165.119 39.4605 165.014 39.5558C164.909 39.651 164.778 39.713 164.638 39.7339C164.498 39.7549 164.355 39.7338 164.226 39.6733C164.098 39.6129 163.991 39.5158 163.918 39.3944C163.845 39.273 163.81 39.1326 163.817 38.9911C163.823 38.8496 163.872 38.7133 163.956 38.5994C164.041 38.4856 164.157 38.3993 164.29 38.3514C164.423 38.3035 164.568 38.2963 164.705 38.3306C164.89 38.3768 165.048 38.4942 165.146 38.657C165.243 38.8197 165.273 39.0146 165.227 39.1989Z" fill="#2F4F4F"/>
<path d="M165.227 39.1989C165.193 39.3363 165.119 39.4605 165.014 39.5558C164.909 39.651 164.778 39.713 164.638 39.7339C164.498 39.7549 164.355 39.7338 164.226 39.6733C164.098 39.6129 163.991 39.5158 163.918 39.3944C163.845 39.273 163.81 39.1326 163.817 38.9911C163.823 38.8496 163.872 38.7133 163.956 38.5994C164.041 38.4856 164.157 38.3993 164.29 38.3514C164.423 38.3035 164.568 38.2963 164.705 38.3306C164.89 38.3768 165.048 38.4942 165.146 38.657C165.243 38.8197 165.273 39.0146 165.227 39.1989Z" fill="url(#paint6_linear_12827_9471)"/>
<path d="M172.052 12.9387C171.842 13.0971 171.589 13.1897 171.327 13.2046C171.064 13.2195 170.802 13.1561 170.575 13.0224C170.349 12.8888 170.166 12.6909 170.052 12.4537C169.938 12.2166 169.896 11.9508 169.933 11.6901C169.969 11.4293 170.083 11.1853 170.258 10.9889C170.433 10.7925 170.663 10.6525 170.918 10.5866C171.173 10.5207 171.442 10.5318 171.69 10.6187C171.939 10.7055 172.156 10.8641 172.314 11.0744C172.527 11.3564 172.619 11.7112 172.57 12.0608C172.52 12.4105 172.334 12.7262 172.052 12.9387Z" fill="#2F4F4F"/>
<path d="M172.052 12.9387C171.842 13.0971 171.589 13.1897 171.327 13.2046C171.064 13.2195 170.802 13.1561 170.575 13.0224C170.349 12.8888 170.166 12.6909 170.052 12.4537C169.938 12.2166 169.896 11.9508 169.933 11.6901C169.969 11.4293 170.083 11.1853 170.258 10.9889C170.433 10.7925 170.663 10.6525 170.918 10.5866C171.173 10.5207 171.442 10.5318 171.69 10.6187C171.939 10.7055 172.156 10.8641 172.314 11.0744C172.527 11.3564 172.619 11.7112 172.57 12.0608C172.52 12.4105 172.334 12.7262 172.052 12.9387Z" fill="url(#paint7_linear_12827_9471)"/>
</g>
<path d="M100.995 129.143C136.66 129.143 165.571 100.234 165.571 64.5716C165.571 28.9097 136.66 0 100.995 0C65.3314 0 36.4199 28.9097 36.4199 64.5716C36.4199 100.234 65.3314 129.143 100.995 129.143Z" fill="#F7F2EC"/>
<path d="M100.995 127.893C135.969 127.893 164.321 99.5432 164.321 64.5716C164.321 29.6001 135.969 1.25 100.995 1.25C66.0217 1.25 37.6699 29.6001 37.6699 64.5716C37.6699 99.5432 66.0217 127.893 100.995 127.893Z" stroke="#002C27" stroke-width="2"/>
<path d="M160.782 65.2086C160.794 73.1247 159.231 80.9641 156.184 88.2701C153.136 95.5761 148.665 102.203 143.031 107.764C137.53 113.242 131.001 117.578 123.818 120.524C116.635 123.469 108.941 124.965 101.178 124.926C89.3611 124.95 77.8027 121.467 67.9659 114.919C58.1291 108.371 50.456 99.0523 45.9177 88.1421C41.3794 77.2318 40.18 65.2206 42.4713 53.6285C44.7625 42.0363 50.4414 31.3844 58.7892 23.0208C67.137 14.6573 77.7784 8.95791 89.3668 6.64424C100.955 4.33057 112.969 5.5066 123.889 10.0233C134.809 14.54 144.143 22.1945 150.711 32.0179C157.278 41.8414 160.784 53.3922 160.783 65.2086H160.782Z" fill="url(#paint8_linear_12827_9471)"/>
<path d="M101 113C128.062 113 150 91.2858 150 64.5C150 37.7142 128.062 16 101 16C73.938 16 52 37.7142 52 64.5C52 91.2858 73.938 113 101 113Z" fill="#F7F2EC"/>
<path d="M101.5 21C77.4756 21 58 40.6995 58 65C58 89.3005 77.4756 109 101.5 109C125.524 109 145 89.3005 145 65C145 40.6995 125.524 21 101.5 21Z" stroke="#002C27" stroke-width="1.5" stroke-dasharray="1.5 1.5"/>
<path fill-rule="evenodd" clip-rule="evenodd" d="M117.507 70.7741C117.504 70.854 117.457 70.9203 117.383 70.9516L112.52 73.0083C112.458 73.0356 112.394 73.0317 112.337 72.9985C112.278 72.9654 112.243 72.9108 112.236 72.8445L111.584 67.6042C111.575 67.5243 111.61 67.4521 111.676 67.4073C111.742 67.3624 111.824 67.3604 111.892 67.4014L113.458 68.3041C114.786 62.9935 112.51 57.2015 107.55 54.3356C102.589 51.4717 96.4335 52.3997 92.4971 56.2033L90.1166 54.8288C94.8484 49.7756 102.643 48.4284 108.88 52.0312C115.119 55.632 117.851 63.0539 115.84 69.6784L117.406 70.5831C117.474 70.624 117.513 70.6942 117.507 70.7741ZM94.9654 76.1334C90.0035 73.2676 87.7302 67.4754 89.056 62.1649L90.6216 63.0675C90.6898 63.1085 90.7717 63.1065 90.838 63.0617C90.9042 63.0168 90.9394 62.9447 90.9296 62.8648L90.2804 57.6244C90.2762 57.5928 90.2649 57.5625 90.2473 57.5358C90.2297 57.5092 90.2064 57.4868 90.179 57.4704C90.1205 57.4373 90.0562 57.4334 89.9938 57.4607L85.1313 59.5175C85.0572 59.5487 85.0105 59.6149 85.0066 59.6949C85.0033 59.7334 85.0114 59.7719 85.0297 59.8058C85.0481 59.8398 85.0759 59.8676 85.1099 59.886L86.6735 60.7906C84.6634 67.4151 87.3949 74.837 93.6338 78.4378C99.8708 82.0406 107.666 80.6934 112.397 75.6403L110.017 74.2658C106.081 78.0694 99.9273 78.9974 94.9655 76.1335L94.9654 76.1334ZM92.7741 66.2726C92.7409 66.4247 92.6103 66.53 92.4562 66.53H91.8129C91.7323 66.5299 91.6546 66.5594 91.5945 66.613C91.5345 66.6666 91.4963 66.7405 91.4873 66.8205C91.4229 67.401 91.4229 67.9868 91.4873 68.5672C91.4963 68.6472 91.5345 68.7211 91.5945 68.7747C91.6546 68.8283 91.7323 68.8579 91.8129 68.8577H92.4562C92.6102 68.8577 92.7409 68.963 92.7741 69.1151C92.9421 69.8846 93.2458 70.618 93.6709 71.2811C93.7547 71.4117 93.7372 71.5774 93.628 71.6866L93.1717 72.1427C93.1148 72.1995 93.081 72.2754 93.0766 72.3556C93.0723 72.4359 93.0979 72.5149 93.1484 72.5775C93.3305 72.8051 93.5251 73.0225 93.7313 73.2286C93.9377 73.4352 94.1558 73.6299 94.3845 73.8115C94.5131 73.9168 94.7003 73.9051 94.8173 73.7881L95.2735 73.3339C95.3827 73.2227 95.5503 73.2052 95.681 73.289C96.3536 73.7218 97.0887 74.0201 97.8451 74.1859C97.9972 74.219 98.1025 74.3496 98.1025 74.5036V75.1469C98.1024 75.2274 98.1319 75.3052 98.1855 75.3652C98.2391 75.4253 98.313 75.4635 98.393 75.4725C98.974 75.5369 99.5608 75.5369 100.14 75.4725C100.22 75.4635 100.294 75.4253 100.347 75.3652C100.401 75.3052 100.431 75.2274 100.43 75.1469V74.5036C100.43 74.3496 100.536 74.219 100.688 74.1859C101.457 74.0181 102.191 73.7144 102.854 73.289C102.984 73.2052 103.15 73.2227 103.261 73.3339L103.716 73.7881C103.772 73.845 103.848 73.8789 103.928 73.8832C104.009 73.8875 104.088 73.862 104.15 73.8115C104.606 73.4469 105.02 73.033 105.384 72.5775C105.49 72.4469 105.48 72.2597 105.361 72.1427L104.907 71.6866C104.833 71.6125 104.8 71.515 104.813 71.4175L103.248 71.3941C102.926 71.3941 102.606 71.3766 102.286 71.3415C102.056 71.3157 101.838 71.219 101.665 71.0647C100.988 71.5462 100.161 71.8308 99.2665 71.8308C96.9815 71.8308 95.1293 69.9788 95.1293 67.6939C95.1293 65.4091 96.9815 63.557 99.2665 63.557C100.994 63.557 102.472 64.6137 103.092 66.1168C103.144 66.1187 103.195 66.1207 103.248 66.1207C104.096 66.1207 104.872 65.8049 105.461 65.2824C105.301 64.8716 105.1 64.4777 104.862 64.1068C104.778 63.9762 104.796 63.8104 104.907 63.7013L105.361 63.2451C105.48 63.1281 105.49 62.941 105.385 62.8104C105.02 62.3548 104.606 61.9409 104.15 61.5763C104.02 61.471 103.833 61.4807 103.716 61.5997L103.261 62.0539C103.15 62.165 102.985 62.1825 102.854 62.0987C102.191 61.6733 101.457 61.3696 100.688 61.2019C100.615 61.1865 100.549 61.1462 100.502 61.088C100.455 61.0297 100.43 60.9569 100.43 60.8821V60.2388C100.43 60.073 100.306 59.9347 100.14 59.9151C99.5594 59.8508 98.9736 59.8508 98.3931 59.9151C98.2274 59.9346 98.1026 60.073 98.1026 60.2388V60.884C98.1026 61.0381 97.9973 61.1687 97.8452 61.2019C97.0887 61.3676 96.3537 61.6659 95.6811 62.0987C95.5505 62.1825 95.3828 62.165 95.2736 62.0539L94.8174 61.5997C94.7612 61.5424 94.6856 61.5082 94.6055 61.5039C94.5254 61.4996 94.4466 61.5254 94.3845 61.5763C94.1584 61.7556 93.94 61.9506 93.7314 62.1592C93.5228 62.3678 93.3278 62.5862 93.1484 62.8104C93.0979 62.8729 93.0724 62.952 93.0767 63.0322C93.081 63.1125 93.1149 63.1883 93.1718 63.2451L93.628 63.7013C93.7372 63.8104 93.7548 63.9762 93.6709 64.1068C93.2459 64.7699 92.9422 65.5033 92.7741 66.2727L92.7741 66.2726ZM104.121 54.9964C103.541 54.9321 102.955 54.9321 102.374 54.9964C102.294 55.0055 102.22 55.0437 102.167 55.1037C102.113 55.1638 102.084 55.2415 102.084 55.322V55.9654C102.084 56.1193 101.978 56.25 101.826 56.2832C101.057 56.4513 100.323 56.755 99.6602 57.18C99.5296 57.2638 99.3638 57.2462 99.2547 57.1371L98.7985 56.6809C98.7417 56.624 98.6658 56.5901 98.5856 56.5858C98.5053 56.5815 98.4263 56.607 98.3637 56.6575C98.1395 56.8369 97.9211 57.0319 97.7125 57.2405C97.5039 57.4491 97.3089 57.6674 97.1295 57.8936C97.0242 58.0222 97.036 58.2094 97.1529 58.3264L97.6091 58.7825C97.6524 58.8258 97.6825 58.8805 97.696 58.9402C97.7094 58.9999 97.7057 59.0622 97.6851 59.1198C98.5333 59.0925 99.3832 59.0341 100.227 59.1276C100.467 59.1549 100.682 59.2543 100.849 59.4044C101.526 58.9228 102.353 58.6383 103.247 58.6383C105.532 58.6383 107.385 60.4903 107.385 62.7752C107.385 65.06 105.532 66.9121 103.247 66.9121C101.522 66.9121 100.042 65.8554 99.4222 64.3523C99.3703 64.35 99.3183 64.3487 99.2662 64.3484C98.4181 64.3484 97.6441 64.6642 97.0534 65.1867C97.2132 65.5976 97.4137 65.9914 97.652 66.3623C97.7358 66.4929 97.7183 66.6586 97.6071 66.7697L97.1528 67.2239C97.0959 67.2807 97.0621 67.3565 97.0578 67.4368C97.0534 67.5171 97.079 67.5961 97.1295 67.6586C97.4941 68.1142 97.908 68.5281 98.3636 68.8928C98.4943 68.998 98.6815 68.9883 98.7984 68.8694L99.2546 68.4151C99.3638 68.304 99.5315 68.2864 99.6621 68.3703C100.335 68.8031 101.07 69.1014 101.826 69.2671C101.899 69.2825 101.965 69.3227 102.012 69.381C102.059 69.4393 102.084 69.512 102.084 69.5868V70.2301C102.084 70.3958 102.208 70.5342 102.374 70.5538C102.955 70.6181 103.54 70.6181 104.121 70.5538C104.201 70.5452 104.275 70.5074 104.328 70.4476C104.382 70.3879 104.411 70.3104 104.411 70.2301V69.5868C104.411 69.512 104.436 69.4392 104.483 69.381C104.53 69.3227 104.596 69.2824 104.669 69.2671C105.438 69.0993 106.172 68.7956 106.835 68.3703C106.966 68.2864 107.131 68.304 107.242 68.4151L107.697 68.8694C107.814 68.9883 108.001 68.998 108.131 68.8928C108.587 68.5281 109.001 68.1142 109.366 67.6586C109.471 67.528 109.461 67.3409 109.342 67.2239L108.888 66.7677C108.777 66.6586 108.759 66.4928 108.843 66.3622C109.268 65.6993 109.572 64.9659 109.74 64.1963C109.773 64.0442 109.904 63.9389 110.058 63.9389H110.703C110.869 63.9389 111.007 63.8142 111.027 63.6484C111.091 63.0694 111.091 62.4826 111.027 61.9017C111.007 61.736 110.869 61.6111 110.703 61.6111H110.058C109.904 61.6111 109.773 61.5058 109.74 61.3538C109.574 60.5973 109.276 59.8624 108.843 59.1898C108.759 59.0592 108.777 58.8916 108.888 58.7824L109.342 58.3262C109.399 58.27 109.434 58.1945 109.438 58.1144C109.442 58.0343 109.416 57.9554 109.366 57.8934C109.186 57.6673 108.991 57.4489 108.783 57.2403C108.574 57.0317 108.356 56.8367 108.131 56.6574C108.069 56.6069 107.99 56.5814 107.91 56.5857C107.829 56.59 107.753 56.6239 107.697 56.6808L107.24 57.137C107.131 57.2461 106.966 57.2637 106.835 57.1799C106.172 56.7548 105.438 56.4512 104.669 56.283C104.517 56.2499 104.411 56.1193 104.411 55.9652V55.3219C104.412 55.2414 104.382 55.1637 104.328 55.1036C104.275 55.0435 104.201 55.0053 104.121 54.9963L104.121 54.9964Z" fill="#2F4F4F"/>
<path fill-rule="evenodd" clip-rule="evenodd" d="M117.507 70.7741C117.504 70.854 117.457 70.9203 117.383 70.9516L112.52 73.0083C112.458 73.0356 112.394 73.0317 112.337 72.9985C112.278 72.9654 112.243 72.9108 112.236 72.8445L111.584 67.6042C111.575 67.5243 111.61 67.4521 111.676 67.4073C111.742 67.3624 111.824 67.3604 111.892 67.4014L113.458 68.3041C114.786 62.9935 112.51 57.2015 107.55 54.3356C102.589 51.4717 96.4335 52.3997 92.4971 56.2033L90.1166 54.8288C94.8484 49.7756 102.643 48.4284 108.88 52.0312C115.119 55.632 117.851 63.0539 115.84 69.6784L117.406 70.5831C117.474 70.624 117.513 70.6942 117.507 70.7741ZM94.9654 76.1334C90.0035 73.2676 87.7302 67.4754 89.056 62.1649L90.6216 63.0675C90.6898 63.1085 90.7717 63.1065 90.838 63.0617C90.9042 63.0168 90.9394 62.9447 90.9296 62.8648L90.2804 57.6244C90.2762 57.5928 90.2649 57.5625 90.2473 57.5358C90.2297 57.5092 90.2064 57.4868 90.179 57.4704C90.1205 57.4373 90.0562 57.4334 89.9938 57.4607L85.1313 59.5175C85.0572 59.5487 85.0105 59.6149 85.0066 59.6949C85.0033 59.7334 85.0114 59.7719 85.0297 59.8058C85.0481 59.8398 85.0759 59.8676 85.1099 59.886L86.6735 60.7906C84.6634 67.4151 87.3949 74.837 93.6338 78.4378C99.8708 82.0406 107.666 80.6934 112.397 75.6403L110.017 74.2658C106.081 78.0694 99.9273 78.9974 94.9655 76.1335L94.9654 76.1334ZM92.7741 66.2726C92.7409 66.4247 92.6103 66.53 92.4562 66.53H91.8129C91.7323 66.5299 91.6546 66.5594 91.5945 66.613C91.5345 66.6666 91.4963 66.7405 91.4873 66.8205C91.4229 67.401 91.4229 67.9868 91.4873 68.5672C91.4963 68.6472 91.5345 68.7211 91.5945 68.7747C91.6546 68.8283 91.7323 68.8579 91.8129 68.8577H92.4562C92.6102 68.8577 92.7409 68.963 92.7741 69.1151C92.9421 69.8846 93.2458 70.618 93.6709 71.2811C93.7547 71.4117 93.7372 71.5774 93.628 71.6866L93.1717 72.1427C93.1148 72.1995 93.081 72.2754 93.0766 72.3556C93.0723 72.4359 93.0979 72.5149 93.1484 72.5775C93.3305 72.8051 93.5251 73.0225 93.7313 73.2286C93.9377 73.4352 94.1558 73.6299 94.3845 73.8115C94.5131 73.9168 94.7003 73.9051 94.8173 73.7881L95.2735 73.3339C95.3827 73.2227 95.5503 73.2052 95.681 73.289C96.3536 73.7218 97.0887 74.0201 97.8451 74.1859C97.9972 74.219 98.1025 74.3496 98.1025 74.5036V75.1469C98.1024 75.2274 98.1319 75.3052 98.1855 75.3652C98.2391 75.4253 98.313 75.4635 98.393 75.4725C98.974 75.5369 99.5608 75.5369 100.14 75.4725C100.22 75.4635 100.294 75.4253 100.347 75.3652C100.401 75.3052 100.431 75.2274 100.43 75.1469V74.5036C100.43 74.3496 100.536 74.219 100.688 74.1859C101.457 74.0181 102.191 73.7144 102.854 73.289C102.984 73.2052 103.15 73.2227 103.261 73.3339L103.716 73.7881C103.772 73.845 103.848 73.8789 103.928 73.8832C104.009 73.8875 104.088 73.862 104.15 73.8115C104.606 73.4469 105.02 73.033 105.384 72.5775C105.49 72.4469 105.48 72.2597 105.361 72.1427L104.907 71.6866C104.833 71.6125 104.8 71.515 104.813 71.4175L103.248 71.3941C102.926 71.3941 102.606 71.3766 102.286 71.3415C102.056 71.3157 101.838 71.219 101.665 71.0647C100.988 71.5462 100.161 71.8308 99.2665 71.8308C96.9815 71.8308 95.1293 69.9788 95.1293 67.6939C95.1293 65.4091 96.9815 63.557 99.2665 63.557C100.994 63.557 102.472 64.6137 103.092 66.1168C103.144 66.1187 103.195 66.1207 103.248 66.1207C104.096 66.1207 104.872 65.8049 105.461 65.2824C105.301 64.8716 105.1 64.4777 104.862 64.1068C104.778 63.9762 104.796 63.8104 104.907 63.7013L105.361 63.2451C105.48 63.1281 105.49 62.941 105.385 62.8104C105.02 62.3548 104.606 61.9409 104.15 61.5763C104.02 61.471 103.833 61.4807 103.716 61.5997L103.261 62.0539C103.15 62.165 102.985 62.1825 102.854 62.0987C102.191 61.6733 101.457 61.3696 100.688 61.2019C100.615 61.1865 100.549 61.1462 100.502 61.088C100.455 61.0297 100.43 60.9569 100.43 60.8821V60.2388C100.43 60.073 100.306 59.9347 100.14 59.9151C99.5594 59.8508 98.9736 59.8508 98.3931 59.9151C98.2274 59.9346 98.1026 60.073 98.1026 60.2388V60.884C98.1026 61.0381 97.9973 61.1687 97.8452 61.2019C97.0887 61.3676 96.3537 61.6659 95.6811 62.0987C95.5505 62.1825 95.3828 62.165 95.2736 62.0539L94.8174 61.5997C94.7612 61.5424 94.6856 61.5082 94.6055 61.5039C94.5254 61.4996 94.4466 61.5254 94.3845 61.5763C94.1584 61.7556 93.94 61.9506 93.7314 62.1592C93.5228 62.3678 93.3278 62.5862 93.1484 62.8104C93.0979 62.8729 93.0724 62.952 93.0767 63.0322C93.081 63.1125 93.1149 63.1883 93.1718 63.2451L93.628 63.7013C93.7372 63.8104 93.7548 63.9762 93.6709 64.1068C93.2459 64.7699 92.9422 65.5033 92.7741 66.2727L92.7741 66.2726ZM104.121 54.9964C103.541 54.9321 102.955 54.9321 102.374 54.9964C102.294 55.0055 102.22 55.0437 102.167 55.1037C102.113 55.1638 102.084 55.2415 102.084 55.322V55.9654C102.084 56.1193 101.978 56.25 101.826 56.2832C101.057 56.4513 100.323 56.755 99.6602 57.18C99.5296 57.2638 99.3638 57.2462 99.2547 57.1371L98.7985 56.6809C98.7417 56.624 98.6658 56.5901 98.5856 56.5858C98.5053 56.5815 98.4263 56.607 98.3637 56.6575C98.1395 56.8369 97.9211 57.0319 97.7125 57.2405C97.5039 57.4491 97.3089 57.6674 97.1295 57.8936C97.0242 58.0222 97.036 58.2094 97.1529 58.3264L97.6091 58.7825C97.6524 58.8258 97.6825 58.8805 97.696 58.9402C97.7094 58.9999 97.7057 59.0622 97.6851 59.1198C98.5333 59.0925 99.3832 59.0341 100.227 59.1276C100.467 59.1549 100.682 59.2543 100.849 59.4044C101.526 58.9228 102.353 58.6383 103.247 58.6383C105.532 58.6383 107.385 60.4903 107.385 62.7752C107.385 65.06 105.532 66.9121 103.247 66.9121C101.522 66.9121 100.042 65.8554 99.4222 64.3523C99.3703 64.35 99.3183 64.3487 99.2662 64.3484C98.4181 64.3484 97.6441 64.6642 97.0534 65.1867C97.2132 65.5976 97.4137 65.9914 97.652 66.3623C97.7358 66.4929 97.7183 66.6586 97.6071 66.7697L97.1528 67.2239C97.0959 67.2807 97.0621 67.3565 97.0578 67.4368C97.0534 67.5171 97.079 67.5961 97.1295 67.6586C97.4941 68.1142 97.908 68.5281 98.3636 68.8928C98.4943 68.998 98.6815 68.9883 98.7984 68.8694L99.2546 68.4151C99.3638 68.304 99.5315 68.2864 99.6621 68.3703C100.335 68.8031 101.07 69.1014 101.826 69.2671C101.899 69.2825 101.965 69.3227 102.012 69.381C102.059 69.4393 102.084 69.512 102.084 69.5868V70.2301C102.084 70.3958 102.208 70.5342 102.374 70.5538C102.955 70.6181 103.54 70.6181 104.121 70.5538C104.201 70.5452 104.275 70.5074 104.328 70.4476C104.382 70.3879 104.411 70.3104 104.411 70.2301V69.5868C104.411 69.512 104.436 69.4392 104.483 69.381C104.53 69.3227 104.596 69.2824 104.669 69.2671C105.438 69.0993 106.172 68.7956 106.835 68.3703C106.966 68.2864 107.131 68.304 107.242 68.4151L107.697 68.8694C107.814 68.9883 108.001 68.998 108.131 68.8928C108.587 68.5281 109.001 68.1142 109.366 67.6586C109.471 67.528 109.461 67.3409 109.342 67.2239L108.888 66.7677C108.777 66.6586 108.759 66.4928 108.843 66.3622C109.268 65.6993 109.572 64.9659 109.74 64.1963C109.773 64.0442 109.904 63.9389 110.058 63.9389H110.703C110.869 63.9389 111.007 63.8142 111.027 63.6484C111.091 63.0694 111.091 62.4826 111.027 61.9017C111.007 61.736 110.869 61.6111 110.703 61.6111H110.058C109.904 61.6111 109.773 61.5058 109.74 61.3538C109.574 60.5973 109.276 59.8624 108.843 59.1898C108.759 59.0592 108.777 58.8916 108.888 58.7824L109.342 58.3262C109.399 58.27 109.434 58.1945 109.438 58.1144C109.442 58.0343 109.416 57.9554 109.366 57.8934C109.186 57.6673 108.991 57.4489 108.783 57.2403C108.574 57.0317 108.356 56.8367 108.131 56.6574C108.069 56.6069 107.99 56.5814 107.91 56.5857C107.829 56.59 107.753 56.6239 107.697 56.6808L107.24 57.137C107.131 57.2461 106.966 57.2637 106.835 57.1799C106.172 56.7548 105.438 56.4512 104.669 56.283C104.517 56.2499 104.411 56.1193 104.411 55.9652V55.3219C104.412 55.2414 104.382 55.1637 104.328 55.1036C104.275 55.0435 104.201 55.0053 104.121 54.9963L104.121 54.9964Z" fill="url(#paint9_linear_12827_9471)"/>
<defs>
<linearGradient id="paint0_linear_12827_9471" x1="41.7527" y1="67.748" x2="41.7527" y2="133.976" gradientUnits="userSpaceOnUse">
<stop stop-color="#00836A"/>
<stop offset="1" stop-color="#073E39"/>
</linearGradient>
<linearGradient id="paint1_linear_12827_9471" x1="54.3957" y1="138.806" x2="50.8259" y2="143.215" gradientUnits="userSpaceOnUse">
<stop stop-color="#00836A"/>
<stop offset="1" stop-color="#073E39"/>
</linearGradient>
<linearGradient id="paint2_linear_12827_9471" x1="63.4609" y1="134.213" x2="61.0223" y2="137.225" gradientUnits="userSpaceOnUse">
<stop stop-color="#00836A"/>
<stop offset="1" stop-color="#073E39"/>
</linearGradient>
<linearGradient id="paint3_linear_12827_9471" x1="3.59774" y1="84.4648" x2="3.59774" y2="91.6599" gradientUnits="userSpaceOnUse">
<stop stop-color="#00836A"/>
<stop offset="1" stop-color="#073E39"/>
</linearGradient>
<linearGradient id="paint4_linear_12827_9471" x1="155.446" y1="14.3674" x2="170.199" y2="33.95" gradientUnits="userSpaceOnUse">
<stop stop-color="#00836A"/>
<stop offset="1" stop-color="#073E39"/>
</linearGradient>
<linearGradient id="paint5_linear_12827_9471" x1="169.574" y1="38.7004" x2="167.536" y2="38.1922" gradientUnits="userSpaceOnUse">
<stop stop-color="#00836A"/>
<stop offset="1" stop-color="#073E39"/>
</linearGradient>
<linearGradient id="paint6_linear_12827_9471" x1="165.227" y1="39.1989" x2="163.837" y2="38.8522" gradientUnits="userSpaceOnUse">
<stop stop-color="#00836A"/>
<stop offset="1" stop-color="#073E39"/>
</linearGradient>
<linearGradient id="paint7_linear_12827_9471" x1="170.45" y1="10.8122" x2="172.052" y2="12.9388" gradientUnits="userSpaceOnUse">
<stop stop-color="#00836A"/>
<stop offset="1" stop-color="#073E39"/>
</linearGradient>
<linearGradient id="paint8_linear_12827_9471" x1="101.061" y1="5.48828" x2="101.061" y2="124.927" gradientUnits="userSpaceOnUse">
<stop stop-color="#00836A"/>
<stop offset="1" stop-color="#073E39"/>
</linearGradient>
<linearGradient id="paint9_linear_12827_9471" x1="101.257" y1="50" x2="101.257" y2="80.469" gradientUnits="userSpaceOnUse">
<stop stop-color="#00836A"/>
<stop offset="1" stop-color="#073E39"/>
</linearGradient>
</defs>
</svg>
