<svg width="173" height="135" viewBox="0 0 173 135" fill="none" xmlns="http://www.w3.org/2000/svg">
<g opacity="0.272">
<path d="M38.8712 124.737C55.8983 124.737 69.7015 110.934 69.7015 93.907C69.7015 76.8799 55.8983 63.0768 38.8712 63.0768C21.8442 63.0768 8.04102 76.8799 8.04102 93.907C8.04102 110.934 21.8442 124.737 38.8712 124.737Z" fill="#2D6759"/>
<path d="M47.3184 133.338C47.7242 133.667 48.2184 133.868 48.7384 133.916C49.2585 133.963 49.781 133.856 50.24 133.607C50.6989 133.358 51.0737 132.978 51.317 132.516C51.5602 132.054 51.6609 131.53 51.6065 131.011C51.552 130.491 51.3447 130 51.0109 129.598C50.6771 129.196 50.2317 128.903 49.731 128.754C49.2304 128.606 48.6969 128.609 48.1981 128.764C47.6993 128.919 47.2576 129.218 46.9288 129.623C46.4879 130.168 46.2814 130.865 46.3544 131.561C46.4275 132.258 46.7742 132.897 47.3184 133.338Z" fill="#2D6759"/>
<path d="M56.8092 127.762C57.0864 127.986 57.4241 128.123 57.7793 128.156C58.1346 128.189 58.4916 128.115 58.8051 127.945C59.1187 127.775 59.3747 127.515 59.5408 127.2C59.7069 126.884 59.7757 126.526 59.7384 126.171C59.7011 125.816 59.5594 125.48 59.3313 125.206C59.1032 124.932 58.7988 124.731 58.4567 124.63C58.1146 124.529 57.7502 124.531 57.4095 124.637C57.0687 124.743 56.767 124.947 56.5425 125.224C56.2414 125.596 56.1004 126.072 56.1504 126.548C56.2004 127.024 56.4374 127.46 56.8092 127.762Z" fill="#2D6759"/>
<path d="M3.34942 85.3403C4.01187 85.3403 4.65944 85.1439 5.21025 84.7758C5.76106 84.4078 6.19036 83.8847 6.44387 83.2727C6.69738 82.6606 6.76371 81.9872 6.63447 81.3375C6.50524 80.6877 6.18624 80.0909 5.71781 79.6225C5.24939 79.1541 4.65258 78.8351 4.00285 78.7058C3.35313 78.5766 2.67968 78.6429 2.06765 78.8964C1.45562 79.1499 0.932517 79.5793 0.564478 80.1301C0.19644 80.6809 0 81.3284 0 81.9909C0 82.8792 0.352883 83.7312 0.981021 84.3593C1.60916 84.9874 2.4611 85.3403 3.34942 85.3403Z" fill="#2D6759"/>
</g>
<g opacity="0.272">
<path d="M158.454 31.6086C163.489 27.8155 164.495 20.6593 160.702 15.6249C156.909 10.5906 149.753 9.5843 144.718 13.3774C139.684 17.1705 138.677 24.3267 142.471 29.3611C146.264 34.3955 153.42 35.4017 158.454 31.6086Z" fill="#2D6759"/>
<path d="M157.871 36.0325C157.824 36.2201 157.723 36.3896 157.58 36.5196C157.436 36.6496 157.258 36.7343 157.067 36.7628C156.876 36.7914 156.68 36.7626 156.505 36.6801C156.33 36.5976 156.184 36.4651 156.084 36.2994C155.985 36.1336 155.937 35.9421 155.946 35.749C155.955 35.5559 156.021 35.3698 156.137 35.2144C156.252 35.059 156.41 34.9412 156.592 34.8758C156.774 34.8105 156.971 34.8006 157.159 34.8474C157.41 34.9102 157.627 35.0703 157.76 35.2925C157.894 35.5148 157.934 35.781 157.871 36.0325Z" fill="#2D6759"/>
<path d="M153.823 36.4964C153.791 36.6244 153.722 36.74 153.624 36.8287C153.527 36.9174 153.405 36.9751 153.274 36.9946C153.144 37.0141 153.011 36.9944 152.891 36.9382C152.772 36.8819 152.672 36.7915 152.604 36.6784C152.536 36.5654 152.504 36.4347 152.51 36.303C152.516 36.1712 152.561 36.0443 152.64 35.9383C152.718 35.8323 152.827 35.7519 152.951 35.7074C153.075 35.6628 153.209 35.6561 153.337 35.688C153.509 35.7311 153.656 35.8403 153.747 35.9919C153.838 36.1434 153.865 36.3248 153.823 36.4964Z" fill="#2D6759"/>
<path d="M160.179 12.0469C159.983 12.1944 159.748 12.2805 159.503 12.2944C159.258 12.3083 159.015 12.2493 158.804 12.1248C158.593 12.0004 158.423 11.8161 158.317 11.5953C158.21 11.3745 158.172 11.1271 158.206 10.8844C158.24 10.6416 158.345 10.4144 158.508 10.2315C158.672 10.0487 158.885 9.91831 159.123 9.85695C159.36 9.79559 159.61 9.80598 159.842 9.88682C160.073 9.96766 160.275 10.1153 160.423 10.3111C160.621 10.5736 160.706 10.904 160.66 11.2295C160.615 11.555 160.441 11.849 160.179 12.0469Z" fill="#2D6759"/>
</g>
<path d="M94.0237 120.237C127.226 120.237 154.142 93.3209 154.142 60.1184C154.142 26.9159 127.226 0 94.0237 0C60.8212 0 33.9053 26.9159 33.9053 60.1184C33.9053 93.3209 60.8212 120.237 94.0237 120.237Z" fill="#F7F2EC"/>
<path d="M94.024 119.073C126.584 119.073 152.979 92.6782 152.979 60.1184C152.979 27.5587 126.584 1.16382 94.024 1.16382C61.4642 1.16382 35.0693 27.5587 35.0693 60.1184C35.0693 92.6782 61.4642 119.073 94.024 119.073Z" stroke="#002C27" stroke-width="2"/>
<path d="M149.684 60.7108C149.696 68.081 148.24 75.3797 145.403 82.1819C142.566 88.984 138.404 95.1536 133.158 100.331C128.037 105.431 121.959 109.469 115.272 112.211C108.585 114.953 101.422 116.346 94.1943 116.31C83.1929 116.332 72.4323 113.089 63.2745 106.993C54.1166 100.897 46.9731 92.2205 42.7481 82.0627C38.5231 71.9048 37.4064 60.722 39.5395 49.9293C41.6726 39.1366 46.9595 29.2193 54.7311 21.4325C62.5027 13.6458 72.4097 8.33948 83.1982 6.18537C93.9867 4.03126 105.172 5.12619 115.338 9.33141C125.504 13.5366 134.194 20.6632 140.308 29.8091C146.422 38.9551 149.686 49.7093 149.686 60.7108H149.684Z" fill="#2D6759"/>
<path d="M94.0237 111.284C122.282 111.284 145.189 88.3763 145.189 60.1184C145.189 31.8606 122.282 8.95312 94.0237 8.95312C65.7659 8.95312 42.8584 31.8606 42.8584 60.1184C42.8584 88.3763 65.7659 111.284 94.0237 111.284Z" fill="#F7F2EC"/>
<path d="M94.024 110.12C121.639 110.12 144.025 87.7335 144.025 60.1185C144.025 32.5034 121.639 10.1169 94.024 10.1169C66.4089 10.1169 44.0225 32.5034 44.0225 60.1185C44.0225 87.7335 66.4089 110.12 94.024 110.12Z" stroke="#002C27" stroke-width="2"/>
<path d="M94.3343 17.4361C70.6522 17.4361 51.4541 36.6342 51.4541 60.3163C51.4541 83.9984 70.6522 103.197 94.3343 103.197C118.016 103.197 137.215 83.9984 137.215 60.3163C137.215 36.6342 118.016 17.4361 94.3343 17.4361Z" stroke="#002C27" stroke-width="1.5" stroke-dasharray="1.5 1.5"/>
<g clip-path="url(#clip0_10134_7745)">
<path fill-rule="evenodd" clip-rule="evenodd" d="M109.397 65.8934C109.393 65.9678 109.35 66.0295 109.281 66.0586L104.754 67.9735C104.696 67.9989 104.636 67.9953 104.583 67.9644C104.529 67.9336 104.496 67.8828 104.489 67.821L103.883 62.9421C103.874 62.8677 103.906 62.8005 103.968 62.7588C104.03 62.717 104.106 62.7152 104.169 62.7533L105.627 63.5938C106.863 58.6494 104.745 53.2568 100.127 50.5886C95.5078 47.9222 89.7775 48.7862 86.1129 52.3274L83.8967 51.0478C88.3019 46.343 95.5587 45.0888 101.365 48.4431C107.173 51.7956 109.716 58.7056 107.845 64.8733L109.303 65.7155C109.366 65.7536 109.402 65.819 109.397 65.8934ZM88.4108 70.8831C83.7914 68.2149 81.675 62.8222 82.9093 57.878L84.3668 58.7183C84.4303 58.7564 84.5066 58.7546 84.5682 58.7129C84.6299 58.6711 84.6626 58.604 84.6535 58.5296L84.0491 53.6506C84.0452 53.6212 84.0347 53.593 84.0183 53.5681C84.002 53.5433 83.9803 53.5225 83.9547 53.5072C83.9003 53.4764 83.8404 53.4727 83.7823 53.4981L79.2555 55.4131C79.1865 55.4422 79.143 55.5038 79.1393 55.5783C79.1363 55.6141 79.1438 55.65 79.1609 55.6816C79.178 55.7132 79.2039 55.7391 79.2355 55.7562L80.6912 56.5984C78.8199 62.7661 81.3628 69.6761 87.1711 73.0286C92.9776 76.3829 100.234 75.1286 104.64 70.424L102.423 69.1443C98.7587 72.6856 93.0303 73.5496 88.4109 70.8832L88.4108 70.8831ZM86.3707 61.7024C86.3398 61.8439 86.2182 61.942 86.0748 61.942H85.4758C85.4009 61.9419 85.3285 61.9694 85.2726 62.0193C85.2167 62.0692 85.1811 62.138 85.1727 62.2125C85.1128 62.7529 85.1128 63.2983 85.1727 63.8387C85.1811 63.9132 85.2167 63.982 85.2726 64.0319C85.3285 64.0818 85.4009 64.1093 85.4758 64.1092H86.0748C86.2182 64.1092 86.3398 64.2072 86.3707 64.3488C86.5272 65.0652 86.8099 65.7481 87.2056 66.3654C87.2837 66.487 87.2673 66.6413 87.1657 66.7429L86.7409 67.1677C86.688 67.2205 86.6564 67.2911 86.6524 67.3659C86.6484 67.4406 86.6722 67.5142 86.7192 67.5724C86.8887 67.7843 87.0699 67.9867 87.2619 68.1786C87.454 68.371 87.657 68.5522 87.8699 68.7213C87.9898 68.8194 88.164 68.8085 88.2729 68.6996L88.6976 68.2766C88.7992 68.1732 88.9554 68.1568 89.077 68.2349C89.7032 68.6378 90.3875 68.9156 91.0917 69.0699C91.2333 69.1007 91.3313 69.2223 91.3313 69.3657V69.9647C91.3312 70.0396 91.3587 70.112 91.4087 70.1679C91.4586 70.2238 91.5273 70.2594 91.6018 70.2678C92.1427 70.3277 92.689 70.3277 93.2281 70.2678C93.3026 70.2594 93.3714 70.2238 93.4213 70.1679C93.4712 70.112 93.4987 70.0396 93.4986 69.9647V69.3657C93.4986 69.2223 93.5966 69.1007 93.7382 69.0699C94.4547 68.9137 95.1376 68.6309 95.7548 68.2349C95.8764 68.1568 96.0307 68.1732 96.1341 68.2766L96.557 68.6996C96.6098 68.7525 96.6804 68.7841 96.7552 68.7881C96.8299 68.7921 96.9035 68.7683 96.9617 68.7213C97.3858 68.3818 97.7712 67.9965 98.1107 67.5724C98.2087 67.4508 98.1997 67.2765 98.0889 67.1677L97.6661 66.7429C97.5971 66.674 97.5662 66.5832 97.5789 66.4924L96.1214 66.4707C95.8219 66.4707 95.5243 66.4543 95.2266 66.4217C95.0116 66.3977 94.8093 66.3077 94.6476 66.164C94.0178 66.6122 93.2482 66.8773 92.415 66.8773C90.2877 66.8773 88.5634 65.1529 88.5634 63.0257C88.5634 60.8984 90.2877 59.174 92.415 59.174C94.0232 59.174 95.3991 60.1578 95.9763 61.5573C96.0253 61.5591 96.0724 61.5609 96.1215 61.5609C96.9111 61.5609 97.6335 61.2669 98.1816 60.7804C98.0328 60.3979 97.8461 60.0313 97.6244 59.6859C97.5463 59.5643 97.5627 59.41 97.6661 59.3084L98.089 58.8837C98.1997 58.7747 98.2088 58.6005 98.1108 58.4789C97.7713 58.0547 97.386 57.6694 96.9618 57.3299C96.8402 57.2319 96.6659 57.241 96.557 57.3517L96.1342 57.7746C96.0307 57.878 95.8764 57.8944 95.7548 57.8163C95.1376 57.4203 94.4548 57.1375 93.7383 56.9813C93.6701 56.967 93.609 56.9295 93.5653 56.8753C93.5216 56.821 93.4981 56.7533 93.4987 56.6836V56.0847C93.4987 55.9304 93.3825 55.8015 93.2282 55.7833C92.6877 55.7234 92.1423 55.7234 91.6019 55.7833C91.4476 55.8015 91.3314 55.9304 91.3314 56.0847V56.6854C91.3314 56.8289 91.2334 56.9505 91.0918 56.9813C90.3875 57.1356 89.7033 57.4133 89.0771 57.8163C88.9555 57.8944 88.7994 57.878 88.6977 57.7746L88.273 57.3517C88.2207 57.2984 88.1503 57.2666 88.0757 57.2625C88.0011 57.2585 87.9278 57.2825 87.87 57.3299C87.6595 57.4969 87.4562 57.6784 87.262 57.8727C87.0677 58.0669 86.8862 58.2702 86.7192 58.4789C86.6722 58.5372 86.6484 58.6107 86.6525 58.6855C86.6565 58.7602 86.688 58.8308 86.741 58.8837L87.1657 59.3084C87.2673 59.41 87.2837 59.5643 87.2057 59.6859C86.81 60.3033 86.5273 60.9861 86.3708 61.7025L86.3707 61.7024ZM96.9345 51.2039C96.3941 51.1439 95.8486 51.1439 95.3082 51.2039C95.2337 51.2123 95.165 51.2478 95.1151 51.3038C95.0652 51.3597 95.0376 51.432 95.0377 51.507V52.106C95.0377 52.2493 94.9398 52.371 94.7981 52.4019C94.0817 52.5584 93.3989 52.8411 92.7816 53.2368C92.66 53.3149 92.5056 53.2985 92.404 53.1969L91.9793 52.7722C91.9264 52.7192 91.8558 52.6876 91.7811 52.6836C91.7064 52.6796 91.6328 52.7034 91.5745 52.7504C91.3658 52.9174 91.1625 53.0989 90.9683 53.2931C90.7741 53.4873 90.5925 53.6906 90.4255 53.9012C90.3275 54.021 90.3385 54.1952 90.4473 54.3041L90.872 54.7289C90.9123 54.7691 90.9404 54.82 90.9529 54.8756C90.9654 54.9312 90.9619 54.9892 90.9428 55.0429C91.7324 55.0174 92.5237 54.963 93.3096 55.0501C93.5329 55.0755 93.7326 55.1681 93.8887 55.3078C94.5185 54.8595 95.2881 54.5945 96.1212 54.5945C98.2485 54.5945 99.9728 56.3188 99.9728 58.4461C99.9728 60.5734 98.2485 62.2977 96.1212 62.2977C94.5149 62.2977 93.1372 61.3139 92.56 59.9145C92.5116 59.9124 92.4632 59.9112 92.4148 59.9109C91.6252 59.9109 90.9046 60.2049 90.3547 60.6914C90.5035 61.0739 90.6901 61.4405 90.9119 61.7859C90.99 61.9075 90.9737 62.0618 90.8702 62.1652L90.4473 62.5881C90.3943 62.6409 90.3627 62.7115 90.3587 62.7863C90.3547 62.861 90.3785 62.9346 90.4255 62.9928C90.765 63.417 91.1503 63.8023 91.5745 64.1418C91.6961 64.2398 91.8704 64.2307 91.9792 64.12L92.404 63.6971C92.5056 63.5936 92.6617 63.5773 92.7833 63.6554C93.4095 64.0583 94.0938 64.336 94.798 64.4903C94.8662 64.5047 94.9273 64.5421 94.9709 64.5964C95.0146 64.6506 95.0382 64.7183 95.0376 64.788V65.3869C95.0376 65.5412 95.1538 65.6701 95.3081 65.6883C95.849 65.7482 96.3935 65.7482 96.9344 65.6883C97.0087 65.6803 97.0774 65.6451 97.1274 65.5894C97.1773 65.5338 97.2049 65.4617 97.2048 65.3869V64.788C97.2043 64.7183 97.2278 64.6506 97.2715 64.5963C97.3152 64.5421 97.3763 64.5046 97.4445 64.4903C98.161 64.3342 98.8438 64.0514 99.461 63.6554C99.5826 63.5773 99.7369 63.5936 99.8404 63.6971L100.263 64.12C100.372 64.2307 100.546 64.2398 100.668 64.1418C101.092 63.8023 101.478 63.417 101.817 62.9928C101.915 62.8712 101.906 62.697 101.795 62.5881L101.372 62.1633C101.269 62.0617 101.252 61.9074 101.331 61.7858C101.727 61.1686 102.009 60.4857 102.166 59.7692C102.196 59.6277 102.318 59.5296 102.461 59.5296H103.062C103.216 59.5296 103.345 59.4135 103.363 59.2591C103.423 58.7201 103.423 58.1737 103.363 57.6329C103.345 57.4786 103.216 57.3624 103.062 57.3624H102.461C102.318 57.3624 102.196 57.2643 102.166 57.1228C102.011 56.4185 101.733 55.7342 101.331 55.1081C101.252 54.9865 101.269 54.8303 101.372 54.7287L101.795 54.304C101.849 54.2517 101.88 54.1813 101.884 54.1067C101.888 54.0322 101.864 53.9588 101.817 53.901C101.65 53.6905 101.469 53.4872 101.274 53.293C101.08 53.0988 100.877 52.9172 100.668 52.7503C100.61 52.7033 100.536 52.6795 100.461 52.6835C100.387 52.6875 100.316 52.7191 100.263 52.772L99.8386 53.1967C99.7369 53.2984 99.5826 53.3148 99.461 53.2367C98.8437 52.841 98.1609 52.5582 97.4445 52.4017C97.3029 52.3709 97.2048 52.2493 97.2048 52.1058V51.5069C97.205 51.4319 97.1774 51.3595 97.1275 51.3036C97.0776 51.2477 97.0089 51.2121 96.9344 51.2037L96.9345 51.2039Z" fill="#2D6759"/>
</g>
<defs>
<clipPath id="clip0_10134_7745">
<rect width="30.2588" height="30.2588" fill="white" transform="translate(79.1387 45.3882)"/>
</clipPath>
</defs>
</svg>
