<svg width="47" height="47" viewBox="0 0 47 47" fill="none" xmlns="http://www.w3.org/2000/svg">
<g clip-path="url(#clip0_639_7882)">
<path d="M23.4328 9.58971e-05C28.0797 -0.0131787 32.6261 1.35198 36.4975 3.92337C40.3689 6.49476 43.3916 10.1569 45.1831 14.4466C46.9747 18.7363 47.4549 23.4609 46.563 28.0236C45.6711 32.5863 43.4472 36.7821 40.1723 40.0804C36.8974 43.3788 32.7186 45.6317 28.1642 46.5544C23.6098 47.4772 18.8841 47.0283 14.5846 45.2645C10.2851 43.5008 6.6049 40.5015 4.00894 36.6454C1.41299 32.7894 0.0179741 28.2499 0.000218896 23.6008C-0.0176567 17.3632 2.44022 11.3738 6.83407 6.9484C11.2279 2.523 17.1982 0.0238555 23.4328 9.58971e-05ZM23.4328 43.6797C28.0905 43.7072 32.6141 42.1219 36.2367 39.1929C36.3516 39.1232 36.4389 39.0159 36.4838 38.8892C36.5288 38.7624 36.5286 38.6239 36.4833 38.4973C35.9181 36.4469 34.8699 34.5621 33.4263 33.0007C31.9827 31.4393 30.1859 30.2468 28.1866 29.5235C27.9559 29.4334 27.6999 29.4334 27.4692 29.5235C26.2242 30.0511 24.8859 30.3229 23.5338 30.3229C22.1818 30.3229 20.8435 30.0511 19.5985 29.5235C19.3945 29.4567 19.1745 29.4567 18.9706 29.5235C16.9592 30.2342 15.1496 31.4218 13.6969 32.9845C12.2443 34.5473 11.1918 36.4387 10.629 38.4973C10.5605 38.6359 10.5452 38.7949 10.5866 38.9439C10.628 39.093 10.723 39.2215 10.8532 39.3049C14.4188 42.1357 18.8361 43.6775 23.3879 43.6797H23.4328ZM23.5451 13.4383C22.2146 13.4383 20.9139 13.8328 19.8076 14.5723C18.7013 15.3118 17.839 16.3631 17.3298 17.5929C16.8207 18.8227 16.6876 20.1759 16.9472 21.4814C17.2067 22.787 17.8474 23.9861 18.7882 24.9274C19.729 25.8686 20.9276 26.5097 22.2325 26.7693C23.5375 27.029 24.89 26.8959 26.1192 26.3865C27.3484 25.8771 28.3992 25.0143 29.1384 23.9075C29.8776 22.8007 30.2722 21.4997 30.2722 20.1686C30.2722 19.2809 30.0965 18.402 29.7556 17.5825C29.4148 16.763 28.9154 16.0192 28.286 15.3936C27.6566 14.768 26.9096 14.2731 26.0883 13.9375C25.2669 13.6019 24.3874 13.4323 23.5002 13.4383H23.5451Z" fill="#2F4F4F"/>
<path d="M23.3878 43.6795C18.8071 43.6556 14.3709 42.0733 10.8082 39.1927C10.678 39.1093 10.5832 38.9808 10.5418 38.8317C10.5005 38.6827 10.5154 38.5237 10.584 38.3851C11.1467 36.3265 12.1995 34.4348 13.6522 32.8721C15.1049 31.3093 16.9142 30.122 18.9255 29.4113C19.1295 29.3445 19.3495 29.3445 19.5535 29.4113C20.7985 29.9389 22.1368 30.2107 23.4888 30.2107C24.8409 30.2107 26.1792 29.9389 27.4242 29.4113C27.6549 29.3212 27.9109 29.3212 28.1416 29.4113C30.1409 30.1346 31.9377 31.3268 33.3813 32.8882C34.8249 34.4496 35.8733 36.3347 36.4386 38.3851C36.4839 38.5117 36.484 38.65 36.4391 38.7767C36.3941 38.9034 36.3066 39.0107 36.1917 39.0804C32.5843 42.0498 28.0592 43.6753 23.3878 43.6795Z" fill="#F7F2EC"/>
<path d="M23.4996 13.4375C24.8301 13.4375 26.1305 13.832 27.2367 14.5715C28.343 15.3111 29.2054 16.3624 29.7145 17.5922C30.2237 18.822 30.3568 20.1751 30.0972 21.4807C29.8376 22.7862 29.1972 23.9854 28.2564 24.9266C27.3156 25.8679 26.1167 26.5089 24.8118 26.7686C23.5069 27.0283 22.1544 26.8951 20.9252 26.3857C19.6959 25.8763 18.6454 25.0136 17.9062 23.9068C17.1671 22.8 16.7725 21.4989 16.7725 20.1678C16.7725 18.3828 17.4812 16.6709 18.7427 15.4087C20.0043 14.1465 21.7154 13.4375 23.4996 13.4375Z" fill="#F7F2EC"/>
</g>
<defs>
<clipPath id="clip0_639_7882">
<rect width="47" height="47" fill="white"/>
</clipPath>
</defs>
</svg>
