<svg width="47" height="47" viewBox="0 0 47 47" fill="none" xmlns="http://www.w3.org/2000/svg">
<g clip-path="url(#clip0_5112_13380)">
<path d="M23.4327 9.58971e-05C28.0796 -0.0131787 32.626 1.35198 36.4974 3.92337C40.3688 6.49476 43.3914 10.1569 45.183 14.4466C46.9746 18.7363 47.4548 23.4609 46.5629 28.0236C45.671 32.5863 43.447 36.7821 40.1722 40.0804C36.8973 43.3788 32.7185 45.6317 28.1641 46.5544C23.6096 47.4772 18.884 47.0283 14.5845 45.2645C10.285 43.5008 6.60477 40.5015 4.00882 36.6454C1.41286 32.7894 0.017852 28.2499 9.68258e-05 23.6008C-0.0177788 17.3632 2.44009 11.3738 6.83395 6.9484C11.2278 2.523 17.1981 0.0238555 23.4327 9.58971e-05ZM23.4327 43.6797C28.0903 43.7072 32.614 42.1219 36.2365 39.1929C36.3515 39.1232 36.4388 39.0159 36.4837 38.8892C36.5287 38.7624 36.5285 38.6239 36.4832 38.4973C35.918 36.4469 34.8698 34.5621 33.4262 33.0007C31.9826 31.4393 30.1858 30.2468 28.1865 29.5235C27.9558 29.4334 27.6998 29.4334 27.4691 29.5235C26.2241 30.0511 24.8858 30.3229 23.5337 30.3229C22.1817 30.3229 20.8434 30.0511 19.5984 29.5235C19.3944 29.4567 19.1744 29.4567 18.9704 29.5235C16.9591 30.2342 15.1495 31.4218 13.6968 32.9845C12.2441 34.5473 11.1916 36.4387 10.6289 38.4973C10.5603 38.6359 10.5451 38.7949 10.5865 38.9439C10.6278 39.093 10.7229 39.2215 10.8531 39.3049C14.4187 42.1357 18.836 43.6775 23.3878 43.6797H23.4327ZM23.5449 13.4383C22.2144 13.4383 20.9137 13.8328 19.8075 14.5723C18.7012 15.3118 17.8389 16.3631 17.3297 17.5929C16.8206 18.8227 16.6875 20.1759 16.947 21.4814C17.2066 22.787 17.8473 23.9861 18.7881 24.9274C19.7289 25.8686 20.9275 26.5097 22.2324 26.7693C23.5374 27.029 24.8898 26.8959 26.1191 26.3865C27.3483 25.8771 28.3991 25.0143 29.1383 23.9075C29.8775 22.8007 30.272 21.4997 30.272 20.1686C30.2721 19.2809 30.0964 18.402 29.7555 17.5825C29.4146 16.763 28.9153 16.0192 28.2859 15.3936C27.6565 14.768 26.9095 14.2731 26.0881 13.9375C25.2668 13.6019 24.3872 13.4323 23.5001 13.4383H23.5449Z" fill="#8E8E8E"/>
<path d="M23.3879 43.6795C18.8073 43.6556 14.371 42.0733 10.8083 39.1927C10.6781 39.1093 10.5833 38.9808 10.542 38.8317C10.5006 38.6827 10.5156 38.5237 10.5841 38.3851C11.1469 36.3265 12.1996 34.4348 13.6523 32.8721C15.105 31.3093 16.9143 30.122 18.9257 29.4113C19.1296 29.3445 19.3496 29.3445 19.5536 29.4113C20.7986 29.9389 22.1369 30.2107 23.489 30.2107C24.841 30.2107 26.1793 29.9389 27.4243 29.4113C27.655 29.3212 27.911 29.3212 28.1418 29.4113C30.141 30.1346 31.9378 31.3268 33.3814 32.8882C34.825 34.4496 35.8735 36.3347 36.4387 38.3851C36.484 38.5117 36.4842 38.65 36.4392 38.7767C36.3943 38.9034 36.3067 39.0107 36.1918 39.0804C32.5844 42.0498 28.0593 43.6753 23.3879 43.6795Z" fill="#F7F2EC"/>
<path d="M23.4996 13.4375C24.8301 13.4375 26.1305 13.832 27.2367 14.5715C28.343 15.3111 29.2054 16.3624 29.7145 17.5922C30.2237 18.822 30.3568 20.1751 30.0972 21.4807C29.8376 22.7862 29.1972 23.9854 28.2564 24.9266C27.3156 25.8679 26.1167 26.5089 24.8118 26.7686C23.5069 27.0283 22.1544 26.8951 20.9252 26.3857C19.6959 25.8763 18.6454 25.0136 17.9062 23.9068C17.1671 22.8 16.7725 21.4989 16.7725 20.1678C16.7725 18.3828 17.4812 16.6709 18.7427 15.4087C20.0043 14.1465 21.7154 13.4375 23.4996 13.4375Z" fill="#F7F2EC"/>
</g>
<defs>
<clipPath id="clip0_5112_13380">
<rect width="47" height="47" fill="white"/>
</clipPath>
</defs>
</svg>
