<svg xmlns="http://www.w3.org/2000/svg" width="19" height="19" viewBox="0 0 16 16">
  <g id="checkbox_filled" data-name="checkbox filled" transform="translate(-106 -195)">
    <circle id="Ellipse_1142" data-name="Ellipse 1142" cx="8" cy="8" r="8" transform="translate(106 195)" fill="#41594C"/>
    <g id="check" transform="translate(110.032 200.818)">
      <path id="Path" d="M2.254,5.646.285,3.658a.987.987,0,0,1,0-1.388.966.966,0,0,1,1.375,0L2.892,3.514a.132.132,0,0,0,.187,0L6.277.287a.966.966,0,0,1,1.375,0,.987.987,0,0,1,0,1.388L3.717,5.646a1.028,1.028,0,0,1-1.464,0Z" transform="translate(0 0)" fill="#fdf7f0"/>
    </g>
  </g>
</svg>
