<svg width="14" height="14" viewBox="0 0 14 14" fill="none" xmlns="http://www.w3.org/2000/svg">
<g clip-path="url(#clip0_10276_3684)">
<path fill-rule="evenodd" clip-rule="evenodd" d="M2.625 9.55916V10.0625C2.625 10.3863 2.74531 10.6975 2.95969 10.9375C2.74443 11.1782 2.62529 11.4896 2.625 11.8125V12.6875C2.625 13.0355 2.76281 13.3693 3.01 13.6157C3.13173 13.7376 3.27631 13.8343 3.43546 13.9002C3.59462 13.9662 3.76522 14.0001 3.9375 14H10.0625C10.4103 14 10.745 13.8618 10.99 13.6157C11.1121 13.4939 11.209 13.3493 11.2751 13.19C11.3412 13.0307 11.3751 12.8599 11.375 12.6875V11.8125C11.375 11.4887 11.2547 11.1775 11.0403 10.9375C11.2556 10.6968 11.3747 10.3854 11.375 10.0625V9.55916C12.8713 9.25488 14 7.93012 14 6.34375C14 4.57341 12.5956 3.12856 10.8391 3.06491C10.4431 1.31141 8.8725 0 7 0C5.1275 0 3.55687 1.31141 3.16094 3.06491C1.40438 3.12856 0 4.57341 0 6.34375C0 7.93012 1.12875 9.25488 2.625 9.55916ZM10.5 11.8125V12.6875C10.5 12.8034 10.4541 12.9148 10.3709 12.9968C10.29 13.0788 10.1784 13.125 10.0625 13.125H3.9375C3.82156 13.125 3.71 13.0788 3.62906 12.9968C3.58812 12.9564 3.55563 12.9082 3.53347 12.8551C3.51131 12.802 3.49993 12.745 3.5 12.6875V11.8125C3.5 11.6966 3.54594 11.5852 3.62906 11.5032C3.71 11.4212 3.82156 11.375 3.9375 11.375H10.0625C10.1784 11.375 10.29 11.4212 10.3709 11.5032C10.4541 11.5852 10.5 11.6966 10.5 11.8125ZM6.125 12.6875H6.5625C6.80313 12.6875 7 12.4915 7 12.25C7 12.0085 6.80313 11.8125 6.5625 11.8125H6.125C5.88437 11.8125 5.6875 12.0085 5.6875 12.25C5.6875 12.4915 5.88437 12.6875 6.125 12.6875ZM4.375 12.6875H4.8125C5.05313 12.6875 5.25 12.4915 5.25 12.25C5.25 12.0085 5.05313 11.8125 4.8125 11.8125H4.375C4.13437 11.8125 3.9375 12.0085 3.9375 12.25C3.9375 12.4915 4.13437 12.6875 4.375 12.6875ZM10.5 9.1875V10.0625C10.5 10.1784 10.4541 10.2898 10.3709 10.3718C10.29 10.4538 10.1784 10.5 10.0625 10.5H3.9375C3.82156 10.5 3.71 10.4538 3.62906 10.3718C3.58812 10.3314 3.55563 10.2832 3.53347 10.2301C3.51131 10.177 3.49993 10.12 3.5 10.0625V9.1875C3.5 9.07156 3.54594 8.96022 3.62906 8.87819C3.71 8.79616 3.82156 8.75 3.9375 8.75H10.0625C10.1784 8.75 10.29 8.79616 10.3709 8.87819C10.4541 8.96022 10.5 9.07156 10.5 9.1875ZM6.125 10.0625H6.5625C6.80313 10.0625 7 9.8665 7 9.625C7 9.3835 6.80313 9.1875 6.5625 9.1875H6.125C5.88437 9.1875 5.6875 9.3835 5.6875 9.625C5.6875 9.8665 5.88437 10.0625 6.125 10.0625ZM4.375 10.0625H4.8125C5.05313 10.0625 5.25 9.8665 5.25 9.625C5.25 9.3835 5.05313 9.1875 4.8125 9.1875H4.375C4.13437 9.1875 3.9375 9.3835 3.9375 9.625C3.9375 9.8665 4.13437 10.0625 4.375 10.0625ZM10.5 6.5625V7.4375C10.5 7.55344 10.4541 7.66478 10.3709 7.74681C10.29 7.82884 10.1784 7.875 10.0625 7.875H3.9375C3.82156 7.875 3.71 7.82884 3.62906 7.74681C3.58812 7.70638 3.55563 7.65822 3.53347 7.60512C3.51131 7.55202 3.49993 7.49504 3.5 7.4375V6.5625C3.5 6.44656 3.54594 6.33522 3.62906 6.25319C3.71 6.17116 3.82156 6.125 3.9375 6.125H10.0625C10.1784 6.125 10.29 6.17116 10.3709 6.25319C10.4541 6.33522 10.5 6.44656 10.5 6.5625ZM6.125 7.4375H6.5625C6.80313 7.4375 7 7.2415 7 7C7 6.7585 6.80313 6.5625 6.5625 6.5625H6.125C5.88437 6.5625 5.6875 6.7585 5.6875 7C5.6875 7.2415 5.88437 7.4375 6.125 7.4375ZM4.375 7.4375H4.8125C5.05313 7.4375 5.25 7.2415 5.25 7C5.25 6.7585 5.05313 6.5625 4.8125 6.5625H4.375C4.13437 6.5625 3.9375 6.7585 3.9375 7C3.9375 7.2415 4.13437 7.4375 4.375 7.4375Z" fill="#F6F2ED"/>
</g>
<defs>
<clipPath id="clip0_10276_3684">
<rect width="14" height="14" fill="white"/>
</clipPath>
</defs>
</svg>
