<svg width="17" height="14" viewBox="0 0 17 14" fill="none" xmlns="http://www.w3.org/2000/svg">
<path fill-rule="evenodd" clip-rule="evenodd" d="M6.17223 9.26118C6.17043 8.85346 6.27522 8.45235 6.4762 8.09761C6.67719 7.74287 6.9674 7.44681 7.31806 7.23879C7.66872 7.03076 8.06766 6.91799 8.47533 6.91166C8.883 6.90532 9.28525 7.00564 9.64221 7.20267C9.99917 7.3997 10.2984 7.68659 10.5103 8.03492C10.7223 8.38324 10.8395 8.7809 10.8503 9.18848C10.8612 9.59606 10.7654 9.9994 10.5723 10.3585C10.3793 10.7176 10.0957 11.0201 9.74977 11.2359C10.5045 11.3848 11.218 11.6955 11.8412 12.1467L10.9755 13.3132C10.2499 12.8061 9.38275 12.5409 8.49763 12.5554C7.61344 12.54 6.74673 12.8026 6.01975 13.3061L5.15234 12.1332C5.7735 11.677 6.48757 11.3635 7.24373 11.2147C6.90631 11.0039 6.62816 10.7105 6.43556 10.3624C6.24295 10.0142 6.14224 9.62271 6.14291 9.22482L6.17223 9.26118Z" fill="#FFFFFF"/>
<path fill-rule="evenodd" clip-rule="evenodd" d="M7.79744 0.727357C6.55606 0.72638 5.3569 1.178 4.42457 1.99762C3.49224 2.81724 2.89069 3.94865 2.73259 5.17992C2.03873 5.34638 1.43015 5.76181 1.02237 6.34735C0.614585 6.93289 0.435995 7.64778 0.5205 8.3563C0.605004 9.06483 0.946721 9.71766 1.48078 10.1909C2.01484 10.6641 2.70406 10.9247 3.4176 10.9233H5.86616L5.91014 10.9016C5.65345 10.5001 5.49379 10.0443 5.44381 9.5704C5.39383 9.09647 5.4549 8.61741 5.62219 8.17118C5.78947 7.72495 6.05838 7.3238 6.4076 6.99953C6.75682 6.67526 7.17675 6.43676 7.63414 6.30294C8.09152 6.16913 8.57378 6.14366 9.04272 6.22856C9.51165 6.31347 9.95437 6.50641 10.3358 6.7921C10.7172 7.07779 11.0269 7.44838 11.2402 7.87451C11.4536 8.30064 11.5648 8.7706 11.565 9.24716C11.5672 9.82958 11.4001 10.4001 11.0841 10.8893C11.0997 10.8908 11.1147 10.8958 11.1281 10.904H13.2271C13.6913 10.9133 14.1515 10.8171 14.5731 10.6227C14.9948 10.4282 15.3667 10.1406 15.661 9.78144C16.223 9.06004 16.519 8.16684 16.499 7.25254C16.4995 6.7739 16.4056 6.29986 16.2226 5.85757C16.0397 5.41527 15.7713 5.0134 15.4328 4.67495C15.0944 4.3365 14.6925 4.06812 14.2502 3.88516C13.8079 3.70221 13.3339 3.60827 12.8552 3.60874C12.6945 3.60739 12.5338 3.61719 12.3743 3.63806C11.9635 2.75707 11.3099 2.01151 10.4903 1.4888C9.67073 0.96609 8.71909 0.687912 7.747 0.68689L7.79744 0.727357ZM8.51881 9.10816C8.49806 9.10695 8.47729 9.11003 8.45778 9.1172C8.43828 9.12438 8.42046 9.13549 8.40544 9.14985C8.39041 9.16421 8.37851 9.18151 8.37047 9.20068C8.36243 9.21984 8.35842 9.24046 8.3587 9.26124C8.35822 9.28147 8.36185 9.30159 8.36937 9.32038C8.37689 9.33917 8.38815 9.35624 8.40246 9.37055C8.41677 9.38486 8.43384 9.39612 8.45263 9.40364C8.47142 9.41116 8.49154 9.41479 8.51177 9.41431C8.53238 9.41401 8.55273 9.40961 8.57163 9.40137C8.59052 9.39313 8.60759 9.38121 8.62183 9.36631C8.63608 9.35141 8.64722 9.33382 8.6546 9.31457C8.66199 9.29533 8.66547 9.2748 8.66484 9.2542C8.66438 9.21188 8.64737 9.17142 8.61744 9.14149C8.58751 9.11156 8.54706 9.09455 8.50473 9.09409L8.51881 9.10816Z" fill="#F7F2EC"/>
</svg>
