<svg xmlns="http://www.w3.org/2000/svg" width="27.274" height="21.534" viewBox="0 0 27.274 21.534">
  <g id="cloud_user" data-name="cloud user" transform="translate(-0.99 -3.44)">
    <path id="Path_119867" data-name="Path 119867" d="M9.11,15.991a3.989,3.989,0,1,1,6.1,3.367,9.077,9.077,0,0,1,3.566,1.553L17.3,22.9a7.171,7.171,0,0,0-4.225-1.292,7.2,7.2,0,0,0-4.225,1.28l-1.479-2a8.939,8.939,0,0,1,3.566-1.566A3.993,3.993,0,0,1,9.06,15.929Z" transform="translate(1.548 2.074)" fill="#2d6759" fill-rule="evenodd"/>
    <path id="Path_119868" data-name="Path 119868" d="M13.428,3.515a8.7,8.7,0,0,0-8.636,7.592A4.965,4.965,0,0,0,5.96,20.9h4.175l.075-.037a5.233,5.233,0,1,1,9.642-2.821,5.124,5.124,0,0,1-.82,2.8.177.177,0,0,1,.075.025h3.579a5.229,5.229,0,0,0,4.15-1.914,6.775,6.775,0,0,0,1.429-4.312,6.207,6.207,0,0,0-6.213-6.213,5.934,5.934,0,0,0-.82.05,8.716,8.716,0,0,0-7.89-5.032Zm1.23,14.29a.258.258,0,0,0-.273.261.255.255,0,0,0,.261.261.265.265,0,0,0,.261-.273.276.276,0,0,0-.273-.273Z" transform="translate(0 0)" fill="#2d6759" fill-rule="evenodd"/>
  </g>
</svg>
