<svg width="22" height="16" viewBox="0 0 22 16" fill="none" xmlns="http://www.w3.org/2000/svg">
<path fill-rule="evenodd" clip-rule="evenodd" d="M1.1734e-05 8.00729C1.1734e-05 6.4265 0.468772 4.8812 1.34701 3.56682C2.22526 2.25244 3.47354 1.228 4.934 0.623056C6.39447 0.0181115 8.00152 -0.140169 9.55194 0.168228C11.1024 0.476626 12.5265 1.23785 13.6443 2.35564C14.7621 3.47343 15.5233 4.89759 15.8317 6.44801C16.1401 7.99843 15.9818 9.60548 15.3769 11.0659C14.7719 12.5264 13.7475 13.7747 12.4331 14.6529C11.1187 15.5312 9.57345 15.9999 7.99265 15.9999C6.94254 16.0017 5.9024 15.7962 4.93187 15.3952C3.96135 14.9942 3.07953 14.4055 2.33699 13.663C1.59444 12.9204 1.00578 12.0386 0.604747 11.0681C0.203718 10.0976 -0.00178914 9.05741 1.1734e-05 8.00729ZM9.3209 10.6701V5.34133H6.65809V10.668L9.3209 10.6701Z" fill="#2F4F4F"/>
<path fill-rule="evenodd" clip-rule="evenodd" d="M13.9709 2.71671C15.2598 4.17138 15.9703 6.04831 15.9677 7.99182C15.9652 9.93533 15.2499 11.8104 13.9572 13.2617C15.244 13.0969 16.4264 12.4682 17.2827 11.4936C18.1389 10.519 18.6101 9.26548 18.6079 7.96819C18.6057 6.67091 18.1303 5.419 17.2707 4.44731C16.4112 3.47562 15.2267 2.85092 13.9394 2.69041L13.9709 2.71671ZM10.1092 0.665963C11.1158 0.218214 12.2067 -0.00877674 13.3084 0.000259574C14.497 0.000521692 15.6705 0.265876 16.7436 0.776997C17.8167 1.28812 18.7623 2.03214 19.5115 2.95487C20.2607 3.8776 20.7947 4.95582 21.0745 6.111C21.3544 7.26617 21.3731 8.46922 21.1293 9.63254C20.8854 10.7959 20.3852 11.8901 19.665 12.8357C18.9449 13.7813 18.0229 14.5543 16.9662 15.0985C15.9095 15.6427 14.7447 15.9444 13.5567 15.9816C12.3687 16.0188 11.1874 15.7906 10.0987 15.3135C9.86188 15.2088 9.66038 15.0379 9.51847 14.8213C9.37656 14.6047 9.30029 14.3517 9.29885 14.0928C9.2974 13.8338 9.37084 13.58 9.51033 13.3618C9.64981 13.1437 9.84939 12.9705 10.085 12.8632C11.0362 12.4476 11.8454 11.7634 12.4132 10.8944C12.9809 10.0254 13.2826 9.0096 13.2812 7.97159C13.2797 6.93359 12.9752 5.9186 12.405 5.05123C11.8348 4.18386 11.0237 3.50188 10.0714 3.08899C9.83453 2.98428 9.63304 2.81333 9.49113 2.59675C9.34922 2.38016 9.27295 2.12716 9.27151 1.86823C9.27006 1.6093 9.3435 1.35547 9.48298 1.13731C9.62247 0.919154 9.82204 0.745971 10.0577 0.63862L10.1092 0.665963Z" fill="#2F4F4F"/>
</svg>
