<svg width="21" height="16" viewBox="0 0 21 16" fill="none" xmlns="http://www.w3.org/2000/svg">
<path fill-rule="evenodd" clip-rule="evenodd" d="M1.11576e-05 7.61368C1.11576e-05 6.11054 0.445743 4.64116 1.28084 3.39134C2.11594 2.14153 3.3029 1.16742 4.69162 0.592191C6.08034 0.0169649 7.60844 -0.133541 9.0827 0.159707C10.557 0.452955 11.9111 1.17678 12.974 2.23966C14.0369 3.30254 14.7607 4.65673 15.054 6.13099C15.3472 7.60524 15.1967 9.13335 14.6215 10.5221C14.0463 11.9108 13.0722 13.0977 11.8223 13.9328C10.5725 14.7679 9.10315 15.2137 7.60001 15.2137C6.60148 15.2154 5.61244 15.02 4.68959 14.6386C3.76674 14.2573 2.92825 13.6976 2.22218 12.9915C1.51611 12.2854 0.956368 11.4469 0.575039 10.5241C0.19371 9.60125 -0.00170125 8.6122 1.11576e-05 7.61368ZM8.86301 10.1457V5.07867H6.33101V10.1437L8.86301 10.1457Z" fill="#F6F2ED"/>
<path fill-rule="evenodd" clip-rule="evenodd" d="M13.283 2.58325C14.5086 3.96646 15.1841 5.75118 15.1818 7.59922C15.1794 9.44725 14.4991 11.2302 13.27 12.6102C14.4936 12.4535 15.6179 11.8557 16.4321 10.929C17.2462 10.0022 17.6943 8.81031 17.6922 7.57675C17.6901 6.3432 17.238 5.15279 16.4207 4.22883C15.6034 3.30488 14.4771 2.71087 13.253 2.55825L13.283 2.58325ZM9.61103 0.633247C10.5682 0.207494 11.6055 -0.00834558 12.653 0.000246822C13.7832 0.000496064 14.8991 0.252815 15.9195 0.738827C16.9399 1.22484 17.839 1.93231 18.5514 2.80971C19.2638 3.68712 19.7716 4.71236 20.0377 5.81079C20.3038 6.90922 20.3216 8.05317 20.0897 9.15934C19.8579 10.2655 19.3822 11.306 18.6974 12.2051C18.0126 13.1043 17.1359 13.8393 16.1311 14.3568C15.1264 14.8743 14.0188 15.1612 12.8892 15.1965C11.7595 15.2319 10.6362 15.0149 9.60103 14.5612C9.37584 14.4617 9.18424 14.2991 9.04931 14.0932C8.91437 13.8872 8.84185 13.6467 8.84047 13.4005C8.8391 13.1542 8.90893 12.9129 9.04156 12.7054C9.17419 12.498 9.36397 12.3333 9.58802 12.2312C10.4925 11.8361 11.2619 11.1855 11.8018 10.3592C12.3417 9.53294 12.6285 8.567 12.6272 7.57999C12.6258 6.59297 12.3362 5.62784 11.794 4.80309C11.2518 3.97833 10.4806 3.32985 9.57503 2.93725C9.34984 2.83768 9.15824 2.67513 9.02331 2.46918C8.88837 2.26323 8.81585 2.02267 8.81447 1.77645C8.8131 1.53024 8.88293 1.28888 9.01556 1.08144C9.14819 0.874001 9.33797 0.709325 9.56202 0.607247L9.61103 0.633247Z" fill="#F6F2ED"/>
</svg>
