<svg xmlns="http://www.w3.org/2000/svg" width="24.521" height="22" viewBox="0 0 24.521 22">
  <g id="Mortarboard" opacity="0.275">
    <g id="Group_42209" data-name="Group 42209" transform="translate(0 0)">
      <path id="Path_27699" data-name="Path 27699" d="M21.033,12v4.1a2.185,2.185,0,0,1-.969,1.815,12.843,12.843,0,0,1-7.1,2.146,12.94,12.94,0,0,1-7.1-2.158,2.136,2.136,0,0,1-.956-1.8V12.012l1.839.809,4.965,2.219a2.108,2.108,0,0,0,.7.2,2.908,2.908,0,0,0,1.079.012,2.471,2.471,0,0,0,.723-.208l4.978-2.219Z" transform="translate(-1.342 -0.998)" fill="#658F82"/>
      <path id="Path_27700" data-name="Path 27700" d="M26.521,20.331A2.173,2.173,0,0,1,25.258,22.3v1.8a.92.92,0,1,1-1.839,0V22.3a2.174,2.174,0,0,1,0-3.948V11.515l-1.729.772-1.839.821-4.978,2.219a2.471,2.471,0,0,1-.723.208,2.908,2.908,0,0,1-1.079-.012,2.107,2.107,0,0,1-.7-.2L7.407,13.109,5.568,12.3l-2.133-.956A2.258,2.258,0,0,1,2,9.308,2.274,2.274,0,0,1,3.434,7.261l8.95-3.985a3.238,3.238,0,0,1,2.464-.012l8.975,4a2.274,2.274,0,0,1,1.434,2.048v9.048A2.173,2.173,0,0,1,26.521,20.331Z" transform="translate(-2 -3.026)" fill="#658F82"/>
    </g>
  </g>
</svg>
