<svg id="coldcard" xmlns="http://www.w3.org/2000/svg" width="11.133" height="18.941" viewBox="0 0 11.133 18.941">
  <path id="Path_25656" data-name="Path 25656" d="M11.107,9.519c0,2.627,0,5.253,0,7.88,0,1.209-.335,1.537-1.536,1.538q-4.033,0-8.067,0c-1.131,0-1.476-.347-1.479-1.5Q0,9.555,0,1.675C0,.3.317,0,1.7,0Q5.639,0,9.58,0c1.189,0,1.54.337,1.546,1.546.013,2.657,0,5.315,0,7.972h-.023m-.555,3.191c0-1.636-.024-3.273.013-4.909.013-.575-.163-.735-.731-.729-2.84.027-5.682.032-8.522,0-.65-.008-.75.239-.746.808q.035,4.77,0,9.54c-.006.711.223.987.961.978q4.029-.048,8.059,0c.72.008.995-.231.978-.961-.037-1.574-.011-3.149-.012-4.723M4.318,5.541H5.43c1.873,0,1.86,0,1.727-1.856-.028-.388-.127-.54-.535-.535-1.482.018-2.964.014-4.447,0-.37,0-.528.066-.555.5-.12,1.9-.139,1.895,1.771,1.894h.926" transform="translate(0 0)" fill="#24292f"/>
  <path id="Path_25657" data-name="Path 25657" d="M9.591,56.863c-.446-.1-.761-.318-.748-.81a.766.766,0,1,1,1.528.059c-.031.49-.354.681-.78.75" transform="translate(-7.201 -45.012)" fill="#24292f"/>
  <path id="Path_25658" data-name="Path 25658" d="M44.385,56.354c-.01.22-.314.485-.755.488a.708.708,0,0,1-.762-.757.722.722,0,0,1,.808-.8c.433.023.733.31.709,1.074" transform="translate(-34.908 -45.014)" fill="#24292f"/>
  <path id="Path_25659" data-name="Path 25659" d="M43.655,69.626c-.439-.05-.777-.231-.8-.726a.713.713,0,0,1,.772-.829.7.7,0,0,1,.751.758c.015.492-.276.717-.727.8" transform="translate(-34.899 -55.431)" fill="#24292f"/>
  <path id="Path_25660" data-name="Path 25660" d="M10.394,43.4a.721.721,0,0,1-.751.769.7.7,0,0,1-.782-.729.706.706,0,0,1,.785-.814.719.719,0,0,1,.747.773" transform="translate(-7.216 -34.708)" fill="#24292f"/>
  <path id="Path_25661" data-name="Path 25661" d="M27.4,68.88a.714.714,0,0,1-.779.724.7.7,0,0,1-.751-.758.708.708,0,0,1,.817-.784c.476.025.7.334.713.818" transform="translate(-21.064 -55.422)" fill="#24292f"/>
  <path id="Path_25662" data-name="Path 25662" d="M9.555,67.963c.5.044.805.264.83.745a.708.708,0,0,1-.787.813.692.692,0,0,1-.738-.767.759.759,0,0,1,.7-.791" transform="translate(-7.215 -55.343)" fill="#24292f"/>
  <path id="Path_25663" data-name="Path 25663" d="M26.645,44.2a.75.75,0,0,1-.8-.725.692.692,0,0,1,.678-.822.7.7,0,0,1,.849.744.75.75,0,0,1-.73.8" transform="translate(-21.045 -34.733)" fill="#24292f"/>
  <path id="Path_25664" data-name="Path 25664" d="M43.62,42.548a.739.739,0,0,1,.765.752.765.765,0,1,1-1.529.019c0-.482.3-.715.764-.771" transform="translate(-34.898 -34.647)" fill="#24292f"/>
  <path id="Path_25665" data-name="Path 25665" d="M26.6,55.185c.435.08.758.284.768.773a.767.767,0,1,1-1.532.012c.011-.488.323-.7.764-.784" transform="translate(-21.039 -44.938)" fill="#24292f"/>
  <path id="Path_25666" data-name="Path 25666" d="M26.62,80.858a.764.764,0,1,1-.034,1.526.687.687,0,0,1-.722-.776.7.7,0,0,1,.756-.75" transform="translate(-21.062 -65.844)" fill="#24292f"/>
  <path id="Path_25667" data-name="Path 25667" d="M44.4,81.649c-.054.506-.3.775-.779.767a.7.7,0,0,1-.752-.832.686.686,0,0,1,.808-.682.714.714,0,0,1,.723.747" transform="translate(-34.91 -65.878)" fill="#24292f"/>
  <path id="Path_25668" data-name="Path 25668" d="M9.648,80.868a.7.7,0,0,1,.751.739.686.686,0,0,1-.711.782.7.7,0,0,1-.807-.777c0-.479.288-.715.768-.745" transform="translate(-7.232 -65.852)" fill="#24292f"/>
</svg>
