<svg width="23" height="41" viewBox="0 0 23 41" fill="none" xmlns="http://www.w3.org/2000/svg">
<path d="M20.6673 0H2.12254C0.98454 0 0.0620117 0.922528 0.0620117 2.06052V38.8059C0.0620117 39.9439 0.98454 40.8664 2.12254 40.8664H20.6673C21.8053 40.8664 22.7278 39.9439 22.7278 38.8059V2.06052C22.7278 0.922528 21.8053 0 20.6673 0Z" fill="#2D6759"/>
<path d="M11.1773 6.5015H3.20311C2.63412 6.5015 2.17285 6.96276 2.17285 7.53176V10.5731C2.17285 11.1421 2.63412 11.6034 3.20311 11.6034H11.1773C11.7463 11.6034 12.2076 11.1421 12.2076 10.5731V7.53176C12.2076 6.96276 11.7463 6.5015 11.1773 6.5015Z" fill="#F7F2EC"/>
<path d="M19.9812 14.6689H2.46679C1.89779 14.6689 1.43652 15.1301 1.43652 15.6991V38.1177C1.43652 38.6867 1.89779 39.1479 2.46679 39.1479H19.9812C20.5502 39.1479 21.0115 38.6867 21.0115 38.1177V15.6991C21.0115 15.1301 20.5502 14.6689 19.9812 14.6689Z" fill="#F7F2EC"/>
<path d="M11.1418 17.4904H11.1398C10.1918 17.4904 9.42334 18.2588 9.42334 19.2068V19.5509C9.42334 20.4988 10.1918 21.2673 11.1398 21.2673H11.1418C12.0898 21.2673 12.8582 20.4988 12.8582 19.5509V19.2068C12.8582 18.2588 12.0898 17.4904 11.1418 17.4904Z" fill="#2D6759"/>
<path d="M11.1418 27.793H11.1398C10.1918 27.793 9.42334 28.5615 9.42334 29.5094V29.8535C9.42334 30.8015 10.1918 31.5699 11.1398 31.5699H11.1418C12.0898 31.5699 12.8582 30.8015 12.8582 29.8535V29.5094C12.8582 28.5615 12.0898 27.793 11.1418 27.793Z" fill="#2D6759"/>
<path d="M11.1418 32.9443H11.1398C10.1918 32.9443 9.42334 33.7127 9.42334 34.6607V35.0048C9.42334 35.9528 10.1918 36.7212 11.1398 36.7212H11.1418C12.0898 36.7212 12.8582 35.9528 12.8582 35.0048V34.6607C12.8582 33.7127 12.0898 32.9443 11.1418 32.9443Z" fill="#2D6759"/>
<path d="M11.1418 22.6416H11.1398C10.1918 22.6416 9.42334 23.4101 9.42334 24.358V24.7022C9.42334 25.6501 10.1918 26.4186 11.1398 26.4186H11.1418C12.0898 26.4186 12.8582 25.6501 12.8582 24.7022V24.358C12.8582 23.4101 12.0898 22.6416 11.1418 22.6416Z" fill="#2D6759"/>
<path d="M16.2937 17.4904H16.2916C15.3437 17.4904 14.5752 18.2588 14.5752 19.2068V19.5509C14.5752 20.4988 15.3437 21.2673 16.2916 21.2673H16.2937C17.2416 21.2673 18.0101 20.4988 18.0101 19.5509V19.2068C18.0101 18.2588 17.2416 17.4904 16.2937 17.4904Z" fill="#2D6759"/>
<path d="M16.2937 27.793H16.2916C15.3437 27.793 14.5752 28.5615 14.5752 29.5094V29.8535C14.5752 30.8015 15.3437 31.5699 16.2916 31.5699H16.2937C17.2416 31.5699 18.0101 30.8015 18.0101 29.8535V29.5094C18.0101 28.5615 17.2416 27.793 16.2937 27.793Z" fill="#2D6759"/>
<path d="M16.2937 32.9443H16.2916C15.3437 32.9443 14.5752 33.7127 14.5752 34.6607V35.0048C14.5752 35.9528 15.3437 36.7212 16.2916 36.7212H16.2937C17.2416 36.7212 18.0101 35.9528 18.0101 35.0048V34.6607C18.0101 33.7127 17.2416 32.9443 16.2937 32.9443Z" fill="#2D6759"/>
<path d="M16.2937 22.6416H16.2916C15.3437 22.6416 14.5752 23.4101 14.5752 24.358V24.7022C14.5752 25.6501 15.3437 26.4186 16.2916 26.4186H16.2937C17.2416 26.4186 18.0101 25.6501 18.0101 24.7022V24.358C18.0101 23.4101 17.2416 22.6416 16.2937 22.6416Z" fill="#2D6759"/>
<path d="M5.99045 17.4904H5.98839C5.04044 17.4904 4.27197 18.2588 4.27197 19.2068V19.5509C4.27197 20.4988 5.04044 21.2673 5.98839 21.2673H5.99045C6.9384 21.2673 7.70687 20.4988 7.70687 19.5509V19.2068C7.70687 18.2588 6.9384 17.4904 5.99045 17.4904Z" fill="#2D6759"/>
<path d="M5.99045 27.793H5.98839C5.04044 27.793 4.27197 28.5615 4.27197 29.5094V29.8535C4.27197 30.8015 5.04044 31.5699 5.98839 31.5699H5.99045C6.9384 31.5699 7.70687 30.8015 7.70687 29.8535V29.5094C7.70687 28.5615 6.9384 27.793 5.99045 27.793Z" fill="#2D6759"/>
<path d="M5.99045 32.9443H5.98839C5.04044 32.9443 4.27197 33.7127 4.27197 34.6607V35.0048C4.27197 35.9528 5.04044 36.7212 5.98839 36.7212H5.99045C6.9384 36.7212 7.70687 35.9528 7.70687 35.0048V34.6607C7.70687 33.7127 6.9384 32.9443 5.99045 32.9443Z" fill="#2D6759"/>
<path d="M5.99045 22.6416H5.98839C5.04044 22.6416 4.27197 23.4101 4.27197 24.358V24.7022C4.27197 25.6501 5.04044 26.4186 5.98839 26.4186H5.99045C6.9384 26.4186 7.70687 25.6501 7.70687 24.7022V24.358C7.70687 23.4101 6.9384 22.6416 5.99045 22.6416Z" fill="#2D6759"/>
</svg>
