<svg xmlns="http://www.w3.org/2000/svg" xmlns:xlink="http://www.w3.org/1999/xlink" width="39.176" height="36" viewBox="0 0 39.176 36">
  <defs>
    <linearGradient id="linear-gradient" x1="0.157" y1="0.247" x2="0.87" y2="0.724" gradientUnits="objectBoundingBox">
      <stop offset="0" stop-color="#00836a"/>
      <stop offset="1" stop-color="#073e39"/>
    </linearGradient>
  </defs>
  <g id="coldcard" transform="translate(-44 -384)">
    <path id="hexagontile3" d="M21.819,0a5,5,0,0,1,4.327,2.495l5.339,9.222a5,5,0,0,1,0,5.01L26.146,25.95a5,5,0,0,1-4.327,2.495h-10.7A5,5,0,0,1,6.79,25.95L1.45,16.728a5,5,0,0,1,0-5.01L6.79,2.495A5,5,0,0,1,11.117,0Z" transform="matrix(0.966, 0.259, -0.259, 0.966, 51.362, 384)" fill="url(#linear-gradient)"/>
    <g id="Group_38041" data-name="Group 38041" transform="translate(16.66 -193.4)">
      <path id="Path_16088" data-name="Path 16088" d="M738.741-1034.51l-.867-1.1h-1.924l-.622.637v4.267l.622.554h1.924l1.014-1.142s.725-.1,1.043.22.23,1.07.23,1.07l-1.421,1.832h-3.412l-1.949-1.832v-5.726l1.949-1.751h3.412l1.19,1.5a1.117,1.117,0,0,1-.143,1.011A2.077,2.077,0,0,1,738.741-1034.51Z" transform="translate(-693.799 1628.23)" fill="#fffcfa"/>
      <path id="Path_16089" data-name="Path 16089" d="M738.741-1034.51l-.867-1.1h-1.924l-.622.637v4.267l.622.554h1.924l1.014-1.142s.725-.1,1.043.22.23,1.07.23,1.07l-1.421,1.832h-3.412l-1.949-1.832v-5.726l1.949-1.751h3.412l1.19,1.5a1.117,1.117,0,0,1-.143,1.011A2.077,2.077,0,0,1,738.741-1034.51Z" transform="translate(-685.899 1628.23)" fill="#fffcfa"/>
    </g>
  </g>
</svg>
