<svg width="124" height="132" viewBox="0 0 124 132" fill="none" xmlns="http://www.w3.org/2000/svg">
<path opacity="0.4" d="M120.575 45.9952C120.434 45.9601 120.312 45.8727 120.234 45.7507C120.155 45.6287 120.126 45.4813 120.153 45.3386C120.179 45.1959 120.259 45.0686 120.375 44.9827C120.492 44.8968 120.637 44.8587 120.781 44.8762C120.925 44.8937 121.056 44.9654 121.149 45.0768C121.242 45.1882 121.289 45.3309 121.28 45.4758C121.272 45.6206 121.208 45.7568 121.103 45.8564C120.998 45.9561 120.859 46.0118 120.714 46.0121C120.667 46.0123 120.62 46.0066 120.575 45.9952ZM122.329 43.9119C122.329 43.7464 122.378 43.5847 122.47 43.4471C122.562 43.3095 122.692 43.2022 122.845 43.1389C122.998 43.0756 123.165 43.059 123.327 43.0913C123.489 43.1236 123.638 43.2033 123.755 43.3203C123.872 43.4373 123.951 43.5864 123.984 43.7487C124.016 43.911 123.999 44.0792 123.936 44.2321C123.873 44.385 123.766 44.5157 123.629 44.6076C123.491 44.6996 123.33 44.7486 123.165 44.7486C123.055 44.7486 122.946 44.727 122.845 44.6849C122.744 44.6429 122.652 44.5813 122.574 44.5036C122.417 44.3467 122.329 44.1338 122.329 43.9119ZM119.896 25.207C119.897 24.9973 119.959 24.7923 120.075 24.618C120.192 24.4437 120.357 24.3079 120.551 24.2278C120.744 24.1477 120.957 24.1269 121.163 24.168C121.368 24.2091 121.556 24.3103 121.704 24.4588C121.852 24.6073 121.953 24.7963 121.993 25.0021C122.034 25.2079 122.013 25.4211 121.933 25.6148C121.852 25.8085 121.717 25.974 121.542 26.0904C121.368 26.2068 121.163 26.2688 120.954 26.2686C120.815 26.2686 120.677 26.2411 120.549 26.1877C120.42 26.1343 120.304 26.0561 120.206 25.9575C120.107 25.8589 120.029 25.7419 119.976 25.6131C119.923 25.4843 119.896 25.3463 119.896 25.207Z" fill="url(#paint0_linear_1586_11156)"/>
<path opacity="0.4" d="M114.256 44.7473C119.636 44.7473 123.998 40.3776 123.998 34.9874C123.998 29.5972 119.636 25.2275 114.256 25.2275C108.876 25.2275 104.515 29.5972 104.515 34.9874C104.515 40.3776 108.876 44.7473 114.256 44.7473Z" fill="url(#paint1_linear_1586_11156)"/>
<path opacity="0.4" d="M26.3271 126.076C40.8671 126.076 52.6541 114.267 52.6541 99.6997C52.6541 85.1324 40.8671 73.3232 26.3271 73.3232C11.787 73.3232 0 85.1324 0 99.6997C0 114.267 11.787 126.076 26.3271 126.076Z" fill="url(#paint2_linear_1586_11156)"/>
<path opacity="0.4" d="M19.0508 129.74C19.0508 129.294 19.1831 128.857 19.4309 128.485C19.6787 128.114 20.0309 127.824 20.443 127.653C20.8551 127.482 21.3085 127.437 21.746 127.525C22.1834 127.612 22.5852 127.827 22.9006 128.143C23.216 128.459 23.4308 128.861 23.5178 129.3C23.6048 129.738 23.5602 130.192 23.3895 130.605C23.2188 131.018 22.9298 131.371 22.5589 131.619C22.188 131.867 21.752 132 21.306 132C20.7079 132 20.1343 131.762 19.7114 131.338C19.2884 130.914 19.0508 130.34 19.0508 129.74ZM26.9384 129.849C26.9384 129.544 27.0288 129.245 27.1981 128.992C27.3673 128.738 27.608 128.54 27.8894 128.423C28.1709 128.306 28.4807 128.276 28.7795 128.336C29.0782 128.395 29.3527 128.542 29.568 128.758C29.7834 128.974 29.93 129.249 29.9893 129.548C30.0486 129.848 30.018 130.158 29.9013 130.44C29.7845 130.722 29.587 130.963 29.3336 131.132C29.0802 131.302 28.7823 131.392 28.4776 131.392C28.0693 131.392 27.6778 131.229 27.3892 130.94C27.1006 130.65 26.9384 130.258 26.9384 129.849ZM6.26465 73.96C6.26465 73.3931 6.43244 72.839 6.7468 72.3676C7.06116 71.8963 7.50797 71.5289 8.03073 71.3119C8.55349 71.095 9.12873 71.0382 9.68369 71.1488C10.2386 71.2594 10.7484 71.5324 11.1485 71.9333C11.5486 72.3341 11.8211 72.8448 11.9315 73.4008C12.0419 73.9568 11.9852 74.5332 11.7687 75.0569C11.5521 75.5806 11.1855 76.0283 10.715 76.3432C10.2445 76.6582 9.69139 76.8263 9.12555 76.8263C8.36679 76.8263 7.63911 76.5243 7.10259 75.9868C6.56606 75.4493 6.26465 74.7202 6.26465 73.96Z" fill="url(#paint3_linear_1586_11156)"/>
<path d="M39.7764 19.9739L39.7764 121.862C39.7764 124.61 41.9993 126.837 44.7415 126.837H105.241C107.983 126.837 110.206 124.61 110.206 121.862V19.9739C110.206 17.2266 107.983 14.9994 105.241 14.9994H44.7415C41.9993 14.9994 39.7764 17.2266 39.7764 19.9739Z" fill="#F6F2ED"/>
<path d="M40.5215 19.9739L40.5215 121.863C40.5215 124.198 42.411 126.091 44.7418 126.091H105.241C107.572 126.091 109.461 124.198 109.461 121.863V19.9739C109.461 17.6387 107.572 15.7457 105.241 15.7457H44.7418C42.411 15.7457 40.5215 17.6387 40.5215 19.9739Z" stroke="#272421" stroke-width="1.5"/>
<path d="M58.0002 61.2342H54.7887V62.7266H53.9854V58.7042H54.7887V60.1966H58.0002V61.2342Z" fill="#F6F2ED"/>
<path d="M54.4084 57.8357C54.0927 57.7043 53.9377 57.5372 53.9377 57.0467C53.9128 56.8811 53.9461 56.7119 54.032 56.5682C54.1179 56.4244 54.2509 56.315 54.4084 56.2588L57.9992 54.7505V55.8369L57.0817 56.1991V57.8904L57.9992 58.2525V59.335L54.4084 57.8357ZM56.3011 57.6436V56.4498L55.0301 56.9622C54.9645 56.986 54.901 57.0029 54.901 57.0467C54.901 57.0905 54.9635 57.1094 55.0271 57.1333L56.3011 57.6436Z" fill="#F6F2ED"/>
<path d="M58 54.5487H54.6038C54.5209 54.56 54.4366 54.5522 54.3572 54.5258C54.2778 54.4995 54.2055 54.4553 54.1458 54.3966C54.0861 54.3379 54.0406 54.2664 54.0127 54.1874C53.9849 54.1083 53.9754 54.024 53.9852 53.9408V51.8028C53.9852 50.9074 54.5422 50.7163 55.3446 50.7163C56.147 50.7163 56.716 50.9123 56.716 51.8028V53.514H58.0009L58 54.5487ZM55.9146 52.337C55.9146 51.9062 55.7478 51.7739 55.3466 51.7739C54.9454 51.7739 54.7865 51.9052 54.7865 52.337V53.2444C54.7865 53.4433 54.856 53.515 55.0566 53.515H55.9116L55.9146 52.337Z" fill="#F6F2ED"/>
<path d="M57.5585 50.055V47.8096C57.5585 47.5051 57.346 47.3838 56.9964 47.3838C56.7839 47.3838 56.5714 47.4295 56.4394 47.8315L55.9111 49.4233C55.8618 49.6405 55.7334 49.8315 55.5511 49.959C55.3687 50.0865 55.1455 50.1413 54.925 50.1127C54.7997 50.1307 54.672 50.1196 54.5516 50.0805C54.4312 50.0413 54.3214 49.9751 54.2306 49.8868C54.1397 49.7986 54.0702 49.6907 54.0274 49.5713C53.9846 49.452 53.9696 49.3245 53.9836 49.1984V47.0196H54.4186V49.1009C54.4186 49.4044 54.5625 49.5546 54.9349 49.5546C55.0574 49.5737 55.1826 49.5452 55.2848 49.4749C55.3871 49.4046 55.4587 49.2979 55.4851 49.1765L55.9895 47.6593C56.1683 47.1281 56.3669 46.8296 56.9974 46.8296C57.5426 46.8296 57.9964 47.0425 57.9964 47.6623V50.055H57.5585Z" fill="#F6F2ED"/>
<path d="M58.0002 46.2236H53.9854V45.6894H58.0002V46.2236Z" fill="#F6F2ED"/>
<path d="M57.4769 41.466C57.8492 41.466 57.9982 41.6501 57.9982 41.9953V43.4548C57.9982 44.7601 57.1094 45.0586 55.9903 45.0586C54.8712 45.0586 53.9834 44.7601 53.9834 43.3802V41.5586H54.4183V43.2011C54.4183 44.207 54.901 44.4995 55.9903 44.4995C57.0796 44.4995 57.5583 44.207 57.5583 43.2807V42.2639C57.5583 42.065 57.4888 42.0003 57.2882 42.0003H56.0936V41.466H57.4769Z" fill="#F6F2ED"/>
<path d="M57.5418 37.2076C57.6082 37.1993 57.6756 37.2058 57.7391 37.2269C57.8026 37.2479 57.8606 37.2828 57.9089 37.3291C57.9572 37.3754 57.9946 37.432 58.0184 37.4946C58.0422 37.5572 58.0517 37.6244 58.0463 37.6911C58.051 37.8006 58.0236 37.9091 57.9675 38.0031C57.9114 38.0972 57.829 38.1727 57.7305 38.2204L54.7028 40.1157C54.6353 40.1565 54.6045 40.1903 54.6045 40.2311C54.6045 40.254 54.6283 40.3117 54.7197 40.3117H57.9966V40.834H54.4158C54.3504 40.8383 54.2849 40.8282 54.2238 40.8044C54.1627 40.7807 54.1076 40.7438 54.0622 40.6964C54.0169 40.6489 53.9825 40.5922 53.9614 40.53C53.9403 40.4678 53.933 40.4018 53.9401 40.3365C53.9341 40.2313 53.9585 40.1266 54.0102 40.0349C54.062 39.9432 54.139 39.8683 54.2321 39.8192L57.2837 37.91C57.3293 37.8812 57.383 37.8573 57.383 37.8006C57.383 37.7439 57.3204 37.7309 57.2837 37.7309H53.9838V37.2086L57.5418 37.2076Z" fill="#F6F2ED"/>
<path d="M57.9992 35.8977C58.0104 35.9748 58.0034 36.0534 57.9787 36.1273C57.954 36.2011 57.9123 36.2682 57.8571 36.3229C57.8018 36.3777 57.7345 36.4187 57.6605 36.4427C57.5865 36.4666 57.508 36.4729 57.4312 36.4608H54.5514C54.1214 36.4608 53.9834 36.2479 53.9834 35.8977V33.4105H54.4183V35.6649C54.4183 35.8878 54.4879 35.9266 54.6884 35.9266H55.7262V33.4682H56.1611V35.9266H57.2842C57.4828 35.9266 57.5593 35.8858 57.5593 35.6629V33.3886H57.9942V35.8977H57.9992Z" fill="#F6F2ED"/>
<path d="M54.5921 32.8105C54.1621 32.8105 53.9854 32.5976 53.9854 32.2196V30.3571C53.9854 29.615 54.456 29.3802 55.2018 29.3802C55.9714 29.3802 56.4808 29.598 56.4808 30.2945V30.9431H56.5096L57.9992 29.2936V30.0069L56.5901 31.546C56.5598 31.5864 56.5218 31.6202 56.4783 31.6457C56.4348 31.6711 56.3867 31.6876 56.3368 31.6943H56.2455C56.1253 31.6943 56.0469 31.6077 56.0469 31.4525V30.4706C56.0469 29.9821 55.6914 29.9363 55.2038 29.9363C54.7162 29.9363 54.4223 30.0189 54.4223 30.5581V31.9888C54.4223 32.1738 54.4819 32.2763 54.6974 32.2763H58.0011V32.8105H54.5921Z" fill="#F6F2ED"/>
<path d="M46.7031 26.1683L46.7031 116.022C46.7031 118.357 48.5926 120.25 50.9235 120.25H99.5489C101.88 120.25 103.769 118.357 103.769 116.022V26.1683C103.769 23.8331 101.88 21.94 99.5489 21.94H50.9235C48.5926 21.94 46.7031 23.8331 46.7031 26.1683Z" stroke="#272421" stroke-width="1.5" stroke-dasharray="1.5 2"/>
<path d="M97.5941 24.207H52.5435C50.8982 24.207 49.5645 25.5433 49.5645 27.1917V113.366C49.5645 115.014 50.8982 116.351 52.5435 116.351H97.5941C99.2394 116.351 100.573 115.014 100.573 113.366V27.1917C100.573 25.5433 99.2394 24.207 97.5941 24.207Z" fill="#272421"/>
<path d="M72.9208 38.8633H58.2826C56.0889 38.8633 54.3105 40.645 54.3105 42.8428V46.3886C54.3105 48.5865 56.0889 50.3682 58.2826 50.3682H72.9208C75.1146 50.3682 76.8929 48.5865 76.8929 46.3886V42.8428C76.8929 40.645 75.1146 38.8633 72.9208 38.8633Z" fill="#F6F2ED"/>
<path d="M92.7367 57.2822H56.6274C54.4336 57.2822 52.6553 59.0639 52.6553 61.2618V108.498C52.6553 110.696 54.4336 112.478 56.6274 112.478H92.7367C94.9305 112.478 96.7088 110.696 96.7088 108.498V61.2618C96.7088 59.0639 94.9305 57.2822 92.7367 57.2822Z" fill="#F6F2ED"/>
<path d="M74.4938 63.6416H74.4928C72.3588 63.6416 70.6289 65.3748 70.6289 67.5127V68.2877C70.6289 70.4257 72.3588 72.1588 74.4928 72.1588H74.4938C76.6277 72.1588 78.3576 70.4257 78.3576 68.2877V67.5127C78.3576 65.3748 76.6277 63.6416 74.4938 63.6416Z" fill="#272421"/>
<path d="M74.4938 86.8711H74.4928C72.3588 86.8711 70.6289 88.6043 70.6289 90.7422V91.5172C70.6289 93.6552 72.3588 95.3883 74.4928 95.3883H74.4938C76.6277 95.3883 78.3576 93.6552 78.3576 91.5172V90.7422C78.3576 88.6043 76.6277 86.8711 74.4938 86.8711Z" fill="#272421"/>
<path d="M74.4938 98.4863H74.4928C72.3588 98.4863 70.6289 100.219 70.6289 102.357V103.132C70.6289 105.27 72.3588 107.004 74.4928 107.004H74.4938C76.6277 107.004 78.3576 105.27 78.3576 103.132V102.357C78.3576 100.219 76.6277 98.4863 74.4938 98.4863Z" fill="#272421"/>
<path d="M74.4938 75.2568H74.4928C72.3588 75.2568 70.6289 76.99 70.6289 79.128V79.903C70.6289 82.0409 72.3588 83.7741 74.4928 83.7741H74.4938C76.6277 83.7741 78.3576 82.0409 78.3576 79.903V79.128C78.3576 76.99 76.6277 75.2568 74.4938 75.2568Z" fill="#272421"/>
<path d="M86.0875 63.6416H86.0865C83.9526 63.6416 82.2227 65.3748 82.2227 67.5127V68.2877C82.2227 70.4257 83.9526 72.1588 86.0865 72.1588H86.0875C88.2215 72.1588 89.9514 70.4257 89.9514 68.2877V67.5127C89.9514 65.3748 88.2215 63.6416 86.0875 63.6416Z" fill="#272421"/>
<path d="M86.0875 86.8711H86.0865C83.9526 86.8711 82.2227 88.6043 82.2227 90.7422V91.5172C82.2227 93.6552 83.9526 95.3883 86.0865 95.3883H86.0875C88.2215 95.3883 89.9514 93.6552 89.9514 91.5172V90.7422C89.9514 88.6043 88.2215 86.8711 86.0875 86.8711Z" fill="#272421"/>
<path d="M86.0875 98.4863H86.0865C83.9526 98.4863 82.2227 100.219 82.2227 102.357V103.132C82.2227 105.27 83.9526 107.004 86.0865 107.004H86.0875C88.2215 107.004 89.9514 105.27 89.9514 103.132V102.357C89.9514 100.219 88.2215 98.4863 86.0875 98.4863Z" fill="#272421"/>
<path d="M86.0875 75.2568H86.0865C83.9526 75.2568 82.2227 76.99 82.2227 79.128V79.903C82.2227 82.0409 83.9526 83.7741 86.0865 83.7741H86.0875C88.2215 83.7741 89.9514 82.0409 89.9514 79.903V79.128C89.9514 76.99 88.2215 75.2568 86.0875 75.2568Z" fill="#272421"/>
<path d="M62.901 63.6416H62.9C60.766 63.6416 59.0361 65.3748 59.0361 67.5127V68.2877C59.0361 70.4257 60.766 72.1588 62.9 72.1588H62.901C65.0349 72.1588 66.7648 70.4257 66.7648 68.2877V67.5127C66.7648 65.3748 65.0349 63.6416 62.901 63.6416Z" fill="#272421"/>
<path d="M62.901 86.8711H62.9C60.766 86.8711 59.0361 88.6043 59.0361 90.7422V91.5172C59.0361 93.6552 60.766 95.3883 62.9 95.3883H62.901C65.0349 95.3883 66.7648 93.6552 66.7648 91.5172V90.7422C66.7648 88.6043 65.0349 86.8711 62.901 86.8711Z" fill="#272421"/>
<path d="M62.901 98.4863H62.9C60.766 98.4863 59.0361 100.219 59.0361 102.357V103.132C59.0361 105.27 60.766 107.004 62.9 107.004H62.901C65.0349 107.004 66.7648 105.27 66.7648 103.132V102.357C66.7648 100.219 65.0349 98.4863 62.901 98.4863Z" fill="#272421"/>
<path d="M62.901 75.2568H62.9C60.766 75.2568 59.0361 76.99 59.0361 79.128V79.903C59.0361 82.0409 60.766 83.7741 62.9 83.7741H62.901C65.0349 83.7741 66.7648 82.0409 66.7648 79.903V79.128C66.7648 76.99 65.0349 75.2568 62.901 75.2568Z" fill="#272421"/>
<path d="M42.5977 0.75C51.4772 0.750101 58.6758 7.9486 58.6758 16.8281C58.6757 25.7076 51.4771 32.9061 42.5977 32.9062C33.7181 32.9062 26.5196 25.7076 26.5195 16.8281C26.5195 7.94854 33.7181 0.75 42.5977 0.75Z" fill="url(#paint4_linear_1586_11156)" stroke="#F9F4F0" stroke-width="1.5"/>
<path d="M47.5746 11.792L39.9517 19.115L36.451 15.5152L34.6133 17.2122L39.0006 21.7251C39.1163 21.8442 39.2553 21.9396 39.4093 22.0057C39.5634 22.0718 39.7294 22.1074 39.8977 22.1102H39.9188C40.2511 22.11 40.5701 21.9823 40.8066 21.7548L49.3536 13.5485L47.5746 11.792Z" fill="#F6F2ED"/>
<defs>
<linearGradient id="paint0_linear_1586_11156" x1="121.948" y1="24.1475" x2="121.948" y2="46.0121" gradientUnits="userSpaceOnUse">
<stop stop-color="#58A4A4"/>
<stop offset="1" stop-color="#073E39"/>
</linearGradient>
<linearGradient id="paint1_linear_1586_11156" x1="114.256" y1="25.2275" x2="114.256" y2="44.7473" gradientUnits="userSpaceOnUse">
<stop stop-color="#58A4A4"/>
<stop offset="1" stop-color="#073E39"/>
</linearGradient>
<linearGradient id="paint2_linear_1586_11156" x1="26.3271" y1="73.3232" x2="26.3271" y2="126.076" gradientUnits="userSpaceOnUse">
<stop stop-color="#58A4A4"/>
<stop offset="1" stop-color="#073E39"/>
</linearGradient>
<linearGradient id="paint3_linear_1586_11156" x1="18.1417" y1="71.0938" x2="18.1417" y2="132" gradientUnits="userSpaceOnUse">
<stop stop-color="#58A4A4"/>
<stop offset="1" stop-color="#073E39"/>
</linearGradient>
<linearGradient id="paint4_linear_1586_11156" x1="42.5975" y1="0" x2="42.5975" y2="33.6558" gradientUnits="userSpaceOnUse">
<stop stop-color="#58A4A4"/>
<stop offset="1" stop-color="#073E39"/>
</linearGradient>
</defs>
</svg>
