<svg width="91" height="20" viewBox="0 0 91 20" fill="none" xmlns="http://www.w3.org/2000/svg">
<path d="M67.0784 9.29639C67.0784 7.78177 67.0678 6.26598 67.0784 4.75137C67.0866 3.79886 67.5147 3.35082 68.466 3.34024C69.9606 3.31672 71.4564 3.32731 72.951 3.34024C73.2037 3.31615 73.4575 3.37342 73.6754 3.5037C74.8008 4.51266 76.3048 5.30524 75.9885 7.20909C75.9498 7.45965 75.9498 7.71466 75.9885 7.96522C76.1131 8.57231 76.0522 9.20285 75.8135 9.7748C75.5748 10.3467 75.1695 10.8336 74.6503 11.172C74.1176 11.5483 74.0623 11.9046 74.6221 12.3303C74.9661 12.6108 75.2841 12.9217 75.5722 13.2593C75.7026 13.3657 75.8076 13.4998 75.8798 13.6518C75.9519 13.8039 75.9893 13.9701 75.9893 14.1383C75.9893 14.3066 75.9519 14.4728 75.8798 14.6248C75.8076 14.7768 75.7026 14.9109 75.5722 15.0173C75.4614 15.134 75.3273 15.2261 75.1786 15.2877C75.0299 15.3492 74.87 15.3788 74.7091 15.3746C74.5483 15.3704 74.3901 15.3324 74.2448 15.2632C74.0996 15.194 73.9705 15.095 73.8659 14.9727C73.0581 14.2142 72.2443 13.4545 71.507 12.629C71.0143 12.0775 70.4322 12.1986 69.8442 12.1951C69.5196 12.1951 69.5243 12.4303 69.5243 12.6584C69.5243 13.1288 69.5455 13.6062 69.5173 14.0778C69.4703 14.8468 69.0657 15.3548 68.2649 15.3337C68.0967 15.3422 67.9286 15.3135 67.7728 15.2496C67.617 15.1856 67.4772 15.088 67.3635 14.9637C67.2498 14.8395 67.1649 14.6916 67.115 14.5307C67.0651 14.3698 67.0514 14.1999 67.0748 14.0331C67.0748 12.455 67.0748 10.8769 67.0748 9.29874M69.522 7.73238V8.01579C69.522 9.7456 69.522 9.76559 71.2412 9.73384C71.7857 9.72325 72.3713 9.94198 72.8781 9.49865C73.2098 9.13195 73.4419 8.68634 73.5522 8.20439C73.6626 7.72244 73.6475 7.22024 73.5084 6.74577C73.3329 6.39335 73.0499 6.10589 72.7003 5.92494C72.3506 5.74398 71.9525 5.67892 71.5634 5.73916C69.5232 5.81207 69.5208 5.76151 69.5208 7.72886" fill="#D92B2B"/>
<path d="M77.6219 9.35416C77.6219 7.86895 77.6148 6.38373 77.6219 4.89969C77.6301 3.77902 78.0582 3.34275 79.1718 3.33216C80.5723 3.31923 81.974 3.34274 83.3746 3.32275C83.8818 3.32924 84.3692 3.52029 84.7457 3.86016C85.413 4.30982 85.9394 4.93914 86.264 5.67539C86.5886 6.41163 86.6983 7.22471 86.5802 8.02064C86.4933 9.40778 86.4819 10.7986 86.5461 12.187C86.3819 12.9331 86.0189 13.6208 85.4955 14.1773C84.9721 14.7338 84.3079 15.1383 83.5733 15.3479C82.0446 15.3985 80.5159 15.3891 78.9872 15.3479C78.0288 15.3256 77.6325 14.8776 77.6219 13.898C77.6066 12.3822 77.6219 10.8652 77.6219 9.34828M80.0702 9.33182V10.5595C80.0702 12.9714 80.0702 12.9714 82.4644 12.9455C82.6826 12.9696 82.9034 12.9449 83.1109 12.8731C83.3183 12.8014 83.5073 12.6844 83.6639 12.5306C83.8206 12.3769 83.9411 12.1902 84.0168 11.9841C84.0924 11.7781 84.1213 11.5578 84.1013 11.3391C84.1013 9.95389 84.1119 8.56863 84.1013 7.18337C84.0953 6.80888 83.9443 6.45133 83.68 6.18595C83.4157 5.92057 83.0588 5.76805 82.6843 5.76048C82.0188 5.74519 81.3496 5.78988 80.6852 5.74755C80.1549 5.71344 80.049 5.93687 80.0632 6.4049C80.0926 7.37975 80.0714 8.35696 80.0714 9.33299" fill="#D92C2C"/>
<path d="M35.2423 9.28007C35.2423 7.83014 35.2329 6.37903 35.2423 4.92909C35.2517 3.75903 35.6809 3.33922 36.858 3.33216C38.2245 3.32275 39.5909 3.34627 40.9562 3.32275C41.4938 3.32585 42.0114 3.52726 42.4096 3.88838C43.0622 4.32792 43.5771 4.94311 43.8949 5.66287C44.2126 6.38264 44.3202 7.17762 44.2053 7.95597C44.1003 9.37116 44.0924 10.7919 44.1818 12.2082C44.1748 12.741 43.9679 13.2518 43.6021 13.6393C43.1546 14.2933 42.5292 14.8055 41.7998 15.1154C41.0705 15.4253 40.2677 15.5198 39.4863 15.3879C38.6307 15.3259 37.7721 15.3185 36.9156 15.3656C35.6468 15.3491 35.2552 14.9681 35.247 13.7263C35.2364 12.2446 35.247 10.7629 35.247 9.28125M37.7047 9.28125V10.5078C37.7047 13.0149 37.7047 13.0149 40.2318 12.949C40.4257 12.9552 40.6189 12.9221 40.7996 12.8515C40.9803 12.7809 41.1449 12.6744 41.2833 12.5385C41.4217 12.4025 41.531 12.2398 41.6048 12.0604C41.6785 11.8809 41.7151 11.6884 41.7123 11.4944C41.7241 10.0472 41.7241 8.59999 41.7123 7.1528C41.7097 6.79389 41.5696 6.44964 41.3209 6.19087C41.0722 5.9321 40.7338 5.7785 40.3753 5.76166C39.6779 5.74167 38.9794 5.77812 38.2833 5.7499C37.8188 5.73108 37.6835 5.90983 37.6953 6.35433C37.7223 7.32919 37.7035 8.30404 37.7035 9.28007" fill="#D92C2C"/>
<path d="M14.5115 9.3133C14.5432 8.84332 14.5397 8.37162 14.5009 7.90217C14.3668 7.17378 14.4464 6.42217 14.73 5.73799C15.0135 5.05381 15.489 4.46628 16.099 4.04625C16.3288 3.81022 16.6053 3.62473 16.9108 3.50162C17.2164 3.37851 17.5442 3.32049 17.8735 3.33128C18.1889 3.37758 18.5094 3.37758 18.8248 3.33128C20.6734 2.96439 21.8917 3.91102 22.9712 5.21279C23.2627 5.54576 23.4191 5.97569 23.4098 6.41813C23.4016 8.37254 23.3969 10.327 23.4098 12.2814C23.3777 12.7789 23.1859 13.2527 22.863 13.6325C21.4119 15.7998 19.2387 15.4964 17.135 15.3071C16.1002 15.2142 14.5115 13.1175 14.5091 12.0662C14.5091 11.1525 14.5091 10.2376 14.5091 9.32388M16.9633 9.32388C16.9633 10.0812 16.9492 10.8373 16.9633 11.5946C16.9825 11.9535 17.1347 12.2924 17.3901 12.5452C17.6456 12.798 17.986 12.9467 18.345 12.9622C18.6978 12.9764 19.0447 12.9693 19.394 12.9622C19.6044 12.9772 19.8157 12.9468 20.0134 12.8732C20.2112 12.7996 20.3908 12.6845 20.5404 12.5357C20.6899 12.3868 20.8058 12.2076 20.8803 12.0102C20.9547 11.8128 20.986 11.6017 20.9721 11.3912C20.9776 10.0349 20.9776 8.67907 20.9721 7.3236C20.986 7.1129 20.9541 6.90168 20.8786 6.70448C20.8031 6.50728 20.6858 6.32878 20.5347 6.18126C20.3836 6.03375 20.2023 5.92072 20.0034 5.84996C19.8044 5.7792 19.5925 5.75238 19.3822 5.77136C19.0647 5.77136 18.7472 5.7643 18.4285 5.77136C18.2345 5.76529 18.0413 5.7991 17.8609 5.87071C17.6805 5.94232 17.5168 6.05019 17.3797 6.18765C17.2427 6.32512 17.1354 6.48924 17.0643 6.66987C16.9933 6.8505 16.9601 7.04378 16.9668 7.23776C16.9574 7.93156 16.9668 8.62537 16.9668 9.31918" fill="#D92A2A"/>
<path d="M65.404 10.9964C65.404 12.0077 65.404 13.0179 65.404 14.0292C65.4275 14.1962 65.4136 14.3663 65.3633 14.5272C65.3129 14.6882 65.2274 14.8359 65.1129 14.9597C64.9984 15.0835 64.8579 15.1803 64.7014 15.2431C64.5449 15.3059 64.3764 15.3331 64.2081 15.3227C64.0395 15.3364 63.8699 15.313 63.7114 15.254C63.5529 15.195 63.4092 15.102 63.2905 14.9814C63.1719 14.8609 63.0812 14.7157 63.0247 14.5563C62.9683 14.3968 62.9475 14.2269 62.9639 14.0586C62.9263 13.1437 62.9251 12.2253 62.9639 11.3104C62.9874 10.7589 62.864 10.4978 62.2372 10.5343C61.3786 10.5827 60.518 10.5827 59.6595 10.5343C59.0457 10.5014 58.901 10.7424 58.9257 11.3033C58.9681 12.2182 58.9481 13.1355 58.9351 14.0515C58.9422 14.2158 58.9157 14.3799 58.8573 14.5336C58.7988 14.6873 58.7097 14.8276 58.5953 14.9457C58.4809 15.0639 58.3437 15.1575 58.1919 15.2209C58.0402 15.2843 57.8771 15.3162 57.7127 15.3145C57.5482 15.3128 57.3858 15.2777 57.2354 15.2112C57.085 15.1447 56.9497 15.0483 56.8377 14.9278C56.7258 14.8073 56.6395 14.6653 56.5842 14.5104C56.529 14.3555 56.5058 14.191 56.5162 14.0268C56.5068 11.9736 56.5162 9.91927 56.5162 7.86607C56.5133 7.66096 56.5538 7.45755 56.6348 7.26911C56.7159 7.08067 56.8357 6.91144 56.9866 6.77245C57.9838 5.79641 58.9598 4.79804 59.9688 3.83259C60.0806 3.67296 60.2292 3.54262 60.4021 3.45264C60.5749 3.36266 60.767 3.31567 60.9619 3.31567C61.1568 3.31567 61.3488 3.36266 61.5216 3.45264C61.6945 3.54262 61.8431 3.67296 61.9549 3.83259C62.9169 4.75335 63.8365 5.7141 64.8054 6.63251C65.0166 6.82104 65.1814 7.05584 65.2869 7.31858C65.3924 7.58132 65.4356 7.86488 65.4134 8.14712C65.3805 9.09375 65.4052 10.0427 65.4052 10.9905M59.2327 8.13066H62.6923C61.2964 6.08334 61.1424 6.05983 59.5478 7.65205C59.4302 7.76965 59.2044 7.83903 59.2327 8.13066Z" fill="#D92828"/>
<path d="M45.9306 9.30344C45.9643 8.73583 45.9604 8.1666 45.9188 7.5995C45.8295 6.97623 45.9079 6.34042 46.146 5.75754C46.3842 5.17467 46.7733 4.6658 47.2735 4.28335C47.5769 3.94195 47.9568 3.67723 48.3821 3.51085C48.8075 3.34448 49.2661 3.28118 49.7206 3.32613C49.9413 3.36421 50.1668 3.36421 50.3874 3.32613C52.3383 2.89574 53.4625 4.11166 54.5526 5.37932C54.6624 5.48501 54.7486 5.61275 54.8055 5.75415C54.8624 5.89554 54.8888 6.04739 54.8828 6.19969C54.8768 6.35199 54.8386 6.50129 54.7707 6.63778C54.7029 6.77426 54.6069 6.89482 54.4891 6.99154C54.3857 7.10456 54.261 7.196 54.1221 7.26059C53.9832 7.32517 53.8329 7.36163 53.6799 7.36787C53.5268 7.3741 53.3741 7.34997 53.2304 7.29689C53.0867 7.24381 52.955 7.16281 52.8428 7.05857C52.5306 6.78966 52.2327 6.5047 51.9502 6.20484C51.4783 5.88185 50.9172 5.71435 50.3455 5.72574C49.7737 5.73712 49.2198 5.92682 48.7611 6.26834C48.6243 6.39534 48.5182 6.55169 48.4506 6.72563C48.3829 6.89957 48.3556 7.08658 48.3707 7.27259C48.3918 8.6308 48.3707 9.98902 48.3801 11.3472C48.3801 12.3762 48.968 12.876 50.0158 12.9759C50.4831 13.0422 50.9597 12.985 51.398 12.8101C51.8364 12.6351 52.2214 12.3485 52.5147 11.9787C53.2296 11.1638 53.8905 11.1332 54.4856 11.7082C55.0535 12.2574 54.8501 12.8371 54.2562 13.685C52.7793 15.7958 50.652 15.4736 48.5835 15.296C47.5452 15.2067 45.9353 13.1006 45.9318 12.0528C45.9318 11.1367 45.9318 10.2207 45.9318 9.30462" fill="#D92C2C"/>
<path d="M4.19151 9.31714C4.22645 8.78172 4.22252 8.24447 4.17975 7.70962C4.06518 7.04163 4.14146 6.35485 4.39983 5.72828C4.6582 5.10171 5.08816 4.56078 5.64027 4.16769C5.90724 3.88003 6.23477 3.65527 6.59921 3.50966C6.96364 3.36405 7.35588 3.30122 7.74756 3.32571C7.99943 3.36771 8.25652 3.36771 8.5084 3.32571C10.4217 2.90825 11.6188 3.98424 12.7159 5.28366C12.8359 5.38925 12.9324 5.51895 12.999 5.6643C13.0655 5.80965 13.1007 5.96739 13.1023 6.12725C13.1038 6.28711 13.0717 6.4455 13.008 6.59212C12.9442 6.73873 12.8503 6.87028 12.7324 6.97819C12.6246 7.10973 12.4882 7.21498 12.3337 7.28596C12.1791 7.35693 12.0104 7.39175 11.8404 7.38778C11.6704 7.38382 11.5035 7.34116 11.3524 7.26306C11.2013 7.18496 11.07 7.07346 10.9685 6.93703C10.6425 6.49312 10.2005 6.1477 9.69094 5.93878C9.1814 5.72986 8.6241 5.66552 8.08035 5.75286C7.70656 5.76618 7.35158 5.92016 7.08645 6.18399C6.82132 6.44781 6.66558 6.80202 6.65041 7.17575C6.63708 8.62686 6.63708 10.0772 6.65041 11.5267C6.66193 11.9012 6.81465 12.2574 7.07791 12.5239C7.34117 12.7905 7.69549 12.9476 8.06977 12.9637C8.58144 13.0526 9.10764 13.0011 9.59239 12.8148C10.0771 12.6284 10.5023 12.3141 10.8226 11.9054C10.9159 11.7441 11.0455 11.6069 11.2012 11.5046C11.3569 11.4023 11.5343 11.3377 11.7194 11.3161C11.9044 11.2946 12.0919 11.3165 12.267 11.3802C12.4421 11.4439 12.5998 11.5477 12.7277 11.6831C13.2592 12.2052 13.0805 12.8367 12.556 13.6081C11.0884 15.7636 8.93291 15.4826 6.82445 15.2921C5.77786 15.1968 4.19387 13.1166 4.19151 12.0547C4.19151 11.1398 4.19151 10.225 4.19151 9.31008" fill="#D92B2B"/>
<path d="M24.8269 9.38653C24.8269 7.87074 24.821 6.35612 24.8269 4.84033C24.8269 3.91252 25.3055 3.33748 26.0358 3.33631C26.766 3.33513 27.2741 3.91134 27.2788 4.82857C27.2929 7.25925 27.3058 9.69109 27.2682 12.1194C27.2576 12.7791 27.4434 12.9908 28.116 12.9661C29.4825 12.9167 30.8525 12.9449 32.2201 12.9543C33.1608 12.9614 33.7653 13.4247 33.7229 14.1503C33.6747 15.0028 33.1232 15.3603 32.3118 15.3627C30.2751 15.3709 28.2383 15.3862 26.1969 15.3556C25.2314 15.3415 24.8281 14.8935 24.8199 13.9304C24.8058 12.4146 24.8199 10.9 24.8199 9.38417" fill="#D92D2D"/>
<path d="M88.7523 15.051C88.6827 15.1377 88.6038 15.2166 88.5171 15.2862L88.4254 15.3615L88.7523 15.051Z" fill="#FDFAFA"/>
<path d="M1 14.957L4.64539 18.6025H86.3546L90 14.957V4.30301L86.3546 0.657593H4.64539L1 4.30301V14.957Z" stroke="#D92C2C"/>
</svg>
