<svg id="layout-ui-6" xmlns="http://www.w3.org/2000/svg" width="14" height="13" viewBox="0 0 20.167 20.167">
  <path id="Combined_Shape" data-name="Combined Shape" d="M12.816,20.167a.716.716,0,0,1-.716-.716V10.668a.716.716,0,0,1,.716-.716h6.635a.716.716,0,0,1,.716.716v8.783a.716.716,0,0,1-.716.716Zm-12.1,0A.716.716,0,0,1,0,19.451V14.964a.716.716,0,0,1,.716-.716H7.351a.716.716,0,0,1,.716.716v4.487a.716.716,0,0,1-.716.716Zm0-9.952A.716.716,0,0,1,0,9.5V.716A.716.716,0,0,1,.716,0H7.351a.716.716,0,0,1,.716.716V9.5a.716.716,0,0,1-.716.716Zm12.1-4.3A.716.716,0,0,1,12.1,5.2V.716A.716.716,0,0,1,12.816,0h6.635a.716.716,0,0,1,.716.716V5.2a.716.716,0,0,1-.716.716Z" fill="#FFF"/>
</svg>
