<svg width="205" height="166" viewBox="0 0 205 166" fill="none" xmlns="http://www.w3.org/2000/svg">
<path opacity="0.26" d="M93.5423 165.522C137.317 165.522 172.803 130.036 172.803 86.261C172.803 42.4864 137.317 7 93.5423 7C49.7676 7 14.2812 42.4864 14.2812 86.261C14.2812 130.036 49.7676 165.522 93.5423 165.522Z" fill="#073B36"/>
<path d="M7.81314 77.2371C9.3819 77.2371 10.6536 75.9654 10.6536 74.3966C10.6536 72.8279 9.3819 71.5562 7.81314 71.5562C6.24439 71.5562 4.97266 72.8279 4.97266 74.3966C4.97266 75.9654 6.24439 77.2371 7.81314 77.2371Z" fill="#508B82"/>
<path d="M4.97245 90.8746C6.21713 90.8746 7.22615 89.8656 7.22615 88.6209C7.22615 87.3762 6.21713 86.3672 4.97245 86.3672C3.72777 86.3672 2.71875 87.3762 2.71875 88.6209C2.71875 89.8656 3.72777 90.8746 4.97245 90.8746Z" fill="#508B82"/>
<path d="M31.5 44H24.5V51H31.5V44Z" fill="#235C50"/>
<path d="M30.315 54C24.6104 54 17.9333 50.0304 11.7101 42.867C4.93797 35.0666 1.89549 27.2661 3.36055 21.4635C3.42527 21.2061 3.56704 20.9747 3.76679 20.8004L8.89665 16.3195C9.15578 16.0933 9.49386 15.9795 9.83663 16.003C10.1794 16.0266 10.4988 16.1856 10.7247 16.4452L16.5374 23.1362C16.763 23.3961 16.8765 23.7351 16.853 24.0788C16.8295 24.4225 16.6709 24.7428 16.4121 24.9693L13.2097 27.7688C14.2322 31.1259 15.9525 34.2277 18.2572 36.8697C20.562 39.5117 23.3989 41.634 26.5811 43.0967L29.7532 40.3276C29.881 40.2141 30.0303 40.1276 30.1922 40.0732C30.354 40.0189 30.5252 39.9978 30.6953 40.0112C31.0376 40.0319 31.3577 40.1878 31.5856 40.4446L37.6792 47.4563C37.7916 47.5851 37.8775 47.7348 37.932 47.8969C37.9865 48.0591 38.0086 48.2304 37.997 48.4011C37.9853 48.5718 37.9402 48.7385 37.8642 48.8917C37.7881 49.0449 37.6827 49.1815 37.5539 49.2937L32.6617 53.5666C32.4735 53.7297 32.2424 53.835 31.9962 53.87C31.4398 53.955 30.8778 53.9985 30.315 54ZM5.78502 22.4819C4.79103 27.3658 7.70818 34.3039 13.6678 41.1596C19.7744 48.1887 26.1532 51.8809 31.2572 51.3522L34.8701 48.193L30.4793 43.14L27.6572 45.6059C27.4723 45.7676 27.2454 45.8735 27.0029 45.911C26.7604 45.9486 26.5122 45.9164 26.2872 45.8182C12.9634 39.9895 10.5778 28.0635 10.4827 27.5478C10.4426 27.3247 10.4614 27.0949 10.5372 26.8813C10.613 26.6677 10.7432 26.4776 10.9149 26.3301L13.7413 23.8643L9.63134 19.132L5.78502 22.4819Z" fill="#F6F2ED"/>
<path d="M51.7178 22.0738H40.2025C39.6166 22.0818 39.0574 22.3197 38.6453 22.7361C38.2333 23.1525 38.0016 23.7141 38 24.2998V30.3461C38 31.315 39.3313 35.4052 39.3313 35.4052L40.9509 33.7801L42.1779 32.5537H51.7669C52.3581 32.5537 52.9252 32.3194 53.3438 31.9021C53.7624 31.4848 53.9984 30.9187 54 30.3277V24.2998C53.9993 24.003 53.9393 23.7093 53.8237 23.436C53.708 23.1626 53.539 22.9151 53.3265 22.7078C53.114 22.5005 52.8622 22.3377 52.586 22.2288C52.3098 22.12 52.0146 22.0673 51.7178 22.0738Z" fill="#508B82" stroke="#F6F2ED" stroke-linecap="round" stroke-linejoin="round"/>
<path d="M43.4372 27.1821C43.4372 27.3887 43.3551 27.5867 43.209 27.7328C43.0629 27.8788 42.8647 27.9609 42.658 27.9609C42.4514 27.9609 42.2532 27.8788 42.1071 27.7328C41.961 27.5867 41.8789 27.3887 41.8789 27.1821C41.8789 26.9756 41.961 26.7775 42.1071 26.6314C42.2532 26.4854 42.4514 26.4033 42.658 26.4033C42.8647 26.4033 43.0629 26.4854 43.209 26.6314C43.3551 26.7775 43.4372 26.9756 43.4372 27.1821Z" fill="#F6F2ED"/>
<path d="M46.7396 27.1821C46.7405 27.2841 46.7211 27.3852 46.6826 27.4797C46.6441 27.5741 46.5873 27.66 46.5154 27.7324C46.4436 27.8048 46.3581 27.8623 46.2639 27.9015C46.1697 27.9407 46.0687 27.9609 45.9666 27.9609C45.76 27.9609 45.5618 27.8788 45.4157 27.7328C45.2696 27.5867 45.1875 27.3887 45.1875 27.1821C45.1875 26.9756 45.2696 26.7775 45.4157 26.6314C45.5618 26.4854 45.76 26.4033 45.9666 26.4033C46.0687 26.4033 46.1697 26.4235 46.2639 26.4627C46.3581 26.5019 46.4436 26.5594 46.5154 26.6318C46.5873 26.7042 46.6441 26.7901 46.6826 26.8845C46.7211 26.979 46.7405 27.0801 46.7396 27.1821Z" fill="#F6F2ED"/>
<path d="M50.0427 27.1821C50.0427 27.3887 49.9606 27.5867 49.8145 27.7328C49.6683 27.8788 49.4702 27.9609 49.2635 27.9609C49.0569 27.9609 48.8587 27.8788 48.7126 27.7328C48.5665 27.5867 48.4844 27.3887 48.4844 27.1821C48.4844 26.9756 48.5665 26.7775 48.7126 26.6314C48.8587 26.4854 49.0569 26.4033 49.2635 26.4033C49.4702 26.4033 49.6683 26.4854 49.8145 26.6314C49.9606 26.7775 50.0427 26.9756 50.0427 27.1821Z" fill="#F6F2ED"/>
<path d="M31.7443 10.942C30.9847 9.10337 29.526 7.64149 27.6887 6.87747C25.8513 6.11345 23.7856 6.10973 21.945 6.86713C20.1031 7.62965 18.6394 9.09233 17.8759 10.9333C17.1124 12.7744 17.1116 14.843 17.8738 16.6841C18.5983 18.4338 19.9579 19.8446 21.68 20.6336C23.402 21.4225 25.359 21.5312 27.1582 20.9378L29.2283 21.7951L31.6295 22.7897L31.29 20.2159L31.0045 18.0484C31.7094 17.0187 32.1463 15.8295 32.2755 14.5886C32.4047 13.3477 32.2221 12.0943 31.7443 10.942Z" fill="#2F4F4F" stroke="#F6F2ED" stroke-width="1.25" stroke-linejoin="round"/>
<g opacity="0.4">
<path d="M108 69.0001L140.499 46" stroke="#B2D0CB" stroke-width="2" stroke-dasharray="2 2"/>
<path d="M75.9985 69.0001L46.5355 48.1355" stroke="#B2D0CB" stroke-width="2" stroke-dasharray="2 2"/>
<path d="M112 98L144 121" stroke="#B2D0CB" stroke-width="2" stroke-dasharray="2 2"/>
<path d="M46.0002 125L78.9997 97.9998" stroke="#B2D0CB" stroke-width="2" stroke-dasharray="2 2"/>
</g>
<path d="M107.55 98H94.5033C91.6352 98.0013 88.8311 97.1518 86.4459 95.559C84.0607 93.9661 82.2016 91.7016 81.1039 89.0518C80.0061 86.4021 79.719 83.4863 80.2789 80.6733C80.8388 77.8604 82.2206 75.2767 84.2493 73.2493C86.2767 71.2206 88.8604 69.8388 91.6733 69.2789C94.4863 68.719 97.4021 69.0061 100.052 70.1039C102.702 71.2016 104.966 73.0607 106.559 75.4459C108.152 77.8311 109.001 80.6352 109 83.5033V96.5503C109 96.9348 108.847 97.3035 108.575 97.5754C108.304 97.8473 107.935 98 107.55 98ZM93.9009 87.8861C93.4281 87.8861 92.9661 88.0264 92.5731 88.2892C92.1801 88.5519 91.874 88.9254 91.6934 89.3622C91.5127 89.7991 91.4658 90.2797 91.5585 90.7433C91.6512 91.2068 91.8794 91.6324 92.2141 91.9662C92.5488 92.3 92.975 92.527 93.4388 92.6185C93.9026 92.7099 94.3831 92.6617 94.8195 92.4799C95.2558 92.2981 95.6285 91.991 95.8902 91.5973C96.1519 91.2036 96.2909 90.7411 96.2896 90.2684C96.2871 89.6363 96.0344 89.0308 95.5868 88.5844C95.1391 88.138 94.533 87.887 93.9009 87.8861ZM94.0861 79.1656C94.8496 79.1656 95.27 79.4877 95.27 80.0692C95.27 80.6507 94.7868 80.9809 94.1602 81.398C93.4226 81.789 92.812 82.3825 92.4002 83.1088C91.9885 83.835 91.7927 84.6637 91.8359 85.4974V85.9387H95.9191V85.6375C95.9191 84.6066 96.7084 84.067 97.6217 83.4405C98.3403 83.0934 98.9492 82.5547 99.3812 81.8836C99.8132 81.2126 100.052 80.4353 100.07 79.6375C100.073 79.0925 99.9519 78.554 99.7158 78.0628C99.4797 77.5716 99.1348 77.1406 98.7073 76.8026C97.5132 75.9454 96.0632 75.5194 94.5951 75.5945C93.4981 75.5543 92.4065 75.7673 91.4051 76.217C90.4036 76.6667 89.5193 77.3411 88.8206 78.1878L91.6732 80.4187C91.9687 80.0563 92.3351 79.7582 92.7501 79.5427C93.165 79.3271 93.6197 79.1988 94.0861 79.1656Z" fill="#F9F4F0"/>
<mask id="mask0_5258_12938" style="mask-type:luminance" maskUnits="userSpaceOnUse" x="144" y="15" width="61" height="40">
<path d="M204.571 15H144V55H204.571V15Z" fill="white"/>
</mask>
<g mask="url(#mask0_5258_12938)">
<path d="M205 17H149V52H205V17Z" fill="#2F4F4F"/>
<path d="M200.317 16.4951H148.254V48.9356H200.317V16.4951Z" stroke="#F6F2ED" stroke-width="2" stroke-linecap="round" stroke-linejoin="round"/>
<path d="M145.523 48.9355H203.047V50.3259C203.047 51.1677 202.706 51.9751 202.1 52.5704C201.493 53.1657 200.67 53.5001 199.812 53.5001H148.764C147.905 53.5001 147.082 53.1659 146.474 52.5707C145.867 51.9756 145.525 51.1682 145.523 50.3259V48.9355Z" stroke="#F6F2ED" stroke-width="2" stroke-linecap="round" stroke-linejoin="round"/>
<path d="M161.5 25H187.421M161.5 25V39.6713H187.421V25M161.5 25L174.461 32.3357L187.421 25" stroke="#F9F4F0" stroke-width="1.25" stroke-linecap="round" stroke-linejoin="round"/>
</g>
<mask id="mask1_5258_12938" style="mask-type:luminance" maskUnits="userSpaceOnUse" x="1" y="115" width="47" height="51">
<path d="M48 115H1V166H48V115Z" fill="white"/>
</mask>
<g mask="url(#mask1_5258_12938)">
<path d="M40.618 142.478C40.6187 144.597 40.2025 146.695 39.3929 148.653C38.5834 150.611 37.3964 152.39 35.8999 153.888C34.4033 155.387 32.6265 156.575 30.6709 157.386C28.7153 158.197 26.6192 158.615 24.5023 158.615C20.2277 158.613 16.1286 156.912 13.1065 153.886C10.0844 150.86 8.38672 146.757 8.38672 142.478C8.38672 138.2 10.0846 134.097 13.1069 131.072C16.1291 128.047 20.2282 126.348 24.5023 126.348C26.6189 126.347 28.7148 126.764 30.6704 127.574C32.626 128.384 34.4029 129.572 35.8995 131.07C37.3962 132.568 38.5832 134.347 39.3928 136.304C40.2024 138.262 40.6187 140.36 40.618 142.478Z" fill="#508B82" stroke="#F6F2ED" stroke-width="2" stroke-linecap="round" stroke-linejoin="round"/>
<path d="M24.5 128.616V130.539" stroke="#F6F2ED" stroke-width="2" stroke-linecap="round" stroke-linejoin="round"/>
<path d="M14.7422 132.654L16.1008 134.014" stroke="#F6F2ED" stroke-width="2" stroke-linecap="round" stroke-linejoin="round"/>
<path d="M10.6953 142.414H12.6161" stroke="#F6F2ED" stroke-width="2" stroke-linecap="round" stroke-linejoin="round"/>
<path d="M14.7344 152.179L16.093 150.825" stroke="#F6F2ED" stroke-width="2" stroke-linecap="round" stroke-linejoin="round"/>
<path d="M24.4805 156.229V154.312" stroke="#F6F2ED" stroke-width="2" stroke-linecap="round" stroke-linejoin="round"/>
<path d="M34.2375 152.191L32.8789 150.837" stroke="#F6F2ED" stroke-width="2" stroke-linecap="round" stroke-linejoin="round"/>
<path d="M38.2879 142.431H36.3672" stroke="#F6F2ED" stroke-width="2" stroke-linecap="round" stroke-linejoin="round"/>
<path d="M34.2531 132.667L32.8945 134.026" stroke="#F6F2ED" stroke-width="2" stroke-linecap="round" stroke-linejoin="round"/>
<path d="M45.5254 134.114C46.5822 136.776 47.1228 139.614 47.1182 142.479C47.119 145.452 46.5344 148.397 45.3978 151.144C44.2612 153.892 42.595 156.388 40.4942 158.491C38.3934 160.594 35.8994 162.261 33.1544 163.399C30.4095 164.537 27.4675 165.122 24.4966 165.121C18.497 165.121 12.7431 162.736 8.50071 158.489C4.25833 154.243 1.875 148.484 1.875 142.479C1.87655 136.474 4.26039 130.716 8.50242 126.47C12.7445 122.224 18.4975 119.837 24.4966 119.836" stroke="#F6F2ED" stroke-width="2" stroke-linecap="round" stroke-linejoin="round"/>
<path d="M24.4997 119.835L20.5469 123.798" stroke="#F6F2ED" stroke-width="2" stroke-linecap="round" stroke-linejoin="round"/>
<path d="M24.4997 119.836L20.5469 115.879" stroke="#F6F2ED" stroke-width="2" stroke-linecap="round" stroke-linejoin="round"/>
<path d="M17.6484 145.169V144.1L21.5796 138.12H22.4547V139.694H21.8994L19.0876 143.98V144.048H24.4758V145.169H17.6484ZM21.9616 146.88V144.844L21.9705 144.356V138.12H23.272V146.88H21.9616Z" fill="#F6F2ED"/>
<path d="M29.0977 147C28.461 147 27.8984 146.894 27.4097 146.683C26.9241 146.472 26.5436 146.182 26.2682 145.811C25.9927 145.44 25.8565 145.018 25.8595 144.545C25.8565 144.174 25.935 143.833 26.0949 143.522C26.2578 143.209 26.4784 142.948 26.7568 142.74C27.0351 142.529 27.3461 142.394 27.6896 142.337V142.286C27.2365 142.181 26.8737 141.947 26.6013 141.585C26.3289 141.222 26.1941 140.806 26.1971 140.336C26.1941 139.888 26.317 139.489 26.5658 139.138C26.8175 138.784 27.1625 138.506 27.6008 138.304C28.039 138.101 28.538 138 29.0977 138C29.6515 138 30.146 138.103 30.5813 138.308C31.0196 138.51 31.3646 138.788 31.6163 139.142C31.868 139.493 31.9954 139.891 31.9983 140.336C31.9954 140.806 31.8562 141.222 31.5808 141.585C31.3054 141.947 30.9471 142.181 30.5058 142.286V142.337C30.8464 142.394 31.1529 142.529 31.4253 142.74C31.7007 142.948 31.9199 143.209 32.0827 143.522C32.2486 143.833 32.333 144.174 32.3359 144.545C32.333 145.018 32.1938 145.44 31.9184 145.811C31.643 146.182 31.261 146.472 30.7724 146.683C30.2867 146.894 29.7285 147 29.0977 147ZM29.0977 145.918C29.4738 145.918 29.7996 145.858 30.075 145.738C30.3504 145.615 30.5636 145.446 30.7146 145.229C30.8656 145.01 30.9426 144.753 30.9456 144.459C30.9426 144.154 30.8597 143.885 30.6968 143.651C30.5369 143.417 30.3193 143.233 30.0439 143.099C29.7685 142.965 29.4531 142.898 29.0977 142.898C28.7394 142.898 28.421 142.965 28.1427 143.099C27.8643 143.233 27.6452 143.417 27.4853 143.651C27.3254 143.885 27.2469 144.154 27.2498 144.459C27.2469 144.753 27.3194 145.01 27.4675 145.229C27.6185 145.446 27.8332 145.615 28.1116 145.738C28.39 145.858 28.7187 145.918 29.0977 145.918ZM29.0977 141.841C29.3998 141.841 29.6678 141.783 29.9017 141.666C30.1357 141.549 30.3193 141.386 30.4525 141.178C30.5887 140.97 30.6583 140.726 30.6613 140.447C30.6583 140.173 30.5902 139.933 30.457 139.728C30.3267 139.523 30.1445 139.365 29.9106 139.253C29.6767 139.139 29.4057 139.082 29.0977 139.082C28.7838 139.082 28.5084 139.139 28.2715 139.253C28.0376 139.365 27.8554 139.523 27.7251 139.728C27.5948 139.933 27.5312 140.173 27.5341 140.447C27.5312 140.726 27.5963 140.97 27.7296 141.178C27.8628 141.386 28.0464 141.549 28.2804 141.666C28.5173 141.783 28.7897 141.841 29.0977 141.841Z" fill="#F6F2ED"/>
</g>
<path d="M165.775 155.371C176.696 155.371 185.55 146.517 185.55 135.596C185.55 124.675 176.696 115.821 165.775 115.821C154.854 115.821 146 124.675 146 135.596C146 146.517 154.854 155.371 165.775 155.371Z" fill="#508B82"/>
<path d="M185.576 135.47C185.576 140.708 183.518 145.73 179.854 149.433C176.19 153.137 171.221 155.217 166.04 155.217C160.859 155.217 155.89 153.137 152.226 149.433C148.562 145.73 146.504 140.708 146.504 135.47C146.504 130.233 148.562 125.211 152.226 121.507C155.89 117.804 160.859 115.724 166.04 115.724C171.221 115.724 176.19 117.804 179.854 121.507C183.518 125.211 185.576 130.233 185.576 135.47Z" stroke="#F6F2ED" stroke-width="1.5" stroke-miterlimit="10"/>
<path d="M166.042 155.222C172.153 155.222 177.108 146.379 177.108 135.471C177.108 124.562 172.153 115.719 166.042 115.719C159.931 115.719 154.977 124.562 154.977 135.471C154.977 146.379 159.931 155.222 166.042 155.222Z" stroke="#F6F2ED" stroke-width="1.5" stroke-miterlimit="10"/>
<path d="M166.039 115.719V155.136" stroke="#F6F2ED" stroke-width="1.5" stroke-miterlimit="10"/>
<path d="M147.938 127.607H184.155" stroke="#F6F2ED" stroke-width="1.5" stroke-miterlimit="10"/>
<path d="M185.576 135.47C185.576 130.233 183.518 125.211 179.854 121.507C176.19 117.804 171.221 115.724 166.04 115.724C160.859 115.724 155.89 117.804 152.226 121.507C148.562 125.211 146.504 130.233 146.504 135.47C146.504 140.708 148.562 145.73 152.226 149.433C155.89 153.137 160.859 155.217 166.04 155.217C171.221 155.217 176.19 153.137 179.854 149.433C183.518 145.73 185.576 140.708 185.576 135.47Z" stroke="#F6F2ED" stroke-width="1.5" stroke-miterlimit="10"/>
<path d="M166.042 155.222C172.153 155.222 177.108 146.379 177.108 135.471C177.108 124.562 172.153 115.719 166.042 115.719C159.931 115.719 154.977 124.562 154.977 135.471C154.977 146.379 159.931 155.222 166.042 155.222Z" stroke="#F6F2ED" stroke-width="1.5" stroke-miterlimit="10"/>
<path d="M166.039 155.217V115.8" stroke="#F6F2ED" stroke-width="1.5" stroke-miterlimit="10"/>
<path d="M147.938 143.334H184.155" stroke="#F6F2ED" stroke-width="1.5" stroke-miterlimit="10"/>
<path d="M185.661 145.378C186.122 144.078 186.055 142.646 185.475 141.395C185.083 140.561 185.034 139.604 185.34 138.733L186.933 134.227C187.038 133.925 187.02 133.593 186.884 133.303C186.749 133.013 186.505 132.789 186.207 132.68L183.393 131.662C183.244 131.608 183.086 131.584 182.929 131.591C182.771 131.599 182.616 131.638 182.474 131.706C182.331 131.774 182.203 131.87 182.097 131.989C181.991 132.107 181.909 132.245 181.856 132.396L180.275 136.873C179.965 137.748 179.326 138.464 178.496 138.864C177.879 139.159 177.325 139.574 176.866 140.086C176.407 140.597 176.053 141.195 175.823 141.845L170.6 156.636C170.371 157.287 170.272 157.977 170.308 158.667C170.344 159.357 170.513 160.033 170.808 160.656C171.102 161.28 171.515 161.838 172.023 162.3C172.531 162.762 173.124 163.119 173.768 163.349C175.07 163.819 176.503 163.748 177.753 163.152C179.003 162.556 179.969 161.483 180.438 160.169L185.661 145.378Z" fill="#2F4F4F" stroke="#F6F2ED" stroke-width="1.5" stroke-miterlimit="10"/>
<path d="M184.781 132.151L189.622 118.077" stroke="#F6F2ED" stroke-width="1.5" stroke-miterlimit="10" stroke-linecap="round"/>
<path d="M193.002 111.722L190.999 111L187.734 117.394L191.522 118.76L193.002 111.722Z" fill="#F6F2ED" stroke="#F6F2ED" stroke-width="1.5" stroke-linecap="round" stroke-linejoin="round"/>
<path d="M177.851 143.962L173.793 155.442" stroke="#F6F2ED" stroke-linecap="round" stroke-linejoin="round"/>
<path d="M180.298 144.843L176.246 156.329" stroke="#F6F2ED" stroke-linecap="round" stroke-linejoin="round"/>
<path d="M182.757 145.73L178.699 157.211" stroke="#F6F2ED" stroke-linecap="round" stroke-linejoin="round"/>
</svg>
