<svg width="177" height="165" viewBox="0 0 177 165" fill="none" xmlns="http://www.w3.org/2000/svg">
<path opacity="0.26" d="M94.261 164.522C139.692 164.522 176.522 127.692 176.522 82.261C176.522 36.8295 139.692 0 94.261 0C48.8295 0 12 36.8295 12 82.261C12 127.692 48.8295 164.522 94.261 164.522Z" fill="#1E473B"/>
<g clip-path="url(#clip0_5862_11175)">
<path d="M142.256 29.9522H97.2605C96.6272 30.0272 95.9861 30.0081 95.3584 29.8953C94.8448 29.7247 94.4548 29.1845 94.0078 28.8148C94.4168 28.3978 94.7592 27.867 95.2537 27.6205C95.7943 27.4844 96.356 27.4522 96.9086 27.5258C111.888 27.5258 126.868 27.5258 141.847 27.5258C144.073 27.5258 144.701 28.1987 144.701 30.3692C144.625 52.0461 144.653 73.7134 144.653 95.3902C144.744 95.8629 144.744 96.3487 144.653 96.8214C144.332 97.3253 143.949 97.787 143.512 98.1958C143.038 97.7674 142.634 97.2687 142.314 96.7172C142.191 96.0926 142.172 95.4523 142.256 94.8215V29.9522Z" fill="#F1F1F1"/>
<path d="M48.0351 136.46H50.9739C74.3136 136.46 97.6501 136.475 120.983 136.507C122.068 136.507 124.093 137.341 124.065 137.654C123.903 139.616 122.163 138.858 121.04 138.858C96.9907 138.902 72.9314 138.902 48.8625 138.858C45.6193 138.858 45.6193 138.858 45.6193 135.711V105.181C45.5279 104.712 45.5279 104.229 45.6193 103.76C45.9707 103.157 46.3783 102.589 46.8367 102.063C47.2753 102.621 47.6516 103.225 47.959 103.864C48.05 104.416 48.05 104.98 47.959 105.532V136.46H48.0351Z" fill="#F1F1F1"/>
<path d="M42.1449 28.7773C42.6374 29.0821 43.1077 29.421 43.5525 29.7915C45.721 31.9241 47.9275 34.0283 49.9818 36.2651C50.4193 36.7391 50.2957 37.7153 50.4288 38.4641C49.7346 38.3125 48.812 38.3883 48.365 37.9618C46.0253 35.7818 43.7807 33.488 41.5647 31.1753C41.3923 30.9759 41.2622 30.7438 41.1821 30.493C41.102 30.2421 41.0736 29.9777 41.0987 29.7157C41.1367 29.4219 41.7454 29.128 42.1449 28.7773Z" fill="#42736B"/>
<path d="M44.4389 45.7149C42.8347 45.7829 41.228 45.7608 39.6264 45.6485C39.0462 45.5822 38.5421 44.8239 38 44.369C38.5421 44.0183 39.0747 43.4211 39.6168 43.3548C42.9076 43.26 46.1952 43.26 49.4796 43.3548C50.0312 43.3548 50.5543 44.0183 51.087 44.369C50.5543 44.8239 50.0598 45.6011 49.4796 45.658C47.8152 45.8191 46.1223 45.7054 44.4389 45.7149Z" fill="#F1F1F1"/>
<path d="M55.347 32.4548C55.2755 30.9417 55.2946 29.4256 55.4041 27.9147C55.4897 27.2417 56.1935 26.6351 56.6119 26.019C56.9924 26.6162 57.6772 27.1944 57.6962 27.801C57.8008 30.9857 57.8103 34.1799 57.6962 37.3646C57.6962 37.9427 56.9258 38.483 56.5168 39.0422C56.1269 38.4546 55.4706 37.8859 55.4041 37.2508C55.2424 35.6585 55.347 34.0472 55.347 32.4548Z" fill="#F1F1F1"/>
<path d="M56.0703 120.783H108.38" stroke="#42736B" stroke-width="2.5" stroke-linecap="round" stroke-linejoin="round"/>
<path d="M56.0703 126.47H87.4562" stroke="#42736B" stroke-width="2.5" stroke-linecap="round" stroke-linejoin="round"/>
<path d="M109.332 38.3218H135.011" stroke="#42736B" stroke-width="2.5" stroke-linecap="round" stroke-linejoin="round"/>
<path d="M118.844 44.0088L135.012 44.0088" stroke="#42736B" stroke-width="2.5" stroke-linecap="round" stroke-linejoin="round"/>
<path d="M124.551 50.6436L135.013 50.6436" stroke="#42736B" stroke-width="2.5" stroke-linecap="round" stroke-linejoin="round"/>
<path d="M84.8791 60C86.19 60 86.8454 60.912 86.8454 61.957C86.8454 63.262 85.7067 64.469 84.2247 64.469C82.9833 64.469 82.2593 63.719 82.2936 62.479C82.2936 61.436 83.1554 60 84.8791 60ZM80.8458 80C79.8108 80 79.0526 79.348 79.7765 76.476L80.9641 71.384C81.1705 70.57 81.2048 70.243 80.9641 70.243C80.654 70.243 79.3118 70.805 78.5165 71.36L78 70.48C80.5161 68.294 83.4108 67.013 84.6532 67.013C85.6872 67.013 85.8593 68.286 85.3428 70.243L83.9821 75.595C83.7414 76.54 83.8441 76.866 84.0858 76.866C84.3959 76.866 85.4133 76.474 86.413 75.659L87 76.473C84.5524 79.02 81.8788 80 80.8458 80Z" fill="#F1F1F1"/>
<path d="M148.102 123.095C139.802 115.512 131.471 107.93 123.108 100.347C122.432 99.7403 121.377 98.963 120.635 99.0863C117.068 99.6739 116.317 96.5271 114.31 95.0675C126.855 77.2294 122.518 54.7563 107.282 42.7284C99.9797 36.9622 90.8085 34.0667 81.5069 34.5908C72.2054 35.1149 63.4201 39.0222 56.8169 45.5719C50.2464 52.098 46.2899 60.7883 45.6894 70.0137C45.0888 79.2392 47.8853 88.3661 53.5547 95.6835C65.7381 111.266 88.412 115.588 106.416 102.982C107.995 105.143 111.172 106.081 110.411 109.617C110.287 110.204 110.972 111.095 111.485 111.664C119.17 120.1 126.88 128.516 134.616 136.914C136.518 139.028 138.42 139.028 140.437 137.028C143.093 134.45 145.715 131.843 148.302 129.208C150.518 126.99 150.48 125.265 148.102 123.095ZM83.6091 103.854C75.3015 103.854 67.3327 100.571 61.4495 94.7262C55.5662 88.8808 52.2484 80.9494 52.2232 72.6703C52.1893 68.5508 52.9724 64.4653 54.5274 60.6483C56.0824 56.8313 58.3786 53.3579 61.2844 50.4278C64.1901 47.4977 67.648 45.1685 71.4596 43.574C75.2711 41.9794 79.3612 41.1509 83.4949 41.1361C91.8435 41.0932 99.8674 44.356 105.803 50.2071C111.738 56.0582 115.099 64.0186 115.147 72.3385C115.17 76.4763 114.37 80.5776 112.794 84.4058C111.218 88.234 108.897 91.7134 105.965 94.6433C103.034 97.5731 99.5485 99.8954 95.7114 101.476C91.8743 103.057 87.7611 103.865 83.6091 103.854Z" fill="#F1F1F1"/>
<path d="M120.51 101.873C121.046 102.225 121.563 102.605 122.06 103.01C130.192 110.394 138.305 117.815 146.465 125.171C147.663 126.251 147.93 127.066 146.617 128.261C144.097 130.611 141.672 133.066 139.284 135.559C138.219 136.677 137.449 136.744 136.364 135.559C128.921 127.357 121.455 119.193 113.966 111.067C112.939 109.958 112.835 109.171 113.966 108.081C115.754 106.47 117.39 104.698 119.112 103.02C119.511 102.631 119.977 102.309 120.51 101.873Z" fill="#41594C"/>
</g>
<path d="M5.28394 72.896C6.91207 72.896 8.23194 71.5761 8.23194 69.948C8.23194 68.3199 6.91207 67 5.28394 67C3.6558 67 2.33594 68.3199 2.33594 69.948C2.33594 71.5761 3.6558 72.896 5.28394 72.896Z" fill="#42736B"/>
<path d="M2.339 87.0491C3.63079 87.0491 4.678 86.0019 4.678 84.7101C4.678 83.4183 3.63079 82.3711 2.339 82.3711C1.04721 82.3711 0 83.4183 0 84.7101C0 86.0019 1.04721 87.0491 2.339 87.0491Z" fill="#42736B"/>
<path d="M163.718 25.9438C162.705 27.2183 162.917 29.0728 164.191 30.086C165.466 31.0991 167.32 30.8873 168.333 29.6128C169.347 28.3383 169.135 26.4838 167.86 25.4707C166.586 24.4575 164.731 24.6693 163.718 25.9438Z" fill="#42736B"/>
<path d="M154.472 14.831C153.669 15.8422 153.837 17.3136 154.848 18.1175C155.859 18.9213 157.33 18.7533 158.134 17.7421C158.938 16.7309 158.77 15.2595 157.759 14.4556C156.748 13.6517 155.276 13.8198 154.472 14.831Z" fill="#42736B"/>
<defs>
<clipPath id="clip0_5862_11175">
<rect width="112" height="113" fill="white" transform="translate(38 26)"/>
</clipPath>
</defs>
</svg>
