<svg width="17" height="17" viewBox="0 0 17 17" fill="none" xmlns="http://www.w3.org/2000/svg">
<g clip-path="url(#clip0_9951_18626)">
<path d="M16.4441 8.3267C16.8129 7.54878 16.9999 6.71409 16.9999 5.84353C16.9999 2.63955 14.3786 0.0332031 11.1563 0.0332031C8.17489 0.0332031 5.62711 2.30966 5.36591 5.3651H5.36558C5.08702 8.7566 7.77258 11.6539 11.1563 11.6539C12.0125 11.6539 12.8529 11.4713 13.6402 11.0977L16.4052 11.6442C16.7452 11.7144 17.0607 11.4112 16.9902 11.0582L16.4441 8.3267ZM11.6517 8.28321C11.6315 8.52588 11.4196 8.73213 11.1563 8.73213C10.8827 8.73213 10.6583 8.50848 10.6583 8.2341C10.6583 7.94751 10.9046 7.71054 11.2051 7.73837C11.4852 7.76735 11.679 8.01527 11.6517 8.28321ZM11.6542 5.98604V6.64038C11.6542 6.91542 11.4312 7.13841 11.1562 7.13841C10.8811 7.13841 10.6581 6.91542 10.6581 6.64038V5.57191C10.6581 5.29743 10.8802 5.07471 11.1547 5.07388C11.4719 5.07295 11.7291 4.80468 11.7123 4.481C11.6972 4.18971 11.4565 3.95687 11.1643 3.95099C10.854 3.94429 10.5919 4.19264 10.5919 4.51151C10.5919 4.78655 10.3689 5.00954 10.0939 5.00954C9.81882 5.00954 9.59583 4.78655 9.59583 4.51151C9.59583 3.64019 10.3106 2.93873 11.1844 2.95514C11.9961 2.97147 12.6649 3.61904 12.707 4.42933C12.7446 5.15307 12.291 5.7678 11.6542 5.98604Z" fill="#F6F2ED"/>
<path d="M3.98453 12.6499C3.70962 12.6499 3.48651 12.4268 3.48651 12.1519C3.48651 11.8769 3.70962 11.6538 3.98453 11.6538H7.61417C7.12805 11.3565 6.681 10.9996 6.28343 10.5914H3.98453C3.70962 10.5914 3.48651 10.3682 3.48651 10.0933C3.48651 9.81843 3.70962 9.59531 3.98453 9.59531H5.47962C4.65903 8.35794 4.29301 6.93418 4.35673 5.53638C1.85231 6.19211 0.000307379 8.46279 0.000307379 11.1558C0.000307379 12.0264 0.187234 12.861 0.556107 13.639L0.00993593 16.3705C-0.0604853 16.7234 0.254833 17.0267 0.594953 16.9565L3.36001 16.41C4.13826 16.7792 4.97295 16.9661 5.84384 16.9661C8.5312 16.9661 10.7982 15.1321 11.4589 12.6499H3.98453Z" fill="#F6F2ED"/>
</g>
<defs>
<clipPath id="clip0_9951_18626">
<rect width="17" height="17" fill="white"/>
</clipPath>
</defs>
</svg>
