<svg xmlns="http://www.w3.org/2000/svg" width="13" height="12" viewBox="0 0 13 12" fill="none">
  <path d="M6.55262 1.35724L5.10772 2.7716C4.84283 3.0309 4.83825 3.45979 5.09755 3.72469C5.35685 3.98959 5.78574 3.99417 6.05064 3.73487L7.49554 2.3205C8.29023 1.5426 9.5769 1.55634 10.3548 2.35103C11.1327 3.14573 11.119 4.4324 10.3243 5.2103L8.87937 6.62467C8.61447 6.88397 8.60989 7.31286 8.8692 7.57776C9.1285 7.84266 9.55739 7.84724 9.82228 7.58794L11.2672 6.17357C12.5965 4.87235 12.6193 2.73743 11.3181 1.40812C10.0169 0.0788135 7.88193 0.0560169 6.55262 1.35724ZM4.5752 8.00851C4.83451 8.2734 5.2634 8.27798 5.52829 8.01868L8.41809 5.18995C8.68299 4.93065 8.68757 4.50176 8.42827 4.23686C8.16897 3.97196 7.74008 3.96738 7.47518 4.22668L4.58538 7.05542C4.32048 7.31472 4.3159 7.74361 4.5752 8.00851ZM6.95284 8.51049L5.50794 9.92486C4.71325 10.7028 3.42657 10.689 2.64867 9.89433C1.87077 9.09964 1.88451 7.81297 2.6792 7.03506L4.1241 5.62069C4.389 5.36139 4.39358 4.9325 4.13428 4.66761C3.87498 4.40271 3.44609 4.39813 3.18119 4.65743L1.73629 6.0718C0.406983 7.37302 0.384187 9.50794 1.68541 10.8372C2.98662 12.1666 5.12154 12.1893 6.45085 10.8881L7.89575 9.47376C8.16065 9.21446 8.16523 8.78557 7.90593 8.52067C7.64663 8.25577 7.21774 8.25119 6.95284 8.51049Z" fill="#2D6759"/>
</svg>