<svg width="52" height="35" viewBox="0 0 52 35" fill="none" xmlns="http://www.w3.org/2000/svg">
<path d="M14 18.3076C14.045 18.1119 14.0845 17.9154 14.1349 17.7229C14.653 15.6754 16.3782 14.3051 18.4897 14.2799C19.4962 14.2668 20.5031 14.2776 21.5101 14.2776H21.8168C21.8793 15.4501 22.3115 16.4489 23.1538 17.2908C21.8235 17.7288 20.8076 18.5158 20.0894 19.6873C19.3711 20.8588 19.2722 22.1522 19.3541 23.5099C17.4994 23.4114 15.7351 23.026 14.0022 22.4796L14 18.3076Z" fill="#2F4F4F"/>
<path d="M32.1711 23.9368C32.1711 24.5534 32.1603 25.17 32.1774 25.7861C32.1828 25.9939 32.1072 26.0888 31.9287 26.1693C31.0337 26.574 30.0938 26.8177 29.1282 26.9711C26.2346 27.4298 23.4085 27.0867 20.6251 26.2484C20.1781 26.1135 20.1754 26.1135 20.1777 25.6485C20.1777 24.5242 20.1615 23.3999 20.1857 22.2756C20.2366 19.9469 22.0769 18.0298 24.4029 17.9272C25.6329 17.8728 26.8692 17.8823 28.0997 17.9344C29.8491 18.01 31.5338 19.4504 31.9944 21.1657C32.1859 21.8785 32.1707 22.6016 32.1711 23.3266C32.1716 23.5307 32.1711 23.734 32.1711 23.9368Z" fill="#2F4F4F"/>
<path d="M32.9912 23.6011C32.9912 23.0353 33.015 22.5595 32.9871 22.0873C32.8599 19.9196 31.458 18.0825 29.3992 17.3652C29.3421 17.3455 29.2858 17.3203 29.1959 17.287C30.0225 16.446 30.4718 15.4535 30.5208 14.2896C30.5883 14.2829 30.6337 14.2743 30.6787 14.2743C31.6622 14.2743 32.6462 14.2599 33.6293 14.2811C35.9279 14.3305 37.869 16.1955 37.9697 18.494C38.0255 19.756 37.9881 21.0224 37.9832 22.287C37.9767 22.3284 37.9603 22.3677 37.9355 22.4016C37.9107 22.4355 37.8782 22.4629 37.8406 22.4817C37.166 22.7219 36.5018 23.0101 35.8078 23.1635C34.9057 23.3632 33.9792 23.4531 32.9912 23.6011Z" fill="#2F4F4F"/>
<path d="M22.6597 14.1423C22.6594 13.211 23.0285 12.3176 23.6862 11.6581C24.3439 10.9987 25.2363 10.6272 26.1676 10.625C28.0974 10.6201 29.685 12.199 29.6922 14.1328C29.6998 16.0747 28.1109 17.6613 26.1645 17.655C25.7035 17.6553 25.2469 17.5646 24.821 17.3881C24.3952 17.2116 24.0083 16.9527 23.6827 16.6263C23.3571 16.3 23.0991 15.9126 22.9236 15.4863C22.748 15.06 22.6584 14.6033 22.6597 14.1423Z" fill="#2F4F4F"/>
<path d="M16.4809 10.5157C16.4809 8.72178 17.8639 7.17385 19.6124 7.01555C21.4698 6.84735 23.1158 8.06069 23.4509 9.84608C23.4711 9.95357 23.4846 10.0619 23.4994 10.1699C23.5444 10.491 23.4909 10.7374 23.2085 10.983C22.5145 11.5878 22.0886 12.3731 21.9132 13.2828C21.884 13.4339 21.8098 13.5207 21.674 13.5949C19.3345 14.8672 16.4854 13.1803 16.4809 10.5157Z" fill="#2F4F4F"/>
<path d="M35.5079 10.5141C35.5079 13.0064 32.9445 14.7293 30.6769 13.761C30.632 13.7397 30.5921 13.7091 30.5599 13.6713C30.5277 13.6335 30.5038 13.5893 30.4898 13.5416C30.2784 12.2756 29.6551 11.2723 28.5951 10.5482C28.4579 10.4542 28.4791 10.3445 28.489 10.2235C28.5643 9.31972 28.986 8.47999 29.666 7.87982C30.346 7.27966 31.2316 6.9655 32.1378 7.00301C33.044 7.04052 33.9006 7.42679 34.5286 8.08109C35.1567 8.7354 35.5076 9.60711 35.5079 10.5141Z" fill="#2F4F4F"/>
</svg>
