<svg width="40" height="40" viewBox="0 0 40 40" fill="none" xmlns="http://www.w3.org/2000/svg">
<g clip-path="url(#clip0_1078_3621)">
<path d="M19.9428 0.000173167C23.8976 -0.0111244 27.7669 1.15071 31.0617 3.33913C34.3565 5.52755 36.929 8.64427 38.4537 12.2951C39.9785 15.9459 40.3871 19.9668 39.6281 23.85C38.869 27.7331 36.9763 31.304 34.1892 34.1111C31.402 36.9182 27.8456 38.8355 23.9695 39.6209C20.0934 40.4062 16.0716 40.0242 12.4124 38.5231C8.75327 37.022 5.62116 34.4694 3.41184 31.1877C1.20251 27.906 0.0152695 24.0426 0.000158699 20.0859C-0.0150546 14.7773 2.07675 9.67992 5.8162 5.91362C9.55565 2.14732 14.6367 0.0203941 19.9428 0.000173167ZM19.9428 37.1743C23.9067 37.1977 27.7566 35.8485 30.8397 33.3557C30.9375 33.2964 31.0118 33.2051 31.05 33.0972C31.0883 32.9894 31.0882 32.8715 31.0496 32.7637C30.5686 31.0187 29.6765 29.4146 28.4479 28.0858C27.2193 26.7569 25.6901 25.7421 23.9886 25.1265C23.7923 25.0498 23.5744 25.0498 23.378 25.1265C22.3184 25.5755 21.1795 25.8068 20.0288 25.8068C18.8781 25.8068 17.7391 25.5755 16.6795 25.1265C16.5059 25.0696 16.3187 25.0696 16.1451 25.1265C14.4333 25.7313 12.8933 26.742 11.6569 28.072C10.4206 29.402 9.52487 31.0118 9.04594 32.7637C8.98759 32.8817 8.97462 33.017 9.00983 33.1439C9.04505 33.2707 9.12592 33.3801 9.23674 33.451C12.2713 35.8602 16.0307 37.1724 19.9046 37.1743H19.9428ZM20.0383 11.4369C18.906 11.4369 17.799 11.7727 16.8575 12.4021C15.916 13.0314 15.1821 13.9262 14.7488 14.9728C14.3154 16.0195 14.2022 17.1711 14.4231 18.2822C14.644 19.3933 15.1893 20.4138 15.99 21.2149C16.7907 22.016 17.8107 22.5615 18.9213 22.7825C20.0319 23.0035 21.1829 22.8902 22.2291 22.4567C23.2752 22.0231 24.1695 21.2889 24.7986 20.3469C25.4277 19.405 25.7635 18.2977 25.7635 17.1648C25.7635 16.4094 25.614 15.6614 25.3239 14.964C25.0338 14.2665 24.6089 13.6334 24.0732 13.101C23.5375 12.5686 22.9018 12.1474 22.2027 11.8618C21.5037 11.5762 20.7552 11.4319 20.0001 11.4369H20.0383Z" fill="#2F4F4F"/>
<path d="M19.9045 37.1742C16.0061 37.1539 12.2305 35.8072 9.19842 33.3556C9.08761 33.2846 9.00697 33.1753 8.97175 33.0484C8.93654 32.9216 8.94928 32.7863 9.00763 32.6683C9.48656 30.9163 10.3825 29.3064 11.6189 27.9764C12.8552 26.6463 14.395 25.6359 16.1068 25.0311C16.2804 24.9742 16.4676 24.9742 16.6412 25.0311C17.7008 25.48 18.8398 25.7114 19.9905 25.7114C21.1412 25.7114 22.2801 25.48 23.3397 25.0311C23.5361 24.9544 23.7539 24.9544 23.9503 25.0311C25.6518 25.6466 27.181 26.6613 28.4096 27.9901C29.6382 29.319 30.5305 30.9233 31.0115 32.6683C31.0501 32.776 31.0502 32.8937 31.012 33.0016C30.9737 33.1094 30.8992 33.2007 30.8014 33.26C27.7313 35.7872 23.8801 37.1706 19.9045 37.1742Z" fill="#F7F2EC"/>
<path d="M19.9996 11.4375C21.1319 11.4375 22.2387 11.7732 23.1802 12.4026C24.1217 13.032 24.8556 13.9268 25.2889 14.9734C25.7223 16.02 25.8355 17.1717 25.6146 18.2828C25.3937 19.3939 24.8486 20.4144 24.048 21.2155C23.2473 22.0165 22.227 22.5621 21.1164 22.7831C20.0058 23.0041 18.8548 22.8908 17.8086 22.4573C16.7625 22.0237 15.8684 21.2895 15.2393 20.3475C14.6102 19.4056 14.2744 18.2983 14.2744 17.1654C14.2744 15.6463 14.8776 14.1893 15.9513 13.1151C17.0249 12.0409 18.4812 11.4375 19.9996 11.4375Z" fill="#F7F2EC"/>
</g>
<defs>
<clipPath id="clip0_1078_3621">
<rect width="40" height="40" fill="white"/>
</clipPath>
</defs>
</svg>
