<svg width="15" height="15" viewBox="0 0 15 15" fill="none" xmlns="http://www.w3.org/2000/svg">
<path d="M8.90626 0H1.71875C0.768751 0 0 0.76875 0 1.71875V11.4062C0 12.3562 0.768751 13.125 1.71875 13.125H7.72501C7.20625 12.6687 6.875 12 6.875 11.25C6.875 9.86875 7.99376 8.75 9.37501 8.75C9.62501 8.75 9.85626 8.8 10.0813 8.8625L10.625 8.55625V1.71875C10.625 0.76875 9.85626 0 8.90626 0ZM2.5 2.5H5C5.34375 2.5 5.625 2.78125 5.625 3.125C5.625 3.46875 5.34375 3.75 5 3.75H2.5C2.15625 3.75 1.875 3.46875 1.875 3.125C1.875 2.78125 2.15625 2.5 2.5 2.5ZM5.625 8.75H2.5C2.15625 8.75 1.875 8.46875 1.875 8.125C1.875 7.78125 2.15625 7.5 2.5 7.5H5.625C5.96875 7.5 6.25 7.78125 6.25 8.125C6.25 8.46875 5.96875 8.75 5.625 8.75ZM8.12501 6.25H2.5C2.15625 6.25 1.875 5.96875 1.875 5.625C1.875 5.28125 2.15625 5 2.5 5H8.12501C8.46876 5 8.75001 5.28125 8.75001 5.625C8.75001 5.96875 8.46876 6.25 8.12501 6.25ZM13.0731 13.8294C12.9925 13.8294 12.9133 13.8085 12.8431 13.7688L9.80938 12.0569C9.70106 11.9958 9.62143 11.8942 9.58803 11.7744C9.55462 11.6546 9.57017 11.5264 9.63126 11.4181C9.69234 11.3098 9.79395 11.2302 9.91374 11.1968C10.0335 11.1634 10.1617 11.1789 10.27 11.24L13.3038 12.9519C13.3942 13.0027 13.4653 13.0821 13.5058 13.1776C13.5464 13.2731 13.554 13.3794 13.5277 13.4798C13.5013 13.5801 13.4423 13.6689 13.3601 13.7322C13.2778 13.7955 13.1769 13.8296 13.0731 13.8294Z" fill="#F6F2ED"/>
<path d="M10.0515 11.3308C9.94817 11.3308 9.84776 11.2966 9.76588 11.2336C9.68399 11.1705 9.62522 11.0822 9.59871 10.9824C9.57219 10.8825 9.57941 10.7767 9.61925 10.6814C9.65909 10.586 9.72931 10.5065 9.81899 10.4552L12.8409 8.73208C12.9488 8.67168 13.0762 8.65637 13.1954 8.68949C13.3145 8.72261 13.4158 8.80148 13.477 8.90892C13.5383 9.01636 13.5546 9.14365 13.5224 9.26307C13.4903 9.38248 13.4122 9.48434 13.3052 9.54646L10.2834 11.2696C10.2126 11.3096 10.1328 11.3307 10.0515 11.3308Z" fill="#F6F2ED"/>
<path d="M13.75 10C13.0606 10 12.5 9.43938 12.5 8.75C12.5 8.06062 13.0606 7.5 13.75 7.5C14.4394 7.5 15 8.06062 15 8.75C15 9.43938 14.4394 10 13.75 10ZM13.75 15C13.0606 15 12.5 14.4394 12.5 13.75C12.5 13.0606 13.0606 12.5 13.75 12.5C14.4394 12.5 15 13.0606 15 13.75C15 14.4394 14.4394 15 13.75 15ZM9.375 12.5C8.68563 12.5 8.125 11.9394 8.125 11.25C8.125 10.5606 8.68563 10 9.375 10C10.0644 10 10.625 10.5606 10.625 11.25C10.625 11.9394 10.0644 12.5 9.375 12.5Z" fill="#F6F2ED"/>
</svg>
