<svg width="176" height="168" viewBox="0 0 176 168" fill="none" xmlns="http://www.w3.org/2000/svg">
<path opacity="0.26" d="M87.2167 157.477C122.565 157.477 151.221 128.821 151.221 93.4728C151.221 58.1243 122.565 29.4688 87.2167 29.4688C51.8681 29.4688 23.2123 58.1243 23.2123 93.4728C23.2123 128.821 51.8681 157.477 87.2167 157.477Z" fill="#073B36" fill-opacity="0.2"/>
<path d="M173.45 107.116C174.813 107.116 175.918 106.011 175.918 104.648C175.918 103.285 174.813 102.18 173.45 102.18C172.087 102.18 170.982 103.285 170.982 104.648C170.982 106.011 172.087 107.116 173.45 107.116Z" fill="#2F4F4F"/>
<path d="M62.5124 154.847C58.5863 155.529 54.5583 155.346 50.7106 154.308C46.8629 153.271 43.2885 151.405 40.2376 148.842C37.1867 146.278 34.733 143.078 33.0485 139.467C31.364 135.855 30.4892 131.919 30.4856 127.934C30.4765 124.068 31.2947 120.244 32.8853 116.72L31.1665 115.945C29.1677 120.394 28.3141 125.271 28.6836 130.134C29.0532 134.997 30.634 139.69 33.2821 143.785C35.9301 147.88 39.5612 151.247 43.8441 153.579C48.127 155.912 52.9256 157.135 57.8023 157.137C59.489 157.137 61.1727 156.993 62.8347 156.705L62.5124 154.847Z" fill="#2F4F4F"/>
<path d="M32.8718 115.915C32.8147 115.799 32.7345 115.697 32.6361 115.614C32.5378 115.53 32.4235 115.468 32.3002 115.431C32.1769 115.394 32.0473 115.382 31.9193 115.397C31.7914 115.412 31.6678 115.452 31.5563 115.517L22.4414 120.771L23.383 122.404L31.628 117.651L35.6865 125.832L37.376 124.994L32.8718 115.915Z" fill="#2F4F4F"/>
<path d="M106.684 26.5547C102.7 26.548 98.7573 27.3617 95.1016 28.9452L95.8503 30.6764C100.007 28.8849 104.544 28.1537 109.053 28.5486C113.562 28.9435 117.903 30.4521 121.685 32.9389C125.467 35.4258 128.573 38.813 130.722 42.7965C132.872 46.7799 133.999 51.2349 134.002 55.7614H135.887C135.879 48.0184 132.8 40.5946 127.325 35.1191C121.85 29.6436 114.427 26.5635 106.684 26.5547Z" fill="#2F4F4F"/>
<path d="M140.402 47.25L134.902 54.4586L127.772 48.699L126.587 50.1641L134.472 56.5329C134.639 56.6683 134.848 56.7423 135.064 56.7426C135.101 56.7427 135.139 56.7403 135.176 56.7357C135.301 56.7205 135.422 56.6805 135.532 56.618C135.641 56.5555 135.737 56.4718 135.813 56.3717L141.905 48.3928L140.402 47.25Z" fill="#2F4F4F"/>
<path d="M137.47 160.846C142.429 160.846 146.449 156.826 146.449 151.867C146.449 146.907 142.429 142.887 137.47 142.887C132.51 142.887 128.49 146.907 128.49 151.867C128.49 156.826 132.51 160.846 137.47 160.846Z" fill="#2F4F4F"/>
<path d="M137.73 135.793C134.551 135.793 131.443 136.736 128.8 138.502C126.157 140.268 124.097 142.778 122.88 145.716C121.663 148.653 121.345 151.885 121.965 155.003C122.586 158.121 124.117 160.985 126.365 163.232C128.613 165.48 131.477 167.011 134.595 167.631C137.713 168.251 140.945 167.933 143.882 166.716C146.819 165.5 149.329 163.439 151.095 160.796C152.861 158.152 153.804 155.045 153.804 151.866C153.799 147.604 152.104 143.519 149.09 140.506C146.077 137.493 141.992 135.798 137.73 135.793ZM137.73 166.054C134.924 166.054 132.181 165.222 129.847 163.663C127.514 162.103 125.695 159.887 124.621 157.295C123.547 154.702 123.266 151.849 123.814 149.097C124.361 146.344 125.713 143.816 127.697 141.832C129.681 139.848 132.21 138.496 134.962 137.949C137.714 137.401 140.567 137.682 143.16 138.756C145.753 139.83 147.969 141.649 149.528 143.982C151.087 146.315 151.919 149.059 151.919 151.865C151.915 155.627 150.419 159.233 147.759 161.893C145.099 164.553 141.492 166.05 137.73 166.054Z" fill="#2F4F4F"/>
<path d="M126.619 151.865C126.619 151.336 126.656 150.807 126.731 150.282L124.864 150.016C124.777 150.629 124.733 151.248 124.734 151.867V152.041L126.619 152.02V151.865ZM129.741 144.143L128.386 142.832C127.915 143.32 127.482 143.843 127.092 144.397L128.635 145.482C128.967 145.008 129.336 144.561 129.738 144.144L129.741 144.143ZM127.75 146.976L126.054 146.145C125.755 146.754 125.505 147.386 125.304 148.034L127.106 148.589C127.278 148.035 127.494 147.496 127.751 146.976H127.75ZM128.632 161.147C129.117 161.621 129.637 162.057 130.189 162.451L131.284 160.915C130.812 160.579 130.367 160.205 129.953 159.8L128.632 161.147ZM126.777 153.744L124.919 154.061C125.033 154.73 125.199 155.388 125.417 156.031L127.203 155.427C127.017 154.878 126.875 154.317 126.777 153.746V153.744ZM127.886 157.02L126.216 157.898C126.531 158.498 126.892 159.072 127.296 159.615L128.808 158.489C128.464 158.025 128.156 157.535 127.887 157.023L127.886 157.02ZM132.504 142.056L131.617 140.393C131.019 140.712 130.447 141.078 129.906 141.486L131.043 142.99C131.505 142.642 131.994 142.331 132.504 142.058V142.056ZM148.651 149.834L150.506 149.493C150.383 148.825 150.208 148.169 149.981 147.529L148.204 148.158C148.397 148.705 148.546 149.266 148.651 149.836V149.834ZM147.5 146.574L149.157 145.674C148.833 145.079 148.464 144.51 148.053 143.972L146.555 145.117C146.907 145.578 147.223 146.066 147.5 146.576V146.574ZM146.698 142.461C146.208 141.993 145.682 141.564 145.125 141.178L144.05 142.728C144.527 143.058 144.977 143.425 145.397 143.826L146.698 142.461ZM150.718 151.509L148.833 151.562C148.833 151.662 148.833 151.763 148.833 151.863C148.833 152.443 148.788 153.022 148.699 153.595L150.563 153.887C150.666 153.217 150.718 152.541 150.717 151.863C150.723 151.747 150.722 151.629 150.718 151.512V151.509ZM145.61 159.692L146.947 161.021C147.423 160.54 147.862 160.023 148.258 159.474L146.731 158.368C146.392 158.839 146.017 159.282 145.61 159.695V159.692ZM142.819 161.74L143.685 163.415C144.287 163.104 144.864 162.747 145.41 162.346L144.294 160.826C143.827 161.169 143.334 161.476 142.819 161.742V161.74ZM147.64 156.887L149.32 157.741C149.628 157.136 149.887 156.508 150.096 155.862L148.301 155.282C148.123 155.835 147.902 156.372 147.639 156.89L147.64 156.887ZM141.476 139.417L140.936 141.223C141.491 141.39 142.033 141.6 142.555 141.852L143.375 140.155C142.762 139.86 142.127 139.614 141.476 139.419V139.417ZM133.479 139.58L134.096 141.362C134.643 141.173 135.205 141.027 135.775 140.925L135.446 139.069C134.778 139.187 134.12 139.359 133.479 139.582V139.58ZM139.535 162.826L139.838 164.687C140.508 164.578 141.168 164.416 141.812 164.203L141.219 162.413C140.668 162.596 140.104 162.735 139.532 162.829L139.535 162.826ZM131.929 163.496C132.536 163.799 133.166 164.054 133.814 164.258L134.38 162.46C133.828 162.286 133.29 162.068 132.772 161.809L131.929 163.496ZM137.729 162.972C137.174 162.972 136.62 162.931 136.072 162.849L135.793 164.714C136.434 164.81 137.081 164.858 137.729 164.858H137.822L137.801 162.972H137.729ZM137.466 138.872L137.501 140.757H137.728C138.233 140.757 138.737 140.791 139.237 140.858L139.49 138.99C138.906 138.911 138.317 138.871 137.728 138.871L137.466 138.872Z" fill="#B2D0CB"/>
<path d="M141.735 147.434L136.266 153.207L134.139 150.864L132.879 152.009L135.623 155.031C135.702 155.118 135.798 155.187 135.905 155.235C136.011 155.283 136.127 155.309 136.244 155.31H136.253C136.369 155.31 136.483 155.286 136.589 155.241C136.695 155.195 136.791 155.128 136.87 155.044L142.969 148.604L141.735 147.434Z" fill="#F7F2EC"/>
<path d="M35.5171 33.9727C32.2471 33.9727 29.0505 34.9423 26.3316 36.759C23.6128 38.5758 21.4937 41.1579 20.2423 44.179C18.991 47.2001 18.6636 50.5244 19.3016 53.7315C19.9396 56.9386 21.5143 59.8845 23.8266 62.1967C26.1389 64.5089 29.0849 66.0834 32.2921 66.7213C35.4992 67.3591 38.8235 67.0316 41.8446 65.7801C44.8656 64.5286 47.4477 62.4094 49.2643 59.6905C51.0809 56.9715 52.0504 53.775 52.0502 50.505C52.0451 46.1218 50.3016 41.9196 47.2021 38.8202C44.1026 35.7209 39.9003 33.9776 35.5171 33.9727ZM35.5171 65.1527C32.62 65.1527 29.788 64.2936 27.3792 62.6841C24.9704 61.0746 23.093 58.7869 21.9843 56.1104C20.8757 53.4339 20.5856 50.4887 21.1508 47.6474C21.716 44.806 23.111 42.196 25.1595 40.1475C27.2081 38.099 29.818 36.7039 32.6594 36.1388C35.5008 35.5736 38.446 35.8636 41.1225 36.9723C43.799 38.0809 46.0867 39.9584 47.6962 42.3672C49.3057 44.776 50.1648 47.6079 50.1648 50.505C50.1605 54.3885 48.6159 58.1117 45.8698 60.8577C43.1238 63.6038 39.4006 65.1484 35.5171 65.1527Z" fill="#2F4F4F"/>
<path d="M25.6475 55.3266L23.951 56.1548C24.2497 56.7635 24.5957 57.3477 24.9859 57.9022L26.5281 56.8172C26.1958 56.3443 25.9013 55.8459 25.6475 55.3266ZM24.7082 48.5622L22.8521 48.2299C22.733 48.8976 22.6665 49.5736 22.6532 50.2518L24.5386 50.288C24.5492 49.7093 24.6052 49.1322 24.7059 48.5622H24.7082ZM25.8472 45.2988L24.1885 44.4027C23.8657 45.0004 23.5911 45.6229 23.3672 46.2643L25.147 46.885C25.3374 46.3387 25.5707 45.8083 25.8449 45.2988H25.8472ZM24.6404 52.0215L22.7719 52.2783C22.8646 52.9507 23.0106 53.6147 23.2084 54.264L25.0121 53.7149C24.8426 53.1613 24.7175 52.595 24.6381 52.0215H24.6404ZM45.4811 45.8818L47.1915 45.0867C46.9043 44.4719 46.5691 43.8807 46.189 43.3185L44.6267 44.3734C44.95 44.853 45.2349 45.3574 45.4788 45.8818H45.4811ZM27.9486 42.5505L26.65 41.1848C26.1586 41.6525 25.7048 42.1581 25.2928 42.697L26.7903 43.8421C27.1414 43.3822 27.5279 42.9503 27.9462 42.5505H27.9486ZM26.2829 59.4684C26.7552 59.9548 27.2649 60.4034 27.8074 60.8101L28.9379 59.3018C28.4745 58.9541 28.0391 58.5707 27.6355 58.1551L26.2829 59.4684ZM46.4219 49.2069L48.2942 48.9848C48.2144 48.3112 48.0816 47.645 47.8971 46.9922L46.0826 47.5065C46.2406 48.0635 46.3535 48.632 46.4219 49.2069ZM41.7288 39.2369C41.1349 38.9089 40.5161 38.6284 39.878 38.3979L39.2388 40.1715C39.7837 40.3681 40.3123 40.6074 40.8196 40.8871L41.7288 39.2369ZM44.9236 41.7284C44.4606 41.2331 43.9597 40.7747 43.4253 40.3574L42.2686 41.8441C42.7252 42.2011 43.1535 42.593 43.5494 43.0162L44.9236 41.7284ZM43.241 58.3078L44.5681 59.6473C45.0495 59.1699 45.4929 58.6558 45.8945 58.1096L44.3745 56.9938C44.0317 57.4615 43.6529 57.9019 43.2417 58.3109L43.241 58.3078ZM29.9774 38.8845C29.3655 39.1768 28.7777 39.5169 28.2192 39.9016L29.2896 41.4539C29.7661 41.1254 30.2679 40.8351 30.7902 40.5856L29.9774 38.8845ZM45.2883 55.5225L46.9656 56.3838C47.2757 55.78 47.5377 55.1527 47.749 54.5077L45.9569 53.9216C45.7764 54.4719 45.5528 55.0072 45.2883 55.5225ZM46.4975 50.5101C46.4974 51.0895 46.4523 51.6681 46.3625 52.2405L48.2248 52.5336C48.3301 51.8642 48.3829 51.1877 48.3829 50.5101H46.4975ZM37.1374 61.3723L37.415 63.2377C38.0858 63.1378 38.7477 62.9852 39.3945 62.7812L38.8278 60.9836C38.2755 61.1577 37.7103 61.2877 37.1374 61.3723ZM40.4333 60.332L41.2815 62.017C41.8874 61.7127 42.4684 61.3609 43.0189 60.9651L41.9185 59.4306C41.4478 59.768 40.9515 60.0681 40.434 60.3282L40.4333 60.332ZM33.8693 37.7432C33.1962 37.8294 32.5309 37.9689 31.8798 38.1604L32.4111 39.9695C32.9664 39.8065 33.5337 39.6876 34.1076 39.614L33.8693 37.7432ZM29.5255 61.8967C30.1262 62.2129 30.751 62.481 31.394 62.6986L31.9978 60.9127C31.4496 60.727 30.9169 60.4983 30.4046 60.2287L29.5255 61.8967ZM37.9163 37.8628C37.2498 37.7373 36.5745 37.6644 35.8967 37.6445L35.8411 39.53C36.4202 39.5469 36.9969 39.6093 37.5662 39.7166L37.9163 37.8628ZM33.3666 63.1945C34.0351 63.3064 34.7114 63.366 35.3893 63.3726L35.4078 61.4872C34.8281 61.4809 34.2498 61.4293 33.6781 61.333L33.3666 63.1945Z" fill="#B2D0CB"/>
<path d="M35.5267 57.3521C39.3465 57.3521 42.443 54.2556 42.443 50.4358C42.443 46.6161 39.3465 43.5195 35.5267 43.5195C31.7069 43.5195 28.6104 46.6161 28.6104 50.4358C28.6104 54.2556 31.7069 57.3521 35.5267 57.3521Z" fill="#2F4F4F"/>
<path fill-rule="evenodd" clip-rule="evenodd" d="M35.3026 49.3389C35.0304 48.8535 34.6359 48.499 34.1084 48.302C33.4171 48.0435 32.7453 48.1025 32.1019 48.4584C32.0161 48.5058 31.9352 48.5622 31.8544 48.6187C31.8177 48.6443 31.781 48.6699 31.7438 48.6947C31.6565 48.7806 31.5692 48.8665 31.4818 48.9521C31.4564 48.989 31.4303 49.0255 31.4043 49.0621C31.3477 49.1415 31.2911 49.2209 31.2407 49.3039C31.0227 49.6627 30.9212 50.0549 30.9236 50.4711C30.9266 50.9478 31.0687 51.3837 31.3444 51.7764C31.3743 51.819 31.4055 51.8606 31.4366 51.9021C31.4518 51.9223 31.4669 51.9425 31.4818 51.9627L31.7438 52.2203C31.7576 52.2298 31.7714 52.2393 31.7852 52.2487C31.8159 52.2697 31.8467 52.2907 31.8769 52.3127C32.3995 52.6901 32.9851 52.8381 33.623 52.7401C34.3843 52.6233 34.956 52.2236 35.334 51.5611C35.3568 51.5212 35.382 51.5075 35.4279 51.5083C35.5561 51.5104 35.6842 51.5101 35.8124 51.5097C35.8623 51.5095 35.9121 51.5094 35.9621 51.5094C36.1341 51.5094 36.3062 51.5094 36.4782 51.5094C37.3388 51.5093 38.1992 51.5093 39.0598 51.5102C39.1507 51.5102 39.2227 51.4843 39.2878 51.4192C39.4708 51.2361 39.6557 51.0548 39.8405 50.8735C39.9262 50.7893 40.012 50.7051 40.0976 50.6208C40.203 50.5169 40.2038 50.3987 40.0995 50.2959C40.0158 50.2135 39.932 50.1311 39.8481 50.0488C39.6565 49.8606 39.4649 49.6723 39.2744 49.4832C39.2202 49.4296 39.1589 49.4048 39.0839 49.4054C39.0527 49.4055 39.0215 49.406 38.9903 49.4064C38.9051 49.4076 38.8199 49.4088 38.7351 49.404C38.6146 49.3976 38.5322 49.4493 38.4651 49.5413C38.4317 49.5872 38.3951 49.6309 38.3573 49.676C38.3411 49.6954 38.3246 49.7151 38.308 49.7354C38.2778 49.7107 38.248 49.6867 38.2187 49.663C38.1498 49.6074 38.0833 49.5537 38.0183 49.498C37.879 49.3787 37.773 49.3787 37.6356 49.4966C37.5713 49.552 37.5049 49.605 37.4368 49.6594C37.4055 49.6844 37.3738 49.7097 37.3419 49.7357C37.3211 49.7099 37.3008 49.6848 37.2808 49.6602C37.2411 49.6114 37.2029 49.5643 37.1658 49.5166C37.0596 49.3795 36.9208 49.369 36.7968 49.4902C36.7403 49.5455 36.684 49.601 36.6265 49.6575C36.5973 49.6863 36.5678 49.7154 36.5378 49.7448C36.5094 49.7168 36.4813 49.6896 36.4536 49.6628C36.3961 49.607 36.3405 49.5531 36.287 49.4969C36.2293 49.4361 36.1625 49.4102 36.0787 49.4102C35.9811 49.4105 35.8835 49.4095 35.7859 49.4085C35.6628 49.4073 35.5398 49.4061 35.4167 49.4073C35.3581 49.4078 35.3297 49.3871 35.3026 49.3389ZM34.3166 50.4572C34.3166 49.9462 33.9023 49.5319 33.3912 49.5319C32.8802 49.5319 32.4659 49.9462 32.4659 50.4572C32.4659 50.9683 32.8802 51.3826 33.3912 51.3826C33.9023 51.3826 34.3166 50.9683 34.3166 50.4572Z" fill="#F7F2EC"/>
<path d="M6.54033 65.8945H5.28955V69.0446H6.54033V65.8945Z" fill="#2F4F4F"/>
<path d="M6.54058 74.5742H5.28979V77.7243H6.54058V74.5742Z" fill="#2F4F4F"/>
<path d="M3.15009 71.1836H0V72.4344H3.15009V71.1836Z" fill="#2F4F4F"/>
<path d="M11.8281 71.1836H8.67798V72.4344H11.8281V71.1836Z" fill="#2F4F4F"/>
<path d="M159.168 116.402H157.785V119.888H159.168V116.402Z" fill="#2F4F4F"/>
<path d="M159.168 126.004H157.785V129.489H159.168V126.004Z" fill="#2F4F4F"/>
<path d="M155.418 122.254H151.932V123.637H155.418V122.254Z" fill="#2F4F4F"/>
<path d="M165.021 122.254H161.536V123.637H165.021V122.254Z" fill="#2F4F4F"/>
<path d="M8.91776 142.871C10.0698 142.871 11.0037 141.937 11.0037 140.785C11.0037 139.633 10.0698 138.699 8.91776 138.699C7.76573 138.699 6.83183 139.633 6.83183 140.785C6.83183 141.937 7.76573 142.871 8.91776 142.871Z" fill="#B2D0CB"/>
<path d="M155.923 26.3671C157.075 26.3671 158.009 25.4332 158.009 24.2812C158.009 23.1292 157.075 22.1953 155.923 22.1953C154.771 22.1953 153.837 23.1292 153.837 24.2812C153.837 25.4332 154.771 26.3671 155.923 26.3671Z" fill="#B2D0CB"/>
<path opacity="0.2" d="M51.6074 24.228C52.4211 24.228 53.2165 23.9867 53.893 23.5346C54.5695 23.0826 55.0968 22.4401 55.4082 21.6883C55.7196 20.9366 55.8011 20.1094 55.6423 19.3114C55.4836 18.5133 55.0918 17.7803 54.5164 17.205C53.9411 16.6296 53.208 16.2378 52.41 16.0791C51.6119 15.9203 50.7848 16.0018 50.033 16.3132C49.2813 16.6245 48.6388 17.1518 48.1867 17.8284C47.7347 18.5049 47.4934 19.3003 47.4934 20.114C47.4934 21.2051 47.9268 22.2515 48.6984 23.023C49.4699 23.7945 50.5163 24.228 51.6074 24.228Z" fill="#073B36"/>
<path d="M98.5404 0H97.2896V3.15008H98.5404V0Z" fill="#24312E"/>
<path d="M98.5406 8.67969H97.2898V11.8298H98.5406V8.67969Z" fill="#24312E"/>
<path d="M95.1501 5.28906H92V6.53984H95.1501V5.28906Z" fill="#24312E"/>
<path d="M103.828 5.28906H100.678V6.53984H103.828V5.28906Z" fill="#24312E"/>
<path d="M151.933 57.0508C154.466 57.0508 156.519 54.9976 156.519 52.4648C156.519 49.9321 154.466 47.8789 151.933 47.8789C149.4 47.8789 147.347 49.9321 147.347 52.4648C147.347 54.9976 149.4 57.0508 151.933 57.0508Z" fill="#2F4F4F"/>
<path d="M79.723 109.411L66.93 103.438C59.104 107.441 57.2317 117.548 57.2317 126.341V133.14H74.8401L74.3065 132.31L79.723 109.411Z" fill="#F7F2EC"/>
<path d="M100.388 101.676H94.0845V104.059L101.482 132.83L101.27 133.143H118.145V126.344C118.143 115.097 115.069 101.676 100.388 101.676Z" fill="#F7F2EC"/>
<path d="M98.4136 132.312L92.2228 105.831C92.1402 105.478 91.9407 105.164 91.6567 104.939C91.3728 104.714 91.0211 104.592 90.6588 104.592H87.168L78.0899 101.655V98.125H89.9177V94.9141H76.4844C76.0586 94.9141 75.6502 95.0832 75.3491 95.3843C75.0481 95.6854 74.8789 96.0937 74.8789 96.5195V102.823C74.879 103.162 74.9866 103.492 75.1862 103.767C75.3858 104.041 75.6672 104.245 75.9899 104.349L86.4245 107.722C86.5842 107.774 86.7511 107.801 86.919 107.801H89.3913L95.1279 132.366L92.0829 136.902L94.7485 138.692L98.1872 133.574C98.3097 133.391 98.3931 133.184 98.4321 132.967C98.4711 132.75 98.4648 132.527 98.4136 132.312Z" fill="#2F4F4F"/>
<path d="M86.743 109.347L83.6031 108.676L78.6621 131.773C78.5744 132.18 78.6479 132.605 78.8672 132.959L82.4162 138.673L85.1434 136.979L81.9419 131.814L86.743 109.347Z" fill="#2F4F4F"/>
<path d="M96.954 90.875H93.743V96.5227H96.954V90.875Z" fill="#2F4F4F"/>
<path d="M80.4855 90.7383H77.2744V96.5235H80.4855V90.7383Z" fill="#2F4F4F"/>
<path d="M102.897 68.2163C99.4325 67.0009 93.767 64.0662 93.3224 61.339C93.2761 61.0618 93.158 60.8017 92.9798 60.5844C92.8016 60.3671 92.5696 60.2004 92.3069 60.1007C92.0442 60.001 91.76 59.9719 91.4825 60.0163C91.2051 60.0607 90.9441 60.177 90.7256 60.3536C85.2227 64.2123 78.709 66.3725 71.9908 66.5669C71.5765 66.5838 71.1847 66.7601 70.8974 67.0591C70.6101 67.3581 70.4496 67.7566 70.4493 68.1712V79.8223C70.4518 83.1424 71.7716 86.3257 74.119 88.6736C76.4664 91.0214 79.6496 92.3418 82.9696 92.345H91.4525C94.771 92.3412 97.9524 91.0213 100.299 88.6748C102.646 86.3282 103.965 83.1468 103.969 79.8283V69.7293C103.969 69.3972 103.866 69.0733 103.674 68.8023C103.482 68.5312 103.211 68.3265 102.897 68.2163ZM100.763 79.8283C100.76 82.2957 99.7787 84.6613 98.0339 86.4061C96.2891 88.1509 93.9235 89.1323 91.456 89.1352H82.9708C80.5031 89.1323 78.1373 88.1507 76.3925 86.4057C74.6477 84.6607 73.6664 82.2948 73.6639 79.8271V69.6866C79.8151 69.2359 85.7669 67.3088 91.0149 64.0686C93.1493 67.5072 98.4045 69.9036 100.761 70.8427V79.8295L100.763 79.8283Z" fill="#2F4F4F"/>
<path d="M90.2065 68.6055C86.1305 70.7045 81.7433 72.1342 77.2131 72.8398V79.8273C77.2147 81.353 77.8214 82.8158 78.9003 83.8946C79.9791 84.9734 81.4418 85.5802 82.9675 85.5818H91.4504C92.9761 85.5802 94.4388 84.9734 95.5176 83.8946C96.5965 82.8158 97.2032 81.353 97.2048 79.8273V73.1872C94.6464 72.036 92.2849 70.4899 90.2065 68.6055Z" fill="#F7F2EC"/>
<path d="M96.4028 51.7062C96.0366 50.7913 95.4611 49.975 94.7225 49.3226C93.9838 48.6703 93.1026 48.2001 92.1495 47.9498C87.3345 46.9618 82.3447 47.2512 77.6762 48.7893C68.6029 51.807 68.6776 59.1432 68.7511 66.2375C68.7582 66.8908 68.7642 67.5513 68.7642 68.2141C68.7645 68.6398 68.9337 69.048 69.2347 69.349C69.5358 69.6501 69.944 69.8193 70.3697 69.8196C84.039 69.8196 92.4044 63.1309 92.753 62.8463C92.8983 62.7278 93.0218 62.5849 93.1182 62.4241L95.9462 57.6812C96.4766 56.7874 96.7937 55.7833 96.8729 54.747C96.9521 53.7108 96.7912 52.6702 96.4028 51.7062ZM93.1894 56.0389L90.5214 60.5163C85.0452 64.271 78.606 66.3744 71.9692 66.5766C71.9692 66.458 71.9692 66.3288 71.9692 66.2055C71.8922 58.7092 72.1767 54.0066 78.6984 51.8366C81.359 50.9929 84.1338 50.5641 86.9251 50.5655C88.4104 50.5433 89.8926 50.707 91.3372 51.0529C91.8101 51.1754 92.2471 51.4084 92.6122 51.7329C92.9773 52.0574 93.2601 52.464 93.4372 52.9192C93.6391 53.4234 93.7216 53.9675 93.6784 54.5088C93.6352 55.0502 93.4675 55.5743 93.1882 56.0401L93.1894 56.0389Z" fill="#2F4F4F"/>
<path d="M104.083 51.9284C103.319 51.3657 102.442 50.9768 101.512 50.789C100.582 50.6011 99.6222 50.6189 98.6999 50.841C95.6809 51.4102 93.7541 54.9141 93.4434 55.5176L90.3605 60.7882C90.1712 61.1097 90.1003 61.4872 90.1601 61.8554C91.0755 67.6655 102.492 71.4908 103.789 71.9081C103.948 71.9594 104.113 71.9854 104.28 71.9852C104.706 71.9852 105.114 71.816 105.415 71.515C105.716 71.2139 105.885 70.8055 105.885 70.3797V56.1674C105.929 55.3701 105.789 54.5735 105.476 53.8387C105.164 53.1039 104.687 52.4504 104.083 51.9284ZM102.673 68.0936C98.7746 66.5581 94.3505 64.0822 93.4648 61.8364L96.2406 57.1006C96.2584 57.0697 96.2738 57.0401 96.2892 57.0093C96.7327 56.1271 98.0536 54.2311 99.2998 53.9939C99.7597 53.8706 100.24 53.8431 100.711 53.9131C101.182 53.983 101.634 54.149 102.038 54.4006C102.278 54.6211 102.461 54.8966 102.572 55.2035C102.682 55.5104 102.717 55.8395 102.672 56.1627L102.673 68.0936Z" fill="#2F4F4F"/>
<path d="M95.7872 94.9118H93.7715V98.1228H95.7872C103.745 98.1228 121.695 101.789 121.695 126.343V136.089L53.6795 136.316V126.342C53.5968 121.6 54.2774 116.876 55.6953 112.351C57.7703 105.602 62.6189 100.59 68.6816 98.9362C70.7368 98.3756 76.5162 98.1019 78.6464 98.122H80.6621V94.9111H78.6464C76.2251 94.8909 70.1561 95.2044 67.8207 95.8438C60.7062 97.7849 55.0277 103.603 52.6432 111.368C51.1228 116.21 50.391 121.266 50.4756 126.341V137.925C50.4756 138.35 50.6448 138.759 50.9458 139.06C51.2469 139.361 51.6553 139.53 52.0811 139.53L123.308 139.293C123.732 139.291 124.139 139.121 124.439 138.82C124.739 138.519 124.907 138.112 124.907 137.687V126.341C124.906 106.368 111.369 94.9118 95.7872 94.9118Z" fill="#2F4F4F"/>
</svg>
