<svg width="17" height="17" viewBox="0 0 17 17" fill="none" xmlns="http://www.w3.org/2000/svg">
<path d="M8.27768 9.05683C10.7323 9.05683 12.7221 7.06699 12.7221 4.6124C12.7221 2.15781 10.7323 0.167969 8.27768 0.167969C5.82309 0.167969 3.83325 2.15781 3.83325 4.6124C3.83325 7.06699 5.82309 9.05683 8.27768 9.05683Z" fill="#F6F2ED"/>
<path d="M2.16666 16.833H9.0333C8.05779 16.0511 7.41181 14.9311 7.22348 13.6952C7.03516 12.4592 7.31827 11.1977 8.01664 10.1608C6.5804 10.0894 5.22712 9.4665 4.23888 8.42188C3.13105 8.88953 2.18559 9.67326 1.52062 10.6752C0.855649 11.6771 0.500659 12.8527 0.5 14.0552V15.1663C0.501319 15.6079 0.677337 16.0311 0.989611 16.3433C1.30188 16.6556 1.72504 16.8316 2.16666 16.833Z" fill="#F6F2ED"/>
<path d="M8.27783 12.9436C8.27783 13.7127 8.50591 14.4646 8.93323 15.1041C9.36054 15.7436 9.9679 16.2421 10.6785 16.5364C11.3891 16.8308 12.171 16.9078 12.9254 16.7577C13.6798 16.6077 14.3727 16.2373 14.9166 15.6934C15.4604 15.1495 15.8308 14.4566 15.9809 13.7022C16.1309 12.9479 16.0539 12.166 15.7596 11.4554C15.4652 10.7448 14.9668 10.1374 14.3273 9.71008C13.6877 9.28277 12.9359 9.05469 12.1667 9.05469C11.1357 9.05586 10.1472 9.46596 9.41816 10.195C8.68911 10.9241 8.27901 11.9125 8.27783 12.9436ZM12.7223 11.8325V12.388H13.2778C13.4252 12.388 13.5665 12.4465 13.6707 12.5507C13.7748 12.6549 13.8334 12.7962 13.8334 12.9436C13.8334 13.0909 13.7748 13.2322 13.6707 13.3364C13.5665 13.4406 13.4252 13.4991 13.2778 13.4991H12.7223V14.0547C12.7223 14.202 12.6637 14.3433 12.5595 14.4475C12.4554 14.5517 12.314 14.6102 12.1667 14.6102C12.0194 14.6102 11.8781 14.5517 11.7739 14.4475C11.6697 14.3433 11.6112 14.202 11.6112 14.0547V13.4991H11.0556C10.9083 13.4991 10.767 13.4406 10.6628 13.3364C10.5586 13.2322 10.5 13.0909 10.5 12.9436C10.5 12.7962 10.5586 12.6549 10.6628 12.5507C10.767 12.4465 10.9083 12.388 11.0556 12.388H11.6112V11.8325C11.6112 11.6851 11.6697 11.5438 11.7739 11.4396C11.8781 11.3354 12.0194 11.2769 12.1667 11.2769C12.314 11.2769 12.4554 11.3354 12.5595 11.4396C12.6637 11.5438 12.7223 11.6851 12.7223 11.8325Z" fill="#F6F2ED"/>
</svg>
