<svg width="21" height="23" viewBox="0 0 21 23" fill="none" xmlns="http://www.w3.org/2000/svg">
<path fill-rule="evenodd" clip-rule="evenodd" d="M1.8435 6.79949C1.69847 6.79815 1.55461 6.82322 1.42033 6.87323C1.28605 6.92324 1.16407 6.99719 1.06151 7.09075C0.958956 7.18431 0.877894 7.2956 0.823072 7.4181C0.768251 7.54059 0.740771 7.67184 0.742244 7.80415V21.8693C0.742244 22.1358 0.858268 22.3913 1.06479 22.5797C1.27132 22.7681 1.55143 22.874 1.8435 22.874H15.0585C15.3506 22.874 15.6307 22.7681 15.8372 22.5797C16.0438 22.3913 16.1598 22.1358 16.1598 21.8693V7.80415C16.1598 7.53769 16.0438 7.28216 15.8372 7.09375C15.6307 6.90534 15.3506 6.79949 15.0585 6.79949H1.8435Z" fill="#2D6759"/>
<path fill-rule="evenodd" clip-rule="evenodd" d="M5.14459 1.77863C5.14311 1.64633 5.17059 1.51508 5.22542 1.39258C5.28024 1.27009 5.3613 1.1588 5.46386 1.06524C5.56641 0.97168 5.6884 0.897729 5.82267 0.847716C5.95695 0.797703 6.10081 0.772634 6.24584 0.773977H19.4609C19.753 0.773977 20.0331 0.879824 20.2396 1.06823C20.4461 1.25664 20.5621 1.51218 20.5621 1.77863V15.8438C20.5621 16.1103 20.4461 16.3658 20.2396 16.5542C20.0331 16.7426 19.753 16.8485 19.4609 16.8485H15.0559V14.8392H18.3596V2.78329H7.34709V7.80657H5.14459V1.77863Z" fill="#2D6759"/>
</svg>
