<svg xmlns="http://www.w3.org/2000/svg" width="40" height="40" viewBox="0 0 40 40" fill="none">
<path opacity="0.59" d="M30.932 0.16217H8.59222C3.84687 0.16217 0 4.01761 0 8.77353V31.1631C0 35.919 3.84687 39.7744 8.59222 39.7744H30.932C35.6774 39.7744 39.5242 35.919 39.5242 31.1631V8.77353C39.5242 4.01761 35.6774 0.16217 30.932 0.16217Z" fill="#41594C"/>
<path fill-rule="evenodd" clip-rule="evenodd" d="M11.314 14.7995C11.182 14.7981 11.051 14.8232 10.9288 14.8732C10.8066 14.9232 10.6955 14.9972 10.6022 15.0908C10.5088 15.1843 10.4351 15.2956 10.3851 15.4181C10.3352 15.5406 10.3102 15.6718 10.3116 15.8041V29.8693C10.3116 30.1358 10.4172 30.3913 10.6052 30.5797C10.7932 30.7681 11.0481 30.874 11.314 30.874H23.3431C23.6089 30.874 23.8639 30.7681 24.0519 30.5797C24.2399 30.3913 24.3455 30.1358 24.3455 29.8693V15.8041C24.3455 15.5377 24.2399 15.2822 24.0519 15.0937C23.8639 14.9053 23.6089 14.7995 23.3431 14.7995H11.314Z" fill="#F1F1F1"/>
<path fill-rule="evenodd" clip-rule="evenodd" d="M14.3213 9.77869C14.32 9.64639 14.345 9.51514 14.3949 9.39265C14.4448 9.27015 14.5186 9.15886 14.612 9.0653C14.7053 8.97174 14.8163 8.89779 14.9386 8.84778C15.0608 8.79776 15.1918 8.77269 15.3238 8.77404H27.3528C27.6187 8.77404 27.8737 8.87989 28.0617 9.0683C28.2497 9.2567 28.3553 9.51224 28.3553 9.77869V23.8439C28.3553 24.1103 28.2497 24.3659 28.0617 24.5543C27.8737 24.7427 27.6187 24.8485 27.3528 24.8485H23.3431V22.8392H26.3504V10.7834H16.3262V15.8066H14.3213V9.77869Z" fill="#F1F1F1"/>
</svg>
