<svg width="284" height="250" viewBox="0 0 284 250" fill="none" xmlns="http://www.w3.org/2000/svg">
<path opacity="0.26" d="M137.707 211.399C195.718 211.399 242.746 164.371 242.746 106.36C242.746 48.3476 195.718 1.31958 137.707 1.31958C79.6954 1.31958 32.668 48.3476 32.668 106.36C32.668 164.371 79.6954 211.399 137.707 211.399Z" fill="#073B36"/>
<path opacity="0.3" d="M257.998 146.415C259.778 146.415 261.517 145.888 262.997 144.899C264.477 143.91 265.63 142.505 266.311 140.861C266.992 139.216 267.17 137.407 266.823 135.662C266.476 133.916 265.619 132.313 264.361 131.054C263.102 129.796 261.499 128.939 259.754 128.592C258.008 128.245 256.199 128.423 254.555 129.104C252.91 129.785 251.505 130.938 250.516 132.418C249.528 133.898 249 135.637 249 137.417C249 139.804 249.948 142.092 251.636 143.78C253.323 145.467 255.612 146.415 257.998 146.415Z" fill="#073B36"/>
<path opacity="0.2" d="M271.169 111.299C272.385 111.299 273.574 110.938 274.586 110.263C275.597 109.587 276.385 108.627 276.85 107.503C277.316 106.379 277.438 105.143 277.2 103.95C276.963 102.757 276.377 101.661 275.517 100.801C274.657 99.9411 273.562 99.3554 272.369 99.1182C271.176 98.8809 269.939 99.0027 268.816 99.4681C267.692 99.9336 266.732 100.722 266.056 101.733C265.38 102.744 265.02 103.933 265.02 105.15C265.02 106.781 265.667 108.345 266.821 109.498C267.974 110.651 269.538 111.299 271.169 111.299Z" fill="#073B36"/>
<path opacity="0.3" d="M16.6894 77.1711C18.9465 77.1711 21.1529 76.5018 23.0296 75.2478C24.9063 73.9938 26.369 72.2115 27.2327 70.1262C28.0965 68.0409 28.3225 65.7463 27.8821 63.5326C27.4418 61.3188 26.3549 59.2854 24.7589 57.6893C23.1629 56.0933 21.1295 55.0064 18.9157 54.5661C16.702 54.1257 14.4075 54.3517 12.3222 55.2155C10.2369 56.0793 8.45459 57.542 7.20062 59.4187C5.94665 61.2954 5.27734 63.5018 5.27734 65.759C5.27734 68.7856 6.47968 71.6884 8.61985 73.8286C10.76 75.9688 13.6627 77.1711 16.6894 77.1711Z" fill="#073B36"/>
<path d="M94.2234 27.7072L92.9922 28.4181L94.3717 30.8074L95.6029 30.0966L94.2234 27.7072Z" fill="#508B82"/>
<path d="M98.032 34.2913L96.8008 35.0022L98.1803 37.3915L99.4115 36.6807L98.032 34.2913Z" fill="#508B82"/>
<path d="M100.327 29.3428L97.9375 30.7223L98.6483 31.9535L101.038 30.574L100.327 29.3428Z" fill="#508B82"/>
<path d="M93.7487 33.1438L91.3594 34.5233L92.0702 35.7545L94.4595 34.3751L93.7487 33.1438Z" fill="#508B82"/>
<path d="M58.4108 236.159H56.5117V239.845H58.4108V236.159Z" fill="#508B82"/>
<path d="M58.4108 246.315H56.5117V250H58.4108V246.315Z" fill="#508B82"/>
<path d="M64.3808 242.131H60.6953V244.03H64.3808V242.131Z" fill="#508B82"/>
<path d="M54.2207 242.131H50.5352V244.03H54.2207V242.131Z" fill="#508B82"/>
<path d="M3.76475 53.8161C5.84396 53.8161 7.5295 52.1305 7.5295 50.0513C7.5295 47.9721 5.84396 46.2865 3.76475 46.2865C1.68554 46.2865 0 47.9721 0 50.0513C0 52.1305 1.68554 53.8161 3.76475 53.8161Z" fill="#508B82"/>
<path d="M17.1502 109.328C18.7994 109.328 20.1364 107.991 20.1364 106.342C20.1364 104.693 18.7994 103.356 17.1502 103.356C15.501 103.356 14.1641 104.693 14.1641 106.342C14.1641 107.991 15.501 109.328 17.1502 109.328Z" fill="#508B82"/>
<path d="M280.2 130.016C282.042 130.016 283.536 128.522 283.536 126.679C283.536 124.837 282.042 123.343 280.2 123.343C278.357 123.343 276.863 124.837 276.863 126.679C276.863 128.522 278.357 130.016 280.2 130.016Z" fill="#508B82"/>
<path d="M227.718 117.652L226.629 116.738L224.855 118.851L225.945 119.765L227.718 117.652Z" fill="#508B82"/>
<path d="M222.827 123.475L221.738 122.562L219.965 124.675L221.054 125.589L222.827 123.475Z" fill="#508B82"/>
<path d="M228.266 123.949L226.152 122.175L225.239 123.264L227.352 125.038L228.266 123.949Z" fill="#508B82"/>
<path d="M222.442 119.062L220.328 117.288L219.414 118.378L221.528 120.151L222.442 119.062Z" fill="#508B82"/>
<path d="M176.91 66.3163H156.098V68.3005H176.908C181.135 68.3049 185.188 69.986 188.177 72.975C191.166 75.9641 192.847 80.0168 192.852 84.2439V94.648C191.344 91.7183 189.058 89.2602 186.246 87.5432C183.434 85.8263 180.203 84.9167 176.908 84.9142H82.8991C82.8594 84.9117 82.8195 84.9117 82.7798 84.9142C82.5745 84.93 82.3683 84.93 82.163 84.9142C82.019 84.9142 81.8751 84.9039 81.7271 84.9039C79.5242 84.9039 77.4116 84.0289 75.854 82.4712C74.2963 80.9136 73.4213 78.8009 73.4213 76.5981C73.4213 74.3953 74.2963 72.2826 75.854 70.725C77.4116 69.1673 79.5242 68.2923 81.7271 68.2923H110.842V66.3081H81.7353C79.0062 66.3081 76.3889 67.3922 74.4592 69.322C72.5294 71.2517 71.4453 73.869 71.4453 76.5981C71.4453 79.3272 72.5294 81.9445 74.4592 83.8743C76.3889 85.804 79.0062 86.8881 81.7353 86.8881C81.8545 86.8881 81.9738 86.8881 82.091 86.8881C82.3778 86.9087 82.6657 86.9087 82.9525 86.8881H176.908C181.135 86.893 185.188 88.5743 188.176 91.5632C191.165 94.5522 192.847 98.6046 192.852 102.832C192.845 102.966 192.867 103.1 192.914 103.225C192.961 103.351 193.033 103.466 193.126 103.563C193.218 103.66 193.33 103.737 193.453 103.79C193.577 103.843 193.709 103.87 193.844 103.87C193.978 103.87 194.111 103.843 194.234 103.79C194.358 103.737 194.469 103.66 194.562 103.563C194.654 103.466 194.727 103.351 194.774 103.225C194.821 103.1 194.842 102.966 194.836 102.832V84.2439C194.83 79.4912 192.94 74.9348 189.58 71.5739C186.219 68.2131 181.663 66.3223 176.91 66.3163Z" fill="#508B82"/>
<path d="M110.133 72.571C110.133 71.9089 110.16 71.255 110.219 70.6135H81.7395C80.151 70.6135 78.6276 71.2446 77.5043 72.3678C76.381 73.4911 75.75 75.0146 75.75 76.6031C75.75 78.1916 76.381 79.7151 77.5043 80.8384C78.6276 81.9616 80.151 82.5927 81.7395 82.5927C81.9184 82.5927 82.0973 82.5927 82.268 82.605C82.3543 82.605 82.4325 82.6173 82.5065 82.6173L82.7121 82.5906H112.434C110.918 79.468 110.131 76.042 110.133 72.571Z" fill="#508B82"/>
<path d="M176.907 70.6136H156.029C156.088 71.2552 156.115 71.9111 156.115 72.5711C156.119 76.0423 155.334 79.4691 153.82 82.5928H176.907C181.952 82.5887 186.815 84.4773 190.535 87.8853V84.2398C190.531 80.6267 189.094 77.1627 186.539 74.6081C183.984 72.0535 180.52 70.6169 176.907 70.6136Z" fill="#508B82"/>
<path d="M155.754 122.58C156.539 121.789 157.473 121.162 158.503 120.735C159.532 120.308 160.637 120.091 161.751 120.094H193.842C193.972 120.095 194.101 120.069 194.222 120.019C194.343 119.97 194.452 119.896 194.544 119.804C194.637 119.712 194.71 119.602 194.76 119.482C194.809 119.361 194.835 119.232 194.835 119.101V102.835C194.829 98.0821 192.939 93.5253 189.578 90.1644C186.217 86.8035 181.66 84.9129 176.907 84.9075H82.9022C82.8625 84.905 82.8226 84.905 82.7829 84.9075C82.5776 84.9237 82.3714 84.9237 82.1661 84.9075C82.0221 84.9075 81.8782 84.8972 81.7322 84.8972C79.5301 84.9043 77.4151 84.0376 75.8513 82.4873C74.2874 80.9369 73.4024 78.8295 73.3904 76.6274C73.3788 76.3721 73.2692 76.1311 73.0844 75.9545C72.8996 75.778 72.6539 75.6794 72.3983 75.6794C72.1428 75.6794 71.897 75.778 71.7123 75.9545C71.5275 76.1311 71.4179 76.3721 71.4062 76.6274V162.394C71.4062 162.416 71.4062 162.441 71.4062 162.464C71.5988 165.045 72.758 167.459 74.6524 169.223C76.5468 170.987 79.0368 171.971 81.6253 171.979H176.909C181.662 171.974 186.219 170.083 189.58 166.723C192.941 163.362 194.831 158.805 194.837 154.052V138.049C194.837 137.918 194.812 137.789 194.762 137.668C194.712 137.548 194.639 137.438 194.547 137.346C194.454 137.254 194.345 137.181 194.224 137.131C194.103 137.081 193.974 137.055 193.844 137.056H161.753C160.075 137.056 158.434 136.558 157.038 135.626C155.642 134.693 154.555 133.368 153.912 131.817C153.27 130.266 153.102 128.559 153.43 126.913C153.758 125.267 154.566 123.755 155.754 122.568V122.58ZM151.279 128.582C151.283 131.358 152.388 134.02 154.351 135.983C156.314 137.946 158.975 139.05 161.751 139.054H192.851V154.064C192.846 158.291 191.165 162.344 188.176 165.333C185.187 168.322 181.134 170.003 176.907 170.008H81.6274C79.546 170.003 77.5429 169.214 76.0166 167.799C74.4902 166.384 73.5527 164.446 73.3904 162.371V82.6766C74.3521 83.9852 75.6084 85.0489 77.0576 85.7815C78.5069 86.5142 80.1083 86.8952 81.7322 86.8938C81.8515 86.8938 81.9707 86.8938 82.0879 86.8938C82.3747 86.9143 82.6627 86.9143 82.9495 86.8938H176.905C181.132 86.8981 185.185 88.5793 188.174 91.5683C191.163 94.5573 192.844 98.61 192.849 102.837V118.112H161.753C158.977 118.116 156.316 119.221 154.353 121.184C152.39 123.147 151.285 125.808 151.281 128.584L151.279 128.582Z" fill="#B2D0CB"/>
<path d="M161.757 119.102H190.543V102.835C190.538 99.2224 189.101 95.7589 186.546 93.2042C183.992 90.6494 180.528 89.212 176.915 89.2072H83.0603C82.9069 89.2266 82.7523 89.2355 82.5977 89.2339V167.691H176.911C180.524 167.687 183.989 166.25 186.543 163.695C189.098 161.14 190.535 157.676 190.539 154.062V138.059H161.753C159.239 138.059 156.828 137.061 155.05 135.283C153.272 133.505 152.273 131.094 152.273 128.579C152.273 126.065 153.272 123.654 155.05 121.876C156.828 120.098 159.239 119.099 161.753 119.099L161.757 119.102Z" fill="#F2EDE6"/>
<path d="M161.756 138.065C160.588 138.067 159.431 137.851 158.343 137.43C158.308 137.695 158.29 137.962 158.289 138.23C158.289 139.866 158.939 141.435 160.096 142.592C161.253 143.748 162.822 144.398 164.458 144.398H190.536V138.061L161.756 138.065Z" fill="#04594C"/>
<path d="M134.431 66.4044H131.672V71.3392H134.431C135.086 71.3392 135.713 71.0792 136.176 70.6165C136.639 70.1538 136.899 69.5262 136.899 68.8718C136.899 68.2174 136.639 67.5898 136.176 67.1271C135.713 66.6644 135.086 66.4044 134.431 66.4044Z" fill="#71CCE0"/>
<path d="M135.554 73.9012H131.672V79.2472H135.556C135.907 79.2476 136.255 79.1788 136.58 79.0447C136.904 78.9107 137.199 78.714 137.448 78.4658C137.824 78.0923 138.081 77.6153 138.186 77.0953C138.29 76.5753 138.238 76.036 138.035 75.5459C137.832 75.0558 137.488 74.6371 137.047 74.3431C136.605 74.0492 136.086 73.8932 135.556 73.895L135.554 73.9012Z" fill="#71CCE0"/>
<path d="M151.85 59.2346C149.913 54.7273 146.414 51.0702 141.997 48.9349C137.58 46.7996 132.54 46.3294 127.804 47.6107C123.068 48.8919 118.954 51.8386 116.215 55.9097C113.477 59.9807 112.3 64.9029 112.899 69.7724C112.932 70.0562 112.971 70.3337 113.018 70.6134C113.775 75.2531 116.118 79.4866 119.647 82.5925H146.605C150.136 79.487 152.48 75.2536 153.24 70.6134C153.285 70.3358 153.327 70.0582 153.359 69.7724C153.8 66.1883 153.28 62.5515 151.852 59.2346H151.85ZM142.186 80.2382H124.092V79.4569H125.972C126.127 79.4818 126.286 79.4699 126.436 79.4223C126.586 79.3747 126.722 79.2927 126.835 79.1828C126.947 79.0728 127.033 78.9381 127.084 78.7893C127.135 78.6406 127.15 78.4819 127.129 78.326V67.3647C127.15 67.2088 127.135 67.0501 127.084 66.9014C127.033 66.7526 126.947 66.6178 126.835 66.5079C126.722 66.398 126.586 66.3159 126.436 66.2683C126.286 66.2207 126.127 66.2089 125.972 66.2338H124.092V63.5423H129.167V59.5245H131.667V63.5464H133.248V59.5245H135.742V63.5464H137.488C138.531 63.5492 139.536 63.9407 140.306 64.6445C141.076 65.3483 141.557 66.3138 141.653 67.3526C141.75 68.3914 141.456 69.4289 140.829 70.2626C140.201 71.0963 139.286 71.6663 138.261 71.8615C139.226 71.8767 140.167 72.1633 140.976 72.6882C141.786 73.2131 142.431 73.9553 142.839 74.8299C143.247 75.7044 143.4 76.676 143.281 77.6335C143.162 78.591 142.777 79.4958 142.168 80.2444L142.186 80.2382Z" fill="#508B82"/>
<path d="M134.431 66.4044H131.672V71.3392H134.431C135.086 71.3392 135.713 71.0792 136.176 70.6165C136.639 70.1538 136.899 69.5262 136.899 68.8718C136.899 68.2174 136.639 67.5898 136.176 67.1271C135.713 66.6644 135.086 66.4044 134.431 66.4044Z" fill="#B2D0CB"/>
<path d="M135.554 73.9012H131.672V79.2472H135.556C135.907 79.2476 136.255 79.1788 136.58 79.0447C136.904 78.9107 137.199 78.714 137.448 78.4658C137.824 78.0923 138.081 77.6153 138.186 77.0953C138.29 76.5753 138.238 76.036 138.035 75.5459C137.832 75.0558 137.488 74.6371 137.047 74.3431C136.605 74.0492 136.086 73.8932 135.556 73.895L135.554 73.9012Z" fill="#B2D0CB"/>
<path d="M153.432 70.611C153.411 70.3272 153.378 70.0497 153.345 69.77C152.737 64.8335 150.344 60.29 146.618 56.9951C142.892 53.7003 138.09 51.8816 133.116 51.8816C128.142 51.8816 123.34 53.7003 119.614 56.9951C115.888 60.29 113.495 64.8335 112.887 69.77C112.854 70.0476 112.821 70.3252 112.8 70.611C112.755 71.1538 112.734 71.7028 112.734 72.2559C112.732 75.8891 113.703 79.4566 115.545 82.5881H150.685C152.527 79.4566 153.497 75.8891 153.495 72.2559C153.497 71.7028 153.485 71.1538 153.432 70.611ZM142.172 80.2358H124.093V79.4545H125.972C126.127 79.4794 126.286 79.4676 126.436 79.4199C126.586 79.3723 126.723 79.2903 126.835 79.1804C126.948 79.0704 127.033 78.9357 127.084 78.7869C127.135 78.6382 127.151 78.4795 127.129 78.3236V67.3623C127.151 67.2064 127.135 67.0477 127.084 66.899C127.033 66.7502 126.948 66.6154 126.835 66.5055C126.723 66.3956 126.586 66.3135 126.436 66.2659C126.286 66.2183 126.127 66.2065 125.972 66.2314H124.093V63.5399H129.167V59.518H131.667V63.5399H133.249V59.518H135.743V63.5399H137.488C138.532 63.5427 139.536 63.9342 140.307 64.638C141.077 65.3418 141.557 66.3073 141.654 67.3461C141.75 68.3849 141.456 69.4224 140.829 70.2561C140.202 71.0898 139.286 71.6598 138.261 71.8549C139.226 71.8702 140.167 72.1568 140.977 72.6817C141.786 73.2066 142.432 73.9488 142.839 74.8233C143.247 75.6979 143.4 76.6695 143.281 77.627C143.163 78.5845 142.777 79.4893 142.168 80.2379L142.172 80.2358Z" fill="#B2D0CB"/>
<path d="M154.426 70.5477C154.405 70.2537 154.372 69.9658 154.335 69.6574C153.681 64.4929 151.165 59.7444 147.259 56.3025C143.354 52.8606 138.327 50.9615 133.121 50.9615C127.915 50.9615 122.888 52.8606 118.982 56.3025C115.077 59.7444 112.561 64.4929 111.906 69.6574C111.872 69.9514 111.837 70.2455 111.816 70.5313C111.769 71.0823 111.746 71.6498 111.746 72.2626C111.745 76.0729 112.763 79.8141 114.695 83.0985L116.405 82.091C114.654 79.1111 113.731 75.717 113.732 72.2605C113.732 71.7033 113.753 71.1933 113.796 70.6834C113.815 70.4141 113.847 70.1529 113.878 69.8939C114.456 65.1952 116.733 60.8702 120.279 57.7344C123.826 54.5986 128.397 52.8687 133.131 52.8707C137.865 52.8727 142.435 54.6066 145.979 57.7454C149.523 60.8843 151.796 65.2112 152.369 69.9103C152.4 70.1653 152.431 70.4223 152.45 70.6999C152.493 71.1913 152.513 71.7012 152.513 72.2626C152.516 75.7193 151.593 79.1136 149.84 82.093L151.551 83.1005C151.991 82.3533 152.385 81.5801 152.731 80.7853C153.904 78.098 154.506 75.1966 154.5 72.2646C154.493 71.6457 154.471 71.0803 154.426 70.5477Z" fill="#508B82"/>
<path d="M107.6 96.8192H109.584V94.835H107.6V96.8192ZM111.568 96.8192H113.552V94.835H111.576L111.568 96.8192ZM103.629 96.8192H105.614V94.835H103.629V96.8192ZM127.444 96.8192H129.428V94.835H127.444V96.8192ZM123.475 96.8192H125.46V94.835H123.475V96.8192ZM99.6611 96.8192H101.645V94.835H99.6611V96.8192ZM131.414 96.8192H133.398V94.835H131.414V96.8192ZM115.539 96.8192H117.523V94.835H115.539V96.8192ZM119.507 96.8192H121.491V94.835H119.507V96.8192ZM75.8468 96.8192H77.831V94.835H75.8468V96.8192ZM95.6927 96.8192H97.6769V94.835H95.6927V96.8192ZM72.4336 96.8192H73.8729V94.835H72.4336V96.8192ZM79.8172 96.8192H81.8014V94.835H79.8172V96.8192ZM83.7856 96.8192H85.7698V94.835H83.7856V96.8192ZM91.7244 96.8192H93.7086V94.835H91.7244V96.8192ZM87.756 96.8192H89.7402V94.835H87.756V96.8192ZM171.108 96.8192H173.092V94.835H171.108V96.8192ZM182.921 115.797H184.905V113.813H182.925L182.921 115.797ZM178.712 97.0865C179.254 97.2586 179.769 97.5064 180.242 97.8226L181.346 96.1777C180.718 95.7569 180.033 95.4274 179.312 95.1989L178.712 97.0865ZM183.03 97.6807L181.512 98.9576C181.879 99.3926 182.182 99.8771 182.413 100.397L184.226 99.5929C183.918 98.9056 183.513 98.2652 183.026 97.691L183.03 97.6807ZM175.081 96.8089H177.042L177.089 94.8247H175.081V96.8089ZM182.925 107.85H184.909V105.866H182.925V107.85ZM182.925 111.819H184.909V109.835H182.925V111.819ZM184.839 101.768L182.871 102.029C182.907 102.295 182.924 102.562 182.925 102.829V103.882H184.909V102.829C184.907 102.481 184.882 102.132 184.835 101.787L184.839 101.768ZM167.142 96.8089H169.126V94.8247H167.142V96.8089ZM151.264 96.8089H153.248V94.8247H151.26L151.264 96.8089ZM143.325 96.8089H145.31V94.8247H143.325V96.8089ZM139.357 96.8089H141.341V94.8247H139.357V96.8089ZM147.296 96.8089H149.28V94.8247H147.296V96.8089ZM155.235 96.8089H157.219V94.8247H155.235V96.8089ZM135.389 96.8089H137.373V94.8247H135.389V96.8089ZM159.203 96.8089H161.187V94.8247H159.203V96.8089ZM163.171 96.8089H165.156V94.8247H163.171V96.8089Z" fill="#04594C"/>
<path d="M112.137 162.073H114.122V160.089H112.137V162.073ZM116.106 162.073H118.09V160.089H116.112L116.106 162.073ZM108.167 162.073H110.149V160.089H108.165L108.167 162.073ZM131.981 162.073H133.965V160.089H131.981V162.073ZM120.074 162.073H122.058V160.089H120.074V162.073ZM135.95 162.073H137.934V160.089H135.95V162.073ZM124.042 162.073H126.027V160.089H124.042V162.073ZM128.011 162.073H129.995V160.089H128.011V162.073ZM80.3802 162.073H82.3644V160.089H80.3802V162.073ZM100.226 162.073H102.21V160.089H100.226V162.073ZM84.3486 162.073H86.3327V160.089H84.3486V162.073ZM72.4414 162.073H74.4256V160.089H72.4414V162.073ZM76.4098 162.073H78.394V160.089H76.4098V162.073ZM96.2557 162.073H98.2399V160.089H96.2557V162.073ZM88.3169 162.073H90.3011V160.089H88.3169V162.073ZM92.2853 162.073H94.2695V160.089H92.2853V162.073ZM104.192 162.073H106.177V160.089H104.192V162.073ZM181.806 157.562L183.42 158.717C183.861 158.102 184.212 157.427 184.462 156.713L182.589 156.057C182.403 156.593 182.141 157.1 181.812 157.562H181.806ZM171.669 162.073H173.653V160.089H171.669V162.073ZM182.926 154.066C182.926 154.175 182.926 154.284 182.926 154.393L184.909 154.5C184.909 154.358 184.921 154.216 184.921 154.068V152.458H182.937L182.926 154.066ZM176.906 160.089H175.637V162.073H176.906C177.181 162.073 177.455 162.06 177.729 162.032L177.523 160.058C177.32 160.079 177.116 160.089 176.912 160.089H176.906ZM179.168 159.649L179.914 161.487C180.614 161.202 181.271 160.819 181.863 160.35L180.63 158.793C180.187 159.148 179.696 159.438 179.172 159.655L179.168 159.649ZM182.929 140.555V142.54H184.913V140.555H182.929ZM139.922 162.073H141.906V160.089H139.922V162.073ZM182.933 150.476H184.917V148.492H182.937L182.933 150.476ZM182.933 146.508H184.917V144.524H182.937L182.933 146.508ZM147.861 162.073H149.845V160.089H147.861V162.073ZM151.829 162.073H153.813V160.089H151.829V162.073ZM143.89 162.073H145.875V160.089H143.89V162.073ZM163.736 162.073H165.721V160.089H163.736V162.073ZM167.705 162.073H169.689V160.089H167.705V162.073ZM155.798 162.073H157.782V160.089H155.796L155.798 162.073ZM159.766 162.073H161.75V160.089H159.766V162.073Z" fill="#04594C"/>
<path d="M202.022 108.613C201.399 107.986 200.657 107.489 199.841 107.151C199.025 106.812 198.149 106.639 197.266 106.641H193.853C193.722 106.641 193.593 106.666 193.472 106.716C193.352 106.766 193.242 106.839 193.15 106.932C193.057 107.024 192.984 107.133 192.934 107.254C192.885 107.375 192.859 107.504 192.859 107.634V119.106C192.859 119.236 192.885 119.365 192.934 119.486C192.984 119.607 193.057 119.716 193.15 119.808C193.242 119.901 193.352 119.974 193.472 120.024C193.593 120.074 193.722 120.099 193.853 120.099H197.266C198.596 120.098 199.896 119.703 201.002 118.964C202.108 118.225 202.97 117.174 203.479 115.945C203.988 114.716 204.121 113.364 203.862 112.059C203.602 110.755 202.962 109.556 202.022 108.615V108.613ZM197.266 118.113H194.825V108.625H197.247C198.505 108.625 199.712 109.125 200.601 110.015C201.491 110.904 201.991 112.111 201.991 113.369C201.991 114.627 201.491 115.834 200.601 116.723C199.712 117.613 198.505 118.113 197.247 118.113H197.266Z" fill="#508B82"/>
<path d="M198.988 111.655C198.763 111.428 198.496 111.249 198.202 111.127C197.907 111.005 197.591 110.942 197.273 110.943H197.168V115.798H197.273C197.753 115.798 198.223 115.656 198.623 115.389C199.022 115.122 199.334 114.743 199.517 114.299C199.701 113.855 199.749 113.366 199.654 112.895C199.56 112.424 199.328 111.992 198.988 111.652V111.655Z" fill="#B2D0CB"/>
<path d="M197.266 122.412H161.762C160.126 122.412 158.557 123.062 157.4 124.219C156.244 125.375 155.594 126.944 155.594 128.58C155.594 130.216 156.244 131.785 157.4 132.942C158.557 134.099 160.126 134.749 161.762 134.749H197.274C197.916 134.749 198.532 134.494 198.987 134.039C199.441 133.585 199.696 132.969 199.696 132.327V122.085C198.904 122.303 198.087 122.413 197.266 122.412Z" fill="#B2D0CB"/>
<path d="M202.993 112.378C202.863 112.378 202.734 112.403 202.613 112.453C202.492 112.503 202.383 112.576 202.291 112.668C202.198 112.76 202.125 112.87 202.075 112.991C202.025 113.111 202 113.241 202 113.371C202 114.629 201.5 115.835 200.61 116.725C199.721 117.614 198.515 118.114 197.257 118.115H161.753C158.976 118.115 156.312 119.218 154.348 121.182C152.385 123.146 151.281 125.809 151.281 128.587C151.281 131.364 152.385 134.028 154.348 135.991C156.312 137.955 158.976 139.059 161.753 139.059H197.257C199.04 139.058 200.749 138.349 202.011 137.089C203.272 135.829 203.982 134.12 203.984 132.337V113.371C203.984 113.108 203.88 112.856 203.694 112.67C203.508 112.483 203.256 112.378 202.993 112.378ZM202 132.337C201.996 133.592 201.494 134.795 200.605 135.681C199.716 136.568 198.512 137.066 197.257 137.066H161.753C159.502 137.066 157.343 136.172 155.751 134.58C154.16 132.988 153.265 130.829 153.265 128.578C153.265 126.327 154.16 124.168 155.751 122.577C157.343 120.985 159.502 120.091 161.753 120.091H197.257C198.137 120.093 199.01 119.921 199.824 119.585C200.638 119.249 201.378 118.756 202 118.133V132.321V132.337Z" fill="#508B82"/>
<path d="M164.464 131.56C166.198 131.56 167.604 130.154 167.604 128.42C167.604 126.686 166.198 125.28 164.464 125.28C162.73 125.28 161.324 126.686 161.324 128.42C161.324 130.154 162.73 131.56 164.464 131.56Z" fill="#04594C"/>
<rect x="204.289" y="173.522" width="38.5736" height="39.6497" rx="19.2868" stroke="white"/>
<rect x="209" y="174.064" width="37.968" height="40.6497" rx="18.984" fill="#235C50"/>
<path opacity="0.5" d="M236.248 194.99C235.583 194.2 234.662 193.662 233.641 193.469C234.347 193.136 234.921 192.582 235.275 191.892C235.628 191.202 235.741 190.416 235.596 189.657C235.553 189.058 235.366 188.479 235.051 187.966C234.745 187.486 234.321 187.09 233.819 186.815C233.289 186.519 232.722 186.295 232.132 186.149C231.445 185.983 230.746 185.872 230.042 185.816V182.095H227.744V185.713C227.345 185.713 226.738 185.723 225.921 185.743V182.095H223.623V185.818C223.294 185.828 222.812 185.832 222.175 185.832L219.009 185.818V188.24H220.668C220.979 188.2 221.293 188.282 221.542 188.471C221.791 188.659 221.955 188.937 221.997 189.244V193.483C222.077 193.481 222.156 193.486 222.234 193.497H221.997V199.445C221.993 199.552 221.966 199.656 221.92 199.752C221.873 199.848 221.808 199.934 221.727 200.004C221.646 200.074 221.552 200.128 221.45 200.161C221.348 200.194 221.24 200.207 221.133 200.198H219.474L219 202.901H221.986H222.805H223.611V206.667H225.91V202.962C226.328 202.971 226.936 202.976 227.732 202.976V206.683H230.03V202.908C230.758 202.879 231.484 202.805 232.203 202.688C232.824 202.583 233.432 202.412 234.016 202.179C234.545 201.976 235.035 201.683 235.463 201.314C235.87 200.944 236.197 200.496 236.426 199.999C236.689 199.414 236.85 198.789 236.899 198.151C237.097 197.054 236.864 195.923 236.248 194.99ZM225.962 188.402H226.552L227.357 188.388C227.571 188.388 227.859 188.401 228.222 188.426C228.53 188.448 228.836 188.487 229.139 188.543C229.419 188.598 229.693 188.677 229.959 188.777C230.22 188.87 230.461 189.01 230.67 189.19C230.86 189.367 231.014 189.578 231.125 189.811C231.254 190.082 231.318 190.378 231.312 190.676C231.315 190.933 231.269 191.189 231.177 191.429C231.092 191.649 230.954 191.845 230.774 191.999C230.602 192.147 230.417 192.28 230.222 192.397C229.996 192.525 229.752 192.618 229.497 192.672C229.203 192.74 228.947 192.794 228.729 192.833C228.458 192.879 228.184 192.906 227.909 192.916L227.163 192.946C226.994 192.946 226.763 192.946 226.469 192.946H225.955V188.402H225.962ZM232.239 198.46C232.151 198.676 232.027 198.876 231.874 199.051C231.705 199.233 231.506 199.383 231.284 199.494C231.055 199.615 230.817 199.719 230.573 199.804C230.302 199.893 230.025 199.962 229.743 200.01C229.42 200.07 229.136 200.112 228.893 200.137C228.65 200.162 228.358 200.181 228.018 200.195C227.68 200.21 227.417 200.217 227.227 200.217H226.516H225.964V195.211L226.675 195.197C227.068 195.187 227.389 195.183 227.637 195.183C227.885 195.183 228.229 195.198 228.668 195.227C229.038 195.249 229.407 195.293 229.772 195.361C230.104 195.43 230.431 195.521 230.75 195.635C231.06 195.736 231.351 195.888 231.608 196.085C231.836 196.274 232.024 196.505 232.16 196.765C232.293 197.027 232.368 197.314 232.383 197.607C232.397 197.899 232.35 198.192 232.243 198.465L232.239 198.46Z" fill="white"/>
<rect x="28.1406" y="0.5" width="38.5736" height="39.6497" rx="19.2868" stroke="white"/>
<rect x="26.5977" y="3.12695" width="34" height="34.3959" rx="17" fill="#235C50"/>
<path opacity="0.5" d="M50.0365 20.7897C49.5189 20.1786 48.801 19.7629 48.0056 19.6138C48.5553 19.3566 49.0028 18.9282 49.2783 18.3953C49.5538 17.8624 49.6419 17.2551 49.5288 16.6679C49.4953 16.2055 49.3497 15.7576 49.1042 15.3616C48.8653 14.9907 48.5351 14.6848 48.1441 14.472C47.7314 14.2435 47.2893 14.0704 46.8296 13.9575C46.2946 13.8294 45.7501 13.7434 45.2012 13.7002V10.825H43.4103V13.6205C43.1002 13.6205 42.6269 13.6284 41.9906 13.6441V10.825H40.1997V13.702C39.9437 13.7093 39.5677 13.7129 39.0716 13.7129L36.605 13.702V15.5736H37.8974C38.1395 15.5422 38.3844 15.6061 38.5785 15.7514C38.7726 15.8968 38.9001 16.1116 38.9332 16.349V19.6247C38.9949 19.6236 39.0566 19.6272 39.1178 19.6356H38.9332V24.232C38.9295 24.3142 38.9089 24.3948 38.8727 24.469C38.8365 24.5431 38.7854 24.6094 38.7225 24.6637C38.6595 24.718 38.5861 24.7593 38.5065 24.785C38.4269 24.8108 38.3428 24.8205 38.2593 24.8136H36.9669L36.5977 26.9026H38.9239H39.5627H40.1905V29.8123H41.9813V26.9497C42.3075 26.9569 42.7807 26.9605 43.4011 26.9605V29.825H45.192V26.908C45.7593 26.8852 46.3247 26.8283 46.885 26.7377C47.3687 26.6564 47.8422 26.5246 48.2973 26.3445C48.7101 26.1876 49.0918 25.9614 49.4254 25.676C49.7422 25.3899 49.9971 25.0443 50.175 24.6596C50.3805 24.208 50.5054 23.7251 50.5442 23.2319C50.6982 22.3841 50.5166 21.5106 50.0365 20.7897ZM42.022 15.6986H42.4817L43.1094 15.6877C43.2755 15.6877 43.5002 15.6974 43.7833 15.7167C44.023 15.7338 44.2615 15.764 44.4978 15.8073C44.7155 15.8501 44.9291 15.9107 45.1366 15.9885C45.3398 16.06 45.5277 16.1681 45.6905 16.3074C45.8383 16.4441 45.9586 16.607 46.0449 16.7875C46.1455 16.9963 46.1954 17.2251 46.1908 17.456C46.1931 17.6546 46.1574 17.8519 46.0855 18.0376C46.0197 18.2076 45.9118 18.3589 45.7717 18.4779C45.6373 18.5921 45.4934 18.6952 45.3415 18.7859C45.1654 18.8846 44.9749 18.9561 44.7766 18.9978C44.5476 19.051 44.3482 19.0926 44.1784 19.1228C43.9671 19.1577 43.7537 19.1788 43.5396 19.1863L42.958 19.2098C42.8263 19.2098 42.646 19.2098 42.417 19.2098H42.0164V15.6986H42.022ZM46.9127 23.4711C46.8442 23.6376 46.7481 23.7919 46.6283 23.9276C46.4973 24.0679 46.3416 24.1839 46.1686 24.2701C45.9905 24.3636 45.8054 24.4436 45.6148 24.5092C45.4037 24.5782 45.1877 24.6314 44.9686 24.6687C44.7162 24.7146 44.4953 24.7472 44.3058 24.7665C44.1162 24.7858 43.8891 24.8009 43.6245 24.8118C43.3611 24.8227 43.1555 24.8281 43.0078 24.8281H42.454H42.0238V20.96L42.5777 20.9491C42.8841 20.9419 43.134 20.9382 43.3273 20.9382C43.5205 20.9382 43.7882 20.9497 44.1304 20.9727C44.4191 20.9892 44.7064 21.0237 44.9907 21.0759C45.2496 21.129 45.5044 21.1999 45.7532 21.2879C45.9947 21.3654 46.2207 21.4831 46.4216 21.6358C46.599 21.7812 46.7452 21.9598 46.8517 22.1612C46.9549 22.3637 47.0138 22.5851 47.025 22.8113C47.0361 23.0374 46.9991 23.2634 46.9164 23.4747L46.9127 23.4711Z" fill="white"/>
</svg>
