<svg width="284" height="250" viewBox="0 0 284 250" fill="none" xmlns="http://www.w3.org/2000/svg">
<path opacity="0.26" d="M137.708 211.4C195.72 211.4 242.747 164.372 242.747 106.36C242.747 48.3477 195.72 1.3197 137.708 1.3197C79.6972 1.3197 32.6697 48.3477 32.6697 106.36C32.6697 164.372 79.6972 211.4 137.708 211.4Z" fill="#073B36"/>
<path opacity="0.3" d="M257.999 146.415C259.778 146.415 261.518 145.888 262.998 144.899C264.477 143.91 265.631 142.505 266.312 140.861C266.993 139.216 267.171 137.407 266.824 135.662C266.477 133.916 265.62 132.313 264.361 131.055C263.103 129.796 261.499 128.939 259.754 128.592C258.009 128.245 256.199 128.423 254.555 129.104C252.911 129.785 251.506 130.938 250.517 132.418C249.528 133.898 249 135.638 249 137.417C249.001 139.804 249.949 142.092 251.636 143.78C253.324 145.467 255.612 146.415 257.999 146.415Z" fill="#073B36"/>
<path opacity="0.2" d="M271.17 111.299C272.386 111.299 273.575 110.938 274.586 110.263C275.597 109.587 276.385 108.627 276.851 107.503C277.316 106.379 277.438 105.143 277.201 103.95C276.964 102.757 276.378 101.661 275.518 100.801C274.658 99.9411 273.562 99.3554 272.369 99.1182C271.176 98.8809 269.94 99.0027 268.816 99.4681C267.693 99.9336 266.732 100.722 266.056 101.733C265.381 102.744 265.02 103.933 265.02 105.15C265.02 106.781 265.668 108.345 266.821 109.498C267.974 110.651 269.539 111.299 271.17 111.299Z" fill="#073B36"/>
<path opacity="0.3" d="M16.6894 77.1711C18.9465 77.1711 21.1529 76.5018 23.0296 75.2478C24.9063 73.9938 26.369 72.2115 27.2327 70.1262C28.0965 68.0409 28.3225 65.7463 27.8821 63.5326C27.4418 61.3188 26.3549 59.2854 24.7589 57.6893C23.1629 56.0933 21.1295 55.0064 18.9157 54.5661C16.702 54.1257 14.4075 54.3517 12.3222 55.2155C10.2369 56.0793 8.45459 57.542 7.20062 59.4187C5.94665 61.2954 5.27734 63.5018 5.27734 65.759C5.27734 68.7856 6.47968 71.6884 8.61985 73.8286C10.76 75.9688 13.6627 77.1711 16.6894 77.1711Z" fill="#073B36"/>
<path d="M94.2249 27.7074L92.9937 28.4182L94.3731 30.8076L95.6043 30.0967L94.2249 27.7074Z" fill="#596F66"/>
<path d="M98.0335 34.2914L96.8022 35.0023L98.1817 37.3916L99.4129 36.6807L98.0335 34.2914Z" fill="#596F66"/>
<path d="M100.328 29.3428L97.939 30.7223L98.6498 31.9535L101.039 30.574L100.328 29.3428Z" fill="#596F66"/>
<path d="M93.7492 33.144L91.3599 34.5234L92.0707 35.7547L94.46 34.3752L93.7492 33.144Z" fill="#596F66"/>
<path d="M58.4108 236.159H56.5117V239.845H58.4108V236.159Z" fill="#596F66"/>
<path d="M58.4108 246.315H56.5117V250H58.4108V246.315Z" fill="#596F66"/>
<path d="M64.3823 242.131H60.6968V244.03H64.3823V242.131Z" fill="#596F66"/>
<path d="M54.2219 242.131H50.5364V244.03H54.2219V242.131Z" fill="#596F66"/>
<path d="M3.76475 53.8162C5.84396 53.8162 7.5295 52.1306 7.5295 50.0514C7.5295 47.9722 5.84396 46.2866 3.76475 46.2866C1.68554 46.2866 0 47.9722 0 50.0514C0 52.1306 1.68554 53.8162 3.76475 53.8162Z" fill="#596F66"/>
<path d="M17.1502 109.328C18.7994 109.328 20.1364 107.991 20.1364 106.342C20.1364 104.693 18.7994 103.356 17.1502 103.356C15.501 103.356 14.1641 104.693 14.1641 106.342C14.1641 107.991 15.501 109.328 17.1502 109.328Z" fill="#596F66"/>
<path d="M280.2 130.016C282.043 130.016 283.536 128.522 283.536 126.679C283.536 124.837 282.043 123.343 280.2 123.343C278.357 123.343 276.864 124.837 276.864 126.679C276.864 128.522 278.357 130.016 280.2 130.016Z" fill="#596F66"/>
<path d="M227.719 117.652L226.63 116.738L224.857 118.851L225.946 119.765L227.719 117.652Z" fill="#596F66"/>
<path d="M222.828 123.476L221.739 122.562L219.965 124.675L221.054 125.589L222.828 123.476Z" fill="#596F66"/>
<path d="M228.264 123.949L226.151 122.176L225.237 123.265L227.351 125.038L228.264 123.949Z" fill="#596F66"/>
<path d="M222.441 119.062L220.328 117.289L219.414 118.378L221.528 120.151L222.441 119.062Z" fill="#596F66"/>
<path d="M176.911 66.3163H156.099V68.3005H176.909C181.136 68.3049 185.189 69.986 188.178 72.975C191.167 75.9641 192.848 80.0168 192.852 84.2439V94.648C191.344 91.7183 189.059 89.2602 186.247 87.5432C183.435 85.8263 180.204 84.9167 176.909 84.9142H82.8998C82.8601 84.9117 82.8203 84.9117 82.7806 84.9142C82.5752 84.93 82.369 84.93 82.1637 84.9142C82.0198 84.9142 81.8758 84.9039 81.7278 84.9039C79.525 84.9039 77.4124 84.0289 75.8547 82.4712C74.2971 80.9136 73.422 78.8009 73.422 76.5981C73.422 74.3953 74.2971 72.2826 75.8547 70.725C77.4124 69.1673 79.525 68.2923 81.7278 68.2923H110.843V66.3081H81.736C79.0069 66.3081 76.3897 67.3922 74.4599 69.322C72.5302 71.2517 71.446 73.869 71.446 76.5981C71.446 79.3272 72.5302 81.9445 74.4599 83.8743C76.3897 85.804 79.0069 86.8881 81.736 86.8881C81.8553 86.8881 81.9745 86.8881 82.0917 86.8881C82.3786 86.9087 82.6665 86.9087 82.9533 86.8881H176.909C181.136 86.893 185.188 88.5743 188.177 91.5632C191.166 94.5522 192.847 98.6046 192.852 102.832C192.846 102.966 192.867 103.1 192.914 103.225C192.962 103.351 193.034 103.466 193.126 103.563C193.219 103.66 193.331 103.737 193.454 103.79C193.577 103.843 193.71 103.87 193.844 103.87C193.979 103.87 194.111 103.843 194.235 103.79C194.358 103.737 194.47 103.66 194.562 103.563C194.655 103.466 194.727 103.351 194.774 103.225C194.821 103.1 194.843 102.966 194.836 102.832V84.2439C194.831 79.4912 192.941 74.9348 189.58 71.5739C186.22 68.2131 181.664 66.3223 176.911 66.3163Z" fill="#596F66"/>
<path d="M110.131 72.5709C110.131 71.9088 110.158 71.255 110.217 70.6135H81.7376C80.1491 70.6135 78.6256 71.2445 77.5023 72.3678C76.3791 73.491 75.748 75.0145 75.748 76.603C75.748 78.1916 76.3791 79.715 77.5023 80.8383C78.6256 81.9616 80.1491 82.5926 81.7376 82.5926C81.9165 82.5926 82.0954 82.5926 82.266 82.605C82.3524 82.605 82.4305 82.6173 82.5045 82.6173L82.7102 82.5906H112.432C110.916 79.468 110.129 76.0419 110.131 72.5709Z" fill="#596F66"/>
<path d="M176.908 70.6136H156.03C156.089 71.2551 156.116 71.911 156.116 72.571C156.12 76.0423 155.336 79.4691 153.822 82.5927H176.908C181.953 82.5886 186.816 84.4772 190.536 87.8853V84.2397C190.532 80.6267 189.095 77.1627 186.54 74.6081C183.985 72.0534 180.521 70.6169 176.908 70.6136Z" fill="#596F66"/>
<path d="M155.754 122.58C156.539 121.789 157.473 121.162 158.503 120.735C159.532 120.308 160.637 120.091 161.751 120.094H193.842C193.972 120.095 194.101 120.069 194.222 120.019C194.343 119.97 194.452 119.896 194.544 119.804C194.637 119.712 194.71 119.602 194.76 119.482C194.809 119.361 194.835 119.232 194.835 119.101V102.835C194.829 98.082 192.939 93.5252 189.578 90.1643C186.217 86.8034 181.66 84.9129 176.907 84.9074H82.9022C82.8625 84.9049 82.8226 84.9049 82.7829 84.9074C82.5776 84.9236 82.3714 84.9236 82.1661 84.9074C82.0221 84.9074 81.8782 84.8972 81.7322 84.8972C79.5301 84.9043 77.4151 84.0376 75.8513 82.4872C74.2874 80.9368 73.4024 78.8294 73.3904 76.6273C73.3788 76.372 73.2692 76.131 73.0844 75.9545C72.8996 75.7779 72.6539 75.6794 72.3983 75.6794C72.1428 75.6794 71.897 75.7779 71.7123 75.9545C71.5275 76.131 71.4179 76.372 71.4062 76.6273V162.394C71.4062 162.416 71.4062 162.441 71.4062 162.464C71.5988 165.045 72.758 167.459 74.6524 169.223C76.5468 170.987 79.0368 171.971 81.6253 171.979H176.909C181.662 171.974 186.219 170.083 189.58 166.722C192.941 163.362 194.831 158.805 194.837 154.052V138.049C194.837 137.918 194.812 137.789 194.762 137.668C194.712 137.548 194.639 137.438 194.547 137.346C194.454 137.254 194.345 137.18 194.224 137.131C194.103 137.081 193.974 137.055 193.844 137.056H161.753C160.075 137.056 158.434 136.558 157.038 135.626C155.642 134.693 154.555 133.368 153.912 131.817C153.27 130.266 153.102 128.559 153.43 126.913C153.758 125.267 154.566 123.755 155.754 122.568V122.58ZM151.279 128.582C151.283 131.358 152.388 134.02 154.351 135.983C156.314 137.946 158.975 139.05 161.751 139.054H192.851V154.064C192.846 158.291 191.165 162.344 188.176 165.333C185.187 168.322 181.134 170.003 176.907 170.008H81.6274C79.546 170.002 77.5429 169.214 76.0166 167.799C74.4902 166.384 73.5527 164.446 73.3904 162.371V82.6765C74.3521 83.9851 75.6084 85.0488 77.0576 85.7815C78.5069 86.5141 80.1083 86.8952 81.7322 86.8937C81.8515 86.8937 81.9707 86.8937 82.0879 86.8937C82.3747 86.9143 82.6627 86.9143 82.9495 86.8937H176.905C181.132 86.898 185.185 88.5792 188.174 91.5682C191.163 94.5573 192.844 98.61 192.849 102.837V118.112H161.753C158.977 118.116 156.316 119.221 154.353 121.184C152.39 123.147 151.285 125.808 151.281 128.584L151.279 128.582Z" fill="#D3D1CE"/>
<path d="M161.757 119.102H190.543V102.835C190.538 99.2224 189.101 95.7589 186.546 93.2042C183.991 90.6494 180.528 89.212 176.915 89.2072H83.0598C82.9064 89.2266 82.7518 89.2355 82.5972 89.2339V167.691H176.911C180.524 167.687 183.988 166.25 186.543 163.695C189.098 161.14 190.535 157.676 190.539 154.062V138.059H161.753C159.239 138.059 156.827 137.061 155.049 135.283C153.272 133.505 152.273 131.094 152.273 128.579C152.273 126.065 153.272 123.654 155.049 121.876C156.827 120.098 159.239 119.099 161.753 119.099L161.757 119.102Z" fill="#F6F2ED"/>
<path d="M161.757 138.065C160.59 138.067 159.433 137.851 158.344 137.43C158.309 137.695 158.292 137.962 158.291 138.23C158.291 139.866 158.94 141.435 160.097 142.592C161.254 143.748 162.823 144.398 164.459 144.398H190.537V138.061L161.757 138.065Z" fill="#04594C"/>
<path d="M134.431 66.4043H131.672V71.3391H134.431C135.086 71.3391 135.713 71.0791 136.176 70.6164C136.639 70.1536 136.899 69.5261 136.899 68.8717C136.899 68.2173 136.639 67.5897 136.176 67.127C135.713 66.6643 135.086 66.4043 134.431 66.4043Z" fill="#F6F2ED"/>
<path d="M135.554 73.9012H131.672V79.2471H135.556C135.907 79.2475 136.255 79.1787 136.58 79.0447C136.904 78.9106 137.199 78.7139 137.448 78.4658C137.824 78.0923 138.081 77.6152 138.186 77.0952C138.29 76.5752 138.238 76.0359 138.035 75.5458C137.832 75.0557 137.488 74.637 137.047 74.3431C136.605 74.0491 136.086 73.8931 135.556 73.895L135.554 73.9012Z" fill="#F6F2ED"/>
<path d="M151.85 59.2346C149.912 54.7273 146.413 51.0702 141.996 48.9349C137.579 46.7996 132.54 46.3294 127.804 47.6107C123.068 48.8919 118.953 51.8386 116.215 55.9097C113.477 59.9807 112.299 64.9029 112.898 69.7724C112.931 70.0562 112.97 70.3337 113.017 70.6134C113.775 75.2531 116.117 79.4866 119.646 82.5925H146.604C150.135 79.487 152.48 75.2536 153.239 70.6134C153.285 70.3358 153.326 70.0582 153.359 69.7724C153.799 66.1883 153.279 62.5515 151.852 59.2346H151.85ZM142.186 80.2382H124.092V79.4569H125.971C126.126 79.4818 126.285 79.4699 126.435 79.4223C126.585 79.3747 126.722 79.2927 126.834 79.1828C126.947 79.0728 127.032 78.9381 127.083 78.7893C127.134 78.6406 127.15 78.4819 127.128 78.326V67.3647C127.15 67.2088 127.134 67.0501 127.083 66.9014C127.032 66.7526 126.947 66.6178 126.834 66.5079C126.722 66.398 126.585 66.3159 126.435 66.2683C126.285 66.2207 126.126 66.2089 125.971 66.2338H124.092V63.5423H129.166V59.5245H131.666V63.5464H133.248V59.5245H135.742V63.5464H137.487C138.531 63.5492 139.535 63.9407 140.306 64.6445C141.076 65.3483 141.556 66.3138 141.653 67.3526C141.749 68.3914 141.455 69.4289 140.828 70.2626C140.201 71.0963 139.285 71.6663 138.26 71.8615C139.225 71.8767 140.166 72.1633 140.976 72.6882C141.785 73.2131 142.431 73.9553 142.838 74.8299C143.246 75.7044 143.399 76.676 143.28 77.6335C143.162 78.591 142.776 79.4958 142.167 80.2444L142.186 80.2382Z" fill="#596F66"/>
<path d="M134.431 66.4043H131.672V71.3391H134.431C135.086 71.3391 135.713 71.0791 136.176 70.6164C136.639 70.1536 136.899 69.5261 136.899 68.8717C136.899 68.2173 136.639 67.5897 136.176 67.127C135.713 66.6643 135.086 66.4043 134.431 66.4043Z" fill="#D3D1CE"/>
<path d="M135.554 73.9012H131.672V79.2471H135.556C135.907 79.2475 136.255 79.1787 136.58 79.0447C136.904 78.9106 137.199 78.7139 137.448 78.4658C137.824 78.0923 138.081 77.6152 138.186 77.0952C138.29 76.5752 138.238 76.0359 138.035 75.5458C137.832 75.0557 137.488 74.637 137.047 74.3431C136.605 74.0491 136.086 73.8931 135.556 73.895L135.554 73.9012Z" fill="#D3D1CE"/>
<path d="M153.434 70.6109C153.413 70.3272 153.38 70.0496 153.347 69.77C152.739 64.8335 150.346 60.2899 146.62 56.9951C142.894 53.7002 138.092 51.8815 133.118 51.8815C128.144 51.8815 123.342 53.7002 119.616 56.9951C115.89 60.2899 113.497 64.8335 112.888 69.77C112.856 70.0475 112.823 70.3251 112.802 70.6109C112.757 71.1537 112.736 71.7027 112.736 72.2559C112.734 75.889 113.705 79.4565 115.547 82.588H150.687C152.529 79.4565 153.499 75.889 153.497 72.2559C153.499 71.7027 153.487 71.1537 153.434 70.6109ZM142.174 80.2358H124.094V79.4545H125.974C126.129 79.4793 126.288 79.4675 126.438 79.4199C126.588 79.3723 126.725 79.2902 126.837 79.1803C126.95 79.0704 127.035 78.9356 127.086 78.7869C127.137 78.6381 127.153 78.4794 127.131 78.3236V67.3622C127.153 67.2063 127.137 67.0477 127.086 66.8989C127.035 66.7501 126.95 66.6154 126.837 66.5055C126.725 66.3955 126.588 66.3135 126.438 66.2659C126.288 66.2183 126.129 66.2065 125.974 66.2313H124.094V63.5398H129.169V59.518H131.669V63.5398H133.25V59.518H135.745V63.5398H137.49C138.534 63.5426 139.538 63.9341 140.308 64.6379C141.079 65.3417 141.559 66.3072 141.655 67.346C141.752 68.3848 141.458 69.4223 140.831 70.256C140.204 71.0897 139.288 71.6598 138.263 71.8549C139.228 71.8702 140.169 72.1567 140.979 72.6816C141.788 73.2066 142.434 73.9487 142.841 74.8233C143.249 75.6978 143.402 76.6694 143.283 77.627C143.165 78.5845 142.779 79.4893 142.17 80.2378L142.174 80.2358Z" fill="#D3D1CE"/>
<path d="M154.426 70.5477C154.405 70.2537 154.372 69.9658 154.335 69.6574C153.681 64.4929 151.165 59.7444 147.259 56.3025C143.354 52.8606 138.327 50.9615 133.121 50.9615C127.915 50.9615 122.888 52.8606 118.982 56.3025C115.077 59.7444 112.561 64.4929 111.906 69.6574C111.872 69.9514 111.837 70.2455 111.816 70.5313C111.769 71.0823 111.746 71.6498 111.746 72.2626C111.745 76.0729 112.763 79.8141 114.695 83.0985L116.405 82.091C114.654 79.1111 113.731 75.717 113.732 72.2605C113.732 71.7033 113.753 71.1933 113.796 70.6834C113.815 70.4141 113.847 70.1529 113.878 69.8939C114.456 65.1952 116.733 60.8702 120.279 57.7344C123.826 54.5986 128.397 52.8687 133.131 52.8707C137.865 52.8727 142.435 54.6066 145.979 57.7454C149.523 60.8843 151.796 65.2112 152.369 69.9103C152.4 70.1653 152.431 70.4223 152.45 70.6999C152.493 71.1913 152.513 71.7012 152.513 72.2626C152.516 75.7193 151.593 79.1136 149.84 82.093L151.551 83.1005C151.991 82.3533 152.385 81.5801 152.731 80.7853C153.904 78.098 154.506 75.1966 154.5 72.2646C154.493 71.6457 154.471 71.0803 154.426 70.5477Z" fill="#596F66"/>
<path d="M107.601 96.8191H109.586V94.8349H107.601V96.8191ZM111.57 96.8191H113.554V94.8349H111.578L111.57 96.8191ZM103.631 96.8191H105.615V94.8349H103.631V96.8191ZM127.445 96.8191H129.429V94.8349H127.445V96.8191ZM123.477 96.8191H125.461V94.8349H123.477V96.8191ZM99.6626 96.8191H101.647V94.8349H99.6626V96.8191ZM131.416 96.8191H133.4V94.8349H131.416V96.8191ZM115.54 96.8191H117.524V94.8349H115.54V96.8191ZM119.509 96.8191H121.493V94.8349H119.509V96.8191ZM75.8483 96.8191H77.8324V94.8349H75.8483V96.8191ZM95.6942 96.8191H97.6784V94.8349H95.6942V96.8191ZM72.4351 96.8191H73.8744V94.8349H72.4351V96.8191ZM79.8187 96.8191H81.8029V94.8349H79.8187V96.8191ZM83.7871 96.8191H85.7712V94.8349H83.7871V96.8191ZM91.7258 96.8191H93.71V94.8349H91.7258V96.8191ZM87.7575 96.8191H89.7417V94.8349H87.7575V96.8191ZM171.11 96.8191H173.094V94.8349H171.11V96.8191ZM182.922 115.797H184.906V113.813H182.926L182.922 115.797ZM178.713 97.0864C179.255 97.2585 179.77 97.5064 180.243 97.8225L181.347 96.1776C180.719 95.7569 180.034 95.4273 179.314 95.1989L178.713 97.0864ZM183.031 97.6807L181.514 98.9575C181.88 99.3925 182.183 99.877 182.414 100.397L184.228 99.5929C183.919 98.9055 183.515 98.2652 183.027 97.6909L183.031 97.6807ZM175.082 96.8089H177.044L177.091 94.8246H175.082V96.8089ZM182.926 107.85H184.91V105.866H182.926V107.85ZM182.926 111.819H184.91V109.835H182.926V111.819ZM184.841 101.768L182.873 102.029C182.908 102.295 182.926 102.562 182.926 102.829V103.882H184.91V102.829C184.909 102.481 184.884 102.132 184.836 101.787L184.841 101.768ZM167.143 96.8089H169.127V94.8246H167.143V96.8089ZM151.266 96.8089H153.25V94.8246H151.262L151.266 96.8089ZM143.327 96.8089H145.311V94.8246H143.327V96.8089ZM139.359 96.8089H141.343V94.8246H139.359V96.8089ZM147.297 96.8089H149.282V94.8246H147.297V96.8089ZM155.236 96.8089H157.22V94.8246H155.236V96.8089ZM135.39 96.8089H137.374V94.8246H135.39V96.8089ZM159.205 96.8089H161.189V94.8246H159.205V96.8089ZM163.173 96.8089H165.157V94.8246H163.173V96.8089Z" fill="#04594C"/>
<path d="M112.136 162.073H114.12V160.089H112.136V162.073ZM116.104 162.073H118.088V160.089H116.11L116.104 162.073ZM108.165 162.073H110.147V160.089H108.163L108.165 162.073ZM131.98 162.073H133.964V160.089H131.98V162.073ZM120.072 162.073H122.057V160.089H120.072V162.073ZM135.948 162.073H137.932V160.089H135.948V162.073ZM124.041 162.073H126.025V160.089H124.041V162.073ZM128.009 162.073H129.993V160.089H128.009V162.073ZM80.3785 162.073H82.3627V160.089H80.3785V162.073ZM100.224 162.073H102.209V160.089H100.224V162.073ZM84.3469 162.073H86.331V160.089H84.3469V162.073ZM72.4397 162.073H74.4239V160.089H72.4397V162.073ZM76.4081 162.073H78.3923V160.089H76.4081V162.073ZM96.254 162.073H98.2382V160.089H96.254V162.073ZM88.3152 162.073H90.2994V160.089H88.3152V162.073ZM92.2836 162.073H94.2678V160.089H92.2836V162.073ZM104.191 162.073H106.175V160.089H104.191V162.073ZM181.804 157.562L183.418 158.717C183.859 158.102 184.21 157.427 184.461 156.713L182.588 156.057C182.401 156.593 182.139 157.099 181.81 157.562H181.804ZM171.667 162.073H173.652V160.089H171.667V162.073ZM182.925 154.066C182.925 154.175 182.925 154.284 182.925 154.393L184.907 154.5C184.907 154.358 184.919 154.216 184.919 154.068V152.458H182.935L182.925 154.066ZM176.904 160.089H175.636V162.073H176.904C177.179 162.073 177.454 162.06 177.727 162.032L177.521 160.058C177.318 160.079 177.114 160.089 176.911 160.089H176.904ZM179.166 159.649L179.912 161.487C180.613 161.202 181.269 160.819 181.862 160.35L180.628 158.793C180.185 159.148 179.694 159.438 179.17 159.655L179.166 159.649ZM182.927 140.555V142.54H184.911V140.555H182.927ZM139.92 162.073H141.905V160.089H139.92V162.073ZM182.931 150.476H184.915V148.492H182.935L182.931 150.476ZM182.931 146.508H184.915V144.524H182.935L182.931 146.508ZM147.859 162.073H149.843V160.089H147.859V162.073ZM151.828 162.073H153.812V160.089H151.828V162.073ZM143.889 162.073H145.873V160.089H143.889V162.073ZM163.735 162.073H165.719V160.089H163.735V162.073ZM167.703 162.073H169.687V160.089H167.703V162.073ZM155.796 162.073H157.78V160.089H155.794L155.796 162.073ZM159.764 162.073H161.748V160.089H159.764V162.073Z" fill="#04594C"/>
<path d="M202.024 108.613C201.401 107.986 200.659 107.489 199.843 107.151C199.027 106.812 198.151 106.639 197.268 106.641H193.854C193.724 106.641 193.595 106.666 193.474 106.716C193.353 106.766 193.244 106.839 193.152 106.931C193.059 107.024 192.986 107.133 192.936 107.254C192.887 107.374 192.861 107.504 192.861 107.634V119.106C192.861 119.236 192.887 119.365 192.936 119.486C192.986 119.606 193.059 119.716 193.152 119.808C193.244 119.901 193.353 119.974 193.474 120.024C193.595 120.073 193.724 120.099 193.854 120.099H197.268C198.598 120.098 199.898 119.703 201.004 118.964C202.11 118.225 202.972 117.174 203.481 115.945C203.99 114.716 204.123 113.364 203.864 112.059C203.604 110.754 202.964 109.556 202.024 108.615V108.613ZM197.268 118.112H194.827V108.625H197.249C198.507 108.625 199.714 109.125 200.603 110.015C201.493 110.904 201.993 112.111 201.993 113.369C201.993 114.627 201.493 115.833 200.603 116.723C199.714 117.613 198.507 118.112 197.249 118.112H197.268Z" fill="#596F66"/>
<path d="M198.986 111.654C198.761 111.428 198.494 111.249 198.2 111.127C197.905 111.005 197.59 110.942 197.271 110.943H197.166V115.798H197.271C197.752 115.798 198.221 115.656 198.621 115.389C199.021 115.122 199.332 114.743 199.516 114.299C199.699 113.855 199.747 113.366 199.653 112.895C199.558 112.424 199.326 111.991 198.986 111.652V111.654Z" fill="#D3D1CE"/>
<path d="M197.264 122.412H161.761C160.125 122.412 158.556 123.062 157.399 124.219C156.242 125.375 155.592 126.944 155.592 128.58C155.592 130.216 156.242 131.785 157.399 132.942C158.556 134.099 160.125 134.749 161.761 134.749H197.272C197.915 134.749 198.531 134.494 198.985 134.039C199.439 133.585 199.695 132.969 199.695 132.327V122.085C198.903 122.303 198.085 122.413 197.264 122.412Z" fill="#D3D1CE"/>
<path d="M202.994 112.378C202.863 112.378 202.734 112.403 202.613 112.453C202.493 112.503 202.383 112.576 202.291 112.668C202.198 112.76 202.125 112.87 202.076 112.991C202.026 113.111 202 113.241 202 113.371C202 114.629 201.5 115.835 200.611 116.725C199.721 117.614 198.515 118.114 197.257 118.115H161.753C158.976 118.115 156.313 119.218 154.349 121.182C152.385 123.146 151.281 125.809 151.281 128.587C151.281 131.364 152.385 134.027 154.349 135.991C156.313 137.955 158.976 139.059 161.753 139.059H197.257C199.04 139.057 200.749 138.349 202.011 137.089C203.272 135.829 203.982 134.12 203.985 132.337V113.371C203.985 113.108 203.88 112.856 203.694 112.669C203.509 112.483 203.257 112.378 202.994 112.378ZM202 132.337C201.996 133.592 201.495 134.795 200.605 135.681C199.716 136.568 198.512 137.066 197.257 137.066H161.753C159.502 137.066 157.343 136.172 155.752 134.58C154.16 132.988 153.266 130.829 153.266 128.578C153.266 126.327 154.16 124.168 155.752 122.576C157.343 120.985 159.502 120.091 161.753 120.091H197.257C198.138 120.093 199.01 119.921 199.824 119.585C200.638 119.249 201.378 118.756 202 118.133V132.321V132.337Z" fill="#596F66"/>
<path d="M164.463 131.56C166.197 131.56 167.603 130.154 167.603 128.42C167.603 126.686 166.197 125.28 164.463 125.28C162.729 125.28 161.323 126.686 161.323 128.42C161.323 130.154 162.729 131.56 164.463 131.56Z" fill="#04594C"/>
<rect x="204.287" y="173.522" width="38.5736" height="39.6497" rx="19.2868" stroke="#F6F2ED"/>
<rect x="209" y="174.064" width="37.968" height="40.6497" rx="18.984" fill="#596F66"/>
<path opacity="0.5" d="M236.247 194.99C235.583 194.2 234.662 193.662 233.641 193.469C234.346 193.136 234.921 192.582 235.274 191.892C235.628 191.202 235.741 190.416 235.596 189.656C235.553 189.058 235.366 188.478 235.051 187.966C234.744 187.486 234.32 187.09 233.819 186.815C233.289 186.519 232.721 186.295 232.131 186.149C231.445 185.983 230.746 185.872 230.042 185.816V182.095H227.743V185.713C227.345 185.713 226.738 185.723 225.921 185.743V182.095H223.622V185.818C223.294 185.828 222.811 185.832 222.175 185.832L219.009 185.818V188.24H220.668C220.978 188.2 221.293 188.282 221.542 188.47C221.791 188.659 221.955 188.937 221.997 189.244V193.483C222.076 193.481 222.155 193.486 222.234 193.497H221.997V199.445C221.992 199.551 221.966 199.656 221.919 199.752C221.873 199.848 221.807 199.933 221.727 200.004C221.646 200.074 221.551 200.127 221.449 200.161C221.347 200.194 221.239 200.207 221.132 200.198H219.473L219 202.901H221.985H222.805H223.611V206.667H225.909V202.962C226.328 202.971 226.935 202.976 227.731 202.976V206.683H230.03V202.908C230.758 202.879 231.483 202.805 232.203 202.688C232.823 202.583 233.431 202.412 234.015 202.179C234.545 201.976 235.035 201.683 235.463 201.314C235.87 200.944 236.197 200.496 236.425 199.998C236.689 199.414 236.849 198.789 236.899 198.151C237.096 197.054 236.863 195.923 236.247 194.99ZM225.961 188.402H226.551L227.357 188.388C227.57 188.388 227.858 188.401 228.222 188.426C228.529 188.448 228.836 188.487 229.139 188.543C229.418 188.598 229.692 188.677 229.959 188.777C230.219 188.87 230.461 189.01 230.669 189.19C230.859 189.367 231.014 189.578 231.124 189.811C231.253 190.081 231.317 190.378 231.312 190.676C231.314 190.933 231.269 191.189 231.177 191.429C231.092 191.649 230.954 191.845 230.774 191.999C230.601 192.147 230.417 192.28 230.222 192.397C229.996 192.525 229.751 192.618 229.497 192.672C229.203 192.74 228.947 192.794 228.729 192.833C228.458 192.878 228.184 192.906 227.909 192.915L227.163 192.946C226.994 192.946 226.762 192.946 226.468 192.946H225.954V188.402H225.961ZM232.238 198.46C232.15 198.676 232.027 198.876 231.873 199.051C231.705 199.233 231.505 199.383 231.283 199.494C231.055 199.615 230.817 199.719 230.572 199.804C230.301 199.893 230.024 199.962 229.743 200.01C229.419 200.07 229.136 200.112 228.892 200.137C228.649 200.162 228.358 200.181 228.018 200.195C227.68 200.209 227.416 200.217 227.227 200.217H226.516H225.964V195.211L226.674 195.197C227.068 195.187 227.388 195.183 227.636 195.183C227.884 195.183 228.228 195.198 228.667 195.227C229.038 195.249 229.407 195.293 229.771 195.361C230.104 195.43 230.431 195.521 230.75 195.635C231.06 195.735 231.35 195.888 231.608 196.085C231.836 196.274 232.023 196.505 232.16 196.765C232.292 197.027 232.368 197.314 232.382 197.607C232.396 197.899 232.349 198.192 232.243 198.465L232.238 198.46Z" fill="#F6F2ED"/>
<rect x="28.1375" y="0.5" width="38.5736" height="39.6497" rx="19.2868" stroke="#F6F2ED"/>
<rect x="26.5957" y="3.12689" width="34" height="34.3959" rx="17" fill="#596F66"/>
<path opacity="0.5" d="M50.0346 20.7895C49.517 20.1785 48.7991 19.7628 48.0037 19.6137C48.5533 19.3565 49.0008 18.9281 49.2763 18.3952C49.5519 17.8623 49.6399 17.2549 49.5268 16.6678C49.4934 16.2054 49.3478 15.7575 49.1022 15.3615C48.8633 14.9906 48.5332 14.6847 48.1422 14.4719C47.7295 14.2433 47.2873 14.0703 46.8276 13.9574C46.2927 13.8293 45.7481 13.7433 45.1992 13.7001V10.8248H43.4084V13.6204C43.0982 13.6204 42.6249 13.6282 41.9886 13.6439V10.8248H40.1977V13.7019C39.9417 13.7092 39.5657 13.7128 39.0697 13.7128L36.6031 13.7019V15.5735H37.8955C38.1375 15.542 38.3824 15.606 38.5765 15.7513C38.7706 15.8966 38.8982 16.1115 38.9312 16.3489V19.6246C38.9929 19.6235 39.0547 19.6271 39.1158 19.6355H38.9312V24.2319C38.9275 24.3141 38.907 24.3947 38.8708 24.4688C38.8346 24.543 38.7835 24.6092 38.7205 24.6636C38.6576 24.7179 38.5841 24.7592 38.5045 24.7849C38.4249 24.8107 38.3408 24.8204 38.2573 24.8135H36.965L36.5957 26.9024H38.922H39.5608H40.1885V29.8121H41.9794V26.9496C42.3055 26.9568 42.7788 26.9604 43.3991 26.9604V29.8248H45.19V26.9079C45.7574 26.885 46.3227 26.8282 46.883 26.7376C47.3667 26.6563 47.8402 26.5245 48.2954 26.3444C48.7081 26.1875 49.0898 25.9613 49.4235 25.6759C49.7402 25.3898 49.9952 25.0442 50.173 24.6595C50.3785 24.2078 50.5034 23.7249 50.5423 23.2318C50.6962 22.384 50.5146 21.5105 50.0346 20.7895ZM42.02 15.6985H42.4797L43.1074 15.6876C43.2736 15.6876 43.4982 15.6973 43.7813 15.7166C44.021 15.7336 44.2596 15.7639 44.4958 15.8072C44.7135 15.85 44.9272 15.9106 45.1346 15.9884C45.3379 16.0599 45.5257 16.168 45.6885 16.3072C45.8364 16.444 45.9566 16.6069 46.043 16.7874C46.1435 16.9962 46.1934 17.225 46.1888 17.4559C46.1911 17.6545 46.1554 17.8518 46.0836 18.0375C46.0177 18.2075 45.9099 18.3588 45.7697 18.4777C45.6354 18.592 45.4915 18.695 45.3396 18.7857C45.1635 18.8845 44.9729 18.956 44.7746 18.9977C44.5457 19.0509 44.3463 19.0925 44.1764 19.1227C43.9651 19.1575 43.7517 19.1787 43.5376 19.1861L42.956 19.2097C42.8243 19.2097 42.644 19.2097 42.4151 19.2097H42.0144V15.6985H42.02ZM46.9107 23.471C46.8422 23.6375 46.7461 23.7917 46.6264 23.9275C46.4953 24.0678 46.3396 24.1838 46.1667 24.27C45.9886 24.3635 45.8034 24.4434 45.6128 24.5091C45.4018 24.578 45.1858 24.6313 44.9666 24.6685C44.7143 24.7144 44.4934 24.7471 44.3038 24.7664C44.1143 24.7857 43.8872 24.8008 43.6225 24.8117C43.3591 24.8225 43.1536 24.828 43.0059 24.828H42.452H42.0218V20.9599L42.5757 20.949C42.8822 20.9417 43.1321 20.9381 43.3253 20.9381C43.5185 20.9381 43.7862 20.9496 44.1284 20.9725C44.4171 20.9891 44.7045 21.0236 44.9888 21.0758C45.2477 21.1289 45.5025 21.1997 45.7513 21.2878C45.9927 21.3653 46.2188 21.4829 46.4196 21.6356C46.5971 21.7811 46.7433 21.9597 46.8498 22.1611C46.9529 22.3636 47.0119 22.585 47.023 22.8111C47.0341 23.0373 46.9972 23.2632 46.9144 23.4746L46.9107 23.471Z" fill="#F6F2ED"/>
</svg>
