<svg width="35" height="35" viewBox="0 0 35 35" fill="none" xmlns="http://www.w3.org/2000/svg">
<rect width="35" height="35" rx="17.5" fill="#2F4F4F"/>
<path d="M25.164 15.973C25.1145 13.3955 24.7554 11.4944 24.7603 11.4926C24.6109 11.2012 24.349 10.9575 24.0284 10.833C21.9243 10.0169 19.8552 9.23804 17.8381 8.57349C17.6318 8.50545 17.4144 8.50545 17.2086 8.57349C15.1917 9.23629 13.123 10.0138 11.0192 10.8288C10.7362 10.9385 10.4988 11.1416 10.3442 11.3885C10.3561 11.3899 9.91175 12.7769 9.836 15.8401C9.79111 18.9038 10.1727 19.8215 10.16 19.8226C10.3666 20.4959 10.7531 21.1808 11.3068 21.8773C11.9258 22.6551 12.7622 23.4585 13.7725 24.2483C15.4449 25.5609 17.0101 26.3454 17.0756 26.3731C17.2177 26.4426 17.3681 26.478 17.5231 26.4776C17.6785 26.4776 17.8289 26.4422 17.9706 26.3724C18.0365 26.3447 19.6034 25.5578 21.2752 24.2455C22.2859 23.455 23.1222 22.6516 23.7416 21.8741C24.3349 21.1282 24.7361 20.3963 24.9301 19.6774C24.9223 19.6763 25.2029 18.5513 25.164 15.9734V15.973ZM18.3557 17.9836V19.6167C18.3557 20.0768 17.9829 20.4496 17.5228 20.45C17.0627 20.45 16.6895 20.0772 16.6895 19.6171V18.0067C16.0892 17.7083 15.676 17.0889 15.676 16.3732C15.676 15.366 16.4925 14.5492 17.4996 14.5492C18.5068 14.5492 19.3232 15.3657 19.3236 16.3728C19.3236 17.0707 18.9315 17.6771 18.3557 17.9836Z" fill="#F6F2ED"/>
</svg>
