<svg xmlns="http://www.w3.org/2000/svg" width="173.297" height="134.397" viewBox="0 0 173.297 134.397">
  <g id="illustration" transform="translate(-86.532 -483.005)">
    <g id="Group_54460" data-name="Group 54460">
      <g id="Group_39521" data-name="Group 39521" transform="translate(-19124.988 12391.584)" opacity="0.272">
        <circle id="Ellipse_1999" data-name="Ellipse 1999" cx="26.997" cy="26.997" r="26.997" transform="translate(19218.561 -11837.161)" fill="#2d6759"/>
        <path id="Path_25533" data-name="Path 25533" d="M2.313,4.625A2.313,2.313,0,1,0,0,2.313,2.313,2.313,0,0,0,2.313,4.625Z" transform="translate(19254.068 -11780.688) rotate(39)" fill="#888"/>
        <path id="Path_25534" data-name="Path 25534" d="M1.579,3.159A1.579,1.579,0,1,0,0,1.579,1.58,1.58,0,0,0,1.579,3.159Z" transform="translate(19262.025 -11783.97) rotate(39)" fill="#888"/>
        <path id="Path_25535" data-name="Path 25535" d="M15.217,6.125a2.933,2.933,0,1,0-2.933-2.933A2.933,2.933,0,0,0,15.217,6.125Z" transform="translate(19199.236 -11823.791)" fill="#888"/>
      </g>
      <g id="Group_39533" data-name="Group 39533" transform="matrix(0.799, -0.602, 0.602, 0.799, 222.358, 499.107)" opacity="0.272">
        <circle id="Ellipse_1999-2" data-name="Ellipse 1999" cx="13.378" cy="13.378" r="13.378" transform="translate(0)" fill="#2d6759"/>
        <path id="Path_25533-2" data-name="Path 25533" d="M1.146,0A1.146,1.146,0,1,1,0,1.146,1.146,1.146,0,0,1,1.146,0Z" transform="translate(10.603 29.767) rotate(141)" fill="#888"/>
        <path id="Path_25534-2" data-name="Path 25534" d="M.783,0A.783.783,0,1,1,0,.783.783.783,0,0,1,.783,0Z" transform="translate(6.202 27.576) rotate(141)" fill="#888"/>
        <path id="Path_25535-2" data-name="Path 25535" d="M13.737,3.166a1.454,1.454,0,1,1,1.454-1.454A1.454,1.454,0,0,1,13.737,3.166Z" transform="translate(15.054 6.495)" fill="#888"/>
      </g>
    </g>
    <rect id="Rectangle_9985" data-name="Rectangle 9985" width="109" height="80" rx="9" transform="translate(124 515)" fill="#f2ede6"/>
    <g id="BITCOIN_WALLET" data-name="BITCOIN WALLET" transform="translate(109.82 424.85)">
      <g id="Group_48873" data-name="Group 48873" transform="translate(13.293 76.412)">
        <g id="Group_48872" data-name="Group 48872">
          <path id="Path_205104" data-name="Path 205104" d="M172.56,165.921H153.911V167.7H172.56a14.3,14.3,0,0,1,14.288,14.288v9.322a16.083,16.083,0,0,0-14.288-8.723H88.31a.852.852,0,0,0-.106.006,3.6,3.6,0,0,1-.547,0c-.129-.005-.258-.01-.39-.01a7.443,7.443,0,1,1,0-14.886h67.084v-1.778H87.267a9.222,9.222,0,1,0,0,18.443c.108,0,.214,0,.32.009a5.4,5.4,0,0,0,.772-.009h84.2a14.3,14.3,0,0,1,14.288,14.288.889.889,0,0,0,1.778,0V181.987A16.085,16.085,0,0,0,172.56,165.921Z" transform="translate(-78.012 -165.921)" fill="#508b82"/>
        </g>
      </g>
      <g id="Group_48875" data-name="Group 48875" transform="translate(17.146 80.263)">
        <g id="Group_48874" data-name="Group 48874" transform="translate(0 0)">
          <path id="Path_205105" data-name="Path 205105" d="M143.185,177.965l-47.5.221a5.368,5.368,0,1,0,0,10.736c.16,0,.32.006.474.012.077.006.148.012.214.012l.178-.024h46.637V177.965Z" transform="translate(-90.282 -178.186)" fill="#508b82"/>
        </g>
      </g>
      <g id="Group_48877" data-name="Group 48877" transform="translate(87.149 80.263)">
        <g id="Group_48876" data-name="Group 48876" transform="translate(0 0)">
          <path id="Path_205106" data-name="Path 205106" d="M333.925,178.186h-39.71l-1.98,10.736h41.69a18.049,18.049,0,0,1,12.213,4.743V190.4A12.225,12.225,0,0,0,333.925,178.186Z" transform="translate(-313.234 -178.186)" fill="#508b82"/>
        </g>
      </g>
      <g id="Group_48880" data-name="Group 48880" transform="translate(13.293 84.775)">
        <g id="Group_48879" data-name="Group 48879">
          <g id="Group_48878" data-name="Group 48878">
            <path id="Path_205107" data-name="Path 205107" d="M153.6,234.617a7.535,7.535,0,0,1,5.376-2.228h28.759a.889.889,0,0,0,.889-.889V216.922a16.085,16.085,0,0,0-16.066-16.066H88.307a.856.856,0,0,0-.106.006,3.515,3.515,0,0,1-.547,0c-.129-.005-.258-.01-.39-.01a7.452,7.452,0,0,1-7.476-7.411.889.889,0,1,0-1.778,0v76.863c0,.021,0,.042,0,.062A9.206,9.206,0,0,0,87.17,278.9h85.388a16.085,16.085,0,0,0,16.066-16.066V248.491a.889.889,0,0,0-.889-.889H158.976a7.6,7.6,0,0,1-5.377-12.983ZM149.59,240a9.4,9.4,0,0,0,9.385,9.385h27.87v13.452a14.3,14.3,0,0,1-14.288,14.288H87.169a7.422,7.422,0,0,1-7.381-6.844V198.855a9.268,9.268,0,0,0,7.476,3.779c.108,0,.214,0,.32.009a5.4,5.4,0,0,0,.772-.009h84.2a14.3,14.3,0,0,1,14.288,14.288v13.689h-27.87A9.39,9.39,0,0,0,149.59,240Z" transform="translate(-78.01 -192.556)" fill="#b2d0cb"/>
          </g>
        </g>
      </g>
      <g id="Group_48882" data-name="Group 48882" transform="translate(23.317 96.928)">
        <g id="Group_48881" data-name="Group 48881" transform="translate(0 0)">
          <path id="Path_205108" data-name="Path 205108" d="M180.878,258.052h25.795V243.474a12.23,12.23,0,0,0-12.213-12.213H110.352a3.048,3.048,0,0,1-.415.024V301.6H194.46a12.226,12.226,0,0,0,12.213-12.213V275.043H180.878a8.5,8.5,0,0,1,0-16.991Z" transform="translate(-109.937 -231.261)" fill="#f2ede6"/>
        </g>
      </g>
      <g id="Group_48903" data-name="Group 48903" transform="translate(14.22 101.97)">
        <g id="Group_48902" data-name="Group 48902">
          <g id="Group_48901" data-name="Group 48901">
            <path id="Path_205117" data-name="Path 205117" d="M112.479,249.1h1.778v-1.778h-1.778Zm3.557,0h1.778v-1.778h-1.778Zm-7.114,0H110.7v-1.778h-1.778Zm21.342,0h1.778v-1.778h-1.778Zm-3.557,0h1.778v-1.778h-1.778Zm-21.343,0h1.778v-1.778h-1.778Zm28.456,0H135.6v-1.778h-1.778Zm-14.228,0h1.778v-1.778h-1.778Zm3.557,0h1.778v-1.778h-1.778Zm-39.128,0H85.8v-1.778H84.022Zm17.785,0h1.778v-1.778h-1.778Zm-20.845,0h1.281v-1.778H80.963Zm6.617,0h1.778v-1.778H87.58Zm3.557,0h1.778v-1.778H91.137Zm7.114,0h1.778v-1.778H98.251Zm-3.557,0h1.778v-1.778H94.694Zm74.7,0h1.778v-1.778h-1.778Zm10.587,17.009h1.778v-1.778h-1.778Zm-3.772-16.76a5.412,5.412,0,0,1,1.371.66l.99-1.478a7.167,7.167,0,0,0-1.823-.878Zm3.866.532-1.361,1.145a5.412,5.412,0,0,1,.807,1.29l1.626-.721A7.168,7.168,0,0,0,180.073,249.878Zm-7.124-.781,1.757,0,.043-1.778-1.8,0Zm7.03,9.895h1.778v-1.778h-1.778Zm0,3.557h1.778v-1.778h-1.778Zm1.716-9.007-1.763.234a5.511,5.511,0,0,1,.047.716v.943h1.778v-.943A7.172,7.172,0,0,0,181.7,253.542ZM165.836,249.1h1.778v-1.778h-1.778Zm-14.229,0h1.778v-1.778h-1.778Zm-7.114,0h1.778v-1.778h-1.778Zm-3.557,0h1.778v-1.778h-1.778Zm7.114,0h1.778v-1.778H148.05Zm7.114,0h1.778v-1.778h-1.778Zm-17.786,0h1.778v-1.778h-1.778Zm21.343,0H160.5v-1.778h-1.778Zm3.557,0h1.778v-1.778h-1.778Z" transform="translate(-80.963 -247.319)" fill="#508a82"/>
          </g>
        </g>
      </g>
      <g id="Group_48906" data-name="Group 48906" transform="translate(14.22 142.942)">
        <g id="Group_48905" data-name="Group 48905">
          <g id="Group_48904" data-name="Group 48904">
            <path id="Path_205118" data-name="Path 205118" d="M116.534,397.1h1.778v-1.779h-1.778Zm3.557,0h1.778v-1.779h-1.778Zm-7.114,0h1.778v-1.779h-1.778Zm21.343,0H136.1v-1.779h-1.778Zm-10.671,0h1.778v-1.779h-1.778Zm14.228,0h1.778v-1.779h-1.778Zm-10.671,0h1.778v-1.779h-1.778Zm3.557,0h1.778v-1.779h-1.778Zm-42.685,0h1.778v-1.779H88.077Zm17.785,0h1.778v-1.779h-1.778Zm-14.229,0h1.778v-1.779H91.634Zm-10.671,0h1.778v-1.779H80.963Zm3.557,0H86.3v-1.779H84.52Zm17.785,0h1.778v-1.779h-1.778Zm-7.114,0H96.97v-1.779H95.191Zm3.557,0h1.778v-1.779H98.748Zm10.671,0H111.2v-1.779H109.42Zm69.556-4.043,1.446,1.035a7.134,7.134,0,0,0,.933-1.8l-1.679-.588A5.363,5.363,0,0,1,178.975,393.053ZM169.89,397.1h1.778v-1.779H169.89Zm10.089-7.176c0,.1,0,.2-.008.292l1.776.1c.007-.127.01-.255.011-.386v-1.44h-1.778Zm-5.395,5.4h-1.137V397.1h1.137a7.211,7.211,0,0,0,.73-.037l-.18-1.769A5.391,5.391,0,0,1,174.585,395.317Zm2.026-.395.67,1.648a7.176,7.176,0,0,0,1.748-1.019l-1.1-1.4A5.394,5.394,0,0,1,176.61,394.922Zm3.369-17.112v1.778h1.778V377.81ZM141.434,397.1h1.778v-1.779h-1.778ZM179.979,386.7h1.778v-1.778h-1.778Zm0-3.557h1.778v-1.779h-1.778ZM148.548,397.1h1.778v-1.779h-1.778Zm3.557,0h1.778v-1.779h-1.778Zm-7.114,0h1.778v-1.779h-1.778Zm17.785,0h1.778v-1.779h-1.778Zm3.557,0h1.778v-1.779h-1.778Zm-10.671,0h1.778v-1.779h-1.778Zm3.557,0H161v-1.779h-1.778Z" transform="translate(-80.963 -377.81)" fill="#508a82"/>
          </g>
        </g>
      </g>
      <g id="Group_48909" data-name="Group 48909" transform="translate(122.129 112.552)">
        <g id="Group_48908" data-name="Group 48908">
          <g id="Group_48907" data-name="Group 48907">
            <path id="Path_205119" data-name="Path 205119" d="M432.85,282.788a5.99,5.99,0,0,0-4.263-1.766h-3.059a.889.889,0,0,0-.889.889v10.28a.889.889,0,0,0,.889.889h3.059a6.029,6.029,0,0,0,4.263-10.292Zm-4.263,8.514h-2.17v-8.5h2.17a4.251,4.251,0,1,1,0,8.5Z" transform="translate(-424.639 -281.022)" fill="#508b82"/>
          </g>
        </g>
      </g>
      <g id="Group_48911" data-name="Group 48911" transform="translate(125.983 116.406)">
        <g id="Group_48910" data-name="Group 48910">
          <path id="Path_205120" data-name="Path 205120" d="M438.545,293.933a2.16,2.16,0,0,0-1.538-.637h-.095v4.351h.095a2.175,2.175,0,0,0,1.538-3.714Z" transform="translate(-436.913 -293.296)" fill="#b2d0cb"/>
        </g>
      </g>
      <g id="Group_48913" data-name="Group 48913" transform="translate(88.728 126.392)">
        <g id="Group_48912" data-name="Group 48912">
          <path id="Path_205121" data-name="Path 205121" d="M355.61,325.394H323.792a5.531,5.531,0,0,0-5.531,5.531h0a5.531,5.531,0,0,0,5.531,5.531h31.824a2.17,2.17,0,0,0,2.17-2.17V325.1A8.148,8.148,0,0,1,355.61,325.394Z" transform="translate(-318.261 -325.1)" fill="#b2d0cb"/>
        </g>
      </g>
      <g id="Group_48916" data-name="Group 48916" transform="translate(84.874 117.692)">
        <g id="Group_48915" data-name="Group 48915">
          <g id="Group_48914" data-name="Group 48914">
            <path id="Path_205122" data-name="Path 205122" d="M352.331,297.392a.889.889,0,0,0-.889.889,4.252,4.252,0,0,1-4.251,4.251H315.373a9.385,9.385,0,1,0,0,18.77h31.818a6.033,6.033,0,0,0,6.029-6.023v-17A.889.889,0,0,0,352.331,297.392Zm-.889,17.886a4.252,4.252,0,0,1-4.251,4.245H315.373a7.606,7.606,0,0,1,0-15.213h31.818a5.988,5.988,0,0,0,4.251-1.754v12.722Z" transform="translate(-305.988 -297.392)" fill="#508b82"/>
          </g>
        </g>
      </g>
      <g id="Group_48918" data-name="Group 48918" transform="translate(93.871 129.256)">
        <g id="Group_48917" data-name="Group 48917">
          <circle id="Ellipse_3122" data-name="Ellipse 3122" cx="2.814" cy="2.814" r="2.814" fill="#508a82"/>
        </g>
      </g>
    </g>
    <path id="Logo" d="M21.142,42.465H10.685V38.539h10.49a11.251,11.251,0,0,0,5.072-1.057,6.886,6.886,0,0,0,2.987-2.989,10.757,10.757,0,0,0,1.2-5.151,10.5,10.5,0,0,0-1.2-5.1,6.741,6.741,0,0,0-3.011-3.012A11.044,11.044,0,0,0,21.2,20.193H10.685V16.267H20.933a7.471,7.471,0,0,0,3.406-.7,4.692,4.692,0,0,0,2-1.995,8.979,8.979,0,0,0,.8-3.493,9.055,9.055,0,0,0-.813-3.493c-.942-1.738-2.665-2.571-5.387-2.571H10.685V0H20.933a10.979,10.979,0,0,1,5.314,1.21,8.528,8.528,0,0,1,3.615,3.629,10.783,10.783,0,0,1,1.3,5.263,11.542,11.542,0,0,1-1.3,5.24,7.278,7.278,0,0,1-1.836,2.4c.25.128.483.256.708.383a9.887,9.887,0,0,1,4.115,4.351,15.616,15.616,0,0,1,1.61,6.834,15.8,15.8,0,0,1-1.61,6.929A9.931,9.931,0,0,1,28.735,40.6a14.073,14.073,0,0,1-7.012,1.874C21.529,42.473,21.336,42.473,21.142,42.465ZM0,29.222a4.831,4.831,0,1,1,4.83,4.807A4.823,4.823,0,0,1,0,29.222ZM.8,9.995A4.026,4.026,0,1,1,4.83,14,4.015,4.015,0,0,1,.8,9.995Z" transform="translate(148.061 534.871)" fill="#2d6759"/>
  </g>
</svg>
