<svg xmlns="http://www.w3.org/2000/svg" width="18.244" height="18.245" viewBox="0 0 18.244 18.245">
  <g id="Group_12326" data-name="Group 12326" transform="translate(0 18.245) rotate(-90)">
    <path id="Close" d="M13.734.779,9.124,5.389,4.506.775A2.639,2.639,0,1,0,.775,4.508L5.389,9.122l-4.61,4.61a2.642,2.642,0,0,0,3.735,3.737l4.612-4.61,4.612,4.612a2.639,2.639,0,1,0,3.733-3.731L12.858,9.124l4.61-4.61A2.641,2.641,0,0,0,13.734.779Z" fill="#2d6759" fill-rule="evenodd"/>
    <path id="Close-2" data-name="Close" d="M13.734.779,9.124,5.389,4.506.775A2.639,2.639,0,1,0,.775,4.508L5.389,9.122l-4.61,4.61a2.642,2.642,0,0,0,3.735,3.737l4.612-4.61,4.612,4.612a2.639,2.639,0,1,0,3.733-3.731L12.858,9.124l4.61-4.61A2.641,2.641,0,0,0,13.734.779Z" fill="#2d6759" fill-rule="evenodd"/>
  </g>
</svg>
