<svg width="9" height="8" viewBox="0 0 9 8" fill="none" xmlns="http://www.w3.org/2000/svg">
<path d="M8.87245 0.660815C9.04252 0.509645 9.04252 0.264549 8.87245 0.113378C8.70238 -0.0377927 8.42665 -0.0377927 8.25658 0.113378L4.5 3.45257L0.743416 0.11338C0.573349 -0.0377911 0.297617 -0.0377911 0.12755 0.11338C-0.0425167 0.26455 -0.0425167 0.509646 0.12755 0.660817L3.88413 4.00001L0.127566 7.33918C-0.042501 7.49035 -0.042501 7.73545 0.127566 7.88662C0.297632 8.03779 0.573365 8.03779 0.743432 7.88662L4.5 4.54744L8.25657 7.88662C8.42663 8.03779 8.70237 8.03779 8.87243 7.88662C9.0425 7.73545 9.0425 7.49036 8.87243 7.33919L5.11587 4.00001L8.87245 0.660815Z" fill="#FAFAFA"/>
</svg>
