<svg width="14" height="13" viewBox="0 0 14 12" fill="none" xmlns="http://www.w3.org/2000/svg">
<path d="M12.1922 12H1.79866C1.45423 11.9996 1.12402 11.8549 0.880532 11.5978C0.637047 11.3406 0.500187 10.9919 0.5 10.6284L0.5 1.46025C0.500146 1.10019 0.63441 0.754616 0.873813 0.498135C1.11322 0.241654 1.43856 0.0948311 1.77961 0.0893577L9.37265 0H9.39592C9.91118 0.000196319 10.4053 0.216148 10.7699 0.600472C11.1345 0.984797 11.3398 1.5061 11.3407 2.05002L11.3633 2.08501V2.17437H12.2013C12.5457 2.17496 12.8758 2.31969 13.1193 2.57681C13.3627 2.83394 13.4996 3.18248 13.5 3.54601V9.09215L13.4937 8.50239V10.6284C13.4936 10.8086 13.4598 10.9871 13.3944 11.1537C13.3289 11.3202 13.233 11.4714 13.1121 11.5988C12.9913 11.7262 12.8478 11.8272 12.69 11.896C12.5321 11.9649 12.363 12.0002 12.1922 12ZM10.8519 5.83432C10.5106 5.84269 10.1859 5.9917 9.9473 6.24949C9.70871 6.50727 9.57513 6.85337 9.57513 7.21378C9.57513 7.57418 9.70871 7.92028 9.9473 8.17806C10.1859 8.43585 10.5106 8.58486 10.8519 8.59324H11.5044C11.6198 8.59304 11.7304 8.54457 11.8119 8.45845C11.8935 8.37233 11.9394 8.25558 11.9396 8.13379V6.29451C11.9394 6.17265 11.8936 6.05582 11.812 5.96958C11.7304 5.88334 11.6198 5.83471 11.5044 5.83432H10.8519ZM2.1824 1.37164C2.08063 1.37164 1.98302 1.41432 1.91106 1.49029C1.83909 1.56626 1.79866 1.66929 1.79866 1.77673V2.18107H9.91793C9.91755 1.96672 9.83672 1.76125 9.69314 1.60968C9.54955 1.45811 9.35491 1.37278 9.15185 1.37239L2.1824 1.37164Z" fill="#F9F4F0"/>
</svg>
