<svg xmlns="http://www.w3.org/2000/svg" width="18.01" height="15.501" viewBox="0 0 18.01 15.501">
  <path id="daily_wallet" data-name="daily wallet" d="M16.2,15.5H1.8A1.788,1.788,0,0,1,0,13.728V1.886A1.786,1.786,0,0,1,1.773.114L12.295,0h.032a2.675,2.675,0,0,1,2.7,2.649l.027.044v.115H16.21a1.788,1.788,0,0,1,1.8,1.771v7.166L18,10.983v2.745A1.788,1.788,0,0,1,16.2,15.5ZM14.344,7.536a1.782,1.782,0,1,0,0,3.563h.905a.6.6,0,0,0,.6-.594V8.129a.6.6,0,0,0-.6-.593ZM2.323,1.771a.523.523,0,0,0-.523.523v.522H13.051a1.047,1.047,0,0,0-1.046-1.045Z" transform="translate(0 0.001)" fill="#F9F4F0"/>
</svg>
