<svg width="22" height="22" viewBox="0 0 22 22" fill="none" xmlns="http://www.w3.org/2000/svg">
<g clip-path="url(#clip0_10189_4209)">
<path d="M4.62811 11C4.62811 12.2155 4.9447 13.375 5.54145 14.4056C5.88554 13.9068 6.29598 13.4255 6.74011 12.9814C7.33101 12.3909 8.31758 12.9945 8.07798 13.7947C7.55067 15.5544 7.25092 17.3869 7.27326 19.2287C7.28117 19.8733 6.58336 20.2603 6.03267 19.9248C4.4607 18.9668 2.70345 18.3281 0.901513 17.873C0.0967945 17.6698 0.0665446 16.5255 0.86817 16.3103C1.40121 16.1647 1.94503 16.0619 2.49445 16.003C1.63553 14.4757 1.18636 12.7522 1.19061 11C1.19061 10.854 1.1937 10.7085 1.19954 10.5638L4.63395 10.7068C4.63017 10.8041 4.62811 10.9021 4.62811 11ZM19.7376 17.061L16.965 15.0295C17.8232 13.8616 18.2841 12.4493 18.2801 11C18.2805 8.66564 17.1062 6.51754 15.1393 5.25323L16.9983 2.36161C19.9539 4.26151 21.718 7.49104 21.7176 11C21.7176 13.1973 21.0332 15.2931 19.7376 17.061ZM11.454 4.1742C8.41245 4.1742 5.71126 6.21539 4.88489 9.13761L1.57698 8.20226C2.82033 3.80639 6.88173 0.7367 11.454 0.7367C12.6107 0.735464 13.7592 0.930144 14.8509 1.31248L13.7141 4.55679C12.9877 4.30248 12.2235 4.17312 11.454 4.1742ZM18.0993 18.8217C16.2438 20.3978 13.8885 21.2632 11.454 21.2634V17.8259C13.0727 17.8259 14.6415 17.2494 15.8725 16.203L18.0993 18.8217Z" fill="#2F4F4F"/>
</g>
<defs>
<clipPath id="clip0_10189_4209">
<rect width="22" height="22" fill="white"/>
</clipPath>
</defs>
</svg>
