<svg width="31" height="79" viewBox="0 0 31 79" fill="none" xmlns="http://www.w3.org/2000/svg">
<path d="M1.50026 39L1.98619 38.8822L1.50026 39ZM25.0002 71.5L25.3907 71.1877L25.3579 71.1467L25.3174 71.1135L25.0002 71.5ZM31.0002 79L30.1309 73.2923L25.6226 76.899L31.0002 79ZM19.6548 0.638505C19.0444 1.22185 18.3907 1.87311 17.7066 2.58439L18.4273 3.27761C19.1024 2.57575 19.7461 1.93446 20.3457 1.3615L19.6548 0.638505ZM14.0187 6.6892C12.8878 8.03241 11.7353 9.4826 10.6042 11.0132L11.4084 11.6076C12.5261 10.0951 13.6655 8.66144 14.7837 7.33325L14.0187 6.6892ZM7.48244 15.5597C6.49796 17.1128 5.5673 18.7157 4.72625 20.3463L5.615 20.8047C6.44084 19.2036 7.35637 17.6265 8.32706 16.095L7.48244 15.5597ZM2.46939 25.4022C1.8047 27.1842 1.28314 28.9762 0.950459 30.7508L1.93334 30.9351C2.25377 29.2258 2.75817 27.4894 3.40634 25.7517L2.46939 25.4022ZM0.585677 36.3309C0.65306 37.2753 0.793268 38.2059 1.01434 39.1178L1.98619 38.8822C1.77904 38.0277 1.64683 37.1523 1.58314 36.2598L0.585677 36.3309ZM1.01434 39.1178C1.21467 39.9442 1.4555 40.7722 1.73236 41.5998L2.6807 41.2825C2.41213 40.4798 2.17934 39.679 1.98619 38.8822L1.01434 39.1178ZM3.69885 46.3547C4.43904 47.8707 5.27501 49.3726 6.17959 50.8464L7.03186 50.3233C6.14185 48.8732 5.32182 47.3995 4.59745 45.916L3.69885 46.3547ZM9.02487 55.1044C10.0314 56.4999 11.0802 57.8556 12.1455 59.1579L12.9195 58.5248C11.8658 57.2366 10.8295 55.897 9.83593 54.5195L9.02487 55.1044ZM15.4867 63.0261C16.6893 64.3474 17.8792 65.5846 19.02 66.7186L19.725 66.0094C18.5954 64.8866 17.4171 63.6614 16.2263 62.3531L15.4867 63.0261ZM22.7392 70.2223C23.4374 70.8427 24.0898 71.3998 24.6831 71.8865L25.3174 71.1135C24.7352 70.6358 24.0928 70.0873 23.4034 69.4747L22.7392 70.2223ZM24.6098 71.8123L26.1098 73.6873L26.8907 73.0627L25.3907 71.1877L24.6098 71.8123Z" fill="#F7F2EC" fill-opacity="0.4"/>
</svg>
