<svg width="31" height="79" viewBox="0 0 31 79" fill="none" xmlns="http://www.w3.org/2000/svg">
<path d="M29.4997 39L29.0138 38.8822L29.4997 39ZM5.99976 71.5L5.60932 71.1877L5.64207 71.1467L5.6826 71.1135L5.99976 71.5ZM-0.000244141 79L0.869057 73.2923L5.37741 76.899L-0.000244141 79ZM11.3452 0.638505C11.9556 1.22185 12.6093 1.87311 13.2934 2.58439L12.5727 3.27761C11.8976 2.57575 11.2539 1.93446 10.6543 1.3615L11.3452 0.638505ZM16.9813 6.6892C18.1122 8.03241 19.2647 9.4826 20.3958 11.0132L19.5916 11.6076C18.4739 10.0951 17.3345 8.66144 16.2163 7.33325L16.9813 6.6892ZM23.5176 15.5597C24.502 17.1128 25.4327 18.7157 26.2738 20.3463L25.385 20.8047C24.5592 19.2036 23.6436 17.6265 22.6729 16.095L23.5176 15.5597ZM28.5306 25.4022C29.1953 27.1842 29.7169 28.9762 30.0495 30.7508L29.0667 30.9351C28.7462 29.2258 28.2418 27.4894 27.5937 25.7517L28.5306 25.4022ZM30.4143 36.3309C30.3469 37.2753 30.2067 38.2059 29.9857 39.1178L29.0138 38.8822C29.221 38.0277 29.3532 37.1523 29.4169 36.2598L30.4143 36.3309ZM29.9857 39.1178C29.7853 39.9442 29.5445 40.7722 29.2676 41.5998L28.3193 41.2825C28.5879 40.4798 28.8207 39.679 29.0138 38.8822L29.9857 39.1178ZM27.3012 46.3547C26.561 47.8707 25.725 49.3726 24.8204 50.8464L23.9681 50.3233C24.8582 48.8732 25.6782 47.3995 26.4025 45.916L27.3012 46.3547ZM21.9751 55.1044C20.9686 56.4999 19.9198 57.8556 18.8545 59.1579L18.0805 58.5248C19.1342 57.2366 20.1705 55.897 21.1641 54.5195L21.9751 55.1044ZM15.5133 63.0261C14.3107 64.3474 13.1208 65.5846 11.98 66.7186L11.275 66.0094C12.4046 64.8866 13.5829 63.6614 14.7737 62.3531L15.5133 63.0261ZM8.2608 70.2223C7.56256 70.8427 6.91018 71.3998 6.31691 71.8865L5.6826 71.1135C6.26477 70.6358 6.90718 70.0873 7.59663 69.4747L8.2608 70.2223ZM6.39019 71.8123L4.89019 73.6873L4.10932 73.0627L5.60932 71.1877L6.39019 71.8123Z" fill="#F7F2EC" fill-opacity="0.4"/>
</svg>
