<svg width="28" height="47" viewBox="0 0 28 47" fill="none" xmlns="http://www.w3.org/2000/svg">
<path d="M5.40682 42.5769L5.09023 42.1899L5.12766 42.1593L5.17028 42.1364L5.40682 42.5769ZM0 47L2.0422 41.5997L5.69786 46.0685L0 47ZM10.1776 0.576069C10.8229 0.979626 11.5217 1.43825 12.2557 1.94445L11.6879 2.76764C10.9656 2.26947 10.2793 1.81912 9.64738 1.42393L10.1776 0.576069ZM16.2352 4.91935C17.4927 5.93561 18.7624 7.03974 19.9727 8.20327L19.2797 8.92419C18.0929 7.78327 16.8452 6.69803 15.6067 5.69713L16.2352 4.91935ZM23.3699 11.8618C24.479 13.2261 25.4401 14.635 26.1552 16.0514L25.2625 16.5021C24.5881 15.1661 23.6711 13.8176 22.594 12.4926L23.3699 11.8618ZM27.4999 20.9898C27.5051 21.8721 27.3646 22.7411 27.0524 23.5839L26.1147 23.2366C26.3821 22.5146 26.5044 21.7661 26.4999 20.9958L27.4999 20.9898ZM27.0524 23.5839C26.7727 24.3389 26.4087 25.0929 25.9761 25.8413L25.1103 25.3407C25.5193 24.6334 25.8576 23.9306 26.1147 23.2366L27.0524 23.5839ZM23.0534 29.8098C22.0041 30.9962 20.8304 32.1561 19.5919 33.2694L18.9234 32.5257C20.1395 31.4325 21.2851 30.2997 22.3043 29.1473L23.0534 29.8098ZM15.8355 36.3784C14.5085 37.3966 13.1704 38.3502 11.8813 39.2187L11.3225 38.3894C12.5966 37.531 13.9178 36.5894 15.2268 35.5851L15.8355 36.3784ZM7.76292 41.8206C6.99409 42.2738 6.28083 42.6751 5.64336 43.0174L5.17028 42.1364C5.79499 41.801 6.49664 41.4063 7.2551 40.9592L7.76292 41.8206ZM5.72341 42.9639L4.3717 44.0697L3.73853 43.2957L5.09023 42.1899L5.72341 42.9639Z" fill="#F7F2EC" fill-opacity="0.4"/>
</svg>
