<svg width="22" height="22" viewBox="0 0 22 22" fill="none" xmlns="http://www.w3.org/2000/svg">
<path d="M4.34588 11.2633C4.34588 12.4788 4.66247 13.6383 5.25922 14.6689C5.60332 14.1701 6.01376 13.6888 6.45788 13.2447C7.04879 12.6542 8.03535 13.2578 7.79576 14.058C7.26844 15.8177 6.96869 17.6502 6.99104 19.492C6.99894 20.1366 6.30113 20.5236 5.75044 20.1881C4.17847 19.2301 2.42122 18.5914 0.619287 18.1363C-0.185432 17.9331 -0.215682 16.7888 0.585943 16.5736C1.11898 16.428 1.66281 16.3252 2.21222 16.2663C1.3533 14.739 0.904131 13.0156 0.908381 11.2633C0.908381 11.1173 0.911474 10.9719 0.917318 10.8271L4.35172 10.9701C4.34794 11.0674 4.34588 11.1654 4.34588 11.2633ZM19.4554 17.3244L16.6827 15.2928C17.5409 14.1249 18.0019 12.7126 17.9979 11.2633C17.9983 8.92894 16.824 6.78085 14.8571 5.51654L16.7161 2.62491C19.6716 4.52482 21.4358 7.75435 21.4354 11.2633C21.4354 13.4606 20.751 15.5564 19.4554 17.3244ZM11.1717 4.43751C8.13022 4.43751 5.42904 6.47869 4.60266 9.40091L1.29476 8.46557C2.5381 4.06969 6.59951 1.00001 11.1717 1.00001C12.3284 0.998769 13.477 1.19345 14.5687 1.57579L13.4319 4.8201C12.7055 4.56579 11.9413 4.43643 11.1717 4.43751ZM17.8171 19.085C15.9616 20.6611 13.6063 21.5265 11.1717 21.5267V18.0892C12.7904 18.0892 14.3593 17.5127 15.5903 16.4664L17.8171 19.085Z" fill="#F7F2EC"/>
</svg>
