<svg xmlns="http://www.w3.org/2000/svg" xmlns:xlink="http://www.w3.org/1999/xlink" width="43.521" height="39.993" viewBox="0 0 43.521 39.993">
  <defs>
    <linearGradient id="linear-gradient" x1="0.157" y1="0.247" x2="0.87" y2="0.724" gradientUnits="objectBoundingBox">
      <stop offset="0" stop-color="#00836a"/>
      <stop offset="1" stop-color="#073e39"/>
    </linearGradient>
  </defs>
  <g id="Declaration" transform="translate(-46.444 -471)">
    <path id="hexagontile3" d="M24.559,0a5,5,0,0,1,4.327,2.495l6.253,10.8a5,5,0,0,1,0,5.01L28.886,29.1A5,5,0,0,1,24.559,31.6H12.03A5,5,0,0,1,7.7,29.1L1.45,18.3a5,5,0,0,1,0-5.01L7.7,2.495A5,5,0,0,1,12.03,0Z" transform="matrix(0.966, 0.259, -0.259, 0.966, 54.623, 471)" fill="url(#linear-gradient)"/>
    <g id="project" transform="translate(62.371 483.85)">
      <path id="Combined_Shape" data-name="Combined Shape" d="M.833,14.447A.839.839,0,0,1,.244,14.2.829.829,0,0,1,0,13.616V2.162a.832.832,0,0,1,.833-.834h.556a.834.834,0,0,1,.833.834A1.087,1.087,0,0,0,3.308,3.249H8.359A1.087,1.087,0,0,0,9.445,2.183V2.162a.829.829,0,0,1,.244-.589.839.839,0,0,1,.589-.245h.556a.832.832,0,0,1,.833.834V13.614a.821.821,0,0,1-.063.319.832.832,0,0,1-.77.515ZM7.5,10.281h.03a.833.833,0,0,0,.3-1.612.82.82,0,0,0-.3-.055H4.137a.834.834,0,0,0-.578.234.834.834,0,0,0,.578,1.434H7.5Zm0-3.334h.03a.833.833,0,0,0,.3-1.612.82.82,0,0,0-.3-.055H4.137a.834.834,0,0,0-.578.234.834.834,0,0,0,.578,1.434H7.5Zm0-5.28H4.166A.834.834,0,1,1,4.166,0H7.5a.833.833,0,0,1,.609.234.834.834,0,0,1,0,1.2.83.83,0,0,1-.579.234Z" transform="translate(0 0)" fill="#fafcfc"/>
    </g>
  </g>
</svg>
