<svg xmlns="http://www.w3.org/2000/svg" width="25.98" height="21.401" viewBox="0 0 25.98 21.401">
  <g id="icon_dms_grey" transform="translate(-41 -438.999)">
    <path id="Path_119619" data-name="Path 119619" d="M19.746,6.531v.141h1.429a2.193,2.193,0,0,1,2.215,2.172v8.785l-.011-.934v3.366a2.2,2.2,0,0,1-2.215,2.172H3.445A2.193,2.193,0,0,1,1.23,20.062V5.543A2.186,2.186,0,0,1,3.412,3.371L16.357,3.23a3.292,3.292,0,0,1,3.355,3.247Z" transform="translate(39.77 435.77)" fill="#a2a2a2" fill-rule="evenodd"/>
    <path id="Rectangle_8881" data-name="Rectangle 8881" d="M.641,0H12.561a1.281,1.281,0,0,1,1.281,1.281v0a0,0,0,0,1,0,0H0a0,0,0,0,1,0,0V.641A.641.641,0,0,1,.641,0Z" transform="translate(43.214 441.172)" fill="#fdf7f0"/>
    <g id="Group_46755" data-name="Group 46755" transform="translate(23 -20.992)">
      <circle id="Ellipse_2559" data-name="Ellipse 2559" cx="8.2" cy="8.2" r="8.2" transform="translate(27.579 464.992)" fill="#a2a2a2"/>
      <circle id="Ellipse_2560" data-name="Ellipse 2560" cx="5.999" cy="5.999" r="5.999" transform="translate(29.78 467.193)" fill="#fdf7f0"/>
    </g>
    <path id="Path_119629" data-name="Path 119629" d="M16.32,12.46v2.8h2.33v2H15.31a1,1,0,0,1-1-1V12.45h2Z" transform="translate(42.747 436.346)" fill="#a2a2a2" fill-rule="evenodd"/>
  </g>
</svg>
