<svg width="185" height="145" viewBox="0 0 185 145" fill="none" xmlns="http://www.w3.org/2000/svg">
<g opacity="0.272">
<path d="M41.7527 133.978C60.0421 133.978 74.8686 119.152 74.8686 100.864C74.8686 82.5756 60.0421 67.75 41.7527 67.75C23.4632 67.75 8.63672 82.5756 8.63672 100.864C8.63672 119.152 23.4632 133.978 41.7527 133.978Z" fill="#2F4F4F"/>
<path d="M41.7527 133.978C60.0421 133.978 74.8686 119.152 74.8686 100.864C74.8686 82.5756 60.0421 67.75 41.7527 67.75C23.4632 67.75 8.63672 82.5756 8.63672 100.864C8.63672 119.152 23.4632 133.978 41.7527 133.978Z" fill="url(#paint0_linear_11731_23500)"/>
<path d="M50.8257 143.216C51.2616 143.569 51.7924 143.785 52.351 143.836C52.9096 143.887 53.4709 143.772 53.9639 143.504C54.4569 143.237 54.8594 142.829 55.1207 142.333C55.382 141.836 55.4902 141.274 55.4317 140.716C55.3732 140.158 55.1505 139.63 54.792 139.199C54.4334 138.767 53.955 138.452 53.4172 138.292C52.8794 138.133 52.3064 138.136 51.7706 138.303C51.2349 138.469 50.7604 138.79 50.4072 139.226C49.9337 139.81 49.7118 140.559 49.7903 141.307C49.8687 142.056 50.2412 142.742 50.8257 143.216Z" fill="#2F4F4F"/>
<path d="M50.8257 143.216C51.2616 143.569 51.7924 143.785 52.351 143.836C52.9096 143.887 53.4709 143.772 53.9639 143.504C54.4569 143.237 54.8594 142.829 55.1207 142.333C55.382 141.836 55.4902 141.274 55.4317 140.716C55.3732 140.158 55.1505 139.63 54.792 139.199C54.4334 138.767 53.955 138.452 53.4172 138.292C52.8794 138.133 52.3064 138.136 51.7706 138.303C51.2349 138.469 50.7604 138.79 50.4072 139.226C49.9337 139.81 49.7118 140.559 49.7903 141.307C49.8687 142.056 50.2412 142.742 50.8257 143.216Z" fill="url(#paint1_linear_11731_23500)"/>
<path d="M61.0221 137.226C61.3199 137.467 61.6826 137.614 62.0642 137.65C62.4458 137.685 62.8293 137.606 63.1661 137.423C63.5029 137.24 63.7779 136.961 63.9563 136.622C64.1347 136.283 64.2086 135.899 64.1685 135.518C64.1285 135.137 63.9763 134.776 63.7312 134.481C63.4862 134.187 63.1593 133.971 62.7918 133.862C62.4244 133.754 62.0329 133.756 61.6669 133.87C61.3009 133.983 60.9769 134.203 60.7357 134.501C60.4123 134.9 60.2608 135.412 60.3145 135.923C60.3682 136.434 60.6228 136.903 61.0221 137.226Z" fill="#2F4F4F"/>
<path d="M61.0221 137.226C61.3199 137.467 61.6826 137.614 62.0642 137.65C62.4458 137.685 62.8293 137.606 63.1661 137.423C63.5029 137.24 63.7779 136.961 63.9563 136.622C64.1347 136.283 64.2086 135.899 64.1685 135.518C64.1285 135.137 63.9763 134.776 63.7312 134.481C63.4862 134.187 63.1593 133.971 62.7918 133.862C62.4244 133.754 62.0329 133.756 61.6669 133.87C61.3009 133.983 60.9769 134.203 60.7357 134.501C60.4123 134.9 60.2608 135.412 60.3145 135.923C60.3682 136.434 60.6228 136.903 61.0221 137.226Z" fill="url(#paint2_linear_11731_23500)"/>
<path d="M3.59774 91.6628C4.3093 91.6628 5.00489 91.4518 5.59653 91.0565C6.18818 90.6612 6.64931 90.0994 6.92161 89.442C7.19392 88.7846 7.26517 88.0613 7.12635 87.3635C6.98753 86.6656 6.64488 86.0246 6.14172 85.5215C5.63857 85.0183 4.99751 84.6757 4.29962 84.5369C3.60173 84.3981 2.87834 84.4693 2.22094 84.7416C1.56354 85.0139 1.00165 85.475 0.606328 86.0666C0.211003 86.6582 0 87.3538 0 88.0653C0 89.0194 0.379046 89.9345 1.05375 90.6091C1.72846 91.2838 2.64356 91.6628 3.59774 91.6628Z" fill="#2F4F4F"/>
<path d="M3.59774 91.6628C4.3093 91.6628 5.00489 91.4518 5.59653 91.0565C6.18818 90.6612 6.64931 90.0994 6.92161 89.442C7.19392 88.7846 7.26517 88.0613 7.12635 87.3635C6.98753 86.6656 6.64488 86.0246 6.14172 85.5215C5.63857 85.0183 4.99751 84.6757 4.29962 84.5369C3.60173 84.3981 2.87834 84.4693 2.22094 84.7416C1.56354 85.0139 1.00165 85.475 0.606328 86.0666C0.211003 86.6582 0 87.3538 0 88.0653C0 89.0194 0.379046 89.9345 1.05375 90.6091C1.72846 91.2838 2.64356 91.6628 3.59774 91.6628Z" fill="url(#paint3_linear_11731_23500)"/>
</g>
<g opacity="0.272">
<path d="M170.2 33.9501C175.608 29.8761 176.689 22.1899 172.614 16.7825C168.54 11.3752 160.853 10.2943 155.446 14.3684C150.038 18.4424 148.957 26.1286 153.032 31.536C157.106 36.9434 164.793 38.0242 170.2 33.9501Z" fill="#2F4F4F"/>
<path d="M170.2 33.9501C175.608 29.8761 176.689 22.1899 172.614 16.7825C168.54 11.3752 160.853 10.2943 155.446 14.3684C150.038 18.4424 148.957 26.1286 153.032 31.536C157.106 36.9434 164.793 38.0242 170.2 33.9501Z" fill="url(#paint4_linear_11731_23500)"/>
<path d="M169.574 38.7014C169.524 38.9029 169.415 39.085 169.261 39.2246C169.107 39.3642 168.916 39.4551 168.71 39.4858C168.505 39.5165 168.295 39.4856 168.107 39.397C167.919 39.3084 167.762 39.166 167.655 38.988C167.548 38.81 167.496 38.6043 167.506 38.3968C167.516 38.1894 167.588 37.9896 167.711 37.8227C167.835 37.6557 168.005 37.5292 168.2 37.459C168.396 37.3889 168.608 37.3783 168.809 37.4285C169.079 37.4959 169.312 37.6679 169.455 37.9066C169.599 38.1453 169.641 38.4312 169.574 38.7014Z" fill="#2F4F4F"/>
<path d="M169.574 38.7014C169.524 38.9029 169.415 39.085 169.261 39.2246C169.107 39.3642 168.916 39.4551 168.71 39.4858C168.505 39.5165 168.295 39.4856 168.107 39.397C167.919 39.3084 167.762 39.166 167.655 38.988C167.548 38.81 167.496 38.6043 167.506 38.3968C167.516 38.1894 167.588 37.9896 167.711 37.8227C167.835 37.6557 168.005 37.5292 168.2 37.459C168.396 37.3889 168.608 37.3783 168.809 37.4285C169.079 37.4959 169.312 37.6679 169.455 37.9066C169.599 38.1453 169.641 38.4312 169.574 38.7014Z" fill="url(#paint5_linear_11731_23500)"/>
<path d="M165.227 39.1998C165.193 39.3373 165.119 39.4615 165.014 39.5567C164.909 39.652 164.778 39.714 164.638 39.7349C164.498 39.7558 164.355 39.7347 164.226 39.6743C164.098 39.6139 163.991 39.5168 163.918 39.3954C163.845 39.2739 163.81 39.1336 163.817 38.9921C163.823 38.8506 163.872 38.7143 163.956 38.6004C164.041 38.4866 164.157 38.4002 164.29 38.3524C164.423 38.3045 164.568 38.2973 164.705 38.3316C164.89 38.3778 165.048 38.4952 165.146 38.6579C165.243 38.8207 165.273 39.0155 165.227 39.1998Z" fill="#2F4F4F"/>
<path d="M165.227 39.1998C165.193 39.3373 165.119 39.4615 165.014 39.5567C164.909 39.652 164.778 39.714 164.638 39.7349C164.498 39.7558 164.355 39.7347 164.226 39.6743C164.098 39.6139 163.991 39.5168 163.918 39.3954C163.845 39.2739 163.81 39.1336 163.817 38.9921C163.823 38.8506 163.872 38.7143 163.956 38.6004C164.041 38.4866 164.157 38.4002 164.29 38.3524C164.423 38.3045 164.568 38.2973 164.705 38.3316C164.89 38.3778 165.048 38.4952 165.146 38.6579C165.243 38.8207 165.273 39.0155 165.227 39.1998Z" fill="url(#paint6_linear_11731_23500)"/>
<path d="M172.052 12.9387C171.842 13.0971 171.589 13.1897 171.327 13.2046C171.064 13.2195 170.802 13.1561 170.575 13.0224C170.349 12.8888 170.166 12.6909 170.052 12.4537C169.938 12.2166 169.896 11.9508 169.933 11.6901C169.969 11.4293 170.083 11.1853 170.258 10.9889C170.433 10.7925 170.663 10.6525 170.918 10.5866C171.173 10.5207 171.442 10.5318 171.69 10.6187C171.939 10.7055 172.156 10.8641 172.314 11.0744C172.527 11.3564 172.619 11.7112 172.57 12.0608C172.52 12.4105 172.334 12.7262 172.052 12.9387Z" fill="#2F4F4F"/>
<path d="M172.052 12.9387C171.842 13.0971 171.589 13.1897 171.327 13.2046C171.064 13.2195 170.802 13.1561 170.575 13.0224C170.349 12.8888 170.166 12.6909 170.052 12.4537C169.938 12.2166 169.896 11.9508 169.933 11.6901C169.969 11.4293 170.083 11.1853 170.258 10.9889C170.433 10.7925 170.663 10.6525 170.918 10.5866C171.173 10.5207 171.442 10.5318 171.69 10.6187C171.939 10.7055 172.156 10.8641 172.314 11.0744C172.527 11.3564 172.619 11.7112 172.57 12.0608C172.52 12.4105 172.334 12.7262 172.052 12.9387Z" fill="url(#paint7_linear_11731_23500)"/>
</g>
<path d="M100.995 129.143C136.66 129.143 165.571 100.234 165.571 64.5716C165.571 28.9097 136.66 0 100.995 0C65.3314 0 36.4199 28.9097 36.4199 64.5716C36.4199 100.234 65.3314 129.143 100.995 129.143Z" fill="#F7F2EC"/>
<path d="M100.995 127.893C135.969 127.893 164.321 99.5432 164.321 64.5716C164.321 29.6001 135.969 1.25 100.995 1.25C66.0217 1.25 37.6699 29.6001 37.6699 64.5716C37.6699 99.5432 66.0217 127.893 100.995 127.893Z" stroke="#002C27" stroke-width="2"/>
<path d="M160.782 65.2076C160.794 73.1237 159.231 80.9631 156.184 88.2691C153.136 95.5752 148.665 102.202 143.031 107.763C137.53 113.241 131.001 117.577 123.818 120.523C116.635 123.468 108.941 124.964 101.178 124.925C89.3611 124.949 77.8027 121.466 67.9659 114.918C58.1291 108.37 50.456 99.0513 45.9177 88.1411C41.3794 77.2309 40.18 65.2196 42.4713 53.6275C44.7625 42.0354 50.4414 31.3834 58.7892 23.0199C67.137 14.6563 77.7784 8.95694 89.3668 6.64326C100.955 4.32959 112.969 5.50563 123.889 10.0223C134.809 14.5391 144.143 22.1935 150.711 32.017C157.278 41.8404 160.784 53.3912 160.783 65.2076H160.782Z" fill="url(#paint8_linear_11731_23500)"/>
<path d="M101 113C128.062 113 150 91.2858 150 64.5C150 37.7142 128.062 16 101 16C73.938 16 52 37.7142 52 64.5C52 91.2858 73.938 113 101 113Z" fill="#F7F2EC"/>
<path d="M101.168 21.2217C77.1436 21.2217 57.668 40.9212 57.668 65.2217C57.668 89.5222 77.1436 109.222 101.168 109.222C125.192 109.222 144.668 89.5222 144.668 65.2217C144.668 40.9212 125.192 21.2217 101.168 21.2217Z" stroke="#002C27" stroke-width="1.5" stroke-dasharray="1.5 1.5"/>
<path d="M110.578 58.9264L112.373 57.1309L110.607 55.3636L108.686 57.2843C106.931 56.0408 104.884 55.2745 102.744 55.0603V52.4989H105.243V50H97.7461V52.4989H100.245V55.0603C98.1052 55.2745 96.0576 56.0408 94.303 57.2843L92.3823 55.3636L90.6155 57.1309L92.411 58.9264C90.735 60.7008 89.6155 62.9273 89.1907 65.3309C88.7659 67.7344 89.0544 70.2098 90.0205 72.4512C90.9867 74.6927 92.5882 76.6021 94.6272 77.9436C96.6663 79.2851 99.0537 80 101.494 80C103.935 80 106.323 79.2851 108.362 77.9436C110.401 76.6021 112.002 74.6927 112.968 72.4512C113.935 70.2098 114.223 67.7344 113.798 65.3309C113.373 62.9273 112.254 60.7008 110.578 58.9264ZM101.494 77.4878C99.5175 77.4878 97.585 76.9016 95.9412 75.8033C94.2975 74.7049 93.0163 73.1439 92.2598 71.3174C91.5032 69.4909 91.3053 67.4812 91.691 65.5422C92.0766 63.6033 93.0286 61.8222 94.4265 60.4243C95.8244 59.0264 97.6055 58.0744 99.5444 57.6887C101.483 57.3031 103.493 57.501 105.32 58.2575C107.146 59.0141 108.707 60.2952 109.805 61.939C110.904 63.5828 111.49 65.5153 111.49 67.4923C111.487 70.1423 110.433 72.683 108.559 74.5569C106.685 76.4308 104.145 77.4849 101.494 77.4878Z" fill="black"/>
<path d="M110.578 58.9264L112.373 57.1309L110.607 55.3636L108.686 57.2843C106.931 56.0408 104.884 55.2745 102.744 55.0603V52.4989H105.243V50H97.7461V52.4989H100.245V55.0603C98.1052 55.2745 96.0576 56.0408 94.303 57.2843L92.3823 55.3636L90.6155 57.1309L92.411 58.9264C90.735 60.7008 89.6155 62.9273 89.1907 65.3309C88.7659 67.7344 89.0544 70.2098 90.0205 72.4512C90.9867 74.6927 92.5882 76.6021 94.6272 77.9436C96.6663 79.2851 99.0537 80 101.494 80C103.935 80 106.323 79.2851 108.362 77.9436C110.401 76.6021 112.002 74.6927 112.968 72.4512C113.935 70.2098 114.223 67.7344 113.798 65.3309C113.373 62.9273 112.254 60.7008 110.578 58.9264ZM101.494 77.4878C99.5175 77.4878 97.585 76.9016 95.9412 75.8033C94.2975 74.7049 93.0163 73.1439 92.2598 71.3174C91.5032 69.4909 91.3053 67.4812 91.691 65.5422C92.0766 63.6033 93.0286 61.8222 94.4265 60.4243C95.8244 59.0264 97.6055 58.0744 99.5444 57.6887C101.483 57.3031 103.493 57.501 105.32 58.2575C107.146 59.0141 108.707 60.2952 109.805 61.939C110.904 63.5828 111.49 65.5153 111.49 67.4923C111.487 70.1423 110.433 72.683 108.559 74.5569C106.685 76.4308 104.145 77.4849 101.494 77.4878Z" fill="url(#paint9_linear_11731_23500)"/>
<path d="M101.494 59.9951V67.4918H93.9976C93.9976 68.9745 94.4372 70.4239 95.261 71.6567C96.0847 72.8896 97.2555 73.8504 98.6254 74.4178C99.9952 74.9852 101.503 75.1337 102.957 74.8444C104.411 74.5552 105.747 73.8412 106.795 72.7928C107.844 71.7443 108.558 70.4085 108.847 68.9543C109.136 67.5001 108.988 65.9928 108.42 64.6229C107.853 63.2531 106.892 62.0823 105.659 61.2585C104.426 60.4348 102.977 59.9951 101.494 59.9951Z" fill="black"/>
<path d="M101.494 59.9951V67.4918H93.9976C93.9976 68.9745 94.4372 70.4239 95.261 71.6567C96.0847 72.8896 97.2555 73.8504 98.6254 74.4178C99.9952 74.9852 101.503 75.1337 102.957 74.8444C104.411 74.5552 105.747 73.8412 106.795 72.7928C107.844 71.7443 108.558 70.4085 108.847 68.9543C109.136 67.5001 108.988 65.9928 108.42 64.6229C107.853 63.2531 106.892 62.0823 105.659 61.2585C104.426 60.4348 102.977 59.9951 101.494 59.9951Z" fill="url(#paint10_linear_11731_23500)"/>
<defs>
<linearGradient id="paint0_linear_11731_23500" x1="41.7527" y1="67.75" x2="41.7527" y2="133.978" gradientUnits="userSpaceOnUse">
<stop stop-color="#00836A"/>
<stop offset="1" stop-color="#073E39"/>
</linearGradient>
<linearGradient id="paint1_linear_11731_23500" x1="54.3957" y1="138.807" x2="50.8259" y2="143.216" gradientUnits="userSpaceOnUse">
<stop stop-color="#00836A"/>
<stop offset="1" stop-color="#073E39"/>
</linearGradient>
<linearGradient id="paint2_linear_11731_23500" x1="63.4609" y1="134.214" x2="61.0223" y2="137.226" gradientUnits="userSpaceOnUse">
<stop stop-color="#00836A"/>
<stop offset="1" stop-color="#073E39"/>
</linearGradient>
<linearGradient id="paint3_linear_11731_23500" x1="3.59774" y1="84.4678" x2="3.59774" y2="91.6628" gradientUnits="userSpaceOnUse">
<stop stop-color="#00836A"/>
<stop offset="1" stop-color="#073E39"/>
</linearGradient>
<linearGradient id="paint4_linear_11731_23500" x1="155.446" y1="14.3684" x2="170.199" y2="33.951" gradientUnits="userSpaceOnUse">
<stop stop-color="#00836A"/>
<stop offset="1" stop-color="#073E39"/>
</linearGradient>
<linearGradient id="paint5_linear_11731_23500" x1="169.574" y1="38.7014" x2="167.536" y2="38.1932" gradientUnits="userSpaceOnUse">
<stop stop-color="#00836A"/>
<stop offset="1" stop-color="#073E39"/>
</linearGradient>
<linearGradient id="paint6_linear_11731_23500" x1="165.227" y1="39.1998" x2="163.837" y2="38.8532" gradientUnits="userSpaceOnUse">
<stop stop-color="#00836A"/>
<stop offset="1" stop-color="#073E39"/>
</linearGradient>
<linearGradient id="paint7_linear_11731_23500" x1="170.45" y1="10.8122" x2="172.052" y2="12.9388" gradientUnits="userSpaceOnUse">
<stop stop-color="#00836A"/>
<stop offset="1" stop-color="#073E39"/>
</linearGradient>
<linearGradient id="paint8_linear_11731_23500" x1="101.061" y1="5.4873" x2="101.061" y2="124.926" gradientUnits="userSpaceOnUse">
<stop stop-color="#00836A"/>
<stop offset="1" stop-color="#073E39"/>
</linearGradient>
<linearGradient id="paint9_linear_11731_23500" x1="101.494" y1="50" x2="101.494" y2="80" gradientUnits="userSpaceOnUse">
<stop stop-color="#00836A"/>
<stop offset="1" stop-color="#073E39"/>
</linearGradient>
<linearGradient id="paint10_linear_11731_23500" x1="101.494" y1="59.9951" x2="101.494" y2="74.9885" gradientUnits="userSpaceOnUse">
<stop stop-color="#00836A"/>
<stop offset="1" stop-color="#073E39"/>
</linearGradient>
</defs>
</svg>
