<svg xmlns="http://www.w3.org/2000/svg" width="8.241" height="8.241" viewBox="0 0 8.241 8.241">
  <g id="delete" transform="translate(-170.059 402.144) rotate(-90)">
    <path id="Close" d="M400.106,170.411l-2.083,2.083-2.086-2.084a1.192,1.192,0,1,0-1.685,1.686l2.084,2.084-2.083,2.083a1.193,1.193,0,0,0,1.687,1.688l2.083-2.083,2.083,2.083a1.192,1.192,0,1,0,1.686-1.685l-2.083-2.085,2.083-2.082a1.193,1.193,0,0,0-1.687-1.687Z" transform="translate(0 0)" fill="#fff" fill-rule="evenodd"/>
    <path id="Close-2" data-name="Close" d="M400.106,170.411l-2.083,2.083-2.086-2.084a1.192,1.192,0,1,0-1.685,1.686l2.084,2.084-2.083,2.083a1.193,1.193,0,0,0,1.687,1.688l2.083-2.083,2.083,2.083a1.192,1.192,0,1,0,1.686-1.685l-2.083-2.085,2.083-2.082a1.193,1.193,0,0,0-1.687-1.687Z" transform="translate(0 0)" fill="#fff" fill-rule="evenodd"/>
  </g>
</svg>
