<svg width="10" height="9" viewBox="0 0 10 9" fill="none" xmlns="http://www.w3.org/2000/svg">
<path d="M8.88662 1.16082C9.03779 1.00964 9.03779 0.764549 8.88662 0.613378C8.73545 0.462207 8.49036 0.462207 8.33919 0.613378L5 3.95257L1.66081 0.61338C1.50964 0.462209 1.26455 0.462209 1.11338 0.61338C0.962207 0.76455 0.962207 1.00965 1.11338 1.16082L4.45256 4.50001L1.11339 7.83918C0.962221 7.99035 0.962221 8.23545 1.11339 8.38662C1.26456 8.53779 1.50966 8.53779 1.66083 8.38662L5 5.04744L8.33917 8.38662C8.49034 8.53779 8.73544 8.53779 8.88661 8.38662C9.03778 8.23545 9.03778 7.99036 8.88661 7.83919L5.54744 4.50001L8.88662 1.16082Z" fill="#FAFAFA" stroke="#FAFAFA" stroke-width="0.5" stroke-linecap="round"/>
</svg>
