<svg xmlns="http://www.w3.org/2000/svg" width="16.369" height="25.725" viewBox="0 0 16.369 25.725">
  <path id="delete_phone" data-name="delete phone" d="M936.862,9493.725h-9.354a3.511,3.511,0,0,1-3.507-3.507v-18.711a3.511,3.511,0,0,1,3.507-3.507h9.354a3.511,3.511,0,0,1,3.507,3.507v18.711A3.511,3.511,0,0,1,936.862,9493.725Zm-6.431-5.261v2.338h3.507v-2.338Zm-1.7-10.078.3,4.65a1.208,1.208,0,0,0,1.206,1.132h3.86a1.209,1.209,0,0,0,1.206-1.144l.3-4.665h.6v-2.435h-2.85v-.524h-2.435v.512h-2.85v2.436l.062.038Z" transform="translate(-924.001 -9468)" fill="#91785d"/>
</svg>
