<svg xmlns="http://www.w3.org/2000/svg" width="6.998" height="9.703" viewBox="0 0 6.998 9.703">
  <g id="delete" transform="translate(-3.977 -0.89)">
    <path id="Path_206445" data-name="Path 206445" d="M4.1,6.73a.417.417,0,0,1,.319-.14h6.122a.428.428,0,0,1,.433.463l-.437,6.34a.442.442,0,0,1-.437.407H4.853a.437.437,0,0,1-.437-.411L3.978,7.045a.443.443,0,0,1,.114-.332Z" transform="translate(0 -3.208)" fill="#f2ede6" fill-rule="evenodd"/>
    <path id="Path_206446" data-name="Path 206446" d="M10.312,1.769a.433.433,0,0,0-.437.437v.3H9V2.2a1.312,1.312,0,1,1,2.624,0v.3h-.875V2.2a.436.436,0,0,0-.437-.437Z" transform="translate(-2.827)" fill="#f2ede6" fill-rule="evenodd"/>
    <path id="Path_206447" data-name="Path 206447" d="M4.029,4.413A1.307,1.307,0,0,1,5.319,3.32H9.691a1.307,1.307,0,0,1,1.29,1.093H4.02Zm.039.875a.439.439,0,0,0,.376.219h6.122a.439.439,0,0,0,.376-.219H4.059Z" transform="translate(-0.024 -1.367)" fill="#f2ede6" fill-rule="evenodd"/>
  </g>
</svg>
