<svg width="17" height="18" viewBox="0 0 17 18" fill="none" xmlns="http://www.w3.org/2000/svg">
<path d="M13.7135 9.6307C13.7135 12.3236 11.8768 14.9438 8.31902 15.0123C6.92082 14.9728 5.59315 14.3896 4.61814 13.3867C3.64313 12.3838 3.09766 11.0401 3.09766 9.64139C3.09766 8.24263 3.64313 6.89902 4.61814 5.89609C5.59315 4.89316 6.92082 4.30999 8.31902 4.27051C11.7141 4.30048 13.7092 6.81361 13.7135 9.6307ZM8.68294 11.8955V8.96711C8.68294 8.66313 8.57591 8.56038 8.25481 8.56038H7.75391C7.71203 8.55686 7.66986 8.56195 7.63002 8.57532C7.59018 8.5887 7.55351 8.61007 7.52223 8.63814C7.49096 8.66621 7.46576 8.70037 7.44818 8.73854C7.43059 8.7767 7.42097 8.81806 7.41995 8.86007C7.41699 8.90381 7.42313 8.94766 7.43798 8.9889C7.45284 9.03014 7.47611 9.06785 7.50629 9.09964C7.53647 9.13143 7.57291 9.15661 7.61332 9.17359C7.65373 9.19057 7.69722 9.19898 7.74105 9.19829C7.83096 9.19829 7.92087 9.19829 8.01078 9.19829V11.8955C7.89946 11.8955 7.80527 11.8955 7.71108 11.8955C7.67248 11.8955 7.63427 11.9032 7.59866 11.9181C7.56306 11.933 7.53079 11.9548 7.5037 11.9823C7.47661 12.0098 7.45526 12.0424 7.44089 12.0782C7.42651 12.114 7.41939 12.1523 7.41995 12.1909C7.41183 12.2293 7.41217 12.2689 7.42095 12.3072C7.42972 12.3454 7.44673 12.3812 7.47078 12.4122C7.49482 12.4432 7.52532 12.4685 7.56017 12.4865C7.59502 12.5045 7.63338 12.5147 7.67256 12.5163C8.1221 12.5163 8.57161 12.5163 9.01687 12.5163C9.05604 12.5138 9.09427 12.5031 9.1291 12.485C9.16393 12.4669 9.19461 12.4418 9.21918 12.4112C9.24375 12.3806 9.26167 12.3452 9.2718 12.3072C9.28194 12.2693 9.28408 12.2297 9.27805 12.1909C9.27861 12.1521 9.27152 12.1136 9.2572 12.0775C9.24287 12.0415 9.22159 12.0086 9.19456 11.9808C9.16753 11.9529 9.13525 11.9307 9.09963 11.9153C9.064 11.9 9.02569 11.8918 8.9869 11.8912C8.90127 11.8869 8.78569 11.8955 8.68294 11.8955ZM8.78569 7.29739C8.78739 7.19289 8.75795 7.09024 8.70113 7.00253C8.64431 6.91481 8.56267 6.84599 8.4666 6.80482C8.37054 6.76365 8.26442 6.75198 8.16171 6.77132C8.059 6.79066 7.96437 6.84013 7.88987 6.91342C7.81536 6.98671 7.76435 7.08053 7.74332 7.18291C7.7223 7.28529 7.73221 7.3916 7.77181 7.48833C7.8114 7.58505 7.87887 7.66779 7.96565 7.72604C8.05242 7.78429 8.15458 7.81542 8.2591 7.81543C8.39696 7.81436 8.52898 7.75969 8.62726 7.66301C8.72554 7.56633 8.78236 7.43521 8.78569 7.29739Z" fill="black"/>
<path d="M6.83937 2.07871C5.89603 2.24301 4.99759 2.60326 4.20207 3.13621C3.12305 3.82804 2.23272 4.77698 1.611 5.89786C0.989286 7.01874 0.655641 8.27649 0.640029 9.55816C0.621832 10.1936 0.696846 10.8282 0.862665 11.4419C0.878591 11.4936 0.890057 11.5466 0.896922 11.6003C0.906318 11.6411 0.90742 11.6834 0.900163 11.7246C0.892905 11.7659 0.877431 11.8052 0.854669 11.8404C0.831906 11.8755 0.802316 11.9057 0.767652 11.9292C0.732989 11.9527 0.693962 11.969 0.652885 11.9771C0.612026 11.9878 0.56939 11.9898 0.527692 11.9831C0.485994 11.9764 0.446151 11.9611 0.410703 11.9381C0.375256 11.9152 0.344976 11.8851 0.321806 11.8498C0.298636 11.8145 0.283082 11.7747 0.276129 11.733C0.180262 11.3438 0.10735 10.9492 0.0577785 10.5514C-0.0774069 9.41843 0.0252529 8.26973 0.359199 7.1787C0.693146 6.08766 1.25105 5.07828 1.99722 4.21508C3.15471 2.82688 4.74303 1.86544 6.5097 1.48361C6.68523 1.44508 6.78799 1.39799 6.83937 1.19248C6.92812 0.828513 7.14467 0.508537 7.44958 0.29086C7.75448 0.0731825 8.12745 -0.0277167 8.50051 0.00655498C8.87349 0.0364669 9.22394 0.197114 9.49007 0.460136C9.7562 0.723158 9.92091 1.07168 9.9552 1.44428C9.98949 1.81688 9.89116 2.18963 9.6775 2.49681C9.46385 2.80399 9.1486 3.02587 8.78735 3.12335C8.4264 3.22244 8.04203 3.19088 7.70208 3.03422C7.36213 2.87756 7.08843 2.60587 6.92926 2.26709C6.89929 2.22 6.87362 2.16006 6.83937 2.07871Z" fill="black"/>
<path d="M15.5829 12.4778C15.7156 11.9341 15.8826 11.4032 15.9768 10.8638C16.2446 9.20704 15.9643 7.50813 15.1785 6.02523C14.3926 4.54234 13.1441 3.35652 11.6227 2.64799C11.383 2.53668 11.1304 2.44248 10.8821 2.34829C10.6337 2.2541 10.5181 2.09998 10.5781 1.92016C10.638 1.74035 10.8221 1.65902 11.079 1.74464C12.8553 2.32032 14.3714 3.50442 15.3603 5.08833C16.3681 6.62135 16.8449 8.44278 16.7175 10.273C16.6695 11.0879 16.4872 11.8893 16.178 12.6448C16.1517 12.6893 16.1419 12.7416 16.1506 12.7926C16.1592 12.8435 16.1856 12.8898 16.2251 12.9231C16.4585 13.1725 16.6051 13.4907 16.6429 13.8302C16.6807 14.1697 16.6077 14.5124 16.4349 14.807C16.262 15.1017 15.9986 15.3326 15.6838 15.4653C15.369 15.5979 15.0197 15.6253 14.6881 15.5433C14.2951 15.4363 13.9582 15.1825 13.7471 14.8342C13.5359 14.486 13.4666 14.0699 13.5534 13.672C13.6403 13.2741 13.8766 12.9247 14.2137 12.6961C14.5508 12.4675 14.9627 12.3771 15.3646 12.4436L15.5829 12.4778Z" fill="black"/>
<path d="M2.85846 15.0425C3.40023 15.6121 4.03599 16.0843 4.73793 16.4382C7.64065 17.8653 10.4135 17.6384 13.0565 15.7575C13.3305 15.5648 13.4846 15.5477 13.6345 15.7232C13.7843 15.8988 13.7158 16.0657 13.4547 16.267C11.854 17.4992 9.86086 18.1092 7.84472 17.984C5.82859 17.8589 3.9262 17.007 2.49025 15.5862C2.44805 15.5344 2.38996 15.4979 2.32495 15.4825C2.25994 15.467 2.19166 15.4733 2.13064 15.5006C1.77118 15.6154 1.38251 15.5977 1.03497 15.4508C0.687416 15.3038 0.403928 15.0374 0.235802 14.6996C0.0676754 14.3618 0.0260091 13.9749 0.118343 13.6091C0.210677 13.2432 0.430926 12.9225 0.739215 12.7049C1.0435 12.4865 1.41532 12.383 1.78869 12.4127C2.16205 12.4425 2.51281 12.6035 2.77868 12.8673C3.04456 13.1312 3.20834 13.4807 3.24097 13.8538C3.2736 14.2269 3.17296 14.5995 2.95692 14.9055C2.92696 14.9526 2.89271 15.004 2.85846 15.0425Z" fill="black"/>
</svg>
