<svg xmlns="http://www.w3.org/2000/svg" xmlns:xlink="http://www.w3.org/1999/xlink" width="186.628" height="180.202" viewBox="0 0 186.628 180.202">
  <defs>
    <linearGradient id="linear-gradient" x1="0.5" x2="0.5" y2="1" gradientUnits="objectBoundingBox">
      <stop offset="0" stop-color="#00836a"/>
      <stop offset="1" stop-color="#073e39"/>
    </linearGradient>
    <linearGradient id="linear-gradient-6" y1="1" y2="0" xlink:href="#linear-gradient"/>
  </defs>
  <g id="background" transform="translate(-72.905 -134.64)">
    <g id="Group_39521" data-name="Group 39521" transform="translate(-19138.615 12095.914)" opacity="0.272">
      <circle id="Ellipse_1999" data-name="Ellipse 1999" cx="24.043" cy="24.043" r="24.043" transform="translate(19217.791 -11837.161)" fill="url(#linear-gradient)"/>
      <path id="Path_25533" data-name="Path 25533" d="M2.06,4.119A2.06,2.06,0,1,0,0,2.06,2.06,2.06,0,0,0,2.06,4.119Z" transform="translate(19249.414 -11786.866) rotate(39)" fill="url(#linear-gradient)"/>
      <path id="Path_25534" data-name="Path 25534" d="M1.407,2.813A1.407,1.407,0,1,0,0,1.407,1.407,1.407,0,0,0,1.407,2.813Z" transform="translate(19256.5 -11789.789) rotate(39)" fill="url(#linear-gradient)"/>
      <path id="Path_25535" data-name="Path 25535" d="M14.9,5.483a2.612,2.612,0,1,0-2.612-2.612A2.612,2.612,0,0,0,14.9,5.483Z" transform="translate(19199.236 -11825.282)" fill="url(#linear-gradient)"/>
    </g>
    <g id="Group_39533" data-name="Group 39533" transform="matrix(0.799, -0.602, 0.602, 0.799, 222.063, 150.742)" opacity="0.272">
      <circle id="Ellipse_1999-2" data-name="Ellipse 1999" cx="13.378" cy="13.378" r="13.378" transform="translate(0)" fill="url(#linear-gradient)"/>
      <path id="Path_25533-2" data-name="Path 25533" d="M1.146,0A1.146,1.146,0,1,1,0,1.146,1.146,1.146,0,0,1,1.146,0Z" transform="translate(10.603 29.767) rotate(141)" fill="url(#linear-gradient-6)"/>
      <path id="Path_25534-2" data-name="Path 25534" d="M.783,0A.783.783,0,1,1,0,.783.783.783,0,0,1,.783,0Z" transform="translate(6.202 27.576) rotate(141)" fill="url(#linear-gradient-6)"/>
      <path id="Path_25535-2" data-name="Path 25535" d="M13.737,3.166a1.454,1.454,0,1,1,1.454-1.454A1.454,1.454,0,0,1,13.737,3.166Z" transform="translate(15.054 6.495)" fill="url(#linear-gradient)"/>
    </g>
  </g>
</svg>
