<svg xmlns="http://www.w3.org/2000/svg" xmlns:xlink="http://www.w3.org/1999/xlink" width="83.125" height="147.936" viewBox="0 0 83.125 147.936">
  <defs>
    <linearGradient id="linear-gradient" x1="0.5" x2="0.5" y2="1" gradientUnits="objectBoundingBox">
      <stop offset="0" stop-color="#00836a"/>
      <stop offset="1" stop-color="#073e39"/>
    </linearGradient>
    <linearGradient id="linear-gradient-2" x1="0" y1="0.117" x2="1" xlink:href="#linear-gradient"/>
  </defs>
  <g id="phone" transform="translate(302.267 3925)">
    <g id="Group_43362" data-name="Group 43362" transform="translate(-302.267 -3925)">
      <g id="PHONE_CALL" data-name="PHONE CALL">
        <g id="Group_43339" data-name="Group 43339">
          <path id="Path_117095" data-name="Path 117095" d="M184.477,147.936H122.949c-.069,0-.14,0-.21-.008a10.789,10.789,0,0,1-10.585-10.8V10.8A10.8,10.8,0,0,1,122.833,0h61.644a10.817,10.817,0,0,1,10.8,10.8V137.14A10.811,10.811,0,0,1,184.477,147.936ZM122.833,2.178a8.617,8.617,0,0,0-8.5,8.618V137.133a8.79,8.79,0,0,0,2.617,6.191,8.617,8.617,0,0,0,5.848,2.426,1.081,1.081,0,0,1,.153.011l61.526,0a8.631,8.631,0,0,0,8.625-8.617V10.8a8.639,8.639,0,0,0-8.625-8.618H122.833Z" transform="translate(-112.154)" fill="#002c27"/>
        </g>
        <g id="Group_43340" data-name="Group 43340" transform="translate(32.013 131.312)">
          <path id="Path_117096" data-name="Path 117096" d="M237.278,454.466h-9.557a4.768,4.768,0,0,0-4.771,4.771v.58a4.774,4.774,0,0,0,4.771,4.778h9.557a4.774,4.774,0,0,0,4.771-4.778v-.58A4.768,4.768,0,0,0,237.278,454.466Z" transform="translate(-222.95 -454.466)" fill="none"/>
        </g>
        <g id="Group_43341" data-name="Group 43341" transform="translate(5.147 5.133)">
          <path id="Path_117097" data-name="Path 117097" d="M197.143,17.765h-61.52a5.664,5.664,0,0,0-5.655,5.663V149.773a5.658,5.658,0,0,0,5.655,5.655h61.52a5.658,5.658,0,0,0,5.655-5.655V23.428A5.663,5.663,0,0,0,197.143,17.765ZM175.933,149.3a4.774,4.774,0,0,1-4.771,4.778H161.6a4.774,4.774,0,0,1-4.771-4.778v-.58a4.768,4.768,0,0,1,4.771-4.771h9.557a4.768,4.768,0,0,1,4.771,4.771Zm23.861-16.5a5.791,5.791,0,0,1-5.721,5.743H138.688a5.811,5.811,0,0,1-5.713-5.743V26.9a5.7,5.7,0,0,1,1.371-3.707,5.871,5.871,0,0,1,4.35-2.021h12.85a5.769,5.769,0,0,1,3.057.908,6.677,6.677,0,0,1,2.149,2.367,5.921,5.921,0,0,0,4.922,2.788h9.416a5.851,5.851,0,0,0,4.93-2.788,6.183,6.183,0,0,1,5.205-3.275h12.85a5.808,5.808,0,0,1,5.721,5.728V132.792Z" transform="translate(-129.968 -17.765)" fill="url(#linear-gradient)"/>
        </g>
        <g id="Group_43342" data-name="Group 43342" transform="translate(41.55 6.819)">
          <rect id="Rectangle_8072" data-name="Rectangle 8072" width="5.832" height="2.178" fill="#f7f2ec"/>
        </g>
        <g id="Group_43343" data-name="Group 43343" transform="translate(35.875 6.819)">
          <rect id="Rectangle_8073" data-name="Rectangle 8073" width="2.663" height="2.178" fill="#f7f2ec"/>
        </g>
        <g id="Group_43344" data-name="Group 43344" transform="translate(30.924 130.226)">
          <path id="Path_117098" data-name="Path 117098" d="M234.6,463.015h-9.557a5.87,5.87,0,0,1-5.86-5.867v-.58a5.866,5.866,0,0,1,5.86-5.86H234.6a5.866,5.866,0,0,1,5.86,5.86v.58A5.87,5.87,0,0,1,234.6,463.015Zm-9.557-10.13a3.686,3.686,0,0,0-3.682,3.682v.58a3.69,3.69,0,0,0,3.682,3.689H234.6a3.69,3.69,0,0,0,3.682-3.689v-.58a3.686,3.686,0,0,0-3.682-3.682Z" transform="translate(-219.182 -450.708)" fill="#002c27"/>
        </g>
        <g id="Group_43345" data-name="Group 43345" transform="translate(7.064 7.449)">
          <path id="Path_117099" data-name="Path 117099" d="M198.79,145.322H143.4a6.908,6.908,0,0,1-6.8-6.832V32.6a6.777,6.777,0,0,1,1.633-4.417,6.927,6.927,0,0,1,5.176-2.4h12.85a6.822,6.822,0,0,1,3.639,1.076,7.75,7.75,0,0,1,2.5,2.727,4.839,4.839,0,0,0,3.989,2.259h9.416a4.744,4.744,0,0,0,4-2.259,7.2,7.2,0,0,1,6.139-3.8h12.85A6.9,6.9,0,0,1,205.6,32.6V138.491A6.913,6.913,0,0,1,198.79,145.322ZM143.412,27.958a4.79,4.79,0,0,0-3.525,1.642,4.6,4.6,0,0,0-1.107,3V138.49a4.7,4.7,0,0,0,4.625,4.654H198.79a4.7,4.7,0,0,0,4.632-4.654V32.6a4.7,4.7,0,0,0-4.632-4.639H185.94a5.087,5.087,0,0,0-4.272,2.745,6.961,6.961,0,0,1-5.863,3.317h-9.416a6.977,6.977,0,0,1-5.846-3.3,5.569,5.569,0,0,0-1.806-2.023,4.71,4.71,0,0,0-2.476-.739h-12.85Z" transform="translate(-136.602 -25.78)" fill="#002c27"/>
        </g>
      </g>
      <g id="Group_43347" data-name="Group 43347" transform="translate(22.836 42.857)">
        <rect id="Rectangle_8060" data-name="Rectangle 8060" width="37.453" height="35.165" fill="url(#linear-gradient-2)"/>
      </g>
      <g id="Group_43352" data-name="Group 43352" transform="translate(22.836 90.437)">
        <rect id="Rectangle_8065" data-name="Rectangle 8065" width="37.453" height="2.178" transform="translate(0 0)" fill="#002c27"/>
      </g>
      <g id="Group_43353" data-name="Group 43353" transform="translate(22.836 98.816)">
        <rect id="Rectangle_8066" data-name="Rectangle 8066" width="37.453" height="2.178" transform="translate(0 0)" fill="#002c27"/>
      </g>
      <path id="Union_40" data-name="Union 40" d="M0,3.4l1.777-1.26L4.485,5.963,2.708,7.223ZM19.745,5.961l2.707-3.818L24.229,3.4,21.521,7.221ZM10.991,4.68V0h2.177V4.68Z" transform="translate(29.483 21.028)" fill="url(#linear-gradient)"/>
      <g id="Rectangle_8074" data-name="Rectangle 8074" transform="translate(15.228 32.914)" fill="none" stroke="#002c27" stroke-linejoin="round" stroke-width="2">
        <rect width="51.865" height="73.808" rx="6" stroke="none"/>
        <rect x="1" y="1" width="49.865" height="71.808" rx="5" fill="none"/>
      </g>
      <g id="Group_43359" data-name="Group 43359" transform="translate(22.836 82.058)">
        <rect id="Rectangle_8065-2" data-name="Rectangle 8065" width="37.453" height="2.178" transform="translate(0 0)" fill="#002c27"/>
      </g>
      <path id="Union_39" data-name="Union 39" d="M11.06,7.222V2.542h2.178V7.222ZM0,3.819,2.708,0l1.776,1.26L1.777,5.079ZM19.744,1.26,21.52,0l2.708,3.819-1.776,1.26Z" transform="translate(29.483 113.198)" fill="url(#linear-gradient)"/>
    </g>
  </g>
</svg>
