<svg id="Diamond_Hands" data-name="Diamond Hands" xmlns="http://www.w3.org/2000/svg" width="16.466" height="20.255" viewBox="0 0 16.466 20.255">
  <path id="Path_27554" data-name="Path 27554" d="M9.213,14.163a.532.532,0,0,0-.4-.173H5.083a.532.532,0,0,0-.4.173l-.622.683a.518.518,0,0,0,0,.7L7.01,18.885l.275-.326,2.56-3.009a.541.541,0,0,0-.01-.7Z" transform="translate(-3.925 -1.833)" fill="#fdf7f0"/>
  <path id="Path_27555" data-name="Path 27555" d="M19.144,5.395h-.082a1.209,1.209,0,0,0-1.02.561,1.257,1.257,0,0,0-.173.52.5.5,0,0,0-.01.122V12.82a.751.751,0,0,1-.755.7.77.77,0,0,1-.765-.765v-8.7a1.158,1.158,0,0,0-2.315-.051v.01c0,.02-.01.031-.01.041v7.629a.765.765,0,1,1-1.53,0V3.243A1.171,1.171,0,0,0,11.321,2.07a.877.877,0,0,0-.163.01,1.316,1.316,0,0,0-.286.082.036.036,0,0,0-.02.01,1.183,1.183,0,0,0-.694,1.071V10.2a.765.765,0,0,1-1.53,0V6.639a1.241,1.241,0,0,0-.53-1.01,1.175,1.175,0,0,0-.714-.235h-.01A1.249,1.249,0,0,0,6.13,6.639V12.7H9.343a.744.744,0,0,1,.561.255l1.785,1.958a.762.762,0,0,1,.01,1.01L8.18,20.071a6.885,6.885,0,0,0,5.059,2.254,7.354,7.354,0,0,0,7.109-7.567V6.6A1.206,1.206,0,0,0,19.144,5.395Z" transform="translate(-3.881 -2.07)" fill="#fdf7f0"/>
</svg>
