<svg width="15" height="19" viewBox="0 0 15 19" fill="none" xmlns="http://www.w3.org/2000/svg">
<path d="M4.6993 11.1385C4.65426 11.0893 4.5993 11.0501 4.53803 11.0236C4.47676 10.9971 4.41058 10.9839 4.34384 10.9848H1.02917C0.962428 10.9839 0.896245 10.9971 0.834978 11.0236C0.773712 11.0501 0.718751 11.0893 0.673713 11.1385L0.120973 11.7455C0.0431633 11.8304 0 11.9413 0 12.0565C0 12.1717 0.0431633 12.2826 0.120973 12.3675L2.7416 15.3347L2.98598 15.045L5.26092 12.3711C5.3334 12.2832 5.37229 12.1724 5.37066 12.0584C5.36903 11.9445 5.32699 11.8348 5.25204 11.749L4.6993 11.1385Z" fill="#3E524D"/>
<path d="M13.5639 3.13631H13.491C13.3102 3.13641 13.1323 3.18216 12.9739 3.2693C12.8154 3.35645 12.6815 3.48218 12.5846 3.63484C12.5 3.77569 12.4475 3.93348 12.4309 4.09694C12.4235 4.13258 12.4205 4.16899 12.422 4.20536V9.73454C12.4105 9.90418 12.3346 10.063 12.2099 10.1786C12.0852 10.2942 11.9211 10.3579 11.7511 10.3566C11.5711 10.3554 11.3989 10.2834 11.2716 10.1562C11.1444 10.029 11.0724 9.85671 11.0712 9.67677V1.94552C11.0719 1.67607 10.9669 1.41709 10.7787 1.22423C10.5906 1.03136 10.3343 0.920002 10.0649 0.914067C9.79547 0.908133 9.5345 1.0081 9.33801 1.19249C9.14152 1.37687 9.0252 1.63098 9.01402 1.9002V1.90909C9.01402 1.92686 9.00514 1.93663 9.00514 1.94552V8.72503C9.00514 8.90533 8.93351 9.07824 8.80602 9.20573C8.67853 9.33322 8.50562 9.40485 8.32532 9.40485C8.14502 9.40485 7.97211 9.33322 7.84462 9.20573C7.71713 9.07824 7.6455 8.90533 7.6455 8.72503V1.22394C7.64598 0.94887 7.53753 0.684803 7.34386 0.48947C7.15019 0.294137 6.88706 0.183429 6.612 0.181551C6.56355 0.180001 6.51506 0.182976 6.46715 0.190437C6.37995 0.205041 6.29469 0.229487 6.213 0.263306C6.20628 0.264307 6.20006 0.267419 6.19523 0.272193C6.0122 0.355275 5.85683 0.489087 5.74752 0.657771C5.63822 0.826454 5.57956 1.02294 5.5785 1.22394V7.40627C5.5785 7.58657 5.50688 7.75949 5.37939 7.88698C5.2519 8.01447 5.07899 8.08609 4.89869 8.08609C4.71839 8.08609 4.54547 8.01447 4.41798 7.88698C4.29049 7.75949 4.21887 7.58657 4.21887 7.40627V4.24179C4.21785 4.06543 4.17455 3.89188 4.0926 3.73571C4.01065 3.57954 3.89244 3.4453 3.74789 3.34426C3.56496 3.20705 3.34205 3.13368 3.11339 3.13542H3.1045C2.81152 3.13659 2.53088 3.25356 2.32379 3.46082C2.1167 3.66807 1.99996 3.94881 1.99902 4.24179V9.6279H4.85426C4.94872 9.62786 5.04209 9.64807 5.12809 9.68716C5.21408 9.72625 5.2907 9.78331 5.35279 9.8545L6.93903 11.5945C7.04983 11.7172 7.1119 11.8762 7.11354 12.0416C7.11518 12.2069 7.05627 12.3671 6.94791 12.492L3.82076 16.1781C4.3906 16.8051 5.08443 17.3068 5.85831 17.6516C6.63218 17.9964 7.46923 18.1767 8.31643 18.1812C10.0449 18.1243 11.6804 17.3846 12.8645 16.1242C14.0486 14.8638 14.6849 13.1854 14.6338 11.4567V4.20713C14.6336 3.92336 14.5208 3.65126 14.3203 3.45052C14.1197 3.24978 13.8477 3.13678 13.5639 3.13631Z" fill="#3E524D"/>
</svg>
