<svg xmlns="http://www.w3.org/2000/svg" width="168.589" height="47.101" viewBox="0 0 168.589 47.101">
  <g id="arrows" transform="matrix(0.999, 0.035, -0.035, 0.999, 6.155, 3.817)">
    <g id="Group_43476" data-name="Group 43476" transform="translate(146.934 0) rotate(90)">
      <g id="Group_43475" data-name="Group 43475">
        <g id="Group_43474" data-name="Group 43474">
          <g id="Path_117125" data-name="Path 117125" fill="#4a555f">
            <path d="M 19.40623474121094 137.8023071289062 L 18.33103370666504 136.1167144775391 C 17.45539474487305 134.7439422607422 16.58191299438477 133.312744140625 15.73483371734619 131.8628540039062 L 14.72607421875 130.1362152099609 L 16.45257377624512 129.1272125244141 L 20.60745429992676 126.6989898681641 L 22.33403396606445 125.6899261474609 L 23.34323310852051 127.4164276123047 C 24.12383460998535 128.7518310546875 24.93771362304688 130.0855102539062 25.76223373413086 131.3804016113281 L 26.83597373962402 133.0666656494141 L 25.15019416809082 134.1411743164062 L 21.09219360351562 136.7276916503906 L 19.40623474121094 137.8023071289062 Z M 14.24585342407227 129.2803649902344 L 13.3035135269165 127.515869140625 C 12.52813339233398 126.0640487670898 11.7668342590332 124.5704498291016 11.04073429107666 123.076530456543 L 10.16617393493652 121.2770919799805 L 11.96589374542236 120.4031524658203 L 16.29617309570312 118.3003692626953 L 18.09513473510742 117.4268112182617 L 18.96883392333984 119.2256851196289 C 19.6500129699707 120.6281280517578 20.35937309265137 122.0196685791016 21.0772533416748 123.3616104125977 L 22.02113342285156 125.1260299682617 L 20.25623321533203 126.0690078735352 L 16.01017379760742 128.3376922607422 L 14.24585342407227 129.2803649902344 Z M 9.757413864135742 120.3886871337891 L 8.951753616333008 118.5578689575195 C 8.280333518981934 117.0321273803711 7.634813785552979 115.4832458496094 7.033133983612061 113.9542694091797 L 6.301033973693848 112.0938873291016 L 8.161153793334961 111.3610916137695 L 12.6389741897583 109.5970687866211 L 14.49839401245117 108.8645706176758 L 15.2322940826416 110.7234268188477 C 15.80755424499512 112.1804504394531 16.40849304199219 113.6216278076172 17.01841354370117 115.006965637207 L 17.82437324523926 116.8375091552734 L 15.99377346038818 117.6433486938477 L 11.58813381195068 119.5827713012695 L 9.757413864135742 120.3886871337891 Z M 5.955173969268799 111.174072265625 L 5.29435396194458 109.2856292724609 C 4.749193668365479 107.7276916503906 4.225713729858398 106.135612487793 3.738433837890625 104.5536117553711 L 3.149673938751221 102.6420669555664 L 5.06127405166626 102.0534515380859 L 9.661273956298828 100.6370315551758 L 11.57331371307373 100.0482864379883 L 12.16145420074463 101.9605102539062 C 12.61683368682861 103.441032409668 13.10513401031494 104.9248123168945 13.61281394958496 106.3706283569336 L 14.27591419219971 108.2590255737305 L 12.38703346252441 108.920768737793 L 7.843373775482178 110.512565612793 L 5.955173969268799 111.174072265625 Z M 2.884213924407959 101.696647644043 L 2.368753910064697 99.7645263671875 C 1.945493817329407 98.17800903320312 1.545293927192688 96.54930877685547 1.179273843765259 94.92369079589844 L 0.740173876285553 92.97352600097656 L 2.690133810043335 92.53343200683594 L 7.383853912353516 91.47410583496094 L 9.33375358581543 91.03404998779297 L 9.774853706359863 92.98372650146484 C 10.12459373474121 94.52958679199219 10.497633934021 96.04696655273438 10.88359355926514 97.49369049072266 L 11.3992338180542 99.42642974853516 L 9.466433525085449 99.94174957275391 L 4.816413879394531 101.181510925293 L 2.884213924407959 101.696647644043 Z M 0.5412338972091675 92.00843048095703 L 0.1762738674879074 90.04232788085938 C -0.1201861277222633 88.44528961181641 -0.3937061429023743 86.79122924804688 -0.6367061138153076 85.12609100341797 L -0.9255861043930054 83.14659118652344 L 1.054013848304749 82.85819244384766 L 5.817393779754639 82.16423034667969 L 7.796793937683105 81.87584686279297 L 8.084874153137207 83.85530853271484 C 8.307033538818359 85.38195037841797 8.561473846435547 86.92321014404297 8.841094017028809 88.43627166748047 L 9.204314231872559 90.40171051025391 L 7.239113807678223 90.76618957519531 L 2.507393836975098 91.64376831054688 L 0.5412338972091675 92.00843048095703 Z M -1.04486608505249 82.17362976074219 L -1.257926106452942 80.184326171875 C -1.433186173439026 78.54811096191406 -1.57926619052887 76.87751007080078 -1.692086100578308 75.21897125244141 L -1.827826142311096 73.22386932373047 L 0.167233869433403 73.08785247802734 L 4.967973709106445 72.76050567626953 L 6.962254047393799 72.62452697753906 L 7.099333763122559 74.61872863769531 C 7.206274032592773 76.17454528808594 7.342514038085938 77.73094940185547 7.504273891448975 79.24466705322266 L 7.716673851013184 81.23218536376953 L 5.729273796081543 81.44574737548828 L 0.9443738460540771 81.95989227294922 L -1.04486608505249 82.17362976074219 Z M -1.873166084289551 72.24761199951172 L -1.936926126480103 70.25004577636719 C -1.968046188354492 69.27508544921875 -1.987746119499207 68.27507019042969 -1.995506167411804 67.27777099609375 L -1.995526075363159 67.27420806884766 L -1.995546102523804 67.27064514160156 L -1.999966144561768 66.22146606445312 L -2.000006198883057 66.2138671875 L -1.999966144561768 66.20626831054688 L -1.996806144714355 65.27487182617188 L -1.990026116371155 63.2711296081543 L 0.01369386911392212 63.28166961669922 L 4.827094078063965 63.30701065063477 L 6.823513984680176 63.31752777099609 L 6.816554069519043 65.31397247314453 L 6.813424587249756 66.21190643310547 L 6.817790508270264 67.20701599121094 C 6.824942111968994 68.09164428710938 6.842976570129395 69.02346801757812 6.871413707733154 69.97653198242188 L 6.930953979492188 71.97290802001953 L 4.934653759002686 72.03518676757812 L 0.1244138702750206 72.18527221679688 L -1.873166084289551 72.24761199951172 Z M 6.843453884124756 62.67964935302734 L 4.846873760223389 62.5897102355957 L 0.03981386870145798 62.37314987182617 L -1.956146121025085 62.28322982788086 L -1.868246078491211 60.28718948364258 C -1.797346115112305 58.67691040039062 -1.690226078033447 57.00446701049805 -1.549886107444763 55.31630706787109 L -1.384106159210205 53.32212829589844 L 0.6099938750267029 53.48896789550781 L 5.407553672790527 53.89038848876953 L 7.401933670043945 54.05727005004883 L 7.23371410369873 56.05152893066406 C 7.107493877410889 57.54806900024414 7.006913661956787 59.10634994506836 6.934793949127197 60.68312835693359 L 6.843453884124756 62.67964935302734 Z M 7.464193820953369 53.41790771484375 L 5.47783374786377 53.17419052124023 L 0.6992538571357727 52.58786773681641 L -1.286566138267517 52.34420776367188 L -1.042206168174744 50.35848999023438 C -0.839846134185791 48.71390914916992 -0.6050261259078979 47.05690765380859 -0.344246119260788 45.43350982666016 L -0.0269861314445734 43.45830917358398 L 1.948153853416443 43.77610778808594 L 6.702033996582031 44.54100799560547 L 8.676194190979004 44.85865020751953 L 8.358993530273438 46.83288955688477 C 8.107613563537598 48.3973503112793 7.888154029846191 49.94450759887695 7.706654071807861 51.43138885498047 L 7.464193820953369 53.41790771484375 Z M 8.790093421936035 44.23014831542969 L 6.829413890838623 43.83501052856445 L 2.110373973846436 42.88396835327148 L 0.1495738625526428 42.48880767822266 L 0.5449538826942444 40.52804946899414 C 0.8763738870620728 38.88456726074219 1.238813877105713 37.24831008911133 1.622213840484619 35.66470718383789 L 2.092713832855225 33.72137069702148 L 4.036173820495605 34.19136810302734 L 8.714714050292969 35.32283020019531 L 10.65823364257812 35.79285049438477 L 10.18865394592285 37.73646926879883 C 9.828113555908203 39.22880935668945 9.490473747253418 40.75391006469727 9.185133934020996 42.26944732666016 L 8.790093421936035 44.23014831542969 Z M 10.81943416595459 35.16788864135742 L 8.895153999328613 34.62440872192383 L 4.263473987579346 33.31626892089844 L 2.339353799819946 32.77285003662109 L 2.882193803787231 30.84854888916016 C 3.32633376121521 29.27416801452637 3.813793897628784 27.66936874389648 4.331013679504395 26.07874870300293 L 4.949493885040283 24.1767692565918 L 6.851473808288574 24.79522895812988 L 11.42931365966797 26.28382873535156 L 13.33239364624023 26.90266799926758 L 12.71243381500244 28.80538940429688 C 12.23897361755371 30.25850868225098 11.78507423400879 31.75178909301758 11.3633337020874 33.24374771118164 L 10.81943416595459 35.16788864135742 Z M 13.53525352478027 26.29618835449219 L 11.6586742401123 25.60406875610352 L 7.14349365234375 23.93880844116211 L 5.266453742980957 23.24652862548828 L 5.959333896636963 21.36970901489258 C 6.536133766174316 19.80730819702148 7.145133972167969 18.24696922302246 7.769433975219727 16.73200798034668 L 8.531833648681641 14.8818883895874 L 10.3815336227417 15.64524841308594 L 14.83085346221924 17.48144912719727 L 16.68049430847168 18.24478912353516 L 15.91629409790039 20.09404945373535 C 15.33657360076904 21.49684906005859 14.76831340789795 22.9521484375 14.22723388671875 24.41954803466797 L 13.53525352478027 26.29618835449219 Z M 16.93403434753418 17.65310859680176 L 15.11503410339355 16.81930923461914 L 10.74041366577148 14.8140287399292 L 8.922453880310059 13.98068904876709 L 9.755673408508301 12.16266918182373 C 10.45317363739014 10.64072895050049 11.17965412139893 9.131109237670898 11.91491413116455 7.675768852233887 L 12.81669425964355 5.890828609466553 L 14.60171413421631 6.792428970336914 L 18.89779472351074 8.962308883666992 L 20.68283462524414 9.863888740539551 L 19.78141403198242 11.64900875091553 C 19.07977294921875 13.03850841522217 18.4019947052002 14.44644927978516 17.76693344116211 15.83368873596191 L 16.93403434753418 17.65310859680176 Z M 20.97923469543457 9.297489166259766 L 19.23099327087402 8.326448440551758 L 15.02227401733398 5.988769054412842 L 13.27339363098145 5.017388820648193 L 14.24525356292725 3.268768787384033 C 15.04537391662598 1.829148888587952 15.88393402099609 0.3817688524723053 16.73763465881348 -1.033191204071045 L 17.7714729309082 -2.746691226959229 L 19.48433303833008 -1.711811184883118 L 23.60505294799805 0.7778088450431824 L 25.31801414489746 1.812728881835938 L 24.28195381164551 3.524988889694214 C 23.50513458251953 4.808828830718994 22.72069358825684 6.162808895111084 21.9504337310791 7.549328804016113 L 20.97923469543457 9.297489166259766 Z" stroke="none"/>
            <path d="M 18.45009231567383 0 C 17.60734367370605 1.396774291992188 16.78800964355469 2.810653686523438 15.99338436126709 4.2403564453125 L 20.20211410522461 6.578048706054688 C 20.96823883056641 5.199005126953125 21.75590515136719 3.836395263671875 22.57080078125 2.4896240234375 L 18.45009231567383 0 M 13.70003032684326 8.577613830566406 C 12.9636344909668 10.03519439697266 12.25575923919678 11.50796508789062 11.57382202148438 12.99592590332031 L 15.94842624664307 15.00119018554688 C 16.60440444946289 13.56832122802734 17.28759384155273 12.150634765625 17.99611282348633 10.74750518798828 L 13.70003032684326 8.577613830566406 M 9.618572235107422 17.49400329589844 C 8.996801376342773 19.00286102294922 8.402884483337402 20.525634765625 7.835552215576172 22.06236267089844 L 12.35071849822998 23.72760772705078 C 12.89588451385498 22.24915313720703 13.46765518188477 20.78271484375 14.06790542602539 19.33021545410156 L 9.618572235107422 17.49400329589844 M 6.232988357543945 26.69719696044922 C 5.728343963623047 28.24913024902344 5.252197265625 29.81369018554688 4.807071685791016 31.39157104492188 L 9.438759803771973 32.69971466064453 C 9.867405891418457 31.18325805664062 10.32457256317139 29.67819213867188 10.8108434677124 28.18579864501953 L 6.232988357543945 26.69719696044922 M 3.566051483154297 36.13532257080078 C 3.182342529296875 37.72015380859375 2.829675674438477 39.31575775146484 2.505489349365234 40.92340087890625 L 7.224531173706055 41.87442016601562 C 7.53607177734375 40.32821655273438 7.876071929931641 38.7921142578125 8.244592666625977 37.26679992675781 L 3.566051483154297 36.13532257080078 M 1.630447387695312 45.75071716308594 C 1.372093200683594 47.3590087890625 1.142885208129883 48.97675323486328 0.9428005218505859 50.60273742675781 L 5.721384048461914 51.18907165527344 C 5.912593841552734 49.62261199951172 6.135488510131836 48.06436157226562 6.384323120117188 46.51560974121094 L 1.630447387695312 45.75071716308594 M 0.4432392120361328 55.48200988769531 C 0.3083629608154297 57.10419464111328 0.2019882202148438 58.73590087890625 0.1298007965087891 60.37517547607422 L 4.936883926391602 60.59173583984375 C 5.009052276611328 59.01386260986328 5.109092712402344 57.44483947753906 5.240800857543945 55.88344573974609 L 0.4432392120361328 55.48200988769531 M 0.003175735473632812 65.28165435791016 L 9.5367431640625e-06 66.21305084228516 L 0.00444793701171875 67.26223754882812 C 0.01202964782714844 68.23986053466797 0.03103065490722656 69.21431732177734 0.06205177307128906 70.18623352050781 L 4.872280120849609 70.03617095947266 C 4.844427108764648 69.10223388671875 4.82542610168457 68.16387939453125 4.817842483520508 67.2210693359375 L 4.813405990600586 66.21369171142578 L 4.816572189331055 65.30698394775391 L 0.003175735473632812 65.28165435791016 M 5.104030609130859 74.755859375 L 0.3033008575439453 75.08321380615234 C 0.4147396087646484 76.72123718261719 0.5571975708007812 78.35165405273438 0.7306976318359375 79.9713134765625 L 5.515592575073242 79.45716857910156 C 5.349071502685547 77.89896392822266 5.212301254272461 76.33121490478516 5.104030609130859 74.755859375 M 6.105718612670898 84.14334106445312 L 1.342342376708984 84.83729553222656 C 1.579154968261719 86.46011352539062 1.845071792602539 88.07408905029297 2.142677307128906 89.67729949951172 L 6.874383926391602 88.79973602294922 C 6.589468002319336 87.25790405273438 6.333030700683594 85.70536041259766 6.105718612670898 84.14334106445312 M 7.824155807495117 93.425048828125 L 3.130426406860352 94.48435974121094 C 3.490697860717773 96.08440399169922 3.880739212036133 97.67302703857422 4.301155090332031 99.24900817871094 L 8.951197624206543 98.00923156738281 C 8.546613693237305 96.49278259277344 8.172405242919922 94.96429443359375 7.824155807495117 93.425048828125 M 10.24984264373779 102.5484848022461 L 5.649822235107422 103.9648818969727 C 6.132301330566406 105.5313568115234 6.643280029296875 107.0851745605469 7.182113647460938 108.6250457763672 L 11.72578048706055 107.0332336425781 C 11.20530128479004 105.5509872436523 10.71332263946533 104.0554428100586 10.24984264373779 102.5484848022461 M 13.37203025817871 111.4578857421875 L 8.894218444824219 113.2219009399414 C 9.494467735290527 114.7472381591797 10.12446784973145 116.2573623657227 10.7823429107666 117.7522735595703 L 15.18796825408936 115.8128814697266 C 14.55542659759521 114.3761901855469 13.95075988769531 112.9236755371094 13.37203025817871 111.4578857421875 M 17.16980171203613 120.0994644165039 L 12.83953094482422 122.2022323608398 C 13.55565547943115 123.6756286621094 14.29836368560791 125.1332168579102 15.06767654418945 126.5736694335938 L 19.31373977661133 124.3050079345703 C 18.57230186462402 122.9190063476562 17.85807228088379 121.5165100097656 17.16980171203613 120.0994644165039 M 21.61659240722656 128.4257202148438 L 17.46169662475586 130.8539428710938 C 18.2873649597168 132.2671661376953 19.13836288452148 133.6633453369141 20.01719665527344 135.0411376953125 L 24.07521820068359 132.4546051025391 C 23.23055076599121 131.1281127929688 22.41123962402344 129.7851257324219 21.61659240722656 128.4257202148438 M 17.09286499023438 -5.493362426757812 L 28.0651969909668 1.135818481445312 L 25.99309349060059 4.56036376953125 C 25.22915649414062 5.822921752929688 24.45721817016602 7.155342102050781 23.69875907897949 8.520606994628906 L 22.63237953186035 10.44010925292969 L 21.56671905517578 12.55050659179688 C 20.87671852111816 13.91692352294922 20.21011352539062 15.30165100097656 19.58540534973145 16.66623687744141 L 18.67603302001953 18.65260314941406 L 17.76467704772949 20.85792541503906 C 17.19475936889648 22.23703002929688 16.63592529296875 23.66812896728516 16.10369682312012 25.11148834228516 L 15.38038158416748 27.07308197021484 L 14.61405181884766 29.42500305175781 C 14.14865589141846 30.85331726074219 13.70248889923096 32.32115173339844 13.28794765472412 33.78773498535156 L 12.68407154083252 35.92411804199219 L 12.13271808624268 38.20619201660156 C 11.77823925018311 39.67337799072266 11.44617652893066 41.17336273193359 11.14571762084961 42.66448211669922 L 10.69481468200684 44.90235900878906 L 10.3336763381958 47.15013122558594 C 10.08623886108398 48.69013214111328 9.870322227478027 50.21208953857422 9.691905975341797 51.67373657226562 L 9.427153587341309 53.84272003173828 L 9.226655960083008 56.21965026855469 C 9.102551460266113 57.69081878662109 9.003655433654785 59.22327423095703 8.932697296142578 60.77448272705078 L 8.824135780334473 63.148193359375 L 8.813437461853027 66.21268463134766 L 8.817760467529297 67.19406127929688 C 8.824788093566895 68.06300354003906 8.842522621154785 68.97902679443359 8.870510101318359 69.91692352294922 L 8.939208030700684 72.22030639648438 L 9.094614028930664 74.48159027099609 C 9.199801445007324 76.01215362548828 9.333822250366211 77.54317474365234 9.492947578430176 79.03213500976562 L 9.73868465423584 81.33164978027344 L 10.06403064727783 83.56732177734375 C 10.28244686126709 85.06829833984375 10.5326976776123 86.58419799804688 10.80778026580811 88.0728759765625 L 11.22431373596191 90.32691955566406 L 11.72555160522461 92.5423583984375 C 12.06978034973145 94.06381988525391 12.43665599822998 95.55621337890625 12.81600952148438 96.97813415527344 L 13.43435478210449 99.29579162597656 L 14.07309341430664 101.3726119995117 C 14.52061367034912 102.8276519775391 15.00065517425537 104.2863006591797 15.49986362457275 105.7080078125 L 16.28385353088379 107.9406967163086 L 17.09255218505859 109.9889450073242 C 17.65853118896484 111.4224624633789 18.24944686889648 112.8396530151367 18.84884262084961 114.2010650634766 L 19.78969955444336 116.3380126953125 L 20.76784324645996 118.3518600463867 C 21.43775939941406 119.7311325073242 22.13519668579102 121.0992584228516 22.84078025817871 122.418212890625 L 23.94734001159668 124.4867401123047 L 25.06988525390625 126.4070892333984 C 25.83798980712891 127.7211074829102 26.63853073120117 129.0329437255859 27.44926071166992 130.30615234375 L 29.59675979614258 133.6786956787109 L 18.79519653320312 140.5634460449219 L 16.64484405517578 137.1922149658203 C 15.75513458251953 135.7973785400391 14.86796760559082 134.3437805175781 14.00794696807861 132.8717803955078 L 13.47510147094727 131.9597473144531 L 13.424072265625 131.9869995117188 L 12.7111120223999 130.6520690917969 L 11.99040508270264 129.4184875488281 L 12.03756237030029 129.3909301757812 L 11.53934288024902 128.4580688476562 C 10.75223922729492 126.9842529296875 9.979280471801758 125.4677963256836 9.241947174072266 123.950798034668 L 8.781515121459961 123.0034713745117 L 8.732551574707031 123.0250244140625 L 8.163352012634277 121.7316207885742 L 7.492780685424805 120.3519439697266 L 7.545021057128906 120.3265762329102 L 7.121175765991211 119.3634643554688 C 6.439300537109375 117.8139877319336 5.783510208129883 116.2404861450195 5.172050476074219 114.686653137207 L 4.785043716430664 113.7032012939453 L 4.728218078613281 113.7231140136719 L 4.20928955078125 112.240119934082 L 3.707843780517578 110.9658584594727 L 3.756669998168945 110.9466247558594 L 3.406593322753906 109.946174621582 C 2.852989196777344 108.3641128540039 2.321552276611328 106.7478408813477 1.827030181884766 105.1422958374023 L 1.515668869018555 104.1313934326172 L 1.46717643737793 104.1443176269531 L 1.12769889831543 102.8717651367188 L 0.6495094299316406 101.3192138671875 L 0.7086696624755859 101.3009948730469 L 0.4363021850585938 100.2800064086914 C 0.006322860717773438 98.66813659667969 -0.400177001953125 97.0137939453125 -0.7718868255615234 95.36300659179688 L -1.004653930664062 94.3292236328125 L -1.060197830200195 94.33952331542969 L -1.331930160522461 92.87570190429688 L -1.650094985961914 91.462646484375 L -1.59648323059082 91.45055389404297 L -1.790136337280273 90.40734100341797 C -2.09126091003418 88.78515625 -2.36903190612793 87.10546875 -2.615739822387695 85.41488647460938 L -2.76817512512207 84.37029266357422 L -2.820365905761719 84.37590026855469 L -2.966690063476562 83.00992584228516 L -3.193470001220703 81.45588684082031 L -3.134088516235352 81.44723510742188 L -3.246553421020508 80.39736175537109 C -3.424510955810547 78.73606872558594 -3.572864532470703 77.03948974609375 -3.687469482421875 75.35471343994141 L -3.758722305297852 74.307373046875 L -3.808406829833984 74.30892181396484 L -3.852401733398438 72.93038940429688 L -3.958927154541016 71.36457061767578 L -3.902496337890625 71.3607177734375 L -3.935907363891602 70.3138427734375 C -3.967552185058594 69.32265472412109 -3.987573623657227 68.30638122558594 -3.995428085327148 67.29325866699219 L -3.995512008666992 67.27915191650391 L -4.000011444091797 66.21471405029297 L -3.993148803710938 64.1934814453125 L -4.042116165161133 64.19127655029297 L -3.989044189453125 62.98607635498047 L -3.983177185058594 61.26061248779297 L -3.913080215454102 61.26097869873047 L -3.866323471069336 60.19919586181641 C -3.794261932373047 58.56282043457031 -3.685489654541016 56.86421203613281 -3.543010711669922 55.15056610107422 L -3.45509147644043 54.09311676025391 L -3.515949249267578 54.08565521240234 L -3.326385498046875 52.54511260986328 L -3.211406707763672 51.16221618652344 L -3.156782150268555 51.16678619384766 L -3.027261734008789 50.11419677734375 C -2.82188606262207 48.44535827636719 -2.583574295043945 46.76381683349609 -2.318927764892578 45.11629486083984 L -2.150142669677734 44.06558990478516 L -2.206365585327148 44.05425262451172 L -1.920991897583008 42.63908386230469 L -1.684345245361328 41.16592407226562 L -1.625822067260742 41.17533874511719 L -1.415573120117188 40.13271331787109 C -1.079072952270508 38.46392059326172 -0.7110118865966797 36.80232238769531 -0.3216361999511719 35.19406890869141 L -0.07359504699707031 34.16957855224609 L -0.1283645629882812 34.15411376953125 L 0.2844314575195312 32.69082641601562 L 0.619384765625 31.30735778808594 L 0.6711750030517578 31.31988525390625 L 0.9573230743408203 30.30554962158203 C 1.408613204956055 28.70581817626953 1.903779983520508 27.07563018798828 2.429050445556641 25.46025848388672 L 2.756711959838867 24.45259857177734 L 2.697322845458984 24.43069458007812 L 3.255247116088867 22.91945648193359 L 3.665988922119141 21.65629577636719 L 3.71562385559082 21.67243957519531 L 4.083114624023438 20.67702484130859 C 4.668468475341797 19.09144592285156 5.286592483520508 17.50777435302734 5.920280456542969 15.97000885009766 L 6.324211120605469 14.98978424072266 L 6.271114349365234 14.96544647216797 L 6.896999359130859 13.59979248046875 L 7.445072174072266 12.269775390625 L 7.496772766113281 12.29111480712891 L 7.937530517578125 11.32939910888672 C 8.645697593688965 9.784172058105469 9.383280754089355 8.251487731933594 10.12980175018311 6.773880004882812 L 10.60903835296631 5.825302124023438 L 10.55336380004883 5.794387817382812 L 11.33681964874268 4.384765625 L 11.93336391448975 3.204010009765625 L 11.97999572753906 3.227554321289062 L 12.49711418151855 2.297149658203125 C 13.30894756317139 0.83648681640625 14.15950965881348 -0.6316375732421875 15.02519702911377 -2.066436767578125 L 17.09286499023438 -5.493362426757812 Z" stroke="none" fill="#f7f2ec"/>
          </g>
        </g>
      </g>
    </g>
    <g id="Group_43717" data-name="Group 43717" transform="translate(157.849 8.181) rotate(90)">
      <g id="Group_43477" data-name="Group 43477" transform="translate(0 0)">
        <g id="Path_117126" data-name="Path 117126" fill="#4a555f">
          <path d="M 18.54265403747559 21.48776817321777 L 17.9288444519043 19.58442687988281 L 14.2499828338623 8.176676750183105 L 1.676583528518677 11.3671875 L -0.2617064416408539 11.85902786254883 L -0.7538164258003235 9.920807838439941 L -1.938486456871033 5.254927635192871 L -2.43074631690979 3.316137552261353 L -0.4918864369392395 2.824177742004395 L 18.27859306335449 -1.938572287559509 L 20.09768295288086 -2.400142431259155 L 20.67388343811035 -0.6140523552894592 L 26.31736373901367 16.87932777404785 L 26.9315242767334 18.78305816650391 L 25.02768325805664 19.39688682556152 L 20.4460334777832 20.87408828735352 L 18.54265403747559 21.48776817321777 Z" stroke="none"/>
          <path d="M 18.77048301696777 -1.9073486328125e-06 L 3.814697265625e-06 4.762747764587402 L 1.184673309326172 9.428627967834473 L 15.57737350463867 5.776457786560059 L 19.83231353759766 18.97057723999023 L 24.41396331787109 17.49337768554688 L 18.77048301696777 -1.9073486328125e-06 M 21.42488288879395 -4.800271987915039 L 29.44908332824707 20.07273864746094 L 17.25298309326172 24.00495719909668 L 12.92259502410889 10.57688045501709 L -1.708076477050781 14.28943824768066 L -4.861505508422852 1.869527816772461 L 21.42488288879395 -4.800271987915039 Z" stroke="none" fill="#f7f2ec"/>
        </g>
      </g>
    </g>
    <g id="Group_43718" data-name="Group 43718" transform="translate(18.971 9.455) rotate(90)">
      <g id="Group_43477-2" data-name="Group 43477" transform="translate(0)">
        <g id="Path_117126-2" data-name="Path 117126" fill="#4a555f">
          <path d="M 20.09778213500977 21.37072944641113 L 18.27870178222656 20.9091682434082 L -0.4918777644634247 16.14640998840332 L -2.430757761001587 15.65444946289062 L -1.938487768173218 13.71564865112305 L -0.7538077831268311 9.049778938293457 L -0.2616877555847168 7.111568927764893 L 1.676592230796814 7.603409290313721 L 14.25007247924805 10.79392242431641 L 17.92895317077637 -0.6138508915901184 L 18.54276275634766 -2.517190933227539 L 20.44614219665527 -1.903510928153992 L 25.02782249450684 -0.4263108968734741 L 26.93166160583496 0.1875191032886505 L 26.31750297546387 2.091249227523804 L 20.67398262023926 19.58465003967285 L 20.09778213500977 21.37072944641113 Z" stroke="none"/>
          <path d="M 18.77058219909668 18.9705982208252 L 24.41410255432129 1.477199077606201 L 19.83242225646973 -8.895873975234281e-07 L 15.5774621963501 13.19412899017334 L 1.184682250022888 9.541969299316406 L 2.23083497985499e-06 14.207839012146 L 18.77058219909668 18.9705982208252 M 21.42497253417969 23.7708683013916 L -4.861517906188965 17.10105895996094 L -1.708067774772644 4.681169033050537 L 12.92268848419189 8.393708229064941 L 17.25310134887695 -5.034370899200439 L 29.44923210144043 -1.102170944213867 L 21.42497253417969 23.7708683013916 Z" stroke="none" fill="#f7f2ec"/>
        </g>
      </g>
    </g>
  </g>
</svg>
