<svg width="111" height="106" viewBox="0 0 111 106" fill="none" xmlns="http://www.w3.org/2000/svg">
<path d="M27.67 13.499L96.7505 78.7132L96.7505 105.499L0.627226 13.499L27.67 13.499Z" fill="#493D33"/>
<path d="M25.2837 30.4994L25.939 29.8053L30.1867 29.6077C30.6442 29.5824 31.0331 29.5491 31.3535 29.5078C31.6778 29.4663 31.9552 29.398 32.1856 29.3029C32.416 29.2079 32.6189 29.0674 32.7945 28.8815C32.9934 28.6708 33.1154 28.4422 33.1606 28.1957C33.2077 27.9471 33.1845 27.7006 33.091 27.4561C32.9995 27.2096 32.8464 26.9849 32.6315 26.782C32.4043 26.5675 32.1621 26.4268 31.9049 26.3598C31.6478 26.2929 31.3938 26.3012 31.143 26.3848C30.8922 26.4684 30.6595 26.6238 30.445 26.851L29.5309 25.9881C29.8956 25.6018 30.3032 25.3479 30.7539 25.2264C31.2046 25.1049 31.66 25.1108 32.12 25.2443C32.582 25.3757 33.0103 25.6276 33.4048 26.0001C33.8035 26.3765 34.0796 26.7876 34.2331 27.2333C34.3907 27.6789 34.4264 28.119 34.3405 28.5536C34.2565 28.9861 34.0536 29.3727 33.7318 29.7136C33.5095 29.9491 33.2476 30.1375 32.9462 30.2788C32.6469 30.4221 32.2581 30.5298 31.7799 30.6018C31.3036 30.6718 30.687 30.7207 29.9302 30.7485L27.4228 30.878L27.379 30.9244L30.236 33.6215L29.4608 34.4427L25.2837 30.4994ZM32.648 37.6156C32.2596 37.249 31.9807 36.8451 31.8112 36.4038C31.6458 35.9624 31.595 35.5238 31.6588 35.0878C31.7226 34.6519 31.9073 34.2597 32.2128 33.9113L33.1424 34.7889C32.9077 35.083 32.8169 35.4212 32.8701 35.8036C32.9233 36.1859 33.1028 36.5213 33.4086 36.81C33.6523 37.0401 33.9209 37.1881 34.2142 37.254C34.5115 37.3198 34.8074 37.3043 35.1021 37.2074C35.3988 37.1124 35.6671 36.9379 35.907 36.6838C36.1507 36.4256 36.3124 36.1426 36.392 35.8348C36.4715 35.527 36.4678 35.2227 36.3807 34.9217C36.2958 34.6227 36.1282 34.3532 35.8782 34.1133C35.686 33.9319 35.4617 33.7826 35.2051 33.6654C34.9485 33.5482 34.7096 33.4867 34.4884 33.481L33.7343 32.523L37.1095 29.6616L40.5987 32.9554L39.8235 33.7766L37.1307 31.2345L35.2531 32.8199L35.2903 32.8551C35.5274 32.8522 35.7862 32.9071 36.0667 33.0196C36.3494 33.134 36.6084 33.3024 36.8439 33.5248C37.2303 33.8894 37.4874 34.3061 37.6155 34.7747C37.7456 35.2452 37.7472 35.7214 37.6204 36.2034C37.4976 36.6852 37.2412 37.1307 36.851 37.5398C36.465 37.9529 36.0259 38.2318 35.5337 38.3766C35.0435 38.5234 34.5454 38.5337 34.0394 38.4076C33.5373 38.2814 33.0735 38.0174 32.648 37.6156ZM40.4821 42.5969L40.798 42.2622C41.0243 42.0226 41.2806 41.8504 41.5669 41.7457C41.8573 41.6409 42.1551 41.6192 42.4604 41.6808C42.7696 41.7422 43.0616 41.9026 43.3364 42.162C43.6173 42.4272 43.7963 42.7095 43.8732 43.0087C43.9501 43.3079 43.9426 43.6036 43.8505 43.8956C43.7605 44.1896 43.6024 44.4564 43.3762 44.696L43.0602 45.0307C42.834 45.2703 42.5767 45.4435 42.2884 45.5503C42.002 45.655 41.7053 45.6776 41.3981 45.6181C41.0949 45.5585 40.8049 45.3981 40.5281 45.1368C40.2492 44.8735 40.0703 44.5913 39.9913 44.2901C39.9142 43.9868 39.9197 43.6892 40.0078 43.3973C40.0978 43.1033 40.2559 42.8365 40.4821 42.5969ZM41.52 42.9438L41.2041 43.2785C41.0364 43.4561 40.9266 43.6572 40.8748 43.8818C40.823 44.1064 40.9024 44.3181 41.1132 44.517C41.3218 44.714 41.5357 44.7792 41.7548 44.7126C41.974 44.646 42.1674 44.5238 42.3351 44.3462L42.6511 44.0115C42.8188 43.8339 42.9306 43.6347 42.9866 43.414C43.0446 43.1953 42.9662 42.9846 42.7513 42.7817C42.5447 42.5867 42.3298 42.5206 42.1065 42.5833C41.8832 42.646 41.6878 42.7661 41.52 42.9438ZM40.7189 35.9522L41.0348 35.6175C41.261 35.3779 41.5183 35.2047 41.8066 35.0979C42.097 34.9931 42.3948 34.9714 42.7001 35.033C43.0073 35.0965 43.2984 35.2579 43.5731 35.5173C43.8541 35.7825 44.033 36.0647 44.11 36.364C44.1869 36.6632 44.1793 36.9588 44.0873 37.2509C43.9952 37.5429 43.836 37.8088 43.6098 38.0484L43.2939 38.3831C43.0677 38.6227 42.8104 38.7959 42.5221 38.9027C42.2378 39.0093 41.942 39.0329 41.6348 38.9734C41.3317 38.9138 41.0417 38.7534 40.7649 38.492C40.4839 38.2268 40.3039 37.9436 40.2249 37.6424C40.1499 37.3411 40.1565 37.0445 40.2445 36.7526C40.3345 36.4586 40.4926 36.1918 40.7189 35.9522ZM41.7599 36.302L41.444 36.6367C41.2762 36.8143 41.1655 37.0145 41.1116 37.2371C41.0598 37.4616 41.1392 37.6734 41.3499 37.8723C41.5565 38.0673 41.7694 38.1315 41.9885 38.0649C42.2097 38.0003 42.4042 37.8791 42.5719 37.7015L42.8878 37.3668C43.0555 37.1891 43.1674 36.99 43.2233 36.7693C43.2793 36.5487 43.2008 36.3379 42.9881 36.137C42.7815 35.942 42.5666 35.8758 42.3433 35.9385C42.1221 36.0032 41.9276 36.1243 41.7599 36.302ZM36.4615 41.0516L46.8155 38.8243L47.556 39.5234L37.2021 41.7508L36.4615 41.0516ZM47.723 51.6828L45.6685 49.7434L51.6595 43.3972L53.779 45.3981C54.4008 45.9851 54.8149 46.6163 55.0212 47.2916C55.2295 47.9649 55.2292 48.6502 55.0201 49.3475C54.8151 50.0448 54.4016 50.7229 53.7795 51.3819C53.1554 52.0429 52.4983 52.4969 51.808 52.7439C51.1198 52.9928 50.4276 53.0308 49.7313 52.8579C49.0369 52.683 48.3675 52.2913 47.723 51.6828ZM47.4159 49.8106L48.4601 50.7964C48.9435 51.2528 49.4311 51.5412 49.9229 51.6617C50.4167 51.7801 50.9069 51.7409 51.3936 51.544C51.8823 51.345 52.3636 50.9946 52.8375 50.4926C53.3075 49.9947 53.6267 49.4972 53.7953 49C53.9659 48.5047 53.9801 48.02 53.8378 47.5457C53.6956 47.0715 53.3931 46.616 52.9303 46.1792L51.8272 45.1378L47.4159 49.8106ZM51.8915 55.6181L56.3847 50.8584L57.3113 51.7331L52.818 56.4927L51.8915 55.6181ZM57.5459 50.5658C57.3848 50.4137 57.2971 50.2293 57.2828 50.0127C57.2726 49.7959 57.3386 49.6121 57.481 49.4613C57.6253 49.3085 57.805 49.2319 58.02 49.2318C58.239 49.2315 58.4291 49.3074 58.5903 49.4595C58.7514 49.6116 58.8371 49.7961 58.8473 50.0128C58.8616 50.2295 58.7966 50.4142 58.6523 50.5671C58.5099 50.7179 58.3292 50.7934 58.1102 50.7937C57.8951 50.7939 57.7071 50.7179 57.5459 50.5658ZM61.0273 57.4388L60.0472 56.7948C60.1135 56.6542 60.1542 56.4993 60.1694 56.3301C60.1867 56.1628 60.1606 55.9877 60.091 55.8048C60.0214 55.6219 59.8906 55.4398 59.6985 55.2584C59.4361 55.0107 59.1616 54.8629 58.8748 54.8149C58.59 54.7648 58.3608 54.8317 58.1873 55.0155C58.0371 55.1746 57.9751 55.3583 58.0011 55.5665C58.0272 55.7748 58.1422 56.0337 58.3461 56.3434L58.9383 57.2307C59.2807 57.7453 59.4599 58.2094 59.4758 58.623C59.4917 59.0365 59.3408 59.4116 59.0229 59.7483C58.7537 60.0334 58.4312 60.2095 58.0554 60.2766C57.6835 60.3436 57.2914 60.3016 56.8791 60.1507C56.4689 60.0017 56.0716 59.7459 55.6874 59.3831C55.1544 58.88 54.8268 58.3559 54.7046 57.8107C54.5843 57.2636 54.6849 56.7432 55.0063 56.2496L56.0306 56.9587C55.866 57.2448 55.8139 57.5296 55.8743 57.8132C55.9367 58.0948 56.1073 58.3672 56.3862 58.6305C56.6898 58.9172 56.9921 59.0833 57.2928 59.1289C57.5955 59.1725 57.8336 59.1023 58.0072 58.9184C58.1476 58.7697 58.2098 58.5921 58.1938 58.3855C58.1799 58.181 58.0837 57.9456 57.9052 57.6794L57.2663 56.7422C56.9177 56.2217 56.7414 55.7505 56.7373 55.3286C56.7352 54.9086 56.8941 54.5292 57.2139 54.1905C57.4792 53.9095 57.7897 53.7378 58.1457 53.6753C58.5016 53.6128 58.8735 53.6533 59.2615 53.7969C59.6514 53.9384 60.0251 54.1779 60.3825 54.5152C60.8969 55.0008 61.1964 55.4946 61.2812 55.9966C61.368 56.4965 61.2833 56.9773 61.0273 57.4388ZM60.6569 64.0746C60.1963 63.6397 59.8981 63.1609 59.7625 62.6383C59.6309 62.1155 59.6508 61.5854 59.8222 61.0479C59.9936 60.5104 60.3046 60.0031 60.7551 59.5259C61.2114 59.0425 61.705 58.7017 62.2359 58.5035C62.7687 58.3033 63.2989 58.2549 63.8264 58.3583C64.3539 58.4617 64.8418 58.725 65.29 59.1481C65.6516 59.4894 65.9104 59.8608 66.0667 60.2622C66.2249 60.6616 66.2777 61.063 66.225 61.4665C66.1743 61.8719 66.0144 62.2503 65.7452 62.6017L64.8435 61.7504C65.0045 61.4805 65.0722 61.1812 65.0467 60.8523C65.0232 60.5254 64.8638 60.2225 64.5684 59.9436C64.3101 59.6999 64.0196 59.5545 63.6967 59.5075C63.3778 59.4604 63.0467 59.5112 62.7033 59.6597C62.3618 59.8062 62.0312 60.0488 61.7114 60.3876C61.3837 60.7347 61.1536 61.084 61.0211 61.4354C60.8885 61.7869 60.8529 62.1226 60.9144 62.4423C60.9779 62.7641 61.1409 63.0488 61.4032 63.2964C61.5788 63.4622 61.7681 63.5804 61.9711 63.6509C62.1781 63.7213 62.3877 63.7414 62.5999 63.7111C62.8141 63.6829 63.0217 63.6015 63.2229 63.4671L64.1246 64.3184C63.8009 64.595 63.4414 64.7752 63.0459 64.8589C62.6504 64.9426 62.2468 64.9211 61.8352 64.7943C61.4257 64.6694 61.0329 64.4295 60.6569 64.0746ZM65.6079 68.7484C65.1617 68.3272 64.8688 67.8573 64.7293 67.3388C64.5897 66.8203 64.6016 66.2904 64.7649 65.7492C64.9282 65.2079 65.2419 64.6914 65.706 64.1998C66.1721 63.706 66.6716 63.3611 67.2046 63.1648C67.7375 62.9686 68.2668 62.9253 68.7925 63.0347C69.3181 63.1442 69.8041 63.4095 70.2503 63.8308C70.6965 64.252 70.9894 64.7219 71.1289 65.2404C71.2684 65.7589 71.2556 66.2898 71.0904 66.8331C70.9251 67.3765 70.6095 67.895 70.1434 68.3888C69.6792 68.8804 69.1817 69.2233 68.6507 69.4175C68.1197 69.6116 67.5914 69.6539 67.0657 69.5445C66.54 69.435 66.0541 69.1697 65.6079 68.7484ZM66.3452 67.9736C66.6344 68.2466 66.9462 68.3964 67.2806 68.4229C67.615 68.4495 67.9475 68.3786 68.2783 68.2103C68.6111 68.044 68.9219 67.808 69.2105 67.5022C69.4972 67.1985 69.714 66.8758 69.8609 66.5339C70.0118 66.192 70.0654 65.8538 70.0216 65.5194C69.9778 65.1851 69.8113 64.8814 69.5221 64.6084C69.2308 64.3334 68.916 64.1827 68.5776 64.1563C68.2413 64.1318 67.9057 64.2037 67.5709 64.3721C67.2402 64.5404 66.9314 64.7764 66.6448 65.0801C66.3561 65.3858 66.1373 65.7086 65.9884 66.0485C65.8414 66.3904 65.7909 66.7275 65.8366 67.0598C65.8844 67.394 66.0539 67.6986 66.3452 67.9736ZM73.8299 72.5956L76.4597 69.8099L77.3893 70.6874L72.8961 75.4471L71.9851 74.587L72.7632 73.7628L72.7136 73.716C72.3642 73.8667 71.9888 73.9127 71.5871 73.8539C71.1895 73.795 70.8121 73.5969 70.4547 73.2595C70.1489 72.9709 69.9417 72.6482 69.833 72.2917C69.7282 71.9349 69.7345 71.56 69.8518 71.1667C69.9712 70.7754 70.2161 70.3835 70.5867 69.991L73.4447 66.9636L74.3712 67.8382L71.6185 70.7541C71.3123 71.0784 71.1584 71.4215 71.1567 71.7833C71.1551 72.1451 71.2979 72.4615 71.585 72.7326C71.7585 72.8964 71.972 73.0158 72.2254 73.0909C72.4808 73.168 72.7482 73.1724 73.0276 73.104C73.309 73.0376 73.5765 72.8682 73.8299 72.5956ZM77.7354 74.6709L75.0675 77.4969L74.141 76.6223L78.6342 71.8627L79.5235 72.7022L78.7922 73.4769L78.8511 73.5325C79.1985 73.3838 79.5611 73.3432 79.9388 73.4107C80.3186 73.4802 80.6872 73.6836 81.0446 74.021C81.369 74.3272 81.5887 74.6635 81.7037 75.03C81.8207 75.3944 81.8206 75.7732 81.7033 76.1664C81.586 76.5597 81.3421 76.9526 80.9715 77.3451L78.1135 80.3725L77.187 79.4978L79.9397 76.582C80.2654 76.237 80.43 75.8825 80.4336 75.5187C80.4392 75.1528 80.2849 74.8216 79.9709 74.5252C79.7561 74.3224 79.5211 74.1884 79.266 74.1234C79.013 74.0604 78.7531 74.0729 78.4863 74.161C78.2236 74.2489 77.9733 74.4189 77.7354 74.6709ZM86.0711 78.8833L85.369 79.627L82.7692 77.1727L83.4713 76.429L86.0711 78.8833ZM85.245 75.9469L86.1715 76.8216L81.9211 81.324C81.7514 81.5037 81.6505 81.6644 81.6184 81.806C81.5883 81.9455 81.6 82.0718 81.6535 82.1848C81.711 82.2977 81.7903 82.4019 81.8916 82.4975C81.9659 82.5677 82.0359 82.6239 82.1014 82.6663C82.1669 82.7086 82.2181 82.7413 82.255 82.7643L81.6997 83.6877C81.6265 83.6576 81.5306 83.6061 81.4119 83.5332C81.2913 83.4623 81.1557 83.3577 81.005 83.2193C80.7573 82.9933 80.571 82.7354 80.4461 82.4456C80.3212 82.1558 80.2834 81.8544 80.3327 81.5415C80.382 81.2286 80.5421 80.9286 80.8132 80.6414L85.245 75.9469Z" fill="#F6F2ED"/>
</svg>
