<svg width="13" height="16" viewBox="0 0 13 16" fill="none" xmlns="http://www.w3.org/2000/svg">
<path d="M12.9986 7.99992V13.2027C13.0109 13.7457 12.8332 14.275 12.4986 14.6923C12.1639 15.1097 11.695 15.3868 11.1787 15.4723C11.0386 15.493 10.8971 15.5014 10.7556 15.4972H2.24948C1.94953 15.5106 1.65018 15.4589 1.37053 15.3454C1.09088 15.2319 0.837068 15.0591 0.625279 14.838C0.413489 14.6169 0.248374 14.3524 0.140467 14.0613C0.032559 13.7702 -0.0157722 13.4589 -0.00144446 13.1474V2.79442C-0.0144488 2.24974 0.164364 1.71886 0.501417 1.30147C0.838469 0.884078 1.31058 0.608882 1.82909 0.527558C1.96814 0.505422 2.10891 0.4971 2.24948 0.502687H10.745C11.0451 0.488875 11.3448 0.540253 11.6247 0.653565C11.9047 0.766878 12.1589 0.939631 12.3709 1.16077C12.583 1.3819 12.7484 1.64656 12.8564 1.93785C12.9645 2.22914 13.0129 2.54066 12.9986 2.85248V7.99992ZM6.50654 11.3753H3.64632C3.5335 11.3699 3.42102 11.3921 3.31796 11.4401C3.21491 11.4881 3.12415 11.5606 3.053 11.6518C2.96289 11.7591 2.90564 11.892 2.88858 12.0333C2.87151 12.1746 2.89541 12.318 2.95721 12.4452C3.01969 12.5847 3.12173 12.7011 3.24966 12.7786C3.37758 12.8562 3.52527 12.8913 3.67293 12.8792H9.3162C9.41999 12.8812 9.52337 12.8653 9.62217 12.8322C9.78169 12.7778 9.91729 12.6661 10.0046 12.5171C10.0919 12.3681 10.1252 12.1917 10.0984 12.0195C10.0756 11.8402 9.98994 11.676 9.85791 11.5582C9.72588 11.4404 9.55671 11.3773 9.38272 11.3809C8.42488 11.3726 7.45373 11.3753 6.50654 11.3753ZM6.50654 7.37238H9.34813C9.44597 7.37918 9.54411 7.36508 9.63652 7.33098C9.72892 7.29687 9.81362 7.24346 9.88541 7.17406C9.9572 7.10465 10.0145 7.0207 10.0539 6.92739C10.0933 6.83408 10.1139 6.73339 10.1144 6.63151C10.1156 6.53006 10.0968 6.42941 10.0592 6.33579C10.0216 6.24217 9.96589 6.15754 9.89561 6.0871C9.82532 6.01666 9.74191 5.96192 9.6505 5.92623C9.55909 5.89054 9.46162 5.87465 9.36409 5.87956C7.45728 5.87956 5.55047 5.87956 3.64366 5.87956C3.52051 5.88068 3.39899 5.90896 3.28714 5.96251C3.14299 6.03548 3.02735 6.15767 2.95954 6.30864C2.89173 6.45961 2.87588 6.63019 2.91464 6.79185C2.94972 6.95371 3.03684 7.09831 3.16162 7.20183C3.2864 7.30535 3.44141 7.36161 3.60109 7.36133L6.50654 7.37238ZM6.50654 8.62744C5.5354 8.62744 4.56691 8.62744 3.59577 8.62744C3.41884 8.62836 3.24875 8.69863 3.11951 8.8242C2.99028 8.94977 2.91141 9.12138 2.89868 9.30474C2.88387 9.47949 2.92923 9.65403 3.02667 9.7973C3.12412 9.94056 3.26733 10.0433 3.43081 10.0871C3.5408 10.1124 3.65351 10.1226 3.76605 10.1175H9.24702C9.3162 10.1175 9.38272 10.1175 9.44923 10.1175C9.55517 10.1133 9.65864 10.083 9.75114 10.0292C9.84364 9.97538 9.92254 9.89952 9.98136 9.80788C10.0596 9.6988 10.1062 9.56876 10.1156 9.43308C10.125 9.2974 10.0969 9.16174 10.0346 9.04211C9.97934 8.91549 9.88917 8.80876 9.77549 8.73543C9.66181 8.6621 9.52975 8.62547 9.39602 8.63021L6.50654 8.62744ZM5.04583 4.6245H6.46663C6.56396 4.62973 6.6613 4.61442 6.75277 4.57947C6.84424 4.54451 6.92794 4.49065 6.99881 4.42115C7.06969 4.35164 7.12626 4.26793 7.16513 4.17507C7.20399 4.08221 7.22433 3.98212 7.22492 3.88086C7.2272 3.77932 7.20937 3.67839 7.17254 3.58432C7.1357 3.49024 7.08064 3.40504 7.01077 3.33401C6.94091 3.26297 6.85773 3.20761 6.76641 3.17138C6.6751 3.13515 6.57758 3.11882 6.47993 3.1234C5.5354 3.1234 4.5882 3.1234 3.641 3.1234C3.54339 3.12042 3.4462 3.13792 3.35525 3.17486C3.2643 3.2118 3.18145 3.26742 3.11165 3.33839C3.04186 3.40936 2.98656 3.49423 2.94905 3.58791C2.91154 3.68159 2.8926 3.78216 2.89336 3.88363C2.89537 3.98504 2.91696 4.08499 2.95685 4.17757C2.99674 4.27015 3.05413 4.35345 3.12559 4.42255C3.19706 4.49165 3.28115 4.54513 3.37289 4.57982C3.46463 4.61451 3.56213 4.6297 3.65963 4.6245H5.04583Z" fill="#F9F4F0"/>
</svg>
