<svg width="40" height="34" viewBox="0 0 40 34" fill="none" xmlns="http://www.w3.org/2000/svg">
<path fill-rule="evenodd" clip-rule="evenodd" d="M29.6979 0.527771C29.0931 0.18189 28.4085 -3.75714e-05 27.7118 5.81999e-09H12.2878C11.5912 -3.75714e-05 10.9065 0.18189 10.3018 0.527771C9.697 0.873652 9.19306 1.37149 8.83984 1.972L1.19284 14.972C0.831279 15.5867 0.640625 16.2869 0.640625 17C0.640625 17.7131 0.831279 18.4133 1.19284 19.028L8.83984 32.028C9.19306 32.6285 9.697 33.1263 10.3018 33.4722C10.9065 33.8181 11.5912 34 12.2878 34H27.7118C28.4085 34 29.0931 33.8181 29.6979 33.4722C30.3027 33.1263 30.8066 32.6285 31.1598 32.028L38.8068 19.028C39.1684 18.4133 39.3591 17.7131 39.3591 17C39.3591 16.2869 39.1684 15.5867 38.8068 14.972L31.1598 1.972C30.8066 1.37149 30.3027 0.873652 29.6979 0.527771ZM18.6874 21.4393V8.07125L21.3064 8.03125V21.4132L23.7064 19.0303L25.5974 20.9212L20.9374 25.5812C20.8142 25.7046 20.6679 25.8025 20.5069 25.8693C20.3459 25.9361 20.1732 25.9705 19.9989 25.9705C19.8245 25.9705 19.6519 25.9361 19.4909 25.8693C19.3298 25.8025 19.1836 25.7046 19.0604 25.5812L14.4004 20.9212L16.2874 19.0392L18.6874 21.4393Z" fill="#FDF7F0"/>
</svg>
