<svg width="20" height="20" viewBox="0 0 20 20" fill="none" xmlns="http://www.w3.org/2000/svg">
<path d="M10.3123 0C10.5009 0.132289 10.7134 0.241142 10.8748 0.401035C12.3493 1.86299 13.8123 3.3364 15.2862 4.79939C15.3992 4.90598 15.4882 5.03544 15.5473 5.17912C15.6064 5.32281 15.6342 5.47744 15.6289 5.63271C15.6206 7.64413 15.6258 9.65504 15.6242 11.6665C15.6242 12.2472 15.1279 12.6295 14.6034 12.4602C14.2659 12.3519 14.0623 12.0571 14.0623 11.6665C14.0623 9.95434 14.0623 8.24239 14.0623 6.53061V6.24989H13.8466C13.1503 6.24989 12.4539 6.24989 11.7576 6.24989C10.4035 6.24572 9.37796 5.21397 9.37535 3.85931C9.37535 3.10411 9.37535 2.34892 9.37535 1.56299H2.42704C1.88226 1.56299 1.56299 1.87913 1.56299 2.42027C1.56299 7.47157 1.56299 12.5236 1.56299 17.5762C1.56299 18.12 1.8807 18.4382 2.42183 18.4398C2.8838 18.4398 3.34577 18.4398 3.80827 18.4398C4.28117 18.4398 4.59992 18.6778 4.677 19.0872C4.75044 19.4773 4.53013 19.8163 4.09472 19.9804C4.08319 19.9862 4.07251 19.9936 4.06295 20.0022H2.03121C1.98955 19.9887 1.94892 19.971 1.90622 19.9616C1.21665 19.8137 0.672384 19.4497 0.327599 18.834C0.179164 18.5684 0.106769 18.2611 0 17.971V2.03121C0.0150938 1.99748 0.027629 1.96266 0.0374994 1.92705C0.161456 1.30206 0.467699 0.776548 1.00675 0.437492C1.31925 0.242704 1.68799 0.144269 2.03121 0.00208374L10.3123 0ZM12.8753 4.68221L10.9425 2.74839C10.9425 3.1489 10.9248 3.5765 10.9477 4.00253C10.9605 4.17712 11.0357 4.34129 11.1595 4.46502C11.2834 4.58876 11.4476 4.66382 11.6222 4.67648C12.0477 4.69992 12.4758 4.68221 12.8753 4.68221Z" fill="white"/>
<path d="M11.6387 19.9997C11.17 19.8434 11.0028 19.5106 11.008 19.0263C11.0236 17.582 11.0294 16.1373 11.008 14.693C10.9986 14.117 11.3476 13.7034 11.9694 13.7456C12.4231 13.7764 12.8845 13.7284 13.3324 13.7894C14.4595 13.9425 15.3017 14.9237 15.3116 16.0571C15.3157 16.7003 15.3491 17.3503 15.2756 17.9841C15.1543 19.0101 14.3954 19.7617 13.3835 19.9617C13.3479 19.9717 13.313 19.9844 13.2793 19.9997H11.6387ZM12.5903 15.3003V18.4372C12.734 18.4372 12.8637 18.4419 12.9929 18.4372C13.1906 18.4323 13.3788 18.3517 13.5187 18.2119C13.6586 18.0721 13.7394 17.8839 13.7444 17.6862C13.7548 17.1461 13.7533 16.6055 13.7444 16.0659C13.7438 15.8979 13.6859 15.7352 13.5803 15.6045C13.4748 15.4738 13.3278 15.3831 13.1637 15.3472C12.9835 15.3055 12.7918 15.3123 12.5903 15.3003Z" fill="white"/>
<path d="M6.56443 19.9997C6.09569 19.8434 5.9285 19.5101 5.93371 19.0252C5.94934 17.5612 5.93892 16.0961 5.93944 14.6315C5.93944 14.0623 6.25193 13.7498 6.81859 13.7498C7.30712 13.7498 7.79514 13.7456 8.28315 13.7498C8.76673 13.7506 9.2329 13.9303 9.59194 14.2542C9.95098 14.5782 10.1775 15.0235 10.2279 15.5044C10.2775 15.9685 10.157 16.4347 9.88876 16.8166C9.62056 17.1985 9.2229 17.4701 8.7696 17.581C8.40919 17.6664 8.02117 17.633 7.64566 17.6549C7.60764 17.6549 7.5691 17.6549 7.504 17.6549V18.2237C7.504 18.4903 7.49045 18.758 7.50712 19.0242C7.53472 19.5101 7.34566 19.8434 6.87692 19.9997H6.56443ZM7.50608 16.0935C7.78836 16.0935 8.05398 16.1029 8.31856 16.0904C8.41058 16.0839 8.49711 16.0442 8.562 15.9787C8.62689 15.9131 8.66569 15.8262 8.67116 15.7341C8.68575 15.5492 8.56127 15.3482 8.37481 15.3331C8.08784 15.3091 7.79722 15.3268 7.50608 15.3268V16.0935Z" fill="white"/>
<path d="M16.7207 19.9996C16.2519 19.8433 16.0853 19.5116 16.0899 19.0277C16.1056 17.5653 16.0957 16.1033 16.0957 14.6408C16.0957 14.0575 16.4019 13.7502 16.9811 13.7497C17.6639 13.7497 18.3467 13.7643 19.0284 13.7445C19.5133 13.731 19.8456 13.906 20.0018 14.3747V14.6872C19.8456 15.1559 19.5123 15.345 19.0274 15.3153C18.7618 15.2986 18.4941 15.3122 18.2274 15.3122H17.6738V16.0934H18.3717C18.867 16.0934 19.2164 16.4153 19.2201 16.8684C19.2237 17.3215 18.8706 17.6559 18.3644 17.6559H17.6581C17.6581 18.1298 17.6425 18.5788 17.6623 19.0257C17.6842 19.5105 17.5019 19.8433 17.0332 19.9996H16.7207Z" fill="white"/>
<path d="M8.65548 9.80871C8.71408 9.73049 8.77776 9.6562 8.8461 9.58632C8.99191 9.44823 9.18572 9.37227 9.38653 9.3745C9.58735 9.37674 9.77941 9.45699 9.92212 9.5983C9.99498 9.66645 10.0537 9.7483 10.0949 9.83918C10.136 9.93005 10.1589 10.0282 10.1621 10.1279C10.1653 10.2276 10.1487 10.327 10.1135 10.4203C10.0782 10.5136 10.0248 10.5991 9.95649 10.6717C9.42456 11.2273 8.88151 11.77 8.32736 12.2998C8.18712 12.4356 7.99889 12.5103 7.80374 12.5078C7.60859 12.5052 7.42236 12.4256 7.28571 12.2863C6.74405 11.7606 6.21055 11.2267 5.68521 10.6847C5.54455 10.5405 5.46674 10.3464 5.46879 10.145C5.47084 9.94354 5.55259 9.7511 5.69615 9.60976C5.99406 9.3056 6.45968 9.29414 6.78676 9.58789C6.85567 9.65721 6.92037 9.7306 6.9805 9.80767L7.03519 9.78684V9.58892C7.03519 8.73686 7.03207 7.88427 7.03519 7.0322C7.03899 6.84093 7.11284 6.6577 7.24274 6.51725C7.37265 6.3768 7.54957 6.2889 7.73996 6.27022C7.93036 6.25153 8.121 6.30336 8.27572 6.41587C8.43045 6.52838 8.53852 6.69376 8.57943 6.88064C8.59334 6.96478 8.59875 7.0501 8.59558 7.13532C8.59558 7.9551 8.59558 8.77488 8.59558 9.59465V9.78319L8.65548 9.80871Z" fill="white"/>
</svg>
