<svg xmlns="http://www.w3.org/2000/svg" width="173.296" height="137.496" viewBox="0 0 173.296 137.496">
  <g id="illustration" transform="translate(-61.704 -486)">
    <g id="Group_39521" data-name="Group 39521" transform="translate(-19149.816 12397.678)" opacity="0.272">
      <circle id="Ellipse_1999" data-name="Ellipse 1999" cx="26.997" cy="26.997" r="26.997" transform="translate(19218.561 -11837.161)" fill="#759a92"/>
      <path id="Path_25533" data-name="Path 25533" d="M2.313,4.625A2.313,2.313,0,1,0,0,2.313,2.313,2.313,0,0,0,2.313,4.625Z" transform="translate(19254.068 -11780.688) rotate(39)" fill="#759a92"/>
      <path id="Path_25534" data-name="Path 25534" d="M1.579,3.159A1.579,1.579,0,1,0,0,1.579,1.58,1.58,0,0,0,1.579,3.159Z" transform="translate(19262.025 -11783.97) rotate(39)" fill="#759a92"/>
      <path id="Path_25535" data-name="Path 25535" d="M15.217,6.125a2.933,2.933,0,1,0-2.933-2.933A2.933,2.933,0,0,0,15.217,6.125Z" transform="translate(19199.236 -11823.791)" fill="#759a92"/>
    </g>
    <g id="Path_118744" data-name="Path 118744" transform="translate(106 488)" fill="#323c3a">
      <path d="M 64.5 127.5 C 55.99440002441406 127.5 47.74399948120117 125.8344879150391 39.97801971435547 122.5497665405273 C 36.24532699584961 120.9709625244141 32.64503479003906 119.0167846679688 29.27714538574219 116.7414703369141 C 25.94087219238281 114.4875259399414 22.80352783203125 111.8989791870117 19.95227241516113 109.0477294921875 C 17.10101890563965 106.1964721679688 14.51247310638428 103.0591278076172 12.25852680206299 99.72285461425781 C 9.983218193054199 96.35496520996094 8.029036521911621 92.75466918945312 6.450236320495605 89.02198028564453 C 3.165508985519409 81.25599670410156 1.5 73.00559997558594 1.5 64.5 C 1.5 55.99440002441406 3.165508985519409 47.74399948120117 6.450236320495605 39.97801971435547 C 8.029036521911621 36.24532699584961 9.983218193054199 32.64503479003906 12.25852680206299 29.27714538574219 C 14.51247310638428 25.94087219238281 17.10101890563965 22.80352783203125 19.95227241516113 19.95227241516113 C 22.80352783203125 17.10101890563965 25.94087219238281 14.51247310638428 29.27714538574219 12.25852680206299 C 32.64503479003906 9.983218193054199 36.24532699584961 8.029036521911621 39.97801971435547 6.450236320495605 C 47.74399948120117 3.165508985519409 55.99440002441406 1.5 64.5 1.5 C 73.00559997558594 1.5 81.25599670410156 3.165508985519409 89.02198028564453 6.450236320495605 C 92.75466918945312 8.029036521911621 96.35496520996094 9.983218193054199 99.72285461425781 12.25852680206299 C 103.0591278076172 14.51247310638428 106.1964721679688 17.10101890563965 109.0477294921875 19.95227241516113 C 111.8989791870117 22.80352783203125 114.4875259399414 25.94087219238281 116.7414703369141 29.27714538574219 C 119.0167846679688 32.64503479003906 120.9709625244141 36.24532699584961 122.5497665405273 39.97801971435547 C 125.8344879150391 47.74399948120117 127.5 55.99440002441406 127.5 64.5 C 127.5 73.00559997558594 125.8344879150391 81.25599670410156 122.5497665405273 89.02198028564453 C 120.9709625244141 92.75466918945312 119.0167846679688 96.35496520996094 116.7414703369141 99.72285461425781 C 114.4875259399414 103.0591278076172 111.8989791870117 106.1964721679688 109.0477294921875 109.0477294921875 C 106.1964721679688 111.8989791870117 103.0591278076172 114.4875259399414 99.72285461425781 116.7414703369141 C 96.35496520996094 119.0167846679688 92.75466918945312 120.9709625244141 89.02198028564453 122.5497665405273 C 81.25599670410156 125.8344879150391 73.00559997558594 127.5 64.5 127.5 Z" stroke="none"/>
      <path d="M 64.5 3 C 56.19624328613281 3 48.14244079589844 4.625640869140625 40.56233978271484 7.831741333007812 C 36.91886138916016 9.372802734375 33.40450286865234 11.28038024902344 30.11685943603516 13.50145721435547 C 26.85968017578125 15.70195770263672 23.79667663574219 18.22917938232422 21.012939453125 21.012939453125 C 18.22917938232422 23.79667663574219 15.70195770263672 26.85968017578125 13.50145721435547 30.11685943603516 C 11.28038024902344 33.40450286865234 9.372802734375 36.91886138916016 7.831741333007812 40.56233978271484 C 4.625640869140625 48.14244079589844 3 56.19624328613281 3 64.5 C 3 72.80375671386719 4.625640869140625 80.85755920410156 7.831741333007812 88.43766021728516 C 9.372802734375 92.08113861083984 11.28038024902344 95.59550476074219 13.50145721435547 98.88314056396484 C 15.70195770263672 102.1403198242188 18.22917938232422 105.2033233642578 21.012939453125 107.987060546875 C 23.79667663574219 110.7708206176758 26.85968017578125 113.2980422973633 30.11685943603516 115.4985427856445 C 33.40450286865234 117.7196197509766 36.91886138916016 119.627197265625 40.56233978271484 121.1682586669922 C 48.14244079589844 124.3743591308594 56.19624328613281 126 64.5 126 C 72.80375671386719 126 80.85755920410156 124.3743591308594 88.43766021728516 121.1682586669922 C 92.08113861083984 119.627197265625 95.59550476074219 117.7196197509766 98.88314056396484 115.4985427856445 C 102.1403198242188 113.2980422973633 105.2033233642578 110.7708206176758 107.987060546875 107.987060546875 C 110.7708206176758 105.2033233642578 113.2980422973633 102.1403198242188 115.4985427856445 98.88314056396484 C 117.7196197509766 95.59550476074219 119.627197265625 92.08113861083984 121.1682586669922 88.43766021728516 C 124.3743591308594 80.85755920410156 126 72.80375671386719 126 64.5 C 126 56.19624328613281 124.3743591308594 48.14244079589844 121.1682586669922 40.56233978271484 C 119.627197265625 36.91886138916016 117.7196197509766 33.40450286865234 115.4985427856445 30.11685943603516 C 113.2980422973633 26.85968017578125 110.7708206176758 23.79667663574219 107.987060546875 21.012939453125 C 105.2033233642578 18.22917938232422 102.1403198242188 15.70195770263672 98.88314056396484 13.50145721435547 C 95.59550476074219 11.28038024902344 92.08113861083984 9.372802734375 88.43766021728516 7.831741333007812 C 80.85755920410156 4.625640869140625 72.80375671386719 3 64.5 3 M 64.5 0 C 100.1223602294922 0 129 28.87763977050781 129 64.5 C 129 100.1223602294922 100.1223602294922 129 64.5 129 C 28.87763977050781 129 0 100.1223602294922 0 64.5 C 0 28.87763977050781 28.87763977050781 0 64.5 0 Z" stroke="none" fill="#759a92"/>
    </g>
    <path id="Path_25556" data-name="Path 25556" d="M147.785,193.761l-.508-4.067c1.271-.127,2.669-.381,3.94-.635l.762,4.067C150.58,193.379,149.182,193.507,147.785,193.761Zm8.387-1.652-1.017-3.939,3.812-1.144,1.4,3.939Q158.078,191.537,156.172,192.109Zm8.006-2.8-1.652-3.812c1.271-.508,2.415-1.144,3.558-1.652l1.906,3.685A34.951,34.951,0,0,1,164.178,189.313ZM171.8,185.5l-2.16-3.558a29.569,29.569,0,0,0,3.3-2.16l2.414,3.3C174.217,183.975,172.946,184.738,171.8,185.5Zm6.862-4.956L176,177.367c1.017-.89,2.033-1.779,2.923-2.669l2.8,2.923A22.272,22.272,0,0,1,178.665,180.544Zm6.227-5.973-3.05-2.8c.89-1.017,1.779-2.033,2.542-3.05l3.3,2.542C186.8,172.411,185.781,173.555,184.892,174.571Zm5.21-6.735-3.431-2.287c.762-1.144,1.4-2.287,2.033-3.431l3.558,2.033A35.009,35.009,0,0,1,190.1,167.836Zm4.194-7.371-3.685-1.779A31.982,31.982,0,0,0,192.135,155l3.812,1.525A26,26,0,0,1,194.3,160.466Zm3.177-8.006-3.939-1.271c.381-1.271.763-2.542,1.017-3.812l4.066.89Zm1.906-8.26-4.067-.635c.254-1.271.381-2.669.508-3.94l4.067.381C199.76,141.276,199.506,142.8,199.379,144.2Zm.635-8.514h-4.066V135.3a33.3,33.3,0,0,0-.127-3.558l4.067-.254c.127,1.271.127,2.542.127,3.812ZM89.2,118.148l-3.939-1.271a26.465,26.465,0,0,1,1.525-4.067l3.812,1.525C90.091,115.606,89.582,116.877,89.2,118.148Zm3.05-7.371-3.685-1.906c.635-1.271,1.271-2.542,2.033-3.812l3.558,2.16A33.093,33.093,0,0,0,92.251,110.777Zm4.067-6.735-3.431-2.415c.762-1.144,1.652-2.287,2.542-3.431l3.177,2.542C97.843,101.881,96.953,102.9,96.318,104.042Zm4.956-6.227-3.05-2.8,3.05-3.05,2.8,3.05C103.053,95.908,102.163,96.925,101.274,97.815Zm5.846-5.337L104.578,89.3c1.144-.89,2.287-1.779,3.431-2.542L110.3,90.19A18.263,18.263,0,0,0,107.119,92.477ZM113.6,87.9l-2.033-3.558c1.271-.762,2.542-1.4,3.812-2.033L117.159,86C115.888,86.631,114.744,87.267,113.6,87.9Zm7.116-3.431-1.525-3.812a38.191,38.191,0,0,1,4.067-1.4l1.271,3.939A22.366,22.366,0,0,0,120.717,84.471Zm7.625-2.415-1.017-4.067c1.4-.381,2.8-.635,4.194-.89l.635,4.067C130.883,81.421,129.612,81.675,128.341,82.057Z" transform="translate(28.957 417.004)" fill="#96826f" stroke="#343c3a" stroke-width="0.7"/>
    <g id="Group_44960" data-name="Group 44960" transform="translate(3.513 -8.535)">
      <path id="Path_118661" data-name="Path 118661" d="M-6.8,0H40.57a2.2,2.2,0,0,1,2.2,2.2v73.8a2.2,2.2,0,0,1-2.2,2.2H-6.8a2.2,2.2,0,0,1-2.2-2.2V2.2A2.2,2.2,0,0,1-6.8,0Z" transform="translate(150.1 522.095)" fill="#96826f"/>
      <g id="mobile" transform="translate(140.012 521.061)">
        <path id="Path_118655" data-name="Path 118655" d="M50.5,78.285a1.446,1.446,0,0,0,1.446-1.446V6.338A4.338,4.338,0,0,0,47.684,2H2.338A4.338,4.338,0,0,0-2,6.338V79.756a4.338,4.338,0,0,0,4.338,4.193H47.757a4.338,4.338,0,0,0,4.193-4.265V76.72A1.446,1.446,0,0,0,50.5,75.274l-1.446-.042v4.452a1.446,1.446,0,0,1-1.374,1.374H2.338A1.446,1.446,0,0,1,.892,79.684V6.338A1.446,1.446,0,0,1,2.338,4.892H47.757a1.446,1.446,0,0,1,1.3,1.446v70.5A1.446,1.446,0,0,0,50.5,78.285Z" transform="translate(2 -2)" fill="#162a27"/>
        <path id="Path_118656" data-name="Path 118656" d="M20.229,7.892a1.446,1.446,0,1,0,0-2.892H14.446a1.446,1.446,0,1,0,0,2.892Z" transform="translate(9.637 4.845)" fill="#162a27"/>
        <g id="Rectangle_8526" data-name="Rectangle 8526" transform="translate(4.393 4.34)" fill="none" stroke="#1b2927" stroke-width="2" stroke-dasharray="2 2">
          <rect width="45.164" height="73.254" stroke="none"/>
          <rect x="1" y="1" width="43.164" height="71.254" fill="none"/>
        </g>
      </g>
    </g>
    <g id="Group_44961" data-name="Group 44961" transform="translate(4 -4)">
      <circle id="Ellipse_2469" data-name="Ellipse 2469" cx="22" cy="22" r="22" transform="translate(179 490)" fill="#343c3a"/>
      <g id="Group_44955" data-name="Group 44955" transform="translate(0.652 -14)">
        <g id="Ellipse_2466" data-name="Ellipse 2466" transform="translate(180.348 506)" fill="#ed835e" stroke="#96826f" stroke-width="2.5">
          <circle cx="20" cy="20" r="20" stroke="none"/>
          <circle cx="20" cy="20" r="18.75" fill="none"/>
        </g>
        <path id="Path_118653" data-name="Path 118653" d="M1.6-14.78,2.171.372h4.89L7.636-14.78ZM7.061,8.282V3.3H2.171V8.282Z" transform="translate(195.309 529.371)" fill="#343c3a"/>
      </g>
    </g>
  </g>
</svg>
