<svg width="203" height="159" viewBox="0 0 203 159" fill="none" xmlns="http://www.w3.org/2000/svg">
<g opacity="0.272">
<path d="M45.7824 146.908C65.8356 146.908 82.0921 130.652 82.0921 110.599C82.0921 90.5455 65.8356 74.2891 45.7824 74.2891C25.7291 74.2891 9.47266 90.5455 9.47266 110.599C9.47266 130.652 25.7291 146.908 45.7824 146.908Z" fill="#41594C"/>
<path d="M55.7314 157.041C56.2101 157.428 56.7931 157.665 57.4066 157.721C58.02 157.778 58.6364 157.651 59.1776 157.356C59.7188 157.062 60.1606 156.614 60.447 156.069C60.7335 155.523 60.8517 154.905 60.7867 154.293C60.7217 153.68 60.4764 153.1 60.082 152.627C59.6875 152.154 59.1615 151.809 58.5706 151.635C57.9797 151.46 57.3504 151.466 56.7624 151.649C56.1744 151.833 55.6541 152.187 55.2674 152.666C54.7496 153.308 54.5077 154.129 54.5947 154.949C54.6817 155.77 55.0905 156.522 55.7314 157.041Z" fill="#41594C"/>
<path d="M66.9069 150.468C67.2334 150.733 67.631 150.894 68.0493 150.933C68.4677 150.971 68.888 150.885 69.2572 150.684C69.6264 150.484 69.9279 150.178 70.1235 149.807C70.3191 149.435 70.4001 149.013 70.3562 148.596C70.3122 148.178 70.1454 147.782 69.8768 147.459C69.6082 147.136 69.2498 146.9 68.847 146.781C68.4442 146.662 68.015 146.664 67.6138 146.789C67.2126 146.914 66.8573 147.154 66.5929 147.481C66.2384 147.919 66.0723 148.479 66.1312 149.04C66.1901 149.6 66.4691 150.114 66.9069 150.468Z" fill="#41594C"/>
<path d="M3.94492 100.509C4.72515 100.509 5.48786 100.278 6.13659 99.8441C6.78533 99.4107 7.29096 98.7946 7.58954 98.0737C7.88813 97.3529 7.96625 96.5597 7.81403 95.7944C7.66182 95.0292 7.2861 94.3263 6.73439 93.7746C6.18269 93.2229 5.47977 92.8472 4.71453 92.6949C3.94929 92.5427 3.1561 92.6208 2.43526 92.9194C1.71442 93.218 1.09831 93.7236 0.664838 94.3724C0.231365 95.0211 0 95.7838 0 96.5641C0 97.6103 0.415623 98.6137 1.15544 99.3535C1.89525 100.093 2.89866 100.509 3.94492 100.509Z" fill="#41594C"/>
</g>
<g opacity="0.272">
<path d="M186.613 37.2276C192.542 32.7606 193.727 24.3331 189.26 18.4043C184.793 12.4755 176.365 11.2905 170.436 15.7575C164.507 20.2245 163.322 28.652 167.789 34.5808C172.256 40.5096 180.684 41.6946 186.613 37.2276Z" fill="#41594C"/>
<path d="M185.929 42.439C185.873 42.6599 185.754 42.8594 185.586 43.0125C185.417 43.1655 185.207 43.2652 184.982 43.2988C184.757 43.3324 184.527 43.2985 184.321 43.2014C184.115 43.1043 183.942 42.9483 183.825 42.7532C183.708 42.5581 183.651 42.3325 183.662 42.1052C183.673 41.8778 183.751 41.6588 183.887 41.4758C184.022 41.2928 184.209 41.1541 184.423 41.0772C184.637 41.0003 184.869 40.9887 185.09 41.0437C185.386 41.1176 185.641 41.3061 185.798 41.5678C185.956 41.8294 186.002 42.1428 185.929 42.439Z" fill="#41594C"/>
<path d="M181.161 42.9876C181.124 43.1385 181.042 43.2749 180.927 43.3794C180.812 43.484 180.668 43.5521 180.514 43.5751C180.361 43.598 180.203 43.5749 180.063 43.5085C179.922 43.4422 179.804 43.3356 179.724 43.2023C179.644 43.069 179.605 42.9149 179.613 42.7595C179.62 42.6042 179.674 42.4545 179.766 42.3295C179.859 42.2045 179.986 42.1097 180.133 42.0572C180.279 42.0046 180.438 41.9967 180.589 42.0343C180.791 42.0848 180.965 42.2136 181.072 42.3924C181.18 42.5711 181.212 42.7852 181.161 42.9876Z" fill="#41594C"/>
<path d="M188.648 14.1927C188.417 14.3666 188.14 14.4681 187.851 14.4845C187.563 14.5008 187.276 14.4313 187.027 14.2846C186.778 14.1379 186.578 13.9208 186.453 13.6605C186.327 13.4003 186.282 13.1087 186.322 12.8225C186.362 12.5364 186.486 12.2687 186.679 12.0531C186.871 11.8376 187.123 11.6839 187.403 11.6116C187.683 11.5393 187.977 11.5515 188.25 11.6468C188.523 11.7421 188.761 11.9161 188.935 12.1469C189.168 12.4563 189.269 12.8457 189.215 13.2294C189.161 13.613 188.957 13.9596 188.648 14.1927Z" fill="#41594C"/>
</g>
<path d="M110.733 141.607C149.837 141.607 181.537 109.907 181.537 70.8036C181.537 31.6999 149.837 0 110.733 0C71.6295 0 39.9297 31.6999 39.9297 70.8036C39.9297 109.907 71.6295 141.607 110.733 141.607Z" fill="#F6F2ED"/>
<path d="M110.733 140.602C149.282 140.602 180.532 109.352 180.532 70.8032C180.532 32.2541 149.282 1.00391 110.733 1.00391C72.1838 1.00391 40.9336 32.2541 40.9336 70.8032C40.9336 109.352 72.1838 140.602 110.733 140.602Z" stroke="#002C27" stroke-width="2"/>
<path d="M176.288 71.507C176.301 80.1872 174.587 88.7832 171.245 96.7943C167.903 104.805 163.001 112.071 156.823 118.169C150.793 124.175 143.634 128.93 135.76 132.16C127.885 135.39 119.45 137.031 110.938 136.989C97.9822 137.014 85.3096 133.195 74.5246 126.015C63.7396 118.836 55.3269 108.618 50.3512 96.6549C45.3756 84.6921 44.0606 71.5222 46.5728 58.8117C49.085 46.1013 55.3113 34.4217 64.4639 25.2513C73.6164 16.0809 85.2838 9.83189 97.9893 7.29494C110.695 4.75799 123.867 6.04723 135.84 10.9995C147.812 15.9519 158.047 24.3446 165.247 35.1157C172.448 45.8867 176.292 58.5517 176.292 71.508L176.288 71.507Z" fill="#41594C"/>
<path d="M110.772 116.646C136.009 116.646 156.468 96.187 156.468 70.9499C156.468 45.7127 136.009 25.2539 110.772 25.2539C85.5349 25.2539 65.0762 45.7127 65.0762 70.9499C65.0762 96.187 85.5349 116.646 110.772 116.646Z" fill="#F6F2ED"/>
<path d="M124.324 69.995V71.8539C124.308 71.9301 124.285 72.0064 124.273 72.084C124.173 72.7119 124.118 73.3482 123.97 73.965C123.138 77.4042 121.258 80.1391 118.347 82.1311C115.362 84.1743 112.048 84.8854 108.483 84.3046C105.983 83.9225 103.653 82.8033 101.792 81.09C97.8492 77.4624 96.3016 72.9767 97.5527 67.7521C98.7456 62.7619 101.911 59.4156 106.769 57.712C107.248 57.5429 107.75 57.4347 108.24 57.3044H108.401V70.6756C107.64 70.4926 106.905 70.3124 106.168 70.1419C106.048 70.1141 105.925 70.1089 105.803 70.1267C105.316 70.2071 104.911 70.8392 105.4 71.4824C106.952 73.5242 108.48 75.5827 110.021 77.6343C110.436 78.1888 111.031 78.1888 111.453 77.6343C111.876 77.0798 112.284 76.5253 112.7 75.9792L116.063 71.4768C116.34 71.1026 116.376 70.7837 116.175 70.4746C115.974 70.1655 115.643 70.0491 115.194 70.1586C114.51 70.3249 113.828 70.4996 113.116 70.6784V57.3044H113.285C113.461 57.353 113.637 57.4042 113.814 57.4431C116.254 58.024 118.479 59.2847 120.232 61.079C122.267 63.0976 123.623 65.7004 124.111 68.5256C124.2 69.0163 124.255 69.507 124.324 69.995Z" fill="#41594C"/>
<path d="M110.737 115.499C135.419 115.499 155.428 95.4894 155.428 70.8069C155.428 46.1244 135.419 26.1152 110.737 26.1152C86.054 26.1152 66.0449 46.1244 66.0449 70.8069C66.0449 95.4894 86.054 115.499 110.737 115.499Z" stroke="#002C27" stroke-width="2"/>
<path d="M110.736 97.3832C105.574 97.3832 100.529 95.8527 96.238 92.9854C91.9467 90.118 88.6021 86.0426 86.627 81.2744C84.6519 76.5061 84.1352 71.2593 85.142 66.1974C86.1489 61.1355 88.6342 56.4858 92.2837 52.8364C95.9331 49.1869 100.583 46.7017 105.645 45.6948C110.707 44.6879 115.953 45.2047 120.722 47.1797C125.49 49.1548 129.565 52.4994 132.433 56.7907C135.3 61.082 136.83 66.1272 136.83 71.2883C136.819 78.2055 134.066 84.836 129.175 89.7272C124.283 94.6185 117.653 97.3715 110.736 97.3832ZM110.736 46.8495C105.902 46.8495 101.177 48.2828 97.1581 50.9682C93.1391 53.6535 90.0067 57.4703 88.157 61.9359C86.3073 66.4016 85.8233 71.3154 86.7663 76.056C87.7093 80.7967 90.0369 85.1513 93.4547 88.5691C96.8725 91.9869 101.227 94.3145 105.968 95.2575C110.708 96.2005 115.622 95.7165 120.088 93.8668C124.553 92.0171 128.37 88.8847 131.056 84.8657C133.741 80.8468 135.174 76.1218 135.174 71.2883C135.175 68.0788 134.543 64.9008 133.315 61.9356C132.087 58.9705 130.286 56.2762 128.017 54.0068C125.748 51.7374 123.053 49.9373 120.088 48.7092C117.123 47.4812 113.945 46.8492 110.736 46.8495Z" fill="#002C27"/>
<path d="M110.737 94.5245C110.184 94.5245 109.632 94.5245 109.029 94.4743L109.13 92.8674C109.933 92.9176 110.737 92.9176 111.54 92.9176L111.59 94.5245H110.737ZM113.348 94.4241L113.147 92.8172C113.649 92.767 114.2 92.6665 114.703 92.5661L115.004 94.173C114.45 94.2734 113.898 94.3237 113.346 94.4241H113.348ZM107.376 94.3237L105.72 94.0224L106.072 92.4155C106.574 92.5159 107.076 92.6163 107.627 92.7168L107.376 94.3237ZM116.66 93.7713L116.258 92.2156L117.765 91.7637L118.317 93.3193C117.713 93.47 117.159 93.6206 116.658 93.7713H116.66ZM104.064 93.5704C103.512 93.4198 103.01 93.2189 102.457 93.0181L103.06 91.5116C103.562 91.7125 104.064 91.8631 104.566 92.0138L104.064 93.5704ZM119.822 92.6666L119.169 91.1601C119.671 90.9592 120.122 90.7082 120.575 90.5073L121.328 91.9625C120.84 92.2277 120.336 92.4631 119.82 92.6676L119.822 92.6666ZM100.953 92.3653L99.4462 91.612L100.25 90.206C100.703 90.4702 101.172 90.7051 101.656 90.909L100.953 92.3653ZM122.832 91.1601L121.98 89.7541C122.434 89.4993 122.87 89.2144 123.285 88.9014L124.238 90.207C123.784 90.5595 123.282 90.8608 122.83 91.1621L122.832 91.1601ZM97.9919 90.7082C97.54 90.4069 97.0388 90.0554 96.6371 89.7551L97.6414 88.4495C98.0432 88.7508 98.4941 89.0521 98.8958 89.3533L97.9919 90.7082ZM125.542 89.2017L124.489 87.9473C124.89 87.5958 125.292 87.2443 125.643 86.8938L126.747 88.0477C126.383 88.4709 125.978 88.8583 125.54 89.2047L125.542 89.2017ZM95.3325 88.6493C94.9308 88.2978 94.5291 87.8961 94.1274 87.4954L95.2813 86.3414C95.6328 86.6929 96.0345 87.0947 96.4353 87.4462L95.3325 88.6493ZM128.002 86.8416L126.796 85.7368C127.148 85.3351 127.499 84.9334 127.801 84.5317L129.106 85.536C128.752 85.9929 128.35 86.4449 128 86.8466L128.002 86.8416ZM92.9744 86.239C92.6229 85.7871 92.2714 85.3863 91.9209 84.9334L93.2265 83.9803C93.5278 84.382 93.8793 84.833 94.1796 85.2347L92.9744 86.239ZM130.059 84.1812L128.705 83.2773C129.006 82.8254 129.257 82.3734 129.508 81.9225L130.914 82.7259C130.658 83.2297 130.372 83.7174 130.056 84.1862L130.059 84.1812ZM90.9668 83.5284C90.6655 83.0764 90.4144 82.5753 90.1142 82.0731L91.5694 81.3199C91.8205 81.7718 92.0715 82.2238 92.3728 82.6747L90.9668 83.5284ZM131.715 81.2697L130.259 80.5667C130.49 80.0946 130.692 79.6086 130.862 79.1114L132.368 79.714C132.193 80.2518 131.974 80.7741 131.713 81.2757L131.715 81.2697ZM89.4111 80.5165C89.2103 80.0143 88.9592 79.4629 88.8086 78.9608L90.3642 78.4084C90.5179 78.9045 90.7024 79.3905 90.9166 79.8637L89.4111 80.5165ZM132.97 78.1061L131.414 77.604C131.565 77.1018 131.716 76.5997 131.816 76.0975L133.423 76.449L132.97 78.1061ZM88.3074 77.3529C88.1568 76.8005 88.0563 76.2481 87.9057 75.6968L89.5126 75.3955C89.613 75.8976 89.7134 76.3998 89.8641 76.9019L88.3074 77.3529ZM133.722 74.8421L132.115 74.591C132.216 74.0889 132.266 73.5375 132.316 73.0354L133.923 73.186C133.871 73.6982 133.77 74.3008 133.72 74.8532L133.722 74.8421ZM87.6546 74.0387L87.504 72.3826L89.1108 72.3324C89.1112 72.8545 89.1617 73.3755 89.2615 73.888L87.6546 74.0387ZM133.973 71.4797H132.366V71.3291C132.375 70.8598 132.358 70.3905 132.316 69.923L133.923 69.8226C133.973 70.3247 133.973 70.8269 133.973 71.3291V71.4797ZM89.1088 70.7375L87.502 70.6873C87.502 70.1349 87.5522 69.5826 87.6024 68.98L89.2093 69.1306C89.1581 69.684 89.1581 70.2364 89.1088 70.7375ZM132.115 68.3272C132.065 67.825 131.965 67.2737 131.864 66.7715L133.471 66.42L133.772 68.0761L132.115 68.3272ZM89.4603 67.6242L87.8535 67.3229C87.9539 66.7705 88.0543 66.2181 88.205 65.6668L89.7606 66.0685C89.6602 66.5727 89.5106 67.125 89.4593 67.6262L89.4603 67.6242ZM131.463 65.2661C131.313 64.7639 131.162 64.2617 130.961 63.7596L132.468 63.2072C132.669 63.7094 132.819 64.2607 133.02 64.8141L131.463 65.2661ZM90.2136 64.563L88.6579 64.0609C88.8144 63.5096 89.0159 62.9722 89.2605 62.454L90.767 63.0566C90.5631 63.5617 90.3622 64.0639 90.2136 64.565V64.563ZM130.41 62.3044C130.209 61.8524 129.958 61.3513 129.707 60.8983L131.113 60.0949L131.866 61.6013L130.41 62.3044ZM91.4188 61.6546L89.9635 60.9013C90.2146 60.3992 90.4657 59.897 90.767 59.3949L92.173 60.2475C91.8931 60.7007 91.6413 61.1706 91.4188 61.6546ZM128.905 59.5967C128.604 59.1448 128.303 58.7441 128.002 58.2911L129.307 57.2868C129.653 57.7355 129.972 58.2051 130.26 58.6929L128.905 59.5967ZM93.0256 58.9952L91.6708 58.0421C91.9721 57.5901 92.3236 57.1382 92.6751 56.6873L93.9295 57.6916C93.6282 58.1415 93.2727 58.5432 93.0256 58.9952ZM126.999 57.087C126.648 56.6853 126.296 56.3338 125.946 55.933L127.1 54.7791C127.501 55.1808 127.903 55.5825 128.254 55.9843L126.999 57.087ZM94.983 56.5346L93.7779 55.4299L94.983 54.2247L96.0878 55.4299C95.682 55.7834 95.3305 56.1851 94.979 56.5366L94.983 56.5346ZM124.742 54.8785C124.34 54.527 123.938 54.2257 123.536 53.9254L124.49 52.6198C124.942 52.9713 125.393 53.3228 125.795 53.6733L124.742 54.8785ZM97.2879 54.4326L96.2836 53.1782C96.7356 52.8267 97.1875 52.4752 97.6384 52.1739L98.5423 53.5287C98.093 53.7842 97.6725 54.0872 97.2879 54.4326ZM122.229 53.0266C121.777 52.7253 121.325 52.4742 120.874 52.2231L121.627 50.7679C122.129 51.0222 122.615 51.307 123.083 51.6205L122.229 53.0266ZM99.8469 52.6248L99.0434 51.2188C99.5456 50.9175 100.048 50.6665 100.55 50.4154L101.253 51.8706C100.75 52.1227 100.299 52.3708 99.8469 52.6248ZM119.468 51.5201C119.016 51.3193 118.515 51.1184 118.013 50.9175L118.565 49.3619C119.096 49.549 119.615 49.767 120.121 50.0147L119.468 51.5201ZM102.657 51.269L102.054 49.7626C102.579 49.5484 103.116 49.364 103.661 49.2102L104.163 50.7659C103.647 50.8874 103.143 51.0551 102.657 51.267V51.269ZM116.507 50.4656C116.005 50.3149 115.503 50.2145 115.001 50.1141L115.302 48.5072C115.855 48.6076 116.407 48.7583 116.958 48.9089L116.507 50.4656ZM105.668 50.3149L105.266 48.7081C105.819 48.5574 106.371 48.457 106.922 48.3565L107.173 49.9634C106.671 50.0629 106.17 50.1633 105.668 50.3149ZM113.446 49.863C112.944 49.8128 112.393 49.7626 111.891 49.7124L111.991 48.1055L113.647 48.2561L113.446 49.863ZM108.726 49.8128L108.575 48.2059C109.128 48.1557 109.68 48.1055 110.283 48.1055L110.333 49.7124C109.782 49.7124 109.281 49.7616 108.729 49.8128H108.726Z" fill="#002C27"/>
</svg>
