<svg width="17" height="15" viewBox="0 0 17 15" fill="none" xmlns="http://www.w3.org/2000/svg">
<g clip-path="url(#clip0_104_21736)">
<path d="M0.000425265 7.6839C0.0297654 7.56978 0.0832535 7.46263 0.157571 7.36909C0.231888 7.27555 0.325448 7.19761 0.432481 7.1401C0.537975 7.08758 0.6545 7.05852 0.773344 7.05512C0.892187 7.05173 1.0103 7.07407 1.11888 7.12047C1.22745 7.16687 1.32369 7.23615 1.40042 7.32313C1.47715 7.41011 1.53237 7.51255 1.56201 7.62281C1.5857 7.71962 1.59608 7.81898 1.59288 7.91836C1.59288 8.92322 1.59288 9.92743 1.59288 10.931C1.5821 11.1715 1.62363 11.4116 1.71483 11.6359C1.80604 11.8603 1.94493 12.064 2.1227 12.2343C2.30048 12.4045 2.51327 12.5375 2.74754 12.6249C2.98182 12.7122 3.23249 12.752 3.48367 12.7417H12.5364C12.7877 12.7521 13.0386 12.7122 13.2729 12.6246C13.5073 12.537 13.72 12.4035 13.8976 12.2328C14.0751 12.062 14.2135 11.8577 14.3039 11.6329C14.3944 11.4081 14.435 11.1677 14.423 10.927C14.423 9.91232 14.423 8.89957 14.423 7.88486C14.4126 7.72189 14.4554 7.55987 14.5453 7.42116C14.6352 7.28245 14.7679 7.17391 14.925 7.11054C15.0452 7.06375 15.1755 7.04595 15.3046 7.05868C15.4336 7.07141 15.5574 7.11427 15.665 7.18353C15.7727 7.2528 15.861 7.34632 15.9221 7.4559C15.9832 7.56547 16.0153 7.68774 16.0155 7.81196C16.0258 8.10553 16.0155 8.40307 16.0155 8.69467C16.0155 9.43945 16.0155 10.1842 16.0155 10.927C16.0326 11.6217 15.8175 12.3034 15.4014 12.8726C14.9854 13.4419 14.3903 13.8689 13.7029 14.0913C13.3223 14.2154 12.9219 14.2748 12.5199 14.2667C9.50987 14.2667 6.50191 14.2667 3.49394 14.2667C2.02288 14.2667 0.940666 13.6185 0.302862 12.3417C0.184374 12.0501 0.0914732 11.7496 0.0251134 11.4432C0.0127689 11.3999 0.00247466 11.3565 -0.0078125 11.3132L0.000425265 7.6839Z" fill="#F7F2EC"/>
<path d="M10.1018 5.94907V1.41736C10.1181 1.21392 10.0577 1.01162 9.93167 0.84714C9.80559 0.682665 9.62215 0.566906 9.41459 0.520856C9.32338 0.502079 9.23009 0.494139 9.13685 0.497213C8.3852 0.497213 7.63081 0.497213 6.87367 0.497213C6.74409 0.486651 6.61365 0.503395 6.49154 0.546255C6.36943 0.589115 6.2586 0.657051 6.16683 0.745306C6.07506 0.833561 6.00459 0.939991 5.96036 1.05711C5.91612 1.17423 5.8992 1.2992 5.91078 1.42325C5.91078 2.86814 5.91078 4.31304 5.91078 5.75793V5.95496H5.72973C5.26063 5.95496 4.78948 5.95496 4.32039 5.95496C4.20895 5.94916 4.09783 5.97085 3.99764 6.01795C3.89745 6.06505 3.81155 6.13598 3.74817 6.22395C3.68479 6.31193 3.64605 6.41402 3.63565 6.52044C3.62525 6.62686 3.64354 6.73405 3.68877 6.83176C3.73953 6.9313 3.80931 7.02085 3.89451 7.09578C5.0892 8.24512 6.28661 9.39315 7.48678 10.5399C7.54986 10.6144 7.62952 10.6744 7.71993 10.7157C7.81034 10.757 7.90922 10.7784 8.00938 10.7784C8.10953 10.7784 8.20842 10.757 8.29883 10.7157C8.38924 10.6744 8.46887 10.6144 8.53195 10.5399C9.73143 9.39315 10.9247 8.2425 12.1283 7.09972C12.5583 6.69187 12.3732 6.15199 11.9576 6.00619C11.8491 5.97356 11.7359 5.9576 11.6222 5.9589C11.1778 5.9589 10.7355 5.9589 10.2911 5.9589L10.1018 5.94907Z" fill="#F7F2EC"/>
</g>
<defs>
<clipPath id="clip0_104_21736">
<rect width="16.0274" height="13.7705" fill="white" transform="translate(0 0.5)"/>
</clipPath>
</defs>
</svg>
