<svg xmlns="http://www.w3.org/2000/svg" width="10.989" height="7.056" viewBox="0 0 10.989 7.056">
  <g id="expand" transform="translate(0.25 0.25)">
    <path id="Path" d="M1.1,0a1.083,1.083,0,0,1,.778.328l3.371,3.48L8.612.332A1.093,1.093,0,0,1,10.405.7a1.186,1.186,0,0,1,0,.877,1.1,1.1,0,0,1-.238.365L6.021,6.222a1.07,1.07,0,0,1-1.553,0L.323,1.939a1.093,1.093,0,0,1-.239-.365A1.184,1.184,0,0,1,.084.7,1.093,1.093,0,0,1,.323.332,1.08,1.08,0,0,1,1.1,0Z" fill="#6e7e7c" stroke="#eed5bc" stroke-width="0.5"/>
  </g>
</svg>
