<svg width="8" height="5" viewBox="0 0 8 5" fill="none" xmlns="http://www.w3.org/2000/svg">
<path d="M7.78953 0.209529C7.72324 0.143109 7.64451 0.0904142 7.55784 0.0544604C7.47116 0.0185067 7.37825 -2.71777e-08 7.28441 -3.12793e-08C7.19058 -3.5381e-08 7.09766 0.0185066 7.01099 0.0544604C6.92431 0.0904141 6.84558 0.143109 6.7793 0.209529L3.99938 2.98945L1.21945 0.209529C1.08549 0.0755638 0.903795 0.000303068 0.71434 0.000303059C0.524886 0.000303051 0.343189 0.0755638 0.209224 0.209529C0.0752597 0.343493 4.5388e-07 0.525188 4.45599e-07 0.714643C4.37318e-07 0.904098 0.0752596 1.08579 0.209224 1.21976L3.49784 4.50838C3.56413 4.5748 3.64286 4.62749 3.72953 4.66345C3.81621 4.6994 3.90912 4.7179 4.00296 4.7179C4.09679 4.7179 4.18971 4.6994 4.27638 4.66345C4.36306 4.62749 4.44179 4.5748 4.50807 4.50838L7.79669 1.21976C8.06895 0.947498 8.06895 0.488954 7.78953 0.209529Z" fill="#2D6759"/>
</svg>
