<svg id="download" xmlns="http://www.w3.org/2000/svg" width="9.354" height="9.354" viewBox="0 0 9.354 9.354">
  <path id="Combined_Shape" data-name="Combined Shape" d="M4.389,9.3a.781.781,0,0,1-.255-.17L2.311,7.31a.78.78,0,0,1,1.1-1.105l.483.479V4.03a.781.781,0,0,1,1.562,0V6.664l.477-.5a.781.781,0,0,1,1.1-.013.781.781,0,0,1,.013,1.1L5.243,9.118a.781.781,0,0,1-.553.236H4.684A.778.778,0,0,1,4.389,9.3ZM.525,3.831A.86.86,0,0,1,0,3.015V.86A.859.859,0,0,1,.86,0H8.494a.861.861,0,0,1,.86.86V3.015a.86.86,0,0,1-1.72,0v-1.3H1.719v1.3a.86.86,0,0,1-1.194.816Z" transform="translate(0 0)" fill="#725436"/>
</svg>
