<svg xmlns="http://www.w3.org/2000/svg" width="34.963" height="31.238" viewBox="0 0 34.963 31.238">
  <g id="drive" transform="translate(0)">
    <path id="Path_27295" data-name="Path 27295" d="M2.643,58.547,4.185,61.21a3.637,3.637,0,0,0,1.322,1.322L11.013,53H0a3.628,3.628,0,0,0,.481,1.8Z" transform="translate(0 -31.774)" fill="#0066da"/>
    <path id="Path_27296" data-name="Path 27296" d="M17.481,10.732,11.975,1.2a3.637,3.637,0,0,0-1.322,1.322L.481,20.143A3.628,3.628,0,0,0,0,21.945H11.013Z" transform="translate(0 -0.719)" fill="#00ac47"/>
    <path id="Path_27297" data-name="Path 27297" d="M65.306,62.532a3.637,3.637,0,0,0,1.322-1.322l.641-1.1L70.332,54.8a3.628,3.628,0,0,0,.481-1.8H59.8l2.344,4.606Z" transform="translate(-35.849 -31.774)" fill="#ea4335"/>
    <path id="Path_27298" data-name="Path 27298" d="M35.407,10.012,40.913.481A3.521,3.521,0,0,0,39.111,0H31.7a3.729,3.729,0,0,0-1.8.481Z" transform="translate(-17.925)" fill="#00832d"/>
    <path id="Path_27299" data-name="Path 27299" d="M32.193,53H19.257L13.75,62.532a3.521,3.521,0,0,0,1.8.481H35.9a3.729,3.729,0,0,0,1.8-.481Z" transform="translate(-8.243 -31.774)" fill="#2684fc"/>
    <path id="Path_27300" data-name="Path 27300" d="M55.565,11.332,50.478,2.522A3.636,3.636,0,0,0,49.157,1.2L43.65,10.732l6.468,11.214H61.111a3.628,3.628,0,0,0-.481-1.8Z" transform="translate(-26.169 -0.719)" fill="#ffba00"/>
  </g>
</svg>
