<svg width="12" height="12" viewBox="0 0 12 12" fill="none" xmlns="http://www.w3.org/2000/svg">
<path d="M7.50555 6.29041C7.50555 6.05604 7.78832 5.93376 7.959 6.0968L10.6109 8.62391C10.8326 8.83535 10.8326 9.18945 10.6109 9.39834L7.95645 11.9254C7.78577 12.0885 7.503 11.9662 7.503 11.7318L7.503 10.5167L1.51642 10.5167C1.22091 10.5167 0.981445 10.2772 0.981445 9.98172L0.981445 8.04053C0.981445 7.74503 1.22091 7.50556 1.51642 7.50556L7.50555 7.50556L7.50555 6.29041ZM4.49442 0.268164C4.49442 0.0337952 4.21165 -0.088484 4.04097 0.0745549L1.38904 2.60166C1.16741 2.8131 1.16741 3.16465 1.38904 3.37609L4.04352 5.9032C4.2142 6.06623 4.49697 5.94396 4.49697 5.70959L4.49697 4.49444L10.4836 4.49444C10.7791 4.49444 11.0185 4.25497 11.0185 3.95947L11.0185 2.01828C11.0185 1.72278 10.7791 1.48331 10.4836 1.48331L4.49442 1.48331L4.49442 0.268164Z" fill="#F6F2ED"/>
</svg>
