<svg width="14" height="14" viewBox="0 0 14 14" fill="none" xmlns="http://www.w3.org/2000/svg">
<g clip-path="url(#clip0_3918_4293)">
<path d="M0 3.86907C0.0643181 3.64305 0.147802 3.42295 0.249534 3.21117C0.394893 2.94362 0.610732 2.7211 0.87357 2.56797C1.13641 2.41485 1.43614 2.33694 1.74013 2.34271H6.38272C6.53772 2.34271 6.68638 2.40444 6.79598 2.51425C6.90558 2.62405 6.96716 2.77295 6.96716 2.92824C6.96716 3.08353 6.90558 3.23251 6.79598 3.34232C6.68638 3.45212 6.53772 3.51378 6.38272 3.51378H1.83207C1.74303 3.50186 1.65247 3.51063 1.56738 3.53948C1.48229 3.56832 1.40498 3.61646 1.34146 3.6801C1.27794 3.74374 1.22989 3.82124 1.2011 3.90649C1.1723 3.99174 1.16351 4.08246 1.17541 4.17167V12.2111C1.16211 12.3006 1.16995 12.3919 1.19825 12.4778C1.22655 12.5637 1.27453 12.6418 1.33837 12.7058C1.40221 12.7697 1.48012 12.8179 1.56586 12.8462C1.6516 12.8746 1.74277 12.8823 1.83207 12.869H9.86959C9.95862 12.8809 10.0492 12.8722 10.1343 12.8433C10.2194 12.8145 10.2967 12.7663 10.3602 12.7027C10.4238 12.6391 10.4718 12.5616 10.5006 12.4764C10.5293 12.3911 10.5381 12.3003 10.5262 12.2111V7.63879C10.5209 7.54367 10.5391 7.44869 10.5791 7.36228C10.6192 7.27588 10.6799 7.20071 10.7559 7.14344C10.8319 7.08618 10.9208 7.04856 11.0147 7.03398C11.1087 7.0194 11.2048 7.02829 11.2946 7.05984C11.4172 7.10251 11.5226 7.184 11.5948 7.29201C11.6671 7.40003 11.7023 7.52871 11.6951 7.65855V12.1454C11.7276 12.5674 11.6075 12.987 11.3568 13.3276C11.106 13.6682 10.7413 13.9071 10.3293 14.0006H1.36586L1.26735 13.9611C1.04481 13.9004 0.837209 13.7942 0.657542 13.6493C0.477875 13.5044 0.330002 13.3239 0.223242 13.119C0.132643 12.9056 0.0580378 12.6857 0 12.4611V3.86907Z" fill="#4F5955"/>
<path d="M10.0798 1.87451L12.1351 3.93373L12.0432 4.03243L7.60418 8.47321C7.51291 8.56126 7.39939 8.62261 7.27585 8.65078L5.36495 9.03241C5.31244 9.05169 5.25557 9.05564 5.2009 9.04381C5.14624 9.03198 5.09602 9.00486 5.05613 8.96559C5.01625 8.92632 4.98833 8.87647 4.97557 8.82192C4.96282 8.76736 4.96574 8.7103 4.98407 8.65736C5.1154 7.99947 5.24677 7.34157 5.38466 6.68368C5.40437 6.60354 5.4426 6.5292 5.49629 6.4666L10.0469 1.90736C10.0535 1.89275 10.0652 1.8811 10.0798 1.87451Z" fill="#4F5955"/>
<path d="M10.71 1.2166C11.0317 0.913966 11.3666 0.558687 11.6818 0.295529C11.9641 0.104978 12.3046 0.0204604 12.6431 0.0568492C12.9815 0.093238 13.2963 0.248228 13.5319 0.494455C13.7674 0.740683 13.9086 1.06232 13.9306 1.40267C13.9525 1.74303 13.8538 2.08021 13.6518 2.35474C13.3694 2.68369 12.9951 2.96 12.7128 3.25606L10.71 1.2166Z" fill="#4F5955"/>
</g>
<defs>
<clipPath id="clip0_3918_4293">
<rect width="14" height="14" fill="white"/>
</clipPath>
</defs>
</svg>
