<svg width="14" height="14" viewBox="0 0 14 14" fill="none" xmlns="http://www.w3.org/2000/svg">
<g clip-path="url(#clip0_3921_4979)">
<path d="M0 3.8691C0.0643181 3.64308 0.147802 3.42298 0.249534 3.2112C0.394893 2.94365 0.610732 2.72113 0.87357 2.568C1.13641 2.41488 1.43614 2.33697 1.74013 2.34274H6.38272C6.53772 2.34274 6.68638 2.40447 6.79598 2.51428C6.90558 2.62408 6.96716 2.77298 6.96716 2.92827C6.96716 3.08356 6.90558 3.23254 6.79598 3.34235C6.68638 3.45215 6.53772 3.51381 6.38272 3.51381H1.83207C1.74303 3.50189 1.65247 3.51066 1.56738 3.53951C1.48229 3.56836 1.40498 3.61649 1.34146 3.68013C1.27794 3.74377 1.22989 3.82127 1.2011 3.90652C1.1723 3.99177 1.16351 4.0825 1.17541 4.1717V12.2112C1.16211 12.3006 1.16995 12.392 1.19825 12.4779C1.22655 12.5638 1.27453 12.6418 1.33837 12.7058C1.40221 12.7697 1.48012 12.8179 1.56586 12.8462C1.6516 12.8746 1.74277 12.8824 1.83207 12.8691H9.86959C9.95862 12.881 10.0492 12.8722 10.1343 12.8434C10.2194 12.8145 10.2967 12.7664 10.3602 12.7027C10.4238 12.6391 10.4718 12.5617 10.5006 12.4764C10.5293 12.3912 10.5381 12.3004 10.5262 12.2112V7.63882C10.5209 7.5437 10.5391 7.44872 10.5791 7.36232C10.6192 7.27591 10.6799 7.20074 10.7559 7.14347C10.8319 7.08621 10.9208 7.04859 11.0147 7.03401C11.1087 7.01943 11.2048 7.02832 11.2946 7.05987C11.4172 7.10254 11.5226 7.18403 11.5948 7.29204C11.6671 7.40006 11.7023 7.52874 11.6951 7.65858V12.1454C11.7276 12.5674 11.6075 12.987 11.3568 13.3276C11.106 13.6682 10.7413 13.9071 10.3293 14.0006H1.36586L1.26735 13.9612C1.04481 13.9004 0.837209 13.7942 0.657542 13.6493C0.477875 13.5044 0.330002 13.3239 0.223242 13.1191C0.132643 12.9056 0.0580378 12.6857 0 12.4612V3.8691Z" fill="#F1F1F1"/>
<path d="M10.0798 1.87457L12.1351 3.93379L12.0432 4.03249L7.60418 8.47328C7.51291 8.56132 7.39939 8.62267 7.27585 8.65084L5.36495 9.03247C5.31244 9.05175 5.25557 9.0557 5.2009 9.04387C5.14624 9.03205 5.09602 9.00493 5.05613 8.96565C5.01625 8.92638 4.98833 8.87653 4.97557 8.82198C4.96282 8.76743 4.96574 8.71036 4.98407 8.65742C5.1154 7.99953 5.24677 7.34164 5.38466 6.68374C5.40437 6.6036 5.4426 6.52926 5.49629 6.46666L10.0469 1.90742C10.0535 1.89281 10.0652 1.88117 10.0798 1.87457Z" fill="#F1F1F1"/>
<path d="M10.71 1.21663C11.0317 0.913996 11.3666 0.558717 11.6818 0.295559C11.9641 0.105009 12.3046 0.0204909 12.6431 0.0568797C12.9815 0.0932685 13.2963 0.248258 13.5319 0.494486C13.7674 0.740713 13.9086 1.06235 13.9306 1.4027C13.9525 1.74306 13.8538 2.08024 13.6518 2.35477C13.3694 2.68372 12.9951 2.96003 12.7128 3.25609L10.71 1.21663Z" fill="#F1F1F1"/>
</g>
<defs>
<clipPath id="clip0_3921_4979">
<rect width="14" height="14" fill="white"/>
</clipPath>
</defs>
</svg>
