<svg width="24" height="24" viewBox="0 0 24 24" fill="none" xmlns="http://www.w3.org/2000/svg">
<path fill-rule="evenodd" clip-rule="evenodd" d="M5.70078 19.2H18.3008C18.5395 19.2 18.7684 19.2948 18.9372 19.4636C19.106 19.6324 19.2008 19.8613 19.2008 20.1C19.2008 20.3387 19.106 20.5676 18.9372 20.7364C18.7684 20.9052 18.5395 21 18.3008 21H5.70078C5.46209 21 5.23317 20.9052 5.06439 20.7364C4.8956 20.5676 4.80078 20.3387 4.80078 20.1C4.80078 19.8613 4.8956 19.6324 5.06439 19.4636C5.23317 19.2948 5.46209 19.2 5.70078 19.2ZM4.80078 14.7L13.8008 5.7L16.5008 8.4L7.50078 17.4H4.80078V14.7ZM14.7008 4.8L16.5008 3L19.2008 5.7L17.3999 7.5009L14.7008 4.8Z" fill="#8E8E8E"/>
</svg>
