<svg xmlns="http://www.w3.org/2000/svg" width="20.102" height="21.5" viewBox="0 0 20.102 21.5">
  <g id="icon" transform="translate(-2.25 -1.25)">
    <path id="Path_206432" data-name="Path 206432" d="M6,1.25A3.739,3.739,0,0,0,2.25,5V19A3.745,3.745,0,0,0,6,22.75H16A3.751,3.751,0,0,0,19.75,19V5A3.745,3.745,0,0,0,16,1.25Z" fill="#2c6759"/>
    <path id="Path_206433" data-name="Path 206433" d="M20.49,13.77a1.787,1.787,0,0,0-2.53,0l-1.47,1.46a.737.737,0,0,0,0,1.06l2.19,2.19a.74.74,0,0,0,.53.21.786.786,0,0,0,.53-.22L21.2,17a1.8,1.8,0,0,0,0-2.53l-.74-.74Z" fill="#2F4F4F" stroke="#F9F4F0" stroke-width="1"/>
    <g id="Group_54467" data-name="Group 54467">
      <path id="Path_206434" data-name="Path 206434" d="M6.25,7A.743.743,0,0,1,7,6.25h8a.75.75,0,0,1,0,1.5H7A.749.749,0,0,1,6.25,7Z" fill="#F6F2ED" fill-rule="evenodd"/>
      <path id="Path_206435" data-name="Path 206435" d="M6.25,12A.743.743,0,0,1,7,11.25h8a.75.75,0,0,1,0,1.5H7A.749.749,0,0,1,6.25,12Z" fill="#F6F2ED" fill-rule="evenodd"/>
      <path id="Path_206436" data-name="Path 206436" d="M6.25,17A.743.743,0,0,1,7,16.25h4a.75.75,0,0,1,0,1.5H7A.749.749,0,0,1,6.25,17Z" fill="#F6F2ED" fill-rule="evenodd"/>
    </g>
    <path id="Path_206437" data-name="Path 206437" d="M17.56,15.23a.749.749,0,0,0-1.07,0l-3.67,3.66a.747.747,0,0,0-.22.42l-.37,2.56a.715.715,0,0,0,.21.63.764.764,0,0,0,.63.21l2.56-.37a.781.781,0,0,0,.42-.22l3.66-3.67a.781.781,0,0,0,.21-.54.791.791,0,0,0-.22-.54l-2.2-2.2Z" fill="#F9F4F0"/>
  </g>
</svg>
