<svg width="25" height="25" viewBox="0 0 25 25" fill="none" xmlns="http://www.w3.org/2000/svg">
<path fill-rule="evenodd" clip-rule="evenodd" d="M6.3198 20.0086H18.9198C19.1585 20.0086 19.3874 20.1034 19.5562 20.2722C19.725 20.441 19.8198 20.6699 19.8198 20.9086C19.8198 21.1473 19.725 21.3762 19.5562 21.545C19.3874 21.7138 19.1585 21.8086 18.9198 21.8086H6.3198C6.0811 21.8086 5.85219 21.7138 5.6834 21.545C5.51462 21.3762 5.4198 21.1473 5.4198 20.9086C5.4198 20.6699 5.51462 20.441 5.6834 20.2722C5.85219 20.1034 6.0811 20.0086 6.3198 20.0086ZM5.4198 15.5086L14.4198 6.50859L17.1198 9.20859L8.1198 18.2086H5.4198V15.5086ZM15.3198 5.60859L17.1198 3.80859L19.8198 6.50859L18.0189 8.30949L15.3198 5.60859Z" fill="#8E8E8E"/>
</svg>
