<svg xmlns="http://www.w3.org/2000/svg" width="266.061" height="225.358" viewBox="0 0 266.061 225.358">
  <g id="illustration" transform="translate(-51.999 -369)">
    <g id="background" transform="translate(0.063 146.001)">
      <circle id="Ellipse_1999" data-name="Ellipse 1999" cx="100.777" cy="100.777" r="100.777" transform="translate(83.279 222.999)" fill="#073b36" opacity="0.26"/>
      <path id="Path_25534" data-name="Path 25534" d="M122.53,21.4a5.9,5.9,0,1,0-5.9-5.9A5.9,5.9,0,0,0,122.53,21.4Z" transform="translate(189.572 307.115)" fill="#073b36" opacity="0.2"/>
      <g id="Group_41131" data-name="Group 41131" transform="translate(57.255 62.5)">
        <g id="Group_40642" data-name="Group 40642" transform="translate(47.898 362.053)">
          <g id="Group_40641" data-name="Group 40641">
            <rect id="Rectangle_7701" data-name="Rectangle 7701" width="1.822" height="3.536" fill="#508b82"/>
          </g>
        </g>
        <g id="Group_40644" data-name="Group 40644" transform="translate(47.898 371.796)">
          <g id="Group_40643" data-name="Group 40643" transform="translate(0 0)">
            <rect id="Rectangle_7702" data-name="Rectangle 7702" width="1.822" height="3.536" fill="#508b82"/>
          </g>
        </g>
        <g id="Group_40646" data-name="Group 40646" transform="translate(51.913 367.782)">
          <g id="Group_40645" data-name="Group 40645">
            <rect id="Rectangle_7703" data-name="Rectangle 7703" width="3.536" height="1.822" fill="#508b82"/>
          </g>
        </g>
        <g id="Group_40648" data-name="Group 40648" transform="translate(42.17 367.782)">
          <g id="Group_40647" data-name="Group 40647">
            <rect id="Rectangle_7704" data-name="Rectangle 7704" width="3.536" height="1.822" fill="#508b82"/>
          </g>
        </g>
      </g>
      <g id="Group_40650" data-name="Group 40650" transform="translate(51.937 266.141)">
        <g id="Group_40649" data-name="Group 40649">
          <circle id="Ellipse_2034" data-name="Ellipse 2034" cx="3.612" cy="3.612" r="3.612" fill="#508b82"/>
        </g>
      </g>
      <g id="Group_40652" data-name="Group 40652" transform="translate(65.527 320.894)">
        <g id="Group_40651" data-name="Group 40651">
          <circle id="Ellipse_2035" data-name="Ellipse 2035" cx="2.865" cy="2.865" r="2.865" fill="#508b82"/>
        </g>
      </g>
      <g id="Group_41157" data-name="Group 41157" transform="translate(274.527 239.751)">
        <g id="Group_40651-2" data-name="Group 40651">
          <circle id="Ellipse_2035-2" data-name="Ellipse 2035" cx="2.865" cy="2.865" r="2.865" fill="#508b82"/>
        </g>
      </g>
    </g>
    <g id="Group_54256" data-name="Group 54256" transform="translate(0 9)">
      <g id="Group_50372" data-name="Group 50372" transform="translate(124.834 412.103)">
        <g id="Group_50371" data-name="Group 50371">
          <g id="Group_50370" data-name="Group 50370">
            <path id="Path_205444" data-name="Path 205444" d="M223.672,181.222a3.376,3.376,0,0,1-.031.46l2.166.287a5.714,5.714,0,0,0,.049-.747v-1.58h-2.185Zm-1.856,3.144,1.084,1.9a5.955,5.955,0,0,0,1.954-1.8l-1.8-1.232A3.766,3.766,0,0,1,221.816,184.366Zm1.856-11.28h2.185V170.9h-2.185Zm0,4.37h2.185v-2.185h-2.185Zm-9.07,12.379,1.657,1.424a18,18,0,0,1,1.43-1.482l-1.485-1.6A20.391,20.391,0,0,0,214.6,189.836Zm3.371-3.132,1.306,1.752c.546-.407,1.126-.8,1.724-1.155l-1.126-1.872C219.218,185.824,218.576,186.253,217.973,186.7Zm-15.854,13.039H204.3v-2.185h-2.185Zm5.842-2.186H206.49v2.185h1.471a5.7,5.7,0,0,0,.876-.067l-.33-2.16A3.645,3.645,0,0,1,207.961,197.557Zm4.067-3.882,1.949.989a16.8,16.8,0,0,1,1.038-1.769l-1.814-1.219A19.05,19.05,0,0,0,212.029,193.675Zm-1.977,3.223,1.259,1.786a5.7,5.7,0,0,0,1.766-2.015l-1.938-1.01A3.515,3.515,0,0,1,210.052,196.9ZM239.123,125.4h2.185v-2.185h-2.185Zm-4.37,0h2.185v-2.185h-2.185Zm-4.371,0h2.185v-2.185h-2.185Zm13.112-2.185V125.4h2.185v-2.185Zm-17.951,1.253,1.413,1.666a3.09,3.09,0,0,1,1.441-.683l-.391-2.15A5.26,5.26,0,0,0,225.542,124.472Zm-1.87,39.873h2.185V162.16h-2.185Zm0-4.371h2.185v-2.185h-2.185Zm0,8.741h2.185V166.53h-2.185Zm0-13.112h2.185v-2.185h-2.185Zm0-27.1v.728h2.185v-.728a3.1,3.1,0,0,1,.184-1.057l-2.056-.743A5.293,5.293,0,0,0,223.672,128.505Z" transform="translate(-202.119 -145.219)" fill="#f2ede6"/>
            <path id="Path_206374" data-name="Path 206374" d="M223.672,173.086h2.185V170.9h-2.185Zm0-8.741h2.185V162.16h-2.185Zm0-4.371h2.185v-2.185h-2.185Zm0,8.741h2.185V166.53h-2.185Zm0-13.112h2.185v-2.185h-2.185Z" transform="translate(-202.119 -167.219)" fill="#f2ede6"/>
            <path id="Path_206375" data-name="Path 206375" d="M239.123,125.4h2.185v-2.185h-2.185Zm-4.37,0h2.185v-2.185h-2.185Zm-4.371,0h2.185v-2.185h-2.185Zm13.112-2.185V125.4h2.185v-2.185Z" transform="translate(-184.119 -145.219)" fill="#f2ede6"/>
          </g>
        </g>
      </g>
      <g id="Group_54251" data-name="Group 54251" transform="translate(-8.934 16)">
        <g id="Group_50381" data-name="Group 50381" transform="translate(68.635 452.353)">
          <g id="Group_50380" data-name="Group 50380">
            <path id="Path_205448" data-name="Path 205448" d="M73.821,249.178H72.278v1.59h1.543c6.275,0,16.8,2.872,16.8,22.108v23.169H37.518V272.876c0-19.236,10.528-22.108,16.8-22.108h1.543v-1.59H54.321c-11.689,0-18.393,8.638-18.393,23.7V296.84a.8.8,0,0,0,.8.8h54.7a.8.8,0,0,0,.795-.8V272.876C92.214,257.816,85.511,249.178,73.821,249.178Z" transform="translate(-35.928 -249.178)" fill="#f2ede6"/>
          </g>
        </g>
        <g id="Group_50383" data-name="Group 50383" transform="translate(93.837 467.875)">
          <g id="Group_50382" data-name="Group 50382">
            <path id="Path_205449" data-name="Path 205449" d="M105.506,290.306l-2.8,14.46,3.025,5.477,2.99-5.071Z" transform="translate(-102.704 -290.306)" fill="#508b82"/>
          </g>
        </g>
        <g id="Group_50385" data-name="Group 50385" transform="translate(86.233 452.353)">
          <g id="Group_50384" data-name="Group 50384">
            <path id="Path_205450" data-name="Path 205450" d="M99.765,279.97l-4.749-22.728a.8.8,0,0,0-.778-.633H91.485l-7.338-2.374v-3.467h9.516v-1.59H83.351a.8.8,0,0,0-.8.8v4.84a.8.8,0,0,0,.55.756l8.008,2.591a.782.782,0,0,0,.245.039h2.232L98.147,280l-5.022,8.848-4.917-9.275L91.95,259.71l-1.563-.294-3.793,20.138a.8.8,0,0,0,.079.519l5.726,10.8a.8.8,0,0,0,.691.423H93.1a.8.8,0,0,0,.691-.4l5.885-10.37A.792.792,0,0,0,99.765,279.97Z" transform="translate(-82.556 -249.178)" fill="#b2d0cb"/>
          </g>
        </g>
        <g id="Group_50387" data-name="Group 50387" transform="translate(101.866 448.157)">
          <g id="Group_50386" data-name="Group 50386">
            <rect id="Rectangle_9521" data-name="Rectangle 9521" width="1.59" height="4.992" fill="#b2d0cb"/>
          </g>
        </g>
        <g id="Group_50389" data-name="Group 50389" transform="translate(89.219 448.097)">
          <g id="Group_50388" data-name="Group 50388">
            <rect id="Rectangle_9522" data-name="Rectangle 9522" width="1.59" height="5.052" fill="#b2d0cb"/>
          </g>
        </g>
        <g id="Group_50392" data-name="Group 50392" transform="translate(83.982 425.539)">
          <g id="Group_50391" data-name="Group 50391">
            <g id="Group_50390" data-name="Group 50390">
              <path id="Path_205451" data-name="Path 205451" d="M100.923,184.416c-1.981-.693-7.217-3.054-7.641-5.619A.8.8,0,0,0,92,178.309a26.8,26.8,0,0,1-14.644,4.868.8.8,0,0,0-.762.794v8.947a9.186,9.186,0,0,0,9.175,9.175h6.514a9.186,9.186,0,0,0,9.175-9.175v-7.753A.794.794,0,0,0,100.923,184.416Zm-1.058,8.5a7.594,7.594,0,0,1-7.585,7.585H85.767a7.594,7.594,0,0,1-7.585-7.585v-8.194A28.83,28.83,0,0,0,92.093,180.2c1.435,2.873,6.1,4.878,7.773,5.522Z" transform="translate(-76.591 -178.132)" fill="#f2ede6"/>
            </g>
          </g>
        </g>
        <g id="Group_50394" data-name="Group 50394" transform="translate(87.427 430.09)">
          <g id="Group_50393" data-name="Group 50393">
            <path id="Path_205452" data-name="Path 205452" d="M101.183,193.209a15.093,15.093,0,0,1-3.925-3.018,31.279,31.279,0,0,1-11.537,3.73v6.506a5.737,5.737,0,0,0,5.73,5.73h6.514a5.736,5.736,0,0,0,5.73-5.73v-5.966C102.966,194.14,102.082,193.717,101.183,193.209Z" transform="translate(-85.721 -190.191)" fill="#508b82"/>
          </g>
        </g>
        <g id="Group_50397" data-name="Group 50397" transform="translate(82.664 415.828)">
          <g id="Group_50396" data-name="Group 50396">
            <g id="Group_50395" data-name="Group 50395">
              <path id="Path_205453" data-name="Path 205453" d="M93.5,155.472a4.408,4.408,0,0,0-2.972-2.628,21.169,21.169,0,0,0-10.865.638C73,155.7,73.053,161.169,73.108,166.46c.005.5.011,1.013.011,1.523a.8.8,0,0,0,.8.8,28.175,28.175,0,0,0,16.913-5.257.8.8,0,0,0,.18-.209l2.171-3.639A4.743,4.743,0,0,0,93.5,155.472Zm-1.686,3.386-2.094,3.51a27.223,27.223,0,0,1-15.014,4.809q0-.368-.007-.734c-.055-5.365-.1-9.6,5.466-11.453a21.123,21.123,0,0,1,6.43-1.006,14.143,14.143,0,0,1,3.527.4,2.831,2.831,0,0,1,1.906,1.691A3.146,3.146,0,0,1,91.813,158.858Z" transform="translate(-73.098 -152.401)" fill="#f2ede6"/>
            </g>
          </g>
        </g>
        <g id="Group_50399" data-name="Group 50399" transform="translate(86.113 419.27)">
          <g id="Group_50398" data-name="Group 50398">
            <path id="Path_205454" data-name="Path 205454" d="M96,162.452a.971.971,0,0,0-.661-.6,12.328,12.328,0,0,0-3.05-.332,19.3,19.3,0,0,0-5.848.907c-3.635,1.209-4.191,3.354-4.2,8.455A25.448,25.448,0,0,0,94.01,166.77l1.9-3.185A1.28,1.28,0,0,0,96,162.452Z" transform="translate(-82.237 -161.522)" fill="#508b82"/>
          </g>
        </g>
        <g id="Group_50402" data-name="Group 50402" transform="translate(99.094 418.39)">
          <g id="Group_50401" data-name="Group 50401">
            <g id="Group_50400" data-name="Group 50400">
              <path id="Path_205455" data-name="Path 205455" d="M126.628,160.043a4.562,4.562,0,0,0-3.774-.743c-2.139.4-3.53,2.973-3.735,3.372l-2.378,4.058a.8.8,0,0,0-.1.526c.662,4.2,9.2,7.06,10.168,7.372a.781.781,0,0,0,.243.038.794.794,0,0,0,.795-.795V162.958A3.588,3.588,0,0,0,126.628,160.043Zm-.369,12.706c-2.632-.991-7.317-3.185-7.987-5.483l2.232-3.81.023-.043c.32-.632,1.416-2.323,2.622-2.55a3.058,3.058,0,0,1,2.464.406,2.08,2.08,0,0,1,.645,1.69v9.791Z" transform="translate(-116.633 -159.191)" fill="#f2ede6"/>
            </g>
          </g>
        </g>
        <g id="Group_50404" data-name="Group 50404" transform="translate(102.853 421.836)">
          <g id="Group_50403" data-name="Group 50403">
            <path id="Path_205456" data-name="Path 205456" d="M130.582,168.368a1.443,1.443,0,0,0-.4-.047,2.827,2.827,0,0,0-.462.041,4.161,4.161,0,0,0-1.335,1.567l-.038.075-1.755,3a14.027,14.027,0,0,0,4.012,2.642v-7A1.4,1.4,0,0,0,130.582,168.368Z" transform="translate(-126.592 -168.321)" fill="#508b82"/>
          </g>
        </g>
      </g>
      <g id="Group_50406" data-name="Group 50406" transform="translate(154.908 420.927)">
        <g id="Group_50405" data-name="Group 50405">
          <path id="Path_205457" data-name="Path 205457" d="M261.194,139.232a1.093,1.093,0,0,0-1.092,1.093v58.337h2.185V141.418h50.959v-2.185H261.194Z" transform="translate(-260.102 -162.232)" fill="#f2ede6"/>
        </g>
      </g>
      <g id="Group_50408" data-name="Group 50408" transform="translate(123.949 472.274)">
        <g id="Group_50407" data-name="Group 50407">
          <rect id="Rectangle_9523" data-name="Rectangle 9523" width="16.039" height="2.185" fill="#f2ede6"/>
        </g>
      </g>
      <g id="Group_50410" data-name="Group 50410" transform="translate(123.949 472.274)">
        <g id="Group_50409" data-name="Group 50409">
          <rect id="Rectangle_9524" data-name="Rectangle 9524" width="16.039" height="2.185" fill="#f2ede6"/>
        </g>
      </g>
      <g id="Group_50412" data-name="Group 50412" transform="translate(154.907 489.378)">
        <g id="Group_50411" data-name="Group 50411">
          <path id="Path_205458" data-name="Path 205458" d="M262.286,351.448V294.205H260.1v58.336a1.093,1.093,0,0,0,1.092,1.093h52.051v-2.185Z" transform="translate(-260.101 -294.205)" fill="#f2ede6"/>
        </g>
      </g>
      <g id="Group_50419" data-name="Group 50419" transform="translate(139.989 457.356)">
        <g id="Group_50418" data-name="Group 50418">
          <g id="Group_50417" data-name="Group 50417">
            <path id="Path_205461" data-name="Path 205461" d="M247.35,232.467a16.011,16.011,0,1,0,16.011,16.01A16.01,16.01,0,0,0,247.35,232.467Z" transform="translate(-231.339 -232.467)" fill="#b2d0cb"/>
          </g>
        </g>
      </g>
      <g id="Group_50422" data-name="Group 50422" transform="translate(142.529 459.89)">
        <g id="Group_50421" data-name="Group 50421">
          <g id="Group_50420" data-name="Group 50420">
            <path id="Path_205462" data-name="Path 205462" d="M238.659,248.481l-2.139-.451a13.545,13.545,0,0,0-.284,2.356l2.184.071A11.465,11.465,0,0,1,238.659,248.481Zm1.492-3.669-1.848-1.167a13.515,13.515,0,0,0-1.086,2.113l2.024.822A11.244,11.244,0,0,1,240.151,244.812Zm-1.62,7.633-2.164.31a13.487,13.487,0,0,0,.544,2.313l2.075-.687A11.157,11.157,0,0,1,238.531,252.445Zm1.243,3.76-1.921,1.043a13.529,13.529,0,0,0,1.311,1.978l1.709-1.362A11.292,11.292,0,0,1,239.773,256.205Zm20.043-10.417,1.955-.978a13.489,13.489,0,0,0-1.245-2.021l-1.753,1.3A11.42,11.42,0,0,1,259.816,245.788Zm1.117,3.8,2.172-.238a13.49,13.49,0,0,0-.465-2.329l-2.1.616A11.2,11.2,0,0,1,260.933,249.588Zm-18.112-7.708-1.333-1.731a13.593,13.593,0,0,0-1.746,1.608l1.616,1.471A11.245,11.245,0,0,1,242.822,241.88ZM240.8,260.945a13.564,13.564,0,0,0,1.911,1.408l1.137-1.867a11.406,11.406,0,0,1-1.6-1.18Zm18.148-19.926a13.429,13.429,0,0,0-1.865-1.471l-1.2,1.828a11.339,11.339,0,0,1,1.562,1.232Zm-5.513,20.476.721,2.063a13.451,13.451,0,0,0,2.163-.979l-1.074-1.9A11.078,11.078,0,0,1,253.435,261.495Zm-7.748-23.53a13.386,13.386,0,0,0-2.2.906l1.01,1.938a11.216,11.216,0,0,1,1.837-.758Zm11.2,21.585,1.39,1.686a13.573,13.573,0,0,0,1.692-1.664l-1.663-1.417A11.381,11.381,0,0,1,256.886,259.549Zm-1.9-21.122a13.41,13.41,0,0,0-2.261-.734l-.488,2.13a11.257,11.257,0,0,1,1.892.615Zm6.011,12.4a11.437,11.437,0,0,1-.174,1.983l2.152.38a13.7,13.7,0,0,0,.206-2.363Zm-1.541,5.7,1.885,1.105a13.4,13.4,0,0,0,1.016-2.149l-2.051-.754A11.3,11.3,0,0,1,259.46,256.531ZM244.841,263.4a13.388,13.388,0,0,0,2.286.659l.415-2.145a11.167,11.167,0,0,1-1.91-.551Zm4.867-1.279-.192,0-.023,2.185.215,0a13.709,13.709,0,0,0,2.144-.169l-.344-2.158A11.451,11.451,0,0,1,249.708,262.124Zm.668-24.755a13.792,13.792,0,0,0-2.37.09l.273,2.168a11.42,11.42,0,0,1,1.99-.076Z" transform="translate(-236.237 -237.353)" fill="#508b82"/>
          </g>
        </g>
      </g>
      <g id="Group_50424" data-name="Group 50424" transform="translate(199.522 392.395)">
        <g id="Group_50423" data-name="Group 50423">
          <path id="Path_205463" data-name="Path 205463" d="M316.74,157.415l-7.878-5.848-1.3,1.754,6.675,4.955-6.66,4.775,1.273,1.775,7.878-5.647a1.092,1.092,0,0,0,.015-1.765Z" transform="translate(-307.559 -151.567)" fill="#f2ede6"/>
        </g>
      </g>
      <g id="Group_50426" data-name="Group 50426" transform="translate(199.522 541.091)">
        <g id="Group_50425" data-name="Group 50425">
          <path id="Path_205464" data-name="Path 205464" d="M316.74,355.414l-7.878-5.849-1.3,1.754,6.675,4.956-6.66,4.775,1.273,1.775,7.878-5.647a1.092,1.092,0,0,0,.015-1.765Z" transform="translate(-307.559 -349.565)" fill="#f2ede6"/>
        </g>
      </g>
      <g id="Group_54252" data-name="Group 54252" transform="translate(-48)">
        <g id="Group_50428" data-name="Group 50428" transform="translate(257.774 403.909)">
          <g id="Group_50427" data-name="Group 50427">
            <path id="Path_205465" data-name="Path 205465" d="M380.323,187.263H378.8v2.185h1.52c6.053,0,16.209,2.783,16.209,21.428v6.187l-51.6.172v-6.359a33.51,33.51,0,0,1,1.525-10.6c1.58-5.134,5.272-8.949,9.888-10.208a17.551,17.551,0,0,1,4.8-.62h1.519v-2.185h-1.519a19.723,19.723,0,0,0-5.382.7,16.85,16.85,0,0,0-11.382,11.644,35.636,35.636,0,0,0-1.631,11.269v7.455a1.093,1.093,0,0,0,1.093,1.092h0l53.782-.179a1.093,1.093,0,0,0,1.089-1.093v-7.275C398.717,195.869,392.013,187.263,380.323,187.263Z" transform="translate(-342.749 -187.262)" fill="#508b82"/>
          </g>
        </g>
        <g id="Group_50430" data-name="Group 50430" transform="translate(275.077 403.91)">
          <g id="Group_50429" data-name="Group 50429">
            <path id="Path_205466" data-name="Path 205466" d="M393.638,214.1l-4.674-18.7a1.093,1.093,0,0,0-1.06-.828h-2.656l-6.955-2.25v-2.872h9.05v-2.185H377.2a1.093,1.093,0,0,0-1.092,1.093v4.76a1.092,1.092,0,0,0,.756,1.039l7.875,2.547a1.093,1.093,0,0,0,.337.053h1.975l4.349,17.4-2.323,3.461,1.814,1.218,2.594-3.863A1.092,1.092,0,0,0,393.638,214.1Z" transform="translate(-376.108 -187.263)" fill="#508b82"/>
          </g>
        </g>
        <g id="Group_50432" data-name="Group 50432" transform="translate(279.034 414.189)">
          <g id="Group_50431" data-name="Group 50431">
            <path id="Path_205467" data-name="Path 205467" d="M389.626,207.574l-2.13-.492-3.731,16.148a1.094,1.094,0,0,0,.136.822l2.68,4.316,1.857-1.152L386,223.283Z" transform="translate(-383.737 -207.082)" fill="#508b82"/>
          </g>
        </g>
        <g id="Group_50434" data-name="Group 50434" transform="translate(290.45 400.742)">
          <g id="Group_50433" data-name="Group 50433">
            <rect id="Rectangle_9525" data-name="Rectangle 9525" width="2.185" height="4.264" fill="#508b82"/>
          </g>
        </g>
        <g id="Group_50436" data-name="Group 50436" transform="translate(278.015 400.639)">
          <g id="Group_50435" data-name="Group 50435">
            <rect id="Rectangle_9526" data-name="Rectangle 9526" width="2.185" height="4.368" fill="#508b82"/>
          </g>
        </g>
        <g id="Group_50439" data-name="Group 50439" transform="translate(272.865 377.547)">
          <g id="Group_50438" data-name="Group 50438">
            <g id="Group_50437" data-name="Group 50437">
              <path id="Path_205468" data-name="Path 205468" d="M396.183,142.633c-2.642-.926-6.962-3.18-7.31-5.283a1.093,1.093,0,0,0-1.766-.67A26.065,26.065,0,0,1,372.89,141.4a1.093,1.093,0,0,0-1.046,1.092v8.8a9.343,9.343,0,0,0,9.332,9.333h6.406a9.343,9.343,0,0,0,9.332-9.333v-7.623A1.093,1.093,0,0,0,396.183,142.633Zm-1.454,8.654a7.156,7.156,0,0,1-7.147,7.148h-6.406a7.156,7.156,0,0,1-7.147-7.148v-7.768a28.812,28.812,0,0,0,13.259-4.3c1.567,2.655,5.688,4.508,7.441,5.2Z" transform="translate(-371.844 -136.436)" fill="#508b82"/>
            </g>
          </g>
        </g>
        <g id="Group_50441" data-name="Group 50441" transform="translate(277.853 383.924)">
          <g id="Group_50440" data-name="Group 50440">
            <path id="Path_205469" data-name="Path 205469" d="M391.27,148.731a32.268,32.268,0,0,1-9.811,3.2v5.276a4.35,4.35,0,0,0,4.345,4.345h6.406a4.35,4.35,0,0,0,4.345-4.345V152.19A20.207,20.207,0,0,1,391.27,148.731Z" transform="translate(-381.459 -148.731)" fill="#f2ede6"/>
          </g>
        </g>
        <g id="Group_50444" data-name="Group 50444" transform="translate(271.568 368)">
          <g id="Group_50443" data-name="Group 50443">
            <g id="Group_50442" data-name="Group 50442">
              <path id="Path_205470" data-name="Path 205470" d="M390,121.241a4.641,4.641,0,0,0-3.131-2.768,21.186,21.186,0,0,0-10.861.633c-6.768,2.252-6.712,7.746-6.657,13.059.005.494.01.994.01,1.495a1.093,1.093,0,0,0,1.093,1.092,28.043,28.043,0,0,0,16.826-5.239,1.117,1.117,0,0,0,.248-.287l2.135-3.579A4.975,4.975,0,0,0,390,121.241Zm-2.213,3.286-2.027,3.4a26.489,26.489,0,0,1-14.219,4.619c0-.135,0-.27,0-.4-.052-5.149-.094-9.215,5.162-10.964a20.461,20.461,0,0,1,6.222-.975,13.6,13.6,0,0,1,3.391.381,2.445,2.445,0,0,1,1.665,1.48A2.781,2.781,0,0,1,387.789,124.527Z" transform="translate(-369.344 -118.029)" fill="#508b82"/>
            </g>
          </g>
        </g>
        <g id="Group_50447" data-name="Group 50447" transform="translate(287.725 370.518)">
          <g id="Group_50446" data-name="Group 50446">
            <g id="Group_50445" data-name="Group 50445">
              <path id="Path_205471" data-name="Path 205471" d="M410.829,123.792a4.791,4.791,0,0,0-3.967-.8c-2.231.421-3.661,3.033-3.887,3.471l-2.333,3.983a1.087,1.087,0,0,0-.136.722c.68,4.316,9.237,7.184,10.21,7.5a1.074,1.074,0,0,0,.335.053,1.093,1.093,0,0,0,1.092-1.093V126.9A3.829,3.829,0,0,0,410.829,123.792Zm-.872,12.289c-2.925-1.131-6.54-3.061-7.2-4.91l2.125-3.627c.011-.019.023-.039.033-.058.276-.545,1.3-2.144,2.358-2.343a2.7,2.7,0,0,1,2.167.333,1.734,1.734,0,0,1,.522,1.422v9.183Z" transform="translate(-400.492 -122.883)" fill="#508b82"/>
            </g>
          </g>
        </g>
      </g>
      <g id="Group_54253" data-name="Group 54253" transform="translate(-50)">
        <g id="Group_50453" data-name="Group 50453" transform="translate(257.774 538.962)">
          <g id="Group_50452" data-name="Group 50452">
            <path id="Path_205474" data-name="Path 205474" d="M380.323,331.964H378.8v2.185h1.52c6.053,0,16.209,2.784,16.209,21.428v6.187l-51.6.172v-6.359a33.51,33.51,0,0,1,1.525-10.6c1.58-5.134,5.272-8.949,9.888-10.208a17.6,17.6,0,0,1,4.8-.62h1.519v-2.185h-1.519a19.744,19.744,0,0,0-5.382.7,16.85,16.85,0,0,0-11.382,11.644,35.637,35.637,0,0,0-1.631,11.269v7.455a1.094,1.094,0,0,0,1.093,1.093h0l53.782-.18a1.093,1.093,0,0,0,1.089-1.093v-7.275C398.717,340.571,392.013,331.964,380.323,331.964Z" transform="translate(-342.749 -331.964)" fill="#b2d0cb"/>
          </g>
        </g>
        <g id="Group_50455" data-name="Group 50455" transform="translate(275.077 538.962)">
          <g id="Group_50454" data-name="Group 50454">
            <path id="Path_205475" data-name="Path 205475" d="M393.638,358.8l-4.674-18.7a1.093,1.093,0,0,0-1.06-.828h-2.656l-6.955-2.25v-2.872h9.05v-2.185H377.2a1.093,1.093,0,0,0-1.092,1.092v4.76a1.092,1.092,0,0,0,.756,1.039l7.875,2.547a1.077,1.077,0,0,0,.337.053h1.975l4.349,17.4-2.323,3.461,1.814,1.218,2.594-3.864A1.089,1.089,0,0,0,393.638,358.8Z" transform="translate(-376.108 -331.964)" fill="#b2d0cb"/>
          </g>
        </g>
        <g id="Group_50457" data-name="Group 50457" transform="translate(279.034 549.243)">
          <g id="Group_50456" data-name="Group 50456">
            <path id="Path_205476" data-name="Path 205476" d="M389.626,352.277l-2.13-.492-3.731,16.148a1.094,1.094,0,0,0,.136.822l2.68,4.315,1.857-1.152L386,367.985Z" transform="translate(-383.737 -351.785)" fill="#b2d0cb"/>
          </g>
        </g>
        <g id="Group_50459" data-name="Group 50459" transform="translate(290.45 535.795)">
          <g id="Group_50458" data-name="Group 50458">
            <rect id="Rectangle_9527" data-name="Rectangle 9527" width="2.185" height="4.263" fill="#b2d0cb"/>
          </g>
        </g>
        <g id="Group_50461" data-name="Group 50461" transform="translate(278.015 535.69)">
          <g id="Group_50460" data-name="Group 50460">
            <rect id="Rectangle_9528" data-name="Rectangle 9528" width="2.185" height="4.368" fill="#b2d0cb"/>
          </g>
        </g>
        <g id="Group_50464" data-name="Group 50464" transform="translate(272.865 512.599)">
          <g id="Group_50463" data-name="Group 50463">
            <g id="Group_50462" data-name="Group 50462">
              <path id="Path_205477" data-name="Path 205477" d="M396.183,287.333c-2.642-.926-6.962-3.18-7.31-5.283a1.093,1.093,0,0,0-1.766-.67A26.063,26.063,0,0,1,372.89,286.1a1.093,1.093,0,0,0-1.046,1.092v8.8a9.343,9.343,0,0,0,9.332,9.332h6.406a9.343,9.343,0,0,0,9.332-9.332v-7.623A1.1,1.1,0,0,0,396.183,287.333Zm-1.454,8.655a7.155,7.155,0,0,1-7.147,7.147h-6.406a7.155,7.155,0,0,1-7.147-7.147V288.22a28.805,28.805,0,0,0,13.259-4.3c1.567,2.656,5.688,4.508,7.441,5.2Z" transform="translate(-371.844 -281.136)" fill="#b2d0cb"/>
            </g>
          </g>
        </g>
        <g id="Group_50466" data-name="Group 50466" transform="translate(277.853 518.977)">
          <g id="Group_50465" data-name="Group 50465">
            <path id="Path_205478" data-name="Path 205478" d="M391.27,293.432a32.266,32.266,0,0,1-9.811,3.2v5.276a4.35,4.35,0,0,0,4.345,4.345h6.406a4.35,4.35,0,0,0,4.345-4.345v-5.015A20.223,20.223,0,0,1,391.27,293.432Z" transform="translate(-381.459 -293.432)" fill="#f2ede6"/>
          </g>
        </g>
        <g id="Group_50469" data-name="Group 50469" transform="translate(271.568 503.052)">
          <g id="Group_50468" data-name="Group 50468">
            <g id="Group_50467" data-name="Group 50467">
              <path id="Path_205479" data-name="Path 205479" d="M390,265.94a4.643,4.643,0,0,0-3.131-2.767,21.156,21.156,0,0,0-10.861.632c-6.768,2.252-6.712,7.746-6.657,13.06.005.494.01.993.01,1.494a1.093,1.093,0,0,0,1.093,1.093,28.043,28.043,0,0,0,16.826-5.239,1.109,1.109,0,0,0,.248-.287l2.135-3.579A4.977,4.977,0,0,0,390,265.94Zm-2.213,3.288-2.027,3.4a26.489,26.489,0,0,1-14.219,4.619c0-.134,0-.269,0-.4-.052-5.149-.094-9.215,5.162-10.964a20.45,20.45,0,0,1,6.221-.974,13.61,13.61,0,0,1,3.393.381,2.444,2.444,0,0,1,1.665,1.479A2.786,2.786,0,0,1,387.789,269.228Z" transform="translate(-369.344 -262.728)" fill="#b2d0cb"/>
            </g>
          </g>
        </g>
        <g id="Group_50472" data-name="Group 50472" transform="translate(287.725 505.57)">
          <g id="Group_50471" data-name="Group 50471">
            <g id="Group_50470" data-name="Group 50470">
              <path id="Path_205480" data-name="Path 205480" d="M410.829,268.494a4.792,4.792,0,0,0-3.967-.8c-2.231.421-3.661,3.033-3.887,3.471l-2.333,3.983a1.087,1.087,0,0,0-.136.722c.68,4.316,9.237,7.184,10.21,7.5a1.073,1.073,0,0,0,.335.053,1.093,1.093,0,0,0,1.092-1.093V271.6A3.83,3.83,0,0,0,410.829,268.494Zm-.872,12.289c-2.925-1.131-6.54-3.061-7.2-4.91l2.125-3.627c.011-.019.023-.039.033-.058.276-.545,1.3-2.144,2.358-2.343a2.711,2.711,0,0,1,2.167.333,1.734,1.734,0,0,1,.522,1.423v9.183Z" transform="translate(-400.492 -267.585)" fill="#b2d0cb"/>
            </g>
          </g>
        </g>
      </g>
      <g id="Group_50475" data-name="Group 50475" transform="translate(166.55 452.059)">
        <g id="Group_50474" data-name="Group 50474">
          <g id="Group_50473" data-name="Group 50473">
            <path id="Path_205481" data-name="Path 205481" d="M292.256,229.458a22.846,22.846,0,0,0-1.453-1.774l-1.619,1.467c.464.512.906,1.053,1.315,1.606Zm-6.75-6.12c-.647-.388-1.324-.753-2.012-1.084l-.946,1.97c.627.3,1.244.633,1.834.986Zm3.676,2.725c-.565-.511-1.161-1-1.772-1.452l-1.3,1.756c.553.41,1.093.853,1.605,1.317Zm4.874,12.169,2.114-.555c-.194-.738-.423-1.473-.682-2.182l-2.053.748C293.671,236.889,293.88,237.558,294.056,238.232Zm.691,4.109,2.179-.166c-.058-.754-.151-1.516-.276-2.265l-2.156.36C294.61,240.955,294.695,241.652,294.747,242.341Zm-2.114-8.019,1.973-.938c-.326-.686-.689-1.366-1.078-2.018l-1.877,1.121C292.007,233.081,292.336,233.7,292.633,234.322ZM293.9,250.6l2.1.607c.211-.726.391-1.474.536-2.219l-2.146-.417C294.259,249.258,294.094,249.94,293.9,250.6Zm.912-6.175c-.008.7-.049,1.4-.119,2.083l2.174.222c.077-.749.12-1.517.13-2.277Zm-2.437,10.043,1.948.99c.342-.672.657-1.374.938-2.087l-2.033-.8C292.974,253.222,292.687,253.861,292.377,254.471Zm-2.227,3.5,1.721,1.347c.469-.6.913-1.229,1.321-1.871l-1.845-1.171C290.978,256.858,290.576,257.428,290.15,257.972Zm-6.266,5.377,1.075,1.9c.664-.375,1.315-.786,1.936-1.22l-1.252-1.791C285.079,262.635,284.487,263.007,283.884,263.349Zm3.4-2.38,1.423,1.659c.578-.5,1.138-1.026,1.664-1.576l-1.579-1.511C288.315,260.04,287.807,260.521,287.284,260.969Z" transform="translate(-282.548 -222.255)" fill="#f2ede6"/>
          </g>
        </g>
      </g>
      <g id="Group_54249" data-name="Group 54249" transform="translate(124.834 482.103)">
        <g id="Group_50371-2" data-name="Group 50371">
          <g id="Group_50370-2" data-name="Group 50370">
            <path id="Path_205444-2" data-name="Path 205444" d="M223.672,141.74a3.376,3.376,0,0,0-.031-.46l2.166-.287a5.714,5.714,0,0,1,.049.747v1.58h-2.185Zm-1.856-3.144,1.084-1.9a5.955,5.955,0,0,1,1.954,1.8l-1.8,1.232A3.766,3.766,0,0,0,221.816,138.6Zm1.856,11.28h2.185v2.185h-2.185Zm0-4.37h2.185v2.185h-2.185ZM214.6,133.126l1.657-1.424a18,18,0,0,0,1.43,1.482l-1.485,1.6A20.391,20.391,0,0,1,214.6,133.126Zm3.371,3.132,1.306-1.752c.546.407,1.126.8,1.724,1.155l-1.126,1.872C219.217,137.138,218.576,136.709,217.973,136.258Zm-15.854-13.039H204.3V125.4h-2.185Zm5.842,2.186H206.49V123.22h1.471a5.7,5.7,0,0,1,.876.067l-.33,2.16A3.645,3.645,0,0,0,207.961,125.4Zm4.067,3.882,1.949-.989a16.8,16.8,0,0,0,1.038,1.769l-1.814,1.219A19.05,19.05,0,0,1,212.029,129.287Zm-1.977-3.223,1.259-1.786a5.7,5.7,0,0,1,1.766,2.015l-1.938,1.01A3.515,3.515,0,0,0,210.052,126.064Zm29.07,71.493h2.185v2.185h-2.185Zm-4.37,0h2.185v2.185h-2.185Zm-4.371,0h2.185v2.185h-2.185Zm13.112,2.185v-2.185h2.185v2.185Zm-17.951-1.253,1.413-1.666a3.09,3.09,0,0,0,1.441.683l-.391,2.15A5.26,5.26,0,0,1,225.542,198.49Zm-1.87-39.873h2.185V160.8h-2.185Zm0,4.371h2.185v2.185h-2.185Zm0-8.741h2.185v2.185h-2.185Zm0,13.112h2.185v2.185h-2.185Zm0,27.1v-.728h2.185v.728a3.1,3.1,0,0,0,.184,1.057l-2.056.743A5.293,5.293,0,0,1,223.672,194.457Z" transform="translate(-202.119 -123.219)" fill="#f2ede6"/>
            <path id="Path_206374-2" data-name="Path 206374" d="M223.672,153.419h2.185V155.6h-2.185Zm0,8.741h2.185v2.185h-2.185Zm0,4.371h2.185v2.185h-2.185Zm0-8.741h2.185v2.185h-2.185Zm0,13.112h2.185v2.185h-2.185Z" transform="translate(-202.119 -104.762)" fill="#f2ede6"/>
          </g>
        </g>
      </g>
      <path id="Path_206376" data-name="Path 206376" d="M239.123,125.4h2.185v-2.185h-2.185Zm-4.37,0h2.185v-2.185h-2.185Zm-4.371,0h2.185v-2.185h-2.185Zm13.112-2.185V125.4h2.185v-2.185Z" transform="translate(-60.285 433.222)" fill="#f2ede6"/>
      <g id="Group_53622" data-name="Group 53622" transform="translate(190.941 435.656)">
        <g id="Group_53621" data-name="Group 53621">
          <circle id="Ellipse_3337" data-name="Ellipse 3337" cx="3.388" cy="3.388" r="3.388" fill="#b2d0cb"/>
        </g>
      </g>
      <g id="Group_54254" data-name="Group 54254" transform="translate(-78.85 -6.344)">
        <g id="Group_53624" data-name="Group 53624" transform="translate(296.132 461.875)">
          <g id="Group_53623" data-name="Group 53623" transform="translate(0 0)">
            <rect id="Rectangle_9943" data-name="Rectangle 9943" width="2.514" height="4.298" fill="#b2d0cb"/>
          </g>
        </g>
        <g id="Group_53626" data-name="Group 53626" transform="translate(296.132 473.716)">
          <g id="Group_53625" data-name="Group 53625">
            <rect id="Rectangle_9944" data-name="Rectangle 9944" width="2.514" height="4.298" fill="#b2d0cb"/>
          </g>
        </g>
        <g id="Group_53628" data-name="Group 53628" transform="translate(301.161 468.688)">
          <g id="Group_53627" data-name="Group 53627" transform="translate(0 0)">
            <rect id="Rectangle_9945" data-name="Rectangle 9945" width="4.298" height="2.514" fill="#b2d0cb"/>
          </g>
        </g>
        <g id="Group_53630" data-name="Group 53630" transform="translate(289.318 468.688)">
          <g id="Group_53629" data-name="Group 53629" transform="translate(0 0)">
            <rect id="Rectangle_9946" data-name="Rectangle 9946" width="4.298" height="2.514" fill="#b2d0cb"/>
          </g>
        </g>
      </g>
      <g id="Group_53642" data-name="Group 53642" transform="translate(162.379 580.403)">
        <g id="Group_53641" data-name="Group 53641">
          <circle id="Ellipse_3339" data-name="Ellipse 3339" cx="2.477" cy="2.477" r="2.477" fill="#508b82"/>
        </g>
      </g>
    </g>
  </g>
</svg>
