<svg xmlns="http://www.w3.org/2000/svg" width="56" height="60" viewBox="0 0 56 60">
  <g id="elite" transform="translate(-160 -58)">
    <g id="Path_24138" data-name="Path 24138" transform="translate(160 58)" fill="rgba(255,255,255,0.1)">
      <path d="M 28 55.79999923706055 C 24.24694061279297 55.79999923706055 20.60623931884766 55.06499862670898 17.17905044555664 53.61542129516602 C 13.86867046356201 52.21524810791016 10.89560031890869 50.21073913574219 8.342430114746094 47.65756988525391 C 5.789259910583496 45.10440063476562 3.784749984741211 42.13132858276367 2.38457989692688 38.82094955444336 C 0.9350000023841858 35.39376068115234 0.2000000029802322 31.75305938720703 0.2000000029802322 28 C 0.2000000029802322 24.24694061279297 0.9350000023841858 20.60623931884766 2.38457989692688 17.17905044555664 C 3.784749984741211 13.86867046356201 5.789259910583496 10.89560031890869 8.342430114746094 8.342430114746094 C 10.89560031890869 5.789259910583496 13.86867046356201 3.784749984741211 17.17905044555664 2.38457989692688 C 20.60623931884766 0.9350000023841858 24.24694061279297 0.2000000029802322 28 0.2000000029802322 C 31.75305938720703 0.2000000029802322 35.39376068115234 0.9350000023841858 38.82094955444336 2.38457989692688 C 42.13132858276367 3.784749984741211 45.10440063476562 5.789259910583496 47.65756988525391 8.342430114746094 C 50.21073913574219 10.89560031890869 52.21524810791016 13.86867046356201 53.61542129516602 17.17905044555664 C 55.06499862670898 20.60623931884766 55.79999923706055 24.24694061279297 55.79999923706055 28 C 55.79999923706055 31.75305938720703 55.06499862670898 35.39376068115234 53.61542129516602 38.82094955444336 C 52.21524810791016 42.13132858276367 50.21073913574219 45.10440063476562 47.65756988525391 47.65756988525391 C 45.10440063476562 50.21073913574219 42.13132858276367 52.21524810791016 38.82094955444336 53.61542129516602 C 35.39376068115234 55.06499862670898 31.75305938720703 55.79999923706055 28 55.79999923706055 Z" stroke="none"/>
      <path d="M 28 0.4000015258789062 C 24.27384948730469 0.4000015258789062 20.65937042236328 1.129680633544922 17.25696182250977 2.568778991699219 C 13.97042083740234 3.958869934082031 11.01871871948242 5.948989868164062 8.483848571777344 8.483848571777344 C 5.948989868164062 11.01871871948242 3.958869934082031 13.97042083740234 2.568778991699219 17.25696182250977 C 1.129680633544922 20.65937042236328 0.4000015258789062 24.27384948730469 0.4000015258789062 28 C 0.4000015258789062 31.72615051269531 1.129680633544922 35.34062957763672 2.568778991699219 38.7430419921875 C 3.958869934082031 42.02957916259766 5.948989868164062 44.98128128051758 8.483848571777344 47.51615142822266 C 11.01871871948242 50.05101013183594 13.97042083740234 52.04113006591797 17.25696182250977 53.43122100830078 C 20.65937042236328 54.87031936645508 24.27384948730469 55.59999847412109 28 55.59999847412109 C 31.72615051269531 55.59999847412109 35.34062957763672 54.87031936645508 38.7430419921875 53.43122100830078 C 42.02957916259766 52.04113006591797 44.98128128051758 50.05101013183594 47.51615142822266 47.51615142822266 C 50.05101013183594 44.98128128051758 52.04113006591797 42.02957916259766 53.43122100830078 38.7430419921875 C 54.87031936645508 35.34062957763672 55.59999847412109 31.72615051269531 55.59999847412109 28 C 55.59999847412109 24.27384948730469 54.87031936645508 20.65937042236328 53.43122100830078 17.25696182250977 C 52.04113006591797 13.97042083740234 50.05101013183594 11.01871871948242 47.51615142822266 8.483848571777344 C 44.98128128051758 5.948989868164062 42.02957916259766 3.958869934082031 38.7430419921875 2.568778991699219 C 35.34062957763672 1.129680633544922 31.72615051269531 0.4000015258789062 28 0.4000015258789062 M 28 0 C 43.46397018432617 0 56 12.53602981567383 56 28 C 56 43.46397018432617 43.46397018432617 56 28 56 C 12.53602981567383 56 0 43.46397018432617 0 28 C 0 12.53602981567383 12.53602981567383 0 28 0 Z" stroke="none" fill="#f2d0a4"/>
    </g>
    <rect id="Rectangle_7316" data-name="Rectangle 7316" width="33" height="14" rx="7" transform="translate(171 104)" fill="#f2d0a4"/>
    <g id="Page-1" transform="translate(173 71)">
      <g id="Crown" transform="translate(1 0)">
        <path id="Shape" d="M21.029,15.932c0,.667-.755,1.211-1.687,1.211H4.706c-.932,0-1.687-.544-1.687-1.211v-.71c0-.665.755-1.21,1.687-1.21H19.343c.932,0,1.687.544,1.687,1.21v.71Z" transform="translate(1.742 8.085)" fill="#fff" fill-rule="evenodd"/>
        <path id="Shape-2" data-name="Shape" d="M20.779,18.712H5.148L1.421,6.705l2-1.118,5.278,6.7L11.8,3.042H14.29l2.794,9.809,5.588-7.264,1.833,1.118Z" transform="translate(0.82 1.755)" fill="#fff" fill-rule="evenodd"/>
        <circle id="Oval" cx="1.527" cy="1.527" r="1.527" transform="translate(24.394 3.154)" fill="#fff"/>
        <circle id="Oval-2" data-name="Oval" cx="1.52" cy="1.52" r="1.52" transform="translate(12.196)" fill="#fff"/>
        <ellipse id="Oval-3" data-name="Oval" cx="1.55" cy="1.536" rx="1.55" ry="1.536" transform="translate(0 3.154)" fill="#fff"/>
      </g>
    </g>
  </g>
</svg>
