<svg width="172" height="154" viewBox="0 0 172 154" fill="none" xmlns="http://www.w3.org/2000/svg">
<g clip-path="url(#clip0_439_5108)">
<path opacity="0.29" d="M123.443 7C125.903 7.00002 128.319 7.64795 130.448 8.87856C132.578 10.1092 134.345 11.879 135.573 14.01L169.729 73.283C170.954 75.4089 171.599 77.8194 171.599 80.273C171.599 82.7266 170.954 85.1371 169.729 87.263L135.573 146.536C134.345 148.667 132.578 150.437 130.448 151.667C128.319 152.898 125.903 153.546 123.443 153.546H55.1774C52.7179 153.546 50.3019 152.898 48.1724 151.667C46.043 150.437 44.2753 148.667 43.0474 146.536L8.89136 87.263C7.66631 85.1371 7.02148 82.7266 7.02148 80.273C7.02148 77.8194 7.66631 75.4089 8.89136 73.283L43.0474 14.01C44.2753 11.879 46.043 10.1092 48.1724 8.87856C50.3019 7.64795 52.7179 7.00002 55.1774 7H123.443Z" fill="#A1C6BE"/>
<path d="M127.257 145.769L127.257 145.769C125.812 146.605 124.171 147.045 122.502 147.045H49.118C47.4486 147.045 45.8086 146.605 44.3635 145.769L44.3632 145.769C42.918 144.934 41.7184 143.732 40.8853 142.286L4.16936 78.5125C3.33926 77.0707 2.90234 75.4362 2.90234 73.7725C2.90234 72.1088 3.33926 70.4743 4.16936 69.0325L40.8853 5.2595C40.8853 5.25949 40.8853 5.25948 40.8853 5.25947C41.7184 3.81274 42.918 2.61107 44.3633 1.77551L44.1131 1.34264L44.3634 1.7755C45.8086 0.939944 47.4486 0.500003 49.118 0.5H122.502C124.171 0.500003 125.812 0.939961 127.257 1.77548C128.702 2.61107 129.902 3.81277 130.735 5.25952L167.451 69.0325L167.884 68.783L167.451 69.0325C168.281 70.4743 168.718 72.1088 168.718 73.7725C168.718 75.4362 168.281 77.0707 167.451 78.5125L167.884 78.762L167.451 78.5125L130.735 142.286C129.902 143.732 128.702 144.934 127.257 145.769Z" fill="#F8F2EC" stroke="#DDE5DF"/>
<path opacity="0.6" d="M37.7458 123.502C36.3632 123.5 35.0377 122.95 34.06 121.973C33.0824 120.995 32.5324 119.67 32.5308 118.287C32.5248 117.943 32.3837 117.615 32.138 117.374C31.8924 117.134 31.5618 116.999 31.2178 117C30.8765 117 30.5492 117.136 30.3078 117.377C30.0664 117.618 29.9308 117.946 29.9308 118.287C29.9293 119.677 29.3766 121.009 28.394 121.991C27.4115 122.974 26.0793 123.526 24.6898 123.528C24.3484 123.528 24.0209 123.664 23.7794 123.905C23.538 124.147 23.4023 124.474 23.4023 124.816C23.4023 125.157 23.538 125.484 23.7794 125.726C24.0209 125.967 24.3484 126.103 24.6898 126.103C26.0793 126.105 27.4115 126.657 28.394 127.64C29.3766 128.622 29.9293 129.954 29.9308 131.344C29.9308 131.685 30.0665 132.013 30.3079 132.254C30.5494 132.496 30.8769 132.632 31.2183 132.632C31.5598 132.632 31.8873 132.496 32.1287 132.254C32.3702 132.013 32.5058 131.685 32.5058 131.344C32.5074 129.955 33.06 128.623 34.0423 127.64C35.0246 126.658 36.3565 126.105 37.7458 126.103C38.09 126.097 38.4179 125.956 38.6587 125.71C38.8996 125.464 39.0339 125.133 39.0328 124.789C39.0326 124.448 38.8969 124.121 38.6556 123.879C38.4143 123.638 38.0871 123.502 37.7458 123.502Z" fill="#B8B6D0"/>
<path opacity="0.6" d="M11.8515 46.5914C10.875 45.6126 10.3266 44.2865 10.3266 42.9039C10.3266 41.5213 10.875 40.1952 11.8515 39.2164C12.0906 38.9689 12.2228 38.6373 12.2194 38.2932C12.2161 37.9491 12.0774 37.6201 11.8335 37.3774C11.714 37.2578 11.572 37.1628 11.4158 37.0981C11.2596 37.0333 11.0921 37 10.923 37C10.7539 37 10.5864 37.0333 10.4302 37.0981C10.2739 37.1628 10.132 37.2578 10.0125 37.3774C9.02882 38.3589 7.69603 38.91 6.30649 38.91C4.91695 38.91 3.58416 38.3589 2.60049 37.3774C2.35901 37.1359 2.03149 37.0003 1.68999 37.0003C1.34848 37.0003 1.02096 37.1359 0.77948 37.3774C0.538 37.6189 0.402344 37.9464 0.402344 38.2879C0.402344 38.6294 0.538 38.9569 0.77948 39.1984C1.76092 40.1821 2.31212 41.5149 2.31212 42.9044C2.31212 44.294 1.76092 45.6268 0.77948 46.6104C0.538 46.8519 0.402344 47.1794 0.402344 47.5209C0.402344 47.8624 0.538 48.1899 0.77948 48.4314C1.02096 48.6729 1.34848 48.8086 1.68999 48.8086C2.03149 48.8086 2.35901 48.6729 2.60049 48.4314C3.58416 47.45 4.91695 46.8988 6.30649 46.8988C7.69603 46.8988 9.02882 47.45 10.0125 48.4314C10.2601 48.6704 10.5918 48.8024 10.9359 48.7989C11.28 48.7953 11.6089 48.6565 11.8515 48.4124C11.9711 48.2929 12.066 48.151 12.1308 47.9947C12.1956 47.8385 12.2289 47.671 12.2289 47.5019C12.2289 47.3328 12.1956 47.1653 12.1308 47.0091C12.066 46.8529 11.9711 46.7109 11.8515 46.5914Z" fill="#EDBE9B"/>
<path opacity="0.6" d="M168.852 48.5911C167.876 47.6124 167.328 46.2862 167.328 44.9036C167.328 43.5211 167.876 42.1949 168.852 41.2161C169.091 40.9686 169.223 40.6369 169.22 40.2927C169.216 39.9486 169.078 39.6197 168.833 39.3771C168.592 39.1357 168.264 39.0002 167.923 39.0002C167.581 39.0002 167.254 39.1357 167.012 39.3771C166.029 40.3586 164.696 40.9098 163.306 40.9098C161.917 40.9098 160.584 40.3586 159.6 39.3771C159.359 39.1357 159.031 39 158.69 39C158.348 39 158.021 39.1357 157.779 39.3771C157.538 39.6186 157.402 39.9461 157.402 40.2876C157.402 40.6291 157.538 40.9567 157.779 41.1981C158.761 42.1818 159.312 43.5146 159.312 44.9041C159.312 46.2937 158.761 47.6265 157.779 48.6101C157.66 48.7297 157.565 48.8717 157.5 49.0279C157.436 49.1841 157.402 49.3516 157.402 49.5206C157.402 49.6897 157.436 49.8572 157.5 50.0134C157.565 50.1696 157.66 50.3116 157.779 50.4311C157.899 50.5507 158.041 50.6456 158.197 50.7103C158.353 50.775 158.521 50.8083 158.69 50.8083C158.859 50.8083 159.027 50.775 159.183 50.7103C159.339 50.6456 159.481 50.5507 159.6 50.4311C160.584 49.4497 161.917 48.8985 163.306 48.8985C164.696 48.8985 166.029 49.4497 167.012 50.4311C167.26 50.6703 167.592 50.8025 167.936 50.7991C168.28 50.7957 168.609 50.6571 168.852 50.4131C169.093 50.1716 169.228 49.8441 169.228 49.5026C169.228 49.1612 169.093 48.8327 168.852 48.5911Z" fill="#DAD1A9"/>
<mask id="mask0_439_5108" style="mask-type:luminance" maskUnits="userSpaceOnUse" x="26" y="11" width="122" height="122">
<path d="M148 11H26V133H148V11Z" fill="white"/>
</mask>
<g mask="url(#mask0_439_5108)">
<path d="M26 53.4779C26.4046 51.0557 26.7023 48.614 27.2299 46.2112C31.1914 28.2991 46.6974 13.9991 64.8445 11.4731C86.9919 8.38614 107.333 20.6465 114.758 41.6651C115.8 44.6159 116.376 47.7287 117.201 50.8611L112.861 52.3625C110.227 26.9923 84.8008 9.34272 59.4137 17.0828C36.6934 24.0123 24.5274 48.9739 33.0459 71.4647C41.8265 94.6364 69.4889 105.47 92.2318 92.6519L93.1121 93.7479C91.2026 95.6934 89.5099 97.8887 87.3738 99.4679C85.9659 100.509 83.9399 100.784 82.1469 101.222C57.0996 107.341 31.4114 90.6058 26.78 65.161C26.4563 63.3841 26.2557 61.5941 26 59.788V53.4779Z" fill="#DFD0C2"/>
<path d="M70.8935 19.5961C89.4613 19.4599 105.466 33.2151 108.181 50.7511C108.576 53.3031 108.288 54.9179 106.061 56.7305C98.4588 62.9141 95.2417 71.1795 95.8113 80.956C95.8528 81.489 95.7024 82.0194 95.3874 82.4509C93.9083 84.0722 92.0635 85.4211 91.4777 87.7395C91.4 88.0443 90.9048 88.2713 90.565 88.4756C69.0228 101.488 40.6937 89.0334 35.6642 64.3441C31.7027 44.9047 43.1081 26.2273 62.1679 20.9126C63.5244 20.5258 64.9051 20.2301 66.3009 20.0274C68.1004 19.7777 69.9226 19.6836 70.8935 19.5961ZM62.9738 58.9355V71.7989C62.861 71.8537 62.7454 71.9024 62.6275 71.9448C61.6047 72.2464 60.9121 72.8462 60.8571 73.9747C60.7956 75.1582 61.4364 75.8294 62.4754 76.2445C62.7571 76.4113 62.973 76.67 63.0871 76.9773C63.4916 77.8658 64.1292 78.443 65.1163 78.4462C65.5862 78.4698 66.05 78.3314 66.4304 78.0541C66.8108 77.7768 67.0849 77.3774 67.2071 76.9222C67.2848 76.7255 67.3723 76.5329 67.4693 76.345H71.6476C71.8806 77.548 72.502 78.3619 73.7157 78.4365C75.1333 78.5273 75.7903 77.5837 76.114 76.345C80.9687 75.9656 84.5807 73.7347 86.2216 69.1043C87.9531 64.2403 86.4935 60.0704 82.5999 56.6559C82.9236 56.3316 83.2181 56.0819 83.4997 55.8096C85.332 54.1237 86.4999 51.8353 86.7912 49.36C87.5032 43.0986 83.49 37.9688 77.2468 37.1322C76.5347 37.0349 76.1043 36.863 75.7256 36.1074C75.5163 35.7842 75.2378 35.5118 74.9103 35.3099C74.5828 35.1079 74.2146 34.9817 73.8322 34.9402C73.2238 34.9175 72.5377 35.5886 71.9777 36.0296C71.7415 36.2209 71.6962 36.6555 71.5505 37.0024C70.4598 37.0024 69.4112 36.9765 68.3658 37.0024C67.7444 37.0219 67.4563 36.8306 67.0906 36.2404C66.7249 35.6503 65.8349 34.9434 65.1714 34.9434C64.5079 34.9434 63.812 35.7054 63.1712 36.1853C62.7593 36.4851 62.3921 36.8421 62.0805 37.2456C61.6242 37.8552 60.9348 38.5199 60.9251 39.1717C60.9154 39.8235 61.5724 40.5141 62.032 41.1173C62.2132 41.354 62.6534 41.3929 62.9673 41.5193V54.3731C61.7277 54.6974 60.7827 55.3069 60.8409 56.7596C60.9121 58.0956 61.8313 58.6274 62.977 58.9355H62.9738ZM71.5991 28.3057C72.3661 28.3414 73.1299 28.4257 73.8937 28.403C74.4672 28.4162 75.0228 28.2029 75.4407 27.8092C75.8585 27.4154 76.105 26.8728 76.1269 26.2985C76.14 26.0148 76.0959 25.7315 75.9974 25.4652C75.8989 25.1989 75.7479 24.9551 75.5534 24.7485C75.3589 24.5419 75.125 24.3765 74.8654 24.2623C74.6059 24.1482 74.3261 24.0875 74.0426 24.0839C72.515 24.0093 70.9809 24.0028 69.4533 24.0839C68.081 24.152 67.2978 25.1053 67.3787 26.3991C67.4531 27.5956 68.3496 28.403 69.6669 28.4095C70.3142 28.4095 70.9582 28.3414 71.6023 28.3057H71.5991ZM54.2838 79.539C53.753 80.0513 52.9892 80.5313 52.6008 81.2187C52.0797 82.1363 52.481 83.0864 53.3225 83.6539C54.5632 84.4781 55.8467 85.2358 57.1675 85.9237C58.4621 86.6112 59.7146 86.248 60.2972 85.1261C60.8798 84.0041 60.4525 82.8238 59.1838 82.0844C58.0705 81.4359 56.9636 80.7874 55.8373 80.1389C55.3311 79.9133 54.8137 79.7142 54.287 79.5422L54.2838 79.539ZM60.5367 29.713C60.5917 27.6929 58.9897 26.5644 57.517 27.2616C56.0669 27.9658 54.6665 28.7686 53.3258 29.6644C53.0953 29.8141 52.897 30.0085 52.7426 30.236C52.5881 30.4635 52.4806 30.7197 52.4263 30.9894C52.3721 31.2592 52.3721 31.5371 52.4265 31.8068C52.481 32.0765 52.5886 32.3326 52.7432 32.56C52.8929 32.8014 53.0887 33.0108 53.3193 33.1762C53.55 33.3416 53.811 33.4598 54.0873 33.524C54.3636 33.5881 54.6498 33.597 54.9296 33.5501C55.2093 33.5032 55.4771 33.4015 55.7175 33.2507C56.9674 32.5967 58.1837 31.8803 59.3618 31.1041C59.9476 30.7053 60.3134 30.0049 60.5367 29.713ZM44.6778 45.4915C44.9594 45.3002 45.6941 45.0312 46.0631 44.5026C46.9102 43.2293 47.6839 41.9084 48.3804 40.5466C48.6478 40.0641 48.7176 39.4965 48.5751 38.9635C48.4326 38.4305 48.0889 37.9738 47.6166 37.6899C46.7104 37.1289 45.4222 37.278 44.8073 38.1989C43.8789 39.5627 43.0524 40.9934 42.3346 42.4792C41.6614 43.9319 42.7133 45.4494 44.6778 45.4915ZM43.4577 56.685C43.4577 55.9587 43.4771 55.2324 43.4577 54.506C43.4672 53.9561 43.2686 53.4231 42.9017 53.014C42.5348 52.6049 42.0269 52.3501 41.4802 52.301C41.208 52.2705 40.9325 52.2946 40.6697 52.3718C40.4069 52.449 40.162 52.5778 39.9494 52.7507C39.7367 52.9236 39.5605 53.1372 39.431 53.379C39.3016 53.6208 39.2214 53.886 39.1952 54.1591C39.069 55.8461 39.069 57.5402 39.1952 59.2273C39.2923 60.4076 40.4089 61.1177 41.5481 60.9977C42.0731 60.9407 42.5583 60.6907 42.9098 60.2959C43.2614 59.9012 43.4543 59.3899 43.4512 58.8609C43.4803 58.1378 43.4577 57.4114 43.4577 56.685ZM91.1734 82.0131C90.9145 80.2102 89.2315 79.2407 87.7298 80.0416C86.487 80.7063 85.2765 81.4359 84.0628 82.1525C82.9042 82.8335 82.5287 84.0657 83.121 85.1552C83.7133 86.2447 84.8525 86.6014 86.0339 86.0048C87.3726 85.3493 88.6619 84.5971 89.8918 83.7544C90.4549 83.362 90.7559 82.6033 91.1734 82.0131ZM90.9404 30.9452C90.7883 30.7118 90.565 30.0243 90.0924 29.7098C88.7202 28.7955 87.2923 27.9681 85.817 27.2325C85.3388 26.9983 84.7874 26.9637 84.2838 27.1364C83.7802 27.309 83.3655 27.6747 83.1307 28.1533C82.8613 28.6127 82.7783 29.1582 82.8987 29.6772C83.0192 30.1961 83.3339 30.6489 83.778 30.942C85.1271 31.8198 86.5219 32.6251 87.9563 33.3545C89.3772 34.0711 90.9792 32.9492 90.9404 30.9452ZM97.3195 37.3656C95.2029 37.3656 94.2255 39.1166 95.0767 40.6666C95.7563 41.902 96.4684 43.1212 97.1933 44.3307C97.8568 45.443 99.0284 45.7964 100.106 45.2419C100.361 45.1172 100.588 44.9419 100.774 44.7267C100.96 44.5116 101.1 44.2609 101.186 43.99C101.272 43.7191 101.303 43.4335 101.276 43.1504C101.249 42.8673 101.165 42.5926 101.029 42.343C100.354 40.9681 99.5827 39.6429 98.721 38.3773C98.3391 37.8455 97.6076 37.5634 97.3195 37.3656ZM71.7059 84.9607C70.9421 84.9607 70.1782 84.9315 69.4144 84.9607C68.9055 84.9558 68.4137 85.1445 68.0383 85.4888C67.6628 85.833 67.4317 86.3071 67.3916 86.8154C67.2686 87.9698 67.8706 89.0528 68.9872 89.1436C70.785 89.2847 72.5911 89.2847 74.3889 89.1436C75.4537 89.0625 76.1107 87.9925 76.0395 86.9484C76.0143 86.4184 75.7896 85.9177 75.4107 85.5471C75.0317 85.1764 74.5267 84.9635 73.9973 84.9509C73.2367 84.9282 72.4697 84.9607 71.7059 84.9607ZM48.8626 73.9844L48.6296 73.7802C48.63 73.5794 48.5972 73.38 48.5325 73.19C47.6457 71.6206 46.8301 69.9992 45.8106 68.5206C45.241 67.6937 44.2312 67.5997 43.3023 68.0991C42.3734 68.5985 41.8265 69.5031 42.244 70.4078C43.0276 72.1572 43.9931 73.8191 45.1245 75.3658C45.4481 75.8132 46.7427 75.891 47.39 75.6543C48.005 75.4273 48.3804 74.5551 48.8626 73.9844Z" fill="#E8DCCF"/>
<path d="M148 78.4787C148 92.5808 135.701 103.81 121.687 102.283C119.729 102.069 118.237 102.38 117.004 103.962C116.352 104.734 115.64 105.453 114.874 106.112C113.809 107.085 112.667 107.14 111.638 106.112C106.537 101.043 101.455 95.9541 96.3906 90.8459C95.3937 89.844 95.4423 88.6637 96.4326 87.6228C97.355 86.65 98.271 85.6772 99.2646 84.8017C100.258 83.9262 100.491 82.9048 100.323 81.6434C99.4943 75.3908 101.162 69.0631 104.963 64.0351C108.764 59.0071 114.393 55.6851 120.625 54.7906C126.857 53.8962 133.189 55.5017 138.247 59.2583C143.304 63.0149 146.677 68.6191 147.634 74.8534C147.825 76.0596 147.883 77.2724 148 78.4787ZM139.145 71.9415C139.148 70.2154 138.64 68.5271 137.685 67.0904C136.73 65.6537 135.371 64.5332 133.78 63.8707C132.189 63.2082 130.438 63.0335 128.748 63.3688C127.058 63.704 125.505 64.5341 124.286 65.754C123.067 66.9739 122.237 68.5287 121.9 70.2216C121.564 71.9145 121.736 73.6694 122.395 75.2641C123.055 76.8587 124.172 78.2215 125.605 79.1799C127.038 80.1383 128.722 80.6492 130.445 80.6479C132.749 80.6437 134.958 79.7253 136.589 78.0937C138.219 76.4622 139.138 74.2502 139.145 71.9415Z" fill="#A1C6BE"/>
<path d="M105.378 106.339C104.579 107.127 103.721 108.032 102.789 108.852C102.475 109.066 102.091 109.147 101.718 109.079C100.129 108.81 98.5493 108.483 96.9699 108.165C93.112 107.393 90.7137 109.76 91.4678 113.616C91.7656 115.162 92.1475 116.696 92.3579 118.253C92.3733 118.811 92.2088 119.359 91.8886 119.816C90.7979 121.521 89.322 121.995 87.3575 121.265C86.2765 120.86 85.0919 120.762 83.93 120.552C80.8035 119.974 78.3114 122.468 78.8972 125.597C79.2209 127.303 79.5769 129.002 79.92 130.704C80.1401 131.807 79.3503 132.948 78.2435 132.974C76.0653 133.016 73.8839 133.026 71.7057 132.951C70.3043 132.9 69.5826 132.092 69.5567 130.682C69.5211 128.7 69.4887 126.716 69.5858 124.738C69.6328 124.064 69.904 123.426 70.3561 122.925C78.8616 114.345 87.3898 105.789 95.9407 97.2567C95.989 97.2039 96.0488 97.1628 96.1154 97.1367L105.378 106.339Z" fill="#A1C6BE"/>
<path d="M76.1309 71.8767V59.0035C79.1926 58.6047 82.2414 61.4225 82.5391 64.8824C82.8693 68.5789 80.0017 71.7632 76.1309 71.8767Z" fill="#D9C9B9"/>
<path d="M76.1309 54.4152V41.5583C79.3674 41.234 82.3773 44.1264 82.5586 47.6868C82.5911 48.5549 82.4492 49.4207 82.1414 50.2328C81.8335 51.0449 81.3659 51.7867 80.7664 52.4143C80.1669 53.0419 79.4476 53.5424 78.6513 53.8862C77.855 54.2299 76.9979 54.4098 76.1309 54.4152Z" fill="#D9C9B9"/>
<path d="M67.457 58.874H71.6289V71.8444H67.457V58.874Z" fill="#D9C9B9"/>
<path d="M67.4395 41.4319H71.6178V54.4023H67.4395V41.4319Z" fill="#D9C9B9"/>
</g>
<path d="M58 75.0282V36.2118L59 34.2212H68H74.5C76 34.2212 78 33.7235 79.5 34.2212C81 34.7188 84 36.2118 87 38.2024C89.4 39.7948 89 41.1882 88.5 41.6859C89 44.1741 90 49.3496 90 50.1459V57.6106V63.0847C90 64.2791 89 68.2271 88.5 70.0518L85 73.5353L81 78.0141L75.5 81H67H62.5L58 75.0282Z" fill="#E8DCCF"/>
<path d="M85.3767 56.9356C84.4939 55.7941 83.1617 55.01 81.3802 54.5838C83.6488 53.4266 84.6458 51.4626 84.372 48.6915C84.2805 47.6866 84.0028 46.8157 83.5383 46.0775C83.0734 45.3391 82.446 44.7455 81.6538 44.2965C80.8623 43.8469 80.0014 43.5046 79.0731 43.2687C78.1447 43.0327 77.0787 42.8614 75.8759 42.7549V37H72.3594V42.595C71.7504 42.595 70.8218 42.6102 69.5735 42.6407V37H66.0565V42.7549C65.5539 42.7702 64.8156 42.7779 63.8413 42.7779L59 42.7549V46.5002H61.5347C62.6918 46.5002 63.3693 47.018 63.5672 48.0531V54.6074C63.7196 54.6074 63.8413 54.6152 63.9327 54.6304H63.5672V63.8105C63.4455 64.5867 63.0041 64.9752 62.2428 64.9752H59.7082L59.0002 69.1545H63.5676C63.8569 69.1545 64.2753 69.1583 64.8236 69.1652C65.3716 69.1729 65.7825 69.1767 66.0566 69.1767V75H69.5742V69.2452C70.2135 69.2608 71.1421 69.2682 72.3601 69.2682V75H75.8767V69.1767C77.1254 69.1159 78.2329 69.0023 79.1992 68.8343C80.166 68.6662 81.0911 68.404 81.974 68.046C82.8567 67.6885 83.595 67.2429 84.1886 66.71C84.7826 66.1776 85.2732 65.4998 85.6621 64.6775C86.0497 63.8552 86.2974 62.9037 86.4036 61.8225C86.6024 59.7069 86.2597 58.0777 85.3767 56.9356ZM69.6419 46.7507C69.7485 46.7507 70.0492 46.7469 70.544 46.7392C71.039 46.7314 71.4499 46.7239 71.7772 46.7162C72.1046 46.7087 72.5461 46.7277 73.102 46.7734C73.6577 46.819 74.1258 46.8801 74.5063 46.9561C74.8868 47.0321 75.3058 47.1577 75.7622 47.3328C76.2193 47.5077 76.5844 47.721 76.8581 47.9721C77.1324 48.2233 77.3645 48.5432 77.5545 48.9314C77.745 49.3196 77.8402 49.7649 77.8402 50.2672C77.8402 50.6935 77.7718 51.0819 77.635 51.4322C77.4984 51.7823 77.2923 52.0755 77.0186 52.3114C76.7448 52.5475 76.4626 52.7532 76.1733 52.9281C75.8843 53.1031 75.5148 53.244 75.0658 53.3505C74.6169 53.4571 74.2249 53.5408 73.8901 53.6016C73.5552 53.6626 73.1366 53.7046 72.6341 53.7273C72.1316 53.75 71.7508 53.7655 71.4921 53.773C71.2332 53.7806 70.8794 53.7806 70.4301 53.773C69.9807 53.7655 69.7184 53.7615 69.6421 53.7615V46.7507L69.6419 46.7507ZM79.2451 62.3024C79.1001 62.6527 78.9139 62.9574 78.6857 63.2164C78.4571 63.4747 78.1563 63.7034 77.7834 63.901C77.4107 64.0992 77.0488 64.2588 76.6989 64.3806C76.3485 64.5029 75.9259 64.6089 75.4316 64.7005C74.9361 64.792 74.5025 64.8563 74.1291 64.8946C73.7563 64.9328 73.3112 64.9631 72.7934 64.9861C72.2759 65.0085 71.8722 65.0201 71.5831 65.0201C71.2938 65.0201 70.9283 65.0159 70.4868 65.0085C70.045 65.0014 69.7636 64.9975 69.6417 64.9975V57.2784C69.7634 57.2784 70.125 57.271 70.7265 57.2554C71.3281 57.2401 71.8188 57.233 72.1995 57.233C72.58 57.233 73.1055 57.2554 73.7756 57.3014C74.4451 57.3468 75.0084 57.415 75.4656 57.5064C75.9221 57.5979 76.4204 57.7385 76.9612 57.929C77.5016 58.1192 77.9395 58.3513 78.2746 58.6254C78.6095 58.8999 78.891 59.2495 79.1193 59.6759C79.3481 60.1021 79.4623 60.5894 79.4623 61.1376C79.4622 61.5643 79.39 61.952 79.2451 62.3024Z" fill="#F8F2EC"/>
</g>
<defs>
<clipPath id="clip0_439_5108">
<rect width="172" height="154" fill="white"/>
</clipPath>
</defs>
</svg>
