<svg xmlns="http://www.w3.org/2000/svg" width="138.068" height="232.977" viewBox="0 0 138.068 232.977">
  <g id="illustration" transform="translate(-60 -605.633)">
    <g id="Group_46761" data-name="Group 46761" transform="translate(15 2.092)">
      <g id="Group_46759" data-name="Group 46759">
        <g id="Group_46558" data-name="Group 46558" transform="translate(-60 114.541)">
          <path id="tile_hexagon" d="M52.064,0a14,14,0,0,1,12.13,7.01l11.984,20.8a14,14,0,0,1,0,13.98l-11.984,20.8a14,14,0,0,1-12.13,7.01H28.142a14,14,0,0,1-12.13-7.01L4.028,41.786a14,14,0,0,1,0-13.98L16.012,7.01A14,14,0,0,1,28.142,0Z" transform="translate(106.9 492.324)" fill="#a1c6be" opacity="0.29"/>
          <path id="tile_hexagon-2" data-name="tile_hexagon" d="M54.729,0A10,10,0,0,1,63.4,5.01L77.808,30.044a10,10,0,0,1,0,9.979L63.4,65.057a10,10,0,0,1-8.666,5.01H25.952a10,10,0,0,1-8.666-5.01L2.873,40.023a10,10,0,0,1,0-9.979L17.285,5.01A10,10,0,0,1,25.952,0Z" transform="translate(105 489)" fill="#f8f2ec"/>
        </g>
      </g>
      <g id="Group_46757" data-name="Group 46757" transform="translate(12686.316 10159.103)">
        <path id="Path_119788" data-name="Path 119788" d="M63.531,140.06l-2.352-28.289a2.411,2.411,0,0,1,2.2-2.6l32.749-2.723a2.039,2.039,0,0,1,2.2,1.863l2.014,24.225a2.039,2.039,0,0,1-1.863,2.2l-32.749,2.723a2.411,2.411,0,0,0-2.2,2.6Z" transform="translate(-12682.32 -9642.314)" fill="#d9c9b9"/>
        <g id="Path_119789" data-name="Path 119789" transform="translate(-12720.443 -9625)" fill="#f2e9df">
          <path d="M 104.1918716430664 97.37242889404297 L 103.7759094238281 95.43297576904297 L 130.1801910400391 86.10527801513672 C 130.4977111816406 85.99312591552734 130.8293762207031 85.93626403808594 131.1660308837891 85.93626403808594 C 131.2314910888672 85.93626403808594 131.2978057861328 85.9384765625 131.3631286621094 85.94283294677734 C 131.7668151855469 85.96981811523438 132.1540069580078 86.07691955566406 132.5140838623047 86.26114654541016 C 132.8742218017578 86.44540405273438 133.1876373291016 86.69684600830078 133.4456024169922 87.00846862792969 C 133.7035522460938 87.32002258300781 133.8920745849609 87.67482757568359 134.0058746337891 88.06293487548828 L 135.6163177490234 93.55429840087891 L 135.9613037109375 94.73068237304688 L 134.7395935058594 94.832275390625 L 104.1918716430664 97.37242889404297 Z" stroke="none"/>
          <path d="M 104.109001159668 96.37586212158203 L 134.6567230224609 93.83571624755859 L 133.0462799072266 88.34430694580078 C 132.9713592529297 88.08879852294922 132.8450927734375 87.85123443603516 132.6752777099609 87.64612579345703 C 132.5054931640625 87.44102478027344 132.2956695556641 87.27268218994141 132.0585784912109 87.15138244628906 C 131.8215026855469 87.03008270263672 131.5622253417969 86.9583740234375 131.2965393066406 86.94061279296875 C 131.0308990478516 86.92292785644531 130.7643890380859 86.95947265625 130.5132904052734 87.04816436767578 L 104.109001159668 96.37586212158203 M 104.2747268676758 98.36898803710938 L 103.4428176879883 94.49007415771484 L 129.8471069335938 85.16237640380859 C 130.3543701171875 84.98320007324219 130.8921356201172 84.90922546386719 131.4295501708984 84.94504547119141 C 131.9698333740234 84.98115539550781 132.4878540039062 85.12443542480469 132.9695739746094 85.37091827392578 C 133.451416015625 85.61743927001953 133.8707733154297 85.953857421875 134.2159118652344 86.37080383300781 C 134.5609893798828 86.78758239746094 134.8132171630859 87.26227569580078 134.9654846191406 87.78156280517578 L 137.2658843994141 95.62565612792969 L 104.2747268676758 98.36898803710938 Z" stroke="none" fill="#d9c9b9"/>
        </g>
        <path id="Path_119790" data-name="Path 119790" d="M61.172,146.336l2.352,28.289a2.411,2.411,0,0,0,2.6,2.2l36.69-3.051a2.039,2.039,0,0,0,1.863-2.2l-2.014-24.225a2.039,2.039,0,0,0-2.2-1.863l-36.69,3.051a2.411,2.411,0,0,1-2.6-2.2Z" transform="translate(-12682.321 -9676.979)" fill="#d9c9b9"/>
        <path id="Path_119791" data-name="Path 119791" d="M109.773,182.632l-1.445.111a.192.192,0,0,1-.132-.039.164.164,0,0,1-.063-.113.159.159,0,0,1,.042-.122.186.186,0,0,1,.123-.059l1.445-.111a.191.191,0,0,1,.132.039.164.164,0,0,1,.063.114.159.159,0,0,1-.042.122A.187.187,0,0,1,109.773,182.632Zm-3.852.3-1.445.111a.191.191,0,0,1-.132-.039.163.163,0,0,1-.063-.113.159.159,0,0,1,.042-.122.187.187,0,0,1,.123-.059l1.445-.111a.194.194,0,0,1,.071.007.186.186,0,0,1,.062.031.17.17,0,0,1,.044.051.157.157,0,0,1,.02.063.155.155,0,0,1-.008.065.166.166,0,0,1-.034.057.182.182,0,0,1-.056.041A.194.194,0,0,1,105.92,182.928Zm-3.852.3-1.445.111a.192.192,0,0,1-.132-.039.164.164,0,0,1-.063-.114.159.159,0,0,1,.042-.122.187.187,0,0,1,.123-.059l1.445-.111a.191.191,0,0,1,.131.039.163.163,0,0,1,.063.113.159.159,0,0,1-.042.122A.186.186,0,0,1,102.068,183.223Zm-3.852.3-1.445.111a.192.192,0,0,1-.132-.039.164.164,0,0,1-.063-.113.159.159,0,0,1,.042-.122.186.186,0,0,1,.123-.059l1.445-.111a.191.191,0,0,1,.132.039.163.163,0,0,1,.063.113.159.159,0,0,1-.042.121A.186.186,0,0,1,98.216,183.519Zm-3.852.3-1.445.111a.2.2,0,0,1-.071-.007.186.186,0,0,1-.062-.032.17.17,0,0,1-.044-.051.158.158,0,0,1-.02-.063.155.155,0,0,1,.008-.065.163.163,0,0,1,.035-.057.177.177,0,0,1,.056-.041.2.2,0,0,1,.068-.018l1.445-.111a.2.2,0,0,1,.071.007.185.185,0,0,1,.062.032.171.171,0,0,1,.044.051.158.158,0,0,1,.02.063.154.154,0,0,1-.008.065.164.164,0,0,1-.035.057.179.179,0,0,1-.056.041A.194.194,0,0,1,94.363,183.815Zm-3.852.3-1.445.111a.2.2,0,0,1-.071-.007.185.185,0,0,1-.062-.032.17.17,0,0,1-.044-.051.158.158,0,0,1-.02-.063.155.155,0,0,1,.008-.065.166.166,0,0,1,.035-.057.178.178,0,0,1,.056-.041.191.191,0,0,1,.068-.018l1.445-.111a.192.192,0,0,1,.132.039.163.163,0,0,1,.063.113.159.159,0,0,1-.042.122A.187.187,0,0,1,90.511,184.11Zm-3.852.3-1.445.111a.2.2,0,0,1-.071-.007.186.186,0,0,1-.062-.031.171.171,0,0,1-.044-.051.158.158,0,0,1-.02-.063.155.155,0,0,1,.008-.065.163.163,0,0,1,.034-.057.181.181,0,0,1,.056-.041.2.2,0,0,1,.068-.018l1.445-.111a.191.191,0,0,1,.132.039.163.163,0,0,1,.063.114.159.159,0,0,1-.042.122A.187.187,0,0,1,86.659,184.406Zm-3.852.3-1.445.111a.2.2,0,0,1-.071-.007.188.188,0,0,1-.062-.032.168.168,0,0,1-.044-.051.157.157,0,0,1-.02-.063.155.155,0,0,1,.008-.065.164.164,0,0,1,.034-.057.179.179,0,0,1,.056-.041.194.194,0,0,1,.068-.018l1.445-.111a.191.191,0,0,1,.132.039.163.163,0,0,1,.063.113.159.159,0,0,1-.042.122A.187.187,0,0,1,82.806,184.7Zm-3.852.3-1.445.111a.2.2,0,0,1-.071-.007.187.187,0,0,1-.062-.032.17.17,0,0,1-.044-.051.158.158,0,0,1-.02-.063.155.155,0,0,1,.008-.065.164.164,0,0,1,.034-.057.181.181,0,0,1,.056-.041.192.192,0,0,1,.068-.018l1.445-.111a.192.192,0,0,1,.132.039.163.163,0,0,1,.063.113.159.159,0,0,1-.042.122A.187.187,0,0,1,78.954,185Zm-3.852.3a2.664,2.664,0,0,1-1.5-.318.169.169,0,0,1-.083-.1.156.156,0,0,1,.02-.127.18.18,0,0,1,.111-.077.194.194,0,0,1,.137.018,2.269,2.269,0,0,0,1.271.273A.2.2,0,0,1,75.2,185a.168.168,0,0,1,.067.114.152.152,0,0,1-.006.064.158.158,0,0,1-.033.057.172.172,0,0,1-.054.041.187.187,0,0,1-.067.018Zm35.565-4.347a.191.191,0,0,1-.132-.039.163.163,0,0,1-.064-.114l-.12-1.333a.159.159,0,0,1,.043-.121.187.187,0,0,1,.123-.058.192.192,0,0,1,.132.039.163.163,0,0,1,.064.113l.12,1.333a.158.158,0,0,1-.042.122A.186.186,0,0,1,110.667,180.945Zm-.32-3.554a.191.191,0,0,1-.132-.039.163.163,0,0,1-.063-.114l-.12-1.333a.155.155,0,0,1,.008-.065.166.166,0,0,1,.034-.057.181.181,0,0,1,.055-.041.193.193,0,0,1,.068-.018.2.2,0,0,1,.071.007.184.184,0,0,1,.062.032.17.17,0,0,1,.044.051.158.158,0,0,1,.019.063l.12,1.333a.159.159,0,0,1-.042.122.187.187,0,0,1-.123.059Zm-.32-3.554a.192.192,0,0,1-.132-.039.163.163,0,0,1-.063-.114l-.12-1.333a.159.159,0,0,1,.043-.121.187.187,0,0,1,.123-.058.191.191,0,0,1,.132.039.163.163,0,0,1,.064.113l.12,1.333a.159.159,0,0,1-.042.122A.187.187,0,0,1,110.026,173.837Zm-.32-3.554a.191.191,0,0,1-.132-.039.163.163,0,0,1-.064-.114l-.12-1.333a.154.154,0,0,1,.008-.065.163.163,0,0,1,.034-.057.18.18,0,0,1,.055-.041.191.191,0,0,1,.068-.018.2.2,0,0,1,.07.007.186.186,0,0,1,.062.032.17.17,0,0,1,.044.051.156.156,0,0,1,.019.063l.12,1.333a.159.159,0,0,1-.042.122.186.186,0,0,1-.123.059Zm-.32-3.554a.191.191,0,0,1-.132-.039.164.164,0,0,1-.063-.114l-.12-1.333a.153.153,0,0,1,.008-.065.164.164,0,0,1,.034-.057.177.177,0,0,1,.055-.041.193.193,0,0,1,.068-.018.2.2,0,0,1,.071.007.187.187,0,0,1,.062.032.169.169,0,0,1,.044.051.158.158,0,0,1,.019.063l.12,1.333a.159.159,0,0,1-.042.122.186.186,0,0,1-.123.059Zm-.32-3.554a.192.192,0,0,1-.132-.039.163.163,0,0,1-.063-.114l-.12-1.333a.155.155,0,0,1,.008-.065.163.163,0,0,1,.034-.057.182.182,0,0,1,.055-.041.2.2,0,0,1,.139-.011.187.187,0,0,1,.062.032.171.171,0,0,1,.044.051.158.158,0,0,1,.019.063l.12,1.333a.159.159,0,0,1-.042.122A.187.187,0,0,1,109.065,163.175Zm-1.269-2.9-1.445.111a.2.2,0,0,1-.071-.007.185.185,0,0,1-.062-.031.169.169,0,0,1-.044-.051.157.157,0,0,1-.02-.063.155.155,0,0,1,.008-.065.162.162,0,0,1,.034-.057.181.181,0,0,1,.056-.041.194.194,0,0,1,.068-.018l1.445-.111a.191.191,0,0,1,.132.039.163.163,0,0,1,.063.113.159.159,0,0,1-.042.122A.186.186,0,0,1,107.8,160.276Zm-3.852.3-1.445.111a.2.2,0,0,1-.071-.007.187.187,0,0,1-.062-.032.17.17,0,0,1-.044-.051.158.158,0,0,1-.02-.063.155.155,0,0,1,.008-.065.163.163,0,0,1,.035-.057.179.179,0,0,1,.056-.041.191.191,0,0,1,.068-.018l1.445-.111a.191.191,0,0,1,.132.039.163.163,0,0,1,.063.113.159.159,0,0,1-.042.122.186.186,0,0,1-.123.059Zm-3.852.3-1.445.111a.194.194,0,0,1-.071-.007.186.186,0,0,1-.062-.032.172.172,0,0,1-.044-.051.155.155,0,0,1-.012-.128.166.166,0,0,1,.035-.057.181.181,0,0,1,.056-.041.194.194,0,0,1,.068-.018l1.445-.111a.2.2,0,0,1,.071.007.185.185,0,0,1,.062.032.17.17,0,0,1,.044.051.155.155,0,0,1,.012.128.163.163,0,0,1-.035.057.179.179,0,0,1-.056.041A.193.193,0,0,1,100.091,160.867Zm-3.852.3-1.445.111a.2.2,0,0,1-.071-.007.185.185,0,0,1-.062-.032.169.169,0,0,1-.044-.051.158.158,0,0,1-.02-.063.155.155,0,0,1,.008-.065.164.164,0,0,1,.035-.057.179.179,0,0,1,.056-.041.192.192,0,0,1,.068-.018l1.445-.111a.191.191,0,0,1,.132.039.163.163,0,0,1,.063.113.159.159,0,0,1-.042.122.186.186,0,0,1-.123.059Zm-3.852.3-1.445.111a.191.191,0,0,1-.132-.039.163.163,0,0,1-.063-.113.158.158,0,0,1,.042-.122.186.186,0,0,1,.123-.059l1.445-.111a.191.191,0,0,1,.132.039.163.163,0,0,1,.063.113.159.159,0,0,1-.042.122.187.187,0,0,1-.123.059Zm-3.852.3-1.445.111a.191.191,0,0,1-.132-.039.163.163,0,0,1-.063-.113.159.159,0,0,1,.042-.122.187.187,0,0,1,.123-.059l1.445-.111a.194.194,0,0,1,.071.007.186.186,0,0,1,.062.031.171.171,0,0,1,.044.051.158.158,0,0,1,.02.063.154.154,0,0,1-.008.065.164.164,0,0,1-.034.057.181.181,0,0,1-.056.041A.193.193,0,0,1,88.534,161.754Zm-3.852.3-1.445.111a.192.192,0,0,1-.132-.039.163.163,0,0,1-.063-.113.159.159,0,0,1,.042-.122.186.186,0,0,1,.123-.059l1.445-.111a.2.2,0,0,1,.071.007.186.186,0,0,1,.062.032.171.171,0,0,1,.044.051.158.158,0,0,1,.02.063.155.155,0,0,1-.008.065.166.166,0,0,1-.035.057.179.179,0,0,1-.056.041A.192.192,0,0,1,84.682,162.049Zm-3.852.3-1.445.111a.192.192,0,0,1-.132-.039.163.163,0,0,1-.063-.113.159.159,0,0,1,.042-.122.187.187,0,0,1,.123-.059l1.445-.111a.2.2,0,0,1,.071.007.188.188,0,0,1,.062.032.17.17,0,0,1,.044.051.158.158,0,0,1,.02.063.155.155,0,0,1-.008.065.163.163,0,0,1-.035.057.178.178,0,0,1-.056.041.194.194,0,0,1-.068.018Zm-3.852.3-1.445.111a.194.194,0,0,1-.071-.007.186.186,0,0,1-.062-.031.168.168,0,0,1-.044-.051.155.155,0,0,1-.012-.128.164.164,0,0,1,.034-.057.182.182,0,0,1,.056-.041.193.193,0,0,1,.068-.018l1.445-.111a.192.192,0,0,1,.132.039.163.163,0,0,1,.063.113.159.159,0,0,1-.042.122A.186.186,0,0,1,76.978,162.641Zm-3.852.3-.049,0a2.658,2.658,0,0,1-1.451-.3.17.17,0,0,1-.085-.1.156.156,0,0,1,.018-.127.18.18,0,0,1,.11-.078.2.2,0,0,1,.138.016,2.271,2.271,0,0,0,1.24.256l.049,0a.2.2,0,0,1,.07.007.188.188,0,0,1,.062.032.172.172,0,0,1,.044.051.158.158,0,0,1,.02.063.155.155,0,0,1-.008.065.165.165,0,0,1-.034.057.181.181,0,0,1-.056.041.194.194,0,0,1-.068.018Z" transform="translate(-12691.521 -9688.566)" fill="#f2e9df" stroke="#f3e9df" stroke-width="1"/>
        <path id="Path_119793" data-name="Path 119793" d="M339.194,239.32l8.168-.679a.627.627,0,0,1,.677.573l.547,6.577a.627.627,0,0,1-.573.677l-8.168.679a3.927,3.927,0,0,1-4.239-3.588h0a3.927,3.927,0,0,1,3.588-4.239Z" transform="translate(-12925.967 -9759.688)" fill="#f2e9df"/>
        <path id="Path_119794" data-name="Path 119794" d="M348.776,261.415a2.641,2.641,0,1,0-2.641-2.641A2.641,2.641,0,0,0,348.776,261.415Z" transform="translate(-12935.326 -9775.221)" fill="#d9c9b9"/>
      </g>
    </g>
    <g id="Group_46760" data-name="Group 46760" transform="translate(-122.338 170.307)">
      <g id="Group_46756" data-name="Group 46756" transform="translate(248 604)">
        <path id="tile_hexagon-3" data-name="tile_hexagon" d="M44.957,0a14,14,0,0,1,12.13,7.01L66.7,23.7a14,14,0,0,1,0,13.98L57.087,54.361a14,14,0,0,1-12.13,7.01H25.773a14,14,0,0,1-12.13-7.01L4.028,37.675a14,14,0,0,1,0-13.98L13.643,7.01A14,14,0,0,1,25.773,0Z" transform="translate(1.675 2.931)" fill="#a1c6be" opacity="0.29"/>
        <path id="tile_hexagon-4" data-name="tile_hexagon" d="M47.58,0a10,10,0,0,1,8.666,5.01l12.03,20.895a10,10,0,0,1,0,9.979L56.246,56.779a10,10,0,0,1-8.666,5.01H23.569a10,10,0,0,1-8.666-5.01L2.873,35.884a10,10,0,0,1,0-9.979L14.9,5.01A10,10,0,0,1,23.569,0Z" transform="translate(0 0)" fill="#f8f2ec"/>
      </g>
      <g id="Group_46758" data-name="Group 46758" transform="translate(264.755 618.992)">
        <path id="Path_119788-2" data-name="Path 119788" d="M63.253,136.088l-2.074-24.947a2.126,2.126,0,0,1,1.943-2.295l28.88-2.4a1.8,1.8,0,0,1,1.941,1.643l1.776,21.363a1.8,1.8,0,0,1-1.643,1.941l-28.88,2.4a2.126,2.126,0,0,0-1.943,2.295Z" transform="translate(-61.171 -104.509)" fill="#a1c6be"/>
        <g id="Path_119789-2" data-name="Path 119789" transform="translate(-99.863 -86.936)" fill="#e1e8e0">
          <path d="M 104.1918563842773 96.25724029541016 L 103.7759017944336 94.31778717041016 L 127.060791015625 86.09205627441406 C 127.3534622192383 85.98867797851562 127.6591796875 85.93625640869141 127.9694900512695 85.93625640869141 C 128.0298461914062 85.93625640869141 128.0909729003906 85.93830108642578 128.1511993408203 85.94231414794922 C 128.5232543945312 85.96718597412109 128.8801574707031 86.06589508056641 129.2120819091797 86.2357177734375 C 129.5440979003906 86.40558624267578 129.8329925537109 86.63736724853516 130.0707702636719 86.92461395263672 C 130.3085174560547 87.21176910400391 130.4822998046875 87.53879547119141 130.5872039794922 87.89653778076172 L 132.0074005126953 92.73920440673828 L 132.3523864746094 93.91558837890625 L 131.1306762695312 94.01717376708984 L 104.1918563842773 96.25724029541016 Z" stroke="none"/>
          <path d="M 104.1089859008789 95.26068115234375 L 131.0478057861328 93.02061462402344 L 129.6276245117188 88.17795562744141 C 129.5615539550781 87.95263671875 129.4501953125 87.74314117431641 129.3004455566406 87.56227111816406 C 129.1507263183594 87.38140106201172 128.9656829833984 87.23294067382812 128.7566070556641 87.12596893310547 C 128.5475463867188 87.01900482177734 128.3188934326172 86.95575714111328 128.0845947265625 86.94009399414062 C 127.8502807617188 86.92448425292969 127.6153106689453 86.95672607421875 127.3938827514648 87.03495025634766 L 104.1089859008789 95.26068115234375 M 104.2747268676758 97.25379943847656 L 103.4428100585938 93.37488555908203 L 126.7276992797852 85.14915466308594 C 127.2052841186523 84.98043823242188 127.7116470336914 84.91081237792969 128.2177124023438 84.94452667236328 C 128.7262725830078 84.97853088378906 129.2139892578125 85.11341857910156 129.6675567626953 85.34546661376953 C 130.1213073730469 85.57762908935547 130.5161285400391 85.89438629150391 130.8410949707031 86.28695678710938 C 131.1659545898438 86.67931365966797 131.4034271240234 87.12622833251953 131.5467987060547 87.61511993408203 L 133.6569671630859 94.81055450439453 L 104.2747268676758 97.25379943847656 Z" stroke="none" fill="#a1c6be"/>
        </g>
        <path id="Path_119790-2" data-name="Path 119790" d="M61.172,146.235l2.074,24.947a2.126,2.126,0,0,0,2.295,1.943l32.356-2.69a1.8,1.8,0,0,0,1.643-1.941L97.763,147.13a1.8,1.8,0,0,0-1.941-1.643l-32.356,2.69a2.126,2.126,0,0,1-2.295-1.943Z" transform="translate(-61.172 -139.692)" fill="#a1c6be"/>
        <path id="Path_119791-2" data-name="Path 119791" d="M105.255,179.952l-1.274.1a.169.169,0,0,1-.116-.035.145.145,0,0,1-.056-.1.14.14,0,0,1,.037-.107.164.164,0,0,1,.108-.052l1.274-.1a.169.169,0,0,1,.116.035.144.144,0,0,1,.056.1.141.141,0,0,1-.037.107A.165.165,0,0,1,105.255,179.952Zm-3.4.261-1.274.1a.168.168,0,0,1-.116-.035.144.144,0,0,1-.056-.1.14.14,0,0,1,.037-.107.165.165,0,0,1,.108-.052l1.274-.1a.172.172,0,0,1,.062.006.164.164,0,0,1,.055.028.15.15,0,0,1,.039.045.139.139,0,0,1,.017.055.136.136,0,0,1-.007.057.146.146,0,0,1-.03.05.16.16,0,0,1-.049.036A.171.171,0,0,1,101.858,180.213Zm-3.4.261-1.274.1a.169.169,0,0,1-.116-.035.144.144,0,0,1-.056-.1.14.14,0,0,1,.037-.107.165.165,0,0,1,.108-.052l1.274-.1a.168.168,0,0,1,.116.035.144.144,0,0,1,.056.1.14.14,0,0,1-.037.107A.164.164,0,0,1,98.461,180.473Zm-3.4.261-1.274.1a.169.169,0,0,1-.116-.035.144.144,0,0,1-.056-.1.14.14,0,0,1,.037-.107.164.164,0,0,1,.108-.052l1.274-.1a.168.168,0,0,1,.116.035.144.144,0,0,1,.056.1.14.14,0,0,1-.037.107A.164.164,0,0,1,95.063,180.734Zm-3.4.261-1.274.1a.175.175,0,0,1-.062-.006.163.163,0,0,1-.055-.028.15.15,0,0,1-.039-.045.14.14,0,0,1-.017-.056.136.136,0,0,1,.007-.057.144.144,0,0,1,.03-.05.156.156,0,0,1,.049-.036.172.172,0,0,1,.06-.016l1.274-.1a.174.174,0,0,1,.062.006.163.163,0,0,1,.055.028.151.151,0,0,1,.039.045.139.139,0,0,1,.017.056.136.136,0,0,1-.007.057.145.145,0,0,1-.03.05.158.158,0,0,1-.049.036A.171.171,0,0,1,91.666,180.994Zm-3.4.261-1.274.1a.172.172,0,0,1-.062-.006.163.163,0,0,1-.055-.028.15.15,0,0,1-.039-.045.139.139,0,0,1-.017-.055.137.137,0,0,1,.007-.057.146.146,0,0,1,.03-.05.157.157,0,0,1,.049-.036.169.169,0,0,1,.06-.016l1.274-.1a.169.169,0,0,1,.116.035.144.144,0,0,1,.056.1.14.14,0,0,1-.037.107A.165.165,0,0,1,88.269,181.255Zm-3.4.261-1.274.1a.172.172,0,0,1-.062-.006.164.164,0,0,1-.055-.028.151.151,0,0,1-.039-.045.139.139,0,0,1-.017-.055.137.137,0,0,1,.007-.057.144.144,0,0,1,.03-.05.16.16,0,0,1,.049-.036.171.171,0,0,1,.06-.016l1.274-.1a.169.169,0,0,1,.116.035.144.144,0,0,1,.056.1.14.14,0,0,1-.037.107A.165.165,0,0,1,84.872,181.515Zm-3.4.261-1.274.1a.175.175,0,0,1-.062-.006.166.166,0,0,1-.055-.028.148.148,0,0,1-.039-.045.138.138,0,0,1-.017-.056.136.136,0,0,1,.007-.057.145.145,0,0,1,.03-.05.158.158,0,0,1,.049-.036.171.171,0,0,1,.06-.016l1.274-.1a.168.168,0,0,1,.116.035.144.144,0,0,1,.056.1.14.14,0,0,1-.037.107A.165.165,0,0,1,81.475,181.776Zm-3.4.261-1.274.1a.172.172,0,0,1-.062-.006.164.164,0,0,1-.055-.028.15.15,0,0,1-.039-.045A.14.14,0,0,1,76.63,182a.137.137,0,0,1,.007-.057.145.145,0,0,1,.03-.05.159.159,0,0,1,.049-.036.169.169,0,0,1,.06-.016l1.274-.1a.169.169,0,0,1,.116.035.144.144,0,0,1,.056.1.14.14,0,0,1-.037.107A.165.165,0,0,1,78.077,182.037Zm-3.4.261a2.349,2.349,0,0,1-1.32-.28.149.149,0,0,1-.073-.09.138.138,0,0,1,.018-.112.159.159,0,0,1,.1-.067.171.171,0,0,1,.121.016,2,2,0,0,0,1.121.24.173.173,0,0,1,.118.034.148.148,0,0,1,.059.1.134.134,0,0,1-.006.057.139.139,0,0,1-.029.05.151.151,0,0,1-.048.036.165.165,0,0,1-.059.016Zm31.364-3.833a.169.169,0,0,1-.116-.034.144.144,0,0,1-.056-.1l-.106-1.175a.14.14,0,0,1,.038-.107.165.165,0,0,1,.108-.051.169.169,0,0,1,.116.034.144.144,0,0,1,.056.1l.106,1.175a.14.14,0,0,1-.037.107A.164.164,0,0,1,106.044,178.464Zm-.283-3.134a.169.169,0,0,1-.116-.034.144.144,0,0,1-.056-.1l-.106-1.175a.137.137,0,0,1,.007-.057.146.146,0,0,1,.03-.051.159.159,0,0,1,.049-.036.17.17,0,0,1,.06-.016.173.173,0,0,1,.062.007.162.162,0,0,1,.055.028.15.15,0,0,1,.039.045.139.139,0,0,1,.017.055l.106,1.175a.14.14,0,0,1-.037.107.165.165,0,0,1-.109.052Zm-.282-3.134a.169.169,0,0,1-.116-.034.144.144,0,0,1-.056-.1l-.106-1.175a.141.141,0,0,1,.038-.107.165.165,0,0,1,.108-.051.168.168,0,0,1,.116.034.144.144,0,0,1,.056.1l.106,1.175a.14.14,0,0,1-.037.107A.165.165,0,0,1,105.479,172.2Zm-.282-3.134a.169.169,0,0,1-.116-.034.144.144,0,0,1-.056-.1l-.106-1.175a.136.136,0,0,1,.007-.057.144.144,0,0,1,.03-.051.159.159,0,0,1,.049-.036.168.168,0,0,1,.06-.016.172.172,0,0,1,.062.007.165.165,0,0,1,.055.028.15.15,0,0,1,.039.045.138.138,0,0,1,.017.056l.106,1.175a.14.14,0,0,1-.037.107.164.164,0,0,1-.109.052Zm-.283-3.134a.169.169,0,0,1-.116-.034.144.144,0,0,1-.056-.1l-.106-1.175a.135.135,0,0,1,.007-.057.144.144,0,0,1,.03-.051.157.157,0,0,1,.049-.036.17.17,0,0,1,.06-.016.173.173,0,0,1,.062.007.165.165,0,0,1,.055.028.149.149,0,0,1,.039.045.139.139,0,0,1,.017.056l.106,1.175a.14.14,0,0,1-.037.107.164.164,0,0,1-.109.052Zm-.282-3.134a.169.169,0,0,1-.116-.034.144.144,0,0,1-.056-.1l-.106-1.175a.137.137,0,0,1,.007-.057.144.144,0,0,1,.03-.051.16.16,0,0,1,.049-.036.173.173,0,0,1,.122-.009.165.165,0,0,1,.055.028.151.151,0,0,1,.039.045.139.139,0,0,1,.017.056l.106,1.175a.14.14,0,0,1-.037.108A.165.165,0,0,1,104.631,162.794Zm-1.119-2.557-1.274.1a.172.172,0,0,1-.062-.006.163.163,0,0,1-.055-.028.149.149,0,0,1-.039-.045.138.138,0,0,1-.017-.056.136.136,0,0,1,.007-.057.143.143,0,0,1,.03-.05.16.16,0,0,1,.049-.036.171.171,0,0,1,.06-.016l1.274-.1a.168.168,0,0,1,.116.035.144.144,0,0,1,.056.1.14.14,0,0,1-.037.107A.164.164,0,0,1,103.512,160.237Zm-3.4.261-1.274.1a.175.175,0,0,1-.062-.006.165.165,0,0,1-.055-.028.15.15,0,0,1-.039-.045.14.14,0,0,1-.017-.055.137.137,0,0,1,.007-.057.143.143,0,0,1,.03-.05.157.157,0,0,1,.049-.036.169.169,0,0,1,.06-.016l1.274-.1a.169.169,0,0,1,.116.035.144.144,0,0,1,.056.1.14.14,0,0,1-.037.107.164.164,0,0,1-.108.052Zm-3.4.261-1.274.1a.171.171,0,0,1-.062-.006.163.163,0,0,1-.055-.028.151.151,0,0,1-.039-.045.137.137,0,0,1-.01-.113.147.147,0,0,1,.03-.05.16.16,0,0,1,.049-.036.171.171,0,0,1,.06-.016l1.274-.1a.172.172,0,0,1,.062.006.163.163,0,0,1,.055.028.15.15,0,0,1,.039.045.137.137,0,0,1,.01.113.144.144,0,0,1-.03.05.158.158,0,0,1-.049.036A.17.17,0,0,1,96.718,160.758Zm-3.4.261-1.274.1a.173.173,0,0,1-.062-.006.163.163,0,0,1-.055-.028.149.149,0,0,1-.039-.045.139.139,0,0,1-.017-.055.136.136,0,0,1,.007-.057.145.145,0,0,1,.03-.05.158.158,0,0,1,.049-.036.169.169,0,0,1,.06-.016l1.274-.1a.168.168,0,0,1,.116.035.144.144,0,0,1,.056.1.14.14,0,0,1-.037.107.164.164,0,0,1-.108.052Zm-3.4.261-1.274.1a.168.168,0,0,1-.116-.035.144.144,0,0,1-.056-.1.14.14,0,0,1,.037-.107.164.164,0,0,1,.108-.052l1.274-.1a.169.169,0,0,1,.116.035.144.144,0,0,1,.056.1.14.14,0,0,1-.037.107.165.165,0,0,1-.108.052Zm-3.4.261-1.274.1a.169.169,0,0,1-.116-.035.144.144,0,0,1-.056-.1.14.14,0,0,1,.037-.107.165.165,0,0,1,.108-.052l1.274-.1a.171.171,0,0,1,.062.006.164.164,0,0,1,.055.028.151.151,0,0,1,.039.045.139.139,0,0,1,.017.055.136.136,0,0,1-.007.057.145.145,0,0,1-.03.05.16.16,0,0,1-.049.036A.17.17,0,0,1,86.526,161.54Zm-3.4.261-1.274.1a.169.169,0,0,1-.116-.035.144.144,0,0,1-.056-.1.14.14,0,0,1,.037-.107.164.164,0,0,1,.108-.052l1.274-.1a.173.173,0,0,1,.062.006.164.164,0,0,1,.055.028.151.151,0,0,1,.039.045.139.139,0,0,1,.017.055.137.137,0,0,1-.007.057.146.146,0,0,1-.03.05.158.158,0,0,1-.049.036A.169.169,0,0,1,83.129,161.8Zm-3.4.261-1.274.1a.169.169,0,0,1-.116-.035.144.144,0,0,1-.056-.1.14.14,0,0,1,.037-.107.165.165,0,0,1,.108-.052l1.274-.1a.175.175,0,0,1,.062.006.166.166,0,0,1,.055.028.15.15,0,0,1,.039.045.139.139,0,0,1,.017.056.136.136,0,0,1-.007.057.144.144,0,0,1-.03.05.157.157,0,0,1-.049.036.171.171,0,0,1-.06.016Zm-3.4.261-1.274.1a.171.171,0,0,1-.062-.006.163.163,0,0,1-.055-.028.148.148,0,0,1-.039-.045.137.137,0,0,1-.01-.113.145.145,0,0,1,.03-.05.16.16,0,0,1,.049-.036.17.17,0,0,1,.06-.016l1.274-.1a.169.169,0,0,1,.116.035.144.144,0,0,1,.056.1.14.14,0,0,1-.037.107A.164.164,0,0,1,76.334,162.322Zm-3.4.261-.043,0a2.344,2.344,0,0,1-1.28-.264.15.15,0,0,1-.075-.089.138.138,0,0,1,.016-.112.159.159,0,0,1,.1-.069.172.172,0,0,1,.121.015,2,2,0,0,0,1.094.226l.043,0a.174.174,0,0,1,.062.006.166.166,0,0,1,.055.028.151.151,0,0,1,.039.045.139.139,0,0,1,.017.055.136.136,0,0,1-.007.057.145.145,0,0,1-.03.05.16.16,0,0,1-.049.036.171.171,0,0,1-.06.016Z" transform="translate(-70.509 -151.618)" fill="#e1e8e0" stroke="#e1e8e0" stroke-width="1"/>
        <path id="Path_119793-2" data-name="Path 119793" d="M338.769,239.24l7.2-.6a.553.553,0,0,1,.6.505l.482,5.8a.553.553,0,0,1-.505.6l-7.2.6a3.463,3.463,0,0,1-3.738-3.164h0a3.463,3.463,0,0,1,3.164-3.738Z" transform="translate(-308.453 -223.635)" fill="#e1e8e0"/>
        <path id="Path_119794-2" data-name="Path 119794" d="M348.464,260.791a2.329,2.329,0,1,0-2.329-2.329A2.329,2.329,0,0,0,348.464,260.791Z" transform="translate(-317.952 -239.399)" fill="#a1c6be"/>
      </g>
    </g>
    <g id="Group_46557" data-name="Group 46557" transform="translate(14.564 112.41)">
      <path id="Path_119675" data-name="Path 119675" d="M202.4,66.129a5.221,5.221,0,0,1-5.215-5.215,1.31,1.31,0,0,0-1.313-1.287,1.287,1.287,0,0,0-1.287,1.287,5.247,5.247,0,0,1-5.241,5.241,1.287,1.287,0,1,0,0,2.575,5.247,5.247,0,0,1,5.241,5.241,1.287,1.287,0,0,0,2.575,0A5.247,5.247,0,0,1,202.4,68.73a1.31,1.31,0,0,0,1.287-1.314,1.288,1.288,0,0,0-1.287-1.287Z" transform="translate(-138.229 571.47)" fill="#b8b6d0" opacity="0.6"/>
      <path id="Path_119676" data-name="Path 119676" d="M148.224,398.3a5.221,5.221,0,0,1,0-7.375,1.31,1.31,0,0,0-.018-1.839,1.287,1.287,0,0,0-1.821,0,5.247,5.247,0,0,1-7.412,0,1.287,1.287,0,1,0-1.821,1.821,5.247,5.247,0,0,1,0,7.412,1.287,1.287,0,0,0,1.821,1.821,5.247,5.247,0,0,1,7.412,0,1.31,1.31,0,0,0,1.839-.019,1.287,1.287,0,0,0,0-1.821Z" transform="translate(23.767 106.923)" fill="#edbe9b" opacity="0.6"/>
      <path id="Path_119677" data-name="Path 119677" d="M341.21,252.483a5.221,5.221,0,0,1,0-7.375,1.31,1.31,0,0,0-.019-1.839,1.288,1.288,0,0,0-1.821,0,5.247,5.247,0,0,1-7.412,0,1.287,1.287,0,0,0-1.821,1.821,5.247,5.247,0,0,1,0,7.412,1.287,1.287,0,1,0,1.821,1.821,5.247,5.247,0,0,1,7.412,0,1.31,1.31,0,0,0,1.839-.018,1.288,1.288,0,0,0,0-1.821Z" transform="translate(-243.119 466.3)" fill="#dad1a9" opacity="0.6"/>
    </g>
  </g>
</svg>
