<svg xmlns="http://www.w3.org/2000/svg" xmlns:xlink="http://www.w3.org/1999/xlink" width="145.635" height="154.038" viewBox="0 0 145.635 154.038">
  <defs>
    <linearGradient id="linear-gradient" x1="0.5" x2="0.5" y2="1" gradientUnits="objectBoundingBox">
      <stop offset="0" stop-color="#b17f44"/>
      <stop offset="1" stop-color="#6e4a35"/>
    </linearGradient>
  </defs>
  <g id="emptystate" transform="translate(-115 -446.962)">
    <g id="Group_39521" data-name="Group 39521" transform="translate(115 543.962)" opacity="0.272">
      <circle id="Ellipse_1999" data-name="Ellipse 1999" cx="24.45" cy="24.45" r="24.45" transform="translate(6.377)" fill="url(#linear-gradient)"/>
      <path id="Path_25533" data-name="Path 25533" d="M2.095,4.189A2.095,2.095,0,1,0,0,2.095,2.095,2.095,0,0,0,2.095,4.189Z" transform="translate(38.535 51.146) rotate(39)" fill="url(#linear-gradient)"/>
      <path id="Path_25534" data-name="Path 25534" d="M1.43,2.861A1.43,1.43,0,1,0,0,1.43,1.431,1.431,0,0,0,1.43,2.861Z" transform="translate(45.741 48.174) rotate(39)" fill="url(#linear-gradient)"/>
      <path id="Path_25535" data-name="Path 25535" d="M14.94,5.571a2.656,2.656,0,1,0-2.656-2.656A2.656,2.656,0,0,0,14.94,5.571Z" transform="translate(-12.284 12.084)" fill="url(#linear-gradient)"/>
    </g>
    <g id="Group_39802" data-name="Group 39802" transform="translate(158.131 451.573)">
      <path id="Path_27341" data-name="Path 27341" d="M143.652,78.7l-1.353-.982q.482-.664.943-1.346l1.386.935Q144.151,78.017,143.652,78.7Zm1.9-2.819L144.137,75q.435-.7.848-1.408l1.446.838Q146,75.165,145.554,75.886Zm1.7-2.942-1.475-.787q.386-.724.749-1.462l1.5.736Q147.658,72.194,147.258,72.943Zm1.5-3.053-1.525-.684q.335-.747.646-1.51l1.548.631Q149.1,69.116,148.755,69.89Zm1.284-3.149-1.57-.576q.282-.77.541-1.552l1.588.522Q150.331,65.944,150.039,66.741ZM151.1,63.51l-1.605-.466q.229-.787.432-1.586l1.62.412Q151.339,62.7,151.1,63.51Zm.837-3.3-1.634-.355q.174-.8.322-1.611l1.645.3Q152.119,59.386,151.939,60.214Zm.609-3.346-1.654-.243q.119-.81.211-1.63l1.661.187Q152.672,56.03,152.548,56.868Zm.38-3.378-1.666-.131q.033-.421.059-.843.024-.4.042-.8l1.67.074q-.018.413-.044.826Q152.962,53.054,152.928,53.49Zm.152-3.4-1.672-.018q0-.26,0-.519c0-.375,0-.75-.013-1.123l1.671-.04q.014.58.014,1.162C153.082,49.734,153.082,49.913,153.08,50.092Zm-1.749-3.3q-.047-.822-.122-1.637L152.874,45q.077.844.127,1.7Zm-.3-3.271q-.1-.817-.234-1.625l1.65-.267q.135.837.242,1.682Zm-.525-3.242q-.159-.807-.346-1.605l1.627-.381q.193.826.359,1.662Zm-.748-3.2q-.214-.794-.456-1.578l1.6-.491q.249.811.472,1.633ZM57.784,35.115l-1.594-.5q.258-.814.542-1.617l1.575.56Q58.033,34.327,57.784,35.115Zm91.01-1.17q-.268-.775-.562-1.538l1.56-.6q.3.79.582,1.593ZM58.885,32.011,57.329,31.4q.313-.794.652-1.574l1.533.666Q59.188,31.244,58.885,32.011Zm88.732-1.123q-.322-.755-.667-1.5l1.516-.706q.358.767.69,1.549ZM60.2,28.993l-1.509-.72q.367-.77.759-1.524l1.483.771Q60.552,28.25,60.2,28.993Zm86.036-1.077q-.372-.732-.768-1.448l1.463-.809q.41.742.8,1.5ZM61.714,26.073l-1.456-.822q.419-.742.862-1.468l1.427.871Q62.118,25.357,61.714,26.073Zm82.933-1.028q-.422-.7-.866-1.394l1.405-.906q.46.713.9,1.442ZM63.428,23.266l-1.4-.92q.469-.711.96-1.4l1.364.966Q63.881,22.579,63.428,23.266Zm79.439-.979q-.468-.674-.959-1.332l1.34-1q.508.681.992,1.378Zm-77.537-1.7L64,19.571q.516-.677,1.054-1.335l1.294,1.058Q65.829,19.93,65.33,20.584Zm75.573-.929q-.513-.641-1.048-1.264l1.268-1.089q.553.644,1.084,1.308ZM67.41,18.04l-1.257-1.1q.561-.639,1.142-1.26l1.219,1.144Q67.952,17.422,67.41,18.04Zm71.354-.876q-.556-.6-1.132-1.19l1.191-1.173q.6.606,1.172,1.232Zm-69.105-1.52L68.48,14.459q.6-.6,1.225-1.179L70.843,14.5Q70.242,15.064,69.659,15.643Zm66.8-.822q-.6-.566-1.211-1.111l1.108-1.251q.637.564,1.254,1.15ZM72.065,13.406l-1.1-1.262q.642-.557,1.3-1.092l1.052,1.3Q72.685,12.868,72.065,13.406ZM134,12.641q-.633-.524-1.285-1.026l1.021-1.324q.674.519,1.329,1.061Zm-59.383-1.3L73.61,10q.678-.512,1.373-1l.96,1.368Q75.272,10.844,74.618,11.339Zm56.779-.705q-.668-.479-1.353-.936l.928-1.391q.709.472,1.4.968ZM77.3,9.451l-.914-1.4q.711-.464,1.438-.9l.865,1.43Q77.991,9,77.3,9.451Zm51.356-.643q-.7-.432-1.414-.841l.829-1.451q.74.423,1.464.871ZM80.112,7.751,79.3,6.292q.74-.414,1.5-.8l.767,1.486Q80.828,7.35,80.112,7.751ZM125.8,7.175q-.728-.383-1.469-.742l.728-1.5q.767.372,1.521.768ZM83.028,6.247l-.715-1.511q.766-.363,1.546-.7l.663,1.535Q83.768,5.9,83.028,6.247Zm39.811-.505q-.751-.333-1.518-.639l.622-1.552q.792.318,1.571.662Zm-36.8-.794-.61-1.557q.789-.308,1.591-.591l.556,1.576Q86.8,4.649,86.039,4.948Zm33.743-.432q-.771-.278-1.554-.531l.513-1.591q.811.262,1.608.549ZM89.13,3.859l-.5-1.6q.808-.253,1.626-.48L90.7,3.395Q89.911,3.614,89.13,3.859Zm27.526-.35q-.788-.224-1.587-.422l.4-1.622q.827.205,1.643.437ZM92.288,2.985,91.9,1.36q.825-.2,1.66-.367l.333,1.638Q93.085,2.794,92.288,2.985Zm21.18-.266q-.8-.169-1.612-.312L112.145.76q.84.148,1.669.324ZM95.506,2.331,95.229.682Q96.066.541,96.91.43l.219,1.657Q96.314,2.2,95.506,2.331Zm14.728-.182q-.811-.114-1.63-.2L108.78.284q.848.09,1.686.209ZM98.762,1.9,98.6.235Q99.443.153,100.294.1l.1,1.669Q99.577,1.819,98.762,1.9Zm8.2-.1q-.284-.021-.569-.038-.536-.032-1.071-.053l.065-1.671q.553.021,1.107.055.3.018.591.039Zm-4.926-.108L101.991.021Q102.712,0,103.436,0h.254l-.005,1.672h-.249Q102.736,1.672,102.04,1.692Z" transform="translate(-56.19)" fill="#40342a"/>
    </g>
    <g id="Group_39804" data-name="Group 39804" transform="translate(168.198 446.962)" opacity="0.272">
      <circle id="Ellipse_1999-2" data-name="Ellipse 1999" cx="38.602" cy="38.602" r="38.602" transform="translate(0 13.861)" fill="url(#linear-gradient)"/>
      <path id="Path_25533-2" data-name="Path 25533" d="M3.307,6.614A3.307,3.307,0,1,0,0,3.307,3.307,3.307,0,0,0,3.307,6.614Z" transform="translate(84.121 83.456) rotate(39)" fill="url(#linear-gradient)"/>
      <path id="Path_25534-2" data-name="Path 25534" d="M2.258,4.517A2.258,2.258,0,1,0,0,2.258,2.259,2.259,0,0,0,2.258,4.517Z" transform="translate(88.927 75.587) rotate(39)" fill="url(#linear-gradient)"/>
      <path id="Path_25535-2" data-name="Path 25535" d="M16.478,8.647a4.194,4.194,0,1,0-4.194-4.194A4.194,4.194,0,0,0,16.478,8.647Z" transform="translate(-5.273 -0.259)" fill="url(#linear-gradient)"/>
    </g>
    <path id="Path_25553" data-name="Path 25553" d="M76.607,119.3l-.138-.046A53.569,53.569,0,0,1,32.6,66.532V29.444L76.607,12.1l44.007,17.344V66.578A53.606,53.606,0,0,1,76.745,119.3Z" transform="translate(113.973 465.791)" fill="#F6F2ED"/>
    <circle id="Ellipse_2079" data-name="Ellipse 2079" cx="24.5" cy="24.5" r="24.5" transform="translate(165.638 503.962)" fill="#F6F2ED"/>
    <g id="Group_39528" data-name="Group 39528" transform="translate(146.573 477.891)">
      <path id="Path_25553-2" data-name="Path 25553" d="M76.607,119.3l-.138-.046A53.569,53.569,0,0,1,32.6,66.532V29.444L76.607,12.1l44.007,17.344V66.578A53.606,53.606,0,0,1,76.745,119.3ZM34.076,30.459V66.578a52.064,52.064,0,0,0,42.531,51.2,52.108,52.108,0,0,0,42.531-51.2V30.459L76.607,13.715Z" transform="translate(-32.6 -12.1)" fill="#40342a"/>
    </g>
    <path id="Union_27" data-name="Union 27" d="M40.64,0,0,16.007V50.834a50.217,50.217,0,0,0,40.64,49.312,50.217,50.217,0,0,0,40.64-49.312V16.007Zm.369,70.623a23.2,23.2,0,1,1,23.2-23.2A23.191,23.191,0,0,1,41.009,70.623Z" transform="translate(149.941 481.535)" fill="url(#linear-gradient)"/>
    <g id="Group_39530" data-name="Group 39530" transform="translate(166.962 504.923)">
      <path id="Path_25555" data-name="Path 25555" d="M100.787,118.674a23.987,23.987,0,1,1,23.987-23.987A24.028,24.028,0,0,1,100.787,118.674Zm0-46.452a22.465,22.465,0,1,0,22.465,22.465A22.463,22.463,0,0,0,100.787,72.222Z" transform="translate(-76.8 -70.7)" fill="#40342a"/>
    </g>
    <path id="Path_25556" data-name="Path 25556" d="M103.858,119.169c-.507,0-1.015,0-1.568-.046l.092-1.476c.738.046,1.476.046,2.214.046l.046,1.476Zm2.4-.092-.185-1.476c.461-.046.969-.138,1.43-.231l.277,1.476C107.271,118.939,106.764,118.985,106.256,119.077Zm-5.489-.092-1.522-.277.323-1.476c.461.092.923.185,1.43.277Zm8.534-.507-.369-1.43,1.384-.415.507,1.43Q109.993,118.27,109.3,118.477Zm-11.578-.185c-.507-.138-.969-.323-1.476-.507L96.8,116.4c.461.185.923.323,1.384.461Zm14.484-.83-.6-1.384c.461-.185.876-.415,1.292-.6l.692,1.338A12.688,12.688,0,0,1,112.207,117.462Zm-17.344-.277-1.384-.692.738-1.292a11.238,11.238,0,0,0,1.292.646Zm20.112-1.107-.784-1.292a10.733,10.733,0,0,0,1.2-.784l.876,1.2C115.851,115.525,115.39,115.8,114.975,116.079Zm-22.834-.415c-.415-.277-.876-.6-1.245-.876l.923-1.2c.369.277.784.554,1.153.83Zm25.325-1.384-.969-1.153c.369-.323.738-.646,1.061-.969l1.015,1.061A8.086,8.086,0,0,1,117.466,114.28Zm-27.77-.507c-.369-.323-.738-.692-1.107-1.061l1.061-1.061c.323.323.692.692,1.061,1.015Zm30.03-1.661-1.107-1.015c.323-.369.646-.738.923-1.107l1.2.923C120.418,111.327,120.049,111.742,119.726,112.112Zm-32.2-.554c-.323-.415-.646-.784-.969-1.2l1.2-.876c.277.369.6.784.876,1.153Zm34.089-1.891-1.245-.83c.277-.415.507-.83.738-1.245l1.292.738A12.71,12.71,0,0,1,121.617,109.667Zm-35.934-.6c-.277-.415-.507-.876-.784-1.338l1.338-.692c.231.415.461.83.738,1.245Zm37.457-2.076-1.338-.646a11.608,11.608,0,0,0,.554-1.338l1.384.554A9.435,9.435,0,0,1,123.14,106.991ZM84.253,106.3c-.185-.461-.415-.969-.554-1.43l1.43-.507a11.478,11.478,0,0,0,.507,1.338Zm40.04-2.214-1.43-.461c.138-.461.277-.923.369-1.384l1.476.323Zm-41.055-.692c-.138-.507-.231-1.015-.369-1.522l1.476-.277c.092.461.185.923.323,1.384Zm41.747-2.306-1.476-.231c.092-.461.138-.969.185-1.43l1.476.138C125.123,100.026,125.031,100.579,124.985,101.087Zm-42.346-.738L82.5,98.826l1.476-.046a7.51,7.51,0,0,0,.138,1.43ZM125.215,98h-1.476v-.138a12.089,12.089,0,0,0-.046-1.292l1.476-.092c.046.461.046.923.046,1.384ZM83.976,97.3,82.5,97.258c0-.507.046-1.015.092-1.568l1.476.138C84.022,96.335,84.022,96.843,83.976,97.3Zm39.532-2.214c-.046-.461-.138-.969-.231-1.43l1.476-.323.277,1.522ZM84.3,94.444l-1.476-.277c.092-.507.185-1.015.323-1.522l1.43.369C84.484,93.475,84.345,93.983,84.3,94.444Zm38.61-2.168c-.138-.461-.277-.923-.461-1.384l1.384-.507c.185.461.323.969.507,1.476ZM84.991,91.63l-1.43-.461a9.605,9.605,0,0,1,.554-1.476l1.384.554C85.314,90.708,85.129,91.169,84.991,91.63Zm36.949-2.076c-.185-.415-.415-.876-.646-1.292l1.292-.738.692,1.384Zm-35.842-.6-1.338-.692c.231-.461.461-.923.738-1.384l1.292.784A12.007,12.007,0,0,0,86.1,88.955Zm34.458-1.891c-.277-.415-.554-.784-.83-1.2l1.2-.923a12.681,12.681,0,0,1,.876,1.292ZM87.574,86.51l-1.245-.876c.277-.415.6-.83.923-1.245l1.153.923C88.128,85.726,87.8,86.095,87.574,86.51ZM118.8,84.757c-.323-.369-.646-.692-.969-1.061l1.061-1.061c.369.369.738.738,1.061,1.107Zm-29.43-.507-1.107-1.015,1.107-1.107,1.015,1.107C90.019,83.558,89.7,83.927,89.373,84.25Zm27.354-1.522c-.369-.323-.738-.6-1.107-.876l.876-1.2c.415.323.83.646,1.2.969ZM91.5,82.312l-.923-1.153c.415-.323.83-.646,1.245-.923l.83,1.245A6.63,6.63,0,0,0,91.5,82.312Zm22.926-1.292c-.415-.277-.83-.507-1.245-.738l.692-1.338a12.707,12.707,0,0,1,1.338.784Zm-20.573-.369L93.11,79.36c.461-.277.923-.507,1.384-.738l.646,1.338C94.678,80.19,94.263,80.421,93.848,80.652Zm18.036-1.015c-.415-.185-.876-.369-1.338-.554l.507-1.43a13.284,13.284,0,0,1,1.43.6Zm-15.453-.231-.554-1.384a13.863,13.863,0,0,1,1.476-.507l.461,1.43A8.119,8.119,0,0,0,96.431,79.406Zm12.732-.738c-.461-.138-.923-.231-1.384-.323l.277-1.476c.507.092,1.015.231,1.522.369ZM99.2,78.53l-.369-1.476c.507-.138,1.015-.231,1.522-.323l.231,1.476C100.121,78.3,99.66,78.391,99.2,78.53Zm7.15-.415c-.461-.046-.969-.092-1.43-.138l.092-1.476,1.522.138Zm-4.336-.046-.138-1.476c.507-.046,1.015-.092,1.568-.092l.046,1.476C102.981,77.976,102.52,78.022,102.013,78.068Z" transform="translate(87.092 431.098)" fill="#40342a"/>
    <g id="Group_40048" data-name="Group 40048" transform="translate(187.509 525.622)">
      <g id="Group_40047" data-name="Group 40047">
        <path id="Path_27893" data-name="Path 27893" d="M210.79,228.458a3.876,3.876,0,1,0,3.875,3.876A3.881,3.881,0,0,0,210.79,228.458Zm0,6.919a3.043,3.043,0,1,1,3.043-3.043A3.047,3.047,0,0,1,210.79,235.377Z" transform="translate(-206.913 -228.458)" fill="#F6F2ED"/>
      </g>
    </g>
    <g id="repeat-1" transform="translate(179.868 539.721) rotate(-90)">
      <path id="Combined_Shape" data-name="Combined Shape" d="M4.744,22.771.272,18.422a.905.905,0,0,1-.03-1.263l.026-.031,4.478-4.35a.59.59,0,0,1,.192-.121.574.574,0,0,1,.443.012.565.565,0,0,1,.185.132.6.6,0,0,1,.164.409v2.846h9.954a1.145,1.145,0,0,0,1.125-.922l.028-.145a1.63,1.63,0,0,1,3.227.319v.747a3.44,3.44,0,0,1-3.44,3.44H5.73v2.844a.591.591,0,0,1-.043.226.583.583,0,0,1-.315.323.6.6,0,0,1-.225.048A.578.578,0,0,1,4.744,22.771ZM16.621,10.317a.572.572,0,0,1-.406-.181.6.6,0,0,1-.164-.411V6.881H6.1A1.147,1.147,0,0,0,4.972,7.8l-.028.144a1.629,1.629,0,0,1-3.227-.319V6.881a3.44,3.44,0,0,1,3.44-3.44H16.051V.595A.591.591,0,0,1,16.22.176.594.594,0,0,1,16.634,0a.577.577,0,0,1,.4.164L21.51,4.513a.906.906,0,0,1,.029,1.263l-.029.031-4.476,4.348a.576.576,0,0,1-.4.161Z" transform="translate(0)" fill="#423329"/>
    </g>
  </g>
</svg>
