<svg width="224" height="177" viewBox="0 0 224 177" fill="none" xmlns="http://www.w3.org/2000/svg">
<path opacity="0.4" d="M168.735 9.02344C171.554 9.02346 174.323 9.76611 176.764 11.1766C179.205 12.5871 181.231 14.6158 182.638 17.0582L221.787 84.9965C223.192 87.4332 223.931 90.1961 223.931 93.0084C223.931 95.8207 223.192 98.5836 221.787 101.02L182.638 168.959C181.231 171.401 179.205 173.43 176.764 174.84C174.323 176.251 171.554 176.993 168.735 176.993H90.4889C87.6699 176.993 84.9006 176.251 82.4599 174.84C80.0191 173.43 77.993 171.401 76.5856 168.959L37.4362 101.02C36.0321 98.5836 35.293 95.8207 35.293 93.0084C35.293 90.1961 36.0321 87.4332 37.4362 84.9965L76.5856 17.0582C77.993 14.6158 80.0191 12.5871 82.4599 11.1766C84.9006 9.76611 87.6699 9.02346 90.4889 9.02344H168.735Z" fill="#787878"/>
<path d="M167.657 1C169.672 1 171.65 1.5308 173.394 2.53892C175.138 3.54704 176.585 4.99689 177.59 6.74242L219.674 79.8386C220.675 81.5781 221.203 83.5502 221.203 85.5575C221.203 87.5648 220.675 89.5368 219.674 91.2764L177.59 164.373C176.585 166.118 175.138 167.568 173.394 168.576C171.65 169.584 169.672 170.115 167.657 170.115H83.5452C81.531 170.115 79.5523 169.584 77.8085 168.576C76.0647 167.568 74.6174 166.118 73.6123 164.373L31.5287 91.2764C30.5271 89.5368 30 87.5648 30 85.5575C30 83.5502 30.5271 81.5781 31.5287 79.8386L73.6123 6.74242C74.6174 4.99689 76.0647 3.54704 77.8085 2.53892C79.5523 1.5308 81.531 1 83.5452 1L167.657 1Z" fill="#333333"/>
<path opacity="0.6" d="M16.5179 25.4872C14.9257 25.4854 13.3992 24.8521 12.2733 23.7263C11.1475 22.6005 10.5142 21.0741 10.5123 19.482C10.5054 19.0859 10.3429 18.7085 10.06 18.4312C9.77708 18.1539 9.39643 17.999 9.00028 18C8.6072 18 8.23024 18.1561 7.95229 18.4341C7.67434 18.712 7.51819 19.089 7.51819 19.482C7.51636 21.0821 6.87988 22.6161 5.7484 23.7475C4.61692 24.8789 3.08282 25.5153 1.48267 25.5171C1.08944 25.5171 0.712311 25.6733 0.434255 25.9514C0.156199 26.2294 0 26.6065 0 26.9997C0 27.3929 0.156199 27.77 0.434255 28.0481C0.712311 28.3261 1.08944 28.4823 1.48267 28.4823C3.08282 28.4841 4.61692 29.1206 5.7484 30.252C6.87988 31.3834 7.51636 32.9174 7.51819 34.5174C7.51819 34.9106 7.67439 35.2877 7.95245 35.5658C8.2305 35.8438 8.60763 36 9.00086 36C9.39409 36 9.77121 35.8438 10.0493 35.5658C10.3273 35.2877 10.4835 34.9106 10.4835 34.5174C10.4854 32.9176 11.1217 31.3837 12.2529 30.2524C13.3841 29.121 14.9179 28.4844 16.5179 28.4823C16.9142 28.4753 17.2918 28.3127 17.5692 28.0296C17.8465 27.7464 18.0013 27.3655 18 26.9692C17.9997 26.5762 17.8434 26.1995 17.5656 25.9216C17.2877 25.6437 16.9109 25.4875 16.5179 25.4872Z" fill="#B8B6D0"/>
<path opacity="0.6" d="M48.6171 162.747C47.6262 161.752 47.0698 160.405 47.0698 159C47.0698 157.595 47.6262 156.247 48.6171 155.252C48.8597 155.001 48.9938 154.664 48.9904 154.314C48.987 153.964 48.8463 153.63 48.5988 153.384C48.4775 153.262 48.3335 153.165 48.175 153.1C48.0165 153.034 47.8465 153 47.6749 153C47.5033 153 47.3334 153.034 47.1749 153.1C47.0164 153.165 46.8724 153.262 46.7511 153.384C45.753 154.381 44.4007 154.941 42.9907 154.941C41.5808 154.941 40.2285 154.381 39.2304 153.384C38.9854 153.138 38.653 153 38.3065 153C37.96 153 37.6277 153.138 37.3827 153.384C37.1376 153.629 37 153.962 37 154.309C37 154.656 37.1376 154.989 37.3827 155.234C38.3785 156.234 38.9378 157.588 38.9378 159C38.9378 160.412 38.3785 161.767 37.3827 162.766C37.1376 163.012 37 163.344 37 163.691C37 164.039 37.1376 164.371 37.3827 164.617C37.6277 164.862 37.96 165 38.3065 165C38.653 165 38.9854 164.862 39.2304 164.617C40.2285 163.619 41.5808 163.059 42.9907 163.059C44.4007 163.059 45.753 163.619 46.7511 164.617C47.0023 164.86 47.3389 164.994 47.688 164.99C48.0372 164.987 48.3709 164.845 48.6171 164.597C48.7385 164.476 48.8348 164.332 48.9005 164.173C48.9662 164.014 49 163.844 49 163.672C49 163.5 48.9662 163.33 48.9005 163.171C48.8348 163.013 48.7385 162.868 48.6171 162.747Z" fill="#EDBE9B"/>
<g clip-path="url(#clip0_4862_6986)">
<path d="M168.084 47.4212L175.106 120.011H30.0299L23.0081 47.4212C22.9695 47.0963 23.0013 46.7671 23.1013 46.4555C23.2013 46.1439 23.3672 45.8573 23.5878 45.6148C23.8084 45.3724 24.0786 45.1798 24.3803 45.05C24.682 44.9201 25.0081 44.8561 25.3367 44.8622H165.261C165.964 44.8733 166.639 45.1394 167.159 45.6106C167.678 46.0818 168.007 46.7256 168.084 47.4212Z" fill="#A69A8D"/>
<path d="M102.021 71.7135L102.92 88.4271C102.948 88.7808 102.901 89.1363 102.782 89.4708C102.663 89.8053 102.475 90.1114 102.231 90.3693C101.986 90.6272 101.69 90.8312 101.361 90.9683C101.032 91.1053 100.678 91.1724 100.322 91.165C99.5618 91.1509 98.8318 90.8675 98.2632 90.3656C97.6946 89.8637 97.3246 89.1763 97.2199 88.4271L95.071 71.7135C94.9984 71.2666 95.0254 70.8093 95.1502 70.374C95.2749 69.9387 95.4944 69.5361 95.7929 69.1945C96.0915 68.853 96.4618 68.5811 96.8778 68.3979C97.2937 68.2147 97.7451 68.1248 98.1999 68.1345C99.173 68.1413 100.108 68.514 100.816 69.1777C101.525 69.8414 101.955 70.7472 102.021 71.7135ZM104.583 98.5556C104.632 98.9857 104.588 99.4212 104.454 99.833C104.32 100.245 104.099 100.623 103.806 100.944C103.514 101.264 103.156 101.518 102.756 101.689C102.357 101.861 101.925 101.945 101.49 101.938H101.266C100.339 101.921 99.4502 101.568 98.7664 100.945C98.0826 100.323 97.651 99.4728 97.5525 98.5556C97.5024 98.1259 97.5453 97.6906 97.6782 97.2787C97.811 96.8669 98.0309 96.4882 98.3229 96.1678C98.615 95.8475 98.9726 95.5931 99.3716 95.4216C99.7706 95.2501 100.202 95.1655 100.636 95.1735H100.87C101.804 95.1913 102.698 95.5504 103.383 96.1824C104.068 96.8144 104.495 97.675 104.583 98.6003V98.5556Z" fill="white"/>
<path d="M175.089 120.011L176.645 136.17C176.686 136.495 176.656 136.826 176.558 137.14C176.459 137.453 176.293 137.741 176.072 137.985C175.851 138.229 175.58 138.422 175.277 138.552C174.974 138.682 174.646 138.745 174.316 138.738H34.4098C33.7071 138.721 33.0343 138.451 32.5154 137.979C31.9966 137.507 31.6667 136.865 31.5867 136.17L30.0312 120.011H175.089Z" fill="#6F6F6F"/>
<path d="M208.302 60.2339L213.553 105.731C213.591 105.979 213.574 106.232 213.504 106.473C213.433 106.714 213.31 106.936 213.144 107.124C212.978 107.313 212.772 107.463 212.541 107.564C212.311 107.665 212.061 107.714 211.809 107.709H148.118C147.572 107.696 147.048 107.491 146.641 107.128C146.233 106.765 145.97 106.27 145.897 105.731L140.646 60.2339C140.614 60.008 140.627 59.7778 140.684 59.5568C140.741 59.3357 140.841 59.128 140.979 58.9455C141.146 58.7291 141.361 58.5548 141.608 58.4367C141.855 58.3186 142.126 58.2599 142.4 58.2655H206.127C206.476 58.2655 206.82 58.3464 207.132 58.5017C207.444 58.657 207.715 58.8824 207.925 59.1602C208.145 59.478 208.275 59.8489 208.302 60.2339Z" fill="#DCCFC1"/>
<path d="M208.299 60.2339L213.55 105.731C213.554 105.812 213.554 105.892 213.55 105.973C213.553 106.206 213.507 106.437 213.417 106.653C213.327 106.868 213.194 107.063 213.026 107.225C212.857 107.388 212.658 107.514 212.439 107.597C212.22 107.681 211.986 107.718 211.752 107.709H148.115C147.766 107.707 147.422 107.626 147.11 107.471C146.799 107.315 146.527 107.091 146.317 106.814C146.066 106.499 145.908 106.121 145.858 105.722L140.607 60.2249C140.575 59.999 140.588 59.7688 140.645 59.5478C140.702 59.3267 140.802 59.119 140.94 58.9365L169.405 80.8486L174.422 84.7049C175.223 85.3774 176.237 85.7463 177.285 85.7463C178.334 85.7463 179.348 85.3774 180.149 84.7049L184.887 80.3386L207.877 59.1602C208.113 59.4733 208.259 59.8445 208.299 60.2339Z" fill="#C4B5A6"/>
<path d="M213.568 105.973C213.57 106.206 213.525 106.437 213.435 106.653C213.345 106.868 213.212 107.063 213.044 107.225C212.875 107.388 212.676 107.514 212.457 107.597C212.238 107.68 212.004 107.718 211.77 107.709H148.115C147.766 107.707 147.422 107.626 147.11 107.471C146.798 107.315 146.527 107.091 146.316 106.814L169.405 80.8665L174.422 84.7228C175.223 85.3952 176.237 85.7641 177.285 85.7641C178.333 85.7641 179.348 85.3952 180.149 84.7228L184.887 80.3564L213.568 105.973Z" fill="#E6D3C0"/>
<path d="M216.154 66.9828C220.007 62.923 219.419 56.1445 214.841 51.8425C210.263 47.5405 203.429 47.3442 199.577 51.404C195.725 55.4638 196.313 62.2423 200.89 66.5443C205.468 70.8463 212.302 71.0426 216.154 66.9828Z" fill="#BB4949"/>
<path d="M209.911 56.9858L210.882 58.4442L208.859 59.1958L211.053 59.9384L210.379 61.4415L208.482 60.001L209.111 62.2289H207.457L207.547 60.001L205.973 61.4594L204.912 59.9384L206.935 59.1868L204.777 58.4442L205.425 56.9858L207.367 58.3994L206.737 56.1626H208.428L208.32 58.3994L209.911 56.9858Z" fill="white"/>
<path d="M131.717 8.14209L136.815 52.3063H75.9107L64.807 64.7968L58.2617 8.14209H131.717Z" fill="#8DADA6"/>
<path d="M88.1369 21.0978L88.8741 30.4299C88.8947 30.6248 88.8732 30.8218 88.8111 31.0078C88.7491 31.1938 88.6479 31.3644 88.5143 31.5084C88.3807 31.6523 88.2178 31.7663 88.0364 31.8426C87.8551 31.9189 87.6594 31.9559 87.4626 31.951C87.0289 31.9559 86.6081 31.8046 86.2777 31.5251C85.9473 31.2456 85.7295 30.8566 85.6644 30.4299L84.2798 21.0978C84.2327 20.8519 84.2415 20.5986 84.3058 20.3566C84.37 20.1146 84.488 19.89 84.6511 19.6994C84.8142 19.5088 85.0181 19.357 85.248 19.2553C85.4778 19.1535 85.7277 19.1044 85.9791 19.1115C86.5197 19.1259 87.0365 19.3353 87.4335 19.7007C87.8304 20.0661 88.0804 20.5627 88.1369 21.0978ZM89.9351 36.1026C89.9769 36.3446 89.9637 36.5929 89.8966 36.8292C89.8295 37.0655 89.7101 37.2839 89.5471 37.4683C89.3842 37.6528 89.1819 37.7986 88.955 37.8951C88.7281 37.9917 88.4824 38.0365 88.2358 38.0263H88.1009C87.5805 38.0137 87.0817 37.8166 86.6943 37.4705C86.307 37.1243 86.0565 36.6519 85.9881 36.1384C85.9526 35.9005 85.9698 35.6578 86.0386 35.4274C86.1074 35.1969 86.2261 34.9842 86.3864 34.8042C86.5466 34.6243 86.7445 34.4815 86.9662 34.3858C87.1878 34.2901 87.4279 34.2439 87.6694 34.2505H87.7953C88.3109 34.2599 88.8063 34.4513 89.1933 34.7905C89.5803 35.1298 89.8336 35.5948 89.9081 36.1026H89.9351Z" fill="#C6DAD2"/>
<path d="M100.301 21.0978L101.038 30.4299C101.058 30.6248 101.037 30.8218 100.975 31.0078C100.913 31.1938 100.812 31.3644 100.678 31.5084C100.544 31.6523 100.381 31.7663 100.2 31.8426C100.019 31.9189 99.8231 31.9559 99.6263 31.951C99.1926 31.9559 98.7718 31.8046 98.4414 31.5251C98.111 31.2456 97.8932 30.8566 97.8281 30.4299L96.4166 21.0978C96.3694 20.8519 96.3782 20.5987 96.4425 20.3566C96.5067 20.1146 96.6248 19.89 96.7878 19.6994C96.9509 19.5088 97.1549 19.357 97.3847 19.2553C97.6145 19.1535 97.8644 19.1044 98.1158 19.1115C98.6611 19.1195 99.1845 19.326 99.5871 19.692C99.9896 20.058 100.243 20.5582 100.301 21.0978ZM102.099 36.1026C102.133 36.3401 102.114 36.5822 102.045 36.812C101.976 37.0418 101.857 37.2539 101.697 37.4334C101.537 37.613 101.34 37.7558 101.119 37.852C100.898 37.9482 100.659 37.9955 100.417 37.9905H100.292C99.7701 37.9782 99.2701 37.7814 98.8813 37.4354C98.4924 37.0895 98.2402 36.6169 98.1698 36.1026C98.1342 35.8647 98.1515 35.622 98.2203 35.3916C98.2891 35.1611 98.4078 34.9484 98.568 34.7684C98.7283 34.5885 98.9262 34.4457 99.1479 34.35C99.3695 34.2543 99.6095 34.2081 99.8511 34.2147H99.9769C100.495 34.2311 100.991 34.4298 101.376 34.7754C101.761 35.121 102.011 35.5912 102.081 36.1026H102.099Z" fill="#C6DAD2"/>
<path d="M112.471 21.0976L113.208 30.4297C113.228 30.6245 113.207 30.8216 113.145 31.0075C113.083 31.1935 112.982 31.3641 112.848 31.5081C112.714 31.652 112.551 31.766 112.37 31.8423C112.189 31.9186 111.993 31.9556 111.796 31.9507C111.365 31.9466 110.949 31.7921 110.62 31.5142C110.292 31.2362 110.072 30.8525 109.998 30.4297L108.587 21.0976C108.541 20.8519 108.551 20.5992 108.616 20.3579C108.681 20.1166 108.799 19.8927 108.962 19.7025C109.125 19.5123 109.328 19.3606 109.557 19.2583C109.786 19.156 110.035 19.1058 110.286 19.1112C110.831 19.1192 111.354 19.3257 111.757 19.6917C112.16 20.0577 112.413 20.5579 112.471 21.0976ZM114.269 36.1023C114.304 36.3401 114.287 36.5828 114.218 36.8133C114.149 37.0438 114.031 37.2565 113.87 37.4364C113.71 37.6164 113.512 37.7592 113.291 37.8549C113.069 37.9505 112.829 37.9967 112.587 37.9902H112.462C111.94 37.9779 111.44 37.7811 111.051 37.4352C110.662 37.0892 110.41 36.6166 110.34 36.1023C110.306 35.8647 110.324 35.6227 110.394 35.3929C110.463 35.1631 110.582 34.951 110.742 34.7714C110.902 34.5918 111.099 34.449 111.32 34.3528C111.541 34.2567 111.78 34.2094 112.021 34.2144H112.156C112.673 34.2311 113.168 34.4301 113.551 34.7759C113.935 35.1216 114.183 35.5917 114.251 36.1023H114.269Z" fill="#C6DAD2"/>
<path opacity="0.6" d="M186.587 33.3713C185.513 32.2109 184.91 30.6386 184.91 28.9994C184.91 27.3602 185.513 25.7879 186.587 24.6275C186.849 24.3339 186.995 23.9407 186.991 23.5327C186.987 23.1247 186.834 22.7348 186.566 22.4471C186.3 22.1609 185.94 22.0002 185.565 22.0002C185.19 22.0002 184.83 22.1609 184.564 22.4471C183.483 23.6107 182.018 24.2642 180.49 24.2642C178.963 24.2642 177.498 23.6107 176.416 22.4471C176.151 22.1608 175.791 22 175.415 22C175.04 22 174.68 22.1608 174.415 22.4471C174.149 22.7334 174 23.1218 174 23.5266C174 23.9315 174.149 24.3198 174.415 24.6061C175.493 25.7724 176.099 27.3526 176.099 29C176.099 30.6475 175.493 32.2276 174.415 33.3939C174.283 33.5356 174.179 33.7039 174.108 33.8891C174.037 34.0744 174 34.2729 174 34.4734C174 34.6739 174.037 34.8724 174.108 35.0576C174.179 35.2428 174.283 35.4111 174.415 35.5529C174.546 35.6946 174.702 35.8071 174.874 35.8838C175.046 35.9605 175.23 36 175.415 36C175.601 36 175.785 35.9605 175.957 35.8838C176.129 35.8071 176.285 35.6946 176.416 35.5529C177.498 34.3893 178.963 33.7358 180.49 33.7358C182.018 33.7358 183.483 34.3893 184.564 35.5529C184.836 35.8364 185.201 35.9931 185.579 35.9891C185.957 35.9851 186.319 35.8207 186.586 35.5315C186.851 35.2452 187 34.8569 187 34.452C187 34.0472 186.851 33.6589 186.586 33.3725L186.587 33.3713Z" fill="#DAD1A9"/>
</g>
<defs>
<clipPath id="clip0_4862_6986">
<rect width="196" height="153" fill="white" transform="translate(23)"/>
</clipPath>
</defs>
</svg>
