<svg width="172" height="154" viewBox="0 0 172 154" fill="none" xmlns="http://www.w3.org/2000/svg">
<g clip-path="url(#clip0_439_5126)">
<path opacity="0.4" d="M123.443 7C125.903 7.00002 128.319 7.64795 130.448 8.87856C132.578 10.1092 134.345 11.879 135.573 14.01L169.729 73.283C170.954 75.4089 171.599 77.8194 171.599 80.273C171.599 82.7266 170.954 85.1371 169.729 87.263L135.573 146.536C134.345 148.667 132.578 150.437 130.448 151.667C128.319 152.898 125.903 153.546 123.443 153.546H55.1774C52.7179 153.546 50.3019 152.898 48.1724 151.667C46.043 150.437 44.2753 148.667 43.0474 146.536L8.89136 87.263C7.66631 85.1371 7.02148 82.7266 7.02148 80.273C7.02148 77.8194 7.66631 75.4089 8.89136 73.283L43.0474 14.01C44.2753 11.879 46.043 10.1092 48.1724 8.87856C50.3019 7.64795 52.7179 7.00002 55.1774 7H123.443Z" fill="#787878"/>
<path d="M127.257 145.769L127.257 145.769C125.812 146.605 124.171 147.045 122.502 147.045H49.118C47.4486 147.045 45.8086 146.605 44.3635 145.769L44.3632 145.769C42.918 144.934 41.7184 143.732 40.8853 142.286L4.16936 78.5125C3.33926 77.0707 2.90234 75.4362 2.90234 73.7725C2.90234 72.1088 3.33926 70.4743 4.16936 69.0325L40.8853 5.2595C40.8853 5.25949 40.8853 5.25948 40.8853 5.25947C41.7184 3.81274 42.918 2.61107 44.3633 1.77551L44.1131 1.34264L44.3634 1.7755C45.8086 0.939944 47.4486 0.500003 49.118 0.5H122.502C124.171 0.500003 125.812 0.939961 127.257 1.77548C128.702 2.61107 129.902 3.81277 130.735 5.25952L167.451 69.0325L167.884 68.783L167.451 69.0325C168.281 70.4743 168.718 72.1088 168.718 73.7725C168.718 75.4362 168.281 77.0707 167.451 78.5125L167.884 78.762L167.451 78.5125L130.735 142.286C129.902 143.732 128.702 144.934 127.257 145.769Z" fill="#272421" stroke="#474644"/>
<path opacity="0.6" d="M37.7458 123.502C36.3632 123.5 35.0377 122.95 34.06 121.973C33.0824 120.995 32.5324 119.67 32.5308 118.287C32.5248 117.943 32.3837 117.615 32.138 117.374C31.8924 117.134 31.5618 116.999 31.2178 117C30.8765 117 30.5492 117.136 30.3078 117.377C30.0664 117.618 29.9308 117.946 29.9308 118.287C29.9293 119.677 29.3766 121.009 28.394 121.991C27.4115 122.974 26.0793 123.526 24.6898 123.528C24.3484 123.528 24.0209 123.664 23.7794 123.905C23.538 124.147 23.4023 124.474 23.4023 124.816C23.4023 125.157 23.538 125.484 23.7794 125.726C24.0209 125.967 24.3484 126.103 24.6898 126.103C26.0793 126.105 27.4115 126.657 28.394 127.64C29.3766 128.622 29.9293 129.954 29.9308 131.344C29.9308 131.685 30.0665 132.013 30.3079 132.254C30.5494 132.496 30.8769 132.632 31.2183 132.632C31.5598 132.632 31.8873 132.496 32.1287 132.254C32.3702 132.013 32.5058 131.685 32.5058 131.344C32.5074 129.955 33.06 128.623 34.0423 127.64C35.0246 126.658 36.3565 126.105 37.7458 126.103C38.09 126.097 38.4179 125.956 38.6587 125.71C38.8996 125.464 39.0339 125.133 39.0328 124.789C39.0326 124.448 38.8969 124.121 38.6556 123.879C38.4143 123.638 38.0871 123.502 37.7458 123.502Z" fill="#B8B6D0"/>
<path opacity="0.6" d="M11.8515 46.5914C10.875 45.6126 10.3266 44.2865 10.3266 42.9039C10.3266 41.5213 10.875 40.1952 11.8515 39.2164C12.0906 38.9689 12.2228 38.6373 12.2194 38.2932C12.2161 37.9491 12.0774 37.6201 11.8335 37.3774C11.714 37.2578 11.572 37.1628 11.4158 37.0981C11.2596 37.0333 11.0921 37 10.923 37C10.7539 37 10.5864 37.0333 10.4302 37.0981C10.2739 37.1628 10.132 37.2578 10.0125 37.3774C9.02882 38.3589 7.69603 38.91 6.30649 38.91C4.91695 38.91 3.58416 38.3589 2.60049 37.3774C2.35901 37.1359 2.03149 37.0003 1.68999 37.0003C1.34848 37.0003 1.02096 37.1359 0.77948 37.3774C0.538 37.6189 0.402344 37.9464 0.402344 38.2879C0.402344 38.6294 0.538 38.9569 0.77948 39.1984C1.76092 40.1821 2.31212 41.5149 2.31212 42.9044C2.31212 44.294 1.76092 45.6268 0.77948 46.6104C0.538 46.8519 0.402344 47.1794 0.402344 47.5209C0.402344 47.8624 0.538 48.1899 0.77948 48.4314C1.02096 48.6729 1.34848 48.8086 1.68999 48.8086C2.03149 48.8086 2.35901 48.6729 2.60049 48.4314C3.58416 47.45 4.91695 46.8988 6.30649 46.8988C7.69603 46.8988 9.02882 47.45 10.0125 48.4314C10.2601 48.6704 10.5918 48.8024 10.9359 48.7989C11.28 48.7953 11.6089 48.6565 11.8515 48.4124C11.9711 48.2929 12.066 48.151 12.1308 47.9947C12.1956 47.8385 12.2289 47.671 12.2289 47.5019C12.2289 47.3328 12.1956 47.1653 12.1308 47.0091C12.066 46.8529 11.9711 46.7109 11.8515 46.5914Z" fill="#EDBE9B"/>
<path opacity="0.6" d="M168.852 48.5911C167.876 47.6124 167.328 46.2862 167.328 44.9036C167.328 43.5211 167.876 42.1949 168.852 41.2161C169.091 40.9686 169.223 40.6369 169.22 40.2927C169.216 39.9486 169.078 39.6197 168.833 39.3771C168.592 39.1357 168.264 39.0002 167.923 39.0002C167.581 39.0002 167.254 39.1357 167.012 39.3771C166.029 40.3586 164.696 40.9098 163.306 40.9098C161.917 40.9098 160.584 40.3586 159.6 39.3771C159.359 39.1357 159.031 39 158.69 39C158.348 39 158.021 39.1357 157.779 39.3771C157.538 39.6186 157.402 39.9461 157.402 40.2876C157.402 40.6291 157.538 40.9567 157.779 41.1981C158.761 42.1818 159.312 43.5146 159.312 44.9041C159.312 46.2937 158.761 47.6265 157.779 48.6101C157.66 48.7297 157.565 48.8717 157.5 49.0279C157.436 49.1841 157.402 49.3516 157.402 49.5206C157.402 49.6897 157.436 49.8572 157.5 50.0134C157.565 50.1696 157.66 50.3116 157.779 50.4311C157.899 50.5507 158.041 50.6456 158.197 50.7103C158.353 50.775 158.521 50.8083 158.69 50.8083C158.859 50.8083 159.027 50.775 159.183 50.7103C159.339 50.6456 159.481 50.5507 159.6 50.4311C160.584 49.4497 161.917 48.8985 163.306 48.8985C164.696 48.8985 166.029 49.4497 167.012 50.4311C167.26 50.6703 167.592 50.8025 167.936 50.7991C168.28 50.7957 168.609 50.6571 168.852 50.4131C169.093 50.1716 169.228 49.8441 169.228 49.5026C169.228 49.1612 169.093 48.8327 168.852 48.5911Z" fill="#DAD1A9"/>
<path d="M26 53.4779C26.4046 51.0557 26.7023 48.614 27.2299 46.2112C31.1914 28.2991 46.6974 13.9991 64.8445 11.4731C86.9919 8.38614 107.333 20.6465 114.758 41.6651C115.8 44.6159 116.376 47.7287 117.201 50.8611L112.861 52.3625C110.227 26.9923 84.8008 9.34272 59.4137 17.0828C36.6934 24.0123 24.5274 48.9739 33.0459 71.4647C41.8265 94.6364 69.4889 105.47 92.2318 92.6519L93.1121 93.7479C91.2026 95.6934 89.5099 97.8887 87.3738 99.4679C85.9659 100.509 83.9399 100.784 82.1469 101.222C57.0996 107.341 31.4114 90.6058 26.78 65.161C26.4563 63.3841 26.2557 61.5941 26 59.788V53.4779Z" fill="#C9BFB5"/>
<path d="M70.8935 19.5962C89.4613 19.46 105.466 33.2152 108.181 50.7512C108.576 53.3032 108.288 54.918 106.061 56.7306C98.4588 62.9142 95.2417 71.1796 95.8113 80.9561C95.8528 81.4891 95.7024 82.0195 95.3874 82.451C93.9083 84.0723 92.0635 85.4212 91.4777 87.7396C91.4 88.0444 90.9048 88.2714 90.565 88.4757C69.0228 101.488 40.6937 89.0335 35.6642 64.3442C31.7027 44.9048 43.1081 26.2274 62.1679 20.9127C63.5244 20.5259 64.9051 20.2302 66.3009 20.0275C68.1004 19.7778 69.9226 19.6837 70.8935 19.5962ZM62.9738 58.9356V71.799C62.861 71.8538 62.7454 71.9025 62.6275 71.9449C61.6047 72.2465 60.9121 72.8463 60.8571 73.9748C60.7956 75.1583 61.4364 75.8295 62.4754 76.2446C62.7571 76.4114 62.973 76.6701 63.0871 76.9774C63.4916 77.8659 64.1292 78.4431 65.1163 78.4463C65.5862 78.4699 66.05 78.3315 66.4304 78.0542C66.8108 77.7769 67.0849 77.3775 67.2071 76.9223C67.2848 76.7256 67.3723 76.533 67.4693 76.3451H71.6476C71.8806 77.5481 72.502 78.362 73.7157 78.4366C75.1333 78.5274 75.7903 77.5838 76.114 76.3451C80.9687 75.9657 84.5807 73.7348 86.2216 69.1044C87.9531 64.2404 86.4935 60.0705 82.5999 56.656C82.9236 56.3317 83.2181 56.082 83.4997 55.8097C85.332 54.1238 86.4999 51.8354 86.7912 49.3601C87.5032 43.0987 83.49 37.9689 77.2468 37.1323C76.5347 37.035 76.1043 36.8631 75.7256 36.1075C75.5163 35.7843 75.2378 35.5119 74.9103 35.31C74.5828 35.108 74.2146 34.9818 73.8322 34.9403C73.2238 34.9176 72.5377 35.5887 71.9777 36.0297C71.7415 36.221 71.6962 36.6556 71.5505 37.0025C70.4598 37.0025 69.4112 36.9766 68.3658 37.0025C67.7444 37.022 67.4563 36.8307 67.0906 36.2405C66.7249 35.6504 65.8349 34.9435 65.1714 34.9435C64.5079 34.9435 63.812 35.7055 63.1712 36.1854C62.7593 36.4852 62.3921 36.8422 62.0805 37.2457C61.6242 37.8553 60.9348 38.52 60.9251 39.1718C60.9154 39.8236 61.5724 40.5142 62.032 41.1174C62.2132 41.3541 62.6534 41.393 62.9673 41.5194V54.3732C61.7277 54.6975 60.7827 55.307 60.8409 56.7597C60.9121 58.0957 61.8313 58.6275 62.977 58.9356H62.9738ZM71.5991 28.3058C72.3661 28.3415 73.1299 28.4258 73.8937 28.4031C74.4672 28.4163 75.0228 28.203 75.4407 27.8093C75.8585 27.4155 76.105 26.8729 76.1269 26.2986C76.14 26.0149 76.0959 25.7316 75.9974 25.4653C75.8989 25.199 75.7479 24.9552 75.5534 24.7486C75.3589 24.542 75.125 24.3766 74.8654 24.2624C74.6059 24.1483 74.3261 24.0876 74.0426 24.084C72.515 24.0094 70.9809 24.0029 69.4533 24.084C68.081 24.1521 67.2978 25.1054 67.3787 26.3992C67.4531 27.5957 68.3496 28.4031 69.6669 28.4096C70.3142 28.4096 70.9582 28.3415 71.6023 28.3058H71.5991ZM54.2838 79.5391C53.753 80.0514 52.9892 80.5314 52.6008 81.2188C52.0797 82.1364 52.481 83.0865 53.3225 83.654C54.5632 84.4782 55.8467 85.2359 57.1675 85.9238C58.4621 86.6113 59.7146 86.2481 60.2972 85.1262C60.8798 84.0042 60.4525 82.8239 59.1838 82.0845C58.0705 81.436 56.9636 80.7875 55.8373 80.139C55.3311 79.9134 54.8137 79.7143 54.287 79.5423L54.2838 79.5391ZM60.5367 29.7131C60.5917 27.693 58.9897 26.5645 57.517 27.2617C56.0669 27.9659 54.6665 28.7687 53.3258 29.6645C53.0953 29.8142 52.897 30.0086 52.7426 30.2361C52.5881 30.4636 52.4806 30.7198 52.4263 30.9895C52.3721 31.2593 52.3721 31.5372 52.4265 31.8069C52.481 32.0766 52.5886 32.3327 52.7432 32.5601C52.8929 32.8015 53.0887 33.0109 53.3193 33.1763C53.55 33.3417 53.811 33.4599 54.0873 33.5241C54.3636 33.5882 54.6498 33.5971 54.9296 33.5502C55.2093 33.5033 55.4771 33.4016 55.7175 33.2508C56.9674 32.5968 58.1837 31.8804 59.3618 31.1042C59.9476 30.7054 60.3134 30.005 60.5367 29.7131ZM44.6778 45.4916C44.9594 45.3003 45.6941 45.0313 46.0631 44.5027C46.9102 43.2294 47.6839 41.9085 48.3804 40.5467C48.6478 40.0642 48.7176 39.4966 48.5751 38.9636C48.4326 38.4306 48.0889 37.9739 47.6166 37.69C46.7104 37.129 45.4222 37.2781 44.8073 38.199C43.8789 39.5628 43.0524 40.9935 42.3346 42.4793C41.6614 43.932 42.7133 45.4495 44.6778 45.4916ZM43.4577 56.6851C43.4577 55.9588 43.4771 55.2325 43.4577 54.5061C43.4672 53.9562 43.2686 53.4232 42.9017 53.0141C42.5348 52.605 42.0269 52.3502 41.4802 52.3011C41.208 52.2706 40.9325 52.2947 40.6697 52.3719C40.4069 52.4491 40.162 52.5779 39.9494 52.7508C39.7367 52.9237 39.5605 53.1373 39.431 53.3791C39.3016 53.6209 39.2214 53.8861 39.1952 54.1592C39.069 55.8462 39.069 57.5403 39.1952 59.2274C39.2923 60.4077 40.4089 61.1178 41.5481 60.9978C42.0731 60.9408 42.5583 60.6908 42.9098 60.296C43.2614 59.9013 43.4543 59.39 43.4512 58.861C43.4803 58.1379 43.4577 57.4115 43.4577 56.6851ZM91.1734 82.0132C90.9145 80.2103 89.2315 79.2408 87.7298 80.0417C86.487 80.7064 85.2765 81.436 84.0628 82.1526C82.9042 82.8336 82.5287 84.0658 83.121 85.1553C83.7133 86.2448 84.8525 86.6015 86.0339 86.0049C87.3726 85.3494 88.6619 84.5972 89.8918 83.7545C90.4549 83.3621 90.7559 82.6034 91.1734 82.0132ZM90.9404 30.9453C90.7883 30.7119 90.565 30.0244 90.0924 29.7099C88.7202 28.7956 87.2923 27.9682 85.817 27.2326C85.3388 26.9984 84.7874 26.9638 84.2838 27.1365C83.7802 27.3091 83.3655 27.6748 83.1307 28.1534C82.8613 28.6128 82.7783 29.1583 82.8987 29.6773C83.0192 30.1962 83.3339 30.649 83.778 30.9421C85.1271 31.8199 86.5219 32.6252 87.9563 33.3546C89.3772 34.0712 90.9792 32.9493 90.9404 30.9453ZM97.3195 37.3657C95.2029 37.3657 94.2255 39.1167 95.0767 40.6667C95.7563 41.9021 96.4684 43.1213 97.1933 44.3308C97.8568 45.4431 99.0284 45.7965 100.106 45.242C100.361 45.1173 100.588 44.942 100.774 44.7268C100.96 44.5117 101.1 44.261 101.186 43.9901C101.272 43.7192 101.303 43.4336 101.276 43.1505C101.249 42.8674 101.165 42.5927 101.029 42.3431C100.354 40.9682 99.5827 39.643 98.721 38.3774C98.3391 37.8456 97.6076 37.5635 97.3195 37.3657ZM71.7059 84.9608C70.9421 84.9608 70.1782 84.9316 69.4144 84.9608C68.9055 84.9559 68.4137 85.1446 68.0383 85.4889C67.6628 85.8331 67.4317 86.3072 67.3916 86.8155C67.2686 87.9699 67.8706 89.0529 68.9872 89.1437C70.785 89.2848 72.5911 89.2848 74.3889 89.1437C75.4537 89.0626 76.1107 87.9926 76.0395 86.9485C76.0143 86.4185 75.7896 85.9178 75.4107 85.5472C75.0317 85.1765 74.5267 84.9636 73.9973 84.951C73.2367 84.9283 72.4697 84.9608 71.7059 84.9608ZM48.8626 73.9845L48.6296 73.7803C48.63 73.5795 48.5972 73.3801 48.5325 73.1901C47.6457 71.6207 46.8301 69.9993 45.8106 68.5207C45.241 67.6938 44.2312 67.5998 43.3023 68.0992C42.3734 68.5986 41.8265 69.5032 42.244 70.4079C43.0276 72.1573 43.9931 73.8192 45.1245 75.3659C45.4481 75.8133 46.7427 75.8911 47.39 75.6544C48.005 75.4274 48.3804 74.5552 48.8626 73.9845Z" fill="#C9BFB5"/>
<path d="M148 78.479C148 92.5811 135.701 103.81 121.687 102.283C119.729 102.069 118.237 102.38 117.004 103.962C116.352 104.734 115.64 105.453 114.874 106.112C113.809 107.085 112.667 107.14 111.638 106.112C106.537 101.043 101.455 95.9544 96.3906 90.8462C95.3937 89.8443 95.4423 88.664 96.4326 87.6231C97.355 86.6503 98.271 85.6775 99.2646 84.802C100.258 83.9265 100.491 82.9051 100.323 81.6437C99.4943 75.3911 101.162 69.0634 104.963 64.0354C108.764 59.0074 114.393 55.6854 120.625 54.7909C126.857 53.8965 133.189 55.502 138.247 59.2586C143.304 63.0152 146.677 68.6194 147.634 74.8537C147.825 76.0599 147.883 77.2727 148 78.479ZM139.145 71.9418C139.148 70.2157 138.64 68.5274 137.685 67.0907C136.73 65.654 135.371 64.5335 133.78 63.871C132.189 63.2085 130.438 63.0338 128.748 63.3691C127.058 63.7043 125.505 64.5344 124.286 65.7543C123.067 66.9742 122.237 68.529 121.9 70.2219C121.564 71.9148 121.736 73.6697 122.395 75.2644C123.055 76.859 124.172 78.2218 125.605 79.1802C127.038 80.1386 128.722 80.6495 130.445 80.6482C132.749 80.644 134.958 79.7256 136.589 78.094C138.219 76.4625 139.138 74.2505 139.145 71.9418Z" fill="#8DADA6"/>
<path d="M105.378 106.339C104.579 107.127 103.721 108.032 102.789 108.852C102.475 109.066 102.091 109.147 101.718 109.079C100.129 108.81 98.5493 108.483 96.9699 108.165C93.112 107.393 90.7137 109.76 91.4678 113.616C91.7656 115.162 92.1475 116.696 92.3579 118.253C92.3733 118.811 92.2088 119.359 91.8886 119.816C90.7979 121.521 89.322 121.995 87.3575 121.265C86.2765 120.86 85.0919 120.762 83.93 120.552C80.8035 119.974 78.3114 122.468 78.8972 125.597C79.2209 127.303 79.5769 129.002 79.92 130.704C80.1401 131.807 79.3503 132.948 78.2435 132.974C76.0653 133.016 73.8839 133.026 71.7057 132.951C70.3043 132.9 69.5826 132.092 69.5567 130.682C69.5211 128.7 69.4887 126.716 69.5858 124.738C69.6328 124.064 69.904 123.426 70.3561 122.925C78.8616 114.345 87.3898 105.789 95.9407 97.2567C95.989 97.2039 96.0488 97.1628 96.1154 97.1367L105.378 106.339Z" fill="#8DADA6"/>
<path d="M76.1309 71.8767V59.0035C79.1926 58.6047 82.2414 61.4225 82.5391 64.8824C82.8693 68.5789 80.0017 71.7632 76.1309 71.8767Z" fill="#A69A8D"/>
<path d="M76.1309 54.415V41.5581C79.3674 41.2338 82.3773 44.1262 82.5586 47.6866C82.5911 48.5547 82.4492 49.4205 82.1414 50.2326C81.8335 51.0447 81.3659 51.7865 80.7664 52.4141C80.1669 53.0417 79.4476 53.5422 78.6513 53.886C77.855 54.2297 76.9979 54.4096 76.1309 54.415Z" fill="#A69A8D"/>
<path d="M67.457 58.874H71.6289V71.8444H67.457V58.874Z" fill="#A69A8D"/>
<path d="M67.4395 41.4321H71.6178V54.4025H67.4395V41.4321Z" fill="#A69A8D"/>
<path d="M57 76.0282V37.2118L58 35.2212H67H73.5C75 35.2212 77 34.7235 78.5 35.2212C80 35.7188 83 37.2118 86 39.2024C88.4 40.7948 88 42.1882 87.5 42.6859C88 45.1741 89 50.3496 89 51.1459V58.6106V64.0847C89 65.2791 88 69.2271 87.5 71.0518L84 74.5353L80 79.0141L74.5 82H66H61.5L57 76.0282Z" fill="#C9BFB5"/>
<path d="M84.3767 57.9356C83.4939 56.7941 82.1617 56.01 80.3802 55.5838C82.6488 54.4266 83.6458 52.4626 83.372 49.6915C83.2805 48.6866 83.0028 47.8157 82.5383 47.0775C82.0734 46.3391 81.446 45.7455 80.6538 45.2965C79.8623 44.8469 79.0014 44.5046 78.0731 44.2687C77.1447 44.0327 76.0787 43.8614 74.8759 43.7549V38H71.3594V43.595C70.7504 43.595 69.8218 43.6102 68.5735 43.6407V38H65.0565V43.7549C64.5539 43.7702 63.8156 43.7779 62.8413 43.7779L58 43.7549V47.5002H60.5347C61.6918 47.5002 62.3693 48.018 62.5672 49.0531V55.6074C62.7196 55.6074 62.8413 55.6152 62.9327 55.6304H62.5672V64.8105C62.4455 65.5867 62.0041 65.9752 61.2428 65.9752H58.7082L58.0002 70.1545H62.5676C62.8569 70.1545 63.2753 70.1583 63.8236 70.1652C64.3716 70.1729 64.7825 70.1767 65.0566 70.1767V76H68.5742V70.2452C69.2135 70.2608 70.1421 70.2682 71.3601 70.2682V76H74.8767V70.1767C76.1254 70.1159 77.2329 70.0023 78.1992 69.8343C79.166 69.6662 80.0911 69.404 80.974 69.046C81.8567 68.6885 82.595 68.2429 83.1886 67.71C83.7826 67.1776 84.2732 66.4998 84.6621 65.6775C85.0497 64.8552 85.2974 63.9037 85.4036 62.8225C85.6024 60.7069 85.2597 59.0777 84.3767 57.9356ZM68.6419 47.7507C68.7485 47.7507 69.0492 47.7469 69.544 47.7392C70.039 47.7314 70.4499 47.7239 70.7772 47.7162C71.1046 47.7087 71.5461 47.7277 72.102 47.7734C72.6577 47.819 73.1258 47.8801 73.5063 47.9561C73.8868 48.0321 74.3058 48.1577 74.7622 48.3328C75.2193 48.5077 75.5844 48.721 75.8581 48.9721C76.1324 49.2233 76.3645 49.5432 76.5545 49.9314C76.745 50.3196 76.8402 50.7649 76.8402 51.2672C76.8402 51.6935 76.7718 52.0819 76.635 52.4322C76.4984 52.7823 76.2923 53.0755 76.0186 53.3114C75.7448 53.5475 75.4626 53.7532 75.1733 53.9281C74.8843 54.1031 74.5148 54.244 74.0658 54.3505C73.6169 54.4571 73.2249 54.5408 72.8901 54.6016C72.5552 54.6626 72.1366 54.7046 71.6341 54.7273C71.1316 54.75 70.7508 54.7655 70.4921 54.773C70.2332 54.7806 69.8794 54.7806 69.4301 54.773C68.9807 54.7655 68.7184 54.7615 68.6421 54.7615V47.7507L68.6419 47.7507ZM78.2451 63.3024C78.1001 63.6527 77.9139 63.9574 77.6857 64.2164C77.4571 64.4747 77.1563 64.7034 76.7834 64.901C76.4107 65.0992 76.0488 65.2588 75.6989 65.3806C75.3485 65.5029 74.9259 65.6089 74.4316 65.7005C73.9361 65.792 73.5025 65.8563 73.1291 65.8946C72.7563 65.9328 72.3112 65.9631 71.7934 65.9861C71.2759 66.0085 70.8722 66.0201 70.5831 66.0201C70.2938 66.0201 69.9283 66.0159 69.4868 66.0085C69.045 66.0014 68.7636 65.9975 68.6417 65.9975V58.2784C68.7634 58.2784 69.125 58.271 69.7265 58.2554C70.3281 58.2401 70.8188 58.233 71.1995 58.233C71.58 58.233 72.1055 58.2554 72.7756 58.3014C73.4451 58.3468 74.0084 58.415 74.4656 58.5064C74.9221 58.5979 75.4204 58.7385 75.9612 58.929C76.5016 59.1192 76.9395 59.3513 77.2746 59.6254C77.6095 59.8999 77.891 60.2495 78.1193 60.6759C78.3481 61.1021 78.4623 61.5894 78.4623 62.1376C78.4622 62.5643 78.39 62.952 78.2451 63.3024Z" fill="#272421"/>
</g>
<defs>
<clipPath id="clip0_439_5126">
<rect width="172" height="154" fill="white"/>
</clipPath>
</defs>
</svg>
