<svg xmlns="http://www.w3.org/2000/svg" width="80.48" height="67.186" viewBox="0 0 80.48 67.186">
  <g id="illustration" transform="translate(-126.52 -409.839)">
    <g id="Group_39521" data-name="Group 39521" transform="translate(126.52 409.839)" opacity="0.6">
      <circle id="Ellipse_1999" data-name="Ellipse 1999" cx="31.075" cy="31.075" r="31.075" transform="translate(8.103)" fill="#362515" opacity="0.635"/>
      <path id="Path_25533" data-name="Path 25533" d="M112,28.332a2.662,2.662,0,1,0-2.662-2.662A2.662,2.662,0,0,0,112,28.332Z" transform="translate(-37.23 14.593)" fill="#6f503d"/>
      <path id="Path_25534" data-name="Path 25534" d="M118.452,13.244a1.818,1.818,0,1,0-1.818-1.818A1.818,1.818,0,0,0,118.452,13.244Z" transform="translate(-39.79 19.292)" fill="#6f503d"/>
      <path id="Path_25535" data-name="Path 25535" d="M15.66,7.011a3.376,3.376,0,1,0-3.376-3.376A3.376,3.376,0,0,0,15.66,7.011Z" transform="translate(-12.283 15.429)" fill="#6f503d"/>
    </g>
    <g id="Group_39520" data-name="Group 39520" transform="translate(143.15 465.926)">
      <g id="Group_39519" data-name="Group 39519">
        <g id="Group_39518" data-name="Group 39518">
          <path id="Path_25532" data-name="Path 25532" d="M64.611,228.957q.483.21.986.406l.382-.975q-.485-.19-.951-.392Zm-1.924-.917q.465.243.954.476l.451-.946q-.471-.225-.921-.459Zm3.912,1.694q.5.174,1.013.332l.308-1q-.5-.153-.977-.321Zm2.038.627q.511.138,1.037.257l.232-1.021q-.506-.114-1-.247Zm2.081.473q.519.1,1.052.176l.154-1.036q-.514-.076-1.013-.171Zm-9.886-3.843q.447.273.919.54l.516-.912q-.457-.258-.887-.522Zm-6.594-5.379c.2.221.449.483.74.775l.743-.739c-.279-.28-.516-.531-.709-.743Zm20.755,8.641-.036,1.047c.322.011.647.017.982.017h.083v-1.047h-.086Q75.458,230.269,74.992,230.253ZM55.745,223.13c.244.228.509.467.793.714l.688-.79q-.412-.359-.766-.69Zm1.609,1.4q.4.324.838.658l.633-.835c-.284-.215-.554-.428-.811-.637Zm1.7,1.288q.424.3.88.6l.576-.875q-.441-.29-.851-.581Zm13.776,5.329q.525.058,1.062.1l.075-1.045q-.517-.037-1.023-.093Zm16.122-3.769.469.937q.486-.244.945-.5l-.505-.918Q89.418,227.144,88.95,227.379Zm3.506-2.124.615.848c.288-.209.575-.426.853-.647l-.651-.82Q92.884,224.943,92.457,225.255Zm-1.708,1.134.543.9q.468-.284.9-.573l-.58-.873Q91.2,226.117,90.748,226.389Zm3.314-2.409.687.791c.272-.236.539-.478.793-.719l-.721-.76Q94.467,223.628,94.062,223.98Zm-17.012,6.271.034,1.047q.538-.017,1.062-.05l-.065-1.045Q77.573,230.234,77.051,230.251Zm20.41-10.033s-.191.311-.576.81l.829.64a11.042,11.042,0,0,0,.642-.906Zm-1.913,2.353.756.725c.251-.262.5-.529.725-.793l-.79-.687C96.02,222.067,95.788,222.321,95.548,222.571Zm-14.4,7.289.168,1.034q.534-.087,1.048-.19l-.2-1.027Q81.664,229.775,81.149,229.86Zm-2.042.262.1,1.042q.537-.051,1.057-.118l-.133-1.039Q79.627,230.072,79.107,230.122Zm4.058-.663.241,1.02q.527-.124,1.033-.264l-.278-1.01Q83.673,229.338,83.166,229.458Zm3.914-1.238.391.972q.5-.2.983-.419l-.43-.955Q87.564,228.025,87.079,228.22Zm-1.932.693.316,1q.516-.163,1.011-.341l-.354-.986Q85.644,228.756,85.147,228.913Z" transform="translate(-54.237 -220.218)" fill="#fff"/>
        </g>
      </g>
    </g>
    <g id="LINK" transform="translate(143.713 419.416)">
      <g id="Group_42161" data-name="Group 42161" transform="translate(0 12.23)">
        <g id="Group_42160" data-name="Group 42160">
          <g id="Group_42159" data-name="Group 42159">
            <path id="Path_28616" data-name="Path 28616" d="M21.424,168.947a13.632,13.632,0,0,1-2.4-.266l-.153-.028L12.928,174.6a5.311,5.311,0,0,1-7.51-7.511l9.334-9.334c.061-.063.124-.122.2-.185.053-.05.109-.1.164-.144s.084-.07.128-.1l.019-.015a.628.628,0,0,1,.059-.044l.02-.014c.05-.04.1-.077.156-.112l.019-.013a1.126,1.126,0,0,1,.109-.072,5.188,5.188,0,0,1,1.572-.686,5.352,5.352,0,0,1,1.31-.163,5.3,5.3,0,0,1,5.2,4.251l.1.522L26.985,158l-.084-.192a9.156,9.156,0,0,0-6.6-5.3l-.162-.029a8.187,8.187,0,0,0-.89-.117c-.211-.017-.407-.027-.6-.029-.1,0-.2,0-.3,0-.19,0-.394.01-.588.028-.1.006-.2.016-.3.027l-.3.038c-.1.014-.194.03-.291.047a9.131,9.131,0,0,0-4.869,2.54L2.683,164.35a9.179,9.179,0,0,0,12.981,12.98l9.177-9.177-1.227.43A6.516,6.516,0,0,1,21.424,168.947Zm-6.179,7.965A8.586,8.586,0,1,1,3.1,164.769l9.331-9.331a8.537,8.537,0,0,1,4.551-2.376c.091-.015.183-.031.269-.043l.286-.037c.089-.009.179-.019.277-.025.174-.016.347-.022.554-.026h.28c.177,0,.359.011.558.027a7.622,7.622,0,0,1,.829.109l.159.029a8.566,8.566,0,0,1,6.079,4.762l-2.108,1.975a5.9,5.9,0,0,0-5.661-4.224,5.945,5.945,0,0,0-1.455.181,5.75,5.75,0,0,0-1.74.758,1.568,1.568,0,0,0-.146.1c-.063.041-.125.085-.184.132-.032.022-.064.046-.1.071-.052.038-.1.079-.151.12s-.127.108-.18.157c-.078.067-.154.139-.224.211L5,166.666a5.9,5.9,0,0,0,8.349,8.349l5.726-5.724a13.621,13.621,0,0,0,2.351.248,7.406,7.406,0,0,0,1.3-.112Z" transform="translate(0 -152.337)" fill="#fff"/>
          </g>
        </g>
      </g>
      <g id="Group_42163" data-name="Group 42163" transform="translate(1.284 13.514)" opacity="0.18">
        <g id="Group_42162" data-name="Group 42162">
          <path id="Path_28617" data-name="Path 28617" d="M37.58,169.43a7.823,7.823,0,0,0-4.01-2.151l-.17-.031a6.93,6.93,0,0,0-.758-.1c-.181-.015-.347-.023-.516-.025h-.248c-.192,0-.351.009-.5.024l-.029,0c-.079.005-.16.014-.223.02l-.275.036c-.085.012-.17.027-.247.04a7.847,7.847,0,0,0-4.184,2.184l-9.331,9.33a7.894,7.894,0,0,0,11.164,11.164l6.2-6.2a14.585,14.585,0,0,1-1.649-.186l-5.472,5.47A6.6,6.6,0,1,1,18,179.679l9.32-9.32c.083-.085.169-.167.257-.244.066-.061.134-.12.2-.176s.111-.092.168-.135c.036-.029.073-.057.112-.085.063-.048.129-.1.2-.141s.11-.077.17-.113a6.463,6.463,0,0,1,1.943-.845,6.637,6.637,0,0,1,1.624-.2,6.6,6.6,0,0,1,5.934,3.711l.984-.922A7.828,7.828,0,0,0,37.58,169.43Z" transform="translate(-14.778 -167.123)" fill="#fff"/>
        </g>
      </g>
      <g id="Group_42166" data-name="Group 42166" transform="translate(12.739 0)">
        <g id="Group_42165" data-name="Group 42165">
          <g id="Group_42164" data-name="Group 42164">
            <path id="Path_28618" data-name="Path 28618" d="M171.137,14.23a9.187,9.187,0,0,0-12.98,0l-9.476,9.476,1.232-.435a9.527,9.527,0,0,1,3.178-.542,9.69,9.69,0,0,1,1.7.151l.152.027,5.943-5.945a5.312,5.312,0,0,1,7.513,7.512l-9.331,9.33a5.264,5.264,0,0,1-2.875,1.479,5.362,5.362,0,0,1-.886.074,5.3,5.3,0,0,1-5.283-4.846l-.053-.617-3.323,3.181.067.182a9.165,9.165,0,0,0,6.46,5.716,9.262,9.262,0,0,0,2.132.249,9.121,9.121,0,0,0,6.494-2.685l9.331-9.331A9.188,9.188,0,0,0,171.137,14.23Zm-.419,12.559-9.331,9.331a8.532,8.532,0,0,1-6.075,2.511,8.669,8.669,0,0,1-2-.233,8.574,8.574,0,0,1-5.972-5.165l2.173-2.08a5.887,5.887,0,0,0,5.793,4.8,5.955,5.955,0,0,0,.983-.082,5.853,5.853,0,0,0,3.2-1.644l9.331-9.331a5.9,5.9,0,0,0-8.351-8.351l-5.725,5.727a10.251,10.251,0,0,0-3.909.117l7.739-7.739a8.585,8.585,0,1,1,12.142,12.14Z" transform="translate(-146.653 -11.545)" fill="#fff"/>
          </g>
        </g>
      </g>
      <g id="Group_42168" data-name="Group 42168" transform="translate(14.256 1.284)">
        <g id="Group_42167" data-name="Group 42167" transform="translate(0 0)" opacity="0.184">
          <path id="Path_28619" data-name="Path 28619" d="M186.183,28.641a7.9,7.9,0,0,0-11.164,0l-6.312,6.311q.168-.005.337-.005a11,11,0,0,1,1.412.091l5.479-5.481a6.6,6.6,0,1,1,9.329,9.329l-9.331,9.331a6.538,6.538,0,0,1-3.569,1.836,6.644,6.644,0,0,1-1.1.092,6.578,6.578,0,0,1-6.14-4.2l-1,.958a7.889,7.889,0,0,0,5.306,4.324,7.975,7.975,0,0,0,1.836.214,7.845,7.845,0,0,0,5.586-2.309l9.331-9.331a7.9,7.9,0,0,0,0-11.162Z" transform="translate(-164.124 -26.332)" fill="#fff"/>
        </g>
      </g>
      <g id="Group_42171" data-name="Group 42171" transform="translate(28.272 25.931)">
        <g id="Group_42170" data-name="Group 42170">
          <g id="Group_42169" data-name="Group 42169">
            <path id="Path_28620" data-name="Path 28620" d="M332.567,310.071a7.082,7.082,0,1,0,7.082,7.082A7.09,7.09,0,0,0,332.567,310.071Zm0,13.572a6.49,6.49,0,1,1,6.489-6.489A6.5,6.5,0,0,1,332.567,323.643Z" transform="translate(-325.485 -310.071)" fill="#fff"/>
          </g>
        </g>
      </g>
      <g id="Group_42174" data-name="Group 42174" transform="translate(35.651 33.31)">
        <g id="Group_42173" data-name="Group 42173">
          <g id="Group_42172" data-name="Group 42172">
            <path id="Path_28621" data-name="Path 28621" d="M406.54,396.122l.209.555c.191-.072.381-.15.564-.232l-.242-.541C406.9,395.981,406.72,396.055,406.54,396.122Zm1.048-.468.275.525c.181-.095.36-.2.532-.3l-.308-.506C407.926,395.47,407.758,395.565,407.589,395.654Zm1.865-1.315.4.433c.149-.139.295-.286.433-.435l-.435-.4C409.728,394.073,409.592,394.209,409.454,394.338ZM403.2,396.8l.03.592q.283-.014.561-.04l-.056-.59Q403.47,396.782,403.2,396.8Zm1.109-.107.085.587c.2-.029.4-.063.6-.1l-.114-.582C404.692,396.628,404.5,396.661,404.309,396.688Zm1.132-.223.145.575c.2-.05.394-.105.586-.165l-.177-.566C405.815,396.366,405.628,396.418,405.441,396.466Zm3.126-1.407.341.485c.167-.117.331-.241.488-.369l-.373-.46C408.876,394.833,408.723,394.949,408.567,395.058Zm3.4-5.733.588.079c.027-.2.048-.4.064-.606l-.591-.045C412.012,388.945,411.991,389.138,411.966,389.325Zm-1.737,4.176.463.37c.128-.159.251-.325.366-.493l-.488-.336C410.463,393.2,410.348,393.353,410.229,393.5Zm2.417-5.918-.593.017q0,.162,0,.321,0,.129,0,.257l.593.014q0-.134,0-.271Q412.651,387.753,412.646,387.583Zm-.9,2.869.574.15c.051-.195.1-.4.136-.6l-.582-.114C411.836,390.08,411.793,390.269,411.745,390.452Zm-.362,1.085.548.225c.077-.187.148-.38.213-.574l-.562-.187C411.522,391.182,411.455,391.363,411.383,391.537Zm-.506,1.024.511.3c.1-.175.2-.357.291-.54l-.531-.263C411.064,392.228,410.972,392.4,410.877,392.561Z" transform="translate(-403.2 -387.583)" fill="#fff"/>
          </g>
        </g>
      </g>
      <g id="Group_42176" data-name="Group 42176" transform="translate(29.557 27.215)">
        <g id="Group_42175" data-name="Group 42175">
          <path id="Path_28622" data-name="Path 28622" d="M346.07,324.857a5.8,5.8,0,1,0,5.8,5.8A5.8,5.8,0,0,0,346.07,324.857Z" transform="translate(-340.272 -324.857)" fill="#9a7b62"/>
        </g>
      </g>
      <g id="Group_42178" data-name="Group 42178" transform="translate(35.058 29.269)">
        <g id="Group_42177" data-name="Group 42177">
          <rect id="Rectangle_7937" data-name="Rectangle 7937" width="0.593" height="7.489" fill="#fff"/>
        </g>
      </g>
      <g id="Group_42180" data-name="Group 42180" transform="translate(31.61 32.717)">
        <g id="Group_42179" data-name="Group 42179">
          <rect id="Rectangle_7938" data-name="Rectangle 7938" width="7.489" height="0.593" fill="#fff"/>
        </g>
      </g>
      <g id="Group_42183" data-name="Group 42183" transform="translate(7.174 6.427)">
        <g id="Group_42182" data-name="Group 42182">
          <g id="Group_42181" data-name="Group 42181">
            <path id="Path_28623" data-name="Path 28623" d="M27.911,171.636l.419.419.419-.419-.419-.419Zm.838-.839.419.419.419-.419-.419-.419Zm-1.676,1.677.419.419.419-.419-.419-.419Zm2.514-2.516.419.419.419-.419-.419-.419Zm4.61-4.612-.419.419.419.419.419-.419Zm-7.962,7.966.419.419.419-.419-.419-.419Zm4.191-4.193.419.419.419-.419-.419-.419ZM32.94,166.6l.419.419.419-.419-.419-.419Zm-.838.839.419.419.419-.419-.419-.419Zm-.838.839.419.419.419-.419-.419-.419Z" transform="translate(-26.235 -165.347)" fill="#fff"/>
          </g>
        </g>
      </g>
    </g>
  </g>
</svg>
