<svg width="15" height="8" viewBox="0 0 15 8" fill="none" xmlns="http://www.w3.org/2000/svg">
<g clip-path="url(#clip0_4574_4690)">
<path d="M3.50753 0.499985C4.36684 0.510456 5.19662 0.6668 6.01099 0.881996C7.15952 1.18565 8.29973 1.51278 9.44826 1.8168C10.0621 1.98353 10.6968 2.08559 11.3388 2.12082C12.2101 2.16415 12.995 1.9977 13.6366 1.44816C13.8564 1.26004 14.1618 1.26437 14.3595 1.4413C14.5571 1.61822 14.5438 1.89082 14.3216 2.07858C13.6828 2.62018 12.9101 2.89603 12.0291 2.97222C11.1303 3.05021 10.2568 2.92347 9.40332 2.70755C8.27559 2.42267 7.16119 2.09843 6.03887 1.7973C5.31563 1.60341 4.5824 1.44057 3.82545 1.38677C2.89082 1.32033 2.03982 1.47054 1.35445 2.07858C1.30904 2.12091 1.25407 2.15466 1.19297 2.17775C1.13186 2.20083 1.06593 2.21274 0.999282 2.21274C0.932635 2.21274 0.866702 2.20083 0.805596 2.17775C0.744489 2.15466 0.689517 2.12091 0.64411 2.07858C0.447695 1.90382 0.451854 1.63988 0.657841 1.4608C1.27455 0.924612 2.02235 0.624196 2.88707 0.540428C3.09306 0.519487 3.30071 0.512622 3.50753 0.499985Z" fill="#A5A5A5"/>
<path d="M11.5007 7.5C10.6094 7.48592 9.75295 7.31514 8.90778 7.08983C7.85912 6.81037 6.81879 6.50743 5.77013 6.22869C5.07061 6.04274 4.35818 5.90373 3.62246 5.8752C2.7673 5.84198 1.99954 6.01565 1.37533 6.55906C1.15187 6.75404 0.843515 6.75368 0.64169 6.57315C0.439865 6.39261 0.454432 6.13012 0.680393 5.93731C1.32831 5.38452 2.11273 5.09782 3.01074 5.02453C3.9845 4.94509 4.92496 5.10686 5.84587 5.343C6.89286 5.61091 7.92653 5.91565 8.96937 6.19764C9.6872 6.39189 10.4138 6.55437 11.1666 6.60998C12.0987 6.67894 12.9559 6.53956 13.6459 5.93694C13.6919 5.89528 13.7472 5.8622 13.8084 5.83969C13.8697 5.81719 13.9356 5.80573 14.0021 5.80604C14.0686 5.80634 14.1343 5.81839 14.1953 5.84146C14.2562 5.86452 14.3111 5.89813 14.3566 5.9402C14.403 5.98142 14.4395 6.03024 14.4638 6.08382C14.4882 6.1374 14.5 6.19467 14.4986 6.25226C14.4972 6.30985 14.4825 6.36662 14.4555 6.41923C14.4285 6.47185 14.3896 6.51927 14.3412 6.55871C13.742 7.07612 13.0134 7.36352 12.1803 7.45559C11.9568 7.4805 11.7279 7.48556 11.5007 7.5Z" fill="#A5A5A5"/>
</g>
<defs>
<clipPath id="clip0_4574_4690">
<rect width="14" height="7" fill="white" transform="translate(0.5 0.5)"/>
</clipPath>
</defs>
</svg>
