<svg width="30" height="30" viewBox="0 0 30 30" fill="none" xmlns="http://www.w3.org/2000/svg">
<path d="M15 30C23.2843 30 30 23.2843 30 15C30 6.71573 23.2843 0 15 0C6.71573 0 0 6.71573 0 15C0 23.2843 6.71573 30 15 30Z" fill="#BB4949"/>
<path fill-rule="evenodd" clip-rule="evenodd" d="M14.9999 7.35797C15.3735 7.36896 15.7275 7.52769 15.9841 7.79935C16.2408 8.071 16.3792 8.43339 16.3689 8.80697V15.879C16.3802 16.0658 16.3532 16.2529 16.2895 16.4289C16.2258 16.6048 16.1267 16.7659 15.9984 16.9022C15.8702 17.0385 15.7154 17.147 15.5436 17.2213C15.3718 17.2955 15.1866 17.3338 14.9994 17.3338C14.8123 17.3338 14.6271 17.2955 14.4553 17.2213C14.2835 17.147 14.1287 17.0385 14.0005 16.9022C13.8722 16.7659 13.7731 16.6048 13.7094 16.4289C13.6457 16.2529 13.6186 16.0658 13.6299 15.879V8.80697C13.6197 8.43322 13.7583 8.07069 14.0151 7.799C14.272 7.52732 14.6262 7.3687 14.9999 7.35797ZM14.9999 22.642C15.2902 22.6586 15.5788 22.5877 15.8283 22.4384C16.0778 22.2892 16.2768 22.0685 16.3994 21.8049C16.5221 21.5413 16.5628 21.2469 16.5162 20.9599C16.4697 20.6729 16.3381 20.4065 16.1384 20.1952C15.9387 19.9838 15.6802 19.8373 15.3963 19.7746C15.1124 19.7118 14.8162 19.7357 14.5461 19.8432C14.2759 19.9507 14.0443 20.1369 13.8811 20.3775C13.718 20.6181 13.6308 20.9022 13.6309 21.193C13.6207 21.5666 13.7591 21.9289 14.0158 22.2006C14.2724 22.4722 14.6264 22.631 14.9999 22.642Z" fill="#FDF7F0" stroke="#FDF7F0"/>
</svg>
