<svg width="16" height="14" viewBox="0 0 16 14" fill="none" xmlns="http://www.w3.org/2000/svg">
<path d="M14.2976 14H1.69388C1.27633 13.9995 0.876369 13.8309 0.581118 13.531C0.285868 13.2311 0.119594 12.8245 0.119141 12.4004V1.70293C0.119093 1.28288 0.281741 0.879661 0.571929 0.580372C0.862117 0.281084 1.25654 0.109905 1.67007 0.103517L10.8783 0H10.9071C11.5318 0.000459067 12.1309 0.252451 12.5729 0.700859C13.0149 1.14927 13.2639 1.75743 13.265 2.39192L13.2888 2.43201V2.53531H14.3051C14.7229 2.536 15.1235 2.70496 15.4187 3.00517C15.714 3.30537 15.8796 3.71232 15.8799 4.13664V10.6088L15.8715 9.91979V12.4004C15.871 12.8243 15.705 13.2307 15.4099 13.5306C15.1149 13.8304 14.715 13.9993 14.2976 14ZM5.62403 7.00732C5.48007 7.0067 5.33924 7.04995 5.21969 7.13141C5.10015 7.21287 5.00723 7.32892 4.9532 7.46445C4.89774 7.60038 4.8824 7.74969 4.90851 7.89442C4.93461 8.03916 5.00135 8.17313 5.10065 8.28028L7.8721 11.2526C7.94103 11.3275 8.02433 11.3873 8.11687 11.4282C8.20941 11.4691 8.30916 11.4905 8.4101 11.4908C8.61251 11.4883 8.80574 11.4049 8.9481 11.2587L11.7124 8.29513C11.811 8.18914 11.8772 8.05644 11.9033 7.91309C11.9294 7.76974 11.9142 7.62171 11.8595 7.48693L11.7926 7.44175C11.737 7.30784 11.6438 7.19361 11.5245 7.11338C11.4052 7.03315 11.2649 6.99068 11.1218 6.99098H10.2522C10.1306 6.03953 9.67218 5.16549 8.96272 4.53204C8.25325 3.89859 7.34098 3.54888 6.39636 3.54842H4.81118C4.6485 3.54836 4.49077 3.60368 4.36257 3.70539C4.23437 3.8071 4.14335 3.94937 4.10401 4.1097C4.06243 4.27043 4.07457 4.44066 4.13868 4.59355C4.2028 4.74645 4.31531 4.87325 4.45822 4.95417L5.81408 5.73627C6.05123 5.87231 6.25903 6.05484 6.42601 6.27337C6.593 6.4919 6.7156 6.74214 6.78649 7.00923L5.62403 7.00732Z" fill="#FDF7F0"/>
</svg>
