<svg width="16" height="16" viewBox="0 0 16 16" fill="none" xmlns="http://www.w3.org/2000/svg">
<path d="M11.5744 13.3812C11.7381 13.0252 12.0297 12.7642 12.3823 12.6412V11.3125C12.3823 10.5371 13.0132 9.90625 13.7886 9.90625H14.594C14.7537 9.90619 14.9122 9.93345 15.0627 9.98687V1.40625C15.0627 0.630844 14.4319 0 13.6565 0H4.28128C3.50586 0 2.875 0.630844 2.875 1.40625V2.09375H10.9377C11.9716 2.09375 12.8127 2.93488 12.8127 3.96875V8.34375C12.8127 9.37762 11.9716 10.2188 10.9377 10.2188H2.875V14.5938C2.875 15.3692 3.50586 16 4.28128 16H12.7409L11.7842 14.8839C11.4225 14.4619 11.3421 13.8861 11.5744 13.3812Z" fill="#F6F2ED"/>
<path d="M15.5313 13.5H15.0634V11.3125C15.0634 11.0536 14.8536 10.8438 14.5947 10.8438H13.7893C13.5304 10.8438 13.3205 11.0536 13.3205 11.3125V13.5H12.8527C12.4522 13.5 12.2361 13.9697 12.4968 14.2738L13.8361 15.8363C14.0231 16.0546 14.3608 16.0546 14.5479 15.8363L15.8872 14.2738C16.1478 13.9697 15.9318 13.5 15.5313 13.5ZM6.00113 4.90625H5.42912C5.42978 5.28816 5.43081 5.91256 5.43081 6.15278C5.43081 6.43913 5.43262 7.03647 5.43381 7.40472C5.63681 7.40356 5.88766 7.40175 6.02157 7.39941C6.6599 7.38825 6.95062 6.74716 6.95062 6.15625C6.95062 5.55197 6.70121 4.90625 6.00113 4.90625ZM2.96685 4.90625H2.41016C2.41075 5.11312 2.41141 5.36559 2.41141 5.47563C2.41141 5.60538 2.41253 5.84859 2.41353 6.04712C2.60619 6.04609 2.83988 6.04503 2.96685 6.04503C3.28486 6.04503 3.55352 5.78428 3.55352 5.47566C3.55352 5.16703 3.28486 4.90625 2.96685 4.90625Z" fill="#F6F2ED"/>
<path d="M11.8752 8.34375V3.96875C11.8752 3.45097 11.4555 3.03125 10.9377 3.03125H0.937518C0.419727 3.03125 0 3.45097 0 3.96875V8.34375C0 8.86153 0.419727 9.28125 0.937518 9.28125H10.9377C11.4555 9.28125 11.8752 8.86153 11.8752 8.34375ZM2.96621 6.67C2.83868 6.67 2.60183 6.67109 2.40858 6.67212V7.71875C2.40858 7.89134 2.26867 8.03125 2.09607 8.03125C1.92348 8.03125 1.78357 7.89134 1.78357 7.71875V4.59475C1.78344 4.55363 1.79143 4.51289 1.80708 4.47487C1.82273 4.43684 1.84573 4.40228 1.87476 4.37316C1.90379 4.34404 1.93829 4.32094 1.97626 4.30517C2.01424 4.2894 2.05495 4.28129 2.09607 4.28128H2.96621C3.63432 4.28128 4.17789 4.81709 4.17789 5.47566C4.17789 6.13422 3.63435 6.67 2.96621 6.67ZM7.17686 7.44203C6.89526 7.80953 6.48866 8.01631 6.03187 8.02431C5.78024 8.02872 5.14966 8.03116 5.12294 8.03125H5.12176C5.03907 8.03125 4.95975 7.99848 4.90118 7.94012C4.8426 7.88176 4.80955 7.80256 4.80925 7.71987C4.80922 7.70853 4.80519 6.58241 4.80519 6.15278C4.80519 5.79647 4.80294 4.59434 4.80294 4.59431C4.80286 4.55323 4.81088 4.51253 4.82655 4.47455C4.84222 4.43657 4.86523 4.40206 4.89425 4.37298C4.92327 4.3439 4.95775 4.32083 4.9957 4.30509C5.03365 4.28935 5.07433 4.28125 5.11541 4.28125H6.00049C6.94226 4.28125 7.57499 5.03475 7.57499 6.15625C7.57499 6.65031 7.43361 7.10694 7.17686 7.44203ZM9.77913 4.90625H8.82502V5.81416H9.6785C9.8511 5.81416 9.99101 5.95406 9.99101 6.12666C9.99101 6.29925 9.8511 6.43916 9.6785 6.43916H8.82502V7.71875C8.82502 7.89134 8.68511 8.03125 8.51251 8.03125C8.33991 8.03125 8.2 7.89134 8.2 7.71875V4.59375C8.20001 4.51087 8.23294 4.43139 8.29154 4.37279C8.35015 4.31419 8.42963 4.28126 8.51251 4.28125H9.77913C9.95173 4.28125 10.0916 4.42116 10.0916 4.59375C10.0916 4.76634 9.95173 4.90625 9.77913 4.90625Z" fill="#F6F2ED"/>
</svg>
