<svg width="37" height="37" viewBox="0 0 37 37" fill="none" xmlns="http://www.w3.org/2000/svg">
<g clip-path="url(#clip0_4477_13055)">
<path d="M18.447 0.000136529C22.1052 -0.0103137 25.6843 1.06438 28.732 3.08867C31.7797 5.11296 34.1592 7.99593 35.5696 11.3729C36.98 14.7499 37.358 18.4693 36.6559 22.0612C35.9537 25.6531 34.203 28.9562 31.6249 31.5527C29.0468 34.1493 25.7571 35.9229 22.1717 36.6493C18.5863 37.3757 14.8661 37.0223 11.4814 35.6339C8.09671 34.2454 5.1995 31.8842 3.15588 28.8486C1.11226 25.813 0.0140537 22.2393 7.62246e-05 18.5794C-0.0139961 13.6689 1.92093 8.9539 5.37992 5.47008C8.83891 1.98625 13.5389 0.0188409 18.447 0.000136529ZM18.447 34.3862C22.1137 34.4078 25.6748 33.1599 28.5266 30.854C28.6171 30.7991 28.6858 30.7147 28.7212 30.6149C28.7566 30.5152 28.7565 30.4061 28.7208 30.3064C28.2758 28.6923 27.4507 27.2085 26.3142 25.9793C25.1778 24.7501 23.7633 23.8114 22.1894 23.242C22.0078 23.1711 21.8062 23.1711 21.6246 23.242C20.6445 23.6573 19.5909 23.8713 18.5265 23.8713C17.4622 23.8713 16.4086 23.6573 15.4285 23.242C15.2679 23.1894 15.0947 23.1894 14.9342 23.242C13.3507 23.8014 11.9262 24.7363 10.7826 25.9666C9.639 27.1969 8.81043 28.6859 8.36743 30.3064C8.31345 30.4156 8.30145 30.5407 8.33403 30.6581C8.3666 30.7754 8.44141 30.8766 8.54391 30.9422C11.3509 33.1707 14.8283 34.3845 18.4117 34.3862H18.447ZM18.5354 10.5791C17.488 10.5791 16.464 10.8897 15.5931 11.4719C14.7222 12.0541 14.0434 12.8817 13.6425 13.8498C13.2417 14.818 13.137 15.8832 13.3413 16.911C13.5456 17.9388 14.05 18.8828 14.7907 19.6237C15.5313 20.3647 16.4748 20.8694 17.5021 21.0738C18.5294 21.2782 19.5941 21.1734 20.5618 20.7724C21.5295 20.3714 22.3567 19.6922 22.9386 18.8209C23.5205 17.9496 23.8312 16.9254 23.8312 15.8774C23.8312 15.1787 23.6929 14.4868 23.4246 13.8416C23.1562 13.1965 22.7631 12.6109 22.2676 12.1184C21.7721 11.626 21.1841 11.2363 20.5375 10.9721C19.8909 10.708 19.1985 10.5745 18.5 10.5791H18.5354Z" fill="#2F4F4F"/>
<path d="M18.4116 34.3862C14.8055 34.3673 11.3132 33.1217 8.50848 30.8539C8.40598 30.7883 8.33138 30.6871 8.29881 30.5698C8.26624 30.4525 8.27802 30.3273 8.332 30.2182C8.775 28.5976 9.60379 27.1084 10.7474 25.8781C11.891 24.6479 13.3153 23.7132 14.8987 23.1537C15.0593 23.1011 15.2325 23.1011 15.3931 23.1537C16.3732 23.569 17.4267 23.783 18.4911 23.783C19.5555 23.783 20.6091 23.569 21.5892 23.1537C21.7708 23.0828 21.9723 23.0828 22.154 23.1537C23.7278 23.7231 25.1424 24.6617 26.2788 25.8908C27.4153 27.12 28.2406 28.604 28.6856 30.2182C28.7213 30.3178 28.7214 30.4267 28.686 30.5265C28.6506 30.6262 28.5817 30.7107 28.4912 30.7655C25.6514 33.1031 22.0891 34.3828 18.4116 34.3862Z" fill="#F9F4F0"/>
<path d="M18.4999 10.5791C19.5473 10.5791 20.5711 10.8896 21.4419 11.4718C22.3128 12.054 22.9917 12.8816 23.3925 13.8498C23.7934 14.8179 23.8981 15.8832 23.6938 16.9109C23.4894 17.9387 22.9853 18.8827 22.2446 19.6237C21.504 20.3647 20.5602 20.8693 19.5329 21.0738C18.5057 21.2782 17.4409 21.1734 16.4733 20.7724C15.5056 20.3713 14.6786 19.6922 14.0966 18.8208C13.5147 17.9495 13.2041 16.9253 13.2041 15.8774C13.2041 14.4722 13.762 13.1245 14.7552 12.1309C15.7483 11.1373 17.0954 10.5791 18.4999 10.5791Z" fill="#F9F4F0"/>
</g>
<defs>
<clipPath id="clip0_4477_13055">
<rect width="37" height="37" fill="white"/>
</clipPath>
</defs>
</svg>
