<svg width="24" height="21" viewBox="0 0 24 21" fill="none" xmlns="http://www.w3.org/2000/svg">
<path d="M0.000599906 9.99263L0.113865 9.45077C0.293661 8.58905 0.764137 7.87233 1.26217 7.17113C2.64061 5.23224 4.33669 3.66335 6.51043 2.64467C8.42826 1.74535 10.454 1.43921 12.5576 1.60929C14.232 1.74287 15.8547 2.25013 17.3054 3.09344C17.4474 3.1752 17.514 3.12268 17.605 3.03018C18.512 2.12031 19.4208 1.21243 20.3314 0.306544C20.8833 -0.239495 21.7601 -0.0246596 21.9561 0.7022C22.061 1.09129 21.9309 1.41832 21.6481 1.69522C20.8462 2.48832 20.0509 3.28738 19.2508 4.08227C19.1828 4.14229 19.1114 4.19828 19.0368 4.24997C19.4521 4.64682 19.8429 5.00249 20.2133 5.37845C21.0553 6.23362 21.8033 7.16875 22.3774 8.22025C23.1859 9.70261 23.2237 11.2399 22.3924 12.7091C21.1854 14.8431 19.5355 16.5821 17.4019 17.8311C15.2371 19.0981 12.8914 19.5618 10.4024 19.3577C8.74355 19.2214 7.136 18.7189 5.69655 17.8866C5.5605 17.8091 5.48378 17.8204 5.3741 17.9308C4.46434 18.8482 3.55037 19.7615 2.63221 20.6705C2.27262 21.0286 1.82254 21.0966 1.42699 20.8657C0.870817 20.541 0.789312 19.816 1.26577 19.3356C2.08604 18.5085 2.9107 17.6855 3.73976 16.8668C3.80019 16.8133 3.86406 16.7639 3.93095 16.7188C3.50304 16.3088 3.10149 15.943 2.71973 15.5539C1.94092 14.7573 1.25716 13.8738 0.682035 12.921C0.336245 12.3603 0.116263 11.7319 0.0371649 11.0787C0.0283499 11.0437 0.0158897 11.0097 0 10.9773L0.000599906 9.99263ZM7.47713 13.0958C6.21496 11.1265 6.57335 8.76987 7.938 7.28034C8.62055 6.51789 9.536 6.00015 10.5432 5.80693C11.8246 5.55569 13.0178 5.80693 14.0792 6.47888L15.9899 4.56924C15.9971 4.57759 15.9899 4.56267 15.9773 4.55611C15.9252 4.52746 15.8718 4.50061 15.8185 4.47435C14.6247 3.88175 13.3195 3.54469 11.987 3.48491C10.083 3.39838 8.2916 3.79463 6.63208 4.73812C4.78917 5.78783 3.38076 7.27974 2.30139 9.08078C1.72784 10.0356 1.762 11.04 2.36132 11.981C2.7466 12.5751 3.16541 13.1469 3.61571 13.6938C4.10525 14.2867 4.65919 14.8239 5.26742 15.2955L7.47713 13.0958ZM15.5008 7.89381C16.0934 8.8076 16.3558 9.89509 16.2448 10.9772C16.1338 12.0593 15.656 13.0715 14.8901 13.8471C13.4176 15.3349 10.9472 15.8099 8.90291 14.5084L6.98509 16.412C7.01505 16.4287 7.06539 16.4604 7.11813 16.486C9.82407 17.7738 12.5767 17.8657 15.339 16.7188C17.7045 15.7365 19.4144 13.9898 20.7029 11.8253C21.2303 10.9415 21.1998 9.98905 20.679 9.09749C19.9079 7.7896 18.9043 6.63232 17.7171 5.6822C16.9788 6.41622 16.2458 7.14726 15.5008 7.89083V7.89381ZM8.87953 11.6475L12.6499 7.88784C11.6652 7.37045 10.3125 7.60498 9.45548 8.46193C8.59846 9.31888 8.36172 10.6682 8.87953 11.6445V11.6475ZM10.2993 13.0737C11.296 13.6168 12.711 13.3542 13.5572 12.4692C14.467 11.5186 14.5467 10.1466 14.0715 9.30994L10.2993 13.0737Z" fill="#878787"/>
</svg>
