<svg width="25" height="25" viewBox="0 0 25 25" fill="none" xmlns="http://www.w3.org/2000/svg">
<path d="M23.7503 25H12.5028C10.0303 25.0011 7.61301 24.2688 5.55682 22.8957C3.50063 21.5225 1.89796 19.5703 0.951613 17.2861C0.00526546 15.0018 -0.24223 12.4882 0.240445 10.0632C0.72312 7.63824 1.91427 5.41096 3.66317 3.66317C5.41096 1.91427 7.63824 0.72312 10.0632 0.240445C12.4882 -0.24223 15.0018 0.00526546 17.2861 0.951613C19.5703 1.89796 21.5225 3.50063 22.8957 5.55682C24.2688 7.61301 25.0011 10.0303 25 12.5028V23.7503C25 24.0817 24.8683 24.3996 24.634 24.634C24.3996 24.8683 24.0817 25 23.7503 25ZM11.9835 16.2811C11.576 16.2811 11.1776 16.4021 10.8389 16.6286C10.5001 16.8551 10.2362 17.177 10.0805 17.5536C9.92478 17.9302 9.88433 18.3446 9.96424 18.7442C10.0441 19.1438 10.2408 19.5107 10.5294 19.7985C10.8179 20.0862 11.1854 20.2819 11.5852 20.3608C11.985 20.4396 12.3992 20.398 12.7754 20.2413C13.1516 20.0846 13.4728 19.8198 13.6984 19.4804C13.924 19.141 14.0439 18.7424 14.0428 18.3348C14.0406 17.7899 13.8227 17.268 13.4369 16.8831C13.051 16.4983 12.5285 16.2819 11.9835 16.2811ZM12.1432 8.76341C12.8014 8.76341 13.1638 9.04112 13.1638 9.5424C13.1638 10.0437 12.7472 10.3283 12.2071 10.688C11.5712 11.025 11.0448 11.5367 10.6898 12.1627C10.3349 12.7888 10.1661 13.5032 10.2034 14.2219V14.6024H13.7234V14.3427C13.7234 13.454 14.4038 12.9888 15.1911 12.4487C15.8106 12.1495 16.3355 11.6851 16.7079 11.1066C17.0804 10.5281 17.2858 9.85806 17.3017 9.17026C17.3044 8.70044 17.1999 8.2362 16.9964 7.81276C16.7928 7.38931 16.4955 7.01779 16.127 6.72637C15.0976 5.98737 13.8476 5.62015 12.582 5.68494C11.6363 5.65023 10.6953 5.83385 9.83196 6.22155C8.96866 6.60925 8.20628 7.19061 7.60395 7.92054L10.0631 9.84372C10.3178 9.53129 10.6337 9.27428 10.9915 9.0885C11.3492 8.90271 11.7411 8.79208 12.1432 8.76341Z" fill="#2D6759"/>
</svg>
