<svg width="36" height="36" viewBox="0 0 36 36" fill="none" xmlns="http://www.w3.org/2000/svg">
<path d="M18.0146 35.9857C27.9477 35.9857 36.0001 27.9333 36.0001 18.0002C36.0001 8.06703 27.9477 0.0146484 18.0146 0.0146484C8.08144 0.0146484 0.0290527 8.06703 0.0290527 18.0002C0.0290527 27.9333 8.08144 35.9857 18.0146 35.9857Z" fill="#91785D"/>
<path d="M2.90146 18.0371V17.8985L2.20532 17.8922V18.0371C2.20532 18.2268 2.20884 18.4159 2.2159 18.6042L2.91205 18.5788C2.90499 18.399 2.90146 18.2184 2.90146 18.0371ZM3.12046 20.608L2.4349 20.7265C2.4751 20.9603 2.52165 21.1952 2.57137 21.4248L3.25165 21.2756C3.20405 21.0566 3.1596 20.8312 3.12046 20.608ZM2.95013 19.258L2.25609 19.3141C2.27514 19.549 2.29947 19.787 2.32909 20.0219L3.01995 19.9351C2.99244 19.7108 2.96917 19.4823 2.95013 19.258ZM3.41246 21.9358L2.73959 22.1167C2.80095 22.3462 2.86867 22.5758 2.93955 22.8001L3.6029 22.5885C3.53625 22.3759 3.4717 22.1537 3.41246 21.9358ZM2.97552 16.5401L2.28255 16.4713C2.25928 16.7062 2.24128 16.9442 2.22858 17.1812L2.92367 17.2183C2.93531 16.9919 2.9533 16.7633 2.97552 16.5401ZM3.48757 13.8708L2.81893 13.6783C2.75334 13.9057 2.69304 14.1375 2.63803 14.366L3.31513 14.5278C3.36591 14.3099 3.42409 14.0877 3.48757 13.8708ZM3.17018 15.1933L2.48673 15.0621C2.4423 15.2938 2.4021 15.5297 2.36824 15.7636L3.05698 15.863C3.08978 15.6408 3.12786 15.4144 3.17018 15.1933ZM3.82402 23.2339L3.17124 23.4751C3.25271 23.6973 3.34052 23.9194 3.43151 24.1353L4.07369 23.8655C3.98694 23.6581 3.90231 23.4465 3.82402 23.2339ZM4.98778 25.6841L4.3879 26.0386C4.50851 26.2438 4.63548 26.4469 4.7635 26.6427L5.34643 26.2618C5.22265 26.0682 5.10415 25.8788 4.98778 25.6831V25.6841ZM9.24082 31.1644C9.43761 31.2956 9.64073 31.4247 9.84174 31.5464L10.2025 30.9507C10.0078 30.8329 9.81601 30.7109 9.62699 30.5847L9.24082 31.1644ZM8.09292 30.318C8.27595 30.4651 8.46533 30.6122 8.65682 30.7529L9.06943 30.1922C8.8864 30.0578 8.70443 29.9171 8.52987 29.7764L8.09292 30.318ZM10.7252 4.03171C10.5136 4.1375 10.302 4.25494 10.102 4.37343L10.4511 4.97648C10.6469 4.86328 10.8479 4.75324 11.0468 4.64956L10.7252 4.03171ZM7.02226 29.3765C7.19259 29.5404 7.36822 29.7034 7.5449 29.8589L8.00616 29.3373C7.83618 29.1871 7.66938 29.033 7.50575 28.875L7.02226 29.3765ZM10.4564 31.8987C10.668 32.0119 10.8796 32.1219 11.0912 32.2256L11.3959 31.5992C11.1914 31.4998 10.9893 31.394 10.7897 31.2819L10.4564 31.8987ZM3.91923 12.578L3.27069 12.3251C3.18393 12.5473 3.10247 12.7727 3.02736 12.9959L3.68752 13.2191C3.76264 13.0075 3.84094 12.7928 3.92346 12.5801L3.91923 12.578ZM6.5705 27.8868L6.04152 28.3428C6.19598 28.5216 6.35891 28.6994 6.51867 28.8718L7.02437 28.3936C6.87626 28.2296 6.72285 28.0603 6.57473 27.889L6.5705 27.8868ZM4.34876 24.4823L3.71928 24.7806C3.82508 24.9922 3.93086 25.2038 4.03666 25.4154L4.65135 25.0885C4.54978 24.8907 4.44716 24.6865 4.35089 24.4812L4.34876 24.4823ZM5.72942 26.8193L5.16446 27.2256C5.30306 27.4182 5.44694 27.6086 5.58765 27.7937L6.13462 27.3621C6.00131 27.1875 5.86378 27.0055 5.73153 26.8215L5.72942 26.8193ZM32.2231 13.1017L32.8812 12.8732C32.804 12.651 32.7204 12.4267 32.6326 12.2056L31.9861 12.4637C32.0718 12.6774 32.1512 12.8912 32.2253 13.1038L32.2231 13.1017ZM31.7195 11.8395L32.3543 11.5518C32.257 11.3402 32.1533 11.1212 32.0475 10.9117L31.4265 11.2291C31.5291 11.4301 31.6285 11.6364 31.7216 11.8417L31.7195 11.8395ZM31.1038 10.6282L31.71 10.2854C31.5947 10.0822 31.473 9.87593 31.3461 9.67386L30.7557 10.0442C30.8795 10.2409 30.9969 10.4367 31.1059 10.6313L31.1038 10.6282ZM30.3812 9.47709L30.9546 9.0814C30.8213 8.88884 30.6806 8.69525 30.5367 8.50587L29.9823 8.92905C30.122 9.11102 30.2564 9.29511 30.3833 9.4792L30.3812 9.47709ZM33.0261 17.0945L33.7212 17.0521C33.7064 16.8152 33.6863 16.5771 33.6609 16.3423L32.969 16.4163C32.9912 16.6395 33.0124 16.8638 33.0261 17.0945ZM29.556 8.40007L30.0913 7.95465C29.9411 7.77374 29.7835 7.5939 29.6237 7.41827L29.1095 7.88695C29.2672 8.05199 29.4174 8.2255 29.556 8.40007ZM32.8748 15.7445L33.5636 15.6387C33.5276 15.4038 33.4863 15.169 33.4398 14.9373L32.7574 15.0737C32.8061 15.2927 32.8452 15.5181 32.8801 15.7424L32.8748 15.7445ZM32.6072 14.4104L33.2832 14.2432C33.2261 14.0126 33.1626 13.782 33.096 13.5566L32.4284 13.7555C32.4982 13.9671 32.5574 14.1872 32.6125 14.4083L32.6072 14.4104ZM28.0822 5.94663C27.9003 5.79428 27.713 5.64511 27.5257 5.50228L27.1025 6.0556C27.2813 6.19208 27.4601 6.33491 27.6315 6.4788L28.0822 5.94663ZM5.8987 9.02638L5.3422 8.6032C5.20149 8.79046 5.0629 8.98513 4.92748 9.18297L5.50301 9.57546C5.63737 9.38291 5.77067 9.19672 5.90398 9.01899L5.8987 9.02638ZM6.76306 7.9737L6.24571 7.50819C6.08808 7.68276 5.92831 7.86474 5.78125 8.04777L6.31976 8.49C6.46894 8.30697 6.61811 8.13345 6.76834 7.96629L6.76306 7.9737ZM29.1317 6.90727C28.9646 6.74011 28.7921 6.57506 28.6176 6.4153L28.1468 6.92842C28.3139 7.08218 28.4779 7.23912 28.6387 7.39923L29.1317 6.90727ZM7.71734 7.00249L7.24337 6.49148C7.07198 6.65018 6.90059 6.81733 6.73237 6.98767L7.22855 7.47646C7.39466 7.30718 7.55865 7.14743 7.72264 6.99614L7.71734 7.00249ZM5.13166 10.15L4.5392 9.78389C4.41436 9.98596 4.29375 10.1923 4.17843 10.3986L4.78676 10.7371C4.90525 10.534 5.01845 10.3361 5.13801 10.1436L5.13166 10.15ZM8.75415 6.12225L8.33097 5.57105C8.14582 5.71388 7.95962 5.86517 7.7787 6.01963L8.22941 6.54862C8.40503 6.39627 8.58276 6.25239 8.75944 6.11591L8.75415 6.12225ZM4.47043 11.3412L3.84728 11.0302C3.74148 11.2418 3.6357 11.4534 3.54365 11.6755L4.17843 11.958C4.27788 11.7433 4.37627 11.5359 4.47572 11.3338L4.47043 11.3412ZM9.86609 5.3383L9.4905 4.75112C9.2916 4.87807 9.09376 5.01138 8.90015 5.14786L9.30112 5.71706C9.49155 5.58058 9.68094 5.45256 9.87032 5.33196L9.86609 5.3383ZM24.6555 31.5569L24.9654 32.1811C25.177 32.0753 25.3886 31.9695 25.5949 31.8511L25.2574 31.2417C25.0649 31.3432 24.8628 31.449 24.6597 31.5495L24.6555 31.5569ZM28.9931 28.3227L29.5031 28.7977C29.6649 28.6242 29.8205 28.4454 29.9771 28.2688L29.4481 27.817C29.3028 27.9835 29.1525 28.1496 28.9974 28.3153L28.9931 28.3227ZM25.9853 5.27799C26.1779 5.3993 26.3673 5.52485 26.5535 5.65463L26.9502 5.08227C26.7555 4.94685 26.5556 4.8146 26.3567 4.68976L25.9853 5.27799ZM12.0095 3.44241C11.7979 3.53022 11.5747 3.62649 11.3578 3.727L11.6509 4.36179C11.8625 4.26657 12.0667 4.17453 12.273 4.09095L12.0095 3.44241ZM25.8531 30.8915L26.217 31.485C26.417 31.3623 26.618 31.2321 26.8148 31.0988L26.4244 30.5222C26.2308 30.6503 26.0393 30.774 25.8531 30.8915ZM22.2824 3.58524C22.494 3.64978 22.7162 3.72066 22.931 3.79684L23.1595 3.13877C22.9341 3.06048 22.7067 2.98644 22.4803 2.91978L22.2824 3.58524ZM23.4197 32.0986L23.6715 32.7482C23.8927 32.6625 24.1138 32.5705 24.3275 32.4763L24.0461 31.8415C23.8429 31.9283 23.6313 32.0161 23.4197 32.0986ZM24.8078 4.59772C25.0102 4.7014 25.2102 4.80932 25.4077 4.92146L25.7515 4.31525C25.5452 4.19887 25.3347 4.08461 25.1241 3.97775L24.8078 4.59772ZM23.5668 4.03382C23.7784 4.1174 23.99 4.20733 24.1931 4.30149L24.4809 3.6667C24.2693 3.56831 24.044 3.47415 23.825 3.38634L23.5668 4.03382ZM26.9745 30.1287L27.3914 30.6873C27.5808 30.5466 27.7691 30.3984 27.9521 30.2493L27.5109 29.7097C27.3342 29.8525 27.1533 29.9932 26.9724 30.1287H26.9745ZM32.732 21.155L33.4133 21.2978C33.4631 21.064 33.5064 20.8291 33.5445 20.5985L32.8569 20.4863C32.8188 20.7064 32.7764 20.9317 32.7299 21.155H32.732ZM32.9521 19.8124L33.644 19.8928C33.6715 19.6558 33.6937 19.4178 33.7106 19.185L33.0166 19.1342C32.999 19.3621 32.9768 19.5881 32.95 19.8124H32.9521ZM32.3913 22.4711L33.0568 22.6763C33.1266 22.452 33.1912 22.2214 33.2504 21.9908L32.5765 21.8162C32.5183 22.0363 32.4548 22.2595 32.3892 22.4711H32.3913ZM33.7508 17.762L33.0547 17.7747C33.0547 17.8622 33.0547 17.9497 33.0547 18.0371C33.0547 18.1782 33.0529 18.3193 33.0494 18.4603L33.7456 18.4793C33.7498 18.3341 33.7519 18.1884 33.7519 18.0424C33.7512 17.9472 33.7501 17.8537 33.7487 17.762H33.7508ZM31.3556 24.9901L31.9734 25.3075C32.0792 25.0959 32.185 24.8843 32.2908 24.6727L31.6561 24.3786C31.5598 24.587 31.4603 24.7891 31.3545 24.9901H31.3556ZM30.6711 26.1676L31.2572 26.5443C31.3863 26.3432 31.5111 26.1391 31.6285 25.9359L31.0266 25.5868C30.9112 25.7804 30.7917 25.9761 30.669 26.1676H30.6711ZM29.8839 27.2785L30.4341 27.7017C30.5801 27.5144 30.7229 27.3219 30.8573 27.1304L30.2892 26.7273C30.153 26.9156 30.0169 27.0993 29.8808 27.2785H29.8839ZM31.9311 23.7544L32.5754 24.0189C32.6664 23.7988 32.7521 23.5745 32.8315 23.3534L32.1755 23.1186C32.0951 23.3302 32.0147 23.5439 31.928 23.7544H31.9311ZM28.0283 29.2664L28.4927 29.7848C28.6684 29.6272 28.8429 29.4674 29.0122 29.2982L28.5245 28.8009C28.3608 28.9603 28.1944 29.1158 28.0251 29.2675L28.0283 29.2664ZM16.1356 2.36963C15.9018 2.39714 15.6638 2.42994 15.431 2.46803L15.5432 3.1557C15.7664 3.11973 15.9928 3.08799 16.2171 3.06154L16.1356 2.36963ZM17.5554 2.26383C17.3163 2.27018 17.0772 2.28182 16.8445 2.29875L16.8942 2.99278C17.1199 2.97656 17.3466 2.96526 17.5745 2.95891L17.5554 2.26383ZM14.7306 2.59498C14.4989 2.64365 14.2651 2.70078 14.0377 2.75685L14.2122 3.43077C14.4302 3.3747 14.6523 3.32498 14.8745 3.27631L14.7306 2.59498ZM15.8489 33.6612C16.0848 33.693 16.3229 33.7194 16.5556 33.7406L16.618 33.0466C16.3909 33.0261 16.1656 33.0007 15.942 32.9704L15.8489 33.6612ZM14.4482 33.4063C14.6777 33.4592 14.9115 33.5121 15.1454 33.5491L15.2702 32.8635C15.047 32.8233 14.8227 32.7768 14.6037 32.7271L14.4482 33.4063ZM13.0728 33.0254C13.2992 33.0995 13.5288 33.1693 13.7541 33.2317L13.9403 32.561C13.7287 32.5017 13.5055 32.4351 13.2886 32.3642L13.0728 33.0254ZM22.1248 32.5271L22.3163 33.1968C22.5406 33.1323 22.7702 33.0614 22.9966 32.9852L22.7744 32.325C22.5617 32.4033 22.3427 32.471 22.129 32.5324L22.1248 32.5271ZM13.3489 2.95152C13.1236 3.02029 12.8961 3.09645 12.6729 3.1758L12.9078 3.83175C13.1193 3.75558 13.3383 3.68362 13.5531 3.62015L13.3489 2.95152ZM11.7429 32.5218C11.9545 32.6149 12.1809 32.7048 12.4042 32.7895L12.6507 32.1388C12.4391 32.0574 12.2275 31.9717 12.0159 31.8828L11.7429 32.5218ZM20.8055 32.8392L20.9356 33.5237C21.1652 33.4803 21.4001 33.4295 21.6318 33.3745L21.471 32.6974C21.2488 32.7577 21.0245 32.8053 20.8055 32.8477V32.8392ZM20.9568 3.2488C21.1779 3.29324 21.4011 3.34403 21.6201 3.39798L21.7884 2.72193C21.5588 2.6648 21.326 2.61614 21.0943 2.56536L20.9568 3.2488ZM19.6121 3.03721C19.8385 3.06154 20.0649 3.09117 20.2871 3.12608L20.3929 2.4384C20.1612 2.40243 19.9231 2.37175 19.6872 2.34636L19.6121 3.03721ZM18.2547 2.95152C18.4826 2.95575 18.7093 2.96492 18.935 2.97903L18.9784 2.28393C18.7425 2.26912 18.5034 2.2596 18.2674 2.25537L18.2547 2.95152ZM19.4587 33.0286L19.5254 33.7215C19.7581 33.6993 19.9961 33.6708 20.2321 33.6358L20.1337 32.9471C19.9083 32.9926 19.6819 33.0191 19.4598 33.0413L19.4587 33.0286ZM18.0992 33.1005L18.1056 33.7967C18.3447 33.7967 18.5838 33.7871 18.8176 33.7744L18.7805 33.0793C18.5548 33.0998 18.3281 33.1111 18.1003 33.1132L18.0992 33.1005ZM17.2655 33.7808C17.5004 33.7914 17.7395 33.7967 17.9775 33.7967V33.1005C17.7511 33.1005 17.5216 33.1005 17.2973 33.0857L17.2655 33.7808Z" fill="#FCFCFC"/>
<path d="M25.5263 26.4643H16.9567C15.0729 26.4652 13.2311 25.9072 11.6645 24.861C10.0978 23.8148 8.87674 22.3274 8.15571 20.587C7.43468 18.8466 7.24611 16.9314 7.61386 15.0838C7.98162 13.2362 8.88917 11.5392 10.2217 10.2075C11.5533 8.87501 13.2503 7.96746 15.0979 7.5997C16.9455 7.23195 18.8607 7.42052 20.6011 8.14155C22.3415 8.86258 23.8289 10.0837 24.8751 11.6503C25.9213 13.2169 26.4793 15.0587 26.4785 16.9426V25.5121C26.4785 25.7647 26.3781 26.0069 26.1996 26.1854C26.021 26.364 25.7788 26.4643 25.5263 26.4643ZM16.561 19.8213C16.2505 19.8213 15.947 19.9134 15.6889 20.086C15.4308 20.2586 15.2297 20.5039 15.1111 20.7908C14.9925 21.0778 14.9617 21.3935 15.0225 21.6979C15.0834 22.0024 15.2333 22.2819 15.4531 22.5012C15.673 22.7205 15.9529 22.8696 16.2576 22.9296C16.5622 22.9897 16.8778 22.958 17.1644 22.8386C17.451 22.7192 17.6958 22.5174 17.8677 22.2589C18.0395 22.0003 18.1309 21.6965 18.13 21.386C18.1283 20.9708 17.9624 20.5732 17.6684 20.28C17.3744 19.9868 16.9763 19.8219 16.561 19.8213ZM16.6827 14.0934C17.1842 14.0934 17.4603 14.305 17.4603 14.687C17.4603 15.0689 17.1429 15.2858 16.7314 15.5598C16.2469 15.8166 15.8458 16.2064 15.5754 16.6834C15.3049 17.1604 15.1763 17.7047 15.2047 18.2523V18.5422H17.8867V18.3444C17.8867 17.6673 18.4051 17.3129 19.005 16.9013C19.477 16.6733 19.8769 16.3195 20.1606 15.8787C20.4444 15.438 20.601 14.9275 20.6131 14.4034C20.6151 14.0455 20.5355 13.6918 20.3804 13.3691C20.2253 13.0465 19.9988 12.7634 19.718 12.5414C18.9337 11.9784 17.9813 11.6986 17.017 11.7479C16.2965 11.7215 15.5795 11.8614 14.9217 12.1568C14.264 12.4522 13.6831 12.8951 13.2242 13.4513L15.0979 14.9165C15.2919 14.6785 15.5326 14.4827 15.8052 14.3411C16.0777 14.1996 16.3764 14.1153 16.6827 14.0934Z" fill="#FDF7F0"/>
</svg>
