<svg xmlns="http://www.w3.org/2000/svg" width="18" height="18" viewBox="0 0 18 18">
  <path id="faq" d="M17.1,18H9A9,9,0,0,1,2.634,2.634,9,9,0,0,1,18,9v8.1A.9.9,0,0,1,17.1,18ZM8.626,11.721A1.483,1.483,0,1,0,10.109,13.2,1.485,1.485,0,0,0,8.626,11.721Zm.115-5.414c.474,0,.735.2.735.561s-.3.566-.689.825a2.721,2.721,0,0,0-1.443,2.545v.274H9.879v-.187c0-.64.49-.975,1.057-1.364A2.691,2.691,0,0,0,12.456,6.6a2.228,2.228,0,0,0-.846-1.76A4.025,4.025,0,0,0,9.057,4.09,4.437,4.437,0,0,0,5.472,5.7L7.243,7.085A2.128,2.128,0,0,1,8.741,6.307Z" fill="#fdf7f0"/>
</svg>
