<svg width="36" height="36" viewBox="0 0 36 36" fill="none" xmlns="http://www.w3.org/2000/svg">
<path d="M17.9855 35.971C27.9186 35.971 35.971 27.9186 35.971 17.9855C35.971 8.05239 27.9186 0 17.9855 0C8.05239 0 0 8.05239 0 17.9855C0 27.9186 8.05239 35.971 17.9855 35.971Z" fill="#6F6259"/>
<path d="M2.8724 18.023V17.8844L2.17627 17.878V18.023C2.17627 18.2127 2.17979 18.4017 2.18684 18.59L2.88299 18.5646C2.87594 18.3848 2.8724 18.2042 2.8724 18.023ZM3.0914 20.5938L2.40584 20.7123C2.44605 20.9461 2.4926 21.181 2.54232 21.4106L3.2226 21.2614C3.17499 21.0424 3.13055 20.8171 3.0914 20.5938ZM2.92108 19.2439L2.22704 19.2999C2.24608 19.5348 2.27042 19.7728 2.30004 20.0077L2.9909 19.921C2.96339 19.6967 2.94012 19.4682 2.92108 19.2439ZM3.38341 21.9216L2.71053 22.1025C2.7719 22.3321 2.83962 22.5617 2.9105 22.7859L3.57385 22.5743C3.5072 22.3617 3.44265 22.1395 3.38341 21.9216ZM2.94647 16.5259L2.2535 16.4572C2.23022 16.692 2.21223 16.9301 2.19953 17.1671L2.89462 17.2041C2.90625 16.9777 2.92425 16.7492 2.94647 16.5259ZM3.45852 13.8567L2.78988 13.6641C2.72428 13.8916 2.66399 14.1233 2.60898 14.3518L3.28608 14.5137C3.33686 14.2957 3.39504 14.0736 3.45852 13.8567ZM3.14113 15.1791L2.45768 15.0479C2.41325 15.2796 2.37304 15.5156 2.33919 15.7494L3.02793 15.8488C3.06073 15.6267 3.09881 15.4003 3.14113 15.1791ZM3.79496 23.2197L3.14219 23.4609C3.22365 23.6831 3.31147 23.9053 3.40245 24.1211L4.04464 23.8513C3.95788 23.644 3.87325 23.4324 3.79496 23.2197ZM4.95872 25.67L4.35885 26.0244C4.47946 26.2296 4.60643 26.4328 4.73444 26.6285L5.31738 26.2476C5.1936 26.054 5.0751 25.8646 4.95872 25.6689V25.67ZM9.21177 31.1503C9.40855 31.2815 9.61168 31.4105 9.81269 31.5322L10.1735 30.9366C9.9788 30.8188 9.78696 30.6967 9.59794 30.5705L9.21177 31.1503ZM8.06386 30.3039C8.24689 30.4509 8.43628 30.598 8.62777 30.7387L9.04038 30.178C8.85735 30.0436 8.67538 29.9029 8.50082 29.7622L8.06386 30.3039ZM10.6961 4.01755C10.4845 4.12334 10.2729 4.24077 10.073 4.35927L10.4221 4.96232C10.6178 4.84912 10.8188 4.73908 11.0177 4.6354L10.6961 4.01755ZM6.99321 29.3623C7.16354 29.5263 7.33916 29.6892 7.51585 29.8447L7.97711 29.3231C7.80713 29.1729 7.64033 29.0188 7.4767 28.8608L6.99321 29.3623ZM10.4274 31.8845C10.639 31.9977 10.8506 32.1077 11.0622 32.2114L11.3669 31.5851C11.1623 31.4856 10.9602 31.3799 10.7606 31.2677L10.4274 31.8845ZM3.89018 12.5638L3.24163 12.311C3.15488 12.5332 3.07342 12.7585 2.99831 12.9817L3.65847 13.205C3.73359 12.9934 3.81189 12.7786 3.89441 12.566L3.89018 12.5638ZM6.54145 27.8727L6.01246 28.3287C6.16693 28.5075 6.32986 28.6852 6.48961 28.8577L6.99532 28.3794C6.8472 28.2155 6.69379 28.0462 6.54568 27.8748L6.54145 27.8727ZM4.3197 24.4681L3.69023 24.7665C3.79602 24.9781 3.90181 25.1897 4.0076 25.4012L4.62229 25.0743C4.52073 24.8765 4.41811 24.6723 4.32183 24.4671L4.3197 24.4681ZM5.70036 26.8052L5.13541 27.2114C5.27401 27.404 5.41788 27.5944 5.55859 27.7796L6.10556 27.3479C5.97226 27.1734 5.83473 26.9914 5.70248 26.8073L5.70036 26.8052ZM32.1941 13.0875L32.8521 12.859C32.7749 12.6368 32.6913 12.4125 32.6035 12.1914L31.9571 12.4496C32.0428 12.6633 32.1221 12.877 32.1962 13.0896L32.1941 13.0875ZM31.6905 11.8254L32.3253 11.5376C32.2279 11.326 32.1242 11.107 32.0184 10.8975L31.3974 11.2149C31.5 11.4159 31.5995 11.6222 31.6926 11.8275L31.6905 11.8254ZM31.0747 10.614L31.6809 10.2712C31.5656 10.0681 31.444 9.86177 31.317 9.6597L30.7267 10.03C30.8504 10.2268 30.9679 10.4225 31.0768 10.6172L31.0747 10.614ZM30.3521 9.46293L30.9256 9.06724C30.7923 8.87468 30.6516 8.68109 30.5077 8.49171L29.9533 8.91489C30.0929 9.09686 30.2273 9.28095 30.3543 9.46504L30.3521 9.46293ZM32.9971 17.0803L33.6922 17.038C33.6773 16.801 33.6572 16.563 33.6319 16.3281L32.9399 16.4021C32.9622 16.6254 32.9833 16.8497 32.9971 17.0803ZM29.5269 8.38591L30.0623 7.94049C29.912 7.75958 29.7544 7.57974 29.5946 7.40411L29.0805 7.87279C29.2381 8.03783 29.3883 8.21134 29.5269 8.38591ZM32.8458 15.7303L33.5345 15.6245C33.4986 15.3897 33.4573 15.1548 33.4107 14.9231L32.7283 15.0596C32.777 15.2786 32.8162 15.5039 32.8511 15.7282L32.8458 15.7303ZM32.5781 14.3962L33.2542 14.2291C33.197 13.9984 33.1336 13.7678 33.0669 13.5424L32.3993 13.7414C32.4691 13.9529 32.5284 14.173 32.5834 14.3941L32.5781 14.3962ZM28.0532 5.93247C27.8712 5.78012 27.6839 5.63095 27.4967 5.48812L27.0735 6.04144C27.2523 6.17792 27.4311 6.32075 27.6025 6.46464L28.0532 5.93247ZM5.86964 9.01222L5.31315 8.58904C5.17244 8.7763 5.03385 8.97097 4.89843 9.16881L5.47395 9.5613C5.60832 9.36875 5.74162 9.18256 5.87492 9.00483L5.86964 9.01222ZM6.73401 7.95954L6.21666 7.49403C6.05902 7.6686 5.89926 7.85058 5.7522 8.03361L6.29071 8.47584C6.43988 8.29281 6.58905 8.11929 6.73929 7.95213L6.73401 7.95954ZM29.1027 6.89311C28.9355 6.72595 28.7631 6.5609 28.5885 6.40114L28.1177 6.91426C28.2849 7.06802 28.4488 7.22496 28.6097 7.38507L29.1027 6.89311ZM7.68829 6.98833L7.21432 6.47732C7.04293 6.63602 6.87154 6.80317 6.70332 6.97351L7.1995 7.4623C7.3656 7.29302 7.5296 7.13327 7.69358 6.98198L7.68829 6.98833ZM5.10261 10.1358L4.51015 9.76973C4.38531 9.9718 4.26469 10.1781 4.14938 10.3844L4.75771 10.723C4.8762 10.5198 4.9894 10.322 5.10895 10.1294L5.10261 10.1358ZM8.7251 6.10809L8.30191 5.55689C8.11677 5.69972 7.93056 5.85101 7.74965 6.00547L8.20036 6.53446C8.37598 6.38211 8.55371 6.23823 8.73039 6.10175L8.7251 6.10809ZM4.44138 11.3271L3.81823 11.016C3.71243 11.2276 3.60665 11.4392 3.5146 11.6614L4.14938 11.9439C4.24882 11.7291 4.34722 11.5217 4.44667 11.3197L4.44138 11.3271ZM9.83703 5.32414L9.46144 4.73696C9.26254 4.86391 9.06471 4.99722 8.8711 5.1337L9.27207 5.7029C9.4625 5.56642 9.65189 5.4384 9.84126 5.3178L9.83703 5.32414ZM24.6264 31.5428L24.9364 32.167C25.148 32.0612 25.3596 31.9554 25.5659 31.8369L25.2284 31.2275C25.0358 31.3291 24.8338 31.4349 24.6306 31.5354L24.6264 31.5428ZM28.9641 28.3085L29.474 28.7836C29.6359 28.6101 29.7914 28.4313 29.948 28.2546L29.419 27.8028C29.2737 27.9693 29.1235 28.1354 28.9683 28.3012L28.9641 28.3085ZM25.9563 5.26383C26.1488 5.38514 26.3382 5.51069 26.5244 5.64047L26.9211 5.06811C26.7265 4.93269 26.5265 4.80044 26.3276 4.6756L25.9563 5.26383ZM11.9805 3.42825C11.7689 3.51606 11.5456 3.61233 11.3288 3.71284L11.6218 4.34763C11.8334 4.25241 12.0376 4.16037 12.2439 4.07679L11.9805 3.42825ZM25.824 30.8773L26.188 31.4708C26.3879 31.3481 26.5889 31.218 26.7857 31.0847L26.3953 30.5081C26.2017 30.6361 26.0102 30.7599 25.824 30.8773ZM22.2534 3.57108C22.465 3.63562 22.6871 3.7065 22.9019 3.78268L23.1304 3.12461C22.9051 3.04632 22.6776 2.97228 22.4512 2.90562L22.2534 3.57108ZM23.3907 32.0844L23.6425 32.7341C23.8636 32.6484 24.0847 32.5563 24.2984 32.4622L24.017 31.8274C23.8139 31.9141 23.6023 32.0019 23.3907 32.0844ZM24.7788 4.58356C24.9812 4.68724 25.1811 4.79516 25.3786 4.9073L25.7225 4.30109C25.5162 4.18471 25.3056 4.07045 25.0951 3.96359L24.7788 4.58356ZM23.5378 4.01966C23.7493 4.10324 23.9609 4.19317 24.1641 4.28733L24.4518 3.65254C24.2402 3.55415 24.0149 3.45999 23.7959 3.37218L23.5378 4.01966ZM26.9455 30.1145L27.3623 30.6731C27.5517 30.5324 27.74 30.3843 27.923 30.2351L27.4819 29.6956C27.3052 29.8384 27.1243 29.9791 26.9434 30.1145H26.9455ZM32.703 21.1408L33.3843 21.2836C33.434 21.0498 33.4774 20.8149 33.5155 20.5843L32.8278 20.4722C32.7897 20.6922 32.7474 20.9176 32.7008 21.1408H32.703ZM32.923 19.7982L33.6149 19.8787C33.6424 19.6417 33.6647 19.4036 33.6816 19.1709L32.9875 19.1201C32.9699 19.3479 32.9477 19.574 32.9209 19.7982H32.923ZM32.3623 22.4569L33.0278 22.6622C33.0976 22.4379 33.1621 22.2072 33.2214 21.9766L32.5474 21.802C32.4892 22.0221 32.4258 22.2453 32.3602 22.4569H32.3623ZM33.7218 17.7479L33.0256 17.7606C33.0256 17.848 33.0256 17.9355 33.0256 18.023C33.0256 18.164 33.0239 18.3051 33.0203 18.4462L33.7165 18.4652C33.7207 18.3199 33.7228 18.1743 33.7228 18.0283C33.7221 17.933 33.7211 17.8396 33.7197 17.7479H33.7218ZM31.3265 24.9759L31.9444 25.2933C32.0502 25.0817 32.156 24.8701 32.2618 24.6586L31.627 24.3644C31.5307 24.5729 31.4313 24.7749 31.3255 24.9759H31.3265ZM30.642 26.1535L31.2281 26.5301C31.3572 26.3291 31.4821 26.1249 31.5995 25.9218L30.9975 25.5726C30.8822 25.7662 30.7626 25.962 30.6399 26.1535H30.642ZM29.8549 27.2643L30.405 27.6875C30.551 27.5003 30.6939 27.3077 30.8282 27.1162L30.2601 26.7131C30.124 26.9015 29.9879 27.0852 29.8517 27.2643H29.8549ZM31.9021 23.7402L32.5464 24.0047C32.6374 23.7847 32.7231 23.5604 32.8024 23.3393L32.1465 23.1044C32.0661 23.316 31.9857 23.5297 31.8989 23.7402H31.9021ZM27.9992 29.2523L28.4637 29.7707C28.6393 29.613 28.8139 29.4533 28.9831 29.284L28.4954 28.7868C28.3318 28.9462 28.1653 29.1017 27.996 29.2533L27.9992 29.2523ZM16.1066 2.35547C15.8728 2.38298 15.6347 2.41578 15.402 2.45387L15.5141 3.14154C15.7373 3.10557 15.9637 3.07383 16.188 3.04738L16.1066 2.35547ZM17.5264 2.24967C17.2873 2.25602 17.0482 2.26766 16.8154 2.28459L16.8651 2.97862C17.0908 2.9624 17.3176 2.9511 17.5454 2.94475L17.5264 2.24967ZM14.7016 2.58082C14.4699 2.62949 14.2361 2.68662 14.0086 2.74269L14.1832 3.41661C14.4011 3.36054 14.6233 3.31082 14.8455 3.26215L14.7016 2.58082ZM15.8199 33.6471C16.0558 33.6788 16.2938 33.7053 16.5266 33.7264L16.589 33.0324C16.3619 33.0119 16.1365 32.9866 15.913 32.9562L15.8199 33.6471ZM14.4191 33.3921C14.6487 33.445 14.8825 33.4979 15.1163 33.5349L15.2412 32.8494C15.0179 32.8092 14.7936 32.7626 14.5746 32.7129L14.4191 33.3921ZM13.0437 33.0112C13.2701 33.0853 13.4997 33.1551 13.7251 33.2175L13.9113 32.5468C13.6997 32.4875 13.4765 32.4209 13.2596 32.35L13.0437 33.0112ZM22.0957 32.5129L22.2872 33.1826C22.5115 33.1181 22.7411 33.0472 22.9675 32.971L22.7453 32.3109C22.5327 32.3891 22.3137 32.4569 22.1 32.5182L22.0957 32.5129ZM13.3199 2.93736C13.0945 3.00613 12.8671 3.08229 12.6438 3.16164L12.8787 3.81759C13.0903 3.74142 13.3093 3.66946 13.5241 3.60599L13.3199 2.93736ZM11.7139 32.5076C11.9255 32.6007 12.1519 32.6907 12.3751 32.7753L12.6216 32.1247C12.41 32.0432 12.1984 31.9575 11.9868 31.8686L11.7139 32.5076ZM20.7765 32.825L20.9066 33.5095C21.1362 33.4662 21.371 33.4154 21.6027 33.3604L21.4419 32.6833C21.2197 32.7436 20.9955 32.7912 20.7765 32.8335V32.825ZM20.9277 3.23464C21.1489 3.27908 21.3721 3.32986 21.5911 3.38382L21.7593 2.70777C21.5297 2.65064 21.297 2.60198 21.0653 2.5512L20.9277 3.23464ZM19.5831 3.02305C19.8095 3.04738 20.0359 3.07701 20.258 3.11192L20.3638 2.42424C20.1321 2.38827 19.8941 2.35759 19.6582 2.33219L19.5831 3.02305ZM18.2257 2.93736C18.4535 2.94159 18.6803 2.95076 18.906 2.96487L18.9493 2.26977C18.7134 2.25496 18.4743 2.24544 18.2384 2.24121L18.2257 2.93736ZM19.4297 33.0144L19.4963 33.7074C19.7291 33.6852 19.9671 33.6566 20.203 33.6217L20.1046 32.9329C19.8793 32.9784 19.6529 33.0049 19.4307 33.0271L19.4297 33.0144ZM18.0702 33.0864L18.0765 33.7825C18.3156 33.7825 18.5547 33.773 18.7885 33.7603L18.7515 33.0652C18.5258 33.0856 18.299 33.0969 18.0712 33.099L18.0702 33.0864ZM17.2365 33.7666C17.4713 33.7772 17.7104 33.7825 17.9485 33.7825V33.0864C17.7221 33.0864 17.4925 33.0863 17.2682 33.0715L17.2365 33.7666Z" fill="#F1F1F1"/>
<path d="M25.4972 26.4492H16.9277C15.0438 26.45 13.2021 25.892 11.6354 24.8458C10.0688 23.7996 8.84769 22.3122 8.12666 20.5718C7.40562 18.8314 7.21705 16.9162 7.58481 15.0686C7.95257 13.221 8.86012 11.524 10.1926 10.1924C11.5243 8.85987 13.2213 7.95232 15.0689 7.58457C16.9165 7.21681 18.8317 7.40538 20.5721 8.12641C22.3125 8.84745 23.7999 10.0685 24.8461 11.6352C25.8923 13.2018 26.4503 15.0436 26.4494 16.9274V25.497C26.4494 25.7495 26.3491 25.9917 26.1705 26.1703C25.992 26.3488 25.7498 26.4492 25.4972 26.4492ZM16.532 19.8062C16.2215 19.8062 15.918 19.8983 15.6599 20.0709C15.4018 20.2435 15.2007 20.4888 15.082 20.7757C14.9634 21.0626 14.9326 21.3783 14.9935 21.6828C15.0544 21.9873 15.2042 22.2668 15.4241 22.4861C15.6439 22.7053 15.9239 22.8544 16.2285 22.9145C16.5331 22.9745 16.8487 22.9429 17.1353 22.8235C17.422 22.7041 17.6667 22.5023 17.8386 22.2437C18.0105 21.9852 18.1018 21.6814 18.101 21.3709C18.0993 20.9557 17.9333 20.558 17.6393 20.2648C17.3453 19.9716 16.9472 19.8067 16.532 19.8062ZM16.6537 14.0783C17.1551 14.0783 17.4313 14.2899 17.4313 14.6718C17.4313 15.0538 17.1139 15.2706 16.7023 15.5447C16.2178 15.8015 15.8168 16.1913 15.5463 16.6683C15.2759 17.1453 15.1473 17.6896 15.1757 18.2372V18.5271H17.8576V18.3292C17.8576 17.6521 18.376 17.2977 18.9759 16.8862C19.4479 16.6582 19.8478 16.3044 20.1316 15.8636C20.4153 15.4229 20.5719 14.9123 20.584 14.3883C20.586 14.0303 20.5064 13.6766 20.3514 13.354C20.1963 13.0314 19.9698 12.7483 19.689 12.5263C18.9046 11.9632 17.9522 11.6834 16.988 11.7328C16.2674 11.7063 15.5505 11.8462 14.8927 12.1416C14.2349 12.437 13.6541 12.88 13.1951 13.4361L15.0688 14.9014C15.2629 14.6634 15.5036 14.4676 15.7761 14.326C16.0487 14.1844 16.3473 14.1002 16.6537 14.0783Z" fill="#F1F1F1"/>
</svg>
