<svg width="20" height="13" viewBox="0 0 20 13" fill="none" xmlns="http://www.w3.org/2000/svg">
<path fill-rule="evenodd" clip-rule="evenodd" d="M0.25 1.58333C0.25 1.29602 0.364137 1.02047 0.567301 0.817301C0.770465 0.614137 1.04602 0.5 1.33333 0.5H18.6667C18.954 0.5 19.2295 0.614137 19.4327 0.817301C19.6359 1.02047 19.75 1.29602 19.75 1.58333C19.75 1.87065 19.6359 2.1462 19.4327 2.34937C19.2295 2.55253 18.954 2.66667 18.6667 2.66667H1.33333C1.04602 2.66667 0.770465 2.55253 0.567301 2.34937C0.364137 2.1462 0.25 1.87065 0.25 1.58333ZM2.41667 6.45833C2.41667 6.17102 2.5308 5.89547 2.73397 5.6923C2.93713 5.48914 3.21268 5.375 3.5 5.375H16.5C16.7873 5.375 17.0629 5.48914 17.266 5.6923C17.4692 5.89547 17.5833 6.17102 17.5833 6.45833C17.5833 6.74565 17.4692 7.0212 17.266 7.22437C17.0629 7.42753 16.7873 7.54167 16.5 7.54167H3.5C3.21268 7.54167 2.93713 7.42753 2.73397 7.22437C2.5308 7.0212 2.41667 6.74565 2.41667 6.45833ZM5.66667 11.3333C5.66667 11.046 5.7808 10.7705 5.98397 10.5673C6.18713 10.3641 6.46268 10.25 6.75 10.25H13.25C13.5373 10.25 13.8129 10.3641 14.016 10.5673C14.2192 10.7705 14.3333 11.046 14.3333 11.3333C14.3333 11.6207 14.2192 11.8962 14.016 12.0994C13.8129 12.3025 13.5373 12.4167 13.25 12.4167H6.75C6.46268 12.4167 6.18713 12.3025 5.98397 12.0994C5.7808 11.8962 5.66667 11.6207 5.66667 11.3333Z" fill="#FDF7F0"/>
</svg>
