<svg width="19" height="11" viewBox="0 0 19 11" fill="none" xmlns="http://www.w3.org/2000/svg">
<path fill-rule="evenodd" clip-rule="evenodd" d="M4.80457 0H14.1139V10.8H4.80457V0Z" fill="#F7FCFF"/>
<path fill-rule="evenodd" clip-rule="evenodd" d="M9.44547 3.15039L9.4592 8.55039H9.11039L9.32439 7.21403C7.7592 7.43187 7.04127 7.48583 7.17067 7.37598C7.30007 7.26609 7.40206 7.11039 7.4766 6.90884L5.38635 5.83028C5.60616 5.82816 5.80548 5.78595 5.98431 5.70369C6.1631 5.62143 6.07373 5.3364 5.71607 4.84856L6.77141 4.96731L7.17067 4.6317L7.96691 5.27624H8.3248L7.96691 3.79993L8.60844 4.07708L9.44547 3.15039ZM9.44547 3.15039L10.31 4.07708L10.9515 3.79993L10.5936 5.27624H10.9515L11.7477 4.6317L12.147 4.96731L13.2023 4.84856C12.8447 5.3364 12.7553 5.62143 12.9341 5.70369C13.1129 5.78595 13.3122 5.82816 13.5321 5.83028L11.4418 6.90884C11.5163 7.11039 11.6183 7.26609 11.7477 7.37598C11.8771 7.48583 11.1592 7.43187 9.59402 7.21403L9.80801 8.55039H9.4592L9.44547 3.15039Z" fill="#E31D1C"/>
<path fill-rule="evenodd" clip-rule="evenodd" d="M14.1139 0H18.7686V10.8H14.1139V0Z" fill="#E31D1C"/>
<path fill-rule="evenodd" clip-rule="evenodd" d="M0.149902 0H4.80459V10.8H0.149902V0Z" fill="#E31D1C"/>
</svg>
