<svg width="114" height="132" viewBox="0 0 114 132" fill="none" xmlns="http://www.w3.org/2000/svg">
<g opacity="0.272">
<path d="M103.46 37.48C107.313 34.5841 108.081 29.1188 105.177 25.2728C102.272 21.4268 96.7938 20.6566 92.941 23.5525C89.0882 26.4483 88.3196 31.9137 91.2244 35.7597C94.1291 39.6057 99.6072 40.3759 103.46 37.48Z" fill="url(#paint0_linear_1644_5453)"/>
<path d="M103.015 40.8575C102.979 41.0006 102.901 41.1299 102.792 41.2291C102.682 41.3282 102.546 41.3928 102.399 41.4145C102.253 41.4363 102.104 41.4143 101.97 41.3513C101.836 41.2883 101.724 41.1872 101.648 41.0607C101.571 40.9342 101.534 40.788 101.542 40.6407C101.549 40.4933 101.599 40.3514 101.687 40.2328C101.775 40.1143 101.897 40.0244 102.036 39.9746C102.175 39.9248 102.326 39.9173 102.469 39.9531C102.662 40.001 102.828 40.1232 102.93 40.2928C103.032 40.4624 103.062 40.6655 103.015 40.8575Z" fill="url(#paint1_linear_1644_5453)"/>
<path d="M99.9137 41.2108C99.8893 41.3085 99.8364 41.3968 99.7617 41.4644C99.6869 41.5321 99.5937 41.5762 99.4939 41.591C99.394 41.6058 99.2919 41.5908 99.2006 41.5478C99.1092 41.5048 99.0327 41.4358 98.9807 41.3495C98.9286 41.2631 98.9034 41.1634 98.9083 41.0628C98.9131 40.9622 98.9477 40.8653 99.0078 40.7844C99.0678 40.7035 99.1506 40.6421 99.2456 40.6081C99.3406 40.5741 99.4437 40.569 99.5417 40.5934C99.6731 40.6261 99.7861 40.7096 99.8559 40.8253C99.9256 40.9411 99.9464 41.0798 99.9137 41.2108Z" fill="url(#paint2_linear_1644_5453)"/>
<path d="M104.778 22.5411C104.628 22.6533 104.449 22.7188 104.262 22.7293C104.076 22.7398 103.89 22.6949 103.729 22.6001C103.568 22.5054 103.439 22.3651 103.357 22.1971C103.276 22.0291 103.247 21.8408 103.273 21.6561C103.298 21.4714 103.379 21.2985 103.503 21.1594C103.628 21.0203 103.791 20.9212 103.972 20.8745C104.153 20.8279 104.344 20.8359 104.52 20.8975C104.697 20.959 104.851 21.0714 104.963 21.2204C105.114 21.4202 105.18 21.6716 105.145 21.9193C105.11 22.167 104.978 22.3907 104.778 22.5411Z" fill="url(#paint3_linear_1644_5453)"/>
</g>
<g opacity="0.272">
<path d="M27.9692 124.635C40.2205 124.635 50.1522 114.727 50.1522 102.505C50.1522 90.2837 40.2205 80.376 27.9692 80.376C15.7178 80.376 5.78613 90.2837 5.78613 102.505C5.78613 114.727 15.7178 124.635 27.9692 124.635Z" fill="url(#paint4_linear_1644_5453)"/>
<path d="M34.048 130.807C34.34 131.043 34.6957 131.187 35.0699 131.222C35.4441 131.256 35.8202 131.179 36.1504 131C36.4807 130.821 36.7504 130.548 36.9254 130.217C37.1004 129.885 37.1728 129.509 37.1335 129.136C37.0942 128.763 36.945 128.41 36.7047 128.122C36.4644 127.834 36.1438 127.623 35.7834 127.517C35.4231 127.41 35.0392 127.413 34.6803 127.524C34.3214 127.635 34.0036 127.85 33.7671 128.141C33.4499 128.532 33.3014 129.032 33.354 129.532C33.4067 130.032 33.6563 130.491 34.048 130.807Z" fill="url(#paint5_linear_1644_5453)"/>
<path d="M40.8768 126.805C41.0764 126.966 41.3195 127.064 41.5752 127.088C41.831 127.111 42.0879 127.058 42.3136 126.936C42.5393 126.814 42.7235 126.628 42.843 126.401C42.9625 126.174 43.0119 125.917 42.985 125.662C42.958 125.407 42.8559 125.166 42.6916 124.969C42.5273 124.773 42.3081 124.629 42.0618 124.556C41.8156 124.483 41.5532 124.485 41.308 124.562C41.0628 124.638 40.8457 124.785 40.6843 124.984C40.4679 125.251 40.3667 125.593 40.4028 125.934C40.4389 126.275 40.6094 126.589 40.8768 126.805Z" fill="url(#paint6_linear_1644_5453)"/>
<path d="M2.41063 96.3565C2.8874 96.3565 3.35347 96.2154 3.7499 95.9512C4.14633 95.687 4.4553 95.3114 4.63776 94.872C4.82021 94.4325 4.86795 93.949 4.77493 93.4825C4.68192 93.016 4.45233 92.5875 4.1152 92.2512C3.77807 91.9149 3.34853 91.6859 2.88092 91.5931C2.4133 91.5003 1.9286 91.5479 1.48812 91.7299C1.04764 91.9119 0.671147 92.2202 0.406264 92.6156C0.14138 93.0111 0 93.4761 0 93.9517C0 94.5895 0.253976 95.2011 0.706056 95.6521C1.15814 96.1031 1.77129 96.3565 2.41063 96.3565Z" fill="url(#paint7_linear_1644_5453)"/>
</g>
<path d="M42.3457 20.2385L42.3457 120.737C42.3457 123.631 44.6971 125.977 47.5976 125.977H86.8409C89.7415 125.977 92.0928 123.631 92.0928 120.737V20.2385C92.0928 17.345 89.7415 14.9993 86.8409 14.9993H47.5976C44.6971 14.9993 42.3457 17.345 42.3457 20.2385Z" fill="#F6F2ED"/>
<path d="M43.1328 20.2392L43.1328 120.738C43.1328 123.198 45.1315 125.191 47.5969 125.191H86.8403C89.3057 125.191 91.3044 123.198 91.3044 120.738V20.2392C91.3044 17.7797 89.3057 15.7859 86.8403 15.7859H47.5969C45.1315 15.7859 43.1328 17.7797 43.1328 20.2392Z" stroke="#272421" stroke-width="1.5"/>
<path d="M48.7344 25.8254L48.7344 115.152C48.7344 117.612 50.733 119.605 53.1985 119.605H80.8687C83.3342 119.605 85.3328 117.612 85.3328 115.152V25.8254C85.3328 23.3659 83.3342 21.3721 80.8687 21.3721H53.1985C50.733 21.3721 48.7344 23.3659 48.7344 25.8254Z" stroke="#272421" stroke-width="1.5" stroke-dasharray="1.5 2"/>
<path d="M79.2326 24.3369H54.9519C53.2116 24.3369 51.8008 25.7443 51.8008 27.4804V113.992C51.8008 115.728 53.2116 117.135 54.9519 117.135H79.2326C80.9729 117.135 82.3837 115.728 82.3837 113.992V27.4804C82.3837 25.7443 80.9729 24.3369 79.2326 24.3369Z" fill="#272421"/>
<path d="M75.2909 85.3545H58.6844C56.944 85.3545 55.5332 86.7619 55.5332 88.498V106.046C55.5332 107.782 56.944 109.19 58.6844 109.19H75.2909C77.0312 109.19 78.442 107.782 78.442 106.046V88.498C78.442 86.7619 77.0312 85.3545 75.2909 85.3545Z" fill="#F6F2ED"/>
<path d="M73.356 73.83C73.356 70.4133 70.5796 67.6436 67.1546 67.6436C63.7296 67.6436 60.9531 70.4133 60.9531 73.83C60.9531 77.2467 63.7296 80.0165 67.1546 80.0165C70.5796 80.0165 73.356 77.2467 73.356 73.83Z" fill="#F6F2ED"/>
<path d="M74.5477 34.6484H60.1785C58.4382 34.6484 57.0273 36.0558 57.0273 37.792V60.3751C57.0273 62.1113 58.4382 63.5187 60.1785 63.5187H74.5477C76.288 63.5187 77.6989 62.1113 77.6989 60.3751V37.792C77.6989 36.0558 76.288 34.6484 74.5477 34.6484Z" fill="#F6F2ED"/>
<path d="M64.1191 29.4219H70.1893" stroke="#F6F2ED" stroke-width="3" stroke-linecap="round" stroke-linejoin="round"/>
<rect x="23.5195" y="0.75" width="32.1559" height="32.1558" rx="16.0779" fill="url(#paint8_linear_1644_5453)"/>
<rect x="23.5195" y="0.75" width="32.1559" height="32.1558" rx="16.0779" stroke="#F9F4F0" stroke-width="1.5"/>
<path d="M44.7308 12L37.1079 19.323L33.6072 15.7232L31.7695 17.4202L36.1568 21.9331C36.2726 22.0522 36.4115 22.1476 36.5656 22.2137C36.7196 22.2798 36.8856 22.3154 37.0539 22.3182H37.0751C37.4074 22.318 37.7263 22.1903 37.9629 21.9628L46.5099 13.7565L44.7308 12Z" fill="#F6F2ED"/>
<defs>
<linearGradient id="paint0_linear_1644_5453" x1="92.941" y1="23.5525" x2="103.428" y2="37.5044" gradientUnits="userSpaceOnUse">
<stop stop-color="#58A4A4"/>
<stop offset="1" stop-color="#073E39"/>
</linearGradient>
<linearGradient id="paint1_linear_1644_5453" x1="103.015" y1="40.8575" x2="101.563" y2="40.4949" gradientUnits="userSpaceOnUse">
<stop stop-color="#58A4A4"/>
<stop offset="1" stop-color="#073E39"/>
</linearGradient>
<linearGradient id="paint2_linear_1644_5453" x1="99.9137" y1="41.2108" x2="98.923" y2="40.9633" gradientUnits="userSpaceOnUse">
<stop stop-color="#58A4A4"/>
<stop offset="1" stop-color="#073E39"/>
</linearGradient>
<linearGradient id="paint3_linear_1644_5453" x1="103.64" y1="21.0343" x2="104.774" y2="22.5439" gradientUnits="userSpaceOnUse">
<stop stop-color="#58A4A4"/>
<stop offset="1" stop-color="#073E39"/>
</linearGradient>
<linearGradient id="paint4_linear_1644_5453" x1="27.9692" y1="80.376" x2="27.9692" y2="124.635" gradientUnits="userSpaceOnUse">
<stop stop-color="#58A4A4"/>
<stop offset="1" stop-color="#073E39"/>
</linearGradient>
<linearGradient id="paint5_linear_1644_5453" x1="36.4396" y1="127.861" x2="34.055" y2="130.813" gradientUnits="userSpaceOnUse">
<stop stop-color="#58A4A4"/>
<stop offset="1" stop-color="#073E39"/>
</linearGradient>
<linearGradient id="paint6_linear_1644_5453" x1="42.5109" y1="124.792" x2="40.8816" y2="126.808" gradientUnits="userSpaceOnUse">
<stop stop-color="#58A4A4"/>
<stop offset="1" stop-color="#073E39"/>
</linearGradient>
<linearGradient id="paint7_linear_1644_5453" x1="2.41063" y1="91.5469" x2="2.41063" y2="96.3565" gradientUnits="userSpaceOnUse">
<stop stop-color="#58A4A4"/>
<stop offset="1" stop-color="#073E39"/>
</linearGradient>
<linearGradient id="paint8_linear_1644_5453" x1="39.5975" y1="0" x2="39.5975" y2="33.6558" gradientUnits="userSpaceOnUse">
<stop stop-color="#58A4A4"/>
<stop offset="1" stop-color="#073E39"/>
</linearGradient>
</defs>
</svg>
