<svg id="foundation" xmlns="http://www.w3.org/2000/svg" xmlns:xlink="http://www.w3.org/1999/xlink" width="240.843" height="34.526" viewBox="0 0 240.843 34.526">
  <defs>
    <linearGradient id="linear-gradient" y1="1.282" x2="-0.007" gradientUnits="objectBoundingBox">
      <stop offset="0.216" stop-color="#fff" stop-opacity="0"/>
      <stop offset="1"/>
    </linearGradient>
    <radialGradient id="radial-gradient" cx="0.808" cy="-0.064" r="2.112" gradientUnits="objectBoundingBox">
      <stop offset="0.5" stop-color="#bb6e5a"/>
      <stop offset="0.75" stop-color="#de9173"/>
      <stop offset="1" stop-color="#fac2a9"/>
    </radialGradient>
    <radialGradient id="radial-gradient-2" cx="0.461" cy="1.056" r="0.705" gradientUnits="objectBoundingBox">
      <stop offset="0.5" stop-color="#fac2a9"/>
      <stop offset="0.75" stop-color="#de9173"/>
      <stop offset="1" stop-color="#bb6e5a"/>
    </radialGradient>
    <radialGradient id="radial-gradient-3" cx="1.616" cy="1.056" r="0.706" xlink:href="#radial-gradient-2"/>
  </defs>
  <g id="Group_39370" data-name="Group 39370" transform="translate(17.327 0.58)" opacity="0.5" style="mix-blend-mode: multiply;isolation: isolate">
    <path id="Path_24865" data-name="Path 24865" d="M20.576,25.5H34.537L20.576.688Z" transform="translate(-20.576 -0.688)" fill="url(#linear-gradient)"/>
  </g>
  <path id="Path_24866" data-name="Path 24866" d="M30.625,31.29c1.31-.013,1.588.611.783,1.609a17.172,17.172,0,0,1-27.014,0c-.8-1-.522-1.617.783-1.609C11.544,31.32,30.625,31.29,30.625,31.29Z" transform="translate(-0.623 -4.941)" fill="url(#radial-gradient)"/>
  <path id="Path_24867" data-name="Path 24867" d="M35.013,23.666c.651,1.14,1.319,1.075,1.781-.12A17.309,17.309,0,0,0,23.287.04c-1.263-.2-1.661.357-.993,1.488C22.293,1.528,31.862,18.117,35.013,23.666Z" transform="translate(-3.469 0)" fill="url(#radial-gradient-2)"/>
  <path id="Path_24868" data-name="Path 24868" d="M15.744,1.528C16.4.392,16.014-.158,14.751.04A17.318,17.318,0,0,0,2.336,8.509,17.482,17.482,0,0,0,1.244,23.545c.462,1.2,1.134,1.265,1.781.12C3.025,23.666,12.542,7.046,15.744,1.528Z" transform="translate(-0.007 0)" fill="url(#radial-gradient-3)"/>
  <g id="Group_39373" data-name="Group 39373" transform="translate(0)">
    <g id="Group_39371" data-name="Group 39371" opacity="0.25">
      <path id="Path_24869" data-name="Path 24869" d="M5.16,10.13A28,28,0,0,0,1.2,23.5,17.476,17.476,0,0,1,2.293,8.467,17.32,17.32,0,0,1,14.708,0,27.848,27.848,0,0,0,5.16,10.13ZM32.2,8.468A17.321,17.321,0,0,0,19.781,0a27.847,27.847,0,0,1,9.548,10.13A28,28,0,0,1,33.288,23.5,17.474,17.474,0,0,0,32.2,8.468Zm-2.23,17.841s-19.083.03-25.444,0a26.9,26.9,0,0,0,12.722,3.339A26.9,26.9,0,0,0,29.966,26.309Z" transform="translate(0)"/>
    </g>
    <g id="Group_39372" data-name="Group 39372" transform="translate(2.981 1.487)" opacity="0.2">
      <path id="Path_24870" data-name="Path 24870" d="M17.8,31.439A27.667,27.667,0,0,0,31.311,28.2,17.171,17.171,0,0,1,4.3,28.2,27.666,27.666,0,0,0,17.8,31.439ZM7.023,11.165A27.226,27.226,0,0,0,3.54,23.9S13.055,7.286,16.262,1.766A27.071,27.071,0,0,0,7.023,11.165Zm12.323-9.4S28.913,18.355,32.067,23.9a27.217,27.217,0,0,0-3.483-12.738,27.065,27.065,0,0,0-9.239-9.4Z" transform="translate(-3.54 -1.766)" fill="#fff"/>
    </g>
  </g>
  <path id="Path_24871" data-name="Path 24871" d="M69.015,11.591a.359.359,0,0,1,.356-.354h7.657a.359.359,0,0,1,.356.354v1.538a.359.359,0,0,1-.356.354h-5.58V16.99H76.1a.37.37,0,0,1,.357.354v1.538a.37.37,0,0,1-.357.354h-4.65v4.722a.37.37,0,0,1-.356.354H69.356A.359.359,0,0,1,69,23.957V11.591Z" transform="translate(-10.895 -1.774)"/>
  <path id="Path_24872" data-name="Path 24872" d="M95.453,11.019A6.729,6.729,0,1,1,88.7,17.771,6.741,6.741,0,0,1,95.453,11.019Zm0,11.013a4.3,4.3,0,1,0-4.309-4.276A4.316,4.316,0,0,0,95.453,22.031Z" transform="translate(-14.004 -1.74)"/>
  <path id="Path_24873" data-name="Path 24873" d="M115.615,11.591a.37.37,0,0,1,.356-.354h1.783a.359.359,0,0,1,.356.354v7.644a2.737,2.737,0,1,0,5.471.031v-7.66a.359.359,0,0,1,.357-.354h1.782a.37.37,0,0,1,.357.354v7.767a5.248,5.248,0,0,1-10.493,0V11.591Z" transform="translate(-18.25 -1.774)"/>
  <path id="Path_24874" data-name="Path 24874" d="M140.1,11.338a.357.357,0,0,1,.357-.338h.465l7.827,8.259h.015V11.538a.359.359,0,0,1,.356-.354h1.736a.37.37,0,0,1,.356.354V24.12a.356.356,0,0,1-.356.338h-.45l-7.874-8.582h-.015V23.9a.359.359,0,0,1-.357.354h-1.72a.37.37,0,0,1-.356-.354V11.338Z" transform="translate(-22.118 -1.737)"/>
  <path id="Path_24875" data-name="Path 24875" d="M165.535,11.591a.356.356,0,0,1,.341-.354h4.464a6.537,6.537,0,1,1,0,13.074h-4.464a.356.356,0,0,1-.341-.354Zm4.573,10.443a4.134,4.134,0,0,0,4.231-4.276,4.13,4.13,0,0,0-4.231-4.26h-2.155v8.536Z" transform="translate(-26.137 -1.774)"/>
  <path id="Path_24876" data-name="Path 24876" d="M190.531,23.9a.57.57,0,0,1-.542.369h-1.643a.339.339,0,0,1-.325-.492L193.879,11.2a.353.353,0,0,1,.325-.2h.186a.338.338,0,0,1,.326.2l5.8,12.581a.334.334,0,0,1-.325.492h-1.643A.529.529,0,0,1,198,23.9l-3.736-8.2H194.2Z" transform="translate(-29.682 -1.737)"/>
  <path id="Path_24877" data-name="Path 24877" d="M213.722,13.483h-2.883a.359.359,0,0,1-.356-.354V11.591a.359.359,0,0,1,.356-.354h8.23a.359.359,0,0,1,.357.354v1.538a.359.359,0,0,1-.357.354h-2.882v10.49a.37.37,0,0,1-.356.354h-1.752a.37.37,0,0,1-.357-.354V13.483Z" transform="translate(-33.234 -1.774)"/>
  <path id="Path_24878" data-name="Path 24878" d="M231.594,11.591a.37.37,0,0,1,.356-.354H233.7a.37.37,0,0,1,.356.354V23.957a.37.37,0,0,1-.356.354H231.95a.37.37,0,0,1-.356-.354Z" transform="translate(-36.567 -1.774)"/>
  <path id="Path_24879" data-name="Path 24879" d="M252.394,11.019a6.729,6.729,0,1,1-6.758,6.752A6.741,6.741,0,0,1,252.394,11.019Zm0,11.013a4.3,4.3,0,1,0-4.309-4.276A4.316,4.316,0,0,0,252.394,22.031Z" transform="translate(-38.784 -1.74)"/>
  <path id="Path_24880" data-name="Path 24880" d="M272.8,11.338a.357.357,0,0,1,.357-.338h.465l7.827,8.259h.015V11.538a.359.359,0,0,1,.356-.354h1.736a.37.37,0,0,1,.356.354V24.12a.356.356,0,0,1-.356.338h-.45l-7.874-8.582h-.015V23.9a.359.359,0,0,1-.357.354h-1.72a.37.37,0,0,1-.356-.354V11.338Z" transform="translate(-43.071 -1.737)"/>
</svg>
