<svg xmlns="http://www.w3.org/2000/svg" width="221.447" height="19.062" viewBox="0 0 221.447 19.062">
  <g id="from_the_tean" data-name="from the tean" transform="translate(-85.553 -713.938)">
    <text id="From_the_team_at" data-name="From the team at" transform="translate(202.553 728)" fill="#fff6de" font-size="14" font-family="Helvetica-Light, Helvetica" font-weight="300" letter-spacing="0.05em"><tspan x="-116" y="0">From the team at</tspan></text>
    <g id="Group_43081" data-name="Group 43081" transform="translate(198.185 378.402)">
      <path id="Path_7033" data-name="Path 7033" d="M393.557,568.74l1.984-1.984a.7.7,0,0,1,.671-.18l2.71.726a.7.7,0,0,1,.492.492l.726,2.71a.7.7,0,0,1-.18.671l-1.984,1.984a.7.7,0,0,1-.671.18l-2.71-.726a.7.7,0,0,1-.492-.492l-.726-2.71A.7.7,0,0,1,393.557,568.74Z" transform="translate(-372.597 -225.792)" fill="#fff6de"/>
      <path id="Path_7034" data-name="Path 7034" d="M445.472,557.447l-.781-2.915a.7.7,0,0,0-.491-.492l-2.916-.781a.7.7,0,0,0-.671.18l-2.134,2.134a.7.7,0,0,0-.18.671l.781,2.915a.7.7,0,0,0,.492.492l2.916.781a.7.7,0,0,0,.671-.18l2.134-2.134A.7.7,0,0,0,445.472,557.447Z" transform="translate(-410.865 -214.446)" fill="#fff6de"/>
      <path id="Path_7035" data-name="Path 7035" d="M386.043,612.522a.7.7,0,0,0-.491-.491l-2.916-.781a.7.7,0,0,0-.671.18l-2.134,2.134a.7.7,0,0,0-.18.671l.781,2.916a.7.7,0,0,0,.492.492l2.916.781a.7.7,0,0,0,.671-.18l2.134-2.134a.7.7,0,0,0,.18-.671Z" transform="translate(-360.903 -263.849)" fill="#fff6de"/>
      <path id="Path_7036" data-name="Path 7036" d="M433.4,602.992a.7.7,0,0,0-.492-.491l-1.866-.5a.7.7,0,0,0-.671.18l-1.366,1.366a.7.7,0,0,0-.18.671l.5,1.865a.7.7,0,0,0,.491.492l1.866.5a.7.7,0,0,0,.671-.18l1.366-1.366a.7.7,0,0,0,.18-.671Z" transform="translate(-402.799 -255.97)" fill="#fff6de" opacity="0.4"/>
      <path id="Path_7037" data-name="Path 7037" d="M363.442,586.026a.7.7,0,0,0,.18-.671l-.5-1.866a.7.7,0,0,0-.492-.491l-1.866-.5a.7.7,0,0,0-.671.18l-1.366,1.366a.7.7,0,0,0-.18.671l.5,1.865a.7.7,0,0,0,.492.492l1.866.5a.7.7,0,0,0,.671-.18Z" transform="translate(-342.926 -239.356)" fill="#fff6de" opacity="0.4"/>
      <path id="Path_7038" data-name="Path 7038" d="M410.563,535.381a.7.7,0,0,0,.491.492l1.866.5a.7.7,0,0,0,.672-.18l1.366-1.366a.7.7,0,0,0,.18-.671l-.5-1.866a.7.7,0,0,0-.492-.491l-1.866-.5a.7.7,0,0,0-.671.18l-1.366,1.366a.7.7,0,0,0-.18.671Z" transform="translate(-386.812 -195.739)" fill="#fff6de" opacity="0.4"/>
      <path id="Path_7039" data-name="Path 7039" d="M359.518,538.193l2.916.781a.7.7,0,0,0,.671-.18l2.134-2.134a.7.7,0,0,0,.18-.671l-.781-2.915a.7.7,0,0,0-.492-.491l-2.915-.781a.7.7,0,0,0-.671.18l-2.134,2.134a.7.7,0,0,0-.18.672l.781,2.915A.7.7,0,0,0,359.518,538.193Z" transform="translate(-342.669 -196.166)" fill="#fff6de"/>
    </g>
    <text id="BitHyve" transform="translate(238 729)" fill="#fff6de" font-size="16" font-family="Helvetica" letter-spacing="0.12em"><tspan x="0" y="0">Bit</tspan><tspan y="0" font-family="Helvetica-Bold, Helvetica" font-weight="700">Hyve</tspan></text>
  </g>
</svg>
