<svg width="88" height="88" viewBox="0 0 88 88" fill="none" xmlns="http://www.w3.org/2000/svg">
<g clip-path="url(#clip0_248_4981)">
<path d="M86.692 32.167C86.692 32.167 82.942 30.681 78.962 29.126C80.674 25.217 82.273 21.511 82.273 21.511C82.3685 21.2902 82.3954 21.0459 82.3503 20.8096C82.3052 20.5733 82.1901 20.3561 82.02 20.186L67.257 5.42302C67.0869 5.25271 66.8695 5.13751 66.633 5.09239C66.3965 5.04727 66.1519 5.07432 65.931 5.17002C65.931 5.17002 62.231 6.77002 58.324 8.48102C56.769 4.50802 55.283 0.758025 55.283 0.758025C55.1945 0.534026 55.0406 0.341846 54.8414 0.20648C54.6422 0.0711151 54.4069 -0.00117118 54.166 -0.000976169H33.284C33.0432 -0.00117118 32.8078 0.0711151 32.6086 0.20648C32.4094 0.341846 32.2555 0.534026 32.167 0.758025C32.167 0.758025 30.681 4.50702 29.126 8.48102C25.218 6.76902 21.519 5.17002 21.519 5.17002C21.2981 5.07432 21.0536 5.04727 20.8171 5.09239C20.5806 5.13751 20.3632 5.25271 20.193 5.42302L5.42403 20.185C5.25351 20.3552 5.13819 20.5729 5.09306 20.8095C5.04794 21.0462 5.0751 21.291 5.17102 21.512C5.17102 21.512 6.77102 25.212 8.48802 29.125C4.50802 30.68 0.758027 32.166 0.758027 32.166C0.534028 32.2545 0.341848 32.4084 0.206482 32.6076C0.071117 32.8068 -0.00117118 33.0422 -0.000976169 33.283V54.159C-0.00117118 54.3999 0.071117 54.6352 0.206482 54.8344C0.341848 55.0336 0.534028 55.1875 0.758027 55.276C0.758027 55.276 4.50802 56.762 8.48802 58.317C6.77502 62.225 5.17102 65.93 5.17102 65.93C5.0751 66.151 5.04794 66.3958 5.09306 66.6325C5.13819 66.8692 5.25351 67.0868 5.42403 67.257L20.193 82.019C20.3632 82.1893 20.5806 82.3045 20.8171 82.3497C21.0536 82.3948 21.2981 82.3677 21.519 82.272C21.519 82.272 25.219 80.672 29.126 78.961C30.681 82.934 32.167 86.684 32.167 86.684C32.2555 86.908 32.4094 87.1002 32.6086 87.2356C32.8078 87.3709 33.0432 87.4432 33.284 87.443H54.167C54.4079 87.4432 54.6432 87.3709 54.8424 87.2356C55.0416 87.1002 55.1955 86.908 55.284 86.684C55.284 86.684 56.77 82.935 58.325 78.961C62.233 80.673 65.932 82.272 65.932 82.272C66.1529 82.3677 66.3975 82.3948 66.634 82.3497C66.8704 82.3045 67.0879 82.1893 67.258 82.019L82.02 67.256C82.1901 67.086 82.3052 66.8687 82.3503 66.6324C82.3954 66.3962 82.3685 66.1518 82.273 65.931C82.273 65.931 80.673 62.226 78.962 58.316C82.942 56.76 86.692 55.275 86.692 55.275C86.916 55.1865 87.1082 55.0326 87.2436 54.8334C87.3789 54.6342 87.4512 54.3989 87.451 54.158V33.283C87.451 33.0423 87.3786 32.8072 87.2433 32.6082C87.1079 32.4092 86.9159 32.2555 86.692 32.167ZM85.05 53.343C83.584 53.922 80.216 55.252 76.925 56.535C76.7742 56.5937 76.6368 56.6823 76.5211 56.7954C76.4054 56.9086 76.3138 57.0439 76.2518 57.1934C76.1897 57.3429 76.1586 57.5033 76.1602 57.6652C76.1618 57.827 76.1961 57.9868 76.261 58.135C77.68 61.365 79.12 64.688 79.746 66.135L66.135 79.743C64.69 79.117 61.372 77.677 58.143 76.259C57.9948 76.1941 57.835 76.1598 57.6732 76.1582C57.5113 76.1566 57.3509 76.1877 57.2014 76.2498C57.0519 76.3118 56.9166 76.4034 56.8034 76.5191C56.6903 76.6348 56.6017 76.7722 56.543 76.923C55.261 80.208 53.931 83.575 53.351 85.041H34.1C33.521 83.575 32.191 80.209 30.908 76.923C30.8493 76.7722 30.7608 76.6348 30.6476 76.5191C30.5345 76.4034 30.3991 76.3118 30.2496 76.2498C30.1002 76.1877 29.9397 76.1566 29.7779 76.1582C29.6161 76.1598 29.4562 76.1941 29.308 76.259C26.08 77.677 22.762 79.117 21.316 79.743L7.70003 66.133C8.32803 64.686 9.77202 61.363 11.191 58.133C11.256 57.9848 11.2903 57.825 11.2919 57.6632C11.2935 57.5013 11.2623 57.3409 11.2003 57.1914C11.1382 57.0419 11.0466 56.9066 10.9309 56.7934C10.8152 56.6803 10.6778 56.5917 10.527 56.533C7.23602 55.25 3.86802 53.921 2.40202 53.341V34.1C3.86802 33.521 7.23602 32.191 10.527 30.908C10.6778 30.8493 10.8152 30.7608 10.9309 30.6476C11.0466 30.5345 11.1382 30.3991 11.2003 30.2496C11.2623 30.1002 11.2935 29.9397 11.2919 29.7779C11.2903 29.6161 11.256 29.4562 11.191 29.308C9.77202 26.079 8.32803 22.756 7.70003 21.308L21.314 7.70102C22.759 8.32702 26.078 9.76702 29.306 11.185C29.4542 11.25 29.6141 11.2843 29.7759 11.2859C29.9377 11.2875 30.0982 11.2563 30.2477 11.1943C30.3971 11.1322 30.5325 11.0406 30.6456 10.9249C30.7588 10.8092 30.8473 10.6718 30.906 10.521C32.188 7.23602 33.518 3.86902 34.098 2.40302H53.35C53.929 3.86902 55.259 7.23502 56.542 10.521C56.6007 10.6718 56.6893 10.8092 56.8024 10.9249C56.9156 11.0406 57.0509 11.1322 57.2004 11.1943C57.3499 11.2563 57.5103 11.2875 57.6722 11.2859C57.834 11.2843 57.9938 11.25 58.142 11.185C61.371 9.76702 64.689 8.32702 66.134 7.70102L79.741 21.308C79.115 22.755 77.675 26.078 76.256 29.308C76.1911 29.4562 76.1568 29.6161 76.1552 29.7779C76.1536 29.9397 76.1847 30.1002 76.2468 30.2496C76.3088 30.3991 76.4004 30.5345 76.5161 30.6476C76.6318 30.7608 76.7692 30.8493 76.92 30.908C80.211 32.19 83.579 33.52 85.045 34.1L85.05 53.343Z" fill="#002C27"/>
<path d="M43.72 23.697C39.7599 23.6986 35.8892 24.8744 32.5973 27.0756C29.3054 29.2769 26.7402 32.4048 25.2258 36.0639C23.7115 39.723 23.3162 43.749 24.0898 47.6328C24.8634 51.5166 26.7712 55.0837 29.5721 57.8833C32.3729 60.6829 35.9409 62.5891 39.8251 63.361C43.7092 64.1328 47.735 63.7357 51.3934 62.2197C55.0518 60.7038 58.1786 58.1371 60.3784 54.8442C62.5782 51.5513 63.7522 47.6801 63.752 43.72C63.7459 38.4099 61.6331 33.3192 57.8775 29.5652C54.1218 25.8112 49.0301 23.7007 43.72 23.697ZM43.72 61.342C40.2352 61.3406 36.829 60.306 33.9322 58.3689C31.0353 56.4319 28.7779 53.6794 27.4453 50.4594C26.1127 47.2395 25.7647 43.6967 26.4454 40.279C27.1261 36.8614 28.8049 33.7223 31.2695 31.2586C33.7341 28.795 36.8739 27.1174 40.2919 26.4381C43.7098 25.7588 47.2525 26.1081 50.4719 27.442C53.6913 28.7759 56.4429 31.0344 58.3788 33.932C60.3147 36.8297 61.348 40.2362 61.348 43.721C61.3427 48.394 59.4835 52.8739 56.1786 56.1776C52.8737 59.4812 48.3929 61.3386 43.72 61.342Z" fill="#002C27"/>
<path d="M82.476 51.593V35.85C80.767 35.176 78.358 34.229 75.989 33.306L72.321 31.877L73.905 28.277C74.926 25.952 75.959 23.577 76.69 21.893L73.674 18.872L65.556 10.76C63.873 11.491 61.503 12.523 59.18 13.544L55.58 15.127L54.149 11.462C53.225 9.09604 52.278 6.68804 51.604 4.98004H35.85C35.176 6.68804 34.228 9.09604 33.305 11.461L31.875 15.127L28.275 13.544C25.952 12.523 23.582 11.492 21.9 10.761L10.757 21.893C11.49 23.578 12.525 25.952 13.546 28.276L15.13 31.876L11.462 33.305C9.09298 34.229 6.68398 35.176 4.97498 35.849V51.593C6.68398 52.267 9.09198 53.215 11.462 54.137L15.13 55.566L13.546 59.166C12.525 61.491 11.489 63.866 10.756 65.55L21.896 76.681C23.578 75.95 25.948 74.918 28.271 73.898L31.871 72.315L33.301 75.981C34.225 78.346 35.172 80.754 35.846 82.462H51.601C52.275 80.754 53.223 78.346 54.146 75.98L55.577 72.315L59.177 73.898C61.5 74.919 63.87 75.95 65.552 76.681L73.667 68.573L76.687 65.549C75.957 63.864 74.924 61.49 73.902 59.165L72.318 55.565L75.986 54.136C78.359 53.215 80.768 52.267 82.476 51.593ZM43.722 66.317C39.2521 66.317 34.8826 64.9916 31.1661 62.5083C27.4495 60.0249 24.5528 56.4953 22.8423 52.3657C21.1317 48.2361 20.6842 43.692 21.5562 39.308C22.4282 34.924 24.5807 30.8971 27.7413 27.7364C30.902 24.5758 34.929 22.4233 39.3129 21.5513C43.6969 20.6793 48.241 21.1268 52.3706 22.8374C56.5002 24.5479 60.0299 27.4446 62.5132 31.1612C64.9965 34.8777 66.322 39.2472 66.322 43.717C66.3161 49.7091 63.9332 55.4542 59.6962 59.6912C55.4591 63.9283 49.7141 66.3112 43.722 66.317Z" fill="url(#paint0_linear_248_4981)"/>
</g>
<defs>
<linearGradient id="paint0_linear_248_4981" x1="43.7255" y1="4.98004" x2="43.7255" y2="82.462" gradientUnits="userSpaceOnUse">
<stop stop-color="#58A4A4"/>
<stop offset="1" stop-color="#073E39"/>
</linearGradient>
<clipPath id="clip0_248_4981">
<rect width="87.45" height="87.442" fill="white"/>
</clipPath>
</defs>
</svg>
