<svg xmlns="http://www.w3.org/2000/svg" xmlns:xlink="http://www.w3.org/1999/xlink" width="41.615" height="41.612" viewBox="0 0 41.615 41.612">
  <defs>
    <linearGradient id="linear-gradient" x1="0.5" x2="0.5" y2="1" gradientUnits="objectBoundingBox">
      <stop offset="0" stop-color="#00836a"/>
      <stop offset="1" stop-color="#073e39"/>
    </linearGradient>
  </defs>
  <g id="gear_2" data-name="gear 2" transform="translate(-94.884 -524.873)">
    <path id="Union_26" data-name="Union 26" d="M13.587,31.663c-.211-.537-1.553-3.971-1.553-3.971a12.476,12.476,0,0,0,7.6,0s-1.342,3.436-1.552,3.972ZM3.051,25.44c.23-.528,1.713-3.905,1.713-3.905A12.54,12.54,0,0,0,10.132,26.9s-3.378,1.483-3.9,1.713ZM21.533,26.9A12.536,12.536,0,0,0,26.9,21.534s1.483,3.378,1.713,3.906l-3.176,3.173C24.912,28.383,21.533,26.9,21.533,26.9Zm6.754-11.069a12.389,12.389,0,0,0-.591-3.793l3.97,1.549v4.489L27.7,19.625A12.391,12.391,0,0,0,28.287,15.831ZM0,18.075V13.587c.537-.211,3.97-1.549,3.97-1.549a12.483,12.483,0,0,0,0,7.587S.537,18.286,0,18.075ZM21.533,4.763s3.38-1.484,3.907-1.714l3.175,3.173c-.23.528-1.713,3.906-1.713,3.906A12.542,12.542,0,0,0,21.533,4.763ZM3.051,6.224,6.227,3.05c.527.229,3.9,1.712,3.9,1.712a12.54,12.54,0,0,0-5.368,5.366S3.282,6.752,3.051,6.224Zm12.78-2.845a12.407,12.407,0,0,0-3.8.592S13.376.536,13.587,0H18.08c.211.536,1.553,3.972,1.552,3.972A12.41,12.41,0,0,0,15.831,3.379Z" transform="translate(99.859 529.847)" fill="url(#linear-gradient)"/>
    <g id="Group_42418" data-name="Group 42418" transform="translate(94.884 524.873)">
      <g id="Group_42414" data-name="Group 42414" transform="translate(0 0)">
        <g id="Group_42413" data-name="Group 42413">
          <g id="Group_42412" data-name="Group 42412">
            <path id="Path_28678" data-name="Path 28678" d="M40.857,32.791s-1.355-.537-2.94-1.158c.68-1.558,1.258-2.9,1.258-2.9a1.2,1.2,0,0,0-.253-1.325L32.115,20.6a1.2,1.2,0,0,0-1.326-.253s-1.336.578-2.893,1.258c-.621-1.582-1.157-2.936-1.157-2.936a1.2,1.2,0,0,0-1.117-.759H15.994a1.2,1.2,0,0,0-1.117.759s-.537,1.354-1.157,2.936c-1.557-.68-2.893-1.258-2.893-1.258A1.2,1.2,0,0,0,9.5,20.6l-6.81,6.806a1.2,1.2,0,0,0-.253,1.327s.579,1.338,1.261,2.9C2.114,32.254.76,32.791.76,32.791A1.2,1.2,0,0,0,0,33.908v9.625A1.2,1.2,0,0,0,.759,44.65s1.355.537,2.939,1.158c-.681,1.557-1.261,2.9-1.261,2.9A1.2,1.2,0,0,0,2.69,50.03L9.5,56.837a1.2,1.2,0,0,0,1.326.253s1.336-.578,2.893-1.258c.621,1.582,1.157,2.936,1.157,2.936a1.2,1.2,0,0,0,1.117.759h9.628a1.2,1.2,0,0,0,1.117-.759s.537-1.354,1.157-2.936c1.557.68,2.893,1.258,2.893,1.258a1.2,1.2,0,0,0,1.326-.253l6.807-6.807a1.2,1.2,0,0,0,.253-1.325s-.578-1.339-1.258-2.9c1.585-.621,2.94-1.158,2.94-1.158a1.2,1.2,0,0,0,.759-1.117V33.908A1.2,1.2,0,0,0,40.857,32.791Zm-1.644,9.925c-.785.31-2.072.817-3.334,1.309a1.2,1.2,0,0,0-.664,1.6c.545,1.239,1.1,2.508,1.431,3.282L30.994,54.56c-.774-.336-2.04-.887-3.278-1.43a1.2,1.2,0,0,0-1.6.663c-.492,1.26-1,2.546-1.309,3.331H16.811c-.31-.785-.817-2.071-1.309-3.331a1.2,1.2,0,0,0-1.6-.663c-1.238.544-2.5,1.094-3.278,1.43L4.967,48.91c.337-.775.889-2.044,1.433-3.282a1.2,1.2,0,0,0-.664-1.6c-1.262-.492-2.548-1-3.334-1.309V34.725c.785-.31,2.072-.817,3.334-1.309a1.2,1.2,0,0,0,.664-1.6c-.544-1.239-1.1-2.507-1.433-3.282l5.654-5.651c.774.336,2.04.887,3.278,1.43a1.2,1.2,0,0,0,1.6-.663c.492-1.26,1-2.546,1.309-3.331H24.8c.311.785.817,2.071,1.309,3.331a1.2,1.2,0,0,0,1.6.663c1.238-.544,2.5-1.095,3.278-1.43l5.651,5.651c-.336.774-.887,2.043-1.431,3.282a1.2,1.2,0,0,0,.664,1.6c1.262.492,2.548,1,3.334,1.309v7.991Z" transform="translate(0 -17.915)" fill="#002c27"/>
          </g>
        </g>
      </g>
      <g id="Group_42417" data-name="Group 42417" transform="translate(10.926 10.926)">
        <g id="Group_42416" data-name="Group 42416">
          <g id="Group_42415" data-name="Group 42415">
            <path id="Path_28679" data-name="Path 28679" d="M37.148,45.182a9.88,9.88,0,1,0,9.883,9.88A9.891,9.891,0,0,0,37.148,45.182Zm0,17.357a7.477,7.477,0,1,1,7.481-7.477A7.486,7.486,0,0,1,37.148,62.539Z" transform="translate(-27.268 -45.182)" fill="#002c27"/>
          </g>
        </g>
      </g>
    </g>
  </g>
</svg>
