<svg xmlns="http://www.w3.org/2000/svg" xmlns:xlink="http://www.w3.org/1999/xlink" width="87.45" height="87.442" viewBox="0 0 87.45 87.442">
  <defs>
    <linearGradient id="linear-gradient" x1="0.5" x2="0.5" y2="1" gradientUnits="objectBoundingBox">
      <stop offset="0" stop-color="#00836a"/>
      <stop offset="1" stop-color="#073e39"/>
    </linearGradient>
  </defs>
  <g id="gear1" transform="translate(-143.966 -524.733)">
    <g id="Group_42470" data-name="Group 42470" transform="translate(143.966 524.733)">
      <g id="Group_42466" data-name="Group 42466" transform="translate(0 0)">
        <g id="Group_42465" data-name="Group 42465">
          <g id="Group_42464" data-name="Group 42464">
            <path id="Path_28701" data-name="Path 28701" d="M232.042,49.734s-3.75-1.486-7.73-3.041c1.712-3.909,3.311-7.615,3.311-7.615a1.2,1.2,0,0,0-.253-1.325L212.607,22.99a1.2,1.2,0,0,0-1.326-.253s-3.7,1.6-7.607,3.311c-1.555-3.973-3.041-7.723-3.041-7.723a1.2,1.2,0,0,0-1.117-.759H178.634a1.2,1.2,0,0,0-1.117.759s-1.486,3.749-3.041,7.723c-3.908-1.712-7.607-3.311-7.607-3.311a1.2,1.2,0,0,0-1.326.253L150.774,37.752a1.2,1.2,0,0,0-.253,1.327s1.6,3.7,3.317,7.613c-3.98,1.555-7.73,3.041-7.73,3.041a1.2,1.2,0,0,0-.759,1.117V71.726a1.2,1.2,0,0,0,.759,1.117s3.75,1.486,7.73,3.041c-1.713,3.908-3.317,7.613-3.317,7.613a1.2,1.2,0,0,0,.253,1.327l14.769,14.762a1.2,1.2,0,0,0,1.326.253s3.7-1.6,7.607-3.311c1.555,3.973,3.041,7.723,3.041,7.723a1.2,1.2,0,0,0,1.117.759h20.883a1.2,1.2,0,0,0,1.117-.759s1.486-3.749,3.041-7.723c3.908,1.712,7.607,3.311,7.607,3.311a1.2,1.2,0,0,0,1.326-.253L227.37,84.823a1.2,1.2,0,0,0,.253-1.325s-1.6-3.705-3.311-7.615c3.98-1.556,7.73-3.041,7.73-3.041a1.2,1.2,0,0,0,.759-1.117V50.85A1.2,1.2,0,0,0,232.042,49.734ZM230.4,70.91c-1.466.579-4.834,1.909-8.125,3.192a1.2,1.2,0,0,0-.664,1.6c1.419,3.23,2.859,6.553,3.485,8L211.485,97.31c-1.445-.626-4.763-2.066-7.992-3.484a1.2,1.2,0,0,0-1.6.664c-1.282,3.285-2.612,6.652-3.192,8.118H179.45c-.579-1.466-1.909-4.832-3.192-8.118a1.2,1.2,0,0,0-1.6-.664c-3.228,1.418-6.546,2.858-7.992,3.484L153.05,83.7c.628-1.447,2.072-4.77,3.491-8a1.2,1.2,0,0,0-.664-1.6c-3.291-1.283-6.659-2.612-8.125-3.192V51.667c1.466-.579,4.834-1.909,8.125-3.192a1.2,1.2,0,0,0,.664-1.6c-1.419-3.229-2.863-6.552-3.491-8l13.614-13.607c1.445.626,4.764,2.066,7.992,3.484a1.2,1.2,0,0,0,1.6-.664c1.282-3.285,2.612-6.652,3.192-8.118H198.7c.579,1.466,1.909,4.832,3.192,8.118a1.2,1.2,0,0,0,1.6.664c3.229-1.418,6.547-2.858,7.992-3.484l13.607,13.607c-.626,1.447-2.066,4.77-3.485,8a1.2,1.2,0,0,0,.664,1.6c3.291,1.282,6.659,2.612,8.125,3.192Z" transform="translate(-145.35 -17.567)" fill="#002c27"/>
          </g>
        </g>
      </g>
      <g id="Group_42469" data-name="Group 42469" transform="translate(23.697 23.697)">
        <g id="Group_42468" data-name="Group 42468">
          <g id="Group_42467" data-name="Group 42467">
            <path id="Path_28702" data-name="Path 28702" d="M224.512,76.707A20.024,20.024,0,1,0,244.544,96.73,20.046,20.046,0,0,0,224.512,76.707Zm0,37.645a17.621,17.621,0,1,1,17.628-17.621A17.641,17.641,0,0,1,224.512,114.352Z" transform="translate(-204.489 -76.707)" fill="#002c27"/>
          </g>
        </g>
      </g>
    </g>
    <g id="Group_42473" data-name="Group 42473" transform="translate(148.941 529.708)">
      <g id="Group_42472" data-name="Group 42472">
        <g id="Group_42471" data-name="Group 42471">
          <path id="Path_28703" data-name="Path 28703" d="M235.265,76.6V60.857c-1.709-.674-4.118-1.621-6.487-2.544l-3.668-1.429,1.584-3.6c1.021-2.325,2.054-4.7,2.785-6.384l-3.016-3.021-8.118-8.112c-1.683.731-4.053,1.763-6.376,2.784l-3.6,1.583-1.431-3.665c-.924-2.366-1.871-4.774-2.545-6.482H188.639c-.674,1.708-1.622,4.116-2.545,6.481l-1.43,3.666-3.6-1.583c-2.323-1.021-4.693-2.052-6.375-2.783L163.546,46.9c.733,1.685,1.768,4.059,2.789,6.383l1.584,3.6-3.668,1.429c-2.369.924-4.778,1.871-6.487,2.544V76.6c1.709.674,4.117,1.622,6.487,2.544l3.668,1.429-1.584,3.6c-1.021,2.325-2.057,4.7-2.79,6.384l11.14,11.131c1.682-.731,4.052-1.763,6.375-2.783l3.6-1.583,1.43,3.666c.924,2.365,1.871,4.773,2.545,6.481H204.39c.674-1.708,1.622-4.116,2.545-6.482l1.431-3.665,3.6,1.583c2.323,1.021,4.693,2.052,6.375,2.783l8.115-8.108,3.02-3.024c-.73-1.685-1.763-4.059-2.785-6.384l-1.584-3.6,3.668-1.429C231.148,78.222,233.557,77.274,235.265,76.6ZM196.511,91.324a22.6,22.6,0,1,1,22.6-22.6A22.622,22.622,0,0,1,196.511,91.324Z" transform="translate(-157.764 -29.982)" fill="url(#linear-gradient)"/>
        </g>
      </g>
    </g>
  </g>
</svg>
