<svg width="23" height="20" viewBox="0 0 23 20" fill="none" xmlns="http://www.w3.org/2000/svg">
<g clip-path="url(#clip0_4100_1436)">
<path d="M3.84526 1.54058V3.07721H4.16074C9.6464 3.07721 15.1319 3.07721 20.6171 3.07721C21.8579 3.07721 22.7876 3.87282 22.9783 5.09095C22.9963 5.23383 23.0033 5.37787 22.9995 5.52183C22.9995 9.53561 22.9995 13.5494 22.9995 17.5632C22.9995 19.0073 22.0159 19.9982 20.5832 19.9988C14.5306 19.9988 8.47816 19.9988 2.42596 19.9988C0.988743 19.9988 0.000732422 19.0106 0.000732422 17.5722C0.000732422 13.0211 0.000732422 8.47074 0.000732422 3.92098C0.000732422 1.6857 1.6824 0.00394311 3.91245 0.000732422C8.46429 0.000732422 13.0155 0.000732422 17.566 0.000732422C18.5125 0.000732422 19.2144 0.427754 19.6726 1.2574C19.7019 1.3142 19.7278 1.37275 19.75 1.4327C19.7608 1.46766 19.7693 1.50326 19.7756 1.53929L3.84526 1.54058ZM8.45256 7.69289V9.24109H9.18397V13.858H8.4468V15.3908H10.7453V16.1428H12.2709V15.3979C13.2499 15.3292 13.973 14.8913 14.3653 14.0045C14.7575 13.1177 14.5783 12.2867 13.9813 11.5393C14.5886 10.7771 14.7575 9.94744 14.3582 9.06C13.9589 8.17257 13.2339 7.74683 12.2593 7.68262V6.94288H10.7236V7.69289H8.4532H8.45256ZM19.9324 11.5342C19.9324 11.2293 19.8423 10.9314 19.6736 10.678C19.5048 10.4245 19.265 10.227 18.9844 10.1103C18.7037 9.99369 18.3949 9.96318 18.097 10.0226C17.7991 10.0821 17.5255 10.2289 17.3107 10.4444C17.0959 10.6599 16.9496 10.9345 16.8904 11.2335C16.8311 11.5324 16.8615 11.8423 16.9778 12.1239C17.094 12.4055 17.2909 12.6462 17.5434 12.8156C17.796 12.9849 18.0929 13.0753 18.3966 13.0753C18.5984 13.0754 18.7981 13.0356 18.9845 12.9582C19.1709 12.8807 19.3403 12.7672 19.483 12.6241C19.6257 12.481 19.7389 12.3111 19.8161 12.1241C19.8933 11.937 19.933 11.7366 19.933 11.5342H19.9324Z" fill="#F1F1F1"/>
<path d="M10.7484 9.23201C11.2834 9.23201 11.794 9.22238 12.304 9.23522C12.4978 9.24275 12.6813 9.32449 12.8169 9.46363C12.9524 9.60277 13.0297 9.78875 13.0329 9.98332C13.0412 10.3814 12.7366 10.7455 12.3373 10.7609C11.8132 10.7815 11.2879 10.7661 10.7484 10.7661V9.23201Z" fill="#F1F1F1"/>
<path d="M10.7427 13.8445V12.3207C11.3013 12.3207 11.858 12.2924 12.4103 12.3303C12.7884 12.3566 13.0502 12.7413 13.031 13.1208C13.0206 13.3108 12.9398 13.4901 12.8045 13.6235C12.6692 13.7569 12.4891 13.8348 12.2996 13.8419C11.7915 13.8541 11.2808 13.8445 10.7427 13.8445Z" fill="#F1F1F1"/>
</g>
<defs>
<clipPath id="clip0_4100_1436">
<rect width="23" height="20" fill="white"/>
</clipPath>
</defs>
</svg>
