<svg width="19" height="22" viewBox="0 0 19 22" fill="none" xmlns="http://www.w3.org/2000/svg">
<path d="M16.9045 10.2562C16.3807 10.3924 15.8569 10.4762 15.333 10.4762C13.8057 10.4734 12.3418 9.86548 11.2618 8.78551C10.1819 7.70555 9.57392 6.24159 9.57115 4.71429C9.57115 3.17429 10.1788 1.78096 11.1426 0.743815C10.9525 0.510762 10.7127 0.32306 10.4409 0.194385C10.169 0.0657099 9.87191 -0.000696147 9.57115 5.50281e-06C8.41877 5.50281e-06 7.47591 0.942862 7.47591 2.09524V2.39905C4.36448 3.32096 2.23782 6.18096 2.23782 9.42857V15.7143L0.142578 17.8095V18.8571H18.9997V17.8095L16.9045 15.7143V10.2562ZM9.57115 22C10.734 22 11.6664 21.0676 11.6664 19.9048H7.47591C7.47591 20.4605 7.69666 20.9934 8.08959 21.3863C8.48252 21.7793 9.01546 22 9.57115 22Z" fill="#F6F2ED"/>
<path d="M15.3332 8.38118C17.3551 8.38118 18.9998 6.73642 18.9998 4.71452C18.9998 2.69261 17.3551 1.04785 15.3332 1.04785C13.3113 1.04785 11.6665 2.69261 11.6665 4.71452C11.6665 6.73642 13.3113 8.38118 15.3332 8.38118Z" fill="#F95959"/>
</svg>
