<svg width="19" height="22" viewBox="0 0 19 22" fill="none" xmlns="http://www.w3.org/2000/svg">
<path d="M16.9047 10.2562C16.3809 10.3924 15.8571 10.4762 15.3333 10.4762C13.806 10.4734 12.342 9.86548 11.2621 8.78551C10.1821 7.70555 9.57416 6.24159 9.57139 4.71429C9.57139 3.17429 10.179 1.78096 11.1428 0.743815C10.9527 0.510762 10.713 0.32306 10.4411 0.194385C10.1693 0.0657099 9.87215 -0.000696147 9.57139 5.50281e-06C8.41901 5.50281e-06 7.47615 0.942862 7.47615 2.09524V2.39905C4.36473 3.32096 2.23806 6.18096 2.23806 9.42857V15.7143L0.142822 17.8095V18.8571H19V17.8095L16.9047 15.7143V10.2562ZM9.57139 22C10.7342 22 11.6666 21.0676 11.6666 19.9048H7.47615C7.47615 20.4605 7.6969 20.9934 8.08983 21.3863C8.48277 21.7793 9.0157 22 9.57139 22Z" fill="#F7F2EC"/>
<path d="M15.3334 8.38118C17.3553 8.38118 19.0001 6.73642 19.0001 4.71452C19.0001 2.69261 17.3553 1.04785 15.3334 1.04785C13.3115 1.04785 11.6667 2.69261 11.6667 4.71452C11.6667 6.73642 13.3115 8.38118 15.3334 8.38118Z" fill="#F95959"/>
</svg>
