<svg width="240" height="191" viewBox="0 0 240 191" fill="none" xmlns="http://www.w3.org/2000/svg">
<g opacity="0.272">
<path d="M54.0744 176.797C77.7602 176.797 96.9613 157.696 96.9613 134.133C96.9613 110.571 77.7602 91.4696 54.0744 91.4696C30.3886 91.4696 11.1875 110.571 11.1875 134.133C11.1875 157.696 30.3886 176.797 54.0744 176.797Z" fill="#033D31"/>
<path d="M65.8264 188.701C66.3912 189.156 67.0791 189.434 67.8029 189.5C68.5266 189.566 69.2539 189.417 69.8926 189.072C70.5313 188.727 71.0528 188.201 71.3912 187.561C71.7295 186.922 71.8695 186.196 71.7933 185.477C71.7172 184.758 71.4285 184.077 70.9635 183.522C70.4986 182.966 69.8785 182.56 69.1815 182.355C68.4845 182.149 67.7421 182.155 67.048 182.369C66.3539 182.584 65.7394 182.998 65.2823 183.561C64.6694 184.314 64.3824 185.279 64.4845 186.243C64.5865 187.207 65.0692 188.091 65.8264 188.701Z" fill="#033D31"/>
<path d="M79.028 180.982C79.4138 181.293 79.8835 181.483 80.3779 181.528C80.8722 181.573 81.3688 181.472 81.805 181.236C82.2412 181 82.5974 180.641 82.8284 180.204C83.0594 179.767 83.155 179.272 83.1029 178.781C83.0509 178.29 82.8537 177.825 82.5361 177.445C82.2186 177.066 81.795 176.788 81.319 176.648C80.843 176.508 80.3359 176.512 79.8619 176.659C79.3879 176.805 78.9683 177.088 78.6561 177.472C78.2378 177.987 78.0419 178.646 78.1116 179.304C78.1814 179.962 78.511 180.566 79.028 180.982Z" fill="#033D31"/>
<path d="M4.66067 122.279C5.58246 122.279 6.48355 122.007 7.25 121.497C8.01644 120.988 8.61381 120.264 8.96657 119.416C9.31932 118.569 9.41162 117.637 9.23178 116.738C9.05195 115.838 8.60806 115.012 7.95626 114.364C7.30445 113.715 6.474 113.274 5.56992 113.095C4.66584 112.916 3.72873 113.008 2.87711 113.359C2.02548 113.71 1.29759 114.304 0.785464 115.066C0.273343 115.829 0 116.725 0 117.642C0 118.872 0.491034 120.051 1.36508 120.921C2.23912 121.79 3.42458 122.279 4.66067 122.279Z" fill="#033D31"/>
</g>
<g opacity="0.272">
<path d="M220.429 47.9273C227.428 42.6828 228.821 32.7804 223.54 25.8097C218.259 18.839 208.305 17.4396 201.307 22.6841C194.308 27.9286 192.916 37.8309 198.196 44.8017C203.477 51.7724 213.431 53.1718 220.429 47.9273Z" fill="#033D31"/>
<path d="M219.613 54.0423C219.548 54.3016 219.408 54.5358 219.209 54.7153C219.01 54.8949 218.762 55.0117 218.496 55.051C218.23 55.0903 217.958 55.0503 217.715 54.9361C217.472 54.8219 217.268 54.6386 217.129 54.4095C216.991 54.1803 216.923 53.9155 216.936 53.6485C216.949 53.3816 217.041 53.1245 217.201 52.9098C217.361 52.6951 217.581 52.5324 217.834 52.4423C218.087 52.3522 218.361 52.3387 218.622 52.4035C218.972 52.4905 219.273 52.712 219.459 53.0193C219.645 53.3267 219.7 53.6946 219.613 54.0423Z" fill="#033D31"/>
<path d="M213.981 54.6854C213.937 54.8624 213.841 55.0223 213.705 55.1449C213.569 55.2675 213.4 55.3472 213.218 55.374C213.037 55.4009 212.851 55.3736 212.685 55.2956C212.519 55.2177 212.38 55.0925 212.285 54.9361C212.19 54.7796 212.145 54.5988 212.153 54.4165C212.162 54.2343 212.225 54.0588 212.334 53.9122C212.443 53.7656 212.593 53.6545 212.766 53.593C212.939 53.5315 213.126 53.5223 213.304 53.5665C213.543 53.6263 213.748 53.7776 213.875 53.9873C214.002 54.197 214.04 54.448 213.981 54.6854Z" fill="#033D31"/>
<path d="M222.823 20.851C222.55 21.055 222.223 21.174 221.883 21.193C221.542 21.2119 221.204 21.13 220.91 20.9576C220.616 20.7851 220.38 20.5299 220.232 20.2242C220.083 19.9184 220.029 19.5759 220.076 19.2399C220.124 18.904 220.27 18.5896 220.497 18.3366C220.724 18.0836 221.021 17.9034 221.351 17.8187C221.681 17.734 222.03 17.7486 222.352 17.8607C222.674 17.9728 222.955 18.1774 223.161 18.4486C223.436 18.8122 223.555 19.2695 223.492 19.7201C223.428 20.1706 223.188 20.5774 222.823 20.851Z" fill="#033D31"/>
</g>
<path d="M56 31.2883V93.0434C55.9891 114.112 63.4648 134.505 77.1019 150.605C90.7389 166.705 109.656 177.473 130.5 181C151.344 177.473 170.261 166.705 183.898 150.605C197.535 134.505 205.011 114.112 205 93.0434V31.2883L130.573 2L56 31.2883Z" fill="#FDF7F0"/>
<path d="M58 32.6338V93.0089C57.9893 113.607 65.3145 133.544 78.677 149.284C92.0394 165.025 110.576 175.552 131 179C151.424 175.552 169.961 165.025 183.323 149.284C196.685 133.544 204.011 113.607 204 93.0089V32.6338L131.071 4L58 32.6338Z" fill="#065748"/>
<path d="M131.036 182.93H130.819C109.351 179.367 89.8524 168.381 75.7879 151.923C61.7234 135.464 54.0036 114.6 54 93.036V30.0829L131.036 0L208 30.0829V93.1079C207.996 114.672 200.276 135.536 186.212 151.994C172.147 168.452 152.649 179.438 131.181 183L131.036 182.93ZM56.3809 31.6549V93.1079C56.37 114.076 63.8541 134.37 77.5064 150.393C91.1588 166.416 110.097 177.133 130.964 180.643C151.832 177.133 170.77 166.416 184.422 150.393C198.075 134.37 205.559 114.076 205.548 93.1079V31.6549L131.036 2.50104L56.3809 31.6549Z" fill="#041513"/>
<path d="M67.5 92.8367V92.8365V39.7012L131.062 14.5378L194.5 39.7009V92.8365V92.8367C194.509 110.963 188.129 128.507 176.489 142.359C164.869 156.188 148.756 165.444 131 168.493C113.244 165.444 97.1313 156.188 85.5106 142.359C73.8714 128.507 67.4907 110.963 67.5 92.8367Z" stroke="#F9FFFD"/>
<path d="M131 22L74 44.3777V93.063C73.9947 109.362 79.6797 125.156 90.0798 137.734C100.48 150.312 114.947 158.891 131 162C147.053 158.891 161.52 150.312 171.92 137.734C182.32 125.156 188.005 109.362 188 93.063V44.3777L131 22ZM131.517 120.73C125.081 120.729 118.789 118.827 113.437 115.263C108.086 111.698 103.915 106.632 101.452 100.705C98.9889 94.7781 98.3446 88.2563 99.6005 81.9643C100.856 75.6723 103.956 69.8927 108.507 65.3565C113.058 60.8203 118.857 57.7312 125.17 56.4797C131.483 55.2283 138.026 55.8707 143.972 58.3258C149.919 60.7809 155.001 64.9384 158.577 70.2725C162.153 75.6066 164.062 81.8779 164.062 88.2932C164.064 92.5534 163.223 96.7723 161.589 100.709C159.954 104.645 157.557 108.222 154.535 111.234C151.512 114.246 147.924 116.636 143.975 118.265C140.025 119.894 135.791 120.732 131.517 120.73Z" fill="#FDF7F0"/>
<circle cx="132" cy="87" r="34" fill="#FDF7F0"/>
<circle cx="131" cy="92" r="38" stroke="#041513" stroke-width="2" stroke-dasharray="3 3"/>
<circle cx="131.139" cy="92.1391" r="28.1392" fill="#2D6759"/>
<path d="M133.298 101.914L133.194 101.941V104.495L133.36 104.46C136.033 103.879 138.401 102.338 140.015 100.13C141.63 97.9209 142.378 95.1971 142.12 92.4735C141.862 89.75 140.614 87.2156 138.613 85.3499C136.612 83.4841 133.997 82.4164 131.262 82.3488V80L126.487 83.7025L131.262 87.4012V84.8287C133.362 84.862 135.38 85.6559 136.94 87.0632C138.5 88.4705 139.496 90.3957 139.745 92.4818C139.994 94.5679 139.477 96.6735 138.292 98.4079C137.106 100.142 135.332 101.388 133.298 101.914ZM122.773 86.1285C121.213 87.8739 120.247 90.0699 120.015 92.3996V92.55H122.499V92.4305C122.711 90.744 123.417 89.1579 124.528 87.8717L124.613 87.7753L122.869 86.0166L122.773 86.1285ZM126.055 100.561L124.289 102.327L124.416 102.42C126.349 103.894 128.715 104.69 131.146 104.684H131.281V102.2H131.146C129.365 102.202 127.627 101.652 126.171 100.626L126.055 100.561ZM120.012 94.6327C120.246 96.9624 121.213 99.1579 122.773 100.904L122.869 101.016L124.624 99.2608L124.539 99.1644C123.43 97.8761 122.726 96.2889 122.515 94.6018V94.4784H120L120.012 94.6327Z" fill="#FDF7F0"/>
<path d="M135.518 91.8812H132.479V88.868H129.689V91.8812H126.65V94.7229H129.689V97.7361H132.479V94.7229H135.518V91.8812Z" fill="#FDF7F0"/>
</svg>
