<svg width="21" height="24" viewBox="0 0 21 24" fill="none" xmlns="http://www.w3.org/2000/svg">
<path fill-rule="evenodd" clip-rule="evenodd" d="M7.36309 2.58284L6.31717 1.7587L7.68655 0L10.7856 2.42692C10.9659 2.57131 11.0969 2.76826 11.1603 2.99044C11.2236 3.21262 11.2163 3.44902 11.1392 3.66683C11.0621 3.88464 10.9192 4.07306 10.7302 4.20594C10.5411 4.33882 10.3155 4.40956 10.0844 4.40836C9.07402 4.39337 8.07057 4.57764 7.13141 4.95062C6.19226 5.3236 5.33581 5.878 4.611 6.58212C3.8862 7.28624 3.30724 8.12628 2.90723 9.05425C2.50722 9.98221 2.29399 10.9799 2.27972 11.9903C2.28281 13.1777 2.56688 14.3475 3.1087 15.404C3.65052 16.4605 4.43471 17.3738 5.39714 18.0692C5.72575 18.3065 6.07182 18.5185 6.43241 18.7036L5.4078 20.6763C4.9338 20.4352 4.48034 20.1557 4.05197 19.8405L4.69793 18.9389L4.04132 19.8299C2.7935 18.9279 1.77683 17.7435 1.07444 16.3734C0.372049 15.0033 0.00386889 13.4864 0 11.9467C0.0127638 9.79323 0.730451 7.70315 2.04333 5.99607C3.35621 4.289 5.19204 3.05886 7.27012 2.49375L7.36309 2.58284ZM17.9065 12.0242C17.8981 10.6316 17.506 9.26816 16.7734 8.08371C16.0409 6.89926 14.9961 5.93957 13.7539 5.30998L14.7668 3.32854C16.5343 4.21963 17.9884 5.62792 18.9355 7.36593C19.8827 9.10395 20.278 11.0892 20.0689 13.0575C19.8597 15.0258 19.056 16.8837 17.7647 18.3838C16.4734 19.8839 14.7558 20.9552 12.8406 21.4549L13.8652 22.2568L12.491 24L9.38423 21.5731C9.20105 21.4291 9.06727 21.2316 9.00149 21.008C8.93571 20.7845 8.9412 20.546 9.01719 20.3257C9.08806 20.1043 9.22789 19.9114 9.41625 19.7751C9.60461 19.6389 9.83161 19.5664 10.0641 19.5684C12.1044 19.5943 14.0715 18.8089 15.533 17.385C16.9945 15.9611 17.8308 14.0151 17.8581 11.9748L17.9065 12.0242Z" fill="#F1F1F1"/>
<path fill-rule="evenodd" clip-rule="evenodd" d="M8.44488 6.46394C8.29823 6.46251 8.15277 6.49035 8.017 6.54581C7.88124 6.60128 7.7579 6.68326 7.6542 6.78696C7.55049 6.89066 7.46851 7.01401 7.41305 7.14977C7.35758 7.28553 7.32975 7.431 7.33117 7.57765V9.12716H5.66157C5.51563 9.12536 5.3708 9.15262 5.23549 9.20734C5.10019 9.26206 4.97713 9.34316 4.87348 9.44591C4.76983 9.54866 4.68766 9.67101 4.63176 9.80583C4.57585 9.94064 4.54733 10.0852 4.54786 10.2312V13.4367C4.54735 13.5831 4.5758 13.7282 4.63159 13.8635C4.68738 13.9989 4.7694 14.1219 4.87292 14.2254C4.97644 14.3289 5.09941 14.4109 5.23477 14.4667C5.37012 14.5225 5.51517 14.551 5.66157 14.5505H7.33117V16.1C7.33066 16.2464 7.35911 16.3914 7.4149 16.5268C7.47069 16.6621 7.55271 16.7851 7.65623 16.8886C7.75975 16.9921 7.88272 17.0742 8.01808 17.1299C8.15343 17.1857 8.29848 17.2142 8.44488 17.2137H11.785C12.0802 17.2129 12.363 17.0953 12.5717 16.8866C12.7804 16.6779 12.898 16.3951 12.8988 16.1V14.5408H14.5693C14.8645 14.54 15.1473 14.4224 15.356 14.2137C15.5647 14.005 15.6823 13.7222 15.683 13.4271V10.2205C15.6835 10.0741 15.6551 9.92908 15.5993 9.79373C15.5435 9.65838 15.4615 9.5354 15.358 9.43188C15.2545 9.32836 15.1315 9.24634 14.9961 9.19056C14.8608 9.13477 14.7157 9.10631 14.5693 9.10682H12.8988V7.54859C12.8993 7.4022 12.8708 7.25714 12.815 7.12179C12.7592 6.98644 12.6772 6.86346 12.5737 6.75994C12.4702 6.65642 12.3472 6.5744 12.2119 6.51862C12.0765 6.46283 11.9314 6.43437 11.785 6.43488H8.44488V6.46394Z" fill="#F1F1F1"/>
</svg>
