<svg xmlns="http://www.w3.org/2000/svg" width="13.498" height="17" viewBox="0 0 13.498 17">
  <path id="heathcheck" d="M15.178,3.318H14.3a.61.61,0,0,0-.247.051A1.512,1.512,0,0,0,12.56,2h-3.5A1.511,1.511,0,0,0,7.57,3.318H6.44A2.376,2.376,0,0,0,4.06,5.7V16.62A2.376,2.376,0,0,0,6.44,19h8.738a2.376,2.376,0,0,0,2.38-2.38V5.7A2.376,2.376,0,0,0,15.178,3.318Zm-8.5,12.427a.637.637,0,0,1,.637-.638H14.3a.637.637,0,1,1,0,1.275H7.316A.637.637,0,0,1,6.678,15.745ZM14.3,13.764H7.316a.638.638,0,0,1,0-1.275H14.3a.638.638,0,1,1,0,1.275ZM9.5,8.554h.671V7.882a.638.638,0,0,1,1.275,0v.671h.671a.638.638,0,1,1,0,1.275h-.671V10.5a.638.638,0,0,1-1.275,0V9.829H9.5a.638.638,0,1,1,0-1.275ZM8.829,3.513a.236.236,0,0,1,.229-.238h3.5a.236.236,0,0,1,.229.238v.876a.236.236,0,0,1-.229.238h-3.5a.236.236,0,0,1-.229-.238Z" transform="translate(-4.06 -2)" fill="#453228"/>
</svg>
