<svg width="10" height="10" viewBox="0 0 10 10" fill="none" xmlns="http://www.w3.org/2000/svg">
<g clip-path="url(#clip0_5591_673)">
<path d="M8.53555 1.46445C7.59117 0.520117 6.33553 0 5 0C3.66447 0 2.40883 0.520098 1.46445 1.46445C0.520117 2.40883 0 3.66447 0 5C0 6.33553 0.520098 7.59117 1.46445 8.53555C2.40883 9.47988 3.66447 10 5 10C6.33553 10 7.59117 9.4799 8.53555 8.53555C9.47988 7.59117 10 6.33553 10 5C10 3.66447 9.4799 2.40883 8.53555 1.46445ZM5.29258 7.76963H4.70742V7.18445H5.29258V7.76963ZM5.989 5.271C5.55488 5.57289 5.29572 6.08025 5.29572 6.62803H4.71055C4.71055 5.88875 5.06355 5.2018 5.6549 4.79057C5.97695 4.56658 6.16027 4.19869 6.14541 3.80646C6.12289 3.21357 5.64088 2.73154 5.04799 2.70904C4.73404 2.69707 4.43627 2.81021 4.21043 3.02766C3.98445 3.24523 3.86002 3.53768 3.86002 3.85125H3.27484C3.27484 3.37715 3.46299 2.93496 3.80455 2.60613C4.14604 2.2773 4.5958 2.10633 5.07018 2.12426C5.96695 2.15828 6.69609 2.88742 6.7302 3.78426C6.7527 4.37676 6.47561 4.93256 5.98898 5.271H5.989Z" fill="#2F4F4F"/>
</g>
<defs>
<clipPath id="clip0_5591_673">
<rect width="10" height="10" fill="white"/>
</clipPath>
</defs>
</svg>
