<svg xmlns="http://www.w3.org/2000/svg" width="58" height="50" viewBox="0 0 58 50">
  <g id="Group_46578" data-name="Group 46578" transform="translate(-40 -108)">
    <path id="hexagontile3" d="M40.62,0a5,5,0,0,1,4.325,2.491l11.6,20a5,5,0,0,1,0,5.017l-11.6,20A5,5,0,0,1,40.62,50H17.38a5,5,0,0,1-4.325-2.491l-11.6-20a5,5,0,0,1,0-5.017l11.6-20A5,5,0,0,1,17.38,0Z" transform="translate(40 108)" fill="#092c27" opacity="0.5"/>
    <path id="Union_20" data-name="Union 20" d="M13.626,26.33H7.1V23.9h6.541a7.049,7.049,0,0,0,3.163-.656,4.281,4.281,0,0,0,1.863-1.853,6.64,6.64,0,0,0,.748-3.194,6.483,6.483,0,0,0-.748-3.159,4.2,4.2,0,0,0-1.878-1.868,6.91,6.91,0,0,0-3.133-.646H7.1V10.087H13.5a4.682,4.682,0,0,0,2.124-.437,2.916,2.916,0,0,0,1.245-1.237,5.539,5.539,0,0,0,.5-2.166,5.577,5.577,0,0,0-.507-2.166C16.267,3,15.193,2.487,13.5,2.487H7.1V0H13.5a6.88,6.88,0,0,1,3.314.75A5.3,5.3,0,0,1,19.064,3a6.656,6.656,0,0,1,.808,3.264,7.127,7.127,0,0,1-.808,3.249,4.509,4.509,0,0,1-1.145,1.49c.156.079.3.159.442.238a6.14,6.14,0,0,1,2.566,2.7,9.638,9.638,0,0,1,1,4.237,9.75,9.75,0,0,1-1,4.3,6.166,6.166,0,0,1-2.566,2.7,8.816,8.816,0,0,1-4.373,1.162C13.867,26.335,13.747,26.335,13.626,26.33ZM0,18.119A3.013,3.013,0,1,1,3.013,21.1,3,3,0,0,1,0,18.119ZM.5,6.2a2.481,2.481,0,0,1,.733-1.759,2.536,2.536,0,0,1,1.777-.725A2.484,2.484,0,1,1,.5,6.2Z" transform="translate(58 120)" fill="#fdf7f0"/>
  </g>
</svg>
