<svg width="27" height="24" viewBox="0 0 27 24" fill="none" xmlns="http://www.w3.org/2000/svg">
<path d="M6.81104 5.79016L5.7125 4.58743C5.5494 4.42397 5.39469 4.25145 5.24905 4.06984C5.16518 3.93715 5.12726 3.77661 5.14191 3.61684C5.15657 3.45706 5.22287 3.30787 5.32922 3.19545C5.43558 3.08303 5.57522 3.01483 5.72373 3.00214C5.87224 2.98945 6.02015 3.03339 6.14162 3.12635L6.3476 3.34811L21.4525 19.6092L21.6413 19.831C21.7367 19.9645 21.783 20.1313 21.7714 20.2993C21.7598 20.4674 21.6911 20.6251 21.5785 20.742C21.4658 20.8588 21.3171 20.927 21.1608 20.933C21.0045 20.939 20.8517 20.8823 20.7316 20.7745L19.1868 19.1282L16.9725 16.6862C16.9178 16.6274 16.8438 16.5945 16.7665 16.5945C16.6893 16.5945 16.6153 16.6274 16.5606 16.6862C16.4064 16.7999 16.2239 16.861 16.037 16.861C15.8502 16.861 15.6677 16.7999 15.5135 16.6862C14.8956 16.3162 14.2605 15.9835 13.6082 15.6505C13.4206 15.554 13.2154 15.5033 13.0075 15.5024H10.7761C10.6996 15.4969 10.6231 15.5128 10.554 15.5485C10.4848 15.5841 10.4253 15.638 10.3813 15.7056C9.7084 16.6769 8.7867 17.4149 7.72965 17.8288C6.67259 18.2428 5.52631 18.3148 4.43188 18.0357C3.33744 17.7565 2.34262 17.1387 1.56985 16.258C0.797077 15.3773 0.280084 14.2721 0.0824954 13.0789C-0.0487399 12.2529 -0.0231797 11.4067 0.157625 10.5916C0.338429 9.7766 0.670725 9.00968 1.13442 8.33701C1.59811 7.66433 2.18357 7.09997 2.85539 6.6781C3.52721 6.25623 4.27144 5.9858 5.04308 5.88275C5.63033 5.81628 6.22058 5.78531 6.81104 5.79016ZM5.74683 9.19378C5.23616 9.19012 4.73601 9.35051 4.30998 9.65401C3.88395 9.95751 3.5513 10.3905 3.3543 10.8983C3.1573 11.4061 3.10487 11.9657 3.20367 12.5057C3.30246 13.0457 3.54803 13.5419 3.90914 13.9311C4.27025 14.3203 4.73059 14.5848 5.23162 14.6912C5.73266 14.7977 6.25176 14.7414 6.72292 14.5291C7.19408 14.3168 7.59601 13.958 7.87761 13.4989C8.15921 13.0397 8.30776 12.501 8.30437 11.9506C8.29987 11.2211 8.02897 10.5226 7.55031 10.0067C7.07165 9.49086 6.42374 9.19863 5.74683 9.19378ZM13.1791 12.6534L11.9433 11.34C11.9134 11.3263 11.8813 11.3192 11.8489 11.3192C11.8164 11.3192 11.7843 11.3263 11.7545 11.34C11.4627 11.34 11.1537 11.34 10.8619 11.34C10.7785 11.3424 10.6963 11.3625 10.6201 11.3992C10.5439 11.4358 10.4752 11.4884 10.4178 11.5536C10.3604 11.6189 10.3155 11.6955 10.2857 11.7795C10.2559 11.8635 10.2417 11.9529 10.244 12.0428C10.2417 12.1318 10.256 12.2204 10.286 12.3034C10.316 12.3863 10.3612 12.4622 10.4188 12.526C10.4764 12.5899 10.5453 12.6405 10.6214 12.6751C10.6975 12.7097 10.7793 12.7275 10.8619 12.7275C11.6 12.672 12.3381 12.6534 13.1791 12.6534Z" fill="#F7F2EC"/>
<path d="M16.7668 12.6536H22.208C22.3448 12.6715 22.4831 12.6715 22.6199 12.6536C22.7516 12.612 22.8671 12.5254 22.9494 12.4071C23.0316 12.2887 23.076 12.1448 23.076 11.997C23.076 11.8491 23.0316 11.7052 22.9494 11.5869C22.8671 11.4685 22.7516 11.3819 22.6199 11.3403C22.4831 11.3224 22.3448 11.3224 22.208 11.3403H15.754C15.6572 11.3427 15.561 11.3226 15.4721 11.2811C15.3832 11.2396 15.3037 11.1774 15.2391 11.0995L12.9219 8.60237H23.5983C23.7267 8.60067 23.854 8.62772 23.9722 8.68186C24.0904 8.736 24.1969 8.81589 24.2849 8.91672L26.6708 11.4884C27.0656 11.9324 27.0484 12.3392 26.6708 12.6907L21.7102 16.7049C21.5814 16.8004 21.4288 16.8517 21.2725 16.8517C21.1162 16.8517 20.9636 16.8004 20.8348 16.7049C20.4562 16.5145 20.113 16.2514 19.8221 15.9281L17.0757 12.9495C17.0757 12.9495 16.9727 12.7831 16.7668 12.6536Z" fill="#F7F2EC"/>
<path d="M5.72965 10.5816C5.98496 10.5779 6.23552 10.6563 6.44947 10.8065C6.66342 10.9567 6.83109 11.1721 6.93117 11.4252C7.03124 11.6784 7.0592 11.9579 7.01148 12.2283C6.96376 12.4986 6.84253 12.7478 6.66319 12.9437C6.48385 13.1396 6.25452 13.2734 6.00434 13.3285C5.75416 13.3835 5.49444 13.357 5.25821 13.2526C5.02198 13.1481 4.81989 12.9703 4.67766 12.7418C4.53543 12.5132 4.45948 12.2442 4.45946 11.969C4.45481 11.787 4.48437 11.6059 4.54633 11.4365C4.6083 11.2671 4.70141 11.1131 4.82006 10.9835C4.93871 10.8539 5.08045 10.7518 5.23676 10.6827C5.39307 10.6137 5.56073 10.579 5.72965 10.5816Z" fill="#F7F2EC"/>
</svg>
