<svg width="40" height="10" viewBox="0 0 40 10" fill="none" xmlns="http://www.w3.org/2000/svg">
<path d="M3.44602 9.13636L3.58097 6.1392L1.05256 7.76562L0.278409 6.41619L2.96307 5.04545L0.278409 3.67472L1.05256 2.32528L3.58097 3.9517L3.44602 0.954545H4.98722L4.85227 3.9517L7.38068 2.32528L8.15483 3.67472L5.47017 5.04545L8.15483 6.41619L7.38068 7.76562L4.85227 6.1392L4.98722 9.13636H3.44602ZM13.8757 9.13636L14.0107 6.1392L11.4822 7.76562L10.7081 6.41619L13.3928 5.04545L10.7081 3.67472L11.4822 2.32528L14.0107 3.9517L13.8757 0.954545H15.4169L15.282 3.9517L17.8104 2.32528L18.5845 3.67472L15.8999 5.04545L18.5845 6.41619L17.8104 7.76562L15.282 6.1392L15.4169 9.13636H13.8757ZM24.3054 9.13636L24.4403 6.1392L21.9119 7.76562L21.1378 6.41619L23.8224 5.04545L21.1378 3.67472L21.9119 2.32528L24.4403 3.9517L24.3054 0.954545H25.8466L25.7116 3.9517L28.2401 2.32528L29.0142 3.67472L26.3295 5.04545L29.0142 6.41619L28.2401 7.76562L25.7116 6.1392L25.8466 9.13636H24.3054ZM34.7351 9.13636L34.87 6.1392L32.3416 7.76562L31.5675 6.41619L34.2521 5.04545L31.5675 3.67472L32.3416 2.32528L34.87 3.9517L34.7351 0.954545H36.2763L36.1413 3.9517L38.6697 2.32528L39.4439 3.67472L36.7592 5.04545L39.4439 6.41619L38.6697 7.76562L36.1413 6.1392L36.2763 9.13636H34.7351Z" fill="#FAFCFC"/>
</svg>
