<svg width="19" height="27" viewBox="0 0 19 27" fill="none" xmlns="http://www.w3.org/2000/svg">
<path d="M12.4574 10.6303C11.8603 11.6171 11.0171 12.3948 9.95967 12.9767C9.81979 13.0539 9.75961 13.135 9.76117 13.3019C9.76742 13.9306 9.75101 14.5593 9.75257 15.188C9.75257 15.4267 9.67755 15.6171 9.50093 15.7816C9.25944 16.0071 9.03203 16.2465 8.78116 16.4962C9.03515 16.7497 9.2782 16.9915 9.52047 17.2341C9.87214 17.5874 9.84167 17.9829 9.44388 18.2855C9.23522 18.4447 9.03125 18.6108 8.80773 18.7871C9.04688 19.0765 9.26726 19.3565 9.50171 19.6241C9.84401 20.0156 9.84401 20.3175 9.4978 20.7145C9.26726 20.9782 9.04844 21.2512 8.80852 21.5398C9.00389 21.6966 9.18129 21.851 9.37198 21.9875C9.63926 22.1787 9.78931 22.4134 9.77055 22.7567C9.75179 23.0866 9.76508 23.4189 9.76664 23.7504C9.76821 23.9641 9.69631 24.1389 9.54079 24.2933C8.75147 25.0733 7.96762 25.8604 7.18142 26.6443C6.88289 26.9415 6.53981 26.9392 6.23814 26.6389C5.46602 25.8697 4.69858 25.0952 3.9202 24.3315C3.73108 24.1459 3.65605 23.9407 3.65605 23.6818C3.65918 20.7395 3.6584 17.798 3.6584 14.8558C3.6584 14.348 3.65292 13.8409 3.66152 13.3339C3.66387 13.2029 3.62401 13.1311 3.50835 13.0664C1.58506 11.9892 0.424527 10.3605 0.0853535 8.1912C-0.199114 6.37373 0.230713 4.70525 1.32638 3.21618C1.4186 3.09138 1.50535 2.96345 1.59444 2.83709L2.34234 2.0906C2.52209 1.96034 2.69949 1.82539 2.88314 1.69903C4.02336 0.913539 5.28862 0.508705 6.67266 0.500125C7.88087 0.493104 9.01952 0.782495 10.0613 1.4034C10.4129 1.61322 10.7427 1.86049 11.0827 2.0906C11.3312 2.33943 11.5805 2.58826 11.8298 2.83709C12.0439 3.15144 12.2792 3.45409 12.4706 3.78014C10.5513 3.78014 8.6319 3.78014 6.7133 3.78014C5.49806 3.78014 4.74469 4.52819 4.73843 5.74191C4.73453 6.72007 4.76188 7.699 4.7314 8.67716C4.69389 9.87294 5.63639 10.6615 6.70783 10.6428C8.62408 10.6093 10.5411 10.6249 12.4574 10.6296V10.6303Z" fill="#F7F2EC"/>
<path d="M12.4195 9.57079C10.8972 9.57079 9.37423 9.55231 7.85261 9.57871C7.12454 9.59125 6.48375 9.0553 6.50954 8.24214C6.53004 7.57748 6.51153 6.91217 6.51417 6.24685C6.51814 5.42181 7.02997 4.91358 7.85658 4.91358C10.9011 4.91292 13.9464 4.91292 16.9909 4.91358C17.8056 4.91358 18.3241 5.41917 18.3327 6.22969C18.3399 6.90887 18.3406 7.58805 18.3327 8.26722C18.3234 9.07312 17.8155 9.56947 17.0081 9.57013C15.4786 9.57145 13.949 9.57013 12.4201 9.57013L12.4195 9.57079ZM16.0254 6.94451C16.0565 6.72538 16.0975 6.56037 16.0975 6.3947C16.0975 6.29636 16.0598 6.16303 15.9897 6.11089C15.9263 6.06336 15.7669 6.06666 15.7041 6.11617C15.6353 6.17095 15.6009 6.30362 15.6016 6.40262C15.6016 6.56631 15.6426 6.72934 15.673 6.94187C15.5044 6.8092 15.382 6.69304 15.2405 6.61053C15.1545 6.56037 15.0229 6.52077 14.9396 6.55113C14.8656 6.57819 14.7763 6.71878 14.7902 6.79072C14.808 6.88511 14.9059 6.98675 14.9958 7.03956C15.1387 7.12338 15.3033 7.16892 15.5037 7.24879C15.2848 7.33459 15.1096 7.38805 14.9515 7.47188C14.8768 7.51148 14.7928 7.60719 14.7875 7.68243C14.7816 7.76163 14.847 7.89562 14.9118 7.91872C15.0044 7.95172 15.142 7.93522 15.2312 7.88704C15.3774 7.80916 15.5004 7.68771 15.6736 7.55372C15.6419 7.77219 15.6022 7.9306 15.6016 8.08901C15.6016 8.18868 15.6313 8.32134 15.6994 8.37811C15.7589 8.42761 15.9243 8.43223 15.9805 8.38405C16.0532 8.32266 16.0916 8.18868 16.0942 8.08505C16.0982 7.92532 16.0592 7.76493 16.0314 7.55306C16.208 7.69233 16.329 7.81114 16.4725 7.89166C16.5565 7.93852 16.6887 7.95832 16.7747 7.92532C16.8435 7.89892 16.9248 7.76559 16.9116 7.69761C16.8937 7.60785 16.8038 7.5095 16.7178 7.46066C16.569 7.37551 16.4004 7.32601 16.2013 7.24615C16.4077 7.1643 16.5809 7.11282 16.7357 7.02701C16.8157 6.98279 16.9129 6.87719 16.9109 6.80128C16.9083 6.71086 16.8263 6.59337 16.7449 6.54321C16.6874 6.50823 16.5584 6.54321 16.4864 6.58809C16.3396 6.67918 16.2099 6.79864 16.0248 6.94451H16.0254ZM9.16593 7.54382C9.34183 7.68375 9.45755 7.79992 9.59576 7.87648C9.68702 7.9273 9.81928 7.9537 9.91583 7.9273C9.98129 7.90882 10.0686 7.76691 10.0527 7.70355C10.0282 7.60719 9.93765 7.50686 9.84837 7.4534C9.70421 7.36825 9.53823 7.32007 9.34778 7.24285C9.55212 7.16298 9.72207 7.11282 9.8735 7.02965C9.95418 6.98543 10.0514 6.88313 10.0521 6.80656C10.0521 6.71482 9.97799 6.58809 9.89797 6.54255C9.83515 6.50625 9.70025 6.54651 9.62287 6.59403C9.47409 6.68512 9.34315 6.80524 9.16527 6.94451C9.20031 6.72208 9.24264 6.55773 9.2466 6.39206C9.24859 6.29966 9.21354 6.16501 9.14807 6.12409C9.0707 6.0759 8.92191 6.07194 8.84322 6.11749C8.77841 6.15445 8.74469 6.29174 8.74601 6.38414C8.74733 6.55377 8.78503 6.72274 8.81346 6.93857C8.6488 6.80986 8.53241 6.697 8.39553 6.61977C8.30229 6.56763 8.16937 6.52605 8.07613 6.55443C8.00537 6.57555 7.91544 6.72538 7.93131 6.79666C7.95247 6.89105 8.05364 6.98807 8.14556 7.04088C8.28708 7.12272 8.44976 7.1676 8.64483 7.24483C8.44711 7.32469 8.28047 7.37551 8.13168 7.45934C8.04571 7.50752 7.94387 7.60257 7.93263 7.68771C7.92205 7.76493 8.00603 7.9009 8.08142 7.93192C8.16342 7.96559 8.29766 7.93324 8.3823 7.8844C8.52316 7.80322 8.64351 7.68639 8.81412 7.55174C8.78503 7.77285 8.74601 7.9372 8.74799 8.10155C8.74932 8.19858 8.78899 8.32992 8.85909 8.38207C8.92191 8.42959 9.08062 8.42827 9.14146 8.37943C9.21023 8.32398 9.24594 8.19132 9.24528 8.09231C9.2433 7.9273 9.20097 7.76295 9.16659 7.54382H9.16593ZM12.0789 7.24681C11.8944 7.31875 11.7456 7.35901 11.616 7.43294C11.5175 7.48904 11.4004 7.5755 11.372 7.67187C11.3508 7.74381 11.4348 7.88374 11.5115 7.93984C11.6418 8.03621 11.7588 7.93324 11.8653 7.84876C11.9817 7.75569 12.1014 7.66593 12.2475 7.55372C12.2158 7.76823 12.1827 7.93984 12.1662 8.11211C12.1463 8.3187 12.2495 8.43619 12.4287 8.43289C12.5993 8.42959 12.6912 8.32002 12.674 8.11871C12.6595 7.94314 12.6291 7.76955 12.5993 7.5524C12.766 7.68309 12.8883 7.80058 13.0311 7.88242C13.1164 7.93192 13.2494 7.96558 13.332 7.93324C13.4048 7.9042 13.4848 7.76691 13.4742 7.68969C13.4623 7.60257 13.3664 7.50422 13.2818 7.45604C13.1336 7.37155 12.9657 7.32271 12.7739 7.24549C12.9829 7.16232 13.1541 7.10094 13.3195 7.02635C13.4868 6.95111 13.5364 6.796 13.4511 6.64749C13.3631 6.49371 13.2209 6.46532 13.0655 6.57951C12.9161 6.68908 12.7719 6.80524 12.5934 6.94319C12.6211 6.76762 12.6476 6.63825 12.6615 6.50691C12.676 6.365 12.7369 6.19471 12.5682 6.11221C12.4869 6.07194 12.354 6.06996 12.2733 6.10957C12.1067 6.19207 12.1616 6.35972 12.1801 6.50361C12.1973 6.63693 12.2197 6.7696 12.2469 6.94715C12.0729 6.8092 11.946 6.68644 11.7972 6.60063C11.7125 6.55179 11.5803 6.52869 11.493 6.55971C11.4275 6.58347 11.3541 6.71944 11.3667 6.79138C11.3826 6.88181 11.4665 6.98609 11.5499 7.03362C11.698 7.11876 11.8686 7.16562 12.0782 7.24747L12.0789 7.24681Z" fill="#F7F2EC"/>
<path d="M16.0248 6.94361C16.21 6.79774 16.3396 6.67894 16.4864 6.58719C16.5578 6.54231 16.6874 6.50733 16.745 6.54231C16.827 6.59247 16.909 6.70996 16.911 6.80038C16.9129 6.87563 16.8157 6.98123 16.7357 7.02612C16.581 7.11192 16.4077 7.1634 16.2014 7.24525C16.4004 7.32511 16.5691 7.37462 16.7179 7.45976C16.8032 7.5086 16.8938 7.60695 16.9116 7.69671C16.9248 7.7647 16.8435 7.89802 16.7747 7.92443C16.6888 7.95743 16.5565 7.93763 16.4725 7.89076C16.329 7.81024 16.208 7.69143 16.0315 7.55217C16.0592 7.76338 16.0982 7.92442 16.0943 8.08415C16.0916 8.18778 16.0533 8.32177 15.9805 8.38315C15.9237 8.43133 15.759 8.42671 15.6995 8.37721C15.6314 8.32045 15.6016 8.18778 15.6016 8.08811C15.6023 7.92971 15.642 7.7713 15.6737 7.55282C15.5004 7.68747 15.3774 7.80826 15.2313 7.88614C15.1414 7.93433 15.0045 7.95083 14.9119 7.91782C14.8464 7.89472 14.781 7.76074 14.7876 7.68153C14.7935 7.60563 14.8768 7.51058 14.9516 7.47098C15.1103 7.38716 15.2849 7.33369 15.5037 7.24789C15.3034 7.16802 15.1387 7.12248 14.9959 7.03866C14.9059 6.98585 14.8081 6.88421 14.7902 6.78982C14.7763 6.71722 14.8656 6.57663 14.9397 6.55023C15.0237 6.51987 15.1546 6.55947 15.2406 6.60963C15.3821 6.6928 15.5044 6.80897 15.673 6.94097C15.6426 6.72844 15.6023 6.56475 15.6016 6.40172C15.6016 6.30272 15.6353 6.17005 15.7041 6.11527C15.7669 6.06576 15.9263 6.06246 15.9898 6.10999C16.0599 6.16279 16.0976 6.29612 16.0976 6.3938C16.0976 6.55947 16.0566 6.72448 16.0255 6.94361H16.0248Z" fill="#2F4F4F"/>
<path d="M9.16535 7.54423C9.19907 7.76402 9.24206 7.92837 9.24404 8.09272C9.24536 8.19107 9.20965 8.32373 9.14022 8.37984C9.07938 8.42868 8.92133 8.43 8.85785 8.38248C8.78775 8.33033 8.74807 8.19899 8.74675 8.10196C8.74477 7.93761 8.78378 7.77326 8.81288 7.55215C8.64227 7.6868 8.52258 7.80429 8.38106 7.88481C8.29575 7.93365 8.16151 7.966 8.08018 7.93233C8.00479 7.90131 7.92081 7.76534 7.93139 7.68812C7.94263 7.60298 8.04447 7.50793 8.13043 7.45975C8.27922 7.37592 8.44653 7.3251 8.64359 7.24524C8.44851 7.16801 8.28584 7.12247 8.14432 7.04129C8.0524 6.98848 7.95056 6.89146 7.93006 6.79707C7.91419 6.72579 8.00413 6.57662 8.07488 6.55484C8.16746 6.52646 8.30105 6.56804 8.39429 6.62018C8.53117 6.69741 8.64756 6.81027 8.81222 6.93898C8.78378 6.72249 8.74609 6.55352 8.74477 6.38455C8.74411 6.29215 8.77783 6.15486 8.84198 6.1179C8.92067 6.07235 9.06946 6.07631 9.14683 6.1245C9.2123 6.16542 9.24735 6.30073 9.24536 6.39247C9.24139 6.55814 9.19907 6.72249 9.16402 6.94492C9.34191 6.80565 9.47284 6.68553 9.62163 6.59444C9.699 6.54692 9.83391 6.50732 9.89673 6.54296C9.97674 6.58916 10.0515 6.71589 10.0508 6.80697C10.0508 6.88354 9.95294 6.98584 9.87226 7.03006C9.72083 7.11323 9.55088 7.16273 9.34654 7.24326C9.53633 7.32048 9.70297 7.36866 9.84713 7.45381C9.93707 7.50661 10.027 7.6076 10.0515 7.70396C10.0673 7.76732 9.98071 7.90923 9.91458 7.92771C9.8187 7.95411 9.68578 7.92771 9.59452 7.87689C9.45631 7.80033 9.34059 7.68416 9.16468 7.54423H9.16535Z" fill="#2F4F4F"/>
<path d="M12.0787 7.24761C11.8684 7.16577 11.6984 7.1189 11.5503 7.03376C11.467 6.98624 11.383 6.88195 11.3671 6.79153C11.3546 6.71958 11.428 6.58361 11.4934 6.55985C11.5807 6.52883 11.713 6.55193 11.7976 6.60078C11.9464 6.68658 12.0734 6.81001 12.2473 6.94729C12.2202 6.76908 12.1977 6.63642 12.1805 6.50375C12.162 6.36052 12.1071 6.19221 12.2738 6.10971C12.3544 6.07011 12.4874 6.07209 12.5687 6.11235C12.7373 6.19551 12.6765 6.36514 12.6619 6.50705C12.6487 6.63774 12.6223 6.76776 12.5938 6.94333C12.7724 6.80539 12.9165 6.68922 13.066 6.57965C13.2214 6.46613 13.3636 6.49385 13.4515 6.64764C13.5362 6.79615 13.4872 6.95125 13.3199 7.0265C13.1546 7.10108 12.9833 7.16247 12.7744 7.24563C12.9661 7.32219 13.1341 7.3717 13.2822 7.45618C13.3675 7.50436 13.4628 7.60337 13.4747 7.68983C13.4852 7.76706 13.4052 7.90435 13.3325 7.93339C13.2498 7.96573 13.1169 7.93207 13.0316 7.88256C12.8888 7.80006 12.7664 7.68257 12.5998 7.55255C12.6289 7.7697 12.66 7.94329 12.6745 8.11886C12.691 8.32083 12.5991 8.42973 12.4292 8.43303C12.25 8.43633 12.1468 8.31819 12.1666 8.11226C12.1832 7.93933 12.2162 7.76838 12.248 7.55387C12.1018 7.66673 11.9821 7.75584 11.8657 7.8489C11.7593 7.93405 11.6422 8.03635 11.512 7.93999C11.4353 7.88322 11.3506 7.74396 11.3724 7.67201C11.4009 7.57565 11.5179 7.48918 11.6164 7.43308C11.7461 7.35916 11.8948 7.31889 12.0793 7.24695L12.0787 7.24761Z" fill="#2F4F4F"/>
</svg>
