<svg width="17" height="15" viewBox="0 0 17 15" fill="none" xmlns="http://www.w3.org/2000/svg">
<path d="M14.653 14.246H1.628C1.19639 14.2455 0.782609 14.0738 0.477415 13.7686C0.17222 13.4634 0.000529276 13.0496 1.78338e-08 12.618V1.734C-6.31362e-05 1.30704 0.167609 0.897135 0.466888 0.592618C0.766168 0.288101 1.1731 0.113343 1.6 0.106L11.12 0H11.151C11.7966 0.000528712 12.4156 0.257073 12.8722 0.713365C13.3289 1.16966 13.5859 1.78844 13.587 2.434L13.611 2.474V2.58H14.661C15.0926 2.58053 15.5064 2.75222 15.8116 3.05741C16.1168 3.36261 16.2885 3.77639 16.289 4.208V10.793L16.281 10.093V12.617C16.2807 13.0488 16.1092 13.4628 15.8039 13.7682C15.4987 14.0736 15.0848 14.2455 14.653 14.246ZM2.109 1.629C1.98143 1.629 1.85909 1.67968 1.76888 1.76988C1.67868 1.86009 1.628 1.98243 1.628 2.11V2.59H11.8C11.7995 2.33555 11.6982 2.09168 11.5182 1.91176C11.3383 1.73184 11.0944 1.63053 10.84 1.63L2.109 1.629Z" fill="#F6F2ED"/>
<path fill-rule="evenodd" clip-rule="evenodd" d="M4.88323 7.65333C5.29406 8.09171 5.78946 8.4442 6.3402 8.68999C6.89094 8.93579 7.48585 9.06991 8.08982 9.08444C8.69477 9.07058 9.29064 8.93588 9.84167 8.68843C10.3927 8.44097 10.8875 8.08587 11.2964 7.64444C11.6077 7.32577 11.8902 6.98075 12.1407 6.61333C12.2305 6.47111 12.3024 6.35556 12.3473 6.27556C12.3604 6.24503 12.3754 6.21534 12.3922 6.18667L12.4012 6.16889V6.16C12.3922 6.16 12.3922 6.16 13.2006 6.55111L14 6.94222H13.9731L13.9641 6.95111C13.953 6.96124 13.9438 6.97329 13.9371 6.98667C13.9192 7.01333 13.8922 7.05778 13.8563 7.11111C13.7934 7.21778 13.6946 7.36889 13.5778 7.54667C13.3141 7.92837 13.0229 8.29079 12.7066 8.63111L13.7844 9.69778L12.509 10.9511L11.3234 9.77778C10.5923 10.258 9.76504 10.5764 8.8982 10.7111V12H7.1018V10.7022C6.23497 10.5621 5.40825 10.2409 4.67665 9.76L3.49102 10.9244L2.21557 9.66222L3.29341 8.58667C2.97124 8.24814 2.6797 7.8823 2.42216 7.49333C2.32066 7.35069 2.22769 7.20229 2.14371 7.04889C2.10778 6.98963 2.08084 6.94519 2.06287 6.91556C2.05593 6.89962 2.04687 6.88467 2.03593 6.87111L2.02695 6.85333L2.01796 6.84444L2.00898 6.83556L2 6.82667C2.25315 6.66873 2.52081 6.5348 2.7994 6.42667L3.5988 6.02667L3.58982 6.01778L3.58084 6.00889C3.58982 6.01778 3.5988 6.05333 3.62575 6.08889C3.68776 6.20259 3.75675 6.31243 3.83234 6.41778C4.08041 6.78422 4.36312 7.1265 4.67665 7.44L4.88323 7.65333Z" fill="#372E26"/>
</svg>
