<svg xmlns="http://www.w3.org/2000/svg" width="16.289" height="14.245" viewBox="0 0 16.289 14.245">
  <g id="hide_wallet" data-name="hide wallet" transform="translate(-180 -732)">
    <path id="daily_wallet" data-name="daily wallet" d="M14.653,14.246H1.628A1.63,1.63,0,0,1,0,12.618V1.734A1.628,1.628,0,0,1,1.6.106L11.12,0h.031a2.438,2.438,0,0,1,2.436,2.434l.024.04v.106h1.05a1.63,1.63,0,0,1,1.628,1.628v6.585l-.008-.7v2.524A1.63,1.63,0,0,1,14.653,14.246ZM2.109,1.629a.481.481,0,0,0-.481.481v.48H11.8a.962.962,0,0,0-.96-.96Z" transform="translate(180 731.999)" fill="#F9F4F0"/>
    <path id="hide_folder" data-name="hide folder" d="M8.42,11.66a5.036,5.036,0,0,0,3.57,1.61,5,5,0,0,0,3.57-1.62,8.546,8.546,0,0,0,.94-1.16c.1-.16.18-.29.23-.38a.892.892,0,0,1,.05-.1l.01-.02V9.98c-.01,0-.01,0,.89.44l.89.44h-.03l-.01.01a.138.138,0,0,0-.03.04c-.02.03-.05.08-.09.14-.07.12-.18.29-.31.49a10.837,10.837,0,0,1-.97,1.22l1.2,1.2-1.42,1.41-1.32-1.32a6.787,6.787,0,0,1-2.7,1.05v1.45h-2V15.09a6.885,6.885,0,0,1-2.7-1.06L6.87,15.34,5.45,13.92l1.2-1.21a8.943,8.943,0,0,1-.97-1.23,5.03,5.03,0,0,1-.31-.5q-.06-.1-.09-.15a.219.219,0,0,0-.03-.05l-.01-.02-.01-.01-.01-.01-.01-.01a5.293,5.293,0,0,1,.89-.45l.89-.45-.01-.01-.01-.01L6.96,9.8h0l.01.01c.01.01.02.05.05.09a3.559,3.559,0,0,0,.23.37,7.831,7.831,0,0,0,.94,1.15Z" transform="translate(176.216 728.221)" fill="#91785d" fill-rule="evenodd"/>
  </g>
</svg>
