<svg xmlns="http://www.w3.org/2000/svg" width="12.627" height="15.433" viewBox="0 0 12.627 15.433">
  <g id="Group_46704" data-name="Group 46704" transform="translate(-32 -732.318)">
    <g id="Group_46706" data-name="Group 46706">
      <g id="Group_46702" data-name="Group 46702">
        <path id="external_harddisk" data-name="external harddisk" d="M3,3.1A2.1,2.1,0,0,1,5.1,1h8.418a2.106,2.106,0,0,1,2.1,2.1V14.329a2.111,2.111,0,0,1-2.1,2.1H5.1a2.106,2.106,0,0,1-2.1-2.1Z" transform="translate(29 731.318)" fill="#fdf7f0" fill-rule="evenodd"/>
        <path id="hide_folder" data-name="hide folder" d="M7.434,10.963a3.531,3.531,0,0,0,4.948-.006,5.492,5.492,0,0,0,.651-.727c.069-.1.125-.182.159-.238a.541.541,0,0,1,.035-.063l.007-.013V9.911c-.007,0-.007,0,.617.276l.617.276h-.021l-.007.006a.088.088,0,0,0-.021.025c-.014.019-.035.05-.062.088-.049.075-.125.182-.215.307a6.946,6.946,0,0,1-.672.764l.832.752-.984.883L12.4,12.46a5.006,5.006,0,0,1-1.871.658v.908H9.146v-.914a5.075,5.075,0,0,1-1.871-.664l-.915.821-.984-.889.832-.758a5.724,5.724,0,0,1-.672-.77,3.116,3.116,0,0,1-.215-.313q-.042-.066-.062-.094a.135.135,0,0,0-.021-.031L5.23,10.4l-.007-.006-.007-.006-.007-.006a3.81,3.81,0,0,1,.617-.282l.617-.282-.007-.006L6.429,9.8,6.422,9.8h0l.007.006c.007.006.014.031.035.056a2.2,2.2,0,0,0,.159.232,5.039,5.039,0,0,0,.651.72Z" transform="translate(28.792 730.239)" fill="#91785c" fill-rule="evenodd"/>
        <line id="Line_1220" data-name="Line 1220" y2="2" transform="translate(38.5 734.5)" fill="none" stroke="#91785c" stroke-width="1"/>
      </g>
      <line id="Line_1221" data-name="Line 1221" y2="2" transform="translate(40.5 734.5)" fill="none" stroke="#91785c" stroke-width="1"/>
      <line id="Line_1222" data-name="Line 1222" y2="2" transform="translate(42.5 734.5)" fill="none" stroke="#91785c" stroke-width="1"/>
    </g>
  </g>
</svg>
