<svg width="17" height="17" viewBox="0 0 17 17" fill="none" xmlns="http://www.w3.org/2000/svg">
<path d="M15.0363 13.8987C14.6559 12.7665 13.1397 12.0578 12.0587 11.5828C11.6352 11.3973 10.4628 11.0826 10.3218 10.5494C10.2714 10.3573 10.2782 10.1761 10.3196 10.0025C10.2538 10.0155 10.1869 10.0221 10.1199 10.0224H9.41555C9.14529 10.0221 8.88619 9.91455 8.6951 9.72343C8.50401 9.53231 8.39655 9.27319 8.3963 9.00293C8.3963 8.44136 8.85342 7.98481 9.41555 7.98481H10.1199C10.3526 7.98481 10.5733 8.06358 10.7512 8.20411C11.0044 8.17073 11.2543 8.11601 11.4982 8.04054C11.8063 7.3951 12.0466 6.6233 12.1004 5.95898C12.3303 3.11657 10.5878 1.45359 8.08936 1.74108C6.27281 1.95018 5.18764 3.30471 5.07034 5.04853C4.95172 6.82598 5.61076 8.13876 6.31078 9.10172C6.61735 9.52275 6.9394 9.79343 6.88991 10.3008C6.83249 10.9007 6.19102 11.0679 5.73221 11.2522C5.18859 11.4706 4.60303 11.8019 4.3265 11.9551C3.37393 12.4811 2.32843 13.1147 2.09345 13.9813C1.57306 15.9019 3.33049 16.4837 4.78134 16.7523C6.0265 16.982 7.43051 17.0001 8.58538 17.0001C10.6743 17.0001 14.4306 16.9164 15.0363 15.3462C15.2086 14.9006 15.1347 14.1906 15.0363 13.8987Z" fill="#272421"/>
<path d="M10.5658 8.71591C10.5175 8.64166 10.4515 8.58062 10.3738 8.5383C10.296 8.49598 10.2089 8.47373 10.1204 8.47357H9.41598C9.34512 8.47168 9.27459 8.484 9.20856 8.50982C9.14253 8.53563 9.08234 8.57441 9.03155 8.62387C8.98075 8.67333 8.94038 8.73246 8.91282 8.79777C8.88525 8.86309 8.87105 8.93326 8.87105 9.00416C8.87105 9.07505 8.88525 9.14523 8.91282 9.21055C8.94038 9.27586 8.98075 9.33499 9.03155 9.38445C9.08234 9.43391 9.14253 9.47269 9.20856 9.4985C9.27459 9.52432 9.34512 9.53664 9.41598 9.53475H10.1204C10.2173 9.53467 10.3123 9.50784 10.3949 9.45721C10.4775 9.40658 10.5445 9.33413 10.5886 9.24783C11.5706 9.17057 12.4248 8.87062 13.0243 8.42767C13.162 8.51645 13.3249 8.56839 13.5005 8.56839H13.5447C13.6611 8.56842 13.7763 8.5455 13.8838 8.50095C13.9914 8.4564 14.089 8.39109 14.1713 8.30875C14.2535 8.22642 14.3187 8.12868 14.3632 8.02113C14.4076 7.91357 14.4304 7.79831 14.4302 7.68193V5.91242C14.4303 5.74529 14.3829 5.58158 14.2935 5.44034C14.2042 5.29909 14.0766 5.18612 13.9255 5.11455C13.7956 2.27309 11.4433 0 8.56995 0C5.69657 0 3.34395 2.27309 3.21456 5.11455C3.06342 5.18601 2.93569 5.29895 2.84626 5.44021C2.75684 5.58147 2.7094 5.74523 2.70947 5.91242V7.68193C2.70932 7.79824 2.7321 7.91344 2.77648 8.02095C2.82087 8.12846 2.88601 8.22616 2.96818 8.30849C3.05034 8.39081 3.14792 8.45613 3.25534 8.50073C3.36276 8.54533 3.47792 8.56832 3.59423 8.56839H3.639C3.75535 8.56837 3.87055 8.54541 3.97803 8.50084C4.0855 8.45627 4.18314 8.39096 4.26536 8.30863C4.34758 8.22631 4.41277 8.12858 4.4572 8.02105C4.50164 7.91352 4.52444 7.79829 4.52432 7.68193V5.91242C4.52423 5.74762 4.47805 5.58614 4.391 5.44621C4.30395 5.30629 4.17949 5.1935 4.0317 5.1206C4.15806 2.72643 6.1448 0.818079 8.56995 0.818079C10.9942 0.818079 12.9818 2.72643 13.1076 5.1206C12.96 5.19363 12.8357 5.30647 12.7487 5.44637C12.6618 5.58628 12.6157 5.7477 12.6156 5.91242V7.68193C12.6156 7.79942 12.6384 7.90879 12.6787 8.01098C12.1626 8.38026 11.4114 8.64338 10.5658 8.71591Z" fill="#272421"/>
</svg>
