<svg width="13" height="16" viewBox="0 0 13 16" fill="none" xmlns="http://www.w3.org/2000/svg">
<path d="M12.2695 13.0792C11.9114 12.0135 10.4844 11.3464 9.46697 10.8992C9.0684 10.7246 7.96493 10.4284 7.83231 9.92653C7.78484 9.74572 7.79124 9.57521 7.83017 9.41182C7.76827 9.42399 7.70535 9.43024 7.64226 9.43049H6.97933C6.72496 9.43021 6.4811 9.32901 6.30125 9.14912C6.12141 8.96923 6.02027 8.72532 6.02004 8.47094C6.02004 7.94236 6.45026 7.51263 6.97933 7.51263H7.64226C7.86128 7.51263 8.06893 7.58677 8.23639 7.71905C8.47468 7.68763 8.70989 7.63612 8.93951 7.56508C9.22946 6.95756 9.4556 6.2311 9.50626 5.6058C9.72262 2.93037 8.08262 1.36508 5.73115 1.63568C4.02146 1.8325 3.00012 3.10745 2.88972 4.74884C2.77807 6.42187 3.39834 7.65754 4.05719 8.56393C4.34572 8.96023 4.64883 9.215 4.60226 9.69256C4.54821 10.2572 3.94448 10.4146 3.51265 10.5881C3.00101 10.7936 2.4499 11.1055 2.18963 11.2497C1.29309 11.7448 0.309094 12.3411 0.0879378 13.1569C-0.401841 14.9647 1.25221 15.5123 2.61772 15.7651C3.78963 15.9813 5.11106 15.9983 6.19799 15.9983C8.16404 15.9983 11.6993 15.9196 12.2695 14.4416C12.4316 14.0222 12.3621 13.3539 12.2695 13.0792Z" fill="#2F4F4F"/>
<path d="M8.06154 8.20391C8.01614 8.13402 7.95404 8.07656 7.88084 8.03673C7.80764 7.9969 7.72567 7.97596 7.64233 7.9758H6.9794C6.9127 7.97402 6.84632 7.98562 6.78418 8.00992C6.72203 8.03422 6.66538 8.07072 6.61758 8.11727C6.56977 8.16383 6.53177 8.21948 6.50583 8.28096C6.47989 8.34244 6.46652 8.40849 6.46652 8.47522C6.46652 8.54195 6.47989 8.60801 6.50583 8.66949C6.53177 8.73097 6.56977 8.78662 6.61758 8.83317C6.66538 8.87973 6.72203 8.91623 6.78418 8.94053C6.84632 8.96482 6.9127 8.97643 6.9794 8.97465H7.64233C7.73354 8.97457 7.82295 8.94932 7.90071 8.90166C7.97847 8.85401 8.04157 8.78581 8.08305 8.70458C9.00731 8.63186 9.81123 8.34952 10.3755 7.9326C10.5051 8.01616 10.6583 8.06505 10.8237 8.06505H10.8653C10.9748 8.06508 11.0833 8.04351 11.1844 8.00157C11.2856 7.95964 11.3776 7.89816 11.455 7.82067C11.5324 7.74317 11.5937 7.65117 11.6356 7.54994C11.6774 7.4487 11.6988 7.34021 11.6987 7.23067V5.5651C11.6987 5.40779 11.6541 5.2537 11.57 5.12075C11.4859 4.98781 11.3658 4.88147 11.2237 4.81411C11.1014 2.13956 8.88749 0 6.18313 0C3.47877 0 1.26455 2.13956 1.14277 4.81411C1.00051 4.88137 0.880299 4.98767 0.796134 5.12063C0.71197 5.25359 0.667321 5.40774 0.66739 5.5651V7.23067C0.667249 7.34015 0.688681 7.44858 0.730459 7.54977C0.772237 7.65096 0.833544 7.74293 0.910876 7.82042C0.988207 7.8979 1.08005 7.95939 1.18115 8.00137C1.28225 8.04334 1.39063 8.06499 1.5001 8.06505H1.54224C1.65174 8.06503 1.76017 8.04343 1.86132 8.00147C1.96248 7.95952 2.05437 7.89804 2.13175 7.82055C2.20914 7.74306 2.27049 7.65108 2.31231 7.54987C2.35413 7.44865 2.3756 7.34019 2.37548 7.23067V5.5651C2.3754 5.40999 2.33194 5.25799 2.25 5.12628C2.16807 4.99458 2.05094 4.88842 1.91184 4.8198C2.03077 2.56627 3.90064 0.770022 6.18313 0.770022C8.46474 0.770022 10.3355 2.56627 10.4539 4.8198C10.3149 4.88854 10.1979 4.99475 10.1161 5.12643C10.0343 5.25812 9.99088 5.41006 9.99078 5.5651V7.23067C9.99078 7.34126 10.0123 7.4442 10.0502 7.54039C9.56447 7.88797 8.85745 8.13564 8.06154 8.20391Z" fill="#2F4F4F"/>
</svg>
