<svg width="20" height="19" viewBox="0 0 20 19" fill="none" xmlns="http://www.w3.org/2000/svg">
<path d="M11.7315 7.53049C11.7315 7.68974 11.1662 8.23735 9.76925 8.66203C8.81268 8.95777 7.81818 9.11275 6.81698 9.1221H6.30383C2.99767 9.1221 1 7.97286 1 7.51372C1 7.05459 2.96321 5.88672 6.30476 5.88672H7.64865C8.95825 5.94709 10.2304 6.34282 11.3432 7.03596C11.4939 7.18296 11.6244 7.34924 11.7315 7.53049Z" fill="white" stroke="white" stroke-width="1.5"/>
<path d="M10.5113 11.2081C10.9272 11.0807 11.3347 10.927 11.7313 10.748V11.7557C11.7313 11.9327 11.1129 12.5511 9.4859 12.9934C8.45661 13.2486 7.3994 13.3737 6.33899 13.366C3.35133 13.366 1.42445 12.4822 1.03516 11.8461V10.803C2.71596 11.4985 4.52006 11.847 6.33899 11.8274H6.97507C8.17554 11.7739 9.36408 11.5658 10.5113 11.2081Z" fill="white" stroke="white" stroke-width="1.5"/>
<path d="M10.123 15.5555C10.6731 15.4096 11.2109 15.2206 11.7313 14.9902V16.1572C11.7313 16.5297 9.96184 17.7655 6.33903 17.7655C2.71622 17.7655 1.03613 16.5278 1.03613 16.1572V14.9902C2.71576 15.6897 4.52067 16.0383 6.33996 16.0147C7.61506 16.0179 8.88567 15.8637 10.123 15.5555Z" fill="white" stroke="white" stroke-width="1.5"/>
<path d="M19.0005 3.19896C19.0005 3.62363 17.0382 4.82503 13.6967 4.82503H12.635C11.3453 4.05971 9.90245 3.58873 8.4096 3.44575C8.35704 3.42462 8.31032 3.39117 8.27337 3.34822C8.23642 3.30527 8.21032 3.25408 8.19727 3.19896C8.28574 2.73889 10.2657 1.59058 13.5896 1.59058C16.9134 1.59058 18.9074 2.73982 19.0005 3.19896Z" fill="white" stroke="white" stroke-width="1.5"/>
<path d="M14.3486 7.44213C15.9457 7.39843 17.5214 7.06291 18.9978 6.45215V7.44213C18.9978 7.86681 17.2283 8.8745 14.3486 9.01512V7.44213Z" fill="white" stroke="white" stroke-width="1.5"/>
<path d="M14.3486 11.6672C15.946 11.6255 17.522 11.2899 18.9978 10.6772V11.8442C18.9978 12.1981 17.4248 13.2765 14.3486 13.4172V11.6672Z" fill="white" stroke="white" stroke-width="1.5"/>
</svg>
