<svg width="24" height="25" viewBox="0 0 24 25" fill="none" xmlns="http://www.w3.org/2000/svg">
<path d="M13.7315 10.5304C13.7315 10.6896 13.1662 11.2372 11.7692 11.6619C10.8127 11.9576 9.81818 12.1126 8.81698 12.122H8.30383C4.99767 12.122 3 10.9727 3 10.5136C3 10.0545 4.96321 8.8866 8.30476 8.8866H9.64865C10.9583 8.94697 12.2304 9.34269 13.3432 10.0358C13.4939 10.1828 13.6244 10.3491 13.7315 10.5304Z" fill="#3E524D" stroke="#3E524D" stroke-width="1.5"/>
<path d="M12.5113 14.2081C12.9272 14.0807 13.3347 13.927 13.7313 13.748V14.7557C13.7313 14.9327 13.1129 15.5511 11.4859 15.9934C10.4566 16.2486 9.3994 16.3737 8.33899 16.366C5.35133 16.366 3.42445 15.4822 3.03516 14.8461V13.803C4.71596 14.4985 6.52006 14.847 8.33899 14.8274H8.97507C10.1755 14.7739 11.3641 14.5658 12.5113 14.2081Z" fill="#3E524D" stroke="#3E524D" stroke-width="1.5"/>
<path d="M12.123 18.5557C12.6731 18.4098 13.2109 18.2207 13.7313 17.9904V19.1573C13.7313 19.5298 11.9618 20.7657 8.33903 20.7657C4.71622 20.7657 3.03613 19.528 3.03613 19.1573V17.9904C4.71576 18.6898 6.52067 19.0384 8.33996 19.0148C9.61506 19.0181 10.8857 18.8639 12.123 18.5557Z" fill="#3E524D" stroke="#3E524D" stroke-width="1.5"/>
<path d="M21.0005 6.19896C21.0005 6.62363 19.0382 7.82503 15.6967 7.82503H14.635C13.3453 7.05971 11.9024 6.58873 10.4096 6.44575C10.357 6.42462 10.3103 6.39117 10.2734 6.34822C10.2364 6.30527 10.2103 6.25408 10.1973 6.19896C10.2857 5.73889 12.2657 4.59058 15.5896 4.59058C18.9134 4.59058 20.9074 5.73982 21.0005 6.19896Z" fill="#3E524D" stroke="#3E524D" stroke-width="1.5"/>
<path d="M16.3486 10.4423C17.9457 10.3986 19.5214 10.063 20.9978 9.45227V10.4423C20.9978 10.8669 19.2283 11.8746 16.3486 12.0152V10.4423Z" fill="#3E524D" stroke="#3E524D" stroke-width="1.5"/>
<path d="M16.3486 14.6674C17.946 14.6256 19.522 14.29 20.9978 13.6774V14.8443C20.9978 15.1982 19.4248 16.2767 16.3486 16.4173V14.6674Z" fill="#3E524D" stroke="#3E524D" stroke-width="1.5"/>
</svg>
