<svg width="30" height="30" viewBox="0 0 30 30" fill="none" xmlns="http://www.w3.org/2000/svg">
<circle cx="15" cy="15" r="15" fill="#D4D4D4" fill-opacity="0.2"/>
<circle cx="15" cy="15" r="14.5" stroke="#D4D4D4" stroke-opacity="0.2"/>
<path d="M16.7315 12.9398C16.7315 13.099 16.1662 13.6467 14.7692 14.0713C13.8127 14.3671 12.8182 14.522 11.817 14.5314H11.3038C7.99767 14.5314 6 13.3822 6 12.923C6 12.4639 7.96321 11.296 11.3048 11.296H12.6486C13.9583 11.3564 15.2304 11.7521 16.3432 12.4453C16.4939 12.5923 16.6244 12.7585 16.7315 12.9398Z" fill="#F7F2EC" stroke="#F7F2EC" stroke-width="1.5"/>
<path d="M15.5113 16.6175C15.9272 16.4901 16.3347 16.3364 16.7313 16.1575V17.1652C16.7313 17.3421 16.1129 17.9605 14.4859 18.4029C13.4566 18.658 12.3994 18.7832 11.339 18.7754C8.35133 18.7754 6.42445 17.8916 6.03516 17.2555V16.2124C7.71596 16.908 9.52006 17.2564 11.339 17.2369H11.9751C13.1755 17.1834 14.3641 16.9752 15.5113 16.6175Z" fill="#F7F2EC" stroke="#F7F2EC" stroke-width="1.5"/>
<path d="M15.123 20.9651C15.6731 20.8192 16.2109 20.6302 16.7313 20.3998V21.5667C16.7313 21.9392 14.9618 23.1751 11.339 23.1751C7.71622 23.1751 6.03613 21.9374 6.03613 21.5667V20.3998C7.71576 21.0992 9.52067 21.4479 11.34 21.4242C12.6151 21.4275 13.8857 21.2733 15.123 20.9651Z" fill="#F7F2EC" stroke="#F7F2EC" stroke-width="1.5"/>
<path d="M24.0005 8.60838C24.0005 9.03306 22.0382 10.2345 18.6967 10.2345H17.635C16.3453 9.46913 14.9024 8.99816 13.4096 8.85518C13.357 8.83404 13.3103 8.80059 13.2734 8.75764C13.2364 8.7147 13.2103 8.66351 13.1973 8.60838C13.2857 8.14831 15.2657 7 18.5896 7C21.9134 7 23.9074 8.14924 24.0005 8.60838Z" fill="#F7F2EC" stroke="#F7F2EC" stroke-width="1.5"/>
<path d="M19.3486 12.8517C20.9457 12.808 22.5214 12.4725 23.9978 11.8617V12.8517C23.9978 13.2764 22.2283 14.284 19.3486 14.4247V12.8517Z" fill="#F7F2EC" stroke="#F7F2EC" stroke-width="1.5"/>
<path d="M19.3486 17.0768C20.946 17.035 22.522 16.6994 23.9978 16.0868V17.2537C23.9978 17.6076 22.4248 18.6861 19.3486 18.8267V17.0768Z" fill="#F7F2EC" stroke="#F7F2EC" stroke-width="1.5"/>
</svg>
