<svg width="13" height="24" viewBox="0 0 13 24" fill="none" xmlns="http://www.w3.org/2000/svg">
<path d="M11.9871 8.26001C11.476 9.62825 10.5565 10.6514 9.2977 11.3572C9.17272 11.4275 9.11896 11.5013 9.12036 11.6533C9.12595 12.2256 9.11128 12.7979 9.11268 13.3702C9.11268 13.5874 9.04566 13.7607 8.88787 13.9105C8.67213 14.1157 8.46897 14.3337 8.24485 14.5609C8.47176 14.7917 8.68889 15.0118 8.90532 15.2326C9.2195 15.5542 9.19227 15.9142 8.8369 16.1897C8.65049 16.3346 8.46827 16.4858 8.26859 16.6463C8.48223 16.9097 8.67912 17.1646 8.88857 17.4082C9.19437 17.7646 9.19437 18.0394 8.88508 18.4008C8.67912 18.6408 8.48363 18.8893 8.26929 19.152C8.44383 19.2947 8.60232 19.4353 8.77267 19.5596C9.01145 19.7335 9.14549 19.9473 9.12874 20.2597C9.11198 20.56 9.12385 20.8625 9.12525 21.1643C9.12664 21.3588 9.06241 21.5179 8.92348 21.6585C8.21832 22.3685 7.51805 23.0849 6.81569 23.7985C6.54899 24.069 6.24249 24.0669 5.973 23.7935C5.2832 23.0934 4.59759 22.3884 3.90221 21.6932C3.73326 21.5243 3.66623 21.3375 3.66623 21.1018C3.66902 18.4235 3.66833 15.746 3.66833 13.0677C3.66833 12.6054 3.66344 12.1439 3.67112 11.6824C3.67321 11.5631 3.63761 11.4978 3.53428 11.4389C1.81607 10.4583 0.779284 8.97573 0.476277 7.00111C0.222141 5.34671 0.606137 3.82794 1.58498 2.47247C1.66736 2.35887 1.74486 2.24242 1.82445 2.12739C2.04717 1.90089 2.26988 1.67439 2.4926 1.44788C2.65318 1.32931 2.81167 1.20647 2.97574 1.09144C3.99437 0.376435 5.12471 0.0079239 6.36118 0.00011346C7.44056 -0.0062769 8.45779 0.257148 9.38846 0.82234C9.70264 1.01334 9.99727 1.23842 10.301 1.44788C10.523 1.67439 10.7457 1.90089 10.9684 2.12739C11.1744 2.43626 11.4027 2.73235 11.5814 3.05612C12.5044 4.72472 12.6573 6.46716 11.9871 8.26001Z" fill="#2D6759"/>
<circle cx="6.80015" cy="6.4" r="2.4" fill="#FDF7F0"/>
</svg>
