<svg width="38" height="38" viewBox="0 0 38 38" fill="none" xmlns="http://www.w3.org/2000/svg">
<rect width="38" height="38" rx="19" fill="#91785D"/>
<g clip-path="url(#clip0_188_1060)">
<path d="M9.50069 17.4616C9.92765 17.4621 10.3559 17.4637 10.785 17.4652C11.8373 17.469 12.8942 17.4728 13.9472 17.4614L13.9576 17.4613L13.968 17.4607C14.1456 17.4514 14.323 17.4791 14.4886 17.5419C14.6541 17.6046 14.8037 17.7008 14.9279 17.8237C15.0521 17.9466 15.148 18.0934 15.2099 18.2542C15.2717 18.4151 15.2983 18.5867 15.288 18.7579L15.2878 18.7614C15.2684 19.1284 15.275 19.5114 15.2813 19.8727C15.2843 20.0434 15.2871 20.2092 15.2871 20.3662L15.2872 20.3699C15.2883 20.5207 15.2592 20.6705 15.2014 20.8107C15.1436 20.9509 15.0581 21.0791 14.9493 21.1877C14.8405 21.2963 14.7107 21.3831 14.5669 21.4429C14.4232 21.5027 14.2686 21.5342 14.112 21.5353L14.1114 21.5353C13.0089 21.5444 11.9078 21.5414 10.8038 21.5383C10.3719 21.5371 9.93943 21.5359 9.50628 21.5355L9.50069 17.4616Z" fill="#FDF7F0" stroke="#91785D"/>
<path d="M29 15.7096V26.0453C28.9986 26.5629 28.7891 27.0588 28.4172 27.4248C28.0454 27.7907 27.5415 27.9969 27.0156 27.9983H19.7489C19.6064 27.9983 19.3093 27.9983 19.0816 27.9983H17.2641C15.8879 27.9983 14.5117 27.9983 13.1355 27.9983C12.7078 28.0033 12.2833 27.9247 11.8866 27.7673C11.4898 27.6098 11.1288 27.3766 10.8242 27.081C10.5196 26.7854 10.2776 26.4333 10.1121 26.0451C9.94664 25.6568 9.86099 25.2402 9.8601 24.8192C9.84968 24.2583 9.8601 23.6991 9.8601 23.1382C9.8601 23.0715 9.86009 23.0048 9.87226 22.9159H10.1086C10.9896 22.9159 11.8723 22.9159 12.7532 22.9159C12.8314 22.9159 15.1407 22.88 15.8219 22.2643C16.0782 22.0472 16.2863 21.7804 16.4331 21.4806C16.5799 21.1808 16.6622 20.8544 16.675 20.5218C16.711 19.8049 16.7052 19.0867 16.6577 18.3705C16.6005 17.7543 16.3132 17.1809 15.8514 16.7611C15.3895 16.3413 14.7859 16.1049 14.1572 16.0978C12.8245 16.0824 11.4917 16.0978 10.1607 16.0978H9.87574C9.87574 16.014 9.86183 15.949 9.86183 15.884C9.86183 15.3163 9.86183 14.7485 9.86183 14.1739C9.86685 13.3368 10.207 12.5355 10.8084 11.9435C11.4098 11.3516 12.2241 11.0169 13.0747 11.012C17.3099 11.0051 21.545 11.0051 25.7802 11.012C26.6308 11.0124 27.4468 11.3438 28.0503 11.9338C28.6538 12.5239 28.9958 13.3248 29.0017 14.1619C29.0017 14.6733 29 15.1966 29 15.7096Z" fill="#FDF7F0"/>
<path d="M19.749 28.0001H17.2868C17.2794 28.0026 17.2715 28.0026 17.2642 28.0001H19.073C19.3006 27.9933 19.5978 28.0001 19.749 28.0001Z" fill="white"/>
</g>
<defs>
<clipPath id="clip0_188_1060">
<rect width="20" height="17" fill="white" transform="translate(9 11)"/>
</clipPath>
</defs>
</svg>
