<svg xmlns="http://www.w3.org/2000/svg" width="46" height="46" viewBox="0 0 46 46">
  <g id="hodler" transform="translate(1125 1778)">
    <g id="Rectangle_7984" data-name="Rectangle 7984" transform="translate(-1125 -1778)" fill="#015a53" stroke="#fff" stroke-width="0.4">
      <rect width="46" height="46" rx="23" stroke="none"/>
      <rect x="0.2" y="0.2" width="45.6" height="45.6" rx="22.8" fill="none"/>
    </g>
    <g id="Coins" transform="translate(-1119.49 -1770.911)">
      <path id="Path_27542" data-name="Path 27542" d="M19.523,11.779c0,.187-.664.83-2.3,1.328a12.113,12.113,0,0,1-3.465.539h-.6c-3.88,0-6.224-1.349-6.224-1.888s2.3-1.909,6.224-1.909h1.577A8.983,8.983,0,0,1,19.067,11.2,2.8,2.8,0,0,1,19.523,11.779Z" transform="translate(0 2.611)" fill="#fff" stroke="#f7f7f7" stroke-width="1.5"/>
      <path id="Path_27543" data-name="Path 27543" d="M18.07,13.139A12.1,12.1,0,0,0,19.5,12.6v1.183c0,.207-.726.934-2.635,1.452a14.9,14.9,0,0,1-3.693.436c-3.506,0-5.768-1.037-6.224-1.784V12.662a15.832,15.832,0,0,0,6.224,1.2h.747A16.393,16.393,0,0,0,18.07,13.139Z" transform="translate(0.022 5.567)" fill="#fff" stroke="#f7f7f7" stroke-width="1.5"/>
      <path id="Path_27544" data-name="Path 27544" d="M17.614,15.664A12.72,12.72,0,0,0,19.5,15v1.369c0,.436-2.075,1.888-6.328,1.888S6.95,16.8,6.95,16.369V15a15.661,15.661,0,0,0,6.224,1.2A18.175,18.175,0,0,0,17.614,15.664Z" transform="translate(0.022 8.146)" fill="#fff" stroke="#f7f7f7" stroke-width="1.5"/>
      <path id="Path_27545" data-name="Path 27545" d="M23.676,9.308c0,.5-2.3,1.909-6.224,1.909H16.207A11.95,11.95,0,0,0,11.249,9.6.415.415,0,0,1,11,9.308c.1-.539,2.427-1.888,6.328-1.888S23.572,8.769,23.676,9.308Z" transform="translate(4.374 0)" fill="#fff" stroke="#f7f7f7" stroke-width="1.5"/>
      <path id="Path_27546" data-name="Path 27546" d="M14.48,11.332a15.373,15.373,0,0,0,5.456-1.162v1.162c0,.5-2.075,1.68-5.456,1.846Z" transform="translate(8.114 2.955)" fill="#fff" stroke="#f7f7f7" stroke-width="1.5"/>
      <path id="Path_27547" data-name="Path 27547" d="M14.48,13.722a15.27,15.27,0,0,0,5.456-1.162v1.369c0,.415-1.846,1.68-5.456,1.846Z" transform="translate(8.114 5.524)" fill="#fff" stroke="#f7f7f7" stroke-width="1.5"/>
    </g>
  </g>
</svg>
