<svg xmlns="http://www.w3.org/2000/svg" width="40" height="40" viewBox="0 0 40 40">
  <g id="hodler" transform="translate(1125 1778)">
    <g id="Rectangle_7984" data-name="Rectangle 7984" transform="translate(-1125 -1778)" fill="#5c5c5c" stroke="#fff" stroke-width="0.4">
      <rect width="40" height="40" rx="20" stroke="none"/>
      <rect x="0.2" y="0.2" width="39.6" height="39.6" rx="19.8" fill="none"/>
    </g>
    <g id="Coins" transform="translate(-1121.592 -1774.104)">
      <path id="Path_27542" data-name="Path 27542" d="M18.452,11.615c0,.171-.607.759-2.107,1.215a11.083,11.083,0,0,1-3.17.494h-.551c-3.55,0-5.695-1.234-5.695-1.727S9.037,9.85,12.625,9.85h1.443a8.219,8.219,0,0,1,3.967,1.234A2.563,2.563,0,0,1,18.452,11.615Z" transform="translate(0 2.183)" fill="#fff" stroke="#f7f7f7" stroke-width="1.5"/>
      <path id="Path_27543" data-name="Path 27543" d="M17.124,13.094a11.07,11.07,0,0,0,1.31-.494v1.082c0,.19-.664.854-2.411,1.329a13.628,13.628,0,0,1-3.379.4c-3.208,0-5.277-.949-5.695-1.632v-1.12a14.486,14.486,0,0,0,5.695,1.1h.683A15,15,0,0,0,17.124,13.094Z" transform="translate(0.018 4.653)" fill="#fff" stroke="#f7f7f7" stroke-width="1.5"/>
      <path id="Path_27544" data-name="Path 27544" d="M16.707,15.607A11.638,11.638,0,0,0,18.434,15v1.253c0,.4-1.9,1.727-5.79,1.727S6.95,16.651,6.95,16.253V15a14.33,14.33,0,0,0,5.695,1.1A16.63,16.63,0,0,0,16.707,15.607Z" transform="translate(0.018 6.808)" fill="#fff" stroke="#f7f7f7" stroke-width="1.5"/>
      <path id="Path_27545" data-name="Path 27545" d="M22.6,9.147c0,.456-2.107,1.746-5.695,1.746H15.765a10.933,10.933,0,0,0-4.537-1.481A.38.38,0,0,1,11,9.147c.095-.494,2.221-1.727,5.79-1.727S22.5,8.654,22.6,9.147Z" transform="translate(3.656 0)" fill="#fff" stroke="#f7f7f7" stroke-width="1.5"/>
      <path id="Path_27546" data-name="Path 27546" d="M14.48,11.233a14.065,14.065,0,0,0,4.992-1.063v1.063c0,.456-1.9,1.538-4.992,1.689Z" transform="translate(6.782 2.47)" fill="#fff" stroke="#f7f7f7" stroke-width="1.5"/>
      <path id="Path_27547" data-name="Path 27547" d="M14.48,13.623a13.972,13.972,0,0,0,4.992-1.063v1.253c0,.38-1.689,1.538-4.992,1.689Z" transform="translate(6.782 4.617)" fill="#fff" stroke="#f7f7f7" stroke-width="1.5"/>
    </g>
  </g>
</svg>
