<?xml version="1.0" standalone="yes"?>
<svg xmlns="http://www.w3.org/2000/svg" width="100" height="100">
<path style="fill:#010202; stroke:none;" d="M0 0L0 57L1 57C2.88708 50.191 7.33537 48.0375 11.4907 42.8295C18.914 33.5258 21.7646 27.5428 35 30C45.4791 15.1335 65.7218 11.5795 78.3194 26.1736C82.8893 31.4677 82.4416 38.3093 86.0239 43.5054C90.1727 49.5231 96.6563 51.1093 99 59L100 59L100 0L0 0z"/>
<path style="fill:#74b5f5; stroke:none;" d="M35 30L32 29C31.8213 33.1733 33.0912 40.1355 31.7353 43.8302C26.7291 57.4723 18.0434 66.2725 18 82L28.5664 80.9722L38.1049 61.5185L66 47L62 56L76 51L77 44L72 45L70 36L67 35C67.5192 29.7499 65.9358 23.5758 61 21C60.3827 8.14604 37.6294 24.3653 35 30z"/>
<path style="fill:#519ff2; stroke:none;" d="M60 16L61 17L60 16M61 17L61 21C65.2621 24.3185 67.2918 29.6284 67 35L70 36L72 45L77 44L76 51L62 56L66 47C56.3951 52.3113 42.8861 54.103 35.6489 63.1844C31.3928 68.5251 31.2553 75.8138 29 82L72 82C77.7123 82 85.2104 82.9965 89.686 78.581C93.9983 74.3266 96.4994 56.4673 93.9329 51.0154C92.0385 46.9915 87.2486 46.2517 85.0239 42.7261C77.8764 31.3989 78.224 18.5152 61 17z"/>
<path style="fill:#4476d1; stroke:none;" d="M65 17L66 18L65 17M68 18L69 19L68 18M70 19L71 20L70 19M71 20L72 21L71 20M73 21L74 22L73 21M74 22L75 23L74 22M75 23L76 24L75 23M77.3333 24.6667L77.6667 25.3333L77.3333 24.6667M78 26L79 27L78 26M79 27L80 28L79 27M80.3333 28.6667L80.6667 29.3333L80.3333 28.6667z"/>
<path style="fill:#74b5f5; stroke:none;" d="M23 29L24 30L23 29z"/>
<path style="fill:#94d4f6; stroke:none;" d="M18 82C18.13 66.2921 27.8954 57.5122 32.2191 43.8302C33.449 39.9385 31.9148 33.2881 32 29C7.98146 29.0663 -16.9001 75.7789 18 82z"/>
<path style="fill:#4476d1; stroke:none;" d="M81.3333 30.6667L81.6667 31.3333L81.3333 30.6667M82.3333 32.6667L82.6667 33.3333L82.3333 32.6667M83 34L83 37L84 37L83 34z"/>
<path style="fill:#74b5f5; stroke:none;" d="M14 36L15 37L14 36z"/>
<path style="fill:#4476d1; stroke:none;" d="M84 37L84 44L85 44L84 37z"/>
<path style="fill:#94d4f6; stroke:none;" d="M32 38L33 39L32 38z"/>
<path style="fill:#74b5f5; stroke:none;" d="M12 42L13 43L12 42z"/>
<path style="fill:#4476d1; stroke:none;" d="M85 44L86 45L85 44M88 45L89 46L88 45z"/>
<path style="fill:#519ff2; stroke:none;" d="M67 46L68 47L67 46z"/>
<path style="fill:#4476d1; stroke:none;" d="M90 46L91 47L90 46M91 47L92 48L91 47M92 48L93 49L92 48M3 49L4 50L3 49M93 49L94 50L93 49z"/>
<path style="fill:#519ff2; stroke:none;" d="M70 50L71 51L70 50z"/>
<path style="fill:#4476d1; stroke:none;" d="M94 50L95 51L94 50M95 51C94.0287 58.6852 95.2293 71.7334 89.686 77.7755C84.5965 83.3228 75.7541 82 69 82L16 82L16 83C37.584 83 59.4443 84.0174 81 82.9599C88.8495 82.5748 97.4939 77.6707 97 69C104.035 67.9495 98.1661 53.9302 95 51z"/>
<path style="fill:#74b5f5; stroke:none;" d="M0 67L1 68L0 67z"/>
<path style="fill:#010202; stroke:none;" d="M99 67C97.0337 73.8099 92.8555 79.3502 86 81.8665C79.1302 84.3881 70.2148 83 63 83C44.5191 83 8.48358 90.5628 1 68L0 68L0 100L100 100L99 67z"/>
<path style="fill:#519ff2; stroke:none;" d="M97.3333 69.6667L97.6667 70.3333L97.3333 69.6667z"/>
<path style="fill:#74b5f5; stroke:none;" d="M1 70L2 71L1 70M2 72L3 73L2 72M3 73L4 74L3 73M4 74L5 75L4 74z"/>
<path style="fill:#519ff2; stroke:none;" d="M5 76L6 77L5 76M6 77L7 78L6 77z"/>
<path style="fill:#4476d1; stroke:none;" d="M7 78L8 79L7 78z"/>
<path style="fill:#519ff2; stroke:none;" d="M8 78L9 79L8 78M9 79L10 80L9 79z"/>
<path style="fill:#74b5f5; stroke:none;" d="M10 79L11 80L10 79z"/>
<path style="fill:#4476d1; stroke:none;" d="M10 80L11 81L10 80z"/>
<path style="fill:#519ff2; stroke:none;" d="M11.6667 80.3333L12.3333 80.6667L11.6667 80.3333M13.6667 81.3333L14.3333 81.6667L13.6667 81.3333M15 82L16 83L15 82z"/>
</svg>
