<svg xmlns="http://www.w3.org/2000/svg" width="20.121" height="25.495" viewBox="0 0 20.121 25.495">
  <g id="icon_collaborative" transform="translate(-40 -103)">
    <path id="Union_58" data-name="Union 58" d="M13.076,22.476a1.523,1.523,0,0,1,1.512-1.508h4.025a1.519,1.519,0,0,1,1.508,1.508A3.254,3.254,0,0,1,16.6,25.495,3.255,3.255,0,0,1,13.076,22.476ZM0,22.476a1.521,1.521,0,0,1,1.51-1.508H5.532a1.52,1.52,0,0,1,1.512,1.508,3.255,3.255,0,0,1-3.522,3.018A3.254,3.254,0,0,1,0,22.476ZM14.588,17.95A2.013,2.013,0,1,1,16.6,19.962,2.012,2.012,0,0,1,14.588,17.95Zm-13.078,0a2.011,2.011,0,1,1,2.012,2.011A2.012,2.012,0,0,1,1.51,17.95Zm10.4,1.884L10.062,18.6,8.218,19.835a.755.755,0,0,1-1.047-.21.747.747,0,0,1,.206-1.044l1.929-1.287V15.182a.754.754,0,0,1,1.286-.544.745.745,0,0,1,.224.544v2.111l1.929,1.287a.754.754,0,0,1-.838,1.254ZM5.115,9.185A2.136,2.136,0,0,1,7.233,7.064h5.653A2.135,2.135,0,0,1,15,9.185c0,1.938-1.708,4.239-4.943,4.239S5.115,11.123,5.115,9.185Zm2.118-6.36A2.827,2.827,0,1,1,10.062,5.65,2.827,2.827,0,0,1,7.233,2.825Z" transform="translate(40 103)" fill="#f2ede6"/>
  </g>
</svg>
