<svg xmlns="http://www.w3.org/2000/svg" width="38" height="38" viewBox="0 0 38 38">
  <g id="icon_buy" transform="translate(-205 -719.5)">
    <circle id="Ellipse_1942" data-name="Ellipse 1942" cx="19" cy="19" r="19" transform="translate(205 719.5)" fill="#fac48b"/>
    <g id="Group_39674" data-name="Group 39674">
      <g id="Buy" transform="translate(212.01 727.02)">
        <path id="Path_25114" data-name="Path 25114" d="M16.6,7.38a.742.742,0,0,0,.57.21h4.07a.75.75,0,0,0,0-1.5H18.95l2.82-2.83a.754.754,0,0,0,0-1.06.748.748,0,0,0-1.06,0L17.89,5.03V2.73a.75.75,0,0,0-1.5,0V6.8A.693.693,0,0,0,16.6,7.38Z" fill="#453228"/>
        <path id="Path_25115" data-name="Path 25115" d="M9.38,12.44v.94c-.35-.11-.55-.31-.55-.47S9.03,12.55,9.38,12.44Z" fill="#453228"/>
        <path id="Path_25116" data-name="Path 25116" d="M11.05,15.14c0,.15-.21.35-.56.47v-.95C10.84,14.78,11.05,14.98,11.05,15.14Z" fill="#453228"/>
        <path id="Path_25117" data-name="Path 25117" d="M9.94,6.07a7.955,7.955,0,1,0,7.94,7.95A7.964,7.964,0,0,0,9.94,6.07Z" fill="#453228"/>
        <path id="Path_25118" data-name="Path 25118" d="M11.03,15.14c0,.15-.21.35-.56.47v-.95C10.82,14.78,11.03,14.98,11.03,15.14Z" fill="#453228"/>
      </g>
      <path id="btc" d="M3,7.5V7H2v.5a.5.5,0,1,1-1,0V7H.5a.5.5,0,0,1,0-1V2a.5.5,0,0,1,0-1H1V.5a.5.5,0,1,1,1,0V1H3V.5a.5.5,0,1,1,1,0V1A1.72,1.72,0,0,1,5.5,2.715v.06a1.676,1.676,0,0,1-.32,1A1.724,1.724,0,0,1,6,5.25,1.75,1.75,0,0,1,4.25,7H4v.5a.5.5,0,1,1-1,0ZM4.25,6a.75.75,0,1,0,0-1.5H1.5V6ZM3.78,3.5a.725.725,0,0,0,.72-.72V2.72A.725.725,0,0,0,3.78,2H1.5V3.5Z" transform="translate(219 737.5)" fill="#fac48b"/>
    </g>
  </g>
</svg>
