<svg id="icon_copy" xmlns="http://www.w3.org/2000/svg" width="18.51" height="20.192" viewBox="0 0 18.51 20.192">
  <path id="Path_8427" data-name="Path 8427" d="M7.362,118.867a3.58,3.58,0,0,1-3.576-3.576v-8.624H2.314A2.316,2.316,0,0,0,0,108.982V120.34a2.316,2.316,0,0,0,2.314,2.314H12.83a2.316,2.316,0,0,0,2.314-2.314v-1.472Zm0,0" transform="translate(0 -102.461)" fill="#453228"/>
  <path id="Path_8428" data-name="Path 8428" d="M141.461,2.314A2.313,2.313,0,0,0,139.148,0h-8.834A2.314,2.314,0,0,0,128,2.314V12.83a2.314,2.314,0,0,0,2.314,2.314h8.834a2.313,2.313,0,0,0,2.314-2.314Zm0,0" transform="translate(-122.952)" fill="#fafafa"/>
</svg>
