<svg xmlns="http://www.w3.org/2000/svg" width="11.429" height="24" viewBox="0 0 11.429 24">
  <g id="icon_ik" transform="translate(0)">
    <path id="Subtraction_58" data-name="Subtraction 58" d="M5.738,24H5.731a.585.585,0,0,1-.41-.17L3.005,21.515A.587.587,0,0,1,2.83,21.1V19.338a.583.583,0,0,1,.176-.415L4.324,17.6,3.005,16.279a.586.586,0,0,1,0-.827l1.319-1.325L3.005,12.8a.571.571,0,0,1-.176-.41V10.633A5.7,5.7,0,0,1,.09,4.7,5.972,5.972,0,0,1,2.166,1.232,5.271,5.271,0,0,1,4.714.087,5.7,5.7,0,0,1,10.638,2.84a5.667,5.667,0,0,1,.792,2.894v.008a5.694,5.694,0,0,1-2.5,4.731V20.811a.585.585,0,0,1-.176.416l-2.6,2.6A.583.583,0,0,1,5.738,24ZM5.715,1.993A2.328,2.328,0,1,0,8.042,4.321,2.33,2.33,0,0,0,5.715,1.993Z" transform="translate(0)" fill="#fdf7f0"/>
  </g>
</svg>
