<svg width="7" height="12" viewBox="0 0 7 12" fill="none" xmlns="http://www.w3.org/2000/svg">
<path d="M1.39417 0.231777L6.50717 5.28478C6.55839 5.33496 6.59908 5.39486 6.62686 5.46097C6.65464 5.52708 6.66895 5.59807 6.66895 5.66978C6.66895 5.74149 6.65464 5.81247 6.62686 5.87858C6.59908 5.94469 6.55839 6.00459 6.50717 6.05478L1.39417 11.1078C1.24378 11.2547 1.04189 11.3369 0.831666 11.3369C0.62144 11.3369 0.419554 11.2547 0.269166 11.1078C0.195302 11.0349 0.13665 10.9481 0.0966172 10.8524C0.0565844 10.7567 0.0359693 10.654 0.0359693 10.5503C0.0359693 10.4465 0.0565844 10.3438 0.0966172 10.2481C0.13665 10.1524 0.195302 10.0656 0.269166 9.99278L4.64017 5.66978L0.269166 1.34678C0.195272 1.27385 0.136599 1.18697 0.0965533 1.09118C0.0565076 0.995389 0.0358863 0.8926 0.0358863 0.788777C0.0358863 0.684955 0.0565076 0.582166 0.0965533 0.486377C0.136599 0.390588 0.195272 0.303708 0.269166 0.230778C0.419733 0.0826778 0.622471 -0.000319481 0.833667 -0.000319481C1.04486 -0.000319481 1.2476 0.0826778 1.39817 0.230778" fill="#4E5C6A"/>
</svg>
