<svg width="30" height="30" viewBox="0 0 30 30" fill="none" xmlns="http://www.w3.org/2000/svg">
<path d="M15 30C23.2843 30 30 23.2843 30 15C30 6.71573 23.2843 0 15 0C6.71573 0 0 6.71573 0 15C0 23.2843 6.71573 30 15 30Z" fill="#282828"/>
<path fill-rule="evenodd" clip-rule="evenodd" d="M10.8033 18.174L18.9653 10L20.6803 11.715L12.5063 19.877L10.7793 18.15L10.8033 18.174Z" fill="#2D6759"/>
<path fill-rule="evenodd" clip-rule="evenodd" d="M12.445 18.2464H17.237V20.6794H11.216C11.056 20.6799 10.8975 20.6488 10.7496 20.5877C10.6017 20.5267 10.4673 20.437 10.3543 20.3237C10.2412 20.2105 10.1517 20.076 10.0909 19.928C10.0301 19.78 9.99922 19.6214 10 19.4614V13.4414H12.433V18.2334L12.445 18.2464Z" fill="#2D6759"/>
</svg>
