<svg width="8" height="12" viewBox="0 0 8 12" fill="none" xmlns="http://www.w3.org/2000/svg">
<path d="M1.85803 0.563473L6.97103 5.61647C7.02225 5.66666 7.06295 5.72656 7.09072 5.79267C7.1185 5.85878 7.13281 5.92976 7.13281 6.00147C7.13281 6.07318 7.1185 6.14417 7.09072 6.21028C7.06295 6.27639 7.02225 6.33629 6.97103 6.38647L1.85803 11.4395C1.70765 11.5864 1.50576 11.6686 1.29553 11.6686C1.08531 11.6686 0.883421 11.5864 0.733034 11.4395C0.65917 11.3666 0.600517 11.2798 0.560484 11.1841C0.520452 11.0884 0.499836 10.9857 0.499836 10.882C0.499836 10.7782 0.520452 10.6755 0.560484 10.5798C0.600517 10.4841 0.65917 10.3973 0.733034 10.3245L5.10403 6.00147L0.733034 1.67847C0.65914 1.60554 0.600466 1.51866 0.560421 1.42287C0.520375 1.32708 0.499753 1.2243 0.499753 1.12047C0.499753 1.01665 0.520375 0.913861 0.560421 0.818072C0.600466 0.722283 0.65914 0.635404 0.733034 0.562473C0.8836 0.414373 1.08634 0.331376 1.29753 0.331376C1.50873 0.331376 1.71147 0.414373 1.86203 0.562473" fill="#F1F1F1"/>
</svg>
