<svg xmlns="http://www.w3.org/2000/svg" width="29" height="29" viewBox="0 0 29 29">
  <g id="icon_edit" transform="translate(-231 -385)">
    <circle id="Ellipse_1947" data-name="Ellipse 1947" cx="14.5" cy="14.5" r="14.5" transform="translate(231 385)" fill="#fac48b"/>
    <g id="edit" transform="translate(240.219 394.272)">
      <path id="Combined_Shape" data-name="Combined Shape" d="M.761,10.455a.754.754,0,0,1-.508-.2.3.3,0,0,1-.029-.02C.213,10.222.21,10.208.2,10.2a.753.753,0,0,1-.2-.5V1.406a.829.829,0,0,1,.023-.118A.755.755,0,0,1,.759.651H3.1a.764.764,0,0,1,.762.755v.308a.763.763,0,0,1-.762.762H1.825V8.631H7.982V7.357a.765.765,0,0,1,.754-.763h.308a.763.763,0,0,1,.762.762V9.695a.754.754,0,0,1-.2.5c-.009.01-.013.023-.023.033s-.023.013-.033.023a.753.753,0,0,1-.5.2ZM4.126,6.944a.691.691,0,0,1-.481-.809l.5-2.287L7.742.2a.691.691,0,0,1,.981,0L10.359,1.84a.69.69,0,0,1,0,.975l-3.6,3.643-2.29.5a.694.694,0,0,1-.342-.013Z" fill="#453228" stroke="#fac48b" stroke-width="0.7"/>
    </g>
  </g>
</svg>
