<svg width="30" height="30" viewBox="0 0 30 30" fill="none" xmlns="http://www.w3.org/2000/svg">
<path d="M15 30C23.2843 30 30 23.2843 30 15C30 6.71573 23.2843 0 15 0C6.71573 0 0 6.71573 0 15C0 23.2843 6.71573 30 15 30Z" fill="#EDE3D8"/>
<path fill-rule="evenodd" clip-rule="evenodd" d="M10.8033 18.174L18.9653 10L20.6803 11.715L12.5063 19.877L10.7793 18.15L10.8033 18.174Z" fill="#2D6759"/>
<path fill-rule="evenodd" clip-rule="evenodd" d="M12.445 18.247H17.237V20.68H11.216C11.056 20.6805 10.8975 20.6494 10.7496 20.5883C10.6017 20.5273 10.4673 20.4376 10.3543 20.3243C10.2412 20.2111 10.1517 20.0766 10.0909 19.9286C10.0301 19.7806 9.99922 19.622 10 19.462V13.442H12.433V18.234L12.445 18.247Z" fill="#2D6759"/>
</svg>
