<svg width="24" height="24" viewBox="0 0 24 24" fill="none" xmlns="http://www.w3.org/2000/svg">
<path d="M16.7955 7.20313C16.1012 6.50463 15.2754 5.95035 14.3657 5.57224C13.456 5.19412 12.4805 4.99964 11.4953 5C7.34897 5 4 8.35625 4 12.5C4 16.6438 7.34897 20 11.4953 20C14.9944 20 17.9118 17.6094 18.7467 14.375H16.7955C16.4091 15.4714 15.6917 16.421 14.7423 17.0927C13.793 17.7643 12.6585 18.125 11.4953 18.125C8.39024 18.125 5.86679 15.6031 5.86679 12.5C5.86679 9.39688 8.39024 6.875 11.4953 6.875C13.0525 6.875 14.4409 7.52188 15.454 8.54375L12.4334 11.5625H19V5L16.7955 7.20313Z" fill="white"/>
</svg>
