<svg id="icon_whirlpool" xmlns="http://www.w3.org/2000/svg" xmlns:xlink="http://www.w3.org/1999/xlink" width="16.736" height="15.997" viewBox="0 0 16.736 15.997">
  <defs>
    <clipPath id="clip-path">
      <rect id="Rectangle_8356" data-name="Rectangle 8356" width="16.736" height="15.997" fill="#27302e"/>
    </clipPath>
  </defs>
  <g id="Group_44269" data-name="Group 44269" transform="translate(0 0)" clip-path="url(#clip-path)">
    <path id="Path_117618" data-name="Path 117618" d="M0,13.776c1.65.2,3.126.749,4.776,0a2.5,2.5,0,0,0-.366-.518C.947,10.529.919,5.047,5.155,2.05,8.126-.053,11.368-.717,14.8.908A7.941,7.941,0,0,1,16.736,2.42c-1.556-.289-3.054-.942-4.712-.16a1.789,1.789,0,0,0,.3.508C15.7,5.4,15.81,10.544,12.039,13.7,9.284,16,5,16.7,2.1,15.209A20.107,20.107,0,0,1,0,13.776M8.333,5.313a2.722,2.722,0,0,0,.1,5.442,2.773,2.773,0,0,0,2.658-2.717A2.736,2.736,0,0,0,8.333,5.313" transform="translate(0 0)" fill="#27302e"/>
  </g>
</svg>
