<svg xmlns="http://www.w3.org/2000/svg" width="16.839" height="14.001" viewBox="0 0 16.839 14.001">
  <g id="icon_refresh" transform="translate(-1.75 -3.47)">
    <path id="Path_206455" data-name="Path 206455" d="M10.519,5.14A5.146,5.146,0,0,0,6.348,7.279a5.682,5.682,0,0,0-.444.707L4.44,7.229A6.8,6.8,0,0,1,10.494,3.47a6.914,6.914,0,0,1,6.844,6.992H15.693a5.276,5.276,0,0,0-5.207-5.347ZM5.312,10.487a5.275,5.275,0,0,0,5.2,5.347,5.2,5.2,0,0,0,4.6-2.846l1.456.749A6.841,6.841,0,0,1,10.5,17.471,6.921,6.921,0,0,1,3.65,10.479H5.3Z" transform="translate(-0.337)" fill="#91785d" fill-rule="evenodd"/>
    <path id="Path_206456" data-name="Path 206456" d="M18.708,10.685l1-1.785,1.423.8-1.423,2.517a.861.861,0,0,1-.51.387.815.815,0,0,1-.633-.09L16.1,11.055l.839-1.431,1.736,1.028Z" transform="translate(-2.545 -0.963)" fill="#91785d" fill-rule="evenodd"/>
    <path id="Path_206457" data-name="Path 206457" d="M4.193,12.492,3.181,14.269,1.75,13.463l1.415-2.525a.805.805,0,0,1,.5-.395.764.764,0,0,1,.625.082l2.46,1.448L5.9,13.5,4.16,12.459Z" transform="translate(0 -1.249)" fill="#91785d" fill-rule="evenodd"/>
  </g>
</svg>
