<svg xmlns="http://www.w3.org/2000/svg" width="11.416" height="10.5" viewBox="0 0 11.416 10.5">
  <path id="icon_badbank" d="M8.762,3a5.685,5.685,0,0,0-2.4.53.482.482,0,0,0-.214.677L7.81,7.086a1.853,1.853,0,0,1,1.9,0l1.662-2.88a.481.481,0,0,0-.213-.676A5.691,5.691,0,0,0,8.762,3Zm0,4.778a.956.956,0,1,0,.956.956A.955.955,0,0,0,8.762,7.778Zm-5.228.956a.483.483,0,0,0-.478.529,5.693,5.693,0,0,0,2.395,4.147.483.483,0,0,0,.7-.149l1.663-2.879a1.9,1.9,0,0,1-.96-1.648Zm7.139,0a1.9,1.9,0,0,1-.959,1.648l1.662,2.879a.483.483,0,0,0,.7.149,5.693,5.693,0,0,0,2.395-4.147.483.483,0,0,0-.478-.529Z" transform="translate(-3.054 -3)" fill="#fff"/>
</svg>
