<svg xmlns="http://www.w3.org/2000/svg" width="13.872" height="13.712" viewBox="0 0 13.872 13.712">
  <g id="icon_hide" transform="translate(-219.001 -249.168)">
    <path id="show-password" d="M33.769,30a8.08,8.08,0,0,1,6.653,3.8.849.849,0,0,1,0,.853,8.078,8.078,0,0,1-6.653,3.8,8.08,8.08,0,0,1-6.653-3.8.849.849,0,0,1,0-.853A8.08,8.08,0,0,1,33.769,30Zm0,1.692a2.538,2.538,0,1,0,2.538,2.538A2.538,2.538,0,0,0,33.769,31.692Z" transform="translate(192 221.845)" fill="#704e2e"/>
    <g id="Rectangle_8581" data-name="Rectangle 8581" transform="translate(230.256 251.289) rotate(45)" fill="#f1ede7" stroke="#704e2e" stroke-linecap="round" stroke-width="1.5">
      <rect width="0.7" height="12.692" rx="0.35" stroke="none"/>
      <rect x="-0.75" y="-0.75" width="2.2" height="14.192" rx="1.1" fill="none"/>
    </g>
  </g>
</svg>
