<svg xmlns="http://www.w3.org/2000/svg" width="38" height="38" viewBox="0 0 38 38">
  <g id="icon_mix" transform="translate(-95 -719.5)">
    <g id="Group_39001" data-name="Group 39001" transform="translate(53 361.5)">
      <circle id="Ellipse_1947" data-name="Ellipse 1947" cx="19" cy="19" r="19" transform="translate(42 358)" fill="#fac48b"/>
    </g>
    <g id="premix" transform="translate(106 746.08) rotate(-90)">
      <path id="Combined_Shape" data-name="Combined Shape" d="M3.3,16.321.189,13.2A.663.663,0,0,1,.169,12.3l.018-.022L3.3,9.158a.409.409,0,0,1,.133-.087.394.394,0,0,1,.437.1.434.434,0,0,1,.114.293v2.04h6.928a.784.784,0,0,0,.506-.186.826.826,0,0,0,.277-.475l.019-.1a1.176,1.176,0,0,1,.393-.674,1.108,1.108,0,0,1,1.153-.176,1.127,1.127,0,0,1,.368.253,1.17,1.17,0,0,1,.246.379,1.2,1.2,0,0,1,.086.447v.535a2.5,2.5,0,0,1-.7,1.744,2.36,2.36,0,0,1-1.693.722H3.988v2.038a.435.435,0,0,1-.03.162.421.421,0,0,1-.087.138.409.409,0,0,1-.289.127A.4.4,0,0,1,3.3,16.321Zm8.267-8.927a.4.4,0,0,1-.154-.036.406.406,0,0,1-.128-.094.44.44,0,0,1-.114-.295V4.932H4.244a.782.782,0,0,0-.506.185.827.827,0,0,0-.277.474l-.019.1a1.178,1.178,0,0,1-.39.675A1.1,1.1,0,0,1,1.529,6.3a1.194,1.194,0,0,1-.334-.83V4.932a2.5,2.5,0,0,1,.7-1.744,2.359,2.359,0,0,1,1.693-.722h7.582V.426A.432.432,0,0,1,11.2.264a.424.424,0,0,1,.088-.138.4.4,0,0,1,.132-.092.389.389,0,0,1,.437.084l3.113,3.117a.663.663,0,0,1,.02.905l-.02.022L11.856,7.279a.4.4,0,0,1-.132.087.39.39,0,0,1-.145.028Z" transform="translate(0)" fill="#453228"/>
    </g>
  </g>
</svg>
