<svg xmlns="http://www.w3.org/2000/svg" width="22.161" height="29.217" viewBox="0 0 22.161 29.217">
  <g id="icon_mrk" transform="translate(10982.72 931)">
    <path id="Path_119891" data-name="Path 119891" d="M8,18.779A10.779,10.779,0,1,1,18.779,29.557,10.764,10.764,0,0,1,8,18.779Zm6.9-5.734,3.593-.719a1.23,1.23,0,0,1,.56,0l3.593.719a1.434,1.434,0,0,1,1.15,1.408v5.792a4.321,4.321,0,0,1-1.624,3.363l-2.515,2a1.447,1.447,0,0,1-1.8,0l-2.515-2.012a4.305,4.305,0,0,1-1.624-3.377V14.41a1.447,1.447,0,0,1,1.15-1.423Z" transform="translate(-10990.72 -939)" fill="#2d6759" fill-rule="evenodd"/>
    <path id="Path_119892" data-name="Path 119892" d="M4.294,20.321l4.311,4.311,2.026-2.041L6.321,18.28,4.28,20.306Z" transform="translate(-10987 -926.415)" fill="#2d6759" fill-rule="evenodd"/>
    <path id="Path_119893" data-name="Path 119893" d="M9.8,20.321l4.3,4.311,2.026-2.041L11.811,18.28,9.77,20.306Z" transform="translate(-10984.6 -926.415)" fill="#2d6759" fill-rule="evenodd"/>
    <path id="Path_119894" data-name="Path 119894" d="M15.294,20.321l4.311,4.311,2.026-2.041L17.321,18.28,15.28,20.306Z" transform="translate(-10982.191 -926.415)" fill="#2d6759" fill-rule="evenodd"/>
    <path id="Path_119895" data-name="Path 119895" d="M10.632,20.321,6.321,24.632,4.28,22.591,8.591,18.28l2.026,2.026Z" transform="translate(-10987 -926.415)" fill="#2d6759" fill-rule="evenodd"/>
    <path id="Path_119896" data-name="Path 119896" d="M16.132,20.321l-4.311,4.311L9.78,22.591l4.311-4.311,2.026,2.026Z" transform="translate(-10984.597 -926.415)" fill="#2d6759" fill-rule="evenodd"/>
    <path id="Path_119897" data-name="Path 119897" d="M21.632,20.321l-4.311,4.311L15.28,22.591l4.311-4.311,2.026,2.026Z" transform="translate(-10982.191 -926.415)" fill="#2d6759" fill-rule="evenodd"/>
  </g>
</svg>
