<svg xmlns="http://www.w3.org/2000/svg" width="38" height="38" viewBox="0 0 38 38">
  <g id="Group_44187" data-name="Group 44187" transform="translate(-264 -700.5)">
    <circle id="Ellipse_1942" data-name="Ellipse 1942" cx="19" cy="19" r="19" transform="translate(264 700.5)" fill="#fac48b"/>
    <g id="Logout" transform="translate(292.393 707.75) rotate(90)">
      <path id="Path_27677" data-name="Path 27677" d="M19.555,4.781v9.889a2.9,2.9,0,0,1-3,2.781H11.829a.579.579,0,0,1-.579-.579V11.077h2.9a1.352,1.352,0,1,0,0-2.7h-2.9V2.579A.579.579,0,0,1,11.829,2h4.728a2.9,2.9,0,0,1,3,2.781Z" transform="translate(-1.933)" fill="#fafafa"/>
      <path id="Path_27678" data-name="Path 27678" d="M12.218,12H2.77" transform="translate(-0.005 -2.275)" fill="none" stroke="#453228" stroke-linecap="round" stroke-linejoin="round" stroke-width="2"/>
      <path id="Path_27679" data-name="Path 27679" d="M2.75,12l3.09,3.09" transform="translate(0 -2.275)" fill="none" stroke="#453228" stroke-linecap="round" stroke-linejoin="round" stroke-width="2"/>
      <path id="Path_27680" data-name="Path 27680" d="M2.75,11.09,5.84,8" transform="translate(0 -1.365)" fill="none" stroke="#453228" stroke-linecap="round" stroke-linejoin="round" stroke-width="2"/>
    </g>
  </g>
</svg>
