<svg width="35" height="35" viewBox="0 0 35 35" fill="none" xmlns="http://www.w3.org/2000/svg">
<path d="M17.5 35C27.165 35 35 27.165 35 17.5C35 7.83502 27.165 0 17.5 0C7.83502 0 0 7.83502 0 17.5C0 27.165 7.83502 35 17.5 35Z" fill="#2F4F4F"/>
<path d="M21.8638 11.5039C22.1421 11.0268 21.9809 10.4145 21.5039 10.1362C21.0268 9.85794 20.4145 10.0191 20.1362 10.4961L21.8638 11.5039ZM13.0329 23.2545C13.1735 23.7886 13.7204 24.1076 14.2545 23.9671L22.9582 21.6766C23.4923 21.5361 23.8113 20.9892 23.6707 20.4551C23.5302 19.921 22.9833 19.6019 22.4492 19.7425L14.7126 21.7784L12.6766 14.0418C12.5361 13.5077 11.9892 13.1887 11.4551 13.3293C10.921 13.4698 10.6019 14.0167 10.7425 14.5508L13.0329 23.2545ZM20.1362 10.4961L13.1362 22.4961L14.8638 23.5039L21.8638 11.5039L20.1362 10.4961Z" fill="#FDF7F0"/>
</svg>