<svg id="icon_checking" xmlns="http://www.w3.org/2000/svg" width="55.28" height="58.429" viewBox="0 0 55.28 58.429">
  <path id="Path_8243" data-name="Path 8243" d="M32.635,0H16.013a7.7,7.7,0,0,0-6.67,3.851L1.032,18.246a7.7,7.7,0,0,0,0,7.7L9.343,40.343a7.7,7.7,0,0,0,6.67,3.851H32.635a7.7,7.7,0,0,0,6.67-3.851l8.311-14.395a7.7,7.7,0,0,0,0-7.7L39.305,3.851A7.7,7.7,0,0,0,32.635,0Z" transform="matrix(-0.259, -0.966, 0.966, -0.259, 12.591, 58.429)" fill="#fff" fill-rule="evenodd"/>
  <g id="event-2" transform="translate(15.816 18.019)">
    <path id="Path_8099" data-name="Path 8099" d="M21.212,0H1.571C.7,0,0,2.238,0,5V17.5H22.783V5C22.783,2.238,22.079,0,21.212,0Zm0,0" transform="translate(23.176 23.568) rotate(180)" fill="#fadc69"/>
    <g id="Group_10676" data-name="Group 10676">
      <path id="Path_8100" data-name="Path 8100" d="M21.6,0H1.964A1.966,1.966,0,0,0,0,1.964V21.6a1.966,1.966,0,0,0,1.964,1.964H21.6A1.966,1.966,0,0,0,23.568,21.6V1.964A1.966,1.966,0,0,0,21.6,0ZM.786,1.964A1.178,1.178,0,0,1,1.964.786H21.6a1.178,1.178,0,0,1,1.178,1.178V5.5h-22Zm22,19.64A1.178,1.178,0,0,1,21.6,22.783H1.964A1.178,1.178,0,0,1,.786,21.6V6.285h22Zm0,0" fill="#fadc69" stroke="#fadc69" stroke-width="0.5"/>
      <path id="Path_8101" data-name="Path 8101" d="M73.676,56H56.393a.393.393,0,1,0,0,.786H73.676a.393.393,0,0,0,0-.786Zm0,0" transform="translate(-53.25 -53.25)" fill="#fadc69" stroke="#fadc69" stroke-width="0.5"/>
      <path id="Path_8102" data-name="Path 8102" d="M56.393,169.035a.393.393,0,1,0,0,.786h3.928v3.111a.393.393,0,1,0,.786,0V169.82h7.856v3.142a.393.393,0,0,0,.786,0V169.82h3.928a.393.393,0,0,0,0-.786H69.748v-4.714h3.928a.393.393,0,0,0,0-.786H69.748v-3.142a.393.393,0,1,0-.786,0v3.142H61.106v-3.142a.393.393,0,1,0-.786,0v3.142H56.393a.393.393,0,1,0,0,.786h3.928v4.714Zm4.714-4.714h7.856v4.714H61.106Zm0,0" transform="translate(-53.25 -152.144)" fill="#fff" stroke="#fff" stroke-width="0.5"/>
    </g>
  </g>
</svg>
