<svg width="30" height="30" viewBox="0 0 30 30" fill="none" xmlns="http://www.w3.org/2000/svg">
<path d="M15 0C17.9667 0 20.8668 0.879735 23.3336 2.52796C25.8003 4.17618 27.7229 6.51886 28.8582 9.25975C29.9935 12.0006 30.2906 15.0166 29.7118 17.9264C29.133 20.8361 27.7044 23.5088 25.6066 25.6066C23.5088 27.7044 20.8361 29.133 17.9264 29.7118C15.0166 30.2906 12.0006 29.9935 9.25975 28.8582C6.51886 27.7229 4.17618 25.8003 2.52796 23.3336C0.879735 20.8668 0 17.9667 0 15C0 11.0218 1.58035 7.20644 4.3934 4.3934C7.20644 1.58035 11.0218 0 15 0Z" fill="#DD5940" fill-opacity="0.15"/>
<path fill-rule="evenodd" clip-rule="evenodd" d="M18.174 10.7782L10 18.9512L11.715 20.6782L19.877 12.5162L18.15 10.8012L18.174 10.7782Z" fill="#DD5940"/>
<path fill-rule="evenodd" clip-rule="evenodd" d="M18.2419 12.4251V17.2251H20.6789V11.2161C20.6778 10.8939 20.5494 10.5852 20.3216 10.3574C20.0938 10.1296 19.7851 10.0012 19.4629 10.0001H13.4419V12.4331H18.2339L18.2419 12.4251Z" fill="#DD5940"/>
</svg>
