<svg xmlns="http://www.w3.org/2000/svg" xmlns:xlink="http://www.w3.org/1999/xlink" width="48" height="48" viewBox="0 0 48 48">
  <defs>
    <linearGradient id="linear-gradient" x1="0.5" x2="0.5" y2="1" gradientUnits="objectBoundingBox">
      <stop offset="0" stop-color="#00836a"/>
      <stop offset="1" stop-color="#073e39"/>
    </linearGradient>
  </defs>
  <g id="icon_inheritance" transform="translate(-164 -99)">
    <circle id="Ellipse_1938" data-name="Ellipse 1938" cx="24" cy="24" r="24" transform="translate(164 99)" fill="url(#linear-gradient)"/>
    <path id="Receipt" d="M19.19,2H4.81A2.812,2.812,0,0,0,2,4.81v14.8a2.964,2.964,0,0,0,.72,1.91.764.764,0,0,0,.59.25.734.734,0,0,0,.58-.29l1.28-1.7,1.25,1.63A1.473,1.473,0,0,0,7.6,22a1.506,1.506,0,0,0,1.19-.59l1.23-1.63,1.25,1.63a1.519,1.519,0,0,0,2.36,0l1.22-1.6,1.16,1.62a.763.763,0,0,0,1.18.06,2.9,2.9,0,0,0,.7-1.88V12.75h1.3c1.55,0,1.81-1.26,1.81-2.81V4.8C21,3.25,20.74,2,19.19,2ZM5.08,15.08a.755.755,0,0,1,.75-.75h8.23a.75.75,0,0,1,0,1.5H5.83A.755.755,0,0,1,5.08,15.08Zm0-4.11a.749.749,0,0,1,.75-.75h8.23a.75.75,0,0,1,0,1.5H5.83A.755.755,0,0,1,5.08,10.97Zm8.98-3.32H5.83a.75.75,0,0,1,0-1.5h8.23a.75.75,0,0,1,0,1.5Zm5.672,2.29c0,.72.178,1.31-.542,1.31h-1.3V3.5h1.3c.72,0,.542.58.542,1.3Z" transform="translate(177.5 111)" fill="#fff"/>
  </g>
</svg>
