<svg width="35" height="35" viewBox="0 0 18 18" fill="none" xmlns="http://www.w3.org/2000/svg">
<path d="M9 18C13.9706 18 18 13.9706 18 9C18 4.02944 13.9706 0 9 0C4.02944 0 0 4.02944 0 9C0 13.9706 4.02944 18 9 18Z" fill="#F95959"/>
<path d="M6.94352 12.0021C6.75677 12.2055 6.44048 12.219 6.23706 12.0323C6.03364 11.8455 6.02012 11.5292 6.20687 11.3258L6.94352 12.0021ZM11.6022 5.66533C11.8781 5.65354 12.1113 5.86764 12.1231 6.14353L12.3152 10.6394C12.327 10.9153 12.1129 11.1485 11.837 11.1603C11.5611 11.1721 11.3279 10.958 11.3161 10.6821L11.1453 6.68577L7.14898 6.85655C6.87309 6.86834 6.63987 6.65424 6.62808 6.37835C6.61629 6.10246 6.83039 5.86925 7.10628 5.85746L11.6022 5.66533ZM6.20687 11.3258L11.2552 5.82674L11.9919 6.50301L6.94352 12.0021L6.20687 11.3258Z" fill="#F9F4F0"/>
</svg>
