<svg xmlns="http://www.w3.org/2000/svg" width="10.986" height="10.131" viewBox="0 0 10.986 10.131">
  <g id="icon_premix" transform="translate(0 10.131) rotate(-90)">
    <path id="Combined_Shape" data-name="Combined Shape" d="M2.207,10.907.126,8.824a.443.443,0,0,1-.014-.605L.125,8.2,2.208,6.12A.273.273,0,0,1,2.3,6.062a.263.263,0,0,1,.292.069.29.29,0,0,1,.076.2V7.69H7.3a.524.524,0,0,0,.338-.124.552.552,0,0,0,.185-.317l.013-.069a.786.786,0,0,1,.263-.45.741.741,0,0,1,.771-.117.753.753,0,0,1,.246.169.782.782,0,0,1,.164.253.8.8,0,0,1,.058.3V7.69a1.673,1.673,0,0,1-.469,1.165,1.577,1.577,0,0,1-1.132.483H2.665V10.7a.29.29,0,0,1-.02.108.281.281,0,0,1-.058.092.273.273,0,0,1-.193.085A.265.265,0,0,1,2.207,10.907ZM7.731,4.942a.264.264,0,0,1-.1-.024.271.271,0,0,1-.086-.063.294.294,0,0,1-.076-.2V3.3H2.836A.523.523,0,0,0,2.5,3.42a.553.553,0,0,0-.185.317L2.3,3.806a.787.787,0,0,1-.261.451.736.736,0,0,1-1.017-.049A.8.8,0,0,1,.8,3.653V3.3a1.673,1.673,0,0,1,.469-1.165A1.577,1.577,0,0,1,2.4,1.648H7.466V.285a.289.289,0,0,1,.02-.108A.284.284,0,0,1,7.544.084.27.27,0,0,1,7.633.023a.26.26,0,0,1,.292.056l2.08,2.083a.443.443,0,0,1,.014.605l-.014.015L7.923,4.864a.267.267,0,0,1-.089.058.261.261,0,0,1-.1.019Z" transform="translate(0)" fill="#fff"/>
  </g>
</svg>
