<svg id="icon_wallet" xmlns="http://www.w3.org/2000/svg" width="19" height="15.2" viewBox="0 0 19 15.2">
  <path id="Path_24482" data-name="Path 24482" d="M21,13.217a2.334,2.334,0,0,0,2.217,2.217H26.7V11H23.217A2.334,2.334,0,0,0,21,13.217Zm3.167,0a.95.95,0,1,1-.95-.95A.974.974,0,0,1,24.167,13.217Z" transform="translate(-7.7 -5.933)" fill="#453228"/>
  <path id="Path_24483" data-name="Path 24483" d="M15.517,13.133a2.922,2.922,0,0,1-2.85-2.85,2.922,2.922,0,0,1,2.85-2.85H19V5.723A2.856,2.856,0,0,0,16.15,3H2.85A2.856,2.856,0,0,0,0,5.723V15.35A2.922,2.922,0,0,0,2.85,18.2h13.3A2.979,2.979,0,0,0,19,15.287V13.133Z" transform="translate(0 -3)" fill="#453228"/>
</svg>
