<svg width="30" height="30" viewBox="0 0 30 30" fill="none" xmlns="http://www.w3.org/2000/svg">
<path d="M15 0C17.9667 0 20.8668 0.879735 23.3336 2.52796C25.8003 4.17618 27.7229 6.51886 28.8582 9.25975C29.9935 12.0006 30.2906 15.0166 29.7118 17.9264C29.133 20.8361 27.7044 23.5088 25.6066 25.6066C23.5088 27.7044 20.8361 29.133 17.9264 29.7118C15.0166 30.2906 12.0006 29.9935 9.25975 28.8582C6.51886 27.7229 4.17618 25.8003 2.52796 23.3336C0.879735 20.8668 0 17.9667 0 15C0 11.0218 1.58035 7.20644 4.3934 4.3934C7.20644 1.58035 11.0218 0 15 0Z" fill="#EDE3D8"/>
<path fill-rule="evenodd" clip-rule="evenodd" d="M18.174 10.7781L10 18.9511L11.715 20.6781L19.877 12.5161L18.15 10.8011L18.174 10.7781Z" fill="#DD5940"/>
<path fill-rule="evenodd" clip-rule="evenodd" d="M18.2414 12.425V17.225H20.6784V11.216C20.6774 10.8938 20.5489 10.5851 20.3211 10.3573C20.0933 10.1295 19.7846 10.001 19.4624 9.99998H13.4414V12.433H18.2334L18.2414 12.425Z" fill="#DD5940"/>
</svg>
