<svg xmlns="http://www.w3.org/2000/svg" width="10.372" height="12.875" viewBox="0 0 5.372 9.875">
  <path id="icon_dollar" d="M5.372-2.152c0-1.166-.6-1.75-1.942-2.184-.926-.3-1.173-.405-1.173-.741,0-.287.237-.465.7-.465a2.162,2.162,0,0,1,1.4.524L5.2-6.027a2.944,2.944,0,0,0-1.676-.83V-8.34H2.2v1.473A2.016,2.016,0,0,0,.276-4.92c0,.949.453,1.621,2.03,2.115.848.267,1.055.435,1.055.82,0,.336-.246.583-.808.583A2.4,2.4,0,0,1,.946-2.034L0-1a3.488,3.488,0,0,0,2.2.969V1.535H3.528V-.1A2.1,2.1,0,0,0,5.372-2.152Z" transform="translate(0 8.34)" fill="#00836a" opacity="0.66"/>
</svg>
