<svg width="12" height="24" viewBox="0 0 12 24" fill="none" xmlns="http://www.w3.org/2000/svg">
<path d="M5.59732 0H6.28913C6.43441 0.0356738 6.57969 0.0828592 6.72728 0.104724C8.49484 0.362496 9.87615 1.22787 10.8873 2.70776C11.5365 3.65829 11.8098 4.73081 12 5.8413V6.41668C11.956 6.55953 11.9202 6.70476 11.8928 6.85168C11.6299 8.7585 10.7248 10.2545 9.07135 11.2591C8.76926 11.4421 8.67126 11.6561 8.67587 12.0002C8.6874 12.9369 8.91223 13.9565 7.83417 14.5031C8.72775 15.7103 8.72775 15.7103 7.93563 16.6677C8.18699 17.1004 8.62745 17.5227 8.62053 17.9336C8.61361 18.3444 8.16738 18.7587 7.8872 19.2121C7.95177 19.2615 8.02788 19.3179 8.10167 19.3789C8.28578 19.5305 8.43647 19.7184 8.54428 19.9308C8.6521 20.1433 8.71469 20.3758 8.72812 20.6135C8.74155 20.8513 8.70552 21.0893 8.62232 21.3126C8.53911 21.5358 8.41053 21.7394 8.24464 21.9106C7.68428 22.4814 7.12122 23.0503 6.55548 23.6172C6.04815 24.1247 5.87635 24.1258 5.38517 23.631C4.83518 23.0763 4.30019 22.5056 3.73291 21.9693C3.5647 21.8159 3.43275 21.627 3.34661 21.4165C3.26046 21.2059 3.22227 20.9789 3.2348 20.7518C3.24979 17.9278 3.2348 15.1038 3.25325 12.2787C3.25325 11.7735 3.12411 11.4732 2.67674 11.1763C-0.823804 8.85746 -0.897591 3.65254 2.49457 1.18184C3.42851 0.500586 4.49043 0.203686 5.59732 0ZM8.79693 6.17733C8.79452 5.82926 8.72335 5.48508 8.58748 5.16451C8.45161 4.84393 8.25371 4.55324 8.00513 4.3091C7.75655 4.06496 7.46217 3.87214 7.13882 3.74171C6.81548 3.61127 6.46953 3.54578 6.12079 3.54896C4.64032 3.54896 3.43312 4.72391 3.4262 6.16352C3.42437 6.87434 3.70553 7.55677 4.20783 8.06068C4.71014 8.5646 5.39244 8.84873 6.10465 8.85056C6.81685 8.85239 7.50061 8.57178 8.00551 8.07045C8.51041 7.56912 8.79509 6.88814 8.79693 6.17733Z" fill="#8E8E8E"/>
</svg>
