<svg width="28" height="28" viewBox="0 0 28 28" fill="none" xmlns="http://www.w3.org/2000/svg">
<rect width="28" height="28" rx="14" fill="#2D6759" fill-opacity="0.05"/>
<path d="M14 6.5C18.1423 6.5 21.5 9.85775 21.5 14C21.5 18.1423 18.1423 21.5 14 21.5C9.85775 21.5 6.5 18.1423 6.5 14C6.5 9.85775 9.85775 6.5 14 6.5ZM14 8C12.4087 8 10.8826 8.63214 9.75736 9.75736C8.63214 10.8826 8 12.4087 8 14C8 15.5913 8.63214 17.1174 9.75736 18.2426C10.8826 19.3679 12.4087 20 14 20C15.5913 20 17.1174 19.3679 18.2426 18.2426C19.3679 17.1174 20 15.5913 20 14C20 12.4087 19.3679 10.8826 18.2426 9.75736C17.1174 8.63214 15.5913 8 14 8ZM14 9.5C14.1837 9.50002 14.361 9.56747 14.4983 9.68954C14.6356 9.81161 14.7233 9.97981 14.7448 10.1623L14.75 10.25V13.6895L16.7802 15.7198C16.9148 15.8547 16.9929 16.0358 16.9987 16.2263C17.0045 16.4167 16.9376 16.6023 16.8116 16.7452C16.6855 16.8881 16.5098 16.9777 16.3201 16.9958C16.1305 17.0139 15.941 16.9591 15.7902 16.8425L15.7198 16.7802L13.4698 14.5302C13.3532 14.4136 13.2783 14.2618 13.2568 14.0982L13.25 14V10.25C13.25 10.0511 13.329 9.86032 13.4697 9.71967C13.6103 9.57902 13.8011 9.5 14 9.5Z" fill="#2D6759"/>
</svg>
