<svg xmlns="http://www.w3.org/2000/svg" width="9.495" height="19.938" viewBox="0 0 9.495 19.938">
  <g id="icon_ik" transform="translate(0)">
    <path id="Subtraction_58" data-name="Subtraction 58" d="M4.767,19.938H4.761a.484.484,0,0,1-.34-.142L2.5,17.874a.489.489,0,0,1-.146-.346V16.065A.486.486,0,0,1,2.5,15.72l1.1-1.1-1.1-1.1a.487.487,0,0,1,0-.687l1.1-1.1-1.1-1.1a.475.475,0,0,1-.146-.34V8.833A4.739,4.739,0,0,1,.075,3.907,4.961,4.961,0,0,1,1.8,1.023,4.378,4.378,0,0,1,3.916.072,4.741,4.741,0,0,1,8.837,2.36a4.705,4.705,0,0,1,.657,2.4V4.77A4.73,4.73,0,0,1,7.415,8.7v8.588a.485.485,0,0,1-.146.345L5.108,19.8A.483.483,0,0,1,4.767,19.938ZM4.748,1.655A1.934,1.934,0,1,0,6.681,3.589,1.935,1.935,0,0,0,4.748,1.655Z" transform="translate(0)" fill="#2F4F4F"/>
  </g>
</svg>
