<svg width="17" height="10" viewBox="0 0 17 10" fill="none" xmlns="http://www.w3.org/2000/svg">
<path d="M4.63636 6.66667C3.78636 6.66667 3.09091 5.91667 3.09091 5C3.09091 4.08333 3.78636 3.33333 4.63636 3.33333C5.48636 3.33333 6.18182 4.08333 6.18182 5C6.18182 5.91667 5.48636 6.66667 4.63636 6.66667ZM8.96364 3.33333C8.34545 1.41667 6.64545 0 4.63636 0C2.08636 0 0 2.25 0 5C0 7.75 2.08636 10 4.63636 10C6.64545 10 8.34545 8.58333 8.96364 6.66667H11.5909V10H14.6818V6.66667H17V3.33333H8.96364Z" fill="#2D6759"/>
</svg>
