
<svg xmlns="http://www.w3.org/2000/svg" xmlns:xlink="http://www.w3.org/1999/xlink" width="176.161" height="141.934" viewBox="0 0 176.161 141.934">
  <defs>
    <linearGradient id="linear-gradient" x1="0.5" x2="0.5" y2="1" gradientUnits="objectBoundingBox">
      <stop offset="0" stop-color="#00836a"/>
      <stop offset="1" stop-color="#073e39"/>
    </linearGradient>
    <linearGradient id="linear-gradient-6" y1="1" y2="0" xlink:href="#linear-gradient"/>
  </defs>
  <g id="illustration" transform="translate(-57 -461)">
    <g id="Group_39521" data-name="Group 39521" transform="translate(57 527.317)" opacity="0.272">
      <circle id="Ellipse_1999" data-name="Ellipse 1999" cx="32.414" cy="32.414" r="32.414" transform="translate(8.454 0)" fill="url(#linear-gradient)"/>
      <path id="Path_25533" data-name="Path 25533" d="M2.777,5.554A2.777,2.777,0,1,0,0,2.777,2.777,2.777,0,0,0,2.777,5.554Z" transform="translate(51.087 67.806) rotate(39)" fill="url(#linear-gradient)"/>
      <path id="Path_25534" data-name="Path 25534" d="M1.9,3.793A1.9,1.9,0,1,0,0,1.9,1.9,1.9,0,0,0,1.9,3.793Z" transform="translate(60.641 63.866) rotate(39)" fill="url(#linear-gradient)"/>
      <path id="Path_25535" data-name="Path 25535" d="M15.805,7.3A3.522,3.522,0,1,0,12.284,3.78,3.522,3.522,0,0,0,15.805,7.3Z" transform="translate(-12.283 16.105)" fill="url(#linear-gradient)"/>
    </g>
    <g id="Group_39533" data-name="Group 39533" transform="matrix(0.799, -0.602, 0.602, 0.799, 199.566, 482.285)" opacity="0.272">
      <circle id="Ellipse_1999-2" data-name="Ellipse 1999" cx="11.994" cy="11.994" r="11.994" transform="translate(0 0)" fill="url(#linear-gradient)"/>
      <path id="Path_25533-2" data-name="Path 25533" d="M1.027,0A1.027,1.027,0,1,1,0,1.027,1.028,1.028,0,0,1,1.027,0Z" transform="translate(9.506 26.687) rotate(141)" fill="url(#linear-gradient-6)"/>
      <path id="Path_25534-2" data-name="Path 25534" d="M.7,0A.7.7,0,1,1,0,.7.7.7,0,0,1,.7,0Z" transform="translate(5.561 24.723) rotate(141)" fill="url(#linear-gradient-6)"/>
      <path id="Path_25535-2" data-name="Path 25535" d="M1.3,2.606a1.3,1.3,0,1,1,1.3-1.3A1.3,1.3,0,0,1,1.3,2.606Z" transform="translate(24.51 6.055)" fill="url(#linear-gradient)"/>
    </g>
    <g id="Ellipse_2007" data-name="Ellipse 2007" transform="translate(92.646 461)" fill="#f7f2ec" stroke="#002c27" stroke-width="2">
      <circle cx="63.206" cy="63.206" r="63.206" stroke="none"/>
      <circle cx="63.206" cy="63.206" r="62.206" fill="none"/>
    </g>
    <g id="Group_39720" data-name="Group 39720" transform="translate(97.691 466.379)">
      <g id="Group_39719" data-name="Group 39719" transform="translate(0 0)">
        <path id="Path_27264" data-name="Path 27264" d="M511.6,1209.586a58.4,58.4,0,0,1-17.376,41.655,57.642,57.642,0,0,1-40.965,16.8,58.456,58.456,0,1,1,58.341-58.455Z" transform="translate(-394.923 -1151.13)" fill="url(#linear-gradient)"/>
      </g>
    </g>
    <g id="Ellipse_2008" data-name="Ellipse 2008" transform="translate(102.06 470.414)" fill="#f7f2ec" stroke="#002c27" stroke-width="2">
      <circle cx="53.793" cy="53.793" r="53.793" stroke="none"/>
      <circle cx="53.793" cy="53.793" r="52.793" fill="none"/>
    </g>
    <g id="Rectangle_7600" data-name="Rectangle 7600" transform="translate(110.179 570.413) rotate(-90)" fill="none" stroke="#002c27" stroke-width="1.5" stroke-dasharray="1.5 1.5">
      <rect width="92" height="92" rx="43" stroke="none"/>
      <rect x="0.75" y="0.75" width="90.5" height="90.5" rx="42.25" fill="none"/>
    </g>
    <path id="seedwords" d="M28.076,4.83H25.65A3.271,3.271,0,0,0,22.435,2h-7.57a3.271,3.271,0,0,0-3.216,2.83H9.2A5.145,5.145,0,0,0,4.06,9.975V33.586A5.145,5.145,0,0,0,9.2,38.75H28.076a5.163,5.163,0,0,0,5.163-5.163V9.975A5.145,5.145,0,0,0,28.076,4.83ZM14.368,14.7a1.4,1.4,0,0,1-1.378,1.378H11.153a1.378,1.378,0,0,1,0-2.756H12.99A1.4,1.4,0,0,1,14.368,14.7ZM9.7,29.82a1.4,1.4,0,0,1,1.378-1.378H26.2a1.378,1.378,0,0,1,0,2.756H11.079A1.4,1.4,0,0,1,9.7,29.82Zm16.537-6.192H11.079a1.378,1.378,0,0,1,0-2.756H26.2a1.378,1.378,0,0,1,0,2.756ZM14.405,5.252a.5.5,0,0,1,.5-.5h7.57a.514.514,0,0,1,.5.5V7.09a.514.514,0,0,1-.5.514H14.864a.5.5,0,0,1-.5-.514Z" transform="translate(138.94 502.632)" stroke="#002c27" stroke-width="1" fill="url(#linear-gradient)"/>
  </g>
</svg>
