<svg width="125" height="118" viewBox="0 0 125 118" fill="none" xmlns="http://www.w3.org/2000/svg">
<path opacity="0.4" d="M121.422 31.1534C121.281 31.1181 121.158 31.0302 121.079 30.9075C121 30.7849 120.971 30.6368 120.997 30.4934C121.024 30.3499 121.104 30.222 121.222 30.1356C121.339 30.0493 121.485 30.011 121.63 30.0285C121.775 30.0461 121.907 30.1183 122.001 30.2302C122.094 30.3422 122.141 30.4856 122.133 30.6312C122.124 30.7768 122.06 30.9137 121.954 31.0138C121.848 31.114 121.708 31.17 121.562 31.1704C121.515 31.1705 121.468 31.1648 121.422 31.1534ZM123.189 29.0594C123.189 28.893 123.239 28.7304 123.331 28.5921C123.423 28.4538 123.555 28.346 123.708 28.2824C123.862 28.2187 124.031 28.2021 124.194 28.2345C124.357 28.267 124.507 28.3471 124.625 28.4647C124.743 28.5823 124.823 28.7322 124.855 28.8953C124.888 29.0584 124.871 29.2275 124.807 29.3812C124.744 29.5349 124.636 29.6662 124.497 29.7586C124.359 29.851 124.197 29.9004 124.03 29.9004C123.92 29.9004 123.81 29.8786 123.708 29.8363C123.606 29.7941 123.514 29.7321 123.436 29.654C123.278 29.4963 123.189 29.2824 123.189 29.0594ZM120.739 10.2584C120.739 10.0475 120.802 9.84148 120.919 9.66629C121.037 9.4911 121.203 9.35462 121.398 9.27412C121.593 9.19362 121.807 9.17271 122.014 9.21404C122.221 9.25536 122.411 9.35707 122.56 9.50629C122.709 9.65551 122.81 9.84555 122.851 10.0524C122.892 10.2592 122.871 10.4735 122.79 10.6682C122.709 10.8629 122.572 11.0293 122.397 11.1463C122.221 11.2632 122.015 11.3256 121.804 11.3254C121.664 11.3254 121.526 11.2977 121.396 11.2441C121.267 11.1905 121.149 11.1118 121.05 11.0127C120.952 10.9136 120.873 10.796 120.82 10.6665C120.766 10.5371 120.739 10.3984 120.739 10.2584Z" fill="#888888"/>
<path opacity="0.4" d="M115.059 29.8994C120.477 29.8994 124.869 25.5073 124.869 20.0894C124.869 14.6714 120.477 10.2794 115.059 10.2794C109.641 10.2794 105.249 14.6714 105.249 20.0894C105.249 25.5073 109.641 29.8994 115.059 29.8994Z" fill="#2D6759"/>
<path opacity="0.4" d="M26.512 111.647C41.1542 111.647 53.024 99.7772 53.024 85.135C53.024 70.4928 41.1542 58.623 26.512 58.623C11.8698 58.623 0 70.4928 0 85.135C0 99.7772 11.8698 111.647 26.512 111.647Z" fill="#2D6759"/>
<path opacity="0.4" d="M19.1846 115.33C19.1846 114.881 19.3178 114.442 19.5673 114.068C19.8169 113.695 20.1715 113.404 20.5865 113.232C21.0015 113.06 21.4581 113.015 21.8986 113.103C22.3392 113.19 22.7438 113.407 23.0614 113.724C23.379 114.042 23.5953 114.446 23.683 114.887C23.7706 115.327 23.7256 115.784 23.5537 116.199C23.3818 116.614 23.0908 116.969 22.7173 117.218C22.3438 117.468 21.9048 117.601 21.4556 117.601C20.8533 117.601 20.2756 117.362 19.8498 116.936C19.4239 116.51 19.1846 115.932 19.1846 115.33ZM27.1276 115.439C27.1276 115.132 27.2186 114.832 27.3891 114.577C27.5595 114.322 27.8018 114.123 28.0853 114.006C28.3687 113.889 28.6807 113.858 28.9815 113.918C29.2824 113.978 29.5588 114.126 29.7757 114.343C29.9925 114.56 30.1402 114.836 30.1999 115.137C30.2596 115.438 30.2288 115.75 30.1112 116.033C29.9937 116.317 29.7947 116.559 29.5396 116.729C29.2844 116.899 28.9844 116.99 28.6776 116.99C28.2664 116.99 27.8722 116.826 27.5815 116.535C27.2909 116.245 27.1276 115.85 27.1276 115.439ZM6.30859 59.263C6.30859 58.6932 6.47756 58.1362 6.79413 57.6624C7.1107 57.1886 7.56065 56.8194 8.08708 56.6013C8.61352 56.3833 9.19279 56.3262 9.75165 56.4374C10.3105 56.5485 10.8239 56.8229 11.2268 57.2258C11.6297 57.6288 11.9041 58.1421 12.0152 58.701C12.1264 59.2598 12.0693 59.8391 11.8513 60.3655C11.6332 60.892 11.264 61.3419 10.7902 61.6585C10.3164 61.9751 9.7594 62.144 9.18959 62.144C8.42551 62.144 7.69271 61.8405 7.15242 61.3002C6.61213 60.7599 6.30859 60.0271 6.30859 59.263Z" fill="#888888"/>
<path d="M40.0557 5.00011L40.0557 107.412C40.0557 110.174 42.2942 112.412 45.0557 112.412H105.98C108.741 112.412 110.98 110.174 110.98 107.412V5.00011C110.98 2.23869 108.741 0.000106812 105.98 0.000106812H45.0557C42.2942 0.000106812 40.0557 2.23869 40.0557 5.00011Z" fill="#F7F2EC"/>
<path d="M87.3298 77.254C87.3298 77.228 87.3041 77.2279 87.2766 77.2001L86.0937 76.3496L80.8349 68.8729L83.9367 64.4257L85.2184 63.4992C85.4896 63.3283 85.6982 63.0725 85.8123 62.7704C85.9264 62.4684 85.9397 62.1368 85.8503 61.8263C85.7609 61.5159 85.5738 61.2437 85.3172 61.0509C85.0606 60.8582 84.7489 60.7557 84.4294 60.7589H82.4572C82.2627 60.7549 82.0694 60.7904 81.8888 60.8636C81.7082 60.9369 81.5441 61.0462 81.4062 61.1851C81.2698 61.3252 81.1622 61.4913 81.0899 61.6739C81.0176 61.8565 80.982 62.0519 80.9851 62.2486C80.9893 62.42 81.0157 62.59 81.0638 62.7544L75.4111 70.8168V53.4656L75.8047 52.9096C75.8578 52.8299 75.9879 52.6169 76.041 52.5113C76.1407 52.274 76.1785 52.0148 76.151 51.7585C76.1234 51.5022 76.0315 51.2573 75.8836 51.0474L80.1426 48.5719C80.8276 48.1673 81.3963 47.5889 81.7929 46.8938C82.1895 46.1988 82.4001 45.411 82.404 44.6084L82.3785 38.5695C82.374 37.7773 82.1656 37.0001 81.7739 36.3141C81.3822 35.6282 80.8205 35.0574 80.1444 34.658L74.9113 31.5987C74.2303 31.2064 73.46 31 72.6763 31C71.8927 31 71.1226 31.2064 70.4415 31.5987L65.2614 34.6062C64.5761 35.0109 64.0068 35.5895 63.6102 36.285C63.2136 36.9804 63.0034 37.7686 63 38.5715L63.0255 44.6102C63.0352 45.4046 63.2489 46.1828 63.6453 46.8685C64.0418 47.5542 64.6075 48.1241 65.2871 48.5219L69.8353 51.1826C69.723 51.3734 69.6554 51.5875 69.6373 51.8087C69.6192 52.03 69.6514 52.2527 69.7312 52.4595C69.7763 52.5904 69.8378 52.7149 69.9142 52.83L70.3865 53.4952V76.9631L69.8867 77.6541C69.6664 77.9787 69.5815 78.3782 69.6505 78.7658C69.7106 79.15 69.9187 79.4946 70.2292 79.724C70.4856 79.8987 70.788 79.9915 71.0971 79.9907H74.6987C75.0872 79.9907 75.46 79.8346 75.7348 79.5566C76.0095 79.2786 76.1637 78.9016 76.1637 78.5084C76.1407 78.2083 76.0504 77.9175 75.9 77.6579L75.4002 76.9667V76.6202L77.7402 73.2682L81.0528 78.0302C80.97 78.2604 80.9515 78.5093 80.9996 78.7493C81.031 78.9456 81.1006 79.1337 81.2044 79.3026C81.3081 79.4715 81.4438 79.6179 81.6038 79.7332C81.8588 79.889 82.1472 79.9804 82.4445 79.9999H86.5204C86.8399 80.0032 87.1517 79.9007 87.4082 79.7079C87.6648 79.5152 87.8522 79.243 87.9416 78.9325C88.031 78.6221 88.0174 78.2904 87.9034 77.9884C87.7893 77.6864 87.5809 77.4303 87.3097 77.2594L87.3298 77.254ZM73.9461 46.8432H71.5804L67.6363 44.5806L67.5576 38.6215L72.6571 35.6419L77.8372 38.5955L77.8629 44.5824L73.9461 46.8432Z" fill="#041513"/>
<path d="M40.8057 5.00011L40.8057 107.412C40.8057 109.759 42.7085 111.662 45.0557 111.662H105.98C108.327 111.662 110.23 109.759 110.23 107.412V5.00011C110.23 2.65289 108.327 0.750107 105.98 0.750107H45.0557C42.7085 0.750107 40.8057 2.65289 40.8057 5.00011Z" stroke="#002C27" stroke-width="1.5"/>
<path d="M47.0322 11.226L47.0322 101.541C47.0322 103.888 48.935 105.791 51.2822 105.791H100.249C102.596 105.791 104.499 103.888 104.499 101.541V11.226C104.499 8.8788 102.596 6.97601 100.249 6.97601H51.2822C48.935 6.97601 47.0322 8.8788 47.0322 11.226Z" stroke="#002C27" stroke-width="1.5" stroke-dasharray="1.5 2"/>
</svg>
