<svg xmlns="http://www.w3.org/2000/svg" width="246.248" height="240.963" viewBox="0 0 246.248 240.963">
  <g id="illustration" transform="translate(-63.552 -229.836)">
    <g id="Group_41681" data-name="Group 41681" transform="translate(-20.189 -13.164)">
      <g id="Group_41669" data-name="Group 41669" transform="translate(52.19 6.438)">
        <g id="Group_41667" data-name="Group 41667" transform="translate(139.589 241.015)">
          <g id="Group_40374" data-name="Group 40374">
            <g id="Group_40373" data-name="Group 40373">
              <circle id="Ellipse_2028" data-name="Ellipse 2028" cx="12.444" cy="12.444" r="12.444" fill="#508b82"/>
            </g>
          </g>
        </g>
        <g id="Group_41666" data-name="Group 41666" transform="translate(134.81 236.562)" opacity="0.696">
          <path id="Path_28153" data-name="Path 28153" d="M22.555,189.264c-.605,0-1.21-.055-1.815-.11l.165-1.76c.55.055,1.1.11,1.65.11h.165v1.76Zm2.036-.11-.22-1.76c.55-.055,1.1-.165,1.65-.275l.385,1.705Zm-5.722-.275a9.247,9.247,0,0,1-1.76-.5l.55-1.65c.55.165,1.045.33,1.6.44Zm9.3-.55-.605-1.65c.5-.165,1.045-.385,1.54-.605l.77,1.6C29.321,187.889,28.716,188.109,28.166,188.329Zm-12.763-.66c-.55-.275-1.1-.55-1.65-.88l.88-1.485c.5.275.99.55,1.485.77Zm16.064-.935-.935-1.485a12.082,12.082,0,0,0,1.375-.935l1.1,1.375C32.512,186.018,32.017,186.4,31.467,186.734ZM12.212,185.8c-.5-.385-.935-.77-1.43-1.21l1.21-1.265a11.605,11.605,0,0,0,1.265,1.045Zm22.171-1.32-1.21-1.265a11.489,11.489,0,0,0,1.1-1.21l1.32,1.1A9.425,9.425,0,0,1,34.383,184.478Zm-24.812-1.21a10.4,10.4,0,0,1-1.1-1.485l1.43-.99.99,1.32Zm27.177-1.65-1.43-.99a7.425,7.425,0,0,0,.825-1.43l1.54.825A15.158,15.158,0,0,1,36.748,181.617ZM7.481,180.242c-.275-.55-.55-1.1-.77-1.65l1.65-.66c.22.5.44.99.715,1.485Zm30.973-1.871-1.65-.66a7.684,7.684,0,0,0,.5-1.6l1.705.44A17.493,17.493,0,0,1,38.454,178.371Zm-32.349-1.54c-.165-.605-.275-1.21-.385-1.815l1.705-.275a13.533,13.533,0,0,0,.385,1.6ZM39.389,174.8l-1.705-.275c.11-.55.11-1.1.165-1.65l1.76.055C39.554,173.585,39.5,174.19,39.389,174.8ZM5.5,173.2v-1.871l1.76.11v1.65Zm32.294-1.981c-.055-.55-.11-1.1-.22-1.65l1.705-.275c.11.605.165,1.21.22,1.816Zm-30.368-1.43-1.705-.275c.11-.605.22-1.21.385-1.816l1.705.44A8.954,8.954,0,0,0,7.426,169.789Zm29.818-1.815a12.7,12.7,0,0,0-.55-1.54l1.6-.66a16.536,16.536,0,0,1,.605,1.76ZM8.306,166.6l-1.65-.66a15.133,15.133,0,0,1,.77-1.65l1.54.825A12.14,12.14,0,0,0,8.306,166.6Zm27.673-1.65c-.275-.5-.55-.935-.88-1.43l1.43-.99c.33.5.66,1.045.99,1.6ZM9.846,163.682l-1.43-.99c.33-.5.715-.99,1.1-1.485l1.32,1.155A5.923,5.923,0,0,0,9.846,163.682ZM34.108,162.2c-.385-.44-.77-.825-1.155-1.21l1.21-1.265c.44.44.88.88,1.265,1.32Zm-22.171-1.045-1.21-1.265c.44-.44.935-.825,1.375-1.21l1.045,1.375C12.762,160.381,12.377,160.767,11.937,161.152Zm19.75-1.21a12.078,12.078,0,0,0-1.375-.935l.88-1.485a15.132,15.132,0,0,1,1.54,1.045Zm-17.11-.825-.935-1.485a14.815,14.815,0,0,1,1.6-.88l.77,1.6A11.817,11.817,0,0,0,14.577,159.116Zm14.3-.88a12.811,12.811,0,0,0-1.54-.605l.55-1.65c.605.22,1.155.44,1.705.66Zm-11.333-.5L17,156.09a10.539,10.539,0,0,1,1.76-.5l.385,1.705A8.629,8.629,0,0,0,17.548,157.741Zm8.2-.5c-.55-.11-1.1-.22-1.65-.275l.165-1.76c.605.055,1.21.165,1.815.275Zm-4.951-.275-.22-1.76c.605-.055,1.21-.11,1.815-.11v1.76C21.894,156.915,21.344,156.915,20.794,156.971Z" transform="translate(-5.5 -155.1)" fill="#fff"/>
        </g>
      </g>
      <path id="trezor" d="M14.128,145.3c0,1.011-.056,2.026.011,3.033a6.73,6.73,0,0,1-1.8,5.3c-.2.219-.365.478-.56.707-.35.411-.466,1.149-1.006,1.233A17.472,17.472,0,0,1,8,155.624c-.279,0-.432-.238-.546-.448a14.109,14.109,0,0,0-1.768-2.356,5.465,5.465,0,0,1-1.262-3.637c-.025-2.705.005-5.411-.018-8.116-.006-.693.254-1.01.954-1.007q3.894.014,7.789,0c.682,0,1,.269.987.978-.025,1.421-.007,2.842-.008,4.263m-4.875-3.121c-.928,0-1.856.018-2.784-.007-.5-.013-.685.189-.682.673q.017,2.824,0,5.649c0,.456.2.642.635.642q2.825-.006,5.65,0c.476,0,.687-.181.682-.68q-.024-2.783,0-5.567c0-.522-.184-.736-.721-.719-.927.029-1.856.008-2.784.008" transform="translate(194.771 112.227)" fill="#fff"/>
    </g>
    <g id="Group_41683" data-name="Group 41683" transform="translate(38 -10.881)">
      <g id="Group_41682" data-name="Group 41682" transform="translate(26 36)">
        <g id="Group_41669-2" data-name="Group 41669" transform="translate(52.19 6.438)">
          <g id="Group_41667-2" data-name="Group 41667" transform="translate(139.589 241.015)">
            <g id="Group_40374-2" data-name="Group 40374">
              <g id="Group_40373-2" data-name="Group 40373">
                <circle id="Ellipse_2028-2" data-name="Ellipse 2028" cx="12.444" cy="12.444" r="12.444" fill="#508b82"/>
              </g>
            </g>
          </g>
          <g id="Group_41666-2" data-name="Group 41666" transform="translate(134.81 236.562)" opacity="0.696">
            <path id="Path_28153-2" data-name="Path 28153" d="M22.555,189.264c-.605,0-1.21-.055-1.815-.11l.165-1.76c.55.055,1.1.11,1.65.11h.165v1.76Zm2.036-.11-.22-1.76c.55-.055,1.1-.165,1.65-.275l.385,1.705Zm-5.722-.275a9.247,9.247,0,0,1-1.76-.5l.55-1.65c.55.165,1.045.33,1.6.44Zm9.3-.55-.605-1.65c.5-.165,1.045-.385,1.54-.605l.77,1.6C29.321,187.889,28.716,188.109,28.166,188.329Zm-12.763-.66c-.55-.275-1.1-.55-1.65-.88l.88-1.485c.5.275.99.55,1.485.77Zm16.064-.935-.935-1.485a12.082,12.082,0,0,0,1.375-.935l1.1,1.375C32.512,186.018,32.017,186.4,31.467,186.734ZM12.212,185.8c-.5-.385-.935-.77-1.43-1.21l1.21-1.265a11.605,11.605,0,0,0,1.265,1.045Zm22.171-1.32-1.21-1.265a11.489,11.489,0,0,0,1.1-1.21l1.32,1.1A9.425,9.425,0,0,1,34.383,184.478Zm-24.812-1.21a10.4,10.4,0,0,1-1.1-1.485l1.43-.99.99,1.32Zm27.177-1.65-1.43-.99a7.425,7.425,0,0,0,.825-1.43l1.54.825A15.158,15.158,0,0,1,36.748,181.617ZM7.481,180.242c-.275-.55-.55-1.1-.77-1.65l1.65-.66c.22.5.44.99.715,1.485Zm30.973-1.871-1.65-.66a7.684,7.684,0,0,0,.5-1.6l1.705.44A17.493,17.493,0,0,1,38.454,178.371Zm-32.349-1.54c-.165-.605-.275-1.21-.385-1.815l1.705-.275a13.533,13.533,0,0,0,.385,1.6ZM39.389,174.8l-1.705-.275c.11-.55.11-1.1.165-1.65l1.76.055C39.554,173.585,39.5,174.19,39.389,174.8ZM5.5,173.2v-1.871l1.76.11v1.65Zm32.294-1.981c-.055-.55-.11-1.1-.22-1.65l1.705-.275c.11.605.165,1.21.22,1.816Zm-30.368-1.43-1.705-.275c.11-.605.22-1.21.385-1.816l1.705.44A8.954,8.954,0,0,0,7.426,169.789Zm29.818-1.815a12.7,12.7,0,0,0-.55-1.54l1.6-.66a16.536,16.536,0,0,1,.605,1.76ZM8.306,166.6l-1.65-.66a15.133,15.133,0,0,1,.77-1.65l1.54.825A12.14,12.14,0,0,0,8.306,166.6Zm27.673-1.65c-.275-.5-.55-.935-.88-1.43l1.43-.99c.33.5.66,1.045.99,1.6ZM9.846,163.682l-1.43-.99c.33-.5.715-.99,1.1-1.485l1.32,1.155A5.923,5.923,0,0,0,9.846,163.682ZM34.108,162.2c-.385-.44-.77-.825-1.155-1.21l1.21-1.265c.44.44.88.88,1.265,1.32Zm-22.171-1.045-1.21-1.265c.44-.44.935-.825,1.375-1.21l1.045,1.375C12.762,160.381,12.377,160.767,11.937,161.152Zm19.75-1.21a12.078,12.078,0,0,0-1.375-.935l.88-1.485a15.132,15.132,0,0,1,1.54,1.045Zm-17.11-.825-.935-1.485a14.815,14.815,0,0,1,1.6-.88l.77,1.6A11.817,11.817,0,0,0,14.577,159.116Zm14.3-.88a12.811,12.811,0,0,0-1.54-.605l.55-1.65c.605.22,1.155.44,1.705.66Zm-11.333-.5L17,156.09a10.539,10.539,0,0,1,1.76-.5l.385,1.705A8.629,8.629,0,0,0,17.548,157.741Zm8.2-.5c-.55-.11-1.1-.22-1.65-.275l.165-1.76c.605.055,1.21.165,1.815.275Zm-4.951-.275-.22-1.76c.605-.055,1.21-.11,1.815-.11v1.76C21.894,156.915,21.344,156.915,20.794,156.971Z" transform="translate(-5.5 -155.1)" fill="#fff"/>
          </g>
        </g>
      </g>
      <path id="ledger" d="M104.763,77.332c-.634,1.092-1.3,2.17-1.892,3.283-.293.548-.529.716-1.117.325a26.665,26.665,0,0,0-2.916-1.682c-.739-.366-.88-.659-.415-1.437,2.144-3.589,4.21-7.225,6.294-10.849.239-.415.585-.775.39-1.372-.309-.941.251-1.151,1.04-1a8.081,8.081,0,0,0,2.841.01c.384-.063.995-.243,1.166.149a1.059,1.059,0,0,1-.2,1.344c-.36.316.423,2.515.905,2.827s.433,1.611-.107,1.693c-.621.095-.515.438-.516.8-.005,1.512,0,3.024,0,4.536,0,.386-.058.714.545.792.468.06.574,1.531.146,1.584-.877.107-.684.663-.688,1.171-.018,2.4-.016,2.4-2.385,2.393-.887,0-2.066.3-2.583-.145-.614-.53-.146-1.744-.2-2.66-.034-.57-.006-1.144-.006-1.716l-.3-.045m2.649-11.766c-.806.017-1.26.677-1.678,1.4q-2.7,4.674-5.4,9.342c-1.223,2.119-1.206,2.1.956,3.35.617.357.917.384,1.317-.327,2.007-3.574,4.085-7.108,6.131-10.661a4.488,4.488,0,0,0,.433-.945,1.708,1.708,0,0,0-1.757-2.162m1.317,5.379c-.839,1.213-2.011,2.261-2.165,3.76-.13,1.262.032,2.551-.037,3.823-.049.89.489.808,1.025.761.493-.044,1.209.333,1.191-.715-.043-2.542-.014-5.086-.014-7.629" transform="translate(124.845 222.828)" fill="#fff"/>
    </g>
    <g id="Group_41686" data-name="Group 41686" transform="translate(-102.448 72.918)">
      <g id="Group_41685" data-name="Group 41685">
        <g id="Group_41684" data-name="Group 41684" transform="translate(-47 8)">
          <g id="Group_41682-2" data-name="Group 41682" transform="translate(26 36)">
            <g id="Group_41669-3" data-name="Group 41669" transform="translate(52.19 6.438)">
              <g id="Group_41667-3" data-name="Group 41667" transform="translate(139.589 241.015)">
                <g id="Group_40374-3" data-name="Group 40374">
                  <g id="Group_40373-3" data-name="Group 40373">
                    <circle id="Ellipse_2028-3" data-name="Ellipse 2028" cx="12.444" cy="12.444" r="12.444" fill="#508b82"/>
                  </g>
                </g>
              </g>
              <g id="Group_41666-3" data-name="Group 41666" transform="translate(134.81 236.562)" opacity="0.696">
                <path id="Path_28153-3" data-name="Path 28153" d="M22.555,189.264c-.605,0-1.21-.055-1.815-.11l.165-1.76c.55.055,1.1.11,1.65.11h.165v1.76Zm2.036-.11-.22-1.76c.55-.055,1.1-.165,1.65-.275l.385,1.705Zm-5.722-.275a9.247,9.247,0,0,1-1.76-.5l.55-1.65c.55.165,1.045.33,1.6.44Zm9.3-.55-.605-1.65c.5-.165,1.045-.385,1.54-.605l.77,1.6C29.321,187.889,28.716,188.109,28.166,188.329Zm-12.763-.66c-.55-.275-1.1-.55-1.65-.88l.88-1.485c.5.275.99.55,1.485.77Zm16.064-.935-.935-1.485a12.082,12.082,0,0,0,1.375-.935l1.1,1.375C32.512,186.018,32.017,186.4,31.467,186.734ZM12.212,185.8c-.5-.385-.935-.77-1.43-1.21l1.21-1.265a11.605,11.605,0,0,0,1.265,1.045Zm22.171-1.32-1.21-1.265a11.489,11.489,0,0,0,1.1-1.21l1.32,1.1A9.425,9.425,0,0,1,34.383,184.478Zm-24.812-1.21a10.4,10.4,0,0,1-1.1-1.485l1.43-.99.99,1.32Zm27.177-1.65-1.43-.99a7.425,7.425,0,0,0,.825-1.43l1.54.825A15.158,15.158,0,0,1,36.748,181.617ZM7.481,180.242c-.275-.55-.55-1.1-.77-1.65l1.65-.66c.22.5.44.99.715,1.485Zm30.973-1.871-1.65-.66a7.684,7.684,0,0,0,.5-1.6l1.705.44A17.493,17.493,0,0,1,38.454,178.371Zm-32.349-1.54c-.165-.605-.275-1.21-.385-1.815l1.705-.275a13.533,13.533,0,0,0,.385,1.6ZM39.389,174.8l-1.705-.275c.11-.55.11-1.1.165-1.65l1.76.055C39.554,173.585,39.5,174.19,39.389,174.8ZM5.5,173.2v-1.871l1.76.11v1.65Zm32.294-1.981c-.055-.55-.11-1.1-.22-1.65l1.705-.275c.11.605.165,1.21.22,1.816Zm-30.368-1.43-1.705-.275c.11-.605.22-1.21.385-1.816l1.705.44A8.954,8.954,0,0,0,7.426,169.789Zm29.818-1.815a12.7,12.7,0,0,0-.55-1.54l1.6-.66a16.536,16.536,0,0,1,.605,1.76ZM8.306,166.6l-1.65-.66a15.133,15.133,0,0,1,.77-1.65l1.54.825A12.14,12.14,0,0,0,8.306,166.6Zm27.673-1.65c-.275-.5-.55-.935-.88-1.43l1.43-.99c.33.5.66,1.045.99,1.6ZM9.846,163.682l-1.43-.99c.33-.5.715-.99,1.1-1.485l1.32,1.155A5.923,5.923,0,0,0,9.846,163.682ZM34.108,162.2c-.385-.44-.77-.825-1.155-1.21l1.21-1.265c.44.44.88.88,1.265,1.32Zm-22.171-1.045-1.21-1.265c.44-.44.935-.825,1.375-1.21l1.045,1.375C12.762,160.381,12.377,160.767,11.937,161.152Zm19.75-1.21a12.078,12.078,0,0,0-1.375-.935l.88-1.485a15.132,15.132,0,0,1,1.54,1.045Zm-17.11-.825-.935-1.485a14.815,14.815,0,0,1,1.6-.88l.77,1.6A11.817,11.817,0,0,0,14.577,159.116Zm14.3-.88a12.811,12.811,0,0,0-1.54-.605l.55-1.65c.605.22,1.155.44,1.705.66Zm-11.333-.5L17,156.09a10.539,10.539,0,0,1,1.76-.5l.385,1.705A8.629,8.629,0,0,0,17.548,157.741Zm8.2-.5c-.55-.11-1.1-.22-1.65-.275l.165-1.76c.605.055,1.21.165,1.815.275Zm-4.951-.275-.22-1.76c.605-.055,1.21-.11,1.815-.11v1.76C21.894,156.915,21.344,156.915,20.794,156.971Z" transform="translate(-5.5 -155.1)" fill="#fff"/>
              </g>
            </g>
          </g>
        </g>
        <g id="tapsigner" transform="translate(174.6 298.751)">
          <path id="Path_27307" data-name="Path 27307" d="M16.654,10.8H.535a.4.4,0,0,1-.4-.4V.535a.4.4,0,0,1,.4-.4H16.654a.4.4,0,0,1,.4.4v9.872A.4.4,0,0,1,16.654,10.8Z" transform="translate(-0.14 -0.14)" fill="#fff"/>
          <path id="Path_28304" data-name="Path 28304" d="M0,0H16.909" transform="translate(0 2.265)" fill="none" stroke="#035f51" stroke-width="2"/>
        </g>
      </g>
    </g>
    <g id="Group_41690" data-name="Group 41690" transform="translate(5.037 99.717)">
      <g id="Group_41684-2" data-name="Group 41684" transform="translate(-11.963 46.082)">
        <g id="Group_41682-3" data-name="Group 41682" transform="translate(213 279)">
          <g id="Group_41669-4" data-name="Group 41669">
            <g id="Group_41667-4" data-name="Group 41667" transform="translate(6.436 5.996)">
              <g id="Group_40374-4" data-name="Group 40374">
                <g id="Group_40373-4" data-name="Group 40373">
                  <circle id="Ellipse_2028-4" data-name="Ellipse 2028" cx="16.756" cy="16.756" r="16.756" fill="#508b82"/>
                </g>
              </g>
            </g>
            <g id="Group_41666-4" data-name="Group 41666" transform="translate(0 0)" opacity="0.696">
              <path id="Path_28153-4" data-name="Path 28153" d="M28.463,201.1c-.815,0-1.63-.074-2.444-.148l.222-2.37c.741.074,1.481.148,2.222.148h.222v2.37Zm2.741-.148-.3-2.37c.741-.074,1.481-.222,2.222-.37l.519,2.3Zm-7.7-.37a12.45,12.45,0,0,1-2.37-.667l.741-2.222c.741.222,1.407.444,2.148.593Zm12.519-.741-.815-2.222c.667-.222,1.407-.519,2.074-.815l1.037,2.148C37.574,199.248,36.759,199.545,36.019,199.841Zm-17.185-.889c-.741-.37-1.481-.741-2.222-1.185l1.185-2c.667.37,1.333.741,2,1.037Zm21.63-1.259-1.259-2a16.266,16.266,0,0,0,1.852-1.259l1.481,1.852C41.87,196.73,41.2,197.248,40.463,197.693Zm-25.926-1.259c-.667-.519-1.259-1.037-1.926-1.63l1.63-1.7a15.625,15.625,0,0,0,1.7,1.407Zm29.852-1.778-1.63-1.7a15.47,15.47,0,0,0,1.481-1.63l1.778,1.481A12.691,12.691,0,0,1,44.389,194.656Zm-33.407-1.63a14,14,0,0,1-1.481-2l1.926-1.333,1.333,1.778ZM47.574,190.8l-1.926-1.333a10,10,0,0,0,1.111-1.926l2.074,1.111A20.411,20.411,0,0,1,47.574,190.8ZM8.167,188.952c-.37-.741-.741-1.481-1.037-2.222l2.222-.889c.3.667.593,1.333.963,2Zm41.7-2.519-2.222-.889a10.346,10.346,0,0,0,.667-2.148l2.3.593A23.552,23.552,0,0,1,49.87,186.433ZM6.315,184.359c-.222-.815-.37-1.63-.519-2.444l2.3-.37a18.221,18.221,0,0,0,.519,2.148Zm44.815-2.741-2.3-.37c.148-.741.148-1.481.222-2.222l2.37.074C51.352,179.989,51.278,180.8,51.13,181.619ZM5.5,179.47v-2.519l2.37.148v2.222ZM48.982,176.8c-.074-.741-.148-1.481-.3-2.222l2.3-.37c.148.815.222,1.63.3,2.444ZM8.093,174.878l-2.3-.37c.148-.815.3-1.63.519-2.444l2.3.593A12.056,12.056,0,0,0,8.093,174.878Zm40.148-2.444a17.094,17.094,0,0,0-.741-2.074l2.148-.889a22.265,22.265,0,0,1,.815,2.37ZM9.278,170.581l-2.222-.889a20.376,20.376,0,0,1,1.037-2.222l2.074,1.111A16.344,16.344,0,0,0,9.278,170.581Zm37.259-2.222c-.37-.667-.741-1.259-1.185-1.926l1.926-1.333c.444.667.889,1.407,1.333,2.148Zm-35.185-1.7-1.926-1.333c.444-.667.963-1.333,1.481-2l1.778,1.556A7.975,7.975,0,0,0,11.352,166.656Zm32.667-2c-.519-.593-1.037-1.111-1.556-1.63l1.63-1.7c.593.593,1.185,1.185,1.7,1.778Zm-29.852-1.407-1.63-1.7c.593-.593,1.259-1.111,1.852-1.63l1.407,1.852C15.278,162.211,14.759,162.73,14.167,163.248Zm26.593-1.63a16.263,16.263,0,0,0-1.852-1.259l1.185-2a20.374,20.374,0,0,1,2.074,1.407Zm-23.037-1.111-1.259-2a19.947,19.947,0,0,1,2.148-1.185l1.037,2.148A15.909,15.909,0,0,0,17.722,160.507Zm19.259-1.185a17.25,17.25,0,0,0-2.074-.815l.741-2.222c.815.3,1.556.593,2.3.889Zm-15.259-.667-.741-2.222a14.19,14.19,0,0,1,2.37-.667l.519,2.3A11.617,11.617,0,0,0,21.722,158.656Zm11.037-.667c-.741-.148-1.481-.3-2.222-.37l.222-2.37c.815.074,1.63.222,2.444.37Zm-6.667-.37-.3-2.37c.815-.074,1.63-.148,2.444-.148v2.37C27.574,157.544,26.833,157.544,26.093,157.619Z" transform="translate(-5.5 -155.1)" fill="#fff"/>
            </g>
          </g>
        </g>
      </g>
      <g id="coldcard" transform="translate(217.369 336.8)">
        <path id="Path_25656" data-name="Path 25656" d="M13.232,11.341c0,3.129,0,6.259,0,9.388,0,1.441-.4,1.831-1.83,1.833q-4.805.005-9.61,0c-1.348,0-1.758-.413-1.762-1.79Q.006,11.383,0,2C0,.36.378,0,2.024,0q4.695,0,9.389,0c1.416,0,1.835.4,1.842,1.841.016,3.166,0,6.332,0,9.5h-.027m-.661,3.8c0-1.95-.029-3.9.015-5.848.015-.685-.194-.875-.871-.869-3.384.032-6.769.038-10.152,0-.774-.01-.894.285-.889.962q.042,5.682,0,11.365c-.007.847.265,1.176,1.145,1.165q4.8-.057,9.6,0c.857.01,1.185-.275,1.165-1.145-.044-1.875-.013-3.751-.014-5.627M5.144,6.6H6.468c2.231,0,2.216,0,2.057-2.211-.033-.462-.151-.644-.637-.638-1.765.022-3.532.017-5.3,0-.441,0-.628.078-.661.593C1.787,6.6,1.765,6.6,4.04,6.6h1.1" transform="translate(0 0)" fill="#fff"/>
        <path id="Path_25657" data-name="Path 25657" d="M9.734,57.166c-.531-.123-.907-.379-.891-.965a.864.864,0,0,1,1-.921.861.861,0,0,1,.821.992c-.037.584-.422.812-.93.894" transform="translate(-6.887 -43.048)" fill="#fff"/>
        <path id="Path_25658" data-name="Path 25658" d="M44.675,56.56c-.012.263-.374.578-.9.581a.844.844,0,0,1-.908-.9.86.86,0,0,1,.963-.958c.516.027.873.369.845,1.279" transform="translate(-33.385 -43.05)" fill="#fff"/>
        <path id="Path_25659" data-name="Path 25659" d="M43.807,69.924c-.523-.06-.925-.275-.949-.864a.849.849,0,0,1,.92-.988.834.834,0,0,1,.9.9c.018.586-.329.854-.866.95" transform="translate(-33.376 -53.013)" fill="#fff"/>
        <path id="Path_25660" data-name="Path 25660" d="M10.688,43.544a.859.859,0,0,1-.894.917.831.831,0,0,1-.931-.868.841.841,0,0,1,.936-.97.856.856,0,0,1,.89.921" transform="translate(-6.901 -33.194)" fill="#fff"/>
        <path id="Path_25661" data-name="Path 25661" d="M27.69,69.037a.85.85,0,0,1-.928.863.828.828,0,0,1-.9-.9.843.843,0,0,1,.974-.934c.567.03.836.4.85.974" transform="translate(-20.145 -53.004)" fill="#fff"/>
        <path id="Path_25662" data-name="Path 25662" d="M9.688,67.963c.6.053.959.314.989.887a.844.844,0,0,1-.938.969.824.824,0,0,1-.88-.913.9.9,0,0,1,.828-.942" transform="translate(-6.9 -52.929)" fill="#fff"/>
        <path id="Path_25663" data-name="Path 25663" d="M26.8,44.5a.893.893,0,0,1-.949-.864.825.825,0,0,1,.807-.979.838.838,0,0,1,1.011.886.893.893,0,0,1-.87.957" transform="translate(-20.127 -33.217)" fill="#fff"/>
        <path id="Path_25664" data-name="Path 25664" d="M43.766,42.548a.881.881,0,0,1,.911.9.912.912,0,1,1-1.822.022c0-.574.353-.852.911-.918" transform="translate(-33.376 -33.136)" fill="#fff"/>
        <path id="Path_25665" data-name="Path 25665" d="M26.747,55.185c.519.1.9.339.915.92a.913.913,0,1,1-1.825.014c.013-.581.385-.832.91-.934" transform="translate(-20.121 -42.977)" fill="#fff"/>
        <path id="Path_25666" data-name="Path 25666" d="M26.765,80.858a.91.91,0,1,1-.041,1.818.818.818,0,0,1-.86-.925.839.839,0,0,1,.9-.893" transform="translate(-20.143 -62.971)" fill="#fff"/>
        <path id="Path_25667" data-name="Path 25667" d="M44.7,81.793c-.064.6-.36.923-.929.914a.83.83,0,0,1-.9-.991.817.817,0,0,1,.963-.813.851.851,0,0,1,.861.89" transform="translate(-33.387 -63.004)" fill="#fff"/>
        <path id="Path_25668" data-name="Path 25668" d="M9.8,80.868a.833.833,0,0,1,.895.881.817.817,0,0,1-.847.932.829.829,0,0,1-.962-.926c.006-.571.343-.852.914-.887" transform="translate(-6.916 -62.979)" fill="#fff"/>
      </g>
    </g>
    <g id="Group_41691" data-name="Group 41691" transform="translate(-7.822 -39)">
      <g id="Group_41687" data-name="Group 41687" transform="translate(-129.5 22)">
        <g id="Group_41682-4" data-name="Group 41682" transform="translate(213 279)">
          <g id="Group_41669-5" data-name="Group 41669">
            <g id="Group_41667-5" data-name="Group 41667" transform="translate(7.052 6.57)">
              <g id="Group_40374-5" data-name="Group 40374">
                <g id="Group_40373-5" data-name="Group 40373">
                  <circle id="Ellipse_2028-5" data-name="Ellipse 2028" cx="18.359" cy="18.359" r="18.359" fill="#508b82"/>
                </g>
              </g>
            </g>
            <g id="Group_41666-5" data-name="Group 41666" transform="translate(0)" opacity="0.696">
              <path id="Path_28153-5" data-name="Path 28153" d="M30.661,205.5c-.893,0-1.786-.081-2.678-.162l.243-2.6c.812.081,1.623.162,2.435.162H30.9v2.6Zm3-.162-.325-2.6c.812-.081,1.623-.243,2.435-.406l.568,2.516Zm-8.441-.406a13.641,13.641,0,0,1-2.6-.73l.812-2.435c.812.243,1.542.487,2.354.649Zm13.717-.812-.893-2.435c.73-.244,1.542-.568,2.273-.893l1.136,2.354C40.644,203.474,39.751,203.8,38.939,204.123Zm-18.83-.974c-.812-.406-1.623-.812-2.435-1.3l1.3-2.191c.73.406,1.461.812,2.191,1.136Zm23.7-1.38-1.38-2.191a17.822,17.822,0,0,0,2.029-1.38l1.623,2.029C45.351,200.714,44.621,201.282,43.809,201.769ZM15.4,200.389c-.73-.568-1.38-1.136-2.11-1.786l1.786-1.867a17.123,17.123,0,0,0,1.867,1.542Zm32.709-1.948-1.786-1.867a16.953,16.953,0,0,0,1.623-1.786l1.948,1.623A13.906,13.906,0,0,1,48.111,198.441Zm-36.6-1.786a15.343,15.343,0,0,1-1.623-2.191L11.993,193l1.461,1.948ZM51.6,194.221l-2.11-1.461a10.954,10.954,0,0,0,1.217-2.11l2.273,1.217A22.364,22.364,0,0,1,51.6,194.221ZM8.422,192.192c-.406-.812-.812-1.623-1.136-2.435l2.435-.974c.325.73.649,1.461,1.055,2.191Zm45.7-2.76-2.435-.974a11.337,11.337,0,0,0,.73-2.354l2.516.649A25.8,25.8,0,0,1,54.117,189.432ZM6.393,187.16c-.243-.893-.406-1.786-.568-2.678l2.516-.406a19.966,19.966,0,0,0,.568,2.354Zm49.1-3-2.516-.406c.162-.812.162-1.623.243-2.435l2.6.081C55.74,182.371,55.659,183.264,55.5,184.157ZM5.5,181.8v-2.76l2.6.162v2.435Zm47.643-2.922c-.081-.812-.162-1.623-.325-2.435l2.516-.406c.162.893.243,1.786.325,2.678Zm-44.8-2.11-2.516-.406c.162-.893.325-1.786.568-2.678l2.516.649A13.21,13.21,0,0,0,8.341,176.771Zm43.991-2.678a18.728,18.728,0,0,0-.812-2.273l2.354-.974a24.4,24.4,0,0,1,.893,2.6ZM9.639,172.063,7.2,171.089a22.329,22.329,0,0,1,1.136-2.435l2.273,1.217A17.912,17.912,0,0,0,9.639,172.063Zm40.825-2.435c-.406-.73-.812-1.38-1.3-2.11l2.11-1.461c.487.73.974,1.542,1.461,2.354Zm-38.553-1.867L9.8,166.3c.487-.73,1.055-1.461,1.623-2.191l1.948,1.7A8.738,8.738,0,0,0,11.912,167.762Zm35.793-2.191c-.568-.649-1.136-1.217-1.7-1.786l1.786-1.867c.649.649,1.3,1.3,1.867,1.948ZM15,164.028l-1.786-1.867c.649-.649,1.38-1.217,2.029-1.786l1.542,2.029C16.214,162.892,15.645,163.46,15,164.028Zm29.138-1.786a17.818,17.818,0,0,0-2.029-1.38l1.3-2.191a22.325,22.325,0,0,1,2.273,1.542Zm-25.242-1.217-1.38-2.191a21.861,21.861,0,0,1,2.354-1.3L21,159.889A17.433,17.433,0,0,0,18.892,161.025Zm21.1-1.3a18.9,18.9,0,0,0-2.273-.893l.812-2.435c.893.325,1.7.649,2.516.974ZM23.275,159l-.812-2.435a15.549,15.549,0,0,1,2.6-.73l.568,2.516A12.732,12.732,0,0,0,23.275,159Zm12.093-.73c-.812-.162-1.623-.325-2.435-.406l.243-2.6c.893.081,1.786.243,2.678.406Zm-7.3-.406-.325-2.6c.893-.081,1.786-.162,2.678-.162v2.6C29.687,157.778,28.875,157.778,28.063,157.86Z" transform="translate(-5.5 -155.1)" fill="#fff"/>
            </g>
          </g>
        </g>
      </g>
      <g id="Group_41155" data-name="Group 41155" transform="translate(104.254 311.68)">
        <path id="Path_28305" data-name="Path 28305" d="M1.5,2.147a.932.932,0,0,1,.592-.8A3.536,3.536,0,0,1,3.724,1H8.088a3.536,3.536,0,0,1,1.632.352.932.932,0,0,1,.592.8V26.2a1.371,1.371,0,0,1-.642,1.166,2.834,2.834,0,0,1-1.582.44H3.724a2.834,2.834,0,0,1-1.582-.44A1.371,1.371,0,0,1,1.5,26.2Z" transform="translate(-1.5 -1)" fill="#04594c" stroke="#fff" stroke-width="1"/>
        <rect id="Rectangle_7781" data-name="Rectangle 7781" width="6.601" height="6.885" rx="0.75" transform="translate(1.102 17.625)" fill="#fff"/>
        <rect id="Rectangle_7794" data-name="Rectangle 7794" width="3.574" height="3.574" rx="1.787" transform="translate(2.737 12.509)" fill="#fff"/>
        <rect id="Rectangle_7796" data-name="Rectangle 7796" width="5.957" height="8.339" rx="1.25" transform="translate(1.426 2.978)" fill="#fff"/>
        <line id="Line_828" data-name="Line 828" x2="0.459" transform="translate(4.223 1.469)" fill="none" stroke="#fff" stroke-linecap="round" stroke-linejoin="round" stroke-width="1"/>
      </g>
    </g>
    <g id="Group_41692" data-name="Group 41692" transform="translate(134.716 1.881)">
      <g id="Group_41688" data-name="Group 41688" transform="translate(-77.054 75)">
        <g id="Group_41682-5" data-name="Group 41682" transform="translate(213 279)">
          <g id="Group_41669-6" data-name="Group 41669">
            <g id="Group_41667-6" data-name="Group 41667" transform="translate(5.484 5.109)">
              <g id="Group_40374-6" data-name="Group 40374">
                <g id="Group_40373-6" data-name="Group 40373">
                  <circle id="Ellipse_2028-6" data-name="Ellipse 2028" cx="14.279" cy="14.279" r="14.279" fill="#508b82"/>
                </g>
              </g>
            </g>
            <g id="Group_41666-6" data-name="Group 41666" transform="translate(0 0)" opacity="0.696">
              <path id="Path_28153-6" data-name="Path 28153" d="M25.069,194.3c-.694,0-1.389-.063-2.083-.126l.189-2.02c.631.063,1.263.126,1.894.126h.189v2.02Zm2.336-.126-.253-2.02c.631-.063,1.263-.189,1.894-.316l.442,1.957Zm-6.565-.316a10.611,10.611,0,0,1-2.02-.568l.631-1.894c.631.189,1.2.379,1.831.505Zm10.668-.631-.694-1.894c.568-.189,1.2-.442,1.768-.694l.884,1.831C32.833,192.723,32.139,192.975,31.508,193.228Zm-14.645-.758c-.631-.316-1.263-.631-1.894-1.01l1.01-1.7c.568.316,1.136.631,1.7.884ZM35.3,191.4l-1.073-1.7A13.861,13.861,0,0,0,35.8,188.62l1.263,1.578C36.495,190.577,35.927,191.019,35.3,191.4ZM13.2,190.324c-.568-.442-1.073-.884-1.641-1.389l1.389-1.452a13.316,13.316,0,0,0,1.452,1.2Zm25.44-1.515-1.389-1.452a13.182,13.182,0,0,0,1.263-1.389l1.515,1.263A10.815,10.815,0,0,1,38.641,188.809Zm-28.47-1.389a11.933,11.933,0,0,1-1.263-1.7l1.641-1.136,1.136,1.515Zm31.184-1.894-1.641-1.136a8.519,8.519,0,0,0,.947-1.641l1.768.947A17.393,17.393,0,0,1,41.355,185.527ZM7.773,183.948c-.316-.631-.631-1.263-.884-1.894l1.894-.758c.253.568.505,1.136.821,1.7Zm35.54-2.146-1.894-.757a8.817,8.817,0,0,0,.568-1.831l1.957.505A20.071,20.071,0,0,1,43.312,181.8ZM6.194,180.035c-.189-.694-.316-1.389-.442-2.083l1.957-.316a15.529,15.529,0,0,0,.442,1.831ZM44.385,177.7l-1.957-.316c.126-.631.126-1.263.189-1.894l2.02.063C44.575,176.31,44.512,177,44.385,177.7ZM5.5,175.868v-2.146l2.02.126v1.894ZM42.555,173.6c-.063-.631-.126-1.263-.252-1.894l1.957-.316c.126.694.189,1.389.253,2.083ZM7.709,171.955l-1.957-.316c.126-.694.253-1.389.442-2.083l1.957.505A10.274,10.274,0,0,0,7.709,171.955Zm34.214-2.083a14.567,14.567,0,0,0-.631-1.768l1.831-.758a18.974,18.974,0,0,1,.694,2.02Zm-33.2-1.578-1.894-.758a17.365,17.365,0,0,1,.884-1.894l1.768.947A13.929,13.929,0,0,0,8.719,168.293ZM40.472,166.4c-.316-.568-.631-1.073-1.01-1.641l1.641-1.136c.379.568.758,1.2,1.136,1.831Zm-29.985-1.452-1.641-1.136c.379-.568.821-1.136,1.263-1.7l1.515,1.326A6.8,6.8,0,0,0,10.487,164.948Zm27.838-1.7c-.442-.505-.884-.947-1.326-1.389l1.389-1.452c.505.505,1.01,1.01,1.452,1.515Zm-25.44-1.2L11.5,160.592c.505-.5,1.073-.947,1.578-1.389l1.2,1.578C13.833,161.16,13.391,161.6,12.886,162.044Zm22.662-1.389a13.86,13.86,0,0,0-1.578-1.073l1.01-1.7a17.364,17.364,0,0,1,1.768,1.2Zm-19.632-.947L14.843,158a17,17,0,0,1,1.831-1.01l.884,1.831A13.56,13.56,0,0,0,15.916,159.708Zm16.413-1.01A14.7,14.7,0,0,0,30.561,158l.631-1.894c.694.252,1.326.505,1.957.758Zm-13-.568-.631-1.894a12.093,12.093,0,0,1,2.02-.568l.442,1.957A9.9,9.9,0,0,0,19.325,158.13Zm9.406-.568c-.631-.126-1.263-.253-1.894-.316l.189-2.02c.694.063,1.389.189,2.083.316Zm-5.681-.316-.253-2.02c.694-.063,1.389-.126,2.083-.126v2.02C24.311,157.183,23.68,157.183,23.049,157.246Z" transform="translate(-5.5 -155.1)" fill="#fff"/>
            </g>
          </g>
        </g>
      </g>
      <g id="keystone" transform="translate(148.103 364.07)">
        <path id="Path_28292" data-name="Path 28292" d="M0,12.422a3.294,3.294,0,0,1,.467-1.65q1.606-2.79,3.206-5.584Q5,2.882,6.317.576A.99.99,0,0,1,7.237,0a.885.885,0,0,1,.788.421A14.351,14.351,0,0,1,8.756,1.7a1.557,1.557,0,0,1-.082,1.535L6.48,7.024l-4.652,8.05c-.036.062-.069.125-.11.183a.488.488,0,0,1-.845,0,4.895,4.895,0,0,1-.413-.837A6.133,6.133,0,0,1,0,12.422" transform="translate(0 -0.001)" fill="#fff"/>
        <path id="Path_28294" data-name="Path 28294" d="M119.285,453.436a1.745,1.745,0,0,1-.472,1.215c-.157.17-.324.331-.491.492a1.605,1.605,0,0,1-1.939.323c-.975-.457-1.948-.919-2.921-1.379-.193-.091-.388-.178-.577-.277a1.609,1.609,0,0,1-.69-2.256q.644-1.154,1.322-2.289a1.286,1.286,0,0,1,2.073-.254c1.051,1.041,2.1,2.089,3.142,3.133a1.789,1.789,0,0,1,.551,1.291" transform="translate(-108.982 -436.595)" fill="#fff"/>
        <path id="Path_28300" data-name="Path 28300" d="M298.394,408.743c.714,0,1.427-.01,2.14,0a1.781,1.781,0,0,1,1.541.866,1.335,1.335,0,0,1-.162,1.677c-.509.525-1.026,1.043-1.556,1.546a1.452,1.452,0,0,1-2.09-.049c-.631-.618-1.251-1.247-1.876-1.871-.252-.252-.509-.5-.756-.758a.823.823,0,0,1,.618-1.416q1.07,0,2.141,0" transform="translate(-287.475 -397.803)" fill="#fff"/>
        <path id="Path_28303" data-name="Path 28303" d="M265.115,185.041c-.5,0-1,.005-1.5,0a1.137,1.137,0,0,1-1.148-1.019,1.155,1.155,0,0,1,.172-.741q.556-.959,1.109-1.92c.125-.216.245-.434.376-.647a1.3,1.3,0,0,1,2.267.006q.69,1.159,1.348,2.336a1.3,1.3,0,0,1-1.156,1.985c-.49,0-.98,0-1.471,0" transform="translate(-255.439 -175.232)" fill="#fff"/>
      </g>
    </g>
    <g id="Group_41693" data-name="Group 41693" transform="translate(-57.5 67.552)">
      <g id="Group_41689" data-name="Group 41689" transform="translate(-35.609 86.164)">
        <g id="Group_41682-6" data-name="Group 41682" transform="translate(26 36)">
          <g id="Group_41669-7" data-name="Group 41669" transform="translate(52.19 6.438)">
            <g id="Group_41667-7" data-name="Group 41667" transform="translate(139.589 241.015)">
              <g id="Group_40374-7" data-name="Group 40374">
                <g id="Group_40373-7" data-name="Group 40373">
                  <circle id="Ellipse_2028-7" data-name="Ellipse 2028" cx="12.444" cy="12.444" r="12.444" fill="#508b82"/>
                </g>
              </g>
            </g>
            <g id="Group_41666-7" data-name="Group 41666" transform="translate(134.81 236.562)" opacity="0.696">
              <path id="Path_28153-7" data-name="Path 28153" d="M22.555,189.264c-.605,0-1.21-.055-1.815-.11l.165-1.76c.55.055,1.1.11,1.65.11h.165v1.76Zm2.036-.11-.22-1.76c.55-.055,1.1-.165,1.65-.275l.385,1.705Zm-5.722-.275a9.247,9.247,0,0,1-1.76-.5l.55-1.65c.55.165,1.045.33,1.6.44Zm9.3-.55-.605-1.65c.5-.165,1.045-.385,1.54-.605l.77,1.6C29.321,187.889,28.716,188.109,28.166,188.329Zm-12.763-.66c-.55-.275-1.1-.55-1.65-.88l.88-1.485c.5.275.99.55,1.485.77Zm16.064-.935-.935-1.485a12.082,12.082,0,0,0,1.375-.935l1.1,1.375C32.512,186.018,32.017,186.4,31.467,186.734ZM12.212,185.8c-.5-.385-.935-.77-1.43-1.21l1.21-1.265a11.605,11.605,0,0,0,1.265,1.045Zm22.171-1.32-1.21-1.265a11.489,11.489,0,0,0,1.1-1.21l1.32,1.1A9.425,9.425,0,0,1,34.383,184.478Zm-24.812-1.21a10.4,10.4,0,0,1-1.1-1.485l1.43-.99.99,1.32Zm27.177-1.65-1.43-.99a7.425,7.425,0,0,0,.825-1.43l1.54.825A15.158,15.158,0,0,1,36.748,181.617ZM7.481,180.242c-.275-.55-.55-1.1-.77-1.65l1.65-.66c.22.5.44.99.715,1.485Zm30.973-1.871-1.65-.66a7.684,7.684,0,0,0,.5-1.6l1.705.44A17.493,17.493,0,0,1,38.454,178.371Zm-32.349-1.54c-.165-.605-.275-1.21-.385-1.815l1.705-.275a13.533,13.533,0,0,0,.385,1.6ZM39.389,174.8l-1.705-.275c.11-.55.11-1.1.165-1.65l1.76.055C39.554,173.585,39.5,174.19,39.389,174.8ZM5.5,173.2v-1.871l1.76.11v1.65Zm32.294-1.981c-.055-.55-.11-1.1-.22-1.65l1.705-.275c.11.605.165,1.21.22,1.816Zm-30.368-1.43-1.705-.275c.11-.605.22-1.21.385-1.816l1.705.44A8.954,8.954,0,0,0,7.426,169.789Zm29.818-1.815a12.7,12.7,0,0,0-.55-1.54l1.6-.66a16.536,16.536,0,0,1,.605,1.76ZM8.306,166.6l-1.65-.66a15.133,15.133,0,0,1,.77-1.65l1.54.825A12.14,12.14,0,0,0,8.306,166.6Zm27.673-1.65c-.275-.5-.55-.935-.88-1.43l1.43-.99c.33.5.66,1.045.99,1.6ZM9.846,163.682l-1.43-.99c.33-.5.715-.99,1.1-1.485l1.32,1.155A5.923,5.923,0,0,0,9.846,163.682ZM34.108,162.2c-.385-.44-.77-.825-1.155-1.21l1.21-1.265c.44.44.88.88,1.265,1.32Zm-22.171-1.045-1.21-1.265c.44-.44.935-.825,1.375-1.21l1.045,1.375C12.762,160.381,12.377,160.767,11.937,161.152Zm19.75-1.21a12.078,12.078,0,0,0-1.375-.935l.88-1.485a15.132,15.132,0,0,1,1.54,1.045Zm-17.11-.825-.935-1.485a14.815,14.815,0,0,1,1.6-.88l.77,1.6A11.817,11.817,0,0,0,14.577,159.116Zm14.3-.88a12.811,12.811,0,0,0-1.54-.605l.55-1.65c.605.22,1.155.44,1.705.66Zm-11.333-.5L17,156.09a10.539,10.539,0,0,1,1.76-.5l.385,1.705A8.629,8.629,0,0,0,17.548,157.741Zm8.2-.5c-.55-.11-1.1-.22-1.65-.275l.165-1.76c.605.055,1.21.165,1.815.275Zm-4.951-.275-.22-1.76c.605-.055,1.21-.11,1.815-.11v1.76C21.894,156.915,21.344,156.915,20.794,156.971Z" transform="translate(-5.5 -155.1)" fill="#fff"/>
            </g>
          </g>
        </g>
      </g>
      <g id="jade" transform="translate(185.799 373.601)">
        <path id="Path_24881" data-name="Path 24881" d="M8.127,214.341,5.373,211.6H0l8.127,8.1Z" transform="translate(0 -202.453)" fill="#fff"/>
        <path id="Path_24882" data-name="Path 24882" d="M211.3,219.745l8.123-8.145h-5.361l-2.762,2.767Z" transform="translate(-202.165 -202.453)" fill="#fff"/>
        <path id="Path_24883" data-name="Path 24883" d="M211.3.1V5.461l2.78,2.775h5.378Z" transform="translate(-202.165 -0.096)" fill="#fff"/>
        <path id="Path_24884" data-name="Path 24884" d="M8.119,0,0,8.14H5.361L8.119,5.373Z" fill="#fff"/>
      </g>
    </g>
    <g id="Group_41676" data-name="Group 41676" transform="translate(63.399 183.282)">
      <path id="Path_28497" data-name="Path 28497" d="M8.458-24.152,14.2-34.572H10.7L5-23.786V-62.18H1.66v52.03H5v-7.693L6.5-20.611,10.737-10.15h3.541Z" transform="translate(115.74 220.028)" fill="#fff"/>
      <g id="Path_28500" data-name="Path 28500" transform="matrix(0.966, 0.259, -0.259, 0.966, 109.353, 129.12)" fill="none">
        <path d="M21.517,0a2.207,2.207,0,0,1,1.911,1.1l6.435,11.13a2.207,2.207,0,0,1,0,2.21l-6.435,11.13a2.207,2.207,0,0,1-1.911,1.1H8.642a2.207,2.207,0,0,1-1.911-1.1L.3,14.443a2.207,2.207,0,0,1,0-2.21L6.731,1.1A2.207,2.207,0,0,1,8.642,0Z" stroke="none"/>
        <path d="M 9.676462173461914 3.999998092651367 L 4.278022766113281 13.33784008026123 L 9.676450729370117 22.67567825317383 L 20.48262214660645 22.67567825317383 L 25.88106155395508 13.3378381729126 L 20.48262786865234 3.999998092651367 L 9.676462173461914 3.999998092651367 M 8.642162322998047 -1.9073486328125e-06 L 21.51692199707031 -1.9073486328125e-06 C 22.30507278442383 -1.9073486328125e-06 23.03342247009277 0.4202289581298828 23.42789268493652 1.102558135986328 L 29.86271286010742 12.23305797576904 C 30.25787162780762 12.91657829284668 30.25787162780762 13.75909805297852 29.86271286010742 14.44261837005615 L 23.42789268493652 25.57311820983887 C 23.03342247009277 26.25543785095215 22.30507278442383 26.67567825317383 21.51692199707031 26.67567825317383 L 8.642162322998047 26.67567825317383 C 7.854011535644531 26.67567825317383 7.125661849975586 26.25543785095215 6.731182098388672 25.57311820983887 L 0.2963714599609375 14.44261837005615 C -0.09878730773925781 13.75909805297852 -0.09878730773925781 12.9165678024292 0.2963714599609375 12.23305797576904 L 6.731191635131836 1.102558135986328 C 7.125661849975586 0.4202289581298828 7.854011535644531 -1.9073486328125e-06 8.642162322998047 -1.9073486328125e-06 Z" stroke="none" fill="#fff"/>
      </g>
    </g>
    <g id="Group_41694" data-name="Group 41694" opacity="0.4">
      <line id="Line_829" data-name="Line 829" y2="32" transform="translate(183.5 270.5)" fill="none" stroke="#b2d0cb" stroke-width="2" stroke-dasharray="2"/>
      <line id="Line_830" data-name="Line 830" y1="20" x2="38" transform="translate(213.5 298.5)" fill="none" stroke="#b2d0cb" stroke-width="2" stroke-dasharray="2"/>
      <line id="Line_831" data-name="Line 831" x2="47" y2="21" transform="translate(216.5 350.5)" fill="none" stroke="#b2d0cb" stroke-width="2" stroke-dasharray="2"/>
      <line id="Line_832" data-name="Line 832" x2="16" y2="19" transform="translate(201.5 402.5)" fill="none" stroke="#b2d0cb" stroke-width="2" stroke-dasharray="2"/>
      <line id="Line_833" data-name="Line 833" x1="19" y2="27" transform="translate(148.5 403.5)" fill="none" stroke="#b2d0cb" stroke-width="2" stroke-dasharray="2"/>
      <line id="Line_834" data-name="Line 834" y1="19" x2="45" transform="translate(103.5 350.5)" fill="none" stroke="#b2d0cb" stroke-width="2" stroke-dasharray="2"/>
      <line id="Line_835" data-name="Line 835" x2="23" y2="14" transform="translate(125.5 304.5)" fill="none" stroke="#b2d0cb" stroke-width="2" stroke-dasharray="2"/>
    </g>
  </g>
</svg>
