<svg width="232" height="227" viewBox="0 0 232 227" fill="none" xmlns="http://www.w3.org/2000/svg">
<path d="M113.576 27.6063C120.042 27.6063 125.283 22.3652 125.283 15.9001C125.283 9.4349 120.042 4.19385 113.576 4.19385C107.111 4.19385 101.87 9.4349 101.87 15.9001C101.87 22.3652 107.111 27.6063 113.576 27.6063Z" fill="#596F66"/>
<g opacity="0.696">
<path d="M113.411 32.1432C112.842 32.1432 112.273 32.0915 111.704 32.0397L111.859 30.3841C112.376 30.4358 112.894 30.4875 113.411 30.4875H113.566V32.1432H113.411ZM115.326 32.0397L115.12 30.3841C115.637 30.3323 116.154 30.2288 116.672 30.1254L117.034 31.7293L115.326 32.0397ZM109.944 31.781C109.378 31.6793 108.823 31.5218 108.288 31.3107L108.805 29.7585C109.323 29.9137 109.788 30.0689 110.311 30.1724L109.944 31.781ZM118.692 31.2636L118.123 29.7114C118.594 29.5562 119.106 29.3493 119.572 29.1423L120.296 30.6474C119.776 30.8497 119.207 31.0567 118.69 31.2636H118.692ZM106.686 30.6428C106.169 30.3841 105.651 30.1254 105.134 29.8149L105.962 28.418C106.432 28.6767 106.893 28.9354 107.359 29.1423L106.686 30.6428ZM121.798 29.7632L120.918 28.3662C121.369 28.1031 121.801 27.8092 122.212 27.4867L123.246 28.7801C122.778 29.0896 122.312 29.449 121.795 29.7632H121.798ZM103.681 28.8846C103.211 28.5224 102.802 28.1602 102.336 27.7463L103.474 26.5563C103.847 26.9116 104.245 27.2401 104.664 27.5393L103.681 28.8846ZM124.538 27.6428L123.4 26.4528C123.771 26.0985 124.117 25.7181 124.435 25.3146L125.676 26.3493C125.34 26.8158 124.958 27.2483 124.538 27.6409V27.6428ZM101.197 26.5046C100.811 26.0705 100.465 25.603 100.162 25.1076L101.507 24.1763L102.439 25.418L101.197 26.5046ZM126.763 24.9524L125.418 24.0211C125.726 23.6029 125.986 23.1517 126.194 22.6759L127.642 23.4519C127.38 23.9686 127.086 24.4687 126.763 24.9496V24.9524ZM99.2308 23.6561C98.9721 23.1387 98.7134 22.6213 98.5064 22.1039L100.059 21.483C100.266 21.9534 100.473 22.4143 100.731 22.88L99.2308 23.6561ZM128.368 21.896L126.816 21.2751C127.027 20.7921 127.184 20.2874 127.286 19.77L128.89 20.1839C128.747 20.7637 128.573 21.3352 128.368 21.896ZM97.9363 20.4473C97.7811 19.8782 97.6776 19.3091 97.5741 18.7399L99.1781 18.4812C99.2682 18.9898 99.3891 19.4925 99.5403 19.9864L97.9363 20.4473ZM129.247 18.5367L127.643 18.278C127.747 17.7606 127.747 17.2432 127.799 16.7259L129.454 16.7776C129.403 17.3938 129.352 17.9629 129.247 18.5367ZM97.3672 17.0316V15.2715L99.0229 15.375V16.9272L97.3672 17.0316ZM127.747 15.168C127.695 14.6506 127.643 14.1333 127.54 13.6159L129.144 13.3572C129.247 13.9263 129.299 14.4954 129.351 15.0655L127.747 15.168ZM99.179 13.8228L97.5751 13.5641C97.6786 12.995 97.782 12.4259 97.9373 11.8558L99.5412 12.2697C99.3716 12.7748 99.2504 13.2948 99.179 13.8228ZM127.229 12.1154C127.088 11.6219 126.915 11.138 126.712 10.6667L128.217 10.0459C128.438 10.5866 128.628 11.1394 128.786 11.7015L127.229 12.1154ZM100.007 10.8229L98.4547 10.202C98.6647 9.67056 98.9066 9.15222 99.179 8.64984L100.628 9.42594C100.39 9.8772 100.182 10.3439 100.007 10.8229ZM126.039 9.27071C125.781 8.80036 125.522 8.39115 125.212 7.9255L126.557 6.99419C126.867 7.46455 127.178 7.97724 127.488 8.49934L126.039 9.27071ZM101.456 8.0779L100.11 7.14659C100.421 6.67623 100.783 6.21528 101.145 5.74963L102.387 6.83615C102.02 7.20459 101.707 7.62256 101.456 8.0779ZM124.279 6.68375C123.917 6.26984 123.555 5.90767 123.193 5.5455L124.331 4.3555C124.745 4.76941 125.159 5.18332 125.521 5.59723L124.279 6.68375ZM103.423 5.70071L102.284 4.51071C102.698 4.0968 103.164 3.73462 103.578 3.37244L104.561 4.66592C104.199 4.9726 103.837 5.33571 103.423 5.69788V5.70071ZM122.002 4.56246C121.591 4.2399 121.159 3.94601 120.708 3.68288L121.536 2.28592C122.039 2.58357 122.523 2.91188 122.985 3.26898L122.002 4.56246ZM105.906 3.78636L105.027 2.3894C105.511 2.08277 106.013 1.80632 106.532 1.56159L107.256 3.06672C106.79 3.2741 106.339 3.51329 105.906 3.7826V3.78636ZM119.358 2.95854C118.888 2.73781 118.404 2.5477 117.91 2.3894L118.427 0.837233C118.996 1.04419 119.514 1.25115 120.031 1.45811L119.358 2.95854ZM108.697 2.48819L108.185 0.936004C108.723 0.731519 109.277 0.574141 109.841 0.465648L110.203 2.06956C109.69 2.16087 109.187 2.30137 108.701 2.48912L108.697 2.48819ZM116.411 2.01783C115.894 1.91435 115.376 1.81087 114.859 1.75913L115.014 0.103479C115.583 0.155218 116.152 0.258691 116.722 0.362169L116.411 2.01783ZM111.754 1.75913L111.547 0.103479C112.116 0.0517397 112.685 0 113.254 0V1.65565C112.789 1.71209 112.272 1.71209 111.755 1.76477L111.754 1.75913Z" fill="#F6F2ED"/>
</g>
<path d="M117.975 13.6706C117.975 14.6216 117.922 15.5764 117.985 16.5237C118.077 17.4276 117.974 18.3407 117.682 19.201C117.389 20.0613 116.915 20.8486 116.292 21.5095C116.104 21.7155 115.949 21.9592 115.765 22.1746C115.436 22.5612 115.327 23.2555 114.819 23.3345C113.952 23.4196 113.08 23.4356 112.21 23.3825C111.948 23.3825 111.804 23.1586 111.697 22.961C111.221 22.1663 110.664 21.4234 110.033 20.7447C109.236 19.786 108.814 18.57 108.846 17.3233C108.823 14.7787 108.851 12.2332 108.829 9.68853C108.824 9.03662 109.068 8.73841 109.727 8.74123C112.169 8.75001 114.611 8.75001 117.054 8.74123C117.695 8.74123 117.995 8.99428 117.982 9.66124C117.959 10.998 117.976 12.3338 117.975 13.6706ZM113.389 10.7355C112.516 10.7355 111.643 10.7525 110.77 10.729C110.3 10.7167 110.126 10.9067 110.128 11.362C110.139 13.1331 110.139 14.9045 110.128 16.6761C110.128 17.1051 110.316 17.2801 110.726 17.2801C112.497 17.2763 114.269 17.2763 116.041 17.2801C116.489 17.2801 116.687 17.1098 116.682 16.6404C116.667 14.8951 116.667 13.1494 116.682 11.4034C116.682 10.9124 116.509 10.7111 116.004 10.7271C115.132 10.7544 114.258 10.7346 113.385 10.7346" fill="#F6F2ED"/>
<path d="M192.781 63.619C199.246 63.619 204.487 58.3779 204.487 51.9128C204.487 45.4476 199.246 40.2065 192.781 40.2065C186.315 40.2065 181.074 45.4476 181.074 51.9128C181.074 58.3779 186.315 63.619 192.781 63.619Z" fill="#596F66"/>
<g opacity="0.696">
<path d="M192.614 68.1559C192.045 68.1559 191.476 68.1041 190.907 68.0524L191.062 66.3967C191.58 66.4485 192.097 66.5002 192.614 66.5002H192.77V68.1559H192.614ZM194.53 68.0524L194.323 66.3967C194.84 66.345 195.357 66.2415 195.875 66.1381L196.237 67.742L194.53 68.0524ZM189.147 67.7937C188.581 67.692 188.026 67.5345 187.491 67.3233L188.009 65.7712C188.526 65.9264 188.992 66.0816 189.514 66.1851L189.147 67.7937ZM197.896 67.2763L197.326 65.7241C197.797 65.5689 198.309 65.362 198.775 65.155L199.499 66.6601C198.979 66.8624 198.41 67.0694 197.893 67.2763H197.896ZM185.889 66.6555C185.372 66.3968 184.854 66.1381 184.337 65.8276L185.165 64.4307C185.635 64.6894 186.096 64.9481 186.562 65.155L185.889 66.6555ZM201.001 65.7759L200.121 64.3789C200.572 64.1158 201.004 63.8219 201.415 63.4994L202.45 64.7928C201.981 65.1023 201.515 65.4617 200.998 65.7759H201.001ZM182.884 64.8973C182.414 64.5351 182.005 64.1729 181.539 63.759L182.677 62.569C183.05 62.9243 183.448 63.2528 183.867 63.552L182.884 64.8973ZM203.741 63.6555L202.603 62.4655C202.974 62.1111 203.32 61.7308 203.638 61.3273L204.879 62.362C204.543 62.8285 204.162 63.261 203.741 63.6536V63.6555ZM180.4 62.5173C180.014 62.0832 179.668 61.6157 179.365 61.1203L180.71 60.189L181.642 61.4307L180.4 62.5173ZM205.966 60.9651L204.621 60.0338C204.929 59.6156 205.189 59.1644 205.397 58.6886L206.846 59.4646C206.583 59.9812 206.289 60.4814 205.966 60.9623V60.9651ZM178.434 59.6688C178.175 59.1514 177.916 58.634 177.71 58.1166L179.262 57.4957C179.469 57.9661 179.676 58.427 179.934 58.8927L178.434 59.6688ZM207.571 57.9087L206.019 57.2878C206.23 56.8048 206.388 56.3001 206.489 55.7827L208.093 56.1966C207.95 56.7764 207.776 57.3479 207.571 57.9087ZM177.139 56.46C176.984 55.8909 176.881 55.3218 176.777 54.7526L178.381 54.4939C178.471 55.0025 178.592 55.5052 178.743 55.9991L177.139 56.46ZM208.45 54.5494L206.846 54.2907C206.95 53.7733 206.95 53.2559 207.002 52.7386L208.657 52.7903C208.606 53.4065 208.555 53.9756 208.45 54.5494ZM176.57 53.0443V51.2842L178.226 51.3877V52.9399L176.57 53.0443ZM206.95 51.1807C206.898 50.6633 206.846 50.146 206.743 49.6286L208.347 49.3699C208.45 49.939 208.502 50.5081 208.554 51.0782L206.95 51.1807ZM178.382 49.8355L176.778 49.5768C176.882 49.0077 176.985 48.4386 177.14 47.8685L178.744 48.2824C178.575 48.7875 178.453 49.3075 178.382 49.8355ZM206.433 48.1281C206.291 47.6346 206.119 47.1507 205.915 46.6794L207.42 46.0586C207.641 46.5993 207.831 47.1521 207.989 47.7142L206.433 48.1281ZM179.21 46.8356L177.658 46.2147C177.868 45.6833 178.11 45.1649 178.382 44.6625L179.831 45.4386C179.593 45.8899 179.386 46.3566 179.21 46.8356ZM205.243 45.2834C204.984 44.8131 204.725 44.4038 204.415 43.9382L205.76 43.0069C206.07 43.4772 206.381 43.9899 206.691 44.512L205.243 45.2834ZM180.659 44.0906L179.313 43.1593C179.624 42.6889 179.986 42.228 180.348 41.7623L181.59 42.8488C181.223 43.2173 180.91 43.6353 180.659 44.0906ZM203.482 42.6964C203.12 42.2825 202.758 41.9204 202.396 41.5582L203.534 40.3682C203.948 40.7821 204.362 41.196 204.724 41.6099L203.482 42.6964ZM182.626 41.7134L181.487 40.5234C181.901 40.1095 182.367 39.7473 182.781 39.3851L183.764 40.6786C183.402 40.9853 183.04 41.3484 182.626 41.7106V41.7134ZM201.205 40.5752C200.795 40.2526 200.362 39.9587 199.911 39.6956L200.739 38.2986C201.242 38.5963 201.726 38.9246 202.188 39.2817L201.205 40.5752ZM185.109 39.7991L184.23 38.4021C184.714 38.0955 185.217 37.819 185.735 37.5743L186.459 39.0794C185.993 39.2868 185.542 39.526 185.109 39.7953V39.7991ZM198.562 38.9712C198.091 38.7505 197.608 38.5604 197.113 38.4021L197.63 36.8499C198.199 37.0569 198.717 37.2638 199.234 37.4708L198.562 38.9712ZM187.9 38.5009L187.389 36.9487C187.926 36.7442 188.48 36.5868 189.044 36.4783L189.406 38.0823C188.893 38.1736 188.39 38.3141 187.904 38.5018L187.9 38.5009ZM195.614 38.0305C195.097 37.927 194.579 37.8236 194.062 37.7718L194.217 36.1162C194.786 36.1679 195.356 36.2714 195.925 36.3749L195.614 38.0305ZM190.957 37.7718L190.75 36.1162C191.319 36.0644 191.888 36.0127 192.457 36.0127V37.6683C191.992 37.7248 191.475 37.7248 190.958 37.7775L190.957 37.7718Z" fill="#F6F2ED"/>
</g>
<path d="M192.191 55.9231C191.595 56.9503 190.968 57.9644 190.411 59.0114C190.135 59.527 189.913 59.685 189.36 59.3172C188.48 58.7325 187.564 58.204 186.617 57.7349C185.922 57.3906 185.789 57.115 186.227 56.3831C188.244 53.0069 190.187 49.5865 192.148 46.1773C192.373 45.7869 192.698 45.4483 192.515 44.8867C192.224 44.0014 192.751 43.8039 193.493 43.9459C194.376 44.1069 195.281 44.1101 196.165 43.9554C196.527 43.8961 197.102 43.7268 197.262 44.0955C197.384 44.2949 197.432 44.5307 197.398 44.7618C197.363 44.9929 197.249 45.2046 197.074 45.3598C196.736 45.6571 197.472 47.7257 197.926 48.0192C198.379 48.3127 198.333 49.5347 197.825 49.6119C197.241 49.7012 197.34 50.0239 197.34 50.3644C197.335 51.7868 197.34 53.2091 197.34 54.6315C197.34 54.9946 197.285 55.3032 197.852 55.3765C198.292 55.433 198.392 56.8168 197.99 56.8666C197.165 56.9673 197.346 57.4903 197.342 57.9682C197.325 60.2259 197.327 60.2259 195.099 60.2193C194.264 60.2193 193.155 60.5015 192.669 60.0829C192.091 59.5843 192.531 58.4423 192.481 57.5806C192.449 57.0444 192.475 56.5044 192.475 55.9664L192.193 55.924M194.685 44.8556C193.927 44.8716 193.499 45.4925 193.106 46.1726C191.413 49.1039 189.72 52.0332 188.026 54.9607C186.876 56.9541 186.892 56.9362 188.926 58.1121C189.506 58.448 189.788 58.4734 190.165 57.8045C192.053 54.4424 194.007 51.1179 195.932 47.7756C196.102 47.496 196.239 47.1977 196.34 46.8866C196.408 46.6394 196.417 46.3793 196.364 46.1281C196.312 45.8769 196.2 45.6419 196.038 45.4428C195.877 45.2436 195.669 45.0862 195.434 44.9835C195.199 44.8809 194.943 44.8361 194.687 44.8528M195.926 49.9129C195.136 51.054 194.034 52.0398 193.889 53.45C193.767 54.6371 193.919 55.8497 193.854 57.0463C193.808 57.8835 194.314 57.8064 194.818 57.7622C195.282 57.7208 195.956 58.0754 195.939 57.0896C195.898 54.6983 195.926 52.3051 195.926 49.9129Z" fill="#F6F2ED"/>
<path d="M16.4563 149.975C22.9216 149.975 28.1627 144.734 28.1627 138.269C28.1627 131.804 22.9216 126.563 16.4563 126.563C9.9911 126.563 4.75 131.804 4.75 138.269C4.75 144.734 9.9911 149.975 16.4563 149.975Z" fill="#596F66"/>
<g opacity="0.696">
<path d="M16.2989 154.513C15.7297 154.513 15.1606 154.461 14.5915 154.409L14.7467 152.754C15.2641 152.805 15.7815 152.857 16.2989 152.857H16.4541V154.513H16.2989ZM18.2142 154.409L18.0072 152.754C18.5246 152.702 19.042 152.598 19.5594 152.495L19.9216 154.099L18.2142 154.409ZM12.8314 154.151C12.2653 154.049 11.7107 153.891 11.1757 153.68L11.6931 152.128C12.2105 152.283 12.6762 152.439 13.1983 152.542L12.8314 154.151ZM21.5801 153.633L21.011 152.081C21.4813 151.926 21.994 151.719 22.4597 151.512L23.184 153.017C22.6638 153.219 22.0947 153.426 21.5773 153.633H21.5801ZM9.57367 153.012C9.05627 152.754 8.53887 152.495 8.02148 152.185L8.84931 150.788C9.31967 151.046 9.78062 151.305 10.2463 151.512L9.57367 153.012ZM24.6854 152.133L23.8058 150.736C24.2567 150.473 24.6889 150.179 25.0993 149.856L26.1341 151.15C25.6656 151.459 25.2 151.819 24.6826 152.133H24.6854ZM6.569 151.254C6.09864 150.892 5.68943 150.53 5.22377 150.116L6.36204 148.926C6.73502 149.281 7.13269 149.61 7.55206 149.909L6.569 151.254ZM27.4257 150.012L26.2875 148.822C26.659 148.468 27.0048 148.088 27.3222 147.684L28.564 148.719C28.2274 149.185 27.8462 149.618 27.4257 150.011V150.012ZM4.08456 148.874C3.69886 148.44 3.35256 147.973 3.04976 147.477L4.395 146.546L5.32631 147.788L4.08456 148.874ZM29.6505 147.322L28.3053 146.391C28.6132 145.973 28.8735 145.521 29.0814 145.045L30.5301 145.822C30.2676 146.338 29.9739 146.838 29.6505 147.319V147.322ZM2.11845 146.026C1.85975 145.508 1.60105 144.991 1.3941 144.474L2.94629 143.853C3.15324 144.323 3.3602 144.784 3.6189 145.25L2.11845 146.026ZM31.2554 144.266L29.7032 143.645C29.9144 143.162 30.0721 142.657 30.1736 142.14L31.7775 142.554C31.6347 143.133 31.4604 143.705 31.2554 144.266ZM0.824019 142.817C0.6688 142.248 0.565321 141.679 0.461841 141.11L2.06577 140.851C2.15585 141.359 2.2768 141.862 2.42795 142.356L0.824019 142.817ZM32.135 140.906L30.531 140.648C30.6345 140.13 30.6345 139.613 30.6863 139.095L32.3419 139.147C32.2902 139.763 32.2394 140.333 32.135 140.906ZM0.254883 139.401V137.641L1.91055 137.745V139.297L0.254883 139.401ZM30.6345 137.538C30.5828 137.02 30.531 136.503 30.4276 135.985L32.0315 135.727C32.135 136.296 32.1867 136.865 32.2385 137.435L30.6345 137.538ZM2.06671 136.192L0.462782 135.934C0.566262 135.365 0.669741 134.795 0.82496 134.225L2.42889 134.639C2.25931 135.144 2.13805 135.664 2.06671 136.192ZM30.1171 134.485C29.976 133.992 29.8031 133.508 29.5997 133.036L31.1049 132.415C31.3255 132.956 31.5155 133.509 31.674 134.071L30.1171 134.485ZM2.89455 133.193L1.34236 132.572C1.55243 132.04 1.79432 131.522 2.06671 131.019L3.51542 131.796C3.27749 132.247 3.07007 132.714 2.89455 133.193ZM28.9271 131.64C28.6684 131.17 28.4097 130.761 28.0993 130.295L29.4445 129.364C29.755 129.834 30.0654 130.347 30.3758 130.869L28.9271 131.64ZM4.34326 130.448L2.99803 129.516C3.30846 129.046 3.67064 128.585 4.03282 128.119L5.27457 129.206C4.90772 129.574 4.59424 129.992 4.34326 130.448ZM27.167 129.053C26.8049 128.639 26.4427 128.277 26.0805 127.915L27.2188 126.725C27.6327 127.139 28.0466 127.553 28.4088 127.967L27.167 129.053ZM6.3103 128.07L5.17203 126.88C5.58595 126.466 6.05161 126.104 6.46552 125.742L7.44858 127.036C7.0864 127.342 6.72422 127.705 6.3103 128.068V128.07ZM24.8895 126.932C24.4791 126.61 24.0469 126.316 23.5961 126.053L24.4239 124.656C24.9265 124.953 25.4103 125.282 25.8726 125.639L24.8895 126.932ZM8.79381 126.156L7.91423 124.759C8.39845 124.452 8.90112 124.176 9.41939 123.931L10.1437 125.436C9.67788 125.644 9.22683 125.883 8.79381 126.152V126.156ZM22.2461 125.328C21.776 125.107 21.2921 124.917 20.7974 124.759L21.3148 123.207C21.8839 123.414 22.4013 123.621 22.9187 123.828L22.2461 125.328ZM11.5849 124.858L11.0732 123.306C11.6104 123.101 12.1644 122.944 12.7288 122.835L13.091 124.439C12.5779 124.53 12.0748 124.671 11.5887 124.859L11.5849 124.858ZM19.2988 124.387C18.7814 124.284 18.264 124.18 17.7466 124.129L17.9019 122.473C18.471 122.525 19.0401 122.628 19.6093 122.732L19.2988 124.387ZM14.6413 124.129L14.4344 122.473C15.0035 122.421 15.5726 122.37 16.1418 122.37V124.025C15.6771 124.082 15.1597 124.082 14.6423 124.134L14.6413 124.129Z" fill="#F6F2ED"/>
</g>
<path d="M23.8659 143.457H8.70246C8.60266 143.457 8.50695 143.417 8.43638 143.346C8.36582 143.276 8.32617 143.18 8.32617 143.08V133.8C8.32617 133.7 8.36582 133.605 8.43638 133.534C8.50695 133.463 8.60266 133.424 8.70246 133.424H23.8659C23.9657 133.424 24.0615 133.463 24.132 133.534C24.2026 133.605 24.2422 133.7 24.2422 133.8V143.087C24.2405 143.185 24.2001 143.279 24.1297 143.349C24.0593 143.418 23.9646 143.457 23.8659 143.457Z" fill="#F6F2ED"/>
<path d="M8.33398 135.559H24.2406" stroke="#2F4F4F" stroke-width="2"/>
<path d="M156.118 220.574C164.824 220.574 171.881 213.517 171.881 204.811C171.881 196.106 164.824 189.049 156.118 189.049C147.413 189.049 140.355 196.106 140.355 204.811C140.355 213.517 147.413 220.574 156.118 220.574Z" fill="#596F66"/>
<g opacity="0.696">
<path d="M155.91 226.681C155.144 226.681 154.377 226.611 153.611 226.542L153.82 224.312C154.517 224.382 155.213 224.452 155.91 224.452H156.119V226.681H155.91ZM158.489 226.542L158.207 224.312C158.904 224.243 159.6 224.104 160.297 223.964L160.785 226.128L158.489 226.542ZM151.245 226.194C150.483 226.059 149.736 225.849 149.016 225.566L149.713 223.476C150.41 223.685 151.036 223.894 151.734 224.034L151.245 226.194ZM163.022 225.497L162.256 223.406C162.883 223.198 163.579 222.918 164.207 222.64L165.182 224.66C164.481 224.939 163.715 225.218 163.018 225.497H163.022ZM146.856 224.66C146.159 224.312 145.463 223.963 144.766 223.546L145.88 221.664C146.508 222.012 147.134 222.361 147.762 222.64L146.856 224.66ZM167.204 223.476L166.019 221.595C166.627 221.24 167.209 220.845 167.762 220.41L169.155 222.153C168.523 222.57 167.892 223.057 167.199 223.476H167.204ZM142.815 222.292C142.187 221.804 141.63 221.316 141.003 220.758L142.536 219.159C143.037 219.637 143.572 220.08 144.135 220.483L142.815 222.292ZM170.897 220.619L169.364 219.02C169.864 218.543 170.329 218.03 170.757 217.487L172.429 218.88C171.975 219.508 171.46 220.091 170.892 220.619H170.897ZM139.47 219.086C138.951 218.501 138.485 217.872 138.077 217.204L139.889 215.95L141.143 217.623L139.47 219.086ZM173.888 216.992L172.077 215.738C172.491 215.175 172.842 214.567 173.122 213.926L175.073 214.971C174.72 215.668 174.324 216.343 173.888 216.992ZM136.817 215.253C136.469 214.556 136.12 213.86 135.842 213.163L137.932 212.327C138.214 212.954 138.49 213.581 138.838 214.208L136.817 215.253ZM176.046 212.884L173.955 212.047C174.237 211.399 174.448 210.721 174.583 210.027L176.746 210.585C176.555 211.363 176.322 212.13 176.048 212.884H176.046ZM135.075 210.933C134.866 210.166 134.727 209.399 134.587 208.634L136.751 208.285C136.872 208.968 137.035 209.643 137.239 210.306L135.075 210.933ZM177.234 208.354L175.07 208.006C175.209 207.309 175.209 206.613 175.279 205.916L177.508 205.985C177.443 206.822 177.373 207.585 177.234 208.355V208.354ZM134.309 206.333V203.964L136.538 204.103V206.193L134.309 206.333ZM175.213 203.822C175.143 203.125 175.074 202.429 174.931 201.732L177.094 201.383C177.234 202.15 177.303 202.917 177.377 203.683L175.213 203.822ZM136.748 202.014L134.584 201.666C134.723 200.899 134.866 200.132 135.072 199.367L137.236 199.924C137.008 200.604 136.844 201.303 136.748 202.014ZM174.516 199.715C174.326 199.05 174.093 198.398 173.819 197.764L175.84 196.927C176.137 197.655 176.393 198.4 176.606 199.157L174.516 199.715ZM137.863 197.971L135.772 197.135C136.055 196.42 136.381 195.721 136.748 195.045L138.699 196.09C138.378 196.698 138.099 197.326 137.863 197.971ZM172.913 195.881C172.565 195.254 172.216 194.697 171.798 194.069L173.61 192.815C174.028 193.443 174.446 194.139 174.864 194.836L172.913 195.881ZM139.814 194.282L138.002 193.028C138.42 192.401 138.908 191.774 139.395 191.147L141.068 192.61C140.574 193.106 140.152 193.667 139.814 194.279V194.282ZM170.544 192.401C170.056 191.843 169.569 191.355 169.08 190.867L170.614 189.268C171.172 189.826 171.729 190.383 172.213 190.941L170.544 192.401ZM142.462 191.077L140.928 189.478C141.486 188.92 142.113 188.433 142.671 187.944L143.994 189.687C143.507 190.098 143.019 190.586 142.462 191.073V191.077ZM167.478 189.544C166.926 189.109 166.343 188.714 165.736 188.359L166.851 186.478C167.528 186.879 168.179 187.321 168.802 187.801L167.478 189.544ZM145.807 188.499L144.623 186.617C145.273 186.204 145.948 185.832 146.643 185.502L147.619 187.523C146.993 187.805 146.387 188.13 145.806 188.495L145.807 188.499ZM163.924 187.384C163.291 187.086 162.64 186.83 161.973 186.617L162.67 184.527C163.437 184.809 164.134 185.085 164.834 185.363L163.924 187.384ZM149.57 186.756L148.873 184.666C149.596 184.393 150.342 184.183 151.102 184.039L151.591 186.202C150.901 186.321 150.224 186.505 149.569 186.754L149.57 186.756ZM159.953 186.129C159.256 185.99 158.559 185.847 157.862 185.781L158.071 183.551C158.838 183.621 159.605 183.76 160.37 183.899L159.953 186.129ZM153.681 185.781L153.399 183.551C154.165 183.482 154.932 183.412 155.698 183.412V185.642C155.074 185.707 154.377 185.707 153.681 185.778V185.781Z" fill="#F6F2ED"/>
</g>
<path d="M162.119 205.1C162.119 208.044 162.119 210.988 162.119 213.932C162.119 215.287 161.742 215.654 160.397 215.656C157.384 215.659 154.37 215.659 151.357 215.656C150.089 215.656 149.703 215.267 149.699 213.972C149.684 208.084 149.675 202.198 149.671 196.313C149.671 194.77 150.026 194.432 151.575 194.432C154.519 194.432 157.464 194.432 160.407 194.432C161.739 194.432 162.134 194.808 162.14 196.163C162.155 199.142 162.14 202.12 162.14 205.1H162.115M161.493 208.675C161.493 206.841 161.466 205.006 161.507 203.174C161.521 202.529 161.325 202.351 160.688 202.356C157.504 202.386 154.32 202.392 151.137 202.356C150.409 202.347 150.296 202.624 150.301 203.261C150.328 206.825 150.328 210.388 150.301 213.952C150.295 214.749 150.55 215.059 151.378 215.048C154.389 215.013 157.399 215.013 160.409 215.048C161.215 215.058 161.524 214.79 161.505 213.971C161.464 212.207 161.493 210.443 161.492 208.678M154.51 200.64H155.755C157.854 200.64 157.84 200.64 157.691 198.56C157.66 198.126 157.548 197.955 157.091 197.96C155.431 197.981 153.769 197.976 152.105 197.96C151.691 197.96 151.515 198.034 151.484 198.518C151.352 200.64 151.331 200.64 153.471 200.64H154.506" fill="#F6F2ED"/>
<path d="M152.35 207.712C151.851 207.597 151.497 207.356 151.512 206.805C151.503 206.682 151.521 206.558 151.566 206.444C151.611 206.329 151.681 206.226 151.772 206.143C151.863 206.059 151.971 205.997 152.089 205.962C152.207 205.927 152.331 205.918 152.453 205.938C152.567 205.942 152.68 205.97 152.782 206.021C152.885 206.071 152.976 206.143 153.049 206.231C153.122 206.32 153.175 206.422 153.206 206.532C153.236 206.643 153.243 206.758 153.225 206.871C153.191 207.421 152.828 207.635 152.35 207.712Z" fill="#F6F2ED"/>
<path d="M160.289 207.14C160.278 207.388 159.937 207.684 159.442 207.687C159.328 207.696 159.214 207.68 159.107 207.641C159 207.602 158.902 207.54 158.821 207.459C158.74 207.379 158.677 207.282 158.637 207.175C158.597 207.069 158.58 206.954 158.588 206.84C158.573 206.718 158.586 206.594 158.626 206.477C158.667 206.361 158.733 206.255 158.82 206.168C158.908 206.081 159.014 206.015 159.131 205.976C159.247 205.936 159.372 205.924 159.494 205.939C159.979 205.965 160.315 206.286 160.289 207.142" fill="#F6F2ED"/>
<path d="M159.486 210.34C158.994 210.283 158.616 210.081 158.593 209.527C158.573 209.406 158.58 209.282 158.615 209.164C158.651 209.046 158.712 208.938 158.796 208.848C158.88 208.758 158.983 208.689 159.098 208.645C159.213 208.602 159.337 208.586 159.459 208.598C159.572 208.588 159.687 208.604 159.794 208.643C159.901 208.682 159.998 208.744 160.078 208.825C160.159 208.905 160.221 209.002 160.26 209.109C160.3 209.216 160.315 209.331 160.306 209.444C160.323 209.995 159.996 210.248 159.491 210.338" fill="#F6F2ED"/>
<path d="M153.233 204.168C153.241 204.282 153.225 204.395 153.185 204.502C153.146 204.609 153.085 204.706 153.005 204.788C152.926 204.869 152.83 204.933 152.725 204.975C152.619 205.017 152.506 205.036 152.392 205.031C152.279 205.045 152.164 205.034 152.055 204.998C151.947 204.963 151.847 204.904 151.764 204.827C151.68 204.749 151.615 204.654 151.572 204.548C151.529 204.442 151.51 204.328 151.516 204.214C151.496 204.093 151.505 203.968 151.542 203.851C151.579 203.733 151.642 203.626 151.728 203.537C151.813 203.449 151.918 203.381 152.034 203.34C152.151 203.299 152.275 203.286 152.397 203.302C152.51 203.297 152.624 203.316 152.73 203.358C152.835 203.401 152.931 203.465 153.01 203.547C153.089 203.629 153.15 203.726 153.189 203.833C153.227 203.941 153.243 204.055 153.234 204.168" fill="#F6F2ED"/>
<path d="M156.767 209.514C156.77 209.627 156.748 209.739 156.704 209.842C156.66 209.946 156.595 210.039 156.513 210.115C156.43 210.192 156.333 210.25 156.226 210.287C156.12 210.323 156.007 210.337 155.894 210.326C155.781 210.337 155.666 210.322 155.559 210.283C155.451 210.244 155.354 210.182 155.273 210.101C155.192 210.02 155.13 209.923 155.091 209.815C155.052 209.708 155.037 209.593 155.048 209.48C155.033 209.357 155.047 209.233 155.088 209.117C155.129 209.001 155.197 208.896 155.286 208.811C155.375 208.726 155.483 208.662 155.6 208.626C155.718 208.589 155.843 208.581 155.964 208.601C156.497 208.629 156.751 208.977 156.764 209.517" fill="#F6F2ED"/>
<path d="M152.294 208.574C152.859 208.624 153.197 208.87 153.225 209.409C153.244 209.53 153.235 209.654 153.197 209.772C153.16 209.889 153.097 209.996 153.011 210.085C152.925 210.173 152.82 210.24 152.704 210.281C152.588 210.322 152.464 210.335 152.342 210.32C152.229 210.329 152.115 210.312 152.008 210.271C151.902 210.231 151.806 210.167 151.727 210.085C151.648 210.003 151.588 209.905 151.551 209.797C151.514 209.689 151.502 209.574 151.515 209.461C151.504 209.241 151.579 209.026 151.724 208.86C151.87 208.695 152.074 208.593 152.293 208.575" fill="#F6F2ED"/>
<path d="M155.944 205.046C155.832 205.053 155.719 205.037 155.613 205C155.507 204.963 155.409 204.904 155.326 204.828C155.243 204.753 155.175 204.661 155.128 204.559C155.081 204.456 155.055 204.345 155.052 204.233C155.03 204.121 155.034 204.006 155.062 203.895C155.091 203.785 155.143 203.682 155.215 203.594C155.288 203.506 155.379 203.436 155.482 203.387C155.585 203.338 155.697 203.312 155.811 203.312C155.931 203.286 156.055 203.289 156.174 203.32C156.293 203.351 156.403 203.409 156.496 203.49C156.588 203.571 156.66 203.672 156.707 203.786C156.753 203.9 156.772 204.023 156.762 204.145C156.77 204.259 156.755 204.373 156.718 204.48C156.681 204.588 156.622 204.687 156.546 204.771C156.469 204.855 156.376 204.923 156.273 204.97C156.169 205.017 156.058 205.043 155.944 205.046Z" fill="#F6F2ED"/>
<path d="M159.443 203.286C159.556 203.282 159.668 203.301 159.773 203.342C159.879 203.383 159.974 203.445 160.054 203.524C160.135 203.604 160.198 203.698 160.24 203.803C160.282 203.907 160.303 204.02 160.3 204.132C160.307 204.248 160.29 204.364 160.251 204.473C160.211 204.582 160.15 204.682 160.071 204.767C159.992 204.851 159.897 204.919 159.791 204.966C159.685 205.013 159.57 205.038 159.454 205.039C159.338 205.041 159.223 205.019 159.116 204.974C159.009 204.93 158.912 204.864 158.831 204.782C158.75 204.699 158.686 204.6 158.644 204.492C158.602 204.384 158.583 204.269 158.586 204.153C158.586 203.613 158.918 203.351 159.443 203.289" fill="#F6F2ED"/>
<path d="M155.902 205.916C156.39 206.01 156.749 206.235 156.763 206.781C156.768 206.896 156.749 207.011 156.708 207.119C156.668 207.227 156.606 207.325 156.526 207.408C156.447 207.492 156.352 207.558 156.246 207.604C156.14 207.65 156.026 207.674 155.911 207.675C155.796 207.675 155.682 207.653 155.576 207.609C155.469 207.565 155.373 207.5 155.292 207.418C155.212 207.336 155.148 207.238 155.106 207.131C155.064 207.024 155.043 206.91 155.046 206.795C155.058 206.248 155.408 206.012 155.902 205.916Z" fill="#F6F2ED"/>
<path d="M155.9 211.258C156.016 211.256 156.13 211.277 156.237 211.32C156.344 211.364 156.441 211.428 156.523 211.51C156.604 211.592 156.668 211.689 156.711 211.796C156.754 211.903 156.775 212.018 156.772 212.133C156.769 212.249 156.744 212.362 156.696 212.467C156.648 212.572 156.58 212.667 156.495 212.745C156.41 212.823 156.31 212.883 156.201 212.921C156.092 212.96 155.977 212.976 155.862 212.968C155.748 212.975 155.635 212.957 155.529 212.915C155.424 212.872 155.329 212.807 155.252 212.724C155.175 212.641 155.117 212.542 155.082 212.433C155.048 212.325 155.038 212.211 155.053 212.098C155.045 211.985 155.062 211.872 155.102 211.766C155.142 211.661 155.204 211.565 155.284 211.485C155.365 211.405 155.461 211.344 155.567 211.305C155.673 211.265 155.787 211.25 155.9 211.258Z" fill="#F6F2ED"/>
<path d="M160.31 212.107C160.25 212.671 159.972 212.975 159.437 212.967C159.315 212.98 159.191 212.963 159.077 212.92C158.962 212.876 158.859 212.806 158.777 212.715C158.695 212.624 158.635 212.515 158.602 212.397C158.57 212.279 158.565 212.155 158.59 212.035C158.589 211.921 158.612 211.809 158.66 211.706C158.707 211.603 158.776 211.512 158.863 211.439C158.949 211.366 159.051 211.312 159.16 211.283C159.27 211.254 159.384 211.249 159.496 211.27C159.605 211.268 159.713 211.289 159.814 211.331C159.915 211.373 160.006 211.435 160.081 211.514C160.157 211.592 160.216 211.685 160.255 211.787C160.293 211.889 160.311 211.998 160.306 212.107" fill="#F6F2ED"/>
<path d="M152.381 211.26C152.493 211.252 152.605 211.267 152.71 211.305C152.815 211.344 152.911 211.404 152.991 211.483C153.07 211.562 153.133 211.656 153.173 211.761C153.213 211.865 153.23 211.977 153.223 212.089C153.239 212.201 153.23 212.315 153.197 212.423C153.164 212.531 153.107 212.631 153.031 212.715C152.955 212.799 152.861 212.864 152.757 212.908C152.652 212.951 152.539 212.971 152.426 212.966C152.306 212.986 152.182 212.978 152.065 212.942C151.949 212.907 151.842 212.844 151.754 212.759C151.666 212.674 151.599 212.57 151.558 212.454C151.518 212.339 151.505 212.216 151.521 212.095C151.527 211.557 151.844 211.293 152.381 211.26Z" fill="#F6F2ED"/>
<path d="M35.5383 70.983C45.0766 70.983 52.809 63.2507 52.809 53.7124C52.809 44.1742 45.0766 36.4419 35.5383 36.4419C25.9999 36.4419 18.2676 44.1742 18.2676 53.7124C18.2676 63.2507 25.9999 70.983 35.5383 70.983Z" fill="#596F66"/>
<g opacity="0.696">
<path d="M35.3042 77.6737C34.4642 77.6737 33.6241 77.5975 32.785 77.5213L33.0136 75.0754C33.7775 75.1516 34.5404 75.2278 35.3042 75.2278H35.5291V77.6737H35.3042ZM38.1264 77.5213L37.8207 75.0754C38.5845 74.9992 39.3475 74.8468 40.1113 74.6935L40.6457 77.0603L38.1264 77.5213ZM30.1858 77.1393C29.3498 76.9919 28.5305 76.7619 27.7399 76.4526L28.5038 74.162C29.2676 74.3906 29.9544 74.6201 30.7182 74.7725L30.1858 77.1393ZM43.0897 76.3755L42.2496 74.0848C42.9363 73.8553 43.7002 73.5505 44.3879 73.2448L45.4565 75.4592C44.6955 75.7678 43.8554 76.0745 43.0915 76.3783L43.0897 76.3755ZM25.3759 75.4592C24.612 75.0773 23.8491 74.6954 23.0852 74.2363L24.3082 72.1752C24.9949 72.5571 25.6826 72.9391 26.3693 73.2439L25.3759 75.4592ZM47.671 74.1611L46.3728 72.0999C47.0381 71.7116 47.6758 71.2778 48.2815 70.8018L49.8083 72.7105C49.1234 73.1714 48.4367 73.7057 47.6728 74.1639L47.671 74.1611ZM20.9479 72.8657C20.2612 72.3314 19.6497 71.797 18.963 71.1856L20.6431 69.4293C21.1936 69.9536 21.7805 70.4384 22.3994 70.8798L20.9479 72.8657ZM51.7179 71.0332L50.0378 69.2769C50.586 68.7538 51.0962 68.1923 51.5646 67.5968L53.3971 69.1235C52.9013 69.813 52.3396 70.4526 51.7198 71.0332H51.7179ZM17.2876 69.3531C16.7185 68.7127 16.2075 68.023 15.7608 67.292L17.7429 65.9148L19.1173 67.7473L17.2876 69.3531ZM55.002 67.0634L53.0171 65.689C53.4713 65.072 53.8553 64.4062 54.1619 63.7041L56.3002 64.8489C55.9129 65.6128 55.4794 66.3523 55.002 67.0634ZM14.3836 65.1547C14.0016 64.3908 13.6197 63.6279 13.3149 62.864L15.6055 61.9478C15.9113 62.6345 16.2161 63.3222 16.598 64.0089L14.3836 65.1547ZM57.3745 62.5583L55.0838 61.642C55.3926 60.931 55.6228 60.1885 55.7706 59.4276L58.1374 60.0381C57.9274 60.8915 57.6711 61.7328 57.3698 62.5583H57.3745ZM12.4748 60.421C12.2462 59.581 12.0929 58.7409 11.9405 57.9018L14.3074 57.5199C14.4405 58.2681 14.6189 59.0076 14.8417 59.7343L12.4748 60.421ZM58.6642 57.5989L56.2974 57.2169C56.4498 56.4531 56.4498 55.6902 56.526 54.9263L58.9718 55.0025C58.8966 55.9159 58.8204 56.756 58.6708 57.596L58.6642 57.5989ZM11.6348 55.3788V52.7824L14.0806 52.9348V55.2255L11.6348 55.3788ZM56.4535 52.63C56.3773 51.8662 56.3011 51.1033 56.1478 50.3394L58.5147 49.9575C58.6671 50.7975 58.7433 51.6376 58.8204 52.4767L56.4535 52.63ZM14.3092 50.6451L11.9424 50.2632C12.0948 49.4231 12.2481 48.5831 12.4767 47.744L14.8436 48.3545C14.5926 49.1003 14.4131 49.8682 14.3074 50.6479L14.3092 50.6451ZM55.6925 48.1259C55.4841 47.3975 55.229 46.6832 54.9286 45.9877L57.1431 45.0714C57.4688 45.8703 57.7493 46.6868 57.9832 47.5173L55.6925 48.1259ZM15.5284 46.2191L13.234 45.3028C13.5439 44.5185 13.9008 43.7536 14.3027 43.0122L16.4409 44.157C16.091 44.8232 15.7862 45.5121 15.5284 46.2191ZM53.9333 43.9285C53.5514 43.2417 53.1695 42.6303 52.7104 41.9436L54.6953 40.5692C55.1535 41.2559 55.6116 42.0197 56.0697 42.7836L53.9333 43.9285ZM17.6657 42.1721L15.6799 40.7978C16.138 40.111 16.6723 39.4234 17.2067 38.7367L19.0392 40.3359C18.4981 40.8811 18.0361 41.4995 17.6667 42.1731L17.6657 42.1721ZM51.337 40.111C50.8026 39.5005 50.2683 38.9662 49.7377 38.4309L51.4179 36.6746C52.0284 37.2851 52.6408 37.8975 53.1742 38.5071L51.337 40.111ZM20.5716 38.6605L18.8915 36.9041C19.502 36.2936 20.1897 35.7593 20.8002 35.224L22.2508 37.1328C21.7137 37.5918 21.1784 38.1261 20.5716 38.6605ZM47.9823 36.9804C47.3767 36.5043 46.7389 36.0705 46.0736 35.6822L47.2966 33.6211C48.0384 34.0603 48.7525 34.5447 49.4348 35.0716L47.9823 36.9804ZM24.2367 35.8355L22.9385 33.7744C23.6508 33.3217 24.3904 32.9133 25.1529 32.5515L26.2159 34.7669C25.5312 35.0772 24.8686 35.4343 24.2329 35.8355H24.2367ZM44.0859 34.6126C43.392 34.2868 42.6777 34.0062 41.9476 33.7725L42.7115 31.4819C43.5515 31.7876 44.3107 32.0924 45.0783 32.3981L44.0859 34.6126ZM28.3561 33.9306L27.5922 31.6399C28.386 31.3405 29.2044 31.1108 30.0381 30.9532L30.5724 33.32C29.8158 33.452 29.0736 33.6565 28.3561 33.9306ZM39.7322 33.2438C38.9684 33.0915 38.2054 32.9381 37.4416 32.8619L37.6702 30.4161C38.5102 30.4923 39.3503 30.6447 40.1894 30.798L39.7322 33.2438ZM32.865 32.8619L32.5592 30.4161C33.3993 30.3399 34.2394 30.2637 35.0785 30.2637V32.7095C34.388 32.781 33.6241 32.781 32.8603 32.8582L32.865 32.8619Z" fill="#F6F2ED"/>
</g>
<path d="M31.1621 41.3875C31.1743 41.2222 31.2331 41.0638 31.3317 40.9307C31.4303 40.7975 31.5646 40.6949 31.719 40.6349C32.1974 40.4052 32.7238 40.2933 33.2543 40.3085H37.3596C37.8904 40.2947 38.4169 40.4083 38.8948 40.6396C39.0493 40.6996 39.1836 40.8022 39.2822 40.9354C39.3807 41.0686 39.4395 41.2269 39.4518 41.3922V64.0144C39.4525 64.2335 39.3975 64.4492 39.2918 64.6411C39.1862 64.833 39.0333 64.9948 38.8478 65.1113C38.4035 65.3931 37.8856 65.5371 37.3596 65.5252H33.2543C32.7282 65.5371 32.2104 65.3931 31.7661 65.1113C31.5805 64.9948 31.4277 64.833 31.322 64.6411C31.2164 64.4492 31.1613 64.2335 31.1621 64.0144V41.3875Z" fill="#2F4F4F" stroke="#F6F2ED"/>
<path d="M37.7044 56.8887H32.9057C32.5161 56.8887 32.2002 57.2046 32.2002 57.5942V62.6599C32.2002 63.0496 32.5161 63.3655 32.9057 63.3655H37.7044C38.094 63.3655 38.4099 63.0496 38.4099 62.6599V57.5942C38.4099 57.2046 38.094 56.8887 37.7044 56.8887Z" fill="#F6F2ED"/>
<path d="M37.1004 53.7567C37.1004 52.8283 36.3478 52.0757 35.4193 52.0757C34.4909 52.0757 33.7383 52.8283 33.7383 53.7567C33.7383 54.6852 34.4909 55.4378 35.4193 55.4378C36.3478 55.4378 37.1004 54.6852 37.1004 53.7567Z" fill="#F6F2ED"/>
<path d="M36.9329 43.1099H33.6808C33.0314 43.1099 32.5049 43.6363 32.5049 44.2858V49.7786C32.5049 50.428 33.0314 50.9545 33.6808 50.9545H36.9329C37.5823 50.9545 38.1088 50.428 38.1088 49.7786V44.2858C38.1088 43.6363 37.5823 43.1099 36.9329 43.1099Z" fill="#F6F2ED"/>
<path d="M35.1338 41.6904H35.5656" stroke="#F6F2ED" stroke-linecap="round" stroke-linejoin="round"/>
<path d="M213.652 150.248C221.071 150.248 227.085 144.234 227.085 136.815C227.085 129.397 221.071 123.383 213.652 123.383C206.234 123.383 200.22 129.397 200.22 136.815C200.22 144.234 206.234 150.248 213.652 150.248Z" fill="#596F66"/>
<g opacity="0.696">
<path d="M213.472 155.452C212.82 155.452 212.166 155.393 211.513 155.334L211.691 153.433C212.284 153.493 212.879 153.552 213.472 153.552H213.65V155.452H213.472ZM215.67 155.334L215.432 153.433C216.026 153.374 216.62 153.256 217.214 153.136L217.629 154.977L215.67 155.334ZM209.494 155.036C208.845 154.922 208.208 154.743 207.594 154.502L208.187 152.72C208.781 152.898 209.316 153.077 209.91 153.195L209.494 155.036ZM219.53 154.443L218.877 152.661C219.411 152.483 220.006 152.245 220.54 152.008L221.372 153.731C220.776 153.969 220.123 154.205 219.53 154.443ZM205.753 153.73C205.159 153.433 204.565 153.136 203.971 152.78L204.921 151.18C205.456 151.478 205.99 151.774 206.521 152.012L205.753 153.73ZM223.097 152.724L222.088 151.125C222.604 150.821 223.098 150.481 223.567 150.109L224.755 151.593C224.221 151.95 223.687 152.366 223.097 152.724ZM202.307 151.712C201.773 151.296 201.298 150.88 200.763 150.405L202.07 149.039C202.498 149.447 202.955 149.825 203.436 150.168L202.307 151.712ZM226.239 150.287L224.932 148.921C225.359 148.514 225.756 148.077 226.12 147.614L227.546 148.802C227.16 149.338 226.721 149.836 226.239 150.287ZM199.457 148.98C199.014 148.483 198.616 147.948 198.269 147.381L199.812 146.312L200.881 147.737L199.457 148.98ZM228.792 147.198L227.248 146.13C227.602 145.65 227.901 145.132 228.139 144.586L229.802 145.477C229.501 146.071 229.164 146.646 228.793 147.199L228.792 147.198ZM197.202 145.714C196.904 145.12 196.608 144.526 196.37 143.932L198.152 143.219C198.39 143.754 198.627 144.288 198.924 144.818L197.202 145.714ZM230.635 143.695L228.853 142.983C229.093 142.43 229.273 141.853 229.388 141.261L231.229 141.736C231.066 142.398 230.867 143.052 230.634 143.693L230.635 143.695ZM195.716 142.033C195.539 141.38 195.419 140.726 195.301 140.073L197.142 139.776C197.245 140.358 197.384 140.933 197.557 141.499L195.716 142.033ZM231.643 139.836L229.802 139.539C229.921 138.946 229.921 138.351 229.98 137.757L231.88 137.817C231.822 138.529 231.763 139.178 231.643 139.836ZM195.063 138.113V136.094L196.964 136.213V137.994L195.063 138.113ZM229.922 135.979C229.863 135.386 229.803 134.791 229.685 134.198L231.526 133.901C231.644 134.553 231.704 135.207 231.764 135.86L229.922 135.979ZM197.142 134.432L195.301 134.135C195.419 133.482 195.539 132.828 195.716 132.175L197.557 132.65C197.363 133.23 197.223 133.826 197.142 134.432ZM229.327 132.473C229.165 131.906 228.967 131.35 228.734 130.809L230.456 130.096C230.709 130.717 230.927 131.351 231.109 131.997L229.327 132.473ZM198.095 130.988L196.314 130.275C196.555 129.665 196.833 129.07 197.145 128.493L198.808 129.384C198.534 129.902 198.294 130.437 198.092 130.987L198.095 130.988ZM227.962 129.206C227.665 128.672 227.369 128.197 227.012 127.663L228.556 126.594C228.913 127.128 229.269 127.723 229.625 128.316L227.962 129.206ZM199.755 127.84L198.211 126.772C198.568 126.237 198.983 125.703 199.399 125.173L200.824 126.42C200.404 126.841 200.044 127.319 199.755 127.84ZM225.943 126.241C225.527 125.766 225.111 125.35 224.695 124.935L226.002 123.569C226.477 124.044 226.952 124.519 227.368 124.994L225.943 126.241ZM202.011 125.112L200.708 123.743C201.183 123.272 201.717 122.852 202.192 122.436L203.321 123.921C202.903 124.277 202.487 124.691 202.012 125.109L202.011 125.112ZM223.329 123.806C222.858 123.436 222.362 123.098 221.845 122.796L222.795 121.197C223.372 121.539 223.927 121.916 224.458 122.326L223.329 123.806ZM204.861 122.915L203.853 121.304C204.407 120.953 204.982 120.635 205.575 120.354L206.407 122.077C205.873 122.319 205.357 122.598 204.862 122.911L204.861 122.915ZM220.301 121.965C219.762 121.709 219.207 121.488 218.639 121.304L219.232 119.523C219.885 119.76 220.48 119.998 221.073 120.236L220.301 121.965ZM208.072 121.43L207.478 119.649C208.095 119.416 208.731 119.237 209.378 119.114L209.794 120.955C209.205 121.057 208.628 121.215 208.069 121.427L208.072 121.43ZM216.92 120.896C216.327 120.778 215.732 120.658 215.138 120.599L215.316 118.699C215.969 118.758 216.623 118.876 217.276 118.996L216.92 120.896ZM211.576 120.599L211.338 118.699C211.991 118.639 212.645 118.58 213.297 118.58V120.48C212.759 120.536 212.166 120.536 211.572 120.595L211.576 120.599Z" fill="#F6F2ED"/>
</g>
<path d="M206.505 139.734C206.512 139.187 206.663 138.651 206.944 138.182C207.951 136.432 208.957 134.681 209.96 132.929C210.792 131.483 211.621 130.037 212.447 128.59C212.523 128.426 212.646 128.286 212.799 128.19C212.953 128.094 213.132 128.045 213.313 128.048C213.46 128.043 213.607 128.076 213.737 128.146C213.867 128.216 213.977 128.319 214.054 128.445C214.304 128.834 214.533 129.235 214.742 129.648C214.855 129.874 214.907 130.127 214.894 130.38C214.88 130.633 214.801 130.878 214.665 131.092L212.601 134.656L208.225 142.229C208.191 142.287 208.16 142.346 208.121 142.401C208.081 142.471 208.023 142.529 207.953 142.569C207.883 142.609 207.804 142.63 207.724 142.63C207.643 142.63 207.564 142.609 207.494 142.569C207.424 142.529 207.366 142.471 207.326 142.401C207.172 142.151 207.042 141.888 206.938 141.614C206.689 141.016 206.543 140.38 206.505 139.734Z" fill="#F6F2ED"/>
<path d="M216.199 143.892C216.204 144.316 216.045 144.726 215.755 145.035C215.607 145.195 215.45 145.346 215.293 145.498C215.065 145.743 214.763 145.907 214.433 145.962C214.102 146.017 213.763 145.96 213.469 145.802C212.551 145.372 211.636 144.937 210.721 144.504C210.539 144.419 210.356 144.337 210.178 144.244C209.99 144.153 209.824 144.024 209.688 143.866C209.553 143.708 209.451 143.523 209.39 143.324C209.329 143.125 209.31 142.915 209.334 142.708C209.358 142.502 209.424 142.302 209.529 142.122C209.933 141.398 210.347 140.68 210.773 139.968C210.865 139.8 210.996 139.656 211.155 139.548C211.314 139.441 211.496 139.372 211.686 139.349C211.877 139.325 212.07 139.348 212.25 139.414C212.431 139.48 212.592 139.588 212.723 139.729C213.711 140.709 214.698 141.694 215.678 142.677C215.842 142.834 215.973 143.022 216.062 143.231C216.151 143.44 216.197 143.664 216.197 143.891" fill="#F6F2ED"/>
<path d="M216.778 138.341C217.449 138.341 218.12 138.331 218.791 138.341C219.082 138.338 219.37 138.412 219.624 138.555C219.878 138.698 220.091 138.905 220.24 139.155C220.4 139.396 220.472 139.684 220.444 139.971C220.417 140.258 220.291 140.527 220.088 140.733C219.609 141.227 219.123 141.714 218.624 142.187C218.494 142.316 218.339 142.418 218.168 142.486C217.997 142.553 217.815 142.586 217.631 142.582C217.448 142.577 217.267 142.536 217.1 142.461C216.933 142.385 216.782 142.276 216.658 142.141C216.065 141.56 215.481 140.968 214.893 140.381C214.656 140.144 214.415 139.911 214.182 139.668C214.068 139.558 213.99 139.416 213.958 139.261C213.927 139.105 213.945 138.944 214.008 138.799C214.071 138.654 214.178 138.531 214.313 138.449C214.448 138.366 214.605 138.326 214.763 138.336C215.435 138.336 216.106 138.336 216.778 138.336" fill="#F6F2ED"/>
<path d="M215.606 137.277C215.135 137.277 214.665 137.281 214.195 137.277C213.927 137.281 213.668 137.185 213.468 137.007C213.269 136.83 213.142 136.584 213.115 136.318C213.088 136.074 213.145 135.829 213.276 135.621C213.625 135.02 213.973 134.418 214.32 133.815C214.437 133.612 214.55 133.407 214.673 133.206C214.78 133.017 214.935 132.86 215.123 132.751C215.311 132.642 215.524 132.584 215.741 132.585C215.959 132.586 216.172 132.644 216.359 132.754C216.546 132.864 216.7 133.022 216.806 133.212C217.239 133.939 217.661 134.671 218.074 135.409C218.191 135.598 218.255 135.815 218.258 136.037C218.261 136.259 218.204 136.478 218.092 136.67C217.98 136.862 217.818 137.02 217.624 137.127C217.429 137.234 217.209 137.286 216.987 137.277C216.526 137.277 216.065 137.277 215.603 137.277" fill="#F6F2ED"/>
<path d="M69.4329 218.458C75.8981 218.458 81.1392 213.217 81.1392 206.752C81.1392 200.287 75.8981 195.046 69.4329 195.046C62.9677 195.046 57.7266 200.287 57.7266 206.752C57.7266 213.217 62.9677 218.458 69.4329 218.458Z" fill="#596F66"/>
<g opacity="0.696">
<path d="M69.2735 222.995C68.7044 222.995 68.1352 222.944 67.5661 222.892L67.7213 221.236C68.2387 221.288 68.7561 221.34 69.2735 221.34H69.4287V222.995H69.2735ZM71.1888 222.892L70.9818 221.236C71.4992 221.184 72.0166 221.081 72.534 220.977L72.8962 222.581L71.1888 222.892ZM65.806 222.633C65.2399 222.531 64.6853 222.374 64.1503 222.163L64.6677 220.611C65.1851 220.766 65.6508 220.921 66.1729 221.024L65.806 222.633ZM74.5547 222.116L73.9856 220.563C74.4559 220.408 74.9686 220.201 75.4343 219.994L76.1586 221.499C75.6384 221.702 75.0693 221.909 74.5519 222.116H74.5547ZM62.5483 221.495C62.0309 221.236 61.5135 220.977 60.9961 220.667L61.8239 219.27C62.2943 219.529 62.7552 219.787 63.2209 219.994L62.5483 221.495ZM77.66 220.615L76.7804 219.218C77.2313 218.955 77.6635 218.661 78.0739 218.339L79.1087 219.632C78.6402 219.942 78.1746 220.301 77.6572 220.615H77.66ZM59.5436 219.737C59.0733 219.374 58.664 219.012 58.1984 218.598L59.3367 217.408C59.7096 217.764 60.1073 218.092 60.5267 218.391L59.5436 219.737ZM80.4003 218.495L79.2621 217.305C79.6336 216.951 79.9794 216.57 80.2969 216.167L81.5386 217.201C81.202 217.668 80.8208 218.1 80.4003 218.493V218.495ZM57.0592 217.357C56.6735 216.923 56.3272 216.455 56.0244 215.96L57.3696 215.028L58.3009 216.27L57.0592 217.357ZM82.6251 215.804L81.2799 214.873C81.5878 214.455 81.8481 214.004 82.056 213.528L83.5047 214.304C83.2422 214.821 82.9485 215.321 82.6251 215.802V215.804ZM55.0931 214.508C54.8344 213.991 54.5757 213.473 54.3687 212.956L55.9209 212.335C56.1279 212.805 56.3348 213.266 56.5935 213.732L55.0931 214.508ZM84.23 212.748L82.6778 212.127C82.889 211.644 83.0468 211.139 83.1482 210.622L84.7521 211.036C84.6093 211.616 84.435 212.187 84.23 212.748ZM53.7986 211.299C53.6434 210.73 53.5399 210.161 53.4365 209.592L55.0404 209.333C55.1305 209.842 55.2514 210.345 55.4026 210.838L53.7986 211.299ZM85.1096 209.389L83.5057 209.13C83.6091 208.613 83.6091 208.095 83.6609 207.578L85.3165 207.63C85.2648 208.246 85.214 208.815 85.1096 209.389ZM53.2295 207.884V206.124L54.8852 206.227V207.779L53.2295 207.884ZM83.6091 206.02C83.5574 205.503 83.5057 204.985 83.4022 204.468L85.0061 204.209C85.1096 204.778 85.1613 205.347 85.2131 205.918L83.6091 206.02ZM55.0413 204.675L53.4374 204.416C53.5409 203.847 53.6444 203.278 53.7996 202.708L55.4035 203.122C55.2339 203.627 55.1127 204.147 55.0413 204.675ZM83.0917 202.967C82.9506 202.474 82.7778 201.99 82.5743 201.519L84.0795 200.898C84.3001 201.439 84.4902 201.991 84.6486 202.554L83.0917 202.967ZM55.8692 201.675L54.317 201.054C54.527 200.523 54.7689 200.004 55.0413 199.502L56.49 200.278C56.2521 200.729 56.0447 201.196 55.8692 201.675ZM81.9017 200.123C81.643 199.652 81.3843 199.243 81.0739 198.778L82.4191 197.846C82.7296 198.317 83.04 198.829 83.3504 199.351L81.9017 200.123ZM57.3179 198.93L55.9726 197.999C56.2831 197.528 56.6453 197.067 57.0074 196.602L58.2492 197.688C57.8823 198.057 57.5688 198.475 57.3179 198.93ZM80.1416 197.536C79.7795 197.122 79.4173 196.76 79.0551 196.398L80.1934 195.208C80.6073 195.621 81.0212 196.035 81.3834 196.449L80.1416 197.536ZM59.2849 196.553L58.1466 195.363C58.5606 194.949 59.0262 194.587 59.4401 194.224L60.4232 195.518C60.061 195.825 59.6988 196.188 59.2849 196.55V196.553ZM77.8642 195.415C77.4537 195.092 77.0215 194.798 76.5707 194.535L77.3985 193.138C77.9011 193.436 78.3849 193.764 78.8472 194.121L77.8642 195.415ZM61.7684 194.638L60.8888 193.241C61.3731 192.935 61.8757 192.658 62.394 192.414L63.1184 193.919C62.6525 194.126 62.2014 194.365 61.7684 194.635V194.638ZM75.2207 193.811C74.7506 193.59 74.2667 193.4 73.772 193.241L74.2894 191.689C74.8585 191.896 75.3759 192.103 75.8933 192.31L75.2207 193.811ZM64.5595 193.34L64.0478 191.788C64.585 191.584 65.139 191.426 65.7035 191.318L66.0656 192.922C65.5525 193.013 65.0494 193.153 64.5633 193.341L64.5595 193.34ZM72.2734 192.87C71.7561 192.766 71.2387 192.663 70.7213 192.611L70.8765 190.956C71.4456 191.007 72.0147 191.111 72.5839 191.214L72.2734 192.87ZM67.6159 192.611L67.409 190.956C67.9781 190.904 68.5473 190.852 69.1164 190.852V192.508C68.6517 192.564 68.1343 192.564 67.6169 192.617L67.6159 192.611Z" fill="#F6F2ED"/>
</g>
<path d="M68.7888 209.976L66.198 207.398H61.1436L68.7888 215.018V209.976Z" fill="#F6F2ED"/>
<path d="M69.7373 215.06L77.3788 207.398H72.3356L69.7373 210.001V215.06Z" fill="#F6F2ED"/>
<path d="M69.7373 198.797V203.841L72.3525 206.451H77.4117L69.7373 198.797Z" fill="#F6F2ED"/>
<path d="M68.7813 198.793L61.1436 206.451H66.1868L68.7813 203.848V198.793Z" fill="#F6F2ED"/>
<g opacity="0.4">
<path d="M113 38L113 84" stroke="#F6F2ED" stroke-width="2" stroke-dasharray="2 2"/>
<path d="M137 89.5L177.044 64.5977" stroke="#F6F2ED" stroke-width="2" stroke-dasharray="2 2"/>
<path d="M137.531 111.633L188.33 133.27" stroke="#F6F2ED" stroke-width="2" stroke-dasharray="2 2"/>
<path d="M127 144L145.06 180.305" stroke="#F6F2ED" stroke-width="2" stroke-dasharray="2 2"/>
<path d="M104.499 145L80.1494 188.772" stroke="#F6F2ED" stroke-width="2" stroke-dasharray="2 2"/>
<path d="M37.8154 131.388L85.7922 110.692" stroke="#F6F2ED" stroke-width="2" stroke-dasharray="2 2"/>
<path d="M58.5107 70.2417L88 90.4998" stroke="#F6F2ED" stroke-width="2" stroke-dasharray="2 2"/>
</g>
<path fill-rule="evenodd" clip-rule="evenodd" d="M133 114C133 129 113 139 113 139C113 139 93 129 93 114V96.5L113 89L133 96.5V114ZM112.596 112.528L104.187 106.593C104.083 106.52 104.021 106.4 104.021 106.273V103.325C104.021 103.005 104.385 102.82 104.644 103.009L112.813 108.971C112.95 109.072 113.136 109.072 113.274 108.972L121.462 103.021C121.721 102.833 122.084 103.018 122.084 103.338V106.206C122.084 106.332 122.022 106.451 121.919 106.525L113.492 112.528L113.252 112.679C113.125 112.758 112.963 112.758 112.836 112.679L112.596 112.528ZM104.414 119.314C104.198 119.314 104.023 119.49 104.023 119.706V122.055C104.023 122.271 104.198 122.446 104.414 122.446L121.674 122.446C121.891 122.446 122.066 122.271 122.066 122.055V119.692C122.066 119.475 121.891 119.3 121.674 119.3L114.898 119.3C114.521 119.3 114.362 118.819 114.664 118.594L121.925 113.184C122.024 113.111 122.083 112.994 122.083 112.87V109.997C122.083 109.677 121.72 109.492 121.461 109.68L113.273 115.631C113.135 115.731 112.949 115.731 112.812 115.631L104.643 109.668C104.384 109.479 104.021 109.664 104.021 109.984V112.938C104.021 113.062 104.08 113.179 104.18 113.253L111.417 118.595C111.721 118.819 111.563 119.301 111.185 119.302L104.414 119.314Z" fill="#F6F2ED"/>
</svg>
