<svg width="125" height="114" viewBox="0 0 125 114" fill="none" xmlns="http://www.w3.org/2000/svg">
<path opacity="0.4" d="M121.932 19.484C121.807 19.4528 121.698 19.3749 121.628 19.2662C121.558 19.1575 121.532 19.0262 121.555 18.8991C121.579 18.7719 121.65 18.6584 121.754 18.5818C121.858 18.5052 121.987 18.4711 122.116 18.4867C122.244 18.5022 122.362 18.5661 122.445 18.6654C122.528 18.7646 122.569 18.8917 122.562 19.0208C122.554 19.1499 122.498 19.2713 122.404 19.3601C122.31 19.449 122.185 19.4986 122.056 19.499C122.014 19.4991 121.973 19.4941 121.932 19.484ZM123.5 17.627C123.5 17.4795 123.544 17.3352 123.626 17.2125C123.708 17.0899 123.824 16.9942 123.961 16.9378C124.097 16.8813 124.247 16.8666 124.392 16.8953C124.536 16.9241 124.669 16.9952 124.774 17.0995C124.878 17.2038 124.949 17.3368 124.978 17.4815C125.007 17.6262 124.992 17.7762 124.935 17.9125C124.879 18.0488 124.783 18.1653 124.661 18.2473C124.538 18.3292 124.394 18.373 124.246 18.373C124.048 18.373 123.859 18.2944 123.719 18.1545C123.579 18.0146 123.5 17.8249 123.5 17.627ZM121.326 0.946C121.326 0.758856 121.382 0.575917 121.486 0.420327C121.59 0.264736 121.737 0.143486 121.91 0.0719146C122.083 0.000343576 122.274 -0.0183319 122.457 0.0182508C122.641 0.0548336 122.809 0.145031 122.941 0.277431C123.074 0.409832 123.164 0.578486 123.2 0.762058C123.237 0.94563 123.218 1.13587 123.146 1.30871C123.074 1.48155 122.953 1.62923 122.797 1.73306C122.641 1.83688 122.458 1.8922 122.271 1.892C122.147 1.892 122.024 1.86752 121.909 1.81997C121.795 1.77242 121.69 1.70272 121.603 1.61486C121.515 1.527 121.445 1.42271 121.398 1.30794C121.35 1.19317 121.326 1.07018 121.326 0.946Z" fill="#888888"/>
<path opacity="0.4" d="M116.288 18.3738C121.095 18.3738 124.992 14.4769 124.992 9.66982C124.992 4.86273 121.095 0.96582 116.288 0.96582C111.481 0.96582 107.584 4.86273 107.584 9.66982C107.584 14.4769 111.481 18.3738 116.288 18.3738Z" fill="#2D6759"/>
<path opacity="0.4" d="M23.5318 108.646C36.5226 108.646 47.0538 98.1144 47.0538 85.1236C47.0538 72.1327 36.5226 61.6016 23.5318 61.6016C10.5409 61.6016 0.00976562 72.1327 0.00976562 85.1236C0.00976562 98.1144 10.5409 108.646 23.5318 108.646Z" fill="#2D6759"/>
<path opacity="0.4" d="M17.0314 111.915C17.0314 111.517 17.1496 111.127 17.371 110.796C17.5924 110.464 17.9071 110.206 18.2753 110.054C18.6435 109.901 19.0487 109.861 19.4395 109.939C19.8304 110.017 20.1894 110.209 20.4712 110.49C20.753 110.772 20.945 111.131 21.0227 111.522C21.1005 111.913 21.0605 112.318 20.908 112.686C20.7555 113.055 20.4973 113.369 20.1659 113.591C19.8345 113.812 19.445 113.93 19.0464 113.93C18.512 113.93 17.9995 113.718 17.6216 113.34C17.2437 112.962 17.0314 112.45 17.0314 111.915ZM24.0794 112.015C24.0794 111.743 24.1601 111.477 24.3114 111.251C24.4626 111.024 24.6776 110.848 24.9291 110.744C25.1806 110.64 25.4573 110.613 25.7242 110.666C25.9912 110.719 26.2364 110.85 26.4288 111.043C26.6212 111.235 26.7521 111.48 26.8051 111.747C26.8581 112.014 26.8307 112.291 26.7264 112.542C26.6221 112.794 26.4456 113.009 26.2192 113.16C25.9927 113.311 25.7266 113.391 25.4544 113.391C25.0895 113.391 24.7395 113.246 24.4814 112.988C24.2234 112.73 24.0794 112.38 24.0794 112.015ZM5.60742 62.1702C5.60762 61.6647 5.75769 61.1707 6.03867 60.7505C6.31965 60.3303 6.71891 60.0028 7.18598 59.8095C7.65304 59.6162 8.16694 59.5657 8.66269 59.6645C9.15844 59.7632 9.61378 60.0067 9.97114 60.3642C10.3285 60.7217 10.5718 61.1772 10.6704 61.673C10.7689 62.1687 10.7182 62.6826 10.5248 63.1496C10.3313 63.6166 10.0037 64.0157 9.58336 64.2965C9.16305 64.5774 8.66891 64.7272 8.16342 64.7272C7.82768 64.7272 7.49523 64.6611 7.18505 64.5326C6.87488 64.4041 6.59306 64.2157 6.3557 63.9782C6.11834 63.7408 5.93009 63.4589 5.8017 63.1487C5.67331 62.8385 5.60729 62.506 5.60742 62.1702Z" fill="#888888"/>
<path d="M33.7734 9.26527L33.7734 98.3223C33.7734 101.084 36.012 103.322 38.7734 103.322H107.993C110.755 103.322 112.993 101.084 112.993 98.3223V9.26527C112.993 6.50385 110.755 4.26527 107.993 4.26527H38.7734C36.012 4.26527 33.7734 6.50385 33.7734 9.26527Z" fill="#F7F2EC"/>
<path d="M34.5234 9.26527L34.5234 98.3223C34.5234 100.669 36.4262 102.572 38.7734 102.572H107.993C110.341 102.572 112.243 100.669 112.243 98.3223V9.26527C112.243 6.91805 110.341 5.01527 107.993 5.01527H38.7734C36.4262 5.01527 34.5234 6.91805 34.5234 9.26527Z" stroke="#002C27" stroke-width="1.5"/>
<path d="M54.2719 56.1726H50.6559V57.8496H49.7559V53.3346H50.6559V55.0116H54.2719V56.1726Z" fill="#F7F2EC"/>
<path d="M50.2313 52.359C49.8773 52.211 49.7023 52.023 49.7023 51.469C49.6745 51.2832 49.712 51.0934 49.8084 50.9322C49.9049 50.771 50.0544 50.6482 50.2313 50.585L54.2703 48.895V50.115L53.2393 50.521V52.421L54.2713 52.83V54.042L50.2313 52.359ZM52.3603 52.142V50.803L50.9283 51.378C50.8583 51.405 50.7863 51.423 50.7863 51.469C50.7863 51.515 50.8563 51.539 50.9283 51.569L52.3603 52.142Z" fill="#F7F2EC"/>
<path d="M54.2704 48.6684H50.4544C50.3608 48.682 50.2653 48.6738 50.1754 48.6446C50.0855 48.6153 50.0035 48.5657 49.9358 48.4997C49.8681 48.4337 49.8165 48.3529 49.7851 48.2637C49.7536 48.1746 49.7431 48.0793 49.7544 47.9854V45.5854C49.7544 44.5854 50.3804 44.3654 51.2834 44.3654C52.1864 44.3654 52.8254 44.5854 52.8254 45.5854V47.5074H54.2714V48.6684H54.2704ZM51.9214 46.1844C51.9214 45.7004 51.7334 45.5524 51.2824 45.5524C50.8314 45.5524 50.6544 45.7014 50.6544 46.1844V47.2034C50.6544 47.4294 50.7324 47.5034 50.9544 47.5034H51.9164L51.9214 46.1844Z" fill="#F7F2EC"/>
<path d="M53.7798 43.6247V41.1027C53.7798 40.7607 53.5408 40.6247 53.1478 40.6247C52.9088 40.6247 52.6698 40.6757 52.5218 41.1247L51.9278 42.9147C51.8715 43.1593 51.7261 43.3741 51.5199 43.5172C51.3137 43.6604 51.0616 43.7215 50.8128 43.6887C50.6719 43.709 50.5282 43.6967 50.3928 43.6529C50.2574 43.609 50.1338 43.5347 50.0315 43.4356C49.9293 43.3366 49.8511 43.2154 49.803 43.0814C49.7548 42.9474 49.738 42.8042 49.7538 42.6627V40.2167H50.2428V42.5527C50.2428 42.8947 50.4038 43.0627 50.8238 43.0627C50.9617 43.0843 51.1027 43.0522 51.2177 42.9732C51.3328 42.8942 51.4133 42.7742 51.4428 42.6377L52.0098 40.9377C52.2098 40.3377 52.4348 40.0027 53.1448 40.0027C53.7578 40.0027 54.2678 40.2417 54.2678 40.9377V43.6247H53.7798Z" fill="#F7F2EC"/>
<path d="M54.2719 39.3203H49.7559V38.7203H54.2719V39.3203Z" fill="#F7F2EC"/>
<path d="M53.681 33.9797C54.1 33.9797 54.267 34.1867 54.267 34.5737V36.2137C54.267 37.6787 53.267 38.0137 52.009 38.0137C50.751 38.0137 49.752 37.6777 49.752 36.1297V34.0847H50.241V35.9287C50.241 37.0577 50.784 37.3857 52.01 37.3857C53.236 37.3857 53.778 37.0577 53.778 36.0137V34.8757C53.778 34.6497 53.7 34.5757 53.478 34.5757H52.125V33.9757L53.681 33.9797Z" fill="#F7F2EC"/>
<path d="M53.7553 29.199C53.8299 29.1897 53.9056 29.1971 53.977 29.2208C54.0484 29.2444 54.1136 29.2837 54.1679 29.3357C54.2222 29.3877 54.2642 29.4511 54.2909 29.5214C54.3176 29.5917 54.3283 29.6671 54.3223 29.742C54.3275 29.8649 54.2967 29.9866 54.2336 30.0921C54.1705 30.1977 54.0779 30.2824 53.9673 30.336L50.5623 32.465C50.4843 32.51 50.4523 32.548 50.4523 32.594C50.4523 32.62 50.4783 32.685 50.5813 32.685H54.2713V33.271H50.2393C50.1659 33.2766 50.0922 33.266 50.0235 33.2398C49.9547 33.2137 49.8926 33.1727 49.8415 33.1198C49.7904 33.0669 49.7516 33.0034 49.7279 32.9337C49.7042 32.8641 49.6961 32.7901 49.7043 32.717C49.6975 32.5989 49.7248 32.4814 49.783 32.3784C49.8411 32.2753 49.9276 32.1912 50.0323 32.136L53.4643 29.989C53.5153 29.957 53.5743 29.93 53.5743 29.866C53.5743 29.802 53.5043 29.788 53.4643 29.788H49.7533V29.201H53.7533L53.7553 29.199Z" fill="#F7F2EC"/>
<path d="M54.269 27.7293C54.2805 27.8157 54.2719 27.9035 54.2438 27.986C54.2157 28.0684 54.1688 28.1432 54.1069 28.2045C54.0449 28.2657 53.9696 28.3118 53.8869 28.339C53.8041 28.3662 53.7162 28.3739 53.63 28.3613H50.391C49.908 28.3613 49.752 28.1223 49.752 27.7293V24.9363H50.241V27.4613C50.241 27.7133 50.319 27.7613 50.541 27.7613H51.712V25.0013H52.201V27.7613H53.465C53.691 27.7613 53.774 27.7163 53.774 27.4613V24.9123H54.264V27.7293H54.269Z" fill="#F7F2EC"/>
<path d="M50.4389 24.2637C49.9559 24.2637 49.7559 24.0247 49.7559 23.5997V21.5087C49.7559 20.6757 50.2849 20.4087 51.1239 20.4087C51.9889 20.4087 52.5619 20.6537 52.5619 21.4347V22.1637H52.5939L54.2719 20.3157V21.1157L52.6849 22.8447C52.6508 22.89 52.6081 22.9282 52.5592 22.9568C52.5102 22.9855 52.4561 23.0042 52.3999 23.0117H52.2999C52.1649 23.0117 52.0739 22.9117 52.0739 22.7407V21.6407C52.0739 21.0927 51.6739 21.0407 51.1249 21.0407C50.5759 21.0407 50.2479 21.1317 50.2479 21.7407V23.3417C50.2469 23.5487 50.3119 23.6637 50.5559 23.6637H54.2729V24.2637H50.4389Z" fill="#F7F2EC"/>
<path d="M41.4766 16.2201L41.4766 91.3691C41.4766 93.7164 43.3794 95.6191 45.7266 95.6191H101.591C103.938 95.6191 105.841 93.7164 105.841 91.3691V16.2201C105.841 13.8729 103.938 11.9701 101.591 11.9701H45.7266C43.3794 11.9701 41.4766 13.8729 41.4766 16.2201Z" stroke="#002C27" stroke-width="1.5" stroke-dasharray="1.5 2"/>
<path d="M84.988 35.1139H82.074C81.9465 34.177 81.4855 33.3175 80.7756 32.693C80.0657 32.0685 79.1545 31.7209 78.209 31.7139H69.109C68.1641 31.7218 67.2537 32.0698 66.5444 32.6942C65.8352 33.3186 65.3746 34.1776 65.247 35.1139H62.31C61.4979 35.1139 60.6939 35.2738 59.9436 35.5846C59.1934 35.8954 58.5118 36.3509 57.9376 36.9252C57.3634 37.4994 56.908 38.1812 56.5974 38.9314C56.2867 39.6817 56.1269 40.4858 56.127 41.2979V69.6729C56.1241 70.4867 56.2819 71.2931 56.5913 72.0458C56.9007 72.7985 57.3557 73.4827 57.9302 74.0591C58.5046 74.6356 59.1872 75.093 59.9388 75.4051C60.6904 75.7172 61.4962 75.8779 62.31 75.8779H84.988C85.803 75.8785 86.6102 75.7185 87.3633 75.4069C88.1164 75.0953 88.8007 74.6382 89.3771 74.0619C89.9534 73.4856 90.4104 72.8013 90.722 72.0482C91.0336 71.2951 91.1936 70.4879 91.193 69.6729V41.2979C91.1931 40.484 91.0326 39.678 90.7205 38.9263C90.4085 38.1746 89.9511 37.4919 89.3746 36.9174C88.7981 36.3428 88.1139 35.8878 87.3611 35.5783C86.6084 35.2688 85.8019 35.111 84.988 35.1139ZM68.515 46.9729C68.5093 47.4103 68.333 47.8282 68.0237 48.1375C67.7143 48.4469 67.2964 48.6232 66.859 48.6289H64.651C64.2118 48.6289 63.7906 48.4544 63.48 48.1438C63.1695 47.8333 62.995 47.4121 62.995 46.9729C62.995 46.5337 63.1695 46.1125 63.48 45.8019C63.7906 45.4913 64.2118 45.3169 64.651 45.3169H66.859C67.2964 45.3226 67.7143 45.4989 68.0237 45.8082C68.333 46.1175 68.5093 46.5354 68.515 46.9729ZM62.906 65.1459C62.9117 64.7076 63.0887 64.2889 63.3991 63.9795C63.7095 63.67 64.1287 63.4943 64.567 63.4899H82.736C83.1752 63.4899 83.5964 63.6643 83.907 63.9749C84.2175 64.2855 84.392 64.7067 84.392 65.1459C84.392 65.5851 84.2175 66.0063 83.907 66.3168C83.5964 66.6274 83.1752 66.8019 82.736 66.8019H64.567C64.1296 66.7962 63.7117 66.6199 63.4023 66.3105C63.093 66.0012 62.9167 65.5833 62.911 65.1459H62.906ZM82.78 57.7039H64.567C64.1278 57.7039 63.7066 57.5294 63.396 57.2188C63.0855 56.9083 62.911 56.4871 62.911 56.0479C62.911 55.6087 63.0855 55.1875 63.396 54.8769C63.7066 54.5663 64.1278 54.3919 64.567 54.3919H82.736C83.1752 54.3919 83.5964 54.5663 83.907 54.8769C84.2175 55.1875 84.392 55.6087 84.392 56.0479C84.392 56.4871 84.2175 56.9083 83.907 57.2188C83.5964 57.5294 83.1752 57.7039 82.736 57.7039H82.78ZM68.559 35.6229C68.559 35.4637 68.6222 35.3111 68.7347 35.1986C68.8473 35.0861 68.9999 35.0229 69.159 35.0229H78.259C78.4167 35.0274 78.5667 35.0921 78.6782 35.2036C78.7898 35.3152 78.8545 35.4652 78.859 35.6229V37.8309C78.8591 37.9917 78.7964 38.1462 78.6844 38.2616C78.5724 38.377 78.4198 38.4442 78.259 38.4489H69.111C69.0307 38.4489 68.9511 38.4328 68.8771 38.4015C68.8032 38.3703 68.7362 38.3245 68.6802 38.2668C68.6243 38.2092 68.5805 38.1409 68.5514 38.066C68.5223 37.9911 68.5086 37.9112 68.511 37.8309L68.559 35.6229Z" fill="#3C3C3C"/>
</svg>
