<?xml version="1.0" encoding="UTF-8" standalone="no" ?>
<!DOCTYPE svg PUBLIC "-//W3C//DTD SVG 1.1//EN" "http://www.w3.org/Graphics/SVG/1.1/DTD/svg11.dtd">
<svg xmlns="http://www.w3.org/2000/svg" xmlns:xlink="http://www.w3.org/1999/xlink" version="1.1" width="131" height="123" viewBox="0 0 131 123" xml:space="preserve">
<desc>Created with Fabric.js 5.2.4</desc>
<defs>
</defs>
<rect x="0" y="0" width="100%" height="100%" fill="transparent"></rect>
<g transform="matrix(1 0 0 1 65.5 61.5)" id="fea3479f-f419-4127-9ff2-212b3d03a7b4"  >
<rect style="stroke: none; stroke-width: 1; stroke-dasharray: none; stroke-linecap: butt; stroke-dashoffset: 0; stroke-linejoin: miter; stroke-miterlimit: 4; fill: rgb(255,255,255); fill-rule: nonzero; opacity: 1; visibility: hidden;" vector-effect="non-scaling-stroke"  x="-65.5" y="-61.5" rx="0" ry="0" width="131" height="123" />
</g>
<g transform="matrix(Infinity NaN NaN Infinity 0 0)" id="0a3631ad-69ea-43ce-8abf-6cc68caf5800"  >
</g>
<g transform="matrix(0.94 0 0 0.94 65.5 61.5)"  >
<g style=""   >
		<g transform="matrix(1 0 0 1 62.94 -40.39)" clip-path="url(#CLIPPATH_17)"  >
<clipPath id="CLIPPATH_17" >
	<rect transform="matrix(1 0 0 1 -62.94 40.39)" id="clip0_2366_348" x="-65.5" y="-61.5" rx="0" ry="0" width="131" height="123" />
</clipPath>
<path style="stroke: none; stroke-width: 1; stroke-dasharray: none; stroke-linecap: butt; stroke-dashoffset: 0; stroke-linejoin: miter; stroke-miterlimit: 4; fill: rgb(3,61,49); fill-rule: nonzero; opacity: 0.4;" vector-effect="non-scaling-stroke"  transform=" translate(-128.44, -21.61)" d="M 126.996 33.0834 C 126.848 33.0465 126.72 32.9546 126.637 32.8263 C 126.555 32.6981 126.524 32.5431 126.552 32.3931 C 126.579 32.2431 126.663 32.1093 126.786 32.019 C 126.909 31.9286 127.062 31.8886 127.213 31.907 C 127.365 31.9254 127.503 32.0008 127.601 32.1179 C 127.699 32.2351 127.748 32.385 127.739 32.5373 C 127.73 32.6896 127.663 32.8327 127.553 32.9375 C 127.442 33.0423 127.295 33.1008 127.143 33.1012 C 127.093 33.1013 127.044 33.0954 126.996 33.0834 Z M 128.844 30.8933 C 128.844 30.7193 128.896 30.5493 128.992 30.4046 C 129.089 30.26 129.226 30.1472 129.387 30.0806 C 129.548 30.0141 129.725 29.9966 129.895 30.0306 C 130.066 30.0645 130.223 30.1483 130.346 30.2713 C 130.469 30.3943 130.553 30.5511 130.587 30.7217 C 130.62 30.8923 130.603 31.0692 130.536 31.2299 C 130.47 31.3906 130.357 31.528 130.213 31.6247 C 130.068 31.7213 129.898 31.7729 129.724 31.7729 C 129.608 31.7729 129.494 31.7502 129.387 31.7059 C 129.28 31.6617 129.184 31.5969 129.102 31.5153 C 128.937 31.3503 128.844 31.1266 128.844 30.8933 Z M 126.282 11.2291 C 126.282 11.0086 126.348 10.7931 126.47 10.6099 C 126.593 10.4266 126.767 10.2839 126.971 10.1997 C 127.175 10.1155 127.399 10.0936 127.615 10.1369 C 127.831 10.1801 128.03 10.2865 128.186 10.4425 C 128.342 10.5986 128.448 10.7974 128.49 11.0137 C 128.533 11.23 128.511 11.4542 128.426 11.6578 C 128.342 11.8615 128.199 12.0355 128.015 12.1578 C 127.832 12.2801 127.616 12.3453 127.396 12.3451 C 127.249 12.3451 127.104 12.3162 126.969 12.2601 C 126.834 12.204 126.711 12.1218 126.607 12.0181 C 126.504 11.9145 126.422 11.7914 126.366 11.656 C 126.31 11.5207 126.281 11.3756 126.282 11.2291 Z" stroke-linecap="round" />
</g>
		<g transform="matrix(1 0 0 1 54.84 -40.49)" clip-path="url(#CLIPPATH_18)"  >
<clipPath id="CLIPPATH_18" >
	<rect transform="matrix(1 0 0 1 -54.84 40.49)" id="clip0_2366_348" x="-65.5" y="-61.5" rx="0" ry="0" width="131" height="123" />
</clipPath>
<path style="stroke: none; stroke-width: 1; stroke-dasharray: none; stroke-linecap: butt; stroke-dashoffset: 0; stroke-linejoin: miter; stroke-miterlimit: 4; fill: rgb(3,61,49); fill-rule: nonzero; opacity: 0.4;" vector-effect="non-scaling-stroke"  transform=" translate(-120.34, -21.51)" d="M 120.34 31.7727 C 126.007 31.7727 130.601 27.179 130.601 21.5123 C 130.601 15.8457 126.007 11.252 120.34 11.252 C 114.674 11.252 110.08 15.8457 110.08 21.5123 C 110.08 27.179 114.674 31.7727 120.34 31.7727 Z" stroke-linecap="round" />
</g>
		<g transform="matrix(1 0 0 1 -37.77 27.54)" clip-path="url(#CLIPPATH_19)"  >
<clipPath id="CLIPPATH_19" >
	<rect transform="matrix(1 0 0 1 37.77 -27.54)" id="clip0_2366_348" x="-65.5" y="-61.5" rx="0" ry="0" width="131" height="123" />
</clipPath>
<path style="stroke: none; stroke-width: 1; stroke-dasharray: none; stroke-linecap: butt; stroke-dashoffset: 0; stroke-linejoin: miter; stroke-miterlimit: 4; fill: rgb(3,61,49); fill-rule: nonzero; opacity: 0.4;" vector-effect="non-scaling-stroke"  transform=" translate(-27.73, -89.54)" d="M 27.7292 117.273 C 43.0436 117.273 55.4584 104.858 55.4584 89.5436 C 55.4584 74.2292 43.0436 61.8145 27.7292 61.8145 C 12.4148 61.8145 0 74.2292 0 89.5436 C 0 104.858 12.4148 117.273 27.7292 117.273 Z" stroke-linecap="round" />
</g>
		<g transform="matrix(1 0 0 1 -46.39 29.49)" clip-path="url(#CLIPPATH_20)"  >
<clipPath id="CLIPPATH_20" >
	<rect transform="matrix(1 0 0 1 46.39 -29.49)" id="clip0_2366_348" x="-65.5" y="-61.5" rx="0" ry="0" width="131" height="123" />
</clipPath>
<path style="stroke: none; stroke-width: 1; stroke-dasharray: none; stroke-linecap: butt; stroke-dashoffset: 0; stroke-linejoin: miter; stroke-miterlimit: 4; fill: rgb(3,61,49); fill-rule: nonzero; opacity: 0.4;" vector-effect="non-scaling-stroke"  transform=" translate(-19.11, -91.49)" d="M 20.0648 121.125 C 20.0648 120.655 20.2041 120.196 20.4651 119.805 C 20.7261 119.415 21.0971 119.11 21.5311 118.931 C 21.9651 118.751 22.4427 118.704 22.9034 118.795 C 23.3642 118.887 23.7874 119.113 24.1196 119.445 C 24.4518 119.778 24.678 120.201 24.7697 120.662 C 24.8613 121.122 24.8143 121.6 24.6345 122.034 C 24.4547 122.468 24.1503 122.839 23.7597 123.1 C 23.3691 123.361 22.9098 123.5 22.44 123.5 C 21.8101 123.5 21.2059 123.25 20.7605 122.805 C 20.315 122.359 20.0648 121.755 20.0648 121.125 Z M 28.3725 121.239 C 28.3725 120.918 28.4676 120.604 28.6459 120.338 C 28.8242 120.071 29.0776 119.863 29.3741 119.74 C 29.6706 119.617 29.9968 119.585 30.3115 119.648 C 30.6262 119.711 30.9153 119.865 31.1421 120.092 C 31.3689 120.319 31.5233 120.608 31.5858 120.923 C 31.6483 121.238 31.616 121.564 31.4931 121.861 C 31.3701 122.157 31.1621 122.41 30.8951 122.588 C 30.6282 122.766 30.3145 122.861 29.9936 122.861 C 29.5636 122.861 29.1512 122.69 28.8472 122.386 C 28.5432 122.082 28.3725 121.669 28.3725 121.239 Z M 6.59766 62.484 C 6.59766 61.888 6.77439 61.3054 7.10549 60.8099 C 7.43659 60.3144 7.9072 59.9281 8.4578 59.7001 C 9.00841 59.472 9.61427 59.4123 10.1988 59.5286 C 10.7833 59.6449 11.3202 59.9319 11.7416 60.3533 C 12.163 60.7747 12.45 61.3116 12.5663 61.8961 C 12.6825 62.4806 12.6229 63.0865 12.3948 63.6371 C 12.1667 64.1877 11.7805 64.6583 11.285 64.9894 C 10.7895 65.3205 10.2069 65.4972 9.61093 65.4972 C 8.81176 65.4972 8.04533 65.1798 7.48023 64.6147 C 6.91513 64.0496 6.59766 63.2831 6.59766 62.484 Z" stroke-linecap="round" />
</g>
		<g transform="matrix(1 0 0 1 13.48 -2.71)" clip-path="url(#CLIPPATH_21)"  >
<clipPath id="CLIPPATH_21" >
	<rect transform="matrix(1 0 0 1 -13.48 2.71)" id="clip0_2366_348" x="-65.5" y="-61.5" rx="0" ry="0" width="131" height="123" />
</clipPath>
<path style="stroke: none; stroke-width: 1; stroke-dasharray: none; stroke-linecap: butt; stroke-dashoffset: 0; stroke-linejoin: miter; stroke-miterlimit: 4; fill: rgb(247,242,236); fill-rule: nonzero; opacity: 1;" vector-effect="non-scaling-stroke"  transform=" translate(-78.98, -59.29)" d="M 41.8945 5.72955 L 41.8945 112.844 C 41.8945 115.732 44.2359 118.073 47.1241 118.073 L 110.845 118.073 C 113.733 118.073 116.075 115.732 116.075 112.844 L 116.075 5.72955 C 116.075 2.84135 113.733 0.5 110.845 0.5 L 47.1241 0.5 C 44.2359 0.5 41.8945 2.84135 41.8945 5.72955 Z" stroke-linecap="round" />
</g>
		<g transform="matrix(1 0 0 1 13.48 -2.71)" clip-path="url(#CLIPPATH_22)"  >
<clipPath id="CLIPPATH_22" >
	<rect transform="matrix(1 0 0 1 -13.48 2.71)" id="clip0_2366_348" x="-65.5" y="-61.5" rx="0" ry="0" width="131" height="123" />
</clipPath>
<path style="stroke: rgb(0,44,39); stroke-width: 1.5; stroke-dasharray: none; stroke-linecap: butt; stroke-dashoffset: 0; stroke-linejoin: miter; stroke-miterlimit: 4; fill: none; fill-rule: nonzero; opacity: 1;" vector-effect="non-scaling-stroke"  transform=" translate(-78.98, -59.29)" d="M 42.6797 5.72832 L 42.6797 112.842 C 42.6797 115.297 44.6698 117.287 47.1248 117.287 L 110.845 117.287 C 113.3 117.287 115.29 115.297 115.29 112.842 L 115.29 5.72832 C 115.29 3.27335 113.3 1.2832 110.845 1.2832 L 47.1248 1.2832 C 44.6698 1.2832 42.6797 3.27335 42.6797 5.72832 Z" stroke-linecap="round" />
</g>
		<g transform="matrix(1 0 0 1 13.74 -2.53)" clip-path="url(#CLIPPATH_23)"  >
<clipPath id="CLIPPATH_23" >
	<rect transform="matrix(1 0 0 1 -13.74 2.53)" id="clip0_2366_348" x="-65.5" y="-61.5" rx="0" ry="0" width="131" height="123" />
</clipPath>
<path style="stroke: rgb(0,44,39); stroke-width: 1.5; stroke-dasharray: 1.5 2; stroke-linecap: butt; stroke-dashoffset: 0; stroke-linejoin: miter; stroke-miterlimit: 4; fill: none; fill-rule: nonzero; opacity: 1;" vector-effect="non-scaling-stroke"  transform=" translate(-79.24, -59.47)" d="M 49.1924 12.2401 L 49.1924 106.701 C 49.1924 109.156 51.1825 111.146 53.6375 111.146 L 104.852 111.146 C 107.307 111.146 109.297 109.156 109.297 106.701 L 109.297 12.2401 C 109.297 9.78507 107.307 7.79492 104.852 7.79492 L 53.6375 7.79492 C 51.1825 7.79492 49.1924 9.78507 49.1924 12.2401 Z" stroke-linecap="round" />
</g>
		<g transform="matrix(1 0 0 1 14 -20.03)" clip-path="url(#CLIPPATH_24)"  >
<clipPath id="CLIPPATH_24" >
	<rect transform="matrix(1 0 0 1 0 17.03)" id="clip1_2366_348" clip-path="url(#undefined)" x="-13.5" y="-33" rx="0" ry="0" width="27" height="66" />
</clipPath>
<path style="stroke: none; stroke-width: 1; stroke-dasharray: none; stroke-linecap: butt; stroke-dashoffset: 0; stroke-linejoin: miter; stroke-miterlimit: 4; fill: rgb(60,60,60); fill-rule: nonzero; opacity: 1;" vector-effect="non-scaling-stroke"  transform=" translate(-79.5, -41.97)" d="M 79.5611 26.0233 C 81.6021 26.0233 83.6432 26.0233 85.681 26.0233 C 90.0417 26.0563 93.0222 29.1309 92.9995 33.619 C 92.9736 38.9657 91.9564 44.1572 90.5179 49.2727 C 90.0482 50.9537 89.546 52.628 88.9466 54.266 C 88.0622 56.7099 86.3322 57.9186 83.789 57.9384 C 80.9412 57.9615 78.0967 57.9384 75.2522 57.9384 C 72.7803 57.9384 70.9855 56.8057 70.1432 54.4411 C 67.7684 47.78 66.1292 40.9472 66.0028 33.8171 C 65.9154 29.0747 68.9186 26.0233 73.6033 25.9902 C 75.5892 25.9902 77.5751 25.9902 79.5611 25.9902 L 79.5611 26.0233 Z M 79.4542 29.8343 C 78.2231 29.8343 76.992 29.8343 75.7609 29.8343 C 74.87 29.8343 73.9823 29.8872 73.8171 31.0562 C 73.6745 32.047 74.7048 33.8666 75.5406 33.8898 C 78.1616 33.9624 80.7922 34.0483 83.4035 33.8699 C 84.8516 33.7742 85.0881 32.2715 85.1626 31.119 C 85.2371 29.9664 84.2231 29.8409 83.316 29.8376 C 82.0233 29.831 80.7404 29.8343 79.4542 29.8343 Z M 75.3527 48.632 L 83.6529 48.632 C 83.5039 47.529 83.329 46.5713 83.2609 45.6103 C 83.1897 44.494 82.6648 44.101 81.5957 44.1472 C 80.1507 44.2133 78.6799 44.0845 77.2544 44.21 C 76.7555 44.2529 76.0071 44.7087 75.8776 45.1347 C 75.5568 46.2014 75.5212 47.3606 75.3527 48.632 Z M 75.6572 49.8209 C 76.4477 53.4338 76.8041 53.7244 80.3225 53.6815 C 82.0492 53.6617 82.7814 52.7271 83.3225 49.8209 L 75.6572 49.8209 Z" stroke-linecap="round" />
</g>
		<g transform="matrix(1 0 0 1 15.23 -29.4)" clip-path="url(#CLIPPATH_25)"  >
<clipPath id="CLIPPATH_25" >
	<rect transform="matrix(1 0 0 1 -1.23 26.4)" id="clip1_2366_348" clip-path="url(#undefined)" x="-13.5" y="-33" rx="0" ry="0" width="27" height="66" />
</clipPath>
<path style="stroke: none; stroke-width: 1; stroke-dasharray: none; stroke-linecap: butt; stroke-dashoffset: 0; stroke-linejoin: miter; stroke-miterlimit: 4; fill: rgb(60,60,60); fill-rule: nonzero; opacity: 1;" vector-effect="non-scaling-stroke"  transform=" translate(-80.73, -32.6)" d="M 80.6976 28.647 C 82.3777 28.647 84.0283 28.647 85.6915 28.647 C 86.8675 28.647 88.1821 28.8933 88.0855 31.0975 C 87.9889 33.3018 87.6654 36.1503 85.809 36.3587 C 82.4238 36.6998 79.0093 36.5355 75.6115 36.3966 C 74.5321 36.3524 73.1923 32.8597 73.3813 30.9775 C 73.6039 28.7417 74.7547 28.6533 75.9013 28.6406 C 77.5015 28.6406 79.0974 28.647 80.6976 28.647 Z" stroke-linecap="round" />
</g>
		<g transform="matrix(1 0 0 1 14 -15.61)" clip-path="url(#CLIPPATH_26)"  >
<clipPath id="CLIPPATH_26" >
	<rect transform="matrix(1 0 0 1 0 12.61)" id="clip1_2366_348" clip-path="url(#undefined)" x="-13.5" y="-33" rx="0" ry="0" width="27" height="66" />
</clipPath>
<path style="stroke: none; stroke-width: 1; stroke-dasharray: none; stroke-linecap: butt; stroke-dashoffset: 0; stroke-linejoin: miter; stroke-miterlimit: 4; fill: rgb(60,60,60); fill-rule: nonzero; opacity: 1;" vector-effect="non-scaling-stroke"  transform=" translate(-79.5, -46.39)" d="M 75.3496 48.631 C 75.5181 47.3595 75.5537 46.2003 75.8777 45.1336 C 76.0041 44.7076 76.7524 44.2519 77.2514 44.2089 C 78.6898 44.0834 80.1477 44.2089 81.5926 44.1462 C 82.6617 44.1 83.1866 44.493 83.2579 45.6092 C 83.3194 46.5702 83.5008 47.5279 83.6499 48.631 L 75.3496 48.631 Z" stroke-linecap="round" />
</g>
		<g transform="matrix(1 0 0 1 14 -9.6)" clip-path="url(#CLIPPATH_27)"  >
<clipPath id="CLIPPATH_27" >
	<rect transform="matrix(1 0 0 1 0 6.6)" id="clip1_2366_348" clip-path="url(#undefined)" x="-13.5" y="-33" rx="0" ry="0" width="27" height="66" />
</clipPath>
<path style="stroke: none; stroke-width: 1; stroke-dasharray: none; stroke-linecap: butt; stroke-dashoffset: 0; stroke-linejoin: miter; stroke-miterlimit: 4; fill: rgb(60,60,60); fill-rule: nonzero; opacity: 1;" vector-effect="non-scaling-stroke"  transform=" translate(-79.5, -52.4)" d="M 73.3633 49.7598 L 85.636 49.7598 C 84.7698 53.7308 83.5975 55.0078 80.8328 55.0349 C 75.1996 55.0935 74.6289 54.6964 73.3633 49.7598 Z" stroke-linecap="round" />
</g>
		<g transform="matrix(1 0 0 1 14 10.82)" clip-path="url(#CLIPPATH_28)"  >
<clipPath id="CLIPPATH_28" >
	<rect transform="matrix(1 0 0 1 0 -13.82)" id="clip1_2366_348" clip-path="url(#undefined)" x="-13.5" y="-33" rx="0" ry="0" width="27" height="66" />
</clipPath>
<path style="stroke: rgb(60,60,60); stroke-width: 3.75; stroke-dasharray: none; stroke-linecap: butt; stroke-dashoffset: 0; stroke-linejoin: miter; stroke-miterlimit: 10; fill: none; fill-rule: nonzero; opacity: 1;" vector-effect="non-scaling-stroke"  transform=" translate(-79.5, -72.82)" d="M 75.6113 56.9669 L 75.6113 82.472 L 79.58 88.6773 L 83.364 82.4026 L 83.3867 56.957 L 75.6113 56.9669 Z" stroke-linecap="round" />
</g>
		<g transform="matrix(1 0 0 1 14 -21.48)" clip-path="url(#CLIPPATH_29)"  >
<clipPath id="CLIPPATH_29" >
	<rect transform="matrix(1 0 0 1 0 18.48)" id="clip1_2366_348" clip-path="url(#undefined)" x="-13.5" y="-33" rx="0" ry="0" width="27" height="66" />
</clipPath>
<path style="stroke: none; stroke-width: 1; stroke-dasharray: none; stroke-linecap: butt; stroke-dashoffset: 0; stroke-linejoin: miter; stroke-miterlimit: 4; fill: rgb(247,242,236); fill-rule: nonzero; opacity: 1;" vector-effect="non-scaling-stroke"  transform=" translate(-79.5, -40.52)" d="M 83.182 36.5605 L 75.8184 36.5605 L 75.8184 44.4805 L 83.182 44.4805 L 83.182 36.5605 Z" stroke-linecap="round" />
</g>
		<g transform="matrix(1 0 0 1 14 -13.56)" clip-path="url(#CLIPPATH_30)"  >
<clipPath id="CLIPPATH_30" >
	<rect transform="matrix(1 0 0 1 0 10.56)" id="clip1_2366_348" clip-path="url(#undefined)" x="-13.5" y="-33" rx="0" ry="0" width="27" height="66" />
</clipPath>
<path style="stroke: none; stroke-width: 1; stroke-dasharray: none; stroke-linecap: butt; stroke-dashoffset: 0; stroke-linejoin: miter; stroke-miterlimit: 4; fill: rgb(247,242,236); fill-rule: nonzero; opacity: 1;" vector-effect="non-scaling-stroke"  transform=" translate(-79.5, -48.44)" d="M 83.182 47.1191 L 75.8184 47.1191 L 75.8184 49.7591 L 83.182 49.7591 L 83.182 47.1191 Z" stroke-linecap="round" />
</g>
</g>
</g>
</svg>