<svg xmlns="http://www.w3.org/2000/svg" xmlns:xlink="http://www.w3.org/1999/xlink" width="236.961" height="183.554" viewBox="0 0 236.961 183.554">
  <defs>
    <clipPath id="clip-path">
      <rect id="Rectangle_8356" data-name="Rectangle 8356" width="48.783" height="46.629" fill="#fff"/>
    </clipPath>
  </defs>
  <g id="illustration" transform="translate(-69.552 -318.871)">
    <g id="Group_44270" data-name="Group 44270" transform="translate(163.108 318.872)">
      <g id="Group_44269" data-name="Group 44269" transform="translate(0 0)" clip-path="url(#clip-path)">
        <path id="Path_117618" data-name="Path 117618" d="M0,40.154c4.81.6,9.112,2.184,13.921.013a7.3,7.3,0,0,0-1.068-1.509C2.76,30.691,2.68,14.712,15.025,5.976c8.663-6.13,18.111-8.067,28.121-3.33a23.147,23.147,0,0,1,5.637,4.408c-4.536-.842-8.9-2.747-13.736-.467a5.214,5.214,0,0,0,.884,1.482c9.847,7.678,10.153,22.666-.839,31.856-8.03,6.714-20.514,8.766-28.96,4.408A58.611,58.611,0,0,1,0,40.154M24.29,15.485a7.934,7.934,0,0,0,.291,15.864,8.084,8.084,0,0,0,7.747-7.92,7.974,7.974,0,0,0-8.039-7.943" transform="translate(0 0)" fill="#fff"/>
      </g>
    </g>
    <g id="Group_41686" data-name="Group 41686" transform="translate(69.552 394.726)">
      <g id="Group_41685" data-name="Group 41685" transform="translate(0 0)">
        <g id="Group_41684" data-name="Group 41684" transform="translate(0 0)">
          <g id="Group_41682" data-name="Group 41682">
            <g id="Group_41669" data-name="Group 41669">
              <g id="Group_41667" data-name="Group 41667" transform="translate(4.6 4.285)">
                <g id="Group_40374" data-name="Group 40374">
                  <g id="Group_40373" data-name="Group 40373">
                    <circle id="Ellipse_2028" data-name="Ellipse 2028" cx="11.975" cy="11.975" r="11.975" fill="#508b82"/>
                  </g>
                </g>
              </g>
              <g id="Group_41666" data-name="Group 41666" opacity="0.696">
                <path id="Path_28153" data-name="Path 28153" d="M21.912,187.976c-.582,0-1.165-.053-1.747-.106l.159-1.694c.529.053,1.059.106,1.588.106h.159v1.694Zm1.959-.106-.212-1.694c.529-.053,1.059-.159,1.588-.265l.371,1.641Zm-5.506-.265a8.9,8.9,0,0,1-1.694-.476l.529-1.588c.529.159,1.006.318,1.535.424Zm8.947-.529-.582-1.588c.476-.159,1.006-.371,1.482-.582l.741,1.535C28.423,186.652,27.841,186.864,27.311,187.076Zm-12.282-.635c-.529-.265-1.059-.529-1.588-.847l.847-1.429c.476.265.953.529,1.429.741Zm15.459-.9-.9-1.429a11.628,11.628,0,0,0,1.324-.9l1.059,1.324C31.494,184.852,31.017,185.223,30.488,185.541Zm-18.529-.9c-.476-.371-.9-.741-1.376-1.165l1.165-1.218a11.168,11.168,0,0,0,1.218,1.006Zm21.335-1.271-1.165-1.218a11.056,11.056,0,0,0,1.059-1.165l1.271,1.059A9.07,9.07,0,0,1,33.294,183.37ZM9.418,182.205a10.006,10.006,0,0,1-1.059-1.429l1.376-.953.953,1.271Zm26.153-1.588-1.376-.953a7.144,7.144,0,0,0,.794-1.376l1.482.794A14.585,14.585,0,0,1,35.57,180.617ZM7.406,179.294c-.265-.529-.529-1.059-.741-1.588l1.588-.635c.212.476.424.953.688,1.429Zm29.805-1.8-1.588-.635a7.394,7.394,0,0,0,.476-1.535l1.641.424A16.833,16.833,0,0,1,37.211,177.494ZM6.082,176.011c-.159-.582-.265-1.165-.371-1.747L7.353,174a13.022,13.022,0,0,0,.371,1.535Zm32.029-1.959-1.641-.265c.106-.529.106-1.059.159-1.588l1.694.053C38.27,172.888,38.217,173.47,38.111,174.053ZM5.5,172.517v-1.8l1.694.106v1.588Zm31.076-1.906c-.053-.529-.106-1.059-.212-1.588l1.641-.265c.106.582.159,1.165.212,1.747ZM7.353,169.235l-1.641-.265c.106-.582.212-1.165.371-1.747l1.641.424A8.617,8.617,0,0,0,7.353,169.235Zm28.694-1.747a12.216,12.216,0,0,0-.529-1.482l1.535-.635a15.912,15.912,0,0,1,.582,1.694ZM8.2,166.165l-1.588-.635a14.563,14.563,0,0,1,.741-1.588l1.482.794A11.681,11.681,0,0,0,8.2,166.165Zm26.629-1.588c-.265-.476-.529-.9-.847-1.376l1.376-.953c.318.476.635,1.006.953,1.535ZM9.682,163.359l-1.376-.953c.318-.476.688-.953,1.059-1.429l1.271,1.112A5.7,5.7,0,0,0,9.682,163.359Zm23.347-1.429c-.371-.424-.741-.794-1.112-1.165l1.165-1.218c.424.424.847.847,1.218,1.271Zm-21.335-1.006-1.165-1.218c.424-.424.9-.794,1.324-1.165l1.006,1.324C12.488,160.182,12.118,160.553,11.694,160.923ZM30.7,159.759a11.623,11.623,0,0,0-1.324-.9l.847-1.429a14.559,14.559,0,0,1,1.482,1.006Zm-16.464-.794-.9-1.429a14.256,14.256,0,0,1,1.535-.847l.741,1.535A11.369,11.369,0,0,0,14.235,158.965ZM28,158.118a12.331,12.331,0,0,0-1.482-.582l.529-1.588c.582.212,1.112.424,1.641.635Zm-10.906-.476-.529-1.588a10.141,10.141,0,0,1,1.694-.476l.371,1.641A8.3,8.3,0,0,0,17.094,157.641Zm7.888-.476c-.529-.106-1.059-.212-1.588-.265l.159-1.694c.582.053,1.165.159,1.747.265Zm-4.765-.265-.212-1.694c.582-.053,1.165-.106,1.747-.106v1.694C21.276,156.847,20.747,156.847,20.217,156.9Z" transform="translate(-5.5 -155.1)" fill="#fff"/>
              </g>
            </g>
          </g>
        </g>
      </g>
    </g>
    <g id="Group_41690" data-name="Group 41690" transform="translate(170.7 458.16)">
      <g id="Group_41684-2" data-name="Group 41684" transform="translate(0 0)">
        <g id="Group_41682-2" data-name="Group 41682" transform="translate(0 0)">
          <g id="Group_41669-2" data-name="Group 41669" transform="translate(0 0)">
            <g id="Group_41667-2" data-name="Group 41667" transform="translate(6.193 5.77)">
              <g id="Group_40374-2" data-name="Group 40374">
                <g id="Group_40373-2" data-name="Group 40373">
                  <circle id="Ellipse_2028-2" data-name="Ellipse 2028" cx="16.124" cy="16.124" r="16.124" fill="#508b82"/>
                </g>
              </g>
            </g>
            <g id="Group_41666-2" data-name="Group 41666" opacity="0.696">
              <path id="Path_28153-2" data-name="Path 28153" d="M27.6,199.365c-.784,0-1.568-.071-2.352-.143l.214-2.281c.713.071,1.426.143,2.138.143h.214v2.281Zm2.637-.143-.285-2.281c.713-.071,1.426-.214,2.138-.356l.5,2.21Zm-7.413-.356a11.981,11.981,0,0,1-2.281-.642l.713-2.138c.713.214,1.354.428,2.067.57Zm12.046-.713-.784-2.138c.642-.214,1.354-.5,2-.784l1,2.067C36.365,197.583,35.581,197.869,34.868,198.154ZM18.331,197.3c-.713-.356-1.426-.713-2.138-1.14l1.14-1.925c.642.356,1.283.713,1.925,1Zm20.814-1.212-1.212-1.925a15.652,15.652,0,0,0,1.782-1.212l1.426,1.782C40.5,195.16,39.857,195.659,39.145,196.087ZM14.2,194.875c-.642-.5-1.212-1-1.853-1.568l1.568-1.639a15.034,15.034,0,0,0,1.639,1.354Zm28.726-1.711-1.568-1.639a14.888,14.888,0,0,0,1.426-1.568l1.711,1.426A12.214,12.214,0,0,1,42.922,193.164ZM10.775,191.6a13.475,13.475,0,0,1-1.426-1.925l1.853-1.283,1.283,1.711Zm35.213-2.138-1.853-1.283a9.62,9.62,0,0,0,1.069-1.853l2,1.069A19.642,19.642,0,0,1,45.988,189.457ZM8.066,187.675c-.356-.713-.713-1.426-1-2.138l2.138-.855c.285.642.57,1.283.927,1.925ZM48.2,185.252l-2.138-.855a9.956,9.956,0,0,0,.642-2.067l2.21.57A22.662,22.662,0,0,1,48.2,185.252Zm-41.913-2c-.214-.784-.356-1.568-.5-2.352l2.21-.356a17.535,17.535,0,0,0,.5,2.067Zm43.125-2.637-2.21-.356c.143-.713.143-1.426.214-2.138l2.281.071C49.623,179.05,49.552,179.835,49.409,180.619ZM5.5,178.551v-2.424l2.281.143v2.138Zm41.842-2.566c-.071-.713-.143-1.426-.285-2.138l2.21-.356c.143.784.214,1.568.285,2.352ZM7.995,174.132l-2.21-.356c.143-.784.285-1.568.5-2.352l2.21.57A11.6,11.6,0,0,0,7.995,174.132Zm38.634-2.352a16.45,16.45,0,0,0-.713-2l2.067-.855a21.425,21.425,0,0,1,.784,2.281ZM9.135,170,7,169.142a19.607,19.607,0,0,1,1-2.138l2,1.069A15.728,15.728,0,0,0,9.135,170Zm35.854-2.138c-.356-.641-.713-1.212-1.14-1.853l1.853-1.283c.428.642.855,1.354,1.283,2.067ZM11.131,166.22l-1.853-1.283c.428-.642.927-1.283,1.426-1.925l1.711,1.5A7.674,7.674,0,0,0,11.131,166.22ZM42.566,164.3c-.5-.57-1-1.069-1.5-1.568l1.568-1.639c.57.57,1.14,1.141,1.639,1.711ZM13.84,162.941,12.272,161.3c.57-.57,1.212-1.069,1.782-1.568l1.354,1.782C14.909,161.943,14.41,162.442,13.84,162.941Zm25.59-1.568a15.647,15.647,0,0,0-1.782-1.212l1.14-1.925a19.606,19.606,0,0,1,2,1.354ZM17.261,160.3l-1.212-1.925a19.2,19.2,0,0,1,2.067-1.14l1,2.067A15.311,15.311,0,0,0,17.261,160.3Zm18.533-1.14a16.6,16.6,0,0,0-2-.784l.713-2.138c.784.285,1.5.57,2.21.855Zm-14.684-.642-.713-2.138a13.656,13.656,0,0,1,2.281-.642l.5,2.21A11.179,11.179,0,0,0,21.111,158.521Zm10.621-.642c-.713-.143-1.426-.285-2.138-.356l.214-2.281c.784.071,1.568.214,2.352.356Zm-6.415-.356-.285-2.281c.784-.071,1.568-.143,2.352-.143v2.281C26.742,157.452,26.029,157.452,25.316,157.524Z" transform="translate(-5.5 -155.1)" fill="#fff"/>
            </g>
          </g>
        </g>
      </g>
    </g>
    <g id="Group_41692" data-name="Group 41692" transform="translate(268.851 390.842)">
      <g id="Group_41688" data-name="Group 41688" transform="translate(0 0)">
        <g id="Group_41682-3" data-name="Group 41682" transform="translate(0 0)">
          <g id="Group_41669-3" data-name="Group 41669" transform="translate(0 0)">
            <g id="Group_41667-3" data-name="Group 41667" transform="translate(5.278 4.917)">
              <g id="Group_40374-3" data-name="Group 40374">
                <g id="Group_40373-3" data-name="Group 40373">
                  <circle id="Ellipse_2028-3" data-name="Ellipse 2028" cx="13.741" cy="13.741" r="13.741" fill="#508b82"/>
                </g>
              </g>
            </g>
            <g id="Group_41666-3" data-name="Group 41666" opacity="0.696">
              <path id="Path_28153-3" data-name="Path 28153" d="M24.331,192.823c-.668,0-1.336-.061-2-.121l.182-1.944c.607.061,1.215.121,1.822.121h.182v1.944Zm2.248-.121-.243-1.944c.607-.061,1.215-.182,1.822-.3l.425,1.883Zm-6.318-.3a10.209,10.209,0,0,1-1.944-.547l.607-1.822c.607.182,1.154.364,1.762.486Zm10.266-.607-.668-1.822c.547-.182,1.154-.425,1.7-.668l.85,1.762C31.8,191.3,31.134,191.547,30.527,191.79Zm-14.093-.729c-.607-.3-1.215-.607-1.822-.972l.972-1.64c.547.3,1.093.607,1.64.85Zm17.738-1.033-1.033-1.64a13.339,13.339,0,0,0,1.519-1.033l1.215,1.519C35.326,189.239,34.779,189.664,34.172,190.029ZM12.911,189c-.547-.425-1.033-.85-1.579-1.336l1.336-1.4a12.815,12.815,0,0,0,1.4,1.154Zm24.48-1.458-1.336-1.4A12.687,12.687,0,0,0,37.27,184.8l1.458,1.215A10.408,10.408,0,0,1,37.391,187.538ZM10,186.2a11.482,11.482,0,0,1-1.215-1.64l1.579-1.093,1.093,1.458ZM40,184.379l-1.579-1.093a8.2,8.2,0,0,0,.911-1.579l1.7.911A16.736,16.736,0,0,1,40,184.379ZM7.687,182.861c-.3-.607-.607-1.215-.85-1.822l1.822-.729c.243.547.486,1.093.79,1.64Zm34.2-2.065-1.822-.729a8.485,8.485,0,0,0,.547-1.762l1.883.486A19.315,19.315,0,0,1,41.886,180.8Zm-35.718-1.7c-.182-.668-.3-1.336-.425-2l1.883-.3a14.942,14.942,0,0,0,.425,1.762Zm36.751-2.248-1.883-.3c.121-.607.121-1.215.182-1.822l1.944.061C43.1,175.51,43.041,176.179,42.919,176.847ZM5.5,175.085V173.02l1.944.121v1.822ZM41.157,172.9c-.061-.607-.121-1.215-.243-1.822l1.883-.3c.121.668.182,1.336.243,2ZM7.626,171.319l-1.883-.3c.121-.668.243-1.336.425-2l1.883.486A9.887,9.887,0,0,0,7.626,171.319Zm32.924-2a14.016,14.016,0,0,0-.607-1.7l1.762-.729a18.261,18.261,0,0,1,.668,1.944ZM8.6,167.8l-1.822-.729a16.712,16.712,0,0,1,.85-1.822l1.7.911A13.405,13.405,0,0,0,8.6,167.8Zm30.555-1.822c-.3-.547-.607-1.033-.972-1.579L39.76,163.3c.364.547.729,1.154,1.093,1.762Zm-28.854-1.4-1.579-1.093c.364-.547.79-1.093,1.215-1.64l1.458,1.276A6.54,6.54,0,0,0,10.3,164.576Zm26.789-1.64c-.425-.486-.85-.911-1.276-1.336l1.336-1.4c.486.486.972.972,1.4,1.458Zm-24.48-1.154-1.336-1.4c.486-.486,1.033-.911,1.519-1.336l1.154,1.519C13.518,160.932,13.093,161.357,12.607,161.782Zm21.808-1.336a13.335,13.335,0,0,0-1.519-1.033l.972-1.64a16.714,16.714,0,0,1,1.7,1.154Zm-18.892-.911-1.033-1.64a16.36,16.36,0,0,1,1.762-.972l.85,1.762A13.047,13.047,0,0,0,15.523,159.534Zm15.794-.972a14.142,14.142,0,0,0-1.7-.668l.607-1.822c.668.243,1.276.486,1.883.729ZM18.8,158.016l-.607-1.822a11.639,11.639,0,0,1,1.944-.547l.425,1.883A9.526,9.526,0,0,0,18.8,158.016Zm9.051-.547c-.607-.122-1.215-.243-1.822-.3l.182-1.944c.668.061,1.336.182,2,.3Zm-5.467-.3-.243-1.944c.668-.061,1.336-.121,2-.121v1.944C23.6,157.1,22.995,157.1,22.387,157.165Z" transform="translate(-5.5 -155.1)" fill="#fff"/>
            </g>
          </g>
        </g>
      </g>
    </g>
    <line id="Line_831" data-name="Line 831" x2="40.46" y2="40.371" transform="translate(221.5 365.5)" fill="none" stroke="#b2d0cb" stroke-width="2" stroke-dasharray="2"/>
    <path id="Path_118488" data-name="Path 118488" d="M.766.556,7.2,66.5" transform="translate(183.298 384)" fill="none" stroke="#b2d0cb" stroke-width="2" stroke-dasharray="2"/>
    <line id="Line_834" data-name="Line 834" y1="32.447" x2="42.506" transform="translate(107.994 371.5)" fill="none" stroke="#b2d0cb" stroke-width="2" stroke-dasharray="2"/>
    <g id="icon_postmix" transform="translate(187.5 472.958)">
      <path id="Path" d="M1.242,5.305a1.571,1.571,0,0,0,1.022.93L7.323,7.4,2.312,8.5a1.574,1.574,0,0,0-1.047.938l-1.2,4.2a.846.846,0,0,0,1.2,1.051L12.9,8.138a.846.846,0,0,0,0-1.48L1.265.112a.846.846,0,0,0-1.2,1.051Z" transform="translate(0 0)" fill="#fff"/>
    </g>
    <path id="Combined_Shape" data-name="Combined Shape" d="M2.207,10.907.126,8.824a.443.443,0,0,1-.014-.605L.125,8.2,2.208,6.12A.273.273,0,0,1,2.3,6.062a.263.263,0,0,1,.292.069.29.29,0,0,1,.076.2V7.69H7.3a.524.524,0,0,0,.338-.124.552.552,0,0,0,.185-.317l.013-.069a.786.786,0,0,1,.263-.45.741.741,0,0,1,.771-.117.753.753,0,0,1,.246.169.782.782,0,0,1,.164.253.8.8,0,0,1,.058.3V7.69a1.673,1.673,0,0,1-.469,1.165,1.577,1.577,0,0,1-1.132.483H2.665V10.7a.29.29,0,0,1-.02.108.281.281,0,0,1-.058.092.273.273,0,0,1-.193.085A.265.265,0,0,1,2.207,10.907ZM7.731,4.942a.264.264,0,0,1-.1-.024.271.271,0,0,1-.086-.063.294.294,0,0,1-.076-.2V3.3H2.836A.523.523,0,0,0,2.5,3.42a.553.553,0,0,0-.185.317L2.3,3.806a.787.787,0,0,1-.261.451.736.736,0,0,1-1.017-.049A.8.8,0,0,1,.8,3.653V3.3a1.673,1.673,0,0,1,.469-1.165A1.577,1.577,0,0,1,2.4,1.648H7.466V.285a.289.289,0,0,1,.02-.108A.284.284,0,0,1,7.544.084.27.27,0,0,1,7.633.023a.26.26,0,0,1,.292.056l2.08,2.083a.443.443,0,0,1,.014.605l-.014.015L7.923,4.864a.267.267,0,0,1-.089.058.261.261,0,0,1-.1.019Z" transform="translate(80 416.131) rotate(-90)" fill="#fff"/>
    <path id="icon_badbank" d="M9.678,3a6.6,6.6,0,0,0-2.785.615.559.559,0,0,0-.248.785L8.573,7.741a2.15,2.15,0,0,1,2.209,0L12.711,4.4a.558.558,0,0,0-.247-.784A6.6,6.6,0,0,0,9.678,3Zm0,5.545a1.109,1.109,0,1,0,1.109,1.109A1.109,1.109,0,0,0,9.678,8.545ZM3.611,9.654a.56.56,0,0,0-.554.614A6.606,6.606,0,0,0,5.836,15.08a.56.56,0,0,0,.809-.173l1.93-3.341A2.208,2.208,0,0,1,7.46,9.654Zm8.285,0a2.208,2.208,0,0,1-1.113,1.912l1.929,3.341a.56.56,0,0,0,.809.173A6.606,6.606,0,0,0,16.3,10.268a.56.56,0,0,0-.554-.614Z" transform="translate(278.73 399.947)" fill="#fff"/>
  </g>
</svg>
