<svg xmlns="http://www.w3.org/2000/svg" width="236.962" height="231.877" viewBox="0 0 236.962 231.877">
  <g id="illustration" transform="translate(-63.552 -229.836)">
    <g id="Group_41681" data-name="Group 41681" transform="translate(162.917 229.836)">
      <g id="Group_41669" data-name="Group 41669" transform="translate(0 0)">
        <g id="Group_41667" data-name="Group 41667" transform="translate(4.6 4.285)">
          <g id="Group_40374" data-name="Group 40374">
            <g id="Group_40373" data-name="Group 40373">
              <circle id="Ellipse_2028" data-name="Ellipse 2028" cx="11.975" cy="11.975" r="11.975" fill="#508b82"/>
            </g>
          </g>
        </g>
        <g id="Group_41666" data-name="Group 41666" opacity="0.696">
          <path id="Path_28153" data-name="Path 28153" d="M21.912,187.976c-.582,0-1.165-.053-1.747-.106l.159-1.694c.529.053,1.059.106,1.588.106h.159v1.694Zm1.959-.106-.212-1.694c.529-.053,1.059-.159,1.588-.265l.371,1.641Zm-5.506-.265a8.9,8.9,0,0,1-1.694-.476l.529-1.588c.529.159,1.006.318,1.535.424Zm8.947-.529-.582-1.588c.476-.159,1.006-.371,1.482-.582l.741,1.535C28.423,186.652,27.841,186.864,27.311,187.076Zm-12.282-.635c-.529-.265-1.059-.529-1.588-.847l.847-1.429c.476.265.953.529,1.429.741Zm15.459-.9-.9-1.429a11.628,11.628,0,0,0,1.324-.9l1.059,1.324C31.494,184.852,31.017,185.223,30.488,185.541Zm-18.529-.9c-.476-.371-.9-.741-1.376-1.165l1.165-1.218a11.168,11.168,0,0,0,1.218,1.006Zm21.335-1.271-1.165-1.218a11.056,11.056,0,0,0,1.059-1.165l1.271,1.059A9.07,9.07,0,0,1,33.294,183.37ZM9.418,182.205a10.006,10.006,0,0,1-1.059-1.429l1.376-.953.953,1.271Zm26.153-1.588-1.376-.953a7.144,7.144,0,0,0,.794-1.376l1.482.794A14.585,14.585,0,0,1,35.57,180.617ZM7.406,179.294c-.265-.529-.529-1.059-.741-1.588l1.588-.635c.212.476.424.953.688,1.429Zm29.805-1.8-1.588-.635a7.394,7.394,0,0,0,.476-1.535l1.641.424A16.833,16.833,0,0,1,37.211,177.494ZM6.082,176.011c-.159-.582-.265-1.165-.371-1.747L7.353,174a13.022,13.022,0,0,0,.371,1.535Zm32.029-1.959-1.641-.265c.106-.529.106-1.059.159-1.588l1.694.053C38.27,172.888,38.217,173.47,38.111,174.053ZM5.5,172.517v-1.8l1.694.106v1.588Zm31.076-1.906c-.053-.529-.106-1.059-.212-1.588l1.641-.265c.106.582.159,1.165.212,1.747ZM7.353,169.235l-1.641-.265c.106-.582.212-1.165.371-1.747l1.641.424A8.617,8.617,0,0,0,7.353,169.235Zm28.694-1.747a12.216,12.216,0,0,0-.529-1.482l1.535-.635a15.912,15.912,0,0,1,.582,1.694ZM8.2,166.165l-1.588-.635a14.563,14.563,0,0,1,.741-1.588l1.482.794A11.681,11.681,0,0,0,8.2,166.165Zm26.629-1.588c-.265-.476-.529-.9-.847-1.376l1.376-.953c.318.476.635,1.006.953,1.535ZM9.682,163.359l-1.376-.953c.318-.476.688-.953,1.059-1.429l1.271,1.112A5.7,5.7,0,0,0,9.682,163.359Zm23.347-1.429c-.371-.424-.741-.794-1.112-1.165l1.165-1.218c.424.424.847.847,1.218,1.271Zm-21.335-1.006-1.165-1.218c.424-.424.9-.794,1.324-1.165l1.006,1.324C12.488,160.182,12.118,160.553,11.694,160.923ZM30.7,159.759a11.623,11.623,0,0,0-1.324-.9l.847-1.429a14.559,14.559,0,0,1,1.482,1.006Zm-16.464-.794-.9-1.429a14.256,14.256,0,0,1,1.535-.847l.741,1.535A11.369,11.369,0,0,0,14.235,158.965ZM28,158.118a12.331,12.331,0,0,0-1.482-.582l.529-1.588c.582.212,1.112.424,1.641.635Zm-10.906-.476-.529-1.588a10.141,10.141,0,0,1,1.694-.476l.371,1.641A8.3,8.3,0,0,0,17.094,157.641Zm7.888-.476c-.529-.106-1.059-.212-1.588-.265l.159-1.694c.582.053,1.165.159,1.747.265Zm-4.765-.265-.212-1.694c.582-.053,1.165-.106,1.747-.106v1.694C21.276,156.847,20.747,156.847,20.217,156.9Z" transform="translate(-5.5 -155.1)" fill="#fff"/>
        </g>
      </g>
      <path id="trezor" d="M13.762,145.1c0,.973-.054,1.95.011,2.918a6.476,6.476,0,0,1-1.73,5.1c-.2.21-.351.46-.538.68-.337.4-.448,1.105-.968,1.187a16.815,16.815,0,0,1-2.672.052c-.268,0-.415-.229-.525-.431a13.576,13.576,0,0,0-1.7-2.267,5.259,5.259,0,0,1-1.214-3.5c-.024-2.6,0-5.207-.017-7.81-.006-.667.244-.972.918-.969q3.748.014,7.5,0c.657,0,.962.259.95.941-.024,1.367-.007,2.735-.007,4.1m-4.691-3c-.893,0-1.786.017-2.679-.007-.479-.013-.659.181-.656.648q.017,2.718,0,5.436c0,.439.189.618.611.617q2.718-.005,5.437,0c.458,0,.661-.174.657-.655q-.023-2.678,0-5.357c0-.5-.177-.708-.694-.692-.892.028-1.786.008-2.679.008" transform="translate(7.312 -131.124)" fill="#fff"/>
    </g>
    <g id="Group_41683" data-name="Group 41683" transform="translate(243.931 266.676)">
      <g id="Group_41682" data-name="Group 41682" transform="translate(0)">
        <g id="Group_41669-2" data-name="Group 41669">
          <g id="Group_41667-2" data-name="Group 41667" transform="translate(4.6 4.285)">
            <g id="Group_40374-2" data-name="Group 40374">
              <g id="Group_40373-2" data-name="Group 40373">
                <circle id="Ellipse_2028-2" data-name="Ellipse 2028" cx="11.975" cy="11.975" r="11.975" fill="#508b82"/>
              </g>
            </g>
          </g>
          <g id="Group_41666-2" data-name="Group 41666" opacity="0.696">
            <path id="Path_28153-2" data-name="Path 28153" d="M21.912,187.976c-.582,0-1.165-.053-1.747-.106l.159-1.694c.529.053,1.059.106,1.588.106h.159v1.694Zm1.959-.106-.212-1.694c.529-.053,1.059-.159,1.588-.265l.371,1.641Zm-5.506-.265a8.9,8.9,0,0,1-1.694-.476l.529-1.588c.529.159,1.006.318,1.535.424Zm8.947-.529-.582-1.588c.476-.159,1.006-.371,1.482-.582l.741,1.535C28.423,186.652,27.841,186.864,27.311,187.076Zm-12.282-.635c-.529-.265-1.059-.529-1.588-.847l.847-1.429c.476.265.953.529,1.429.741Zm15.459-.9-.9-1.429a11.628,11.628,0,0,0,1.324-.9l1.059,1.324C31.494,184.852,31.017,185.223,30.488,185.541Zm-18.529-.9c-.476-.371-.9-.741-1.376-1.165l1.165-1.218a11.168,11.168,0,0,0,1.218,1.006Zm21.335-1.271-1.165-1.218a11.056,11.056,0,0,0,1.059-1.165l1.271,1.059A9.07,9.07,0,0,1,33.294,183.37ZM9.418,182.205a10.006,10.006,0,0,1-1.059-1.429l1.376-.953.953,1.271Zm26.153-1.588-1.376-.953a7.144,7.144,0,0,0,.794-1.376l1.482.794A14.585,14.585,0,0,1,35.57,180.617ZM7.406,179.294c-.265-.529-.529-1.059-.741-1.588l1.588-.635c.212.476.424.953.688,1.429Zm29.805-1.8-1.588-.635a7.394,7.394,0,0,0,.476-1.535l1.641.424A16.833,16.833,0,0,1,37.211,177.494ZM6.082,176.011c-.159-.582-.265-1.165-.371-1.747L7.353,174a13.022,13.022,0,0,0,.371,1.535Zm32.029-1.959-1.641-.265c.106-.529.106-1.059.159-1.588l1.694.053C38.27,172.888,38.217,173.47,38.111,174.053ZM5.5,172.517v-1.8l1.694.106v1.588Zm31.076-1.906c-.053-.529-.106-1.059-.212-1.588l1.641-.265c.106.582.159,1.165.212,1.747ZM7.353,169.235l-1.641-.265c.106-.582.212-1.165.371-1.747l1.641.424A8.617,8.617,0,0,0,7.353,169.235Zm28.694-1.747a12.216,12.216,0,0,0-.529-1.482l1.535-.635a15.912,15.912,0,0,1,.582,1.694ZM8.2,166.165l-1.588-.635a14.563,14.563,0,0,1,.741-1.588l1.482.794A11.681,11.681,0,0,0,8.2,166.165Zm26.629-1.588c-.265-.476-.529-.9-.847-1.376l1.376-.953c.318.476.635,1.006.953,1.535ZM9.682,163.359l-1.376-.953c.318-.476.688-.953,1.059-1.429l1.271,1.112A5.7,5.7,0,0,0,9.682,163.359Zm23.347-1.429c-.371-.424-.741-.794-1.112-1.165l1.165-1.218c.424.424.847.847,1.218,1.271Zm-21.335-1.006-1.165-1.218c.424-.424.9-.794,1.324-1.165l1.006,1.324C12.488,160.182,12.118,160.553,11.694,160.923ZM30.7,159.759a11.623,11.623,0,0,0-1.324-.9l.847-1.429a14.559,14.559,0,0,1,1.482,1.006Zm-16.464-.794-.9-1.429a14.256,14.256,0,0,1,1.535-.847l.741,1.535A11.369,11.369,0,0,0,14.235,158.965ZM28,158.118a12.331,12.331,0,0,0-1.482-.582l.529-1.588c.582.212,1.112.424,1.641.635Zm-10.906-.476-.529-1.588a10.141,10.141,0,0,1,1.694-.476l.371,1.641A8.3,8.3,0,0,0,17.094,157.641Zm7.888-.476c-.529-.106-1.059-.212-1.588-.265l.159-1.694c.582.053,1.165.159,1.747.265Zm-4.765-.265-.212-1.694c.582-.053,1.165-.106,1.747-.106v1.694C21.276,156.847,20.747,156.847,20.217,156.9Z" transform="translate(-5.5 -155.1)" fill="#fff"/>
          </g>
        </g>
      </g>
      <path id="ledger" d="M104.514,76.849c-.61,1.051-1.247,2.088-1.82,3.159-.282.527-.509.689-1.075.312A25.658,25.658,0,0,0,98.813,78.7c-.711-.352-.847-.634-.4-1.383,2.063-3.454,4.051-6.952,6.056-10.44.23-.4.563-.746.375-1.32-.3-.905.242-1.108,1-.964a7.776,7.776,0,0,0,2.734.01c.37-.061.957-.234,1.122.143a1.019,1.019,0,0,1-.188,1.294c-.347.3.407,2.42.871,2.72s.417,1.55-.1,1.63c-.6.091-.5.421-.5.771-.005,1.455,0,2.91,0,4.365,0,.371-.056.688.524.762.45.058.552,1.473.14,1.524-.844.1-.658.638-.662,1.126-.018,2.305-.015,2.311-2.295,2.3-.853,0-1.988.29-2.486-.14-.591-.51-.141-1.678-.192-2.56-.032-.549-.006-1.1-.006-1.651l-.293-.044m2.549-11.323c-.775.016-1.213.652-1.615,1.349q-2.594,4.5-5.2,8.99c-1.176,2.039-1.161,2.022.92,3.224.594.343.883.369,1.267-.315,1.931-3.439,3.931-6.84,5.9-10.259a4.318,4.318,0,0,0,.417-.909,1.644,1.644,0,0,0-1.691-2.08m1.268,5.176c-.808,1.167-1.935,2.175-2.084,3.618-.125,1.214.031,2.455-.036,3.679-.047.857.471.778.987.732.474-.042,1.163.32,1.146-.688-.041-2.447-.013-4.894-.013-7.342" transform="translate(-88.532 -56.487)" fill="#fff"/>
    </g>
    <g id="Group_41686" data-name="Group 41686" transform="translate(63.552 355.013)">
      <g id="Group_41685" data-name="Group 41685" transform="translate(0 0)">
        <g id="Group_41684" data-name="Group 41684" transform="translate(0 0)">
          <g id="Group_41682-2" data-name="Group 41682">
            <g id="Group_41669-3" data-name="Group 41669">
              <g id="Group_41667-3" data-name="Group 41667" transform="translate(4.6 4.285)">
                <g id="Group_40374-3" data-name="Group 40374">
                  <g id="Group_40373-3" data-name="Group 40373">
                    <circle id="Ellipse_2028-3" data-name="Ellipse 2028" cx="11.975" cy="11.975" r="11.975" fill="#508b82"/>
                  </g>
                </g>
              </g>
              <g id="Group_41666-3" data-name="Group 41666" opacity="0.696">
                <path id="Path_28153-3" data-name="Path 28153" d="M21.912,187.976c-.582,0-1.165-.053-1.747-.106l.159-1.694c.529.053,1.059.106,1.588.106h.159v1.694Zm1.959-.106-.212-1.694c.529-.053,1.059-.159,1.588-.265l.371,1.641Zm-5.506-.265a8.9,8.9,0,0,1-1.694-.476l.529-1.588c.529.159,1.006.318,1.535.424Zm8.947-.529-.582-1.588c.476-.159,1.006-.371,1.482-.582l.741,1.535C28.423,186.652,27.841,186.864,27.311,187.076Zm-12.282-.635c-.529-.265-1.059-.529-1.588-.847l.847-1.429c.476.265.953.529,1.429.741Zm15.459-.9-.9-1.429a11.628,11.628,0,0,0,1.324-.9l1.059,1.324C31.494,184.852,31.017,185.223,30.488,185.541Zm-18.529-.9c-.476-.371-.9-.741-1.376-1.165l1.165-1.218a11.168,11.168,0,0,0,1.218,1.006Zm21.335-1.271-1.165-1.218a11.056,11.056,0,0,0,1.059-1.165l1.271,1.059A9.07,9.07,0,0,1,33.294,183.37ZM9.418,182.205a10.006,10.006,0,0,1-1.059-1.429l1.376-.953.953,1.271Zm26.153-1.588-1.376-.953a7.144,7.144,0,0,0,.794-1.376l1.482.794A14.585,14.585,0,0,1,35.57,180.617ZM7.406,179.294c-.265-.529-.529-1.059-.741-1.588l1.588-.635c.212.476.424.953.688,1.429Zm29.805-1.8-1.588-.635a7.394,7.394,0,0,0,.476-1.535l1.641.424A16.833,16.833,0,0,1,37.211,177.494ZM6.082,176.011c-.159-.582-.265-1.165-.371-1.747L7.353,174a13.022,13.022,0,0,0,.371,1.535Zm32.029-1.959-1.641-.265c.106-.529.106-1.059.159-1.588l1.694.053C38.27,172.888,38.217,173.47,38.111,174.053ZM5.5,172.517v-1.8l1.694.106v1.588Zm31.076-1.906c-.053-.529-.106-1.059-.212-1.588l1.641-.265c.106.582.159,1.165.212,1.747ZM7.353,169.235l-1.641-.265c.106-.582.212-1.165.371-1.747l1.641.424A8.617,8.617,0,0,0,7.353,169.235Zm28.694-1.747a12.216,12.216,0,0,0-.529-1.482l1.535-.635a15.912,15.912,0,0,1,.582,1.694ZM8.2,166.165l-1.588-.635a14.563,14.563,0,0,1,.741-1.588l1.482.794A11.681,11.681,0,0,0,8.2,166.165Zm26.629-1.588c-.265-.476-.529-.9-.847-1.376l1.376-.953c.318.476.635,1.006.953,1.535ZM9.682,163.359l-1.376-.953c.318-.476.688-.953,1.059-1.429l1.271,1.112A5.7,5.7,0,0,0,9.682,163.359Zm23.347-1.429c-.371-.424-.741-.794-1.112-1.165l1.165-1.218c.424.424.847.847,1.218,1.271Zm-21.335-1.006-1.165-1.218c.424-.424.9-.794,1.324-1.165l1.006,1.324C12.488,160.182,12.118,160.553,11.694,160.923ZM30.7,159.759a11.623,11.623,0,0,0-1.324-.9l.847-1.429a14.559,14.559,0,0,1,1.482,1.006Zm-16.464-.794-.9-1.429a14.256,14.256,0,0,1,1.535-.847l.741,1.535A11.369,11.369,0,0,0,14.235,158.965ZM28,158.118a12.331,12.331,0,0,0-1.482-.582l.529-1.588c.582.212,1.112.424,1.641.635Zm-10.906-.476-.529-1.588a10.141,10.141,0,0,1,1.694-.476l.371,1.641A8.3,8.3,0,0,0,17.094,157.641Zm7.888-.476c-.529-.106-1.059-.212-1.588-.265l.159-1.694c.582.053,1.165.159,1.747.265Zm-4.765-.265-.212-1.694c.582-.053,1.165-.106,1.747-.106v1.694C21.276,156.847,20.747,156.847,20.217,156.9Z" transform="translate(-5.5 -155.1)" fill="#fff"/>
              </g>
            </g>
          </g>
        </g>
        <g id="tapsigner" transform="translate(8.276 11.308)">
          <path id="Path_27307" data-name="Path 27307" d="M16.031,10.4H.52a.381.381,0,0,1-.38-.38V.52A.381.381,0,0,1,.52.14H16.031a.381.381,0,0,1,.38.38v9.5A.381.381,0,0,1,16.031,10.4Z" transform="translate(-0.14 -0.14)" fill="#fff"/>
          <path id="Path_28304" data-name="Path 28304" d="M0,0H16.271" transform="translate(0 2.18)" fill="none" stroke="#035f51" stroke-width="2"/>
        </g>
      </g>
    </g>
    <g id="Group_41690" data-name="Group 41690" transform="translate(200.7 417.447)">
      <g id="Group_41684-2" data-name="Group 41684" transform="translate(0 0)">
        <g id="Group_41682-3" data-name="Group 41682" transform="translate(0 0)">
          <g id="Group_41669-4" data-name="Group 41669" transform="translate(0 0)">
            <g id="Group_41667-4" data-name="Group 41667" transform="translate(6.193 5.77)">
              <g id="Group_40374-4" data-name="Group 40374">
                <g id="Group_40373-4" data-name="Group 40373">
                  <circle id="Ellipse_2028-4" data-name="Ellipse 2028" cx="16.124" cy="16.124" r="16.124" fill="#508b82"/>
                </g>
              </g>
            </g>
            <g id="Group_41666-4" data-name="Group 41666" opacity="0.696">
              <path id="Path_28153-4" data-name="Path 28153" d="M27.6,199.365c-.784,0-1.568-.071-2.352-.143l.214-2.281c.713.071,1.426.143,2.138.143h.214v2.281Zm2.637-.143-.285-2.281c.713-.071,1.426-.214,2.138-.356l.5,2.21Zm-7.413-.356a11.981,11.981,0,0,1-2.281-.642l.713-2.138c.713.214,1.354.428,2.067.57Zm12.046-.713-.784-2.138c.642-.214,1.354-.5,2-.784l1,2.067C36.365,197.583,35.581,197.869,34.868,198.154ZM18.331,197.3c-.713-.356-1.426-.713-2.138-1.14l1.14-1.925c.642.356,1.283.713,1.925,1Zm20.814-1.212-1.212-1.925a15.652,15.652,0,0,0,1.782-1.212l1.426,1.782C40.5,195.16,39.857,195.659,39.145,196.087ZM14.2,194.875c-.642-.5-1.212-1-1.853-1.568l1.568-1.639a15.034,15.034,0,0,0,1.639,1.354Zm28.726-1.711-1.568-1.639a14.888,14.888,0,0,0,1.426-1.568l1.711,1.426A12.214,12.214,0,0,1,42.922,193.164ZM10.775,191.6a13.475,13.475,0,0,1-1.426-1.925l1.853-1.283,1.283,1.711Zm35.213-2.138-1.853-1.283a9.62,9.62,0,0,0,1.069-1.853l2,1.069A19.642,19.642,0,0,1,45.988,189.457ZM8.066,187.675c-.356-.713-.713-1.426-1-2.138l2.138-.855c.285.642.57,1.283.927,1.925ZM48.2,185.252l-2.138-.855a9.956,9.956,0,0,0,.642-2.067l2.21.57A22.662,22.662,0,0,1,48.2,185.252Zm-41.913-2c-.214-.784-.356-1.568-.5-2.352l2.21-.356a17.535,17.535,0,0,0,.5,2.067Zm43.125-2.637-2.21-.356c.143-.713.143-1.426.214-2.138l2.281.071C49.623,179.05,49.552,179.835,49.409,180.619ZM5.5,178.551v-2.424l2.281.143v2.138Zm41.842-2.566c-.071-.713-.143-1.426-.285-2.138l2.21-.356c.143.784.214,1.568.285,2.352ZM7.995,174.132l-2.21-.356c.143-.784.285-1.568.5-2.352l2.21.57A11.6,11.6,0,0,0,7.995,174.132Zm38.634-2.352a16.45,16.45,0,0,0-.713-2l2.067-.855a21.425,21.425,0,0,1,.784,2.281ZM9.135,170,7,169.142a19.607,19.607,0,0,1,1-2.138l2,1.069A15.728,15.728,0,0,0,9.135,170Zm35.854-2.138c-.356-.641-.713-1.212-1.14-1.853l1.853-1.283c.428.642.855,1.354,1.283,2.067ZM11.131,166.22l-1.853-1.283c.428-.642.927-1.283,1.426-1.925l1.711,1.5A7.674,7.674,0,0,0,11.131,166.22ZM42.566,164.3c-.5-.57-1-1.069-1.5-1.568l1.568-1.639c.57.57,1.14,1.141,1.639,1.711ZM13.84,162.941,12.272,161.3c.57-.57,1.212-1.069,1.782-1.568l1.354,1.782C14.909,161.943,14.41,162.442,13.84,162.941Zm25.59-1.568a15.647,15.647,0,0,0-1.782-1.212l1.14-1.925a19.606,19.606,0,0,1,2,1.354ZM17.261,160.3l-1.212-1.925a19.2,19.2,0,0,1,2.067-1.14l1,2.067A15.311,15.311,0,0,0,17.261,160.3Zm18.533-1.14a16.6,16.6,0,0,0-2-.784l.713-2.138c.784.285,1.5.57,2.21.855Zm-14.684-.642-.713-2.138a13.656,13.656,0,0,1,2.281-.642l.5,2.21A11.179,11.179,0,0,0,21.111,158.521Zm10.621-.642c-.713-.143-1.426-.285-2.138-.356l.214-2.281c.784.071,1.568.214,2.352.356Zm-6.415-.356-.285-2.281c.784-.071,1.568-.143,2.352-.143v2.281C26.742,157.452,26.029,157.452,25.316,157.524Z" transform="translate(-5.5 -155.1)" fill="#fff"/>
            </g>
          </g>
        </g>
      </g>
      <g id="coldcard" transform="translate(15.716 11.276)">
        <path id="Path_25656" data-name="Path 25656" d="M12.733,10.913c0,3.011,0,6.023,0,9.034,0,1.386-.384,1.762-1.761,1.764q-4.624.005-9.248,0c-1.3,0-1.692-.4-1.7-1.723Q.006,10.954,0,1.921C0,.346.364,0,1.948,0q4.518,0,9.035,0c1.363,0,1.766.386,1.772,1.772.015,3.046,0,6.093,0,9.139h-.026M12.1,14.572c0-1.876-.028-3.752.015-5.627.015-.659-.187-.842-.838-.836-3.256.03-6.513.037-9.769,0-.745-.009-.86.274-.856.926q.04,5.468,0,10.936c-.006.816.255,1.131,1.1,1.121q4.619-.055,9.238,0c.825.009,1.14-.265,1.121-1.1-.042-1.8-.013-3.61-.013-5.415M4.95,6.353H6.225c2.147,0,2.133,0,1.98-2.128-.032-.444-.146-.619-.613-.614-1.7.021-3.4.017-5.1,0-.424,0-.6.075-.636.571C1.72,6.354,1.7,6.353,3.888,6.353H4.95" transform="translate(0 0)" fill="#fff"/>
        <path id="Path_25657" data-name="Path 25657" d="M9.7,57.095c-.511-.118-.873-.365-.857-.928A.831.831,0,0,1,9.8,55.28a.829.829,0,0,1,.79.954c-.036.562-.406.781-.895.86" transform="translate(-6.96 -43.509)" fill="#fff"/>
        <path id="Path_25658" data-name="Path 25658" d="M44.607,56.512c-.012.253-.36.556-.866.559a.812.812,0,0,1-.873-.868.828.828,0,0,1,.927-.922c.5.026.84.355.813,1.231" transform="translate(-33.742 -43.511)" fill="#fff"/>
        <path id="Path_25659" data-name="Path 25659" d="M43.772,69.854c-.5-.058-.89-.264-.913-.832a.817.817,0,0,1,.886-.951.8.8,0,0,1,.861.869c.017.564-.317.822-.834.914" transform="translate(-33.734 -53.581)" fill="#fff"/>
        <path id="Path_25660" data-name="Path 25660" d="M10.619,43.509a.827.827,0,0,1-.86.882.8.8,0,0,1-.9-.835.809.809,0,0,1,.9-.933.824.824,0,0,1,.856.887" transform="translate(-6.975 -33.549)" fill="#fff"/>
        <path id="Path_25661" data-name="Path 25661" d="M27.622,69a.818.818,0,0,1-.893.83.8.8,0,0,1-.861-.869.812.812,0,0,1,.937-.9c.546.029.8.383.818.937" transform="translate(-20.361 -53.572)" fill="#fff"/>
        <path id="Path_25662" data-name="Path 25662" d="M9.657,67.963c.577.051.923.3.952.854a.812.812,0,0,1-.9.932.793.793,0,0,1-.846-.879.87.87,0,0,1,.8-.907" transform="translate(-6.974 -53.496)" fill="#fff"/>
        <path id="Path_25663" data-name="Path 25663" d="M26.762,44.432a.86.86,0,0,1-.913-.831.794.794,0,0,1,.777-.942.806.806,0,0,1,.973.853.859.859,0,0,1-.837.921" transform="translate(-20.343 -33.573)" fill="#fff"/>
        <path id="Path_25664" data-name="Path 25664" d="M43.732,42.548a.847.847,0,0,1,.877.862.877.877,0,1,1-1.753.021c0-.552.34-.82.876-.884" transform="translate(-33.733 -33.491)" fill="#fff"/>
        <path id="Path_25665" data-name="Path 25665" d="M26.712,55.185c.5.092.869.326.88.886a.879.879,0,1,1-1.756.013c.012-.559.37-.8.876-.9" transform="translate(-20.337 -43.438)" fill="#fff"/>
        <path id="Path_25666" data-name="Path 25666" d="M26.731,80.858a.875.875,0,1,1-.039,1.75.787.787,0,0,1-.828-.89.808.808,0,0,1,.867-.86" transform="translate(-20.358 -63.646)" fill="#fff"/>
        <path id="Path_25667" data-name="Path 25667" d="M44.629,81.759c-.062.58-.347.888-.894.88a.8.8,0,0,1-.862-.954A.786.786,0,0,1,43.8,80.9a.819.819,0,0,1,.829.857" transform="translate(-33.744 -63.679)" fill="#fff"/>
        <path id="Path_25668" data-name="Path 25668" d="M9.761,80.868a.8.8,0,0,1,.861.848.786.786,0,0,1-.816.9.8.8,0,0,1-.926-.891c.005-.549.33-.82.88-.854" transform="translate(-6.99 -63.654)" fill="#fff"/>
      </g>
    </g>
    <g id="Group_41691" data-name="Group 41691" transform="translate(75.221 260.787)">
      <g id="Group_41687" data-name="Group 41687" transform="translate(0)">
        <g id="Group_41682-4" data-name="Group 41682" transform="translate(0)">
          <g id="Group_41669-5" data-name="Group 41669">
            <g id="Group_41667-5" data-name="Group 41667" transform="translate(6.786 6.322)">
              <g id="Group_40374-5" data-name="Group 40374">
                <g id="Group_40373-5" data-name="Group 40373">
                  <circle id="Ellipse_2028-5" data-name="Ellipse 2028" cx="17.667" cy="17.667" r="17.667" fill="#508b82"/>
                </g>
              </g>
            </g>
            <g id="Group_41666-5" data-name="Group 41666" opacity="0.696">
              <path id="Path_28153-5" data-name="Path 28153" d="M29.712,203.6c-.859,0-1.718-.078-2.577-.156l.234-2.5c.781.078,1.562.156,2.343.156h.234v2.5Zm2.89-.156-.312-2.5c.781-.078,1.562-.234,2.343-.391l.547,2.421Zm-8.123-.391a13.128,13.128,0,0,1-2.5-.7l.781-2.343c.781.234,1.484.469,2.265.625Zm13.2-.781-.859-2.343c.7-.234,1.484-.547,2.187-.859l1.093,2.265C39.319,201.649,38.459,201.962,37.678,202.274Zm-18.12-.937c-.781-.39-1.562-.781-2.343-1.25l1.25-2.109c.7.391,1.406.781,2.109,1.093Zm22.806-1.328L41.037,197.9a17.149,17.149,0,0,0,1.953-1.328l1.562,1.953C43.849,198.994,43.146,199.541,42.365,200.009Zm-27.336-1.328c-.7-.547-1.328-1.093-2.031-1.718l1.718-1.8a16.48,16.48,0,0,0,1.8,1.484ZM46.5,196.807l-1.718-1.8a16.313,16.313,0,0,0,1.562-1.718l1.874,1.562A13.381,13.381,0,0,1,46.5,196.807ZM11.28,195.089a14.766,14.766,0,0,1-1.562-2.109l2.031-1.406,1.406,1.875Zm38.583-2.343-2.031-1.406A10.54,10.54,0,0,0,49,189.309l2.187,1.172A21.521,21.521,0,0,1,49.863,192.746ZM8.312,190.793c-.391-.781-.781-1.562-1.093-2.343l2.343-.937c.312.7.625,1.406,1.015,2.109Zm43.972-2.656-2.343-.937a10.91,10.91,0,0,0,.7-2.265l2.421.625A24.83,24.83,0,0,1,52.284,188.138ZM6.359,185.951c-.234-.859-.391-1.718-.547-2.577l2.421-.391a19.212,19.212,0,0,0,.547,2.265Zm47.252-2.89-2.421-.391c.156-.781.156-1.562.234-2.343l2.5.078C53.846,181.343,53.768,182.2,53.611,183.061ZM5.5,180.8V178.14L8,178.3v2.343Zm45.846-2.812c-.078-.781-.156-1.562-.312-2.343l2.421-.391c.156.859.234,1.718.312,2.577ZM8.234,175.953l-2.421-.39c.156-.859.312-1.718.547-2.577l2.421.625A12.712,12.712,0,0,0,8.234,175.953Zm42.332-2.577a18.023,18.023,0,0,0-.781-2.187l2.265-.937a23.476,23.476,0,0,1,.859,2.5ZM9.483,171.424l-2.343-.937a21.489,21.489,0,0,1,1.093-2.343l2.187,1.172A17.237,17.237,0,0,0,9.483,171.424Zm39.286-2.343c-.391-.7-.781-1.328-1.25-2.031l2.031-1.406c.469.7.937,1.484,1.406,2.265Zm-37.1-1.8-2.031-1.406c.469-.7,1.015-1.406,1.562-2.109l1.874,1.64A8.408,8.408,0,0,0,11.67,167.284Zm34.443-2.109c-.547-.625-1.093-1.172-1.64-1.718l1.718-1.8c.625.625,1.25,1.25,1.8,1.874Zm-31.476-1.484-1.718-1.8c.625-.625,1.328-1.172,1.953-1.718l1.484,1.953C15.81,162.6,15.263,163.145,14.638,163.691Zm28.039-1.718a17.147,17.147,0,0,0-1.953-1.328l1.25-2.109a21.482,21.482,0,0,1,2.187,1.484ZM18.387,160.8l-1.328-2.109a21.035,21.035,0,0,1,2.265-1.25l1.093,2.265A16.777,16.777,0,0,0,18.387,160.8Zm20.307-1.25a18.185,18.185,0,0,0-2.187-.859l.781-2.343c.859.312,1.64.625,2.421.937Zm-16.089-.7-.781-2.343a14.964,14.964,0,0,1,2.5-.7l.547,2.421A12.252,12.252,0,0,0,22.6,158.849Zm11.637-.7c-.781-.156-1.562-.312-2.343-.391l.234-2.5c.859.078,1.718.234,2.577.391Zm-7.029-.391-.312-2.5c.859-.078,1.718-.156,2.577-.156v2.5C28.775,157.677,27.994,157.677,27.213,157.755Z" transform="translate(-5.5 -155.1)" fill="#fff"/>
            </g>
          </g>
        </g>
      </g>
      <g id="Group_41155" data-name="Group 41155" transform="translate(19.972 10.277)">
        <path id="Path_28305" data-name="Path 28305" d="M1.5,2.1a.9.9,0,0,1,.569-.766A3.4,3.4,0,0,1,3.64,1h4.2a3.4,3.4,0,0,1,1.571.338A.9.9,0,0,1,9.98,2.1V25.248a1.319,1.319,0,0,1-.618,1.122,2.727,2.727,0,0,1-1.522.423H3.64a2.727,2.727,0,0,1-1.522-.423A1.319,1.319,0,0,1,1.5,25.248Z" transform="translate(-1.5 -1)" fill="#04594c" stroke="#fff" stroke-width="1"/>
        <rect id="Rectangle_7781" data-name="Rectangle 7781" width="6.352" height="6.625" rx="0.75" transform="translate(1.06 16.96)" fill="#fff"/>
        <rect id="Rectangle_7794" data-name="Rectangle 7794" width="3.439" height="3.439" rx="1.72" transform="translate(2.634 12.037)" fill="#fff"/>
        <rect id="Rectangle_7796" data-name="Rectangle 7796" width="5.732" height="8.025" rx="1.25" transform="translate(1.373 2.866)" fill="#fff"/>
        <line id="Line_828" data-name="Line 828" x2="0.442" transform="translate(4.063 1.413)" fill="none" stroke="#fff" stroke-linecap="round" stroke-linejoin="round" stroke-width="1"/>
      </g>
    </g>
    <g id="Group_41692" data-name="Group 41692" transform="translate(262.851 351.128)">
      <g id="Group_41688" data-name="Group 41688" transform="translate(0 0)">
        <g id="Group_41682-5" data-name="Group 41682" transform="translate(0 0)">
          <g id="Group_41669-6" data-name="Group 41669" transform="translate(0 0)">
            <g id="Group_41667-6" data-name="Group 41667" transform="translate(5.278 4.917)">
              <g id="Group_40374-6" data-name="Group 40374">
                <g id="Group_40373-6" data-name="Group 40373">
                  <circle id="Ellipse_2028-6" data-name="Ellipse 2028" cx="13.741" cy="13.741" r="13.741" fill="#508b82"/>
                </g>
              </g>
            </g>
            <g id="Group_41666-6" data-name="Group 41666" opacity="0.696">
              <path id="Path_28153-6" data-name="Path 28153" d="M24.331,192.823c-.668,0-1.336-.061-2-.121l.182-1.944c.607.061,1.215.121,1.822.121h.182v1.944Zm2.248-.121-.243-1.944c.607-.061,1.215-.182,1.822-.3l.425,1.883Zm-6.318-.3a10.209,10.209,0,0,1-1.944-.547l.607-1.822c.607.182,1.154.364,1.762.486Zm10.266-.607-.668-1.822c.547-.182,1.154-.425,1.7-.668l.85,1.762C31.8,191.3,31.134,191.547,30.527,191.79Zm-14.093-.729c-.607-.3-1.215-.607-1.822-.972l.972-1.64c.547.3,1.093.607,1.64.85Zm17.738-1.033-1.033-1.64a13.339,13.339,0,0,0,1.519-1.033l1.215,1.519C35.326,189.239,34.779,189.664,34.172,190.029ZM12.911,189c-.547-.425-1.033-.85-1.579-1.336l1.336-1.4a12.815,12.815,0,0,0,1.4,1.154Zm24.48-1.458-1.336-1.4A12.687,12.687,0,0,0,37.27,184.8l1.458,1.215A10.408,10.408,0,0,1,37.391,187.538ZM10,186.2a11.482,11.482,0,0,1-1.215-1.64l1.579-1.093,1.093,1.458ZM40,184.379l-1.579-1.093a8.2,8.2,0,0,0,.911-1.579l1.7.911A16.736,16.736,0,0,1,40,184.379ZM7.687,182.861c-.3-.607-.607-1.215-.85-1.822l1.822-.729c.243.547.486,1.093.79,1.64Zm34.2-2.065-1.822-.729a8.485,8.485,0,0,0,.547-1.762l1.883.486A19.315,19.315,0,0,1,41.886,180.8Zm-35.718-1.7c-.182-.668-.3-1.336-.425-2l1.883-.3a14.942,14.942,0,0,0,.425,1.762Zm36.751-2.248-1.883-.3c.121-.607.121-1.215.182-1.822l1.944.061C43.1,175.51,43.041,176.179,42.919,176.847ZM5.5,175.085V173.02l1.944.121v1.822ZM41.157,172.9c-.061-.607-.121-1.215-.243-1.822l1.883-.3c.121.668.182,1.336.243,2ZM7.626,171.319l-1.883-.3c.121-.668.243-1.336.425-2l1.883.486A9.887,9.887,0,0,0,7.626,171.319Zm32.924-2a14.016,14.016,0,0,0-.607-1.7l1.762-.729a18.261,18.261,0,0,1,.668,1.944ZM8.6,167.8l-1.822-.729a16.712,16.712,0,0,1,.85-1.822l1.7.911A13.405,13.405,0,0,0,8.6,167.8Zm30.555-1.822c-.3-.547-.607-1.033-.972-1.579L39.76,163.3c.364.547.729,1.154,1.093,1.762Zm-28.854-1.4-1.579-1.093c.364-.547.79-1.093,1.215-1.64l1.458,1.276A6.54,6.54,0,0,0,10.3,164.576Zm26.789-1.64c-.425-.486-.85-.911-1.276-1.336l1.336-1.4c.486.486.972.972,1.4,1.458Zm-24.48-1.154-1.336-1.4c.486-.486,1.033-.911,1.519-1.336l1.154,1.519C13.518,160.932,13.093,161.357,12.607,161.782Zm21.808-1.336a13.335,13.335,0,0,0-1.519-1.033l.972-1.64a16.714,16.714,0,0,1,1.7,1.154Zm-18.892-.911-1.033-1.64a16.36,16.36,0,0,1,1.762-.972l.85,1.762A13.047,13.047,0,0,0,15.523,159.534Zm15.794-.972a14.142,14.142,0,0,0-1.7-.668l.607-1.822c.668.243,1.276.486,1.883.729ZM18.8,158.016l-.607-1.822a11.639,11.639,0,0,1,1.944-.547l.425,1.883A9.526,9.526,0,0,0,18.8,158.016Zm9.051-.547c-.607-.122-1.215-.243-1.822-.3l.182-1.944c.668.061,1.336.182,2,.3Zm-5.467-.3-.243-1.944c.668-.061,1.336-.121,2-.121v1.944C23.6,157.1,22.995,157.1,22.387,157.165Z" transform="translate(-5.5 -155.1)" fill="#fff"/>
            </g>
          </g>
        </g>
      </g>
      <g id="keystone" transform="translate(11.699 9.69)">
        <path id="Path_28292" data-name="Path 28292" d="M0,11.954a3.17,3.17,0,0,1,.45-1.588Q2,7.681,3.534,4.992,4.807,2.774,6.079.554A.953.953,0,0,1,6.964,0a.852.852,0,0,1,.759.405,13.81,13.81,0,0,1,.7,1.226,1.5,1.5,0,0,1-.079,1.477L6.236,6.759,1.76,14.505c-.034.059-.067.12-.106.176a.47.47,0,0,1-.813,0,4.71,4.71,0,0,1-.4-.806A5.9,5.9,0,0,1,0,11.954" transform="translate(0 -0.001)" fill="#fff"/>
        <path id="Path_28294" data-name="Path 28294" d="M119.01,453.254a1.679,1.679,0,0,1-.454,1.169c-.152.163-.312.318-.472.474a1.545,1.545,0,0,1-1.866.311c-.938-.439-1.874-.884-2.811-1.327-.186-.088-.374-.172-.556-.267a1.548,1.548,0,0,1-.664-2.171q.619-1.111,1.272-2.2a1.237,1.237,0,0,1,2-.244c1.012,1,2.016,2.01,3.024,3.015a1.721,1.721,0,0,1,.531,1.243" transform="translate(-109.095 -437.048)" fill="#fff"/>
        <path id="Path_28300" data-name="Path 28300" d="M298.281,408.743c.687,0,1.373-.01,2.06,0a1.714,1.714,0,0,1,1.483.833,1.285,1.285,0,0,1-.156,1.613c-.49.505-.987,1-1.5,1.488a1.4,1.4,0,0,1-2.011-.047c-.607-.595-1.2-1.2-1.8-1.8-.243-.243-.49-.481-.727-.729a.792.792,0,0,1,.595-1.362q1.03,0,2.06,0" transform="translate(-287.773 -398.215)" fill="#fff"/>
        <path id="Path_28303" data-name="Path 28303" d="M265.015,184.853c-.48,0-.961,0-1.441,0a1.094,1.094,0,0,1-1.1-.981,1.112,1.112,0,0,1,.166-.713q.535-.923,1.067-1.847c.12-.208.236-.418.361-.622a1.248,1.248,0,0,1,2.181.005q.664,1.115,1.3,2.248a1.253,1.253,0,0,1-1.112,1.91c-.472,0-.944,0-1.415,0" transform="translate(-255.703 -175.414)" fill="#fff"/>
      </g>
    </g>
    <g id="Group_41693" data-name="Group 41693" transform="translate(117.766 425.066)">
      <g id="Group_41689" data-name="Group 41689" transform="translate(0 0)">
        <g id="Group_41682-6" data-name="Group 41682">
          <g id="Group_41669-7" data-name="Group 41669">
            <g id="Group_41667-7" data-name="Group 41667" transform="translate(4.6 4.285)">
              <g id="Group_40374-7" data-name="Group 40374">
                <g id="Group_40373-7" data-name="Group 40373">
                  <circle id="Ellipse_2028-7" data-name="Ellipse 2028" cx="11.975" cy="11.975" r="11.975" fill="#508b82"/>
                </g>
              </g>
            </g>
            <g id="Group_41666-7" data-name="Group 41666" opacity="0.696">
              <path id="Path_28153-7" data-name="Path 28153" d="M21.912,187.976c-.582,0-1.165-.053-1.747-.106l.159-1.694c.529.053,1.059.106,1.588.106h.159v1.694Zm1.959-.106-.212-1.694c.529-.053,1.059-.159,1.588-.265l.371,1.641Zm-5.506-.265a8.9,8.9,0,0,1-1.694-.476l.529-1.588c.529.159,1.006.318,1.535.424Zm8.947-.529-.582-1.588c.476-.159,1.006-.371,1.482-.582l.741,1.535C28.423,186.652,27.841,186.864,27.311,187.076Zm-12.282-.635c-.529-.265-1.059-.529-1.588-.847l.847-1.429c.476.265.953.529,1.429.741Zm15.459-.9-.9-1.429a11.628,11.628,0,0,0,1.324-.9l1.059,1.324C31.494,184.852,31.017,185.223,30.488,185.541Zm-18.529-.9c-.476-.371-.9-.741-1.376-1.165l1.165-1.218a11.168,11.168,0,0,0,1.218,1.006Zm21.335-1.271-1.165-1.218a11.056,11.056,0,0,0,1.059-1.165l1.271,1.059A9.07,9.07,0,0,1,33.294,183.37ZM9.418,182.205a10.006,10.006,0,0,1-1.059-1.429l1.376-.953.953,1.271Zm26.153-1.588-1.376-.953a7.144,7.144,0,0,0,.794-1.376l1.482.794A14.585,14.585,0,0,1,35.57,180.617ZM7.406,179.294c-.265-.529-.529-1.059-.741-1.588l1.588-.635c.212.476.424.953.688,1.429Zm29.805-1.8-1.588-.635a7.394,7.394,0,0,0,.476-1.535l1.641.424A16.833,16.833,0,0,1,37.211,177.494ZM6.082,176.011c-.159-.582-.265-1.165-.371-1.747L7.353,174a13.022,13.022,0,0,0,.371,1.535Zm32.029-1.959-1.641-.265c.106-.529.106-1.059.159-1.588l1.694.053C38.27,172.888,38.217,173.47,38.111,174.053ZM5.5,172.517v-1.8l1.694.106v1.588Zm31.076-1.906c-.053-.529-.106-1.059-.212-1.588l1.641-.265c.106.582.159,1.165.212,1.747ZM7.353,169.235l-1.641-.265c.106-.582.212-1.165.371-1.747l1.641.424A8.617,8.617,0,0,0,7.353,169.235Zm28.694-1.747a12.216,12.216,0,0,0-.529-1.482l1.535-.635a15.912,15.912,0,0,1,.582,1.694ZM8.2,166.165l-1.588-.635a14.563,14.563,0,0,1,.741-1.588l1.482.794A11.681,11.681,0,0,0,8.2,166.165Zm26.629-1.588c-.265-.476-.529-.9-.847-1.376l1.376-.953c.318.476.635,1.006.953,1.535ZM9.682,163.359l-1.376-.953c.318-.476.688-.953,1.059-1.429l1.271,1.112A5.7,5.7,0,0,0,9.682,163.359Zm23.347-1.429c-.371-.424-.741-.794-1.112-1.165l1.165-1.218c.424.424.847.847,1.218,1.271Zm-21.335-1.006-1.165-1.218c.424-.424.9-.794,1.324-1.165l1.006,1.324C12.488,160.182,12.118,160.553,11.694,160.923ZM30.7,159.759a11.623,11.623,0,0,0-1.324-.9l.847-1.429a14.559,14.559,0,0,1,1.482,1.006Zm-16.464-.794-.9-1.429a14.256,14.256,0,0,1,1.535-.847l.741,1.535A11.369,11.369,0,0,0,14.235,158.965ZM28,158.118a12.331,12.331,0,0,0-1.482-.582l.529-1.588c.582.212,1.112.424,1.641.635Zm-10.906-.476-.529-1.588a10.141,10.141,0,0,1,1.694-.476l.371,1.641A8.3,8.3,0,0,0,17.094,157.641Zm7.888-.476c-.529-.106-1.059-.212-1.588-.265l.159-1.694c.582.053,1.165.159,1.747.265Zm-4.765-.265-.212-1.694c.582-.053,1.165-.106,1.747-.106v1.694C21.276,156.847,20.747,156.847,20.217,156.9Z" transform="translate(-5.5 -155.1)" fill="#fff"/>
            </g>
          </g>
        </g>
      </g>
      <g id="jade" transform="translate(8.091 8.118)">
        <path id="Path_24881" data-name="Path 24881" d="M7.821,214.237,5.171,211.6H0l7.821,7.8Z" transform="translate(0 -202.798)" fill="#fff"/>
        <path id="Path_24882" data-name="Path 24882" d="M211.3,219.437l7.817-7.837h-5.158l-2.658,2.662Z" transform="translate(-202.51 -202.798)" fill="#fff"/>
        <path id="Path_24883" data-name="Path 24883" d="M211.3.1V5.258l2.675,2.671h5.175Z" transform="translate(-202.51 -0.096)" fill="#fff"/>
        <path id="Path_24884" data-name="Path 24884" d="M7.812,0,0,7.833H5.158L7.812,5.171Z" fill="#fff"/>
      </g>
    </g>
    <g id="Group_41694" data-name="Group 41694" transform="translate(101.994 268.967)" opacity="0.4">
      <line id="Line_829" data-name="Line 829" y2="30.793" transform="translate(76.983)" fill="none" stroke="#b2d0cb" stroke-width="2" stroke-dasharray="2"/>
      <line id="Line_830" data-name="Line 830" y1="22.133" x2="43.303" transform="translate(99.116 26.944)" fill="none" stroke="#b2d0cb" stroke-width="2" stroke-dasharray="2"/>
      <line id="Line_831" data-name="Line 831" x2="51.964" y2="22.133" transform="translate(102.003 75.059)" fill="none" stroke="#b2d0cb" stroke-width="2" stroke-dasharray="2"/>
      <line id="Line_832" data-name="Line 832" x2="15.397" y2="18.284" transform="translate(94.304 127.022)" fill="none" stroke="#b2d0cb" stroke-width="2" stroke-dasharray="2"/>
      <line id="Line_833" data-name="Line 833" x1="19.246" y2="28.869" transform="translate(43.303 125.098)" fill="none" stroke="#b2d0cb" stroke-width="2" stroke-dasharray="2"/>
      <line id="Line_834" data-name="Line 834" y1="21.17" x2="49.077" transform="translate(0 74.096)" fill="none" stroke="#b2d0cb" stroke-width="2" stroke-dasharray="2"/>
      <line id="Line_835" data-name="Line 835" x2="27.906" y2="16.359" transform="translate(21.17 32.718)" fill="none" stroke="#b2d0cb" stroke-width="2" stroke-dasharray="2"/>
    </g>
    <path id="Path_117018" data-name="Path 117018" d="M1472.965,1048.111l-2.531-1.8-10.062-14.213v-.016l6.48-9.167,2.539-1.807h-3.255l.467,1.153-14.782,20.9v-37.383l1.254-1.791h.008l-.008-.008-1.254-1.791v-.693a3.866,3.866,0,0,0,.514-.249l8.7-4.984a5.087,5.087,0,0,0,2.554-4.416l-.039-10.023a5.09,5.09,0,0,0-2.531-4.369l-8.777-5.062a5.075,5.075,0,0,0-5.047-.016l-8.707,4.984a5.063,5.063,0,0,0-2.547,4.416l.039,10.023a5.073,5.073,0,0,0,2.531,4.369l8.777,5.062a4.922,4.922,0,0,0,1.044.452v.506l-1.262,1.791-.008.008h.008l1.262,1.791v40.537l-1.269,1.8h6.02l-1.262-1.8v-2.142l6.41-9.058,8.543,12.1-.631.9Zm-34.26-56.324-.039-10.031a2.327,2.327,0,0,1,1.176-2.033l8.707-4.984a2.325,2.325,0,0,1,2.329.008l8.777,5.062a2.361,2.361,0,0,1,1.168,2.017l.039,10.031a2.342,2.342,0,0,1-1.176,2.033l-7.2,4.12h-5.327l-7.29-4.205A2.345,2.345,0,0,1,1438.7,991.787Z" transform="translate(-1275.246 -663.436)" fill="#fff" stroke="rgba(0,0,0,0)" stroke-width="1"/>
  </g>
</svg>
