<svg xmlns="http://www.w3.org/2000/svg" xmlns:xlink="http://www.w3.org/1999/xlink" width="132" height="144.914" viewBox="0 0 132 144.914">
  <defs>
    <linearGradient id="linear-gradient" x1="0.5" x2="0.5" y2="1" gradientUnits="objectBoundingBox">
      <stop offset="0" stop-color="#00836a"/>
      <stop offset="1" stop-color="#073e39"/>
    </linearGradient>
  </defs>
  <g id="illustration_passport" transform="translate(-69 -457)">
    <path id="Union_23" data-name="Union 23" d="M21.684,66.622a2.567,2.567,0,1,1,2.567,2.567A2.567,2.567,0,0,1,21.684,66.622Zm8.977.123A1.753,1.753,0,1,1,32.414,68.5,1.753,1.753,0,0,1,30.661,66.745ZM0,32.5A29.965,29.965,0,1,1,29.965,62.46,29.965,29.965,0,0,1,0,32.5ZM7.132,3.256a3.256,3.256,0,1,1,3.255,3.255A3.255,3.255,0,0,1,7.132,3.256Z" transform="translate(69 532.725)" opacity="0.4" fill="url(#linear-gradient)"/>
    <path id="Union_22" data-name="Union 22" d="M18.278,24.819a.647.647,0,1,1,.158.02A.648.648,0,0,1,18.278,24.819Zm2-2.365a.95.95,0,1,1,.95.95A.95.95,0,0,1,20.276,22.454ZM0,12.316A11.088,11.088,0,1,1,11.088,23.4,11.088,11.088,0,0,1,0,12.316ZM17.507,1.2a1.2,1.2,0,1,1,1.2,1.2A1.2,1.2,0,0,1,17.507,1.2Z" transform="translate(178.824 464.391)" opacity="0.4" fill="url(#linear-gradient)"/>
    <g id="Group_43856" data-name="Group 43856" transform="translate(0 5.89)">
      <g id="Rectangle_7601" data-name="Rectangle 7601" transform="translate(121.337 588.609) rotate(-90)" fill="#F6F2ED" stroke="#002c27" stroke-width="1.5">
        <rect width="137.499" height="61.487" rx="5" stroke="none"/>
        <rect x="0.75" y="0.75" width="135.999" height="59.987" rx="4.25" fill="none"/>
      </g>
      <g id="Rectangle_7600" data-name="Rectangle 7600" transform="translate(128.258 581.688) rotate(-90)" fill="none" stroke="#002c27" stroke-width="1.5" stroke-dasharray="1.5 2">
        <rect width="123.657" height="47.183" rx="5" stroke="none"/>
        <rect x="0.75" y="0.75" width="122.157" height="45.683" rx="4.25" fill="none"/>
      </g>
      <rect id="Rectangle_7987" data-name="Rectangle 7987" width="37.8" height="114.976" rx="3" transform="translate(133.023 462.679)" fill="#3c3c3c"/>
      <rect id="Rectangle_7781" data-name="Rectangle 7781" width="28.315" height="29.531" rx="3" transform="translate(137.637 538.279)" fill="#f6f2ed"/>
      <rect id="Rectangle_7794" data-name="Rectangle 7794" width="15.33" height="15.33" rx="7.665" transform="translate(144.335 516.334)" fill="#f6f2ed"/>
      <rect id="Rectangle_7796" data-name="Rectangle 7796" width="25.55" height="35.77" rx="3" transform="translate(139.482 475.454)" fill="#f6f2ed"/>
      <line id="Line_828" data-name="Line 828" x2="7.502" transform="translate(148.249 468.979)" fill="none" stroke="#f6f2ed" stroke-linecap="round" stroke-linejoin="round" stroke-width="3"/>
    </g>
  </g>
</svg>
