<svg id="image" xmlns="http://www.w3.org/2000/svg" width="15.533" height="13.001" viewBox="0 0 15.533 13.001">
  <path id="Shape" d="M13.916,13H1.618A1.619,1.619,0,0,1,0,11.382V1.619A1.619,1.619,0,0,1,1.618,0h12.3a1.619,1.619,0,0,1,1.617,1.619v9.764A1.619,1.619,0,0,1,13.916,13ZM6.528,4.431a.593.593,0,0,0-.406.161l-3.5,4.637a.595.595,0,0,0,.407,1.028h9.546a.594.594,0,0,0,.416-1.018l-2-2.48a.592.592,0,0,0-.837,0l-.407.407a.59.59,0,0,1-.409.175H9.329a.591.591,0,0,1-.4-.159L6.934,4.592A.593.593,0,0,0,6.528,4.431Z" transform="translate(0)" fill="#f5f2ed"/>
</svg>
