<svg width="19" height="17" viewBox="0 0 19 17" fill="none" xmlns="http://www.w3.org/2000/svg">
<path d="M16.5742 16.114H1.84082C1.35272 16.1135 0.885179 15.9194 0.540039 15.5742C0.194899 15.2291 0.000529407 14.7611 1.23309e-08 14.2729V1.96094C-5.59062e-05 1.47749 0.190075 1.01341 0.529297 0.668945C0.868519 0.324485 1.32959 0.12747 1.81299 0.120117L12.5771 0.000976562H12.6108C13.3411 0.00150492 14.0415 0.29153 14.5581 0.807617C15.0748 1.3237 15.3659 2.02365 15.3672 2.75391L15.395 2.80005V2.91895H16.583C17.0714 2.91974 17.5396 3.1142 17.8848 3.45972C18.2299 3.80523 18.4236 4.2736 18.4238 4.76196V12.2109L18.4141 11.418V14.2729C18.4135 14.7609 18.2194 15.2286 17.8745 15.5737C17.5296 15.9188 17.0621 16.1132 16.5742 16.114ZM6.43506 8.06592C6.26678 8.06521 6.10215 8.11498 5.9624 8.20874C5.82266 8.3025 5.71403 8.43606 5.65088 8.59204C5.58604 8.74849 5.56812 8.92033 5.59863 9.08691C5.62915 9.2535 5.70716 9.40769 5.82324 9.53101L9.06299 12.9519C9.14357 13.0381 9.24094 13.1069 9.34912 13.1541C9.4573 13.2012 9.5739 13.2258 9.69189 13.2261C9.92851 13.2232 10.1544 13.1272 10.3208 12.959L13.5522 9.5481C13.6674 9.42611 13.7449 9.27338 13.7754 9.1084C13.8059 8.94342 13.7881 8.77303 13.7241 8.61792L13.646 8.56592C13.581 8.4118 13.472 8.28032 13.3325 8.18799C13.193 8.09565 13.0291 8.04677 12.8618 8.04712H11.8452C11.7031 6.95206 11.1672 5.9461 10.3379 5.21704C9.50855 4.48798 8.44213 4.0855 7.33789 4.08496H5.48486C5.29469 4.0849 5.11032 4.14856 4.96045 4.26562C4.81058 4.38269 4.70418 4.54643 4.6582 4.73096C4.60959 4.91594 4.62378 5.11187 4.69873 5.28784C4.77368 5.46381 4.9052 5.60976 5.07227 5.70288L6.65723 6.60303C6.93444 6.7596 7.17736 6.96968 7.37256 7.22119C7.56776 7.47271 7.71107 7.76071 7.79395 8.06812L6.43506 8.06592Z" fill="#FDF7F0"/>
</svg>
