<svg width="38" height="38" viewBox="0 0 38 38" fill="none" xmlns="http://www.w3.org/2000/svg">
<circle cx="19" cy="19" r="19" fill="#F7F2EC"/>
<circle cx="19" cy="19" r="16.0098" fill="#F7F2EC" stroke="#2D6759" stroke-width="3"/>
<circle cx="18.9992" cy="19" r="13.2843" fill="#F7F2EC" stroke="#2D6759" stroke-dasharray="1 1"/>
<path d="M22.7304 15.2119H14.9327C14.8574 15.2102 14.7822 15.215 14.7077 15.2263C14.5997 15.2442 14.5019 15.3024 14.4333 15.3897C14.3646 15.477 14.3299 15.5873 14.3358 15.6993C14.3411 15.8123 14.3868 15.9194 14.4641 16C14.5415 16.0807 14.6451 16.1293 14.7552 16.1366C14.8153 16.1366 14.8768 16.1366 14.9383 16.1366C18.0948 16.1366 21.2514 16.1366 24.4079 16.1366C24.5857 16.1348 24.7618 16.173 24.9237 16.2484C25.0551 16.3173 25.1636 16.4247 25.2355 16.5568C25.3074 16.689 25.3395 16.8401 25.3277 16.9909C25.3277 18.6605 25.3277 20.333 25.3277 22.0083C25.3277 22.8254 25.3277 23.6411 25.3277 24.4568C25.3277 24.9915 25.0048 25.3312 24.489 25.3312C20.8283 25.3312 17.1675 25.3312 13.5068 25.3312C12.9868 25.3312 12.6681 24.9886 12.6681 24.4539V15.4872C12.6538 15.284 12.7146 15.0827 12.8384 14.9233C12.9622 14.764 13.1399 14.6582 13.3363 14.6271L21.7504 12.6904C22.2551 12.5757 22.715 12.8867 22.7388 13.4071C22.7569 13.9977 22.7304 14.5926 22.7304 15.2119ZM23.1078 21.5625C23.3105 21.5629 23.5051 21.4808 23.6489 21.3344C23.7928 21.188 23.8742 20.989 23.8753 20.7812C23.8742 20.5712 23.7921 20.3701 23.6471 20.2219C23.502 20.0737 23.3056 19.9903 23.1008 19.9899C22.8981 19.9929 22.7048 20.0779 22.5629 20.2264C22.421 20.3748 22.342 20.5747 22.3431 20.7826C22.3431 20.8859 22.3631 20.9881 22.4019 21.0834C22.4408 21.1787 22.4977 21.2651 22.5693 21.3376C22.641 21.4102 22.726 21.4674 22.8194 21.506C22.9128 21.5446 23.0127 21.5638 23.1134 21.5625H23.1078Z" fill="#2D6759"/>
</svg>
