<svg xmlns="http://www.w3.org/2000/svg" width="25.159" height="22.48" viewBox="0 0 25.159 22.48">
  <g id="Group_46282" data-name="Group 46282" transform="translate(-327 -259.521)">
    <path id="Wallet" d="M22.467,7.3h-.491a4.94,4.94,0,0,0-4.73-4.239H4.881A2.99,2.99,0,0,0,2,6.129a2.894,2.894,0,0,0,.038.327A.624.624,0,0,0,2,6.62V20.835a4.711,4.711,0,0,0,4.692,4.7H22.467a4.711,4.711,0,0,0,4.692-4.7V11.991A4.7,4.7,0,0,0,22.467,7.3ZM4.881,4.947H17.246A2.994,2.994,0,0,1,20.039,7.3H4.881a1.092,1.092,0,0,1-.994-1.17A1.1,1.1,0,0,1,4.881,4.947Z" transform="translate(325 256.461)" fill="#2d6759"/>
    <path id="Path" d="M3.175,1.327V5.972L2.33,5.133A1.366,1.366,0,0,0,.4,7.067l3.189,3.176a1.364,1.364,0,0,0,1.942-.014L8.7,6.968A1.366,1.366,0,0,0,6.742,5.06l-.835.876V1.327a1.367,1.367,0,0,0-2.732,0Z" transform="translate(334.574 266.735)" fill="#fdf7f0" stroke="#2d6759" stroke-width="1"/>
  </g>
</svg>
