<svg width="40" height="40" viewBox="0 0 40 40" fill="none" xmlns="http://www.w3.org/2000/svg">
<rect width="40" height="40" rx="20" fill="#2D6759"/>
<path d="M12 26.6007C12 26.9541 12.1404 27.2931 12.3903 27.543C12.6403 27.793 12.9792 27.9334 13.3327 27.9334L23.9942 28C24.3477 28 24.6866 27.8596 24.9366 27.6097C25.1865 27.3597 25.3269 27.0208 25.3269 26.6673C25.3269 26.3139 25.1865 25.9749 24.9366 25.725C24.6866 25.475 24.3477 25.3346 23.9942 25.3346H16.5845L27.6058 14.2866C27.7307 14.1627 27.8298 14.0153 27.8975 13.8529C27.9652 13.6905 28 13.5163 28 13.3404C28 13.1645 27.9652 12.9903 27.8975 12.8279C27.8298 12.6655 27.7307 12.5181 27.6058 12.3942C27.4819 12.2693 27.3345 12.1702 27.1721 12.1025C27.0097 12.0348 26.8355 12 26.6596 12C26.4837 12 26.3095 12.0348 26.1471 12.1025C25.9847 12.1702 25.8373 12.2693 25.7134 12.3942L14.6654 23.4422V16.0058C14.6654 15.6523 14.525 15.3134 14.275 15.0634C14.0251 14.8135 13.6861 14.6731 13.3327 14.6731C12.9792 14.6731 12.6403 14.8135 12.3903 15.0634C12.1404 15.3134 12 15.6523 12 16.0058V26.6007Z" fill="#F7F2EC"/>
</svg>
