<svg width="24" height="24" viewBox="0 0 24 24" fill="none" xmlns="http://www.w3.org/2000/svg">
<path d="M12 2C6.47707 2 2 6.47723 2 12C2 17.5231 6.47707 22 12 22C17.5229 22 22 17.5231 22 12C22 6.47723 17.5229 2 12 2ZM12 7C12.6904 7 13.25 7.55969 13.25 8.25C13.25 8.94063 12.6904 9.5 12 9.5C11.3096 9.5 10.75 8.94063 10.75 8.25C10.75 7.55969 11.3096 7 12 7ZM13.875 17H10.125C9.77984 17 9.5 16.7205 9.5 16.375C9.5 16.0298 9.77984 15.75 10.125 15.75H10.75V12H10.125C9.77984 12 9.5 11.7205 9.5 11.375C9.5 11.0298 9.77984 10.75 10.125 10.75H12.625C12.9702 10.75 13.25 11.0298 13.25 11.375V15.75H13.875C14.2202 15.75 14.5 16.0298 14.5 16.375C14.5 16.7205 14.2202 17 13.875 17Z" fill="#2D6759"/>
</svg>
