<svg width="13" height="14" viewBox="0 0 13 14" fill="none" xmlns="http://www.w3.org/2000/svg">
<path d="M6.87285 0.100015C6.77032 0.0346973 6.65127 0 6.5297 0C6.40813 0 6.28908 0.0346973 6.18655 0.100015L4.94616 0.840101C4.70695 0.981864 4.45174 1.0947 4.18591 1.17625L1.32417 2.02726C1.17185 2.07142 1.04035 2.1686 0.953426 2.30125C0.866502 2.4339 0.829888 2.59326 0.850201 2.75054L1.69729 9.54073C1.7563 10.0158 1.91695 10.4727 2.1683 10.8802C2.41965 11.2877 2.75582 11.6362 3.15393 11.9022L6.13557 13.8899C6.24448 13.9617 6.37207 14 6.50253 14C6.63298 14 6.76057 13.9617 6.86949 13.8899L9.85112 11.8954C10.2479 11.6275 10.5827 11.2777 10.833 10.8696C11.0834 10.4616 11.2436 10.0046 11.3027 9.52952L12.1498 2.73429C12.1698 2.57651 12.1332 2.41676 12.0465 2.28341C11.9599 2.15006 11.8287 2.05176 11.6764 2.00597L8.81579 1.14712C8.54878 1.06698 8.29324 0.952677 8.05553 0.807046L6.81346 0.0613582L6.87285 0.100015Z" fill="#FDF7F0"/>
</svg>
