<svg width="15" height="16" viewBox="0 0 15 16" fill="none" xmlns="http://www.w3.org/2000/svg">
<path fill-rule="evenodd" clip-rule="evenodd" d="M12.3699 11.6267C11.2556 13.2957 9.71596 14.5068 7.82534 15.3206C7.5985 15.4181 7.36706 15.4086 7.13868 15.3082C4.21118 14.0235 2.32899 11.8669 1.30743 8.99694C0.760252 7.46116 0.508119 5.87734 0.501988 4.25786C0.501988 4.19625 0.50149 4.13471 0.500993 4.07319C0.499858 3.93267 0.498723 3.79229 0.50352 3.65156C0.518848 3.21048 0.688214 2.98994 1.12351 2.8349C1.81845 2.58676 2.51338 2.33898 3.20832 2.0912L3.20881 2.09102L3.20915 2.0909C3.90412 1.84311 4.59908 1.59532 5.29405 1.34716C5.93013 1.12007 6.56544 0.892981 7.19999 0.663706C7.40308 0.59092 7.60386 0.595288 7.80465 0.666617L9.05401 1.11227L9.0544 1.11241C10.6687 1.68833 12.2833 2.26432 13.8988 2.83709C14.2704 2.96883 14.482 3.2112 14.4927 3.58459C14.5724 6.45235 14.0091 9.17162 12.3699 11.6267ZM5.58202 11.4536C5.31303 11.3634 5.2134 11.1792 5.2203 10.9143C5.22676 10.6631 5.22549 10.4116 5.22421 10.1602V10.1601C5.22352 10.024 5.22283 9.8879 5.22337 9.75189C5.2272 8.67247 6.00736 7.7874 7.12395 7.59525C8.3302 7.38781 9.54028 8.19718 9.73494 9.35011C9.76631 9.53767 9.77049 9.73028 9.77462 9.92089L9.77556 9.96369C9.77833 10.1071 9.77734 10.2506 9.77634 10.3941V10.3942C9.77514 10.5676 9.77394 10.741 9.77939 10.9143C9.78782 11.1785 9.68666 11.3634 9.41767 11.4536H5.58202ZM7.49487 6.70587C8.12175 6.71024 8.63138 6.23058 8.63598 5.63083V5.63156C8.64134 5.03544 8.13708 4.55287 7.50483 4.54778C6.87718 4.54268 6.36831 5.02234 6.36295 5.6221C6.35835 6.21748 6.86338 6.70078 7.49487 6.70587Z" fill="#F6F2ED"/>
</svg>
