<svg width="34" height="34" viewBox="0 0 34 34" fill="none" xmlns="http://www.w3.org/2000/svg">
<path d="M17 34C26.3888 34 34 26.3888 34 17C34 7.61116 26.3888 0 17 0C7.61116 0 0 7.61116 0 17C0 26.3888 7.61116 34 17 34Z" fill="#6F6259"/>
<g clip-path="url(#clip0_2592_7861)">
<path d="M23.2619 23.163C21.8292 25.3089 19.8497 26.8661 17.4189 27.9123C17.1272 28.0377 16.8296 28.0255 16.536 27.8964C12.772 26.2447 10.3521 23.4718 9.03863 19.7819C8.3351 17.8073 8.01093 15.771 8.00304 13.6887C8.00304 13.4286 7.99615 13.1694 8.00501 12.9092C8.02472 12.3421 8.24248 12.0585 8.80215 11.8592C10.5895 11.221 12.3769 10.5846 14.1643 9.94639C14.9821 9.65442 15.799 9.36244 16.6148 9.06766C16.8759 8.97408 17.1341 8.97969 17.3922 9.0714C20.0034 10.0025 22.6145 10.9356 25.2276 11.862C25.7055 12.0314 25.9774 12.343 25.9912 12.8231C26.0937 16.5103 25.3695 20.0065 23.2619 23.163Z" fill="#F1F1F1"/>
<path d="M14.5346 22.9401C14.1887 22.824 14.0607 22.5873 14.0695 22.2466C14.0823 21.7488 14.0715 21.25 14.0735 20.7521C14.0784 19.3643 15.0815 18.2263 16.5171 17.9793C18.068 17.7126 19.6238 18.7532 19.8741 20.2355C19.9175 20.4948 19.9204 20.7615 19.9263 21.0244C19.9342 21.4315 19.9184 21.8395 19.9312 22.2466C19.9421 22.5863 19.812 22.824 19.4662 22.9401H14.5346Z" fill="#6F6259"/>
<path d="M18.4611 15.4531C18.4552 16.2242 17.7999 16.8409 16.9939 16.8353C16.182 16.8288 15.5327 16.2074 15.5386 15.4419C15.5455 14.6708 16.1998 14.054 17.0068 14.0606C17.8197 14.0671 18.468 14.6876 18.4611 15.454V15.4531Z" fill="#6F6259"/>
</g>
<path d="M2.71512 17.0352V16.9042L2.05713 16.8982V17.0352C2.05713 17.2145 2.06046 17.3932 2.06712 17.5712L2.72513 17.5472C2.71846 17.3772 2.71512 17.2065 2.71512 17.0352ZM2.92212 19.4652L2.27412 19.5772C2.31212 19.7982 2.35612 20.0202 2.40312 20.2372L3.04613 20.0962C3.00113 19.8892 2.95912 19.6762 2.92212 19.4652ZM2.76112 18.1892L2.10512 18.2422C2.12312 18.4642 2.14612 18.6892 2.17412 18.9112L2.82712 18.8292C2.80112 18.6172 2.77912 18.4012 2.76112 18.1892ZM3.19812 20.7202L2.56212 20.8912C2.62012 21.1082 2.68413 21.3252 2.75113 21.5372L3.37813 21.3372C3.31513 21.1362 3.25412 20.9262 3.19812 20.7202ZM2.78513 15.6202L2.13013 15.5552C2.10813 15.7772 2.09112 16.0022 2.07912 16.2262L2.73611 16.2612C2.74711 16.0472 2.76413 15.8312 2.78513 15.6202ZM3.26912 13.0972L2.63712 12.9152C2.57512 13.1302 2.51813 13.3492 2.46613 13.5652L3.10612 13.7182C3.15412 13.5122 3.20912 13.3022 3.26912 13.0972ZM2.96912 14.3472L2.32312 14.2232C2.28112 14.4422 2.24312 14.6652 2.21112 14.8862L2.86212 14.9802C2.89312 14.7702 2.92912 14.5562 2.96912 14.3472ZM3.58713 21.9472L2.97012 22.1752C3.04712 22.3852 3.13013 22.5952 3.21613 22.7992L3.82312 22.5442C3.74112 22.3482 3.66113 22.1482 3.58713 21.9472ZM4.68712 24.2632L4.12012 24.5982C4.23412 24.7922 4.35413 24.9842 4.47513 25.1692L5.02612 24.8092C4.90912 24.6262 4.79712 24.4472 4.68712 24.2622V24.2632ZM8.70712 29.4432C8.89312 29.5672 9.08512 29.6892 9.27512 29.8042L9.61612 29.2412C9.43212 29.1298 9.25079 29.0145 9.07213 28.8952L8.70712 29.4432ZM7.62212 28.6432C7.79512 28.7822 7.97412 28.9212 8.15512 29.0542L8.54512 28.5242C8.37212 28.3972 8.20013 28.2642 8.03513 28.1312L7.62212 28.6432ZM10.1101 3.79716C9.91012 3.89716 9.71012 4.00816 9.52112 4.12016L9.85112 4.69017C10.0361 4.58317 10.2261 4.47916 10.4141 4.38116L10.1101 3.79716ZM6.61012 27.7532C6.77112 27.9082 6.93713 28.0622 7.10413 28.2092L7.54012 27.7162C7.37945 27.5742 7.22179 27.4285 7.06712 27.2792L6.61012 27.7532ZM9.85612 30.1372C10.0561 30.2442 10.2561 30.3482 10.4561 30.4462L10.7441 29.8542C10.5508 29.7602 10.3598 29.6602 10.1711 29.5542L9.85612 30.1372ZM3.67712 11.8752L3.06412 11.6362C2.98212 11.8462 2.90512 12.0592 2.83412 12.2702L3.45811 12.4812C3.52911 12.2812 3.60312 12.0782 3.68112 11.8772L3.67712 11.8752ZM6.18312 26.3452L5.68312 26.7762C5.82912 26.9452 5.98312 27.1132 6.13412 27.2762L6.61212 26.8242C6.47212 26.6692 6.32712 26.5092 6.18712 26.3472L6.18312 26.3452ZM4.08311 23.1272L3.48813 23.4092C3.58813 23.6092 3.68812 23.8092 3.78812 24.0092L4.36913 23.7002C4.27313 23.5132 4.17613 23.3202 4.08513 23.1262L4.08311 23.1272ZM5.38812 25.3362L4.85413 25.7202C4.98513 25.9022 5.12112 26.0822 5.25412 26.2572L5.77112 25.8492C5.64512 25.6842 5.51512 25.5122 5.39012 25.3382L5.38812 25.3362ZM30.4301 12.3702L31.0521 12.1542C30.9791 11.9442 30.9001 11.7322 30.8171 11.5232L30.2061 11.7672C30.2871 11.9692 30.3621 12.1712 30.4321 12.3722L30.4301 12.3702ZM29.9541 11.1772L30.5541 10.9052C30.4621 10.7052 30.3641 10.4982 30.2641 10.3002L29.6771 10.6002C29.7741 10.7902 29.8681 10.9852 29.9561 11.1792L29.9541 11.1772ZM29.3721 10.0322L29.9451 9.70816C29.8361 9.51616 29.7211 9.32116 29.6011 9.13016L29.0431 9.48016C29.1601 9.66616 29.2711 9.85116 29.3741 10.0352L29.3721 10.0322ZM28.6891 8.94417L29.2311 8.57016C29.1051 8.38816 28.9721 8.20517 28.8361 8.02617L28.3121 8.42616C28.4441 8.59816 28.5711 8.77217 28.6911 8.94617L28.6891 8.94417ZM31.1891 16.1442L31.8461 16.1042C31.8321 15.8802 31.8131 15.6552 31.7891 15.4332L31.1351 15.5032C31.1561 15.7142 31.1761 15.9262 31.1891 16.1442ZM27.9091 7.92616L28.4151 7.50516C28.2731 7.33416 28.1241 7.16417 27.9731 6.99817L27.4871 7.44116C27.6361 7.59716 27.7781 7.76116 27.9091 7.92616ZM31.0461 14.8682L31.6971 14.7682C31.6631 14.5462 31.6241 14.3242 31.5801 14.1052L30.9351 14.2342C30.9811 14.4412 31.0181 14.6542 31.0511 14.8662L31.0461 14.8682ZM30.7931 13.6072L31.4321 13.4492C31.3781 13.2312 31.3181 13.0132 31.2551 12.8002L30.6241 12.9882C30.6901 13.1882 30.7461 13.3962 30.7981 13.6052L30.7931 13.6072ZM26.5161 5.60716C26.3441 5.46316 26.1671 5.32216 25.9901 5.18716L25.5901 5.71016C25.7591 5.83916 25.9281 5.97417 26.0901 6.11017L26.5161 5.60716ZM5.54813 8.51816L5.02213 8.11816C4.88913 8.29516 4.75813 8.47917 4.63013 8.66617L5.17412 9.03716C5.30112 8.85515 5.42712 8.67917 5.55312 8.51117L5.54813 8.51816ZM6.36513 7.52316L5.87613 7.08316C5.72713 7.24816 5.57612 7.42017 5.43712 7.59317L5.94612 8.01117C6.08712 7.83817 6.22812 7.67416 6.37012 7.51616L6.36513 7.52316ZM27.5081 6.51517C27.3501 6.35717 27.1871 6.20116 27.0221 6.05016L26.5771 6.53516C26.7351 6.68049 26.8901 6.82883 27.0421 6.98016L27.5081 6.51517ZM7.26712 6.60516L6.81912 6.12216C6.65712 6.27216 6.49512 6.43016 6.33612 6.59116L6.80511 7.05316C6.96211 6.89316 7.11713 6.74217 7.27213 6.59917L7.26712 6.60516ZM4.82312 9.58017L4.26312 9.23416C4.14512 9.42516 4.03112 9.62017 3.92212 9.81517L4.49712 10.1352C4.60912 9.94316 4.71612 9.75616 4.82912 9.57416L4.82312 9.58017ZM8.24712 5.77316L7.84712 5.25217C7.67212 5.38717 7.49612 5.53016 7.32512 5.67616L7.75113 6.17616C7.91713 6.03216 8.08512 5.89617 8.25212 5.76717L8.24712 5.77316ZM4.19812 10.7062L3.60912 10.4122C3.50912 10.6122 3.40913 10.8122 3.32213 11.0222L3.92212 11.2892C4.01612 11.0862 4.10912 10.8902 4.20312 10.6992L4.19812 10.7062ZM9.29813 5.03217L8.94312 4.47716C8.75512 4.59716 8.56812 4.72316 8.38512 4.85216L8.76411 5.39017C8.94411 5.26117 9.12312 5.14017 9.30212 5.02617L9.29813 5.03217ZM23.2771 29.8142L23.5701 30.4042C23.7701 30.3042 23.9701 30.2042 24.1651 30.0922L23.8461 29.5162C23.6641 29.6122 23.4731 29.7122 23.2811 29.8072L23.2771 29.8142ZM27.3771 26.7572L27.8591 27.2062C28.0121 27.0422 28.1591 26.8732 28.3071 26.7062L27.8071 26.2792C27.6698 26.4365 27.5278 26.5935 27.3811 26.7502L27.3771 26.7572ZM24.5341 4.97516C24.7161 5.08983 24.8951 5.20849 25.0711 5.33116L25.4461 4.79016C25.2621 4.66216 25.0731 4.53716 24.8851 4.41916L24.5341 4.97516ZM11.3241 3.24016C11.1241 3.32316 10.9131 3.41416 10.7081 3.50916L10.9851 4.10916C11.1851 4.01916 11.3781 3.93216 11.5731 3.85316L11.3241 3.24016ZM24.4091 29.1852L24.7531 29.7462C24.9421 29.6302 25.1321 29.5072 25.3181 29.3812L24.9491 28.8362C24.7661 28.9572 24.5851 29.0742 24.4091 29.1852ZM21.0341 3.37517C21.2341 3.43617 21.4441 3.50316 21.6471 3.57516L21.8631 2.95316C21.6501 2.87916 21.4351 2.80917 21.2211 2.74617L21.0341 3.37517ZM22.1091 30.3262L22.3471 30.9402C22.5561 30.8592 22.7651 30.7722 22.9671 30.6832L22.7011 30.0832C22.5091 30.1652 22.3091 30.2482 22.1091 30.3262ZM23.4211 4.33217C23.6125 4.43017 23.8015 4.53217 23.9881 4.63817L24.3131 4.06517C24.1181 3.95517 23.9191 3.84717 23.7201 3.74617L23.4211 4.33217ZM22.2481 3.79916C22.4481 3.87816 22.6481 3.96317 22.8401 4.05217L23.1121 3.45216C22.9121 3.35916 22.6991 3.27016 22.4921 3.18716L22.2481 3.79916ZM25.4691 28.4642L25.8631 28.9922C26.0421 28.8592 26.2201 28.7192 26.3931 28.5782L25.9761 28.0682C25.8091 28.2032 25.6381 28.3362 25.4671 28.4642H25.4691ZM30.9111 19.9822L31.5551 20.1172C31.6021 19.8962 31.6431 19.6742 31.6791 19.4562L31.0291 19.3502C30.9931 19.5582 30.9531 19.7712 30.9091 19.9822H30.9111ZM31.1191 18.7132L31.7731 18.7892C31.7991 18.5652 31.8201 18.3402 31.8361 18.1202L31.1801 18.0722C31.1634 18.2875 31.1425 18.5012 31.1171 18.7132H31.1191ZM30.5891 21.2262L31.2181 21.4202C31.2841 21.2082 31.3451 20.9902 31.4011 20.7722L30.7641 20.6072C30.7091 20.8152 30.6491 21.0262 30.5871 21.2262H30.5891ZM31.8741 16.7752L31.2161 16.7872C31.2161 16.8698 31.2161 16.9525 31.2161 17.0352C31.2161 17.1685 31.2145 17.3018 31.2111 17.4352L31.8691 17.4532C31.8731 17.3158 31.8751 17.1782 31.8751 17.0402C31.8745 16.9502 31.8734 16.8618 31.8721 16.7752H31.8741ZM29.6101 23.6072L30.1941 23.9072C30.2941 23.7072 30.3941 23.5072 30.4941 23.3072L29.8941 23.0292C29.8031 23.2262 29.7091 23.4172 29.6091 23.6072H29.6101ZM28.9631 24.7202L29.5171 25.0762C29.6391 24.8862 29.7571 24.6932 29.8681 24.5012L29.2991 24.1712C29.1901 24.3542 29.0771 24.5392 28.9611 24.7202H28.9631ZM28.2191 25.7702L28.7391 26.1702C28.8771 25.9932 29.0121 25.8112 29.1391 25.6302L28.6021 25.2492C28.4735 25.4272 28.3448 25.6008 28.2161 25.7702H28.2191ZM30.1541 22.4392L30.7631 22.6892C30.8491 22.4812 30.9301 22.2692 31.0051 22.0602L30.3851 21.8382C30.3091 22.0382 30.2331 22.2402 30.1511 22.4392H30.1541ZM26.4651 27.6492L26.9041 28.1392C27.0701 27.9902 27.2351 27.8392 27.3951 27.6792L26.9341 27.2092C26.7795 27.3598 26.6221 27.5068 26.4621 27.6502L26.4651 27.6492ZM15.2241 2.22617C15.0031 2.25217 14.7781 2.28317 14.5581 2.31917L14.6641 2.96916C14.8751 2.93516 15.0891 2.90516 15.3011 2.88016L15.2241 2.22617ZM16.5661 2.12616C16.3401 2.13216 16.1141 2.14316 15.8941 2.15916L15.9411 2.81517C16.1544 2.79984 16.3688 2.78916 16.5841 2.78316L16.5661 2.12616ZM13.8961 2.43916C13.6771 2.48516 13.4561 2.53916 13.2411 2.59216L13.4061 3.22916C13.6121 3.17616 13.8221 3.12916 14.0321 3.08316L13.8961 2.43916ZM14.9531 31.8032C15.1761 31.8332 15.4011 31.8582 15.6211 31.8782L15.6801 31.2222C15.4654 31.2028 15.2525 31.1788 15.0411 31.1502L14.9531 31.8032ZM13.6291 31.5622C13.8461 31.6122 14.0671 31.6622 14.2881 31.6972L14.4061 31.0492C14.1951 31.0112 13.9831 30.9672 13.7761 30.9202L13.6291 31.5622ZM12.3291 31.2022C12.5431 31.2722 12.7601 31.3382 12.9731 31.3972L13.1491 30.7632C12.9491 30.7072 12.7381 30.6442 12.5331 30.5772L12.3291 31.2022ZM20.8851 30.7312L21.0661 31.3642C21.2781 31.3032 21.4951 31.2362 21.7091 31.1642L21.4991 30.5402C21.2981 30.6142 21.0911 30.6782 20.8891 30.7362L20.8851 30.7312ZM12.5901 2.77617C12.3771 2.84117 12.1621 2.91316 11.9511 2.98816L12.1731 3.60817C12.3731 3.53617 12.5801 3.46816 12.7831 3.40816L12.5901 2.77617ZM11.0721 30.7262C11.2721 30.8142 11.4861 30.8992 11.6971 30.9792L11.9301 30.3642C11.7301 30.2872 11.5301 30.2062 11.3301 30.1222L11.0721 30.7262ZM19.6381 31.0262L19.7611 31.6732C19.9781 31.6322 20.2001 31.5842 20.4191 31.5322L20.2671 30.8922C20.0571 30.9492 19.8451 30.9942 19.6381 31.0342V31.0262ZM19.7811 3.05716C19.9901 3.09916 20.2011 3.14717 20.4081 3.19817L20.5671 2.55916C20.3501 2.50516 20.1301 2.45916 19.9111 2.41116L19.7811 3.05716ZM18.5101 2.85716C18.7241 2.88016 18.9381 2.90816 19.1481 2.94116L19.2481 2.29117C19.0291 2.25717 18.8041 2.22816 18.5811 2.20416L18.5101 2.85716ZM17.2271 2.77617C17.4425 2.78017 17.6568 2.78884 17.8701 2.80217L17.9111 2.14516C17.6881 2.13116 17.4621 2.12216 17.2391 2.11816L17.2271 2.77617ZM18.3651 31.2052L18.4281 31.8602C18.6481 31.8392 18.8731 31.8122 19.0961 31.7792L19.0031 31.1282C18.7901 31.1712 18.5761 31.1962 18.3661 31.2172L18.3651 31.2052ZM17.0801 31.2732L17.0861 31.9312C17.3121 31.9312 17.5381 31.9222 17.7591 31.9102L17.7241 31.2532C17.5108 31.2725 17.2964 31.2832 17.0811 31.2852L17.0801 31.2732ZM16.2921 31.9162C16.5141 31.9262 16.7401 31.9312 16.9651 31.9312V31.2732C16.7511 31.2732 16.5341 31.2732 16.3221 31.2592L16.2921 31.9162Z" fill="#F1F1F1"/>
<defs>
<clipPath id="clip0_2592_7861">
<rect width="18" height="19" fill="white" transform="translate(8 9)"/>
</clipPath>
</defs>
</svg>
