<svg width="11" height="14" viewBox="0 0 11 14" fill="none" xmlns="http://www.w3.org/2000/svg">
<path d="M1.59799 0.00650859C1.44832 0.00616531 1.30005 0.0353922 1.16171 0.092511C1.02336 0.14963 0.897663 0.233515 0.791829 0.33935C0.685994 0.445185 0.602108 0.570884 0.54499 0.709229C0.487871 0.847575 0.458644 0.995841 0.458987 1.14551V12.861C0.459332 13.163 0.579445 13.4525 0.792975 13.666C1.00651 13.8795 1.29602 13.9997 1.59799 14H6.15401C6.28294 13.9975 6.40614 13.9463 6.49897 13.8568L10.4041 9.95165C10.4931 9.85635 10.542 9.73053 10.5408 9.60019V1.13901C10.5405 0.837028 10.4204 0.547518 10.2068 0.333987C9.99329 0.120457 9.70378 0.000344526 9.4018 0H1.59148L1.59799 0.00650859Z" fill="#F6F2ED"/>
<path fill-rule="evenodd" clip-rule="evenodd" d="M3.38869 3.09803C3.38809 3.03376 3.4003 2.97001 3.42461 2.91051C3.44893 2.85101 3.48486 2.79695 3.53031 2.7515C3.57576 2.70605 3.62982 2.67012 3.68932 2.6458C3.74882 2.62149 3.81257 2.60928 3.87684 2.60988H7.13114C7.2606 2.60988 7.38476 2.66131 7.47631 2.75286C7.56785 2.8444 7.61928 2.96857 7.61928 3.09803C7.61928 3.22749 7.56785 3.35166 7.47631 3.4432C7.38476 3.53475 7.2606 3.58617 7.13114 3.58617H3.87684C3.81271 3.58626 3.7492 3.57369 3.68993 3.54919C3.63067 3.52469 3.57682 3.48874 3.53148 3.44339C3.48613 3.39805 3.45018 3.3442 3.42568 3.28494C3.40118 3.22567 3.38861 3.16216 3.38869 3.09803Z" fill="#2F4F4F"/>
<path fill-rule="evenodd" clip-rule="evenodd" d="M2.41213 7.00318C2.41152 6.93891 2.42373 6.87516 2.44805 6.81566C2.47237 6.75616 2.5083 6.7021 2.55375 6.65665C2.5992 6.6112 2.65325 6.57527 2.71275 6.55095C2.77225 6.52664 2.836 6.51443 2.90028 6.51504H8.10716C8.23662 6.51504 8.36078 6.56647 8.45233 6.65801C8.54387 6.74956 8.5953 6.87372 8.5953 7.00318C8.5953 7.13265 8.54387 7.25681 8.45233 7.34835C8.36078 7.4399 8.23662 7.49133 8.10716 7.49133H2.90028C2.83615 7.49141 2.77263 7.47884 2.71337 7.45434C2.65411 7.42984 2.60026 7.39389 2.55491 7.34854C2.50957 7.3032 2.47362 7.24935 2.44911 7.19009C2.42461 7.13082 2.41205 7.06731 2.41213 7.00318Z" fill="#2F4F4F"/>
<path d="M6.80502 8.71298C6.65535 8.71264 6.50708 8.74186 6.36874 8.79898C6.23039 8.8561 6.10469 8.93999 5.99886 9.04582C5.89303 9.15166 5.80914 9.27736 5.75202 9.4157C5.6949 9.55405 5.66568 9.70231 5.66602 9.85198V13.1063C5.66632 13.2023 5.69487 13.296 5.74811 13.3759C5.80135 13.4558 5.87693 13.5182 5.96541 13.5554C6.05431 13.5916 6.15199 13.6004 6.24593 13.5806C6.33986 13.5609 6.42576 13.5136 6.49261 13.4447L10.3978 9.53957C10.4642 9.46981 10.5093 9.38249 10.5278 9.28793C10.5462 9.19336 10.5373 9.09549 10.5019 9.00587C10.4655 8.91503 10.4025 8.83728 10.3212 8.78272C10.24 8.72816 10.1442 8.69932 10.0463 8.69996H6.79201L6.80502 8.71298Z" fill="#2F4F4F"/>
</svg>
