<svg xmlns="http://www.w3.org/2000/svg" width="57" height="57" viewBox="0 0 57 57">
  <g id="inheritance" transform="translate(-29 -424)">
    <g id="coldcard" transform="translate(0 133)">
      <g id="icon_tapsigner" transform="translate(-304 51)">
        <g id="Group_39735" data-name="Group 39735" transform="translate(344 251)">
          <circle id="Ellipse_2013" data-name="Ellipse 2013" cx="15" cy="15" r="15" fill="#725436"/>
          <circle id="Ellipse_2018" data-name="Ellipse 2018" cx="10.5" cy="10.5" r="10.5" transform="translate(7 28) rotate(-90)" fill="#ebb67a" opacity="0.398"/>
        </g>
      </g>
    </g>
    <path id="inheritance-2" data-name="inheritance" d="M14.761,2H4.086A2.088,2.088,0,0,0,2,4.086V15.072a2.2,2.2,0,0,0,.534,1.418.567.567,0,0,0,.438.186.545.545,0,0,0,.431-.215l.95-1.262.928,1.21a1.093,1.093,0,0,0,.876.438,1.118,1.118,0,0,0,.883-.438l.913-1.21.928,1.21a1.128,1.128,0,0,0,1.752,0l.906-1.188.861,1.2a.566.566,0,0,0,.876.045,2.152,2.152,0,0,0,.52-1.4V9.98h.965c1.151,0,1.344-.935,1.344-2.086V4.079C16.1,2.928,15.911,2,14.761,2ZM4.286,11.71a.561.561,0,0,1,.557-.557h6.109a.557.557,0,1,1,0,1.113H4.843A.561.561,0,0,1,4.286,11.71Zm0-3.051A.556.556,0,0,1,4.843,8.1h6.109a.557.557,0,1,1,0,1.113H4.843A.561.561,0,0,1,4.286,8.659Zm6.666-2.465H4.843a.557.557,0,0,1,0-1.113h6.109a.557.557,0,1,1,0,1.113Zm4.21,1.7c0,.534.132.972-.4.972H13.8V3.113h.965c.534,0,.4.431.4.965Z" transform="translate(45.947 440.576)" fill="#fff"/>
  </g>
</svg>
