<svg width="38" height="38" viewBox="0 0 38 38" fill="none" xmlns="http://www.w3.org/2000/svg">
<circle cx="19" cy="19" r="19" fill="#F7F2EC"/>
<circle cx="18.9981" cy="19" r="16.0098" fill="#F7F2EC" stroke="#2D6759" stroke-width="3"/>
<circle cx="18.9992" cy="19" r="13.2843" fill="#F7F2EC" stroke="#2D6759" stroke-dasharray="1 1"/>
<g clip-path="url(#clip0_6556_11173)">
<path d="M17.0823 9H21.913C21.9578 9.02346 22.0054 9.04243 22.0549 9.05659C22.9856 9.2179 23.569 9.72307 23.8622 10.5112C23.9132 10.6527 23.9547 10.7843 24.0009 10.9216V12.1428C23.9762 12.2165 23.9576 12.2916 23.9451 12.3677C23.8096 14.1068 23.3267 15.7808 22.7577 17.4392C22.5091 18.1595 22.1123 18.7297 21.1831 18.8542V19.1372C21.1831 21.2117 21.1464 23.2875 21.1831 25.3634C21.199 26.1374 21.0604 26.8209 20.5456 27.4619C20.1695 27.9387 19.8746 28.4694 19.5224 29.0085C18.9885 28.2373 18.4737 27.51 17.9812 26.7699C17.8739 26.6058 17.8147 26.4205 17.8091 26.2308C17.7979 23.8932 17.8011 21.5612 17.8011 19.2193V18.8599C16.9325 18.741 16.4974 18.2472 16.2807 17.5482C16.1324 17.0727 15.9444 16.6086 15.8025 16.1331C15.2902 14.5595 15.019 12.9317 14.9961 11.2938C14.9961 10.2848 15.5523 9.51365 16.4974 9.17121C16.6903 9.10046 16.8895 9.05519 17.0823 9ZM20.4133 18.9137H18.598C18.5897 18.9605 18.5844 19.0078 18.5821 19.0552V26.1742C18.5732 26.2413 18.583 26.3094 18.6108 26.3723C18.8992 26.7968 19.1957 27.2213 19.5144 27.684C19.7774 27.285 20.0276 26.9355 20.2412 26.569C20.3395 26.4012 20.394 26.216 20.4006 26.027C20.4149 24.7535 20.4101 23.4899 20.4101 22.2206L20.4133 18.9137ZM18.2856 12.263V14.6813H20.7113V12.2602L18.2856 12.263ZM20.7225 15.5374H18.2856V16.3171H20.7225V15.5374Z" fill="#2D6759"/>
</g>
<defs>
<clipPath id="clip0_6556_11173">
<rect width="9" height="20" fill="white" transform="translate(15 9)"/>
</clipPath>
</defs>
</svg>
