<svg xmlns="http://www.w3.org/2000/svg" width="209.861" height="140.827" viewBox="0 0 209.861 140.827">
  <g id="illustration" transform="translate(-40.254 -494.663)">
    <g id="Group_39521" data-name="Group 39521" transform="translate(-19171.266 12409.672)" opacity="0.272">
      <circle id="Ellipse_1999" data-name="Ellipse 1999" cx="26.997" cy="26.997" r="26.997" transform="translate(19218.561 -11837.161)" fill="#2F4F4F"/>
      <path id="Path_25533" data-name="Path 25533" d="M2.313,4.625A2.313,2.313,0,1,0,0,2.313,2.313,2.313,0,0,0,2.313,4.625Z" transform="translate(19254.068 -11780.688) rotate(39)" fill="#888"/>
      <path id="Path_25534" data-name="Path 25534" d="M1.579,3.159A1.579,1.579,0,1,0,0,1.579,1.58,1.58,0,0,0,1.579,3.159Z" transform="translate(19262.025 -11783.97) rotate(39)" fill="#888"/>
      <path id="Path_25535" data-name="Path 25535" d="M15.217,6.125a2.933,2.933,0,1,0-2.933-2.933A2.933,2.933,0,0,0,15.217,6.125Z" transform="translate(19199.236 -11823.791)" fill="#888"/>
    </g>
    <g id="Group_39533" data-name="Group 39533" transform="matrix(0.799, -0.602, 0.602, 0.799, 212.644, 510.765)" opacity="0.272">
      <circle id="Ellipse_1999-2" data-name="Ellipse 1999" cx="13.378" cy="13.378" r="13.378" transform="translate(0)" fill="#2F4F4F"/>
      <path id="Path_25533-2" data-name="Path 25533" d="M1.146,0A1.146,1.146,0,1,1,0,1.146,1.146,1.146,0,0,1,1.146,0Z" transform="translate(10.603 29.767) rotate(141)" fill="#888"/>
      <path id="Path_25534-2" data-name="Path 25534" d="M.783,0A.783.783,0,1,1,0,.783.783.783,0,0,1,.783,0Z" transform="translate(6.202 27.576) rotate(141)" fill="#888"/>
      <path id="Path_25535-2" data-name="Path 25535" d="M13.737,3.166a1.454,1.454,0,1,1,1.454-1.454A1.454,1.454,0,0,1,13.737,3.166Z" transform="translate(15.054 6.495)" fill="#888"/>
    </g>
    <path id="Rectangle_8642" data-name="Rectangle 8642" d="M6,0H92a6,6,0,0,1,6,6V89a0,0,0,0,1,0,0H0a0,0,0,0,1,0,0V6A6,6,0,0,1,6,0Z" transform="translate(110 515)" fill="#2F4F4F"/>
    <g id="Group_45376" data-name="Group 45376" transform="translate(106.915 511.813)">
      <path id="Path_118724" data-name="Path 118724" d="M108.676,156.813h-1.608V71.374a6.029,6.029,0,0,0-6.025-6.02H11.688a6.027,6.027,0,0,0-6.02,6.02v85.439H4.06V71.374a7.637,7.637,0,0,1,7.628-7.628h89.354a7.639,7.639,0,0,1,7.634,7.628v85.439Z" transform="translate(-4.06 -63.746)" fill="#24312e"/>
    </g>
    <g id="Group_45406" data-name="Group 45406" transform="translate(-1 12)">
      <g id="Group_45405" data-name="Group 45405" transform="translate(117.942 484.578)">
        <path id="Path_118729" data-name="Path 118729" d="M76.726,39.112A19.556,19.556,0,1,1,96.282,19.556,19.578,19.578,0,0,1,76.726,39.112Z" transform="translate(-57.17)" fill="#f2ede6"/>
      </g>
      <g id="Group_45377" data-name="Group 45377" transform="translate(127.773 485.516)">
        <path id="Path_118725" data-name="Path 118725" d="M114.244,23.938a9.711,9.711,0,1,1,9.725-9.711A9.729,9.729,0,0,1,114.244,23.938Zm0-17.814a8.1,8.1,0,1,0,8.117,8.1A8.119,8.119,0,0,0,114.244,6.123Z" transform="translate(-104.519 -4.515)" fill="#24312e"/>
      </g>
      <g id="Group_45378" data-name="Group 45378" transform="translate(131.257 488.865)">
        <path id="Path_118726" data-name="Path 118726" d="M127.542,33.371a6.363,6.363,0,1,1,6.241-6.362A6.31,6.31,0,0,1,127.542,33.371Z" transform="translate(-121.301 -20.647)" fill="#89aea7"/>
      </g>
      <g id="Group_45379" data-name="Group 45379" transform="translate(120.467 503.33)">
        <path id="Path_118727" data-name="Path 118727" d="M86.361,110.675a19.608,19.608,0,0,1-16.922-9.761.806.806,0,0,1-.065-.661,14.354,14.354,0,0,1,13.444-9.937H89.91a14.341,14.341,0,0,1,13.44,9.938.806.806,0,0,1-.065.661A19.608,19.608,0,0,1,86.361,110.675ZM71.019,100.426a17.941,17.941,0,0,0,30.686,0,12.712,12.712,0,0,0-11.795-8.5H82.818A12.725,12.725,0,0,0,71.019,100.426Z" transform="translate(-69.331 -90.316)" fill="#24312e"/>
      </g>
      <g id="Group_45381" data-name="Group 45381" transform="translate(117.942 484.578)">
        <path id="Path_118729-2" data-name="Path 118729" d="M76.726,39.112A19.556,19.556,0,1,1,96.282,19.556,19.578,19.578,0,0,1,76.726,39.112Zm0-37.5A17.948,17.948,0,1,0,94.674,19.556,17.968,17.968,0,0,0,76.726,1.608Z" transform="translate(-57.17)" fill="#24312e"/>
      </g>
    </g>
    <g id="Group_45388" data-name="Group 45388" transform="translate(169.941 529.767)">
      <rect id="Rectangle_8629" data-name="Rectangle 8629" width="28.816" height="1.608" fill="#f2ede6"/>
    </g>
    <g id="Group_45389" data-name="Group 45389" transform="translate(169.941 541.726)">
      <rect id="Rectangle_8630" data-name="Rectangle 8630" width="28.816" height="1.608" fill="#f2ede6"/>
    </g>
    <g id="Group_45390" data-name="Group 45390" transform="translate(169.941 553.684)">
      <rect id="Rectangle_8631" data-name="Rectangle 8631" width="28.816" height="1.608" fill="#f2ede6"/>
    </g>
    <g id="Group_45391" data-name="Group 45391" transform="translate(119.435 565.106)">
      <rect id="Rectangle_8632" data-name="Rectangle 8632" width="79.323" height="1.608" fill="#f2ede6"/>
    </g>
    <g id="Group_45392" data-name="Group 45392" transform="translate(118.63 542.262)">
      <path id="Path_118736" data-name="Path 118736" d="M98.1,224.411H61.29a.8.8,0,0,1-.8-.8v-12.4a.8.8,0,0,1,.8-.8H98.1a.8.8,0,0,1,.8.8v12.4A.8.8,0,0,1,98.1,224.411ZM62.094,222.8H97.3V212.01H62.094Z" transform="translate(-60.486 -210.402)" fill="#24312e"/>
    </g>
    <g id="Group_45393" data-name="Group 45393" transform="translate(122.115 545.747)">
      <rect id="Rectangle_8633" data-name="Rectangle 8633" width="31.453" height="7.04" fill="#89aea7"/>
    </g>
    <g id="Group_45394" data-name="Group 45394" transform="translate(118.63 591.093)">
      <path id="Path_118737" data-name="Path 118737" d="M83.369,459.383H81.761V447.2H62.094v12.179H60.486V446.4a.8.8,0,0,1,.8-.8H82.565a.8.8,0,0,1,.8.8Z" transform="translate(-60.486 -445.596)" fill="#24312e"/>
    </g>
    <g id="Group_45395" data-name="Group 45395" transform="translate(122.115 594.578)">
      <rect id="Rectangle_8634" data-name="Rectangle 8634" width="15.914" height="10.302" fill="#89aea7"/>
    </g>
    <g id="Group_45396" data-name="Group 45396" transform="translate(119.435 597.879)">
      <rect id="Rectangle_8635" data-name="Rectangle 8635" width="21.274" height="1.608" fill="#24312e"/>
    </g>
    <g id="Group_45397" data-name="Group 45397" transform="translate(147.654 591.093)">
      <path id="Path_118738" data-name="Path 118738" d="M223.162,459.383h-1.608V447.2H201.887v12.179h-1.608V446.4a.8.8,0,0,1,.8-.8h21.275a.8.8,0,0,1,.8.8v12.983Z" transform="translate(-200.279 -445.596)" fill="#24312e"/>
    </g>
    <g id="Group_45398" data-name="Group 45398" transform="translate(151.139 594.578)">
      <rect id="Rectangle_8636" data-name="Rectangle 8636" width="15.914" height="10.302" fill="#89aea7"/>
    </g>
    <g id="Group_45399" data-name="Group 45399" transform="translate(148.459 597.879)">
      <rect id="Rectangle_8637" data-name="Rectangle 8637" width="21.274" height="1.608" fill="#24312e"/>
    </g>
    <g id="Group_45400" data-name="Group 45400" transform="translate(176.679 591.093)">
      <path id="Path_118739" data-name="Path 118739" d="M362.957,459.383h-1.608V447.2H341.682v12.179h-1.608V446.4a.8.8,0,0,1,.8-.8h21.274a.8.8,0,0,1,.8.8v12.983Z" transform="translate(-340.074 -445.596)" fill="#24312e"/>
    </g>
    <g id="Group_45401" data-name="Group 45401" transform="translate(180.163 594.578)">
      <rect id="Rectangle_8638" data-name="Rectangle 8638" width="15.914" height="10.302" fill="#89aea7"/>
    </g>
    <g id="Group_45402" data-name="Group 45402" transform="translate(177.483 597.879)">
      <rect id="Rectangle_8639" data-name="Rectangle 8639" width="21.274" height="1.608" fill="#24312e"/>
    </g>
    <g id="Group_45403" data-name="Group 45403" transform="translate(118.63 575.291)">
      <path id="Path_118740" data-name="Path 118740" d="M140.613,377.172H61.29a.8.8,0,0,1-.8-.8v-6.079a.8.8,0,0,1,.8-.8h79.323a.8.8,0,0,1,.8.8v6.079A.8.8,0,0,1,140.613,377.172Zm-78.519-1.608h77.715v-4.471H62.094Z" transform="translate(-60.486 -369.485)" fill="#f2ede6"/>
    </g>
  </g>
</svg>
