<svg xmlns="http://www.w3.org/2000/svg" width="254.325" height="180.041" viewBox="0 0 254.325 180.041">
  <g id="illustration" transform="translate(-68.67 -289.396)">
    <g id="background" transform="translate(19.063 66.397)">
      <circle id="Ellipse_1999" data-name="Ellipse 1999" cx="84.456" cy="84.456" r="84.456" transform="translate(78.203 222.999)" fill="#073b36" opacity="0.26"/>
      <path id="Path_25534" data-name="Path 25534" d="M121.575,19.49a4.941,4.941,0,1,0-4.941-4.941A4.941,4.941,0,0,0,121.575,19.49Z" transform="translate(148.393 291.936)" fill="#073b36" opacity="0.2"/>
      <g id="Group_41131" data-name="Group 41131" transform="translate(91.734 391.911)">
        <g id="Group_40642" data-name="Group 40642" transform="translate(4.801)">
          <g id="Group_40641" data-name="Group 40641">
            <rect id="Rectangle_7701" data-name="Rectangle 7701" width="1.527" height="2.964" fill="#508b82"/>
          </g>
        </g>
        <g id="Group_40644" data-name="Group 40644" transform="translate(4.801 8.165)">
          <g id="Group_40643" data-name="Group 40643" transform="translate(0 0)">
            <rect id="Rectangle_7702" data-name="Rectangle 7702" width="1.527" height="2.963" fill="#508b82"/>
          </g>
        </g>
        <g id="Group_40646" data-name="Group 40646" transform="translate(8.165 4.801)">
          <g id="Group_40645" data-name="Group 40645">
            <rect id="Rectangle_7703" data-name="Rectangle 7703" width="2.964" height="1.527" fill="#508b82"/>
          </g>
        </g>
        <g id="Group_40648" data-name="Group 40648" transform="translate(0 4.801)">
          <g id="Group_40647" data-name="Group 40647">
            <rect id="Rectangle_7704" data-name="Rectangle 7704" width="2.964" height="1.527" fill="#508b82"/>
          </g>
        </g>
      </g>
      <g id="Group_40650" data-name="Group 40650" transform="translate(51.937 259.154)">
        <g id="Group_40649" data-name="Group 40649">
          <circle id="Ellipse_2034" data-name="Ellipse 2034" cx="3.027" cy="3.027" r="3.027" fill="#508b82"/>
        </g>
      </g>
      <g id="Group_40652" data-name="Group 40652" transform="translate(63.326 305.04)">
        <g id="Group_40651" data-name="Group 40651">
          <circle id="Ellipse_2035" data-name="Ellipse 2035" cx="2.401" cy="2.401" r="2.401" fill="#508b82"/>
        </g>
      </g>
    </g>
    <g id="Group_54234" data-name="Group 54234" transform="translate(-2.005 -99.198)">
      <g id="ORDERED_RECORDS" data-name="ORDERED RECORDS" transform="translate(54.005 300.313)">
        <g id="Group_52284" data-name="Group 52284" transform="translate(28.463 124.348)">
          <g id="Group_52283" data-name="Group 52283">
            <g id="Group_52282" data-name="Group 52282">
              <path id="Path_205934" data-name="Path 205934" d="M101.662,150.551H63.913a10.148,10.148,0,0,0-10.136,10.136v81.446a1.087,1.087,0,0,0,1.442,1.027,15.562,15.562,0,0,1,3.388-.767,16.324,16.324,0,0,1,18.261,16.238c0,.456-.016.86-.048,1.244a15.961,15.961,0,0,1-.623,3.391,1.087,1.087,0,0,0,1.041,1.4h24.424a10.155,10.155,0,0,0,10.144-10.144V160.688A10.153,10.153,0,0,0,101.662,150.551Zm7.97,103.972a7.979,7.979,0,0,1-7.97,7.97H78.636a18.437,18.437,0,0,0,.351-2.445c.037-.436.055-.9.055-1.417A18.547,18.547,0,0,0,60.515,240.1a18.348,18.348,0,0,0-2.155.13,17.471,17.471,0,0,0-2.41.439V160.687a7.973,7.973,0,0,1,7.963-7.963h37.748a7.976,7.976,0,0,1,7.97,7.963Z" transform="translate(-53.777 -150.551)" fill="#f2ede6"/>
            </g>
          </g>
        </g>
        <g id="Group_52287" data-name="Group 52287" transform="translate(32.079 127.971)">
          <g id="Group_52286" data-name="Group 52286">
            <g id="Group_52285" data-name="Group 52285">
              <path id="Path_205935" data-name="Path 205935" d="M104.877,157.4H67.129a6.525,6.525,0,0,0-6.521,6.514v81.85l1.215-.145a16.324,16.324,0,0,1,18.261,16.238c0,.456-.016.86-.048,1.235l-.1,1.178h24.94a6.528,6.528,0,0,0,6.521-6.521V163.91A6.525,6.525,0,0,0,104.877,157.4Zm4.347,100.349a4.352,4.352,0,0,1-4.347,4.347H82.255c0-.078,0-.158,0-.239A18.547,18.547,0,0,0,63.73,243.326c-.313,0-.63.008-.949.025V163.91a4.349,4.349,0,0,1,4.348-4.34h37.748a4.349,4.349,0,0,1,4.347,4.34Z" transform="translate(-60.608 -157.396)" fill="#508b82"/>
            </g>
          </g>
        </g>
        <g id="Group_52290" data-name="Group 52290" transform="translate(107.25 124.348)">
          <g id="Group_52289" data-name="Group 52289">
            <g id="Group_52288" data-name="Group 52288">
              <path id="Path_205936" data-name="Path 205936" d="M259.58,169.15a16.332,16.332,0,0,1-16.184-14c0-.015,0-.031-.006-.047a16.327,16.327,0,0,1-.162-2.3c0-.364.013-.72.04-1.077a1.088,1.088,0,0,0-1.084-1.169H212.775a10.152,10.152,0,0,0-10.144,10.136v93.835a10.155,10.155,0,0,0,10.144,10.144h37.748a10.155,10.155,0,0,0,10.144-10.144V170.237A1.087,1.087,0,0,0,259.58,169.15Zm-1.087,85.373a7.979,7.979,0,0,1-7.97,7.97H212.775a7.979,7.979,0,0,1-7.97-7.97V160.688a7.976,7.976,0,0,1,7.97-7.963h28.279v.072a18.55,18.55,0,0,0,.178,2.571c0,.015,0,.031.005.046a18.5,18.5,0,0,0,17.255,15.879Z" transform="translate(-202.631 -150.551)" fill="#f2ede6"/>
            </g>
          </g>
        </g>
        <g id="Group_52293" data-name="Group 52293" transform="translate(110.873 127.971)">
          <g id="Group_52292" data-name="Group 52292">
            <g id="Group_52291" data-name="Group 52291">
              <path id="Path_205937" data-name="Path 205937" d="M259.4,172.019a16.376,16.376,0,0,1-12.791-13.688l-.132-.935H216a6.525,6.525,0,0,0-6.521,6.514v93.835A6.528,6.528,0,0,0,216,264.266h37.748a6.528,6.528,0,0,0,6.521-6.521V172.2Zm-1.311,85.727a4.352,4.352,0,0,1-4.347,4.347H216a4.352,4.352,0,0,1-4.348-4.347V163.91A4.349,4.349,0,0,1,216,159.57h28.62a18.568,18.568,0,0,0,13.476,14.372v83.8Z" transform="translate(-209.476 -157.396)" fill="#b2d0cb"/>
            </g>
          </g>
        </g>
        <g id="Group_52296" data-name="Group 52296" transform="translate(186.044 124.348)">
          <g id="Group_52295" data-name="Group 52295">
            <g id="Group_52294" data-name="Group 52294">
              <path id="Path_205938" data-name="Path 205938" d="M408.561,169.076a16.545,16.545,0,0,1-3.4-.713l-.065-.019a16.42,16.42,0,0,1-11.107-13.2c0-.016,0-.033-.006-.048a16.129,16.129,0,0,1-.163-2.3c0-.364.013-.72.04-1.077a1.088,1.088,0,0,0-1.084-1.169H361.643A10.152,10.152,0,0,0,351.5,160.686v93.835a10.155,10.155,0,0,0,10.144,10.144h37.748a10.155,10.155,0,0,0,10.144-10.144V170.156A1.086,1.086,0,0,0,408.561,169.076Zm-1.2,85.447a7.979,7.979,0,0,1-7.97,7.97H361.643a7.979,7.979,0,0,1-7.97-7.97V160.687a7.976,7.976,0,0,1,7.97-7.963h30v.072a18.279,18.279,0,0,0,.18,2.571c0,.015,0,.03.005.044a18.606,18.606,0,0,0,12.654,15.018c.021.006.042.013.063.017a18.538,18.538,0,0,0,2.813.663v83.412Z" transform="translate(-351.499 -150.55)" fill="#f2ede6"/>
            </g>
          </g>
        </g>
        <g id="Group_52299" data-name="Group 52299" transform="translate(189.667 127.971)">
          <g id="Group_52298" data-name="Group 52298">
            <g id="Group_52297" data-name="Group 52297">
              <path id="Path_205939" data-name="Path 205939" d="M409.128,171.826l-.754-.243a16.42,16.42,0,0,1-11.168-13.253l-.132-.935H364.866a6.525,6.525,0,0,0-6.521,6.514v93.835a6.528,6.528,0,0,0,6.521,6.521h37.748a6.528,6.528,0,0,0,6.521-6.521Zm-6.514,90.266H364.866a4.352,4.352,0,0,1-4.347-4.347V163.909a4.349,4.349,0,0,1,4.347-4.34h30.345a18.624,18.624,0,0,0,11.743,13.822l.007,84.354A4.352,4.352,0,0,1,402.614,262.092Z" transform="translate(-358.345 -157.395)" fill="#508b82"/>
            </g>
          </g>
        </g>
        <g id="Group_52302" data-name="Group 52302" transform="translate(40.18 156.858)">
          <g id="Group_52300" data-name="Group 52300">
            <path id="Path_205940" data-name="Path 205940" d="M89.419,211.972H77a1.087,1.087,0,0,0-1.087,1.087v6.768A1.087,1.087,0,0,0,77,220.913H89.419a1.087,1.087,0,0,0,1.087-1.087v-6.768A1.087,1.087,0,0,0,89.419,211.972Zm-1.087,6.767H78.087v-4.594H88.333v4.594Z" transform="translate(-75.914 -211.972)" fill="#508b82"/>
          </g>
        </g>
        <g id="Group_52304" data-name="Group 52304" transform="translate(40.18 169.088)">
          <g id="Group_52303" data-name="Group 52303">
            <path id="Path_205941" data-name="Path 205941" d="M89.419,235.08H77a1.087,1.087,0,0,0-1.087,1.087v6.767A1.087,1.087,0,0,0,77,244.02H89.419a1.087,1.087,0,0,0,1.087-1.087v-6.767A1.087,1.087,0,0,0,89.419,235.08Zm-1.087,6.767H78.087v-4.594H88.333v4.594Z" transform="translate(-75.914 -235.08)" fill="#b2d0cb"/>
          </g>
        </g>
        <g id="Group_52314" data-name="Group 52314" transform="translate(198.395 156.858)">
          <g id="Group_52313" data-name="Group 52313">
            <g id="Group_52312" data-name="Group 52312">
              <path id="Path_205944" data-name="Path 205944" d="M408.34,211.972H375.922a1.087,1.087,0,0,0-1.087,1.087v6.768a1.087,1.087,0,0,0,1.087,1.087H408.34a1.087,1.087,0,0,0,1.087-1.087v-6.768A1.087,1.087,0,0,0,408.34,211.972Zm-1.087,6.767H377.008v-4.594h30.246Z" transform="translate(-374.835 -211.972)" fill="#508b82"/>
            </g>
          </g>
        </g>
        <g id="Group_52317" data-name="Group 52317" transform="translate(198.395 169.088)">
          <g id="Group_52316" data-name="Group 52316" transform="translate(0 0)">
            <g id="Group_52315" data-name="Group 52315">
              <path id="Path_205945" data-name="Path 205945" d="M408.34,235.08H375.922a1.087,1.087,0,0,0-1.087,1.087v6.767a1.087,1.087,0,0,0,1.087,1.087H408.34a1.087,1.087,0,0,0,1.087-1.087v-6.767A1.087,1.087,0,0,0,408.34,235.08Zm-1.087,6.767H377.008v-4.594h30.246Z" transform="translate(-374.835 -235.08)" fill="#b2d0cb"/>
            </g>
          </g>
        </g>
        <g id="Group_52319" data-name="Group 52319" transform="translate(40.18 181.099)">
          <g id="Group_52318" data-name="Group 52318">
            <path id="Path_205946" data-name="Path 205946" d="M89.419,257.772H77a1.087,1.087,0,0,0-1.087,1.087v6.767A1.087,1.087,0,0,0,77,266.712H89.419a1.087,1.087,0,0,0,1.087-1.087v-6.767A1.087,1.087,0,0,0,89.419,257.772Zm-1.087,6.767H78.087v-4.594H88.333v4.594Z" transform="translate(-75.914 -257.772)" fill="#508b82"/>
          </g>
        </g>
        <g id="Group_52322" data-name="Group 52322" transform="translate(40.18 193.33)">
          <g id="Group_52321" data-name="Group 52321">
            <path id="Path_205947" data-name="Path 205947" d="M89.419,280.88H77a1.087,1.087,0,0,0-1.087,1.087v6.768A1.087,1.087,0,0,0,77,289.821H89.419a1.087,1.087,0,0,0,1.087-1.087v-6.768A1.087,1.087,0,0,0,89.419,280.88Zm-1.087,6.767H78.087v-4.594H88.333v4.594Z" transform="translate(-75.914 -280.88)" fill="#b2d0cb"/>
          </g>
        </g>
        <g id="Group_52332" data-name="Group 52332" transform="translate(198.395 181.099)">
          <g id="Group_52331" data-name="Group 52331">
            <g id="Group_52330" data-name="Group 52330">
              <path id="Path_205950" data-name="Path 205950" d="M408.34,257.772H375.922a1.087,1.087,0,0,0-1.087,1.087v6.767a1.087,1.087,0,0,0,1.087,1.087H408.34a1.087,1.087,0,0,0,1.087-1.087v-6.767A1.087,1.087,0,0,0,408.34,257.772Zm-1.087,6.767H377.008v-4.594h30.246Z" transform="translate(-374.835 -257.772)" fill="#508b82"/>
            </g>
          </g>
        </g>
        <g id="Group_52335" data-name="Group 52335" transform="translate(198.395 193.33)">
          <g id="Group_52334" data-name="Group 52334">
            <g id="Group_52333" data-name="Group 52333">
              <path id="Path_205951" data-name="Path 205951" d="M408.34,280.88H375.922a1.087,1.087,0,0,0-1.087,1.087v6.768a1.087,1.087,0,0,0,1.087,1.087H408.34a1.087,1.087,0,0,0,1.087-1.087v-6.768A1.087,1.087,0,0,0,408.34,280.88Zm-1.087,6.767H377.008v-4.594h30.246Z" transform="translate(-374.835 -280.88)" fill="#f2ede6"/>
            </g>
          </g>
        </g>
        <g id="Group_52338" data-name="Group 52338" transform="translate(57.975 107.411)">
          <g id="Group_52337" data-name="Group 52337">
            <g id="Group_52336" data-name="Group 52336">
              <path id="Path_205952" data-name="Path 205952" d="M123.072,126.941l1.3,1.738c.565-.424,1.145-.836,1.725-1.226l-1.213-1.8C124.279,126.06,123.668,126.494,123.072,126.941Zm7.654-4.569.907,1.975c.646-.3,1.3-.576,1.946-.833l-.8-2.021C132.1,121.764,131.407,122.06,130.726,122.373Zm-3.951,2.081,1.115,1.866c.6-.36,1.223-.708,1.845-1.036l-1.013-1.923C128.066,123.706,127.412,124.074,126.775,124.453Zm12.4-4.918.467,2.122c.68-.149,1.378-.284,2.077-.4l-.354-2.145C140.632,119.236,139.9,119.377,139.178,119.535Zm-4.3,1.191.691,2.061c.664-.223,1.345-.431,2.026-.62l-.582-2.094C136.3,120.271,135.577,120.491,134.877,120.726Zm-23.408,19.6,1.9,1.046c.34-.619.7-1.233,1.067-1.825l-1.847-1.146C112.2,139.021,111.827,139.669,111.468,140.323Zm-1.933,4.017,2.007.836c.268-.645.559-1.294.865-1.927l-1.958-.943C110.126,142.974,109.819,143.659,109.535,144.34Zm34.043-25.529.239,2.161c.689-.076,1.4-.136,2.107-.177l-.124-2.17C145.053,118.667,144.3,118.73,143.578,118.81Zm-27.021,14.205,1.642,1.425c.464-.535.945-1.06,1.428-1.561l-1.564-1.508C117.553,131.9,117.046,132.452,116.557,133.015Zm-2.739,3.518,1.783,1.244c.4-.579.826-1.151,1.254-1.7l-1.715-1.334C114.688,135.321,114.243,135.924,113.818,136.534Zm5.834-6.728,1.481,1.59c.519-.483,1.052-.955,1.586-1.4l-1.4-1.666C120.761,128.8,120.2,129.3,119.652,129.806Zm59.962,2.9-1.628,1.441c.463.523.921,1.069,1.359,1.621l1.7-1.351C180.587,133.833,180.1,133.257,179.615,132.7Zm2.775,3.494-1.772,1.26c.407.572.8,1.162,1.18,1.756l1.836-1.163C183.237,137.425,182.819,136.8,182.39,136.2Zm-5.9-6.674-1.466,1.6c.516.471,1.028.966,1.523,1.468l1.55-1.524C177.572,130.544,177.032,130.022,176.487,129.525Zm8.292,10.443-1.9,1.064c.344.613.676,1.242.987,1.872l1.949-.962C185.491,141.278,185.142,140.614,184.779,139.968Zm1.975,4-2,.857c.275.64.537,1.3.78,1.966l2.042-.747C187.321,145.346,187.044,144.648,186.754,143.971Zm-15-15.525c.562.414,1.124.851,1.668,1.3l1.38-1.68c-.574-.472-1.167-.933-1.76-1.369Zm-19.49-7.514c.7.071,1.408.162,2.1.269l.332-2.148c-.727-.112-1.471-.208-2.212-.283Zm4.177.649c.686.145,1.378.31,2.057.491l.561-2.1c-.716-.191-1.447-.365-2.17-.518Zm11.781,4.543c.6.353,1.208.727,1.8,1.114l1.194-1.815c-.62-.408-1.257-.8-1.895-1.176Zm-20.2-7.568.024,2.174h.216c.622,0,1.258.015,1.891.046l.1-2.171c-.683-.033-1.369-.067-2.037-.049Zm16.443,5.634c.635.284,1.276.593,1.9.916l.995-1.933c-.662-.34-1.339-.666-2.01-.966Zm-3.941-1.519c.662.215,1.332.453,1.99.707l.783-2.028c-.7-.268-1.4-.519-2.1-.746Z" transform="translate(-109.535 -118.551)" fill="#f2ede6"/>
            </g>
          </g>
        </g>
        <g id="Group_52341" data-name="Group 52341" transform="translate(51.552 133.931)">
          <g id="Group_52340" data-name="Group 52340">
            <g id="Group_52339" data-name="Group 52339">
              <path id="Path_205953" data-name="Path 205953" d="M102.692,168.655a5.293,5.293,0,1,0,5.293,5.293A5.3,5.3,0,0,0,102.692,168.655Zm0,8.413a3.12,3.12,0,1,1,3.12-3.12A3.123,3.123,0,0,1,102.692,177.068Z" transform="translate(-97.399 -168.655)" fill="#f2ede6"/>
            </g>
          </g>
        </g>
        <g id="Group_52344" data-name="Group 52344" transform="translate(131.027 133.931)">
          <g id="Group_52343" data-name="Group 52343">
            <g id="Group_52342" data-name="Group 52342">
              <path id="Path_205954" data-name="Path 205954" d="M252.846,168.655a5.293,5.293,0,1,0,5.293,5.293A5.3,5.3,0,0,0,252.846,168.655Zm0,8.413a3.12,3.12,0,1,1,3.12-3.12A3.123,3.123,0,0,1,252.846,177.068Z" transform="translate(-247.553 -168.655)" fill="#f2ede6"/>
            </g>
          </g>
        </g>
        <g id="Group_52347" data-name="Group 52347" transform="translate(136.907 229.965)">
          <g id="Group_52346" data-name="Group 52346">
            <g id="Group_52345" data-name="Group 52345">
              <path id="Path_205955" data-name="Path 205955" d="M295.911,378.43c.739.04,1.489.061,2.229.062l0-2.174c-.7,0-1.414-.021-2.116-.059Zm-17.079-4.663c.66.343,1.335.672,2,.975l.9-1.98c-.634-.287-1.273-.6-1.9-.924Zm12.645,4.186c.726.117,1.47.217,2.21.3l.232-2.161c-.7-.076-1.407-.17-2.1-.281Zm-16.485-6.448c.619.41,1.255.808,1.891,1.182l1.1-1.874c-.6-.355-1.2-.731-1.792-1.12Zm12.125,5.505c.71.194,1.439.372,2.168.529l.458-2.124c-.69-.149-1.381-.319-2.053-.5Zm-4.228-1.4c.685.269,1.391.523,2.1.756l.683-2.063c-.668-.221-1.338-.463-1.987-.717ZM262.37,353.993l-1.95.96c.327.664.676,1.33,1.038,1.976l1.9-1.063C263.011,355.253,262.68,354.622,262.37,353.993ZM260.7,350.1l-2.042.747c.257.7.534,1.4.825,2.077l2-.857C261.21,351.427,260.947,350.765,260.7,350.1Zm10.705,18.747c.567.47,1.158.933,1.756,1.376l1.295-1.746c-.567-.42-1.126-.858-1.665-1.3Zm-6.972-11.164-1.837,1.162c.4.629.815,1.252,1.242,1.854l1.773-1.258C265.211,358.872,264.815,358.28,264.438,357.684Zm3.69,8.147c.524.536,1.064,1.059,1.6,1.553l1.469-1.6c-.511-.468-1.022-.963-1.519-1.471Zm-1.243-4.7-1.7,1.35c.455.574.935,1.15,1.428,1.71l1.633-1.435C267.774,362.228,267.317,361.68,266.885,361.135Zm62.6.129,1.7,1.355c.459-.576.911-1.174,1.344-1.779l-1.767-1.265C330.354,360.15,329.925,360.718,329.489,361.264Zm-2.808,3.162,1.548,1.527c.517-.525,1.031-1.073,1.523-1.628l-1.624-1.443C327.659,363.409,327.172,363.928,326.68,364.426Zm-3.125,2.852,1.378,1.68c.577-.473,1.145-.964,1.687-1.459l-1.465-1.606C324.641,366.362,324.1,366.828,323.555,367.278Zm8.393-9.454,1.832,1.169c.4-.628.787-1.271,1.149-1.91l-1.892-1.07C332.7,356.619,332.329,357.228,331.949,357.824Zm3.825-7.727-.062.167,2.035.763.065-.176Zm-1.743,4.048,1.946.969c.331-.665.647-1.345.941-2.021l-2-.863C334.644,352.87,334.345,353.515,334.03,354.145ZM300.259,376.27l.107,2.171c.739-.037,1.487-.093,2.224-.169l-.222-2.162C301.67,376.181,300.96,376.235,300.259,376.27Zm4.207-.433.336,2.148c.736-.115,1.474-.251,2.194-.4l-.45-2.127C305.863,375.6,305.164,375.728,304.466,375.837Zm4.138-.875.562,2.1c.712-.19,1.432-.4,2.141-.635l-.672-2.067C309.962,374.579,309.279,374.781,308.6,374.962Zm11.542-5.178,1.193,1.817c.617-.4,1.233-.834,1.832-1.273l-1.286-1.752C321.316,368.994,320.73,369.4,320.146,369.784Zm-3.655,2.133.993,1.933c.653-.336,1.311-.7,1.956-1.072l-1.094-1.878C317.733,371.257,317.109,371.6,316.491,371.917Zm-3.862,1.733.783,2.028c.687-.265,1.38-.554,2.06-.859l-.889-1.984C313.937,373.124,313.28,373.4,312.629,373.65Z" transform="translate(-258.663 -350.097)" fill="#f2ede6"/>
            </g>
          </g>
        </g>
        <g id="Group_52350" data-name="Group 52350" transform="translate(211.209 221.061)">
          <g id="Group_52349" data-name="Group 52349">
            <g id="Group_52348" data-name="Group 52348">
              <path id="Path_205956" data-name="Path 205956" d="M404.361,333.273a5.317,5.317,0,1,0,5.317,5.317A5.323,5.323,0,0,0,404.361,333.273Zm0,8.461a3.143,3.143,0,1,1,3.143-3.142A3.147,3.147,0,0,1,404.361,341.734Z" transform="translate(-399.044 -333.273)" fill="#f2ede6"/>
            </g>
          </g>
        </g>
        <g id="Group_52353" data-name="Group 52353" transform="translate(131.281 221.06)">
          <g id="Group_52352" data-name="Group 52352">
            <g id="Group_52351" data-name="Group 52351">
              <path id="Path_205957" data-name="Path 205957" d="M253.35,333.272a5.317,5.317,0,1,0,5.318,5.317A5.323,5.323,0,0,0,253.35,333.272Zm0,8.461a3.143,3.143,0,1,1,3.145-3.143A3.147,3.147,0,0,1,253.35,341.733Z" transform="translate(-248.033 -333.272)" fill="#f2ede6"/>
            </g>
          </g>
        </g>
        <g id="Group_52355" data-name="Group 52355" transform="translate(91.597 100.954)">
          <g id="Group_52354" data-name="Group 52354" transform="translate(0 0)">
            <path id="Path_205958" data-name="Path 205958" d="M182.9,113.271l-8.451-6.919-1.377,1.683,7.439,6.089-7.451,6.282,1.4,1.661,8.451-7.124a1.087,1.087,0,0,0-.012-1.672Z" transform="translate(-173.058 -106.352)" fill="#f2ede6"/>
          </g>
        </g>
        <g id="Group_52357" data-name="Group 52357" transform="translate(171.796 249.422)">
          <g id="Group_52356" data-name="Group 52356">
            <path id="Path_205959" data-name="Path 205959" d="M334.432,393.982l-8.451-7.125-1.4,1.661,7.45,6.283-7.438,6.088,1.377,1.683,8.451-6.918a1.087,1.087,0,0,0,.012-1.672Z" transform="translate(-324.58 -386.857)" fill="#f2ede6"/>
          </g>
        </g>
        <g id="Group_52359" data-name="Group 52359" transform="translate(234.069 116.243)">
          <g id="Group_52358" data-name="Group 52358">
            <circle id="Ellipse_3289" data-name="Ellipse 3289" cx="10.352" cy="10.352" r="10.352" fill="#508b82"/>
          </g>
        </g>
        <g id="Group_52362" data-name="Group 52362" transform="translate(226.191 108.066)">
          <g id="Group_52361" data-name="Group 52361">
            <g id="Group_52360" data-name="Group 52360">
              <path id="Path_205960" data-name="Path 205960" d="M445.878,119.789a18.528,18.528,0,1,0,18.528,18.528A18.549,18.549,0,0,0,445.878,119.789Zm0,34.883a16.354,16.354,0,1,1,16.354-16.354A16.373,16.373,0,0,1,445.878,154.672Z" transform="translate(-427.35 -119.789)" fill="#b2d0cb"/>
            </g>
          </g>
        </g>
        <g id="Group_52364" data-name="Group 52364" transform="translate(239.128 121.482)">
          <g id="Group_52363" data-name="Group 52363">
            <path id="Path_205961" data-name="Path 205961" d="M463.1,145.136l-6.982,7.372-2.717-2.991-1.609,1.462,3.5,3.859a1.088,1.088,0,0,0,.793.356h.011a1.082,1.082,0,0,0,.789-.34l7.788-8.223Z" transform="translate(-451.793 -145.136)" fill="#f2ede6"/>
          </g>
        </g>
        <g id="Group_52366" data-name="Group 52366" transform="translate(153.549 116.243)">
          <g id="Group_52365" data-name="Group 52365">
            <circle id="Ellipse_3290" data-name="Ellipse 3290" cx="10.352" cy="10.352" r="10.352" fill="#508b82"/>
          </g>
        </g>
        <g id="Group_52369" data-name="Group 52369" transform="translate(145.67 108.066)">
          <g id="Group_52368" data-name="Group 52368">
            <g id="Group_52367" data-name="Group 52367">
              <path id="Path_205962" data-name="Path 205962" d="M293.748,119.789a18.528,18.528,0,1,0,18.528,18.528A18.549,18.549,0,0,0,293.748,119.789Zm0,34.883A16.354,16.354,0,1,1,310.1,138.317,16.373,16.373,0,0,1,293.748,154.672Z" transform="translate(-275.22 -119.789)" fill="#b2d0cb"/>
            </g>
          </g>
        </g>
        <g id="Group_52372" data-name="Group 52372" transform="translate(149.93 112.324)">
          <g id="Group_52371" data-name="Group 52371">
            <g id="Group_52370" data-name="Group 52370">
              <path id="Path_205963" data-name="Path 205963" d="M286.048,138.3l-2.063-.682a14.162,14.162,0,0,0-.551,2.285l2.148.331A12.1,12.1,0,0,1,286.048,138.3Zm1.852-3.514-1.732-1.315a14.417,14.417,0,0,0-1.262,1.983l1.923,1.012A12.054,12.054,0,0,1,287.9,134.79Zm-2.459,7.437-2.174.021a14.461,14.461,0,0,0,.214,2.338l2.141-.375A12.21,12.21,0,0,1,285.441,142.227Zm.687,3.909-2.049.725a14.231,14.231,0,0,0,.963,2.142l1.9-1.052A12.062,12.062,0,0,1,286.128,146.137Zm8.269-15.718-.563-2.1a14.321,14.321,0,0,0-2.212.794l.9,1.978A12.12,12.12,0,0,1,294.4,130.419Zm13.671,5.731,1.891-1.071a14.282,14.282,0,0,0-1.322-1.941l-1.689,1.367A12.227,12.227,0,0,1,308.068,136.15Zm1.36,3.728,2.137-.4a14.249,14.249,0,0,0-.621-2.267l-2.042.746A11.98,11.98,0,0,1,309.428,139.877Zm-18.643-7.812-1.214-1.8a14.308,14.308,0,0,0-1.834,1.468l1.493,1.579A12.093,12.093,0,0,1,290.786,132.065Zm-2.737,17.543-1.7,1.35a14.337,14.337,0,0,0,1.6,1.715l1.46-1.609A12.35,12.35,0,0,1,288.049,149.608Zm23.754-7.789-2.174.034,0,.25a12.216,12.216,0,0,1-.162,1.986l2.145.354a14.526,14.526,0,0,0,.19-2.348Zm-6.05,9.161,1.475,1.6a14.238,14.238,0,0,0,1.588-1.732l-1.718-1.332A12.228,12.228,0,0,1,305.752,150.981Zm-15.94,3.125a14.163,14.163,0,0,0,2.074,1.106l.86-2a12.129,12.129,0,0,1-1.757-.937Zm12.626-.94.88,1.988a14.274,14.274,0,0,0,2.061-1.127l-1.2-1.814A11.944,11.944,0,0,1,302.438,153.166Zm5.748-5.32,1.913,1.03a14.311,14.311,0,0,0,.941-2.153l-2.056-.7A12.211,12.211,0,0,1,308.186,147.846Zm-3.047-17.82-1.16,1.838a12.234,12.234,0,0,1,1.593,1.2l1.443-1.624A14.384,14.384,0,0,0,305.139,130.026Zm-4.323-1.813-.5,2.116a12.06,12.06,0,0,1,1.894.616l.841-2A14.315,14.315,0,0,0,300.816,128.213Zm-4.67-.312.21,2.164a12.169,12.169,0,0,1,1.992-.03l.147-2.168A14.1,14.1,0,0,0,296.146,127.9Zm-2.031,28.061a14.4,14.4,0,0,0,2.319.37l.166-2.168a12.048,12.048,0,0,1-1.967-.314Zm4.48-1.808.187,2.165a14.2,14.2,0,0,0,2.317-.394l-.542-2.106A12.022,12.022,0,0,1,298.6,154.154Z" transform="translate(-283.267 -127.834)" fill="#f2ede6"/>
            </g>
          </g>
        </g>
        <g id="Group_52375" data-name="Group 52375" transform="translate(230.45 112.321)">
          <g id="Group_52374" data-name="Group 52374">
            <g id="Group_52373" data-name="Group 52373">
              <path id="Path_205964" data-name="Path 205964" d="M438.179,138.3l-2.063-.682a14.16,14.16,0,0,0-.55,2.285l2.148.331A12.016,12.016,0,0,1,438.179,138.3Zm-.608,3.924-2.174.021a14.461,14.461,0,0,0,.214,2.338l2.141-.375A12.2,12.2,0,0,1,437.571,142.223Zm2.46-7.436-1.732-1.315a14.421,14.421,0,0,0-1.262,1.983l1.923,1.012A12.1,12.1,0,0,1,440.03,134.787Zm-1.773,11.346-2.049.725a14.216,14.216,0,0,0,.963,2.141l1.9-1.051A12.2,12.2,0,0,1,438.258,146.133Zm21.94-9.985,1.891-1.071a14.285,14.285,0,0,0-1.322-1.941l-1.689,1.367A12.143,12.143,0,0,1,460.2,136.148Zm1.36,3.727,2.137-.4a14.3,14.3,0,0,0-.62-2.266l-2.042.744A12.129,12.129,0,0,1,461.558,139.875Zm-18.641-7.814-1.214-1.8a14.359,14.359,0,0,0-1.834,1.468l1.493,1.579A12.142,12.142,0,0,1,442.917,132.061ZM440.178,149.6l-1.7,1.35a14.341,14.341,0,0,0,1.6,1.715l1.46-1.609A12.217,12.217,0,0,1,440.178,149.6Zm6.35-19.189-.563-2.1a14.319,14.319,0,0,0-2.212.794l.9,1.978A12.1,12.1,0,0,1,446.527,130.415Zm13.789,17.427,1.913,1.03a14.314,14.314,0,0,0,.941-2.153l-2.056-.7A12.266,12.266,0,0,1,460.316,147.842Zm-3.047-17.82-1.16,1.838a12.24,12.24,0,0,1,1.594,1.2l1.443-1.624A14.384,14.384,0,0,0,457.269,130.023ZM441.942,154.1a14.193,14.193,0,0,0,2.074,1.106l.861-2a12.131,12.131,0,0,1-1.757-.937Zm15.94-3.125,1.475,1.6a14.232,14.232,0,0,0,1.588-1.732l-1.718-1.332A12.187,12.187,0,0,1,457.882,150.977Zm6.05-9.161-2.174.035,0,.248a12.223,12.223,0,0,1-.162,1.986l2.145.354a14.519,14.519,0,0,0,.191-2.348Zm-9.365,11.346.88,1.988a14.272,14.272,0,0,0,2.061-1.127l-1.2-1.814A11.918,11.918,0,0,1,454.568,153.162Zm-8.322,2.8a14.411,14.411,0,0,0,2.319.37l.166-2.168a12.062,12.062,0,0,1-1.967-.314Zm6.7-27.749-.5,2.116a12.061,12.061,0,0,1,1.894.616l.841-2A14.315,14.315,0,0,0,452.947,128.21Zm-4.671-.313.211,2.164c.386-.038.775-.057,1.16-.057.273,0,.557.008.832.027l.147-2.168q-.476-.033-.957-.033A10.73,10.73,0,0,0,448.276,127.9Zm2.449,26.254.187,2.165a14.206,14.206,0,0,0,2.317-.394l-.542-2.106A12.021,12.021,0,0,1,450.725,154.151Z" transform="translate(-435.397 -127.827)" fill="#f2ede6"/>
            </g>
          </g>
        </g>
        <g id="Group_52377" data-name="Group 52377" transform="translate(158.608 121.482)">
          <g id="Group_52376" data-name="Group 52376">
            <path id="Path_205965" data-name="Path 205965" d="M310.971,145.136l-6.982,7.372-2.717-2.991-1.609,1.462,3.5,3.859a1.089,1.089,0,0,0,.793.356h.011a1.084,1.084,0,0,0,.789-.34l7.788-8.223Z" transform="translate(-299.663 -145.136)" fill="#f2ede6"/>
          </g>
        </g>
        <g id="Group_52379" data-name="Group 52379" transform="translate(24.549 222.08)">
          <g id="Group_52378" data-name="Group 52378">
            <circle id="Ellipse_3291" data-name="Ellipse 3291" cx="10.352" cy="10.352" r="10.352" fill="#508b82"/>
          </g>
        </g>
        <g id="Group_52382" data-name="Group 52382" transform="translate(16.67 213.903)">
          <g id="Group_52381" data-name="Group 52381">
            <g id="Group_52380" data-name="Group 52380">
              <path id="Path_205966" data-name="Path 205966" d="M50.023,319.75a18.528,18.528,0,1,0,18.528,18.528A18.549,18.549,0,0,0,50.023,319.75Zm0,34.883a16.354,16.354,0,1,1,16.354-16.354A16.373,16.373,0,0,1,50.023,354.633Z" transform="translate(-31.495 -319.75)" fill="#b2d0cb"/>
            </g>
          </g>
        </g>
        <g id="Group_52384" data-name="Group 52384" transform="translate(29.607 227.32)">
          <g id="Group_52383" data-name="Group 52383">
            <path id="Path_205967" data-name="Path 205967" d="M67.247,345.1l-6.982,7.373-2.717-2.992-1.609,1.462,3.5,3.859a1.089,1.089,0,0,0,.793.356h.011a1.082,1.082,0,0,0,.789-.34l7.788-8.224Z" transform="translate(-55.938 -345.098)" fill="#f2ede6"/>
          </g>
        </g>
        <g id="Group_52386" data-name="Group 52386" transform="translate(262.931 199.778)">
          <g id="Group_52385" data-name="Group 52385">
            <rect id="Rectangle_9767" data-name="Rectangle 9767" width="2.174" height="3.716" fill="#508a82"/>
          </g>
        </g>
        <g id="Group_52388" data-name="Group 52388" transform="translate(262.931 210.015)">
          <g id="Group_52387" data-name="Group 52387">
            <rect id="Rectangle_9768" data-name="Rectangle 9768" width="2.174" height="3.716" fill="#508a82"/>
          </g>
        </g>
        <g id="Group_52390" data-name="Group 52390" transform="translate(267.279 205.668)">
          <g id="Group_52389" data-name="Group 52389">
            <rect id="Rectangle_9769" data-name="Rectangle 9769" width="3.716" height="2.174" fill="#508a82"/>
          </g>
        </g>
        <g id="Group_52392" data-name="Group 52392" transform="translate(257.041 205.668)">
          <g id="Group_52391" data-name="Group 52391">
            <rect id="Rectangle_9770" data-name="Rectangle 9770" width="3.716" height="2.174" fill="#508a82"/>
          </g>
        </g>
        <g id="Group_52402" data-name="Group 52402" transform="translate(187.299 94.885)">
          <g id="Group_52401" data-name="Group 52401">
            <circle id="Ellipse_3292" data-name="Ellipse 3292" cx="3.455" cy="3.455" r="3.455" fill="#b2d0cb"/>
          </g>
        </g>
        <g id="Group_52406" data-name="Group 52406" transform="translate(229.104 255.079)">
          <g id="Group_52405" data-name="Group 52405">
            <circle id="Ellipse_3294" data-name="Ellipse 3294" cx="2.195" cy="2.195" r="2.195" fill="#508b82"/>
          </g>
        </g>
        <g id="Group_52409" data-name="Group 52409" transform="translate(20.632 218.162)">
          <g id="Group_52408" data-name="Group 52408">
            <g id="Group_52407" data-name="Group 52407">
              <path id="Path_205968" data-name="Path 205968" d="M41.761,338.266l-2.063-.682a14.16,14.16,0,0,0-.55,2.285l2.148.331A12.043,12.043,0,0,1,41.761,338.266Zm-.607,3.923-2.174.021a14.464,14.464,0,0,0,.214,2.338l2.141-.375A12.2,12.2,0,0,1,41.154,342.189Zm2.459-7.437-1.732-1.315a14.388,14.388,0,0,0-1.262,1.983l1.923,1.012A12.049,12.049,0,0,1,43.613,334.752ZM41.841,346.1l-2.049.725a14.268,14.268,0,0,0,.963,2.141l1.9-1.052A12.162,12.162,0,0,1,41.841,346.1ZM46.5,332.026l-1.214-1.8a14.359,14.359,0,0,0-1.834,1.468l1.493,1.579A12.107,12.107,0,0,1,46.5,332.026Zm17.282,4.085,1.891-1.071A14.291,14.291,0,0,0,64.35,333.1l-1.689,1.367A12.145,12.145,0,0,1,63.781,336.112ZM43.762,349.57l-1.7,1.35a14.3,14.3,0,0,0,1.6,1.715l1.46-1.609A12.256,12.256,0,0,1,43.762,349.57Zm21.379-9.731,2.137-.4a14.266,14.266,0,0,0-.62-2.267l-2.042.746A12,12,0,0,1,65.141,339.839ZM50.109,330.38l-.563-2.1a14.324,14.324,0,0,0-2.212.794l.9,1.979A12.124,12.124,0,0,1,50.109,330.38Zm4.2,23.736.187,2.165a14.212,14.212,0,0,0,2.317-.394l-.542-2.105A12.136,12.136,0,0,1,54.308,354.116Zm7.157-3.174,1.475,1.6a14.241,14.241,0,0,0,1.588-1.732l-1.718-1.332A12.194,12.194,0,0,1,61.465,350.943Zm2.434-3.135,1.913,1.03a14.311,14.311,0,0,0,.941-2.153l-2.056-.7A12.291,12.291,0,0,1,63.9,347.808Zm-3.048-17.82-1.16,1.838a12.235,12.235,0,0,1,1.593,1.2l1.443-1.624A14.383,14.383,0,0,0,60.852,329.988ZM45.525,354.067a14.163,14.163,0,0,0,2.074,1.106l.86-2a12.134,12.134,0,0,1-1.757-.937Zm21.99-12.286-2.174.034,0,.25a12.231,12.231,0,0,1-.162,1.986l2.145.354a14.52,14.52,0,0,0,.191-2.348ZM49.829,355.924a14.359,14.359,0,0,0,2.319.371l.166-2.168a12.065,12.065,0,0,1-1.967-.314Zm8.322-2.8.88,1.988a14.224,14.224,0,0,0,2.061-1.127l-1.2-1.814A12.01,12.01,0,0,1,58.151,353.128Zm-6.292-25.264.21,2.164A12,12,0,0,1,54.06,330l.147-2.169A14.107,14.107,0,0,0,51.859,327.864Zm4.67.312-.5,2.116a12.063,12.063,0,0,1,1.894.616l.841-2A14.251,14.251,0,0,0,56.529,328.175Z" transform="translate(-38.98 -327.796)" fill="#f2ede6"/>
            </g>
          </g>
        </g>
        <g id="Group_54229" data-name="Group 54229" transform="translate(60.179 156.858)">
          <g id="Group_52300-2" data-name="Group 52300">
            <path id="Path_205940-2" data-name="Path 205940" d="M89.419,211.972H77a1.087,1.087,0,0,0-1.087,1.087v6.768A1.087,1.087,0,0,0,77,220.913H89.419a1.087,1.087,0,0,0,1.087-1.087v-6.768A1.087,1.087,0,0,0,89.419,211.972Zm-1.087,6.767H78.087v-4.594H88.333v4.594Z" transform="translate(-75.914 -211.972)" fill="#b2d0cb"/>
          </g>
        </g>
        <g id="Group_54230" data-name="Group 54230" transform="translate(60.179 169.088)">
          <g id="Group_52303-2" data-name="Group 52303">
            <path id="Path_205941-2" data-name="Path 205941" d="M89.419,235.08H77a1.087,1.087,0,0,0-1.087,1.087v6.767A1.087,1.087,0,0,0,77,244.02H89.419a1.087,1.087,0,0,0,1.087-1.087v-6.767A1.087,1.087,0,0,0,89.419,235.08Zm-1.087,6.767H78.087v-4.594H88.333v4.594Z" transform="translate(-75.914 -235.08)" fill="#508b82"/>
          </g>
        </g>
        <g id="Group_54231" data-name="Group 54231" transform="translate(60.179 181.099)">
          <g id="Group_52318-2" data-name="Group 52318">
            <path id="Path_205946-2" data-name="Path 205946" d="M89.419,257.772H77a1.087,1.087,0,0,0-1.087,1.087v6.767A1.087,1.087,0,0,0,77,266.712H89.419a1.087,1.087,0,0,0,1.087-1.087v-6.767A1.087,1.087,0,0,0,89.419,257.772Zm-1.087,6.767H78.087v-4.594H88.333v4.594Z" transform="translate(-75.914 -257.772)" fill="#b2d0cb"/>
          </g>
        </g>
        <g id="Group_54232" data-name="Group 54232" transform="translate(60.179 193.33)">
          <g id="Group_52321-2" data-name="Group 52321">
            <path id="Path_205947-2" data-name="Path 205947" d="M89.419,280.88H77a1.087,1.087,0,0,0-1.087,1.087v6.768A1.087,1.087,0,0,0,77,289.821H89.419a1.087,1.087,0,0,0,1.087-1.087v-6.768A1.087,1.087,0,0,0,89.419,280.88Zm-1.087,6.767H78.087v-4.594H88.333v4.594Z" transform="translate(-75.914 -280.88)" fill="#508b82"/>
          </g>
        </g>
      </g>
      <g id="Group_54233" data-name="Group 54233" transform="translate(506.216 404.975) rotate(90)">
        <g id="Group_52091" data-name="Group 52091" transform="translate(56.575 304.046)">
          <g id="Group_52090" data-name="Group 52090">
            <g id="Group_52089" data-name="Group 52089">
              <path id="Path_205890" data-name="Path 205890" d="M42.035,81A10.864,10.864,0,1,0,52.9,91.868,10.876,10.876,0,0,0,42.035,81Zm0,19.6a8.738,8.738,0,1,1,8.738-8.739A8.748,8.748,0,0,1,42.035,100.606Z" transform="translate(-31.171 -81.004)" fill="#508b82"/>
            </g>
          </g>
        </g>
        <g id="Group_52094" data-name="Group 52094" transform="translate(60.714 311.305)">
          <g id="Group_52093" data-name="Group 52093" transform="translate(0 0)">
            <g id="Group_52092" data-name="Group 52092">
              <path id="Path_205891" data-name="Path 205891" d="M44.858,98.684a3.606,3.606,0,1,0,3.606,3.605A3.61,3.61,0,0,0,44.858,98.684Zm0,5.085a1.48,1.48,0,1,1,1.48-1.48A1.482,1.482,0,0,1,44.858,103.769Z" transform="translate(-41.252 -98.684)" fill="#4a555f"/>
            </g>
          </g>
        </g>
        <g id="Group_52097" data-name="Group 52097" transform="translate(60.714 311.305)">
          <g id="Group_52096" data-name="Group 52096" transform="translate(0 0)">
            <g id="Group_52095" data-name="Group 52095">
              <path id="Path_205892" data-name="Path 205892" d="M44.858,98.684a3.606,3.606,0,1,0,3.606,3.605A3.61,3.61,0,0,0,44.858,98.684Zm0,5.085a1.48,1.48,0,1,1,1.48-1.48A1.482,1.482,0,0,1,44.858,103.769Z" transform="translate(-41.252 -98.684)" fill="#508b82"/>
            </g>
          </g>
        </g>
        <g id="Group_52100" data-name="Group 52100" transform="translate(75.139 310.544)">
          <g id="Group_52099" data-name="Group 52099">
            <g id="Group_52098" data-name="Group 52098">
              <path id="Path_205893" data-name="Path 205893" d="M107.224,102.206l-4.1-4.988a1.062,1.062,0,0,0-.752-.386,1.083,1.083,0,0,0-.8.286L99.84,98.746H96.219L94.607,97.14a1.062,1.062,0,0,0-.75-.31H86.432a1.065,1.065,0,0,0-.878.464l-.811,1.189-.919-1.227a1.063,1.063,0,0,0-.851-.425H77.915a1.063,1.063,0,0,0-1,1.419,8.771,8.771,0,0,1,.509,2.947,8.615,8.615,0,0,1-.923,3.9,1.063,1.063,0,0,0,.95,1.54H106.4a1.063,1.063,0,0,0,1.063-1.063v-2.7A1.064,1.064,0,0,0,107.224,102.206Zm-1.884,2.31H79.032a10.771,10.771,0,0,0,.516-3.319,10.916,10.916,0,0,0-.232-2.24h3.125l1.491,1.991a1.042,1.042,0,0,0,.875.426,1.066,1.066,0,0,0,.855-.464l1.332-1.953h6.425l1.612,1.606a1.062,1.062,0,0,0,.75.31h4.48a1.063,1.063,0,0,0,.727-.288l1.215-1.14,3.138,3.817v1.254Z" transform="translate(-76.387 -96.83)" fill="#508b82"/>
            </g>
          </g>
        </g>
        <g id="Group_52128" data-name="Group 52128" transform="translate(53.032 300.503)">
          <g id="Group_52127" data-name="Group 52127">
            <g id="Group_52126" data-name="Group 52126">
              <path id="Path_205903" data-name="Path 205903" d="M71,76.754l-4.3,4.033h-.755l-1.923-1.916H48.986a14.405,14.405,0,1,0-12.037,22.316,14.213,14.213,0,0,0,11.257-5.419H79.271V86.815Zm6.145,16.889H47.14l-.319.434a12.113,12.113,0,0,1-9.873,4.984A12.281,12.281,0,1,1,47.485,80.479l.309.518H63.143l1.923,1.916h2.474L70.8,79.857l6.345,7.719v6.067Z" transform="translate(-22.542 -72.374)" fill="#b2d0cb"/>
            </g>
          </g>
        </g>
        <g id="Group_52133" data-name="Group 52133" transform="translate(77.24 314.386)">
          <g id="Group_52132" data-name="Group 52132" transform="translate(0 0)">
            <rect id="Rectangle_9737" data-name="Rectangle 9737" width="22.412" height="2.126" fill="#508b82"/>
          </g>
        </g>
      </g>
    </g>
  </g>
</svg>
