<svg xmlns="http://www.w3.org/2000/svg" width="10.581" height="19.686" viewBox="0 0 10.581 19.686">
  <path id="twentytwo" d="M184.663,270.926A5.238,5.238,0,1,0,189.5,278.2h9.4a.163.163,0,0,0,.163-.163v-3.744a.163.163,0,0,0-.163-.163h-9.4A5.238,5.238,0,0,0,184.663,270.926Zm.011,2.69a2.548,2.548,0,1,1-2.548,2.548A2.547,2.547,0,0,1,184.673,273.616Zm13.241,1.855a.693.693,0,1,1-.692.692A.692.692,0,0,1,197.914,275.471Z" transform="translate(281.477 -179.408) rotate(90)" fill="#24292f" stroke="#24292f" stroke-linecap="round" stroke-linejoin="round" stroke-width="0.058"/>
</svg>
