<svg width="288" height="250" viewBox="0 0 288 250" fill="none" xmlns="http://www.w3.org/2000/svg">
<path opacity="0.26" d="M153.746 234.547C218.515 234.547 271.02 182.042 271.02 117.274C271.02 52.5052 218.515 0 153.746 0C88.9779 0 36.4727 52.5052 36.4727 117.274C36.4727 182.042 88.9779 234.547 153.746 234.547Z" fill="#073B36"/>
<path d="M64.0538 234.548H61.9336V238.663H64.0538V234.548Z" fill="#508B82"/>
<path d="M64.046 245.885H61.9258V250H64.046V245.885Z" fill="#508B82"/>
<path d="M70.7164 241.214H66.6016V243.335H70.7164V241.214Z" fill="#508B82"/>
<path d="M59.3765 241.214H55.2617V243.335H59.3765V241.214Z" fill="#508B82"/>
<path d="M4.20327 58.6114C6.52467 58.6114 8.40654 56.7295 8.40654 54.4081C8.40654 52.0867 6.52467 50.2048 4.20327 50.2048C1.88187 50.2048 0 52.0867 0 54.4081C0 56.7295 1.88187 58.6114 4.20327 58.6114Z" fill="#508B82"/>
<path d="M283.737 137.866C285.794 137.866 287.462 136.198 287.462 134.141C287.462 132.084 285.794 130.416 283.737 130.416C281.679 130.416 280.012 132.084 280.012 134.141C280.012 136.198 281.679 137.866 283.737 137.866Z" fill="#508B82"/>
<path d="M137.308 191.221H99.6303C99.4434 191.221 99.2583 191.258 99.0856 191.329C98.913 191.401 98.7561 191.506 98.6239 191.638C98.4917 191.77 98.3869 191.927 98.3154 192.1C98.2439 192.272 98.2071 192.457 98.2071 192.644C98.198 198.148 100.271 203.451 104.009 207.491C107.747 211.53 112.874 214.006 118.362 214.423C118.397 214.423 118.433 214.423 118.469 214.423C118.505 214.423 118.541 214.423 118.576 214.423C124.064 214.006 129.191 211.53 132.929 207.49C136.667 203.451 138.739 198.148 138.73 192.644C138.73 192.267 138.581 191.905 138.314 191.638C138.047 191.371 137.686 191.221 137.308 191.221ZM130.326 206.088C127.143 209.259 122.942 211.203 118.465 211.577C113.957 211.21 109.73 209.243 106.546 206.032C103.362 202.821 101.43 198.577 101.1 194.067H135.836C135.503 198.605 133.55 202.872 130.332 206.088H130.326Z" fill="#508B82"/>
<path d="M105.402 197.611C106.162 199.857 107.427 201.898 109.101 203.576C110.132 204.602 111.302 205.478 112.575 206.181C114.377 207.18 116.403 207.704 118.463 207.704C120.523 207.704 122.549 207.18 124.351 206.181C127.736 204.326 130.299 201.265 131.528 197.605L105.402 197.611Z" fill="#508B82"/>
<path d="M246.722 88.2621C244.693 86.2322 242.283 84.623 239.63 83.5268C236.978 82.4307 234.135 81.8692 231.265 81.8745H156.154C155.787 81.8765 155.435 82.0201 155.171 82.2753C154.908 82.5305 154.753 82.8776 154.739 83.2442C154.725 83.6107 154.854 83.9685 155.097 84.2428C155.341 84.5171 155.681 84.6867 156.047 84.7163C160.82 85.1082 165.271 87.2803 168.517 90.8017C171.763 94.323 173.567 98.936 173.57 103.725C173.57 103.912 173.606 104.097 173.678 104.27C173.75 104.443 173.854 104.599 173.986 104.732C174.119 104.864 174.276 104.969 174.448 105.04C174.621 105.112 174.806 105.148 174.993 105.148H251.693C252.071 105.148 252.433 104.999 252.7 104.732C252.966 104.465 253.116 104.103 253.116 103.725C253.122 100.854 252.559 98.0093 251.462 95.3556C250.365 92.7019 248.754 90.2913 246.722 88.2621ZM176.372 102.302C176.036 97.0052 173.779 92.0128 170.024 88.2621C168.641 86.8861 167.084 85.6954 165.395 84.7198H231.266C236.063 84.7108 240.685 86.5196 244.201 89.7819C247.718 93.0443 249.868 97.518 250.219 102.302H176.372Z" fill="#B2D0CB"/>
<path d="M214.005 102.263H176.366C176.011 97.021 173.787 92.08 170.097 88.3385C166.408 84.597 161.499 82.3033 156.262 81.8743C156.191 81.8687 156.119 81.8687 156.047 81.8743C150.564 82.3206 145.448 84.8104 141.714 88.8502C137.98 92.8901 135.899 98.1852 135.885 103.687V192.649C135.89 195.189 135.383 197.703 134.394 200.043C133.04 203.254 130.827 206.03 127.999 208.066C125.171 210.102 121.837 211.32 118.362 211.586C117.993 211.611 117.65 211.779 117.403 212.054C117.156 212.329 117.026 212.689 117.04 213.058C117.054 213.427 117.211 213.776 117.477 214.031C117.744 214.286 118.1 214.428 118.469 214.426L193.583 214.492C195.487 214.495 197.382 214.246 199.22 213.751C199.567 213.657 199.866 213.435 200.056 213.129C200.246 212.824 200.313 212.458 200.244 212.105C199.258 207.008 200.156 201.727 202.77 197.242C205.384 192.757 209.537 189.373 214.457 187.719C214.741 187.625 214.987 187.444 215.161 187.201C215.336 186.959 215.429 186.668 215.429 186.369V103.687C215.429 103.5 215.392 103.314 215.321 103.142C215.249 102.969 215.144 102.812 215.012 102.68C214.88 102.548 214.723 102.443 214.55 102.371C214.377 102.3 214.192 102.263 214.005 102.263ZM212.582 185.367C207.475 187.328 203.181 190.955 200.393 195.661C197.605 200.366 196.487 205.876 197.221 211.296C196.021 211.53 194.801 211.647 193.578 211.645L127.761 211.587C131.906 209.217 135.156 205.549 137.009 201.148C138.147 198.458 138.73 195.566 138.724 192.645V103.689C138.738 98.9233 140.534 94.3352 143.758 90.8256C146.981 87.316 151.401 85.1385 156.148 84.7207C160.894 85.1409 165.311 87.3195 168.533 90.8288C171.755 94.3382 173.549 98.9249 173.563 103.689C173.563 103.876 173.6 104.061 173.672 104.233C173.743 104.405 173.848 104.562 173.98 104.694C174.112 104.826 174.269 104.931 174.442 105.002C174.614 105.073 174.799 105.11 174.986 105.11H212.573L212.582 185.367Z" fill="#B2D0CB"/>
<path d="M170.031 108.656L170.023 103.698C170.025 99.61 168.405 95.688 165.518 92.7934C163.004 90.2626 159.698 88.6701 156.152 88.2817C152.349 88.6949 148.832 90.4949 146.273 93.3375C143.713 96.1802 142.291 99.8663 142.277 103.691V125.004H209.04V108.656H170.033H170.031Z" fill="#508B82"/>
<path d="M85.3669 129.947H56.4037C56.0262 129.947 55.6642 130.097 55.3973 130.364C55.1304 130.631 54.9805 130.993 54.9805 131.371C54.9736 135.684 56.5978 139.84 59.5272 143.006C62.4566 146.171 66.4746 148.113 70.7753 148.44C70.8102 148.44 70.8463 148.44 70.8824 148.44C70.9185 148.44 70.9545 148.44 70.9894 148.44C75.2906 148.113 79.3092 146.172 82.239 143.006C85.1689 139.841 86.7934 135.684 86.7866 131.371C86.7866 130.994 86.6371 130.632 86.371 130.365C86.1049 130.099 85.7437 129.948 85.3669 129.947ZM79.773 141.468C77.3872 143.844 74.2407 145.304 70.8859 145.591C67.5652 145.314 64.4468 143.882 62.0734 141.543C59.7 139.204 58.222 136.107 57.8967 132.79H83.875C83.5526 136.072 82.1026 139.139 79.7719 141.471L79.773 141.468Z" fill="#508B82"/>
<path d="M62.5781 136.334C63.3879 137.894 64.5697 139.23 66.0189 140.225C67.4681 141.22 69.1401 141.842 70.8869 142.036C72.6339 141.843 74.3061 141.222 75.7552 140.227C77.2043 139.232 78.3853 137.895 79.1934 136.334H62.5781Z" fill="#508B82"/>
<path d="M169.7 43.2672C168.11 41.6767 166.221 40.4159 164.143 39.5572C162.064 38.6985 159.836 38.2588 157.587 38.2633H99.8491C99.4822 38.2653 99.1303 38.4089 98.8668 38.6641C98.6032 38.9192 98.4484 39.2663 98.4346 39.6329C98.4208 39.9995 98.5491 40.3573 98.7927 40.6316C99.0363 40.9059 99.3764 41.0755 99.742 41.1051C103.327 41.4012 106.67 43.0333 109.108 45.6779C111.546 48.3225 112.902 51.7865 112.907 55.3836C112.907 55.7611 113.057 56.1231 113.324 56.39C113.591 56.6569 113.953 56.8068 114.33 56.8068H173.289C173.666 56.8068 174.028 56.6569 174.295 56.39C174.562 56.1231 174.712 55.7611 174.712 55.3836C174.715 53.1335 174.275 50.9048 173.414 48.8255C172.554 46.7462 171.292 44.8573 169.7 43.2672ZM115.695 53.9639C115.365 49.9233 113.609 46.1317 110.74 43.2672C109.933 42.4641 109.05 41.7408 108.103 41.1074H157.587C161.13 41.1014 164.548 42.4149 167.175 44.792C169.802 47.169 171.45 50.4393 171.797 53.9651L115.695 53.9639Z" fill="#B2D0CB"/>
<path d="M144.316 53.9363H115.689C115.388 50.4179 114.012 47.0772 111.747 44.3678C109.482 41.6583 106.439 39.7113 103.029 38.7908C102.022 38.5147 100.991 38.337 99.9491 38.2602C99.8805 38.2552 99.8117 38.2552 99.7431 38.2602C98.2577 38.3719 96.7943 38.6851 95.3932 39.1912C95.1964 39.2621 95.0176 39.3756 94.8697 39.5235C94.7218 39.6714 94.6083 39.8502 94.5374 40.047C94.4665 40.2439 94.4399 40.4539 94.4595 40.6622C94.4791 40.8705 94.5444 41.0719 94.6508 41.2521C96.2142 43.9192 97.2008 46.8846 97.5471 49.9567C97.8934 53.0288 97.5916 56.1394 96.6611 59.0876C95.7306 62.0358 94.1922 64.7562 92.1452 67.073C90.0981 69.3898 87.588 71.2515 84.7768 72.538C84.5284 72.651 84.3178 72.8331 84.17 73.0626C84.0223 73.292 83.9437 73.5591 83.9436 73.832L83.9331 131.379C83.9379 133.282 83.5603 135.167 82.823 136.922C82.1037 138.618 81.0696 140.163 79.7753 141.474C77.3616 143.875 74.1718 145.338 70.7776 145.601C70.4122 145.63 70.0724 145.799 69.8287 146.073C69.5851 146.347 69.4565 146.704 69.4697 147.07C69.4829 147.437 69.6369 147.784 69.8996 148.039C70.1623 148.295 70.5135 148.439 70.88 148.442L128.619 148.499C131.992 148.502 135.29 147.51 138.101 145.646C138.297 145.516 138.458 145.34 138.569 145.133C138.68 144.926 138.738 144.695 138.739 144.46V103.708C138.737 101.217 139.226 98.7504 140.178 96.449C141.13 94.1475 142.526 92.0563 144.287 90.2948C144.597 89.9853 144.914 89.6955 145.248 89.4034C145.402 89.2699 145.525 89.1049 145.61 88.9196C145.694 88.7343 145.738 88.533 145.738 88.3293V55.3595C145.738 55.1727 145.702 54.9877 145.63 54.815C145.559 54.6423 145.454 54.4854 145.322 54.3533C145.19 54.2211 145.033 54.1162 144.861 54.0447C144.688 53.9732 144.503 53.9363 144.316 53.9363ZM142.893 87.6917C142.683 87.8837 142.476 88.0803 142.274 88.2828C140.249 90.3077 138.643 92.712 137.548 95.3581C136.453 98.0043 135.891 100.84 135.893 103.704V143.675C133.69 144.973 131.178 145.656 128.62 145.653L79.1888 145.604C81.9812 143.757 84.1594 141.12 85.4448 138.028C86.3299 135.923 86.7834 133.662 86.7784 131.378L86.7888 74.7257C92.6704 71.7664 97.1445 66.6032 99.2369 60.3605C101.329 54.1178 100.87 47.3012 97.9603 41.3952C98.5829 41.2523 99.2148 41.1539 99.8513 41.1008C100.674 41.1688 101.488 41.313 102.283 41.5314C105.186 42.3153 107.769 43.9905 109.669 46.3206C111.569 48.6508 112.69 51.5184 112.873 54.5193C112.889 54.794 112.898 55.0779 112.898 55.3526C112.898 55.73 113.047 56.092 113.314 56.3589C113.581 56.6258 113.943 56.7758 114.321 56.7758H142.891V87.687L142.893 87.6917Z" fill="#B2D0CB"/>
<path d="M108.782 219.211C102.857 220.241 96.7788 219.964 90.9724 218.399C85.166 216.833 79.7719 214.018 75.1679 210.149C70.5639 206.28 66.8612 201.451 64.3191 196.001C61.777 190.551 60.457 184.612 60.4514 178.598C60.4378 172.763 61.6725 166.993 64.0729 161.675L61.479 160.506C58.4627 167.219 57.1746 174.58 57.7322 181.918C58.2899 189.256 60.6755 196.338 64.6716 202.518C68.6677 208.698 74.1471 213.779 80.6103 217.298C87.0735 220.818 94.3149 222.663 101.674 222.667C104.22 222.667 106.76 222.449 109.268 222.015L108.782 219.211Z" fill="#B2D0CB"/>
<path d="M175.444 25.6013C169.431 25.5911 163.482 26.8191 157.965 29.2087L159.095 31.8212C165.368 29.1176 172.214 28.0142 179.019 28.6102C185.824 29.2061 192.374 31.4827 198.081 35.2355C203.789 38.9883 208.475 44.0999 211.719 50.1112C214.963 56.1225 216.664 62.8454 216.667 69.6762H219.513C219.501 57.9914 214.854 46.7885 206.593 38.5255C198.331 30.2625 187.128 25.6145 175.444 25.6013Z" fill="#B2D0CB"/>
<path d="M64.0487 160.456C63.9625 160.282 63.8414 160.127 63.6931 160.001C63.5447 159.876 63.3722 159.782 63.1861 159.726C63.0001 159.67 62.8045 159.652 62.6114 159.674C62.4183 159.697 62.2318 159.758 62.0635 159.855L48.3086 167.784L49.7295 170.248L62.1717 163.076L68.2962 175.421L70.8459 174.157L64.0487 160.456Z" fill="#B2D0CB"/>
<path d="M226.324 56.8325L218.024 67.7107L207.264 59.0191L205.477 61.2301L217.374 70.8411C217.627 71.0455 217.943 71.1572 218.268 71.1576C218.325 71.1576 218.381 71.1541 218.438 71.1471C218.627 71.1242 218.809 71.0639 218.974 70.9695C219.139 70.8752 219.283 70.7489 219.399 70.5979L228.592 58.5571L226.324 56.8325Z" fill="#B2D0CB"/>
<path d="M75.5825 27.4901C70.6478 27.4901 65.824 28.9534 61.7211 31.695C57.6181 34.4365 54.4202 38.3332 52.5319 42.8922C50.6435 47.4512 50.1495 52.4678 51.1123 57.3076C52.0751 62.1474 54.4514 66.593 57.9408 70.0822C61.4302 73.5714 65.8759 75.9476 70.7157 76.9101C75.5556 77.8727 80.5721 77.3784 85.1311 75.4899C89.69 73.6013 93.5865 70.4033 96.3279 66.3002C99.0692 62.1971 100.532 57.3732 100.532 52.4386C100.524 45.824 97.8933 39.4826 93.2159 34.8054C88.5386 30.1283 82.197 27.4975 75.5825 27.4901ZM75.5825 74.543C71.2106 74.543 66.937 73.2466 63.3019 70.8177C59.6669 68.3888 56.8337 64.9366 55.1607 60.8976C53.4876 56.8585 53.0499 52.4141 53.9028 48.1262C54.7557 43.8384 56.8609 39.8998 59.9523 36.8084C63.0436 33.7171 66.9823 31.6118 71.2701 30.7589C75.5579 29.906 80.0024 30.3438 84.0414 32.0168C88.0805 33.6898 91.5327 36.523 93.9616 40.158C96.3904 43.7931 97.6868 48.0667 97.6868 52.4386C97.6804 58.299 95.3495 63.9176 91.2055 68.0616C87.0615 72.2056 81.4429 74.5365 75.5825 74.543Z" fill="#508B82"/>
<path d="M60.6983 59.715L58.1382 60.9648C58.5889 61.8833 59.1111 62.765 59.6999 63.6018L62.0273 61.9644C61.5257 61.2508 61.0813 60.4987 60.6983 59.715ZM59.2809 49.5071L56.4799 49.0055C56.3002 50.0132 56.1998 51.0334 56.1797 52.0567L59.0249 52.1114C59.0409 51.2381 59.1254 50.3673 59.2774 49.5071H59.2809ZM60.9997 44.5823L58.4966 43.2301C58.0095 44.1321 57.5951 45.0714 57.2573 46.0393L59.9431 46.976C60.2303 46.1516 60.5825 45.3512 60.9962 44.5823H60.9997ZM59.1785 54.7274L56.3589 55.1149C56.4988 56.1296 56.719 57.1316 57.0175 58.1114L59.7394 57.2829C59.4837 56.4474 59.295 55.5929 59.175 54.7274H59.1785ZM90.6286 45.4621L93.2096 44.2623C92.7762 43.3345 92.2703 42.4423 91.6968 41.594L89.3392 43.1859C89.8271 43.9096 90.257 44.6707 90.6251 45.4621H90.6286ZM64.1708 40.4349L62.2111 38.374C61.4696 39.0797 60.7848 39.8428 60.163 40.656L62.4229 42.3841C62.9528 41.69 63.536 41.0383 64.1673 40.4349H64.1708ZM61.6572 65.9652C62.3699 66.6993 63.1392 67.3763 63.9578 67.9901L65.6638 65.7139C64.9645 65.1892 64.3074 64.6106 63.6983 63.9835L61.6572 65.9652ZM92.0483 50.4799L94.8737 50.1448C94.7532 49.1283 94.5528 48.1228 94.2744 47.1378L91.5362 47.914C91.7746 48.7545 91.945 49.6124 92.0483 50.4799ZM84.966 35.4345C84.0699 34.9396 83.136 34.5162 82.1731 34.1684L81.2085 36.8449C82.0308 37.1415 82.8285 37.5026 83.594 37.9248L84.966 35.4345ZM89.7872 39.1944C89.0886 38.4469 88.3326 37.7551 87.5261 37.1254L85.7806 39.369C86.4697 39.9076 87.116 40.499 87.7135 41.1378L89.7872 39.1944ZM87.248 64.2139L89.2507 66.2352C89.9771 65.5149 90.6464 64.739 91.2523 63.9148L88.9587 62.2309C88.4412 62.9368 87.8697 63.6013 87.2492 64.2185L87.248 64.2139ZM67.2325 34.9027C66.3091 35.3438 65.4219 35.8571 64.5792 36.4376L66.1945 38.7801C66.9136 38.2844 67.6708 37.8462 68.459 37.4698L67.2325 34.9027ZM90.3376 60.0106L92.8687 61.3104C93.3367 60.3993 93.732 59.4526 94.051 58.4792L91.3466 57.5948C91.0741 58.4253 90.7368 59.233 90.3376 60.0106ZM92.1623 52.4466C92.1622 53.321 92.0941 54.1941 91.9587 55.0579L94.769 55.5001C94.9278 54.49 95.0076 53.4691 95.0075 52.4466H92.1623ZM78.0374 68.8384L78.4563 71.6534C79.4686 71.5027 80.4674 71.2723 81.4435 70.9645L80.5882 68.2519C79.7548 68.5146 78.9018 68.7107 78.0374 68.8384ZM83.011 67.2686L84.2911 69.8112C85.2054 69.352 86.0821 68.8213 86.9129 68.224L85.2523 65.9082C84.542 66.4174 83.793 66.8703 83.0122 67.2628L83.011 67.2686ZM73.1056 33.1804C72.0898 33.3105 71.0858 33.521 70.1033 33.81L70.9051 36.54C71.743 36.294 72.599 36.1147 73.4652 36.0036L73.1056 33.1804ZM66.5505 69.6297C67.457 70.1069 68.3998 70.5116 69.3702 70.84L70.2814 68.1448C69.454 67.8646 68.6501 67.5194 67.8772 67.1126L66.5505 69.6297ZM79.2127 33.3608C78.207 33.1715 77.188 33.0614 76.165 33.0315L76.0812 35.8767C76.955 35.9023 77.8254 35.9964 78.6844 36.1583L79.2127 33.3608ZM72.3469 71.5882C73.3558 71.7571 74.3764 71.847 75.3993 71.857L75.4272 69.0118C74.5524 69.0023 73.6797 68.9245 72.817 68.779L72.3469 71.5882Z" fill="#B2D0CB"/>
<path d="M75.5856 62.8767C81.3499 62.8767 86.0228 58.2038 86.0228 52.4395C86.0228 46.6752 81.3499 42.0023 75.5856 42.0023C69.8213 42.0023 65.1484 46.6752 65.1484 52.4395C65.1484 58.2038 69.8213 62.8767 75.5856 62.8767Z" fill="#508B82"/>
<path d="M109.435 60.1458C109.435 60.1458 110.855 50.7118 104.995 46.2432C105.199 47.7638 105.302 49.2962 105.304 50.8305C105.31 55.8623 104.205 60.8333 102.066 65.3883H140.218V60.1458H109.435Z" fill="#508B82"/>
<path d="M220.875 221.571C228.36 221.571 234.427 215.504 234.427 208.02C234.427 200.536 228.36 194.469 220.875 194.469C213.391 194.469 207.324 200.536 207.324 208.02C207.324 215.504 213.391 221.571 220.875 221.571Z" fill="#508B82"/>
<path d="M221.26 183.766C216.463 183.766 211.773 185.189 207.784 187.854C203.795 190.519 200.686 194.308 198.85 198.74C197.014 203.172 196.534 208.049 197.47 212.755C198.406 217.46 200.716 221.782 204.109 225.174C207.501 228.566 211.823 230.876 216.529 231.812C221.234 232.748 226.111 232.268 230.543 230.432C234.975 228.595 238.764 225.486 241.429 221.497C244.094 217.508 245.516 212.818 245.516 208.021C245.509 201.59 242.951 195.425 238.403 190.878C233.856 186.331 227.691 183.773 221.26 183.766ZM221.26 229.432C217.025 229.432 212.885 228.176 209.364 225.823C205.843 223.47 203.099 220.126 201.478 216.214C199.857 212.301 199.433 207.996 200.259 203.843C201.086 199.689 203.125 195.874 206.119 192.879C209.114 189.885 212.929 187.845 217.083 187.019C221.236 186.193 225.541 186.617 229.454 188.238C233.367 189.858 236.711 192.603 239.063 196.124C241.416 199.645 242.672 203.785 242.672 208.02C242.666 213.697 240.408 219.139 236.394 223.154C232.38 227.168 226.937 229.426 221.26 229.432Z" fill="#508B82"/>
<path d="M204.498 208.021C204.497 207.222 204.554 206.423 204.666 205.632L201.849 205.231C201.718 206.156 201.652 207.089 201.652 208.023V208.286L204.498 208.254V208.021ZM209.209 196.368L207.164 194.39C206.453 195.125 205.8 195.914 205.212 196.751L207.539 198.388C208.042 197.673 208.598 196.998 209.205 196.369L209.209 196.368ZM206.205 200.642L203.645 199.389C203.194 200.308 202.816 201.261 202.513 202.239L205.233 203.077C205.493 202.241 205.818 201.427 206.206 200.642H206.205ZM207.536 222.027C208.267 222.743 209.052 223.401 209.884 223.995L211.537 221.678C210.825 221.17 210.153 220.607 209.528 219.994L207.536 222.027ZM204.736 210.856L201.932 211.334C202.104 212.343 202.355 213.337 202.683 214.307L205.378 213.395C205.098 212.568 204.884 211.72 204.736 210.859V210.856ZM206.41 215.8L203.89 217.125C204.365 218.029 204.91 218.896 205.519 219.716L207.801 218.017C207.282 217.316 206.817 216.576 206.412 215.804L206.41 215.8ZM213.379 193.218L212.039 190.708C211.137 191.19 210.274 191.741 209.458 192.358L211.174 194.628C211.871 194.103 212.608 193.632 213.379 193.221V193.218ZM237.746 204.955L240.544 204.44C240.359 203.433 240.094 202.443 239.753 201.478L237.071 202.426C237.362 203.251 237.587 204.098 237.746 204.958V204.955ZM236.008 200.036L238.509 198.678C238.02 197.78 237.463 196.921 236.842 196.109L234.583 197.838C235.114 198.534 235.591 199.27 236.008 200.039V200.036ZM234.798 193.829C234.058 193.123 233.264 192.475 232.424 191.892L230.803 194.231C231.522 194.73 232.201 195.284 232.835 195.888L234.798 193.829ZM240.864 207.483L238.02 207.564C238.02 207.714 238.02 207.866 238.02 208.018C238.02 208.893 237.953 209.767 237.818 210.631L240.63 211.071C240.786 210.061 240.864 209.04 240.863 208.018C240.872 207.842 240.87 207.664 240.864 207.487V207.483ZM233.156 219.833L235.174 221.838C235.893 221.112 236.554 220.332 237.152 219.503L234.848 217.835C234.336 218.544 233.771 219.213 233.156 219.836V219.833ZM228.944 222.922L230.251 225.451C231.16 224.981 232.03 224.442 232.854 223.837L231.171 221.543C230.466 222.061 229.721 222.524 228.944 222.926V222.922ZM236.22 215.599L238.756 216.887C239.22 215.974 239.611 215.027 239.926 214.053L237.217 213.177C236.948 214.011 236.614 214.822 236.219 215.604L236.22 215.599ZM226.917 189.236L226.103 191.961C226.941 192.213 227.758 192.53 228.546 192.909L229.784 190.349C228.859 189.905 227.9 189.533 226.917 189.239V189.236ZM214.85 189.481L215.781 192.17C216.607 191.885 217.454 191.664 218.315 191.512L217.818 188.71C216.81 188.889 215.817 189.148 214.85 189.485V189.481ZM223.988 224.562L224.446 227.37C225.456 227.205 226.452 226.961 227.425 226.639L226.53 223.938C225.699 224.214 224.848 224.424 223.984 224.565L223.988 224.562ZM212.511 225.572C213.427 226.029 214.378 226.414 215.355 226.723L216.21 224.009C215.376 223.746 214.565 223.418 213.783 223.027L212.511 225.572ZM221.263 224.782C220.426 224.782 219.59 224.72 218.762 224.597L218.342 227.411C219.309 227.555 220.286 227.627 221.264 227.627H221.404L221.372 224.782H221.263ZM220.866 188.413L220.92 191.258H221.262C222.023 191.258 222.784 191.309 223.539 191.41L223.921 188.591C223.039 188.472 222.151 188.412 221.262 188.412L220.866 188.413Z" fill="#B2D0CB"/>
<path d="M227.313 201.329L219.061 210.041L215.851 206.506L213.949 208.233L218.091 212.793C218.21 212.924 218.354 213.029 218.515 213.102C218.677 213.174 218.851 213.213 219.028 213.215H219.042C219.216 213.215 219.388 213.179 219.548 213.11C219.709 213.041 219.853 212.94 219.973 212.813L229.176 203.095L227.313 201.329Z" fill="#B2D0CB"/>
<path d="M198.436 117.729H154.922V120.574H198.436V117.729Z" fill="#B2D0CB"/>
<path d="M198.436 129.948H154.922V132.793H198.436V129.948Z" fill="#B2D0CB"/>
<path d="M198.436 142.166H154.922V145.012H198.436V142.166Z" fill="#B2D0CB"/>
<path d="M198.436 154.381H154.922V157.226H198.436V154.381Z" fill="#B2D0CB"/>
<path d="M198.436 166.599H154.922V169.445H198.436V166.599Z" fill="#B2D0CB"/>
<path d="M180.424 178.818H154.922V181.663H180.424V178.818Z" fill="#B2D0CB"/>
<path d="M132.021 77.9607H97.3438V80.8059H132.021V77.9607Z" fill="#B2D0CB"/>
<path d="M132.021 87.6976H97.3438V90.5429H132.021V87.6976Z" fill="#B2D0CB"/>
<path d="M132.021 97.4346H97.3438V100.28H132.021V97.4346Z" fill="#B2D0CB"/>
<path d="M132.021 107.171H97.3438V110.016H132.021V107.171Z" fill="#B2D0CB"/>
<path d="M132.021 116.908H97.3438V119.753H132.021V116.908Z" fill="#B2D0CB"/>
<path d="M117.668 126.643H97.3438V129.488H117.668V126.643Z" fill="#B2D0CB"/>
<path d="M80.1826 47.2957L73.5798 54.2674L71.0104 51.4384L69.4883 52.8197L72.8025 56.4691C72.8975 56.5738 73.0131 56.6577 73.1421 56.7158C73.271 56.7739 73.4105 56.8048 73.5519 56.8065H73.5624C73.7022 56.8073 73.8406 56.7796 73.9693 56.7249C74.098 56.6703 74.2141 56.59 74.3106 56.4888L81.6757 48.7119L80.1826 47.2957Z" fill="#B2D0CB"/>
<path d="M31.8641 75.6606H29.9766V80.4143H31.8641V75.6606Z" fill="#508B82"/>
<path d="M31.8641 88.7568H29.9766V93.5105H31.8641V88.7568Z" fill="#508B82"/>
<path d="M26.7459 83.6406H21.9922V85.5281H26.7459V83.6406Z" fill="#508B82"/>
<path d="M39.8396 83.6405H35.0859V85.528H39.8396V83.6405Z" fill="#508B82"/>
<path d="M262.189 151.876H260.102V157.136H262.189V151.876Z" fill="#508B82"/>
<path d="M262.189 166.368H260.102V171.628H262.189V166.368Z" fill="#508B82"/>
<path d="M256.529 160.708H251.27V162.796H256.529V160.708Z" fill="#508B82"/>
<path d="M271.022 160.708H265.762V162.796H271.022V160.708Z" fill="#508B82"/>
<path d="M35.4525 191.821C37.191 191.821 38.6003 190.412 38.6003 188.673C38.6003 186.935 37.191 185.525 35.4525 185.525C33.714 185.525 32.3047 186.935 32.3047 188.673C32.3047 190.412 33.714 191.821 35.4525 191.821Z" fill="#B2D0CB"/>
<path d="M251.272 62.3093C255.094 62.3093 258.193 59.2108 258.193 55.3888C258.193 51.5667 255.094 48.4683 251.272 48.4683C247.45 48.4683 244.352 51.5667 244.352 55.3888C244.352 59.2108 247.45 62.3093 251.272 62.3093Z" fill="#508B82"/>
</svg>
