<svg xmlns="http://www.w3.org/2000/svg" width="13.779" height="14.504" viewBox="0 0 13.779 14.504">
  <path id="inheritance" d="M14.466,2H4.038A2.04,2.04,0,0,0,2,4.038V14.771a2.149,2.149,0,0,0,.522,1.385.554.554,0,0,0,.428.181.532.532,0,0,0,.421-.21L4.3,14.894l.906,1.182a1.068,1.068,0,0,0,.856.428,1.092,1.092,0,0,0,.863-.428l.892-1.182.906,1.182a1.1,1.1,0,0,0,1.711,0l.885-1.16.841,1.175a.553.553,0,0,0,.856.044,2.1,2.1,0,0,0,.508-1.363V9.8h.943c1.124,0,1.313-.914,1.313-2.038V4.031C15.779,2.906,15.59,2,14.466,2ZM4.234,11.486a.548.548,0,0,1,.544-.544h5.968a.544.544,0,1,1,0,1.088H4.777A.548.548,0,0,1,4.234,11.486Zm0-2.981a.543.543,0,0,1,.544-.544h5.968a.544.544,0,1,1,0,1.088H4.777A.548.548,0,0,1,4.234,8.505ZM10.746,6.1H4.777a.544.544,0,0,1,0-1.088h5.968a.544.544,0,1,1,0,1.088Zm4.113,1.661c0,.522.129.95-.393.95h-.943V3.088h.943c.522,0,.393.421.393.943Z" transform="translate(-2 -2)" fill="#fff"/>
</svg>
