<svg xmlns="http://www.w3.org/2000/svg" width="143.973" height="116" viewBox="0 0 143.973 116">
  <g id="IK_illustration" data-name="IK illustration" transform="translate(-57 -461)">
    <g id="Group_39521" data-name="Group 39521" transform="translate(57 515.199)" opacity="0.272">
      <circle id="Ellipse_1999" data-name="Ellipse 1999" cx="26.491" cy="26.491" r="26.491" transform="translate(6.909 0)" fill="#2d6759"/>
      <path id="Path_25533" data-name="Path 25533" d="M2.269,4.539A2.269,2.269,0,1,0,0,2.269,2.27,2.27,0,0,0,2.269,4.539Z" transform="translate(41.752 55.417) rotate(39)" fill="#2d6759"/>
      <path id="Path_25534" data-name="Path 25534" d="M1.55,3.1A1.55,1.55,0,1,0,0,1.55,1.55,1.55,0,0,0,1.55,3.1Z" transform="translate(49.56 52.196) rotate(39)" fill="#2d6759"/>
      <path id="Path_25535" data-name="Path 25535" d="M15.162,6.015a2.878,2.878,0,1,0-2.878-2.878A2.878,2.878,0,0,0,15.162,6.015Z" transform="translate(-12.284 13.115)" fill="#2d6759"/>
    </g>
    <g id="Group_39533" data-name="Group 39533" transform="matrix(0.799, -0.602, 0.602, 0.799, 173.517, 478.396)" opacity="0.272">
      <circle id="Ellipse_1999-2" data-name="Ellipse 1999" cx="9.803" cy="9.803" r="9.803" transform="translate(0 0)" fill="#2d6759"/>
      <path id="Path_25533-2" data-name="Path 25533" d="M.84,0A.84.84,0,1,1,0,.84.84.84,0,0,1,.84,0Z" transform="translate(7.769 21.811) rotate(141)" fill="#2d6759"/>
      <path id="Path_25534-2" data-name="Path 25534" d="M.573,0A.573.573,0,1,1,0,.573.574.574,0,0,1,.573,0Z" transform="translate(4.545 20.205) rotate(141)" fill="#2d6759"/>
      <path id="Path_25535-2" data-name="Path 25535" d="M1.065,2.13A1.065,1.065,0,1,1,2.13,1.065,1.065,1.065,0,0,1,1.065,2.13Z" transform="translate(20.032 4.949)" fill="#2d6759"/>
    </g>
    <g id="Ellipse_2007" data-name="Ellipse 2007" transform="translate(86.133 461)" fill="#f7f2ec" stroke="#002c27" stroke-width="2">
      <circle cx="51.657" cy="51.657" r="51.657" stroke="none"/>
      <circle cx="51.657" cy="51.657" r="50.657" fill="none"/>
    </g>
    <g id="Group_39720" data-name="Group 39720" transform="translate(90.256 465.396)">
      <g id="Group_39719" data-name="Group 39719" transform="translate(0 0)">
        <path id="Path_27264" data-name="Path 27264" d="M490.284,1198.9a47.732,47.732,0,0,1-14.2,34.044,47.11,47.11,0,0,1-33.48,13.73,47.775,47.775,0,1,1,47.681-47.774Z" transform="translate(-394.923 -1151.13)" fill="#2d6759"/>
      </g>
    </g>
    <g id="Ellipse_2008" data-name="Ellipse 2008" transform="translate(93.826 468.694)" fill="#f7f2ec" stroke="#002c27" stroke-width="2">
      <circle cx="43.964" cy="43.964" r="43.964" stroke="none"/>
      <circle cx="43.964" cy="43.964" r="42.964" fill="none"/>
    </g>
    <g id="Rectangle_7600" data-name="Rectangle 7600" transform="translate(100.462 550.421) rotate(-90)" fill="none" stroke="#002c27" stroke-width="1.5" stroke-dasharray="1.5 1.5">
      <rect width="75.19" height="75.19" rx="37.595" stroke="none"/>
      <rect x="0.75" y="0.75" width="73.69" height="73.69" rx="36.845" fill="none"/>
    </g>
    <g id="Group_45728" data-name="Group 45728" transform="translate(130.989 499.412)">
      <g id="Group_45727" data-name="Group 45727" transform="translate(0 27.567) rotate(-90)">
        <path id="Path_118859" data-name="Path 118859" d="M2.626,5.185a2.559,2.559,0,0,1-1.8-.748h0A2.559,2.559,0,1,1,4.437.821,2.559,2.559,0,0,1,2.626,5.185Zm0-3.765a1.212,1.212,0,0,0-.855,2.061h0a1.239,1.239,0,0,0,1.711,0,1.212,1.212,0,0,0,0-1.711,1.232,1.232,0,0,0-.855-.37Z" transform="translate(19.363 3.977)" fill="#2d6759"/>
        <path id="Path_118860" data-name="Path 118860" d="M20.972,13.129a6.56,6.56,0,0,1-5.435-2.876H3.664a.673.673,0,0,1-.478-.2L.2,7.061a.675.675,0,0,1,0-.95l2.66-2.66a.673.673,0,0,1,.478-.2h2.02a.673.673,0,0,1,.478.2L7.348,4.966,8.87,3.451a.673.673,0,0,1,.95,0l1.522,1.515,1.522-1.515a.673.673,0,0,1,.471-.2h2.02A6.553,6.553,0,0,1,22.167.1a6.864,6.864,0,0,1,3.986,2.385,6.1,6.1,0,0,1,1.314,2.927,6.6,6.6,0,0,1-6.5,7.714Z" transform="translate(0 0)" fill="#2d6759"/>
      </g>
      <circle id="Ellipse_2515" data-name="Ellipse 2515" cx="2.673" cy="2.673" r="2.673" transform="translate(3.892 2.29)" fill="#f2ede6"/>
    </g>
  </g>
</svg>
