<svg xmlns="http://www.w3.org/2000/svg" width="14.899" height="23.556" viewBox="0 0 14.899 23.556">
  <g id="icon_IK" transform="translate(-29.54 -507.759)">
    <path id="Path_119876" data-name="Path 119876" d="M7.555,10.227a.774.774,0,0,1,1.115,0L11.044,12.6a.788.788,0,0,1,0,1.115L4.716,20.044a.832.832,0,0,1-.562.229H1.781a.788.788,0,0,1-.791-.791V17.109a.783.783,0,0,1,.229-.562l6.328-6.328ZM2.572,17.441v1.25h1.25l5.537-5.537L8.1,11.9,2.564,17.433Z" transform="translate(21.975 517.68) rotate(-45)" fill="#fdf7f0" fill-rule="evenodd"/>
    <path id="Path_119877" data-name="Path 119877" d="M16.232,2.615a2.369,2.369,0,0,0-3.465.111L9.3,6.665a2.356,2.356,0,0,0,.1,3.235l1.859,1.859a2.371,2.371,0,0,0,3.235.1l3.939-3.457a2.376,2.376,0,0,0,.111-3.465L16.193,2.584Zm-3.109,7.04L11.541,8.073l.682-.7,1.582,1.574-.69.69Zm-1.14-2.032,1.582,1.582L15.82,6.95,14.238,5.368,11.975,7.615Z" transform="translate(22.026 520.014) rotate(-45)" fill="#fdf7f0" fill-rule="evenodd"/>
  </g>
</svg>
