<svg xmlns="http://www.w3.org/2000/svg" xmlns:xlink="http://www.w3.org/1999/xlink" width="18" height="18.947" viewBox="0 0 18 18.947">
  <defs>
    <linearGradient id="linear-gradient" x1="0.5" x2="0.5" y2="1" gradientUnits="objectBoundingBox">
      <stop offset="0" stop-color="#00836a"/>
      <stop offset="1" stop-color="#073e39"/>
    </linearGradient>
  </defs>
  <path id="inheritance" d="M18.285,2H4.662A2.664,2.664,0,0,0,2,4.662V18.683a2.808,2.808,0,0,0,.682,1.809.724.724,0,0,0,.559.237.7.7,0,0,0,.549-.275L5,18.844l1.184,1.544a1.4,1.4,0,0,0,1.118.559,1.427,1.427,0,0,0,1.127-.559L9.6,18.844l1.184,1.544a1.439,1.439,0,0,0,2.236,0l1.156-1.516,1.1,1.535a.723.723,0,0,0,1.118.057,2.746,2.746,0,0,0,.663-1.781v-6.5h1.232c1.468,0,1.715-1.194,1.715-2.662V4.653C20,3.184,19.754,2,18.285,2ZM4.918,14.392a.716.716,0,0,1,.711-.711h7.8a.711.711,0,1,1,0,1.421h-7.8A.716.716,0,0,1,4.918,14.392Zm0-3.894a.71.71,0,0,1,.711-.711h7.8a.711.711,0,1,1,0,1.421h-7.8A.716.716,0,0,1,4.918,10.5Zm8.507-3.145h-7.8a.711.711,0,0,1,0-1.421h7.8a.711.711,0,1,1,0,1.421ZM18.8,9.522c0,.682.169,1.241-.513,1.241H17.054V3.421h1.232c.682,0,.513.549.513,1.232Z" transform="translate(-2 -2)" fill="url(#linear-gradient)"/>
</svg>
