<svg width="14" height="14" viewBox="0 0 14 14" fill="none" xmlns="http://www.w3.org/2000/svg">
<path d="M2.603 1.05684e-05C2.28207 -0.000935006 1.96411 0.0615801 1.66743 0.18396C1.37074 0.30634 1.10117 0.48617 0.874239 0.713106C0.647303 0.940042 0.467473 1.20961 0.345093 1.50629C0.222713 1.80298 0.160198 2.12093 0.161143 2.44187V11.5581C0.160715 11.8789 0.223583 12.1967 0.346146 12.4931C0.468709 12.7896 0.648559 13.0589 0.875391 13.2858C1.10222 13.5126 1.37158 13.6924 1.66804 13.815C1.96449 13.9376 2.28221 14.0004 2.603 14H9.11462C9.76219 13.9998 10.3832 13.7425 10.8411 13.2846C11.299 12.8267 11.5563 12.2057 11.5565 11.5581V2.44187C11.5569 2.12108 11.494 1.80336 11.3715 1.5069C11.2489 1.21045 11.0691 0.941091 10.8422 0.714259C10.6154 0.487426 10.346 0.307576 10.0496 0.185013C9.75314 0.06245 9.43541 -0.000418009 9.11462 1.05684e-05H2.603Z" fill="#FDF7F0"/>
<path d="M12.0382 8.15313C11.9301 8.04481 11.8017 7.95886 11.6604 7.90022C11.519 7.84159 11.3675 7.8114 11.2145 7.8114C11.0614 7.8114 10.9099 7.84159 10.7686 7.90022C10.6272 7.95886 10.4988 8.04481 10.3907 8.15313L9.43354 9.10383C9.38722 9.14858 9.35039 9.20221 9.32523 9.2615C9.30008 9.32079 9.28711 9.38454 9.28711 9.44895C9.28711 9.51335 9.30008 9.5771 9.32523 9.63639C9.35039 9.69568 9.38722 9.74931 9.43354 9.79406L10.8596 11.2201C10.9052 11.2646 10.9592 11.2996 11.0184 11.323C11.0777 11.3465 11.141 11.358 11.2047 11.3569C11.3337 11.3543 11.4569 11.3031 11.5498 11.2136L12.5005 10.2564C12.7172 10.037 12.8388 9.74105 12.8388 9.43267C12.8388 9.12429 12.7172 8.82833 12.5005 8.60895L12.0187 8.12709L12.0382 8.15313Z" fill="#FDF7F0" stroke="#2F4F4F"/>
<path fill-rule="evenodd" clip-rule="evenodd" d="M2.76662 3.74425C2.76601 3.67995 2.77823 3.61617 2.80256 3.55664C2.82689 3.49712 2.86284 3.44304 2.90831 3.39757C2.95378 3.35209 3.00786 3.31614 3.06739 3.29182C3.12691 3.26749 3.19069 3.25527 3.25499 3.25588H8.46429C8.59382 3.25588 8.71804 3.30733 8.80962 3.39892C8.90121 3.49051 8.95266 3.61473 8.95266 3.74425C8.95266 3.87378 8.90121 3.998 8.80962 4.08958C8.71804 4.18117 8.59382 4.23262 8.46429 4.23262H3.25499C3.19084 4.23271 3.12729 4.22014 3.068 4.19562C3.00871 4.17111 2.95484 4.13514 2.90947 4.08977C2.86411 4.04441 2.82814 3.99054 2.80362 3.93125C2.77911 3.87195 2.76654 3.80841 2.76662 3.74425Z" fill="#2F4F4F"/>
<path fill-rule="evenodd" clip-rule="evenodd" d="M2.76662 7.00011C2.76601 6.93581 2.77823 6.87203 2.80256 6.8125C2.82689 6.75298 2.86284 6.6989 2.90831 6.65342C2.95378 6.60795 3.00786 6.572 3.06739 6.54768C3.12691 6.52335 3.19069 6.51113 3.25499 6.51174H8.46429C8.59382 6.51174 8.71804 6.56319 8.80962 6.65478C8.90121 6.74637 8.95266 6.87059 8.95266 7.00011C8.95266 7.12964 8.90121 7.25386 8.80962 7.34544C8.71804 7.43703 8.59382 7.48848 8.46429 7.48848H3.25499C3.19084 7.48857 3.12729 7.476 3.068 7.45148C3.00871 7.42697 2.95484 7.391 2.90947 7.34563C2.86411 7.30027 2.82814 7.2464 2.80362 7.18711C2.77911 7.12781 2.76654 7.06427 2.76662 7.00011Z" fill="#2F4F4F"/>
<path fill-rule="evenodd" clip-rule="evenodd" d="M2.76662 10.256C2.76601 10.1917 2.77823 10.1279 2.80256 10.0684C2.82689 10.0088 2.86284 9.95476 2.90831 9.90928C2.95378 9.86381 3.00786 9.82786 3.06739 9.80353C3.12691 9.77921 3.19069 9.76699 3.25499 9.7676H5.85964C5.98917 9.7676 6.11339 9.81905 6.20497 9.91064C6.29656 10.0022 6.34802 10.1264 6.34802 10.256C6.34802 10.3855 6.29656 10.5097 6.20497 10.6013C6.11339 10.6929 5.98917 10.7443 5.85964 10.7443H3.25499C3.19084 10.7444 3.12729 10.7319 3.068 10.7073C3.00871 10.6828 2.95484 10.6469 2.90947 10.6015C2.86411 10.5561 2.82814 10.5023 2.80362 10.443C2.77911 10.3837 2.76654 10.3201 2.76662 10.256Z" fill="#2F4F4F"/>
<path d="M10.1301 9.10378C10.0846 9.05744 10.0304 9.02062 9.97062 8.99548C9.9108 8.97034 9.84657 8.9574 9.78168 8.9574C9.71679 8.9574 9.65256 8.97034 9.59274 8.99548C9.53292 9.02062 9.47872 9.05744 9.43331 9.10378L7.04354 11.487C6.96736 11.5602 6.91707 11.6562 6.90029 11.7605L6.65936 13.4275C6.64727 13.5018 6.6534 13.578 6.67721 13.6495C6.70103 13.7209 6.74183 13.7855 6.7961 13.8377C6.84978 13.8899 6.91455 13.9293 6.98558 13.953C7.05661 13.9767 7.13207 13.984 7.20633 13.9745L8.87331 13.7335C8.97711 13.7153 9.07268 13.6652 9.1468 13.5903L11.53 11.2005C11.619 11.1052 11.668 10.9793 11.6668 10.8489C11.6656 10.7177 11.6143 10.592 11.5235 10.4973L10.091 9.06471L10.1301 9.10378Z" fill="#2F4F4F"/>
</svg>
