<svg xmlns="http://www.w3.org/2000/svg" width="14.449" height="17.66" viewBox="0 0 14.449 17.66">
  <g id="Group_46498" data-name="Group 46498" transform="translate(11738 18799)">
    <path id="document_file" data-name="document file" d="M10.225,5.514V1.5H5.408A2.4,2.4,0,0,0,3,3.908V16.752A2.41,2.41,0,0,0,5.408,19.16h9.633a2.415,2.415,0,0,0,2.408-2.408V7.922H12.633A2.41,2.41,0,0,1,10.225,5.514Zm1.605,0V1.942c.056.04.112.08.169.128l4.6,3.941a3.093,3.093,0,0,1,.281.281H12.617a.8.8,0,0,1-.8-.8Z" transform="translate(-11741 -18800.5)" fill="#fdf7f0" fill-rule="evenodd"/>
    <path id="Rectangle_8883" data-name="Rectangle 8883" d="M1,0H9a1,1,0,0,1,1,1V5A2,2,0,0,1,8,7H2A2,2,0,0,1,0,5V1A1,1,0,0,1,1,0Z" transform="translate(-11735.775 -18790.67)" fill="#91785d"/>
  </g>
</svg>
