<svg width="15" height="12" viewBox="0 0 15 12" fill="none" xmlns="http://www.w3.org/2000/svg">
<path fill-rule="evenodd" clip-rule="evenodd" d="M9.61122 1.86829C9.86961 1.86873 10.1254 1.92006 10.3639 2.01934C10.6025 2.11862 10.8191 2.26392 11.0015 2.44694C11.1839 2.62995 11.3285 2.8471 11.427 3.08598C11.5254 3.32487 11.5759 3.58081 11.5755 3.83919C11.575 4.09758 11.5237 4.35335 11.4244 4.5919C11.3251 4.83044 11.1798 5.0471 10.9968 5.2295C10.8138 5.41189 10.5966 5.55646 10.3578 5.65493C10.1189 5.7534 9.86294 5.80386 9.60455 5.80343C9.47189 5.80343 9.34465 5.85613 9.25084 5.94994C9.15703 6.04375 9.10433 6.17099 9.10433 6.30365C9.10433 6.43632 9.15703 6.56356 9.25084 6.65737C9.34465 6.75118 9.47189 6.80388 9.60455 6.80388C10.3935 6.803 11.1498 6.48875 11.707 5.93026C12.2642 5.37177 12.5768 4.61479 12.5759 3.82585C12.575 3.03692 12.2608 2.28064 11.7023 1.7234C11.1438 1.16617 10.3868 0.85361 9.59789 0.854494C9.46522 0.854494 9.33798 0.907197 9.24417 1.00101C9.15036 1.09482 9.09766 1.22205 9.09766 1.35472C9.09766 1.48739 9.15036 1.61463 9.24417 1.70844C9.33798 1.80225 9.46522 1.85495 9.59789 1.85495L9.61122 1.86829Z" fill="#F9F4F0"/>
<path fill-rule="evenodd" clip-rule="evenodd" d="M9.61041 6.81035C10.6417 6.81035 11.6307 7.22002 12.36 7.94925C13.0892 8.67847 13.4989 9.66752 13.4989 10.6988C13.4989 10.8315 13.5516 10.9587 13.6454 11.0525C13.7392 11.1463 13.8664 11.199 13.9991 11.199C14.1318 11.199 14.259 11.1463 14.3528 11.0525C14.4466 10.9587 14.4993 10.8315 14.4993 10.6988C14.4995 10.0559 14.373 9.41917 14.127 8.82513C13.8811 8.2311 13.5205 7.69134 13.0658 7.23671C12.6112 6.78208 12.0714 6.42148 11.4774 6.17552C10.8834 5.92956 10.2467 5.80305 9.60374 5.80322C9.47108 5.80322 9.34384 5.85593 9.25003 5.94974C9.15622 6.04355 9.10352 6.17078 9.10352 6.30345C9.10352 6.43612 9.15622 6.56336 9.25003 6.65717C9.34384 6.75098 9.47108 6.80368 9.60374 6.80368L9.61041 6.81035Z" fill="#F9F4F0"/>
<path fill-rule="evenodd" clip-rule="evenodd" d="M10.3378 11.7866C10.4702 11.7857 10.597 11.7327 10.6906 11.6391C10.7842 11.5455 10.8372 11.4187 10.8381 11.2863C10.8381 9.91543 10.2935 8.60067 9.32409 7.63128C8.35471 6.6619 7.03994 6.11731 5.66903 6.11731C4.29812 6.11731 2.98336 6.6619 2.01397 7.63128C1.04459 8.60067 0.5 9.91543 0.5 11.2863C0.499913 11.3521 0.512792 11.4171 0.537899 11.4779C0.563007 11.5386 0.59985 11.5938 0.646318 11.6403C0.692786 11.6867 0.747966 11.7236 0.808696 11.7487C0.869426 11.7738 0.934514 11.7867 1.00023 11.7866H10.3378Z" fill="#F9F4F0"/>
<path d="M5.66944 0.867385C6.08148 1.28296 6.31184 1.84503 6.30997 2.43025C6.3081 3.01548 6.07414 3.57606 5.65944 3.98899C5.24474 4.40192 4.68317 4.63348 4.09794 4.63286C3.51272 4.63223 2.95164 4.39947 2.53782 3.98566C2.12401 3.57184 1.89125 3.01076 1.89063 2.42554C1.89 1.84031 2.12156 1.27874 2.53449 0.864039C2.94743 0.44934 3.50801 0.215386 4.09323 0.213512C4.67845 0.211639 5.24052 0.441998 5.6561 0.854045L5.66944 0.867385Z" fill="#F9F4F0"/>
</svg>
