<svg width="15" height="37" viewBox="0 0 15 37" fill="none" xmlns="http://www.w3.org/2000/svg">
<g clip-path="url(#clip0_2846_7473)">
<path d="M3.46925 0H11.5204C11.5951 0.0433956 11.6744 0.0784879 11.7568 0.104686C13.3081 0.403116 14.2803 1.33768 14.7691 2.79579C14.8541 3.05757 14.9231 3.301 15.0002 3.55493V5.81413C14.9591 5.95049 14.928 6.08955 14.9072 6.23032C14.6814 9.44759 13.8766 12.5445 12.9283 15.6125C12.5139 16.945 11.8525 18 10.3039 18.2303V18.7539C10.3039 22.5916 10.2428 26.4319 10.3039 30.2722C10.3304 31.7042 10.0993 32.9686 9.24135 34.1544C8.61447 35.0366 8.12305 36.0183 7.53601 37.0157C6.64616 35.589 5.78819 34.2434 4.9674 32.8743C4.78847 32.5708 4.68982 32.2279 4.68052 31.877C4.66192 27.5524 4.66724 23.2382 4.66724 18.9058V18.2408C3.21957 18.0209 2.4944 17.1073 2.13315 15.8141C1.88611 14.9345 1.57267 14.0759 1.33626 13.1963C0.482432 10.285 0.0303434 7.27367 -0.0078125 4.24345C-0.0078125 2.37695 0.919232 0.950252 2.4944 0.316744C2.81581 0.185854 3.14784 0.102094 3.46925 0ZM9.02087 18.3403H5.99538C5.98158 18.427 5.97271 18.5144 5.96881 18.602V31.7722C5.95399 31.8964 5.97041 32.0223 6.01662 32.1387C6.49741 32.9241 6.99148 33.7094 7.52274 34.5654C7.96102 33.8272 8.37806 33.1806 8.734 32.5026C8.89787 32.1923 8.98867 31.8496 8.99963 31.5C9.02353 29.1439 9.01556 26.8063 9.01556 24.4581L9.02087 18.3403ZM5.47474 6.0366V10.5104H9.5176V6.03136L5.47474 6.0366ZM9.53619 12.0942H5.47474V13.5366H9.53619V12.0942Z" fill="#F1F1F1"/>
</g>
<defs>
<clipPath id="clip0_2846_7473">
<rect width="15" height="37" fill="white"/>
</clipPath>
</defs>
</svg>
