<svg width="231" height="71" viewBox="0 0 231 71" fill="none" xmlns="http://www.w3.org/2000/svg">
<g clip-path="url(#clip0_425_3583)">
<path d="M0 29.4514H0.655161C5.64094 29.4514 10.6202 29.5102 15.606 29.4514C16.3887 29.4092 17.1716 29.5328 17.9029 29.814C18.6343 30.0952 19.2976 30.5277 19.8491 31.0829C20.4007 31.6381 20.8279 32.3034 21.1027 33.0351C21.3775 33.7668 21.4936 34.5483 21.4434 35.3279C21.3517 37.0125 21.4434 38.6971 21.4434 40.3817C21.4521 41.7908 20.8997 43.1459 19.9073 44.1496C18.9149 45.1533 17.5636 45.7237 16.1497 45.7358C10.9084 45.775 5.66712 45.7358 0.425831 45.7358C0.294799 45.7358 0.170342 45.7358 0 45.7358V29.4514Z" fill="#2F4F4F"/>
<path d="M75.4081 23.1244V62.5883C75.4029 64.5644 74.613 66.458 73.211 67.8553C71.809 69.2525 69.9089 70.0398 67.9262 70.045H40.4815C39.9442 70.045 38.8239 70.045 37.9656 70.045H31.1585C25.9697 70.045 20.7808 70.045 15.5919 70.045C13.9791 70.064 12.3786 69.7641 10.8828 69.163C9.38695 68.5618 8.02554 67.6712 6.87718 66.5425C5.72882 65.4138 4.81629 64.0695 4.19235 62.5872C3.56842 61.105 3.24543 59.5141 3.24208 57.9067C3.20277 55.7651 3.24208 53.63 3.24208 51.4883C3.24208 51.2337 3.24209 50.979 3.28795 50.6395H4.179C7.50067 50.6395 10.8289 50.6395 14.1505 50.6395C14.4454 50.6395 23.1524 50.5024 25.7207 48.1518C26.6872 47.3229 27.4717 46.3042 28.0252 45.1593C28.5787 44.0145 28.8893 42.7681 28.9375 41.4982C29.0729 38.7612 29.0511 36.0188 28.872 33.2842C28.6565 30.9316 27.5733 28.7421 25.8319 27.1392C24.0905 25.5364 21.8146 24.634 19.4443 24.6066C14.4192 24.5478 9.39407 24.6066 4.37554 24.6066H3.30106C3.30106 24.2867 3.24864 24.0385 3.24864 23.7904C3.24864 21.6227 3.24864 19.4549 3.24864 17.2937C3.26755 14.0976 4.54992 11.0377 6.81764 8.77768C9.08535 6.51764 12.1556 5.23961 15.3626 5.22076C31.3267 5.19464 47.2952 5.19464 63.268 5.22076C66.4754 5.2224 69.5521 6.48758 71.8274 8.74053C74.1027 10.9935 75.3922 14.0515 75.4147 17.2479C75.4147 19.161 75.4081 21.146 75.4081 23.1244Z" fill="#2F4F4F"/>
<path opacity="0.4" d="M57.5012 46.7896C56.8307 45.9913 55.9007 45.4484 54.8703 45.2536C55.5824 44.9177 56.162 44.3581 56.519 43.662C56.8759 42.9659 56.99 42.1726 56.8435 41.4056C56.8001 40.8016 56.6115 40.2166 56.2934 39.6993C55.984 39.2149 55.5562 38.8153 55.0497 38.5373C54.5151 38.2388 53.9423 38.0127 53.3468 37.8652C52.6538 37.698 51.9484 37.5856 51.2373 37.5292V33.7734H48.9173V37.425C48.5155 37.425 47.9024 37.4353 47.078 37.4558V33.7734H44.7581V37.5315C44.4264 37.541 43.9393 37.5457 43.2967 37.5457L40.1014 37.5315V39.9762H41.7756C42.0891 39.9351 42.4064 40.0187 42.6579 40.2085C42.9093 40.3983 43.0745 40.679 43.1173 40.9891V45.2678C43.1973 45.2664 43.2773 45.2711 43.3565 45.282H43.1173V51.286C43.1126 51.3934 43.0859 51.4986 43.039 51.5955C42.9921 51.6924 42.9259 51.7789 42.8444 51.8499C42.7629 51.9208 42.6677 51.9747 42.5646 52.0084C42.4615 52.042 42.3526 52.0547 42.2444 52.0457H40.5702L40.0918 54.7743H43.1054H43.9329H44.7461V58.5751H47.0661V54.8359C47.4886 54.8453 48.1017 54.8501 48.9053 54.8501V58.5916H51.2253V54.7814C51.9603 54.7516 52.6927 54.6773 53.4185 54.559C54.0452 54.4528 54.6586 54.2806 55.2482 54.0454C55.7829 53.8405 56.2774 53.545 56.7096 53.1722C57.1199 52.7985 57.4502 52.347 57.6806 51.8445C57.9468 51.2546 58.1086 50.6238 58.159 49.9797C58.3584 48.8722 58.1231 47.7312 57.5012 46.7896ZM47.1187 40.1395H47.7143L48.5274 40.1253C48.7427 40.1253 49.0337 40.1379 49.4004 40.1632C49.711 40.1854 50.02 40.2249 50.326 40.2815C50.6081 40.3374 50.8849 40.4166 51.1536 40.5182C51.4169 40.6116 51.6602 40.7528 51.8711 40.9347C52.0627 41.1133 52.2185 41.326 52.3303 41.5618C52.4606 41.8346 52.5252 42.1335 52.5192 42.4351C52.5222 42.6945 52.476 42.9522 52.3829 43.1947C52.2976 43.4168 52.1579 43.6144 51.9763 43.7698C51.8023 43.9191 51.6158 44.0537 51.4191 44.1721C51.1909 44.3011 50.9441 44.3945 50.6872 44.449C50.3906 44.5184 50.1323 44.5729 49.9123 44.6123C49.6385 44.6578 49.3621 44.6854 49.0847 44.6951L48.3313 44.7259C48.1607 44.7259 47.9271 44.7259 47.6305 44.7259H47.1115V40.1395H47.1187ZM53.4544 50.2921C53.3657 50.5096 53.2412 50.7111 53.0861 50.8884C52.9163 51.0717 52.7146 51.2232 52.4905 51.3357C52.2598 51.4579 52.0199 51.5623 51.773 51.6481C51.4997 51.7381 51.2198 51.8078 50.9359 51.8564C50.6091 51.9163 50.3228 51.9589 50.0773 51.9842C49.8317 52.0094 49.5376 52.0291 49.1947 52.0433C48.8535 52.0575 48.5872 52.0646 48.3959 52.0646H47.6784H47.1211V47.012L47.8386 46.9978C48.2357 46.9883 48.5593 46.9836 48.8097 46.9836C49.06 46.9836 49.4068 46.9986 49.8501 47.0286C50.2241 47.0502 50.5963 47.0953 50.9646 47.1635C51.3 47.2328 51.6301 47.3253 51.9524 47.4404C52.2652 47.5416 52.5581 47.6953 52.8182 47.8947C53.0481 48.0847 53.2375 48.318 53.3755 48.581C53.5091 48.8456 53.5855 49.1348 53.5999 49.4302C53.6143 49.7256 53.5664 50.0207 53.4592 50.2968L53.4544 50.2921Z" fill="#F6F2ED"/>
<path d="M40.4831 70.0468H31.2453C31.2177 70.0562 31.1878 70.0562 31.1602 70.0468H37.9804C38.8386 70.0206 39.959 70.0468 40.4831 70.0468Z" fill="#2F4F4F"/>
</g>
<g clip-path="url(#clip1_425_3583)">
<path d="M49.6746 23.2564H48.428C42.2056 23.2564 35.9831 23.2286 29.7606 23.2564C28.9024 23.2564 28.381 22.9941 27.954 22.267C25.0058 17.2497 24.9651 12.2089 28.2673 7.43463C31.5394 2.70303 36.2921 0.717872 41.9846 1.80322C47.677 2.88856 51.2839 6.49427 52.7279 12.115C52.8352 12.5308 52.7902 13.1812 52.5284 13.4605C50.0737 16.0833 49.1103 19.1325 49.6639 22.6636C49.6793 22.8608 49.6828 23.0587 49.6746 23.2564ZM38.5558 12.0873H34.6935C36.6547 12.5437 36.6547 12.5437 36.6547 14.4329V17.0023H37.1139V14.0171C37.116 12.4605 37.116 12.4605 38.5558 12.0873ZM30.6876 12.1599L30.2263 12.1876C30.3807 13.4797 29.8701 14.8274 30.6876 16.2389V12.1705V12.1599ZM47.4453 16.6697C48.6662 16.0577 48.6726 14.9425 48.4645 13.87C48.3551 13.3156 47.8616 12.8337 47.5418 12.3198L47.2779 12.4818C48.4645 13.9382 48.4902 15.047 47.4453 16.6697ZM45.1001 12.5969C43.6174 13.678 43.6668 15.8296 45.2159 16.5887C44.1989 15.2325 44.1967 13.9254 45.1001 12.5969Z" fill="#508B82"/>
<path d="M59.8475 23.2509C57.2019 23.2509 54.5563 23.2167 51.9085 23.27C51.0503 23.2892 50.7563 22.9758 50.6211 22.1591C49.7393 17.0416 53.6251 12.0861 59.0214 11.5338C64.1518 11.0092 68.9516 15.0884 69.1834 20.1675C69.3207 23.1997 69.2821 23.2402 66.2867 23.2402H59.8497L59.8475 23.2509ZM57.9658 21.7455H58.0881V19.5342H57.9658V21.7455Z" fill="#508B82"/>
<path d="M38.5556 12.0868C37.1158 12.46 37.1158 12.46 37.1137 14.0059V16.9912H36.6545V14.4217C36.6545 12.5346 36.6545 12.5346 34.6934 12.0762L38.5556 12.0868Z" fill="#508B82"/>
<path d="M30.6867 12.1582V16.2266C29.8692 14.8257 30.3798 13.4781 30.2253 12.1752L30.6867 12.1582Z" fill="#508B82"/>
<path d="M47.4447 16.6683C48.4896 15.0456 48.4639 13.9368 47.2773 12.4804L47.5413 12.3184C47.861 12.8322 48.3545 13.3142 48.4639 13.8686C48.672 14.9411 48.6656 16.0563 47.4447 16.6683Z" fill="#508B82"/>
<path d="M45.0994 12.5957C44.1961 13.9241 44.1982 15.227 45.2152 16.5874C43.6661 15.8283 43.6167 13.6768 45.0994 12.5957Z" fill="#508B82"/>
<path d="M57.9648 21.7464V19.5352H58.0871V21.7464H57.9648Z" fill="#508B82"/>
<path d="M35.0029 17.3815C35.0029 17.7035 34.9352 17.9882 34.7999 18.2355C34.6692 18.4782 34.4756 18.6695 34.2189 18.8095C33.9669 18.9448 33.6636 19.0125 33.3089 19.0125C32.7722 19.0125 32.3569 18.8655 32.0629 18.5715C31.7736 18.2728 31.6289 17.8762 31.6289 17.3815V14.1055H32.2939V17.3325C32.2939 17.7058 32.3779 17.9858 32.5459 18.1725C32.7139 18.3592 32.9682 18.4525 33.3089 18.4525C33.6542 18.4525 33.9109 18.3615 34.0789 18.1795C34.2469 17.9928 34.3309 17.7105 34.3309 17.3325V14.1055H35.0029V17.3815Z" fill="white"/>
<path d="M39.1827 14.1055L39.1127 14.6725H37.7757V18.9285H37.1107V14.6725H35.7387V14.1055H39.1827Z" fill="white"/>
<path d="M41.5249 16.3245L42.9949 18.9285H42.2389L41.1259 16.7935L39.9989 18.9285H39.2849L40.7339 16.3595L39.4109 14.1055H40.1669L41.1399 15.9185L42.1199 14.1055H42.8339L41.5249 16.3245Z" fill="white"/>
<path d="M45.3565 14.0215C45.7625 14.0215 46.1171 14.1195 46.4205 14.3155C46.7285 14.5068 46.9665 14.7892 47.1345 15.1625C47.3071 15.5358 47.3935 15.9885 47.3935 16.5205C47.3935 17.0432 47.3071 17.4912 47.1345 17.8645C46.9665 18.2378 46.7285 18.5225 46.4205 18.7185C46.1171 18.9145 45.7625 19.0125 45.3565 19.0125C44.9505 19.0125 44.5935 18.9168 44.2855 18.7255C43.9821 18.5342 43.7441 18.2518 43.5715 17.8785C43.4035 17.5052 43.3195 17.0548 43.3195 16.5275C43.3195 16.0095 43.4035 15.5615 43.5715 15.1835C43.7441 14.8055 43.9845 14.5185 44.2925 14.3225C44.6005 14.1218 44.9551 14.0215 45.3565 14.0215ZM45.3565 14.5675C44.9365 14.5675 44.6098 14.7262 44.3765 15.0435C44.1431 15.3608 44.0265 15.8555 44.0265 16.5275C44.0265 17.1948 44.1431 17.6848 44.3765 17.9975C44.6145 18.3102 44.9411 18.4665 45.3565 18.4665C46.2431 18.4665 46.6865 17.8178 46.6865 16.5205C46.6865 15.2185 46.2431 14.5675 45.3565 14.5675Z" fill="white"/>
<path d="M56.4311 21.6945C56.4311 21.9705 56.3731 22.2145 56.2571 22.4265C56.1451 22.6345 55.9791 22.7985 55.7591 22.9185C55.5431 23.0345 55.2831 23.0925 54.9791 23.0925C54.5191 23.0925 54.1631 22.9665 53.9111 22.7145C53.6631 22.4585 53.5391 22.1185 53.5391 21.6945V18.8865H54.1091V21.6525C54.1091 21.9725 54.1811 22.2125 54.3251 22.3725C54.4691 22.5325 54.6871 22.6125 54.9791 22.6125C55.2751 22.6125 55.4951 22.5345 55.6391 22.3785C55.7831 22.2185 55.8551 21.9765 55.8551 21.6525V18.8865H56.4311V21.6945Z" fill="white"/>
<path d="M60.0137 18.8865L59.9537 19.3725H58.8077V23.0205H58.2377V19.3725H57.0617V18.8865H60.0137Z" fill="white"/>
<path d="M62.0213 20.7885L63.2813 23.0205H62.6333L61.6793 21.1905L60.7133 23.0205H60.1013L61.3433 20.8185L60.2093 18.8865H60.8573L61.6913 20.4405L62.5313 18.8865H63.1433L62.0213 20.7885Z" fill="white"/>
<path d="M65.3055 18.8145C65.6535 18.8145 65.9575 18.8985 66.2175 19.0665C66.4815 19.2305 66.6855 19.4725 66.8295 19.7925C66.9775 20.1125 67.0515 20.5005 67.0515 20.9565C67.0515 21.4045 66.9775 21.7885 66.8295 22.1085C66.6855 22.4285 66.4815 22.6725 66.2175 22.8405C65.9575 23.0085 65.6535 23.0925 65.3055 23.0925C64.9575 23.0925 64.6515 23.0105 64.3875 22.8465C64.1275 22.6825 63.9235 22.4405 63.7755 22.1205C63.6315 21.8005 63.5595 21.4145 63.5595 20.9625C63.5595 20.5185 63.6315 20.1345 63.7755 19.8105C63.9235 19.4865 64.1295 19.2405 64.3935 19.0725C64.6575 18.9005 64.9615 18.8145 65.3055 18.8145ZM65.3055 19.2825C64.9455 19.2825 64.6655 19.4185 64.4655 19.6905C64.2655 19.9625 64.1655 20.3865 64.1655 20.9625C64.1655 21.5345 64.2655 21.9545 64.4655 22.2225C64.6695 22.4905 64.9495 22.6245 65.3055 22.6245C66.0655 22.6245 66.4455 22.0685 66.4455 20.9565C66.4455 19.8405 66.0655 19.2825 65.3055 19.2825Z" fill="white"/>
</g>
<g clip-path="url(#clip2_425_3583)">
<path d="M231 29.4495H230.345C225.359 29.4495 220.38 29.5082 215.394 29.4495C214.611 29.4073 213.828 29.5308 213.097 29.8121C212.366 30.0933 211.702 30.5258 211.151 31.081C210.599 31.6362 210.172 32.3015 209.897 33.0332C209.623 33.7649 209.506 34.5463 209.557 35.326C209.648 37.0106 209.557 38.6951 209.557 40.3797C209.548 41.7888 210.1 43.1439 211.093 44.1476C212.085 45.1514 213.436 45.7218 214.85 45.7338C220.092 45.773 225.333 45.7338 230.574 45.7338C230.705 45.7338 230.83 45.7338 231 45.7338V29.4495Z" fill="#2F4F4F"/>
<path d="M155.592 23.1225V62.5864C155.597 64.5624 156.387 66.456 157.789 67.8533C159.191 69.2506 161.091 70.0379 163.074 70.043H190.519C191.056 70.043 192.176 70.043 193.034 70.043H199.841C205.03 70.043 210.219 70.043 215.408 70.043C217.021 70.062 218.621 69.7622 220.117 69.161C221.613 68.5598 222.974 67.6692 224.123 66.5406C225.271 65.4119 226.184 64.0675 226.808 62.5853C227.432 61.103 227.755 59.5122 227.758 57.9048C227.797 55.7631 227.758 53.628 227.758 51.4864C227.758 51.2317 227.758 50.977 227.712 50.6375H226.821C223.499 50.6375 220.171 50.6375 216.849 50.6375C216.555 50.6375 207.848 50.5004 205.279 48.1498C204.313 47.3209 203.528 46.3022 202.975 45.1574C202.421 44.0126 202.111 42.7662 202.062 41.4963C201.927 38.7593 201.949 36.0168 202.128 33.2823C202.343 30.9296 203.427 28.7401 205.168 27.1373C206.91 25.5344 209.185 24.632 211.556 24.6047C216.581 24.5459 221.606 24.6047 226.624 24.6047H227.699C227.699 24.2847 227.751 24.0366 227.751 23.7885C227.751 21.6207 227.751 19.453 227.751 17.2917C227.732 14.0956 226.45 11.0358 224.182 8.77572C221.915 6.51568 218.844 5.23765 215.637 5.21881C199.673 5.19269 183.705 5.19269 167.732 5.21881C164.525 5.22045 161.448 6.48563 159.173 8.73858C156.897 10.9915 155.608 14.0495 155.585 17.246C155.585 19.1591 155.592 21.144 155.592 23.1225Z" fill="#2F4F4F"/>
<path d="M190.517 70.0448H199.755C199.782 70.0543 199.812 70.0543 199.84 70.0448H193.02C192.161 70.0187 191.041 70.0448 190.517 70.0448Z" fill="#2F4F4F"/>
<path opacity="0.4" d="M189.228 46.7876C188.557 45.9894 187.627 45.4465 186.597 45.2517C187.309 44.9158 187.889 44.3561 188.246 43.6601C188.602 42.964 188.717 42.1706 188.57 41.4037C188.527 40.7997 188.338 40.2147 188.02 39.6974C187.711 39.2129 187.283 38.8133 186.776 38.5354C186.242 38.2368 185.669 38.0107 185.073 37.8633C184.38 37.696 183.675 37.5836 182.964 37.5272V33.7715H180.644V37.4231C180.242 37.4231 179.629 37.4334 178.805 37.4539V33.7715H176.485V37.5296C176.153 37.5391 175.666 37.5438 175.023 37.5438L171.828 37.5296V39.9743H173.502C173.816 39.9332 174.133 40.0167 174.384 40.2066C174.636 40.3964 174.801 40.6771 174.844 40.9871V45.2659C174.924 45.2644 175.004 45.2692 175.083 45.2801H174.844V51.2841C174.839 51.3914 174.813 51.4967 174.766 51.5936C174.719 51.6905 174.652 51.777 174.571 51.8479C174.489 51.9189 174.394 51.9728 174.291 52.0064C174.188 52.0401 174.079 52.0528 173.971 52.0437H172.297L171.818 54.7724H174.832H175.659H176.473V58.5731H178.793V54.8339C179.215 54.8434 179.828 54.8481 180.632 54.8481V58.5897H182.952V54.7795C183.687 54.7497 184.419 54.6754 185.145 54.557C185.772 54.4509 186.385 54.2787 186.975 54.0435C187.509 53.8385 188.004 53.543 188.436 53.1702C188.846 52.7966 189.177 52.3451 189.407 51.8426C189.673 51.2527 189.835 50.6219 189.886 49.9777C190.085 48.8703 189.85 47.7293 189.228 46.7876ZM178.845 40.1375H179.441L180.254 40.1233C180.469 40.1233 180.76 40.136 181.127 40.1612C181.438 40.1835 181.747 40.223 182.053 40.2795C182.335 40.3355 182.611 40.4146 182.88 40.5162C183.143 40.6096 183.387 40.7509 183.598 40.9327C183.789 41.1113 183.945 41.3241 184.057 41.5599C184.187 41.8326 184.252 42.1315 184.246 42.4331C184.249 42.6925 184.203 42.9502 184.109 43.1928C184.024 43.4148 183.884 43.6124 183.703 43.7679C183.529 43.9171 183.342 44.0517 183.146 44.1702C182.918 44.2992 182.671 44.3926 182.414 44.4471C182.117 44.5165 181.859 44.5709 181.639 44.6104C181.365 44.6558 181.089 44.6835 180.811 44.6932L180.058 44.724C179.887 44.724 179.654 44.724 179.357 44.724H178.838V40.1375H178.845ZM185.181 50.2901C185.092 50.5076 184.968 50.7091 184.813 50.8865C184.643 51.0697 184.441 51.2213 184.217 51.3338C183.986 51.4559 183.747 51.5604 183.5 51.6462C183.226 51.7362 182.946 51.8058 182.662 51.8544C182.336 51.9144 182.049 51.957 181.804 51.9822C181.558 52.0075 181.264 52.0272 180.921 52.0414C180.58 52.0556 180.314 52.0627 180.122 52.0627H179.405H178.848V47.0101L179.565 46.9959C179.962 46.9864 180.286 46.9817 180.536 46.9817C180.787 46.9817 181.133 46.9966 181.577 47.0266C181.951 47.0483 182.323 47.0933 182.691 47.1615C183.027 47.2309 183.357 47.3234 183.679 47.4384C183.992 47.5396 184.285 47.6933 184.545 47.8928C184.775 48.0828 184.964 48.316 185.102 48.5791C185.236 48.8437 185.312 49.1328 185.326 49.4282C185.341 49.7236 185.293 50.0188 185.186 50.2948L185.181 50.2901Z" fill="#F6F2ED"/>
</g>
<path d="M96.4082 41.3633C95.8559 41.3633 95.4082 41.811 95.4082 42.3633C95.4082 42.9156 95.8559 43.3633 96.4082 43.3633L96.4082 41.3633ZM136.252 43.0704C136.642 42.6799 136.642 42.0467 136.252 41.6562L129.888 35.2922C129.497 34.9017 128.864 34.9017 128.473 35.2922C128.083 35.6827 128.083 36.3159 128.473 36.7064L134.13 42.3633L128.473 48.0201C128.083 48.4107 128.083 49.0438 128.473 49.4344C128.864 49.8249 129.497 49.8249 129.888 49.4344L136.252 43.0704ZM96.4082 43.3633L135.545 43.3633L135.545 41.3633L96.4082 41.3633L96.4082 43.3633Z" fill="#493D33"/>
<defs>
<clipPath id="clip0_425_3583">
<rect width="75.4091" height="64.9091" fill="white" transform="translate(0 5.13672)"/>
</clipPath>
<clipPath id="clip1_425_3583">
<rect width="44" height="23" fill="white" transform="translate(26)"/>
</clipPath>
<clipPath id="clip2_425_3583">
<rect width="75.4091" height="64.9091" fill="white" transform="matrix(-1 0 0 1 231 5.13477)"/>
</clipPath>
</defs>
</svg>
