<svg width="202" height="159" viewBox="0 0 202 159" fill="none" xmlns="http://www.w3.org/2000/svg">
<g opacity="0.272">
<path d="M45.5837 146.278C65.551 146.278 81.7377 130.091 81.7377 110.124C81.7377 90.1564 65.551 73.9697 45.5837 73.9697C25.6164 73.9697 9.42969 90.1564 9.42969 110.124C9.42969 130.091 25.6164 146.278 45.5837 146.278Z" fill="#E54545"/>
<path d="M55.4937 156.366C55.9704 156.752 56.5509 156.988 57.1617 157.044C57.7725 157.1 58.3862 156.973 58.9251 156.68C59.464 156.387 59.9039 155.941 60.1891 155.398C60.4743 154.855 60.592 154.24 60.5273 153.63C60.4626 153.02 60.2184 152.443 59.8256 151.972C59.4328 151.5 58.9091 151.156 58.3207 150.983C57.7323 150.81 57.1058 150.815 56.5203 150.998C55.9348 151.181 55.4168 151.533 55.0317 152.01C54.5161 152.65 54.2753 153.467 54.3619 154.284C54.4485 155.1 54.8556 155.849 55.4937 156.366Z" fill="#E54545"/>
<path d="M66.6203 149.823C66.9454 150.087 67.3412 150.248 67.7578 150.286C68.1743 150.324 68.5929 150.238 68.9605 150.038C69.3281 149.839 69.6283 149.535 69.8231 149.165C70.0178 148.794 70.0985 148.375 70.0547 147.959C70.011 147.543 69.8449 147.149 69.5774 146.827C69.3099 146.506 68.9531 146.271 68.552 146.152C68.1509 146.033 67.7236 146.036 67.3241 146.16C66.9246 146.284 66.5709 146.524 66.3077 146.849C65.9547 147.285 65.7893 147.843 65.8479 148.401C65.9065 148.959 66.1844 149.47 66.6203 149.823Z" fill="#E54545"/>
<path d="M3.928 100.078C4.70488 100.078 5.46432 99.8473 6.11028 99.4157C6.75624 98.9841 7.2597 98.3706 7.557 97.6529C7.8543 96.9351 7.93209 96.1453 7.78052 95.3834C7.62896 94.6214 7.25486 93.9215 6.70551 93.3722C6.15617 92.8228 5.45627 92.4487 4.69431 92.2972C3.93236 92.1456 3.14257 92.2234 2.42482 92.5207C1.70707 92.818 1.0936 93.3214 0.661987 93.9674C0.230373 94.6134 0 95.3728 0 96.1497C0 97.1915 0.413841 98.1906 1.15048 98.9272C1.88713 99.6638 2.88623 100.078 3.928 100.078Z" fill="#E54545"/>
</g>
<g opacity="0.272">
<path d="M185.816 37.0667C191.719 32.6188 192.899 24.2275 188.451 18.3241C184.003 12.4207 175.612 11.2408 169.709 15.6886C163.805 20.1365 162.625 28.5278 167.073 34.4312C171.521 40.3346 179.912 41.5145 185.816 37.0667Z" fill="#E54545"/>
<path d="M185.133 42.2555C185.078 42.4754 184.959 42.6741 184.791 42.8265C184.624 42.9789 184.414 43.0781 184.19 43.1116C183.966 43.1451 183.737 43.1113 183.532 43.0146C183.327 42.9179 183.155 42.7626 183.039 42.5683C182.922 42.374 182.865 42.1495 182.876 41.9231C182.887 41.6967 182.965 41.4786 183.1 41.2964C183.235 41.1142 183.42 40.9761 183.634 40.8996C183.847 40.823 184.078 40.8114 184.298 40.8662C184.593 40.9398 184.847 41.1275 185.003 41.388C185.16 41.6485 185.206 41.9606 185.133 42.2555Z" fill="url(#paint0_linear_2403_2277)"/>
<path d="M180.387 42.8017C180.349 42.952 180.268 43.0878 180.153 43.1919C180.039 43.296 179.896 43.3638 179.743 43.3866C179.589 43.4095 179.433 43.3865 179.293 43.3204C179.153 43.2543 179.036 43.1482 178.956 43.0155C178.876 42.8827 178.837 42.7293 178.845 42.5746C178.852 42.4199 178.905 42.2709 178.998 42.1464C179.09 42.022 179.217 41.9276 179.362 41.8753C179.508 41.823 179.666 41.815 179.816 41.8525C180.018 41.9028 180.191 42.031 180.298 42.209C180.405 42.387 180.437 42.6002 180.387 42.8017Z" fill="url(#paint1_linear_2403_2277)"/>
<path d="M187.84 14.1288C187.61 14.302 187.334 14.4031 187.047 14.4194C186.76 14.4356 186.474 14.3664 186.226 14.2204C185.979 14.0743 185.78 13.8581 185.655 13.5989C185.53 13.3398 185.484 13.0494 185.524 12.7646C185.564 12.4797 185.688 12.2131 185.88 11.9984C186.071 11.7838 186.322 11.6308 186.601 11.5588C186.879 11.4868 187.173 11.499 187.444 11.5939C187.716 11.6887 187.953 11.862 188.127 12.0918C188.359 12.3999 188.459 12.7876 188.405 13.1696C188.351 13.5517 188.148 13.8967 187.84 14.1288Z" fill="#E54545"/>
</g>
<path d="M110.26 141C149.196 141 180.76 109.436 180.76 70.5C180.76 31.5639 149.196 0 110.26 0C71.3237 0 39.7598 31.5639 39.7598 70.5C39.7598 109.436 71.3237 141 110.26 141Z" fill="#F6F2ED"/>
<path d="M110.26 140C148.644 140 179.76 108.884 179.76 70.5C179.76 32.1162 148.644 1 110.26 1C71.876 1 40.7598 32.1162 40.7598 70.5C40.7598 108.884 71.876 140 110.26 140Z" stroke="#002C27" stroke-width="2"/>
<path d="M175.533 71.2009C175.546 79.8438 173.839 88.4029 170.512 96.3797C167.184 104.356 162.303 111.591 156.152 117.663C150.147 123.643 143.019 128.378 135.179 131.594C127.338 134.81 118.938 136.444 110.464 136.402C97.563 136.427 84.9448 132.624 74.206 125.475C63.4673 118.326 55.0907 108.152 50.1363 96.2409C45.182 84.3294 43.8727 71.2159 46.3741 58.56C48.8755 45.9041 55.0752 34.2746 64.1885 25.1435C73.3018 16.0124 84.9191 9.79018 97.5701 7.26411C110.221 4.73805 123.337 6.02175 135.258 10.9528C147.179 15.8839 157.37 24.2407 164.54 34.9655C171.71 45.6903 175.537 58.3011 175.537 71.2019L175.533 71.2009Z" fill="#E54545"/>
<path d="M110.26 116C135.389 116 155.76 95.629 155.76 70.5C155.76 45.371 135.389 25 110.26 25C85.1308 25 64.7598 45.371 64.7598 70.5C64.7598 95.629 85.1308 116 110.26 116Z" fill="#F6F2ED"/>
<path d="M110.26 115C134.836 115 154.76 95.0767 154.76 70.5C154.76 45.9233 134.836 26 110.26 26C85.6831 26 65.7598 45.9233 65.7598 70.5C65.7598 95.0767 85.6831 115 110.26 115Z" stroke="#002C27" stroke-width="2"/>
<path d="M110.26 96.966C105.121 96.966 100.098 95.4421 95.825 92.5871C91.5521 89.732 88.2218 85.674 86.2552 80.9263C84.2886 76.1785 83.7741 70.9542 84.7766 65.914C85.7792 60.8738 88.2538 56.244 91.8876 52.6103C95.5214 48.9765 100.151 46.5018 105.191 45.4993C110.232 44.4967 115.456 45.0113 120.204 46.9779C124.951 48.9444 129.009 52.2747 131.864 56.5476C134.719 60.8205 136.243 65.8441 136.243 70.983C136.232 77.8706 133.491 84.4727 128.62 89.3429C123.75 94.2132 117.148 96.9544 110.26 96.966ZM110.26 46.649C105.448 46.649 100.743 48.0762 96.7411 50.75C92.7394 53.4239 89.6205 57.2243 87.7787 61.6708C85.9369 66.1172 85.455 71.01 86.3939 75.7303C87.3329 80.4507 89.6504 84.7866 93.0536 88.1898C96.4568 91.5929 100.793 93.9105 105.513 94.8494C110.233 95.7884 115.126 95.3065 119.573 93.4647C124.019 91.6229 127.819 88.504 130.493 84.5023C133.167 80.5006 134.594 75.7958 134.594 70.983C134.595 67.7873 133.965 64.6229 132.743 61.6705C131.52 58.718 129.727 56.0354 127.468 53.7757C125.208 51.516 122.525 49.7236 119.573 48.5008C116.62 47.278 113.456 46.6487 110.26 46.649Z" fill="#002C27"/>
<path d="M110.26 94.1184C109.71 94.1184 109.16 94.1184 108.56 94.0684L108.66 92.4684C109.46 92.5184 110.26 92.5184 111.06 92.5184L111.11 94.1184H110.26ZM112.86 94.0184L112.66 92.4184C113.16 92.3684 113.709 92.2684 114.209 92.1684L114.509 93.7684C113.957 93.8684 113.408 93.9184 112.858 94.0184H112.86ZM106.914 93.9184L105.265 93.6184L105.615 92.0184C106.115 92.1184 106.615 92.2184 107.164 92.3184L106.914 93.9184ZM116.158 93.3684L115.758 91.8194L117.258 91.3694L117.808 92.9184C117.206 93.0684 116.655 93.2184 116.156 93.3684H116.158ZM103.616 93.1684C103.066 93.0184 102.567 92.8184 102.016 92.6184L102.616 91.1184C103.116 91.3184 103.616 91.4684 104.116 91.6184L103.616 93.1684ZM119.306 92.2684L118.656 90.7684C119.156 90.5684 119.605 90.3184 120.056 90.1184L120.806 91.5674C120.32 91.8314 119.818 92.0659 119.304 92.2694L119.306 92.2684ZM100.518 91.9684L99.018 91.2184L99.818 89.8184C100.269 90.0816 100.737 90.3154 101.218 90.5184L100.518 91.9684ZM122.304 90.7684L121.455 89.3684C121.907 89.1147 122.341 88.8311 122.755 88.5194L123.704 89.8194C123.251 90.1704 122.752 90.4704 122.302 90.7704L122.304 90.7684ZM97.57 90.3184C97.12 90.0184 96.621 89.6684 96.221 89.3694L97.221 88.0694C97.621 88.3694 98.07 88.6694 98.47 88.9694L97.57 90.3184ZM125.002 88.8184L123.953 87.5694C124.353 87.2194 124.753 86.8694 125.102 86.5204L126.202 87.6694C125.839 88.0907 125.436 88.4765 125 88.8214L125.002 88.8184ZM94.922 88.2684C94.522 87.9184 94.122 87.5184 93.722 87.1194L94.871 85.9704C95.221 86.3204 95.621 86.7204 96.02 87.0704L94.922 88.2684ZM127.451 86.4684L126.251 85.3684C126.601 84.9684 126.951 84.5684 127.251 84.1684L128.551 85.1684C128.198 85.6234 127.798 86.0734 127.449 86.4734L127.451 86.4684ZM92.574 85.8684C92.224 85.4184 91.874 85.0194 91.525 84.5684L92.825 83.6194C93.125 84.0194 93.475 84.4684 93.774 84.8684L92.574 85.8684ZM129.5 83.8194L128.151 82.9194C128.451 82.4694 128.701 82.0194 128.951 81.5704L130.351 82.3704C130.096 82.8721 129.811 83.3577 129.497 83.8244L129.5 83.8194ZM90.575 83.1694C90.275 82.7194 90.025 82.2204 89.726 81.7204L91.175 80.9704C91.425 81.4204 91.675 81.8704 91.975 82.3194L90.575 83.1694ZM131.148 80.9204L129.699 80.2204C129.929 79.7504 130.129 79.2665 130.299 78.7714L131.799 79.3714C131.625 79.9069 131.406 80.427 131.146 80.9264L131.148 80.9204ZM89.026 80.1704C88.826 79.6704 88.576 79.1214 88.426 78.6214L89.975 78.0714C90.128 78.5654 90.3117 79.0493 90.525 79.5204L89.026 80.1704ZM132.398 77.7704L130.849 77.2704C130.999 76.7704 131.149 76.2704 131.249 75.7704L132.849 76.1204L132.398 77.7704ZM87.927 77.0204C87.777 76.4704 87.677 75.9204 87.527 75.3714L89.127 75.0714C89.227 75.5714 89.327 76.0714 89.477 76.5714L87.927 77.0204ZM133.147 74.5204L131.547 74.2704C131.647 73.7704 131.697 73.2214 131.747 72.7214L133.347 72.8714C133.295 73.3814 133.195 73.9814 133.145 74.5314L133.147 74.5204ZM87.277 73.7204L87.127 72.0714L88.727 72.0214C88.7274 72.5414 88.7776 73.0601 88.877 73.5704L87.277 73.7204ZM133.397 71.1724H131.797V71.0224C131.805 70.5552 131.789 70.0879 131.747 69.6224L133.347 69.5224C133.397 70.0224 133.397 70.5224 133.397 71.0224V71.1724ZM88.725 70.4334L87.125 70.3834C87.125 69.8334 87.175 69.2834 87.225 68.6834L88.825 68.8334C88.774 69.3844 88.774 69.9344 88.725 70.4334ZM131.547 68.0334C131.497 67.5334 131.397 66.9844 131.297 66.4844L132.897 66.1344L133.197 67.7834L131.547 68.0334ZM89.075 67.3334L87.475 67.0334C87.575 66.4834 87.675 65.9334 87.825 65.3844L89.374 65.7844C89.274 66.2864 89.125 66.8364 89.074 67.3354L89.075 67.3334ZM130.898 64.9854C130.748 64.4854 130.598 63.9854 130.398 63.4854L131.898 62.9354C132.098 63.4354 132.248 63.9844 132.448 64.5354L130.898 64.9854ZM89.825 64.2854L88.276 63.7854C88.4318 63.2366 88.6325 62.7014 88.876 62.1854L90.376 62.7854C90.173 63.2884 89.973 63.7884 89.825 64.2874V64.2854ZM129.849 62.0364C129.649 61.5864 129.399 61.0874 129.149 60.6364L130.549 59.8364L131.299 61.3364L129.849 62.0364ZM91.025 61.3894L89.576 60.6394C89.826 60.1394 90.076 59.6394 90.376 59.1394L91.776 59.9884C91.4973 60.4397 91.2465 60.9076 91.025 61.3894ZM128.351 59.3404C128.051 58.8904 127.751 58.4914 127.451 58.0404L128.751 57.0404C129.096 57.4872 129.413 57.9547 129.7 58.4404L128.351 59.3404ZM92.625 58.7414L91.276 57.7924C91.576 57.3424 91.926 56.8924 92.276 56.4434L93.525 57.4434C93.225 57.8914 92.871 58.2914 92.625 58.7414ZM126.453 56.8414C126.103 56.4414 125.753 56.0914 125.404 55.6924L126.553 54.5434C126.953 54.9434 127.353 55.3434 127.702 55.7434L126.453 56.8414ZM94.574 56.2914L93.374 55.1914L94.574 53.9914L95.674 55.1914C95.27 55.5434 94.92 55.9434 94.57 56.2934L94.574 56.2914ZM124.205 54.6424C123.805 54.2924 123.405 53.9924 123.005 53.6934L123.954 52.3934C124.404 52.7434 124.854 53.0934 125.254 53.4424L124.205 54.6424ZM96.869 54.1984L95.869 52.9494C96.319 52.5994 96.769 52.2494 97.218 51.9494L98.118 53.2984C97.6706 53.5528 97.2519 53.8546 96.869 54.1984ZM121.703 52.7984C121.253 52.4984 120.803 52.2484 120.354 51.9984L121.104 50.5494C121.604 50.8027 122.088 51.0862 122.553 51.3984L121.703 52.7984ZM99.417 52.3984L98.617 50.9984C99.117 50.6984 99.617 50.4484 100.117 50.1984L100.817 51.6474C100.316 51.8984 99.867 52.1454 99.417 52.3984ZM118.954 51.2984C118.504 51.0984 118.005 50.8984 117.505 50.6984L118.055 49.1494C118.584 49.3358 119.101 49.5528 119.604 49.7994L118.954 51.2984ZM102.215 51.0484L101.615 49.5484C102.138 49.3352 102.672 49.1516 103.215 48.9984L103.715 50.5474C103.201 50.6684 102.699 50.8354 102.215 51.0464V51.0484ZM116.006 50.2484C115.506 50.0984 115.006 49.9984 114.506 49.8984L114.806 48.2984C115.356 48.3984 115.906 48.5484 116.455 48.6984L116.006 50.2484ZM105.213 50.0984L104.813 48.4984C105.363 48.3484 105.913 48.2484 106.462 48.1484L106.712 49.7484C106.212 49.8474 105.713 49.9474 105.213 50.0984ZM112.958 49.6484C112.458 49.5984 111.909 49.5484 111.409 49.4984L111.509 47.8984L113.158 48.0484L112.958 49.6484ZM108.258 49.5984L108.108 47.9984C108.658 47.9484 109.208 47.8984 109.808 47.8984L109.858 49.4984C109.31 49.4984 108.811 49.5474 108.261 49.5984H108.258Z" fill="#002C27"/>
<path d="M110.244 81.1543C115.79 81.1543 120.285 76.6588 120.285 71.1133C120.285 65.5678 115.79 61.0723 110.244 61.0723C104.699 61.0723 100.203 65.5678 100.203 71.1133C100.203 76.6588 104.699 81.1543 110.244 81.1543Z" fill="#E54545"/>
<path d="M111.226 70.6807L114 75H112.574L110.474 71.4586L108.347 75H107L109.734 70.7388L107.238 67H108.664L110.5 70.0073L112.349 67H113.696L111.226 70.6807Z" fill="white"/>
<defs>
<linearGradient id="paint0_linear_2403_2277" x1="183.186" y1="40.5889" x2="184.856" y2="43.3674" gradientUnits="userSpaceOnUse">
<stop stop-color="#00836A"/>
<stop offset="1" stop-color="#073E39"/>
</linearGradient>
<linearGradient id="paint1_linear_2403_2277" x1="179.057" y1="41.663" x2="180.197" y2="43.5614" gradientUnits="userSpaceOnUse">
<stop stop-color="#00836A"/>
<stop offset="1" stop-color="#073E39"/>
</linearGradient>
</defs>
</svg>
