<svg xmlns="http://www.w3.org/2000/svg" width="69.96" height="21.983" viewBox="0 0 69.96 21.983">
  <g id="jade" transform="translate(-417.1 -329.7)">
    <g id="Group_41140" data-name="Group 41140" transform="translate(444.605 330.583)">
      <path id="Path_28262" data-name="Path 28262" d="M878.379,355.584a1.134,1.134,0,0,1,.336.9,1.253,1.253,0,0,1-.583,1.178,3.25,3.25,0,0,1-1.634.354h-1.6V352.7h1.388q2.2,0,2.2,1.352a1.051,1.051,0,0,1-.282.763,1.314,1.314,0,0,1-.7.384A1.7,1.7,0,0,1,878.379,355.584Zm-2.469-.709h.619a1.081,1.081,0,0,0,.667-.186.662.662,0,0,0,.246-.559.575.575,0,0,0-.258-.535,1.557,1.557,0,0,0-.805-.15H875.9l.006,1.43Zm1.448,2.2a.667.667,0,0,0,.294-.637.746.746,0,0,0-.282-.655,1.267,1.267,0,0,0-.763-.2h-.7v1.658h.589a1.7,1.7,0,0,0,.865-.168Z" transform="translate(-874.9 -352.201)" fill="#030303"/>
      <path id="Path_28263" data-name="Path 28263" d="M953,349.453a.2.2,0,0,0,.18.072.725.725,0,0,0,.228-.036l.21.691a1.878,1.878,0,0,1-.7.138.913.913,0,0,1-.709-.264,1.094,1.094,0,0,1-.246-.775v-4.77l.985-.108v4.812A.542.542,0,0,0,953,349.453Z" transform="translate(-947.33 -344.4)" fill="#030303"/>
      <path id="Path_28264" data-name="Path 28264" d="M988.217,371.966a2.278,2.278,0,0,1,.5,1.568,2.6,2.6,0,0,1-.228,1.13,1.758,1.758,0,0,1-.661.757,1.9,1.9,0,0,1-1.021.27,1.766,1.766,0,0,1-1.406-.571,2.312,2.312,0,0,1-.511-1.58,2.688,2.688,0,0,1,.228-1.124,1.743,1.743,0,0,1,.661-.751,1.936,1.936,0,0,1,1.027-.27A1.766,1.766,0,0,1,988.217,371.966Zm-2.3,1.574a2.08,2.08,0,0,0,.216,1.069.737.737,0,0,0,.661.342.727.727,0,0,0,.655-.348,2.023,2.023,0,0,0,.222-1.057,1.966,1.966,0,0,0-.222-1.057.724.724,0,0,0-.649-.342c-.589,0-.877.463-.877,1.394Z" transform="translate(-978.286 -369.773)" fill="#030303"/>
      <path id="Path_28265" data-name="Path 28265" d="M1062.1,371.5a1.9,1.9,0,0,1,.6.36l-.445.6a1.7,1.7,0,0,0-.391-.228,1.246,1.246,0,0,0-.427-.072c-.613,0-.919.463-.919,1.394a1.661,1.661,0,0,0,.24,1.015.819.819,0,0,0,.679.306,1.137,1.137,0,0,0,.4-.072,2.094,2.094,0,0,0,.4-.24l.457.643a2.017,2.017,0,0,1-1.316.469,1.938,1.938,0,0,1-1.015-.258,1.66,1.66,0,0,1-.661-.733,2.5,2.5,0,0,1-.228-1.124,2.767,2.767,0,0,1,.228-1.142,1.768,1.768,0,0,1,.661-.763,1.8,1.8,0,0,1,1.009-.27A2.106,2.106,0,0,1,1062.1,371.5Z" transform="translate(-1048.39 -369.762)" fill="#030303"/>
      <path id="Path_28266" data-name="Path 28266" d="M1125.1,350.2v-5.7l.985-.108v5.8Zm3.551,0h-1.129l-1.4-2.223,1.358-1.844h1.04l-1.352,1.79Z" transform="translate(-1110.068 -344.4)" fill="#030303"/>
      <path id="Path_28267" data-name="Path 28267" d="M1188.514,371.767l-.385.589a1.758,1.758,0,0,0-1-.348.831.831,0,0,0-.474.114.346.346,0,0,0-.168.294.342.342,0,0,0,.066.228.618.618,0,0,0,.252.174,4,4,0,0,0,.535.18,2.354,2.354,0,0,1,.979.469,1.04,1.04,0,0,1,.318.817,1.1,1.1,0,0,1-.493.949,2.045,2.045,0,0,1-1.22.342,2.658,2.658,0,0,1-.919-.15,2.285,2.285,0,0,1-.709-.421l.5-.559a1.733,1.733,0,0,0,1.094.409.95.95,0,0,0,.529-.132.4.4,0,0,0,.2-.348.482.482,0,0,0-.072-.288.648.648,0,0,0-.258-.186,5.213,5.213,0,0,0-.589-.2,1.933,1.933,0,0,1-.919-.475,1.061,1.061,0,0,1-.294-.763.985.985,0,0,1,.2-.613,1.31,1.31,0,0,1,.553-.421,2,2,0,0,1,.817-.15A2.222,2.222,0,0,1,1188.514,371.767Z" transform="translate(-1166.651 -369.664)" fill="#030303"/>
      <path id="Path_28268" data-name="Path 28268" d="M1247.4,361.419a2.063,2.063,0,0,1-.541.078,1.193,1.193,0,0,1-.919-.342,1.385,1.385,0,0,1-.306-.985V358.03H1245v-.715h.637v-.9l.985-.114v1.015h.943l-.1.709h-.847v2.121a.707.707,0,0,0,.1.427.381.381,0,0,0,.324.132.986.986,0,0,0,.487-.15l.348.637A1.64,1.64,0,0,1,1247.4,361.419Z" transform="translate(-1222.764 -355.585)" fill="#030303"/>
      <path id="Path_28269" data-name="Path 28269" d="M1304.709,371.36l-.168.955a1.489,1.489,0,0,0-.361-.048.676.676,0,0,0-.565.258,1.964,1.964,0,0,0-.33.793v2.163h-.985v-4.073h.853l.09.8a1.492,1.492,0,0,1,.42-.673.98.98,0,0,1,.637-.234A1.864,1.864,0,0,1,1304.709,371.36Z" transform="translate(-1276.621 -369.684)" fill="#030303"/>
      <path id="Path_28270" data-name="Path 28270" d="M1350.287,373.747h-2.553a1.367,1.367,0,0,0,.306.847.936.936,0,0,0,.685.252,1.44,1.44,0,0,0,.5-.09,2.543,2.543,0,0,0,.5-.27l.408.559a2.338,2.338,0,0,1-1.508.547,1.821,1.821,0,0,1-1.436-.565,2.255,2.255,0,0,1-.5-1.556,2.746,2.746,0,0,1,.216-1.117,1.713,1.713,0,0,1,.625-.775,1.685,1.685,0,0,1,.967-.282,1.652,1.652,0,0,1,1.322.541,2.238,2.238,0,0,1,.469,1.514A1.2,1.2,0,0,1,1350.287,373.747Zm-.955-.685c0-.715-.264-1.069-.793-1.069a.665.665,0,0,0-.565.264,1.545,1.545,0,0,0-.24.847h1.6v-.042Z" transform="translate(-1318.349 -369.68)" fill="#030303"/>
      <path id="Path_28271" data-name="Path 28271" d="M1419.873,374.655a.427.427,0,0,0,.234.174l-.21.655a1.259,1.259,0,0,1-.565-.168.842.842,0,0,1-.336-.427,1.265,1.265,0,0,1-.517.457,1.55,1.55,0,0,1-.7.15,1.316,1.316,0,0,1-.961-.348,1.222,1.222,0,0,1-.354-.907,1.156,1.156,0,0,1,.481-1.009,2.335,2.335,0,0,1,1.376-.354h.5v-.228a.719.719,0,0,0-.18-.553.832.832,0,0,0-.583-.15,3.3,3.3,0,0,0-1.075.216l-.228-.667a4.12,4.12,0,0,1,1.472-.294c1.039,0,1.562.469,1.562,1.4v1.712A.613.613,0,0,0,1419.873,374.655Zm-1.046-.372v-.829h-.408c-.637,0-.949.234-.949.709a.652.652,0,0,0,.144.457.552.552,0,0,0,.433.162.843.843,0,0,0,.781-.5Z" transform="translate(-1383.927 -369.59)" fill="#030303"/>
      <path id="Path_28272" data-name="Path 28272" d="M1496.989,371.154a1.326,1.326,0,0,1,.294.9V375h-.985v-2.788c0-.439-.15-.655-.444-.655a.634.634,0,0,0-.409.15,1.731,1.731,0,0,0-.355.457v2.83h-.985V372.2c0-.439-.15-.655-.445-.655a.667.667,0,0,0-.421.15,1.859,1.859,0,0,0-.354.457v2.83h-.985v-4.067h.853l.078.529a1.4,1.4,0,0,1,1.178-.649,1.018,1.018,0,0,1,.613.18.986.986,0,0,1,.379.5,1.715,1.715,0,0,1,.529-.511,1.308,1.308,0,0,1,.685-.174A1.074,1.074,0,0,1,1496.989,371.154Z" transform="translate(-1454.83 -369.207)" fill="#030303"/>
    </g>
    <g id="Group_41141" data-name="Group 41141" transform="translate(443.974 340.394)">
      <path id="Path_28273" data-name="Path 28273" d="M870.63,514.733V507.8H868.69v6.843a1.6,1.6,0,0,1-1.682,1.826,1.673,1.673,0,0,1-1.328-.565l-1.28,1.262a3.689,3.689,0,0,0,6.23-2.433Z" transform="translate(-864.4 -507.794)" fill="#00af92"/>
      <path id="Path_28274" data-name="Path 28274" d="M1042.2,516.165l.012.03.6,1.808h2.019l-3.761-10.3h-1.526L1035.8,518h2.019l.625-1.838Zm-1.838-5.581,1.334,3.965h-2.71Z" transform="translate(-1025.502 -507.7)" fill="#00af92"/>
      <path id="Path_28275" data-name="Path 28275" d="M1266.056,513.3v-.781c.006-1.382.018-2.68-1.039-3.737a3.725,3.725,0,0,0-2.71-.979H1258.6v10.3h3.707a3.706,3.706,0,0,0,2.71-.979C1266.074,516.067,1266.068,514.721,1266.056,513.3Zm-2.385,2.427a1.864,1.864,0,0,1-1.556.661h-1.58v-6.867h1.58a1.872,1.872,0,0,1,1.556.661h0c.384.469.451,1.093.451,2.728C1264.115,514.5,1264.055,515.25,1263.671,515.725Z" transform="translate(-1234.916 -507.794)" fill="#00af92"/>
      <path id="Path_28276" data-name="Path 28276" d="M1474.553,509.518V507.8H1467.8v10.3h6.753v-1.718h-4.812v-2.62h4.1v-1.718h-4.1v-2.529Z" transform="translate(-1431.548 -507.794)" fill="#00af92"/>
    </g>
    <g id="Group_41142" data-name="Group 41142" transform="translate(417.1 329.7)">
      <path id="Path_28277" data-name="Path 28277" d="M427.428,526.785l-3.5-3.485H417.1l10.328,10.3Z" transform="translate(-417.1 -511.668)" fill="#0a886f"/>
      <path id="Path_28278" data-name="Path 28278" d="M610.4,533.652,620.728,523.3h-6.819l-3.509,3.515Z" transform="translate(-598.786 -511.668)" fill="#00af92"/>
      <path id="Path_28279" data-name="Path 28279" d="M610.4,329.8v6.813l3.539,3.527h6.831Z" transform="translate(-598.786 -329.794)" fill="#87cdc2"/>
      <path id="Path_28280" data-name="Path 28280" d="M427.422,329.7,417.1,340.046h6.819l3.5-3.515Z" transform="translate(-417.1 -329.7)" fill="#fff"/>
    </g>
  </g>
</svg>
