<svg width="135" height="16" viewBox="0 0 135 16" fill="none" xmlns="http://www.w3.org/2000/svg">
<path d="M5.19981 8.26687C5.37676 8.44057 5.51342 8.65099 5.60014 8.88329C5.68687 9.11558 5.72155 9.36408 5.70171 9.61125C5.73375 9.95643 5.66921 10.3037 5.51545 10.6144C5.36168 10.9251 5.12471 11.187 4.83084 11.3709C4.07727 11.757 3.23577 11.9393 2.38998 11.8997H0V3.95886H2.07334C4.26419 3.95886 5.35963 4.63204 5.35963 5.97841C5.36867 6.18685 5.33605 6.39498 5.26372 6.59068C5.19139 6.78637 5.08075 6.9657 4.93833 7.11815C4.65771 7.41318 4.29237 7.61364 3.89277 7.69176C4.37449 7.75449 4.8281 7.9541 5.19981 8.26687ZM1.51163 7.20777H2.4363C2.78989 7.22691 3.13996 7.12928 3.43262 6.92993C3.55642 6.83047 3.65449 6.7027 3.71845 6.55735C3.78241 6.41201 3.81043 6.25339 3.80014 6.09493C3.81472 5.93926 3.78654 5.78254 3.71863 5.64171C3.65072 5.50088 3.54564 5.38128 3.41475 5.29576C3.0411 5.11512 2.62592 5.03777 2.21229 5.07171H1.49677L1.5057 7.20777H1.51163ZM3.67459 10.4941C3.82896 10.3919 3.95186 10.2488 4.02943 10.0807C4.107 9.91262 4.13618 9.72625 4.11377 9.5425C4.13082 9.35722 4.10128 9.17062 4.0277 8.99971C3.95412 8.82881 3.83887 8.67904 3.69255 8.56409C3.35411 8.34577 2.95484 8.24114 2.55281 8.26537H1.50716V10.742H2.38697C2.83224 10.7734 3.27799 10.6868 3.67915 10.4911L3.67459 10.4941Z" fill="white"/>
<path d="M8.47266 10.7615C8.50469 10.8008 8.54616 10.8313 8.59319 10.8501C8.64023 10.8689 8.69127 10.8754 8.74153 10.8691C8.8572 10.8695 8.97222 10.8513 9.08215 10.8153L9.39578 11.8475C9.06361 11.9824 8.70874 12.0524 8.35022 12.0536C8.15576 12.0674 7.96054 12.0394 7.77784 11.9713C7.59515 11.9033 7.42917 11.7969 7.29108 11.6593C7.02441 11.3349 6.89286 10.9204 6.92365 10.5016V3.37639L8.39499 3.21506V10.4031C8.39311 10.5269 8.41969 10.6496 8.47266 10.7615Z" fill="white"/>
<path d="M14.8374 6.4897C15.3696 7.15009 15.6359 7.98538 15.5843 8.83191C15.5985 9.41296 15.4822 9.98979 15.2438 10.5199C15.0317 10.9848 14.6885 11.3778 14.2564 11.6506C13.7964 11.9265 13.2675 12.0664 12.7313 12.054C12.3398 12.0768 11.9482 12.0121 11.5849 11.8646C11.2216 11.717 10.8957 11.4903 10.631 11.201C10.0931 10.536 9.82113 9.69499 9.86775 8.84089C9.85916 8.26324 9.97528 7.69051 10.2083 7.16187C10.4207 6.69948 10.764 6.30951 11.1957 6.04009C11.6594 5.7653 12.1909 5.62557 12.7298 5.63674C13.1225 5.61275 13.5155 5.67693 13.8802 5.82451C14.2449 5.9721 14.572 6.19936 14.8374 6.4897ZM11.4018 8.84089C11.3654 9.39239 11.4768 9.94362 11.7245 10.4377C11.8289 10.6028 11.9754 10.7372 12.149 10.8269C12.3225 10.9167 12.5167 10.9587 12.7119 10.9486C12.9066 10.9577 13.1001 10.9143 13.2723 10.8228C13.4444 10.7314 13.5888 10.5952 13.6902 10.4287C13.9418 9.94222 14.0565 9.39646 14.0219 8.84983C14.0609 8.30289 13.946 7.75598 13.6902 7.27096C13.5888 7.10717 13.4455 6.97343 13.275 6.88361C13.1046 6.7938 12.9132 6.75116 12.7208 6.76007C11.841 6.76007 11.4107 7.45166 11.4107 8.84235L11.4018 8.84089Z" fill="white"/>
<path d="M20.4824 5.80958C20.8119 5.9318 21.1157 6.11412 21.3786 6.34731L20.714 7.24357C20.5353 7.10452 20.3389 6.98999 20.1299 6.903C19.9252 6.8302 19.7093 6.79381 19.4921 6.79546C18.5764 6.79546 18.1192 7.48705 18.1192 8.87774C18.0728 9.40851 18.1987 9.94014 18.4779 10.3939C18.5988 10.5449 18.7536 10.665 18.9299 10.7444C19.1062 10.8239 19.2989 10.8604 19.4921 10.851C19.6961 10.8513 19.8985 10.8149 20.0896 10.7435C20.3015 10.6466 20.502 10.5263 20.6872 10.3849L21.3697 11.3454C20.8188 11.8057 20.1218 12.0541 19.404 12.046C18.8728 12.0591 18.3483 11.9258 17.8878 11.6606C17.4553 11.4042 17.1109 11.0223 16.9004 10.5657C16.6583 10.04 16.5417 9.46521 16.5598 8.88672C16.551 8.30037 16.6672 7.71887 16.9004 7.18085C17.1118 6.71305 17.4549 6.31699 17.8878 6.04111C18.3393 5.76065 18.8637 5.62032 19.3949 5.63781C19.7647 5.6307 20.1328 5.68884 20.4824 5.80958Z" fill="white"/>
<path d="M22.4571 11.8773V3.36287L23.9284 3.20154V11.8653L22.4571 11.8773ZM27.7615 11.8773H26.075L23.9837 8.55666L26.0123 5.80217H27.5658L25.5462 8.47602L27.7615 11.8773Z" fill="white"/>
<path d="M32.6611 6.35493L32.086 7.23474C31.6534 6.91207 31.1318 6.73057 30.5923 6.71492C30.3445 6.69962 30.0979 6.75896 29.8842 6.88523C29.8083 6.93079 29.7453 6.99509 29.7013 7.072C29.6574 7.1489 29.634 7.23579 29.6333 7.32436C29.6245 7.44601 29.6593 7.56686 29.7318 7.66498C29.8335 7.78182 29.963 7.87118 30.1083 7.92486C30.368 8.0332 30.635 8.12303 30.9074 8.19373C31.4427 8.31013 31.9435 8.55007 32.3698 8.89434C32.533 9.05091 32.66 9.24124 32.7421 9.45204C32.8241 9.66283 32.8592 9.88898 32.8448 10.1147C32.8527 10.3941 32.7893 10.671 32.6604 10.919C32.5315 11.1671 32.3416 11.3782 32.1085 11.5323C31.5704 11.8912 30.9322 12.0701 30.2859 12.0432C29.8187 12.0499 29.3541 11.974 28.9132 11.8191C28.525 11.6754 28.1662 11.4623 27.8542 11.1902L28.6011 10.3552C29.0587 10.7418 29.6362 10.9577 30.2352 10.9662C30.5122 10.9791 30.7869 10.9105 31.0253 10.769C31.1165 10.7163 31.1922 10.6405 31.2447 10.5492C31.2972 10.458 31.3246 10.3544 31.3242 10.2492C31.3345 10.098 31.2968 9.94747 31.2166 9.81896C31.1132 9.69577 30.9807 9.60027 30.8311 9.54111C30.5441 9.42411 30.2503 9.32437 29.9513 9.24239C29.4378 9.13499 28.9633 8.88968 28.5786 8.53284C28.4337 8.38136 28.3202 8.2026 28.2448 8.00696C28.1694 7.81132 28.1337 7.60268 28.1396 7.3931C28.1336 7.063 28.2387 6.74048 28.4382 6.47742C28.6519 6.19724 28.9373 5.97999 29.2643 5.84856C29.6509 5.68929 30.0667 5.61296 30.4847 5.6245C31.2739 5.60136 32.0456 5.86032 32.6611 6.35493Z" fill="white"/>
<path d="M36.803 11.9276C36.54 12.0021 36.2682 12.0413 35.9949 12.0441C35.7429 12.0611 35.4903 12.0243 35.2536 11.9362C35.017 11.8482 34.8016 11.7108 34.622 11.5333C34.2859 11.1199 34.1223 10.5929 34.1651 10.0619V6.86525H33.218V5.79722H34.1694V4.45284L35.6408 4.28253V5.79872H37.0494L36.9 6.85777H35.6349V10.026C35.6158 10.2491 35.6681 10.4725 35.7843 10.6639C35.8433 10.733 35.9181 10.787 36.0023 10.8213C36.0866 10.8556 36.1776 10.8692 36.2682 10.861C36.5261 10.8514 36.7771 10.7741 36.9958 10.637L37.5154 11.5885C37.2978 11.7393 37.0573 11.8538 36.803 11.9276Z" fill="white"/>
<path d="M41.9597 5.71712L41.7088 7.14368C41.5327 7.09781 41.3516 7.07372 41.1696 7.07198C41.0084 7.06408 40.8475 7.09495 40.7006 7.16201C40.5538 7.22907 40.4252 7.33034 40.3255 7.45736C40.0758 7.81101 39.9076 8.21553 39.8327 8.64191V11.8729H38.3613V5.78882H39.6354L39.7699 6.98386C39.8845 6.59828 40.1012 6.2509 40.3972 5.97855C40.6626 5.75244 41.0002 5.62847 41.3488 5.629C41.5551 5.63564 41.7599 5.66519 41.9597 5.71712Z" fill="white"/>
<path d="M47.7107 9.28858H43.8972C43.9023 9.74984 44.0634 10.1958 44.3543 10.5538C44.491 10.6818 44.6519 10.7812 44.8277 10.8458C45.0034 10.9105 45.1904 10.9392 45.3774 10.9302C45.6324 10.93 45.8853 10.8845 46.1243 10.7958C46.3876 10.6897 46.6381 10.5544 46.8712 10.3924L47.4808 11.2275C46.8498 11.757 46.0518 12.0464 45.2281 12.0446C44.8306 12.0695 44.4325 12.0068 44.0618 11.861C43.6912 11.7152 43.357 11.4897 43.083 11.2006C42.5522 10.5465 42.2857 9.7172 42.3361 8.8763C42.326 8.30369 42.436 7.73531 42.6589 7.20776C42.8486 6.73795 43.1735 6.33505 43.5925 6.0501C44.0198 5.76569 44.5236 5.61869 45.0368 5.62884C45.4055 5.6072 45.7743 5.66859 46.1161 5.80845C46.4579 5.94832 46.7639 6.16312 47.0116 6.43699C47.5132 7.08014 47.7623 7.88444 47.7122 8.69851C47.7443 8.89392 47.7438 9.09333 47.7107 9.28858ZM46.2842 8.26535C46.2842 7.19731 45.8897 6.66852 45.0995 6.66852C44.9374 6.66026 44.7757 6.69186 44.6286 6.76061C44.4814 6.82936 44.3534 6.93313 44.2557 7.06284C44.016 7.44089 43.8914 7.8805 43.8972 8.32808H46.2872V8.26535H46.2842Z" fill="white"/>
<path d="M53.6978 10.7794C53.7802 10.9043 53.904 10.9964 54.0474 11.0393L53.7336 12.0177C53.4363 12.002 53.1472 11.916 52.8897 11.7668C52.6565 11.6154 52.4799 11.3911 52.3877 11.1289C52.1985 11.4236 51.9312 11.66 51.6154 11.8116C51.2892 11.9668 50.9311 12.0435 50.5699 12.0356C50.308 12.0491 50.046 12.01 49.7995 11.9207C49.553 11.8315 49.3268 11.6938 49.1343 11.5158C48.958 11.3383 48.8201 11.1264 48.7291 10.8933C48.6382 10.6603 48.5961 10.411 48.6055 10.1609C48.5881 9.86946 48.6449 9.57831 48.7705 9.31473C48.8962 9.05114 49.0865 8.82371 49.3239 8.65373C49.9375 8.26824 50.6561 8.08341 51.3795 8.12493H52.1264V7.78436C52.1416 7.63554 52.1255 7.4852 52.0791 7.34295C52.0328 7.2007 51.9573 7.06967 51.8574 6.9583C51.6053 6.77753 51.2946 6.69761 50.9865 6.73424C50.437 6.75149 49.8944 6.86055 49.3808 7.0569L49.0402 6.06057C49.7401 5.78078 50.4854 5.63191 51.2391 5.6214C52.7911 5.6214 53.5722 6.32196 53.5722 7.71265V10.27C53.5634 10.4484 53.6072 10.6254 53.6978 10.7794ZM52.1353 10.2237V8.98537H51.5257C50.5742 8.98537 50.1082 9.33489 50.1082 10.0444C50.0907 10.291 50.1676 10.5351 50.3234 10.7271C50.4073 10.8118 50.5086 10.8773 50.6202 10.919C50.7319 10.9608 50.8512 10.9779 50.9701 10.9691C51.2163 10.9723 51.4581 10.9032 51.6654 10.7705C51.8728 10.6377 52.0366 10.4471 52.1368 10.2222L52.1353 10.2237Z" fill="white"/>
<path d="M62.9784 6.12185C63.2853 6.50067 63.4416 6.97932 63.4175 7.46623V11.8669H61.9462V7.70227C61.9462 7.04651 61.7222 6.72386 61.283 6.72386C61.0593 6.72404 60.8428 6.80341 60.672 6.94791C60.4582 7.1441 60.2789 7.37487 60.1417 7.63056V11.8579H58.6704V7.68436C58.6704 7.02859 58.4464 6.70594 58.0057 6.70594C57.7766 6.70609 57.5545 6.78521 57.3768 6.93C57.1661 7.12858 56.9876 7.35892 56.848 7.61265V11.84H55.3767V5.76487H56.6509L56.7674 6.55505C56.9558 6.25874 57.2156 6.01462 57.5231 5.84519C57.8306 5.67576 58.176 5.58651 58.5271 5.58562C58.8532 5.57467 59.1741 5.66893 59.4426 5.85449C59.7076 6.03517 59.9064 6.29741 60.0088 6.60137C60.2139 6.29278 60.4836 6.03233 60.7991 5.83803C61.1098 5.65914 61.4637 5.56925 61.8222 5.57815C62.0419 5.58475 62.2579 5.63642 62.4568 5.72995C62.6556 5.82348 62.8332 5.95686 62.9784 6.12185Z" fill="white"/>
<path d="M80.067 10.5908V0.234589H77.1691V10.4564C77.2199 10.8079 77.1917 11.1663 77.0866 11.5056C76.9816 11.8449 76.8022 12.1566 76.5616 12.4178C76.3209 12.679 76.0251 12.8833 75.6955 13.0159C75.366 13.1484 75.0111 13.2059 74.6565 13.184C74.2839 13.2003 73.9123 13.1329 73.5691 12.9869C73.2258 12.8409 72.9195 12.6198 72.6728 12.34L70.7609 14.2252C71.5196 14.9501 72.4696 15.4433 73.499 15.6468C74.5285 15.8503 75.5947 15.7556 76.5722 15.3739C77.5497 14.9921 78.3978 14.3392 79.0169 13.4919C79.636 12.6446 80.0003 11.6381 80.067 10.5908Z" fill="#00AF92"/>
<path d="M95.7036 12.8701L95.7217 12.9149L96.6179 15.6156H99.6338L94.0156 0.229919H91.7362L86.1437 15.6112H89.1595L90.0931 12.8656L95.7036 12.8701ZM92.9582 4.53346L94.9509 10.4562H90.9027L92.9582 4.53346Z" fill="#00AF92"/>
<path d="M117.277 8.44958V7.28294C117.286 5.21856 117.304 3.27971 115.725 1.7008C115.181 1.20044 114.543 0.813423 113.848 0.562339C113.153 0.311255 112.415 0.201133 111.677 0.238405H106.139V15.6242H111.677C112.415 15.663 113.153 15.5536 113.849 15.3024C114.544 15.0513 115.182 14.6635 115.725 14.1618C117.304 12.5829 117.295 10.5722 117.277 8.44958ZM113.714 12.0749C113.432 12.411 113.074 12.6757 112.67 12.8473C112.267 13.0188 111.828 13.0926 111.39 13.0623H109.03V2.80467H111.39C111.828 2.77539 112.266 2.84949 112.67 3.02102C113.074 3.19254 113.431 3.45669 113.714 3.79206C114.288 4.49263 114.388 5.42469 114.388 7.86699C114.377 10.2421 114.288 11.3624 113.714 12.0719V12.0749Z" fill="#00AF92"/>
<path d="M135 2.80062V0.234314H124.913V15.62H135V13.0538H127.812V9.14017H133.936V6.57386H127.812V2.79615L135 2.80062Z" fill="#00AF92"/>
</svg>
