<svg width="91" height="11" viewBox="0 0 91 11" fill="none" xmlns="http://www.w3.org/2000/svg">
<path d="M3.48395 5.88303C3.60241 5.99931 3.6939 6.14017 3.75195 6.29568C3.81001 6.4512 3.83323 6.61756 3.81995 6.78302C3.84139 7.0141 3.79819 7.24659 3.69525 7.45459C3.59231 7.66259 3.43368 7.8379 3.23694 7.961C2.73246 8.21947 2.16912 8.34152 1.60291 8.315H0.00292969V2.99902H1.39093C2.8576 2.99902 3.59094 3.44968 3.59094 4.35101C3.59699 4.49055 3.57515 4.62989 3.52673 4.76089C3.47831 4.8919 3.40424 5.01195 3.3089 5.11401C3.12104 5.31152 2.87646 5.44572 2.60895 5.49802C2.93144 5.54001 3.23511 5.67364 3.48395 5.88303ZM1.01489 5.17401H1.63391C1.87062 5.18682 2.10498 5.12146 2.3009 4.98801C2.38378 4.92143 2.44943 4.83589 2.49225 4.73859C2.53507 4.64129 2.55383 4.5351 2.54694 4.42902C2.5567 4.3248 2.53784 4.21989 2.49237 4.12561C2.44691 4.03133 2.37657 3.95126 2.28894 3.89401C2.0388 3.77308 1.76086 3.7213 1.48395 3.74402H1.00494L1.01093 5.17401H1.01489ZM2.46289 7.37402C2.56623 7.30564 2.64851 7.2098 2.70044 7.09729C2.75237 6.98478 2.7719 6.86001 2.7569 6.737C2.76831 6.61296 2.74854 6.48804 2.69928 6.37363C2.65002 6.25921 2.57287 6.15895 2.47491 6.082C2.24834 5.93585 1.98105 5.8658 1.71191 5.88202H1.0119V7.54001H1.60089C1.89898 7.56101 2.19739 7.50306 2.46594 7.37201L2.46289 7.37402Z" fill="white"/>
<path d="M5.67494 7.55298C5.69638 7.57926 5.72415 7.59965 5.75563 7.61224C5.78712 7.62484 5.82129 7.62921 5.85494 7.62497C5.93237 7.62522 6.00938 7.61309 6.08297 7.58899L6.29293 8.27997C6.07055 8.37028 5.83298 8.41712 5.59297 8.41797C5.46279 8.42719 5.3321 8.40843 5.2098 8.36288C5.08749 8.31734 4.97637 8.24608 4.88393 8.15396C4.70541 7.93683 4.61735 7.65931 4.63796 7.37897V2.60898L5.62294 2.50098V7.31299C5.62169 7.39591 5.63948 7.47801 5.67494 7.55298Z" fill="white"/>
<path d="M9.93587 4.69344C10.2921 5.13554 10.4704 5.69472 10.4359 6.26143C10.4454 6.65042 10.3675 7.03658 10.2079 7.39144C10.0659 7.70272 9.8362 7.96579 9.5469 8.14843C9.23892 8.33311 8.88491 8.42674 8.5259 8.41845C8.26384 8.43375 8.00166 8.39042 7.75844 8.29165C7.51523 8.19287 7.29708 8.04112 7.11989 7.84743C6.75977 7.40222 6.5777 6.83922 6.60891 6.26745C6.60316 5.88074 6.6809 5.49732 6.83687 5.14342C6.97909 4.83388 7.2089 4.57281 7.49788 4.39245C7.80836 4.20849 8.16412 4.11495 8.52492 4.12243C8.78781 4.10636 9.05092 4.14933 9.29506 4.24813C9.53921 4.34693 9.75814 4.49907 9.93587 4.69344ZM7.63589 6.26745C7.61152 6.63665 7.68609 7.00567 7.85189 7.33645C7.92181 7.44698 8.01991 7.5369 8.13607 7.59701C8.25223 7.65711 8.38229 7.6852 8.5129 7.67843C8.64326 7.68455 8.77283 7.65549 8.88808 7.59426C9.00333 7.53303 9.09998 7.44189 9.16787 7.33043C9.33629 7.00473 9.41307 6.63937 9.38991 6.27343C9.41604 5.90728 9.33909 5.54115 9.16787 5.21645C9.09996 5.10681 9.00401 5.01727 8.88991 4.95714C8.77581 4.89702 8.64771 4.86847 8.51888 4.87444C7.92988 4.87444 7.64187 5.33742 7.64187 6.26842L7.63589 6.26745Z" fill="white"/>
<path d="M13.7148 4.23804C13.9354 4.31986 14.1388 4.44191 14.3148 4.59802L13.8699 5.19803C13.7503 5.10494 13.6188 5.02826 13.4789 4.97003C13.3418 4.92129 13.1973 4.89693 13.0519 4.89804C12.4389 4.89804 12.1328 5.36102 12.1328 6.29202C12.1018 6.64735 12.186 7.00325 12.3729 7.30704C12.4539 7.40808 12.5575 7.48849 12.6755 7.54169C12.7936 7.59488 12.9226 7.61933 13.0519 7.61304C13.1885 7.61325 13.324 7.58887 13.4519 7.54104C13.5938 7.47619 13.728 7.39567 13.8519 7.30102L14.3088 7.94403C13.9401 8.25214 13.4735 8.41845 12.9929 8.41302C12.6373 8.4218 12.2862 8.33255 11.9779 8.15503C11.6884 7.98336 11.4578 7.72773 11.3169 7.42203C11.1548 7.07009 11.0767 6.68531 11.0889 6.29803C11.083 5.9055 11.1607 5.51622 11.3169 5.15603C11.4584 4.84287 11.6881 4.57772 11.9779 4.39303C12.2802 4.20528 12.6312 4.11134 12.9868 4.12305C13.2344 4.11829 13.4808 4.15721 13.7148 4.23804Z" fill="white"/>
<path d="M15.0369 8.3002V2.60019L16.0219 2.49219V8.29218L15.0369 8.3002ZM18.5879 8.3002H17.4589L16.0588 6.07718L17.4169 4.23318H18.4569L17.1049 6.02319L18.5879 8.3002Z" fill="white"/>
<path d="M21.8679 4.60322L21.4829 5.19221C21.1933 4.9762 20.8441 4.85469 20.4829 4.84422C20.3171 4.83397 20.152 4.8737 20.0089 4.95823C19.9581 4.98873 19.9159 5.03178 19.8865 5.08326C19.8571 5.13474 19.8414 5.19291 19.8409 5.25221C19.835 5.33365 19.8583 5.41455 19.9069 5.48023C19.9749 5.55846 20.0617 5.61827 20.1589 5.65421C20.3328 5.72674 20.5115 5.78688 20.6938 5.83421C21.0523 5.91213 21.3875 6.07276 21.6729 6.30323C21.7821 6.40805 21.8672 6.53547 21.9221 6.67658C21.977 6.8177 22.0005 6.9691 21.9908 7.12022C21.9962 7.30728 21.9537 7.49261 21.8674 7.65867C21.7812 7.82473 21.654 7.96604 21.4979 8.06922C21.1377 8.30951 20.7104 8.42927 20.2778 8.41123C19.9651 8.4157 19.654 8.3649 19.3589 8.26121C19.099 8.16503 18.8588 8.02239 18.6499 7.84022L19.1499 7.28123C19.4563 7.54004 19.8429 7.68458 20.2439 7.69023C20.4293 7.69886 20.6132 7.65295 20.7728 7.55821C20.8339 7.52296 20.8846 7.47222 20.9197 7.41111C20.9548 7.35 20.9732 7.2807 20.9729 7.21021C20.9798 7.10903 20.9546 7.00825 20.9009 6.92222C20.8317 6.83975 20.7429 6.77582 20.6428 6.73622C20.4506 6.65788 20.254 6.59112 20.0538 6.53623C19.71 6.46433 19.3924 6.30011 19.1349 6.06123C19.0379 5.95982 18.9618 5.84015 18.9114 5.70918C18.8609 5.5782 18.837 5.43853 18.8409 5.29823C18.8369 5.07724 18.9073 4.86133 19.0409 4.68522C19.184 4.49766 19.375 4.35221 19.5939 4.26423C19.8527 4.1576 20.1311 4.10651 20.4109 4.11424C20.9393 4.09874 21.4559 4.2721 21.8679 4.60322Z" fill="white"/>
<path d="M24.6412 8.33383C24.4652 8.38371 24.2832 8.40995 24.1002 8.41183C23.9316 8.4232 23.7624 8.39856 23.604 8.3396C23.4456 8.28064 23.3014 8.18869 23.1812 8.06982C22.9561 7.79313 22.8466 7.44032 22.8752 7.08484V4.94482H22.2412V4.22983H22.8782V3.32983L23.8632 3.21582V4.23083H24.8062L24.7062 4.93982H23.8593V7.06082C23.8465 7.21016 23.8815 7.35969 23.9592 7.48782C23.9988 7.53411 24.0489 7.57023 24.1052 7.5932C24.1616 7.61617 24.2226 7.62529 24.2832 7.61981C24.4559 7.61335 24.6239 7.56163 24.7703 7.46982L25.1182 8.10681C24.9725 8.20776 24.8115 8.28444 24.6412 8.33383Z" fill="white"/>
<path d="M28.0929 4.17618L27.9249 5.1312C27.807 5.10049 27.6858 5.08436 27.564 5.08319C27.456 5.0779 27.3483 5.09857 27.25 5.14346C27.1517 5.18835 27.0656 5.25615 26.9989 5.34119C26.8317 5.57794 26.7191 5.84874 26.6689 6.13419V8.29718H25.684V4.22418H26.5369L26.627 5.0242C26.7037 4.76608 26.8487 4.53352 27.0469 4.3512C27.2246 4.19982 27.4505 4.11684 27.684 4.11719C27.8221 4.12164 27.9592 4.14141 28.0929 4.17618Z" fill="white"/>
<path d="M31.9429 6.56711H29.3899C29.3933 6.8759 29.5012 7.17443 29.6959 7.41409C29.7874 7.49984 29.8952 7.56633 30.0128 7.60962C30.1305 7.65291 30.2556 7.67212 30.3809 7.66611C30.5516 7.66598 30.7209 7.63551 30.8809 7.57611C31.0571 7.50507 31.2248 7.41449 31.3809 7.30609L31.789 7.86511C31.3665 8.21958 30.8323 8.41332 30.2809 8.41211C30.0148 8.42881 29.7483 8.38685 29.5001 8.28922C29.252 8.19159 29.0283 8.04068 28.8449 7.84711C28.4895 7.40921 28.3111 6.85405 28.3449 6.29111C28.3381 5.90778 28.4117 5.52728 28.5609 5.1741C28.6879 4.85959 28.9055 4.58987 29.1859 4.39911C29.472 4.20871 29.8093 4.1103 30.1529 4.1171C30.3996 4.10261 30.6466 4.1437 30.8754 4.23734C31.1042 4.33097 31.309 4.47477 31.4749 4.65811C31.8107 5.08867 31.9775 5.62711 31.9439 6.17209C31.9654 6.30291 31.965 6.4364 31.9429 6.56711ZM30.9879 5.88211C30.9879 5.16711 30.7238 4.81311 30.1948 4.81311C30.0863 4.80758 29.978 4.82873 29.8795 4.87476C29.781 4.92078 29.6953 4.99025 29.6299 5.07709C29.4695 5.33017 29.3861 5.62447 29.3899 5.9241H30.9899V5.88211H30.9879Z" fill="white"/>
<path d="M35.9509 7.56531C36.0061 7.64897 36.0889 7.71057 36.1849 7.73932L35.9748 8.39432C35.7759 8.38382 35.5823 8.32624 35.4099 8.22632C35.2538 8.12503 35.1356 7.97487 35.0738 7.79932C34.9472 7.99662 34.7682 8.15484 34.5569 8.25632C34.3384 8.36025 34.0988 8.41162 33.8569 8.40631C33.6816 8.41533 33.5062 8.38917 33.3412 8.32941C33.1761 8.26964 33.0247 8.17748 32.8959 8.05832C32.7778 7.93947 32.6855 7.79763 32.6246 7.6416C32.5637 7.48557 32.5356 7.31868 32.5419 7.15131C32.5302 6.95617 32.5682 6.76127 32.6523 6.58481C32.7365 6.40835 32.8639 6.2561 33.0228 6.1423C33.4336 5.88424 33.9146 5.7605 34.3989 5.7883H34.8989V5.5603C34.9091 5.46067 34.8983 5.36003 34.8673 5.2648C34.8363 5.16957 34.7857 5.08185 34.7189 5.00729C34.5501 4.88628 34.3421 4.83278 34.1359 4.8573C33.768 4.86885 33.4047 4.94186 33.0609 5.0733L32.8329 4.40631C33.3014 4.219 33.8004 4.11934 34.3049 4.1123C35.3439 4.1123 35.8668 4.5813 35.8668 5.5123V7.2243C35.861 7.34373 35.8903 7.46227 35.9509 7.56531ZM34.9049 7.1933V6.36432H34.4968C33.8598 6.36432 33.5478 6.5983 33.5478 7.0733C33.5361 7.23839 33.5876 7.40177 33.6919 7.5303C33.7481 7.587 33.8159 7.63085 33.8906 7.65881C33.9654 7.68678 34.0453 7.69823 34.1249 7.69232C34.2897 7.69445 34.4515 7.64822 34.5903 7.55936C34.7291 7.47049 34.8388 7.34289 34.9059 7.19232L34.9049 7.1933Z" fill="white"/>
<path d="M42.1639 4.44739C42.3694 4.70099 42.474 5.02143 42.4579 5.34739V8.2934H41.4729V5.50541C41.4729 5.06641 41.3229 4.85041 41.0289 4.85041C40.8792 4.85053 40.7342 4.90366 40.6199 5.0004C40.4767 5.13174 40.3567 5.28623 40.2649 5.4574V8.28739H39.2799V5.49341C39.2799 5.05441 39.13 4.83842 38.835 4.83842C38.6816 4.83851 38.5328 4.89148 38.4139 4.98841C38.2728 5.12135 38.1534 5.27555 38.0599 5.44541V8.2754H37.075V4.20841H37.928L38.006 4.7374C38.1321 4.53903 38.306 4.3756 38.5118 4.26218C38.7177 4.14876 38.9489 4.08901 39.184 4.08842C39.4023 4.08108 39.6172 4.14418 39.7969 4.26841C39.9743 4.38936 40.1074 4.56492 40.1759 4.76841C40.3132 4.56182 40.4937 4.38746 40.705 4.25739C40.913 4.13763 41.1499 4.07746 41.3899 4.08341C41.537 4.08783 41.6816 4.12242 41.8147 4.18503C41.9478 4.24765 42.0667 4.33694 42.1639 4.44739Z" fill="white"/>
<path d="M53.6039 7.43884V0.505859H51.6639V7.34888C51.6979 7.58421 51.6791 7.82413 51.6087 8.05127C51.5384 8.2784 51.4183 8.48704 51.2572 8.66193C51.0961 8.83682 50.898 8.97359 50.6774 9.06232C50.4568 9.15105 50.2192 9.1895 49.9819 9.17487C49.7324 9.18578 49.4836 9.14067 49.2538 9.04291C49.024 8.94514 48.819 8.79718 48.6539 8.60986L47.3739 9.87189C47.8818 10.3572 48.5178 10.6874 49.207 10.8236C49.8962 10.9598 50.6099 10.8964 51.2643 10.6409C51.9187 10.3853 52.4865 9.94822 52.9009 9.38098C53.3154 8.81374 53.5593 8.13994 53.6039 7.43884Z" fill="#00AF92"/>
<path d="M64.0718 8.9649L64.0839 8.99493L64.6838 10.8029H66.7029L62.9418 0.50293H61.4158L57.6719 10.7999H59.6908L60.3158 8.96191L64.0718 8.9649ZM62.2339 3.38394L63.5679 7.34894H60.8578L62.2339 3.38394Z" fill="#00AF92"/>
<path d="M78.5135 6.00563V5.22462C78.5195 3.84262 78.5315 2.54465 77.4745 1.48765C77.1104 1.15268 76.6833 0.893593 76.218 0.725505C75.7527 0.557417 75.2586 0.483696 74.7645 0.508647H71.0575V10.8087H74.7645C75.2587 10.8347 75.7531 10.7614 76.2185 10.5933C76.6839 10.4251 77.111 10.1655 77.4745 9.82966C78.5315 8.77266 78.5255 7.42663 78.5135 6.00563ZM76.1285 8.43263C75.9396 8.65764 75.7002 8.83478 75.4298 8.94966C75.1594 9.06453 74.8656 9.11388 74.5725 9.09364H72.9926V2.22663H74.5725C74.8655 2.20703 75.1591 2.25664 75.4294 2.37147C75.6997 2.4863 75.9392 2.66314 76.1285 2.88765C76.5125 3.35665 76.5795 3.98061 76.5795 5.61561C76.5725 7.20561 76.5125 7.95561 76.1285 8.43061V8.43263Z" fill="#00AF92"/>
<path d="M90.3789 2.22388V0.505859H83.626V10.8058H90.3789V9.08789H85.5669V6.4679H89.6669V4.74988H85.5669V2.22089L90.3789 2.22388Z" fill="#00AF92"/>
</svg>
