<svg width="15" height="15" viewBox="0 0 15 15" fill="none" xmlns="http://www.w3.org/2000/svg">
<path d="M7.32539 14.9999C7.10469 14.9144 6.86641 14.8585 6.66758 14.7374C6.19883 14.4519 5.96055 14.012 5.92148 13.4647C5.91836 13.4214 5.9168 13.3776 5.91367 13.3155H5.03125V11.3647H10.027V13.3101H9.15703C9.1375 13.4624 9.13477 13.6046 9.09961 13.7397C8.92227 14.4167 8.49141 14.8335 7.80156 14.9753C7.77892 14.9817 7.75684 14.9899 7.73555 14.9999H7.32539Z" fill="#FAFAFA"/>
<path d="M7.94141 0V1.17734H7.0625V0H7.94141Z" fill="#FAFAFA"/>
<path d="M7.97204 10.4537C7.97204 9.97281 7.97204 9.4857 7.97634 8.99859C7.97634 8.95953 8.02985 8.91226 8.0697 8.88609C8.40017 8.66929 8.73376 8.45641 9.06657 8.24508C9.10059 8.22772 9.12865 8.2006 9.14717 8.1672C9.16568 8.13379 9.17379 8.09562 9.17048 8.05758C9.16618 7.66305 9.17048 7.26851 9.17048 6.86461H8.29157C8.29157 7.08297 8.28298 7.30523 8.2947 7.52867C8.30173 7.65797 8.26032 7.73297 8.14821 7.79586C7.9697 7.89625 7.79977 8.01187 7.63024 8.12672C7.56618 8.17047 7.51774 8.18062 7.44821 8.13336C7.25485 8.00133 7.0529 7.88179 6.86228 7.74781C6.83953 7.72976 6.82064 7.70731 6.80675 7.68181C6.79286 7.65631 6.78424 7.62827 6.78142 7.59937C6.77321 7.35679 6.7779 7.11422 6.7779 6.86461H5.90173C5.89938 6.91304 5.89548 6.96031 5.89509 7.00719C5.89509 7.33414 5.90485 7.66187 5.8904 7.98805C5.88376 8.13765 5.94001 8.21539 6.05954 8.28883C6.37985 8.48414 6.69391 8.69078 7.0068 8.8982C7.02885 8.91359 7.04748 8.93336 7.06152 8.95628C7.07557 8.97921 7.08474 9.00478 7.08845 9.03141C7.09431 9.49039 7.09196 9.94898 7.09157 10.408C7.08954 10.43 7.08615 10.4519 7.08142 10.4736C7.03102 10.4759 6.98376 10.4798 6.9361 10.4798C6.32595 10.4798 5.71579 10.4798 5.10563 10.4822C5.00602 10.4822 4.96345 10.4517 4.91032 10.3603C4.78845 10.1466 4.66149 9.92476 4.48962 9.75367C3.78102 9.05055 3.30954 8.22437 3.16423 7.23531C2.91774 5.55836 3.44626 4.14937 4.75876 3.08492C6.06345 2.0275 7.5572 1.79351 9.12126 2.39937C10.7072 3.01422 11.6552 4.21304 11.9084 5.89547C12.1267 7.34703 11.674 8.61344 10.6486 9.66539C10.4318 9.88765 10.2236 10.1087 10.1201 10.4076C10.1114 10.4253 10.0985 10.4407 10.0826 10.4525C10.0667 10.4642 10.0482 10.472 10.0287 10.4752C9.35524 10.4779 8.68141 10.4752 8.00798 10.4752C8.00095 10.4736 7.99274 10.465 7.97204 10.4537Z" fill="#FAFAFA"/>
<path d="M0.984375 6.94414V6.09375H2.16133V6.94492L0.984375 6.94414Z" fill="#FAFAFA"/>
<path d="M14.0203 6.95313H12.8438V6.09375H14.0203V6.95313Z" fill="#FAFAFA"/>
<path d="M11.9023 3.47402L12.9328 2.87988L13.3738 3.63887L12.343 4.23496L11.9023 3.47402Z" fill="#FAFAFA"/>
<path d="M3.85938 1.09365L4.61992 0.653809C4.82109 1.00186 5.01523 1.33818 5.21484 1.68428L4.45469 2.12178L3.85938 1.09365Z" fill="#FAFAFA"/>
<path d="M9.78906 1.68223L10.3836 0.651367L11.1445 1.09043L10.5488 2.1209L9.78906 1.68223Z" fill="#FAFAFA"/>
<path d="M2.07148 2.87842L3.10117 3.47256C2.95625 3.72529 2.81484 3.97178 2.66406 4.23389L1.63281 3.63975L2.07148 2.87842Z" fill="#FAFAFA"/>
</svg>
