<svg width="14" height="15" viewBox="0 0 14 15" fill="none" xmlns="http://www.w3.org/2000/svg">
<path d="M6.82539 14.9999C6.60469 14.9144 6.36641 14.8585 6.16758 14.7374C5.69883 14.4519 5.46055 14.012 5.42148 13.4647C5.41836 13.4214 5.4168 13.3776 5.41367 13.3155H4.53125V11.3647H9.52695V13.3101H8.65703C8.6375 13.4624 8.63477 13.6046 8.59961 13.7397C8.42227 14.4167 7.99141 14.8335 7.30156 14.9753C7.27892 14.9817 7.25684 14.9899 7.23555 14.9999H6.82539Z" fill="#F7F2EC"/>
<path d="M7.44141 0V1.17734H6.5625V0H7.44141Z" fill="#F7F2EC"/>
<path d="M7.47204 10.4537C7.47204 9.97281 7.47204 9.4857 7.47634 8.99859C7.47634 8.95953 7.52985 8.91226 7.5697 8.88609C7.90017 8.66929 8.23376 8.45641 8.56657 8.24508C8.60059 8.22772 8.62865 8.2006 8.64717 8.1672C8.66568 8.13379 8.67379 8.09562 8.67048 8.05758C8.66618 7.66305 8.67048 7.26851 8.67048 6.86461H7.79157C7.79157 7.08297 7.78298 7.30523 7.7947 7.52867C7.80173 7.65797 7.76032 7.73297 7.64821 7.79586C7.4697 7.89625 7.29977 8.01187 7.13024 8.12672C7.06618 8.17047 7.01774 8.18062 6.94821 8.13336C6.75485 8.00133 6.5529 7.88179 6.36228 7.74781C6.33953 7.72976 6.32064 7.70731 6.30675 7.68181C6.29286 7.65631 6.28424 7.62827 6.28142 7.59937C6.27321 7.35679 6.2779 7.11422 6.2779 6.86461H5.40173C5.39938 6.91304 5.39548 6.96031 5.39509 7.00719C5.39509 7.33414 5.40485 7.66187 5.3904 7.98805C5.38376 8.13765 5.44001 8.21539 5.55954 8.28883C5.87985 8.48414 6.19391 8.69078 6.5068 8.8982C6.52885 8.91359 6.54748 8.93336 6.56152 8.95628C6.57557 8.97921 6.58474 9.00478 6.58845 9.03141C6.59431 9.49039 6.59196 9.94898 6.59157 10.408C6.58954 10.43 6.58615 10.4519 6.58142 10.4736C6.53102 10.4759 6.48376 10.4798 6.4361 10.4798C5.82595 10.4798 5.21579 10.4798 4.60563 10.4822C4.50602 10.4822 4.46345 10.4517 4.41032 10.3603C4.28845 10.1466 4.16149 9.92476 3.98962 9.75367C3.28102 9.05055 2.80954 8.22437 2.66423 7.23531C2.41774 5.55836 2.94626 4.14937 4.25876 3.08492C5.56345 2.0275 7.0572 1.79351 8.62126 2.39937C10.2072 3.01422 11.1552 4.21304 11.4084 5.89547C11.6267 7.34703 11.174 8.61344 10.1486 9.66539C9.93181 9.88765 9.7236 10.1087 9.62009 10.4076C9.61136 10.4253 9.5985 10.4407 9.5826 10.4525C9.5667 10.4642 9.54821 10.472 9.52868 10.4752C8.85524 10.4779 8.18141 10.4752 7.50798 10.4752C7.50095 10.4736 7.49274 10.465 7.47204 10.4537Z" fill="#F7F2EC"/>
<path d="M0.484375 6.94414V6.09375H1.66133V6.94492L0.484375 6.94414Z" fill="#F7F2EC"/>
<path d="M13.5203 6.95313H12.3438V6.09375H13.5203V6.95313Z" fill="#F7F2EC"/>
<path d="M11.4023 3.47402L12.4328 2.87988L12.8738 3.63887L11.843 4.23496L11.4023 3.47402Z" fill="#F7F2EC"/>
<path d="M3.35938 1.09365L4.11992 0.653809C4.32109 1.00186 4.51523 1.33818 4.71484 1.68428L3.95469 2.12178L3.35938 1.09365Z" fill="#F7F2EC"/>
<path d="M9.28906 1.68223L9.8836 0.651367L10.6445 1.09043L10.0488 2.1209L9.28906 1.68223Z" fill="#F7F2EC"/>
<path d="M1.57148 2.87842L2.60117 3.47256C2.45625 3.72529 2.31484 3.97178 2.16406 4.23389L1.13281 3.63975L1.57148 2.87842Z" fill="#F7F2EC"/>
</svg>
