<svg width="212" height="70" viewBox="0 0 212 70" fill="none" xmlns="http://www.w3.org/2000/svg">
<path fill-rule="evenodd" clip-rule="evenodd" d="M55.1079 35C55.1079 56 27.5539 70 27.5539 70C27.5539 70 0 56 0 35V10.5L27.5539 0L55.1079 10.5V35ZM26.999 32.9393L15.4148 24.6302C15.2715 24.5275 15.1863 24.3604 15.1863 24.1822L15.1863 20.0548C15.1863 19.6061 15.6876 19.3473 16.0442 19.6118L27.2978 27.9599C27.4871 28.1002 27.7438 28.1005 27.9333 27.9605L39.2137 19.629C39.5704 19.3655 40.0706 19.6245 40.0706 20.0726V24.0877C40.0706 24.2651 39.9862 24.4315 39.8441 24.5344L28.2342 32.9393L27.9026 33.1499C27.7276 33.261 27.5056 33.261 27.3306 33.1499L26.999 32.9393ZM15.7264 42.4395C15.4287 42.44 15.1876 42.6854 15.1876 42.9879V46.2763C15.1876 46.5792 15.4293 46.8247 15.7273 46.8247L39.5061 46.8248C39.8041 46.8248 40.0458 46.5793 40.0458 46.2764V42.968C40.0458 42.6651 39.8041 42.4195 39.5061 42.4195L30.1707 42.4199C29.6512 42.4199 29.4317 41.7471 29.8483 41.4317L39.8517 33.858C39.9884 33.7545 40.0689 33.5915 40.0689 33.4183V29.3958C40.0689 28.9477 39.5687 28.6887 39.212 28.9522L27.9316 37.2837C27.7421 37.4237 27.4854 37.4234 27.2961 37.2831L16.0425 28.935C15.6859 28.6705 15.1846 28.9293 15.1846 29.378V33.5127C15.1846 33.6868 15.266 33.8506 15.4038 33.954L25.3748 41.4332C25.7934 41.7471 25.5755 42.4219 25.0553 42.4228L15.7264 42.4395Z" fill="#F6F2ED"/>
<path d="M75.2944 14.6203V4.87342H78.8558C79.5459 4.87342 80.1173 4.98764 80.57 5.21608C81.0227 5.44135 81.3614 5.74752 81.5862 6.1346C81.811 6.51851 81.9233 6.9516 81.9233 7.43387C81.9233 7.83998 81.849 8.18265 81.7002 8.46185C81.5514 8.73789 81.3519 8.95998 81.1019 9.12814C80.8549 9.29313 80.5827 9.41369 80.2851 9.48984V9.58502C80.608 9.60089 80.923 9.70559 81.2301 9.89913C81.5403 10.0895 81.7967 10.3608 81.9993 10.713C82.2019 11.0651 82.3032 11.4935 82.3032 11.9979C82.3032 12.4961 82.1861 12.9434 81.9518 13.34C81.7207 13.7335 81.363 14.046 80.8787 14.2776C80.3943 14.506 79.7754 14.6203 79.022 14.6203H75.2944ZM76.7617 13.3591H78.8796C79.5823 13.3591 80.0857 13.2226 80.3896 12.9498C80.6935 12.6769 80.8454 12.3358 80.8454 11.9265C80.8454 11.6188 80.7679 11.3364 80.6128 11.0794C80.4576 10.8224 80.236 10.6178 79.948 10.4655C79.6631 10.3132 79.3243 10.237 78.9318 10.237H76.7617V13.3591ZM76.7617 9.09007H78.7276C79.0568 9.09007 79.3528 9.02661 79.6156 8.8997C79.8815 8.77279 80.092 8.59511 80.2471 8.36667C80.4054 8.13505 80.4846 7.86219 80.4846 7.54809C80.4846 7.14514 80.3437 6.80724 80.0619 6.53438C79.7802 6.26152 79.3481 6.12509 78.7656 6.12509H76.7617V9.09007Z" fill="#F6F2ED"/>
<path d="M92.0214 4.87342V14.6203H90.5541V4.87342H92.0214Z" fill="#F6F2ED"/>
<path d="M100.273 6.13936V4.87342H107.8V6.13936H104.765V14.6203H103.303V6.13936H100.273Z" fill="#F6F2ED"/>
<path d="M124.218 8.08839H122.776C122.721 7.77956 122.617 7.50778 122.466 7.27307C122.315 7.03835 122.131 6.83915 121.912 6.67547C121.693 6.51179 121.448 6.38825 121.177 6.30487C120.909 6.22148 120.624 6.17979 120.322 6.17979C119.776 6.17979 119.288 6.31722 118.857 6.59209C118.428 6.86695 118.089 7.26998 117.84 7.80117C117.593 8.33237 117.47 8.98092 117.47 9.74684C117.47 10.5189 117.593 11.1706 117.84 11.7018C118.089 12.233 118.43 12.6344 118.861 12.9062C119.293 13.178 119.778 13.3139 120.317 13.3139C120.616 13.3139 120.9 13.2737 121.168 13.1934C121.439 13.1101 121.684 12.9881 121.903 12.8275C122.121 12.6669 122.306 12.4708 122.457 12.2391C122.611 12.0044 122.718 11.7357 122.776 11.4331L124.218 11.4377C124.141 11.904 123.992 12.3333 123.77 12.7255C123.551 13.1147 123.269 13.4513 122.924 13.7354C122.582 14.0165 122.191 14.2342 121.75 14.3886C121.309 14.543 120.829 14.6203 120.308 14.6203C119.488 14.6203 118.758 14.4257 118.117 14.0366C117.476 13.6443 116.971 13.0838 116.601 12.3549C116.234 11.6261 116.051 10.7567 116.051 9.74684C116.051 8.73386 116.236 7.86449 116.606 7.13872C116.975 6.40987 117.481 5.85088 118.122 5.46175C118.763 5.06953 119.491 4.87342 120.308 4.87342C120.81 4.87342 121.279 4.94599 121.713 5.09115C122.151 5.23321 122.543 5.44322 122.892 5.72117C123.24 5.99603 123.528 6.33266 123.756 6.73106C123.984 7.12637 124.138 7.57881 124.218 8.08839Z" fill="#F6F2ED"/>
<path d="M140.998 9.74684C140.998 10.7598 140.813 11.6307 140.443 12.3596C140.073 13.0853 139.566 13.6443 138.922 14.0366C138.281 14.4257 137.553 14.6203 136.736 14.6203C135.916 14.6203 135.185 14.4257 134.54 14.0366C133.9 13.6443 133.394 13.0838 133.024 12.3549C132.655 11.6261 132.47 10.7567 132.47 9.74684C132.47 8.73386 132.655 7.86449 133.024 7.13872C133.394 6.40987 133.9 5.85088 134.54 5.46175C135.185 5.06953 135.916 4.87342 136.736 4.87342C137.553 4.87342 138.281 5.06953 138.922 5.46175C139.566 5.85088 140.073 6.40987 140.443 7.13872C140.813 7.86449 140.998 8.73386 140.998 9.74684ZM139.583 9.74684C139.583 8.97475 139.458 8.32465 139.209 7.79654C138.962 7.26535 138.623 6.86386 138.192 6.59209C137.764 6.31722 137.278 6.17979 136.736 6.17979C136.191 6.17979 135.704 6.31722 135.275 6.59209C134.847 6.86386 134.508 7.26535 134.259 7.79654C134.012 8.32465 133.889 8.97475 133.889 9.74684C133.889 10.5189 134.012 11.1706 134.259 11.7018C134.508 12.2299 134.847 12.6314 135.275 12.9062C135.704 13.178 136.191 13.3139 136.736 13.3139C137.278 13.3139 137.764 13.178 138.192 12.9062C138.623 12.6314 138.962 12.2299 139.209 11.7018C139.458 11.1706 139.583 10.5189 139.583 9.74684Z" fill="#F6F2ED"/>
<path d="M150.716 4.87342V14.6203H149.249V4.87342H150.716Z" fill="#F6F2ED"/>
<path d="M166.817 4.87342V14.6203H165.469L160.526 7.47194H160.435V14.6203H158.968V4.87342H160.326L165.274 12.0312H165.364V4.87342H166.817Z" fill="#F6F2ED"/>
<path d="M194.911 52.9869C195.768 52.9869 196.367 52.7865 196.71 52.3859C197.053 51.9853 197.253 51.4272 197.31 50.7118C197.395 49.9964 197.438 49.1665 197.438 48.2221V39.2936C197.438 38.8358 197.438 38.3493 197.438 37.8342C197.467 37.2904 197.524 36.761 197.609 36.2459C197.124 36.2745 196.61 36.3031 196.068 36.3318C195.525 36.3318 195.025 36.3461 194.569 36.3747V34.0996H196.025C197.224 34.0996 198.138 33.9709 198.766 33.7133C199.394 33.4557 199.851 33.1839 200.136 32.8977H201.678C201.735 33.2984 201.778 33.8564 201.807 34.5718C201.835 35.2872 201.864 36.0885 201.892 36.9756C202.435 36.1744 203.063 35.4589 203.777 34.8294C204.491 34.1712 205.262 33.6418 206.09 33.2411C206.946 32.8405 207.831 32.6402 208.745 32.6402C209.63 32.6402 210.387 32.8834 211.015 33.3699C211.672 33.8278 212 34.5861 212 35.645C212 35.9311 211.914 36.2602 211.743 36.6322C211.6 37.0043 211.343 37.3334 210.972 37.6195C210.629 37.8771 210.158 38.0059 209.559 38.0059C208.959 37.9772 208.431 37.7483 207.974 37.319C207.546 36.8898 207.346 36.3031 207.374 35.5591C206.689 35.5591 206.004 35.7737 205.319 36.203C204.633 36.6036 203.991 37.1473 203.391 37.8342C202.82 38.521 202.335 39.265 201.935 40.0663V49.467C201.935 49.9821 201.921 50.5115 201.892 51.0552C201.892 51.5703 201.85 52.0997 201.764 52.6435C202.221 52.6148 202.692 52.6005 203.177 52.6005C203.663 52.5719 204.105 52.5433 204.505 52.5147V54.7897H194.911V52.9869Z" fill="#F6F2ED"/>
<path d="M182.84 54.8525C180.896 54.8525 179.146 54.4071 177.591 53.5164C176.063 52.5978 174.855 51.3174 173.966 49.6752C173.078 48.0051 172.633 46.0427 172.633 43.7881C172.633 41.8396 173.064 40.0164 173.925 38.3185C174.814 36.6206 176.049 35.2566 177.632 34.2268C179.215 33.169 181.048 32.6402 183.131 32.6402C184.298 32.6402 185.395 32.8211 186.422 33.1829C187.478 33.5448 188.408 34.1154 189.214 34.8948C190.047 35.6463 190.699 36.6345 191.171 37.8592C191.644 39.0561 191.88 40.5175 191.88 42.2432L177.549 42.4937C177.549 44.3865 177.757 46.0705 178.174 47.5458C178.618 49.0211 179.327 50.1623 180.299 50.9695C181.271 51.7767 182.534 52.1803 184.09 52.1803C184.839 52.1803 185.631 52.0551 186.464 51.8046C187.325 51.5262 188.13 51.1365 188.88 50.6355C189.658 50.1345 190.311 49.536 190.838 48.8401L192.13 49.9674C191.296 51.22 190.338 52.2082 189.255 52.9319C188.172 53.6277 187.061 54.1149 185.923 54.3932C184.812 54.6994 183.784 54.8525 182.84 54.8525ZM177.716 40.3226H187.339C187.339 39.2649 187.186 38.3185 186.881 37.4834C186.603 36.6206 186.159 35.9386 185.548 35.4376C184.937 34.9365 184.159 34.686 183.215 34.686C181.743 34.686 180.535 35.1592 179.59 36.1056C178.646 37.0242 178.021 38.4298 177.716 40.3226Z" fill="#F6F2ED"/>
<path d="M147.569 64.8313V63.0777C148.402 63.0777 148.985 62.8829 149.318 62.4932C149.652 62.1035 149.846 61.5607 149.902 60.8648C149.985 60.169 150.027 59.3618 150.027 58.4432L150.068 39.1118C150.068 38.6664 150.082 38.1932 150.11 37.6922C150.138 37.1633 150.179 36.6484 150.235 36.1474C149.763 36.1752 149.263 36.203 148.735 36.2309C148.207 36.2309 147.721 36.2448 147.277 36.2726V34.0597C148.527 34.0597 149.499 34.0041 150.193 33.8927C150.915 33.7536 151.457 33.6005 151.818 33.4335C152.207 33.2664 152.498 33.0855 152.693 32.8907H154.192C154.22 33.169 154.248 33.503 154.276 33.8927C154.303 34.2824 154.331 34.6721 154.359 35.0618C155.248 34.2824 156.234 33.684 157.317 33.2664C158.4 32.8489 159.483 32.6402 160.566 32.6402C162.177 32.6402 163.649 33.0716 164.982 33.9345C166.343 34.7695 167.426 35.9664 168.231 37.5252C169.064 39.084 169.481 40.935 169.481 43.0783C169.481 45.3886 169.009 47.4345 168.065 49.2159C167.12 50.9973 165.843 52.3891 164.232 53.3911C162.649 54.3654 160.886 54.8525 158.941 54.8525C158.053 54.8525 157.233 54.7411 156.484 54.5185C155.734 54.3236 155.026 54.0453 154.359 53.6834V59.654C154.359 60.1551 154.345 60.6561 154.317 61.1571C154.317 61.686 154.29 62.2148 154.234 62.7437C154.678 62.7159 155.123 62.688 155.567 62.6602C156.039 62.6602 156.47 62.6463 156.859 62.6184V64.8313H147.569ZM158.65 52.6814C159.983 52.6814 161.08 52.2917 161.941 51.5123C162.83 50.7051 163.482 49.6334 163.899 48.2973C164.343 46.9334 164.565 45.4025 164.565 43.7046C164.565 42.285 164.371 40.935 163.982 39.6546C163.593 38.3463 162.968 37.2886 162.107 36.4814C161.274 35.6463 160.177 35.2427 158.816 35.2706C157.956 35.2706 157.136 35.4793 156.359 35.8969C155.581 36.3144 154.928 36.8293 154.401 37.4417C154.401 37.8036 154.401 38.1932 154.401 38.6108C154.428 39.0283 154.442 39.5572 154.442 40.1974C154.442 40.8097 154.442 41.603 154.442 42.5773C154.442 43.5236 154.428 44.7205 154.401 46.168C154.401 47.5876 154.401 49.3133 154.401 51.3453C154.956 51.7628 155.595 52.0968 156.317 52.3473C157.067 52.5978 157.844 52.7092 158.65 52.6814Z" fill="#F6F2ED"/>
<path d="M135.403 54.8525C133.459 54.8525 131.709 54.4071 130.154 53.5164C128.627 52.5978 127.419 51.3174 126.53 49.6752C125.641 48.0051 125.197 46.0427 125.197 43.7881C125.197 41.8396 125.627 40.0164 126.488 38.3185C127.377 36.6206 128.613 35.2566 130.196 34.2268C131.779 33.169 133.612 32.6402 135.695 32.6402C136.861 32.6402 137.958 32.8211 138.986 33.1829C140.041 33.5448 140.972 34.1154 141.777 34.8948C142.61 35.6463 143.263 36.6345 143.735 37.8592C144.207 39.0561 144.443 40.5175 144.443 42.2432L130.113 42.4937C130.113 44.3865 130.321 46.0705 130.737 47.5458C131.182 49.0211 131.89 50.1623 132.862 50.9695C133.834 51.7767 135.098 52.1803 136.653 52.1803C137.403 52.1803 138.194 52.0551 139.027 51.8046C139.888 51.5262 140.694 51.1365 141.444 50.6355C142.221 50.1345 142.874 49.536 143.402 48.8401L144.693 49.9674C143.86 51.22 142.902 52.2082 141.819 52.9319C140.735 53.6277 139.625 54.1149 138.486 54.3932C137.375 54.6994 136.347 54.8525 135.403 54.8525ZM130.279 40.3226H139.902C139.902 39.2649 139.75 38.3185 139.444 37.4834C139.166 36.6206 138.722 35.9386 138.111 35.4376C137.5 34.9365 136.722 34.686 135.778 34.686C134.306 34.686 133.098 35.1592 132.154 36.1056C131.21 37.0242 130.585 38.4298 130.279 40.3226Z" fill="#F6F2ED"/>
<path d="M112.988 54.8525C111.044 54.8525 109.294 54.4071 107.739 53.5164C106.212 52.5978 105.003 51.3174 104.115 49.6752C103.226 48.0051 102.782 46.0427 102.782 43.7881C102.782 41.8396 103.212 40.0164 104.073 38.3185C104.962 36.6206 106.198 35.2566 107.781 34.2268C109.364 33.169 111.197 32.6402 113.28 32.6402C114.446 32.6402 115.543 32.8211 116.571 33.1829C117.626 33.5448 118.556 34.1154 119.362 34.8948C120.195 35.6463 120.848 36.6345 121.32 37.8592C121.792 39.0561 122.028 40.5175 122.028 42.2432L107.697 42.4937C107.697 44.3865 107.906 46.0705 108.322 47.5458C108.767 49.0211 109.475 50.1623 110.447 50.9695C111.419 51.7767 112.682 52.1803 114.238 52.1803C114.988 52.1803 115.779 52.0551 116.612 51.8046C117.473 51.5262 118.279 51.1365 119.028 50.6355C119.806 50.1345 120.459 49.536 120.986 48.8401L122.278 49.9674C121.445 51.22 120.487 52.2082 119.403 52.9319C118.32 53.6277 117.209 54.1149 116.071 54.3932C114.96 54.6994 113.932 54.8525 112.988 54.8525ZM107.864 40.3226H117.487C117.487 39.2649 117.334 38.3185 117.029 37.4834C116.751 36.6206 116.307 35.9386 115.696 35.4376C115.085 34.9365 114.307 34.686 113.363 34.686C111.891 34.686 110.683 35.1592 109.739 36.1056C108.794 37.0242 108.169 38.4298 107.864 40.3226Z" fill="#F6F2ED"/>
<path d="M75.2944 54.8343V52.9563C76.2313 52.8994 76.8985 52.7002 77.2959 52.3588C77.7218 52.0173 77.9915 51.5052 78.105 50.8223C78.2186 50.1394 78.2754 49.2716 78.2754 48.2188V30.4636C78.2754 29.8376 78.2896 29.2401 78.318 28.671C78.3464 28.0735 78.3747 27.5613 78.4031 27.1345C77.9205 27.163 77.3953 27.1914 76.8275 27.2199C76.2597 27.2483 75.7487 27.2768 75.2944 27.3052V24.9578H85.7703V26.8358C84.8618 26.8642 84.1946 27.0634 83.7688 27.4333C83.343 27.7747 83.0733 28.2869 82.9597 28.9698C82.8461 29.6242 82.7894 30.4921 82.7894 31.5733V38.4022H85.9406L90.5824 30.9331C91.0082 30.2787 91.4908 29.5815 92.0302 28.8417C92.5696 28.1019 93.0807 27.5186 93.5633 27.0918C93.1374 27.1203 92.6832 27.1487 92.2006 27.1772C91.7463 27.1772 91.3347 27.1914 90.9656 27.2199V24.9578H100.547V26.8358C99.5251 26.8927 98.5741 27.0634 97.694 27.3479C96.8423 27.6325 96.0048 28.1304 95.1815 28.8417C94.3582 29.5531 93.4923 30.6486 92.5838 32.1282L88.4531 38.7437C89.1913 39.1989 89.8016 39.7111 90.2843 40.2802C90.7669 40.8492 91.2353 41.4325 91.6896 42.0301L96.3313 48.3041C97.2398 49.5276 98.0205 50.4808 98.6734 51.1637C99.3548 51.8466 99.9936 52.3161 100.59 52.5722C101.186 52.8283 101.782 52.9563 102.378 52.9563V54.8343H96.7146C96.459 54.8343 96.09 54.6209 95.6074 54.1941C95.1247 53.7673 94.5995 53.2266 94.0317 52.5722C93.4923 51.9178 92.9671 51.2633 92.4561 50.6089L87.644 43.9507C87.1614 43.2963 86.6646 42.6561 86.1535 42.0301C85.6709 41.4041 85.1883 40.9488 84.7057 40.6643H82.7894V49.1151C82.7894 49.8833 82.7752 50.5804 82.7468 51.2064C82.7468 51.8039 82.7184 52.2877 82.6616 52.6576C83.1442 52.6006 83.6694 52.5722 84.2372 52.5722C84.8334 52.5437 85.3444 52.5153 85.7703 52.4868V54.8343H75.2944Z" fill="#F6F2ED"/>
</svg>
