<svg width="36" height="40" viewBox="0 0 36 40" fill="none" xmlns="http://www.w3.org/2000/svg">
<rect width="36" height="40" rx="8" fill="#2D6759"/>
<path d="M16.5879 31.2843C16.9517 30.8001 17.2682 30.3668 17.5883 29.93C18.8894 28.1581 20.1912 26.3869 21.4935 24.6162C21.6754 24.3811 21.8573 24.1688 21.6008 23.8443H22.7395C22.5321 23.9899 22.3757 24.0864 22.2266 24.2075C22.0139 24.3713 21.82 24.5566 21.6481 24.7601C20.997 25.6249 20.3749 26.5143 19.7237 27.374C19.6722 27.427 19.6435 27.4969 19.6435 27.5696C19.6435 27.6422 19.6722 27.7122 19.7237 27.7652C20.8151 29.2353 21.8828 30.7176 22.985 32.1772C23.1797 32.4369 23.4925 32.6123 23.7526 32.8246C23.8145 32.8754 23.8836 32.9175 24 33H21.6136C21.9628 32.7333 21.7154 32.5474 21.5754 32.3562C20.712 31.1703 19.8444 29.9861 18.9725 28.8037C18.9343 28.7511 18.8888 28.7002 18.827 28.6283C18.767 28.702 18.7142 28.7598 18.6687 28.823C18.0151 29.7095 17.3634 30.5943 16.7134 31.4773C16.6136 31.6478 16.5612 31.8402 16.5612 32.036C16.5612 32.2318 16.6136 32.4242 16.7134 32.5947C16.8025 32.7158 16.8862 32.8421 16.9917 32.9947H14.9309C14.9509 32.9509 14.9563 32.8983 14.9872 32.8684C15.2983 32.5597 15.3401 32.1878 15.3401 31.7755C15.3292 27.5745 15.3292 23.3724 15.3401 19.1691C15.3401 18.7972 15.2965 18.4674 15.0145 18.1937C14.9837 18.1717 14.9586 18.143 14.9413 18.1099C14.9241 18.0769 14.9151 18.0404 14.9151 18.0034C14.9151 17.9664 14.9241 17.9298 14.9413 17.8968C14.9586 17.8637 14.9837 17.835 15.0145 17.813C15.1093 17.7026 15.195 17.5853 15.271 17.4622C15.3692 17.3236 15.3419 17.2394 15.1782 17.1517C14.045 16.5412 12.9119 15.9236 11.7969 15.2956C11.5436 15.1594 11.335 14.9576 11.1945 14.713C11.054 14.4684 10.9873 14.1907 11.002 13.9115C11.0147 12.7098 11.0184 11.5081 11.002 10.3064C10.9888 10.0516 11.0488 9.79824 11.1752 9.57417C11.3016 9.3501 11.4897 9.164 11.7186 9.03628C12.827 8.38719 13.9523 7.76558 15.0946 7.17145C15.6912 6.86094 16.2987 7.00831 16.8644 7.32583L18.9161 8.47138C19.229 8.64681 19.5455 8.82224 19.851 8.99766C20.1037 9.13625 20.3144 9.33604 20.4624 9.57726C20.6104 9.81847 20.6906 10.0928 20.695 10.3731C20.7241 11.573 20.7296 12.7764 20.7078 13.9764C20.695 14.636 20.3076 15.1061 19.7255 15.4289L16.748 17.0692C16.5406 17.1832 16.4788 17.3183 16.6425 17.4797C17.0062 17.8429 17.0062 18.1691 16.6425 18.52C16.59 18.5947 16.5662 18.6846 16.5752 18.7744C16.5752 22.8678 16.5752 26.9611 16.5752 31.0545C16.5697 31.1176 16.5788 31.172 16.5879 31.2843ZM19.7474 12.1817H19.7364C19.7364 11.6554 19.7364 11.1292 19.7364 10.5906C19.7505 10.411 19.7084 10.2314 19.6157 10.0751C19.523 9.91877 19.3839 9.79281 19.2162 9.71343C18.2195 9.17311 17.23 8.62226 16.2405 8.07141C16.112 7.99411 15.9636 7.95312 15.8121 7.95312C15.6607 7.95312 15.5123 7.99411 15.3838 8.07141C14.3821 8.61992 13.3817 9.17076 12.3825 9.72395C12.2362 9.79552 12.1146 9.90662 12.0326 10.0437C11.9505 10.1807 11.9116 10.3378 11.9205 10.4958C11.929 11.5823 11.929 12.6677 11.9205 13.7518C11.9111 13.9225 11.9536 14.0922 12.0428 14.2399C12.132 14.3877 12.264 14.507 12.4226 14.5834C12.8224 14.7758 13.2089 14.9932 13.5794 15.2342C13.9832 15.5355 14.4457 15.7554 14.9395 15.8807C15.4332 16.0061 15.948 16.0344 16.4533 15.964C16.4951 15.964 16.5406 15.964 16.5824 15.964C16.7155 15.9469 16.8457 15.9133 16.9699 15.864C17.7356 15.45 18.4905 15.0219 19.2544 14.6079C19.4096 14.5345 19.5386 14.4183 19.6251 14.2739C19.7116 14.1296 19.7516 13.9638 19.7401 13.7974C19.7419 13.2606 19.7474 12.7203 19.7474 12.1817Z" fill="url(#paint0_linear_3466_6251)"/>
<defs>
<linearGradient id="paint0_linear_3466_6251" x1="17.5545" y1="5.37338" x2="26.4133" y2="50.3298" gradientUnits="userSpaceOnUse">
<stop stop-color="#C3B075"/>
<stop offset="0.22" stop-color="#EEE0A5"/>
<stop offset="0.485" stop-color="#D9D092"/>
<stop offset="0.765" stop-color="#C6B780"/>
<stop offset="1" stop-color="#AA9D65"/>
</linearGradient>
</defs>
</svg>
