<svg width="21" height="22" viewBox="0 0 21 22" fill="none" xmlns="http://www.w3.org/2000/svg">
<path d="M10.448 0.500043C12.5203 0.494126 14.5478 1.10264 16.2743 2.24882C18.0008 3.39501 19.3488 5.02739 20.1477 6.9395C20.9467 8.8516 21.1609 10.9576 20.7631 12.9914C20.3654 15.0252 19.3736 16.8954 17.9131 18.3656C16.4527 19.8359 14.5891 20.8401 12.558 21.2514C10.5269 21.6627 8.41952 21.4626 6.50212 20.6764C4.58472 19.8903 2.9435 18.5533 1.78581 16.8345C0.628124 15.1157 0.00600811 13.0922 -0.00190994 11.0199C-0.00988171 8.23954 1.08623 5.56981 3.0457 3.59721C5.00517 1.62461 7.66765 0.510633 10.448 0.500043ZM10.448 19.97C12.5251 19.9822 14.5425 19.2756 16.158 17.97C16.2093 17.9389 16.2482 17.8911 16.2682 17.8346C16.2883 17.7781 16.2882 17.7164 16.268 17.66C16.0159 16.746 15.5485 15.9059 14.9047 15.2099C14.2609 14.5139 13.4596 13.9824 12.568 13.66C12.4651 13.6198 12.351 13.6198 12.2481 13.66C11.6929 13.8951 11.0961 14.0163 10.4931 14.0163C9.89012 14.0163 9.2933 13.8951 8.73808 13.66C8.64712 13.6302 8.54901 13.6302 8.45805 13.66C7.56106 13.9767 6.75408 14.5061 6.10624 15.2027C5.45841 15.8993 4.98904 16.7424 4.73808 17.66C4.7075 17.7217 4.70071 17.7926 4.71916 17.8591C4.73761 17.9255 4.77999 17.9828 4.83806 18.0199C6.42816 19.2817 8.3981 19.969 10.428 19.97H10.448ZM10.4981 6.49003C9.90475 6.49003 9.32469 6.66588 8.83134 6.99553C8.33799 7.32517 7.95342 7.79378 7.72636 8.34196C7.4993 8.89014 7.43995 9.4933 7.55571 10.0752C7.67146 10.6572 7.95719 11.1917 8.37675 11.6112C8.79631 12.0308 9.33082 12.3165 9.91276 12.4323C10.4947 12.548 11.0979 12.4887 11.646 12.2616C12.1942 12.0346 12.6628 11.65 12.9925 11.1567C13.3221 10.6633 13.4981 10.0834 13.4981 9.49003C13.4981 9.09438 13.4198 8.70261 13.2677 8.33732C13.1157 7.97204 12.893 7.64045 12.6123 7.36162C12.3316 7.08278 11.9985 6.86215 11.6322 6.71257C11.266 6.56298 10.8737 6.4874 10.4781 6.49003H10.4981Z" fill="black"/>
</svg>
