<svg width="24" height="25" viewBox="0 0 24 25" fill="none" xmlns="http://www.w3.org/2000/svg">
<path d="M13.3531 9.00425C13.3531 8.72237 13.2411 8.45203 13.0418 8.25271C12.8425 8.05338 12.5721 7.94141 12.2903 7.94141C12.0084 7.94141 11.738 8.05338 11.5387 8.25271C11.3394 8.45203 11.2274 8.72237 11.2274 9.00425V10.0671H13.3531V9.00425ZM14.416 11.3425H10.1646C9.9955 11.3427 9.83343 11.41 9.71388 11.5295C9.59434 11.6491 9.52708 11.8112 9.52686 11.9802V14.5311C9.52708 14.7001 9.59434 14.8622 9.71388 14.9817C9.83343 15.1013 9.9955 15.1685 10.1646 15.1688H14.416C14.585 15.1685 14.7471 15.1013 14.8666 14.9817C14.9862 14.8622 15.0534 14.7001 15.0537 14.5311V11.9802C15.0534 11.8112 14.9862 11.6491 14.8666 11.5295C14.7471 11.41 14.585 11.3427 14.416 11.3425Z" fill="#2F4F4F"/>
<path d="M19.2472 5.33309C18.1072 5.21162 16.9852 4.95795 15.9039 4.5772C14.9129 4.22699 13.9623 3.77177 13.0682 3.2193C12.834 3.0759 12.5648 3 12.2902 3C12.0156 3 11.7464 3.0759 11.5122 3.2193C10.6181 3.77166 9.66743 4.22688 8.67653 4.5772C7.59571 4.95777 6.47433 5.21144 5.33494 5.33309C4.96885 5.37019 4.62959 5.54191 4.38293 5.81495C4.13628 6.088 3.99981 6.44292 4 6.81088V11.2281C4.00053 12.8581 4.43673 14.4583 5.26344 15.8631C6.09015 17.2679 7.27732 18.4262 8.70204 19.2181L11.5675 20.8107C11.7881 20.9348 12.037 21 12.2902 21C12.5434 21 12.7923 20.9348 13.0129 20.8107L15.8784 19.2181C17.3031 18.4262 18.4903 17.2679 19.317 15.8631C20.1437 14.4583 20.5799 12.8581 20.5804 11.2281V6.81173C20.5811 6.44374 20.445 6.08863 20.1987 5.81526C19.9523 5.54189 19.6133 5.37061 19.2472 5.33309ZM16.329 14.5314C16.3284 15.0386 16.1266 15.5248 15.7679 15.8834C15.4093 16.2421 14.9231 16.4439 14.4159 16.4445H10.1645C9.65733 16.4439 9.17111 16.2421 8.81248 15.8834C8.45384 15.5248 8.25207 15.0386 8.25139 14.5314V11.9806C8.25295 11.5114 8.42718 11.0592 8.74082 10.7103C9.05447 10.3613 9.48559 10.1401 9.95195 10.0887V9.0046C9.95195 8.38445 10.1983 7.7897 10.6368 7.35119C11.0753 6.91268 11.6701 6.66633 12.2902 6.66633C12.9104 6.66633 13.5051 6.91268 13.9436 7.35119C14.3821 7.7897 14.6285 8.38445 14.6285 9.0046V10.0887C15.0948 10.1401 15.526 10.3613 15.8396 10.7103C16.1532 11.0592 16.3275 11.5114 16.329 11.9806V14.5314Z" fill="#2F4F4F"/>
</svg>
