<svg width="30" height="30" viewBox="0 0 30 30" fill="none" xmlns="http://www.w3.org/2000/svg">
<path d="M15 30C23.2843 30 30 23.2843 30 15C30 6.71573 23.2843 0 15 0C6.71573 0 0 6.71573 0 15C0 23.2843 6.71573 30 15 30Z" fill="#2F4F4F"/>
<path fill-rule="evenodd" clip-rule="evenodd" d="M21 15.5C21 20 15 23 15 23C15 23 9 20 9 15.5V10.25L15 8L21 10.25V15.5ZM14.8782 15.0584L12.3557 13.2779C12.3245 13.2558 12.306 13.22 12.306 13.1819V12.2974C12.306 12.2013 12.4151 12.1458 12.4928 12.2025L14.9433 13.9914C14.9845 14.0214 15.0404 14.0215 15.0817 13.9915L17.538 12.2062C17.6157 12.1497 17.7246 12.2052 17.7246 12.3012V13.1616C17.7246 13.1996 17.7063 13.2353 17.6753 13.2573L15.1472 15.0584L15.075 15.1035C15.0369 15.1273 14.9885 15.1273 14.9504 15.1035L14.8782 15.0584ZM12.4236 17.0941C12.3588 17.0943 12.3063 17.1468 12.3063 17.2117V17.9163C12.3063 17.9812 12.3589 18.0338 12.4238 18.0338L17.6018 18.0338C17.6667 18.0339 17.7193 17.9812 17.7193 17.9163V17.2074C17.7193 17.1425 17.6667 17.0899 17.6018 17.0899L15.569 17.0899C15.4558 17.0899 15.408 16.9458 15.4988 16.8782L17.677 15.2552C17.7068 15.2331 17.7243 15.1981 17.7243 15.161V14.2991C17.7243 14.203 17.6154 14.1475 17.5377 14.204L15.0814 15.9893C15.0401 16.0193 14.9842 16.0193 14.943 15.9892L12.4925 14.2003C12.4148 14.1436 12.3057 14.1991 12.3057 14.2952V15.1813C12.3057 15.2186 12.3234 15.2536 12.3534 15.2758L14.5246 16.8785C14.6158 16.9458 14.5683 17.0904 14.455 17.0906L12.4236 17.0941Z" fill="#F6F2ED"/>
</svg>
