<svg width="184" height="60" viewBox="0 0 184 60" fill="none" xmlns="http://www.w3.org/2000/svg">
<path fill-rule="evenodd" clip-rule="evenodd" d="M48.2799 30C48.2799 48 24.609 60 24.609 60C24.609 60 0.93808 48 0.93808 30V9L24.609 0L48.2799 9V30ZM24.1322 28.2337L14.1805 21.1116C14.0574 21.0235 13.9843 20.8803 13.9843 20.7276L13.9843 17.1898C13.9843 16.8053 14.4149 16.5834 14.7212 16.8102L24.389 23.9656C24.5515 24.0859 24.7721 24.0861 24.9349 23.9662L34.6255 16.8249C34.932 16.599 35.3618 16.821 35.3618 17.2051V20.6466C35.3618 20.7986 35.2892 20.9412 35.1671 21.0295L25.1934 28.2337L24.9085 28.4142C24.7582 28.5094 24.5674 28.5094 24.4171 28.4142L24.1322 28.2337ZM14.4482 36.3767C14.1925 36.3772 13.9854 36.5875 13.9854 36.8468V39.6654C13.9854 39.925 14.193 40.1354 14.449 40.1354L34.8768 40.1356C35.1328 40.1356 35.3404 39.9251 35.3404 39.6655V36.8297C35.3404 36.5701 35.1328 36.3596 34.8767 36.3596L26.857 36.3599C26.4107 36.3599 26.2221 35.7832 26.58 35.5129L35.1737 29.0212C35.2911 28.9325 35.3603 28.7927 35.3603 28.6442V25.1964C35.3603 24.8123 34.9305 24.5903 34.6241 24.8162L24.9334 31.9575C24.7706 32.0775 24.5501 32.0772 24.3875 31.9569L14.7198 24.8015C14.4134 24.5747 13.9828 24.7966 13.9828 25.1811V28.7252C13.9828 28.8744 14.0527 29.0148 14.1711 29.1034L22.7369 35.5141C23.0965 35.7832 22.9094 36.3616 22.4624 36.3624L14.4482 36.3767Z" fill="#F6F2ED"/>
<path d="M65.6216 12.5316V4.17722H68.6811C69.274 4.17722 69.7649 4.27512 70.1537 4.47093C70.5426 4.66401 70.8336 4.92645 71.0267 5.25823C71.2198 5.5873 71.3164 5.95851 71.3164 6.37188C71.3164 6.71999 71.2524 7.0137 71.1246 7.25302C70.9968 7.48962 70.8255 7.67998 70.6106 7.82412C70.3985 7.96554 70.1646 8.06888 69.909 8.13415V8.21573C70.1864 8.22933 70.457 8.31908 70.7208 8.48497C70.9873 8.64814 71.2076 8.88066 71.3816 9.18253C71.5557 9.4844 71.6427 9.85154 71.6427 10.2839C71.6427 10.7109 71.5421 11.0944 71.3408 11.4343C71.1423 11.7715 70.835 12.0394 70.4189 12.2379C70.0028 12.4337 69.4711 12.5316 68.8239 12.5316H65.6216ZM66.8821 11.4506H68.7015C69.3053 11.4506 69.7377 11.3337 69.9987 11.0998C70.2598 10.8659 70.3904 10.5736 70.3904 10.2228C70.3904 9.95896 70.3237 9.71692 70.1905 9.49664C70.0572 9.27635 69.8668 9.10094 69.6194 8.97041C69.3746 8.83987 69.0836 8.7746 68.7464 8.7746H66.8821V11.4506ZM66.8821 7.79148H68.571C68.8538 7.79148 69.1081 7.73709 69.3338 7.62831C69.5622 7.51953 69.7431 7.36724 69.8764 7.17143C70.0123 6.9729 70.0803 6.73902 70.0803 6.46979C70.0803 6.12441 69.9593 5.83478 69.7173 5.60089C69.4752 5.36701 69.104 5.25007 68.6036 5.25007H66.8821V7.79148Z" fill="#F6F2ED"/>
<path d="M79.9913 4.17722V12.5316H78.7308V4.17722H79.9913Z" fill="#F6F2ED"/>
<path d="M87.0803 5.26231V4.17722H93.546V5.26231H90.9393V12.5316H89.6829V5.26231H87.0803Z" fill="#F6F2ED"/>
<path d="M107.651 6.93291H106.412C106.364 6.66819 106.276 6.43524 106.146 6.23406C106.016 6.03287 105.857 5.86213 105.669 5.72183C105.481 5.58153 105.271 5.47565 105.038 5.40417C104.808 5.3327 104.563 5.29696 104.303 5.29696C103.835 5.29696 103.415 5.41476 103.045 5.65036C102.677 5.88596 102.386 6.23141 102.171 6.68672C101.959 7.14203 101.854 7.69794 101.854 8.35443C101.854 9.01622 101.959 9.57477 102.171 10.0301C102.386 10.4854 102.678 10.8295 103.049 11.0625C103.419 11.2954 103.836 11.4119 104.299 11.4119C104.556 11.4119 104.8 11.3775 105.03 11.3087C105.263 11.2372 105.474 11.1326 105.661 10.995C105.849 10.8573 106.008 10.6892 106.138 10.4907C106.27 10.2895 106.362 10.0592 106.412 9.79978L107.651 9.80375C107.585 10.2035 107.456 10.5714 107.266 10.9076C107.078 11.2412 106.835 11.5297 106.539 11.7732C106.245 12.0141 105.909 12.2008 105.53 12.3331C105.152 12.4655 104.739 12.5316 104.292 12.5316C103.587 12.5316 102.96 12.3649 102.409 12.0313C101.859 11.6951 101.425 11.2147 101.107 10.59C100.792 9.96523 100.634 9.22005 100.634 8.35443C100.634 7.48616 100.793 6.74099 101.111 6.11891C101.429 5.49418 101.863 5.01504 102.413 4.6815C102.964 4.34531 103.59 4.17722 104.292 4.17722C104.723 4.17722 105.125 4.23942 105.499 4.36384C105.875 4.48561 106.212 4.66562 106.511 4.90386C106.81 5.13946 107.058 5.428 107.254 5.76948C107.45 6.10832 107.582 6.49613 107.651 6.93291Z" fill="#F6F2ED"/>
<path d="M122.066 8.35443C122.066 9.2227 121.907 9.9692 121.589 10.5939C121.271 11.216 120.836 11.6951 120.283 12.0313C119.732 12.3649 119.106 12.5316 118.405 12.5316C117.7 12.5316 117.072 12.3649 116.518 12.0313C115.968 11.6951 115.534 11.2147 115.216 10.59C114.898 9.96523 114.74 9.22005 114.74 8.35443C114.74 7.48616 114.898 6.74099 115.216 6.11891C115.534 5.49418 115.968 5.01504 116.518 4.6815C117.072 4.34531 117.7 4.17722 118.405 4.17722C119.106 4.17722 119.732 4.34531 120.283 4.6815C120.836 5.01504 121.271 5.49418 121.589 6.11891C121.907 6.74099 122.066 7.48616 122.066 8.35443ZM120.85 8.35443C120.85 7.69264 120.743 7.13541 120.529 6.68275C120.317 6.22744 120.026 5.88331 119.655 5.65036C119.287 5.41476 118.87 5.29696 118.405 5.29696C117.936 5.29696 117.518 5.41476 117.15 5.65036C116.782 5.88331 116.491 6.22744 116.276 6.68275C116.064 7.13541 115.959 7.69264 115.959 8.35443C115.959 9.01622 116.064 9.57477 116.276 10.0301C116.491 10.4827 116.782 10.8269 117.15 11.0625C117.518 11.2954 117.936 11.4119 118.405 11.4119C118.87 11.4119 119.287 11.2954 119.655 11.0625C120.026 10.8269 120.317 10.4827 120.529 10.0301C120.743 9.57477 120.85 9.01622 120.85 8.35443Z" fill="#F6F2ED"/>
<path d="M130.415 4.17722V12.5316H129.154V4.17722H130.415Z" fill="#F6F2ED"/>
<path d="M144.247 4.17722V12.5316H143.088L138.842 6.40452H138.764V12.5316H137.504V4.17722H138.67L142.921 10.3125H142.998V4.17722H144.247Z" fill="#F6F2ED"/>
<path d="M168.381 45.4173C169.117 45.4173 169.632 45.2456 169.927 44.9022C170.221 44.5588 170.393 44.0805 170.442 43.4673C170.515 42.854 170.552 42.1427 170.552 41.3333V33.6802C170.552 33.2878 170.552 32.8708 170.552 32.4293C170.577 31.9632 170.626 31.5094 170.699 31.0679C170.282 31.0924 169.841 31.117 169.375 31.1415C168.909 31.1415 168.479 31.1538 168.087 31.1783V29.2283H169.338C170.368 29.2283 171.153 29.1179 171.693 28.8971C172.232 28.6764 172.625 28.4433 172.87 28.198H174.195C174.244 28.5414 174.281 29.0198 174.305 29.633C174.33 30.2462 174.354 30.933 174.379 31.6934C174.845 31.0066 175.384 30.3934 175.998 29.8537C176.611 29.2896 177.273 28.8358 177.984 28.4924C178.72 28.149 179.481 27.9773 180.266 27.9773C181.026 27.9773 181.676 28.1858 182.216 28.6028C182.78 28.9952 183.062 29.6452 183.062 30.5528C183.062 30.7981 182.988 31.0802 182.841 31.3991C182.719 31.7179 182.498 32 182.179 32.2453C181.885 32.4661 181.48 32.5764 180.965 32.5764C180.45 32.5519 179.996 32.3557 179.603 31.9878C179.235 31.6198 179.064 31.117 179.088 30.4792C178.5 30.4792 177.911 30.6632 177.322 31.0311C176.733 31.3745 176.182 31.8406 175.666 32.4293C175.176 33.018 174.759 33.6557 174.415 34.3425V42.4003C174.415 42.8418 174.403 43.2956 174.379 43.7616C174.379 44.2031 174.342 44.6569 174.268 45.123C174.661 45.0984 175.066 45.0862 175.482 45.0862C175.899 45.0616 176.28 45.0371 176.623 45.0126V46.9626H168.381V45.4173Z" fill="#F6F2ED"/>
<path d="M158.011 47.0164C156.341 47.0164 154.838 46.6347 153.502 45.8712C152.19 45.0839 151.152 43.9864 150.388 42.5787C149.625 41.1472 149.243 39.4652 149.243 37.5326C149.243 35.8625 149.613 34.2998 150.353 32.8444C151.116 31.3891 152.178 30.22 153.538 29.3372C154.898 28.4306 156.472 27.9773 158.262 27.9773C159.264 27.9773 160.206 28.1324 161.089 28.4425C161.995 28.7527 162.795 29.2418 163.487 29.9098C164.202 30.554 164.763 31.401 165.169 32.4508C165.574 33.4767 165.777 34.7293 165.777 36.2085L153.466 36.4232C153.466 38.0456 153.645 39.489 154.003 40.7535C154.385 42.018 154.993 42.9962 155.828 43.6881C156.663 44.38 157.749 44.726 159.085 44.726C159.729 44.726 160.409 44.6186 161.125 44.4039C161.864 44.1653 162.556 43.8313 163.2 43.4018C163.868 42.9724 164.429 42.4594 164.882 41.863L165.992 42.8292C165.276 43.9029 164.453 44.7498 163.522 45.3702C162.592 45.9666 161.638 46.3842 160.659 46.6227C159.705 46.8852 158.822 47.0164 158.011 47.0164ZM153.609 34.5622H161.876C161.876 33.6556 161.745 32.8444 161.483 32.1287C161.244 31.3891 160.862 30.8045 160.337 30.3751C159.812 29.9456 159.144 29.7309 158.333 29.7309C157.069 29.7309 156.031 30.1365 155.22 30.9477C154.408 31.735 153.872 32.9399 153.609 34.5622Z" fill="#F6F2ED"/>
<path d="M127.711 55.5697V54.0666C128.426 54.0666 128.927 53.8996 129.214 53.5656C129.5 53.2316 129.667 52.7663 129.715 52.1699C129.786 51.5734 129.822 50.8815 129.822 50.0942L129.858 33.5244C129.858 33.1427 129.87 32.7371 129.894 32.3076C129.917 31.8543 129.953 31.4129 130.001 30.9835C129.595 31.0073 129.166 31.0312 128.713 31.055C128.259 31.055 127.842 31.067 127.46 31.0908V29.1941C128.534 29.1941 129.369 29.1463 129.965 29.0509C130.586 28.9316 131.051 28.8004 131.361 28.6572C131.695 28.5141 131.945 28.359 132.112 28.192H133.401C133.425 28.4306 133.449 28.7169 133.472 29.0509C133.496 29.3849 133.52 29.719 133.544 30.053C134.307 29.3849 135.154 28.872 136.085 28.5141C137.015 28.1562 137.946 27.9773 138.876 27.9773C140.26 27.9773 141.525 28.3471 142.67 29.0867C143.839 29.8025 144.769 30.8284 145.461 32.1645C146.177 33.5005 146.535 35.0871 146.535 36.9242C146.535 38.9045 146.129 40.6581 145.318 42.1851C144.507 43.712 143.41 44.9049 142.026 45.7638C140.666 46.5989 139.151 47.0164 137.481 47.0164C136.717 47.0164 136.013 46.921 135.369 46.7301C134.725 46.5631 134.117 46.3245 133.544 46.0144V51.132C133.544 51.5615 133.532 51.9909 133.508 52.4204C133.508 52.8737 133.484 53.327 133.437 53.7803C133.818 53.7565 134.2 53.7326 134.582 53.7087C134.987 53.7087 135.357 53.6968 135.691 53.673V55.5697H127.711ZM137.23 45.1554C138.375 45.1554 139.318 44.8214 140.057 44.1534C140.821 43.4615 141.382 42.5429 141.739 41.3977C142.121 40.2287 142.312 38.9164 142.312 37.4611C142.312 36.2443 142.145 35.0871 141.811 33.9896C141.477 32.8683 140.94 31.9617 140.201 31.2698C139.485 30.554 138.542 30.2081 137.373 30.2319C136.634 30.2319 135.93 30.4109 135.262 30.7687C134.594 31.1266 134.033 31.568 133.58 32.0929C133.58 32.403 133.58 32.7371 133.58 33.0949C133.604 33.4528 133.616 33.9061 133.616 34.4549C133.616 34.9798 133.616 35.6597 133.616 36.4948C133.616 37.306 133.604 38.3319 133.58 39.5725C133.58 40.7893 133.58 42.2686 133.58 44.0102C134.057 44.3681 134.606 44.6544 135.226 44.8691C135.87 45.0839 136.538 45.1793 137.23 45.1554Z" fill="#F6F2ED"/>
<path d="M117.26 47.0164C115.589 47.0164 114.086 46.6347 112.75 45.8712C111.438 45.0839 110.4 43.9864 109.637 42.5787C108.873 41.1472 108.491 39.4652 108.491 37.5326C108.491 35.8625 108.861 34.2998 109.601 32.8444C110.364 31.3891 111.426 30.22 112.786 29.3372C114.146 28.4306 115.721 27.9773 117.51 27.9773C118.512 27.9773 119.455 28.1324 120.337 28.4425C121.244 28.7527 122.043 29.2418 122.735 29.9098C123.451 30.554 124.011 31.401 124.417 32.4508C124.823 33.4767 125.025 34.7293 125.025 36.2085L112.714 36.4232C112.714 38.0456 112.893 39.489 113.251 40.7535C113.633 42.018 114.241 42.9962 115.076 43.6881C115.912 44.38 116.997 44.726 118.333 44.726C118.977 44.726 119.657 44.6186 120.373 44.4039C121.113 44.1653 121.805 43.8313 122.449 43.4018C123.117 42.9724 123.677 42.4594 124.131 41.863L125.24 42.8292C124.524 43.9029 123.701 44.7498 122.771 45.3702C121.84 45.9666 120.886 46.3842 119.908 46.6227C118.953 46.8852 118.071 47.0164 117.26 47.0164ZM112.858 34.5622H121.125C121.125 33.6556 120.993 32.8444 120.731 32.1287C120.492 31.3891 120.111 30.8045 119.586 30.3751C119.061 29.9456 118.393 29.7309 117.582 29.7309C116.317 29.7309 115.279 30.1365 114.468 30.9477C113.657 31.735 113.12 32.9399 112.858 34.5622Z" fill="#F6F2ED"/>
<path d="M98.0032 47.0164C96.3331 47.0164 94.83 46.6347 93.4939 45.8712C92.1817 45.0839 91.1439 43.9864 90.3804 42.5787C89.6169 41.1472 89.2352 39.4652 89.2352 37.5326C89.2352 35.8625 89.605 34.2998 90.3446 32.8444C91.1081 31.3891 92.1698 30.22 93.5297 29.3372C94.8896 28.4306 96.4643 27.9773 98.2537 27.9773C99.2558 27.9773 100.198 28.1324 101.081 28.4425C101.988 28.7527 102.787 29.2418 103.479 29.9098C104.194 30.554 104.755 31.401 105.161 32.4508C105.566 33.4767 105.769 34.7293 105.769 36.2085L93.4581 36.4232C93.4581 38.0456 93.6371 39.489 93.9949 40.7535C94.3767 42.018 94.9851 42.9962 95.8201 43.6881C96.6552 44.38 97.7407 44.726 99.0768 44.726C99.721 44.726 100.401 44.6186 101.117 44.4039C101.856 44.1653 102.548 43.8313 103.192 43.4018C103.86 42.9724 104.421 42.4594 104.874 41.863L105.984 42.8292C105.268 43.9029 104.445 44.7498 103.515 45.3702C102.584 45.9666 101.63 46.3842 100.651 46.6227C99.6971 46.8852 98.8144 47.0164 98.0032 47.0164ZM93.6013 34.5622H101.868C101.868 33.6556 101.737 32.8444 101.475 32.1287C101.236 31.3891 100.854 30.8045 100.329 30.3751C99.8045 29.9456 99.1365 29.7309 98.3253 29.7309C97.0608 29.7309 96.0229 30.1365 95.2117 30.9477C94.4005 31.735 93.8637 32.9399 93.6013 34.5622Z" fill="#F6F2ED"/>
<path d="M65.6216 47.0008V45.3911C66.4265 45.3424 66.9996 45.1716 67.3411 44.879C67.7069 44.5863 67.9386 44.1473 68.0361 43.562C68.1337 42.9766 68.1825 42.2328 68.1825 41.3304V26.1117C68.1825 25.5751 68.1947 25.0629 68.2191 24.5752C68.2434 24.063 68.2678 23.624 68.2922 23.2582C67.8776 23.2825 67.4264 23.3069 66.9386 23.3313C66.4509 23.3557 66.0119 23.3801 65.6216 23.4045V21.3924H74.6212V23.0021C73.8407 23.0265 73.2676 23.1972 72.9017 23.5142C72.5359 23.8069 72.3042 24.2459 72.2067 24.8312C72.1091 25.3922 72.0603 26.1361 72.0603 27.0628V32.9162H74.7675L78.7551 26.5141C79.1209 25.9531 79.5355 25.3556 79.9989 24.7215C80.4623 24.0874 80.9013 23.5874 81.3159 23.2216C80.9501 23.246 80.5599 23.2704 80.1453 23.2947C79.755 23.2947 79.4014 23.3069 79.0843 23.3313V21.3924H87.3156V23.0021C86.4376 23.0509 85.6206 23.1972 84.8645 23.4411C84.1329 23.685 83.4134 24.1118 82.7061 24.7215C81.9988 25.3312 81.255 26.2702 80.4745 27.5384L76.9259 33.2089C77.56 33.5991 78.0844 34.0381 78.499 34.5259C78.9136 35.0136 79.316 35.5136 79.7063 36.0258L83.6938 41.4035C84.4743 42.4523 85.145 43.2693 85.7059 43.8546C86.2913 44.44 86.84 44.8424 87.3522 45.0619C87.8644 45.2814 88.3765 45.3911 88.8887 45.3911V47.0008H84.0231C83.8036 47.0008 83.4865 46.8179 83.0719 46.452C82.6573 46.0862 82.2061 45.6228 81.7183 45.0619C81.255 44.5009 80.8038 43.94 80.3648 43.379L76.2308 37.672C75.8162 37.1111 75.3894 36.5623 74.9504 36.0258C74.5358 35.4892 74.1212 35.099 73.7066 34.8551H72.0603V42.0986C72.0603 42.7571 72.0481 43.3547 72.0237 43.8912C72.0237 44.4034 71.9993 44.818 71.9506 45.135C72.3652 45.0863 72.8164 45.0619 73.3042 45.0619C73.8163 45.0375 74.2553 45.0131 74.6212 44.9887V47.0008H65.6216Z" fill="#F6F2ED"/>
</svg>
