<svg width="50" height="22" viewBox="0 0 50 22" fill="none" xmlns="http://www.w3.org/2000/svg">
<path d="M0 3.61914V0.0634766H1.30257C1.55498 0.0634766 1.76397 0.105145 1.92954 0.18848C2.09511 0.270659 2.219 0.382352 2.30121 0.52356C2.38341 0.663611 2.42452 0.821602 2.42452 0.997533C2.42452 1.14569 2.39731 1.27069 2.34289 1.37254C2.28847 1.47324 2.21553 1.55426 2.12406 1.61561C2.03375 1.6758 1.93417 1.71978 1.82534 1.74756V1.78228C1.94344 1.78807 2.05864 1.82626 2.17095 1.89687C2.28442 1.96631 2.3782 2.06527 2.4523 2.19375C2.52641 2.32223 2.56346 2.47848 2.56346 2.66252C2.56346 2.84423 2.52062 3.00743 2.43494 3.15211C2.35042 3.29564 2.21958 3.40965 2.04243 3.49414C1.86528 3.57747 1.63892 3.61914 1.36335 3.61914H0ZM0.536658 3.15906H1.31125C1.56829 3.15906 1.75239 3.10929 1.86354 3.00975C1.9747 2.91021 2.03027 2.78578 2.03027 2.63647C2.03027 2.5242 2.00191 2.42119 1.94517 2.32744C1.88844 2.23368 1.80739 2.15903 1.70203 2.10347C1.59782 2.04791 1.47393 2.02013 1.33036 2.02013H0.536658V3.15906ZM0.536658 1.60172H1.25568C1.37609 1.60172 1.48435 1.57857 1.58045 1.53227C1.67771 1.48597 1.75471 1.42116 1.81144 1.33782C1.86933 1.25333 1.89828 1.15379 1.89828 1.0392C1.89828 0.892206 1.84676 0.768938 1.74371 0.669398C1.64066 0.569858 1.48261 0.520088 1.26957 0.520088H0.536658V1.60172Z" fill="#272421"/>
<path d="M6.11787 0.0634766V3.61914H5.58121V0.0634766H6.11787Z" fill="#272421"/>
<path d="M9.13599 0.525296V0.0634766H11.8888V0.525296H10.779V3.61914H10.244V0.525296H9.13599Z" fill="#272421"/>
<path d="M17.8938 1.23631H17.3664C17.3461 1.12364 17.3084 1.0245 17.2531 0.938873C17.1979 0.853249 17.1303 0.780581 17.0503 0.720869C16.9702 0.661157 16.8806 0.616092 16.7815 0.585673C16.6834 0.555254 16.5792 0.540044 16.4687 0.540044C16.2692 0.540044 16.0906 0.590179 15.9328 0.69045C15.7762 0.790721 15.6522 0.937747 15.5609 1.13153C15.4707 1.32531 15.4257 1.5619 15.4257 1.84131C15.4257 2.12297 15.4707 2.36069 15.5609 2.55447C15.6522 2.74825 15.7767 2.89472 15.9345 2.99386C16.0923 3.093 16.2698 3.14258 16.467 3.14258C16.5764 3.14258 16.68 3.12793 16.7781 3.09864C16.8773 3.06822 16.9669 3.02371 17.0469 2.96513C17.1269 2.90654 17.1945 2.835 17.2497 2.75051C17.3061 2.66488 17.345 2.56686 17.3664 2.45645L17.8938 2.45814C17.8657 2.62827 17.811 2.78487 17.7299 2.92795C17.6498 3.06991 17.5467 3.19271 17.4205 3.29636C17.2954 3.39889 17.1523 3.47831 16.9911 3.53464C16.8299 3.59098 16.6541 3.61914 16.4636 3.61914C16.1639 3.61914 15.8968 3.54816 15.6623 3.40621C15.4279 3.26312 15.2431 3.05864 15.1078 2.79275C14.9737 2.52687 14.9067 2.20972 14.9067 1.84131C14.9067 1.47177 14.9743 1.15462 15.1095 0.889865C15.2448 0.623978 15.4296 0.420057 15.664 0.278101C15.8984 0.135018 16.165 0.0634766 16.4636 0.0634766C16.6474 0.0634766 16.8187 0.0899527 16.9776 0.142905C17.1376 0.19473 17.2813 0.271341 17.4087 0.372738C17.536 0.473009 17.6414 0.595812 17.7248 0.741149C17.8082 0.885358 17.8645 1.05041 17.8938 1.23631Z" fill="#272421"/>
<path d="M24.0309 1.84131C24.0309 2.21085 23.9633 2.52856 23.828 2.79444C23.6928 3.0592 23.5074 3.26312 23.2718 3.40621C23.0374 3.54816 22.7709 3.61914 22.4722 3.61914C22.1724 3.61914 21.9048 3.54816 21.6692 3.40621C21.4348 3.26312 21.25 3.05864 21.1147 2.79275C20.9795 2.52687 20.9119 2.20972 20.9119 1.84131C20.9119 1.47177 20.9795 1.15462 21.1147 0.889865C21.25 0.623978 21.4348 0.420057 21.6692 0.278101C21.9048 0.135018 22.1724 0.0634766 22.4722 0.0634766C22.7709 0.0634766 23.0374 0.135018 23.2718 0.278101C23.5074 0.420057 23.6928 0.623978 23.828 0.889865C23.9633 1.15462 24.0309 1.47177 24.0309 1.84131ZM23.5136 1.84131C23.5136 1.55965 23.4679 1.32249 23.3767 1.12984C23.2865 0.936057 23.1625 0.789594 23.0047 0.69045C22.8481 0.590179 22.6706 0.540044 22.4722 0.540044C22.2727 0.540044 22.0947 0.590179 21.938 0.69045C21.7814 0.789594 21.6574 0.936057 21.5661 1.12984C21.4759 1.32249 21.4309 1.55965 21.4309 1.84131C21.4309 2.12297 21.4759 2.36069 21.5661 2.55447C21.6574 2.74713 21.7814 2.89359 21.938 2.99386C22.0947 3.093 22.2727 3.14258 22.4722 3.14258C22.6706 3.14258 22.8481 3.093 23.0047 2.99386C23.1625 2.89359 23.2865 2.74713 23.3767 2.55447C23.4679 2.36069 23.5136 2.12297 23.5136 1.84131Z" fill="#272421"/>
<path d="M27.5855 0.0634766V3.61914H27.0488V0.0634766H27.5855Z" fill="#272421"/>
<path d="M33.4745 0.0634766V3.61914H32.9812L31.1733 1.01142H31.1403V3.61914H30.6036V0.0634766H31.1003L32.91 2.67467H32.943V0.0634766H33.4745Z" fill="#272421"/>
<path d="M43.7498 17.6154C44.0631 17.6154 44.2824 17.5423 44.4077 17.3961C44.533 17.25 44.6061 17.0464 44.627 16.7854C44.6583 16.5244 44.674 16.2217 44.674 15.8772V12.62C44.674 12.453 44.674 12.2755 44.674 12.0876C44.6845 11.8893 44.7053 11.6961 44.7367 11.5082C44.5591 11.5187 44.3712 11.5291 44.1727 11.5395C43.9743 11.5395 43.7916 11.5448 43.6245 11.5552V10.7253H44.1571C44.5957 10.7253 44.9299 10.6783 45.1596 10.5843C45.3894 10.4904 45.5565 10.3912 45.6609 10.2868H46.2248C46.2457 10.433 46.2614 10.6365 46.2718 10.8975C46.2823 11.1585 46.2927 11.4508 46.3031 11.7744C46.5016 11.4821 46.7313 11.2211 46.9924 10.9915C47.2535 10.7514 47.5354 10.5582 47.8383 10.4121C48.1516 10.2659 48.4753 10.1928 48.8095 10.1928C49.1332 10.1928 49.41 10.2816 49.6397 10.4591C49.8799 10.6261 50 10.9027 50 11.289C50 11.3934 49.9687 11.5134 49.906 11.6492C49.8538 11.7849 49.7598 11.9049 49.6241 12.0093C49.4987 12.1033 49.3264 12.1503 49.1071 12.1503C48.8878 12.1398 48.6946 12.0563 48.5275 11.8997C48.3709 11.7431 48.2978 11.5291 48.3082 11.2577C48.0576 11.2577 47.8069 11.336 47.5563 11.4926C47.3057 11.6387 47.0707 11.8371 46.8514 12.0876C46.6425 12.3382 46.465 12.6096 46.3188 12.9019V16.3313C46.3188 16.5192 46.3136 16.7123 46.3031 16.9107C46.3031 17.0986 46.2875 17.2917 46.2561 17.4901C46.4232 17.4797 46.5955 17.4744 46.7731 17.4744C46.9506 17.464 47.1125 17.4536 47.2587 17.4431V18.2731H43.7498V17.6154Z" fill="#272421"/>
<path d="M39.3347 18.2959C38.6236 18.2959 37.9837 18.1335 37.4148 17.8085C36.8562 17.4734 36.4143 17.0064 36.0893 16.4073C35.7642 15.798 35.6017 15.0821 35.6017 14.2596C35.6017 13.5488 35.7591 12.8837 36.074 12.2643C36.3991 11.6449 36.8511 11.1473 37.4301 10.7716C38.0091 10.3858 38.6795 10.1928 39.4413 10.1928C39.8679 10.1928 40.2692 10.2588 40.645 10.3909C41.031 10.5229 41.3713 10.731 41.6659 11.0153C41.9706 11.2895 42.2093 11.65 42.382 12.0968C42.5547 12.5334 42.641 13.0665 42.641 13.6961L37.3996 13.7875C37.3996 14.4779 37.4758 15.0923 37.6282 15.6305C37.7907 16.1686 38.0497 16.5849 38.4052 16.8794C38.7607 17.1739 39.2229 17.3211 39.7918 17.3211C40.066 17.3211 40.3555 17.2754 40.6602 17.1841C40.9751 17.0825 41.2697 16.9403 41.544 16.7576C41.8284 16.5748 42.0671 16.3565 42.2601 16.1026L42.7324 16.5139C42.4277 16.9708 42.0773 17.3313 41.6811 17.5953C41.285 17.8492 40.8786 18.0269 40.4622 18.1284C40.0559 18.2401 39.68 18.2959 39.3347 18.2959ZM37.4606 12.9954H40.9802C40.9802 12.6096 40.9243 12.2643 40.8126 11.9597C40.711 11.6449 40.5485 11.3961 40.325 11.2133C40.1016 11.0306 39.8172 10.9392 39.4718 10.9392C38.9334 10.9392 38.4916 11.1118 38.1462 11.457C37.8008 11.7921 37.5723 12.3049 37.4606 12.9954Z" fill="#272421"/>
<path d="M26.4343 21.9362V21.2965C26.739 21.2965 26.9523 21.2255 27.0742 21.0833C27.1961 20.9411 27.2672 20.7431 27.2875 20.4893C27.318 20.2354 27.3332 19.9409 27.3332 19.6058L27.3485 12.5537C27.3485 12.3912 27.3535 12.2186 27.3637 12.0358C27.3738 11.8429 27.3891 11.6551 27.4094 11.4723C27.2367 11.4824 27.0539 11.4926 26.8609 11.5027C26.6679 11.5027 26.4901 11.5078 26.3276 11.518V10.7107C26.7847 10.7107 27.1402 10.6904 27.3942 10.6498C27.6583 10.599 27.8563 10.5432 27.9884 10.4822C28.1306 10.4213 28.2373 10.3553 28.3084 10.2842H28.8569C28.867 10.3858 28.8772 10.5076 28.8874 10.6498C28.8975 10.7919 28.9077 10.9341 28.9178 11.0763C29.2429 10.7919 29.6035 10.5736 29.9996 10.4213C30.3958 10.269 30.7919 10.1928 31.1881 10.1928C31.7772 10.1928 32.3156 10.3502 32.8032 10.665C33.3009 10.9696 33.697 11.4063 33.9916 11.9749C34.2964 12.5436 34.4487 13.2188 34.4487 14.0007C34.4487 14.8435 34.276 15.5898 33.9307 16.2397C33.5853 16.8896 33.1181 17.3973 32.5289 17.7628C31.9499 18.1182 31.3049 18.2959 30.5939 18.2959C30.2688 18.2959 29.9692 18.2553 29.6949 18.1741C29.4206 18.103 29.1616 18.0015 28.9178 17.8695V20.0476C28.9178 20.2303 28.9128 20.4131 28.9026 20.5959C28.9026 20.7888 28.8924 20.9817 28.8721 21.1747C29.0346 21.1645 29.1972 21.1544 29.3597 21.1442C29.5324 21.1442 29.6898 21.1391 29.832 21.129V21.9362H26.4343ZM30.4872 17.5039C30.9748 17.5039 31.376 17.3618 31.6909 17.0774C32.0159 16.783 32.2546 16.392 32.407 15.9046C32.5695 15.4071 32.6508 14.8486 32.6508 14.2292C32.6508 13.7113 32.5797 13.2188 32.4375 12.7517C32.2953 12.2745 32.0667 11.8886 31.7518 11.5941C31.4471 11.2895 31.0459 11.1423 30.5481 11.1524C30.2333 11.1524 29.9336 11.2286 29.6492 11.3809C29.3648 11.5332 29.1261 11.7211 28.9331 11.9445C28.9331 12.0765 28.9331 12.2186 28.9331 12.3709C28.9432 12.5232 28.9483 12.7162 28.9483 12.9497C28.9483 13.1731 28.9483 13.4625 28.9483 13.8179C28.9483 14.1632 28.9432 14.5998 28.9331 15.1278C28.9331 15.6457 28.9331 16.2752 28.9331 17.0165C29.1362 17.1688 29.3698 17.2907 29.6339 17.3821C29.9082 17.4734 30.1926 17.5141 30.4872 17.5039Z" fill="#272421"/>
<path d="M21.9847 18.2959C21.2737 18.2959 20.6338 18.1335 20.0649 17.8085C19.5063 17.4734 19.0644 17.0064 18.7393 16.4073C18.4143 15.798 18.2518 15.0821 18.2518 14.2596C18.2518 13.5488 18.4092 12.8837 18.7241 12.2643C19.0492 11.6449 19.5012 11.1473 20.0802 10.7716C20.6592 10.3858 21.3296 10.1928 22.0914 10.1928C22.518 10.1928 22.9193 10.2588 23.2951 10.3909C23.6811 10.5229 24.0214 10.731 24.3159 11.0153C24.6207 11.2895 24.8594 11.65 25.0321 12.0968C25.2048 12.5334 25.2911 13.0665 25.2911 13.6961L20.0497 13.7875C20.0497 14.4779 20.1259 15.0923 20.2782 15.6305C20.4408 16.1686 20.6998 16.5849 21.0553 16.8794C21.4108 17.1739 21.873 17.3211 22.4418 17.3211C22.7161 17.3211 23.0056 17.2754 23.3103 17.1841C23.6252 17.0825 23.9198 16.9403 24.1941 16.7576C24.4785 16.5748 24.7172 16.3565 24.9102 16.1026L25.3825 16.5139C25.0778 16.9708 24.7273 17.3313 24.3312 17.5953C23.935 17.8492 23.5287 18.0269 23.1123 18.1284C22.7059 18.2401 22.3301 18.2959 21.9847 18.2959ZM20.1106 12.9954H23.6303C23.6303 12.6096 23.5744 12.2643 23.4627 11.9597C23.3611 11.6449 23.1986 11.3961 22.9751 11.2133C22.7517 11.0306 22.4672 10.9392 22.1219 10.9392C21.5835 10.9392 21.1417 11.1118 20.7963 11.457C20.4509 11.7921 20.2224 12.3049 20.1106 12.9954Z" fill="#272421"/>
<path d="M13.7864 18.2959C13.0754 18.2959 12.4354 18.1335 11.8666 17.8085C11.3079 17.4734 10.866 17.0064 10.541 16.4073C10.2159 15.798 10.0534 15.0821 10.0534 14.2596C10.0534 13.5488 10.2109 12.8837 10.5258 12.2643C10.8508 11.6449 11.3028 11.1473 11.8818 10.7716C12.4608 10.3858 13.1312 10.1928 13.893 10.1928C14.3197 10.1928 14.7209 10.2588 15.0967 10.3909C15.4827 10.5229 15.823 10.731 16.1176 11.0153C16.4223 11.2895 16.661 11.65 16.8337 12.0968C17.0064 12.5334 17.0927 13.0665 17.0927 13.6961L11.8513 13.7875C11.8513 14.4779 11.9275 15.0923 12.0799 15.6305C12.2424 16.1686 12.5014 16.5849 12.857 16.8794C13.2125 17.1739 13.6747 17.3211 14.2435 17.3211C14.5177 17.3211 14.8072 17.2754 15.112 17.1841C15.4269 17.0825 15.7214 16.9403 15.9957 16.7576C16.2801 16.5748 16.5188 16.3565 16.7118 16.1026L17.1842 16.5139C16.8794 16.9708 16.529 17.3313 16.1328 17.5953C15.7367 17.8492 15.3304 18.0269 14.9139 18.1284C14.5076 18.2401 14.1318 18.2959 13.7864 18.2959ZM11.9123 12.9954H15.4319C15.4319 12.6096 15.3761 12.2643 15.2643 11.9597C15.1628 11.6449 15.0002 11.3961 14.7768 11.2133C14.5533 11.0306 14.2689 10.9392 13.9235 10.9392C13.3852 10.9392 12.9433 11.1118 12.5979 11.457C12.2526 11.7921 12.024 12.3049 11.9123 12.9954Z" fill="#272421"/>
<path d="M0 18.2893V17.6042C0.342657 17.5835 0.586672 17.5108 0.732042 17.3862C0.887795 17.2617 0.986437 17.0748 1.02797 16.8257C1.06951 16.5766 1.09027 16.26 1.09027 15.8759V9.39883C1.09027 9.17047 1.09546 8.95249 1.10585 8.74489C1.11623 8.52691 1.12661 8.34007 1.137 8.18437C0.960477 8.19475 0.76838 8.20513 0.560709 8.21551C0.353038 8.22589 0.166137 8.23627 0 8.24665V7.3903H3.83153V8.07538C3.49926 8.08576 3.25524 8.15842 3.09949 8.29336C2.94374 8.41792 2.8451 8.60476 2.80356 8.85388C2.76203 9.09262 2.74126 9.40921 2.74126 9.80365V12.2949H3.89383L5.59155 9.5701C5.7473 9.33136 5.92382 9.07705 6.12111 8.80717C6.3184 8.53729 6.5053 8.3245 6.68182 8.1688C6.52607 8.17918 6.35993 8.18956 6.18341 8.19994C6.01727 8.19994 5.86671 8.20513 5.73172 8.21551V7.3903H9.23617V8.07538C8.86237 8.09614 8.51452 8.15842 8.19263 8.26222C7.88112 8.36602 7.5748 8.54767 7.27368 8.80717C6.97256 9.06667 6.65586 9.4663 6.32359 10.0061L4.81278 12.4194C5.08275 12.5855 5.306 12.7723 5.48252 12.9799C5.65904 13.1875 5.83037 13.4003 5.9965 13.6183L7.69422 15.9071C8.02649 16.3534 8.31204 16.7012 8.55086 16.9503C8.80006 17.1994 9.03369 17.3707 9.25175 17.4641C9.4698 17.5575 9.68786 17.6042 9.90591 17.6042V18.2893H7.83439C7.74094 18.2893 7.60596 18.2115 7.42943 18.0558C7.25291 17.9001 7.06082 17.7028 6.85315 17.4641C6.65586 17.2253 6.46376 16.9866 6.27686 16.7479L4.51685 14.319C4.34033 14.0802 4.15862 13.8467 3.97171 13.6183C3.79519 13.3899 3.61867 13.2239 3.44215 13.1201H2.74126V16.2029C2.74126 16.4832 2.73607 16.7375 2.72568 16.9658C2.72568 17.1838 2.7153 17.3603 2.69453 17.4952C2.87105 17.4745 3.06315 17.4641 3.27082 17.4641C3.48887 17.4537 3.67578 17.4433 3.83153 17.433V18.2893H0Z" fill="#272421"/>
</svg>
