<svg width="35" height="35" viewBox="0 0 35 35" fill="none" xmlns="http://www.w3.org/2000/svg">
<rect width="35" height="35" rx="6" fill="#272421"/>
<path fill-rule="evenodd" clip-rule="evenodd" d="M25.8 17.5C25.8 23.8 17.4 28 17.4 28C17.4 28 9 23.8 9 17.5V10.15L17.4 7L25.8 10.15V17.5ZM17.2304 16.8819L13.6989 14.3892C13.6552 14.3584 13.6292 14.3083 13.6292 14.2548V13.0166C13.6292 12.882 13.7821 12.8043 13.8908 12.8837L17.3215 15.3881C17.3792 15.4302 17.4575 15.4303 17.5153 15.3883L20.9541 12.8888C21.0629 12.8098 21.2154 12.8875 21.2154 13.0219V14.2264C21.2154 14.2797 21.1897 14.3296 21.1463 14.3604L17.607 16.8819L17.5059 16.9451C17.4525 16.9784 17.3849 16.9784 17.3315 16.9451L17.2304 16.8819ZM13.794 19.732C13.7032 19.7321 13.6298 19.8058 13.6298 19.8965V20.883C13.6298 20.9739 13.7034 21.0475 13.7943 21.0475L21.0434 21.0476C21.1343 21.0476 21.2079 20.9739 21.2079 20.8831V19.8905C21.2079 19.7997 21.1343 19.726 21.0434 19.726L18.1975 19.7261C18.0391 19.7261 17.9722 19.5243 18.0992 19.4296L21.1488 17.1575C21.1904 17.1265 21.215 17.0776 21.215 17.0256V15.8189C21.215 15.6844 21.0625 15.6068 20.9537 15.6858L17.5148 18.1853C17.4571 18.2272 17.3788 18.2272 17.3211 18.1851L13.8904 15.6806C13.7817 15.6013 13.6288 15.6789 13.6288 15.8135V17.054C13.6288 17.1062 13.6536 17.1553 13.6957 17.1863L16.7354 19.4301C16.863 19.5243 16.7966 19.7267 16.638 19.727L13.794 19.732Z" fill="#F6F2ED"/>
</svg>
