<svg width="28" height="28" viewBox="0 0 28 28" fill="none" xmlns="http://www.w3.org/2000/svg">
<path d="M14 28C21.732 28 28 21.732 28 14C28 6.26801 21.732 0 14 0C6.26801 0 0 6.26801 0 14C0 21.732 6.26801 28 14 28Z" fill="#91785C"/>
<path fill-rule="evenodd" clip-rule="evenodd" d="M9.42734 11.473L11.9543 14.001L9.42534 16.531C9.29106 16.6653 9.18456 16.8248 9.11192 17.0003C9.03927 17.1758 9.00191 17.3639 9.00195 17.5538C9.002 17.7438 9.03946 17.9319 9.11219 18.1073C9.18492 18.2828 9.2915 18.4422 9.42584 18.5765C9.56018 18.7108 9.71966 18.8173 9.89516 18.8899C10.0707 18.9626 10.2588 18.9999 10.4487 18.9999C10.6386 18.9998 10.8267 18.9624 11.0022 18.8896C11.1776 18.8169 11.3371 18.7103 11.4713 18.576L14.0003 16.047L16.5273 18.574C16.8003 18.8382 17.1662 18.9845 17.546 18.9815C17.9259 18.9784 18.2893 18.8262 18.558 18.5577C18.8267 18.2891 18.9791 17.9257 18.9823 17.5459C18.9856 17.166 18.8394 16.8001 18.5753 16.527L16.0483 14.001L18.5763 11.471C18.7107 11.3367 18.8173 11.1773 18.89 11.0018C18.9627 10.8264 19.0002 10.6383 19.0002 10.4483C19.0003 10.2584 18.9629 10.0703 18.8903 9.89481C18.8176 9.71931 18.7111 9.55983 18.5768 9.42549C18.4426 9.29115 18.2831 9.18457 18.1077 9.11184C17.9322 9.03911 17.7441 9.00165 17.5542 9.0016C17.3643 9.00156 17.1762 9.03892 17.0007 9.11157C16.8252 9.18421 16.6657 9.29071 16.5313 9.42499L14.0003 11.953L11.4743 9.42599C11.2004 9.1668 10.8362 9.0247 10.4591 9.02991C10.082 9.03512 9.72188 9.18722 9.45523 9.45388C9.18857 9.72054 9.03647 10.0807 9.03126 10.4578C9.02605 10.8348 9.16815 11.1991 9.42734 11.473Z" fill="#FAFAFA"/>
</svg>
