<svg width="19" height="19" viewBox="0 0 19 19" fill="none" xmlns="http://www.w3.org/2000/svg">
<path d="M0 16.6786V16.0101C0.119601 15.7771 0.208842 15.5212 0.368003 15.3149C0.606285 15.0009 0.889648 14.7201 1.15645 14.4273C2.95723 12.4516 4.86677 10.578 6.87614 8.81523C6.9194 8.78783 6.95054 8.7449 6.9632 8.69526C6.97586 8.64561 6.96907 8.59299 6.94422 8.5482C6.5115 7.46752 6.3944 6.28606 6.60658 5.14136C6.82471 3.92899 7.39599 2.8082 8.24864 1.91979C9.1013 1.03137 10.1973 0.414969 11.3989 0.148054C11.6685 0.0900455 11.9417 0.0477019 12.2131 -0.00109863H13.2895C13.4652 0.0265243 13.641 0.0532193 13.8158 0.0836046C14.6487 0.227938 15.4438 0.539719 16.153 1.00014C16.8623 1.46057 17.4709 2.06007 17.9422 2.76246C18.4135 3.46484 18.7376 4.25553 18.8951 5.08678C19.0525 5.91804 19.04 6.7726 18.8583 7.59888C18.046 11.3436 14.032 13.4918 10.4789 12.0729C10.4318 12.0462 10.3763 12.0386 10.3237 12.0516C10.2712 12.0646 10.2257 12.0973 10.1964 12.1429C9.82844 12.5664 9.44388 12.9798 9.0722 13.4034C9.00566 13.4803 8.92424 13.543 8.83285 13.5877C8.74146 13.6323 8.64199 13.6579 8.54043 13.6631C8.26443 13.6861 7.98843 13.7118 7.71243 13.745C7.36466 13.7864 7.09602 13.9558 6.99298 14.2975C6.94604 14.4759 6.93664 14.6621 6.96538 14.8444C7.06842 15.5654 6.61302 16.209 5.89725 16.3038C5.69494 16.3179 5.49178 16.3145 5.29004 16.2937C4.78864 16.2716 4.44824 16.5478 4.3774 17.0404C4.3498 17.2301 4.33692 17.4226 4.30288 17.6104C4.2578 17.8544 4.29552 18.1279 4.08668 18.3203C3.92752 18.4667 3.77848 18.6379 3.59356 18.7401C3.37275 18.8626 3.11791 18.997 2.87779 18.9989C2.18686 18.9989 1.49777 18.9528 0.805007 18.9013C0.627593 18.8833 0.461915 18.8043 0.336243 18.6777C0.210572 18.5511 0.132698 18.3847 0.115922 18.207C0.0929217 18.0174 0.093846 17.824 0.0800458 17.6334C0.0515256 17.3148 0.0257602 16.9953 0 16.6786ZM16.0486 4.67087C16.0472 4.33035 15.9448 3.99793 15.7545 3.71566C15.5642 3.4334 15.2944 3.21397 14.9795 3.08517C14.6645 2.95638 14.3185 2.92402 13.9851 2.99215C13.6517 3.06029 13.3461 3.22587 13.1068 3.46794C12.8675 3.71 12.7053 4.01767 12.6408 4.35201C12.5763 4.68636 12.6124 5.03235 12.7444 5.34618C12.8765 5.66 13.0986 5.92756 13.3826 6.115C13.6667 6.30244 13.9999 6.40133 14.3402 6.39914C14.5661 6.39855 14.7898 6.35319 14.9982 6.26573C15.2065 6.17826 15.3956 6.05041 15.5544 5.88951C15.7132 5.72861 15.8386 5.53784 15.9234 5.32822C16.0083 5.11859 16.0508 4.89425 16.0486 4.6681V4.67087Z" fill="#2D6759"/>
</svg>
