<svg width="169" height="154" viewBox="0 0 169 154" fill="none" xmlns="http://www.w3.org/2000/svg">
<g opacity="0.272">
<path d="M37.8483 143.421C54.4259 143.421 67.8647 129.983 67.8647 113.405C67.8647 96.8274 54.4259 83.3887 37.8483 83.3887C21.2708 83.3887 7.83203 96.8274 7.83203 113.405C7.83203 129.983 21.2708 143.421 37.8483 143.421Z" fill="#2F4F4F"/>
<path d="M46.0703 151.793C46.4657 152.113 46.947 152.309 47.4536 152.356C47.9601 152.402 48.4691 152.297 48.9161 152.055C49.3631 151.812 49.7281 151.442 49.9649 150.992C50.2016 150.542 50.2996 150.031 50.2463 149.525C50.193 149.019 49.9909 148.541 49.6655 148.15C49.3402 147.759 48.9061 147.473 48.4184 147.329C47.9306 147.184 47.411 147.188 46.9252 147.339C46.4395 147.49 46.0094 147.782 45.6895 148.177C45.2606 148.707 45.0598 149.386 45.1312 150.064C45.2026 150.742 45.5404 151.364 46.0703 151.793Z" fill="#41594C"/>
<path d="M55.3109 146.365C55.5807 146.583 55.9093 146.717 56.255 146.749C56.6007 146.78 56.9481 146.709 57.2532 146.543C57.5584 146.378 57.8075 146.125 57.9693 145.818C58.131 145.511 58.198 145.163 58.1618 144.817C58.1256 144.472 57.9879 144.145 57.766 143.878C57.5441 143.611 57.248 143.416 56.9152 143.317C56.5824 143.219 56.2277 143.221 55.8961 143.324C55.5645 143.426 55.2708 143.625 55.0521 143.895C54.759 144.257 54.6217 144.72 54.6702 145.183C54.7187 145.647 54.9492 146.071 55.3109 146.365Z" fill="#41594C"/>
<path d="M3.26298 105.064C3.90795 105.064 4.53843 104.873 5.0747 104.514C5.61098 104.156 6.02895 103.647 6.27577 103.051C6.52259 102.455 6.58717 101.799 6.46134 101.167C6.33551 100.534 6.02493 99.9532 5.56887 99.4971C5.11281 99.0411 4.53175 98.7305 3.89917 98.6047C3.26659 98.4788 2.61091 98.5434 2.01504 98.7902C1.41916 99.037 0.90986 99.455 0.551534 99.9913C0.193208 100.528 0.00195313 101.158 0.00195312 101.803C0.00195313 102.668 0.345524 103.497 0.957084 104.109C1.56865 104.72 2.3981 105.064 3.26298 105.064Z" fill="#41594C"/>
</g>
<path d="M97.2859 145.65C136.892 145.65 168.999 113.543 168.999 73.9363C168.999 34.3299 136.892 2.22266 97.2859 2.22266C57.6795 2.22266 25.5723 34.3299 25.5723 73.9363C25.5723 113.543 57.6795 145.65 97.2859 145.65Z" fill="#DBD8D3"/>
<path d="M97.2861 143.983C135.971 143.983 167.332 112.623 167.332 73.9375C167.332 35.2522 135.971 3.8916 97.2861 3.8916C58.6008 3.8916 27.2402 35.2522 27.2402 73.9375C27.2402 112.623 58.6008 143.983 97.2861 143.983Z" stroke="#0E2B27" stroke-width="3"/>
<path d="M104.23 138.718L103.665 134.197C105.078 134.055 106.632 133.773 108.045 133.491L108.893 138.012C107.337 138.294 105.783 138.436 104.23 138.718ZM113.554 136.882L112.424 132.502L116.662 131.23L118.219 135.61C116.522 136.034 114.967 136.458 113.554 136.882ZM122.456 133.769L120.619 129.53C122.032 128.965 123.304 128.258 124.575 127.693L126.694 131.791C125.323 132.536 123.907 133.198 122.456 133.773V133.769ZM130.93 129.534L128.529 125.578C129.804 124.86 131.03 124.057 132.198 123.176L134.882 126.845C133.618 127.838 132.204 128.686 130.93 129.534ZM138.56 124.023L135.6 120.491C136.731 119.501 137.86 118.513 138.85 117.523L141.963 120.773C140.935 121.962 139.797 123.05 138.563 124.023H138.56ZM145.483 117.382L142.092 114.269C143.082 113.138 144.07 112.009 144.918 110.878L148.587 113.704C147.608 114.981 146.475 116.253 145.487 117.382H145.483ZM151.276 109.894L147.461 107.351C148.308 106.079 149.018 104.808 149.722 103.536L153.677 105.797C152.961 107.21 152.16 108.578 151.277 109.894H151.276ZM155.939 101.699L151.842 99.7207C152.492 98.3913 153.059 97.0225 153.54 95.6224L157.778 97.318C157.289 98.8263 156.676 100.292 155.947 101.7L155.939 101.699ZM159.471 92.7972L155.092 91.3841C155.515 89.971 155.94 88.5578 156.222 87.1458L160.743 88.1353L159.471 92.7972ZM161.59 83.6135L157.069 82.9074C157.351 81.4943 157.492 79.9399 157.633 78.5268L162.155 78.9504C162.017 80.3636 161.735 82.058 161.594 83.6146L161.59 83.6135ZM162.296 74.1473H157.776V73.7192C157.799 72.399 157.752 71.0785 157.634 69.7633L162.156 69.4809C162.298 70.894 162.298 72.3072 162.298 73.7192L162.296 74.1473ZM39.0924 54.6489L34.7129 53.2358C35.1532 51.6846 35.7203 50.1722 36.4084 48.7139L40.6468 50.4095C40.0831 51.8226 39.5171 53.2358 39.0924 54.6489ZM42.4835 46.4536L38.3864 44.3344C39.0924 42.9213 39.7996 41.5081 40.6468 40.0961L44.6027 42.4977C43.8169 43.772 43.1084 45.0931 42.4835 46.4536ZM47.0054 38.9653L43.1907 36.2802C44.0379 35.0083 45.0274 33.7375 46.017 32.4655L49.5493 35.2918C48.7021 36.5627 47.7114 37.6956 47.0054 38.9653ZM52.5157 32.0419L49.1245 28.9288L52.5157 25.5377L55.6288 28.9288C54.4947 29.9216 53.5041 31.0524 52.5157 32.0419ZM59.0155 26.108L56.1903 22.5746C57.4622 21.5851 58.7331 20.5966 60.005 19.7483L62.5522 23.5641C61.2855 24.2825 60.0998 25.1361 59.0155 26.108ZM66.2213 21.018L63.9609 17.0621C65.3741 16.2149 66.7872 15.5055 68.1993 14.8017L70.1783 18.9055C68.7652 19.6071 67.4932 20.3142 66.2213 21.018ZM74.1331 17.2033L72.4376 12.965C73.9144 12.3616 75.4241 11.8419 76.9594 11.4084L78.3726 15.7879C76.9201 16.1323 75.5016 16.6068 74.1343 17.2055L74.1331 17.2033ZM82.6109 14.5182L81.4802 9.99637C83.0367 9.57276 84.5933 9.29035 86.1432 9.00684L86.8492 13.5287C85.4372 13.8144 84.0241 14.0968 82.6109 14.5216V14.5182Z" fill="#002C27" stroke="#F6F2ED" stroke-width="0.7"/>
<path opacity="0.3" d="M70.9519 30.6436H123.62C124.268 30.6436 124.891 30.9013 125.349 31.36C125.808 31.8187 126.066 32.4409 126.066 33.0896V115.143C126.066 115.792 125.808 116.414 125.349 116.873C124.891 117.332 124.268 117.589 123.62 117.589H70.9519C70.3032 117.589 69.681 117.332 69.2223 116.873C68.7636 116.414 68.5059 115.792 68.5059 115.143V33.0896C68.5059 32.4409 68.7636 31.8187 69.2223 31.36C69.681 30.9013 70.3032 30.6436 70.9519 30.6436Z" fill="#2F4F4F"/>
<path d="M125.665 114.31C126.091 114.31 126.5 114.14 126.801 113.839C127.103 113.537 127.272 113.128 127.272 112.702V34.3163C127.272 33.0516 126.776 31.8375 125.89 30.9354C125.003 30.0332 123.798 29.5153 122.534 29.4932H72.1161C70.8369 29.4932 69.6102 30.0013 68.7056 30.9058C67.8011 31.8104 67.293 33.0371 67.293 34.3163V115.945C67.3348 117.196 67.8614 118.382 68.7614 119.252C69.6614 120.122 70.8644 120.608 72.1161 120.607H122.615C123.852 120.566 125.026 120.051 125.894 119.168C126.761 118.285 127.257 117.103 127.277 115.865V112.57C127.277 112.358 127.235 112.149 127.154 111.953C127.073 111.758 126.954 111.581 126.804 111.431C126.654 111.282 126.477 111.164 126.281 111.083C126.086 111.003 125.876 110.961 125.665 110.962L124.057 110.915V115.865C124.037 116.264 123.87 116.642 123.588 116.924C123.305 117.206 122.928 117.374 122.529 117.393H72.1161C71.7032 117.393 71.306 117.235 71.0067 116.951C70.7074 116.666 70.529 116.278 70.5084 115.865V34.3163C70.5084 33.8899 70.6778 33.481 70.9793 33.1795C71.2808 32.878 71.6897 32.7086 72.1161 32.7086H122.615C123.012 32.749 123.381 32.936 123.648 33.2332C123.915 33.5305 124.062 33.9166 124.06 34.3163V112.701C124.06 113.127 124.229 113.536 124.529 113.837C124.83 114.139 125.239 114.309 125.665 114.31Z" fill="#162A27"/>
<path d="M100.498 43.6539C100.925 43.6539 101.334 43.4845 101.635 43.183C101.937 42.8815 102.106 42.4726 102.106 42.0462C102.106 41.6198 101.937 41.2109 101.635 40.9094C101.334 40.6079 100.925 40.4385 100.498 40.4385H94.0687C93.8575 40.4385 93.6485 40.4801 93.4534 40.5609C93.2584 40.6417 93.0811 40.7601 92.9318 40.9094C92.7825 41.0587 92.6641 41.2359 92.5833 41.4309C92.5025 41.626 92.4609 41.8351 92.4609 42.0462C92.4609 42.2573 92.5025 42.4664 92.5833 42.6614C92.6641 42.8565 92.7825 43.0337 92.9318 43.183C93.0811 43.3323 93.2584 43.4507 93.4534 43.5315C93.6485 43.6123 93.8575 43.6539 94.0687 43.6539H100.498Z" fill="#162A27"/>
<path d="M121.282 35.4307H73.291V114.654H121.282V35.4307Z" stroke="#1B2927" stroke-width="2" stroke-dasharray="2 2"/>
<path d="M135.646 48.9209C149.155 48.9209 160.106 37.9696 160.106 24.4605C160.106 10.9513 149.155 0 135.646 0C122.137 0 111.186 10.9513 111.186 24.4605C111.186 37.9696 122.137 48.9209 135.646 48.9209Z" fill="#F5F2ED"/>
<path d="M136.206 46.6962C148.487 46.6962 158.442 36.7405 158.442 24.4594C158.442 12.1784 148.487 2.22266 136.206 2.22266C123.924 2.22266 113.969 12.1784 113.969 24.4594C113.969 36.7405 123.924 46.6962 136.206 46.6962Z" fill="#ED835E"/>
<g clip-path="url(#clip0_7623_11473)">
<path d="M125.114 12.6992C125.326 12.8632 125.562 13.0059 125.747 13.194C132.233 19.6731 138.718 26.1548 145.2 32.6392C145.371 32.811 145.522 32.9895 145.55 33.2408C145.592 33.6287 145.403 33.9544 145.045 34.1217C145.004 34.1413 144.965 34.1676 144.925 34.1905H144.505C144.284 34.0165 144.043 33.8615 143.845 33.6645C141.565 31.3944 139.29 29.1207 137.019 26.8432C136.968 26.7917 136.912 26.7436 136.851 26.6893C136.772 26.8074 136.709 26.9081 136.64 27.0038C136.274 27.5075 135.794 27.8556 135.183 27.995C134.92 28.0554 134.644 28.0638 134.375 28.0997C134.16 28.1282 134.039 28.2575 134.008 28.469C133.981 28.6694 133.982 28.8737 133.947 29.0724C133.726 30.3075 132.789 31.1185 131.536 31.1672C131.229 31.1795 131 31.3116 130.874 31.5976C130.324 32.8462 129.337 33.5732 128.056 33.932C127.656 34.0439 127.242 34.106 126.834 34.1905H126.037C126.008 34.1745 125.976 34.1613 125.944 34.1514C124.995 33.9437 124.39 33.3773 124.145 32.4321C124.119 32.3324 124.089 32.2334 124.064 32.1338V31.2523C124.081 31.215 124.094 31.1765 124.104 31.137C124.314 29.8162 124.862 28.6554 125.801 27.7012C127.335 26.1408 128.887 24.5967 130.434 23.0481C130.894 22.5886 131.363 22.1392 131.892 21.6232C131.772 21.5409 131.674 21.4933 131.6 21.42C129.225 19.0489 126.852 16.6744 124.481 14.2965C124.313 14.1286 124.201 13.9047 124.065 13.7066V13.3708C124.169 13.0479 124.39 12.8341 124.695 12.6992H125.114ZM133.026 22.8488C133.002 22.8652 132.978 22.883 132.955 22.902C130.937 24.9286 128.912 26.9456 126.909 28.9867C126.145 29.7652 125.792 30.7435 125.752 31.8315C125.736 32.2563 126.028 32.5373 126.45 32.5031C126.756 32.4827 127.061 32.4415 127.362 32.38C128.283 32.1768 128.983 31.7017 129.398 30.8084C129.795 29.9572 130.52 29.5335 131.455 29.4927C131.949 29.4708 132.28 29.1569 132.292 28.6862C132.326 27.287 133.189 26.4324 134.584 26.3759C134.791 26.3655 134.989 26.285 135.145 26.1475C135.322 25.9729 135.425 25.7222 135.55 25.4972C135.571 25.4614 135.542 25.3724 135.507 25.3371C134.684 24.5077 133.858 23.685 133.026 22.8488Z" fill="#FDF7F0"/>
<path d="M138.374 12.6992C138.721 12.7686 139.073 12.8218 139.416 12.9091C140.37 13.148 141.243 13.6384 141.942 14.329C142.696 15.0683 143.469 15.7936 144.161 16.5878C146.047 18.7509 146.011 22.0905 144.105 24.2346C143.463 24.956 142.788 25.6466 141.913 26.1C141.607 26.2583 141.308 26.2639 141.02 26.0765C140.899 25.9962 140.801 25.886 140.735 25.7566C140.669 25.6271 140.637 25.4829 140.643 25.3378C140.65 25.1927 140.693 25.0516 140.77 24.9284C140.847 24.8051 140.955 24.7038 141.083 24.6342C141.867 24.2088 142.484 23.5854 143.019 22.8942C144.268 21.2834 144.127 18.9429 142.711 17.4777C142.079 16.824 141.436 16.1811 140.783 15.5491C140.016 14.8128 138.998 14.396 137.935 14.3836C136.871 14.3712 135.843 14.7642 135.06 15.4825C134.506 15.9934 133.964 16.5184 133.581 17.1861C133.357 17.5812 132.848 17.6842 132.46 17.4592C132.272 17.3533 132.134 17.1786 132.073 16.9722C132.012 16.7657 132.034 16.5437 132.134 16.3533C132.261 16.1042 132.413 15.8689 132.588 15.6509C133.429 14.6435 134.326 13.6921 135.574 13.1744C136.107 12.9454 136.672 12.7995 137.249 12.7418C137.304 12.7329 137.358 12.7196 137.41 12.702L138.374 12.6992Z" fill="#FDF7F0"/>
<path d="M141.524 20.1023C141.507 20.4544 141.344 20.718 141.019 20.8568C140.678 21.0045 140.357 20.943 140.091 20.6844C139.606 20.2103 139.131 19.7268 138.651 19.2472C138.305 18.9007 137.957 18.556 137.613 18.2084C137.243 17.834 137.227 17.3197 137.572 16.9772C137.917 16.6346 138.433 16.6486 138.806 17.0202C139.618 17.8292 140.429 18.6397 141.238 19.452C141.42 19.6289 141.532 19.8365 141.524 20.1023Z" fill="#FDF7F0"/>
</g>
<path d="M135.65 45.3072C147.163 45.3072 156.497 35.9737 156.497 24.4603C156.497 12.9468 147.163 3.61328 135.65 3.61328C124.136 3.61328 114.803 12.9468 114.803 24.4603C114.803 35.9737 124.136 45.3072 135.65 45.3072Z" stroke="#1B2927" stroke-width="2.5"/>
<defs>
<clipPath id="clip0_7623_11473">
<rect width="21.4913" height="21.4913" fill="white" transform="translate(124.064 12.6992)"/>
</clipPath>
</defs>
</svg>
