<svg width="25" height="13" viewBox="0 0 25 13" fill="none" xmlns="http://www.w3.org/2000/svg">
<path fill-rule="evenodd" clip-rule="evenodd" d="M11.8304 3.73159C11.0952 2.42033 10.0294 1.46253 8.60417 0.93017C6.73662 0.231996 4.92158 0.391269 3.18346 1.35271C2.95146 1.48078 2.73311 1.63328 2.51468 1.78584C2.41557 1.85506 2.31645 1.92429 2.21603 1.99125C1.98009 2.22325 1.74415 2.45524 1.50821 2.68651C1.43946 2.7862 1.3691 2.88494 1.29874 2.98368C1.14579 3.1983 0.992871 3.4129 0.856603 3.63705C0.267862 4.60649 -0.00653876 5.66611 0.000117916 6.79046C0.00825385 8.07845 0.392119 9.25589 1.13692 10.317C1.21756 10.432 1.30188 10.5444 1.38605 10.6565C1.42695 10.7111 1.46782 10.7655 1.50821 10.8202L2.21603 11.5162C2.25315 11.5419 2.29042 11.5674 2.32769 11.5929C2.41073 11.6496 2.49381 11.7064 2.57549 11.7657C3.98744 12.7853 5.56949 13.1853 7.29282 12.9206C9.34972 12.6049 10.8941 11.525 11.9155 9.73515C11.9769 9.62752 12.0449 9.59043 12.1692 9.59261C12.5153 9.59837 12.8614 9.59734 13.2077 9.59632C13.3425 9.59592 13.4773 9.59552 13.6122 9.59552C14.0771 9.59552 14.542 9.5955 15.0069 9.59548C17.3317 9.59538 19.6561 9.59528 21.981 9.5977C22.2266 9.5977 22.4211 9.52788 22.5971 9.35189C23.0916 8.85722 23.5909 8.36731 24.0901 7.87752C24.3219 7.65008 24.5537 7.42267 24.7849 7.19482C25.0697 6.9141 25.0719 6.59483 24.7901 6.31701C24.5638 6.09429 24.3373 5.87178 24.1107 5.64926C23.5931 5.14081 23.0754 4.63234 22.5609 4.1214C22.4144 3.97668 22.2488 3.90977 22.0461 3.91122C21.9619 3.91161 21.8776 3.91279 21.7934 3.91396C21.5631 3.91716 21.3329 3.92037 21.1038 3.90759C20.7784 3.89013 20.5558 4.02977 20.3746 4.27849C20.2841 4.40253 20.1853 4.52052 20.0833 4.6424C20.0393 4.6949 19.9948 4.74812 19.95 4.80285C19.8683 4.7362 19.7879 4.6713 19.7087 4.60733C19.5226 4.45703 19.3429 4.3119 19.1675 4.1614C18.791 3.83923 18.5048 3.83922 18.1335 4.15777C17.9597 4.30725 17.7803 4.45059 17.5963 4.59761C17.5118 4.66517 17.4263 4.73351 17.3399 4.80358C17.2838 4.73381 17.2288 4.66608 17.1748 4.59955C17.0678 4.46774 16.9646 4.34063 16.8643 4.21159C16.5773 3.84141 16.2023 3.81304 15.8673 4.14031C15.7148 4.28979 15.5626 4.43958 15.4073 4.59244C15.3284 4.67015 15.2486 4.74865 15.1676 4.8283C15.0908 4.7525 15.0149 4.679 14.9402 4.6066C14.7849 4.45604 14.6345 4.31025 14.4901 4.15849C14.334 3.99413 14.1536 3.92432 13.9273 3.92432C13.6636 3.92496 13.3999 3.92233 13.1362 3.9197C12.8038 3.91639 12.4713 3.91307 12.1388 3.91632C11.9806 3.91777 11.9036 3.86177 11.8304 3.73159ZM9.16699 6.75C9.16699 5.36929 8.0477 4.25 6.66699 4.25C5.28628 4.25 4.16699 5.36929 4.16699 6.75C4.16699 8.13071 5.28628 9.25 6.66699 9.25C8.0477 9.25 9.16699 8.13071 9.16699 6.75Z" fill="#2D6759"/>
</svg>
