<svg width="193" height="158" viewBox="0 0 193 158" fill="none" xmlns="http://www.w3.org/2000/svg">
<path opacity="0.29" d="M130.041 7C132.5 7.00002 134.917 7.64795 137.046 8.87856C139.175 10.1092 140.943 11.879 142.171 14.01L176.327 73.283C177.552 75.4089 178.197 77.8194 178.197 80.273C178.197 82.7266 177.552 85.1371 176.327 87.263L142.171 146.536C140.943 148.667 139.175 150.437 137.046 151.667C134.917 152.898 132.5 153.546 130.041 153.546H61.775C59.3156 153.546 56.8995 152.898 54.7701 151.667C52.6407 150.437 50.873 148.667 49.645 146.536L15.489 87.263C14.264 85.1371 13.6191 82.7266 13.6191 80.273C13.6191 77.8194 14.264 75.4089 15.489 73.283L49.645 14.01C50.873 11.879 52.6407 10.1092 54.7701 8.87856C56.8995 7.64795 59.3156 7.00002 61.775 7L130.041 7Z" fill="#A1C6BE"/>
<path d="M129.1 0C130.857 3.48787e-06 132.583 0.463098 134.105 1.34264C135.626 2.22218 136.889 3.4871 137.766 5.01L174.482 68.783C175.355 70.3007 175.815 72.0212 175.815 73.7725C175.815 75.5238 175.355 77.2443 174.482 78.762L137.766 142.535C136.889 144.058 135.626 145.323 134.105 146.202C132.583 147.082 130.857 147.545 129.1 147.545H55.7157C53.9584 147.545 52.2321 147.082 50.7107 146.202C49.1893 145.323 47.9266 144.058 47.0497 142.535L10.3337 78.762C9.4599 77.2443 9 75.5238 9 73.7725C9 72.0212 9.4599 70.3007 10.3337 68.783L47.0497 5.01C47.9266 3.4871 49.1893 2.22218 50.7107 1.34264C52.2321 0.463098 53.9584 3.48787e-06 55.7157 0L129.1 0Z" fill="#F8F2EC"/>
<path d="M43.5192 16H113.441C115.18 16 116.849 16.7032 118.079 17.955C119.309 19.2068 120 20.9046 120 22.6748V107.325C120 109.095 119.309 110.793 118.079 112.045C116.849 113.297 115.18 114 113.441 114H34.5592C32.8196 114 31.1513 113.297 29.9212 112.045C28.6911 110.793 28 109.095 28 107.325V31.9529L43.5192 16Z" fill="#D9C9B9"/>
<path d="M120 57H47V114H120V57Z" fill="#F2E9DF"/>
<path d="M28 32H40.2866C41.0074 31.9965 41.6975 31.6916 42.206 31.1521C42.7145 30.6127 43 29.8825 43 29.1213V16L28 32Z" fill="#E8DCCF"/>
<path d="M119.936 39H48.0639C45.2672 39 43 41.3112 43 44.1623V59.8377C43 62.6888 45.2672 65 48.0639 65H119.936C122.733 65 125 62.6888 125 59.8377V44.1623C125 41.3112 122.733 39 119.936 39Z" fill="#E1E8E1"/>
<path d="M56.5 56C58.9853 56 61 53.9853 61 51.5C61 49.0147 58.9853 47 56.5 47C54.0147 47 52 49.0147 52 51.5C52 53.9853 54.0147 56 56.5 56Z" fill="#A1C6BE"/>
<path d="M70.5 56C72.9853 56 75 53.9853 75 51.5C75 49.0147 72.9853 47 70.5 47C68.0147 47 66 49.0147 66 51.5C66 53.9853 68.0147 56 70.5 56Z" fill="#A1C6BE"/>
<path d="M84.5 56C86.9853 56 89 53.9853 89 51.5C89 49.0147 86.9853 47 84.5 47C82.0147 47 80 49.0147 80 51.5C80 53.9853 82.0147 56 84.5 56Z" fill="#A1C6BE"/>
<path d="M119.936 67H48.0639C45.2672 67 43 69.3112 43 72.1623V87.8377C43 90.6888 45.2672 93 48.0639 93H119.936C122.733 93 125 90.6888 125 87.8377V72.1623C125 69.3112 122.733 67 119.936 67Z" fill="#E1E8E1"/>
<path d="M56.5 85C58.9853 85 61 82.9853 61 80.5C61 78.0147 58.9853 76 56.5 76C54.0147 76 52 78.0147 52 80.5C52 82.9853 54.0147 85 56.5 85Z" fill="#A1C6BE"/>
<path d="M70.5 85C72.9853 85 75 82.9853 75 80.5C75 78.0147 72.9853 76 70.5 76C68.0147 76 66 78.0147 66 80.5C66 82.9853 68.0147 85 70.5 85Z" fill="#A1C6BE"/>
<path d="M84.5 85C86.9853 85 89 82.9853 89 80.5C89 78.0147 86.9853 76 84.5 76C82.0147 76 80 78.0147 80 80.5C80 82.9853 82.0147 85 84.5 85Z" fill="#A1C6BE"/>
<path d="M119.936 96H48.0639C45.2672 96 43 98.2223 43 100.964V116.036C43 118.778 45.2672 121 48.0639 121H119.936C122.733 121 125 118.778 125 116.036V100.964C125 98.2223 122.733 96 119.936 96Z" fill="#E1E8E1"/>
<path d="M56.5 113C58.9853 113 61 110.985 61 108.5C61 106.015 58.9853 104 56.5 104C54.0147 104 52 106.015 52 108.5C52 110.985 54.0147 113 56.5 113Z" fill="#A1C6BE"/>
<path d="M70.5 113C72.9853 113 75 110.985 75 108.5C75 106.015 72.9853 104 70.5 104C68.0147 104 66 106.015 66 108.5C66 110.985 68.0147 113 70.5 113Z" fill="#A1C6BE"/>
<path d="M84.5 113C86.9853 113 89 110.985 89 108.5C89 106.015 86.9853 104 84.5 104C82.0147 104 80 106.015 80 108.5C80 110.985 82.0147 113 84.5 113Z" fill="#A1C6BE"/>
<path d="M126.5 71C141.688 71 154 58.6878 154 43.5C154 28.3122 141.688 16 126.5 16C111.312 16 99 28.3122 99 43.5C99 58.6878 111.312 71 126.5 71Z" fill="#D1CEDB" stroke="#F2E9DF" stroke-width="3" stroke-linecap="round" stroke-linejoin="round"/>
<path d="M146 64L153 71" stroke="#F1D3BB" stroke-width="3" stroke-linecap="round" stroke-linejoin="round"/>
<path d="M152.133 67.5863L149.866 69.9585C148.846 71.0256 148.884 72.7176 149.951 73.7377L169.655 92.5741C170.722 93.5942 172.414 93.5561 173.434 92.489L175.702 90.1169C176.722 89.0498 176.684 87.3577 175.617 86.3376L155.913 67.5012C154.845 66.4811 153.153 66.5192 152.133 67.5863Z" fill="#F1D3BB"/>
<path opacity="0.6" d="M14.3435 22.502C12.9609 22.5004 11.6353 21.9505 10.6577 20.9728C9.68003 19.9952 9.13008 18.6696 9.12849 17.287C9.12246 16.9431 8.98137 16.6153 8.7357 16.3745C8.49003 16.1337 8.15949 15.9992 7.81549 16C7.47416 16 7.14682 16.1356 6.90546 16.377C6.6641 16.6183 6.5285 16.9457 6.5285 17.287C6.52692 18.6765 5.97422 20.0087 4.99168 20.9912C4.00915 21.9737 2.677 22.5264 1.28749 22.528C0.946025 22.528 0.618544 22.6636 0.37709 22.9051C0.135637 23.1466 0 23.474 0 23.8155C0 24.157 0.135637 24.4844 0.37709 24.7259C0.618544 24.9674 0.946025 25.103 1.28749 25.103C2.677 25.1046 4.00915 25.6573 4.99168 26.6398C5.97422 27.6223 6.52692 28.9545 6.5285 30.344C6.5285 30.6855 6.66414 31.013 6.90559 31.2544C7.14705 31.4959 7.47453 31.6315 7.81599 31.6315C8.15746 31.6315 8.48494 31.4959 8.72639 31.2544C8.96785 31.013 9.1035 30.6855 9.1035 30.344C9.10509 28.9547 9.65764 27.6227 10.64 26.6402C11.6223 25.6577 12.9542 25.1049 14.3435 25.103C14.6876 25.097 15.0155 24.9557 15.2564 24.7099C15.4972 24.464 15.6316 24.1332 15.6305 23.789C15.6302 23.4478 15.4946 23.1206 15.2533 22.8793C15.0119 22.638 14.6847 22.5023 14.3435 22.502Z" fill="#B8B6D0"/>
<path opacity="0.6" d="M27.7447 9.49793C27.0842 8.83483 26.7132 7.93641 26.7132 6.99974C26.7132 6.06307 27.0842 5.16465 27.7447 4.50155C27.9065 4.33391 27.9959 4.10925 27.9936 3.87612C27.9913 3.64299 27.8975 3.42013 27.7325 3.25569C27.6517 3.17463 27.5557 3.11032 27.45 3.06645C27.3443 3.02258 27.231 3 27.1166 3C27.0022 3 26.8889 3.02258 26.7833 3.06645C26.6776 3.11032 26.5816 3.17463 26.5007 3.25569C25.8353 3.92059 24.9338 4.294 23.9938 4.294C23.0539 4.294 22.1523 3.92059 21.4869 3.25569C21.3236 3.09209 21.102 3.00019 20.871 3.00019C20.64 3.00019 20.4185 3.09209 20.2551 3.25569C20.0918 3.41928 20 3.64116 20 3.87252C20 4.10388 20.0918 4.32578 20.2551 4.48938C20.919 5.15578 21.2919 6.05872 21.2919 7.00009C21.2919 7.94147 20.919 8.8444 20.2551 9.51081C20.0918 9.67441 20 9.89628 20 10.1276C20 10.359 20.0918 10.5809 20.2551 10.7445C20.4185 10.9081 20.64 11 20.871 11C21.102 11 21.3236 10.9081 21.4869 10.7445C22.1523 10.0796 23.0539 9.70617 23.9938 9.70617C24.9338 9.70617 25.8353 10.0796 26.5007 10.7445C26.6682 10.9064 26.8926 10.9958 27.1253 10.9934C27.3581 10.991 27.5806 10.897 27.7447 10.7316C27.8256 10.6506 27.8898 10.5545 27.9336 10.4486C27.9774 10.3428 28 10.2294 28 10.1148C28 10.0002 27.9774 9.88675 27.9336 9.78091C27.8898 9.67506 27.8256 9.5789 27.7447 9.49793Z" fill="#EDBE9B"/>
<path opacity="0.6" d="M177.618 50.3713C176.628 49.2109 176.071 47.6386 176.071 45.9994C176.071 44.3602 176.628 42.7879 177.618 41.6275C177.861 41.3339 177.995 40.9407 177.991 40.5327C177.988 40.1247 177.847 39.7348 177.599 39.4471C177.354 39.1609 177.022 39.0002 176.675 39.0002C176.329 39.0002 175.996 39.1609 175.751 39.4471C174.753 40.6107 173.401 41.2642 171.991 41.2642C170.581 41.2642 169.229 40.6107 168.23 39.4471C167.985 39.1608 167.653 39 167.307 39C166.96 39 166.628 39.1608 166.383 39.4471C166.138 39.7334 166 40.1218 166 40.5266C166 40.9315 166.138 41.3198 166.383 41.6061C167.379 42.7724 167.938 44.3526 167.938 46C167.938 47.6475 167.379 49.2276 166.383 50.3939C166.261 50.5356 166.165 50.7039 166.099 50.8891C166.034 51.0744 166 51.2729 166 51.4734C166 51.6739 166.034 51.8724 166.099 52.0576C166.165 52.2428 166.261 52.4111 166.383 52.5529C166.504 52.6946 166.648 52.8071 166.807 52.8838C166.965 52.9605 167.135 53 167.307 53C167.478 53 167.648 52.9605 167.807 52.8838C167.965 52.8071 168.109 52.6946 168.23 52.5529C169.229 51.3893 170.581 50.7358 171.991 50.7358C173.401 50.7358 174.753 51.3893 175.751 52.5529C176.003 52.8364 176.339 52.9931 176.688 52.9891C177.037 52.9851 177.371 52.8207 177.617 52.5315C177.862 52.2452 178 51.8569 178 51.452C178 51.0472 177.862 50.6589 177.617 50.3725L177.618 50.3713Z" fill="#DAD1A9"/>
</svg>
