<svg width="33" height="41" viewBox="0 0 33 41" fill="none" xmlns="http://www.w3.org/2000/svg">
<path d="M0.258789 26.6294C0.274368 25.3827 0.619762 24.1623 1.25986 23.0924C3.55653 19.1052 5.84724 15.1153 8.132 11.123C10.0218 7.82695 11.909 4.53091 13.7937 1.23487C13.9671 0.858483 14.2469 0.54111 14.5986 0.321917C14.9503 0.102724 15.3585 -0.00869535 15.7728 0.00140948C16.1095 -0.0115736 16.4436 0.0653272 16.7407 0.224209C17.0378 0.38309 17.2872 0.618221 17.4634 0.905437C18.0315 1.78895 18.554 2.70098 19.0288 3.63795C19.2865 4.15463 19.4056 4.7293 19.3748 5.30581C19.3439 5.88233 19.164 6.44098 18.8526 6.92718L14.1486 15.0685L4.18901 32.3242C4.1124 32.457 4.04089 32.5796 3.95406 32.7175C3.86197 32.876 3.72989 33.0075 3.57102 33.0989C3.41215 33.1904 3.23206 33.2385 3.04876 33.2385C2.86546 33.2385 2.68537 33.1904 2.5265 33.0989C2.36763 33.0075 2.23555 32.876 2.14346 32.7175C1.79196 32.1511 1.49524 31.5525 1.25731 30.9299C0.684426 29.5629 0.346828 28.1089 0.258789 26.6294Z" fill="#2D6759"/>
<path d="M22.3472 36.1038C22.3564 37.0715 21.9903 38.0051 21.3257 38.7086C20.9886 39.0712 20.6311 39.4186 20.2736 39.7633C19.7556 40.3229 19.0665 40.6944 18.3144 40.8197C17.5623 40.9449 16.7899 40.8168 16.1186 40.4554C14.0296 39.4773 11.9432 38.4864 9.85682 37.5007C9.44311 37.304 9.02429 37.1176 8.61825 36.9057C8.19114 36.6988 7.81134 36.4061 7.50262 36.0457C7.19389 35.6852 6.9629 35.265 6.8241 34.8112C6.6853 34.3574 6.64169 33.8798 6.69598 33.4084C6.75027 32.9369 6.9013 32.4818 7.13962 32.0714C8.05897 30.4217 9.00386 28.7856 9.97428 27.1631C10.1844 26.7794 10.4828 26.4512 10.8448 26.2057C11.2069 25.9602 11.6223 25.8043 12.0565 25.7512C12.4907 25.698 12.9314 25.749 13.342 25.8999C13.7526 26.0509 14.1214 26.2975 14.4178 26.6192C16.6702 28.8512 18.9098 31.0959 21.1546 33.3356C21.5284 33.6932 21.8259 34.1229 22.0291 34.5986C22.2323 35.0744 22.3371 35.5864 22.337 36.1038" fill="#2D6759"/>
<path d="M23.6675 23.455C25.1998 23.455 26.732 23.4321 28.2643 23.455C28.9284 23.4517 29.582 23.6211 30.1609 23.9466C30.7398 24.2721 31.224 24.7424 31.5663 25.3116C31.9302 25.8592 32.0943 26.5154 32.0311 27.1699C31.9678 27.8243 31.681 28.437 31.219 28.9047C30.1285 30.031 29.0202 31.1418 27.8838 32.2246C27.5865 32.5187 27.2329 32.7498 26.8443 32.9043C26.4557 33.0587 26.04 33.1333 25.6219 33.1235C25.2038 33.1137 24.792 33.0198 24.411 32.8474C24.0301 32.6749 23.6878 32.4276 23.4045 32.1199C22.0536 30.7945 20.7231 29.4487 19.3849 28.1105C18.8435 27.5691 18.2944 27.0379 17.7632 26.4863C17.5017 26.2369 17.3232 25.9132 17.2519 25.5589C17.1806 25.2046 17.22 24.8369 17.3647 24.5057C17.5094 24.1746 17.7523 23.8959 18.0607 23.7075C18.3691 23.5191 18.728 23.4301 19.0887 23.4525H23.6854" fill="#2D6759"/>
<path d="M21.0018 21.029C19.9318 21.029 18.8618 21.029 17.7918 21.029C17.1828 21.0386 16.5922 20.8198 16.1366 20.4157C15.6809 20.0115 15.3931 19.4513 15.3299 18.8455C15.2705 18.2894 15.4011 17.7296 15.7003 17.2571C16.4936 15.8866 17.2862 14.5152 18.0778 13.143C18.3332 12.6808 18.6039 12.2109 18.8823 11.7563C19.1239 11.3252 19.476 10.9662 19.9024 10.7164C20.3288 10.4665 20.8141 10.3348 21.3083 10.3348C21.8025 10.3348 22.2878 10.4665 22.7142 10.7164C23.1406 10.9662 23.4928 11.3252 23.7344 11.7563C24.7218 13.4111 25.6854 15.0804 26.6252 16.7642C26.8905 17.1944 27.034 17.6886 27.0404 18.194C27.0468 18.6994 26.9159 19.197 26.6616 19.6338C26.4073 20.0706 26.0391 20.4301 25.5964 20.6741C25.1538 20.918 24.6531 21.0371 24.148 21.0188C23.0985 21.0188 22.0464 21.0188 20.9968 21.0188" fill="#2D6759"/>
</svg>
