<svg xmlns="http://www.w3.org/2000/svg" xmlns:xlink="http://www.w3.org/1999/xlink" width="154.281" height="144.914" viewBox="0 0 154.281 144.914">
  <defs>
    <linearGradient id="linear-gradient" x1="0.5" x2="0.5" y2="1" gradientUnits="objectBoundingBox">
      <stop offset="0" stop-color="#00836a"/>
      <stop offset="1" stop-color="#073e39"/>
    </linearGradient>
  </defs>
  <g id="keystone" transform="translate(-69 -457)">
    <path id="Union_23" data-name="Union 23" d="M21.684,66.622a2.567,2.567,0,1,1,2.567,2.567A2.567,2.567,0,0,1,21.684,66.622Zm8.977.123A1.753,1.753,0,1,1,32.414,68.5,1.753,1.753,0,0,1,30.661,66.745ZM0,32.5A29.965,29.965,0,1,1,29.965,62.46,29.965,29.965,0,0,1,0,32.5ZM7.132,3.256a3.256,3.256,0,1,1,3.255,3.255A3.255,3.255,0,0,1,7.132,3.256Z" transform="translate(69 532.725)" opacity="0.4" fill="url(#linear-gradient)"/>
    <path id="Union_22" data-name="Union 22" d="M18.278,24.819a.647.647,0,1,1,.158.02A.648.648,0,0,1,18.278,24.819Zm2-2.365a.95.95,0,1,1,.95.95A.95.95,0,0,1,20.276,22.454ZM0,12.316A11.088,11.088,0,1,1,11.088,23.4,11.088,11.088,0,0,1,0,12.316ZM17.507,1.2a1.2,1.2,0,1,1,1.2,1.2A1.2,1.2,0,0,1,17.507,1.2Z" transform="translate(201.105 460.391)" opacity="0.4" fill="url(#linear-gradient)"/>
    <g id="Rectangle_7601" data-name="Rectangle 7601" transform="translate(121.337 598.355) rotate(-90)" fill="#F6F2ED" stroke="#002c27" stroke-width="1.5">
      <rect width="141.355" height="87.15" rx="5" stroke="none"/>
      <rect x="0.75" y="0.75" width="139.855" height="85.65" rx="4.25" fill="none"/>
    </g>
    <g id="Rectangle_7600" data-name="Rectangle 7600" transform="translate(128.258 591.434) rotate(-90)" fill="none" stroke="#002c27" stroke-width="1.5" stroke-dasharray="1.5 2">
      <rect width="127.513" height="72.847" rx="5" stroke="none"/>
      <rect x="0.75" y="0.75" width="126.013" height="71.347" rx="4.25" fill="none"/>
    </g>
    <g id="Group_43869" data-name="Group 43869" transform="translate(-1803 19019)">
      <rect id="Rectangle_8163" data-name="Rectangle 8163" width="59" height="116" rx="3" transform="translate(1938 -18551)" fill="#3c3c3c"/>
      <rect id="Rectangle_8164" data-name="Rectangle 8164" width="48" height="62" rx="2" transform="translate(1943 -18506)" fill="#f5f2ed"/>
      <rect id="Rectangle_8165" data-name="Rectangle 8165" width="18" height="9" transform="translate(1958 -18504)" fill="#3c3c3c"/>
      <rect id="Rectangle_8166" data-name="Rectangle 8166" width="14" height="14" rx="7" transform="translate(1960 -18546)" fill="#f6f2ed"/>
      <rect id="Rectangle_8167" data-name="Rectangle 8167" width="12" height="12" rx="6" transform="translate(1961 -18527)" fill="#f6f2ed"/>
    </g>
  </g>
</svg>
