<svg width="66" height="10" viewBox="0 0 66 10" fill="none" xmlns="http://www.w3.org/2000/svg">
<path d="M51.2908 3.48532C51.2372 3.60647 51.2195 3.74043 51.2397 3.87132C51.2397 5.49332 51.2397 7.11532 51.2397 8.73732C51.2397 8.81132 51.2397 8.88531 51.2397 8.96031C51.2397 9.06031 51.2117 9.11732 51.0967 9.11632C50.5453 9.11298 49.994 9.11298 49.4426 9.11632C49.3356 9.11632 49.2858 9.07631 49.2908 8.96931C49.2908 8.90531 49.2908 8.84232 49.2908 8.77832C49.2908 6.06432 49.2908 3.35065 49.2908 0.637313C49.2908 0.228313 49.2546 0.29432 49.6526 0.29132C50.0766 0.29132 50.5016 0.308309 50.9236 0.283309C51.0267 0.274365 51.1305 0.294679 51.2227 0.341903C51.3148 0.389126 51.3916 0.461361 51.4446 0.550323C52.7512 2.25899 54.063 3.96398 55.3796 5.66531C55.4376 5.74031 55.4976 5.81232 55.5686 5.90132C55.6556 5.79132 55.6196 5.67231 55.6196 5.56631C55.6196 3.92298 55.6196 2.27998 55.6196 0.637313C55.6196 0.252313 55.5866 0.293312 55.9556 0.292312C56.3902 0.292312 56.8236 0.292312 57.2556 0.292312C57.5936 0.292312 57.5696 0.257315 57.5696 0.592315C57.5696 1.30231 57.5696 2.01265 57.5696 2.72331V8.73431C57.5696 8.81931 57.5696 8.90431 57.5696 8.98831C57.5696 9.07231 57.5216 9.11731 57.4326 9.11731C56.8706 9.11731 56.3086 9.11731 55.7466 9.11731C55.5996 9.11731 55.5467 9.01732 55.4797 8.92532L52.3958 4.92532C52.0348 4.45732 51.6726 3.99031 51.2866 3.49031" fill="white"/>
<path d="M27.8869 0.00524114C28.7774 -0.0378956 29.6605 0.186018 30.4229 0.648247C31.0565 1.0499 31.5156 1.6754 31.7089 2.40025C31.7509 2.54825 31.7029 2.58924 31.5779 2.61324C30.9439 2.73724 30.3099 2.85824 29.6779 2.99224C29.5089 3.02824 29.5098 2.91024 29.4778 2.81824C29.3984 2.60973 29.2776 2.41945 29.1226 2.25889C28.9676 2.09833 28.7818 1.9708 28.5762 1.88399C28.3706 1.79719 28.1497 1.7529 27.9266 1.75381C27.7034 1.75471 27.4827 1.80078 27.2779 1.88924C27.1057 1.94778 26.9569 2.05999 26.8532 2.20939C26.7495 2.35878 26.6964 2.53748 26.7018 2.71925C26.7011 2.84193 26.7363 2.96214 26.8031 3.06504C26.87 3.16794 26.9655 3.24901 27.0779 3.29824C27.263 3.3772 27.4572 3.43295 27.6559 3.46424C28.3059 3.61124 28.9558 3.75025 29.6078 3.89825C29.9375 3.97808 30.2555 4.10008 30.5539 4.26124C30.8924 4.44464 31.1841 4.70361 31.4063 5.01804C31.6285 5.33247 31.7754 5.69391 31.8352 6.07426C31.8951 6.4546 31.8665 6.84363 31.7516 7.21113C31.6368 7.57863 31.4387 7.9147 31.1729 8.19324C30.8335 8.54584 30.4169 8.81489 29.9559 8.97924C28.6385 9.46609 27.1844 9.42741 25.8948 8.87124C25.4661 8.70971 25.0825 8.44755 24.7762 8.1068C24.4699 7.76606 24.2499 7.35672 24.1348 6.91325C24.1188 6.85225 24.1079 6.78924 24.0949 6.72724C24.0759 6.63424 24.1168 6.59625 24.2078 6.57925C24.8845 6.45525 25.5605 6.32825 26.2359 6.19825C26.3529 6.17525 26.4029 6.21624 26.4489 6.32224C26.5387 6.55733 26.6754 6.77174 26.8505 6.95249C27.0256 7.13324 27.2356 7.27657 27.4677 7.3738C27.6998 7.47103 27.9493 7.52014 28.201 7.51815C28.4526 7.51616 28.7012 7.46312 28.9318 7.36224C29.0908 7.31709 29.2335 7.22704 29.3426 7.10288C29.4517 6.97872 29.5226 6.82572 29.5469 6.66224C29.5764 6.5151 29.5544 6.36232 29.4847 6.22944C29.4149 6.09656 29.3017 5.99164 29.1639 5.93224C28.9708 5.84544 28.767 5.78491 28.5579 5.75225C27.8849 5.60825 27.2108 5.47124 26.5408 5.31724C26.0841 5.21763 25.6527 5.0257 25.2729 4.75324C24.9989 4.55936 24.7729 4.30538 24.6122 4.01072C24.4515 3.71606 24.3605 3.38855 24.3459 3.05325C24.2852 2.47852 24.4191 1.90005 24.7262 1.4105C25.0334 0.920953 25.496 0.548665 26.0398 0.353248C26.6226 0.111834 27.2493 -0.00599305 27.8799 0.00724004" fill="white"/>
<path d="M48.5498 4.69509C48.5455 5.56181 48.2843 6.40779 47.7993 7.12614C47.3144 7.84448 46.6274 8.40294 45.8251 8.73096C45.0228 9.05899 44.1413 9.14185 43.292 8.96908C42.4427 8.79631 41.6636 8.37566 41.0532 7.76028C40.4429 7.1449 40.0286 6.36242 39.8628 5.5117C39.697 4.66097 39.7871 3.78018 40.1217 2.98064C40.4563 2.1811 41.0204 1.49868 41.7427 1.01961C42.465 0.540547 43.3131 0.286328 44.1798 0.289085C44.7564 0.290391 45.327 0.405517 45.8589 0.627845C46.3909 0.850173 46.8737 1.17533 47.2797 1.58468C47.6857 1.99402 48.0069 2.47951 48.2249 3.01327C48.4428 3.54702 48.5533 4.11856 48.5498 4.69509ZM46.4499 4.69509C46.4499 4.08974 46.2113 3.50877 45.7858 3.07821C45.3603 2.64764 44.7821 2.40219 44.1768 2.39509C43.5734 2.40492 42.998 2.65086 42.5739 3.08015C42.1498 3.50943 41.911 4.08784 41.9085 4.69128C41.906 5.29471 42.14 5.87507 42.5606 6.30784C42.9811 6.7406 43.5546 6.99129 44.1579 7.0061C44.4606 7.00637 44.7603 6.94664 45.0398 6.83038C45.3193 6.71411 45.5731 6.54362 45.7863 6.32873C45.9995 6.11384 46.1679 5.85882 46.282 5.57842C46.3961 5.29802 46.4525 4.9978 46.4499 4.69509Z" fill="white"/>
<path d="M7.77179 9.06097H6.94385C6.50885 9.06097 6.0748 9.05197 5.6438 9.06097C5.57145 9.06694 5.49896 9.05179 5.43506 9.01736C5.37116 8.98292 5.3186 8.93068 5.28381 8.86697C4.66681 7.96697 4.0428 7.07297 3.4198 6.17697C3.3418 6.06497 3.25981 5.95497 3.15881 5.81597C2.99881 6.00397 2.85083 6.17597 2.70483 6.34997C2.51383 6.57697 2.33284 6.81298 2.13184 7.02998C2.0709 7.09508 2.02428 7.17222 1.995 7.25645C1.96571 7.34067 1.95438 7.43011 1.96179 7.51898C1.97279 7.95298 1.96679 8.38798 1.96179 8.81898C1.96179 9.04698 1.96184 9.05097 1.74084 9.05297C1.24284 9.05297 0.744826 9.05297 0.246826 9.05297C0.0118262 9.05297 0.00878906 9.05298 0.00878906 8.80398C0.00878906 7.29865 0.00878906 5.79363 0.00878906 4.28896C0.00878906 3.02763 0.00878906 1.7663 0.00878906 0.504968C0.00878906 0.232968 0.00881836 0.231966 0.288818 0.230966C0.765818 0.230966 1.24285 0.230966 1.71985 0.230966C1.95885 0.230966 1.96281 0.230975 1.96381 0.477975C1.96381 1.57998 1.96381 2.6823 1.96381 3.78497V4.16497C2.08381 4.03097 2.15283 3.95897 2.21783 3.88197C3.16083 2.75097 4.10781 1.62297 5.04181 0.481973C5.10599 0.394223 5.19169 0.324487 5.29065 0.279474C5.38961 0.23446 5.49849 0.215683 5.60681 0.224969C6.22081 0.240969 6.83581 0.229974 7.45081 0.229974H7.73584C7.71057 0.341932 7.6486 0.442244 7.55981 0.514978C6.60515 1.66431 5.64917 2.81231 4.69183 3.95898C4.63783 4.02398 4.58681 4.09198 4.52881 4.15898C4.51544 4.17125 4.5048 4.18616 4.4975 4.20277C4.4902 4.21938 4.48639 4.23733 4.48639 4.25547C4.48639 4.27362 4.4902 4.29156 4.4975 4.30818C4.5048 4.32479 4.51544 4.3397 4.52881 4.35197C4.56781 4.40197 4.60283 4.45197 4.63983 4.50697L7.59283 8.76197C7.65083 8.84597 7.70284 8.93297 7.78284 9.05697" fill="white"/>
<path d="M65.2624 7.68261C65.2624 8.09861 65.2624 8.5216 65.2624 8.9446C65.2624 9.0646 65.2224 9.12262 65.0974 9.11462C65.0344 9.11462 64.9704 9.11462 64.9064 9.11462H59.2456C58.8716 9.11462 58.9135 9.1436 58.9135 8.7656C58.9135 7.5356 58.9135 6.30594 58.9135 5.07661V0.655617C58.9135 0.581617 58.9135 0.50661 58.9135 0.43261C58.9065 0.31861 58.9655 0.283613 59.0685 0.288613C59.1215 0.288613 59.1745 0.288613 59.2275 0.288613H64.9523C65.0053 0.288613 65.0585 0.288613 65.1115 0.288613C65.2185 0.282613 65.2634 0.327615 65.2624 0.437615C65.2591 0.829615 65.2591 1.22195 65.2624 1.61462C65.2624 1.72662 65.2113 1.76361 65.1083 1.75961C65.0343 1.75961 64.9594 1.75961 64.8854 1.75961H61.1325C60.8755 1.75961 60.8725 1.75962 60.8715 2.01962C60.8715 2.57062 60.8715 3.11961 60.8715 3.67361C60.8715 4.01561 60.8544 3.97361 61.1894 3.97361C62.4194 3.97361 63.6493 3.97361 64.8793 3.97361C65.3263 3.97361 65.2564 3.91861 65.2614 4.36361C65.2614 4.63961 65.2614 4.91461 65.2614 5.19061C65.2614 5.43361 65.2615 5.43661 65.0205 5.43761C64.2145 5.43761 63.4088 5.43761 62.6035 5.43761C62.1155 5.43761 61.6276 5.43761 61.1406 5.43761C60.8766 5.43761 60.8735 5.43761 60.8725 5.68661C60.8725 6.25927 60.8725 6.8316 60.8725 7.4036C60.8725 7.6436 60.8725 7.64661 61.1135 7.64761C62.3755 7.64761 63.637 7.64761 64.8984 7.64761C65.0205 7.63067 65.145 7.64302 65.2614 7.68362" fill="white"/>
<path d="M14.824 3.94069V5.3577C14.7091 5.39111 14.5886 5.4003 14.47 5.38469C13.23 5.38469 11.99 5.38469 10.75 5.38469C10.473 5.38469 10.471 5.3847 10.47 5.6577C10.47 6.20904 10.47 6.76004 10.47 7.3107C10.47 7.5867 10.4699 7.5897 10.7439 7.5897H14.823V9.02869C14.7312 9.0648 14.6313 9.07552 14.534 9.0597C12.6373 9.0597 10.7403 9.0597 8.84293 9.0597C8.78993 9.0597 8.73699 9.0597 8.68399 9.0597C8.56199 9.0707 8.50698 9.0217 8.51798 8.8967C8.52298 8.8337 8.51798 8.76969 8.51798 8.70569V0.598698C8.51798 0.587698 8.51798 0.577701 8.51798 0.566701C8.51798 0.211701 8.47997 0.235692 8.83597 0.235692H14.559C14.833 0.235692 14.835 0.235694 14.836 0.509694C14.836 0.827694 14.836 1.1457 14.836 1.4637C14.836 1.7037 14.836 1.70769 14.596 1.70769C13.3453 1.70769 12.095 1.70769 10.845 1.70769C10.771 1.70769 10.696 1.70769 10.622 1.70769C10.516 1.70269 10.47 1.7467 10.47 1.8557C10.47 2.4917 10.47 3.12769 10.47 3.76369C10.47 3.87269 10.513 3.9167 10.621 3.9097C10.695 3.9097 10.7689 3.9097 10.8429 3.9097C12.0616 3.9097 13.2803 3.9097 14.4989 3.9097C14.6079 3.89533 14.7189 3.90453 14.824 3.9367" fill="white"/>
<path d="M15.4888 0.239052C16.1668 0.239052 16.8228 0.244052 17.4788 0.239052C17.6468 0.239052 17.6908 0.347055 17.7538 0.455055C18.2411 1.28639 18.7285 2.11738 19.2158 2.94805C19.4088 3.27605 19.6038 3.60306 19.7988 3.93206C19.9208 3.86306 19.9548 3.74406 20.0118 3.64706C20.6308 2.59806 21.2508 1.54706 21.8558 0.494057C21.8933 0.409254 21.9568 0.338613 22.0372 0.292396C22.1176 0.24618 22.2107 0.226793 22.3029 0.237053C22.9139 0.252053 23.5258 0.242058 24.1608 0.242058C24.1325 0.36203 24.0802 0.474991 24.0068 0.574058C22.9868 2.35672 21.9651 4.13872 20.9418 5.92005C20.8397 6.09199 20.7882 6.28917 20.7928 6.48905C20.8018 7.26305 20.7928 8.03605 20.7928 8.81005C20.7928 9.06105 20.7928 9.06305 20.5298 9.06405C20.0418 9.06405 19.5548 9.06405 19.0668 9.06405C18.8458 9.06405 18.8408 9.05905 18.8398 8.83405C18.8398 8.03905 18.8348 7.24406 18.8398 6.44906C18.8425 6.26994 18.795 6.09364 18.7028 5.94006C17.6734 4.15072 16.6471 2.35938 15.6238 0.566047C15.5516 0.470858 15.5032 0.359768 15.4828 0.242058" fill="white"/>
<path d="M35.0256 2.25296C34.2256 2.25296 33.4786 2.25296 32.7256 2.25296C32.2946 2.25296 32.3426 2.32197 32.3406 1.86397C32.3406 1.4293 32.3406 0.995965 32.3406 0.563965C32.3406 0.294965 32.3405 0.292969 32.6225 0.292969H39.6326V2.25897H37.2735C36.9395 2.25897 36.9736 2.23697 36.9736 2.57297C36.9736 2.78497 36.9736 2.99697 36.9736 3.20897V8.74196C36.9736 8.81596 36.9736 8.88997 36.9736 8.96497C36.9736 9.06497 36.9416 9.11996 36.8286 9.11896C36.2773 9.11896 35.7259 9.11896 35.1745 9.11896C35.0645 9.11896 35.0216 9.07396 35.0256 8.96896C35.0256 8.89496 35.0256 8.82097 35.0256 8.74597V2.25696V2.25296Z" fill="white"/>
</svg>
