<svg xmlns="http://www.w3.org/2000/svg" width="12.443" height="16" viewBox="0 0 12.443 16">
  <g id="keystone" transform="translate(0 0)">
    <path id="Path_28292" data-name="Path 28292" d="M0,10.427A2.765,2.765,0,0,1,.392,9.042Q1.741,6.7,3.083,4.355,4.193,2.419,5.3.483A.831.831,0,0,1,6.075,0a.743.743,0,0,1,.662.354A12.046,12.046,0,0,1,7.35,1.424a1.307,1.307,0,0,1-.069,1.288L5.439,5.9l-3.9,6.757c-.03.052-.058.1-.092.154a.41.41,0,0,1-.709,0,4.109,4.109,0,0,1-.347-.7A5.148,5.148,0,0,1,0,10.427" transform="translate(0 -0.001)" fill="#24292f"/>
    <path id="Path_28294" data-name="Path 28294" d="M118.112,452.659a1.465,1.465,0,0,1-.4,1.02c-.132.142-.272.278-.412.413a1.347,1.347,0,0,1-1.627.271c-.818-.383-1.635-.771-2.452-1.157-.162-.077-.326-.15-.485-.233a1.35,1.35,0,0,1-.579-1.893q.54-.969,1.11-1.922a1.079,1.079,0,0,1,1.74-.213c.882.874,1.759,1.753,2.638,2.63a1.5,1.5,0,0,1,.463,1.084" transform="translate(-109.463 -438.523)" fill="#24292f"/>
    <path id="Path_28300" data-name="Path 28300" d="M297.91,408.742c.6,0,1.2-.009,1.8,0a1.5,1.5,0,0,1,1.293.727,1.12,1.12,0,0,1-.136,1.407c-.427.441-.861.876-1.306,1.3a1.219,1.219,0,0,1-1.754-.041c-.529-.519-1.05-1.046-1.574-1.57-.212-.212-.427-.42-.635-.636a.69.69,0,0,1,.519-1.188h1.8" transform="translate(-288.744 -399.559)" fill="#24292f"/>
    <path id="Path_28303" data-name="Path 28303" d="M264.689,184.239c-.419,0-.838,0-1.257,0a.954.954,0,0,1-.964-.855.97.97,0,0,1,.145-.622q.466-.805.931-1.611c.1-.181.206-.365.315-.543a1.089,1.089,0,0,1,1.9,0q.58.972,1.132,1.961a1.093,1.093,0,0,1-.97,1.666c-.411,0-.823,0-1.234,0" transform="translate(-256.567 -176.006)" fill="#24292f"/>
  </g>
</svg>
