<svg width="33" height="41" viewBox="0 0 33 41" fill="none" xmlns="http://www.w3.org/2000/svg">
<path d="M0.258789 26.6294C0.274368 25.3827 0.619762 24.1623 1.25986 23.0924C3.55653 19.1052 5.84724 15.1153 8.132 11.123C10.0218 7.82695 11.909 4.53091 13.7937 1.23487C13.9671 0.858483 14.2469 0.54111 14.5986 0.321917C14.9503 0.102724 15.3585 -0.00869535 15.7728 0.00140948C16.1095 -0.0115736 16.4436 0.0653272 16.7407 0.224209C17.0378 0.38309 17.2872 0.618221 17.4634 0.905437C18.0315 1.78895 18.554 2.70098 19.0288 3.63795C19.2865 4.15463 19.4056 4.7293 19.3748 5.30581C19.3439 5.88233 19.164 6.44098 18.8526 6.92718L14.1486 15.0685L4.18901 32.3242C4.1124 32.457 4.04089 32.5796 3.95406 32.7175C3.86197 32.876 3.72989 33.0075 3.57102 33.0989C3.41215 33.1904 3.23206 33.2385 3.04876 33.2385C2.86546 33.2385 2.68537 33.1904 2.5265 33.0989C2.36763 33.0075 2.23555 32.876 2.14346 32.7175C1.79196 32.1511 1.49524 31.5525 1.25731 30.9299C0.684426 29.5629 0.346828 28.1089 0.258789 26.6294Z" fill="#41594C"/>
<path d="M22.3472 36.104C22.3564 37.0717 21.9903 38.0053 21.3257 38.7088C20.9886 39.0714 20.6311 39.4188 20.2736 39.7636C19.7556 40.3231 19.0665 40.6946 18.3144 40.8199C17.5623 40.9452 16.7899 40.817 16.1186 40.4556C14.0296 39.4775 11.9432 38.4866 9.85682 37.5009C9.44311 37.3043 9.02429 37.1178 8.61825 36.9059C8.19114 36.699 7.81134 36.4063 7.50262 36.0459C7.19389 35.6855 6.9629 35.2652 6.8241 34.8114C6.6853 34.3576 6.64169 33.88 6.69598 33.4086C6.75027 32.9371 6.9013 32.482 7.13962 32.0716C8.05897 30.4219 9.00386 28.7858 9.97428 27.1633C10.1844 26.7796 10.4828 26.4514 10.8448 26.2059C11.2069 25.9604 11.6223 25.8045 12.0565 25.7514C12.4907 25.6982 12.9314 25.7492 13.342 25.9002C13.7526 26.0511 14.1214 26.2977 14.4178 26.6194C16.6702 28.8514 18.9098 31.0961 21.1546 33.3358C21.5284 33.6934 21.8259 34.1231 22.0291 34.5989C22.2323 35.0746 22.3371 35.5866 22.337 36.104" fill="#41594C"/>
<path d="M23.6675 23.455C25.1998 23.455 26.732 23.4321 28.2643 23.455C28.9284 23.4517 29.582 23.6211 30.1609 23.9466C30.7398 24.2721 31.224 24.7424 31.5663 25.3116C31.9302 25.8592 32.0943 26.5154 32.0311 27.1699C31.9678 27.8243 31.681 28.437 31.219 28.9047C30.1285 30.031 29.0202 31.1418 27.8838 32.2246C27.5865 32.5187 27.2329 32.7498 26.8443 32.9043C26.4557 33.0587 26.04 33.1333 25.6219 33.1235C25.2038 33.1137 24.792 33.0198 24.411 32.8474C24.0301 32.6749 23.6878 32.4276 23.4045 32.1199C22.0536 30.7945 20.7231 29.4487 19.3849 28.1105C18.8435 27.5691 18.2944 27.0379 17.7632 26.4863C17.5017 26.2369 17.3232 25.9132 17.2519 25.5589C17.1806 25.2046 17.22 24.8369 17.3647 24.5057C17.5094 24.1746 17.7523 23.8959 18.0607 23.7075C18.3691 23.5191 18.728 23.4301 19.0887 23.4525H23.6854" fill="#41594C"/>
<path d="M21.0018 21.0291C19.9318 21.0291 18.8618 21.0291 17.7918 21.0291C17.1828 21.0388 16.5922 20.82 16.1366 20.4158C15.6809 20.0116 15.3931 19.4515 15.3299 18.8457C15.2705 18.2896 15.4011 17.7297 15.7003 17.2572C16.4936 15.8867 17.2862 14.5153 18.0778 13.1431C18.3332 12.6809 18.6039 12.211 18.8823 11.7564C19.1239 11.3253 19.476 10.9663 19.9024 10.7165C20.3288 10.4666 20.8141 10.335 21.3083 10.335C21.8025 10.335 22.2878 10.4666 22.7142 10.7165C23.1406 10.9663 23.4928 11.3253 23.7344 11.7564C24.7218 13.4113 25.6854 15.0806 26.6252 16.7643C26.8905 17.1945 27.034 17.6887 27.0404 18.1941C27.0468 18.6995 26.9159 19.1971 26.6616 19.6339C26.4073 20.0707 26.0391 20.4303 25.5964 20.6742C25.1538 20.9181 24.6531 21.0372 24.148 21.0189C23.0985 21.0189 22.0464 21.0189 20.9968 21.0189" fill="#41594C"/>
</svg>
