<svg width="38" height="13" viewBox="0 0 38 13" fill="none" xmlns="http://www.w3.org/2000/svg">
<path d="M31.6089 3.83398L33.1177 6.46338L34.6558 3.83398H36.5967L34.1943 7.72314L36.6919 11.7588H34.751L33.1396 9.01953L31.5283 11.7588H29.5801L32.0703 7.72314L29.6753 3.83398H31.6089Z" fill="#272421"/>
<path d="M31.8984 3.33398L32.043 3.58496L33.1221 5.46582L34.3691 3.33398H37.4932L34.7822 7.72363L37.5889 12.2588H34.4648L33.1396 10.0049L31.8145 12.2588H28.6836L31.4824 7.72266L28.7803 3.33398H31.8984ZM29.6753 3.83398L32.0703 7.72314L29.5801 11.7588H31.5283L33.1396 9.01953L34.751 11.7588H36.6919L34.1943 7.72314L36.5967 3.83398H34.6558L33.1177 6.46338L31.6089 3.83398H29.6753Z" fill="#272421"/>
<path d="M24.4111 9.89111V3.83398H26.1836V11.7588H24.5137L24.4111 9.89111ZM24.6602 8.24316L25.2534 8.22852C25.2534 8.76074 25.1948 9.25146 25.0776 9.70068C24.9604 10.145 24.7798 10.5332 24.5356 10.8652C24.2915 11.1924 23.979 11.4487 23.5981 11.6343C23.2173 11.8149 22.7607 11.9053 22.2285 11.9053C21.8428 11.9053 21.4888 11.8491 21.1665 11.7368C20.8442 11.6245 20.5659 11.4512 20.3315 11.2168C20.1021 10.9824 19.9238 10.6772 19.7969 10.3013C19.6699 9.92529 19.6064 9.47607 19.6064 8.95361V3.83398H21.3716V8.96826C21.3716 9.25635 21.4058 9.49805 21.4741 9.69336C21.5425 9.88379 21.6353 10.0376 21.7524 10.1548C21.8696 10.272 22.0063 10.355 22.1626 10.4038C22.3188 10.4526 22.4849 10.4771 22.6606 10.4771C23.1636 10.4771 23.5591 10.3794 23.8472 10.1841C24.1401 9.98389 24.3477 9.71533 24.4697 9.37842C24.5967 9.0415 24.6602 8.66309 24.6602 8.24316Z" fill="#272421"/>
<path d="M21.3716 8.96826V3.83398H19.6064V8.95361L19.6182 9.33203C19.642 9.69629 19.7017 10.0194 19.7969 10.3013C19.9238 10.6772 20.1021 10.9824 20.3315 11.2168C20.5659 11.4512 20.8442 11.6245 21.1665 11.7368C21.4888 11.8491 21.8428 11.9053 22.2285 11.9053C22.6943 11.9053 23.1023 11.8366 23.4521 11.6982L23.5981 11.6343C23.9456 11.4649 24.2351 11.2355 24.4688 10.9482L24.5137 11.7588H26.1836V3.83398H24.4111V9.51953C24.2856 9.79101 24.0979 10.0127 23.8472 10.1841L23.7344 10.2529C23.4589 10.4025 23.1006 10.477 22.6606 10.4771L22.6611 9.97754C23.106 9.97748 23.3904 9.8897 23.5664 9.77051C23.7134 9.66982 23.8262 9.54603 23.9111 9.39648V3.33398H26.6836V12.2588H24.04L24.0244 11.9717C23.957 12.0108 23.8886 12.0493 23.8174 12.084L23.8125 12.0859C23.3495 12.3056 22.816 12.4053 22.2285 12.4053C21.794 12.4053 21.3835 12.342 21.002 12.209C20.6107 12.0726 20.2668 11.8596 19.9775 11.5703L19.9746 11.5664C19.6826 11.2682 19.4693 10.8934 19.3232 10.4609C19.2116 10.1302 19.1452 9.76288 19.1191 9.36328L19.1064 8.9541V3.33398H21.8721V8.96875C21.8721 9.21948 21.9016 9.40061 21.9453 9.52637C21.994 9.66131 22.0519 9.74623 22.1064 9.80078C22.1672 9.86153 22.2335 9.90234 22.3115 9.92676C22.4161 9.95943 22.5322 9.97754 22.6611 9.97754L22.6606 10.4771L22.5303 10.4727C22.4448 10.4665 22.3618 10.4539 22.2812 10.4355L22.1626 10.4038C22.0454 10.3672 21.939 10.3114 21.8438 10.2363L21.7524 10.1548C21.6645 10.0669 21.5907 9.95822 21.5303 9.8291L21.4741 9.69336C21.4229 9.54691 21.3908 9.37439 21.3779 9.17578L21.3716 8.96826Z" fill="#272421"/>
<path d="M14.1792 5.34277V11.7588H12.4141V3.83398H14.0986L14.1792 5.34277ZM16.6035 3.78271L16.5889 5.42334C16.4814 5.40381 16.3643 5.38916 16.2373 5.37939C16.1152 5.36963 15.9932 5.36475 15.8711 5.36475C15.5684 5.36475 15.3022 5.40869 15.0728 5.49658C14.8433 5.57959 14.6504 5.70166 14.4941 5.86279C14.3428 6.01904 14.2256 6.20947 14.1426 6.43408C14.0596 6.65869 14.0107 6.91016 13.9961 7.18848L13.5933 7.21777C13.5933 6.71973 13.6421 6.2583 13.7397 5.8335C13.8374 5.40869 13.9839 5.03516 14.1792 4.71289C14.3794 4.39062 14.6284 4.13916 14.9263 3.9585C15.229 3.77783 15.5781 3.6875 15.9736 3.6875C16.0811 3.6875 16.1958 3.69727 16.3179 3.7168C16.4448 3.73633 16.54 3.7583 16.6035 3.78271Z" fill="#272421"/>
<path d="M15.9736 3.1875C16.111 3.1875 16.2523 3.1996 16.3965 3.22266L16.3955 3.22363C16.5319 3.24468 16.6693 3.27259 16.7832 3.31641L17.1064 3.44043L17.084 6.02148L16.499 5.91504C16.4112 5.89909 16.3115 5.88657 16.1992 5.87793H16.1973C16.0885 5.86923 15.9798 5.86523 15.8711 5.86523C15.6159 5.86523 15.4128 5.9023 15.252 5.96387L15.2432 5.9668C15.0788 6.02623 14.9524 6.10905 14.8535 6.21094C14.7876 6.27893 14.7296 6.35949 14.6797 6.45508V12.2588H11.9141V3.33398H14.5723L14.585 3.58398C14.6121 3.56613 14.6391 3.54815 14.667 3.53125L14.6699 3.5293C15.0593 3.29695 15.4992 3.1875 15.9736 3.1875ZM12.4141 11.7588H14.1792L14.1797 6.3457C14.2594 6.15951 14.3633 5.9979 14.4941 5.86279C14.6112 5.74202 14.749 5.64329 14.9072 5.56641L15.0728 5.49658C15.3022 5.40869 15.5684 5.36475 15.8711 5.36475L16.2373 5.37939C16.3643 5.38916 16.4814 5.40381 16.5889 5.42334L16.6035 3.78271C16.5718 3.7705 16.532 3.75904 16.4844 3.74805L16.3179 3.7168C16.1958 3.69727 16.0811 3.6875 15.9736 3.6875C15.5781 3.6875 15.229 3.77783 14.9263 3.9585L14.8164 4.0293C14.5666 4.2028 14.3543 4.43108 14.1792 4.71289C14.1682 4.73097 14.1591 4.75016 14.1484 4.76855L14.0986 3.83398H12.4141V11.7588Z" fill="#272421"/>
<path d="M2.33838 1.09473V11.7588H0.5V1.09473H2.33838ZM8.74707 1.09473L4.42578 6.229L1.96484 8.83643L1.64258 7.0127L3.40039 4.84473L6.50586 1.09473H8.74707ZM6.76953 11.7588L3.26123 6.70508L4.52832 5.45264L8.95215 11.7588H6.76953Z" fill="#272421"/>
<path d="M0.5 1.09473V11.7588H2.33838L2.33887 8.44043L3.56445 7.1416L6.76953 11.7588H8.95215L4.77832 5.80957L8.74707 1.09473H6.50586L3.40039 4.84473L2.33887 6.15332L2.33838 1.09473H0.5ZM2.83887 4.74316L3.01172 4.53027L3.01562 4.52539L6.27051 0.594727H9.82129L5.4082 5.83691L9.91406 12.2588H6.50781L3.50488 7.93262L2.83887 8.6377V12.2588H0V0.594727H2.83887V4.74316Z" fill="#272421"/>
</svg>
