<svg width="108" height="117" viewBox="0 0 108 117" fill="none" xmlns="http://www.w3.org/2000/svg">
<path opacity="0.4" d="M104.76 19.3802C104.638 19.3504 104.532 19.2762 104.464 19.1727C104.395 19.0692 104.37 18.9441 104.393 18.8231C104.416 18.702 104.485 18.594 104.587 18.5211C104.688 18.4482 104.815 18.4158 104.94 18.4307C105.065 18.4455 105.18 18.5064 105.261 18.601C105.341 18.6955 105.382 18.8165 105.375 18.9394C105.367 19.0624 105.312 19.1779 105.22 19.2624C105.129 19.347 105.008 19.3942 104.881 19.3945C104.841 19.3946 104.8 19.3898 104.76 19.3802ZM106.288 17.6126C106.288 17.4721 106.331 17.3349 106.411 17.2181C106.491 17.1014 106.604 17.0104 106.737 16.9567C106.87 16.9029 107.016 16.8889 107.157 16.9163C107.298 16.9437 107.428 17.0113 107.529 17.1106C107.631 17.2098 107.7 17.3363 107.728 17.4741C107.756 17.6118 107.742 17.7545 107.687 17.8842C107.632 18.014 107.539 18.1248 107.419 18.2028C107.3 18.2808 107.159 18.3225 107.015 18.3225C106.92 18.3225 106.825 18.3041 106.737 18.2684C106.649 18.2328 106.569 18.1805 106.501 18.1145C106.365 17.9814 106.288 17.8008 106.288 17.6126ZM104.17 1.74179C104.17 1.56381 104.224 1.38988 104.326 1.242C104.427 1.09411 104.571 0.978903 104.74 0.910949C104.908 0.842995 105.093 0.825344 105.272 0.860229C105.451 0.895114 105.615 0.980968 105.744 1.10693C105.873 1.2329 105.96 1.39332 105.996 1.56791C106.031 1.74249 106.013 1.92341 105.943 2.08777C105.873 2.25214 105.755 2.39257 105.603 2.49131C105.451 2.59004 105.273 2.64266 105.091 2.64249C104.97 2.64249 104.85 2.61918 104.738 2.5739C104.626 2.52861 104.525 2.46224 104.439 2.37858C104.353 2.29492 104.286 2.19561 104.24 2.08634C104.193 1.97708 104.17 1.85999 104.17 1.74179Z" fill="#596F66"/>
<path opacity="0.4" d="M99.2607 18.3219C103.945 18.3219 107.742 14.6143 107.742 10.0408C107.742 5.46732 103.945 1.75977 99.2607 1.75977C94.5765 1.75977 90.7793 5.46732 90.7793 10.0408C90.7793 14.6143 94.5765 18.3219 99.2607 18.3219Z" fill="#596F66"/>
<path opacity="0.4" d="M22.9213 111.973C35.5805 111.973 45.8427 101.953 45.8427 89.5929C45.8427 77.2327 35.5805 67.2129 22.9213 67.2129C10.2622 67.2129 0 77.2327 0 89.5929C0 101.953 10.2622 111.973 22.9213 111.973Z" fill="#596F66"/>
<path opacity="0.4" d="M16.5872 115.083C16.5872 114.704 16.7024 114.333 16.9181 114.018C17.1339 113.703 17.4405 113.457 17.7993 113.312C18.158 113.167 18.5528 113.129 18.9337 113.203C19.3146 113.277 19.6644 113.459 19.939 113.727C20.2136 113.995 20.4006 114.337 20.4763 114.709C20.5521 115.081 20.5132 115.466 20.3646 115.817C20.216 116.167 19.9643 116.466 19.6415 116.677C19.3186 116.888 18.939 117 18.5506 117C18.0299 117 17.5305 116.798 17.1623 116.438C16.7941 116.079 16.5872 115.591 16.5872 115.083ZM23.4545 115.175C23.4545 114.916 23.5331 114.663 23.6805 114.447C23.8279 114.232 24.0374 114.064 24.2824 113.965C24.5275 113.866 24.7972 113.84 25.0573 113.891C25.3175 113.941 25.5564 114.066 25.7439 114.249C25.9314 114.433 26.059 114.666 26.1107 114.92C26.1623 115.174 26.1356 115.437 26.034 115.677C25.9324 115.916 25.7604 116.12 25.5398 116.264C25.3191 116.408 25.0598 116.484 24.7945 116.484C24.439 116.484 24.0982 116.346 23.8469 116.1C23.5956 115.855 23.4545 115.522 23.4545 115.175ZM5.45508 67.7542C5.45508 67.2732 5.60116 66.803 5.87486 66.4031C6.14855 66.0032 6.53756 65.6915 6.9927 65.5074C7.44783 65.3233 7.94865 65.2752 8.43182 65.369C8.91499 65.4628 9.35881 65.6945 9.70716 66.0346C10.0555 66.3747 10.2927 66.808 10.3888 67.2798C10.485 67.7516 10.4356 68.2405 10.2471 68.6849C10.0586 69.1293 9.73932 69.5091 9.32971 69.7764C8.9201 70.0436 8.43853 70.1862 7.94589 70.1862C7.28529 70.1862 6.65174 69.93 6.18462 69.4739C5.7175 69.0178 5.45508 68.3992 5.45508 67.7542Z" fill="#596F66"/>
<path d="M34.6309 5.39007L34.6309 107.991C34.6309 110.757 36.5663 113 38.9537 113H91.6264C94.0139 113 95.9493 110.757 95.9493 107.991V5.39007C95.9493 2.62355 94.0139 0.380852 91.6264 0.380852H38.9537C36.5663 0.380852 34.6309 2.62355 34.6309 5.39007Z" fill="#F6F2ED"/>
<path d="M35.2793 5.39047L35.2793 107.991C35.2793 110.343 36.9244 112.249 38.9537 112.249H91.6264C93.6558 112.249 95.3008 110.343 95.3008 107.991V5.39047C95.3008 3.03893 93.6558 1.13264 91.6264 1.13264H38.9537C36.9244 1.13264 35.2793 3.03893 35.2793 5.39047Z" stroke="#372E26" stroke-width="1.5"/>
<path d="M40.6211 10.4102L40.6211 102.223C40.6211 104.609 42.2528 106.543 44.2656 106.543H86.2567C88.2696 106.543 89.9013 104.609 89.9013 102.223V10.4102C89.9013 8.02407 88.2696 6.08973 86.2567 6.08973H44.2656C42.2528 6.08973 40.6211 8.02407 40.6211 10.4102Z" stroke="#372E26" stroke-width="1.5" stroke-dasharray="1.5 2"/>
<path d="M81.1602 19C83.2564 19 84.9561 20.6997 84.9561 22.7959V90.2041C84.9561 92.3003 83.2564 94 81.1602 94H50.7959C48.6997 94 47 92.3003 47 90.2041V22.7959C47 20.6997 48.6997 19 50.7959 19H81.1602ZM53.5283 24.6172V65.9131H79.3389V24.6172H53.5283Z" fill="#372E26"/>
<path d="M75.6187 88.6865V77.4517C75.6187 75.9005 74.3612 74.643 72.8099 74.643H59.1458C57.5946 74.643 56.3371 75.9005 56.3371 77.4517V88.6865C56.3371 88.8123 56.2351 88.9142 56.1093 88.9142C55.9836 88.9142 55.8816 88.8123 55.8816 88.6865V77.4517C55.8816 75.6489 57.343 74.1875 59.1458 74.1875H72.8099C74.6127 74.1875 76.0741 75.6489 76.0741 77.4517V88.6865C76.0741 88.8123 75.9722 88.9142 75.8464 88.9142C75.7206 88.9142 75.6187 88.8123 75.6187 88.6865Z" fill="#F6F2ED"/>
<path d="M73.2656 78.0586C73.3494 78.0586 73.4174 78.1266 73.4174 78.2104C73.4174 78.2943 73.3494 78.3622 73.2656 78.3622H58.6905C58.6067 78.3622 58.5387 78.2943 58.5387 78.2104C58.5387 78.1266 58.6067 78.0586 58.6905 78.0586H73.2656Z" fill="#F6F2ED"/>
<path d="M73.2656 81.7031C73.3494 81.7031 73.4174 81.7711 73.4174 81.8549C73.4174 81.9388 73.3494 82.0068 73.2656 82.0068H58.6905C58.6067 82.0068 58.5387 81.9388 58.5387 81.8549C58.5387 81.7711 58.6067 81.7031 58.6905 81.7031H73.2656Z" fill="#F6F2ED"/>
<path d="M73.2656 85.043C73.3494 85.043 73.4174 85.1109 73.4174 85.1948C73.4174 85.2786 73.3494 85.3466 73.2656 85.3466H58.6905C58.6067 85.3466 58.5387 85.2786 58.5387 85.1948C58.5387 85.1109 58.6067 85.043 58.6905 85.043H73.2656Z" fill="#F6F2ED"/>
<path d="M68.3914 47.8156H67.3754V49.4938L68.3624 49.5586V51.2062L69.4218 51.2637V52.9321H70.4377V54.625H68.3993V52.986L67.3386 52.9285V51.2601H66.3016V49.5672H65.2422V54.6189H63.1366V42.6991H61.0626V40.9781H63.0958V35.875H65.2093V40.9475H67.278V42.6685H65.2554V47.7691H66.2647V46.1227H67.3017V44.4299H69.3994V46.0726L68.3914 46.1276V47.8156Z" fill="#372E26"/>
</svg>
