<svg width="108" height="132" viewBox="0 0 108 132" fill="none" xmlns="http://www.w3.org/2000/svg">
<path opacity="0.4" d="M104.76 34.3802C104.638 34.3504 104.532 34.2762 104.464 34.1727C104.395 34.0692 104.37 33.9441 104.393 33.8231C104.416 33.702 104.485 33.594 104.587 33.5211C104.688 33.4482 104.815 33.4158 104.94 33.4307C105.065 33.4455 105.18 33.5064 105.261 33.601C105.341 33.6955 105.382 33.8165 105.375 33.9394C105.367 34.0624 105.312 34.1779 105.22 34.2624C105.129 34.347 105.008 34.3942 104.881 34.3945C104.841 34.3946 104.8 34.3898 104.76 34.3802ZM106.288 32.6126C106.288 32.4721 106.331 32.3349 106.411 32.2181C106.491 32.1014 106.604 32.0104 106.737 31.9567C106.87 31.9029 107.016 31.8889 107.157 31.9163C107.298 31.9437 107.428 32.0113 107.529 32.1106C107.631 32.2098 107.7 32.3363 107.728 32.4741C107.756 32.6118 107.742 32.7545 107.687 32.8842C107.632 33.014 107.539 33.1248 107.419 33.2028C107.3 33.2808 107.159 33.3225 107.015 33.3225C106.92 33.3225 106.825 33.3041 106.737 33.2684C106.649 33.2328 106.569 33.1805 106.501 33.1145C106.365 32.9814 106.288 32.8008 106.288 32.6126ZM104.17 16.7418C104.17 16.5638 104.224 16.3899 104.326 16.242C104.427 16.0941 104.571 15.9789 104.74 15.9109C104.908 15.843 105.093 15.8253 105.272 15.8602C105.451 15.8951 105.615 15.981 105.744 16.1069C105.873 16.2329 105.96 16.3933 105.996 16.5679C106.031 16.7425 106.013 16.9234 105.943 17.0878C105.873 17.2521 105.755 17.3926 105.603 17.4913C105.451 17.59 105.273 17.6427 105.091 17.6425C104.97 17.6425 104.85 17.6192 104.738 17.5739C104.626 17.5286 104.525 17.4622 104.439 17.3786C104.353 17.2949 104.286 17.1956 104.24 17.0863C104.193 16.9771 104.17 16.86 104.17 16.7418Z" fill="url(#paint0_linear_2439_32477)"/>
<path opacity="0.4" d="M99.2607 33.3219C103.945 33.3219 107.742 29.6143 107.742 25.0408C107.742 20.4673 103.945 16.7598 99.2607 16.7598C94.5765 16.7598 90.7793 20.4673 90.7793 25.0408C90.7793 29.6143 94.5765 33.3219 99.2607 33.3219Z" fill="url(#paint1_linear_2439_32477)"/>
<path opacity="0.4" d="M22.9213 126.973C35.5805 126.973 45.8427 116.953 45.8427 104.593C45.8427 92.2327 35.5805 82.2129 22.9213 82.2129C10.2622 82.2129 0 92.2327 0 104.593C0 116.953 10.2622 126.973 22.9213 126.973Z" fill="url(#paint2_linear_2439_32477)"/>
<path opacity="0.4" d="M16.5872 130.083C16.5872 129.704 16.7024 129.333 16.9181 129.018C17.1339 128.703 17.4405 128.457 17.7993 128.312C18.158 128.167 18.5528 128.129 18.9337 128.203C19.3146 128.277 19.6644 128.459 19.939 128.727C20.2136 128.995 20.4006 129.337 20.4763 129.709C20.5521 130.081 20.5132 130.466 20.3646 130.817C20.216 131.167 19.9643 131.466 19.6415 131.677C19.3186 131.888 18.939 132 18.5506 132C18.0299 132 17.5305 131.798 17.1623 131.438C16.7941 131.079 16.5872 130.591 16.5872 130.083ZM23.4545 130.175C23.4545 129.916 23.5331 129.663 23.6805 129.447C23.8279 129.232 24.0374 129.064 24.2824 128.965C24.5275 128.866 24.7972 128.84 25.0573 128.891C25.3175 128.941 25.5564 129.066 25.7439 129.249C25.9314 129.433 26.059 129.666 26.1107 129.92C26.1623 130.174 26.1356 130.437 26.034 130.677C25.9324 130.916 25.7604 131.12 25.5398 131.264C25.3191 131.408 25.0598 131.484 24.7945 131.484C24.439 131.484 24.0982 131.346 23.8469 131.1C23.5956 130.855 23.4545 130.522 23.4545 130.175ZM5.45508 82.7542C5.45508 82.2732 5.60116 81.803 5.87486 81.4031C6.14855 81.0032 6.53756 80.6915 6.9927 80.5074C7.44783 80.3233 7.94865 80.2752 8.43182 80.369C8.91499 80.4628 9.35881 80.6945 9.70716 81.0346C10.0555 81.3747 10.2927 81.808 10.3888 82.2798C10.485 82.7516 10.4356 83.2405 10.2471 83.6849C10.0586 84.1293 9.73932 84.5091 9.32971 84.7764C8.9201 85.0436 8.43853 85.1862 7.94589 85.1862C7.28529 85.1862 6.65174 84.93 6.18462 84.4739C5.7175 84.0178 5.45508 83.3992 5.45508 82.7542Z" fill="url(#paint3_linear_2439_32477)"/>
<path d="M34.6309 20.3901L34.6309 122.991C34.6309 125.757 36.5663 128 38.9537 128H91.6264C94.0139 128 95.9493 125.757 95.9493 122.991V20.3901C95.9493 17.6236 94.0139 15.3809 91.6264 15.3809H38.9537C36.5663 15.3809 34.6309 17.6236 34.6309 20.3901Z" fill="#F6F2ED"/>
<path d="M35.2793 20.3905L35.2793 122.991C35.2793 125.343 36.9244 127.249 38.9537 127.249H91.6264C93.6558 127.249 95.3008 125.343 95.3008 122.991V20.3905C95.3008 18.0389 93.6558 16.1326 91.6264 16.1326H38.9537C36.9244 16.1326 35.2793 18.0389 35.2793 20.3905Z" stroke="#372E26" stroke-width="1.5"/>
<path d="M40.6211 25.4102L40.6211 117.223C40.6211 119.609 42.2528 121.543 44.2656 121.543H86.2567C88.2696 121.543 89.9013 119.609 89.9013 117.223V25.4102C89.9013 23.0241 88.2696 21.0897 86.2567 21.0897H44.2656C42.2528 21.0897 40.6211 23.0241 40.6211 25.4102Z" stroke="#372E26" stroke-width="1.5" stroke-dasharray="1.5 2"/>
<path d="M81.1602 34C83.2564 34 84.9561 35.6997 84.9561 37.7959V105.204C84.9561 107.3 83.2564 109 81.1602 109H50.7959C48.6997 109 47 107.3 47 105.204V37.7959C47 35.6997 48.6997 34 50.7959 34H81.1602ZM53.5283 39.6172V80.9131H79.3389V39.6172H53.5283Z" fill="#372E26"/>
<path d="M75.6187 103.686V92.4517C75.6187 90.9005 74.3612 89.643 72.8099 89.643H59.1458C57.5946 89.643 56.3371 90.9005 56.3371 92.4517V103.686C56.3371 103.812 56.2351 103.914 56.1093 103.914C55.9836 103.914 55.8816 103.812 55.8816 103.686V92.4517C55.8816 90.6489 57.343 89.1875 59.1458 89.1875H72.8099C74.6127 89.1875 76.0741 90.6489 76.0741 92.4517V103.686C76.0741 103.812 75.9722 103.914 75.8464 103.914C75.7206 103.914 75.6187 103.812 75.6187 103.686Z" fill="#F6F2ED"/>
<path d="M73.2655 93.0586C73.3493 93.0586 73.4173 93.1266 73.4173 93.2104C73.4173 93.2943 73.3493 93.3622 73.2655 93.3622H58.6904C58.6065 93.3622 58.5386 93.2943 58.5386 93.2104C58.5386 93.1266 58.6065 93.0586 58.6904 93.0586H73.2655Z" fill="#F6F2ED"/>
<path d="M73.2655 96.7031C73.3493 96.7031 73.4173 96.7711 73.4173 96.8549C73.4173 96.9388 73.3493 97.0068 73.2655 97.0068H58.6904C58.6065 97.0068 58.5386 96.9388 58.5386 96.8549C58.5386 96.7711 58.6065 96.7031 58.6904 96.7031H73.2655Z" fill="#F6F2ED"/>
<path d="M73.2655 100.043C73.3493 100.043 73.4173 100.111 73.4173 100.195C73.4173 100.279 73.3493 100.347 73.2655 100.347H58.6904C58.6065 100.347 58.5386 100.279 58.5386 100.195C58.5386 100.111 58.6065 100.043 58.6904 100.043H73.2655Z" fill="#F6F2ED"/>
<path d="M68.3915 62.8156H67.3755V64.4938L68.3625 64.5586V66.2062L69.4219 66.2637V67.9321H70.4379V69.625H68.3994V67.986L67.3387 67.9285V66.2601H66.3017V64.5672H65.2423V69.6189H63.1367V57.6991H61.0627V55.9781H63.0959V50.875H65.2094V55.9475H67.2782V57.6685H65.2555V62.7691H66.2649V61.1227H67.3018V59.4299H69.3995V61.0726L68.3915 61.1276V62.8156Z" fill="#372E26"/>
<rect x="18.75" y="0.75" width="32.1559" height="32.1558" rx="16.0779" fill="url(#paint4_linear_2439_32477)"/>
<rect x="18.75" y="0.75" width="32.1559" height="32.1558" rx="16.0779" stroke="#F9F4F0" stroke-width="1.5"/>
<path d="M39.9613 12L32.3384 19.323L28.8377 15.7232L27 17.4202L31.3873 21.9331C31.503 22.0522 31.642 22.1476 31.7961 22.2137C31.9501 22.2798 32.1161 22.3154 32.2844 22.3182H32.3055C32.6379 22.318 32.9568 22.1903 33.1933 21.9628L41.7403 13.7565L39.9613 12Z" fill="#F6F2ED"/>
<defs>
<linearGradient id="paint0_linear_2439_32477" x1="105.956" y1="15.8428" x2="105.956" y2="34.3945" gradientUnits="userSpaceOnUse">
<stop stop-color="#58A4A4"/>
<stop offset="1" stop-color="#073E39"/>
</linearGradient>
<linearGradient id="paint1_linear_2439_32477" x1="99.2607" y1="16.7598" x2="99.2607" y2="33.3219" gradientUnits="userSpaceOnUse">
<stop stop-color="#58A4A4"/>
<stop offset="1" stop-color="#073E39"/>
</linearGradient>
<linearGradient id="paint2_linear_2439_32477" x1="22.9213" y1="82.2129" x2="22.9213" y2="126.973" gradientUnits="userSpaceOnUse">
<stop stop-color="#58A4A4"/>
<stop offset="1" stop-color="#073E39"/>
</linearGradient>
<linearGradient id="paint3_linear_2439_32477" x1="15.7957" y1="80.3223" x2="15.7957" y2="132" gradientUnits="userSpaceOnUse">
<stop stop-color="#58A4A4"/>
<stop offset="1" stop-color="#073E39"/>
</linearGradient>
<linearGradient id="paint4_linear_2439_32477" x1="34.8279" y1="0" x2="34.8279" y2="33.6558" gradientUnits="userSpaceOnUse">
<stop stop-color="#58A4A4"/>
<stop offset="1" stop-color="#073E39"/>
</linearGradient>
</defs>
</svg>
