<svg width="30" height="11" viewBox="0 0 30 11" fill="none" xmlns="http://www.w3.org/2000/svg">
<path d="M24.3018 2.83398L25.8105 5.46338L27.3486 2.83398H29.2896L26.8872 6.72314L29.3848 10.7588H27.4438L25.8325 8.01953L24.2212 10.7588H22.2729L24.7632 6.72314L22.3682 2.83398H24.3018Z" fill="#F6F2ED"/>
<path d="M19.3726 8.89111V2.83398H21.145V10.7588H19.4751L19.3726 8.89111ZM19.6216 7.24316L20.2148 7.22852C20.2148 7.76074 20.1562 8.25146 20.0391 8.70068C19.9219 9.14502 19.7412 9.5332 19.4971 9.86523C19.2529 10.1924 18.9404 10.4487 18.5596 10.6343C18.1787 10.8149 17.7222 10.9053 17.1899 10.9053C16.8042 10.9053 16.4502 10.8491 16.1279 10.7368C15.8057 10.6245 15.5273 10.4512 15.293 10.2168C15.0635 9.98242 14.8853 9.67725 14.7583 9.30127C14.6313 8.92529 14.5679 8.47607 14.5679 7.95361V2.83398H16.333V7.96826C16.333 8.25635 16.3672 8.49805 16.4355 8.69336C16.5039 8.88379 16.5967 9.0376 16.7139 9.15479C16.8311 9.27197 16.9678 9.35498 17.124 9.40381C17.2803 9.45264 17.4463 9.47705 17.6221 9.47705C18.125 9.47705 18.5205 9.37939 18.8086 9.18408C19.1016 8.98389 19.3091 8.71533 19.4312 8.37842C19.5581 8.0415 19.6216 7.66309 19.6216 7.24316Z" fill="#F6F2ED"/>
<path d="M11.0742 4.34277V10.7588H9.30908V2.83398H10.9937L11.0742 4.34277ZM13.4985 2.78271L13.4839 4.42334C13.3765 4.40381 13.2593 4.38916 13.1323 4.37939C13.0103 4.36963 12.8882 4.36475 12.7661 4.36475C12.4634 4.36475 12.1973 4.40869 11.9678 4.49658C11.7383 4.57959 11.5454 4.70166 11.3892 4.86279C11.2378 5.01904 11.1206 5.20947 11.0376 5.43408C10.9546 5.65869 10.9058 5.91016 10.8911 6.18848L10.4883 6.21777C10.4883 5.71973 10.5371 5.2583 10.6348 4.8335C10.7324 4.40869 10.8789 4.03516 11.0742 3.71289C11.2744 3.39062 11.5234 3.13916 11.8213 2.9585C12.124 2.77783 12.4731 2.6875 12.8687 2.6875C12.9761 2.6875 13.0908 2.69727 13.2129 2.7168C13.3398 2.73633 13.4351 2.7583 13.4985 2.78271Z" fill="#F6F2ED"/>
<path d="M1.83838 0.0947266V10.7588H0V0.0947266H1.83838ZM8.24707 0.0947266L3.92578 5.229L1.46484 7.83643L1.14258 6.0127L2.90039 3.84473L6.00586 0.0947266H8.24707ZM6.26953 10.7588L2.76123 5.70508L4.02832 4.45264L8.45215 10.7588H6.26953Z" fill="#F6F2ED"/>
</svg>
