<svg xmlns="http://www.w3.org/2000/svg" xmlns:xlink="http://www.w3.org/1999/xlink" width="39.176" height="36" viewBox="0 0 39.176 36">
  <defs>
    <linearGradient id="linear-gradient" x1="0.157" y1="0.247" x2="0.87" y2="0.724" gradientUnits="objectBoundingBox">
      <stop offset="0" stop-color="#00836a"/>
      <stop offset="1" stop-color="#073e39"/>
    </linearGradient>
  </defs>
  <g id="laptop" transform="translate(-44 -466)">
    <path id="hexagontile3" d="M21.819,0a5,5,0,0,1,4.327,2.495l5.339,9.222a5,5,0,0,1,0,5.01L26.146,25.95a5,5,0,0,1-4.327,2.495h-10.7A5,5,0,0,1,6.79,25.95L1.45,16.728a5,5,0,0,1,0-5.01L6.79,2.495A5,5,0,0,1,11.117,0Z" transform="matrix(0.966, 0.259, -0.259, 0.966, 51.362, 466)" fill="url(#linear-gradient)"/>
    <g id="laptop-2" data-name="laptop" transform="translate(56.849 478.556)">
      <path id="Combined_Shape" data-name="Combined Shape" d="M12.475,10.2H1.123a1.107,1.107,0,0,1-.429-.084A1.12,1.12,0,0,1,0,9.08a.559.559,0,0,1,.165-.4.565.565,0,0,1,.4-.164h4.56A.811.811,0,0,1,5.777,9a.51.51,0,0,0,.455.28H7.365A.512.512,0,0,0,7.821,9a.809.809,0,0,1,.656-.475h4.56a.56.56,0,0,1,.561.56,1.1,1.1,0,0,1-.086.428,1.115,1.115,0,0,1-.608.6,1.1,1.1,0,0,1-.424.084ZM1.33,7.965V.974A.993.993,0,0,1,1.4.6.976.976,0,0,1,1.611.284.947.947,0,0,1,1.922.073.93.93,0,0,1,2.288,0H11.32a.934.934,0,0,1,.366.073A.944.944,0,0,1,12,.284.966.966,0,0,1,12.2.6a.994.994,0,0,1,.074.373V7.965Z" transform="translate(0.151 0.445)" fill="#fffcfa"/>
    </g>
  </g>
</svg>
