<svg xmlns="http://www.w3.org/2000/svg" width="52.336" height="48.093" viewBox="0 0 52.336 48.093">
  <g id="laptoptile" transform="translate(-94 -354)">
    <g id="hexagontile1" transform="translate(49 -39)">
      <path id="Polygon_3" data-name="Polygon 3" d="M30.117,0a5,5,0,0,1,4.327,2.495l8.105,14a5,5,0,0,1,0,5.01l-8.105,14A5,5,0,0,1,30.117,38H13.883a5,5,0,0,1-4.327-2.495l-8.105-14a5,5,0,0,1,0-5.01l8.105-14A5,5,0,0,1,13.883,0Z" transform="matrix(0.966, 0.259, -0.259, 0.966, 54.835, 393)" fill="#fac48b"/>
    </g>
    <g id="laptop" transform="translate(110.849 370.556)">
      <path id="Combined_Shape" data-name="Combined Shape" d="M17.3,14.138H1.557a1.534,1.534,0,0,1-.595-.117A1.552,1.552,0,0,1,0,12.589a.775.775,0,0,1,.229-.549.783.783,0,0,1,.55-.227H7.1a1.124,1.124,0,0,1,.909.658.707.707,0,0,0,.631.389h1.57a.71.71,0,0,0,.632-.389,1.121,1.121,0,0,1,.909-.658h6.323a.777.777,0,0,1,.778.776,1.529,1.529,0,0,1-.12.594,1.546,1.546,0,0,1-.842.838,1.53,1.53,0,0,1-.587.117Zm-15.452-3.1V1.35a1.377,1.377,0,0,1,.1-.517A1.354,1.354,0,0,1,2.234.394,1.312,1.312,0,0,1,2.665.1,1.29,1.29,0,0,1,3.172,0H15.7A1.294,1.294,0,0,1,16.2.1a1.309,1.309,0,0,1,.43.292,1.339,1.339,0,0,1,.288.438,1.378,1.378,0,0,1,.1.517v9.693Z" transform="translate(0.151 0.445)" fill="#073e39"/>
    </g>
  </g>
</svg>
