<svg width="24" height="24" viewBox="0 0 24 24" fill="none" xmlns="http://www.w3.org/2000/svg">
<path d="M12 3C7.02936 3 3 7.0295 3 12C3 16.9708 7.02936 21 12 21C16.9706 21 21 16.9708 21 12C21 7.0295 16.9706 3 12 3ZM12 7.5C12.6214 7.5 13.125 8.00372 13.125 8.625C13.125 9.24656 12.6214 9.75 12 9.75C11.3786 9.75 10.875 9.24656 10.875 8.625C10.875 8.00372 11.3786 7.5 12 7.5ZM13.6875 16.5H10.3125C10.0019 16.5 9.75 16.2484 9.75 15.9375C9.75 15.6269 10.0019 15.375 10.3125 15.375H10.875V12H10.3125C10.0019 12 9.75 11.7484 9.75 11.4375C9.75 11.1269 10.0019 10.875 10.3125 10.875H12.5625C12.8731 10.875 13.125 11.1269 13.125 11.4375V15.375H13.6875C13.9981 15.375 14.25 15.6269 14.25 15.9375C14.25 16.2484 13.9981 16.5 13.6875 16.5Z" fill="#2F4F4F"/>
</svg>
