<svg width="30" height="41" viewBox="0 0 30 41" fill="none" xmlns="http://www.w3.org/2000/svg">
<path d="M15.2 30.0689C13.7407 32.6239 12.2198 35.1572 10.8492 37.7672C10.1746 39.0526 9.63288 39.4457 8.27967 38.5278C6.12791 37.071 3.88802 35.7542 1.57337 34.5853C-0.126826 33.7265 -0.450672 33.0406 0.609538 31.2147C5.54048 22.7991 10.2902 14.2733 15.0843 5.77514C15.6337 4.79246 16.4337 3.95718 15.9807 2.55981C15.2713 0.35468 16.5589 -0.140584 18.3729 0.201388C20.5327 0.602707 22.7451 0.610694 24.9076 0.224974C25.7905 0.0775723 27.1958 -0.343012 27.5909 0.574811C27.8886 1.06977 28.0066 1.65545 27.9246 2.22998C27.8425 2.80451 27.5655 3.33153 27.1418 3.71938C26.3129 4.46032 28.1056 9.61546 29.2236 10.3485C30.3417 11.0816 30.2183 14.1259 28.9769 14.3186C27.5504 14.5406 27.7933 15.3445 27.7914 16.1974C27.7798 19.7351 27.7914 23.2885 27.7914 26.834C27.7914 27.738 27.6584 28.5084 29.0444 28.6912C30.12 28.8327 30.3648 32.2819 29.3798 32.4038C27.3615 32.6553 27.8068 33.9584 27.7972 35.1553C27.7548 40.7723 27.7605 40.786 22.313 40.7664C20.2735 40.7664 17.5633 41.4739 16.372 40.4264C14.959 39.1823 16.0366 36.3365 15.9113 34.1903C15.8341 32.8538 15.8958 31.5095 15.8958 30.1672L15.1961 30.0611M21.2933 2.47923C19.4408 2.51854 18.4018 4.06725 17.438 5.76728C13.3051 13.0732 9.16446 20.3751 5.01615 27.6732C2.2037 32.6435 2.24227 32.6003 7.21369 35.5346C8.63437 36.3718 9.32447 36.4347 10.242 34.7681C14.8568 26.3878 19.6355 18.0999 24.3428 9.77071C24.758 9.07424 25.0925 8.33094 25.3394 7.55575C25.5075 6.93896 25.5281 6.29009 25.3996 5.66349C25.271 5.0369 24.9971 4.45084 24.6006 3.95443C24.2042 3.45803 23.6968 3.06575 23.121 2.81044C22.5452 2.55514 21.9178 2.44426 21.2913 2.4871M24.3216 15.1008C22.394 17.9446 19.6953 20.4072 19.3425 23.9174C19.0437 26.8772 19.4177 29.8999 19.2577 32.8814C19.1459 34.9686 20.3834 34.776 21.6152 34.6659C22.7486 34.5637 24.3949 35.452 24.3544 32.9895C24.2561 27.0285 24.3216 21.0637 24.3216 15.1047" fill="#2F4F4F"/>
</svg>
