<svg xmlns="http://www.w3.org/2000/svg" width="61.588" height="20.606" viewBox="0 0 61.588 20.606">
  <path id="ledger" d="M52.684,19.308v1.3h8.9V14.755h-1.3v4.553ZM52.684,0V1.3H60.29V5.851h1.3V0ZM48.092,10.036V7.021h2.035c.992,0,1.348.331,1.348,1.234v.534c0,.928-.344,1.246-1.348,1.246Zm3.231.534A2.162,2.162,0,0,0,52.9,8.433a2.332,2.332,0,0,0-.737-1.7,3.415,3.415,0,0,0-2.48-.878H46.82v8.9h1.272V11.206H50c.979,0,1.374.407,1.374,1.425v2.124h1.3V12.834c0-1.4-.331-1.933-1.348-2.086Zm-10.71.292h3.918V9.692H40.613V7.021h4.3V5.851h-5.6v8.9H45.1v-1.17h-4.49Zm-4.261.471v.61c0,1.285-.471,1.7-1.653,1.7h-.28c-1.183,0-1.755-.382-1.755-2.15V9.107c0-1.781.6-2.15,1.781-2.15H34.7c1.158,0,1.526.433,1.539,1.628h1.4a2.887,2.887,0,0,0-3.053-2.862,2.947,2.947,0,0,0-2.1.776,5.051,5.051,0,0,0-1.246,3.8,5.192,5.192,0,0,0,1.17,3.778,2.884,2.884,0,0,0,2,.8,1.97,1.97,0,0,0,1.819-.967H36.4v.84h1.17V10.163H34.126v1.17ZM25.134,7.021H26.52c1.31,0,2.023.331,2.023,2.112v2.34c0,1.781-.712,2.112-2.023,2.112H25.134Zm1.5,7.734c2.43,0,3.332-1.844,3.332-4.452,0-2.646-.967-4.452-3.358-4.452H23.861v8.9Zm-8.916-3.892h3.918V9.692H17.718V7.021h4.3V5.851h-5.6v8.9h5.788v-1.17h-4.49Zm-7.5-5.011h-1.3v8.9h5.851v-1.17H10.214ZM0,14.755v5.851H8.9v-1.3H1.3V14.755ZM0,0V5.851H1.3V1.3H8.9V0Z"/>
</svg>
