<svg width="63" height="21" viewBox="0 0 63 21" fill="none" xmlns="http://www.w3.org/2000/svg">
<path d="M53.184 19.308V20.608H62.084V14.755H60.784V19.308H53.184ZM53.184 0V1.3H60.79V5.851H62.09V0H53.184ZM48.592 10.036V7.021H50.627C51.619 7.021 51.975 7.352 51.975 8.255V8.789C51.975 9.717 51.631 10.035 50.627 10.035L48.592 10.036ZM51.823 10.57C52.2861 10.44 52.6927 10.1593 52.9783 9.7722C53.264 9.38514 53.4123 8.91388 53.4 8.433C53.3998 8.11432 53.3343 7.79905 53.2076 7.50666C53.0808 7.21427 52.8955 6.95097 52.663 6.733C52.3282 6.42995 51.9366 6.19631 51.5109 6.0456C51.0853 5.89489 50.6339 5.83011 50.183 5.855H47.32V14.755H48.592V11.206H50.5C51.479 11.206 51.874 11.613 51.874 12.631V14.755H53.174V12.834C53.174 11.434 52.843 10.901 51.826 10.748L51.823 10.57ZM41.113 10.862H45.031V9.692H41.113V7.021H45.413V5.851H39.813V14.751H45.6V13.581H41.11L41.113 10.862ZM36.852 11.333V11.943C36.852 13.228 36.381 13.643 35.199 13.643H34.919C33.736 13.643 33.164 13.261 33.164 11.493V9.107C33.164 7.326 33.764 6.957 34.945 6.957H35.2C36.358 6.957 36.726 7.39 36.739 8.585H38.139C38.1363 8.1936 38.054 7.80684 37.8971 7.44824C37.7402 7.08964 37.5121 6.76667 37.2265 6.49898C36.941 6.23129 36.604 6.02446 36.236 5.89106C35.868 5.75766 35.4768 5.70048 35.086 5.723C34.3112 5.69535 33.5567 5.97416 32.986 6.499C32.5306 7.01422 32.1852 7.61701 31.9709 8.27044C31.7567 8.92386 31.6781 9.61414 31.74 10.299C31.6163 11.6634 32.0368 13.0213 32.91 14.077C33.4483 14.592 34.165 14.8787 34.91 14.877C35.2729 14.8994 35.6349 14.8209 35.956 14.6502C36.277 14.4795 36.5446 14.2233 36.729 13.91H36.9V14.75H38.07V10.163H34.626V11.333H36.852ZM25.634 7.021H27.02C28.33 7.021 29.043 7.352 29.043 9.133V11.473C29.043 13.254 28.331 13.585 27.02 13.585H25.634V7.021ZM27.134 14.755C29.564 14.755 30.466 12.911 30.466 10.303C30.466 7.657 29.499 5.851 27.108 5.851H24.361V14.751L27.134 14.755ZM18.218 10.863H22.136V9.692H18.218V7.021H22.518V5.851H16.918V14.751H22.706V13.581H18.216L18.218 10.863ZM10.718 5.852H9.418V14.752H15.269V13.582H10.714L10.718 5.852ZM0.5 14.755V20.606H9.4V19.306H1.8V14.755H0.5ZM0.5 0V5.851H1.8V1.3H9.4V0H0.5Z" fill="white"/>
</svg>
