<svg width="76" height="25" viewBox="0 0 76 25" fill="none" xmlns="http://www.w3.org/2000/svg">
<path d="M65.0103 23.4229V25H75.9926V17.8996H74.3884V23.4229H65.0103ZM65.0103 0V1.57706H74.3958V7.09797H76V0H65.0103ZM59.3439 12.1749V8.51732H61.855C63.0791 8.51732 63.5184 8.91887 63.5184 10.0143V10.6621C63.5184 11.7879 63.0939 12.1737 61.855 12.1737L59.3439 12.1749ZM63.3309 12.8227C63.9024 12.665 64.404 12.3244 64.7565 11.8549C65.1089 11.3853 65.2921 10.8136 65.2768 10.2303C65.2766 9.84365 65.1958 9.46119 65.0394 9.10649C64.883 8.75179 64.6543 8.43237 64.3674 8.16794C63.9543 7.80031 63.4711 7.51687 62.9458 7.33405C62.4205 7.15122 61.8635 7.07263 61.3072 7.10282H57.7743V17.8996H59.3439V13.5942H61.6983C62.9064 13.5942 63.3938 14.088 63.3938 15.3229V17.8996H64.998V15.5692C64.998 13.8708 64.5895 13.2242 63.3346 13.0386L63.3309 12.8227ZM50.1151 13.1769H54.9498V11.7576H50.1151V8.51732H55.4211V7.09797H48.5109V17.8948H55.6519V16.4754H50.1114L50.1151 13.1769ZM44.8572 13.7483V14.4883C44.8572 16.0472 44.276 16.5506 42.8174 16.5506H42.4719C41.0121 16.5506 40.3063 16.0872 40.3063 13.9424V11.0479C40.3063 8.88733 41.0467 8.43968 42.504 8.43968H42.8186C44.2476 8.43968 44.7017 8.96497 44.7177 10.4146H46.4453C46.4419 9.93983 46.3403 9.47065 46.1468 9.03562C45.9532 8.60059 45.6717 8.20879 45.3193 7.88405C44.967 7.55931 44.5511 7.3084 44.097 7.14657C43.643 6.98474 43.1602 6.91538 42.678 6.94269C41.7219 6.90916 40.7908 7.24738 40.0866 7.88407C39.5247 8.5091 39.0984 9.24036 38.834 10.033C38.5697 10.8257 38.4727 11.6631 38.5491 12.4939C38.3965 14.1491 38.9154 15.7965 39.9929 17.0771C40.6571 17.7018 41.5415 18.0496 42.4608 18.0476C42.9086 18.0748 43.3553 17.9795 43.7515 17.7725C44.1476 17.5654 44.4778 17.2546 44.7054 16.8745H44.9164V17.8935H46.3601V12.329H42.1103V13.7483H44.8572ZM31.0145 8.51732H32.7248C34.3413 8.51732 35.2211 8.91887 35.2211 11.0794V13.9181C35.2211 16.0787 34.3425 16.4803 32.7248 16.4803H31.0145V8.51732ZM32.8655 17.8996C35.864 17.8996 36.977 15.6626 36.977 12.4988C36.977 9.28887 35.7838 7.09797 32.8334 7.09797H29.4437V17.8948L32.8655 17.8996ZM21.8634 13.1781H26.6981V11.7576H21.8634V8.51732H27.1695V7.09797H20.2593V17.8948H27.4015V16.4754H21.861L21.8634 13.1781ZM12.6087 7.09919H11.0045V17.896H18.2245V16.4766H12.6037L12.6087 7.09919ZM0 17.8996V24.9976H10.9823V23.4205H1.60416V17.8996H0ZM0 0V7.09797H1.60416V1.57706H10.9823V0H0Z" fill="black"/>
</svg>
