<svg width="9" height="15" viewBox="0 0 9 15" fill="none" xmlns="http://www.w3.org/2000/svg">
<path d="M6.97892 0.307081L0.214045 6.99257C0.146277 7.05897 0.0924393 7.13823 0.0556854 7.22569C0.0189314 7.31316 0 7.40708 0 7.50196C0 7.59683 0.0189314 7.69076 0.0556854 7.77822C0.0924393 7.86569 0.146277 7.94494 0.214045 8.01134L6.97892 14.6968C7.1779 14.8912 7.44501 15 7.72315 15C8.0013 15 8.26841 14.8912 8.46738 14.6968C8.56511 14.6005 8.64271 14.4856 8.69568 14.359C8.74864 14.2324 8.77592 14.0965 8.77592 13.9592C8.77592 13.822 8.74864 13.6861 8.69568 13.5594C8.64271 13.4328 8.56511 13.318 8.46738 13.2216L2.68422 7.50196L8.46738 1.78231C8.56515 1.68582 8.64278 1.57087 8.69576 1.44413C8.74875 1.3174 8.77603 1.1814 8.77603 1.04403C8.77603 0.906669 8.74875 0.770671 8.69576 0.643935C8.64278 0.5172 8.56515 0.40225 8.46738 0.305758C8.26817 0.109812 7.99993 0 7.72051 0C7.44108 0 7.17284 0.109812 6.97363 0.305758" fill="#F7F2EC"/>
</svg>
