<svg xmlns="http://www.w3.org/2000/svg" width="34.654" height="34" viewBox="0 0 34.654 34">
  <g id="LETTER" transform="translate(-40 -425)">
    <ellipse id="Ellipse_218" data-name="Ellipse 218" cx="17.327" cy="17" rx="17.327" ry="17" transform="translate(40 425)" fill="#00433a"/>
    <g id="Ellipse_220" data-name="Ellipse 220" transform="translate(43.238 428.238)" fill="none" stroke="#fff" stroke-linecap="round" stroke-width="1" stroke-dasharray="0.2 3" opacity="0.511">
      <ellipse cx="14.089" cy="13.762" rx="14.089" ry="13.762" stroke="none"/>
      <ellipse cx="14.089" cy="13.762" rx="13.589" ry="13.262" fill="none"/>
    </g>
    <path id="Receipt" d="M12.959,2H3.792A1.793,1.793,0,0,0,2,3.792v9.436a1.89,1.89,0,0,0,.459,1.218.487.487,0,0,0,.376.159.468.468,0,0,0,.37-.185l.816-1.084.8,1.039a.939.939,0,0,0,.752.376.96.96,0,0,0,.759-.376l.784-1.039.8,1.039a.968.968,0,0,0,1.5,0l.778-1.02.74,1.033a.486.486,0,0,0,.752.038,1.848,1.848,0,0,0,.446-1.2V8.854h.829c.988,0,1.154-.8,1.154-1.792V3.785C14.113,2.8,13.948,2,12.959,2Zm-9,8.339a.482.482,0,0,1,.478-.478H9.689a.478.478,0,0,1,0,.956H4.442A.482.482,0,0,1,3.964,10.339Zm0-2.62a.478.478,0,0,1,.478-.478H9.689a.478.478,0,0,1,0,.956H4.442A.482.482,0,0,1,3.964,7.719ZM9.689,5.6H4.442a.478.478,0,1,1,0-.956H9.689a.478.478,0,0,1,0,.956ZM13.3,7.062c0,.459.114.835-.345.835h-.829V2.956h.829c.459,0,.345.37.345.829Z" transform="translate(49.943 433.625)" fill="#85b0a7"/>
  </g>
</svg>
