<svg xmlns="http://www.w3.org/2000/svg" width="34.654" height="34" viewBox="0 0 34.654 34">
  <g id="LETTER" transform="translate(-40 -425)">
    <ellipse id="Ellipse_218" data-name="Ellipse 218" cx="17.327" cy="17" rx="17.327" ry="17" transform="translate(40 425)" fill="#00433a"/>
    <g id="Ellipse_220" data-name="Ellipse 220" transform="translate(43.238 428.238)" fill="none" stroke="#fff" stroke-linecap="round" stroke-width="1" stroke-dasharray="0.2 3" opacity="0.511">
      <ellipse cx="14.089" cy="13.762" rx="14.089" ry="13.762" stroke="none"/>
      <ellipse cx="14.089" cy="13.762" rx="13.589" ry="13.262" fill="none"/>
    </g>
    <path id="Clipboard" d="M14.64,3.247H13.572A1.441,1.441,0,0,0,12.155,2H8.82A1.441,1.441,0,0,0,7.4,3.247H6.327A2.267,2.267,0,0,0,4.06,5.513v10.4A2.267,2.267,0,0,0,6.327,18.19H14.64a2.275,2.275,0,0,0,2.275-2.275V5.513A2.267,2.267,0,0,0,14.64,3.247ZM8.6,7.594a.615.615,0,0,1-.607.607h-.81a.607.607,0,0,1,0-1.214h.81a.615.615,0,0,1,.607.607ZM6.545,14.256a.615.615,0,0,1,.607-.607h6.662a.607.607,0,0,1,0,1.214H7.152a.615.615,0,0,1-.607-.607Zm7.286-2.728H7.152a.607.607,0,0,1,0-1.214h6.662a.607.607,0,0,1,0,1.214Zm-5.213-8.1a.219.219,0,0,1,.219-.219h3.335a.227.227,0,0,1,.219.219v.81a.227.227,0,0,1-.219.227H8.82A.219.219,0,0,1,8.6,4.242Z" transform="translate(46.839 431.905)" fill="#79b1a7"/>
  </g>
</svg>
