<svg width="21" height="20" viewBox="0 0 21 20" fill="none" xmlns="http://www.w3.org/2000/svg">
<path d="M10.8333 2C15.4358 2 19.1667 5.73083 19.1667 10.3333C19.1667 14.9358 15.4358 18.6667 10.8333 18.6667C9.36064 18.6692 7.91383 18.2795 6.64168 17.5375L2.50335 18.6667L3.63001 14.5267C2.88748 13.2541 2.49743 11.8067 2.50001 10.3333C2.50001 5.73083 6.23085 2 10.8333 2ZM7.99335 6.41667L7.82668 6.42333C7.71892 6.43076 7.61364 6.45906 7.51668 6.50667C7.42633 6.55793 7.34381 6.62191 7.27168 6.69667C7.17168 6.79083 7.11501 6.8725 7.05418 6.95167C6.74595 7.35242 6.57999 7.84443 6.58251 8.35C6.58418 8.75833 6.69085 9.15583 6.85751 9.5275C7.19835 10.2792 7.75918 11.075 8.49918 11.8125C8.67751 11.99 8.85251 12.1683 9.04085 12.3342C9.96037 13.1437 11.0561 13.7275 12.2408 14.0392L12.7142 14.1117C12.8683 14.12 13.0225 14.1083 13.1775 14.1008C13.4202 14.088 13.6571 14.0223 13.8717 13.9083C13.9807 13.852 14.0872 13.7908 14.1908 13.725C14.1908 13.725 14.2261 13.7011 14.295 13.65C14.4075 13.5667 14.4767 13.5075 14.57 13.41C14.64 13.3378 14.6983 13.2539 14.745 13.1583C14.81 13.0225 14.875 12.7633 14.9017 12.5475C14.9217 12.3825 14.9158 12.2925 14.9133 12.2367C14.91 12.1475 14.8358 12.055 14.755 12.0158L14.27 11.7983C14.27 11.7983 13.545 11.4825 13.1017 11.2808C13.0553 11.2606 13.0056 11.2491 12.955 11.2467C12.898 11.2407 12.8404 11.2471 12.786 11.2653C12.7317 11.2836 12.6819 11.3133 12.64 11.3525C12.6358 11.3508 12.58 11.3983 11.9775 12.1283C11.9429 12.1748 11.8953 12.2099 11.8407 12.2292C11.7861 12.2485 11.7269 12.2511 11.6708 12.2367C11.6165 12.2222 11.5633 12.2038 11.5117 12.1817C11.4083 12.1383 11.3725 12.1217 11.3017 12.0917C10.8232 11.8833 10.3804 11.6012 9.98918 11.2558C9.88418 11.1642 9.78668 11.0642 9.68668 10.9675C9.35886 10.6535 9.07314 10.2983 8.83668 9.91083L8.78751 9.83167C8.75273 9.77816 8.72421 9.72084 8.70251 9.66083C8.67085 9.53833 8.75335 9.44 8.75335 9.44C8.75335 9.44 8.95585 9.21833 9.05001 9.09833C9.14168 8.98167 9.21918 8.86833 9.26918 8.7875C9.36751 8.62917 9.39835 8.46667 9.34668 8.34083C9.11335 7.77083 8.87223 7.20389 8.62335 6.64C8.57418 6.52833 8.42835 6.44833 8.29585 6.4325C8.25085 6.42694 8.20585 6.4225 8.16085 6.41917C8.04895 6.41275 7.93676 6.41386 7.82501 6.4225L7.99335 6.41667Z" fill="#C3B075"/>
</svg>
