<svg xmlns="http://www.w3.org/2000/svg" width="38" height="38" viewBox="0 0 38 38">
  <g id="wallets" transform="translate(-30 -722)">
    <circle id="Ellipse_1938" data-name="Ellipse 1938" cx="19" cy="19" r="19" transform="translate(30 722)" fill="#1f1b1e" opacity="0.47"/>
    <path id="Wallet" d="M18.049,6.384h-.385A3.874,3.874,0,0,0,13.956,3.06h-9.7A2.344,2.344,0,0,0,2,5.467a2.269,2.269,0,0,0,.03.256A.489.489,0,0,0,2,5.852V17a3.694,3.694,0,0,0,3.679,3.689h12.37A3.694,3.694,0,0,0,21.729,17V10.064A3.686,3.686,0,0,0,18.049,6.384ZM17.5,14.779a1.248,1.248,0,1,1,1.253-1.243A1.244,1.244,0,0,1,17.5,14.779ZM4.259,4.54h9.7a2.348,2.348,0,0,1,2.19,1.845H4.259a.857.857,0,0,1-.779-.917A.86.86,0,0,1,4.259,4.54Z" transform="translate(37.137 728.941)" fill="#fff"/>
  </g>
</svg>
