<svg width="11" height="11" viewBox="0 0 18 18" fill="none" xmlns="http://www.w3.org/2000/svg">
<g clip-path="url(#clip0_2948_8172)">
<path d="M8.117 18C6.39221 18 4.68466 18 2.96676 18C2.25969 18.015 1.57148 17.7714 1.03152 17.3148C0.491555 16.8582 0.137034 16.2202 0.0345989 15.5207C0.0105235 15.361 0.000148778 15.1994 0.00356432 15.0379C0.00356432 11.6103 0.00356432 8.18504 0.00356432 4.76205C-0.00896117 4.07301 0.224391 3.40205 0.661818 2.86938C1.09924 2.3367 1.71215 1.97717 2.39068 1.85518C2.57029 1.82058 2.75281 1.80325 2.93572 1.80345C4.77551 1.80345 6.61529 1.80345 8.45508 1.80345C8.57802 1.79437 8.70152 1.81052 8.81798 1.85093C8.93444 1.89134 9.0414 1.95515 9.13228 2.03841C9.22316 2.12167 9.29605 2.22263 9.34645 2.33509C9.39685 2.44755 9.42369 2.56915 9.42534 2.69237C9.42699 2.81559 9.4034 2.93783 9.35603 3.0516C9.30866 3.16537 9.23852 3.26825 9.1499 3.35391C9.06128 3.43957 8.95605 3.50622 8.84072 3.54973C8.72538 3.59324 8.60237 3.61267 8.47923 3.60689H2.97366C2.81816 3.59916 2.66273 3.62382 2.51724 3.67925C2.37175 3.73468 2.23937 3.81971 2.12847 3.92895C2.01756 4.03819 1.93056 4.16925 1.87297 4.31385C1.81538 4.45845 1.78846 4.61341 1.79391 4.76896C1.79391 8.19195 1.79391 11.6161 1.79391 15.0414C1.78751 15.1972 1.81362 15.3526 1.87057 15.4978C1.92751 15.643 2.01404 15.7747 2.12468 15.8847C2.23531 15.9946 2.36761 16.0803 2.51318 16.1364C2.65874 16.1925 2.81438 16.2177 2.97021 16.2104C6.38991 16.2104 9.80846 16.2104 13.2259 16.2104C13.3832 16.2179 13.5404 16.1922 13.6872 16.1351C13.834 16.078 13.9672 15.9907 14.0781 15.8789C14.189 15.767 14.2751 15.6332 14.331 15.4859C14.3868 15.3387 14.4111 15.1813 14.4022 15.0241C14.4022 12.9069 14.4022 10.7908 14.4022 8.67588C14.3949 8.52379 14.4265 8.37234 14.494 8.23584C14.5615 8.09934 14.6627 7.98228 14.7879 7.89568C14.9132 7.80909 15.0585 7.75579 15.2101 7.74087C15.3617 7.72594 15.5146 7.74987 15.6544 7.81036C15.8312 7.88477 15.9799 8.01331 16.0791 8.1775C16.1783 8.34169 16.2228 8.53308 16.2063 8.72416V12.269C16.2063 13.1896 16.2063 14.1103 16.2063 15.0276C16.2187 15.7381 15.9716 16.4287 15.5113 16.9702C15.0509 17.5116 14.4088 17.8667 13.7054 17.969C13.5179 17.9937 13.3286 18.0029 13.1396 17.9965L8.117 18Z" fill="#F1F1F1"/>
<path d="M16.131 3.08578C16.0887 3.15875 16.0402 3.228 15.9861 3.29271L8.81091 10.4686C8.70091 10.6022 8.55574 10.7024 8.39175 10.7578C8.22777 10.8133 8.05153 10.8218 7.88297 10.7824C7.7333 10.7477 7.59513 10.6749 7.48177 10.5713C7.36842 10.4676 7.28371 10.3365 7.23585 10.1905C7.188 10.0446 7.1786 9.88878 7.20857 9.73815C7.23853 9.58752 7.30685 9.44714 7.40692 9.3306C7.46212 9.26509 7.52421 9.2065 7.58285 9.14788C9.95848 6.77087 12.3364 4.39499 14.7166 2.02028C14.7814 1.96619 14.8506 1.91772 14.9236 1.87543L14.8788 1.79613H14.6614C13.668 1.79613 12.6779 1.79613 11.6844 1.79613C11.5101 1.80151 11.3386 1.75173 11.1942 1.6539C11.0499 1.55606 10.9402 1.41518 10.8807 1.25132C10.8089 1.09665 10.7849 0.924071 10.812 0.755712C10.839 0.587354 10.9158 0.430908 11.0325 0.306493C11.1213 0.205896 11.2316 0.126433 11.3551 0.0739285C11.4787 0.0214241 11.6124 -0.00279446 11.7465 0.00304348H17.0209C17.1532 -0.0109972 17.2869 0.00464194 17.4124 0.0488409C17.5378 0.0930398 17.6518 0.164667 17.746 0.258507C17.8402 0.352347 17.9122 0.466029 17.9569 0.591254C18.0015 0.716479 18.0177 0.850093 18.0041 0.982342C18.0041 2.74786 18.0041 4.51337 18.0041 6.27889C18.0119 6.48098 17.95 6.67961 17.8288 6.84155C17.7076 7.00349 17.5345 7.11895 17.3383 7.16857C17.1503 7.22242 16.9496 7.2108 16.7691 7.13561C16.5886 7.06042 16.439 6.92611 16.3448 6.75475C16.2625 6.58603 16.2189 6.40109 16.2172 6.21339C16.2172 5.26512 16.2172 4.31339 16.2172 3.36511V3.14442L16.131 3.08578Z" fill="#F1F1F1"/>
</g>
<defs>
<clipPath id="clip0_2948_8172">
<rect width="18" height="18" fill="white"/>
</clipPath>
</defs>
</svg>
