<svg width="21" height="20" viewBox="0 0 21 20" fill="none" xmlns="http://www.w3.org/2000/svg">
<path d="M17.1667 6.66668L10.5 10.8333L3.83335 6.66668V5.00001L10.5 9.16668L17.1667 5.00001M17.1667 3.33334H3.83335C2.90835 3.33334 2.16669 4.07501 2.16669 5.00001V15C2.16669 15.442 2.34228 15.866 2.65484 16.1785C2.9674 16.4911 3.39133 16.6667 3.83335 16.6667H17.1667C17.6087 16.6667 18.0326 16.4911 18.3452 16.1785C18.6578 15.866 18.8334 15.442 18.8334 15V5.00001C18.8334 4.55798 18.6578 4.13406 18.3452 3.8215C18.0326 3.50894 17.6087 3.33334 17.1667 3.33334Z" fill="#F7F2EC"/>
</svg>
