<svg xmlns="http://www.w3.org/2000/svg" width="12.716" height="11.822" viewBox="0 0 12.716 11.822">
  <g id="link" transform="translate(-305 -625.366)">
    <g id="linked" transform="translate(317.716 624.473) rotate(90)">
      <path id="Combined_Shape" data-name="Combined Shape" d="M2.075,12.716a1.169,1.169,0,1,1,0-2.337h8.3V2.337H8.618a1.165,1.165,0,0,1-.847-.33A1.165,1.165,0,0,1,7.509.715,1.154,1.154,0,0,1,7.771.331,1.165,1.165,0,0,1,8.618,0h2.929a1.17,1.17,0,0,1,1.08.721,1.16,1.16,0,0,1,.089.447V11.547a1.166,1.166,0,0,1-.343.827,1.171,1.171,0,0,1-.826.342ZM5.578,6.3,3.046,3.772l.023.94a1.061,1.061,0,0,1-.643.987,1.054,1.054,0,0,1-.813.01,1.06,1.06,0,0,1-.666-.972L.894,1.206A1.059,1.059,0,0,1,1.953.132l3.5,0a1.063,1.063,0,0,1,.406.08,1.066,1.066,0,0,1,.575.574,1.062,1.062,0,0,1-.229,1.157,1.059,1.059,0,0,1-.75.311l-.925,0L7.079,4.8a1.062,1.062,0,0,1-.757,1.79H6.309A1.067,1.067,0,0,1,5.578,6.3Z" transform="translate(0 0)" fill="#00715b"/>
    </g>
    <g id="linked-2" data-name="linked" transform="translate(305 625.366)">
      <path id="Combined_Shape-2" data-name="Combined Shape" d="M8.316,12.374a1.164,1.164,0,0,1-.827.342H4.561a1.169,1.169,0,1,1,0-2.337H6.322L6.3,3.24C-2.315,3.24-2.315.9,7.468.9A1.169,1.169,0,0,1,8.637,2.071l.022,9.476a1.164,1.164,0,0,1-.342.827Z" transform="translate(8.659 12.717) rotate(180)" fill="#00715b"/>
    </g>
  </g>
</svg>
