<svg width="21" height="20" viewBox="0 0 21 20" fill="none" xmlns="http://www.w3.org/2000/svg">
<path d="M10.8333 2.00015C15.4358 2.00015 19.1667 5.73099 19.1667 10.3335C19.1667 14.936 15.4358 18.6668 10.8333 18.6668C9.36064 18.6694 7.91383 18.2796 6.64168 17.5377L2.50335 18.6668L3.63001 14.5268C2.88748 13.2543 2.49743 11.8068 2.50001 10.3335C2.50001 5.73099 6.23085 2.00015 10.8333 2.00015ZM7.99335 6.41682L7.82668 6.42349C7.71892 6.43091 7.61364 6.45921 7.51668 6.50682C7.42633 6.55808 7.34381 6.62207 7.27168 6.69682C7.17168 6.79099 7.11501 6.87265 7.05418 6.95182C6.74595 7.35257 6.57999 7.84458 6.58251 8.35015C6.58418 8.75849 6.69085 9.15599 6.85751 9.52765C7.19835 10.2793 7.75918 11.0752 8.49918 11.8127C8.67751 11.9902 8.85251 12.1685 9.04085 12.3343C9.96037 13.1438 11.0561 13.7276 12.2408 14.0393L12.7142 14.1118C12.8683 14.1202 13.0225 14.1085 13.1775 14.101C13.4202 14.0882 13.6571 14.0225 13.8717 13.9085C13.9807 13.8521 14.0872 13.7909 14.1908 13.7252C14.1908 13.7252 14.2261 13.7013 14.295 13.6502C14.4075 13.5668 14.4767 13.5077 14.57 13.4102C14.64 13.3379 14.6983 13.254 14.745 13.1585C14.81 13.0227 14.875 12.7635 14.9017 12.5477C14.9217 12.3827 14.9158 12.2927 14.9133 12.2368C14.91 12.1477 14.8358 12.0552 14.755 12.016L14.27 11.7985C14.27 11.7985 13.545 11.4827 13.1017 11.281C13.0553 11.2608 13.0056 11.2492 12.955 11.2468C12.898 11.2409 12.8404 11.2472 12.786 11.2655C12.7317 11.2837 12.6819 11.3135 12.64 11.3527C12.6358 11.351 12.58 11.3985 11.9775 12.1285C11.9429 12.175 11.8953 12.2101 11.8407 12.2294C11.7861 12.2487 11.7269 12.2513 11.6708 12.2368C11.6165 12.2223 11.5633 12.204 11.5117 12.1818C11.4083 12.1385 11.3725 12.1218 11.3017 12.0918C10.8232 11.8834 10.3804 11.6014 9.98918 11.256C9.88418 11.1643 9.78668 11.0643 9.68668 10.9677C9.35886 10.6537 9.07314 10.2985 8.83668 9.91099L8.78751 9.83182C8.75273 9.77832 8.72421 9.721 8.70251 9.66099C8.67085 9.53849 8.75335 9.44015 8.75335 9.44015C8.75335 9.44015 8.95585 9.21849 9.05001 9.09849C9.14168 8.98182 9.21918 8.86849 9.26918 8.78765C9.36751 8.62932 9.39835 8.46682 9.34668 8.34099C9.11335 7.77099 8.87223 7.20404 8.62335 6.64015C8.57418 6.52849 8.42835 6.44849 8.29585 6.43265C8.25085 6.4271 8.20585 6.42265 8.16085 6.41932C8.04895 6.4129 7.93676 6.41401 7.82501 6.42265L7.99335 6.41682Z" fill="#F7F2EC"/>
</svg>
