<svg width="20" height="20" viewBox="0 0 20 20" fill="none" xmlns="http://www.w3.org/2000/svg">
<path d="M15.6218 18.9999C14.881 18.9999 13.8403 18.7319 12.2819 17.8614C10.3868 16.7989 8.92101 15.818 7.03621 13.9385C5.21896 12.1227 4.33463 10.9471 3.09694 8.69538C1.69871 6.15293 1.93706 4.82024 2.2035 4.25066C2.5208 3.56989 2.98915 3.16272 3.59452 2.75859C3.93837 2.53335 4.30224 2.34027 4.68153 2.18179C4.71949 2.16548 4.75478 2.14992 4.78629 2.13588C4.97416 2.05126 5.25882 1.92337 5.61938 2.05998C5.86001 2.1503 6.07483 2.3351 6.4111 2.66713C7.10073 3.34714 8.04313 4.8616 8.39079 5.60536C8.62421 6.10664 8.77869 6.43754 8.77907 6.80866C8.77907 7.24315 8.56045 7.57822 8.29515 7.93985C8.24543 8.00778 8.19609 8.07267 8.14827 8.13566C7.85944 8.51513 7.79605 8.62479 7.8378 8.8206C7.92244 9.21411 8.55362 10.3855 9.59091 11.4203C10.6282 12.4552 11.7661 13.0464 12.1612 13.1306C12.3654 13.1742 12.4773 13.1082 12.869 12.8092C12.9252 12.7663 12.9829 12.7219 13.0432 12.6775C13.4478 12.3766 13.7674 12.1637 14.1917 12.1637H14.194C14.5633 12.1637 14.8794 12.3239 15.4032 12.588C16.0864 12.9325 17.6467 13.8626 18.331 14.5529C18.6639 14.8883 18.8495 15.1023 18.9402 15.3425C19.0768 15.7042 18.9481 15.9876 18.8643 16.1774C18.8502 16.2089 18.8346 16.2434 18.8183 16.2817C18.6586 16.6603 18.4643 17.0233 18.238 17.3662C17.8346 17.9696 17.4258 18.4367 16.7434 18.7543C16.393 18.9201 16.0095 19.004 15.6218 18.9999Z" fill="#F7F2EC"/>
</svg>
