<svg width="21" height="20" viewBox="0 0 21 20" fill="none" xmlns="http://www.w3.org/2000/svg">
<path d="M17.1514 4.76748C17.1514 3.78008 16.348 2.97676 15.3606 2.97676H15.0025V4.44189C15.0025 4.71161 14.7838 4.93027 14.5141 4.93027C14.2444 4.93027 14.0257 4.71161 14.0257 4.44189V2.97676H11.8769V4.44189C11.8769 4.71161 11.6582 4.93027 11.3885 4.93027C11.1188 4.93027 10.9001 4.71161 10.9001 4.44189V2.97676H8.75125V4.44189C8.75125 4.71161 8.53259 4.93027 8.26287 4.93027C7.99316 4.93027 7.77449 4.71161 7.77449 4.44189V2.97676H5.62563V4.44189C5.62563 4.71161 5.40696 4.93027 5.13725 4.93027C4.86753 4.93027 4.64887 4.71161 4.64887 4.44189V2.97676H4.29072C3.30332 2.97676 2.5 3.78008 2.5 4.76748V6.23262H17.1514V4.76748ZM5.62563 2.48838C5.62563 2.21866 5.40696 2 5.13725 2C4.86753 2 4.64887 2.21866 4.64887 2.48838V2.97676H5.62563V2.48838ZM15.0025 2.48838C15.0025 2.21866 14.7838 2 14.5141 2C14.2444 2 14.0257 2.21866 14.0257 2.48838V2.97676H15.0025V2.48838ZM11.8769 2.48838C11.8769 2.21866 11.6582 2 11.3885 2C11.1188 2 10.9001 2.21866 10.9001 2.48838V2.97676H11.8769V2.48838ZM8.75125 2.48838C8.75125 2.21866 8.53259 2 8.26287 2C7.99316 2 7.77449 2.21866 7.77449 2.48838V2.97676H8.75125V2.48838ZM15.5886 10.5304C16.1373 10.5304 16.6637 10.6279 17.1514 10.8064V7.20937H2.5V14.5351C2.5 15.3429 3.15726 16.0002 3.96514 16.0002H11.122C11.0609 15.7002 11.0302 15.3947 11.0304 15.0886C11.0304 12.5752 13.0752 10.5304 15.5886 10.5304ZM13.7653 8.9187H14.5792C14.849 8.9187 15.0676 9.13736 15.0676 9.40708C15.0676 9.6768 14.849 9.89546 14.5792 9.89546H13.7653C13.4956 9.89546 13.2769 9.6768 13.2769 9.40708C13.2769 9.13736 13.4956 8.9187 13.7653 8.9187ZM10.8676 8.9187H11.6815C11.9512 8.9187 12.1699 9.13736 12.1699 9.40708C12.1699 9.6768 11.9512 9.89546 11.6815 9.89546H10.8676C10.5978 9.89546 10.3792 9.6768 10.3792 9.40708C10.3792 9.13736 10.5978 8.9187 10.8676 8.9187ZM5.88609 14.2909H5.07213C4.80241 14.2909 4.58375 14.0722 4.58375 13.8025C4.58375 13.5328 4.80241 13.3141 5.07213 13.3141H5.88609C6.15581 13.3141 6.37447 13.5328 6.37447 13.8025C6.37447 14.0722 6.15581 14.2909 5.88609 14.2909ZM5.88609 12.0932H5.07213C4.80241 12.0932 4.58375 11.8745 4.58375 11.6048C4.58375 11.3351 4.80241 11.1164 5.07213 11.1164H5.88609C6.15581 11.1164 6.37447 11.3351 6.37447 11.6048C6.37447 11.8745 6.15581 12.0932 5.88609 12.0932ZM8.78381 14.2909H7.96984C7.70013 14.2909 7.48146 14.0722 7.48146 13.8025C7.48146 13.5328 7.70013 13.3141 7.96984 13.3141H8.78381C9.05352 13.3141 9.27219 13.5328 9.27219 13.8025C9.27219 14.0722 9.05352 14.2909 8.78381 14.2909ZM8.78381 12.0932H7.96984C7.70013 12.0932 7.48146 11.8745 7.48146 11.6048C7.48146 11.3351 7.70013 11.1164 7.96984 11.1164H8.78381C9.05352 11.1164 9.27219 11.3351 9.27219 11.6048C9.27219 11.8745 9.05352 12.0932 8.78381 12.0932ZM8.78381 9.89546H7.96984C7.70013 9.89546 7.48146 9.6768 7.48146 9.40708C7.48146 9.13736 7.70013 8.9187 7.96984 8.9187H8.78381C9.05352 8.9187 9.27219 9.13736 9.27219 9.40708C9.27219 9.6768 9.05352 9.89546 8.78381 9.89546ZM10.3792 11.6048C10.3792 11.3351 10.5978 11.1164 10.8676 11.1164H11.6815C11.9512 11.1164 12.1699 11.3351 12.1699 11.6048C12.1699 11.8745 11.9512 12.0932 11.6815 12.0932H10.8676C10.5978 12.0932 10.3792 11.8745 10.3792 11.6048Z" fill="#C3B075"/>
<path d="M15.5888 11.5068C13.614 11.5068 12.0073 13.1135 12.0073 15.0883C12.0073 17.0631 13.614 18.6697 15.5888 18.6697C17.5636 18.6697 19.1702 17.0631 19.1702 15.0883C19.1702 13.1135 17.5636 11.5068 15.5888 11.5068ZM17.2167 15.5767H15.5888C15.3191 15.5767 15.1004 15.358 15.1004 15.0883V13.4604C15.1004 13.1906 15.3191 12.972 15.5888 12.972C15.8585 12.972 16.0771 13.1906 16.0771 13.4604V14.5999H17.2167C17.4864 14.5999 17.7051 14.8186 17.7051 15.0883C17.7051 15.358 17.4864 15.5767 17.2167 15.5767Z" fill="#C3B075"/>
</svg>
