<svg width="21" height="20" viewBox="0 0 21 20" fill="none" xmlns="http://www.w3.org/2000/svg">
<path d="M17.1665 6.66634L10.4998 10.833L3.83317 6.66634V4.99967L10.4998 9.16634L17.1665 4.99967M17.1665 3.33301H3.83317C2.90817 3.33301 2.1665 4.07467 2.1665 4.99967V14.9997C2.1665 15.4417 2.3421 15.8656 2.65466 16.1782C2.96722 16.4907 3.39114 16.6663 3.83317 16.6663H17.1665C17.6085 16.6663 18.0325 16.4907 18.345 16.1782C18.6576 15.8656 18.8332 15.4417 18.8332 14.9997V4.99967C18.8332 4.55765 18.6576 4.13372 18.345 3.82116C18.0325 3.5086 17.6085 3.33301 17.1665 3.33301Z" fill="#C3B075"/>
</svg>
