<svg xmlns="http://www.w3.org/2000/svg" width="20.205" height="22.475" viewBox="0 0 20.205 22.475">
  <path id="Lock_Close_" data-name="Lock (Close)" d="M19.743,11.336V8.65a6.63,6.63,0,1,0-13.26,0v2.686A4.386,4.386,0,0,0,3.01,15.617V20.1A4.393,4.393,0,0,0,7.4,24.5H18.832A4.391,4.391,0,0,0,23.215,20.1V15.617A4.386,4.386,0,0,0,19.743,11.336Zm-5.787,7.181V20.18a.843.843,0,0,1-1.686,0V18.517a2,2,0,1,1,1.686,0ZM8.168,11.235V8.65a4.945,4.945,0,1,1,9.889,0v2.585Z" transform="translate(-3.01 -2.02)" fill="#2d6759"/>
</svg>
