<svg xmlns="http://www.w3.org/2000/svg" width="16.541" height="20.695" viewBox="0 0 16.541 20.695">
  <g id="lock" transform="translate(-3608.214 -5983.57)">
    <g id="Icons_Control-Settings_lock" data-name="Icons / Control-Settings / lock" transform="translate(3608.214 5983.57)">
      <g id="lock-2" data-name="lock" transform="translate(0 0)">
        <path id="Shape" d="M13.941,20.7c-.052,0-.105,0-.158,0H2.757c-.052,0-.1,0-.157,0a2.658,2.658,0,0,1-.86-.142,2.6,2.6,0,0,1-.883-.51,2.507,2.507,0,0,1-.612-.8A2.471,2.471,0,0,1,0,18.268V9.8A2.345,2.345,0,0,1,.47,8.443a2.444,2.444,0,0,1,1.185-.855V6.448a6.279,6.279,0,0,1,.5-2.468A6.409,6.409,0,0,1,3.592,1.889,6.6,6.6,0,0,1,5.739.491a6.773,6.773,0,0,1,5.063,0,6.6,6.6,0,0,1,2.147,1.4A6.4,6.4,0,0,1,14.383,3.98a6.279,6.279,0,0,1,.5,2.468V7.588a2.449,2.449,0,0,1,1.186.857,2.351,2.351,0,0,1,.469,1.364v8.464a2.475,2.475,0,0,1-.247.97,2.527,2.527,0,0,1-.612.8,2.608,2.608,0,0,1-.882.509A2.659,2.659,0,0,1,13.941,20.7ZM8.27,3.225a3.335,3.335,0,0,0-2.338.945,3.21,3.21,0,0,0-.97,2.278V7.39h6.618V6.448a3.166,3.166,0,0,0-.971-2.278A3.333,3.333,0,0,0,8.27,3.225Z" fill="#fffbf7"/>
      </g>
    </g>
  </g>
</svg>
