<svg width="21" height="24" viewBox="0 0 21 24" fill="none" xmlns="http://www.w3.org/2000/svg">
<g clip-path="url(#clip0_7518_7836)">
<path d="M10.7826 23.9891H10.3015C10.0921 23.9147 9.88732 23.8284 9.68821 23.7307C8.95369 23.3107 8.18611 22.898 7.46261 22.4422C5.61103 21.3062 3.92688 19.9285 2.45684 18.3471C1.5817 17.4413 0.909949 16.3667 0.484646 15.1923C0.229588 14.3195 0.088905 13.4187 0.065968 12.5113C-0.111499 9.87114 0.04019 7.21971 0.517698 4.61536C0.587477 4.25646 0.583802 3.82938 0.910664 3.5602C1.13722 3.35272 1.39796 3.18402 1.68192 3.06127C4.42168 2.06711 7.1688 1.10167 9.91224 0.114676C10.3107 -0.0341562 10.7514 -0.0341562 11.1499 0.114676C12.8907 0.731993 14.6389 1.32781 16.3797 1.94513C17.4007 2.30643 18.4143 2.68564 19.4206 3.08283C19.6785 3.15078 19.9119 3.28743 20.0948 3.47757C20.2777 3.66772 20.4028 3.90386 20.4563 4.15955C20.6179 5.25421 20.7538 6.35603 20.853 7.46146C21.0268 9.29091 21.0427 11.1314 20.9007 12.9635C20.859 13.6801 20.7558 14.392 20.5922 15.0918C20.3223 16.0028 19.8649 16.8504 19.248 17.5826C18.2443 18.842 17.0763 19.9678 15.7737 20.9312C14.2406 22.141 12.565 23.1676 10.7826 23.9891ZM9.38705 13.8284C9.38705 14.1586 9.36869 14.4888 9.38705 14.8118C9.40074 15.0135 9.45702 15.2103 9.55233 15.3897C9.671 15.5911 9.85317 15.7495 10.0716 15.8414C10.2901 15.9333 10.533 15.9536 10.7643 15.8993C11.0059 15.8513 11.2241 15.7256 11.3839 15.5421C11.5437 15.3586 11.6359 15.1279 11.6457 14.8872C11.6641 14.234 11.6457 13.5772 11.6457 12.9204C11.6366 12.8338 11.6537 12.7466 11.6948 12.6694C11.7359 12.5923 11.7993 12.5285 11.8771 12.4861C12.3678 12.168 12.7257 11.6887 12.886 11.1351C13.0463 10.5814 12.9985 9.98996 12.7512 9.46777C12.5127 8.94104 12.0886 8.51547 11.5562 8.26847C11.0237 8.02147 10.4182 7.96945 9.84981 8.12187C9.36079 8.23011 8.91953 8.48715 8.58954 8.85607C8.25956 9.22499 8.05786 9.68673 8.0135 10.1748C7.93951 10.6384 8.01118 11.113 8.21904 11.5359C8.42691 11.9589 8.76119 12.3103 9.17772 12.5436C9.24483 12.5762 9.30014 12.628 9.33625 12.6921C9.37235 12.7563 9.38752 12.8297 9.37971 12.9025C9.37604 13.2219 9.38705 13.527 9.38705 13.8392V13.8284Z" fill="#FDF7F0"/>
</g>
<defs>
<clipPath id="clip0_7518_7836">
<rect width="21" height="24" fill="white"/>
</clipPath>
</defs>
</svg>
