<svg xmlns="http://www.w3.org/2000/svg" xmlns:xlink="http://www.w3.org/1999/xlink" width="261.365" height="115.014" viewBox="0 0 261.365 115.014">
  <defs>
    <linearGradient id="linear-gradient" x1="0.084" x2="0" y2="1" gradientUnits="objectBoundingBox">
      <stop offset="0" stop-color="#e1cd92"/>
      <stop offset="0.133" stop-color="#f0e3a7"/>
      <stop offset="0.305" stop-color="#d9c996"/>
      <stop offset="0.527" stop-color="#dece9a"/>
      <stop offset="0.631" stop-color="#f7eeb0"/>
      <stop offset="0.734" stop-color="#f9f2b3"/>
      <stop offset="0.936" stop-color="#b9a674"/>
      <stop offset="1" stop-color="#e4d99f"/>
    </linearGradient>
  </defs>
  <path id="logo" d="M249.148,113.929l.941-1.336L240.98,99.7h-4.993v11.542l1.882,2.685h-9l1.907-2.685V76.35l-1.907-2.686h15.676v.026a12.934,12.934,0,0,1,6.5,1.819,13.1,13.1,0,0,1,4.623,4.679,13.1,13.1,0,0,1,.394,12.275,13.094,13.094,0,0,1-8.918,6.945l8.36,11.836,3.789,2.685ZM235.973,98.819H244.4a5.573,5.573,0,0,0,3.9-1.639,11.265,11.265,0,0,0,2.81-4.391,18.3,18.3,0,0,0,0-12.205,11.3,11.3,0,0,0-2.81-4.4,5.6,5.6,0,0,0-3.9-1.637h-8.426Zm-46.923,15.111,1.879-2.685V76.35l-1.879-2.686H213.7l2.137,5.5-5.75-4.616H196.131V93.812h14.507v1.719H196.131v17.513h13.958l5.75-4.61-2.137,5.495Zm-42.215,0,1.879-2.685V76.35l-1.879-2.686h16.152a12.48,12.48,0,0,1,6.56,1.765,13.416,13.416,0,0,1,4.716,4.716,13.1,13.1,0,0,1,0,13.085,13.428,13.428,0,0,1-4.716,4.716,12.549,12.549,0,0,1-6.56,1.756h-9.061v11.542l1.885,2.685Zm7.091-15.111h9.061a5.62,5.62,0,0,0,3.926-1.639,11.277,11.277,0,0,0,2.81-4.391,18.3,18.3,0,0,0,0-12.205,11.322,11.322,0,0,0-2.81-4.4,5.624,5.624,0,0,0-3.926-1.637h-9.061Zm-46.912,15.111,1.877-2.685V76.35l-1.877-2.686h24.654l2.137,5.5-5.75-4.616H114.1V93.812h14.5v1.719H114.1v17.513h13.958l5.75-4.61-2.137,5.495Zm-39.824,0,1.882-2.685V76.35l-1.89-2.686H91.837l2.131,5.5-5.734-4.616H74.28V93.812h14.5v1.719H74.28v17.513H88.235l5.745-4.61-2.142,5.495Zm-22.156,0,.941-1.336L33.236,94.545l-9.556,13.5v3.194l1.879,2.685H16.584l1.893-2.685V50.795l-1.882-2.666h-.011l.011-.012,1.882-2.673v-.752a7.08,7.08,0,0,1-1.554-.678L3.833,36.468A7.567,7.567,0,0,1,.058,29.951L0,15A7.549,7.549,0,0,1,3.795,8.423L16.784.99a7.555,7.555,0,0,1,7.52.025L37.4,8.561a7.586,7.586,0,0,1,3.77,6.518l.057,14.941a7.582,7.582,0,0,1-3.808,6.586L24.444,44.039a5.617,5.617,0,0,1-.763.371v1.034l1.868,2.673.011.012h-.011L23.68,50.795v55.744L45.722,75.383l-.7-1.719h4.853l-3.786,2.692-9.66,13.668v.025l15,21.2,3.778,2.685ZM18.805,4.522,5.819,11.955a3.465,3.465,0,0,0-1.754,3.03L4.12,29.939A3.507,3.507,0,0,0,5.865,32.95l10.869,6.273h7.942l10.732-6.148a3.491,3.491,0,0,0,1.751-3.03L37.1,15.084a3.5,3.5,0,0,0-1.737-3L22.274,4.534a3.477,3.477,0,0,0-1.751-.472A3.435,3.435,0,0,0,18.805,4.522Z" transform="translate(0.5 0.585)" stroke="rgba(0,0,0,0)" stroke-width="1" fill="url(#linear-gradient)"/>
</svg>
