<svg id="mac" xmlns="http://www.w3.org/2000/svg" width="30" height="30" viewBox="0 0 30 30">
  <circle id="Ellipse_1940" data-name="Ellipse 1940" cx="15" cy="15" r="15" fill="#fac48b"/>
  <path id="Display" d="M15.335,3H4.838A2.826,2.826,0,0,0,2.02,5.818v6.363A2.826,2.826,0,0,0,4.838,15H8.3v1.324H7.2a.606.606,0,0,0,0,1.211h5.79a.606.606,0,0,0,0-1.211H11.879V15h3.472a2.826,2.826,0,0,0,2.818-2.818V5.818A2.826,2.826,0,0,0,15.335,3ZM9.5,16.323V15h1.155v1.324Z" transform="translate(4.904 5.275)" fill="#453228"/>
</svg>
