<svg width="16" height="17" viewBox="0 0 16 17" fill="none" xmlns="http://www.w3.org/2000/svg">
<path d="M12.4805 10.785C11.5542 10.785 10.7379 11.2407 10.2253 11.9336L5.79266 9.66391C5.86625 9.41306 5.91797 9.1531 5.91797 8.87878C5.91797 8.50672 5.84169 8.153 5.70991 7.82766L10.3488 5.03616C10.8651 5.64203 11.6239 6.03503 12.4805 6.03503C14.0314 6.03503 15.293 4.77344 15.293 3.22253C15.293 1.67163 14.0314 0.410034 12.4805 0.410034C10.9296 0.410034 9.66797 1.67163 9.66797 3.22253C9.66797 3.57994 9.74156 3.91897 9.86366 4.23372L5.21094 7.03341C4.69513 6.44553 3.94725 6.06628 3.10547 6.06628C1.55456 6.06628 0.292969 7.32788 0.292969 8.87878C0.292969 10.4297 1.55456 11.6913 3.10547 11.6913C4.04703 11.6913 4.87706 11.2223 5.38781 10.5098L9.80581 12.7722C9.72444 13.0349 9.66797 13.3085 9.66797 13.5975C9.66797 15.1484 10.9296 16.41 12.4805 16.41C14.0314 16.41 15.293 15.1484 15.293 13.5975C15.293 12.0466 14.0314 10.785 12.4805 10.785Z" fill="#F6F2ED"/>
</svg>
