<svg width="256" height="250" viewBox="0 0 256 250" fill="none" xmlns="http://www.w3.org/2000/svg">
<path opacity="0.26" d="M124.287 215.161C176.646 215.161 219.09 172.717 219.09 120.359C219.09 68.0016 176.646 25.5572 124.287 25.5572C71.9291 25.5572 29.4844 68.0016 29.4844 120.359C29.4844 172.717 71.9291 215.161 124.287 215.161Z" fill="#073B36"/>
<path opacity="0.3" d="M232.859 156.511C234.465 156.511 236.035 156.035 237.371 155.142C238.706 154.25 239.747 152.982 240.362 151.498C240.977 150.014 241.137 148.381 240.824 146.805C240.511 145.23 239.737 143.783 238.601 142.647C237.466 141.512 236.019 140.738 234.443 140.425C232.868 140.111 231.235 140.272 229.751 140.887C228.267 141.502 226.999 142.542 226.106 143.878C225.214 145.213 224.738 146.784 224.738 148.39C224.738 150.544 225.594 152.609 227.116 154.132C228.639 155.655 230.705 156.511 232.859 156.511Z" fill="#073B36"/>
<path opacity="0.2" d="M244.745 124.818C245.843 124.818 246.916 124.492 247.829 123.882C248.741 123.272 249.453 122.405 249.873 121.391C250.293 120.377 250.403 119.261 250.189 118.185C249.975 117.108 249.446 116.119 248.67 115.343C247.893 114.567 246.905 114.038 245.828 113.824C244.751 113.61 243.635 113.72 242.621 114.14C241.607 114.56 240.74 115.271 240.13 116.184C239.52 117.097 239.195 118.17 239.195 119.267C239.195 120.739 239.78 122.151 240.82 123.192C241.861 124.233 243.273 124.818 244.745 124.818Z" fill="#073B36"/>
<path opacity="0.3" d="M15.0607 94.0157C17.0978 94.0157 19.0892 93.4117 20.783 92.2799C22.4769 91.1481 23.797 89.5395 24.5766 87.6575C25.3562 85.7754 25.5602 83.7044 25.1627 81.7065C24.7653 79.7085 23.7843 77.8732 22.3439 76.4328C20.9034 74.9923 19.0681 74.0114 17.0701 73.6139C15.0721 73.2165 13.0011 73.4205 11.1191 74.2001C9.237 74.9796 7.62837 76.2998 6.4966 77.9936C5.36482 79.6874 4.76074 81.6788 4.76074 83.7159C4.76074 86.4476 5.84591 89.0674 7.77753 90.999C9.70915 92.9306 12.329 94.0157 15.0607 94.0157Z" fill="#073B36"/>
<path opacity="0.2" d="M219.192 57.0871C220.289 57.0871 221.362 56.7616 222.275 56.1517C223.188 55.5419 223.899 54.675 224.319 53.6609C224.739 52.6467 224.849 51.5308 224.635 50.4541C224.421 49.3775 223.892 48.3885 223.116 47.6123C222.34 46.8361 221.351 46.3075 220.274 46.0934C219.198 45.8792 218.082 45.9891 217.068 46.4092C216.053 46.8293 215.187 47.5407 214.577 48.4534C213.967 49.3661 213.641 50.4392 213.641 51.5369C213.641 53.0089 214.226 54.4206 215.267 55.4615C216.308 56.5024 217.72 57.0871 219.192 57.0871Z" fill="#073B36"/>
<path d="M85.0402 49.373L83.929 50.0146L85.174 52.171L86.2852 51.5295L85.0402 49.373Z" fill="#596F66"/>
<path d="M88.4716 55.3153L87.3604 55.9569L88.6054 58.1133L89.7166 57.4718L88.4716 55.3153Z" fill="#596F66"/>
<path d="M90.5549 50.8491L88.3984 52.0942L89.04 53.2054L91.1965 51.9604L90.5549 50.8491Z" fill="#596F66"/>
<path d="M84.6118 54.2797L82.4553 55.5247L83.0969 56.636L85.2534 55.3909L84.6118 54.2797Z" fill="#596F66"/>
<path d="M52.7191 237.508H51.0051V240.835H52.7191V237.508Z" fill="#596F66"/>
<path d="M52.7191 246.674H51.0051V250H52.7191V246.674Z" fill="#596F66"/>
<path d="M58.1093 242.898H54.783V244.612H58.1093V242.898Z" fill="#596F66"/>
<path d="M48.9426 242.898H45.6162V244.612H48.9426V242.898Z" fill="#596F66"/>
<path d="M3.39788 72.9371C5.27448 72.9371 6.79577 71.4158 6.79577 69.5393C6.79577 67.6627 5.27448 66.1414 3.39788 66.1414C1.52128 66.1414 0 67.6627 0 69.5393C0 71.4158 1.52128 72.9371 3.39788 72.9371Z" fill="#596F66"/>
<path d="M15.4752 123.039C16.9637 123.039 18.1704 121.832 18.1704 120.344C18.1704 118.855 16.9637 117.648 15.4752 117.648C13.9867 117.648 12.78 118.855 12.78 120.344C12.78 121.832 13.9867 123.039 15.4752 123.039Z" fill="#596F66"/>
<path d="M252.89 141.71C254.553 141.71 255.901 140.362 255.901 138.699C255.901 137.036 254.553 135.687 252.89 135.687C251.227 135.687 249.878 137.036 249.878 138.699C249.878 140.362 251.227 141.71 252.89 141.71Z" fill="#596F66"/>
<path d="M191.92 148.408L190.937 147.583L189.337 149.491L190.32 150.315L191.92 148.408Z" fill="#596F66"/>
<path d="M187.507 153.664L186.524 152.839L184.923 154.747L185.906 155.572L187.507 153.664Z" fill="#596F66"/>
<path d="M192.422 154.091L190.515 152.491L189.69 153.474L191.598 155.074L192.422 154.091Z" fill="#596F66"/>
<path d="M187.166 149.681L185.259 148.08L184.434 149.063L186.342 150.664L187.166 149.681Z" fill="#596F66"/>
<path d="M212.09 46.7065C213.578 46.7065 214.785 45.4998 214.785 44.0113C214.785 42.5228 213.578 41.3162 212.09 41.3162C210.601 41.3162 209.395 42.5228 209.395 44.0113C209.395 45.4998 210.601 46.7065 212.09 46.7065Z" fill="#596F66"/>
<path d="M125.576 27.6063C132.041 27.6063 137.282 22.3652 137.282 15.9C137.282 9.43487 132.041 4.19382 125.576 4.19382C119.11 4.19382 113.869 9.43487 113.869 15.9C113.869 22.3652 119.11 27.6063 125.576 27.6063Z" fill="#596F66"/>
<g opacity="0.696">
<path d="M125.411 32.1432C124.842 32.1432 124.273 32.0915 123.704 32.0397L123.859 30.3841C124.376 30.4358 124.894 30.4875 125.411 30.4875H125.566V32.1432H125.411ZM127.326 32.0397L127.119 30.3841C127.637 30.3323 128.154 30.2288 128.671 30.1254L129.034 31.7293L127.326 32.0397ZM121.943 31.781C121.377 31.6793 120.823 31.5218 120.288 31.3107L120.805 29.7585C121.323 29.9137 121.788 30.0689 122.31 30.1724L121.943 31.781ZM130.692 31.2636L130.123 29.7114C130.593 29.5562 131.106 29.3493 131.572 29.1423L132.296 30.6474C131.776 30.8497 131.207 31.0567 130.689 31.2636H130.692ZM118.686 30.6428C118.168 30.3841 117.651 30.1254 117.134 29.8149L117.961 28.418C118.432 28.6767 118.893 28.9354 119.358 29.1423L118.686 30.6428ZM133.797 29.7632L132.918 28.3662C133.369 28.1031 133.801 27.8092 134.211 27.4867L135.246 28.7801C134.778 29.0896 134.312 29.449 133.795 29.7632H133.797ZM115.681 28.8846C115.211 28.5224 114.801 28.1602 114.336 27.7463L115.474 26.5563C115.847 26.9116 116.245 27.2401 116.664 27.5393L115.681 28.8846ZM136.538 27.6428L135.4 26.4528C135.771 26.0985 136.117 25.7181 136.434 25.3146L137.676 26.3493C137.339 26.8158 136.958 27.2483 136.538 27.6409V27.6428ZM113.197 26.5046C112.811 26.0705 112.465 25.603 112.162 25.1076L113.507 24.1763L114.438 25.418L113.197 26.5046ZM138.763 24.9524L137.417 24.0211C137.725 23.6029 137.986 23.1517 138.193 22.6759L139.642 23.4519C139.38 23.9686 139.086 24.4687 138.763 24.9496V24.9524ZM111.231 23.6561C110.972 23.1387 110.713 22.6213 110.506 22.1039L112.058 21.483C112.265 21.9534 112.472 22.4143 112.731 22.88L111.231 23.6561ZM140.367 21.896L138.815 21.2751C139.026 20.7921 139.184 20.2874 139.286 19.77L140.89 20.1839C140.747 20.7637 140.572 21.3352 140.367 21.896ZM109.936 20.4473C109.781 19.8782 109.677 19.3091 109.574 18.7399L111.178 18.4812C111.268 18.9898 111.389 19.4925 111.54 19.9864L109.936 20.4473ZM141.247 18.5367L139.643 18.278C139.747 17.7606 139.747 17.2432 139.798 16.7259L141.454 16.7776C141.402 17.3938 141.351 17.9629 141.247 18.5367ZM109.367 17.0316V15.2715L111.023 15.375V16.9272L109.367 17.0316ZM139.747 15.168C139.695 14.6506 139.643 14.1333 139.54 13.6159L141.144 13.3572C141.247 13.9263 141.299 14.4954 141.351 15.0655L139.747 15.168ZM111.179 13.8228L109.575 13.5641C109.678 12.995 109.782 12.4259 109.937 11.8558L111.541 12.2697C111.371 12.7748 111.25 13.2948 111.179 13.8228ZM139.229 12.1154C139.088 11.6219 138.915 11.138 138.712 10.6667L140.217 10.0459C140.438 10.5866 140.628 11.1394 140.786 11.7015L139.229 12.1154ZM112.007 10.8229L110.454 10.202C110.664 9.67056 110.906 9.15222 111.179 8.64984L112.627 9.42594C112.39 9.8772 112.182 10.3439 112.007 10.8229ZM138.039 9.27071C137.78 8.80036 137.522 8.39115 137.211 7.9255L138.557 6.99419C138.867 7.46455 139.177 7.97724 139.488 8.49934L138.039 9.27071ZM113.455 8.0779L112.11 7.14659C112.421 6.67623 112.783 6.21528 113.145 5.74963L114.387 6.83615C114.02 7.20459 113.706 7.62256 113.455 8.0779ZM136.279 6.68375C135.917 6.26984 135.555 5.90767 135.193 5.5455L136.331 4.3555C136.745 4.76941 137.159 5.18332 137.521 5.59723L136.279 6.68375ZM115.422 5.70071L114.284 4.51071C114.698 4.0968 115.164 3.73462 115.578 3.37244L116.561 4.66592C116.198 4.9726 115.836 5.33571 115.422 5.69788V5.70071ZM134.002 4.56246C133.591 4.2399 133.159 3.94601 132.708 3.68288L133.536 2.28592C134.039 2.58357 134.522 2.91188 134.985 3.26898L134.002 4.56246ZM117.906 3.78636L117.026 2.3894C117.511 2.08277 118.013 1.80632 118.531 1.56159L119.256 3.06672C118.79 3.2741 118.339 3.51329 117.906 3.7826V3.78636ZM131.358 2.95854C130.888 2.73781 130.404 2.5477 129.909 2.3894L130.427 0.837233C130.996 1.04419 131.513 1.25115 132.031 1.45811L131.358 2.95854ZM120.697 2.48819L120.185 0.936004C120.722 0.731519 121.276 0.574141 121.841 0.465648L122.203 2.06956C121.69 2.16087 121.187 2.30137 120.701 2.48912L120.697 2.48819ZM128.411 2.01783C127.894 1.91435 127.376 1.81087 126.859 1.75913L127.014 0.103479C127.583 0.155218 128.152 0.258691 128.721 0.362169L128.411 2.01783ZM123.753 1.75913L123.546 0.103479C124.116 0.0517397 124.685 0 125.254 0V1.65565C124.789 1.71209 124.272 1.71209 123.754 1.76477L123.753 1.75913Z" fill="#F6F2ED"/>
</g>
<path d="M129.974 13.6705C129.974 14.6215 129.921 15.5763 129.985 16.5236C130.077 17.4275 129.973 18.3406 129.681 19.2009C129.389 20.0612 128.915 20.8485 128.291 21.5094C128.103 21.7154 127.948 21.9591 127.764 22.1745C127.435 22.5611 127.326 23.2554 126.818 23.3344C125.951 23.4195 125.079 23.4355 124.209 23.3824C123.947 23.3824 123.803 23.1585 123.696 22.9609C123.22 22.1662 122.663 21.4234 122.033 20.7446C121.235 19.7859 120.813 18.57 120.845 17.3233C120.822 14.7786 120.85 12.2331 120.828 9.68844C120.823 9.03653 121.067 8.73832 121.726 8.74114C124.168 8.74992 126.61 8.74992 129.053 8.74114C129.695 8.74114 129.994 8.99419 129.982 9.66115C129.958 10.9979 129.975 12.3337 129.974 13.6705ZM125.388 10.7354C124.515 10.7354 123.642 10.7524 122.769 10.7289C122.299 10.7166 122.125 10.9067 122.128 11.362C122.138 13.133 122.138 14.9044 122.128 16.676C122.128 17.105 122.316 17.28 122.725 17.28C124.497 17.2762 126.268 17.2762 128.04 17.28C128.488 17.28 128.686 17.1097 128.682 16.6403C128.667 14.895 128.667 13.1493 128.682 11.4034C128.682 10.9123 128.509 10.711 128.003 10.727C127.131 10.7543 126.257 10.7345 125.384 10.7345" fill="#F6F2ED"/>
<path d="M204.781 63.6192C211.246 63.6192 216.487 58.3782 216.487 51.913C216.487 45.4479 211.246 40.2068 204.781 40.2068C198.315 40.2068 193.074 45.4479 193.074 51.913C193.074 58.3782 198.315 63.6192 204.781 63.6192Z" fill="#596F66"/>
<g opacity="0.696">
<path d="M204.614 68.1561C204.045 68.1561 203.476 68.1044 202.907 68.0527L203.062 66.397C203.58 66.4487 204.097 66.5005 204.614 66.5005H204.77V68.1561H204.614ZM206.53 68.0527L206.323 66.397C206.84 66.3453 207.357 66.2418 207.875 66.1383L208.237 67.7422L206.53 68.0527ZM201.147 67.7939C200.581 67.6923 200.026 67.5347 199.491 67.3236L200.009 65.7714C200.526 65.9266 200.992 66.0819 201.514 66.1853L201.147 67.7939ZM209.896 67.2766L209.326 65.7244C209.797 65.5692 210.309 65.3622 210.775 65.1553L211.499 66.6604C210.979 66.8626 210.41 67.0696 209.893 67.2766H209.896ZM197.889 66.6557C197.372 66.397 196.854 66.1383 196.337 65.8279L197.165 64.4309C197.635 64.6896 198.096 64.9483 198.562 65.1553L197.889 66.6557ZM213.001 65.7761L212.121 64.3792C212.572 64.116 213.004 63.8221 213.415 63.4996L214.45 64.7931C213.981 65.1026 213.515 65.4619 212.998 65.7761H213.001ZM194.884 64.8975C194.414 64.5353 194.005 64.1731 193.539 63.7592L194.677 62.5692C195.05 62.9246 195.448 63.2531 195.867 63.5523L194.884 64.8975ZM215.741 63.6558L214.603 62.4658C214.974 62.1114 215.32 61.731 215.638 61.3275L216.879 62.3623C216.543 62.8287 216.162 63.2613 215.741 63.6539V63.6558ZM192.4 62.5175C192.014 62.0835 191.668 61.616 191.365 61.1205L192.71 60.1892L193.642 61.431L192.4 62.5175ZM217.966 60.9653L216.621 60.034C216.929 59.6159 217.189 59.1647 217.397 58.6888L218.846 59.4649C218.583 59.9815 218.289 60.4816 217.966 60.9625V60.9653ZM190.434 59.669C190.175 59.1516 189.916 58.6342 189.71 58.1168L191.262 57.496C191.469 57.9663 191.676 58.4273 191.934 58.8929L190.434 59.669ZM219.571 57.909L218.019 57.2881C218.23 56.805 218.388 56.3003 218.489 55.7829L220.093 56.1968C219.95 56.7766 219.776 57.3481 219.571 57.909ZM189.139 56.4602C188.984 55.8911 188.881 55.322 188.777 54.7529L190.381 54.4942C190.471 55.0028 190.592 55.5054 190.743 55.9993L189.139 56.4602ZM220.45 54.5497L218.846 54.291C218.95 53.7736 218.95 53.2562 219.002 52.7388L220.657 52.7905C220.606 53.4067 220.555 53.9758 220.45 54.5497ZM188.57 53.0445V51.2845L190.226 51.3879V52.9401L188.57 53.0445ZM218.95 51.181C218.898 50.6636 218.846 50.1462 218.743 49.6288L220.347 49.3701C220.45 49.9392 220.502 50.5084 220.554 51.0784L218.95 51.181ZM190.382 49.8358L188.778 49.5771C188.882 49.0079 188.985 48.4388 189.14 47.8687L190.744 48.2826C190.575 48.7877 190.453 49.3078 190.382 49.8358ZM218.433 48.1284C218.291 47.6349 218.119 47.151 217.915 46.6797L219.42 46.0588C219.641 46.5996 219.831 47.1523 219.989 47.7145L218.433 48.1284ZM191.21 46.8358L189.658 46.215C189.868 45.6835 190.11 45.1652 190.382 44.6628L191.831 45.4389C191.593 45.8901 191.386 46.3568 191.21 46.8358ZM217.243 45.2837C216.984 44.8133 216.725 44.4041 216.415 43.9384L217.76 43.0071C218.07 43.4775 218.381 43.9902 218.691 44.5123L217.243 45.2837ZM192.659 44.0908L191.313 43.1595C191.624 42.6892 191.986 42.2282 192.348 41.7626L193.59 42.8491C193.223 43.2175 192.91 43.6355 192.659 44.0908ZM215.482 42.6967C215.12 42.2828 214.758 41.9206 214.396 41.5584L215.534 40.3684C215.948 40.7824 216.362 41.1963 216.724 41.6102L215.482 42.6967ZM194.626 41.7137L193.487 40.5237C193.901 40.1097 194.367 39.7476 194.781 39.3854L195.764 40.6789C195.402 40.9855 195.04 41.3486 194.626 41.7108V41.7137ZM213.205 40.5754C212.795 40.2528 212.362 39.9589 211.911 39.6958L212.739 38.2989C213.242 38.5965 213.726 38.9248 214.188 39.2819L213.205 40.5754ZM197.109 39.7993L196.23 38.4023C196.714 38.0957 197.217 37.8193 197.735 37.5745L198.459 39.0797C197.993 39.287 197.542 39.5262 197.109 39.7955V39.7993ZM210.562 38.9715C210.091 38.7508 209.608 38.5606 209.113 38.4023L209.63 36.8502C210.199 37.0571 210.717 37.2641 211.234 37.471L210.562 38.9715ZM199.9 38.5011L199.389 36.9489C199.926 36.7445 200.48 36.5871 201.044 36.4786L201.406 38.0825C200.893 38.1738 200.39 38.3143 199.904 38.5021L199.9 38.5011ZM207.614 38.0308C207.097 37.9273 206.579 37.8238 206.062 37.7721L206.217 36.1164C206.786 36.1682 207.356 36.2716 207.925 36.3751L207.614 38.0308ZM202.957 37.7721L202.75 36.1164C203.319 36.0647 203.888 36.0129 204.457 36.0129V37.6686C203.992 37.725 203.475 37.725 202.958 37.7777L202.957 37.7721Z" fill="#F6F2ED"/>
</g>
<path d="M204.191 55.9234C203.594 56.9506 202.968 57.9647 202.411 59.0117C202.135 59.5272 201.913 59.6853 201.36 59.3174C200.48 58.7328 199.564 58.2043 198.617 57.7352C197.922 57.3909 197.789 57.1152 198.227 56.3834C200.243 53.0071 202.187 49.5867 204.147 46.1776C204.372 45.7872 204.698 45.4485 204.514 44.8869C204.224 44.0017 204.75 43.8042 205.493 43.9462C206.376 44.1071 207.281 44.1103 208.165 43.9556C208.526 43.8963 209.101 43.727 209.262 44.0958C209.384 44.2951 209.432 44.531 209.398 44.7621C209.363 44.9932 209.249 45.2049 209.074 45.3601C208.735 45.6574 209.472 47.726 209.925 48.0195C210.379 48.313 210.333 49.535 209.825 49.6121C209.24 49.7015 209.34 50.0241 209.339 50.3647C209.335 51.787 209.339 53.2094 209.339 54.6318C209.339 54.9949 209.285 55.3034 209.852 55.3768C210.292 55.4332 210.392 56.817 209.989 56.8669C209.164 56.9675 209.346 57.4906 209.342 57.9685C209.325 60.2262 209.327 60.2262 207.098 60.2196C206.264 60.2196 205.155 60.5018 204.669 60.0832C204.091 59.5846 204.531 58.4426 204.48 57.5809C204.448 57.0447 204.475 56.5047 204.475 55.9666L204.193 55.9243M206.685 44.8559C205.926 44.8719 205.499 45.4927 205.106 46.1729C203.413 49.1041 201.719 52.0335 200.026 54.961C198.876 56.9544 198.892 56.9365 200.925 58.1124C201.506 58.4482 201.788 58.4736 202.164 57.8048C204.052 54.4427 206.007 51.1182 207.932 47.7758C208.102 47.4963 208.238 47.198 208.339 46.8869C208.408 46.6397 208.417 46.3796 208.364 46.1284C208.312 45.8772 208.2 45.6422 208.038 45.443C207.876 45.2439 207.669 45.0864 207.434 44.9838C207.199 44.8811 206.942 44.8363 206.686 44.8531M207.925 49.9131C207.136 51.0542 206.034 52.0401 205.889 53.4502C205.766 54.6374 205.919 55.85 205.854 57.0466C205.808 57.8838 206.314 57.8067 206.818 57.7624C207.282 57.7211 207.955 58.0757 207.939 57.0898C207.898 54.6985 207.925 52.3054 207.925 49.9131Z" fill="#F6F2ED"/>
<path d="M28.4568 149.976C34.9221 149.976 40.1632 144.735 40.1632 138.269C40.1632 131.804 34.9221 126.563 28.4568 126.563C21.9916 126.563 16.7505 131.804 16.7505 138.269C16.7505 144.735 21.9916 149.976 28.4568 149.976Z" fill="#596F66"/>
<g opacity="0.696">
<path d="M28.2989 154.513C27.7297 154.513 27.1606 154.461 26.5915 154.409L26.7467 152.754C27.2641 152.805 27.7815 152.857 28.2989 152.857H28.4541V154.513H28.2989ZM30.2142 154.409L30.0072 152.754C30.5246 152.702 31.042 152.599 31.5594 152.495L31.9216 154.099L30.2142 154.409ZM24.8314 154.151C24.2653 154.049 23.7107 153.891 23.1757 153.68L23.6931 152.128C24.2105 152.283 24.6762 152.439 25.1983 152.542L24.8314 154.151ZM33.5801 153.633L33.011 152.081C33.4813 151.926 33.994 151.719 34.4597 151.512L35.184 153.017C34.6638 153.219 34.0947 153.426 33.5773 153.633H33.5801ZM21.5737 153.012C21.0563 152.754 20.5389 152.495 20.0215 152.185L20.8493 150.788C21.3197 151.046 21.7806 151.305 22.2463 151.512L21.5737 153.012ZM36.6854 152.133L35.8058 150.736C36.2567 150.473 36.6889 150.179 37.0993 149.856L38.1341 151.15C37.6656 151.459 37.2 151.819 36.6826 152.133H36.6854ZM18.569 151.254C18.0986 150.892 17.6894 150.53 17.2238 150.116L18.362 148.926C18.735 149.281 19.1327 149.61 19.5521 149.909L18.569 151.254ZM39.4257 150.013L38.2875 148.823C38.659 148.468 39.0048 148.088 39.3222 147.684L40.564 148.719C40.2274 149.185 39.8462 149.618 39.4257 150.011V150.013ZM16.0846 148.874C15.6989 148.44 15.3526 147.973 15.0498 147.477L16.395 146.546L17.3263 147.788L16.0846 148.874ZM41.6505 147.322L40.3053 146.391C40.6132 145.973 40.8735 145.521 41.0814 145.046L42.5301 145.822C42.2676 146.338 41.9739 146.838 41.6505 147.319V147.322ZM14.1185 146.026C13.8598 145.508 13.6011 144.991 13.3941 144.474L14.9463 143.853C15.1532 144.323 15.3602 144.784 15.6189 145.25L14.1185 146.026ZM43.2554 144.266L41.7032 143.645C41.9144 143.162 42.0721 142.657 42.1736 142.14L43.7775 142.554C43.6347 143.133 43.4604 143.705 43.2554 144.266ZM12.824 142.817C12.6688 142.248 12.5653 141.679 12.4618 141.11L14.0658 140.851C14.1559 141.36 14.2768 141.862 14.4279 142.356L12.824 142.817ZM44.135 140.906L42.531 140.648C42.6345 140.13 42.6345 139.613 42.6863 139.096L44.3419 139.147C44.2902 139.763 44.2394 140.333 44.135 140.906ZM12.2549 139.401V137.641L13.9106 137.745V139.297L12.2549 139.401ZM42.6345 137.538C42.5828 137.02 42.531 136.503 42.4276 135.986L44.0315 135.727C44.135 136.296 44.1867 136.865 44.2385 137.435L42.6345 137.538ZM14.0667 136.193L12.4628 135.934C12.5663 135.365 12.6697 134.796 12.825 134.225L14.4289 134.639C14.2593 135.144 14.138 135.665 14.0667 136.193ZM42.1171 134.485C41.976 133.992 41.8031 133.508 41.5997 133.036L43.1049 132.416C43.3255 132.956 43.5155 133.509 43.674 134.071L42.1171 134.485ZM14.8945 133.193L13.3424 132.572C13.5524 132.04 13.7943 131.522 14.0667 131.02L15.5154 131.796C15.2775 132.247 15.0701 132.714 14.8945 133.193ZM40.9271 131.64C40.6684 131.17 40.4097 130.761 40.0993 130.295L41.4445 129.364C41.755 129.834 42.0654 130.347 42.3758 130.869L40.9271 131.64ZM16.3433 130.448L14.998 129.516C15.3085 129.046 15.6706 128.585 16.0328 128.119L17.2746 129.206C16.9077 129.574 16.5942 129.992 16.3433 130.448ZM39.167 129.053C38.8049 128.64 38.4427 128.277 38.0805 127.915L39.2188 126.725C39.6327 127.139 40.0466 127.553 40.4088 127.967L39.167 129.053ZM18.3103 128.07L17.172 126.88C17.5859 126.466 18.0516 126.104 18.4655 125.742L19.4486 127.036C19.0864 127.342 18.7242 127.705 18.3103 128.068V128.07ZM36.8895 126.932C36.4791 126.61 36.0469 126.316 35.5961 126.053L36.4239 124.656C36.9265 124.953 37.4103 125.282 37.8726 125.639L36.8895 126.932ZM20.7938 126.156L19.9142 124.759C20.3985 124.452 20.9011 124.176 21.4194 123.931L22.1437 125.436C21.6779 125.644 21.2268 125.883 20.7938 126.152V126.156ZM34.2461 125.328C33.776 125.108 33.2921 124.917 32.7974 124.759L33.3148 123.207C33.8839 123.414 34.4013 123.621 34.9187 123.828L34.2461 125.328ZM23.5849 124.858L23.0732 123.306C23.6104 123.101 24.1644 122.944 24.7288 122.835L25.091 124.439C24.5779 124.531 24.0748 124.671 23.5887 124.859L23.5849 124.858ZM31.2988 124.388C30.7814 124.284 30.264 124.181 29.7466 124.129L29.9019 122.473C30.471 122.525 31.0401 122.628 31.6093 122.732L31.2988 124.388ZM26.6413 124.129L26.4344 122.473C27.0035 122.421 27.5726 122.37 28.1418 122.37V124.025C27.6771 124.082 27.1597 124.082 26.6423 124.134L26.6413 124.129Z" fill="#F6F2ED"/>
</g>
<path d="M35.8659 143.457H20.7025C20.6027 143.457 20.507 143.417 20.4364 143.346C20.3658 143.276 20.3262 143.18 20.3262 143.08V133.8C20.3262 133.7 20.3658 133.605 20.4364 133.534C20.507 133.464 20.6027 133.424 20.7025 133.424H35.8659C35.9657 133.424 36.0615 133.464 36.132 133.534C36.2026 133.605 36.2422 133.7 36.2422 133.8V143.087C36.2405 143.186 36.2001 143.28 36.1297 143.349C36.0593 143.418 35.9646 143.457 35.8659 143.457Z" fill="#F6F2ED"/>
<path d="M20.3342 135.559H36.2409" stroke="#2F4F4F" stroke-width="2"/>
<path d="M168.118 220.574C176.824 220.574 183.881 213.517 183.881 204.811C183.881 196.106 176.824 189.049 168.118 189.049C159.413 189.049 152.355 196.106 152.355 204.811C152.355 213.517 159.413 220.574 168.118 220.574Z" fill="#596F66"/>
<g opacity="0.696">
<path d="M167.91 226.681C167.143 226.681 166.377 226.612 165.611 226.542L165.82 224.312C166.517 224.382 167.213 224.452 167.91 224.452H168.119V226.681H167.91ZM170.489 226.542L170.206 224.312C170.903 224.243 171.6 224.104 172.297 223.964L172.785 226.128L170.489 226.542ZM163.245 226.194C162.483 226.059 161.736 225.849 161.016 225.566L161.713 223.476C162.41 223.685 163.036 223.894 163.733 224.034L163.245 226.194ZM175.022 225.497L174.255 223.407C174.883 223.198 175.579 222.918 176.206 222.64L177.182 224.661C176.481 224.939 175.714 225.218 175.018 225.497H175.022ZM158.856 224.661C158.159 224.312 157.462 223.963 156.765 223.546L157.88 221.664C158.508 222.012 159.134 222.361 159.762 222.64L158.856 224.661ZM179.203 223.476L178.019 221.595C178.626 221.24 179.208 220.845 179.761 220.41L181.155 222.153C180.522 222.57 179.892 223.058 179.199 223.476H179.203ZM154.814 222.292C154.187 221.804 153.63 221.316 153.003 220.758L154.536 219.159C155.037 219.638 155.572 220.08 156.135 220.483L154.814 222.292ZM182.897 220.619L181.363 219.02C181.864 218.543 182.329 218.03 182.757 217.487L184.429 218.88C183.975 219.508 183.46 220.091 182.892 220.619H182.897ZM151.47 219.086C150.951 218.501 150.485 217.872 150.077 217.204L151.889 215.95L153.143 217.623L151.47 219.086ZM185.888 216.992L184.076 215.738C184.491 215.175 184.842 214.567 185.122 213.926L187.073 214.971C186.719 215.668 186.324 216.343 185.888 216.992ZM148.817 215.253C148.469 214.556 148.12 213.86 147.842 213.163L149.932 212.327C150.214 212.954 150.49 213.581 150.838 214.208L148.817 215.253ZM188.045 212.884L185.955 212.047C186.237 211.399 186.447 210.721 186.583 210.027L188.746 210.585C188.555 211.363 188.322 212.131 188.048 212.884H188.045ZM147.075 210.933C146.866 210.166 146.727 209.399 146.587 208.634L148.75 208.286C148.872 208.968 149.035 209.643 149.239 210.306L147.075 210.933ZM189.233 208.354L187.07 208.006C187.209 207.309 187.209 206.613 187.279 205.916L189.508 205.985C189.442 206.822 189.373 207.585 189.233 208.355V208.354ZM146.308 206.334V203.964L148.538 204.103V206.193L146.308 206.334ZM187.213 203.822C187.143 203.125 187.074 202.429 186.931 201.732L189.094 201.384C189.233 202.15 189.303 202.917 189.376 203.683L187.213 203.822ZM148.748 202.014L146.584 201.666C146.723 200.899 146.866 200.132 147.072 199.367L149.236 199.924C149.007 200.604 148.844 201.304 148.748 202.014ZM186.516 199.715C186.326 199.05 186.093 198.398 185.819 197.764L187.839 196.927C188.137 197.656 188.392 198.4 188.606 199.157L186.516 199.715ZM149.862 197.972L147.772 197.135C148.055 196.42 148.381 195.722 148.748 195.045L150.699 196.09C150.378 196.698 150.099 197.326 149.862 197.972ZM184.913 195.881C184.565 195.254 184.216 194.697 183.798 194.069L185.61 192.816C186.027 193.443 186.446 194.139 186.864 194.836L184.913 195.881ZM151.813 194.282L150.002 193.028C150.419 192.401 150.908 191.774 151.395 191.147L153.067 192.61C152.574 193.106 152.152 193.667 151.813 194.279V194.282ZM182.544 192.401C182.056 191.843 181.568 191.356 181.08 190.867L182.614 189.268C183.171 189.826 183.728 190.383 184.213 190.941L182.544 192.401ZM154.462 191.077L152.928 189.478C153.486 188.92 154.113 188.433 154.67 187.945L155.994 189.687C155.507 190.098 155.018 190.586 154.462 191.073V191.077ZM179.478 189.544C178.925 189.109 178.343 188.714 177.736 188.359L178.851 186.478C179.528 186.879 180.179 187.321 180.802 187.802L179.478 189.544ZM157.807 188.499L156.622 186.617C157.272 186.204 157.947 185.832 158.643 185.502L159.619 187.523C158.993 187.805 158.387 188.13 157.806 188.495L157.807 188.499ZM175.924 187.384C175.291 187.087 174.639 186.83 173.973 186.617L174.67 184.527C175.437 184.809 176.134 185.085 176.834 185.363L175.924 187.384ZM161.57 186.756L160.873 184.666C161.596 184.393 162.342 184.183 163.102 184.039L163.59 186.202C162.9 186.321 162.223 186.505 161.569 186.754L161.57 186.756ZM171.952 186.129C171.255 185.99 170.559 185.847 169.862 185.781L170.071 183.551C170.838 183.621 171.604 183.76 172.37 183.899L171.952 186.129ZM165.681 185.781L165.398 183.551C166.165 183.482 166.932 183.412 167.698 183.412V185.642C167.074 185.708 166.377 185.708 165.681 185.778V185.781Z" fill="#F6F2ED"/>
</g>
<path d="M174.119 205.101C174.119 208.044 174.119 210.988 174.119 213.932C174.119 215.288 173.742 215.654 172.397 215.656C169.384 215.659 166.37 215.659 163.357 215.656C162.089 215.656 161.703 215.268 161.699 213.972C161.684 208.084 161.675 202.198 161.671 196.313C161.671 194.771 162.026 194.432 163.575 194.432C166.519 194.432 169.464 194.432 172.407 194.432C173.739 194.432 174.134 194.808 174.14 196.164C174.155 199.142 174.14 202.12 174.14 205.101H174.115M173.493 208.675C173.493 206.841 173.466 205.006 173.507 203.174C173.521 202.53 173.325 202.351 172.688 202.356C169.504 202.387 166.32 202.392 163.137 202.356C162.409 202.347 162.296 202.625 162.301 203.261C162.328 206.825 162.328 210.389 162.301 213.953C162.295 214.749 162.55 215.059 163.378 215.049C166.389 215.013 169.399 215.013 172.409 215.049C173.215 215.058 173.524 214.79 173.505 213.971C173.464 212.208 173.493 210.443 173.492 208.678M166.51 200.641H167.755C169.854 200.641 169.84 200.641 169.691 198.561C169.66 198.126 169.548 197.955 169.091 197.961C167.431 197.981 165.769 197.977 164.105 197.961C163.691 197.961 163.515 198.034 163.484 198.518C163.352 200.641 163.331 200.641 165.471 200.641H166.506" fill="#F6F2ED"/>
<path d="M164.351 207.713C163.851 207.597 163.497 207.356 163.513 206.805C163.503 206.682 163.521 206.559 163.566 206.444C163.611 206.329 163.682 206.227 163.772 206.143C163.863 206.06 163.971 205.998 164.089 205.962C164.207 205.927 164.332 205.919 164.453 205.939C164.568 205.943 164.68 205.971 164.783 206.021C164.885 206.072 164.976 206.144 165.049 206.232C165.122 206.32 165.176 206.423 165.206 206.533C165.236 206.643 165.243 206.759 165.226 206.872C165.191 207.421 164.829 207.636 164.351 207.713Z" fill="#F6F2ED"/>
<path d="M172.289 207.141C172.278 207.388 171.937 207.685 171.442 207.687C171.328 207.696 171.214 207.681 171.107 207.641C171 207.602 170.902 207.54 170.821 207.46C170.74 207.379 170.677 207.283 170.637 207.176C170.597 207.069 170.58 206.955 170.588 206.841C170.573 206.718 170.586 206.594 170.626 206.478C170.667 206.361 170.733 206.255 170.82 206.168C170.908 206.082 171.014 206.016 171.131 205.976C171.247 205.936 171.372 205.924 171.494 205.94C171.979 205.965 172.315 206.287 172.289 207.143" fill="#F6F2ED"/>
<path d="M171.486 210.34C170.994 210.284 170.616 210.082 170.593 209.528C170.573 209.406 170.58 209.282 170.615 209.164C170.651 209.047 170.712 208.939 170.796 208.849C170.88 208.759 170.983 208.689 171.098 208.646C171.213 208.602 171.337 208.586 171.459 208.598C171.572 208.589 171.687 208.604 171.794 208.643C171.901 208.683 171.998 208.745 172.078 208.825C172.159 208.906 172.221 209.003 172.26 209.11C172.3 209.217 172.315 209.331 172.306 209.445C172.323 209.996 171.996 210.248 171.491 210.338" fill="#F6F2ED"/>
<path d="M165.233 204.168C165.241 204.282 165.225 204.395 165.186 204.502C165.146 204.609 165.085 204.706 165.006 204.788C164.926 204.869 164.831 204.933 164.725 204.975C164.619 205.017 164.506 205.036 164.392 205.031C164.279 205.045 164.164 205.034 164.056 204.998C163.947 204.963 163.848 204.905 163.764 204.827C163.681 204.749 163.615 204.654 163.572 204.548C163.53 204.442 163.511 204.328 163.516 204.214C163.497 204.093 163.505 203.968 163.542 203.851C163.579 203.733 163.642 203.626 163.728 203.537C163.813 203.449 163.918 203.381 164.035 203.34C164.151 203.299 164.275 203.286 164.397 203.302C164.511 203.297 164.624 203.316 164.73 203.358C164.836 203.401 164.931 203.465 165.01 203.547C165.09 203.629 165.15 203.726 165.189 203.833C165.228 203.941 165.243 204.055 165.234 204.168" fill="#F6F2ED"/>
<path d="M168.767 209.514C168.77 209.627 168.748 209.739 168.704 209.842C168.66 209.946 168.595 210.039 168.513 210.116C168.43 210.192 168.333 210.251 168.226 210.287C168.12 210.323 168.007 210.337 167.894 210.326C167.781 210.337 167.666 210.322 167.559 210.283C167.451 210.244 167.354 210.182 167.273 210.101C167.192 210.021 167.13 209.923 167.091 209.816C167.052 209.708 167.037 209.593 167.048 209.48C167.033 209.357 167.047 209.233 167.088 209.117C167.129 209.001 167.197 208.896 167.286 208.811C167.375 208.726 167.483 208.662 167.6 208.626C167.718 208.589 167.843 208.581 167.964 208.601C168.497 208.629 168.751 208.977 168.764 209.517" fill="#F6F2ED"/>
<path d="M164.295 208.575C164.859 208.625 165.197 208.87 165.225 209.409C165.244 209.531 165.235 209.655 165.198 209.772C165.161 209.889 165.097 209.997 165.011 210.085C164.926 210.173 164.821 210.241 164.705 210.282C164.589 210.322 164.465 210.336 164.343 210.321C164.229 210.329 164.115 210.312 164.009 210.272C163.902 210.231 163.806 210.168 163.727 210.086C163.648 210.004 163.588 209.905 163.551 209.797C163.515 209.69 163.502 209.575 163.515 209.462C163.504 209.242 163.579 209.026 163.724 208.861C163.87 208.695 164.074 208.593 164.294 208.576" fill="#F6F2ED"/>
<path d="M167.944 205.046C167.832 205.053 167.719 205.038 167.613 205C167.507 204.963 167.409 204.905 167.326 204.829C167.243 204.753 167.175 204.661 167.128 204.559C167.081 204.457 167.055 204.346 167.052 204.233C167.03 204.121 167.034 204.006 167.062 203.896C167.091 203.785 167.143 203.683 167.215 203.595C167.288 203.507 167.379 203.436 167.482 203.387C167.585 203.338 167.697 203.313 167.811 203.312C167.931 203.287 168.055 203.289 168.174 203.32C168.293 203.351 168.403 203.409 168.496 203.49C168.588 203.571 168.66 203.673 168.707 203.786C168.753 203.9 168.772 204.023 168.762 204.146C168.77 204.259 168.755 204.373 168.718 204.481C168.681 204.588 168.622 204.687 168.546 204.771C168.469 204.855 168.376 204.923 168.273 204.97C168.169 205.018 168.058 205.043 167.944 205.046Z" fill="#F6F2ED"/>
<path d="M171.444 203.286C171.556 203.282 171.669 203.301 171.774 203.342C171.879 203.383 171.974 203.445 172.055 203.525C172.135 203.604 172.198 203.699 172.24 203.803C172.283 203.908 172.303 204.02 172.301 204.133C172.307 204.248 172.29 204.364 172.251 204.473C172.212 204.582 172.151 204.682 172.071 204.767C171.992 204.852 171.897 204.92 171.791 204.966C171.685 205.013 171.57 205.038 171.454 205.04C171.339 205.041 171.224 205.019 171.116 204.975C171.009 204.93 170.912 204.865 170.831 204.782C170.75 204.699 170.687 204.601 170.645 204.493C170.602 204.385 170.583 204.269 170.587 204.153C170.587 203.613 170.919 203.352 171.444 203.29" fill="#F6F2ED"/>
<path d="M167.902 205.916C168.391 206.01 168.749 206.235 168.763 206.782C168.768 206.897 168.749 207.011 168.709 207.119C168.668 207.227 168.606 207.325 168.527 207.409C168.447 207.492 168.352 207.558 168.246 207.604C168.14 207.65 168.027 207.674 167.912 207.675C167.796 207.676 167.682 207.653 167.576 207.609C167.47 207.565 167.373 207.5 167.293 207.418C167.212 207.336 167.149 207.239 167.106 207.131C167.064 207.024 167.044 206.91 167.046 206.795C167.059 206.248 167.409 206.012 167.902 205.916Z" fill="#F6F2ED"/>
<path d="M167.901 211.258C168.016 211.256 168.13 211.278 168.237 211.321C168.344 211.364 168.442 211.429 168.523 211.51C168.604 211.592 168.668 211.689 168.711 211.797C168.754 211.904 168.775 212.018 168.772 212.134C168.77 212.249 168.744 212.363 168.696 212.468C168.649 212.573 168.58 212.667 168.495 212.745C168.41 212.823 168.31 212.883 168.201 212.922C168.093 212.96 167.977 212.976 167.862 212.969C167.749 212.976 167.635 212.957 167.53 212.915C167.424 212.873 167.329 212.808 167.252 212.725C167.175 212.641 167.117 212.542 167.082 212.434C167.048 212.326 167.038 212.211 167.053 212.099C167.045 211.986 167.062 211.873 167.102 211.767C167.142 211.661 167.204 211.565 167.285 211.485C167.365 211.406 167.461 211.344 167.567 211.305C167.674 211.266 167.788 211.25 167.901 211.258Z" fill="#F6F2ED"/>
<path d="M172.31 212.107C172.25 212.671 171.972 212.975 171.436 212.967C171.314 212.98 171.191 212.964 171.076 212.92C170.962 212.876 170.859 212.806 170.777 212.715C170.694 212.624 170.634 212.516 170.602 212.397C170.569 212.279 170.565 212.155 170.59 212.035C170.588 211.921 170.612 211.809 170.659 211.706C170.706 211.603 170.776 211.512 170.862 211.439C170.949 211.366 171.051 211.313 171.16 211.283C171.27 211.254 171.384 211.25 171.496 211.27C171.605 211.268 171.713 211.289 171.814 211.331C171.914 211.373 172.005 211.435 172.081 211.514C172.157 211.592 172.216 211.685 172.255 211.787C172.293 211.889 172.311 211.998 172.306 212.107" fill="#F6F2ED"/>
<path d="M164.381 211.26C164.492 211.252 164.605 211.267 164.71 211.306C164.815 211.344 164.91 211.405 164.99 211.483C165.07 211.562 165.132 211.656 165.172 211.761C165.212 211.865 165.229 211.977 165.223 212.089C165.239 212.201 165.23 212.315 165.197 212.424C165.163 212.532 165.107 212.631 165.031 212.715C164.955 212.799 164.861 212.865 164.756 212.908C164.652 212.951 164.539 212.971 164.426 212.966C164.305 212.987 164.182 212.979 164.065 212.943C163.948 212.907 163.841 212.844 163.753 212.759C163.665 212.674 163.598 212.57 163.558 212.455C163.518 212.339 163.505 212.216 163.521 212.095C163.527 211.558 163.844 211.293 164.381 211.26Z" fill="#F6F2ED"/>
<path d="M47.5383 70.9833C57.0766 70.9833 64.809 63.251 64.809 53.7128C64.809 44.1745 57.0766 36.4423 47.5383 36.4423C37.9999 36.4423 30.2676 44.1745 30.2676 53.7128C30.2676 63.251 37.9999 70.9833 47.5383 70.9833Z" fill="#596F66"/>
<g opacity="0.696">
<path d="M47.3042 77.6739C46.4642 77.6739 45.6241 77.5977 44.785 77.5215L45.0136 75.0756C45.7775 75.1518 46.5404 75.228 47.3042 75.228H47.5291V77.6739H47.3042ZM50.1264 77.5215L49.8207 75.0756C50.5845 74.9994 51.3475 74.847 52.1113 74.6937L52.6457 77.0605L50.1264 77.5215ZM42.1858 77.1396C41.3498 76.9921 40.5305 76.7621 39.7399 76.4528L40.5038 74.1622C41.2676 74.3908 41.9544 74.6203 42.7182 74.7727L42.1858 77.1396ZM55.0897 76.3757L54.2496 74.0851C54.9363 73.8555 55.7002 73.5507 56.3879 73.245L57.4565 75.4594C56.6955 75.768 55.8554 76.0747 55.0915 76.3785L55.0897 76.3757ZM37.3759 75.4594C36.612 75.0775 35.8491 74.6956 35.0852 74.2365L36.3082 72.1754C36.9949 72.5573 37.6826 72.9393 38.3693 73.2441L37.3759 75.4594ZM59.671 74.1613L58.3728 72.1002C59.0381 71.7118 59.6758 71.278 60.2815 70.802L61.8083 72.7107C61.1234 73.1716 60.4367 73.706 59.6728 74.1641L59.671 74.1613ZM32.9479 72.8659C32.2612 72.3316 31.6497 71.7972 30.963 71.1858L32.6431 69.4295C33.1936 69.9538 33.7805 70.4386 34.3994 70.8801L32.9479 72.8659ZM63.7179 71.0334L62.0378 69.2771C62.586 68.754 63.0962 68.1926 63.5646 67.597L65.3971 69.1237C64.9013 69.8132 64.3396 70.4528 63.7198 71.0334H63.7179ZM29.2876 69.3533C28.7185 68.7129 28.2075 68.0232 27.7608 67.2922L29.7429 65.915L31.1173 67.7475L29.2876 69.3533ZM67.002 67.0636L65.0171 65.6892C65.4713 65.0722 65.8553 64.4064 66.1619 63.7043L68.3002 64.8492C67.9129 65.613 67.4794 66.3525 67.002 67.0636ZM26.3836 65.1549C26.0016 64.391 25.6197 63.6281 25.3149 62.8643L27.6055 61.948C27.9113 62.6347 28.2161 63.3224 28.598 64.0091L26.3836 65.1549ZM69.3745 62.5585L67.0838 61.6423C67.3926 60.9313 67.6228 60.1887 67.7706 59.4278L70.1374 60.0384C69.9274 60.8917 69.6711 61.733 69.3698 62.5585H69.3745ZM24.4748 60.4212C24.2462 59.5812 24.0929 58.7411 23.9405 57.902L26.3074 57.5201C26.4405 58.2683 26.6189 59.0078 26.8417 59.7345L24.4748 60.4212ZM70.6642 57.5991L68.2974 57.2172C68.4498 56.4533 68.4498 55.6904 68.526 54.9265L70.9718 55.0027C70.8966 55.9161 70.8204 56.7562 70.6708 57.5963L70.6642 57.5991ZM23.6348 55.379V52.7826L26.0806 52.935V55.2257L23.6348 55.379ZM68.4535 52.6303C68.3773 51.8664 68.3011 51.1035 68.1478 50.3396L70.5147 49.9577C70.6671 50.7977 70.7433 51.6378 70.8204 52.4769L68.4535 52.6303ZM26.3092 50.6453L23.9424 50.2634C24.0948 49.4234 24.2481 48.5833 24.4767 47.7442L26.8436 48.3547C26.5926 49.1005 26.4131 49.8684 26.3074 50.6482L26.3092 50.6453ZM67.6925 48.1261C67.4841 47.3977 67.229 46.6835 66.9286 45.9879L69.1431 45.0716C69.4688 45.8705 69.7493 46.687 69.9832 47.5175L67.6925 48.1261ZM27.5284 46.2193L25.234 45.303C25.5439 44.5187 25.9008 43.7538 26.3027 43.0124L28.4409 44.1573C28.091 44.8235 27.7862 45.5123 27.5284 46.2193ZM65.9333 43.9287C65.5514 43.2419 65.1695 42.6305 64.7104 41.9438L66.6953 40.5694C67.1535 41.2561 67.6116 42.02 68.0697 42.7838L65.9333 43.9287ZM29.6657 42.1724L27.6799 40.798C28.138 40.1113 28.6723 39.4236 29.2067 38.7369L31.0392 40.3361C30.4981 40.8814 30.0361 41.4998 29.6667 42.1733L29.6657 42.1724ZM63.337 40.1113C62.8026 39.5007 62.2683 38.9664 61.7377 38.4311L63.4179 36.6748C64.0284 37.2854 64.6408 37.8978 65.1742 38.5073L63.337 40.1113ZM32.5716 38.6607L30.8915 36.9044C31.502 36.2938 32.1897 35.7595 32.8002 35.2243L34.2508 37.133C33.7137 37.592 33.1784 38.1264 32.5716 38.6607ZM59.9823 36.9806C59.3767 36.5045 58.7389 36.0707 58.0736 35.6824L59.2966 33.6213C60.0384 34.0605 60.7525 34.5449 61.4348 35.0719L59.9823 36.9806ZM36.2367 35.8357L34.9385 33.7746C35.6508 33.3219 36.3904 32.9135 37.1529 32.5517L38.2159 34.7671C37.5312 35.0774 36.8686 35.4345 36.2329 35.8357H36.2367ZM56.0859 34.6128C55.392 34.287 54.6777 34.0064 53.9476 33.7727L54.7115 31.4821C55.5515 31.7878 56.3107 32.0926 57.0783 32.3984L56.0859 34.6128ZM40.3561 33.9308L39.5922 31.6401C40.386 31.3407 41.2044 31.111 42.0381 30.9534L42.5724 33.3203C41.8158 33.4522 41.0736 33.6567 40.3561 33.9308ZM51.7322 33.2441C50.9684 33.0917 50.2054 32.9383 49.4416 32.8621L49.6702 30.4163C50.5102 30.4925 51.3503 30.6449 52.1894 30.7982L51.7322 33.2441ZM44.865 32.8621L44.5592 30.4163C45.3993 30.3401 46.2394 30.2639 47.0785 30.2639V32.7097C46.388 32.7812 45.6241 32.7812 44.8603 32.8584L44.865 32.8621Z" fill="#F6F2ED"/>
</g>
<path d="M43.1624 41.3875C43.1746 41.2223 43.2334 41.0639 43.332 40.9307C43.4305 40.7975 43.5648 40.695 43.7193 40.635C44.1977 40.4053 44.7241 40.2933 45.2545 40.3085H49.3598C49.8907 40.2948 50.4171 40.4083 50.8951 40.6397C51.0495 40.6997 51.1838 40.8022 51.2824 40.9354C51.381 41.0686 51.4398 41.227 51.452 41.3922V64.0145C51.4528 64.2336 51.3977 64.4492 51.2921 64.6411C51.1864 64.833 51.0336 64.9949 50.8481 65.1114C50.4037 65.3932 49.8859 65.5372 49.3598 65.5253H45.2545C44.7285 65.5372 44.2107 65.3932 43.7663 65.1114C43.5808 64.9949 43.428 64.833 43.3223 64.6411C43.2166 64.4492 43.1616 64.2336 43.1624 64.0145V41.3875Z" fill="#2F4F4F" stroke="#F6F2ED"/>
<path d="M49.7044 56.8886H44.9057C44.5161 56.8886 44.2002 57.2045 44.2002 57.5941V62.6599C44.2002 63.0495 44.5161 63.3654 44.9057 63.3654H49.7044C50.094 63.3654 50.4099 63.0495 50.4099 62.6599V57.5941C50.4099 57.2045 50.094 56.8886 49.7044 56.8886Z" fill="#F6F2ED"/>
<path d="M49.1004 53.7569C49.1004 52.8285 48.3478 52.0759 47.4193 52.0759C46.4909 52.0759 45.7383 52.8285 45.7383 53.7569C45.7383 54.6853 46.4909 55.438 47.4193 55.438C48.3478 55.438 49.1004 54.6853 49.1004 53.7569Z" fill="#F6F2ED"/>
<path d="M48.9333 43.1099H45.6813C45.0318 43.1099 44.5054 43.6364 44.5054 44.2858V49.7786C44.5054 50.428 45.0318 50.9545 45.6813 50.9545H48.9333C49.5828 50.9545 50.1092 50.428 50.1092 49.7786V44.2858C50.1092 43.6364 49.5828 43.1099 48.9333 43.1099Z" fill="#F6F2ED"/>
<path d="M47.134 41.6905H47.5658" stroke="#F6F2ED" stroke-linecap="round" stroke-linejoin="round"/>
<path d="M225.653 150.248C233.071 150.248 239.085 144.234 239.085 136.815C239.085 129.397 233.071 123.383 225.653 123.383C218.234 123.383 212.22 129.397 212.22 136.815C212.22 144.234 218.234 150.248 225.653 150.248Z" fill="#596F66"/>
<g opacity="0.696">
<path d="M225.473 155.452C224.82 155.452 224.166 155.393 223.513 155.334L223.691 153.434C224.285 153.493 224.879 153.552 225.473 153.552H225.65V155.452H225.473ZM227.67 155.334L227.432 153.434C228.026 153.374 228.62 153.256 229.214 153.136L229.63 154.977L227.67 155.334ZM221.494 155.037C220.845 154.922 220.208 154.743 219.594 154.502L220.188 152.721C220.781 152.898 221.317 153.077 221.91 153.196L221.494 155.037ZM231.53 154.443L230.877 152.661C231.411 152.484 232.006 152.246 232.54 152.008L233.372 153.731C232.776 153.969 232.124 154.205 231.53 154.443ZM217.753 153.73C217.16 153.433 216.565 153.136 215.971 152.78L216.922 151.181C217.456 151.478 217.99 151.774 218.521 152.012L217.753 153.73ZM235.097 152.724L234.088 151.125C234.604 150.821 235.098 150.481 235.568 150.109L236.756 151.594C236.221 151.95 235.687 152.366 235.097 152.724ZM214.307 151.712C213.773 151.296 213.298 150.881 212.764 150.405L214.07 149.04C214.498 149.448 214.955 149.825 215.436 150.168L214.307 151.712ZM238.239 150.287L236.933 148.921C237.359 148.514 237.756 148.078 238.121 147.614L239.546 148.803C239.16 149.339 238.722 149.836 238.239 150.287ZM211.457 148.98C211.014 148.484 210.617 147.948 210.269 147.381L211.812 146.312L212.881 147.738L211.457 148.98ZM240.792 147.199L239.249 146.13C239.602 145.65 239.901 145.132 240.139 144.586L241.803 145.477C241.502 146.071 241.164 146.646 240.793 147.2L240.792 147.199ZM209.202 145.714C208.905 145.121 208.608 144.526 208.37 143.932L210.152 143.219C210.39 143.754 210.627 144.288 210.924 144.819L209.202 145.714ZM242.635 143.695L240.853 142.983C241.094 142.43 241.273 141.853 241.388 141.261L243.229 141.736C243.066 142.399 242.868 143.052 242.634 143.694L242.635 143.695ZM207.717 142.033C207.539 141.38 207.419 140.727 207.301 140.074L209.142 139.776C209.245 140.358 209.384 140.934 209.558 141.499L207.717 142.033ZM243.644 139.837L241.803 139.539C241.921 138.946 241.921 138.351 241.98 137.758L243.881 137.817C243.822 138.529 243.763 139.178 243.644 139.837ZM207.064 138.113V136.094L208.964 136.213V137.995L207.064 138.113ZM241.922 135.98C241.863 135.386 241.804 134.792 241.685 134.198L243.526 133.901C243.645 134.554 243.704 135.207 243.764 135.86L241.922 135.98ZM209.142 134.432L207.301 134.135C207.419 133.482 207.539 132.828 207.717 132.175L209.558 132.651C209.363 133.23 209.224 133.826 209.142 134.432ZM241.328 132.473C241.166 131.906 240.967 131.351 240.734 130.81L242.456 130.096C242.71 130.717 242.928 131.352 243.109 131.997L241.328 132.473ZM210.096 130.988L208.314 130.275C208.555 129.665 208.833 129.07 209.146 128.493L210.809 129.384C210.534 129.902 210.295 130.438 210.092 130.987L210.096 130.988ZM239.963 129.207C239.665 128.672 239.369 128.197 239.012 127.663L240.556 126.594C240.913 127.129 241.269 127.723 241.625 128.317L239.963 129.207ZM211.755 127.841L210.211 126.772C210.568 126.238 210.984 125.703 211.4 125.173L212.825 126.42C212.404 126.842 212.044 127.32 211.755 127.841ZM237.943 126.241C237.527 125.766 237.111 125.351 236.695 124.935L238.002 123.569C238.477 124.044 238.952 124.519 239.368 124.994L237.943 126.241ZM214.011 125.113L212.708 123.743C213.183 123.273 213.717 122.852 214.193 122.436L215.321 123.921C214.903 124.277 214.487 124.691 214.012 125.109L214.011 125.113ZM235.33 123.806C234.859 123.436 234.363 123.099 233.845 122.797L234.795 121.197C235.372 121.539 235.928 121.916 236.458 122.326L235.33 123.806ZM216.861 122.915L215.853 121.305C216.407 120.953 216.982 120.636 217.575 120.354L218.407 122.077C217.873 122.319 217.357 122.598 216.862 122.911L216.861 122.915ZM232.301 121.965C231.762 121.709 231.207 121.489 230.639 121.305L231.233 119.523C231.886 119.76 232.48 119.998 233.074 120.236L232.301 121.965ZM220.072 121.431L219.478 119.649C220.095 119.416 220.731 119.237 221.379 119.115L221.794 120.956C221.206 121.057 220.628 121.215 220.069 121.427L220.072 121.431ZM228.92 120.896C228.327 120.778 227.732 120.658 227.139 120.599L227.317 118.699C227.969 118.758 228.623 118.877 229.276 118.996L228.92 120.896ZM223.576 120.599L223.338 118.699C223.991 118.64 224.645 118.58 225.298 118.58V120.481C224.76 120.536 224.166 120.536 223.572 120.595L223.576 120.599Z" fill="#F6F2ED"/>
</g>
<path d="M218.505 139.734C218.512 139.187 218.663 138.652 218.944 138.182C219.951 136.432 220.957 134.681 221.96 132.929C222.792 131.483 223.621 130.037 224.447 128.591C224.523 128.426 224.646 128.287 224.799 128.19C224.953 128.094 225.132 128.045 225.313 128.049C225.46 128.043 225.607 128.077 225.737 128.146C225.867 128.216 225.977 128.319 226.054 128.445C226.304 128.834 226.533 129.235 226.742 129.648C226.855 129.875 226.907 130.127 226.894 130.38C226.88 130.633 226.801 130.878 226.665 131.092L224.601 134.656L220.225 142.229C220.191 142.287 220.16 142.347 220.121 142.401C220.081 142.471 220.023 142.529 219.953 142.569C219.883 142.609 219.804 142.63 219.724 142.63C219.643 142.63 219.564 142.609 219.494 142.569C219.424 142.529 219.366 142.471 219.326 142.401C219.172 142.152 219.042 141.888 218.938 141.614C218.689 141.016 218.543 140.381 218.505 139.734Z" fill="#F6F2ED"/>
<path d="M228.199 143.892C228.204 144.316 228.045 144.726 227.755 145.035C227.607 145.195 227.45 145.347 227.293 145.498C227.066 145.744 226.763 145.907 226.433 145.962C226.103 146.017 225.764 145.961 225.469 145.802C224.552 145.372 223.636 144.937 222.721 144.505C222.539 144.419 222.356 144.337 222.178 144.244C221.991 144.153 221.824 144.025 221.688 143.866C221.553 143.708 221.452 143.524 221.391 143.325C221.33 143.125 221.311 142.916 221.334 142.709C221.358 142.502 221.425 142.302 221.529 142.122C221.933 141.398 222.348 140.68 222.773 139.969C222.865 139.8 222.996 139.656 223.155 139.548C223.314 139.441 223.496 139.372 223.687 139.349C223.877 139.326 224.07 139.348 224.251 139.414C224.431 139.48 224.593 139.588 224.723 139.73C225.712 140.709 226.698 141.695 227.679 142.677C227.842 142.834 227.973 143.022 228.062 143.231C228.151 143.44 228.197 143.664 228.197 143.891" fill="#F6F2ED"/>
<path d="M228.777 138.341C229.449 138.341 230.12 138.332 230.79 138.341C231.082 138.339 231.369 138.413 231.623 138.556C231.878 138.699 232.09 138.905 232.24 139.156C232.4 139.396 232.472 139.684 232.444 139.972C232.416 140.259 232.29 140.528 232.087 140.733C231.609 141.227 231.122 141.714 230.624 142.188C230.493 142.317 230.338 142.418 230.167 142.486C229.997 142.554 229.814 142.587 229.631 142.582C229.447 142.578 229.267 142.537 229.099 142.461C228.932 142.385 228.782 142.277 228.658 142.141C228.064 141.56 227.481 140.968 226.893 140.381C226.656 140.144 226.414 139.911 226.182 139.668C226.067 139.559 225.989 139.417 225.958 139.261C225.927 139.106 225.944 138.945 226.008 138.799C226.071 138.654 226.177 138.532 226.312 138.449C226.448 138.366 226.605 138.327 226.763 138.336C227.434 138.336 228.105 138.336 228.777 138.336" fill="#F6F2ED"/>
<path d="M227.606 137.277C227.136 137.277 226.665 137.282 226.195 137.277C225.928 137.281 225.669 137.185 225.469 137.008C225.269 136.83 225.143 136.584 225.115 136.318C225.089 136.075 225.146 135.829 225.277 135.621C225.626 135.02 225.973 134.418 226.32 133.815C226.438 133.612 226.551 133.407 226.674 133.207C226.781 133.018 226.936 132.86 227.124 132.751C227.311 132.642 227.525 132.585 227.742 132.585C227.959 132.586 228.172 132.644 228.359 132.754C228.546 132.865 228.701 133.023 228.807 133.212C229.239 133.939 229.662 134.672 230.075 135.41C230.192 135.598 230.255 135.816 230.259 136.038C230.262 136.26 230.204 136.479 230.093 136.671C229.981 136.863 229.819 137.02 229.624 137.127C229.429 137.234 229.209 137.286 228.987 137.277C228.526 137.277 228.065 137.277 227.603 137.277" fill="#F6F2ED"/>
<path d="M81.4334 218.458C87.8986 218.458 93.1397 213.217 93.1397 206.752C93.1397 200.287 87.8986 195.046 81.4334 195.046C74.9682 195.046 69.7271 200.287 69.7271 206.752C69.7271 213.217 74.9682 218.458 81.4334 218.458Z" fill="#596F66"/>
<g opacity="0.696">
<path d="M81.2737 222.995C80.7046 222.995 80.1355 222.943 79.5663 222.892L79.7215 221.236C80.2389 221.288 80.7563 221.34 81.2737 221.34H81.429V222.995H81.2737ZM83.189 222.892L82.9821 221.236C83.4995 221.184 84.0169 221.081 84.5343 220.977L84.8965 222.581L83.189 222.892ZM77.8062 222.633C77.2402 222.531 76.6855 222.374 76.1506 222.163L76.668 220.61C77.1854 220.766 77.651 220.921 78.1731 221.024L77.8062 222.633ZM86.5549 222.116L85.9858 220.563C86.4562 220.408 86.9689 220.201 87.4345 219.994L88.1589 221.499C87.6387 221.702 87.0695 221.909 86.5521 222.116H86.5549ZM74.5485 221.495C74.0311 221.236 73.5137 220.977 72.9963 220.667L73.8242 219.27C74.2945 219.529 74.7555 219.787 75.2211 219.994L74.5485 221.495ZM89.6603 220.615L88.7807 219.218C89.2315 218.955 89.6637 218.661 90.0742 218.339L91.109 219.632C90.6405 219.942 90.1748 220.301 89.6574 220.615H89.6603ZM71.5439 219.737C71.0735 219.374 70.6643 219.012 70.1986 218.598L71.3369 217.408C71.7099 217.764 72.1075 218.092 72.5269 218.391L71.5439 219.737ZM92.4006 218.495L91.2623 217.305C91.6338 216.95 91.9796 216.57 92.2971 216.167L93.5389 217.201C93.2022 217.668 92.821 218.1 92.4006 218.493V218.495ZM69.0594 217.357C68.6737 216.923 68.3274 216.455 68.0246 215.96L69.3698 215.028L70.3012 216.27L69.0594 217.357ZM94.6254 215.804L93.2802 214.873C93.5881 214.455 93.8484 214.004 94.0563 213.528L95.505 214.304C95.2425 214.821 94.9487 215.321 94.6254 215.802V215.804ZM67.0933 214.508C66.8346 213.991 66.5759 213.473 66.3689 212.956L67.9211 212.335C68.1281 212.805 68.3351 213.266 68.5938 213.732L67.0933 214.508ZM96.2303 212.748L94.6781 212.127C94.8893 211.644 95.047 211.139 95.1484 210.622L96.7524 211.036C96.6095 211.616 96.4352 212.187 96.2303 212.748ZM65.7989 211.299C65.6437 210.73 65.5402 210.161 65.4367 209.592L67.0406 209.333C67.1307 209.842 67.2517 210.344 67.4028 210.838L65.7989 211.299ZM97.1098 209.389L95.5059 209.13C95.6094 208.613 95.6094 208.095 95.6611 207.578L97.3168 207.63C97.2651 208.246 97.2143 208.815 97.1098 209.389ZM65.2297 207.884V206.124L66.8854 206.227V207.779L65.2297 207.884ZM95.6094 206.02C95.5576 205.503 95.5059 204.985 95.4024 204.468L97.0064 204.209C97.1098 204.778 97.1616 205.347 97.2133 205.918L95.6094 206.02ZM67.0416 204.675L65.4376 204.416C65.5411 203.847 65.6446 203.278 65.7998 202.708L67.4037 203.122C67.2342 203.627 67.1129 204.147 67.0416 204.675ZM95.092 202.967C94.9508 202.474 94.778 201.99 94.5746 201.519L96.0797 200.898C96.3004 201.439 96.4904 201.991 96.6489 202.554L95.092 202.967ZM67.8694 201.675L66.3172 201.054C66.5273 200.523 66.7692 200.004 67.0416 199.502L68.4903 200.278C68.2523 200.729 68.0449 201.196 67.8694 201.675ZM93.902 200.123C93.6433 199.652 93.3846 199.243 93.0741 198.778L94.4194 197.846C94.7298 198.317 95.0402 198.829 95.3507 199.351L93.902 200.123ZM69.3181 198.93L67.9729 197.999C68.2833 197.528 68.6455 197.067 69.0077 196.602L70.2494 197.688C69.8826 198.057 69.5691 198.475 69.3181 198.93ZM92.1419 197.536C91.7797 197.122 91.4175 196.76 91.0553 196.398L92.1936 195.208C92.6075 195.621 93.0215 196.035 93.3836 196.449L92.1419 197.536ZM71.2852 196.553L70.1469 195.363C70.5608 194.949 71.0265 194.587 71.4404 194.224L72.4234 195.518C72.0613 195.825 71.6991 196.188 71.2852 196.55V196.553ZM89.8644 195.414C89.454 195.092 89.0218 194.798 88.5709 194.535L89.3987 193.138C89.9014 193.436 90.3852 193.764 90.8475 194.121L89.8644 195.414ZM73.7687 194.638L72.8891 193.241C73.3733 192.935 73.876 192.658 74.3942 192.414L75.1186 193.919C74.6527 194.126 74.2017 194.365 73.7687 194.635V194.638ZM87.221 193.811C86.7508 193.59 86.2669 193.4 85.7723 193.241L86.2897 191.689C86.8588 191.896 87.3762 192.103 87.8936 192.31L87.221 193.811ZM76.5598 193.34L76.048 191.788C76.5852 191.584 77.1392 191.426 77.7037 191.318L78.0659 192.922C77.5528 193.013 77.0497 193.153 76.5635 193.341L76.5598 193.34ZM84.2737 192.87C83.7563 192.766 83.2389 192.663 82.7215 192.611L82.8767 190.955C83.4459 191.007 84.015 191.111 84.5841 191.214L84.2737 192.87ZM79.6162 192.611L79.4092 190.955C79.9784 190.904 80.5475 190.852 81.1166 190.852V192.508C80.6519 192.564 80.1345 192.564 79.6171 192.617L79.6162 192.611Z" fill="#F6F2ED"/>
</g>
<path d="M80.7888 209.976L78.198 207.398H73.1436L80.7888 215.018V209.976Z" fill="#F6F2ED"/>
<path d="M81.7373 215.06L89.3788 207.398H84.3356L81.7373 210.001V215.06Z" fill="#F6F2ED"/>
<path d="M81.7373 198.797V203.84L84.3525 206.451H89.4117L81.7373 198.797Z" fill="#F6F2ED"/>
<path d="M80.7813 198.793L73.1436 206.451H78.1868L80.7813 203.848V198.793Z" fill="#F6F2ED"/>
<g opacity="0.4">
<path d="M125 38L125 84" stroke="#F6F2ED" stroke-width="2" stroke-dasharray="2 2"/>
<path d="M149 89.5L189.044 64.5977" stroke="#F6F2ED" stroke-width="2" stroke-dasharray="2 2"/>
<path d="M149.532 111.633L200.331 133.27" stroke="#F6F2ED" stroke-width="2" stroke-dasharray="2 2"/>
<path d="M139 144L157.06 180.305" stroke="#F6F2ED" stroke-width="2" stroke-dasharray="2 2"/>
<path d="M116.5 145L92.1501 188.772" stroke="#F6F2ED" stroke-width="2" stroke-dasharray="2 2"/>
<path d="M49.8157 131.388L97.7924 110.693" stroke="#F6F2ED" stroke-width="2" stroke-dasharray="2 2"/>
<path d="M70.5107 70.2419L100 90.5" stroke="#F6F2ED" stroke-width="2" stroke-dasharray="2 2"/>
</g>
<path fill-rule="evenodd" clip-rule="evenodd" d="M145 114C145 129 125 139 125 139C125 139 105 129 105 114V96.5L125 89L145 96.5V114ZM124.596 112.528L116.187 106.593C116.083 106.52 116.021 106.4 116.021 106.273V103.325C116.021 103.005 116.385 102.82 116.644 103.009L124.813 108.971C124.95 109.072 125.136 109.072 125.274 108.972L133.462 103.021C133.721 102.833 134.084 103.018 134.084 103.338V106.206C134.084 106.332 134.022 106.451 133.919 106.525L125.492 112.528L125.252 112.679C125.125 112.758 124.963 112.758 124.836 112.679L124.596 112.528ZM116.414 119.314C116.198 119.314 116.023 119.49 116.023 119.706V122.055C116.023 122.271 116.198 122.446 116.414 122.446L133.674 122.446C133.891 122.446 134.066 122.271 134.066 122.055V119.692C134.066 119.475 133.891 119.3 133.674 119.3L126.898 119.3C126.521 119.3 126.362 118.819 126.664 118.594L133.925 113.184C134.024 113.111 134.083 112.994 134.083 112.87V109.997C134.083 109.677 133.72 109.492 133.461 109.68L125.273 115.631C125.135 115.731 124.949 115.731 124.812 115.631L116.643 109.668C116.384 109.479 116.021 109.664 116.021 109.984V112.938C116.021 113.062 116.08 113.179 116.18 113.253L123.417 118.595C123.721 118.819 123.563 119.301 123.185 119.302L116.414 119.314Z" fill="#F6F2ED"/>
</svg>
