<svg width="17" height="17" viewBox="0 0 17 17" fill="none" xmlns="http://www.w3.org/2000/svg">
<path d="M13.5074 3.41607H3.04213C2.9411 3.41379 2.84008 3.42022 2.7401 3.43531C2.59516 3.45931 2.464 3.53744 2.37187 3.65465C2.27974 3.77186 2.23311 3.91989 2.24101 4.07022C2.24808 4.22188 2.30941 4.36554 2.41323 4.47378C2.51706 4.58203 2.6561 4.64726 2.80386 4.65702C2.88453 4.65702 2.9671 4.65702 3.04965 4.65702C7.28604 4.65702 11.5224 4.65702 15.7588 4.65702C15.9975 4.65472 16.2338 4.70593 16.4511 4.80708C16.6275 4.89963 16.7731 5.0437 16.8696 5.22109C16.9661 5.39847 17.0092 5.60121 16.9934 5.80369C16.9934 8.04444 16.9934 10.289 16.9934 12.5375C16.9934 13.6342 16.9934 14.7289 16.9934 15.8236C16.9934 16.5412 16.56 16.9972 15.8677 16.9972C10.9546 16.9972 6.04152 16.9972 1.12845 16.9972C0.430512 16.9972 0.00274447 16.5374 0.00274447 15.8198V3.78547C-0.0164087 3.51273 0.0652051 3.24259 0.231357 3.02872C0.397509 2.81485 0.636043 2.67291 0.89956 2.6311L12.1922 0.031843C12.8695 -0.122073 13.4868 0.295424 13.5187 0.993817C13.5431 1.78648 13.5074 2.58493 13.5074 3.41607ZM14.014 11.9392C14.286 11.9397 14.5472 11.8296 14.7402 11.6331C14.9333 11.4365 15.0425 11.1696 15.044 10.8906C15.0425 10.6087 14.9324 10.3389 14.7377 10.14C14.543 9.94103 14.2795 9.8291 14.0046 9.82859C13.7326 9.83265 13.4731 9.94671 13.2827 10.146C13.0922 10.3452 12.9862 10.6135 12.9877 10.8925C12.9877 11.0311 13.0145 11.1683 13.0666 11.2962C13.1188 11.4241 13.1951 11.54 13.2913 11.6374C13.3874 11.7348 13.5015 11.8116 13.6269 11.8634C13.7522 11.9152 13.8864 11.9409 14.0215 11.9392H14.014Z" fill="#F9F4F0"/>
</svg>
