<svg width="256" height="250" viewBox="0 0 256 250" fill="none" xmlns="http://www.w3.org/2000/svg">
<path opacity="0.26" d="M124.287 215.161C176.646 215.161 219.09 172.717 219.09 120.359C219.09 68.0015 176.646 25.5571 124.287 25.5571C71.9291 25.5571 29.4844 68.0015 29.4844 120.359C29.4844 172.717 71.9291 215.161 124.287 215.161Z" fill="#073B36"/>
<path opacity="0.3" d="M232.86 156.511C234.466 156.511 236.036 156.035 237.371 155.142C238.707 154.25 239.748 152.982 240.363 151.498C240.977 150.014 241.138 148.381 240.825 146.805C240.511 145.23 239.738 143.783 238.602 142.647C237.466 141.511 236.019 140.738 234.444 140.425C232.869 140.111 231.236 140.272 229.752 140.887C228.268 141.501 226.999 142.542 226.107 143.878C225.215 145.213 224.738 146.784 224.738 148.39C224.739 150.544 225.594 152.609 227.117 154.132C228.64 155.655 230.706 156.511 232.86 156.511Z" fill="#073B36"/>
<path opacity="0.2" d="M244.746 124.817C245.843 124.817 246.916 124.492 247.829 123.882C248.742 123.272 249.453 122.405 249.873 121.391C250.293 120.377 250.403 119.261 250.189 118.184C249.975 117.108 249.446 116.119 248.67 115.343C247.894 114.566 246.905 114.038 245.828 113.824C244.752 113.61 243.636 113.719 242.622 114.14C241.607 114.56 240.741 115.271 240.131 116.184C239.521 117.096 239.195 118.17 239.195 119.267C239.195 120.739 239.78 122.151 240.821 123.192C241.862 124.233 243.274 124.817 244.746 124.817Z" fill="#073B36"/>
<path opacity="0.3" d="M15.0617 94.0157C17.0988 94.0157 19.0902 93.4117 20.784 92.2799C22.4778 91.1481 23.798 89.5395 24.5776 87.6575C25.3572 85.7754 25.5611 83.7044 25.1637 81.7065C24.7663 79.7085 23.7853 77.8732 22.3448 76.4328C20.9044 74.9923 19.0691 74.0114 17.0711 73.6139C15.0731 73.2165 13.0021 73.4205 11.1201 74.2001C9.23798 74.9796 7.62935 76.2998 6.49757 77.9936C5.3658 79.6874 4.76172 81.6788 4.76172 83.7159C4.76172 86.4476 5.84689 89.0674 7.77851 90.999C9.71012 92.9306 12.33 94.0157 15.0617 94.0157Z" fill="#073B36"/>
<path opacity="0.2" d="M219.191 57.0871C220.289 57.0871 221.362 56.7616 222.274 56.1517C223.187 55.5419 223.899 54.675 224.319 53.6609C224.739 52.6467 224.849 51.5307 224.634 50.4541C224.42 49.3775 223.892 48.3885 223.116 47.6123C222.339 46.8361 221.35 46.3075 220.274 46.0933C219.197 45.8792 218.081 45.9891 217.067 46.4092C216.053 46.8293 215.186 47.5406 214.576 48.4534C213.966 49.3661 213.641 50.4392 213.641 51.5369C213.641 53.0089 214.225 54.4206 215.266 55.4615C216.307 56.5023 217.719 57.0871 219.191 57.0871Z" fill="#073B36"/>
<path d="M85.0409 49.373L83.9297 50.0145L85.1747 52.171L86.286 51.5294L85.0409 49.373Z" fill="#508B82"/>
<path d="M88.4706 55.3152L87.3594 55.9568L88.6044 58.1132L89.7157 57.4717L88.4706 55.3152Z" fill="#508B82"/>
<path d="M90.5549 50.8491L88.3984 52.0941L89.04 53.2053L91.1965 51.9603L90.5549 50.8491Z" fill="#508B82"/>
<path d="M84.6135 54.2796L82.457 55.5247L83.0986 56.6359L85.2551 55.3908L84.6135 54.2796Z" fill="#508B82"/>
<path d="M52.7218 237.508H51.0078V240.835H52.7218V237.508Z" fill="#508B82"/>
<path d="M52.7218 246.673H51.0078V250H52.7218V246.673Z" fill="#508B82"/>
<path d="M58.1115 242.898H54.7852V244.612H58.1115V242.898Z" fill="#508B82"/>
<path d="M48.9436 242.898H45.6172V244.612H48.9436V242.898Z" fill="#508B82"/>
<path d="M3.39788 72.9371C5.27448 72.9371 6.79577 71.4158 6.79577 69.5392C6.79577 67.6626 5.27448 66.1414 3.39788 66.1414C1.52128 66.1414 0 67.6626 0 69.5392C0 71.4158 1.52128 72.9371 3.39788 72.9371Z" fill="#508B82"/>
<path d="M15.4764 123.039C16.9649 123.039 18.1716 121.832 18.1716 120.343C18.1716 118.855 16.9649 117.648 15.4764 117.648C13.9879 117.648 12.7812 118.855 12.7812 120.343C12.7812 121.832 13.9879 123.039 15.4764 123.039Z" fill="#508B82"/>
<path d="M252.89 141.71C254.553 141.71 255.901 140.362 255.901 138.699C255.901 137.036 254.553 135.687 252.89 135.687C251.227 135.687 249.879 137.036 249.879 138.699C249.879 140.362 251.227 141.71 252.89 141.71Z" fill="#508B82"/>
<path d="M191.92 148.408L190.938 147.583L189.337 149.491L190.32 150.315L191.92 148.408Z" fill="#508B82"/>
<path d="M187.51 153.664L186.527 152.839L184.927 154.747L185.91 155.572L187.51 153.664Z" fill="#508B82"/>
<path d="M192.423 154.091L190.516 152.491L189.691 153.474L191.598 155.074L192.423 154.091Z" fill="#508B82"/>
<path d="M187.169 149.681L185.262 148.08L184.437 149.063L186.344 150.664L187.169 149.681Z" fill="#508B82"/>
<path d="M212.09 46.7064C213.578 46.7064 214.785 45.4998 214.785 44.0113C214.785 42.5228 213.578 41.3162 212.09 41.3162C210.601 41.3162 209.395 42.5228 209.395 44.0113C209.395 45.4998 210.601 46.7064 212.09 46.7064Z" fill="#508B82"/>
<path d="M125.577 27.6063C132.043 27.6063 137.284 22.3652 137.284 15.9001C137.284 9.4349 132.043 4.19385 125.577 4.19385C119.112 4.19385 113.871 9.4349 113.871 15.9001C113.871 22.3652 119.112 27.6063 125.577 27.6063Z" fill="#508B82"/>
<g opacity="0.696">
<path d="M125.411 32.1432C124.842 32.1432 124.273 32.0915 123.704 32.0397L123.859 30.3841C124.376 30.4358 124.894 30.4875 125.411 30.4875H125.566V32.1432H125.411ZM127.326 32.0397L127.12 30.3841C127.637 30.3323 128.154 30.2288 128.672 30.1254L129.034 31.7293L127.326 32.0397ZM121.944 31.781C121.378 31.6793 120.823 31.5218 120.288 31.3107L120.805 29.7585C121.323 29.9137 121.788 30.0689 122.311 30.1724L121.944 31.781ZM130.692 31.2636L130.123 29.7114C130.594 29.5562 131.106 29.3493 131.572 29.1423L132.296 30.6474C131.776 30.8497 131.207 31.0567 130.69 31.2636H130.692ZM118.686 30.6428C118.169 30.3841 117.651 30.1254 117.134 29.8149L117.962 28.418C118.432 28.6767 118.893 28.9354 119.359 29.1423L118.686 30.6428ZM133.798 29.7632L132.918 28.3662C133.369 28.1031 133.801 27.8092 134.212 27.4867L135.246 28.7801C134.778 29.0896 134.312 29.449 133.795 29.7632H133.798ZM115.681 28.8846C115.211 28.5224 114.802 28.1602 114.336 27.7463L115.474 26.5563C115.847 26.9116 116.245 27.2401 116.664 27.5393L115.681 28.8846ZM136.538 27.6428L135.4 26.4528C135.771 26.0985 136.117 25.7181 136.435 25.3146L137.676 26.3493C137.34 26.8158 136.958 27.2483 136.538 27.6409V27.6428ZM113.197 26.5046C112.811 26.0705 112.465 25.603 112.162 25.1076L113.507 24.1763L114.439 25.418L113.197 26.5046ZM138.763 24.9524L137.418 24.0211C137.726 23.6029 137.986 23.1517 138.194 22.6759L139.642 23.4519C139.38 23.9686 139.086 24.4687 138.763 24.9496V24.9524ZM111.231 23.6561C110.972 23.1387 110.713 22.6213 110.506 22.1039L112.059 21.483C112.266 21.9534 112.473 22.4143 112.731 22.88L111.231 23.6561ZM140.368 21.896L138.816 21.2751C139.027 20.7921 139.184 20.2874 139.286 19.77L140.89 20.1839C140.747 20.7637 140.573 21.3352 140.368 21.896ZM109.936 20.4473C109.781 19.8782 109.678 19.3091 109.574 18.7399L111.178 18.4812C111.268 18.9898 111.389 19.4925 111.54 19.9864L109.936 20.4473ZM141.247 18.5367L139.643 18.278C139.747 17.7606 139.747 17.2432 139.799 16.7259L141.454 16.7776C141.403 17.3938 141.352 17.9629 141.247 18.5367ZM109.367 17.0316V15.2715L111.023 15.375V16.9272L109.367 17.0316ZM139.747 15.168C139.695 14.6506 139.643 14.1333 139.54 13.6159L141.144 13.3572C141.247 13.9263 141.299 14.4954 141.351 15.0655L139.747 15.168ZM111.179 13.8228L109.575 13.5641C109.679 12.995 109.782 12.4259 109.937 11.8558L111.541 12.2697C111.372 12.7748 111.25 13.2948 111.179 13.8228ZM139.229 12.1154C139.088 11.6219 138.915 11.138 138.712 10.6667L140.217 10.0459C140.438 10.5866 140.628 11.1394 140.786 11.7015L139.229 12.1154ZM112.007 10.8229L110.455 10.202C110.665 9.67056 110.907 9.15222 111.179 8.64984L112.628 9.42594C112.39 9.8772 112.182 10.3439 112.007 10.8229ZM138.039 9.27071C137.781 8.80036 137.522 8.39115 137.212 7.9255L138.557 6.99419C138.867 7.46455 139.178 7.97724 139.488 8.49934L138.039 9.27071ZM113.456 8.0779L112.11 7.14659C112.421 6.67623 112.783 6.21528 113.145 5.74963L114.387 6.83615C114.02 7.20459 113.707 7.62256 113.456 8.0779ZM136.279 6.68375C135.917 6.26984 135.555 5.90767 135.193 5.5455L136.331 4.3555C136.745 4.76941 137.159 5.18332 137.521 5.59723L136.279 6.68375ZM115.423 5.70071L114.284 4.51071C114.698 4.0968 115.164 3.73462 115.578 3.37244L116.561 4.66592C116.199 4.9726 115.837 5.33571 115.423 5.69788V5.70071ZM134.002 4.56246C133.591 4.2399 133.159 3.94601 132.708 3.68288L133.536 2.28592C134.039 2.58357 134.523 2.91188 134.985 3.26898L134.002 4.56246ZM117.906 3.78636L117.027 2.3894C117.511 2.08277 118.013 1.80632 118.532 1.56159L119.256 3.06672C118.79 3.2741 118.339 3.51329 117.906 3.7826V3.78636ZM131.358 2.95854C130.888 2.73781 130.404 2.5477 129.91 2.3894L130.427 0.837233C130.996 1.04419 131.514 1.25115 132.031 1.45811L131.358 2.95854ZM120.697 2.48819L120.185 0.936004C120.723 0.731519 121.277 0.574141 121.841 0.465648L122.203 2.06956C121.69 2.16087 121.187 2.30137 120.701 2.48912L120.697 2.48819ZM128.411 2.01783C127.894 1.91435 127.376 1.81087 126.859 1.75913L127.014 0.103479C127.583 0.155218 128.152 0.258691 128.722 0.362169L128.411 2.01783ZM123.754 1.75913L123.547 0.103479C124.116 0.0517397 124.685 0 125.254 0V1.65565C124.789 1.71209 124.272 1.71209 123.755 1.76477L123.754 1.75913Z" fill="#F2EDE6"/>
</g>
<path d="M129.974 13.6704C129.974 14.6215 129.921 15.5763 129.984 16.5236C130.076 17.4275 129.973 18.3406 129.681 19.2009C129.388 20.0612 128.914 20.8485 128.291 21.5094C128.103 21.7154 127.948 21.9591 127.764 22.1745C127.435 22.5611 127.326 23.2554 126.818 23.3344C125.951 23.4195 125.079 23.4355 124.209 23.3823C123.947 23.3823 123.803 23.1585 123.696 22.9609C123.22 22.1661 122.663 21.4233 122.032 20.7446C121.235 19.7859 120.813 18.5699 120.845 17.3232C120.822 14.7786 120.85 12.233 120.828 9.68841C120.823 9.0365 121.067 8.73829 121.726 8.74111C124.168 8.74989 126.61 8.74989 129.053 8.74111C129.695 8.74111 129.994 8.99416 129.981 9.66112C129.958 10.9979 129.975 12.3337 129.974 13.6704ZM125.388 10.7354C124.515 10.7354 123.642 10.7524 122.769 10.7288C122.299 10.7166 122.125 10.9066 122.127 11.3619C122.138 13.133 122.138 14.9043 122.127 16.676C122.127 17.105 122.316 17.2799 122.725 17.2799C124.496 17.2762 126.268 17.2762 128.04 17.2799C128.488 17.2799 128.686 17.1097 128.681 16.6403C128.666 14.8949 128.666 13.1493 128.681 11.4033C128.681 10.9123 128.508 10.711 128.003 10.727C127.131 10.7542 126.257 10.7345 125.384 10.7345" fill="#F2EDE6"/>
<path d="M204.781 63.6192C211.246 63.6192 216.487 58.3782 216.487 51.913C216.487 45.4478 211.246 40.2068 204.781 40.2068C198.315 40.2068 193.074 45.4478 193.074 51.913C193.074 58.3782 198.315 63.6192 204.781 63.6192Z" fill="#508B82"/>
<g opacity="0.696">
<path d="M204.614 68.1561C204.045 68.1561 203.476 68.1044 202.907 68.0527L203.062 66.397C203.58 66.4487 204.097 66.5005 204.614 66.5005H204.77V68.1561H204.614ZM206.53 68.0527L206.323 66.397C206.84 66.3453 207.357 66.2418 207.875 66.1383L208.237 67.7422L206.53 68.0527ZM201.147 67.7939C200.581 67.6923 200.026 67.5347 199.491 67.3236L200.009 65.7714C200.526 65.9266 200.992 66.0819 201.514 66.1853L201.147 67.7939ZM209.896 67.2766L209.326 65.7244C209.797 65.5692 210.309 65.3622 210.775 65.1553L211.499 66.6604C210.979 66.8626 210.41 67.0696 209.893 67.2766H209.896ZM197.889 66.6557C197.372 66.397 196.854 66.1383 196.337 65.8279L197.165 64.4309C197.635 64.6896 198.096 64.9483 198.562 65.1553L197.889 66.6557ZM213.001 65.7761L212.121 64.3792C212.572 64.116 213.004 63.8221 213.415 63.4996L214.45 64.7931C213.981 65.1026 213.515 65.4619 212.998 65.7761H213.001ZM194.884 64.8975C194.414 64.5353 194.005 64.1731 193.539 63.7592L194.677 62.5692C195.05 62.9246 195.448 63.2531 195.867 63.5523L194.884 64.8975ZM215.741 63.6558L214.603 62.4658C214.974 62.1114 215.32 61.731 215.638 61.3275L216.879 62.3623C216.543 62.8287 216.162 63.2613 215.741 63.6539V63.6558ZM192.4 62.5175C192.014 62.0835 191.668 61.616 191.365 61.1205L192.71 60.1892L193.642 61.431L192.4 62.5175ZM217.966 60.9653L216.621 60.034C216.929 59.6159 217.189 59.1647 217.397 58.6888L218.846 59.4649C218.583 59.9815 218.289 60.4816 217.966 60.9625V60.9653ZM190.434 59.669C190.175 59.1516 189.916 58.6342 189.71 58.1168L191.262 57.496C191.469 57.9663 191.676 58.4273 191.934 58.8929L190.434 59.669ZM219.571 57.909L218.019 57.2881C218.23 56.805 218.388 56.3003 218.489 55.7829L220.093 56.1968C219.95 56.7766 219.776 57.3481 219.571 57.909ZM189.139 56.4602C188.984 55.8911 188.881 55.322 188.777 54.7529L190.381 54.4942C190.471 55.0028 190.592 55.5054 190.743 55.9993L189.139 56.4602ZM220.45 54.5497L218.846 54.291C218.95 53.7736 218.95 53.2562 219.002 52.7388L220.657 52.7905C220.606 53.4067 220.555 53.9758 220.45 54.5497ZM188.57 53.0445V51.2845L190.226 51.3879V52.9401L188.57 53.0445ZM218.95 51.181C218.898 50.6636 218.846 50.1462 218.743 49.6288L220.347 49.3701C220.45 49.9392 220.502 50.5084 220.554 51.0784L218.95 51.181ZM190.382 49.8358L188.778 49.5771C188.882 49.0079 188.985 48.4388 189.14 47.8687L190.744 48.2826C190.575 48.7877 190.453 49.3078 190.382 49.8358ZM218.433 48.1284C218.291 47.6349 218.119 47.151 217.915 46.6797L219.42 46.0588C219.641 46.5996 219.831 47.1523 219.989 47.7145L218.433 48.1284ZM191.21 46.8358L189.658 46.215C189.868 45.6835 190.11 45.1652 190.382 44.6628L191.831 45.4389C191.593 45.8901 191.386 46.3568 191.21 46.8358ZM217.243 45.2837C216.984 44.8133 216.725 44.4041 216.415 43.9384L217.76 43.0071C218.07 43.4775 218.381 43.9902 218.691 44.5123L217.243 45.2837ZM192.659 44.0908L191.313 43.1595C191.624 42.6892 191.986 42.2282 192.348 41.7626L193.59 42.8491C193.223 43.2175 192.91 43.6355 192.659 44.0908ZM215.482 42.6967C215.12 42.2828 214.758 41.9206 214.396 41.5584L215.534 40.3684C215.948 40.7824 216.362 41.1963 216.724 41.6102L215.482 42.6967ZM194.626 41.7137L193.487 40.5237C193.901 40.1097 194.367 39.7476 194.781 39.3854L195.764 40.6789C195.402 40.9855 195.04 41.3486 194.626 41.7108V41.7137ZM213.205 40.5754C212.795 40.2528 212.362 39.9589 211.911 39.6958L212.739 38.2989C213.242 38.5965 213.726 38.9248 214.188 39.2819L213.205 40.5754ZM197.109 39.7993L196.23 38.4023C196.714 38.0957 197.217 37.8193 197.735 37.5745L198.459 39.0797C197.993 39.287 197.542 39.5262 197.109 39.7955V39.7993ZM210.562 38.9715C210.091 38.7508 209.608 38.5606 209.113 38.4023L209.63 36.8502C210.199 37.0571 210.717 37.2641 211.234 37.471L210.562 38.9715ZM199.9 38.5011L199.389 36.9489C199.926 36.7445 200.48 36.5871 201.044 36.4786L201.406 38.0825C200.893 38.1738 200.39 38.3143 199.904 38.5021L199.9 38.5011ZM207.614 38.0308C207.097 37.9273 206.579 37.8238 206.062 37.7721L206.217 36.1164C206.786 36.1682 207.356 36.2716 207.925 36.3751L207.614 38.0308ZM202.957 37.7721L202.75 36.1164C203.319 36.0647 203.888 36.0129 204.457 36.0129V37.6686C203.992 37.725 203.475 37.725 202.958 37.7777L202.957 37.7721Z" fill="#F2EDE6"/>
</g>
<path d="M204.189 55.9233C203.593 56.9506 202.966 57.9647 202.409 59.0117C202.134 59.5272 201.912 59.6852 201.358 59.3174C200.478 58.7328 199.562 58.2043 198.615 57.7351C197.92 57.3908 197.787 57.1152 198.225 56.3833C200.242 53.0071 202.185 49.5867 204.146 46.1776C204.371 45.7872 204.696 45.4485 204.513 44.8869C204.222 44.0017 204.749 43.8041 205.491 43.9462C206.374 44.1071 207.279 44.1103 208.164 43.9556C208.525 43.8963 209.1 43.727 209.26 44.0958C209.382 44.2951 209.43 44.531 209.396 44.7621C209.361 44.9932 209.247 45.2049 209.072 45.3601C208.734 45.6573 209.47 47.726 209.924 48.0195C210.377 48.313 210.331 49.535 209.823 49.6121C209.239 49.7015 209.339 50.0241 209.338 50.3647C209.333 51.787 209.338 53.2094 209.338 54.6317C209.338 54.9949 209.283 55.3034 209.85 55.3768C210.291 55.4332 210.39 56.817 209.988 56.8669C209.163 56.9675 209.344 57.4906 209.34 57.9684C209.323 60.2261 209.325 60.2262 207.097 60.2196C206.262 60.2196 205.153 60.5018 204.667 60.0832C204.089 59.5846 204.53 58.4426 204.479 57.5809C204.447 57.0447 204.473 56.5047 204.473 55.9666L204.191 55.9243M206.683 44.8559C205.925 44.8719 205.498 45.4927 205.104 46.1729C203.411 49.1041 201.718 52.0335 200.024 54.961C198.874 56.9544 198.89 56.9365 200.924 58.1124C201.504 58.4482 201.786 58.4736 202.163 57.8048C204.051 54.4427 206.006 51.1182 207.93 47.7758C208.1 47.4963 208.237 47.198 208.338 46.8869C208.406 46.6396 208.415 46.3796 208.362 46.1284C208.31 45.8772 208.198 45.6422 208.036 45.443C207.875 45.2439 207.667 45.0864 207.432 44.9838C207.197 44.8811 206.941 44.8363 206.685 44.853M207.924 49.9131C207.134 51.0542 206.032 52.0401 205.887 53.4502C205.765 54.6374 205.917 55.85 205.852 57.0465C205.806 57.8838 206.312 57.8066 206.816 57.7624C207.28 57.721 207.954 58.0757 207.937 57.0898C207.896 54.6985 207.924 52.3054 207.924 49.9131Z" fill="#F2EDE6"/>
<path d="M28.4563 149.976C34.9216 149.976 40.1627 144.735 40.1627 138.27C40.1627 131.804 34.9216 126.563 28.4563 126.563C21.9911 126.563 16.75 131.804 16.75 138.27C16.75 144.735 21.9911 149.976 28.4563 149.976Z" fill="#508B82"/>
<g opacity="0.696">
<path d="M28.2979 154.513C27.7288 154.513 27.1596 154.461 26.5905 154.409L26.7457 152.754C27.2631 152.806 27.7805 152.857 28.2979 152.857H28.4531V154.513H28.2979ZM30.2132 154.409L30.0063 152.754C30.5236 152.702 31.041 152.599 31.5584 152.495L31.9206 154.099L30.2132 154.409ZM24.8304 154.151C24.2643 154.049 23.7097 153.892 23.1747 153.68L23.6921 152.128C24.2095 152.283 24.6752 152.439 25.1973 152.542L24.8304 154.151ZM33.5791 153.633L33.01 152.081C33.4803 151.926 33.993 151.719 34.4587 151.512L35.183 153.017C34.6628 153.219 34.0937 153.426 33.5763 153.633H33.5791ZM21.5727 153.013C21.0553 152.754 20.5379 152.495 20.0205 152.185L20.8483 150.788C21.3187 151.046 21.7796 151.305 22.2453 151.512L21.5727 153.013ZM36.6844 152.133L35.8049 150.736C36.2557 150.473 36.6879 150.179 37.0983 149.856L38.1331 151.15C37.6647 151.459 37.199 151.819 36.6816 152.133H36.6844ZM18.568 151.254C18.0977 150.892 17.6885 150.53 17.2228 150.116L18.3611 148.926C18.734 149.281 19.1317 149.61 19.5511 149.909L18.568 151.254ZM39.4248 150.013L38.2865 148.823C38.658 148.468 39.0038 148.088 39.3213 147.684L40.563 148.719C40.2264 149.186 39.8452 149.618 39.4248 150.011V150.013ZM16.0836 148.874C15.6979 148.44 15.3516 147.973 15.0488 147.477L16.394 146.546L17.3253 147.788L16.0836 148.874ZM41.6496 147.322L40.3043 146.391C40.6122 145.973 40.8725 145.521 41.0804 145.046L42.5291 145.822C42.2666 146.338 41.9729 146.838 41.6496 147.319V147.322ZM14.1175 146.026C13.8588 145.508 13.6001 144.991 13.3931 144.474L14.9453 143.853C15.1523 144.323 15.3592 144.784 15.6179 145.25L14.1175 146.026ZM43.2544 144.266L41.7022 143.645C41.9134 143.162 42.0712 142.657 42.1726 142.14L43.7765 142.554C43.6337 143.133 43.4594 143.705 43.2544 144.266ZM12.823 142.817C12.6678 142.248 12.5643 141.679 12.4609 141.11L14.0648 140.851C14.1549 141.36 14.2758 141.862 14.427 142.356L12.823 142.817ZM44.134 140.906L42.5301 140.648C42.6335 140.13 42.6336 139.613 42.6853 139.096L44.341 139.147C44.2892 139.764 44.2384 140.333 44.134 140.906ZM12.2539 139.401V137.641L13.9096 137.745V139.297L12.2539 139.401ZM42.6336 137.538C42.5818 137.02 42.5301 136.503 42.4266 135.986L44.0305 135.727C44.134 136.296 44.1857 136.865 44.2375 137.435L42.6336 137.538ZM14.0657 136.193L12.4618 135.934C12.5653 135.365 12.6688 134.796 12.824 134.226L14.4279 134.639C14.2583 135.145 14.1371 135.665 14.0657 136.193ZM42.1162 134.485C41.975 133.992 41.8022 133.508 41.5988 133.036L43.1039 132.416C43.3246 132.956 43.5146 133.509 43.673 134.071L42.1162 134.485ZM14.8936 133.193L13.3414 132.572C13.5515 132.04 13.7933 131.522 14.0657 131.02L15.5144 131.796C15.2765 132.247 15.0691 132.714 14.8936 133.193ZM40.9261 131.64C40.6674 131.17 40.4087 130.761 40.0983 130.295L41.4435 129.364C41.754 129.834 42.0644 130.347 42.3749 130.869L40.9261 131.64ZM16.3423 130.448L14.997 129.516C15.3075 129.046 15.6697 128.585 16.0318 128.119L17.2736 129.206C16.9067 129.574 16.5933 129.992 16.3423 130.448ZM39.1661 129.054C38.8039 128.64 38.4417 128.277 38.0795 127.915L39.2178 126.725C39.6317 127.139 40.0456 127.553 40.4078 127.967L39.1661 129.054ZM18.3093 128.07L17.1711 126.88C17.585 126.467 18.0506 126.104 18.4645 125.742L19.4476 127.036C19.0854 127.342 18.7232 127.705 18.3093 128.068V128.07ZM36.8886 126.932C36.4781 126.61 36.0459 126.316 35.5951 126.053L36.4229 124.656C36.9255 124.953 37.4093 125.282 37.8716 125.639L36.8886 126.932ZM20.7928 126.156L19.9133 124.759C20.3975 124.453 20.9001 124.176 21.4184 123.931L22.1428 125.436C21.6769 125.644 21.2259 125.883 20.7928 126.152V126.156ZM34.2451 125.328C33.775 125.108 33.2911 124.917 32.7964 124.759L33.3138 123.207C33.883 123.414 34.4004 123.621 34.9178 123.828L34.2451 125.328ZM23.584 124.858L23.0722 123.306C23.6094 123.101 24.1634 122.944 24.7279 122.835L25.09 124.439C24.577 124.531 24.0739 124.671 23.5877 124.859L23.584 124.858ZM31.2979 124.388C30.7805 124.284 30.2631 124.181 29.7457 124.129L29.9009 122.473C30.47 122.525 31.0392 122.628 31.6083 122.732L31.2979 124.388ZM26.6404 124.129L26.4334 122.473C27.0025 122.421 27.5717 122.37 28.1408 122.37V124.025C27.6761 124.082 27.1587 124.082 26.6413 124.135L26.6404 124.129Z" fill="#F2EDE6"/>
</g>
<path d="M35.864 143.457H20.7005C20.6007 143.457 20.505 143.417 20.4344 143.347C20.3639 143.276 20.3242 143.18 20.3242 143.08V133.8C20.3242 133.701 20.3639 133.605 20.4344 133.534C20.505 133.464 20.6007 133.424 20.7005 133.424H35.864C35.9638 133.424 36.0595 133.464 36.1301 133.534C36.2006 133.605 36.2403 133.701 36.2403 133.8V143.087C36.2386 143.186 36.1981 143.28 36.1278 143.349C36.0574 143.418 35.9627 143.457 35.864 143.457Z" fill="#F2EDE6"/>
<path d="M20.332 135.56H36.2387" stroke="#035F51" stroke-width="2"/>
<path d="M168.118 220.574C176.824 220.574 183.881 213.517 183.881 204.811C183.881 196.106 176.824 189.049 168.118 189.049C159.413 189.049 152.355 196.106 152.355 204.811C152.355 213.517 159.413 220.574 168.118 220.574Z" fill="#508B82"/>
<g opacity="0.696">
<path d="M167.91 226.681C167.144 226.681 166.377 226.611 165.611 226.542L165.82 224.312C166.517 224.382 167.213 224.452 167.91 224.452H168.119V226.681H167.91ZM170.489 226.542L170.207 224.312C170.904 224.243 171.6 224.104 172.297 223.964L172.785 226.128L170.489 226.542ZM163.245 226.194C162.483 226.059 161.736 225.849 161.016 225.566L161.713 223.476C162.41 223.685 163.036 223.894 163.734 224.034L163.245 226.194ZM175.022 225.497L174.256 223.406C174.883 223.198 175.579 222.918 176.207 222.64L177.182 224.66C176.481 224.939 175.715 225.218 175.018 225.497H175.022ZM158.856 224.66C158.159 224.312 157.463 223.963 156.766 223.546L157.88 221.664C158.508 222.012 159.134 222.361 159.762 222.64L158.856 224.66ZM179.204 223.476L178.019 221.595C178.627 221.24 179.209 220.845 179.762 220.41L181.155 222.153C180.523 222.57 179.892 223.057 179.199 223.476H179.204ZM154.815 222.292C154.187 221.804 153.63 221.316 153.003 220.758L154.536 219.159C155.037 219.637 155.572 220.08 156.135 220.483L154.815 222.292ZM182.897 220.619L181.364 219.02C181.864 218.543 182.329 218.03 182.757 217.487L184.429 218.88C183.975 219.508 183.46 220.091 182.892 220.619H182.897ZM151.47 219.086C150.951 218.501 150.485 217.872 150.077 217.204L151.889 215.95L153.143 217.623L151.47 219.086ZM185.888 216.992L184.077 215.738C184.491 215.175 184.842 214.567 185.122 213.926L187.073 214.971C186.72 215.668 186.324 216.343 185.888 216.992ZM148.817 215.253C148.469 214.556 148.12 213.86 147.842 213.163L149.932 212.327C150.214 212.954 150.49 213.581 150.838 214.208L148.817 215.253ZM188.046 212.884L185.955 212.047C186.237 211.399 186.448 210.721 186.583 210.027L188.746 210.585C188.555 211.363 188.322 212.13 188.048 212.884H188.046ZM147.075 210.933C146.866 210.166 146.727 209.399 146.587 208.634L148.751 208.285C148.872 208.968 149.035 209.643 149.239 210.306L147.075 210.933ZM189.234 208.354L187.07 208.006C187.209 207.309 187.209 206.613 187.279 205.916L189.508 205.985C189.443 206.822 189.373 207.585 189.234 208.355V208.354ZM146.309 206.333V203.964L148.538 204.103V206.193L146.309 206.333ZM187.213 203.822C187.143 203.125 187.074 202.429 186.931 201.732L189.094 201.383C189.234 202.15 189.303 202.917 189.377 203.683L187.213 203.822ZM148.748 202.014L146.584 201.666C146.723 200.899 146.866 200.132 147.072 199.367L149.236 199.924C149.008 200.604 148.844 201.303 148.748 202.014ZM186.516 199.715C186.326 199.05 186.093 198.398 185.819 197.764L187.84 196.927C188.137 197.655 188.393 198.4 188.606 199.157L186.516 199.715ZM149.863 197.971L147.772 197.135C148.055 196.42 148.381 195.721 148.748 195.045L150.699 196.09C150.378 196.698 150.099 197.326 149.863 197.971ZM184.913 195.881C184.565 195.254 184.216 194.697 183.798 194.069L185.61 192.815C186.028 193.443 186.446 194.139 186.864 194.836L184.913 195.881ZM151.814 194.282L150.002 193.028C150.42 192.401 150.908 191.774 151.395 191.147L153.068 192.61C152.574 193.106 152.152 193.667 151.814 194.279V194.282ZM182.544 192.401C182.056 191.843 181.569 191.355 181.08 190.867L182.614 189.268C183.172 189.826 183.729 190.383 184.213 190.941L182.544 192.401ZM154.462 191.077L152.928 189.478C153.486 188.92 154.113 188.433 154.671 187.944L155.994 189.687C155.507 190.098 155.019 190.586 154.462 191.073V191.077ZM179.478 189.544C178.926 189.109 178.343 188.714 177.736 188.359L178.851 186.478C179.528 186.879 180.179 187.321 180.802 187.801L179.478 189.544ZM157.807 188.499L156.623 186.617C157.273 186.204 157.948 185.832 158.643 185.502L159.619 187.523C158.993 187.805 158.387 188.13 157.806 188.495L157.807 188.499ZM175.924 187.384C175.291 187.086 174.64 186.83 173.973 186.617L174.67 184.527C175.437 184.809 176.134 185.085 176.834 185.363L175.924 187.384ZM161.57 186.756L160.873 184.666C161.596 184.393 162.342 184.183 163.102 184.039L163.591 186.202C162.901 186.321 162.224 186.505 161.569 186.754L161.57 186.756ZM171.953 186.129C171.256 185.99 170.559 185.847 169.862 185.781L170.071 183.551C170.838 183.621 171.605 183.76 172.37 183.899L171.953 186.129ZM165.681 185.781L165.399 183.551C166.165 183.482 166.932 183.412 167.698 183.412V185.642C167.074 185.707 166.377 185.707 165.681 185.778V185.781Z" fill="#F2EDE6"/>
</g>
<path d="M174.119 205.1C174.119 208.044 174.119 210.988 174.119 213.932C174.119 215.287 173.743 215.654 172.398 215.656C169.385 215.659 166.371 215.659 163.358 215.656C162.09 215.656 161.704 215.268 161.7 213.972C161.685 208.084 161.676 202.198 161.672 196.313C161.672 194.771 162.027 194.432 163.576 194.432C166.52 194.432 169.464 194.432 172.408 194.432C173.74 194.432 174.135 194.808 174.141 196.164C174.156 199.142 174.141 202.12 174.141 205.1H174.116M173.494 208.675C173.494 206.841 173.467 205.006 173.508 203.174C173.522 202.53 173.326 202.351 172.689 202.356C169.505 202.387 166.321 202.392 163.138 202.356C162.41 202.347 162.297 202.625 162.302 203.261C162.328 206.825 162.328 210.389 162.302 213.953C162.296 214.749 162.551 215.059 163.379 215.049C166.39 215.013 169.4 215.013 172.41 215.049C173.216 215.058 173.525 214.79 173.506 213.971C173.465 212.208 173.494 210.443 173.493 208.678M166.511 200.641H167.756C169.855 200.641 169.841 200.641 169.692 198.561C169.66 198.126 169.549 197.955 169.092 197.96C167.432 197.981 165.77 197.976 164.106 197.96C163.692 197.96 163.516 198.034 163.485 198.518C163.353 200.641 163.332 200.641 165.472 200.641H166.507" fill="#F2EDE6"/>
<path d="M164.352 207.713C163.853 207.597 163.499 207.356 163.514 206.805C163.505 206.682 163.523 206.559 163.568 206.444C163.613 206.329 163.683 206.226 163.774 206.143C163.864 206.06 163.973 205.998 164.091 205.962C164.209 205.927 164.333 205.919 164.455 205.939C164.569 205.943 164.682 205.971 164.784 206.021C164.887 206.072 164.978 206.144 165.051 206.232C165.124 206.32 165.177 206.423 165.208 206.533C165.238 206.643 165.245 206.759 165.227 206.872C165.193 207.421 164.83 207.636 164.352 207.713Z" fill="#F2EDE6"/>
<path d="M172.289 207.141C172.278 207.388 171.937 207.685 171.442 207.687C171.328 207.696 171.214 207.681 171.107 207.641C171 207.602 170.902 207.54 170.821 207.46C170.74 207.379 170.677 207.283 170.637 207.176C170.597 207.069 170.58 206.955 170.588 206.841C170.573 206.718 170.586 206.594 170.626 206.478C170.667 206.361 170.733 206.255 170.82 206.168C170.908 206.082 171.014 206.016 171.131 205.976C171.247 205.936 171.372 205.924 171.494 205.94C171.979 205.965 172.315 206.287 172.289 207.143" fill="#F2EDE6"/>
<path d="M171.486 210.34C170.994 210.284 170.616 210.082 170.593 209.527C170.573 209.406 170.58 209.282 170.615 209.164C170.651 209.047 170.712 208.939 170.796 208.849C170.88 208.759 170.983 208.689 171.098 208.646C171.213 208.602 171.337 208.586 171.459 208.598C171.572 208.589 171.687 208.604 171.794 208.643C171.901 208.683 171.998 208.745 172.078 208.825C172.159 208.906 172.221 209.003 172.26 209.11C172.3 209.217 172.315 209.331 172.306 209.445C172.323 209.996 171.996 210.248 171.491 210.338" fill="#F2EDE6"/>
<path d="M165.235 204.168C165.243 204.282 165.227 204.395 165.187 204.502C165.148 204.609 165.087 204.706 165.007 204.788C164.928 204.869 164.832 204.933 164.727 204.975C164.621 205.017 164.508 205.036 164.394 205.031C164.281 205.045 164.166 205.034 164.057 204.998C163.949 204.963 163.849 204.904 163.766 204.827C163.682 204.749 163.617 204.654 163.574 204.548C163.531 204.442 163.512 204.328 163.518 204.214C163.498 204.093 163.507 203.968 163.544 203.851C163.581 203.733 163.644 203.626 163.73 203.537C163.815 203.449 163.92 203.381 164.036 203.34C164.152 203.299 164.277 203.286 164.399 203.302C164.512 203.297 164.626 203.316 164.732 203.358C164.837 203.401 164.933 203.465 165.012 203.547C165.091 203.629 165.152 203.726 165.191 203.833C165.229 203.941 165.245 204.055 165.236 204.168" fill="#F2EDE6"/>
<path d="M168.768 209.514C168.771 209.627 168.749 209.739 168.705 209.842C168.661 209.946 168.596 210.039 168.514 210.115C168.431 210.192 168.333 210.25 168.227 210.287C168.12 210.323 168.008 210.337 167.895 210.326C167.782 210.337 167.667 210.322 167.56 210.283C167.452 210.244 167.355 210.182 167.274 210.101C167.193 210.02 167.131 209.923 167.092 209.815C167.053 209.708 167.038 209.593 167.049 209.48C167.034 209.357 167.048 209.233 167.089 209.117C167.13 209.001 167.198 208.896 167.287 208.811C167.376 208.726 167.484 208.662 167.601 208.626C167.719 208.589 167.844 208.581 167.965 208.601C168.498 208.629 168.752 208.977 168.765 209.517" fill="#F2EDE6"/>
<path d="M164.296 208.575C164.861 208.624 165.198 208.87 165.227 209.409C165.246 209.531 165.237 209.655 165.199 209.772C165.162 209.889 165.098 209.996 165.013 210.085C164.927 210.173 164.822 210.241 164.706 210.281C164.59 210.322 164.466 210.336 164.344 210.321C164.231 210.329 164.117 210.312 164.01 210.272C163.904 210.231 163.808 210.167 163.729 210.085C163.65 210.003 163.59 209.905 163.553 209.797C163.516 209.689 163.504 209.575 163.516 209.462C163.506 209.242 163.581 209.026 163.726 208.861C163.872 208.695 164.076 208.593 164.295 208.576" fill="#F2EDE6"/>
<path d="M167.945 205.046C167.833 205.053 167.72 205.037 167.614 205C167.508 204.963 167.41 204.905 167.327 204.829C167.244 204.753 167.176 204.661 167.129 204.559C167.082 204.456 167.056 204.346 167.053 204.233C167.031 204.121 167.035 204.006 167.063 203.896C167.092 203.785 167.144 203.683 167.216 203.595C167.289 203.507 167.38 203.436 167.483 203.387C167.586 203.338 167.698 203.313 167.812 203.312C167.932 203.286 168.056 203.289 168.175 203.32C168.294 203.351 168.404 203.409 168.497 203.49C168.589 203.571 168.661 203.673 168.707 203.786C168.754 203.9 168.773 204.023 168.763 204.146C168.771 204.259 168.756 204.373 168.719 204.481C168.682 204.588 168.623 204.687 168.547 204.771C168.47 204.855 168.377 204.923 168.274 204.97C168.17 205.018 168.059 205.043 167.945 205.046Z" fill="#F2EDE6"/>
<path d="M171.443 203.286C171.556 203.282 171.668 203.301 171.773 203.342C171.879 203.383 171.974 203.445 172.054 203.525C172.135 203.604 172.198 203.699 172.24 203.803C172.282 203.908 172.303 204.02 172.3 204.133C172.307 204.248 172.29 204.364 172.251 204.473C172.211 204.582 172.15 204.682 172.071 204.767C171.992 204.852 171.897 204.92 171.791 204.966C171.685 205.013 171.57 205.038 171.454 205.04C171.338 205.041 171.223 205.019 171.116 204.975C171.009 204.93 170.912 204.865 170.831 204.782C170.75 204.699 170.686 204.601 170.644 204.493C170.602 204.385 170.583 204.269 170.586 204.153C170.586 203.613 170.918 203.352 171.443 203.29" fill="#F2EDE6"/>
<path d="M167.903 205.916C168.391 206.01 168.75 206.235 168.764 206.782C168.769 206.897 168.75 207.011 168.709 207.119C168.669 207.227 168.607 207.325 168.527 207.409C168.448 207.492 168.353 207.558 168.247 207.604C168.141 207.65 168.027 207.674 167.912 207.675C167.797 207.676 167.683 207.653 167.577 207.609C167.47 207.565 167.374 207.5 167.293 207.418C167.213 207.336 167.149 207.238 167.107 207.131C167.065 207.024 167.044 206.91 167.047 206.795C167.059 206.248 167.409 206.012 167.903 205.916Z" fill="#F2EDE6"/>
<path d="M167.901 211.258C168.017 211.256 168.131 211.278 168.238 211.321C168.345 211.364 168.442 211.428 168.524 211.51C168.605 211.592 168.669 211.689 168.712 211.796C168.755 211.904 168.776 212.018 168.773 212.134C168.77 212.249 168.744 212.363 168.697 212.468C168.649 212.573 168.581 212.667 168.496 212.745C168.411 212.823 168.311 212.883 168.202 212.922C168.093 212.96 167.978 212.976 167.863 212.969C167.749 212.975 167.636 212.957 167.53 212.915C167.425 212.873 167.33 212.808 167.253 212.725C167.175 212.641 167.118 212.542 167.083 212.434C167.049 212.326 167.039 212.211 167.054 212.099C167.046 211.986 167.063 211.872 167.103 211.767C167.143 211.661 167.205 211.565 167.285 211.485C167.366 211.406 167.462 211.344 167.568 211.305C167.674 211.266 167.788 211.25 167.901 211.258Z" fill="#F2EDE6"/>
<path d="M172.31 212.107C172.25 212.671 171.972 212.975 171.437 212.967C171.315 212.98 171.191 212.963 171.077 212.92C170.962 212.876 170.859 212.806 170.777 212.715C170.695 212.624 170.635 212.515 170.602 212.397C170.57 212.279 170.565 212.155 170.59 212.035C170.589 211.921 170.612 211.809 170.66 211.706C170.707 211.603 170.776 211.512 170.863 211.439C170.949 211.366 171.051 211.312 171.16 211.283C171.27 211.254 171.384 211.249 171.496 211.27C171.605 211.268 171.713 211.289 171.814 211.331C171.915 211.373 172.006 211.435 172.081 211.514C172.157 211.592 172.216 211.685 172.255 211.787C172.293 211.889 172.311 211.998 172.306 212.107" fill="#F2EDE6"/>
<path d="M164.382 211.26C164.494 211.252 164.606 211.267 164.711 211.306C164.816 211.344 164.912 211.405 164.992 211.483C165.071 211.562 165.133 211.656 165.174 211.761C165.214 211.865 165.231 211.977 165.224 212.089C165.24 212.201 165.231 212.315 165.198 212.423C165.165 212.532 165.108 212.631 165.032 212.715C164.956 212.799 164.862 212.865 164.758 212.908C164.653 212.951 164.54 212.971 164.427 212.966C164.307 212.986 164.183 212.978 164.066 212.943C163.95 212.907 163.843 212.844 163.755 212.759C163.667 212.674 163.6 212.57 163.559 212.454C163.519 212.339 163.506 212.216 163.522 212.095C163.528 211.557 163.845 211.293 164.382 211.26Z" fill="#F2EDE6"/>
<path d="M47.5363 70.9833C57.0747 70.9833 64.807 63.251 64.807 53.7128C64.807 44.1745 57.0747 36.4423 47.5363 36.4423C37.998 36.4423 30.2656 44.1745 30.2656 53.7128C30.2656 63.251 37.998 70.9833 47.5363 70.9833Z" fill="#508B82"/>
<g opacity="0.696">
<path d="M47.3023 77.6739C46.4622 77.6739 45.6222 77.5977 44.783 77.5215L45.0116 75.0757C45.7755 75.1519 46.5384 75.2281 47.3023 75.2281H47.5271V77.6739H47.3023ZM50.1245 77.5215L49.8187 75.0757C50.5826 74.9995 51.3455 74.8471 52.1094 74.6937L52.6437 77.0606L50.1245 77.5215ZM42.1838 77.1396C41.3478 76.9921 40.5285 76.7621 39.738 76.4529L40.5018 74.1622C41.2657 74.3908 41.9524 74.6204 42.7163 74.7728L42.1838 77.1396ZM55.0877 76.3757L54.2476 74.0851C54.9344 73.8556 55.6982 73.5508 56.3859 73.245L57.4546 75.4595C56.6935 75.768 55.8534 76.0747 55.0896 76.3785L55.0877 76.3757ZM37.3739 75.4595C36.6101 75.0775 35.8471 74.6956 35.0833 74.2365L36.3062 72.1754C36.9929 72.5574 37.6806 72.9393 38.3673 73.2441L37.3739 75.4595ZM59.669 74.1613L58.3708 72.1002C59.0361 71.7118 59.6739 71.2781 60.2795 70.802L61.8063 72.7107C61.1215 73.1717 60.4348 73.706 59.6709 74.1641L59.669 74.1613ZM32.946 72.8659C32.2592 72.3316 31.6478 71.7973 30.961 71.1858L32.6412 69.4295C33.1916 69.9539 33.7785 70.4386 34.3975 70.8801L32.946 72.8659ZM63.716 71.0334L62.0359 69.2771C62.5841 68.7541 63.0943 68.1926 63.5627 67.597L65.3952 69.1238C64.8994 69.8133 64.3376 70.4528 63.7179 71.0334H63.716ZM29.2856 69.3533C28.7165 68.7129 28.2056 68.0232 27.7588 67.2922L29.7409 65.915L31.1153 67.7475L29.2856 69.3533ZM67 67.0636L65.0151 65.6892C65.4694 65.0722 65.8533 64.4065 66.16 63.7043L68.2982 64.8492C67.911 65.6131 67.4775 66.3526 67 67.0636ZM26.3816 65.1549C25.9997 64.3911 25.6177 63.6281 25.3129 62.8643L27.6036 61.948C27.9093 62.6348 28.2141 63.3224 28.5961 64.0091L26.3816 65.1549ZM69.3726 62.5586L67.0819 61.6423C67.3906 60.9313 67.6209 60.1888 67.7686 59.4279L70.1355 60.0384C69.9254 60.8917 69.6692 61.733 69.3678 62.5586H69.3726ZM24.4729 60.4213C24.2443 59.5812 24.0909 58.7411 23.9385 57.902L26.3054 57.5201C26.4385 58.2684 26.617 59.0079 26.8397 59.7345L24.4729 60.4213ZM70.6623 57.5991L68.2954 57.2172C68.4478 56.4533 68.4478 55.6904 68.524 54.9266L70.9699 55.0027C70.8946 55.9162 70.8184 56.7562 70.6689 57.5963L70.6623 57.5991ZM23.6328 55.379V52.7827L26.0787 52.9351V55.2257L23.6328 55.379ZM68.4516 52.6303C68.3754 51.8664 68.2992 51.1035 68.1459 50.3396L70.5127 49.9577C70.6651 50.7978 70.7413 51.6378 70.8184 52.4769L68.4516 52.6303ZM26.3073 50.6454L23.9404 50.2634C24.0928 49.4234 24.2462 48.5833 24.4748 47.7442L26.8416 48.3547C26.5907 49.1005 26.4111 49.8685 26.3054 50.6482L26.3073 50.6454ZM67.6905 48.1261C67.4822 47.3977 67.227 46.6835 66.9267 45.9879L69.1411 45.0717C69.4669 45.8705 69.7474 46.6871 69.9812 47.5175L67.6905 48.1261ZM27.5265 46.2193L25.232 45.3031C25.542 44.5188 25.8988 43.7538 26.3007 43.0124L28.439 44.1573C28.0891 44.8235 27.7842 45.5124 27.5265 46.2193ZM65.9314 43.9287C65.5495 43.242 65.1675 42.6305 64.7085 41.9438L66.6934 40.5694C67.1515 41.2561 67.6096 42.02 68.0678 42.7838L65.9314 43.9287ZM29.6638 42.1724L27.6779 40.798C28.136 40.1113 28.6704 39.4236 29.2047 38.7369L31.0372 40.3361C30.4961 40.8814 30.0341 41.4998 29.6647 42.1733L29.6638 42.1724ZM63.335 40.1113C62.8007 39.5008 62.2663 38.9664 61.7358 38.4312L63.4159 36.6749C64.0264 37.2854 64.6388 37.8978 65.1722 38.5074L63.335 40.1113ZM32.5697 38.6607L30.8895 36.9044C31.5001 36.2939 32.1877 35.7596 32.7983 35.2243L34.2488 37.133C33.7117 37.5921 33.1764 38.1264 32.5697 38.6607ZM59.9804 36.9806C59.3747 36.5045 58.737 36.0708 58.0717 35.6824L59.2946 33.6213C60.0365 34.0605 60.7506 34.5449 61.4329 35.0719L59.9804 36.9806ZM36.2347 35.8357L34.9365 33.7746C35.6489 33.3219 36.3884 32.9135 37.151 32.5517L38.214 34.7671C37.5293 35.0774 36.8667 35.4345 36.2309 35.8357H36.2347ZM56.0839 34.6128C55.39 34.287 54.6758 34.0064 53.9457 33.7728L54.7095 31.4821C55.5496 31.7879 56.3088 32.0927 57.0764 32.3984L56.0839 34.6128ZM40.3541 33.9308L39.5903 31.6402C40.3841 31.3408 41.2025 31.111 42.0361 30.9535L42.5705 33.3203C41.8138 33.4523 41.0716 33.6567 40.3541 33.9308ZM51.7303 33.2441C50.9664 33.0917 50.2035 32.9384 49.4396 32.8622L49.6682 30.4163C50.5083 30.4925 51.3483 30.6449 52.1875 30.7982L51.7303 33.2441ZM44.863 32.8622L44.5573 30.4163C45.3973 30.3401 46.2374 30.2639 47.0765 30.2639V32.7098C46.386 32.7813 45.6222 32.7813 44.8583 32.8584L44.863 32.8622Z" fill="#F2EDE6"/>
</g>
<path d="M43.1602 41.3876C43.1724 41.2224 43.2312 41.064 43.3298 40.9308C43.4283 40.7976 43.5626 40.695 43.7171 40.635C44.1955 40.4053 44.7219 40.2934 45.2523 40.3086H49.3576C49.8885 40.2949 50.4149 40.4084 50.8929 40.6397C51.0473 40.6997 51.1816 40.8023 51.2802 40.9355C51.3788 41.0687 51.4376 41.2271 51.4498 41.3923V64.0146C51.4506 64.2336 51.3955 64.4493 51.2899 64.6412C51.1842 64.8331 51.0314 64.9949 50.8459 65.1114C50.4015 65.3932 49.8837 65.5373 49.3576 65.5253H45.2523C44.7263 65.5373 44.2085 65.3932 43.7641 65.1114C43.5786 64.9949 43.4258 64.8331 43.3201 64.6412C43.2144 64.4493 43.1594 64.2336 43.1602 64.0146V41.3876Z" fill="#04594C" stroke="#F2EDE6"/>
<path d="M49.7034 56.8887H44.9048C44.5151 56.8887 44.1992 57.2046 44.1992 57.5942V62.6599C44.1992 63.0496 44.5151 63.3655 44.9048 63.3655H49.7034C50.093 63.3655 50.4089 63.0496 50.4089 62.6599V57.5942C50.4089 57.2046 50.093 56.8887 49.7034 56.8887Z" fill="#F2EDE6"/>
<path d="M49.0965 53.757C49.0965 52.8286 48.3439 52.0759 47.4154 52.0759C46.487 52.0759 45.7344 52.8286 45.7344 53.757C45.7344 54.6854 46.487 55.438 47.4154 55.438C48.3439 55.438 49.0965 54.6854 49.0965 53.757Z" fill="#F2EDE6"/>
<path d="M48.9319 43.11H45.6798C45.0304 43.11 44.5039 43.6364 44.5039 44.2859V49.7787C44.5039 50.4281 45.0304 50.9546 45.6798 50.9546H48.9319C49.5813 50.9546 50.1078 50.4281 50.1078 49.7787V44.2859C50.1078 43.6364 49.5813 43.11 48.9319 43.11Z" fill="#F2EDE6"/>
<path d="M47.1328 41.6906H47.5646" stroke="#F2EDE6" stroke-linecap="round" stroke-linejoin="round"/>
<path d="M225.651 150.248C233.07 150.248 239.084 144.234 239.084 136.815C239.084 129.397 233.07 123.383 225.651 123.383C218.233 123.383 212.219 129.397 212.219 136.815C212.219 144.234 218.233 150.248 225.651 150.248Z" fill="#508B82"/>
<g opacity="0.696">
<path d="M225.471 155.452C224.819 155.452 224.165 155.393 223.512 155.334L223.69 153.434C224.283 153.493 224.878 153.552 225.471 153.552H225.649V155.452H225.471ZM227.669 155.334L227.431 153.434C228.025 153.374 228.619 153.256 229.213 153.136L229.629 154.977L227.669 155.334ZM221.493 155.037C220.844 154.922 220.207 154.743 219.593 154.502L220.187 152.721C220.78 152.898 221.315 153.077 221.909 153.196L221.493 155.037ZM231.529 154.443L230.876 152.661C231.41 152.484 232.005 152.246 232.539 152.009L233.371 153.731C232.775 153.969 232.122 154.205 231.529 154.443ZM217.752 153.73C217.158 153.433 216.564 153.136 215.97 152.78L216.92 151.181C217.455 151.478 217.989 151.774 218.52 152.012L217.752 153.73ZM235.096 152.724L234.087 151.125C234.603 150.821 235.097 150.481 235.566 150.109L236.754 151.594C236.22 151.95 235.686 152.366 235.096 152.724ZM214.306 151.712C213.772 151.296 213.297 150.881 212.762 150.406L214.069 149.04C214.497 149.448 214.954 149.825 215.435 150.168L214.306 151.712ZM238.238 150.287L236.931 148.921C237.358 148.514 237.755 148.078 238.119 147.614L239.545 148.803C239.159 149.339 238.72 149.836 238.238 150.287ZM211.456 148.98C211.013 148.484 210.615 147.948 210.268 147.381L211.811 146.313L212.88 147.738L211.456 148.98ZM240.791 147.199L239.247 146.13C239.601 145.65 239.9 145.132 240.138 144.586L241.801 145.477C241.5 146.071 241.163 146.647 240.792 147.2L240.791 147.199ZM209.201 145.714C208.903 145.121 208.607 144.526 208.369 143.933L210.151 143.219C210.389 143.754 210.626 144.288 210.923 144.819L209.201 145.714ZM242.634 143.695L240.852 142.983C241.092 142.43 241.272 141.853 241.387 141.261L243.228 141.736C243.065 142.399 242.866 143.052 242.633 143.694L242.634 143.695ZM207.715 142.033C207.538 141.38 207.418 140.727 207.3 140.074L209.141 139.776C209.244 140.358 209.383 140.934 209.556 141.499L207.715 142.033ZM243.642 139.837L241.801 139.539C241.92 138.946 241.92 138.351 241.979 137.758L243.88 137.817C243.821 138.529 243.762 139.178 243.642 139.837ZM207.062 138.113V136.094L208.963 136.213V137.995L207.062 138.113ZM241.921 135.98C241.862 135.386 241.802 134.792 241.684 134.198L243.525 133.901C243.643 134.554 243.703 135.207 243.763 135.86L241.921 135.98ZM209.141 134.432L207.3 134.135C207.418 133.482 207.538 132.828 207.715 132.175L209.556 132.651C209.362 133.23 209.223 133.827 209.141 134.432ZM241.326 132.473C241.164 131.906 240.966 131.351 240.733 130.81L242.455 130.097C242.708 130.717 242.926 131.352 243.108 131.997L241.326 132.473ZM210.094 130.988L208.313 130.275C208.554 129.665 208.832 129.07 209.144 128.494L210.808 129.384C210.533 129.902 210.294 130.438 210.091 130.987L210.094 130.988ZM239.961 129.207C239.664 128.672 239.368 128.197 239.011 127.663L240.555 126.594C240.912 127.129 241.268 127.723 241.624 128.317L239.961 129.207ZM211.754 127.841L210.21 126.772C210.567 126.238 210.982 125.703 211.398 125.173L212.823 126.42C212.403 126.842 212.043 127.32 211.754 127.841ZM237.942 126.241C237.526 125.766 237.11 125.351 236.694 124.935L238.001 123.569C238.476 124.044 238.951 124.519 239.367 124.994L237.942 126.241ZM214.01 125.113L212.707 123.743C213.182 123.273 213.716 122.852 214.191 122.436L215.32 123.921C214.902 124.277 214.486 124.691 214.011 125.109L214.01 125.113ZM235.328 123.806C234.857 123.436 234.361 123.099 233.844 122.797L234.794 121.197C235.371 121.539 235.927 121.916 236.457 122.326L235.328 123.806ZM216.86 122.915L215.852 121.305C216.406 120.953 216.981 120.636 217.574 120.355L218.406 122.077C217.872 122.319 217.356 122.598 216.861 122.911L216.86 122.915ZM232.3 121.965C231.761 121.709 231.206 121.489 230.638 121.305L231.232 119.523C231.884 119.76 232.479 119.998 233.072 120.236L232.3 121.965ZM220.071 121.431L219.477 119.649C220.094 119.416 220.73 119.237 221.377 119.115L221.793 120.956C221.204 121.057 220.627 121.215 220.068 121.427L220.071 121.431ZM228.919 120.896C228.326 120.778 227.731 120.658 227.137 120.599L227.315 118.699C227.968 118.758 228.622 118.877 229.275 118.996L228.919 120.896ZM223.575 120.599L223.337 118.699C223.99 118.64 224.644 118.58 225.296 118.58V120.481C224.758 120.536 224.165 120.536 223.571 120.595L223.575 120.599Z" fill="#F2EDE6"/>
</g>
<path d="M218.504 139.734C218.511 139.187 218.662 138.652 218.943 138.182C219.95 136.432 220.956 134.681 221.959 132.929C222.791 131.483 223.62 130.037 224.446 128.591C224.522 128.426 224.645 128.287 224.798 128.19C224.952 128.094 225.131 128.045 225.312 128.049C225.459 128.043 225.606 128.077 225.736 128.146C225.866 128.216 225.976 128.319 226.053 128.445C226.303 128.834 226.532 129.235 226.741 129.648C226.854 129.875 226.906 130.127 226.893 130.38C226.879 130.633 226.8 130.878 226.664 131.092L224.6 134.656L220.224 142.229C220.19 142.287 220.159 142.347 220.12 142.401C220.08 142.471 220.022 142.529 219.952 142.569C219.882 142.609 219.803 142.63 219.723 142.63C219.642 142.63 219.563 142.609 219.493 142.569C219.423 142.529 219.365 142.471 219.325 142.401C219.171 142.152 219.041 141.888 218.937 141.614C218.688 141.016 218.542 140.381 218.504 139.734Z" fill="#F2EDE6"/>
<path d="M228.199 143.892C228.204 144.316 228.045 144.726 227.755 145.035C227.607 145.195 227.45 145.347 227.293 145.498C227.065 145.744 226.763 145.907 226.433 145.962C226.102 146.017 225.763 145.961 225.469 145.802C224.551 145.372 223.636 144.937 222.721 144.505C222.539 144.419 222.356 144.337 222.178 144.244C221.99 144.153 221.824 144.025 221.688 143.866C221.553 143.708 221.451 143.524 221.39 143.325C221.329 143.125 221.31 142.916 221.334 142.709C221.358 142.502 221.424 142.302 221.529 142.122C221.933 141.398 222.347 140.68 222.773 139.969C222.865 139.8 222.996 139.656 223.155 139.548C223.314 139.441 223.496 139.372 223.686 139.349C223.877 139.326 224.07 139.348 224.25 139.414C224.431 139.48 224.592 139.588 224.723 139.73C225.711 140.709 226.698 141.695 227.678 142.677C227.842 142.834 227.973 143.022 228.062 143.231C228.151 143.44 228.197 143.664 228.197 143.891" fill="#F2EDE6"/>
<path d="M228.776 138.341C229.447 138.341 230.118 138.332 230.789 138.341C231.08 138.339 231.368 138.413 231.622 138.556C231.876 138.699 232.089 138.905 232.238 139.156C232.398 139.396 232.47 139.684 232.443 139.972C232.415 140.259 232.289 140.528 232.086 140.733C231.607 141.227 231.121 141.714 230.622 142.188C230.492 142.317 230.337 142.418 230.166 142.486C229.995 142.554 229.813 142.587 229.629 142.582C229.446 142.578 229.265 142.537 229.098 142.461C228.931 142.385 228.78 142.277 228.656 142.141C228.063 141.56 227.479 140.968 226.891 140.381C226.654 140.144 226.413 139.911 226.18 139.668C226.066 139.559 225.988 139.417 225.956 139.261C225.925 139.106 225.943 138.945 226.006 138.799C226.069 138.654 226.176 138.532 226.311 138.449C226.446 138.366 226.603 138.327 226.762 138.336C227.433 138.336 228.104 138.336 228.776 138.336" fill="#F2EDE6"/>
<path d="M227.607 137.277C227.136 137.277 226.666 137.282 226.196 137.277C225.928 137.281 225.669 137.185 225.469 137.008C225.27 136.83 225.143 136.584 225.116 136.319C225.089 136.075 225.146 135.829 225.277 135.621C225.626 135.02 225.974 134.418 226.321 133.815C226.438 133.612 226.551 133.407 226.674 133.207C226.781 133.018 226.936 132.86 227.124 132.751C227.312 132.642 227.525 132.585 227.742 132.585C227.96 132.586 228.173 132.644 228.36 132.754C228.547 132.865 228.701 133.023 228.807 133.212C229.24 133.939 229.662 134.672 230.075 135.41C230.192 135.598 230.256 135.816 230.259 136.038C230.262 136.26 230.205 136.479 230.093 136.671C229.981 136.863 229.819 137.02 229.625 137.127C229.43 137.234 229.21 137.286 228.988 137.277C228.527 137.277 228.066 137.277 227.604 137.277" fill="#F2EDE6"/>
<path d="M81.4329 218.458C87.8981 218.458 93.1392 213.217 93.1392 206.752C93.1392 200.287 87.8981 195.046 81.4329 195.046C74.9677 195.046 69.7266 200.287 69.7266 206.752C69.7266 213.217 74.9677 218.458 81.4329 218.458Z" fill="#508B82"/>
<g opacity="0.696">
<path d="M81.2745 222.995C80.7053 222.995 80.1362 222.944 79.5671 222.892L79.7223 221.236C80.2397 221.288 80.7571 221.34 81.2745 221.34H81.4297V222.995H81.2745ZM83.1898 222.892L82.9828 221.236C83.5002 221.184 84.0176 221.081 84.535 220.977L84.8972 222.581L83.1898 222.892ZM77.807 222.633C77.2409 222.531 76.6863 222.374 76.1513 222.163L76.6687 220.611C77.1861 220.766 77.6517 220.921 78.1739 221.024L77.807 222.633ZM86.5557 222.116L85.9865 220.563C86.4569 220.408 86.9696 220.201 87.4352 219.994L88.1596 221.5C87.6394 221.702 87.0702 221.909 86.5529 222.116H86.5557ZM74.5493 221.495C74.0319 221.236 73.5145 220.977 72.9971 220.667L73.8249 219.27C74.2953 219.529 74.7562 219.787 75.2219 219.994L74.5493 221.495ZM89.661 220.615L88.7814 219.218C89.2323 218.955 89.6645 218.661 90.0749 218.339L91.1097 219.632C90.6412 219.942 90.1756 220.301 89.6582 220.615H89.661ZM71.5446 219.737C71.0742 219.374 70.665 219.012 70.1994 218.598L71.3376 217.408C71.7106 217.764 72.1083 218.092 72.5276 218.391L71.5446 219.737ZM92.4013 218.495L91.263 217.305C91.6346 216.951 91.9804 216.57 92.2978 216.167L93.5396 217.201C93.203 217.668 92.8217 218.1 92.4013 218.493V218.495ZM69.0601 217.357C68.6744 216.923 68.3281 216.455 68.0254 215.96L69.3706 215.028L70.3019 216.27L69.0601 217.357ZM94.6261 215.804L93.2809 214.873C93.5888 214.455 93.8491 214.004 94.057 213.528L95.5057 214.304C95.2432 214.821 94.9495 215.321 94.6261 215.802V215.804ZM67.094 214.508C66.8353 213.991 66.5766 213.473 66.3697 212.956L67.9219 212.335C68.1288 212.805 68.3358 213.266 68.5945 213.732L67.094 214.508ZM96.231 212.748L94.6788 212.127C94.89 211.644 95.0477 211.139 95.1492 210.622L96.7531 211.036C96.6102 211.616 96.436 212.187 96.231 212.748ZM65.7996 211.299C65.6444 210.73 65.5409 210.161 65.4374 209.592L67.0414 209.333C67.1314 209.842 67.2524 210.345 67.4035 210.838L65.7996 211.299ZM97.1106 209.389L95.5066 209.13C95.6101 208.613 95.6101 208.095 95.6619 207.578L97.3175 207.63C97.2658 208.246 97.215 208.815 97.1106 209.389ZM65.2305 207.884V206.124L66.8861 206.227V207.779L65.2305 207.884ZM95.6101 206.02C95.5584 205.503 95.5066 204.985 95.4032 204.468L97.0071 204.209C97.1106 204.778 97.1623 205.347 97.214 205.918L95.6101 206.02ZM67.0423 204.675L65.4384 204.416C65.5418 203.847 65.6453 203.278 65.8005 202.708L67.4045 203.122C67.2349 203.627 67.1136 204.147 67.0423 204.675ZM95.0927 202.967C94.9516 202.474 94.7787 201.99 94.5753 201.519L96.0805 200.898C96.3011 201.439 96.4911 201.991 96.6496 202.554L95.0927 202.967ZM67.8701 201.675L66.3179 201.054C66.528 200.523 66.7699 200.004 67.0423 199.502L68.491 200.278C68.2531 200.729 68.0457 201.196 67.8701 201.675ZM93.9027 200.123C93.644 199.652 93.3853 199.243 93.0749 198.778L94.4201 197.846C94.7305 198.317 95.041 198.829 95.3514 199.351L93.9027 200.123ZM69.3188 198.93L67.9736 197.999C68.284 197.528 68.6462 197.067 69.0084 196.602L70.2502 197.688C69.8833 198.057 69.5698 198.475 69.3188 198.93ZM92.1426 197.536C91.7804 197.122 91.4183 196.76 91.0561 196.398L92.1944 195.208C92.6083 195.621 93.0222 196.035 93.3844 196.449L92.1426 197.536ZM71.2859 196.553L70.1476 195.363C70.5615 194.949 71.0272 194.587 71.4411 194.224L72.4242 195.518C72.062 195.825 71.6998 196.188 71.2859 196.55V196.553ZM89.8651 195.415C89.4547 195.092 89.0225 194.798 88.5716 194.535L89.3995 193.138C89.9021 193.436 90.3859 193.764 90.8482 194.121L89.8651 195.415ZM73.7694 194.638L72.8898 193.241C73.374 192.935 73.8767 192.658 74.395 192.414L75.1193 193.919C74.6535 194.126 74.2024 194.365 73.7694 194.635V194.638ZM87.2217 193.811C86.7516 193.59 86.2677 193.4 85.773 193.241L86.2904 191.689C86.8595 191.896 87.3769 192.103 87.8943 192.31L87.2217 193.811ZM76.5605 193.34L76.0488 191.788C76.586 191.584 77.1399 191.426 77.7044 191.318L78.0666 192.922C77.5535 193.013 77.0504 193.153 76.5643 193.341L76.5605 193.34ZM84.2744 192.87C83.757 192.766 83.2396 192.663 82.7222 192.611L82.8775 190.956C83.4466 191.007 84.0157 191.111 84.5849 191.214L84.2744 192.87ZM79.6169 192.611L79.41 190.956C79.9791 190.904 80.5482 190.852 81.1174 190.852V192.508C80.6526 192.564 80.1353 192.564 79.6179 192.617L79.6169 192.611Z" fill="#F2EDE6"/>
</g>
<path d="M80.7898 209.976L78.199 207.398H73.1445L80.7898 215.018V209.976Z" fill="#F2EDE6"/>
<path d="M81.7383 215.06L89.3798 207.398H84.3365L81.7383 210.001V215.06Z" fill="#F2EDE6"/>
<path d="M81.7383 198.797V203.84L84.3535 206.451H89.4127L81.7383 198.797Z" fill="#F2EDE6"/>
<path d="M80.7822 198.793L73.1445 206.451H78.1877L80.7822 203.848V198.793Z" fill="#F2EDE6"/>
<g opacity="0.4">
<path d="M125.074 38.2577V68.3605" stroke="#B2D0CB" stroke-width="2" stroke-dasharray="2 2"/>
<path d="M146.711 86.234L189.043 64.5977" stroke="#B2D0CB" stroke-width="2" stroke-dasharray="2 2"/>
<path d="M149.531 111.633L200.33 133.27" stroke="#B2D0CB" stroke-width="2" stroke-dasharray="2 2"/>
<path d="M142.008 162.432L157.059 180.305" stroke="#B2D0CB" stroke-width="2" stroke-dasharray="2 2"/>
<path d="M110.967 160.55L92.1523 188.772" stroke="#B2D0CB" stroke-width="2" stroke-dasharray="2 2"/>
<path d="M49.8164 131.388L97.7932 110.693" stroke="#B2D0CB" stroke-width="2" stroke-dasharray="2 2"/>
<path d="M70.5117 70.2418L97.7926 86.2339" stroke="#B2D0CB" stroke-width="2" stroke-dasharray="2 2"/>
</g>
<path d="M143.396 151.367L140.921 149.608L131.085 135.714V135.699L137.42 126.737L139.902 124.971H136.719L137.175 126.1L122.725 146.526V109.985L123.948 108.235H123.956L123.948 108.227L122.725 106.476V105.798C122.898 105.729 123.066 105.648 123.227 105.555L131.732 100.682C132.491 100.246 133.122 99.617 133.561 98.8589C133.999 98.1009 134.23 97.2405 134.229 96.3647L134.191 86.5663C134.186 85.7007 133.955 84.8515 133.521 84.1025C133.087 83.3535 132.466 82.7307 131.717 82.2954L123.137 77.3464C122.388 76.9138 121.538 76.6849 120.673 76.6823C119.807 76.6796 118.956 76.9034 118.204 77.3313L109.692 82.2042C108.933 82.6394 108.302 83.2682 107.865 84.0266C107.428 84.785 107.199 85.6457 107.203 86.5211L107.241 96.3196C107.245 97.1855 107.475 98.0353 107.909 98.7845C108.343 99.5338 108.966 100.156 109.715 100.59L118.295 105.539C118.617 105.725 118.959 105.874 119.315 105.981V106.476L118.082 108.227L118.074 108.235H118.082L119.315 109.985V149.614L118.074 151.373H123.959L122.726 149.614V147.52L128.992 138.666L137.344 150.497L136.727 151.373L143.396 151.367ZM109.906 96.3064L109.867 86.5004C109.866 86.0971 109.971 85.7005 110.173 85.3514C110.375 85.0023 110.666 84.7132 111.017 84.5137L119.529 79.6408C119.875 79.4417 120.268 79.3376 120.668 79.3389C121.068 79.3403 121.46 79.447 121.805 79.6483L130.385 84.5974C130.731 84.7995 131.017 85.0878 131.218 85.4342C131.418 85.7805 131.525 86.1728 131.527 86.5728L131.566 96.3788C131.566 96.7819 131.46 97.1778 131.258 97.5267C131.056 97.8756 130.766 98.1649 130.416 98.3656L123.382 102.393H118.169L111.043 98.2819C110.698 98.0812 110.411 97.7937 110.211 97.448C110.011 97.1024 109.905 96.7104 109.903 96.3111L109.906 96.3064Z" fill="#F2EDE6"/>
</svg>
