<svg width="10" height="11" viewBox="0 0 10 11" fill="none" xmlns="http://www.w3.org/2000/svg">
<path d="M5 5.8125C5.69036 5.8125 6.25 5.25286 6.25 4.5625C6.25 3.87214 5.69036 3.3125 5 3.3125C4.30964 3.3125 3.75 3.87214 3.75 4.5625C3.75 5.25286 4.30964 5.8125 5 5.8125Z" stroke="#A5A5A5" stroke-linecap="round" stroke-linejoin="round"/>
<path d="M8.125 4.5625C8.125 7.375 5 9.5625 5 9.5625C5 9.5625 1.875 7.375 1.875 4.5625C1.875 3.7337 2.20424 2.93884 2.79029 2.35279C3.37634 1.76674 4.1712 1.4375 5 1.4375C5.8288 1.4375 6.62366 1.76674 7.20971 2.35279C7.79576 2.93884 8.125 3.7337 8.125 4.5625V4.5625Z" stroke="#A5A5A5" stroke-linecap="round" stroke-linejoin="round"/>
</svg>
