<svg xmlns="http://www.w3.org/2000/svg" width="278.027" height="201.554" viewBox="0 0 278.027 201.554">
  <g id="illustration" transform="translate(-51.999 -393)">
    <g id="background" transform="translate(0.063 170.001)">
      <circle id="Ellipse_1999" data-name="Ellipse 1999" cx="100.777" cy="100.777" r="100.777" transform="translate(83.279 222.999)" fill="#073b36" opacity="0.26"/>
      <path id="Path_25534" data-name="Path 25534" d="M122.53,21.4a5.9,5.9,0,1,0-5.9-5.9A5.9,5.9,0,0,0,122.53,21.4Z" transform="translate(189.572 307.115)" fill="#073b36" opacity="0.2"/>
      <g id="Group_41131" data-name="Group 41131" transform="translate(60.255 39.5)">
        <g id="Group_40642" data-name="Group 40642" transform="translate(47.898 362.053)">
          <g id="Group_40641" data-name="Group 40641">
            <rect id="Rectangle_7701" data-name="Rectangle 7701" width="1.822" height="3.536" fill="#508b82"/>
          </g>
        </g>
        <g id="Group_40644" data-name="Group 40644" transform="translate(47.898 371.796)">
          <g id="Group_40643" data-name="Group 40643" transform="translate(0 0)">
            <rect id="Rectangle_7702" data-name="Rectangle 7702" width="1.822" height="3.536" fill="#508b82"/>
          </g>
        </g>
        <g id="Group_40646" data-name="Group 40646" transform="translate(51.913 367.782)">
          <g id="Group_40645" data-name="Group 40645">
            <rect id="Rectangle_7703" data-name="Rectangle 7703" width="3.536" height="1.822" fill="#508b82"/>
          </g>
        </g>
        <g id="Group_40648" data-name="Group 40648" transform="translate(42.17 367.782)">
          <g id="Group_40647" data-name="Group 40647">
            <rect id="Rectangle_7704" data-name="Rectangle 7704" width="3.536" height="1.822" fill="#508b82"/>
          </g>
        </g>
      </g>
      <g id="Group_40650" data-name="Group 40650" transform="translate(51.937 266.141)">
        <g id="Group_40649" data-name="Group 40649">
          <circle id="Ellipse_2034" data-name="Ellipse 2034" cx="3.612" cy="3.612" r="3.612" fill="#508b82"/>
        </g>
      </g>
      <g id="Group_40652" data-name="Group 40652" transform="translate(65.527 320.894)">
        <g id="Group_40651" data-name="Group 40651">
          <circle id="Ellipse_2035" data-name="Ellipse 2035" cx="2.865" cy="2.865" r="2.865" fill="#508b82"/>
        </g>
      </g>
      <g id="Group_40656" data-name="Group 40656" transform="translate(323.563 331.07)">
        <g id="Group_40655" data-name="Group 40655">
          <circle id="Ellipse_2037" data-name="Ellipse 2037" cx="3.201" cy="3.201" r="3.201" fill="#508b82"/>
        </g>
      </g>
      <g id="Group_41157" data-name="Group 41157" transform="translate(260.527 230.269)">
        <g id="Group_40651-2" data-name="Group 40651">
          <circle id="Ellipse_2035-2" data-name="Ellipse 2035" cx="2.865" cy="2.865" r="2.865" fill="#508b82"/>
        </g>
      </g>
    </g>
    <g id="Group_54276" data-name="Group 54276" transform="translate(0 -16)">
      <g id="CLOUD_MINING" data-name="CLOUD MINING" transform="translate(65.865 356.365)">
        <g id="Group_49222" data-name="Group 49222" transform="translate(47.702 165.85)">
          <g id="Group_49221" data-name="Group 49221">
            <path id="Path_205193" data-name="Path 205193" d="M104.313,250.5v45.739l2.239,1.827c.664.033,1.342.053,2.02.053h2.592V256.7h50.543V250.5Z" transform="translate(-104.313 -250.503)" fill="#22554a"/>
          </g>
        </g>
        <g id="Group_49224" data-name="Group 49224" transform="translate(5.401 113.832)">
          <g id="Group_49223" data-name="Group 49223">
            <rect id="Rectangle_9321" data-name="Rectangle 9321" width="1.993" height="3.407" fill="#f2ede6"/>
          </g>
        </g>
        <g id="Group_49226" data-name="Group 49226" transform="translate(5.401 123.221)">
          <g id="Group_49225" data-name="Group 49225">
            <rect id="Rectangle_9322" data-name="Rectangle 9322" width="1.993" height="3.408" fill="#f2ede6"/>
          </g>
        </g>
        <g id="Group_49228" data-name="Group 49228" transform="translate(9.388 119.233)">
          <g id="Group_49227" data-name="Group 49227">
            <rect id="Rectangle_9323" data-name="Rectangle 9323" width="3.408" height="1.993" fill="#f2ede6"/>
          </g>
        </g>
        <g id="Group_49230" data-name="Group 49230" transform="translate(0 119.234)">
          <g id="Group_49229" data-name="Group 49229">
            <rect id="Rectangle_9324" data-name="Rectangle 9324" width="3.407" height="1.993" fill="#f2ede6"/>
          </g>
        </g>
        <g id="Group_49232" data-name="Group 49232" transform="translate(132.255 222.917)">
          <g id="Group_49231" data-name="Group 49231">
            <rect id="Rectangle_9325" data-name="Rectangle 9325" width="1.993" height="3.408" fill="#f2ede6"/>
          </g>
        </g>
        <g id="Group_49234" data-name="Group 49234" transform="translate(132.255 232.305)">
          <g id="Group_49233" data-name="Group 49233">
            <rect id="Rectangle_9326" data-name="Rectangle 9326" width="1.993" height="3.408" fill="#f2ede6"/>
          </g>
        </g>
        <g id="Group_49236" data-name="Group 49236" transform="translate(136.243 228.319)">
          <g id="Group_49235" data-name="Group 49235">
            <rect id="Rectangle_9327" data-name="Rectangle 9327" width="3.408" height="1.993" fill="#f2ede6"/>
          </g>
        </g>
        <g id="Group_49238" data-name="Group 49238" transform="translate(126.854 228.319)">
          <g id="Group_49237" data-name="Group 49237">
            <rect id="Rectangle_9328" data-name="Rectangle 9328" width="3.408" height="1.993" fill="#f2ede6"/>
          </g>
        </g>
        <g id="Group_49240" data-name="Group 49240" transform="translate(11.378 217.451)">
          <g id="Group_49239" data-name="Group 49239">
            <circle id="Ellipse_3136" data-name="Ellipse 3136" cx="1.671" cy="1.671" r="1.671" fill="#f2ede6"/>
          </g>
        </g>
        <g id="Group_49242" data-name="Group 49242" transform="translate(41.397 103.798)">
          <g id="Group_49241" data-name="Group 49241">
            <circle id="Ellipse_3137" data-name="Ellipse 3137" cx="6.228" cy="6.228" r="6.228" fill="#f2ede6"/>
          </g>
        </g>
        <g id="Group_49244" data-name="Group 49244" transform="translate(226.387 142.852)">
          <g id="Group_49243" data-name="Group 49243">
            <circle id="Ellipse_3138" data-name="Ellipse 3138" cx="3.874" cy="3.874" r="3.874" fill="#f2ede6"/>
          </g>
        </g>
        <g id="Group_49247" data-name="Group 49247" transform="translate(12.049 104.232)">
          <g id="Group_49246" data-name="Group 49246">
            <g id="Group_49245" data-name="Group 49245">
              <path id="Path_205194" data-name="Path 205194" d="M220.327,194.453a27.708,27.708,0,0,0-26.8-26.632,56.536,56.536,0,0,0-1.2-8.224,1,1,0,0,0-.973-.779h0c-38.92.162-24.753-14.126-7.716-16.4a1,1,0,0,0,.7-1.539,56.137,56.137,0,0,0-97.655,7.261,4.723,4.723,0,0,1-6.112,2.32,39.255,39.255,0,0,0-54.2,36.816c.28,21.348,18.138,38.716,39.808,38.716h2.692a1,1,0,0,0,1-1V184.566h55.406V225a1,1,0,0,0,1,1h62.111c9.085,0,18.021-3.608,23.9-9.652C217.773,210.683,220.561,203.115,220.327,194.453Zm-9.488,20.5C205.323,220.615,196.92,224,188.362,224H127.248V183.568a1,1,0,0,0-1-1h-57.4a1,1,0,0,0-1,1V224H66.161c-20.586,0-37.55-16.485-37.815-36.749A37.265,37.265,0,0,1,79.8,152.3a6.714,6.714,0,0,0,8.678-3.318,54.143,54.143,0,0,1,93.289-8.318c-17.5,2.576-31.306,20.315,8.78,20.148a54.813,54.813,0,0,1,1.051,8.046,1,1,0,0,0,1,.941h.093a25.7,25.7,0,0,1,25.654,24.7C218.553,202.618,215.961,209.687,210.839,214.949Z" transform="translate(-26.348 -115.757)" fill="#f2ede6"/>
            </g>
          </g>
        </g>
        <g id="Group_49250" data-name="Group 49250" transform="translate(7.44 94.52)">
          <g id="Group_49249" data-name="Group 49249">
            <g id="Group_49248" data-name="Group 49248">
              <path id="Path_205195" data-name="Path 205195" d="M26.812,138.825l1.459,1.359c.44-.473.9-.94,1.359-1.387l-1.387-1.431C27.757,137.836,27.276,138.327,26.812,138.825Zm2.933-2.844,1.313,1.5c.487-.427.99-.844,1.493-1.241l-1.233-1.566C30.788,135.092,30.258,135.532,29.745,135.981Zm-7.623,50.168q.316.51.646,1.008l1.661-1.1q-.313-.473-.612-.957ZM51.93,126.427l.18,1.986c.641-.059,1.291-.1,1.935-.124L53.97,126.3C53.291,126.322,52.605,126.366,51.93,126.427ZM32.955,133.45l1.152,1.628c.525-.372,1.069-.736,1.613-1.081l-1.066-1.685C34.081,132.676,33.51,133.059,32.955,133.45Zm-8.77,8.506,1.591,1.2c.387-.512.794-1.023,1.209-1.518l-1.527-1.281C25.021,140.879,24.593,141.417,24.186,141.956ZM43.92,128.023l.594,1.9c.615-.192,1.242-.369,1.865-.528l-.492-1.933C45.232,127.633,44.569,127.82,43.92,128.023Zm3.963-1.01.389,1.954c.628-.124,1.271-.235,1.911-.327l-.285-1.972C49.224,126.765,48.545,126.881,47.883,127.013Zm-7.8,2.433.792,1.83c.593-.256,1.2-.5,1.8-.723l-.692-1.869C41.344,128.92,40.7,129.177,40.079,129.446Zm-3.666,1.817L37.389,133c.564-.316,1.143-.622,1.718-.908l-.885-1.786C37.616,130.608,37.008,130.929,36.413,131.263ZM21.9,145.337l1.705,1.032c.334-.552.686-1.1,1.047-1.634L23,143.618C22.618,144.177,22.247,144.756,21.9,145.337Zm.052,36.361-1.795.867c.292.605.608,1.217.937,1.817l1.747-.959C22.524,182.853,22.225,182.273,21.948,181.7Zm-3.115-22.707-1.962-.352c-.119.665-.223,1.345-.307,2.021l1.978.248C18.621,160.267,18.72,159.622,18.833,158.991Zm.884-3.776-1.914-.557c-.19.653-.364,1.319-.519,1.978l1.941.454C19.371,156.465,19.536,155.834,19.717,155.215Zm1.274-3.656-1.845-.754c-.258.632-.5,1.274-.722,1.91l1.883.654C20.516,152.767,20.746,152.158,20.991,151.558Zm1.651-3.506-1.757-.941c-.321.6-.63,1.213-.917,1.824l1.8.849C22.044,149.205,22.337,148.623,22.642,148.053Zm-4.291,14.786-1.988-.143c-.049.682-.08,1.369-.093,2.044l1.993.037C18.275,164.137,18.3,163.485,18.351,162.839Zm.973,11.564-1.936.475c.161.657.343,1.321.539,1.972l1.909-.573C19.649,175.657,19.477,175.026,19.324,174.4Zm-1.049-7.682-1.992.064c.021.682.062,1.37.118,2.042l1.987-.166C18.333,168.021,18.3,167.368,18.274,166.72Zm2.169,11.4-1.875.676c.23.638.48,1.28.743,1.906l1.837-.772C20.9,179.334,20.662,178.725,20.444,178.119Zm-1.845-7.53-1.975.27c.091.672.2,1.351.329,2.018l1.958-.371C18.791,171.872,18.686,171.227,18.6,170.589ZM95.058,104.8l1.151,1.628q.8-.565,1.62-1.1l-1.092-1.668Q95.886,104.218,95.058,104.8Zm3.4-2.225,1.03,1.707q.839-.507,1.695-.984l-.969-1.741Q99.323,102.054,98.454,102.578ZM102,100.605l.906,1.775q.871-.444,1.761-.857l-.84-1.808Q102.908,100.144,102,100.605Zm3.685-1.712.772,1.838q.9-.379,1.82-.728l-.706-1.863Q106.624,98.5,105.688,98.894Zm-49.7,29.37c.653.009,1.306.034,1.941.075l.127-1.99c-.669-.043-1.355-.069-2.041-.079Zm69.427-33.707.073,1.992q.973-.035,1.956-.035V94.52Q126.424,94.52,125.414,94.556ZM113.386,96.3l.5,1.93q.947-.244,1.907-.455l-.426-1.947Q114.369,96.041,113.386,96.3Zm7.982-1.45.215,1.981q.969-.1,1.948-.175l-.141-1.988Q122.374,94.737,121.368,94.846Zm-11.881,2.609.638,1.888q.927-.313,1.869-.593l-.568-1.91Q110.45,97.13,109.487,97.454Zm7.866-2.029.355,1.961q.961-.174,1.933-.315l-.285-1.972Q118.35,95.244,117.353,95.425Zm-28.56,14.53,1.373,1.444q.711-.674,1.443-1.322l-1.32-1.494Q89.529,109.255,88.793,109.955Zm3.041-2.689,1.265,1.54q.756-.621,1.535-1.216l-1.211-1.583Q92.617,106.623,91.834,107.266Zm-24.41,22.943c.609.206,1.222.431,1.82.668l.736-1.852c-.632-.251-1.277-.488-1.919-.7Zm4.224-.667-.27,1.975a6.913,6.913,0,0,0,.931.064,6.83,6.83,0,0,0,1.391-.144l-.407-1.951A4.8,4.8,0,0,1,71.648,129.542Zm-7.962-.38c.632.141,1.265.3,1.882.474l.537-1.919c-.651-.182-1.318-.35-1.982-.5Zm-3.824-.649c.644.075,1.29.167,1.921.274l.335-1.965c-.666-.113-1.346-.211-2.024-.29Zm14.952.368,1.047,1.7a6.61,6.61,0,0,0,1.74-1.555l-1.569-1.229A4.631,4.631,0,0,1,74.814,128.881Zm8.519-12.934,1.565,1.234q.606-.769,1.239-1.516l-1.521-1.289Q83.961,115.15,83.333,115.947Zm2.621-3.094,1.473,1.343q.661-.725,1.344-1.423l-1.424-1.4Q86.639,112.1,85.954,112.853Zm-5.014,6.368,1.651,1.117q.549-.811,1.126-1.6l-1.611-1.176Q81.51,118.381,80.94,119.221Zm-2.151,3.435,1.726,1q.49-.848,1.008-1.676l-1.69-1.058Q79.3,121.778,78.79,122.656Zm-1.9,3.584,1.794.868q.427-.882.885-1.745l-1.762-.933Q77.336,125.326,76.893,126.24Z" transform="translate(-16.27 -94.52)" fill="#b2d0cb"/>
            </g>
          </g>
        </g>
        <g id="Group_49262" data-name="Group 49262" transform="translate(53.559 171.048)">
          <g id="Group_49261" data-name="Group 49261">
            <g id="Group_49260" data-name="Group 49260">
              <path id="Path_205198" data-name="Path 205198" d="M175.512,261.87H118.117a1,1,0,0,0-1,1V308.6a1,1,0,0,0,.367.772l28.7,23.431a1,1,0,0,0,1.26,0l28.7-23.431a1,1,0,0,0,.367-.772V262.866A1,1,0,0,0,175.512,261.87Zm-1,46.26-27.7,22.617-27.7-22.617V263.863h55.4V308.13Z" transform="translate(-117.121 -261.87)" fill="#f2ede6"/>
            </g>
          </g>
        </g>
        <g id="Group_49264" data-name="Group 49264" transform="translate(81.973 193.411)">
          <g id="Group_49263" data-name="Group 49263">
            <path id="Path_205199" data-name="Path 205199" d="M182.984,310.772h-3.727v6.7h3.727a3.349,3.349,0,0,0,0-6.7Z" transform="translate(-179.257 -310.772)" fill="#b2d0cb"/>
          </g>
        </g>
        <g id="Group_49266" data-name="Group 49266" transform="translate(81.973 203.557)">
          <g id="Group_49265" data-name="Group 49265">
            <path id="Path_205200" data-name="Path 205200" d="M184.513,332.958h-5.256v7.249h5.256a3.625,3.625,0,0,0,0-7.249Z" transform="translate(-179.257 -332.958)" fill="#b2d0cb"/>
          </g>
        </g>
        <g id="Group_49269" data-name="Group 49269" transform="translate(57.874 175.365)">
          <g id="Group_49268" data-name="Group 49268">
            <g id="Group_49267" data-name="Group 49267">
              <path id="Path_205201" data-name="Path 205201" d="M126.558,271.309v40.617l25.374,21.261,25.381-21.261V271.309Zm37.853,37.281a6.918,6.918,0,0,1-4.91,2.033h-3.329v5.435H152.8v-5.435h-2.14v5.435h-3.382v-5.382H140.4v-3.648h2.538a1.366,1.366,0,0,0,1.568-1.535v-14.83a1.366,1.366,0,0,0-1.568-1.535H140.4v-3.648h6.87v-5.442h3.382v5.442h2.133v-5.442h3.382v5.442h2.366a5.671,5.671,0,0,1,4.006,9.687,5.6,5.6,0,0,1-2.963,1.568,6.944,6.944,0,0,1,4.83,11.854Z" transform="translate(-126.558 -271.309)" fill="#b2d0cb"/>
            </g>
          </g>
        </g>
        <g id="Group_49272" data-name="Group 49272" transform="translate(60.202 177.692)">
          <g id="Group_49271" data-name="Group 49271">
            <g id="Group_49270" data-name="Group 49270">
              <path id="Path_205202" data-name="Path 205202" d="M133.642,304.835h-1.993v1.993h1.993Zm0,3.987h-1.993v1.993h1.993Zm0-7.973h-1.993v1.993h1.993ZM131.892,312.5A5.959,5.959,0,0,0,133,314.6l1.543-1.263a3.962,3.962,0,0,1-.74-1.4Zm2.709,3.578,1.528,1.279,1.279-1.529-1.528-1.279Zm3.056,2.559,1.528,1.28,1.279-1.527-1.528-1.28Zm1.576-42.238h-1.6c-.158,0-.313.005-.467.017l.152,1.988c.1-.009.2-.007.31-.012h1.607Zm-3.438,2.438-.917-1.77a5.969,5.969,0,0,0-1.849,1.49l1.532,1.274A3.979,3.979,0,0,1,135.8,278.837Zm-2.153,14.039h-1.993v1.993h1.993Zm0-10.5a3.966,3.966,0,0,1,.169-1.151l-1.909-.575a5.986,5.986,0,0,0-.253,1.725v.534h1.993v-.534Zm17.551-5.976H149.2v1.993h1.993Zm15.946,0h-1.993v1.993h1.993Zm-7.973,0h-1.993v1.993h1.993Zm-25.523,12.49h-1.993v1.993h1.993Zm42.094-6.912,1.983-.2a5.925,5.925,0,0,0-.7-2.271l-1.749.957A3.94,3.94,0,0,1,175.736,281.978Zm-.251-4.284a5.929,5.929,0,0,0-2.117-1.078l-.532,1.921a3.951,3.951,0,0,1,1.41.719Zm-34.773,43.5,1.528,1.28,1.28-1.529-1.528-1.28Zm6.494-44.8h-1.993v1.993h1.993Zm-13.564,8.5h-1.993V286.9h1.993Zm9.577-8.5h-1.993v1.993h1.993Zm-9.577,20.463h-1.993v1.993h1.993Zm42.112,12.921h1.993V307.79h-1.993Zm0-3.986h1.993V303.8h-1.993Zm-3.412,9.736,1.281,1.527,1.527-1.28-1.281-1.527Zm2.732-2.491,1.652,1.116a5.929,5.929,0,0,0,.911-2.2l-1.957-.381A3.946,3.946,0,0,1,175.075,313.042Zm.68-11.231h1.993v-1.993h-1.993Zm0-7.973h1.993v-1.993h-1.993Zm0-9.966v1.993h1.993v-1.993Zm0,13.953h1.993V295.83h-1.993Zm0-7.973h1.993v-1.993h-1.993Zm-6.467,28.241,1.279,1.529,1.528-1.28-1.28-1.529Zm-25.519,5.666,1.528,1.28,1.28-1.527-1.528-1.28Zm10.319,5.3-.3,1.97a5.989,5.989,0,0,0,2.372-.111l-.485-1.933A3.981,3.981,0,0,1,154.088,329.054ZM171.125,276.4h-1.993v1.993h1.993Zm-24.3,49.919,1.528,1.28,1.28-1.529L148.1,324.79Zm10.431,1.854c-.051.042-.1.083-.153.122l1.194,1.6c.082-.061.162-.125.24-.191l1.335-1.118-1.28-1.527Zm-6.1-.822-1.279,1.527.981.823a6.109,6.109,0,0,0,.692.5l1.05-1.693a4.187,4.187,0,0,1-.464-.335Zm4.019-50.951h-1.993v1.993h1.993Zm4.941,49.374,1.28,1.527,1.528-1.28-1.28-1.527Zm3.056-2.561,1.28,1.529,1.528-1.28-1.279-1.529Zm3.056-2.559,1.279,1.527,1.528-1.28-1.28-1.527Zm-5.072-42.261h1.993V276.4h-1.993Z" transform="translate(-131.649 -276.399)" fill="#04594c"/>
            </g>
          </g>
        </g>
        <g id="Group_49281" data-name="Group 49281" transform="translate(173.315 156.147)">
          <g id="Group_49280" data-name="Group 49280">
            <g id="Group_49279" data-name="Group 49279">
              <path id="Path_205206" data-name="Path 205206" d="M379,288.128q.412.16.826.311l.68-1.874q-.39-.142-.781-.294Zm35.47-50.772,1.6-1.19c-.416-.559-.851-1.1-1.293-1.612l-1.507,1.3C413.678,236.332,414.083,236.836,414.469,237.356Zm-32.69,51.721c.658.192,1.329.365,2,.512l.429-1.947c-.622-.138-1.25-.3-1.865-.478Zm31.579-56.035c-.5-.488-1.016-.957-1.538-1.391l-1.274,1.532c.481.4.958.83,1.416,1.281Zm-23.022,55.275-.4,0-.027,1.993.432,0c.542,0,1.091-.015,1.628-.044l-.109-1.991Q391.1,288.317,390.335,288.317Zm-4.538,1.65c.678.1,1.366.183,2.046.24l.165-1.987c-.635-.053-1.279-.128-1.911-.225Zm7.974-1.862.243,1.979c.674-.083,1.358-.191,2.033-.321l-.378-1.957C395.04,287.927,394.4,288.028,393.772,288.105Zm26.755-32.678,1.992-.08c-.027-.674-.074-1.361-.139-2.043l-1.984.189C420.456,254.139,420.5,254.79,420.526,255.427Zm-3.992-14.83,1.749-.955c-.331-.607-.683-1.2-1.046-1.774l-1.682,1.071C415.9,239.471,416.224,240.03,416.535,240.6Zm3.624,10.972,1.97-.3c-.1-.681-.225-1.359-.361-2.015l-1.952.4C419.944,250.281,420.06,250.924,420.158,251.569Zm-1.992-7.473,1.854-.731c-.253-.642-.525-1.277-.809-1.887l-1.808.841C417.672,242.893,417.928,243.492,418.166,244.1Zm1.2,3.677,1.927-.511c-.175-.657-.37-1.318-.582-1.965l-1.895.619C419.02,246.526,419.205,247.152,419.37,247.773Zm-.4,19.088,1.893.621c.214-.65.409-1.312.581-1.97l-1.928-.5C419.356,265.626,419.172,266.249,418.972,266.861Zm-3.282,6.987,1.688,1.059c.364-.581.714-1.177,1.04-1.772l-1.749-.957C416.363,272.74,416.033,273.3,415.69,273.848Zm-18.145,13.53.508,1.927c.655-.172,1.318-.37,1.971-.59l-.633-1.89C398.779,287.031,398.158,287.217,397.545,287.378Zm22.4-24.252,1.955.385c.132-.668.245-1.349.336-2.024l-1.975-.268C420.179,261.857,420.073,262.5,419.949,263.127Zm.6-5.761c-.01.655-.039,1.3-.086,1.933l1.988.149c.05-.667.08-1.357.091-2.051Zm-7.112,19.624,1.547,1.258c.428-.527.848-1.076,1.247-1.634l-1.621-1.16C414.238,275.977,413.843,276.494,413.439,276.99Zm4.106-6.535,1.8.846c.291-.622.567-1.257.816-1.887l-1.852-.736C418.078,269.27,417.82,269.868,417.545,270.454Zm-6.72,9.382,1.382,1.436c.491-.473.974-.968,1.437-1.471l-1.469-1.348C411.741,278.927,411.287,279.392,410.824,279.837Zm-6.166,4.624.986,1.733c.593-.338,1.184-.7,1.754-1.075l-1.1-1.665C405.768,283.8,405.215,284.144,404.659,284.46Zm-3.464,1.692.758,1.844c.627-.257,1.258-.541,1.876-.843l-.875-1.791C402.374,285.645,401.782,285.911,401.194,286.152Zm8.969-55.76c-.573-.4-1.166-.77-1.762-1.108l-.984,1.734c.544.309,1.086.649,1.611,1.013Zm-2.279,51.949,1.2,1.6c.544-.407,1.084-.839,1.606-1.284l-1.292-1.517C408.9,281.553,408.394,281.959,407.884,282.341Z" transform="translate(-378.999 -229.285)" fill="#b2d0cb"/>
            </g>
          </g>
        </g>
      </g>
      <g id="LEDGER" transform="translate(142 338.895)">
        <g id="Group_54264" data-name="Group 54264" transform="translate(61.627 97.663)">
          <g id="Group_51657" data-name="Group 51657" transform="translate(0 0)">
            <g id="Group_51656" data-name="Group 51656">
              <path id="Path_205786" data-name="Path 205786" d="M230,191.157V141.769a.908.908,0,0,0-.908-.908H160.205a.908.908,0,0,0-.908.908v93.787a.909.909,0,0,0,.908.908h68.887a.909.909,0,0,0,.908-.908V211.928S230,191.4,230,191.157Z" transform="translate(-159.297 -140.861)" fill="#235549"/>
            </g>
          </g>
        </g>
        <g id="Group_51593" data-name="Group 51593" transform="translate(104.71 137.577)">
          <g id="Group_51592" data-name="Group 51592">
            <path id="Path_205773" data-name="Path 205773" d="M292.289,284.25l-4.245,9.356h-.006l-1.78,3.924-2.586,5.7v.006h5.759v-.006l1.7-3.767.393-.86,2.265-5,4.256-9.356,17.011-16.889v-5.71Z" transform="translate(-283.672 -261.651)" fill="#508b82"/>
          </g>
        </g>
        <g id="Group_51600" data-name="Group 51600" transform="translate(56.955 92.99)">
          <g id="Group_51599" data-name="Group 51599" transform="translate(0 0)">
            <g id="Group_51598" data-name="Group 51598">
              <path id="Path_205776" data-name="Path 205776" d="M234.076,191.8a.907.907,0,0,0,.268-.645V141.769a.908.908,0,0,0-.908-.908H155.205a.908.908,0,0,0-.908.908V244.9a.909.909,0,0,0,.908.908h78.231a.909.909,0,0,0,.908-.908V211.928a.909.909,0,0,0-1.548-.644l-6.5,6.449L209.63,225.3l7.555-16.725ZM215.6,207.673l-8.616,19.075a.909.909,0,0,0,1.2,1.2L227.2,219.32a.9.9,0,0,0,.264-.183l5.064-5.028v29.882H156.114V142.677h76.415v48.1L215.786,207.4A.905.905,0,0,0,215.6,207.673Z" transform="translate(-154.297 -140.861)" fill="#f2ede6"/>
            </g>
          </g>
        </g>
        <g id="Group_51619" data-name="Group 51619" transform="translate(110.469 169.529)">
          <g id="Group_51618" data-name="Group 51618" transform="translate(0 0)">
            <path id="Path_205780" data-name="Path 205780" d="M307.3,350.52a9.611,9.611,0,0,0-3.662-2.306l-4.363,9.629,9.979-4.481A9.533,9.533,0,0,0,307.3,350.52Z" transform="translate(-299.273 -348.214)" fill="#508b82"/>
          </g>
        </g>
        <g id="Group_51622" data-name="Group 51622" transform="translate(118.176 132.969)">
          <g id="Group_51621" data-name="Group 51621" transform="translate(0 0)">
            <g id="Group_51620" data-name="Group 51620">
              <path id="Path_205781" data-name="Path 205781" d="M358.592,259.88l-10.4-10.447a.911.911,0,0,0-1.284,0l-26.489,26.3a.9.9,0,0,0-.268.641.913.913,0,0,0,.264.644l10.4,10.446a.908.908,0,0,0,1.284,0l26.489-26.3a.908.908,0,0,0,0-1.285Zm-27.13,25.656-9.116-9.159,25.2-25.018,9.116,9.159Z" transform="translate(-320.153 -249.167)" fill="#f2ede6"/>
            </g>
          </g>
        </g>
        <g id="Group_51624" data-name="Group 51624" transform="translate(125.096 139.89)">
          <g id="Group_51623" data-name="Group 51623" transform="translate(0 0)">
            <path id="Path_205782" data-name="Path 205782" d="M359.362,267.917l-20.463,20.3,4.4,4.42,20.463-20.3Z" transform="translate(-338.899 -267.917)" fill="#b2d0cb"/>
          </g>
        </g>
        <g id="Group_51627" data-name="Group 51627" transform="translate(144.664 127.255)">
          <g id="Group_51626" data-name="Group 51626" transform="translate(0 0)">
            <g id="Group_51625" data-name="Group 51625">
              <path id="Path_205783" data-name="Path 205783" d="M408.088,238.5l-2.994-3.008a6.164,6.164,0,0,0-8.707-.02l-4.208,4.188a.909.909,0,0,0,0,1.285l10.4,10.447a.91.91,0,0,0,.642.267h0a.912.912,0,0,0,.641-.264l4.208-4.188a6.157,6.157,0,0,0,.02-8.707Zm-1.3,7.419-3.564,3.548-9.117-9.159,3.564-3.547a4.345,4.345,0,0,1,6.137.014l2.994,3.008A4.344,4.344,0,0,1,406.786,245.924Z" transform="translate(-391.913 -233.687)" fill="#f2ede6"/>
            </g>
          </g>
        </g>
        <g id="Group_54438" data-name="Group 54438" transform="translate(7 11.505)">
          <g id="Group_51635" data-name="Group 51635" transform="translate(5.074 138.34)">
            <g id="Group_51634" data-name="Group 51634">
              <rect id="Rectangle_9674" data-name="Rectangle 9674" width="1.817" height="3.187" fill="#508b82"/>
            </g>
          </g>
          <g id="Group_51637" data-name="Group 51637" transform="translate(5.074 147.12)">
            <g id="Group_51636" data-name="Group 51636" transform="translate(0 0)">
              <rect id="Rectangle_9675" data-name="Rectangle 9675" width="1.817" height="3.187" fill="#508b82"/>
            </g>
          </g>
          <g id="Group_51639" data-name="Group 51639" transform="translate(8.78 143.415)">
            <g id="Group_51638" data-name="Group 51638">
              <rect id="Rectangle_9676" data-name="Rectangle 9676" width="3.186" height="1.817" fill="#508b82"/>
            </g>
          </g>
          <g id="Group_51641" data-name="Group 51641" transform="translate(0 143.416)">
            <g id="Group_51640" data-name="Group 51640" transform="translate(0 0)">
              <rect id="Rectangle_9677" data-name="Rectangle 9677" width="3.186" height="1.816" fill="#508b82"/>
            </g>
          </g>
        </g>
        <g id="Group_51643" data-name="Group 51643" transform="translate(177.366 110.559)">
          <g id="Group_51642" data-name="Group 51642">
            <rect id="Rectangle_9678" data-name="Rectangle 9678" width="1.817" height="3.186" fill="#508b82"/>
          </g>
        </g>
        <g id="Group_51645" data-name="Group 51645" transform="translate(177.366 119.339)">
          <g id="Group_51644" data-name="Group 51644">
            <rect id="Rectangle_9679" data-name="Rectangle 9679" width="1.817" height="3.186" fill="#508b82"/>
          </g>
        </g>
        <g id="Group_51647" data-name="Group 51647" transform="translate(181.072 115.634)">
          <g id="Group_51646" data-name="Group 51646">
            <rect id="Rectangle_9680" data-name="Rectangle 9680" width="3.186" height="1.816" fill="#508b82"/>
          </g>
        </g>
        <g id="Group_51649" data-name="Group 51649" transform="translate(172.292 115.634)">
          <g id="Group_51648" data-name="Group 51648">
            <rect id="Rectangle_9681" data-name="Rectangle 9681" width="3.186" height="1.816" fill="#508b82"/>
          </g>
        </g>
        <g id="Group_51653" data-name="Group 51653" transform="translate(170.233 172.869)">
          <g id="Group_51652" data-name="Group 51652">
            <circle id="Ellipse_3252" data-name="Ellipse 3252" cx="2.058" cy="2.058" r="2.058" fill="#b2d0cb"/>
          </g>
        </g>
        <g id="Group_51655" data-name="Group 51655" transform="translate(15.38 106.405)">
          <g id="Group_51654" data-name="Group 51654">
            <circle id="Ellipse_3253" data-name="Ellipse 3253" cx="2.801" cy="2.801" r="2.801" fill="#b2d0cb"/>
          </g>
        </g>
        <g id="Group_51658" data-name="Group 51658" transform="translate(56.955 92.99)">
          <g id="Group_51657-2" data-name="Group 51657" transform="translate(0 0)">
            <g id="Group_51656-2" data-name="Group 51656">
              <path id="Path_205786-2" data-name="Path 205786" d="M234.076,191.8a.907.907,0,0,0,.268-.645V141.769a.908.908,0,0,0-.908-.908H155.205a.908.908,0,0,0-.908.908V244.9a.909.909,0,0,0,.908.908h78.231a.909.909,0,0,0,.908-.908V211.928a.909.909,0,0,0-1.548-.644l-6.5,6.449L209.63,225.3l7.555-16.725ZM215.6,207.673l-8.616,19.075a.909.909,0,0,0,1.2,1.2L227.2,219.32a.9.9,0,0,0,.264-.183l5.064-5.028v29.882H156.114V142.677h76.415v48.1L215.786,207.4A.905.905,0,0,0,215.6,207.673Z" transform="translate(-154.297 -140.861)" fill="#f2ede6"/>
            </g>
          </g>
        </g>
        <g id="Group_52302" data-name="Group 52302" transform="translate(71.473 104.872)">
          <g id="Group_52300" data-name="Group 52300">
            <path id="Path_205940" data-name="Path 205940" d="M87.878,211.972H66.929a1.016,1.016,0,0,0-1.015,1.015v6.324a1.016,1.016,0,0,0,1.015,1.015H87.878a1.016,1.016,0,0,0,1.015-1.015v-6.324A1.016,1.016,0,0,0,87.878,211.972ZM86.862,218.3H67.945V214H86.863V218.3Z" transform="translate(-65.914 -211.972)" fill="#508b82"/>
          </g>
        </g>
        <g id="Group_52304" data-name="Group 52304" transform="translate(71.473 116.301)">
          <g id="Group_52303" data-name="Group 52303">
            <path id="Path_205941" data-name="Path 205941" d="M87.878,235.08H66.929a1.016,1.016,0,0,0-1.015,1.015v6.323a1.016,1.016,0,0,0,1.015,1.015H87.878a1.016,1.016,0,0,0,1.015-1.015V236.1A1.016,1.016,0,0,0,87.878,235.08ZM86.862,241.4H67.945v-4.293H86.863V241.4Z" transform="translate(-65.914 -235.08)" fill="#b2d0cb"/>
          </g>
        </g>
        <g id="Group_52319" data-name="Group 52319" transform="translate(71.473 127.524)">
          <g id="Group_52318" data-name="Group 52318">
            <path id="Path_205946" data-name="Path 205946" d="M87.878,257.772H66.929a1.016,1.016,0,0,0-1.015,1.015v6.323a1.016,1.016,0,0,0,1.015,1.015H87.878a1.016,1.016,0,0,0,1.015-1.015v-6.323A1.016,1.016,0,0,0,87.878,257.772ZM86.862,264.1H67.945V259.8H86.863V264.1Z" transform="translate(-65.914 -257.772)" fill="#508b82"/>
          </g>
        </g>
        <g id="Group_52322" data-name="Group 52322" transform="translate(71.473 138.953)">
          <g id="Group_52321" data-name="Group 52321">
            <path id="Path_205947" data-name="Path 205947" d="M87.878,280.88H66.929a1.016,1.016,0,0,0-1.015,1.015v6.324a1.016,1.016,0,0,0,1.015,1.015H87.878a1.016,1.016,0,0,0,1.015-1.015V281.9A1.016,1.016,0,0,0,87.878,280.88ZM86.862,287.2H67.945v-4.293H86.863V287.2Z" transform="translate(-65.914 -280.88)" fill="#b2d0cb"/>
          </g>
        </g>
        <g id="Group_54229" data-name="Group 54229" transform="translate(99.505 104.872)">
          <g id="Group_52300-2" data-name="Group 52300">
            <path id="Path_205940-2" data-name="Path 205940" d="M97.878,211.972H76.929a1.016,1.016,0,0,0-1.015,1.015v6.324a1.016,1.016,0,0,0,1.015,1.015H97.878a1.016,1.016,0,0,0,1.015-1.015v-6.324A1.016,1.016,0,0,0,97.878,211.972ZM96.862,218.3H77.945V214H96.863V218.3Z" transform="translate(-75.914 -211.972)" fill="#b2d0cb"/>
          </g>
        </g>
        <g id="Group_54230" data-name="Group 54230" transform="translate(99.505 116.301)">
          <g id="Group_52303-2" data-name="Group 52303">
            <path id="Path_205941-2" data-name="Path 205941" d="M97.878,235.08H76.929a1.016,1.016,0,0,0-1.015,1.015v6.323a1.016,1.016,0,0,0,1.015,1.015H97.878a1.016,1.016,0,0,0,1.015-1.015V236.1A1.016,1.016,0,0,0,97.878,235.08ZM96.862,241.4H77.945v-4.293H96.863V241.4Z" transform="translate(-75.914 -235.08)" fill="#508b82"/>
          </g>
        </g>
        <g id="Group_54231" data-name="Group 54231" transform="translate(99.505 127.524)">
          <g id="Group_52318-2" data-name="Group 52318">
            <path id="Path_205946-2" data-name="Path 205946" d="M97.878,257.772H76.929a1.016,1.016,0,0,0-1.015,1.015v6.323a1.016,1.016,0,0,0,1.015,1.015H97.878a1.016,1.016,0,0,0,1.015-1.015v-6.323A1.016,1.016,0,0,0,97.878,257.772ZM96.862,264.1H77.945V259.8H96.863V264.1Z" transform="translate(-75.914 -257.772)" fill="#b2d0cb"/>
          </g>
        </g>
        <g id="Group_54232" data-name="Group 54232" transform="translate(99.505 138.953)">
          <g id="Group_52321-2" data-name="Group 52321">
            <path id="Path_205947-2" data-name="Path 205947" d="M97.878,280.88H76.929a1.016,1.016,0,0,0-1.015,1.015v6.324a1.016,1.016,0,0,0,1.015,1.015H97.878a1.016,1.016,0,0,0,1.015-1.015V281.9A1.016,1.016,0,0,0,97.878,280.88ZM96.862,287.2H77.945v-4.293H96.863V287.2Z" transform="translate(-75.914 -280.88)" fill="#508b82"/>
          </g>
        </g>
        <g id="Group_54265" data-name="Group 54265" transform="translate(71.472 150.383)">
          <g id="Group_52300-3" data-name="Group 52300">
            <path id="Path_205940-3" data-name="Path 205940" d="M87.878,211.972H66.929a1.016,1.016,0,0,0-1.015,1.015v6.324a1.016,1.016,0,0,0,1.015,1.015H87.878a1.016,1.016,0,0,0,1.015-1.015v-6.324A1.016,1.016,0,0,0,87.878,211.972ZM86.862,218.3H67.945V214H86.863V218.3Z" transform="translate(-65.914 -211.972)" fill="#508b82"/>
          </g>
        </g>
        <g id="Group_54266" data-name="Group 54266" transform="translate(71.472 161.812)">
          <g id="Group_52303-3" data-name="Group 52303">
            <path id="Path_205941-3" data-name="Path 205941" d="M87.878,235.08H66.929a1.016,1.016,0,0,0-1.015,1.015v6.323a1.016,1.016,0,0,0,1.015,1.015H87.878a1.016,1.016,0,0,0,1.015-1.015V236.1A1.016,1.016,0,0,0,87.878,235.08ZM86.862,241.4H67.945v-4.293H86.863V241.4Z" transform="translate(-65.914 -235.08)" fill="#b2d0cb"/>
          </g>
        </g>
        <g id="Group_54267" data-name="Group 54267" transform="translate(71.472 173.035)">
          <g id="Group_52318-3" data-name="Group 52318">
            <path id="Path_205946-3" data-name="Path 205946" d="M87.878,257.772H66.929a1.016,1.016,0,0,0-1.015,1.015v6.323a1.016,1.016,0,0,0,1.015,1.015H87.878a1.016,1.016,0,0,0,1.015-1.015v-6.323A1.016,1.016,0,0,0,87.878,257.772ZM86.862,264.1H67.945V259.8H86.863V264.1Z" transform="translate(-65.914 -257.772)" fill="#508b82"/>
          </g>
        </g>
      </g>
    </g>
  </g>
</svg>
