<svg id="menu-hor" xmlns="http://www.w3.org/2000/svg" width="20.167" height="17.693" viewBox="0 0 20.167 17.693">
  <path id="Combined_Shape" data-name="Combined Shape" d="M18.708,17.693H1.455A1.457,1.457,0,0,1,0,16.239v-.585a1.463,1.463,0,0,1,1.455-1.44H18.708a1.461,1.461,0,0,1,1.46,1.443v.586a1.457,1.457,0,0,1-1.455,1.451ZM1.455,10.583A1.457,1.457,0,0,1,0,9.128V8.542A1.462,1.462,0,0,1,1.455,7.1H18.712a1.461,1.461,0,0,1,1.455,1.448v.588a1.457,1.457,0,0,1-1.455,1.446Zm0-7.1A1.457,1.457,0,0,1,0,2.031V1.44A1.463,1.463,0,0,1,1.455,0H18.712a1.463,1.463,0,0,1,1.455,1.443v.588a1.457,1.457,0,0,1-1.455,1.453Z" fill="#2d6759"/>
</svg>
