<svg width="23" height="35" viewBox="0 0 23 35" fill="none" xmlns="http://www.w3.org/2000/svg">
<path fill-rule="evenodd" clip-rule="evenodd" d="M4.5619e-06 4.77303C-0.000876938 4.14598 0.126 3.52494 0.373365 2.94546C0.620731 2.36599 0.983724 1.83947 1.44155 1.39609C1.89937 0.9527 2.44303 0.601155 3.04138 0.36159C3.63972 0.122026 4.28099 -0.000849282 4.92845 4.41804e-06H18.0715C19.3784 0.00086334 20.6314 0.50401 21.5555 1.39894C22.4796 2.29387 22.9991 3.50741 23 4.77303V30.227C22.996 31.4917 22.4755 32.7035 21.5521 33.5978C20.6287 34.492 19.3774 34.9962 18.0715 35H4.92845C3.6222 34.9991 2.36965 34.4964 1.44568 33.6022C0.5217 32.708 0.00177786 31.4953 4.5619e-06 30.2302V4.77303ZM9.03996 31.0246H13.9684V27.8437H9.03996V31.0246Z" fill="#2D6759"/>
</svg>
