<svg xmlns="http://www.w3.org/2000/svg" xmlns:xlink="http://www.w3.org/1999/xlink" width="176.161" height="141.934" viewBox="0 0 176.161 141.934">
  <defs>
    <linearGradient id="linear-gradient" x1="0.5" x2="0.5" y2="1" gradientUnits="objectBoundingBox">
      <stop offset="0" stop-color="#00836a"/>
      <stop offset="1" stop-color="#073e39"/>
    </linearGradient>
    <linearGradient id="linear-gradient-6" y1="1" y2="0" xlink:href="#linear-gradient"/>
  </defs>
  <g id="illustration" transform="translate(-57 -461)">
    <g id="Group_39521" data-name="Group 39521" transform="translate(57 527.317)" opacity="0.272">
      <circle id="Ellipse_1999" data-name="Ellipse 1999" cx="32.414" cy="32.414" r="32.414" transform="translate(8.454 0)" fill="url(#linear-gradient)"/>
      <path id="Path_25533" data-name="Path 25533" d="M2.777,5.554A2.777,2.777,0,1,0,0,2.777,2.777,2.777,0,0,0,2.777,5.554Z" transform="translate(51.087 67.806) rotate(39)" fill="url(#linear-gradient)"/>
      <path id="Path_25534" data-name="Path 25534" d="M1.9,3.793A1.9,1.9,0,1,0,0,1.9,1.9,1.9,0,0,0,1.9,3.793Z" transform="translate(60.641 63.866) rotate(39)" fill="url(#linear-gradient)"/>
      <path id="Path_25535" data-name="Path 25535" d="M15.805,7.3A3.522,3.522,0,1,0,12.284,3.78,3.522,3.522,0,0,0,15.805,7.3Z" transform="translate(-12.283 16.105)" fill="url(#linear-gradient)"/>
    </g>
    <g id="Group_39533" data-name="Group 39533" transform="matrix(0.799, -0.602, 0.602, 0.799, 199.566, 482.285)" opacity="0.272">
      <circle id="Ellipse_1999-2" data-name="Ellipse 1999" cx="11.994" cy="11.994" r="11.994" transform="translate(0 0)" fill="url(#linear-gradient)"/>
      <path id="Path_25533-2" data-name="Path 25533" d="M1.027,0A1.027,1.027,0,1,1,0,1.027,1.028,1.028,0,0,1,1.027,0Z" transform="translate(9.506 26.687) rotate(141)" fill="url(#linear-gradient-6)"/>
      <path id="Path_25534-2" data-name="Path 25534" d="M.7,0A.7.7,0,1,1,0,.7.7.7,0,0,1,.7,0Z" transform="translate(5.561 24.723) rotate(141)" fill="url(#linear-gradient-6)"/>
      <path id="Path_25535-2" data-name="Path 25535" d="M1.3,2.606a1.3,1.3,0,1,1,1.3-1.3A1.3,1.3,0,0,1,1.3,2.606Z" transform="translate(24.51 6.055)" fill="url(#linear-gradient)"/>
    </g>
    <g id="Ellipse_2007" data-name="Ellipse 2007" transform="translate(92.646 461)" fill="#F6F2ED" stroke="#002c27" stroke-width="2">
      <circle cx="63.206" cy="63.206" r="63.206" stroke="none"/>
      <circle cx="63.206" cy="63.206" r="62.206" fill="none"/>
    </g>
    <g id="Group_39720" data-name="Group 39720" transform="translate(97.691 466.379)">
      <g id="Group_39719" data-name="Group 39719" transform="translate(0 0)">
        <path id="Path_27264" data-name="Path 27264" d="M511.6,1209.586a58.4,58.4,0,0,1-17.376,41.655,57.642,57.642,0,0,1-40.965,16.8,58.456,58.456,0,1,1,58.341-58.455Z" transform="translate(-394.923 -1151.13)" fill="url(#linear-gradient)"/>
      </g>
    </g>
    <g id="Ellipse_2008" data-name="Ellipse 2008" transform="translate(102.06 470.414)" fill="#F6F2ED" stroke="#002c27" stroke-width="2">
      <circle cx="53.793" cy="53.793" r="53.793" stroke="none"/>
      <circle cx="53.793" cy="53.793" r="52.793" fill="none"/>
    </g>
    <g id="Rectangle_7600" data-name="Rectangle 7600" transform="translate(110.179 570.413) rotate(-90)" fill="none" stroke="#002c27" stroke-width="1.5" stroke-dasharray="1.5 1.5">
      <rect width="92" height="92" rx="43" stroke="none"/>
      <rect x="0.75" y="0.75" width="90.5" height="90.5" rx="42.25" fill="none"/>
    </g>
    <path id="app" d="M28.86,2H10.576A5.38,5.38,0,0,0,5.26,7.423V39.447a5.38,5.38,0,0,0,5.316,5.423H28.86A5.4,5.4,0,0,0,34.2,39.447V7.423A5.4,5.4,0,0,0,28.86,2Zm-10.2,6.6H20.8a1.608,1.608,0,1,1,0,3.215H18.657a1.608,1.608,0,0,1,0-3.215Zm1.05,31.3a3.58,3.58,0,1,1,3.58-3.58A3.586,3.586,0,0,1,19.707,39.9Z" transform="translate(136.451 500.771)" stroke="#002c27" stroke-width="1" fill="url(#linear-gradient)"/>
  </g>
</svg>
