<svg width="20" height="35" viewBox="0 0 20 35" fill="none" xmlns="http://www.w3.org/2000/svg">
<g clip-path="url(#clip0_4550_13160)">
<path d="M3.36477 0H16.6809C17.1007 0.14956 17.5503 0.243783 17.9341 0.44868C19.3441 1.19648 19.9966 2.37351 19.9958 3.90575C19.9927 12.9731 19.9927 22.0396 19.9958 31.1055C19.9958 31.2303 19.988 31.356 19.9809 31.4794C19.9335 32.4279 19.505 33.3224 18.7845 33.977C18.064 34.6316 17.1068 34.9959 16.1122 34.994C12.0322 35 7.95177 35 3.87078 34.994C2.84493 34.9938 1.86115 34.6047 1.13569 33.9123C0.41023 33.2199 0.00247531 32.2807 0.00206001 31.3014C-0.00263979 22.0985 -0.00263979 12.8953 0.00206001 3.69189C0.00206001 2.47596 0.550369 1.50233 1.54594 0.75004C2.08485 0.345481 2.71854 0.160777 3.36477 0ZM10.0228 3.19684C9.21132 3.19684 8.4006 3.19236 7.5891 3.19684C7.04079 3.20058 6.68752 3.49596 6.66794 3.95137C6.64836 4.40678 7.02748 4.76423 7.57187 4.76722C9.18129 4.77669 10.7915 4.77669 12.4025 4.76722C12.9602 4.76722 13.3229 4.43146 13.3189 3.96707C13.315 3.50269 12.9555 3.19908 12.3845 3.19609C11.598 3.1931 10.8108 3.19609 10.0228 3.19684ZM10.0087 31.8002C10.2264 31.7999 10.442 31.7586 10.6429 31.6787C10.8439 31.5988 11.0264 31.4818 11.18 31.3345C11.3336 31.1872 11.4553 31.0124 11.538 30.8201C11.6208 30.6279 11.663 30.4219 11.6623 30.2141C11.6531 29.7952 11.4725 29.3963 11.1593 29.1029C10.846 28.8094 10.4249 28.6446 9.986 28.6437C9.76815 28.6451 9.55271 28.6875 9.35205 28.7685C9.15139 28.8495 8.96944 28.9675 8.81663 29.1157C8.66382 29.2639 8.54316 29.4395 8.46155 29.6324C8.37995 29.8252 8.33901 30.0315 8.34107 30.2395C8.34017 30.4474 8.38296 30.6534 8.46691 30.8452C8.55086 31.0371 8.67427 31.2109 8.82983 31.3564C8.98539 31.5019 9.16994 31.6162 9.37257 31.6924C9.5752 31.7686 9.79178 31.8053 10.0095 31.8002H10.0087Z" fill="#2D6759"/>
</g>
<defs>
<clipPath id="clip0_4550_13160">
<rect width="20" height="35" fill="white"/>
</clipPath>
</defs>
</svg>
