<svg width="125" height="118" viewBox="0 0 125 118" fill="none" xmlns="http://www.w3.org/2000/svg">
<path opacity="0.4" d="M121.486 31.1534C121.344 31.1181 121.221 31.0302 121.143 30.9075C121.064 30.7849 121.034 30.6368 121.061 30.4934C121.087 30.3499 121.167 30.222 121.285 30.1356C121.403 30.0493 121.549 30.011 121.693 30.0285C121.838 30.0461 121.971 30.1183 122.064 30.2302C122.158 30.3422 122.205 30.4856 122.196 30.6312C122.188 30.7768 122.124 30.9137 122.018 31.0138C121.912 31.114 121.772 31.17 121.626 31.1704C121.579 31.1705 121.532 31.1648 121.486 31.1534ZM123.253 29.0594C123.253 28.893 123.302 28.7304 123.394 28.5921C123.487 28.4538 123.618 28.346 123.772 28.2824C123.926 28.2187 124.095 28.2021 124.258 28.2345C124.421 28.267 124.571 28.3471 124.688 28.4647C124.806 28.5823 124.886 28.7322 124.919 28.8953C124.951 29.0584 124.934 29.2275 124.871 29.3812C124.807 29.5349 124.699 29.6662 124.561 29.7586C124.423 29.851 124.26 29.9004 124.094 29.9004C123.983 29.9004 123.874 29.8786 123.772 29.8363C123.67 29.7941 123.577 29.7321 123.499 29.654C123.341 29.4963 123.253 29.2824 123.253 29.0594ZM120.803 10.2584C120.803 10.0475 120.866 9.84148 120.983 9.66629C121.1 9.4911 121.267 9.35462 121.462 9.27412C121.657 9.19362 121.871 9.17271 122.078 9.21404C122.284 9.25536 122.474 9.35707 122.623 9.50629C122.772 9.65551 122.874 9.84555 122.914 10.0524C122.955 10.2592 122.934 10.4735 122.853 10.6682C122.772 10.8629 122.636 11.0293 122.46 11.1463C122.285 11.2632 122.079 11.3256 121.868 11.3254C121.728 11.3254 121.589 11.2977 121.46 11.2441C121.33 11.1905 121.213 11.1118 121.114 11.0127C121.015 10.9136 120.937 10.796 120.883 10.6665C120.83 10.5371 120.802 10.3984 120.803 10.2584Z" fill="#888888"/>
<path opacity="0.4" d="M115.123 29.8993C120.54 29.8993 124.933 25.5072 124.933 20.0893C124.933 14.6714 120.54 10.2793 115.123 10.2793C109.705 10.2793 105.312 14.6714 105.312 20.0893C105.312 25.5072 109.705 29.8993 115.123 29.8993Z" fill="#2F4F4F"/>
<path opacity="0.4" d="M26.5765 111.647C41.2186 111.647 53.0885 99.7772 53.0885 85.135C53.0885 70.4929 41.2186 58.623 26.5765 58.623C11.9343 58.623 0.0644531 70.4929 0.0644531 85.135C0.0644531 99.7772 11.9343 111.647 26.5765 111.647Z" fill="#2F4F4F"/>
<path opacity="0.4" d="M19.249 115.33C19.249 114.881 19.3822 114.442 19.6318 114.068C19.8813 113.695 20.236 113.404 20.651 113.232C21.0659 113.06 21.5226 113.015 21.9631 113.102C22.4036 113.19 22.8083 113.406 23.1259 113.724C23.4435 114.042 23.6598 114.446 23.7474 114.887C23.835 115.327 23.7901 115.784 23.6182 116.199C23.4463 116.614 23.1552 116.969 22.7817 117.218C22.4083 117.468 21.9692 117.601 21.52 117.601C20.9177 117.601 20.3401 117.362 19.9142 116.936C19.4883 116.51 19.249 115.932 19.249 115.33ZM27.192 115.439C27.192 115.132 27.283 114.832 27.4535 114.577C27.624 114.322 27.8663 114.123 28.1497 114.006C28.4332 113.888 28.7451 113.858 29.046 113.918C29.3469 113.978 29.6233 114.125 29.8401 114.342C30.057 114.559 30.2046 114.836 30.2644 115.137C30.3241 115.438 30.2932 115.75 30.1757 116.033C30.0582 116.316 29.8592 116.559 29.604 116.729C29.3488 116.899 29.0488 116.99 28.742 116.99C28.3309 116.99 27.9366 116.826 27.646 116.535C27.3553 116.244 27.192 115.85 27.192 115.439ZM6.37305 59.2628C6.37305 58.693 6.54201 58.136 6.85858 57.6622C7.17515 57.1885 7.6251 56.8192 8.15154 56.6011C8.67797 56.3831 9.25724 56.326 9.8161 56.4372C10.375 56.5484 10.8883 56.8227 11.2912 57.2257C11.6941 57.6286 11.9685 58.1419 12.0797 58.7008C12.1909 59.2596 12.1338 59.8389 11.9157 60.3653C11.6977 60.8918 11.3284 61.3417 10.8546 61.6583C10.3809 61.9749 9.82385 62.1438 9.25405 62.1438C8.48996 62.1438 7.75716 61.8403 7.21687 61.3C6.67658 60.7597 6.37305 60.0269 6.37305 59.2628Z" fill="#888888"/>
<path d="M40.1191 5.00011L40.1191 107.412C40.1191 110.174 42.3577 112.412 45.1191 112.412H106.043C108.805 112.412 111.043 110.174 111.043 107.412V5.00011C111.043 2.23869 108.805 0.000106812 106.043 0.000106812H45.1191C42.3577 0.000106812 40.1191 2.23869 40.1191 5.00011Z" fill="#F7F2EC"/>
<path d="M72.9718 83.1707C73.6953 82.0153 74.3369 80.9986 74.9956 79.9665C77.6281 75.7764 80.2594 71.5876 82.8896 67.4001C83.2309 66.8455 83.637 66.341 83.108 65.5785H85.4083C84.9886 65.9174 84.6575 66.1485 84.3845 66.4335C83.9557 66.821 83.5645 67.2587 83.2173 67.739C81.8999 69.784 80.6303 71.8713 79.3266 73.924C79.2214 74.0486 79.1627 74.2141 79.1627 74.3861C79.1627 74.5582 79.2214 74.7237 79.3266 74.8483C81.5279 78.3143 83.6917 81.8305 85.9169 85.285C86.3128 85.8934 86.9407 86.3094 87.4697 86.8254C87.596 86.9448 87.7325 87.0449 87.968 87.2413H83.1456C83.8487 86.6136 83.3503 86.1746 83.0705 85.7201C81.3185 82.9165 79.5643 80.1167 77.8078 77.3207C77.7293 77.1936 77.6372 77.0781 77.5143 76.8971C77.3949 77.0704 77.2856 77.209 77.1935 77.3592L73.2414 83.6366C73.0405 84.04 72.9349 84.4949 72.9349 84.9576C72.9349 85.4203 73.0405 85.8752 73.2414 86.2785C73.4189 86.5635 73.5827 86.86 73.8045 87.2221H69.651C69.6726 87.1164 69.7107 87.016 69.7636 86.9256C70.3916 86.1977 70.4769 85.3157 70.4735 84.3375C70.4531 74.4015 70.4531 64.4643 70.4735 54.5257C70.4735 53.6438 70.3882 52.862 69.8182 52.215C69.7561 52.1626 69.7056 52.0946 69.6709 52.0164C69.6361 51.9382 69.618 51.8519 69.618 51.7644C69.618 51.6769 69.6361 51.5906 69.6709 51.5124C69.7056 51.4341 69.7561 51.3661 69.8182 51.3138C70.0075 51.058 70.1809 50.7878 70.337 50.505C70.535 50.1777 70.4803 49.9813 70.1459 49.7733C67.8592 48.3291 65.5692 46.8849 63.3201 45.383C62.8079 45.0616 62.386 44.5843 62.1025 44.0056C61.8189 43.4268 61.685 42.7699 61.716 42.1095C61.7399 39.2673 61.7468 36.4252 61.716 33.583C61.6907 32.9814 61.8122 32.3834 62.0674 31.8544C62.3226 31.3253 62.7016 30.8856 63.1631 30.583C65.4042 29.0425 67.6795 27.5713 69.9889 26.1695C71.1971 25.4339 72.4223 25.7844 73.5656 26.5315L77.7157 29.2273C78.3471 29.6394 78.9853 30.0399 79.6064 30.4751C80.1166 30.8029 80.5423 31.2751 80.8415 31.845C81.1407 32.415 81.3032 33.0631 81.3129 33.7255C81.3709 36.5638 81.3845 39.4098 81.3402 42.2481C81.3129 43.7886 80.5313 44.917 79.3538 45.6795C77.3493 46.9761 75.3437 48.2701 73.3369 49.5615C72.9137 49.8311 72.7909 50.1508 73.1219 50.532C73.8728 51.3908 73.866 52.161 73.1219 52.9929C73.0162 53.1707 72.968 53.3843 72.9854 53.5975C72.9854 63.2794 72.9854 72.9612 72.9854 82.643C72.9376 82.7624 72.9547 82.9049 72.9718 83.1707ZM79.3607 37.9965H79.3368C79.3368 36.741 79.3368 35.4855 79.3368 34.23C79.362 33.8078 79.2751 33.3867 79.0873 33.0204C78.8995 32.6541 78.6192 32.3593 78.2822 32.1735C76.2686 30.8949 74.2687 29.5932 72.2687 28.2877C72.0084 28.1055 71.7081 28.009 71.4018 28.009C71.0955 28.009 70.7953 28.1055 70.5349 28.2877C68.5122 29.5868 66.4907 30.8885 64.4702 32.1927C64.1739 32.3614 63.9277 32.624 63.7616 32.9482C63.5955 33.2724 63.5168 33.6443 63.5351 34.0182C63.5556 36.5856 63.5556 39.1531 63.5351 41.7205C63.5163 42.1256 63.6033 42.5281 63.7853 42.8779C63.9673 43.2277 64.2363 43.5096 64.559 43.6885C65.3688 44.1406 66.1499 44.6553 66.8968 45.2289C67.7123 45.9401 68.6461 46.4592 69.6427 46.7556C70.6393 47.0519 71.6785 47.1195 72.6987 46.9543C72.7862 46.9601 72.874 46.9601 72.9615 46.9543C73.2316 46.9153 73.4957 46.835 73.7465 46.7155C75.2925 45.7412 76.8181 44.7244 78.3641 43.7501C78.6781 43.5748 78.9388 43.2981 79.1132 42.9553C79.2876 42.6124 79.3678 42.2189 79.3436 41.8245C79.3505 40.5421 79.3607 39.2673 79.3607 37.9965Z" fill="#3C3C3C"/>
<path d="M90 88H81.1436L82.6828 86.629L82.7476 86.5635L82.6248 86.3825L82.4712 86.1553C81.04 83.86 79.6066 81.5698 78.171 79.2848L77.4884 78.1718L73.7751 84.0718C73.6565 84.3438 73.5948 84.6429 73.5948 84.946C73.5948 85.2492 73.6565 85.5482 73.7751 85.8202C73.9014 86.0205 74.0209 86.2053 74.154 86.4518L75.0584 87.9923H68.608L69.0073 86.8909C69.0502 86.702 69.1347 86.5285 69.2531 86.3864C69.6865 85.8819 69.7718 85.2541 69.7684 84.3414C69.7479 74.802 69.7479 64.7736 69.7684 54.5257C69.7684 53.7362 69.6967 53.197 69.3111 52.7657C69.1879 52.6428 69.0889 52.4921 69.0206 52.3233C68.9523 52.1546 68.9162 51.9715 68.9146 51.786C68.913 51.6005 68.9459 51.4166 69.0113 51.2464C69.0767 51.0762 69.173 50.9233 69.294 50.7977C69.4072 50.6504 69.5098 50.4934 69.6011 50.3279C67.4101 48.9453 65.144 47.5165 62.9426 46.0492C62.3272 45.6594 61.82 45.0841 61.4777 44.3877C61.1353 43.6913 60.9714 42.9012 61.0041 42.1056C61.0314 38.8553 61.028 36.1518 61.0041 33.5984C60.9781 32.8628 61.1294 32.1329 61.442 31.4866C61.7545 30.8403 62.2165 30.3017 62.7788 29.9283C65.0176 28.3878 67.3248 26.9012 69.6353 25.4956C70.8981 24.7253 72.3246 24.8524 73.8775 25.8807L78.56 28.9385C79.0139 29.2312 79.4815 29.5316 79.9251 29.8512C80.5339 30.2433 81.0413 30.8082 81.3969 31.4898C81.7525 32.1714 81.944 32.9461 81.9524 33.7371C82.0139 36.6909 82.0207 39.5677 81.9797 42.2943C81.9524 43.9966 81.147 45.41 79.6487 46.3805C77.6738 47.6642 75.6966 48.9389 73.7171 50.2046C74.0913 50.636 74.3071 51.2111 74.3212 51.8144C74.2935 52.4501 74.0489 53.049 73.6386 53.4858C73.636 53.5333 73.636 53.5809 73.6386 53.6283C73.6386 62.6965 73.6386 71.7686 73.6386 80.8445L74.4577 79.5428L76.7921 75.8226C78.6419 72.8726 80.4951 69.9201 82.3517 66.9649L82.4268 66.8494C82.7681 66.318 82.7681 66.3026 82.5872 66.0792L81.7272 64.8352H87.5291L85.8226 66.2293C85.6827 66.3449 85.5496 66.4489 85.4267 66.5452C85.2223 66.6958 85.0263 66.8604 84.8397 67.0381L84.6452 67.2307C84.3229 67.525 84.0289 67.8567 83.7681 68.2204C83.0206 69.3758 82.2698 70.585 81.5463 71.7481C80.9957 72.6339 80.4416 73.5184 79.8842 74.4016C80.6805 75.657 81.4769 76.9176 82.2732 78.1834C83.6384 80.367 85.0616 82.6276 86.4813 84.8305C86.7436 85.1845 87.0492 85.4945 87.3891 85.7509C87.57 85.905 87.7509 86.0629 87.925 86.2246C87.9932 86.2901 88.0683 86.3517 88.1639 86.4287L88.3857 86.6136L90 88ZM84.1401 86.4595H85.9319C85.7059 86.2459 85.5031 86.0029 85.3278 85.7355C83.9012 83.5288 82.4814 81.2605 81.106 79.073C80.3188 77.815 79.5225 76.5569 78.717 75.2989L78.0071 76.4311L78.1061 76.5698C78.1846 76.6776 78.2494 76.77 78.3074 76.8663L79.2665 78.4067C80.7044 80.6943 82.139 82.9845 83.5701 85.2772L83.6793 85.4428C83.9121 85.7281 84.0714 86.0796 84.1401 86.4595ZM70.8059 86.4595H72.4885C72.1787 85.6882 72.1183 84.8188 72.3178 84.0025L72.2496 83.0205C72.2373 82.9041 72.2305 82.7871 72.2291 82.67C72.2291 72.9882 72.2291 63.305 72.2291 53.6206C72.2134 53.412 72.2356 53.2019 72.2943 53.0033C72.3529 52.8046 72.4469 52.6216 72.5704 52.4653C72.7568 52.2943 72.8856 52.0564 72.9355 51.7913C72.8879 51.5177 72.7591 51.2705 72.5704 51.0904C72.4347 50.9504 72.33 50.7765 72.2648 50.5825C72.1996 50.3885 72.1757 50.1799 72.195 49.9736C72.2357 49.7432 72.3239 49.5268 72.4526 49.3422C72.5813 49.1575 72.7467 49.0097 72.9355 48.9106C74.9401 47.6269 76.9446 46.3342 78.9491 45.0325C80.0378 44.3278 80.5736 43.4189 80.5941 42.2558C80.6351 39.56 80.6282 36.6909 80.5668 33.7602C80.5627 33.2279 80.4345 32.7063 80.1948 32.2479C79.9551 31.7894 79.6125 31.4104 79.2016 31.1491C78.7682 30.8448 78.3109 30.5483 77.8672 30.2633L73.1813 27.217C72.0346 26.4468 71.1097 26.3544 70.2701 26.8627C67.9801 28.2568 65.6934 29.7357 63.475 31.2569C63.1174 31.4877 62.8235 31.8258 62.6258 32.2337C62.4282 32.6416 62.3347 33.1033 62.3556 33.5676C62.3829 36.1363 62.3863 38.8514 62.3556 42.1134C62.3258 42.6382 62.429 43.1618 62.6533 43.6228C62.8775 44.0838 63.2134 44.4633 63.6218 44.7167C65.8368 46.1917 68.12 47.6321 70.3315 49.0262L70.4442 49.0955C70.5945 49.178 70.728 49.2949 70.8361 49.4388C70.9442 49.5827 71.0246 49.7504 71.0721 49.9312C71.1037 50.1058 71.1014 50.286 71.0655 50.4595C71.0295 50.633 70.9608 50.7956 70.8639 50.9364L70.7547 51.1212C70.6304 51.3449 70.4924 51.5585 70.3418 51.7605C71.0243 52.5924 71.1233 53.5783 71.1199 54.5218C71.0994 64.7659 71.0994 74.7943 71.1199 84.3298C71.1486 85.0504 71.0416 85.7698 70.8059 86.4403V86.4595ZM71.6045 47.8131C69.753 47.8159 67.9528 47.1266 66.4852 45.8528C65.9735 45.4462 65.435 45.0844 64.8743 44.7706C64.6559 44.6397 64.4375 44.5088 64.2191 44.3855C63.7909 44.1393 63.4346 43.7593 63.1925 43.2909C62.9505 42.8225 62.8329 42.2854 62.8539 41.7436C62.8539 39.1518 62.8539 36.5638 62.8539 34.0413C62.8347 33.53 62.9448 33.0231 63.1714 32.5798C63.398 32.1365 63.7318 31.7752 64.1337 31.538L66.5876 29.9591C67.7889 29.1888 68.9937 28.4186 70.2018 27.6484C70.5648 27.3991 70.9816 27.2672 71.4066 27.2672C71.8315 27.2672 72.2483 27.3991 72.6113 27.6484C74.741 29.0386 76.6658 30.2864 78.618 31.5303C79.0622 31.7848 79.4312 32.1795 79.6803 32.6663C79.9293 33.1531 80.0476 33.7111 80.0207 34.2724C80.0207 35.1427 80.0207 36.0324 80.0207 36.895C80.0207 37.0144 80.0207 37.1338 80.0207 37.2532L80.0446 38.0234V39.1788C80.0446 40.0684 80.0446 40.958 80.0446 41.8476C80.0694 42.3793 79.9571 42.9077 79.7215 43.369C79.486 43.8303 79.1371 44.2047 78.717 44.4472C77.9525 44.9324 77.1903 45.4215 76.4303 45.9145C75.6556 46.419 74.8775 46.9234 74.0959 47.4164C73.8529 47.5554 73.5911 47.6479 73.3212 47.6899L73.1301 47.7322C73.0179 47.7578 72.903 47.7656 72.7888 47.7553C72.3929 47.797 71.9951 47.8099 71.5977 47.7938L71.6045 47.8131ZM71.3827 28.7922C71.1977 28.7969 71.0172 28.8581 70.8605 28.9693C69.6558 29.7395 68.4715 30.5098 67.2497 31.28L64.7958 32.8628C64.6036 32.9629 64.4437 33.1278 64.338 33.3347C64.2322 33.5416 64.1859 33.7804 64.2054 34.0182C64.2259 36.5369 64.2293 39.1325 64.2054 41.7205C64.1849 41.9863 64.2374 42.2527 64.3559 42.4836C64.4744 42.7144 64.653 42.8985 64.8675 43.0107C65.0757 43.1416 65.2873 43.2687 65.4989 43.3958C66.1204 43.7454 66.7171 44.1484 67.2838 44.6012C68.0291 45.2559 68.8841 45.7337 69.7973 46.0057C70.7106 46.2777 71.6631 46.3384 72.5977 46.184C72.6794 46.1746 72.7617 46.1746 72.8434 46.184L73.038 46.1417C73.1547 46.1207 73.2691 46.0859 73.3792 46.0377C74.1574 45.5447 74.9287 45.0441 75.7 44.5434C76.4713 44.0428 77.229 43.5537 77.9969 43.0684C78.2019 42.9615 78.3725 42.7857 78.4855 42.5651C78.5986 42.3445 78.6484 42.0899 78.6283 41.8361C78.6283 40.9387 78.6283 40.0376 78.6283 39.1402V38.7551H78.6044V37.9849C78.6044 37.5998 78.6044 37.2378 78.6044 36.8642C78.6044 35.9938 78.6044 35.0927 78.6044 34.203C78.6265 33.9202 78.5705 33.6365 78.444 33.391C78.3175 33.1455 78.1267 32.9502 77.8979 32.832C75.9389 31.5881 74.0106 30.3365 71.8776 28.9462C71.7259 28.8417 71.5534 28.7821 71.3759 28.7729L71.3827 28.7922Z" fill="#3C3C3C"/>
<path d="M40.8691 5.00011L40.8691 107.412C40.8691 109.759 42.7719 111.662 45.1191 111.662H106.043C108.39 111.662 110.293 109.759 110.293 107.412V5.00011C110.293 2.65289 108.39 0.750107 106.043 0.750107H45.1191C42.7719 0.750107 40.8691 2.65289 40.8691 5.00011Z" stroke="#002C27" stroke-width="1.5"/>
<path d="M47.0957 11.226L47.0957 101.541C47.0957 103.888 48.9985 105.791 51.3457 105.791H100.313C102.66 105.791 104.563 103.888 104.563 101.541V11.226C104.563 8.8788 102.66 6.97601 100.313 6.97601H51.3457C48.9985 6.97601 47.0957 8.8788 47.0957 11.226Z" stroke="#002C27" stroke-width="1.5" stroke-dasharray="1.5 2"/>
</svg>
