<svg width="14" height="22" viewBox="0 0 14 22" fill="none" xmlns="http://www.w3.org/2000/svg">
<path fill-rule="evenodd" clip-rule="evenodd" d="M2.72504e-06 2.944C-0.000523837 2.55724 0.0752657 2.17418 0.223029 1.81676C0.370792 1.45934 0.587626 1.13459 0.861106 0.861106C1.13459 0.587626 1.45934 0.370792 1.81676 0.223029C2.17418 0.0752656 2.55724 -0.000523837 2.944 2.72505e-06H10.795C11.5756 0.000532508 12.3241 0.310873 12.8761 0.862865C13.4281 1.41486 13.7385 2.16337 13.739 2.944V18.644C13.7366 19.4241 13.4257 20.1715 12.8741 20.7231C12.3225 21.2747 11.5751 21.5856 10.795 21.588H2.944C2.16371 21.5875 1.41551 21.2774 0.863572 20.7258C0.311637 20.1743 0.001062 19.4263 2.72504e-06 18.646V2.944ZM5.4 19.136H8.344V17.174H5.4V19.136Z" fill="#41594C"/>
</svg>
