<svg width="24" height="24" viewBox="0 0 24 24" fill="none" xmlns="http://www.w3.org/2000/svg">
<path fill-rule="evenodd" clip-rule="evenodd" d="M12 0C5.37242 0 0 5.37242 0 12C0 18.6276 5.37242 24 12 24C18.6276 24 24 18.6276 24 12C24 5.37242 18.6276 0 12 0ZM8.18182 12C8.18182 12.9037 7.44919 13.6364 6.54545 13.6364C5.64172 13.6364 4.90909 12.9037 4.90909 12C4.90909 11.0963 5.64172 10.3636 6.54545 10.3636C7.44919 10.3636 8.18182 11.0963 8.18182 12ZM12 13.6364C12.9037 13.6364 13.6364 12.9037 13.6364 12C13.6364 11.0963 12.9037 10.3636 12 10.3636C11.0963 10.3636 10.3636 11.0963 10.3636 12C10.3636 12.9037 11.0963 13.6364 12 13.6364ZM19.0909 12C19.0909 12.9037 18.3583 13.6364 17.4545 13.6364C16.5508 13.6364 15.8182 12.9037 15.8182 12C15.8182 11.0963 16.5508 10.3636 17.4545 10.3636C18.3583 10.3636 19.0909 11.0963 19.0909 12Z" fill="#FFFFFF"/>
</svg>
