<svg width="20" height="20" viewBox="0 0 20 20" fill="none" xmlns="http://www.w3.org/2000/svg">
<path fill-rule="evenodd" clip-rule="evenodd" d="M10 0C4.47701 0 0 4.47701 0 10C0 15.523 4.47701 20 10 20C15.523 20 20 15.523 20 10C20 4.47701 15.523 0 10 0ZM6.81826 10C6.81826 10.7531 6.20774 11.3636 5.45462 11.3636C4.7015 11.3636 4.09098 10.7531 4.09098 10C4.09098 9.24689 4.7015 8.63637 5.45462 8.63637C6.20774 8.63637 6.81826 9.24689 6.81826 10ZM9.9997 11.3635C10.7528 11.3635 11.3633 10.753 11.3633 9.99991C11.3633 9.24679 10.7528 8.63627 9.9997 8.63627C9.24659 8.63627 8.63607 9.24679 8.63607 9.99991C8.63607 10.753 9.24659 11.3635 9.9997 11.3635ZM15.9092 10C15.9092 10.7531 15.2987 11.3636 14.5456 11.3636C13.7925 11.3636 13.182 10.7531 13.182 10C13.182 9.24689 13.7925 8.63637 14.5456 8.63637C15.2987 8.63637 15.9092 9.24689 15.9092 10Z" fill="#F6F2ED"/>
</svg>
