<svg width="17" height="18" viewBox="0 0 17 18" fill="none" xmlns="http://www.w3.org/2000/svg">
<path d="M8.32617 1.07568C12.7565 1.07568 16.3533 4.62089 16.3535 8.99951C16.3535 13.3784 12.7566 16.9243 8.32617 16.9243C3.89589 16.9241 0.299805 13.3782 0.299805 8.99951C0.300068 4.62101 3.89606 1.07587 8.32617 1.07568ZM8.32617 2.44092C4.65229 2.44111 1.67897 5.3801 1.67871 8.99951C1.67871 12.6191 4.65213 15.5579 8.32617 15.5581C12.0004 15.5581 14.9746 12.6193 14.9746 8.99951C14.9743 5.37999 12.0002 2.44092 8.32617 2.44092Z" fill="#2F4F4F" stroke="#2F4F4F" stroke-width="0.4"/>
<path d="M8.32617 7.83447C8.97436 7.83458 9.50391 8.35438 9.50391 9.00049C9.50374 9.64645 8.97425 10.1654 8.32617 10.1655C7.678 10.1655 7.14763 9.64652 7.14746 9.00049C7.14746 8.35432 7.6779 7.83447 8.32617 7.83447Z" fill="#2F4F4F" stroke="#2F4F4F" stroke-width="0.4"/>
<path d="M11.75 7.83447C12.3982 7.83458 12.9277 8.35438 12.9277 9.00049C12.9276 9.64645 12.3981 10.1654 11.75 10.1655C11.1018 10.1655 10.5715 9.64652 10.5713 9.00049C10.5713 8.35432 11.1017 7.83447 11.75 7.83447Z" fill="#2F4F4F" stroke="#2F4F4F" stroke-width="0.4"/>
<path d="M4.90234 7.83447C5.55053 7.83458 6.08008 8.35438 6.08008 9.00049C6.07991 9.64645 5.55042 10.1654 4.90234 10.1655C4.25417 10.1655 3.7238 9.64652 3.72363 9.00049C3.72363 8.35432 4.25407 7.83447 4.90234 7.83447Z" fill="#2F4F4F" stroke="#2F4F4F" stroke-width="0.4"/>
</svg>
