<svg width="34" height="34" viewBox="0 0 34 34" fill="none" xmlns="http://www.w3.org/2000/svg">
<path d="M17 34C26.3888 34 34 26.3888 34 17C34 7.61116 26.3888 0 17 0C7.61116 0 0 7.61116 0 17C0 26.3888 7.61116 34 17 34Z" fill="#91785D"/>
<g clip-path="url(#clip0_3389_3905)">
<path d="M23.6084 10.6363C24.3603 11.4549 24.8378 12.3917 24.9569 13.4814C25.2082 15.7704 24.3332 17.5165 22.3928 18.7177C22.3399 18.7453 22.2966 18.7886 22.2687 18.8417C22.2409 18.8948 22.2297 18.9552 22.2367 19.0149C22.2414 19.8896 22.2321 20.7636 22.244 21.6384C22.2505 21.7455 22.2323 21.8527 22.1906 21.9515C22.1489 22.0502 22.085 22.1378 22.0039 22.2073C21.7394 22.451 21.4795 22.7074 21.1885 22.9858C21.5033 23.2937 21.7837 23.5621 22.0568 23.8372C22.3128 24.0943 22.3134 24.2886 22.0615 24.5436C21.7883 24.8201 21.5092 25.0898 21.2017 25.3923C21.492 25.6788 21.7639 25.9425 22.0304 26.2109C22.3201 26.5021 22.3194 26.6783 22.0304 26.9715C21.4303 27.5787 20.8296 28.1852 20.2282 28.791C19.9498 29.0708 19.7719 29.0701 19.4934 28.791C18.8916 28.1854 18.2944 27.5751 17.6886 26.9741C17.6197 26.9098 17.5656 26.8311 17.53 26.7434C17.4943 26.6558 17.4781 26.5613 17.4823 26.4667C17.4876 24.0014 17.4823 21.5369 17.4895 19.0716C17.4895 18.8853 17.4426 18.7825 17.2726 18.6837C15.4149 17.608 14.3924 15.3958 14.778 13.3152C15.1893 11.0963 16.8639 9.41167 19.0192 9.06178C19.7694 8.93852 20.5372 8.98412 21.2678 9.19533C21.414 9.23739 21.4464 9.30349 21.4279 9.44171C21.3582 10.033 21.0979 10.5849 20.6872 11.0122C20.6477 11.0631 20.5924 11.0989 20.5302 11.114C20.468 11.129 20.4026 11.1223 20.3446 11.095C19.6905 10.876 19.1132 11.0376 18.6628 11.5491C18.2124 12.0605 18.1337 12.6702 18.4247 13.2918C18.7157 13.9135 19.2428 14.2126 19.9233 14.1959C20.3426 14.1852 20.6984 14.0029 20.9974 13.6998C21.1 13.5941 21.2174 13.5041 21.3459 13.4327C22.3795 12.8827 23.1592 11.9464 23.5184 10.8239C23.531 10.7845 23.5409 10.7445 23.5548 10.7051C23.5703 10.6803 23.5882 10.6573 23.6084 10.6363Z" fill="#FDF7F0"/>
<path d="M19.3839 8.2104C17.1498 8.48684 15.4614 9.59126 14.4998 11.6599C13.5382 13.7285 13.7763 15.733 15.0037 17.6554C14.9667 17.6988 14.9224 17.7562 14.8715 17.8069C14.1546 18.5321 13.435 19.2546 12.7227 19.983C12.6604 20.0544 12.583 20.1106 12.4962 20.1476C12.4094 20.1846 12.3155 20.2014 12.2214 20.1967C11.8762 20.184 11.5303 20.1967 11.1494 20.1967C11.1494 20.5633 11.1494 20.9179 11.1494 21.2724C11.1494 21.6731 11.027 21.7946 10.6362 21.7959C10.2909 21.7959 9.94505 21.7959 9.56543 21.7959C9.56543 22.1725 9.56543 22.5351 9.56543 22.8983C9.56543 23.2616 9.43316 23.3945 9.07537 23.3951C8.209 23.3951 7.34284 23.3951 6.47691 23.3951C6.13764 23.3951 6.00405 23.2569 6.00339 22.9077C6.00339 22.0583 6.01 21.2083 5.99876 20.359C5.99408 20.2522 6.01256 20.1457 6.05288 20.0468C6.0932 19.948 6.1544 19.8592 6.23222 19.7867C8.02757 17.9839 9.82071 16.1783 11.6117 14.3702C11.7439 14.2366 11.7777 14.1311 11.7254 13.9428C10.9318 11.0756 12.7928 8.05683 15.6869 7.50195C16.8692 7.26229 18.0973 7.45145 19.155 8.03613C19.2278 8.07486 19.2972 8.12026 19.366 8.16567C19.3766 8.16567 19.3766 8.18703 19.3839 8.2104Z" fill="#FDF7F0"/>
<path d="M17.3145 6.6239C17.5213 6.21065 17.8237 5.85382 18.196 5.5836C19.3726 4.71556 20.8024 4.82507 21.8335 5.86538C23.4538 7.49863 23.4333 10.5695 21.7865 12.1747C21.2713 12.6768 20.6622 12.98 19.9347 12.994C19.6537 12.9993 19.4857 12.8605 19.4718 12.6227C19.4572 12.371 19.6153 12.2148 19.9076 12.1974C20.4804 12.1627 20.9459 11.9103 21.3381 11.497C22.5358 10.235 22.5286 7.74568 21.3262 6.48902C20.4122 5.53418 19.1186 5.58559 18.2913 6.62257C18.1881 6.75144 18.1041 6.79552 17.946 6.75145C17.7476 6.69336 17.5446 6.66797 17.3145 6.6239Z" fill="#FDF7F0"/>
</g>
<defs>
<clipPath id="clip0_3389_3905">
<rect width="19" height="24" fill="white" transform="translate(6 5)"/>
</clipPath>
</defs>
</svg>
