<svg width="15" height="14" viewBox="0 0 15 14" fill="none" xmlns="http://www.w3.org/2000/svg">
<g clip-path="url(#clip0_1467_7106)">
<path d="M7.5 4.94922C7.04732 4.94922 6.67969 5.31727 6.67969 5.76953C6.67969 6.2218 7.04732 6.58984 7.5 6.58984C7.95268 6.58984 8.32031 6.2218 8.32031 5.76953C8.32031 5.31727 7.95268 4.94922 7.5 4.94922ZM7.5 8.23047C6.59563 8.23047 5.85938 8.96629 5.85938 9.87109V11.1984C6.36865 11.3981 6.92075 11.5117 7.5 11.5117C8.07925 11.5117 8.63135 11.3981 9.14062 11.1984V9.87109C9.14062 8.96629 8.40437 8.23047 7.5 8.23047Z" fill="#F6F2ED"/>
<path d="M12.8594 10.7188C12.556 10.7188 12.2752 10.8072 12.0313 10.9513L10.9581 9.87848C11.6114 9.09639 12.0117 8.09654 12.0117 7C12.0117 5.90338 11.6177 4.89762 10.9647 4.11491L12.0313 3.04872C12.2752 3.19282 12.556 3.28125 12.8594 3.28125C13.7637 3.28125 14.5 2.54543 14.5 1.64062C14.5 0.73582 13.7637 0 12.8594 0C11.955 0 11.2188 0.73582 11.2188 1.64062C11.2188 1.94398 11.3071 2.22477 11.4513 2.46873L10.3847 3.53503C9.60194 2.88233 8.59632 2.48828 7.5 2.48828C6.40368 2.48828 5.39806 2.8823 4.61534 3.53503L3.54872 2.46873C3.69293 2.22477 3.78125 1.94398 3.78125 1.64062C3.78125 0.73582 3.04499 0 2.14062 0C1.23626 0 0.5 0.73582 0.5 1.64062C0.5 2.54543 1.23626 3.28125 2.14062 3.28125C2.44398 3.28125 2.72477 3.19282 2.96873 3.04872L4.03525 4.11491C3.3823 4.89762 2.98828 5.90338 2.98828 7C2.98828 8.09654 3.38859 9.09639 4.04186 9.87848L2.96887 10.9513C2.72477 10.8072 2.44398 10.7188 2.14062 10.7188C1.23626 10.7188 0.5 11.4546 0.5 12.3594C0.5 13.2642 1.23626 14 2.14062 14C3.04499 14 3.78125 13.2642 3.78125 12.3594C3.78125 12.056 3.69293 11.7752 3.54872 11.5313L4.61759 10.4628C4.75206 10.5748 4.89209 10.6803 5.03906 10.7764V9.87109C5.03906 8.51405 6.14296 7.41016 7.5 7.41016C6.59563 7.41016 5.85938 6.67434 5.85938 5.76953C5.85938 4.86473 6.59563 4.12891 7.5 4.12891C8.40437 4.12891 9.14062 4.86473 9.14062 5.76953C9.14062 6.67434 8.40437 7.41016 7.5 7.41016C8.85704 7.41016 9.96094 8.51405 9.96094 9.87109V10.7764C10.1079 10.6803 10.2479 10.5748 10.3824 10.4628L11.4513 11.5313C11.3071 11.7752 11.2188 12.056 11.2188 12.3594C11.2188 13.2642 11.955 14 12.8594 14C13.7637 14 14.5 13.2642 14.5 12.3594C14.5 11.4546 13.7637 10.7188 12.8594 10.7188Z" fill="#F6F2ED"/>
</g>
<defs>
<clipPath id="clip0_1467_7106">
<rect width="14" height="14" fill="white" transform="translate(0.5)"/>
</clipPath>
</defs>
</svg>
