<svg width="38" height="38" viewBox="0 0 38 38" fill="none" xmlns="http://www.w3.org/2000/svg">
<circle cx="19" cy="19" r="19" fill="#F7F2EC"/>
<circle cx="19" cy="18.9999" r="16.0098" fill="#F7F2EC" stroke="#2D6759" stroke-width="3"/>
<circle cx="18.9992" cy="19" r="13.2843" fill="#F7F2EC" stroke="#2D6759" stroke-dasharray="1 1"/>
<path d="M22.428 16.3294C22.0631 17.3064 21.4066 18.0369 20.5077 18.5409C20.4185 18.5911 20.3801 18.6438 20.3811 18.7523C20.3851 19.161 20.3746 19.5696 20.3756 19.9783C20.3756 20.1334 20.3277 20.2571 20.2151 20.3641C20.061 20.5106 19.9159 20.6663 19.7559 20.8285C19.9179 20.9933 20.073 21.1505 20.2275 21.3081C20.4519 21.5378 20.4324 21.7949 20.1787 21.9916C20.0456 22.095 19.9154 22.203 19.7729 22.3176C19.9254 22.5057 20.066 22.6877 20.2156 22.8616C20.4339 23.1161 20.4339 23.3123 20.2131 23.5704C20.066 23.7418 19.9264 23.9192 19.7734 24.1068C19.898 24.2087 20.0112 24.3091 20.1328 24.3978C20.3033 24.5221 20.399 24.6747 20.3871 24.8977C20.3751 25.1122 20.3836 25.3282 20.3846 25.5437C20.3856 25.6826 20.3397 25.7962 20.2405 25.8965C19.737 26.4035 19.2369 26.9151 18.7354 27.4247C18.545 27.6178 18.3261 27.6163 18.1337 27.4211C17.6411 26.9212 17.1516 26.4177 16.655 25.9214C16.5344 25.8007 16.4865 25.6674 16.4865 25.4991C16.4885 23.5866 16.488 21.6747 16.488 19.7623C16.488 19.4322 16.4845 19.1027 16.49 18.7731C16.4915 18.6879 16.4661 18.6413 16.3923 18.5992C15.1654 17.899 14.4251 16.8404 14.2087 15.4304C14.0273 14.2491 14.3015 13.1646 15.0004 12.1967C15.0592 12.1156 15.1146 12.0325 15.1714 11.9503C15.3304 11.7886 15.4895 11.6269 15.6485 11.4651C15.7632 11.3805 15.8763 11.2928 15.9935 11.2106C16.7208 10.7001 17.528 10.4369 18.4109 10.4314C19.1816 10.4268 19.908 10.6149 20.5725 11.0185C20.7968 11.1549 21.0072 11.3156 21.2241 11.4651C21.3826 11.6269 21.5417 11.7886 21.7007 11.9503C21.8478 12.1709 22.0108 12.3823 22.1384 12.6135C22.7975 13.805 22.9066 15.0492 22.428 16.3294Z" fill="#2D6759"/>
<circle cx="18.7235" cy="15.0013" r="1.71373" fill="#FDF7F0"/>
</svg>
