<svg width="175" height="174" viewBox="0 0 175 174" fill="none" xmlns="http://www.w3.org/2000/svg">
<path opacity="0.26" d="M88.2742 167.308C124.556 167.308 153.968 137.897 153.968 101.615C153.968 65.3338 124.556 35.9219 88.2742 35.9219C51.9926 35.9219 22.5806 65.3338 22.5806 101.615C22.5806 137.897 51.9926 167.308 88.2742 167.308Z" fill="#F6F2ED" fill-opacity="0.2"/>
<path d="M167.783 106.68C169.182 106.68 170.316 105.546 170.316 104.147C170.316 102.748 169.182 101.613 167.783 101.613C166.384 101.613 165.249 102.748 165.249 104.147C165.249 105.546 166.384 106.68 167.783 106.68Z" fill="#F6F2ED"/>
<path d="M6.63915 106.68C8.03839 106.68 9.1727 105.546 9.1727 104.147C9.1727 102.748 8.03839 101.613 6.63915 101.613C5.2399 101.613 4.10559 102.748 4.10559 104.147C4.10559 105.546 5.2399 106.68 6.63915 106.68Z" fill="#F6F2ED"/>
<path d="M6.71299 48.2422H5.4292V51.4754H6.71299V48.2422Z" fill="#F6F2ED"/>
<path d="M6.71324 57.1484H5.42944V60.3817H6.71324V57.1484Z" fill="#F6F2ED"/>
<path d="M3.23323 53.668H0V54.9518H3.23323V53.668Z" fill="#F6F2ED"/>
<path d="M12.1402 53.668H8.90698V54.9518H12.1402V53.668Z" fill="#F6F2ED"/>
<path d="M109.04 160.117H107.62V163.695H109.04V160.117Z" fill="#F6F2ED"/>
<path d="M109.04 169.973H107.62V173.55H109.04V169.973Z" fill="#F6F2ED"/>
<path d="M105.19 166.125H101.613V167.545H105.19V166.125Z" fill="#F6F2ED"/>
<path d="M115.047 166.125H111.47V167.545H115.047V166.125Z" fill="#F6F2ED"/>
<path d="M56.5398 173.637C57.7222 173.637 58.6808 172.679 58.6808 171.496C58.6808 170.314 57.7222 169.355 56.5398 169.355C55.3574 169.355 54.3988 170.314 54.3988 171.496C54.3988 172.679 55.3574 173.637 56.5398 173.637Z" fill="#F6F2ED"/>
<path opacity="0.2" d="M50.4103 44.367C51.2455 44.367 52.0619 44.1193 52.7563 43.6554C53.4507 43.1914 53.9919 42.5319 54.3115 41.7603C54.6311 40.9888 54.7147 40.1398 54.5518 39.3207C54.3888 38.5016 53.9867 37.7492 53.3961 37.1586C52.8056 36.5681 52.0532 36.1659 51.2341 36.003C50.415 35.8401 49.566 35.9237 48.7944 36.2433C48.0228 36.5629 47.3634 37.1041 46.8994 37.7985C46.4354 38.4929 46.1877 39.3093 46.1877 40.1444C46.1877 41.2643 46.6326 42.3384 47.4245 43.1302C48.2164 43.9221 49.2904 44.367 50.4103 44.367Z" fill="#F9F4F0"/>
<path d="M135.012 15.3945H133.728V18.6277H135.012V15.3945Z" fill="#F6F2ED"/>
<path d="M135.012 24.3047H133.729V27.5379H135.012V24.3047Z" fill="#F6F2ED"/>
<path d="M131.532 20.8242H128.299V22.108H131.532V20.8242Z" fill="#F6F2ED"/>
<path d="M140.439 20.8242H137.206V22.108H140.439V20.8242Z" fill="#F6F2ED"/>
<path d="M145.323 74.078C147.922 74.078 150.03 71.9706 150.03 69.371C150.03 66.7714 147.922 64.6641 145.323 64.6641C142.723 64.6641 140.616 66.7714 140.616 69.371C140.616 71.9706 142.723 74.078 145.323 74.078Z" fill="#F6F2ED"/>
<path d="M108.797 83.6514V101.613C108.797 116.965 88.3877 127.214 88.2701 127.272C88.2701 127.272 67.7421 117.009 67.7418 101.613V83.6514L88.2701 75.9531L108.797 83.6514ZM79.692 97.167C79.4264 96.9733 79.0533 97.1634 79.0533 97.4922V100.523C79.0534 100.651 79.1138 100.771 79.2164 100.847L86.6451 106.33C86.9567 106.56 86.7944 107.055 86.4069 107.056L79.4567 107.067C79.235 107.068 79.0554 107.248 79.0553 107.47V109.881C79.0554 110.103 79.2357 110.282 79.4576 110.282L97.1725 110.283C97.3945 110.283 97.5748 110.103 97.5748 109.881V107.455C97.5748 107.233 97.3945 107.053 97.1725 107.053L90.2184 107.054C89.8313 107.054 89.6678 106.56 89.9781 106.329L97.4303 100.776C97.5321 100.701 97.5924 100.581 97.5924 100.454V97.5049C97.5924 97.1764 97.2195 96.9866 96.9537 97.1797L88.5494 103.288C88.4083 103.39 88.2176 103.39 88.0768 103.287L79.692 97.167ZM79.693 90.332C79.4274 90.1384 79.0547 90.3277 79.0543 90.6562V93.6826C79.0543 93.8132 79.1177 93.9354 79.2242 94.0107L87.8551 100.103L88.1022 100.257C88.2325 100.338 88.3976 100.338 88.528 100.257L88.775 100.103L97.4244 93.9404C97.5302 93.865 97.5934 93.7432 97.5934 93.6133V90.6699C97.5934 90.3414 97.2205 90.1516 96.9547 90.3447L88.5504 96.4531C88.4094 96.5554 88.2186 96.5548 88.0778 96.4521L79.693 90.332Z" fill="#F6F2ED"/>
<path d="M25.9554 138.135L25.1273 138.613L24.6273 137.747L25.4554 137.27L25.9554 138.135ZM152.682 137.747L152.182 138.613L151.354 138.135L151.854 137.27L152.682 137.747ZM29.2689 136.223L27.6117 137.179L27.1117 136.312L28.7689 135.356L29.2689 136.223ZM150.197 136.312L149.697 137.179L148.04 136.223L148.54 135.356L150.197 136.312ZM32.5814 134.31L30.9252 135.266L30.4252 134.4L32.0814 133.443L32.5814 134.31ZM146.884 134.4L146.384 135.266L144.728 134.31L145.228 133.443L146.884 134.4ZM35.8949 132.396L34.2386 133.354L33.7386 132.487L35.3949 131.53L35.8949 132.396ZM143.571 132.487L143.071 133.354L141.414 132.396L141.914 131.53L143.571 132.487ZM39.2084 130.484L37.5511 131.44L37.0511 130.574L38.7084 129.618L39.2084 130.484ZM140.258 130.574L139.758 131.44L138.101 130.484L138.601 129.618L140.258 130.574ZM42.5209 128.571L40.8646 129.527L40.3646 128.661L42.0209 127.705L42.5209 128.571ZM136.945 128.661L136.445 129.527L134.788 128.571L135.288 127.705L136.945 128.661ZM45.8344 126.658L44.1781 127.614L43.6781 126.749L45.3344 125.792L45.8344 126.658ZM133.631 126.749L133.131 127.614L131.475 126.658L131.975 125.792L133.631 126.749ZM49.1478 124.745L47.4906 125.702L46.9906 124.836L48.6478 123.88L49.1478 124.745ZM130.319 124.836L129.819 125.702L128.161 124.745L128.661 123.88L130.319 124.836ZM52.4603 122.833L50.8041 123.789L50.3041 122.923L51.9603 121.967L52.4603 122.833ZM127.005 122.923L126.505 123.789L124.849 122.833L125.349 121.967L127.005 122.923ZM55.7738 120.92L54.1166 121.876L53.6166 121.01L55.2738 120.054L55.7738 120.92ZM123.692 121.01L123.192 121.876L121.536 120.92L122.036 120.054L123.692 121.01ZM59.0863 119.007L57.4301 119.963L56.9301 119.098L58.5863 118.141L59.0863 119.007ZM120.379 119.098L119.879 119.963L118.223 119.007L118.723 118.141L120.379 119.098ZM61.5717 117.572L60.7435 118.051L60.2435 117.185L61.0717 116.706L61.5717 117.572ZM117.066 117.185L116.566 118.051L115.738 117.572L116.238 116.706L117.066 117.185ZM89.1547 68.8408V69.7969H88.1547V68.8408H89.1547ZM89.1547 65.0146V66.9277H88.1547V65.0146H89.1547ZM89.1547 61.1895V63.1025H88.1547V61.1895H89.1547ZM89.1547 57.3633V59.2764H88.1547V57.3633H89.1547ZM89.1547 53.5381V55.4512H88.1547V53.5381H89.1547ZM89.1547 49.7119V51.625H88.1547V49.7119H89.1547ZM89.1547 45.8867V47.7998H88.1547V45.8867H89.1547ZM89.1547 42.0605V43.9736H88.1547V42.0605H89.1547ZM89.1547 38.2354V40.1484H88.1547V38.2354H89.1547ZM89.1547 34.4102V36.3223H88.1547V34.4102H89.1547ZM89.1547 30.584V32.4971H88.1547V30.584H89.1547ZM89.1547 27.7148V28.6709H88.1547V27.7148H89.1547Z" fill="#F6F2ED"/>
<circle cx="14.8826" cy="148.314" r="12.3299" stroke="#F6F2ED"/>
<path d="M14.7973 148.159C15.6929 148.159 16.4684 147.838 17.102 147.204C17.7356 146.571 18.0568 145.796 18.0568 144.9C18.0568 144.005 17.7356 143.229 17.1019 142.595C16.4681 141.962 15.6928 141.641 14.7973 141.641C13.9017 141.641 13.1264 141.962 12.4928 142.595C11.8592 143.229 11.5379 144.004 11.5379 144.9C11.5379 145.796 11.8592 146.571 12.4929 147.205C13.1266 147.838 13.902 148.159 14.7973 148.159ZM20.5005 152.047C20.4822 151.783 20.4453 151.495 20.3909 151.191C20.3359 150.885 20.2652 150.596 20.1805 150.332C20.0931 150.058 19.9742 149.789 19.8272 149.53C19.6746 149.261 19.4953 149.028 19.2942 148.835C19.0839 148.634 18.8264 148.472 18.5286 148.354C18.2319 148.237 17.903 148.178 17.5513 148.178C17.4132 148.178 17.2796 148.234 17.0216 148.402C16.8381 148.522 16.6542 148.64 16.4697 148.758C16.2924 148.871 16.0523 148.977 15.7556 149.073C15.4663 149.166 15.1724 149.214 14.8824 149.214C14.5924 149.214 14.2986 149.166 14.0089 149.073C13.7126 148.977 13.4725 148.871 13.2954 148.758C13.09 148.627 12.9042 148.507 12.7431 148.402C12.4854 148.234 12.3516 148.177 12.2135 148.177C11.8616 148.177 11.5329 148.237 11.2363 148.354C10.9387 148.472 10.6811 148.634 10.4706 148.836C10.2696 149.028 10.0903 149.262 9.93786 149.53C9.79096 149.789 9.67202 150.058 9.58446 150.332C9.49988 150.596 9.42918 150.885 9.37425 151.191C9.31983 151.495 9.28288 151.783 9.26459 152.047C9.2464 152.313 9.23738 152.579 9.23755 152.846C9.23755 153.552 9.46211 154.124 9.90493 154.546C10.3423 154.962 10.921 155.173 11.6247 155.173H18.1407C18.8445 155.173 19.4229 154.962 19.8604 154.546C20.3033 154.125 20.5279 153.553 20.5279 152.846C20.5278 152.573 20.5186 152.304 20.5005 152.047Z" fill="#F6F2ED"/>
<circle cx="161.657" cy="148.314" r="12.3299" stroke="#F6F2ED"/>
<path d="M161.571 148.159C162.467 148.159 163.242 147.838 163.876 147.204C164.51 146.571 164.831 145.796 164.831 144.9C164.831 144.005 164.51 143.229 163.876 142.595C163.242 141.962 162.467 141.641 161.571 141.641C160.676 141.641 159.9 141.962 159.267 142.595C158.633 143.229 158.312 144.004 158.312 144.9C158.312 145.796 158.633 146.571 159.267 147.205C159.901 147.838 160.676 148.159 161.571 148.159ZM167.275 152.047C167.256 151.783 167.219 151.495 167.165 151.191C167.11 150.885 167.039 150.596 166.955 150.332C166.867 150.058 166.748 149.789 166.601 149.53C166.449 149.261 166.269 149.028 166.068 148.835C165.858 148.634 165.6 148.472 165.303 148.354C165.006 148.237 164.677 148.178 164.325 148.178C164.187 148.178 164.054 148.234 163.796 148.402C163.612 148.522 163.428 148.64 163.244 148.758C163.066 148.871 162.826 148.977 162.53 149.073C162.24 149.166 161.946 149.214 161.656 149.214C161.366 149.214 161.073 149.166 160.783 149.073C160.487 148.977 160.247 148.871 160.069 148.758C159.864 148.627 159.678 148.507 159.517 148.402C159.259 148.234 159.126 148.177 158.988 148.177C158.636 148.177 158.307 148.237 158.01 148.354C157.713 148.472 157.455 148.634 157.245 148.836C157.044 149.028 156.864 149.262 156.712 149.53C156.565 149.789 156.446 150.058 156.359 150.332C156.274 150.596 156.203 150.885 156.148 151.191C156.094 151.495 156.057 151.783 156.039 152.047C156.02 152.313 156.011 152.579 156.012 152.846C156.012 153.552 156.236 154.124 156.679 154.546C157.116 154.962 157.695 155.173 158.399 155.173H164.915C165.619 155.173 166.197 154.962 166.634 154.546C167.077 154.125 167.302 153.553 167.302 152.846C167.302 152.573 167.293 152.304 167.275 152.047Z" fill="#F6F2ED"/>
<circle cx="88.7829" cy="12.8299" r="12.3299" stroke="#F6F2ED"/>
<path d="M88.6975 12.6789C89.593 12.6789 90.3685 12.3577 91.0021 11.7239C91.6358 11.0903 91.9569 10.3151 91.9569 9.41943C91.9569 8.52405 91.6358 7.7487 91.002 7.11487C90.3683 6.48134 89.5929 6.16016 88.6975 6.16016C87.8018 6.16016 87.0265 6.48134 86.3929 7.11497C85.7593 7.7486 85.438 8.52398 85.438 9.41943C85.438 10.3151 85.7593 11.0904 86.393 11.7241C87.0268 12.3576 87.8021 12.6789 88.6975 12.6789ZM94.4007 16.5661C94.3824 16.3024 94.3454 16.0147 94.291 15.711C94.2361 15.405 94.1654 15.1157 94.0807 14.8513C93.9933 14.578 93.8743 14.3081 93.7273 14.0495C93.5747 13.781 93.3955 13.5473 93.1943 13.3549C92.984 13.1537 92.7265 12.9919 92.4288 12.8739C92.132 12.7565 91.8032 12.6971 91.4515 12.6971C91.3133 12.6971 91.1797 12.7537 90.9217 12.9217C90.7383 13.0412 90.5543 13.1597 90.3698 13.2775C90.1926 13.3905 89.9524 13.4963 89.6558 13.5921C89.3664 13.6857 89.0726 13.7332 88.7825 13.7332C88.4925 13.7332 88.1988 13.6857 87.9091 13.5921C87.6128 13.4964 87.3726 13.3906 87.1956 13.2776C86.9902 13.1464 86.8044 13.0266 86.6432 12.9216C86.3855 12.7536 86.2518 12.6969 86.1137 12.6969C85.7618 12.6969 85.4331 12.7565 85.1364 12.874C84.8389 12.9918 84.5813 13.1536 84.3708 13.355C84.1697 13.5475 83.9904 13.7811 83.838 14.0495C83.6911 14.3081 83.5722 14.5779 83.4846 14.8514C83.4 15.1158 83.3293 15.405 83.2744 15.711C83.22 16.0143 83.183 16.3021 83.1647 16.5664C83.1465 16.8324 83.1375 17.0989 83.1377 17.3655C83.1377 18.0719 83.3623 18.6438 83.8051 19.0655C84.2424 19.4817 84.8211 19.6929 85.5248 19.6929H92.0409C92.7446 19.6929 93.3231 19.4818 93.7605 19.0656C94.2035 18.6441 94.428 18.0721 94.428 17.3654C94.4279 17.0927 94.4187 16.8238 94.4007 16.5661Z" fill="#F6F2ED"/>
</svg>
