<svg xmlns="http://www.w3.org/2000/svg" width="52.336" height="48.093" viewBox="0 0 52.336 48.093">
  <g id="multisig" transform="translate(-32 -598)">
    <path id="hexagontile3" d="M30.117,0a5,5,0,0,1,4.327,2.495l8.105,14a5,5,0,0,1,0,5.01l-8.105,14A5,5,0,0,1,30.117,38H13.883a5,5,0,0,1-4.327-2.495l-8.105-14a5,5,0,0,1,0-5.01l8.105-14A5,5,0,0,1,13.883,0Z" transform="matrix(0.966, 0.259, -0.259, 0.966, 41.835, 598)" fill="#092c27" opacity="0.297"/>
    <g id="shield" transform="translate(50.555 613.803)">
      <path id="Path" d="M14.389,2.418,8.048.079a1.267,1.267,0,0,0-.879,0L.828,2.418A1.271,1.271,0,0,0,0,3.609V7.121a9.285,9.285,0,0,0,7.409,9.35,1.223,1.223,0,0,0,.4,0,9.285,9.285,0,0,0,7.409-9.35V3.609a1.271,1.271,0,0,0-.834-1.191Z" transform="translate(0)" fill="#fff"/>
    </g>
  </g>
</svg>
