<svg width="175" height="175" viewBox="0 0 175 175" fill="none" xmlns="http://www.w3.org/2000/svg" xmlns:xlink="http://www.w3.org/1999/xlink">
<path opacity="0.26" d="M88.2742 167.308C124.556 167.308 153.968 137.897 153.968 101.615C153.968 65.3338 124.556 35.9219 88.2742 35.9219C51.9927 35.9219 22.5806 65.3338 22.5806 101.615C22.5806 137.897 51.9927 167.308 88.2742 167.308Z" fill="#073B36" fill-opacity="0.2"/>
<path d="M167.783 106.68C169.182 106.68 170.316 105.546 170.316 104.147C170.316 102.748 169.182 101.613 167.783 101.613C166.384 101.613 165.249 102.748 165.249 104.147C165.249 105.546 166.384 106.68 167.783 106.68Z" fill="#2F4F4F"/>
<path d="M6.63915 106.68C8.03839 106.68 9.1727 105.546 9.1727 104.147C9.1727 102.748 8.03839 101.613 6.63915 101.613C5.2399 101.613 4.10559 102.748 4.10559 104.147C4.10559 105.546 5.2399 106.68 6.63915 106.68Z" fill="#2F4F4F"/>
<path d="M6.71293 48.2422H5.42914V51.4754H6.71293V48.2422Z" fill="#2F4F4F"/>
<path d="M6.71318 57.1484H5.42938V60.3817H6.71318V57.1484Z" fill="#2F4F4F"/>
<path d="M3.23323 53.668H0V54.9518H3.23323V53.668Z" fill="#2F4F4F"/>
<path d="M12.1403 53.668H8.90704V54.9518H12.1403V53.668Z" fill="#2F4F4F"/>
<path d="M109.04 160.117H107.62V163.695H109.04V160.117Z" fill="#2F4F4F"/>
<path d="M109.04 169.973H107.62V173.55H109.04V169.973Z" fill="#2F4F4F"/>
<path d="M105.19 166.125H101.613V167.545H105.19V166.125Z" fill="#2F4F4F"/>
<path d="M115.047 166.125H111.47V167.545H115.047V166.125Z" fill="#2F4F4F"/>
<path d="M56.5398 173.637C57.7222 173.637 58.6808 172.679 58.6808 171.496C58.6808 170.314 57.7222 169.355 56.5398 169.355C55.3574 169.355 54.3988 170.314 54.3988 171.496C54.3988 172.679 55.3574 173.637 56.5398 173.637Z" fill="#B2D0CB"/>
<path opacity="0.2" d="M50.4103 44.367C51.2454 44.367 52.0618 44.1193 52.7562 43.6554C53.4506 43.1914 53.9918 42.5319 54.3114 41.7603C54.631 40.9888 54.7146 40.1398 54.5517 39.3207C54.3888 38.5016 53.9866 37.7492 53.3961 37.1586C52.8055 36.5681 52.0531 36.1659 51.234 36.003C50.4149 35.8401 49.5659 35.9237 48.7943 36.2433C48.0228 36.5629 47.3633 37.1041 46.8993 37.7985C46.4353 38.4929 46.1877 39.3093 46.1877 40.1444C46.1877 41.2643 46.6326 42.3384 47.4244 43.1302C48.2163 43.9221 49.2904 44.367 50.4103 44.367Z" fill="#073B36"/>
<path d="M135.012 15.3945H133.728V18.6277H135.012V15.3945Z" fill="#24312E"/>
<path d="M135.012 24.3047H133.729V27.5379H135.012V24.3047Z" fill="#24312E"/>
<path d="M131.532 20.8242H128.299V22.108H131.532V20.8242Z" fill="#24312E"/>
<path d="M140.439 20.8242H137.206V22.108H140.439V20.8242Z" fill="#24312E"/>
<path d="M145.323 74.078C147.922 74.078 150.03 71.9706 150.03 69.371C150.03 66.7714 147.922 64.6641 145.323 64.6641C142.723 64.6641 140.616 66.7714 140.616 69.371C140.616 71.9706 142.723 74.078 145.323 74.078Z" fill="#2F4F4F"/>
<path d="M108.798 83.6514V101.613C108.797 116.965 88.3878 127.214 88.2703 127.272C88.2703 127.272 67.7422 117.009 67.7419 101.613V83.6514L88.2703 75.9531L108.798 83.6514ZM79.6921 97.167C79.4265 96.9733 79.0535 97.1634 79.0535 97.4922V100.523C79.0535 100.651 79.1139 100.771 79.2166 100.847L86.6453 106.33C86.9568 106.56 86.7945 107.055 86.407 107.056L79.4568 107.067C79.2351 107.068 79.0555 107.248 79.0554 107.47V109.881C79.0555 110.103 79.2358 110.282 79.4578 110.282L97.1726 110.283C97.3946 110.283 97.5749 110.103 97.575 109.881V107.455C97.5749 107.233 97.3946 107.053 97.1726 107.053L90.2185 107.054C89.8315 107.054 89.6679 106.56 89.9783 106.329L97.4304 100.776C97.5322 100.701 97.5925 100.581 97.5925 100.454V97.5049C97.5925 97.1764 97.2196 96.9866 96.9539 97.1797L88.5496 103.288C88.4085 103.39 88.2178 103.39 88.0769 103.287L79.6921 97.167ZM79.6931 90.332C79.4276 90.1384 79.0548 90.3277 79.0544 90.6562V93.6826C79.0544 93.8132 79.1178 93.9354 79.2244 94.0107L87.8552 100.103L88.1023 100.257C88.2326 100.338 88.3978 100.338 88.5281 100.257L88.7751 100.103L97.4246 93.9404C97.5303 93.865 97.5935 93.7432 97.5935 93.6133V90.6699C97.5935 90.3414 97.2206 90.1516 96.9548 90.3447L88.5505 96.4531C88.4095 96.5554 88.2187 96.5548 88.0779 96.4521L79.6931 90.332Z" fill="#2F4F4F"/>
<g id="Repeat group 1_inner" data-figma-trr="r3u2.5-0f">
<path d="M88.6547 27.7148L88.6547 69.797" stroke="#2F4F4F" stroke-dasharray="2 2"/>
</g>
<use xlink:href="#Repeat%20group%201_inner" transform="translate(174.243 46.6882) rotate(120)"/>
<use xlink:href="#Repeat%20group%201_inner" transform="translate(46.6882 174.243) rotate(-120)"/>
<circle cx="14.8827" cy="148.314" r="12.3299" stroke="#2F4F4F"/>
<path d="M14.7973 148.159C15.6929 148.159 16.4684 147.838 17.102 147.204C17.7356 146.571 18.0568 145.796 18.0568 144.9C18.0568 144.005 17.7356 143.229 17.1019 142.595C16.4681 141.962 15.6928 141.641 14.7973 141.641C13.9017 141.641 13.1264 141.962 12.4928 142.595C11.8592 143.229 11.5379 144.004 11.5379 144.9C11.5379 145.796 11.8592 146.571 12.4929 147.205C13.1266 147.838 13.902 148.159 14.7973 148.159ZM20.5005 152.047C20.4822 151.783 20.4453 151.495 20.3909 151.191C20.3359 150.885 20.2652 150.596 20.1805 150.332C20.0931 150.058 19.9742 149.789 19.8272 149.53C19.6746 149.261 19.4953 149.028 19.2942 148.835C19.0839 148.634 18.8264 148.472 18.5286 148.354C18.2319 148.237 17.903 148.178 17.5513 148.178C17.4132 148.178 17.2796 148.234 17.0216 148.402C16.8381 148.522 16.6542 148.64 16.4697 148.758C16.2924 148.871 16.0523 148.977 15.7556 149.073C15.4663 149.166 15.1724 149.214 14.8824 149.214C14.5924 149.214 14.2986 149.166 14.0089 149.073C13.7126 148.977 13.4725 148.871 13.2954 148.758C13.09 148.627 12.9042 148.507 12.7431 148.402C12.4854 148.234 12.3516 148.177 12.2135 148.177C11.8616 148.177 11.5329 148.237 11.2363 148.354C10.9387 148.472 10.6811 148.634 10.4706 148.836C10.2696 149.028 10.0903 149.262 9.93786 149.53C9.79096 149.789 9.67202 150.058 9.58446 150.332C9.49988 150.596 9.42918 150.885 9.37425 151.191C9.31983 151.495 9.28288 151.783 9.26459 152.047C9.2464 152.313 9.23738 152.579 9.23755 152.846C9.23755 153.552 9.46211 154.124 9.90493 154.546C10.3423 154.962 10.921 155.173 11.6247 155.173H18.1407C18.8445 155.173 19.4229 154.962 19.8604 154.546C20.3033 154.125 20.5279 153.553 20.5279 152.846C20.5278 152.573 20.5186 152.304 20.5005 152.047Z" fill="#2F4F4F"/>
<circle cx="161.657" cy="148.314" r="12.3299" stroke="#2F4F4F"/>
<path d="M161.572 148.159C162.467 148.159 163.243 147.838 163.876 147.204C164.51 146.571 164.831 145.796 164.831 144.9C164.831 144.005 164.51 143.229 163.876 142.595C163.242 141.962 162.467 141.641 161.572 141.641C160.676 141.641 159.901 141.962 159.267 142.595C158.633 143.229 158.312 144.004 158.312 144.9C158.312 145.796 158.633 146.571 159.267 147.205C159.901 147.838 160.676 148.159 161.572 148.159ZM167.275 152.047C167.256 151.783 167.219 151.495 167.165 151.191C167.11 150.885 167.039 150.596 166.955 150.332C166.867 150.058 166.748 149.789 166.601 149.53C166.449 149.261 166.269 149.028 166.068 148.835C165.858 148.634 165.601 148.472 165.303 148.354C165.006 148.237 164.677 148.178 164.325 148.178C164.187 148.178 164.054 148.234 163.796 148.402C163.612 148.522 163.428 148.64 163.244 148.758C163.067 148.871 162.826 148.977 162.53 149.073C162.24 149.166 161.947 149.214 161.657 149.214C161.367 149.214 161.073 149.166 160.783 149.073C160.487 148.977 160.247 148.871 160.07 148.758C159.864 148.627 159.678 148.507 159.517 148.402C159.26 148.234 159.126 148.177 158.988 148.177C158.636 148.177 158.307 148.237 158.01 148.354C157.713 148.472 157.455 148.634 157.245 148.836C157.044 149.028 156.864 149.262 156.712 149.53C156.565 149.789 156.446 150.058 156.359 150.332C156.274 150.596 156.203 150.885 156.148 151.191C156.094 151.495 156.057 151.783 156.039 152.047C156.021 152.313 156.012 152.579 156.012 152.846C156.012 153.552 156.236 154.124 156.679 154.546C157.116 154.962 157.695 155.173 158.399 155.173H164.915C165.619 155.173 166.197 154.962 166.635 154.546C167.077 154.125 167.302 153.553 167.302 152.846C167.302 152.573 167.293 152.304 167.275 152.047Z" fill="#2F4F4F"/>
<circle cx="88.783" cy="12.8299" r="12.3299" stroke="#2F4F4F"/>
<path d="M88.6976 12.6789C89.5931 12.6789 90.3686 12.3577 91.0022 11.7239C91.6359 11.0903 91.9571 10.3151 91.9571 9.41943C91.9571 8.52405 91.6359 7.7487 91.0021 7.11487C90.3684 6.48134 89.593 6.16016 88.6976 6.16016C87.8019 6.16016 87.0266 6.48134 86.393 7.11497C85.7594 7.7486 85.4381 8.52398 85.4381 9.41943C85.4381 10.3151 85.7594 11.0904 86.3932 11.7241C87.0269 12.3576 87.8023 12.6789 88.6976 12.6789ZM94.4008 16.5661C94.3825 16.3024 94.3455 16.0147 94.2911 15.711C94.2362 15.405 94.1655 15.1157 94.0808 14.8513C93.9934 14.578 93.8744 14.3081 93.7274 14.0495C93.5748 13.781 93.3956 13.5473 93.1945 13.3549C92.9841 13.1537 92.7267 12.9919 92.4289 12.8739C92.1322 12.7565 91.8033 12.6971 91.4516 12.6971C91.3134 12.6971 91.1798 12.7537 90.9218 12.9217C90.7384 13.0412 90.5545 13.1597 90.37 13.2775C90.1927 13.3905 89.9525 13.4963 89.6559 13.5921C89.3665 13.6857 89.0727 13.7332 88.7827 13.7332C88.4927 13.7332 88.1989 13.6857 87.9092 13.5921C87.6129 13.4964 87.3728 13.3906 87.1957 13.2776C86.9903 13.1464 86.8045 13.0266 86.6433 12.9216C86.3856 12.7536 86.2519 12.6969 86.1138 12.6969C85.7619 12.6969 85.4332 12.7565 85.1365 12.874C84.839 12.9918 84.5814 13.1536 84.3709 13.355C84.1699 13.5475 83.9905 13.7811 83.8381 14.0495C83.6912 14.3081 83.5723 14.5779 83.4847 14.8514C83.4001 15.1158 83.3294 15.405 83.2745 15.711C83.2201 16.0143 83.1831 16.3021 83.1649 16.5664C83.1467 16.8324 83.1376 17.0989 83.1378 17.3655C83.1378 18.0719 83.3624 18.6438 83.8052 19.0655C84.2426 19.4817 84.8212 19.6929 85.525 19.6929H92.041C92.7447 19.6929 93.3232 19.4818 93.7607 19.0656C94.2036 18.6441 94.4281 18.0721 94.4281 17.3654C94.428 17.0927 94.4189 16.8238 94.4008 16.5661Z" fill="#2F4F4F"/>
</svg>
