<svg width="52" height="52" viewBox="0 0 52 52" fill="none" xmlns="http://www.w3.org/2000/svg">
<rect x="0.998535" y="1" width="50" height="50" rx="6" fill="#2F4F4F"/>
<rect x="0.998535" y="1" width="50" height="50" rx="6" stroke="white" stroke-width="2"/>
<path fill-rule="evenodd" clip-rule="evenodd" d="M40 25.5C40 36 26 43 26 43C26 43 12 36 12 25.5V13.25L26 8L40 13.25V25.5ZM25.7173 24.4696L19.8314 20.315C19.7587 20.2636 19.7154 20.1801 19.7154 20.091V18.0273C19.7154 17.803 19.9701 17.6736 20.1513 17.8058L25.8692 21.9798C25.9653 22.05 26.0958 22.0502 26.1921 21.9802L31.9235 17.8144C32.1048 17.6827 32.359 17.8121 32.359 18.0362V20.0438C32.359 20.1324 32.3161 20.2156 32.2438 20.2671L26.3449 24.4696L26.1765 24.5748C26.0875 24.6304 25.9747 24.6304 25.8858 24.5748L25.7173 24.4696ZM19.9899 29.2197C19.8387 29.2199 19.7162 29.3426 19.7162 29.4939V31.138C19.7162 31.2895 19.839 31.4122 19.9904 31.4122L32.0723 31.4123C32.2237 31.4123 32.3465 31.2896 32.3465 31.1381V29.4839C32.3465 29.3324 32.2237 29.2097 32.0723 29.2097L27.3291 29.2098C27.0651 29.2098 26.9536 28.8734 27.1652 28.7157L32.2479 24.9289C32.3173 24.8772 32.3583 24.7956 32.3583 24.709V22.6978C32.3583 22.4737 32.1041 22.3443 31.9228 22.476L26.1914 26.6418C26.0951 26.7118 25.9646 26.7116 25.8685 26.6414L20.1506 22.4674C19.9694 22.3352 19.7147 22.4646 19.7147 22.6889V24.7563C19.7147 24.8433 19.756 24.9252 19.826 24.9769L24.8923 28.7165C25.1049 28.8735 24.9942 29.2108 24.7299 29.2113L19.9899 29.2197Z" fill="#F6F2ED"/>
</svg>
