<svg width="29" height="25" viewBox="0 0 29 25" fill="none" xmlns="http://www.w3.org/2000/svg">
<path d="M26.0825 25H2.89701C2.12866 24.9992 1.39204 24.6978 0.848879 24.162C0.30572 23.6263 0.000416451 22.8999 0 22.1424V3.0422C0.000325173 2.29205 0.299838 1.57212 0.833891 1.03778C1.36794 0.503445 2.0937 0.197565 2.85452 0.186162L19.7928 0H19.8448C20.9942 0.000408997 22.0965 0.450308 22.9098 1.25098C23.7232 2.05166 24.1811 3.13772 24.1832 4.27087L24.2335 4.34378V4.52994H26.103C26.8712 4.53117 27.6076 4.83268 28.1507 5.36836C28.6937 5.90404 28.9992 6.63017 29 7.38753V18.942L28.9858 17.7133V22.1424C28.9856 22.518 28.9104 22.8899 28.7643 23.2368C28.6183 23.5837 28.4043 23.8989 28.1347 24.1642C27.8651 24.4296 27.5451 24.64 27.193 24.7834C26.8409 24.9268 26.4635 25.0004 26.0825 25ZM23.0927 12.1548C22.3313 12.1723 21.607 12.4827 21.0748 13.0198C20.5425 13.5568 20.2445 14.2779 20.2445 15.0287C20.2445 15.7795 20.5425 16.5006 21.0748 17.0376C21.607 17.5747 22.3313 17.8851 23.0927 17.9026H24.5483C24.8056 17.9022 25.0524 17.8012 25.2343 17.6218C25.4163 17.4424 25.5188 17.1991 25.5192 16.9454V13.1136C25.5188 12.8597 25.4164 12.6163 25.2344 12.4366C25.0525 12.257 24.8058 12.1556 24.5483 12.1548H23.0927ZM3.75305 2.85759C3.52602 2.85759 3.30828 2.9465 3.14774 3.10477C2.9872 3.26304 2.89701 3.47769 2.89701 3.70152V4.5439H21.0092C21.0084 4.09733 20.8281 3.66928 20.5078 3.3535C20.1875 3.03772 19.7533 2.85996 19.3003 2.85914L3.75305 2.85759Z" fill="#2F4F4F"/>
<path d="M19.5947 11.7188H25.8649V19.5313H19.5947V11.7188Z" fill="#2F4F4F"/>
<path d="M13.8897 20.8502C14.0644 20.5751 14.2193 20.333 14.3783 20.0873C15.0137 19.0896 15.6488 18.0923 16.2837 17.0953C16.3661 16.9632 16.4641 16.8431 16.3364 16.6616H16.8917C16.7903 16.7422 16.7104 16.7973 16.6445 16.8651C16.541 16.9574 16.4466 17.0616 16.3628 17.176C16.0448 17.6629 15.7383 18.1598 15.4237 18.6486C15.3983 18.6782 15.3841 18.7176 15.3841 18.7586C15.3841 18.7996 15.3983 18.839 15.4237 18.8686C15.955 19.6939 16.4773 20.5311 17.0144 21.3536C17.11 21.4984 17.2616 21.5975 17.3892 21.7203C17.4197 21.7488 17.4527 21.7726 17.5095 21.8194H16.3455C16.5152 21.6699 16.3949 21.5654 16.3274 21.4572C15.9045 20.7896 15.481 20.123 15.0571 19.4573C15.0381 19.4271 15.0159 19.3995 14.9862 19.3565C14.9574 19.3977 14.931 19.4307 14.9088 19.4665L13.9548 20.9611C13.9063 21.0571 13.8808 21.1654 13.8808 21.2756C13.8808 21.3858 13.9063 21.4941 13.9548 21.5901C13.9977 21.658 14.0372 21.7286 14.0907 21.8148H13.0882C13.0934 21.7896 13.1026 21.7657 13.1154 21.7442C13.2669 21.5709 13.2875 21.3609 13.2867 21.128C13.2818 18.7623 13.2818 16.3963 13.2867 14.0299C13.2867 13.8199 13.2661 13.6338 13.1285 13.4798C13.1135 13.4673 13.1014 13.4511 13.093 13.4325C13.0846 13.4139 13.0802 13.3933 13.0802 13.3725C13.0802 13.3516 13.0846 13.3311 13.093 13.3125C13.1014 13.2938 13.1135 13.2776 13.1285 13.2652C13.1742 13.2043 13.2161 13.14 13.2538 13.0726C13.3015 12.9947 13.2884 12.9479 13.2076 12.8984C12.6557 12.5546 12.1029 12.2107 11.56 11.8531C11.4364 11.7766 11.3346 11.6629 11.2661 11.5251C11.1977 11.3873 11.1653 11.2309 11.1728 11.0737C11.1786 10.397 11.1803 9.72028 11.1728 9.04357C11.1667 8.90033 11.196 8.75796 11.2576 8.63199C11.3192 8.50603 11.4107 8.40132 11.5221 8.32928C12.0631 7.9625 12.6123 7.61222 13.1697 7.27845C13.4614 7.10332 13.7571 7.18676 14.0331 7.36465L15.0348 8.00651C15.1872 8.10462 15.3413 8.19998 15.4912 8.3036C15.6144 8.38165 15.7171 8.49407 15.7893 8.62977C15.8616 8.76548 15.9008 8.91979 15.9031 9.0775C15.9171 9.75329 15.9204 10.4309 15.9097 11.1067C15.9031 11.4735 15.7144 11.7421 15.4302 11.9237C14.9464 12.2324 14.4623 12.5405 13.9779 12.848C13.8757 12.9122 13.8461 12.9883 13.926 13.0791C14.1072 13.2835 14.1056 13.4669 13.926 13.665C13.9005 13.7073 13.8888 13.7582 13.893 13.8089C13.893 16.1141 13.893 18.4193 13.893 20.7245C13.8815 20.753 13.8856 20.7869 13.8897 20.8502ZM15.4319 10.0944H15.4261C15.4261 9.79547 15.4261 9.49654 15.4261 9.19762C15.4322 9.09709 15.4112 8.99682 15.3659 8.90961C15.3206 8.8224 15.2529 8.7522 15.1716 8.70797C14.6855 8.40355 14.2028 8.09362 13.72 7.78277C13.6572 7.73941 13.5847 7.71643 13.5108 7.71643C13.4368 7.71643 13.3644 7.73941 13.3015 7.78277C12.8133 8.09209 12.3253 8.40202 11.8376 8.71256C11.7661 8.75272 11.7067 8.81524 11.6666 8.89243C11.6265 8.96963 11.6075 9.05816 11.6119 9.14719C11.6169 9.75848 11.6169 10.3698 11.6119 10.9811C11.6074 11.0775 11.6284 11.1733 11.6723 11.2566C11.7163 11.3399 11.7812 11.407 11.8591 11.4496C12.0545 11.5573 12.2431 11.6798 12.4234 11.8164C12.6202 11.9857 12.8456 12.1093 13.0862 12.1799C13.3267 12.2505 13.5776 12.2666 13.8238 12.2272C13.845 12.2286 13.8661 12.2286 13.8873 12.2272C13.9524 12.2179 14.0162 12.1988 14.0767 12.1704C14.4499 11.9384 14.8182 11.6963 15.1913 11.4643C15.2671 11.4226 15.3301 11.3567 15.3722 11.2751C15.4142 11.1934 15.4336 11.0997 15.4278 11.0058C15.4294 10.7005 15.4319 10.397 15.4319 10.0944Z" fill="#F6F2ED"/>
<path d="M18 22H15.8622L16.2338 21.6736L16.2494 21.658L16.2198 21.6149L16.1827 21.5608C15.8373 21.0143 15.4913 20.469 15.1447 19.925L14.98 19.66L14.0837 21.0647C14.055 21.1295 14.0401 21.2007 14.0401 21.2729C14.0401 21.345 14.055 21.4162 14.0837 21.481C14.1141 21.5287 14.143 21.5727 14.1751 21.6314L14.3934 21.9982H12.8364L12.9328 21.7359C12.9431 21.691 12.9636 21.6496 12.9921 21.6158C13.0967 21.4957 13.1173 21.3462 13.1165 21.1289C13.1116 18.8576 13.1116 16.4699 13.1165 14.0299C13.1165 13.842 13.0992 13.7136 13.0061 13.6109C12.9764 13.5816 12.9525 13.5457 12.936 13.5056C12.9195 13.4654 12.9108 13.4218 12.9104 13.3776C12.91 13.3334 12.918 13.2897 12.9338 13.2491C12.9495 13.2086 12.9728 13.1722 13.002 13.1423C13.0293 13.1072 13.0541 13.0698 13.0761 13.0305C12.5473 12.7013 12.0003 12.3611 11.4689 12.0117C11.3204 11.9189 11.1979 11.7819 11.1153 11.6161C11.0327 11.4503 10.9931 11.2622 11.001 11.0728C11.0076 10.2989 11.0068 9.65518 11.001 9.04724C10.9947 8.87208 11.0312 8.69831 11.1067 8.54442C11.1821 8.39054 11.2936 8.26231 11.4294 8.17339C11.9698 7.80662 12.5267 7.45267 13.0844 7.11799C13.3892 6.9346 13.7335 6.96486 14.1084 7.20968L15.2386 7.93774C15.3482 8.00743 15.461 8.07895 15.5681 8.15505C15.7151 8.2484 15.8376 8.3829 15.9234 8.54519C16.0092 8.70748 16.0555 8.89194 16.0575 9.08025C16.0723 9.78355 16.074 10.4685 16.0641 11.1177C16.0575 11.523 15.8631 11.8595 15.5014 12.0906C15.0247 12.3962 14.5475 12.6997 14.0696 13.0011C14.16 13.1038 14.2121 13.2407 14.2155 13.3844C14.2088 13.5357 14.1497 13.6783 14.0507 13.7823C14.0501 13.7936 14.0501 13.805 14.0507 13.8163C14.0507 15.9754 14.0507 18.1354 14.0507 20.2963L14.2484 19.9864L14.8119 19.1006C15.2584 18.3982 15.7057 17.6953 16.1539 16.9916L16.172 16.9641C16.2544 16.8376 16.2544 16.8339 16.2107 16.7808L16.0031 16.4846H17.4036L16.9917 16.8165C16.9579 16.844 16.9258 16.8688 16.8961 16.8917C16.8468 16.9276 16.7994 16.9668 16.7544 17.0091L16.7075 17.0549C16.6297 17.125 16.5587 17.204 16.4957 17.2906C16.3153 17.5657 16.1341 17.8536 15.9594 18.1305C15.8265 18.3414 15.6928 18.552 15.5583 18.7623C15.7505 19.0612 15.9427 19.3613 16.1349 19.6627C16.4644 20.1826 16.808 20.7209 17.1507 21.2454C17.214 21.3296 17.2877 21.4034 17.3698 21.4645C17.4135 21.5012 17.4571 21.5388 17.4991 21.5773C17.5156 21.5929 17.5337 21.6076 17.5568 21.6259L17.6103 21.6699L18 22ZM16.5855 21.6332H17.018C16.9635 21.5824 16.9145 21.5245 16.8722 21.4608C16.5279 20.9354 16.1852 20.3954 15.8532 19.8745C15.6632 19.575 15.4709 19.2755 15.2765 18.9759L15.1052 19.2455L15.1291 19.2785C15.148 19.3042 15.1637 19.3262 15.1777 19.3491L15.4091 19.7159C15.7562 20.2606 16.1025 20.8058 16.448 21.3517L16.4743 21.3911C16.5305 21.4591 16.569 21.5428 16.5855 21.6332ZM13.3669 21.6332H13.7731C13.6983 21.4496 13.6837 21.2426 13.7319 21.0482L13.7154 20.8144C13.7125 20.7867 13.7108 20.7588 13.7105 20.731C13.7105 18.4258 13.7105 16.1202 13.7105 13.8144C13.7067 13.7648 13.712 13.7147 13.7262 13.6674C13.7404 13.6201 13.763 13.5766 13.7929 13.5394C13.8378 13.4986 13.8689 13.442 13.881 13.3789C13.8695 13.3137 13.8384 13.2549 13.7929 13.212C13.7601 13.1787 13.7348 13.1373 13.7191 13.0911C13.7034 13.0449 13.6976 12.9952 13.7022 12.9461C13.7121 12.8912 13.7334 12.8397 13.7644 12.7958C13.7955 12.7518 13.8354 12.7166 13.881 12.693C14.3648 12.3874 14.8487 12.0796 15.3325 11.7697C15.5953 11.6019 15.7247 11.3855 15.7296 11.1085C15.7395 10.4667 15.7378 9.78355 15.723 9.08575C15.722 8.95903 15.6911 8.83483 15.6332 8.72568C15.5754 8.61653 15.4927 8.52629 15.3935 8.46406C15.2889 8.39162 15.1785 8.32102 15.0714 8.25317L13.9403 7.52787C13.6635 7.34448 13.4403 7.32247 13.2376 7.4435C12.6848 7.77544 12.1329 8.12755 11.5974 8.48974C11.5111 8.54469 11.4401 8.62519 11.3924 8.72231C11.3447 8.81943 11.3222 8.92937 11.3272 9.03991C11.3338 9.65151 11.3346 10.298 11.3272 11.0746C11.32 11.1996 11.3449 11.3242 11.3991 11.434C11.4532 11.5438 11.5343 11.6341 11.6328 11.6945C12.1675 12.0457 12.7186 12.3886 13.2524 12.7205L13.2796 12.737C13.3159 12.7567 13.3481 12.7845 13.3742 12.8188C13.4003 12.853 13.4197 12.8929 13.4312 12.936C13.4388 12.9776 13.4383 13.0205 13.4296 13.0618C13.4209 13.1031 13.4043 13.1418 13.381 13.1753L13.3546 13.2193C13.3246 13.2726 13.2913 13.3235 13.2549 13.3716C13.4197 13.5696 13.4436 13.8044 13.4427 14.029C13.4378 16.4681 13.4378 18.8558 13.4427 21.1261C13.4497 21.2977 13.4238 21.469 13.3669 21.6286V21.6332ZM13.5597 12.4317C13.1128 12.4324 12.6783 12.2682 12.324 11.965C12.2005 11.8681 12.0705 11.782 11.9352 11.7073C11.8825 11.6761 11.8297 11.6449 11.777 11.6156C11.6737 11.557 11.5877 11.4665 11.5292 11.355C11.4708 11.2434 11.4424 11.1156 11.4475 10.9866C11.4475 10.3695 11.4475 9.75329 11.4475 9.15269C11.4428 9.03095 11.4694 8.91026 11.5241 8.80472C11.5788 8.69917 11.6594 8.61314 11.7564 8.55668L12.3487 8.18073C12.6387 7.99734 12.9295 7.81395 13.2211 7.63056C13.3088 7.57121 13.4094 7.53981 13.5119 7.53981C13.6145 7.53981 13.7151 7.57121 13.8027 7.63056C14.3168 7.96158 14.7814 8.25867 15.2526 8.55484C15.3598 8.61543 15.4489 8.7094 15.509 8.82531C15.5691 8.94121 15.5977 9.07407 15.5912 9.20771C15.5912 9.41494 15.5912 9.62675 15.5912 9.83215C15.5912 9.86057 15.5912 9.889 15.5912 9.91742L15.597 10.1008V10.3759C15.597 10.5877 15.597 10.7995 15.597 11.0113C15.6029 11.1379 15.5759 11.2637 15.519 11.3736C15.4621 11.4834 15.3779 11.5726 15.2765 11.6303C15.092 11.7458 14.908 11.8623 14.7246 11.9796C14.5376 12.0998 14.3497 12.2199 14.1611 12.3372C14.1024 12.3703 14.0392 12.3924 13.9741 12.4023L13.928 12.4124C13.9009 12.4185 13.8731 12.4204 13.8456 12.4179C13.75 12.4279 13.654 12.4309 13.5581 12.4271L13.5597 12.4317ZM13.5062 7.90289C13.4615 7.90401 13.4179 7.91859 13.3801 7.94508C13.0893 8.12846 12.8035 8.31185 12.5085 8.49524L11.9162 8.8721C11.8698 8.89594 11.8312 8.93518 11.8057 8.98445C11.7802 9.03371 11.769 9.09056 11.7737 9.14719C11.7787 9.74687 11.7795 10.3649 11.7737 10.9811C11.7688 11.0444 11.7815 11.1078 11.81 11.1628C11.8386 11.2177 11.8818 11.2615 11.9335 11.2883C11.9838 11.3194 12.0349 11.3497 12.0859 11.38C12.2359 11.4632 12.38 11.5591 12.5168 11.667C12.6967 11.8228 12.9031 11.9366 13.1235 12.0014C13.3439 12.0661 13.5739 12.0806 13.7994 12.0438C13.8192 12.0416 13.839 12.0416 13.8588 12.0438L13.9057 12.0337C13.9339 12.0287 13.9615 12.0204 13.9881 12.009C14.1759 11.8916 14.3621 11.7724 14.5483 11.6532C14.7345 11.534 14.9173 11.4175 15.1027 11.302C15.1522 11.2765 15.1934 11.2347 15.2206 11.1822C15.2479 11.1296 15.26 11.069 15.2551 11.0086C15.2551 10.7949 15.2551 10.5804 15.2551 10.3667V10.275H15.2493V10.0916C15.2493 9.99995 15.2493 9.91376 15.2493 9.82481C15.2493 9.61758 15.2493 9.40301 15.2493 9.1912C15.2547 9.12385 15.2412 9.05631 15.2106 8.99786C15.1801 8.93941 15.134 8.89291 15.0788 8.86477C14.6059 8.56859 14.1405 8.27059 13.6256 7.93957C13.589 7.91468 13.5474 7.90049 13.5045 7.89831L13.5062 7.90289Z" fill="#F6F2ED"/>
</svg>
