<svg width="73" height="72" viewBox="0 0 73 72" fill="none" xmlns="http://www.w3.org/2000/svg">
<g clip-path="url(#clip0_6667_11910)">
<path d="M8.93422 42.2943C8.68602 41.4013 9.00217 40.7573 9.73572 40.2107C11.3755 38.9882 12.921 37.631 14.6098 36.4851C18.9384 33.55 23.7408 31.802 28.9208 31.126C35.442 30.2723 41.7129 31.1834 47.7334 33.8596C51.1838 35.4018 54.3522 37.5097 57.1078 40.0961C58.9285 41.7934 60.4619 43.7338 62.0318 45.6467C62.2627 45.9337 62.3727 46.2993 62.3386 46.6661C62.3046 47.0329 62.129 47.372 61.8492 47.6116C61.0605 48.289 60.2577 48.9505 59.441 49.596C58.7924 50.1099 57.9348 49.9827 57.3714 49.3224C56.3643 48.1424 55.3882 46.933 54.3431 45.7881C51.594 42.762 48.1848 40.4097 44.3799 38.9135C37.1187 36.0364 29.8376 36.0336 22.5788 38.9501C19.6914 40.1109 17.1188 41.7959 14.7457 43.7964C14.3417 44.137 13.9044 44.4434 13.525 44.8139C12.8699 45.4541 12.1577 45.6189 11.3304 45.2069L8.93422 42.2943Z" fill="#2D6759" fill-opacity="0.2"/>
<path opacity="0.4" d="M16.4978 51.4732C16.249 50.5793 16.5766 49.9478 17.2968 49.3865C18.9097 48.1282 20.4146 46.7311 22.2185 45.7296C28.7075 42.1273 35.4115 41.7358 42.282 44.4652C45.7602 45.8454 48.6676 48.0664 51.0303 50.9821C51.6022 51.687 52.1854 52.3838 52.7632 53.085C53.3559 53.8152 53.2775 54.6711 52.5614 55.2702C51.8272 55.8847 51.0878 56.4939 50.3433 57.098C49.6416 57.666 48.7854 57.575 48.1944 56.8859C47.3036 55.8455 46.4338 54.7853 45.5121 53.7729C43.8627 51.9603 41.8463 50.6674 39.5665 49.8014C36.1293 48.4956 32.6295 48.3214 29.067 49.2788C26.7493 49.902 24.7077 51.0413 22.8486 52.5334C22.2437 53.019 21.6225 53.491 21.0577 54.0207C20.3984 54.6387 19.7017 54.774 18.8969 54.3782L16.4978 51.4732Z" fill="#2D6759"/>
<path d="M28.6622 66.2349C28.3937 65.464 28.0143 64.71 27.8796 63.9202C27.4339 61.3679 28.6531 58.9541 30.9091 57.7282C33.0192 56.5813 35.8792 56.91 37.7192 58.5103C40.1578 60.6326 40.4544 64.4158 38.3704 66.8343C36.126 69.4391 32.454 69.7603 29.8851 67.5768C29.8187 67.5312 29.7477 67.4927 29.6733 67.4618L28.6622 66.2349Z" fill="#2D6759"/>
</g>
<defs>
<clipPath id="clip0_6667_11910">
<rect width="50.7513" height="50.7513" fill="white" transform="translate(0.677734 32.2749) rotate(-39.49)"/>
</clipPath>
</defs>
</svg>
