<svg width="16" height="18" viewBox="0 0 16 18" fill="none" xmlns="http://www.w3.org/2000/svg">
<path d="M0.206802 8.47402C0.307782 7.97752 0.600151 7.53801 1.02338 7.24649C1.4466 6.95497 1.96827 6.83376 2.48037 6.90796C2.99246 6.98216 3.45576 7.24609 3.77435 7.6451C4.09293 8.04411 4.2424 8.54764 4.1918 9.05143C4.1412 9.55523 3.89441 10.0207 3.50252 10.3515C3.11064 10.6823 2.60368 10.853 2.0866 10.8284C1.56953 10.8037 1.08195 10.5856 0.72481 10.2191C0.367672 9.85265 0.168332 9.36592 0.168065 8.8597C0.168012 8.73021 0.180986 8.60103 0.206802 8.47402ZM6.41536 12.4043C6.46456 12.2371 6.54714 12.081 6.65835 11.9451C7.38056 11.0708 7.77449 9.98078 7.77449 8.85683C7.77449 7.73288 7.38056 6.64289 6.65835 5.76852C6.43466 5.49544 6.33107 5.14666 6.37037 4.7989C6.40966 4.45114 6.58862 4.13288 6.86788 3.91415C7.14715 3.69542 7.50383 3.59412 7.85947 3.63254C8.21511 3.67097 8.54057 3.84597 8.76426 4.11904C9.88155 5.45695 10.4918 7.13123 10.4918 8.85855C10.4918 10.5859 9.88155 12.2602 8.76426 13.5981C8.56854 13.835 8.29503 13.9986 7.9901 14.0609C7.68517 14.1232 7.36759 14.0804 7.09121 13.9399C6.81483 13.7993 6.59666 13.5697 6.47369 13.2898C6.35073 13.0099 6.32936 12.6971 6.41536 12.4043ZM10.4088 1.64196C10.4385 1.38263 10.5461 1.1377 10.718 0.938066C10.8898 0.738436 11.1183 0.593047 11.3746 0.520239C11.6309 0.44743 11.9034 0.450463 12.158 0.528954C12.4125 0.607446 12.6375 0.75788 12.8047 0.961282C14.6428 3.20122 15.6445 5.98723 15.6445 8.85913C15.6445 11.731 14.6428 14.517 12.8047 16.757C12.5808 17.031 12.2549 17.2068 11.8985 17.2457C11.542 17.2847 11.1844 17.1836 10.9042 16.9647C10.624 16.7458 10.4442 16.4271 10.4044 16.0786C10.3645 15.7301 10.4679 15.3803 10.6917 15.1063C12.1464 13.3351 12.9393 11.1314 12.9393 8.8597C12.9393 6.58798 12.1464 4.38429 10.6917 2.61305C10.4678 2.3395 10.364 1.99028 10.403 1.64196H10.4088Z" fill="#F6F2ED"/>
</svg>
