<svg width="16" height="18" viewBox="0 0 16 18" fill="none" xmlns="http://www.w3.org/2000/svg">
<path d="M0.207779 8.47377C0.308759 7.97728 0.601128 7.53777 1.02435 7.24625C1.44758 6.95472 1.96925 6.83351 2.48134 6.90771C2.99344 6.98191 3.45674 7.24584 3.77533 7.64485C4.09391 8.04386 4.24338 8.54739 4.19278 9.05119C4.14217 9.55499 3.89538 10.0205 3.5035 10.3512C3.11162 10.682 2.60465 10.8528 2.08758 10.8281C1.57051 10.8035 1.08292 10.5853 0.725786 10.2189C0.368649 9.85241 0.169309 9.36567 0.169042 8.85946C0.168988 8.72996 0.181963 8.60078 0.207779 8.47377ZM6.41634 12.404C6.46554 12.2368 6.54812 12.0808 6.65933 11.9449C7.38153 11.0705 7.77546 9.98053 7.77546 8.85659C7.77546 7.73264 7.38153 6.64264 6.65933 5.76827C6.43564 5.4952 6.33205 5.14641 6.37134 4.79865C6.41064 4.45089 6.5896 4.13264 6.86886 3.91391C7.14812 3.69517 7.50481 3.59387 7.86044 3.6323C8.21608 3.67072 8.54155 3.84572 8.76524 4.1188C9.88253 5.45671 10.4928 7.13099 10.4928 8.85831C10.4928 10.5856 9.88253 12.2599 8.76524 13.5978C8.56952 13.8348 8.29601 13.9983 7.99108 14.0606C7.68615 14.1229 7.36857 14.0802 7.09219 13.9396C6.81581 13.7991 6.59764 13.5694 6.47467 13.2895C6.3517 13.0097 6.33034 12.6968 6.41634 12.404ZM10.4098 1.64172C10.4395 1.38238 10.5471 1.13745 10.7189 0.937822C10.8908 0.738191 11.1193 0.592803 11.3756 0.519994C11.6318 0.447186 11.9044 0.450219 12.1589 0.52871C12.4134 0.607201 12.6385 0.757636 12.8057 0.961038C14.6437 3.20098 15.6455 5.98698 15.6455 8.85888C15.6455 11.7308 14.6437 14.5168 12.8057 16.7567C12.5818 17.0307 12.2558 17.2065 11.8994 17.2455C11.543 17.2845 11.1854 17.1834 10.9052 16.9645C10.625 16.7456 10.4452 16.4268 10.4053 16.0783C10.3655 15.7298 10.4689 15.3801 10.6927 15.1061C12.1474 13.3349 12.9403 11.1312 12.9403 8.85946C12.9403 6.58773 12.1474 4.38405 10.6927 2.61281C10.4688 2.33925 10.3649 1.99003 10.4039 1.64172H10.4098Z" fill="#FCFCFC"/>
</svg>
