<svg width="39" height="39" viewBox="0 0 39 39" fill="none" xmlns="http://www.w3.org/2000/svg">
<path d="M19.408 0C15.5695 0 11.8171 1.13825 8.6255 3.27083C5.43387 5.40341 2.9463 8.43453 1.47735 11.9809C0.00840567 15.5272 -0.375933 19.4295 0.372929 23.1943C1.12179 26.9591 2.97022 30.4173 5.68447 33.1315C8.39873 35.8458 11.8569 37.6942 15.6217 38.4431C19.3865 39.1919 23.2888 38.8076 26.8351 37.3386C30.3815 35.8697 33.4126 33.3821 35.5452 30.1905C37.6777 26.9989 38.816 23.2465 38.816 19.408C38.8099 14.2625 36.7632 9.32957 33.1248 5.69118C29.4864 2.05279 24.5535 0.00607564 19.408 0Z" fill="#2F4F4F"/>
<path d="M11.5166 18.4738C11.6153 17.9773 11.9012 17.5378 12.315 17.2462C12.7289 16.9547 13.239 16.8335 13.7398 16.9077C14.2405 16.9819 14.6935 17.2458 15.0051 17.6449C15.3166 18.0439 15.4628 18.5474 15.4133 19.0512C15.3638 19.555 15.1225 20.0205 14.7393 20.3512C14.3561 20.682 13.8603 20.8528 13.3547 20.8281C12.8491 20.8035 12.3723 20.5853 12.0231 20.2189C11.6739 19.8524 11.4789 19.3657 11.4787 18.8595C11.4786 18.73 11.4913 18.6008 11.5166 18.4738ZM17.5876 22.404C17.6357 22.2368 17.7164 22.0808 17.8252 21.9449C18.5314 21.0705 18.9166 19.9805 18.9166 18.8566C18.9166 17.7326 18.5314 16.6426 17.8252 15.7683C17.6065 15.4952 17.5052 15.1464 17.5436 14.7987C17.582 14.4509 17.757 14.1326 18.0301 13.9139C18.3032 13.6952 18.6519 13.5939 18.9997 13.6323C19.3475 13.6707 19.6657 13.8457 19.8844 14.1188C20.977 15.4567 21.5738 17.131 21.5738 18.8583C21.5738 20.5856 20.977 22.2599 19.8844 23.5978C19.6931 23.8348 19.4256 23.9983 19.1274 24.0606C18.8293 24.1229 18.5187 24.0802 18.2485 23.9396C17.9782 23.7991 17.7649 23.5694 17.6446 23.2895C17.5244 23.0097 17.5035 22.6968 17.5876 22.404ZM21.4926 11.6417C21.5216 11.3824 21.6268 11.1375 21.7949 10.9378C21.9629 10.7382 22.1864 10.5928 22.437 10.52C22.6876 10.4472 22.9541 10.4502 23.203 10.5287C23.4518 10.6072 23.6719 10.7576 23.8354 10.961C25.6327 13.201 26.6123 15.987 26.6123 18.8589C26.6123 21.7308 25.6327 24.5168 23.8354 26.7567C23.6165 27.0307 23.2977 27.2065 22.9492 27.2455C22.6007 27.2845 22.251 27.1834 21.977 26.9645C21.703 26.7456 21.5272 26.4268 21.4882 26.0783C21.4493 25.7298 21.5503 25.3801 21.7692 25.1061C23.1917 23.3349 23.967 21.1312 23.967 18.8595C23.967 16.5877 23.1917 14.384 21.7692 12.6128C21.5503 12.3393 21.4487 11.99 21.4869 11.6417H21.4926Z" fill="#FCFCFC"/>
</svg>
