<svg width="14" height="19" viewBox="0 0 14 19" fill="none" xmlns="http://www.w3.org/2000/svg">
<path fill-rule="evenodd" clip-rule="evenodd" d="M2.99748 12.3355C3.36856 11.9651 3.66297 11.5251 3.86383 11.0408C4.0647 10.5565 4.1681 10.0373 4.1681 9.513C4.1681 8.98868 4.0647 8.46951 3.86383 7.98519C3.66297 7.50087 3.36856 7.06092 2.99748 6.69051L4.22848 5.45551C4.76033 5.98633 5.18228 6.61684 5.47017 7.31093C5.75806 8.00502 5.90625 8.74908 5.90625 9.5005C5.90625 10.2519 5.75806 10.996 5.47017 11.6901C5.18228 12.3842 4.76033 13.0147 4.22848 13.5455L3.00548 12.3145L2.99748 12.3355Z" fill="#F1F1F1"/>
<path fill-rule="evenodd" clip-rule="evenodd" d="M5.57408 14.9067C6.28402 14.198 6.84725 13.3563 7.23154 12.4297C7.61583 11.5031 7.81363 10.5098 7.81363 9.5067C7.81363 8.50358 7.61583 7.5103 7.23154 6.5837C6.84725 5.65711 6.28402 4.81539 5.57408 4.1067L6.80607 2.8797C7.67618 3.74873 8.36645 4.78075 8.83741 5.91675C9.30837 7.05275 9.55078 8.27044 9.55078 9.5002C9.55078 10.73 9.30837 11.9476 8.83741 13.0836C8.36645 14.2196 7.67618 15.2517 6.80607 16.1207L5.58308 14.8897L5.57408 14.9067Z" fill="#F1F1F1"/>
<path fill-rule="evenodd" clip-rule="evenodd" d="M8.14968 17.4815C9.19701 16.4346 10.0278 15.1917 10.5947 13.8237C11.1615 12.4556 11.4533 10.9893 11.4533 9.5085C11.4533 8.02769 11.1615 6.56138 10.5947 5.19335C10.0278 3.82531 9.19701 2.58237 8.14968 1.5355L9.38068 0.304504C10.5888 1.51178 11.5471 2.94528 12.201 4.52309C12.8549 6.10089 13.1914 7.79208 13.1914 9.5C13.1914 11.2079 12.8549 12.8991 12.201 14.4769C11.5471 16.0547 10.5888 17.4882 9.38068 18.6955L8.15768 17.4645L8.14968 17.4815Z" fill="#F1F1F1"/>
<circle cx="1.5" cy="9.39532" r="1.5" fill="#F1F1F1"/>
</svg>
