<svg width="200" height="162" viewBox="0 0 200 162" fill="none" xmlns="http://www.w3.org/2000/svg">
<path opacity="0.1" d="M97.5021 159.899C138.28 159.899 171.336 126.842 171.336 86.0643C171.336 45.2863 138.28 12.2292 97.5021 12.2292C56.7246 12.2292 23.668 45.2863 23.668 86.0643C23.668 126.842 56.7246 159.899 97.5021 159.899Z" fill="#F6F2ED"/>
<path opacity="0.3" d="M182.056 114.22C183.307 114.22 184.53 113.849 185.57 113.154C186.61 112.459 187.421 111.472 187.9 110.316C188.379 109.16 188.504 107.888 188.26 106.661C188.016 105.434 187.413 104.307 186.529 103.423C185.644 102.538 184.517 101.936 183.29 101.692C182.063 101.448 180.792 101.573 179.636 102.052C178.48 102.531 177.492 103.341 176.797 104.381C176.102 105.421 175.731 106.644 175.731 107.895C175.732 109.573 176.398 111.181 177.584 112.368C178.77 113.554 180.379 114.22 182.056 114.22Z" fill="#D3D1CE"/>
<path opacity="0.2" d="M191.314 89.5364C192.169 89.5364 193.005 89.2828 193.716 88.8079C194.427 88.3329 194.981 87.6578 195.308 86.8679C195.635 86.078 195.721 85.2089 195.554 84.3704C195.387 83.5318 194.975 82.7616 194.371 82.1571C193.766 81.5525 192.996 81.1408 192.158 80.9741C191.319 80.8073 190.45 80.8929 189.66 81.22C188.87 81.5472 188.195 82.1013 187.72 82.8121C187.245 83.523 186.992 84.3587 186.992 85.2137C186.992 86.3601 187.447 87.4596 188.258 88.2703C189.068 89.0809 190.168 89.5364 191.314 89.5364Z" fill="#D3D1CE"/>
<path opacity="0.2" d="M156.491 26.2732C157.346 26.2732 158.182 26.0197 158.893 25.5447C159.603 25.0698 160.158 24.3946 160.485 23.6048C160.812 22.8149 160.897 21.9458 160.731 21.1072C160.564 20.2687 160.152 19.4985 159.548 18.894C158.943 18.2894 158.173 17.8777 157.334 17.7109C156.496 17.5441 155.627 17.6297 154.837 17.9569C154.047 18.2841 153.372 18.8381 152.897 19.549C152.422 20.2599 152.168 21.0956 152.168 21.9506C152.168 23.097 152.624 24.1965 153.435 25.0072C154.245 25.8178 155.345 26.2732 156.491 26.2732Z" fill="#D3D1CE"/>
<path opacity="0.3" d="M11.7317 77.9984C13.3183 77.9984 14.8692 77.5279 16.1884 76.6465C17.5076 75.765 18.5357 74.5122 19.1429 73.0464C19.75 71.5806 19.9089 69.9676 19.5994 68.4115C19.2898 66.8554 18.5258 65.4261 17.404 64.3042C16.2821 63.1823 14.8528 62.4183 13.2967 62.1088C11.7406 61.7993 10.1277 61.9581 8.66193 62.5653C7.19615 63.1724 5.94332 64.2006 5.06187 65.5198C4.18043 66.839 3.70996 68.39 3.70996 69.9765C3.70996 72.1041 4.55511 74.1445 6.05948 75.6488C7.56386 77.1532 9.60423 77.9984 11.7317 77.9984Z" fill="#D3D1CE"/>
<path d="M66.9348 30.7779L66.0693 31.2775L67.039 32.957L67.9044 32.4574L66.9348 30.7779Z" fill="#F6F2ED"/>
<path d="M69.613 35.4055L68.7476 35.9052L69.7172 37.5847L70.5827 37.0851L69.613 35.4055Z" fill="#F6F2ED"/>
<path d="M71.2254 31.9275L69.5459 32.8972L70.0456 33.7627L71.7251 32.793L71.2254 31.9275Z" fill="#F6F2ED"/>
<path d="M66.6014 34.5995L64.9219 35.5692L65.4215 36.4347L67.101 35.465L66.6014 34.5995Z" fill="#F6F2ED"/>
<path d="M39.2768 146.966H37.9419V149.557H39.2768V146.966Z" fill="#F6F2ED"/>
<path d="M39.2768 154.104H37.9419V156.695H39.2768V154.104Z" fill="#F6F2ED"/>
<path d="M43.4705 151.164H40.8799V152.499H43.4705V151.164Z" fill="#F6F2ED"/>
<path d="M36.3299 151.164H33.7393V152.499H36.3299V151.164Z" fill="#F6F2ED"/>
<path d="M2.64633 61.5814C4.10786 61.5814 5.29266 60.3966 5.29266 58.9351C5.29266 57.4735 4.10786 56.2887 2.64633 56.2887C1.1848 56.2887 0 57.4735 0 58.9351C0 60.3966 1.1848 61.5814 2.64633 61.5814Z" fill="#F6F2ED"/>
<path d="M12.0561 100.602C13.2153 100.602 14.1551 99.6624 14.1551 98.5031C14.1551 97.3438 13.2153 96.4041 12.0561 96.4041C10.8968 96.4041 9.95703 97.3438 9.95703 98.5031C9.95703 99.6624 10.8968 100.602 12.0561 100.602Z" fill="#F6F2ED"/>
<path d="M197.663 102.693C198.958 102.693 200.008 101.643 200.008 100.348C200.008 99.0527 198.958 98.0027 197.663 98.0027C196.368 98.0027 195.318 99.0527 195.318 100.348C195.318 101.643 196.368 102.693 197.663 102.693Z" fill="#F6F2ED"/>
<path d="M160.77 94.0024L160.005 93.36L158.758 94.8456L159.524 95.488L160.77 94.0024Z" fill="#F6F2ED"/>
<path d="M157.333 98.0958L156.568 97.4534L155.321 98.9391L156.087 99.5814L157.333 98.0958Z" fill="#F6F2ED"/>
<path d="M161.155 98.4285L159.669 97.1819L159.027 97.9475L160.513 99.1941L161.155 98.4285Z" fill="#F6F2ED"/>
<path d="M157.062 94.9935L155.576 93.7469L154.934 94.5125L156.419 95.7591L157.062 94.9935Z" fill="#F6F2ED"/>
<path d="M125.949 30.7387L125.184 30.0963L123.937 31.5819L124.703 32.2243L125.949 30.7387Z" fill="#F6F2ED"/>
<path d="M122.511 34.8323L121.746 34.1899L120.499 35.6756L121.265 36.3179L122.511 34.8323Z" fill="#F6F2ED"/>
<path d="M126.331 35.1653L124.846 33.9187L124.203 34.6842L125.689 35.9308L126.331 35.1653Z" fill="#F6F2ED"/>
<path d="M122.239 31.7297L120.753 30.4832L120.111 31.2487L121.597 32.4953L122.239 31.7297Z" fill="#F6F2ED"/>
<path d="M80.7769 119.974C82.8721 125.851 88.4391 130.096 95.0284 130.096C101.618 130.096 107.181 125.851 109.28 119.974H80.7769ZM122.772 98.1009C122.533 97.864 122.344 97.5824 122.214 97.272C122.084 96.9617 122.017 96.6288 122.016 96.2924L122.013 94.5852C121.46 94.6291 120.9 94.6696 120.333 94.6696C109.169 94.6696 100.089 85.5903 100.089 74.426C100.089 65.1139 106.419 57.2695 114.995 54.9212C110.71 50.0054 104.938 46.7934 98.5474 45.9635C94.73 45.4763 90.8527 45.8061 87.1724 46.9311C83.4922 48.056 80.0931 49.9504 77.2005 52.4886C74.3234 55.0204 72.0183 58.1356 70.4383 61.6272C68.8584 65.1187 68.0397 68.9066 68.0369 72.739V96.289C68.0369 96.9672 67.7669 97.6116 67.2811 98.0975L58.8463 106.532C57.1323 108.246 56.6498 110.706 57.581 112.953C58.5122 115.2 60.6041 116.597 63.0434 116.597H127.013C129.453 116.597 131.545 115.2 132.476 112.953C133.407 110.706 132.921 108.243 131.21 106.532L122.772 98.1009Z" fill="#F6F2ED"/>
<path d="M120.333 57.5563C111.031 57.5563 103.463 65.124 103.463 74.4259C103.463 83.7279 111.031 91.2956 120.333 91.2956C129.635 91.2956 137.202 83.7279 137.202 74.4259C137.202 65.124 129.631 57.5563 120.333 57.5563ZM126.584 72.9448L122.222 77.3073C121.237 78.2925 119.941 78.7851 118.642 78.7851C117.343 78.7851 116.051 78.2925 115.062 77.3073L114.074 76.3187C113.767 76.0005 113.597 75.5744 113.6 75.1321C113.604 74.6898 113.782 74.2667 114.094 73.9539C114.407 73.6411 114.83 73.4637 115.273 73.4599C115.715 73.456 116.141 73.6261 116.459 73.9333L117.448 74.9219C117.764 75.2382 118.193 75.4158 118.641 75.4158C119.088 75.4158 119.517 75.2382 119.833 74.9219L124.196 70.5594C124.352 70.4026 124.538 70.2781 124.743 70.1931C124.948 70.1082 125.167 70.0643 125.389 70.0642C125.611 70.064 125.83 70.1075 126.035 70.1922C126.24 70.2769 126.426 70.4011 126.583 70.5577C126.74 70.7144 126.864 70.9003 126.949 71.1051C127.034 71.3098 127.078 71.5292 127.078 71.7509C127.078 71.9726 127.035 72.1921 126.95 72.3969C126.865 72.6018 126.741 72.7879 126.584 72.9448Z" fill="#F6F2ED"/>
<rect x="144.45" y="133.423" width="26.8172" height="27.5737" rx="13.4086" stroke="#F6F2ED"/>
<rect x="148" y="134" width="28" height="28" rx="14" fill="#F6F2ED"/>
<path d="M167.599 148.342C167.229 147.892 166.717 147.586 166.149 147.476C166.541 147.287 166.861 146.971 167.058 146.578C167.254 146.186 167.317 145.738 167.237 145.305C167.213 144.965 167.109 144.635 166.933 144.343C166.763 144.07 166.527 143.844 166.247 143.687C165.953 143.519 165.637 143.391 165.309 143.308C164.926 143.214 164.537 143.15 164.145 143.119V141H162.866V143.06C162.645 143.06 162.307 143.066 161.852 143.077V141H160.573V143.12C160.39 143.125 160.121 143.128 159.767 143.128L158.005 143.12V144.499H158.928C159.101 144.476 159.276 144.523 159.415 144.63C159.554 144.737 159.645 144.895 159.668 145.07V147.484C159.712 147.483 159.756 147.486 159.8 147.492H159.668V150.879C159.666 150.939 159.651 150.999 159.625 151.053C159.599 151.108 159.563 151.157 159.518 151.197C159.473 151.237 159.42 151.267 159.363 151.286C159.307 151.305 159.247 151.313 159.187 151.307H158.264L158 152.847H159.662H160.118H160.566V154.991H161.845V152.881C162.078 152.887 162.416 152.889 162.86 152.889V155H164.139V152.851C164.544 152.834 164.948 152.792 165.348 152.725C165.694 152.665 166.032 152.568 166.357 152.435C166.652 152.32 166.924 152.153 167.163 151.943C167.389 151.732 167.571 151.477 167.698 151.194C167.845 150.861 167.934 150.505 167.962 150.142C168.072 149.517 167.942 148.874 167.599 148.342ZM161.874 144.591H162.203L162.651 144.583C162.77 144.583 162.93 144.59 163.133 144.604C163.304 144.617 163.474 144.639 163.643 144.671C163.798 144.703 163.951 144.747 164.099 144.805C164.244 144.857 164.379 144.937 164.495 145.04C164.6 145.14 164.686 145.26 164.748 145.393C164.82 145.547 164.856 145.716 164.852 145.886C164.854 146.032 164.828 146.178 164.777 146.315C164.73 146.44 164.653 146.551 164.553 146.639C164.457 146.723 164.354 146.799 164.246 146.866C164.12 146.939 163.984 146.991 163.842 147.022C163.679 147.061 163.536 147.092 163.415 147.114C163.264 147.14 163.111 147.155 162.959 147.161L162.543 147.178C162.449 147.178 162.32 147.178 162.157 147.178H161.871V144.591H161.874ZM165.368 150.318C165.319 150.441 165.25 150.555 165.165 150.655C165.071 150.758 164.96 150.843 164.836 150.907C164.709 150.976 164.577 151.035 164.441 151.083C164.29 151.134 164.136 151.173 163.979 151.201C163.799 151.234 163.641 151.258 163.506 151.273C163.37 151.287 163.208 151.298 163.019 151.306C162.831 151.314 162.684 151.318 162.579 151.318H162.183H161.876V148.468L162.271 148.46C162.49 148.455 162.669 148.452 162.807 148.452C162.945 148.452 163.136 148.46 163.381 148.477C163.587 148.489 163.792 148.515 163.995 148.553C164.18 148.592 164.362 148.645 164.54 148.71C164.712 148.767 164.874 148.853 165.017 148.966C165.144 149.073 165.248 149.205 165.324 149.353C165.398 149.502 165.44 149.665 165.448 149.832C165.456 149.999 165.43 150.165 165.371 150.321L165.368 150.318Z" fill="#272421"/>
<path d="M31.5 0C28.0388 3.76485e-09 24.6553 1.02638 21.7774 2.94934C18.8996 4.8723 16.6565 7.60547 15.332 10.8032C14.0075 14.001 13.661 17.5197 14.3363 20.9144C15.0116 24.3091 16.6784 27.4273 19.1259 29.8747C21.5734 32.322 24.6917 33.9887 28.0864 34.6638C31.4811 35.339 34.9998 34.9923 38.1975 33.6677C41.3952 32.343 44.1283 30.0999 46.0511 27.2219C47.9739 24.3439 49.0002 20.9604 49 17.4992C48.9946 12.8596 47.1491 8.41166 43.8684 5.13107C40.5876 1.85048 36.1396 0.00518458 31.5 0ZM31.5 33.0035C28.4335 33.0035 25.4359 32.0942 22.8863 30.3905C20.3366 28.6869 18.3494 26.2655 17.1759 23.4324C16.0024 20.5994 15.6954 17.482 16.2936 14.4744C16.8918 11.4669 18.3685 8.7043 20.5368 6.53598C22.7051 4.36766 25.4677 2.89102 28.4753 2.29278C31.4828 1.69454 34.6002 2.00158 37.4332 3.17506C40.2663 4.34855 42.6877 6.33577 44.3914 8.88544C46.095 11.4351 47.0043 14.4327 47.0043 17.4992C46.9998 21.6098 45.3648 25.5507 42.4582 28.4574C39.5516 31.364 35.6106 32.999 31.5 33.0035Z" fill="#F6F2ED"/>
<path d="M21.0605 22.603L19.2648 23.4796C19.581 24.1238 19.9473 24.7423 20.3602 25.3292L21.9927 24.1807C21.6409 23.6802 21.3292 23.1526 21.0605 22.603ZM20.0664 15.443L18.1017 15.0912C17.9756 15.798 17.9052 16.5135 17.8911 17.2313L19.8868 17.2697C19.898 16.6571 19.9573 16.0463 20.0639 15.443H20.0664ZM21.2719 11.9887L19.5162 11.0402C19.1746 11.6729 18.8839 12.3318 18.6469 13.0106L20.5308 13.6677C20.7323 13.0894 20.9793 12.528 21.2695 11.9887H21.2719ZM19.9945 19.1046L18.0168 19.3764C18.1149 20.0881 18.2694 20.7909 18.4788 21.4782L20.388 20.897C20.2086 20.311 20.0762 19.7116 19.9921 19.1046H19.9945ZM42.054 12.6058L43.8644 11.7642C43.5604 11.1135 43.2056 10.4877 42.8033 9.8926L41.1496 11.0092C41.4918 11.5168 41.7934 12.0507 42.0516 12.6058H42.054ZM23.4962 9.07964L22.1216 7.63409C21.6015 8.1291 21.1212 8.6643 20.6851 9.23472L22.2702 10.4468C22.6418 9.95996 23.0509 9.50285 23.4937 9.07964H23.4962ZM21.7331 26.9869C22.233 27.5018 22.7726 27.9767 23.3468 28.4072L24.5434 26.8106C24.0529 26.4426 23.592 26.0368 23.1648 25.5969L21.7331 26.9869ZM43.0498 16.1253L45.0316 15.8903C44.9471 15.1773 44.8065 14.4721 44.6113 13.7811L42.6907 14.3256C42.8579 14.9151 42.9774 15.5169 43.0498 16.1253ZM38.0822 5.57229C37.4537 5.22514 36.7986 4.9282 36.1233 4.68424L35.4466 6.56157C36.0234 6.76962 36.5829 7.02289 37.1199 7.31903L38.0822 5.57229ZM41.4639 8.20954C40.9738 7.6852 40.4436 7.19997 39.8779 6.75828L38.6536 8.33197C39.1369 8.7098 39.5902 9.1246 40.0093 9.57264L41.4639 8.20954ZM39.6829 25.7585L41.0876 27.1763C41.5971 26.671 42.0665 26.1269 42.4915 25.5487L40.8827 24.3676C40.5198 24.8627 40.1189 25.3289 39.6837 25.7618L39.6829 25.7585ZM25.6437 5.19927C24.996 5.50868 24.3738 5.86866 23.7827 6.27588L24.9156 7.91896C25.42 7.57121 25.9511 7.2639 26.504 6.99988L25.6437 5.19927ZM41.8499 22.8103L43.6253 23.722C43.9535 23.0829 44.2308 22.4189 44.4545 21.7361L42.5576 21.1158C42.3665 21.6983 42.1299 22.2649 41.8499 22.8103ZM43.1298 17.5048C43.1297 18.1181 43.082 18.7305 42.987 19.3364L44.9582 19.6466C45.0696 18.9381 45.1255 18.222 45.1255 17.5048H43.1298ZM33.2224 29.0022L33.5162 30.9767C34.2263 30.871 34.9269 30.7094 35.6115 30.4935L35.0116 28.5908C34.427 28.7751 33.8287 28.9126 33.2224 29.0022ZM36.711 27.9011L37.6088 29.6846C38.2502 29.3625 38.8651 28.9902 39.4478 28.5712L38.283 26.9469C37.7848 27.3041 37.2595 27.6218 36.7118 27.897L36.711 27.9011ZM29.7632 3.99126C29.0507 4.08249 28.3465 4.23015 27.6573 4.43284L28.2197 6.34772C28.8074 6.17518 29.4079 6.04935 30.0154 5.97143L29.7632 3.99126ZM25.1654 29.5572C25.8012 29.8919 26.4625 30.1758 27.1431 30.4061L27.7822 28.5157C27.2019 28.3192 26.6381 28.0771 26.0959 27.7917L25.1654 29.5572ZM34.0468 4.11777C33.3413 3.985 32.6266 3.90776 31.9091 3.88678L31.8503 5.88246C32.4632 5.9004 33.0737 5.96644 33.6762 6.07999L34.0468 4.11777ZM29.231 30.931C29.9387 31.0494 30.6545 31.1125 31.372 31.1195L31.3916 29.1238C30.778 29.1172 30.1659 29.0626 29.5608 28.9606L29.231 30.931Z" fill="#F6F2ED"/>
<path d="M31.5024 24.8206C35.5456 24.8206 38.8232 21.543 38.8232 17.4999C38.8232 13.4567 35.5456 10.1791 31.5024 10.1791C27.4593 10.1791 24.1816 13.4567 24.1816 17.4999C24.1816 21.543 27.4593 24.8206 31.5024 24.8206Z" fill="#F6F2ED"/>
<path d="M34.7253 13.8918L30.094 18.7819L28.2918 16.7976L27.2241 17.7665L29.5487 20.3262C29.6154 20.3996 29.6965 20.4585 29.7869 20.4993C29.8774 20.54 29.9752 20.5617 30.0744 20.5629H30.0817C30.1798 20.5635 30.2769 20.544 30.3672 20.5057C30.4574 20.4673 30.5389 20.411 30.6066 20.3401L35.7725 14.8852L34.7253 13.8918Z" fill="#2F2E2D"/>
</svg>
