<svg width="173" height="154" viewBox="0 0 173 154" fill="none" xmlns="http://www.w3.org/2000/svg">
<path opacity="0.4" d="M121.041 7C123.5 7.00002 125.917 7.64795 128.046 8.87856C130.175 10.1092 131.943 11.879 133.171 14.01L167.327 73.283C168.552 75.4089 169.197 77.8194 169.197 80.273C169.197 82.7266 168.552 85.1371 167.327 87.263L133.171 146.536C131.943 148.667 130.175 150.437 128.046 151.667C125.917 152.898 123.5 153.546 121.041 153.546H52.775C50.3156 153.546 47.8995 152.898 45.7701 151.667C43.6407 150.437 41.873 148.667 40.645 146.536L6.48902 87.263C5.26397 85.1371 4.61914 82.7266 4.61914 80.273C4.61914 77.8194 5.26397 75.4089 6.48902 73.283L40.645 14.01C41.873 11.879 43.6407 10.1092 45.7701 8.87856C47.8995 7.64795 50.3156 7.00002 52.775 7L121.041 7Z" fill="#787878"/>
<path d="M120.1 0C121.857 3.48787e-06 123.583 0.463098 125.105 1.34264C126.626 2.22218 127.889 3.4871 128.766 5.01L165.482 68.783C166.355 70.3007 166.815 72.0212 166.815 73.7725C166.815 75.5238 166.355 77.2443 165.482 78.762L128.766 142.535C127.889 144.058 126.626 145.323 125.105 146.202C123.583 147.082 121.857 147.545 120.1 147.545H46.7157C44.9584 147.545 43.2321 147.082 41.7107 146.202C40.1893 145.323 38.9266 144.058 38.0497 142.535L1.33369 78.762C0.459903 77.2443 0 75.5238 0 73.7725C0 72.0212 0.459903 70.3007 1.33369 68.783L38.0497 5.01C38.9266 3.4871 40.1893 2.22218 41.7107 1.34264C43.2321 0.463098 44.9584 3.48787e-06 46.7157 0L120.1 0Z" fill="#333333"/>
<g clip-path="url(#clip0_4110_4847)">
<path d="M37.6324 50H141.85C144.408 50 146.482 51.9137 146.482 54.2744V114.726C146.482 117.086 144.408 119 141.85 119H37.6324C35.074 119 33.0001 117.086 33.0001 114.726V54.2744C33.0001 51.9137 35.074 50 37.6324 50Z" fill="#C9BFB5"/>
<path d="M37.6141 50H141.85C143.079 50 144.257 50.4503 145.126 51.2519C145.994 52.0535 146.482 53.1407 146.482 54.2744V58.4814H33.0001V54.2744C33.0001 53.1437 33.4856 52.059 34.3504 51.2579C35.2152 50.4568 36.3887 50.0045 37.6141 50Z" fill="#A69A8D"/>
<path d="M51.8254 55.8857C50.9189 55.8857 50.1841 55.2076 50.1841 54.3711C50.1841 53.5347 50.9189 52.8566 51.8254 52.8566C52.7319 52.8566 53.4668 53.5347 53.4668 54.3711C53.4668 55.2076 52.7319 55.8857 51.8254 55.8857Z" stroke="#E8DCCF" stroke-linejoin="round"/>
<path d="M45.6936 55.8857C44.7871 55.8857 44.0522 55.2076 44.0522 54.3711C44.0522 53.5347 44.7871 52.8566 45.6936 52.8566C46.6001 52.8566 47.335 53.5347 47.335 54.3711C47.335 55.2076 46.6001 55.8857 45.6936 55.8857Z" stroke="#E8DCCF" stroke-linejoin="round"/>
<path d="M39.5608 55.8857C38.6543 55.8857 37.9194 55.2076 37.9194 54.3711C37.9194 53.5347 38.6543 52.8566 39.5608 52.8566C40.4673 52.8566 41.2021 53.5347 41.2021 54.3711C41.2021 55.2076 40.4673 55.8857 39.5608 55.8857Z" stroke="#E8DCCF" stroke-linejoin="round"/>
<path d="M69.4332 71.1699C68.1384 71.1699 66.8845 70.3706 65.8952 69.6049L64.6824 68.6457C63.9738 68.0836 63.0727 67.7707 62.1383 67.7622H51.8204C51.5979 67.7622 51.3776 67.8027 51.1721 67.8814C50.9665 67.9601 50.7799 68.0755 50.6227 68.2208C50.4656 68.3662 50.3411 68.5388 50.2564 68.7286C50.1716 68.9185 50.1283 69.1219 50.1289 69.3272V104.406C50.1289 104.964 50.3691 105.499 50.7966 105.893C51.2241 106.288 51.804 106.509 52.4086 106.509H104.472C105.076 106.509 105.656 106.288 106.084 105.893C106.511 105.499 106.752 104.964 106.752 104.406V73.2735C106.752 72.7156 106.511 72.1805 106.084 71.786C105.656 71.3915 105.076 71.1699 104.472 71.1699H69.4332Z" fill="#A69A8D"/>
<path d="M82.93 82.4847C83.288 84.1631 82.9826 85.7496 82.1057 87.229C82.0188 87.3761 82.0102 87.4828 82.112 87.6334C82.4958 88.2001 82.8579 88.7794 83.2372 89.3488C83.3806 89.5652 83.4235 89.7792 83.3541 90.0258C83.2594 90.3632 83.1866 90.7057 83.0975 91.0703C83.4919 91.1603 83.8688 91.2457 84.2455 91.3323C84.7929 91.4591 85.0015 91.8345 84.8043 92.3282C84.7011 92.5874 84.6066 92.8505 84.4995 93.1335C84.9013 93.2642 85.2796 93.3968 85.6638 93.5103C86.2253 93.6769 86.4067 93.9507 86.3153 94.5015C86.254 94.8677 86.2096 95.2358 86.1544 95.6297C86.4348 95.6643 86.6966 95.7067 86.9604 95.7254C87.3299 95.7515 87.614 95.8818 87.8024 96.2034C87.9827 96.513 88.1951 96.8071 88.3958 97.1069C88.5257 97.2999 88.5622 97.498 88.5068 97.7237C88.2233 98.866 87.9493 100.012 87.6711 101.156C87.5652 101.59 87.2368 101.777 86.7689 101.67C85.5709 101.398 84.3741 101.118 83.1735 100.855C82.8817 100.79 82.6869 100.646 82.5313 100.411C80.7663 97.7404 78.998 95.073 77.23 92.4044C76.9248 91.9439 76.6149 91.487 76.3185 91.0224C76.242 90.9023 76.1609 90.8591 76.0117 90.8641C73.5316 90.9466 71.4469 90.1087 69.8202 88.328C68.457 86.8363 67.864 85.0863 68.0134 83.1322C68.0262 82.9682 68.032 82.8044 68.041 82.6407C68.1291 82.2777 68.2171 81.9146 68.3052 81.5516C68.3982 81.3345 68.4862 81.1144 68.5852 80.8986C69.1998 79.5581 70.1623 78.4939 71.4761 77.7237C72.6233 77.0518 73.8823 76.687 75.2481 76.6763C75.7094 76.6729 76.1722 76.7155 76.6345 76.7369C77.0208 76.8257 77.4079 76.9141 77.795 77.0024C78.2186 77.1832 78.6576 77.3374 79.062 77.5498C81.1481 78.6432 82.4614 80.2851 82.93 82.4847Z" fill="#E8DCCF"/>
<ellipse cx="2.95705" cy="2.86853" rx="2.95705" ry="2.86853" transform="matrix(0.865764 -0.500452 0.552312 0.833637 72.0244 82.9183)" fill="#A69A8D"/>
</g>
<path d="M113.5 73C128.688 73 141 60.6878 141 45.5C141 30.3122 128.688 18 113.5 18C98.3122 18 86 30.3122 86 45.5C86 60.6878 98.3122 73 113.5 73Z" fill="#8DADA6" stroke="#F2E9DF" stroke-width="3" stroke-linecap="round" stroke-linejoin="round"/>
<path d="M133 66L140 73" stroke="#DBE1DA" stroke-width="3" stroke-linecap="round" stroke-linejoin="round"/>
<path d="M139.134 69.5863L136.867 71.9585C135.846 73.0256 135.885 74.7176 136.952 75.7377L156.656 94.5741C157.723 95.5942 159.415 95.5561 160.435 94.489L162.703 92.1169C163.723 91.0498 163.685 89.3577 162.618 88.3376L142.914 69.5012C141.846 68.4811 140.154 68.5192 139.134 69.5863Z" fill="#BACBC4"/>
<path opacity="0.6" d="M17.3435 46.502C15.9609 46.5004 14.6353 45.9505 13.6577 44.9728C12.68 43.9952 12.1301 42.6696 12.1285 41.287C12.1225 40.9431 11.9814 40.6153 11.7357 40.3745C11.49 40.1337 11.1595 39.9992 10.8155 40C10.4742 40 10.1468 40.1356 9.90546 40.377C9.6641 40.6183 9.5285 40.9457 9.5285 41.287C9.52692 42.6765 8.97422 44.0087 7.99168 44.9912C7.00915 45.9737 5.677 46.5264 4.28749 46.528C3.94602 46.528 3.61854 46.6636 3.37709 46.9051C3.13564 47.1466 3 47.474 3 47.8155C3 48.157 3.13564 48.4844 3.37709 48.7259C3.61854 48.9674 3.94602 49.103 4.28749 49.103C5.677 49.1046 7.00915 49.6573 7.99168 50.6398C8.97422 51.6223 9.52692 52.9545 9.5285 54.344C9.5285 54.6855 9.66414 55.013 9.90559 55.2544C10.147 55.4959 10.4745 55.6315 10.816 55.6315C11.1575 55.6315 11.4849 55.4959 11.7264 55.2544C11.9678 55.013 12.1035 54.6855 12.1035 54.344C12.1051 52.9547 12.6576 51.6227 13.64 50.6402C14.6223 49.6577 15.9542 49.1049 17.3435 49.103C17.6876 49.097 18.0155 48.9557 18.2564 48.7099C18.4972 48.464 18.6316 48.1332 18.6305 47.789C18.6302 47.4478 18.4946 47.1206 18.2533 46.8793C18.0119 46.638 17.6847 46.5023 17.3435 46.502Z" fill="#B8B6D0"/>
<path opacity="0.6" d="M32.7447 38.4979C32.0842 37.8348 31.7132 36.9364 31.7132 35.9997C31.7132 35.0631 32.0842 34.1646 32.7447 33.5016C32.9065 33.3339 32.9959 33.1092 32.9936 32.8761C32.9913 32.643 32.8975 32.4201 32.7325 32.2557C32.6517 32.1746 32.5557 32.1103 32.45 32.0664C32.3443 32.0226 32.231 32 32.1166 32C32.0022 32 31.8889 32.0226 31.7833 32.0664C31.6776 32.1103 31.5816 32.1746 31.5007 32.2557C30.8353 32.9206 29.9338 33.294 28.9938 33.294C28.0539 33.294 27.1523 32.9206 26.4869 32.2557C26.3236 32.0921 26.102 32.0002 25.871 32.0002C25.64 32.0002 25.4185 32.0921 25.2551 32.2557C25.0918 32.4193 25 32.6412 25 32.8725C25 33.1039 25.0918 33.3258 25.2551 33.4894C25.919 34.1558 26.2919 35.0587 26.2919 36.0001C26.2919 36.9415 25.919 37.8444 25.2551 38.5108C25.0918 38.6744 25 38.8963 25 39.1276C25 39.359 25.0918 39.5809 25.2551 39.7445C25.4185 39.9081 25.64 40 25.871 40C26.102 40 26.3236 39.9081 26.4869 39.7445C27.1523 39.0796 28.0539 38.7062 28.9938 38.7062C29.9338 38.7062 30.8353 39.0796 31.5007 39.7445C31.6682 39.9064 31.8926 39.9958 32.1253 39.9934C32.3581 39.991 32.5806 39.897 32.7447 39.7316C32.8256 39.6506 32.8898 39.5545 32.9336 39.4486C32.9774 39.3428 33 39.2294 33 39.1148C33 39.0002 32.9774 38.8867 32.9336 38.7809C32.8898 38.6751 32.8256 38.5789 32.7447 38.4979Z" fill="#EDBE9B"/>
<path opacity="0.6" d="M168.618 61.3713C167.628 60.2109 167.071 58.6386 167.071 56.9994C167.071 55.3602 167.628 53.7879 168.618 52.6275C168.861 52.3339 168.995 51.9407 168.991 51.5327C168.988 51.1247 168.847 50.7348 168.599 50.4471C168.354 50.1609 168.022 50.0002 167.675 50.0002C167.329 50.0002 166.996 50.1609 166.751 50.4471C165.753 51.6107 164.401 52.2642 162.991 52.2642C161.581 52.2642 160.229 51.6107 159.23 50.4471C158.985 50.1608 158.653 50 158.307 50C157.96 50 157.628 50.1608 157.383 50.4471C157.138 50.7334 157 51.1218 157 51.5266C157 51.9315 157.138 52.3198 157.383 52.6061C158.379 53.7724 158.938 55.3526 158.938 57C158.938 58.6475 158.379 60.2276 157.383 61.3939C157.261 61.5356 157.165 61.7039 157.099 61.8891C157.034 62.0744 157 62.2729 157 62.4734C157 62.6739 157.034 62.8724 157.099 63.0576C157.165 63.2428 157.261 63.4111 157.383 63.5529C157.504 63.6946 157.648 63.8071 157.807 63.8838C157.965 63.9605 158.135 64 158.307 64C158.478 64 158.648 63.9605 158.807 63.8838C158.965 63.8071 159.109 63.6946 159.23 63.5529C160.229 62.3893 161.581 61.7358 162.991 61.7358C164.401 61.7358 165.753 62.3893 166.751 63.5529C167.003 63.8364 167.339 63.9931 167.688 63.9891C168.037 63.9851 168.371 63.8207 168.617 63.5315C168.862 63.2452 169 62.8569 169 62.452C169 62.0472 168.862 61.6589 168.617 61.3725L168.618 61.3713Z" fill="#DAD1A9"/>
<defs>
<clipPath id="clip0_4110_4847">
<rect width="91" height="69" rx="3" transform="matrix(-1 0 0 1 124 50)" fill="white"/>
</clipPath>
</defs>
</svg>
