<svg width="191" height="166" viewBox="0 0 191 166" fill="none" xmlns="http://www.w3.org/2000/svg">
<path opacity="0.4" d="M142.039 19C144.499 19 146.915 19.648 149.044 20.8786C151.173 22.1092 152.941 23.879 154.169 26.01L188.325 85.283C189.55 87.4089 190.195 89.8194 190.195 92.273C190.195 94.7266 189.55 97.1371 188.325 99.263L154.169 158.536C152.941 160.667 151.173 162.437 149.044 163.667C146.915 164.898 144.499 165.546 142.039 165.546H73.7731C71.3136 165.546 68.8976 164.898 66.7681 163.667C64.6387 162.437 62.871 160.667 61.6431 158.536L27.4871 99.263C26.262 97.1371 25.6172 94.7266 25.6172 92.273C25.6172 89.8194 26.262 87.4089 27.4871 85.283L61.6431 26.01C62.871 23.879 64.6387 22.1092 66.7681 20.8786C68.8976 19.648 71.3136 19 73.7731 19H142.039Z" fill="#787878"/>
<path d="M141.1 12C142.857 12 144.583 12.4631 146.105 13.3426C147.626 14.2222 148.889 15.4871 149.766 17.01L186.482 80.783C187.355 82.3007 187.815 84.0212 187.815 85.7725C187.815 87.5238 187.355 89.2443 186.482 90.762L149.766 154.535C148.889 156.058 147.626 157.323 146.105 158.202C144.583 159.082 142.857 159.545 141.1 159.545H67.7157C65.9584 159.545 64.2321 159.082 62.7107 158.202C61.1893 157.323 59.9266 156.058 59.0497 154.535L22.3337 90.762C21.4599 89.2443 21 87.5238 21 85.7725C21 84.0212 21.4599 82.3007 22.3337 80.783L59.0497 17.01C59.9266 15.4871 61.1893 14.2222 62.7107 13.3426C64.2321 12.4631 65.9584 12 67.7157 12H141.1Z" fill="#333333"/>
<path opacity="0.6" d="M14.3435 67.502C12.9609 67.5004 11.6353 66.9505 10.6577 65.9728C9.68003 64.9952 9.13008 63.6696 9.12849 62.287C9.12246 61.9431 8.98137 61.6153 8.7357 61.3745C8.49003 61.1337 8.15949 60.9992 7.81549 61C7.47416 61 7.14682 61.1356 6.90546 61.377C6.6641 61.6183 6.5285 61.9457 6.5285 62.287C6.52692 63.6765 5.97422 65.0087 4.99168 65.9912C4.00915 66.9737 2.677 67.5264 1.28749 67.528C0.946025 67.528 0.618544 67.6636 0.37709 67.9051C0.135637 68.1466 0 68.474 0 68.8155C0 69.157 0.135637 69.4844 0.37709 69.7259C0.618544 69.9674 0.946025 70.103 1.28749 70.103C2.677 70.1046 4.00915 70.6573 4.99168 71.6398C5.97422 72.6223 6.52692 73.9545 6.5285 75.344C6.5285 75.6855 6.66414 76.013 6.90559 76.2544C7.14705 76.4959 7.47453 76.6315 7.81599 76.6315C8.15746 76.6315 8.48494 76.4959 8.72639 76.2544C8.96785 76.013 9.1035 75.6855 9.1035 75.344C9.10509 73.9547 9.65764 72.6227 10.64 71.6402C11.6223 70.6577 12.9542 70.1049 14.3435 70.103C14.6876 70.097 15.0155 69.9557 15.2564 69.7099C15.4972 69.464 15.6316 69.1332 15.6305 68.789C15.6302 68.4478 15.4946 68.1206 15.2533 67.8793C15.0119 67.638 14.6847 67.5023 14.3435 67.502Z" fill="#B8B6D0"/>
<path opacity="0.6" d="M44.4491 152.591C43.4726 151.613 42.9242 150.286 42.9242 148.904C42.9242 147.521 43.4726 146.195 44.4491 145.216C44.6883 144.969 44.8205 144.637 44.8171 144.293C44.8137 143.949 44.6751 143.62 44.4311 143.377C44.3116 143.258 44.1697 143.163 44.0135 143.098C43.8572 143.033 43.6898 143 43.5206 143C43.3515 143 43.1841 143.033 43.0278 143.098C42.8716 143.163 42.7297 143.258 42.6101 143.377C41.6265 144.359 40.2937 144.91 38.9041 144.91C37.5146 144.91 36.1818 144.359 35.1982 143.377C34.9567 143.136 34.6291 143 34.2876 143C33.9461 143 33.6186 143.136 33.3771 143.377C33.1357 143.619 33 143.946 33 144.288C33 144.629 33.1357 144.957 33.3771 145.198C34.3586 146.182 34.9098 147.515 34.9098 148.904C34.9098 150.294 34.3586 151.627 33.3771 152.61C33.1357 152.852 33 153.179 33 153.521C33 153.862 33.1357 154.19 33.3771 154.431C33.6186 154.673 33.9461 154.809 34.2876 154.809C34.6291 154.809 34.9567 154.673 35.1982 154.431C36.1818 153.45 37.5146 152.899 38.9041 152.899C40.2937 152.899 41.6265 153.45 42.6101 154.431C42.8577 154.67 43.1894 154.802 43.5335 154.799C43.8777 154.795 44.2065 154.656 44.4491 154.412C44.5688 154.293 44.6637 154.151 44.7285 153.995C44.7932 153.838 44.8266 153.671 44.8266 153.502C44.8266 153.333 44.7932 153.165 44.7285 153.009C44.6637 152.853 44.5688 152.711 44.4491 152.591Z" fill="#EDBE9B"/>
<path opacity="0.6" d="M172.45 86.5911C171.474 85.6124 170.925 84.2862 170.925 82.9036C170.925 81.5211 171.474 80.1949 172.45 79.2161C172.689 78.9686 172.821 78.6369 172.818 78.2927C172.814 77.9486 172.675 77.6197 172.431 77.3771C172.19 77.1357 171.862 77.0002 171.521 77.0002C171.179 77.0002 170.852 77.1357 170.61 77.3771C169.626 78.3586 168.294 78.9098 166.904 78.9098C165.515 78.9098 164.182 78.3586 163.198 77.3771C162.957 77.1357 162.629 77 162.288 77C161.946 77 161.619 77.1357 161.377 77.3771C161.136 77.6186 161 77.9461 161 78.2876C161 78.6291 161.136 78.9567 161.377 79.1981C162.359 80.1818 162.91 81.5146 162.91 82.9041C162.91 84.2937 162.359 85.6265 161.377 86.6101C161.258 86.7297 161.163 86.8717 161.098 87.0279C161.033 87.1841 161 87.3516 161 87.5206C161 87.6897 161.033 87.8572 161.098 88.0134C161.163 88.1696 161.258 88.3116 161.377 88.4311C161.497 88.5507 161.639 88.6456 161.795 88.7103C161.951 88.775 162.119 88.8083 162.288 88.8083C162.457 88.8083 162.624 88.775 162.78 88.7103C162.937 88.6456 163.079 88.5507 163.198 88.4311C164.182 87.4497 165.515 86.8985 166.904 86.8985C168.294 86.8985 169.626 87.4497 170.61 88.4311C170.858 88.6703 171.189 88.8025 171.533 88.7991C171.877 88.7957 172.206 88.6571 172.449 88.4131C172.691 88.1716 172.826 87.8441 172.826 87.5026C172.826 87.1612 172.691 86.8337 172.449 86.5921L172.45 86.5911Z" fill="#DAD1A9"/>
<path d="M96.4402 104.143V108.359H98.2422C110.733 108.359 123.226 108.359 135.723 108.359C136.666 108.326 137.61 108.418 138.529 108.632C139.653 108.951 140.64 109.624 141.34 110.55C142.041 111.476 142.416 112.603 142.408 113.76C142.445 118.023 142.445 122.285 142.408 126.545C142.405 127.845 141.921 129.099 141.049 130.071C140.177 131.043 138.976 131.666 137.672 131.823C137.015 131.907 136.353 131.948 135.691 131.946C108.289 131.946 80.8912 131.909 53.4891 131.986C48.9037 131.986 46.4735 129.118 46.689 125.27C46.8862 121.721 46.7302 118.153 46.7348 114.591C46.7348 110.552 48.9312 108.364 53.0535 108.355C59.395 108.355 65.7366 108.355 72.0781 108.355H93.5147V104.139H91.6576C78.8186 104.139 65.9934 104.139 53.1819 104.139C49.7658 104.139 47.5969 102.627 46.9045 99.7954C46.7779 99.2431 46.7163 98.6781 46.7211 98.1117C46.7211 94.3176 46.7211 90.5249 46.7211 86.7338C46.7211 82.7718 48.9266 80.5389 52.9388 80.5344C65.8084 80.5163 78.6795 80.5163 91.5522 80.5344H93.4918V76.3273H91.6118C78.8339 76.3273 66.056 76.3273 53.2781 76.3273C49.7979 76.3273 47.6794 74.8931 46.9274 72.0793C46.8157 71.6738 46.7556 71.256 46.7486 70.8358C46.7486 66.6196 46.7073 62.408 46.7486 58.1918C46.7555 56.8189 47.2861 55.4992 48.2341 54.4969C49.1821 53.4946 50.4776 52.8837 51.8613 52.7865C52.3198 52.7411 52.8059 52.7321 53.2781 52.7321C80.824 52.7321 108.367 52.7321 135.906 52.7321C136.803 52.7028 137.7 52.796 138.57 53.0089C139.691 53.3375 140.673 54.0184 141.367 54.9487C142.061 55.8791 142.43 57.008 142.418 58.1645C142.448 62.3792 142.448 66.5939 142.418 70.8086C142.437 72.1554 141.943 73.4599 141.034 74.4618C140.124 75.4638 138.866 76.0894 137.511 76.2138C136.806 76.2918 136.097 76.3267 135.388 76.3182H96.5044V80.539H98.3385C110.872 80.539 123.413 80.539 135.961 80.539C137.553 80.539 139.075 80.7023 140.354 81.7734C140.993 82.261 141.512 82.8864 141.87 83.6021C142.228 84.3177 142.417 85.1047 142.422 85.9034C142.422 90.2149 142.459 94.5264 142.422 98.8288C142.401 100.109 141.913 101.338 141.049 102.291C140.184 103.243 139.001 103.854 137.718 104.012C136.968 104.108 136.213 104.152 135.457 104.143C123.104 104.143 110.753 104.143 98.4027 104.143H96.4402ZM114.401 120.118C114.399 119.592 114.292 119.071 114.086 118.586C113.88 118.101 113.578 117.661 113.199 117.292C112.82 116.923 112.371 116.631 111.878 116.435C111.384 116.239 110.856 116.141 110.325 116.147C109.276 116.185 108.281 116.617 107.543 117.354C106.804 118.092 106.378 119.08 106.349 120.118C106.365 121.18 106.795 122.195 107.548 122.951C108.302 123.707 109.321 124.146 110.393 124.176C111.468 124.163 112.494 123.728 113.245 122.967C113.996 122.207 114.412 121.182 114.401 120.118ZM114.401 64.5728C114.414 64.0458 114.322 63.5213 114.129 63.0298C113.936 62.5383 113.647 62.0896 113.277 61.7097C112.908 61.3298 112.466 61.0262 111.977 60.8166C111.489 60.6069 110.963 60.4953 110.43 60.4883C109.375 60.5018 108.366 60.9219 107.618 61.6594C106.87 62.397 106.442 63.3938 106.425 64.4385C106.408 65.4832 106.803 66.4935 107.525 67.2549C108.248 68.0163 109.243 68.4689 110.297 68.5167C111.368 68.5288 112.401 68.1208 113.169 67.3818C113.937 66.6427 114.378 65.6329 114.396 64.5728H114.401ZM114.401 92.357C114.408 91.8305 114.31 91.3078 114.112 90.8192C113.913 90.3306 113.619 89.8858 113.246 89.5105C112.873 89.1353 112.428 88.837 111.938 88.6331C111.447 88.4291 110.921 88.3234 110.389 88.3223C109.337 88.3488 108.337 88.779 107.6 89.5219C106.863 90.2648 106.446 91.2623 106.439 92.3035C106.431 93.3447 106.833 94.3481 107.559 95.1017C108.285 95.8552 109.278 96.2999 110.329 96.3418C110.861 96.3459 111.389 96.246 111.882 96.0478C112.375 95.8496 112.823 95.557 113.202 95.1868C113.58 94.8165 113.881 94.3759 114.087 93.8903C114.292 93.4047 114.399 92.8836 114.401 92.357ZM125.805 68.5349C126.879 68.5075 127.901 68.074 128.662 67.3236C129.422 66.5732 129.864 65.5627 129.895 64.5001C129.868 63.4368 129.425 62.4255 128.659 61.6789C127.894 60.9323 126.866 60.5087 125.791 60.4973C124.741 60.5226 123.74 60.9465 122.997 61.6815C122.253 62.4164 121.824 63.4061 121.797 64.4457C121.796 65.5097 122.213 66.5322 122.962 67.2959C123.71 68.0596 124.73 68.5041 125.805 68.5349ZM121.797 92.2663C121.797 93.3302 122.216 94.3522 122.965 95.1151C123.714 95.8779 124.735 96.3213 125.809 96.3508C126.883 96.3267 127.906 95.8947 128.667 95.1444C129.427 94.3942 129.867 93.3831 129.895 92.3207C129.872 91.2801 129.449 90.2873 128.712 89.5451C127.975 88.8028 126.979 88.3671 125.929 88.3268C124.855 88.3134 123.819 88.7194 123.046 89.4568C122.272 90.1942 121.824 91.2037 121.797 92.2663ZM121.797 120.178C121.803 120.969 122.045 121.741 122.493 122.396C122.941 123.052 123.575 123.561 124.316 123.86C125.056 124.159 125.869 124.235 126.653 124.077C127.436 123.92 128.155 123.536 128.719 122.974C129.282 122.413 129.665 121.699 129.819 120.922C129.973 120.146 129.891 119.341 129.584 118.61C129.277 117.88 128.758 117.256 128.093 116.816C127.427 116.377 126.646 116.143 125.846 116.143C124.77 116.154 123.742 116.583 122.984 117.338C122.225 118.093 121.797 119.113 121.793 120.178H121.797ZM65.1221 65.8027C66.7729 65.8027 68.4282 65.8027 70.0789 65.8027C70.996 65.8027 71.7159 65.5849 71.7434 64.5456C71.7709 63.5063 71.106 63.184 70.1706 63.184C66.808 63.184 63.4561 63.184 60.1149 63.184C59.2391 63.184 58.6109 63.5063 58.5926 64.4457C58.5926 65.4669 59.2208 65.8073 60.1654 65.8073C61.8115 65.7936 63.4622 65.8027 65.1176 65.8027H65.1221ZM65.3147 91.0182C63.6136 91.0182 61.917 91.0182 60.2158 91.0182C59.2987 91.0182 58.5926 91.295 58.588 92.3252C58.5834 93.3554 59.2758 93.6368 60.202 93.6322C63.5066 93.6322 66.8111 93.6322 70.1156 93.6322C71.0327 93.6322 71.7388 93.3691 71.7434 92.3343C71.748 91.2995 71.0556 91.0137 70.1294 91.0182C68.5199 91.0273 66.8967 91.0182 65.3101 91.0182H65.3147ZM65.1772 118.848C63.5264 118.848 61.8711 118.848 60.2204 118.848C59.3033 118.848 58.5972 119.116 58.588 120.141C58.5788 121.167 59.2666 121.457 60.1975 121.453C63.505 121.453 66.8095 121.453 70.111 121.453C71.0281 121.453 71.7388 121.199 71.7434 120.164C71.748 119.129 71.0648 118.839 70.1339 118.848C68.4786 118.861 66.8233 118.848 65.1726 118.848H65.1772Z" fill="#C9BFB5"/>
<path d="M94.7644 104.143V108.359H96.5664C109.057 108.359 121.551 108.359 134.047 108.359C134.991 108.326 135.934 108.418 136.853 108.632C137.977 108.951 138.964 109.624 139.664 110.55C140.365 111.476 140.74 112.603 140.733 113.76C140.769 118.023 140.769 122.285 140.733 126.545C140.729 127.845 140.245 129.099 139.373 130.071C138.501 131.043 137.3 131.666 135.996 131.823C135.339 131.907 134.677 131.948 134.015 131.946C106.613 131.946 79.2154 131.909 51.8133 131.986C47.2279 131.986 44.7977 129.118 45.0132 125.27C45.2104 121.721 45.0545 118.153 45.0591 114.591C45.0591 110.552 47.2554 108.364 51.3777 108.355C57.7192 108.355 64.0608 108.355 70.4024 108.355H91.8389V104.139H89.9818C77.1428 104.139 64.3176 104.139 51.5061 104.139C48.09 104.139 45.9211 102.627 45.2287 99.7954C45.1021 99.2431 45.0405 98.6781 45.0453 98.1117C45.0453 94.3176 45.0453 90.5249 45.0453 86.7338C45.0453 82.7718 47.2509 80.5389 51.263 80.5344C64.1326 80.5163 77.0037 80.5163 89.8764 80.5344H91.816V76.3273H89.936C77.1581 76.3273 64.3802 76.3273 51.6024 76.3273C48.1221 76.3273 46.0036 74.8931 45.2516 72.0793C45.1399 71.6738 45.0799 71.256 45.0728 70.8358C45.0728 66.6196 45.0315 62.408 45.0728 58.1918C45.0797 56.8189 45.6103 55.4992 46.5583 54.4969C47.5063 53.4946 48.8018 52.8837 50.1855 52.7865C50.644 52.7411 51.1301 52.7321 51.6024 52.7321C79.1482 52.7321 106.691 52.7321 134.231 52.7321C135.127 52.7028 136.024 52.796 136.895 53.0089C138.015 53.3375 138.997 54.0184 139.691 54.9487C140.385 55.8791 140.754 57.008 140.742 58.1645C140.772 62.3792 140.772 66.5939 140.742 70.8086C140.761 72.1554 140.267 73.4599 139.358 74.4618C138.448 75.4638 137.191 76.0894 135.835 76.2138C135.131 76.2918 134.422 76.3267 133.712 76.3182H94.8286V80.539H96.6627C109.196 80.539 121.737 80.539 134.286 80.539C135.877 80.539 137.399 80.7023 138.678 81.7734C139.318 82.261 139.836 82.8864 140.194 83.6021C140.553 84.3177 140.741 85.1047 140.746 85.9034C140.746 90.2149 140.783 94.5264 140.746 98.8288C140.725 100.109 140.238 101.338 139.373 102.291C138.509 103.243 137.326 103.854 136.042 104.012C135.292 104.108 134.537 104.152 133.781 104.143C121.428 104.143 109.077 104.143 96.7269 104.143H94.7644ZM112.725 120.118C112.723 119.592 112.616 119.071 112.41 118.586C112.204 118.101 111.902 117.661 111.523 117.292C111.144 116.923 110.695 116.631 110.202 116.435C109.708 116.239 109.181 116.141 108.649 116.147C107.6 116.185 106.606 116.617 105.867 117.354C105.129 118.092 104.702 119.08 104.673 120.118C104.689 121.18 105.119 122.195 105.873 122.951C106.626 123.707 107.645 124.146 108.718 124.176C109.792 124.163 110.818 123.728 111.569 122.967C112.32 122.207 112.736 121.182 112.725 120.118ZM112.725 64.5728C112.739 64.0458 112.646 63.5213 112.453 63.0298C112.26 62.5383 111.971 62.0896 111.602 61.7097C111.232 61.3298 110.79 61.0262 110.302 60.8166C109.813 60.6069 109.287 60.4953 108.754 60.4883C107.699 60.5018 106.69 60.9219 105.942 61.6594C105.195 62.397 104.767 63.3938 104.749 64.4385C104.732 65.4832 105.127 66.4935 105.85 67.2549C106.573 68.0163 107.567 68.4689 108.621 68.5167C109.692 68.5288 110.725 68.1208 111.493 67.3818C112.261 66.6427 112.703 65.6329 112.721 64.5728H112.725ZM112.725 92.357C112.733 91.8305 112.634 91.3078 112.436 90.8192C112.238 90.3306 111.943 89.8858 111.57 89.5105C111.197 89.1353 110.752 88.837 110.262 88.6331C109.772 88.4291 109.245 88.3234 108.713 88.3223C107.661 88.3488 106.661 88.779 105.924 89.5219C105.187 90.2648 104.771 91.2623 104.763 92.3035C104.755 93.3447 105.157 94.3481 105.883 95.1017C106.609 95.8552 107.602 96.2999 108.653 96.3418C109.185 96.3459 109.713 96.246 110.206 96.0478C110.699 95.8496 111.148 95.557 111.526 95.1868C111.904 94.8165 112.205 94.3759 112.411 93.8903C112.617 93.4047 112.723 92.8836 112.725 92.357ZM124.129 68.5349C125.203 68.5075 126.225 68.074 126.986 67.3236C127.747 66.5732 128.188 65.5627 128.219 64.5001C128.192 63.4368 127.749 62.4255 126.984 61.6789C126.218 60.9323 125.19 60.5087 124.115 60.4973C123.065 60.5226 122.064 60.9465 121.321 61.6815C120.578 62.4164 120.148 63.4061 120.121 64.4457C120.12 65.5097 120.538 66.5322 121.286 67.2959C122.035 68.0596 123.055 68.5041 124.129 68.5349ZM120.121 92.2663C120.121 93.3302 120.54 94.3522 121.289 95.1151C122.039 95.8779 123.059 96.3213 124.134 96.3508C125.207 96.3267 126.23 95.8947 126.991 95.1444C127.751 94.3942 128.191 93.3831 128.219 92.3207C128.197 91.2801 127.774 90.2873 127.036 89.5451C126.299 88.8028 125.304 88.3671 124.253 88.3268C123.179 88.3134 122.143 88.7194 121.37 89.4568C120.596 90.1942 120.148 91.2037 120.121 92.2663ZM120.121 120.178C120.127 120.969 120.369 121.741 120.817 122.396C121.265 123.052 121.9 123.561 122.64 123.86C123.38 124.159 124.193 124.235 124.977 124.077C125.761 123.92 126.479 123.536 127.043 122.974C127.606 122.413 127.989 121.699 128.143 120.922C128.297 120.146 128.216 119.341 127.908 118.61C127.601 117.88 127.082 117.256 126.417 116.816C125.752 116.377 124.97 116.143 124.17 116.143C123.095 116.154 122.066 116.583 121.308 117.338C120.549 118.093 120.122 119.113 120.117 120.178H120.121ZM63.4464 65.8027C65.0971 65.8027 66.7524 65.8027 68.4031 65.8027C69.3202 65.8027 70.0401 65.5849 70.0676 64.5456C70.0951 63.5063 69.4303 63.184 68.4948 63.184C65.1322 63.184 61.7803 63.184 58.4391 63.184C57.5633 63.184 56.9351 63.5063 56.9168 64.4457C56.9168 65.4669 57.545 65.8073 58.4896 65.8073C60.1357 65.7936 61.7865 65.8027 63.4418 65.8027H63.4464ZM63.6389 91.0182C61.9378 91.0182 60.2412 91.0182 58.54 91.0182C57.6229 91.0182 56.9168 91.295 56.9122 92.3252C56.9076 93.3554 57.6 93.6368 58.5263 93.6322C61.8308 93.6322 65.1353 93.6322 68.4398 93.6322C69.3569 93.6322 70.063 93.3691 70.0676 92.3343C70.0722 91.2995 69.3798 91.0137 68.4536 91.0182C66.8441 91.0273 65.2209 91.0182 63.6344 91.0182H63.6389ZM63.5014 118.848C61.8507 118.848 60.1953 118.848 58.5446 118.848C57.6275 118.848 56.9214 119.116 56.9122 120.141C56.903 121.167 57.5908 121.457 58.5217 121.453C61.8293 121.453 65.1338 121.453 68.4352 121.453C69.3523 121.453 70.063 121.199 70.0676 120.164C70.0722 119.129 69.389 118.839 68.4582 118.848C66.8028 118.861 65.1475 118.848 63.4968 118.848H63.5014Z" fill="#A69A8D"/>
<path d="M41.701 69C38.1846 67.9417 35.015 65.9886 32.5131 63.3383C26.343 56.7896 24.4238 49.0944 27.3266 40.6585C30.2773 32.0669 36.6249 26.9478 45.7936 25.5607C48.2358 25.1927 50.7978 25.6409 53.3023 25.6409C53.8813 25.6593 54.4457 25.4603 54.8808 25.0842C59.4676 19.5216 65.3402 16.9597 72.633 17.6532C73.7221 17.757 74.2643 17.474 74.7825 16.4926C77.5204 11.1421 81.9992 6.8457 87.5065 4.28691C91.6998 2.31476 95.898 0.394539 100.657 0.0737104C115.257 -0.917084 128.826 8.16996 133.034 21.942C133.513 23.5744 134.161 23.8811 135.778 23.7066C147.211 22.461 159.105 31.647 160.727 42.8807C162.166 52.9302 157.848 62.1116 149.313 66.9901C148.833 67.2543 148.353 67.4619 147.59 67.8818V66.1597C147.562 62.9986 147.715 59.8186 147.456 56.6763C147.082 52.1564 143.565 49.085 138.959 48.8915C138.662 48.8915 138.364 48.8915 138.067 48.8915C109.107 48.8915 80.1465 48.8915 51.1865 48.8915C46.5181 48.8915 43.1596 51.2506 42.0705 55.3129C41.8662 56.2123 41.7744 57.1327 41.797 58.054C41.7682 61.1679 41.797 64.2866 41.797 67.4005C41.7682 67.9006 41.7298 68.3678 41.701 69Z" fill="#8DADA6"/>
</svg>
