<svg xmlns="http://www.w3.org/2000/svg" xmlns:xlink="http://www.w3.org/1999/xlink" width="144.997" height="150.66" viewBox="0 0 144.997 150.66">
  <defs>
    <linearGradient id="linear-gradient" x1="0.5" x2="0.5" y2="1" gradientUnits="objectBoundingBox">
      <stop offset="0" stop-color="#00836a"/>
      <stop offset="1" stop-color="#073e39"/>
    </linearGradient>
  </defs>
  <g id="illustration" transform="translate(-115 -257)">
    <g id="Group_39804" data-name="Group 39804" transform="translate(174.625 257)" opacity="0.272">
      <circle id="Ellipse_1999" data-name="Ellipse 1999" cx="35.652" cy="35.652" r="35.652" transform="translate(0 12.802)" fill="url(#linear-gradient)"/>
      <path id="Path_25533" data-name="Path 25533" d="M3.054,6.108A3.054,3.054,0,1,0,0,3.054,3.054,3.054,0,0,0,3.054,6.108Z" transform="translate(77.691 77.077) rotate(39)" fill="url(#linear-gradient)"/>
      <path id="Path_25534" data-name="Path 25534" d="M2.086,4.172A2.086,2.086,0,1,0,0,2.086,2.086,2.086,0,0,0,2.086,4.172Z" transform="translate(82.13 69.81) rotate(39)" fill="url(#linear-gradient)"/>
      <path id="Path_25535" data-name="Path 25535" d="M16.157,8.006a3.874,3.874,0,1,0-3.874-3.874A3.874,3.874,0,0,0,16.157,8.006Z" transform="translate(-5.809 -0.259)" fill="url(#linear-gradient)"/>
    </g>
    <g id="Group_39521" data-name="Group 39521" transform="translate(115 354.982)" opacity="0.272">
      <circle id="Ellipse_1999-2" data-name="Ellipse 1999" cx="22.581" cy="22.581" r="22.581" transform="translate(5.889)" fill="url(#linear-gradient)"/>
      <path id="Path_25533-2" data-name="Path 25533" d="M1.934,3.869A1.934,1.934,0,1,0,0,1.934,1.935,1.935,0,0,0,1.934,3.869Z" transform="translate(35.589 47.237) rotate(39)" fill="url(#linear-gradient)"/>
      <path id="Path_25534-2" data-name="Path 25534" d="M1.321,2.642A1.321,1.321,0,1,0,0,1.321,1.321,1.321,0,0,0,1.321,2.642Z" transform="translate(42.245 44.492) rotate(39)" fill="url(#linear-gradient)"/>
      <path id="Path_25535-2" data-name="Path 25535" d="M14.737,5.165a2.453,2.453,0,1,0-2.453-2.453A2.453,2.453,0,0,0,14.737,5.165Z" transform="translate(-12.284 11.141)" fill="url(#linear-gradient)"/>
    </g>
    <g id="Group_39802" data-name="Group 39802" transform="translate(165.327 261.258)">
      <path id="Path_27341" data-name="Path 27341" d="M136.967,72.689l-1.249-.907q.445-.614.871-1.243l1.28.864Q137.427,72.054,136.967,72.689Zm1.757-2.6-1.309-.819q.4-.642.783-1.3l1.336.774Q139.139,69.42,138.723,70.085Zm1.574-2.717-1.362-.727q.357-.669.692-1.35l1.386.68Q140.667,66.676,140.3,67.368Zm1.383-2.82-1.409-.632q.309-.69.6-1.395l1.43.583Q142,63.833,141.68,64.548Zm1.186-2.909-1.45-.532q.261-.711.5-1.433l1.466.482Q143.136,60.9,142.866,61.639Zm.982-2.984-1.483-.431q.211-.727.4-1.465l1.5.381Q144.066,57.9,143.847,58.656Zm.773-3.044-1.509-.328q.161-.739.3-1.488l1.519.276Q144.787,54.846,144.62,55.612Zm.563-3.09-1.527-.224q.11-.748.2-1.506l1.534.173Q145.3,51.748,145.183,52.522Zm.351-3.12-1.539-.121q.031-.389.054-.779.022-.37.039-.738l1.542.068q-.017.381-.04.763Q145.565,49,145.534,49.4Zm.14-3.139-1.544-.017q0-.24,0-.48c0-.346,0-.693-.012-1.037l1.543-.037q.013.535.013,1.074C145.676,45.933,145.676,46.1,145.674,46.263Zm-1.615-3.05q-.043-.759-.113-1.512l1.537-.141q.071.779.117,1.566Zm-.278-3.021q-.1-.754-.217-1.5l1.524-.246q.125.773.224,1.554ZM143.3,37.2q-.147-.745-.319-1.483l1.5-.352q.178.763.331,1.535Zm-.691-2.953q-.2-.733-.421-1.457l1.475-.454q.23.749.436,1.508ZM57.662,32.431l-1.472-.465q.238-.752.5-1.493l1.455.517Q57.892,31.7,57.662,32.431Zm84.054-1.081q-.247-.715-.519-1.421l1.441-.555q.281.73.537,1.471ZM58.679,29.564,57.242,29q.289-.733.6-1.454l1.416.615Q58.959,28.856,58.679,29.564Zm81.95-1.037q-.3-.7-.616-1.383l1.4-.652q.33.709.637,1.431ZM59.89,26.777,58.5,26.112q.339-.711.7-1.408l1.37.712Q60.218,26.09,59.89,26.777Zm79.459-.995q-.343-.676-.709-1.338l1.351-.747q.379.686.734,1.386Zm-78.058-1.7-1.344-.759q.387-.685.8-1.356l1.318.8Q61.665,23.419,61.292,24.08Zm76.594-.949q-.389-.651-.8-1.288l1.3-.837q.425.658.827,1.331ZM62.875,21.488l-1.289-.85q.433-.656.886-1.3l1.26.892Q63.293,20.853,62.875,21.488Zm73.367-.9q-.432-.622-.886-1.23l1.237-.923q.469.629.916,1.273Zm-71.61-1.572L63.4,18.075q.476-.625.973-1.233l1.2.977Q65.092,18.406,64.631,19.011Zm69.8-.858q-.474-.592-.968-1.167l1.171-1.006q.511.6,1,1.208ZM66.553,16.661l-1.161-1.018q.518-.59,1.055-1.163l1.126,1.056Q67.053,16.09,66.553,16.661Zm65.9-.809q-.514-.559-1.045-1.1l1.1-1.083q.551.56,1.082,1.138Zm-63.823-1.4-1.089-1.094q.557-.554,1.131-1.089L69.723,13.4Q69.168,13.912,68.63,14.448Zm61.7-.759q-.55-.523-1.118-1.026l1.024-1.156q.588.521,1.158,1.062ZM70.852,12.382,69.84,11.216q.593-.514,1.2-1.009l.972,1.2Q71.424,11.884,70.852,12.382Zm57.2-.707q-.585-.484-1.187-.948l.943-1.223q.622.48,1.228.98Zm-54.844-1.2-.93-1.232q.626-.473,1.268-.924l.887,1.263Q73.814,10.015,73.209,10.472Zm52.439-.651q-.617-.442-1.249-.865l.857-1.284q.654.436,1.292.894ZM75.69,8.728l-.844-1.292q.656-.429,1.328-.835l.8,1.321Q76.324,8.313,75.69,8.728Zm47.431-.593q-.645-.4-1.306-.777l.766-1.34q.684.391,1.352.8ZM78.283,7.158l-.754-1.347q.684-.383,1.381-.742l.708,1.372Q78.944,6.788,78.283,7.158Zm42.2-.531q-.672-.354-1.357-.685l.672-1.39q.709.343,1.4.709ZM80.977,5.77l-.66-1.4q.707-.335,1.428-.646l.612,1.417Q81.66,5.446,80.977,5.77ZM117.745,5.3q-.694-.307-1.4-.59l.574-1.433q.732.294,1.451.611ZM83.757,4.57l-.563-1.438q.729-.285,1.469-.546l.513,1.456Q84.462,4.294,83.757,4.57Zm31.164-.4q-.712-.257-1.436-.49l.474-1.469q.749.242,1.485.507ZM86.612,3.564,86.15,2.091q.746-.234,1.5-.443l.412,1.488Q87.334,3.338,86.612,3.564Zm25.422-.323q-.728-.207-1.466-.39l.371-1.5q.764.19,1.517.4ZM89.529,2.757l-.36-1.5q.762-.183,1.533-.339l.308,1.513Q90.265,2.58,89.529,2.757Zm19.561-.246q-.739-.156-1.489-.289L107.868.7q.776.137,1.542.3ZM92.5,2.153,92.245.63Q93.018.5,93.8.4L94,1.927Q93.247,2.027,92.5,2.153Zm13.6-.168q-.749-.105-1.506-.187l.164-1.535q.783.084,1.557.193ZM95.508,1.754,95.358.217q.779-.075,1.565-.125l.1,1.541Q96.261,1.68,95.508,1.754Zm7.577-.092-.525-.035q-.5-.029-.989-.049l.06-1.543q.51.02,1.022.051.274.016.546.036Zm-4.55-.1L98.49.019Q99.156,0,99.825,0h.235l0,1.544h-.23Q99.178,1.544,98.535,1.562Z" transform="translate(-56.19 0)" fill="#002c27"/>
    </g>
    <path id="Path_118454" data-name="Path 118454" d="M-2866.153-4000.84l47.681-21.524s-.118,3.276,6.58,5.606,5.7-2.007,6.4-.984,7.581,16.9,7.581,16.9Z" transform="translate(3018 4313)" fill="#f6f2ed"/>
    <path id="Rectangle_8389" data-name="Rectangle 8389" d="M5,0H84a0,0,0,0,1,0,0V10a0,0,0,0,1,0,0H5A5,5,0,0,1,0,5V5A5,5,0,0,1,5,0Z" transform="translate(142 307)" fill="#f5f2ed"/>
    <path id="Path_27330" data-name="Path 27330" d="M94.874,177.431H11.4a9.147,9.147,0,0,1-9.137-9.137V112.367H3.806a4.553,4.553,0,0,0,4.54,4.544H94.874v60.52ZM3.806,116.411v51.883a7.6,7.6,0,0,0,7.593,7.593H93.33V118.455H8.345A6.083,6.083,0,0,1,3.806,116.411Z" transform="translate(138.637 199.792)" fill="#002c27"/>
    <g id="Group_39789" data-name="Group 39789" transform="translate(140.899 306.068)">
      <path id="Path_27329" data-name="Path 27329" d="M87.822,98.919V111.1H8.353a6.088,6.088,0,0,1,0-12.176H23.869l-3.453,1.544H8.353a4.544,4.544,0,0,0,0,9.088H86.278v-9.088H80.411l-.689-1.544h8.1Z" transform="translate(-2.265 -98.919)" fill="#002c27"/>
    </g>
    <g id="Group_39800" data-name="Group 39800" transform="translate(147.143 285.269)">
      <g id="Group_39795" data-name="Group 39795" transform="translate(0 0.002)">
        <path id="Path_27335" data-name="Path 27335" d="M16.046,114.051l.026-.01v.01Z" transform="translate(-16.046 -86.395)" fill="#4a555f"/>
        <path id="Path_27336" data-name="Path 27336" d="M39.832,79.123H92.113L81.357,55.049,27.45,79.123h7.776v.005H23.657L82.139,53.011,93.8,79.128H39.832Z" transform="translate(-20.209 -53.011)" fill="#002c27"/>
      </g>
      <g id="Group_39797" data-name="Group 39797" transform="translate(51.52)">
        <path id="Path_27338" data-name="Path 27338" d="M139.805,64.659a10.648,10.648,0,0,1-9.712-6.3l-.315-.7,10.411-4.65,4.65,10.411-.7.315A10.547,10.547,0,0,1,139.805,64.659Zm-7.957-6.235a9.105,9.105,0,0,0,7.957,4.692,9,9,0,0,0,2.982-.506l-3.377-7.563Z" transform="translate(-129.779 -53.006)" fill="#002c27"/>
      </g>
      <g id="Group_39798" data-name="Group 39798" transform="translate(17.554 9.389)">
        <path id="Path_27339" data-name="Path 27339" d="M93.77,74.736,58.58,90.463H54.8L92.232,73.732A10.753,10.753,0,0,0,93.77,74.736Z" transform="translate(-54.798 -73.732)" fill="#002c27"/>
      </g>
      <g id="Group_39799" data-name="Group 39799" transform="translate(59.48 11.453)">
        <path id="Path_27340" data-name="Path 27340" d="M155.6,92.956H153.9l-6.551-14.667a10.82,10.82,0,0,0,1.786.2Z" transform="translate(-147.352 -78.289)" fill="#002c27"/>
      </g>
    </g>
    <g id="Group_39801" data-name="Group 39801" transform="translate(147.17 311.387)">
      <rect id="Rectangle_7615" data-name="Rectangle 7615" width="77.744" height="1.544" fill="#002c27"/>
    </g>
    <path id="Rectangle_8390" data-name="Rectangle 8390" d="M0,0H86a0,0,0,0,1,0,0V54a0,0,0,0,1,0,0H6a6,6,0,0,1-6-6V0A0,0,0,0,1,0,0Z" transform="translate(144 320)" fill="url(#linear-gradient)"/>
    <circle id="Ellipse_2126" data-name="Ellipse 2126" cx="20.89" cy="20.89" r="20.89" transform="translate(167.326 324.603)" fill="#F6F2ED"/>
    <g id="Path_25555" data-name="Path 25555" transform="translate(91.089 254.341)" fill="#0e2b27">
      <path d="M 97.25226593017578 112.1045379638672 C 85.69915008544922 112.1045379638672 76.30001068115234 102.7053909301758 76.30001068115234 91.15226745605469 C 76.30001068115234 79.59914398193359 85.69915008544922 70.19999694824219 97.25226593017578 70.19999694824219 C 108.8053970336914 70.19999694824219 118.2045593261719 79.59914398193359 118.2045593261719 91.15226745605469 C 118.194709777832 93.98012542724609 117.6327362060547 96.7227783203125 116.5342712402344 99.30577850341797 C 115.4734954833984 101.8001098632812 113.9598922729492 104.0405960083008 112.0354995727539 105.9649887084961 C 110.1109771728516 107.8895111083984 107.8728179931641 109.4006881713867 105.3832015991211 110.4565658569336 C 102.8048477172852 111.5500793457031 100.069206237793 112.1045379638672 97.25226593017578 112.1045379638672 Z M 97.25226593017578 72.4979248046875 C 86.96623992919922 72.4979248046875 78.59793853759766 80.86622619628906 78.59793853759766 91.15226745605469 C 78.59793853759766 101.4383087158203 86.96623992919922 109.8066101074219 97.25226593017578 109.8066101074219 C 107.5382995605469 109.8066101074219 115.9066009521484 101.4383087158203 115.9066009521484 91.15226745605469 C 115.9066009521484 80.86622619628906 107.5382995605469 72.4979248046875 97.25226593017578 72.4979248046875 Z" stroke="none"/>
      <path d="M 97.25226593017578 111.6045379638672 C 108.5010223388672 111.6045379638672 117.6652221679688 102.4403610229492 117.7045593261719 91.15226745605469 C 117.7045593261719 79.86419677734375 108.5010299682617 70.69999694824219 97.25226593017578 70.69999694824219 C 85.96419525146484 70.69999694824219 76.80001068115234 79.90351867675781 76.80001068115234 91.15226745605469 C 76.80001068115234 102.4403610229492 86.0035400390625 111.6045379638672 97.25226593017578 111.6045379638672 M 97.25226593017578 71.9979248046875 C 107.8323974609375 71.9979248046875 116.4066009521484 80.61148834228516 116.4066009521484 91.15226745605469 C 116.4066009521484 101.7323837280273 107.8323974609375 110.3066101074219 97.25226593017578 110.3066101074219 C 86.71148681640625 110.3066101074219 78.09793853759766 101.7323837280273 78.09793853759766 91.15226745605469 C 78.09793853759766 80.57215881347656 86.67217254638672 71.9979248046875 97.25226593017578 71.9979248046875 M 97.25226593017578 112.6045379638672 C 85.42344665527344 112.6045379638672 75.80001068115234 102.981086730957 75.80001068115234 91.15226745605469 C 75.80001068115234 79.32344818115234 85.42344665527344 69.69999694824219 97.25226593017578 69.69999694824219 C 109.0811004638672 69.69999694824219 118.7045593261719 79.32344818115234 118.7045593261719 91.15226745605469 C 118.694465637207 94.04888916015625 118.1190872192383 96.85678863525391 116.9943923950195 99.50144958496094 C 115.9084320068359 102.0550308227539 114.3589706420898 104.3486251831055 112.389045715332 106.3185501098633 C 110.4188919067383 108.2886962890625 108.1274719238281 109.8358001708984 105.5784225463867 110.9168853759766 C 102.9379806518555 112.0367279052734 100.1366500854492 112.6045379638672 97.25226593017578 112.6045379638672 Z M 97.25226593017578 72.9979248046875 C 87.24193572998047 72.9979248046875 79.09793853759766 81.14192962646484 79.09793853759766 91.15226745605469 C 79.09793853759766 101.1626052856445 87.24193572998047 109.3066101074219 97.25226593017578 109.3066101074219 C 107.2625961303711 109.3066101074219 115.4066009521484 101.1626052856445 115.4066009521484 91.15226745605469 C 115.4066009521484 81.14192962646484 107.2625961303711 72.9979248046875 97.25226593017578 72.9979248046875 Z" stroke="none" fill="#f6f2ed"/>
    </g>
    <g id="layers" transform="translate(178.471 335.408)">
      <path id="Combined_Shape" data-name="Combined Shape" d="M9.062,19.991H9.054l-8.5-3.876V16.1a.77.77,0,0,1,.007-1.481l1.671-.761c2.6,1.193,6.154,2.813,6.194,2.826a3.878,3.878,0,0,0,2.881,0c.043-.013,3.6-1.635,6.2-2.827l1.661.762h.01a.77.77,0,0,1,0,1.481v.016l-8.5,3.876h-.009a1.913,1.913,0,0,1-1.614,0Zm0-5.276H9.054l-8.5-3.878v-.016A.769.769,0,0,1,.562,9.341l1.671-.76c2.6,1.193,6.154,2.813,6.194,2.826a3.9,3.9,0,0,0,2.881,0c.043-.014,3.6-1.636,6.2-2.827l1.661.762h.01a.769.769,0,0,1,0,1.479v.016l-8.5,3.878h-.009a1.913,1.913,0,0,1-1.614,0Zm0-5.274H9.053L.554,5.565V5.547A.807.807,0,0,1,0,4.808a.8.8,0,0,1,.56-.741L9.046.178h.016a1.905,1.905,0,0,1,1.61,0h.016l8.487,3.889a.8.8,0,0,1,.56.741.806.806,0,0,1-.553.739v.018l-8.5,3.876h-.008a1.913,1.913,0,0,1-1.614,0Z" transform="translate(0)" fill="#162a27"/>
    </g>
  </g>
</svg>
