<svg width="11" height="13" viewBox="0 0 11 13" fill="none" xmlns="http://www.w3.org/2000/svg">
<path d="M10.2917 3.25488C10.2641 2.98532 10.1751 2.74179 10.0033 2.5289C9.85144 2.34051 9.65661 2.20573 9.47251 2.0541C9.38047 1.97905 9.13654 1.77535 9.10586 1.66048C9.06904 1.5211 9.12581 1.37866 9.25314 1.33272C9.4449 1.26839 9.76553 1.26992 9.95115 1.28217C10.1092 1.29443 10.2718 1.23929 10.2779 1.17496C10.2841 1.11063 10.1905 1.01567 10.0662 0.986573C9.96803 0.963599 9.81769 0.928372 9.72717 0.868639C9.56609 0.759896 9.40194 0.560787 9.17797 0.51637C8.85887 0.453575 8.63643 0.57304 8.53211 0.847197C8.36642 1.23929 8.47381 1.74165 8.82205 2.10924C8.97853 2.27465 9.16109 2.41709 9.33598 2.56566C9.46484 2.67593 9.57837 2.79693 9.68729 2.93171C9.97877 3.2947 9.67041 3.96095 9.59678 4.03753C9.33905 4.30403 9.11507 4.35304 8.67018 4.33466C8.23296 4.31628 7.09926 3.73121 6.49942 3.71283C5.01441 3.66688 3.98349 4.35151 3.63525 4.52917C3.11366 4.79567 2.37115 4.81252 2.34814 4.82018C2.01217 4.84622 1.31569 4.87225 0.970514 4.99172C0.484203 5.1265 0.221871 5.34858 0.0439152 5.84482C-0.0113125 6.05925 -0.0220509 6.25376 0.0561883 6.3717C0.226474 6.629 0.68517 6.84343 0.893808 6.96136C1.0012 7.02263 1.2129 6.94605 1.25432 6.91695C1.48751 6.75919 1.69308 6.63513 1.96921 6.59531C2.02751 6.58612 2.41717 6.5172 2.61354 6.66117C2.75621 6.76532 2.87894 6.82811 3.04002 6.90163C3.33457 7.03488 3.98349 7.20336 3.99577 7.20642C4.08321 7.22939 4.1952 7.27381 4.1952 7.35192C4.1952 7.4622 3.16428 8.32296 3.10752 8.3444C2.84826 8.45008 2.69791 8.62009 2.65036 8.86515C2.63502 8.94479 2.59973 9.0275 2.55524 9.09336C2.38803 9.33535 1.64705 10.386 1.45069 10.674C1.35711 10.8088 1.26046 10.8761 1.12699 10.8976C0.935229 10.9282 0.791023 10.9328 0.709716 11.0691C0.659091 11.1564 0.691307 11.3264 0.725057 11.4367C0.76341 11.5623 0.659091 11.7185 0.65142 11.7369C0.559374 11.9161 0.521021 12.0876 0.534828 12.2607C0.539431 12.3312 0.544033 12.4951 0.660625 12.4996C0.777217 12.5058 0.807899 12.4307 0.821706 12.4032C0.838581 12.3695 0.903013 12.2301 0.921422 12.1964C0.996593 12.057 1.28347 11.7568 1.31569 11.7216C1.41847 11.6083 2.95257 9.49923 2.95257 9.49923C3.03695 9.38896 3.12439 9.27562 3.26707 9.22048C3.46497 9.1439 3.5969 8.98614 3.63525 8.77785C3.64446 8.7319 4.25656 8.26323 4.51736 8.06565C4.61247 7.99366 5.1893 7.76239 5.1985 7.76546C5.1985 7.77005 4.67077 8.56342 4.50662 8.98461C4.48054 9.052 4.43759 9.28174 4.48514 9.39815C4.55878 9.57734 4.71679 9.65546 4.89628 9.60185C4.95151 9.585 5.0006 9.55743 5.04816 9.53139C5.06964 9.51914 5.09111 9.50842 5.11259 9.4977C5.13407 9.48698 5.15401 9.47626 5.17549 9.46554C5.22458 9.4395 5.27214 9.41499 5.3197 9.39968C5.49612 9.34148 5.67407 9.28634 5.85203 9.2312L6.21254 9.11939C6.46414 9.04128 6.71573 8.96317 6.96732 8.88659C7.02255 8.86974 7.07624 8.84983 7.14528 8.85136C7.18363 8.85136 7.22505 8.86668 7.23886 8.92335C7.23886 8.92641 7.26801 9.09795 7.37386 9.16687C7.42755 9.2021 7.54261 9.22967 7.62852 9.22661C7.70369 9.22354 7.79881 9.24499 7.8479 9.28787L7.9108 9.34148C7.95682 9.37977 8.01358 9.40121 8.05193 9.41193C8.09182 9.42265 8.16546 9.42265 8.20841 9.37823C8.25444 9.32922 8.23756 9.24958 8.23142 9.22507C8.22222 9.19138 8.20381 9.16534 8.19 9.14237L8.15165 9.08263C8.11483 9.02443 8.07955 8.96623 8.04119 8.90803C7.93534 8.74721 7.83102 8.58793 7.72364 8.42864C7.61165 8.26323 7.43829 8.19737 7.21125 8.23259C7.1238 8.24638 5.20464 8.84064 5.19083 8.84371C5.29362 8.65532 5.90879 7.80681 6.08061 7.6996C6.20794 7.62455 6.26164 7.55256 6.49328 7.51274C6.94585 7.43616 7.92767 7.20948 8.17159 7.03335C8.64563 6.69027 8.68398 5.91068 8.67631 5.75446C8.66711 5.59823 8.71773 5.49102 8.85427 5.41904C8.92177 5.38381 9.652 4.981 10.0094 4.38674C10.2242 4.03906 10.3347 3.66688 10.2917 3.25488Z" fill="#4E5C6A"/>
</svg>
