<svg width="154" height="131" viewBox="0 0 154 131" fill="none" xmlns="http://www.w3.org/2000/svg">
<g opacity="0.272">
<path d="M33.3739 122.44C47.5796 122.44 59.0956 110.924 59.0956 96.7179C59.0956 82.5123 47.5796 70.9963 33.3739 70.9963C19.1683 70.9963 7.65234 82.5123 7.65234 96.7179C7.65234 110.924 19.1683 122.44 33.3739 122.44Z" fill="url(#paint0_linear_3402_4668)"/>
<path d="M40.4233 129.613C40.762 129.887 41.1745 130.055 41.6086 130.095C42.0427 130.135 42.4788 130.045 42.8619 129.837C43.2449 129.629 43.5577 129.312 43.7606 128.926C43.9635 128.54 44.0474 128.103 44.0017 127.67C43.9561 127.236 43.7829 126.826 43.5041 126.491C43.2253 126.156 42.8533 125.911 42.4353 125.787C42.0174 125.664 41.5721 125.667 41.1558 125.796C40.7396 125.926 40.3711 126.176 40.0969 126.514C39.7294 126.969 39.5573 127.55 39.6185 128.131C39.6797 128.712 39.9692 129.245 40.4233 129.613Z" fill="url(#paint1_linear_3402_4668)"/>
<path d="M48.3381 124.961C48.5693 125.148 48.8509 125.263 49.1471 125.29C49.4434 125.317 49.741 125.256 50.0025 125.114C50.264 124.972 50.4775 124.756 50.6161 124.492C50.7547 124.229 50.8121 123.931 50.7811 123.635C50.7501 123.339 50.6321 123.059 50.4419 122.83C50.2518 122.601 49.9981 122.434 49.7128 122.349C49.4276 122.265 49.1237 122.267 48.8396 122.355C48.5554 122.443 48.3037 122.613 48.1163 122.844C47.8652 123.154 47.7475 123.552 47.7891 123.948C47.8307 124.345 48.0282 124.709 48.3381 124.961Z" fill="url(#paint2_linear_3402_4668)"/>
<path d="M3.73975 89.5702C4.29244 89.5702 4.83271 89.4063 5.29226 89.0993C5.7518 88.7922 6.10997 88.3558 6.32148 87.8451C6.53298 87.3345 6.58832 86.7727 6.4805 86.2306C6.37267 85.6885 6.10653 85.1906 5.71572 84.7998C5.32491 84.409 4.82699 84.1428 4.28492 84.035C3.74285 83.9272 3.18098 83.9825 2.67037 84.194C2.15975 84.4055 1.72332 84.7637 1.41626 85.2233C1.1092 85.6828 0.945313 86.2231 0.945312 86.7758C0.945313 87.5169 1.23973 88.2277 1.76378 88.7517C2.28784 89.2758 2.99862 89.5702 3.73975 89.5702Z" fill="url(#paint3_linear_3402_4668)"/>
</g>
<path d="M91.6013 124.811C125.541 124.811 153.054 97.2979 153.054 63.3584C153.054 29.4189 125.541 1.90552 91.6013 1.90552C57.6618 1.90552 30.1484 29.4189 30.1484 63.3584C30.1484 97.2979 57.6618 124.811 91.6013 124.811Z" fill="#F6F2ED"/>
<path d="M91.6019 123.382C124.752 123.382 151.626 96.5085 151.626 63.3583C151.626 30.2081 124.752 3.33459 91.6019 3.33459C58.4517 3.33459 31.5781 30.2081 31.5781 63.3583C31.5781 96.5085 58.4517 123.382 91.6019 123.382Z" stroke="#0E2B27" stroke-width="3"/>
<path d="M97.5507 118.871L97.0667 114.996C98.2777 114.875 99.6096 114.633 100.821 114.391L101.547 118.266C100.214 118.507 98.8817 118.629 97.5507 118.871ZM105.541 117.297L104.573 113.544L108.204 112.454L109.538 116.207C108.084 116.57 106.752 116.934 105.541 117.297ZM113.169 114.629L111.595 110.997C112.806 110.513 113.896 109.907 114.985 109.423L116.801 112.934C115.626 113.573 114.413 114.14 113.169 114.633V114.629ZM120.431 111L118.373 107.61C119.466 106.995 120.516 106.308 121.517 105.552L123.817 108.696C122.734 109.547 121.523 110.274 120.431 111ZM126.969 106.278L124.433 103.251C125.402 102.403 126.37 101.556 127.218 100.709L129.885 103.493C129.005 104.512 128.029 105.445 126.972 106.278H126.969ZM132.902 100.588L129.996 97.9198C130.844 96.9508 131.691 95.9828 132.418 95.0139L135.562 97.4358C134.723 98.5295 133.752 99.6195 132.905 100.588H132.902ZM137.866 94.1707L134.597 91.9917C135.323 90.9018 135.931 89.8128 136.534 88.7228L139.924 90.6598C139.31 91.8708 138.623 93.0433 137.867 94.1707H137.866ZM141.862 87.1479L138.351 85.4529C138.908 84.3138 139.394 83.1408 139.806 81.9411L143.437 83.394C143.018 84.6866 142.493 85.9424 141.868 87.1489L141.862 87.1479ZM144.888 79.5201L141.136 78.3092C141.499 77.0982 141.863 75.8873 142.105 74.6773L145.978 75.5252L144.888 79.5201ZM146.704 71.6503L142.83 71.0453C143.072 69.8344 143.193 68.5024 143.314 67.2915L147.188 67.6545C147.07 68.8654 146.828 70.3174 146.707 71.6513L146.704 71.6503ZM147.309 63.5386H143.436V63.1718C143.456 62.0404 143.415 60.9088 143.315 59.7818L147.189 59.5398C147.31 60.7508 147.31 61.9618 147.31 63.1718L147.309 63.5386ZM41.7334 46.8301L37.9805 45.6191C38.3578 44.2898 38.8438 42.9939 39.4334 41.7442L43.0653 43.1972C42.5823 44.4081 42.0973 45.6191 41.7334 46.8301ZM44.6393 39.8073L41.1284 37.9913C41.7334 36.7804 42.3393 35.5694 43.0653 34.3594L46.4552 36.4174C45.7818 37.5094 45.1748 38.6414 44.6393 39.8073ZM48.5142 33.3904L45.2452 31.0895C45.9712 29.9996 46.8192 28.9106 47.6672 27.8206L50.6941 30.2425C49.9681 31.3315 49.1192 32.3024 48.5142 33.3904ZM53.236 27.4576L50.3301 24.7899L53.236 21.884L55.9037 24.7899C54.9319 25.6407 54.083 26.6097 53.236 27.4576ZM58.8059 22.3728L56.3849 19.3449C57.4748 18.4969 58.5639 17.6499 59.6538 16.923L61.8366 20.1928C60.7511 20.8084 59.735 21.5399 58.8059 22.3728ZM64.9807 18.011L63.0437 14.6211C64.2547 13.8951 65.4656 13.2873 66.6756 12.6842L68.3715 16.2008C67.1606 16.802 66.0706 17.4079 64.9807 18.011ZM71.7605 14.7421L70.3075 11.1102C71.5731 10.5931 72.8668 10.1478 74.1824 9.77634L75.3934 13.5293C74.1487 13.8243 72.9332 14.2309 71.7615 14.744L71.7605 14.7421ZM79.0253 12.4412L78.0563 8.56634C79.3902 8.20334 80.7241 7.96134 82.0522 7.71838L82.6572 11.5933C81.4472 11.8381 80.2362 12.0801 79.0253 12.4441V12.4412Z" fill="#002C27" stroke="#F6F2ED" stroke-width="0.7"/>
<path d="M69.0336 26.2581H114.166C114.722 26.2581 115.255 26.4789 115.648 26.872C116.041 27.2651 116.262 27.7982 116.262 28.3541V98.6677C116.262 99.2236 116.041 99.7567 115.648 100.15C115.255 100.543 114.722 100.764 114.166 100.764H69.0336C68.4777 100.764 67.9445 100.543 67.5514 100.15C67.1583 99.7567 66.9375 99.2236 66.9375 98.6677V28.3541C66.9375 27.7982 67.1583 27.2651 67.5514 26.872C67.9445 26.4789 68.4777 26.2581 69.0336 26.2581Z" fill="#70B9A7"/>
<path d="M115.922 97.954C116.288 97.954 116.638 97.8088 116.896 97.5504C117.155 97.2921 117.3 96.9417 117.3 96.5763V29.4059C117.3 28.3222 116.874 27.2817 116.115 26.5087C115.355 25.7356 114.323 25.2918 113.239 25.2728H70.0354C68.9393 25.2728 67.888 25.7083 67.1129 26.4834C66.3378 27.2585 65.9023 28.3097 65.9023 29.4059V99.3555C65.9382 100.428 66.3894 101.444 67.1607 102.189C67.9319 102.935 68.9628 103.351 70.0354 103.35H113.309C114.369 103.315 115.375 102.874 116.118 102.117C116.862 101.361 117.286 100.347 117.304 99.2869V96.4629C117.304 96.2817 117.268 96.1022 117.198 95.9348C117.129 95.7674 117.027 95.6154 116.899 95.4874C116.77 95.3594 116.618 95.258 116.451 95.189C116.283 95.12 116.103 95.0847 115.922 95.0852L114.544 95.0452V99.2869C114.528 99.6287 114.385 99.9521 114.143 100.194C113.901 100.436 113.577 100.579 113.235 100.596H70.0354C69.6816 100.596 69.3412 100.461 69.0847 100.217C68.8282 99.9733 68.6753 99.6402 68.6577 99.2869V29.4059C68.6577 29.0405 68.8029 28.6901 69.0612 28.4317C69.3196 28.1734 69.67 28.0282 70.0354 28.0282H113.309C113.649 28.0628 113.965 28.2231 114.194 28.4778C114.423 28.7325 114.549 29.0634 114.547 29.4059V96.5753C114.547 96.9404 114.692 97.2906 114.949 97.5491C115.207 97.8076 115.557 97.9532 115.922 97.954Z" fill="#162A27"/>
<path d="M94.3562 37.4081C94.7216 37.4081 95.072 37.2629 95.3304 37.0046C95.5888 36.7462 95.7339 36.3958 95.7339 36.0304C95.7339 35.665 95.5888 35.3146 95.3304 35.0562C95.072 34.7979 94.7216 34.6527 94.3562 34.6527H88.8464C88.6655 34.6527 88.4864 34.6883 88.3192 34.7576C88.1521 34.8268 88.0002 34.9283 87.8723 35.0562C87.7443 35.1842 87.6429 35.336 87.5736 35.5032C87.5044 35.6703 87.4688 35.8495 87.4688 36.0304C87.4688 36.2113 87.5044 36.3905 87.5736 36.5576C87.6429 36.7248 87.7443 36.8766 87.8723 37.0046C88.0002 37.1325 88.1521 37.234 88.3192 37.3032C88.4864 37.3725 88.6655 37.4081 88.8464 37.4081H94.3562Z" fill="#162A27"/>
<path d="M112.164 30.3606H71.0391V98.2484H112.164V30.3606Z" stroke="#1B2927" stroke-width="2" stroke-dasharray="2 2"/>
<path d="M124.472 41.9213C136.049 41.9213 145.433 32.5369 145.433 20.9607C145.433 9.38441 136.049 0 124.472 0C112.896 0 103.512 9.38441 103.512 20.9607C103.512 32.5369 112.896 41.9213 124.472 41.9213Z" fill="#F5F2ED"/>
<path d="M124.445 40C134.663 40 142.945 31.4934 142.945 21C142.945 10.5066 134.663 2 124.445 2C114.228 2 105.945 10.5066 105.945 21C105.945 31.4934 114.228 40 124.445 40Z" fill="#ED835E"/>
<g clip-path="url(#clip0_3402_4668)">
<path d="M122.331 20.0824C121.588 19.3141 120.88 18.5784 120.162 17.8537C120.115 17.8062 119.973 17.8179 119.896 17.8537C118.596 18.4267 117.399 19.2238 116.357 20.2113C116.213 20.3481 116.071 20.4874 115.948 20.6052C115.284 19.9144 114.623 19.2288 113.945 18.5217C115.089 17.3335 116.439 16.353 117.924 15.5678L114.908 12.4458L116.31 10.9978L133.272 28.5719L131.901 29.9971C131.859 29.9561 131.797 29.8969 131.738 29.835C129.498 27.515 127.261 25.1928 125.026 22.8684C124.85 22.6854 124.683 22.664 124.464 22.6802C122.704 22.8105 121.201 23.5201 119.95 24.7728L117.951 22.6822C119.15 21.4521 120.61 20.5855 122.331 20.0824Z" fill="#FDF7F0"/>
<path d="M122.246 14.0614C127.535 13.2801 132.1 14.7353 135.945 18.5129L133.94 20.5964C133.55 20.2539 133.147 19.8691 132.714 19.5247C130.95 18.1024 128.849 17.1987 126.632 16.9086C126.089 16.8357 125.539 16.8214 124.993 16.7713C124.896 16.7691 124.801 16.7349 124.723 16.6736C123.906 15.8409 123.101 15.0003 122.293 14.161C122.274 14.1292 122.259 14.0959 122.246 14.0614Z" fill="#FDF7F0"/>
<path d="M127.929 26.8781L124.968 29.9382L121.98 26.8416C123.477 25.2165 126.255 25.1071 127.929 26.8781Z" fill="#FDF7F0"/>
<path d="M128.285 20.3256C129.69 20.8582 130.905 21.6401 131.93 22.702L131.264 23.4143L128.285 20.3256Z" fill="#FDF7F0"/>
</g>
<path d="M124.474 38.8249C134.34 38.8249 142.338 30.8268 142.338 20.9606C142.338 11.0945 134.34 3.09644 124.474 3.09644C114.607 3.09644 106.609 11.0945 106.609 20.9606C106.609 30.8268 114.607 38.8249 124.474 38.8249Z" stroke="#1B2927" stroke-width="2.5"/>
<defs>
<linearGradient id="paint0_linear_3402_4668" x1="33.3739" y1="70.9963" x2="33.3739" y2="122.44" gradientUnits="userSpaceOnUse">
<stop stop-color="#00836A"/>
<stop offset="1" stop-color="#073E39"/>
</linearGradient>
<linearGradient id="paint1_linear_3402_4668" x1="43.197" y1="126.188" x2="40.4233" y2="129.613" gradientUnits="userSpaceOnUse">
<stop stop-color="#00836A"/>
<stop offset="1" stop-color="#073E39"/>
</linearGradient>
<linearGradient id="paint2_linear_3402_4668" x1="50.2316" y1="122.623" x2="48.3381" y2="124.961" gradientUnits="userSpaceOnUse">
<stop stop-color="#00836A"/>
<stop offset="1" stop-color="#073E39"/>
</linearGradient>
<linearGradient id="paint3_linear_3402_4668" x1="3.73975" y1="83.9813" x2="3.73975" y2="89.5702" gradientUnits="userSpaceOnUse">
<stop stop-color="#00836A"/>
<stop offset="1" stop-color="#073E39"/>
</linearGradient>
<clipPath id="clip0_3402_4668">
<rect width="22" height="19" fill="white" transform="translate(113.945 11)"/>
</clipPath>
</defs>
</svg>
