<svg width="16" height="16" viewBox="0 0 16 16" fill="none" xmlns="http://www.w3.org/2000/svg">
<path fill-rule="evenodd" clip-rule="evenodd" d="M8.94184 3.90925C8.94189 3.72942 9.01336 3.55698 9.14053 3.42985C9.2677 3.30271 9.44016 3.23129 9.61998 3.23129H11.4128V1.43823C11.4128 1.25838 11.4842 1.08589 11.6114 0.958711C11.7386 0.831534 11.911 0.760086 12.0909 0.760086C12.2708 0.760086 12.4432 0.831534 12.5704 0.958711C12.6976 1.08589 12.769 1.25838 12.769 1.43823V3.2311H14.5619C14.6513 3.23049 14.74 3.24758 14.8227 3.28138C14.9055 3.31518 14.9808 3.36502 15.0442 3.42803C15.1077 3.49104 15.158 3.56598 15.1924 3.64854C15.2268 3.73109 15.2444 3.81963 15.2444 3.90904C15.2444 3.99846 15.2268 4.087 15.1924 4.16955C15.158 4.2521 15.1077 4.32704 15.0442 4.39006C14.9808 4.45307 14.9055 4.50291 14.8227 4.53671C14.74 4.57051 14.6513 4.58759 14.5619 4.58699H12.769V6.37982C12.769 6.55968 12.6975 6.73217 12.5703 6.85935C12.4432 6.98652 12.2707 7.05797 12.0908 7.05797C11.911 7.05797 11.7385 6.98652 11.6113 6.85935C11.4841 6.73217 11.4127 6.55968 11.4127 6.37982V4.58708H9.61992C9.4401 4.58708 9.26765 4.51566 9.14048 4.38853C9.01331 4.2614 8.94183 4.08897 8.94177 3.90915L8.94184 3.90925ZM15.9997 12.3067V12.2388C15.9934 12.0497 15.9386 11.8654 15.8405 11.7035C15.7425 11.5417 15.6045 11.4078 15.4399 11.3146L12.7035 9.7348C12.4472 9.58735 12.143 9.54748 11.8574 9.62393C11.5718 9.70038 11.3282 9.88691 11.1798 10.1427C10.91 10.6114 10.4978 10.9924 9.95415 11.1036C9.69815 11.1595 9.43303 11.1587 9.17736 11.1013C8.92169 11.044 8.68168 10.9313 8.47414 10.7714C7.86658 10.3155 7.28732 9.78671 6.75033 9.25004C6.21335 8.71337 5.6842 8.13319 5.22813 7.52533C5.06813 7.31794 4.95541 7.07808 4.89786 6.82254C4.84032 6.56701 4.83935 6.30198 4.89502 6.04603C5.0064 5.50077 5.38763 5.09185 5.8569 4.82099C6.11242 4.6721 6.29867 4.42818 6.37499 4.14246C6.45132 3.85674 6.41152 3.55243 6.26428 3.29595L4.68577 0.559611C4.59243 0.394987 4.4584 0.25708 4.29649 0.159096C4.13459 0.0611115 3.95025 0.00633111 3.76111 0H3.69108C3.56028 0.00443799 3.4312 0.0312429 3.30944 0.0792525L3.27585 0.0923779C2.75027 0.297634 1.24141 0.854183 0.856772 1.23848C-0.133822 2.22816 -0.136634 3.62893 0.205658 4.9079C0.846678 7.30292 2.76511 9.78306 4.4906 11.5088C6.21703 13.2354 8.69674 15.1522 11.0925 15.7944C11.5594 15.9194 12.0464 16 12.5307 16C13.3814 16 14.1548 15.7505 14.762 15.1429C15.142 14.7626 15.7 13.2522 15.906 12.7267L15.919 12.6926L15.9206 12.6885C15.9688 12.5667 15.9955 12.4375 15.9997 12.3067Z" fill="#878787"/>
</svg>
