<svg width="42" height="42" viewBox="0 0 42 42" fill="none" xmlns="http://www.w3.org/2000/svg">
<path d="M21 41C32.0457 41 41 32.0457 41 21C41 9.95431 32.0457 1 21 1C9.95431 1 1 9.95431 1 21C1 32.0457 9.95431 41 21 41Z" fill="#F6F2ED"/>
<path d="M20.9998 40.5285C31.7852 40.5285 40.5285 31.7852 40.5285 20.9998C40.5285 10.2145 31.7852 1.47119 20.9998 1.47119C10.2145 1.47119 1.47119 10.2145 1.47119 20.9998C1.47119 31.7852 10.2145 40.5285 20.9998 40.5285Z" stroke="#2F4F4F"/>
<path d="M39.5171 21.1999C39.521 23.6517 39.0369 26.0799 38.0929 28.3427C37.149 30.6056 35.7642 32.658 34.0191 34.3803C32.3155 36.077 30.2933 37.4202 28.0687 38.3325C25.8441 39.2449 23.461 39.7083 21.0566 39.6962C17.3969 39.7033 13.8173 38.6245 10.7709 36.5965C7.72443 34.5684 5.34812 31.6822 3.94268 28.303C2.53724 24.9239 2.16583 21.2037 2.87547 17.6134C3.5851 14.0231 5.34387 10.7241 7.9292 8.13379C10.5145 5.54344 13.8102 3.77827 17.3991 3.06167C20.988 2.34508 24.7089 2.7092 28.0907 4.10809C31.4726 5.50697 34.3634 7.87772 36.3974 10.9202C38.4314 13.9627 39.5171 17.5401 39.5171 21.1999Z" fill="#2F4F4F"/>
<path d="M21.0669 38.1401C30.4673 38.1401 38.0878 30.5195 38.0878 21.1191C38.0878 11.7187 30.4673 4.09814 21.0669 4.09814C11.6664 4.09814 4.0459 11.7187 4.0459 21.1191C4.0459 30.5195 11.6664 38.1401 21.0669 38.1401Z" fill="#F6F2ED"/>
<path d="M21.0667 37.6686C30.2068 37.6686 37.6163 30.259 37.6163 21.1189C37.6163 11.9788 30.2068 4.56934 21.0667 4.56934C11.9266 4.56934 4.51709 11.9788 4.51709 21.1189C4.51709 30.259 11.9266 37.6686 21.0667 37.6686Z" stroke="#2F4F4F"/>
<path d="M21.1024 6.98067C13.3239 6.98067 7.01807 13.2865 7.01807 21.065C7.01807 28.8436 13.3239 35.1494 21.1024 35.1494C28.881 35.1494 35.1868 28.8436 35.1868 21.065C35.1868 13.2865 28.881 6.98067 21.1024 6.98067Z" stroke="#2F4F4F" stroke-dasharray="1 1.5"/>
<g clip-path="url(#clip0_1236_19294)">
<path d="M18.015 13.8494C18.015 12.8296 17.1853 12 16.1656 12C13.712 12.1016 13.7127 15.5976 16.1656 15.6988C17.1854 15.6988 18.015 14.8692 18.015 13.8494Z" fill="#2F4F4F"/>
<path d="M19.3307 19.4331V18.8642C19.1564 14.6639 13.1728 14.6671 13 18.8642V19.4331C13 19.7081 13.223 19.9311 13.498 19.9311H18.8327C19.1077 19.9311 19.3307 19.7081 19.3307 19.4331ZM28.6841 13.8494C28.6841 12.8296 27.8544 12 26.8346 12C24.3811 12.1016 24.3818 15.5976 26.8346 15.6988C27.8544 15.6988 28.6841 14.8692 28.6841 13.8494ZM26.8346 15.6988C25.0893 15.6988 23.6693 17.1188 23.6693 18.8642V19.4331C23.6693 19.7081 23.8923 19.9311 24.1673 19.9311H29.502C29.777 19.9311 30 19.7081 30 19.4331V18.8642C30 17.1188 28.58 15.6988 26.8346 15.6988ZM16.13 21.0335C16.13 20.9979 16.1306 20.9626 16.1313 20.9272H15.1352C15.0955 23.0622 16.1305 24.991 17.7331 26.1656C17.8757 25.8633 18.054 25.5791 18.2644 25.3193C16.9679 24.339 16.13 22.7842 16.13 21.0335ZM19.3021 16.1325C20.6268 15.5121 22.3732 15.5121 23.6979 16.1325C23.9345 15.8611 24.2051 15.6213 24.5029 15.419C22.74 14.4263 20.26 14.4263 18.4971 15.419C18.7949 15.6213 19.0655 15.8611 19.3021 16.1325ZM26.8687 20.9272C26.9074 22.7065 26.0586 24.3228 24.7356 25.3193C24.946 25.5791 25.1243 25.8633 25.2669 26.1656C26.8694 24.9911 27.9045 23.0621 27.8648 20.9272H26.8687ZM23.3494 22.9183C23.3494 21.8985 22.5198 21.0689 21.5 21.0689C19.0465 21.1705 19.0472 24.6665 21.5 24.7677C22.5198 24.7677 23.3494 23.9381 23.3494 22.9183ZM21.5 24.7677C19.7546 24.7677 18.3346 26.1877 18.3346 27.9331V28.502C18.3346 28.777 18.5576 29 18.8327 29H24.1673C24.4424 29 24.6654 28.777 24.6654 28.502V27.9331C24.6654 26.1877 23.2454 24.7677 21.5 24.7677Z" fill="#2F4F4F"/>
</g>
<defs>
<clipPath id="clip0_1236_19294">
<rect width="17" height="17" fill="white" transform="translate(13 12)"/>
</clipPath>
</defs>
</svg>
