<svg width="29" height="32" viewBox="0 0 29 32" fill="none" xmlns="http://www.w3.org/2000/svg">
<g clip-path="url(#clip0_4574_4641)">
<path d="M28.9753 3.25718C28.9753 4.47646 29.0388 5.662 28.9607 6.84272C28.8337 8.7608 28.692 10.6789 28.4233 12.5777C27.7981 17.0403 26.6453 21.3439 24.203 25.2186C22.679 27.6427 20.7301 29.6427 18.1266 30.9584C17.0959 31.4789 16.0164 31.8981 14.8587 31.9897C14.2726 32.0379 13.6474 31.9222 13.0759 31.768C10.3356 31.021 8.16682 29.4162 6.36928 27.2909C4.2005 24.7271 2.86212 21.7439 1.9145 18.5728C1.1525 16.0283 0.63473 13.4355 0.414922 10.7945C0.219538 8.41863 0.136499 6.04272 -0.000270463 3.66682C-0.00515508 3.55116 -0.000270463 3.4355 -0.000270463 3.27646C0.624961 3.13188 1.24042 2.98248 1.85589 2.83791C5.98339 1.89815 10.106 0.948749 14.2335 0.0282669C14.5461 -0.0440223 14.9125 0.0282669 15.2349 0.105375C19.7385 1.12706 24.2421 2.15839 28.7408 3.18489C28.8434 3.20899 28.9411 3.24754 28.9753 3.25718ZM18.0093 21.45C17.9996 21.3873 17.9996 21.3391 17.9898 21.2957C17.599 19.2283 17.2131 17.156 16.8077 15.0885C16.754 14.8283 16.8419 14.7222 17.0275 14.5825C18.4489 13.5078 19.0595 12.0813 18.6981 10.3512C18.2194 8.05236 16.1532 6.70297 13.7939 7.04513C11.6789 7.35357 10.0425 9.47887 10.2916 11.5656C10.4431 12.8668 11.0487 13.8837 12.1185 14.65C12.2113 14.7174 12.2797 14.9006 12.2601 15.0114C11.9915 16.4957 11.7082 17.9801 11.4249 19.4596C11.2979 20.1198 11.1757 20.7801 11.0536 21.45H18.0142H18.0093Z" fill="#41594C"/>
</g>
<defs>
<clipPath id="clip0_4574_4641">
<rect width="29" height="32" fill="white"/>
</clipPath>
</defs>
</svg>
