<svg width="18" height="20" viewBox="0 0 18 20" fill="none" xmlns="http://www.w3.org/2000/svg">
<g clip-path="url(#clip0_2319_3475)">
<path d="M17.9847 2.03574C17.9847 2.79778 18.0241 3.53875 17.9756 4.2767C17.8968 5.47549 17.8089 6.67429 17.6421 7.86104C17.2541 10.6502 16.5385 13.34 15.0226 15.7616C14.0767 17.2767 12.867 18.5267 11.251 19.349C10.6113 19.6743 9.94127 19.9363 9.22272 19.9936C8.8589 20.0237 8.47083 19.9514 8.1161 19.855C6.41524 19.3881 5.06911 18.3851 3.95339 17.0568C2.60726 15.4544 1.77654 13.59 1.18836 11.608C0.715396 10.0177 0.394021 8.39718 0.257589 6.74658C0.136315 5.26164 0.084774 3.7767 -0.000117362 2.29176C-0.0031492 2.21947 -0.000117362 2.14718 -0.000117362 2.04778C0.387957 1.95742 0.769969 1.86405 1.15198 1.77369C3.71388 1.18634 6.27275 0.592964 8.83465 0.017663C9.02868 -0.0275177 9.25607 0.017663 9.45617 0.0658558C12.2515 0.70441 15.0469 1.34899 17.8392 1.99055C17.9029 2.00561 17.9635 2.02971 17.9847 2.03574ZM11.1783 13.4062C11.1722 13.3671 11.1722 13.3369 11.1661 13.3098C10.9236 12.0177 10.6841 10.7225 10.4324 9.43031C10.3991 9.26766 10.4536 9.2014 10.5689 9.11405C11.4511 8.44236 11.8301 7.55079 11.6057 6.46947C11.3086 5.03272 10.0262 4.18935 8.56178 4.4032C7.249 4.59598 6.23333 5.92429 6.38796 7.22851C6.48194 8.04176 6.85789 8.6773 7.52186 9.15622C7.57947 9.19839 7.62191 9.31284 7.60979 9.38212C7.44304 10.3098 7.26719 11.2375 7.09134 12.1622C7.01252 12.5749 6.93672 12.9875 6.86092 13.4062H11.1813H11.1783Z" fill="black"/>
</g>
<defs>
<clipPath id="clip0_2319_3475">
<rect width="18" height="20" fill="white"/>
</clipPath>
</defs>
</svg>
