<svg width="17" height="18" viewBox="0 0 17 18" fill="none" xmlns="http://www.w3.org/2000/svg">
<path d="M8.01715 2.71069C8.34449 2.37499 8.73523 2.10764 9.1667 1.92413C9.59817 1.74062 10.0618 1.64461 10.5307 1.64167C10.9995 1.63873 11.4643 1.72892 11.898 1.90701C12.3318 2.0851 12.7258 2.34754 13.0574 2.67911C13.3889 3.01068 13.6513 3.40477 13.8293 3.83854C14.0073 4.2723 14.0974 4.73709 14.0944 5.20596C14.0914 5.67482 13.9954 6.13843 13.8118 6.56987C13.6282 7.00132 13.3608 7.39202 13.0251 7.71931L7.51636 13.2287C7.31965 13.4287 7.08529 13.5878 6.8268 13.6967C6.56831 13.8057 6.29081 13.8624 6.0103 13.8636C5.72978 13.8647 5.45181 13.8104 5.19242 13.7036C4.93303 13.5968 4.69735 13.4397 4.49897 13.2414C4.30059 13.043 4.14345 12.8074 4.03659 12.548C3.92974 12.2887 3.8753 12.0107 3.87641 11.7302C3.87752 11.4497 3.93416 11.1722 4.04306 10.9136C4.15195 10.6551 4.31096 10.4207 4.5109 10.224L10.0203 4.71456L11.0219 5.71615L5.51248 11.2256C5.44483 11.2909 5.39087 11.3691 5.35374 11.4555C5.31662 11.5419 5.29708 11.6349 5.29626 11.7289C5.29545 11.823 5.31337 11.9162 5.34898 12.0033C5.3846 12.0903 5.4372 12.1694 5.5037 12.2359C5.57021 12.3024 5.6493 12.355 5.73635 12.3906C5.8234 12.4263 5.91667 12.4442 6.01073 12.4434C6.10478 12.4425 6.19772 12.423 6.28414 12.3859C6.37056 12.3488 6.44872 12.2948 6.51407 12.2271L12.0242 6.71773C12.2215 6.52039 12.3781 6.28611 12.4849 6.02827C12.5917 5.77043 12.6466 5.49408 12.6466 5.215C12.6466 4.93592 12.5917 4.65957 12.4849 4.40173C12.3781 4.14389 12.2215 3.90961 12.0242 3.71227C11.8268 3.51493 11.5926 3.35839 11.3347 3.25159C11.0769 3.14479 10.8005 3.08982 10.5215 3.08982C10.2424 3.08982 9.96603 3.14479 9.70819 3.25159C9.45035 3.35839 9.21607 3.51493 9.01873 3.71227L3.50932 9.2224C2.86417 9.89036 2.50719 10.785 2.51526 11.7136C2.52333 12.6422 2.8958 13.5305 3.55246 14.1872C4.20911 14.8438 5.09741 15.2163 6.02602 15.2244C6.95463 15.2324 7.84927 14.8755 8.51723 14.2303L14.5282 8.22011L15.5297 9.2224L9.51952 15.2326C8.58961 16.1625 7.32837 16.6849 6.01327 16.6849C4.69817 16.6849 3.43694 16.1625 2.50702 15.2326C1.57711 14.3027 1.05469 13.0415 1.05469 11.7264C1.05469 10.4113 1.57711 9.15002 2.50702 8.22011L8.01715 2.71069Z" fill="#F9F4F0"/>
</svg>
