<svg xmlns="http://www.w3.org/2000/svg" width="143.973" height="116" viewBox="0 0 143.973 116">
  <g id="IK_illustration" data-name="IK illustration" transform="translate(-57 -461)">
    <g id="Group_39521" data-name="Group 39521" transform="translate(57 515.199)" opacity="0.272">
      <circle id="Ellipse_1999" data-name="Ellipse 1999" cx="26.491" cy="26.491" r="26.491" transform="translate(6.909 0)" fill="#2F4F4F"/>
      <path id="Path_25533" data-name="Path 25533" d="M2.269,4.539A2.269,2.269,0,1,0,0,2.269,2.27,2.27,0,0,0,2.269,4.539Z" transform="translate(41.752 55.417) rotate(39)" fill="#2F4F4F"/>
      <path id="Path_25534" data-name="Path 25534" d="M1.55,3.1A1.55,1.55,0,1,0,0,1.55,1.55,1.55,0,0,0,1.55,3.1Z" transform="translate(49.56 52.196) rotate(39)" fill="#2F4F4F"/>
      <path id="Path_25535" data-name="Path 25535" d="M15.162,6.015a2.878,2.878,0,1,0-2.878-2.878A2.878,2.878,0,0,0,15.162,6.015Z" transform="translate(-12.284 13.115)" fill="#2F4F4F"/>
    </g>
    <g id="Group_39533" data-name="Group 39533" transform="matrix(0.799, -0.602, 0.602, 0.799, 173.517, 478.396)" opacity="0.272">
      <circle id="Ellipse_1999-2" data-name="Ellipse 1999" cx="9.803" cy="9.803" r="9.803" transform="translate(0 0)" fill="#2F4F4F"/>
      <path id="Path_25533-2" data-name="Path 25533" d="M.84,0A.84.84,0,1,1,0,.84.84.84,0,0,1,.84,0Z" transform="translate(7.769 21.811) rotate(141)" fill="#2F4F4F"/>
      <path id="Path_25534-2" data-name="Path 25534" d="M.573,0A.573.573,0,1,1,0,.573.574.574,0,0,1,.573,0Z" transform="translate(4.545 20.205) rotate(141)" fill="#2F4F4F"/>
      <path id="Path_25535-2" data-name="Path 25535" d="M1.065,2.13A1.065,1.065,0,1,1,2.13,1.065,1.065,1.065,0,0,1,1.065,2.13Z" transform="translate(20.032 4.949)" fill="#2F4F4F"/>
    </g>
    <g id="Ellipse_2007" data-name="Ellipse 2007" transform="translate(86.133 461)" fill="#F6F2ED" stroke="#002c27" stroke-width="2">
      <circle cx="51.657" cy="51.657" r="51.657" stroke="none"/>
      <circle cx="51.657" cy="51.657" r="50.657" fill="none"/>
    </g>
    <g id="Group_39720" data-name="Group 39720" transform="translate(90.256 465.396)">
      <g id="Group_39719" data-name="Group 39719" transform="translate(0 0)">
        <path id="Path_27264" data-name="Path 27264" d="M490.284,1198.9a47.732,47.732,0,0,1-14.2,34.044,47.11,47.11,0,0,1-33.48,13.73,47.775,47.775,0,1,1,47.681-47.774Z" transform="translate(-394.923 -1151.13)" fill="#2F4F4F"/>
      </g>
    </g>
    <g id="Ellipse_2008" data-name="Ellipse 2008" transform="translate(93.826 468.694)" fill="#F6F2ED" stroke="#002c27" stroke-width="2">
      <circle cx="43.964" cy="43.964" r="43.964" stroke="none"/>
      <circle cx="43.964" cy="43.964" r="42.964" fill="none"/>
    </g>
    <g id="Rectangle_7600" data-name="Rectangle 7600" transform="translate(100.462 550.421) rotate(-90)" fill="none" stroke="#002c27" stroke-width="1.5" stroke-dasharray="1.5 1.5">
      <rect width="75.19" height="75.19" rx="37.595" stroke="none"/>
      <rect x="0.75" y="0.75" width="73.69" height="73.69" rx="36.845" fill="none"/>
    </g>
    <g id="Group_46397" data-name="Group 46397" transform="translate(125.108 493.701)">
      <path id="Path_119542" data-name="Path 119542" d="M8,6.846A4.84,4.84,0,0,1,12.846,2h3.231a4.85,4.85,0,0,1,4.846,4.846v3.231a1.62,1.62,0,0,1-1.615,1.615H9.615A1.61,1.61,0,0,1,8,10.077Zm4.846-1.615a1.6,1.6,0,0,0-1.615,1.615V8.462h6.462V6.846a1.61,1.61,0,0,0-1.615-1.615Z" transform="translate(-1.78 -3)" fill="#2F4F4F" fill-rule="evenodd"/>
      <path id="Subtraction_61" data-name="Subtraction 61" d="M2982.643,19623.523h-23.138a4.611,4.611,0,1,1,0-9.223h23.138a4.611,4.611,0,1,1,0,9.223Zm-3.051-5.766v2.313h2.588v-2.312Zm-6,0v2.313h2.6v-2.312Zm-6.338,0v2.313h2.588v-2.312Zm-6.328,0v2.313h2.588v-2.312Z" transform="translate(-2958.393 -19591.449)" fill="#2F4F4F"/>
    </g>
    <path id="Path_119541" data-name="Path 119541" d="M8.615,6A1.6,1.6,0,0,0,7,7.615v9.692a1.61,1.61,0,0,0,1.615,1.615H21.539a1.62,1.62,0,0,0,1.615-1.615V7.615A1.61,1.61,0,0,0,21.539,6Z" transform="translate(122.713 494.162)" fill="#2F4F4F"/>
  </g>
</svg>
