<svg xmlns="http://www.w3.org/2000/svg" width="8.397" height="23.5" viewBox="0 0 8.397 23.5">
  <g id="passport" transform="translate(-66.103 -389)">
    <g id="Group_41153" data-name="Group 41153" transform="translate(1283.603 -184.5)">
      <path id="Path_28305" data-name="Path 28305" d="M1.5,1.963A.783.783,0,0,1,2,1.3,2.968,2.968,0,0,1,3.367,1H7.03a2.968,2.968,0,0,1,1.37.3.782.782,0,0,1,.5.668V22.152a1.151,1.151,0,0,1-.539.979A2.379,2.379,0,0,1,7.03,23.5H3.367a2.379,2.379,0,0,1-1.328-.369,1.151,1.151,0,0,1-.539-.979Z" transform="translate(-1218.5 573)" fill="transparent" stroke="#000" stroke-width="1"/>
      <rect id="Rectangle_7781" data-name="Rectangle 7781" width="5.541" height="5.779" rx="0.75" transform="translate(-1216.075 588.794)" fill="#24292f"/>
      <rect id="Rectangle_7794" data-name="Rectangle 7794" width="3" height="3" rx="1.5" transform="translate(-1214.703 584.5)" fill="#24292f"/>
      <rect id="Rectangle_7796" data-name="Rectangle 7796" width="5" height="7" rx="1.25" transform="translate(-1215.803 576.5)" fill="#24292f"/>
      <line id="Line_828" data-name="Line 828" x2="0.385" transform="translate(-1213.455 575.233)" fill="none" stroke="#24292f" stroke-linecap="round" stroke-linejoin="round" stroke-width="1"/>
    </g>
  </g>
</svg>
