<svg width="12" height="40" viewBox="0 0 12 40" fill="none" xmlns="http://www.w3.org/2000/svg">
<path d="M9 40H3C2.20435 40 1.44115 39.6486 0.87854 39.0234C0.315931 38.3983 0 37.5507 0 36.6667V3.33333C0 2.44928 0.315931 1.60168 0.87854 0.976562C1.44115 0.351441 2.20435 0 3 0H9C9.79565 0 10.5589 0.351441 11.1215 0.976562C11.6841 1.60168 12 2.44928 12 3.33333V36.6667C12 37.5507 11.6841 38.3983 11.1215 39.0234C10.5589 39.6486 9.79565 40 9 40ZM2.73889 25.8333C2.44104 25.8338 2.15556 25.9655 1.94495 26.1995C1.73434 26.4336 1.61575 26.7508 1.61536 27.0817V34.7477C1.61575 35.0787 1.73434 35.3959 1.94495 35.6299C2.15556 35.8639 2.44104 35.9957 2.73889 35.9961H9.26111C9.55936 35.9961 9.84534 35.8655 10.0565 35.6315C10.2677 35.3975 10.3868 35.0791 10.3876 34.7477V27.0817C10.3868 26.7503 10.2677 26.4336 10.0565 26.1995C9.84534 25.9655 9.55936 25.8333 9.26111 25.8333H2.73889ZM6.00146 18.1055C5.37195 18.1063 4.76862 18.384 4.32349 18.8786C3.87835 19.3732 3.62775 20.0444 3.62695 20.7438C3.62775 21.4433 3.87835 22.1128 4.32349 22.6074C4.76862 23.102 5.37195 23.3813 6.00146 23.3822C6.63098 23.3813 7.23468 23.102 7.67981 22.6074C8.12494 22.1128 8.37518 21.4433 8.37598 20.7438C8.37598 20.0435 8.12572 19.3707 7.68018 18.8753C7.23463 18.38 6.63029 18.1027 6 18.1022L6.00146 18.1055ZM3.91663 4.2041C3.41947 4.20454 2.94249 4.42385 2.59094 4.81445C2.2394 5.20506 2.04202 5.73504 2.04163 6.28743V14.4368C2.04202 14.9892 2.2394 15.5192 2.59094 15.9098C2.94249 16.3004 3.41947 16.5197 3.91663 16.5202H8.08337C8.58053 16.5197 9.05751 16.3004 9.40906 15.9098C9.7606 15.5192 9.95798 14.9892 9.95837 14.4368V6.28743C9.95798 5.73504 9.7606 5.20506 9.40906 4.81445C9.05751 4.42385 8.58053 4.20454 8.08337 4.2041H3.91663ZM5.58765 1.48275C5.41087 1.4823 5.24102 1.5608 5.1156 1.69922C4.99018 1.83764 4.91937 2.02527 4.91858 2.22168C4.91858 2.41882 4.98904 2.60799 5.1145 2.7474C5.23996 2.8868 5.41022 2.96549 5.58765 2.96549H6.25342C6.34108 2.96528 6.42776 2.946 6.50867 2.90853C6.58958 2.87105 6.66325 2.81642 6.7251 2.7474C6.78694 2.67837 6.83602 2.59495 6.86938 2.50488C6.90275 2.41482 6.91975 2.31908 6.91956 2.22168C6.91916 2.02571 6.84886 1.83764 6.724 1.69922C6.59914 1.5608 6.42979 1.48275 6.25342 1.48275H5.58765Z" fill="#2F4F4F"/>
</svg>
