<svg xmlns="http://www.w3.org/2000/svg" width="8" height="23.999" viewBox="0 0 8 23.999">
  <path id="passport" d="M3677-8432h-4a2,2,0,0,1-2-2v-20a2,2,0,0,1,2-2h4a2,2,0,0,1,2,2v20A2,2,0,0,1,3677-8432Zm-4.174-8.5a.75.75,0,0,0-.749.749v4.6a.75.75,0,0,0,.749.749h4.348a.751.751,0,0,0,.751-.749v-4.6a.751.751,0,0,0-.751-.749Zm2.175-4.637a1.585,1.585,0,0,0-1.583,1.583,1.585,1.585,0,0,0,1.583,1.583,1.585,1.585,0,0,0,1.583-1.583A1.585,1.585,0,0,0,3675-8445.139Zm-1.39-8.341a1.251,1.251,0,0,0-1.25,1.25v4.89a1.251,1.251,0,0,0,1.25,1.25h2.778a1.251,1.251,0,0,0,1.25-1.25v-4.89a1.251,1.251,0,0,0-1.25-1.25Zm1.114-1.632a.445.445,0,0,0-.446.443.446.446,0,0,0,.446.446h.444a.445.445,0,0,0,.444-.446.444.444,0,0,0-.444-.443Z" transform="translate(-3671 8456)"/>
</svg>
