<svg width="137" height="20" viewBox="0 0 137 20" fill="none" xmlns="http://www.w3.org/2000/svg">
<g style="mix-blend-mode:multiply" opacity="0.5">
<path d="M9.8042 14.3681H17.7042L9.8042 0.328125V14.3681Z" fill="url(#paint0_linear_4100_1531)"/>
</g>
<path d="M16.9761 14.9084C17.7171 14.9014 17.8761 15.2544 17.4191 15.8184C16.51 16.9761 15.3497 17.9121 14.026 18.5557C12.7022 19.1993 11.2495 19.5337 9.77756 19.5337C8.30562 19.5337 6.85292 19.1993 5.52915 18.5557C4.20538 17.9121 3.04515 16.9761 2.13606 15.8184C1.68106 15.2534 1.83606 14.9034 2.57906 14.9084C6.18006 14.9254 16.9761 14.9084 16.9761 14.9084Z" fill="url(#paint1_radial_4100_1531)"/>
<path d="M17.8471 13.3904C18.2151 14.0354 18.5931 13.9984 18.8551 13.3224C19.3995 11.9519 19.6274 10.4762 19.5217 9.00536C19.416 7.53451 18.9795 6.10651 18.2448 4.82793C17.5101 3.54934 16.4961 2.45319 15.2786 1.62127C14.061 0.789355 12.6713 0.243149 11.2131 0.0234172C10.4981 -0.0885828 10.2731 0.223417 10.6511 0.865417C10.6511 0.865417 16.0651 10.2504 17.8471 13.3904Z" fill="url(#paint2_radial_4100_1531)"/>
<path d="M8.90408 0.86441C9.27808 0.22241 9.05708 -0.0895899 8.34308 0.0224101C6.88739 0.242203 5.49992 0.78714 4.28374 1.61674C3.06755 2.44635 2.0539 3.5393 1.31808 4.81441C0.586913 6.09645 0.151915 7.52587 0.04498 8.99787C-0.0619554 10.4699 0.161882 11.9472 0.700083 13.3214C0.962083 14.0004 1.34208 14.0364 1.70808 13.3894C1.70808 13.3894 7.09308 3.98741 8.90408 0.86441Z" fill="url(#paint3_radial_4100_1531)"/>
<g opacity="0.25">
<path d="M2.92007 5.732C1.54733 8.02542 0.777097 10.6289 0.681068 13.3C0.142642 11.9254 -0.0811405 10.4476 0.0261457 8.97519C0.133432 7.50277 0.569064 6.07307 1.30107 4.791C2.03659 3.51655 3.04966 2.42409 4.26511 1.59469C5.48056 0.765295 6.86718 0.220248 8.32207 0C6.06517 1.42252 4.20643 3.39481 2.92007 5.732ZM18.2201 4.791C17.4839 3.51583 16.4699 2.42293 15.2534 1.59349C14.0368 0.764052 12.649 0.2194 11.1931 0C13.4491 1.42247 15.3072 3.39439 16.5931 5.731C17.966 8.02367 18.7366 10.6264 18.8331 13.297C19.3718 11.9231 19.596 10.446 19.4895 8.97416C19.3829 7.50228 18.9481 6.07294 18.2171 4.791H18.2201ZM16.9551 14.885C16.9551 14.885 6.15507 14.902 2.55507 14.885C4.76172 16.1009 7.23571 16.75 9.75507 16.774C12.2744 16.7501 14.7485 16.101 16.9551 14.885Z" fill="white"/>
</g>
<g opacity="0.2">
<path d="M9.75707 17.629C12.4189 17.6775 15.0492 17.0463 17.3991 15.795C16.4901 16.9528 15.3299 17.889 14.0061 18.5327C12.6823 19.1764 11.2296 19.5109 9.75757 19.5109C8.28557 19.5109 6.83281 19.1764 5.50902 18.5327C4.18524 17.889 3.02504 16.9528 2.11607 15.795C4.46569 17.0461 7.09556 17.6773 9.75707 17.629ZM3.65707 6.159C2.41877 8.36321 1.7422 10.8384 1.68707 13.366C1.68707 13.366 7.07107 3.966 8.88707 0.841003C6.73214 2.1556 4.93553 3.98244 3.65707 6.159ZM10.6291 0.841003C10.6291 0.841003 16.0421 10.226 17.8291 13.366C17.7736 10.8383 17.0967 8.36312 15.8581 6.159C14.5806 3.98272 12.785 2.15589 10.6311 0.841003H10.6291Z" fill="white"/>
</g>
<path d="M32.8841 5.55442C32.8841 5.50137 32.9051 5.4505 32.9426 5.41299C32.9801 5.37549 33.031 5.35442 33.0841 5.35442H37.4161C37.4691 5.35442 37.52 5.37549 37.5575 5.41299C37.595 5.4505 37.6161 5.50137 37.6161 5.55442V6.42442C37.6161 6.47746 37.595 6.52833 37.5575 6.56584C37.52 6.60334 37.4691 6.62442 37.4161 6.62442H34.2601V8.60842H36.8911C36.9434 8.61062 36.993 8.6324 37.03 8.66944C37.0671 8.70648 37.0889 8.75608 37.0911 8.80842V9.67842C37.0889 9.73075 37.0671 9.78035 37.03 9.81739C36.993 9.85443 36.9434 9.87621 36.8911 9.87842H34.2601V12.5494C34.2579 12.6017 34.2361 12.6513 34.199 12.6884C34.162 12.7254 34.1124 12.7472 34.0601 12.7494H33.0751C33.022 12.7494 32.9711 12.7283 32.9336 12.6908C32.8961 12.6533 32.8751 12.6025 32.8751 12.5494V5.54942L32.8841 5.55442Z" fill="white"/>
<path d="M46.0823 5.25001C46.834 5.25317 47.5679 5.47881 48.1916 5.89847C48.8153 6.31814 49.3007 6.91304 49.5868 7.6082C49.8729 8.30335 49.9468 9.06764 49.7991 9.80471C49.6515 10.5418 49.2889 11.2187 48.7572 11.75C48.2254 12.2813 47.5483 12.6433 46.8111 12.7904C46.0739 12.9375 45.3096 12.863 44.6147 12.5764C43.9198 12.2898 43.3253 11.8038 42.9061 11.1798C42.4869 10.5558 42.2619 9.82172 42.2593 9.07001C42.2585 8.56789 42.3569 8.07055 42.5487 7.60653C42.7406 7.14251 43.0222 6.72095 43.3774 6.36604C43.7326 6.01112 44.1544 5.72983 44.6186 5.53832C45.0827 5.3468 45.5802 5.24883 46.0823 5.25001ZM46.0823 11.481C46.5636 11.4798 47.0337 11.3358 47.4331 11.0673C47.8326 10.7988 48.1433 10.4178 48.3261 9.97252C48.5088 9.52727 48.5554 9.0378 48.4598 8.56608C48.3642 8.09437 48.1308 7.66162 47.7892 7.32262C47.4475 6.98362 47.013 6.75363 46.5405 6.66174C46.0681 6.56986 45.579 6.62023 45.1352 6.80647C44.6914 6.99272 44.3128 7.30645 44.0474 7.70797C43.782 8.10948 43.6417 8.58072 43.6443 9.06201C43.6506 9.70481 43.9101 10.3192 44.3665 10.7719C44.823 11.2245 45.4395 11.48 46.0823 11.481Z" fill="white"/>
<path d="M55.086 5.55442C55.0882 5.50208 55.11 5.45248 55.1471 5.41544C55.1841 5.37841 55.2337 5.35662 55.286 5.35442H56.295C56.3481 5.35442 56.399 5.37549 56.4365 5.41299C56.474 5.4505 56.495 5.50137 56.495 5.55442V9.87942C56.4939 10.083 56.5329 10.2847 56.6098 10.4732C56.6866 10.6617 56.7999 10.8332 56.943 10.9779C57.0862 11.1226 57.2564 11.2378 57.444 11.3167C57.6317 11.3956 57.833 11.4368 58.0365 11.4379C58.2401 11.439 58.4419 11.4 58.6303 11.3232C58.8188 11.2463 58.9903 11.1331 59.135 10.9899C59.2798 10.8468 59.3949 10.6766 59.4738 10.4889C59.5527 10.3013 59.5939 10.1 59.595 9.89642V5.56342C59.595 5.51037 59.6161 5.4595 59.6536 5.42199C59.6911 5.38449 59.742 5.36342 59.795 5.36342H60.803C60.8553 5.36585 60.9048 5.3877 60.9418 5.4247C60.9787 5.46169 61.0006 5.51116 61.003 5.56342V9.95742C60.9888 10.7353 60.6697 11.4765 60.1146 12.0215C59.5594 12.5666 58.8125 12.8719 58.0345 12.8719C57.2565 12.8719 56.5096 12.5666 55.9545 12.0215C55.3993 11.4765 55.0803 10.7353 55.066 9.95742V5.55742L55.086 5.55442Z" fill="white"/>
<path d="M66.7501 5.43342C66.7524 5.38195 66.7745 5.33336 66.8118 5.29778C66.849 5.26219 66.8986 5.24236 66.9501 5.24242H67.2131L71.6411 9.91542H71.6501V5.54142C71.6501 5.48837 71.6712 5.4375 71.7087 5.39999C71.7462 5.36249 71.797 5.34142 71.8501 5.34142H72.8321C72.8844 5.34363 72.934 5.36541 72.9711 5.40244C73.0081 5.43948 73.0299 5.48908 73.0321 5.54142V12.6594C73.0298 12.7109 73.0077 12.7595 72.9704 12.7951C72.9332 12.8306 72.8836 12.8505 72.8321 12.8504H72.5781L68.1231 7.99442H68.1141V12.5414C68.1141 12.5945 68.093 12.6453 68.0555 12.6828C68.018 12.7203 67.9671 12.7414 67.9141 12.7414H66.9411C66.8888 12.7392 66.8392 12.7174 66.8021 12.6804C66.7651 12.6433 66.7433 12.5938 66.7411 12.5414V5.43342H66.7501Z" fill="white"/>
<path d="M78.8681 5.55442C78.868 5.50256 78.8881 5.45273 78.9241 5.41541C78.9602 5.3781 79.0092 5.35623 79.0611 5.35442H81.5871C82.073 5.35442 82.5541 5.45012 83.003 5.63606C83.4519 5.822 83.8598 6.09454 84.2034 6.43812C84.5469 6.7817 84.8195 7.18958 85.0054 7.63849C85.1914 8.08739 85.2871 8.56852 85.2871 9.05442C85.2871 9.54031 85.1914 10.0214 85.0054 10.4703C84.8195 10.9192 84.5469 11.3271 84.2034 11.6707C83.8598 12.0143 83.4519 12.2868 83.003 12.4728C82.5541 12.6587 82.073 12.7544 81.5871 12.7544H79.0611C79.0092 12.7526 78.9602 12.7307 78.9241 12.6934C78.8881 12.6561 78.868 12.6063 78.8681 12.5544V5.55442ZM81.4551 11.4634C81.7737 11.4711 82.0905 11.4136 82.3861 11.2944C82.6817 11.1752 82.9498 10.9969 83.174 10.7704C83.3981 10.5439 83.5737 10.2739 83.6898 9.97713C83.8059 9.68033 83.8601 9.36293 83.8491 9.04442C83.8591 8.72657 83.8042 8.41003 83.6876 8.11415C83.5711 7.81828 83.3953 7.5493 83.1712 7.3237C82.9471 7.09809 82.6793 6.92059 82.3842 6.80207C82.0891 6.68355 81.773 6.6265 81.4551 6.63442H80.2331V11.4644L81.4551 11.4634Z" fill="white"/>
<path d="M91.0051 12.5414C90.9816 12.6036 90.9396 12.657 90.8846 12.6944C90.8297 12.7318 90.7645 12.7514 90.6981 12.7504H89.7681C89.7343 12.7526 89.7006 12.7459 89.6702 12.7308C89.6399 12.7158 89.6141 12.693 89.5954 12.6648C89.5767 12.6366 89.5659 12.6039 89.5639 12.5701C89.5619 12.5363 89.5689 12.5026 89.5841 12.4724L92.8991 5.3544C92.9154 5.32056 92.941 5.292 92.9728 5.27202C93.0047 5.25203 93.0415 5.24142 93.0791 5.2414H93.1841C93.2226 5.23948 93.2608 5.24924 93.2936 5.26941C93.3264 5.28958 93.3524 5.3192 93.3681 5.3544L96.6471 12.4724C96.6633 12.5025 96.6711 12.5365 96.6696 12.5707C96.6681 12.6049 96.6573 12.638 96.6384 12.6666C96.6195 12.6951 96.5932 12.718 96.5623 12.7327C96.5315 12.7475 96.4972 12.7536 96.4631 12.7504H95.5331C95.4659 12.7551 95.399 12.737 95.3434 12.6991C95.2877 12.6612 95.2464 12.6057 95.2261 12.5414L93.1131 7.9034H93.0791L91.0051 12.5414Z" fill="white"/>
<path d="M102.115 6.62541H100.484C100.431 6.62541 100.38 6.60434 100.343 6.56683C100.305 6.52932 100.284 6.47845 100.284 6.42541V5.55541C100.284 5.50236 100.305 5.45149 100.343 5.41399C100.38 5.37648 100.431 5.35541 100.484 5.35541H105.14C105.193 5.35541 105.244 5.37648 105.281 5.41399C105.319 5.45149 105.34 5.50236 105.34 5.55541V6.42541C105.34 6.47845 105.319 6.52932 105.281 6.56683C105.244 6.60434 105.193 6.62541 105.14 6.62541H103.51V12.5604C103.508 12.6127 103.486 12.6621 103.449 12.6991C103.412 12.7361 103.362 12.758 103.31 12.7604H102.319C102.267 12.758 102.217 12.7361 102.18 12.6991C102.143 12.6621 102.121 12.6127 102.119 12.5604V6.62541H102.115Z" fill="white"/>
<path d="M110.341 5.55449C110.343 5.50216 110.365 5.45256 110.402 5.41552C110.439 5.37848 110.488 5.3567 110.541 5.35449H111.532C111.584 5.3567 111.634 5.37848 111.671 5.41552C111.708 5.45256 111.73 5.50216 111.732 5.55449V12.5545C111.73 12.6068 111.708 12.6564 111.671 12.6935C111.634 12.7305 111.584 12.7523 111.532 12.7545H110.547C110.494 12.7523 110.445 12.7305 110.408 12.6935C110.371 12.6564 110.349 12.6068 110.347 12.5545L110.341 5.55449Z" fill="white"/>
<path d="M120.854 5.25001C121.606 5.25317 122.34 5.47881 122.964 5.89847C123.587 6.31814 124.073 6.91304 124.359 7.6082C124.645 8.30335 124.719 9.06764 124.571 9.80471C124.423 10.5418 124.061 11.2187 123.529 11.75C122.997 12.2813 122.32 12.6433 121.583 12.7904C120.846 12.9375 120.082 12.863 119.387 12.5764C118.692 12.2898 118.097 11.8038 117.678 11.1798C117.259 10.5558 117.034 9.82172 117.031 9.07001C117.03 8.56789 117.129 8.07055 117.321 7.60653C117.513 7.14251 117.794 6.72095 118.149 6.36604C118.505 6.01112 118.926 5.72983 119.391 5.53832C119.855 5.3468 120.352 5.24883 120.854 5.25001ZM120.854 11.481C121.336 11.4798 121.806 11.3358 122.205 11.0673C122.605 10.7988 122.915 10.4178 123.098 9.97252C123.281 9.52727 123.327 9.0378 123.232 8.56608C123.136 8.09437 122.903 7.66162 122.561 7.32262C122.22 6.98362 121.785 6.75363 121.312 6.66174C120.84 6.56986 120.351 6.62023 119.907 6.80647C119.463 6.99272 119.085 7.30645 118.819 7.70797C118.554 8.10948 118.414 8.58072 118.416 9.06201C118.423 9.70481 118.682 10.3192 119.139 10.7719C119.595 11.2245 120.211 11.48 120.854 11.481Z" fill="white"/>
<path d="M129.975 5.43341C129.977 5.38071 130 5.33097 130.039 5.29501C130.077 5.25905 130.128 5.23979 130.181 5.24141H130.444L134.872 9.91441H134.881V5.54141C134.881 5.48837 134.902 5.4375 134.94 5.39999C134.977 5.36248 135.028 5.34141 135.081 5.34141H136.063C136.115 5.34362 136.165 5.3654 136.202 5.40244C136.239 5.43948 136.261 5.48908 136.263 5.54141V12.6594C136.261 12.7109 136.239 12.7595 136.201 12.7951C136.164 12.8306 136.115 12.8505 136.063 12.8504H135.809L131.354 7.99441H131.345V12.5414C131.345 12.5945 131.324 12.6453 131.286 12.6828C131.249 12.7203 131.198 12.7414 131.145 12.7414H130.172C130.12 12.7392 130.07 12.7174 130.033 12.6804C129.996 12.6433 129.974 12.5937 129.972 12.5414V5.43341H129.975Z" fill="white"/>
<defs>
<linearGradient id="paint0_linear_4100_1531" x1="9.8042" y1="18.3274" x2="9.62955" y2="0.329283" gradientUnits="userSpaceOnUse">
<stop offset="0.216" stop-color="white" stop-opacity="0"/>
<stop offset="1"/>
</linearGradient>
<radialGradient id="paint1_radial_4100_1531" cx="0" cy="0" r="1" gradientUnits="userSpaceOnUse" gradientTransform="translate(2.75805 14.7823) scale(9.77403 9.81774)">
<stop offset="0.5" stop-color="#BB6E5A"/>
<stop offset="0.75" stop-color="#DE9173"/>
<stop offset="1" stop-color="#FAC2A9"/>
</radialGradient>
<radialGradient id="paint2_radial_4100_1531" cx="0" cy="0" r="1" gradientUnits="userSpaceOnUse" gradientTransform="translate(29.0613 14.7014) scale(9.77826 9.81418)">
<stop offset="0.5" stop-color="#FAC2A9"/>
<stop offset="0.75" stop-color="#DE9173"/>
<stop offset="1" stop-color="#BB6E5A"/>
</radialGradient>
<radialGradient id="paint3_radial_4100_1531" cx="0" cy="0" r="1" gradientUnits="userSpaceOnUse" gradientTransform="translate(22.4253 14.7024) scale(9.78513 9.82942)">
<stop offset="0.5" stop-color="#FAC2A9"/>
<stop offset="0.75" stop-color="#DE9173"/>
<stop offset="1" stop-color="#BB6E5A"/>
</radialGradient>
</defs>
</svg>
