<svg width="15" height="15" viewBox="0 0 15 15" fill="none" xmlns="http://www.w3.org/2000/svg">
<g clip-path="url(#clip0_2533_8413)">
<path d="M5.03857 7.08984H9.44092C10.045 7.08984 10.5347 6.60014 10.5347 5.99609V1.59375C10.5347 0.989699 10.045 0.5 9.44092 0.5H5.03857C4.43452 0.5 3.94482 0.989699 3.94482 1.59375V5.99609C3.94482 6.60014 4.43452 7.08984 5.03857 7.08984ZM5.56114 5.28956L6.79325 2.05452C6.82821 1.96311 6.89011 1.88448 6.97077 1.82905C7.05143 1.77362 7.14702 1.74401 7.24489 1.74414H7.24538C7.34352 1.74391 7.4394 1.77359 7.52024 1.82922C7.60108 1.88486 7.66305 1.96381 7.69789 2.05556L8.91879 5.29073C8.99877 5.50268 8.8918 5.73931 8.67989 5.81929C8.6322 5.83728 8.58325 5.84581 8.53513 5.84581C8.36937 5.84581 8.21329 5.74461 8.15133 5.58036L7.9474 5.03999H6.53398L6.32772 5.58151C6.24709 5.7932 6.01013 5.89943 5.79846 5.81882C5.58676 5.73821 5.48053 5.50125 5.56114 5.28956Z" fill="#F6F2ED"/>
<path d="M7.24371 3.17578L6.84618 4.21955H7.63759L7.24371 3.17578ZM3.91305 11.4854C3.91305 11.4854 3.26858 11.4859 3.20361 11.4861V12.4337C3.46707 12.4326 3.78295 12.4315 3.91305 12.4315C4.17391 12.4315 4.38609 12.2193 4.38609 11.9584C4.38609 11.6976 4.17391 11.4854 3.91305 11.4854Z" fill="#F6F2ED"/>
<path d="M5.99609 7.91016H1.59375C0.989699 7.91016 0.5 8.39986 0.5 9.00391V13.4062C0.5 14.0103 0.989699 14.5 1.59375 14.5H5.99609C6.60014 14.5 7.08984 14.0103 7.08984 13.4062V9.00391C7.08984 8.39986 6.60014 7.91016 5.99609 7.91016ZM3.9131 13.2519C3.67486 13.2519 2.80409 13.2558 2.79534 13.2559H2.79354C2.68476 13.2559 2.58044 13.2126 2.50352 13.1357C2.42661 13.0588 2.38339 12.9545 2.38338 12.8457V9.56445C2.38338 9.33794 2.56702 9.1543 2.79354 9.1543H3.74666C4.38913 9.1543 4.91183 9.677 4.91183 10.3195C4.91201 10.5441 4.84685 10.764 4.72428 10.9522C5.01809 11.1895 5.20649 11.5524 5.20649 11.9586C5.20649 12.6718 4.62628 13.2519 3.9131 13.2519Z" fill="#F6F2ED"/>
<path d="M4.09146 10.3195C4.09146 10.1293 3.93675 9.97461 3.74661 9.97461H3.20361V10.6652C3.20361 10.6652 3.67532 10.6643 3.74658 10.6643C3.93675 10.6643 4.09146 10.5096 4.09146 10.3195ZM13.4062 7.91016H9.00385C8.3998 7.91016 7.9101 8.39986 7.9101 9.00391V13.4062C7.9101 14.0103 8.3998 14.5 9.00385 14.5H13.4062C14.0102 14.5 14.4999 14.0103 14.4999 13.4062V9.00391C14.4999 8.39986 14.0102 7.91016 13.4062 7.91016ZM12.8564 12.6461C12.8026 12.7103 12.7443 12.7705 12.6818 12.8262C12.3662 13.1073 11.9605 13.2559 11.5085 13.2559C10.3777 13.2559 9.45776 12.3359 9.45776 11.2051C9.45776 10.0743 10.3777 9.1543 11.5085 9.1543C11.9194 9.1543 12.316 9.27548 12.6554 9.50476C12.8432 9.63158 12.8925 9.88654 12.7657 10.0743C12.6389 10.2619 12.3839 10.3113 12.1962 10.1845C11.993 10.0472 11.7552 9.97461 11.5085 9.97461C10.8301 9.97461 10.2781 10.5266 10.2781 11.2051C10.2781 11.8836 10.8301 12.4355 11.5085 12.4355C11.7597 12.4355 11.9709 12.3609 12.1362 12.2137C12.169 12.1844 12.1996 12.1527 12.2279 12.119C12.3735 11.9454 12.6321 11.9227 12.8057 12.0683C12.9792 12.2138 13.0019 12.4725 12.8564 12.6461Z" fill="#F6F2ED"/>
</g>
<defs>
<clipPath id="clip0_2533_8413">
<rect width="14" height="14" fill="white" transform="translate(0.5 0.5)"/>
</clipPath>
</defs>
</svg>
