<svg width="16" height="16" viewBox="0 0 16 16" fill="none" xmlns="http://www.w3.org/2000/svg">
<g clip-path="url(#clip0_4843_2015)">
<path d="M9.32841 3.16016L12.8586 6.66258C12.7568 6.76967 12.6566 6.8848 12.5494 6.99189C10.0845 9.44964 7.61958 11.9067 5.15466 14.363C4.80301 14.7137 4.3695 14.9713 3.89327 15.1126C2.92302 15.4054 1.94938 15.6879 0.972342 15.9603C0.325033 16.1391 -0.139014 15.6679 0.044247 15.0189C0.358256 13.9095 0.673873 12.7995 1.02432 11.6991C1.10952 11.4314 1.29653 11.1738 1.49748 10.9714C4.03813 8.41299 6.5861 5.85975 9.1414 3.31169C9.20071 3.25756 9.26316 3.20696 9.32841 3.16016Z" fill="#FDF7F0"/>
<path d="M13.7228 5.79432L10.207 2.37382C10.2344 2.33385 10.2639 2.29542 10.2954 2.2587C10.8592 1.67933 11.4068 1.08069 11.9936 0.527563C12.6875 -0.129443 13.6992 -0.180311 14.4494 0.420472C14.876 0.764147 15.2639 1.15322 15.6063 1.58081C16.1636 2.2769 16.1196 3.28838 15.5527 3.97323C15.3876 4.16596 15.2127 4.35004 15.0286 4.52475C14.5855 4.95954 14.1386 5.39059 13.7228 5.79432Z" fill="#FDF7F0"/>
</g>
<defs>
<clipPath id="clip0_4843_2015">
<rect width="16" height="16" fill="white"/>
</clipPath>
</defs>
</svg>
