<svg width="38" height="38" viewBox="0 0 38 38" fill="none" xmlns="http://www.w3.org/2000/svg">
<circle cx="19" cy="19" r="19" fill="#F7F2EC"/>
<circle cx="18.9981" cy="19" r="16.0098" fill="#F7F2EC" stroke="#2D6759" stroke-width="3"/>
<circle cx="18.9992" cy="19" r="13.2843" fill="#F7F2EC" stroke="#2D6759" stroke-dasharray="1 1"/>
<g clip-path="url(#clip0_6556_11161)">
<path d="M18.3717 11H20.6293C20.8203 11.0998 20.9667 11.268 21.0391 11.4709C21.1433 11.7154 21.262 11.9491 21.3986 12.1899C21.43 12.2498 21.4825 12.2959 21.5459 12.3193C22.1619 12.4991 22.7544 12.7514 23.311 13.0706C23.3723 13.0942 23.4402 13.0942 23.5015 13.0706C23.728 12.9664 23.9437 12.8478 24.1702 12.7399C24.2747 12.6743 24.3995 12.6491 24.5213 12.6689C24.643 12.6888 24.7534 12.7524 24.8316 12.8478C25.2726 13.2864 25.7148 13.7285 26.1581 14.1743C26.2566 14.2536 26.3222 14.3666 26.3421 14.4915C26.362 14.6163 26.3349 14.7441 26.266 14.8501C26.1617 15.0658 26.0431 15.2815 25.946 15.5043C25.9319 15.5366 25.9246 15.5715 25.9246 15.6068C25.9246 15.642 25.9319 15.677 25.946 15.7093C26.294 16.3051 26.5577 16.9463 26.7297 17.6146C26.7381 17.6572 26.759 17.6963 26.7898 17.727C26.8205 17.7577 26.8596 17.7787 26.9023 17.7871C27.1108 17.8446 27.3121 17.92 27.517 17.9812C27.6286 18.0013 27.7327 18.0511 27.8187 18.125C27.9046 18.1989 27.9692 18.2945 28.0059 18.4018V20.5946C27.9695 20.7024 27.905 20.7985 27.819 20.8731C27.7331 20.9476 27.6288 20.998 27.517 21.0189C27.3039 21.0763 27.0939 21.1446 26.8879 21.2237C26.8546 21.2363 26.8245 21.2561 26.7997 21.2815C26.7749 21.307 26.7559 21.3376 26.7441 21.3711C26.5717 21.9836 26.3305 22.5745 26.0251 23.1326C25.9999 23.2023 25.9999 23.2786 26.0251 23.3483C26.1114 23.6287 26.1977 23.9054 26.3019 24.1823C26.3503 24.2945 26.3614 24.4194 26.3336 24.5385C26.3057 24.6575 26.2405 24.7645 26.1473 24.8437C25.716 25.2715 25.2846 25.6993 24.8568 26.1343C24.7788 26.2247 24.6741 26.288 24.5578 26.3151C24.4416 26.3422 24.3197 26.3318 24.2097 26.2853C23.9293 26.181 23.6453 26.0911 23.3577 26.0049C23.2872 25.9852 23.2119 25.9916 23.1457 26.0229C22.5933 26.3299 22.007 26.5712 21.3986 26.7418C21.363 26.7553 21.3306 26.776 21.3034 26.8026C21.2761 26.8292 21.2547 26.8611 21.2404 26.8964C21.1541 27.13 21.0858 27.3709 21.0067 27.6153C20.9793 27.7383 20.9079 27.8471 20.806 27.9212C20.704 27.9953 20.5786 28.0298 20.4531 28.018C19.8312 28.018 19.2129 28.018 18.591 28.018C18.4629 28.0315 18.3344 27.997 18.2302 27.9214C18.1259 27.8457 18.0534 27.7341 18.0266 27.6081C17.9475 27.3709 17.8792 27.13 17.7929 26.8892C17.7799 26.8562 17.76 26.8263 17.7346 26.8015C17.7092 26.7767 17.6789 26.7576 17.6456 26.7454C17.0329 26.5737 16.4419 26.3325 15.8841 26.0264C15.8216 25.9953 15.7497 25.9889 15.6828 26.0085C15.3952 26.0983 15.104 26.1918 14.82 26.2925C14.712 26.3385 14.5922 26.3491 14.4778 26.3226C14.3634 26.2961 14.2604 26.234 14.1837 26.1451C13.7523 25.7089 13.3186 25.2751 12.8824 24.8437C12.7935 24.7678 12.7308 24.6659 12.703 24.5524C12.6753 24.4388 12.684 24.3194 12.7278 24.211C12.8249 23.9342 12.9219 23.6574 13.0046 23.377C13.0299 23.2911 13.0222 23.1988 12.983 23.1182C12.7169 22.621 12.5014 22.0983 12.3396 21.5581C12.3132 21.4833 12.2592 21.4216 12.1886 21.3855C11.9154 21.2417 11.635 21.1087 11.3546 20.9757C11.249 20.9323 11.1596 20.857 11.099 20.7603C11.0384 20.6636 11.0096 20.5504 11.0167 20.4365C11.0167 19.8181 11.0167 19.1999 11.0167 18.578C11.0106 18.46 11.0421 18.3431 11.1067 18.2443C11.1713 18.1454 11.2657 18.0697 11.3762 18.0279C11.6518 17.9033 11.925 17.7703 12.1958 17.6289C12.2656 17.5925 12.3203 17.5327 12.3503 17.4599C12.5271 16.8485 12.7769 16.2608 13.0945 15.7093C13.107 15.6791 13.1135 15.6467 13.1135 15.614C13.1135 15.5813 13.107 15.5489 13.0945 15.5187C12.9902 15.2923 12.8716 15.0729 12.7638 14.8501C12.6971 14.7452 12.6713 14.6197 12.6912 14.4971C12.7111 14.3745 12.7753 14.2635 12.8716 14.1851C13.3102 13.7393 13.7523 13.3007 14.1981 12.8585C14.2769 12.7593 14.39 12.6933 14.5151 12.6733C14.6401 12.6534 14.7682 12.681 14.8739 12.7507C15.0932 12.8586 15.3053 12.9736 15.5282 13.0742C15.5582 13.0876 15.5906 13.0945 15.6235 13.0945C15.6563 13.0945 15.6887 13.0876 15.7187 13.0742C16.2753 12.755 16.8678 12.5027 17.4838 12.3229C17.5489 12.3009 17.6031 12.2545 17.6348 12.1935C17.757 11.9598 17.8792 11.7226 17.9942 11.4745C18.0567 11.2749 18.1913 11.1058 18.3717 11ZM24.979 19.5019C24.9743 18.05 24.3957 16.6588 23.3694 15.6319C22.3431 14.6049 20.9524 14.0254 19.5005 14.0197C18.0511 14.0254 16.6625 14.6029 15.6366 15.6268C14.6107 16.6506 14.0305 18.0381 14.0219 19.4875C14.0248 20.9393 14.6016 22.3311 15.6265 23.3595C16.6515 24.3878 18.0414 24.9692 19.4933 24.9768C20.9427 24.9692 22.3305 24.3899 23.355 23.3646C24.3796 22.3394 24.958 20.9512 24.9646 19.5019H24.979Z" fill="#2D6759"/>
<path d="M19.5101 20.9865C18.8508 20.9818 18.2197 20.7186 17.7524 20.2534C17.2852 19.7881 17.0192 19.1581 17.0117 18.4989C17.0183 17.8402 17.2828 17.2103 17.7486 16.7445C18.2144 16.2787 18.8443 16.0141 19.5029 16.0076C20.1609 16.0085 20.7918 16.2693 21.2584 16.7332C21.725 17.1971 21.9894 17.8265 21.9942 18.4845C21.9905 19.1438 21.7281 19.7753 21.2636 20.2432C20.799 20.7111 20.1694 20.978 19.5101 20.9865Z" fill="#2D6759"/>
<path d="M17.0569 21.0225C18.6854 22.3202 20.2923 22.3202 21.9279 21.0225C22.325 21.4129 22.6211 21.894 22.7907 22.4244C22.7923 22.447 22.789 22.4696 22.7809 22.4907C22.7728 22.5118 22.7602 22.531 22.744 22.5467C22.0841 23.2739 21.1969 23.7554 20.2276 23.9126C19.5092 24.0382 18.7708 23.9816 18.08 23.748C17.3892 23.5144 16.768 23.1112 16.2732 22.5754C16.2425 22.5498 16.2209 22.515 16.2118 22.476C16.2027 22.4371 16.2066 22.3963 16.2229 22.3597C16.3999 21.8584 16.6845 21.4019 17.0569 21.0225Z" fill="#2D6759"/>
</g>
<defs>
<clipPath id="clip0_6556_11161">
<rect width="17" height="17" fill="white" transform="translate(11 11)"/>
</clipPath>
</defs>
</svg>
