<svg xmlns="http://www.w3.org/2000/svg" width="278.027" height="214.833" viewBox="0 0 278.027 214.833">
  <g id="illustration" transform="translate(-51.999 -393)">
    <g id="background" transform="translate(0.063 170.001)">
      <circle id="Ellipse_1999" data-name="Ellipse 1999" cx="100.777" cy="100.777" r="100.777" transform="translate(83.279 222.999)" fill="#073b36" opacity="0.26"/>
      <path id="Path_25534" data-name="Path 25534" d="M122.53,21.4a5.9,5.9,0,1,0-5.9-5.9A5.9,5.9,0,0,0,122.53,21.4Z" transform="translate(189.572 307.115)" fill="#073b36" opacity="0.2"/>
      <g id="Group_41131" data-name="Group 41131" transform="translate(57.255 62.5)">
        <g id="Group_40642" data-name="Group 40642" transform="translate(47.898 362.053)">
          <g id="Group_40641" data-name="Group 40641">
            <rect id="Rectangle_7701" data-name="Rectangle 7701" width="1.822" height="3.536" fill="#508b82"/>
          </g>
        </g>
        <g id="Group_40644" data-name="Group 40644" transform="translate(47.898 371.796)">
          <g id="Group_40643" data-name="Group 40643" transform="translate(0 0)">
            <rect id="Rectangle_7702" data-name="Rectangle 7702" width="1.822" height="3.536" fill="#508b82"/>
          </g>
        </g>
        <g id="Group_40646" data-name="Group 40646" transform="translate(51.913 367.782)">
          <g id="Group_40645" data-name="Group 40645">
            <rect id="Rectangle_7703" data-name="Rectangle 7703" width="3.536" height="1.822" fill="#508b82"/>
          </g>
        </g>
        <g id="Group_40648" data-name="Group 40648" transform="translate(42.17 367.782)">
          <g id="Group_40647" data-name="Group 40647">
            <rect id="Rectangle_7704" data-name="Rectangle 7704" width="3.536" height="1.822" fill="#508b82"/>
          </g>
        </g>
      </g>
      <g id="Group_40650" data-name="Group 40650" transform="translate(51.937 266.141)">
        <g id="Group_40649" data-name="Group 40649">
          <circle id="Ellipse_2034" data-name="Ellipse 2034" cx="3.612" cy="3.612" r="3.612" fill="#508b82"/>
        </g>
      </g>
      <g id="Group_40652" data-name="Group 40652" transform="translate(65.527 320.894)">
        <g id="Group_40651" data-name="Group 40651">
          <circle id="Ellipse_2035" data-name="Ellipse 2035" cx="2.865" cy="2.865" r="2.865" fill="#508b82"/>
        </g>
      </g>
      <g id="Group_40656" data-name="Group 40656" transform="translate(323.563 331.07)">
        <g id="Group_40655" data-name="Group 40655">
          <circle id="Ellipse_2037" data-name="Ellipse 2037" cx="3.201" cy="3.201" r="3.201" fill="#508b82"/>
        </g>
      </g>
      <g id="Group_41157" data-name="Group 41157" transform="translate(274.527 239.751)">
        <g id="Group_40651-2" data-name="Group 40651">
          <circle id="Ellipse_2035-2" data-name="Ellipse 2035" cx="2.865" cy="2.865" r="2.865" fill="#508b82"/>
        </g>
      </g>
    </g>
    <g id="CLOUD_MINING" data-name="CLOUD MINING" transform="translate(71.385 327.641)">
      <g id="Group_49222" data-name="Group 49222" transform="translate(49.226 168.129)">
        <g id="Group_49221" data-name="Group 49221">
          <path id="Path_205193" data-name="Path 205193" d="M104.313,250.5v47.2l2.31,1.886c.686.034,1.385.055,2.084.055h2.674V256.893H163.54V250.5Z" transform="translate(-104.313 -250.503)" fill="#f2ede6"/>
        </g>
      </g>
      <g id="Group_49224" data-name="Group 49224" transform="translate(5.574 114.449)">
        <g id="Group_49223" data-name="Group 49223">
          <rect id="Rectangle_9321" data-name="Rectangle 9321" width="2.057" height="3.516" fill="#f2ede6"/>
        </g>
      </g>
      <g id="Group_49226" data-name="Group 49226" transform="translate(5.574 124.138)">
        <g id="Group_49225" data-name="Group 49225">
          <rect id="Rectangle_9322" data-name="Rectangle 9322" width="2.057" height="3.517" fill="#f2ede6"/>
        </g>
      </g>
      <g id="Group_49228" data-name="Group 49228" transform="translate(9.688 120.023)">
        <g id="Group_49227" data-name="Group 49227">
          <rect id="Rectangle_9323" data-name="Rectangle 9323" width="3.517" height="2.057" fill="#f2ede6"/>
        </g>
      </g>
      <g id="Group_49230" data-name="Group 49230" transform="translate(0 120.024)">
        <g id="Group_49229" data-name="Group 49229">
          <rect id="Rectangle_9324" data-name="Rectangle 9324" width="3.516" height="2.057" fill="#f2ede6"/>
        </g>
      </g>
      <g id="Group_49232" data-name="Group 49232" transform="translate(136.481 227.019)">
        <g id="Group_49231" data-name="Group 49231">
          <rect id="Rectangle_9325" data-name="Rectangle 9325" width="2.057" height="3.517" fill="#f2ede6"/>
        </g>
      </g>
      <g id="Group_49234" data-name="Group 49234" transform="translate(136.481 236.707)">
        <g id="Group_49233" data-name="Group 49233">
          <rect id="Rectangle_9326" data-name="Rectangle 9326" width="2.057" height="3.517" fill="#f2ede6"/>
        </g>
      </g>
      <g id="Group_49236" data-name="Group 49236" transform="translate(140.596 232.593)">
        <g id="Group_49235" data-name="Group 49235">
          <rect id="Rectangle_9327" data-name="Rectangle 9327" width="3.517" height="2.057" fill="#f2ede6"/>
        </g>
      </g>
      <g id="Group_49238" data-name="Group 49238" transform="translate(130.907 232.593)">
        <g id="Group_49237" data-name="Group 49237">
          <rect id="Rectangle_9328" data-name="Rectangle 9328" width="3.517" height="2.057" fill="#f2ede6"/>
        </g>
      </g>
      <g id="Group_49240" data-name="Group 49240" transform="translate(11.741 221.378)">
        <g id="Group_49239" data-name="Group 49239">
          <circle id="Ellipse_3136" data-name="Ellipse 3136" cx="1.724" cy="1.724" r="1.724" fill="#f2ede6"/>
        </g>
      </g>
      <g id="Group_49242" data-name="Group 49242" transform="translate(42.72 104.094)">
        <g id="Group_49241" data-name="Group 49241">
          <circle id="Ellipse_3137" data-name="Ellipse 3137" cx="6.427" cy="6.427" r="6.427" fill="#f2ede6"/>
        </g>
      </g>
      <g id="Group_49244" data-name="Group 49244" transform="translate(233.619 144.396)">
        <g id="Group_49243" data-name="Group 49243">
          <circle id="Ellipse_3138" data-name="Ellipse 3138" cx="3.998" cy="3.998" r="3.998" fill="#f2ede6"/>
        </g>
      </g>
      <g id="Group_49247" data-name="Group 49247" transform="translate(12.434 104.542)">
        <g id="Group_49246" data-name="Group 49246">
          <g id="Group_49245" data-name="Group 49245">
            <path id="Path_205194" data-name="Path 205194" d="M226.524,196.967a28.594,28.594,0,0,0-27.661-27.482c.791-3.256-.249-5.62-.867-8.388-.105-.47-5.535-15.887-8.626-19.414a57.93,57.93,0,0,0-100.775,7.493,4.874,4.874,0,0,1-6.307,2.394,40.51,40.51,0,0,0-55.935,37.993c.289,22.03,18.717,39.953,41.08,39.953H70.21a1.029,1.029,0,0,0,1.028-1.028V186.764h57.176v41.723a1.029,1.029,0,0,0,1.028,1.028h64.1c9.375,0,18.6-3.723,24.668-9.96C223.889,213.715,226.765,205.905,226.524,196.967Zm-9.791,21.151c-5.692,5.847-14.363,9.339-23.195,9.339H130.472V185.734a1.029,1.029,0,0,0-1.028-1.028H70.21a1.029,1.029,0,0,0-1.028,1.028v41.723H67.433c-21.244,0-38.75-17.012-39.023-37.923A38.456,38.456,0,0,1,81.5,153.47a6.929,6.929,0,0,0,8.955-3.424,55.873,55.873,0,0,1,96.27-8.584,183.641,183.641,0,0,1,9.061,20.792c2.536,7.274.927,5.5,1.084,8.3a1.028,1.028,0,0,0,1.027.971h.1a26.525,26.525,0,0,1,26.473,25.494C224.694,205.392,222.019,212.688,216.733,218.118Z" transform="translate(-26.348 -115.757)" fill="#f2ede6"/>
          </g>
        </g>
      </g>
      <g id="Group_49250" data-name="Group 49250" transform="translate(7.678 94.52)">
        <g id="Group_49249" data-name="Group 49249">
          <g id="Group_49248" data-name="Group 49248">
            <path id="Path_205195" data-name="Path 205195" d="M27.149,140.24l1.505,1.4c.454-.488.927-.97,1.4-1.431l-1.432-1.477C28.124,139.22,27.628,139.727,27.149,140.24Zm3.027-2.935,1.355,1.548c.5-.441,1.021-.871,1.541-1.28L31.8,135.957C31.252,136.388,30.705,136.842,30.176,137.306Zm-7.867,51.77q.326.526.667,1.041l1.714-1.137q-.323-.488-.632-.987Zm30.76-61.629.186,2.049c.661-.06,1.333-.1,2-.128l-.077-2.056C54.474,127.338,53.766,127.383,53.069,127.447Zm-19.581,7.248,1.189,1.68c.542-.384,1.1-.76,1.664-1.116l-1.1-1.739C34.65,133.895,34.06,134.29,33.488,134.694Zm-9.05,8.777,1.642,1.239c.4-.528.819-1.055,1.248-1.566l-1.576-1.322C25.3,142.36,24.859,142.915,24.439,143.472ZM44.8,129.093l.613,1.963c.634-.2,1.282-.381,1.925-.545l-.508-1.994C46.157,128.691,45.473,128.884,44.8,129.093Zm4.09-1.042.4,2.016c.648-.128,1.312-.242,1.973-.338l-.294-2.035C50.276,127.795,49.577,127.915,48.893,128.051Zm-8.054,2.511.817,1.888c.612-.264,1.237-.516,1.86-.747l-.714-1.928C42.145,130.019,41.485,130.284,40.84,130.562Zm-3.783,1.875,1.007,1.793c.582-.327,1.179-.642,1.773-.937l-.913-1.843C38.3,131.761,37.67,132.092,37.057,132.437ZM22.075,146.96l1.76,1.065c.345-.57.708-1.137,1.08-1.686l-1.7-1.153C22.821,145.763,22.438,146.361,22.075,146.96Zm.054,37.523-1.852.895c.3.625.627,1.256.967,1.875l1.8-.99C22.724,185.675,22.416,185.077,22.129,184.483Zm-3.215-23.432-2.025-.363c-.123.686-.23,1.388-.317,2.086l2.041.256C18.7,162.368,18.8,161.7,18.915,161.051Zm.913-3.9-1.975-.574c-.2.674-.376,1.361-.536,2.041l2,.469C19.47,158.444,19.641,157.793,19.827,157.154Zm1.315-3.773-1.9-.778c-.267.652-.517,1.315-.745,1.971l1.943.675C20.651,154.628,20.889,154,21.142,153.381Zm1.7-3.618-1.814-.971c-.331.619-.65,1.252-.947,1.882l1.861.876C22.228,150.952,22.531,150.351,22.846,149.763Zm-4.428,15.258-2.052-.147c-.051.7-.083,1.413-.1,2.109l2.057.038C18.339,166.361,18.37,165.688,18.418,165.021Zm1,11.933-2,.49c.167.678.353,1.363.556,2.035l1.97-.592C19.757,178.249,19.579,177.6,19.421,176.954Zm-1.083-7.928-2.056.066c.022.7.064,1.413.121,2.107l2.05-.171C18.4,170.369,18.36,169.7,18.338,169.027Zm2.239,11.763-1.935.7c.237.659.5,1.32.767,1.966l1.9-.8C21.047,182.044,20.8,181.416,20.577,180.79Zm-1.9-7.771-2.038.278c.094.693.209,1.394.339,2.083L19,175C18.872,174.343,18.763,173.677,18.673,173.019Zm78.9-67.887,1.188,1.68q.825-.583,1.671-1.138l-1.127-1.721Q98.43,104.528,97.575,105.132Zm3.5-2.3,1.063,1.761q.866-.523,1.749-1.015l-1-1.8Q101.976,102.295,101.08,102.836Zm3.662-2.036.935,1.832q.9-.458,1.817-.885l-.866-1.865Q105.676,100.324,104.742,100.8Zm3.8-1.766.8,1.9q.931-.391,1.879-.751l-.729-1.923Q109.51,98.627,108.545,99.033ZM57.256,129.341c.673.009,1.348.035,2,.077l.131-2.053c-.69-.044-1.4-.071-2.107-.081ZM128.9,94.557l.075,2.056q1-.036,2.019-.036V94.52Q129.944,94.52,128.9,94.557Zm-12.413,1.795L117,98.343q.978-.252,1.968-.47l-.439-2.009Q117.5,96.09,116.488,96.352Zm8.237-1.5.222,2.045q1-.108,2.01-.18l-.146-2.052Q125.763,94.744,124.726,94.856Zm-12.26,2.692.659,1.948q.957-.323,1.928-.612l-.587-1.971Q113.459,97.213,112.465,97.548Zm8.117-2.094.367,2.024q.992-.179,1.994-.325l-.294-2.035Q121.611,95.267,120.583,95.454ZM91.11,110.448l1.417,1.49q.733-.7,1.489-1.365l-1.362-1.541Q91.87,109.726,91.11,110.448Zm3.138-2.775,1.306,1.589q.78-.641,1.584-1.255l-1.25-1.634Q95.056,107.01,94.248,107.673ZM69.058,131.349c.629.212,1.261.445,1.879.689l.759-1.911c-.652-.259-1.318-.5-1.981-.727Zm4.358-.689-.278,2.038a7.134,7.134,0,0,0,.96.066,7.047,7.047,0,0,0,1.435-.148l-.42-2.014A4.955,4.955,0,0,1,73.417,130.66Zm-8.216-.392c.652.146,1.306.311,1.942.489l.554-1.981c-.672-.188-1.36-.361-2.046-.516Zm-3.947-.67c.664.077,1.331.173,1.982.283l.345-2.027c-.687-.117-1.389-.218-2.089-.3Zm15.43.38,1.081,1.75a6.822,6.822,0,0,0,1.8-1.6l-1.619-1.268A4.779,4.779,0,0,1,76.684,129.978Zm8.791-13.347,1.615,1.274q.626-.794,1.279-1.564l-1.57-1.33Q86.123,115.81,85.475,116.632Zm2.7-3.193,1.52,1.386q.682-.748,1.387-1.469l-1.469-1.44Q88.887,112.664,88.18,113.439Zm-5.174,6.572,1.7,1.153q.566-.837,1.162-1.651L84.21,118.3Q83.594,119.143,83.006,120.01Zm-2.219,3.544,1.781,1.028q.505-.875,1.04-1.73l-1.744-1.092Q81.309,122.648,80.787,123.555Zm-1.957,3.7,1.851.9q.441-.91.913-1.8l-1.819-.963Q79.287,126.31,78.829,127.254Z" transform="translate(-16.27 -94.52)" fill="#f2ede6"/>
          </g>
        </g>
      </g>
      <g id="Group_49262" data-name="Group 49262" transform="translate(55.27 173.493)">
        <g id="Group_49261" data-name="Group 49261">
          <g id="Group_49260" data-name="Group 49260">
            <path id="Path_205198" data-name="Path 205198" d="M177.377,261.87H118.149a1.029,1.029,0,0,0-1.028,1.028v47.2a1.028,1.028,0,0,0,.378.8l29.614,24.179a1.028,1.028,0,0,0,1.3,0l29.614-24.179a1.028,1.028,0,0,0,.378-.8V262.9A1.03,1.03,0,0,0,177.377,261.87Zm-1.028,47.737-28.585,23.34-28.586-23.34v-45.68h57.171v45.68Z" transform="translate(-117.121 -261.87)" fill="#f2ede6"/>
          </g>
        </g>
      </g>
      <g id="Group_49264" data-name="Group 49264" transform="translate(84.592 196.57)">
        <g id="Group_49263" data-name="Group 49263">
          <path id="Path_205199" data-name="Path 205199" d="M183.1,310.772h-3.846v6.912H183.1a3.456,3.456,0,1,0,0-6.912Z" transform="translate(-179.257 -310.772)" fill="#f2ede6"/>
        </g>
      </g>
      <g id="Group_49266" data-name="Group 49266" transform="translate(84.592 207.04)">
        <g id="Group_49265" data-name="Group 49265">
          <path id="Path_205200" data-name="Path 205200" d="M184.681,332.958h-5.424v7.481h5.424a3.74,3.74,0,0,0,0-7.481Z" transform="translate(-179.257 -332.958)" fill="#f2ede6"/>
        </g>
      </g>
      <g id="Group_49269" data-name="Group 49269" transform="translate(59.723 177.948)">
        <g id="Group_49268" data-name="Group 49268">
          <g id="Group_49267" data-name="Group 49267">
            <path id="Path_205201" data-name="Path 205201" d="M126.558,271.309v41.914l26.185,21.941,26.192-21.941V271.309Zm39.062,38.472a7.14,7.14,0,0,1-5.067,2.1h-3.435v5.609h-3.483v-5.609h-2.208v5.609h-3.49v-5.554h-7.09v-3.764h2.619a1.409,1.409,0,0,0,1.618-1.584v-15.3a1.409,1.409,0,0,0-1.618-1.584h-2.619v-3.764h7.09v-5.616h3.49v5.616h2.2v-5.616h3.49v5.616h2.441a5.852,5.852,0,0,1,4.134,10,5.779,5.779,0,0,1-3.058,1.618,7.166,7.166,0,0,1,4.984,12.232Z" transform="translate(-126.558 -271.309)" fill="#f2ede6"/>
          </g>
        </g>
      </g>
      <g id="Group_49272" data-name="Group 49272" transform="translate(62.126 180.35)">
        <g id="Group_49271" data-name="Group 49271">
          <g id="Group_49270" data-name="Group 49270">
            <path id="Path_205202" data-name="Path 205202" d="M133.706,305.744h-2.057V307.8h2.057Zm0,4.114h-2.057v2.057h2.057Zm0-8.228h-2.057v2.057h2.057ZM131.9,313.653a6.15,6.15,0,0,0,1.145,2.168l1.592-1.3a4.089,4.089,0,0,1-.764-1.445Zm2.8,3.692,1.577,1.32,1.32-1.578-1.577-1.32Zm3.154,2.641,1.577,1.321,1.32-1.576-1.577-1.321Zm1.627-43.587h-1.653c-.163,0-.323.005-.482.017l.157,2.051c.1-.009.208-.008.32-.012h1.659V276.4Zm-3.548,2.516-.947-1.827a6.158,6.158,0,0,0-1.908,1.537l1.581,1.315A4.106,4.106,0,0,1,135.928,278.915ZM133.706,293.4h-2.057v2.057h2.057Zm0-10.836a4.092,4.092,0,0,1,.174-1.187l-1.97-.593a6.177,6.177,0,0,0-.261,1.781v.551h2.057v-.551Zm18.111-6.167H149.76v2.057h2.057Zm16.456,0h-2.057v2.057h2.057Zm-8.228,0h-2.057v2.057h2.057Zm-26.339,12.889h-2.057v2.057h2.057Zm43.438-7.132,2.046-.2a6.113,6.113,0,0,0-.724-2.343l-1.805.987A4.067,4.067,0,0,1,177.144,282.156Zm-.259-4.421a6.118,6.118,0,0,0-2.185-1.113l-.549,1.982a4.076,4.076,0,0,1,1.455.742ZM141,322.63l1.577,1.32,1.32-1.578-1.577-1.32Zm6.7-46.231h-2.057v2.057H147.7Zm-14,8.775h-2.057v2.057h2.057Zm9.883-8.775h-2.057v2.057h2.057Zm-9.883,21.117h-2.057v2.057h2.057Zm43.458,13.334h2.057v-2.057h-2.057Zm0-4.114h2.057v-2.057h-2.057Zm-3.521,10.047,1.322,1.576,1.576-1.321-1.322-1.576Zm2.819-2.571,1.7,1.151a6.119,6.119,0,0,0,.94-2.266l-2.019-.394A4.072,4.072,0,0,1,176.462,314.212Zm.7-11.59h2.057v-2.057h-2.057Zm0-8.228h2.057v-2.057h-2.057Zm0-10.285v2.057h2.057v-2.057Zm0,14.4h2.057v-2.057h-2.057Zm0-8.228h2.057v-2.057h-2.057Zm-6.674,29.143L171.81,321l1.577-1.32-1.32-1.578Zm-26.334,5.846,1.577,1.321,1.32-1.576-1.577-1.321Zm10.649,5.466-.313,2.033a6.178,6.178,0,0,0,2.448-.114l-.5-2A4.107,4.107,0,0,1,154.8,330.736ZM172.387,276.4H170.33v2.057h2.057ZM147.31,327.913l1.577,1.32,1.32-1.578-1.577-1.32Zm10.764,1.913c-.052.043-.1.086-.158.126l1.232,1.647c.084-.063.168-.129.248-.2l1.378-1.154-1.32-1.576Zm-6.29-.849-1.32,1.576,1.012.849a6.3,6.3,0,0,0,.714.516l1.084-1.747a4.322,4.322,0,0,1-.479-.345Zm4.147-52.579h-2.057v2.057h2.057Zm5.1,50.952,1.32,1.576,1.577-1.321-1.32-1.576Zm3.153-2.643,1.32,1.578,1.577-1.32-1.32-1.578Zm3.153-2.641,1.32,1.576,1.577-1.321-1.32-1.576ZM162.1,278.456h2.057V276.4H162.1Z" transform="translate(-131.649 -276.399)" fill="#f2ede6"/>
          </g>
        </g>
      </g>
      <g id="Group_49281" data-name="Group 49281" transform="translate(178.851 158.116)">
        <g id="Group_49280" data-name="Group 49280">
          <g id="Group_49279" data-name="Group 49279">
            <path id="Path_205206" data-name="Path 205206" d="M379,290.008q.425.166.852.321l.7-1.934q-.4-.147-.806-.3Zm36.6-52.394,1.651-1.228c-.429-.577-.878-1.136-1.335-1.663l-1.555,1.346C414.786,236.558,415.2,237.078,415.6,237.614Zm-33.735,53.373c.679.2,1.372.377,2.059.529l.443-2.009c-.642-.142-1.29-.308-1.925-.494Zm32.587-57.825c-.514-.5-1.049-.987-1.587-1.435l-1.315,1.581c.5.412.988.857,1.461,1.322ZM390.7,290.2l-.418,0-.028,2.057.446,0c.56,0,1.126-.016,1.68-.045l-.112-2.054Q391.485,290.2,390.7,290.2Zm-4.683,1.7c.7.106,1.41.189,2.112.248l.17-2.05c-.655-.054-1.32-.132-1.973-.232Zm8.229-1.921.251,2.042c.7-.086,1.4-.2,2.1-.331l-.39-2.019C395.552,289.8,394.894,289.9,394.244,289.984Zm27.609-33.722,2.056-.083c-.028-.7-.076-1.4-.144-2.108l-2.048.2C421.78,254.933,421.827,255.6,421.853,256.262Zm-4.119-15.3,1.805-.986c-.342-.626-.705-1.242-1.079-1.831l-1.736,1.1C417.074,239.8,417.413,240.373,417.734,240.959Zm3.739,11.323,2.033-.31c-.107-.7-.232-1.4-.372-2.079l-2.014.418C421.252,250.952,421.372,251.615,421.473,252.281Zm-2.056-7.712,1.914-.754c-.261-.662-.542-1.318-.834-1.947l-1.865.868C418.908,243.328,419.171,243.946,419.418,244.57Zm1.242,3.794,1.989-.528c-.181-.678-.382-1.361-.6-2.028l-1.955.639C420.3,247.077,420.49,247.723,420.66,248.364Zm-.411,19.7,1.954.641c.22-.671.422-1.354.6-2.033l-1.99-.52C420.645,266.787,420.456,267.43,420.249,268.061Zm-3.387,7.211,1.742,1.093c.376-.6.737-1.215,1.074-1.829l-1.805-.987C417.556,274.128,417.216,274.707,416.862,275.272Zm-18.724,13.962.524,1.989c.676-.178,1.361-.382,2.033-.609l-.654-1.95C399.411,288.876,398.77,289.068,398.138,289.234Zm23.12-25.027,2.018.4c.136-.689.252-1.392.347-2.089l-2.038-.276C421.495,262.9,421.385,263.559,421.257,264.208Zm.622-5.945c-.01.676-.04,1.346-.089,1.994l2.052.154c.051-.689.083-1.4.094-2.116Zm-7.34,20.251,1.6,1.3c.442-.544.875-1.111,1.287-1.686l-1.672-1.2C415.364,277.468,414.956,278,414.54,278.514Zm4.237-6.744,1.863.873c.3-.642.585-1.3.842-1.947l-1.911-.759C419.327,270.547,419.06,271.165,418.776,271.77Zm-6.935,9.682,1.426,1.482c.507-.488,1.006-1,1.483-1.518l-1.516-1.391C412.787,280.513,412.318,280.993,411.841,281.452Zm-6.363,4.771,1.018,1.788c.612-.349,1.221-.722,1.81-1.109l-1.13-1.718C406.623,285.546,406.052,285.9,405.479,286.223Zm-3.575,1.746.782,1.9c.647-.266,1.3-.558,1.936-.87l-.9-1.848C403.121,287.446,402.51,287.72,401.9,287.969Zm9.255-57.541c-.591-.41-1.2-.794-1.818-1.143l-1.015,1.789c.562.319,1.121.67,1.663,1.045Zm-2.352,53.608,1.234,1.646c.561-.42,1.118-.866,1.657-1.325l-1.334-1.565C409.857,283.223,409.333,283.641,408.807,284.036Z" transform="translate(-378.999 -229.285)" fill="#f2ede6"/>
          </g>
        </g>
      </g>
    </g>
  </g>
</svg>
