<svg width="15" height="18" viewBox="0 0 15 18" fill="none" xmlns="http://www.w3.org/2000/svg">
<path d="M0.0105335 15.3013H1.72316C1.84555 15.3069 1.96822 15.301 2.08941 15.2836C2.31697 15.2452 2.51959 15.1221 2.65328 14.941C2.78696 14.7599 2.84091 14.5355 2.80343 14.3165C2.80278 14.1067 2.71665 13.9055 2.56349 13.7559C2.41033 13.6064 2.20232 13.5204 1.98401 13.5165C1.40698 13.4987 0.827319 13.5165 0.250295 13.5165H0.0131709V4.50634C0.0790412 4.50634 0.147549 4.50634 0.213419 4.50634C0.76673 4.50634 1.32004 4.50634 1.87071 4.50634C2.00164 4.51594 2.13315 4.4972 2.25553 4.45146C2.37791 4.40572 2.48804 4.33417 2.57781 4.24208C2.66757 4.15 2.73469 4.03971 2.77419 3.91939C2.8137 3.79906 2.82459 3.67178 2.80607 3.54687C2.80752 3.43691 2.78588 3.32779 2.74243 3.22606C2.69898 3.12432 2.63462 3.03204 2.5532 2.95475C2.47178 2.87747 2.37497 2.81676 2.26857 2.77625C2.16217 2.73574 2.04836 2.71628 1.93394 2.71902C1.36746 2.71902 0.803609 2.71902 0.237124 2.71902H0.0105335C0.0105335 2.64307 0.0105335 2.58484 0.0105335 2.52408C0.0105335 2.01775 0.0105335 1.51142 0.0105335 1.00509C-0.00344997 0.871778 0.0135901 0.737145 0.0604187 0.61094C0.107247 0.484736 0.182697 0.370097 0.2813 0.275355C0.379903 0.180613 0.499197 0.108133 0.630545 0.0631383C0.761892 0.0181433 0.901996 0.00177045 1.04074 0.0152064H13.9882C14.1253 0.00314016 14.2634 0.0202077 14.3928 0.0651779C14.5222 0.110148 14.6398 0.181915 14.7371 0.275417C14.8344 0.368919 14.9091 0.481863 14.9559 0.606212C15.0027 0.730561 15.0205 0.863272 15.0079 0.994952V17.0405C15.0079 17.6962 14.6654 18.0152 13.983 18.0152H1.02493C0.339879 18.0152 0.00526963 17.6962 0 17.0431C0 16.5367 0 16.0304 0 15.5064C0 15.4355 0.00526384 15.3823 0.0105335 15.3013ZM7.8333 8.99241C8.82662 8.73925 9.44844 7.95192 9.36413 7.07597C9.34078 6.80372 9.25335 6.54012 9.10843 6.3051C8.9635 6.07009 8.76488 5.86982 8.52758 5.71938C8.29027 5.56895 8.02046 5.47231 7.73858 5.43677C7.45669 5.40122 7.17009 5.42768 6.90042 5.51418C6.63075 5.60068 6.38507 5.74496 6.18194 5.93608C5.97881 6.1272 5.82354 6.36018 5.72788 6.61742C5.63221 6.87466 5.59865 7.14945 5.62973 7.42098C5.6608 7.69251 5.7557 7.95371 5.90725 8.18483C6.03684 8.39254 6.2102 8.57192 6.4162 8.71143C6.62221 8.85095 6.8563 8.94751 7.10345 8.99495C6.18634 9.0985 5.34009 9.52008 4.72351 10.1806C4.10693 10.8411 3.76242 11.6951 3.75461 12.5823H11.2348C11.2297 11.6858 10.8792 10.823 10.2511 10.1601C9.62301 9.4972 8.76171 9.08123 7.8333 8.99241Z" fill="#F7F2EC"/>
</svg>
