<svg xmlns="http://www.w3.org/2000/svg" width="16.37" height="25.725" viewBox="0 0 16.37 25.725">
  <path id="phoneemail" d="M-2317.494,13898.726a3.513,3.513,0,0,1-3.506-3.509v-18.71a3.508,3.508,0,0,1,3.506-3.506h9.355a3.511,3.511,0,0,1,3.509,3.506v18.71a3.516,3.516,0,0,1-3.509,3.509Zm2.927-2.923h3.505v-2.341h-3.505Zm-3.269-11.922v.31a5.337,5.337,0,0,0,5.33,5.334h.1v-1.675h-.1a3.662,3.662,0,0,1-3.656-3.659v-.31a3.348,3.348,0,0,1,3.342-3.346h1.046a2.3,2.3,0,0,1,2.3,2.3v1.88a.425.425,0,0,1-.418.419.42.42,0,0,1-.419-.419v-2.508h-1.127a2.485,2.485,0,0,0-1.371-.408,2.508,2.508,0,0,0-2.508,2.508,2.51,2.51,0,0,0,2.508,2.508,2.5,2.5,0,0,0,1.538-.537,2.069,2.069,0,0,0,1.378.527,2.094,2.094,0,0,0,2.093-2.09v-1.88a3.977,3.977,0,0,0-3.973-3.973h-1.046A5.022,5.022,0,0,0-2317.836,13883.881Zm4.221.411a.852.852,0,0,1,.848-.852.852.852,0,0,1,.851.852.85.85,0,0,1-.851.852A.85.85,0,0,1-2313.615,13884.292Z" transform="translate(2320.999 -13873.001)" fill="#2d6759"/>
</svg>
