<svg width="34" height="35" viewBox="0 0 34 35" fill="none" xmlns="http://www.w3.org/2000/svg">
<path d="M16.908 0.880859C13.5639 0.880859 10.2949 1.87249 7.51442 3.73036C4.73391 5.58824 2.56678 8.22892 1.28705 11.3185C0.00732291 14.408 -0.327508 17.8076 0.324891 21.0874C0.97729 24.3673 2.58761 27.38 4.95224 29.7446C7.31687 32.1092 10.3296 33.7196 13.6094 34.372C16.8893 35.0244 20.2889 34.6895 23.3784 33.4098C26.468 32.1301 29.1086 29.9629 30.9665 27.1824C32.8244 24.4019 33.816 21.1329 33.816 17.7888C33.8107 13.3062 32.0276 9.00866 28.8579 5.83894C25.6882 2.66922 21.3907 0.886152 16.908 0.880859Z" fill="#2F4F4F"/>
<g clip-path="url(#clip0_802_1612)">
<path d="M9.01053 24.3013H10.7232C10.8456 24.3069 10.9682 24.301 11.0894 24.2836C11.317 24.2452 11.5196 24.1221 11.6533 23.941C11.787 23.7599 11.8409 23.5355 11.8034 23.3165C11.8028 23.1067 11.7167 22.9055 11.5635 22.7559C11.4103 22.6064 11.2023 22.5204 10.984 22.5165C10.407 22.4987 9.82732 22.5165 9.25029 22.5165H9.01317V13.5063C9.07904 13.5063 9.14755 13.5063 9.21342 13.5063C9.76673 13.5063 10.32 13.5063 10.8707 13.5063C11.0016 13.5159 11.1332 13.4972 11.2555 13.4515C11.3779 13.4057 11.488 13.3342 11.5778 13.2421C11.6676 13.15 11.7347 13.0397 11.7742 12.9194C11.8137 12.7991 11.8246 12.6718 11.8061 12.5469C11.8075 12.4369 11.7859 12.3278 11.7424 12.2261C11.699 12.1243 11.6346 12.032 11.5532 11.9548C11.4718 11.8775 11.375 11.8168 11.2686 11.7763C11.1622 11.7357 11.0484 11.7163 10.9339 11.719C10.3675 11.719 9.80361 11.719 9.23712 11.719H9.01053C9.01053 11.6431 9.01053 11.5848 9.01053 11.5241C9.01053 11.0177 9.01053 10.5114 9.01053 10.0051C8.99655 9.87178 9.01359 9.73714 9.06042 9.61094C9.10725 9.48474 9.1827 9.3701 9.2813 9.27536C9.3799 9.18061 9.4992 9.10813 9.63054 9.06314C9.76189 9.01814 9.902 9.00177 10.0407 9.01521H22.9882C23.1253 9.00314 23.2634 9.02021 23.3928 9.06518C23.5222 9.11015 23.6398 9.18192 23.7371 9.27542C23.8344 9.36892 23.9091 9.48186 23.9559 9.60621C24.0027 9.73056 24.0205 9.86327 24.0079 9.99495V26.0405C24.0079 26.6962 23.6654 27.0152 22.983 27.0152H10.0249C9.33988 27.0152 9.00527 26.6962 9 26.0431C9 25.5367 9 25.0304 9 24.5064C9 24.4355 9.00526 24.3823 9.01053 24.3013ZM16.8333 17.9924C17.8266 17.7392 18.4484 16.9519 18.3641 16.076C18.3408 15.8037 18.2534 15.5401 18.1084 15.3051C17.9635 15.0701 17.7649 14.8698 17.5276 14.7194C17.2903 14.5689 17.0205 14.4723 16.7386 14.4368C16.4567 14.4012 16.1701 14.4277 15.9004 14.5142C15.6307 14.6007 15.3851 14.745 15.1819 14.9361C14.9788 15.1272 14.8235 15.3602 14.7279 15.6174C14.6322 15.8747 14.5987 16.1494 14.6297 16.421C14.6608 16.6925 14.7557 16.9537 14.9072 17.1848C15.0368 17.3925 15.2102 17.5719 15.4162 17.7114C15.6222 17.851 15.8563 17.9475 16.1035 17.9949C15.1863 18.0985 14.3401 18.5201 13.7235 19.1806C13.1069 19.8411 12.7624 20.6951 12.7546 21.5823H20.2348C20.2297 20.6858 19.8792 19.823 19.2511 19.1601C18.623 18.4972 17.7617 18.0812 16.8333 17.9924Z" fill="#F7F2EC"/>
</g>
<defs>
<clipPath id="clip0_802_1612">
<rect width="15" height="18" fill="white" transform="translate(9 9)"/>
</clipPath>
</defs>
</svg>
