<svg width="24" height="24" viewBox="0 0 24 24" fill="none" xmlns="http://www.w3.org/2000/svg">
<g clip-path="url(#clip0_3446_6234)">
<path d="M22.9689 0.000854492C16.6565 0.000854492 10.3441 0.000854492 4.03166 0.000854492C3.4081 0.000854492 3.00408 0.382331 2.99991 0.962641C2.99991 1.27707 2.99991 1.59149 2.99991 1.93135C2.30539 1.93135 1.65011 1.91517 0.996499 1.93598C0.390468 1.95525 -0.0052109 2.34982 -0.00020238 2.87619C0.00564089 3.38791 0.438041 3.78019 1.03072 3.79329C1.49901 3.80408 1.96815 3.79329 2.43728 3.79329H3.0024V8.01805H2.99406C2.32125 8.01805 1.64928 8.01112 0.976465 8.02345C0.846464 8.02465 0.718002 8.04957 0.598462 8.09675C0.478923 8.14394 0.370655 8.21247 0.279897 8.29841C0.189138 8.38435 0.117678 8.48601 0.0696084 8.59753C0.0215391 8.70905 -0.00218874 8.82823 -0.00020238 8.94825C-0.00330555 9.06597 0.0188172 9.18311 0.0648905 9.29292C0.110964 9.40273 0.180087 9.50303 0.26828 9.58811C0.356473 9.67318 0.462001 9.74135 0.578806 9.78866C0.695611 9.83597 0.821385 9.8615 0.948912 9.8638C1.63091 9.87613 2.3129 9.85917 2.99489 9.85532H3.00324V14.1356H2.99489C2.34379 14.1302 1.69351 14.1171 1.04157 14.1217C0.423016 14.1263 -0.00020238 14.507 -0.00020238 15.0403C-0.00020238 15.5736 0.443892 15.9651 1.06996 15.9713C1.71188 15.9751 2.35214 15.9713 2.98989 15.9713H2.99824V20.183C2.88805 20.1884 2.81626 20.1953 2.74781 20.1953C2.18519 20.1953 1.62257 20.1907 1.06078 20.1953C0.440554 20.2038 0.00480451 20.5853 -0.00187352 21.1116C-0.00855155 21.638 0.405491 22.0318 1.02571 22.058C1.33791 22.0711 1.65094 22.058 1.96314 22.0619H2.99824C2.99824 22.4048 2.99824 22.7015 2.99824 22.9982C2.99824 23.6147 3.40142 23.9893 4.06338 23.9893C10.3546 23.9893 16.6462 23.9893 22.938 23.9893C23.5849 23.9893 23.9965 23.6148 23.9965 23.0221C23.9965 15.6669 23.9965 8.31142 23.9965 0.955698C23.9981 0.386949 23.5874 0.000854492 22.9689 0.000854492ZM13.5186 4.61018C14.2997 4.61307 15.0623 4.82949 15.7103 5.23213C16.3582 5.63476 16.8624 6.20558 17.1594 6.87253C17.4563 7.53949 17.5326 8.27268 17.3786 8.97961C17.2246 9.68654 16.8472 10.3355 16.2941 10.8447C15.741 11.3538 15.037 11.7003 14.2708 11.8403C13.5046 11.9804 12.7107 11.9078 11.9891 11.6318C11.2676 11.3557 10.6508 10.8885 10.2166 10.2891C9.78238 9.68969 9.55021 8.98499 9.54938 8.26391C9.54761 7.78272 9.64915 7.30598 9.84814 6.86125C10.0471 6.41651 10.3396 6.0126 10.7087 5.67285C11.0778 5.3331 11.5162 5.06427 11.9985 4.88187C12.4808 4.69947 12.9974 4.60712 13.5186 4.61018ZM18.6424 18.9445C16.9144 18.9129 15.1848 18.9345 13.456 18.9345C11.7273 18.9345 9.99765 18.9345 8.26887 18.9345C7.49088 18.9345 7.10021 18.5631 7.12442 17.8425C7.20288 15.0912 9.5811 12.7854 12.5737 12.565C13.9093 12.4671 15.2224 12.5064 16.4436 13.0852C18.5246 14.0716 19.6265 15.6584 19.8127 17.8047C19.8711 18.4713 19.4003 18.9576 18.6424 18.9445Z" fill="#2D6759"/>
</g>
<defs>
<clipPath id="clip0_3446_6234">
<rect width="24" height="24" fill="white"/>
</clipPath>
</defs>
</svg>
