<svg width="15" height="14" viewBox="0 0 15 14" fill="none" xmlns="http://www.w3.org/2000/svg">
<path d="M2.18945 12.0703H3.15497V12.5531H2.18945V12.0703Z" fill="#F6F2ED"/>
<path d="M4.12069 9.65517H1.22414C0.824203 9.65517 0.5 9.97937 0.5 10.3793V13.2759C0.5 13.6758 0.824203 14 1.22414 14H4.12069C4.52063 14 4.84483 13.6758 4.84483 13.2759V10.3793C4.84483 9.97937 4.52063 9.65517 4.12069 9.65517ZM3.63793 11.3448H3.15517V11.1034H2.18966V11.5862H3.39655C3.46057 11.5862 3.52197 11.6116 3.56723 11.6569C3.6125 11.7022 3.63793 11.7636 3.63793 11.8276V12.7931C3.63793 12.8571 3.6125 12.9185 3.56723 12.9638C3.52197 13.0091 3.46057 13.0345 3.39655 13.0345H1.94828C1.88426 13.0345 1.82286 13.0091 1.77759 12.9638C1.73233 12.9185 1.7069 12.8571 1.7069 12.7931V10.8621C1.7069 10.7981 1.73233 10.7367 1.77759 10.6914C1.82286 10.6461 1.88426 10.6207 1.94828 10.6207H3.39655C3.46057 10.6207 3.52197 10.6461 3.56723 10.6914C3.6125 10.7367 3.63793 10.7981 3.63793 10.8621V11.3448ZM1.22414 9.17241H4.12069C4.52063 9.17241 4.84483 8.84821 4.84483 8.44828V6.02241C4.5696 5.9964 4.3119 5.87578 4.11562 5.6811L3.26234 4.82759H1.22414C0.824203 4.82759 0.5 5.15179 0.5 5.55172V8.44828C0.5 8.84821 0.824203 9.17241 1.22414 9.17241ZM1.94828 7.72414H2.91379C2.97781 7.72414 3.03921 7.69871 3.08447 7.65344C3.12974 7.60817 3.15517 7.54678 3.15517 7.48276C3.15517 7.41874 3.12974 7.35734 3.08447 7.31208C3.03921 7.26681 2.97781 7.24138 2.91379 7.24138H2.43103C2.36702 7.24138 2.30562 7.21595 2.26035 7.17068C2.21509 7.12541 2.18966 7.06402 2.18966 7C2.18966 6.93598 2.21509 6.87459 2.26035 6.82932C2.30562 6.78405 2.36702 6.75862 2.43103 6.75862H2.91379C2.97781 6.75862 3.03921 6.73319 3.08447 6.68792C3.12974 6.64265 3.15517 6.58126 3.15517 6.51724C3.15517 6.45322 3.12974 6.39183 3.08447 6.34656C3.03921 6.30129 2.97781 6.27586 2.91379 6.27586H1.94828V5.7931H2.91379C3.31373 5.79338 3.63772 6.11782 3.63742 6.51775C3.6373 6.6957 3.57166 6.86737 3.45303 7C3.71967 7.2981 3.69414 7.75588 3.39604 8.02251C3.2634 8.14114 3.09174 8.20677 2.91379 8.2069H1.94828V7.72414ZM12.569 12.069H12.0862C12.0222 12.069 11.9608 12.0944 11.9155 12.1397C11.8703 12.1849 11.8448 12.2463 11.8448 12.3103C11.8448 12.3744 11.8703 12.4358 11.9155 12.481C11.9608 12.5263 12.0222 12.5517 12.0862 12.5517H12.569C12.633 12.5517 12.6944 12.5263 12.7396 12.481C12.7849 12.4358 12.8103 12.3744 12.8103 12.3103C12.8103 12.2463 12.7849 12.1849 12.7396 12.1397C12.6944 12.0944 12.633 12.069 12.569 12.069ZM8.94828 9.65517H6.05172C5.65179 9.65517 5.32759 9.97937 5.32759 10.3793V13.2759C5.32759 13.6758 5.65179 14 6.05172 14H8.94828C9.34821 14 9.67241 13.6758 9.67241 13.2759V10.3793C9.67241 9.97937 9.34821 9.65517 8.94828 9.65517ZM7.97721 13.0869L7.50555 12.9821L7.92314 11.1034H7.1109L7.24607 11.5099L6.78745 11.6625L6.54607 10.9383C6.53396 10.902 6.53068 10.8633 6.5365 10.8254C6.54231 10.7876 6.55705 10.7516 6.57951 10.7206C6.60196 10.6896 6.63148 10.6643 6.66562 10.6469C6.69977 10.6296 6.73755 10.6206 6.77586 10.6207H8.22414C8.2603 10.6207 8.29601 10.6288 8.32863 10.6444C8.36124 10.66 8.38993 10.6828 8.41257 10.711C8.43521 10.7392 8.45122 10.7721 8.45942 10.8073C8.46763 10.8425 8.46781 10.8791 8.45997 10.9144L7.97721 13.0869ZM5.82241 5.6811C5.68381 5.81775 5.51396 5.9185 5.32759 5.97462V8.44828C5.32759 8.84821 5.65179 9.17241 6.05172 9.17241H8.94828C9.34821 9.17241 9.67241 8.84821 9.67241 8.44828V5.55172C9.67241 5.15179 9.34821 4.82759 8.94828 4.82759H6.67569L5.82241 5.6811ZM7.25379 5.84041L7.07034 6.75862H7.74138V5.7931H8.22414V6.75862H8.7069V7.24138H8.22414V8.2069H7.74138V7.24138H6.77586C6.74006 7.24139 6.70471 7.23343 6.67237 7.21809C6.64003 7.20275 6.6115 7.18041 6.58886 7.15268C6.56621 7.12495 6.55002 7.09254 6.54145 7.05778C6.53288 7.02303 6.53215 6.9868 6.53931 6.95172L6.78069 5.74483L7.25379 5.84041ZM13.7759 0H10.8793C10.4794 0 10.1552 0.324203 10.1552 0.724138V3.62069C10.1552 4.02063 10.4794 4.34483 10.8793 4.34483H13.7759C14.1758 4.34483 14.5 4.02063 14.5 3.62069V0.724138C14.5 0.324203 14.1758 0 13.7759 0ZM13.2931 2.17241C13.2931 2.23643 13.2677 2.29783 13.2224 2.34309C13.1771 2.38836 13.1157 2.41379 13.0517 2.41379H11.8448V2.89655H13.2931V3.37931H11.6034C11.5394 3.37931 11.478 3.35388 11.4328 3.30861C11.3875 3.26334 11.3621 3.20195 11.3621 3.13793V2.17241C11.3621 2.1084 11.3875 2.047 11.4328 2.00173C11.478 1.95647 11.5394 1.93103 11.6034 1.93103H12.8103V1.44828H11.3621V0.965517H13.0517C13.1157 0.965517 13.1771 0.990948 13.2224 1.03622C13.2677 1.08148 13.2931 1.14288 13.2931 1.2069V2.17241ZM12.569 11.1034H12.0862C12.0222 11.1034 11.9608 11.1289 11.9155 11.1741C11.8703 11.2194 11.8448 11.2808 11.8448 11.3448C11.8448 11.4088 11.8703 11.4702 11.9155 11.5155C11.9608 11.5608 12.0222 11.5862 12.0862 11.5862H12.569C12.633 11.5862 12.6944 11.5608 12.7396 11.5155C12.7849 11.4702 12.8103 11.4088 12.8103 11.3448C12.8103 11.2808 12.7849 11.2194 12.7396 11.1741C12.6944 11.1289 12.633 11.1034 12.569 11.1034ZM13.7759 4.82759H10.8793C10.4794 4.82759 10.1552 5.15179 10.1552 5.55172V8.44828C10.1552 8.84821 10.4794 9.17241 10.8793 9.17241H13.7759C14.1758 9.17241 14.5 8.84821 14.5 8.44828V5.55172C14.5 5.15179 14.1758 4.82759 13.7759 4.82759ZM13.2931 6.27586H11.8448V6.75862H13.0517C13.1157 6.75862 13.1771 6.78405 13.2224 6.82932C13.2677 6.87459 13.2931 6.93598 13.2931 7V7.96552C13.2931 8.02954 13.2677 8.09093 13.2224 8.1362C13.1771 8.18147 13.1157 8.2069 13.0517 8.2069H11.3621V7.72414H12.8103V7.24138H11.6034C11.5394 7.24138 11.478 7.21595 11.4328 7.17068C11.3875 7.12541 11.3621 7.06402 11.3621 7V6.03448C11.3621 5.97046 11.3875 5.90907 11.4328 5.8638C11.478 5.81853 11.5394 5.7931 11.6034 5.7931H13.2931V6.27586Z" fill="#F6F2ED"/>
<path d="M13.7758 9.65583H10.8793C10.4793 9.65583 10.1551 9.98003 10.1551 10.38V13.2765C10.1551 13.6765 10.4793 14.0007 10.8793 14.0007H13.7758C14.1758 14.0007 14.5 13.6765 14.5 13.2765V10.38C14.5 9.98003 14.1758 9.65583 13.7758 9.65583ZM13.2931 12.311C13.2931 12.7109 12.9689 13.0351 12.5689 13.0351H12.0862C11.688 13.0369 11.3638 12.7155 11.362 12.3173C11.3612 12.1364 11.4284 11.9619 11.5503 11.8282C11.282 11.5341 11.3029 11.078 11.5971 10.8097C11.7307 10.6878 11.9053 10.6206 12.0862 10.6213H12.5689C12.9671 10.6196 13.2913 10.941 13.2931 11.3391C13.2939 11.52 13.2267 11.6946 13.1048 11.8282C13.2253 11.9602 13.2924 12.1323 13.2931 12.311ZM4.45714 5.34045C4.74377 5.61366 5.19443 5.61366 5.48107 5.34045L7.52917 3.2921C7.81186 3.00933 7.81186 2.55095 7.52917 2.26817L5.48107 0.219827C5.19829 -0.0628588 4.73991 -0.0628588 4.45714 0.219827L2.40879 2.26817C2.12611 2.55095 2.12611 3.00933 2.40879 3.2921L4.45714 5.34045ZM3.87421 2.26817C3.87422 2.20416 3.89966 2.14277 3.94493 2.09752L4.28648 1.75596C4.3326 1.71235 4.39366 1.68805 4.45714 1.68805C4.52061 1.68805 4.58167 1.71235 4.62779 1.75596L6.16393 3.2921L5.82262 3.63341L4.45714 2.26817L4.35696 2.3681V2.95079H3.87421V2.26817Z" fill="#F6F2ED"/>
</svg>
