<svg width="20" height="20" viewBox="0 0 20 20" fill="none" xmlns="http://www.w3.org/2000/svg">
<path d="M11.7517 2.22112C12.275 1.87446 13.1617 1.62696 13.8308 2.29612L17.7033 6.16946C18.375 6.83946 18.1267 7.72612 17.7792 8.24862C17.591 8.53194 17.3461 8.77313 17.06 8.95696C16.7817 9.13446 16.43 9.26862 16.0508 9.24862C15.8674 9.23563 15.6845 9.2159 15.5025 9.18946L15.4458 9.18112C15.2503 9.1531 15.0538 9.1328 14.8567 9.12029C14.4367 9.09946 14.275 9.17029 14.2233 9.22029L12.1483 11.2961C12.0817 11.3628 11.9983 11.5111 11.935 11.7961C11.8742 12.0711 11.8475 12.4095 11.8408 12.7845C11.835 13.1445 11.8475 13.5128 11.8608 13.8678L11.8617 13.907C11.8742 14.2595 11.8867 14.6195 11.8692 14.902C11.815 15.7611 11.1458 16.3936 10.4875 16.6861C9.82916 16.9778 8.89 17.0503 8.2375 16.397L6.3625 14.522L2.94166 17.9428C2.88444 18.0042 2.81544 18.0534 2.73878 18.0876C2.66211 18.1218 2.57935 18.1401 2.49543 18.1416C2.41151 18.1431 2.32815 18.1277 2.25033 18.0962C2.17251 18.0648 2.10181 18.018 2.04246 17.9587C1.98311 17.8993 1.93633 17.8286 1.90489 17.7508C1.87346 17.673 1.85802 17.5896 1.8595 17.5057C1.86098 17.4218 1.87935 17.339 1.91351 17.2623C1.94767 17.1857 1.99692 17.1167 2.05833 17.0595L5.47833 13.6386L3.60333 11.7636C2.95083 11.1103 3.0225 10.172 3.315 9.51362C3.60666 8.85529 4.24 8.18612 5.09833 8.13196C5.38166 8.11446 5.74166 8.12696 6.09416 8.13946L6.13333 8.14029C6.48833 8.15279 6.85666 8.16612 7.21666 8.16029C7.59166 8.15362 7.93 8.12696 8.205 8.06612C8.49 8.00279 8.63833 7.91862 8.705 7.85196L10.78 5.77696C10.8308 5.72612 10.9017 5.56362 10.88 5.14362C10.8675 4.94651 10.8472 4.74997 10.8192 4.55446L10.8117 4.49779C10.7852 4.3158 10.7655 4.1329 10.7525 3.94946C10.7317 3.57029 10.8658 3.21862 11.0425 2.94029C11.2225 2.65696 11.4717 2.40696 11.7517 2.22112Z" fill="#596F66"/>
</svg>
