<svg width="8" height="8" viewBox="0 0 8 8" fill="none" xmlns="http://www.w3.org/2000/svg">
<path d="M3 7L2.2 7.6C2.39472 7.85963 2.70333 8.00862 3.02774 7.99962C3.35216 7.99061 3.65203 7.82473 3.83205 7.5547L3 7ZM1.8 3.73333C1.46863 3.29151 0.841828 3.20196 0.4 3.53333C-0.0418277 3.8647 -0.131371 4.49151 0.2 4.93333L1.8 3.73333ZM7.83205 1.5547C8.1384 1.09517 8.01423 0.474302 7.5547 0.16795C7.09517 -0.138403 6.4743 -0.0142289 6.16795 0.4453L7.83205 1.5547ZM3.8 6.4L1.8 3.73333L0.2 4.93333L2.2 7.6L3.8 6.4ZM6.16795 0.4453L2.16795 6.4453L3.83205 7.5547L7.83205 1.5547L6.16795 0.4453Z" fill="#3E524D"/>
</svg>
