<svg width="13" height="15" viewBox="0 0 13 15" fill="none" xmlns="http://www.w3.org/2000/svg">
<path d="M4.66666 14L3.82233 14.5358C4.01072 14.8327 4.34114 15.0088 4.6926 14.9997C5.04406 14.9905 5.36491 14.7975 5.53764 14.4913L4.66666 14ZM1.84433 7.6864C1.5484 7.22009 0.930486 7.08196 0.464176 7.37789C-0.00213456 7.67382 -0.140257 8.29174 0.15567 8.75805L1.84433 7.6864ZM12.871 1.49132C13.1423 1.01029 12.9723 0.400371 12.4913 0.129022C12.0103 -0.142328 11.4004 0.0276506 11.129 0.508679L12.871 1.49132ZM5.51099 13.4642L1.84433 7.6864L0.15567 8.75805L3.82233 14.5358L5.51099 13.4642ZM11.129 0.508679L3.79569 13.5087L5.53764 14.4913L12.871 1.49132L11.129 0.508679Z" fill="#FDF7F0"/>
</svg>
