<svg width="24" height="24" viewBox="0 0 24 24" fill="none" xmlns="http://www.w3.org/2000/svg">
<path d="M18.4608 12.0027V15.353C18.4608 15.6465 18.3869 15.9355 18.2457 16.1944C18.1045 16.4534 17.9003 16.6743 17.6512 16.8377C15.8925 17.9812 13.8283 18.5917 11.7169 18.5928C9.60515 18.5839 7.54224 17.9702 5.78263 16.8274C5.53435 16.6664 5.33117 16.4471 5.19159 16.1896C5.05202 15.9321 4.98048 15.6445 4.98349 15.353V12.013L6.52059 12.6754L10.6711 14.4913C10.8549 14.5776 11.0525 14.632 11.2552 14.6522C11.5527 14.7107 11.8588 14.7142 12.1576 14.6625C12.367 14.6363 12.5711 14.5789 12.7627 14.4922L16.9228 12.6744L18.4608 12.0027Z" fill="#3E524D"/>
<path d="M22.4985 17.1586C22.499 17.4979 22.4002 17.8302 22.2139 18.1164C22.0276 18.4025 21.7615 18.6305 21.447 18.7733V20.2478C21.447 20.4473 21.366 20.6386 21.2219 20.7797C21.0778 20.9208 20.8823 21 20.6785 21C20.4746 21 20.2791 20.9208 20.135 20.7797C19.9909 20.6386 19.9099 20.4473 19.9099 20.2478V18.7733C19.5944 18.6313 19.3272 18.4036 19.1399 18.1174C18.9525 17.8312 18.853 17.4984 18.853 17.1586C18.853 16.8187 18.9525 16.4859 19.1399 16.1997C19.3272 15.9135 19.5944 15.6859 19.9099 15.5438V9.94624L18.4646 10.5778L16.9275 11.2495L12.7664 13.0654C12.5748 13.1521 12.3707 13.2095 12.1613 13.2357C11.8625 13.2874 11.5564 13.2839 11.2589 13.2254C11.0563 13.2056 10.8586 13.1514 10.6749 13.0654L6.51954 11.2504L4.98243 10.588L3.19871 9.80591C2.85407 9.67396 2.55668 9.44573 2.34354 9.14963C2.13041 8.85353 2.01094 8.50263 2 8.14059C2.01075 7.77723 2.12999 7.42491 2.34302 7.12713C2.55605 6.82935 2.85352 6.59916 3.19871 6.46499L10.6806 3.20453C11.339 2.93544 12.0794 2.93174 12.7406 3.19423L20.2435 6.46873C20.5883 6.60251 20.8856 6.83206 21.0987 7.12912C21.3119 7.42618 21.4316 7.77777 21.4432 8.14059V15.5438C21.7584 15.6861 22.0253 15.9138 22.2123 16.2C22.3993 16.4862 22.4986 16.8188 22.4985 17.1586Z" fill="#3E524D"/>
</svg>
