<svg id="Mortarboard" xmlns="http://www.w3.org/2000/svg" width="21.444" height="19.239" viewBox="0 0 21.444 19.239">
  <g id="Group_42209" data-name="Group 42209" transform="translate(0 0)">
    <path id="Path_27699" data-name="Path 27699" d="M19.009,12v3.581a1.911,1.911,0,0,1-.847,1.587,11.231,11.231,0,0,1-6.208,1.876,11.316,11.316,0,0,1-6.208-1.887,1.868,1.868,0,0,1-.836-1.576v-3.57l1.608.708,4.342,1.941a1.843,1.843,0,0,0,.611.172,2.543,2.543,0,0,0,.944.011,2.161,2.161,0,0,0,.633-.182L17.4,12.718Z" transform="translate(-1.79 -2.378)" fill="#fdf7f0"/>
    <path id="Path_27700" data-name="Path 27700" d="M23.444,18.159a1.9,1.9,0,0,1-1.1,1.726v1.576a.8.8,0,1,1-1.608,0V19.885a1.9,1.9,0,0,1,0-3.452V10.45l-1.512.675-1.608.718-4.353,1.941a2.161,2.161,0,0,1-.633.182,2.543,2.543,0,0,1-.944-.011,1.842,1.842,0,0,1-.611-.171L6.728,11.844,5.12,11.136,3.254,10.3A1.974,1.974,0,0,1,2,8.52,1.989,1.989,0,0,1,3.254,6.729l7.827-3.485a2.831,2.831,0,0,1,2.155-.011l7.849,3.5A1.989,1.989,0,0,1,22.34,8.52v7.913A1.9,1.9,0,0,1,23.444,18.159Z" transform="translate(-2 -3.026)" fill="#fdf7f0"/>
  </g>
</svg>
