<svg width="30" height="30" viewBox="0 0 30 30" fill="none" xmlns="http://www.w3.org/2000/svg">
<circle cx="15" cy="15" r="15" fill="#D4D4D4" fill-opacity="0.2"/>
<circle cx="15" cy="15" r="14.5" stroke="#D4D4D4" stroke-opacity="0.2"/>
<path d="M21.1087 15.0028V18.3531C21.1086 18.6466 21.0363 18.9356 20.8981 19.1945C20.7599 19.4535 20.56 19.6744 20.3162 19.8378C18.5949 20.9813 16.5747 21.5918 14.5082 21.593C12.4414 21.584 10.4224 20.9703 8.70019 19.8275C8.4572 19.6665 8.25834 19.4472 8.12173 19.1897C7.98513 18.9322 7.91511 18.6446 7.91806 18.3531V15.0131L9.42245 15.6755L13.4847 17.4914C13.6645 17.5777 13.8579 17.6322 14.0563 17.6523C14.3475 17.7109 14.6471 17.7144 14.9395 17.6626C15.1445 17.6365 15.3442 17.579 15.5317 17.4924L19.6033 15.6745L21.1087 15.0028Z" fill="#FDF7F0"/>
<path d="M25.0624 20.1586C25.0628 20.4979 24.9662 20.8302 24.7838 21.1164C24.6015 21.4025 24.341 21.6305 24.0332 21.7733V23.2478C24.0332 23.4473 23.954 23.6386 23.8129 23.7797C23.6719 23.9208 23.4805 24 23.281 24C23.0815 24 22.8902 23.9208 22.7492 23.7797C22.6081 23.6386 22.5288 23.4473 22.5288 23.2478V21.7733C22.2201 21.6313 21.9585 21.4036 21.7752 21.1174C21.5918 20.8312 21.4944 20.4984 21.4944 20.1586C21.4944 19.8187 21.5918 19.4859 21.7752 19.1997C21.9585 18.9135 22.2201 18.6859 22.5288 18.5438V12.9462L21.1143 13.5778L19.6099 14.2495L15.5373 16.0654C15.3498 16.1521 15.1501 16.2095 14.9451 16.2357C14.6527 16.2874 14.3531 16.2839 14.0619 16.2254C13.8636 16.2056 13.6702 16.1514 13.4903 16.0654L9.42337 14.2504L7.91898 13.588L6.1732 12.8059C5.8359 12.674 5.54483 12.4457 5.33623 12.1496C5.12763 11.8535 5.01071 11.5026 5 11.1406C5.01052 10.7772 5.12723 10.4249 5.33572 10.1271C5.54422 9.82935 5.83536 9.59916 6.1732 9.46499L13.4959 6.20453C14.1403 5.93544 14.8649 5.93174 15.5121 6.19423L22.8553 9.46873C23.1928 9.60251 23.4837 9.83206 23.6924 10.1291C23.901 10.4262 24.0182 10.7778 24.0295 11.1406V18.5438C24.338 18.6861 24.5992 18.9138 24.7822 19.2C24.9653 19.4862 25.0625 19.8188 25.0624 20.1586Z" fill="#FDF7F0"/>
</svg>
