<svg width="130" height="13" viewBox="0 0 130 13" fill="none" xmlns="http://www.w3.org/2000/svg">
<g clip-path="url(#clip0_4849_4912)">
<path d="M84.1501 5.07478H83.4307C81.4159 5.07478 79.401 5.06602 77.3862 5.08354C77.2323 5.10087 77.0767 5.06992 76.9424 4.99525C76.808 4.92058 76.7019 4.80613 76.6397 4.66871C75.8207 3.2504 74.2553 2.53759 72.5873 2.77714C71.7057 2.90556 70.8937 3.31548 70.28 3.94184C69.6664 4.56821 69.2863 5.37513 69.2001 6.23456C69.1317 7.10493 69.367 7.97235 69.8682 8.69779C70.3695 9.42323 71.1077 9.96467 71.9645 10.2353C73.7546 10.7816 75.6971 10.098 76.602 8.54972C76.8221 8.17287 77.0544 8.05894 77.4752 8.06332C79.5277 8.08377 81.5803 8.07355 83.6313 8.06332C83.8621 8.06332 84.1531 8.1422 84.1516 7.75512C84.1426 6.88602 84.1501 6.01545 84.1501 5.07478ZM73.1529 8.45624C72.6397 8.43546 72.1548 8.2228 71.8002 7.86296C71.4455 7.50313 71.2487 7.02415 71.2511 6.52669C71.265 6.02945 71.4797 5.55732 71.8491 5.21179C72.2185 4.86626 72.7132 4.67493 73.2268 4.67894C73.7396 4.69677 74.225 4.90726 74.5802 5.26581C74.9355 5.62436 75.1327 6.10278 75.13 6.59972C75.1149 7.61489 74.1889 8.48984 73.1529 8.45624ZM83.12 7.0613C83.0211 7.06101 82.9244 7.03232 82.8423 6.97886C82.7601 6.9254 82.6962 6.84956 82.6586 6.76092C82.6209 6.67229 82.6112 6.57483 82.6307 6.48085C82.6502 6.38688 82.698 6.30061 82.7681 6.23293C82.8381 6.16526 82.9273 6.11922 83.0244 6.10062C83.1215 6.08203 83.2221 6.09172 83.3135 6.12847C83.4049 6.16521 83.483 6.22737 83.538 6.30709C83.5929 6.3868 83.6223 6.4805 83.6223 6.57635C83.6223 6.64016 83.6093 6.70334 83.584 6.76227C83.5588 6.8212 83.5217 6.87473 83.4751 6.91978C83.4284 6.96483 83.3731 7.00052 83.3121 7.0248C83.2512 7.04909 83.1859 7.06149 83.12 7.0613Z" fill="#041513"/>
<path d="M15.9164 7.32566C16.2995 5.99499 16.6976 4.66577 17.0596 3.3278C17.1591 2.96117 17.322 2.81656 17.7171 2.84577C18.162 2.87937 18.6114 2.85454 19.1363 2.85454L16.8349 10.1039C16.7682 10.1228 16.7002 10.1365 16.6313 10.1448C15.0523 10.2236 15.0538 10.2222 14.5561 8.77903C14.2334 7.84517 13.9081 6.91375 13.5804 5.98476C13.5499 5.9353 13.5145 5.88883 13.4748 5.846C13.0404 7.10218 12.5895 8.31454 12.2095 9.54735C12.0587 10.0454 11.8128 10.1813 11.297 10.1638C10.1448 10.1229 10.1434 10.1506 9.80553 9.08577C9.21435 7.22293 8.62518 5.36008 8.03802 3.49723C7.9792 3.31319 7.94452 3.12038 7.88721 2.856C8.49046 2.856 9.03487 2.82678 9.57026 2.87645C9.72107 2.89105 9.90054 3.1306 9.95332 3.30004C10.3575 4.62633 10.733 5.96139 11.1598 7.43667C11.4253 6.66251 11.65 6.01398 11.8686 5.36398C12.1009 4.67162 12.3392 3.98072 12.5488 3.28105C12.6408 2.97285 12.7871 2.84285 13.1354 2.84285C14.3419 2.83263 14.342 2.81948 14.6994 3.92813C15.0568 5.03678 15.4444 6.17757 15.8184 7.30229L15.9164 7.32566Z" fill="#041513"/>
<path d="M63.225 5.91973C62.7952 7.16131 62.3533 8.40288 61.9461 9.64883C61.827 10.014 61.6656 10.1645 61.2433 10.1586C59.9252 10.1367 59.9237 10.1586 59.5331 8.92288C58.954 7.09606 58.3759 5.26827 57.7988 3.43951C57.7445 3.27007 57.7083 3.09625 57.6479 2.85524C58.2512 2.85524 58.8198 2.82895 59.3762 2.87423C59.5044 2.88445 59.6779 3.11524 59.7201 3.27445C60.0655 4.40793 60.3852 5.55164 60.7154 6.69097C60.7697 6.87501 60.8361 7.05614 60.9507 7.39793C61.2433 6.53176 61.4846 5.81895 61.7229 5.10468C61.8571 4.70591 61.9853 4.30569 62.118 3.90838C62.4815 2.80704 62.4815 2.81872 63.6955 2.84355C64.0152 2.84355 64.148 2.95456 64.2475 3.24962C64.6879 4.60513 65.1403 5.95479 65.6274 7.41254C65.7315 7.12917 65.8099 6.94074 65.8672 6.74793C66.202 5.59108 66.5444 4.43569 66.855 3.27299C66.944 2.94142 67.1023 2.83479 67.4417 2.84793C67.8941 2.87131 68.339 2.84793 68.8397 2.84793C68.8329 2.98295 68.8153 3.11726 68.7869 3.24962C68.1037 5.4085 67.4085 7.56299 66.7389 9.72479C66.6394 10.0461 66.4976 10.1513 66.1537 10.1528C64.813 10.1528 64.813 10.1688 64.3968 8.95793C64.0489 7.94423 63.697 6.93101 63.3411 5.91827L63.225 5.91973Z" fill="#041513"/>
<path d="M26.852 7.06192H21.4228C21.3504 7.7163 21.6807 8.35023 22.3171 8.55181C23.3728 8.88776 24.1947 8.94181 25.2836 7.66079L26.6077 8.40866C25.8401 10.1907 23.3517 10.6552 21.7696 10.0972C19.8694 9.42529 18.957 7.38034 19.5754 5.23023C20.0866 3.44967 21.9778 2.37023 23.9006 2.76169C25.9713 3.18091 27.1461 4.85922 26.852 7.06192ZM21.4122 5.58664H24.8643C24.7361 4.72192 24.1435 4.2399 23.231 4.22383C22.2447 4.20776 21.5947 4.68832 21.4122 5.58664Z" fill="#041513"/>
<path d="M35.0488 10.1224H33.0174V7.54136C33.0174 6.86653 33.0294 6.19024 33.0038 5.51687C32.9827 4.899 32.6751 4.62147 32.0401 4.62001C31.7282 4.61382 31.4185 4.67136 31.1311 4.7889C30.8437 4.90643 30.5851 5.08132 30.3721 5.30215C30.2444 5.47114 30.1795 5.67711 30.1882 5.88642C30.1731 7.28574 30.1806 8.68653 30.1806 10.1224H28.1914V2.93585C29.2954 2.68024 29.5487 2.78248 29.9348 3.58001C30.5863 3.31563 31.2122 2.95923 31.8863 2.80731C33.8182 2.36911 34.8543 3.13743 35.0217 5.03776C35.0488 5.34597 35.0443 5.65709 35.0443 5.96675C35.0503 7.33248 35.0488 8.69529 35.0488 10.1224Z" fill="#041513"/>
<path d="M52.9048 1.84191H49.7725V0H58.1682V1.8127H54.9574V10.1064H52.9048V1.84191Z" fill="#041513"/>
<path d="M8.38815 0.00390625V1.82975H5.17886V10.1089H3.12482V1.8502H0V0.00390625H8.38815Z" fill="#041513"/>
<path d="M45.9024 7.0765C46.5177 5.72099 47.0787 4.51155 47.6111 3.29189C47.7619 2.95739 47.9504 2.81863 48.332 2.84492C48.8161 2.87852 49.3032 2.85369 49.8507 2.85369C49.7813 3.04796 49.7436 3.18234 49.6878 3.30796C48.2867 6.3856 46.8766 9.46178 45.4877 12.5453C45.3369 12.8724 45.1861 13.0346 44.7924 13.0039C44.3083 12.9659 43.8182 12.9951 43.2617 12.9951C43.3205 12.8199 43.3507 12.6884 43.4125 12.5672C43.8317 11.6338 44.2404 10.6946 44.6884 9.77436C44.7583 9.63939 44.7937 9.49011 44.7916 9.33911C44.7895 9.18812 44.75 9.03982 44.6763 8.90672C43.8423 7.09695 43.0174 5.27987 42.203 3.46425C42.1276 3.29919 42.0642 3.12975 41.9526 2.86099C42.6192 2.86099 43.227 2.83616 43.8287 2.88144C43.963 2.89166 44.1183 3.13268 44.1952 3.29919C44.7472 4.50571 45.2886 5.71953 45.9024 7.0765Z" fill="#041513"/>
<path d="M39.3591 1.13971V2.82387H40.9788V4.6541H39.3817C39.3817 5.68825 39.3621 6.66837 39.3893 7.64556C39.4029 8.14511 39.7316 8.3905 40.2459 8.39488C40.4872 8.39488 40.7285 8.39488 41.0256 8.39488C41.0256 8.89151 41.0482 9.39983 41.009 9.9023C40.9831 9.97859 40.9375 10.0472 40.8765 10.1017C40.8156 10.1561 40.7412 10.1946 40.6606 10.2134C40.1562 10.2694 39.6471 10.2728 39.142 10.2236C38.1557 10.0951 37.5162 9.46702 37.4227 8.47084C37.3292 7.47466 37.3548 6.50623 37.3322 5.52174C37.3322 5.25443 37.3322 4.98567 37.3322 4.66432H36.2026V2.8823L37.3035 2.8341C37.4136 2.39589 37.5494 1.965 37.6308 1.51949C37.6836 1.22735 37.8163 1.11927 38.1179 1.13533C38.507 1.15432 38.8991 1.13971 39.3591 1.13971Z" fill="#041513"/>
<path d="M88.979 9.93567V0.146484H92.9891C93.76 0.146484 94.4168 0.288287 94.9594 0.571894C95.502 0.852313 95.9156 1.24267 96.2001 1.74296C96.488 2.24007 96.6319 2.81366 96.6319 3.46372C96.6319 4.11378 96.4863 4.68737 96.1952 5.18447C95.904 5.68158 95.4821 6.06875 94.9296 6.34599C94.3804 6.62322 93.7153 6.76183 92.9345 6.76183H90.3786V5.10322H92.5871C93.0007 5.10322 93.3414 5.03471 93.6094 4.89768C93.8808 4.75747 94.0826 4.56468 94.2149 4.31932C94.3506 4.07076 94.4184 3.78556 94.4184 3.46372C94.4184 3.13869 94.3506 2.85508 94.2149 2.6129C94.0826 2.36753 93.8808 2.17793 93.6094 2.0441C93.3381 1.90707 92.994 1.83856 92.5772 1.83856H91.128V9.93567H88.979Z" fill="#041513"/>
<path d="M101.309 10.0791C100.539 10.0791 99.8719 9.92133 99.3094 9.60586C98.7503 9.2872 98.3185 8.84427 98.0141 8.27706C97.7097 7.70666 97.5575 7.04544 97.5575 6.29341C97.5575 5.535 97.7097 4.87219 98.0141 4.30498C98.3185 3.73458 98.7503 3.29164 99.3094 2.97617C99.8719 2.65751 100.539 2.49818 101.309 2.49818C102.08 2.49818 102.745 2.65751 103.305 2.97617C103.867 3.29164 104.3 3.73458 104.605 4.30498C104.909 4.87219 105.061 5.535 105.061 6.29341C105.061 7.04544 104.909 7.70666 104.605 8.27706C104.3 8.84427 103.867 9.2872 103.305 9.60586C102.745 9.92133 102.08 10.0791 101.309 10.0791ZM101.319 8.50171C101.67 8.50171 101.963 8.40611 102.198 8.21492C102.433 8.02054 102.61 7.75605 102.729 7.42146C102.851 7.08687 102.913 6.70607 102.913 6.27907C102.913 5.85206 102.851 5.47127 102.729 5.13668C102.61 4.80208 102.433 4.5376 102.198 4.34322C101.963 4.14883 101.67 4.05164 101.319 4.05164C100.965 4.05164 100.668 4.14883 100.426 4.34322C100.188 4.5376 100.008 4.80208 99.8851 5.13668C99.766 5.47127 99.7064 5.85206 99.7064 6.27907C99.7064 6.70607 99.766 7.08687 99.8851 7.42146C100.008 7.75605 100.188 8.02054 100.426 8.21492C100.668 8.40611 100.965 8.50171 101.319 8.50171Z" fill="#041513"/>
<path d="M106.436 9.93567V2.59378H108.486V3.87479H108.565C108.704 3.41911 108.938 3.07496 109.265 2.84234C109.593 2.60653 109.97 2.48862 110.397 2.48862C110.503 2.48862 110.617 2.495 110.739 2.50774C110.862 2.52049 110.969 2.53802 111.062 2.56032V4.36712C110.962 4.33844 110.825 4.31294 110.65 4.29064C110.474 4.26833 110.314 4.25718 110.168 4.25718C109.857 4.25718 109.579 4.3225 109.335 4.45315C109.093 4.58062 108.901 4.75907 108.759 4.9885C108.62 5.21793 108.55 5.48242 108.55 5.78196V9.93567H106.436Z" fill="#041513"/>
<path d="M116.592 2.59378V4.12334H112.001V2.59378H116.592ZM113.043 0.834787H115.157V7.67957C115.157 7.86758 115.187 8.01416 115.247 8.11932C115.306 8.22129 115.389 8.29299 115.495 8.33441C115.604 8.37584 115.73 8.39655 115.872 8.39655C115.971 8.39655 116.071 8.38859 116.17 8.37265C116.269 8.35353 116.345 8.33919 116.398 8.32963L116.731 9.84486C116.625 9.87672 116.476 9.91337 116.284 9.95479C116.092 9.99941 115.859 10.0265 115.584 10.0361C115.075 10.0552 114.628 9.98984 114.244 9.84007C113.864 9.69031 113.568 9.45769 113.356 9.14221C113.144 8.82674 113.04 8.42842 113.043 7.94724V0.834787Z" fill="#041513"/>
<path d="M120.143 10.0743C119.656 10.0743 119.223 9.99303 118.842 9.83052C118.462 9.66481 118.161 9.42104 117.939 9.09919C117.721 8.77416 117.612 8.36947 117.612 7.88511C117.612 7.47722 117.689 7.13466 117.845 6.85743C118 6.5802 118.212 6.35714 118.48 6.18825C118.748 6.01936 119.052 5.8919 119.393 5.80586C119.737 5.71982 120.098 5.65928 120.475 5.62422C120.919 5.57961 121.276 5.53819 121.547 5.49995C121.819 5.45852 122.015 5.39798 122.138 5.31831C122.26 5.23865 122.321 5.12074 122.321 4.9646V4.93592C122.321 4.6332 122.222 4.39898 122.024 4.23328C121.828 4.06758 121.551 3.98473 121.19 3.98473C120.809 3.98473 120.507 4.06598 120.282 4.2285C120.057 4.38783 119.908 4.58858 119.835 4.83076L117.88 4.67781C117.979 4.23169 118.174 3.84611 118.465 3.52108C118.756 3.19286 119.132 2.94112 119.592 2.76586C120.055 2.58741 120.591 2.49818 121.2 2.49818C121.623 2.49818 122.029 2.54598 122.416 2.64158C122.806 2.73718 123.152 2.88535 123.453 3.08611C123.757 3.28686 123.997 3.54498 124.173 3.86045C124.348 4.17273 124.436 4.54716 124.436 4.98372V9.93567H122.431V8.91756H122.371C122.249 9.14699 122.085 9.34934 121.88 9.5246C121.675 9.69668 121.428 9.83211 121.14 9.93089C120.852 10.0265 120.52 10.0743 120.143 10.0743ZM120.748 8.66901C121.059 8.66901 121.334 8.61005 121.572 8.49215C121.81 8.37106 121.997 8.20854 122.133 8.0046C122.268 7.80066 122.336 7.56963 122.336 7.31152V6.5324C122.27 6.57383 122.179 6.61207 122.063 6.64712C121.951 6.67898 121.823 6.70926 121.681 6.73794C121.539 6.76343 121.397 6.78733 121.254 6.80963C121.112 6.82875 120.983 6.84628 120.867 6.86221C120.619 6.89726 120.402 6.95303 120.217 7.02951C120.032 7.10599 119.888 7.20955 119.785 7.3402C119.683 7.46766 119.632 7.62699 119.632 7.81819C119.632 8.09542 119.736 8.30733 119.944 8.45391C120.156 8.59731 120.424 8.66901 120.748 8.66901Z" fill="#041513"/>
<path d="M128.19 0.146484V9.93567H126.076V0.146484H128.19Z" fill="#041513"/>
</g>
<defs>
<clipPath id="clip0_4849_4912">
<rect width="130" height="13" fill="white"/>
</clipPath>
</defs>
</svg>
