<svg width="125" height="138" viewBox="0 0 125 138" fill="none" xmlns="http://www.w3.org/2000/svg">
<path opacity="0.4" d="M121.173 21.96C121.032 21.9247 120.909 21.8368 120.83 21.7142C120.751 21.5916 120.722 21.4434 120.748 21.3C120.775 21.1566 120.855 21.0286 120.972 20.9423C121.09 20.8559 121.236 20.8176 121.381 20.8352C121.526 20.8528 121.658 20.9249 121.752 21.0369C121.845 21.1489 121.892 21.2923 121.884 21.4379C121.875 21.5835 121.811 21.7203 121.705 21.8205C121.599 21.9207 121.459 21.9766 121.313 21.977C121.266 21.9771 121.219 21.9714 121.173 21.96ZM122.94 19.866C122.94 19.6997 122.99 19.5371 123.082 19.3988C123.174 19.2605 123.306 19.1527 123.459 19.089C123.613 19.0254 123.782 19.0087 123.945 19.0412C124.108 19.0736 124.258 19.1537 124.376 19.2713C124.494 19.3889 124.574 19.5388 124.606 19.7019C124.639 19.8651 124.622 20.0342 124.558 20.1878C124.495 20.3415 124.387 20.4729 124.248 20.5653C124.11 20.6577 123.948 20.707 123.781 20.707C123.671 20.707 123.561 20.6852 123.459 20.643C123.357 20.6007 123.265 20.5388 123.187 20.4607C123.029 20.303 122.94 20.089 122.94 19.866ZM120.49 1.065C120.49 0.854165 120.553 0.648124 120.67 0.472931C120.788 0.297738 120.954 0.161263 121.149 0.0807626C121.344 0.00026235 121.558 -0.0206469 121.765 0.0206789C121.972 0.0620048 122.162 0.16371 122.311 0.312932C122.46 0.462155 122.561 0.652193 122.602 0.859015C122.643 1.06584 122.622 1.28015 122.541 1.47486C122.46 1.66957 122.323 1.83593 122.148 1.9529C121.972 2.06987 121.766 2.1322 121.555 2.132C121.415 2.132 121.277 2.10439 121.147 2.05074C121.018 1.99709 120.9 1.91847 120.801 1.81936C120.703 1.72026 120.624 1.60261 120.571 1.47317C120.517 1.34373 120.49 1.20503 120.49 1.065Z" fill="#888888"/>
<path opacity="0.4" d="M114.81 20.7059C120.228 20.7059 124.62 16.3139 124.62 10.8959C124.62 5.47802 120.228 1.08594 114.81 1.08594C109.392 1.08594 105 5.47802 105 10.8959C105 16.3139 109.392 20.7059 114.81 20.7059Z" fill="#2F4F4F"/>
<path opacity="0.4" d="M26.512 131.647C41.1542 131.647 53.024 119.777 53.024 105.135C53.024 90.4929 41.1542 78.623 26.512 78.623C11.8698 78.623 0 90.4929 0 105.135C0 119.777 11.8698 131.647 26.512 131.647Z" fill="#2F4F4F"/>
<path opacity="0.4" d="M19.1846 135.33C19.1846 134.881 19.3178 134.442 19.5673 134.068C19.8169 133.695 20.1715 133.404 20.5865 133.232C21.0015 133.06 21.4581 133.015 21.8986 133.102C22.3392 133.19 22.7438 133.406 23.0614 133.724C23.379 134.042 23.5953 134.446 23.683 134.887C23.7706 135.327 23.7256 135.784 23.5537 136.199C23.3818 136.614 23.0908 136.969 22.7173 137.218C22.3438 137.468 21.9048 137.601 21.4556 137.601C20.8533 137.601 20.2756 137.362 19.8498 136.936C19.4239 136.51 19.1846 135.932 19.1846 135.33ZM27.1276 135.439C27.1276 135.132 27.2186 134.832 27.3891 134.577C27.5595 134.322 27.8018 134.123 28.0853 134.006C28.3687 133.888 28.6807 133.858 28.9815 133.918C29.2824 133.978 29.5588 134.125 29.7757 134.342C29.9925 134.559 30.1402 134.836 30.1999 135.137C30.2596 135.438 30.2288 135.75 30.1112 136.033C29.9937 136.316 29.7947 136.559 29.5396 136.729C29.2844 136.899 28.9844 136.99 28.6776 136.99C28.2664 136.99 27.8722 136.826 27.5815 136.535C27.2909 136.244 27.1276 135.85 27.1276 135.439ZM6.30859 79.2628C6.30859 78.693 6.47756 78.136 6.79413 77.6622C7.1107 77.1885 7.56065 76.8192 8.08708 76.6011C8.61352 76.3831 9.19279 76.326 9.75165 76.4372C10.3105 76.5484 10.8239 76.8227 11.2268 77.2257C11.6297 77.6286 11.9041 78.1419 12.0152 78.7008C12.1264 79.2596 12.0693 79.8389 11.8513 80.3653C11.6332 80.8918 11.264 81.3417 10.7902 81.6583C10.3164 81.9749 9.7594 82.1438 9.18959 82.1438C8.42551 82.1438 7.69271 81.8403 7.15242 81.3C6.61213 80.7597 6.30859 80.0269 6.30859 79.2628Z" fill="#888888"/>
<path d="M40 14.4709L40 126.529C40 129.551 42.3041 132 45.1464 132H107.854C110.696 132 113 129.551 113 126.529L113 14.4709C113 11.4494 110.696 9.00001 107.854 9.00001H45.1464C42.3041 9.00001 40 11.4494 40 14.4709Z" fill="#F7F2EC"/>
<g clip-path="url(#clip0_3749_5216)">
<path d="M99.4242 40.7138C95.1523 29.5069 83.0541 22.976 71.3743 25.5692C61.2027 27.8479 53.7994 35.8554 52.2314 46.3195C50.8059 55.8584 56.0709 65.917 65.1481 70.6933C66.4678 71.3906 66.9874 72.0602 66.9874 73.6143C66.8495 80.2045 66.8864 86.7995 66.8588 93.3897C66.8312 99.9069 66.805 106.422 66.7805 112.937C66.7805 115.876 66.7806 115.876 69.8339 115.895C74.2667 115.895 78.7041 115.835 83.1323 115.995C85.2153 116.072 85.8913 115.494 85.8913 113.343C85.8453 100.463 85.9924 87.5834 85.9556 74.7038C85.9556 72.6074 86.4155 71.4544 88.4572 70.3697C99.0748 64.6865 103.705 51.9162 99.4242 40.7138ZM76.1979 113.693C75.3553 113.658 74.559 113.302 73.9748 112.699C73.3905 112.096 73.0636 111.294 73.0619 110.458C73.1198 109.62 73.4943 108.835 74.1107 108.26C74.7271 107.685 75.5398 107.361 76.3865 107.354C77.2285 107.406 78.0173 107.78 78.588 108.396C79.1588 109.011 79.4673 109.822 79.449 110.658C79.4539 111.074 79.3717 111.487 79.2075 111.869C79.0434 112.252 78.8008 112.597 78.4953 112.882C78.1898 113.168 77.8278 113.387 77.4324 113.527C77.037 113.666 76.6166 113.723 76.1979 113.693ZM84.4152 103.425H68.6014V76.3217H84.4152V103.425ZM76.5336 61.013C73.4063 61.0157 70.4037 59.7975 68.1756 57.6225C65.9476 55.4475 64.6732 52.4906 64.6285 49.3914C64.5549 42.947 70.004 37.5418 76.5842 37.5418C78.1339 37.5346 79.6698 37.8308 81.1035 38.4137C82.5373 38.9966 83.8408 39.8548 84.9389 40.9386C86.0371 42.0223 86.9084 43.3103 87.5027 44.7288C88.097 46.1473 88.4026 47.6685 88.402 49.2044C88.3974 55.8903 83.2656 60.9993 76.5336 60.9948V61.013Z" fill="#323232"/>
</g>
<path d="M41 11.7898L41 127.21C41 129.856 42.9734 132 45.4077 132H108.592C111.027 132 113 129.856 113 127.21L113 11.7898C113 9.14448 111.027 6.99999 108.592 6.99999H45.4077C42.9734 6.99999 41 9.14448 41 11.7898Z" stroke="#323232" stroke-width="1.5"/>
<path d="M47 18.8171L47 121.183C47 123.843 48.9867 126 51.4373 126H102.563C105.013 126 107 123.843 107 121.183V18.8171C107 16.1567 105.013 14 102.563 14H51.4373C48.9867 14 47 16.1567 47 18.8171Z" stroke="#323232" stroke-width="1.5" stroke-dasharray="1.5 2"/>
<defs>
<clipPath id="clip0_3749_5216">
<rect width="49" height="91" fill="white" transform="translate(52 25)"/>
</clipPath>
</defs>
</svg>
