<svg width="15" height="29" viewBox="0 0 15 29" fill="none" xmlns="http://www.w3.org/2000/svg">
<path d="M10.4291 29V27.6063C10.4291 23.7029 10.4462 19.7995 10.412 15.8961C10.375 15.5957 10.4338 15.291 10.5797 15.0277C10.7256 14.7644 10.9506 14.5565 11.2212 14.4353C13.9877 12.8488 15.3781 9.81606 14.9109 6.58465C14.6604 4.8767 13.8608 3.30347 12.639 2.11463C11.4172 0.925792 9.84328 0.189478 8.1669 0.0224957C6.46917 -0.110031 4.7772 0.345752 3.36218 1.31683C1.94715 2.28791 0.891027 3.71803 0.363063 5.37798C-0.702523 8.84605 0.63088 12.6004 3.66239 14.3622C4.39747 14.7888 4.61971 15.2388 4.61116 16.0539C4.57127 20.0304 4.59121 24.0068 4.59691 27.9803C4.59691 28.4273 4.44306 28.9912 5.19809 28.9883C6.89619 28.9971 8.59428 29 10.4291 29ZM3.83334 7.69491C3.87388 6.70074 4.28869 5.76139 4.99057 5.07432C5.69246 4.38726 6.62675 4.00595 7.59707 4.0106C8.56697 4.03736 9.48792 4.45332 10.1619 5.16905C10.8359 5.88478 11.2091 6.84314 11.2013 7.83807C11.1665 8.83145 10.7559 9.77188 10.0565 10.4602C9.35714 11.1484 8.42394 11.5305 7.45462 11.5253C5.47445 11.4961 3.76781 9.69044 3.83334 7.69491ZM6.55428 27.0045C6.55428 26.7472 6.65394 26.5005 6.83134 26.3186C7.00873 26.1367 7.24933 26.0345 7.5002 26.0345C7.75108 26.0345 7.99168 26.1367 8.16907 26.3186C8.34646 26.5005 8.44613 26.7472 8.44613 27.0045C8.44613 27.262 8.34656 27.509 8.16924 27.6914C7.99193 27.8738 7.75134 27.9766 7.5002 27.9774C7.37574 27.9774 7.2525 27.9522 7.13755 27.9033C7.0226 27.8544 6.9182 27.7826 6.83033 27.6923C6.74245 27.6019 6.67283 27.4946 6.62547 27.3766C6.5781 27.2586 6.5539 27.1321 6.55428 27.0045Z" fill="#2D6759"/>
</svg>
