<svg width="29" height="55" viewBox="0 0 29 55" fill="none" xmlns="http://www.w3.org/2000/svg">
<path d="M28.0618 9.49574C25.534 2.72221 18.3753 -1.22511 11.4641 0.342248C5.44542 1.71954 1.06476 6.5593 0.136919 12.8838C-0.706569 18.6492 2.40885 24.7287 7.77997 27.6155C8.56087 28.037 8.86834 28.4417 8.86834 29.381C8.78671 33.3641 8.80854 37.3502 8.79221 41.3333C8.77588 45.2724 8.76042 49.2104 8.74591 53.1476C8.74591 54.9243 8.74595 54.9244 10.5526 54.9354C13.1756 54.9354 15.8013 54.8995 18.4215 54.996C19.6541 55.0428 20.0541 54.6931 20.0541 53.393C20.0269 45.6085 20.1139 37.824 20.0922 30.0395C20.0922 28.7724 20.3643 28.0755 21.5724 27.4199C27.855 23.985 30.595 16.2665 28.0618 9.49574ZM14.3184 53.6049C13.8198 53.5837 13.3486 53.3683 13.0029 53.004C12.6572 52.6396 12.4637 52.1545 12.4627 51.6493C12.497 51.1433 12.7186 50.6687 13.0833 50.321C13.448 49.9732 13.929 49.7776 14.43 49.7733C14.9282 49.8051 15.3949 50.0308 15.7326 50.403C16.0704 50.7752 16.2529 51.2651 16.2421 51.7703C16.245 52.0218 16.1963 52.2711 16.0992 52.5026C16.0021 52.734 15.8586 52.9424 15.6778 53.1148C15.497 53.2872 15.2828 53.42 15.0488 53.5043C14.8148 53.5887 14.5661 53.6229 14.3184 53.6049ZM19.1807 47.3988H9.82339V31.0173H19.1807V47.3988ZM14.517 21.7647C12.6665 21.7663 10.8898 21.03 9.57142 19.7154C8.25303 18.4008 7.499 16.6137 7.47253 14.7405C7.429 10.8455 10.6533 7.57856 14.5469 7.57856C15.4639 7.5742 16.3727 7.75321 17.2211 8.10554C18.0695 8.45786 18.8408 8.97656 19.4906 9.63159C20.1404 10.2866 20.656 11.065 21.0076 11.9224C21.3593 12.7798 21.5401 13.6992 21.5397 14.6275C21.537 18.6685 18.5004 21.7564 14.517 21.7537V21.7647Z" fill="#F1F1F1"/>
</svg>
