<svg width="111" height="132" viewBox="0 0 111 132" fill="none" xmlns="http://www.w3.org/2000/svg">
<path opacity="0.4" d="M106.03 33.6722C105.91 33.6423 105.805 33.5675 105.738 33.4632C105.671 33.359 105.646 33.233 105.669 33.1111C105.691 32.9891 105.759 32.8803 105.859 32.8069C105.959 32.7334 106.083 32.7009 106.207 32.7158C106.33 32.7308 106.442 32.7921 106.522 32.8873C106.601 32.9826 106.641 33.1045 106.634 33.2283C106.627 33.3521 106.573 33.4684 106.482 33.5536C106.392 33.6388 106.273 33.6864 106.149 33.6867C106.109 33.6868 106.069 33.6819 106.03 33.6722ZM107.532 31.8918C107.532 31.7503 107.574 31.6121 107.653 31.4945C107.732 31.3769 107.843 31.2852 107.974 31.2311C108.105 31.177 108.248 31.1628 108.387 31.1904C108.526 31.218 108.653 31.2861 108.753 31.3861C108.853 31.4861 108.921 31.6135 108.949 31.7522C108.976 31.891 108.962 32.0347 108.908 32.1654C108.854 32.2961 108.762 32.4078 108.645 32.4863C108.527 32.5649 108.389 32.6068 108.248 32.6068C108.154 32.6068 108.061 32.5883 107.974 32.5524C107.887 32.5165 107.808 32.4638 107.742 32.3974C107.608 32.2633 107.532 32.0814 107.532 31.8918ZM105.449 15.9056C105.449 15.7263 105.503 15.5511 105.602 15.4021C105.702 15.2532 105.844 15.1371 106.01 15.0687C106.175 15.0002 106.358 14.9824 106.533 15.0176C106.709 15.0527 106.871 15.1392 106.997 15.2661C107.124 15.393 107.21 15.5545 107.245 15.7304C107.28 15.9063 107.261 16.0885 107.193 16.2541C107.124 16.4196 107.008 16.5611 106.859 16.6605C106.709 16.76 106.534 16.813 106.355 16.8128C106.236 16.8128 106.118 16.7893 106.008 16.7437C105.898 16.6981 105.798 16.6312 105.714 16.547C105.63 16.4627 105.563 16.3627 105.518 16.2526C105.472 16.1426 105.449 16.0246 105.449 15.9056Z" fill="url(#paint0_linear_1644_5745)"/>
<path opacity="0.4" d="M100.623 32.6064C105.229 32.6064 108.964 28.8719 108.964 24.2651C108.964 19.6584 105.229 15.9238 100.623 15.9238C96.0158 15.9238 92.2812 19.6584 92.2812 24.2651C92.2812 28.8719 96.0158 32.6064 100.623 32.6064Z" fill="url(#paint1_linear_1644_5745)"/>
<path opacity="0.4" d="M25.5431 126.937C37.9932 126.937 48.0861 116.844 48.0861 104.394C48.0861 91.9443 37.9932 81.8516 25.5431 81.8516C13.0929 81.8516 3 91.9443 3 104.394C3 116.844 13.0929 126.937 25.5431 126.937Z" fill="url(#paint2_linear_1644_5745)"/>
<path opacity="0.4" d="M19.3117 130.069C19.3117 129.687 19.4249 129.314 19.6371 128.996C19.8493 128.679 20.1509 128.431 20.5037 128.285C20.8566 128.139 21.2449 128.1 21.6194 128.175C21.994 128.249 22.3381 128.433 22.6082 128.703C22.8782 128.973 23.0621 129.318 23.1366 129.692C23.2111 130.067 23.1729 130.455 23.0268 130.808C22.8806 131.161 22.6331 131.462 22.3155 131.674C21.998 131.887 21.6246 132 21.2427 132C20.7306 132 20.2394 131.796 19.8773 131.434C19.5151 131.072 19.3117 130.581 19.3117 130.069ZM26.0656 130.162C26.0656 129.901 26.143 129.646 26.2879 129.429C26.4329 129.212 26.6389 129.043 26.8799 128.943C27.121 128.843 27.3862 128.817 27.642 128.868C27.8979 128.919 28.1328 129.045 28.3172 129.229C28.5017 129.414 28.6272 129.649 28.678 129.905C28.7288 130.161 28.7025 130.426 28.6026 130.667C28.5026 130.908 28.3335 131.114 28.1165 131.258C27.8995 131.403 27.6444 131.48 27.3836 131.48C27.0339 131.48 26.6987 131.341 26.4516 131.094C26.2044 130.846 26.0656 130.511 26.0656 130.162ZM8.36328 82.396C8.36328 81.9115 8.50695 81.4378 8.77613 81.035C9.04531 80.6322 9.4279 80.3182 9.87552 80.1328C10.3231 79.9474 10.8157 79.8988 11.2909 79.9934C11.7661 80.0879 12.2026 80.3212 12.5452 80.6638C12.8878 81.0064 13.1211 81.4429 13.2156 81.9181C13.3101 82.3932 13.2616 82.8858 13.0762 83.3334C12.8908 83.781 12.5768 84.1636 12.174 84.4328C11.7711 84.702 11.2975 84.8456 10.813 84.8456C10.1633 84.8456 9.54019 84.5875 9.08078 84.1281C8.62137 83.6687 8.36328 83.0457 8.36328 82.396Z" fill="url(#paint3_linear_1644_5745)"/>
<path d="M37.0117 27.3042L37.0117 122.585C37.0117 125.155 38.9709 127.237 41.3876 127.237H94.7074C97.1242 127.237 99.0833 125.155 99.0833 122.585V27.3042C99.0833 24.735 97.1242 22.6523 94.7074 22.6523H41.3876C38.9709 22.6523 37.0117 24.735 37.0117 27.3042Z" fill="#F6F2ED"/>
<g clip-path="url(#clip0_1644_5745)">
<path d="M86.6735 53.3949C83.0998 45.2666 72.9788 40.5299 63.2079 42.4107C54.6987 44.0635 48.5053 49.8712 47.1936 57.4606C46.0011 64.379 50.4056 71.6744 57.9993 75.1386C59.1033 75.6443 59.538 76.13 59.538 77.2572C59.4226 82.0369 59.4534 86.8202 59.4304 91.6C59.4073 96.3268 59.3854 101.052 59.3649 105.777C59.3649 107.909 59.365 107.909 61.9193 107.923C65.6276 107.923 69.3398 107.879 73.0443 107.995C74.7869 108.051 75.3524 107.632 75.3524 106.072C75.3139 96.7302 75.4369 87.3887 75.4062 78.0474C75.4062 76.5269 75.7909 75.6906 77.4989 74.9039C86.3812 70.782 90.2549 61.5198 86.6735 53.3949ZM67.2432 106.326C66.5383 106.3 65.8721 106.042 65.3834 105.605C64.8946 105.168 64.6211 104.585 64.6197 103.979C64.6682 103.372 64.9815 102.802 65.4971 102.385C66.0127 101.968 66.6927 101.733 67.401 101.728C68.1054 101.766 68.7652 102.037 69.2427 102.484C69.7202 102.93 69.9782 103.518 69.9629 104.124C69.967 104.426 69.8983 104.725 69.7609 105.003C69.6236 105.281 69.4207 105.531 69.1651 105.738C68.9095 105.945 68.6067 106.104 68.2759 106.205C67.9451 106.306 67.5935 106.347 67.2432 106.326ZM74.1175 98.8785H60.8882V79.2208H74.1175V98.8785ZM67.524 68.1176C64.9078 68.1196 62.3959 67.236 60.532 65.6585C58.6681 64.081 57.602 61.9364 57.5646 59.6886C57.5031 55.0146 62.0616 51.0943 67.5664 51.0943C68.8628 51.089 70.1476 51.3038 71.3471 51.7266C72.5465 52.1494 73.637 52.7719 74.5557 53.5579C75.4743 54.3439 76.2033 55.2781 76.7004 56.3069C77.1976 57.3357 77.4532 58.439 77.4527 59.553C77.4489 64.4022 73.1558 68.1077 67.524 68.1044V68.1176Z" fill="#372E26"/>
</g>
<path d="M37.8633 25.0245L37.8633 123.165C37.8633 125.414 39.5413 127.237 41.6111 127.237H95.3368C97.4066 127.237 99.0846 125.414 99.0846 123.165V25.0245C99.0846 22.7752 97.4066 20.9517 95.3368 20.9517H41.6111C39.5413 20.9517 37.8633 22.7752 37.8633 25.0245Z" stroke="#372E26" stroke-width="1.5"/>
<path d="M42.9648 30.9998L42.9648 118.04C42.9648 120.302 44.6541 122.136 46.7379 122.136H90.2096C92.2934 122.136 93.9826 120.302 93.9826 118.04V30.9998C93.9826 28.7377 92.2934 26.9039 90.2096 26.9039H46.7379C44.6541 26.9039 42.9648 28.7377 42.9648 30.9998Z" stroke="#372E26" stroke-width="1.5" stroke-dasharray="1.5 2"/>
<rect x="23.5195" y="0.75" width="32.1559" height="32.1558" rx="16.0779" fill="url(#paint4_linear_1644_5745)"/>
<rect x="23.5195" y="0.75" width="32.1559" height="32.1558" rx="16.0779" stroke="#F9F4F0" stroke-width="1.5"/>
<path d="M44.7308 12L37.1079 19.323L33.6072 15.7232L31.7695 17.4202L36.1568 21.9331C36.2726 22.0522 36.4115 22.1476 36.5656 22.2137C36.7196 22.2798 36.8856 22.3154 37.0539 22.3182H37.0751C37.4074 22.318 37.7263 22.1903 37.9629 21.9628L46.5099 13.7565L44.7308 12Z" fill="#F6F2ED"/>
<defs>
<linearGradient id="paint0_linear_1644_5745" x1="107.206" y1="15" x2="107.206" y2="33.6867" gradientUnits="userSpaceOnUse">
<stop stop-color="#58A4A4"/>
<stop offset="1" stop-color="#073E39"/>
</linearGradient>
<linearGradient id="paint1_linear_1644_5745" x1="100.623" y1="15.9238" x2="100.623" y2="32.6064" gradientUnits="userSpaceOnUse">
<stop stop-color="#58A4A4"/>
<stop offset="1" stop-color="#073E39"/>
</linearGradient>
<linearGradient id="paint2_linear_1644_5745" x1="25.5431" y1="81.8516" x2="25.5431" y2="126.937" gradientUnits="userSpaceOnUse">
<stop stop-color="#58A4A4"/>
<stop offset="1" stop-color="#073E39"/>
</linearGradient>
<linearGradient id="paint3_linear_1644_5745" x1="18.5332" y1="79.9463" x2="18.5332" y2="132" gradientUnits="userSpaceOnUse">
<stop stop-color="#58A4A4"/>
<stop offset="1" stop-color="#073E39"/>
</linearGradient>
<linearGradient id="paint4_linear_1644_5745" x1="39.5975" y1="0" x2="39.5975" y2="33.6558" gradientUnits="userSpaceOnUse">
<stop stop-color="#58A4A4"/>
<stop offset="1" stop-color="#073E39"/>
</linearGradient>
<clipPath id="clip0_1644_5745">
<rect width="41.6645" height="77.3759" fill="white" transform="translate(47.2148 36.2568)"/>
</clipPath>
</defs>
</svg>
