<svg xmlns="http://www.w3.org/2000/svg" width="280.908" height="215.833" viewBox="0 0 280.908 215.833">
  <g id="illustration" transform="translate(-49.118 -368)">
    <g id="background" transform="translate(0.063 146.001)">
      <circle id="Ellipse_1999" data-name="Ellipse 1999" cx="100.777" cy="100.777" r="100.777" transform="translate(83.279 222.999)" fill="#073b36" opacity="0.26"/>
      <path id="Path_25534" data-name="Path 25534" d="M122.53,21.4a5.9,5.9,0,1,0-5.9-5.9A5.9,5.9,0,0,0,122.53,21.4Z" transform="translate(189.572 307.115)" fill="#073b36" opacity="0.2"/>
      <g id="Group_41131" data-name="Group 41131" transform="translate(57.255 62.5)">
        <g id="Group_40642" data-name="Group 40642" transform="translate(47.898 362.053)">
          <g id="Group_40641" data-name="Group 40641">
            <rect id="Rectangle_7701" data-name="Rectangle 7701" width="1.822" height="3.536" fill="#508b82"/>
          </g>
        </g>
        <g id="Group_40644" data-name="Group 40644" transform="translate(47.898 371.796)">
          <g id="Group_40643" data-name="Group 40643" transform="translate(0 0)">
            <rect id="Rectangle_7702" data-name="Rectangle 7702" width="1.822" height="3.536" fill="#508b82"/>
          </g>
        </g>
        <g id="Group_40646" data-name="Group 40646" transform="translate(51.913 367.782)">
          <g id="Group_40645" data-name="Group 40645">
            <rect id="Rectangle_7703" data-name="Rectangle 7703" width="3.536" height="1.822" fill="#508b82"/>
          </g>
        </g>
        <g id="Group_40648" data-name="Group 40648" transform="translate(42.17 367.782)">
          <g id="Group_40647" data-name="Group 40647">
            <rect id="Rectangle_7704" data-name="Rectangle 7704" width="3.536" height="1.822" fill="#508b82"/>
          </g>
        </g>
      </g>
      <g id="Group_40650" data-name="Group 40650" transform="translate(51.937 266.141)">
        <g id="Group_40649" data-name="Group 40649">
          <circle id="Ellipse_2034" data-name="Ellipse 2034" cx="3.612" cy="3.612" r="3.612" fill="#508b82"/>
        </g>
      </g>
      <g id="Group_40652" data-name="Group 40652" transform="translate(65.527 320.894)">
        <g id="Group_40651" data-name="Group 40651">
          <circle id="Ellipse_2035" data-name="Ellipse 2035" cx="2.865" cy="2.865" r="2.865" fill="#508b82"/>
        </g>
      </g>
      <g id="Group_40656" data-name="Group 40656" transform="translate(323.563 331.07)">
        <g id="Group_40655" data-name="Group 40655">
          <circle id="Ellipse_2037" data-name="Ellipse 2037" cx="3.201" cy="3.201" r="3.201" fill="#508b82"/>
        </g>
      </g>
      <g id="Group_41157" data-name="Group 41157" transform="translate(274.527 239.751)">
        <g id="Group_40651-2" data-name="Group 40651">
          <circle id="Ellipse_2035-2" data-name="Ellipse 2035" cx="2.865" cy="2.865" r="2.865" fill="#508b82"/>
        </g>
      </g>
    </g>
    <g id="Group_54276" data-name="Group 54276" transform="translate(0 -4)">
      <g id="Group_52290" data-name="Group 52290" transform="translate(159.25 424.463)">
        <g id="Group_52289" data-name="Group 52289">
          <g id="Group_52288" data-name="Group 52288">
            <path id="Path_205936" data-name="Path 205936" d="M259.58,169.15a16.332,16.332,0,0,1-16.184-14c0-.015,0-.031-.006-.047a16.327,16.327,0,0,1-.162-2.3c0-.364.013-.72.04-1.077a1.088,1.088,0,0,0-1.084-1.169H212.775a10.152,10.152,0,0,0-10.144,10.136v93.835a10.155,10.155,0,0,0,10.144,10.144h37.748a10.155,10.155,0,0,0,10.144-10.144V170.237A1.087,1.087,0,0,0,259.58,169.15Zm-1.087,85.373a7.979,7.979,0,0,1-7.97,7.97H212.775a7.979,7.979,0,0,1-7.97-7.97V160.688a7.976,7.976,0,0,1,7.97-7.963h28.279v.072a18.55,18.55,0,0,0,.178,2.571c0,.015,0,.031.005.046a18.5,18.5,0,0,0,17.255,15.879Z" transform="translate(-202.631 -150.551)" fill="#f2ede6"/>
          </g>
        </g>
      </g>
      <g id="Group_52293" data-name="Group 52293" transform="translate(162.873 428.086)">
        <g id="Group_52292" data-name="Group 52292">
          <g id="Group_52291" data-name="Group 52291">
            <path id="Path_205937" data-name="Path 205937" d="M259.4,172.019a16.376,16.376,0,0,1-12.791-13.688l-.132-.935H216a6.525,6.525,0,0,0-6.521,6.514v93.835A6.528,6.528,0,0,0,216,264.266h37.748a6.528,6.528,0,0,0,6.521-6.521V172.2Zm-1.311,85.727a4.352,4.352,0,0,1-4.347,4.347H216a4.352,4.352,0,0,1-4.348-4.347V163.91A4.349,4.349,0,0,1,216,159.57h28.62a18.568,18.568,0,0,0,13.476,14.372v83.8Z" transform="translate(-209.476 -157.396)" fill="#b2d0cb"/>
          </g>
        </g>
      </g>
      <g id="Group_52296" data-name="Group 52296" transform="translate(238.044 424.463)">
        <g id="Group_52295" data-name="Group 52295">
          <g id="Group_52294" data-name="Group 52294">
            <path id="Path_205938" data-name="Path 205938" d="M408.561,169.076a16.545,16.545,0,0,1-3.4-.713l-.065-.019a16.42,16.42,0,0,1-11.107-13.2c0-.016,0-.033-.006-.048a16.129,16.129,0,0,1-.163-2.3c0-.364.013-.72.04-1.077a1.088,1.088,0,0,0-1.084-1.169H361.643A10.152,10.152,0,0,0,351.5,160.686v93.835a10.155,10.155,0,0,0,10.144,10.144h37.748a10.155,10.155,0,0,0,10.144-10.144V170.156A1.086,1.086,0,0,0,408.561,169.076Zm-1.2,85.447a7.979,7.979,0,0,1-7.97,7.97H361.643a7.979,7.979,0,0,1-7.97-7.97V160.687a7.976,7.976,0,0,1,7.97-7.963h30v.072a18.279,18.279,0,0,0,.18,2.571c0,.015,0,.03.005.044a18.606,18.606,0,0,0,12.654,15.018c.021.006.042.013.063.017a18.538,18.538,0,0,0,2.813.663v83.412Z" transform="translate(-351.499 -150.55)" fill="#f2ede6"/>
          </g>
        </g>
      </g>
      <g id="Group_52299" data-name="Group 52299" transform="translate(241.667 428.086)">
        <g id="Group_52298" data-name="Group 52298">
          <g id="Group_52297" data-name="Group 52297">
            <path id="Path_205939" data-name="Path 205939" d="M409.128,171.826l-.754-.243a16.42,16.42,0,0,1-11.168-13.253l-.132-.935H364.866a6.525,6.525,0,0,0-6.521,6.514v93.835a6.528,6.528,0,0,0,6.521,6.521h37.748a6.528,6.528,0,0,0,6.521-6.521Zm-6.514,90.266H364.866a4.352,4.352,0,0,1-4.347-4.347V163.909a4.349,4.349,0,0,1,4.347-4.34h30.345a18.624,18.624,0,0,0,11.743,13.822l.007,84.354A4.352,4.352,0,0,1,402.614,262.092Z" transform="translate(-358.345 -157.395)" fill="#508b82"/>
          </g>
        </g>
      </g>
      <g id="Group_52314" data-name="Group 52314" transform="translate(250.396 456.973)">
        <g id="Group_52313" data-name="Group 52313">
          <g id="Group_52312" data-name="Group 52312">
            <path id="Path_205944" data-name="Path 205944" d="M408.34,211.972H375.922a1.087,1.087,0,0,0-1.087,1.087v6.768a1.087,1.087,0,0,0,1.087,1.087H408.34a1.087,1.087,0,0,0,1.087-1.087v-6.768A1.087,1.087,0,0,0,408.34,211.972Zm-1.087,6.767H377.008v-4.594h30.246Z" transform="translate(-374.835 -211.972)" fill="#508b82"/>
          </g>
        </g>
      </g>
      <g id="Group_52317" data-name="Group 52317" transform="translate(250.396 469.203)">
        <g id="Group_52316" data-name="Group 52316" transform="translate(0 0)">
          <g id="Group_52315" data-name="Group 52315">
            <path id="Path_205945" data-name="Path 205945" d="M408.34,235.08H375.922a1.087,1.087,0,0,0-1.087,1.087v6.767a1.087,1.087,0,0,0,1.087,1.087H408.34a1.087,1.087,0,0,0,1.087-1.087v-6.767A1.087,1.087,0,0,0,408.34,235.08Zm-1.087,6.767H377.008v-4.594h30.246Z" transform="translate(-374.835 -235.08)" fill="#b2d0cb"/>
          </g>
        </g>
      </g>
      <g id="Group_52332" data-name="Group 52332" transform="translate(250.396 481.214)">
        <g id="Group_52331" data-name="Group 52331">
          <g id="Group_52330" data-name="Group 52330">
            <path id="Path_205950" data-name="Path 205950" d="M408.34,257.772H375.922a1.087,1.087,0,0,0-1.087,1.087v6.767a1.087,1.087,0,0,0,1.087,1.087H408.34a1.087,1.087,0,0,0,1.087-1.087v-6.767A1.087,1.087,0,0,0,408.34,257.772Zm-1.087,6.767H377.008v-4.594h30.246Z" transform="translate(-374.835 -257.772)" fill="#508b82"/>
          </g>
        </g>
      </g>
      <g id="Group_52335" data-name="Group 52335" transform="translate(250.396 493.445)">
        <g id="Group_52334" data-name="Group 52334">
          <g id="Group_52333" data-name="Group 52333">
            <path id="Path_205951" data-name="Path 205951" d="M408.34,280.88H375.922a1.087,1.087,0,0,0-1.087,1.087v6.768a1.087,1.087,0,0,0,1.087,1.087H408.34a1.087,1.087,0,0,0,1.087-1.087v-6.768A1.087,1.087,0,0,0,408.34,280.88Zm-1.087,6.767H377.008v-4.594h30.246Z" transform="translate(-374.835 -280.88)" fill="#f2ede6"/>
          </g>
        </g>
      </g>
      <g id="Group_52338" data-name="Group 52338" transform="translate(109.976 407.526)">
        <g id="Group_52337" data-name="Group 52337">
          <g id="Group_52336" data-name="Group 52336">
            <path id="Path_205952" data-name="Path 205952" d="M123.072,126.941l1.3,1.738c.565-.424,1.145-.836,1.725-1.226l-1.213-1.8C124.279,126.06,123.668,126.494,123.072,126.941Zm7.654-4.569.907,1.975c.646-.3,1.3-.576,1.946-.833l-.8-2.021C132.1,121.764,131.407,122.06,130.726,122.373Zm-3.951,2.081,1.115,1.866c.6-.36,1.223-.708,1.845-1.036l-1.013-1.923C128.066,123.706,127.412,124.074,126.775,124.453Zm12.4-4.918.467,2.122c.68-.149,1.378-.284,2.077-.4l-.354-2.145C140.632,119.236,139.9,119.377,139.178,119.535Zm-4.3,1.191.691,2.061c.664-.223,1.345-.431,2.026-.62l-.582-2.094C136.3,120.271,135.577,120.491,134.877,120.726Zm-23.408,19.6,1.9,1.046c.34-.619.7-1.233,1.067-1.825l-1.847-1.146C112.2,139.021,111.827,139.669,111.468,140.323Zm-1.933,4.017,2.007.836c.268-.645.559-1.294.865-1.927l-1.958-.943C110.126,142.974,109.819,143.659,109.535,144.34Zm34.043-25.529.239,2.161c.689-.076,1.4-.136,2.107-.177l-.124-2.17C145.053,118.667,144.3,118.73,143.578,118.81Zm-27.021,14.205,1.642,1.425c.464-.535.945-1.06,1.428-1.561l-1.564-1.508C117.553,131.9,117.046,132.452,116.557,133.015Zm-2.739,3.518,1.783,1.244c.4-.579.826-1.151,1.254-1.7l-1.715-1.334C114.688,135.321,114.243,135.924,113.818,136.534Zm5.834-6.728,1.481,1.59c.519-.483,1.052-.955,1.586-1.4l-1.4-1.666C120.761,128.8,120.2,129.3,119.652,129.806Zm59.962,2.9-1.628,1.441c.463.523.921,1.069,1.359,1.621l1.7-1.351C180.587,133.833,180.1,133.257,179.615,132.7Zm2.775,3.494-1.772,1.26c.407.572.8,1.162,1.18,1.756l1.836-1.163C183.237,137.425,182.819,136.8,182.39,136.2Zm-5.9-6.674-1.466,1.6c.516.471,1.028.966,1.523,1.468l1.55-1.524C177.572,130.544,177.032,130.022,176.487,129.525Zm8.292,10.443-1.9,1.064c.344.613.676,1.242.987,1.872l1.949-.962C185.491,141.278,185.142,140.614,184.779,139.968Zm1.975,4-2,.857c.275.64.537,1.3.78,1.966l2.042-.747C187.321,145.346,187.044,144.648,186.754,143.971Zm-15-15.525c.562.414,1.124.851,1.668,1.3l1.38-1.68c-.574-.472-1.167-.933-1.76-1.369Zm-19.49-7.514c.7.071,1.408.162,2.1.269l.332-2.148c-.727-.112-1.471-.208-2.212-.283Zm4.177.649c.686.145,1.378.31,2.057.491l.561-2.1c-.716-.191-1.447-.365-2.17-.518Zm11.781,4.543c.6.353,1.208.727,1.8,1.114l1.194-1.815c-.62-.408-1.257-.8-1.895-1.176Zm-20.2-7.568.024,2.174h.216c.622,0,1.258.015,1.891.046l.1-2.171c-.683-.033-1.369-.067-2.037-.049Zm16.443,5.634c.635.284,1.276.593,1.9.916l.995-1.933c-.662-.34-1.339-.666-2.01-.966Zm-3.941-1.519c.662.215,1.332.453,1.99.707l.783-2.028c-.7-.268-1.4-.519-2.1-.746Z" transform="translate(-109.535 -118.551)" fill="#f2ede6"/>
          </g>
        </g>
      </g>
      <g id="Group_52341" data-name="Group 52341" transform="translate(103.552 434.046)">
        <g id="Group_52340" data-name="Group 52340">
          <g id="Group_52339" data-name="Group 52339">
            <path id="Path_205953" data-name="Path 205953" d="M102.692,168.655a5.293,5.293,0,1,0,5.293,5.293A5.3,5.3,0,0,0,102.692,168.655Zm0,8.413a3.12,3.12,0,1,1,3.12-3.12A3.123,3.123,0,0,1,102.692,177.068Z" transform="translate(-97.399 -168.655)" fill="#f2ede6"/>
          </g>
        </g>
      </g>
      <g id="Group_52344" data-name="Group 52344" transform="translate(183.026 434.046)">
        <g id="Group_52343" data-name="Group 52343">
          <g id="Group_52342" data-name="Group 52342">
            <path id="Path_205954" data-name="Path 205954" d="M252.846,168.655a5.293,5.293,0,1,0,5.293,5.293A5.3,5.3,0,0,0,252.846,168.655Zm0,8.413a3.12,3.12,0,1,1,3.12-3.12A3.123,3.123,0,0,1,252.846,177.068Z" transform="translate(-247.553 -168.655)" fill="#f2ede6"/>
          </g>
        </g>
      </g>
      <g id="Group_52347" data-name="Group 52347" transform="translate(188.907 530.08)">
        <g id="Group_52346" data-name="Group 52346">
          <g id="Group_52345" data-name="Group 52345">
            <path id="Path_205955" data-name="Path 205955" d="M295.911,378.43c.739.04,1.489.061,2.229.062l0-2.174c-.7,0-1.414-.021-2.116-.059Zm-17.079-4.663c.66.343,1.335.672,2,.975l.9-1.98c-.634-.287-1.273-.6-1.9-.924Zm12.645,4.186c.726.117,1.47.217,2.21.3l.232-2.161c-.7-.076-1.407-.17-2.1-.281Zm-16.485-6.448c.619.41,1.255.808,1.891,1.182l1.1-1.874c-.6-.355-1.2-.731-1.792-1.12Zm12.125,5.505c.71.194,1.439.372,2.168.529l.458-2.124c-.69-.149-1.381-.319-2.053-.5Zm-4.228-1.4c.685.269,1.391.523,2.1.756l.683-2.063c-.668-.221-1.338-.463-1.987-.717ZM262.37,353.993l-1.95.96c.327.664.676,1.33,1.038,1.976l1.9-1.063C263.011,355.253,262.68,354.622,262.37,353.993ZM260.7,350.1l-2.042.747c.257.7.534,1.4.825,2.077l2-.857C261.21,351.427,260.947,350.765,260.7,350.1Zm10.705,18.747c.567.47,1.158.933,1.756,1.376l1.295-1.746c-.567-.42-1.126-.858-1.665-1.3Zm-6.972-11.164-1.837,1.162c.4.629.815,1.252,1.242,1.854l1.773-1.258C265.211,358.872,264.815,358.28,264.438,357.684Zm3.69,8.147c.524.536,1.064,1.059,1.6,1.553l1.469-1.6c-.511-.468-1.022-.963-1.519-1.471Zm-1.243-4.7-1.7,1.35c.455.574.935,1.15,1.428,1.71l1.633-1.435C267.774,362.228,267.317,361.68,266.885,361.135Zm62.6.129,1.7,1.355c.459-.576.911-1.174,1.344-1.779l-1.767-1.265C330.354,360.15,329.925,360.718,329.489,361.264Zm-2.808,3.162,1.548,1.527c.517-.525,1.031-1.073,1.523-1.628l-1.624-1.443C327.659,363.409,327.172,363.928,326.68,364.426Zm-3.125,2.852,1.378,1.68c.577-.473,1.145-.964,1.687-1.459l-1.465-1.606C324.641,366.362,324.1,366.828,323.555,367.278Zm8.393-9.454,1.832,1.169c.4-.628.787-1.271,1.149-1.91l-1.892-1.07C332.7,356.619,332.329,357.228,331.949,357.824Zm3.825-7.727-.062.167,2.035.763.065-.176Zm-1.743,4.048,1.946.969c.331-.665.647-1.345.941-2.021l-2-.863C334.644,352.87,334.345,353.515,334.03,354.145ZM300.259,376.27l.107,2.171c.739-.037,1.487-.093,2.224-.169l-.222-2.162C301.67,376.181,300.96,376.235,300.259,376.27Zm4.207-.433.336,2.148c.736-.115,1.474-.251,2.194-.4l-.45-2.127C305.863,375.6,305.164,375.728,304.466,375.837Zm4.138-.875.562,2.1c.712-.19,1.432-.4,2.141-.635l-.672-2.067C309.962,374.579,309.279,374.781,308.6,374.962Zm11.542-5.178,1.193,1.817c.617-.4,1.233-.834,1.832-1.273l-1.286-1.752C321.316,368.994,320.73,369.4,320.146,369.784Zm-3.655,2.133.993,1.933c.653-.336,1.311-.7,1.956-1.072l-1.094-1.878C317.733,371.257,317.109,371.6,316.491,371.917Zm-3.862,1.733.783,2.028c.687-.265,1.38-.554,2.06-.859l-.889-1.984C313.937,373.124,313.28,373.4,312.629,373.65Z" transform="translate(-258.663 -350.097)" fill="#f2ede6"/>
          </g>
        </g>
      </g>
      <g id="Group_52350" data-name="Group 52350" transform="translate(263.209 521.176)">
        <g id="Group_52349" data-name="Group 52349">
          <g id="Group_52348" data-name="Group 52348">
            <path id="Path_205956" data-name="Path 205956" d="M404.361,333.273a5.317,5.317,0,1,0,5.317,5.317A5.323,5.323,0,0,0,404.361,333.273Zm0,8.461a3.143,3.143,0,1,1,3.143-3.142A3.147,3.147,0,0,1,404.361,341.734Z" transform="translate(-399.044 -333.273)" fill="#f2ede6"/>
          </g>
        </g>
      </g>
      <g id="Group_52353" data-name="Group 52353" transform="translate(183.28 521.175)">
        <g id="Group_52352" data-name="Group 52352">
          <g id="Group_52351" data-name="Group 52351">
            <path id="Path_205957" data-name="Path 205957" d="M253.35,333.272a5.317,5.317,0,1,0,5.318,5.317A5.323,5.323,0,0,0,253.35,333.272Zm0,8.461a3.143,3.143,0,1,1,3.145-3.143A3.147,3.147,0,0,1,253.35,341.733Z" transform="translate(-248.033 -333.272)" fill="#f2ede6"/>
          </g>
        </g>
      </g>
      <g id="Group_52355" data-name="Group 52355" transform="translate(143.598 401.069)">
        <g id="Group_52354" data-name="Group 52354" transform="translate(0 0)">
          <path id="Path_205958" data-name="Path 205958" d="M182.9,113.271l-8.451-6.919-1.377,1.683,7.439,6.089-7.451,6.282,1.4,1.661,8.451-7.124a1.087,1.087,0,0,0-.012-1.672Z" transform="translate(-173.058 -106.352)" fill="#f2ede6"/>
        </g>
      </g>
      <g id="Group_52357" data-name="Group 52357" transform="translate(223.796 549.537)">
        <g id="Group_52356" data-name="Group 52356">
          <path id="Path_205959" data-name="Path 205959" d="M334.432,393.982l-8.451-7.125-1.4,1.661,7.45,6.283-7.438,6.088,1.377,1.683,8.451-6.918a1.087,1.087,0,0,0,.012-1.672Z" transform="translate(-324.58 -386.857)" fill="#f2ede6"/>
        </g>
      </g>
      <g id="Group_52359" data-name="Group 52359" transform="translate(286.069 416.358)">
        <g id="Group_52358" data-name="Group 52358">
          <circle id="Ellipse_3289" data-name="Ellipse 3289" cx="10.352" cy="10.352" r="10.352" fill="#508b82"/>
        </g>
      </g>
      <g id="Group_52362" data-name="Group 52362" transform="translate(278.191 408.181)">
        <g id="Group_52361" data-name="Group 52361">
          <g id="Group_52360" data-name="Group 52360">
            <path id="Path_205960" data-name="Path 205960" d="M445.878,119.789a18.528,18.528,0,1,0,18.528,18.528A18.549,18.549,0,0,0,445.878,119.789Zm0,34.883a16.354,16.354,0,1,1,16.354-16.354A16.373,16.373,0,0,1,445.878,154.672Z" transform="translate(-427.35 -119.789)" fill="#b2d0cb"/>
          </g>
        </g>
      </g>
      <g id="Group_52364" data-name="Group 52364" transform="translate(291.128 421.597)">
        <g id="Group_52363" data-name="Group 52363">
          <path id="Path_205961" data-name="Path 205961" d="M463.1,145.136l-6.982,7.372-2.717-2.991-1.609,1.462,3.5,3.859a1.088,1.088,0,0,0,.793.356h.011a1.082,1.082,0,0,0,.789-.34l7.788-8.223Z" transform="translate(-451.793 -145.136)" fill="#f2ede6"/>
        </g>
      </g>
      <g id="Group_52366" data-name="Group 52366" transform="translate(205.549 416.358)">
        <g id="Group_52365" data-name="Group 52365">
          <circle id="Ellipse_3290" data-name="Ellipse 3290" cx="10.352" cy="10.352" r="10.352" fill="#508b82"/>
        </g>
      </g>
      <g id="Group_52369" data-name="Group 52369" transform="translate(197.671 408.181)">
        <g id="Group_52368" data-name="Group 52368">
          <g id="Group_52367" data-name="Group 52367">
            <path id="Path_205962" data-name="Path 205962" d="M293.748,119.789a18.528,18.528,0,1,0,18.528,18.528A18.549,18.549,0,0,0,293.748,119.789Zm0,34.883A16.354,16.354,0,1,1,310.1,138.317,16.373,16.373,0,0,1,293.748,154.672Z" transform="translate(-275.22 -119.789)" fill="#b2d0cb"/>
          </g>
        </g>
      </g>
      <g id="Group_52372" data-name="Group 52372" transform="translate(201.93 412.439)">
        <g id="Group_52371" data-name="Group 52371">
          <g id="Group_52370" data-name="Group 52370">
            <path id="Path_205963" data-name="Path 205963" d="M286.048,138.3l-2.063-.682a14.162,14.162,0,0,0-.551,2.285l2.148.331A12.1,12.1,0,0,1,286.048,138.3Zm1.852-3.514-1.732-1.315a14.417,14.417,0,0,0-1.262,1.983l1.923,1.012A12.054,12.054,0,0,1,287.9,134.79Zm-2.459,7.437-2.174.021a14.461,14.461,0,0,0,.214,2.338l2.141-.375A12.21,12.21,0,0,1,285.441,142.227Zm.687,3.909-2.049.725a14.231,14.231,0,0,0,.963,2.142l1.9-1.052A12.062,12.062,0,0,1,286.128,146.137Zm8.269-15.718-.563-2.1a14.321,14.321,0,0,0-2.212.794l.9,1.978A12.12,12.12,0,0,1,294.4,130.419Zm13.671,5.731,1.891-1.071a14.282,14.282,0,0,0-1.322-1.941l-1.689,1.367A12.227,12.227,0,0,1,308.068,136.15Zm1.36,3.728,2.137-.4a14.249,14.249,0,0,0-.621-2.267l-2.042.746A11.98,11.98,0,0,1,309.428,139.877Zm-18.643-7.812-1.214-1.8a14.308,14.308,0,0,0-1.834,1.468l1.493,1.579A12.093,12.093,0,0,1,290.786,132.065Zm-2.737,17.543-1.7,1.35a14.337,14.337,0,0,0,1.6,1.715l1.46-1.609A12.35,12.35,0,0,1,288.049,149.608Zm23.754-7.789-2.174.034,0,.25a12.216,12.216,0,0,1-.162,1.986l2.145.354a14.526,14.526,0,0,0,.19-2.348Zm-6.05,9.161,1.475,1.6a14.238,14.238,0,0,0,1.588-1.732l-1.718-1.332A12.228,12.228,0,0,1,305.752,150.981Zm-15.94,3.125a14.163,14.163,0,0,0,2.074,1.106l.86-2a12.129,12.129,0,0,1-1.757-.937Zm12.626-.94.88,1.988a14.274,14.274,0,0,0,2.061-1.127l-1.2-1.814A11.944,11.944,0,0,1,302.438,153.166Zm5.748-5.32,1.913,1.03a14.311,14.311,0,0,0,.941-2.153l-2.056-.7A12.211,12.211,0,0,1,308.186,147.846Zm-3.047-17.82-1.16,1.838a12.234,12.234,0,0,1,1.593,1.2l1.443-1.624A14.384,14.384,0,0,0,305.139,130.026Zm-4.323-1.813-.5,2.116a12.06,12.06,0,0,1,1.894.616l.841-2A14.315,14.315,0,0,0,300.816,128.213Zm-4.67-.312.21,2.164a12.169,12.169,0,0,1,1.992-.03l.147-2.168A14.1,14.1,0,0,0,296.146,127.9Zm-2.031,28.061a14.4,14.4,0,0,0,2.319.37l.166-2.168a12.048,12.048,0,0,1-1.967-.314Zm4.48-1.808.187,2.165a14.2,14.2,0,0,0,2.317-.394l-.542-2.106A12.022,12.022,0,0,1,298.6,154.154Z" transform="translate(-283.267 -127.834)" fill="#f2ede6"/>
          </g>
        </g>
      </g>
      <g id="Group_52375" data-name="Group 52375" transform="translate(282.45 412.436)">
        <g id="Group_52374" data-name="Group 52374">
          <g id="Group_52373" data-name="Group 52373">
            <path id="Path_205964" data-name="Path 205964" d="M438.179,138.3l-2.063-.682a14.16,14.16,0,0,0-.55,2.285l2.148.331A12.016,12.016,0,0,1,438.179,138.3Zm-.608,3.924-2.174.021a14.461,14.461,0,0,0,.214,2.338l2.141-.375A12.2,12.2,0,0,1,437.571,142.223Zm2.46-7.436-1.732-1.315a14.421,14.421,0,0,0-1.262,1.983l1.923,1.012A12.1,12.1,0,0,1,440.03,134.787Zm-1.773,11.346-2.049.725a14.216,14.216,0,0,0,.963,2.141l1.9-1.051A12.2,12.2,0,0,1,438.258,146.133Zm21.94-9.985,1.891-1.071a14.285,14.285,0,0,0-1.322-1.941l-1.689,1.367A12.143,12.143,0,0,1,460.2,136.148Zm1.36,3.727,2.137-.4a14.3,14.3,0,0,0-.62-2.266l-2.042.744A12.129,12.129,0,0,1,461.558,139.875Zm-18.641-7.814-1.214-1.8a14.359,14.359,0,0,0-1.834,1.468l1.493,1.579A12.142,12.142,0,0,1,442.917,132.061ZM440.178,149.6l-1.7,1.35a14.341,14.341,0,0,0,1.6,1.715l1.46-1.609A12.217,12.217,0,0,1,440.178,149.6Zm6.35-19.189-.563-2.1a14.319,14.319,0,0,0-2.212.794l.9,1.978A12.1,12.1,0,0,1,446.527,130.415Zm13.789,17.427,1.913,1.03a14.314,14.314,0,0,0,.941-2.153l-2.056-.7A12.266,12.266,0,0,1,460.316,147.842Zm-3.047-17.82-1.16,1.838a12.24,12.24,0,0,1,1.594,1.2l1.443-1.624A14.384,14.384,0,0,0,457.269,130.023ZM441.942,154.1a14.193,14.193,0,0,0,2.074,1.106l.861-2a12.131,12.131,0,0,1-1.757-.937Zm15.94-3.125,1.475,1.6a14.232,14.232,0,0,0,1.588-1.732l-1.718-1.332A12.187,12.187,0,0,1,457.882,150.977Zm6.05-9.161-2.174.035,0,.248a12.223,12.223,0,0,1-.162,1.986l2.145.354a14.519,14.519,0,0,0,.191-2.348Zm-9.365,11.346.88,1.988a14.272,14.272,0,0,0,2.061-1.127l-1.2-1.814A11.918,11.918,0,0,1,454.568,153.162Zm-8.322,2.8a14.411,14.411,0,0,0,2.319.37l.166-2.168a12.062,12.062,0,0,1-1.967-.314Zm6.7-27.749-.5,2.116a12.061,12.061,0,0,1,1.894.616l.841-2A14.315,14.315,0,0,0,452.947,128.21Zm-4.671-.313.211,2.164c.386-.038.775-.057,1.16-.057.273,0,.557.008.832.027l.147-2.168q-.476-.033-.957-.033A10.73,10.73,0,0,0,448.276,127.9Zm2.449,26.254.187,2.165a14.206,14.206,0,0,0,2.317-.394l-.542-2.106A12.021,12.021,0,0,1,450.725,154.151Z" transform="translate(-435.397 -127.827)" fill="#f2ede6"/>
          </g>
        </g>
      </g>
      <g id="Group_52377" data-name="Group 52377" transform="translate(210.607 421.597)">
        <g id="Group_52376" data-name="Group 52376">
          <path id="Path_205965" data-name="Path 205965" d="M310.971,145.136l-6.982,7.372-2.717-2.991-1.609,1.462,3.5,3.859a1.089,1.089,0,0,0,.793.356h.011a1.084,1.084,0,0,0,.789-.34l7.788-8.223Z" transform="translate(-299.663 -145.136)" fill="#f2ede6"/>
        </g>
      </g>
      <g id="Group_52386" data-name="Group 52386" transform="translate(314.931 499.893)">
        <g id="Group_52385" data-name="Group 52385">
          <rect id="Rectangle_9767" data-name="Rectangle 9767" width="2.174" height="3.716" fill="#f2ede6"/>
        </g>
      </g>
      <g id="Group_52388" data-name="Group 52388" transform="translate(314.931 510.13)">
        <g id="Group_52387" data-name="Group 52387">
          <rect id="Rectangle_9768" data-name="Rectangle 9768" width="2.174" height="3.716" fill="#f2ede6"/>
        </g>
      </g>
      <g id="Group_52392" data-name="Group 52392" transform="translate(309.041 505.783)">
        <g id="Group_52391" data-name="Group 52391">
          <rect id="Rectangle_9770" data-name="Rectangle 9770" width="3.716" height="2.174" fill="#f2ede6"/>
        </g>
      </g>
      <g id="Group_52402" data-name="Group 52402" transform="translate(246.299 372)">
        <g id="Group_52401" data-name="Group 52401">
          <circle id="Ellipse_3292" data-name="Ellipse 3292" cx="3.455" cy="3.455" r="3.455" fill="#b2d0cb"/>
        </g>
      </g>
      <g id="Group_52406" data-name="Group 52406" transform="translate(281.104 555.194)">
        <g id="Group_52405" data-name="Group 52405">
          <circle id="Ellipse_3294" data-name="Ellipse 3294" cx="2.195" cy="2.195" r="2.195" fill="#508b82"/>
        </g>
      </g>
      <g id="Group_54242" data-name="Group 54242" transform="translate(170.204 456.973)">
        <g id="Group_52313-2" data-name="Group 52313">
          <g id="Group_52312-2" data-name="Group 52312">
            <path id="Path_205944-2" data-name="Path 205944" d="M408.34,211.972H375.922a1.087,1.087,0,0,0-1.087,1.087v6.768a1.087,1.087,0,0,0,1.087,1.087H408.34a1.087,1.087,0,0,0,1.087-1.087v-6.768A1.087,1.087,0,0,0,408.34,211.972Zm-1.087,6.767H377.008v-4.594h30.246Z" transform="translate(-374.835 -211.972)" fill="#508b82"/>
          </g>
        </g>
      </g>
      <g id="Group_54243" data-name="Group 54243" transform="translate(170.204 469.203)">
        <g id="Group_52316-2" data-name="Group 52316" transform="translate(0 0)">
          <g id="Group_52315-2" data-name="Group 52315">
            <path id="Path_205945-2" data-name="Path 205945" d="M408.34,235.08H375.922a1.087,1.087,0,0,0-1.087,1.087v6.767a1.087,1.087,0,0,0,1.087,1.087H408.34a1.087,1.087,0,0,0,1.087-1.087v-6.767A1.087,1.087,0,0,0,408.34,235.08Zm-1.087,6.767H377.008v-4.594h30.246Z" transform="translate(-374.835 -235.08)" fill="#b2d0cb"/>
          </g>
        </g>
      </g>
      <g id="Group_54244" data-name="Group 54244" transform="translate(170.204 481.214)">
        <g id="Group_52331-2" data-name="Group 52331">
          <g id="Group_52330-2" data-name="Group 52330">
            <path id="Path_205950-2" data-name="Path 205950" d="M408.34,257.772H375.922a1.087,1.087,0,0,0-1.087,1.087v6.767a1.087,1.087,0,0,0,1.087,1.087H408.34a1.087,1.087,0,0,0,1.087-1.087v-6.767A1.087,1.087,0,0,0,408.34,257.772Zm-1.087,6.767H377.008v-4.594h30.246Z" transform="translate(-374.835 -257.772)" fill="#508b82"/>
          </g>
        </g>
      </g>
      <g id="Group_54245" data-name="Group 54245" transform="translate(170.204 493.445)">
        <g id="Group_52334-2" data-name="Group 52334">
          <g id="Group_52333-2" data-name="Group 52333">
            <path id="Path_205951-2" data-name="Path 205951" d="M408.34,280.88H375.922a1.087,1.087,0,0,0-1.087,1.087v6.768a1.087,1.087,0,0,0,1.087,1.087H408.34a1.087,1.087,0,0,0,1.087-1.087v-6.768A1.087,1.087,0,0,0,408.34,280.88Zm-1.087,6.767H377.008v-4.594h30.246Z" transform="translate(-374.835 -280.88)" fill="#f2ede6"/>
          </g>
        </g>
      </g>
      <g id="CRYPTOCURRENCY_WALLET" data-name="CRYPTOCURRENCY WALLET" transform="translate(8.456 540.024) rotate(-90)">
        <g id="Group_49693" data-name="Group 49693" transform="translate(75.663 79.015)">
          <g id="Group_49692" data-name="Group 49692">
            <g id="Group_49691" data-name="Group 49691">
              <path id="Path_205321" data-name="Path 205321" d="M407.481,262.734c.354.141.719.266,1.084.372l.3-1.051c-.331-.1-.663-.209-.984-.337Zm11.212-20.68c-.309-.218-.634-.425-.967-.615l-.542.95c.3.172.6.36.878.558ZM416.7,240.92c-.348-.156-.707-.3-1.067-.42l-.351,1.036c.327.111.653.239.968.381Zm-7.024,22.451c.375.07.758.122,1.136.155l.095-1.089c-.343-.03-.69-.077-1.03-.141Zm.3-23.344c-.376.061-.753.14-1.121.236l.276,1.058c.335-.087.677-.159,1.018-.214Zm12.445,9.764,1.076-.2c-.069-.374-.157-.749-.261-1.116l-1.052.3C422.283,249.111,422.363,249.452,422.425,249.791Zm-10.16-9.908q-.576-.02-1.146.016l.068,1.092c.344-.022.692-.027,1.04-.015Zm8.16,3.667c-.263-.276-.542-.542-.83-.79l-.714.828c.261.225.514.466.752.716Zm1.429,4.242,1.018-.4c-.139-.354-.3-.706-.47-1.045l-.975.5C421.585,247.151,421.729,247.47,421.855,247.792Zm-.942-1.852.923-.587c-.2-.322-.427-.636-.662-.936l-.861.674C420.525,245.363,420.727,245.648,420.913,245.94Zm.839,9.971,1.007.427c.148-.35.282-.712.4-1.075l-1.043-.329C422.007,255.264,421.886,255.593,421.751,255.911Zm.623-1.983,1.07.225c.078-.373.139-.754.181-1.132l-1.087-.119C422.5,253.244,422.445,253.589,422.374,253.927Zm-10.423,8.549.011,1.094c.38,0,.765-.027,1.144-.067l-.117-1.087C412.646,262.453,412.3,262.473,411.951,262.477Zm8.811-4.738.907.611c.213-.315.412-.645.594-.981l-.962-.52C421.136,257.153,420.955,257.453,420.762,257.739Zm2.891-7.009-1.089.093c.026.3.038.606.038.91v.128l1.094.017v-.145C423.7,251.4,423.682,251.061,423.654,250.73Zm-4.213,8.611.772.775c.269-.268.529-.553.771-.848l-.844-.7C419.92,258.84,419.685,259.1,419.441,259.341Zm-5.423,2.914.221,1.071c.373-.077.746-.173,1.109-.286L415.026,262C414.7,262.1,414.357,262.185,414.018,262.255Zm3.816-1.6.608.909c.317-.212.626-.441.92-.682l-.693-.846C418.4,260.257,418.121,260.465,417.834,260.657Zm-3.3-20.472c-.37-.086-.749-.156-1.128-.206l-.144,1.084c.343.046.688.109,1.024.187ZM416,261.64l.422,1.009c.351-.147.7-.312,1.034-.492l-.517-.964C416.638,261.356,416.322,261.507,416,261.64Z" transform="translate(-407.481 -239.877)" fill="#b2d0cb"/>
            </g>
          </g>
        </g>
        <g id="Group_49695" data-name="Group 49695" transform="translate(75.709 75.675)">
          <g id="Group_49694" data-name="Group 49694">
            <path id="Path_205322" data-name="Path 205322" d="M426.36,232.138a15.184,15.184,0,0,0-18.632-9.478l.311,1.048a14.093,14.093,0,1,1,0,27.022l-.312,1.048a15.319,15.319,0,0,0,4.379.643,15.2,15.2,0,0,0,14.253-20.283Z" transform="translate(-407.728 -222.03)" fill="#508b82"/>
          </g>
        </g>
        <g id="Group_49698" data-name="Group 49698" transform="translate(75.866 83.243)">
          <g id="Group_49697" data-name="Group 49697">
            <g id="Group_49696" data-name="Group 49696">
              <path id="Path_205323" data-name="Path 205323" d="M417.175,266.482l-.876-.417.962-2.021-1.256-.6-.962,2.021-.794-.378h0l.962-2.021-1.256-.6-.962,2.021L411.968,264h0l-1.524-.725-.645,1.354.941.448a.562.562,0,0,1,.311.846l-2.489,5.228v5.158l.28.133.953-2h0l.008-.018.794.378-.961,2.019,1.256.6.961-2.019,1.235.588a2.856,2.856,0,0,0,2.485-5.144,2.334,2.334,0,0,0,1.6-4.364Zm-2.747,6.729a1.49,1.49,0,0,1-1.987.706l-1.952-.93,1.282-2.692,1.953.93A1.491,1.491,0,0,1,414.428,273.21Zm1.173-4.189a1.377,1.377,0,0,1-1.834.651l-1.386-.66,1.183-2.486,1.386.66A1.377,1.377,0,0,1,415.6,269.022Z" transform="translate(-408.563 -262.47)" fill="#508b82"/>
            </g>
          </g>
        </g>
        <g id="Group_49700" data-name="Group 49700" transform="translate(85.786 108.989)">
          <g id="Group_49699" data-name="Group 49699">
            <circle id="Ellipse_3153" data-name="Ellipse 3153" cx="1.697" cy="1.697" r="1.697" fill="#b2d0cb"/>
          </g>
        </g>
        <g id="Group_54248" data-name="Group 54248" transform="translate(14.613 134.077)">
          <g id="Group_49699-2" data-name="Group 49699">
            <circle id="Ellipse_3153-2" data-name="Ellipse 3153" cx="1.697" cy="1.697" r="1.697" fill="#b2d0cb"/>
          </g>
        </g>
        <g id="Group_49707" data-name="Group 49707" transform="translate(18.63 62.97)">
          <g id="Group_49706" data-name="Group 49706" transform="translate(0 0)">
            <g id="Group_49705" data-name="Group 49705">
              <path id="Path_205324" data-name="Path 205324" d="M158.026,154.143H137.165a.547.547,0,0,0-.547.547v16.041a6.012,6.012,0,0,1-12.024,0V154.69a.547.547,0,0,0-.547-.547H103.29a.547.547,0,0,0-.547.547v53.078a5.435,5.435,0,0,0,5.428,5.428h44.973a5.435,5.435,0,0,0,5.428-5.428V154.69A.547.547,0,0,0,158.026,154.143Zm-.547,53.624a4.34,4.34,0,0,1-4.335,4.335H108.171a4.34,4.34,0,0,1-4.334-4.335V155.237H123.5v15.494a7.105,7.105,0,0,0,14.211,0V155.237h19.767v52.531Z" transform="translate(-102.743 -154.143)" fill="#508b82"/>
            </g>
          </g>
        </g>
        <g id="Group_49710" data-name="Group 49710" transform="translate(52.504 54.297)">
          <g id="Group_49709" data-name="Group 49709">
            <g id="Group_49708" data-name="Group 49708">
              <path id="Path_205325" data-name="Path 205325" d="M305.15,107.8H284.287a.547.547,0,0,0-.547.547v8.673a.547.547,0,0,0,.547.547H305.15a.547.547,0,0,0,.547-.547v-8.673A.547.547,0,0,0,305.15,107.8Zm-.547,8.673H284.834v-7.579H304.6Z" transform="translate(-283.74 -107.801)" fill="#508b82"/>
            </g>
          </g>
        </g>
        <g id="Group_49712" data-name="Group 49712" transform="translate(31.922 56.663)">
          <g id="Group_49711" data-name="Group 49711" transform="translate(0 0)">
            <path id="Path_205326" data-name="Path 205326" d="M174.764,120.443a13.915,13.915,0,0,1-1,5.057h8.013v-5.057Z" transform="translate(-173.765 -120.443)" fill="#b2d0cb"/>
          </g>
        </g>
        <g id="Group_49714" data-name="Group 49714" transform="translate(53.053 56.663)">
          <g id="Group_49713" data-name="Group 49713" transform="translate(0 0)">
            <rect id="Rectangle_9383" data-name="Rectangle 9383" width="19.041" height="5.057" fill="#b2d0cb"/>
          </g>
        </g>
        <g id="Group_49716" data-name="Group 49716" transform="translate(29.896 74.129)">
          <g id="Group_49715" data-name="Group 49715" transform="translate(0 0)">
            <path id="Path_205327" data-name="Path 205327" d="M165.364,213.77a2.425,2.425,0,0,0-.547,4.787v-.988a1.48,1.48,0,1,1,1.094,0v.988a2.425,2.425,0,0,0-.547-4.787Z" transform="translate(-162.94 -213.77)" fill="#b2d0cb"/>
          </g>
        </g>
        <g id="Group_49718" data-name="Group 49718" transform="translate(54.195 107.159)">
          <g id="Group_49717" data-name="Group 49717">
            <path id="Path_205328" data-name="Path 205328" d="M296.771,390.256v1.236a2.246,2.246,0,1,1-1.094,0v-1.236a3.456,3.456,0,1,0,1.094,0Z" transform="translate(-292.772 -390.256)" fill="#b2d0cb"/>
          </g>
        </g>
        <g id="Group_49720" data-name="Group 49720" transform="translate(21.001 65.339)">
          <g id="Group_49719" data-name="Group 49719" transform="translate(0 0)">
            <path id="Path_205329" data-name="Path 205329" d="M155.235,166.8v12.84l5.822,6.493v8.611l-8.454,10v2.767a4.546,4.546,0,1,1-1.094,0v-3.168l8.454-10v-7.791l-5.822-6.493V166.8h-6.679v14.218a6.559,6.559,0,0,1-13.117,0V166.8H115.409V218.06a3.063,3.063,0,0,0,3.059,3.059h2.414V206.948l5.3-6.333V181.493a3.518,3.518,0,1,1,1.094,0v19.519l-5.3,6.333v13.773h15.3v-7.43l-4.954-6.438v-7.073a1.48,1.48,0,1,1,1.094,0v6.7l4.954,6.438v7.8h4.018V201.431l4.528-4.346V194.76a1.484,1.484,0,1,1,1.094,0v2.793l-4.528,4.346v19.22h19.964a3.064,3.064,0,0,0,3.062-3.059V166.8Z" transform="translate(-115.409 -166.805)" fill="#b2d0cb"/>
          </g>
        </g>
        <g id="Group_49722" data-name="Group 49722" transform="translate(41.759 63.517)">
          <g id="Group_49721" data-name="Group 49721" transform="translate(0 0)">
            <path id="Path_205330" data-name="Path 205330" d="M226.324,157.066V173.1a4.735,4.735,0,0,0,9.47,0V157.066Z" transform="translate(-226.324 -157.066)" fill="#b2d0cb"/>
          </g>
        </g>
        <g id="Group_49725" data-name="Group 49725" transform="translate(39.389 51.207)">
          <g id="Group_49724" data-name="Group 49724" transform="translate(0 0)">
            <g id="Group_49723" data-name="Group 49723">
              <path id="Path_205331" data-name="Path 205331" d="M227.326,91.292H214.211a.547.547,0,0,0-.547.547v27.8a7.1,7.1,0,1,0,14.209,0v-27.8A.547.547,0,0,0,227.326,91.292Zm-.547,28.349a6.011,6.011,0,1,1-12.021,0V92.386h12.021v27.255Z" transform="translate(-213.664 -91.292)" fill="#508b82"/>
            </g>
          </g>
        </g>
        <g id="Group_49727" data-name="Group 49727" transform="translate(43.987 76.244)">
          <g id="Group_49726" data-name="Group 49726">
            <circle id="Ellipse_3156" data-name="Ellipse 3156" cx="2.507" cy="2.507" r="2.507" fill="#04594c"/>
          </g>
        </g>
        <g id="Group_49729" data-name="Group 49729" transform="translate(17.09 54.865)">
          <g id="Group_49728" data-name="Group 49728">
            <path id="Path_205332" data-name="Path 205332" d="M94.513,111.708l1.836-.866v0Z" transform="translate(-94.513 -110.84)" fill="#f2ede6"/>
          </g>
        </g>
        <g id="Group_49731" data-name="Group 49731" transform="translate(4.461 42.043)">
          <g id="Group_49730" data-name="Group 49730">
            <path id="Path_205333" data-name="Path 205333" d="M55.727,53.849A14.5,14.5,0,1,0,39.592,71.2l.146-1.084A13.406,13.406,0,1,1,53.989,61.8L55,62.206A14.41,14.41,0,0,0,55.727,53.849Z" transform="translate(-27.036 -42.325)" fill="#508b82"/>
          </g>
        </g>
        <g id="Group_49734" data-name="Group 49734" transform="translate(7.332 44.919)">
          <g id="Group_49733" data-name="Group 49733" transform="translate(0 0)">
            <g id="Group_49732" data-name="Group 49732">
              <path id="Path_205334" data-name="Path 205334" d="M65.387,66.932a11.63,11.63,0,1,0-11.7,14.018V75.769h9.993A11.6,11.6,0,0,0,65.387,66.932Z" transform="translate(-42.375 -57.693)" fill="#04594c"/>
            </g>
          </g>
        </g>
        <g id="Group_54246" data-name="Group 54246" transform="translate(83.599 57.834)">
          <g id="Group_49736" data-name="Group 49736" transform="translate(3.338)">
            <g id="Group_49735" data-name="Group 49735" transform="translate(0 0)">
              <rect id="Rectangle_9384" data-name="Rectangle 9384" width="1.094" height="2.069" fill="#508b82"/>
            </g>
          </g>
          <g id="Group_49738" data-name="Group 49738" transform="translate(3.338 5.701)">
            <g id="Group_49737" data-name="Group 49737">
              <rect id="Rectangle_9385" data-name="Rectangle 9385" width="1.094" height="2.069" fill="#508b82"/>
            </g>
          </g>
          <g id="Group_49740" data-name="Group 49740" transform="translate(5.701 3.338)">
            <g id="Group_49739" data-name="Group 49739" transform="translate(0 0)">
              <rect id="Rectangle_9386" data-name="Rectangle 9386" width="2.069" height="1.094" fill="#508b82"/>
            </g>
          </g>
          <g id="Group_49742" data-name="Group 49742" transform="translate(0 3.338)">
            <g id="Group_49741" data-name="Group 49741" transform="translate(0 0)">
              <rect id="Rectangle_9387" data-name="Rectangle 9387" width="2.069" height="1.094" fill="#508b82"/>
            </g>
          </g>
        </g>
        <g id="Group_54247" data-name="Group 54247" transform="translate(3.075 106.802)">
          <g id="Group_49736-2" data-name="Group 49736" transform="translate(3.338 0)">
            <g id="Group_49735-2" data-name="Group 49735" transform="translate(0 0)">
              <rect id="Rectangle_9384-2" data-name="Rectangle 9384" width="1.094" height="2.069" fill="#508b82"/>
            </g>
          </g>
          <g id="Group_49738-2" data-name="Group 49738" transform="translate(3.338 5.701)">
            <g id="Group_49737-2" data-name="Group 49737">
              <rect id="Rectangle_9385-2" data-name="Rectangle 9385" width="1.094" height="2.069" fill="#508b82"/>
            </g>
          </g>
          <g id="Group_49740-2" data-name="Group 49740" transform="translate(5.701 3.338)">
            <g id="Group_49739-2" data-name="Group 49739" transform="translate(0 0)">
              <rect id="Rectangle_9386-2" data-name="Rectangle 9386" width="2.069" height="1.094" fill="#508b82"/>
            </g>
          </g>
          <g id="Group_49742-2" data-name="Group 49742" transform="translate(0 3.338)">
            <g id="Group_49741-2" data-name="Group 49741" transform="translate(0 0)">
              <rect id="Rectangle_9387-2" data-name="Rectangle 9387" width="2.069" height="1.094" fill="#508b82"/>
            </g>
          </g>
        </g>
        <g id="Group_49752" data-name="Group 49752" transform="translate(32.813 54.319)">
          <g id="Group_49751" data-name="Group 49751" transform="translate(0 0)">
            <rect id="Rectangle_9392" data-name="Rectangle 9392" width="7.123" height="1.094" fill="#508b82"/>
          </g>
        </g>
        <g id="Group_53164" data-name="Group 53164" transform="translate(23.217 40.662) rotate(60)">
          <g id="Group_53158" data-name="Group 53158" transform="translate(10.956 7.66)">
            <g id="Group_53157" data-name="Group 53157" transform="translate(0 0)">
              <path id="Path_206153" data-name="Path 206153" d="M1.748,0H0V3.055H1.748a1.583,1.583,0,0,0,1.11-.447,1.5,1.5,0,0,0,.46-1.078A1.55,1.55,0,0,0,1.748,0Z" fill="#b2d0cb"/>
            </g>
          </g>
          <g id="Group_53160" data-name="Group 53160" transform="translate(10.956 12.288)">
            <g id="Group_53159" data-name="Group 53159">
              <path id="Path_206154" data-name="Path 206154" d="M2.462,0H0V3.309H2.462a1.712,1.712,0,0,0,1.2-.486,1.619,1.619,0,0,0,.5-1.168A1.678,1.678,0,0,0,2.462,0Z" fill="#b2d0cb"/>
            </g>
          </g>
          <g id="Group_53163" data-name="Group 53163" transform="translate(0 0)">
            <g id="Group_53162" data-name="Group 53162">
              <g id="Group_53161" data-name="Group 53161">
                <path id="Path_206155" data-name="Path 206155" d="M11.629,0A11.629,11.629,0,1,0,23.257,11.629,11.643,11.643,0,0,0,11.629,0ZM17.4,16.437a3.283,3.283,0,0,1-2.3.927H13.544v2.482H11.957V17.364h-1v2.482H9.373V17.387H6.157V15.723H7.345a.634.634,0,0,0,.734-.7V8.256a.634.634,0,0,0-.734-.7H6.157V5.893H9.373V3.412h1.584V5.893h1V3.412h1.587V5.893h1.1a2.627,2.627,0,0,1,2.659,2.591,2.545,2.545,0,0,1-.779,1.831,2.7,2.7,0,0,1-1.39.715A3.208,3.208,0,0,1,18.352,14.2,3.114,3.114,0,0,1,17.4,16.437Z" fill="#b2d0cb"/>
              </g>
            </g>
          </g>
        </g>
      </g>
    </g>
  </g>
</svg>
