<svg width="111" height="117" viewBox="0 0 111 117" fill="none" xmlns="http://www.w3.org/2000/svg">
<path opacity="0.4" d="M106.03 18.6722C105.91 18.6423 105.805 18.5675 105.738 18.4632C105.671 18.359 105.646 18.233 105.669 18.1111C105.691 17.9891 105.759 17.8803 105.859 17.8069C105.959 17.7334 106.083 17.7009 106.207 17.7158C106.33 17.7308 106.442 17.7921 106.522 17.8873C106.601 17.9826 106.641 18.1045 106.634 18.2283C106.627 18.3521 106.573 18.4684 106.482 18.5536C106.392 18.6388 106.273 18.6864 106.149 18.6867C106.109 18.6868 106.069 18.6819 106.03 18.6722ZM107.532 16.8918C107.532 16.7503 107.574 16.6121 107.653 16.4945C107.732 16.3769 107.843 16.2852 107.974 16.2311C108.105 16.177 108.248 16.1628 108.387 16.1904C108.526 16.218 108.653 16.2861 108.753 16.3861C108.853 16.4861 108.921 16.6135 108.949 16.7522C108.976 16.891 108.962 17.0347 108.908 17.1654C108.854 17.2961 108.762 17.4078 108.645 17.4863C108.527 17.5649 108.389 17.6068 108.248 17.6068C108.154 17.6068 108.061 17.5883 107.974 17.5524C107.887 17.5165 107.808 17.4638 107.742 17.3974C107.608 17.2633 107.532 17.0814 107.532 16.8918ZM105.449 0.905553C105.449 0.726284 105.503 0.55109 105.602 0.402126C105.702 0.253162 105.844 0.137119 106.01 0.0686712C106.175 0.000223072 106.358 -0.0175557 106.533 0.017583C106.709 0.0527217 106.871 0.1392 106.997 0.266081C107.124 0.392963 107.21 0.554549 107.245 0.730407C107.28 0.906265 107.261 1.0885 107.193 1.25405C107.124 1.41961 107.008 1.56107 106.859 1.66052C106.709 1.75998 106.534 1.81297 106.355 1.81281C106.236 1.81281 106.118 1.78933 106.008 1.74371C105.898 1.6981 105.798 1.63124 105.714 1.54698C105.63 1.46271 105.563 1.36268 105.518 1.25262C105.472 1.14255 105.449 1.02462 105.449 0.905553Z" fill="url(#paint0_linear_516_10212)"/>
<path opacity="0.4" d="M100.623 17.6059C105.229 17.6059 108.964 13.8714 108.964 9.26463C108.964 4.65786 105.229 0.92334 100.623 0.92334C96.0158 0.92334 92.2812 4.65786 92.2812 9.26463C92.2812 13.8714 96.0158 17.6059 100.623 17.6059Z" fill="url(#paint1_linear_516_10212)"/>
<path opacity="0.4" d="M25.5431 111.937C37.9932 111.937 48.0861 101.845 48.0861 89.3946C48.0861 76.9445 37.9932 66.8518 25.5431 66.8518C13.0929 66.8518 3 76.9445 3 89.3946C3 101.845 13.0929 111.937 25.5431 111.937Z" fill="url(#paint2_linear_516_10212)"/>
<path opacity="0.4" d="M19.3117 115.069C19.3117 114.687 19.4249 114.314 19.6371 113.996C19.8493 113.679 20.1509 113.431 20.5037 113.285C20.8566 113.139 21.2449 113.1 21.6194 113.175C21.994 113.249 22.3381 113.433 22.6082 113.703C22.8782 113.973 23.0621 114.318 23.1366 114.692C23.2111 115.067 23.1729 115.455 23.0268 115.808C22.8806 116.161 22.6331 116.462 22.3155 116.674C21.998 116.887 21.6246 117 21.2427 117C20.7306 117 20.2394 116.796 19.8773 116.434C19.5151 116.072 19.3117 115.581 19.3117 115.069ZM26.0656 115.162C26.0656 114.901 26.143 114.646 26.2879 114.429C26.4329 114.212 26.6389 114.043 26.8799 113.943C27.121 113.843 27.3862 113.817 27.642 113.868C27.8979 113.919 28.1328 114.045 28.3172 114.229C28.5017 114.414 28.6272 114.649 28.678 114.905C28.7288 115.161 28.7025 115.426 28.6026 115.667C28.5026 115.908 28.3335 116.114 28.1165 116.258C27.8995 116.403 27.6444 116.48 27.3836 116.48C27.0339 116.48 26.6987 116.341 26.4516 116.094C26.2044 115.846 26.0656 115.511 26.0656 115.162ZM8.36328 67.396C8.36328 66.9115 8.50695 66.4378 8.77613 66.035C9.04531 65.6322 9.4279 65.3182 9.87552 65.1328C10.3231 64.9474 10.8157 64.8988 11.2909 64.9934C11.7661 65.0879 12.2026 65.3212 12.5452 65.6638C12.8878 66.0064 13.1211 66.4429 13.2156 66.9181C13.3101 67.3932 13.2616 67.8858 13.0762 68.3334C12.8908 68.781 12.5768 69.1636 12.174 69.4328C11.7711 69.702 11.2975 69.8456 10.813 69.8456C10.1633 69.8456 9.54019 69.5875 9.08078 69.1281C8.62137 68.6687 8.36328 68.0457 8.36328 67.396Z" fill="url(#paint3_linear_516_10212)"/>
<path d="M37.0117 12.3044L37.0117 107.586C37.0117 110.155 38.9709 112.238 41.3876 112.238H94.7074C97.1242 112.238 99.0833 110.155 99.0833 107.586V12.3044C99.0833 9.73526 97.1242 7.65255 94.7074 7.65255H41.3876C38.9709 7.65255 37.0117 9.73526 37.0117 12.3044Z" fill="#F6F2ED"/>
<g clip-path="url(#clip0_516_10212)">
<path d="M86.6735 38.3949C83.0998 30.2666 72.9788 25.5299 63.2079 27.4107C54.6987 29.0635 48.5053 34.8712 47.1936 42.4606C46.0011 49.379 50.4056 56.6744 57.9993 60.1386C59.1033 60.6443 59.538 61.13 59.538 62.2572C59.4226 67.0369 59.4534 71.8202 59.4304 76.6C59.4073 81.3268 59.3854 86.0525 59.3649 90.7772C59.3649 92.9092 59.365 92.9093 61.9193 92.9225C65.6276 92.9225 69.3398 92.8795 73.0443 92.9951C74.7869 93.0513 75.3524 92.6318 75.3524 91.0716C75.3139 81.7302 75.4369 72.3887 75.4062 63.0474C75.4062 61.5269 75.7909 60.6906 77.4989 59.9039C86.3812 55.782 90.2549 46.5198 86.6735 38.3949ZM67.2432 91.3259C66.5383 91.3004 65.8721 91.042 65.3834 90.6048C64.8946 90.1676 64.6211 89.5854 64.6197 88.9791C64.6682 88.3719 64.9815 87.8025 65.4971 87.3851C66.0127 86.9678 66.6927 86.7332 67.401 86.7279C68.1054 86.7662 68.7652 87.037 69.2427 87.4836C69.7202 87.9302 69.9782 88.5181 69.9629 89.1244C69.967 89.4261 69.8983 89.7254 69.7609 90.0031C69.6236 90.2808 69.4207 90.5309 69.1651 90.7378C68.9095 90.9447 68.6067 91.104 68.2759 91.2052C67.9451 91.3064 67.5935 91.3474 67.2432 91.3259ZM74.1175 83.8785H60.8882V64.2208H74.1175V83.8785ZM67.524 53.1176C64.9078 53.1196 62.3959 52.236 60.532 50.6585C58.6681 49.081 57.602 46.9364 57.5646 44.6886C57.5031 40.0146 62.0616 36.0943 67.5664 36.0943C68.8628 36.089 70.1476 36.3038 71.3471 36.7266C72.5465 37.1494 73.637 37.7719 74.5557 38.5579C75.4743 39.3439 76.2033 40.2781 76.7004 41.3069C77.1976 42.3357 77.4532 43.439 77.4527 44.553C77.4489 49.4022 73.1558 53.1077 67.524 53.1044V53.1176Z" fill="#372E26"/>
</g>
<path d="M37.8633 10.0247L37.8633 108.165C37.8633 110.414 39.5413 112.238 41.6111 112.238H95.3368C97.4066 112.238 99.0846 110.414 99.0846 108.165V10.0247C99.0846 7.7754 97.4066 5.95198 95.3368 5.95198H41.6111C39.5413 5.95198 37.8633 7.7754 37.8633 10.0247Z" stroke="#372E26" stroke-width="1.5"/>
<path d="M42.9648 16L42.9648 103.04C42.9648 105.302 44.6541 107.136 46.7379 107.136H90.2096C92.2934 107.136 93.9826 105.302 93.9826 103.04V16C93.9826 13.7379 92.2934 11.9041 90.2096 11.9041H46.7379C44.6541 11.9041 42.9648 13.7379 42.9648 16Z" stroke="#372E26" stroke-width="1.5" stroke-dasharray="1.5 2"/>
<defs>
<linearGradient id="paint0_linear_516_10212" x1="105.396" y1="0.882428" x2="112.026" y2="1.44178" gradientUnits="userSpaceOnUse">
<stop stop-color="#A58969"/>
<stop offset="1" stop-color="#C7B664"/>
</linearGradient>
<linearGradient id="paint1_linear_516_10212" x1="92.0266" y1="1.71113" x2="118.421" y2="13.5539" gradientUnits="userSpaceOnUse">
<stop stop-color="#A58969"/>
<stop offset="1" stop-color="#C7B664"/>
</linearGradient>
<linearGradient id="paint2_linear_516_10212" x1="2.31166" y1="68.9808" x2="73.6443" y2="100.987" gradientUnits="userSpaceOnUse">
<stop stop-color="#A58969"/>
<stop offset="1" stop-color="#C7B664"/>
</linearGradient>
<linearGradient id="paint3_linear_516_10212" x1="8.05275" y1="67.4044" x2="45.559" y2="73.98" gradientUnits="userSpaceOnUse">
<stop stop-color="#A58969"/>
<stop offset="1" stop-color="#C7B664"/>
</linearGradient>
<clipPath id="clip0_516_10212">
<rect width="41.6645" height="77.3759" fill="white" transform="translate(47.2148 21.2571)"/>
</clipPath>
</defs>
</svg>
