<svg width="8" height="24" viewBox="0 0 8 24" fill="none" xmlns="http://www.w3.org/2000/svg">
<path d="M6 24H2C1.46957 24 0.960766 23.7891 0.585693 23.4141C0.210621 23.039 0 22.5304 0 22V2C0 1.46957 0.210621 0.96101 0.585693 0.585938C0.960766 0.210865 1.46957 0 2 0H6C6.53043 0 7.03923 0.210865 7.41431 0.585938C7.78938 0.96101 8 1.46957 8 2V22C8 22.5304 7.78938 23.039 7.41431 23.4141C7.03923 23.7891 6.53043 24 6 24ZM1.82593 15.5C1.62736 15.5003 1.43704 15.5793 1.29663 15.7197C1.15622 15.8601 1.07717 16.0505 1.0769 16.249V20.8486C1.07717 21.0472 1.15622 21.2375 1.29663 21.3779C1.43704 21.5183 1.62736 21.5974 1.82593 21.5977H6.17407C6.3729 21.5977 6.56356 21.5193 6.70435 21.3789C6.84513 21.2385 6.92452 21.0475 6.92505 20.8486V16.249C6.92452 16.0502 6.84513 15.8601 6.70435 15.7197C6.56356 15.5793 6.3729 15.5 6.17407 15.5H1.82593ZM4.00098 10.8633C3.5813 10.8638 3.17908 11.0304 2.88232 11.3271C2.58557 11.6239 2.4185 12.0266 2.41797 12.4463C2.4185 12.866 2.58557 13.2677 2.88232 13.5645C3.17908 13.8612 3.5813 14.0288 4.00098 14.0293C4.42065 14.0288 4.82312 13.8612 5.11987 13.5645C5.41663 13.2677 5.58346 12.866 5.58398 12.4463C5.58398 12.0261 5.41715 11.6224 5.12012 11.3252C4.82309 11.028 4.42019 10.8616 4 10.8613L4.00098 10.8633ZM2.61108 2.52246C2.27964 2.52273 1.96166 2.65431 1.72729 2.88867C1.49293 3.12303 1.36135 3.44102 1.36108 3.77246V8.66211C1.36135 8.99355 1.49293 9.31153 1.72729 9.5459C1.96166 9.78026 2.27964 9.91184 2.61108 9.91211H5.38892C5.72036 9.91184 6.03834 9.78026 6.27271 9.5459C6.50707 9.31153 6.63865 8.99355 6.63892 8.66211V3.77246C6.63865 3.44102 6.50707 3.12303 6.27271 2.88867C6.03834 2.65431 5.72036 2.52273 5.38892 2.52246H2.61108ZM3.7251 0.889648C3.60725 0.889382 3.49401 0.936481 3.4104 1.01953C3.32679 1.10258 3.27958 1.21516 3.27905 1.33301C3.27905 1.45129 3.32603 1.5648 3.40967 1.64844C3.49331 1.73208 3.60681 1.7793 3.7251 1.7793H4.16895C4.22738 1.77917 4.28517 1.7676 4.33911 1.74512C4.39305 1.72263 4.44217 1.68985 4.4834 1.64844C4.52463 1.60702 4.55735 1.55697 4.57959 1.50293C4.60183 1.44889 4.61317 1.39145 4.61304 1.33301C4.61277 1.21543 4.5659 1.10258 4.48267 1.01953C4.39943 0.936481 4.28653 0.889648 4.16895 0.889648H3.7251Z" fill="url(#paint0_linear_182_8180)"/>
<defs>
<linearGradient id="paint0_linear_182_8180" x1="-0.122137" y1="1.13333" x2="14.7504" y2="3.35765" gradientUnits="userSpaceOnUse">
<stop stop-color="#A58969"/>
<stop offset="1" stop-color="#C7B664"/>
</linearGradient>
</defs>
</svg>
