<svg width="13" height="17" viewBox="0 0 13 17" fill="none" xmlns="http://www.w3.org/2000/svg">
<path d="M0 11.0818C0.00610039 10.5937 0.14135 10.1158 0.392 9.69685C1.29133 8.13552 2.18833 6.57318 3.083 5.00985C3.823 3.71918 4.562 2.42852 5.3 1.13785C5.36791 0.990463 5.47749 0.866185 5.61521 0.780353C5.75293 0.694522 5.91277 0.650892 6.075 0.654849C6.20684 0.649765 6.33765 0.679878 6.454 0.742093C6.57034 0.804308 6.66802 0.896381 6.737 1.00885C6.95947 1.35482 7.16407 1.71195 7.35 2.07885C7.45088 2.28117 7.49755 2.5062 7.48545 2.73195C7.47336 2.95771 7.40291 3.17646 7.281 3.36685L5.439 6.55485L1.539 13.3118C1.509 13.3638 1.481 13.4118 1.447 13.4658C1.41094 13.5279 1.35922 13.5794 1.29701 13.6152C1.2348 13.651 1.16428 13.6699 1.0925 13.6699C1.02072 13.6699 0.950203 13.651 0.887993 13.6152C0.825782 13.5794 0.774061 13.5279 0.738 13.4658C0.600362 13.2441 0.484171 13.0097 0.391 12.7658C0.166671 12.2306 0.0344744 11.6612 0 11.0818Z" fill="url(#paint0_linear_182_8240)"/>
<path d="M8.64931 14.7914C8.65291 15.1703 8.50954 15.5359 8.24931 15.8114C8.11731 15.9534 7.97731 16.0894 7.83731 16.2244C7.63449 16.4435 7.36463 16.589 7.07014 16.638C6.77564 16.6871 6.47318 16.6369 6.2103 16.4954C5.3923 16.1124 4.57531 15.7244 3.75831 15.3384C3.59631 15.2614 3.43231 15.1884 3.27331 15.1054C3.10606 15.0244 2.95734 14.9097 2.83645 14.7686C2.71556 14.6275 2.62511 14.4629 2.57075 14.2852C2.5164 14.1075 2.49932 13.9205 2.52058 13.7359C2.54184 13.5513 2.60098 13.3731 2.6943 13.2124C3.0543 12.5664 3.42431 11.9257 3.80431 11.2904C3.88656 11.1401 4.00342 11.0116 4.1452 10.9155C4.28699 10.8193 4.44963 10.7583 4.61967 10.7375C4.7897 10.7167 4.96225 10.7366 5.12304 10.7957C5.28383 10.8548 5.42824 10.9514 5.54431 11.0774C6.42631 11.9514 7.3033 12.8304 8.1823 13.7074C8.32868 13.8475 8.44517 14.0157 8.52475 14.202C8.60432 14.3883 8.64534 14.5888 8.64531 14.7914" fill="url(#paint1_linear_182_8240)"/>
<path d="M9.16642 9.83896C9.76642 9.83896 10.3664 9.82996 10.9664 9.83896C11.2265 9.83766 11.4824 9.90398 11.7091 10.0314C11.9358 10.1589 12.1254 10.3431 12.2594 10.566C12.4019 10.7804 12.4662 11.0373 12.4414 11.2936C12.4166 11.5499 12.3044 11.7898 12.1234 11.973C11.6964 12.414 11.2624 12.849 10.8174 13.273C10.701 13.3881 10.5626 13.4786 10.4104 13.5391C10.2582 13.5996 10.0954 13.6288 9.93171 13.6249C9.76801 13.6211 9.60674 13.5843 9.45756 13.5168C9.30838 13.4493 9.17434 13.3524 9.06343 13.232C8.53443 12.713 8.01342 12.186 7.48942 11.662C7.27742 11.45 7.06241 11.2419 6.85441 11.0259C6.752 10.9283 6.68211 10.8015 6.65418 10.6628C6.62626 10.5241 6.64169 10.3801 6.69834 10.2504C6.755 10.1207 6.85014 10.0116 6.9709 9.93781C7.09166 9.86403 7.23218 9.82918 7.37342 9.83795H9.17341" fill="url(#paint2_linear_182_8240)"/>
<path d="M8.12103 8.88879C7.70203 8.88879 7.28304 8.88879 6.86404 8.88879C6.62556 8.89258 6.39431 8.8069 6.21588 8.64864C6.03744 8.49038 5.92474 8.27102 5.90002 8.0338C5.87675 7.81604 5.92788 7.59681 6.04504 7.41179C6.35571 6.87512 6.66604 6.33813 6.97604 5.8008C7.07604 5.6198 7.18204 5.4358 7.29104 5.2578C7.38565 5.08897 7.52354 4.94841 7.69052 4.85057C7.85749 4.75274 8.0475 4.70117 8.24102 4.70117C8.43455 4.70117 8.62459 4.75274 8.79156 4.85057C8.95854 4.94841 9.09643 5.08897 9.19104 5.2578C9.5777 5.9058 9.95503 6.55946 10.323 7.2188C10.4269 7.38726 10.4831 7.58075 10.4856 7.77866C10.4881 7.97656 10.4369 8.17143 10.3373 8.34247C10.2377 8.51351 10.0935 8.6543 9.92019 8.74982C9.74685 8.84533 9.55081 8.89198 9.35302 8.8848C8.94202 8.8848 8.53005 8.8848 8.11905 8.8848" fill="url(#paint3_linear_182_8240)"/>
<defs>
<linearGradient id="paint0_linear_182_8240" x1="-0.11431" y1="1.26892" x2="13.2277" y2="4.71255" gradientUnits="userSpaceOnUse">
<stop stop-color="#A58969"/>
<stop offset="1" stop-color="#C7B664"/>
</linearGradient>
<linearGradient id="paint1_linear_182_8240" x1="2.41801" y1="11.0094" x2="12.0123" y2="15.4672" gradientUnits="userSpaceOnUse">
<stop stop-color="#A58969"/>
<stop offset="1" stop-color="#C7B664"/>
</linearGradient>
<linearGradient id="paint2_linear_182_8240" x1="6.55198" y1="10.0139" x2="14.0469" y2="15.1651" gradientUnits="userSpaceOnUse">
<stop stop-color="#A58969"/>
<stop offset="1" stop-color="#C7B664"/>
</linearGradient>
<linearGradient id="paint3_linear_182_8240" x1="5.82444" y1="4.89893" x2="12.8506" y2="8.35509" gradientUnits="userSpaceOnUse">
<stop stop-color="#A58969"/>
<stop offset="1" stop-color="#C7B664"/>
</linearGradient>
</defs>
</svg>
