<svg width="95" height="117" viewBox="0 0 95 117" fill="none" xmlns="http://www.w3.org/2000/svg">
<path opacity="0.4" d="M91.376 22.5144C91.264 22.4865 91.1668 22.417 91.1042 22.32C91.0416 22.2229 91.0185 22.1057 91.0394 21.9922C91.0603 21.8786 91.1237 21.7773 91.2167 21.7089C91.3097 21.6405 91.4253 21.6101 91.5399 21.624C91.6545 21.6378 91.7595 21.6949 91.8335 21.7835C91.9075 21.8721 91.9449 21.9856 91.9382 22.1009C91.9314 22.2161 91.8809 22.3245 91.797 22.4038C91.7131 22.4831 91.6022 22.5275 91.4867 22.5278C91.4494 22.5279 91.4122 22.5234 91.376 22.5144ZM92.7759 20.8565C92.7759 20.7247 92.815 20.596 92.8881 20.4864C92.9613 20.3769 93.0654 20.2915 93.1871 20.2411C93.3088 20.1907 93.4427 20.1775 93.5719 20.2032C93.7011 20.2289 93.8197 20.2924 93.9129 20.3855C94.006 20.4787 94.0695 20.5973 94.0952 20.7265C94.1209 20.8557 94.1077 20.9896 94.0573 21.1113C94.0068 21.233 93.9215 21.3371 93.812 21.4102C93.7024 21.4834 93.5737 21.5225 93.4419 21.5225C93.2653 21.5225 93.0959 21.4523 92.971 21.3274C92.8461 21.2025 92.7759 21.0331 92.7759 20.8565ZM90.835 5.96373C90.835 5.79664 90.8845 5.63332 90.9774 5.49441C91.0702 5.3555 91.2022 5.24724 91.3565 5.18335C91.5109 5.11945 91.6808 5.10277 91.8446 5.13543C92.0085 5.1681 92.159 5.24862 92.2771 5.36683C92.3952 5.48504 92.4755 5.63561 92.508 5.7995C92.5405 5.9634 92.5236 6.13324 92.4596 6.28755C92.3955 6.44187 92.2871 6.57371 92.1481 6.66641C92.0091 6.7591 91.8457 6.80849 91.6787 6.80831C91.5678 6.80831 91.458 6.78646 91.3556 6.744C91.2532 6.70155 91.1601 6.63932 91.0818 6.56088C91.0034 6.48245 90.9413 6.38933 90.8989 6.28687C90.8566 6.1844 90.8348 6.0746 90.835 5.96373Z" fill="#596F66"/>
<path opacity="0.4" d="M86.3368 21.5232C90.6286 21.5232 94.1077 18.0441 94.1077 13.7523C94.1077 9.4606 90.6286 5.98145 86.3368 5.98145C82.0451 5.98145 78.5659 9.4606 78.5659 13.7523C78.5659 18.0441 82.0451 21.5232 86.3368 21.5232Z" fill="#596F66"/>
<path opacity="0.4" d="M21.0004 112.282C32.5985 112.282 42.0007 102.88 42.0007 91.2816C42.0007 79.6834 32.5985 70.2812 21.0004 70.2812C9.40218 70.2812 0 79.6834 0 91.2816C0 102.88 9.40218 112.282 21.0004 112.282Z" fill="#596F66"/>
<path opacity="0.4" d="M15.1969 115.201C15.1969 114.845 15.3024 114.497 15.5001 114.202C15.6977 113.906 15.9787 113.675 16.3074 113.539C16.6361 113.403 16.9978 113.367 17.3468 113.437C17.6958 113.506 18.0163 113.677 18.2679 113.929C18.5195 114.181 18.6909 114.501 18.7603 114.85C18.8297 115.199 18.7941 115.561 18.6579 115.89C18.5217 116.218 18.2912 116.499 17.9953 116.697C17.6995 116.895 17.3517 117 16.9959 117C16.5187 117 16.0612 116.811 15.7238 116.473C15.3864 116.136 15.1969 115.678 15.1969 115.201ZM21.4893 115.29C21.4893 115.047 21.5614 114.81 21.6964 114.608C21.8314 114.406 22.0233 114.248 22.2479 114.155C22.4724 114.062 22.7195 114.038 22.9578 114.086C23.1961 114.133 23.415 114.25 23.5868 114.422C23.7585 114.594 23.8755 114.813 23.9228 115.051C23.9701 115.29 23.9456 115.537 23.8525 115.761C23.7594 115.986 23.6018 116.177 23.3996 116.312C23.1975 116.447 22.9599 116.519 22.7169 116.519C22.3911 116.519 22.0786 116.389 21.8482 116.159C21.6178 115.929 21.4893 115.616 21.4893 115.29ZM4.99756 70.7889C4.99774 70.3376 5.13172 69.8965 5.38258 69.5213C5.63343 69.1462 5.98989 68.8538 6.40689 68.6813C6.82388 68.5087 7.28268 68.4636 7.72529 68.5518C8.16789 68.6399 8.57442 68.8573 8.89347 69.1765C9.21252 69.4957 9.42977 69.9023 9.51775 70.3449C9.60573 70.7876 9.56049 71.2464 9.38774 71.6633C9.215 72.0802 8.92251 72.4366 8.54726 72.6873C8.17201 72.938 7.73084 73.0718 7.27955 73.0718C6.9798 73.0718 6.68298 73.0127 6.40606 72.898C6.12914 72.7833 5.87754 72.6151 5.66562 72.4031C5.45371 72.1911 5.28564 71.9394 5.17101 71.6625C5.05638 71.3855 4.99744 71.0887 4.99756 70.7889Z" fill="#596F66"/>
<path d="M34.6079 5.71122V107.436C34.6079 110.59 35.9005 113.147 37.495 113.147H77.4644C79.0589 113.147 80.3515 110.59 80.3515 107.436V5.71122C80.3515 2.55699 79.0589 -1.52588e-05 77.4644 -1.52588e-05H37.495C35.9005 -1.52588e-05 34.6079 2.55699 34.6079 5.71122Z" fill="#F6F2ED"/>
<path d="M35.0405 5.71146V107.436C35.0405 110.118 36.1392 112.291 37.4946 112.291H77.464C78.8193 112.291 79.918 110.118 79.918 107.436V5.71146C79.918 3.03036 78.8193 0.856911 77.464 0.856911H37.4946C36.1392 0.856911 35.0405 3.03036 35.0405 5.71146Z" stroke="#372E26" stroke-width="1.5"/>
<path d="M46.4436 46.3426H44.3556V47.8398H43.8359V43.8089H44.3556V45.3061H46.4436V46.3426Z" fill="#F6F2ED"/>
<path d="M44.11 42.9379C43.9056 42.8057 43.8045 42.6379 43.8045 42.1433C43.7884 41.9774 43.8101 41.808 43.8658 41.664C43.9215 41.5201 44.0078 41.4105 44.11 41.354L46.4422 39.8452V40.9344L45.8469 41.2969V42.9932L46.4428 43.3584V44.4404L44.11 42.9379ZM45.3393 42.7441V41.5487L44.5124 42.062C44.472 42.0861 44.4304 42.1022 44.4304 42.1433C44.4304 42.1843 44.4708 42.2058 44.5124 42.2325L45.3393 42.7441Z" fill="#F6F2ED"/>
<path d="M46.4427 39.6427H44.2392C44.1852 39.6549 44.1301 39.6476 44.0782 39.6215C44.0262 39.5953 43.9789 39.5511 43.9398 39.4921C43.9007 39.4331 43.8709 39.3611 43.8528 39.2814C43.8346 39.2018 43.8285 39.1168 43.8351 39.033V36.8903C43.8351 35.9975 44.1965 35.801 44.7179 35.801C45.2394 35.801 45.6083 35.9975 45.6083 36.8903V38.6062H46.4433V39.6427H46.4427ZM45.0863 37.425C45.0863 36.9929 44.9778 36.8608 44.7174 36.8608C44.4569 36.8608 44.3547 36.9938 44.3547 37.425V38.3348C44.3547 38.5366 44.3998 38.6026 44.528 38.6026H45.0834L45.0863 37.425Z" fill="#F6F2ED"/>
<path d="M46.1591 35.1404V32.8888C46.1591 32.5835 46.0211 32.462 45.7942 32.462C45.6562 32.462 45.5182 32.5076 45.4327 32.9084L45.0897 34.5065C45.0572 34.7249 44.9732 34.9167 44.8542 35.0445C44.7351 35.1722 44.5896 35.2268 44.4459 35.1976C44.3645 35.2157 44.2815 35.2047 44.2033 35.1655C44.1251 35.1264 44.0538 35.06 43.9947 34.9716C43.9357 34.8831 43.8906 34.775 43.8628 34.6554C43.835 34.5357 43.8253 34.4079 43.8344 34.2816V32.0978H44.1167V34.1834C44.1167 34.4887 44.2097 34.6387 44.4522 34.6387C44.5319 34.6579 44.6132 34.6293 44.6797 34.5588C44.7461 34.4882 44.7926 34.3811 44.8097 34.2592L45.1371 32.7415C45.2525 32.2058 45.3825 31.9067 45.7924 31.9067C46.1464 31.9067 46.4409 32.1201 46.4409 32.7415V35.1404H46.1591Z" fill="#F6F2ED"/>
<path d="M46.4436 31.2979H43.8359V30.7622H46.4436V31.2979Z" fill="#F6F2ED"/>
<path d="M46.1012 26.5293C46.3432 26.5293 46.4396 26.7141 46.4396 27.0596V28.5238C46.4396 29.8318 45.8622 30.1309 45.1358 30.1309C44.4094 30.1309 43.8325 29.8309 43.8325 28.4488V26.6231H44.1149V28.2694C44.1149 29.2773 44.4284 29.5702 45.1363 29.5702C45.8443 29.5702 46.1572 29.2773 46.1572 28.3453V27.3293C46.1572 27.1275 46.1122 27.0614 45.984 27.0614H45.2027V26.5257L46.1012 26.5293Z" fill="#F6F2ED"/>
<path d="M46.1456 22.2607C46.1887 22.2524 46.2324 22.259 46.2737 22.2801C46.3149 22.3012 46.3525 22.3363 46.3839 22.3827C46.4152 22.4291 46.4395 22.4858 46.4549 22.5485C46.4703 22.6113 46.4765 22.6786 46.473 22.7455C46.476 22.8552 46.4583 22.9638 46.4218 23.0581C46.3854 23.1523 46.3319 23.228 46.268 23.2758L44.3019 25.1766C44.2569 25.2167 44.2384 25.2507 44.2384 25.2917C44.2384 25.315 44.2534 25.373 44.3129 25.373H46.4436V25.8962H44.1154C44.073 25.9012 44.0305 25.8917 43.9908 25.8683C43.9511 25.845 43.9152 25.8084 43.8857 25.7612C43.8562 25.7139 43.8338 25.6572 43.8201 25.595C43.8064 25.5329 43.8018 25.4668 43.8065 25.4016C43.8026 25.2961 43.8183 25.1912 43.8519 25.0992C43.8855 25.0072 43.9355 24.9321 43.9959 24.8828L45.9776 22.966C46.007 22.9374 46.0411 22.9133 46.0411 22.8562C46.0411 22.7991 46.0007 22.7866 45.9776 22.7866H43.8348V22.2625H46.1445L46.1456 22.2607Z" fill="#F6F2ED"/>
<path d="M46.4408 20.9481C46.4474 21.0252 46.4425 21.1036 46.4262 21.1772C46.41 21.2508 46.3829 21.3176 46.3472 21.3723C46.3114 21.427 46.2679 21.4681 46.2201 21.4924C46.1723 21.5167 46.1216 21.5235 46.0718 21.5123H44.2015C43.9226 21.5123 43.8325 21.299 43.8325 20.9481V18.4545H44.1149V20.7088C44.1149 20.9338 44.1599 20.9767 44.2881 20.9767H44.9643V18.5126H45.2466V20.9767H45.9765C46.107 20.9767 46.1549 20.9365 46.1549 20.7088V18.4331H46.4379V20.9481H46.4408Z" fill="#F6F2ED"/>
<path d="M44.2303 17.8545C43.9514 17.8545 43.8359 17.6411 43.8359 17.2617V15.3948C43.8359 14.6511 44.1414 14.4128 44.6259 14.4128C45.1253 14.4128 45.4562 14.6315 45.4562 15.3288V15.9796H45.4747L46.4436 14.3297V15.044L45.5272 16.5876C45.5076 16.6281 45.4829 16.6622 45.4546 16.6878C45.4264 16.7134 45.3951 16.73 45.3626 16.7367H45.3049C45.227 16.7367 45.1744 16.6474 45.1744 16.4948V15.5127C45.1744 15.0234 44.9434 14.977 44.6264 14.977C44.3094 14.977 44.12 15.0583 44.12 15.602V17.0313C44.1195 17.2161 44.157 17.3188 44.2979 17.3188H46.4442V17.8545H44.2303Z" fill="#F6F2ED"/>
<mask id="path-16-inside-1_182_9397" fill="white">
<rect x="42.854" y="7.79785" width="31.2479" height="97.3148" rx="4"/>
</mask>
<rect x="42.854" y="7.79785" width="31.2479" height="97.3148" rx="4" stroke="#372E26" stroke-width="16" mask="url(#path-16-inside-1_182_9397)"/>
<mask id="path-17-inside-2_182_9397" fill="white">
<rect x="43.7471" y="53.3311" width="30.3551" height="24.9983" rx="4"/>
</mask>
<rect x="43.7471" y="53.3311" width="30.3551" height="24.9983" rx="4" stroke="#372E26" stroke-width="16" mask="url(#path-17-inside-2_182_9397)"/>
</svg>
