<svg width="11" height="19" viewBox="0 0 11 19" fill="none" xmlns="http://www.w3.org/2000/svg">
<path d="M9.505 0H1C0.447715 0 0 0.447715 0 1V17.94C0 18.4923 0.447715 18.94 1 18.94H9.505C10.0573 18.94 10.505 18.4923 10.505 17.94V1C10.505 0.447715 10.0573 0 9.505 0Z" fill="url(#paint0_linear_182_8278)"/>
<path d="M5.12952 3.0127H1.47852C1.20237 3.0127 0.978516 3.23655 0.978516 3.5127V4.8777C0.978516 5.15384 1.20237 5.3777 1.47852 5.3777H5.12952C5.40566 5.3777 5.62952 5.15384 5.62952 4.8777V3.5127C5.62952 3.23655 5.40566 3.0127 5.12952 3.0127Z" fill="#2B2927"/>
<path d="M9.20872 6.79883H1.13672C0.860576 6.79883 0.636719 7.02269 0.636719 7.29883V17.6448C0.636719 17.921 0.860576 18.1448 1.13672 18.1448H9.20872C9.48486 18.1448 9.70872 17.921 9.70872 17.6448V7.29883C9.70872 7.02269 9.48486 6.79883 9.20872 6.79883Z" fill="#2B2927"/>
<path d="M5.92989 8.90245C5.92989 8.46283 5.57351 8.10645 5.13389 8.10645C4.69427 8.10645 4.33789 8.46283 4.33789 8.90245V9.06145C4.33789 9.50106 4.69427 9.85745 5.13389 9.85745C5.57351 9.85745 5.92989 9.50106 5.92989 9.06145V8.90245Z" fill="url(#paint1_linear_182_8278)"/>
<path d="M5.92989 13.6778C5.92989 13.2382 5.57351 12.8818 5.13389 12.8818C4.69427 12.8818 4.33789 13.2382 4.33789 13.6778V13.8368C4.33789 14.2765 4.69427 14.6328 5.13389 14.6328C5.57351 14.6328 5.92989 14.2765 5.92989 13.8368V13.6778Z" fill="url(#paint2_linear_182_8278)"/>
<path d="M5.92989 16.0646C5.92989 15.6249 5.57351 15.2686 5.13389 15.2686C4.69427 15.2686 4.33789 15.6249 4.33789 16.0646V16.2236C4.33789 16.6632 4.69427 17.0196 5.13389 17.0196C5.57351 17.0196 5.92989 16.6632 5.92989 16.2236V16.0646Z" fill="url(#paint3_linear_182_8278)"/>
<path d="M5.92989 11.2892C5.92989 10.8495 5.57351 10.4932 5.13389 10.4932C4.69427 10.4932 4.33789 10.8495 4.33789 11.2892V11.4482C4.33789 11.8878 4.69427 12.2442 5.13389 12.2442C5.57351 12.2442 5.92989 11.8878 5.92989 11.4482V11.2892Z" fill="url(#paint4_linear_182_8278)"/>
<path d="M8.31856 8.90245C8.31856 8.46283 7.96218 8.10645 7.52256 8.10645C7.08294 8.10645 6.72656 8.46283 6.72656 8.90245V9.06145C6.72656 9.50106 7.08294 9.85745 7.52256 9.85745C7.96218 9.85745 8.31856 9.50106 8.31856 9.06145V8.90245Z" fill="url(#paint5_linear_182_8278)"/>
<path d="M8.31856 13.6778C8.31856 13.2382 7.96218 12.8818 7.52256 12.8818C7.08294 12.8818 6.72656 13.2382 6.72656 13.6778V13.8368C6.72656 14.2765 7.08294 14.6328 7.52256 14.6328C7.96218 14.6328 8.31856 14.2765 8.31856 13.8368V13.6778Z" fill="url(#paint6_linear_182_8278)"/>
<path d="M8.31856 16.0646C8.31856 15.6249 7.96218 15.2686 7.52256 15.2686C7.08294 15.2686 6.72656 15.6249 6.72656 16.0646V16.2236C6.72656 16.6632 7.08294 17.0196 7.52256 17.0196C7.96218 17.0196 8.31856 16.6632 8.31856 16.2236V16.0646Z" fill="url(#paint7_linear_182_8278)"/>
<path d="M8.31856 11.2892C8.31856 10.8495 7.96218 10.4932 7.52256 10.4932C7.08294 10.4932 6.72656 10.8495 6.72656 11.2892V11.4482C6.72656 11.8878 7.08294 12.2442 7.52256 12.2442C7.96218 12.2442 8.31856 11.8878 8.31856 11.4482V11.2892Z" fill="url(#paint8_linear_182_8278)"/>
<path d="M3.54317 8.90245C3.54317 8.46283 3.18679 8.10645 2.74717 8.10645C2.30755 8.10645 1.95117 8.46283 1.95117 8.90245V9.06145C1.95117 9.50106 2.30755 9.85745 2.74717 9.85745C3.18679 9.85745 3.54317 9.50106 3.54317 9.06145V8.90245Z" fill="url(#paint9_linear_182_8278)"/>
<path d="M3.54317 13.6778C3.54317 13.2382 3.18679 12.8818 2.74717 12.8818C2.30755 12.8818 1.95117 13.2382 1.95117 13.6778V13.8368C1.95117 14.2765 2.30755 14.6328 2.74717 14.6328C3.18679 14.6328 3.54317 14.2765 3.54317 13.8368V13.6778Z" fill="url(#paint10_linear_182_8278)"/>
<path d="M3.54317 16.0646C3.54317 15.6249 3.18679 15.2686 2.74717 15.2686C2.30755 15.2686 1.95117 15.6249 1.95117 16.0646V16.2236C1.95117 16.6632 2.30755 17.0196 2.74717 17.0196C3.18679 17.0196 3.54317 16.6632 3.54317 16.2236V16.0646Z" fill="url(#paint11_linear_182_8278)"/>
<path d="M3.54317 11.2892C3.54317 10.8495 3.18679 10.4932 2.74717 10.4932C2.30755 10.4932 1.95117 10.8495 1.95117 11.2892V11.4482C1.95117 11.8878 2.30755 12.2442 2.74717 12.2442C3.18679 12.2442 3.54317 11.8878 3.54317 11.4482V11.2892Z" fill="url(#paint12_linear_182_8278)"/>
<defs>
<linearGradient id="paint0_linear_182_8278" x1="-0.160382" y1="0.894389" x2="18.6416" y2="5.57337" gradientUnits="userSpaceOnUse">
<stop stop-color="#A58969"/>
<stop offset="1" stop-color="#C7B664"/>
</linearGradient>
<linearGradient id="paint1_linear_182_8278" x1="4.31359" y1="8.18913" x2="6.90773" y2="9.24737" gradientUnits="userSpaceOnUse">
<stop stop-color="#A58969"/>
<stop offset="1" stop-color="#C7B664"/>
</linearGradient>
<linearGradient id="paint2_linear_182_8278" x1="4.31359" y1="12.9645" x2="6.90773" y2="14.0228" gradientUnits="userSpaceOnUse">
<stop stop-color="#A58969"/>
<stop offset="1" stop-color="#C7B664"/>
</linearGradient>
<linearGradient id="paint3_linear_182_8278" x1="4.31359" y1="15.3512" x2="6.90773" y2="16.4095" gradientUnits="userSpaceOnUse">
<stop stop-color="#A58969"/>
<stop offset="1" stop-color="#C7B664"/>
</linearGradient>
<linearGradient id="paint4_linear_182_8278" x1="4.31359" y1="10.5759" x2="6.90773" y2="11.6341" gradientUnits="userSpaceOnUse">
<stop stop-color="#A58969"/>
<stop offset="1" stop-color="#C7B664"/>
</linearGradient>
<linearGradient id="paint5_linear_182_8278" x1="6.70226" y1="8.18913" x2="9.2964" y2="9.24737" gradientUnits="userSpaceOnUse">
<stop stop-color="#A58969"/>
<stop offset="1" stop-color="#C7B664"/>
</linearGradient>
<linearGradient id="paint6_linear_182_8278" x1="6.70226" y1="12.9645" x2="9.2964" y2="14.0228" gradientUnits="userSpaceOnUse">
<stop stop-color="#A58969"/>
<stop offset="1" stop-color="#C7B664"/>
</linearGradient>
<linearGradient id="paint7_linear_182_8278" x1="6.70226" y1="15.3512" x2="9.2964" y2="16.4095" gradientUnits="userSpaceOnUse">
<stop stop-color="#A58969"/>
<stop offset="1" stop-color="#C7B664"/>
</linearGradient>
<linearGradient id="paint8_linear_182_8278" x1="6.70226" y1="10.5759" x2="9.2964" y2="11.6341" gradientUnits="userSpaceOnUse">
<stop stop-color="#A58969"/>
<stop offset="1" stop-color="#C7B664"/>
</linearGradient>
<linearGradient id="paint9_linear_182_8278" x1="1.92687" y1="8.18913" x2="4.52101" y2="9.24737" gradientUnits="userSpaceOnUse">
<stop stop-color="#A58969"/>
<stop offset="1" stop-color="#C7B664"/>
</linearGradient>
<linearGradient id="paint10_linear_182_8278" x1="1.92687" y1="12.9645" x2="4.52101" y2="14.0228" gradientUnits="userSpaceOnUse">
<stop stop-color="#A58969"/>
<stop offset="1" stop-color="#C7B664"/>
</linearGradient>
<linearGradient id="paint11_linear_182_8278" x1="1.92687" y1="15.3512" x2="4.52101" y2="16.4095" gradientUnits="userSpaceOnUse">
<stop stop-color="#A58969"/>
<stop offset="1" stop-color="#C7B664"/>
</linearGradient>
<linearGradient id="paint12_linear_182_8278" x1="1.92687" y1="10.5759" x2="4.52101" y2="11.6341" gradientUnits="userSpaceOnUse">
<stop stop-color="#A58969"/>
<stop offset="1" stop-color="#C7B664"/>
</linearGradient>
</defs>
</svg>
