<svg width="282" height="202" viewBox="0 0 282 202" fill="none" xmlns="http://www.w3.org/2000/svg">
<path opacity="0.2" d="M132.119 201.554C187.777 201.554 232.896 156.435 232.896 100.777C232.896 45.1194 187.777 0 132.119 0C76.4614 0 31.342 45.1194 31.342 100.777C31.342 156.435 76.4614 201.554 132.119 201.554Z" fill="url(#paint0_linear_526_6048)"/>
<path opacity="0.2" d="M275.158 84.5168C276.325 84.5168 277.465 84.1708 278.436 83.5225C279.406 82.8742 280.162 81.9527 280.609 80.8746C281.055 79.7965 281.172 78.6103 280.944 77.4658C280.717 76.3213 280.155 75.27 279.33 74.4449C278.505 73.6197 277.453 73.0578 276.309 72.8302C275.164 72.6025 273.978 72.7194 272.9 73.1659C271.822 73.6125 270.9 74.3687 270.252 75.3389C269.604 76.3092 269.258 77.4499 269.258 78.6168C269.258 80.1816 269.879 81.6823 270.986 82.7887C272.092 83.8952 273.593 84.5168 275.158 84.5168Z" fill="url(#paint1_linear_526_6048)"/>
<path d="M63.0378 182.555H61.2158V186.091H63.0378V182.555Z" fill="#F6F2ED"/>
<path d="M63.0378 192.297H61.2158V195.833H63.0378V192.297Z" fill="#F6F2ED"/>
<path d="M68.7674 188.283H65.2314V190.105H68.7674V188.283Z" fill="#F6F2ED"/>
<path d="M59.0243 188.283H55.4883V190.105H59.0243V188.283Z" fill="#F6F2ED"/>
<path d="M3.612 50.3666C5.60685 50.3666 7.224 48.7494 7.224 46.7546C7.224 44.7597 5.60685 43.1426 3.612 43.1426C1.61715 43.1426 0 44.7597 0 46.7546C0 48.7494 1.61715 50.3666 3.612 50.3666Z" fill="#F6F2ED"/>
<path d="M16.4548 103.625C18.0371 103.625 19.3198 102.342 19.3198 100.76C19.3198 99.1772 18.0371 97.8945 16.4548 97.8945C14.8725 97.8945 13.5898 99.1772 13.5898 100.76C13.5898 102.342 14.8725 103.625 16.4548 103.625Z" fill="#F6F2ED"/>
<path d="M269.262 145.472C271.029 145.472 272.463 144.039 272.463 142.271C272.463 140.503 271.029 139.07 269.262 139.07C267.494 139.07 266.061 140.503 266.061 142.271C266.061 144.039 267.494 145.472 269.262 145.472Z" fill="#F6F2ED"/>
<path d="M225.455 22.482C227.037 22.482 228.32 21.1992 228.32 19.617C228.32 18.0347 227.037 16.752 225.455 16.752C223.873 16.752 222.59 18.0347 222.59 19.617C222.59 21.1992 223.873 22.482 225.455 22.482Z" fill="#F6F2ED"/>
<path d="M61.5528 76.3809H10.3828V128.794H61.5528V76.3809Z" fill="url(#paint2_linear_526_6048)"/>
<path d="M258.963 46.4414H256.449V50.7394H258.963V46.4414Z" fill="#F6F2ED"/>
<path d="M258.963 58.2832H256.449V62.5812H258.963V58.2832Z" fill="#F6F2ED"/>
<path d="M265.776 53.2539H261.478V55.7679H265.776V53.2539Z" fill="#F6F2ED"/>
<path d="M253.933 53.2539H249.635V55.7679H253.933V53.2539Z" fill="#F6F2ED"/>
<path d="M204.023 176.268C205.391 176.268 206.5 175.159 206.5 173.791C206.5 172.423 205.391 171.314 204.023 171.314C202.655 171.314 201.546 172.423 201.546 173.791C201.546 175.159 202.655 176.268 204.023 176.268Z" fill="#F6F2ED"/>
<path d="M189.99 28.6856H85.2774C85.1123 28.6856 84.9489 28.7181 84.7964 28.7812C84.6438 28.8444 84.5053 28.937 84.3885 29.0537C84.2718 29.1705 84.1792 29.309 84.1161 29.4615C84.0529 29.614 84.0204 29.7775 84.0204 29.9426V168.559C84.0207 168.892 84.1532 169.211 84.3888 169.447C84.6245 169.683 84.9441 169.815 85.2774 169.816H157.031C157.199 169.816 157.365 169.783 157.519 169.719C157.674 169.655 157.814 169.56 157.931 169.441L190.894 135.941C191.126 135.706 191.255 135.389 191.255 135.06V29.9436C191.255 29.7778 191.223 29.6136 191.159 29.4605C191.095 29.3074 191.002 29.1684 190.884 29.0515C190.767 28.9346 190.627 28.8421 190.474 28.7793C190.321 28.7165 190.156 28.6846 189.99 28.6856ZM188.733 134.543L156.502 167.303H86.5324V31.2026H188.732V134.543H188.733Z" fill="#F6F2ED"/>
<path d="M120.702 59.2023V49.2023C120.702 48.869 120.569 48.5494 120.334 48.3138C120.098 48.0781 119.779 47.9456 119.445 47.9453H102.79C102.457 47.9453 102.137 48.0777 101.901 48.3135C101.666 48.5492 101.533 48.8689 101.533 49.2023V65.8623C101.533 66.1957 101.666 66.5154 101.901 66.7511C102.137 66.9869 102.457 67.1193 102.79 67.1193H119.449V64.6083H104.049V50.4623H118.195V59.2013H120.702V59.2023Z" fill="#F6F2ED"/>
<path d="M120.702 85.5558V75.5558C120.702 75.3908 120.67 75.2273 120.607 75.0748C120.543 74.9223 120.451 74.7837 120.334 74.667C120.217 74.5503 120.079 74.4577 119.926 74.3945C119.774 74.3313 119.61 74.2988 119.445 74.2988H102.79C102.625 74.2988 102.462 74.3313 102.309 74.3945C102.157 74.4577 102.018 74.5503 101.901 74.667C101.785 74.7837 101.692 74.9223 101.629 75.0748C101.566 75.2273 101.533 75.3908 101.533 75.5558V92.2178C101.533 92.5512 101.666 92.8709 101.901 93.1067C102.137 93.3424 102.457 93.4748 102.79 93.4748H119.449V90.9608H104.049V76.8178H118.195V85.5568H120.702V85.5558Z" fill="#F6F2ED"/>
<path d="M120.702 111.907V101.907C120.702 101.574 120.57 101.254 120.334 101.019C120.098 100.783 119.779 100.65 119.445 100.65H102.79C102.457 100.65 102.137 100.783 101.901 101.019C101.666 101.254 101.533 101.574 101.533 101.907V118.567C101.534 118.901 101.666 119.22 101.902 119.456C102.137 119.692 102.457 119.824 102.79 119.824H119.449V117.31H104.049V103.168H118.195V111.907H120.702Z" fill="#F6F2ED"/>
<path d="M114.747 53.9473H107.531V61.1263H114.747V53.9473Z" fill="#F6F2ED"/>
<path d="M114.747 80.2988H107.531V87.4778H114.747V80.2988Z" fill="#F6F2ED"/>
<path d="M114.747 106.652H107.531V113.831H114.747V106.652Z" fill="#F6F2ED"/>
<path d="M120.702 138.728V128.728C120.702 128.394 120.569 128.075 120.334 127.839C120.098 127.603 119.779 127.471 119.445 127.471H102.79C102.457 127.471 102.137 127.603 101.901 127.839C101.666 128.075 101.533 128.394 101.533 128.728V145.387C101.533 145.72 101.666 146.04 101.901 146.276C102.137 146.511 102.457 146.644 102.79 146.644H119.449V144.13H104.049V129.989H118.195V138.727H120.702V138.728Z" fill="#F6F2ED"/>
<path d="M114.747 133.473H107.531V140.652H114.747V133.473Z" fill="#F6F2ED"/>
<path d="M191.153 134.57C191.057 134.342 190.896 134.147 190.689 134.009C190.483 133.872 190.241 133.799 189.994 133.799H157.026C156.692 133.799 156.372 133.931 156.137 134.167C155.901 134.403 155.769 134.722 155.769 135.056V168.556C155.769 168.805 155.843 169.049 155.982 169.256C156.121 169.463 156.319 169.624 156.55 169.719C156.7 169.781 156.862 169.813 157.026 169.813C157.193 169.813 157.359 169.78 157.514 169.716C157.668 169.651 157.808 169.556 157.926 169.437L190.893 135.937C191.066 135.76 191.183 135.536 191.229 135.293C191.275 135.049 191.249 134.798 191.153 134.57ZM158.283 165.49V136.314H186.993L158.283 165.49Z" fill="#F6F2ED"/>
<path d="M161.765 139.797V156.985L178.678 139.797H161.765Z" fill="#F6F2ED"/>
<path d="M236.222 47.9492H199.689V50.4632H234.965V66.0712H237.479V49.2072C237.48 49.042 237.447 48.8784 237.384 48.7257C237.321 48.573 237.229 48.4343 237.112 48.3174C236.995 48.2006 236.856 48.1079 236.704 48.0447C236.551 47.9815 236.388 47.9491 236.222 47.9492Z" fill="#F6F2ED"/>
<path d="M234.966 139.468V155.076H199.69V157.59H236.223C236.557 157.59 236.877 157.457 237.112 157.222C237.348 156.986 237.48 156.666 237.48 156.333V139.467H234.965L234.966 139.468Z" fill="#F6F2ED"/>
<path d="M34.5744 47.9492C34.4093 47.9492 34.2459 47.9817 34.0933 48.0449C33.9408 48.1081 33.8023 48.2007 33.6855 48.3174C33.5688 48.4341 33.4762 48.5727 33.4131 48.7252C33.3499 48.8777 33.3174 49.0411 33.3174 49.2062V66.0712H35.8314V50.4652H71.1084V47.9492H34.5744Z" fill="#F6F2ED"/>
<path d="M35.8314 155.077V139.469H33.3174V156.334C33.3176 156.667 33.4502 156.987 33.6858 157.222C33.9215 157.458 34.2411 157.59 34.5744 157.591H71.1074V155.077H35.8314Z" fill="#F6F2ED"/>
<path d="M211.957 86.4064L209.857 85.0184C209.378 85.7424 208.922 86.4944 208.503 87.2574L210.703 88.4684C211.096 87.7674 211.515 87.0734 211.957 86.4064ZM207.221 104.731L204.714 104.924C204.782 105.795 204.885 106.668 205.023 107.524L207.505 107.124C207.374 106.337 207.278 105.532 207.221 104.731ZM209.643 90.6314L207.343 89.6084C206.988 90.4034 206.664 91.2224 206.378 92.0434L208.752 92.8714C209.013 92.1124 209.312 91.3584 209.638 90.6264L209.643 90.6314ZM208.055 95.1764L205.62 94.5494C205.403 95.3934 205.22 96.2494 205.073 97.1074L207.551 97.5314C207.681 96.7434 207.851 95.9494 208.05 95.1714L208.055 95.1764ZM207.244 99.9194L204.744 99.7014C204.669 100.561 204.629 101.44 204.625 102.313L207.139 102.324C207.133 101.516 207.171 100.707 207.24 99.9154L207.244 99.9194ZM211.802 118.28L209.693 119.648C210.165 120.375 210.675 121.094 211.207 121.782L213.191 120.243C212.701 119.607 212.232 118.943 211.797 118.276L211.802 118.28ZM214.747 122.089L212.891 123.789C213.478 124.431 214.099 125.056 214.735 125.646L216.444 123.803C215.853 123.251 215.282 122.676 214.742 122.085L214.747 122.089ZM209.527 114.041L207.221 115.041C207.567 115.841 207.951 116.63 208.362 117.395L210.577 116.206C210.194 115.499 209.841 114.77 209.521 114.037L209.527 114.041ZM207.986 109.486L205.545 110.086C205.753 110.928 206 111.774 206.279 112.598L208.661 111.793C208.4 111.034 208.173 110.256 207.981 109.482L207.986 109.486ZM264.505 95.5864L266.948 94.9934C266.748 94.1504 266.501 93.3044 266.226 92.4774L263.841 93.2714C264.088 94.0274 264.312 94.8064 264.5 95.5824L264.505 95.5864ZM262.986 91.0224L265.297 90.0344C264.956 89.2344 264.576 88.4434 264.169 87.6744L261.948 88.8534C262.321 89.5544 262.666 90.2854 262.981 91.0174L262.986 91.0224ZM214.945 82.6324L213.106 80.9184C212.506 81.5574 211.938 82.2244 211.406 82.9034L213.38 84.4614C213.864 83.8314 214.391 83.2154 214.94 82.6274L214.945 82.6324ZM257.806 82.9514L259.67 81.2634C259.084 80.6164 258.47 79.9894 257.836 79.3974L256.116 81.2324C256.693 81.7724 257.261 82.3514 257.801 82.9434L257.806 82.9514ZM265.247 100.342L267.755 100.16C267.692 99.2904 267.593 98.4164 267.455 97.5604L264.971 97.9484C265.092 98.7304 265.184 99.5364 265.242 100.337L265.247 100.342ZM216.975 77.4004C216.29 77.9264 215.616 78.4914 214.968 79.0794L216.659 80.9404C217.259 80.3984 217.876 79.8784 218.506 79.3944L216.975 77.4004ZM246.721 72.6434C245.902 72.3554 245.061 72.0974 244.221 71.8784L243.586 74.3104C244.361 74.5104 245.135 74.7494 245.886 75.0104L246.721 72.6434ZM251.496 74.7854C250.738 74.3654 249.95 73.9714 249.155 73.6144L248.125 75.9074C248.857 76.2364 249.583 76.5994 250.281 76.9844L251.496 74.7854ZM255.849 77.6854C255.168 77.1464 254.457 76.6284 253.734 76.1454L252.334 78.2374C253 78.6814 253.656 79.1584 254.283 79.6554L255.849 77.6854ZM260.727 86.7714L262.843 85.4124C262.374 84.6824 261.868 83.9624 261.343 83.2714L259.343 84.8004C259.83 85.4344 260.295 86.0974 260.726 86.7694L260.727 86.7714ZM254.058 125.455L255.601 127.439C256.29 126.903 256.962 126.339 257.601 125.75L255.901 123.899C255.311 124.435 254.693 124.958 254.057 125.453L254.058 125.455ZM250.028 128.083L251.222 130.296C251.984 129.885 252.74 129.435 253.47 128.959L252.097 126.852C251.421 127.289 250.727 127.703 250.027 128.081L250.028 128.083ZM257.605 122.198L259.453 123.904C260.04 123.267 260.611 122.596 261.147 121.91L259.166 120.361C258.67 120.991 258.146 121.608 257.604 122.195L257.605 122.198ZM245.621 130.007L246.431 132.387C247.25 132.108 248.071 131.787 248.87 131.441L247.863 129.141C247.128 129.458 246.373 129.751 245.621 130.007ZM260.569 118.4L262.669 119.78C263.147 119.051 263.599 118.296 264.013 117.533L261.804 116.333C261.421 117.034 261.008 117.729 260.569 118.4ZM264.432 109.619L266.87 110.235C267.083 109.389 267.263 108.529 267.405 107.673L264.924 107.262C264.794 108.048 264.628 108.843 264.432 109.619ZM265.321 102.463C265.321 103.263 265.288 104.078 265.221 104.869L267.727 105.075C267.797 104.215 267.834 103.336 267.834 102.462H265.321V102.463ZM262.87 114.169L265.17 115.182C265.52 114.382 265.841 113.565 266.124 112.742L263.747 111.925C263.484 112.682 263.189 113.438 262.867 114.169H262.87ZM216.721 127.337C217.401 127.872 218.115 128.386 218.844 128.868L220.229 126.768C219.558 126.325 218.9 125.85 218.275 125.359L216.721 127.337ZM240.954 131.175L241.359 133.657C242.221 133.516 243.083 133.339 243.922 133.128L243.312 130.689C242.538 130.881 241.745 131.043 240.952 131.174L240.954 131.175ZM221.088 130.219C221.851 130.635 222.641 131.026 223.437 131.378L224.455 129.078C223.723 128.754 222.997 128.395 222.295 128.011L221.088 130.219ZM225.874 132.34C226.695 132.624 227.538 132.877 228.38 133.092L229.003 130.656C228.229 130.456 227.453 130.225 226.696 129.963L225.874 132.34ZM226.164 72.4914C225.338 72.7684 224.516 73.0844 223.721 73.4274L224.721 75.7354C225.453 75.4204 226.208 75.1354 226.968 74.8754L226.164 72.4914ZM221.364 74.5624C220.593 74.9744 219.835 75.4204 219.11 75.8894L220.474 78.0014C221.141 77.5714 221.84 77.1604 222.55 76.7794L221.364 74.5624ZM236.435 73.3714L236.463 70.8574H236.221C235.426 70.8574 234.621 70.8864 233.837 70.9454L234.024 73.4534C234.749 73.3994 235.488 73.3714 236.224 73.3714H236.435ZM236.153 131.559L236.226 134.073H236.257C237.087 134.073 237.93 134.039 238.764 133.973L238.564 131.467C237.784 131.527 236.996 131.537 236.15 131.558L236.153 131.559ZM241.664 71.3234C240.814 71.1754 239.941 71.0614 239.069 70.9834L238.845 73.4834C239.645 73.5554 240.451 73.6604 241.233 73.7964L241.664 71.3234ZM230.943 133.634C231.802 133.778 232.675 133.887 233.538 133.961L233.75 131.455C232.955 131.388 232.15 131.286 231.359 131.155L230.943 133.634ZM231.243 71.2474C230.389 71.3814 229.526 71.5554 228.677 71.7634L229.277 74.2054C230.059 74.0134 230.852 73.8544 231.636 73.7314L231.243 71.2474Z" fill="#F6F2ED"/>
<path d="M14.0194 69.3683H11.5054V71.8823H14.0194V69.3683ZM12.6644 135.807H15.1784V133.293H12.6644V135.807ZM3.69637 129.879C3.96138 130.838 4.40219 131.739 4.99637 132.537L7.01337 131.037C6.60295 130.488 6.2978 129.868 6.11337 129.207L3.69637 129.879ZM19.0484 69.3683H16.5344V71.8823H19.0484V69.3683ZM7.16537 134.547C8.00536 135.081 8.93717 135.454 9.91337 135.647L10.4044 133.182C9.73205 133.049 9.09044 132.792 8.51237 132.423L7.16537 134.547ZM24.0774 69.3653H21.5624V71.8793H24.0764L24.0774 69.3653ZM27.7494 135.807H30.2634V133.293H27.7494V135.807ZM29.1054 69.3683H26.5904V71.8823H29.1044L29.1054 69.3683ZM22.7204 135.807H25.2394V133.293H22.7204V135.807ZM17.6924 135.807H20.2064V133.293H17.6924V135.807ZM5.91537 124.537H3.40137V127.047H5.91537V124.537ZM6.51537 74.9373L4.27437 73.7963C3.82087 74.6863 3.53768 75.6532 3.43937 76.6473L5.93937 76.9003C6.00858 76.2169 6.20495 75.5525 6.51837 74.9413L6.51537 74.9373ZM5.91537 79.2773H3.40137V81.7913H5.91537V79.2773ZM5.91537 84.3053H3.40137V86.8193H5.91537V84.3053ZM34.1334 69.3633H31.6194V71.8773H34.1334V69.3633ZM68.2394 75.3013C67.9746 74.342 67.5338 73.4404 66.9394 72.6423L64.9214 74.1423C65.3323 74.6912 65.6375 75.3117 65.8214 75.9723L68.2394 75.3013ZM9.49737 72.2473L8.59737 69.9003C7.66817 70.2563 6.81305 70.7815 6.07537 71.4493L7.76037 73.3153C8.26836 72.855 8.85732 72.4928 9.49737 72.2473ZM5.91537 94.3673H3.40137V96.8813H5.91537V94.3673ZM5.91537 104.424H3.40137V106.938H5.91537V104.424ZM5.91537 109.452H3.40137V111.966H5.91537V109.452ZM5.91537 119.509H3.40137V122.023H5.91537V119.509ZM5.91537 99.3963H3.40137V101.91H5.91537V99.3963ZM5.91537 89.3393H3.40137V91.8533H5.91537V89.3393ZM5.91537 114.481H3.40137V116.995H5.91537V114.481ZM66.0154 120.87H68.5294V118.356H66.0194L66.0154 120.87ZM66.0154 105.784H68.5294V103.27H66.0194L66.0154 105.784ZM66.0154 110.812H68.5294V108.298H66.0194L66.0154 110.812ZM32.7744 135.812H35.2884V133.298H32.7774L32.7744 135.812ZM62.4284 132.93L63.3284 135.277C64.257 134.922 65.1117 134.397 65.8494 133.73L64.1664 131.862C63.6588 132.32 63.0709 132.681 62.4324 132.925L62.4284 132.93ZM65.4104 130.242L67.6504 131.383C68.1028 130.496 68.3863 129.533 68.4864 128.542L65.9864 128.287C65.918 128.967 65.724 129.628 65.4144 130.237L65.4104 130.242ZM66.0104 125.902H68.5244V123.388H66.0194L66.0104 125.902ZM66.0104 85.6743H68.5244V83.1603H66.0194L66.0104 85.6743ZM66.0104 78.1323V80.6463H68.5244V78.1273L66.0104 78.1323ZM66.0104 95.7323H68.5244V93.2183H66.0194L66.0104 95.7323ZM66.0104 90.7043H68.5244V88.1903H66.0194L66.0104 90.7043ZM66.0104 100.761H68.5244V98.2473H66.0194L66.0104 100.761ZM66.0104 115.846H68.5244V113.332H66.0194L66.0104 115.846ZM64.7664 70.6343C63.9262 70.1003 62.994 69.7272 62.0174 69.5343L61.5264 71.9993C62.1983 72.1329 62.8395 72.3903 63.4174 72.7583L64.7664 70.6343ZM49.2104 69.3733H46.7044V71.8873H49.2184L49.2104 69.3733ZM42.8394 135.807H45.3534V133.293H42.8394V135.807ZM37.8104 135.807H40.3194V133.293H37.8054L37.8104 135.807ZM39.1664 69.3683H36.6474V71.8823H39.1614L39.1664 69.3683ZM44.1954 69.3683H41.6764V71.8823H44.1904L44.1954 69.3683ZM57.9194 135.807H60.4334V133.293H57.9194V135.807ZM59.2754 69.3683H56.7614V71.8823H59.2754V69.3683ZM54.2474 69.3683H51.7324V71.8823H54.2464L54.2474 69.3683ZM47.8624 135.807H50.3764V133.293H47.8624V135.807ZM52.8904 135.807H55.4044V133.293H52.8914L52.8904 135.807Z" fill="#F6F2ED"/>
<path d="M238.091 95.5607H235.051V100.874H238.091C238.811 100.877 239.505 100.598 240.022 100.096C240.274 99.8527 240.475 99.5615 240.612 99.2394C240.75 98.9173 240.821 98.5709 240.822 98.2207C240.811 97.5062 240.518 96.825 240.006 96.3264C239.494 95.8278 238.805 95.5524 238.091 95.5607Z" fill="#F6F2ED"/>
<path d="M239.337 103.61H235.055V109.365H239.337C240.116 109.367 240.866 109.064 241.425 108.52C241.699 108.257 241.917 107.941 242.065 107.592C242.214 107.242 242.291 106.866 242.291 106.487C242.28 105.714 241.962 104.977 241.409 104.437C240.855 103.898 240.11 103.6 239.337 103.61Z" fill="#F6F2ED"/>
<path d="M236.225 82.2383C232.225 82.2385 228.315 83.4247 224.989 85.6471C221.664 87.8694 219.072 91.0279 217.541 94.7234C216.011 98.4188 215.61 102.485 216.391 106.408C217.171 110.331 219.097 113.934 221.925 116.763C224.754 119.591 228.357 121.517 232.28 122.298C236.203 123.078 240.269 122.678 243.965 121.147C247.66 119.616 250.819 117.024 253.041 113.699C255.264 110.373 256.45 106.463 256.45 102.463C256.444 97.1012 254.311 91.9606 250.519 88.1691C246.728 84.3775 241.587 82.2446 236.225 82.2383ZM246.262 110.825C245.191 111.865 243.755 112.443 242.262 112.437H239.553V116.753H236.793V112.437H235.052V116.753H232.298V112.477H226.706V109.583H228.772C228.941 109.612 229.114 109.601 229.277 109.551C229.441 109.501 229.59 109.413 229.714 109.295C229.838 109.177 229.933 109.032 229.991 108.871C230.049 108.71 230.068 108.538 230.048 108.368V96.5963C230.068 96.4264 230.049 96.2542 229.991 96.0933C229.933 95.9324 229.838 95.7872 229.714 95.6692C229.59 95.5513 229.441 95.4638 229.277 95.4138C229.114 95.3639 228.941 95.3527 228.772 95.3813H226.706V92.4873H232.298V88.1713H235.052V92.4873H236.793V88.1713H239.553V92.4873H241.473C242.683 92.4726 243.85 92.9389 244.717 93.7837C245.584 94.6285 246.08 95.7829 246.097 96.9933C246.097 97.588 245.976 98.1765 245.744 98.7237C245.511 99.2709 245.17 99.7656 244.742 100.178C244.076 100.822 243.235 101.255 242.324 101.421C243.794 101.418 245.205 101.995 246.252 103.026C247.299 104.057 247.897 105.46 247.916 106.929C247.916 107.656 247.769 108.376 247.485 109.046C247.201 109.715 246.785 110.32 246.262 110.825Z" fill="url(#paint3_linear_526_6048)"/>
<path d="M166.689 47.9492H128.804C128.547 47.9495 128.3 48.0518 128.118 48.2336C127.937 48.4155 127.834 48.662 127.834 48.9192V54.9642C127.834 55.2214 127.937 55.468 128.118 55.6498C128.3 55.8317 128.547 55.934 128.804 55.9342H166.689C166.946 55.934 167.193 55.8317 167.375 55.6498C167.556 55.468 167.659 55.2214 167.659 54.9642V48.9192C167.659 48.662 167.556 48.4155 167.375 48.2336C167.193 48.0518 166.946 47.9495 166.689 47.9492ZM165.718 53.9932H129.775V49.8932H165.719L165.718 53.9932Z" fill="#F6F2ED"/>
<path d="M166.689 58.873H128.804C128.547 58.8733 128.3 58.9756 128.118 59.1574C127.937 59.3393 127.834 59.5859 127.834 59.843V65.887C127.834 66.1442 127.937 66.3908 128.118 66.5726C128.3 66.7545 128.547 66.8568 128.804 66.857H166.689C166.946 66.8568 167.193 66.7545 167.375 66.5726C167.556 66.3908 167.659 66.1442 167.659 65.887V59.843C167.659 59.5859 167.556 59.3393 167.375 59.1574C167.193 58.9756 166.946 58.8733 166.689 58.873ZM165.718 64.917H129.775V60.817H165.719L165.718 64.917Z" fill="#F6F2ED"/>
<path d="M166.689 74.9121H128.804C128.547 74.9124 128.3 75.0146 128.118 75.1965C127.937 75.3784 127.834 75.6249 127.834 75.8821V81.9261C127.834 82.1833 127.937 82.4298 128.118 82.6117C128.3 82.7935 128.547 82.8959 128.804 82.8961H166.689C166.946 82.8959 167.193 82.7935 167.375 82.6117C167.556 82.4298 167.659 82.1833 167.659 81.9261V75.8821C167.659 75.6249 167.556 75.3784 167.375 75.1965C167.193 75.0146 166.946 74.9124 166.689 74.9121ZM165.718 80.9561H129.775V76.8561H165.719L165.718 80.9561Z" fill="#F6F2ED"/>
<path d="M166.689 85.8359H128.804C128.547 85.8362 128.3 85.9385 128.118 86.1203C127.937 86.3022 127.834 86.5488 127.834 86.8059V92.8559C127.834 93.1131 127.937 93.3597 128.118 93.5415C128.3 93.7234 128.547 93.8257 128.804 93.8259H166.689C166.946 93.8257 167.193 93.7234 167.375 93.5415C167.556 93.3597 167.659 93.1131 167.659 92.8559V86.8059C167.659 86.5488 167.556 86.3022 167.375 86.1203C167.193 85.9385 166.946 85.8362 166.689 85.8359ZM165.718 91.8799H129.775V87.7799H165.719L165.718 91.8799Z" fill="#F6F2ED"/>
<path d="M166.689 100.654H128.804C128.547 100.655 128.3 100.757 128.118 100.939C127.937 101.121 127.834 101.367 127.834 101.624V107.668C127.834 107.925 127.937 108.172 128.118 108.354C128.3 108.536 128.547 108.638 128.804 108.638H166.689C166.946 108.638 167.193 108.536 167.375 108.354C167.556 108.172 167.659 107.925 167.659 107.668V101.624C167.659 101.367 167.556 101.121 167.375 100.939C167.193 100.757 166.946 100.655 166.689 100.654ZM165.718 106.698H129.775V102.598H165.719L165.718 106.698Z" fill="#F6F2ED"/>
<path d="M166.689 111.578H128.804C128.547 111.578 128.3 111.681 128.118 111.863C127.937 112.044 127.834 112.291 127.834 112.548V118.598C127.834 118.855 127.937 119.102 128.118 119.284C128.3 119.466 128.547 119.568 128.804 119.568H166.689C166.946 119.568 167.193 119.466 167.375 119.284C167.556 119.102 167.659 118.855 167.659 118.598V112.548C167.659 112.291 167.556 112.044 167.375 111.863C167.193 111.681 166.946 111.578 166.689 111.578ZM165.718 117.622H129.775V113.522H165.719L165.718 117.622Z" fill="#F6F2ED"/>
<path d="M151.506 127.291H128.806C128.549 127.291 128.302 127.394 128.12 127.575C127.938 127.757 127.836 128.004 127.836 128.261V134.305C127.836 134.562 127.938 134.809 128.12 134.991C128.302 135.172 128.549 135.275 128.806 135.275H151.506C151.763 135.275 152.01 135.172 152.192 134.991C152.373 134.809 152.476 134.562 152.476 134.305V128.261C152.476 128.004 152.373 127.757 152.192 127.575C152.01 127.394 151.763 127.291 151.506 127.291ZM150.535 133.335H129.775V129.235H150.536L150.535 133.335Z" fill="#F6F2ED"/>
<path d="M151.506 138.215H128.806C128.549 138.215 128.302 138.317 128.12 138.499C127.938 138.681 127.836 138.928 127.836 139.185V145.235C127.836 145.492 127.938 145.739 128.12 145.92C128.302 146.102 128.549 146.205 128.806 146.205H151.506C151.763 146.205 152.01 146.102 152.192 145.92C152.373 145.739 152.476 145.492 152.476 145.235V139.185C152.476 138.928 152.373 138.681 152.192 138.499C152.01 138.317 151.763 138.215 151.506 138.215ZM150.535 144.259H129.775V140.159H150.536L150.535 144.259Z" fill="#F6F2ED"/>
<defs>
<linearGradient id="paint0_linear_526_6048" x1="28.2648" y1="9.51783" x2="347.153" y2="152.595" gradientUnits="userSpaceOnUse">
<stop stop-color="#A58969"/>
<stop offset="1" stop-color="#C7B664"/>
</linearGradient>
<linearGradient id="paint1_linear_526_6048" x1="269.078" y1="73.274" x2="287.747" y2="81.6505" gradientUnits="userSpaceOnUse">
<stop stop-color="#A58969"/>
<stop offset="1" stop-color="#C7B664"/>
</linearGradient>
<linearGradient id="paint2_linear_526_6048" x1="9.60159" y1="78.8559" x2="91.2011" y2="114.599" gradientUnits="userSpaceOnUse">
<stop stop-color="#A58969"/>
<stop offset="1" stop-color="#C7B664"/>
</linearGradient>
<linearGradient id="paint3_linear_526_6048" x1="215.384" y1="84.1483" x2="279.379" y2="112.861" gradientUnits="userSpaceOnUse">
<stop stop-color="#A58969"/>
<stop offset="1" stop-color="#C7B664"/>
</linearGradient>
</defs>
</svg>
