<svg xmlns="http://www.w3.org/2000/svg" width="42.43" height="42.43" viewBox="0 0 42.43 42.43">
  <g id="privacy" transform="translate(-38.455 -267)">
    <g id="watch_only" data-name="watch only" transform="translate(-10 5.514)">
      <g id="Group_54506" data-name="Group 54506" transform="translate(7.486 7.486)">
        <g id="Ellipse_2007" data-name="Ellipse 2007" transform="translate(40.969 254)" fill="#f7f2ec" stroke="#002c27" stroke-width="1">
          <circle cx="21.215" cy="21.215" r="21.215" stroke="none"/>
          <circle cx="21.215" cy="21.215" r="20.715" fill="none"/>
        </g>
        <g id="Group_39720" data-name="Group 39720" transform="translate(42.662 255.806)">
          <g id="Group_39719" data-name="Group 39719" transform="translate(0 0)">
            <path id="Path_27264" data-name="Path 27264" d="M434.087,1170.751a19.6,19.6,0,0,1-5.832,13.981,19.347,19.347,0,0,1-13.75,5.639,19.62,19.62,0,1,1,19.582-19.62Z" transform="translate(-394.923 -1151.13)" fill="#2F4F4F"/>
          </g>
        </g>
        <g id="Ellipse_2008" data-name="Ellipse 2008" transform="translate(44.2 257.286)" fill="#f7f2ec" stroke="#002c27" stroke-width="1">
          <circle cx="18.055" cy="18.055" r="18.055" stroke="none"/>
          <circle cx="18.055" cy="18.055" r="17.555" fill="none"/>
        </g>
        <g id="Rectangle_7600" data-name="Rectangle 7600" transform="translate(46.853 290.724) rotate(-90)" fill="none" stroke="#002c27" stroke-width="1" stroke-dasharray="1 1.5">
          <rect width="30.88" height="30.88" rx="15.44" stroke="none"/>
          <rect x="0.5" y="0.5" width="29.88" height="29.88" rx="14.94" fill="none"/>
        </g>
      </g>
    </g>
    <path id="shield" d="M11.873,1.129a.89.89,0,0,0-.956,0L9.188,2.161a4.892,4.892,0,0,1-1.06.465L4.14,3.816a.926.926,0,0,0-.66,1l1.18,9.462a4.646,4.646,0,0,0,2.026,3.29l4.155,2.77a.929.929,0,0,0,1.022,0l4.155-2.779a4.676,4.676,0,0,0,2.026-3.29L19.226,4.8a.936.936,0,0,0-.66-1.013l-3.988-1.2a4.509,4.509,0,0,1-1.06-.474L11.79,1.074Z" transform="translate(48.316 277.472)" fill="#2F4F4F"/>
  </g>
</svg>
