<svg xmlns="http://www.w3.org/2000/svg" width="202.67" height="164.521" viewBox="0 0 202.67 164.521">
  <g id="illustration" transform="translate(-78.395 -369)">
    <circle id="Ellipse_1999" data-name="Ellipse 1999" cx="82.261" cy="82.261" r="82.261" transform="translate(93 369)" fill="#073b36" opacity="0.26"/>
    <path id="Path_25534" data-name="Path 25534" d="M121.447,19.234a4.813,4.813,0,1,0-4.813-4.813A4.813,4.813,0,0,0,121.447,19.234Z" transform="translate(149.58 426.792)" fill="#073b36" opacity="0.2"/>
    <g id="Group_40650" data-name="Group 40650" transform="translate(80.732 433.452)">
      <g id="Group_40649" data-name="Group 40649">
        <circle id="Ellipse_2034" data-name="Ellipse 2034" cx="2.948" cy="2.948" r="2.948" fill="#508b82"/>
      </g>
    </g>
    <g id="Group_40652" data-name="Group 40652" transform="translate(78.395 448.822)">
      <g id="Group_40651" data-name="Group 40651">
        <circle id="Ellipse_2035" data-name="Ellipse 2035" cx="2.339" cy="2.339" r="2.339" fill="#508b82"/>
      </g>
    </g>
    <g id="Group_40656" data-name="Group 40656" transform="translate(275.839 451.261)">
      <g id="Group_40655" data-name="Group 40655">
        <circle id="Ellipse_2037" data-name="Ellipse 2037" cx="2.613" cy="2.613" r="2.613" fill="#508b82"/>
      </g>
    </g>
    <g id="Group_41157" data-name="Group 41157" transform="translate(235.993 384.589)">
      <g id="Group_40651-2" data-name="Group 40651">
        <circle id="Ellipse_2035-2" data-name="Ellipse 2035" cx="2.339" cy="2.339" r="2.339" fill="#508b82"/>
      </g>
    </g>
    <g id="Group_54544" data-name="Group 54544" transform="translate(-1 3)">
      <g id="Group_54533" data-name="Group 54533" transform="translate(156.18 467.666)">
        <g id="Group_52303" data-name="Group 52303">
          <path id="Path_205941" data-name="Path 205941" d="M99.419,235.08H77a1.087,1.087,0,0,0-1.087,1.087v5.767A1.087,1.087,0,0,0,77,243.02H99.419a1.087,1.087,0,0,0,1.087-1.087v-5.767A1.087,1.087,0,0,0,99.419,235.08Zm-1.087,5.767H78.087v-3.594H98.333v3.594Z" transform="translate(-75.914 -235.08)" fill="#b2d0cb"/>
        </g>
      </g>
      <g id="Group_54534" data-name="Group 54534" transform="translate(156.181 477.896)">
        <g id="Group_52300" data-name="Group 52300">
          <path id="Path_205940" data-name="Path 205940" d="M99.419,211.972H77a1.087,1.087,0,0,0-1.087,1.087v5.768A1.087,1.087,0,0,0,77,219.913H99.419a1.087,1.087,0,0,0,1.087-1.087v-5.768A1.087,1.087,0,0,0,99.419,211.972Zm-1.087,5.767H78.087v-3.594H98.333v3.594Z" transform="translate(-75.914 -211.972)" fill="#508b82"/>
        </g>
      </g>
      <g id="Group_54535" data-name="Group 54535" transform="translate(156.18 488.128)">
        <g id="Group_52303-2" data-name="Group 52303">
          <path id="Path_205941-2" data-name="Path 205941" d="M99.419,235.08H77a1.087,1.087,0,0,0-1.087,1.087v5.767A1.087,1.087,0,0,0,77,243.02H99.419a1.087,1.087,0,0,0,1.087-1.087v-5.767A1.087,1.087,0,0,0,99.419,235.08Zm-1.087,5.767H78.087v-3.594H98.333v3.594Z" transform="translate(-75.914 -235.08)" fill="#b2d0cb"/>
        </g>
      </g>
      <g id="Group_54539" data-name="Group 54539" transform="translate(184.654 467.666)">
        <g id="Group_52303-3" data-name="Group 52303">
          <path id="Path_205941-3" data-name="Path 205941" d="M86.419,235.08H77a1.087,1.087,0,0,0-1.087,1.087v5.767A1.087,1.087,0,0,0,77,243.02h9.419a1.087,1.087,0,0,0,1.087-1.087v-5.767A1.087,1.087,0,0,0,86.419,235.08Zm-1.087,5.767H78.087v-3.594h7.246v3.594Z" transform="translate(-75.914 -235.08)" fill="#b2d0cb"/>
        </g>
      </g>
      <g id="Group_54540" data-name="Group 54540" transform="translate(184.655 477.896)">
        <g id="Group_52300-2" data-name="Group 52300">
          <path id="Path_205940-2" data-name="Path 205940" d="M86.419,211.972H77a1.087,1.087,0,0,0-1.087,1.087v5.768A1.087,1.087,0,0,0,77,219.913h9.419a1.087,1.087,0,0,0,1.087-1.087v-5.768A1.087,1.087,0,0,0,86.419,211.972Zm-1.087,5.767H78.087v-3.594h7.246v3.594Z" transform="translate(-75.914 -211.972)" fill="#508b82"/>
        </g>
      </g>
      <g id="Group_54541" data-name="Group 54541" transform="translate(184.654 488.128)">
        <g id="Group_52303-4" data-name="Group 52303">
          <path id="Path_205941-4" data-name="Path 205941" d="M86.419,235.08H77a1.087,1.087,0,0,0-1.087,1.087v5.767A1.087,1.087,0,0,0,77,243.02h9.419a1.087,1.087,0,0,0,1.087-1.087v-5.767A1.087,1.087,0,0,0,86.419,235.08Zm-1.087,5.767H78.087v-3.594h7.246v3.594Z" transform="translate(-75.914 -235.08)" fill="#b2d0cb"/>
        </g>
      </g>
      <g id="Rectangle_9994" data-name="Rectangle 9994" transform="translate(151 395)" fill="none" stroke="#b2d0cb" stroke-width="2">
        <rect width="51" height="107" rx="7" stroke="none"/>
        <rect x="1" y="1" width="49" height="105" rx="6" fill="none"/>
      </g>
      <g id="Rectangle_9995" data-name="Rectangle 9995" transform="translate(147 391)" fill="none" stroke="#f2ede6" stroke-width="2">
        <rect width="59" height="115" rx="9" stroke="none"/>
        <rect x="1" y="1" width="57" height="113" rx="8" fill="none"/>
      </g>
      <g id="Group_52302" data-name="Group 52302" transform="translate(156.181 436.973)">
        <g id="Group_52300-3" data-name="Group 52300">
          <path id="Path_205940-3" data-name="Path 205940" d="M99.419,211.972H77a1.087,1.087,0,0,0-1.087,1.087v5.768A1.087,1.087,0,0,0,77,219.913H99.419a1.087,1.087,0,0,0,1.087-1.087v-5.768A1.087,1.087,0,0,0,99.419,211.972Zm-1.087,5.767H78.087v-3.594H98.333v3.594Z" transform="translate(-75.914 -211.972)" fill="#508b82"/>
        </g>
      </g>
      <g id="Group_52304" data-name="Group 52304" transform="translate(156.18 447.204)">
        <g id="Group_52303-5" data-name="Group 52303">
          <path id="Path_205941-5" data-name="Path 205941" d="M99.419,235.08H77a1.087,1.087,0,0,0-1.087,1.087v5.767A1.087,1.087,0,0,0,77,243.02H99.419a1.087,1.087,0,0,0,1.087-1.087v-5.767A1.087,1.087,0,0,0,99.419,235.08Zm-1.087,5.767H78.087v-3.594H98.333v3.594Z" transform="translate(-75.914 -235.08)" fill="#b2d0cb"/>
        </g>
      </g>
      <g id="Group_54532" data-name="Group 54532" transform="translate(156.181 457.435)">
        <g id="Group_52300-4" data-name="Group 52300">
          <path id="Path_205940-4" data-name="Path 205940" d="M99.419,211.972H77a1.087,1.087,0,0,0-1.087,1.087v5.768A1.087,1.087,0,0,0,77,219.913H99.419a1.087,1.087,0,0,0,1.087-1.087v-5.768A1.087,1.087,0,0,0,99.419,211.972Zm-1.087,5.767H78.087v-3.594H98.333v3.594Z" transform="translate(-75.914 -211.972)" fill="#508b82"/>
        </g>
      </g>
      <g id="Group_54536" data-name="Group 54536" transform="translate(184.655 436.973)">
        <g id="Group_52300-5" data-name="Group 52300">
          <path id="Path_205940-5" data-name="Path 205940" d="M86.419,211.972H77a1.087,1.087,0,0,0-1.087,1.087v5.768A1.087,1.087,0,0,0,77,219.913h9.419a1.087,1.087,0,0,0,1.087-1.087v-5.768A1.087,1.087,0,0,0,86.419,211.972Zm-1.087,5.767H78.087v-3.594h7.246v3.594Z" transform="translate(-75.914 -211.972)" fill="#508b82"/>
        </g>
      </g>
      <g id="Group_54537" data-name="Group 54537" transform="translate(184.654 447.204)">
        <g id="Group_52303-6" data-name="Group 52303">
          <path id="Path_205941-6" data-name="Path 205941" d="M86.328,235.08H77a1.087,1.087,0,0,0-1.087,1.087v5.767A1.087,1.087,0,0,0,77,243.02h9.328a1.087,1.087,0,0,0,1.087-1.087v-5.767A1.087,1.087,0,0,0,86.328,235.08Zm-1.087,5.767H78.087v-3.594h7.154v3.594Z" transform="translate(-75.914 -235.08)" fill="#b2d0cb"/>
        </g>
      </g>
      <g id="Group_54538" data-name="Group 54538" transform="translate(184.655 457.435)">
        <g id="Group_52300-6" data-name="Group 52300">
          <path id="Path_205940-6" data-name="Path 205940" d="M86.419,211.972H77a1.087,1.087,0,0,0-1.087,1.087v5.768A1.087,1.087,0,0,0,77,219.913h9.419a1.087,1.087,0,0,0,1.087-1.087v-5.768A1.087,1.087,0,0,0,86.419,211.972Zm-1.087,5.767H78.087v-3.594h7.246v3.594Z" transform="translate(-75.914 -211.972)" fill="#508b82"/>
        </g>
      </g>
      <g id="Group_54545" data-name="Group 54545" transform="translate(156.18 425.204)">
        <g id="Group_52303-7" data-name="Group 52303">
          <path id="Path_205941-7" data-name="Path 205941" d="M114.419,211.08H77a1.087,1.087,0,0,0-1.087,1.087v29.767A1.087,1.087,0,0,0,77,243.02h37.419a1.087,1.087,0,0,0,1.087-1.087V212.167A1.087,1.087,0,0,0,114.419,211.08Zm-1.087,29.767H78.087V213.253h35.246v27.594Z" transform="translate(-75.914 -235.08)" fill="#b2d0cb"/>
        </g>
      </g>
    </g>
    <g id="Group_54542" data-name="Group 54542" transform="translate(-2.386 18.213)">
      <g id="Group_54531" data-name="Group 54531" transform="translate(170.33 -22.693)">
        <g id="Group_52378" data-name="Group 52378" transform="translate(53.549 453.87)">
          <circle id="Ellipse_3291" data-name="Ellipse 3291" cx="10.352" cy="10.352" r="10.352" fill="#508b82"/>
        </g>
        <g id="Group_52381" data-name="Group 52381" transform="translate(45.67 445.693)">
          <g id="Group_52380" data-name="Group 52380">
            <path id="Path_205966" data-name="Path 205966" d="M50.023,319.75a18.528,18.528,0,1,0,18.528,18.528A18.549,18.549,0,0,0,50.023,319.75Zm0,34.883a16.354,16.354,0,1,1,16.354-16.354A16.373,16.373,0,0,1,50.023,354.633Z" transform="translate(-31.495 -319.75)" fill="#b2d0cb"/>
          </g>
        </g>
        <g id="Group_52408" data-name="Group 52408" transform="translate(49.632 449.952)">
          <g id="Group_52407" data-name="Group 52407">
            <path id="Path_205968" data-name="Path 205968" d="M41.761,338.266l-2.063-.682a14.16,14.16,0,0,0-.55,2.285l2.148.331A12.043,12.043,0,0,1,41.761,338.266Zm-.607,3.923-2.174.021a14.464,14.464,0,0,0,.214,2.338l2.141-.375A12.2,12.2,0,0,1,41.154,342.189Zm2.459-7.437-1.732-1.315a14.388,14.388,0,0,0-1.262,1.983l1.923,1.012A12.049,12.049,0,0,1,43.613,334.752ZM41.841,346.1l-2.049.725a14.268,14.268,0,0,0,.963,2.141l1.9-1.052A12.162,12.162,0,0,1,41.841,346.1ZM46.5,332.026l-1.214-1.8a14.359,14.359,0,0,0-1.834,1.468l1.493,1.579A12.107,12.107,0,0,1,46.5,332.026Zm17.282,4.085,1.891-1.071A14.291,14.291,0,0,0,64.35,333.1l-1.689,1.367A12.145,12.145,0,0,1,63.781,336.112ZM43.762,349.57l-1.7,1.35a14.3,14.3,0,0,0,1.6,1.715l1.46-1.609A12.256,12.256,0,0,1,43.762,349.57Zm21.379-9.731,2.137-.4a14.266,14.266,0,0,0-.62-2.267l-2.042.746A12,12,0,0,1,65.141,339.839ZM50.109,330.38l-.563-2.1a14.324,14.324,0,0,0-2.212.794l.9,1.979A12.124,12.124,0,0,1,50.109,330.38Zm4.2,23.736.187,2.165a14.212,14.212,0,0,0,2.317-.394l-.542-2.105A12.136,12.136,0,0,1,54.308,354.116Zm7.157-3.174,1.475,1.6a14.241,14.241,0,0,0,1.588-1.732l-1.718-1.332A12.194,12.194,0,0,1,61.465,350.943Zm2.434-3.135,1.913,1.03a14.311,14.311,0,0,0,.941-2.153l-2.056-.7A12.291,12.291,0,0,1,63.9,347.808Zm-3.048-17.82-1.16,1.838a12.235,12.235,0,0,1,1.593,1.2l1.443-1.624A14.383,14.383,0,0,0,60.852,329.988ZM45.525,354.067a14.163,14.163,0,0,0,2.074,1.106l.86-2a12.134,12.134,0,0,1-1.757-.937Zm21.99-12.286-2.174.034,0,.25a12.231,12.231,0,0,1-.162,1.986l2.145.354a14.52,14.52,0,0,0,.191-2.348ZM49.829,355.924a14.359,14.359,0,0,0,2.319.371l.166-2.168a12.065,12.065,0,0,1-1.967-.314Zm8.322-2.8.88,1.988a14.224,14.224,0,0,0,2.061-1.127l-1.2-1.814A12.01,12.01,0,0,1,58.151,353.128Zm-6.292-25.264.21,2.164A12,12,0,0,1,54.06,330l.147-2.169A14.107,14.107,0,0,0,51.859,327.864Zm4.67.312-.5,2.116a12.063,12.063,0,0,1,1.894.616l.841-2A14.251,14.251,0,0,0,56.529,328.175Z" transform="translate(-38.98 -327.796)" fill="#f2ede6"/>
          </g>
        </g>
      </g>
      <g id="icon_recieved" transform="translate(-132.457 132.072) rotate(-45)">
        <path id="Path_118959" data-name="Path 118959" d="M8.114,15.924,16.276,7.75l1.715,1.715L9.817,17.627,8.09,15.9Z" transform="translate(28.028 464.96)" fill="#F9F4F0" fill-rule="evenodd"/>
        <path id="Path_118960" data-name="Path 118960" d="M9.895,15.385h4.792v2.433H8.666A1.212,1.212,0,0,1,7.45,16.6V10.58H9.883v4.792Z" transform="translate(27.889 465.572)" fill="#F9F4F0" fill-rule="evenodd"/>
      </g>
    </g>
    <g id="Group_54543" data-name="Group 54543" transform="translate(-114 18.213)">
      <g id="Group_54531-2" data-name="Group 54531" transform="translate(170.33 -22.693)">
        <g id="Group_52378-2" data-name="Group 52378" transform="translate(53.549 453.87)">
          <circle id="Ellipse_3291-2" data-name="Ellipse 3291" cx="10.352" cy="10.352" r="10.352" fill="#508b82"/>
        </g>
        <g id="Group_52381-2" data-name="Group 52381" transform="translate(45.67 445.693)">
          <g id="Group_52380-2" data-name="Group 52380">
            <path id="Path_205966-2" data-name="Path 205966" d="M50.023,319.75a18.528,18.528,0,1,0,18.528,18.528A18.549,18.549,0,0,0,50.023,319.75Zm0,34.883a16.354,16.354,0,1,1,16.354-16.354A16.373,16.373,0,0,1,50.023,354.633Z" transform="translate(-31.495 -319.75)" fill="#b2d0cb"/>
          </g>
        </g>
        <g id="Group_52408-2" data-name="Group 52408" transform="translate(49.632 449.952)">
          <g id="Group_52407-2" data-name="Group 52407">
            <path id="Path_205968-2" data-name="Path 205968" d="M41.761,338.266l-2.063-.682a14.16,14.16,0,0,0-.55,2.285l2.148.331A12.043,12.043,0,0,1,41.761,338.266Zm-.607,3.923-2.174.021a14.464,14.464,0,0,0,.214,2.338l2.141-.375A12.2,12.2,0,0,1,41.154,342.189Zm2.459-7.437-1.732-1.315a14.388,14.388,0,0,0-1.262,1.983l1.923,1.012A12.049,12.049,0,0,1,43.613,334.752ZM41.841,346.1l-2.049.725a14.268,14.268,0,0,0,.963,2.141l1.9-1.052A12.162,12.162,0,0,1,41.841,346.1ZM46.5,332.026l-1.214-1.8a14.359,14.359,0,0,0-1.834,1.468l1.493,1.579A12.107,12.107,0,0,1,46.5,332.026Zm17.282,4.085,1.891-1.071A14.291,14.291,0,0,0,64.35,333.1l-1.689,1.367A12.145,12.145,0,0,1,63.781,336.112ZM43.762,349.57l-1.7,1.35a14.3,14.3,0,0,0,1.6,1.715l1.46-1.609A12.256,12.256,0,0,1,43.762,349.57Zm21.379-9.731,2.137-.4a14.266,14.266,0,0,0-.62-2.267l-2.042.746A12,12,0,0,1,65.141,339.839ZM50.109,330.38l-.563-2.1a14.324,14.324,0,0,0-2.212.794l.9,1.979A12.124,12.124,0,0,1,50.109,330.38Zm4.2,23.736.187,2.165a14.212,14.212,0,0,0,2.317-.394l-.542-2.105A12.136,12.136,0,0,1,54.308,354.116Zm7.157-3.174,1.475,1.6a14.241,14.241,0,0,0,1.588-1.732l-1.718-1.332A12.194,12.194,0,0,1,61.465,350.943Zm2.434-3.135,1.913,1.03a14.311,14.311,0,0,0,.941-2.153l-2.056-.7A12.291,12.291,0,0,1,63.9,347.808Zm-3.048-17.82-1.16,1.838a12.235,12.235,0,0,1,1.593,1.2l1.443-1.624A14.383,14.383,0,0,0,60.852,329.988ZM45.525,354.067a14.163,14.163,0,0,0,2.074,1.106l.86-2a12.134,12.134,0,0,1-1.757-.937Zm21.99-12.286-2.174.034,0,.25a12.231,12.231,0,0,1-.162,1.986l2.145.354a14.52,14.52,0,0,0,.191-2.348ZM49.829,355.924a14.359,14.359,0,0,0,2.319.371l.166-2.168a12.065,12.065,0,0,1-1.967-.314Zm8.322-2.8.88,1.988a14.224,14.224,0,0,0,2.061-1.127l-1.2-1.814A12.01,12.01,0,0,1,58.151,353.128Zm-6.292-25.264.21,2.164A12,12,0,0,1,54.06,330l.147-2.169A14.107,14.107,0,0,0,51.859,327.864Zm4.67.312-.5,2.116a12.063,12.063,0,0,1,1.894.616l.841-2A14.251,14.251,0,0,0,56.529,328.175Z" transform="translate(-38.98 -327.796)" fill="#f2ede6"/>
          </g>
        </g>
      </g>
      <g id="icon_recieved-2" data-name="icon_recieved" transform="translate(-132.457 132.072) rotate(-45)">
        <path id="Path_118959-2" data-name="Path 118959" d="M8.114,15.924,16.276,7.75l1.715,1.715L9.817,17.627,8.09,15.9Z" transform="translate(28.028 464.96)" fill="#F9F4F0" fill-rule="evenodd"/>
        <path id="Path_118960-2" data-name="Path 118960" d="M9.895,15.385h4.792v2.433H8.666A1.212,1.212,0,0,1,7.45,16.6V10.58H9.883v4.792Z" transform="translate(27.889 465.572)" fill="#F9F4F0" fill-rule="evenodd"/>
      </g>
    </g>
  </g>
</svg>
