<svg width="21" height="20" viewBox="0 0 21 20" fill="none" xmlns="http://www.w3.org/2000/svg">
<g clip-path="url(#clip0_3731_2396)">
<path d="M10.7707 0.000366211H11.0494C13.0689 0.000366211 15.0886 0.000366211 17.1084 0.000366211C18.4784 0.000366211 19.3814 0.904577 19.3849 2.27734C19.388 4.30536 19.388 6.33355 19.3849 8.36191C19.3849 8.43528 19.3773 8.50915 19.3723 8.59871C19.2782 8.60276 19.1957 8.60984 19.1138 8.60984C16.4376 8.60984 13.7615 8.60681 11.0853 8.61693C10.8248 8.61693 10.7656 8.54558 10.7666 8.29309C10.7757 5.62549 10.7722 2.95739 10.7722 0.289793L10.7707 0.000366211ZM12.3895 1.60234C12.3824 1.6919 12.3743 1.74908 12.3743 1.80473C12.3743 3.46136 12.3779 5.11798 12.3688 6.7746C12.3688 7.00382 12.4785 7.00888 12.648 7.00888C14.2623 7.00534 15.8771 7.00888 17.4914 7.00888C17.5814 7.00888 17.671 7.00078 17.7676 6.99623C17.7727 6.90464 17.7797 6.83887 17.7797 6.77258C17.7797 5.26742 17.7797 3.76226 17.7797 2.2571C17.7797 1.8017 17.5774 1.60487 17.1099 1.60386C16.0081 1.60386 14.9065 1.60386 13.805 1.60386L12.3895 1.60234Z" fill="#F1F1F1"/>
<path d="M0 8.59908V8.31522C0 6.30406 0 4.29274 0 2.28124C0 0.910507 0.906045 0.00427246 2.2765 0.00427246C4.296 0.00427246 6.31567 0.00427246 8.33552 0.00427246H8.60161C8.60617 0.105471 8.61375 0.188961 8.61375 0.270932C8.61375 2.95523 8.61375 5.64003 8.61881 8.32432C8.61881 8.55303 8.56266 8.62286 8.32641 8.62185C5.63306 8.61375 2.94022 8.61679 0.247379 8.61628C0.172508 8.61223 0.0986482 8.60363 0 8.59908ZM1.60265 6.98496C1.65915 6.9959 1.71625 7.00351 1.77364 7.00773C3.44864 7.00773 5.12363 7.00773 6.79863 7.01279C6.99795 7.01279 7.01009 6.91665 7.01009 6.76283C7.00705 5.12138 7.00705 3.47994 7.01009 1.8385C7.01009 1.76564 6.99845 1.69328 6.99087 1.60372H2.29774C1.79185 1.60372 1.60316 1.79599 1.60265 2.31211C1.60265 3.77713 1.60265 5.24181 1.60265 6.70616V6.98496Z" fill="#F1F1F1"/>
<path d="M0.0120299 10.77H0.280151C2.9563 10.77 5.63244 10.7735 8.30859 10.7649C8.54939 10.7649 8.61921 10.8261 8.6187 11.0685C8.6101 13.7528 8.61314 16.4376 8.61263 19.1219C8.61263 19.1963 8.60656 19.2706 8.60251 19.3622C8.52966 19.3688 8.46592 19.3799 8.40016 19.3799C6.32197 19.3799 4.24328 19.384 2.16458 19.3799C1.169 19.3799 0.352999 18.7601 0.0848779 17.8164C0.0329965 17.639 0.00542695 17.4553 0.00292395 17.2705C-0.0031467 15.1584 -0.00449545 13.0461 -0.00112286 10.9334C0.000394804 10.8929 0.00595929 10.8514 0.0120299 10.77ZM6.99581 17.7805C7.00138 17.6601 7.00846 17.5781 7.00846 17.4946C7.00846 15.8805 7.00391 14.2659 7.01352 12.6512C7.01352 12.4256 6.94876 12.3684 6.7287 12.3694C5.11391 12.3785 3.49962 12.3739 1.88483 12.375C1.79579 12.375 1.70675 12.3831 1.60254 12.3881V12.6411C1.60254 14.121 1.60254 15.601 1.60254 17.0812C1.60254 17.5933 1.78972 17.7795 2.3032 17.7795C3.77466 17.7795 5.24628 17.7795 6.71808 17.7795L6.99581 17.7805Z" fill="#F1F1F1"/>
<path d="M16.1288 5.37924C15.46 5.37924 14.8059 5.38278 14.1518 5.37266C14.1012 5.37266 14.0106 5.27905 14.0096 5.22744C14 4.5737 14.0036 3.91995 14.0036 3.24951H16.1283L16.1288 5.37924Z" fill="#F1F1F1"/>
<path d="M3.24609 5.38032V3.2511H5.38044C5.38044 3.70649 5.38499 4.15784 5.38044 4.60918C5.3774 4.85763 5.44468 5.18602 5.31518 5.33022C5.20337 5.4552 4.85988 5.37678 4.61705 5.38082C4.16276 5.38285 3.711 5.38032 3.24609 5.38032Z" fill="#F1F1F1"/>
<path d="M3.23926 16.1322V14.0029H3.94092C4.35272 14.0029 4.76502 13.9963 5.1763 14.01C5.2451 14.01 5.36905 14.1011 5.37006 14.1522C5.38321 14.8059 5.37916 15.4602 5.37916 16.1322H3.23926Z" fill="#F1F1F1"/>
</g>
<path d="M17.7297 10.9199V14.2799H21.0001V15.9823H17.7297V19.3199H15.8481V15.9823H12.6001V14.2799H15.8481V10.9199H17.7297Z" fill="#F1F1F1"/>
<defs>
<clipPath id="clip0_3731_2396">
<rect width="19.3846" height="19.3846" fill="white"/>
</clipPath>
</defs>
</svg>
