<svg width="18" height="16" viewBox="0 0 18 16" fill="none" xmlns="http://www.w3.org/2000/svg">
<path fill-rule="evenodd" clip-rule="evenodd" d="M0.820443 0.732888C0.818578 0.636159 0.836686 0.540056 0.873685 0.450329C0.910683 0.360602 0.965812 0.279096 1.03577 0.210686C1.10573 0.142276 1.18908 0.0883689 1.28084 0.05219C1.3726 0.0160111 1.47088 -0.00169614 1.5698 0.000127864H7.88066C7.9794 -0.00101868 8.07737 0.0171516 8.16881 0.0535703C8.26026 0.089989 8.34334 0.143921 8.41316 0.212193C8.48298 0.280466 8.53813 0.361702 8.57537 0.451122C8.61262 0.540543 8.6312 0.636343 8.63002 0.732888V6.90395C8.63002 7.09829 8.55107 7.28467 8.41054 7.42209C8.27001 7.55951 8.07941 7.63671 7.88066 7.63671H1.5698C1.47107 7.63786 1.3731 7.61969 1.28165 7.58327C1.19021 7.54685 1.10713 7.49292 1.03731 7.42465C0.967493 7.35637 0.91234 7.27514 0.875096 7.18572C0.837853 7.0963 0.819271 7.0005 0.820443 6.90395V0.732888ZM2.67886 2.54403C2.67699 2.4473 2.6951 2.3512 2.7321 2.26147C2.7691 2.17174 2.82422 2.09023 2.89418 2.02183C2.96414 1.95342 3.0475 1.89951 3.13926 1.86333C3.23102 1.82715 3.3293 1.80944 3.42822 1.81127H6.0235C6.12223 1.81012 6.2202 1.82829 6.31165 1.86471C6.4031 1.90113 6.48617 1.95506 6.55599 2.02333C6.62581 2.09161 6.68096 2.17284 6.71821 2.26226C6.75545 2.35168 6.77403 2.44748 6.77286 2.54403V5.08793C6.77286 5.28227 6.69391 5.46865 6.55338 5.60607C6.41285 5.74349 6.22224 5.82069 6.0235 5.82069H3.42197C3.32324 5.82183 3.22527 5.80366 3.13382 5.76724C3.04238 5.73083 2.9593 5.6769 2.88948 5.60862C2.81966 5.54035 2.76451 5.45911 2.72726 5.36969C2.69002 5.28027 2.67144 5.18447 2.67261 5.08793L2.67886 2.54403Z" fill="#FDF7F0"/>
<path fill-rule="evenodd" clip-rule="evenodd" d="M0.820443 9.09002C0.818578 8.99329 0.836686 8.89719 0.873685 8.80746C0.910683 8.71774 0.965812 8.63623 1.03577 8.56782C1.10573 8.49941 1.18908 8.4455 1.28084 8.40932C1.3726 8.37314 1.47088 8.35544 1.5698 8.35726H7.88066C7.9794 8.35611 8.07737 8.37428 8.16881 8.4107C8.26026 8.44712 8.34334 8.50105 8.41316 8.56933C8.48298 8.6376 8.53813 8.71883 8.57537 8.80825C8.61262 8.89767 8.6312 8.99347 8.63002 9.09002V15.2672C8.63002 15.4615 8.55107 15.6479 8.41054 15.7853C8.27001 15.9227 8.07941 15.9999 7.88066 15.9999H1.5698C1.47107 16.0011 1.3731 15.9829 1.28165 15.9465C1.19021 15.9101 1.10713 15.8562 1.03731 15.7879C0.967493 15.7196 0.91234 15.6384 0.875096 15.549C0.837853 15.4595 0.819271 15.3637 0.820443 15.2672V9.09002ZM2.67886 10.9073C2.67699 10.8105 2.6951 10.7144 2.7321 10.6247C2.7691 10.535 2.82422 10.4535 2.89418 10.3851C2.96414 10.3167 3.0475 10.2627 3.13926 10.2266C3.23102 10.1904 3.3293 10.1727 3.42822 10.1745H6.0235C6.12223 10.1734 6.2202 10.1915 6.31165 10.2279C6.4031 10.2644 6.48617 10.3183 6.55599 10.3866C6.62581 10.4548 6.68096 10.5361 6.71821 10.6255C6.75545 10.7149 6.77403 10.8107 6.77286 10.9073V13.4512C6.77286 13.5474 6.75348 13.6427 6.71582 13.7316C6.67816 13.8205 6.62296 13.9013 6.55338 13.9693C6.48379 14.0373 6.40118 14.0913 6.31027 14.1281C6.21935 14.165 6.12191 14.1839 6.0235 14.1839H3.42197C3.32324 14.1851 3.22527 14.1669 3.13382 14.1305C3.04238 14.0941 2.9593 14.0401 2.88948 13.9719C2.81966 13.9036 2.76451 13.8224 2.72726 13.7329C2.69002 13.6435 2.67144 13.5477 2.67261 13.4512L2.67886 10.9073Z" fill="#FDF7F0"/>
<path fill-rule="evenodd" clip-rule="evenodd" d="M9.3669 0.732888C9.36503 0.636159 9.38314 0.540056 9.42014 0.450329C9.45714 0.360602 9.51226 0.279096 9.58222 0.210686C9.65218 0.142276 9.73554 0.0883689 9.8273 0.05219C9.91906 0.0160111 10.0173 -0.00169614 10.1163 0.000127864H16.4334C16.5321 -0.00101868 16.6301 0.0171516 16.7215 0.0535703C16.813 0.089989 16.896 0.143921 16.9659 0.212193C17.0357 0.280466 17.0908 0.361702 17.1281 0.451122C17.1653 0.540543 17.1839 0.636343 17.1827 0.732888V6.90395C17.1827 7.09829 17.1038 7.28467 16.9632 7.42209C16.8227 7.55951 16.6321 7.63671 16.4334 7.63671H10.1163C10.0175 7.63786 9.91955 7.61969 9.82811 7.58327C9.73666 7.54685 9.65359 7.49292 9.58377 7.42465C9.51395 7.35637 9.45879 7.27514 9.42155 7.18572C9.38431 7.0963 9.36572 7.0005 9.3669 6.90395V0.732888ZM11.2253 2.55013C11.2234 2.4534 11.2416 2.3573 11.2785 2.26757C11.3155 2.17785 11.3707 2.09634 11.4406 2.02793C11.5106 1.95952 11.5939 1.90561 11.6857 1.86944C11.7775 1.83326 11.8757 1.81555 11.9747 1.81737H14.5762C14.6749 1.81623 14.7729 1.8344 14.8643 1.87082C14.9558 1.90723 15.0389 1.96117 15.1087 2.02944C15.1785 2.09771 15.2337 2.17895 15.2709 2.26837C15.3081 2.35779 15.3267 2.45359 15.3256 2.55013V5.08793C15.3256 5.18415 15.3062 5.27944 15.2685 5.36834C15.2309 5.45724 15.1757 5.53802 15.1061 5.60607C15.0365 5.67411 14.9539 5.72809 14.863 5.76491C14.772 5.80173 14.6746 5.82069 14.5762 5.82069H11.9684C11.8697 5.82183 11.7717 5.80366 11.6803 5.76724C11.5888 5.73083 11.5058 5.6769 11.4359 5.60862C11.3661 5.54035 11.311 5.45911 11.2737 5.36969C11.2365 5.28027 11.2179 5.18447 11.2191 5.08793L11.2253 2.55013Z" fill="#FDF7F0"/>
<path fill-rule="evenodd" clip-rule="evenodd" d="M9.73848 8.35686H16.4278V9.81016H9.73848V8.35686Z" fill="#FDF7F0"/>
<path fill-rule="evenodd" clip-rule="evenodd" d="M14.1974 12.3553H11.968V10.902H14.1974V12.3553Z" fill="#FDF7F0"/>
<path fill-rule="evenodd" clip-rule="evenodd" d="M11.9678 15.2629H9.73848V13.8096H11.9678V15.2629Z" fill="#FDF7F0"/>
<path fill-rule="evenodd" clip-rule="evenodd" d="M16.4269 15.2617H14.1976V13.8084H16.4269V15.2617Z" fill="#FDF7F0"/>
</svg>
