<svg width="60" height="15" viewBox="0 0 60 15" fill="none" xmlns="http://www.w3.org/2000/svg">
<path fill-rule="evenodd" clip-rule="evenodd" d="M8.28916 0.327713C7.8522 -0.109238 7.14366 -0.109238 6.70722 0.327713L0.327715 6.70876C-0.109238 7.14572 -0.109238 7.85426 0.327715 8.29121L6.7067 14.6723C7.14366 15.1092 7.8522 15.1092 8.28863 14.6723L11.0626 11.8972L7.45765 8.29121C7.02069 7.85426 7.02069 7.14572 7.45765 6.70876L11.0626 3.10275L8.28916 0.327713Z" fill="#00A754"/>
<path fill-rule="evenodd" clip-rule="evenodd" d="M15.4203 0.327713C14.9834 -0.109238 14.2748 -0.109238 13.8384 0.327713L11.0644 3.10222L14.6694 6.70824C15.1063 7.14519 15.1063 7.85373 14.6694 8.29069L11.0644 11.8967L13.8384 14.6718C14.2754 15.1087 14.9839 15.1087 15.4203 14.6718L21.7993 8.29069C22.2363 7.85373 22.2363 7.14519 21.7993 6.70824L15.4203 0.327713Z" fill="#0A6E5C"/>
<path d="M26.4321 0.691406H30.1795C31.8043 0.691406 33.0351 1.87405 33.0351 3.44603C33.0351 4.65221 32.2789 5.61507 31.1674 5.95783L33.2784 9.1285H31.3025L29.5196 6.10385H28.1187V9.1285H26.4363V0.691406H26.4327H26.4321ZM28.1151 2.2749V4.63653H30.1413C30.8011 4.63653 31.303 4.12423 31.303 3.45388C31.303 2.78354 30.8011 2.27123 30.1413 2.27123H28.1151V2.2749Z" fill="#010101"/>
<path d="M33.7205 6.02127C33.7205 4.16829 35.0287 2.76953 36.7614 2.76953C37.5915 2.76953 38.2856 3.09711 38.7874 3.64814V2.91605H40.3737V9.13071H38.7874V8.39862C38.2856 8.94546 37.5915 9.27722 36.7614 9.27722C35.0287 9.27722 33.7205 7.87481 33.7205 6.02179V6.02127ZM38.7874 6.02127C38.7874 5.0464 38.0542 4.30277 37.0664 4.30277C36.0784 4.30277 35.3568 5.0464 35.3568 6.02127C35.3568 6.99617 36.0899 7.73977 37.0664 7.73977C38.043 7.73977 38.7874 6.99617 38.7874 6.02127Z" fill="#010101"/>
<path d="M42.0246 2.91215H43.6105V3.55946C44.0737 3.03564 44.6992 2.76562 45.4552 2.76562C46.3466 2.76562 47.0531 3.16647 47.4311 3.83681C47.9175 3.14344 48.6506 2.76562 49.5653 2.76562C50.9314 2.76562 51.8465 3.67878 51.8465 5.08119V9.1268H50.2602V5.55531C50.2602 4.8002 49.7854 4.29942 49.041 4.29942C48.2963 4.29942 47.7326 4.81171 47.7326 5.57834V9.12312H46.1467V5.55164C46.1467 4.79653 45.6562 4.29574 44.9272 4.29574C44.1475 4.29574 43.6075 4.80804 43.6075 5.57466V9.11896H42.0212V2.91215H42.0246Z" fill="#010101"/>
<path d="M53.3004 2.91215H54.8863V3.64424C55.3885 3.09739 56.0826 2.76562 56.9129 2.76562C58.6454 2.76562 59.9384 4.16805 59.9384 6.0174C59.9384 7.8667 58.6454 9.27279 56.9129 9.27279C56.0826 9.27279 55.3885 8.94522 54.8863 8.39419V11.4419H53.3004V2.91215ZM58.3015 6.02156C58.3015 5.04666 57.5838 4.30306 56.5926 4.30306C55.6015 4.30306 54.8829 5.04666 54.8829 6.02156C54.8829 6.99646 55.6161 7.74006 56.5926 7.74006C57.5688 7.74006 58.3015 6.99646 58.3015 6.02156Z" fill="#010101"/>
<path d="M48.7418 14.2608H49.3418L48.3466 12.5627L49.3298 11.2969H48.7175L47.5178 12.8542V11.2969H46.9984V14.2608H47.5178V13.6302L48.0079 12.9986L48.7418 14.2608Z" fill="#010101"/>
<path d="M45.8943 12.7281C45.9861 12.5873 46.0319 12.4188 46.0319 12.2215C46.0319 11.9295 45.937 11.7024 45.748 11.5402C45.562 11.378 45.3006 11.2969 44.9657 11.2969H43.8344V14.2608H44.3534V13.1541H44.9905L45.4926 14.2608H46.0604L45.4968 13.0447C45.6726 12.972 45.805 12.8662 45.8946 12.7286L45.8943 12.7281ZM45.3505 12.5701C45.2583 12.6538 45.13 12.6956 44.9654 12.6956H44.353V11.759H44.9654C45.13 11.759 45.2583 11.7992 45.3505 11.8803C45.4424 11.9588 45.4881 12.0724 45.4881 12.221C45.4881 12.3696 45.4424 12.4858 45.3505 12.5695V12.5701Z" fill="#010101"/>
<path d="M42.2129 11.4408C41.9995 11.311 41.7509 11.2461 41.467 11.2461C41.1835 11.2461 40.9334 11.311 40.7174 11.4408C40.5036 11.5705 40.3364 11.7516 40.2145 11.984C40.093 12.2137 40.0322 12.4801 40.0322 12.7825C40.0322 13.085 40.0915 13.3477 40.2104 13.5774C40.3322 13.8071 40.5006 13.9866 40.7174 14.1164C40.9334 14.2461 41.1824 14.3111 41.4629 14.3111C41.7434 14.3111 41.9969 14.2461 42.2129 14.1164C42.4289 13.9866 42.598 13.8071 42.7199 13.5774C42.8414 13.345 42.9022 13.0787 42.9022 12.7789C42.9022 12.479 42.8414 12.21 42.7199 11.9803C42.598 11.7506 42.4297 11.5711 42.2129 11.4413V11.4408ZM42.2496 13.3262C42.1761 13.48 42.0738 13.6004 41.9414 13.6873C41.809 13.771 41.6508 13.8129 41.4666 13.8129C41.2825 13.8129 41.1269 13.771 40.9919 13.6873C40.8595 13.6036 40.7571 13.4848 40.684 13.3304C40.6112 13.1734 40.5745 12.9897 40.5745 12.7789C40.5745 12.568 40.6112 12.3853 40.684 12.2315C40.7571 12.0776 40.8595 11.9583 40.9919 11.8746C41.1269 11.7882 41.2851 11.7448 41.4666 11.7448C41.6481 11.7448 41.809 11.7882 41.9414 11.8746C42.0738 11.9583 42.1761 12.0771 42.2496 12.2315C42.3224 12.3853 42.3588 12.568 42.3588 12.7789C42.3588 12.9897 42.3224 13.1692 42.2496 13.3262Z" fill="#010101"/>
<path d="M38.4732 12.8704C38.4514 12.9432 38.4285 13.0243 38.4038 13.1138C38.3824 13.2001 38.3584 13.3126 38.331 13.4502C38.3067 13.3257 38.2827 13.2179 38.2579 13.1258C38.2365 13.0337 38.2137 12.9463 38.1889 12.8621L37.731 11.2969H37.159L36.6886 12.8621C36.664 12.9458 36.6399 13.0321 36.6159 13.1216C36.5944 13.208 36.5714 13.3179 36.5468 13.4502C36.5253 13.3205 36.5034 13.2111 36.4819 13.1216C36.4604 13.0295 36.4374 12.9432 36.4128 12.8621L35.9424 11.2969H35.4034L36.2872 14.2608H36.7938L37.4427 12.1038L38.0753 14.2608H38.5778L39.4782 11.2969H38.9509L38.4724 12.8699L38.4732 12.8704Z" fill="#010101"/>
<path d="M32.5323 11.7757H33.4V14.2608H33.9191V11.7757H34.7867V11.2969H32.5323V11.7757Z" fill="#010101"/>
<path d="M29.951 14.2608H31.7919V13.7825H30.4701V12.996H31.6538V12.5376H30.4701V11.7757H31.7919V11.2969H29.951V14.2608Z" fill="#010101"/>
<path d="M28.3375 13.401L26.9471 11.2969H26.4321V14.2608H26.9429V12.1598L28.3375 14.2608H28.8482V11.2969H28.3375V13.401Z" fill="#010101"/>
</svg>
