<svg width="60" height="15" viewBox="0 0 60 15" fill="none" xmlns="http://www.w3.org/2000/svg">
<path fill-rule="evenodd" clip-rule="evenodd" d="M8.28916 0.327713C7.8522 -0.109238 7.14366 -0.109238 6.70722 0.327713L0.327715 6.70876C-0.109238 7.14572 -0.109238 7.85426 0.327715 8.29121L6.7067 14.6723C7.14366 15.1092 7.8522 15.1092 8.28863 14.6723L11.0626 11.8972L7.45765 8.29121C7.02069 7.85426 7.02069 7.14572 7.45765 6.70876L11.0626 3.10275L8.28916 0.327713Z" fill="#00A754"/>
<path fill-rule="evenodd" clip-rule="evenodd" d="M15.4203 0.327713C14.9834 -0.109238 14.2748 -0.109238 13.8384 0.327713L11.0644 3.10222L14.6694 6.70824C15.1063 7.14519 15.1063 7.85373 14.6694 8.29069L11.0644 11.8967L13.8384 14.6718C14.2754 15.1087 14.9839 15.1087 15.4203 14.6718L21.7993 8.29069C22.2363 7.85373 22.2363 7.14519 21.7993 6.70824L15.4203 0.327713Z" fill="#0A6E5C"/>
<path d="M26.4316 0.691406H30.179C31.8038 0.691406 33.0346 1.87405 33.0346 3.44603C33.0346 4.65221 32.2784 5.61507 31.1669 5.95783L33.2779 9.1285H31.302L29.5191 6.10385H28.1182V9.1285H26.4358V0.691406H26.4322H26.4316ZM28.1146 2.2749V4.63653H30.1408C30.8006 4.63653 31.3025 4.12423 31.3025 3.45388C31.3025 2.78354 30.8006 2.27123 30.1408 2.27123H28.1146V2.2749Z" fill="#010101"/>
<path d="M33.7205 6.02127C33.7205 4.16829 35.0287 2.76953 36.7614 2.76953C37.5915 2.76953 38.2856 3.09711 38.7874 3.64814V2.91605H40.3737V9.13071H38.7874V8.39862C38.2856 8.94546 37.5915 9.27722 36.7614 9.27722C35.0287 9.27722 33.7205 7.87481 33.7205 6.02179V6.02127ZM38.7874 6.02127C38.7874 5.0464 38.0542 4.30277 37.0664 4.30277C36.0784 4.30277 35.3568 5.0464 35.3568 6.02127C35.3568 6.99617 36.0899 7.73977 37.0664 7.73977C38.043 7.73977 38.7874 6.99617 38.7874 6.02127Z" fill="#010101"/>
<path d="M42.0249 2.91215H43.6108V3.55946C44.0739 3.03564 44.6994 2.76562 45.4554 2.76562C46.3468 2.76562 47.0533 3.16647 47.4314 3.83681C47.9177 3.14344 48.6509 2.76562 49.5655 2.76562C50.9317 2.76562 51.8467 3.67878 51.8467 5.08119V9.1268H50.2604V5.55531C50.2604 4.8002 49.7857 4.29942 49.0413 4.29942C48.2965 4.29942 47.7329 4.81171 47.7329 5.57834V9.12312H46.1469V5.55164C46.1469 4.79653 45.6564 4.29574 44.9274 4.29574C44.1478 4.29574 43.6078 4.80804 43.6078 5.57466V9.11896H42.0215V2.91215H42.0249Z" fill="#010101"/>
<path d="M53.3008 2.91215H54.8867V3.64424C55.3888 3.09739 56.083 2.76562 56.9132 2.76562C58.6458 2.76562 59.9388 4.16805 59.9388 6.0174C59.9388 7.8667 58.6458 9.27279 56.9132 9.27279C56.083 9.27279 55.3888 8.94522 54.8867 8.39419V11.4419H53.3008V2.91215ZM58.3019 6.02156C58.3019 5.04666 57.5841 4.30306 56.593 4.30306C55.6018 4.30306 54.8833 5.04666 54.8833 6.02156C54.8833 6.99646 55.6165 7.74006 56.593 7.74006C57.5691 7.74006 58.3019 6.99646 58.3019 6.02156Z" fill="#010101"/>
<path d="M48.7415 14.2608H49.3415L48.3462 12.5627L49.3295 11.2969H48.7171L47.5174 12.8542V11.2969H46.998V14.2608H47.5174V13.6302L48.0076 12.9986L48.7415 14.2608Z" fill="#010101"/>
<path d="M45.8939 12.7281C45.9858 12.5873 46.0315 12.4188 46.0315 12.2215C46.0315 11.9295 45.9367 11.7024 45.7476 11.5402C45.5616 11.378 45.3003 11.2969 44.9654 11.2969H43.834V14.2608H44.353V13.1541H44.9901L45.4923 14.2608H46.06L45.4964 13.0447C45.6723 12.972 45.8047 12.8662 45.8943 12.7286L45.8939 12.7281ZM45.3501 12.5701C45.2579 12.6538 45.1296 12.6956 44.965 12.6956H44.3526V11.759H44.965C45.1296 11.759 45.2579 11.7992 45.3501 11.8803C45.442 11.9588 45.4878 12.0724 45.4878 12.221C45.4878 12.3696 45.442 12.4858 45.3501 12.5695V12.5701Z" fill="#010101"/>
<path d="M42.2139 11.4369C42.0005 11.3071 41.7519 11.2422 41.468 11.2422C41.1845 11.2422 40.9343 11.3071 40.7183 11.4369C40.5046 11.5666 40.3373 11.7477 40.2155 11.98C40.094 12.2098 40.0332 12.4761 40.0332 12.7786C40.0332 13.0811 40.0925 13.3438 40.2113 13.5735C40.3332 13.8032 40.5016 13.9827 40.7183 14.1125C40.9343 14.2422 41.1834 14.3072 41.4639 14.3072C41.7444 14.3072 41.9979 14.2422 42.2139 14.1125C42.4299 13.9827 42.599 13.8032 42.7209 13.5735C42.8424 13.3411 42.9031 13.0748 42.9031 12.775C42.9031 12.4751 42.8424 12.2061 42.7209 11.9764C42.599 11.7466 42.4306 11.5672 42.2139 11.4374V11.4369ZM42.2506 13.3223C42.1771 13.4761 42.0747 13.5965 41.9424 13.6834C41.81 13.7671 41.6517 13.809 41.4676 13.809C41.2835 13.809 41.1279 13.7671 40.9928 13.6834C40.8605 13.5997 40.7581 13.4809 40.685 13.3265C40.6122 13.1695 40.5755 12.9858 40.5755 12.775C40.5755 12.564 40.6122 12.3814 40.685 12.2276C40.7581 12.0737 40.8605 11.9544 40.9928 11.8707C41.1279 11.7843 41.2861 11.7409 41.4676 11.7409C41.6491 11.7409 41.81 11.7843 41.9424 11.8707C42.0747 11.9544 42.1771 12.0732 42.2506 12.2276C42.3234 12.3814 42.3598 12.564 42.3598 12.775C42.3598 12.9858 42.3234 13.1653 42.2506 13.3223Z" fill="#010101"/>
<path d="M38.4741 12.8704C38.4523 12.9432 38.4294 13.0243 38.4047 13.1138C38.3833 13.2001 38.3593 13.3126 38.3319 13.4502C38.3076 13.3257 38.2836 13.2179 38.2588 13.1258C38.2374 13.0337 38.2146 12.9463 38.1898 12.8621L37.7319 11.2969H37.1599L36.6895 12.8621C36.6649 12.9458 36.6408 13.0321 36.6168 13.1216C36.5953 13.208 36.5723 13.3179 36.5477 13.4502C36.5262 13.3205 36.5043 13.2111 36.4828 13.1216C36.4613 13.0295 36.4383 12.9432 36.4137 12.8621L35.9433 11.2969H35.4043L36.2881 14.2608H36.7947L37.4436 12.1038L38.0762 14.2608H38.5787L39.4791 11.2969H38.9518L38.4733 12.8699L38.4741 12.8704Z" fill="#010101"/>
<path d="M32.5332 11.7757H33.4008V14.2608H33.9199V11.7757H34.7876V11.2969H32.5332V11.7757Z" fill="#010101"/>
<path d="M29.951 14.2608H31.7919V13.7825H30.4701V12.996H31.6538V12.5376H30.4701V11.7757H31.7919V11.2969H29.951V14.2608Z" fill="#010101"/>
<path d="M28.337 13.401L26.9466 11.2969H26.4316V14.2608H26.9424V12.1598L28.337 14.2608H28.8477V11.2969H28.337V13.401Z" fill="#010101"/>
</svg>
