<svg width="26" height="27" viewBox="0 0 26 27" fill="none" xmlns="http://www.w3.org/2000/svg">
<path d="M13.001 26.5C10.4298 26.5002 7.91626 25.7379 5.7783 24.3096C3.64033 22.8812 1.97394 20.851 0.98985 18.4756C0.00576204 16.1001 -0.251819 13.4862 0.249679 10.9644C0.751177 8.44261 1.98923 6.12614 3.80727 4.30796C5.62532 2.48978 7.94169 1.25155 10.4635 0.749868C12.9853 0.248182 15.5992 0.505569 17.9747 1.48948C20.3502 2.47339 22.3805 4.13963 23.809 6.27749C25.2375 8.41535 26 10.9288 26 13.5C26 16.9477 24.6305 20.2541 22.1927 22.692C19.755 25.13 16.4486 26.4997 13.001 26.5Z" fill="#2D6759"/>
<path fill-rule="evenodd" clip-rule="evenodd" d="M9.29694 15.3366L15.9616 8.66211L17.362 10.0625L10.6875 16.7272L9.27734 15.317L9.29694 15.3366Z" fill="#FDF7F0"/>
<path fill-rule="evenodd" clip-rule="evenodd" d="M10.6371 15.3962H14.55V17.3828H9.63356C9.50291 17.3833 9.37347 17.3578 9.2527 17.308C9.13193 17.2581 9.02222 17.1849 8.92991 17.0924C8.83761 17 8.76452 16.8901 8.71487 16.7693C8.66522 16.6484 8.63999 16.5189 8.64064 16.3883V11.4727H10.6273V15.3856L10.6371 15.3962Z" fill="#FDF7F0"/>
</svg>
