<svg width="17" height="16" viewBox="0 0 17 16" fill="none" xmlns="http://www.w3.org/2000/svg">
<path d="M0.5 14.6007C0.5 14.9541 0.640407 15.2931 0.890334 15.543C1.14026 15.793 1.47924 15.9334 1.83269 15.9334L12.4942 16C12.8477 16 13.1866 15.8596 13.4366 15.6097C13.6865 15.3597 13.8269 15.0208 13.8269 14.6673C13.8269 14.3139 13.6865 13.9749 13.4366 13.725C13.1866 13.475 12.8477 13.3346 12.4942 13.3346H5.08445L16.1058 2.28662C16.2307 2.16273 16.3298 2.01534 16.3975 1.85294C16.4652 1.69054 16.5 1.51635 16.5 1.34042C16.5 1.16449 16.4652 0.990295 16.3975 0.827895C16.3298 0.665495 16.2307 0.518099 16.1058 0.394208C15.9819 0.269298 15.8345 0.170151 15.6721 0.102491C15.5097 0.034833 15.3355 0 15.1596 0C14.9837 0 14.8095 0.034833 14.6471 0.102491C14.4847 0.170151 14.3373 0.269298 14.2134 0.394208L3.16538 11.4422V4.0058C3.16538 3.65234 3.02497 3.31337 2.77504 3.06344C2.52512 2.81351 2.18614 2.67311 1.83269 2.67311C1.47924 2.67311 1.14026 2.81351 0.890334 3.06344C0.640407 3.31337 0.5 3.65234 0.5 4.0058V14.6007Z" fill="#2F4F4F"/>
</svg>
