<svg xmlns="http://www.w3.org/2000/svg" width="38" height="38" viewBox="0 0 38 38">
  <g id="recieve" transform="translate(-167 -719.5)">
    <path id="Path_24140" data-name="Path 24140" d="M19,0A19,19,0,1,1,0,19,19,19,0,0,1,19,0Z" transform="translate(167 719.5)" fill="#fac48b"/>
    <path id="Union_21" data-name="Union 21" d="M-10329.654-14306.74v-8.363l-1.4,1.395a1.4,1.4,0,0,1-2.021,0,1.4,1.4,0,0,1,0-2.016l3.67-3.67a1.413,1.413,0,0,1,1.182-.607l.011,0a1.292,1.292,0,0,1,.323.035,1.411,1.411,0,0,1,.862.578l3.661,3.662a1.4,1.4,0,0,1,0,2.016,1.4,1.4,0,0,1-1.014.434,1.382,1.382,0,0,1-1.008-.434l-1.391-1.389v8.357a1.446,1.446,0,0,1-1.445,1.441A1.414,1.414,0,0,1-10329.654-14306.74Z" transform="translate(-10141.937 -13573.729) rotate(180)" fill="#453228"/>
  </g>
</svg>
