<svg width="29" height="26" viewBox="0 0 29 26" fill="none" xmlns="http://www.w3.org/2000/svg">
<path d="M26.0825 25.0811H2.89701C2.12866 25.0803 1.39204 24.7779 0.848879 24.2404C0.30572 23.7029 0.000416451 22.9742 0 22.2142V3.05206C0.000325173 2.29949 0.299838 1.57721 0.833891 1.04115C1.36794 0.505078 2.0937 0.198205 2.85452 0.186766L19.7928 0H19.8448C20.9942 0.000410324 22.0965 0.451768 22.9098 1.25504C23.7232 2.05831 24.1811 3.14789 24.1832 4.28472L24.2335 4.35787V4.54463H26.103C26.8712 4.54587 27.6076 4.84836 28.1507 5.38577C28.6937 5.92319 28.9992 6.65167 29 7.41149V19.0034L28.9858 17.7708V22.2142C28.9856 22.591 28.9104 22.9641 28.7643 23.3122C28.6183 23.6602 28.4043 23.9764 28.1347 24.2426C27.8651 24.5088 27.5451 24.7199 27.193 24.8638C26.8409 25.0076 26.4635 25.0815 26.0825 25.0811ZM23.0927 12.1942C22.3313 12.2117 21.607 12.5232 21.0748 13.062C20.5425 13.6008 20.2445 14.3242 20.2445 15.0774C20.2445 15.8307 20.5425 16.5541 21.0748 17.0929C21.607 17.6317 22.3313 17.9431 23.0927 17.9606H24.5483C24.8056 17.9602 25.0524 17.8589 25.2343 17.6789C25.4163 17.4989 25.5188 17.2549 25.5192 17.0003V13.1561C25.5188 12.9014 25.4164 12.6572 25.2344 12.477C25.0525 12.2967 24.8058 12.1951 24.5483 12.1942H23.0927ZM3.75305 2.86685C3.52602 2.86685 3.30828 2.95606 3.14774 3.11484C2.9872 3.27362 2.89701 3.48897 2.89701 3.71352V4.55864H21.0092C21.0084 4.11062 20.8281 3.68118 20.5078 3.36438C20.1875 3.04757 19.7533 2.86923 19.3003 2.86841L3.75305 2.86685Z" fill="#2D6759"/>
<path d="M19.5947 11.7568H25.8649V19.5946H19.5947V11.7568Z" fill="#2D6759"/>
<path d="M16.1953 18.0502H13.6525C13.6986 17.8782 13.742 17.7137 13.7866 17.5492C13.9312 17.0168 14.0743 16.4841 14.2226 15.9524C14.2404 15.8893 14.2289 15.8644 14.1657 15.834C13.551 15.5398 13.2154 15.0719 13.1834 14.4368C13.1426 13.6249 13.8022 12.9113 14.6805 12.795C15.6397 12.668 16.5194 13.2598 16.6747 14.1368C16.7978 14.8307 16.3968 15.535 15.7003 15.8401C15.6297 15.8712 15.6126 15.8968 15.6326 15.9698C15.8203 16.6462 16.0021 17.3243 16.1857 18.0018C16.1894 18.0157 16.1912 18.0304 16.1949 18.0506L16.1953 18.0502Z" fill="#F7F2EC"/>
<path d="M14.5805 10.2423V11.7328C13.6182 11.0151 12.693 10.3245 11.7419 9.61499C12.6821 8.91282 13.6078 8.22112 14.5664 7.50537V8.83213C16.6135 8.90777 18.2985 9.67202 19.5946 11.1788C20.6004 12.348 21.1013 13.7097 21.0908 15.2262C21.0699 18.2785 18.7644 20.9467 15.7112 21.451C15.7112 21.3296 15.7112 21.2121 15.7112 21.0945C15.7112 20.7834 15.7196 20.4719 15.7071 20.1611C15.7019 20.0277 15.7579 19.9889 15.8766 19.9536C17.7324 19.4016 18.9476 18.2288 19.4537 16.4218C20.2082 13.7299 18.3686 10.9061 15.5312 10.3637C15.2244 10.3051 14.9095 10.2834 14.5805 10.2423Z" fill="#F7F2EC"/>
<path d="M14.5596 21.5659C13.0263 21.574 11.6715 21.1186 10.4792 20.2508C10.8271 19.9132 11.1686 19.5819 11.5241 19.2371C12.4095 19.8353 13.4254 20.1561 14.5596 20.1464V21.5659Z" fill="#F7F2EC"/>
<path d="M9.3917 15.7611C9.52417 16.7946 9.94211 17.6911 10.625 18.4534C10.2767 18.7882 9.93768 19.1145 9.58497 19.4535C8.62105 18.417 8.0493 17.1915 7.90918 15.7611H9.3917Z" fill="#F7F2EC"/>
<path d="M9.58578 10.953C9.93567 11.289 10.2743 11.6144 10.6278 11.9539C10.5751 12.0175 10.5086 12.0966 10.4438 12.1766C9.88454 12.8683 9.54269 13.6496 9.41022 14.5158C9.39815 14.5938 9.39734 14.6574 9.28702 14.6567C8.83928 14.6536 8.39154 14.6555 7.9124 14.6555C8.04849 13.2224 8.61742 11.9993 9.58578 10.953Z" fill="#F7F2EC"/>
</svg>
