<svg xmlns="http://www.w3.org/2000/svg" width="15.48" height="21.057" viewBox="0 0 15.48 21.057">
  <g id="icon" transform="translate(-4.21 -1.44)">
    <path id="Path_206438" data-name="Path 206438" d="M12.97,1.74a1.734,1.734,0,0,0-1.95,0L9.05,3.04a.3.3,0,0,1-.26.01L6.75,2.03A1.749,1.749,0,0,0,4.21,3.59V20.354a1.745,1.745,0,0,0,2.53,1.56l2.03-1.02a.228.228,0,0,1,.25.01l1.96,1.3a1.755,1.755,0,0,0,1.94,0l1.96-1.31a.249.249,0,0,1,.25-.02l2.03,1.01a1.752,1.752,0,0,0,2.53-1.57V3.55a1.754,1.754,0,0,0-2.54-1.57L15.11,2.99a.267.267,0,0,1-.26-.02L12.88,1.66Z" fill="#2F4F4F"/>
    <g id="Group_54468" data-name="Group 54468">
      <path id="Path_206439" data-name="Path 206439" d="M8.25,8A.743.743,0,0,1,9,7.25h6a.75.75,0,0,1,0,1.5H9A.749.749,0,0,1,8.25,8Z" fill="#F9F4F0" fill-rule="evenodd"/>
      <path id="Path_206440" data-name="Path 206440" d="M8.25,12A.743.743,0,0,1,9,11.25h6a.75.75,0,0,1,0,1.5H9A.749.749,0,0,1,8.25,12Z" fill="#F9F4F0" fill-rule="evenodd"/>
      <path id="Path_206441" data-name="Path 206441" d="M8.25,16A.743.743,0,0,1,9,15.25h6a.75.75,0,0,1,0,1.5H9A.749.749,0,0,1,8.25,16Z" fill="#F9F4F0" fill-rule="evenodd"/>
    </g>
  </g>
</svg>
