<svg xmlns="http://www.w3.org/2000/svg" width="42.808" height="42" viewBox="0 0 42.808 42">
  <g id="recovery" transform="translate(-161 -530)">
    <g id="Group_42017" data-name="Group 42017" transform="translate(161 530)">
      <ellipse id="Ellipse_218" data-name="Ellipse 218" cx="21.404" cy="21" rx="21.404" ry="21" transform="translate(0 0)" fill="#00433a"/>
      <g id="Ellipse_220" data-name="Ellipse 220" transform="translate(4 4)" fill="none" stroke="#fff" stroke-linecap="round" stroke-width="1" stroke-dasharray="0.2 3" opacity="0.511">
        <ellipse cx="17.404" cy="17" rx="17.404" ry="17" stroke="none"/>
        <ellipse cx="17.404" cy="17" rx="16.904" ry="16.5" fill="none"/>
      </g>
    </g>
    <path id="Synchronize" d="M26.687,15.923a1.1,1.1,0,0,1-1.551,0l-1.068-1.068v4.024a4.263,4.263,0,0,1-4.259,4.259h-8.4a1.1,1.1,0,1,1,0-2.2h8.4a2.061,2.061,0,0,0,2.063-2.063V14.854L20.8,15.923a1.1,1.1,0,0,1-1.551,0,1.1,1.1,0,0,1,0-1.551l2.941-2.941a.978.978,0,0,1,.366-.234.689.689,0,0,1,.234-.059c.059,0,.117-.029.176-.029a109854.846,109854.846,0,0,0,.41.088.978.978,0,0,1,.366.234l2.941,2.941A1.1,1.1,0,0,1,26.687,15.923ZM4.531,13.9a1.1,1.1,0,0,1,1.551,0L7.15,14.971V10.479A4.272,4.272,0,0,1,11.409,6.22h8.4a1.1,1.1,0,1,1,0,2.2h-8.4a2.061,2.061,0,0,0-2.063,2.063v4.493L10.414,13.9a1.1,1.1,0,0,1,1.551,0,1.078,1.078,0,0,1,0,1.551L9.024,18.4a1.062,1.062,0,0,1-.776.322,1.085,1.085,0,0,1-.776-.322L4.531,15.454A1.1,1.1,0,0,1,4.531,13.9Z" transform="translate(166.795 535.654)" fill="#79b1a7"/>
  </g>
</svg>
