<svg xmlns="http://www.w3.org/2000/svg" width="34.654" height="34" viewBox="0 0 34.654 34">
  <g id="recovery" transform="translate(-161 -530)">
    <g id="Group_42017" data-name="Group 42017" transform="translate(161 530)">
      <ellipse id="Ellipse_218" data-name="Ellipse 218" cx="17.327" cy="17" rx="17.327" ry="17" transform="translate(0 0)" fill="#00433a"/>
      <g id="Ellipse_220" data-name="Ellipse 220" transform="translate(3.238 3.238)" fill="none" stroke="#fff" stroke-linecap="round" stroke-width="1" stroke-dasharray="0.2 3" opacity="0.511">
        <ellipse cx="14.089" cy="13.762" rx="14.089" ry="13.762" stroke="none"/>
        <ellipse cx="14.089" cy="13.762" rx="13.589" ry="13.262" fill="none"/>
      </g>
    </g>
    <path id="Synchronize" d="M22.406,14.074a.887.887,0,0,1-1.256,0l-.865-.865v3.258a3.451,3.451,0,0,1-3.447,3.447h-6.8a.889.889,0,1,1,0-1.777h6.8a1.668,1.668,0,0,0,1.67-1.67V13.21l-.865.865a.887.887,0,0,1-1.256,0,.894.894,0,0,1,0-1.256l2.381-2.381a.792.792,0,0,1,.3-.19.557.557,0,0,1,.19-.047c.047,0,.095-.024.142-.024a17997.7,17997.7,0,0,0,.332.071.792.792,0,0,1,.3.19l2.381,2.381A.894.894,0,0,1,22.406,14.074ZM4.47,12.44a.894.894,0,0,1,1.256,0l.865.865V9.667A3.458,3.458,0,0,1,10.038,6.22h6.8a.889.889,0,0,1,0,1.777h-6.8a1.668,1.668,0,0,0-1.67,1.67V13.3l.865-.865a.894.894,0,0,1,1.256,0,.873.873,0,0,1,0,1.256L8.107,16.077a.859.859,0,0,1-.628.261.879.879,0,0,1-.628-.261L4.47,13.7A.894.894,0,0,1,4.47,12.44Z" transform="translate(164.889 533.392)" fill="#79b1a7"/>
  </g>
</svg>
