<svg xmlns="http://www.w3.org/2000/svg" width="18.482" height="22.052" viewBox="0 0 18.482 22.052">
  <g id="recover" transform="translate(-182.759 -598.973)">
    <g id="healthcheck" transform="translate(179.839 597.783)">
      <path id="Path_119496" data-name="Path 119496" d="M9.681,3.563l-.961-.757L9.977,1.19l2.843,2.23a1.022,1.022,0,0,1-.644,1.821,7.065,7.065,0,0,0-7.17,6.965A6.911,6.911,0,0,0,7.87,17.79a7.384,7.384,0,0,0,.951.583l-.941,1.81a8.948,8.948,0,0,1-1.238-.767l.593-.828-.6.818A8.963,8.963,0,0,1,2.92,12.165,9.055,9.055,0,0,1,9.6,3.481Zm9.686,8.673a6.962,6.962,0,0,0-3.815-6.168l.931-1.821A8.95,8.95,0,0,1,14.713,20.9l.941.736-1.262,1.606-2.854-2.23a1.03,1.03,0,0,1-.338-1.146,1,1,0,0,1,.961-.7,7.071,7.071,0,0,0,7.16-6.976Z" transform="translate(0 0)" fill="#F9F4F0" fill-rule="evenodd"/>
    </g>
    <g id="Group_46343" data-name="Group 46343" transform="translate(42.537 310.537)">
      <circle id="Ellipse_2490" data-name="Ellipse 2490" cx="4" cy="4" r="4" transform="translate(145.463 295.463)" fill="#F9F4F0"/>
    </g>
  </g>
</svg>
