<svg width="185" height="145" viewBox="0 0 185 145" fill="none" xmlns="http://www.w3.org/2000/svg">
<g opacity="0.272">
<path d="M41.7488 133.977C60.0371 133.977 74.8627 119.151 74.8627 100.863C74.8627 82.5746 60.0371 67.749 41.7488 67.749C23.4604 67.749 8.63477 82.5746 8.63477 100.863C8.63477 119.151 23.4604 133.977 41.7488 133.977Z" fill="url(#paint0_linear_1812_19601)"/>
<path d="M50.8238 143.215C51.2597 143.568 51.7905 143.784 52.349 143.835C52.9076 143.886 53.4688 143.771 53.9618 143.503C54.4548 143.236 54.8573 142.828 55.1186 142.332C55.3798 141.835 55.488 141.273 55.4295 140.715C55.371 140.157 55.1484 139.629 54.7899 139.198C54.4313 138.766 53.9529 138.451 53.4152 138.291C52.8774 138.132 52.3044 138.135 51.7687 138.302C51.233 138.468 50.7585 138.789 50.4053 139.225C49.9319 139.809 49.71 140.558 49.7884 141.306C49.8669 142.055 50.2393 142.741 50.8238 143.215Z" fill="url(#paint1_linear_1812_19601)"/>
<path d="M61.0183 137.225C61.3161 137.466 61.6787 137.613 62.0603 137.649C62.4419 137.684 62.8253 137.605 63.1621 137.422C63.4989 137.239 63.7738 136.96 63.9523 136.621C64.1307 136.282 64.2045 135.898 64.1645 135.517C64.1244 135.136 63.9723 134.775 63.7272 134.48C63.4822 134.186 63.1553 133.97 62.7879 133.861C62.4204 133.753 62.029 133.755 61.663 133.869C61.2971 133.982 60.973 134.202 60.7319 134.5C60.4085 134.899 60.257 135.411 60.3107 135.922C60.3644 136.433 60.6189 136.902 61.0183 137.225Z" fill="url(#paint2_linear_1812_19601)"/>
<path d="M3.59752 91.6618C4.30905 91.6618 5.00459 91.4508 5.5962 91.0555C6.18781 90.6602 6.64892 90.0984 6.92121 89.441C7.19349 88.7837 7.26474 88.0603 7.12592 87.3625C6.98711 86.6646 6.64448 86.0236 6.14136 85.5205C5.63824 85.0174 4.99722 84.6747 4.29937 84.5359C3.60152 84.3971 2.87817 84.4684 2.22081 84.7406C1.56345 85.0129 1.00159 85.474 0.606292 86.0656C0.210991 86.6572 0 87.3528 0 88.0643C0 89.0184 0.379023 89.9335 1.05369 90.6081C1.72836 91.2828 2.6434 91.6618 3.59752 91.6618Z" fill="url(#paint3_linear_1812_19601)"/>
</g>
<g opacity="0.272">
<path d="M170.191 33.9499C175.598 29.8758 176.679 22.1896 172.605 16.7823C168.531 11.375 160.845 10.2942 155.437 14.3683C150.03 18.4424 148.949 26.1286 153.023 31.5359C157.097 36.9432 164.784 38.024 170.191 33.9499Z" fill="#2F4F4F"/>
<path d="M169.566 38.7014C169.516 38.9029 169.407 39.085 169.253 39.2246C169.1 39.3642 168.908 39.4551 168.703 39.4858C168.497 39.5165 168.287 39.4856 168.099 39.397C167.912 39.3084 167.754 39.1661 167.647 38.988C167.54 38.81 167.489 38.6043 167.499 38.3969C167.509 38.1894 167.58 37.9896 167.703 37.8227C167.827 37.6558 167.997 37.5292 168.193 37.4591C168.388 37.3889 168.6 37.3783 168.802 37.4285C169.072 37.4959 169.304 37.6679 169.447 37.9066C169.591 38.1453 169.634 38.4312 169.566 38.7014Z" fill="#2F4F4F"/>
<path d="M165.217 39.1998C165.183 39.3373 165.109 39.4615 165.004 39.5567C164.899 39.652 164.768 39.714 164.628 39.7349C164.488 39.7558 164.345 39.7348 164.217 39.6743C164.089 39.6139 163.981 39.5168 163.908 39.3954C163.835 39.2739 163.8 39.1336 163.807 38.9921C163.814 38.8506 163.862 38.7143 163.947 38.6004C164.031 38.4866 164.147 38.4002 164.28 38.3524C164.414 38.3045 164.558 38.2973 164.696 38.3316C164.88 38.3778 165.038 38.4952 165.136 38.6579C165.234 38.8207 165.263 39.0156 165.217 39.1998Z" fill="#2F4F4F"/>
<path d="M172.042 12.9387C171.832 13.0971 171.58 13.1896 171.317 13.2046C171.054 13.2195 170.792 13.1561 170.566 13.0224C170.339 12.8888 170.157 12.6909 170.042 12.4537C169.928 12.2165 169.886 11.9508 169.923 11.6901C169.96 11.4293 170.073 11.1853 170.248 10.9889C170.424 10.7925 170.653 10.6525 170.908 10.5866C171.163 10.5207 171.432 10.5318 171.68 10.6186C171.929 10.7055 172.146 10.864 172.305 11.0743C172.517 11.3563 172.609 11.7112 172.56 12.0608C172.51 12.4104 172.324 12.7262 172.042 12.9387Z" fill="#2F4F4F"/>
</g>
<path d="M100.988 129.143C136.65 129.143 165.559 100.233 165.559 64.5715C165.559 28.9097 136.65 0 100.988 0C65.3258 0 36.416 28.9097 36.416 64.5715C36.416 100.233 65.3258 129.143 100.988 129.143Z" fill="#F6F2ED"/>
<path d="M100.988 127.893C135.959 127.893 164.309 99.543 164.309 64.5715C164.309 29.6 135.959 1.25 100.988 1.25C66.0161 1.25 37.666 29.6 37.666 64.5715C37.666 99.543 66.0161 127.893 100.988 127.893Z" stroke="#272421" stroke-width="2"/>
<path d="M160.773 65.2075C160.785 73.1236 159.222 80.963 156.175 88.269C153.127 95.575 148.657 102.202 143.023 107.763C137.523 113.241 130.994 117.577 123.811 120.522C116.629 123.468 108.935 124.964 101.173 124.925C89.3563 124.948 77.7986 121.466 67.9624 114.918C58.1261 108.37 50.4535 99.0512 45.9155 88.141C41.3775 77.2307 40.1782 65.2195 42.4693 53.6274C44.7603 42.0353 50.4389 31.3834 58.7862 23.0198C67.1335 14.6563 77.7743 8.95693 89.362 6.64326C100.95 4.32959 112.963 5.50563 123.882 10.0223C134.801 14.539 144.135 22.1935 150.702 32.0169C157.269 41.8403 160.775 53.3912 160.774 65.2075H160.773Z" fill="url(#paint4_linear_1812_19601)"/>
<path d="M101.205 119.91C131.556 119.91 156.161 95.3062 156.161 64.9552C156.161 34.6043 131.556 10 101.205 10C70.8544 10 46.25 34.6043 46.25 64.9552C46.25 95.3062 70.8544 119.91 101.205 119.91Z" fill="#F6F2ED"/>
<path d="M101.205 118.66C130.866 118.66 154.911 94.6158 154.911 64.9552C154.911 35.2947 130.866 11.25 101.205 11.25C71.5447 11.25 47.5 35.2947 47.5 64.9552C47.5 94.6158 71.5447 118.66 101.205 118.66Z" stroke="#272421" stroke-width="2"/>
<path d="M101.32 18.726C75.8839 18.726 55.2637 39.3461 55.2637 64.7824C55.2637 90.2187 75.8839 110.839 101.32 110.839C126.757 110.839 147.377 90.2187 147.377 64.7824C147.377 39.3461 126.757 18.726 101.32 18.726Z" stroke="url(#paint5_linear_1812_19601)" stroke-width="1.5" stroke-dasharray="1.5 1.5"/>
<path d="M112.156 47.0017C112.9 47.004 113.613 47.301 114.139 47.8269C114.664 48.3529 114.961 49.0657 114.963 49.8093C114.967 52.2608 114.967 54.7126 114.963 57.1638C114.962 57.9105 114.666 58.6271 114.138 59.155C113.61 59.6829 112.893 59.9795 112.146 59.9802C109.854 59.9838 107.56 59.983 105.268 59.9783C105.142 59.9783 105.066 60.014 104.994 60.1179C104.75 60.4754 104.493 60.8243 104.239 61.1814C104.624 61.2823 105.006 61.3524 105.365 61.4812C108.068 62.4514 109.767 64.3335 110.323 67.1541C111.075 70.9702 108.531 74.7664 104.721 75.6091C103.48 75.8834 102.249 75.8509 101.03 75.4753C100.911 75.4401 100.841 75.4654 100.757 75.5496C98.6974 77.6137 96.6368 79.6772 94.5752 81.739C94.3988 81.9179 94.2045 82.0018 93.9502 81.9998C92.8979 81.9909 91.8452 81.9962 90.793 81.9958C90.347 81.9957 90.1299 81.7806 90.1299 81.3406C90.1299 80.0827 90.1322 78.8244 90.1279 77.5662C90.1237 77.4668 90.1404 77.3673 90.1777 77.2751C90.2152 77.1829 90.2724 77.0994 90.3447 77.031C90.6937 76.6903 91.0397 76.3448 91.3809 75.9958C91.4445 75.9272 91.523 75.8727 91.6094 75.8367C91.6958 75.8008 91.7893 75.7837 91.8828 75.7869C92.2294 75.7911 92.577 75.7869 92.9521 75.7869V74.658C92.9563 74.5858 92.9725 74.5143 93 74.447C93.0366 74.3575 93.0928 74.2771 93.1641 74.2117C93.326 74.0582 93.4835 73.8986 93.6377 73.7371C93.7008 73.6675 93.7788 73.6124 93.8652 73.5759C93.952 73.5395 94.0466 73.5226 94.1406 73.5261C94.4867 73.5318 94.8336 73.5261 95.209 73.5261V72.448C95.2167 72.0948 95.2892 72.0826 95.792 71.5994C95.919 71.4773 96.0448 71.3518 96.1768 71.2361C96.2568 71.1657 96.2778 71.1021 96.2373 70.9939C95.8339 69.9353 95.6884 68.7956 95.8135 67.6697C95.9815 66.1309 96.5739 64.7716 97.5947 63.6052C98.258 62.8459 99.075 62.2343 99.9902 61.8113C100.022 61.7966 100.054 61.78 100.084 61.7625C100.093 61.7569 100.099 61.7446 100.114 61.7244C99.8001 61.2839 99.4589 60.8555 99.1758 60.3914C98.9729 60.0589 98.732 59.9674 98.3506 59.9705C96.1877 59.9913 94.0236 59.982 91.8604 59.9802C90.4693 59.9802 89.3326 59.055 89.0537 57.6951C89.0193 57.5224 89.0025 57.3467 89.0029 57.1707C88.9996 54.7135 88.9996 52.2559 89.0029 49.7986C89.0055 48.2665 90.2679 47.0026 91.8027 47.0017C98.5869 46.9989 105.372 46.9989 112.156 47.0017ZM108.635 71.2419C107.837 72.8109 106.379 74.017 104.558 74.4578C103.369 74.7451 102.192 74.684 101.043 74.2605C100.721 74.1419 100.473 74.2037 100.231 74.4451C98.1528 76.5312 96.0716 78.6158 93.9883 80.697C93.9419 80.7478 93.8838 80.7879 93.8203 80.8142C93.7568 80.8404 93.6878 80.8526 93.6191 80.8494C92.908 80.8416 92.1965 80.8455 91.4854 80.8455L91.2715 80.8523V80.6619C91.2715 79.7332 91.2687 78.8044 91.2754 77.8757C91.2774 77.8333 91.2859 77.7909 91.3008 77.7517C91.2844 77.7927 91.2756 77.8369 91.2734 77.8816C91.2667 78.8102 91.2695 79.7391 91.2695 80.6677L91.2705 80.8523H91.4824C92.1937 80.8523 92.906 80.8475 93.6172 80.8552C93.6858 80.8584 93.7549 80.8473 93.8184 80.821C93.882 80.7947 93.94 80.7538 93.9863 80.7029C96.0656 78.618 98.147 76.5342 100.229 74.4519C100.47 74.2104 100.718 74.1485 101.041 74.2673C102.19 74.6909 103.367 74.7519 104.556 74.4646C106.378 74.0233 107.837 72.8145 108.635 71.2429V71.2419ZM94.0928 75.0603C94.0928 75.4602 94.0725 75.8613 94.0986 76.2605C94.1049 76.355 94.0925 76.4459 94.0645 76.5281C94.094 76.4444 94.1069 76.3517 94.1006 76.2546C94.0745 75.8568 94.095 75.4548 94.0957 75.0535C94.0952 75.0266 94.0974 74.9997 94.1025 74.9734C94.0965 75.0019 94.0922 75.031 94.0928 75.0603ZM96.3799 72.6667C96.3544 72.7247 96.3438 72.7881 96.3477 72.8513C96.3565 73.2624 96.3517 73.6741 96.3496 74.0867C96.3496 74.13 96.3451 74.172 96.3379 74.2117C96.346 74.1701 96.3523 74.1265 96.3525 74.0808C96.3547 73.6692 96.3584 73.2568 96.3496 72.8445C96.3477 72.8137 96.3493 72.7829 96.3545 72.7527L96.3799 72.6667ZM97.1797 66.6648C97.0131 67.2263 96.9276 67.8162 96.9219 68.4324C96.9144 69.2983 97.0948 70.1559 97.4512 70.9451C97.5312 71.1244 97.5606 71.2607 97.5352 71.3865C97.5632 71.2589 97.5355 71.1207 97.4541 70.9382C97.0978 70.1492 96.9164 69.2923 96.9238 68.4265C96.9295 67.8127 97.0144 67.2244 97.1797 66.6648ZM104.805 64.4871C103.567 64.485 102.558 65.4894 102.529 66.7029C102.499 67.9862 103.583 69.0386 104.787 69.0291C106.042 69.0184 107.052 68.031 107.082 66.8103C107.11 65.5255 106.024 64.4556 104.805 64.4871ZM91.0693 48.325C90.4963 48.6035 90.1368 49.1789 90.1367 49.906C90.1353 52.2805 90.1353 54.656 90.1367 57.031C90.1341 57.2069 90.1517 57.3827 90.1895 57.5544C90.3773 58.3383 91.0466 58.8459 91.8838 58.8464C94.2822 58.8478 96.6816 58.8478 99.0801 58.8464C99.3401 58.8466 99.5257 58.9435 99.6738 59.1531C100.155 59.8347 100.643 60.5123 101.128 61.1912C101.359 61.509 101.588 61.8298 101.828 62.1638C101.588 61.8298 101.359 61.5092 101.132 61.1902C100.646 60.5113 100.159 59.8338 99.6777 59.1521C99.5295 58.9405 99.3443 58.8438 99.084 58.8445C96.6854 58.8487 94.2863 58.8487 91.8877 58.8445C91.0495 58.8443 90.3802 58.3373 90.1934 57.5535C90.1556 57.3816 90.138 57.205 90.1406 57.0291C90.1376 54.6544 90.1376 52.2797 90.1406 49.905C90.1406 49.1793 90.4986 48.6044 91.0693 48.325ZM104.757 58.8542C104.801 58.8477 104.847 58.8434 104.896 58.8435C107.283 58.8492 109.67 58.8502 112.057 58.8464C112.317 58.8464 112.558 58.8001 112.772 58.7156C112.559 58.7991 112.319 58.8453 112.061 58.8455C109.674 58.8469 107.287 58.8458 104.9 58.8425C104.85 58.8425 104.802 58.8472 104.757 58.8542ZM93.542 56.0261C93.1988 56.0263 92.9487 56.2641 92.9443 56.5847C92.9401 56.9201 93.1867 57.1675 93.5352 57.1707H95.7383C96.0913 57.1707 96.3453 56.9313 96.3467 56.6023C96.3481 56.2733 96.0967 56.0272 95.7461 56.0261C95.0118 56.0242 94.2768 56.0242 93.542 56.0261ZM103.701 56.0271C103.348 56.0271 103.101 56.2715 103.105 56.6062C103.108 56.9294 103.358 57.1707 103.698 57.1707H105.92C106.258 57.168 106.506 56.9234 106.507 56.6003C106.508 56.277 106.26 56.0282 105.922 56.0271C105.182 56.0247 104.442 56.0247 103.701 56.0271ZM109.9 56.0261H108.772C108.431 56.0286 108.184 56.2668 108.182 56.5925C108.179 56.9184 108.428 57.1673 108.764 57.1687C109.51 57.1713 110.256 57.1713 111.002 57.1687C111.339 57.1687 111.585 56.9199 111.584 56.5935C111.583 56.2669 111.332 56.028 110.993 56.0251C110.629 56.0234 110.265 56.0258 109.9 56.0261ZM99.7236 56.0261H98.6143C98.2722 56.0282 98.0262 56.2665 98.0244 56.5906C98.0226 56.9147 98.2694 57.1663 98.6055 57.1677C99.3516 57.1701 100.098 57.1701 100.844 57.1677C101.18 57.1677 101.427 56.9182 101.426 56.5925C101.425 56.2667 101.174 56.0276 100.835 56.0251C100.464 56.0244 100.094 56.0261 99.7236 56.0261ZM103.712 53.2068C103.357 53.207 103.107 53.4441 103.105 53.7751C103.106 54.1127 103.357 54.3492 103.723 54.3503C104.079 54.3493 104.437 54.3484 104.796 54.3484H105.907C106.257 54.3452 106.508 54.1034 106.508 53.7712C106.506 53.4486 106.255 53.2068 105.916 53.2068C105.181 53.2047 104.446 53.2047 103.712 53.2068ZM93.5518 53.2048C93.1964 53.2049 92.9455 53.4415 92.9443 53.7693C92.9433 54.0972 93.1911 54.3438 93.5439 54.3464C93.9058 54.3507 94.2704 54.3484 94.6348 54.3484L94.6357 54.3494H95.7285C96.0929 54.3494 96.3475 54.109 96.3457 53.7722C96.3455 53.4431 96.0921 53.2056 95.7383 53.2048C95.0087 53.2034 94.2795 53.2034 93.5518 53.2048ZM108.788 53.2058C108.433 53.206 108.184 53.4434 108.183 53.7751C108.181 54.107 108.433 54.3476 108.783 54.3494C109.148 54.3501 109.513 54.3484 109.877 54.3484H110.987C111.338 54.3466 111.588 54.1035 111.585 53.7703C111.582 53.4481 111.331 53.2058 110.992 53.2058C110.258 53.2039 109.523 53.2039 108.788 53.2058ZM99.7412 53.2039H98.5967C98.2676 53.207 98.0252 53.4515 98.0234 53.7693C98.0217 54.0958 98.2684 54.3454 98.6045 54.3464C99.3508 54.3493 100.097 54.3493 100.844 54.3464C101.18 54.3463 101.426 54.0968 101.426 53.7712C101.425 53.4454 101.174 53.2057 100.835 53.2029C100.47 53.2018 100.105 53.2039 99.7412 53.2039ZM98.6074 50.3845C98.2681 50.3845 98.0243 50.6318 98.0254 50.9587C98.0266 51.2856 98.2751 51.526 98.6143 51.5281C98.9824 51.5291 99.3524 51.5275 99.7227 51.5271H100.853C100.929 51.5284 101.005 51.5141 101.076 51.4851C101.147 51.4561 101.212 51.4127 101.266 51.3582C101.319 51.3037 101.361 51.2389 101.389 51.1677C101.416 51.0965 101.429 51.0205 101.427 50.9441C101.423 50.6307 101.174 50.3858 100.847 50.3845C100.1 50.3817 99.3537 50.3817 98.6074 50.3845ZM108.789 50.3845C108.434 50.3845 108.184 50.6224 108.183 50.9539C108.181 51.2852 108.433 51.5263 108.783 51.5281C109.147 51.5281 109.512 51.5271 109.876 51.5271H110.987C111.338 51.5271 111.588 51.2819 111.585 50.949C111.582 50.6269 111.332 50.3847 110.993 50.3845C110.259 50.3829 109.524 50.3829 108.789 50.3845ZM93.542 50.3835C93.1989 50.3836 92.9482 50.6209 92.9443 50.9421C92.9402 51.277 93.1869 51.5232 93.5352 51.5261C93.8984 51.5289 94.2629 51.5267 94.6279 51.5271H95.7383C96.0913 51.5271 96.3443 51.2872 96.3457 50.9578C96.3469 50.6287 96.096 50.3844 95.7461 50.3835C95.0118 50.3819 94.2768 50.3819 93.542 50.3835ZM103.686 50.3835C103.348 50.3835 103.103 50.6331 103.104 50.9607C103.106 51.288 103.356 51.525 103.695 51.5251C104.058 51.5287 104.423 51.5271 104.787 51.5271H105.917C106.257 51.5246 106.505 51.2832 106.507 50.9587C106.509 50.6344 106.259 50.3846 105.924 50.3835C105.178 50.3814 104.432 50.3814 103.686 50.3835Z" fill="url(#paint6_linear_1812_19601)"/>
<path d="M105.931 66.7615C105.931 66.9848 105.864 67.203 105.739 67.3884C105.614 67.5737 105.438 67.718 105.231 67.8029C105.024 67.8878 104.797 67.9095 104.578 67.8654C104.359 67.8212 104.158 67.7131 104.001 67.5548C103.843 67.3964 103.736 67.1949 103.693 66.9757C103.65 66.7565 103.673 66.5295 103.759 66.3233C103.845 66.1171 103.99 65.941 104.176 65.8173C104.362 65.6936 104.58 65.6278 104.804 65.6282C105.103 65.6292 105.391 65.7491 105.602 65.9616C105.813 66.1741 105.932 66.4617 105.931 66.7615Z" fill="url(#paint7_linear_1812_19601)"/>
<defs>
<linearGradient id="paint0_linear_1812_19601" x1="41.7488" y1="67.749" x2="41.7488" y2="133.977" gradientUnits="userSpaceOnUse">
<stop stop-color="#58A4A4"/>
<stop offset="1" stop-color="#073E39"/>
</linearGradient>
<linearGradient id="paint1_linear_1812_19601" x1="54.3936" y1="138.806" x2="50.8238" y2="143.215" gradientUnits="userSpaceOnUse">
<stop stop-color="#58A4A4"/>
<stop offset="1" stop-color="#073E39"/>
</linearGradient>
<linearGradient id="paint2_linear_1812_19601" x1="63.4569" y1="134.213" x2="61.0183" y2="137.225" gradientUnits="userSpaceOnUse">
<stop stop-color="#58A4A4"/>
<stop offset="1" stop-color="#073E39"/>
</linearGradient>
<linearGradient id="paint3_linear_1812_19601" x1="3.59753" y1="84.4668" x2="3.59753" y2="91.6618" gradientUnits="userSpaceOnUse">
<stop stop-color="#58A4A4"/>
<stop offset="1" stop-color="#073E39"/>
</linearGradient>
<linearGradient id="paint4_linear_1812_19601" x1="101.055" y1="5.4873" x2="101.055" y2="124.926" gradientUnits="userSpaceOnUse">
<stop stop-color="#58A4A4"/>
<stop offset="1" stop-color="#073E39"/>
</linearGradient>
<linearGradient id="paint5_linear_1812_19601" x1="55.2637" y1="64.7824" x2="147.377" y2="64.7824" gradientUnits="userSpaceOnUse">
<stop stop-color="#58A4A4"/>
<stop offset="1" stop-color="#073E39"/>
</linearGradient>
<linearGradient id="paint6_linear_1812_19601" x1="101.983" y1="46.9998" x2="101.983" y2="82" gradientUnits="userSpaceOnUse">
<stop stop-color="#58A4A4"/>
<stop offset="1" stop-color="#073E39"/>
</linearGradient>
<linearGradient id="paint7_linear_1812_19601" x1="104.802" y1="65.6282" x2="104.802" y2="67.8877" gradientUnits="userSpaceOnUse">
<stop stop-color="#58A4A4"/>
<stop offset="1" stop-color="#073E39"/>
</linearGradient>
</defs>
</svg>
