<svg width="40" height="39" viewBox="0 0 40 39" fill="none" xmlns="http://www.w3.org/2000/svg">
<path d="M20.2259 0C16.387 0 12.6343 1.13837 9.4423 3.27116C6.25034 5.40396 3.76252 8.4354 2.29342 11.9821C0.824324 15.5288 0.439947 19.4315 1.18889 23.1967C1.93782 26.9619 3.78644 30.4204 6.50098 33.1349C9.21551 35.8495 12.6741 37.6981 16.4392 38.447C20.2044 39.196 24.1071 38.8116 27.6538 37.3425C31.2005 35.8734 34.2319 33.3856 36.3647 30.1936C38.4975 27.0016 39.6359 23.2489 39.6359 19.41C39.6298 14.264 37.5829 9.33053 33.9442 5.69177C30.3054 2.053 25.3719 0.00607627 20.2259 0Z" fill="#2D6759"/>
<path d="M11.8171 22.3099C11.8711 22.0233 11.9107 21.7331 11.9802 21.4501C12.2023 20.5342 12.6734 19.6976 13.3415 19.0328C14.1498 18.2174 14.961 17.4048 15.7749 16.595C16.0436 16.3264 16.3686 16.2677 16.6732 16.4199C17.1445 16.6538 17.2309 17.2593 16.8423 17.6478C16.0627 18.4344 15.2748 19.2126 14.4964 20.0004C14.3263 20.1695 14.171 20.3528 14.0323 20.5484C13.6652 21.0766 13.4396 21.69 13.3771 22.3301C13.3145 22.9703 13.4171 23.6157 13.675 24.2049C13.9328 24.7942 14.3374 25.3075 14.8501 25.696C15.3628 26.0844 15.9665 26.3351 16.6036 26.424C17.8365 26.593 18.9087 26.2261 19.7974 25.3544C20.583 24.5822 21.3566 23.7956 22.1349 23.0185C22.2206 22.9178 22.3305 22.8405 22.4543 22.7939C22.5781 22.7474 22.7117 22.7331 22.8425 22.7523C22.9714 22.7723 23.0927 22.8257 23.1945 22.9071C23.2963 22.9886 23.3749 23.0953 23.4226 23.2166C23.4703 23.3379 23.4853 23.4696 23.4663 23.5985C23.4472 23.7274 23.3946 23.8491 23.3139 23.9514C23.2768 23.9972 23.2367 24.0404 23.1939 24.0809C22.4192 24.8556 21.6444 25.6302 20.8696 26.4048C20.3562 26.9343 19.7368 27.3497 19.052 27.6239C18.3672 27.8981 17.6322 28.0249 16.8951 27.996C14.4472 27.9432 12.2525 26.0139 11.8879 23.5941C11.8651 23.4442 11.8399 23.2955 11.8159 23.1456L11.8171 22.3099Z" fill="#FCFCFC"/>
<path d="M24.9702 10.0036C25.2748 10.06 25.583 10.1007 25.8816 10.1763C26.9297 10.4471 27.8684 11.0355 28.5688 11.8607C29.2692 12.6859 29.6971 13.7076 29.7939 14.7856C29.9342 16.4427 29.4041 17.8636 28.2347 19.0448C27.454 19.8374 26.6612 20.6204 25.8732 21.4058C25.5314 21.7463 25.0757 21.7655 24.7627 21.4453C24.4496 21.1252 24.4748 20.6827 24.8082 20.3482C25.5902 19.564 26.373 18.781 27.1565 17.9991C27.5505 17.6202 27.8576 17.1604 28.0568 16.6513C28.2559 16.1423 28.3424 15.5962 28.3103 15.0506C28.2455 13.4078 26.9406 11.8874 25.3228 11.5864C23.9635 11.333 22.7962 11.6927 21.8207 12.6656C21.0411 13.4442 20.262 14.2228 19.4832 15.0014C19.3955 15.1046 19.2816 15.1824 19.1536 15.2267C19.0256 15.271 18.888 15.2801 18.7552 15.2532C18.625 15.2286 18.5038 15.1697 18.404 15.0825C18.3043 14.9953 18.2296 14.8831 18.1878 14.7574C18.146 14.6317 18.1385 14.4971 18.1662 14.3676C18.1938 14.238 18.2556 14.1182 18.3451 14.0206C18.4734 13.8767 18.6161 13.7448 18.7528 13.6081C19.4664 12.897 20.174 12.1776 20.896 11.4761C21.735 10.6513 22.8322 10.1403 24.0035 10.0288C24.0442 10.0223 24.0842 10.0127 24.1234 10L24.9702 10.0036Z" fill="#FCFCFC"/>
<path d="M23.8104 16.7689C23.8102 16.8686 23.79 16.9673 23.7511 17.0592C23.7122 17.151 23.6553 17.2341 23.5837 17.3037C22.0894 18.7977 20.5942 20.2914 19.0982 21.7847C19.0291 21.857 18.9459 21.9145 18.8539 21.9538C18.7619 21.9931 18.6628 22.0134 18.5627 22.0134C18.4627 22.0134 18.3636 21.9931 18.2716 21.9538C18.1796 21.9145 18.0964 21.857 18.0272 21.7847C17.9563 21.7142 17.9004 21.6302 17.8629 21.5376C17.8253 21.445 17.8069 21.3457 17.8087 21.2458C17.8105 21.1459 17.8324 21.0473 17.8733 20.9561C17.9142 20.8649 17.9731 20.7829 18.0464 20.7151C19.5352 19.2226 21.0256 17.7321 22.5175 16.2437C22.6206 16.1289 22.7578 16.0503 22.909 16.0194C23.0601 15.9885 23.2172 16.007 23.3571 16.0722C23.494 16.1292 23.6106 16.2262 23.6915 16.3505C23.7724 16.4748 23.8138 16.6206 23.8104 16.7689Z" fill="#FCFCFC"/>
</svg>
