<svg width="153" height="138" viewBox="0 0 153 138" fill="none" xmlns="http://www.w3.org/2000/svg">
<g opacity="0.272">
<path d="M34.043 129.014C48.9553 129.014 61.0441 116.925 61.0441 102.013C61.0441 87.1004 48.9553 75.0116 34.043 75.0116C19.1308 75.0116 7.04199 87.1004 7.04199 102.013C7.04199 116.925 19.1308 129.014 34.043 129.014Z" fill="#2F4F4F"/>
<path d="M41.4418 136.544C41.7974 136.832 42.2304 137.008 42.6861 137.05C43.1417 137.092 43.5996 136.998 44.0017 136.779C44.4038 136.561 44.7321 136.228 44.9451 135.823C45.1581 135.418 45.2462 134.959 45.1983 134.504C45.1503 134.049 44.9685 133.618 44.6758 133.267C44.3831 132.915 43.9927 132.658 43.5539 132.528C43.1152 132.398 42.6477 132.401 42.2108 132.537C41.7738 132.673 41.387 132.936 41.0992 133.291C40.7134 133.768 40.5328 134.379 40.597 134.989C40.6613 135.599 40.9651 136.158 41.4418 136.544Z" fill="#888888"/>
<path d="M49.7513 131.66C49.994 131.857 50.2896 131.977 50.6005 132.006C50.9115 132.034 51.224 131.97 51.4985 131.821C51.773 131.672 51.9971 131.445 52.1426 131.169C52.2881 130.892 52.3484 130.579 52.3158 130.269C52.2833 129.958 52.1594 129.664 51.9598 129.424C51.7602 129.184 51.4938 129.008 51.1944 128.919C50.895 128.83 50.576 128.832 50.2777 128.925C49.9794 129.017 49.7152 129.196 49.5185 129.438C49.2549 129.764 49.1313 130.181 49.1749 130.598C49.2186 131.014 49.4259 131.397 49.7513 131.66Z" fill="#888888"/>
<path d="M2.93344 94.5094C3.51362 94.5094 4.08077 94.3374 4.56317 94.015C5.04557 93.6927 5.42156 93.2346 5.64358 92.6986C5.86561 92.1625 5.9237 91.5727 5.81051 91.0037C5.69733 90.4347 5.41794 89.912 5.00769 89.5017C4.59745 89.0915 4.07476 88.8121 3.50572 88.6989C2.93669 88.5857 2.34688 88.6438 1.81086 88.8658C1.27484 89.0879 0.816703 89.4638 0.494373 89.9462C0.172043 90.4286 0 90.9958 0 91.576C0 92.354 0.309058 93.1001 0.859184 93.6502C1.40931 94.2004 2.15544 94.5094 2.93344 94.5094Z" fill="#888888"/>
</g>
<path d="M87.5136 131.019C123.141 131.019 152.023 102.137 152.023 66.5097C152.023 30.882 123.141 2 87.5136 2C51.8859 2 23.0039 30.882 23.0039 66.5097C23.0039 102.137 51.8859 131.019 87.5136 131.019Z" fill="#F6F2ED"/>
<path d="M87.5133 129.519C122.312 129.519 150.523 101.309 150.523 66.5097C150.523 31.7105 122.312 3.50023 87.5133 3.50023C52.7142 3.50023 24.5039 31.7105 24.5039 66.5097C24.5039 101.309 52.7142 129.519 87.5133 129.519Z" stroke="#0E2B27" stroke-width="3"/>
<path d="M93.756 124.783L93.2479 120.716C94.5191 120.589 95.9174 120.335 97.1885 120.081L97.9507 124.148C96.5515 124.401 95.1532 124.529 93.756 124.783ZM102.144 123.131L101.127 119.191L104.94 118.047L106.34 121.987C104.814 122.368 103.415 122.75 102.144 123.131ZM110.151 120.331L108.499 116.518C109.77 116.01 110.915 115.374 112.058 114.866L113.964 118.551C112.73 119.222 111.457 119.817 110.151 120.335V120.331ZM117.775 116.521L115.614 112.963C116.761 112.317 117.864 111.595 118.915 110.802L121.329 114.103C120.192 114.996 118.921 115.759 117.775 116.521ZM124.638 111.564L121.975 108.387C122.992 107.497 124.009 106.608 124.899 105.717L127.699 108.641C126.775 109.71 125.751 110.689 124.641 111.564H124.638ZM130.866 105.59L127.815 102.79C128.705 101.773 129.594 100.757 130.358 99.7395L133.658 102.282C132.777 103.43 131.758 104.574 130.869 105.59H130.866ZM136.076 98.8544L132.645 96.5671C133.407 95.4229 134.045 94.2797 134.678 93.1355L138.237 95.1689C137.593 96.4402 136.871 97.671 136.077 98.8544H136.076ZM140.271 91.4823L136.585 89.703C137.171 88.5072 137.681 87.2759 138.113 86.0165L141.925 87.5417C141.485 88.8985 140.934 90.2168 140.278 91.4833L140.271 91.4823ZM143.448 83.4751L139.509 82.2039C139.89 80.9327 140.272 79.6615 140.526 78.3913L144.593 79.2815L143.448 83.4751ZM145.355 75.2139L141.287 74.5788C141.541 73.3076 141.668 71.9094 141.795 70.6382L145.863 71.0192C145.739 72.2904 145.485 73.8147 145.358 75.2149L145.355 75.2139ZM145.99 66.6986H141.923V66.3135C141.944 65.1259 141.902 63.9381 141.796 62.755L145.864 62.501C145.991 63.7722 145.991 65.0433 145.991 66.3135L145.99 66.6986ZM35.1622 49.159L31.2227 47.8878C31.6188 46.4924 32.1289 45.1319 32.7479 43.8202L36.5605 45.3454C36.0534 46.6166 35.5443 47.8878 35.1622 49.159ZM38.2127 41.7869L34.5272 39.8806C35.1622 38.6094 35.7983 37.3382 36.5605 36.068L40.119 38.2283C39.4121 39.3746 38.7748 40.563 38.2127 41.7869ZM42.2803 35.0508L38.8488 32.6355C39.6109 31.4913 40.501 30.3481 41.3912 29.204L44.5687 31.7463C43.8065 32.8895 42.9154 33.9087 42.2803 35.0508ZM47.2371 28.8229L44.1866 26.0225L47.2371 22.972L50.0375 26.0225C49.0173 26.9156 48.1262 27.9328 47.2371 28.8229ZM53.0839 23.4851L50.5426 20.3066C51.6867 19.4165 52.8299 18.5274 53.9741 17.7643L56.2654 21.1968C55.126 21.8429 54.0593 22.6108 53.0839 23.4851ZM59.5659 18.9064L57.5326 15.3479C58.8038 14.5858 60.075 13.9477 61.3452 13.3146L63.1254 17.0061C61.8542 17.6372 60.7101 18.2733 59.5659 18.9064ZM66.683 15.4749L65.1577 11.6623C66.4862 11.1196 67.8443 10.6521 69.2254 10.2621L70.4965 14.2017C69.19 14.5115 67.914 14.9383 66.684 15.4769L66.683 15.4749ZM74.3091 13.0596L73.292 8.99194C74.6922 8.61088 76.0924 8.35684 77.4866 8.10181L78.1217 12.1694C76.8515 12.4265 75.5803 12.6805 74.3091 13.0625V13.0596Z" fill="#002C27" stroke="#F6F2ED" stroke-width="0.7"/>
<path opacity="0.3" d="M63.8214 27.5642H111.199C111.782 27.5642 112.342 27.796 112.754 28.2086C113.167 28.6213 113.399 29.1809 113.399 29.7645V103.576C113.399 104.159 113.167 104.719 112.754 105.131C112.342 105.544 111.782 105.776 111.199 105.776H63.8214C63.2379 105.776 62.6782 105.544 62.2656 105.131C61.8529 104.719 61.6211 104.159 61.6211 103.576V29.7645C61.6211 29.1809 61.8529 28.6213 62.2656 28.2086C62.6782 27.796 63.2379 27.5642 63.8214 27.5642Z" fill="#2F4F4F"/>
<path d="M113.04 102.826C113.424 102.826 113.792 102.673 114.063 102.402C114.334 102.131 114.486 101.763 114.486 101.38V30.8679C114.486 29.7303 114.04 28.6381 113.243 27.8266C112.445 27.0151 111.361 26.5492 110.224 26.5293H64.8709C63.7202 26.5293 62.6166 26.9864 61.803 27.8001C60.9893 28.6137 60.5322 29.7173 60.5322 30.8679V104.297C60.5699 105.422 61.0435 106.489 61.8531 107.272C62.6628 108.054 63.7449 108.491 64.8709 108.491H110.297C111.41 108.454 112.466 107.99 113.246 107.196C114.027 106.402 114.472 105.338 114.49 104.225V101.26C114.49 101.07 114.453 100.882 114.38 100.706C114.307 100.53 114.2 100.371 114.065 100.236C113.931 100.102 113.771 99.9957 113.595 99.9232C113.419 99.8508 113.23 99.8138 113.04 99.8143L111.594 99.7723V104.225C111.576 104.584 111.426 104.923 111.172 105.177C110.918 105.431 110.578 105.582 110.22 105.599H64.8709C64.4995 105.6 64.1421 105.457 63.8729 105.201C63.6036 104.945 63.4432 104.596 63.4247 104.225V30.8679C63.4247 30.4844 63.577 30.1165 63.8482 29.8453C64.1195 29.5741 64.4873 29.4217 64.8709 29.4217H110.297C110.654 29.458 110.986 29.6263 111.226 29.8937C111.467 30.1611 111.599 30.5084 111.597 30.8679V101.379C111.597 101.762 111.748 102.129 112.019 102.401C112.29 102.672 112.657 102.825 113.04 102.826Z" fill="#162A27"/>
<path d="M90.4029 39.2679C90.7865 39.2679 91.1543 39.1156 91.4256 38.8443C91.6968 38.5731 91.8492 38.2053 91.8492 37.8217C91.8492 37.4382 91.6968 37.0703 91.4256 36.7991C91.1543 36.5279 90.7865 36.3755 90.4029 36.3755H84.6191C84.4291 36.3755 84.2411 36.4129 84.0656 36.4856C83.8902 36.5583 83.7307 36.6648 83.5964 36.7991C83.4621 36.9334 83.3556 37.0928 83.2829 37.2683C83.2103 37.4437 83.1729 37.6318 83.1729 37.8217C83.1729 38.0116 83.2103 38.1997 83.2829 38.3752C83.3556 38.5506 83.4621 38.7101 83.5964 38.8443C83.7307 38.9786 83.8902 39.0852 84.0656 39.1579C84.2411 39.2305 84.4291 39.2679 84.6191 39.2679H90.4029Z" fill="#162A27"/>
<path d="M109.096 31.8702H65.9258V103.135H109.096V31.8702Z" stroke="#1B2927" stroke-width="2" stroke-dasharray="2 2"/>
<path d="M122.019 44.0066C134.171 44.0066 144.022 34.1554 144.022 22.0033C144.022 9.85121 134.171 0 122.019 0C109.867 0 100.016 9.85121 100.016 22.0033C100.016 34.1554 109.867 44.0066 122.019 44.0066Z" fill="#F5F2ED"/>
<path d="M122.521 42.0057C133.568 42.0057 142.524 33.0501 142.524 22.0027C142.524 10.9554 133.568 1.99973 122.521 1.99973C111.473 1.99973 102.518 10.9554 102.518 22.0027C102.518 33.0501 111.473 42.0057 122.521 42.0057Z" fill="#ED835E"/>
<g clip-path="url(#clip0_845_5378)">
<path d="M121.695 10.0009C121.264 10.0522 120.497 10.1053 119.74 10.24C118.376 10.4683 117.074 10.9981 115.922 11.7942C115.732 11.92 115.598 12.1193 115.549 12.3481C115.501 12.5769 115.541 12.8166 115.662 13.0144C115.782 13.2122 115.973 13.3519 116.192 13.4028C116.412 13.4537 116.641 13.4116 116.831 13.2858C116.96 13.208 117.084 13.1169 117.215 13.041C119.464 11.7259 121.857 11.4963 124.345 12.0314C125.358 12.2522 126.324 12.6686 127.191 13.2592C127.284 13.3311 127.391 13.3822 127.504 13.4093C127.617 13.4365 127.734 13.439 127.848 13.4169C127.963 13.3947 128.071 13.3483 128.167 13.2806C128.264 13.2128 128.346 13.1251 128.408 13.023C128.47 12.9208 128.512 12.8064 128.53 12.6867C128.549 12.5671 128.543 12.4447 128.514 12.3274C128.485 12.21 128.434 12.1001 128.362 12.0045C128.291 11.9089 128.202 11.8295 128.1 11.7714C126.252 10.5152 124.199 10.0522 121.695 10.0009Z" fill="#FCFCFC"/>
<path d="M122.411 13.5474C120.607 13.5474 119.194 13.9554 118.196 14.667C118.102 14.7293 118.021 14.8103 117.957 14.9054C117.893 15.0005 117.847 15.1078 117.823 15.2212C117.799 15.3346 117.796 15.4518 117.815 15.5663C117.835 15.6807 117.875 15.7901 117.935 15.8881C117.995 15.9862 118.072 16.071 118.163 16.1378C118.254 16.2045 118.357 16.2519 118.466 16.2772C118.575 16.3025 118.687 16.3052 118.797 16.2852C118.906 16.2651 119.011 16.2227 119.105 16.1604C119.337 16.0074 119.58 15.8747 119.832 15.7638C121.593 15.075 123.3 15.1433 124.951 16.1434C125.15 16.2554 125.377 16.3005 125.601 16.2724C125.77 16.2502 125.927 16.1684 126.046 16.0403C126.165 15.9123 126.238 15.7458 126.253 15.5684C126.286 15.3944 126.266 15.214 126.196 15.0524C126.126 14.8908 126.009 14.7561 125.862 14.667C124.834 13.9667 123.639 13.579 122.411 13.5474Z" fill="#FCFCFC"/>
<path d="M116.659 24.5616C116.659 23.5103 116.637 22.459 116.659 21.4077C116.676 20.5868 116.993 19.8039 117.547 19.2203C118.1 18.6367 118.847 18.2969 119.634 18.2709C121.225 18.2329 122.817 18.2329 124.407 18.2709C125.19 18.2921 125.935 18.627 126.488 19.206C127.041 19.7851 127.359 20.5639 127.377 21.3811C127.408 23.5122 127.42 25.6433 127.377 27.7725C127.313 30.414 125.151 32.7424 122.623 32.9777C119.597 33.2605 117.091 31.1958 116.697 28.0438C116.606 27.317 116.662 26.5712 116.657 25.833C116.657 25.4099 116.657 24.9848 116.657 24.5597L116.659 24.5616ZM123.152 23.5502C123.153 23.3171 123.088 23.0889 122.965 22.8945C122.842 22.7001 122.666 22.5482 122.46 22.4579C122.254 22.3677 122.027 22.3432 121.808 22.3876C121.589 22.4319 121.387 22.5432 121.228 22.7072C121.07 22.8712 120.961 23.0806 120.917 23.309C120.872 23.5374 120.893 23.7744 120.978 23.9902C121.062 24.2059 121.206 24.3907 121.391 24.5211C121.576 24.6516 121.794 24.7218 122.018 24.7229C122.166 24.7239 122.313 24.6943 122.451 24.6359C122.588 24.5775 122.713 24.4913 122.818 24.3823C122.924 24.2734 123.007 24.1438 123.065 24.001C123.122 23.8582 123.152 23.705 123.152 23.5502ZM123.152 27.4005C123.149 27.1675 123.08 26.9407 122.953 26.7488C122.826 26.5569 122.648 26.4086 122.44 26.3225C122.233 26.2365 122.005 26.2166 121.787 26.2654C121.568 26.3141 121.369 26.4294 121.213 26.5966C121.058 26.7638 120.953 26.9753 120.913 27.2046C120.872 27.4338 120.898 27.6703 120.986 27.8844C121.075 28.0984 121.222 28.2802 121.409 28.4069C121.597 28.5336 121.816 28.5994 122.039 28.596C122.188 28.5943 122.335 28.562 122.471 28.5008C122.607 28.4397 122.731 28.3511 122.834 28.2399C122.938 28.1288 123.019 27.9974 123.074 27.8534C123.128 27.7093 123.155 27.5554 123.152 27.4005Z" fill="#FCFCFC"/>
<path d="M121.695 10.0009C124.199 10.0522 126.252 10.5152 128.094 11.7714C128.196 11.8295 128.285 11.9089 128.357 12.0045C128.428 12.1001 128.48 12.21 128.508 12.3274C128.537 12.4447 128.543 12.5671 128.525 12.6867C128.506 12.8064 128.465 12.9208 128.402 13.023C128.34 13.1251 128.258 13.2128 128.162 13.2806C128.065 13.3483 127.957 13.3947 127.843 13.4169C127.728 13.439 127.611 13.4365 127.498 13.4093C127.385 13.3822 127.278 13.3311 127.185 13.2592C126.318 12.6686 125.353 12.2522 124.339 12.0314C121.851 11.4963 119.458 11.7259 117.209 13.041C117.078 13.1169 116.954 13.208 116.825 13.2858C116.636 13.4116 116.406 13.4537 116.187 13.4028C115.967 13.3519 115.776 13.2122 115.656 13.0144C115.535 12.8166 115.495 12.5769 115.544 12.3481C115.592 12.1193 115.726 11.92 115.916 11.7942C117.068 10.9981 118.37 10.4683 119.735 10.24C120.497 10.1053 121.264 10.0522 121.695 10.0009Z" fill="#FCFCFC"/>
<path d="M122.411 13.5474C123.641 13.5795 124.837 13.9685 125.866 14.6708C126.013 14.7599 126.13 14.8946 126.2 15.0562C126.27 15.2178 126.29 15.3982 126.257 15.5722C126.242 15.7496 126.168 15.9161 126.05 16.0442C125.931 16.1722 125.774 16.2541 125.605 16.2762C125.381 16.3043 125.154 16.2592 124.955 16.1472C123.304 15.1433 121.597 15.075 119.836 15.7677C119.584 15.8785 119.34 16.0112 119.109 16.1643C118.919 16.2901 118.689 16.3321 118.47 16.281C118.25 16.23 118.059 16.09 117.939 15.8919C117.818 15.6939 117.778 15.454 117.827 15.225C117.876 14.996 118.01 14.7966 118.2 14.6708C119.191 13.9573 120.604 13.5436 122.411 13.5474Z" fill="#FCFCFC"/>
</g>
<path d="M122.02 40.7555C132.377 40.7555 140.773 32.3596 140.773 22.0027C140.773 11.6458 132.377 3.24991 122.02 3.24991C111.663 3.24991 103.268 11.6458 103.268 22.0027C103.268 32.3596 111.663 40.7555 122.02 40.7555Z" stroke="#1B2927" stroke-width="2.5"/>
<defs>
<clipPath id="clip0_845_5378">
<rect width="13.0019" height="23.0034" fill="white" transform="translate(115.52 10.0009)"/>
</clipPath>
</defs>
</svg>
