<svg width="39" height="39" viewBox="0 0 39 39" fill="none" xmlns="http://www.w3.org/2000/svg">
<path d="M19.41 -3.05176e-05C15.5711 -3.05176e-05 11.8183 1.13834 8.62638 3.27113C5.43442 5.40393 2.9466 8.43537 1.4775 11.9821C0.00840653 15.5288 -0.375971 19.4315 0.372968 23.1967C1.12191 26.9618 2.97052 30.4204 5.68506 33.1349C8.3996 35.8494 11.8581 37.6981 15.6233 38.447C19.3885 39.1959 23.2912 38.8116 26.8379 37.3425C30.3846 35.8734 33.416 33.3855 35.5488 30.1936C37.6816 27.0016 38.82 23.2489 38.82 19.41C38.8139 14.264 36.767 9.3305 33.1282 5.69174C29.4895 2.05297 24.556 0.00604575 19.41 -3.05176e-05Z" fill="#2D6759"/>
</svg>
