<svg width="170" height="148" viewBox="0 0 170 148" fill="none" xmlns="http://www.w3.org/2000/svg">
<g opacity="0.272">
<path d="M36.5554 138.012C52.5678 138.012 65.5484 125.031 65.5484 109.019C65.5484 93.0063 52.5678 80.0257 36.5554 80.0257C20.5431 80.0257 7.5625 93.0063 7.5625 109.019C7.5625 125.031 20.5431 138.012 36.5554 138.012Z" fill="url(#paint0_linear_6199_19548)"/>
<path d="M44.4993 146.098C44.8811 146.407 45.3461 146.596 45.8354 146.641C46.3246 146.686 46.8162 146.584 47.248 146.35C47.6798 146.115 48.0323 145.758 48.261 145.323C48.4897 144.888 48.5843 144.396 48.5329 143.907C48.4814 143.418 48.2862 142.956 47.9719 142.578C47.6576 142.201 47.2384 141.925 46.7672 141.785C46.2961 141.646 45.7942 141.649 45.325 141.795C44.8558 141.941 44.4404 142.223 44.1314 142.605C43.7171 143.117 43.5232 143.772 43.5922 144.427C43.6612 145.082 43.9874 145.683 44.4993 146.098Z" fill="url(#paint1_linear_6199_19548)"/>
<path d="M53.4218 140.854C53.6824 141.065 53.9997 141.194 54.3337 141.224C54.6676 141.255 55.0031 141.186 55.2979 141.026C55.5926 140.866 55.8333 140.622 55.9895 140.326C56.1457 140.029 56.2104 139.692 56.1755 139.359C56.1405 139.025 56.0075 138.71 55.7931 138.452C55.5788 138.194 55.2928 138.005 54.9713 137.91C54.6499 137.815 54.3073 137.817 53.987 137.916C53.6667 138.015 53.383 138.207 53.1718 138.468C52.8887 138.817 52.756 139.265 52.8029 139.712C52.8498 140.16 53.0724 140.57 53.4218 140.854Z" fill="url(#paint2_linear_6199_19548)"/>
<path d="M3.14984 100.962C3.77282 100.962 4.38181 100.777 4.8998 100.431C5.41779 100.085 5.82151 99.593 6.05992 99.0174C6.29832 98.4418 6.3607 97.8085 6.23916 97.1975C6.11762 96.5865 5.81763 96.0253 5.37712 95.5847C4.9366 95.1442 4.37535 94.8442 3.76434 94.7227C3.15333 94.6012 2.52001 94.6635 1.94445 94.9019C1.36889 95.1403 0.876952 95.5441 0.530843 96.0621C0.184734 96.58 0 97.189 0 97.812C0 98.6474 0.331857 99.4486 0.922567 100.039C1.51328 100.63 2.31445 100.962 3.14984 100.962Z" fill="url(#paint3_linear_6199_19548)"/>
</g>
<path d="M100.73 140.685C138.986 140.685 169.998 109.672 169.998 71.4164C169.998 33.1604 138.986 2.14783 100.73 2.14783C62.4735 2.14783 31.4609 33.1604 31.4609 71.4164C31.4609 109.672 62.4735 140.685 100.73 140.685Z" fill="#F6F2ED"/>
<path d="M100.728 139.074C138.094 139.074 168.386 108.783 168.386 71.4165C168.386 34.0502 138.094 3.75879 100.728 3.75879C63.3617 3.75879 33.0703 34.0502 33.0703 71.4165C33.0703 108.783 63.3617 139.074 100.728 139.074Z" stroke="#0E2B27" stroke-width="3"/>
<path d="M107.436 133.989L106.89 129.621C108.255 129.485 109.756 129.212 111.121 128.939L111.94 133.307C110.437 133.579 108.936 133.716 107.436 133.989ZM116.443 132.215L115.35 127.985L119.444 126.756L120.948 130.986C119.309 131.396 117.807 131.805 116.443 132.215ZM125.041 129.208L123.266 125.114C124.631 124.569 125.86 123.886 127.087 123.34L129.134 127.297C127.809 128.017 126.442 128.657 125.041 129.212V129.208ZM133.226 125.117L130.906 121.296C132.138 120.603 133.322 119.828 134.45 118.977L137.043 122.521C135.822 123.48 134.457 124.299 133.226 125.117ZM140.595 119.795L137.737 116.383C138.829 115.427 139.92 114.473 140.876 113.517L143.883 116.656C142.89 117.804 141.79 118.855 140.599 119.795H140.595ZM147.283 113.38L144.007 110.373C144.963 109.281 145.918 108.19 146.737 107.098L150.281 109.828C149.335 111.061 148.241 112.289 147.286 113.38H147.283ZM152.878 106.147L149.193 103.691C150.012 102.463 150.697 101.235 151.377 100.007L155.198 102.19C154.506 103.555 153.732 104.877 152.879 106.147H152.878ZM157.382 98.2315L153.425 96.3209C154.053 95.0369 154.601 93.7148 155.064 92.3624L159.158 94.0002C158.686 95.4571 158.094 96.8727 157.389 98.2325L157.382 98.2315ZM160.794 89.6336L156.564 88.2686C156.973 86.9036 157.383 85.5387 157.656 84.1748L162.022 85.1306L160.794 89.6336ZM162.841 80.7629L158.473 80.0809C158.746 78.716 158.882 77.2146 159.019 75.8497L163.386 76.2588C163.253 77.6238 162.98 79.2605 162.844 80.764L162.841 80.7629ZM163.523 71.6194H159.156V71.206C159.179 69.9308 159.133 68.6553 159.02 67.3849L163.387 67.1122C163.524 68.4771 163.524 69.8421 163.524 71.206L163.523 71.6194ZM44.5193 52.7859L40.2891 51.4209C40.7144 49.9226 41.2621 48.4618 41.9268 47.0533L46.0206 48.691C45.4761 50.056 44.9295 51.4209 44.5193 52.7859ZM47.7948 44.87L43.8373 42.8231C44.5193 41.4581 45.2023 40.0931 46.0206 38.7292L49.8417 41.0489C49.0826 42.2798 48.3983 43.5558 47.7948 44.87ZM52.1624 37.637L48.4778 35.0435C49.2961 33.8149 50.2519 32.5874 51.2077 31.3588L54.6196 34.0888C53.8013 35.3163 52.8444 36.4106 52.1624 37.637ZM57.4849 30.9497L54.2094 27.9427L57.4849 24.6672L60.4919 27.9427C59.3964 28.9017 58.4396 29.9939 57.4849 30.9497ZM63.7631 25.2181L61.0342 21.8051C62.2628 20.8493 63.4903 19.8946 64.7189 19.0752L67.1792 22.7609C65.9557 23.4548 64.8104 24.2793 63.7631 25.2181ZM70.7232 20.3016L68.5399 16.4806C69.9049 15.6623 71.2698 14.9771 72.6337 14.2973L74.5453 18.2612C73.1804 18.9388 71.9518 19.6218 70.7232 20.3016ZM78.3653 16.617L76.7276 12.5231C78.154 11.9403 79.6123 11.4384 81.0952 11.0196L82.4602 15.2499C81.0573 15.5825 79.6871 16.0408 78.3664 16.6191L78.3653 16.617ZM86.554 14.0234L85.4618 9.65575C86.9653 9.24658 88.4689 8.9738 89.9659 8.69995L90.6479 13.0676C89.284 13.3436 87.919 13.6164 86.554 14.0267V14.0234Z" fill="#002C27" stroke="#F6F2ED" stroke-width="0.7"/>
<path opacity="0.3" d="M75.2923 29.5975H126.164C126.791 29.5975 127.392 29.8465 127.835 30.2895C128.278 30.7326 128.527 31.3336 128.527 31.9602V111.216C128.527 111.843 128.278 112.444 127.835 112.887C127.392 113.33 126.791 113.579 126.164 113.579H75.2923C74.6657 113.579 74.0648 113.33 73.6217 112.887C73.1786 112.444 72.9297 111.843 72.9297 111.216V31.9602C72.9297 31.3336 73.1786 30.7326 73.6217 30.2895C74.0648 29.8465 74.6657 29.5975 75.2923 29.5975Z" fill="#2D6759"/>
<path d="M128.143 110.412C128.555 110.412 128.95 110.248 129.241 109.957C129.532 109.666 129.696 109.271 129.696 108.859V33.1458C129.696 31.9242 129.217 30.7515 128.361 29.8801C127.504 29.0087 126.34 28.5085 125.119 28.4871H76.4204C75.1849 28.4871 73.9999 28.9779 73.1262 29.8516C72.2525 30.7252 71.7617 31.9102 71.7617 33.1458V111.992C71.8021 113.2 72.3107 114.345 73.1801 115.186C74.0494 116.026 75.2114 116.495 76.4204 116.495H125.197C126.392 116.455 127.526 115.957 128.364 115.105C129.203 114.252 129.681 113.11 129.7 111.914V108.731C129.7 108.527 129.66 108.325 129.582 108.136C129.503 107.947 129.389 107.776 129.244 107.632C129.099 107.487 128.928 107.373 128.739 107.295C128.55 107.217 128.347 107.178 128.143 107.178L126.59 107.133V111.914C126.571 112.3 126.41 112.664 126.137 112.937C125.864 113.21 125.5 113.371 125.115 113.39H76.4204C76.0216 113.39 75.6379 113.237 75.3488 112.963C75.0597 112.688 74.8874 112.313 74.8675 111.914V33.1458C74.8675 32.7339 75.0311 32.3389 75.3224 32.0477C75.6136 31.7565 76.0086 31.5929 76.4204 31.5929H125.197C125.581 31.6318 125.937 31.8125 126.195 32.0996C126.454 32.3867 126.595 32.7597 126.593 33.1458V108.858C126.593 109.269 126.756 109.664 127.047 109.956C127.337 110.247 127.732 110.411 128.143 110.412Z" fill="#162A27"/>
<path d="M103.834 42.1656C104.246 42.1656 104.641 42.002 104.932 41.7108C105.223 41.4196 105.387 41.0246 105.387 40.6127C105.387 40.2009 105.223 39.8059 104.932 39.5146C104.641 39.2234 104.246 39.0598 103.834 39.0598H97.6232C97.4193 39.0598 97.2174 39.1 97.0289 39.178C96.8405 39.2561 96.6693 39.3704 96.5251 39.5146C96.3809 39.6589 96.2666 39.83 96.1885 40.0184C96.1105 40.2069 96.0703 40.4088 96.0703 40.6127C96.0703 40.8167 96.1105 41.0186 96.1885 41.207C96.2666 41.3954 96.3809 41.5666 96.5251 41.7108C96.6693 41.855 96.8405 41.9694 97.0289 42.0474C97.2174 42.1255 97.4193 42.1656 97.6232 42.1656H103.834Z" fill="#162A27"/>
<path d="M123.91 34.2216H77.5547V110.743H123.91V34.2216Z" stroke="#1B2927" stroke-width="2" stroke-dasharray="2 2"/>
<path d="M137.783 47.253C150.831 47.253 161.409 36.675 161.409 23.6265C161.409 10.5779 150.831 0 137.783 0C124.734 0 114.156 10.5779 114.156 23.6265C114.156 36.675 124.734 47.253 137.783 47.253Z" fill="#F5F2ED"/>
<path d="M137.783 45.1052C149.646 45.1052 159.262 35.4889 159.262 23.6266C159.262 11.7643 149.646 2.14795 137.783 2.14795C125.921 2.14795 116.305 11.7643 116.305 23.6266C116.305 35.4889 125.921 45.1052 137.783 45.1052Z" fill="#ED835E"/>
<path d="M137.785 43.7628C148.906 43.7628 157.921 34.7475 157.921 23.6266C157.921 12.5056 148.906 3.49036 137.785 3.49036C126.664 3.49036 117.648 12.5056 117.648 23.6266C117.648 34.7475 126.664 43.7628 137.785 43.7628Z" stroke="#1B2927" stroke-width="2.5"/>
<path d="M132.168 26.3333C130.885 26.3333 129.835 25.2833 129.835 24C129.835 22.7167 130.885 21.6667 132.168 21.6667C133.451 21.6667 134.501 22.7167 134.501 24C134.501 25.2833 133.451 26.3333 132.168 26.3333ZM138.701 21.6667C137.768 18.9833 135.201 17 132.168 17C128.318 17 125.168 20.15 125.168 24C125.168 27.85 128.318 31 132.168 31C135.201 31 137.768 29.0167 138.701 26.3333H142.668V31H147.335V26.3333H150.835V21.6667H138.701Z" fill="#FDF7F0"/>
<defs>
<linearGradient id="paint0_linear_6199_19548" x1="36.5554" y1="80.0257" x2="36.5554" y2="138.012" gradientUnits="userSpaceOnUse">
<stop stop-color="#00836A"/>
<stop offset="1" stop-color="#073E39"/>
</linearGradient>
<linearGradient id="paint1_linear_6199_19548" x1="47.6257" y1="142.237" x2="44.4993" y2="146.098" gradientUnits="userSpaceOnUse">
<stop stop-color="#00836A"/>
<stop offset="1" stop-color="#073E39"/>
</linearGradient>
<linearGradient id="paint2_linear_6199_19548" x1="55.5561" y1="138.218" x2="53.4218" y2="140.854" gradientUnits="userSpaceOnUse">
<stop stop-color="#00836A"/>
<stop offset="1" stop-color="#073E39"/>
</linearGradient>
<linearGradient id="paint3_linear_6199_19548" x1="3.14984" y1="94.6622" x2="3.14984" y2="100.962" gradientUnits="userSpaceOnUse">
<stop stop-color="#00836A"/>
<stop offset="1" stop-color="#073E39"/>
</linearGradient>
</defs>
</svg>
