<svg width="5" height="8" viewBox="0 0 5 8" fill="none" xmlns="http://www.w3.org/2000/svg">
<path d="M0.209529 0.210473C0.143109 0.276757 0.0904142 0.355489 0.0544604 0.442164C0.0185067 0.528838 0 0.621752 0 0.715588C0 0.809423 0.0185067 0.902338 0.0544604 0.989012C0.0904142 1.07569 0.143109 1.15442 0.209529 1.2207L2.98945 4.00062L0.209529 6.78055C0.0755641 6.91451 0.000303378 7.0962 0.000303378 7.28566C0.000303378 7.47511 0.0755641 7.65681 0.209529 7.79078C0.343494 7.92474 0.525189 8 0.714643 8C0.904098 8 1.08579 7.92474 1.21976 7.79078L4.50838 4.50216C4.5748 4.43587 4.62749 4.35714 4.66345 4.27047C4.6994 4.18379 4.71791 4.09088 4.71791 3.99704C4.71791 3.90321 4.6994 3.81029 4.66345 3.72362C4.62749 3.63694 4.5748 3.55821 4.50838 3.49193L1.21976 0.203308C0.947498 -0.068952 0.488954 -0.0689519 0.209529 0.210473Z" fill="#F6F2ED"/>
</svg>
