<svg xmlns="http://www.w3.org/2000/svg" xmlns:xlink="http://www.w3.org/1999/xlink" width="30" height="30" viewBox="0 0 30 30">
  <defs>
    <linearGradient id="linear-gradient" x1="0.177" y1="0.092" x2="0.924" y2="0.837" gradientUnits="objectBoundingBox">
      <stop offset="0" stop-color="#00836a"/>
      <stop offset="1" stop-color="#073e39"/>
    </linearGradient>
  </defs>
  <g id="Safeguarding_Tips" data-name="Safeguarding Tips" transform="translate(-48 -260)">
    <g id="Group_42867" data-name="Group 42867" transform="translate(48 260)">
      <circle id="Ellipse_218" data-name="Ellipse 218" cx="15" cy="15" r="15" fill="url(#linear-gradient)"/>
      <g id="Ellipse_220" data-name="Ellipse 220" transform="translate(2.5 2.571)" fill="none" stroke="#fff" stroke-linecap="round" stroke-width="1" stroke-dasharray="0.2 3" opacity="0.511">
        <circle cx="12.5" cy="12.5" r="12.5" stroke="none"/>
        <circle cx="12.5" cy="12.5" r="12" fill="none"/>
      </g>
    </g>
    <path id="Shield" d="M15.6,4.365,10,2.044a.538.538,0,0,0-.427,0l-5.6,2.32a.553.553,0,0,0-.339.508V7.591a9.941,9.941,0,0,0,5.923,9.09.591.591,0,0,0,.221.044A.564.564,0,0,0,10,16.681a9.929,9.929,0,0,0,5.923-9.09V4.873A.509.509,0,0,0,15.6,4.365Z" transform="translate(53.215 265.638)" fill="#f0f0f0"/>
  </g>
</svg>
