<svg xmlns="http://www.w3.org/2000/svg" width="42.43" height="42.43" viewBox="0 0 42.43 42.43">
  <g id="scaling" transform="translate(-38.455 -493)">
    <g id="watch_only" data-name="watch only" transform="translate(-10 231.514)">
      <g id="Group_54506" data-name="Group 54506" transform="translate(7.486 7.486)">
        <g id="Ellipse_2007" data-name="Ellipse 2007" transform="translate(40.969 254)" fill="#F6F2ED" stroke="#002c27" stroke-width="1">
          <circle cx="21.215" cy="21.215" r="21.215" stroke="none"/>
          <circle cx="21.215" cy="21.215" r="20.715" fill="none"/>
        </g>
        <g id="Group_39720" data-name="Group 39720" transform="translate(42.662 255.806)">
          <g id="Group_39719" data-name="Group 39719" transform="translate(0 0)">
            <path id="Path_27264" data-name="Path 27264" d="M434.087,1170.751a19.6,19.6,0,0,1-5.832,13.981,19.347,19.347,0,0,1-13.75,5.639,19.62,19.62,0,1,1,19.582-19.62Z" transform="translate(-394.923 -1151.13)" fill="#2F4F4F"/>
          </g>
        </g>
        <g id="Ellipse_2008" data-name="Ellipse 2008" transform="translate(44.2 257.286)" fill="#F6F2ED" stroke="#002c27" stroke-width="1">
          <circle cx="18.055" cy="18.055" r="18.055" stroke="none"/>
          <circle cx="18.055" cy="18.055" r="17.555" fill="none"/>
        </g>
        <g id="Rectangle_7600" data-name="Rectangle 7600" transform="translate(46.853 290.724) rotate(-90)" fill="none" stroke="#002c27" stroke-width="1" stroke-dasharray="1 1.5">
          <rect width="30.88" height="30.88" rx="15.44" stroke="none"/>
          <rect x="0.5" y="0.5" width="29.88" height="29.88" rx="14.94" fill="none"/>
        </g>
      </g>
    </g>
    <path id="business_report" data-name="business report" d="M11.375,1V4.35a3.354,3.354,0,0,0,3.35,3.35h3.35v8.375a3.36,3.36,0,0,1-3.35,3.35H6.35A3.354,3.354,0,0,1,3,16.074V4.35A3.349,3.349,0,0,1,6.35,1Zm1.675.486V4.341a1.674,1.674,0,0,0,1.675,1.675H17.58L13.041,1.477ZM10.537,10.2H7.187a.829.829,0,0,0-.837.837V16.9h4.187Zm.837,6.7h3.35V12.716a.835.835,0,0,0-.837-.837H11.375ZM6.35,6.016H9.7V4.341H6.35Zm4.187,2.512H6.35V6.854h4.187Z" transform="translate(49.133 503.788)" fill="#2F4F4F" fill-rule="evenodd"/>
  </g>
</svg>
