<svg width="23" height="23" viewBox="0 0 23 23" fill="none" xmlns="http://www.w3.org/2000/svg">
<g clip-path="url(#clip0_3328_10775)">
<path d="M22.2079 12.4441L22.2082 12.4441C22.3932 12.4436 22.5737 12.3873 22.7262 12.2825C22.8782 12.1779 22.9952 12.0301 23.062 11.8582C23.1238 11.7101 23.1467 11.5487 23.1286 11.3893C23.1105 11.2293 23.0517 11.0767 22.9578 10.9459C22.8639 10.8151 22.738 10.7105 22.5922 10.6422C22.4478 10.5746 22.2886 10.5449 22.1297 10.5556H11.536H11.5222H0.838024C0.709881 10.5526 0.582493 10.5762 0.463853 10.6249C0.344748 10.6739 0.237113 10.7471 0.147841 10.84C0.0585703 10.9328 -0.0104077 11.0431 -0.0547104 11.1641C-0.0989176 11.2848 -0.117543 11.4133 -0.109508 11.5415C-0.102976 11.6716 -0.0699413 11.7991 -0.0123607 11.916C0.045339 12.0332 0.12641 12.1372 0.225896 12.2218C0.325428 12.3065 0.441249 12.3697 0.566087 12.4078C0.688651 12.4452 0.817463 12.4575 0.944862 12.4441L22.2079 12.4441Z" fill="#2D6759" stroke="#2D6759" stroke-width="0.25"/>
<path d="M4.66036 -0.120493L4.65982 -0.12049L2.51084 -0.111254C2.16692 -0.115681 1.82561 -0.0510864 1.50705 0.0786156C1.18814 0.20846 0.898473 0.400955 0.655232 0.644747C0.411998 0.888531 0.220135 1.17856 0.0909363 1.49784C-0.0381383 1.81681 -0.10204 2.15841 -0.0969551 2.50249V6.49706C-0.109846 6.6275 -0.0956089 6.75917 -0.0552202 6.88386C-0.0141223 7.01073 0.0531805 7.12756 0.142354 7.22674C0.231513 7.32591 0.340499 7.40521 0.462308 7.4595C0.584083 7.51378 0.71595 7.54189 0.849322 7.54189C0.982694 7.54189 1.11456 7.51378 1.23634 7.4595C1.35815 7.40521 1.46713 7.32591 1.55629 7.22674C1.64544 7.12759 1.71281 7.01076 1.75392 6.88386C1.79432 6.75914 1.80849 6.62746 1.7956 6.49706V2.6032V2.59479L1.79447 2.58646C1.7794 2.47493 1.79035 2.36134 1.82645 2.25476C1.86254 2.14818 1.92282 2.05143 2.00255 1.97205C2.08226 1.89269 2.17927 1.83289 2.28599 1.79729C2.39269 1.76169 2.50615 1.75128 2.61753 1.76689L2.62616 1.7681H2.63488H6.96276C7.09101 1.77708 7.21976 1.75986 7.3412 1.71737C7.46413 1.67435 7.57688 1.60641 7.67235 1.5178C7.76785 1.42917 7.84402 1.3217 7.89609 1.20232C7.94817 1.08293 7.97506 0.954155 7.97506 0.823862C7.97506 0.693586 7.94818 0.564695 7.89609 0.445289C7.844 0.325864 7.76782 0.218519 7.67235 0.129924C7.57693 0.0413611 7.4642 -0.0267137 7.3412 -0.069754C7.21976 -0.112246 7.09101 -0.129468 6.96276 -0.120491L4.66036 -0.120493Z" fill="#2D6759" stroke="#2D6759" stroke-width="0.25"/>
<path d="M18.3586 -0.120361L18.3588 -0.120362L20.5412 -0.120361C21.2221 -0.120363 21.8751 0.149905 22.357 0.631076C22.8389 1.11225 23.1102 1.76503 23.1115 2.44612V2.44636V2.45434V2.46231V2.47029V2.47827V2.48625V2.49423V2.5022V2.51018V2.51816V2.52614V2.53411V2.54209V2.55007V2.55804V2.56602V2.574V2.58197V2.58995V2.59793V2.6059V2.61388V2.62186V2.62983V2.63781V2.64578V2.65376V2.66174V2.66971V2.67769V2.68566V2.69364V2.70161V2.70959V2.71756V2.72554V2.73351V2.74149V2.74946V2.75744V2.76541V2.77339V2.78136V2.78933V2.79731V2.80528V2.81326V2.82123V2.8292V2.83718V2.84515V2.85312V2.8611V2.86907V2.87704V2.88502V2.89299V2.90096V2.90894V2.91691V2.92488V2.93286V2.94083V2.9488V2.95677V2.96475V2.97272V2.98069V2.98866V2.99663V3.00461V3.01258V3.02055V3.02852V3.03649V3.04447V3.05244V3.06041V3.06838V3.07635V3.08432V3.09229V3.10026V3.10824V3.11621V3.12418V3.13215V3.14012V3.14809V3.15606V3.16403V3.172V3.17997V3.18794V3.19591V3.20388V3.21185V3.21982V3.22779V3.23576V3.24373V3.2517V3.25967V3.26764V3.27561V3.28358V3.29155V3.29952V3.30749V3.31546V3.32343V3.3314V3.33937V3.34734V3.3553V3.36327V3.37124V3.37921V3.38718V3.39515V3.40312V3.41109V3.41906V3.42702V3.43499V3.44296V3.45093V3.4589V3.46687V3.47483V3.4828V3.49077V3.49874V3.50671V3.51467V3.52264V3.53061V3.53858V3.54655V3.55451V3.56248V3.57045V3.57842V3.58638V3.59435V3.60232V3.61029V3.61825V3.62622V3.63419V3.64216V3.65012V3.65809V3.66606V3.67402V3.68199V3.68996V3.69792V3.70589V3.71386V3.72183V3.72979V3.73776V3.74573V3.75369V3.76166V3.76963V3.77759V3.78556V3.79352V3.80149V3.80946V3.81742V3.82539V3.83336V3.84132V3.84929V3.85725V3.86522V3.87319V3.88115V3.88912V3.89709V3.90505V3.91302V3.92098V3.92895V3.93692V3.94488V3.95285V3.96081V3.96878V3.97674V3.98471V3.99268V4.00064V4.00861V4.01657V4.02454V4.0325V4.04047V4.04843V4.0564V4.06437V4.07233V4.0803V4.08826V4.09623V4.10419V4.11216V4.12012V4.12809V4.13605V4.14402V4.15198V4.15995V4.16792V4.17588V4.18385V4.19181V4.19978V4.20774V4.21571V4.22367V4.23164V4.2396V4.24757V4.25553V4.2635V4.27146V4.27943V4.28739V4.29536V4.30332V4.31129V4.31925V4.32722V4.33518V4.34315V4.35111V4.35908V4.36704V4.37501V4.38297V4.39094V4.3989V4.40687V4.41483V4.4228V4.43076V4.43873V4.44669V4.45466V4.46262V4.47059V4.47855V4.48652V4.49448V4.50245V4.51041V4.51837V4.52634V4.5343V4.54227V4.55023V4.5582V4.56616V4.57413V4.58209V4.59006V4.59802V4.60599V4.61395V4.62192V4.62988V4.63785V4.64581V4.65378V4.66174V4.66971V4.67767V4.68564V4.6936V4.70157V4.70953V4.7175V4.72546V4.73343V4.74139V4.74936V4.75732V4.76529V4.77325V4.78122V4.78919V4.79715V4.80512V4.81308V4.82105V4.82901V4.83698V4.84494V4.85291V4.86087V4.86884V4.8768V4.88477V4.89273V4.9007V4.90866V4.91663V4.9246V4.93256V4.94053V4.94849V4.95646V4.96442V4.97239V4.98035V4.98832V4.99629V5.00425V5.01222V5.02018V5.02815V5.03612V5.04408V5.05205V5.06001V5.06798V5.07594V5.08391V5.09188V5.09984V5.10781V5.11578V5.12374V5.13171V5.13967V5.14764V5.15561V5.16357V5.17154V5.17951V5.18747V5.19544V5.20341V5.21137V5.21934V5.22731V5.23527V5.24324V5.25121V5.25917V5.26714V5.27511V5.28307V5.29104V5.29901V5.30697V5.31494V5.32291V5.33088V5.33884V5.34681V5.35478V5.36274V5.37071V5.37868V5.38665V5.39461V5.40258V5.41055V5.41852V5.42648V5.43445V5.44242V5.45039V5.45836V5.46632V5.47429V5.48226V5.49023V5.4982V5.50616V5.51413V5.5221V5.53007V5.53804V5.54601V5.55398V5.56194V5.56991V5.57788V5.58585V5.59382V5.60179V5.60976V5.61773V5.62569V5.63366V5.64163V5.6496V5.65757V5.66554V5.67351V5.68148V5.68945V5.69742V5.70539V5.71336V5.72133V5.7293V5.73727V5.74524V5.75321V5.76118V5.76915V5.77712V5.78509V5.79306V5.80103V5.809V5.81697V5.82494V5.83291V5.84088V5.84885V5.85682V5.86479V5.87277V5.88074V5.88871V5.89668V5.90465V5.91262V5.92059V5.92857V5.93654V5.94451V5.95248V5.96045V5.96842V5.9764V5.98437V5.99234V6.00031V6.00829V6.01626V6.02423V6.0322V6.04017V6.04815V6.05612V6.06409V6.07207V6.08004V6.08801V6.09599V6.10396V6.11193V6.11991V6.12788V6.13585V6.14383V6.1518V6.15977V6.16775V6.17572V6.1837V6.19167V6.19965V6.20762V6.21559V6.22357V6.23154V6.23952V6.24749V6.25547V6.26344V6.27142V6.27939V6.28737V6.29534V6.30332V6.31129V6.31927V6.32725V6.33522V6.3432V6.35117V6.35915V6.36713V6.3751V6.38308V6.39106V6.39903V6.40701V6.41499V6.42296V6.43094V6.43892V6.44689V6.45487V6.46285V6.47083V6.4788V6.48678V6.49476V6.50274V6.51072V6.51869V6.52215C23.1205 6.65044 23.1033 6.77922 23.0608 6.90069C23.0178 7.02372 22.9498 7.13643 22.8613 7.2319C22.7727 7.3274 22.6654 7.40362 22.546 7.45574C22.4267 7.50783 22.2978 7.53481 22.1676 7.53481C22.0373 7.53481 21.9085 7.50783 21.7891 7.45574C21.6698 7.40363 21.5624 7.32742 21.4738 7.2319C21.3853 7.1364 21.3173 7.02368 21.2743 6.90069C21.2319 6.77922 21.2147 6.65044 21.2236 6.52215V2.62632V2.61687L21.2251 2.60752C21.2423 2.4941 21.2327 2.37821 21.1971 2.26917C21.1615 2.16016 21.1008 2.06109 21.0199 1.97976C20.939 1.89844 20.8401 1.83722 20.7314 1.80107C20.6226 1.76491 20.5068 1.75479 20.3934 1.77152L20.3843 1.77285H20.3751H20.3666H20.3581H20.3496H20.3411H20.3325H20.324H20.3155H20.307H20.2985H20.29H20.2815H20.2729H20.2644H20.2559H20.2474H20.2389H20.2304H20.2218H20.2133H20.2048H20.1963H20.1878H20.1793H20.1707H20.1622H20.1537H20.1452H20.1367H20.1282H20.1197H20.1111H20.1026H20.0941H20.0856H20.0771H20.0686H20.06H20.0515H20.043H20.0345H20.026H20.0175H20.0089H20.0004H19.9919H19.9834H19.9749H19.9664H19.9579H19.9493H19.9408H19.9323H19.9238H19.9153H19.9068H19.8982H19.8897H19.8812H19.8727H19.8642H19.8557H19.8472H19.8386H19.8301H19.8216H19.8131H19.8046H19.7961H19.7875H19.779H19.7705H19.762H19.7535H19.745H19.7365H19.7279H19.7194H19.7109H19.7024H19.6939H19.6854H19.6768H19.6683H19.6598H19.6513H19.6428H19.6343H19.6258H19.6172H19.6087H19.6002H19.5917H19.5832H19.5747H19.5662H19.5576H19.5491H19.5406H19.5321H19.5236H19.5151H19.5065H19.498H19.4895H19.481H19.4725H19.464H19.4555H19.4469H19.4384H19.4299H19.4214H19.4129H19.4044H19.3959H19.3873H19.3788H19.3703H19.3618H19.3533H19.3448H19.3363H19.3277H19.3192H19.3107H19.3022H19.2937H19.2852H19.2767H19.2681H19.2596H19.2511H19.2426H19.2341H19.2256H19.2171H19.2085H19.2H19.1915H19.183H19.1745H19.166H19.1575H19.1489H19.1404H19.1319H19.1234H19.1149H19.1064H19.0979H19.0894H19.0808H19.0723H19.0638H19.0553H19.0468H19.0383H19.0298H19.0212H19.0127H19.0042H18.9957H18.9872H18.9787H18.9702H18.9617H18.9531H18.9446H18.9361H18.9276H18.9191H18.9106H18.9021H18.8936H18.885H18.8765H18.868H18.8595H18.851H18.8425H18.834H18.8255H18.8169H18.8084H18.7999H18.7914H18.7829H18.7744H18.7659H18.7574H18.7488H18.7403H18.7318H18.7233H18.7148H18.7063H18.6978H18.6893H18.6807H18.6722H18.6637H18.6552H18.6467H18.6382H18.6297H18.6212H18.6127H18.6041H18.5956H18.5871H18.5786H18.5701H18.5616H18.5531H18.5446H18.5361H18.5275H18.519H18.5105H18.502H18.4935H18.485H18.4765H18.468H18.4595H18.4509H18.4424H18.4339H18.4254H18.4169H18.4084H18.3999H18.3914H18.3829H18.3743H18.3658H18.3573H18.3488H18.3403H18.3318H18.3233H18.3148H18.3063H18.2978H18.2892H18.2807H18.2722H18.2637H18.2552H18.2467H18.2382H18.2297H18.2212H18.2127H18.2042H18.1956H18.1871H18.1786H18.1701H18.1616H18.1531H18.1446H18.1361H18.1276H18.1191H18.1106H18.102H18.0935H18.085H18.0765H18.068H18.0595H18.051H18.0425H18.034H18.0255H18.017H18.0085H18H17.9914H17.9829H17.9744H17.9659H17.9574H17.9489H17.9404H17.9319H17.9234H17.9149H17.9064H17.8979H17.8894H17.8808H17.8723H17.8638H17.8553H17.8468H17.8383H17.8298H17.8213H17.8128H17.8043H17.7958H17.7873H17.7788H17.7703H17.7618H17.7532H17.7447H17.7362H17.7277H17.7192H17.7107H17.7022H17.6937H17.6852H17.6767H17.6682H17.6597H17.6512H17.6427H17.6342H17.6257H17.6172H17.6087H17.6001H17.5916H17.5831H17.5746H17.5661H17.5576H17.5491H17.5406H17.5321H17.5236H17.5151H17.5066H17.4981H17.4896H17.4811H17.4726H17.4641H17.4556H17.4471H17.4386H17.4301H17.4216H17.4131H17.4046H17.3961H17.3875H17.379H17.3705H17.362H17.3535H17.345H17.3365H17.328H17.3195H17.311H17.3025H17.294H17.2855H17.277H17.2685H17.26H17.2515H17.243H17.2345H17.226H17.2175H17.209H17.2005H17.192H17.1835H17.175H17.1665H17.158H17.1495H17.141H17.1325H17.124H17.1155H17.107H17.0985H17.09H17.0815H17.073H17.0645H17.056H17.0475H17.039H17.0305H17.022H17.0135H17.005H16.9965H16.988H16.9795H16.971H16.9625H16.954H16.9455H16.937H16.9285H16.92H16.9115H16.903H16.8945H16.886H16.8775H16.869H16.8605H16.852H16.8435H16.835H16.8265H16.818H16.8095H16.801H16.7925H16.784H16.7755H16.767H16.7585H16.75H16.7415H16.733H16.7245H16.716H16.7075H16.6991H16.6906H16.6821H16.6736H16.6651H16.6566H16.6481H16.6396H16.6311H16.6226H16.6141H16.6056H16.5971H16.5886H16.5801H16.5716H16.5631H16.5546H16.5461H16.5376H16.5291H16.5206H16.5121H16.5037H16.4952H16.4867H16.4782H16.4697H16.4612H16.4527H16.4442H16.4357H16.4272H16.4187H16.4102H16.4017H16.3932H16.3847H16.3762H16.3678H16.3593H16.3508H16.3423H16.3338H16.3253H16.3168H16.3083H16.2998H16.2913H16.2828H16.2743H16.2658H16.2574H16.2489H16.2404H16.2319H16.2234H16.2149H16.2064H16.1979H16.1894H16.1809H16.1724H16.164H16.1555H16.147H16.1385H16.13H16.1215H16.113H16.1045H16.096H16.0875H16.0791H16.0706H16.0621H16.0536H16.0451H16.0366H16.0281L16.0198 1.77285C16.0198 1.77285 16.0197 1.77285 16.0197 1.77285H16.0196V1.64785C15.8231 1.64811 15.6329 1.57781 15.4837 1.44975C15.3346 1.32169 15.2362 1.14439 15.2066 0.949977C15.177 0.755567 15.2181 0.556938 15.3224 0.390256C15.4267 0.223575 15.5873 0.0998922 15.7751 0.0416003L18.3586 -0.120361ZM18.3586 -0.120361L16.0814 -0.115745L18.3586 -0.120361Z" fill="#2D6759" stroke="#2D6759" stroke-width="0.25"/>
<path d="M4.6277 23.1297L4.62795 23.1297L6.90957 23.125C7.02162 23.1286 7.1336 23.1164 7.24221 23.0888L7.24225 23.089L7.2485 23.0871C7.46441 23.02 7.64914 22.8779 7.76934 22.6864C7.88955 22.4949 7.93725 22.2667 7.90385 22.0431C7.87045 21.8195 7.75817 21.6153 7.58725 21.4673C7.41634 21.3193 7.19811 21.2374 6.97204 21.2364H6.97151H2.61601H2.60685L2.59778 21.2378C2.48435 21.2545 2.36858 21.2444 2.25978 21.2082C2.15099 21.1721 2.05217 21.1109 1.97127 21.0295C1.89038 20.9482 1.82968 20.8491 1.79404 20.74C1.7584 20.631 1.74882 20.5152 1.76608 20.4018L1.7675 20.3924V20.383V16.4826C1.7675 16.2316 1.6678 15.9909 1.49036 15.8133C1.31292 15.6358 1.07229 15.536 0.821277 15.536C0.570273 15.536 0.329581 15.6358 0.152142 15.8133C-0.025304 15.9909 -0.125 16.2316 -0.125 16.4826L-0.125001 20.5629L-0.124999 20.5634C-0.122433 21.2449 0.149947 21.8975 0.632561 22.3785C1.11517 22.8595 1.76865 23.1297 2.44992 23.1297L4.6277 23.1297Z" fill="#2D6759" stroke="#2D6759" stroke-width="0.25"/>
<path d="M18.3313 23.1296L18.3316 23.1296L20.4854 23.125C20.8294 23.1288 21.1707 23.0637 21.4891 22.9334C21.8078 22.8029 22.0971 22.6098 22.3399 22.3656C22.5827 22.1213 22.774 21.8308 22.9026 21.5113C23.0311 21.1921 23.0943 20.8504 23.0886 20.5064V20.4996V20.4918V20.484V20.4762V20.4683V20.4605V20.4527V20.4449V20.437V20.4292V20.4214V20.4136V20.4057V20.3979V20.3901V20.3823V20.3744V20.3666V20.3588V20.351V20.3431V20.3353V20.3275V20.3197V20.3118V20.304V20.2962V20.2884V20.2806V20.2727V20.2649V20.2571V20.2493V20.2414V20.2336V20.2258V20.218V20.2101V20.2023V20.1945V20.1867V20.1788V20.171V20.1632V20.1554V20.1475V20.1397V20.1319V20.1241V20.1163V20.1084V20.1006V20.0928V20.085V20.0771V20.0693V20.0615V20.0537V20.0458V20.038V20.0302V20.0224V20.0146V20.0067V19.9989V19.9911V19.9833V19.9754V19.9676V19.9598V19.952V19.9442V19.9363V19.9285V19.9207V19.9129V19.905V19.8972V19.8894V19.8816V19.8738V19.8659V19.8581V19.8503V19.8425V19.8346V19.8268V19.819V19.8112V19.8034V19.7955V19.7877V19.7799V19.7721V19.7642V19.7564V19.7486V19.7408V19.733V19.7251V19.7173V19.7095V19.7017V19.6939V19.686V19.6782V19.6704V19.6626V19.6547V19.6469V19.6391V19.6313V19.6235V19.6156V19.6078V19.6V19.5922V19.5844V19.5765V19.5687V19.5609V19.5531V19.5453V19.5374V19.5296V19.5218V19.514V19.5062V19.4983V19.4905V19.4827V19.4749V19.467V19.4592V19.4514V19.4436V19.4358V19.4279V19.4201V19.4123V19.4045V19.3967V19.3888V19.381V19.3732V19.3654V19.3576V19.3497V19.3419V19.3341V19.3263V19.3185V19.3107V19.3028V19.295V19.2872V19.2794V19.2716V19.2637V19.2559V19.2481V19.2403V19.2325V19.2246V19.2168V19.209V19.2012V19.1934V19.1855V19.1777V19.1699V19.1621V19.1543V19.1464V19.1386V19.1308V19.123V19.1152V19.1074V19.0995V19.0917V19.0839V19.0761V19.0683V19.0604V19.0526V19.0448V19.037V19.0292V19.0214V19.0135V19.0057V18.9979V18.9901V18.9823V18.9744V18.9666V18.9588V18.951V18.9432V18.9354V18.9275V18.9197V18.9119V18.9041V18.8963V18.8884V18.8806V18.8728V18.865V18.8572V18.8494V18.8415V18.8337V18.8259V18.8181V18.8103V18.8025V18.7946V18.7868V18.779V18.7712V18.7634V18.7556V18.7477V18.7399V18.7321V18.7243V18.7165V18.7087V18.7008V18.693V18.6852V18.6774V18.6696V18.6617V18.6539V18.6461V18.6383V18.6305V18.6227V18.6149V18.607V18.5992V18.5914V18.5836V18.5758V18.568V18.5601V18.5523V18.5445V18.5367V18.5289V18.5211V18.5132V18.5054V18.4976V18.4898V18.482V18.4742V18.4663V18.4585V18.4507V18.4429V18.4351V18.4273V18.4195V18.4116V18.4038V18.396V18.3882V18.3804V18.3726V18.3647V18.3569V18.3491V18.3413V18.3335V18.3257V18.3179V18.31V18.3022V18.2944V18.2866V18.2788V18.271V18.2631V18.2553V18.2475V18.2397V18.2319V18.2241V18.2163V18.2084V18.2006V18.1928V18.185V18.1772V18.1694V18.1616V18.1537V18.1459V18.1381V18.1303V18.1225V18.1147V18.1069V18.099V18.0912V18.0834V18.0756V18.0678V18.06V18.0522V18.0443V18.0365V18.0287V18.0209V18.0131V18.0053V17.9975V17.9897V17.9818V17.974V17.9662V17.9584V17.9506V17.9428V17.935V17.9271V17.9193V17.9115V17.9037V17.8959V17.8881V17.8803V17.8724V17.8646V17.8568V17.849V17.8412V17.8334V17.8256V17.8178V17.8099V17.8021V17.7943V17.7865V17.7787V17.7709V17.7631V17.7553V17.7474V17.7396V17.7318V17.724V17.7162V17.7084V17.7006V17.6928V17.6849V17.6771V17.6693V17.6615V17.6537V17.6459V17.6381V17.6303V17.6224V17.6146V17.6068V17.599V17.5912V17.5834V17.5756V17.5678V17.56V17.5521V17.5443V17.5365V17.5287V17.5209V17.5131V17.5053V17.4975V17.4897V17.4818V17.474V17.4662V17.4584V17.4506V17.4428V17.435V17.4272V17.4193V17.4115V17.4037V17.3959V17.3881V17.3803V17.3725V17.3647V17.3569V17.3491V17.3412V17.3334V17.3256V17.3178V17.31V17.3022V17.2944V17.2866V17.2788V17.2709V17.2631V17.2553V17.2475V17.2397V17.2319V17.2241V17.2163V17.2085V17.2007V17.1928V17.185V17.1772V17.1694V17.1616V17.1538V17.146V17.1382V17.1304V17.1226V17.1147V17.1069V17.0991V17.0913V17.0835V17.0757V17.0679V17.0601V17.0523V17.0445V17.0366V17.0288V17.021V17.0132V17.0054V16.9976V16.9898V16.982V16.9742V16.9664V16.9586V16.9507V16.9429V16.9351V16.9273V16.9195V16.9117V16.9039V16.8961V16.8883V16.8805V16.8727V16.8649V16.857V16.8492V16.8414V16.8336V16.8258V16.818V16.8102V16.8024V16.7946V16.7868V16.779V16.7712V16.7633V16.7555V16.7477V16.7399V16.7321V16.7243V16.7165V16.7087V16.7009V16.6931V16.6853V16.6775V16.6696V16.6618V16.654V16.6462V16.6384V16.6306V16.6228V16.615V16.6072V16.5994V16.5916V16.5838V16.576V16.5682V16.5603V16.5525V16.5447V16.5369V16.5291V16.5213V16.5135V16.5102C23.0976 16.3819 23.0803 16.2531 23.0379 16.1317C22.9949 16.0087 22.927 15.8959 22.8384 15.8004C22.7498 15.7048 22.6425 15.6287 22.5231 15.5766C22.4038 15.5245 22.275 15.4976 22.1447 15.4976C22.0144 15.4976 21.8855 15.5245 21.7662 15.5766C21.6469 15.6287 21.5395 15.7048 21.4509 15.8004C21.3623 15.8959 21.2945 16.0087 21.2515 16.1317C21.209 16.2531 21.1917 16.3819 21.2007 16.5102V20.3783C21.2007 20.6957 21.1262 20.9028 20.996 21.0322C20.8656 21.1617 20.656 21.2364 20.3337 21.2364H16.0244C15.7734 21.2364 15.5327 21.3361 15.3553 21.5136L15.4426 21.6009L15.3553 21.5136C15.1778 21.6912 15.0781 21.932 15.0781 22.183C15.0781 22.4341 15.1778 22.6748 15.3553 22.8523C15.5327 23.0298 15.7734 23.1296 16.0244 23.1296L18.3313 23.1296Z" fill="#2D6759" stroke="#2D6759" stroke-width="0.25"/>
</g>
<defs>
<clipPath id="clip0_3328_10775">
<rect width="23" height="23" fill="white"/>
</clipPath>
</defs>
</svg>
