<svg xmlns="http://www.w3.org/2000/svg" width="19.99" height="20" viewBox="0 0 19.99 20">
  <g id="scan" transform="translate(-2.01 -2)">
    <path id="Path_25544" data-name="Path 25544" d="M21.25,8.65a.755.755,0,0,1-.75-.75V5.83A2.332,2.332,0,0,0,18.17,3.5H5.84A2.332,2.332,0,0,0,3.51,5.83V7.9a.75.75,0,0,1-1.5,0V5.83A3.837,3.837,0,0,1,5.84,2H18.17A3.837,3.837,0,0,1,22,5.83V7.9A.749.749,0,0,1,21.25,8.65Z" fill="#fff"/>
    <path id="Path_25545" data-name="Path 25545" d="M18.17,22H5.84a3.837,3.837,0,0,1-3.83-3.83V16.11a.75.75,0,1,1,1.5,0v2.06A2.332,2.332,0,0,0,5.84,20.5H18.17a2.332,2.332,0,0,0,2.33-2.33V16.08a.75.75,0,1,1,1.5,0v2.09A3.837,3.837,0,0,1,18.17,22Z" fill="#fff"/>
    <path id="Path_25546" data-name="Path 25546" d="M16.86,8.91v6.17a1.784,1.784,0,0,1-1.78,1.78H8.92a1.784,1.784,0,0,1-1.78-1.78V8.91A1.784,1.784,0,0,1,8.92,7.13h6.16A1.784,1.784,0,0,1,16.86,8.91Z" fill="#fff"/>
  </g>
</svg>
