<svg xmlns="http://www.w3.org/2000/svg" xmlns:xlink="http://www.w3.org/1999/xlink" width="181.448" height="134.465" viewBox="0 0 181.448 134.465">
  <defs>
    <linearGradient id="linear-gradient" x1="0.5" x2="0.5" y2="1" gradientUnits="objectBoundingBox">
      <stop offset="0" stop-color="#00836a"/>
      <stop offset="1" stop-color="#073e39"/>
    </linearGradient>
    <linearGradient id="linear-gradient-6" y1="1" y2="0" xlink:href="#linear-gradient"/>
  </defs>
  <g id="illustration" transform="translate(-71.241 -501.848)">
    <g id="Group_44538" data-name="Group 44538">
      <g id="Group_39521" data-name="Group 39521" transform="translate(-19140.279 12389.131)" opacity="0.272">
        <circle id="Ellipse_1999" data-name="Ellipse 1999" cx="36.154" cy="36.154" r="36.154" transform="translate(19220.949 -11837.161)" fill="url(#linear-gradient)"/>
        <path id="Path_25533" data-name="Path 25533" d="M3.1,6.194A3.1,3.1,0,1,0,0,3.1,3.1,3.1,0,0,0,3.1,6.194Z" transform="translate(19268.502 -11761.53) rotate(39)" fill="url(#linear-gradient)"/>
        <path id="Path_25534" data-name="Path 25534" d="M2.115,4.23A2.115,2.115,0,1,0,0,2.115,2.115,2.115,0,0,0,2.115,4.23Z" transform="translate(19279.158 -11765.926) rotate(39)" fill="url(#linear-gradient)"/>
        <path id="Path_25535" data-name="Path 25535" d="M16.212,8.115a3.928,3.928,0,1,0-3.928-3.928A3.928,3.928,0,0,0,16.212,8.115Z" transform="translate(19199.236 -11819.168)" fill="url(#linear-gradient)"/>
      </g>
      <g id="Group_39533" data-name="Group 39533" transform="matrix(0.545, -0.839, 0.839, 0.545, 215.676, 524.288)" opacity="0.272">
        <circle id="Ellipse_1999-2" data-name="Ellipse 1999" cx="13.378" cy="13.378" r="13.378" transform="translate(0)" fill="url(#linear-gradient)"/>
        <path id="Path_25533-2" data-name="Path 25533" d="M1.146,0A1.146,1.146,0,1,1,0,1.146,1.146,1.146,0,0,1,1.146,0Z" transform="translate(10.603 29.767) rotate(141)" fill="url(#linear-gradient-6)"/>
        <path id="Path_25534-2" data-name="Path 25534" d="M.783,0A.783.783,0,1,1,0,.783.783.783,0,0,1,.783,0Z" transform="translate(6.202 27.576) rotate(141)" fill="url(#linear-gradient-6)"/>
        <path id="Path_25535-2" data-name="Path 25535" d="M13.737,3.166a1.454,1.454,0,1,1,1.454-1.454A1.454,1.454,0,0,1,13.737,3.166Z" transform="translate(15.054 6.495)" fill="url(#linear-gradient)"/>
      </g>
      <path id="Path_118453" data-name="Path 118453" d="M412.185,189.951a94.661,94.661,0,0,1-46.929-13.011,1.673,1.673,0,0,0-1.832,0,94.446,94.446,0,0,1-46.928,13.01,1.674,1.674,0,0,0-1.674,1.674v69.408a1.658,1.658,0,0,0,.1.574c.365,1,9.408,24.761,48.8,40.3a1.675,1.675,0,0,0,1.229,0c39.4-15.543,48.437-39.3,48.8-40.3a1.669,1.669,0,0,0,.1-.574V191.625A1.674,1.674,0,0,0,412.185,189.951Z" transform="translate(-184.598 330.32)" fill="#f6f2ed"/>
      <g id="Group_44532" data-name="Group 44532" transform="translate(128.042 506.988)">
        <g id="Group_44522" data-name="Group 44522" transform="translate(4.065 2.928)">
          <path id="Path_118450" data-name="Path 118450" d="M431.329,217a137,137,0,0,1-46.545-13.935A137,137,0,0,1,338.24,217v71.3c3.146,5.906,14.912,23.988,46.544,37.738,31.644-13.753,43.4-31.829,46.545-37.73Z" transform="translate(-338.24 -203.063)" fill="url(#linear-gradient)"/>
        </g>
        <g id="Group_44520" data-name="Group 44520" transform="translate(0 0)">
          <g id="Group_44519" data-name="Group 44519" transform="translate(0 0)">
            <path id="Path_118449" data-name="Path 118449" d="M414.329,190.244a96.746,96.746,0,0,1-47.962-13.3,1.71,1.71,0,0,0-1.872,0,96.527,96.527,0,0,1-47.962,13.3,1.711,1.711,0,0,0-1.711,1.711v70.937a1.694,1.694,0,0,0,.1.586c.373,1.026,9.615,25.306,49.877,41.191a1.712,1.712,0,0,0,1.256,0c40.263-15.885,49.5-40.165,49.877-41.191a1.706,1.706,0,0,0,.1-.586V191.955A1.711,1.711,0,0,0,414.329,190.244Zm-1.711,72.32c-.512,1.229-2.988,6.673-9.155,13.524-6.4,7.1-18.167,17.2-38.032,25.149-36.029-14.418-46.095-36.082-47.187-38.675V193.65a99.393,99.393,0,0,0,47.187-13.256,99.4,99.4,0,0,0,47.187,13.256v68.914Z" transform="translate(-314.822 -176.668)" fill="#002c27" stroke="#f5f2ed" stroke-linejoin="round" stroke-width="1"/>
          </g>
        </g>
      </g>
      <g id="Group_44537" data-name="Group 44537" transform="translate(157.234 548.251)">
        <g id="Ellipse_2423" data-name="Ellipse 2423" transform="translate(0.948 1.146)" fill="#f5f2ed" stroke="#707070" stroke-width="1">
          <circle cx="20.384" cy="20.384" r="20.384" stroke="none"/>
          <circle cx="20.384" cy="20.384" r="19.884" fill="none"/>
        </g>
        <g id="Group_44536" data-name="Group 44536">
          <g id="Group_44533" data-name="Group 44533">
            <g id="Path_118416" data-name="Path 118416" transform="translate(-376.606 -66.432)" fill="#002c27">
              <path d="M 398.0230407714844 109.7659759521484 C 385.9379577636719 109.7659759521484 376.1060180664062 99.93405151367188 376.1060180664062 87.84898376464844 C 376.1060180664062 75.763916015625 385.9379577636719 65.93199157714844 398.0230407714844 65.93199157714844 C 410.1081237792969 65.93199157714844 419.9400329589844 75.76405334472656 419.9400329589844 87.84930419921875 C 419.9400329589844 99.93419647216797 410.1081237792969 109.7659759521484 398.0230407714844 109.7659759521484 Z M 398.0230407714844 69.26455688476562 C 387.7755126953125 69.26455688476562 379.4385375976562 77.60149383544922 379.4385375976562 87.84898376464844 C 379.4385375976562 98.09647369384766 387.7755126953125 106.4334259033203 398.0230407714844 106.4334259033203 C 408.2705078125 106.4334259033203 416.607421875 98.09647369384766 416.607421875 87.84898376464844 C 416.607421875 77.60149383544922 408.2705078125 69.26455688476562 398.0230407714844 69.26455688476562 Z" stroke="none"/>
              <path d="M 398.0230407714844 109.2659759521484 C 409.8319702148438 109.2659759521484 419.4400329589844 99.65859222412109 419.4400329589844 87.84930419921875 C 419.4400329589844 76.04001617431641 409.8319702148438 66.43199157714844 398.0230407714844 66.43199157714844 C 386.2139892578125 66.43199157714844 376.6060180664062 76.03969573974609 376.6060180664062 87.84898376464844 C 376.6060180664062 99.65827178955078 386.2139892578125 109.2659759521484 398.0230407714844 109.2659759521484 M 398.0230407714844 68.76455688476562 C 408.5465698242188 68.76455688476562 417.107421875 77.32603454589844 417.107421875 87.84898376464844 C 417.107421875 98.37194061279297 408.5465698242188 106.9334259033203 398.0230407714844 106.9334259033203 C 387.4993896484375 106.9334259033203 378.9385375976562 98.37194061279297 378.9385375976562 87.84898376464844 C 378.9385375976562 77.32605743408203 387.4993896484375 68.76455688476562 398.0230407714844 68.76455688476562 M 398.0230407714844 110.2659759521484 C 385.6622619628906 110.2659759521484 375.6060180664062 100.2097549438477 375.6060180664062 87.84898376464844 C 375.6060180664062 75.48821258544922 385.6622619628906 65.43199157714844 398.0230407714844 65.43199157714844 C 410.3838195800781 65.43199157714844 420.4400329589844 75.48835754394531 420.4400329589844 87.84930419921875 C 420.4400329589844 100.2098922729492 410.3838195800781 110.2659759521484 398.0230407714844 110.2659759521484 Z M 398.0230407714844 69.76455688476562 C 388.0512084960938 69.76455688476562 379.9385375976562 77.877197265625 379.9385375976562 87.84898376464844 C 379.9385375976562 97.82077026367188 388.0512084960938 105.9334259033203 398.0230407714844 105.9334259033203 C 407.9948120117188 105.9334259033203 416.107421875 97.82077026367188 416.107421875 87.84898376464844 C 416.107421875 77.877197265625 407.9948120117188 69.76455688476562 398.0230407714844 69.76455688476562 Z" stroke="none" fill="#f6f2ed"/>
            </g>
          </g>
          <g id="Group_44534" data-name="Group 44534" transform="translate(10.659 10.66)">
            <circle id="Ellipse_2420" data-name="Ellipse 2420" cx="10.758" cy="10.758" r="10.758" transform="translate(0 0)" fill="#00836a"/>
          </g>
          <g id="Group_44535" data-name="Group 44535" transform="translate(6.151 6.151)">
            <path id="Path_118417" data-name="Path 118417" d="M412.575,116.357l-.19-2.325a12.951,12.951,0,0,0,2.107-.349l.571,2.261A15.284,15.284,0,0,1,412.575,116.357Zm-2.519,0a15.275,15.275,0,0,1-2.488-.413l.571-2.261a12.977,12.977,0,0,0,2.107.349Zm7.393-1.231-.937-2.136a12.869,12.869,0,0,0,1.875-1.017l1.278,1.951A15.231,15.231,0,0,1,417.45,115.126Zm-12.268,0a15.252,15.252,0,0,1-2.218-1.2l1.278-1.951a12.852,12.852,0,0,0,1.877,1.018Zm16.473-2.751-1.581-1.715a12.986,12.986,0,0,0,1.448-1.572l1.84,1.433A15.436,15.436,0,0,1,421.655,112.374Zm-20.68,0a15.418,15.418,0,0,1-1.707-1.855l1.84-1.433a12.96,12.96,0,0,0,1.448,1.572Zm23.769-3.962-2.05-1.111a12.915,12.915,0,0,0,.859-1.956l2.206.757A15.273,15.273,0,0,1,424.743,108.41Zm-26.856,0a15.147,15.147,0,0,1-1.014-2.309l2.206-.756a12.805,12.805,0,0,0,.857,1.954Zm-1.632-4.754c-.137-.827-.206-2.513-.206-2.513l2.332,0s.058,1.428.174,2.129Zm30.121,0-2.3-.38a13.09,13.09,0,0,0,.175-2.132h2.332A15.54,15.54,0,0,1,426.376,103.653Zm-2.3-4.641a12.913,12.913,0,0,0-.523-2.07l2.206-.757a15.169,15.169,0,0,1,.617,2.446Zm-25.519,0-2.3-.38a15.194,15.194,0,0,1,.617-2.446l2.206.757A12.871,12.871,0,0,0,398.556,99.011Zm24.138-4.023a13.014,13.014,0,0,0-1.17-1.787l1.84-1.433a15.382,15.382,0,0,1,1.379,2.109Zm-22.756,0-2.05-1.112a15.424,15.424,0,0,1,1.38-2.11l1.84,1.433A13.059,13.059,0,0,0,399.938,94.985Zm20.139-3.357a13.079,13.079,0,0,0-1.686-1.314l1.277-1.951a15.4,15.4,0,0,1,1.989,1.55Zm-17.52,0-1.579-1.716a15.2,15.2,0,0,1,1.989-1.549l1.276,1.952A13.032,13.032,0,0,0,402.557,91.625Zm13.956-2.33a12.793,12.793,0,0,0-2.021-.693l.571-2.262a15.213,15.213,0,0,1,2.389.82Zm-10.392,0-.938-2.136a15.2,15.2,0,0,1,2.388-.819l.569,2.262A12.89,12.89,0,0,0,406.121,89.294Zm6.263-1.042a8.451,8.451,0,0,0-1.082-.044q-.534,0-1.055.043l-.191-2.325c.418-.034.866-.05,1.26-.051.424,0,.844.017,1.259.051Z" transform="translate(-396.05 -85.876)" fill="#002c27"/>
          </g>
          <path id="Path_118452" data-name="Path 118452" d="M6.049-25.046H2.132v-.441a3.753,3.753,0,0,1,.547-.238q.282-.1.618-.185v-6.934l-1.164-.141v-.459a8.792,8.792,0,0,1,1.112-.371q.6-.159,1.2-.265h.441v8.169q.353.088.635.185a3.086,3.086,0,0,1,.529.238ZM2.961-36.867a.978.978,0,0,1,.309-.759,1.169,1.169,0,0,1,.82-.282,1.136,1.136,0,0,1,.812.282.992.992,0,0,1,.3.759.964.964,0,0,1-.3.75,1.159,1.159,0,0,1-.812.273,1.192,1.192,0,0,1-.82-.273A.95.95,0,0,1,2.961-36.867Z" transform="translate(17.327 52.869)" fill="#f6f2ed" stroke="#f6f2ed" stroke-width="1"/>
        </g>
      </g>
    </g>
  </g>
</svg>
