<svg xmlns="http://www.w3.org/2000/svg" xmlns:xlink="http://www.w3.org/1999/xlink" width="65.648" height="20.988" viewBox="0 0 65.648 20.988">
  <defs>
    <clipPath id="clip-path">
      <rect id="Rectangle_8170" data-name="Rectangle 8170" width="65.648" height="20.988" fill="#ee7b30"/>
    </clipPath>
  </defs>
  <g id="seedsignerlogo" clip-path="url(#clip-path)">
    <path id="Path_117589" data-name="Path 117589" d="M32.817,20.982c-7.544,0-15.089.02-22.633-.008a9.639,9.639,0,0,1-8.59-4.853A10.476,10.476,0,0,1,3.468,2.784,10.174,10.174,0,0,1,10.524.01Q33.006-.015,55.488,0a9.512,9.512,0,0,1,6.7,2.662,10.542,10.542,0,0,1,3.433,8.765,10.292,10.292,0,0,1-7.945,9.325,8.68,8.68,0,0,1-1.957.227h-22.9M18.939,19.452c3.118,0,6.236,0,9.354.007.3,0,.387-.063.386-.377q-.016-8.592,0-17.183c0-.319-.1-.374-.389-.373q-8.818.012-17.636,0A9.568,9.568,0,0,0,8.369,1.8,8.979,8.979,0,0,0,2.482,14.874a8.359,8.359,0,0,0,7.639,4.57c2.939.038,5.879.008,8.818.008m28.915-8.6c-.127-.028-.153-.108-.2-.168-.646-.866-1.307-1.721-1.929-2.6a1.049,1.049,0,0,0-1.092-.464c-.285.035-.46.177-.461.471q-.007,2.422,0,4.844a.44.44,0,0,0,.39.464c.709.165,1.015-.062,1.019-.785,0-.523,0-1.047,0-1.57v-.811a.739.739,0,0,1,.273.28c.667.878,1.33,1.759,2,2.636a.946.946,0,0,0,1.068.233c.354-.11.34-.394.34-.676q0-2.222,0-4.443c0-.5-.159-.644-.707-.648s-.7.132-.7.649c0,.857,0,1.714,0,2.594m-4.516.582h-.023c0-.334.018-.669,0-1-.027-.4-.169-.522-.575-.53-.48-.009-.961-.008-1.441,0-.413.006-.525.128-.537.548-.015.516.1.633.613.634.123,0,.246,0,.369,0,.064,0,.153-.01.156.08a2.317,2.317,0,0,1-.02.729c-.052.166-.309.121-.477.16a.642.642,0,0,1-.067.007,1.6,1.6,0,0,1-1.614-.953,1.562,1.562,0,0,1,.416-1.847,1.657,1.657,0,0,1,1.933-.045c.355.253.645.118.942-.352.232-.366.184-.576-.192-.835a2.97,2.97,0,0,0-4.568,3.193A3,3,0,0,0,42.1,13.368c1.033-.307,1.324-.689,1.238-1.6-.01-.11,0-.223,0-.334m6.748-.934c0,.757-.005,1.515,0,2.272,0,.452.158.641.584.647,1.15.015,2.3.012,3.451,0,.352,0,.495-.167.52-.523a2.54,2.54,0,0,0-.007-.465.411.411,0,0,0-.407-.408c-.144-.01-.289-.026-.434-.027-.67,0-1.34-.008-2.01,0-.2,0-.293-.057-.265-.264a.584.584,0,0,0,0-.167c-.043-.267.043-.378.337-.356.367.027.737.007,1.105.007.719,0,.835-.121.813-.841-.013-.416-.154-.558-.57-.562s-.8,0-1.206,0c-.529-.006-.46.088-.482-.481-.01-.243.049-.325.309-.318.748.018,1.5.015,2.245,0,.455-.009.6-.208.589-.737s-.14-.667-.609-.669q-1.625,0-3.25,0c-.559,0-.708.152-.711.719,0,.724,0,1.448,0,2.172m5.414-.018c0,.734,0,1.469,0,2.2,0,.6.26.816.86.726.439-.066.55-.191.556-.635,0-.256.007-.512,0-.768-.005-.145.045-.2.191-.191.268.009.536.014.8,0a.3.3,0,0,1,.346.225c.14.362.3.717.458,1.07s.393.435.824.266c.5-.2.632-.388.486-.78-.139-.373-.3-.739-.47-1.1a.447.447,0,0,1,.063-.533,2.028,2.028,0,0,0,.185-2.2,1.973,1.973,0,0,0-1.823-1.147c-.624-.024-1.25-.009-1.875,0-.455,0-.6.149-.6.6,0,.757,0,1.514,0,2.27m-22.79,3.009a2.06,2.06,0,0,0,2.317-1.66,1.512,1.512,0,0,0-1.059-1.8c-.168-.058-.341-.1-.513-.146-.258-.066-.522-.113-.775-.2-.224-.073-.411-.221-.366-.488s.263-.357.516-.388a.98.98,0,0,1,.721.282c.342.254.64.188.916-.176.323-.426.313-.635-.052-.936A2.46,2.46,0,0,0,32.622,7.5a1.765,1.765,0,0,0-1.66,2.288,1.449,1.449,0,0,0,.792.937,9.477,9.477,0,0,0,1.456.474c.229.071.43.193.384.5a.528.528,0,0,1-.5.461.765.765,0,0,1-.635-.135c-.174-.138-.334-.294-.506-.433a.561.561,0,0,0-.859.027c-.355.336-.393.581-.139.931a2.217,2.217,0,0,0,1.75.944m3.159-2.982c0,.768-.005,1.536,0,2.3,0,.434.189.6.654.611.541.016.735-.113.75-.566.049-1.591.046-3.182,0-4.773a.394.394,0,0,0-.1-.309,1.046,1.046,0,0,0-.985-.124c-.3.064-.325.327-.325.585q0,1.135,0,2.271" transform="translate(0 0)" fill="#ee7b30"/>
    <path id="Path_117590" data-name="Path 117590" d="M321.622,114.549a8.494,8.494,0,0,1,1.17.05,2.9,2.9,0,0,1,2.365,2.729A2.964,2.964,0,0,1,323,120.273a7.661,7.661,0,0,1-1.9.091c-1,.011-1.05-.043-1.05-1.051q0-1.97,0-3.94c0-.718.11-.823.836-.823h.735m-.133,2.886v.8c0,.75,0,.75.766.718a1.56,1.56,0,0,0,1.447-1.173,1.513,1.513,0,0,0-.852-1.68,2.757,2.757,0,0,0-1.116-.141c-.188-.006-.254.05-.248.242.013.411,0,.822,0,1.233" transform="translate(-298.583 -106.865)" fill="#ee7b30"/>
    <path id="Path_117591" data-name="Path 117591" d="M159.049,117.432c0-.7,0-1.4,0-2.1,0-.645.148-.789.785-.79q1.574,0,3.149,0c.488,0,.656.188.655.714,0,.505-.166.694-.635.7-.737.006-1.474.014-2.211,0-.258-.006-.345.072-.308.318a.975.975,0,0,1,0,.267c-.024.186.067.22.231.217.48-.008.96-.006,1.44,0,.442,0,.6.182.606.689.01.486-.157.7-.581.715-.469.014-.938.021-1.406,0-.242-.009-.322.074-.29.3a.8.8,0,0,1,0,.233c-.038.234.079.27.283.267.737-.01,1.474,0,2.211,0,.5,0,.66.177.66.7s-.169.7-.663.7q-1.608,0-3.216,0c-.548,0-.7-.14-.708-.686-.01-.746,0-1.492,0-2.238" transform="translate(-148.378 -106.855)" fill="#ee7b30"/>
    <path id="Path_117592" data-name="Path 117592" d="M239.624,117.448c0-.746,0-1.492,0-2.238,0-.515.17-.684.683-.686q1.642-.006,3.283,0c.45,0,.6.178.6.685.005.546-.127.719-.592.724-.748.009-1.5.013-2.245,0-.244,0-.358.052-.318.311a.972.972,0,0,1,0,.267c-.022.18.057.227.229.224.48-.009.96-.006,1.441,0,.455,0,.606.171.612.674.007.536-.134.72-.591.732s-.938.016-1.407,0c-.214-.006-.316.049-.284.276a.953.953,0,0,1,0,.267c-.031.212.061.261.262.258.759-.011,1.519-.006,2.278,0,.475,0,.613.161.613.7s-.148.7-.615.7q-1.642,0-3.283,0c-.516,0-.669-.158-.672-.686,0-.735,0-1.47,0-2.2" transform="translate(-223.55 -106.839)" fill="#ee7b30"/>
    <path id="Path_117593" data-name="Path 117593" d="M85.691,119.037a2.334,2.334,0,0,1-2.051-.954c-.243-.335-.2-.577.138-.906a.553.553,0,0,1,.855-.051c.165.131.313.285.478.417a.863.863,0,0,0,.793.135.51.51,0,0,0,.4-.482c.025-.23-.136-.345-.318-.418a2.827,2.827,0,0,0-.511-.149,4.871,4.871,0,0,1-.917-.3,1.508,1.508,0,0,1-.975-1.429,1.659,1.659,0,0,1,.8-1.555,2.57,2.57,0,0,1,2.766.217c.291.252.316.446.1.786-.269.424-.538.548-.871.386a1.512,1.512,0,0,1-.3-.21.689.689,0,0,0-.5-.164c-.248.017-.506.07-.563.373s.149.458.4.532c.383.114.778.189,1.165.291a1.377,1.377,0,0,1,1.127,1.212,1.8,1.8,0,0,1-.724,1.854,2.157,2.157,0,0,1-1.3.419" transform="translate(-77.886 -105.454)" fill="#ee7b30"/>
    <path id="Path_117594" data-name="Path 117594" d="M848.53,135.142c0-.686,0-.686.694-.686.112,0,.224-.006.335,0a.664.664,0,0,1,.651.6.647.647,0,0,1-.509.751,4.63,4.63,0,0,1-1.034.046c-.13.007-.139-.077-.138-.174,0-.178,0-.357,0-.535" transform="translate(-791.613 -125.436)" fill="#ee7b30"/>
  </g>
</svg>
