<svg width="136" height="117" viewBox="0 0 136 117" fill="none" xmlns="http://www.w3.org/2000/svg">
<path opacity="0.4" d="M105.651 101.244C105.679 101.131 105.749 101.033 105.847 100.97C105.945 100.907 106.064 100.883 106.178 100.904C106.293 100.926 106.395 100.99 106.464 101.084C106.533 101.178 106.564 101.294 106.55 101.41C106.536 101.526 106.478 101.632 106.388 101.706C106.299 101.781 106.184 101.819 106.068 101.812C105.952 101.805 105.842 101.754 105.762 101.669C105.682 101.585 105.637 101.473 105.637 101.356C105.637 101.318 105.642 101.281 105.651 101.244ZM107.324 102.656C107.457 102.656 107.587 102.696 107.698 102.77C107.808 102.843 107.894 102.948 107.945 103.071C107.996 103.194 108.009 103.329 107.983 103.46C107.957 103.59 107.893 103.71 107.799 103.804C107.705 103.898 107.586 103.962 107.455 103.988C107.325 104.014 107.19 104 107.067 103.949C106.944 103.899 106.839 103.812 106.765 103.702C106.692 103.591 106.652 103.461 106.652 103.328C106.652 103.24 106.669 103.153 106.703 103.071C106.737 102.99 106.787 102.916 106.849 102.853C106.975 102.727 107.146 102.656 107.324 102.656ZM122.35 100.698C122.519 100.698 122.683 100.749 122.823 100.842C122.963 100.936 123.072 101.069 123.137 101.225C123.201 101.381 123.218 101.552 123.185 101.717C123.152 101.882 123.07 102.034 122.951 102.153C122.832 102.272 122.68 102.353 122.515 102.386C122.349 102.419 122.178 102.402 122.022 102.337C121.867 102.272 121.734 102.163 121.64 102.023C121.547 101.883 121.497 101.718 121.497 101.549C121.497 101.437 121.519 101.327 121.562 101.223C121.605 101.12 121.668 101.026 121.747 100.947C121.826 100.868 121.92 100.805 122.024 100.763C122.127 100.72 122.238 100.698 122.35 100.698Z" fill="url(#paint0_linear_1644_6041)"/>
<path opacity="0.4" d="M106.652 96.1585C106.652 100.489 110.162 103.999 114.492 103.999C118.822 103.999 122.332 100.489 122.332 96.1585C122.332 91.8285 118.822 88.3184 114.492 88.3184C110.162 88.3184 106.652 91.8285 106.652 96.1585Z" fill="url(#paint1_linear_1644_6041)"/>
<path opacity="0.4" d="M6.63871 35.1885C6.63871 46.8905 16.1251 56.3769 27.8272 56.3769C39.5292 56.3769 49.0156 46.8905 49.0156 35.1885C49.0156 23.4864 39.5292 14 27.8272 14C16.1251 14 6.63871 23.4864 6.63871 35.1885Z" fill="url(#paint2_linear_1644_6041)"/>
<path opacity="0.4" d="M3.69525 29.3325C4.05422 29.3325 4.40512 29.439 4.7036 29.6384C5.00207 29.8378 5.2347 30.1213 5.37208 30.4529C5.50945 30.7846 5.54539 31.1495 5.47536 31.5016C5.40533 31.8537 5.23247 32.1771 4.97864 32.4309C4.72481 32.6847 4.40141 32.8576 4.04933 32.9276C3.69726 32.9977 3.33232 32.9617 3.00068 32.8243C2.66903 32.687 2.38557 32.4543 2.18614 32.1559C1.98671 31.8574 1.88026 31.5065 1.88026 31.1475C1.88026 30.6661 2.07148 30.2045 2.41185 29.8641C2.75223 29.5237 3.21388 29.3325 3.69525 29.3325ZM3.60813 35.6806C3.85333 35.6806 4.09302 35.7533 4.29688 35.8896C4.50074 36.0258 4.65962 36.2194 4.75341 36.446C4.84721 36.6725 4.87171 36.9218 4.82382 37.1623C4.77592 37.4027 4.65779 37.6236 4.48435 37.7969C4.31092 37.9703 4.08997 38.0883 3.84947 38.136C3.60896 38.1837 3.3597 38.1591 3.13322 38.0651C2.90673 37.9712 2.71319 37.8122 2.57708 37.6082C2.44098 37.4043 2.36841 37.1646 2.36857 36.9194C2.36878 36.5907 2.49947 36.2757 2.73191 36.0434C2.96435 35.8111 3.27952 35.6806 3.60813 35.6806ZM48.5041 19.042C48.9595 19.042 49.4047 19.177 49.7833 19.43C50.162 19.683 50.4571 20.0426 50.6314 20.4634C50.8056 20.8841 50.8512 21.347 50.7624 21.7937C50.6736 22.2403 50.4543 22.6506 50.1323 22.9726C49.8102 23.2946 49.4 23.5139 48.9533 23.6028C48.5067 23.6916 48.0437 23.646 47.623 23.4717C47.2023 23.2975 46.8427 23.0023 46.5897 22.6237C46.3367 22.2451 46.2016 21.7999 46.2016 21.3445C46.2016 20.7338 46.4442 20.1482 46.876 19.7164C47.3078 19.2846 47.8935 19.042 48.5041 19.042Z" fill="url(#paint3_linear_1644_6041)"/>
<path d="M119.258 36.4141L22.1195 36.4141C19.5003 36.4141 17.377 38.2031 17.377 40.4101V89.1007C17.377 91.3076 19.5003 93.0967 22.1195 93.0967H119.258C121.877 93.0967 124 91.3076 124 89.1007V40.4101C124 38.2031 121.877 36.4141 119.258 36.4141Z" fill="#F6F2ED"/>
<path d="M119.259 37.0137L22.121 37.0137C19.8946 37.0137 18.0898 38.5344 18.0898 40.4103V89.1009C18.0898 90.9768 19.8946 92.4975 22.121 92.4975H119.259C121.486 92.4975 123.29 90.9768 123.29 89.1009V40.4103C123.29 38.5344 121.486 37.0137 119.259 37.0137Z" stroke="#272421" stroke-width="1.5"/>
<path d="M113.515 41.9639L26.5904 41.9639C24.3314 41.9639 22.5 43.4722 22.5 45.3329V84.1494C22.5 86.0101 24.3314 87.5184 26.5904 87.5184H113.515C115.774 87.5184 117.605 86.0101 117.605 84.1494V45.3329C117.605 43.4722 115.774 41.9639 113.515 41.9639Z" stroke="#272421" stroke-width="1.5" stroke-dasharray="1.5 2"/>
<rect x="108.553" y="49.8574" width="30.2543" height="75.7605" rx="15.1272" transform="rotate(90 108.553 49.8574)" stroke="#272421" stroke-width="3"/>
<path d="M93.4256 48.3574C102.608 48.3574 110.053 55.8017 110.053 64.9846C110.053 74.1675 102.608 81.6117 93.4256 81.6117H80.77V48.3574L93.4256 48.3574Z" fill="#272421"/>
<path d="M47.9201 48.3574C38.7372 48.3574 31.293 55.8017 31.293 64.9846C31.293 74.1675 38.7372 81.6117 47.9201 81.6117H55.527V48.3574L47.9201 48.3574Z" fill="#272421"/>
<ellipse cx="94.9063" cy="64.5104" rx="4.75062" ry="5.04875" transform="rotate(90 94.9063 64.5104)" fill="#F6F2ED"/>
<rect x="50.4785" y="55.957" width="4.75062" height="10.0975" rx="2.37531" transform="rotate(90 50.4785 55.957)" fill="#F6F2ED"/>
<rect x="50.4785" y="62.6094" width="4.75062" height="10.0975" rx="2.37531" transform="rotate(90 50.4785 62.6094)" fill="#F6F2ED"/>
<rect x="50.4785" y="69.2598" width="4.75062" height="10.0975" rx="2.37531" transform="rotate(90 50.4785 69.2598)" fill="#F6F2ED"/>
<rect x="102.75" y="14.75" width="32.1559" height="32.1558" rx="16.0779" fill="url(#paint4_linear_1644_6041)"/>
<rect x="102.75" y="14.75" width="32.1559" height="32.1558" rx="16.0779" stroke="#F9F4F0" stroke-width="1.5"/>
<path d="M123.961 26L116.338 33.323L112.838 29.7232L111 31.4202L115.387 35.9331C115.503 36.0522 115.642 36.1476 115.796 36.2137C115.95 36.2798 116.116 36.3154 116.284 36.3182H116.306C116.638 36.318 116.957 36.1903 117.193 35.9628L125.74 27.7565L123.961 26Z" fill="#F6F2ED"/>
<defs>
<linearGradient id="paint0_linear_1644_6041" x1="123.201" y1="102.349" x2="105.637" y2="102.349" gradientUnits="userSpaceOnUse">
<stop stop-color="#58A4A4"/>
<stop offset="1" stop-color="#073E39"/>
</linearGradient>
<linearGradient id="paint1_linear_1644_6041" x1="122.332" y1="96.1585" x2="106.652" y2="96.1585" gradientUnits="userSpaceOnUse">
<stop stop-color="#58A4A4"/>
<stop offset="1" stop-color="#073E39"/>
</linearGradient>
<linearGradient id="paint2_linear_1644_6041" x1="49.0156" y1="35.1885" x2="6.63871" y2="35.1885" gradientUnits="userSpaceOnUse">
<stop stop-color="#58A4A4"/>
<stop offset="1" stop-color="#073E39"/>
</linearGradient>
<linearGradient id="paint3_linear_1644_6041" x1="50.8066" y1="28.6009" x2="1.88026" y2="28.6009" gradientUnits="userSpaceOnUse">
<stop stop-color="#58A4A4"/>
<stop offset="1" stop-color="#073E39"/>
</linearGradient>
<linearGradient id="paint4_linear_1644_6041" x1="118.828" y1="14" x2="118.828" y2="47.6558" gradientUnits="userSpaceOnUse">
<stop stop-color="#58A4A4"/>
<stop offset="1" stop-color="#073E39"/>
</linearGradient>
</defs>
</svg>
