<svg xmlns="http://www.w3.org/2000/svg" xmlns:xlink="http://www.w3.org/1999/xlink" width="39.176" height="36" viewBox="0 0 39.176 36">
  <defs>
    <linearGradient id="linear-gradient" x1="0.157" y1="0.247" x2="0.87" y2="0.724" gradientUnits="objectBoundingBox">
      <stop offset="0" stop-color="#00836a"/>
      <stop offset="1" stop-color="#073e39"/>
    </linearGradient>
    <clipPath id="clip-path">
      <rect id="Rectangle_7388" data-name="Rectangle 7388" width="7" height="9.922" transform="translate(0 0)" fill="#fffcfa"/>
    </clipPath>
  </defs>
  <g id="seedsigner" transform="translate(-44 -496)">
    <path id="hexagontile3" d="M21.819,0a5,5,0,0,1,4.327,2.495l5.339,9.222a5,5,0,0,1,0,5.01L26.146,25.95a5,5,0,0,1-4.327,2.495h-10.7A5,5,0,0,1,6.79,25.95L1.45,16.728a5,5,0,0,1,0-5.01L6.79,2.495A5,5,0,0,1,11.117,0Z" transform="matrix(0.966, 0.259, -0.259, 0.966, 51.362, 496)" fill="url(#linear-gradient)"/>
    <g id="Group_38493" data-name="Group 38493" transform="translate(1.088)">
      <g id="Group_38491" data-name="Group 38491" transform="translate(55 509.038)">
        <g id="Group_38490" data-name="Group 38490" transform="translate(0 0.001)" clip-path="url(#clip-path)">
          <path id="Path_24045" data-name="Path 24045" d="M3.46,9.92A3.817,3.817,0,0,1,.221,8.272c-.366-.532-.284-.9.3-1.467a.878.878,0,0,1,1.32-.1,6.849,6.849,0,0,1,.6.553,1.539,1.539,0,0,0,1.456.43.848.848,0,0,0,.72-.76.655.655,0,0,0-.535-.761C3.573,6,3.036,5.885,2.516,5.72a3.892,3.892,0,0,1-1.5-.755A2.639,2.639,0,0,1,.27,2.152,2.682,2.682,0,0,1,2.38.133a4.2,4.2,0,0,1,3.475.6c.754.536.783.89.195,1.65A.973.973,0,0,1,4.4,2.556a1.289,1.289,0,0,0-1.32-.311.687.687,0,0,0-.553.6.7.7,0,0,0,.445.733A9.185,9.185,0,0,0,4.7,4.029c1.6.453,2.227,1.1,2.291,2.418A2.953,2.953,0,0,1,4.917,9.659a3.691,3.691,0,0,1-1.457.26" transform="translate(0 0)" fill="#fffcfa"/>
        </g>
      </g>
      <g id="Group_38492" data-name="Group 38492" transform="translate(63 509.038)">
        <g id="Group_38490-2" data-name="Group 38490" transform="translate(0 0.001)" clip-path="url(#clip-path)">
          <path id="Path_24045-2" data-name="Path 24045" d="M3.46,9.92A3.817,3.817,0,0,1,.221,8.272c-.366-.532-.284-.9.3-1.467a.878.878,0,0,1,1.32-.1,6.849,6.849,0,0,1,.6.553,1.539,1.539,0,0,0,1.456.43.848.848,0,0,0,.72-.76.655.655,0,0,0-.535-.761C3.573,6,3.036,5.885,2.516,5.72a3.892,3.892,0,0,1-1.5-.755A2.639,2.639,0,0,1,.27,2.152,2.682,2.682,0,0,1,2.38.133a4.2,4.2,0,0,1,3.475.6c.754.536.783.89.195,1.65A.973.973,0,0,1,4.4,2.556a1.289,1.289,0,0,0-1.32-.311.687.687,0,0,0-.553.6.7.7,0,0,0,.445.733A9.185,9.185,0,0,0,4.7,4.029c1.6.453,2.227,1.1,2.291,2.418A2.953,2.953,0,0,1,4.917,9.659a3.691,3.691,0,0,1-1.457.26" transform="translate(0 0)" fill="#fffcfa"/>
        </g>
      </g>
    </g>
  </g>
</svg>
