<svg width="24" height="10" viewBox="0 0 24 10" fill="none" xmlns="http://www.w3.org/2000/svg">
<path d="M24 5.00005C23.9987 6.27268 23.4925 7.49281 22.5927 8.3927C21.6928 9.29259 20.4726 9.79873 19.2 9.80005H4.8C3.52696 9.80005 2.30606 9.29434 1.40589 8.39416C0.505713 7.49399 0 6.27309 0 5.00005C0 3.72701 0.505713 2.50611 1.40589 1.60594C2.30606 0.705761 3.52696 0.200048 4.8 0.200048L19.2 0.200048C20.4726 0.201372 21.6928 0.70751 22.5927 1.6074C23.4925 2.50729 23.9987 3.72742 24 5.00005ZM17.371 3.11005C17.3713 3.3171 17.4536 3.5156 17.6 3.66201C17.7465 3.80842 17.9449 3.89078 18.152 3.89105H18.932C19.1391 3.89105 19.3378 3.80877 19.4843 3.6623C19.6307 3.51583 19.713 3.31718 19.713 3.11005C19.713 2.90291 19.6307 2.70426 19.4843 2.5578C19.3378 2.41133 19.1391 2.32905 18.932 2.32905H18.152C18.0492 2.32905 17.9475 2.34931 17.8525 2.38867C17.7576 2.42803 17.6713 2.48572 17.5987 2.55844C17.5261 2.63117 17.4685 2.71749 17.4292 2.81248C17.39 2.90748 17.3699 3.00927 17.37 3.11205L17.371 3.11005ZM17.371 4.99905C17.3713 5.2061 17.4536 5.4046 17.6 5.55101C17.7465 5.69742 17.9449 5.77978 18.152 5.78005H18.932C19.1391 5.78005 19.3378 5.69777 19.4843 5.5513C19.6307 5.40483 19.713 5.20618 19.713 4.99905C19.713 4.79191 19.6307 4.59326 19.4843 4.4468C19.3378 4.30033 19.1391 4.21805 18.932 4.21805H18.152C17.9446 4.21805 17.7457 4.30044 17.599 4.44709C17.4524 4.59374 17.37 4.79265 17.37 5.00005L17.371 4.99905ZM17.371 6.88805C17.3713 7.0951 17.4536 7.2936 17.6 7.44001C17.7465 7.58642 17.9449 7.66878 18.152 7.66905H18.932C19.0346 7.66905 19.1361 7.64885 19.2309 7.6096C19.3256 7.57035 19.4117 7.51282 19.4843 7.4403C19.5568 7.36778 19.6143 7.28168 19.6535 7.18692C19.6928 7.09217 19.713 6.99061 19.713 6.88805C19.713 6.78549 19.6928 6.68393 19.6535 6.58917C19.6143 6.49442 19.5568 6.40832 19.4843 6.3358C19.4117 6.26328 19.3256 6.20575 19.2309 6.1665C19.1361 6.12725 19.0346 6.10705 18.932 6.10705H18.152C18.0492 6.10705 17.9475 6.12731 17.8525 6.16667C17.7576 6.20603 17.6713 6.26372 17.5987 6.33644C17.5261 6.40917 17.4685 6.49549 17.4292 6.59048C17.39 6.68548 17.3699 6.78727 17.37 6.89005L17.371 6.88805ZM8.013 7.98805C8.013 8.25327 8.11836 8.50762 8.30589 8.69516C8.49343 8.88269 8.74778 8.98805 9.013 8.98805H14.987C15.2522 8.98805 15.5066 8.88269 15.6941 8.69516C15.8816 8.50762 15.987 8.25327 15.987 7.98805V2.01405C15.987 1.74883 15.8816 1.49448 15.6941 1.30694C15.5066 1.11941 15.2522 1.01405 14.987 1.01405L9.012 1.01405C8.74678 1.01405 8.49243 1.11941 8.30489 1.30694C8.11736 1.49448 8.012 1.74883 8.012 2.01405L8.013 7.98805ZM3.076 5.00005C3.0756 5.26986 3.15524 5.53374 3.30483 5.75829C3.45443 5.98284 3.66726 6.15798 3.9164 6.26155C4.16555 6.36512 4.43981 6.39248 4.70451 6.34016C4.9692 6.28783 5.21243 6.15818 5.40343 5.9676C5.59443 5.77702 5.72462 5.53408 5.77752 5.2695C5.83043 5.00492 5.80367 4.7306 5.70065 4.48122C5.59762 4.23185 5.42295 4.01864 5.19873 3.86855C4.97451 3.71846 4.71082 3.63825 4.441 3.63805C4.0795 3.63805 3.73276 3.78145 3.47686 4.03679C3.22096 4.29213 3.07679 4.63855 3.076 5.00005Z" fill="#F6F2ED"/>
</svg>
