<svg width="24" height="10" viewBox="0 0 24 10" fill="none" xmlns="http://www.w3.org/2000/svg">
<path d="M24 4.79998C23.9987 6.07261 23.4925 7.29274 22.5927 8.19263C21.6928 9.09251 20.4726 9.59865 19.2 9.59998H4.8C3.52696 9.59998 2.30606 9.09426 1.40589 8.19409C0.505713 7.29391 0 6.07301 0 4.79998C0 3.52694 0.505713 2.30604 1.40589 1.40586C2.30606 0.505688 3.52696 -2.47955e-05 4.8 -2.47955e-05L19.2 -2.47955e-05C20.4726 0.0012988 21.6928 0.507437 22.5927 1.40732C23.4925 2.30721 23.9987 3.52734 24 4.79998ZM17.371 2.90998C17.3713 3.11703 17.4536 3.31553 17.6 3.46193C17.7465 3.60834 17.9449 3.69071 18.152 3.69098H18.932C19.1391 3.69098 19.3378 3.60869 19.4843 3.46223C19.6307 3.31576 19.713 3.11711 19.713 2.90998C19.713 2.70284 19.6307 2.50419 19.4843 2.35773C19.3378 2.21126 19.1391 2.12898 18.932 2.12898H18.152C18.0492 2.12898 17.9475 2.14924 17.8525 2.1886C17.7576 2.22796 17.6713 2.28565 17.5987 2.35837C17.5261 2.43109 17.4685 2.51742 17.4292 2.61241C17.39 2.7074 17.3699 2.8092 17.37 2.91198L17.371 2.90998ZM17.371 4.79898C17.3713 5.00603 17.4536 5.20452 17.6 5.35093C17.7465 5.49734 17.9449 5.57971 18.152 5.57998H18.932C19.1391 5.57998 19.3378 5.49769 19.4843 5.35123C19.6307 5.20476 19.713 5.00611 19.713 4.79898C19.713 4.59184 19.6307 4.39319 19.4843 4.24673C19.3378 4.10026 19.1391 4.01798 18.932 4.01798H18.152C17.9446 4.01798 17.7457 4.10036 17.599 4.24702C17.4524 4.39367 17.37 4.59258 17.37 4.79998L17.371 4.79898ZM17.371 6.68798C17.3713 6.89503 17.4536 7.09353 17.6 7.23993C17.7465 7.38634 17.9449 7.46871 18.152 7.46898H18.932C19.0346 7.46898 19.1361 7.44877 19.2309 7.40953C19.3256 7.37028 19.4117 7.31275 19.4843 7.24023C19.5568 7.1677 19.6143 7.08161 19.6535 6.98685C19.6928 6.8921 19.713 6.79054 19.713 6.68798C19.713 6.58541 19.6928 6.48386 19.6535 6.3891C19.6143 6.29434 19.5568 6.20825 19.4843 6.13573C19.4117 6.0632 19.3256 6.00567 19.2309 5.96643C19.1361 5.92718 19.0346 5.90698 18.932 5.90698H18.152C18.0492 5.90698 17.9475 5.92724 17.8525 5.9666C17.7576 6.00596 17.6713 6.06365 17.5987 6.13637C17.5261 6.20909 17.4685 6.29542 17.4292 6.39041C17.39 6.4854 17.3699 6.5872 17.37 6.68998L17.371 6.68798ZM8.013 7.78798C8.013 8.05319 8.11836 8.30755 8.30589 8.49508C8.49343 8.68262 8.74778 8.78798 9.013 8.78798H14.987C15.2522 8.78798 15.5066 8.68262 15.6941 8.49508C15.8816 8.30755 15.987 8.05319 15.987 7.78798V1.81398C15.987 1.54876 15.8816 1.29441 15.6941 1.10687C15.5066 0.919332 15.2522 0.813975 14.987 0.813975L9.012 0.813975C8.74678 0.813975 8.49243 0.919332 8.30489 1.10687C8.11736 1.29441 8.012 1.54876 8.012 1.81398L8.013 7.78798ZM3.076 4.79998C3.0756 5.06979 3.15524 5.33366 3.30483 5.55821C3.45443 5.78276 3.66726 5.9579 3.9164 6.06148C4.16555 6.16505 4.43981 6.19241 4.70451 6.14008C4.9692 6.08776 5.21243 5.95811 5.40343 5.76753C5.59443 5.57695 5.72462 5.33401 5.77752 5.06943C5.83043 4.80485 5.80367 4.53052 5.70065 4.28115C5.59762 4.03178 5.42295 3.81856 5.19873 3.66848C4.97451 3.51839 4.71082 3.43817 4.441 3.43798C4.0795 3.43797 3.73276 3.58138 3.47686 3.83671C3.22096 4.09205 3.07679 4.43847 3.076 4.79998Z" fill="#2F4F4F"/>
</svg>
