<svg xmlns="http://www.w3.org/2000/svg" width="9.599" height="24.001" viewBox="0 0 9.599 24.001">
  <g id="seedsigner" transform="translate(-135.93 -469.141)">
    <path id="Subtraction_54" data-name="Subtraction 54" d="M4.8,24A4.805,4.805,0,0,1,0,19.2V4.8a4.8,4.8,0,1,1,9.6,0V19.2A4.805,4.805,0,0,1,4.8,24Zm1.89-6.629a.782.782,0,0,0-.781.781v.78a.781.781,0,1,0,1.562,0v-.78A.782.782,0,0,0,6.688,17.37Zm-1.889,0a.782.782,0,0,0-.781.781v.78a.781.781,0,1,0,1.562,0v-.78A.782.782,0,0,0,4.8,17.37Zm-1.889,0a.782.782,0,0,0-.781.781v.78a.781.781,0,1,0,1.562,0v-.78A.782.782,0,0,0,2.91,17.37Zm-1.1-9.358a1,1,0,0,0-1,1v5.974a1,1,0,0,0,1,1H7.786a1,1,0,0,0,1-1V9.012a1,1,0,0,0-1-1ZM4.8,3.076A1.364,1.364,0,1,0,6.162,4.441,1.365,1.365,0,0,0,4.8,3.076Z" fill="#000" transform="translate(135.932 469.143)"/>
  </g>
</svg>
