<svg width="153" height="113" viewBox="0 0 153 113" fill="none" xmlns="http://www.w3.org/2000/svg">
<path opacity="0.4" d="M129.842 109.163C129.877 109.022 129.965 108.899 130.088 108.82C130.21 108.741 130.358 108.712 130.502 108.739C130.645 108.765 130.773 108.845 130.859 108.963C130.946 109.08 130.984 109.226 130.967 109.371C130.949 109.516 130.877 109.649 130.765 109.742C130.653 109.835 130.509 109.883 130.364 109.874C130.218 109.865 130.081 109.802 129.981 109.696C129.881 109.59 129.825 109.449 129.825 109.303C129.825 109.256 129.83 109.209 129.842 109.163ZM131.936 110.93C132.102 110.93 132.265 110.98 132.403 111.072C132.541 111.165 132.649 111.296 132.713 111.45C132.776 111.603 132.793 111.772 132.761 111.936C132.728 112.099 132.648 112.249 132.53 112.366C132.413 112.484 132.263 112.564 132.1 112.596C131.937 112.629 131.768 112.612 131.614 112.548C131.46 112.485 131.329 112.377 131.236 112.239C131.144 112.1 131.095 111.938 131.095 111.771C131.095 111.661 131.117 111.552 131.159 111.45C131.201 111.348 131.263 111.255 131.341 111.177C131.499 111.019 131.713 110.93 131.936 110.93ZM150.737 108.48C150.948 108.481 151.154 108.543 151.329 108.661C151.504 108.778 151.64 108.945 151.721 109.139C151.801 109.334 151.822 109.549 151.781 109.755C151.74 109.962 151.638 110.152 151.489 110.301C151.34 110.45 151.15 110.551 150.943 110.592C150.736 110.633 150.522 110.612 150.327 110.531C150.132 110.45 149.966 110.313 149.849 110.138C149.732 109.962 149.67 109.756 149.67 109.545C149.67 109.405 149.697 109.267 149.751 109.137C149.805 109.008 149.883 108.891 149.982 108.792C150.082 108.693 150.199 108.614 150.329 108.561C150.458 108.508 150.597 108.48 150.737 108.48Z" fill="#033D31"/>
<path opacity="0.4" d="M131.096 102.8C131.096 108.218 135.488 112.61 140.906 112.61C146.324 112.61 150.716 108.218 150.716 102.8C150.716 97.3823 146.324 92.9902 140.906 92.9902C135.488 92.9902 131.096 97.3823 131.096 102.8Z" fill="#033D31"/>
<path opacity="0.4" d="M5.95452 26.512C5.95452 41.1542 17.8243 53.024 32.4665 53.024C47.1087 53.024 58.9785 41.1542 58.9785 26.512C58.9785 11.8698 47.1087 0 32.4665 0C17.8243 0 5.95452 11.8698 5.95452 26.512Z" fill="#033D31"/>
<path opacity="0.4" d="M2.27075 19.1846C2.71991 19.1846 3.15899 19.3178 3.53245 19.5673C3.90591 19.8169 4.19699 20.1715 4.36888 20.5865C4.54077 21.0015 4.58574 21.4581 4.49812 21.8986C4.41049 22.3392 4.19419 22.7438 3.87659 23.0614C3.55899 23.379 3.15434 23.5953 2.7138 23.683C2.27327 23.7706 1.81665 23.7256 1.40168 23.5537C0.986706 23.3818 0.632027 23.0908 0.382484 22.7173C0.132942 22.3438 -0.000247955 21.9048 -0.000247955 21.4556C-0.000247955 20.8533 0.239014 20.2756 0.664909 19.8498C1.09081 19.4239 1.66845 19.1846 2.27075 19.1846ZM2.16175 27.1276C2.46855 27.1276 2.76846 27.2186 3.02354 27.3891C3.27863 27.5595 3.47742 27.8018 3.59478 28.0853C3.71215 28.3687 3.7428 28.6807 3.68288 28.9815C3.62295 29.2824 3.47513 29.5588 3.25812 29.7757C3.04111 29.9925 2.76465 30.1402 2.46372 30.1999C2.16279 30.2596 1.85091 30.2288 1.56752 30.1112C1.28413 29.9937 1.04196 29.7947 0.871655 29.5396C0.701347 29.2844 0.610554 28.9844 0.610752 28.6776C0.611015 28.2664 0.77454 27.8722 1.06538 27.5815C1.35622 27.2909 1.75057 27.1276 2.16175 27.1276ZM58.3377 6.30859C58.9076 6.30859 59.4646 6.47756 59.9383 6.79413C60.4121 7.1107 60.7814 7.56065 60.9994 8.08708C61.2175 8.61352 61.2746 9.19279 61.1634 9.75165C61.0522 10.3105 60.7778 10.8239 60.3749 11.2268C59.972 11.6297 59.4587 11.9041 58.8998 12.0152C58.3409 12.1264 57.7617 12.0693 57.2352 11.8513C56.7088 11.6332 56.2589 11.264 55.9423 10.7902C55.6257 10.3164 55.4567 9.7594 55.4567 9.18959C55.4567 8.42551 55.7603 7.69271 56.3006 7.15242C56.8409 6.61213 57.5737 6.30859 58.3377 6.30859Z" fill="#033D31"/>
<path d="M146.868 28.0449L25.3237 28.0449C22.0464 28.0449 19.3896 30.2835 19.3896 33.0449L19.3896 93.9689C19.3896 96.7303 22.0464 98.9689 25.3237 98.9689L146.868 98.9689C150.145 98.9689 152.802 96.7303 152.802 93.9689V33.0449C152.802 30.2835 150.145 28.0449 146.868 28.0449Z" fill="#F7F2EC"/>
<path d="M146.868 28.7949L25.3242 28.7949C22.5385 28.7949 20.2803 30.6977 20.2803 33.0449L20.2803 93.9689C20.2803 96.3161 22.5385 98.2189 25.3242 98.2189L146.868 98.2189C149.654 98.2189 151.912 96.3161 151.912 93.9689V33.0449C151.912 30.6977 149.654 28.7949 146.868 28.7949Z" stroke="#002C27" stroke-width="1.5"/>
<path d="M139.684 34.9902L30.9199 34.9902C28.0932 34.9902 25.8018 36.8776 25.8018 39.2057L25.8018 87.7748C25.8018 90.1029 28.0932 91.9902 30.9199 91.9902L139.684 91.9902C142.51 91.9902 144.802 90.1029 144.802 87.7748V39.2057C144.802 36.8776 142.51 34.9902 139.684 34.9902Z" stroke="#002C27" stroke-width="1.5" stroke-dasharray="1.5 2"/>
<rect x="133.851" y="44.4902" width="38.6094" height="95.5488" rx="19.3047" transform="rotate(90 133.851 44.4902)" stroke="#3C3C3C" stroke-width="3"/>
<path d="M114.546 42.9902C126.036 42.9902 135.351 52.3048 135.351 63.7949C135.351 75.285 126.036 84.5996 114.546 84.5996H98.7106V42.9902L114.546 42.9902Z" fill="#3C3C3C"/>
<path d="M57.6065 42.9902C46.1163 42.9902 36.8018 52.3048 36.8018 63.7949C36.8018 75.285 46.1163 84.5996 57.6064 84.5996H67.1245V42.9902L57.6065 42.9902Z" fill="#3C3C3C"/>
<ellipse cx="116.399" cy="63.202" rx="5.9442" ry="6.31723" transform="rotate(90 116.399 63.202)" fill="#F7F2EC"/>
<rect x="60.8076" y="52.5" width="5.9442" height="12.6345" rx="2.9721" transform="rotate(90 60.8076 52.5)" fill="#F7F2EC"/>
<rect x="60.8076" y="60.8223" width="5.9442" height="12.6345" rx="2.9721" transform="rotate(90 60.8076 60.8223)" fill="#F7F2EC"/>
<rect x="60.8076" y="69.1445" width="5.9442" height="12.6345" rx="2.9721" transform="rotate(90 60.8076 69.1445)" fill="#F7F2EC"/>
</svg>
