<svg width="18" height="41" viewBox="0 0 18 41" fill="none" xmlns="http://www.w3.org/2000/svg">
<path d="M9.16674 40.8664C6.83486 40.8641 4.59919 40.0023 2.9503 38.47C1.30142 36.9377 0.374007 34.8601 0.371582 32.6931L0.371582 8.17328C0.371582 6.00559 1.29821 3.92668 2.94762 2.3939C4.59704 0.861111 6.83412 0 9.16674 0C11.4994 0 13.7364 0.861111 15.3859 2.3939C17.0353 3.92668 17.9619 6.00559 17.9619 8.17328V32.6931C17.9595 34.8601 17.0321 36.9377 15.3832 38.47C13.7343 40.0023 11.4986 40.8641 9.16674 40.8664ZM12.6298 29.5788C12.2504 29.5792 11.8867 29.7195 11.6185 29.9688C11.3502 30.2181 11.1993 30.556 11.1988 30.9086V32.2368C11.1988 32.5895 11.3496 32.9277 11.6179 33.1771C11.8863 33.4265 12.2503 33.5666 12.6298 33.5666C13.0094 33.5666 13.3734 33.4265 13.6417 33.1771C13.9101 32.9277 14.0609 32.5895 14.0609 32.2368V30.9086C14.0609 30.7336 14.0238 30.5603 13.9516 30.3986C13.8795 30.237 13.7738 30.0901 13.6406 29.9664C13.5073 29.8428 13.3491 29.7447 13.1751 29.6779C13.001 29.6111 12.8145 29.5768 12.6262 29.577L12.6298 29.5788ZM9.16857 29.5788C8.78918 29.5792 8.42547 29.7195 8.15721 29.9688C7.88894 30.2181 7.73801 30.556 7.73753 30.9086V32.2368C7.73753 32.5895 7.8883 32.9277 8.15667 33.1771C8.42504 33.4265 8.78904 33.5666 9.16857 33.5666C9.54811 33.5666 9.9121 33.4265 10.1805 33.1771C10.4488 32.9277 10.5996 32.5895 10.5996 32.2368V30.9086C10.5996 30.5555 10.4487 30.2168 10.1799 29.9671C9.91122 29.7173 9.54676 29.577 9.16674 29.577L9.16857 29.5788ZM5.70731 29.5788C5.32792 29.5792 4.96421 29.7195 4.69594 29.9688C4.42768 30.2181 4.27675 30.556 4.27627 30.9086V32.2368C4.27627 32.4114 4.31328 32.5843 4.3852 32.7457C4.45711 32.907 4.56252 33.0536 4.69541 33.1771C4.82829 33.3006 4.98605 33.3986 5.15967 33.4654C5.3333 33.5322 5.51938 33.5666 5.70731 33.5666C5.89524 33.5666 6.08133 33.5322 6.25495 33.4654C6.42857 33.3986 6.58633 33.3006 6.71921 33.1771C6.8521 33.0536 6.95751 32.907 7.02943 32.7457C7.10134 32.5843 7.13836 32.4114 7.13836 32.2368V30.9086C7.13836 30.7336 7.10123 30.5603 7.02911 30.3986C6.95699 30.237 6.85128 30.0901 6.71803 29.9664C6.58478 29.8428 6.4266 29.7447 6.25255 29.6779C6.07849 29.6111 5.89197 29.5768 5.70365 29.577L5.70731 29.5788ZM3.69175 13.6443C3.20579 13.6443 2.73973 13.8237 2.39611 14.143C2.05248 14.4623 1.85943 14.8954 1.85943 15.347V25.5194C1.85943 25.971 2.05248 26.4041 2.39611 26.7234C2.73973 27.0427 3.20579 27.2221 3.69175 27.2221H14.6381C15.124 27.2221 15.5901 27.0427 15.9337 26.7234C16.2773 26.4041 16.4704 25.971 16.4704 25.5194V15.3453C16.4704 14.8937 16.2773 14.4606 15.9337 14.1413C15.5901 13.822 15.124 13.6426 14.6381 13.6426L3.69175 13.6443ZM9.16674 5.23771C8.67235 5.23703 8.18885 5.37264 7.7774 5.62736C7.36595 5.88208 7.04504 6.24448 6.85526 6.66872C6.66548 7.09295 6.61536 7.55996 6.71123 8.01068C6.8071 8.46139 7.04467 8.87555 7.39387 9.20078C7.74307 9.526 8.18822 9.74768 8.67302 9.83777C9.15781 9.92785 9.66046 9.8823 10.1174 9.70687C10.5743 9.53144 10.965 9.23402 11.24 8.85223C11.515 8.47043 11.662 8.02142 11.6624 7.56198C11.6624 6.94643 11.3996 6.35602 10.9317 5.92028C10.4639 5.48454 9.82913 5.23906 9.16674 5.23771Z" fill="#41594C"/>
</svg>
