<svg width="25" height="10" viewBox="0 0 25 10" fill="none" xmlns="http://www.w3.org/2000/svg">
<path d="M24.8008 5.00005C24.7995 6.27268 24.2933 7.49281 23.3934 8.3927C22.4935 9.29259 21.2734 9.79872 20.0008 9.80005L5.60078 9.80005C4.32774 9.80005 3.10684 9.29434 2.20667 8.39416C1.30649 7.49399 0.800781 6.27309 0.800781 5.00005C0.800781 3.72701 1.30649 2.50611 2.20667 1.60594C3.10684 0.705761 4.32774 0.200048 5.60078 0.200048L20.0008 0.200048C21.2734 0.201371 22.4935 0.707509 23.3934 1.6074C24.2933 2.50728 24.7995 3.72741 24.8008 5.00005ZM18.1718 3.11005C18.172 3.3171 18.2544 3.5156 18.4008 3.66201C18.5472 3.80841 18.7457 3.89078 18.9528 3.89105L19.7328 3.89105C19.9399 3.89105 20.1386 3.80876 20.285 3.6623C20.4315 3.51583 20.5138 3.31718 20.5138 3.11005C20.5138 2.90291 20.4315 2.70426 20.285 2.5578C20.1386 2.41133 19.9399 2.32905 19.7328 2.32905L18.9528 2.32905C18.85 2.32905 18.7482 2.34931 18.6533 2.38867C18.5583 2.42803 18.4721 2.48572 18.3995 2.55844C18.3268 2.63117 18.2693 2.71749 18.23 2.81248C18.1908 2.90747 18.1707 3.00927 18.1708 3.11205L18.1718 3.11005ZM18.1718 4.99905C18.172 5.2061 18.2544 5.4046 18.4008 5.55101C18.5472 5.69741 18.7457 5.77978 18.9528 5.78005L19.7328 5.78005C19.9399 5.78005 20.1386 5.69776 20.285 5.5513C20.4315 5.40483 20.5138 5.20618 20.5138 4.99905C20.5138 4.79191 20.4315 4.59326 20.285 4.4468C20.1386 4.30033 19.9399 4.21805 19.7328 4.21805L18.9528 4.21805C18.7454 4.21805 18.5465 4.30044 18.3998 4.44709C18.2532 4.59374 18.1708 4.79265 18.1708 5.00005L18.1718 4.99905ZM18.1718 6.88805C18.172 7.0951 18.2544 7.2936 18.4008 7.44001C18.5472 7.58641 18.7457 7.66878 18.9528 7.66905L19.7328 7.66905C19.8353 7.66905 19.9369 7.64885 20.0317 7.6096C20.1264 7.57035 20.2125 7.51282 20.285 7.4403C20.3576 7.36778 20.4151 7.28168 20.4543 7.18692C20.4936 7.09217 20.5138 6.99061 20.5138 6.88805C20.5138 6.78549 20.4936 6.68393 20.4543 6.58917C20.4151 6.49442 20.3576 6.40832 20.285 6.3358C20.2125 6.26328 20.1264 6.20575 20.0317 6.1665C19.9369 6.12725 19.8353 6.10705 19.7328 6.10705L18.9528 6.10705C18.85 6.10705 18.7482 6.12731 18.6533 6.16667C18.5583 6.20603 18.4721 6.26372 18.3995 6.33644C18.3268 6.40917 18.2693 6.49549 18.23 6.59048C18.1908 6.68547 18.1707 6.78727 18.1708 6.89005L18.1718 6.88805ZM8.81378 7.98805C8.81378 8.25326 8.91914 8.50762 9.10667 8.69516C9.29421 8.88269 9.54856 8.98805 9.81378 8.98805L15.7878 8.98805C16.053 8.98805 16.3074 8.88269 16.4949 8.69515C16.6824 8.50762 16.7878 8.25326 16.7878 7.98805L16.7878 2.01405C16.7878 1.74883 16.6824 1.49448 16.4949 1.30694C16.3074 1.1194 16.053 1.01405 15.7878 1.01405L9.81278 1.01405C9.54756 1.01405 9.29321 1.11941 9.10567 1.30694C8.91814 1.49448 8.81278 1.74883 8.81278 2.01405L8.81378 7.98805ZM3.87678 5.00005C3.87639 5.26986 3.95602 5.53374 4.10561 5.75829C4.25521 5.98284 4.46804 6.15798 4.71718 6.26155C4.96633 6.36512 5.24059 6.39248 5.50529 6.34016C5.76998 6.28783 6.01321 6.15818 6.20421 5.9676C6.39521 5.77702 6.5254 5.53408 6.5783 5.2695C6.63121 5.00492 6.60445 4.7306 6.50143 4.48122C6.3984 4.23185 6.22373 4.01864 5.99951 3.86855C5.77529 3.71846 5.5116 3.63825 5.24178 3.63805C4.88028 3.63805 4.53354 3.78145 4.27764 4.03679C4.02174 4.29213 3.87758 4.63855 3.87678 5.00005Z" fill="black"/>
</svg>
