<svg width="71" height="23" viewBox="0 0 71 23" fill="none" xmlns="http://www.w3.org/2000/svg">
<mask id="mask0_3784_5518" style="mask-type:luminance" maskUnits="userSpaceOnUse" x="0" y="0" width="71" height="23">
<path d="M71 0.144531H0V22.8436H71V0.144531Z" fill="white"/>
</mask>
<g mask="url(#mask0_3784_5518)">
<path d="M35.4924 22.8371C27.3333 22.8371 19.1732 22.8587 11.0142 22.8284C9.13646 22.8716 7.28193 22.4067 5.64662 21.4828C4.01132 20.559 2.65599 19.2104 1.7239 17.5798C0.312184 15.3208 -0.25846 12.6367 0.112195 9.99878C0.482849 7.36088 1.7711 4.93793 3.75068 3.15548C5.81288 1.20957 8.54664 0.134821 11.3819 0.155327C27.5918 0.137301 43.8017 0.133696 60.0116 0.144511C62.7113 0.116189 65.3138 1.15022 67.2579 3.02353C68.5689 4.20791 69.5868 5.68077 70.2311 7.32589C70.8755 8.97101 71.1287 10.7434 70.9707 12.5031C70.8082 14.883 69.8854 17.1477 68.3383 18.9634C66.7913 20.7792 64.7019 22.0499 62.378 22.5883C61.6841 22.7502 60.974 22.8326 60.2615 22.8338H35.4945M20.483 21.1823C23.8552 21.1823 27.2274 21.1823 30.5996 21.1899C30.924 21.1899 31.0181 21.1218 31.017 20.7822C31.0055 14.5872 31.0055 8.39259 31.017 2.19833C31.017 1.85332 30.9089 1.79384 30.5963 1.79492C24.2384 1.80357 17.8804 1.80357 11.5225 1.79492C10.6898 1.79391 9.86007 1.89341 9.05124 2.09126C7.58515 2.42375 6.21628 3.09208 5.05243 4.04361C3.88858 4.99513 2.96153 6.20388 2.3443 7.57464C1.72707 8.9454 1.43652 10.4407 1.49551 11.9429C1.55451 13.4451 1.96146 14.913 2.68429 16.2311C3.45594 17.7496 4.64086 19.0192 6.10254 19.8936C7.56423 20.7681 9.24321 21.2118 10.9461 21.1737C14.1247 21.2148 17.3044 21.1823 20.483 21.1823ZM51.7553 11.8812C51.6179 11.8509 51.5898 11.7644 51.539 11.6995C50.8403 10.7629 50.1254 9.83823 49.4527 8.88756C49.3295 8.69448 49.1508 8.5432 48.94 8.45363C48.7292 8.36406 48.4962 8.34039 48.2717 8.38574C47.9634 8.42359 47.7742 8.57717 47.7731 8.89513C47.7681 10.6414 47.7681 12.3877 47.7731 14.134C47.7657 14.2558 47.8053 14.3758 47.8838 14.4692C47.9623 14.5626 48.0737 14.6222 48.1949 14.6359C48.9617 14.8143 49.2926 14.5688 49.297 13.7869C49.297 13.2212 49.297 12.6545 49.297 12.0889V11.2118C49.4208 11.2844 49.5228 11.389 49.5922 11.5146C50.3136 12.4642 51.0307 13.417 51.7553 14.3655C51.8981 14.5219 52.0858 14.6301 52.2927 14.6752C52.4996 14.7203 52.7154 14.7002 52.9103 14.6175C53.2932 14.4985 53.2781 14.1914 53.2781 13.8864C53.2781 12.2843 53.2781 10.6825 53.2781 9.08116C53.2781 8.54039 53.1061 8.38465 52.5134 8.38033C51.9208 8.376 51.7564 8.52309 51.7564 9.08224C51.7564 10.0091 51.7564 10.936 51.7564 11.8877M46.8722 12.5172H46.8473C46.8473 12.1559 46.8668 11.7936 46.8473 11.4356C46.8181 11.003 46.6645 10.8711 46.2254 10.8624C45.7063 10.8527 45.1861 10.8538 44.667 10.8624C44.2203 10.8689 44.0992 11.0009 44.0862 11.4551C44.07 12.0132 44.1943 12.1397 44.7492 12.1408C44.8822 12.1408 45.0152 12.1408 45.1482 12.1408C45.2175 12.1408 45.3137 12.13 45.317 12.2273C45.3514 12.4896 45.3441 12.7557 45.2953 13.0157C45.2391 13.1953 44.9611 13.1466 44.7794 13.1888C44.7554 13.1926 44.7312 13.1951 44.707 13.1964C44.3446 13.2299 43.9808 13.1484 43.6675 12.9634C43.3541 12.7783 43.107 12.4992 42.9614 12.1657C42.8073 11.8294 42.7679 11.4518 42.8492 11.0909C42.9305 10.7301 43.128 10.4059 43.4113 10.1681C43.7108 9.94217 44.0737 9.81595 44.4488 9.80721C44.8238 9.79848 45.1922 9.90768 45.5019 10.1194C45.8858 10.393 46.1995 10.247 46.5207 9.73873C46.7716 9.34289 46.7197 9.11577 46.313 8.83565C45.7737 8.46065 45.1323 8.26003 44.4754 8.26085C43.8184 8.26168 43.1776 8.4639 42.6391 8.84026C42.1007 9.21662 41.6906 9.74901 41.4642 10.3657C41.2377 10.9823 41.2058 11.6536 41.3726 12.289C41.4788 12.723 41.6734 13.1305 41.9444 13.4858C42.2154 13.8411 42.5568 14.1366 42.9473 14.3538C43.3378 14.571 43.769 14.7052 44.2138 14.7479C44.6586 14.7907 45.1074 14.7411 45.5322 14.6023C46.6494 14.2703 46.9641 13.8572 46.8711 12.8719C46.8603 12.7529 46.8711 12.6307 46.8711 12.5107M54.1692 11.5005C54.1692 12.3192 54.1638 13.139 54.1692 13.9578C54.1692 14.4466 54.3401 14.651 54.8009 14.6575C56.0446 14.6737 57.2884 14.6705 58.5332 14.6575C58.9139 14.6575 59.0686 14.4769 59.0956 14.0919C59.1085 13.9244 59.1059 13.756 59.088 13.589C59.0872 13.4724 59.0406 13.3608 58.9582 13.2783C58.8759 13.1957 58.7644 13.1488 58.6478 13.1477C58.4921 13.1369 58.3353 13.1196 58.1785 13.1185C57.4538 13.1185 56.7292 13.1098 56.0046 13.1185C55.7883 13.1185 55.6877 13.0568 55.718 12.833C55.7266 12.7731 55.7266 12.7122 55.718 12.6524C55.6715 12.3636 55.7645 12.2435 56.0825 12.2673C56.4794 12.2965 56.8795 12.2749 57.2775 12.2749C58.0552 12.2749 58.1806 12.144 58.1568 11.3653C58.1428 10.9154 57.9903 10.7618 57.5404 10.7575C57.0904 10.7532 56.6751 10.7575 56.236 10.7575C55.6639 10.751 55.7385 10.8527 55.7147 10.2373C55.7039 9.9745 55.7677 9.88581 56.0489 9.89338C56.8579 9.91285 57.6712 9.90961 58.477 9.89338C58.9691 9.88365 59.1259 9.66843 59.114 9.0963C59.1021 8.52417 58.9626 8.37492 58.4553 8.37276C57.2837 8.37276 56.112 8.37276 54.9404 8.37276C54.3358 8.37276 54.1747 8.53715 54.1714 9.15038C54.1714 9.9334 54.1714 10.7164 54.1714 11.4994M60.0268 11.48C60.0268 12.2738 60.0268 13.0687 60.0268 13.8593C60.0268 14.5083 60.308 14.7419 60.9569 14.6445C61.4317 14.5731 61.5517 14.438 61.5582 13.9578C61.5582 13.6809 61.5658 13.404 61.5582 13.1271C61.5528 12.9703 61.6069 12.9108 61.7648 12.9206C62.0546 12.9303 62.3445 12.9357 62.63 12.9206C62.7117 12.9055 62.796 12.9224 62.8656 12.9677C62.9352 13.0129 62.9848 13.0832 63.0042 13.1639C63.1556 13.5554 63.3287 13.9394 63.4996 14.3211C63.6704 14.7029 63.9246 14.7916 64.3907 14.6088C64.9315 14.3925 65.0743 14.1892 64.9164 13.7652C64.766 13.3618 64.5919 12.966 64.4081 12.5756C64.3555 12.4851 64.3337 12.3799 64.346 12.276C64.3583 12.172 64.404 12.0749 64.4762 11.9991C64.7358 11.6642 64.8929 11.2613 64.9284 10.839C64.9639 10.4168 64.8763 9.9933 64.6763 9.61976C64.5032 9.24417 64.2247 8.92697 63.8747 8.70673C63.5246 8.4865 63.1181 8.37273 62.7046 8.37925C62.0298 8.35329 61.3527 8.36951 60.6768 8.37925C60.1847 8.37925 60.0279 8.54039 60.0279 9.02816C60.0279 9.84688 60.0279 10.6656 60.0279 11.4832M35.3799 14.7375C35.9485 14.819 36.5266 14.6777 36.9935 14.3432C37.4604 14.0087 37.7801 13.5068 37.8858 12.9422C37.9819 12.5327 37.9165 12.1019 37.7032 11.7393C37.4899 11.3768 37.1451 11.1104 36.7405 10.9955C36.5588 10.9327 36.3717 10.8873 36.1856 10.8376C35.9066 10.7662 35.6211 10.7153 35.3475 10.6213C35.1052 10.5423 34.9029 10.3822 34.9516 10.0935C35.0003 9.8047 35.2361 9.70736 35.5097 9.67383C35.6536 9.66905 35.7969 9.69363 35.931 9.74606C36.065 9.7985 36.187 9.8777 36.2895 9.97882C36.6593 10.2535 36.9816 10.1822 37.2801 9.78848C37.6295 9.32775 37.6187 9.10171 37.2239 8.77617C36.6694 8.35533 35.9721 8.16858 35.2815 8.25595C34.9847 8.26027 34.6931 8.33371 34.4297 8.47045C34.1663 8.60719 33.9384 8.80345 33.7642 9.04366C33.5899 9.28386 33.474 9.56139 33.4258 9.85421C33.3775 10.147 33.3982 10.4471 33.4861 10.7305C33.5461 10.9518 33.6539 11.1572 33.8019 11.3323C33.9499 11.5074 34.1345 11.6479 34.3427 11.7439C34.8529 11.9569 35.3795 12.1284 35.9174 12.2565C36.1651 12.3333 36.3825 12.4653 36.3327 12.7973C36.3158 12.9308 36.2522 13.054 36.1533 13.1452C36.0544 13.2364 35.9264 13.2898 35.792 13.2959C35.6738 13.3234 35.551 13.3246 35.4323 13.2993C35.3136 13.2741 35.202 13.2231 35.1052 13.1499C34.917 13.0006 34.744 12.8319 34.5579 12.6816C34.4989 12.6155 34.4261 12.5632 34.3447 12.5283C34.2632 12.4934 34.1752 12.4768 34.0866 12.4796C33.9981 12.4824 33.9112 12.5045 33.8321 12.5444C33.7531 12.5844 33.6837 12.6411 33.6289 12.7108C33.245 13.0742 33.2039 13.3391 33.4786 13.7177C33.6928 14.0234 33.9754 14.275 34.304 14.4522C34.6326 14.6295 34.9981 14.7275 35.3712 14.7386M38.7878 11.5135C38.7878 12.3441 38.7824 13.1747 38.7878 14.001C38.7878 14.4704 38.9922 14.6499 39.4951 14.6618C40.0802 14.6791 40.29 14.5396 40.3062 14.0497C40.3592 12.329 40.356 10.6083 40.3062 8.88756C40.313 8.82737 40.3069 8.76643 40.2882 8.70881C40.2696 8.65118 40.2388 8.59819 40.1981 8.55337C40.0455 8.44453 39.8683 8.37529 39.6824 8.35188C39.4964 8.32847 39.3076 8.35163 39.1328 8.41926C38.8083 8.48848 38.7813 8.77292 38.7813 9.05196C38.7813 9.87031 38.7813 10.689 38.7813 11.5081" fill="#EE7B30"/>
<path d="M24.9173 8.45483C25.3398 8.44373 25.7626 8.46179 26.1827 8.5089C26.8799 8.63914 27.5125 9.00188 27.977 9.53793C28.4416 10.074 28.7107 10.7517 28.7405 11.4604C28.7628 12.1755 28.5453 12.8775 28.1226 13.4547C27.6998 14.0319 27.0961 14.451 26.4076 14.6455C25.7294 14.7635 25.0391 14.7966 24.3527 14.7439C23.2712 14.7558 23.2171 14.6974 23.2171 13.6072C23.2171 12.1868 23.2171 10.7664 23.2171 9.34601C23.2171 8.56947 23.3361 8.45591 24.1213 8.45591H24.9162M24.7724 11.5772V12.4424C24.7724 13.2536 24.7723 13.2536 25.6008 13.219C25.9634 13.2039 26.3115 13.0724 26.5934 12.8439C26.8753 12.6153 27.076 12.302 27.1658 11.9503C27.2402 11.5879 27.1896 11.2109 27.0223 10.8809C26.8549 10.551 26.5807 10.2874 26.2443 10.1334C25.8567 10.0001 25.4459 9.9482 25.0373 9.98086C24.834 9.97437 24.7626 10.0349 24.7691 10.2426C24.7831 10.6871 24.7691 11.1316 24.7691 11.5761" fill="#EE7B30"/>
<path d="M11.5409 11.5837C11.5409 10.8267 11.5409 10.0696 11.5409 9.31254C11.5409 8.61495 11.701 8.45921 12.3899 8.45813C13.5248 8.45813 14.66 8.45813 15.7956 8.45813C16.3234 8.45813 16.5051 8.66145 16.504 9.23034C16.504 9.77651 16.3245 9.98092 15.8173 9.98741C15.0202 9.9939 14.2231 10.0026 13.426 9.98741C13.147 9.98092 13.0529 10.0653 13.0929 10.3313C13.1061 10.4271 13.1061 10.5243 13.0929 10.6201C13.0669 10.8213 13.1654 10.858 13.3427 10.8548C13.8619 10.8461 14.381 10.8483 14.9001 10.8548C15.3782 10.8548 15.5491 11.0516 15.5555 11.6C15.5664 12.1256 15.3857 12.357 14.9272 12.3733C14.4199 12.3884 13.9127 12.396 13.4066 12.3733C13.1448 12.3635 13.0583 12.4533 13.0929 12.6977C13.1052 12.7813 13.1052 12.8662 13.0929 12.9497C13.0518 13.2028 13.1783 13.2417 13.399 13.2385C14.1961 13.2277 14.9931 13.2385 15.7902 13.2385C16.331 13.2385 16.504 13.4299 16.504 13.9955C16.504 14.5612 16.3213 14.7526 15.787 14.7526C14.6276 14.7526 13.4682 14.7526 12.3088 14.7526C11.7161 14.7526 11.5517 14.6012 11.5431 14.0107C11.5323 13.2039 11.5431 12.3971 11.5431 11.5902" fill="#EE7B30"/>
<path d="M17.3844 11.6184C17.3844 10.8116 17.3844 10.0047 17.3844 9.19793C17.3844 8.64094 17.5683 8.45817 18.1231 8.456C19.307 8.45168 20.4906 8.45168 21.6737 8.456C22.1604 8.456 22.3227 8.64851 22.3227 9.19685C22.3281 9.78736 22.1853 9.97446 21.6824 9.97987C20.8734 9.9896 20.0601 9.99393 19.2544 9.97987C18.9905 9.97987 18.8672 10.0361 18.9105 10.3162C18.9237 10.412 18.9237 10.5092 18.9105 10.605C18.8867 10.7997 18.9721 10.8505 19.1581 10.8473C19.6773 10.8375 20.1964 10.8408 20.7166 10.8473C21.2087 10.8473 21.372 11.0322 21.3785 11.5762C21.3861 12.1559 21.2336 12.3549 20.7393 12.3679C20.2451 12.3809 19.7248 12.3852 19.2176 12.3679C18.9862 12.3614 18.8759 12.4209 18.9105 12.6664C18.924 12.7622 18.924 12.8594 18.9105 12.9551C18.8769 13.1844 18.9764 13.2374 19.1938 13.2342C20.0147 13.2223 20.8366 13.2277 21.6575 13.2342C22.1713 13.2342 22.3205 13.4083 22.3205 13.9912C22.3205 14.5742 22.1604 14.7483 21.6554 14.7483C20.4715 14.7483 19.2879 14.7483 18.1047 14.7483C17.5466 14.7483 17.3812 14.5774 17.3779 14.0064C17.3779 13.2115 17.3779 12.4165 17.3779 11.627" fill="#EE7B30"/>
<path d="M8.44128 14.8348C8.0144 14.865 7.58685 14.7861 7.19883 14.6056C6.8108 14.4251 6.47503 14.149 6.22307 13.803C5.96026 13.4407 6.00676 13.179 6.37232 12.8232C6.42422 12.7513 6.49146 12.6919 6.56917 12.6492C6.64687 12.6065 6.73309 12.5816 6.82159 12.5763C6.9101 12.571 6.99867 12.5855 7.08089 12.6186C7.16312 12.6518 7.23695 12.7028 7.29703 12.768C7.47548 12.9097 7.63554 13.0763 7.81399 13.219C7.93435 13.3112 8.07533 13.3726 8.22476 13.3981C8.3742 13.4235 8.52758 13.4122 8.67164 13.365C8.79146 13.3386 8.89906 13.273 8.97741 13.1786C9.05576 13.0842 9.10039 12.9664 9.10426 12.8437C9.13129 12.595 8.95717 12.4706 8.76033 12.3917C8.58159 12.3207 8.39655 12.2667 8.20767 12.2305C7.86716 12.1554 7.53494 12.0468 7.21591 11.9061C6.9028 11.7878 6.63366 11.576 6.44502 11.2995C6.25637 11.0231 6.15736 10.6952 6.16142 10.3606C6.13473 10.0275 6.20159 9.69355 6.35446 9.39641C6.50732 9.09927 6.74013 8.85073 7.02665 8.67878C7.49547 8.42757 8.02653 8.31616 8.55678 8.35776C9.08704 8.39936 9.59423 8.59222 10.0181 8.91347C10.3329 9.18601 10.3599 9.39583 10.1263 9.76355C9.83537 10.2221 9.54443 10.3562 9.18429 10.181C9.06733 10.1187 8.95838 10.0425 8.85983 9.9539C8.71014 9.82556 8.51569 9.76178 8.31907 9.77653C8.05085 9.79491 7.77181 9.85224 7.71017 10.1799C7.64852 10.5076 7.87132 10.6753 8.14278 10.7553C8.557 10.8786 8.98421 10.9597 9.40276 11.07C9.72055 11.1269 10.0113 11.2855 10.2311 11.5219C10.4509 11.7583 10.588 12.0598 10.6216 12.3808C10.7028 12.755 10.6718 13.1448 10.5325 13.5015C10.3932 13.8581 10.1519 14.1658 9.83861 14.386C9.43141 14.6854 8.938 14.8444 8.43263 14.8391" fill="#EE7B30"/>
<path d="M61.5572 10.6412C61.5572 9.89925 61.5572 9.89925 62.3078 9.89925C62.4289 9.89925 62.5501 9.89276 62.6701 9.89925C62.8467 9.90188 63.0162 9.96953 63.146 10.0892C63.2759 10.209 63.3572 10.3723 63.3742 10.5482C63.4073 10.7287 63.3681 10.915 63.2651 11.0669C63.1622 11.2189 63.0036 11.3243 62.8236 11.3604C62.4539 11.4187 62.0788 11.4354 61.7054 11.4101C61.5648 11.4177 61.555 11.3269 61.5561 11.222C61.5561 11.0294 61.5561 10.8359 61.5561 10.6433" fill="#EE7B30"/>
</g>
</svg>
