<svg xmlns="http://www.w3.org/2000/svg" xmlns:xlink="http://www.w3.org/1999/xlink" width="147" height="144.914" viewBox="0 0 147 144.914">
  <defs>
    <linearGradient id="linear-gradient" x1="0.5" x2="0.5" y2="1" gradientUnits="objectBoundingBox">
      <stop offset="0" stop-color="#00836a"/>
      <stop offset="1" stop-color="#073e39"/>
    </linearGradient>
  </defs>
  <g id="seedsigber" transform="translate(-69 -457)">
    <path id="Union_23" data-name="Union 23" d="M21.684,66.622a2.567,2.567,0,1,1,2.567,2.567A2.567,2.567,0,0,1,21.684,66.622Zm8.977.123A1.753,1.753,0,1,1,32.414,68.5,1.753,1.753,0,0,1,30.661,66.745ZM0,32.5A29.965,29.965,0,1,1,29.965,62.46,29.965,29.965,0,0,1,0,32.5ZM7.132,3.256a3.256,3.256,0,1,1,3.255,3.255A3.255,3.255,0,0,1,7.132,3.256Z" transform="translate(69 532.725)" opacity="0.4" fill="url(#linear-gradient)"/>
    <path id="Union_22" data-name="Union 22" d="M18.278,24.819a.647.647,0,1,1,.158.02A.648.648,0,0,1,18.278,24.819Zm2-2.365a.95.95,0,1,1,.95.95A.95.95,0,0,1,20.276,22.454ZM0,12.316A11.088,11.088,0,1,1,11.088,23.4,11.088,11.088,0,0,1,0,12.316ZM17.507,1.2a1.2,1.2,0,1,1,1.2,1.2A1.2,1.2,0,0,1,17.507,1.2Z" transform="translate(193.824 464.391)" opacity="0.4" fill="url(#linear-gradient)"/>
    <g id="Rectangle_7601" data-name="Rectangle 7601" transform="translate(121.337 598.355) rotate(-90)" fill="#f7f2ec" stroke="#002c27" stroke-width="1.5">
      <rect width="141.355" height="74.394" rx="5" stroke="none"/>
      <rect x="0.75" y="0.75" width="139.855" height="72.894" rx="4.25" fill="none"/>
    </g>
    <g id="Rectangle_7600" data-name="Rectangle 7600" transform="translate(128.258 591.434) rotate(-90)" fill="none" stroke="#002c27" stroke-width="1.5" stroke-dasharray="1.5 2">
      <rect width="127.513" height="60.091" rx="5" stroke="none"/>
      <rect x="0.75" y="0.75" width="126.013" height="58.591" rx="4.25" fill="none"/>
    </g>
    <g id="Group_43876" data-name="Group 43876">
      <rect id="Rectangle_8159" data-name="Rectangle 8159" width="45.746" height="114.373" rx="22.873" transform="translate(135.93 469.139)" fill="#3c3c3c"/>
      <rect id="Rectangle_8161" data-name="Rectangle 8161" width="38" height="38" rx="2" transform="translate(139.803 507.326)" fill="#f6f2ed"/>
      <rect id="Rectangle_8162" data-name="Rectangle 8162" width="13" height="13" rx="6.5" transform="translate(152.303 483.811)" fill="#f6f2ed"/>
      <g id="Group_43875" data-name="Group 43875" transform="translate(0.257)">
        <rect id="Rectangle_8160" data-name="Rectangle 8160" width="7.444" height="11.163" rx="3.722" transform="translate(145.555 551.912)" fill="#f6f2ed"/>
        <rect id="Rectangle_8168" data-name="Rectangle 8168" width="7.444" height="11.163" rx="3.722" transform="translate(154.556 551.912)" fill="#f6f2ed"/>
        <rect id="Rectangle_8169" data-name="Rectangle 8169" width="7.444" height="11.163" rx="3.722" transform="translate(163.556 551.912)" fill="#f6f2ed"/>
      </g>
    </g>
  </g>
</svg>
