<svg xmlns="http://www.w3.org/2000/svg" width="143.973" height="116" viewBox="0 0 143.973 116">
  <g id="seedwords_illustration" data-name="seedwords illustration" transform="translate(-81 -486)">
    <g id="IK_illustration" data-name="IK illustration" transform="translate(24 25)">
      <g id="Group_39521" data-name="Group 39521" transform="translate(57 515.199)" opacity="0.272">
        <circle id="Ellipse_1999" data-name="Ellipse 1999" cx="26.491" cy="26.491" r="26.491" transform="translate(6.909 0)" fill="#2d6759"/>
        <path id="Path_25533" data-name="Path 25533" d="M2.269,4.539A2.269,2.269,0,1,0,0,2.269,2.27,2.27,0,0,0,2.269,4.539Z" transform="translate(41.752 55.417) rotate(39)" fill="#2d6759"/>
        <path id="Path_25534" data-name="Path 25534" d="M1.55,3.1A1.55,1.55,0,1,0,0,1.55,1.55,1.55,0,0,0,1.55,3.1Z" transform="translate(49.56 52.196) rotate(39)" fill="#2d6759"/>
        <path id="Path_25535" data-name="Path 25535" d="M15.162,6.015a2.878,2.878,0,1,0-2.878-2.878A2.878,2.878,0,0,0,15.162,6.015Z" transform="translate(-12.284 13.115)" fill="#2d6759"/>
      </g>
      <g id="Group_39533" data-name="Group 39533" transform="matrix(0.799, -0.602, 0.602, 0.799, 173.517, 478.396)" opacity="0.272">
        <circle id="Ellipse_1999-2" data-name="Ellipse 1999" cx="9.803" cy="9.803" r="9.803" transform="translate(0 0)" fill="#2d6759"/>
        <path id="Path_25533-2" data-name="Path 25533" d="M.84,0A.84.84,0,1,1,0,.84.84.84,0,0,1,.84,0Z" transform="translate(7.769 21.811) rotate(141)" fill="#2d6759"/>
        <path id="Path_25534-2" data-name="Path 25534" d="M.573,0A.573.573,0,1,1,0,.573.574.574,0,0,1,.573,0Z" transform="translate(4.545 20.205) rotate(141)" fill="#2d6759"/>
        <path id="Path_25535-2" data-name="Path 25535" d="M1.065,2.13A1.065,1.065,0,1,1,2.13,1.065,1.065,1.065,0,0,1,1.065,2.13Z" transform="translate(20.032 4.949)" fill="#2d6759"/>
      </g>
      <g id="Ellipse_2007" data-name="Ellipse 2007" transform="translate(86.133 461)" fill="#f7f2ec" stroke="#002c27" stroke-width="2">
        <circle cx="51.657" cy="51.657" r="51.657" stroke="none"/>
        <circle cx="51.657" cy="51.657" r="50.657" fill="none"/>
      </g>
      <g id="Group_39720" data-name="Group 39720" transform="translate(90.256 465.396)">
        <g id="Group_39719" data-name="Group 39719" transform="translate(0 0)">
          <path id="Path_27264" data-name="Path 27264" d="M490.284,1198.9a47.732,47.732,0,0,1-14.2,34.044,47.11,47.11,0,0,1-33.48,13.73,47.775,47.775,0,1,1,47.681-47.774Z" transform="translate(-394.923 -1151.13)" fill="#2d6759"/>
        </g>
      </g>
      <g id="Ellipse_2008" data-name="Ellipse 2008" transform="translate(93.826 468.694)" fill="#f7f2ec" stroke="#002c27" stroke-width="2">
        <circle cx="43.964" cy="43.964" r="43.964" stroke="none"/>
        <circle cx="43.964" cy="43.964" r="42.964" fill="none"/>
      </g>
      <g id="Rectangle_7600" data-name="Rectangle 7600" transform="translate(100.462 550.421) rotate(-90)" fill="none" stroke="#002c27" stroke-width="1.5" stroke-dasharray="1.5 1.5">
        <rect width="75.19" height="75.19" rx="37.595" stroke="none"/>
        <rect x="0.75" y="0.75" width="73.69" height="73.69" rx="36.845" fill="none"/>
      </g>
    </g>
    <path id="comment_minus" data-name="comment minus" d="M2,6.679A3.674,3.674,0,0,1,5.681,3H22.849a3.682,3.682,0,0,1,3.679,3.679V23.847a1.23,1.23,0,0,1-1.913,1.018L19.4,21.382H5.669A3.682,3.682,0,0,1,1.99,17.7V6.667Zm9.2,7.358h6.131V11.584H11.2Z" transform="translate(147.471 524.928)" fill="#2d6759" fill-rule="evenodd"/>
  </g>
</svg>
