<svg width="26" height="35" viewBox="0 0 26 35" fill="none" xmlns="http://www.w3.org/2000/svg">
<path d="M21.3992 2.695H19.238C19.1435 1.95257 18.8018 1.27142 18.2756 0.776434C17.7493 0.281446 17.0738 0.00578925 16.3728 0H9.62722C8.92624 0.00578925 8.25069 0.281446 7.72444 0.776434C7.19818 1.27142 6.85648 1.95257 6.76199 2.695H4.58441C3.36855 2.695 2.2025 3.21125 1.34276 4.13018C0.483025 5.04911 2.92397e-05 6.29544 2.92397e-05 7.595V30.0825C-0.00212579 30.7274 0.114862 31.3665 0.344284 31.963C0.573705 32.5595 0.911046 33.1018 1.33696 33.5586C1.76287 34.0155 2.26898 34.378 2.82625 34.6253C3.38352 34.8727 3.981 35 4.58441 35H21.3992C22.6194 35 23.7897 34.4819 24.6525 33.5597C25.5153 32.6375 26 31.3867 26 30.0825V7.595C26 6.95005 25.8809 6.31144 25.6495 5.7158C25.4181 5.12016 25.0789 4.57921 24.6515 4.12397C24.224 3.66874 23.7167 3.30817 23.1586 3.06296C22.6005 2.81774 22.0027 2.6927 21.3992 2.695ZM9.18516 12.0925C9.18092 12.4392 9.05018 12.7704 8.82081 13.0156C8.59143 13.2607 8.28156 13.4005 7.9572 13.405H6.31992C5.99425 13.405 5.68191 13.2667 5.45162 13.0206C5.22134 12.7744 5.09196 12.4406 5.09196 12.0925C5.09196 11.7444 5.22134 11.4106 5.45162 11.1644C5.68191 10.9183 5.99425 10.78 6.31992 10.78H7.9572C8.28156 10.7845 8.59143 10.9243 8.82081 11.1694C9.05018 11.4146 9.18092 11.7458 9.18516 12.0925ZM5.02647 26.495C5.03071 26.1483 5.16145 25.8171 5.39082 25.5719C5.6202 25.3268 5.93007 25.187 6.25443 25.1825H19.7292C20.0549 25.1825 20.3672 25.3208 20.5975 25.5669C20.8278 25.8131 20.9572 26.1469 20.9572 26.495C20.9572 26.8431 20.8278 27.1769 20.5975 27.4231C20.3672 27.6692 20.0549 27.8075 19.7292 27.8075H6.25443C5.93007 27.803 5.6202 27.6632 5.39082 27.4181C5.16145 27.1729 5.03071 26.8417 5.02647 26.495ZM19.762 20.5975H6.25443C5.92876 20.5975 5.61642 20.4592 5.38613 20.2131C5.15585 19.9669 5.02647 19.6331 5.02647 19.285C5.02647 18.9369 5.15585 18.6031 5.38613 18.3569C5.61642 18.1108 5.92876 17.9725 6.25443 17.9725H19.7292C20.0549 17.9725 20.3672 18.1108 20.5975 18.3569C20.8278 18.6031 20.9572 18.9369 20.9572 19.285C20.9572 19.6331 20.8278 19.9669 20.5975 20.2131C20.3672 20.4592 20.0549 20.5975 19.7292 20.5975H19.762ZM9.2179 3.0975C9.2179 2.97219 9.26448 2.852 9.34738 2.76339C9.43028 2.67478 9.54272 2.625 9.65997 2.625H16.4056C16.5215 2.62935 16.6316 2.68053 16.7136 2.76822C16.7957 2.8559 16.8435 2.97357 16.8476 3.0975V4.8475C16.8477 4.97448 16.8016 5.09653 16.7192 5.18794C16.6367 5.27935 16.5243 5.33297 16.4056 5.3375H9.62722C9.56776 5.33754 9.50891 5.32477 9.45418 5.29994C9.39945 5.2751 9.34997 5.23873 9.3087 5.19298C9.26743 5.14723 9.23522 5.09306 9.21399 5.0337C9.19276 4.97434 9.18296 4.91101 9.18516 4.8475L9.2179 3.0975Z" fill="#2D6759"/>
</svg>
