<svg width="24" height="22" viewBox="0 0 24 22" fill="none" xmlns="http://www.w3.org/2000/svg">
<path d="M16.5898 0C17.0855 2.39986e-05 17.5725 0.133492 18.002 0.38702C18.4314 0.640548 18.7882 1.00522 19.0365 1.44447L23.6196 9.54974C23.8688 9.99048 24 10.4907 24 11C24 11.5093 23.8688 12.0095 23.6196 12.4503L19.0365 20.5555C18.7882 20.9948 18.4314 21.3595 18.002 21.613C17.5725 21.8665 17.0855 22 16.5898 22H7.41018C6.91447 22 6.42747 21.8665 5.99803 21.613C5.56859 21.3595 5.2118 20.9948 4.96345 20.5555L0.380419 12.4503C0.131222 12.0095 0 11.5093 0 11C0 10.4907 0.131222 9.99048 0.380419 9.54974L4.96345 1.44447C5.2118 1.00522 5.56859 0.640548 5.99803 0.38702C6.42747 0.133492 6.91447 2.39986e-05 7.41018 0L16.5898 0Z" fill="#2D6759"/>
<path fill-rule="evenodd" clip-rule="evenodd" d="M11.3254 10.3093V6.36842H12.8651V10.3093H16.7142V11.8858H12.8645V15.8267H11.3254V11.8852H7.47629V10.3093H11.3254Z" fill="#FDF7F0"/>
</svg>
