<svg width="25" height="24" viewBox="0 0 25 24" fill="none" xmlns="http://www.w3.org/2000/svg">
<g clip-path="url(#clip0_8844_28177)">
<path d="M21 5.39932C21 5.04587 20.8596 4.7069 20.6097 4.45697C20.3597 4.20704 20.0208 4.06663 19.6673 4.06663L9.0058 4C8.65234 4 8.31337 4.14041 8.06344 4.39034C7.81351 4.64026 7.67311 4.97924 7.67311 5.33269C7.67311 5.68614 7.81351 6.02512 8.06344 6.27504C8.31337 6.52497 8.65234 6.66538 9.0058 6.66538H16.4155L5.39421 17.7134C5.2693 17.8373 5.17015 17.9847 5.10249 18.1471C5.03483 18.3095 5 18.4837 5 18.6596C5 18.8355 5.03483 19.0097 5.10249 19.1721C5.17015 19.3345 5.2693 19.4819 5.39421 19.6058C5.5181 19.7307 5.66549 19.8298 5.8279 19.8975C5.9903 19.9652 6.16449 20 6.34042 20C6.51635 20 6.69054 19.9652 6.85294 19.8975C7.01534 19.8298 7.16274 19.7307 7.28663 19.6058L18.3346 8.5578V15.9942C18.3346 16.3477 18.475 16.6866 18.725 16.9366C18.9749 17.1865 19.3139 17.3269 19.6673 17.3269C20.0208 17.3269 20.3597 17.1865 20.6097 16.9366C20.8596 16.6866 21 16.3477 21 15.9942V5.39932Z" fill="#F7F2EC"/>
</g>
<defs>
<clipPath id="clip0_8844_28177">
<rect width="24" height="24" fill="white" transform="translate(0.5)"/>
</clipPath>
</defs>
</svg>
