<svg width="25" height="24" viewBox="0 0 25 24" fill="none" xmlns="http://www.w3.org/2000/svg">
<g clip-path="url(#clip0_8844_28183)">
<path d="M5 18.6007C5 18.9541 5.14041 19.2931 5.39033 19.543C5.64026 19.793 5.97924 19.9334 6.33269 19.9334L16.9942 20C17.3477 20 17.6866 19.8596 17.9366 19.6097C18.1865 19.3597 18.3269 19.0208 18.3269 18.6673C18.3269 18.3139 18.1865 17.9749 17.9366 17.725C17.6866 17.475 17.3477 17.3346 16.9942 17.3346H9.58445L20.6058 6.28662C20.7307 6.16273 20.8298 6.01534 20.8975 5.85294C20.9652 5.69054 21 5.51635 21 5.34042C21 5.16449 20.9652 4.9903 20.8975 4.8279C20.8298 4.66549 20.7307 4.5181 20.6058 4.39421C20.4819 4.2693 20.3345 4.17015 20.1721 4.10249C20.0097 4.03483 19.8355 4 19.6596 4C19.4837 4 19.3095 4.03483 19.1471 4.10249C18.9847 4.17015 18.8373 4.2693 18.7134 4.39421L7.66538 15.4422V8.0058C7.66538 7.65234 7.52497 7.31337 7.27504 7.06344C7.02512 6.81351 6.68614 6.67311 6.33269 6.67311C5.97924 6.67311 5.64026 6.81351 5.39033 7.06344C5.14041 7.31337 5 7.65234 5 8.0058V18.6007Z" fill="#F7F2EC"/>
</g>
<defs>
<clipPath id="clip0_8844_28183">
<rect width="24" height="24" fill="white" transform="translate(0.5)"/>
</clipPath>
</defs>
</svg>
