<svg xmlns="http://www.w3.org/2000/svg" xmlns:xlink="http://www.w3.org/1999/xlink" width="166.644" height="117.91" viewBox="0 0 166.644 117.91">
  <defs>
    <linearGradient id="linear-gradient" x1="0.5" x2="0.5" y2="1" gradientUnits="objectBoundingBox">
      <stop offset="0" stop-color="#00836a"/>
      <stop offset="1" stop-color="#073e39"/>
    </linearGradient>
    <linearGradient id="linear-gradient-6" y1="1" y2="0" xlink:href="#linear-gradient"/>
  </defs>
  <g id="illustration" transform="translate(-77 -518.09)">
    <g id="face_ID" data-name="face ID" transform="translate(28 11.09)">
      <g id="Group_39521" data-name="Group 39521" transform="translate(49 562.092)" opacity="0.272">
        <circle id="Ellipse_1999" data-name="Ellipse 1999" cx="26.928" cy="26.928" r="26.928" transform="translate(7.023 0)" fill="url(#linear-gradient)"/>
        <path id="Path_25533" data-name="Path 25533" d="M2.307,4.614A2.307,2.307,0,1,0,0,2.307,2.307,2.307,0,0,0,2.307,4.614Z" transform="translate(42.44 56.329) rotate(39)" fill="url(#linear-gradient)"/>
        <path id="Path_25534" data-name="Path 25534" d="M1.575,3.151A1.575,1.575,0,1,0,0,1.575,1.576,1.576,0,0,0,1.575,3.151Z" transform="translate(50.376 53.056) rotate(39)" fill="url(#linear-gradient)"/>
        <path id="Path_25535" data-name="Path 25535" d="M15.209,6.11a2.926,2.926,0,1,0-2.926-2.926A2.926,2.926,0,0,0,15.209,6.11Z" transform="translate(-12.284 13.335)" fill="url(#linear-gradient)"/>
      </g>
      <g id="Group_39533" data-name="Group 39533" transform="matrix(0.799, -0.602, 0.602, 0.799, 187.736, 590.997)" opacity="0.272">
        <circle id="Ellipse_1999-2" data-name="Ellipse 1999" cx="9.964" cy="9.964" r="9.964" transform="translate(0 0)" fill="url(#linear-gradient)"/>
        <path id="Path_25533-2" data-name="Path 25533" d="M.854,0A.854.854,0,1,1,0,.854.854.854,0,0,1,.854,0Z" transform="translate(7.897 22.17) rotate(141)" fill="url(#linear-gradient-6)"/>
        <path id="Path_25534-2" data-name="Path 25534" d="M.583,0A.583.583,0,1,1,0,.583.583.583,0,0,1,.583,0Z" transform="translate(4.62 20.538) rotate(141)" fill="url(#linear-gradient-6)"/>
        <path id="Path_25535-2" data-name="Path 25535" d="M1.083,2.165A1.083,1.083,0,1,1,2.165,1.083,1.083,1.083,0,0,1,1.083,2.165Z" transform="translate(20.361 5.03)" fill="url(#linear-gradient)"/>
      </g>
      <g id="Ellipse_2007" data-name="Ellipse 2007" transform="translate(86.612 507)" fill="#f7f2ec" stroke="#002c27" stroke-width="2">
        <circle cx="52.508" cy="52.508" r="52.508" stroke="none"/>
        <circle cx="52.508" cy="52.508" r="51.508" fill="none"/>
      </g>
      <g id="Group_39720" data-name="Group 39720" transform="translate(90.804 511.469)">
        <g id="Group_39719" data-name="Group 39719" transform="translate(0 0)">
          <path id="Path_27264" data-name="Path 27264" d="M491.855,1199.692a48.518,48.518,0,0,1-14.435,34.6,47.886,47.886,0,0,1-34.031,13.957,48.561,48.561,0,1,1,48.466-48.561Z" transform="translate(-394.923 -1151.13)" fill="url(#linear-gradient)"/>
        </g>
      </g>
      <g id="Ellipse_2008" data-name="Ellipse 2008" transform="translate(94.433 514.82)" fill="#f7f2ec" stroke="#002c27" stroke-width="2">
        <circle cx="44.688" cy="44.688" r="44.688" stroke="none"/>
        <circle cx="44.688" cy="44.688" r="43.688" fill="none"/>
      </g>
      <g id="Rectangle_7600" data-name="Rectangle 7600" transform="translate(101.178 597.894) rotate(-90)" fill="none" stroke="#002c27" stroke-width="1.5" stroke-dasharray="1.5 1.5">
        <rect width="76.428" height="76.428" rx="38.214" stroke="none"/>
        <rect x="0.75" y="0.75" width="74.928" height="74.928" rx="37.464" fill="none"/>
      </g>
      <g id="Group_23702" data-name="Group 23702" transform="translate(76.333 281.57)">
        <g id="Group_23667" data-name="Group 23667" transform="translate(41.544 256.695)">
          <g id="Group_23666" data-name="Group 23666">
            <path id="Path_16523" data-name="Path 16523" d="M26.342,5.1A21.242,21.242,0,1,1,5.1,26.342,21.271,21.271,0,0,1,26.342,5.1Z" transform="translate(-5.1 -5.1)" fill="url(#linear-gradient)"/>
          </g>
        </g>
      </g>
      <path id="icon_badbank" d="M13.356,3a10.261,10.261,0,0,0-4.332.957.87.87,0,0,0-.386,1.221l3,5.2a3.345,3.345,0,0,1,3.436,0l3-5.2a.867.867,0,0,0-.384-1.219A10.272,10.272,0,0,0,13.356,3Zm0,8.624a1.725,1.725,0,1,0,1.725,1.725A1.724,1.724,0,0,0,13.356,11.624ZM3.92,13.349a.871.871,0,0,0-.862.955A10.275,10.275,0,0,0,7.38,21.789a.871.871,0,0,0,1.258-.269l3-5.2a3.434,3.434,0,0,1-1.733-2.975Zm12.885,0a3.434,3.434,0,0,1-1.732,2.975l3,5.2a.871.871,0,0,0,1.258.269A10.275,10.275,0,0,0,23.654,14.3a.871.871,0,0,0-.862-.955Z" transform="translate(125.764 546.033)" fill="#fff"/>
    </g>
    <g id="illustration_battery" transform="translate(-6.903 44.977)">
      <g id="Group_45007" data-name="Group 45007" transform="translate(205.973 507.093)">
        <path id="Path_25555" data-name="Path 25555" d="M95.055,107.21A18.255,18.255,0,1,1,113.31,88.955,18.286,18.286,0,0,1,95.055,107.21Z" transform="translate(-76.8 -70.7)" fill="#f7f2ec"/>
      </g>
      <g id="Group_39530" data-name="Group 39530" transform="translate(205.973 507.093)">
        <g id="Path_25555-2" data-name="Path 25555" transform="translate(-76.8 -70.7)" fill="#002c27">
          <path d="M 95.05504608154297 110.2101135253906 C 83.33497619628906 110.2101135253906 73.79999542236328 100.6751327514648 73.79999542236328 88.95504760742188 C 73.79999542236328 77.23497772216797 83.33497619628906 67.69999694824219 95.05504608154297 67.69999694824219 C 106.7751235961914 67.69999694824219 116.3101043701172 77.23497772216797 116.3101043701172 88.95504760742188 L 116.3101043701172 88.96026611328125 L 116.3100814819336 88.96549224853516 C 116.3001022338867 91.83026885986328 115.7299957275391 94.61152648925781 114.6155853271484 97.23200225830078 C 113.5401153564453 99.76093292236328 112.0059967041016 102.0320129394531 110.0558471679688 103.9821624755859 C 108.10498046875 105.9330368041992 105.835205078125 107.4653244018555 103.3095550537109 108.5364837646484 C 100.6910552978516 109.6470260620117 97.91383361816406 110.2101135253906 95.05504608154297 110.2101135253906 Z M 95.05504608154297 74.85849761962891 C 87.28217315673828 74.85849761962891 80.95848083496094 81.18218231201172 80.95848083496094 88.95504760742188 C 80.95848083496094 96.72791290283203 87.28217315673828 103.0516052246094 95.05504608154297 103.0516052246094 C 102.8279037475586 103.0516052246094 109.1515960693359 96.72791290283203 109.1515960693359 88.95504760742188 C 109.1515960693359 81.18218231201172 102.8279037475586 74.85849761962891 95.05504608154297 74.85849761962891 Z" stroke="none"/>
          <path d="M 95.05504608154297 107.2101135253906 C 105.095344543457 107.2101135253906 113.2750091552734 99.03041839599609 113.3101119995117 88.95504760742188 C 113.3101119995117 78.87965393066406 105.095344543457 70.69999694824219 95.05504608154297 70.69999694824219 C 84.97966766357422 70.69999694824219 76.79999542236328 78.91476440429688 76.79999542236328 88.95504760742188 C 76.79999542236328 99.03041839599609 85.01477813720703 107.2101135253906 95.05504608154297 107.2101135253906 M 95.05504608154297 71.85849761962891 C 104.4985122680664 71.85849761962891 112.1515960693359 79.54666900634766 112.1515960693359 88.95504760742188 C 112.1515960693359 98.39853668212891 104.4985122680664 106.0516128540039 95.05504608154297 106.0516128540039 C 85.64666748046875 106.0516128540039 77.95848846435547 98.39853668212891 77.95848846435547 88.95504760742188 C 77.95848846435547 79.51157379150391 85.61155700683594 71.85849761962891 95.05504608154297 71.85849761962891 M 95.05504608154297 113.2101135253906 C 81.68076324462891 113.2101135253906 70.79999542236328 102.3293304443359 70.79999542236328 88.95504760742188 C 70.79999542236328 75.58076477050781 81.68076324462891 64.69999694824219 95.05504608154297 64.69999694824219 C 108.429328918457 64.69999694824219 119.3101119995117 75.58076477050781 119.3101119995117 88.95504760742188 C 119.2635192871094 102.3387145996094 108.3827514648438 113.2101135253906 95.05504608154297 113.2101135253906 Z M 95.05504608154297 77.85849761962891 C 88.93637847900391 77.85849761962891 83.95848846435547 82.83638763427734 83.95848846435547 88.95504760742188 C 83.95848846435547 95.07370758056641 88.93637847900391 100.0516128540039 95.05504608154297 100.0516128540039 C 101.1737060546875 100.0516128540039 106.1515960693359 95.07370758056641 106.1515960693359 88.95504760742188 C 106.1515960693359 82.83638763427734 101.1737060546875 77.85849761962891 95.05504608154297 77.85849761962891 Z" stroke="none" fill="#f7f2ec"/>
        </g>
      </g>
      <g id="Group_39531" data-name="Group 39531" transform="translate(208.346 509.507)">
        <path id="Path_25556" data-name="Path 25556" d="M98.382,108.23c-.377,0-.755,0-1.166-.034l.069-1.1c.549.034,1.1.034,1.647.034l.034,1.1Zm1.784-.069-.137-1.1c.343-.034.72-.1,1.063-.172l.206,1.1C100.921,108.058,100.543,108.093,100.166,108.161Zm-4.082-.069-1.132-.206.24-1.1c.343.069.686.137,1.063.206Zm6.346-.377-.274-1.063,1.029-.309.377,1.063Q102.944,107.561,102.43,107.715Zm-8.61-.137c-.377-.1-.72-.24-1.1-.377l.412-1.029c.343.137.686.24,1.029.343Zm10.771-.617-.446-1.029c.343-.137.652-.309.96-.446l.515.995A9.429,9.429,0,0,1,104.591,106.961Zm-12.9-.206-1.029-.515.549-.96a8.355,8.355,0,0,0,.96.48Zm14.956-.823-.583-.96a7.983,7.983,0,0,0,.892-.583l.652.892C107.3,105.52,106.958,105.726,106.649,105.932Zm-16.98-.309c-.309-.206-.652-.446-.926-.652l.686-.892c.274.206.583.412.858.617Zm18.832-1.029-.72-.858c.274-.24.549-.48.789-.72l.755.789A6.012,6.012,0,0,1,108.5,104.594Zm-20.65-.377c-.274-.24-.549-.515-.823-.789l.789-.789c.24.24.515.515.789.755Zm22.331-1.235-.823-.755c.24-.274.48-.549.686-.823l.892.686C110.7,102.4,110.422,102.707,110.182,102.982Zm-23.943-.412c-.24-.309-.48-.583-.72-.892l.892-.652c.206.274.446.583.652.858Zm25.35-1.406-.926-.617c.206-.309.377-.617.549-.926l.96.549A9.449,9.449,0,0,1,111.589,101.164Zm-26.722-.446c-.206-.309-.377-.652-.583-.995l.995-.515c.172.309.343.617.549.926Zm27.854-1.544-.995-.48a8.633,8.633,0,0,0,.412-.995l1.029.412A7.019,7.019,0,0,1,112.721,99.174ZM83.8,98.66c-.137-.343-.309-.72-.412-1.063l1.063-.377a8.535,8.535,0,0,0,.377.995Zm29.775-1.647-1.063-.343c.1-.343.206-.686.274-1.029l1.1.24ZM83.049,96.5c-.1-.377-.172-.755-.274-1.132l1.1-.206c.069.343.137.686.24,1.029Zm31.044-1.715-1.1-.172c.069-.343.1-.72.137-1.063l1.1.1C114.2,93.994,114.127,94.406,114.093,94.783ZM82.6,94.234,82.5,93.1l1.1-.034a5.585,5.585,0,0,0,.1,1.063Zm31.661-1.749h-1.1v-.1a8.984,8.984,0,0,0-.034-.96l1.1-.069c.034.343.034.686.034,1.029ZM83.6,91.971l-1.1-.034c0-.377.034-.755.069-1.166l1.1.1C83.632,91.25,83.632,91.627,83.6,91.971ZM113,90.324c-.034-.343-.1-.72-.172-1.063l1.1-.24.206,1.132Zm-29.157-.48-1.1-.206c.069-.377.137-.755.24-1.132l1.063.274C83.975,89.123,83.872,89.5,83.838,89.844Zm28.711-1.612c-.1-.343-.206-.686-.343-1.029l1.029-.377c.137.343.24.72.377,1.1Zm-28.2-.48-1.063-.343a7.144,7.144,0,0,1,.412-1.1l1.029.412C84.592,87.065,84.455,87.408,84.352,87.751Zm27.476-1.544c-.137-.309-.309-.652-.48-.96l.96-.549.515,1.029Zm-26.653-.446-.995-.515c.172-.343.343-.686.549-1.029l.96.583A8.932,8.932,0,0,0,85.176,85.762ZM110.8,84.355c-.206-.309-.412-.583-.617-.892l.892-.686a9.432,9.432,0,0,1,.652.96Zm-24.526-.412-.926-.652c.206-.309.446-.617.686-.926l.858.686C86.685,83.361,86.445,83.635,86.273,83.944Zm23.223-1.3c-.24-.274-.48-.515-.72-.789l.789-.789c.274.274.549.549.789.823Zm-21.885-.377-.823-.755.823-.823.755.823C88.091,81.748,87.851,82.023,87.611,82.263Zm20.341-1.132c-.274-.24-.549-.446-.823-.652l.652-.892c.309.24.617.48.892.72Zm-18.764-.309-.686-.858c.309-.24.617-.48.926-.686l.617.926A4.93,4.93,0,0,0,89.189,80.822Zm17.048-.96c-.309-.206-.617-.377-.926-.549l.515-.995a9.451,9.451,0,0,1,.995.583Zm-15.3-.274-.549-.96c.343-.206.686-.377,1.029-.549l.48.995C91.556,79.244,91.247,79.416,90.938,79.587Zm13.412-.755c-.309-.137-.652-.274-.995-.412l.377-1.063a9.874,9.874,0,0,1,1.063.446Zm-11.491-.172-.412-1.029a10.309,10.309,0,0,1,1.1-.377l.343,1.063A6.037,6.037,0,0,0,92.859,78.661Zm9.468-.549c-.343-.1-.686-.172-1.029-.24l.206-1.1c.377.069.755.172,1.132.274Zm-7.409-.1-.274-1.1c.377-.1.755-.172,1.132-.24l.171,1.1C95.6,77.838,95.261,77.906,94.918,78.009Zm5.317-.309c-.343-.034-.72-.069-1.063-.1l.069-1.1,1.132.1Zm-3.224-.034-.1-1.1c.377-.034.755-.069,1.166-.069l.034,1.1C97.73,77.6,97.387,77.632,97.01,77.666Z" transform="translate(-82.5 -76.5)" fill="#002c27"/>
      </g>
      <ellipse id="Ellipse_2006" data-name="Ellipse 2006" cx="11.507" cy="11.507" rx="11.507" ry="11.507" transform="translate(212.804 513.893)" fill="url(#linear-gradient)"/>
    </g>
    <path id="Path" d="M11.478,3.913H5.762L6.8,2.871A1.683,1.683,0,0,0,4.413.494L.491,4.424A1.681,1.681,0,0,0,.509,6.817l4.019,3.9A1.683,1.683,0,0,0,6.879,8.308L5.8,7.279h5.678a1.684,1.684,0,0,0,0-3.366Z" transform="translate(223.881 575.922) rotate(180)" fill="#fff"/>
  </g>
</svg>
