<svg width="17" height="16" viewBox="0 0 17 16" fill="none" xmlns="http://www.w3.org/2000/svg">
<path d="M16.5 1.39932C16.5 1.04587 16.3596 0.706898 16.1097 0.45697C15.8597 0.207042 15.5208 0.0666347 15.1673 0.0666347L4.5058 0C4.15234 0 3.81337 0.140408 3.56344 0.390336C3.31351 0.640264 3.17311 0.979238 3.17311 1.33269C3.17311 1.68614 3.31351 2.02512 3.56344 2.27504C3.81337 2.52497 4.15234 2.66538 4.5058 2.66538H11.9155L0.894207 13.7134C0.769296 13.8373 0.670152 13.9847 0.602493 14.1471C0.534834 14.3095 0.5 14.4837 0.5 14.6596C0.5 14.8355 0.534834 15.0097 0.602493 15.1721C0.670152 15.3345 0.769296 15.4819 0.894207 15.6058C1.0181 15.7307 1.16549 15.8298 1.3279 15.8975C1.4903 15.9652 1.66449 16 1.84042 16C2.01635 16 2.19054 15.9652 2.35294 15.8975C2.51534 15.8298 2.66274 15.7307 2.78663 15.6058L13.8346 4.5578V11.9942C13.8346 12.3477 13.975 12.6866 14.225 12.9366C14.4749 13.1865 14.8139 13.3269 15.1673 13.3269C15.5208 13.3269 15.8597 13.1865 16.1097 12.9366C16.3596 12.6866 16.5 12.3477 16.5 11.9942V1.39932Z" fill="#F6F2ED"/>
</svg>
