<svg width="24" height="31" viewBox="0 0 24 31" fill="none" xmlns="http://www.w3.org/2000/svg">
<path d="M4.44332 19.556H19.5567C20.7351 19.556 21.8653 19.0879 22.6986 18.2546C23.5319 17.4213 24 16.2911 24 15.1127C24 13.9343 23.5319 12.8041 22.6986 11.9708C21.8653 11.1375 20.7351 10.6694 19.5567 10.6694H4.44332C3.85982 10.6694 3.28203 10.7843 2.74294 11.0076C2.20385 11.2309 1.71402 11.5582 1.30142 11.9708C0.888819 12.3834 0.561526 12.8732 0.338228 13.4123C0.11493 13.9514 0 14.5292 0 15.1127C0 15.6962 0.11493 16.274 0.338228 16.8131C0.561526 17.3522 0.888819 17.842 1.30142 18.2546C1.71402 18.6672 2.20385 18.9945 2.74294 19.2178C3.28203 19.4411 3.85982 19.556 4.44332 19.556ZM5.57683 13.7374C5.89506 13.7374 6.20343 13.8478 6.44939 14.0497C6.69536 14.2516 6.86368 14.5326 6.92568 14.8447C6.98769 15.1569 6.93953 15.4808 6.78941 15.7614C6.6393 16.042 6.39653 16.2619 6.10246 16.3836C5.8084 16.5052 5.48125 16.5211 5.17678 16.4286C4.8723 16.336 4.60934 16.1408 4.43271 15.876C4.25607 15.6113 4.17671 15.2936 4.20813 14.9769C4.23956 14.6602 4.37983 14.3642 4.60504 14.1394C4.86292 13.8819 5.21243 13.7374 5.57683 13.7374ZM20.3426 15.1127C20.3426 15.3772 20.2375 15.631 20.0504 15.818C19.8633 16.0051 19.6096 16.1102 19.3451 16.1102H15.6574C15.3929 16.1102 15.1392 16.0051 14.9521 15.818C14.765 15.631 14.6599 15.3772 14.6599 15.1127C14.6599 14.8481 14.765 14.5944 14.9521 14.4074C15.1392 14.2203 15.3929 14.1152 15.6574 14.1152H19.3451C19.6096 14.1152 19.8633 14.2203 20.0504 14.4074C20.2375 14.5944 20.3426 14.8481 20.3426 15.1127Z" fill="#2F4F4F"/>
<path d="M4.44332 8.88665H19.5567C20.7351 8.88665 21.8653 8.41851 22.6986 7.58523C23.5319 6.75194 24 5.62177 24 4.44333C24 3.26488 23.5319 2.1347 22.6986 1.30142C21.8653 0.468135 20.7351 0 19.5567 0H4.44332C3.26488 0 2.1347 0.468135 1.30142 1.30142C0.468134 2.1347 0 3.26488 0 4.44333C0 5.62177 0.468134 6.75194 1.30142 7.58523C2.1347 8.41851 3.26488 8.88665 4.44332 8.88665ZM5.57683 3.02267C5.89503 3.02234 6.2035 3.13237 6.44968 3.33399C6.69585 3.53561 6.8645 3.81636 6.92687 4.12839C6.98925 4.44042 6.94149 4.76443 6.79175 5.04519C6.64201 5.32596 6.39954 5.54612 6.10566 5.66815C5.81179 5.79018 5.48469 5.80653 5.18011 5.71441C4.87553 5.6223 4.61232 5.42742 4.43532 5.16298C4.25832 4.89855 4.1785 4.58092 4.20944 4.26423C4.24039 3.94753 4.3802 3.65136 4.60504 3.4262C4.86267 3.16819 5.21221 3.02304 5.57683 3.02267ZM20.3426 4.39798C20.3426 4.66253 20.2375 4.91625 20.0504 5.10331C19.8633 5.29037 19.6096 5.39547 19.3451 5.39547H15.6574C15.5264 5.39547 15.3967 5.36967 15.2757 5.31954C15.1547 5.26941 15.0447 5.19594 14.9521 5.10331C14.8595 5.01069 14.786 4.90072 14.7359 4.7797C14.6858 4.65868 14.6599 4.52898 14.6599 4.39798C14.6599 4.26699 14.6858 4.13729 14.7359 4.01627C14.786 3.89525 14.8595 3.78528 14.9521 3.69266C15.0447 3.60003 15.1547 3.52656 15.2757 3.47643C15.3967 3.4263 15.5264 3.4005 15.6574 3.4005H19.3451C19.48 3.40036 19.6135 3.42759 19.7376 3.48053C19.8617 3.53347 19.9737 3.61102 20.0669 3.7085C20.1602 3.80598 20.2327 3.92136 20.2801 4.04767C20.3274 4.17397 20.3487 4.30857 20.3426 4.44333V4.39798Z" fill="#2F4F4F"/>
<path d="M4.44332 30.2267H19.5567C20.7351 30.2267 21.8653 29.7586 22.6986 28.9253C23.5319 28.092 24 26.9618 24 25.7834C24 24.6049 23.5319 23.4748 22.6986 22.6415C21.8653 21.8082 20.7351 21.3401 19.5567 21.3401H4.44332C3.85982 21.3401 3.28203 21.455 2.74294 21.6783C2.20385 21.9016 1.71402 22.2289 1.30142 22.6415C0.888819 23.0541 0.561526 23.5439 0.338228 24.083C0.11493 24.6221 0 25.1999 0 25.7834C0 26.3669 0.11493 26.9447 0.338228 27.4838C0.561526 28.0229 0.888819 28.5127 1.30142 28.9253C1.71402 29.3379 2.20385 29.6652 2.74294 29.8885C3.28203 30.1118 3.85982 30.2267 4.44332 30.2267ZM5.57683 24.4081C5.89503 24.4077 6.2035 24.5178 6.44968 24.7194C6.69585 24.921 6.8645 25.2018 6.92687 25.5138C6.98925 25.8258 6.94149 26.1498 6.79175 26.4306C6.64201 26.7114 6.39954 26.9315 6.10566 27.0535C5.81179 27.1756 5.48469 27.1919 5.18011 27.0998C4.87553 27.0077 4.61232 26.8128 4.43532 26.5484C4.25832 26.2839 4.1785 25.9663 4.20944 25.6496C4.24039 25.3329 4.3802 25.0368 4.60504 24.8116C4.86267 24.5536 5.21221 24.4084 5.57683 24.4081ZM20.3426 25.7834C20.3426 26.0479 20.2375 26.3016 20.0504 26.4887C19.8633 26.6758 19.6096 26.7809 19.3451 26.7809H15.6574C15.3929 26.7809 15.1392 26.6758 14.9521 26.4887C14.765 26.3016 14.6599 26.0479 14.6599 25.7834C14.6599 25.5188 14.765 25.2651 14.9521 25.0781C15.1392 24.891 15.3929 24.7859 15.6574 24.7859H19.3451C19.6096 24.7859 19.8633 24.891 20.0504 25.0781C20.2375 25.2651 20.3426 25.5188 20.3426 25.7834Z" fill="#2F4F4F"/>
</svg>
