<svg xmlns="http://www.w3.org/2000/svg" width="24.375" height="14.625" viewBox="0 0 24.375 14.625">
  <g id="server_network" data-name="server network" transform="translate(-2 -1)">
    <g id="Group_46837" data-name="Group 46837" transform="translate(2 1)">
      <path id="Path_119863" data-name="Path 119863" d="M2,9.656A3.651,3.651,0,0,1,5.656,6H22.719a3.659,3.659,0,0,1,3.656,3.656v1.219a3.667,3.667,0,0,1-3.656,3.656H5.656A3.659,3.659,0,0,1,2,10.875ZM5.656,8.438A1.207,1.207,0,0,0,4.438,9.656v1.219a1.215,1.215,0,0,0,1.219,1.219H22.719a1.222,1.222,0,0,0,1.219-1.219V9.656a1.215,1.215,0,0,0-1.219-1.219Z" transform="translate(-2 0.094)" fill="#2d6759" fill-rule="evenodd"/>
      <path id="Path_119864" data-name="Path 119864" d="M12.813,10.938H5.5V8.5h7.313Z" transform="translate(-1.234 0.641)" fill="#2d6759" fill-rule="evenodd"/>
      <path id="Path_119865" data-name="Path 119865" d="M2,4.656A3.651,3.651,0,0,1,5.656,1H22.719a3.659,3.659,0,0,1,3.656,3.656V5.875a3.667,3.667,0,0,1-3.656,3.656H5.656A3.659,3.659,0,0,1,2,5.875ZM6.266,6.484h7.313V4.047H6.266Zm13.406,0H21.5V4.047H19.672Z" transform="translate(-2 -1)" fill="#2d6759" fill-rule="evenodd"/>
      <path id="Path_119866" data-name="Path 119866" d="M18.328,10.938H16.5V8.5h1.828Z" transform="translate(1.172 0.641)" fill="#2d6759" fill-rule="evenodd"/>
    </g>
  </g>
</svg>
