<svg width="16" height="21" viewBox="0 0 16 21" fill="none" xmlns="http://www.w3.org/2000/svg">
<path d="M2.96222 13.6373H13.0378C13.8234 13.6373 14.5769 13.3252 15.1324 12.7697C15.6879 12.2142 16 11.4607 16 10.6751C16 9.88948 15.6879 9.13603 15.1324 8.5805C14.5769 8.02498 13.8234 7.71289 13.0378 7.71289H2.96222C2.57321 7.71289 2.18802 7.78951 1.82863 7.93838C1.46923 8.08724 1.14268 8.30544 0.867613 8.5805C0.592546 8.85557 0.37435 9.18212 0.225485 9.54152C0.0766198 9.90091 0 10.2861 0 10.6751C0 11.0641 0.0766198 11.4493 0.225485 11.8087C0.37435 12.1681 0.592546 12.4946 0.867613 12.7697C1.14268 13.0448 1.46923 13.263 1.82863 13.4118C2.18802 13.5607 2.57321 13.6373 2.96222 13.6373ZM3.71788 9.75823C3.93004 9.75825 4.13562 9.83183 4.2996 9.96645C4.46357 10.1011 4.57579 10.2884 4.61712 10.4965C4.65846 10.7046 4.62635 10.9205 4.52628 11.1076C4.4262 11.2947 4.26435 11.4412 4.06831 11.5223C3.87227 11.6034 3.65417 11.6141 3.45118 11.5524C3.2482 11.4907 3.07289 11.3605 2.95514 11.184C2.83738 11.0075 2.78447 10.7957 2.80542 10.5846C2.82637 10.3735 2.91989 10.1761 3.07002 10.0262C3.24195 9.8546 3.47495 9.75821 3.71788 9.75823ZM13.5617 10.6751C13.5617 10.8515 13.4917 11.0206 13.3669 11.1453C13.2422 11.27 13.0731 11.3401 12.8967 11.3401H10.4383C10.2619 11.3401 10.0928 11.27 9.96807 11.1453C9.84336 11.0206 9.7733 10.8515 9.7733 10.6751C9.7733 10.4987 9.84336 10.3296 9.96807 10.2049C10.0928 10.0802 10.2619 10.0101 10.4383 10.0101H12.8967C13.0731 10.0101 13.2422 10.0802 13.3669 10.2049C13.4917 10.3296 13.5617 10.4987 13.5617 10.6751Z" fill="#F1F1F1"/>
<path d="M2.96222 6.52404H13.0378C13.8234 6.52404 14.5769 6.21195 15.1324 5.65643C15.6879 5.10091 16 4.34745 16 3.56183C16 2.7762 15.6879 2.02275 15.1324 1.46722C14.5769 0.911699 13.8234 0.599609 13.0378 0.599609H2.96222C2.17659 0.599609 1.42314 0.911699 0.867613 1.46722C0.31209 2.02275 0 2.7762 0 3.56183C0 4.34745 0.31209 5.10091 0.867613 5.65643C1.42314 6.21195 2.17659 6.52404 2.96222 6.52404ZM3.71788 2.61472C3.93002 2.6145 4.13567 2.68785 4.29978 2.82227C4.4639 2.95668 4.57633 3.14385 4.61791 3.35187C4.6595 3.55989 4.62766 3.77589 4.52783 3.96307C4.428 4.15025 4.26636 4.29702 4.07044 4.37837C3.87452 4.45973 3.65646 4.47063 3.45341 4.40922C3.25035 4.34781 3.07488 4.21789 2.95688 4.0416C2.83888 3.86531 2.78566 3.65356 2.8063 3.44243C2.82693 3.2313 2.92013 3.03385 3.07002 2.88374C3.24178 2.71174 3.47481 2.61497 3.71788 2.61472ZM13.5617 3.5316C13.5617 3.70796 13.4917 3.87711 13.3669 4.00182C13.2422 4.12653 13.0731 4.19659 12.8967 4.19659H10.4383C10.351 4.19659 10.2645 4.17939 10.1838 4.14597C10.1031 4.11255 10.0298 4.06357 9.96807 4.00182C9.90632 3.94007 9.85734 3.86676 9.82392 3.78608C9.7905 3.7054 9.7733 3.61893 9.7733 3.5316C9.7733 3.44427 9.7905 3.3578 9.82392 3.27712C9.85734 3.19644 9.90632 3.12313 9.96807 3.06138C10.0298 2.99963 10.1031 2.95065 10.1838 2.91723C10.2645 2.88381 10.351 2.86661 10.4383 2.86661H12.8967C12.9867 2.86652 13.0757 2.88467 13.1584 2.91996C13.2411 2.95525 13.3158 3.00696 13.378 3.07194C13.4401 3.13693 13.4885 3.21385 13.52 3.29805C13.5516 3.38226 13.5658 3.47199 13.5617 3.56183V3.5316Z" fill="#F1F1F1"/>
<path d="M2.96222 20.7506H13.0378C13.8234 20.7506 14.5769 20.4385 15.1324 19.883C15.6879 19.3275 16 18.574 16 17.7884C16 17.0028 15.6879 16.2493 15.1324 15.6938C14.5769 15.1383 13.8234 14.8262 13.0378 14.8262H2.96222C2.57321 14.8262 2.18802 14.9028 1.82863 15.0517C1.46923 15.2005 1.14268 15.4187 0.867613 15.6938C0.592546 15.9689 0.37435 16.2954 0.225485 16.6548C0.0766198 17.0142 0 17.3994 0 17.7884C0 18.1774 0.0766198 18.5626 0.225485 18.922C0.37435 19.2814 0.592546 19.6079 0.867613 19.883C1.14268 20.1581 1.46923 20.3763 1.82863 20.5251C2.18802 20.674 2.57321 20.7506 2.96222 20.7506ZM3.71788 16.8715C3.93002 16.8713 4.13567 16.9446 4.29978 17.0791C4.4639 17.2135 4.57633 17.4006 4.61791 17.6087C4.6595 17.8167 4.62766 18.0327 4.52783 18.2199C4.428 18.407 4.26636 18.5538 4.07044 18.6352C3.87452 18.7165 3.65646 18.7274 3.45341 18.666C3.25035 18.6046 3.07488 18.4747 2.95688 18.2984C2.83888 18.1221 2.78566 17.9103 2.8063 17.6992C2.82693 17.4881 2.92013 17.2906 3.07002 17.1405C3.24178 16.9685 3.47481 16.8718 3.71788 16.8715ZM13.5617 17.7884C13.5617 17.9648 13.4917 18.1339 13.3669 18.2586C13.2422 18.3833 13.0731 18.4534 12.8967 18.4534H10.4383C10.2619 18.4534 10.0928 18.3833 9.96807 18.2586C9.84336 18.1339 9.7733 17.9648 9.7733 17.7884C9.7733 17.612 9.84336 17.4429 9.96807 17.3182C10.0928 17.1935 10.2619 17.1234 10.4383 17.1234H12.8967C13.0731 17.1234 13.2422 17.1935 13.3669 17.3182C13.4917 17.4429 13.5617 17.612 13.5617 17.7884Z" fill="#F1F1F1"/>
</svg>
