<svg width="230" height="180" viewBox="0 0 230 180" fill="none" xmlns="http://www.w3.org/2000/svg">
<g opacity="0.272">
<path d="M51.8265 166.312C74.5285 166.312 92.9322 147.908 92.9322 125.206C92.9322 102.504 74.5285 84.1007 51.8265 84.1007C29.1244 84.1007 10.7207 102.504 10.7207 125.206C10.7207 147.908 29.1244 166.312 51.8265 166.312Z" fill="url(#paint0_linear_11069_20826)"/>
<path d="M63.094 177.782C63.6359 178.221 64.2959 178.489 64.9904 178.553C65.6849 178.616 66.3826 178.472 66.9953 178.139C67.608 177.806 68.1082 177.299 68.4324 176.682C68.7567 176.064 68.8905 175.364 68.817 174.671C68.7434 173.977 68.4657 173.321 68.0192 172.786C67.5726 172.25 66.9771 171.859 66.3082 171.662C65.6392 171.465 64.9268 171.471 64.2612 171.679C63.5955 171.886 63.0065 172.287 62.5686 172.83C61.9825 173.557 61.7086 174.486 61.8071 175.415C61.9056 176.343 62.3684 177.194 63.094 177.782Z" fill="url(#paint1_linear_11069_20826)"/>
<path d="M75.7465 170.343C76.1161 170.643 76.5661 170.826 77.0397 170.869C77.5133 170.913 77.9892 170.815 78.4072 170.588C78.8251 170.361 79.1664 170.015 79.3879 169.594C79.6093 169.173 79.701 168.696 79.6513 168.223C79.6016 167.75 79.4127 167.303 79.1086 166.937C78.8045 166.571 78.3987 166.304 77.9427 166.169C77.4867 166.034 77.0009 166.037 76.5467 166.178C76.0925 166.319 75.6903 166.592 75.391 166.961C74.9896 167.457 74.8016 168.092 74.8683 168.726C74.9349 169.36 75.2508 169.942 75.7465 170.343Z" fill="url(#paint2_linear_11069_20826)"/>
<path d="M4.46599 113.784C5.34928 113.784 6.21273 113.522 6.94716 113.032C7.68159 112.541 8.25401 111.844 8.59203 111.027C8.93005 110.211 9.01849 109.313 8.84617 108.447C8.67384 107.581 8.2485 106.785 7.62392 106.16C6.99934 105.536 6.20358 105.111 5.33726 104.938C4.47094 104.766 3.57298 104.854 2.75693 105.192C1.94088 105.53 1.24338 106.103 0.752655 106.837C0.261926 107.572 0 108.435 0 109.318C0 110.503 0.470522 111.639 1.30806 112.476C2.14559 113.314 3.28154 113.784 4.46599 113.784Z" fill="url(#paint3_linear_11069_20826)"/>
</g>
<g opacity="0.272">
<path d="M211.267 42.1433C217.979 37.0863 219.32 27.5457 214.263 20.8337C209.206 14.1218 199.666 12.7803 192.954 17.8373C186.242 22.8944 184.9 32.435 189.957 39.1469C195.014 45.8588 204.555 47.2004 211.267 42.1433Z" fill="url(#paint4_linear_11069_20826)"/>
<path d="M210.491 48.0428C210.429 48.2928 210.294 48.5188 210.103 48.692C209.912 48.8653 209.674 48.9781 209.42 49.0162C209.165 49.0542 208.904 49.0159 208.671 48.9059C208.438 48.796 208.243 48.6194 208.11 48.3985C207.977 48.1776 207.913 47.9223 207.926 47.6649C207.938 47.4075 208.026 47.1595 208.18 46.9524C208.333 46.7452 208.544 46.5882 208.787 46.5011C209.029 46.4141 209.292 46.4009 209.542 46.4633C209.878 46.5469 210.166 46.7603 210.344 47.0565C210.522 47.3527 210.575 47.7075 210.491 48.0428Z" fill="url(#paint5_linear_11069_20826)"/>
<path d="M205.095 48.6638C205.053 48.8347 204.96 48.989 204.83 49.1074C204.7 49.2258 204.537 49.3029 204.363 49.3289C204.189 49.3549 204.011 49.3287 203.852 49.2536C203.692 49.1784 203.559 49.0578 203.468 48.9069C203.378 48.7559 203.334 48.5815 203.342 48.4056C203.351 48.2298 203.411 48.0603 203.516 47.9188C203.62 47.7773 203.765 47.67 203.931 47.6105C204.096 47.551 204.276 47.542 204.447 47.5846C204.676 47.6418 204.873 47.7876 204.994 47.9899C205.116 48.1923 205.152 48.4347 205.095 48.6638Z" fill="url(#paint6_linear_11069_20826)"/>
<path d="M213.569 16.0639C213.308 16.2607 212.994 16.3757 212.668 16.3942C212.341 16.4127 212.016 16.334 211.734 16.1679C211.453 16.0019 211.226 15.756 211.084 15.4614C210.942 15.1668 210.891 14.8366 210.936 14.5127C210.982 14.1888 211.122 13.8857 211.34 13.6417C211.558 13.3977 211.843 13.2237 212.16 13.1419C212.477 13.06 212.81 13.0739 213.119 13.1817C213.428 13.2896 213.698 13.4866 213.895 13.7478C214.159 14.0982 214.273 14.539 214.212 14.9733C214.15 15.4077 213.919 15.7999 213.569 16.0639Z" fill="url(#paint7_linear_11069_20826)"/>
</g>
<path d="M125.361 160.312C169.63 160.312 205.517 124.425 205.517 80.1558C205.517 35.887 169.63 0 125.361 0C81.0921 0 45.2051 35.887 45.2051 80.1558C45.2051 124.425 81.0921 160.312 125.361 160.312Z" fill="#F6F2ED"/>
<path d="M125.361 159.175C169.002 159.175 204.38 123.797 204.38 80.1558C204.38 36.5149 169.002 1.13696 125.361 1.13696C81.7198 1.13696 46.3418 36.5149 46.3418 80.1558C46.3418 123.797 81.7198 159.175 125.361 159.175Z" stroke="#002C27" stroke-width="2"/>
<path d="M199.576 80.9529C199.591 90.7795 197.65 100.511 193.867 109.58C190.084 118.649 184.534 126.875 177.54 133.778C170.713 140.578 162.609 145.961 153.695 149.617C144.78 153.273 135.23 155.131 125.595 155.084C110.927 155.112 96.5806 150.789 84.371 142.661C72.1615 134.533 62.6376 122.965 57.0047 109.422C51.3718 95.8795 49.8832 80.97 52.7272 66.5807C55.5712 52.1914 62.6199 38.9691 72.9814 28.5874C83.3429 18.2057 96.5514 11.1313 110.935 8.25925C125.319 5.38721 140.231 6.84673 153.785 12.4532C167.339 18.0596 178.925 27.561 187.077 39.7547C195.229 51.9484 199.58 66.2863 199.58 80.954L199.576 80.9529Z" fill="url(#paint8_linear_11069_20826)"/>
<path d="M125.359 131.887C153.929 131.887 177.091 108.726 177.091 80.1557C177.091 51.585 153.929 28.424 125.359 28.424C96.7881 28.424 73.627 51.585 73.627 80.1557C73.627 108.726 96.7881 131.887 125.359 131.887Z" fill="#F6F2ED"/>
<path d="M125.359 130.75C153.301 130.75 175.953 108.098 175.953 80.1557C175.953 52.213 153.301 29.5609 125.359 29.5609C97.4158 29.5609 74.7637 52.213 74.7637 80.1557C74.7637 108.098 97.4158 130.75 125.359 130.75Z" stroke="#002C27" stroke-width="2"/>
<path d="M125.364 110.247C119.521 110.247 113.81 108.514 108.951 105.268C104.093 102.022 100.307 97.4081 98.071 92.0101C95.8351 86.6121 95.25 80.6722 96.3899 74.9417C97.5298 69.2112 100.343 63.9474 104.475 59.8159C108.606 55.6844 113.87 52.8708 119.601 51.731C125.331 50.5911 131.271 51.1761 136.669 53.4121C142.067 55.648 146.681 59.4344 149.927 64.2925C153.173 69.1506 154.906 74.8622 154.906 80.705C154.892 88.5359 151.776 96.0422 146.239 101.58C140.701 107.117 133.195 110.233 125.364 110.247ZM125.364 53.0382C119.892 53.0382 114.543 54.6608 109.993 57.7009C105.443 60.741 101.897 65.0619 99.8031 70.1174C97.7091 75.1728 97.1612 80.7357 98.2287 86.1025C99.2963 91.4694 101.931 96.3991 105.801 100.268C109.67 104.138 114.6 106.773 119.966 107.84C125.333 108.908 130.896 108.36 135.952 106.266C141.007 104.172 145.328 100.626 148.368 96.0759C151.408 91.5261 153.031 86.177 153.031 80.705C153.031 77.0717 152.316 73.4738 150.925 70.117C149.535 66.7602 147.497 63.7101 144.928 61.1409C142.359 58.5718 139.309 56.5339 135.952 55.1436C132.595 53.7533 128.997 53.0379 125.364 53.0382Z" fill="#002C27"/>
<path d="M125.364 107.009C124.739 107.009 124.114 107.009 123.431 106.952L123.545 105.133C124.455 105.19 125.364 105.19 126.274 105.19L126.331 107.009H125.364ZM128.32 106.895L128.093 105.076C128.661 105.019 129.286 104.906 129.854 104.792L130.195 106.611C129.568 106.725 128.943 106.782 128.318 106.895H128.32ZM121.56 106.782L119.685 106.441L120.083 104.621C120.651 104.735 121.22 104.849 121.844 104.963L121.56 106.782ZM132.07 106.156L131.615 104.395L133.321 103.884L133.946 105.645C133.262 105.815 132.635 105.986 132.068 106.156H132.07ZM117.81 105.929C117.185 105.758 116.618 105.531 115.991 105.304L116.673 103.598C117.242 103.826 117.81 103.996 118.379 104.167L117.81 105.929ZM135.649 104.906L134.91 103.2C135.479 102.973 135.989 102.689 136.502 102.461L137.355 104.109C136.802 104.409 136.232 104.675 135.647 104.907L135.649 104.906ZM114.288 104.565L112.582 103.712L113.492 102.12C114.005 102.419 114.537 102.685 115.084 102.916L114.288 104.565ZM139.058 103.2L138.092 101.609C138.606 101.32 139.1 100.998 139.571 100.643L140.65 102.121C140.134 102.52 139.567 102.861 139.055 103.203L139.058 103.2ZM110.936 102.689C110.424 102.348 109.857 101.95 109.402 101.61L110.539 100.132C110.994 100.473 111.505 100.814 111.959 101.155L110.936 102.689ZM142.125 100.983L140.933 99.5631C141.387 99.1652 141.842 98.7673 142.239 98.3704L143.49 99.6768C143.077 100.156 142.619 100.594 142.123 100.987L142.125 100.983ZM107.925 100.358C107.471 99.9599 107.016 99.5051 106.561 99.0515L107.867 97.7451C108.265 98.1431 108.72 98.5978 109.174 98.9958L107.925 100.358ZM144.91 98.3113L143.545 97.0607C143.943 96.6059 144.341 96.1511 144.682 95.6963L146.16 96.8333C145.759 97.3506 145.304 97.8622 144.907 98.317L144.91 98.3113ZM105.256 97.6292C104.858 97.1175 104.46 96.6639 104.063 96.1511L105.541 95.0721C105.882 95.5269 106.28 96.0374 106.62 96.4922L105.256 97.6292ZM147.239 95.2995L145.706 94.2763C146.047 93.7646 146.331 93.253 146.615 92.7425L148.207 93.6521C147.917 94.2224 147.593 94.7745 147.236 95.3052L147.239 95.2995ZM102.983 94.5605C102.642 94.0489 102.358 93.4815 102.018 92.913L103.665 92.0603C103.949 92.5719 104.234 93.0836 104.575 93.5941L102.983 94.5605ZM149.113 92.0035L147.466 91.2076C147.727 90.6732 147.955 90.1229 148.148 89.5601L149.853 90.2423C149.655 90.8511 149.407 91.4424 149.111 92.0103L149.113 92.0035ZM101.222 91.1507C100.995 90.5823 100.71 89.9581 100.54 89.3896L102.301 88.7643C102.475 89.3259 102.684 89.8761 102.926 90.4117L101.222 91.1507ZM150.534 88.422L148.773 87.8536C148.944 87.2851 149.114 86.7166 149.228 86.1481L151.047 86.5461L150.534 88.422ZM99.9724 87.5693C99.8018 86.944 99.6882 86.3187 99.5176 85.6945L101.337 85.3534C101.45 85.9219 101.564 86.4903 101.735 87.0588L99.9724 87.5693ZM151.386 84.7269L149.567 84.4427C149.68 83.8742 149.737 83.25 149.794 82.6815L151.613 82.8521C151.554 83.4319 151.44 84.1141 151.384 84.7394L151.386 84.7269ZM99.2334 83.8173L99.0628 81.9425L100.882 81.8857C100.882 82.4768 100.939 83.0665 101.053 83.6468L99.2334 83.8173ZM151.67 80.9204H149.851V80.7498C149.86 80.2186 149.841 79.6873 149.794 79.1581L151.613 79.0444C151.67 79.6129 151.67 80.1813 151.67 80.7498V80.9204ZM100.88 80.0802L99.0605 80.0233C99.0605 79.398 99.1174 78.7727 99.1742 78.0905L100.993 78.261C100.935 78.8875 100.935 79.5128 100.88 80.0802ZM149.567 77.3515C149.51 76.783 149.396 76.1588 149.282 75.5903L151.102 75.1924L151.443 77.0672L149.567 77.3515ZM101.278 76.5556L99.4585 76.2145C99.5722 75.5892 99.6859 74.9638 99.8564 74.3396L101.618 74.7944C101.504 75.3652 101.334 75.9905 101.276 76.5578L101.278 76.5556ZM148.829 73.886C148.658 73.3175 148.488 72.749 148.26 72.1805L149.966 71.5552C150.193 72.1237 150.364 72.7479 150.591 73.3744L148.829 73.886ZM102.13 73.0901L100.369 72.5216C100.546 71.8976 100.774 71.2892 101.051 70.7025L102.757 71.3847C102.526 71.9566 102.299 72.5251 102.13 73.0924V73.0901ZM147.636 70.5331C147.409 70.0215 147.125 69.4541 146.84 68.9413L148.432 68.0318L149.285 69.7372L147.636 70.5331ZM103.495 69.7975L101.847 68.9448C102.131 68.3763 102.416 67.8078 102.757 67.2393L104.349 68.2046C104.032 68.7177 103.747 69.2496 103.495 69.7975ZM145.933 67.4678C145.592 66.9562 145.251 66.5026 144.91 65.9898L146.388 64.8528C146.78 65.3608 147.14 65.8924 147.467 66.4446L145.933 67.4678ZM105.314 66.7868L103.78 65.7078C104.121 65.1962 104.519 64.6846 104.917 64.1741L106.337 65.311C105.996 65.8204 105.594 66.2752 105.314 66.7868ZM143.775 64.6266C143.377 64.1718 142.979 63.7739 142.582 63.3202L143.889 62.0138C144.344 62.4686 144.798 62.9234 145.195 63.3782L143.775 64.6266ZM107.53 64.0013L106.165 62.7506L107.53 61.3862L108.78 62.7506C108.321 63.1508 107.923 63.6056 107.525 64.0035L107.53 64.0013ZM141.219 62.1264C140.764 61.7285 140.31 61.3874 139.855 61.0474L140.934 59.5694C141.445 59.9673 141.957 60.3653 142.412 60.7621L141.219 62.1264ZM110.139 61.6216L109.002 60.2015C109.514 59.8036 110.025 59.4057 110.536 59.0646L111.559 60.5983C111.051 60.8875 110.574 61.2306 110.139 61.6216ZM138.374 60.0299C137.863 59.6888 137.351 59.4045 136.841 59.1203L137.693 57.4728C138.262 57.7608 138.812 58.0831 139.341 58.4381L138.374 60.0299ZM113.036 59.5751L112.127 57.9833C112.695 57.6422 113.263 57.358 113.832 57.0738L114.628 58.7212C114.058 59.0066 113.548 59.2874 113.036 59.5751ZM135.249 58.3244C134.737 58.097 134.17 57.8696 133.601 57.6422L134.227 55.8811C134.828 56.0929 135.416 56.3397 135.988 56.6201L135.249 58.3244ZM116.217 58.0402L115.535 56.3347C116.129 56.0923 116.737 55.8835 117.354 55.7094L117.923 57.4706C117.338 57.6081 116.768 57.798 116.217 58.0379V58.0402ZM131.897 57.1306C131.329 56.9601 130.76 56.8464 130.192 56.7327L130.533 54.9135C131.158 55.0272 131.783 55.1978 132.408 55.3683L131.897 57.1306ZM119.626 56.9601L119.171 55.1409C119.796 54.9704 120.422 54.8567 121.046 54.743L121.33 56.5621C120.762 56.6747 120.194 56.7884 119.626 56.9601ZM128.432 56.4484C127.863 56.3916 127.239 56.3347 126.671 56.2779L126.784 54.4587L128.659 54.6293L128.432 56.4484ZM123.088 56.3916L122.917 54.5724C123.543 54.5156 124.168 54.4587 124.85 54.4587L124.907 56.2779C124.284 56.2779 123.717 56.3336 123.091 56.3916H123.088Z" fill="#002C27"/>
<path d="M125.344 92.2693C131.649 92.2693 136.76 87.1581 136.76 80.8531C136.76 74.5481 131.649 69.4369 125.344 69.4369C119.039 69.4369 113.928 74.5481 113.928 80.8531C113.928 87.1581 119.039 92.2693 125.344 92.2693Z" fill="#2C6759"/>
<path d="M130.304 75.7301L122.914 83.0158L119.52 79.4343L117.738 81.1227L121.992 85.6126C122.104 85.731 122.239 85.8259 122.388 85.8917C122.537 85.9575 122.698 85.9928 122.861 85.9957H122.882C123.204 85.9954 123.513 85.8684 123.743 85.6421L132.029 77.4776L130.304 75.7301Z" fill="#F6F2ED"/>
<defs>
<linearGradient id="paint0_linear_11069_20826" x1="51.8265" y1="84.1007" x2="51.8265" y2="166.312" gradientUnits="userSpaceOnUse">
<stop stop-color="#00836A"/>
<stop offset="1" stop-color="#073E39"/>
</linearGradient>
<linearGradient id="paint1_linear_11069_20826" x1="67.5301" y1="172.304" x2="63.094" y2="177.782" gradientUnits="userSpaceOnUse">
<stop stop-color="#00836A"/>
<stop offset="1" stop-color="#073E39"/>
</linearGradient>
<linearGradient id="paint2_linear_11069_20826" x1="78.7731" y1="166.606" x2="75.7465" y2="170.343" gradientUnits="userSpaceOnUse">
<stop stop-color="#00836A"/>
<stop offset="1" stop-color="#073E39"/>
</linearGradient>
<linearGradient id="paint3_linear_11069_20826" x1="4.46599" y1="104.852" x2="4.46599" y2="113.784" gradientUnits="userSpaceOnUse">
<stop stop-color="#00836A"/>
<stop offset="1" stop-color="#073E39"/>
</linearGradient>
<linearGradient id="paint4_linear_11069_20826" x1="192.954" y1="17.8373" x2="211.267" y2="42.1433" gradientUnits="userSpaceOnUse">
<stop stop-color="#00836A"/>
<stop offset="1" stop-color="#073E39"/>
</linearGradient>
<linearGradient id="paint5_linear_11069_20826" x1="210.491" y1="48.0428" x2="207.963" y2="47.4122" gradientUnits="userSpaceOnUse">
<stop stop-color="#00836A"/>
<stop offset="1" stop-color="#073E39"/>
</linearGradient>
<linearGradient id="paint6_linear_11069_20826" x1="205.095" y1="48.6638" x2="203.368" y2="48.233" gradientUnits="userSpaceOnUse">
<stop stop-color="#00836A"/>
<stop offset="1" stop-color="#073E39"/>
</linearGradient>
<linearGradient id="paint7_linear_11069_20826" x1="211.579" y1="13.4222" x2="213.569" y2="16.0639" gradientUnits="userSpaceOnUse">
<stop stop-color="#00836A"/>
<stop offset="1" stop-color="#073E39"/>
</linearGradient>
<linearGradient id="paint8_linear_11069_20826" x1="125.45" y1="6.82422" x2="125.45" y2="155.085" gradientUnits="userSpaceOnUse">
<stop stop-color="#00836A"/>
<stop offset="1" stop-color="#073E39"/>
</linearGradient>
</defs>
</svg>
