<svg width="26" height="24" viewBox="0 0 26 24" fill="none" xmlns="http://www.w3.org/2000/svg">
<path d="M9.07702 0.00211299C9.6059 0.0352165 10.0212 0.246516 10.3504 0.635306C10.919 1.30583 11.6368 1.72561 12.5288 1.84042C13.7631 1.99959 14.7803 1.5939 15.5964 0.695878C16.2114 0.0197212 16.8061 -0.128892 17.6729 0.196508C18.9535 0.677566 20.1234 1.34245 21.1847 2.18906C21.8554 2.72365 22.0276 3.31458 21.7462 4.10977C21.0415 6.09598 22.2794 8.12445 24.4159 8.48577C25.1712 8.61326 25.6444 9.06966 25.7927 9.81343C26.0842 11.2714 26.0596 12.7287 25.7731 14.1838C25.6444 14.8381 25.0902 15.3382 24.405 15.434C22.1759 15.7453 20.8895 17.8541 21.676 19.9058C21.9733 20.682 21.8004 21.306 21.1435 21.8307C20.1393 22.633 19.0338 23.2683 17.8349 23.7507C17.1006 24.0458 16.3764 23.8571 15.8772 23.2429C14.4294 21.4624 11.8386 21.4891 10.4379 23.2992C9.91555 23.974 9.21883 24.1649 8.40345 23.8571C7.13299 23.3781 5.96527 22.7273 4.90317 21.8948C4.17678 21.325 4.00821 20.7108 4.36417 19.8685C5.15133 18.0048 4.13193 15.946 2.15389 15.4107C1.98965 15.3664 1.81891 15.3438 1.65034 15.3199C0.732219 15.1917 0.240241 14.6691 0.112906 13.7189C-0.0672444 12.3751 -0.0325166 11.0397 0.222154 9.70779C0.362512 8.97458 0.926839 8.45619 1.69447 8.37519C3.44243 8.19136 4.76643 6.73481 4.70421 5.0254C4.69046 4.65492 4.59424 4.2774 4.47486 3.92312C4.21296 3.14836 4.38804 2.5046 5.0457 2.00382C6.0832 1.21427 7.21981 0.595863 8.45409 0.149318C8.65378 0.0774763 8.86938 0.0485988 9.07775 0L9.07702 0.00211299ZM17.3328 12.0279C17.3596 9.74512 15.4134 7.81595 13.0591 7.7913C10.6716 7.76595 8.68633 9.65214 8.66608 11.9645C8.64582 14.2796 10.5725 16.201 12.9398 16.2271C15.3389 16.2538 17.3046 14.3747 17.3321 12.0271L17.3328 12.0279Z" fill="#F6F2ED"/>
</svg>
