<svg xmlns="http://www.w3.org/2000/svg" width="14.653" height="14.543" viewBox="0 0 14.653 14.543">
  <path id="settings" d="M7.339,2.73A.824.824,0,0,1,8.179,2H10.37a.728.728,0,0,1,.73.73V3.746a5.15,5.15,0,0,1,.8.329l.716-.723a.715.715,0,0,1,1.03,0L15.2,4.9a.737.737,0,0,1,.212.511.726.726,0,0,1-.219.511l-.723.716a5.975,5.975,0,0,1,.329.8h1.015a.728.728,0,0,1,.73.73v2.191a.733.733,0,0,1-.73.73H14.789a6.006,6.006,0,0,1-.336.8l.716.716a.727.727,0,0,1,0,1.03l-1.556,1.549a.736.736,0,0,1-1.037,0l-.723-.723a6.494,6.494,0,0,1-.811.329v1.015a.733.733,0,0,1-.73.73H8.121a.728.728,0,0,1-.73-.73V14.79a5.723,5.723,0,0,1-.811-.336l-.723.716a.768.768,0,0,1-.519.212.73.73,0,0,1-.519-.219L3.263,13.607a.723.723,0,0,1,0-1.037l.716-.723a5.581,5.581,0,0,1-.336-.811H2.62a.728.728,0,0,1-.73-.73V8.114a.723.723,0,0,1,.73-.73H3.636a4.955,4.955,0,0,1,.329-.811l-.723-.723a.723.723,0,0,1,0-1.037L4.79,3.256a.715.715,0,0,1,1.03,0l.716.716a5.181,5.181,0,0,1,.8-.336ZM9.275,6.383A2.922,2.922,0,1,0,12.2,9.3,2.921,2.921,0,0,0,9.275,6.383Z" transform="translate(-1.89 -2)" fill="#91785d" fill-rule="evenodd"/>
</svg>
