<svg width="20" height="19" viewBox="0 0 20 19" fill="none" xmlns="http://www.w3.org/2000/svg">
<path d="M6.98232 0.00167278C7.38915 0.0278797 7.7086 0.195158 7.96183 0.502951C8.39926 1.03378 8.95135 1.36611 9.63755 1.457C10.587 1.58301 11.3695 1.26184 11.9973 0.550904C12.4703 0.0156126 12.9278 -0.10204 13.5945 0.155569C14.5796 0.536406 15.4795 1.06278 16.2959 1.733C16.8119 2.15622 16.9443 2.62404 16.7278 3.25357C16.1857 4.82598 17.138 6.43186 18.7814 6.7179C19.3625 6.81883 19.7264 7.18015 19.8405 7.76897C20.0648 8.92319 20.0459 10.0769 19.8255 11.2288C19.7264 11.7469 19.3001 12.1427 18.7731 12.2186C17.0584 12.465 16.0689 14.1345 16.6738 15.7587C16.9026 16.3732 16.7696 16.8672 16.2642 17.2827C15.4917 17.9178 14.6414 18.4207 13.7192 18.8027C13.1543 19.0363 12.5972 18.8869 12.2132 18.4006C11.0996 16.991 9.10662 17.0122 8.02917 18.4452C7.62735 18.9794 7.09141 19.1305 6.46419 18.8869C5.48691 18.5077 4.58867 17.9925 3.77167 17.3334C3.21291 16.8823 3.08324 16.3961 3.35705 15.7292C3.96256 14.2538 3.17841 12.6239 1.65684 12.2002C1.5305 12.165 1.39916 12.1472 1.26949 12.1282C0.563245 12.0268 0.184801 11.613 0.0868509 10.8608C-0.0517264 9.79694 -0.0250127 8.73974 0.170888 7.68533C0.278856 7.10487 0.712953 6.69448 1.30344 6.63036C2.64803 6.48483 3.66649 5.33172 3.61862 3.97844C3.60805 3.68514 3.53403 3.38627 3.4422 3.1058C3.24074 2.49245 3.37542 1.98281 3.88131 1.58636C4.67938 0.961294 5.5537 0.471725 6.50315 0.11821C6.65675 0.0613354 6.8226 0.038474 6.98288 0L6.98232 0.00167278ZM13.3329 9.52205C13.3535 7.71488 11.8565 6.18763 10.0455 6.16811C8.20893 6.14804 6.6818 7.64128 6.66621 9.47186C6.65063 11.3047 8.13268 12.8258 9.95367 12.8464C11.7991 12.8676 13.3112 11.38 13.3324 9.52149L13.3329 9.52205Z" fill="#2F4F4F"/>
</svg>
