<svg xmlns="http://www.w3.org/2000/svg" width="25.736" height="25.544" viewBox="0 0 25.736 25.544">
  <path id="settings" d="M11.461,3.283A1.447,1.447,0,0,1,12.936,2h3.849a1.279,1.279,0,0,1,1.283,1.283V5.066a9.046,9.046,0,0,1,1.411.577l1.257-1.27a1.255,1.255,0,0,1,1.809,0l2.72,2.72a1.294,1.294,0,0,1,.372.9,1.275,1.275,0,0,1-.385.9l-1.27,1.257a10.5,10.5,0,0,1,.577,1.411h1.783a1.279,1.279,0,0,1,1.283,1.283V16.69a1.287,1.287,0,0,1-1.283,1.283h-1.8a10.549,10.549,0,0,1-.59,1.411l1.257,1.257a1.278,1.278,0,0,1,0,1.809l-2.733,2.72a1.293,1.293,0,0,1-1.822,0l-1.27-1.27a11.406,11.406,0,0,1-1.424.577v1.783a1.287,1.287,0,0,1-1.283,1.283H12.834a1.279,1.279,0,0,1-1.283-1.283v-1.8a10.052,10.052,0,0,1-1.424-.59l-1.27,1.257a1.349,1.349,0,0,1-.911.372,1.282,1.282,0,0,1-.911-.385L4.3,22.386a1.27,1.27,0,0,1,0-1.822l1.257-1.27a9.8,9.8,0,0,1-.59-1.424h-1.8A1.279,1.279,0,0,1,1.89,16.587V12.738a1.27,1.27,0,0,1,1.283-1.283H4.956a8.7,8.7,0,0,1,.577-1.424l-1.27-1.27a1.27,1.27,0,0,1,0-1.822l2.72-2.733a1.255,1.255,0,0,1,1.809,0L10.05,5.464a9.1,9.1,0,0,1,1.411-.59Zm.834,11.547A2.566,2.566,0,1,1,14.861,17.4,2.557,2.557,0,0,1,12.295,14.829ZM14.861,9.7a5.132,5.132,0,1,0,5.132,5.132A5.13,5.13,0,0,0,14.861,9.7Z" transform="translate(-1.89 -2)" fill="#fdf7f0" fill-rule="evenodd"/>
</svg>
