<svg width="17" height="16" viewBox="0 0 17 16" fill="none" xmlns="http://www.w3.org/2000/svg">
<path d="M12.4681 5.03458C12.4134 5.12912 12.3785 5.21963 12.3202 5.28729C12.0102 5.63946 11.9313 6.0351 12.1128 6.46524C12.2942 6.89538 12.6375 7.11179 13.1039 7.13733C13.3122 7.14808 13.4359 7.26861 13.4399 7.47606C13.4462 7.79329 13.4462 8.11067 13.4399 8.42819C13.4359 8.64102 13.3087 8.76334 13.0909 8.77365C12.628 8.7947 12.2942 9.01515 12.1141 9.43722C11.934 9.8593 12.0075 10.263 12.3193 10.6147C12.4856 10.802 12.4784 10.9588 12.2992 11.1403C12.0957 11.3464 11.891 11.5512 11.6849 11.7546C11.5025 11.9338 11.3488 11.9405 11.1584 11.7716C10.8174 11.4692 10.4299 11.3912 10.0105 11.557C9.58392 11.7255 9.35541 12.053 9.31957 12.5149C9.29717 12.8035 9.19591 12.8904 8.90198 12.8918C8.63314 12.8918 8.3658 12.8918 8.09995 12.8918C7.79796 12.8918 7.70566 12.8048 7.67564 12.5024C7.61246 11.8594 7.12407 11.4392 6.48514 11.4808C6.25083 11.4995 6.02974 11.5969 5.85786 11.7573C5.64144 11.9468 5.5021 11.9401 5.29509 11.7344C5.08809 11.5288 4.89184 11.3343 4.6929 11.1313C4.52219 10.957 4.51367 10.7998 4.67766 10.6183C4.99131 10.2679 5.06882 9.87095 4.88736 9.44171C4.70589 9.01246 4.36671 8.79202 3.89714 8.7723C3.69059 8.76379 3.56423 8.63788 3.5602 8.43267C3.55393 8.11545 3.55438 7.79777 3.5602 7.48054C3.56423 7.26503 3.68745 7.14898 3.90835 7.13643C4.36806 7.11045 4.70589 6.89448 4.88601 6.47151C5.06613 6.04854 4.99265 5.64529 4.6817 5.29356C4.51412 5.10358 4.52174 4.95124 4.70186 4.76888C4.89721 4.57039 5.09481 4.37414 5.29196 4.17745C5.50254 3.9682 5.64279 3.96372 5.86726 4.15773C6.48783 4.6954 7.44981 4.39789 7.6492 3.60706C7.66421 3.53631 7.67424 3.4646 7.67922 3.39244C7.70879 3.10434 7.80378 3.01786 8.09816 3.01697C8.37088 3.01697 8.64389 3.01697 8.91721 3.01697C9.1977 3.01697 9.3012 3.10658 9.32047 3.38841C9.35093 3.81407 9.54898 4.13264 9.93162 4.31589C10.3582 4.52021 10.765 4.46734 11.1306 4.16042C11.3659 3.96282 11.4971 3.96551 11.7185 4.18596C11.9156 4.38266 12.1164 4.57577 12.3068 4.77874C12.3704 4.8464 12.4094 4.94004 12.4681 5.03458ZM8.5041 10.3217C8.81663 10.3208 9.12592 10.2583 9.41423 10.1376C9.70253 10.0169 9.96418 9.84055 10.1842 9.61856C10.4042 9.39656 10.5782 9.13333 10.6962 8.84395C10.8143 8.55456 10.874 8.24472 10.8721 7.93219C10.8672 6.63954 9.79989 5.57853 8.50186 5.57539C8.18295 5.56395 7.865 5.6169 7.56701 5.73108C7.26903 5.84526 6.99711 6.01833 6.7675 6.23995C6.53789 6.46157 6.35531 6.72719 6.23065 7.02095C6.106 7.31472 6.04183 7.63059 6.04198 7.94971C6.04213 8.26882 6.1066 8.58463 6.23153 8.87828C6.35646 9.17192 6.5393 9.43737 6.76911 9.65878C6.99893 9.88018 7.27101 10.053 7.56911 10.1669C7.8672 10.2808 8.1852 10.3334 8.5041 10.3217Z" fill="#F9F4F0"/>
<path d="M11.8897 13.6773C11.8882 13.2161 12.0237 12.7648 12.279 12.3806C12.5343 11.9965 12.8978 11.6967 13.3236 11.5194C13.7494 11.342 14.2182 11.295 14.6707 11.3843C15.1232 11.4736 15.539 11.6952 15.8655 12.021C16.1919 12.3469 16.4143 12.7623 16.5045 13.2146C16.5947 13.6669 16.5486 14.1358 16.372 14.5619C16.1955 14.988 15.8964 15.3522 15.5128 15.6082C15.1291 15.8642 14.6781 16.0006 14.2169 16C13.6007 15.9993 13.0098 15.7545 12.5737 15.3192C12.1375 14.8839 11.8916 14.2935 11.8897 13.6773ZM13.7209 14.0438C13.4969 13.7924 13.2827 13.5509 13.0676 13.313C12.9377 13.1678 12.8055 13.1437 12.6939 13.2413C12.5824 13.339 12.5837 13.4712 12.7145 13.6199C12.9643 13.904 13.2158 14.1863 13.4691 14.4668C13.6098 14.6236 13.7025 14.6335 13.8723 14.5116C14.1985 14.2799 14.5229 14.0456 14.8478 13.8122C15.1368 13.6047 15.4271 13.3995 15.7139 13.1885C15.8362 13.0988 15.8595 12.9608 15.7838 12.8533C15.708 12.7458 15.5785 12.7229 15.4455 12.8063C15.4033 12.8331 15.3635 12.8636 15.3231 12.8932L13.7209 14.0438Z" fill="#F9F4F0"/>
<path d="M15.7888 5.75555C15.6206 5.19164 15.3777 4.65277 15.0665 4.15328C13.7779 2.1043 11.9342 0.885133 9.53659 0.553121C6.13446 0.0822092 2.89409 1.87535 1.50421 4.98892C1.28869 5.47237 1.17444 6.00109 1.01403 6.50874C1.00597 6.53517 1.00507 6.56385 0.997902 6.59073C0.953096 6.74979 0.843769 6.83044 0.708903 6.79998C0.581206 6.77085 0.501451 6.65615 0.541777 6.50202C0.661409 6.04544 0.752365 5.57498 0.931589 5.14215C2.07728 2.37 4.14508 0.683504 7.08077 0.136871C10.8337 -0.561655 14.5275 1.46851 16.0052 4.97144C16.0895 5.17083 16.1589 5.3747 16.2476 5.61172C16.279 5.50911 16.2987 5.4325 16.3256 5.35633C16.3749 5.22191 16.4735 5.16411 16.6146 5.19592C16.6446 5.20299 16.6729 5.21619 16.6976 5.23469C16.7223 5.25319 16.7429 5.2766 16.7581 5.30343C16.7733 5.33027 16.7829 5.35997 16.7861 5.39066C16.7893 5.42135 16.7861 5.45237 16.7768 5.48178C16.676 5.86353 16.5743 6.24349 16.4609 6.62299C16.4013 6.82283 16.2087 6.86719 16.0554 6.72112C15.7772 6.45587 15.5043 6.18345 15.2323 5.91461C15.1185 5.8008 15.1149 5.65429 15.2131 5.5593C15.3112 5.46431 15.4443 5.46969 15.5549 5.57901C15.6194 5.64851 15.6793 5.72215 15.7342 5.79946L15.7888 5.75555Z" fill="#F9F4F0"/>
<path d="M0.747563 10.2899C0.716646 10.3966 0.698724 10.4692 0.673633 10.5422C0.624346 10.6833 0.499785 10.7546 0.373432 10.7062C0.239014 10.6556 0.186591 10.5512 0.223332 10.4118C0.322353 10.0413 0.420927 9.67027 0.528013 9.30197C0.592086 9.08242 0.7852 9.03313 0.950982 9.19219C1.21982 9.44982 1.48865 9.71194 1.75167 9.9745C1.87623 10.0982 1.88608 10.2433 1.78796 10.3419C1.68983 10.4405 1.54959 10.4356 1.42279 10.3056C1.36185 10.2433 1.31974 10.1631 1.2476 10.113C2.27814 13.9591 7.00921 16.7747 11.6354 14.7782C11.7058 14.9063 11.7766 15.0358 11.8595 15.1895C9.64066 16.1196 7.42366 16.1685 5.22234 15.211C3.02102 14.2535 1.54645 12.5957 0.747563 10.2899Z" fill="#F9F4F0"/>
<path d="M15.8183 11.3635L15.415 11.1345C15.4298 11.0924 15.441 11.0512 15.4598 11.0131C15.7005 10.4871 15.8794 9.93496 15.993 9.3678C16.0096 9.2867 16.0526 9.18857 16.1158 9.14646C16.179 9.10434 16.3076 9.10434 16.356 9.14646C16.4182 9.19978 16.4725 9.32568 16.4536 9.39916C16.3419 9.85141 16.2169 10.2995 16.0786 10.7433C16.0123 10.9548 15.9084 11.152 15.8183 11.3635Z" fill="#F9F4F0"/>
<path d="M7.00905 7.95245C7.21247 8.1133 7.40379 8.26295 7.59377 8.41485C7.74521 8.53582 7.77971 8.6689 7.69413 8.78494C7.60855 8.90099 7.46249 8.90637 7.30029 8.78047C7.04131 8.57884 6.78323 8.37631 6.52604 8.1729C6.34278 8.02728 6.34144 7.87897 6.5229 7.73469C6.78815 7.52321 7.05505 7.31411 7.32359 7.10741C7.46338 6.99898 7.60542 7.00615 7.69189 7.11861C7.77837 7.23107 7.75059 7.36415 7.60945 7.47706C7.41633 7.63433 7.21829 7.78712 7.00905 7.95245Z" fill="#F9F4F0"/>
<path d="M9.90689 7.95287C9.6972 7.78798 9.50006 7.6343 9.30515 7.47927C9.15998 7.36367 9.13085 7.23867 9.21778 7.12083C9.3047 7.00299 9.45032 6.99716 9.59818 7.11186C9.85686 7.31319 10.1146 7.51572 10.3715 7.71943C10.5718 7.87939 10.5741 8.02232 10.3783 8.1787C10.1175 8.38779 9.85522 8.59375 9.59146 8.79657C9.44987 8.9059 9.31321 8.90052 9.22315 8.7885C9.13309 8.67649 9.15639 8.54342 9.29843 8.43006C9.49378 8.27503 9.69138 8.12224 9.90689 7.95287Z" fill="#F9F4F0"/>
<path d="M8.16124 8.87581C7.91884 8.87581 7.81534 8.69659 7.90719 8.51736C8.03757 8.26645 8.17602 8.02091 8.31403 7.77269C8.42335 7.57375 8.53044 7.37301 8.6429 7.17542C8.724 7.03249 8.85439 6.98858 8.97626 7.05489C9.09813 7.1212 9.13308 7.25473 9.05377 7.40035C8.81317 7.84393 8.57211 8.28706 8.32209 8.72526C8.28087 8.79919 8.19439 8.84624 8.16124 8.87581Z" fill="#F9F4F0"/>
</svg>
