<svg width="15" height="16" viewBox="0 0 15 16" fill="none" xmlns="http://www.w3.org/2000/svg">
<path d="M7.71875 0H7.90583C8.08125 0.0966666 8.14083 0.246668 8.12458 0.441668C8.11375 0.572085 8.12458 0.703751 8.12458 0.813334C8.38416 0.658334 8.62458 0.492083 8.88333 0.367083C9.17 0.22875 9.37125 0.377917 9.37167 0.700416C9.37167 1.40333 9.37167 2.10625 9.37583 2.80875C9.37583 2.88083 9.42167 2.95958 9.46458 3.02208C9.58958 3.20083 9.73583 3.36417 9.84833 3.54917C10.0183 3.82792 10.1667 4.12042 10.3246 4.40708C10.3902 4.51297 10.4499 4.62245 10.5033 4.735C10.635 5.05458 10.8662 5.25125 11.1896 5.36708C13.76 6.28708 15.225 8.80042 14.7729 11.5017C14.4208 13.5983 12.7504 15.3742 10.6821 15.8425C10.385 15.9096 10.0812 15.9483 9.78083 16H5.22375C5.18474 15.988 5.14491 15.9788 5.10458 15.9725C3.85458 15.8558 2.76792 15.3687 1.85875 14.5062C0.839583 13.5396 0.268334 12.3479 0.162501 10.9429C0.0587511 9.56792 0.430833 8.32792 1.25792 7.2275C1.318 7.15849 1.39885 7.11082 1.48833 7.09167C1.61583 7.06208 1.7225 7.12625 1.78625 7.2425C1.86958 7.39333 1.80458 7.51708 1.71583 7.64458C0.575 9.28764 0.445973 11.0076 1.32875 12.8046C1.49197 13.1379 1.70811 13.4425 1.96875 13.7067C1.9414 13.6295 1.90868 13.5543 1.87083 13.4817C1.19667 12.045 1.20167 10.6225 1.99583 9.23583C2.53375 8.29792 3.33833 7.64333 4.31333 7.19917C4.74709 7.00579 5.14071 6.73273 5.47375 6.39417C6.24625 5.6025 6.76542 4.65375 7.17125 3.63583C7.19375 3.57875 7.18667 3.51083 7.195 3.43542C6.82375 3.43542 6.47583 3.43958 6.12833 3.43542C5.99167 3.43292 5.85541 3.40875 5.68625 3.39125C5.63671 3.4609 5.59269 3.53432 5.55458 3.61083C5.3575 4.07458 5.16208 4.53958 4.97375 5.00708C4.75958 5.53958 4.36 5.85833 3.82416 6.02167C3.7478 6.05095 3.66294 6.0487 3.58824 6.01541C3.51354 5.98213 3.45512 5.92053 3.42583 5.84417C3.39655 5.76781 3.3988 5.68294 3.43209 5.60824C3.46537 5.53354 3.52697 5.47512 3.60333 5.44583C3.67792 5.40917 3.75833 5.38542 3.835 5.35333C3.94973 5.3097 4.05474 5.2439 4.14403 5.15968C4.23332 5.07546 4.30515 4.97448 4.35541 4.8625C4.55041 4.41458 4.74542 3.96625 4.92125 3.51083C5.04153 3.18158 5.25472 2.89428 5.535 2.68375C5.57875 2.65299 5.61551 2.61334 5.64287 2.56738C5.67023 2.52143 5.68757 2.47021 5.69375 2.41708C5.82458 1.63083 6.17625 0.96375 6.82416 0.49C7.09875 0.29125 7.41917 0.16125 7.71875 0ZM4.97708 15.2312C4.93329 15.2057 4.89088 15.1779 4.85 15.1479C4.49083 14.8562 4.1 14.5979 3.78042 14.2704C3.065 13.5412 2.74833 12.665 2.94 11.6325C3.17542 10.3617 3.885 9.44083 5.0125 8.8475C5.49887 8.59619 5.91903 8.23357 6.23875 7.78917C6.56333 7.34 6.81541 6.85167 7.03541 6.34417C7.145 6.09417 7.21833 5.83917 7.19292 5.56042C7.17958 5.41667 7.19042 5.26875 7.19042 5.08542C7.01208 5.37 6.8675 5.61708 6.7075 5.85333C6.13041 6.70333 5.43042 7.40958 4.46333 7.81792C4.20716 7.93256 3.96478 8.07584 3.74083 8.245C2.73291 8.97458 2.08583 9.9375 2.02208 11.2033C1.94375 12.7575 2.595 13.9637 3.90083 14.8071C4.22681 15.0206 4.59311 15.1649 4.97708 15.2312ZM7.18916 7.48125C7.17437 7.4942 7.16045 7.50812 7.1475 7.52291C7.12583 7.55833 7.10583 7.59417 7.08375 7.63C6.63 8.38792 6.07292 9.02917 5.25042 9.42167C4.69108 9.68938 4.23162 10.1284 3.93875 10.675C3.24333 11.9408 3.37042 13.055 4.38792 14.015C4.89505 14.4954 5.49833 14.8628 6.15791 15.0929C6.48666 15.2083 6.83 15.2825 7.18458 15.38V14.7292C6.48375 14.5671 5.86958 14.2567 5.36833 13.7446C4.95583 13.3233 4.70667 12.8242 4.73208 12.2204C4.77375 11.2362 5.21833 10.4858 6.05958 9.97416C6.41833 9.75583 6.73958 9.4925 6.98958 9.15458C7.07958 9.03333 7.17333 8.88208 7.18208 8.73792C7.20583 8.33 7.18916 7.91875 7.18916 7.48292V7.48125ZM7.17708 14.0942V9.9275C6.85792 10.1517 6.535 10.3771 6.21375 10.6046C5.88504 10.8294 5.63282 11.1492 5.49083 11.5212C5.32416 11.9621 5.25375 12.4158 5.485 12.8546C5.845 13.54 6.46833 13.8704 7.17708 14.0958V14.0942ZM6.37125 2.2125C6.68791 2.19417 6.99083 2.17917 7.29333 2.15625C7.31327 2.15121 7.33187 2.14189 7.34785 2.12894C7.36382 2.11599 7.37678 2.09972 7.38583 2.08125C7.47808 1.88867 7.51912 1.67557 7.505 1.4625C7.49333 1.24292 7.5025 1.02292 7.5025 0.77625C6.90458 1.12167 6.5425 1.6 6.37125 2.2125ZM8.74166 1.15792C8.49541 1.33875 8.29958 1.54458 8.19333 1.8025C8.12583 1.965 8.14375 2.16375 8.12625 2.34625C8.12739 2.35616 8.13095 2.36564 8.13662 2.37385C8.14229 2.38206 8.14989 2.38875 8.15875 2.39333C8.35 2.46042 8.5425 2.52458 8.74208 2.59167L8.74166 1.15792Z" fill="#FDF7F0"/>
</svg>
