<svg width="23" height="21" viewBox="0 0 23 21" fill="none" xmlns="http://www.w3.org/2000/svg">
<path d="M7.64669 0.601559C7.73448 0.570355 7.80782 0.556022 7.90964 0.536123C7.95312 0.527625 8.0018 0.518112 8.05901 0.505837C8.36293 0.537125 8.58674 0.65964 8.77626 0.88104L8.77652 0.881348C9.35444 1.55537 10.0993 1.98916 11.02 2.10636C12.2792 2.26694 13.3379 1.8475 14.165 0.947176C14.3963 0.695708 14.5819 0.587943 14.7484 0.547982C14.9152 0.507971 15.1325 0.519217 15.4595 0.640636L7.64669 0.601559ZM7.64669 0.601559C6.60197 0.975458 5.64133 1.49258 4.76432 2.15273L7.64669 0.601559ZM18.7663 3.42723C18.8667 3.14668 18.8675 2.95594 18.825 2.81183C18.782 2.66627 18.6746 2.50035 18.4308 2.30807L18.4306 2.30796C17.5328 1.59962 16.5437 1.0435 15.4596 0.64067L18.7663 3.42723ZM18.7663 3.42723C18.0299 5.48027 19.3419 7.55449 21.5161 7.9182L21.5163 7.91822C21.7702 7.96061 21.9443 8.05141 22.0639 8.16548C22.1829 8.279 22.2777 8.44396 22.3265 8.68557L22.3265 8.68584C22.5701 9.8907 22.5507 11.0987 22.3089 12.3132L22.3089 12.3133C22.2401 12.6589 21.9344 12.9522 21.5206 13.0095M18.7663 3.42723L21.5206 13.0095M21.5206 13.0095C19.2514 13.323 17.8884 15.4813 18.7087 17.5981L21.5206 13.0095ZM15.5924 20.3172C16.6102 19.9121 17.5455 19.3799 18.3939 18.7096L18.3939 18.7096C18.6258 18.5263 18.7323 18.3582 18.7744 18.2075C18.8163 18.0579 18.8118 17.8646 18.7087 17.5982L15.5924 20.3172ZM15.5924 20.3172C15.1442 20.4954 14.7346 20.389 14.4315 20.0201L14.4314 20.02C12.9489 18.2165 10.2772 18.2414 8.8398 20.0787L15.5924 20.3172ZM4.66107 4.37848L4.66108 4.37884C4.72659 6.15911 3.33675 7.63973 1.55086 7.82559L4.66107 4.37848ZM4.66107 4.37848C4.64629 3.98456 4.54432 3.60172 4.43182 3.2715L4.43166 3.27103M4.66107 4.37848L4.43166 3.27103M4.43166 3.27103C4.3406 3.00457 4.33909 2.80249 4.38564 2.64427M4.43166 3.27103L4.38564 2.64427M4.38564 2.64427C4.43169 2.48777 4.54016 2.32159 4.76421 2.15281L4.38564 2.64427ZM8.83973 20.0788C8.66248 20.3052 8.47953 20.422 8.30003 20.4707C8.11922 20.5197 7.89319 20.5127 7.60871 20.4065L7.60851 20.4065C6.53043 20.0044 5.54216 19.4593 4.64393 18.7629C4.37367 18.5532 4.2627 18.3782 4.22257 18.2301C4.18306 18.0843 4.1907 17.885 4.32041 17.5813L4.32044 17.5813C5.14092 15.6598 4.06688 13.5454 2.03465 13.0014L2.03445 13.0014C1.8682 12.9569 1.69862 12.9333 1.56452 12.9147C1.55255 12.913 1.54086 12.9114 1.52949 12.9098L1.52831 12.9096C1.20251 12.8646 1.00475 12.7588 0.877153 12.6268C0.747577 12.4927 0.642012 12.2813 0.595351 11.9369L0.595349 11.9369C0.443213 10.8144 0.472585 9.70068 0.687412 8.58932L8.83973 20.0788ZM7.16616 10.4645C7.14567 12.7815 9.08719 14.673 11.4412 14.6987L11.5575 6.31742C9.18945 6.29258 7.18671 8.14478 7.16616 10.4645ZM11.4413 14.6987C13.4611 14.7209 15.1921 13.3948 15.6892 11.5615L15.8191 11.6866L15.8329 10.5303C15.86 8.23696 13.8966 6.34168 11.5576 6.31742L11.4413 14.6987ZM0.0998785 12.0041L0.0999044 12.0041L0.0998785 12.0041ZM0.687432 8.58921C0.768295 8.17161 1.08274 7.87451 1.55069 7.82561L0.687432 8.58921Z" fill="#8E8E8E" stroke="#8E8E8E"/>
</svg>
