<svg xmlns="http://www.w3.org/2000/svg" width="16.624" height="16.499" viewBox="0 0 16.624 16.499">
  <path id="settings" d="M8.072,2.829A.934.934,0,0,1,9.025,2h2.486a.826.826,0,0,1,.829.829V3.981a5.843,5.843,0,0,1,.912.373l.812-.82a.811.811,0,0,1,1.168,0L16.989,5.29a.836.836,0,0,1,.24.58.824.824,0,0,1-.249.58l-.82.812a6.778,6.778,0,0,1,.373.912h1.152A.826.826,0,0,1,18.514,9v2.486a.831.831,0,0,1-.829.829h-1.16a6.814,6.814,0,0,1-.381.912l.812.812a.825.825,0,0,1,0,1.168l-1.765,1.757a.835.835,0,0,1-1.177,0l-.82-.82a7.367,7.367,0,0,1-.92.373v1.152a.831.831,0,0,1-.829.829H8.959a.826.826,0,0,1-.829-.829v-1.16a6.493,6.493,0,0,1-.92-.381l-.82.812a.871.871,0,0,1-.588.24.828.828,0,0,1-.588-.249L3.448,15.168a.821.821,0,0,1,0-1.177l.812-.82a6.331,6.331,0,0,1-.381-.92H2.719a.826.826,0,0,1-.829-.829V8.936a.821.821,0,0,1,.829-.829H3.871a5.621,5.621,0,0,1,.373-.92l-.82-.82a.821.821,0,0,1,0-1.177L5.18,3.425a.811.811,0,0,1,1.168,0l.812.812a5.878,5.878,0,0,1,.912-.381Zm.539,7.458a1.657,1.657,0,1,1,1.657,1.657A1.652,1.652,0,0,1,8.611,10.287Zm1.657-3.315a3.315,3.315,0,1,0,3.315,3.315A3.314,3.314,0,0,0,10.268,6.972Z" transform="translate(-1.89 -2)" fill="#fdf7f0" fill-rule="evenodd"/>
</svg>
