<svg width="13" height="16" viewBox="0 0 13 16" fill="none" xmlns="http://www.w3.org/2000/svg">
<path d="M8.4953 6.1476C8.13297 6.7464 7.62125 7.21834 6.97958 7.57147C6.89468 7.61833 6.85817 7.66756 6.85911 7.76886C6.86291 8.15039 6.85295 8.53191 6.8539 8.91344C6.8539 9.05829 6.80837 9.17379 6.70119 9.27367C6.55464 9.41047 6.41663 9.55579 6.2644 9.70727C6.41853 9.86111 6.56602 10.0078 6.71304 10.1551C6.92646 10.3695 6.90796 10.6095 6.66657 10.7932C6.53994 10.8897 6.41616 10.9905 6.28052 11.0975C6.42564 11.2731 6.55938 11.4431 6.70166 11.6054C6.90939 11.8431 6.90939 12.0263 6.69929 12.2672C6.55938 12.4272 6.42659 12.5929 6.281 12.768C6.39956 12.8632 6.50722 12.9569 6.62293 13.0397C6.78513 13.1557 6.87619 13.2982 6.86481 13.5065C6.85342 13.7067 6.86149 13.9083 6.86243 14.1095C6.86338 14.2392 6.81975 14.3452 6.72537 14.439C6.24638 14.9123 5.7707 15.39 5.29359 15.8657C5.11243 16.046 4.90423 16.0446 4.72117 15.8624C4.2526 15.3956 3.78688 14.9256 3.31452 14.4622C3.19975 14.3495 3.15422 14.225 3.15422 14.0679C3.15612 12.2823 3.15564 10.4973 3.15564 8.71179C3.15564 8.40363 3.15232 8.09595 3.15754 7.78827C3.15896 7.70874 3.13478 7.66519 3.06459 7.6259C1.89744 6.97219 1.19317 5.98382 0.987344 4.6674C0.814714 3.56448 1.07555 2.55196 1.74046 1.64831C1.79642 1.57258 1.84907 1.49495 1.90313 1.41826L2.357 0.965256C2.46608 0.886205 2.57373 0.804314 2.68518 0.72763C3.37712 0.250956 4.14494 0.0052826 4.98485 7.564e-05C5.71805 -0.0041846 6.40904 0.171432 7.04123 0.548226C7.25464 0.67556 7.45478 0.825615 7.66108 0.965256C7.8119 1.11626 7.96318 1.26726 8.11447 1.41826C8.24442 1.60903 8.38717 1.79269 8.50336 1.99055C7.33859 1.99055 6.17381 1.99055 5.00951 1.99055C4.27204 1.99055 3.81486 2.44451 3.81107 3.18105C3.8087 3.77465 3.82529 4.36871 3.8068 4.96231C3.78403 5.68797 4.35599 6.16653 5.00619 6.15517C6.16907 6.13482 7.33242 6.14429 8.4953 6.14713V6.1476Z" fill="#F6F2ED"/>
<path d="M8.47263 5.505C7.54883 5.505 6.62464 5.49378 5.70124 5.5098C5.25941 5.51741 4.87055 5.19217 4.8862 4.6987C4.89864 4.29536 4.8874 3.89161 4.88901 3.48786C4.89142 2.98719 5.20202 2.67877 5.70365 2.67877C7.55124 2.67837 9.39923 2.67837 11.2468 2.67877C11.7412 2.67877 12.0559 2.98558 12.0611 3.47745C12.0655 3.88961 12.0659 4.30177 12.0611 4.71392C12.0554 5.20299 11.7472 5.50419 11.2573 5.5046C10.3291 5.5054 9.40084 5.5046 8.47303 5.5046L8.47263 5.505ZM10.6609 3.91124C10.6798 3.77826 10.7047 3.67812 10.7047 3.57758C10.7047 3.5179 10.6818 3.43699 10.6393 3.40535C10.6007 3.37651 10.504 3.37851 10.4659 3.40856C10.4242 3.4418 10.4033 3.52231 10.4037 3.58239C10.4037 3.68173 10.4286 3.78066 10.447 3.90963C10.3447 3.82913 10.2705 3.75863 10.1846 3.70856C10.1324 3.67812 10.0526 3.65409 10.002 3.67251C9.95704 3.68894 9.90287 3.77425 9.9113 3.81791C9.92213 3.87519 9.98152 3.93687 10.0361 3.96891C10.1228 4.01978 10.2227 4.04742 10.3443 4.09589C10.2115 4.14796 10.1051 4.1804 10.0092 4.23127C9.96387 4.2553 9.9129 4.31338 9.90969 4.35904C9.90608 4.40711 9.94581 4.48842 9.98513 4.50244C10.0413 4.52246 10.1248 4.51245 10.179 4.48321C10.2677 4.43595 10.3423 4.36225 10.4474 4.28094C10.4282 4.41352 10.4041 4.50965 10.4037 4.60578C10.4037 4.66626 10.4218 4.74677 10.4631 4.78122C10.4992 4.81126 10.5995 4.81406 10.6336 4.78482C10.6778 4.74757 10.7011 4.66626 10.7027 4.60337C10.7051 4.50644 10.6814 4.40911 10.6645 4.28054C10.7717 4.36505 10.8451 4.43715 10.9322 4.48602C10.9832 4.51445 11.0634 4.52647 11.1156 4.50644C11.1573 4.49042 11.2067 4.40951 11.1987 4.36826C11.1878 4.31378 11.1333 4.2541 11.0811 4.22446C10.9908 4.17279 10.8885 4.14275 10.7677 4.09428C10.8929 4.04462 10.998 4.01338 11.0919 3.9613C11.1405 3.93447 11.1995 3.87038 11.1983 3.82432C11.1967 3.76944 11.1469 3.69815 11.0975 3.66771C11.0626 3.64648 10.9844 3.66771 10.9406 3.69494C10.8515 3.75022 10.7729 3.82272 10.6605 3.91124H10.6609ZM6.49823 4.27493C6.60497 4.35984 6.6752 4.43034 6.75907 4.4768C6.81445 4.50764 6.89471 4.52367 6.9533 4.50764C6.99303 4.49643 7.046 4.41031 7.03637 4.37186C7.02152 4.31338 6.96655 4.2525 6.91237 4.22005C6.82489 4.16839 6.72416 4.13915 6.60858 4.09228C6.73259 4.04382 6.83572 4.01338 6.92762 3.96291C6.97658 3.93607 7.03557 3.87399 7.03597 3.82752C7.03597 3.77185 6.99102 3.69494 6.94247 3.66731C6.90434 3.64528 6.82248 3.66971 6.77553 3.69855C6.68523 3.75382 6.60578 3.82672 6.49783 3.91124C6.51909 3.77625 6.54478 3.67652 6.54718 3.57598C6.54839 3.51991 6.52712 3.4382 6.48739 3.41336C6.44044 3.38412 6.35015 3.38172 6.30239 3.40936C6.26306 3.43179 6.2426 3.5151 6.2434 3.57118C6.2442 3.67412 6.26708 3.77665 6.28433 3.90763C6.18441 3.82953 6.11378 3.76103 6.03071 3.71417C5.97413 3.68253 5.89347 3.65729 5.83688 3.67452C5.79394 3.68733 5.73937 3.77826 5.749 3.82152C5.76184 3.87879 5.82324 3.93767 5.87902 3.96972C5.9649 4.01938 6.06362 4.04662 6.182 4.09348C6.06201 4.14195 5.96088 4.17279 5.87059 4.22366C5.81842 4.2529 5.75662 4.31058 5.7498 4.36225C5.74338 4.40911 5.79434 4.49162 5.84009 4.51045C5.88985 4.53088 5.97132 4.51125 6.02268 4.48161C6.10816 4.43234 6.1812 4.36145 6.28473 4.27974C6.26708 4.41392 6.2434 4.51365 6.2446 4.61339C6.24541 4.67227 6.26948 4.75198 6.31202 4.78362C6.35015 4.81246 6.44646 4.81166 6.48338 4.78202C6.52511 4.74837 6.54678 4.66786 6.54638 4.60778C6.54518 4.50764 6.5195 4.40791 6.49863 4.27493H6.49823ZM8.26596 4.09469C8.154 4.13834 8.0637 4.16278 7.98505 4.20764C7.92525 4.24168 7.85422 4.29416 7.83697 4.35263C7.82413 4.39629 7.87509 4.48121 7.92164 4.51525C8.0007 4.57373 8.07173 4.51125 8.13634 4.45998C8.20697 4.4035 8.2796 4.34903 8.36829 4.28094C8.34903 4.41111 8.32896 4.51525 8.31893 4.6198C8.30689 4.74517 8.3695 4.81646 8.47825 4.81446C8.58178 4.81246 8.63756 4.74597 8.62713 4.6238C8.6183 4.51726 8.59984 4.41191 8.58178 4.28014C8.68291 4.35944 8.75715 4.43074 8.84383 4.48041C8.8956 4.51045 8.97626 4.53088 9.02642 4.51125C9.07057 4.49363 9.11913 4.41031 9.11271 4.36345C9.10548 4.31058 9.04729 4.2509 8.99593 4.22166C8.90604 4.17039 8.80411 4.14075 8.68773 4.09388C8.81454 4.04342 8.91848 4.00617 9.0188 3.9609C9.12033 3.91524 9.15043 3.82111 9.09866 3.73099C9.04529 3.63767 8.95901 3.62044 8.8647 3.68974C8.77401 3.75623 8.68652 3.82672 8.57817 3.91044C8.59503 3.80389 8.61108 3.72538 8.61951 3.64568C8.62833 3.55956 8.66525 3.45622 8.56292 3.40615C8.51356 3.38172 8.4329 3.38052 8.38394 3.40455C8.28281 3.45462 8.31612 3.55636 8.32736 3.64367C8.33779 3.72458 8.35144 3.80509 8.36789 3.91284C8.26235 3.82913 8.1853 3.75462 8.095 3.70255C8.04364 3.67291 7.96338 3.65889 7.91041 3.67772C7.87068 3.69214 7.82613 3.77465 7.83376 3.81831C7.84339 3.87319 7.89435 3.93647 7.94492 3.96531C8.03481 4.01698 8.13835 4.04542 8.26556 4.09509L8.26596 4.09469Z" fill="#F6F2ED"/>
<path d="M10.6603 3.91068C10.7727 3.82216 10.8513 3.75007 10.9404 3.69439C10.9837 3.66715 11.0624 3.64592 11.0973 3.66715C11.1471 3.69759 11.1968 3.76889 11.198 3.82377C11.1992 3.86943 11.1403 3.93351 11.0917 3.96075C10.9978 4.01282 10.8926 4.04406 10.7674 4.09373C10.8882 4.1422 10.9906 4.17224 11.0809 4.22391C11.1326 4.25355 11.1876 4.31323 11.1984 4.3677C11.2065 4.40896 11.1571 4.48987 11.1154 4.50589C11.0632 4.52592 10.9829 4.5139 10.932 4.48546C10.8449 4.4366 10.7715 4.3645 10.6643 4.27998C10.6812 4.40816 10.7048 4.50589 10.7024 4.60282C10.7008 4.66571 10.6776 4.74702 10.6334 4.78427C10.5989 4.81351 10.499 4.8107 10.4629 4.78066C10.4215 4.74622 10.4035 4.66571 10.4035 4.60522C10.4039 4.50909 10.4279 4.41296 10.4472 4.28038C10.3421 4.36209 10.2674 4.43539 10.1787 4.48266C10.1242 4.5119 10.0411 4.52191 9.98491 4.50188C9.94518 4.48787 9.90545 4.40656 9.90946 4.35849C9.91307 4.31243 9.96364 4.25475 10.009 4.23072C10.1053 4.17985 10.2112 4.1474 10.3441 4.09533C10.2225 4.04687 10.1226 4.01923 10.0359 3.96836C9.98129 3.93632 9.9219 3.87463 9.91107 3.81736C9.90264 3.7733 9.95681 3.68798 10.0018 3.67196C10.0527 3.65354 10.1322 3.67757 10.1844 3.70801C10.2702 3.75848 10.3445 3.82897 10.4468 3.90908C10.4283 3.78011 10.4039 3.68077 10.4035 3.58184C10.4035 3.52176 10.4239 3.44125 10.4657 3.408C10.5038 3.37796 10.6005 3.37596 10.639 3.4048C10.6816 3.43684 10.7044 3.51775 10.7044 3.57703C10.7044 3.67757 10.6796 3.7777 10.6607 3.91068H10.6603Z" fill="#2F4F4F"/>
<path d="M6.49782 4.2751C6.51829 4.40848 6.54437 4.50822 6.54557 4.60795C6.54638 4.66763 6.52471 4.74814 6.48257 4.78219C6.44565 4.81183 6.34974 4.81263 6.31121 4.78379C6.26868 4.75215 6.2446 4.67244 6.24379 4.61356C6.24259 4.51383 6.26627 4.41409 6.28392 4.27991C6.18039 4.36162 6.10775 4.43292 6.02187 4.48178C5.97011 4.51142 5.88864 4.53105 5.83928 4.51062C5.79353 4.4918 5.74257 4.40928 5.74899 4.36242C5.75581 4.31075 5.81761 4.25307 5.86978 4.22383C5.96008 4.17296 6.0616 4.14212 6.18119 4.09366C6.06281 4.04679 5.96409 4.01916 5.87821 3.96989C5.82243 3.93785 5.76063 3.87897 5.74819 3.82169C5.73856 3.77843 5.79313 3.68791 5.83607 3.67469C5.89225 3.65747 5.97332 3.6827 6.0299 3.71434C6.11297 3.76121 6.1836 3.8297 6.28352 3.90781C6.26627 3.77643 6.24339 3.67389 6.24259 3.57135C6.24219 3.51527 6.26266 3.43196 6.30158 3.40953C6.34934 3.38189 6.43963 3.3843 6.48658 3.41354C6.52631 3.43837 6.54758 3.52048 6.54638 3.57616C6.54397 3.67669 6.51828 3.77643 6.49702 3.91141C6.60497 3.8269 6.68442 3.754 6.77472 3.69872C6.82167 3.66988 6.90353 3.64585 6.94166 3.66748C6.99022 3.69552 7.03556 3.77242 7.03516 3.8277C7.03516 3.87416 6.97577 3.93624 6.92681 3.96308C6.83491 4.01355 6.73178 4.04359 6.60778 4.09246C6.72295 4.13932 6.82408 4.16856 6.91156 4.22023C6.96614 4.25227 7.02071 4.31356 7.03556 4.37203C7.04519 4.41049 6.99262 4.4966 6.95249 4.50782C6.8943 4.52384 6.81364 4.50782 6.75826 4.47698C6.67439 4.43051 6.60416 4.36002 6.49742 4.2751H6.49782Z" fill="#2F4F4F"/>
<path d="M8.26567 4.09513C8.13805 4.04546 8.03492 4.01703 7.94503 3.96536C7.89446 3.93652 7.8435 3.87323 7.83387 3.81836C7.82624 3.7747 7.87079 3.69219 7.91052 3.67777C7.96349 3.65894 8.04375 3.67296 8.09511 3.7026C8.18541 3.75467 8.26246 3.82957 8.368 3.91288C8.35155 3.80474 8.3379 3.72423 8.32747 3.64372C8.31623 3.5568 8.28292 3.45466 8.38405 3.4046C8.43301 3.38056 8.51367 3.38176 8.56303 3.4062C8.66536 3.45667 8.62844 3.55961 8.61962 3.64572C8.61159 3.72503 8.59554 3.80394 8.57828 3.91048C8.68663 3.82677 8.77412 3.75627 8.86481 3.68978C8.95912 3.62089 9.0454 3.63771 9.09877 3.73104C9.15014 3.82116 9.12044 3.91529 9.01891 3.96095C8.91859 4.00621 8.81465 4.04346 8.68784 4.09393C8.80422 4.14039 8.90615 4.17043 8.99604 4.2217C9.04781 4.25094 9.10559 4.31102 9.11282 4.36349C9.11924 4.41036 9.07068 4.49367 9.02654 4.5113C8.97637 4.53092 8.89571 4.51049 8.84394 4.48045C8.75726 4.43039 8.68302 4.35909 8.58189 4.28018C8.59955 4.41196 8.61841 4.5173 8.62724 4.62385C8.63727 4.74641 8.58149 4.8125 8.47836 4.81451C8.36961 4.81651 8.307 4.74481 8.31904 4.61984C8.32907 4.5149 8.34914 4.41116 8.3684 4.28098C8.27971 4.34948 8.20708 4.40355 8.13645 4.46003C8.07184 4.5117 8.00081 4.57378 7.92175 4.5153C7.8752 4.48085 7.82384 4.39634 7.83708 4.35268C7.85433 4.2942 7.92536 4.24173 7.98516 4.20768C8.06381 4.16282 8.15411 4.13839 8.26607 4.09473L8.26567 4.09513Z" fill="#2F4F4F"/>
</svg>
