<svg width="17" height="12" viewBox="0 0 17 12" fill="none" xmlns="http://www.w3.org/2000/svg">
<path d="M10.088 2.50384C10.1672 2.53956 10.2435 2.58109 10.3165 2.6281C10.4637 2.73951 10.6022 2.86044 10.745 2.97661C10.8598 3.07183 10.9864 3.10326 11.1259 3.0447C11.1931 3.01889 11.2511 2.9738 11.2927 2.91509C11.3343 2.85638 11.3576 2.78668 11.3597 2.71476C11.3768 2.52431 11.3954 2.33387 11.4206 2.14724C11.4482 1.94013 11.542 1.86157 11.7539 1.85824C12.1529 1.85634 12.5517 1.85634 12.9504 1.85824C13.1737 1.85824 13.266 1.93823 13.2946 2.15581C13.3193 2.34625 13.3346 2.53669 13.3565 2.7238C13.3927 3.04136 13.7074 3.17705 13.963 2.98185C14.1097 2.87044 14.2487 2.74856 14.3915 2.63286C14.5744 2.4867 14.7 2.48765 14.8629 2.64715C15.1485 2.92678 15.4306 3.20879 15.7089 3.49319C15.8679 3.65554 15.8703 3.78361 15.7256 3.96453C15.6139 4.10356 15.5005 4.24147 15.3856 4.37827C15.2847 4.49777 15.2504 4.6287 15.3123 4.77534C15.3742 4.92198 15.4894 4.99007 15.6456 5.0034C15.8408 5.02054 16.036 5.04339 16.2312 5.06624C16.4069 5.08719 16.4964 5.19336 16.4978 5.36619C16.501 5.78834 16.501 6.2108 16.4978 6.63358C16.4978 6.80641 16.4078 6.91353 16.2322 6.93496C16.0417 6.95781 15.8541 6.98257 15.6642 6.9959C15.5009 7.0078 15.3785 7.0735 15.3137 7.22681C15.249 7.38011 15.2942 7.51247 15.3985 7.63769C15.514 7.77322 15.6269 7.91145 15.737 8.05238C15.866 8.21663 15.8636 8.34899 15.7194 8.49658C15.4318 8.79018 15.1412 9.08061 14.8476 9.36786C14.7048 9.50593 14.5734 9.51069 14.4191 9.38881C14.2649 9.26692 14.1216 9.15075 13.9759 9.02792C13.8564 8.92698 13.7269 8.89318 13.5793 8.95555C13.4317 9.01792 13.367 9.13361 13.3541 9.28883C13.3379 9.4845 13.3146 9.67971 13.2912 9.87443C13.2703 10.0501 13.1641 10.1396 12.9913 10.1411C12.5685 10.1442 12.1459 10.1442 11.7234 10.1411C11.5506 10.1411 11.444 10.0515 11.4225 9.87586C11.3997 9.68542 11.3749 9.49783 11.3616 9.30787C11.3492 9.14456 11.283 9.0222 11.1302 8.95745C10.9774 8.8927 10.8445 8.93793 10.7193 9.0422C10.5874 9.15408 10.4537 9.26264 10.3184 9.36976C10.1366 9.51259 10.0099 9.51259 9.84758 9.34976C9.56191 9.06981 9.2799 8.7878 9.00154 8.50372C8.84728 8.34708 8.84299 8.21806 8.97916 8.04714C9.09438 7.90431 9.21293 7.76148 9.33005 7.61865C9.42908 7.49819 9.46145 7.36631 9.39623 7.22014C9.331 7.07398 9.21721 7.00828 9.0601 6.99542C8.86965 6.98019 8.68048 6.95987 8.49258 6.93448C8.30214 6.90877 8.21644 6.81403 8.21453 6.62692C8.21104 6.21048 8.21104 5.79389 8.21453 5.37714C8.21453 5.1867 8.30118 5.09147 8.48639 5.06481C8.68112 5.03863 8.8768 5.0172 9.072 5.00149C9.1439 4.99928 9.21353 4.9758 9.27209 4.93402C9.33065 4.89224 9.37551 4.83404 9.40099 4.76677C9.45907 4.62394 9.42574 4.49967 9.33195 4.38589C9.21531 4.24305 9.09723 4.10022 8.98202 3.95739C8.84442 3.78456 8.8468 3.65411 8.9982 3.49985C9.28387 3.21133 9.56953 2.92472 9.85805 2.64286C9.92137 2.58478 10.0066 2.5524 10.088 2.50384ZM12.3733 4.573C11.5701 4.56395 10.9498 5.17765 10.9412 5.99036C10.9359 6.17885 10.9686 6.36648 11.0376 6.54199C11.1065 6.71751 11.2102 6.8773 11.3423 7.01179C11.4745 7.14627 11.6325 7.25269 11.8068 7.32465C11.9811 7.39661 12.1681 7.43264 12.3567 7.43058C13.1546 7.43439 13.7635 6.83164 13.7797 6.02178C13.7861 5.83349 13.7545 5.64585 13.6867 5.47008C13.6188 5.29432 13.5162 5.13404 13.385 4.99886C13.2538 4.86368 13.0966 4.75637 12.923 4.68336C12.7493 4.61035 12.5627 4.57313 12.3743 4.57395L12.3733 4.573Z" fill="#FDF7F0"/>
<path d="M8.35035 3.99412H1.41444V3.34376C0.739322 3.24092 0.50127 2.95859 0.50127 2.29823V1.86974C0.50127 1.6912 0.498413 1.51266 0.50127 1.33412C0.50167 1.12058 0.582401 0.915 0.727418 0.758251C0.872436 0.601502 1.07112 0.505054 1.28399 0.488076C1.35616 0.481549 1.42863 0.478689 1.50109 0.479506H9.17782C9.84437 0.479506 10.1776 0.808972 10.1776 1.47409V1.95543C9.76867 1.91925 9.51729 2.16016 9.27304 2.41964C9.07641 2.62674 8.87597 2.83147 8.66506 3.02382C8.37606 3.28853 8.25322 3.59895 8.35035 3.99412ZM1.9153 1.61788C1.84072 1.62369 1.77118 1.65779 1.7209 1.71319C1.67063 1.7686 1.64343 1.84112 1.64488 1.91592C1.64912 1.98853 1.68151 2.05664 1.73516 2.10575C1.78881 2.15487 1.8595 2.18113 1.93221 2.17897C2.00492 2.1768 2.07392 2.14636 2.12454 2.09413C2.17517 2.0419 2.20344 1.97199 2.20335 1.89925C2.20043 1.82441 2.16895 1.75353 2.11537 1.70119C2.06179 1.64885 1.9902 1.61904 1.9153 1.61788ZM3.07415 1.61788C2.99942 1.61883 2.92795 1.64865 2.87471 1.7011C2.82146 1.75354 2.79057 1.82455 2.78848 1.89925C2.78875 1.97188 2.81728 2.04154 2.86802 2.09349C2.91876 2.14545 2.98774 2.17561 3.06033 2.17759C3.13293 2.17957 3.20344 2.15321 3.25694 2.1041C3.31044 2.05499 3.34273 1.98699 3.34695 1.91449C3.34795 1.83934 3.31996 1.7667 3.26881 1.71165C3.21765 1.65659 3.14726 1.62335 3.07224 1.61883L3.07415 1.61788ZM4.48913 1.89544C4.48922 1.85775 4.48168 1.82042 4.46697 1.78571C4.45226 1.751 4.43067 1.71962 4.40352 1.69347C4.37636 1.66732 4.3442 1.64694 4.30896 1.63354C4.27372 1.62015 4.23613 1.61402 4.19846 1.61553C4.16079 1.61704 4.12382 1.62616 4.08976 1.64233C4.05571 1.65851 4.02528 1.6814 4.0003 1.70964C3.97533 1.73788 3.95633 1.77088 3.94444 1.80666C3.93255 1.84244 3.92803 1.88025 3.93114 1.91782C3.93708 1.98964 3.97053 2.05639 4.02452 2.10414C4.07851 2.15188 4.14885 2.17692 4.22086 2.17403C4.29287 2.17114 4.36098 2.14055 4.41097 2.08864C4.46096 2.03673 4.48896 1.96751 4.48913 1.89544Z" fill="#FDF7F0"/>
<path d="M10.1867 10.1249C10.1767 10.3301 10.1867 10.6011 10.1443 10.8596C10.0848 11.2152 9.78771 11.4647 9.43016 11.5085C9.34749 11.5177 9.26432 11.5217 9.18115 11.5204H1.50109C0.824545 11.5204 0.50127 11.1924 0.50127 10.5106C0.50127 10.1892 0.498413 9.86785 0.50127 9.54648C0.506507 9.04466 0.867871 8.67663 1.36969 8.67568C3.67277 8.67282 5.97585 8.67377 8.27893 8.67854C8.35626 8.68653 8.42827 8.7216 8.48223 8.77756C8.83836 9.12798 9.17258 9.5022 9.54633 9.83262C9.69916 9.96783 9.9315 10.0131 10.1867 10.1249ZM1.92292 10.3825C1.99784 10.3795 2.06874 10.3478 2.121 10.294C2.17327 10.2403 2.20291 10.1685 2.20382 10.0935C2.20382 10.0194 2.17438 9.94832 2.12197 9.8959C2.06956 9.84349 1.99847 9.81405 1.92435 9.81405C1.85023 9.81405 1.77914 9.84349 1.72673 9.8959C1.67432 9.94832 1.64488 10.0194 1.64488 10.0935C1.64541 10.1681 1.67454 10.2397 1.72627 10.2935C1.778 10.3472 1.84839 10.3791 1.92292 10.3825ZM3.06557 10.3825C3.1405 10.3795 3.2114 10.3478 3.26366 10.294C3.31592 10.2403 3.34556 10.1685 3.34648 10.0935C3.34418 10.0219 3.31506 9.95377 3.26488 9.90262C3.2147 9.85147 3.14713 9.82105 3.07557 9.81738C3.03852 9.81624 3.0016 9.82248 2.96698 9.83575C2.93236 9.84901 2.90072 9.86903 2.87391 9.89465C2.84711 9.92026 2.82566 9.95095 2.81083 9.98493C2.796 10.0189 2.78808 10.0555 2.78753 10.0926C2.78782 10.1674 2.81692 10.2393 2.86877 10.2933C2.92063 10.3473 2.99127 10.3792 3.06605 10.3825H3.06557ZM4.2287 9.81738C4.19166 9.81493 4.15449 9.81988 4.11938 9.83193C4.08426 9.84398 4.05189 9.8629 4.02416 9.88758C3.99642 9.91225 3.97387 9.9422 3.95782 9.97568C3.94177 10.0092 3.93254 10.0455 3.93066 10.0826C3.92555 10.1564 3.94999 10.2293 3.9986 10.2852C4.04722 10.341 4.11603 10.3753 4.1899 10.3804C4.26377 10.3855 4.33664 10.361 4.39249 10.3124C4.44834 10.2638 4.48259 10.195 4.4877 10.1211C4.49349 10.0467 4.46954 9.97294 4.42108 9.9161C4.37263 9.85925 4.30362 9.82393 4.22918 9.81786L4.2287 9.81738Z" fill="#FDF7F0"/>
<path d="M8.62239 7.53542C8.52717 7.71348 8.43719 7.88583 8.33673 8.05152C8.30514 8.08226 8.26273 8.09935 8.21865 8.09913C8.12343 8.10627 8.02821 8.09913 7.93299 8.09913H1.42081V7.46972C1.39225 7.44686 1.38415 7.43448 1.3732 7.43305C0.751409 7.34117 0.500977 7.04979 0.500977 6.41371C0.500977 6.10424 0.500977 5.79478 0.500977 5.48578C0.503833 4.94112 0.860436 4.57737 1.40558 4.57594C2.72058 4.57261 4.03559 4.57594 5.35059 4.57594H8.05678C7.68065 4.84066 7.62447 5.21345 7.64161 5.62338C7.65589 5.95665 7.64161 6.28992 7.64494 6.6232C7.64828 7.11359 7.95489 7.45019 8.4448 7.50685C8.50812 7.51399 8.57002 7.5259 8.62239 7.53542ZM2.20258 5.99379C2.20024 5.93911 2.18188 5.88633 2.14978 5.84202C2.11767 5.7977 2.07325 5.7638 2.02202 5.74454C1.9708 5.72528 1.91505 5.72151 1.8617 5.7337C1.80835 5.74589 1.75976 5.7735 1.72198 5.81309C1.68421 5.85268 1.6589 5.90251 1.64923 5.95637C1.63956 6.01023 1.64594 6.06575 1.66758 6.11601C1.68921 6.16628 1.72516 6.20907 1.77093 6.23906C1.8167 6.26905 1.87029 6.28492 1.92501 6.28469C1.99999 6.28172 2.07087 6.24971 2.12268 6.19542C2.17448 6.14113 2.20313 6.06882 2.20258 5.99379ZM3.34523 5.99379C3.34308 5.9391 3.3249 5.88626 3.29295 5.84183C3.261 5.7974 3.21668 5.76335 3.16552 5.74392C3.11436 5.72449 3.05862 5.72053 3.00523 5.73254C2.95184 5.74455 2.90316 5.77199 2.86524 5.81146C2.82733 5.85093 2.80187 5.90067 2.79201 5.9545C2.78216 6.00833 2.78835 6.06388 2.80983 6.11421C2.8313 6.16455 2.8671 6.20746 2.91278 6.2376C2.95845 6.26774 3.01199 6.28379 3.06671 6.28373C3.14153 6.28091 3.21236 6.24924 3.26436 6.19538C3.31637 6.14151 3.34552 6.06961 3.34571 5.99474L3.34523 5.99379ZM4.2146 6.28469C4.28456 6.27636 4.34898 6.24248 4.39548 6.18955C4.44197 6.13661 4.46727 6.06836 4.4665 5.99791C4.46573 5.92746 4.43896 5.85978 4.39132 5.80787C4.34368 5.75596 4.27854 5.72349 4.20841 5.71669C4.13845 5.72502 4.07403 5.7589 4.02754 5.81184C3.98104 5.86477 3.95575 5.93302 3.95651 6.00347C3.95728 6.07392 3.98406 6.1416 4.0317 6.19351C4.07934 6.24542 4.14448 6.27789 4.2146 6.28469Z" fill="#FDF7F0"/>
</svg>
