<svg xmlns="http://www.w3.org/2000/svg" width="42.808" height="42" viewBox="0 0 42.808 42">
  <g id="settingup" transform="translate(-40 -425)">
    <ellipse id="Ellipse_218" data-name="Ellipse 218" cx="21.404" cy="21" rx="21.404" ry="21" transform="translate(40 425)" fill="#00433a"/>
    <g id="Ellipse_220" data-name="Ellipse 220" transform="translate(44 429)" fill="none" stroke="#fff" stroke-linecap="round" stroke-width="1" stroke-dasharray="0.2 3" opacity="0.511">
      <ellipse cx="17.404" cy="17" rx="17.404" ry="17" stroke="none"/>
      <ellipse cx="17.404" cy="17" rx="16.904" ry="16.5" fill="none"/>
    </g>
    <g id="Settings_Gear" data-name="Settings Gear" transform="translate(49.48 434)">
      <path id="Path_27714" data-name="Path 27714" d="M12,13.82A1.82,1.82,0,1,0,10.18,12,1.82,1.82,0,0,0,12,13.82Z" fill="#79b1a7"/>
      <path id="Path_27715" data-name="Path 27715" d="M20.34,12.98l-.51-.29a.8.8,0,0,1,0-1.38l.51-.29A2.247,2.247,0,0,0,21.4,9.63a2.3,2.3,0,0,0-.22-1.74L20.15,6.11a2.3,2.3,0,0,0-3.13-.84l-.51.29a.8.8,0,0,1-1.19-.68V4.29A2.3,2.3,0,0,0,13.03,2H10.97A2.3,2.3,0,0,0,8.68,4.29v.59a.773.773,0,0,1-.39.68.781.781,0,0,1-.8,0l-.51-.29a2.288,2.288,0,0,0-3.12.84L2.83,7.89a2.283,2.283,0,0,0,.84,3.13l.5.29a.8.8,0,0,1,0,1.38l-.5.29a2.283,2.283,0,0,0-.84,3.13l1.03,1.78a2.243,2.243,0,0,0,1.39,1.07,2.276,2.276,0,0,0,1.73-.23l.51-.29a.781.781,0,0,1,.8,0,.773.773,0,0,1,.39.68v.59A2.3,2.3,0,0,0,10.97,22h2.06a2.3,2.3,0,0,0,2.29-2.29v-.59a.8.8,0,0,1,1.19-.68l.51.29a2.287,2.287,0,0,0,3.13-.84l1.03-1.78a2.3,2.3,0,0,0,.22-1.74A2.247,2.247,0,0,0,20.34,12.98ZM8.68,12A3.32,3.32,0,1,1,12,15.32,3.325,3.325,0,0,1,8.68,12Z" fill="#79b1a7"/>
    </g>
  </g>
</svg>
