<svg width="15" height="14" viewBox="0 0 15 14" fill="none" xmlns="http://www.w3.org/2000/svg">
<path d="M13.0939 13.122H1.89923C1.52827 13.1216 1.17263 12.974 0.910326 12.7117C0.648019 12.4494 0.500455 12.0938 0.5 11.7228V2.36826C0.499946 2.00129 0.644056 1.649 0.901279 1.38727C1.1585 1.12555 1.50825 0.975346 1.87516 0.969034L10.0574 0.87793H10.084C10.6389 0.878384 11.1709 1.09888 11.5634 1.49105C11.9559 1.88322 12.1768 2.41505 12.1777 2.96989L12.1983 3.00427V3.09538H13.1008C13.4717 3.09583 13.8274 3.2434 14.0897 3.5057C14.352 3.76801 14.4995 4.12365 14.5 4.4946V10.1543L14.4931 9.55262V11.7219C14.4929 12.093 14.3454 12.4489 14.0831 12.7114C13.8208 12.9739 13.465 13.1216 13.0939 13.122ZM2.31263 2.27802C2.20299 2.27802 2.09784 2.32157 2.02031 2.3991C1.94278 2.47663 1.89923 2.58178 1.89923 2.69142V3.10397H10.6418C10.6414 2.88528 10.5543 2.67568 10.3996 2.52104C10.245 2.3664 10.0354 2.27933 9.81672 2.27888L2.31263 2.27802Z" fill="#FDF7F0"/>
<path d="M7.5004 6.29639C7.14938 6.29639 6.80623 6.40048 6.51437 6.5955C6.2225 6.79052 5.99502 7.0677 5.86069 7.39201C5.72635 7.71632 5.69121 8.07318 5.75969 8.41746C5.82817 8.76174 5.99721 9.07798 6.24542 9.32619C6.49363 9.5744 6.80987 9.74344 7.15415 9.81192C7.49844 9.8804 7.85529 9.84525 8.17959 9.71092C8.5039 9.57659 8.78109 9.3491 8.97611 9.05724C9.17113 8.76537 9.27522 8.42223 9.27522 8.07121C9.27476 7.60064 9.08763 7.14946 8.75488 6.81672C8.42214 6.48398 7.97098 6.29684 7.5004 6.29639Z" fill="#2D6759"/>
<path d="M10.2995 9.73149C10.7488 9.26464 11.1166 8.72572 11.3875 8.13716C11.397 8.11699 11.4019 8.09498 11.4019 8.07271C11.4019 8.05043 11.397 8.02842 11.3875 8.00824C11.1166 7.41969 10.7488 6.88077 10.2995 6.41392C9.9417 6.02812 9.50901 5.71938 9.02783 5.50657C8.54665 5.29377 8.02711 5.18137 7.501 5.17627C6.97489 5.18137 6.45535 5.29377 5.97417 5.50657C5.49299 5.71938 5.06029 6.02812 4.70255 6.41392C4.25161 6.8818 3.88262 7.42222 3.61101 8.01254C3.60157 8.03272 3.59668 8.05472 3.59668 8.077C3.59668 8.09928 3.60157 8.12128 3.61101 8.14146C3.88241 8.72849 4.25019 9.26594 4.69911 9.73149C5.05686 10.1173 5.48956 10.426 5.97073 10.6388C6.45191 10.8516 6.97145 10.964 7.49756 10.9691C8.02425 10.9645 8.54445 10.8523 9.02625 10.6395C9.50805 10.4267 9.94131 10.1177 10.2995 9.73149ZM7.49928 10.6649C6.71992 10.6099 5.97148 10.3381 5.33858 9.87998C4.70567 9.42189 4.21354 8.79588 3.91784 8.07271C4.21367 7.3497 4.70585 6.72385 5.33875 6.26593C5.97164 5.808 6.72002 5.53625 7.49928 5.48139C8.27854 5.53625 9.02692 5.808 9.65981 6.26593C10.2927 6.72385 10.7849 7.3497 11.0807 8.07271C10.785 8.79588 10.2929 9.42189 9.65999 9.87998C9.02708 10.3381 8.27864 10.6099 7.49928 10.6649Z" fill="#2D6759" stroke="#2D6759"/>
</svg>
