<svg width="25" height="26" viewBox="0 0 25 26" fill="none" xmlns="http://www.w3.org/2000/svg">
<rect y="0.9375" width="25" height="25" rx="12.5" fill="#2F4F4F"/>
<path d="M11.8188 6.4975C11.6712 6.46797 11.494 6.4975 11.4645 6.4975C8.0984 6.55655 5.5 9.27303 5.5 12.521C5.5 13.643 5.79527 14.3812 5.8248 14.5288C6.65156 16.891 8.86611 18.515 11.3759 18.5445H11.5236C11.4645 18.3378 11.494 18.1311 11.5826 17.9244L11.6712 17.7473C11.5826 17.7177 11.494 17.6882 11.4055 17.6292C11.3169 17.5701 11.2283 17.4815 11.1692 17.3929C10.5787 17.0977 9.95862 16.2119 9.63382 14.9127C10.2539 14.9422 10.9625 14.9717 11.7598 14.9422C11.7598 14.9422 11.7303 14.9127 11.7303 14.8832C11.6121 14.706 11.5236 14.3517 11.7598 13.9088C10.933 13.9088 10.1358 13.9088 9.42713 13.8497C9.33855 13.2296 9.30902 12.4915 9.33855 12.0486C9.33855 11.6942 9.36807 11.3399 9.42713 11.0151C9.81098 10.9856 10.1653 10.9856 10.5787 10.9561C11.5531 10.9265 12.6161 10.9561 13.7086 11.0151C13.7676 11.458 13.7972 11.9305 13.7972 12.4324V12.4915C13.9743 12.2257 14.2991 12.0486 14.6535 11.9895H14.8011C14.8011 11.6942 14.7716 11.399 14.742 11.1037C15.3916 11.1628 15.9822 11.2513 16.5137 11.3399C16.5432 11.4876 16.5727 11.6647 16.6023 11.8419V11.96C16.6023 12.1076 16.6318 12.2257 16.6318 12.3734C16.7499 12.3143 16.868 12.2848 17.0156 12.2848C17.2814 12.2848 17.4881 12.3734 17.6652 12.4619C17.7243 9.24351 15.0668 6.55655 11.8188 6.4975ZM6.65156 13.6135C6.4744 12.8458 6.50393 12.1076 6.65156 11.399V11.3694C7.27164 11.2809 7.83266 11.1923 8.4232 11.1332C8.33462 11.9305 8.30509 12.9048 8.4232 13.8202C7.80313 13.7907 7.21258 13.7316 6.65156 13.6135ZM9.42713 17.0681C8.39367 16.5957 7.53738 15.769 7.03542 14.7355C7.53738 14.7946 8.03935 14.8832 8.60037 14.9127C8.77753 15.7394 9.0728 16.4776 9.42713 17.0681ZM8.86611 9.21398C8.748 9.50925 8.65942 9.80452 8.60037 10.1588C8.12793 10.1884 7.53738 10.2474 7.03542 10.336C7.53738 9.30256 8.39367 8.50533 9.42713 8.00337C9.22044 8.3577 9.01375 8.77107 8.86611 9.21398ZM10.5196 10.0407C10.2244 10.0407 9.92909 10.0703 9.66335 10.0703C9.7224 9.83404 9.81098 9.59783 9.89957 9.36161C10.3425 8.18053 10.9921 7.50141 11.6121 7.50141C12.3503 7.50141 13.1476 8.4758 13.561 10.0703C12.498 10.0112 11.4645 10.0112 10.5196 10.0407ZM14.6239 10.1588C14.4468 9.33209 14.1515 8.59391 13.7972 8.00337C14.8306 8.4758 15.6869 9.30256 16.1889 10.336C15.6869 10.2474 15.185 10.1884 14.6239 10.1588Z" fill="#F6F2ED"/>
<path d="M19.3188 17.156C19.2302 17.0675 19.0826 17.0675 18.9645 17.0084C18.6987 16.8608 18.7282 16.4179 18.994 16.2997C19.1121 16.2407 19.2893 16.2407 19.4074 16.1521C19.555 16.0045 19.496 15.7978 19.4369 15.5911C19.3778 15.4435 19.3483 15.2663 19.2893 15.1187C19.2302 14.912 19.1121 14.6462 18.8759 14.6462C18.7578 14.6462 18.6397 14.7348 18.5216 14.7643C18.2263 14.8234 17.931 14.4986 18.0491 14.2033C18.1082 14.0557 18.2558 13.9376 18.2558 13.79C18.2558 13.6423 18.1377 13.5242 17.9901 13.4356C17.8424 13.3175 17.6653 13.2289 17.5176 13.1108C17.3109 12.9927 16.9861 12.8746 16.809 13.0518C16.7499 13.1108 16.7204 13.2289 16.6613 13.3175C16.5137 13.5537 16.1003 13.5242 15.9822 13.288C15.9232 13.1699 15.9232 13.0223 15.8936 12.8746C15.8346 12.6975 15.6869 12.6089 15.4802 12.6384C15.244 12.6679 15.0373 12.6384 14.8011 12.6679C14.5354 12.6975 14.2696 12.8746 14.2696 13.1108C14.2696 13.1994 14.2992 13.3175 14.2992 13.4061C14.2992 13.6719 13.9448 13.8785 13.7086 13.7604C13.561 13.6719 13.4429 13.4947 13.2657 13.4652C13.0885 13.4356 12.9409 13.5833 12.8228 13.7014L12.4685 14.0557C12.3208 14.2329 12.1437 14.4691 12.2618 14.6758C12.3208 14.7939 12.4389 14.8234 12.5275 14.912C12.6456 15.0301 12.6752 15.2073 12.5866 15.3549C12.5275 15.5025 12.3504 15.5911 12.2027 15.5911C12.1141 15.5911 12.0256 15.5616 11.937 15.5616C11.6712 15.5911 11.5826 15.9159 11.5826 16.1521V16.7131C11.5826 16.8608 11.6122 17.0379 11.7303 17.1265C11.8779 17.2151 12.0551 17.156 12.2027 17.1856C12.4685 17.2446 12.6161 17.6285 12.4389 17.8352C12.3504 17.9533 12.1732 18.0123 12.1141 18.1599C12.0256 18.3371 12.1437 18.5438 12.2913 18.721C12.3799 18.8391 12.498 18.9867 12.5866 19.1048C12.7047 19.2524 12.8818 19.4296 13.0885 19.4001C13.2362 19.3706 13.3248 19.2229 13.4724 19.1639C13.7381 19.0162 14.0925 19.2524 14.0925 19.5477C14.0925 19.6953 14.0039 19.843 14.0334 19.9611C14.0925 20.1383 14.2992 20.2268 14.5058 20.2564C14.6535 20.2859 14.8306 20.3154 14.9783 20.3449C15.2145 20.404 15.5098 20.4335 15.6279 20.2268C15.6869 20.1087 15.6869 19.9906 15.7165 19.8725C15.805 19.6068 16.2184 19.5182 16.4251 19.7544C16.5432 19.8725 16.5728 20.0792 16.7204 20.1678C16.868 20.2564 17.0452 20.1678 17.1928 20.1087C17.3405 20.0497 17.4881 19.9611 17.6357 19.902C17.7538 19.843 17.872 19.7839 17.9605 19.6953C18.0491 19.6068 18.1082 19.4591 18.0786 19.341C18.0491 19.2524 17.9901 19.1934 17.931 19.1048C17.872 18.9572 17.872 18.78 17.9901 18.6619C18.1082 18.5438 18.2558 18.4847 18.4034 18.5143C18.5511 18.5438 18.6692 18.6619 18.8168 18.6324C19.0235 18.6324 19.1416 18.3962 19.2007 18.219L19.3778 17.7761C19.4369 17.5989 19.496 17.3037 19.3188 17.156ZM15.7755 15.2073C15.9822 15.2368 16.1889 15.3254 16.3365 15.4435C16.4546 15.532 16.5728 15.6502 16.6613 15.7683C17.1042 16.3883 16.9271 17.3037 16.248 17.6875C16.1003 17.7761 15.9527 17.8352 15.805 17.8352C15.6574 17.8647 15.5098 17.8647 15.3326 17.8352C14.683 17.7466 14.181 17.156 14.181 16.5064C14.181 16.4474 14.181 16.3588 14.2106 16.2997C14.2106 16.2112 14.2401 16.1226 14.2696 16.0635C14.5058 15.5025 15.1259 15.1187 15.7755 15.2073Z" fill="#F6F2ED"/>
</svg>
