<svg xmlns="http://www.w3.org/2000/svg" xmlns:xlink="http://www.w3.org/1999/xlink" width="30" height="30" viewBox="0 0 30 30">
  <defs>
    <linearGradient id="linear-gradient" x1="0.177" y1="0.092" x2="0.924" y2="0.837" gradientUnits="objectBoundingBox">
      <stop offset="0" stop-color="#00836a"/>
      <stop offset="1" stop-color="#073e39"/>
    </linearGradient>
  </defs>
  <g id="IK" transform="translate(-48 -260)">
    <g id="Group_42867" data-name="Group 42867" transform="translate(48 260)">
      <circle id="Ellipse_218" data-name="Ellipse 218" cx="15" cy="15" r="15" fill="url(#linear-gradient)"/>
      <g id="Ellipse_220" data-name="Ellipse 220" transform="translate(2.5 2.571)" fill="none" stroke="#fff" stroke-linecap="round" stroke-width="1" stroke-dasharray="0.2 3" opacity="0.511">
        <circle cx="12.5" cy="12.5" r="12.5" stroke="none"/>
        <circle cx="12.5" cy="12.5" r="12" fill="none"/>
      </g>
    </g>
    <path id="Receipt" d="M13.464,2H3.874A1.876,1.876,0,0,0,2,3.874v9.87a1.977,1.977,0,0,0,.48,1.274.51.51,0,0,0,.393.167.49.49,0,0,0,.387-.193l.854-1.134.834,1.087a.982.982,0,0,0,.787.393,1,1,0,0,0,.794-.393l.82-1.087.834,1.087a1.013,1.013,0,0,0,1.574,0l.814-1.067.774,1.08a.509.509,0,0,0,.787.04,1.933,1.933,0,0,0,.467-1.254V9.169h.867c1.034,0,1.207-.84,1.207-1.874V3.867C14.671,2.834,14.5,2,13.464,2Zm-9.41,8.723a.5.5,0,0,1,.5-.5h5.489a.5.5,0,1,1,0,1H4.554A.5.5,0,0,1,4.054,10.723Zm0-2.741a.5.5,0,0,1,.5-.5h5.489a.5.5,0,1,1,0,1H4.554A.5.5,0,0,1,4.054,7.982Zm5.989-2.214H4.554a.5.5,0,0,1,0-1h5.489a.5.5,0,1,1,0,1ZM13.826,7.3c0,.48.119.874-.361.874H12.6V3h.867c.48,0,.361.387.361.867Z" transform="translate(54.664 266.331)" fill="#fff"/>
  </g>
</svg>
