<svg width="25" height="25" viewBox="0 0 25 25" fill="none" xmlns="http://www.w3.org/2000/svg">
<path fill-rule="evenodd" clip-rule="evenodd" d="M14.303 5.83301C14.303 3.99301 15.803 2.50001 17.651 2.50001C18.0898 2.49883 18.5245 2.58412 18.9303 2.751C19.3361 2.91788 19.7051 3.16309 20.0161 3.47262C20.3271 3.78214 20.5741 4.14991 20.7429 4.55492C20.9117 4.95992 20.9991 5.39423 21 5.83301C21 7.67401 19.5 9.16701 17.651 9.16701C17.2076 9.16734 16.7686 9.07964 16.3593 8.90901C15.9501 8.73838 15.5788 8.48822 15.267 8.17301L10.632 11.329C10.7608 11.972 10.6975 12.6387 10.45 13.246L15.532 16.586C16.1307 16.0981 16.8797 15.8321 17.652 15.833C18.0908 15.832 18.5255 15.9174 18.9312 16.0844C19.337 16.2514 19.7059 16.4967 20.0168 16.8063C20.3277 17.1159 20.5746 17.4838 20.7433 17.8888C20.912 18.2939 20.9992 18.7282 21 19.167C21 21.007 19.5 22.5 17.651 22.5C17.2123 22.5011 16.7777 22.4157 16.372 22.2487C15.9663 22.0818 15.5975 21.8366 15.2866 21.5271C14.9757 21.2175 14.7288 20.8498 14.56 20.4449C14.3913 20.0399 14.3039 19.6057 14.303 19.167C14.3022 18.6996 14.4007 18.2374 14.592 17.811L9.55 14.5C8.93922 15.0306 8.15706 15.3222 7.348 15.321C6.90922 15.3221 6.47453 15.2366 6.06877 15.0696C5.66301 14.9026 5.29413 14.6573 4.98321 14.3477C4.67229 14.0381 4.42543 13.6702 4.25673 13.2652C4.08802 12.8601 4.00079 12.4258 4 11.987C4.00092 11.5483 4.08825 11.1141 4.25701 10.7092C4.42578 10.3042 4.67266 9.93648 4.98356 9.62697C5.29447 9.31746 5.6633 9.07223 6.069 8.90529C6.47469 8.73834 6.9093 8.65296 7.348 8.65401C8.412 8.65401 9.358 9.14701 9.971 9.91501L14.464 6.85601C14.3568 6.52561 14.3025 6.18036 14.303 5.83301Z" fill="#2F4F4F"/>
</svg>
