<svg width="16" height="18" viewBox="0 0 16 18" fill="none" xmlns="http://www.w3.org/2000/svg">
<path d="M8.08341 11.2827V17.4165H0.166748C0.166503 16.4498 0.387561 15.4958 0.812985 14.6278C1.23841 13.7597 1.85691 13.0005 2.62109 12.4084C3.38527 11.8164 4.27485 11.4071 5.22166 11.2119C6.16848 11.0168 7.1474 11.041 8.08341 11.2827ZM6.50008 10.2915C3.87571 10.2915 1.75008 8.16588 1.75008 5.5415C1.75008 2.91713 3.87571 0.791504 6.50008 0.791504C9.12446 0.791504 11.2501 2.91713 11.2501 5.5415C11.2501 8.16588 9.12446 10.2915 6.50008 10.2915ZM11.2501 13.4582V10.6873L15.2084 14.2498L11.2501 17.8123V15.0415H8.87508V13.4582H11.2501Z" fill="#F7F2EC"/>
</svg>
