<svg width="15" height="15" viewBox="0 0 15 15" fill="none" xmlns="http://www.w3.org/2000/svg">
<g clip-path="url(#clip0_10444_8937)">
<path d="M1.08333 1.0835C0.928624 1.0835 0.780251 1.14495 0.670854 1.25435C0.561458 1.36375 0.5 1.51212 0.5 1.66683C0.5 1.82154 0.561458 1.96991 0.670854 2.07931C0.780251 2.1887 0.928624 2.25016 1.08333 2.25016H2.12167C2.20646 2.25031 2.28906 2.27708 2.35782 2.32669C2.42659 2.3763 2.47804 2.44625 2.50492 2.52666L4.42817 8.29758C4.51392 8.55425 4.52442 8.82958 4.45908 9.09208L4.301 9.72616C4.06825 10.656 4.79217 11.5835 5.75 11.5835H12.75C12.9047 11.5835 13.0531 11.522 13.1625 11.4126C13.2719 11.3032 13.3333 11.1549 13.3333 11.0002C13.3333 10.8455 13.2719 10.6971 13.1625 10.5877C13.0531 10.4783 12.9047 10.4168 12.75 10.4168H5.75C5.5225 10.4168 5.37667 10.2302 5.43208 10.0102L5.55167 9.53308C5.57181 9.45237 5.61834 9.3807 5.68386 9.32944C5.74938 9.27819 5.83015 9.25029 5.91333 9.25016H12.1667C12.2892 9.25032 12.4088 9.21185 12.5082 9.14023C12.6077 9.0686 12.6821 8.96746 12.7208 8.85116L14.2754 4.1845C14.3046 4.0968 14.3126 4.00342 14.2986 3.91205C14.2847 3.82068 14.2492 3.73394 14.1951 3.65897C14.1411 3.584 14.07 3.52295 13.9877 3.48085C13.9054 3.43875 13.8143 3.41681 13.7218 3.41683H4.32375C4.23886 3.4168 4.15613 3.39009 4.08725 3.34048C4.01837 3.29086 3.96683 3.22084 3.93992 3.14033L3.38692 1.4825C3.34821 1.36629 3.27392 1.26522 3.17455 1.1936C3.07519 1.12199 2.95581 1.08347 2.83333 1.0835H1.08333ZM5.16667 12.1668C4.85725 12.1668 4.5605 12.2897 4.34171 12.5085C4.12292 12.7273 4 13.0241 4 13.3335C4 13.6429 4.12292 13.9397 4.34171 14.1585C4.5605 14.3772 4.85725 14.5002 5.16667 14.5002C5.47609 14.5002 5.77283 14.3772 5.99162 14.1585C6.21042 13.9397 6.33333 13.6429 6.33333 13.3335C6.33333 13.0241 6.21042 12.7273 5.99162 12.5085C5.77283 12.2897 5.47609 12.1668 5.16667 12.1668ZM12.1667 12.1668C11.8572 12.1668 11.5605 12.2897 11.3417 12.5085C11.1229 12.7273 11 13.0241 11 13.3335C11 13.6429 11.1229 13.9397 11.3417 14.1585C11.5605 14.3772 11.8572 14.5002 12.1667 14.5002C12.4761 14.5002 12.7728 14.3772 12.9916 14.1585C13.2104 13.9397 13.3333 13.6429 13.3333 13.3335C13.3333 13.0241 13.2104 12.7273 12.9916 12.5085C12.7728 12.2897 12.4761 12.1668 12.1667 12.1668Z" fill="white"/>
</g>
<defs>
<clipPath id="clip0_10444_8937">
<rect width="14" height="14" fill="white" transform="translate(0.5 0.5)"/>
</clipPath>
</defs>
</svg>
