<svg xmlns="http://www.w3.org/2000/svg" width="12.995" height="15.882" viewBox="0 0 12.995 15.882">
  <g id="icon_showkeys" transform="translate(-292.502 -731.501)">
    <path id="Subtraction_65" data-name="Subtraction 65" d="M14966.828,4283.882h-8.662a2.168,2.168,0,0,1-2.166-2.166v-11.551a2.168,2.168,0,0,1,2.166-2.166h8.662a2.168,2.168,0,0,1,2.167,2.166v11.551A2.169,2.169,0,0,1,14966.828,4283.882Zm-.722-13.348v1.623h1.444v-1.623Zm-2.165,0v1.623h1.443v-1.623Zm-2.166,0v1.623h1.443v-1.623Z" transform="translate(-14663.498 -3536.499)" fill="#fdf7f0"/>
    <g id="Group_46776" data-name="Group 46776" transform="translate(9092.459 15129.5)">
      <path id="Path_119795" data-name="Path 119795" d="M113.066,111a2.065,2.065,0,1,0,2.065,2.065A2.067,2.067,0,0,0,113.066,111Z" transform="translate(-8906.523 -14500.696)" fill="#91785c"/>
      <path id="Path_119797" data-name="Path 119797" d="M7.8,71.3a6.74,6.74,0,0,0,1.266-1.855.177.177,0,0,0,0-.15A6.74,6.74,0,0,0,7.8,67.44,4.5,4.5,0,0,0,4.544,66h0a4.5,4.5,0,0,0-3.256,1.44A6.74,6.74,0,0,0,.018,69.3a.177.177,0,0,0,0,.15A6.74,6.74,0,0,0,1.284,71.3a4.5,4.5,0,0,0,3.256,1.44h0A4.5,4.5,0,0,0,7.8,71.3ZM4.542,72.386A4.872,4.872,0,0,1,.375,69.37a4.872,4.872,0,0,1,4.167-3.015A4.872,4.872,0,0,1,8.709,69.37,4.872,4.872,0,0,1,4.542,72.386Z" transform="translate(-8798 -14457)" fill="#91785c" stroke="#91785c" stroke-width="1"/>
    </g>
  </g>
</svg>
