<svg xmlns="http://www.w3.org/2000/svg" width="16.289" height="14.245" viewBox="0 0 16.289 14.245">
  <g id="show_wallet" data-name="show wallet" transform="translate(-180 -732)">
    <path id="daily_wallet" data-name="daily wallet" d="M14.653,14.246H1.628A1.63,1.63,0,0,1,0,12.618V1.734A1.628,1.628,0,0,1,1.6.106L11.12,0h.031a2.438,2.438,0,0,1,2.436,2.434l.024.04v.106h1.05a1.63,1.63,0,0,1,1.628,1.628v6.585l-.008-.7v2.524A1.63,1.63,0,0,1,14.653,14.246ZM2.109,1.629a.481.481,0,0,0-.481.481v.48H11.8a.962.962,0,0,0-.96-.96Z" transform="translate(180 731.999)" fill="#F9F4F0"/>
    <g id="Group_46776" data-name="Group 46776" transform="translate(8981.602 15128)">
      <path id="Path_119795" data-name="Path 119795" d="M113.066,111a2.065,2.065,0,1,0,2.065,2.065A2.067,2.067,0,0,0,113.066,111Z" transform="translate(-8906.523 -14500.696)" fill="#91785d"/>
      <path id="Path_119797" data-name="Path 119797" d="M7.8,71.3a6.74,6.74,0,0,0,1.266-1.855.177.177,0,0,0,0-.15A6.74,6.74,0,0,0,7.8,67.44,4.5,4.5,0,0,0,4.544,66h0a4.5,4.5,0,0,0-3.256,1.44A6.74,6.74,0,0,0,.018,69.3a.177.177,0,0,0,0,.15A6.74,6.74,0,0,0,1.284,71.3a4.5,4.5,0,0,0,3.256,1.44h0A4.5,4.5,0,0,0,7.8,71.3ZM4.542,72.386A4.872,4.872,0,0,1,.375,69.37a4.872,4.872,0,0,1,4.167-3.015A4.872,4.872,0,0,1,8.709,69.37,4.872,4.872,0,0,1,4.542,72.386Z" transform="translate(-8798 -14457)" fill="#91785d" stroke="#91785d" stroke-width="1"/>
    </g>
  </g>
</svg>
