<svg xmlns="http://www.w3.org/2000/svg" width="12.627" height="15.433" viewBox="0 0 12.627 15.433">
  <g id="Group_46708" data-name="Group 46708" transform="translate(-74 -730.688)">
    <g id="Group_46707" data-name="Group 46707">
      <path id="external_harddisk" data-name="external harddisk" d="M3,3.1A2.1,2.1,0,0,1,5.1,1h8.418a2.106,2.106,0,0,1,2.1,2.1V14.329a2.111,2.111,0,0,1-2.1,2.1H5.1a2.106,2.106,0,0,1-2.1-2.1Z" transform="translate(71 729.688)" fill="#fdf7f0" fill-rule="evenodd"/>
    </g>
    <line id="Line_1223" data-name="Line 1223" y2="2" transform="translate(80.5 731.869)" fill="none" stroke="#91785c" stroke-width="1"/>
    <line id="Line_1224" data-name="Line 1224" y2="2" transform="translate(82.5 731.869)" fill="none" stroke="#91785c" stroke-width="1"/>
    <line id="Line_1225" data-name="Line 1225" y2="2" transform="translate(84.5 731.869)" fill="none" stroke="#91785c" stroke-width="1"/>
    <path id="eye_folder" data-name="eye folder" d="M6.871,12.039a5.321,5.321,0,0,0,1,1.138,3.543,3.543,0,0,0,2.342.918,3.579,3.579,0,0,0,2.342-.925,5.78,5.78,0,0,0,1-1.145,5.581,5.581,0,0,0-1-1.145,3.456,3.456,0,0,0-4.7-.007A5.611,5.611,0,0,0,6.849,12.01Zm.044-2.261a4.983,4.983,0,0,1,3.3-1.278,5.048,5.048,0,0,1,3.3,1.27A7.006,7.006,0,0,1,14.947,11.5a1.048,1.048,0,0,1,0,1.057A7.183,7.183,0,0,1,13.5,14.278a4.922,4.922,0,0,1-6.608-.007,7.043,7.043,0,0,1-1.446-1.733,1.027,1.027,0,0,1,0-1.065A6.8,6.8,0,0,1,6.885,9.741Zm1.512,2.254a5845466712333.424,5845466712333.424,0,1,1-.015-.015Z" transform="translate(69.703 729.011)" fill="#91785c" fill-rule="evenodd"/>
  </g>
</svg>
