<svg xmlns="http://www.w3.org/2000/svg" width="10.088" height="7.74" viewBox="0 0 10.088 7.74">
  <g id="show" transform="translate(8798.502 14391.5)">
    <path id="Path_119795" data-name="Path 119795" d="M113.066,111a2.065,2.065,0,1,0,2.065,2.065A2.067,2.067,0,0,0,113.066,111Z" transform="translate(-8906.523 -14500.696)" fill="#F9F4F0"/>
    <path id="Path_119797" data-name="Path 119797" d="M7.8,71.3a6.74,6.74,0,0,0,1.266-1.855.177.177,0,0,0,0-.15A6.74,6.74,0,0,0,7.8,67.44,4.5,4.5,0,0,0,4.544,66h0a4.5,4.5,0,0,0-3.256,1.44A6.74,6.74,0,0,0,.018,69.3a.177.177,0,0,0,0,.15A6.74,6.74,0,0,0,1.284,71.3a4.5,4.5,0,0,0,3.256,1.44h0A4.5,4.5,0,0,0,7.8,71.3ZM4.542,72.386A4.872,4.872,0,0,1,.375,69.37a4.872,4.872,0,0,1,4.167-3.015A4.872,4.872,0,0,1,8.709,69.37,4.872,4.872,0,0,1,4.542,72.386Z" transform="translate(-8798 -14457)" fill="#F9F4F0" stroke="#F9F4F0" stroke-width="1"/>
  </g>
</svg>
