<svg width="22" height="22" viewBox="0 0 22 22" fill="none" xmlns="http://www.w3.org/2000/svg">
<g clip-path="url(#clip0_9109_13323)">
<path d="M17.875 2.0625V19.9375C17.875 21.0766 16.9516 22 15.8125 22H6.1875C5.0484 22 4.125 21.0766 4.125 19.9375V2.0625C4.125 0.923398 5.0484 0 6.1875 0H15.8125C16.9516 0 17.875 0.923398 17.875 2.0625ZM22 4.55469V5.07031C22 5.13869 21.9728 5.20426 21.9245 5.25261C21.8761 5.30096 21.8106 5.32812 21.7422 5.32812H20.9688V5.58594C20.9688 5.65431 20.9416 5.71989 20.8932 5.76824C20.8449 5.81659 20.7793 5.84375 20.7109 5.84375H18.9062V3.78125H20.7109C20.7793 3.78125 20.8449 3.80841 20.8932 3.85676C20.9416 3.90511 20.9688 3.97069 20.9688 4.03906V4.29688H21.7422C21.8106 4.29688 21.8761 4.32404 21.9245 4.37239C21.9728 4.42074 22 4.48631 22 4.55469ZM22 8.67969V9.19531C22 9.26369 21.9728 9.32926 21.9245 9.37761C21.8761 9.42596 21.8106 9.45312 21.7422 9.45312H20.9688V9.71094C20.9688 9.77931 20.9416 9.84489 20.8932 9.89324C20.8449 9.94159 20.7793 9.96875 20.7109 9.96875H18.9062V7.90625H20.7109C20.7793 7.90625 20.8449 7.93341 20.8932 7.98176C20.9416 8.03011 20.9688 8.09569 20.9688 8.16406V8.42188H21.7422C21.8106 8.42188 21.8761 8.44904 21.9245 8.49739C21.9728 8.54574 22 8.61131 22 8.67969ZM22 12.8047V13.3203C22 13.3887 21.9728 13.4543 21.9245 13.5026C21.8761 13.551 21.8106 13.5781 21.7422 13.5781H20.9688V13.8359C20.9688 13.9043 20.9416 13.9699 20.8932 14.0182C20.8449 14.0666 20.7793 14.0938 20.7109 14.0938H18.9062V12.0312H20.7109C20.7793 12.0312 20.8449 12.0584 20.8932 12.1068C20.9416 12.1551 20.9688 12.2207 20.9688 12.2891V12.5469H21.7422C21.8106 12.5469 21.8761 12.574 21.9245 12.6224C21.9728 12.6707 22 12.7363 22 12.8047ZM22 16.9297V17.4453C22 17.5137 21.9728 17.5793 21.9245 17.6276C21.8761 17.676 21.8106 17.7031 21.7422 17.7031H20.9688V17.9609C20.9688 18.0293 20.9416 18.0949 20.8932 18.1432C20.8449 18.1916 20.7793 18.2188 20.7109 18.2188H18.9062V16.1562H20.7109C20.7793 16.1562 20.8449 16.1834 20.8932 16.2318C20.9416 16.2801 20.9688 16.3457 20.9688 16.4141V16.6719H21.7422C21.8106 16.6719 21.8761 16.699 21.9245 16.7474C21.9728 16.7957 22 16.8613 22 16.9297ZM1.28906 16.1562H3.09375V18.2188H1.28906C1.22069 18.2188 1.15511 18.1916 1.10676 18.1432C1.05841 18.0949 1.03125 18.0293 1.03125 17.9609V17.7031H0.257812C0.189436 17.7031 0.123861 17.676 0.0755115 17.6276C0.0271623 17.5793 0 17.5137 0 17.4453L0 16.9297C0 16.8613 0.0271623 16.7957 0.0755115 16.7474C0.123861 16.699 0.189436 16.6719 0.257812 16.6719H1.03125V16.4141C1.03125 16.3457 1.05841 16.2801 1.10676 16.2318C1.15511 16.1834 1.22069 16.1562 1.28906 16.1562ZM1.28906 12.0312H3.09375V14.0938H1.28906C1.22069 14.0938 1.15511 14.0666 1.10676 14.0182C1.05841 13.9699 1.03125 13.9043 1.03125 13.8359V13.5781H0.257812C0.189436 13.5781 0.123861 13.551 0.0755115 13.5026C0.0271623 13.4543 0 13.3887 0 13.3203L0 12.8047C0 12.7363 0.0271623 12.6707 0.0755115 12.6224C0.123861 12.574 0.189436 12.5469 0.257812 12.5469H1.03125V12.2891C1.03125 12.2207 1.05841 12.1551 1.10676 12.1068C1.15511 12.0584 1.22069 12.0312 1.28906 12.0312ZM1.28906 7.90625H3.09375V9.96875H1.28906C1.22069 9.96875 1.15511 9.94159 1.10676 9.89324C1.05841 9.84489 1.03125 9.77931 1.03125 9.71094V9.45312H0.257812C0.189436 9.45312 0.123861 9.42596 0.0755115 9.37761C0.0271623 9.32926 0 9.26369 0 9.19531L0 8.67969C0 8.61131 0.0271623 8.54574 0.0755115 8.49739C0.123861 8.44904 0.189436 8.42188 0.257812 8.42188H1.03125V8.16406C1.03125 8.09569 1.05841 8.03011 1.10676 7.98176C1.15511 7.93341 1.22069 7.90625 1.28906 7.90625ZM1.28906 3.78125H3.09375V5.84375H1.28906C1.22069 5.84375 1.15511 5.81659 1.10676 5.76824C1.05841 5.71989 1.03125 5.65431 1.03125 5.58594V5.32812H0.257812C0.189436 5.32812 0.123861 5.30096 0.0755115 5.25261C0.0271623 5.20426 0 5.13869 0 5.07031L0 4.55469C0 4.48631 0.0271623 4.42074 0.0755115 4.37239C0.123861 4.32404 0.189436 4.29688 0.257812 4.29688H1.03125V4.03906C1.03125 3.97069 1.05841 3.90511 1.10676 3.85676C1.15511 3.80841 1.22069 3.78125 1.28906 3.78125Z" fill="#F7F2EC"/>
<path d="M13.7961 9.36722C13.685 8.39111 12.8352 8.07811 11.7679 8.00338L11.7442 6.64716L10.9186 6.66168L10.9417 7.98217C10.7246 7.98596 10.5028 7.99414 10.2825 8.00239L10.2595 6.67317L9.43431 6.68758L9.45762 8.04342C9.27895 8.05023 9.10346 8.05658 8.9323 8.05969L8.93222 8.05558L7.7935 8.07508L7.80908 8.95678C7.80908 8.95678 8.41855 8.93449 8.40862 8.94589C8.74303 8.94015 8.85525 9.13238 8.88984 9.29934L8.91684 10.8444C8.93998 10.8443 8.97004 10.8445 9.00421 10.8486C8.97669 10.8491 8.94728 10.8494 8.917 10.8503L8.95452 13.0147C8.94171 13.1202 8.88274 13.289 8.6491 13.2935C8.65982 13.3027 8.04894 13.3039 8.04894 13.3039L7.90207 14.2926L8.9765 14.2738C9.17644 14.2705 9.37322 14.2705 9.56637 14.2683L9.59063 15.64L10.4154 15.6257L10.3917 14.2686C10.6182 14.2693 10.8374 14.2673 11.0513 14.2633L11.0745 15.6142L11.9001 15.5997L11.8765 14.2305C13.2631 14.1266 14.2285 13.7599 14.3264 12.4545C14.4055 11.4034 13.9037 10.9438 13.1125 10.7683C13.5869 10.5163 13.8785 10.0814 13.7961 9.36722ZM12.6921 12.3204C12.7105 13.3454 10.9531 13.2595 10.3936 13.2698L10.3621 11.4525C10.9218 11.4428 12.6736 11.2512 12.6921 12.3204ZM12.2635 9.76302C12.2795 10.6956 10.8136 10.6124 10.3476 10.6206L10.3189 8.9723C10.785 8.96411 12.2464 8.79031 12.2635 9.76302Z" fill="#1F1F1F"/>
</g>
<defs>
<clipPath id="clip0_9109_13323">
<rect width="22" height="22" fill="white"/>
</clipPath>
</defs>
</svg>
