<svg xmlns="http://www.w3.org/2000/svg" width="42.43" height="42.43" viewBox="0 0 42.43 42.43">
  <g id="signers" transform="translate(-48.455 -595)">
    <g id="Group_54509" data-name="Group 54509" transform="translate(0 333.514)">
      <g id="Group_54506" data-name="Group 54506" transform="translate(7.486 7.486)">
        <g id="Ellipse_2007" data-name="Ellipse 2007" transform="translate(40.969 254)" fill="#f7f2ec" stroke="#002c27" stroke-width="1">
          <circle cx="21.215" cy="21.215" r="21.215" stroke="none"/>
          <circle cx="21.215" cy="21.215" r="20.715" fill="none"/>
        </g>
        <g id="Group_39720" data-name="Group 39720" transform="translate(42.662 255.806)">
          <g id="Group_39719" data-name="Group 39719" transform="translate(0 0)">
            <path id="Path_27264" data-name="Path 27264" d="M434.087,1170.751a19.6,19.6,0,0,1-5.832,13.981,19.347,19.347,0,0,1-13.75,5.639,19.62,19.62,0,1,1,19.582-19.62Z" transform="translate(-394.923 -1151.13)" fill="#2d6759"/>
          </g>
        </g>
        <g id="Ellipse_2008" data-name="Ellipse 2008" transform="translate(44.2 257.286)" fill="#f7f2ec" stroke="#002c27" stroke-width="1">
          <circle cx="18.055" cy="18.055" r="18.055" stroke="none"/>
          <circle cx="18.055" cy="18.055" r="17.555" fill="none"/>
        </g>
        <g id="Rectangle_7600" data-name="Rectangle 7600" transform="translate(46.853 290.724) rotate(-90)" fill="none" stroke="#002c27" stroke-width="1" stroke-dasharray="1 1.5">
          <rect width="30.88" height="30.88" rx="15.44" stroke="none"/>
          <rect x="0.5" y="0.5" width="29.88" height="29.88" rx="14.94" fill="none"/>
        </g>
      </g>
    </g>
    <path id="Signer" d="M12.833,17H4.167A2.177,2.177,0,0,1,2,14.818V3.182A2.177,2.177,0,0,1,4.167,1h8.666A2.177,2.177,0,0,1,15,3.182V14.818A2.177,2.177,0,0,1,12.833,17ZM5.972,13.371v1.454h7.222V13.371Zm6.139-9.818V6.462h1.444V3.553Zm-2.167,0V6.462h1.445V3.553Zm-2.166,0V6.462H9.222V3.553Z" transform="translate(61 607)" fill="#2d6759"/>
  </g>
</svg>
