<svg width="146" height="133" viewBox="0 0 146 133" fill="none" xmlns="http://www.w3.org/2000/svg">
<path opacity="0.29" d="M104.214 6.02686C106.331 6.02687 108.412 6.58473 110.245 7.64426C112.078 8.70379 113.6 10.2276 114.658 12.0623L144.065 63.0951C145.12 64.9255 145.675 67.0009 145.675 69.1134C145.675 71.2259 145.12 73.3013 144.065 75.1316L114.658 126.164C113.6 127.999 112.078 129.523 110.245 130.582C108.412 131.642 106.331 132.2 104.214 132.2H45.4383C43.3207 132.2 41.2406 131.642 39.4072 130.582C37.5738 129.523 36.0518 127.999 34.9946 126.164L5.58697 75.1316C4.53224 73.3013 3.97705 71.2259 3.97705 69.1134C3.97705 67.0009 4.53224 64.9255 5.58697 63.0951L34.9946 12.0623C36.0518 10.2276 37.5738 8.70379 39.4072 7.64426C41.2406 6.58473 43.3207 6.02687 45.4383 6.02686L104.214 6.02686Z" fill="#A1C6BE"/>
<path d="M103.403 0C104.916 3.00298e-06 106.403 0.398718 107.713 1.15598C109.022 1.91325 110.11 3.00232 110.865 4.31351L142.476 59.2207C143.229 60.5274 143.625 62.0088 143.625 63.5166C143.625 65.0244 143.229 66.5057 142.476 67.8124L110.865 122.72C110.11 124.031 109.022 125.12 107.713 125.877C106.403 126.634 104.916 127.033 103.403 127.033H40.2212C38.7082 127.033 37.2219 126.634 35.912 125.877C34.6022 125.12 33.515 124.031 32.76 122.72L1.14828 67.8124C0.395967 66.5057 0 65.0244 0 63.5166C0 62.0088 0.395967 60.5274 1.14828 59.2207L32.76 4.31351C33.515 3.00232 34.6022 1.91325 35.912 1.15598C37.2219 0.398718 38.7082 3.00298e-06 40.2212 0L103.403 0Z" fill="#F8F2EC"/>
<g clip-path="url(#clip0_2808_6691)">
<path d="M111.077 102.75C110.722 103.469 110.321 104.137 109.517 104.484C108.444 104.934 107.398 104.707 106.453 103.764C103.317 100.63 100.182 97.495 97.0468 94.3588C92.9029 90.2134 88.7584 86.0685 84.6133 81.9243C84.4781 81.789 84.3324 81.6659 84.2925 81.6295C83.4256 82.5346 82.6402 83.4918 81.7108 84.2669C80.4971 85.2743 79.032 85.72 77.449 85.7547C77.126 85.7726 76.8046 85.8114 76.4867 85.8708C75.8209 85.9714 75.4602 86.3807 75.3683 87.0327C75.2435 87.8997 75.2158 88.8048 74.999 89.6544C74.5947 91.2595 73.6734 92.6869 72.3774 93.7163C71.0814 94.7458 69.4826 95.3201 67.8278 95.3506C66.8568 95.3732 66.0939 95.7373 65.6969 96.6511C63.8243 100.917 60.3583 103.131 55.9976 104.168C54.1857 104.6 52.3565 104.893 50.4787 104.581C49.0318 104.334 47.6997 103.637 46.6722 102.588C45.6448 101.54 44.9746 100.194 44.757 98.7423C44.3305 95.954 44.946 93.3305 45.995 90.7815C46.9936 88.3338 48.4742 86.1118 50.3487 84.2478C56.2623 78.3522 62.1575 72.4416 68.0341 66.516C68.2075 66.3426 68.4329 66.19 68.7277 65.9559C68.0341 65.29 67.4377 64.7421 66.8603 64.1543C59.7931 57.0923 52.727 50.0274 45.6621 42.9596C43.9924 41.2898 44.3495 39.3442 46.5065 38.3454C46.5377 38.3315 46.5515 38.2813 46.5741 38.2466H47.871C48.5281 38.7529 49.2581 39.1951 49.832 39.776C69.7784 59.7019 89.7137 79.6389 109.638 99.5868C110.19 100.138 110.6 100.832 111.077 101.458V102.75ZM72.3393 69.6302C72.2301 69.7187 72.1399 69.7776 72.0653 69.8522C65.8581 76.0946 59.6231 82.2971 53.4575 88.5794C51.0925 90.9862 49.9898 94.0016 49.8459 97.3638C49.7887 98.751 50.6989 99.5972 52.086 99.4879C52.7518 99.4342 53.4211 99.3718 54.08 99.2573C57.2252 98.7077 59.7064 97.3083 61.1299 94.2288C62.3436 91.5948 64.5976 90.2943 67.4984 90.1729C69.0588 90.107 70.0419 89.1325 70.0731 87.5997C70.1598 83.4103 72.9097 80.6793 77.1109 80.5423C77.657 80.5249 78.3489 80.3533 78.7026 79.9891C79.3025 79.3753 79.7013 78.5569 80.1486 77.8043C80.2093 77.702 80.1087 77.4246 79.9978 77.3136C77.4577 74.7438 74.9037 72.1913 72.3393 69.6233V69.6302Z" fill="#D9C9B9"/>
<path d="M111.077 63.5508C110.871 64.5912 110.697 65.6316 110.453 66.6477C110.034 68.4625 109.282 70.1837 108.234 71.7231C105.98 74.9761 103.27 77.7626 99.7706 79.6995C99.2459 79.9951 98.6348 80.0989 98.042 79.9929C97.4492 79.8869 96.9118 79.5778 96.5221 79.1187C96.1324 78.6596 95.9146 78.0792 95.9062 77.477C95.8979 76.8748 96.0994 76.2885 96.4762 75.8188C96.7762 75.472 97.2027 75.2171 97.5963 74.9518C100.644 72.9508 103.264 70.5284 104.781 67.1488C105.831 64.793 106.147 62.1758 105.689 59.6378C105.231 57.0997 104.02 54.7582 102.214 52.9179C100.311 50.9677 98.3846 49.0406 96.4346 47.1367C94.0382 44.7867 90.8222 43.46 87.466 43.4371C84.1097 43.4141 80.8759 44.6966 78.4475 47.0136C76.816 48.5569 75.2052 50.1192 74.0661 52.1064C73.3725 53.3306 71.7999 53.6496 70.5983 52.9543C70.0153 52.6283 69.5831 52.087 69.3942 51.4463C69.2052 50.8056 69.2746 50.1164 69.5875 49.5262C69.9801 48.7562 70.4501 48.0282 70.9902 47.3535C73.591 44.2323 76.3652 41.3035 80.2265 39.6944C81.8746 38.9875 83.6211 38.5366 85.4055 38.3575C85.5748 38.329 85.7417 38.2878 85.9049 38.2344H88.8889C89.028 38.2868 89.1712 38.3274 89.3171 38.3557C93.0536 38.7494 96.4069 40.1106 99.1828 42.6283C101.581 44.8028 103.84 47.1367 106.101 49.4533C108.21 51.6101 109.706 54.2897 110.436 57.2165C110.696 58.2326 110.866 59.2712 111.077 60.3012V63.5508Z" fill="#D9C9B9"/>
<path d="M88.2474 50.7036C88.594 50.698 88.938 50.7641 89.2579 50.8978C89.5777 51.0315 89.8665 51.2298 90.1061 51.4804C92.693 54.0623 95.2852 56.6373 97.853 59.2366C98.1048 59.4763 98.3059 59.764 98.4446 60.0828C98.5832 60.4015 98.6566 60.7448 98.6604 61.0924C98.6641 61.44 98.5981 61.7849 98.4663 62.1065C98.3345 62.4282 98.1396 62.7202 97.8931 62.9652C97.6466 63.2103 97.3534 63.4034 97.031 63.5332C96.7085 63.6631 96.3633 63.7269 96.0158 63.721C95.6682 63.7152 95.3254 63.6397 95.0075 63.4991C94.6897 63.3584 94.4032 63.1555 94.1651 62.9022C91.5677 60.3302 88.9843 57.7453 86.4147 55.1478C85.6102 54.3363 85.4177 53.3514 85.8512 52.2815C86.0463 51.8085 86.3791 51.4051 86.8064 51.1237C87.2337 50.8423 87.7358 50.6959 88.2474 50.7036Z" fill="#E8DCCF"/>
</g>
<path opacity="0.6" d="M84.0759 18.5089C82.8171 18.5074 81.6102 18.0067 80.7201 17.1166C79.83 16.2265 79.3293 15.0196 79.3278 13.7608C79.3223 13.4476 79.1939 13.1492 78.9702 12.9299C78.7465 12.7107 78.4456 12.5882 78.1324 12.589C77.8216 12.589 77.5236 12.7124 77.3038 12.9322C77.0841 13.1519 76.9606 13.45 76.9606 13.7608C76.9592 15.0259 76.4559 16.2388 75.5614 17.1333C74.6668 18.0279 73.4539 18.5311 72.1888 18.5325C71.8779 18.5325 71.5798 18.656 71.3599 18.8759C71.1401 19.0957 71.0166 19.3939 71.0166 19.7048C71.0166 20.0156 71.1401 20.3138 71.3599 20.5336C71.5798 20.7535 71.8779 20.877 72.1888 20.877C73.4539 20.8784 74.6668 21.3816 75.5614 22.2762C76.4559 23.1708 76.9592 24.3836 76.9606 25.6488C76.9606 25.9596 77.0841 26.2578 77.3039 26.4776C77.5238 26.6975 77.8219 26.821 78.1328 26.821C78.4437 26.821 78.7419 26.6975 78.9617 26.4776C79.1815 26.2578 79.305 25.9596 79.305 25.6488C79.3065 24.3838 79.8096 23.1711 80.7039 22.2765C81.5983 21.382 82.8109 20.8787 84.0759 20.877C84.3892 20.8715 84.6878 20.7429 84.9071 20.519C85.1263 20.2952 85.2487 19.994 85.2477 19.6806C85.2474 19.3699 85.1239 19.072 84.9042 18.8523C84.6845 18.6326 84.3866 18.5091 84.0759 18.5089Z" fill="#B8B6D0"/>
<path opacity="0.6" d="M24.3501 84.0589C23.7487 83.4551 23.411 82.6371 23.411 81.7843C23.411 80.9315 23.7487 80.1135 24.3501 79.5098C24.4974 79.3572 24.5788 79.1526 24.5767 78.9404C24.5747 78.7281 24.4893 78.5252 24.339 78.3755C24.2654 78.3017 24.178 78.2431 24.0818 78.2032C23.9856 78.1633 23.8824 78.1427 23.7783 78.1427C23.6741 78.1427 23.571 78.1633 23.4748 78.2032C23.3786 78.2431 23.2911 78.3017 23.2175 78.3755C22.6117 78.9809 21.7909 79.3208 20.9351 79.3208C20.0793 79.3208 19.2584 78.9809 18.6526 78.3755C18.5039 78.2265 18.3022 78.1429 18.0919 78.1429C17.8815 78.1429 17.6798 78.2265 17.5311 78.3755C17.3824 78.5244 17.2988 78.7265 17.2988 78.9371C17.2988 79.1477 17.3824 79.3498 17.5311 79.4987C18.1356 80.1055 18.475 80.9276 18.475 81.7847C18.475 82.6418 18.1356 83.4638 17.5311 84.0706C17.3824 84.2195 17.2988 84.4215 17.2988 84.6322C17.2988 84.8428 17.3824 85.0449 17.5311 85.1938C17.6798 85.3428 17.8815 85.4264 18.0919 85.4264C18.3022 85.4264 18.5039 85.3428 18.6526 85.1938C19.2584 84.5884 20.0793 84.2485 20.9351 84.2485C21.7909 84.2485 22.6117 84.5884 23.2175 85.1938C23.37 85.3413 23.5743 85.4227 23.7862 85.4205C23.9982 85.4183 24.2007 85.3326 24.3501 85.1821C24.4238 85.1084 24.4823 85.0208 24.5222 84.9245C24.562 84.8281 24.5826 84.7248 24.5826 84.6205C24.5826 84.5162 24.562 84.4129 24.5222 84.3165C24.4823 84.2201 24.4238 84.1326 24.3501 84.0589Z" fill="#EDBE9B"/>
<path opacity="0.6" d="M134.46 45.3063C133.708 44.4762 133.286 43.3514 133.286 42.1788C133.286 41.0061 133.708 39.8814 134.46 39.0512C134.644 38.8413 134.745 38.5599 134.743 38.2681C134.74 37.9762 134.633 37.6973 134.445 37.4915C134.259 37.2868 134.007 37.1718 133.744 37.1718C133.481 37.1718 133.229 37.2868 133.043 37.4915C132.286 38.3239 131.26 38.7914 130.19 38.7914C129.12 38.7914 128.094 38.3239 127.337 37.4915C127.151 37.2867 126.899 37.1716 126.636 37.1716C126.373 37.1716 126.121 37.2867 125.935 37.4915C125.749 37.6963 125.645 37.9741 125.645 38.2637C125.645 38.5534 125.749 38.8312 125.935 39.036C126.69 39.8703 127.115 41.0007 127.115 42.1792C127.115 43.3577 126.69 44.4882 125.935 45.3224C125.843 45.4239 125.77 45.5442 125.72 45.6767C125.67 45.8092 125.645 45.9513 125.645 46.0947C125.645 46.2381 125.67 46.3801 125.72 46.5126C125.77 46.6451 125.843 46.7655 125.935 46.8669C126.027 46.9683 126.136 47.0488 126.257 47.1037C126.377 47.1585 126.506 47.1868 126.636 47.1868C126.766 47.1868 126.895 47.1585 127.015 47.1037C127.135 47.0488 127.245 46.9683 127.337 46.8669C128.094 46.0345 129.12 45.567 130.19 45.567C131.26 45.567 132.286 46.0345 133.043 46.8669C133.234 47.0697 133.489 47.1818 133.754 47.179C134.019 47.1761 134.272 47.0585 134.459 46.8516C134.645 46.6468 134.749 46.369 134.749 46.0794C134.749 45.7898 134.645 45.512 134.459 45.3072L134.46 45.3063Z" fill="#DAD1A9"/>
<defs>
<clipPath id="clip0_2808_6691">
<rect width="66.4642" height="66.4642" fill="white" transform="translate(44.613 38.2396)"/>
</clipPath>
</defs>
</svg>
