<svg width="24" height="20" viewBox="0 0 24 20" fill="none" xmlns="http://www.w3.org/2000/svg">
<g clip-path="url(#clip0_3186_3078)">
<path d="M15.5744 4.29106C15.48 4.44596 15.4227 4.54763 15.3583 4.64444C14.6132 5.77471 13.8622 6.90135 13.122 8.03284C12.7924 8.53747 13.0026 9.10137 13.5375 9.19577C13.8861 9.25627 14.1165 9.07477 14.3028 8.7916C15.301 7.27005 16.3027 5.7513 17.308 4.2354C18.1271 2.99541 18.9453 1.7542 19.7628 0.511793C19.8058 0.447655 19.8452 0.381117 19.893 0.319399C20.158 -0.0242806 20.552 -0.0981051 20.884 0.131822C21.0343 0.238543 21.1379 0.40029 21.1729 0.582936C21.2079 0.765582 21.1715 0.954827 21.0714 1.11081C21.0225 1.19794 20.964 1.27903 20.909 1.36253C19.4635 3.55933 18.0164 5.75533 16.5678 7.95053C16.4971 8.05005 16.4333 8.15437 16.3767 8.26275C16.298 8.41517 16.2774 8.5916 16.3187 8.75845C16.3601 8.92529 16.4606 9.0709 16.601 9.16749C16.7415 9.26409 16.9121 9.30492 17.0803 9.28224C17.2486 9.25956 17.4027 9.17494 17.5134 9.0445C17.5836 8.95877 17.6478 8.86819 17.7056 8.77343C18.6353 7.36563 19.5634 5.95744 20.4899 4.54884C20.6093 4.36368 20.7371 4.26806 20.9675 4.28622C21.4057 4.3201 21.8523 4.28622 22.2809 4.35278C22.7632 4.43385 23.201 4.68695 23.5154 5.0664C23.8298 5.44584 24 5.92666 23.9954 6.42213C23.9954 10.2446 23.9954 14.067 23.9954 17.8894C23.9954 18.1662 23.9416 18.4403 23.8371 18.696C23.7326 18.9517 23.5793 19.184 23.3862 19.3796C23.193 19.5753 22.9637 19.7305 22.7114 19.8363C22.4591 19.9421 22.1886 19.9964 21.9155 19.9963C15.3153 20.0011 8.71461 20.0011 2.11355 19.9963C0.919575 19.9963 0.00499329 19.0366 0.00260535 17.772C-0.00217053 15.2864 -0.00217053 12.8012 0.00260535 10.3164C0.00260535 9.0566 0.00260535 7.79806 0.00260535 6.5383C0.00260535 5.23256 0.920769 4.29348 2.20309 4.29227C6.55472 4.28582 10.9071 4.28582 15.2604 4.29227L15.5744 4.29106ZM7.79804 10.0053C8.70068 10.0053 9.60332 10.0114 10.506 10.0053C10.9919 10.0053 11.3023 9.70766 11.2988 9.29622C11.2952 8.88477 10.9847 8.61127 10.4964 8.59433H10.3305C8.62467 8.59433 6.91808 8.59433 5.21071 8.59433C5.07889 8.59126 4.94706 8.59976 4.81669 8.61974C4.66871 8.64301 4.5332 8.71739 4.43311 8.8303C4.33302 8.94321 4.27451 9.08772 4.26747 9.23934C4.23165 9.69557 4.53134 9.99929 5.05668 10.0053C5.96529 10.0114 6.88465 10.0053 7.79804 10.0053ZM7.75386 12.8528C8.6565 12.8528 9.56034 12.8528 10.463 12.8528C10.9668 12.8528 11.2988 12.5757 11.2988 12.157C11.2988 11.7383 10.9692 11.4406 10.4737 11.4394C8.67799 11.4394 6.88226 11.4394 5.08653 11.4394C4.57671 11.4394 4.26389 11.7141 4.2603 12.1461C4.25672 12.5781 4.56119 12.8516 5.07579 12.8528C5.96529 12.854 6.86077 12.8528 7.75625 12.8528H7.75386ZM7.78968 14.305C6.8751 14.305 5.96052 14.305 5.04355 14.305C4.55522 14.305 4.25792 14.5785 4.25911 15.0081C4.2603 15.4377 4.56716 15.716 5.04952 15.7172C6.86674 15.7221 8.68436 15.7221 10.5024 15.7172C10.9728 15.7172 11.2988 15.4123 11.2976 15.0032C11.2964 14.5942 10.9704 14.3062 10.4964 14.305C9.59616 14.3038 8.69232 14.305 7.78968 14.305Z" fill="#2D6759"/>
</g>
<defs>
<clipPath id="clip0_3186_3078">
<rect width="24" height="20" fill="white"/>
</clipPath>
</defs>
</svg>
