<svg width="11" height="19" viewBox="0 0 15 30" fill="none" xmlns="http://www.w3.org/2000/svg">
  <path fill-rule="evenodd" clip-rule="evenodd" d="M14.4838 10.325C13.845 12.0353 12.6956 13.3143 11.1221 14.1965C10.9659 14.2844 10.8987 14.3767 10.9004 14.5666C10.9074 15.282 10.8891 15.9973 10.8908 16.7127C10.8908 16.9843 10.807 17.2009 10.6098 17.3881C10.3401 17.6446 10.0862 17.9171 9.80603 18.2011C10.0897 18.4896 10.3611 18.7647 10.6316 19.0407C11.0243 19.4428 10.9903 19.8928 10.5461 20.2372C10.3131 20.4182 10.0853 20.6073 9.83571 20.8079C10.1028 21.1371 10.3489 21.4558 10.6107 21.7602C10.9929 22.2057 10.9929 22.5492 10.6063 23.001C10.3489 23.301 10.1045 23.6116 9.83658 23.94C10.0548 24.1184 10.2529 24.2942 10.4658 24.4495C10.7643 24.6669 10.9318 24.9341 10.9109 25.3246C10.8899 25.7 10.9048 26.0781 10.9065 26.4553C10.9083 26.6985 10.828 26.8973 10.6543 27.0731C9.77287 27.9606 8.89754 28.8562 8.01958 29.7481C7.6862 30.0863 7.30308 30.0836 6.96621 29.7419C6.10397 28.8668 5.24696 27.9855 4.37774 27.1166C4.16654 26.9053 4.08276 26.6719 4.08276 26.3772C4.08625 23.0294 4.08538 19.6824 4.08538 16.3346C4.08538 15.7568 4.07927 15.1799 4.08887 14.603C4.09148 14.4539 4.04698 14.3722 3.91781 14.2986C1.77006 13.0729 0.474074 11.2197 0.0953152 8.75138C-0.222354 6.68339 0.25764 4.78492 1.48119 3.09059C1.58417 2.94858 1.68104 2.80302 1.78053 2.65924C2.05893 2.37611 2.33732 2.09298 2.61572 1.80986C2.81645 1.66163 3.01455 1.50809 3.21964 1.36431C4.49293 0.470543 5.90586 0.00990487 7.45144 0.000141825C8.80066 -0.00784612 10.0722 0.321435 11.2355 1.02792C11.6283 1.26668 11.9966 1.54803 12.3762 1.80986C12.6537 2.09298 12.9321 2.37611 13.2105 2.65924C13.468 3.04533 13.7533 3.41543 13.9767 3.82016C15.1305 5.9059 15.3216 8.08394 14.4838 10.325ZM8 11C6.34315 11 5 9.65685 5 8C5 6.34315 6.34315 5 8 5C9.65685 5 11 6.34315 11 8C11 9.65685 9.65685 11 8 11Z" fill="#F7F2EC"/>
</svg>
