<svg xmlns="http://www.w3.org/2000/svg" xmlns:xlink="http://www.w3.org/1999/xlink" width="176.161" height="141.934" viewBox="0 0 176.161 141.934">
  <defs>
    <linearGradient id="linear-gradient" x1="0.5" x2="0.5" y2="1" gradientUnits="objectBoundingBox">
      <stop offset="0" stop-color="#00836a"/>
      <stop offset="1" stop-color="#073e39"/>
    </linearGradient>
    <linearGradient id="linear-gradient-6" y1="1" y2="0" xlink:href="#linear-gradient"/>
  </defs>
  <g id="illustration" transform="translate(-57 -461)">
    <g id="Group_39521" data-name="Group 39521" transform="translate(57 527.317)" opacity="0.272">
      <circle id="Ellipse_1999" data-name="Ellipse 1999" cx="32.414" cy="32.414" r="32.414" transform="translate(8.454 0)" fill="url(#linear-gradient)"/>
      <path id="Path_25533" data-name="Path 25533" d="M2.777,5.554A2.777,2.777,0,1,0,0,2.777,2.777,2.777,0,0,0,2.777,5.554Z" transform="translate(51.087 67.806) rotate(39)" fill="url(#linear-gradient)"/>
      <path id="Path_25534" data-name="Path 25534" d="M1.9,3.793A1.9,1.9,0,1,0,0,1.9,1.9,1.9,0,0,0,1.9,3.793Z" transform="translate(60.641 63.866) rotate(39)" fill="url(#linear-gradient)"/>
      <path id="Path_25535" data-name="Path 25535" d="M15.805,7.3A3.522,3.522,0,1,0,12.284,3.78,3.522,3.522,0,0,0,15.805,7.3Z" transform="translate(-12.283 16.105)" fill="url(#linear-gradient)"/>
    </g>
    <g id="Group_39533" data-name="Group 39533" transform="matrix(0.799, -0.602, 0.602, 0.799, 199.566, 482.285)" opacity="0.272">
      <circle id="Ellipse_1999-2" data-name="Ellipse 1999" cx="11.994" cy="11.994" r="11.994" transform="translate(0 0)" fill="url(#linear-gradient)"/>
      <path id="Path_25533-2" data-name="Path 25533" d="M1.027,0A1.027,1.027,0,1,1,0,1.027,1.028,1.028,0,0,1,1.027,0Z" transform="translate(9.506 26.687) rotate(141)" fill="url(#linear-gradient-6)"/>
      <path id="Path_25534-2" data-name="Path 25534" d="M.7,0A.7.7,0,1,1,0,.7.7.7,0,0,1,.7,0Z" transform="translate(5.561 24.723) rotate(141)" fill="url(#linear-gradient-6)"/>
      <path id="Path_25535-2" data-name="Path 25535" d="M1.3,2.606a1.3,1.3,0,1,1,1.3-1.3A1.3,1.3,0,0,1,1.3,2.606Z" transform="translate(24.51 6.055)" fill="url(#linear-gradient)"/>
    </g>
    <g id="Ellipse_2007" data-name="Ellipse 2007" transform="translate(92.646 461)" fill="#F6F2ED" stroke="#002c27" stroke-width="2">
      <circle cx="63.206" cy="63.206" r="63.206" stroke="none"/>
      <circle cx="63.206" cy="63.206" r="62.206" fill="none"/>
    </g>
    <g id="Group_39720" data-name="Group 39720" transform="translate(97.691 466.379)">
      <g id="Group_39719" data-name="Group 39719" transform="translate(0 0)">
        <path id="Path_27264" data-name="Path 27264" d="M511.6,1209.586a58.4,58.4,0,0,1-17.376,41.655,57.642,57.642,0,0,1-40.965,16.8,58.456,58.456,0,1,1,58.341-58.455Z" transform="translate(-394.923 -1151.13)" fill="url(#linear-gradient)"/>
      </g>
    </g>
    <g id="Ellipse_2008" data-name="Ellipse 2008" transform="translate(102.06 470.414)" fill="#F6F2ED" stroke="#002c27" stroke-width="2">
      <circle cx="53.793" cy="53.793" r="53.793" stroke="none"/>
      <circle cx="53.793" cy="53.793" r="52.793" fill="none"/>
    </g>
    <g id="Rectangle_7600" data-name="Rectangle 7600" transform="translate(110.179 570.413) rotate(-90)" fill="none" stroke="#002c27" stroke-width="1.5" stroke-dasharray="1.5 1.5">
      <rect width="92" height="92" rx="43" stroke="none"/>
      <rect x="0.75" y="0.75" width="90.5" height="90.5" rx="42.25" fill="none"/>
    </g>
    <path id="Union_30" data-name="Union 30" d="M-596.336,2823.618a7.635,7.635,0,0,1-5.419-2.261A7.745,7.745,0,0,1-604,2815.9a7.745,7.745,0,0,1,2.245-5.457,7.635,7.635,0,0,1,5.419-2.261h26.069a7.624,7.624,0,0,1,2.933.587,7.649,7.649,0,0,1,2.486,1.673,7.7,7.7,0,0,1,1.662,2.5,7.769,7.769,0,0,1,.583,2.953,7.771,7.771,0,0,1-.583,2.954,7.716,7.716,0,0,1-1.662,2.5,7.66,7.66,0,0,1-2.486,1.673,7.624,7.624,0,0,1-2.933.588Zm.278-9.407a2.393,2.393,0,0,0-.7,1.688,2.4,2.4,0,0,0,.4,1.328,2.367,2.367,0,0,0,1.065.88,2.362,2.362,0,0,0,1.37.136,2.368,2.368,0,0,0,1.214-.654,2.4,2.4,0,0,0,.65-1.223,2.4,2.4,0,0,0-.135-1.38,2.378,2.378,0,0,0-.874-1.072,2.356,2.356,0,0,0-1.317-.4A2.361,2.361,0,0,0-596.058,2814.211Zm17.848.464a1.738,1.738,0,0,0-.5,1.224,1.739,1.739,0,0,0,.5,1.226,1.715,1.715,0,0,0,1.217.508h6.361a1.715,1.715,0,0,0,1.216-.508,1.74,1.74,0,0,0,.5-1.226,1.739,1.739,0,0,0-.5-1.224,1.715,1.715,0,0,0-1.216-.508h-6.361A1.715,1.715,0,0,0-578.21,2814.675Zm-18.126-10.649a7.634,7.634,0,0,1-5.419-2.26,7.747,7.747,0,0,1-2.245-5.458,7.743,7.743,0,0,1,2.245-5.457,7.635,7.635,0,0,1,5.419-2.261h26.069a7.636,7.636,0,0,1,5.419,2.261,7.742,7.742,0,0,1,2.245,5.457,7.746,7.746,0,0,1-2.245,5.458,7.635,7.635,0,0,1-5.419,2.26Zm.278-9.407a2.4,2.4,0,0,0-.7,1.689,2.4,2.4,0,0,0,.4,1.328,2.378,2.378,0,0,0,1.065.88,2.359,2.359,0,0,0,1.37.135A2.359,2.359,0,0,0-592.7,2798a2.4,2.4,0,0,0,.65-1.224,2.4,2.4,0,0,0-.135-1.38,2.378,2.378,0,0,0-.874-1.071,2.355,2.355,0,0,0-1.317-.4A2.363,2.363,0,0,0-596.058,2794.619Zm17.848.465a1.739,1.739,0,0,0-.5,1.225,1.742,1.742,0,0,0,.5,1.226,1.714,1.714,0,0,0,1.217.507h6.361a1.714,1.714,0,0,0,1.216-.507,1.742,1.742,0,0,0,.5-1.226,1.74,1.74,0,0,0-.5-1.225,1.711,1.711,0,0,0-1.216-.508h-6.361A1.711,1.711,0,0,0-578.21,2795.084Zm-18.126-10.648a7.635,7.635,0,0,1-5.419-2.261,7.742,7.742,0,0,1-2.245-5.457,7.746,7.746,0,0,1,2.245-5.458,7.639,7.639,0,0,1,5.419-2.26h26.069a7.64,7.64,0,0,1,5.419,2.26,7.746,7.746,0,0,1,2.245,5.458,7.742,7.742,0,0,1-2.245,5.457,7.637,7.637,0,0,1-5.419,2.261Zm.278-9.486a2.4,2.4,0,0,0-.7,1.689,2.4,2.4,0,0,0,.4,1.328,2.375,2.375,0,0,0,1.065.88,2.353,2.353,0,0,0,1.37.135,2.359,2.359,0,0,0,1.214-.653,2.4,2.4,0,0,0,.65-1.223,2.4,2.4,0,0,0-.135-1.381,2.388,2.388,0,0,0-.874-1.072,2.363,2.363,0,0,0-1.317-.4A2.365,2.365,0,0,0-596.058,2774.949Zm17.848.465a1.739,1.739,0,0,0-.5,1.225,1.741,1.741,0,0,0,.5,1.226,1.714,1.714,0,0,0,1.217.507h6.361a1.714,1.714,0,0,0,1.216-.507,1.742,1.742,0,0,0,.5-1.226v.079a1.75,1.75,0,0,0-.108-.687,1.724,1.724,0,0,0-.368-.589,1.711,1.711,0,0,0-.567-.4,1.707,1.707,0,0,0-.677-.139h-6.361A1.715,1.715,0,0,0-578.21,2775.414Z" transform="translate(739.481 -2272.103)" stroke="#002c27" stroke-width="1" fill="url(#linear-gradient)"/>
  </g>
</svg>
