<svg width="14" height="22" viewBox="0 0 14 22" fill="none" xmlns="http://www.w3.org/2000/svg">
<path fill-rule="evenodd" clip-rule="evenodd" d="M2.77705e-06 3.00019C-0.000533835 2.60605 0.0767021 2.21567 0.227285 1.85143C0.377869 1.48719 0.59884 1.15624 0.87754 0.87754C1.15624 0.59884 1.48719 0.377869 1.85143 0.227285C2.21567 0.076702 2.60605 -0.000533835 3.00019 2.77705e-06H11.001C11.7966 0.000542671 12.5593 0.316806 13.1219 0.879333C13.6844 1.44186 14.0007 2.20465 14.0012 3.00019V18.9998C13.9988 19.7948 13.6819 20.5565 13.1198 21.1186C12.5577 21.6807 11.796 21.9976 11.001 22H3.00019C2.20501 21.9995 1.44252 21.6835 0.880052 21.1214C0.317584 20.5593 0.00108227 19.797 2.77705e-06 19.0019V3.00019ZM5.50306 19.5012H8.50324V17.5018H5.50306V19.5012Z" fill="black"/>
</svg>
