<svg width="23" height="26" viewBox="0 0 23 26" fill="none" xmlns="http://www.w3.org/2000/svg">
<g clip-path="url(#clip0_3380_3451)">
<path d="M22.9997 12.0641C23.0225 15.3658 21.7192 18.163 19.5193 20.6021C17.479 22.8645 14.9886 24.5467 12.1983 25.8337C11.771 26.0302 11.3425 26.0755 10.9033 25.8744C7.38078 24.2561 4.32755 22.0774 2.14205 18.8919C0.731854 16.8388 -0.0122437 14.5776 0.0021583 12.0908C0.0165603 9.66565 0.0021583 7.24052 0.0021583 4.81421C0.0021583 4.00041 0.338193 3.54931 1.1303 3.28773C4.37075 2.22048 7.59801 1.14278 10.8445 0.105753C11.2659 -0.0241595 11.718 -0.0282218 12.1418 0.0941159C15.3823 1.13114 18.6156 2.21001 21.8476 3.28191C22.6877 3.56209 22.9961 3.99457 22.9961 4.88046C22.9961 6.1872 22.9961 7.49436 22.9961 8.80188C22.9985 9.8854 22.9913 10.9747 22.9997 12.0641Z" fill="#2D6759"/>
<path d="M17 13.6773H15.9184V15.9947H13.7261V13.678C13.6768 13.6753 13.6428 13.6715 13.6086 13.6715C12.8938 13.6715 12.179 13.6715 11.464 13.6688C11.3794 13.6688 11.3436 13.6992 11.3116 13.7803C10.843 14.9751 10.0142 15.7223 8.82317 15.9465C7.11866 16.2671 5.51179 15.1158 5.09663 13.3392C4.69459 11.6187 5.58029 9.82766 7.13723 9.21846C8.81709 8.56099 10.6452 9.43408 11.3097 11.2128C11.3385 11.2891 11.3679 11.3305 11.4579 11.3305C13.2779 11.3266 15.0979 11.3256 16.9177 11.3274C16.9449 11.3274 16.9722 11.3237 16.9994 11.3216L17 13.6773ZM8.27101 13.6588C8.41338 13.6592 8.55443 13.6296 8.68611 13.5717C8.81778 13.5138 8.93749 13.4287 9.03842 13.3214C9.13935 13.214 9.21951 13.0864 9.27432 12.9459C9.32913 12.8054 9.35753 12.6548 9.35789 12.5025C9.35825 12.3503 9.33056 12.1995 9.2764 12.0587C9.22225 11.9179 9.14269 11.7899 9.04227 11.682C8.94185 11.5741 8.82253 11.4884 8.69113 11.4298C8.55973 11.3712 8.41882 11.3408 8.27645 11.3404C7.67915 11.338 7.18108 11.8562 7.18813 12.4965C7.18724 12.6491 7.21461 12.8003 7.26867 12.9414C7.32272 13.0826 7.40238 13.2109 7.50306 13.319C7.60374 13.427 7.72343 13.5127 7.85524 13.571C7.98705 13.6294 8.12835 13.6592 8.27101 13.6588Z" fill="#FDF7F0"/>
</g>
<defs>
<clipPath id="clip0_3380_3451">
<rect width="23" height="26" fill="white"/>
</clipPath>
</defs>
</svg>
