<svg width="24" height="20" viewBox="0 0 24 20" fill="none" xmlns="http://www.w3.org/2000/svg">
<g clip-path="url(#clip0_5504_6505)">
<path d="M15.5753 4.29118C15.481 4.44608 15.4237 4.54775 15.3592 4.64456C14.6142 5.77484 13.8632 6.90148 13.1229 8.03296C12.7934 8.53759 13.0035 9.1015 13.5384 9.19589C13.8871 9.25639 14.1175 9.07489 14.3038 8.79172C15.3019 7.27017 16.3037 5.75142 17.309 4.23552C18.1281 2.99553 18.9463 1.75433 19.7638 0.511915C19.8068 0.447778 19.8462 0.381239 19.8939 0.319522C20.159 -0.0241585 20.553 -0.097983 20.8849 0.131944C21.0353 0.238665 21.1389 0.400413 21.1739 0.583058C21.2088 0.765704 21.1725 0.954949 21.0724 1.11093C21.0234 1.19806 20.9649 1.27915 20.91 1.36265C19.4645 3.55946 18.0174 5.75545 16.5687 7.95065C16.4981 8.05017 16.4343 8.1545 16.3777 8.26287C16.299 8.41529 16.2783 8.59173 16.3197 8.75857C16.3611 8.92542 16.4615 9.07102 16.602 9.16761C16.7424 9.26421 16.9131 9.30504 17.0813 9.28236C17.2496 9.25969 17.4037 9.17506 17.5144 9.04462C17.5846 8.95889 17.6488 8.86831 17.7066 8.77355C18.6363 7.36575 19.5644 5.95756 20.4909 4.54896C20.6103 4.36381 20.7381 4.26819 20.9685 4.28634C21.4067 4.32022 21.8532 4.28634 22.2819 4.3529C22.7642 4.43397 23.202 4.68707 23.5164 5.06652C23.8308 5.44596 24.001 5.92678 23.9964 6.42225C23.9964 10.2447 23.9964 14.0671 23.9964 17.8895C23.9964 18.1663 23.9426 18.4404 23.8381 18.6961C23.7335 18.9518 23.5803 19.1841 23.3872 19.3797C23.194 19.5754 22.9647 19.7306 22.7124 19.8364C22.46 19.9422 22.1896 19.9966 21.9165 19.9964C15.3163 20.0012 8.71559 20.0012 2.11452 19.9964C0.920551 19.9964 0.00596985 19.0368 0.00358191 17.7722C-0.00119397 15.2865 -0.00119397 12.8013 0.00358191 10.3165C0.00358191 9.05672 0.00358191 7.79818 0.00358191 6.53842C0.00358191 5.23268 0.921745 4.2936 2.20407 4.29239C6.55569 4.28594 10.9081 4.28594 15.2613 4.29239L15.5753 4.29118ZM7.79902 10.0055C8.70166 10.0055 9.6043 10.0115 10.5069 10.0055C10.9929 10.0055 11.3033 9.70779 11.2997 9.29634C11.2962 8.88489 10.9857 8.61139 10.4974 8.59445H10.3314C8.62564 8.59445 6.91906 8.59445 5.21168 8.59445C5.07987 8.59138 4.94804 8.59988 4.81767 8.61986C4.66968 8.64313 4.53417 8.71751 4.43409 8.83042C4.334 8.94333 4.27548 9.08785 4.26845 9.23947C4.23263 9.69569 4.53231 9.99941 5.05766 10.0055C5.96627 10.0115 6.88563 10.0055 7.79902 10.0055ZM7.75484 12.8529C8.65748 12.8529 9.56132 12.8529 10.464 12.8529C10.9678 12.8529 11.2997 12.5758 11.2997 12.1571C11.2997 11.7384 10.9702 11.4407 10.4747 11.4395C8.67897 11.4395 6.88324 11.4395 5.08751 11.4395C4.57768 11.4395 4.26486 11.7142 4.26128 12.1462C4.2577 12.5782 4.56216 12.8517 5.07676 12.8529C5.96627 12.8541 6.86175 12.8529 7.75723 12.8529H7.75484ZM7.79066 14.3051C6.87608 14.3051 5.96149 14.3051 5.04453 14.3051C4.55619 14.3051 4.25889 14.5786 4.26009 15.0082C4.26128 15.4378 4.56813 15.7161 5.0505 15.7174C6.86772 15.7222 8.68534 15.7222 10.5034 15.7174C10.9738 15.7174 11.2997 15.4124 11.2985 15.0034C11.2973 14.5943 10.9714 14.3063 10.4974 14.3051C9.59714 14.3039 8.6933 14.3051 7.79066 14.3051Z" fill="#2F4F4F"/>
</g>
<defs>
<clipPath id="clip0_5504_6505">
<rect width="24" height="20" fill="white"/>
</clipPath>
</defs>
</svg>
