<svg width="24" height="20" viewBox="0 0 24 20" fill="none" xmlns="http://www.w3.org/2000/svg">
<g clip-path="url(#clip0_3186_3148)">
<path d="M15.5744 4.29112C15.48 4.44602 15.4227 4.54769 15.3583 4.6445C14.6132 5.77478 13.8622 6.90142 13.122 8.0329C12.7924 8.53753 13.0026 9.10144 13.5375 9.19583C13.8861 9.25633 14.1165 9.07483 14.3028 8.79166C15.301 7.27011 16.3027 5.75136 17.308 4.23546C18.1271 2.99547 18.9453 1.75427 19.7628 0.511854C19.8058 0.447717 19.8452 0.381178 19.893 0.31946C20.158 -0.0242195 20.552 -0.098044 20.884 0.131883C21.0343 0.238604 21.1379 0.400352 21.1729 0.582997C21.2079 0.765643 21.1715 0.954888 21.0714 1.11087C21.0225 1.198 20.964 1.27909 20.909 1.36259C19.4635 3.5594 18.0164 5.75539 16.5678 7.95059C16.4971 8.05011 16.4333 8.15444 16.3767 8.26281C16.298 8.41523 16.2774 8.59167 16.3187 8.75851C16.3601 8.92535 16.4606 9.07096 16.601 9.16755C16.7415 9.26415 16.9121 9.30498 17.0803 9.2823C17.2486 9.25963 17.4027 9.175 17.5134 9.04456C17.5836 8.95883 17.6478 8.86825 17.7056 8.77349C18.6353 7.36569 19.5634 5.9575 20.4899 4.5489C20.6093 4.36375 20.7371 4.26812 20.9675 4.28628C21.4057 4.32016 21.8523 4.28628 22.2809 4.35284C22.7632 4.43391 23.201 4.68701 23.5154 5.06646C23.8298 5.4459 24 5.92672 23.9954 6.42219C23.9954 10.2446 23.9954 14.0671 23.9954 17.8895C23.9954 18.1663 23.9416 18.4403 23.8371 18.696C23.7326 18.9517 23.5793 19.184 23.3862 19.3797C23.193 19.5753 22.9637 19.7305 22.7114 19.8363C22.4591 19.9421 22.1886 19.9965 21.9155 19.9963C15.3153 20.0012 8.71461 20.0012 2.11355 19.9963C0.919575 19.9963 0.00499329 19.0367 0.00260535 17.7721C-0.00217053 15.2865 -0.00217053 12.8012 0.00260535 10.3164C0.00260535 9.05666 0.00260535 7.79812 0.00260535 6.53836C0.00260535 5.23262 0.920769 4.29354 2.20309 4.29233C6.55472 4.28588 10.9071 4.28588 15.2604 4.29233L15.5744 4.29112ZM7.79804 10.0054C8.70068 10.0054 9.60332 10.0115 10.506 10.0054C10.9919 10.0054 11.3023 9.70773 11.2988 9.29628C11.2952 8.88483 10.9847 8.61133 10.4964 8.59439H10.3305C8.62467 8.59439 6.91808 8.59439 5.21071 8.59439C5.07889 8.59132 4.94706 8.59982 4.81669 8.6198C4.66871 8.64307 4.5332 8.71745 4.43311 8.83036C4.33302 8.94327 4.27451 9.08779 4.26747 9.2394C4.23165 9.69563 4.53134 9.99935 5.05668 10.0054C5.96529 10.0115 6.88465 10.0054 7.79804 10.0054ZM7.75386 12.8529C8.6565 12.8529 9.56034 12.8529 10.463 12.8529C10.9668 12.8529 11.2988 12.5757 11.2988 12.157C11.2988 11.7383 10.9692 11.4406 10.4737 11.4394C8.67799 11.4394 6.88226 11.4394 5.08653 11.4394C4.57671 11.4394 4.26389 11.7141 4.2603 12.1462C4.25672 12.5782 4.56119 12.8517 5.07579 12.8529C5.96529 12.8541 6.86077 12.8529 7.75625 12.8529H7.75386ZM7.78968 14.305C6.8751 14.305 5.96052 14.305 5.04355 14.305C4.55522 14.305 4.25792 14.5785 4.25911 15.0081C4.2603 15.4377 4.56716 15.7161 5.04952 15.7173C6.86674 15.7221 8.68436 15.7221 10.5024 15.7173C10.9728 15.7173 11.2988 15.4123 11.2976 15.0033C11.2964 14.5943 10.9704 14.3062 10.4964 14.305C9.59616 14.3038 8.69232 14.305 7.78968 14.305Z" fill="#F1F1F1"/>
</g>
<defs>
<clipPath id="clip0_3186_3148">
<rect width="24" height="20" fill="white"/>
</clipPath>
</defs>
</svg>
