<svg width="16" height="27" viewBox="0 0 16 27" fill="none" xmlns="http://www.w3.org/2000/svg">
<path d="M10.5024 26.5H5.49939C5.44111 26.4994 5.38541 26.476 5.34456 26.4356C5.30371 26.3951 5.28098 26.3408 5.28139 26.284V13.8309C4.52987 13.5169 3.84095 13.0769 3.24604 12.5307C2.66401 11.9968 2.1789 11.3707 1.8113 10.6793C1.24462 9.61452 0.966495 8.42628 1.00322 7.22762C1.03994 6.02896 1.39036 4.85939 2.02122 3.82936C2.43097 3.16127 2.95403 2.56591 3.5683 2.06801C4.17812 1.57236 4.87077 1.1821 5.61605 0.914275C7.15504 0.361908 8.84595 0.361908 10.3849 0.914275C11.1302 1.1821 11.8228 1.57236 12.4326 2.06801C13.0468 2.56589 13.5698 3.16126 13.9794 3.82936C14.6684 4.95467 15.0214 6.2443 14.999 7.55412C14.9765 8.86394 14.5795 10.1422 13.8523 11.2445C13.0977 12.3921 12.0069 13.2931 10.7207 13.8309V26.284C10.721 26.3408 10.6982 26.3951 10.6573 26.4356C10.6164 26.476 10.5607 26.4994 10.5024 26.5ZM7.99951 24.0586C7.81242 24.0551 7.6285 24.1056 7.47119 24.2042C7.31388 24.3029 7.19031 24.4447 7.11622 24.612C7.04212 24.7793 7.02083 24.9644 7.05511 25.1435C7.0894 25.3225 7.17772 25.4878 7.30874 25.6179C7.43977 25.7479 7.60756 25.8365 7.79081 25.8734C7.97406 25.9102 8.16442 25.8932 8.33765 25.8243C8.51088 25.7554 8.65915 25.638 8.7635 25.4868C8.86786 25.3356 8.92356 25.158 8.9236 24.9758C8.92535 24.7353 8.82925 24.5034 8.65624 24.3316C8.48323 24.1598 8.24738 24.0616 8.00026 24.0586H7.99951ZM5.95645 16.7987V22.6962H9.92252V16.7987H5.95645ZM7.99951 4.06216C7.0801 4.06216 6.19839 4.41834 5.54827 5.05118C4.89815 5.68402 4.5329 6.54202 4.5329 7.43699C4.5329 8.33196 4.89815 9.18995 5.54827 9.82279C6.19839 10.4556 7.0801 10.8118 7.99951 10.8118C8.4484 10.8125 8.89287 10.7254 9.30649 10.5556C9.7201 10.3858 10.0944 10.1362 10.4072 9.82279C11.0497 9.1866 11.408 8.3298 11.4042 7.43772C11.4112 6.55121 11.0569 5.69767 10.4188 5.06509C9.7807 4.43252 8.91095 4.07219 8.00026 4.06289L7.99951 4.06216Z" fill="#FDF7F0" stroke="#2D6759" stroke-width="0.058" stroke-linecap="round" stroke-linejoin="round"/>
</svg>
