<svg xmlns="http://www.w3.org/2000/svg" xmlns:xlink="http://www.w3.org/1999/xlink" width="134.265" height="108.178" viewBox="0 0 134.265 108.178">
  <defs>
    <linearGradient id="linear-gradient" x1="0.5" x2="0.5" y2="1" gradientUnits="objectBoundingBox">
      <stop offset="0" stop-color="#00836a"/>
      <stop offset="1" stop-color="#073e39"/>
    </linearGradient>
    <linearGradient id="linear-gradient-6" y1="1" y2="0" xlink:href="#linear-gradient"/>
  </defs>
  <g id="illustration" transform="translate(-57 -461)">
    <g id="Group_39521" data-name="Group 39521" transform="translate(57 511.545)" opacity="0.272">
      <circle id="Ellipse_1999" data-name="Ellipse 1999" cx="24.705" cy="24.705" r="24.705" transform="translate(6.443 0)" fill="url(#linear-gradient)"/>
      <path id="Path_25533" data-name="Path 25533" d="M2.116,4.233A2.116,2.116,0,1,0,0,2.116,2.116,2.116,0,0,0,2.116,4.233Z" transform="translate(38.937 51.68) rotate(39)" fill="url(#linear-gradient)"/>
      <path id="Path_25534" data-name="Path 25534" d="M1.445,2.891A1.445,1.445,0,1,0,0,1.445,1.445,1.445,0,0,0,1.445,2.891Z" transform="translate(46.219 48.677) rotate(39)" fill="url(#linear-gradient)"/>
      <path id="Path_25535" data-name="Path 25535" d="M14.968,5.627a2.684,2.684,0,1,0-2.684-2.684A2.684,2.684,0,0,0,14.968,5.627Z" transform="translate(-12.284 12.213)" fill="url(#linear-gradient)"/>
    </g>
    <g id="Group_39533" data-name="Group 39533" transform="matrix(0.799, -0.602, 0.602, 0.799, 165.66, 477.223)" opacity="0.272">
      <circle id="Ellipse_1999-2" data-name="Ellipse 1999" cx="9.142" cy="9.142" r="9.142" transform="translate(0 0)" fill="url(#linear-gradient)"/>
      <path id="Path_25533-2" data-name="Path 25533" d="M.783,0A.783.783,0,1,1,0,.783.783.783,0,0,1,.783,0Z" transform="translate(7.245 20.34) rotate(141)" fill="url(#linear-gradient-6)"/>
      <path id="Path_25534-2" data-name="Path 25534" d="M.535,0A.535.535,0,1,1,0,.535.535.535,0,0,1,.535,0Z" transform="translate(4.238 18.843) rotate(141)" fill="url(#linear-gradient-6)"/>
      <path id="Path_25535-2" data-name="Path 25535" d="M.993,1.986A.993.993,0,1,1,1.986.993.993.993,0,0,1,.993,1.986Z" transform="translate(18.681 4.615)" fill="url(#linear-gradient)"/>
    </g>
    <g id="Ellipse_2007" data-name="Ellipse 2007" transform="translate(84.168 461)" fill="#F6F2ED" stroke="#002c27" stroke-width="2">
      <circle cx="48.174" cy="48.174" r="48.174" stroke="none"/>
      <circle cx="48.174" cy="48.174" r="47.174" fill="none"/>
    </g>
    <g id="Group_39720" data-name="Group 39720" transform="translate(88.014 465.1)">
      <g id="Group_39719" data-name="Group 39719" transform="translate(0 0)">
        <path id="Path_27264" data-name="Path 27264" d="M483.854,1195.683a44.513,44.513,0,0,1-13.243,31.748,43.933,43.933,0,0,1-31.222,12.8,44.553,44.553,0,1,1,44.466-44.553Z" transform="translate(-394.923 -1151.13)" fill="url(#linear-gradient)"/>
      </g>
    </g>
    <g id="Ellipse_2008" data-name="Ellipse 2008" transform="translate(91.343 468.175)" fill="#F6F2ED" stroke="#002c27" stroke-width="2">
      <circle cx="40.999" cy="40.999" r="40.999" stroke="none"/>
      <circle cx="40.999" cy="40.999" r="39.999" fill="none"/>
    </g>
    <g id="Rectangle_7600" data-name="Rectangle 7600" transform="translate(97.532 544.392) rotate(-90)" fill="none" stroke="#002c27" stroke-width="1.5" stroke-dasharray="1.5 1.5">
      <rect width="70.12" height="70.12" rx="35.06" stroke="none"/>
      <rect x="0.75" y="0.75" width="68.62" height="68.62" rx="34.31" fill="none"/>
    </g>
    <path id="heathcheck" d="M24.62,4.436H23a1.128,1.128,0,0,0-.456.094A2.8,2.8,0,0,0,19.779,2H13.3a2.8,2.8,0,0,0-2.751,2.436H8.461a4.394,4.394,0,0,0-4.4,4.4v20.2a4.394,4.394,0,0,0,4.4,4.4H24.62a4.394,4.394,0,0,0,4.4-4.4V8.838A4.394,4.394,0,0,0,24.62,4.436ZM8.9,27.417a1.177,1.177,0,0,1,1.179-1.179H23A1.179,1.179,0,1,1,23,28.6H10.08A1.177,1.177,0,0,1,8.9,27.417ZM23,23.755H10.08a1.179,1.179,0,0,1,0-2.358H23a1.179,1.179,0,1,1,0,2.358ZM14.12,14.119h1.242V12.877a1.179,1.179,0,1,1,2.358,0v1.242h1.242a1.179,1.179,0,1,1,0,2.358H17.72v1.242a1.179,1.179,0,1,1-2.358,0V16.477H14.12a1.179,1.179,0,1,1,0-2.358ZM12.878,4.8a.436.436,0,0,1,.424-.44h6.476a.436.436,0,0,1,.424.44V6.417a.436.436,0,0,1-.424.44H13.3a.436.436,0,0,1-.424-.44Z" transform="translate(116.051 491.455)" fill="url(#linear-gradient)"/>
  </g>
</svg>
