<svg xmlns="http://www.w3.org/2000/svg" width="46.958" height="46.954" viewBox="0 0 46.958 46.954">
  <g id="right_gear" data-name="right gear" transform="translate(-26.269 -49.139)">
    <path id="Union_26" data-name="Union 26" d="M15.332,35.728c-.238-.606-1.752-4.481-1.752-4.481a14.078,14.078,0,0,0,8.574,0s-1.514,3.877-1.752,4.482ZM3.442,28.706c.26-.6,1.933-4.407,1.933-4.407a14.151,14.151,0,0,0,6.057,6.055s-3.812,1.673-4.406,1.933ZM24.3,30.354A14.146,14.146,0,0,0,30.356,24.3s1.673,3.811,1.933,4.407l-3.584,3.58C28.11,32.028,24.3,30.354,24.3,30.354Zm7.621-12.49a13.98,13.98,0,0,0-.667-4.281s3.874,1.51,4.48,1.748V20.4l-4.48,1.748A13.982,13.982,0,0,0,31.919,17.864ZM0,20.4V15.332c.606-.238,4.48-1.748,4.48-1.748a14.086,14.086,0,0,0,0,8.561S.606,20.633,0,20.4ZM24.3,5.374S28.112,3.7,28.707,3.441l3.583,3.581c-.26.6-1.933,4.407-1.933,4.407A14.152,14.152,0,0,0,24.3,5.374ZM3.443,7.023,7.027,3.441c.595.258,4.406,1.932,4.406,1.932a14.15,14.15,0,0,0-6.057,6.055S3.7,7.619,3.443,7.023Zm14.421-3.21a14,14,0,0,0-4.285.668S15.093.6,15.331,0H20.4c.238.6,1.752,4.482,1.751,4.482A14,14,0,0,0,17.864,3.813Z" transform="translate(67.613 90.479) rotate(180)" fill="#96826f"/>
    <g id="right_gear-2" data-name="right gear" transform="translate(26.269 49.139)">
      <g id="Group_42414" data-name="Group 42414">
        <g id="Group_42413" data-name="Group 42413" opacity="0.6">
          <g id="Group_42412" data-name="Group 42412">
            <path id="Path_28678" data-name="Path 28678" d="M.855,48.083s1.529.606,3.317,1.306c-.768,1.758-1.42,3.269-1.42,3.269a1.357,1.357,0,0,0,.285,1.5l7.682,7.681a1.354,1.354,0,0,0,1.5.285s1.507-.652,3.265-1.42c.7,1.785,1.306,3.313,1.306,3.313a1.355,1.355,0,0,0,1.26.856H28.911a1.355,1.355,0,0,0,1.26-.856s.605-1.528,1.306-3.313c1.757.768,3.265,1.42,3.265,1.42a1.354,1.354,0,0,0,1.5-.286l7.684-7.68a1.355,1.355,0,0,0,.286-1.5s-.654-1.51-1.423-3.267c1.788-.7,3.316-1.306,3.316-1.306a1.355,1.355,0,0,0,.857-1.261V35.962A1.355,1.355,0,0,0,46.1,34.7S44.573,34.1,42.785,33.4c.769-1.757,1.423-3.267,1.423-3.267a1.356,1.356,0,0,0-.285-1.5l-7.684-7.68a1.356,1.356,0,0,0-1.5-.286s-1.508.652-3.265,1.42c-.7-1.785-1.306-3.313-1.306-3.313a1.355,1.355,0,0,0-1.26-.856H18.047a1.355,1.355,0,0,0-1.26.856s-.605,1.528-1.306,3.313c-1.757-.768-3.265-1.42-3.265-1.42a1.358,1.358,0,0,0-1.5.286L3.039,28.631a1.356,1.356,0,0,0-.285,1.5s.652,1.511,1.42,3.269C2.385,34.1.856,34.7.856,34.7A1.355,1.355,0,0,0,0,35.962V46.823A1.352,1.352,0,0,0,.855,48.083Zm1.855-11.2c.886-.35,2.338-.921,3.762-1.477a1.356,1.356,0,0,0,.75-1.808c-.614-1.4-1.236-2.83-1.615-3.7l6.377-6.377c.873.379,2.3,1,3.7,1.614a1.355,1.355,0,0,0,1.808-.748c.555-1.422,1.127-2.873,1.477-3.759h9.021c.35.886.922,2.337,1.477,3.759a1.355,1.355,0,0,0,1.808.748c1.4-.614,2.825-1.235,3.7-1.614L41.353,29.9c-.38.874-1,2.306-1.617,3.7a1.356,1.356,0,0,0,.749,1.808c1.424.555,2.876,1.127,3.762,1.477V45.9c-.886.35-2.338.921-3.762,1.477a1.356,1.356,0,0,0-.749,1.808c.614,1.4,1.237,2.829,1.617,3.7l-6.38,6.377c-.873-.379-2.3-1-3.7-1.614a1.355,1.355,0,0,0-1.808.748c-.555,1.422-1.127,2.873-1.477,3.759H18.968c-.35-.886-.922-2.337-1.477-3.759a1.355,1.355,0,0,0-1.808-.748c-1.4.614-2.825,1.235-3.7,1.614L5.607,52.888c.379-.874,1-2.306,1.615-3.7a1.356,1.356,0,0,0-.75-1.808C5.048,46.822,3.6,46.25,2.71,45.9V36.884Z" transform="translate(0 -17.915)" fill="#d0c8be"/>
          </g>
        </g>
      </g>
      <g id="Group_42417" data-name="Group 42417" transform="translate(12.328 12.329)" opacity="0.6">
        <g id="Group_42416" data-name="Group 42416">
          <g id="Group_42415" data-name="Group 42415">
            <path id="Path_28679" data-name="Path 28679" d="M38.42,67.478A11.148,11.148,0,1,0,27.268,56.33,11.161,11.161,0,0,0,38.42,67.478Zm0-19.585a8.437,8.437,0,1,1-8.441,8.437A8.447,8.447,0,0,1,38.42,47.893Z" transform="translate(-27.268 -45.182)" fill="#d0c8be"/>
          </g>
        </g>
      </g>
    </g>
  </g>
</svg>
