<svg width="16" height="15" viewBox="0 0 16 15" fill="none" xmlns="http://www.w3.org/2000/svg">
<path d="M14.3921 15H1.59912C1.17501 15 0.768265 14.8194 0.468372 14.4979C0.168478 14.1764 1.01347e-08 13.7404 1.01347e-08 13.2857V1.82486C-4.72413e-05 1.37462 0.165134 0.942438 0.459859 0.621676C0.754584 0.300914 1.15519 0.117325 1.57513 0.110571L10.922 0H10.954C11.5874 0.00225964 12.1942 0.273 12.6421 0.75314C13.09 1.23328 13.3426 1.88384 13.3447 2.56286L13.3694 2.60571V2.71714H14.4009C14.825 2.71714 15.2317 2.89775 15.5316 3.21925C15.8315 3.54074 16 3.97677 16 4.43143V11.3657L15.9912 10.6286V13.2857C15.9912 13.7404 15.8227 14.1764 15.5228 14.4979C15.2229 14.8194 14.8162 15 14.3921 15ZM12.7426 7.29086C12.3157 7.29086 11.9063 7.47264 11.6045 7.79622C11.3027 8.1198 11.1331 8.55867 11.1331 9.01629C11.1331 9.4739 11.3027 9.91277 11.6045 10.2363C11.9063 10.5599 12.3157 10.7417 12.7426 10.7417H13.5477C13.6897 10.7415 13.8257 10.6809 13.926 10.5732C14.0263 10.4655 14.0827 10.3196 14.0827 10.1674V7.86857C14.0831 7.71595 14.027 7.5694 13.9267 7.46108C13.8264 7.35276 13.6901 7.29154 13.5477 7.29086H12.7426ZM2.07246 1.71429C1.94705 1.71474 1.8269 1.76834 1.73822 1.86341C1.64955 1.95847 1.59954 2.08728 1.59912 2.22171V2.72571H11.5936C11.593 2.45738 11.4932 2.20025 11.316 2.01067C11.1389 1.82109 10.8989 1.71451 10.6485 1.71429H2.07246Z" fill="#2F4F4F"/>
</svg>
