<svg xmlns="http://www.w3.org/2000/svg" width="230.248" height="199.593" viewBox="0 0 230.248 199.593">
  <g id="illustration" transform="translate(-60.221 -361.322)">
    <g id="background" transform="translate(35.221 -14)">
      <g id="Group_39521" data-name="Group 39521" transform="translate(25 481.66)" opacity="0.272">
        <circle id="Ellipse_1999" data-name="Ellipse 1999" cx="39.974" cy="39.974" r="39.974" transform="translate(10.425)" fill="#073c37"/>
        <path id="Path_25533" data-name="Path 25533" d="M3.424,6.849A3.424,3.424,0,1,0,0,3.424,3.425,3.425,0,0,0,3.424,6.849Z" transform="translate(63.002 83.621) rotate(39)" fill="#073c37"/>
        <path id="Path_25534" data-name="Path 25534" d="M2.339,4.677A2.339,2.339,0,1,0,0,2.339,2.339,2.339,0,0,0,2.339,4.677Z" transform="translate(74.784 78.762) rotate(39)" fill="#073c37"/>
        <path id="Path_25535" data-name="Path 25535" d="M16.627,8.945A4.343,4.343,0,1,0,12.284,4.6,4.343,4.343,0,0,0,16.627,8.945Z" transform="translate(-12.284 19.922)" fill="#073c37"/>
      </g>
      <g id="Group_39533" data-name="Group 39533" transform="matrix(0.799, -0.602, 0.602, 0.799, 213.818, 393.125)" opacity="0.272">
        <circle id="Ellipse_1999-2" data-name="Ellipse 1999" cx="14.792" cy="14.792" r="14.792" transform="translate(0)" fill="#083a35"/>
        <path id="Path_25533-2" data-name="Path 25533" d="M1.267,0A1.267,1.267,0,1,1,0,1.267,1.267,1.267,0,0,1,1.267,0Z" transform="translate(11.723 32.912) rotate(141)" fill="#083a35"/>
        <path id="Path_25534-2" data-name="Path 25534" d="M.865,0A.865.865,0,1,1,0,.865.865.865,0,0,1,.865,0Z" transform="translate(6.858 30.489) rotate(141)" fill="#083a35"/>
        <path id="Path_25535-2" data-name="Path 25535" d="M1.607,3.214A1.607,1.607,0,1,1,3.214,1.607,1.607,1.607,0,0,1,1.607,3.214Z" transform="translate(30.227 7.467)" fill="#083a35"/>
      </g>
    </g>
    <g id="asset" transform="translate(102.351 380.344)">
      <g id="Group_44909" data-name="Group 44909" transform="translate(1.25 19.878)">
        <g id="Group_44908" data-name="Group 44908" transform="translate(0 0)">
          <rect id="Rectangle_8512" data-name="Rectangle 8512" width="162.245" height="2.501" fill="#b8d1cc"/>
        </g>
      </g>
      <g id="Group_44949" data-name="Group 44949" transform="translate(146.632 21.128)">
        <g id="Group_44948" data-name="Group 44948">
          <rect id="Rectangle_8522" data-name="Rectangle 8522" width="2.501" height="90.076" fill="#b8d1cc"/>
        </g>
      </g>
      <g id="Group_44952" data-name="Group 44952" transform="translate(151.15 28.969)">
        <g id="Group_44951" data-name="Group 44951">
          <g id="Group_44950" data-name="Group 44950">
            <path id="Path_118533" data-name="Path 118533" d="M458.627,111.487a4.2,4.2,0,0,0-4.2,4.2V142.1a4.2,4.2,0,0,0,8.395,0v-26.42A4.2,4.2,0,0,0,458.627,111.487Zm1.7,30.617a1.7,1.7,0,1,1-3.393,0v-26.42a1.7,1.7,0,1,1,3.393,0Z" transform="translate(-454.43 -111.487)" fill="#b8d1cc"/>
          </g>
        </g>
      </g>
      <g id="Group_44889" data-name="Group 44889" transform="translate(68.648 52.399)">
        <g id="Group_44888" data-name="Group 44888">
          <g id="Group_44887" data-name="Group 44887">
            <path id="Path_118520" data-name="Path 118520" d="M267.111,192.348a35.581,35.581,0,1,0-25.157,60.743h0a35.584,35.584,0,0,0,25.156-60.743ZM265.343,240.9a33.079,33.079,0,1,1,0-46.784A32.85,32.85,0,0,1,265.343,240.9Z" transform="translate(-206.389 -181.928)" fill="#5e8982"/>
          </g>
        </g>
      </g>
      <g id="Group_44892" data-name="Group 44892" transform="translate(79.823 63.591)">
        <g id="Group_44891" data-name="Group 44891">
          <g id="Group_44890" data-name="Group 44890">
            <path id="Path_118521" data-name="Path 118521" d="M281.623,222.723a24.39,24.39,0,1,0,0,34.488A24.231,24.231,0,0,0,281.623,222.723Zm-1.768,32.721a21.89,21.89,0,1,1,0-30.953A21.748,21.748,0,0,1,279.855,255.444Z" transform="translate(-239.988 -215.577)" fill="#6e8782"/>
          </g>
        </g>
      </g>
      <g id="Group_44895" data-name="Group 44895" transform="translate(74.064 57.817)">
        <g id="Group_44894" data-name="Group 44894">
          <g id="Group_44893" data-name="Group 44893">
            <path id="Path_118522" data-name="Path 118522" d="M274.147,207.05a30.163,30.163,0,1,0-21.326,51.494h0a30.166,30.166,0,0,0,21.325-51.494Zm-2.019,40.639a27.308,27.308,0,1,1,0-38.615A27.128,27.128,0,0,1,272.128,247.689Z" transform="translate(-222.671 -198.217)" fill="#c1cfcd"/>
          </g>
        </g>
      </g>
      <g id="Group_44898" data-name="Group 44898" transform="translate(125.045 108.813)">
        <g id="Group_44897" data-name="Group 44897">
          <g id="Group_44896" data-name="Group 44896">
            <path id="Path_118523" data-name="Path 118523" d="M390.855,354.094A8.734,8.734,0,0,0,378.5,366.446l24.45,24.449L415.3,378.543Zm-10.584,10.584a6.234,6.234,0,0,1,8.816-8.816l22.682,22.681-8.816,8.816Z" transform="translate(-375.945 -351.536)" fill="#678882"/>
          </g>
        </g>
      </g>
      <g id="Group_44900" data-name="Group 44900" transform="translate(130.463 114.231)">
        <g id="Group_44899" data-name="Group 44899">
          <path id="Path_118524" data-name="Path 118524" d="M397.9,368.8a3.317,3.317,0,0,0-4.691,4.69l20.618,20.618,4.691-4.69Z" transform="translate(-392.234 -367.825)" fill="#bdd0cd"/>
        </g>
      </g>
      <g id="Group_44903" data-name="Group 44903" transform="translate(150.285 134.052)">
        <g id="Group_44902" data-name="Group 44902">
          <g id="Group_44901" data-name="Group 44901">
            <path id="Path_118525" data-name="Path 118525" d="M470.483,433.725l-6.3-6.308L451.83,439.769l6.3,6.307a4.648,4.648,0,0,0,6.573,0l5.779-5.779a4.648,4.648,0,0,0,0-6.572Zm-1.769,4.8-5.779,5.779a2.2,2.2,0,0,1-3.036,0l-4.534-4.539,8.815-8.816,4.534,4.539a2.149,2.149,0,0,1,0,3.037Z" transform="translate(-451.83 -427.417)" fill="#6e8782"/>
          </g>
        </g>
      </g>
      <g id="Group_44905" data-name="Group 44905" transform="translate(157.946 141.714)">
        <g id="Group_44904" data-name="Group 44904">
          <path id="Path_118526" data-name="Path 118526" d="M479.554,450.453l-4.691,4.69,1.925,1.932,4.691-4.691Z" transform="translate(-474.863 -450.453)" fill="#bdd0cd"/>
        </g>
      </g>
      <g id="Group_44907" data-name="Group 44907" transform="translate(0 0)">
        <g id="Group_44906" data-name="Group 44906">
          <path id="Path_118527" data-name="Path 118527" d="M150.725,24.391H13.163A13.178,13.178,0,0,0,0,37.554V151.4a13.178,13.178,0,0,0,13.163,13.163H134.9v-2.5H13.163A10.675,10.675,0,0,1,2.5,151.4V37.554A10.675,10.675,0,0,1,13.163,26.892H150.724a10.674,10.674,0,0,1,10.662,10.662V151.87h2.5V37.554A13.177,13.177,0,0,0,150.725,24.391Z" transform="translate(0 -24.391)" fill="#fff"/>
        </g>
      </g>
      <g id="Group_44911" data-name="Group 44911" transform="translate(12.246 6.611)">
        <g id="Group_44910" data-name="Group 44910" transform="translate(0 0)">
          <ellipse id="Ellipse_2458" data-name="Ellipse 2458" cx="4.733" cy="4.733" rx="4.733" ry="4.733" fill="#5e8982"/>
        </g>
      </g>
      <g id="Group_44913" data-name="Group 44913" transform="translate(26.155 6.611)">
        <g id="Group_44912" data-name="Group 44912" transform="translate(0 0)">
          <ellipse id="Ellipse_2459" data-name="Ellipse 2459" cx="4.733" cy="4.733" rx="4.733" ry="4.733" fill="#5e8982"/>
        </g>
      </g>
      <g id="Group_44915" data-name="Group 44915" transform="translate(40.064 6.611)">
        <g id="Group_44914" data-name="Group 44914" transform="translate(0 0)">
          <ellipse id="Ellipse_2460" data-name="Ellipse 2460" cx="4.733" cy="4.733" rx="4.733" ry="4.733" fill="#5e8982"/>
        </g>
      </g>
      <g id="Group_44918" data-name="Group 44918" transform="translate(20.462 39.004)">
        <g id="Group_44917" data-name="Group 44917">
          <g id="Group_44916" data-name="Group 44916">
            <path id="Path_118528" data-name="Path 118528" d="M61.519,141.655v16.41h16.41v-16.41Zm13.909,13.909H64.02V144.156H75.428Z" transform="translate(-61.519 -141.655)" fill="#5e8982"/>
          </g>
        </g>
      </g>
      <g id="Group_44920" data-name="Group 44920" transform="translate(25.88 44.422)">
        <g id="Group_44919" data-name="Group 44919">
          <rect id="Rectangle_8513" data-name="Rectangle 8513" width="5.574" height="5.574" fill="#b8d1cd"/>
        </g>
      </g>
      <g id="Group_44923" data-name="Group 44923" transform="translate(20.462 69.608)">
        <g id="Group_44922" data-name="Group 44922">
          <g id="Group_44921" data-name="Group 44921">
            <path id="Path_118529" data-name="Path 118529" d="M61.519,233.667v16.41h16.41v-16.41Zm13.909,13.909H64.02V236.168H75.428Z" transform="translate(-61.519 -233.667)" fill="#5e8982"/>
          </g>
        </g>
      </g>
      <g id="Group_44925" data-name="Group 44925" transform="translate(25.88 75.026)">
        <g id="Group_44924" data-name="Group 44924">
          <rect id="Rectangle_8514" data-name="Rectangle 8514" width="5.574" height="5.574" fill="#b8d1cd"/>
        </g>
      </g>
      <g id="Group_44928" data-name="Group 44928" transform="translate(20.462 100.213)">
        <g id="Group_44927" data-name="Group 44927">
          <g id="Group_44926" data-name="Group 44926">
            <path id="Path_118530" data-name="Path 118530" d="M61.519,325.679v16.41h16.41v-16.41Zm13.909,13.909H64.02V328.18H75.428Z" transform="translate(-61.519 -325.679)" fill="#5e8982"/>
          </g>
        </g>
      </g>
      <g id="Group_44930" data-name="Group 44930" transform="translate(25.88 105.63)">
        <g id="Group_44929" data-name="Group 44929">
          <rect id="Rectangle_8515" data-name="Rectangle 8515" width="5.574" height="5.574" fill="#b8d1cd"/>
        </g>
      </g>
      <g id="Group_44932" data-name="Group 44932" transform="translate(49.53 42.337)">
        <g id="Group_44931" data-name="Group 44931">
          <rect id="Rectangle_8516" data-name="Rectangle 8516" width="90.921" height="2.501" fill="#bdd0cd"/>
        </g>
      </g>
      <g id="Group_44934" data-name="Group 44934" transform="translate(49.53 49.579)">
        <g id="Group_44933" data-name="Group 44933">
          <rect id="Rectangle_8517" data-name="Rectangle 8517" width="37.093" height="2.501" fill="#bdd0cd"/>
        </g>
      </g>
      <g id="Group_44936" data-name="Group 44936" transform="translate(49.53 72.941)">
        <g id="Group_44935" data-name="Group 44935">
          <rect id="Rectangle_8518" data-name="Rectangle 8518" width="12.276" height="2.501" fill="#bdd0cd"/>
        </g>
      </g>
      <g id="Group_44938" data-name="Group 44938" transform="translate(49.53 80.184)">
        <g id="Group_44937" data-name="Group 44937">
          <rect id="Rectangle_8519" data-name="Rectangle 8519" width="12.276" height="2.501" fill="#bdd0cd"/>
        </g>
      </g>
      <g id="Group_44940" data-name="Group 44940" transform="translate(49.53 103.546)">
        <g id="Group_44939" data-name="Group 44939">
          <rect id="Rectangle_8520" data-name="Rectangle 8520" width="16.207" height="2.501" fill="#bdd0cd"/>
        </g>
      </g>
      <g id="Group_44942" data-name="Group 44942" transform="translate(49.53 110.788)">
        <g id="Group_44941" data-name="Group 44941">
          <rect id="Rectangle_8521" data-name="Rectangle 8521" width="20.351" height="2.501" fill="#bdd0cd"/>
        </g>
      </g>
      <g id="Group_44945" data-name="Group 44945" transform="translate(79.82 76.18)">
        <g id="Group_44944" data-name="Group 44944">
          <g id="Group_44943" data-name="Group 44943">
            <path id="Path_118531" data-name="Path 118531" d="M286.078,254.106l-.349-.68H243.02l-.349.679a24.311,24.311,0,0,0,.263,22.74l.356.653H285.45l.356-.653A24.331,24.331,0,0,0,286.078,254.106ZM283.95,275H244.79a21.809,21.809,0,0,1-.23-19.07h39.628A21.829,21.829,0,0,1,283.95,275Z" transform="translate(-239.977 -253.426)" fill="#6e8782"/>
          </g>
        </g>
      </g>
      <g id="Group_44947" data-name="Group 44947" transform="translate(85.238 81.598)">
        <g id="Group_44946" data-name="Group 44946" transform="translate(0 0)">
          <path id="Path_118532" data-name="Path 118532" d="M293.111,269.714H257.377a18.887,18.887,0,0,0,.178,13.236h35.373A18.913,18.913,0,0,0,293.111,269.714Z" transform="translate(-256.267 -269.714)" fill="#bdd0cd"/>
        </g>
      </g>
    </g>
  </g>
</svg>
