<svg xmlns="http://www.w3.org/2000/svg" width="123.352" height="10.227" viewBox="0 0 123.352 10.227">
  <path id="logo" d="M5-2.611a1.247,1.247,0,0,0-.311-.919,3.581,3.581,0,0,0-1.131-.646,5.272,5.272,0,0,1-2.153-1.33,2.672,2.672,0,0,1-.656-1.8,2.525,2.525,0,0,1,.892-2.02A3.366,3.366,0,0,1,3.91-10.09,3.393,3.393,0,0,1,5.544-9.7a2.679,2.679,0,0,1,1.1,1.09,3.271,3.271,0,0,1,.386,1.6h-2a1.651,1.651,0,0,0-.3-1.063,1.042,1.042,0,0,0-.858-.366,1.074,1.074,0,0,0-.82.311,1.169,1.169,0,0,0-.294.837,1.031,1.031,0,0,0,.328.742,3.773,3.773,0,0,0,1.162.687A4.979,4.979,0,0,1,6.368-4.573a2.878,2.878,0,0,1,.66,1.948A2.569,2.569,0,0,1,6.2-.595,3.274,3.274,0,0,1,3.951.137a3.873,3.873,0,0,1-1.757-.4A2.974,2.974,0,0,1,.954-1.395,3.3,3.3,0,0,1,.506-3.138H2.522a1.9,1.9,0,0,0,.335,1.251,1.371,1.371,0,0,0,1.094.39Q5-1.5,5-2.611ZM10.51-3.5V0H8.5V-9.953h3.391a3.111,3.111,0,0,1,2.355.916,3.294,3.294,0,0,1,.878,2.379,3.081,3.081,0,0,1-.868,2.311A3.3,3.3,0,0,1,11.85-3.5Zm0-1.675h1.381a1.094,1.094,0,0,0,.889-.376,1.665,1.665,0,0,0,.314-1.094,1.973,1.973,0,0,0-.321-1.186,1.03,1.03,0,0,0-.861-.448h-1.4Zm11.235.868H18.614v2.639h3.705V0H16.6V-9.953h5.7v1.675H18.614v2.352h3.131Zm8.617.991A3.722,3.722,0,0,1,29.4-.738a3.38,3.38,0,0,1-2.488.875A3.135,3.135,0,0,1,24.329-.974a4.923,4.923,0,0,1-.9-3.168V-5.817a4.8,4.8,0,0,1,.93-3.162,3.186,3.186,0,0,1,2.584-1.111,3.208,3.208,0,0,1,2.471.909,4.134,4.134,0,0,1,.96,2.611H28.358a2.681,2.681,0,0,0-.325-1.453,1.281,1.281,0,0,0-1.09-.4,1.219,1.219,0,0,0-1.142.564A3.944,3.944,0,0,0,25.446-6v1.88a4.338,4.338,0,0,0,.332,2.037,1.218,1.218,0,0,0,1.138.554,1.316,1.316,0,0,0,1.094-.386,2.544,2.544,0,0,0,.342-1.4Zm7.625-4.963H35.526V0H33.509V-8.278h-2.42V-9.953h6.9Zm6.436,3.972H41.292v2.639H45V0H39.282V-9.953h5.7v1.675H41.292v2.352h3.131Zm4.884.67h-1V0H46.3V-9.953h3.206a3.256,3.256,0,0,1,2.334.783,2.923,2.923,0,0,1,.824,2.225A2.9,2.9,0,0,1,51.221-4.17L52.964-.1V0H50.8Zm-1-1.675H49.45a1.057,1.057,0,0,0,.9-.4,1.738,1.738,0,0,0,.3-1.07q0-1.5-1.169-1.5H48.309Zm13.446,2.7a1.247,1.247,0,0,0-.311-.919,3.581,3.581,0,0,0-1.131-.646,5.272,5.272,0,0,1-2.153-1.33,2.672,2.672,0,0,1-.656-1.8,2.525,2.525,0,0,1,.892-2.02,3.366,3.366,0,0,1,2.266-.762,3.393,3.393,0,0,1,1.634.386,2.679,2.679,0,0,1,1.1,1.09,3.271,3.271,0,0,1,.386,1.6h-2a1.651,1.651,0,0,0-.3-1.063,1.042,1.042,0,0,0-.858-.366,1.074,1.074,0,0,0-.82.311,1.169,1.169,0,0,0-.294.837,1.031,1.031,0,0,0,.328.742A3.773,3.773,0,0,0,61-5.865a4.979,4.979,0,0,1,2.116,1.292,2.878,2.878,0,0,1,.66,1.948,2.569,2.569,0,0,1-.827,2.03A3.274,3.274,0,0,1,60.7.137a3.873,3.873,0,0,1-1.757-.4A2.974,2.974,0,0,1,57.7-1.395a3.3,3.3,0,0,1-.448-1.743h2.017a1.9,1.9,0,0,0,.335,1.251A1.371,1.371,0,0,0,60.7-1.5Q61.755-1.5,61.755-2.611Zm10.5-1.47a4.643,4.643,0,0,1-.947,3.11A3.273,3.273,0,0,1,68.683.137a3.31,3.31,0,0,1-2.632-1.1,4.575,4.575,0,0,1-.971-3.073v-1.7a4.893,4.893,0,0,1,.95-3.2,3.233,3.233,0,0,1,2.639-1.152,3.248,3.248,0,0,1,2.618,1.131,4.826,4.826,0,0,1,.971,3.175ZM70.241-5.749a4.087,4.087,0,0,0-.383-2,1.281,1.281,0,0,0-1.189-.656,1.286,1.286,0,0,0-1.183.632,3.884,3.884,0,0,0-.4,1.924v1.771a3.7,3.7,0,0,0,.39,1.924,1.322,1.322,0,0,0,1.2.619,1.288,1.288,0,0,0,1.169-.6,3.63,3.63,0,0,0,.39-1.876ZM75.85-1.668h3.527V0H73.84V-9.953h2.01ZM86.989-9.953v6.891a3.219,3.219,0,0,1-.854,2.375,3.306,3.306,0,0,1-2.413.824A3.334,3.334,0,0,1,81.278-.7a3.244,3.244,0,0,1-.844-2.413V-9.953h2.023V-3.1a2.051,2.051,0,0,0,.273,1.21,1.172,1.172,0,0,0,.991.362,1.157,1.157,0,0,0,.984-.359,2.044,2.044,0,0,0,.273-1.179V-9.953ZM95.1-8.278H92.639V0H90.622V-8.278H88.2V-9.953h6.9ZM98.494,0h-2.01V-9.953h2.01Zm8.835-4.081a4.643,4.643,0,0,1-.947,3.11A3.273,3.273,0,0,1,103.754.137a3.31,3.31,0,0,1-2.632-1.1,4.575,4.575,0,0,1-.971-3.073v-1.7a4.893,4.893,0,0,1,.95-3.2,3.233,3.233,0,0,1,2.639-1.152,3.248,3.248,0,0,1,2.618,1.131,4.826,4.826,0,0,1,.971,3.175Zm-2.017-1.668a4.087,4.087,0,0,0-.383-2,1.281,1.281,0,0,0-1.189-.656,1.286,1.286,0,0,0-1.183.632,3.884,3.884,0,0,0-.4,1.924v1.771a3.7,3.7,0,0,0,.39,1.924,1.322,1.322,0,0,0,1.2.619,1.288,1.288,0,0,0,1.169-.6,3.63,3.63,0,0,0,.39-1.876ZM115.871,0h-2.01l-2.939-6.528V0h-2.01V-9.953h2.01l2.946,6.535V-9.953h2Zm5.957-2.611a1.247,1.247,0,0,0-.311-.919,3.581,3.581,0,0,0-1.131-.646,5.272,5.272,0,0,1-2.153-1.33,2.672,2.672,0,0,1-.656-1.8,2.525,2.525,0,0,1,.892-2.02,3.366,3.366,0,0,1,2.266-.762,3.393,3.393,0,0,1,1.634.386,2.679,2.679,0,0,1,1.1,1.09,3.271,3.271,0,0,1,.386,1.6h-2a1.651,1.651,0,0,0-.3-1.063,1.042,1.042,0,0,0-.858-.366,1.074,1.074,0,0,0-.82.311,1.169,1.169,0,0,0-.294.837,1.031,1.031,0,0,0,.328.742,3.773,3.773,0,0,0,1.162.687,4.979,4.979,0,0,1,2.116,1.292,2.878,2.878,0,0,1,.66,1.948,2.569,2.569,0,0,1-.827,2.03,3.274,3.274,0,0,1-2.249.731,3.873,3.873,0,0,1-1.757-.4,2.974,2.974,0,0,1-1.241-1.135,3.3,3.3,0,0,1-.448-1.743h2.017a1.9,1.9,0,0,0,.335,1.251,1.371,1.371,0,0,0,1.094.39Q121.828-1.5,121.828-2.611Z" transform="translate(-0.506 10.09)" fill="#24312e"/>
</svg>
