<svg width="128" height="132" viewBox="0 0 128 132" fill="none" xmlns="http://www.w3.org/2000/svg">
<path opacity="0.4" d="M124.867 35.009C124.738 34.977 124.627 34.897 124.555 34.7854C124.483 34.6738 124.457 34.5389 124.481 34.4083C124.505 34.2777 124.577 34.1612 124.684 34.0825C124.791 34.0038 124.923 33.9689 125.055 33.9848C125.186 34.0008 125.307 34.0664 125.392 34.1683C125.476 34.2703 125.519 34.4008 125.512 34.5334C125.504 34.6659 125.446 34.7905 125.35 34.8818C125.253 34.973 125.126 35.024 124.994 35.0244C124.951 35.0245 124.908 35.0194 124.867 35.009ZM126.473 33.102C126.473 32.9505 126.517 32.8023 126.601 32.6764C126.685 32.5504 126.805 32.4522 126.944 32.3942C127.084 32.3362 127.237 32.321 127.386 32.3506C127.534 32.3802 127.67 32.4531 127.777 32.5603C127.884 32.6674 127.956 32.8039 127.986 32.9525C128.015 33.1011 128 33.2552 127.942 33.3952C127.885 33.5351 127.787 33.6548 127.661 33.739C127.535 33.8232 127.388 33.8681 127.237 33.8681C127.034 33.8681 126.84 33.7874 126.696 33.6437C126.553 33.5 126.473 33.3052 126.473 33.102ZM124.246 15.9715C124.246 15.7793 124.303 15.5914 124.409 15.4317C124.516 15.2719 124.667 15.1474 124.844 15.0739C125.021 15.0004 125.216 14.9812 125.404 15.0187C125.592 15.0563 125.765 15.1489 125.9 15.2849C126.036 15.4209 126.128 15.5941 126.165 15.7826C126.203 15.9711 126.183 16.1665 126.11 16.344C126.036 16.5215 125.912 16.6731 125.752 16.7798C125.593 16.8864 125.406 16.9432 125.214 16.943C125.087 16.943 124.961 16.9178 124.843 16.869C124.726 16.8202 124.619 16.7486 124.529 16.6584C124.439 16.5682 124.368 16.461 124.319 16.3432C124.271 16.2253 124.246 16.099 124.246 15.9715Z" fill="url(#paint0_linear_1644_6286)"/>
<path opacity="0.4" d="M119.086 33.8683C124.009 33.8683 128 29.8664 128 24.9298C128 19.9931 124.009 15.9912 119.086 15.9912C114.163 15.9912 110.172 19.9931 110.172 24.9298C110.172 29.8664 114.163 33.8683 119.086 33.8683Z" fill="url(#paint1_linear_1644_6286)"/>
<path opacity="0.4" d="M24.0896 126.572C37.3939 126.572 48.1792 115.757 48.1792 102.417C48.1792 89.0757 37.3939 78.2607 24.0896 78.2607C10.7853 78.2607 0 89.0757 0 102.417C0 115.757 10.7853 126.572 24.0896 126.572Z" fill="url(#paint2_linear_1644_6286)"/>
<path opacity="0.4" d="M17.434 129.931C17.434 129.522 17.5551 129.122 17.7818 128.781C18.0086 128.441 18.3309 128.176 18.708 128.019C19.085 127.863 19.5 127.822 19.9003 127.901C20.3006 127.981 20.6683 128.178 20.9569 128.468C21.2455 128.757 21.442 129.126 21.5216 129.527C21.6013 129.929 21.5604 130.345 21.4042 130.723C21.248 131.101 20.9835 131.424 20.6442 131.652C20.3048 131.879 19.9058 132 19.4977 132C18.9504 132 18.4255 131.782 18.0385 131.394C17.6515 131.006 17.434 130.48 17.434 129.931ZM24.6521 130.034C24.6521 129.754 24.7348 129.481 24.8897 129.248C25.0446 129.016 25.2647 128.835 25.5223 128.728C25.7798 128.621 26.0632 128.593 26.3366 128.648C26.61 128.702 26.8611 128.837 27.0582 129.035C27.2552 129.233 27.3893 129.484 27.4436 129.759C27.4978 130.033 27.4698 130.317 27.363 130.575C27.2562 130.833 27.0754 131.054 26.8435 131.209C26.6116 131.364 26.3391 131.447 26.0603 131.447C25.6866 131.447 25.3281 131.298 25.0638 131.033C24.7996 130.768 24.6521 130.408 24.6521 130.034ZM5.73438 78.8455C5.73458 78.3264 5.88827 77.819 6.17603 77.3875C6.46379 76.956 6.87269 76.6197 7.35102 76.4212C7.82936 76.2227 8.35565 76.1708 8.86337 76.2722C9.37108 76.3736 9.83741 76.6237 10.2034 76.9909C10.5694 77.358 10.8186 77.8257 10.9195 78.3348C11.0204 78.844 10.9685 79.3717 10.7704 79.8513C10.5722 80.3309 10.2367 80.7408 9.80625 81.0291C9.3758 81.3175 8.86974 81.4714 8.35205 81.4714C8.00821 81.4714 7.66773 81.4035 7.35008 81.2715C7.03242 81.1395 6.7438 80.9461 6.50071 80.7023C6.25763 80.4584 6.06483 80.1689 5.93334 79.8503C5.80185 79.5318 5.73424 79.1903 5.73438 78.8455Z" fill="url(#paint3_linear_1644_6286)"/>
<path d="M34.5781 24.515L34.5781 115.972C34.5781 118.808 36.8707 121.106 39.6988 121.106H110.589C113.417 121.106 115.71 118.808 115.71 115.972V24.515C115.71 21.6791 113.417 19.3802 110.589 19.3802H39.6988C36.8707 19.3802 34.5781 21.6791 34.5781 24.515Z" fill="#F6F2ED"/>
<path d="M35.3477 24.5147L35.3477 115.971C35.3477 118.382 37.2964 120.336 39.7002 120.336H110.591C112.994 120.336 114.943 118.382 114.943 115.971V24.5147C114.943 22.1042 112.994 20.1501 110.591 20.1501H39.7002C37.2964 20.1501 35.3477 22.1042 35.3477 24.5147Z" stroke="#272421" stroke-width="1.5"/>
<path d="M55.5703 72.686H51.867V74.4082H50.9453V69.7715H51.867V71.4937H55.5703V72.686Z" fill="#F6F2ED"/>
<path d="M51.4338 68.7697C51.0712 68.6177 50.892 68.4246 50.892 67.8557C50.8635 67.6649 50.9019 67.47 51.0007 67.3045C51.0995 67.1389 51.2526 67.0129 51.4338 66.9479L55.5702 65.2124V66.4652L54.5144 66.8822V68.8334L55.5713 69.2534V70.498L51.4338 68.7697ZM53.6141 68.5468V67.1718L52.1476 67.7623C52.0759 67.79 52.0022 67.8085 52.0022 67.8557C52.0022 67.903 52.0739 67.9276 52.1476 67.9584L53.6141 68.5468Z" fill="#F6F2ED"/>
<path d="M55.5709 64.9798H51.6628C51.5669 64.9937 51.4692 64.9853 51.3771 64.9553C51.285 64.9252 51.201 64.8743 51.1317 64.8065C51.0624 64.7387 51.0096 64.6558 50.9773 64.5642C50.9451 64.4726 50.9344 64.3748 50.9459 64.2784V61.8137C50.9459 60.7868 51.587 60.5608 52.5118 60.5608C53.4366 60.5608 54.091 60.7868 54.091 61.8137V63.7875H55.5719V64.9798H55.5709ZM53.1652 62.4288C53.1652 61.9318 52.9727 61.7798 52.5108 61.7798C52.0489 61.7798 51.8676 61.9328 51.8676 62.4288V63.4753C51.8676 63.7074 51.9475 63.7834 52.1749 63.7834H53.1601L53.1652 62.4288Z" fill="#F6F2ED"/>
<path d="M55.0666 59.7995V57.2096C55.0666 56.8583 54.8218 56.7187 54.4193 56.7187C54.1745 56.7187 53.9298 56.7711 53.7782 57.2321L53.1699 59.0704C53.1122 59.3215 52.9633 59.5421 52.7521 59.6891C52.541 59.8361 52.2828 59.8989 52.028 59.8652C51.8836 59.8861 51.7365 59.8735 51.5978 59.8284C51.4591 59.7833 51.3325 59.707 51.2278 59.6053C51.1231 59.5036 51.043 59.3791 50.9937 59.2416C50.9444 59.104 50.9272 58.9569 50.9434 58.8116V56.2997H51.4442V58.6986C51.4442 59.0498 51.6091 59.2224 52.0392 59.2224C52.1805 59.2445 52.3248 59.2116 52.4427 59.1304C52.5605 59.0493 52.643 58.926 52.6732 58.7859L53.2538 57.0401C53.4587 56.4239 53.6891 56.0799 54.4162 56.0799C55.044 56.0799 55.5663 56.3254 55.5663 57.0401V59.7995H55.0666Z" fill="#F6F2ED"/>
<path d="M55.5703 55.3799H50.9453V54.7637H55.5703V55.3799Z" fill="#F6F2ED"/>
<path d="M54.9672 49.8954C55.3963 49.8954 55.5673 50.108 55.5673 50.5054V52.1896C55.5673 53.6941 54.5432 54.0381 53.2548 54.0381C51.9665 54.0381 50.9434 53.693 50.9434 52.1033V50.0032H51.4442V51.8969C51.4442 53.0563 52.0003 53.3932 53.2558 53.3932C54.5114 53.3932 55.0665 53.0563 55.0665 51.9842V50.8155C55.0665 50.5834 54.9866 50.5074 54.7593 50.5074H53.3736V49.8913L54.9672 49.8954Z" fill="#F6F2ED"/>
<path d="M55.0425 44.9848C55.119 44.9752 55.1965 44.9828 55.2696 45.0071C55.3427 45.0314 55.4095 45.0717 55.4651 45.1251C55.5207 45.1785 55.5638 45.2437 55.5911 45.3158C55.6185 45.388 55.6294 45.4654 55.6232 45.5424C55.6286 45.6685 55.597 45.7935 55.5324 45.9019C55.4678 46.0103 55.373 46.0974 55.2597 46.1524L51.7725 48.3388C51.6926 48.385 51.6598 48.424 51.6598 48.4712C51.6598 48.4979 51.6865 48.5647 51.7919 48.5647H55.571V49.1665H51.4417C51.3666 49.1722 51.2911 49.1613 51.2207 49.1345C51.1503 49.1076 51.0867 49.0655 51.0343 49.0112C50.982 48.9569 50.9423 48.8916 50.918 48.8201C50.8937 48.7486 50.8854 48.6726 50.8938 48.5975C50.8868 48.4763 50.9148 48.3555 50.9744 48.2498C51.0339 48.144 51.1226 48.0576 51.2297 48.0009L54.7445 45.796C54.7967 45.7632 54.8572 45.7354 54.8572 45.6697C54.8572 45.604 54.7855 45.5896 54.7445 45.5896H50.944V44.9868H55.0405L55.0425 44.9848Z" fill="#F6F2ED"/>
<path d="M55.5694 43.4758C55.5812 43.5645 55.5724 43.6547 55.5436 43.7394C55.5148 43.824 55.4668 43.9009 55.4033 43.9638C55.3399 44.0267 55.2628 44.074 55.178 44.1019C55.0933 44.1299 55.0032 44.1377 54.9149 44.1248H51.5978C51.1031 44.1248 50.9434 43.8794 50.9434 43.4758V40.6076H51.4442V43.2006C51.4442 43.4594 51.524 43.5087 51.7514 43.5087H52.9507V40.6743H53.4515V43.5087H54.746C54.9774 43.5087 55.0624 43.4625 55.0624 43.2006V40.5829H55.5642V43.4758H55.5694Z" fill="#F6F2ED"/>
<path d="M51.6467 39.917C51.1521 39.917 50.9473 39.6716 50.9473 39.2351V37.0878C50.9473 36.2323 51.489 35.9581 52.3483 35.9581C53.2342 35.9581 53.821 36.2097 53.821 37.0118V37.7604H53.8537L55.5722 35.8626V36.6842L53.9469 38.4598C53.9121 38.5063 53.8683 38.5455 53.8182 38.575C53.7681 38.6044 53.7126 38.6235 53.6551 38.6313H53.5527C53.4144 38.6313 53.3212 38.5286 53.3212 38.353V37.2233C53.3212 36.6605 52.9115 36.6071 52.3493 36.6071C51.7871 36.6071 51.4511 36.7006 51.4511 37.326V38.9701C51.4501 39.1827 51.5167 39.3008 51.7666 39.3008H55.5733V39.917H51.6467Z" fill="#F6F2ED"/>
<path d="M42.4688 31.6588L42.4688 108.833C42.4688 111.243 44.4175 113.197 46.8213 113.197H104.033C106.437 113.197 108.386 111.243 108.386 108.833V31.6588C108.386 29.2483 106.437 27.2942 104.033 27.2942H46.8213C44.4175 27.2942 42.4688 29.2483 42.4688 31.6588Z" stroke="#272421" stroke-width="1.5" stroke-dasharray="1.5 2"/>
<path d="M102.412 33.2891H50.1811C49.0499 33.2891 48.1328 34.2086 48.1328 35.343V105.175C48.1328 106.31 49.0499 107.229 50.1811 107.229H102.412C103.543 107.229 104.46 106.31 104.46 105.175V35.343C104.46 34.2086 103.543 33.2891 102.412 33.2891Z" fill="#272421"/>
<path d="M94.1367 43.6152H58.3966C56.6998 43.6152 55.3242 44.9946 55.3242 46.6961V93.0072C55.3242 94.7087 56.6998 96.0881 58.3966 96.0881H94.1367C95.8336 96.0881 97.2091 94.7087 97.2091 93.0072V46.6961C97.2091 44.9946 95.8336 43.6152 94.1367 43.6152Z" fill="#F6F2ED"/>
<path d="M58.7109 39.543H79.6534" stroke="#F6F2ED" stroke-width="4" stroke-linecap="round"/>
<rect x="24.75" y="0.75" width="32.1559" height="32.1558" rx="16.0779" fill="url(#paint4_linear_1644_6286)"/>
<rect x="24.75" y="0.75" width="32.1559" height="32.1558" rx="16.0779" stroke="#F9F4F0" stroke-width="1.5"/>
<path d="M45.9613 12L38.3384 19.323L34.8377 15.7232L33 17.4202L37.3873 21.9331C37.503 22.0522 37.642 22.1476 37.7961 22.2137C37.9501 22.2798 38.1161 22.3154 38.2844 22.3182H38.3055C38.6379 22.318 38.9568 22.1903 39.1933 21.9628L47.7403 13.7565L45.9613 12Z" fill="#F6F2ED"/>
<defs>
<linearGradient id="paint0_linear_1644_6286" x1="126.123" y1="15" x2="126.123" y2="35.0244" gradientUnits="userSpaceOnUse">
<stop stop-color="#58A4A4"/>
<stop offset="1" stop-color="#073E39"/>
</linearGradient>
<linearGradient id="paint1_linear_1644_6286" x1="119.086" y1="15.9912" x2="119.086" y2="33.8683" gradientUnits="userSpaceOnUse">
<stop stop-color="#58A4A4"/>
<stop offset="1" stop-color="#073E39"/>
</linearGradient>
<linearGradient id="paint2_linear_1644_6286" x1="24.0896" y1="78.2607" x2="24.0896" y2="126.572" gradientUnits="userSpaceOnUse">
<stop stop-color="#58A4A4"/>
<stop offset="1" stop-color="#073E39"/>
</linearGradient>
<linearGradient id="paint3_linear_1644_6286" x1="16.6025" y1="76.2217" x2="16.6025" y2="132" gradientUnits="userSpaceOnUse">
<stop stop-color="#58A4A4"/>
<stop offset="1" stop-color="#073E39"/>
</linearGradient>
<linearGradient id="paint4_linear_1644_6286" x1="40.8279" y1="0" x2="40.8279" y2="33.6558" gradientUnits="userSpaceOnUse">
<stop stop-color="#58A4A4"/>
<stop offset="1" stop-color="#073E39"/>
</linearGradient>
</defs>
</svg>
