<svg width="124" height="11" viewBox="0 0 124 11" fill="none" xmlns="http://www.w3.org/2000/svg">
<path d="M4.49988 7.47912C4.51208 7.31293 4.49084 7.14598 4.43742 6.98814C4.384 6.83029 4.29949 6.68475 4.18888 6.56012C3.85454 6.27746 3.4712 6.05851 3.05788 5.91412C2.24288 5.65217 1.50392 5.19568 0.904881 4.58412C0.471238 4.08584 0.237537 3.44458 0.248881 2.78412C0.234837 2.40185 0.307834 2.02138 0.462359 1.67144C0.616884 1.32151 0.848898 1.01126 1.14088 0.764123C1.77802 0.23999 2.58548 -0.0318889 3.40988 0.000122921C3.97863 -0.00889792 4.54052 0.125213 5.04388 0.390123C5.50985 0.637249 5.89251 1.01643 6.14388 1.48012C6.40682 1.97184 6.53969 2.52261 6.52988 3.08012H4.52988C4.55489 2.70186 4.44896 2.32651 4.22988 2.01712C4.12514 1.89365 3.99306 1.79628 3.84412 1.73275C3.69519 1.66922 3.5335 1.64127 3.37188 1.65112C3.22101 1.64235 3.06999 1.66552 2.92869 1.71911C2.78739 1.7727 2.65899 1.85551 2.55188 1.96212C2.34771 2.19166 2.2421 2.49233 2.25788 2.79912C2.25953 2.93856 2.28945 3.0762 2.34583 3.20374C2.40221 3.33128 2.48387 3.44605 2.58588 3.54112C2.92877 3.83811 3.3224 4.07084 3.74788 4.22812C4.552 4.47201 5.28131 4.91545 5.86788 5.51712C6.32032 6.06299 6.55534 6.75666 6.52788 7.46512C6.54817 7.84362 6.48445 8.22192 6.3413 8.57288C6.19815 8.92385 5.9791 9.23879 5.69988 9.49512C5.06761 10.0108 4.26557 10.2719 3.45088 10.2271C2.84191 10.2338 2.23995 10.0967 1.69388 9.82712C1.1804 9.57672 0.749911 9.18372 0.453881 8.69512C0.145948 8.16685 -0.00915365 7.56341 0.00588072 6.95212H2.02188C1.9836 7.39549 2.10216 7.83822 2.35688 8.20312C2.49958 8.34424 2.67151 8.4523 2.86054 8.51969C3.04958 8.58708 3.2511 8.61215 3.45088 8.59312C4.15021 8.59112 4.49988 8.21979 4.49988 7.47912ZM10.0099 6.59012V10.0901H7.99988V0.137123H11.3909C11.8257 0.116564 12.2599 0.187469 12.6656 0.345254C13.0712 0.503038 13.4393 0.744191 13.7459 1.05312C14.0421 1.37199 14.2723 1.74641 14.423 2.15475C14.5737 2.56308 14.642 2.99724 14.6239 3.43212C14.6463 3.85636 14.5808 4.28066 14.4315 4.67836C14.2821 5.07606 14.0521 5.43857 13.7559 5.74312C13.4311 6.03689 13.0511 6.26307 12.638 6.40848C12.2249 6.5539 11.7871 6.61565 11.3499 6.59012H10.0099ZM10.0099 4.91512H11.3909C11.558 4.92461 11.725 4.89565 11.8791 4.83047C12.0332 4.76528 12.1703 4.66561 12.2799 4.53912C12.5098 4.22266 12.621 3.83535 12.5939 3.44512C12.6158 3.0257 12.5034 2.61021 12.2729 2.25912C12.1772 2.11944 12.0486 2.00549 11.8985 1.92735C11.7483 1.84921 11.5812 1.80929 11.4119 1.81112H10.0119L10.0099 4.91512ZM21.2449 5.78312H18.1139V8.42212H21.8189V10.0901H16.0999V0.137123H21.7999V1.81212H18.1139V4.16412H21.2449V5.78312ZM29.8619 6.77412C29.8823 7.72479 29.5381 8.64722 28.8999 9.35212C28.565 9.65728 28.1722 9.89199 27.7447 10.0423C27.3173 10.1926 26.8641 10.2555 26.4119 10.2271C25.9246 10.2558 25.4373 10.1703 24.9888 9.97745C24.5404 9.78457 24.1432 9.48963 23.8289 9.11612C23.1741 8.19476 22.8563 7.07613 22.9289 5.94812V4.27312C22.856 3.14239 23.1854 2.02232 23.8589 1.11112C24.1758 0.740534 24.5736 0.447649 25.0216 0.255031C25.4696 0.0624142 25.9559 -0.0247947 26.4429 0.000122921C26.8956 -0.03178 27.35 0.0327476 27.7759 0.189443C28.2019 0.346137 28.5897 0.591433 28.9139 0.909123C29.5259 1.64242 29.8651 2.56502 29.8739 3.52012H27.8579C27.8889 3.01482 27.7762 2.51106 27.5329 2.06712C27.3955 1.91932 27.2252 1.80605 27.0358 1.73654C26.8464 1.66703 26.6432 1.64324 26.4429 1.66712C26.219 1.6467 25.9939 1.68858 25.7924 1.78811C25.5908 1.88764 25.4207 2.04096 25.3009 2.23112C25.0334 2.81279 24.9116 3.45083 24.9459 4.09012V5.97012C24.8911 6.66594 25.0049 7.36472 25.2779 8.00712C25.3986 8.19487 25.5686 8.34585 25.7693 8.44355C25.97 8.54125 26.1936 8.58192 26.4159 8.56112C26.6156 8.58465 26.8181 8.56209 27.0077 8.49518C27.1974 8.42826 27.3691 8.31878 27.5099 8.17512C27.7564 7.75118 27.8752 7.265 27.8519 6.77512L29.8619 6.77412ZM37.4869 1.81112H35.0259V10.0901H33.0089V1.81212H30.5889V0.137123H37.4889L37.4869 1.81112ZM43.9229 5.78312H40.7919V8.42212H44.4999V10.0901H38.7819V0.137123H44.4819V1.81212H40.7919V4.16412H43.9229V5.78312ZM48.8069 6.45312H47.8069V10.0901H45.7999V0.137123H49.0059C49.8564 0.0826105 50.6943 0.363727 51.3399 0.920123C51.6251 1.21278 51.8459 1.56201 51.9878 1.94526C52.1297 2.3285 52.1897 2.73726 52.1639 3.14512C52.2137 3.69721 52.1043 4.25202 51.8486 4.74384C51.5928 5.23565 51.2015 5.64386 50.7209 5.92012L52.4639 9.99012V10.0901H50.2999L48.8069 6.45312ZM47.8069 4.77812H48.9499C49.1211 4.78951 49.2925 4.75904 49.4493 4.68935C49.6061 4.61966 49.7436 4.51284 49.8499 4.37812C50.0643 4.0639 50.1697 3.68801 50.1499 3.30812C50.1499 2.30812 49.7602 1.80812 48.9809 1.80812H47.8089L47.8069 4.77812ZM61.2529 7.47812C61.2651 7.31193 61.2438 7.14498 61.1904 6.98714C61.137 6.82929 61.0525 6.68375 60.9419 6.55912C60.6075 6.27646 60.2242 6.05751 59.8109 5.91312C58.9959 5.65117 58.2569 5.19468 57.6579 4.58312C57.2242 4.08484 56.9905 3.44358 57.0019 2.78312C56.9878 2.40085 57.0608 2.02038 57.2154 1.67045C57.3699 1.32051 57.6019 1.01026 57.8939 0.763123C58.5305 0.240407 59.3368 -0.0307064 60.1599 0.00112332C60.7283 -0.0091297 61.2902 0.1236 61.7939 0.387123C62.2599 0.634249 62.6425 1.01343 62.8939 1.47712C63.1568 1.96884 63.2897 2.51961 63.2799 3.07712H61.2799C61.3049 2.69886 61.199 2.32351 60.9799 2.01412C60.8751 1.89065 60.7431 1.79328 60.5941 1.72975C60.4452 1.66622 60.2835 1.63827 60.1219 1.64812C59.971 1.63935 59.82 1.66252 59.6787 1.71611C59.5374 1.7697 59.409 1.85251 59.3019 1.95912C59.0977 2.18866 58.9921 2.48933 59.0079 2.79612C59.0095 2.93556 59.0395 3.0732 59.0958 3.20074C59.1522 3.32828 59.2339 3.44305 59.3359 3.53812C59.6794 3.83532 60.0737 4.06805 60.4999 4.22512C61.3029 4.47048 62.0308 4.91493 62.6159 5.51712C63.0683 6.06299 63.3033 6.75666 63.2759 7.46512C63.2963 7.84354 63.2327 8.22179 63.0898 8.57275C62.9468 8.92372 62.7279 9.2387 62.4489 9.49512C61.8166 10.0108 61.0146 10.2719 60.1999 10.2271C59.5909 10.2338 58.989 10.0967 58.4429 9.82712C57.9283 9.57719 57.4967 9.18415 57.1999 8.69512C56.8919 8.16685 56.7368 7.56341 56.7519 6.95212H58.7689C58.7306 7.39549 58.8492 7.83822 59.1039 8.20312C59.2471 8.34397 59.4195 8.45164 59.6088 8.51852C59.7982 8.58539 60 8.60984 60.1999 8.59012C60.9032 8.59012 61.2549 8.21979 61.2549 7.47912L61.2529 7.47812ZM71.7529 6.00812C71.8223 7.12504 71.486 8.22946 70.8059 9.11812C70.4805 9.48863 70.0755 9.78082 69.6213 9.97285C69.1671 10.1649 68.6754 10.2518 68.1829 10.2271C67.6899 10.2516 67.1977 10.1655 66.7423 9.97521C66.2869 9.78488 65.8798 9.49511 65.5509 9.12712C64.8652 8.25447 64.5201 7.16232 64.5799 6.05412V4.35412C64.5117 3.20908 64.8479 2.07646 65.5299 1.15412C65.8508 0.771253 66.2562 0.467977 66.714 0.2681C67.1719 0.068222 67.6699 -0.0228192 68.1689 0.00212278C68.6625 -0.0209543 69.155 0.0689271 69.6087 0.264921C70.0623 0.460915 70.4653 0.757853 70.7869 1.13312C71.4759 2.04331 71.8199 3.16826 71.7579 4.30812L71.7529 6.00812ZM69.7409 4.34112C69.784 3.65282 69.6522 2.9648 69.3579 2.34112C69.2411 2.13134 69.0677 1.9586 68.8575 1.84261C68.6472 1.72662 68.4086 1.67205 68.1689 1.68512C67.9326 1.67142 67.6972 1.72318 67.4885 1.83469C67.2797 1.94619 67.1058 2.11313 66.9859 2.31712C66.6898 2.91357 66.5521 3.5761 66.5859 4.24112V6.01212C66.5403 6.67687 66.675 7.34161 66.9759 7.93612C67.1018 8.13762 67.2797 8.30145 67.4909 8.41038C67.7021 8.51931 67.9387 8.56931 68.1759 8.55512C68.4066 8.56924 68.637 8.52098 68.8426 8.41541C69.0483 8.30984 69.2218 8.15085 69.3449 7.95512C69.6406 7.37601 69.7752 6.7281 69.7349 6.07912L69.7409 4.34112ZM75.3499 8.42212H78.8769V10.0901H73.3399V0.137123H75.3499V8.42212ZM86.4889 0.137123V7.02812C86.5139 7.46111 86.4511 7.89468 86.3044 8.30281C86.1576 8.71094 85.9299 9.0852 85.6349 9.40312C85.3072 9.69337 84.9252 9.91567 84.511 10.0571C84.0968 10.1986 83.6586 10.2564 83.2219 10.2271C82.7793 10.2572 82.3352 10.1987 81.9155 10.055C81.4958 9.91124 81.1091 9.68521 80.7779 9.39012C80.4811 9.06605 80.2533 8.68506 80.1082 8.27026C79.9631 7.85547 79.9038 7.41553 79.9339 6.97712V0.137123H81.9569V6.99012C81.9208 7.41197 82.0162 7.83463 82.2299 8.20012C82.3553 8.33373 82.5102 8.43607 82.6823 8.49894C82.8544 8.56181 83.0389 8.58345 83.2209 8.56212C83.4016 8.58389 83.5849 8.56273 83.7558 8.50035C83.9268 8.43797 84.0807 8.33614 84.2049 8.20312C84.4128 7.84669 84.508 7.43567 84.4779 7.02412V0.137123H86.4889ZM94.5999 1.81212H92.1389V10.0901H90.1219V1.81212H87.6999V0.137123H94.5999V1.81212ZM97.9939 10.0901H95.9839V0.137123H97.9939V10.0901ZM106.829 6.00912C106.898 7.12604 106.562 8.23046 105.882 9.11912C105.556 9.49013 105.15 9.78254 104.695 9.97442C104.24 10.1663 103.747 10.2527 103.254 10.2271C102.761 10.2516 102.269 10.1655 101.813 9.97521C101.358 9.78488 100.951 9.49511 100.622 9.12712C99.9362 8.25447 99.5911 7.16232 99.6509 6.05412V4.35412C99.5827 3.20908 99.9189 2.07646 100.601 1.15412C100.922 0.771253 101.327 0.467977 101.785 0.2681C102.243 0.068222 102.741 -0.0228192 103.24 0.00212278C103.734 -0.0209543 104.226 0.0689271 104.68 0.264921C105.133 0.460915 105.536 0.757853 105.858 1.13312C106.547 2.04331 106.891 3.16826 106.829 4.30812V6.00912ZM104.812 4.34112C104.855 3.65282 104.723 2.9648 104.429 2.34112C104.312 2.13134 104.139 1.9586 103.928 1.84261C103.718 1.72662 103.48 1.67205 103.24 1.68512C103.004 1.67142 102.768 1.72318 102.559 1.83469C102.351 1.94619 102.177 2.11313 102.057 2.31712C101.761 2.91357 101.623 3.5761 101.657 4.24112V6.01212C101.611 6.67687 101.746 7.34161 102.047 7.93612C102.173 8.13762 102.351 8.30145 102.562 8.41038C102.773 8.51931 103.01 8.56931 103.247 8.55512C103.478 8.56924 103.708 8.52098 103.914 8.41541C104.119 8.30984 104.293 8.15085 104.416 7.95512C104.712 7.37601 104.846 6.7281 104.806 6.07912L104.812 4.34112ZM115.371 10.0901H113.361L110.422 3.56212V10.0901H108.412V0.137123H110.422L113.368 6.67212V0.137123H115.368L115.371 10.0901ZM121.328 7.47912C121.34 7.31293 121.319 7.14598 121.265 6.98814C121.212 6.83029 121.127 6.68475 121.017 6.56012C120.683 6.27746 120.299 6.05851 119.886 5.91412C119.071 5.65217 118.332 5.19568 117.733 4.58412C117.299 4.08584 117.066 3.44458 117.077 2.78412C117.063 2.40185 117.136 2.02138 117.29 1.67144C117.445 1.32151 117.677 1.01126 117.969 0.764123C118.606 0.241407 119.412 -0.0297069 120.235 0.00212278C120.803 -0.00813025 121.365 0.124601 121.869 0.388123C122.335 0.635249 122.718 1.01443 122.969 1.47812C123.232 1.96984 123.365 2.52061 123.355 3.07812H121.355C121.38 2.69986 121.274 2.32451 121.055 2.01512C120.95 1.89165 120.818 1.79428 120.669 1.73075C120.52 1.66722 120.358 1.63927 120.197 1.64912C120.046 1.64035 119.895 1.66352 119.754 1.71711C119.612 1.7707 119.484 1.85351 119.377 1.96012C119.173 2.18966 119.067 2.49033 119.083 2.79712C119.085 2.93656 119.114 3.0742 119.171 3.20174C119.227 3.32928 119.309 3.44405 119.411 3.53912C119.754 3.83611 120.147 4.06884 120.573 4.22612C121.376 4.47148 122.104 4.91593 122.689 5.51812C123.141 6.06399 123.376 6.75766 123.349 7.46612C123.369 7.84454 123.306 8.22279 123.163 8.57375C123.02 8.92472 122.801 9.2397 122.522 9.49612C121.889 10.0115 121.087 10.2722 120.273 10.2271C119.664 10.2338 119.062 10.0967 118.516 9.82712C118.002 9.57607 117.571 9.18197 117.275 8.69212C116.967 8.16385 116.812 7.56041 116.827 6.94912H118.844C118.806 7.39249 118.924 7.83522 119.179 8.20012C119.322 8.34124 119.494 8.4493 119.683 8.51669C119.872 8.58408 120.073 8.60915 120.273 8.59012C120.976 8.59012 121.328 8.21979 121.328 7.47912Z" fill="white"/>
</svg>
