<svg width="31" height="40" viewBox="0 0 31 40" fill="none" xmlns="http://www.w3.org/2000/svg">
<path d="M27.125 40H3.875C2.84729 40 1.86196 39.5984 1.13525 38.8839C0.40855 38.1695 0 37.2008 0 36.1905V3.80952C0 2.79918 0.40855 1.8305 1.13525 1.11607C1.86196 0.401647 2.84729 0 3.875 0H27.125C28.1527 0 29.138 0.401647 29.8647 1.11607C30.5914 1.8305 31 2.79918 31 3.80952V36.1905C31 37.2008 30.5914 38.1695 29.8647 38.8839C29.138 39.5984 28.1527 40 27.125 40ZM5.8125 5C5.29864 5 4.80598 5.20082 4.44263 5.55804C4.07928 5.91525 3.875 6.39959 3.875 6.90476V31.6518C3.875 32.157 4.07928 32.6413 4.44263 32.9985C4.80598 33.3557 5.29864 33.5565 5.8125 33.5565H25.1875C25.7014 33.5565 26.194 33.3557 26.5574 32.9985C26.9207 32.6413 27.125 32.157 27.125 31.6518V6.90476C27.125 6.39959 26.9207 5.91525 26.5574 5.55804C26.194 5.20082 25.7014 5 25.1875 5H5.8125ZM4.84375 1.90848C4.58682 1.90848 4.34049 2.00889 4.15881 2.1875C3.97714 2.36611 3.875 2.60828 3.875 2.86086C3.875 3.11345 3.97714 3.35562 4.15881 3.53423C4.34049 3.71283 4.58682 3.81324 4.84375 3.81324H14.5312C14.7882 3.81324 15.0345 3.71283 15.2162 3.53423C15.3979 3.35562 15.5 3.11345 15.5 2.86086C15.5 2.60828 15.3979 2.36611 15.2162 2.1875C15.0345 2.00889 14.7882 1.90848 14.5312 1.90848H4.84375Z" fill="#2F4F4F"/>
</svg>
