<svg width="124" height="11" viewBox="0 0 124 11" fill="none" xmlns="http://www.w3.org/2000/svg">
<path d="M4.495 7.48694C4.50719 7.32074 4.48595 7.15379 4.43254 6.99595C4.37912 6.83811 4.29461 6.69257 4.184 6.56794C3.84966 6.28527 3.46632 6.06632 3.053 5.92194C2.23799 5.65998 1.49904 5.2035 0.899998 4.59194C0.466355 4.09365 0.232654 3.4524 0.243998 2.79194C0.229954 2.40966 0.302951 2.02919 0.457476 1.67926C0.612001 1.32932 0.844015 1.01907 1.136 0.771935C1.77314 0.247802 2.58059 -0.0240764 3.405 0.00793542C3.97374 -0.00108542 4.53563 0.133025 5.039 0.397936C5.50497 0.645062 5.88763 1.02424 6.139 1.48794C6.40194 1.97965 6.53481 2.53042 6.525 3.08794H4.525C4.55 2.70967 4.44407 2.33432 4.225 2.02494C4.12025 1.90146 3.98817 1.8041 3.83924 1.74056C3.69031 1.67703 3.52862 1.64908 3.367 1.65894C3.21613 1.65017 3.06511 1.67333 2.92381 1.72692C2.78251 1.78051 2.65411 1.86332 2.547 1.96994C2.34283 2.19947 2.23721 2.50014 2.253 2.80694C2.25465 2.94637 2.28457 3.08402 2.34095 3.21155C2.39733 3.33909 2.47899 3.45387 2.581 3.54894C2.92388 3.84593 3.31752 4.07865 3.743 4.23594C4.54711 4.47983 5.27642 4.92326 5.863 5.52494C6.31543 6.07081 6.55045 6.76447 6.523 7.47294C6.54329 7.85143 6.47957 8.22973 6.33642 8.5807C6.19326 8.93166 5.97422 9.2466 5.695 9.50294C5.06273 10.0186 4.26069 10.2797 3.446 10.2349C2.83703 10.2416 2.23507 10.1046 1.689 9.83494C1.17552 9.58453 0.745028 9.19153 0.448998 8.70294C0.141065 8.17466 -0.0140365 7.57122 0.000997903 6.95994H2.017C1.97872 7.4033 2.09727 7.84603 2.352 8.21094C2.49469 8.35205 2.66663 8.46012 2.85566 8.5275C3.04469 8.59489 3.24622 8.61996 3.446 8.60094C4.14533 8.59894 4.495 8.2276 4.495 7.48694ZM10.005 6.59794V10.0979H7.995V0.144936H11.386C11.8208 0.124377 12.255 0.195282 12.6607 0.353066C13.0663 0.510851 13.4344 0.752004 13.741 1.06094C14.0373 1.3798 14.2674 1.75422 14.4181 2.16256C14.5688 2.5709 14.6371 3.00505 14.619 3.43994C14.6415 3.86417 14.5759 4.28847 14.4266 4.68617C14.2772 5.08387 14.0472 5.44639 13.751 5.75094C13.4262 6.0447 13.0462 6.27088 12.6331 6.4163C12.2201 6.56171 11.7822 6.62346 11.345 6.59794H10.005ZM10.005 4.92294H11.386C11.5531 4.93243 11.7201 4.90347 11.8742 4.83828C12.0283 4.7731 12.1654 4.67343 12.275 4.54694C12.5049 4.23048 12.6161 3.84317 12.589 3.45294C12.611 3.03351 12.4985 2.61803 12.268 2.26694C12.1724 2.12726 12.0438 2.0133 11.8936 1.93516C11.7434 1.85702 11.5763 1.8171 11.407 1.81894H10.007L10.005 4.92294ZM21.24 5.79094H18.109V8.42994H21.814V10.0979H16.095V0.144936H21.795V1.81994H18.109V4.17194H21.24V5.79094ZM29.857 6.78194C29.8774 7.7326 29.5332 8.65504 28.895 9.35994C28.5601 9.66509 28.1673 9.8998 27.7399 10.0501C27.3125 10.2004 26.8592 10.2633 26.407 10.2349C25.9197 10.2636 25.4324 10.1781 24.984 9.98526C24.5355 9.79238 24.1383 9.49744 23.824 9.12394C23.1692 8.20257 22.8514 7.08394 22.924 5.95594V4.28094C22.8511 3.15021 23.1805 2.03013 23.854 1.11894C24.171 0.748346 24.5688 0.455461 25.0168 0.262844C25.4648 0.0702267 25.951 -0.0169822 26.438 0.00793542C26.8907 -0.0239675 27.3451 0.0405601 27.771 0.197255C28.197 0.35395 28.5849 0.599246 28.909 0.916936C29.521 1.65023 29.8602 2.57283 29.869 3.52794H27.853C27.884 3.02263 27.7713 2.51887 27.528 2.07494C27.3907 1.92713 27.2203 1.81386 27.0309 1.74435C26.8415 1.67484 26.6383 1.65106 26.438 1.67494C26.2142 1.65452 25.989 1.69639 25.7875 1.79592C25.5859 1.89546 25.4158 2.04878 25.296 2.23894C25.0285 2.8206 24.9067 3.45864 24.941 4.09794V5.97794C24.8862 6.67376 25.0001 7.37253 25.273 8.01494C25.3937 8.20269 25.5637 8.35366 25.7644 8.45136C25.9651 8.54906 26.1888 8.58973 26.411 8.56894C26.6107 8.59246 26.8132 8.5699 27.0028 8.50299C27.1925 8.43608 27.3643 8.32659 27.505 8.18294C27.7516 7.75899 27.8703 7.27281 27.847 6.78294L29.857 6.78194ZM37.482 1.81894H35.021V10.0979H33.004V1.81994H30.584V0.144936H37.484L37.482 1.81894ZM43.918 5.79094H40.787V8.42994H44.495V10.0979H38.777V0.144936H44.477V1.81994H40.787V4.17194H43.918V5.79094ZM48.802 6.46094H47.802V10.0979H45.795V0.144936H49.001C49.8515 0.090423 50.6895 0.371539 51.335 0.927935C51.6203 1.22059 51.841 1.56982 51.9829 1.95307C52.1248 2.33632 52.1848 2.74507 52.159 3.15294C52.2089 3.70502 52.0994 4.25983 51.8437 4.75165C51.5879 5.24346 51.1966 5.65168 50.716 5.92794L52.459 9.99794V10.0979H50.295L48.802 6.46094ZM47.802 4.78594H48.945C49.1162 4.79732 49.2876 4.76686 49.4444 4.69716C49.6012 4.62747 49.7387 4.52065 49.845 4.38594C50.0594 4.07171 50.1648 3.69582 50.145 3.31594C50.145 2.31594 49.7553 1.81594 48.976 1.81594H47.804L47.802 4.78594ZM61.248 7.48594C61.2602 7.31974 61.239 7.15279 61.1855 6.99495C61.1321 6.83711 61.0476 6.69157 60.937 6.56694C60.6027 6.28427 60.2193 6.06532 59.806 5.92094C58.991 5.65898 58.252 5.2025 57.653 4.59094C57.2194 4.09265 56.9857 3.4514 56.997 2.79094C56.983 2.40866 57.056 2.02819 57.2105 1.67826C57.365 1.32832 57.597 1.01807 57.889 0.770936C58.5256 0.24822 59.3319 -0.0228939 60.155 0.00893582C60.7234 -0.0013172 61.2853 0.131413 61.789 0.394936C62.255 0.642061 62.6376 1.02124 62.889 1.48494C63.1519 1.97665 63.2848 2.52742 63.275 3.08494H61.275C61.3 2.70667 61.1941 2.33132 60.975 2.02194C60.8703 1.89846 60.7382 1.8011 60.5892 1.73756C60.4403 1.67403 60.2786 1.64608 60.117 1.65594C59.9661 1.64716 59.8151 1.67033 59.6738 1.72392C59.5325 1.77752 59.4041 1.86032 59.297 1.96694C59.0928 2.19647 58.9872 2.49714 59.003 2.80394C59.0047 2.94337 59.0346 3.08102 59.091 3.20855C59.1473 3.33609 59.229 3.45087 59.331 3.54594C59.6745 3.84313 60.0688 4.07587 60.495 4.23294C61.298 4.4783 62.0259 4.92274 62.611 5.52494C63.0634 6.07081 63.2985 6.76447 63.271 7.47294C63.2914 7.85135 63.2279 8.2296 63.0849 8.58057C62.9419 8.93153 62.723 9.24651 62.444 9.50294C61.8117 10.0186 61.0097 10.2797 60.195 10.2349C59.586 10.2416 58.9841 10.1046 58.438 9.83494C57.9234 9.585 57.4918 9.19196 57.195 8.70294C56.8871 8.17466 56.732 7.57122 56.747 6.95994H58.764C58.7257 7.4033 58.8443 7.84603 59.099 8.21094C59.2422 8.35179 59.4146 8.45945 59.604 8.52633C59.7933 8.5932 59.9951 8.61765 60.195 8.59794C60.8983 8.59794 61.25 8.2276 61.25 7.48694L61.248 7.48594ZM71.748 6.01594C71.8174 7.13285 71.4811 8.23727 70.801 9.12594C70.4756 9.49644 70.0706 9.78863 69.6164 9.98067C69.1622 10.1727 68.6705 10.2596 68.178 10.2349C67.685 10.2594 67.1928 10.1733 66.7374 9.98302C66.282 9.79269 65.8749 9.50292 65.546 9.13494C64.8603 8.26228 64.5152 7.17014 64.575 6.06194V4.36194C64.5068 3.21689 64.843 2.08427 65.525 1.16194C65.846 0.779065 66.2513 0.47579 66.7092 0.275912C67.167 0.0760345 67.665 -0.0150067 68.164 0.00993528C68.6577 -0.0131418 69.1501 0.0767396 69.6038 0.272734C70.0574 0.468728 70.4604 0.765666 70.782 1.14094C71.471 2.05112 71.815 3.17607 71.753 4.31594L71.748 6.01594ZM69.736 4.34894C69.7791 3.66063 69.6474 2.97261 69.353 2.34894C69.2362 2.13915 69.0628 1.96641 68.8526 1.85042C68.6423 1.73443 68.4037 1.67986 68.164 1.69294C67.9277 1.67924 67.6923 1.73099 67.4836 1.8425C67.2749 1.95401 67.1009 2.12094 66.981 2.32494C66.6849 2.92138 66.5472 3.58392 66.581 4.24894V6.01994C66.5354 6.68469 66.6701 7.34942 66.971 7.94394C67.0969 8.14543 67.2748 8.30926 67.486 8.41819C67.6972 8.52712 67.9338 8.57712 68.171 8.56294C68.4018 8.57705 68.6321 8.52879 68.8378 8.42322C69.0434 8.31765 69.2169 8.15866 69.34 7.96294C69.6357 7.38382 69.7704 6.73591 69.73 6.08694L69.736 4.34894ZM75.345 8.42994H78.872V10.0979H73.335V0.144936H75.345V8.42994ZM86.484 0.144936V7.03594C86.509 7.46892 86.4462 7.9025 86.2995 8.31062C86.1527 8.71875 85.925 9.09301 85.63 9.41094C85.3024 9.70118 84.9204 9.92348 84.5061 10.0649C84.0919 10.2064 83.6537 10.2642 83.217 10.2349C82.7744 10.265 82.3303 10.2065 81.9106 10.0628C81.491 9.91905 81.1042 9.69302 80.773 9.39794C80.4762 9.07386 80.2484 8.69287 80.1033 8.27808C79.9582 7.86328 79.8989 7.42334 79.929 6.98494V0.144936H81.952V6.99794C81.9159 7.41978 82.0113 7.84245 82.225 8.20794C82.3504 8.34154 82.5054 8.44389 82.6775 8.50675C82.8496 8.56962 83.034 8.59126 83.216 8.56994C83.3967 8.59171 83.58 8.57054 83.7509 8.50816C83.9219 8.44579 84.0758 8.34395 84.2 8.21094C84.4079 7.8545 84.5031 7.44348 84.473 7.03194V0.144936H86.484ZM94.595 1.81994H92.134V10.0979H90.117V1.81994H87.695V0.144936H94.595V1.81994ZM97.989 10.0979H95.979V0.144936H97.989V10.0979ZM106.824 6.01694C106.893 7.13385 106.557 8.23827 105.877 9.12694C105.551 9.49794 105.145 9.79035 104.69 9.98223C104.235 10.1741 103.742 10.2605 103.249 10.2349C102.756 10.2594 102.264 10.1733 101.808 9.98302C101.353 9.79269 100.946 9.50292 100.617 9.13494C99.9313 8.26228 99.5862 7.17014 99.646 6.06194V4.36194C99.5778 3.21689 99.914 2.08427 100.596 1.16194C100.917 0.779065 101.322 0.47579 101.78 0.275912C102.238 0.0760345 102.736 -0.0150067 103.235 0.00993528C103.729 -0.0131418 104.221 0.0767396 104.675 0.272734C105.128 0.468728 105.531 0.765666 105.853 1.14094C106.542 2.05112 106.886 3.17607 106.824 4.31594V6.01694ZM104.807 4.34894C104.85 3.66063 104.718 2.97261 104.424 2.34894C104.307 2.13915 104.134 1.96641 103.924 1.85042C103.713 1.73443 103.475 1.67986 103.235 1.69294C102.999 1.67924 102.763 1.73099 102.555 1.8425C102.346 1.95401 102.172 2.12094 102.052 2.32494C101.756 2.92138 101.618 3.58392 101.652 4.24894V6.01994C101.606 6.68469 101.741 7.34942 102.042 7.94394C102.168 8.14543 102.346 8.30926 102.557 8.41819C102.768 8.52712 103.005 8.57712 103.242 8.56294C103.473 8.57705 103.703 8.52879 103.909 8.42322C104.114 8.31765 104.288 8.15866 104.411 7.96294C104.707 7.38382 104.841 6.73591 104.801 6.08694L104.807 4.34894ZM115.366 10.0979H113.356L110.417 3.56994V10.0979H108.407V0.144936H110.417L113.363 6.67994V0.144936H115.363L115.366 10.0979ZM121.323 7.48694C121.335 7.32074 121.314 7.15379 121.261 6.99595C121.207 6.83811 121.123 6.69257 121.012 6.56794C120.678 6.28527 120.294 6.06632 119.881 5.92194C119.066 5.65998 118.327 5.2035 117.728 4.59194C117.294 4.09365 117.061 3.4524 117.072 2.79194C117.058 2.40966 117.131 2.02919 117.285 1.67926C117.44 1.32932 117.672 1.01907 117.964 0.771935C118.601 0.249219 119.407 -0.0218944 120.23 0.00993528C120.798 -0.00031775 121.36 0.132413 121.864 0.395936C122.33 0.643062 122.713 1.02224 122.964 1.48594C123.227 1.97765 123.36 2.52842 123.35 3.08594H121.35C121.375 2.70767 121.269 2.33232 121.05 2.02294C120.945 1.89946 120.813 1.8021 120.664 1.73856C120.515 1.67503 120.354 1.64708 120.192 1.65694C120.041 1.64817 119.89 1.67133 119.749 1.72492C119.607 1.77852 119.479 1.86132 119.372 1.96794C119.168 2.19747 119.062 2.49814 119.078 2.80494C119.08 2.94437 119.11 3.08202 119.166 3.20955C119.222 3.33709 119.304 3.45186 119.406 3.54694C119.749 3.84393 120.143 4.07665 120.568 4.23394C121.371 4.4793 122.099 4.92374 122.684 5.52594C123.136 6.07181 123.371 6.76547 123.344 7.47394C123.364 7.85235 123.301 8.2306 123.158 8.58157C123.015 8.93253 122.796 9.24751 122.517 9.50394C121.885 10.0193 121.083 10.28 120.268 10.2349C119.659 10.2416 119.057 10.1046 118.511 9.83494C117.997 9.58388 117.566 9.18979 117.27 8.69994C116.962 8.17166 116.807 7.56822 116.822 6.95694H118.839C118.801 7.4003 118.919 7.84303 119.174 8.20794C119.317 8.34905 119.489 8.45712 119.678 8.5245C119.867 8.59189 120.068 8.61696 120.268 8.59794C120.971 8.59794 121.323 8.2276 121.323 7.48694Z" fill="#24312E"/>
</svg>
