<svg xmlns="http://www.w3.org/2000/svg" width="15.88" height="20" viewBox="0 0 15.88 20">
  <g id="server" transform="translate(-4.06 -2)">
    <path id="Path_27439" data-name="Path 27439" d="M7,14.94H17a2.94,2.94,0,1,0,0-5.88H7a2.94,2.94,0,1,0,0,5.88Zm.75-3.85a.91.91,0,1,1-.643.266A.91.91,0,0,1,7.75,11.09Zm9.77.91a.66.66,0,0,1-.66.66H14.42a.66.66,0,1,1,0-1.32h2.44a.66.66,0,0,1,.66.66Z" fill="#2d6759"/>
    <path id="Path_27440" data-name="Path 27440" d="M7,7.88H17A2.94,2.94,0,1,0,17,2H7A2.94,2.94,0,1,0,7,7.88ZM7.75,4a.91.91,0,1,1-.643.267A.91.91,0,0,1,7.75,4Zm9.77.91a.66.66,0,0,1-.66.66H14.42a.66.66,0,1,1,0-1.32h2.44a.66.66,0,0,1,.66.69Z" fill="#2d6759"/>
    <path id="Path_27441" data-name="Path 27441" d="M7,22H17a2.94,2.94,0,0,0,0-5.88H7A2.94,2.94,0,1,0,7,22Zm.75-3.85a.91.91,0,1,1-.643.267A.91.91,0,0,1,7.75,18.15Zm9.77.91a.66.66,0,0,1-.66.66H14.42a.66.66,0,1,1,0-1.32h2.44a.66.66,0,0,1,.66.66Z" fill="#2d6759"/>
  </g>
</svg>
