<svg xmlns="http://www.w3.org/2000/svg" xmlns:xlink="http://www.w3.org/1999/xlink" width="160.033" height="129.755" viewBox="0 0 160.033 129.755">
  <defs>
    <linearGradient id="linear-gradient" x1="0.5" x2="0.5" y2="1" gradientUnits="objectBoundingBox">
      <stop offset="0" stop-color="#00836a"/>
      <stop offset="1" stop-color="#073e39"/>
    </linearGradient>
    <linearGradient id="linear-gradient-6" y1="1" y2="0" xlink:href="#linear-gradient"/>
  </defs>
  <g id="illustration" transform="translate(-77.241 -472)">
    <g id="Group_39521" data-name="Group 39521" transform="translate(77.241 533.06)" opacity="0.272">
      <circle id="Ellipse_1999" data-name="Ellipse 1999" cx="29.446" cy="29.446" r="29.446" transform="translate(7.68)" fill="url(#linear-gradient)"/>
      <path id="Path_25533" data-name="Path 25533" d="M2.523,5.045A2.523,2.523,0,1,0,0,2.523,2.523,2.523,0,0,0,2.523,5.045Z" transform="translate(46.41 61.599) rotate(39)" fill="url(#linear-gradient)"/>
      <path id="Path_25534" data-name="Path 25534" d="M1.723,3.445A1.723,1.723,0,1,0,0,1.723,1.723,1.723,0,0,0,1.723,3.445Z" transform="translate(55.089 58.019) rotate(39)" fill="url(#linear-gradient)"/>
      <path id="Path_25535" data-name="Path 25535" d="M15.483,6.657a3.2,3.2,0,1,0-3.2-3.2A3.2,3.2,0,0,0,15.483,6.657Z" transform="translate(-12.284 14.607)" fill="url(#linear-gradient)"/>
    </g>
    <g id="Group_39533" data-name="Group 39533" transform="matrix(0.799, -0.602, 0.602, 0.799, 206.755, 492.151)" opacity="0.272">
      <circle id="Ellipse_1999-2" data-name="Ellipse 1999" cx="10.896" cy="10.896" r="10.896" transform="translate(0 0)" fill="url(#linear-gradient)"/>
      <path id="Path_25533-2" data-name="Path 25533" d="M.933,0A.933.933,0,1,1,0,.933.933.933,0,0,1,.933,0Z" transform="translate(8.636 24.244) rotate(141)" fill="url(#linear-gradient-6)"/>
      <path id="Path_25534-2" data-name="Path 25534" d="M.637,0A.637.637,0,1,1,0,.637.638.638,0,0,1,.637,0Z" transform="translate(5.052 22.459) rotate(141)" fill="url(#linear-gradient-6)"/>
      <path id="Path_25535-2" data-name="Path 25535" d="M1.184,2.368A1.184,1.184,0,1,1,2.368,1.184,1.184,1.184,0,0,1,1.184,2.368Z" transform="translate(22.266 5.501)" fill="url(#linear-gradient)"/>
    </g>
    <g id="SECURE" transform="translate(117.737 473.669)">
      <g id="Group_39527" data-name="Group 39527" transform="translate(0 0)">
        <path id="Path_25552" data-name="Path 25552" d="M23.132,21.5V62.513a59.219,59.219,0,0,0,49.306,58.414,59.219,59.219,0,0,0,49.306-58.414V21.5L72.486,2.049Z" transform="translate(-23.132 -2.049)" fill="#F6F2ED"/>
      </g>
    </g>
    <g id="Group_39527-2" data-name="Group 39527" transform="translate(116.14 472)">
      <path id="Path_25552-2" data-name="Path 25552" d="M72.127,122.073h-.143A60.834,60.834,0,0,1,21.2,62.085V20.075L72.127,0l50.88,20.075V62.133A60.834,60.834,0,0,1,72.223,122.12ZM22.774,21.124V62.133A59.219,59.219,0,0,0,72.08,120.547a59.219,59.219,0,0,0,49.306-58.414V21.124L72.127,1.669Z" transform="translate(-21.2)" fill="#002c27"/>
    </g>
    <g id="Group_39528" data-name="Group 39528" transform="translate(121.576 477.77)">
      <path id="Path_25553" data-name="Path 25553" d="M78.091,122.919l-.143-.048A55.376,55.376,0,0,1,32.6,68.368V30.029L78.091,12.1l45.491,17.929V68.416a55.414,55.414,0,0,1-45.348,54.5ZM34.126,31.079V68.416a53.82,53.82,0,0,0,43.965,52.93,53.866,53.866,0,0,0,43.965-52.93V31.079L78.091,13.769Z" transform="translate(-32.6 -12.1)" fill="#002c27"/>
    </g>
    <g id="Group_39529" data-name="Group 39529" transform="translate(125.057 481.537)">
      <path id="Path_25554" data-name="Path 25554" d="M81.91,20,39.9,36.547v36a51.911,51.911,0,0,0,42.01,50.975,51.911,51.911,0,0,0,42.01-50.975v-36Zm.381,73.005A23.985,23.985,0,1,1,106.277,69.02,23.973,23.973,0,0,1,82.292,93.005Z" transform="translate(-39.9 -20)" fill="url(#linear-gradient)"/>
    </g>
    <g id="Group_39530" data-name="Group 39530" transform="translate(142.653 505.713)">
      <path id="Path_25555" data-name="Path 25555" d="M101.6,120.292a24.8,24.8,0,1,1,24.8-24.8A24.838,24.838,0,0,1,101.6,120.292Zm0-48.018A23.222,23.222,0,1,0,124.818,95.5,23.22,23.22,0,0,0,101.6,72.274Z" transform="translate(-76.8 -70.7)" fill="#002c27"/>
    </g>
    <g id="Group_39531" data-name="Group 39531" transform="translate(145.371 508.479)">
      <path id="Path_25556" data-name="Path 25556" d="M104.578,120.608c-.525,0-1.049,0-1.621-.048l.1-1.526c.763.048,1.526.048,2.289.048l.048,1.526Zm2.48-.1-.191-1.526c.477-.048,1-.143,1.478-.238l.286,1.526C108.107,120.37,107.582,120.418,107.058,120.513Zm-5.674-.1-1.574-.286.334-1.526c.477.1.954.191,1.478.286Zm8.822-.525-.381-1.478,1.431-.429.525,1.478Q110.92,119.678,110.2,119.893ZM98.236,119.7c-.525-.143-1-.334-1.526-.525l.572-1.431c.477.191.954.334,1.431.477Zm14.973-.858-.62-1.431c.477-.191.906-.429,1.335-.62l.715,1.383A13.114,13.114,0,0,1,113.209,118.844Zm-17.929-.286-1.431-.715.763-1.335a11.619,11.619,0,0,0,1.335.668Zm20.791-1.144-.811-1.335a11.1,11.1,0,0,0,1.24-.811l.906,1.24C116.976,116.841,116.5,117.127,116.07,117.413Zm-23.6-.429c-.429-.286-.906-.62-1.287-.906l.954-1.24c.381.286.811.572,1.192.858Zm26.179-1.431-1-1.192c.381-.334.763-.668,1.1-1l1.049,1.1A8.357,8.357,0,0,1,118.645,115.554Zm-28.706-.525c-.381-.334-.763-.715-1.144-1.1l1.1-1.1c.334.334.715.715,1.1,1.049Zm31.043-1.717-1.144-1.049c.334-.381.668-.763.954-1.144l1.24.954C121.7,112.5,121.315,112.931,120.982,113.313ZM87.7,112.74c-.334-.429-.668-.811-1-1.24l1.24-.906c.286.381.62.811.906,1.192Zm35.239-1.955-1.287-.858c.286-.429.525-.858.763-1.287l1.335.763A13.139,13.139,0,0,1,122.937,110.785Zm-37.146-.62c-.286-.429-.525-.906-.811-1.383l1.383-.715c.238.429.477.858.763,1.287Zm38.72-2.146-1.383-.668a12,12,0,0,0,.572-1.383l1.431.572A9.754,9.754,0,0,1,124.51,108.02Zm-40.2-.715c-.191-.477-.429-1-.572-1.478l1.478-.525a11.865,11.865,0,0,0,.525,1.383Zm41.39-2.289-1.478-.477c.143-.477.286-.954.381-1.431l1.526.334ZM83.263,104.3c-.143-.525-.238-1.049-.381-1.574l1.526-.286c.1.477.191.954.334,1.431Zm43.155-2.384-1.526-.238c.1-.477.143-1,.191-1.478l1.526.143C126.561,100.819,126.465,101.391,126.418,101.916Zm-43.775-.763L82.5,99.579l1.526-.048a7.763,7.763,0,0,0,.143,1.478Zm44.013-2.432H125.13v-.143a12.5,12.5,0,0,0-.048-1.335l1.526-.1c.048.477.048.954.048,1.431Zm-42.63-.715L82.5,97.958c0-.525.048-1.049.1-1.621l1.526.143C84.074,97,84.074,97.529,84.026,98.006Zm40.866-2.289c-.048-.477-.143-1-.238-1.478l1.526-.334.286,1.574ZM84.36,95.049l-1.526-.286c.1-.525.191-1.049.334-1.574l1.478.381C84.55,94.048,84.407,94.572,84.36,95.049Zm39.912-2.241c-.143-.477-.286-.954-.477-1.431l1.431-.525c.191.477.334,1,.525,1.526Zm-39.2-.668L83.6,91.664a9.929,9.929,0,0,1,.572-1.526l1.431.572C85.409,91.187,85.218,91.664,85.075,92.141Zm38.2-2.146c-.191-.429-.429-.906-.668-1.335l1.335-.763.715,1.431Zm-37.051-.62-1.383-.715c.238-.477.477-.954.763-1.431l1.335.811A12.413,12.413,0,0,0,86.219,89.375Zm35.62-1.955c-.286-.429-.572-.811-.858-1.24l1.24-.954a13.111,13.111,0,0,1,.906,1.335Zm-34.095-.572-1.287-.906c.286-.429.62-.858.954-1.287l1.192.954C88.318,86.037,87.984,86.418,87.745,86.848Zm32.283-1.812c-.334-.381-.668-.715-1-1.1l1.1-1.1c.381.381.763.763,1.1,1.144Zm-30.423-.525-1.144-1.049,1.144-1.144,1.049,1.144C90.273,83.8,89.939,84.177,89.605,84.511Zm28.277-1.574c-.381-.334-.763-.62-1.144-.906l.906-1.24c.429.334.858.668,1.24,1ZM91.8,82.508l-.954-1.192c.429-.334.858-.668,1.287-.954l.858,1.287A6.853,6.853,0,0,0,91.8,82.508Zm23.7-1.335c-.429-.286-.858-.525-1.287-.763l.715-1.383a13.135,13.135,0,0,1,1.383.811ZM94.23,80.792l-.763-1.335c.477-.286.954-.525,1.431-.763l.668,1.383C95.089,80.315,94.66,80.553,94.23,80.792Zm18.645-1.049c-.429-.191-.906-.381-1.383-.572l.525-1.478a13.732,13.732,0,0,1,1.478.62ZM96.9,79.5l-.572-1.431a14.332,14.332,0,0,1,1.526-.525l.477,1.478A8.393,8.393,0,0,0,96.9,79.5Zm13.161-.763c-.477-.143-.954-.238-1.431-.334l.286-1.526c.525.1,1.049.238,1.574.381Zm-10.3-.143-.381-1.526c.525-.143,1.049-.238,1.574-.334l.238,1.526C100.716,78.36,100.239,78.455,99.762,78.6Zm7.391-.429c-.477-.048-1-.1-1.478-.143l.1-1.526,1.574.143Zm-4.482-.048-.143-1.526c.525-.048,1.049-.1,1.621-.1l.048,1.526C103.672,78.026,103.2,78.074,102.671,78.121Z" transform="translate(-82.5 -76.5)" fill="#002c27"/>
    </g>
    <circle id="Ellipse_2006" data-name="Ellipse 2006" cx="10" cy="10" r="10" transform="translate(157.531 521)" fill="url(#linear-gradient)"/>
    <g id="Group_39631" data-name="Group 39631" transform="translate(161.533 526.692)">
      <g id="Group_39609" data-name="Group 39609" transform="translate(0 0)">
        <g id="Group_39608" data-name="Group 39608" transform="translate(0 0)">
          <path id="Path_25590" data-name="Path 25590" d="M461.594,166.677l-6.206,6.115-2.848-3.006-1.5,1.417,3.571,3.769a1.031,1.031,0,0,0,.73.322h.018a1.03,1.03,0,0,0,.723-.3l6.955-6.853Z" transform="translate(-451.044 -166.677)" fill="#F6F2ED"/>
        </g>
      </g>
    </g>
  </g>
</svg>
