<svg width="14" height="9" viewBox="0 0 14 9" fill="none" xmlns="http://www.w3.org/2000/svg">
<path d="M0.606317 2.13819L6.70064 8.30488C6.76117 8.36666 6.83341 8.41573 6.91315 8.44924C6.99288 8.48274 7.07849 8.5 7.16498 8.5C7.25147 8.5 7.33708 8.48274 7.41682 8.44924C7.49655 8.41573 7.56879 8.36666 7.62932 8.30488L13.7236 2.13819C13.9008 1.95681 14 1.71332 14 1.45977C14 1.20622 13.9008 0.962733 13.7236 0.781353C13.6358 0.692267 13.5311 0.621528 13.4157 0.573245C13.3002 0.524962 13.1764 0.500099 13.0513 0.500099C12.9261 0.500099 12.8023 0.524962 12.6868 0.573245C12.5714 0.621528 12.4667 0.692267 12.3789 0.781354L7.16498 6.05313L1.9511 0.781354C1.86314 0.692232 1.75835 0.621467 1.64282 0.573169C1.52729 0.52487 1.40332 0.5 1.2781 0.5C1.15289 0.5 1.02891 0.52487 0.913384 0.573169C0.797855 0.621467 0.693071 0.692232 0.605111 0.781354C0.426492 0.962949 0.32639 1.20747 0.32639 1.46219C0.32639 1.71691 0.426492 1.96142 0.605111 2.14302" fill="#2F4F4F"/>
</svg>
