<svg width="13" height="15" viewBox="0 0 13 15" fill="none" xmlns="http://www.w3.org/2000/svg">
<path d="M8.24984 7.73335C8.24984 7.45992 8.57852 7.31726 8.77691 7.50747L11.8594 10.4558C12.117 10.7024 12.117 11.1156 11.8594 11.3593L8.77395 14.3076C8.57556 14.4978 8.24688 14.3551 8.24688 14.0817V12.664H1.28833C0.944846 12.664 0.666504 12.3846 0.666504 12.0399V9.77515C0.666504 9.43039 0.944846 9.15102 1.28833 9.15102H8.24984V7.73335ZM4.74984 0.707389C4.74984 0.433959 4.42116 0.2913 4.22276 0.481512L1.14028 3.4298C0.882663 3.67648 0.882663 4.08662 1.14028 4.33331L4.22573 7.28159C4.42412 7.4718 4.7528 7.32915 4.7528 7.05572V5.63804H11.7113C12.0548 5.63804 12.3332 5.35867 12.3332 5.01391V2.7492C12.3332 2.40444 12.0548 2.12506 11.7113 2.12506H4.74984V0.707389Z" fill="#D92C2C"/>
</svg>
