<svg width="23" height="23" viewBox="0 0 23 23" fill="none" xmlns="http://www.w3.org/2000/svg">
<path d="M3.78125 10.0625C4.00503 10.0625 4.2197 10.1513 4.37793 10.3096C4.53614 10.4678 4.625 10.6825 4.625 10.9062V13.2891C4.625 14.01 4.91117 14.7021 5.4209 15.2119C5.93076 15.7218 6.62269 16.0078 7.34375 16.0078H15.9912L13.8643 13.8818L13.8613 13.8789C13.7076 13.7198 13.6231 13.5064 13.625 13.2852C13.627 13.064 13.7157 12.8527 13.8721 12.6963C14.0285 12.5399 14.2397 12.4512 14.4609 12.4492C14.6544 12.4475 14.8418 12.5118 14.9922 12.6309L15.0547 12.6855L18.6201 16.251C18.7783 16.4092 18.8671 16.624 18.8672 16.8477C18.8672 17.0714 18.7783 17.2861 18.6201 17.4443L15.0547 21.0098C14.8956 21.1635 14.6822 21.249 14.4609 21.2471C14.2399 21.2451 14.0285 21.1562 13.8721 21C13.7156 20.8436 13.6269 20.6314 13.625 20.4102C13.6231 20.189 13.7077 19.9755 13.8613 19.8164L13.8643 19.8135L15.9912 17.6875H7.34375C4.91383 17.6875 2.93754 15.7112 2.9375 13.2812V10.9062C2.9375 10.6825 3.02636 10.4678 3.18457 10.3096C3.3428 10.1513 3.55747 10.0625 3.78125 10.0625ZM8.52734 1.75781C8.74843 1.75979 8.95984 1.84858 9.11621 2.00488C9.27254 2.16121 9.36123 2.3727 9.36328 2.59375C9.3652 2.81486 9.2805 3.02839 9.12695 3.1875L8.69727 3.63281V3.6084L6.99707 5.30859H15.6445C18.0743 5.30868 20.0506 7.28507 20.0508 9.71484V12.0898C20.0508 12.3135 19.9618 12.5283 19.8037 12.6865C19.6455 12.8447 19.4308 12.9336 19.207 12.9336C18.9833 12.9336 18.7686 12.8448 18.6104 12.6865C18.4522 12.5283 18.3633 12.3136 18.3633 12.0898V9.71484C18.3632 8.99388 18.0762 8.30277 17.5664 7.79297C17.0566 7.28318 16.3655 6.99614 15.6445 6.99609H6.99707L9.12695 9.12598C9.28052 9.28509 9.3652 9.4986 9.36328 9.71973C9.36125 9.9408 9.27255 10.1523 9.11621 10.3086C8.95983 10.4649 8.74844 10.5537 8.52734 10.5557C8.30621 10.5576 8.0927 10.4729 7.93359 10.3193L7.93066 10.3154L4.36816 6.75293C4.21016 6.59482 4.12122 6.38074 4.12109 6.15723C4.12109 5.93353 4.21003 5.71877 4.36816 5.56055L7.93359 1.99512C8.09273 1.84142 8.30612 1.75589 8.52734 1.75781Z" fill="#F6F2ED" stroke="#F6F2ED" stroke-width="0.5"/>
</svg>
