<svg width="10" height="13" viewBox="0 0 10 13" fill="none" xmlns="http://www.w3.org/2000/svg">
<path d="M6.5 6.63026C6.5 6.39589 6.78173 6.27361 6.95178 6.43665L9.59391 8.96375C9.81472 9.17519 9.81472 9.52929 9.59391 9.73819L6.94924 12.2653C6.77919 12.4283 6.49746 12.306 6.49746 12.0717V10.8565H0.532995C0.238579 10.8565 0 10.6171 0 10.3216V8.38038C0 8.08487 0.238579 7.84541 0.532995 7.84541H6.5V6.63026ZM3.5 0.608007C3.5 0.373639 3.21827 0.25136 3.04822 0.414399L0.406091 2.9415C0.185279 3.15294 0.185279 3.5045 0.406091 3.71594L3.05076 6.24304C3.22081 6.40608 3.50254 6.2838 3.50254 6.04943V4.83428H9.467C9.76142 4.83428 10 4.59482 10 4.29931V2.35813C10 2.06262 9.76142 1.82316 9.467 1.82316H3.5V0.608007Z" fill="#56BFAE"/>
</svg>
