<svg width="10" height="10" viewBox="0 0 10 10" fill="none" xmlns="http://www.w3.org/2000/svg">
<g clip-path="url(#clip0_4048_25377)">
<path d="M0 6.15294C0 3.29446 2.31725 0.977234 5.1757 0.977234H6.25V0.293543C6.25 0.0398907 6.55043 -0.0938983 6.73895 0.0757892L8.69207 1.8336C8.82139 1.94999 8.82139 2.15274 8.69207 2.26913L6.73895 4.02694C6.55043 4.19663 6.25 4.06282 6.25 3.80919V3.12567H5.25084C3.19686 3.12567 1.34594 4.36522 0.563867 6.26448C0.44168 6.56122 0 6.47386 0 6.15294ZM10 3.84708C10 6.70554 7.68275 9.02278 4.8243 9.02278H3.75V9.70645C3.75 9.96011 3.44957 10.0939 3.26105 9.92421L1.30793 8.16639C1.17861 8.05001 1.17861 7.84725 1.30793 7.73087L3.26105 5.97305C3.44959 5.80337 3.75 5.93718 3.75 6.19081V6.87432H4.74916C6.80314 6.87432 8.65406 5.63477 9.43613 3.73552C9.55832 3.4388 10 3.52616 10 3.84708Z" fill="#272421"/>
</g>
<defs>
<clipPath id="clip0_4048_25377">
<rect width="10" height="10" fill="white"/>
</clipPath>
</defs>
</svg>
