<svg width="15" height="22" viewBox="0 0 15 22" fill="none" xmlns="http://www.w3.org/2000/svg">
<g clip-path="url(#clip0_4574_4697)">
<path d="M11.0718 18.9492C10.8846 18.8088 10.6744 18.6927 10.5139 18.5236C9.57769 17.5403 8.64947 16.5497 7.7292 15.5519C7.30792 15.0987 7.48299 14.3928 8.05078 14.2371C8.12469 14.22 8.2003 14.2125 8.27593 14.2149C8.83061 14.2149 9.38531 14.2149 9.93999 14.2149H10.1305L10.1305 1.2733C10.1305 0.62775 10.4778 0.155207 11.0433 0.0257015C11.6626 -0.116653 12.3071 0.37418 12.368 1.03999C12.3788 1.15615 12.3816 1.27379 12.382 1.39093L12.382 14.2139H12.5814C13.1305 14.2139 13.6791 14.2139 14.2282 14.2139C14.5605 14.2139 14.8035 14.3671 14.9341 14.6879C15.0647 15.0087 14.994 15.3043 14.7632 15.5519C13.7919 16.5929 12.8216 17.6354 11.8433 18.6685C11.7281 18.7896 11.5624 18.8573 11.422 18.9497L11.0718 18.9492Z" fill="#F1F1F1"/>
<path d="M3.52869 22L3.35784 21.9229C2.94404 21.7336 2.69735 21.4098 2.64914 20.9303C2.64016 20.826 2.63657 20.7212 2.63838 20.6165L2.63838 7.79352C2.0102 7.79352 1.40356 7.79352 0.797378 7.79352C0.716016 7.79677 0.634575 7.78947 0.554898 7.77177C-0.0114926 7.61755 -0.187492 6.91268 0.230046 6.45645C0.668179 5.97798 1.11474 5.5079 1.55756 5.03387C2.06996 4.48521 2.58267 3.93687 3.0957 3.38886C3.51698 2.94054 3.97805 2.93906 4.39419 3.38393C5.34161 4.39723 6.28871 5.41086 7.2355 6.42482C7.60202 6.82026 7.58002 7.37634 7.17746 7.65067C7.04442 7.73649 6.89237 7.78387 6.73652 7.78807C6.13034 7.8029 5.5237 7.79451 4.89037 7.79451V8.03522C4.89037 12.1902 4.88241 16.3448 4.89739 20.4998C4.90019 21.2413 4.68066 21.7672 3.98414 22.003L3.52869 22Z" fill="#F1F1F1"/>
</g>
<defs>
<clipPath id="clip0_4574_4697">
<rect width="22" height="15" fill="white" transform="matrix(0 -1 1 0 0 22)"/>
</clipPath>
</defs>
</svg>
