<svg xmlns="http://www.w3.org/2000/svg" width="18" height="28.459" viewBox="0 0 18 28.459">
  <g id="icon_IK" transform="translate(-29.54 -507.759)">
    <path id="Path_119876" data-name="Path 119876" d="M7.932.287a.935.935,0,0,1,1.347,0l2.867,2.867a.952.952,0,0,1,0,1.347L4.5,12.146a1,1,0,0,1-.679.277H.956A.952.952,0,0,1,0,11.468V8.6a.946.946,0,0,1,.277-.679L7.922.277ZM1.911,9v1.51h1.51l6.69-6.69L8.591,2.3,1.9,8.993Z" transform="translate(29.78 527.433) rotate(-45)" fill="#2d6759" fill-rule="evenodd"/>
    <path id="Path_119877" data-name="Path 119877" d="M9.088.845A2.862,2.862,0,0,0,4.9.979L.717,5.738A2.846,2.846,0,0,0,.841,9.646l2.246,2.246A2.865,2.865,0,0,0,7,12.016L11.755,7.84a2.871,2.871,0,0,0,.134-4.186L9.041.807ZM5.332,9.35,3.421,7.439,4.245,6.6,6.156,8.5l-.834.834ZM3.954,6.9,5.866,8.807,8.591,6.082,6.679,4.17,3.945,6.886Z" transform="translate(29.54 516.761) rotate(-45)" fill="#2d6759" fill-rule="evenodd"/>
  </g>
</svg>
