<svg xmlns="http://www.w3.org/2000/svg" width="243.036" height="11.125" viewBox="0 0 243.036 11.125">
  <path id="tagline" d="M1.777,3.491a3.94,3.94,0,0,1-.952-.1v-.72a1.956,1.956,0,0,0,.366.081,2.847,2.847,0,0,0,.4.035.947.947,0,0,0,.639-.209,1.8,1.8,0,0,0,.441-.7l.3-.72L.5-4.382h.952l2,4.506L5.3-4.382h.952L3.67,1.935A3.058,3.058,0,0,1,2.91,3.114,1.667,1.667,0,0,1,1.777,3.491Zm11.88-2.125a3.478,3.478,0,0,1-1.608-.36A2.615,2.615,0,0,1,10.957-.022a3.047,3.047,0,0,1-.389-1.562,3.02,3.02,0,0,1,.395-1.556,2.719,2.719,0,0,1,1.1-1.045,3.363,3.363,0,0,1,1.6-.372,3.363,3.363,0,0,1,1.6.372,2.719,2.719,0,0,1,1.1,1.045,3.02,3.02,0,0,1,.395,1.556,3.047,3.047,0,0,1-.389,1.562,2.615,2.615,0,0,1-1.092,1.028A3.478,3.478,0,0,1,13.657,1.366Zm0-.708a2.135,2.135,0,0,0,1.6-.61,2.229,2.229,0,0,0,.6-1.632,2.245,2.245,0,0,0-.6-1.643,2.135,2.135,0,0,0-1.6-.61,2.135,2.135,0,0,0-1.6.61,2.245,2.245,0,0,0-.6,1.643,2.229,2.229,0,0,0,.6,1.632A2.135,2.135,0,0,0,13.657.658Zm10.881.708a2.3,2.3,0,0,1-1.713-.6,2.193,2.193,0,0,1-.6-1.614v-3.53h.894V-.805q0,1.463,1.521,1.463A2.2,2.2,0,0,0,25.764.379,2.588,2.588,0,0,0,26.629-.5V-4.382h.894V1.192h-.871V.356A2.487,2.487,0,0,1,24.539,1.366Zm8.756-5.748h.871v1.092a2.722,2.722,0,0,1,2.52-1.092v.72q-2.021,0-2.5,1.335V1.192h-.894Zm17.257,0h.871v.964a2.819,2.819,0,0,1,2.439-1.138,2.984,2.984,0,0,1,1.486.372A2.712,2.712,0,0,1,56.393-3.14a3.092,3.092,0,0,1,.383,1.556A3.105,3.105,0,0,1,56.4-.039,2.621,2.621,0,0,1,55.354,1a3.054,3.054,0,0,1-1.492.366,3.467,3.467,0,0,1-1.405-.285,2.261,2.261,0,0,1-1.01-.83V3.735h-.894ZM53.676.658A2.3,2.3,0,0,0,54.808.379,2,2,0,0,0,55.6-.4a2.362,2.362,0,0,0,.285-1.179A2.4,2.4,0,0,0,55.6-2.762a1.978,1.978,0,0,0-.79-.8,2.3,2.3,0,0,0-1.132-.279,2.385,2.385,0,0,0-1.388.412,2.186,2.186,0,0,0-.842,1.132V-.91a2.133,2.133,0,0,0,.83,1.138A2.369,2.369,0,0,0,53.676.658Zm8.64-5.04h.871v1.092a2.722,2.722,0,0,1,2.52-1.092v.72q-2.021,0-2.5,1.335V1.192h-.894ZM71.571-5.59a.538.538,0,0,1-.395-.163.538.538,0,0,1-.163-.395.538.538,0,0,1,.163-.395.538.538,0,0,1,.395-.163.557.557,0,0,1,.4.163.528.528,0,0,1,.168.395.528.528,0,0,1-.168.395A.557.557,0,0,1,71.571-5.59ZM71.13-4.382h.894V1.192H71.13Zm6.55,0h.952L80.4.089l1.765-4.471h.964L80.862,1.192h-.929ZM90.094,1.366A2.365,2.365,0,0,1,88.5.861a1.735,1.735,0,0,1-.586-1.388,1.767,1.767,0,0,1,.569-1.411,2.447,2.447,0,0,1,1.649-.494,4.111,4.111,0,0,1,2.079.5V-2.35a1.391,1.391,0,0,0-.43-1.121,2.073,2.073,0,0,0-1.359-.366,4.438,4.438,0,0,0-1.823.372V-4.22a3.957,3.957,0,0,1,.883-.244A5.968,5.968,0,0,1,90.5-4.556a2.789,2.789,0,0,1,1.963.6A2.157,2.157,0,0,1,93.1-2.3v3.5h-.836V.472A2.642,2.642,0,0,1,90.094,1.366Zm.221-.732a2.521,2.521,0,0,0,1.132-.25,1.721,1.721,0,0,0,.761-.7v-.894a3.683,3.683,0,0,0-.9-.389,3.82,3.82,0,0,0-1-.122,1.777,1.777,0,0,0-1.144.3,1.107,1.107,0,0,0-.354.9Q88.8.635,90.315.635Zm10.277.732A1.6,1.6,0,0,1,99.367.9a1.863,1.863,0,0,1-.435-1.324V-3.685H98.06v-.7h.871V-6.055h.894v1.672h1.405v.7H99.826V-.4a1.156,1.156,0,0,0,.232.819,1.174,1.174,0,0,0,.848.238,1.672,1.672,0,0,0,.639-.139V1.25A3.331,3.331,0,0,1,100.592,1.366Zm9.314,0a3.4,3.4,0,0,1-2.375-.778,2.79,2.79,0,0,1-.854-2.172,3.011,3.011,0,0,1,.766-2.172,2.879,2.879,0,0,1,2.183-.8,3.3,3.3,0,0,1,1.614.366,2.424,2.424,0,0,1,1,1,3.065,3.065,0,0,1,.337,1.452v.488h-5.063a1.764,1.764,0,0,0,.7,1.428A2.978,2.978,0,0,0,110,.658a5.837,5.837,0,0,0,1.074-.1,4.71,4.71,0,0,0,.946-.273v.755a4.488,4.488,0,0,1-.946.232A7.6,7.6,0,0,1,109.906,1.366Zm1.835-3.252a1.982,1.982,0,0,0-.557-1.428,2.154,2.154,0,0,0-1.568-.523,2.078,2.078,0,0,0-1.545.54,2,2,0,0,0-.557,1.411Zm18.244,3.252a3.225,3.225,0,0,1-1.4-.285,2.828,2.828,0,0,1-1.039-.865v.975h-.871V-7.39h.894v3.948a2.261,2.261,0,0,1,1.01-.83,3.467,3.467,0,0,1,1.405-.285,3.016,3.016,0,0,1,1.492.372,2.651,2.651,0,0,1,1.045,1.051,3.138,3.138,0,0,1,.377,1.55,3.092,3.092,0,0,1-.383,1.556,2.631,2.631,0,0,1-1.045,1.034A3.06,3.06,0,0,1,129.984,1.366ZM129.8.658a2.281,2.281,0,0,0,1.121-.279,2.026,2.026,0,0,0,.8-.79,2.333,2.333,0,0,0,.29-1.173,2.333,2.333,0,0,0-.29-1.173,2.067,2.067,0,0,0-.8-.8,2.244,2.244,0,0,0-1.121-.285,2.415,2.415,0,0,0-1.4.418,2.077,2.077,0,0,0-.83,1.138V-.887A2.126,2.126,0,0,0,128.4.246,2.4,2.4,0,0,0,129.8.658ZM139-5.59a.538.538,0,0,1-.395-.163.538.538,0,0,1-.163-.395.538.538,0,0,1,.163-.395A.538.538,0,0,1,139-6.7a.557.557,0,0,1,.4.163.528.528,0,0,1,.168.395.528.528,0,0,1-.168.395A.557.557,0,0,1,139-5.59Zm-.441,1.208h.894V1.192h-.894ZM147.4,1.366A1.6,1.6,0,0,1,146.179.9a1.863,1.863,0,0,1-.435-1.324V-3.685h-.871v-.7h.871V-6.055h.894v1.672h1.405v.7h-1.405V-.4a1.156,1.156,0,0,0,.232.819,1.174,1.174,0,0,0,.848.238,1.672,1.672,0,0,0,.639-.139V1.25A3.331,3.331,0,0,1,147.4,1.366Zm9.1,0a3.472,3.472,0,0,1-1.585-.354,2.615,2.615,0,0,1-1.1-1.022,3.035,3.035,0,0,1-.395-1.574,3.04,3.04,0,0,1,.4-1.574A2.66,2.66,0,0,1,154.941-4.2a3.487,3.487,0,0,1,1.6-.36,4.893,4.893,0,0,1,1.126.116,2.67,2.67,0,0,1,.871.372v.755a3.225,3.225,0,0,0-1.916-.523,2.345,2.345,0,0,0-1.661.592,2.153,2.153,0,0,0-.639,1.661,2.134,2.134,0,0,0,.639,1.655,2.31,2.31,0,0,0,1.626.586,4.017,4.017,0,0,0,1.1-.139,3.366,3.366,0,0,0,.929-.43V.844a2.728,2.728,0,0,1-.912.4A5.178,5.178,0,0,1,156.508,1.366Zm10.336,0a3.478,3.478,0,0,1-1.608-.36,2.615,2.615,0,0,1-1.092-1.028,3.047,3.047,0,0,1-.389-1.562,3.02,3.02,0,0,1,.395-1.556,2.719,2.719,0,0,1,1.1-1.045,3.363,3.363,0,0,1,1.6-.372,3.363,3.363,0,0,1,1.6.372,2.719,2.719,0,0,1,1.1,1.045,3.02,3.02,0,0,1,.395,1.556,3.047,3.047,0,0,1-.389,1.562,2.615,2.615,0,0,1-1.092,1.028A3.478,3.478,0,0,1,166.844,1.366Zm0-.708a2.135,2.135,0,0,0,1.6-.61,2.229,2.229,0,0,0,.6-1.632,2.245,2.245,0,0,0-.6-1.643,2.135,2.135,0,0,0-1.6-.61,2.135,2.135,0,0,0-1.6.61,2.245,2.245,0,0,0-.6,1.643,2.229,2.229,0,0,0,.6,1.632A2.135,2.135,0,0,0,166.844.658ZM176.03-5.59a.538.538,0,0,1-.395-.163.538.538,0,0,1-.163-.395.538.538,0,0,1,.163-.395.538.538,0,0,1,.395-.163.557.557,0,0,1,.4.163.528.528,0,0,1,.168.395.528.528,0,0,1-.168.395A.557.557,0,0,1,176.03-5.59Zm-.441,1.208h.894V1.192h-.894Zm6.782,0h.871v.836a2.421,2.421,0,0,1,.993-.766,3.219,3.219,0,0,1,1.248-.244,2.14,2.14,0,0,1,1.643.581,2.194,2.194,0,0,1,.54,1.556V1.192h-.894v-3.53a1.608,1.608,0,0,0-.348-1.109,1.427,1.427,0,0,0-1.115-.389,2.328,2.328,0,0,0-2.044,1.161V1.192h-.894Zm19.336,0h.952L204.424.089l1.765-4.471h.964l-2.265,5.574h-.929ZM214.12,1.366a2.365,2.365,0,0,1-1.6-.505,1.735,1.735,0,0,1-.586-1.388,1.767,1.767,0,0,1,.569-1.411,2.446,2.446,0,0,1,1.649-.494,4.111,4.111,0,0,1,2.079.5V-2.35a1.391,1.391,0,0,0-.43-1.121,2.073,2.073,0,0,0-1.359-.366,4.438,4.438,0,0,0-1.823.372V-4.22a3.957,3.957,0,0,1,.883-.244,5.968,5.968,0,0,1,1.022-.093,2.789,2.789,0,0,1,1.963.6,2.156,2.156,0,0,1,.639,1.655v3.5h-.836V.472A2.642,2.642,0,0,1,214.12,1.366Zm.221-.732a2.521,2.521,0,0,0,1.132-.25,1.721,1.721,0,0,0,.761-.7v-.894a3.684,3.684,0,0,0-.9-.389,3.819,3.819,0,0,0-1-.122,1.777,1.777,0,0,0-1.144.3,1.107,1.107,0,0,0-.354.9Q212.831.635,214.341.635Zm10.754.732a2.3,2.3,0,0,1-1.713-.6,2.193,2.193,0,0,1-.6-1.614v-3.53h.894V-.805q0,1.463,1.521,1.463A2.2,2.2,0,0,0,226.32.379a2.588,2.588,0,0,0,.865-.883V-4.382h.894V1.192h-.871V.356A2.487,2.487,0,0,1,225.095,1.366Zm8.756-8.756h.894V1.192h-.894Zm8.733,8.756A1.6,1.6,0,0,1,241.359.9a1.863,1.863,0,0,1-.435-1.324V-3.685h-.871v-.7h.871V-6.055h.894v1.672h1.405v.7h-1.405V-.4a1.156,1.156,0,0,0,.232.819,1.174,1.174,0,0,0,.848.238,1.672,1.672,0,0,0,.639-.139V1.25A3.331,3.331,0,0,1,242.584,1.366Z" transform="translate(-0.5 7.39)" fill="#fff6de"/>
</svg>
