<svg width="14" height="15" viewBox="0 0 14 15" fill="none" xmlns="http://www.w3.org/2000/svg">
<g clip-path="url(#clip0_4398_31959)">
<path d="M11.613 4.01367H11.3059V6.40081C11.3059 8.1694 9.86707 9.60823 8.09847 9.60823H3.51465V9.91544C3.51465 11.2317 4.58554 12.3025 5.90178 12.3025H10.8055L13.3274 14.4041C13.4012 14.4655 13.4941 14.4992 13.5901 14.4992C13.8156 14.4992 14.0001 14.3162 14.0001 14.089V6.40081C14.0001 5.08257 12.9336 4.01367 11.613 4.01367Z" fill="#F6F2ED"/>
<path d="M10.4855 6.40166V2.88714C10.4855 1.56652 9.41672 0.5 8.09834 0.5H2.38714C1.06652 0.5 0 1.56876 0 2.88711V10.5754C0 10.8024 0.18457 10.9855 0.410047 10.9855C0.504246 10.9855 0.597625 10.953 0.672711 10.8904L3.19462 8.78882H8.09834C9.41459 8.78882 10.4855 7.71804 10.4855 6.40168L10.4855 6.40166ZM5.24273 7.03152C5.01632 7.03152 4.83257 6.8478 4.83257 6.62136C4.83257 6.39493 5.01632 6.21121 5.24273 6.21121C5.46908 6.21121 5.65288 6.39493 5.65288 6.62136C5.65288 6.8478 5.46908 7.03152 5.24273 7.03152ZM5.65288 5.21754V5.30342C5.65288 5.52986 5.46919 5.71358 5.24273 5.71358C5.01618 5.71358 4.83257 5.52986 4.83257 5.30342V4.86412C4.83257 4.63755 5.01618 4.45396 5.24273 4.45396C5.62212 4.45396 5.9308 4.14517 5.9308 3.76577C5.9308 3.38624 5.62212 3.07759 5.24273 3.07759C5.05859 3.07759 4.88589 3.14914 4.75601 3.27903C4.62613 3.40891 4.55454 3.58161 4.55454 3.76523C4.55454 3.99177 4.37095 4.17571 4.14438 4.17571C3.91781 4.17571 3.73423 3.99221 3.73423 3.76577V3.76523C3.73423 3.36256 3.89115 2.9838 4.17591 2.69904C4.46078 2.41417 4.83941 2.25727 5.24221 2.25727C6.07447 2.25727 6.75112 2.93403 6.75112 3.76577C6.75112 4.45544 6.28597 5.03852 5.65288 5.21754Z" fill="#F6F2ED"/>
</g>
<defs>
<clipPath id="clip0_4398_31959">
<rect width="14" height="14" fill="white" transform="translate(0 0.5)"/>
</clipPath>
</defs>
</svg>
