<svg width="102" height="13" viewBox="0 0 102 13" fill="none" xmlns="http://www.w3.org/2000/svg">
<path d="M4.548 12.407V2.61304H0V0.165039H12.244V2.61304H7.697V12.407H4.548Z" fill="#F89521"/>
<path d="M14.885 1.45869C15.285 0.495692 15.794 0.0246919 17.298 0.0246919C17.8023 -0.0514925 18.3173 0.049868 18.7551 0.31144C19.1929 0.573012 19.5262 0.978546 19.698 1.45869L24.281 12.4077H20.973L19.873 9.60769H14.712L13.612 12.4077H10.32L14.885 1.45869ZM15.479 7.23069H19.1L17.544 3.34769C17.475 3.15569 17.421 2.96369 17.3 2.96369C17.179 2.96369 17.108 3.15569 17.037 3.34769L15.479 7.23069Z" fill="#F89521"/>
<path d="M24.8888 12.4071V2.05405C24.8538 1.80084 24.8774 1.54299 24.9576 1.30031C25.0379 1.05762 25.1727 0.836571 25.3518 0.654144C25.5308 0.471717 25.7493 0.33277 25.9904 0.247983C26.2316 0.163195 26.489 0.134825 26.7428 0.165052H33.2488C35.9598 0.165052 36.5538 1.86505 36.5538 4.31005C36.5538 6.75505 35.9598 8.49105 33.2488 8.49105H28.0358V12.4091H24.8888V12.4071ZM31.6238 6.04105C32.9358 6.04105 33.3378 5.53405 33.3378 4.31005C33.3378 3.08605 32.9378 2.61005 31.6238 2.61005H28.8608C28.2478 2.61005 28.0388 2.81905 28.0388 3.43205V6.03805L31.6238 6.04105Z" fill="#F89521"/>
<path d="M38.568 11.0787H45.407C46.333 11.0787 46.707 10.4317 46.707 9.36468C46.707 8.71668 46.567 8.06468 45.343 7.66468L40.493 6.06468C39.8294 5.91162 39.2467 5.51685 38.8584 4.95738C38.4702 4.39791 38.3042 3.71386 38.393 3.03868C38.393 1.28968 39.233 0.169678 41.173 0.169678H47.802V1.49968H41.471C40.545 1.49968 40.089 1.93768 40.089 3.07368C40.0308 3.44809 40.118 3.8306 40.3327 4.14278C40.5475 4.45496 40.8735 4.67317 41.244 4.75268L45.861 6.29168C47.488 6.83368 48.397 7.44668 48.397 9.36968C48.397 11.0317 47.749 12.4137 45.861 12.4137H38.567V11.0837L38.568 11.0787Z" fill="#F89521"/>
<path d="M50.2329 12.407V0.165039H51.8599V12.409H50.2329V12.407Z" fill="#F89521"/>
<path d="M64.7142 10.8161C64.7142 11.9531 64.1552 12.4071 63.1062 12.4071H58.6642C54.6942 12.4071 53.7842 9.69609 53.7842 6.28509C53.7842 2.87409 54.6932 0.163086 58.8912 0.163086H64.4362V1.49309H59.4362C56.3752 1.49309 55.4832 2.96309 55.4832 6.28509C55.4832 9.60709 56.3752 11.0771 59.1912 11.0771H62.2912C62.9042 11.0771 63.0962 10.8681 63.0962 10.2551V6.60009H64.7142V10.8161Z" fill="#F89521"/>
<path d="M77.676 11.008C77.7007 11.2094 77.6804 11.4139 77.6166 11.6065C77.5527 11.7992 77.4469 11.9753 77.3067 12.1221C77.1666 12.2689 76.9956 12.3828 76.8062 12.4556C76.6167 12.5284 76.4134 12.5582 76.211 12.543C75.8781 12.5577 75.5482 12.4743 75.2623 12.3031C74.9765 12.1319 74.7472 11.8804 74.603 11.58L68.831 2.34496C68.708 2.13596 68.604 2.04496 68.481 2.04496C68.412 2.04496 68.237 2.11396 68.237 2.39496V12.407H66.641V1.47596C66.6282 1.27776 66.6586 1.07914 66.7302 0.893858C66.8017 0.708573 66.9126 0.541041 67.0553 0.402854C67.1979 0.264666 67.3689 0.159124 67.5564 0.0935303C67.7439 0.0279361 67.9433 0.0038558 68.141 0.0229564C68.4615 0.00359414 68.7808 0.0775437 69.0601 0.235854C69.3395 0.394164 69.567 0.630048 69.715 0.914957L75.539 10.221C75.627 10.361 75.697 10.521 75.871 10.521C76.08 10.521 76.08 10.329 76.08 10.221V0.164957H77.671L77.676 11.008Z" fill="#F89521"/>
<path d="M81.665 12.407C81.4309 12.4388 81.1927 12.4157 80.9691 12.3397C80.7455 12.2636 80.5426 12.1367 80.3764 11.9689C80.2102 11.801 80.0853 11.5969 80.0115 11.3726C79.9376 11.1482 79.9169 10.9098 79.951 10.676V1.89604C79.951 0.584039 80.598 0.165039 81.665 0.165039H89.241V1.49504H82.385C81.703 1.49504 81.585 1.70404 81.585 2.31704V5.48404H89.071V6.81404H81.585V10.242C81.585 10.855 81.708 11.082 82.385 11.082H89.312V12.412H81.668L81.665 12.407Z" fill="#F89521"/>
<path d="M91.0572 2.01709C91.0572 0.705086 91.7042 0.163086 92.8572 0.163086H98.5232C100.779 0.163086 101.496 1.59709 101.496 3.87109C101.496 6.21509 100.831 7.77109 98.7162 7.77109H96.7392V7.85909L101.758 12.4071H99.5892L94.9012 8.10709C94.778 8.01543 94.6743 7.90013 94.5961 7.76791C94.518 7.6357 94.467 7.48924 94.4462 7.33709V7.05709C94.4462 6.69009 94.7092 6.44409 95.1802 6.44409H98.1722C99.6592 6.44409 99.7992 5.36009 99.7992 3.87309C99.7992 2.35109 99.5552 1.49409 97.9102 1.49409H93.5562C92.9972 1.49409 92.6822 1.66909 92.6822 2.33409V12.4071H91.0552V2.01709H91.0572Z" fill="#F89521"/>
</svg>
