<svg width="45" height="29" viewBox="0 0 45 29" fill="none" xmlns="http://www.w3.org/2000/svg">
<path d="M43.7189 28.3277H1.70242C1.42928 28.3271 1.1675 28.2184 0.974365 28.0252C0.781227 27.8321 0.672463 27.5703 0.671875 27.2972V1.56244C0.674219 1.29047 0.783758 1.03039 0.976706 0.838694C1.16965 0.646996 1.43043 0.53915 1.70242 0.538574H43.7189C43.9905 0.539735 44.2507 0.647839 44.4432 0.839474C44.6357 1.03111 44.7449 1.29085 44.7472 1.56244V27.2927C44.7478 27.5662 44.6399 27.8288 44.4471 28.0229C44.2543 28.2169 43.9924 28.3265 43.7189 28.3277Z" fill="#41594C"/>
<path d="M0.678711 6.44238H44.7496H0.678711Z" fill="#F1F1F1"/>
<path d="M0.678711 6.44238H44.7496" stroke="#F1F1F1" stroke-width="2"/>
</svg>
