<svg width="117" height="15" viewBox="0 0 117 15" fill="none" xmlns="http://www.w3.org/2000/svg">
<path d="M4.548 14.407V4.61304H0V2.16504H12.244V4.61304H7.697V14.407H4.548Z" fill="#F89521"/>
<path d="M14.885 3.45869C15.285 2.49569 15.794 2.02469 17.298 2.02469C17.8023 1.94851 18.3173 2.04987 18.7551 2.31144C19.1929 2.57301 19.5262 2.97855 19.698 3.45869L24.281 14.4077H20.973L19.873 11.6077H14.712L13.612 14.4077H10.32L14.885 3.45869ZM15.479 9.23069H19.1L17.544 5.34769C17.475 5.15569 17.421 4.96369 17.3 4.96369C17.179 4.96369 17.108 5.15569 17.037 5.34769L15.479 9.23069Z" fill="#F89521"/>
<path d="M24.8888 14.4071V4.05405C24.8538 3.80084 24.8774 3.54299 24.9576 3.30031C25.0379 3.05762 25.1727 2.83657 25.3518 2.65414C25.5308 2.47172 25.7493 2.33277 25.9904 2.24798C26.2316 2.1632 26.489 2.13483 26.7428 2.16505H33.2488C35.9598 2.16505 36.5538 3.86505 36.5538 6.31005C36.5538 8.75505 35.9598 10.4911 33.2488 10.4911H28.0358V14.4091H24.8888V14.4071ZM31.6238 8.04105C32.9358 8.04105 33.3378 7.53405 33.3378 6.31005C33.3378 5.08605 32.9378 4.61005 31.6238 4.61005H28.8608C28.2478 4.61005 28.0388 4.81905 28.0388 5.43205V8.03805L31.6238 8.04105Z" fill="#F89521"/>
<path d="M38.568 13.0787H45.407C46.333 13.0787 46.707 12.4317 46.707 11.3647C46.707 10.7167 46.567 10.0647 45.343 9.66468L40.493 8.06468C39.8294 7.91162 39.2467 7.51685 38.8584 6.95738C38.4702 6.39791 38.3042 5.71386 38.393 5.03868C38.393 3.28968 39.233 2.16968 41.173 2.16968H47.802V3.49968H41.471C40.545 3.49968 40.089 3.93768 40.089 5.07368C40.0308 5.44809 40.118 5.8306 40.3327 6.14278C40.5475 6.45496 40.8735 6.67317 41.244 6.75268L45.861 8.29168C47.488 8.83368 48.397 9.44668 48.397 11.3697C48.397 13.0317 47.749 14.4137 45.861 14.4137H38.567V13.0837L38.568 13.0787Z" fill="#F89521"/>
<path d="M50.2329 14.407V2.16504H51.8599V14.409H50.2329V14.407Z" fill="#F89521"/>
<path d="M64.7142 12.8161C64.7142 13.9531 64.1552 14.4071 63.1062 14.4071H58.6642C54.6942 14.4071 53.7842 11.6961 53.7842 8.28509C53.7842 4.87409 54.6932 2.16309 58.8912 2.16309H64.4362V3.49309H59.4362C56.3752 3.49309 55.4832 4.96309 55.4832 8.28509C55.4832 11.6071 56.3752 13.0771 59.1912 13.0771H62.2912C62.9042 13.0771 63.0962 12.8681 63.0962 12.2551V8.60009H64.7142V12.8161Z" fill="#F89521"/>
<path d="M77.676 13.008C77.7007 13.2094 77.6804 13.4139 77.6166 13.6065C77.5527 13.7992 77.4469 13.9753 77.3067 14.1221C77.1666 14.2689 76.9956 14.3828 76.8062 14.4556C76.6167 14.5284 76.4134 14.5582 76.211 14.543C75.8781 14.5577 75.5482 14.4743 75.2623 14.3031C74.9765 14.1319 74.7472 13.8804 74.603 13.58L68.831 4.34496C68.708 4.13596 68.604 4.04496 68.481 4.04496C68.412 4.04496 68.237 4.11396 68.237 4.39496V14.407H66.641V3.47596C66.6282 3.27776 66.6586 3.07914 66.7302 2.89386C66.8017 2.70857 66.9126 2.54104 67.0553 2.40285C67.1979 2.26467 67.3689 2.15912 67.5564 2.09353C67.7439 2.02794 67.9433 2.00386 68.141 2.02296C68.4615 2.00359 68.7808 2.07754 69.0601 2.23585C69.3395 2.39416 69.567 2.63005 69.715 2.91496L75.539 12.221C75.627 12.361 75.697 12.521 75.871 12.521C76.08 12.521 76.08 12.329 76.08 12.221V2.16496H77.671L77.676 13.008Z" fill="#F89521"/>
<path d="M81.665 14.407C81.4309 14.4388 81.1927 14.4157 80.9691 14.3397C80.7455 14.2636 80.5426 14.1367 80.3764 13.9689C80.2102 13.801 80.0853 13.5969 80.0115 13.3726C79.9376 13.1482 79.9169 12.9098 79.951 12.676V3.89604C79.951 2.58404 80.598 2.16504 81.665 2.16504H89.241V3.49504H82.385C81.703 3.49504 81.585 3.70404 81.585 4.31704V7.48404H89.071V8.81404H81.585V12.242C81.585 12.855 81.708 13.082 82.385 13.082H89.312V14.412H81.668L81.665 14.407Z" fill="#F89521"/>
<path d="M91.0572 4.01709C91.0572 2.70509 91.7042 2.16309 92.8572 2.16309H98.5232C100.779 2.16309 101.496 3.59709 101.496 5.87109C101.496 8.21509 100.831 9.77109 98.7162 9.77109H96.7392V9.85909L101.758 14.4071H99.5892L94.9012 10.1071C94.778 10.0154 94.6743 9.90013 94.5961 9.76791C94.518 9.6357 94.467 9.48924 94.4462 9.33709V9.05709C94.4462 8.69009 94.7092 8.44409 95.1802 8.44409H98.1722C99.6592 8.44409 99.7992 7.36009 99.7992 5.87309C99.7992 4.35109 99.5552 3.49409 97.9102 3.49409H93.5562C92.9972 3.49409 92.6822 3.66909 92.6822 4.33409V14.4071H91.0552V4.01709H91.0572Z" fill="#F89521"/>
<path d="M114.89 1.01226H114.558V0.822266H115.458V1.01226H115.127V1.91227H114.89V1.01226Z" fill="#F89521"/>
<path d="M116.534 1.50626C116.534 1.31926 116.534 1.10626 116.541 0.987263H116.534C116.482 1.21026 116.373 1.57626 116.267 1.91726H116.067C115.987 1.61726 115.875 1.20226 115.826 0.984264H115.819C115.828 1.11226 115.833 1.33726 115.833 1.52626V1.91227H115.617V0.822266H115.968C116.053 1.10827 116.15 1.46626 116.183 1.63126C116.209 1.48726 116.33 1.10327 116.422 0.822266H116.761V1.91227H116.532L116.534 1.50626Z" fill="#F89521"/>
</svg>
