<svg width="21" height="5" viewBox="0 0 21 5" fill="none" xmlns="http://www.w3.org/2000/svg">
<path d="M2.80769 4.61545C4.0822 4.61545 5.11538 3.58226 5.11538 2.30775C5.11538 1.03325 4.0822 6.10352e-05 2.80769 6.10352e-05C1.53319 6.10352e-05 0.5 1.03325 0.5 2.30775C0.5 3.58226 1.53319 4.61545 2.80769 4.61545Z" fill="#F1F1F1"/>
<path d="M10.4991 4.61545C11.7736 4.61545 12.8068 3.58226 12.8068 2.30775C12.8068 1.03325 11.7736 6.10352e-05 10.4991 6.10352e-05C9.2246 6.10352e-05 8.19141 1.03325 8.19141 2.30775C8.19141 3.58226 9.2246 4.61545 10.4991 4.61545Z" fill="#F1F1F1"/>
<path d="M18.1925 4.61545C19.467 4.61545 20.5002 3.58226 20.5002 2.30775C20.5002 1.03325 19.467 6.10352e-05 18.1925 6.10352e-05C16.918 6.10352e-05 15.8848 1.03325 15.8848 2.30775C15.8848 3.58226 16.918 4.61545 18.1925 4.61545Z" fill="#F1F1F1"/>
</svg>
