<svg width="10" height="13" viewBox="0 0 10 13" fill="none" xmlns="http://www.w3.org/2000/svg">
<g clip-path="url(#clip0_5410_6202)">
<path d="M8.56529 13H6.98224C6.96784 12.9911 6.95256 12.9836 6.93663 12.9777C6.72912 12.9374 6.53764 12.8404 6.38453 12.6981C6.23143 12.5557 6.12302 12.3738 6.07195 12.1736C6.00839 11.9449 5.86973 11.7428 5.67719 11.5982C5.48465 11.4537 5.24882 11.3746 5.0058 11.3731C4.76161 11.3758 4.52476 11.4548 4.33009 11.5986C4.13542 11.7423 3.99323 11.9432 3.92446 12.1717C3.86727 12.3339 3.78457 12.4864 3.67932 12.6238C3.50952 12.8173 3.27674 12.9482 3.01988 12.9944H1.43112C1.41301 12.9845 1.3939 12.9764 1.37411 12.9703C0.986103 12.9044 0.634821 12.706 0.383092 12.4106C0.131362 12.1153 -0.00439108 11.7423 0.00010836 11.3583V9.20706H0.165444C0.815387 9.20706 1.46723 9.20706 2.11718 9.20706C2.18046 9.21106 2.24394 9.21106 2.30722 9.20706C2.38478 9.19948 2.45948 9.17444 2.52543 9.13393C2.59139 9.09342 2.6468 9.03853 2.6873 8.97359C2.74329 8.8946 2.77562 8.80198 2.78065 8.70609C2.78569 8.6102 2.76323 8.51483 2.7158 8.43069C2.66973 8.33882 2.59721 8.26204 2.5071 8.20971C2.41698 8.15739 2.31318 8.13181 2.20839 8.13608H0.00010836V8.03231C0.00010836 6.23313 0.00010836 4.43582 0.00010836 2.6385C0.00526543 2.39835 0.0449258 2.16009 0.117933 1.93068C0.278166 1.41345 0.593789 0.954954 1.02403 0.614412C1.45427 0.273869 1.97936 0.0669277 2.53147 0.0203367C2.70493 -0.00957061 2.88281 -0.00478408 3.05433 0.0343941C3.22584 0.0735722 3.3874 0.146332 3.52919 0.248252C3.72332 0.406201 3.86324 0.61827 3.93017 0.856C3.96962 0.995059 4.03757 1.12488 4.12992 1.23761C4.22228 1.35034 4.33711 1.44364 4.46749 1.51188C4.59788 1.58012 4.74109 1.62187 4.88849 1.63462C5.03589 1.64737 5.18442 1.63084 5.32508 1.58605C5.50499 1.53399 5.66783 1.43703 5.7975 1.30476C5.92716 1.17249 6.01914 1.00949 6.06434 0.831911C6.10961 0.638305 6.2114 0.461625 6.35743 0.323198C6.50345 0.184772 6.68746 0.0905269 6.88722 0.0518442C7.14678 0.00646689 7.41254 0.00646689 7.67209 0.0518442C8.3268 0.155401 8.92145 0.485104 9.34746 0.980752C9.77348 1.4764 10.0024 2.10491 9.99251 2.75152V8.13423H7.80892C7.67397 8.12877 7.54161 8.17148 7.43665 8.25438C7.3317 8.33727 7.26134 8.45464 7.23879 8.58448C7.2234 8.666 7.22763 8.74989 7.25114 8.82954C7.27464 8.9092 7.31679 8.98244 7.37427 9.04351C7.43175 9.10458 7.50298 9.15181 7.58236 9.18147C7.66174 9.21114 7.7471 9.22243 7.83172 9.21446C8.50067 9.21446 9.16203 9.21446 9.83667 9.21446H10.002V9.35343C10.002 10.0297 10.002 10.7079 10.002 11.3916C10.0096 11.6704 9.93951 11.946 9.7993 12.189C9.6591 12.4321 9.45398 12.6336 9.20573 12.772C8.99942 12.866 8.78514 12.9422 8.56529 13ZM4.98871 9.19965C5.08373 9.19965 5.17875 9.19965 5.27567 9.19965C5.42258 9.20442 5.56962 9.19511 5.71467 9.17185C5.83835 9.13803 5.94515 9.06145 6.01511 8.95641C6.08507 8.85137 6.11338 8.72507 6.09475 8.60115C6.0836 8.47325 6.02455 8.35382 5.92886 8.26565C5.83317 8.17748 5.70753 8.12674 5.57593 8.12311C5.19585 8.11199 4.79486 8.12311 4.40528 8.12311C4.34912 8.12555 4.29383 8.13746 4.24184 8.15831C4.12516 8.20072 4.02694 8.28091 3.96364 8.38547C3.90033 8.49003 3.87577 8.61261 3.89406 8.73271C3.90616 8.85165 3.96075 8.96264 4.0483 9.04631C4.13584 9.12997 4.25077 9.18096 4.37297 9.19037C4.58012 9.21076 4.78536 9.19965 4.98871 9.19965Z" fill="#DEB183"/>
</g>
<defs>
<clipPath id="clip0_5410_6202">
<rect width="10" height="13" fill="white"/>
</clipPath>
</defs>
</svg>
