<svg width="14" height="14" viewBox="0 0 14 14" fill="none" xmlns="http://www.w3.org/2000/svg">
<path d="M10.2426 5.54183C10.4038 5.36181 10.3885 5.08522 10.2085 4.92405C10.0285 4.76288 9.7519 4.77816 9.59073 4.95818L7.62538 7.15337C7.22714 7.59818 6.95895 7.89616 6.72966 8.08889C6.51123 8.27248 6.38293 8.3125 6.27085 8.3125C6.15878 8.3125 6.03048 8.27248 5.81205 8.08889C5.58275 7.89616 5.31456 7.59818 4.91632 7.15337L4.40931 6.58706C4.24813 6.40704 3.97155 6.39176 3.79153 6.55293C3.61151 6.7141 3.59623 6.99069 3.7574 7.17071L4.28607 7.7612C4.65699 8.17552 4.96637 8.52111 5.24906 8.75871C5.5481 9.01006 5.87064 9.1875 6.27085 9.1875C6.67106 9.1875 6.99361 9.01006 7.29265 8.75871C7.57533 8.52112 7.88471 8.17554 8.25561 7.76123L10.2426 5.54183Z" fill="#FAFAFA"/>
<path fill-rule="evenodd" clip-rule="evenodd" d="M7.00002 0.729172C3.53673 0.729172 0.729187 3.53672 0.729187 7C0.729187 10.4633 3.53673 13.2708 7.00002 13.2708C10.4633 13.2708 13.2709 10.4633 13.2709 7C13.2709 3.53672 10.4633 0.729172 7.00002 0.729172ZM1.60419 7C1.60419 4.01997 4.01998 1.60417 7.00002 1.60417C9.98006 1.60417 12.3959 4.01997 12.3959 7C12.3959 9.98004 9.98006 12.3958 7.00002 12.3958C4.01998 12.3958 1.60419 9.98004 1.60419 7Z" fill="#FAFAFA"/>
</svg>
