<svg width="15" height="15" viewBox="0 0 15 15" fill="none" xmlns="http://www.w3.org/2000/svg">
<mask id="path-1-inside-1_1067_3037" fill="white">
<path d="M7.53568 15C5.76798 14.9953 4.05782 14.3736 2.70248 13.243C1.34713 12.1124 0.432312 10.5443 0.11704 8.81132C-0.213334 6.96603 0.161534 5.06436 1.16785 3.48062C2.17416 1.89688 3.73902 0.745785 5.55444 0.25391C6.01139 0.144667 6.47451 0.0628814 6.94131 0.00899501C7.01102 -0.00437367 7.08279 -0.00282617 7.15185 0.0135409C7.22092 0.029908 7.2857 0.0607201 7.34191 0.103929C7.39811 0.147137 7.44446 0.201757 7.47787 0.264167C7.51127 0.326577 7.53097 0.395351 7.53568 0.465926C7.53994 0.534979 7.52995 0.604168 7.50633 0.669225C7.48271 0.734282 7.44595 0.793824 7.39834 0.844177C7.35072 0.894531 7.29324 0.934628 7.22947 0.961991C7.16569 0.989355 7.09696 1.00341 7.02752 1.00328C5.65841 1.11134 4.35821 1.64621 3.31141 2.53201C2.26461 3.41781 1.52437 4.60955 1.19572 5.93814C0.808003 7.51568 1.02578 9.18062 1.80633 10.6065C2.58688 12.0323 3.8739 13.1162 5.41502 13.6457C6.68374 14.0851 8.05795 14.1221 9.34865 13.7516C10.6393 13.3811 11.7831 12.6213 12.6227 11.5767C12.6781 11.494 12.7549 11.4279 12.8451 11.3854C12.9352 11.3429 13.0353 11.3256 13.1345 11.3354C13.2244 11.3473 13.3094 11.3833 13.3804 11.4396C13.4514 11.4959 13.5057 11.5703 13.5376 11.655C13.5694 11.7396 13.5776 11.8313 13.5612 11.9202C13.5448 12.0091 13.5045 12.0919 13.4445 12.1597C12.8835 12.8644 12.2 13.4631 11.4266 13.9271C10.2517 14.6307 8.90646 15.0017 7.53568 15Z"/>
<path d="M6.45906 5.47963V3.52579C6.45269 3.42878 6.47479 3.33202 6.52267 3.24731C6.57056 3.16261 6.64217 3.09362 6.72874 3.04876C6.80651 3.00438 6.89525 2.98273 6.9848 2.98628C7.07435 2.98984 7.16107 3.01846 7.23505 3.06886C7.31061 3.11649 7.37182 3.1836 7.41219 3.26308C7.45256 3.34256 7.47059 3.43145 7.46435 3.52031C7.46435 3.9681 7.46435 4.41773 7.46435 4.86552C7.46435 5.68251 7.46435 6.50133 7.46435 7.31832C7.45658 7.43526 7.48382 7.55187 7.5426 7.65338C7.60138 7.75489 7.68907 7.83674 7.79457 7.88857C8.75033 8.42592 9.70059 8.97242 10.6545 9.51159C10.734 9.54613 10.8042 9.59889 10.8594 9.6656C10.9145 9.7323 10.9531 9.81105 10.9719 9.89542C10.994 9.98707 10.9884 10.0832 10.9558 10.1717C10.9231 10.2602 10.8649 10.337 10.7884 10.3926C10.7115 10.4542 10.6173 10.4906 10.5188 10.4968C10.4203 10.503 10.3222 10.4787 10.2381 10.4273C9.87119 10.2262 9.52081 10.0197 9.16125 9.81683C8.53141 9.45128 7.90096 9.09244 7.2699 8.74029C7.01831 8.60824 6.80915 8.40824 6.66639 8.16321C6.52363 7.91818 6.45305 7.63804 6.46274 7.35488C6.45723 6.7298 6.45906 6.10472 6.45906 5.47963Z"/>
<path d="M14.9986 6.48306C15.0015 6.6071 14.9575 6.7277 14.8752 6.82085C14.793 6.914 14.6785 6.97285 14.5546 6.98568C14.4339 7.00174 14.3116 6.97191 14.212 6.90213C14.1124 6.83236 14.0428 6.72776 14.0171 6.60917C13.925 6.07072 13.7825 5.54203 13.5915 5.03002C13.5516 4.91213 13.5591 4.78341 13.6125 4.67093C13.6659 4.55844 13.7609 4.47096 13.8777 4.42687C13.9922 4.37979 14.1202 4.37651 14.237 4.41767C14.3538 4.45882 14.4512 4.5415 14.5106 4.64985C14.7542 5.23665 14.9182 5.85313 14.9986 6.48306Z"/>
<path d="M8.5467 0.637991C8.54745 0.560683 8.56621 0.484603 8.60151 0.415756C8.63682 0.346909 8.6877 0.287181 8.75014 0.241278C8.81258 0.195374 8.88487 0.164552 8.96131 0.151247C9.03775 0.137942 9.11625 0.142519 9.19061 0.164611C9.41446 0.213754 9.63552 0.274765 9.85285 0.347384C10.1482 0.451564 10.4399 0.564878 10.7261 0.690991C10.7915 0.714176 10.8512 0.750798 10.9015 0.798481C10.9518 0.846164 10.9915 0.903847 11.0179 0.967783C11.0444 1.03172 11.0571 1.10048 11.0551 1.16961C11.0532 1.23875 11.0367 1.30671 11.0067 1.36908C10.9459 1.49129 10.8392 1.58463 10.7097 1.62879C10.5801 1.67295 10.4383 1.66434 10.3151 1.60485C9.8712 1.44036 9.42359 1.28866 8.9723 1.1461C8.85342 1.12333 8.74609 1.0603 8.66852 0.967694C8.59095 0.875087 8.54791 0.758603 8.5467 0.637991Z"/>
<path d="M14.9967 8.55387C14.9227 9.12529 14.7734 9.68451 14.5528 10.2171C14.4982 10.332 14.4006 10.421 14.2809 10.4651C14.1613 10.5091 14.029 10.5048 13.9126 10.4529C13.7989 10.4039 13.7074 10.315 13.6553 10.2031C13.6032 10.0912 13.5942 9.96413 13.63 9.84607C13.7597 9.35868 13.8863 8.87128 14.0098 8.38389C14.0372 8.26062 14.1106 8.15236 14.2152 8.08108C14.3198 8.0098 14.4477 7.98083 14.573 8.00007C14.7017 8.02 14.8177 8.08877 14.8967 8.192C14.9757 8.29523 15.0115 8.4249 14.9967 8.55387Z"/>
<path d="M11.5314 2.13307C11.5379 2.04081 11.5671 1.95155 11.6164 1.87316C11.6656 1.79476 11.7335 1.72962 11.8139 1.68345C11.8915 1.63273 11.9831 1.60741 12.0758 1.61101C12.1685 1.61462 12.2578 1.64697 12.3312 1.70355C12.7745 2.04371 13.1657 2.44638 13.4925 2.89889C13.558 3.0011 13.5822 3.12421 13.5605 3.24352C13.5387 3.36283 13.4725 3.46954 13.3751 3.54224C13.2808 3.61852 13.1616 3.65736 13.0404 3.65129C12.9191 3.64522 12.8044 3.59465 12.7183 3.50935C12.3698 3.15842 12.023 2.80567 11.6873 2.44378C11.6209 2.34805 11.5684 2.24344 11.5314 2.13307Z"/>
</mask>
<path d="M7.53568 15C5.76798 14.9953 4.05782 14.3736 2.70248 13.243C1.34713 12.1124 0.432312 10.5443 0.11704 8.81132C-0.213334 6.96603 0.161534 5.06436 1.16785 3.48062C2.17416 1.89688 3.73902 0.745785 5.55444 0.25391C6.01139 0.144667 6.47451 0.0628814 6.94131 0.00899501C7.01102 -0.00437367 7.08279 -0.00282617 7.15185 0.0135409C7.22092 0.029908 7.2857 0.0607201 7.34191 0.103929C7.39811 0.147137 7.44446 0.201757 7.47787 0.264167C7.51127 0.326577 7.53097 0.395351 7.53568 0.465926C7.53994 0.534979 7.52995 0.604168 7.50633 0.669225C7.48271 0.734282 7.44595 0.793824 7.39834 0.844177C7.35072 0.894531 7.29324 0.934628 7.22947 0.961991C7.16569 0.989355 7.09696 1.00341 7.02752 1.00328C5.65841 1.11134 4.35821 1.64621 3.31141 2.53201C2.26461 3.41781 1.52437 4.60955 1.19572 5.93814C0.808003 7.51568 1.02578 9.18062 1.80633 10.6065C2.58688 12.0323 3.8739 13.1162 5.41502 13.6457C6.68374 14.0851 8.05795 14.1221 9.34865 13.7516C10.6393 13.3811 11.7831 12.6213 12.6227 11.5767C12.6781 11.494 12.7549 11.4279 12.8451 11.3854C12.9352 11.3429 13.0353 11.3256 13.1345 11.3354C13.2244 11.3473 13.3094 11.3833 13.3804 11.4396C13.4514 11.4959 13.5057 11.5703 13.5376 11.655C13.5694 11.7396 13.5776 11.8313 13.5612 11.9202C13.5448 12.0091 13.5045 12.0919 13.4445 12.1597C12.8835 12.8644 12.2 13.4631 11.4266 13.9271C10.2517 14.6307 8.90646 15.0017 7.53568 15Z" fill="#FDF7F0"/>
<path d="M6.45906 5.47963V3.52579C6.45269 3.42878 6.47479 3.33202 6.52267 3.24731C6.57056 3.16261 6.64217 3.09362 6.72874 3.04876C6.80651 3.00438 6.89525 2.98273 6.9848 2.98628C7.07435 2.98984 7.16107 3.01846 7.23505 3.06886C7.31061 3.11649 7.37182 3.1836 7.41219 3.26308C7.45256 3.34256 7.47059 3.43145 7.46435 3.52031C7.46435 3.9681 7.46435 4.41773 7.46435 4.86552C7.46435 5.68251 7.46435 6.50133 7.46435 7.31832C7.45658 7.43526 7.48382 7.55187 7.5426 7.65338C7.60138 7.75489 7.68907 7.83674 7.79457 7.88857C8.75033 8.42592 9.70059 8.97242 10.6545 9.51159C10.734 9.54613 10.8042 9.59889 10.8594 9.6656C10.9145 9.7323 10.9531 9.81105 10.9719 9.89542C10.994 9.98707 10.9884 10.0832 10.9558 10.1717C10.9231 10.2602 10.8649 10.337 10.7884 10.3926C10.7115 10.4542 10.6173 10.4906 10.5188 10.4968C10.4203 10.503 10.3222 10.4787 10.2381 10.4273C9.87119 10.2262 9.52081 10.0197 9.16125 9.81683C8.53141 9.45128 7.90096 9.09244 7.2699 8.74029C7.01831 8.60824 6.80915 8.40824 6.66639 8.16321C6.52363 7.91818 6.45305 7.63804 6.46274 7.35488C6.45723 6.7298 6.45906 6.10472 6.45906 5.47963Z" fill="#FDF7F0"/>
<path d="M14.9986 6.48306C15.0015 6.6071 14.9575 6.7277 14.8752 6.82085C14.793 6.914 14.6785 6.97285 14.5546 6.98568C14.4339 7.00174 14.3116 6.97191 14.212 6.90213C14.1124 6.83236 14.0428 6.72776 14.0171 6.60917C13.925 6.07072 13.7825 5.54203 13.5915 5.03002C13.5516 4.91213 13.5591 4.78341 13.6125 4.67093C13.6659 4.55844 13.7609 4.47096 13.8777 4.42687C13.9922 4.37979 14.1202 4.37651 14.237 4.41767C14.3538 4.45882 14.4512 4.5415 14.5106 4.64985C14.7542 5.23665 14.9182 5.85313 14.9986 6.48306Z" fill="#FDF7F0"/>
<path d="M8.5467 0.637991C8.54745 0.560683 8.56621 0.484603 8.60151 0.415756C8.63682 0.346909 8.6877 0.287181 8.75014 0.241278C8.81258 0.195374 8.88487 0.164552 8.96131 0.151247C9.03775 0.137942 9.11625 0.142519 9.19061 0.164611C9.41446 0.213754 9.63552 0.274765 9.85285 0.347384C10.1482 0.451564 10.4399 0.564878 10.7261 0.690991C10.7915 0.714176 10.8512 0.750798 10.9015 0.798481C10.9518 0.846164 10.9915 0.903847 11.0179 0.967783C11.0444 1.03172 11.0571 1.10048 11.0551 1.16961C11.0532 1.23875 11.0367 1.30671 11.0067 1.36908C10.9459 1.49129 10.8392 1.58463 10.7097 1.62879C10.5801 1.67295 10.4383 1.66434 10.3151 1.60485C9.8712 1.44036 9.42359 1.28866 8.9723 1.1461C8.85342 1.12333 8.74609 1.0603 8.66852 0.967694C8.59095 0.875087 8.54791 0.758603 8.5467 0.637991Z" fill="#FDF7F0"/>
<path d="M14.9967 8.55387C14.9227 9.12529 14.7734 9.68451 14.5528 10.2171C14.4982 10.332 14.4006 10.421 14.2809 10.4651C14.1613 10.5091 14.029 10.5048 13.9126 10.4529C13.7989 10.4039 13.7074 10.315 13.6553 10.2031C13.6032 10.0912 13.5942 9.96413 13.63 9.84607C13.7597 9.35868 13.8863 8.87128 14.0098 8.38389C14.0372 8.26062 14.1106 8.15236 14.2152 8.08108C14.3198 8.0098 14.4477 7.98083 14.573 8.00007C14.7017 8.02 14.8177 8.08877 14.8967 8.192C14.9757 8.29523 15.0115 8.4249 14.9967 8.55387Z" fill="#FDF7F0"/>
<path d="M11.5314 2.13307C11.5379 2.04081 11.5671 1.95155 11.6164 1.87316C11.6656 1.79476 11.7335 1.72962 11.8139 1.68345C11.8915 1.63273 11.9831 1.60741 12.0758 1.61101C12.1685 1.61462 12.2578 1.64697 12.3312 1.70355C12.7745 2.04371 13.1657 2.44638 13.4925 2.89889C13.558 3.0011 13.5822 3.12421 13.5605 3.24352C13.5387 3.36283 13.4725 3.46954 13.3751 3.54224C13.2808 3.61852 13.1616 3.65736 13.0404 3.65129C12.9191 3.64522 12.8044 3.59465 12.7183 3.50935C12.3698 3.15842 12.023 2.80567 11.6873 2.44378C11.6209 2.34805 11.5684 2.24344 11.5314 2.13307Z" fill="#FDF7F0"/>
<path d="M7.53568 15L7.53303 16L7.53444 16L7.53568 15ZM0.11704 8.81132L-0.867312 8.98755L-0.866811 8.99031L0.11704 8.81132ZM5.55444 0.25391L5.32192 -0.718682L5.30737 -0.715203L5.29293 -0.71129L5.55444 0.25391ZM6.94131 0.00899501L7.05598 1.0024L7.09302 0.998122L7.12964 0.991099L6.94131 0.00899501ZM7.53568 0.465926L8.53379 0.404326L8.53346 0.399458L7.53568 0.465926ZM7.02752 1.00328L7.0294 0.00327972L6.98906 0.00320395L6.94884 0.00637812L7.02752 1.00328ZM1.19572 5.93814L0.224975 5.698L0.224614 5.69947L1.19572 5.93814ZM5.41502 13.6457L5.7423 12.7007L5.73991 12.6999L5.41502 13.6457ZM12.6227 11.5767L13.4021 12.2031L13.4293 12.1693L13.4535 12.1332L12.6227 11.5767ZM13.1345 11.3354L13.2656 10.344L13.2491 10.3418L13.2324 10.3402L13.1345 11.3354ZM13.4445 12.1597L12.6951 11.4976L12.6781 11.5168L12.6622 11.5369L13.4445 12.1597ZM11.4266 13.9271L11.9404 14.785L11.9411 14.7846L11.4266 13.9271ZM6.45906 3.52579H7.45906V3.49297L7.45691 3.46021L6.45906 3.52579ZM6.72874 3.04876L7.18877 3.93667L7.20677 3.92734L7.22439 3.91728L6.72874 3.04876ZM7.23505 3.06886L6.67195 3.89526L6.68673 3.90532L6.70185 3.91486L7.23505 3.06886ZM7.46435 3.52031L6.46681 3.45034L6.46435 3.48528V3.52031H7.46435ZM7.46435 7.31832L8.46215 7.38464L8.46435 7.35152V7.31832H7.46435ZM7.79457 7.88857L8.28465 7.01689L8.26044 7.00329L8.23552 6.99104L7.79457 7.88857ZM10.6545 9.51159L10.1625 10.3822L10.2081 10.408L10.2562 10.4288L10.6545 9.51159ZM10.9719 9.89542L9.99581 10.1129L9.99776 10.1216L9.99986 10.1303L10.9719 9.89542ZM10.7884 10.3926L10.2008 9.58345L10.1818 9.59725L10.1634 9.61192L10.7884 10.3926ZM10.2381 10.4273L10.7597 9.57412L10.7395 9.56173L10.7186 9.55032L10.2381 10.4273ZM9.16125 9.81683L8.65925 10.6818L8.66984 10.6878L9.16125 9.81683ZM7.2699 8.74029L7.75718 7.86705L7.74599 7.8608L7.73464 7.85485L7.2699 8.74029ZM6.46274 7.35488L7.46215 7.38906L7.46289 7.36757L7.4627 7.34608L6.46274 7.35488ZM14.9986 6.48306L15.9983 6.45909L15.997 6.40763L15.9905 6.35658L14.9986 6.48306ZM14.5546 6.98568L14.4516 5.991L14.4371 5.9925L14.4228 5.99441L14.5546 6.98568ZM14.0171 6.60917L13.0314 6.77784L13.0351 6.79942L13.0398 6.82082L14.0171 6.60917ZM13.5915 5.03002L12.6443 5.35073L12.6492 5.36518L12.6546 5.37948L13.5915 5.03002ZM13.8777 4.42687L14.2309 5.3624L14.2445 5.35728L14.2579 5.35177L13.8777 4.42687ZM14.5106 4.64985L15.4342 4.2665L15.4135 4.21665L15.3876 4.16933L14.5106 4.64985ZM8.5467 0.637991L7.54675 0.628373L7.54666 0.638198L7.54675 0.648023L8.5467 0.637991ZM9.19061 0.164611L8.90581 1.1232L8.94067 1.13356L8.97618 1.14135L9.19061 0.164611ZM9.85285 0.347384L10.1855 -0.595668L10.1777 -0.598434L10.1698 -0.601069L9.85285 0.347384ZM10.7261 0.690991L10.3228 1.60608L10.3569 1.62108L10.3919 1.63352L10.7261 0.690991ZM11.0067 1.36908L11.9022 1.81448L11.908 1.80232L11.0067 1.36908ZM10.3151 1.60485L10.75 0.70435L10.7072 0.683674L10.6626 0.667154L10.3151 1.60485ZM8.9723 1.1461L9.27354 0.192548L9.2178 0.174941L9.16039 0.163947L8.9723 1.1461ZM14.9967 8.55387L15.9884 8.68237L15.9894 8.67517L15.9902 8.66796L14.9967 8.55387ZM14.5528 10.2171L15.456 10.6463L15.4669 10.6233L15.4766 10.5998L14.5528 10.2171ZM13.9126 10.4529L14.3195 9.53936L14.3085 9.53459L13.9126 10.4529ZM13.63 9.84607L14.5869 10.1366L14.592 10.1199L14.5964 10.1031L13.63 9.84607ZM14.0098 8.38389L14.9791 8.62956L14.9828 8.61529L14.986 8.60092L14.0098 8.38389ZM14.573 8.00007L14.7259 7.01184L14.7248 7.01166L14.573 8.00007ZM11.5314 2.13307L10.5339 2.0624L10.5198 2.26172L10.5833 2.45116L11.5314 2.13307ZM11.8139 1.68345L12.3117 2.55077L12.3368 2.53636L12.361 2.52052L11.8139 1.68345ZM12.3312 1.70355L11.7207 2.49552L11.7224 2.49688L12.3312 1.70355ZM13.4925 2.89889L14.3345 2.35941L14.3195 2.33599L14.3032 2.31344L13.4925 2.89889ZM13.3751 3.54224L12.7769 2.74085L12.7612 2.75261L12.7459 2.76498L13.3751 3.54224ZM12.7183 3.50935L12.0088 4.21407L12.0144 4.21961L12.7183 3.50935ZM11.6873 2.44378L10.8656 3.01372L10.906 3.07193L10.9542 3.12388L11.6873 2.44378ZM7.53832 14C6.00344 13.9959 4.51903 13.4561 3.34306 12.4751L2.0619 14.0109C3.59662 15.2912 5.53252 15.9947 7.53303 16L7.53832 14ZM3.34306 12.4751C2.16717 11.4942 1.37414 10.1343 1.10089 8.63233L-0.866811 8.99031C-0.509521 10.9542 0.527097 12.7306 2.0619 14.0109L3.34306 12.4751ZM1.10139 8.63509C0.81523 7.03676 1.13983 5.38935 2.01188 4.01692L0.323818 2.94432C-0.816762 4.73937 -1.2419 6.8953 -0.867308 8.98755L1.10139 8.63509ZM2.01188 4.01692C2.88399 2.64438 4.24079 1.64589 5.81596 1.21911L5.29293 -0.71129C3.23726 -0.15432 1.46433 1.14938 0.323818 2.94432L2.01188 4.01692ZM5.78696 1.2265C6.20507 1.12654 6.62884 1.05171 7.05598 1.0024L6.82663 -0.984408C6.32018 -0.925944 5.81771 -0.83721 5.32192 -0.718682L5.78696 1.2265ZM7.12964 0.991099C7.06068 1.00432 6.98967 1.0028 6.92126 0.986591L7.38244 -0.959509C7.1759 -1.00846 6.96136 -1.01307 6.75297 -0.973109L7.12964 0.991099ZM6.92126 0.986591C6.85285 0.97038 6.78847 0.939814 6.73243 0.896732L7.95138 -0.688874C7.78293 -0.818374 7.58898 -0.910564 7.38244 -0.959509L6.92126 0.986591ZM6.73243 0.896732C6.6764 0.853663 6.62989 0.798979 6.59623 0.736094L8.35951 -0.20776C8.25903 -0.395465 8.11982 -0.559388 7.95138 -0.688874L6.73243 0.896732ZM6.59623 0.736094C6.56256 0.673183 6.54264 0.603736 6.53789 0.532394L8.53346 0.399458C8.51931 0.186966 8.45999 -0.0200297 8.35951 -0.20776L6.59623 0.736094ZM6.53758 0.527526C6.53339 0.459676 6.54321 0.391729 6.56637 0.327931L8.44629 1.01052C8.5167 0.816607 8.54649 0.610282 8.53378 0.404327L6.53758 0.527526ZM6.56637 0.327931C6.58953 0.264159 6.62547 0.206046 6.67176 0.157088L8.12491 1.53127C8.26644 1.3816 8.37589 1.2044 8.44629 1.01052L6.56637 0.327931ZM6.67176 0.157088C6.71808 0.108116 6.77373 0.0693685 6.83517 0.0430071L7.62376 1.88098C7.81275 1.79989 7.98336 1.68095 8.12491 1.53127L6.67176 0.157088ZM6.83517 0.0430071C6.89661 0.0166489 6.96269 0.00315443 7.0294 0.00327972L7.02564 2.00328C7.23123 2.00366 7.43477 1.96206 7.62376 1.88098L6.83517 0.0430071ZM6.94884 0.00637812C5.37118 0.130896 3.87247 0.747261 2.66545 1.76864L3.95737 3.29538C4.84396 2.54515 5.94564 2.09178 7.1062 2.00018L6.94884 0.00637812ZM2.66545 1.76864C1.45838 2.79006 0.60426 4.16475 0.224976 5.698L2.16645 6.17827C2.44449 5.05434 3.07085 4.04555 3.95737 3.29538L2.66545 1.76864ZM0.224614 5.69947C-0.222846 7.52012 0.0285741 9.44153 0.929164 11.0867L2.6835 10.1263C2.02298 8.91971 1.83885 7.51124 2.16682 6.1768L0.224614 5.69947ZM0.929164 11.0867C1.8297 12.7317 3.31399 13.9813 5.09013 14.5914L5.73991 12.6999C4.43382 12.2512 3.34407 11.333 2.6835 10.1263L0.929164 11.0867ZM5.08774 14.5906C6.55108 15.0974 8.13594 15.1401 9.62456 14.7128L9.07274 12.7904C7.97996 13.1041 6.8164 13.0727 5.7423 12.7007L5.08774 14.5906ZM9.62456 14.7128C11.1132 14.2855 12.433 13.4089 13.4021 12.2031L11.8432 10.9502C11.1332 11.8336 10.1655 12.4767 9.07274 12.7904L9.62456 14.7128ZM13.4535 12.1332C13.4078 12.2014 13.3448 12.2554 13.2715 12.29L12.4187 10.4809C12.1651 10.6004 11.9483 10.7866 11.7919 11.0201L13.4535 12.1332ZM13.2715 12.29C13.1981 12.3245 13.117 12.3385 13.0366 12.3306L13.2324 10.3402C12.9535 10.3128 12.6723 10.3613 12.4187 10.4809L13.2715 12.29ZM13.0034 12.3268C12.9144 12.315 12.83 12.2793 12.7592 12.2232L14.0017 10.656C13.7889 10.4873 13.5345 10.3796 13.2656 10.344L13.0034 12.3268ZM12.7592 12.2232C12.6883 12.167 12.6337 12.0924 12.6016 12.007L14.4736 11.3029C14.3778 11.0482 14.2145 10.8247 14.0017 10.656L12.7592 12.2232ZM12.6016 12.007C12.5695 11.9216 12.5612 11.8289 12.5778 11.7389L14.5446 12.1014C14.594 11.8336 14.5693 11.5576 14.4736 11.3029L12.6016 12.007ZM12.5778 11.7389C12.5943 11.649 12.6351 11.5656 12.6951 11.4976L14.194 12.8218C14.3739 12.6181 14.4953 12.3692 14.5446 12.1014L12.5778 11.7389ZM12.6622 11.5369C12.1758 12.1479 11.583 12.6671 10.9121 13.0696L11.9411 14.7846C12.817 14.2591 13.5912 13.581 14.2269 12.7825L12.6622 11.5369ZM10.9128 13.0692C9.89372 13.6795 8.7265 14.0015 7.53691 14L7.53444 16C9.08643 16.0019 10.6098 15.582 11.9404 14.785L10.9128 13.0692ZM7.45906 5.47963V3.52579H5.45906V5.47963H7.45906ZM7.45691 3.46021C7.46332 3.55769 7.44108 3.65474 7.3932 3.73943L5.65214 2.7552C5.50849 3.00931 5.44206 3.29988 5.46122 3.59138L7.45691 3.46021ZM7.3932 3.73943C7.34534 3.8241 7.27413 3.89244 7.18877 3.93667L6.26871 2.16086C6.0102 2.29479 5.79578 2.50111 5.65214 2.7552L7.3932 3.73943ZM7.22439 3.91728C7.13932 3.96583 7.04255 3.98937 6.94512 3.9855L7.02447 1.98707C6.74795 1.97609 6.47369 2.04293 6.23309 2.18024L7.22439 3.91728ZM6.94512 3.9855C6.84769 3.98163 6.75301 3.95049 6.67195 3.89526L7.79814 2.24247C7.56913 2.08643 7.30101 1.99805 7.02447 1.98707L6.94512 3.9855ZM6.70185 3.91486C6.62493 3.86638 6.56217 3.79777 6.52061 3.71595L8.30377 2.81021C8.18146 2.56943 7.99628 2.36659 7.76824 2.22287L6.70185 3.91486ZM6.52061 3.71595C6.47904 3.6341 6.46036 3.54229 6.46681 3.45034L8.4619 3.59028C8.48082 3.32061 8.42609 3.05103 8.30377 2.81021L6.52061 3.71595ZM6.46435 3.52031C6.46435 3.93566 6.46435 4.45018 6.46435 4.86552H8.46435C8.46435 4.45018 8.46435 3.93566 8.46435 3.52031H6.46435ZM6.46435 4.86552C6.46435 4.86712 6.46435 4.86871 6.46435 4.87031C6.46435 4.8719 6.46435 4.8735 6.46435 4.87509C6.46435 4.87669 6.46435 4.87829 6.46435 4.87988C6.46435 4.88148 6.46435 4.88307 6.46435 4.88467C6.46435 4.88627 6.46435 4.88786 6.46435 4.88946C6.46435 4.89105 6.46435 4.89265 6.46435 4.89424C6.46435 4.89584 6.46435 4.89744 6.46435 4.89903C6.46435 4.90063 6.46435 4.90222 6.46435 4.90382C6.46435 4.90541 6.46435 4.90701 6.46435 4.90861C6.46435 4.9102 6.46435 4.9118 6.46435 4.91339C6.46435 4.91499 6.46435 4.91658 6.46435 4.91818C6.46435 4.91978 6.46435 4.92137 6.46435 4.92297C6.46435 4.92456 6.46435 4.92616 6.46435 4.92776C6.46435 4.92935 6.46435 4.93095 6.46435 4.93254C6.46435 4.93414 6.46435 4.93574 6.46435 4.93733C6.46435 4.93893 6.46435 4.94052 6.46435 4.94212C6.46435 4.94372 6.46435 4.94531 6.46435 4.94691C6.46435 4.9485 6.46435 4.9501 6.46435 4.95169C6.46435 4.95329 6.46435 4.95489 6.46435 4.95648C6.46435 4.95808 6.46435 4.95967 6.46435 4.96127C6.46435 4.96287 6.46435 4.96446 6.46435 4.96606C6.46435 4.96765 6.46435 4.96925 6.46435 4.97085C6.46435 4.97244 6.46435 4.97404 6.46435 4.97563C6.46435 4.97723 6.46435 4.97883 6.46435 4.98042C6.46435 4.98202 6.46435 4.98361 6.46435 4.98521C6.46435 4.98681 6.46435 4.9884 6.46435 4.99C6.46435 4.99159 6.46435 4.99319 6.46435 4.99479C6.46435 4.99638 6.46435 4.99798 6.46435 4.99957C6.46435 5.00117 6.46435 5.00277 6.46435 5.00436C6.46435 5.00596 6.46435 5.00755 6.46435 5.00915C6.46435 5.01075 6.46435 5.01234 6.46435 5.01394C6.46435 5.01554 6.46435 5.01713 6.46435 5.01873C6.46435 5.02032 6.46435 5.02192 6.46435 5.02352C6.46435 5.02511 6.46435 5.02671 6.46435 5.0283C6.46435 5.0299 6.46435 5.0315 6.46435 5.03309C6.46435 5.03469 6.46435 5.03628 6.46435 5.03788C6.46435 5.03948 6.46435 5.04107 6.46435 5.04267C6.46435 5.04427 6.46435 5.04586 6.46435 5.04746C6.46435 5.04905 6.46435 5.05065 6.46435 5.05225C6.46435 5.05384 6.46435 5.05544 6.46435 5.05703C6.46435 5.05863 6.46435 5.06023 6.46435 5.06182C6.46435 5.06342 6.46435 5.06502 6.46435 5.06661C6.46435 5.06821 6.46435 5.0698 6.46435 5.0714C6.46435 5.073 6.46435 5.07459 6.46435 5.07619C6.46435 5.07779 6.46435 5.07938 6.46435 5.08098C6.46435 5.08257 6.46435 5.08417 6.46435 5.08577C6.46435 5.08736 6.46435 5.08896 6.46435 5.09056C6.46435 5.09215 6.46435 5.09375 6.46435 5.09535C6.46435 5.09694 6.46435 5.09854 6.46435 5.10013C6.46435 5.10173 6.46435 5.10333 6.46435 5.10492C6.46435 5.10652 6.46435 5.10812 6.46435 5.10971C6.46435 5.11131 6.46435 5.1129 6.46435 5.1145C6.46435 5.1161 6.46435 5.11769 6.46435 5.11929C6.46435 5.12089 6.46435 5.12248 6.46435 5.12408C6.46435 5.12568 6.46435 5.12727 6.46435 5.12887C6.46435 5.13046 6.46435 5.13206 6.46435 5.13366C6.46435 5.13525 6.46435 5.13685 6.46435 5.13845C6.46435 5.14004 6.46435 5.14164 6.46435 5.14324C6.46435 5.14483 6.46435 5.14643 6.46435 5.14803C6.46435 5.14962 6.46435 5.15122 6.46435 5.15281C6.46435 5.15441 6.46435 5.15601 6.46435 5.1576C6.46435 5.1592 6.46435 5.1608 6.46435 5.16239C6.46435 5.16399 6.46435 5.16559 6.46435 5.16718C6.46435 5.16878 6.46435 5.17037 6.46435 5.17197C6.46435 5.17357 6.46435 5.17516 6.46435 5.17676C6.46435 5.17836 6.46435 5.17995 6.46435 5.18155C6.46435 5.18315 6.46435 5.18474 6.46435 5.18634C6.46435 5.18794 6.46435 5.18953 6.46435 5.19113C6.46435 5.19273 6.46435 5.19432 6.46435 5.19592C6.46435 5.19752 6.46435 5.19911 6.46435 5.20071C6.46435 5.2023 6.46435 5.2039 6.46435 5.2055C6.46435 5.20709 6.46435 5.20869 6.46435 5.21029C6.46435 5.21188 6.46435 5.21348 6.46435 5.21508C6.46435 5.21667 6.46435 5.21827 6.46435 5.21987C6.46435 5.22146 6.46435 5.22306 6.46435 5.22466C6.46435 5.22625 6.46435 5.22785 6.46435 5.22945C6.46435 5.23104 6.46435 5.23264 6.46435 5.23424C6.46435 5.23583 6.46435 5.23743 6.46435 5.23903C6.46435 5.24062 6.46435 5.24222 6.46435 5.24382C6.46435 5.24541 6.46435 5.24701 6.46435 5.24861C6.46435 5.2502 6.46435 5.2518 6.46435 5.2534C6.46435 5.25499 6.46435 5.25659 6.46435 5.25819C6.46435 5.25978 6.46435 5.26138 6.46435 5.26298C6.46435 5.26457 6.46435 5.26617 6.46435 5.26777C6.46435 5.26936 6.46435 5.27096 6.46435 5.27256C6.46435 5.27415 6.46435 5.27575 6.46435 5.27735C6.46435 5.27894 6.46435 5.28054 6.46435 5.28214C6.46435 5.28373 6.46435 5.28533 6.46435 5.28693C6.46435 5.28852 6.46435 5.29012 6.46435 5.29172C6.46435 5.29331 6.46435 5.29491 6.46435 5.29651C6.46435 5.2981 6.46435 5.2997 6.46435 5.3013C6.46435 5.30289 6.46435 5.30449 6.46435 5.30609C6.46435 5.30768 6.46435 5.30928 6.46435 5.31088C6.46435 5.31247 6.46435 5.31407 6.46435 5.31567C6.46435 5.31726 6.46435 5.31886 6.46435 5.32046C6.46435 5.32205 6.46435 5.32365 6.46435 5.32525C6.46435 5.32684 6.46435 5.32844 6.46435 5.33004C6.46435 5.33163 6.46435 5.33323 6.46435 5.33483C6.46435 5.33643 6.46435 5.33802 6.46435 5.33962C6.46435 5.34122 6.46435 5.34281 6.46435 5.34441C6.46435 5.34601 6.46435 5.3476 6.46435 5.3492C6.46435 5.3508 6.46435 5.35239 6.46435 5.35399C6.46435 5.35559 6.46435 5.35718 6.46435 5.35878C6.46435 5.36038 6.46435 5.36197 6.46435 5.36357C6.46435 5.36517 6.46435 5.36677 6.46435 5.36836C6.46435 5.36996 6.46435 5.37156 6.46435 5.37315C6.46435 5.37475 6.46435 5.37635 6.46435 5.37794C6.46435 5.37954 6.46435 5.38114 6.46435 5.38273C6.46435 5.38433 6.46435 5.38593 6.46435 5.38752C6.46435 5.38912 6.46435 5.39072 6.46435 5.39231C6.46435 5.39391 6.46435 5.39551 6.46435 5.39711C6.46435 5.3987 6.46435 5.4003 6.46435 5.4019C6.46435 5.40349 6.46435 5.40509 6.46435 5.40669C6.46435 5.40828 6.46435 5.40988 6.46435 5.41148C6.46435 5.41307 6.46435 5.41467 6.46435 5.41627C6.46435 5.41787 6.46435 5.41946 6.46435 5.42106C6.46435 5.42266 6.46435 5.42425 6.46435 5.42585C6.46435 5.42745 6.46435 5.42904 6.46435 5.43064C6.46435 5.43224 6.46435 5.43384 6.46435 5.43543C6.46435 5.43703 6.46435 5.43863 6.46435 5.44022C6.46435 5.44182 6.46435 5.44342 6.46435 5.44501C6.46435 5.44661 6.46435 5.44821 6.46435 5.4498C6.46435 5.4514 6.46435 5.453 6.46435 5.4546C6.46435 5.45619 6.46435 5.45779 6.46435 5.45939C6.46435 5.46098 6.46435 5.46258 6.46435 5.46418C6.46435 5.46577 6.46435 5.46737 6.46435 5.46897C6.46435 5.47057 6.46435 5.47216 6.46435 5.47376C6.46435 5.47536 6.46435 5.47695 6.46435 5.47855C6.46435 5.48015 6.46435 5.48174 6.46435 5.48334C6.46435 5.48494 6.46435 5.48654 6.46435 5.48813C6.46435 5.48973 6.46435 5.49133 6.46435 5.49292C6.46435 5.49452 6.46435 5.49612 6.46435 5.49771C6.46435 5.49931 6.46435 5.50091 6.46435 5.50251C6.46435 5.5041 6.46435 5.5057 6.46435 5.5073C6.46435 5.50889 6.46435 5.51049 6.46435 5.51209C6.46435 5.51369 6.46435 5.51528 6.46435 5.51688C6.46435 5.51848 6.46435 5.52007 6.46435 5.52167C6.46435 5.52327 6.46435 5.52487 6.46435 5.52646C6.46435 5.52806 6.46435 5.52966 6.46435 5.53125C6.46435 5.53285 6.46435 5.53445 6.46435 5.53605C6.46435 5.53764 6.46435 5.53924 6.46435 5.54084C6.46435 5.54243 6.46435 5.54403 6.46435 5.54563C6.46435 5.54722 6.46435 5.54882 6.46435 5.55042C6.46435 5.55202 6.46435 5.55361 6.46435 5.55521C6.46435 5.55681 6.46435 5.5584 6.46435 5.56C6.46435 5.5616 6.46435 5.5632 6.46435 5.56479C6.46435 5.56639 6.46435 5.56799 6.46435 5.56958C6.46435 5.57118 6.46435 5.57278 6.46435 5.57438C6.46435 5.57597 6.46435 5.57757 6.46435 5.57917C6.46435 5.58076 6.46435 5.58236 6.46435 5.58396C6.46435 5.58556 6.46435 5.58715 6.46435 5.58875C6.46435 5.59035 6.46435 5.59195 6.46435 5.59354C6.46435 5.59514 6.46435 5.59674 6.46435 5.59833C6.46435 5.59993 6.46435 5.60153 6.46435 5.60313C6.46435 5.60472 6.46435 5.60632 6.46435 5.60792C6.46435 5.60951 6.46435 5.61111 6.46435 5.61271C6.46435 5.61431 6.46435 5.6159 6.46435 5.6175C6.46435 5.6191 6.46435 5.62069 6.46435 5.62229C6.46435 5.62389 6.46435 5.62549 6.46435 5.62708C6.46435 5.62868 6.46435 5.63028 6.46435 5.63188C6.46435 5.63347 6.46435 5.63507 6.46435 5.63667C6.46435 5.63826 6.46435 5.63986 6.46435 5.64146C6.46435 5.64306 6.46435 5.64465 6.46435 5.64625C6.46435 5.64785 6.46435 5.64944 6.46435 5.65104C6.46435 5.65264 6.46435 5.65424 6.46435 5.65583C6.46435 5.65743 6.46435 5.65903 6.46435 5.66062C6.46435 5.66222 6.46435 5.66382 6.46435 5.66542C6.46435 5.66701 6.46435 5.66861 6.46435 5.67021C6.46435 5.67181 6.46435 5.6734 6.46435 5.675C6.46435 5.6766 6.46435 5.67819 6.46435 5.67979C6.46435 5.68139 6.46435 5.68299 6.46435 5.68458C6.46435 5.68618 6.46435 5.68778 6.46435 5.68938C6.46435 5.69097 6.46435 5.69257 6.46435 5.69417C6.46435 5.69577 6.46435 5.69736 6.46435 5.69896C6.46435 5.70056 6.46435 5.70215 6.46435 5.70375C6.46435 5.70535 6.46435 5.70695 6.46435 5.70854C6.46435 5.71014 6.46435 5.71174 6.46435 5.71334C6.46435 5.71493 6.46435 5.71653 6.46435 5.71813C6.46435 5.71972 6.46435 5.72132 6.46435 5.72292C6.46435 5.72452 6.46435 5.72611 6.46435 5.72771C6.46435 5.72931 6.46435 5.73091 6.46435 5.7325C6.46435 5.7341 6.46435 5.7357 6.46435 5.7373C6.46435 5.73889 6.46435 5.74049 6.46435 5.74209C6.46435 5.74368 6.46435 5.74528 6.46435 5.74688C6.46435 5.74848 6.46435 5.75007 6.46435 5.75167C6.46435 5.75327 6.46435 5.75487 6.46435 5.75646C6.46435 5.75806 6.46435 5.75966 6.46435 5.76125C6.46435 5.76285 6.46435 5.76445 6.46435 5.76605C6.46435 5.76764 6.46435 5.76924 6.46435 5.77084C6.46435 5.77244 6.46435 5.77403 6.46435 5.77563C6.46435 5.77723 6.46435 5.77883 6.46435 5.78042C6.46435 5.78202 6.46435 5.78362 6.46435 5.78522C6.46435 5.78681 6.46435 5.78841 6.46435 5.79001C6.46435 5.7916 6.46435 5.7932 6.46435 5.7948C6.46435 5.7964 6.46435 5.79799 6.46435 5.79959C6.46435 5.80119 6.46435 5.80279 6.46435 5.80438C6.46435 5.80598 6.46435 5.80758 6.46435 5.80918C6.46435 5.81077 6.46435 5.81237 6.46435 5.81397C6.46435 5.81557 6.46435 5.81716 6.46435 5.81876C6.46435 5.82036 6.46435 5.82195 6.46435 5.82355C6.46435 5.82515 6.46435 5.82675 6.46435 5.82834C6.46435 5.82994 6.46435 5.83154 6.46435 5.83314C6.46435 5.83473 6.46435 5.83633 6.46435 5.83793C6.46435 5.83953 6.46435 5.84112 6.46435 5.84272C6.46435 5.84432 6.46435 5.84592 6.46435 5.84751C6.46435 5.84911 6.46435 5.85071 6.46435 5.85231C6.46435 5.8539 6.46435 5.8555 6.46435 5.8571C6.46435 5.8587 6.46435 5.86029 6.46435 5.86189C6.46435 5.86349 6.46435 5.86508 6.46435 5.86668C6.46435 5.86828 6.46435 5.86988 6.46435 5.87147C6.46435 5.87307 6.46435 5.87467 6.46435 5.87627C6.46435 5.87786 6.46435 5.87946 6.46435 5.88106C6.46435 5.88266 6.46435 5.88425 6.46435 5.88585C6.46435 5.88745 6.46435 5.88905 6.46435 5.89064C6.46435 5.89224 6.46435 5.89384 6.46435 5.89544C6.46435 5.89703 6.46435 5.89863 6.46435 5.90023C6.46435 5.90183 6.46435 5.90342 6.46435 5.90502C6.46435 5.90662 6.46435 5.90822 6.46435 5.90981C6.46435 5.91141 6.46435 5.91301 6.46435 5.9146C6.46435 5.9162 6.46435 5.9178 6.46435 5.9194C6.46435 5.92099 6.46435 5.92259 6.46435 5.92419C6.46435 5.92579 6.46435 5.92738 6.46435 5.92898C6.46435 5.93058 6.46435 5.93218 6.46435 5.93377C6.46435 5.93537 6.46435 5.93697 6.46435 5.93857C6.46435 5.94016 6.46435 5.94176 6.46435 5.94336C6.46435 5.94496 6.46435 5.94655 6.46435 5.94815C6.46435 5.94975 6.46435 5.95135 6.46435 5.95294C6.46435 5.95454 6.46435 5.95614 6.46435 5.95774C6.46435 5.95933 6.46435 5.96093 6.46435 5.96253C6.46435 5.96413 6.46435 5.96572 6.46435 5.96732C6.46435 5.96892 6.46435 5.97052 6.46435 5.97211C6.46435 5.97371 6.46435 5.97531 6.46435 5.97691C6.46435 5.9785 6.46435 5.9801 6.46435 5.9817C6.46435 5.98329 6.46435 5.98489 6.46435 5.98649C6.46435 5.98809 6.46435 5.98968 6.46435 5.99128C6.46435 5.99288 6.46435 5.99448 6.46435 5.99607C6.46435 5.99767 6.46435 5.99927 6.46435 6.00087C6.46435 6.00246 6.46435 6.00406 6.46435 6.00566C6.46435 6.00726 6.46435 6.00885 6.46435 6.01045C6.46435 6.01205 6.46435 6.01365 6.46435 6.01524C6.46435 6.01684 6.46435 6.01844 6.46435 6.02004C6.46435 6.02163 6.46435 6.02323 6.46435 6.02483C6.46435 6.02643 6.46435 6.02802 6.46435 6.02962C6.46435 6.03122 6.46435 6.03282 6.46435 6.03441C6.46435 6.03601 6.46435 6.03761 6.46435 6.03921C6.46435 6.0408 6.46435 6.0424 6.46435 6.044C6.46435 6.0456 6.46435 6.04719 6.46435 6.04879C6.46435 6.05039 6.46435 6.05199 6.46435 6.05358C6.46435 6.05518 6.46435 6.05678 6.46435 6.05838C6.46435 6.05997 6.46435 6.06157 6.46435 6.06317C6.46435 6.06477 6.46435 6.06636 6.46435 6.06796C6.46435 6.06956 6.46435 6.07116 6.46435 6.07275C6.46435 6.07435 6.46435 6.07595 6.46435 6.07755C6.46435 6.07914 6.46435 6.08074 6.46435 6.08234C6.46435 6.08394 6.46435 6.08553 6.46435 6.08713C6.46435 6.08873 6.46435 6.09033 6.46435 6.09192C6.46435 6.09352 6.46435 6.09512 6.46435 6.09671C6.46435 6.09831 6.46435 6.09991 6.46435 6.10151C6.46435 6.10311 6.46435 6.1047 6.46435 6.1063C6.46435 6.1079 6.46435 6.10949 6.46435 6.11109C6.46435 6.11269 6.46435 6.11429 6.46435 6.11588C6.46435 6.11748 6.46435 6.11908 6.46435 6.12068C6.46435 6.12227 6.46435 6.12387 6.46435 6.12547C6.46435 6.12707 6.46435 6.12866 6.46435 6.13026C6.46435 6.13186 6.46435 6.13346 6.46435 6.13505C6.46435 6.13665 6.46435 6.13825 6.46435 6.13985C6.46435 6.14144 6.46435 6.14304 6.46435 6.14464C6.46435 6.14624 6.46435 6.14783 6.46435 6.14943C6.46435 6.15103 6.46435 6.15263 6.46435 6.15422C6.46435 6.15582 6.46435 6.15742 6.46435 6.15902C6.46435 6.16061 6.46435 6.16221 6.46435 6.16381C6.46435 6.16541 6.46435 6.167 6.46435 6.1686C6.46435 6.1702 6.46435 6.1718 6.46435 6.17339C6.46435 6.17499 6.46435 6.17659 6.46435 6.17819C6.46435 6.17978 6.46435 6.18138 6.46435 6.18298C6.46435 6.18458 6.46435 6.18617 6.46435 6.18777C6.46435 6.18937 6.46435 6.19097 6.46435 6.19256C6.46435 6.19416 6.46435 6.19576 6.46435 6.19736C6.46435 6.19895 6.46435 6.20055 6.46435 6.20215C6.46435 6.20375 6.46435 6.20534 6.46435 6.20694C6.46435 6.20854 6.46435 6.21013 6.46435 6.21173C6.46435 6.21333 6.46435 6.21493 6.46435 6.21653C6.46435 6.21812 6.46435 6.21972 6.46435 6.22132C6.46435 6.22291 6.46435 6.22451 6.46435 6.22611C6.46435 6.22771 6.46435 6.2293 6.46435 6.2309C6.46435 6.2325 6.46435 6.2341 6.46435 6.23569C6.46435 6.23729 6.46435 6.23889 6.46435 6.24049C6.46435 6.24208 6.46435 6.24368 6.46435 6.24528C6.46435 6.24688 6.46435 6.24847 6.46435 6.25007C6.46435 6.25167 6.46435 6.25327 6.46435 6.25486C6.46435 6.25646 6.46435 6.25806 6.46435 6.25966C6.46435 6.26125 6.46435 6.26285 6.46435 6.26445C6.46435 6.26605 6.46435 6.26764 6.46435 6.26924C6.46435 6.27084 6.46435 6.27244 6.46435 6.27403C6.46435 6.27563 6.46435 6.27723 6.46435 6.27883C6.46435 6.28042 6.46435 6.28202 6.46435 6.28362C6.46435 6.28521 6.46435 6.28681 6.46435 6.28841C6.46435 6.29001 6.46435 6.2916 6.46435 6.2932C6.46435 6.2948 6.46435 6.2964 6.46435 6.29799C6.46435 6.29959 6.46435 6.30119 6.46435 6.30279C6.46435 6.30438 6.46435 6.30598 6.46435 6.30758C6.46435 6.30918 6.46435 6.31077 6.46435 6.31237C6.46435 6.31397 6.46435 6.31557 6.46435 6.31716C6.46435 6.31876 6.46435 6.32036 6.46435 6.32196C6.46435 6.32355 6.46435 6.32515 6.46435 6.32675C6.46435 6.32835 6.46435 6.32994 6.46435 6.33154C6.46435 6.33314 6.46435 6.33473 6.46435 6.33633C6.46435 6.33793 6.46435 6.33953 6.46435 6.34112C6.46435 6.34272 6.46435 6.34432 6.46435 6.34592C6.46435 6.34751 6.46435 6.34911 6.46435 6.35071C6.46435 6.35231 6.46435 6.3539 6.46435 6.3555C6.46435 6.3571 6.46435 6.3587 6.46435 6.36029C6.46435 6.36189 6.46435 6.36349 6.46435 6.36509C6.46435 6.36668 6.46435 6.36828 6.46435 6.36988C6.46435 6.37147 6.46435 6.37307 6.46435 6.37467C6.46435 6.37627 6.46435 6.37786 6.46435 6.37946C6.46435 6.38106 6.46435 6.38266 6.46435 6.38425C6.46435 6.38585 6.46435 6.38745 6.46435 6.38905C6.46435 6.39064 6.46435 6.39224 6.46435 6.39384C6.46435 6.39544 6.46435 6.39703 6.46435 6.39863C6.46435 6.40023 6.46435 6.40182 6.46435 6.40342C6.46435 6.40502 6.46435 6.40662 6.46435 6.40821C6.46435 6.40981 6.46435 6.41141 6.46435 6.41301C6.46435 6.4146 6.46435 6.4162 6.46435 6.4178C6.46435 6.4194 6.46435 6.42099 6.46435 6.42259C6.46435 6.42419 6.46435 6.42579 6.46435 6.42738C6.46435 6.42898 6.46435 6.43058 6.46435 6.43217C6.46435 6.43377 6.46435 6.43537 6.46435 6.43697C6.46435 6.43856 6.46435 6.44016 6.46435 6.44176C6.46435 6.44336 6.46435 6.44495 6.46435 6.44655C6.46435 6.44815 6.46435 6.44975 6.46435 6.45134C6.46435 6.45294 6.46435 6.45454 6.46435 6.45613C6.46435 6.45773 6.46435 6.45933 6.46435 6.46093C6.46435 6.46252 6.46435 6.46412 6.46435 6.46572C6.46435 6.46732 6.46435 6.46891 6.46435 6.47051C6.46435 6.47211 6.46435 6.4737 6.46435 6.4753C6.46435 6.4769 6.46435 6.4785 6.46435 6.48009C6.46435 6.48169 6.46435 6.48329 6.46435 6.48489C6.46435 6.48648 6.46435 6.48808 6.46435 6.48968C6.46435 6.49127 6.46435 6.49287 6.46435 6.49447C6.46435 6.49607 6.46435 6.49766 6.46435 6.49926C6.46435 6.50086 6.46435 6.50246 6.46435 6.50405C6.46435 6.50565 6.46435 6.50725 6.46435 6.50884C6.46435 6.51044 6.46435 6.51204 6.46435 6.51364C6.46435 6.51523 6.46435 6.51683 6.46435 6.51843C6.46435 6.52003 6.46435 6.52162 6.46435 6.52322C6.46435 6.52482 6.46435 6.52641 6.46435 6.52801C6.46435 6.52961 6.46435 6.53121 6.46435 6.5328C6.46435 6.5344 6.46435 6.536 6.46435 6.5376C6.46435 6.53919 6.46435 6.54079 6.46435 6.54239C6.46435 6.54398 6.46435 6.54558 6.46435 6.54718C6.46435 6.54878 6.46435 6.55037 6.46435 6.55197C6.46435 6.55357 6.46435 6.55516 6.46435 6.55676C6.46435 6.55836 6.46435 6.55996 6.46435 6.56155C6.46435 6.56315 6.46435 6.56475 6.46435 6.56635C6.46435 6.56794 6.46435 6.56954 6.46435 6.57114C6.46435 6.57273 6.46435 6.57433 6.46435 6.57593C6.46435 6.57753 6.46435 6.57912 6.46435 6.58072C6.46435 6.58232 6.46435 6.58391 6.46435 6.58551C6.46435 6.58711 6.46435 6.58871 6.46435 6.5903C6.46435 6.5919 6.46435 6.5935 6.46435 6.59509C6.46435 6.59669 6.46435 6.59829 6.46435 6.59989C6.46435 6.60148 6.46435 6.60308 6.46435 6.60468C6.46435 6.60628 6.46435 6.60787 6.46435 6.60947C6.46435 6.61107 6.46435 6.61266 6.46435 6.61426C6.46435 6.61586 6.46435 6.61746 6.46435 6.61905C6.46435 6.62065 6.46435 6.62225 6.46435 6.62384C6.46435 6.62544 6.46435 6.62704 6.46435 6.62863C6.46435 6.63023 6.46435 6.63183 6.46435 6.63343C6.46435 6.63502 6.46435 6.63662 6.46435 6.63822C6.46435 6.63981 6.46435 6.64141 6.46435 6.64301C6.46435 6.64461 6.46435 6.6462 6.46435 6.6478C6.46435 6.6494 6.46435 6.65099 6.46435 6.65259C6.46435 6.65419 6.46435 6.65579 6.46435 6.65738C6.46435 6.65898 6.46435 6.66058 6.46435 6.66217C6.46435 6.66377 6.46435 6.66537 6.46435 6.66697C6.46435 6.66856 6.46435 6.67016 6.46435 6.67176C6.46435 6.67335 6.46435 6.67495 6.46435 6.67655C6.46435 6.67814 6.46435 6.67974 6.46435 6.68134C6.46435 6.68294 6.46435 6.68453 6.46435 6.68613C6.46435 6.68773 6.46435 6.68932 6.46435 6.69092C6.46435 6.69252 6.46435 6.69412 6.46435 6.69571C6.46435 6.69731 6.46435 6.69891 6.46435 6.7005C6.46435 6.7021 6.46435 6.7037 6.46435 6.70529C6.46435 6.70689 6.46435 6.70849 6.46435 6.71009C6.46435 6.71168 6.46435 6.71328 6.46435 6.71488C6.46435 6.71647 6.46435 6.71807 6.46435 6.71967C6.46435 6.72126 6.46435 6.72286 6.46435 6.72446C6.46435 6.72606 6.46435 6.72765 6.46435 6.72925C6.46435 6.73085 6.46435 6.73244 6.46435 6.73404C6.46435 6.73564 6.46435 6.73724 6.46435 6.73883C6.46435 6.74043 6.46435 6.74203 6.46435 6.74362C6.46435 6.74522 6.46435 6.74682 6.46435 6.74841C6.46435 6.75001 6.46435 6.75161 6.46435 6.7532C6.46435 6.7548 6.46435 6.7564 6.46435 6.758C6.46435 6.75959 6.46435 6.76119 6.46435 6.76279C6.46435 6.76438 6.46435 6.76598 6.46435 6.76758C6.46435 6.76917 6.46435 6.77077 6.46435 6.77237C6.46435 6.77396 6.46435 6.77556 6.46435 6.77716C6.46435 6.77876 6.46435 6.78035 6.46435 6.78195C6.46435 6.78355 6.46435 6.78514 6.46435 6.78674C6.46435 6.78834 6.46435 6.78993 6.46435 6.79153C6.46435 6.79313 6.46435 6.79472 6.46435 6.79632C6.46435 6.79792 6.46435 6.79952 6.46435 6.80111C6.46435 6.80271 6.46435 6.80431 6.46435 6.8059C6.46435 6.8075 6.46435 6.8091 6.46435 6.81069C6.46435 6.81229 6.46435 6.81389 6.46435 6.81548C6.46435 6.81708 6.46435 6.81868 6.46435 6.82027C6.46435 6.82187 6.46435 6.82347 6.46435 6.82506C6.46435 6.82666 6.46435 6.82826 6.46435 6.82986C6.46435 6.83145 6.46435 6.83305 6.46435 6.83465C6.46435 6.83624 6.46435 6.83784 6.46435 6.83944C6.46435 6.84103 6.46435 6.84263 6.46435 6.84423C6.46435 6.84582 6.46435 6.84742 6.46435 6.84902C6.46435 6.85061 6.46435 6.85221 6.46435 6.85381C6.46435 6.8554 6.46435 6.857 6.46435 6.8586C6.46435 6.86019 6.46435 6.86179 6.46435 6.86339C6.46435 6.86498 6.46435 6.86658 6.46435 6.86818C6.46435 6.86978 6.46435 6.87137 6.46435 6.87297C6.46435 6.87457 6.46435 6.87616 6.46435 6.87776C6.46435 6.87936 6.46435 6.88095 6.46435 6.88255C6.46435 6.88415 6.46435 6.88574 6.46435 6.88734C6.46435 6.88894 6.46435 6.89053 6.46435 6.89213C6.46435 6.89373 6.46435 6.89532 6.46435 6.89692C6.46435 6.89852 6.46435 6.90011 6.46435 6.90171C6.46435 6.90331 6.46435 6.9049 6.46435 6.9065C6.46435 6.9081 6.46435 6.90969 6.46435 6.91129C6.46435 6.91289 6.46435 6.91448 6.46435 6.91608C6.46435 6.91768 6.46435 6.91927 6.46435 6.92087C6.46435 6.92247 6.46435 6.92406 6.46435 6.92566C6.46435 6.92726 6.46435 6.92885 6.46435 6.93045C6.46435 6.93205 6.46435 6.93364 6.46435 6.93524C6.46435 6.93684 6.46435 6.93843 6.46435 6.94003C6.46435 6.94163 6.46435 6.94322 6.46435 6.94482C6.46435 6.94642 6.46435 6.94801 6.46435 6.94961C6.46435 6.95121 6.46435 6.9528 6.46435 6.9544C6.46435 6.956 6.46435 6.95759 6.46435 6.95919C6.46435 6.96078 6.46435 6.96238 6.46435 6.96398C6.46435 6.96557 6.46435 6.96717 6.46435 6.96877C6.46435 6.97036 6.46435 6.97196 6.46435 6.97356C6.46435 6.97515 6.46435 6.97675 6.46435 6.97835C6.46435 6.97994 6.46435 6.98154 6.46435 6.98314C6.46435 6.98473 6.46435 6.98633 6.46435 6.98793C6.46435 6.98952 6.46435 6.99112 6.46435 6.99272C6.46435 6.99431 6.46435 6.99591 6.46435 6.99751C6.46435 6.9991 6.46435 7.0007 6.46435 7.0023C6.46435 7.00389 6.46435 7.00549 6.46435 7.00708C6.46435 7.00868 6.46435 7.01028 6.46435 7.01187C6.46435 7.01347 6.46435 7.01507 6.46435 7.01666C6.46435 7.01826 6.46435 7.01986 6.46435 7.02145C6.46435 7.02305 6.46435 7.02465 6.46435 7.02624C6.46435 7.02784 6.46435 7.02943 6.46435 7.03103C6.46435 7.03263 6.46435 7.03422 6.46435 7.03582C6.46435 7.03742 6.46435 7.03901 6.46435 7.04061C6.46435 7.04221 6.46435 7.0438 6.46435 7.0454C6.46435 7.047 6.46435 7.04859 6.46435 7.05019C6.46435 7.05178 6.46435 7.05338 6.46435 7.05498C6.46435 7.05657 6.46435 7.05817 6.46435 7.05977C6.46435 7.06136 6.46435 7.06296 6.46435 7.06456C6.46435 7.06615 6.46435 7.06775 6.46435 7.06934C6.46435 7.07094 6.46435 7.07254 6.46435 7.07413C6.46435 7.07573 6.46435 7.07733 6.46435 7.07892C6.46435 7.08052 6.46435 7.08212 6.46435 7.08371C6.46435 7.08531 6.46435 7.0869 6.46435 7.0885C6.46435 7.0901 6.46435 7.09169 6.46435 7.09329C6.46435 7.09489 6.46435 7.09648 6.46435 7.09808C6.46435 7.09967 6.46435 7.10127 6.46435 7.10287C6.46435 7.10446 6.46435 7.10606 6.46435 7.10766C6.46435 7.10925 6.46435 7.11085 6.46435 7.11244C6.46435 7.11404 6.46435 7.11564 6.46435 7.11723C6.46435 7.11883 6.46435 7.12043 6.46435 7.12202C6.46435 7.12362 6.46435 7.12521 6.46435 7.12681C6.46435 7.12841 6.46435 7.13 6.46435 7.1316C6.46435 7.13319 6.46435 7.13479 6.46435 7.13639C6.46435 7.13798 6.46435 7.13958 6.46435 7.14118C6.46435 7.14277 6.46435 7.14437 6.46435 7.14596C6.46435 7.14756 6.46435 7.14916 6.46435 7.15075C6.46435 7.15235 6.46435 7.15394 6.46435 7.15554C6.46435 7.15714 6.46435 7.15873 6.46435 7.16033C6.46435 7.16193 6.46435 7.16352 6.46435 7.16512C6.46435 7.16671 6.46435 7.16831 6.46435 7.16991C6.46435 7.1715 6.46435 7.1731 6.46435 7.17469C6.46435 7.17629 6.46435 7.17789 6.46435 7.17948C6.46435 7.18108 6.46435 7.18267 6.46435 7.18427C6.46435 7.18587 6.46435 7.18746 6.46435 7.18906C6.46435 7.19066 6.46435 7.19225 6.46435 7.19385C6.46435 7.19544 6.46435 7.19704 6.46435 7.19864C6.46435 7.20023 6.46435 7.20183 6.46435 7.20342C6.46435 7.20502 6.46435 7.20662 6.46435 7.20821C6.46435 7.20981 6.46435 7.2114 6.46435 7.213C6.46435 7.2146 6.46435 7.21619 6.46435 7.21779C6.46435 7.21938 6.46435 7.22098 6.46435 7.22258C6.46435 7.22417 6.46435 7.22577 6.46435 7.22736C6.46435 7.22896 6.46435 7.23056 6.46435 7.23215C6.46435 7.23375 6.46435 7.23534 6.46435 7.23694C6.46435 7.23853 6.46435 7.24013 6.46435 7.24173C6.46435 7.24332 6.46435 7.24492 6.46435 7.24651C6.46435 7.24811 6.46435 7.24971 6.46435 7.2513C6.46435 7.2529 6.46435 7.25449 6.46435 7.25609C6.46435 7.25769 6.46435 7.25928 6.46435 7.26088C6.46435 7.26247 6.46435 7.26407 6.46435 7.26566C6.46435 7.26726 6.46435 7.26886 6.46435 7.27045C6.46435 7.27205 6.46435 7.27364 6.46435 7.27524C6.46435 7.27684 6.46435 7.27843 6.46435 7.28003C6.46435 7.28162 6.46435 7.28322 6.46435 7.28481C6.46435 7.28641 6.46435 7.28801 6.46435 7.2896C6.46435 7.2912 6.46435 7.29279 6.46435 7.29439C6.46435 7.29598 6.46435 7.29758 6.46435 7.29918C6.46435 7.30077 6.46435 7.30237 6.46435 7.30396C6.46435 7.30556 6.46435 7.30715 6.46435 7.30875C6.46435 7.31035 6.46435 7.31194 6.46435 7.31354C6.46435 7.31513 6.46435 7.31673 6.46435 7.31832H8.46435C8.46435 7.31673 8.46435 7.31513 8.46435 7.31354C8.46435 7.31194 8.46435 7.31035 8.46435 7.30875C8.46435 7.30715 8.46435 7.30556 8.46435 7.30396C8.46435 7.30237 8.46435 7.30077 8.46435 7.29918C8.46435 7.29758 8.46435 7.29598 8.46435 7.29439C8.46435 7.29279 8.46435 7.2912 8.46435 7.2896C8.46435 7.28801 8.46435 7.28641 8.46435 7.28481C8.46435 7.28322 8.46435 7.28162 8.46435 7.28003C8.46435 7.27843 8.46435 7.27684 8.46435 7.27524C8.46435 7.27364 8.46435 7.27205 8.46435 7.27045C8.46435 7.26886 8.46435 7.26726 8.46435 7.26566C8.46435 7.26407 8.46435 7.26247 8.46435 7.26088C8.46435 7.25928 8.46435 7.25769 8.46435 7.25609C8.46435 7.25449 8.46435 7.2529 8.46435 7.2513C8.46435 7.24971 8.46435 7.24811 8.46435 7.24651C8.46435 7.24492 8.46435 7.24332 8.46435 7.24173C8.46435 7.24013 8.46435 7.23853 8.46435 7.23694C8.46435 7.23534 8.46435 7.23375 8.46435 7.23215C8.46435 7.23056 8.46435 7.22896 8.46435 7.22736C8.46435 7.22577 8.46435 7.22417 8.46435 7.22258C8.46435 7.22098 8.46435 7.21938 8.46435 7.21779C8.46435 7.21619 8.46435 7.2146 8.46435 7.213C8.46435 7.2114 8.46435 7.20981 8.46435 7.20821C8.46435 7.20662 8.46435 7.20502 8.46435 7.20342C8.46435 7.20183 8.46435 7.20023 8.46435 7.19864C8.46435 7.19704 8.46435 7.19544 8.46435 7.19385C8.46435 7.19225 8.46435 7.19066 8.46435 7.18906C8.46435 7.18746 8.46435 7.18587 8.46435 7.18427C8.46435 7.18267 8.46435 7.18108 8.46435 7.17948C8.46435 7.17789 8.46435 7.17629 8.46435 7.17469C8.46435 7.1731 8.46435 7.1715 8.46435 7.16991C8.46435 7.16831 8.46435 7.16671 8.46435 7.16512C8.46435 7.16352 8.46435 7.16193 8.46435 7.16033C8.46435 7.15873 8.46435 7.15714 8.46435 7.15554C8.46435 7.15394 8.46435 7.15235 8.46435 7.15075C8.46435 7.14916 8.46435 7.14756 8.46435 7.14596C8.46435 7.14437 8.46435 7.14277 8.46435 7.14118C8.46435 7.13958 8.46435 7.13798 8.46435 7.13639C8.46435 7.13479 8.46435 7.13319 8.46435 7.1316C8.46435 7.13 8.46435 7.12841 8.46435 7.12681C8.46435 7.12521 8.46435 7.12362 8.46435 7.12202C8.46435 7.12043 8.46435 7.11883 8.46435 7.11723C8.46435 7.11564 8.46435 7.11404 8.46435 7.11244C8.46435 7.11085 8.46435 7.10925 8.46435 7.10766C8.46435 7.10606 8.46435 7.10446 8.46435 7.10287C8.46435 7.10127 8.46435 7.09967 8.46435 7.09808C8.46435 7.09648 8.46435 7.09489 8.46435 7.09329C8.46435 7.09169 8.46435 7.0901 8.46435 7.0885C8.46435 7.0869 8.46435 7.08531 8.46435 7.08371C8.46435 7.08212 8.46435 7.08052 8.46435 7.07892C8.46435 7.07733 8.46435 7.07573 8.46435 7.07413C8.46435 7.07254 8.46435 7.07094 8.46435 7.06934C8.46435 7.06775 8.46435 7.06615 8.46435 7.06456C8.46435 7.06296 8.46435 7.06136 8.46435 7.05977C8.46435 7.05817 8.46435 7.05657 8.46435 7.05498C8.46435 7.05338 8.46435 7.05178 8.46435 7.05019C8.46435 7.04859 8.46435 7.047 8.46435 7.0454C8.46435 7.0438 8.46435 7.04221 8.46435 7.04061C8.46435 7.03901 8.46435 7.03742 8.46435 7.03582C8.46435 7.03422 8.46435 7.03263 8.46435 7.03103C8.46435 7.02943 8.46435 7.02784 8.46435 7.02624C8.46435 7.02465 8.46435 7.02305 8.46435 7.02145C8.46435 7.01986 8.46435 7.01826 8.46435 7.01666C8.46435 7.01507 8.46435 7.01347 8.46435 7.01187C8.46435 7.01028 8.46435 7.00868 8.46435 7.00708C8.46435 7.00549 8.46435 7.00389 8.46435 7.0023C8.46435 7.0007 8.46435 6.9991 8.46435 6.99751C8.46435 6.99591 8.46435 6.99431 8.46435 6.99272C8.46435 6.99112 8.46435 6.98952 8.46435 6.98793C8.46435 6.98633 8.46435 6.98473 8.46435 6.98314C8.46435 6.98154 8.46435 6.97994 8.46435 6.97835C8.46435 6.97675 8.46435 6.97515 8.46435 6.97356C8.46435 6.97196 8.46435 6.97036 8.46435 6.96877C8.46435 6.96717 8.46435 6.96557 8.46435 6.96398C8.46435 6.96238 8.46435 6.96078 8.46435 6.95919C8.46435 6.95759 8.46435 6.956 8.46435 6.9544C8.46435 6.9528 8.46435 6.95121 8.46435 6.94961C8.46435 6.94801 8.46435 6.94642 8.46435 6.94482C8.46435 6.94322 8.46435 6.94163 8.46435 6.94003C8.46435 6.93843 8.46435 6.93684 8.46435 6.93524C8.46435 6.93364 8.46435 6.93205 8.46435 6.93045C8.46435 6.92885 8.46435 6.92726 8.46435 6.92566C8.46435 6.92406 8.46435 6.92247 8.46435 6.92087C8.46435 6.91927 8.46435 6.91768 8.46435 6.91608C8.46435 6.91448 8.46435 6.91289 8.46435 6.91129C8.46435 6.90969 8.46435 6.9081 8.46435 6.9065C8.46435 6.9049 8.46435 6.90331 8.46435 6.90171C8.46435 6.90011 8.46435 6.89852 8.46435 6.89692C8.46435 6.89532 8.46435 6.89373 8.46435 6.89213C8.46435 6.89053 8.46435 6.88894 8.46435 6.88734C8.46435 6.88574 8.46435 6.88415 8.46435 6.88255C8.46435 6.88095 8.46435 6.87936 8.46435 6.87776C8.46435 6.87616 8.46435 6.87457 8.46435 6.87297C8.46435 6.87137 8.46435 6.86978 8.46435 6.86818C8.46435 6.86658 8.46435 6.86498 8.46435 6.86339C8.46435 6.86179 8.46435 6.86019 8.46435 6.8586C8.46435 6.857 8.46435 6.8554 8.46435 6.85381C8.46435 6.85221 8.46435 6.85061 8.46435 6.84902C8.46435 6.84742 8.46435 6.84582 8.46435 6.84423C8.46435 6.84263 8.46435 6.84103 8.46435 6.83944C8.46435 6.83784 8.46435 6.83624 8.46435 6.83465C8.46435 6.83305 8.46435 6.83145 8.46435 6.82986C8.46435 6.82826 8.46435 6.82666 8.46435 6.82506C8.46435 6.82347 8.46435 6.82187 8.46435 6.82027C8.46435 6.81868 8.46435 6.81708 8.46435 6.81548C8.46435 6.81389 8.46435 6.81229 8.46435 6.81069C8.46435 6.8091 8.46435 6.8075 8.46435 6.8059C8.46435 6.80431 8.46435 6.80271 8.46435 6.80111C8.46435 6.79952 8.46435 6.79792 8.46435 6.79632C8.46435 6.79472 8.46435 6.79313 8.46435 6.79153C8.46435 6.78993 8.46435 6.78834 8.46435 6.78674C8.46435 6.78514 8.46435 6.78355 8.46435 6.78195C8.46435 6.78035 8.46435 6.77876 8.46435 6.77716C8.46435 6.77556 8.46435 6.77396 8.46435 6.77237C8.46435 6.77077 8.46435 6.76917 8.46435 6.76758C8.46435 6.76598 8.46435 6.76438 8.46435 6.76279C8.46435 6.76119 8.46435 6.75959 8.46435 6.758C8.46435 6.7564 8.46435 6.7548 8.46435 6.7532C8.46435 6.75161 8.46435 6.75001 8.46435 6.74841C8.46435 6.74682 8.46435 6.74522 8.46435 6.74362C8.46435 6.74203 8.46435 6.74043 8.46435 6.73883C8.46435 6.73724 8.46435 6.73564 8.46435 6.73404C8.46435 6.73244 8.46435 6.73085 8.46435 6.72925C8.46435 6.72765 8.46435 6.72606 8.46435 6.72446C8.46435 6.72286 8.46435 6.72126 8.46435 6.71967C8.46435 6.71807 8.46435 6.71647 8.46435 6.71488C8.46435 6.71328 8.46435 6.71168 8.46435 6.71009C8.46435 6.70849 8.46435 6.70689 8.46435 6.70529C8.46435 6.7037 8.46435 6.7021 8.46435 6.7005C8.46435 6.69891 8.46435 6.69731 8.46435 6.69571C8.46435 6.69412 8.46435 6.69252 8.46435 6.69092C8.46435 6.68932 8.46435 6.68773 8.46435 6.68613C8.46435 6.68453 8.46435 6.68294 8.46435 6.68134C8.46435 6.67974 8.46435 6.67814 8.46435 6.67655C8.46435 6.67495 8.46435 6.67335 8.46435 6.67176C8.46435 6.67016 8.46435 6.66856 8.46435 6.66697C8.46435 6.66537 8.46435 6.66377 8.46435 6.66217C8.46435 6.66058 8.46435 6.65898 8.46435 6.65738C8.46435 6.65579 8.46435 6.65419 8.46435 6.65259C8.46435 6.65099 8.46435 6.6494 8.46435 6.6478C8.46435 6.6462 8.46435 6.64461 8.46435 6.64301C8.46435 6.64141 8.46435 6.63981 8.46435 6.63822C8.46435 6.63662 8.46435 6.63502 8.46435 6.63343C8.46435 6.63183 8.46435 6.63023 8.46435 6.62863C8.46435 6.62704 8.46435 6.62544 8.46435 6.62384C8.46435 6.62225 8.46435 6.62065 8.46435 6.61905C8.46435 6.61746 8.46435 6.61586 8.46435 6.61426C8.46435 6.61266 8.46435 6.61107 8.46435 6.60947C8.46435 6.60787 8.46435 6.60628 8.46435 6.60468C8.46435 6.60308 8.46435 6.60148 8.46435 6.59989C8.46435 6.59829 8.46435 6.59669 8.46435 6.59509C8.46435 6.5935 8.46435 6.5919 8.46435 6.5903C8.46435 6.58871 8.46435 6.58711 8.46435 6.58551C8.46435 6.58391 8.46435 6.58232 8.46435 6.58072C8.46435 6.57912 8.46435 6.57753 8.46435 6.57593C8.46435 6.57433 8.46435 6.57273 8.46435 6.57114C8.46435 6.56954 8.46435 6.56794 8.46435 6.56635C8.46435 6.56475 8.46435 6.56315 8.46435 6.56155C8.46435 6.55996 8.46435 6.55836 8.46435 6.55676C8.46435 6.55516 8.46435 6.55357 8.46435 6.55197C8.46435 6.55037 8.46435 6.54878 8.46435 6.54718C8.46435 6.54558 8.46435 6.54398 8.46435 6.54239C8.46435 6.54079 8.46435 6.53919 8.46435 6.5376C8.46435 6.536 8.46435 6.5344 8.46435 6.5328C8.46435 6.53121 8.46435 6.52961 8.46435 6.52801C8.46435 6.52641 8.46435 6.52482 8.46435 6.52322C8.46435 6.52162 8.46435 6.52003 8.46435 6.51843C8.46435 6.51683 8.46435 6.51523 8.46435 6.51364C8.46435 6.51204 8.46435 6.51044 8.46435 6.50884C8.46435 6.50725 8.46435 6.50565 8.46435 6.50405C8.46435 6.50246 8.46435 6.50086 8.46435 6.49926C8.46435 6.49766 8.46435 6.49607 8.46435 6.49447C8.46435 6.49287 8.46435 6.49127 8.46435 6.48968C8.46435 6.48808 8.46435 6.48648 8.46435 6.48489C8.46435 6.48329 8.46435 6.48169 8.46435 6.48009C8.46435 6.4785 8.46435 6.4769 8.46435 6.4753C8.46435 6.4737 8.46435 6.47211 8.46435 6.47051C8.46435 6.46891 8.46435 6.46732 8.46435 6.46572C8.46435 6.46412 8.46435 6.46252 8.46435 6.46093C8.46435 6.45933 8.46435 6.45773 8.46435 6.45613C8.46435 6.45454 8.46435 6.45294 8.46435 6.45134C8.46435 6.44975 8.46435 6.44815 8.46435 6.44655C8.46435 6.44495 8.46435 6.44336 8.46435 6.44176C8.46435 6.44016 8.46435 6.43856 8.46435 6.43697C8.46435 6.43537 8.46435 6.43377 8.46435 6.43217C8.46435 6.43058 8.46435 6.42898 8.46435 6.42738C8.46435 6.42579 8.46435 6.42419 8.46435 6.42259C8.46435 6.42099 8.46435 6.4194 8.46435 6.4178C8.46435 6.4162 8.46435 6.4146 8.46435 6.41301C8.46435 6.41141 8.46435 6.40981 8.46435 6.40821C8.46435 6.40662 8.46435 6.40502 8.46435 6.40342C8.46435 6.40182 8.46435 6.40023 8.46435 6.39863C8.46435 6.39703 8.46435 6.39544 8.46435 6.39384C8.46435 6.39224 8.46435 6.39064 8.46435 6.38905C8.46435 6.38745 8.46435 6.38585 8.46435 6.38425C8.46435 6.38266 8.46435 6.38106 8.46435 6.37946C8.46435 6.37786 8.46435 6.37627 8.46435 6.37467C8.46435 6.37307 8.46435 6.37147 8.46435 6.36988C8.46435 6.36828 8.46435 6.36668 8.46435 6.36509C8.46435 6.36349 8.46435 6.36189 8.46435 6.36029C8.46435 6.3587 8.46435 6.3571 8.46435 6.3555C8.46435 6.3539 8.46435 6.35231 8.46435 6.35071C8.46435 6.34911 8.46435 6.34751 8.46435 6.34592C8.46435 6.34432 8.46435 6.34272 8.46435 6.34112C8.46435 6.33953 8.46435 6.33793 8.46435 6.33633C8.46435 6.33473 8.46435 6.33314 8.46435 6.33154C8.46435 6.32994 8.46435 6.32835 8.46435 6.32675C8.46435 6.32515 8.46435 6.32355 8.46435 6.32196C8.46435 6.32036 8.46435 6.31876 8.46435 6.31716C8.46435 6.31557 8.46435 6.31397 8.46435 6.31237C8.46435 6.31077 8.46435 6.30918 8.46435 6.30758C8.46435 6.30598 8.46435 6.30438 8.46435 6.30279C8.46435 6.30119 8.46435 6.29959 8.46435 6.29799C8.46435 6.2964 8.46435 6.2948 8.46435 6.2932C8.46435 6.2916 8.46435 6.29001 8.46435 6.28841C8.46435 6.28681 8.46435 6.28521 8.46435 6.28362C8.46435 6.28202 8.46435 6.28042 8.46435 6.27883C8.46435 6.27723 8.46435 6.27563 8.46435 6.27403C8.46435 6.27244 8.46435 6.27084 8.46435 6.26924C8.46435 6.26764 8.46435 6.26605 8.46435 6.26445C8.46435 6.26285 8.46435 6.26125 8.46435 6.25966C8.46435 6.25806 8.46435 6.25646 8.46435 6.25486C8.46435 6.25327 8.46435 6.25167 8.46435 6.25007C8.46435 6.24847 8.46435 6.24688 8.46435 6.24528C8.46435 6.24368 8.46435 6.24208 8.46435 6.24049C8.46435 6.23889 8.46435 6.23729 8.46435 6.23569C8.46435 6.2341 8.46435 6.2325 8.46435 6.2309C8.46435 6.2293 8.46435 6.22771 8.46435 6.22611C8.46435 6.22451 8.46435 6.22291 8.46435 6.22132C8.46435 6.21972 8.46435 6.21812 8.46435 6.21653C8.46435 6.21493 8.46435 6.21333 8.46435 6.21173C8.46435 6.21013 8.46435 6.20854 8.46435 6.20694C8.46435 6.20534 8.46435 6.20375 8.46435 6.20215C8.46435 6.20055 8.46435 6.19895 8.46435 6.19736C8.46435 6.19576 8.46435 6.19416 8.46435 6.19256C8.46435 6.19097 8.46435 6.18937 8.46435 6.18777C8.46435 6.18617 8.46435 6.18458 8.46435 6.18298C8.46435 6.18138 8.46435 6.17978 8.46435 6.17819C8.46435 6.17659 8.46435 6.17499 8.46435 6.17339C8.46435 6.1718 8.46435 6.1702 8.46435 6.1686C8.46435 6.167 8.46435 6.16541 8.46435 6.16381C8.46435 6.16221 8.46435 6.16061 8.46435 6.15902C8.46435 6.15742 8.46435 6.15582 8.46435 6.15422C8.46435 6.15263 8.46435 6.15103 8.46435 6.14943C8.46435 6.14783 8.46435 6.14624 8.46435 6.14464C8.46435 6.14304 8.46435 6.14144 8.46435 6.13985C8.46435 6.13825 8.46435 6.13665 8.46435 6.13505C8.46435 6.13346 8.46435 6.13186 8.46435 6.13026C8.46435 6.12866 8.46435 6.12707 8.46435 6.12547C8.46435 6.12387 8.46435 6.12227 8.46435 6.12068C8.46435 6.11908 8.46435 6.11748 8.46435 6.11588C8.46435 6.11429 8.46435 6.11269 8.46435 6.11109C8.46435 6.10949 8.46435 6.1079 8.46435 6.1063C8.46435 6.1047 8.46435 6.10311 8.46435 6.10151C8.46435 6.09991 8.46435 6.09831 8.46435 6.09671C8.46435 6.09512 8.46435 6.09352 8.46435 6.09192C8.46435 6.09033 8.46435 6.08873 8.46435 6.08713C8.46435 6.08553 8.46435 6.08394 8.46435 6.08234C8.46435 6.08074 8.46435 6.07914 8.46435 6.07755C8.46435 6.07595 8.46435 6.07435 8.46435 6.07275C8.46435 6.07116 8.46435 6.06956 8.46435 6.06796C8.46435 6.06636 8.46435 6.06477 8.46435 6.06317C8.46435 6.06157 8.46435 6.05997 8.46435 6.05838C8.46435 6.05678 8.46435 6.05518 8.46435 6.05358C8.46435 6.05199 8.46435 6.05039 8.46435 6.04879C8.46435 6.04719 8.46435 6.0456 8.46435 6.044C8.46435 6.0424 8.46435 6.0408 8.46435 6.03921C8.46435 6.03761 8.46435 6.03601 8.46435 6.03441C8.46435 6.03282 8.46435 6.03122 8.46435 6.02962C8.46435 6.02802 8.46435 6.02643 8.46435 6.02483C8.46435 6.02323 8.46435 6.02163 8.46435 6.02004C8.46435 6.01844 8.46435 6.01684 8.46435 6.01524C8.46435 6.01365 8.46435 6.01205 8.46435 6.01045C8.46435 6.00885 8.46435 6.00726 8.46435 6.00566C8.46435 6.00406 8.46435 6.00246 8.46435 6.00087C8.46435 5.99927 8.46435 5.99767 8.46435 5.99607C8.46435 5.99448 8.46435 5.99288 8.46435 5.99128C8.46435 5.98968 8.46435 5.98809 8.46435 5.98649C8.46435 5.98489 8.46435 5.98329 8.46435 5.9817C8.46435 5.9801 8.46435 5.9785 8.46435 5.97691C8.46435 5.97531 8.46435 5.97371 8.46435 5.97211C8.46435 5.97052 8.46435 5.96892 8.46435 5.96732C8.46435 5.96572 8.46435 5.96413 8.46435 5.96253C8.46435 5.96093 8.46435 5.95933 8.46435 5.95774C8.46435 5.95614 8.46435 5.95454 8.46435 5.95294C8.46435 5.95135 8.46435 5.94975 8.46435 5.94815C8.46435 5.94655 8.46435 5.94496 8.46435 5.94336C8.46435 5.94176 8.46435 5.94016 8.46435 5.93857C8.46435 5.93697 8.46435 5.93537 8.46435 5.93377C8.46435 5.93218 8.46435 5.93058 8.46435 5.92898C8.46435 5.92738 8.46435 5.92579 8.46435 5.92419C8.46435 5.92259 8.46435 5.92099 8.46435 5.9194C8.46435 5.9178 8.46435 5.9162 8.46435 5.9146C8.46435 5.91301 8.46435 5.91141 8.46435 5.90981C8.46435 5.90822 8.46435 5.90662 8.46435 5.90502C8.46435 5.90342 8.46435 5.90183 8.46435 5.90023C8.46435 5.89863 8.46435 5.89703 8.46435 5.89544C8.46435 5.89384 8.46435 5.89224 8.46435 5.89064C8.46435 5.88905 8.46435 5.88745 8.46435 5.88585C8.46435 5.88425 8.46435 5.88266 8.46435 5.88106C8.46435 5.87946 8.46435 5.87786 8.46435 5.87627C8.46435 5.87467 8.46435 5.87307 8.46435 5.87147C8.46435 5.86988 8.46435 5.86828 8.46435 5.86668C8.46435 5.86508 8.46435 5.86349 8.46435 5.86189C8.46435 5.86029 8.46435 5.8587 8.46435 5.8571C8.46435 5.8555 8.46435 5.8539 8.46435 5.85231C8.46435 5.85071 8.46435 5.84911 8.46435 5.84751C8.46435 5.84592 8.46435 5.84432 8.46435 5.84272C8.46435 5.84112 8.46435 5.83953 8.46435 5.83793C8.46435 5.83633 8.46435 5.83473 8.46435 5.83314C8.46435 5.83154 8.46435 5.82994 8.46435 5.82834C8.46435 5.82675 8.46435 5.82515 8.46435 5.82355C8.46435 5.82195 8.46435 5.82036 8.46435 5.81876C8.46435 5.81716 8.46435 5.81557 8.46435 5.81397C8.46435 5.81237 8.46435 5.81077 8.46435 5.80918C8.46435 5.80758 8.46435 5.80598 8.46435 5.80438C8.46435 5.80279 8.46435 5.80119 8.46435 5.79959C8.46435 5.79799 8.46435 5.7964 8.46435 5.7948C8.46435 5.7932 8.46435 5.7916 8.46435 5.79001C8.46435 5.78841 8.46435 5.78681 8.46435 5.78522C8.46435 5.78362 8.46435 5.78202 8.46435 5.78042C8.46435 5.77883 8.46435 5.77723 8.46435 5.77563C8.46435 5.77403 8.46435 5.77244 8.46435 5.77084C8.46435 5.76924 8.46435 5.76764 8.46435 5.76605C8.46435 5.76445 8.46435 5.76285 8.46435 5.76125C8.46435 5.75966 8.46435 5.75806 8.46435 5.75646C8.46435 5.75487 8.46435 5.75327 8.46435 5.75167C8.46435 5.75007 8.46435 5.74848 8.46435 5.74688C8.46435 5.74528 8.46435 5.74368 8.46435 5.74209C8.46435 5.74049 8.46435 5.73889 8.46435 5.7373C8.46435 5.7357 8.46435 5.7341 8.46435 5.7325C8.46435 5.73091 8.46435 5.72931 8.46435 5.72771C8.46435 5.72611 8.46435 5.72452 8.46435 5.72292C8.46435 5.72132 8.46435 5.71972 8.46435 5.71813C8.46435 5.71653 8.46435 5.71493 8.46435 5.71334C8.46435 5.71174 8.46435 5.71014 8.46435 5.70854C8.46435 5.70695 8.46435 5.70535 8.46435 5.70375C8.46435 5.70215 8.46435 5.70056 8.46435 5.69896C8.46435 5.69736 8.46435 5.69577 8.46435 5.69417C8.46435 5.69257 8.46435 5.69097 8.46435 5.68938C8.46435 5.68778 8.46435 5.68618 8.46435 5.68458C8.46435 5.68299 8.46435 5.68139 8.46435 5.67979C8.46435 5.67819 8.46435 5.6766 8.46435 5.675C8.46435 5.6734 8.46435 5.67181 8.46435 5.67021C8.46435 5.66861 8.46435 5.66701 8.46435 5.66542C8.46435 5.66382 8.46435 5.66222 8.46435 5.66062C8.46435 5.65903 8.46435 5.65743 8.46435 5.65583C8.46435 5.65424 8.46435 5.65264 8.46435 5.65104C8.46435 5.64944 8.46435 5.64785 8.46435 5.64625C8.46435 5.64465 8.46435 5.64306 8.46435 5.64146C8.46435 5.63986 8.46435 5.63826 8.46435 5.63667C8.46435 5.63507 8.46435 5.63347 8.46435 5.63188C8.46435 5.63028 8.46435 5.62868 8.46435 5.62708C8.46435 5.62549 8.46435 5.62389 8.46435 5.62229C8.46435 5.62069 8.46435 5.6191 8.46435 5.6175C8.46435 5.6159 8.46435 5.61431 8.46435 5.61271C8.46435 5.61111 8.46435 5.60951 8.46435 5.60792C8.46435 5.60632 8.46435 5.60472 8.46435 5.60313C8.46435 5.60153 8.46435 5.59993 8.46435 5.59833C8.46435 5.59674 8.46435 5.59514 8.46435 5.59354C8.46435 5.59195 8.46435 5.59035 8.46435 5.58875C8.46435 5.58715 8.46435 5.58556 8.46435 5.58396C8.46435 5.58236 8.46435 5.58076 8.46435 5.57917C8.46435 5.57757 8.46435 5.57597 8.46435 5.57438C8.46435 5.57278 8.46435 5.57118 8.46435 5.56958C8.46435 5.56799 8.46435 5.56639 8.46435 5.56479C8.46435 5.5632 8.46435 5.5616 8.46435 5.56C8.46435 5.5584 8.46435 5.55681 8.46435 5.55521C8.46435 5.55361 8.46435 5.55202 8.46435 5.55042C8.46435 5.54882 8.46435 5.54722 8.46435 5.54563C8.46435 5.54403 8.46435 5.54243 8.46435 5.54084C8.46435 5.53924 8.46435 5.53764 8.46435 5.53605C8.46435 5.53445 8.46435 5.53285 8.46435 5.53125C8.46435 5.52966 8.46435 5.52806 8.46435 5.52646C8.46435 5.52487 8.46435 5.52327 8.46435 5.52167C8.46435 5.52007 8.46435 5.51848 8.46435 5.51688C8.46435 5.51528 8.46435 5.51369 8.46435 5.51209C8.46435 5.51049 8.46435 5.50889 8.46435 5.5073C8.46435 5.5057 8.46435 5.5041 8.46435 5.50251C8.46435 5.50091 8.46435 5.49931 8.46435 5.49771C8.46435 5.49612 8.46435 5.49452 8.46435 5.49292C8.46435 5.49133 8.46435 5.48973 8.46435 5.48813C8.46435 5.48654 8.46435 5.48494 8.46435 5.48334C8.46435 5.48174 8.46435 5.48015 8.46435 5.47855C8.46435 5.47695 8.46435 5.47536 8.46435 5.47376C8.46435 5.47216 8.46435 5.47057 8.46435 5.46897C8.46435 5.46737 8.46435 5.46577 8.46435 5.46418C8.46435 5.46258 8.46435 5.46098 8.46435 5.45939C8.46435 5.45779 8.46435 5.45619 8.46435 5.4546C8.46435 5.453 8.46435 5.4514 8.46435 5.4498C8.46435 5.44821 8.46435 5.44661 8.46435 5.44501C8.46435 5.44342 8.46435 5.44182 8.46435 5.44022C8.46435 5.43863 8.46435 5.43703 8.46435 5.43543C8.46435 5.43384 8.46435 5.43224 8.46435 5.43064C8.46435 5.42904 8.46435 5.42745 8.46435 5.42585C8.46435 5.42425 8.46435 5.42266 8.46435 5.42106C8.46435 5.41946 8.46435 5.41787 8.46435 5.41627C8.46435 5.41467 8.46435 5.41307 8.46435 5.41148C8.46435 5.40988 8.46435 5.40828 8.46435 5.40669C8.46435 5.40509 8.46435 5.40349 8.46435 5.4019C8.46435 5.4003 8.46435 5.3987 8.46435 5.39711C8.46435 5.39551 8.46435 5.39391 8.46435 5.39231C8.46435 5.39072 8.46435 5.38912 8.46435 5.38752C8.46435 5.38593 8.46435 5.38433 8.46435 5.38273C8.46435 5.38114 8.46435 5.37954 8.46435 5.37794C8.46435 5.37635 8.46435 5.37475 8.46435 5.37315C8.46435 5.37156 8.46435 5.36996 8.46435 5.36836C8.46435 5.36677 8.46435 5.36517 8.46435 5.36357C8.46435 5.36197 8.46435 5.36038 8.46435 5.35878C8.46435 5.35718 8.46435 5.35559 8.46435 5.35399C8.46435 5.35239 8.46435 5.3508 8.46435 5.3492C8.46435 5.3476 8.46435 5.34601 8.46435 5.34441C8.46435 5.34281 8.46435 5.34122 8.46435 5.33962C8.46435 5.33802 8.46435 5.33643 8.46435 5.33483C8.46435 5.33323 8.46435 5.33163 8.46435 5.33004C8.46435 5.32844 8.46435 5.32684 8.46435 5.32525C8.46435 5.32365 8.46435 5.32205 8.46435 5.32046C8.46435 5.31886 8.46435 5.31726 8.46435 5.31567C8.46435 5.31407 8.46435 5.31247 8.46435 5.31088C8.46435 5.30928 8.46435 5.30768 8.46435 5.30609C8.46435 5.30449 8.46435 5.30289 8.46435 5.3013C8.46435 5.2997 8.46435 5.2981 8.46435 5.29651C8.46435 5.29491 8.46435 5.29331 8.46435 5.29172C8.46435 5.29012 8.46435 5.28852 8.46435 5.28693C8.46435 5.28533 8.46435 5.28373 8.46435 5.28214C8.46435 5.28054 8.46435 5.27894 8.46435 5.27735C8.46435 5.27575 8.46435 5.27415 8.46435 5.27256C8.46435 5.27096 8.46435 5.26936 8.46435 5.26777C8.46435 5.26617 8.46435 5.26457 8.46435 5.26298C8.46435 5.26138 8.46435 5.25978 8.46435 5.25819C8.46435 5.25659 8.46435 5.25499 8.46435 5.2534C8.46435 5.2518 8.46435 5.2502 8.46435 5.24861C8.46435 5.24701 8.46435 5.24541 8.46435 5.24382C8.46435 5.24222 8.46435 5.24062 8.46435 5.23903C8.46435 5.23743 8.46435 5.23583 8.46435 5.23424C8.46435 5.23264 8.46435 5.23104 8.46435 5.22945C8.46435 5.22785 8.46435 5.22625 8.46435 5.22466C8.46435 5.22306 8.46435 5.22146 8.46435 5.21987C8.46435 5.21827 8.46435 5.21667 8.46435 5.21508C8.46435 5.21348 8.46435 5.21188 8.46435 5.21029C8.46435 5.20869 8.46435 5.20709 8.46435 5.2055C8.46435 5.2039 8.46435 5.2023 8.46435 5.20071C8.46435 5.19911 8.46435 5.19752 8.46435 5.19592C8.46435 5.19432 8.46435 5.19273 8.46435 5.19113C8.46435 5.18953 8.46435 5.18794 8.46435 5.18634C8.46435 5.18474 8.46435 5.18315 8.46435 5.18155C8.46435 5.17995 8.46435 5.17836 8.46435 5.17676C8.46435 5.17516 8.46435 5.17357 8.46435 5.17197C8.46435 5.17037 8.46435 5.16878 8.46435 5.16718C8.46435 5.16559 8.46435 5.16399 8.46435 5.16239C8.46435 5.1608 8.46435 5.1592 8.46435 5.1576C8.46435 5.15601 8.46435 5.15441 8.46435 5.15281C8.46435 5.15122 8.46435 5.14962 8.46435 5.14803C8.46435 5.14643 8.46435 5.14483 8.46435 5.14324C8.46435 5.14164 8.46435 5.14004 8.46435 5.13845C8.46435 5.13685 8.46435 5.13525 8.46435 5.13366C8.46435 5.13206 8.46435 5.13046 8.46435 5.12887C8.46435 5.12727 8.46435 5.12568 8.46435 5.12408C8.46435 5.12248 8.46435 5.12089 8.46435 5.11929C8.46435 5.11769 8.46435 5.1161 8.46435 5.1145C8.46435 5.1129 8.46435 5.11131 8.46435 5.10971C8.46435 5.10812 8.46435 5.10652 8.46435 5.10492C8.46435 5.10333 8.46435 5.10173 8.46435 5.10013C8.46435 5.09854 8.46435 5.09694 8.46435 5.09535C8.46435 5.09375 8.46435 5.09215 8.46435 5.09056C8.46435 5.08896 8.46435 5.08736 8.46435 5.08577C8.46435 5.08417 8.46435 5.08257 8.46435 5.08098C8.46435 5.07938 8.46435 5.07779 8.46435 5.07619C8.46435 5.07459 8.46435 5.073 8.46435 5.0714C8.46435 5.0698 8.46435 5.06821 8.46435 5.06661C8.46435 5.06502 8.46435 5.06342 8.46435 5.06182C8.46435 5.06023 8.46435 5.05863 8.46435 5.05703C8.46435 5.05544 8.46435 5.05384 8.46435 5.05225C8.46435 5.05065 8.46435 5.04905 8.46435 5.04746C8.46435 5.04586 8.46435 5.04427 8.46435 5.04267C8.46435 5.04107 8.46435 5.03948 8.46435 5.03788C8.46435 5.03628 8.46435 5.03469 8.46435 5.03309C8.46435 5.0315 8.46435 5.0299 8.46435 5.0283C8.46435 5.02671 8.46435 5.02511 8.46435 5.02352C8.46435 5.02192 8.46435 5.02032 8.46435 5.01873C8.46435 5.01713 8.46435 5.01554 8.46435 5.01394C8.46435 5.01234 8.46435 5.01075 8.46435 5.00915C8.46435 5.00755 8.46435 5.00596 8.46435 5.00436C8.46435 5.00277 8.46435 5.00117 8.46435 4.99957C8.46435 4.99798 8.46435 4.99638 8.46435 4.99479C8.46435 4.99319 8.46435 4.99159 8.46435 4.99C8.46435 4.9884 8.46435 4.98681 8.46435 4.98521C8.46435 4.98361 8.46435 4.98202 8.46435 4.98042C8.46435 4.97883 8.46435 4.97723 8.46435 4.97563C8.46435 4.97404 8.46435 4.97244 8.46435 4.97085C8.46435 4.96925 8.46435 4.96765 8.46435 4.96606C8.46435 4.96446 8.46435 4.96287 8.46435 4.96127C8.46435 4.95967 8.46435 4.95808 8.46435 4.95648C8.46435 4.95489 8.46435 4.95329 8.46435 4.95169C8.46435 4.9501 8.46435 4.9485 8.46435 4.94691C8.46435 4.94531 8.46435 4.94372 8.46435 4.94212C8.46435 4.94052 8.46435 4.93893 8.46435 4.93733C8.46435 4.93574 8.46435 4.93414 8.46435 4.93254C8.46435 4.93095 8.46435 4.92935 8.46435 4.92776C8.46435 4.92616 8.46435 4.92456 8.46435 4.92297C8.46435 4.92137 8.46435 4.91978 8.46435 4.91818C8.46435 4.91658 8.46435 4.91499 8.46435 4.91339C8.46435 4.9118 8.46435 4.9102 8.46435 4.90861C8.46435 4.90701 8.46435 4.90541 8.46435 4.90382C8.46435 4.90222 8.46435 4.90063 8.46435 4.89903C8.46435 4.89744 8.46435 4.89584 8.46435 4.89424C8.46435 4.89265 8.46435 4.89105 8.46435 4.88946C8.46435 4.88786 8.46435 4.88627 8.46435 4.88467C8.46435 4.88307 8.46435 4.88148 8.46435 4.87988C8.46435 4.87829 8.46435 4.87669 8.46435 4.87509C8.46435 4.8735 8.46435 4.8719 8.46435 4.87031C8.46435 4.86871 8.46435 4.86712 8.46435 4.86552H6.46435ZM6.46656 7.25201C6.4456 7.56727 6.51906 7.88137 6.67721 8.15449L8.40798 7.15228C8.44857 7.22237 8.46756 7.30326 8.46215 7.38464L6.46656 7.25201ZM6.67721 8.15449C6.83537 8.42761 7.07095 8.64723 7.35362 8.78611L8.23552 6.99104C8.3072 7.02626 8.36739 7.08218 8.40798 7.15228L6.67721 8.15449ZM7.30449 8.76025C8.26404 9.29973 9.19478 9.83521 10.1625 10.3822L11.1466 8.64103C10.2064 8.10963 9.23663 7.55212 8.28465 7.01689L7.30449 8.76025ZM10.2562 10.4288C10.1915 10.4008 10.1341 10.3577 10.0887 10.3028L11.6301 9.02836C11.4744 8.8401 11.2765 8.6915 11.0529 8.59435L10.2562 10.4288ZM10.0887 10.3028C10.0433 10.2479 10.0114 10.1829 9.99581 10.1129L11.9479 9.67795C11.8948 9.43923 11.7858 9.21666 11.6301 9.02836L10.0887 10.3028ZM9.99986 10.1303C9.97542 10.0292 9.98161 9.92306 10.0176 9.8255L11.8939 10.5179C11.9952 10.2433 12.0126 9.94495 11.9439 9.66053L9.99986 10.1303ZM10.0176 9.8255C10.0536 9.72798 10.1175 9.6439 10.2008 9.58345L11.3761 11.2017C11.6122 11.0302 11.7927 10.7924 11.8939 10.5179L10.0176 9.8255ZM10.1634 9.61192C10.2473 9.54482 10.3494 9.50549 10.4558 9.49877L10.5818 11.4948C10.8852 11.4757 11.1757 11.3635 11.4134 11.1732L10.1634 9.61192ZM10.4558 9.49877C10.5622 9.49206 10.6683 9.51822 10.7597 9.57412L9.71645 11.2805C9.97615 11.4392 10.2784 11.5139 10.5818 11.4948L10.4558 9.49877ZM10.7186 9.55032C10.3554 9.35127 10.0374 9.16299 9.65266 8.9459L8.66984 10.6878C9.00421 10.8764 9.38698 11.1012 9.75753 11.3043L10.7186 9.55032ZM9.66321 8.95194C9.02854 8.58359 8.3932 8.22196 7.75718 7.86705L6.78262 9.61354C7.40872 9.96291 8.03428 10.319 8.65929 10.6817L9.66321 8.95194ZM7.73464 7.85485C7.64905 7.80993 7.57843 7.74217 7.53044 7.6598L5.80235 8.66662C6.03988 9.07431 6.38756 9.40656 6.80516 9.62574L7.73464 7.85485ZM7.53044 7.6598C7.48247 7.57747 7.45892 7.48366 7.46215 7.38906L5.46332 7.32071C5.44719 7.79242 5.5648 8.25889 5.80235 8.66662L7.53044 7.6598ZM7.4627 7.34608C7.45724 6.72678 7.45906 6.1087 7.45906 5.47963H5.45906C5.45906 6.10073 5.45722 6.73282 5.46278 7.36369L7.4627 7.34608ZM13.9988 6.50702C13.9958 6.37859 14.0414 6.25431 14.1257 6.15885L15.6247 7.48285C15.8736 7.2011 16.0073 6.8356 15.9983 6.45909L13.9988 6.50702ZM14.1257 6.15885C14.2099 6.0635 14.3264 6.00397 14.4516 5.991L14.6577 7.98036C15.0306 7.94173 15.376 7.76449 15.6247 7.48285L14.1257 6.15885ZM14.4228 5.99441C14.5502 5.97746 14.6797 6.00886 14.7857 6.08308L13.6382 7.72118C13.9434 7.93495 14.3177 8.02601 14.6865 7.97695L14.4228 5.99441ZM14.7857 6.08308C14.8918 6.1574 14.9667 6.26946 14.9945 6.39752L13.0398 6.82082C13.1189 7.18606 13.3329 7.50731 13.6382 7.72118L14.7857 6.08308ZM15.0028 6.4405C14.9001 5.84037 14.7413 5.25115 14.5285 4.68056L12.6546 5.37948C12.8237 5.83291 12.9499 6.30107 13.0314 6.77784L15.0028 6.4405ZM14.5387 4.70931C14.5821 4.8375 14.5739 4.97753 14.516 5.0996L12.709 4.24226C12.5444 4.58929 12.5211 4.98675 12.6443 5.35073L14.5387 4.70931ZM14.516 5.0996C14.4581 5.22154 14.3556 5.31534 14.2309 5.3624L13.5245 3.49133C13.1663 3.62657 12.8736 3.89535 12.709 4.24226L14.516 5.0996ZM14.2579 5.35177C14.1452 5.39811 14.0195 5.40129 13.9047 5.36084L14.5693 3.47449C14.2209 3.35174 13.8393 3.36146 13.4975 3.50196L14.2579 5.35177ZM13.9047 5.36084C13.7898 5.32037 13.693 5.23868 13.6336 5.13037L15.3876 4.16933C15.2095 3.84432 14.9178 3.59728 14.5693 3.47449L13.9047 5.36084ZM13.587 5.0332C13.7964 5.53783 13.9375 6.06793 14.0066 6.60953L15.9905 6.35658C15.899 5.63832 15.7119 4.93546 15.4342 4.2665L13.587 5.0332ZM9.54666 0.64761C9.54591 0.725817 9.52692 0.802668 9.49134 0.872056L7.71169 -0.040544C7.60549 0.166537 7.54899 0.395549 7.54675 0.628373L9.54666 0.64761ZM9.49134 0.872056C9.45576 0.941436 9.40469 1.00123 9.34247 1.04697L8.15781 -0.564419C7.97071 -0.426868 7.81787 -0.247617 7.71169 -0.040544L9.49134 0.872056ZM9.34247 1.04697C9.28024 1.09272 9.20844 1.12327 9.13279 1.13643L8.78983 -0.833941C8.56129 -0.794163 8.34492 -0.701975 8.15781 -0.564419L9.34247 1.04697ZM9.13279 1.13643C9.05713 1.1496 8.97946 1.14508 8.90581 1.1232L9.4754 -0.793978C9.25303 -0.860043 9.01836 -0.873719 8.78983 -0.833941L9.13279 1.13643ZM8.97618 1.14135C9.1654 1.18289 9.35225 1.23446 9.53593 1.29584L10.1698 -0.601069C9.9188 -0.68493 9.66352 -0.755383 9.40503 -0.812129L8.97618 1.14135ZM9.52021 1.29044C9.79599 1.38772 10.0636 1.49187 10.3228 1.60608L11.1293 -0.224094C10.8161 -0.362115 10.5004 -0.484587 10.1855 -0.595668L9.52021 1.29044ZM10.3919 1.63352C10.3256 1.61001 10.2648 1.5728 10.2134 1.52407L11.5897 0.0728936C11.4377 -0.071202 11.2573 -0.18166 11.0602 -0.251532L10.3919 1.63352ZM10.2134 1.52407C10.162 1.47532 10.1212 1.41614 10.0939 1.35024L11.9419 0.585329C11.8617 0.391557 11.7416 0.217007 11.5897 0.0728936L10.2134 1.52407ZM10.0939 1.35024C10.0667 1.28431 10.0535 1.21327 10.0555 1.14177L12.0548 1.19746C12.0606 0.987694 12.0221 0.779127 11.9419 0.585329L10.0939 1.35024ZM10.0555 1.14177C10.0575 1.0702 10.0746 1.00004 10.1055 0.935844L11.908 1.80232C11.9988 1.61337 12.0489 1.40729 12.0548 1.19746L10.0555 1.14177ZM10.1114 0.923722C10.1683 0.809273 10.2677 0.722932 10.387 0.68228L11.0323 2.5753C11.4106 2.44633 11.7236 2.17331 11.9021 1.81444L10.1114 0.923722ZM10.387 0.68228C10.5061 0.641664 10.6365 0.649522 10.75 0.70435L9.8803 2.50536C10.2402 2.67916 10.6541 2.70423 11.0323 2.5753L10.387 0.68228ZM10.6626 0.667154C10.2012 0.496184 9.73794 0.339255 9.27354 0.192548L8.67107 2.09965C9.10923 2.23807 9.54123 2.38453 9.9677 2.54255L10.6626 0.667154ZM9.16039 0.163947C9.26726 0.184412 9.36445 0.241199 9.43513 0.325573L7.90192 1.60981C8.12773 1.8794 8.43958 2.06225 8.78421 2.12825L9.16039 0.163947ZM9.43513 0.325573C9.50586 0.410015 9.54554 0.51682 9.54665 0.627959L7.54675 0.648023C7.55029 1.00039 7.67605 1.34016 7.90192 1.60981L9.43513 0.325573ZM14.005 8.42536C13.9423 8.90939 13.8159 9.38313 13.6289 9.83437L15.4766 10.5998C15.731 9.98589 15.9031 9.3412 15.9884 8.68237L14.005 8.42536ZM13.6496 9.78788C13.7075 9.66599 13.8105 9.57267 13.9354 9.52668L14.6265 11.4035C14.9907 11.2693 15.2889 10.998 15.456 10.6463L13.6496 9.78788ZM13.9354 9.52668C14.0602 9.48072 14.1979 9.48526 14.3195 9.53943L13.5056 11.3663C13.8601 11.5243 14.2624 11.5376 14.6265 11.4035L13.9354 9.52668ZM14.3085 9.53459C14.4196 9.58249 14.5101 9.66985 14.5618 9.78102L12.7487 10.6252C12.9047 10.9601 13.1783 11.2253 13.5166 11.3712L14.3085 9.53459ZM14.5618 9.78102C14.6136 9.8923 14.6226 10.019 14.5869 10.1366L12.6732 9.55556C12.5658 9.90931 12.5927 10.2901 12.7487 10.6252L14.5618 9.78102ZM14.5964 10.1031C14.7271 9.61195 14.8547 9.12076 14.9791 8.62956L13.0404 8.13822C12.9179 8.62181 12.7923 9.10541 12.6636 9.58903L14.5964 10.1031ZM14.986 8.60092C14.958 8.72651 14.8834 8.83586 14.7784 8.90742L13.6521 7.25474C13.3379 7.46886 13.1164 7.79474 13.0336 8.16686L14.986 8.60092ZM14.7784 8.90742C14.6735 8.97889 14.5459 9.00763 14.4212 8.98848L14.7248 7.01166C14.3496 6.95404 13.9661 7.0407 13.6521 7.25474L14.7784 8.90742ZM14.42 8.9883C14.2946 8.96889 14.1806 8.90176 14.1025 8.79969L15.6909 7.5843C15.4548 7.27578 15.1088 7.0711 14.7259 7.01184L14.42 8.9883ZM14.1025 8.79969C14.0243 8.69751 13.9885 8.56851 14.0033 8.43978L15.9902 8.66796C16.0346 8.2813 15.927 7.89294 15.6909 7.5843L14.1025 8.79969ZM12.5289 2.20373C12.5238 2.27546 12.5012 2.34464 12.4631 2.40518L10.7696 1.34113C10.6331 1.55847 10.5521 1.80616 10.5339 2.0624L12.5289 2.20373ZM12.4631 2.40518C12.4251 2.46569 12.373 2.51558 12.3117 2.55077L11.3162 0.816132C11.094 0.943653 10.9062 1.12382 10.7696 1.34113L12.4631 2.40518ZM12.361 2.52052C12.2647 2.58349 12.1514 2.6147 12.037 2.61026L12.1146 0.611766C11.8147 0.600111 11.5184 0.68197 11.2668 0.846383L12.361 2.52052ZM12.037 2.61026C11.9226 2.60581 11.812 2.5659 11.7207 2.49552L12.9418 0.911588C12.7037 0.728029 12.4145 0.623421 12.1146 0.611766L12.037 2.61026ZM11.7224 2.49688C12.0888 2.77799 12.4119 3.11065 12.6818 3.48434L14.3032 2.31344C13.9195 1.78212 13.4603 1.30944 12.94 0.910221L11.7224 2.49688ZM12.6505 3.43837C12.5796 3.3277 12.553 3.19389 12.5767 3.064L14.5442 3.42305C14.6115 3.05452 14.5364 2.67451 14.3345 2.35941L12.6505 3.43837ZM12.5767 3.064C12.6004 2.93412 12.6724 2.81889 12.7769 2.74085L13.9732 4.34364C14.2726 4.12018 14.477 3.79154 14.5442 3.42305L12.5767 3.064ZM12.7459 2.76498C12.8434 2.68608 12.9661 2.64631 13.0904 2.65254L12.9903 4.65004C13.3571 4.66841 13.7183 4.55096 14.0042 4.31951L12.7459 2.76498ZM13.0904 2.65254C13.2147 2.65877 13.333 2.71061 13.4222 2.79908L12.0144 4.21961C12.2758 4.47869 12.6235 4.63166 12.9903 4.65004L13.0904 2.65254ZM13.4278 2.80464C13.0807 2.45521 12.744 2.11246 12.4205 1.76369L10.9542 3.12388C11.3021 3.49889 11.6588 3.86164 12.0088 4.21405L13.4278 2.80464ZM12.509 1.87385C12.4964 1.85564 12.4865 1.83582 12.4795 1.81498L10.5833 2.45116C10.6504 2.65106 10.7455 2.84045 10.8656 3.01372L12.509 1.87385Z" fill="#FDF7F0" mask="url(#path-1-inside-1_1067_3037)"/>
</svg>
