<svg width="12" height="12" viewBox="0 0 12 12" fill="none" xmlns="http://www.w3.org/2000/svg">
<path d="M6.0013 0.166626C9.22305 0.166626 11.8346 2.77821 11.8346 5.99996C11.8346 9.22171 9.22305 11.8333 6.0013 11.8333C2.77955 11.8333 0.167969 9.22171 0.167969 5.99996C0.167969 2.77821 2.77955 0.166626 6.0013 0.166626ZM6.0013 1.33329C4.76363 1.33329 3.57664 1.82496 2.70147 2.70013C1.8263 3.5753 1.33464 4.76228 1.33464 5.99996C1.33464 7.23764 1.8263 8.42462 2.70147 9.29979C3.57664 10.175 4.76363 10.6666 6.0013 10.6666C7.23898 10.6666 8.42596 10.175 9.30113 9.29979C10.1763 8.42462 10.668 7.23764 10.668 5.99996C10.668 4.76228 10.1763 3.5753 9.30113 2.70013C8.42596 1.82496 7.23898 1.33329 6.0013 1.33329ZM6.0013 2.49996C6.14418 2.49998 6.28208 2.55243 6.38885 2.64738C6.49562 2.74232 6.56384 2.87315 6.58055 3.01504L6.58464 3.08329V5.75846L8.16372 7.33754C8.26834 7.44252 8.32908 7.58338 8.3336 7.73152C8.33813 7.87965 8.28609 8.02396 8.18807 8.13512C8.09005 8.24629 7.9534 8.31597 7.80586 8.33003C7.65832 8.34408 7.51096 8.30145 7.39372 8.21079L7.33889 8.16238L5.58889 6.41238C5.49822 6.32164 5.44 6.20354 5.42322 6.07638L5.41797 5.99996V3.08329C5.41797 2.92858 5.47943 2.78021 5.58882 2.67081C5.69822 2.56142 5.84659 2.49996 6.0013 2.49996Z" fill="#2F4F4F"/>
</svg>
