<svg width="30" height="30" viewBox="0 0 30 30" fill="none" xmlns="http://www.w3.org/2000/svg">
<mask id="mask0_12797_24669" style="mask-type:luminance" maskUnits="userSpaceOnUse" x="0" y="0" width="30" height="30">
<path d="M0 0H30V30H0V0Z" fill="white"/>
</mask>
<g mask="url(#mask0_12797_24669)">
<path d="M17.9297 1.17188C17.9297 1.17188 15 2.03479 15 6.44531H17.9297V1.17188Z" fill="#89DF8F"/>
<path d="M15.5859 0.585938C15.5859 0.585938 12.0703 1.44885 12.0703 5.85938H15.5859V0.585938Z" fill="#89DF8F"/>
<path d="M15 4.70444V29.4141H11.4258C6.08631 29.4141 1.75781 25.0856 1.75781 19.7461C1.75781 15.533 4.45295 11.9498 8.21309 10.6255C8.97498 10.3571 9.56063 9.73805 9.77684 8.95975L10.6898 6.84486C11.1319 5.25322 13.3974 4.30377 15 4.70444Z" fill="#E4C9F5"/>
<path d="M21.6197 10.5677C20.9018 10.3296 20.3387 9.76594 20.0882 9.05221L19.0591 7.29117C18.8921 6.81516 18.6095 6.38806 18.2367 6.04822C17.8638 5.70837 17.4125 5.46641 16.923 5.34404L15 4.6875V29.4141H18.5742C23.9137 29.4141 28.2422 25.0856 28.2422 19.7461C28.2422 15.4707 25.467 11.8436 21.6197 10.5677Z" fill="#C193DC"/>
<path d="M15 6.82863V29.4141H12.0584C7.66394 29.4141 4.10156 25.8517 4.10156 21.4573C4.10156 17.9898 6.40535 15.2588 9.41432 13.9508C13.0664 12.3633 15 6.82863 15 6.82863Z" fill="#E4C9F5"/>
<path d="M15 11.2266V29.3906C11.7396 29.3906 6.91406 26.5256 6.91406 22.9914C6.91406 20.2028 8.6233 18.0064 10.8558 16.9545C13.5654 15.6778 15 11.2266 15 11.2266Z" fill="#FFF2A0"/>
<path d="M15 27.1016C13.3048 27.0052 10.3711 25.4294 10.3711 23.0502C10.3711 21.0646 11.5754 19.725 12.7024 19.1335C12.9526 19.0022 15 17.5778 15 16.3387V27.1016Z" fill="#FFCD69"/>
</g>
</svg>
