<svg xmlns="http://www.w3.org/2000/svg" width="44.297" height="44.297" viewBox="0 0 44.297 44.297">
  <g id="transaction_sent" data-name="transaction sent" transform="translate(-19.852 -404.852)">
    <g id="basecard" transform="translate(-14 51)">
      <path id="Path_24142" data-name="Path 24142" d="M15,0A15,15,0,1,1,0,15,15,15,0,0,1,15,0Z" transform="translate(42 358)" fill="#f86b50"/>
      <!-- <circle id="Ellipse_1949" data-name="Ellipse 1949" cx="9" cy="9" r="9" transform="translate(47 385) rotate(-90)" fill="#ecae6a" opacity="0.452"/> -->
    </g>
    <g id="sent" transform="translate(38.5 418)">
      <path id="Path_24118" data-name="Path 24118" d="M81.659,45.637A1.236,1.236,0,0,1,80.4,44.378V34.059a1.259,1.259,0,1,1,2.517,0v10.32A1.262,1.262,0,0,1,81.659,45.637Z" transform="translate(-77.044 -32.8)" fill="#fafcfc"/>
      <path id="Path_24121" data-name="Path 24121" d="M56.371,38.673a1.207,1.207,0,0,1-.881-.378L53.015,35.82,50.539,38.3a1.246,1.246,0,0,1-1.762-1.762l3.356-3.356a1.216,1.216,0,0,1,1.762,0l3.356,3.356a1.259,1.259,0,0,1-.881,2.139Z" transform="translate(-48.4 -32.8)" fill="#fafcfc"/>
    </g>
  </g>
</svg>
