<svg width="18" height="18" viewBox="0 0 18 18" fill="none" xmlns="http://www.w3.org/2000/svg">
<path d="M9 18C13.9706 18 18 13.9706 18 9C18 4.02944 13.9706 0 9 0C4.02944 0 0 4.02944 0 9C0 13.9706 4.02944 18 9 18Z" fill="#493D33"/>
<path fill-rule="evenodd" clip-rule="evenodd" d="M9.39002 8.72162C9.34477 8.65814 9.28464 8.60671 9.21491 8.57184C9.14518 8.53698 9.06796 8.51973 8.99002 8.52162C8.91219 8.52042 8.83521 8.53796 8.76559 8.57277C8.69597 8.60758 8.63575 8.65864 8.59002 8.72162L5.46002 13.0616C5.40719 13.1329 5.37551 13.2176 5.36862 13.306C5.36172 13.3945 5.37988 13.483 5.42102 13.5616C5.46162 13.6406 5.52329 13.7067 5.59918 13.7528C5.67508 13.7989 5.76224 13.823 5.85102 13.8226H12.127C12.2159 13.8205 12.3025 13.7947 12.3781 13.748C12.4537 13.7012 12.5155 13.6352 12.557 13.5566C12.5973 13.4766 12.615 13.387 12.6081 13.2977C12.6012 13.2083 12.5701 13.1226 12.518 13.0496L9.38002 8.70663L9.39002 8.72162Z" fill="#F6F2ED"/>
<path fill-rule="evenodd" clip-rule="evenodd" d="M8.99903 9.48997C9.07532 9.48958 9.15044 9.47129 9.21836 9.43655C9.28627 9.40181 9.34508 9.3516 9.39003 9.28997L12.528 4.93997C12.5793 4.86655 12.6095 4.78051 12.6153 4.69117C12.6212 4.60182 12.6025 4.51258 12.5614 4.43308C12.5202 4.35358 12.458 4.28686 12.3816 4.24013C12.3053 4.1934 12.2176 4.16845 12.128 4.16797H5.85303C5.76387 4.16826 5.67645 4.19267 5.60004 4.23862C5.52363 4.28457 5.46109 4.35035 5.41903 4.42897C5.3773 4.50713 5.35836 4.59544 5.36437 4.68384C5.37038 4.77224 5.4011 4.85718 5.45303 4.92897L8.58503 9.27197C8.62899 9.33462 8.68759 9.38559 8.75574 9.42045C8.82388 9.4553 8.8995 9.47299 8.97603 9.47197L8.99903 9.48997ZM6.79903 5.14497H11.182L8.98203 8.18197L6.79903 5.14497Z" fill="#F6F2ED"/>
<path fill-rule="evenodd" clip-rule="evenodd" d="M13.6896 5.14569H4.30859V4.17969H13.6896V5.14569Z" fill="#F6F2ED"/>
<path fill-rule="evenodd" clip-rule="evenodd" d="M13.6896 13.8341H4.30859V12.8691H13.6896V13.8341Z" fill="#F6F2ED"/>
<path d="M8.66016 9.16602L6.66016 6.16602H10.6602L8.66016 9.16602Z" fill="#F6F2ED"/>
</svg>
