<svg width="74" height="21" viewBox="0 0 74 21" fill="none" xmlns="http://www.w3.org/2000/svg">
<path d="M7.17687 4.72206e-07C6.49817 -0.000286867 5.82607 0.13318 5.19899 0.392773C4.5719 0.652365 4.00212 1.03299 3.52221 1.5129C3.0423 1.99281 2.66167 2.5626 2.40208 3.18968C2.14248 3.81677 2.00902 4.48887 2.0093 5.16756V7.10581C1.00575 7.28619 0 7.52779 0 7.84263V17.9504C0.00699951 18.042 0.0403394 18.1297 0.0960046 18.2028C0.15167 18.2759 0.227287 18.3314 0.313749 18.3625C1.45177 18.8238 5.93062 20.409 6.96041 20.7675C7.02445 20.7978 7.09404 20.8146 7.16484 20.8167C7.23556 20.8169 7.30541 20.8012 7.36927 20.7708C8.39797 20.4079 12.8888 18.8227 14.0269 18.3658C14.1093 18.3334 14.1812 18.2789 14.2346 18.2083C14.288 18.1377 14.3209 18.0538 14.3297 17.9657V7.84263C14.3297 7.52888 13.3381 7.27526 12.3324 7.10472V5.16756C12.3343 4.48944 12.2023 3.81761 11.944 3.19059C11.6857 2.56357 11.3062 1.9937 10.8273 1.51363C10.3483 1.03356 9.77934 0.652742 9.15293 0.393002C8.52651 0.133263 7.855 -0.000289815 7.17687 4.72206e-07ZM7.17687 2.46954C7.53957 2.43724 7.90494 2.48491 8.24721 2.60919C8.58949 2.73346 8.90033 2.93132 9.15781 3.18881C9.41529 3.44629 9.61315 3.75713 9.73743 4.0994C9.8617 4.44168 9.90937 4.80705 9.87707 5.16975V6.85328C8.08011 6.7207 6.27581 6.7207 4.47885 6.85328V5.17084C4.44603 4.80817 4.49326 4.44271 4.6172 4.10029C4.74113 3.75788 4.93875 3.44685 5.19609 3.1892C5.45344 2.93154 5.76422 2.73355 6.10649 2.60919C6.44875 2.48484 6.81415 2.43717 7.17687 2.46954ZM7.16484 9.33266C9.51413 9.33266 11.4852 9.51413 11.4852 9.83991V16.1455C11.4852 16.2439 11.4731 16.2548 11.3868 16.2898C11.3004 16.3248 7.38129 17.7427 7.38129 17.7427C7.31454 17.7644 7.24619 17.7808 7.17687 17.7919C7.10688 17.7787 7.0384 17.7586 6.97244 17.7317C6.97244 17.7317 3.04894 16.316 2.96586 16.2778C2.88277 16.2395 2.86747 16.2286 2.86747 16.1335V9.82788C2.84232 9.50211 4.81555 9.33266 7.16484 9.33266Z" fill="white"/>
<path d="M20.9948 16.2334V9.32768H18.4717V6.85156H26.3427V9.32768H23.8447V16.2334H20.9948Z" fill="white"/>
<path d="M32.7123 16.233L31.418 13.2813H30.3882V16.233H27.5459V6.85108H32.5538C32.993 6.81367 33.435 6.86991 33.8508 7.01602C34.2666 7.16214 34.6466 7.39478 34.9658 7.69867C35.285 8.00256 35.5361 8.37075 35.7024 8.77886C35.8687 9.18698 35.9466 9.6258 35.9307 10.0662C35.9557 10.6528 35.8092 11.234 35.5093 11.7387C35.2094 12.2435 34.7689 12.65 34.2418 12.9085L35.9417 16.2275H32.7157L32.7123 16.233ZM33.0479 10.0651C33.0479 9.55567 32.5965 9.33487 32.122 9.33487H30.3871V10.8172H32.122C32.5965 10.8063 33.0491 10.5866 33.0491 10.0662L33.0479 10.0651Z" fill="white"/>
<path d="M37.4212 16.2316V6.84973H44.5358V9.32585H40.2548V10.2518H44.4308V12.7279H40.2548V13.7577H44.5358V16.2316H37.4212Z" fill="white"/>
<path d="M46.0146 16.2452V13.9888L49.5905 9.3394H46.0146V6.86328H53.339V9.09779L49.7522 13.7723H53.4363V16.2484L46.0146 16.2452Z" fill="white"/>
<path d="M54.1363 11.5583C54.0768 10.5296 54.3275 9.50687 54.8559 8.62229C55.3843 7.73772 56.166 7.03213 57.0999 6.5969C58.0339 6.16166 59.0769 6.01677 60.0941 6.18107C61.1113 6.34537 62.0557 6.81128 62.8051 7.51842C63.5545 8.22556 64.0743 9.1414 64.2973 10.1473C64.5203 11.1533 64.4361 12.2029 64.0558 13.1605C63.6754 14.1181 63.0163 14.9394 62.1639 15.5182C61.3114 16.0969 60.3048 16.4064 59.2745 16.4066C58.6136 16.447 57.9515 16.3514 57.3291 16.1258C56.7066 15.9003 56.137 15.5494 55.6555 15.095C55.174 14.6407 54.7908 14.0924 54.5295 13.4841C54.2682 12.8758 54.1344 12.2203 54.1363 11.5583ZM61.5188 11.5583C61.5008 11.1161 61.3532 10.689 61.0944 10.33C60.8356 9.97104 60.4771 9.69605 60.0633 9.53921C59.6495 9.38238 59.1987 9.35058 58.767 9.44787C58.3353 9.54516 57.9416 9.76724 57.6351 10.0864C57.3285 10.4056 57.1225 10.8078 57.0427 11.2431C56.9629 11.6784 57.0129 12.1275 57.1863 12.5346C57.3597 12.9418 57.6489 13.289 58.0181 13.5331C58.3872 13.7772 58.8199 13.9075 59.2625 13.9076C59.5681 13.9125 59.8714 13.8542 60.1535 13.7367C60.4356 13.6191 60.6904 13.4447 60.9021 13.2242C61.1138 13.0038 61.2779 12.7421 61.384 12.4555C61.4901 12.1689 61.536 11.8634 61.5188 11.5583Z" fill="white"/>
<path d="M70.7702 16.2429L69.4758 13.2912H68.4461V16.2429H65.6037V6.86097H70.6117C71.0507 6.82357 71.4928 6.87979 71.9086 7.02584C72.3243 7.17189 72.7042 7.40445 73.0234 7.70822C73.3425 8.01199 73.5936 8.38003 73.76 8.78801C73.9264 9.196 74.0044 9.63464 73.9887 10.075C74.0137 10.6616 73.8672 11.2428 73.5673 11.7475C73.2674 12.2523 72.8267 12.6588 72.2996 12.9173L73.9997 16.2362H70.7735L70.7702 16.2429ZM71.118 10.064C71.118 9.55461 70.6663 9.33381 70.1919 9.33381H68.4571V10.8162H70.1919C70.6674 10.8053 71.1212 10.5845 71.1212 10.0619L71.118 10.064Z" fill="white"/>
</svg>
