<svg width="26" height="43" viewBox="0 0 26 43" fill="none" xmlns="http://www.w3.org/2000/svg">
<path d="M25.8789 14.454C25.8789 17.2414 25.7311 20.0411 25.9089 22.8139C26.1677 25.4618 25.8736 28.1364 25.0464 30.6561C24.2193 33.1757 22.8785 35.4815 21.1151 37.4169C20.5718 38.0191 20.1443 38.735 19.627 39.3641C18.6962 40.496 18.3866 42.5301 16.9504 42.764C14.4947 43.0168 12.0234 43.0666 9.55995 42.913C8.81891 42.913 8.41143 42.257 8.10782 41.6714C6.76286 39.3421 5.18629 37.1651 3.40388 35.1759C1.14805 32.3664 -0.045249 28.8034 0.0462115 25.1502C-0.0197036 17.7007 0.060193 10.2347 0.000270173 2.77701C-0.0157092 0.864986 0.6754 -0.00617493 2.537 3.29358e-05C9.44543 0.0262439 16.3545 0.0262439 23.2643 3.29358e-05C25.08 3.29358e-05 25.9229 0.740845 25.8909 2.69012C25.825 6.60521 25.8709 10.5244 25.8709 14.4416M12.8977 5.8375C10.4288 5.8375 7.95802 5.88508 5.4892 5.81887C4.1649 5.78369 3.66555 6.33828 3.67354 7.68125C3.70416 12.8724 3.70416 18.0636 3.67354 23.2547C3.67354 24.5128 4.19486 25.026 5.36336 25.024C10.3742 25.0129 15.3858 25.0129 20.398 25.024C21.6644 25.024 22.2256 24.5232 22.2136 23.1492C22.171 18.0339 22.171 12.9186 22.2136 7.80331C22.2256 6.35481 21.7243 5.77336 20.2961 5.82095C17.8293 5.90165 15.3585 5.84372 12.8897 5.84372" fill="#41594C"/>
</svg>
