<svg xmlns="http://www.w3.org/2000/svg" xmlns:xlink="http://www.w3.org/1999/xlink" width="128.676" height="129.104" viewBox="0 0 128.676 129.104">
  <defs>
    <linearGradient id="linear-gradient" x1="0.5" x2="0.5" y2="1" gradientUnits="objectBoundingBox">
      <stop offset="0" stop-color="#00836a"/>
      <stop offset="1" stop-color="#073e39"/>
    </linearGradient>
  </defs>
  <g id="trezor" transform="translate(-81 -476.81)">
    <path id="Union_23" data-name="Union 23" d="M21.684,66.622a2.567,2.567,0,1,1,2.567,2.567A2.567,2.567,0,0,1,21.684,66.622Zm8.977.123A1.753,1.753,0,1,1,32.414,68.5,1.753,1.753,0,0,1,30.661,66.745ZM0,32.5A29.965,29.965,0,1,1,29.965,62.46,29.965,29.965,0,0,1,0,32.5ZM7.132,3.256a3.256,3.256,0,1,1,3.255,3.255A3.255,3.255,0,0,1,7.132,3.256Z" transform="translate(81 536.725)" opacity="0.4" fill="url(#linear-gradient)"/>
    <path id="Union_22" data-name="Union 22" d="M18.278,24.819a.647.647,0,1,1,.158.02A.648.648,0,0,1,18.278,24.819Zm2-2.365a.95.95,0,1,1,.95.95A.95.95,0,0,1,20.276,22.454ZM0,12.316A11.088,11.088,0,1,1,11.088,23.4,11.088,11.088,0,0,1,0,12.316ZM17.507,1.2a1.2,1.2,0,1,1,1.2,1.2A1.2,1.2,0,0,1,17.507,1.2Z" transform="translate(187.5 476.81)" opacity="0.4" fill="url(#linear-gradient)"/>
    <g id="Rectangle_7601" data-name="Rectangle 7601" transform="translate(121.337 598.355) rotate(-90)" fill="#F6F2ED" stroke="#002c27" stroke-width="1.5">
      <rect width="109.127" height="74.394" rx="5" stroke="none"/>
      <rect x="0.75" y="0.75" width="107.627" height="72.894" rx="4.25" fill="none"/>
    </g>
    <g id="Rectangle_7600" data-name="Rectangle 7600" transform="translate(128.258 591.434) rotate(-90)" fill="none" stroke="#002c27" stroke-width="1.5" stroke-dasharray="1.5 2">
      <rect width="94.178" height="60.091" rx="5" stroke="none"/>
      <rect x="0.75" y="0.75" width="92.678" height="58.591" rx="4.25" fill="none"/>
    </g>
    <path id="Path_118455" data-name="Path 118455" d="M50.416,179.168c.638,9.584-1.884,17.967-8.5,25.041-.966,1.033-1.723,2.26-2.645,3.34-1.654,1.941-2.2,5.429-4.756,5.829-4.285.669-8.742.283-13.126.257-1.318-.008-2.041-1.125-2.58-2.117-2.242-4.127-5.352-7.613-8.356-11.137-4.271-5.011-5.906-10.853-5.965-17.192-.118-12.787.024-25.577-.083-38.364-.027-3.277,1.2-4.773,4.508-4.761q18.409.067,36.819,0c3.225-.014,4.723,1.272,4.665,4.623m-23.082,5.4c-4.387,0-8.775.083-13.159-.033-2.351-.062-3.238.891-3.224,3.182q.083,13.351.009,26.7c-.013,2.157.927,3.037,3,3.033q13.353-.027,26.707.01c2.248.01,3.246-.857,3.225-3.217q-.115-13.157.006-26.316c.022-2.467-.869-3.48-3.407-3.4-4.382.138-8.771.038-13.158.038" transform="translate(130.844 368.471)" fill="#3c3c3c"/>
  </g>
</svg>
