<svg id="trezor" xmlns="http://www.w3.org/2000/svg" width="67.688" height="19.045" viewBox="0 0 67.688 19.045">
  <path id="path7" d="M6.565,0A4.725,4.725,0,0,0,1.838,4.727V6.5C.92,6.665,0,6.886,0,7.174V16.42a.436.436,0,0,0,.287.377c1.041.422,5.138,1.872,6.08,2.2a.471.471,0,0,0,.187.045A.433.433,0,0,0,6.741,19c.941-.332,5.049-1.782,6.09-2.2a.44.44,0,0,0,.277-.366V7.174c0-.287-.907-.519-1.827-.675V4.727A4.714,4.714,0,0,0,6.565,0Zm0,2.259a2.277,2.277,0,0,1,2.47,2.47v1.54a33.556,33.556,0,0,0-4.938,0V4.73A2.275,2.275,0,0,1,6.565,2.259ZM6.554,8.537c2.149,0,3.952.166,3.952.464v5.768c0,.09-.011.1-.09.132S6.752,16.23,6.752,16.23a1.227,1.227,0,0,1-.187.045.974.974,0,0,1-.187-.055S2.789,14.925,2.713,14.89s-.09-.045-.09-.132V8.99C2.6,8.692,4.405,8.537,6.554,8.537Z" fill="#000000"/>
  <g id="g3222" transform="translate(16.897 6.127)">
    <path id="path13" d="M551.864,533.671v-6.317h-2.308v-2.265h7.2v2.265h-2.285v6.317Z" transform="translate(-549.556 -524.95)" fill="#000000"/>
    <path id="path15" d="M869.014,533.671l-1.184-2.7h-.942v2.7h-2.6v-8.582h4.581a2.849,2.849,0,0,1,3.089,2.941,2.765,2.765,0,0,1-1.545,2.6l1.555,3.036h-2.951Zm.307-5.642c0-.466-.413-.668-.847-.668h-1.587v1.356h1.587C868.908,528.707,869.322,528.506,869.322,528.03Z" transform="translate(-855.987 -524.951)" fill="#000000"/>
    <path id="path17" d="M1207.017,533.671v-8.582h6.508v2.265h-3.916v.847h3.82v2.265h-3.82v.942h3.916v2.263Z" transform="translate(-1189.683 -524.951)" fill="#000000"/>
    <path id="path19" d="M1505.211,534.054V531.99l3.271-4.253h-3.271v-2.265h6.7v2.044l-3.281,4.276H1512v2.265Z" transform="translate(-1480.016 -525.323)" fill="#000000"/>
    <path id="path21" d="M1786.966,524.277a4.707,4.707,0,1,1,4.7,4.435A4.43,4.43,0,0,1,1786.966,524.277Zm6.753,0a2.065,2.065,0,1,0-2.064,2.149A2.035,2.035,0,0,0,1793.719,524.277Z" transform="translate(-1754.342 -519.832)" fill="#000000"/>
    <path id="path23" d="M2189.479,534.054l-1.184-2.7h-.942v2.7h-2.6v-8.582h4.581a2.849,2.849,0,0,1,3.089,2.94,2.765,2.765,0,0,1-1.545,2.6l1.555,3.036h-2.951Zm.318-5.652c0-.466-.413-.668-.847-.668h-1.587v1.356h1.587C2189.385,529.08,2189.8,528.878,2189.8,528.4Z" transform="translate(-2141.639 -525.323)" fill="#000000"/>
  </g>
</svg>
