<svg width="22" height="22" viewBox="0 0 22 22" fill="none" xmlns="http://www.w3.org/2000/svg">
<g clip-path="url(#clip0_2063_17834)">
<path d="M16.5588 14.4066C16.2808 14.1843 15.8752 14.2294 15.6529 14.5073L10.9999 20.3237L6.34698 14.5073C6.12393 14.2285 5.71826 14.1849 5.44107 14.4066C5.1631 14.629 5.11799 15.0346 5.34039 15.3125L10.4966 21.7581C10.557 21.8335 10.6336 21.8945 10.7207 21.9364C10.8078 21.9783 10.9033 22 10.9999 22C11.0966 22 11.192 21.9783 11.2791 21.9364C11.3663 21.8945 11.4429 21.8335 11.5032 21.7581L16.6595 15.3125C16.8819 15.0346 16.8368 14.629 16.5588 14.4066ZM10.4966 13.2933C10.557 13.3687 10.6336 13.4297 10.7207 13.4715C10.8079 13.5134 10.9033 13.5351 10.9999 13.5351C11.0966 13.5351 11.192 13.5134 11.2791 13.4715C11.3663 13.4297 11.4428 13.3687 11.5032 13.2933L16.6595 6.84794C16.7353 6.75314 16.7829 6.63884 16.7966 6.5182C16.8104 6.39756 16.7898 6.27549 16.7372 6.16606C16.6846 6.05662 16.6021 5.96427 16.4993 5.89964C16.3966 5.83501 16.2776 5.80073 16.1562 5.80075L14.2226 5.80075L14.2226 0.644499C14.2226 0.288546 13.934 -3.40817e-05 13.5781 -3.40505e-05L8.42181 -3.35998e-05C8.06586 -3.35686e-05 7.77728 0.288546 7.77728 0.6445L7.77728 5.80075L5.84369 5.80075C5.72229 5.80078 5.60337 5.83509 5.50061 5.89973C5.39785 5.96437 5.31543 6.05672 5.26285 6.16613C5.21026 6.27555 5.18964 6.39759 5.20336 6.51821C5.21708 6.63883 5.26458 6.75313 5.34039 6.84794L10.4966 13.2933ZM8.42181 7.08981C8.77776 7.08981 9.06634 6.80123 9.06634 6.44528L9.06634 1.28903L12.9335 1.28903L12.9335 6.44528C12.9335 6.80123 13.2221 7.08981 13.5781 7.08981L14.8152 7.08981L10.9999 11.8588L7.1847 7.08981L8.42181 7.08981ZM10.4966 17.4633C10.557 17.5388 10.6336 17.5998 10.7207 17.6416C10.8078 17.6835 10.9033 17.7053 10.9999 17.7053C11.0966 17.7053 11.192 17.6835 11.2791 17.6416C11.3663 17.5998 11.4429 17.5388 11.5032 17.4633L16.6595 11.0179C16.8819 10.7399 16.8368 10.3343 16.5588 10.112C16.2808 9.88961 15.8752 9.93473 15.6529 10.2127L10.9999 16.0289L6.34698 10.2127C6.12393 9.93383 5.71826 9.8903 5.44107 10.112C5.1631 10.3343 5.11799 10.74 5.34039 11.0179L10.4966 17.4633Z" fill="#F6F2ED"/>
<path d="M11 12L7 7L8.5 6.5L9 1H13L13.5 6.5V7H15L11 12Z" fill="#F6F2ED"/>
</g>
<defs>
<clipPath id="clip0_2063_17834">
<rect width="22" height="22" fill="white" transform="translate(22 22) rotate(180)"/>
</clipPath>
</defs>
</svg>
