<svg xmlns="http://www.w3.org/2000/svg" xmlns:xlink="http://www.w3.org/1999/xlink" width="39.176" height="36" viewBox="0 0 39.176 36">
  <defs>
    <linearGradient id="linear-gradient" x1="0.157" y1="0.247" x2="0.87" y2="0.724" gradientUnits="objectBoundingBox">
      <stop offset="0" stop-color="#00836a"/>
      <stop offset="1" stop-color="#073e39"/>
    </linearGradient>
    <clipPath id="clip-path">
      <rect id="Rectangle_7392" data-name="Rectangle 7392" width="13.891" height="16.344" fill="#fafcfc"/>
    </clipPath>
  </defs>
  <g id="trust" transform="translate(-44 -220)">
    <path id="hexagontile3" d="M21.819,0a5,5,0,0,1,4.327,2.495l5.339,9.222a5,5,0,0,1,0,5.01L26.146,25.95a5,5,0,0,1-4.327,2.495h-10.7A5,5,0,0,1,6.79,25.95L1.45,16.728a5,5,0,0,1,0-5.01L6.79,2.495A5,5,0,0,1,11.117,0Z" transform="matrix(0.966, 0.259, -0.259, 0.966, 51.362, 220)" fill="url(#linear-gradient)"/>
    <g id="Group_38508" data-name="Group 38508" transform="translate(56.643 229.828)">
      <g id="Group_38507" data-name="Group 38507" clip-path="url(#clip-path)">
        <path id="Path_24075" data-name="Path 24075" d="M0,4.7q0-.924,0-1.847a.8.8,0,0,1,.892-.894A8.808,8.808,0,0,0,4.853,1.2,7.424,7.424,0,0,0,6.388.232.78.78,0,0,1,7.488.22a7.865,7.865,0,0,0,5.028,1.73c.183,0,.366,0,.549,0a.78.78,0,0,1,.825.842c-.023,1.165-.048,2.33-.106,3.493a25.546,25.546,0,0,1-.434,3.926A6.819,6.819,0,0,1,12.4,12.7a5.294,5.294,0,0,1-1.884,1.625,31.393,31.393,0,0,0-3.122,1.86.685.685,0,0,1-.84.028c-1.114-.8-2.343-1.4-3.52-2.093a5.288,5.288,0,0,1-2.453-3.74A25.774,25.774,0,0,1,.121,6.4c-.029-.566,0-1.135,0-1.7H0m12.3.186c0-.192,0-.384,0-.577s0-.386.01-.578c.01-.153-.027-.218-.2-.226A9.407,9.407,0,0,1,7.1,1.881a.234.234,0,0,0-.309-.006A9.421,9.421,0,0,1,1.785,3.5c-.16.007-.212.046-.2.218.041.875.049,1.752.1,2.626a27.312,27.312,0,0,0,.439,3.78A3.949,3.949,0,0,0,4.379,13.1c.562.27,1.1.6,1.639.91.308.176.6.5.914.517.329.02.623-.333.934-.519.768-.459,1.579-.841,2.333-1.325a3.221,3.221,0,0,0,1.311-1.671,9.747,9.747,0,0,0,.454-1.963c.2-1.384.27-2.777.34-4.172" transform="translate(0 0.001)" fill="#fafcfc"/>
      </g>
    </g>
  </g>
</svg>
