<svg xmlns="http://www.w3.org/2000/svg" width="278.027" height="201.554" viewBox="0 0 278.027 201.554">
  <g id="illustration" transform="translate(-51.999 -369)">
    <g id="background" transform="translate(0.063 146.001)">
      <circle id="Ellipse_1999" data-name="Ellipse 1999" cx="100.777" cy="100.777" r="100.777" transform="translate(83.279 222.999)" fill="#073b36" opacity="0.26"/>
      <path id="Path_25534" data-name="Path 25534" d="M122.53,21.4a5.9,5.9,0,1,0-5.9-5.9A5.9,5.9,0,0,0,122.53,21.4Z" transform="translate(189.572 307.115)" fill="#073b36" opacity="0.2"/>
      <g id="Group_41131" data-name="Group 41131" transform="translate(61.255 35.5)">
        <g id="Group_40642" data-name="Group 40642" transform="translate(47.898 362.053)">
          <g id="Group_40641" data-name="Group 40641">
            <rect id="Rectangle_7701" data-name="Rectangle 7701" width="1.822" height="3.536" fill="#508b82"/>
          </g>
        </g>
        <g id="Group_40644" data-name="Group 40644" transform="translate(47.898 371.796)">
          <g id="Group_40643" data-name="Group 40643" transform="translate(0 0)">
            <rect id="Rectangle_7702" data-name="Rectangle 7702" width="1.822" height="3.536" fill="#508b82"/>
          </g>
        </g>
        <g id="Group_40646" data-name="Group 40646" transform="translate(51.913 367.782)">
          <g id="Group_40645" data-name="Group 40645">
            <rect id="Rectangle_7703" data-name="Rectangle 7703" width="3.536" height="1.822" fill="#508b82"/>
          </g>
        </g>
        <g id="Group_40648" data-name="Group 40648" transform="translate(42.17 367.782)">
          <g id="Group_40647" data-name="Group 40647">
            <rect id="Rectangle_7704" data-name="Rectangle 7704" width="3.536" height="1.822" fill="#508b82"/>
          </g>
        </g>
      </g>
      <g id="Group_40650" data-name="Group 40650" transform="translate(51.937 266.141)">
        <g id="Group_40649" data-name="Group 40649">
          <circle id="Ellipse_2034" data-name="Ellipse 2034" cx="3.612" cy="3.612" r="3.612" fill="#508b82"/>
        </g>
      </g>
      <g id="Group_40652" data-name="Group 40652" transform="translate(65.527 320.894)">
        <g id="Group_40651" data-name="Group 40651">
          <circle id="Ellipse_2035" data-name="Ellipse 2035" cx="2.865" cy="2.865" r="2.865" fill="#508b82"/>
        </g>
      </g>
      <g id="Group_40656" data-name="Group 40656" transform="translate(323.563 331.07)">
        <g id="Group_40655" data-name="Group 40655">
          <circle id="Ellipse_2037" data-name="Ellipse 2037" cx="3.201" cy="3.201" r="3.201" fill="#508b82"/>
        </g>
      </g>
      <g id="Group_41157" data-name="Group 41157" transform="translate(274.527 239.751)">
        <g id="Group_40651-2" data-name="Group 40651">
          <circle id="Ellipse_2035-2" data-name="Ellipse 2035" cx="2.865" cy="2.865" r="2.865" fill="#508b82"/>
        </g>
      </g>
    </g>
    <g id="CONSENSUS-MODULAR_PROTOCOL" data-name="CONSENSUS-MODULAR PROTOCOL" transform="translate(70.49 301.332)">
      <g id="Group_49400" data-name="Group 49400" transform="translate(50.955 137.32)">
        <g id="Group_49399" data-name="Group 49399">
          <g id="Group_49398" data-name="Group 49398">
            <path id="Path_205235" data-name="Path 205235" d="M140.638,185.8a17.929,17.929,0,0,0-4.89.635c-.324.085-.634.184-.943.293-.023.009-.048.018-.072.029-.272.091-.529.19-.767.3a13.515,13.515,0,0,0-3.263,1.93c-.173.133-.338.269-.5.416-.08.067-.157.135-.25.221-.2.186-.4.373-.56.546-.153.153-.3.313-.441.47-.094.1-.181.205-.262.3s-.187.218-.273.334c-.131.156-.255.32-.39.508l-.04.058c-.026.036-.051.072-.073.106-.139.185-.269.371-.373.542-.061.092-.116.178-.164.263a5.5,5.5,0,0,0-.3.483,3.826,3.826,0,0,0-.2.357c-.111.2-.216.4-.315.6-.028.049-.053.1-.076.146-.111.217-.215.44-.29.616-.049.1-.093.205-.137.318a6.55,6.55,0,0,0-.281.681,1.521,1.521,0,0,0-.076.2c-.089.217-.167.44-.237.663-.03.073-.055.146-.079.219a32.407,32.407,0,0,0-1.482,10.246V214.3h1.987v-7.026a30.456,30.456,0,0,1,1.38-9.616c.012-.034.021-.069.037-.1a.939.939,0,0,0,.04-.106c.061-.2.128-.394.208-.585.009-.022.021-.055.03-.085a.965.965,0,0,0,.053-.128,4.587,4.587,0,0,1,.228-.556c.012-.024.025-.057.035-.081.023-.06.045-.12.1-.225.083-.191.172-.383.294-.62.016-.026.03-.052.043-.079.089-.185.185-.371.287-.549.013-.023.025-.046.036-.07a1.758,1.758,0,0,1,.113-.2c.013-.02.025-.041.037-.061a3.3,3.3,0,0,1,.219-.358,1.068,1.068,0,0,0,.066-.105c.028-.052.063-.1.122-.193.1-.158.2-.3.309-.448.017-.022.067-.093.081-.117l.06-.087c.09-.126.186-.253.288-.373.015-.017.03-.036.044-.055.063-.086.132-.164.207-.252s.139-.164.217-.25c.124-.137.248-.273.406-.433s.313-.313.474-.461c.064-.058.123-.111.187-.164.02-.016.039-.033.058-.051a4.757,4.757,0,0,1,.385-.322,11.589,11.589,0,0,1,2.819-1.665c.211-.094.423-.174.652-.25.022-.008.057-.021.092-.036.247-.086.5-.166.775-.24a15.982,15.982,0,0,1,4.367-.564h1.374v-1.987h-1.375Z" transform="translate(-123.907 -185.805)" fill="#b2d0cb"/>
          </g>
        </g>
      </g>
      <g id="Group_49402" data-name="Group 49402" transform="translate(83.737 137.32)">
        <g id="Group_49401" data-name="Group 49401">
          <path id="Path_205236" data-name="Path 205236" d="M205,185.8h-1.381v1.987H205c5.5,0,14.738,2.531,14.738,19.484v6.863h1.987v-6.863C221.73,193.631,215.634,185.8,205,185.8Z" transform="translate(-203.624 -185.805)" fill="#b2d0cb"/>
        </g>
      </g>
      <g id="Group_49404" data-name="Group 49404" transform="translate(70.291 146.668)">
        <g id="Group_49403" data-name="Group 49403" transform="translate(0 0)">
          <path id="Path_205237" data-name="Path 205237" d="M176.274,208.982l-1.936-.446-3.386,14.683a.994.994,0,0,0,.124.747l2.585,4.165,1.688-1.048-2.369-3.817Z" transform="translate(-170.927 -208.536)" fill="#b2d0cb"/>
        </g>
      </g>
      <g id="Group_49406" data-name="Group 49406" transform="translate(66.693 137.321)">
        <g id="Group_49405" data-name="Group 49405" transform="translate(0 0)">
          <path id="Path_205238" data-name="Path 205238" d="M178.111,210.209,173.868,193.2a.994.994,0,0,0-.964-.753h-2.421l-6.317-2.045v-2.612h8.222v-1.987h-9.215a.993.993,0,0,0-.994.994v4.328a.993.993,0,0,0,.688.945l7.154,2.316a.977.977,0,0,0,.306.049h1.8l3.948,15.826-2.276,3.4,1.651,1.106L177.973,211A1,1,0,0,0,178.111,210.209Z" transform="translate(-162.179 -185.806)" fill="#b2d0cb"/>
        </g>
      </g>
      <g id="Group_49408" data-name="Group 49408" transform="translate(80.667 134.44)">
        <g id="Group_49407" data-name="Group 49407">
          <rect id="Rectangle_9350" data-name="Rectangle 9350" width="1.987" height="3.877" fill="#b2d0cb"/>
        </g>
      </g>
      <g id="Group_49410" data-name="Group 49410" transform="translate(69.36 134.346)">
        <g id="Group_49409" data-name="Group 49409">
          <rect id="Rectangle_9351" data-name="Rectangle 9351" width="1.987" height="3.971" fill="#b2d0cb"/>
        </g>
      </g>
      <g id="Group_49413" data-name="Group 49413" transform="translate(64.678 113.349)">
        <g id="Group_49412" data-name="Group 49412" transform="translate(0 0)">
          <g id="Group_49411" data-name="Group 49411">
            <path id="Path_205239" data-name="Path 205239" d="M179.407,133.148c-2.4-.84-6.329-2.886-6.646-4.8a.993.993,0,0,0-1.608-.609,23.538,23.538,0,0,1-12.925,4.289.994.994,0,0,0-.952.993v8a8.5,8.5,0,0,0,8.486,8.486h5.824a8.5,8.5,0,0,0,8.486-8.486v-6.931A.993.993,0,0,0,179.407,133.148Zm-1.321,7.869a6.507,6.507,0,0,1-6.5,6.5h-5.824a6.506,6.506,0,0,1-6.5-6.5v-7.063a26.2,26.2,0,0,0,12.056-3.908c1.425,2.415,5.172,4.1,6.766,4.728v6.243Z" transform="translate(-157.277 -127.514)" fill="#b2d0cb"/>
          </g>
        </g>
      </g>
      <g id="Group_49415" data-name="Group 49415" transform="translate(69.212 119.148)">
        <g id="Group_49414" data-name="Group 49414" transform="translate(0 0)">
          <path id="Path_205240" data-name="Path 205240" d="M177.225,141.615a29.335,29.335,0,0,1-8.921,2.907v4.8a3.955,3.955,0,0,0,3.951,3.951h5.824a3.955,3.955,0,0,0,3.951-3.951v-4.56A18.38,18.38,0,0,1,177.225,141.615Z" transform="translate(-168.304 -141.615)" fill="#f2ede6"/>
        </g>
      </g>
      <g id="Group_49418" data-name="Group 49418" transform="translate(63.498 104.669)">
        <g id="Group_49417" data-name="Group 49417" transform="translate(0 0)">
          <g id="Group_49416" data-name="Group 49416">
            <path id="Path_205241" data-name="Path 205241" d="M173.194,109.326a4.223,4.223,0,0,0-2.847-2.517,19.249,19.249,0,0,0-9.875.576c-6.154,2.047-6.1,7.043-6.054,11.875,0,.449.009.9.009,1.358a.993.993,0,0,0,.994.994,25.5,25.5,0,0,0,15.3-4.763.993.993,0,0,0,.225-.261l1.941-3.254A4.524,4.524,0,0,0,173.194,109.326Zm-2.013,2.989-1.844,3.09a24.08,24.08,0,0,1-12.929,4.2q0-.183,0-.367c-.048-4.681-.086-8.379,4.694-9.969a18.6,18.6,0,0,1,5.658-.886,12.349,12.349,0,0,1,3.083.347,2.223,2.223,0,0,1,1.515,1.346A2.527,2.527,0,0,1,171.182,112.315Z" transform="translate(-154.41 -106.405)" fill="#b2d0cb"/>
          </g>
        </g>
      </g>
      <g id="Group_49421" data-name="Group 49421" transform="translate(78.189 106.958)">
        <g id="Group_49420" data-name="Group 49420" transform="translate(0 0)">
          <g id="Group_49419" data-name="Group 49419">
            <path id="Path_205242" data-name="Path 205242" d="M199.532,112.8a4.36,4.36,0,0,0-3.607-.725c-2.029.383-3.329,2.758-3.534,3.157l-2.122,3.622a1,1,0,0,0-.124.656c.618,3.925,8.4,6.532,9.284,6.816a.979.979,0,0,0,.3.048.993.993,0,0,0,.993-.994v-9.758A3.48,3.48,0,0,0,199.532,112.8Zm-.793,11.174c-2.66-1.029-5.946-2.783-6.551-4.464l1.932-3.3c.01-.017.021-.036.029-.053.252-.5,1.186-1.949,2.145-2.131a2.465,2.465,0,0,1,1.97.3,1.576,1.576,0,0,1,.475,1.293v8.351Z" transform="translate(-190.133 -111.973)" fill="#b2d0cb"/>
          </g>
        </g>
      </g>
      <g id="Group_49432" data-name="Group 49432" transform="translate(157.352 137.32)">
        <g id="Group_49431" data-name="Group 49431">
          <path id="Path_205247" data-name="Path 205247" d="M384.016,185.8h-1.381v1.987h1.381c5.5,0,14.738,2.531,14.738,19.484v6.615h1.987v-6.615C400.741,193.631,394.645,185.8,384.016,185.8Z" transform="translate(-382.635 -185.805)" fill="#b2d0cb"/>
        </g>
      </g>
      <g id="Group_49434" data-name="Group 49434" transform="translate(124.569 137.32)">
        <g id="Group_49433" data-name="Group 49433">
          <path id="Path_205248" data-name="Path 205248" d="M319.641,185.8a15.859,15.859,0,0,0-10.011,3.282c-4.455,3.543-6.715,9.663-6.715,18.189v6.779H304.9v-6.779c0-7.89,2.006-13.487,5.964-16.634a13.714,13.714,0,0,1,8.774-2.85h1.382V185.8Z" transform="translate(-302.916 -185.805)" fill="#b2d0cb"/>
        </g>
      </g>
      <g id="Group_49436" data-name="Group 49436" transform="translate(140.3 137.32)">
        <g id="Group_49435" data-name="Group 49435">
          <path id="Path_205249" data-name="Path 205249" d="M357.11,210.209,352.86,193.2a.994.994,0,0,0-.964-.753h-2.415l-6.324-2.046v-2.611h8.229V185.8h-9.222a.994.994,0,0,0-.993.994v4.328a.993.993,0,0,0,.688.945l7.162,2.316a.982.982,0,0,0,.306.049h1.8l3.954,15.825-2.112,3.147,1.649,1.107L356.971,211A.993.993,0,0,0,357.11,210.209Z" transform="translate(-341.17 -185.805)" fill="#b2d0cb"/>
        </g>
      </g>
      <g id="Group_49438" data-name="Group 49438" transform="translate(143.899 146.667)">
        <g id="Group_49437" data-name="Group 49437">
          <path id="Path_205250" data-name="Path 205250" d="M355.276,208.982l-1.936-.448-3.393,14.683a.994.994,0,0,0,.124.748l2.437,3.924,1.688-1.048-2.221-3.576Z" transform="translate(-349.921 -208.534)" fill="#b2d0cb"/>
        </g>
      </g>
      <g id="Group_49440" data-name="Group 49440" transform="translate(154.279 134.441)">
        <g id="Group_49439" data-name="Group 49439">
          <rect id="Rectangle_9352" data-name="Rectangle 9352" width="1.987" height="3.876" fill="#b2d0cb"/>
        </g>
      </g>
      <g id="Group_49442" data-name="Group 49442" transform="translate(142.972 134.346)">
        <g id="Group_49441" data-name="Group 49441">
          <rect id="Rectangle_9353" data-name="Rectangle 9353" width="1.987" height="3.971" fill="#b2d0cb"/>
        </g>
      </g>
      <g id="Group_49445" data-name="Group 49445" transform="translate(138.29 113.349)">
        <g id="Group_49444" data-name="Group 49444" transform="translate(0 0)">
          <g id="Group_49443" data-name="Group 49443">
            <path id="Path_205251" data-name="Path 205251" d="M358.411,133.148c-2.4-.84-6.329-2.886-6.646-4.8a.993.993,0,0,0-1.607-.609,23.543,23.543,0,0,1-12.926,4.289.994.994,0,0,0-.952.993v8a8.5,8.5,0,0,0,8.486,8.486h5.824a8.5,8.5,0,0,0,8.486-8.485v-6.932A.994.994,0,0,0,358.411,133.148Zm-1.321,7.87a6.506,6.506,0,0,1-6.5,6.5h-5.824a6.507,6.507,0,0,1-6.5-6.5v-7.063a26.2,26.2,0,0,0,12.056-3.908c1.426,2.415,5.172,4.1,6.766,4.728v6.244Z" transform="translate(-336.281 -127.514)" fill="#b2d0cb"/>
          </g>
        </g>
      </g>
      <g id="Group_49447" data-name="Group 49447" transform="translate(142.825 119.148)">
        <g id="Group_49446" data-name="Group 49446" transform="translate(0 0)">
          <path id="Path_205252" data-name="Path 205252" d="M356.229,141.615a29.336,29.336,0,0,1-8.921,2.907v4.8a3.955,3.955,0,0,0,3.951,3.951h5.824a3.955,3.955,0,0,0,3.951-3.951v-4.56A18.379,18.379,0,0,1,356.229,141.615Z" transform="translate(-347.308 -141.615)" fill="#f2ede6"/>
        </g>
      </g>
      <g id="Group_49450" data-name="Group 49450" transform="translate(137.111 104.668)">
        <g id="Group_49449" data-name="Group 49449" transform="translate(0 0)">
          <g id="Group_49448" data-name="Group 49448">
            <path id="Path_205253" data-name="Path 205253" d="M352.2,109.324a4.222,4.222,0,0,0-2.847-2.516,19.232,19.232,0,0,0-9.875.575c-6.155,2.047-6.1,7.044-6.053,11.876,0,.449.009.9.009,1.358a.994.994,0,0,0,.994.994,25.5,25.5,0,0,0,15.3-4.763,1,1,0,0,0,.226-.261l1.942-3.254A4.528,4.528,0,0,0,352.2,109.324Zm-2.013,2.99-1.844,3.09a24.082,24.082,0,0,1-12.929,4.2q0-.183,0-.366c-.049-4.682-.086-8.38,4.694-9.971a18.588,18.588,0,0,1,5.656-.885,12.367,12.367,0,0,1,3.085.347,2.221,2.221,0,0,1,1.514,1.345A2.526,2.526,0,0,1,350.186,112.314Z" transform="translate(-333.414 -106.404)" fill="#b2d0cb"/>
          </g>
        </g>
      </g>
      <g id="Group_49453" data-name="Group 49453" transform="translate(151.801 106.958)">
        <g id="Group_49452" data-name="Group 49452" transform="translate(0 0)">
          <g id="Group_49451" data-name="Group 49451">
            <path id="Path_205254" data-name="Path 205254" d="M378.536,112.8a4.354,4.354,0,0,0-3.606-.725c-2.029.383-3.329,2.757-3.535,3.157l-2.122,3.622a.987.987,0,0,0-.124.656c.618,3.925,8.4,6.532,9.284,6.816a.977.977,0,0,0,.3.048.993.993,0,0,0,.993-.994v-9.757A3.479,3.479,0,0,0,378.536,112.8Zm-.793,11.174c-2.66-1.028-5.947-2.783-6.552-4.464l1.932-3.3c.01-.017.021-.036.03-.053.252-.5,1.186-1.949,2.145-2.131a2.466,2.466,0,0,1,1.97.3,1.576,1.576,0,0,1,.475,1.294v8.35Z" transform="translate(-369.136 -111.972)" fill="#b2d0cb"/>
          </g>
        </g>
      </g>
      <g id="Group_49465" data-name="Group 49465" transform="translate(31.556 164.376)">
        <g id="Group_49464" data-name="Group 49464">
          <g id="Group_49463" data-name="Group 49463">
            <path id="Path_205259" data-name="Path 205259" d="M237.351,251.888a.935.935,0,0,0-.7-.29l-158.922.529a.994.994,0,0,0-.99.994v53.156a.993.993,0,0,0,.994.994h0l158.922-.529a.994.994,0,0,0,.99-.994V252.592A.994.994,0,0,0,237.351,251.888Zm-1.695,52.87-156.935.523V254.112l156.935-.523Z" transform="translate(-76.734 -251.596)" fill="#508b82"/>
          </g>
        </g>
      </g>
      <g id="Group_49467" data-name="Group 49467" transform="translate(43.065 222.707)">
        <g id="Group_49466" data-name="Group 49466">
          <path id="Path_205260" data-name="Path 205260" d="M124.953,393.441v4.479H106.709v-4.412h-1.987v5.406a.993.993,0,0,0,.994.994h20.231a.993.993,0,0,0,.994-.994v-5.473Z" transform="translate(-104.722 -393.441)" fill="#508b82"/>
        </g>
      </g>
      <g id="Group_49469" data-name="Group 49469" transform="translate(157.031 222.328)">
        <g id="Group_49468" data-name="Group 49468">
          <path id="Path_205261" data-name="Path 205261" d="M402.084,392.518V397H383.84v-4.412h-1.987v5.406a.994.994,0,0,0,.994.994h20.23a.994.994,0,0,0,.994-.994v-5.473h-1.987Z" transform="translate(-381.853 -392.518)" fill="#508b82"/>
        </g>
      </g>
      <g id="Group_49476" data-name="Group 49476" transform="translate(31.632 186.719)">
        <g id="Group_49475" data-name="Group 49475">
          <g id="Group_49474" data-name="Group 49474">
            <path id="Path_205264" data-name="Path 205264" d="M127.556,328.349a10.371,10.371,0,0,0,1.951,1l.714-1.854a8.473,8.473,0,0,1-1.579-.808Zm4.378-.4-.31,1.962a10.472,10.472,0,0,0,1.626.127h.51v-1.987h-.51A8.431,8.431,0,0,1,131.934,327.951Zm3.6-.077.406,1.946a10.423,10.423,0,0,0,2.087-.673l-.806-1.816A8.339,8.339,0,0,1,135.529,327.875Zm-11.045-2.617a10.453,10.453,0,0,0,1.373,1.707l1.409-1.4a8.494,8.494,0,0,1-1.112-1.382Zm-1.438-12.375-1.73.979a11.664,11.664,0,0,1,.774,1.657l1.861-.7A13.649,13.649,0,0,0,123.046,312.882Zm1.5,4-1.948.4a11.75,11.75,0,0,1,.223,1.816l1.985-.088A13.8,13.8,0,0,0,124.541,316.881Zm.368,4-1.965.3a10.377,10.377,0,0,0,.553,2.121l1.859-.7A8.358,8.358,0,0,1,124.908,320.882Zm16.2,2.935,1.722.991a10.407,10.407,0,0,0,.887-2.006l-1.892-.607A8.41,8.41,0,0,1,141.111,323.818Zm5.92-14.613,1.291,1.511a11.809,11.809,0,0,1,1.48-1.077l-1.041-1.692A13.76,13.76,0,0,0,147.031,309.2Zm-8.279,17.24,1.17,1.605a10.525,10.525,0,0,0,1.626-1.467l-1.478-1.329A8.535,8.535,0,0,1,138.751,326.445Zm11.916-19.475.762,1.836a11.666,11.666,0,0,1,1.74-.567l-.465-1.932A13.656,13.656,0,0,0,150.668,306.97Zm-6.41,5.471,1.691,1.044a11.876,11.876,0,0,1,1.079-1.478l-1.508-1.293A13.663,13.663,0,0,0,144.257,312.442Zm-1.644,3.938,1.931.468a11.625,11.625,0,0,1,.57-1.736l-1.834-.766A13.573,13.573,0,0,0,142.614,316.379Zm-22.222-6.838L119.046,311a11.927,11.927,0,0,1,1.247,1.341l1.556-1.237A13.9,13.9,0,0,0,120.392,309.541Zm21.836,10.077c0,.282-.014.565-.042.84l1.977.2c.034-.341.051-.69.051-1.037q0-.486.039-.964l-1.98-.162C142.244,318.864,142.228,319.243,142.228,319.619Zm-54.963,8.435a8.527,8.527,0,0,1-1.548-.141l-.363,1.953a10.472,10.472,0,0,0,1.911.175l.271,0-.047-1.987Zm1.98-.233.466,1.932a10.458,10.458,0,0,0,2.065-.735l-.86-1.792A8.478,8.478,0,0,1,89.245,327.821Zm5.46-4.222,1.751.939a10.335,10.335,0,0,0,.826-2.031l-1.909-.55A8.35,8.35,0,0,1,94.706,323.6Zm60.111-17.628.159,1.98q.467-.038.944-.037h.962v-1.987h-.962C155.55,305.927,155.178,305.942,154.817,305.971ZM92.425,326.292l1.216,1.572a10.47,10.47,0,0,0,1.583-1.515l-1.517-1.283A8.533,8.533,0,0,1,92.425,326.292Zm-13.533-5.643-1.972.242a10.408,10.408,0,0,0,.493,2.135l1.878-.649A8.432,8.432,0,0,1,78.892,320.649Zm2.437,7.537a10.447,10.447,0,0,0,1.923,1.054l.765-1.835a8.354,8.354,0,0,1-1.555-.852Zm-2.983-3.175a10.443,10.443,0,0,0,1.325,1.745l1.448-1.361a8.509,8.509,0,0,1-1.073-1.413ZM112.5,307.993a11.78,11.78,0,0,1,1.794.356l.538-1.913a13.8,13.8,0,0,0-2.1-.415Zm-3.91-2.043.115,1.983q.34-.019.686-.019h1.243v-1.987h-1.243Q108.989,305.927,108.592,305.95Zm7.42,3.03a11.778,11.778,0,0,1,1.6.892l1.1-1.653a13.671,13.671,0,0,0-1.867-1.043Zm-11.59-2.124.72,1.853a11.76,11.76,0,0,1,1.753-.528l-.422-1.942A13.753,13.753,0,0,0,104.422,306.857Zm-6.531,5.331,1.668,1.08a11.807,11.807,0,0,1,1.111-1.454l-1.48-1.326A13.749,13.749,0,0,0,97.891,312.188Zm2.844-3.177,1.258,1.538a11.711,11.711,0,0,1,1.5-1.044l-1-1.715A13.649,13.649,0,0,0,100.736,309.011Zm-4.575,7.077,1.92.511a11.657,11.657,0,0,1,.608-1.724l-1.816-.806A13.709,13.709,0,0,0,96.161,316.088Zm-.459,3.531q0,.3-.021.593l1.983.134q.025-.361.025-.728a11.826,11.826,0,0,1,.063-1.221l-1.977-.2A13.954,13.954,0,0,0,95.7,319.619ZM196.916,307.09l.8,1.818a11.55,11.55,0,0,1,1.725-.605l-.507-1.921A13.591,13.591,0,0,0,196.916,307.09ZM217.9,320.382l-1.979.177a10.413,10.413,0,0,0,.425,2.151l1.9-.589A8.424,8.424,0,0,1,217.9,320.382Zm-4.911-11.241-1.281,1.519a11.884,11.884,0,0,1,1.3,1.285l1.5-1.3A13.917,13.917,0,0,0,212.992,309.141Zm4.469,7.147-1.927.484a11.579,11.579,0,0,1,.3,1.8l1.979-.175A13.6,13.6,0,0,0,217.461,316.288Zm-8.869-7.512a11.65,11.65,0,0,1,1.633.82l1.029-1.7a13.667,13.667,0,0,0-1.912-.961ZM201.043,306l.2,1.977a12.036,12.036,0,0,1,1.2-.061h.681v-1.987h-.681A13.967,13.967,0,0,0,201.043,306Zm4,1.947a11.654,11.654,0,0,1,1.808.275l.452-1.935a13.744,13.744,0,0,0-2.116-.322Zm10.748,4.415-1.684,1.054a11.774,11.774,0,0,1,.847,1.621l1.828-.778A13.729,13.729,0,0,0,215.789,312.361Zm15.713,14.59.985,1.726a10.431,10.431,0,0,0,1.779-1.279l-1.323-1.483A8.466,8.466,0,0,1,231.5,326.951Zm2.635-2.351,1.6,1.174a10.417,10.417,0,0,0,1.1-1.893l-1.812-.814A8.46,8.46,0,0,1,234.137,324.6Zm1.628-4.982a8.536,8.536,0,0,1-.184,1.766l1.943.412a10.488,10.488,0,0,0,.228-2.178Zm-11.7,10.181a10.526,10.526,0,0,0,2.177.241l.012-1.987a8.487,8.487,0,0,1-1.765-.2Zm-3.968-1.808a10.4,10.4,0,0,0,1.888,1.114l.823-1.809a8.452,8.452,0,0,1-1.527-.9Zm-2.884-3.267a10.543,10.543,0,0,0,1.269,1.784l1.49-1.313a8.584,8.584,0,0,1-1.029-1.448Zm10.924,3.29.19,1.978a10.457,10.457,0,0,0,2.147-.437l-.6-1.9A8.446,8.446,0,0,1,228.14,328.016Zm-61.446-18.677-1.313,1.492a11.833,11.833,0,0,1,1.276,1.312l1.528-1.27A13.814,13.814,0,0,0,166.694,309.339Zm7.131,18.835a10.3,10.3,0,0,0,1.921,1.058l.768-1.832a8.478,8.478,0,0,1-1.552-.855ZM171,316.585l-1.938.438a11.727,11.727,0,0,1,.263,1.81l1.983-.132A13.808,13.808,0,0,0,171,316.585Zm-.158,8.41a10.489,10.489,0,0,0,1.321,1.746l1.452-1.357a8.567,8.567,0,0,1-1.072-1.416Zm.558-4.361-1.973.235a10.39,10.39,0,0,0,.489,2.137l1.88-.646A8.358,8.358,0,0,1,171.4,320.634Zm-9.1-11.758a11.784,11.784,0,0,1,1.616.857l1.065-1.678a13.823,13.823,0,0,0-1.889-1Zm-3.531-.909a11.66,11.66,0,0,1,1.8.315l.5-1.925a13.8,13.8,0,0,0-2.108-.369ZM193.33,309.4l1.323,1.483a11.838,11.838,0,0,1,1.457-1.11l-1.079-1.669A13.874,13.874,0,0,0,193.33,309.4Zm-23.909,3.215-1.706,1.018a11.6,11.6,0,0,1,.809,1.639l1.846-.736A13.694,13.694,0,0,0,169.42,312.619Zm19.653,4.057,1.941.426a11.678,11.678,0,0,1,.531-1.749l-1.85-.725A13.533,13.533,0,0,0,189.073,316.675Zm1.555-3.971,1.714,1a11.849,11.849,0,0,1,1.045-1.5l-1.537-1.259A13.68,13.68,0,0,0,190.628,312.7Zm-1.872,6.914a8.522,8.522,0,0,1-.07,1.091l1.97.255a10.48,10.48,0,0,0,.087-1.347q0-.356.021-.706l-1.983-.116Q188.756,319.2,188.756,319.619Zm-3.683,6.97,1.12,1.642a10.5,10.5,0,0,0,1.67-1.418l-1.437-1.371A8.528,8.528,0,0,1,185.073,326.588Zm-3.264,1.335.348,1.956a10.39,10.39,0,0,0,2.106-.61l-.752-1.839A8.392,8.392,0,0,1,181.809,327.923Zm5.7-3.89,1.691,1.043a10.376,10.376,0,0,0,.947-1.978l-1.873-.664A8.387,8.387,0,0,1,187.509,324.033Zm-9.3,3.875-.366,1.953a10.534,10.534,0,0,0,1.931.178h.228v-1.987h-.228A8.439,8.439,0,0,1,178.212,327.909Z" transform="translate(-76.92 -305.927)" fill="#508b82"/>
          </g>
        </g>
      </g>
      <g id="Group_49478" data-name="Group 49478" transform="translate(36.091 169.443)">
        <g id="Group_49477" data-name="Group 49477">
          <path id="Path_205265" data-name="Path 205265" d="M87.762,263.917v30.967a5.887,5.887,0,1,0,11.775,0,16.258,16.258,0,0,1,16.24-16.239h1.73a16.258,16.258,0,0,1,16.24,16.24,5.894,5.894,0,0,0,5.887,5.888h.543a5.894,5.894,0,0,0,5.888-5.888,16.258,16.258,0,0,1,16.24-16.24h1.73a16.258,16.258,0,0,1,16.24,16.24,5.894,5.894,0,0,0,5.887,5.888h.544a5.894,5.894,0,0,0,5.887-5.888,16.258,16.258,0,0,1,16.24-16.24h1.73a16.258,16.258,0,0,1,16.24,16.24,5.894,5.894,0,0,0,5.887,5.888h1.026a5.894,5.894,0,0,0,5.887-5.888V263.917Z" transform="translate(-87.762 -263.917)" fill="#b2d0cb"/>
        </g>
      </g>
    </g>
  </g>
</svg>
