<svg xmlns="http://www.w3.org/2000/svg" width="10.33" height="9.107" viewBox="0 0 10.33 9.107">
  <path id="Twitter" d="M15.876,8.707a6.031,6.031,0,0,1-1.67,6,6.184,6.184,0,0,1-7.866.009,2.357,2.357,0,0,0,.493.027,3.159,3.159,0,0,0,2.2-1.278A5.989,5.989,0,0,1,6.988,7.941a.183.183,0,0,1,.319-.082A5.154,5.154,0,0,0,9,9.136a5.065,5.065,0,0,0,2.1.475,2.531,2.531,0,0,1,1.6-2.436,2.469,2.469,0,0,1,2.555.493c.475-.018.949-.027,1.424-.046C16.405,7.986,16.141,8.342,15.876,8.707Z" transform="translate(-6.34 -7.01)" fill="#F9F4F0"/>
</svg>
