<svg width="64" height="20" viewBox="0 0 64 20" fill="none" xmlns="http://www.w3.org/2000/svg">
<rect width="64" height="20" rx="5" fill="#493D33"/>
<path d="M16.8118 6.72727H17.9126V11.5107C17.9126 12.0196 17.7931 12.4706 17.554 12.8636C17.3149 13.2543 16.9787 13.562 16.5455 13.7869C16.1122 14.0095 15.6044 14.1207 15.022 14.1207C14.442 14.1207 13.9354 14.0095 13.5021 13.7869C13.0689 13.562 12.7327 13.2543 12.4936 12.8636C12.2545 12.4706 12.1349 12.0196 12.1349 11.5107V6.72727H13.2322V11.4219C13.2322 11.7509 13.3045 12.0433 13.4489 12.299C13.5956 12.5547 13.8028 12.7559 14.0703 12.9027C14.3378 13.0471 14.6551 13.1193 15.022 13.1193C15.3913 13.1193 15.7098 13.0471 15.9773 12.9027C16.2472 12.7559 16.4531 12.5547 16.5952 12.299C16.7396 12.0433 16.8118 11.7509 16.8118 11.4219V6.72727ZM19.4228 16.0455V8.54545H20.4597V9.42969H20.5485C20.61 9.31605 20.6988 9.18466 20.8148 9.03551C20.9308 8.88636 21.0918 8.75616 21.2978 8.64489C21.5037 8.53125 21.776 8.47443 22.1145 8.47443C22.5549 8.47443 22.9479 8.5857 23.2935 8.80824C23.6391 9.03078 23.9102 9.35156 24.1067 9.7706C24.3056 10.1896 24.405 10.6939 24.405 11.2834C24.405 11.8729 24.3068 12.3783 24.1103 12.7997C23.9138 13.2187 23.6439 13.5419 23.3006 13.7692C22.9573 13.9941 22.5655 14.1065 22.1252 14.1065C21.7937 14.1065 21.5227 14.0509 21.312 13.9396C21.1036 13.8284 20.9403 13.6982 20.8219 13.549C20.7035 13.3999 20.6124 13.2673 20.5485 13.1513H20.4846V16.0455H19.4228ZM20.4632 11.2727C20.4632 11.6562 20.5189 11.9924 20.6301 12.2812C20.7414 12.5701 20.9024 12.7962 21.1131 12.9595C21.3238 13.1205 21.5819 13.201 21.8873 13.201C22.2045 13.201 22.4696 13.117 22.6827 12.9489C22.8958 12.7784 23.0568 12.5476 23.1657 12.2564C23.2769 11.9652 23.3326 11.6373 23.3326 11.2727C23.3326 10.9129 23.2781 10.5897 23.1692 10.3033C23.0627 10.0168 22.9017 9.79072 22.6863 9.625C22.4732 9.45928 22.2069 9.37642 21.8873 9.37642C21.5795 9.37642 21.3191 9.45573 21.106 9.61435C20.8953 9.77296 20.7355 9.99432 20.6266 10.2784C20.5177 10.5625 20.4632 10.8939 20.4632 11.2727ZM27.8816 16.1591C27.4483 16.1591 27.0755 16.1023 26.763 15.9886C26.4528 15.875 26.1995 15.7247 26.003 15.5376C25.8065 15.3506 25.6597 15.1458 25.5627 14.9233L26.4753 14.5469C26.5392 14.651 26.6245 14.7611 26.731 14.8771C26.8399 14.9955 26.9867 15.0961 27.1713 15.179C27.3584 15.2618 27.5987 15.3033 27.8922 15.3033C28.2947 15.3033 28.6273 15.205 28.8901 15.0085C29.1529 14.8144 29.2843 14.5043 29.2843 14.0781V13.0057H29.2168C29.1529 13.1217 29.0605 13.2507 28.9398 13.3928C28.8214 13.5348 28.6581 13.6579 28.4498 13.7621C28.2414 13.8662 27.9703 13.9183 27.6365 13.9183C27.2057 13.9183 26.8174 13.8177 26.4718 13.6165C26.1285 13.4129 25.8562 13.1134 25.655 12.718C25.4561 12.3203 25.3567 11.8314 25.3567 11.2514C25.3567 10.6714 25.455 10.1742 25.6515 9.75994C25.8503 9.34564 26.1226 9.02841 26.4682 8.80824C26.8139 8.5857 27.2057 8.47443 27.6436 8.47443C27.9822 8.47443 28.2556 8.53125 28.464 8.64489C28.6723 8.75616 28.8345 8.88636 28.9505 9.03551C29.0688 9.18466 29.16 9.31605 29.2239 9.42969H29.302V8.54545H30.3425V14.1207C30.3425 14.5895 30.2336 14.9742 30.0158 15.2749C29.798 15.5755 29.5033 15.7981 29.1316 15.9425C28.7623 16.0869 28.3456 16.1591 27.8816 16.1591ZM27.8709 13.0376C28.1763 13.0376 28.4344 12.9666 28.6451 12.8246C28.8581 12.6802 29.0191 12.4742 29.128 12.2067C29.2393 11.9368 29.2949 11.6136 29.2949 11.2372C29.2949 10.8703 29.2405 10.5471 29.1316 10.2678C29.0227 9.9884 28.8629 9.7706 28.6522 9.61435C28.4415 9.45573 28.181 9.37642 27.8709 9.37642C27.5513 9.37642 27.285 9.45928 27.0719 9.625C26.8588 9.78835 26.6979 10.0109 26.589 10.2926C26.4824 10.5743 26.4292 10.8892 26.4292 11.2372C26.4292 11.5947 26.4836 11.9084 26.5925 12.1783C26.7014 12.4482 26.8624 12.6589 27.0755 12.8104C27.2909 12.9619 27.556 13.0376 27.8709 13.0376ZM31.7665 14V8.54545H32.7928V9.41193H32.8496C32.949 9.11837 33.1242 8.88755 33.3752 8.71946C33.6285 8.54901 33.915 8.46378 34.2346 8.46378C34.3008 8.46378 34.379 8.46615 34.4689 8.47088C34.5613 8.47562 34.6335 8.48153 34.6855 8.48864V9.50426C34.6429 9.49242 34.5672 9.4794 34.4583 9.4652C34.3494 9.44863 34.2405 9.44034 34.1316 9.44034C33.8806 9.44034 33.6569 9.49361 33.4604 9.60014C33.2663 9.70431 33.1124 9.84991 32.9988 10.0369C32.8851 10.2216 32.8283 10.4323 32.8283 10.669V14H31.7665ZM37.1429 14.1207C36.7973 14.1207 36.4848 14.0568 36.2054 13.929C35.9261 13.7988 35.7047 13.6106 35.5414 13.3643C35.3804 13.1181 35.2999 12.8163 35.2999 12.4588C35.2999 12.151 35.3591 11.8977 35.4775 11.6989C35.5958 11.5 35.7556 11.3426 35.9569 11.2266C36.1581 11.1106 36.383 11.023 36.6316 10.9638C36.8801 10.9046 37.1335 10.8596 37.3915 10.8288C37.7182 10.791 37.9834 10.7602 38.187 10.7365C38.3906 10.7105 38.5385 10.669 38.6309 10.6122C38.7232 10.5554 38.7694 10.4631 38.7694 10.3352V10.3104C38.7694 10.0002 38.6818 9.75994 38.5066 9.58949C38.3337 9.41903 38.0757 9.33381 37.7324 9.33381C37.3749 9.33381 37.0932 9.41312 36.8873 9.57173C36.6837 9.72798 36.5428 9.90199 36.4647 10.0938L35.4668 9.86648C35.5852 9.53504 35.758 9.26752 35.9853 9.06392C36.2149 8.85795 36.4789 8.70881 36.7772 8.61648C37.0755 8.52178 37.3891 8.47443 37.7182 8.47443C37.936 8.47443 38.1668 8.50047 38.4107 8.55256C38.6569 8.60227 38.8865 8.6946 39.0996 8.82955C39.315 8.96449 39.4914 9.15743 39.6287 9.40838C39.766 9.65696 39.8347 9.98011 39.8347 10.3778V14H38.7978V13.2543H38.7551C38.6865 13.3916 38.5835 13.5265 38.4462 13.6591C38.3089 13.7917 38.1325 13.9018 37.9171 13.9893C37.7016 14.0769 37.4436 14.1207 37.1429 14.1207ZM37.3738 13.2685C37.6673 13.2685 37.9183 13.2105 38.1266 13.0945C38.3373 12.9785 38.4971 12.8269 38.606 12.6399C38.7173 12.4505 38.7729 12.2481 38.7729 12.0327V11.3295C38.735 11.3674 38.6616 11.4029 38.5527 11.4361C38.4462 11.4669 38.3243 11.4941 38.187 11.5178C38.0497 11.5391 37.9159 11.5592 37.7857 11.5781C37.6555 11.5947 37.5466 11.6089 37.459 11.6207C37.253 11.6468 37.0648 11.6906 36.8944 11.7521C36.7263 11.8137 36.5913 11.9025 36.4895 12.0185C36.3901 12.1321 36.3404 12.2836 36.3404 12.473C36.3404 12.7358 36.4374 12.9347 36.6316 13.0696C36.8257 13.2022 37.0731 13.2685 37.3738 13.2685ZM43.2908 14.1065C42.8505 14.1065 42.4575 13.9941 42.1119 13.7692C41.7686 13.5419 41.4987 13.2187 41.3022 12.7997C41.1081 12.3783 41.011 11.8729 41.011 11.2834C41.011 10.6939 41.1093 10.1896 41.3058 9.7706C41.5046 9.35156 41.7769 9.03078 42.1225 8.80824C42.4682 8.5857 42.86 8.47443 43.2979 8.47443C43.6365 8.47443 43.9087 8.53125 44.1147 8.64489C44.323 8.75616 44.484 8.88636 44.5977 9.03551C44.7137 9.18466 44.8036 9.31605 44.8675 9.42969H44.9315V6.72727H45.9933V14H44.9563V13.1513H44.8675C44.8036 13.2673 44.7113 13.3999 44.5906 13.549C44.4722 13.6982 44.3088 13.8284 44.1005 13.9396C43.8922 14.0509 43.6223 14.1065 43.2908 14.1065ZM43.5252 13.201C43.8306 13.201 44.0887 13.1205 44.2994 12.9595C44.5124 12.7962 44.6734 12.5701 44.7823 12.2812C44.8936 11.9924 44.9492 11.6562 44.9492 11.2727C44.9492 10.8939 44.8948 10.5625 44.7859 10.2784C44.677 9.99432 44.5172 9.77296 44.3065 9.61435C44.0958 9.45573 43.8353 9.37642 43.5252 9.37642C43.2056 9.37642 42.9393 9.45928 42.7262 9.625C42.5131 9.79072 42.3522 10.0168 42.2433 10.3033C42.1367 10.5897 42.0835 10.9129 42.0835 11.2727C42.0835 11.6373 42.1379 11.9652 42.2468 12.2564C42.3557 12.5476 42.5167 12.7784 42.7298 12.9489C42.9452 13.117 43.2103 13.201 43.5252 13.201ZM49.8596 14.1101C49.3221 14.1101 48.8593 13.9953 48.4711 13.7656C48.0852 13.5336 47.7869 13.2081 47.5762 12.7891C47.3678 12.3677 47.2637 11.8741 47.2637 11.3082C47.2637 10.7495 47.3678 10.2571 47.5762 9.83097C47.7869 9.40483 48.0804 9.07221 48.4569 8.8331C48.8356 8.59399 49.2783 8.47443 49.785 8.47443C50.0927 8.47443 50.391 8.52533 50.6799 8.62713C50.9687 8.72893 51.2279 8.88873 51.4576 9.10653C51.6872 9.32434 51.8683 9.60724 52.0009 9.95526C52.1335 10.3009 52.1998 10.7211 52.1998 11.2159V11.5923H47.8638V10.7969H51.1593C51.1593 10.5175 51.1025 10.2701 50.9888 10.0547C50.8752 9.83688 50.7154 9.66525 50.5094 9.53977C50.3058 9.4143 50.0667 9.35156 49.7921 9.35156C49.4938 9.35156 49.2334 9.42495 49.0108 9.57173C48.7907 9.71615 48.6202 9.90554 48.4995 10.1399C48.3811 10.3719 48.3219 10.6241 48.3219 10.8963V11.5178C48.3219 11.8823 48.3858 12.1925 48.5137 12.4482C48.6439 12.7038 48.825 12.8991 49.057 13.0341C49.289 13.1667 49.5601 13.233 49.8702 13.233C50.0714 13.233 50.2549 13.2045 50.4206 13.1477C50.5864 13.0885 50.7296 13.0009 50.8503 12.8849C50.9711 12.7689 51.0634 12.6257 51.1273 12.4553L52.1323 12.6364C52.0518 12.9323 51.9074 13.1915 51.699 13.4141C51.4931 13.6342 51.2338 13.8059 50.9213 13.929C50.6112 14.0497 50.2573 14.1101 49.8596 14.1101Z" fill="#F9F4F0"/>
</svg>
