<svg width="19" height="18" viewBox="0 0 19 18" fill="none" xmlns="http://www.w3.org/2000/svg">
<path d="M18.4998 8.47384V9.53021C18.4866 9.57999 18.4766 9.63056 18.4699 9.68162C18.3818 10.9369 18.0508 12.1267 17.4442 13.227C16.0447 15.761 13.9176 17.3134 11.069 17.8583C10.7256 17.9239 10.3752 17.9538 10.0283 18H8.97398C8.92932 17.9874 8.88388 17.9777 8.83795 17.971C7.58201 17.8856 6.3877 17.563 5.29069 16.9494C2.33023 15.2944 0.725203 12.7609 0.516541 9.37615C0.409838 7.77447 0.772723 6.17646 1.56073 4.77789C3.21198 1.82535 5.74543 0.224522 9.12321 0.0154499C10.7463 -0.0844645 12.2928 0.272499 13.7226 1.05685C16.262 2.45213 17.8072 4.57777 18.3581 7.43377C18.4237 7.77752 18.4536 8.12744 18.4998 8.47384ZM11.1623 9.66225C11.7218 9.66225 12.254 9.66225 12.7867 9.66225C13.0508 9.66225 13.2709 9.56366 13.388 9.31365C13.5007 9.07201 13.4457 8.84797 13.285 8.64154C12.1898 7.23922 11.0948 5.83645 10.0001 4.43325C9.71794 4.07277 9.28212 4.07497 8.99951 4.43633C7.90601 5.83308 6.81603 7.23247 5.72958 8.6345C5.64301 8.74363 5.58655 8.87353 5.56582 9.01127C5.5218 9.38672 5.80354 9.65697 6.21954 9.66137C6.69366 9.66666 7.16821 9.66137 7.64232 9.66137C7.70395 9.66137 7.76558 9.66709 7.83998 9.67106V9.89773C7.83998 10.9691 7.83998 12.0401 7.83998 13.1108C7.83998 13.6117 8.05568 13.8287 8.55445 13.83C9.18102 13.83 9.8076 13.83 10.4342 13.83C10.947 13.83 11.1618 13.6161 11.1623 13.1064C11.1623 12.0351 11.1623 10.9641 11.1623 9.89333V9.66225Z" fill="#F6F2ED"/>
</svg>
