<svg width="203" height="159" viewBox="0 0 203 159" fill="none" xmlns="http://www.w3.org/2000/svg">
<g opacity="0.272">
<path d="M45.7824 146.908C65.8357 146.908 82.0921 130.652 82.0921 110.599C82.0921 90.5455 65.8357 74.2891 45.7824 74.2891C25.7291 74.2891 9.47266 90.5455 9.47266 110.599C9.47266 130.652 25.7291 146.908 45.7824 146.908Z" fill="url(#paint0_linear_2692_6248)"/>
<path d="M55.7314 157.04C56.2101 157.427 56.7931 157.664 57.4066 157.72C58.02 157.777 58.6364 157.65 59.1776 157.355C59.7188 157.061 60.1606 156.613 60.447 156.068C60.7335 155.522 60.8517 154.904 60.7867 154.292C60.7217 153.679 60.4764 153.099 60.082 152.626C59.6875 152.153 59.1615 151.808 58.5706 151.634C57.9797 151.46 57.3504 151.465 56.7624 151.648C56.1744 151.832 55.6541 152.186 55.2674 152.665C54.7496 153.307 54.5077 154.128 54.5947 154.948C54.6817 155.769 55.0905 156.521 55.7314 157.04Z" fill="url(#paint1_linear_2692_6248)"/>
<path d="M66.9069 150.468C67.2334 150.733 67.631 150.894 68.0493 150.933C68.4677 150.971 68.888 150.885 69.2572 150.684C69.6264 150.484 69.9279 150.178 70.1235 149.807C70.3191 149.435 70.4001 149.013 70.3562 148.596C70.3122 148.178 70.1454 147.782 69.8768 147.459C69.6082 147.136 69.2498 146.9 68.847 146.781C68.4442 146.662 68.015 146.664 67.6138 146.789C67.2126 146.914 66.8573 147.154 66.5929 147.481C66.2384 147.919 66.0723 148.479 66.1312 149.04C66.1901 149.6 66.4691 150.114 66.9069 150.468Z" fill="url(#paint2_linear_2692_6248)"/>
<path d="M3.94492 100.509C4.72515 100.509 5.48786 100.278 6.13659 99.8441C6.78533 99.4107 7.29096 98.7946 7.58954 98.0737C7.88813 97.3529 7.96625 96.5597 7.81403 95.7944C7.66182 95.0292 7.2861 94.3263 6.73439 93.7746C6.18269 93.2229 5.47977 92.8472 4.71453 92.6949C3.94929 92.5427 3.1561 92.6208 2.43526 92.9194C1.71442 93.218 1.09831 93.7236 0.664838 94.3724C0.231365 95.0211 0 95.7838 0 96.5641C0 97.6103 0.415623 98.6137 1.15544 99.3535C1.89525 100.093 2.89866 100.509 3.94492 100.509Z" fill="url(#paint3_linear_2692_6248)"/>
</g>
<g opacity="0.272">
<path d="M186.613 37.2276C192.542 32.7606 193.727 24.3331 189.26 18.4043C184.793 12.4755 176.365 11.2905 170.436 15.7575C164.507 20.2245 163.322 28.652 167.789 34.5808C172.256 40.5096 180.684 41.6946 186.613 37.2276Z" fill="url(#paint4_linear_2692_6248)"/>
<path d="M185.929 42.439C185.873 42.6599 185.754 42.8594 185.586 43.0125C185.417 43.1655 185.207 43.2652 184.982 43.2988C184.757 43.3324 184.527 43.2985 184.321 43.2014C184.115 43.1043 183.942 42.9483 183.825 42.7532C183.708 42.5581 183.651 42.3325 183.662 42.1052C183.673 41.8778 183.751 41.6588 183.887 41.4758C184.022 41.2928 184.209 41.1541 184.423 41.0772C184.637 41.0003 184.869 40.9887 185.09 41.0437C185.386 41.1176 185.641 41.3061 185.798 41.5678C185.956 41.8294 186.002 42.1428 185.929 42.439Z" fill="url(#paint5_linear_2692_6248)"/>
<path d="M181.161 42.9876C181.124 43.1385 181.042 43.2749 180.927 43.3794C180.812 43.484 180.668 43.5521 180.514 43.5751C180.361 43.598 180.203 43.5749 180.063 43.5085C179.922 43.4422 179.804 43.3356 179.724 43.2023C179.644 43.069 179.605 42.9149 179.613 42.7595C179.62 42.6042 179.674 42.4545 179.766 42.3295C179.859 42.2045 179.986 42.1097 180.133 42.0572C180.279 42.0046 180.438 41.9967 180.589 42.0343C180.791 42.0848 180.965 42.2136 181.072 42.3924C181.18 42.5711 181.212 42.7852 181.161 42.9876Z" fill="url(#paint6_linear_2692_6248)"/>
<path d="M188.648 14.1927C188.417 14.3666 188.14 14.4681 187.851 14.4845C187.563 14.5008 187.276 14.4313 187.027 14.2846C186.778 14.1379 186.578 13.9208 186.453 13.6605C186.327 13.4003 186.282 13.1087 186.322 12.8225C186.362 12.5364 186.486 12.2687 186.679 12.0531C186.871 11.8376 187.123 11.6839 187.403 11.6116C187.683 11.5393 187.977 11.5515 188.25 11.6468C188.523 11.7421 188.761 11.9161 188.935 12.1469C189.168 12.4563 189.269 12.8457 189.215 13.2294C189.161 13.613 188.957 13.9596 188.648 14.1927Z" fill="url(#paint7_linear_2692_6248)"/>
</g>
<path d="M110.733 141.607C149.837 141.607 181.537 109.907 181.537 70.8036C181.537 31.6999 149.837 0 110.733 0C71.6295 0 39.9297 31.6999 39.9297 70.8036C39.9297 109.907 71.6295 141.607 110.733 141.607Z" fill="#F6F2ED"/>
<path d="M110.733 140.604C149.282 140.604 180.532 109.353 180.532 70.8042C180.532 32.2551 149.282 1.00488 110.733 1.00488C72.1838 1.00488 40.9336 32.2551 40.9336 70.8042C40.9336 109.353 72.1838 140.604 110.733 140.604Z" stroke="#002C27" stroke-width="2"/>
<path d="M176.288 71.508C176.301 80.1882 174.587 88.7842 171.245 96.7953C167.903 104.806 163.001 112.072 156.823 118.17C150.793 124.176 143.634 128.931 135.76 132.161C127.885 135.391 119.45 137.032 110.938 136.99C97.9822 137.015 85.3096 133.196 74.5246 126.016C63.7396 118.837 55.3269 108.619 50.3512 96.6559C45.3756 84.6931 44.0606 71.5231 46.5728 58.8127C49.085 46.1023 55.3113 34.4227 64.4639 25.2523C73.6164 16.0819 85.2838 9.83286 97.9893 7.29592C110.695 4.75897 123.867 6.04821 135.84 11.0005C147.812 15.9528 158.047 24.3456 165.247 35.1166C172.448 45.8876 176.292 58.5527 176.292 71.509L176.288 71.508Z" fill="url(#paint8_linear_2692_6248)"/>
<path d="M110.696 116.392C135.933 116.392 156.392 95.9331 156.392 70.6959C156.392 45.4588 135.933 25 110.696 25C85.4588 25 65 45.4588 65 70.6959C65 95.9331 85.4588 116.392 110.696 116.392Z" fill="#F6F2ED"/>
<path d="M97 71.9341V70.0202C97.0171 69.9417 97.0399 69.8632 97.0528 69.7833C97.1555 69.1368 97.2125 68.4817 97.3652 67.8466C98.221 64.3057 100.157 61.4899 103.154 59.439C106.228 57.3353 109.64 56.6032 113.31 57.2012C115.884 57.5946 118.282 58.7469 120.198 60.5108C124.258 64.2458 125.851 68.8642 124.563 74.2433C123.335 79.3811 120.076 82.8264 115.075 84.5804C114.581 84.7545 114.065 84.8658 113.56 85H113.394V71.2333C114.177 71.4217 114.935 71.6072 115.694 71.7828C115.817 71.8115 115.944 71.8168 116.069 71.7985C116.571 71.7157 116.987 71.0649 116.484 70.4027C114.886 68.3004 113.313 66.1811 111.727 64.0688C111.299 63.4979 110.687 63.4979 110.252 64.0688C109.817 64.6397 109.396 65.2106 108.968 65.7729L105.506 70.4084C105.221 70.7937 105.184 71.122 105.39 71.4402C105.597 71.7585 105.938 71.8784 106.4 71.7657C107.105 71.5944 107.807 71.4146 108.54 71.2305V85H108.366C108.185 84.95 108.004 84.8972 107.821 84.8573C105.309 84.2591 103.018 82.9612 101.214 81.1138C99.1185 79.0354 97.7225 76.3557 97.2197 73.4469C97.1284 72.9417 97.0713 72.4364 97 71.9341Z" fill="url(#paint9_linear_2692_6248)"/>
<path d="M110.737 115.499C135.419 115.499 155.428 95.4894 155.428 70.8069C155.428 46.1244 135.419 26.1152 110.737 26.1152C86.0541 26.1152 66.0449 46.1244 66.0449 70.8069C66.0449 95.4894 86.0541 115.499 110.737 115.499Z" stroke="#002C27" stroke-width="2"/>
<path d="M110.736 97.3832C105.574 97.3832 100.529 95.8527 96.238 92.9854C91.9467 90.118 88.6021 86.0426 86.627 81.2744C84.6519 76.5061 84.1352 71.2593 85.142 66.1974C86.1489 61.1355 88.6342 56.4858 92.2837 52.8364C95.9331 49.1869 100.583 46.7017 105.645 45.6948C110.707 44.6879 115.953 45.2047 120.722 47.1797C125.49 49.1548 129.565 52.4994 132.433 56.7907C135.3 61.082 136.83 66.1272 136.83 71.2883C136.819 78.2055 134.066 84.836 129.175 89.7272C124.283 94.6185 117.653 97.3715 110.736 97.3832ZM110.736 46.8495C105.902 46.8495 101.177 48.2828 97.1581 50.9682C93.1391 53.6535 90.0067 57.4703 88.157 61.9359C86.3073 66.4016 85.8233 71.3154 86.7663 76.056C87.7093 80.7967 90.0369 85.1513 93.4547 88.5691C96.8725 91.9869 101.227 94.3145 105.968 95.2575C110.708 96.2005 115.622 95.7165 120.088 93.8668C124.553 92.0171 128.37 88.8847 131.056 84.8657C133.741 80.8468 135.174 76.1218 135.174 71.2883C135.175 68.0788 134.543 64.9008 133.315 61.9356C132.087 58.9705 130.286 56.2762 128.017 54.0068C125.748 51.7374 123.053 49.9373 120.088 48.7092C117.123 47.4812 113.945 46.8492 110.736 46.8495Z" fill="#002C27"/>
<path d="M110.735 94.5235C110.182 94.5235 109.63 94.5235 109.027 94.4733L109.128 92.8664C109.931 92.9166 110.735 92.9167 111.538 92.9167L111.588 94.5235H110.735ZM113.346 94.4231L113.145 92.8162C113.647 92.766 114.198 92.6656 114.701 92.5651L115.002 94.172C114.448 94.2725 113.896 94.3227 113.344 94.4231H113.346ZM107.374 94.3227L105.718 94.0214L106.07 92.4145C106.572 92.5149 107.074 92.6154 107.625 92.7158L107.374 94.3227ZM116.658 93.7703L116.256 92.2146L117.763 91.7627L118.315 93.3184C117.711 93.469 117.158 93.6197 116.656 93.7703H116.658ZM104.062 93.5694C103.51 93.4188 103.009 93.2179 102.455 93.0171L103.058 91.5106C103.56 91.7115 104.062 91.8621 104.564 92.0128L104.062 93.5694ZM119.82 92.6656L119.167 91.1591C119.669 90.9583 120.12 90.7072 120.573 90.5063L121.326 91.9616C120.838 92.2267 120.334 92.4621 119.818 92.6666L119.82 92.6656ZM100.951 92.3643L99.4442 91.6111L100.248 90.205C100.701 90.4693 101.17 90.7041 101.654 90.908L100.951 92.3643ZM122.831 91.1591L121.978 89.7531C122.432 89.4983 122.868 89.2134 123.283 88.9004L124.237 90.206C123.782 90.5585 123.28 90.8598 122.828 91.1611L122.831 91.1591ZM97.99 90.7072C97.538 90.4059 97.0369 90.0544 96.6352 89.7541L97.6395 88.4485C98.0412 88.7498 98.4921 89.0511 98.8939 89.3524L97.99 90.7072ZM125.54 89.2007L124.487 87.9463C124.888 87.5948 125.29 87.2433 125.641 86.8928L126.745 88.0468C126.381 88.4699 125.976 88.8573 125.538 89.2037L125.54 89.2007ZM95.3306 88.6483C94.9289 88.2968 94.5271 87.8951 94.1254 87.4944L95.2794 86.3405C95.6309 86.692 96.0326 87.0937 96.4333 87.4452L95.3306 88.6483ZM128 86.8406L126.795 85.7359C127.146 85.3341 127.498 84.9324 127.799 84.5307L129.104 85.535C128.75 85.992 128.348 86.4439 127.998 86.8456L128 86.8406ZM92.9725 86.238C92.621 85.7861 92.2695 85.3854 91.919 84.9324L93.2245 83.9793C93.5258 84.3811 93.8773 84.832 94.1776 85.2337L92.9725 86.238ZM130.057 84.1802L128.703 83.2763C129.004 82.8244 129.255 82.3724 129.506 81.9215L130.912 82.7249C130.656 83.2288 130.37 83.7164 130.054 84.1852L130.057 84.1802ZM90.9649 83.5274C90.6636 83.0755 90.4125 82.5743 90.1122 82.0721L91.5674 81.3189C91.8185 81.7709 92.0696 82.2228 92.3709 82.6737L90.9649 83.5274ZM131.713 81.2687L130.257 80.5657C130.488 80.0936 130.69 79.6076 130.86 79.1104L132.366 79.713C132.191 80.2508 131.972 80.7731 131.711 81.2747L131.713 81.2687ZM89.4092 80.5155C89.2083 80.0133 88.9573 79.462 88.8066 78.9598L90.3623 78.4074C90.5159 78.9035 90.7004 79.3896 90.9146 79.8627L89.4092 80.5155ZM132.968 78.1051L131.412 77.603C131.563 77.1008 131.714 76.5987 131.814 76.0965L133.421 76.448L132.968 78.1051ZM88.3055 77.3519C88.1548 76.7995 88.0544 76.2472 87.9037 75.6958L89.5106 75.3945C89.6111 75.8967 89.7115 76.3988 89.8621 76.901L88.3055 77.3519ZM133.72 74.8411L132.113 74.5901C132.214 74.0879 132.264 73.5365 132.314 73.0344L133.921 73.185C133.869 73.6972 133.768 74.2998 133.718 74.8522L133.72 74.8411ZM87.6527 74.0377L87.502 72.3816L89.1089 72.3314C89.1093 72.8536 89.1597 73.3745 89.2595 73.887L87.6527 74.0377ZM133.971 71.4787H132.364V71.3281C132.373 70.8588 132.356 70.3895 132.314 69.922L133.921 69.8216C133.971 70.3238 133.971 70.8259 133.971 71.3281V71.4787ZM89.1069 70.7365L87.5 70.6863C87.5 70.134 87.5502 69.5816 87.6004 68.979L89.2073 69.1296C89.1561 69.683 89.1561 70.2354 89.1069 70.7365ZM132.113 68.3262C132.063 67.8241 131.963 67.2727 131.862 66.7705L133.469 66.419L133.77 68.0751L132.113 68.3262ZM89.4584 67.6232L87.8515 67.3219C87.9519 66.7695 88.0524 66.2172 88.203 65.6658L89.7587 66.0675C89.6583 66.5717 89.5086 67.124 89.4574 67.6252L89.4584 67.6232ZM131.462 65.2651C131.311 64.7629 131.16 64.2608 130.959 63.7586L132.466 63.2063C132.667 63.7084 132.817 64.2598 133.018 64.8131L131.462 65.2651ZM90.2116 64.5621L88.656 64.0599C88.8124 63.5087 89.014 62.9712 89.2585 62.453L90.765 63.0556C90.5611 63.5608 90.3603 64.0629 90.2116 64.5641V64.5621ZM130.408 62.3034C130.207 61.8514 129.956 61.3503 129.705 60.8973L131.111 60.0939L131.864 61.6004L130.408 62.3034ZM91.4168 61.6536L89.9616 60.9004C90.2126 60.3982 90.4637 59.8961 90.765 59.3939L92.171 60.2466C91.8912 60.6998 91.6393 61.1696 91.4168 61.6536ZM128.904 59.5958C128.602 59.1438 128.301 58.7431 128 58.2902L129.305 57.2859C129.652 57.7345 129.97 58.2041 130.258 58.6919L128.904 59.5958ZM93.0237 58.9942L91.6689 58.0411C91.9702 57.5892 92.3217 57.1372 92.6732 56.6863L93.9276 57.6906C93.6263 58.1405 93.2707 58.5423 93.0237 58.9942ZM126.997 57.086C126.646 56.6843 126.294 56.3328 125.944 55.9321L127.098 54.7781C127.5 55.1798 127.901 55.5816 128.252 55.9833L126.997 57.086ZM94.9811 56.5336L93.7759 55.4289L94.9811 54.2237L96.0858 55.4289C95.6801 55.7824 95.3286 56.1841 94.9771 56.5356L94.9811 56.5336ZM124.74 54.8775C124.338 54.526 123.936 54.2247 123.535 53.9244L124.488 52.6189C124.94 52.9704 125.391 53.3219 125.793 53.6724L124.74 54.8775ZM97.286 54.4316L96.2817 53.1772C96.7336 52.8257 97.1855 52.4742 97.6365 52.1729L98.5403 53.5277C98.091 53.7832 97.6705 54.0863 97.286 54.4316ZM122.227 53.0256C121.775 52.7243 121.323 52.4732 120.872 52.2221L121.625 50.7669C122.127 51.0212 122.613 51.306 123.081 51.6196L122.227 53.0256ZM99.8449 52.6239L99.0415 51.2178C99.5436 50.9165 100.046 50.6655 100.548 50.4144L101.251 51.8696C100.748 52.1217 100.297 52.3698 99.8449 52.6239ZM119.466 51.5191C119.014 51.3183 118.513 51.1174 118.011 50.9166L118.563 49.3609C119.094 49.548 119.613 49.766 120.119 50.0137L119.466 51.5191ZM102.655 51.2681L102.052 49.7616C102.577 49.5474 103.114 49.363 103.659 49.2092L104.161 50.7649C103.645 50.8864 103.141 51.0541 102.655 51.2661V51.2681ZM116.505 50.4646C116.003 50.314 115.501 50.2135 114.999 50.1131L115.3 48.5062C115.853 48.6066 116.405 48.7573 116.956 48.9079L116.505 50.4646ZM105.666 50.314L105.264 48.7071C105.817 48.5564 106.369 48.456 106.92 48.3556L107.171 49.9625C106.669 50.0619 106.168 50.1623 105.666 50.314ZM113.444 49.862C112.942 49.8118 112.391 49.7616 111.889 49.7114L111.989 48.1045L113.645 48.2551L113.444 49.862ZM108.724 49.8118L108.573 48.2049C109.126 48.1547 109.678 48.1045 110.281 48.1045L110.331 49.7114C109.781 49.7114 109.279 49.7606 108.727 49.8118H108.724Z" fill="#002C27"/>
<defs>
<linearGradient id="paint0_linear_2692_6248" x1="45.7824" y1="74.2891" x2="45.7824" y2="146.908" gradientUnits="userSpaceOnUse">
<stop stop-color="#00836A"/>
<stop offset="1" stop-color="#073E39"/>
</linearGradient>
<linearGradient id="paint1_linear_2692_6248" x1="59.65" y1="152.201" x2="55.7314" y2="157.04" gradientUnits="userSpaceOnUse">
<stop stop-color="#00836A"/>
<stop offset="1" stop-color="#073E39"/>
</linearGradient>
<linearGradient id="paint2_linear_2692_6248" x1="69.5804" y1="147.167" x2="66.9069" y2="150.468" gradientUnits="userSpaceOnUse">
<stop stop-color="#00836A"/>
<stop offset="1" stop-color="#073E39"/>
</linearGradient>
<linearGradient id="paint3_linear_2692_6248" x1="3.94492" y1="92.6191" x2="3.94492" y2="100.509" gradientUnits="userSpaceOnUse">
<stop stop-color="#00836A"/>
<stop offset="1" stop-color="#073E39"/>
</linearGradient>
<linearGradient id="paint4_linear_2692_6248" x1="170.436" y1="15.7575" x2="186.613" y2="37.2276" gradientUnits="userSpaceOnUse">
<stop stop-color="#00836A"/>
<stop offset="1" stop-color="#073E39"/>
</linearGradient>
<linearGradient id="paint5_linear_2692_6248" x1="183.974" y1="40.7652" x2="185.65" y2="43.5557" gradientUnits="userSpaceOnUse">
<stop stop-color="#00836A"/>
<stop offset="1" stop-color="#073E39"/>
</linearGradient>
<linearGradient id="paint6_linear_2692_6248" x1="179.826" y1="41.844" x2="180.971" y2="43.7506" gradientUnits="userSpaceOnUse">
<stop stop-color="#00836A"/>
<stop offset="1" stop-color="#073E39"/>
</linearGradient>
<linearGradient id="paint7_linear_2692_6248" x1="186.889" y1="11.8592" x2="188.648" y2="14.1927" gradientUnits="userSpaceOnUse">
<stop stop-color="#00836A"/>
<stop offset="1" stop-color="#073E39"/>
</linearGradient>
<linearGradient id="paint8_linear_2692_6248" x1="110.811" y1="6.02832" x2="110.811" y2="136.991" gradientUnits="userSpaceOnUse">
<stop stop-color="#00836A"/>
<stop offset="1" stop-color="#073E39"/>
</linearGradient>
<linearGradient id="paint9_linear_2692_6248" x1="111" y1="57" x2="111" y2="85" gradientUnits="userSpaceOnUse">
<stop stop-color="#00836A"/>
<stop offset="1" stop-color="#073E39"/>
</linearGradient>
</defs>
</svg>
