<svg width="203" height="159" viewBox="0 0 203 159" fill="none" xmlns="http://www.w3.org/2000/svg">
<g opacity="0.272">
<path d="M45.7824 146.908C65.8357 146.908 82.0921 130.652 82.0921 110.599C82.0921 90.5455 65.8357 74.2891 45.7824 74.2891C25.7291 74.2891 9.47266 90.5455 9.47266 110.599C9.47266 130.652 25.7291 146.908 45.7824 146.908Z" fill="#41594C"/>
<path d="M55.7314 157.041C56.2101 157.428 56.7931 157.665 57.4066 157.721C58.02 157.778 58.6364 157.651 59.1776 157.356C59.7188 157.062 60.1606 156.614 60.447 156.069C60.7335 155.523 60.8517 154.905 60.7867 154.293C60.7217 153.68 60.4764 153.1 60.082 152.627C59.6875 152.154 59.1615 151.809 58.5706 151.635C57.9797 151.46 57.3504 151.466 56.7624 151.649C56.1744 151.833 55.6541 152.187 55.2674 152.666C54.7496 153.308 54.5077 154.129 54.5947 154.949C54.6817 155.77 55.0905 156.522 55.7314 157.041Z" fill="#41594C"/>
<path d="M66.9069 150.468C67.2334 150.733 67.631 150.894 68.0493 150.933C68.4677 150.971 68.888 150.885 69.2572 150.684C69.6264 150.484 69.9279 150.178 70.1235 149.807C70.3191 149.435 70.4001 149.013 70.3562 148.596C70.3122 148.178 70.1454 147.782 69.8768 147.459C69.6082 147.136 69.2498 146.9 68.847 146.781C68.4442 146.662 68.015 146.664 67.6138 146.789C67.2126 146.914 66.8573 147.154 66.5929 147.481C66.2384 147.919 66.0723 148.479 66.1312 149.04C66.1901 149.6 66.4691 150.114 66.9069 150.468Z" fill="#41594C"/>
<path d="M3.94492 100.509C4.72515 100.509 5.48786 100.278 6.13659 99.8441C6.78533 99.4107 7.29096 98.7946 7.58954 98.0737C7.88813 97.3529 7.96625 96.5597 7.81403 95.7944C7.66182 95.0292 7.2861 94.3263 6.73439 93.7746C6.18269 93.2229 5.47977 92.8472 4.71453 92.6949C3.94929 92.5427 3.1561 92.6208 2.43526 92.9194C1.71442 93.218 1.09831 93.7236 0.664838 94.3724C0.231365 95.0211 0 95.7838 0 96.5641C0 97.6103 0.415623 98.6137 1.15544 99.3535C1.89525 100.093 2.89866 100.509 3.94492 100.509Z" fill="#41594C"/>
</g>
<g opacity="0.272">
<path d="M186.613 37.2276C192.542 32.7606 193.727 24.3331 189.26 18.4043C184.793 12.4755 176.365 11.2905 170.436 15.7575C164.507 20.2245 163.322 28.652 167.789 34.5808C172.256 40.5096 180.684 41.6946 186.613 37.2276Z" fill="#41594C"/>
<path d="M185.929 42.439C185.873 42.6599 185.754 42.8594 185.586 43.0125C185.417 43.1655 185.207 43.2652 184.982 43.2988C184.757 43.3324 184.527 43.2985 184.321 43.2014C184.115 43.1043 183.942 42.9483 183.825 42.7532C183.708 42.5581 183.651 42.3325 183.662 42.1052C183.673 41.8778 183.751 41.6588 183.887 41.4758C184.022 41.2928 184.209 41.1541 184.423 41.0772C184.637 41.0003 184.869 40.9887 185.09 41.0437C185.386 41.1176 185.641 41.3061 185.798 41.5678C185.956 41.8294 186.002 42.1428 185.929 42.439Z" fill="#41594C"/>
<path d="M181.161 42.9876C181.124 43.1385 181.042 43.2749 180.927 43.3794C180.812 43.484 180.668 43.5521 180.514 43.5751C180.361 43.598 180.203 43.5749 180.063 43.5085C179.922 43.4422 179.804 43.3356 179.724 43.2023C179.644 43.069 179.605 42.9149 179.613 42.7595C179.62 42.6042 179.674 42.4545 179.766 42.3295C179.859 42.2045 179.986 42.1097 180.133 42.0572C180.279 42.0046 180.438 41.9967 180.589 42.0343C180.791 42.0848 180.965 42.2136 181.072 42.3924C181.18 42.5711 181.212 42.7852 181.161 42.9876Z" fill="#41594C"/>
<path d="M188.648 14.1927C188.417 14.3666 188.14 14.4681 187.851 14.4845C187.563 14.5008 187.276 14.4313 187.027 14.2846C186.778 14.1379 186.578 13.9208 186.453 13.6605C186.327 13.4003 186.282 13.1087 186.322 12.8225C186.362 12.5364 186.486 12.2687 186.679 12.0531C186.871 11.8376 187.123 11.6839 187.403 11.6116C187.683 11.5393 187.977 11.5515 188.25 11.6468C188.523 11.7421 188.761 11.9161 188.935 12.1469C189.168 12.4563 189.269 12.8457 189.215 13.2294C189.161 13.613 188.957 13.9596 188.648 14.1927Z" fill="#41594C"/>
</g>
<path d="M110.733 141.607C149.837 141.607 181.537 109.907 181.537 70.8036C181.537 31.6999 149.837 0 110.733 0C71.6295 0 39.9297 31.6999 39.9297 70.8036C39.9297 109.907 71.6295 141.607 110.733 141.607Z" fill="#F6F2ED"/>
<path d="M110.733 140.603C149.282 140.603 180.532 109.352 180.532 70.8032C180.532 32.2541 149.282 1.00391 110.733 1.00391C72.1838 1.00391 40.9336 32.2541 40.9336 70.8032C40.9336 109.352 72.1838 140.603 110.733 140.603Z" stroke="#002C27" stroke-width="2"/>
<path d="M176.288 71.5071C176.301 80.1872 174.587 88.7832 171.245 96.7943C167.903 104.805 163.001 112.071 156.823 118.169C150.793 124.175 143.634 128.93 135.76 132.16C127.885 135.39 119.45 137.031 110.938 136.989C97.9822 137.014 85.3096 133.195 74.5246 126.015C63.7396 118.836 55.3269 108.618 50.3512 96.6549C45.3756 84.6921 44.0606 71.5222 46.5728 58.8117C49.085 46.1013 55.3113 34.4217 64.4639 25.2513C73.6164 16.0809 85.2838 9.83189 97.9893 7.29494C110.695 4.75799 123.867 6.04723 135.84 10.9995C147.812 15.9519 158.047 24.3446 165.247 35.1157C172.448 45.8867 176.292 58.5517 176.292 71.508L176.288 71.5071Z" fill="#41594C"/>
<path d="M110.696 116.392C135.933 116.392 156.392 95.9331 156.392 70.6959C156.392 45.4588 135.933 25 110.696 25C85.4588 25 65 45.4588 65 70.6959C65 95.9331 85.4588 116.392 110.696 116.392Z" fill="#F6F2ED"/>
<path d="M97 71.9341V70.0202C97.0171 69.9417 97.0399 69.8632 97.0528 69.7833C97.1555 69.1368 97.2125 68.4817 97.3652 67.8466C98.221 64.3057 100.157 61.4899 103.154 59.439C106.228 57.3353 109.64 56.6032 113.31 57.2012C115.884 57.5946 118.282 58.7469 120.198 60.5108C124.258 64.2458 125.851 68.8642 124.563 74.2433C123.335 79.3811 120.076 82.8264 115.075 84.5804C114.581 84.7545 114.065 84.8658 113.56 85H113.394V71.2333C114.177 71.4217 114.935 71.6072 115.694 71.7828C115.817 71.8115 115.944 71.8168 116.069 71.7985C116.571 71.7157 116.987 71.0649 116.484 70.4027C114.886 68.3004 113.313 66.1811 111.727 64.0688C111.299 63.4979 110.687 63.4979 110.252 64.0688C109.817 64.6397 109.396 65.2106 108.968 65.7729L105.506 70.4084C105.221 70.7937 105.184 71.122 105.39 71.4402C105.597 71.7585 105.938 71.8784 106.4 71.7657C107.105 71.5944 107.807 71.4146 108.54 71.2305V85H108.366C108.185 84.95 108.004 84.8972 107.821 84.8573C105.309 84.2591 103.018 82.9612 101.214 81.1138C99.1185 79.0354 97.7225 76.3557 97.2197 73.4469C97.1284 72.9417 97.0713 72.4364 97 71.9341Z" fill="#41594C"/>
<path d="M110.737 115.499C135.419 115.499 155.428 95.4894 155.428 70.8069C155.428 46.1244 135.419 26.1152 110.737 26.1152C86.0541 26.1152 66.0449 46.1244 66.0449 70.8069C66.0449 95.4894 86.0541 115.499 110.737 115.499Z" stroke="#002C27" stroke-width="2"/>
<path d="M110.736 97.3832C105.574 97.3832 100.529 95.8527 96.238 92.9854C91.9467 90.118 88.6021 86.0426 86.627 81.2744C84.6519 76.5061 84.1352 71.2593 85.142 66.1974C86.1489 61.1355 88.6342 56.4858 92.2837 52.8364C95.9331 49.1869 100.583 46.7017 105.645 45.6948C110.707 44.6879 115.953 45.2047 120.722 47.1797C125.49 49.1548 129.565 52.4994 132.433 56.7907C135.3 61.082 136.83 66.1272 136.83 71.2883C136.819 78.2055 134.066 84.836 129.175 89.7272C124.283 94.6185 117.653 97.3715 110.736 97.3832ZM110.736 46.8495C105.902 46.8495 101.177 48.2828 97.1581 50.9682C93.1391 53.6535 90.0067 57.4703 88.157 61.9359C86.3073 66.4016 85.8233 71.3154 86.7663 76.056C87.7093 80.7967 90.0369 85.1513 93.4547 88.5691C96.8725 91.9869 101.227 94.3145 105.968 95.2575C110.708 96.2005 115.622 95.7165 120.088 93.8668C124.553 92.0171 128.37 88.8847 131.056 84.8657C133.741 80.8468 135.174 76.1218 135.174 71.2883C135.175 68.0788 134.543 64.9008 133.315 61.9356C132.087 58.9705 130.286 56.2762 128.017 54.0068C125.748 51.7374 123.053 49.9373 120.088 48.7092C117.123 47.4812 113.945 46.8492 110.736 46.8495Z" fill="#002C27"/>
<path d="M110.735 94.5245C110.182 94.5245 109.63 94.5245 109.027 94.4743L109.128 92.8674C109.931 92.9176 110.735 92.9176 111.538 92.9176L111.588 94.5245H110.735ZM113.346 94.4241L113.145 92.8172C113.647 92.767 114.198 92.6665 114.701 92.5661L115.002 94.173C114.448 94.2734 113.896 94.3237 113.344 94.4241H113.346ZM107.374 94.3237L105.718 94.0224L106.07 92.4155C106.572 92.5159 107.074 92.6163 107.625 92.7168L107.374 94.3237ZM116.658 93.7713L116.256 92.2156L117.763 91.7637L118.315 93.3193C117.711 93.47 117.158 93.6206 116.656 93.7713H116.658ZM104.062 93.5704C103.51 93.4198 103.009 93.2189 102.455 93.0181L103.058 91.5116C103.56 91.7125 104.062 91.8631 104.564 92.0138L104.062 93.5704ZM119.82 92.6666L119.167 91.1601C119.669 90.9592 120.12 90.7082 120.573 90.5073L121.326 91.9625C120.838 92.2277 120.334 92.4631 119.818 92.6676L119.82 92.6666ZM100.951 92.3653L99.4442 91.612L100.248 90.206C100.701 90.4702 101.17 90.7051 101.654 90.909L100.951 92.3653ZM122.831 91.1601L121.978 89.7541C122.432 89.4993 122.868 89.2144 123.283 88.9014L124.237 90.207C123.782 90.5595 123.28 90.8608 122.828 91.1621L122.831 91.1601ZM97.99 90.7082C97.538 90.4069 97.0369 90.0554 96.6352 89.7551L97.6395 88.4495C98.0412 88.7508 98.4921 89.0521 98.8939 89.3533L97.99 90.7082ZM125.54 89.2017L124.487 87.9473C124.888 87.5958 125.29 87.2443 125.641 86.8938L126.745 88.0477C126.381 88.4709 125.976 88.8583 125.538 89.2047L125.54 89.2017ZM95.3306 88.6493C94.9289 88.2978 94.5271 87.8961 94.1254 87.4954L95.2794 86.3414C95.6309 86.6929 96.0326 87.0947 96.4333 87.4462L95.3306 88.6493ZM128 86.8416L126.795 85.7368C127.146 85.3351 127.498 84.9334 127.799 84.5317L129.104 85.536C128.75 85.9929 128.348 86.4449 127.998 86.8466L128 86.8416ZM92.9725 86.239C92.621 85.7871 92.2695 85.3863 91.919 84.9334L93.2245 83.9803C93.5258 84.382 93.8773 84.833 94.1776 85.2347L92.9725 86.239ZM130.057 84.1812L128.703 83.2773C129.004 82.8254 129.255 82.3734 129.506 81.9225L130.912 82.7259C130.656 83.2297 130.37 83.7174 130.054 84.1862L130.057 84.1812ZM90.9649 83.5284C90.6636 83.0764 90.4125 82.5753 90.1122 82.0731L91.5674 81.3199C91.8185 81.7718 92.0696 82.2238 92.3709 82.6747L90.9649 83.5284ZM131.713 81.2697L130.257 80.5667C130.488 80.0946 130.69 79.6086 130.86 79.1114L132.366 79.714C132.191 80.2518 131.972 80.7741 131.711 81.2757L131.713 81.2697ZM89.4092 80.5165C89.2083 80.0143 88.9573 79.4629 88.8066 78.9608L90.3623 78.4084C90.5159 78.9045 90.7004 79.3905 90.9146 79.8637L89.4092 80.5165ZM132.968 78.1061L131.412 77.604C131.563 77.1018 131.714 76.5997 131.814 76.0975L133.421 76.449L132.968 78.1061ZM88.3055 77.3529C88.1548 76.8005 88.0544 76.2481 87.9037 75.6968L89.5106 75.3955C89.6111 75.8976 89.7115 76.3998 89.8621 76.9019L88.3055 77.3529ZM133.72 74.8421L132.113 74.591C132.214 74.0889 132.264 73.5375 132.314 73.0354L133.921 73.186C133.869 73.6982 133.768 74.3008 133.718 74.8532L133.72 74.8421ZM87.6527 74.0387L87.502 72.3826L89.1089 72.3324C89.1093 72.8545 89.1597 73.3755 89.2595 73.888L87.6527 74.0387ZM133.971 71.4797H132.364V71.3291C132.373 70.8598 132.356 70.3905 132.314 69.923L133.921 69.8226C133.971 70.3247 133.971 70.8269 133.971 71.3291V71.4797ZM89.1069 70.7375L87.5 70.6873C87.5 70.1349 87.5502 69.5826 87.6004 68.98L89.2073 69.1306C89.1561 69.684 89.1561 70.2364 89.1069 70.7375ZM132.113 68.3272C132.063 67.825 131.963 67.2737 131.862 66.7715L133.469 66.42L133.77 68.0761L132.113 68.3272ZM89.4584 67.6242L87.8515 67.3229C87.9519 66.7705 88.0524 66.2181 88.203 65.6668L89.7587 66.0685C89.6583 66.5727 89.5086 67.125 89.4574 67.6262L89.4584 67.6242ZM131.462 65.2661C131.311 64.7639 131.16 64.2617 130.959 63.7596L132.466 63.2072C132.667 63.7094 132.817 64.2607 133.018 64.8141L131.462 65.2661ZM90.2116 64.563L88.656 64.0609C88.8124 63.5096 89.014 62.9722 89.2585 62.454L90.765 63.0566C90.5611 63.5617 90.3603 64.0639 90.2116 64.565V64.563ZM130.408 62.3044C130.207 61.8524 129.956 61.3513 129.705 60.8983L131.111 60.0949L131.864 61.6013L130.408 62.3044ZM91.4168 61.6546L89.9616 60.9013C90.2126 60.3992 90.4637 59.897 90.765 59.3949L92.171 60.2475C91.8912 60.7007 91.6393 61.1706 91.4168 61.6546ZM128.904 59.5967C128.602 59.1448 128.301 58.7441 128 58.2911L129.305 57.2868C129.652 57.7355 129.97 58.2051 130.258 58.6929L128.904 59.5967ZM93.0237 58.9952L91.6689 58.0421C91.9702 57.5901 92.3217 57.1382 92.6732 56.6873L93.9276 57.6916C93.6263 58.1415 93.2707 58.5432 93.0237 58.9952ZM126.997 57.087C126.646 56.6853 126.294 56.3338 125.944 55.933L127.098 54.7791C127.5 55.1808 127.901 55.5825 128.252 55.9843L126.997 57.087ZM94.9811 56.5346L93.7759 55.4299L94.9811 54.2247L96.0858 55.4299C95.6801 55.7834 95.3286 56.1851 94.9771 56.5366L94.9811 56.5346ZM124.74 54.8785C124.338 54.527 123.936 54.2257 123.535 53.9254L124.488 52.6198C124.94 52.9713 125.391 53.3228 125.793 53.6733L124.74 54.8785ZM97.286 54.4326L96.2817 53.1782C96.7336 52.8267 97.1855 52.4752 97.6365 52.1739L98.5403 53.5287C98.091 53.7842 97.6705 54.0872 97.286 54.4326ZM122.227 53.0266C121.775 52.7253 121.323 52.4742 120.872 52.2231L121.625 50.7679C122.127 51.0222 122.613 51.307 123.081 51.6205L122.227 53.0266ZM99.8449 52.6248L99.0415 51.2188C99.5436 50.9175 100.046 50.6665 100.548 50.4154L101.251 51.8706C100.748 52.1227 100.297 52.3708 99.8449 52.6248ZM119.466 51.5201C119.014 51.3193 118.513 51.1184 118.011 50.9175L118.563 49.3619C119.094 49.549 119.613 49.767 120.119 50.0147L119.466 51.5201ZM102.655 51.269L102.052 49.7626C102.577 49.5484 103.114 49.364 103.659 49.2102L104.161 50.7659C103.645 50.8874 103.141 51.0551 102.655 51.267V51.269ZM116.505 50.4656C116.003 50.3149 115.501 50.2145 114.999 50.1141L115.3 48.5072C115.853 48.6076 116.405 48.7583 116.956 48.9089L116.505 50.4656ZM105.666 50.3149L105.264 48.7081C105.817 48.5574 106.369 48.457 106.92 48.3565L107.171 49.9634C106.669 50.0629 106.168 50.1633 105.666 50.3149ZM113.444 49.863C112.942 49.8128 112.391 49.7626 111.889 49.7124L111.989 48.1055L113.645 48.2561L113.444 49.863ZM108.724 49.8128L108.573 48.2059C109.126 48.1557 109.678 48.1055 110.281 48.1055L110.331 49.7124C109.781 49.7124 109.279 49.7616 108.727 49.8128H108.724Z" fill="#002C27"/>
</svg>
