<svg width="16" height="17" viewBox="0 0 16 17" fill="none" xmlns="http://www.w3.org/2000/svg">
<path d="M0 8.9666V8.02916C0 7.98674 0.0254538 7.94009 0.0296956 7.89767C0.0959451 6.79244 0.407476 5.71584 0.941676 4.74603C1.50408 3.66935 2.30789 2.73732 3.29024 2.02281C4.2726 1.3083 5.40689 0.830692 6.60446 0.627274C6.90986 0.567889 7.22375 0.542418 7.52916 0.5H8.4666C8.50666 0.51252 8.54786 0.521044 8.58961 0.52545C9.69453 0.590251 10.7711 0.900345 11.7412 1.4332C12.9841 2.07531 14.0328 3.038 14.7786 4.22158C15.5244 5.40516 15.9402 6.7666 15.983 8.1649C16.0777 9.58875 15.7565 11.0094 15.0583 12.254C14.4176 13.4962 13.4564 14.5445 12.2743 15.2904C11.0922 16.0362 9.73215 16.4523 8.3351 16.4958C6.91144 16.588 5.49145 16.2669 4.24602 15.5711C3.16823 15.009 2.23539 14.2048 1.52075 13.2215C0.806114 12.2382 0.329122 11.1027 0.127248 9.90405C0.0678633 9.58591 0.0424178 9.27625 0 8.9666ZM9.47614 9.08961H10.9226C11.0299 9.09834 11.1373 9.07473 11.2311 9.0218C11.3249 8.96888 11.4006 8.88909 11.4486 8.7927C11.4981 8.69679 11.517 8.58794 11.5026 8.48094C11.4882 8.37394 11.4412 8.27397 11.368 8.1946L8.44114 4.44063C8.39272 4.36801 8.32712 4.30845 8.25017 4.26727C8.17321 4.22609 8.08728 4.20457 8 4.20457C7.91272 4.20457 7.82679 4.22609 7.74983 4.26727C7.67288 4.30845 7.60728 4.36801 7.55886 4.44063L4.63202 8.19035C4.55973 8.27015 4.51301 8.3698 4.49789 8.47641C4.48277 8.58302 4.49994 8.6917 4.54719 8.78846C4.59453 8.88563 4.67001 8.96631 4.76381 9.02002C4.85761 9.07373 4.96541 9.09797 5.07317 9.08961H6.52386V12.1607C6.52386 12.5849 6.71898 12.7927 7.16437 12.7969H8.86108C9.28526 12.7969 9.48886 12.6018 9.48886 12.1649V9.09385L9.47614 9.08961Z" fill="#FDF7F0"/>
</svg>
