<svg width="16" height="14" viewBox="0 0 16 14" fill="none" xmlns="http://www.w3.org/2000/svg">
<g clip-path="url(#clip0_711_9276)">
<path d="M0.833882 7.30377C0.861341 7.18774 0.9114 7.0788 0.980954 6.98371C1.05051 6.88861 1.13807 6.80937 1.23824 6.7509C1.33697 6.6975 1.44603 6.66796 1.55725 6.66451C1.66848 6.66105 1.77902 6.68377 1.88064 6.73094C1.98225 6.77812 2.07232 6.84855 2.14413 6.93698C2.21594 7.02541 2.26763 7.12955 2.29536 7.24166C2.31754 7.34008 2.32725 7.44109 2.32425 7.54213C2.32425 8.56373 2.32425 9.58468 2.32425 10.6049C2.31417 10.8495 2.35303 11.0936 2.43839 11.3217C2.52375 11.5497 2.65374 11.7569 2.82012 11.93C2.98649 12.1031 3.18564 12.2383 3.4049 12.3271C3.62416 12.4159 3.85877 12.4563 4.09384 12.4458H12.5662C12.8015 12.4564 13.0363 12.4159 13.2556 12.3268C13.4749 12.2377 13.674 12.1021 13.8402 11.9285C14.0063 11.7549 14.1358 11.5472 14.2205 11.3186C14.3052 11.09 14.3431 10.8456 14.332 10.6009C14.332 9.56932 14.332 8.53969 14.332 7.50807C14.3222 7.34238 14.3622 7.17767 14.4464 7.03665C14.5306 6.89563 14.6547 6.78527 14.8018 6.72084C14.9143 6.67328 15.0362 6.65518 15.157 6.66812C15.2777 6.68107 15.3936 6.72464 15.4944 6.79506C15.5951 6.86547 15.6777 6.96056 15.7349 7.07196C15.7921 7.18336 15.8221 7.30766 15.8223 7.43395C15.8319 7.73242 15.8223 8.03492 15.8223 8.33138C15.8223 9.08857 15.8223 9.84575 15.8223 10.6009C15.8384 11.3072 15.637 12.0002 15.2476 12.579C14.8583 13.1577 14.3013 13.5918 13.658 13.818C13.3018 13.9441 12.9271 14.0045 12.5508 13.9963C9.73375 13.9963 6.9186 13.9963 4.10345 13.9963C2.72669 13.9963 1.71385 13.3372 1.11693 12.0392C1.00604 11.7427 0.919093 11.4372 0.856987 11.1258C0.845434 11.0817 0.8358 11.0376 0.826172 10.9935L0.833882 7.30377Z" fill="#F6F2ED"/>
<path d="M10.2906 4.90396V9.5112C10.3059 9.71802 10.2494 9.9237 10.1314 10.0909C10.0134 10.2581 9.84173 10.3758 9.64748 10.4226C9.56211 10.4417 9.47481 10.4498 9.38754 10.4467C8.68407 10.4467 7.97804 10.4467 7.26944 10.4467C7.14816 10.4574 7.02609 10.4404 6.91181 10.3968C6.79752 10.3532 6.69379 10.2842 6.60791 10.1944C6.52203 10.1047 6.45607 9.99652 6.41467 9.87744C6.37327 9.75837 6.35743 9.63132 6.36827 9.5052C6.36827 8.03623 6.36827 6.56725 6.36827 5.09828V4.89796H6.19882C5.7598 4.89796 5.31885 4.89796 4.87983 4.89796C4.77553 4.90386 4.67153 4.8818 4.57776 4.83392C4.484 4.78604 4.4036 4.71393 4.34429 4.62449C4.28497 4.53504 4.24872 4.43125 4.23898 4.32306C4.22925 4.21487 4.24637 4.10589 4.2887 4.00655C4.3362 3.90535 4.40151 3.81431 4.48125 3.73813C5.59935 2.56963 6.72001 1.40247 7.84325 0.236636C7.90228 0.160894 7.97683 0.0998161 8.06145 0.0578638C8.14606 0.0159115 8.23861 -0.00585938 8.33234 -0.00585938C8.42608 -0.00585938 8.51863 0.0159115 8.60324 0.0578638C8.68786 0.0998161 8.76238 0.160894 8.82142 0.236636C9.94401 1.40247 11.0608 2.5723 12.1873 3.73412C12.5897 4.14878 12.4164 4.69765 12.0275 4.84588C11.9259 4.87906 11.82 4.89528 11.7136 4.89395C11.2977 4.89395 10.8837 4.89395 10.4678 4.89395L10.2906 4.90396Z" fill="#F6F2ED"/>
</g>
<defs>
<clipPath id="clip0_711_9276">
<rect width="15" height="14" fill="white" transform="translate(0.833984)"/>
</clipPath>
</defs>
</svg>
