<svg width="40" height="39" viewBox="0 0 40 39" fill="none" xmlns="http://www.w3.org/2000/svg">
<g clip-path="url(#clip0_8630_10459)">
<path d="M20.0462 0C16.2073 0 12.4546 1.13837 9.26261 3.27116C6.07065 5.40396 3.58283 8.4354 2.11373 11.9821C0.644637 15.5288 0.260259 19.4315 1.0092 23.1967C1.75814 26.9619 3.60675 30.4204 6.32129 33.1349C9.03583 35.8495 12.4944 37.6981 16.2595 38.447C20.0247 39.196 23.9274 38.8116 27.4741 37.3425C31.0208 35.8734 34.0523 33.3856 36.1851 30.1936C38.3179 27.0016 39.4562 23.2489 39.4562 19.41C39.4502 14.264 37.4032 9.33053 33.7645 5.69177C30.1257 2.053 25.1922 0.00607627 20.0462 0Z" fill="#2F4F4F"/>
<path d="M26.3472 14.7069H24.3249C23.7687 14.7069 23.3138 15.1597 23.3138 15.713V17.7252C23.3138 18.2785 23.7687 18.7312 24.3249 18.7312V20.7434H21.2915V12.6948H22.3026C22.3965 12.6948 22.4885 12.6688 22.5684 12.6197C22.6483 12.5706 22.7127 12.5003 22.7547 12.4167C22.7967 12.3332 22.8145 12.2396 22.8061 12.1466C22.7977 12.0535 22.7634 11.9647 22.707 11.8899L20.6847 9.20373C20.4825 8.93209 20.078 8.93209 19.8759 9.20373L17.8535 11.8899C17.7972 11.9647 17.7629 12.0535 17.7545 12.1466C17.746 12.2396 17.7638 12.3332 17.8058 12.4167C17.8478 12.5003 17.9123 12.5706 17.9922 12.6197C18.072 12.6688 18.1641 12.6948 18.258 12.6948H19.2692V20.7434H16.2357V18.6608C17.0749 18.2181 17.6311 17.2926 17.3884 16.2161C17.2165 15.4414 16.6098 14.8076 15.8514 14.5963C14.3651 14.1838 13 15.3005 13 16.7191C13 17.5743 13.5056 18.2885 14.2134 18.6608V20.7434C14.2134 21.85 15.1234 22.7556 16.2357 22.7556H19.2692V25.824C18.3995 26.2768 17.8636 27.2527 18.1265 28.3292C18.2603 28.8527 18.5816 29.3095 19.0299 29.614C19.4782 29.9185 20.0229 30.0498 20.5616 29.983C21.1002 29.9164 21.5959 29.6564 21.9555 29.2518C22.3152 28.8472 22.5141 28.326 22.5149 27.7859C22.5149 26.9307 22.0194 26.1963 21.3015 25.824V22.7556H24.335C25.4473 22.7556 26.3573 21.85 26.3573 20.7434V18.7312C26.9134 18.7312 27.3684 18.2785 27.3684 17.7252V15.713C27.3584 15.1597 26.9033 14.7069 26.3472 14.7069Z" fill="#FDF7F0"/>
</g>
<defs>
<clipPath id="clip0_8630_10459">
<rect width="40" height="39" fill="white"/>
</clipPath>
</defs>
</svg>
