<svg xmlns="http://www.w3.org/2000/svg" width="13" height="19" viewBox="0 0 13 19" fill="none">
  <path d="M12.076 5.16342H10.2463C9.74314 5.16342 9.33146 5.57304 9.33146 6.07368V7.89419C9.33146 8.39483 9.74314 8.80444 10.2463 8.80444V10.625H7.50176V3.34291H8.41661C8.50156 3.34291 8.58483 3.31938 8.65709 3.27494C8.72935 3.2305 8.78775 3.16692 8.82574 3.09132C8.86373 3.01572 8.87981 2.93109 8.87218 2.84691C8.86456 2.76273 8.83352 2.68233 8.78255 2.61471L6.95285 0.184327C6.76988 -0.0614422 6.40394 -0.0614422 6.22097 0.184327L4.39127 2.61471C4.3403 2.68233 4.30927 2.76273 4.30164 2.84691C4.29401 2.93109 4.31009 3.01572 4.34808 3.09132C4.38607 3.16692 4.44447 3.2305 4.51673 3.27494C4.58899 3.31938 4.67226 3.34291 4.75721 3.34291H5.67206V10.625H2.92752V8.74073C3.68684 8.34021 4.19001 7.50278 3.97044 6.52881C3.81492 5.82791 3.26601 5.25445 2.57987 5.06329C1.23505 4.69009 0 5.70047 0 6.98393C0 7.75765 0.457424 8.40393 1.09782 8.74073V10.625C1.09782 11.6262 1.92118 12.4455 2.92752 12.4455H5.67206V15.2217C4.88529 15.6314 4.40042 16.5143 4.63828 17.4883C4.75934 17.9619 5.04996 18.3752 5.45559 18.6507C5.86123 18.9262 6.35398 19.045 6.84136 18.9846C7.32874 18.9243 7.77723 18.6891 8.10264 18.323C8.42805 17.957 8.608 17.4854 8.60873 16.9967C8.60873 16.223 8.16045 15.5585 7.51091 15.2217V12.4455H10.2555C11.2618 12.4455 12.0852 11.6262 12.0852 10.625V8.80444C12.5883 8.80444 13 8.39483 13 7.89419V6.07368C12.9909 5.57304 12.5792 5.16342 12.076 5.16342Z" fill="#FDF7F0"/>
</svg>