<svg width="16" height="16" viewBox="0 0 16 16" fill="none" xmlns="http://www.w3.org/2000/svg">
<g clip-path="url(#clip0_3796_38754)">
<path fill-rule="evenodd" clip-rule="evenodd" d="M9.62684 8.6012V8.5994C9.53572 8.6066 9.06606 8.63718 8.01822 8.63718C7.18161 8.63718 6.59267 8.6102 6.38559 8.5994V8.6021C3.16504 8.44832 0.761234 7.83947 0.761234 7.11101C0.761234 6.38345 3.16504 5.77461 6.38559 5.61812V7.99595C6.59598 8.01214 7.19901 8.05081 8.03231 8.05081C9.0321 8.05081 9.53324 8.00585 9.62684 7.99685V5.61992C12.8408 5.7755 15.2388 6.38435 15.2388 7.11101C15.2388 7.83947 12.8408 8.44652 9.62684 8.6012ZM9.62684 5.3726V3.24479H14.1114V0H1.90101V3.24479H6.38559V5.3717C2.74094 5.55337 0 6.33759 0 7.27649C0 8.21539 2.74094 8.99871 6.38559 9.18127V16H9.62684V9.17947C13.2657 8.99781 16 8.21449 16 7.27649C16 6.33849 13.2657 5.55517 9.62684 5.3726Z" fill="#2F4F4F"/>
</g>
<defs>
<clipPath id="clip0_3796_38754">
<rect width="16" height="16" fill="white"/>
</clipPath>
</defs>
</svg>
