<svg width="185" height="145" viewBox="0 0 185 145" fill="none" xmlns="http://www.w3.org/2000/svg">
<g opacity="0.272">
<path d="M41.7488 133.977C60.0371 133.977 74.8627 119.151 74.8627 100.863C74.8627 82.5746 60.0371 67.749 41.7488 67.749C23.4604 67.749 8.63477 82.5746 8.63477 100.863C8.63477 119.151 23.4604 133.977 41.7488 133.977Z" fill="url(#paint0_linear_3333_18527)"/>
<path d="M50.8238 143.215C51.2597 143.568 51.7905 143.784 52.349 143.835C52.9076 143.886 53.4688 143.771 53.9618 143.503C54.4548 143.236 54.8573 142.828 55.1186 142.332C55.3798 141.835 55.488 141.273 55.4295 140.715C55.371 140.157 55.1484 139.629 54.7899 139.198C54.4313 138.766 53.9529 138.451 53.4152 138.291C52.8774 138.132 52.3044 138.135 51.7687 138.302C51.233 138.468 50.7585 138.789 50.4053 139.225C49.9319 139.809 49.71 140.558 49.7884 141.306C49.8669 142.055 50.2393 142.741 50.8238 143.215Z" fill="url(#paint1_linear_3333_18527)"/>
<path d="M61.0183 137.225C61.3161 137.466 61.6787 137.613 62.0603 137.649C62.4419 137.684 62.8253 137.605 63.1621 137.422C63.4989 137.239 63.7738 136.96 63.9523 136.621C64.1307 136.282 64.2045 135.898 64.1645 135.517C64.1244 135.136 63.9723 134.775 63.7272 134.48C63.4822 134.186 63.1553 133.97 62.7879 133.861C62.4204 133.753 62.029 133.755 61.663 133.869C61.2971 133.982 60.973 134.202 60.7319 134.5C60.4085 134.899 60.257 135.411 60.3107 135.922C60.3644 136.433 60.6189 136.902 61.0183 137.225Z" fill="url(#paint2_linear_3333_18527)"/>
<path d="M3.59752 91.6618C4.30905 91.6618 5.00459 91.4508 5.5962 91.0555C6.18781 90.6602 6.64892 90.0984 6.92121 89.441C7.19349 88.7837 7.26474 88.0603 7.12592 87.3625C6.98711 86.6646 6.64448 86.0236 6.14136 85.5205C5.63824 85.0174 4.99722 84.6747 4.29937 84.5359C3.60152 84.3971 2.87817 84.4684 2.22081 84.7406C1.56345 85.0129 1.00159 85.474 0.606292 86.0656C0.210991 86.6572 0 87.3528 0 88.0643C0 89.0184 0.379023 89.9335 1.05369 90.6081C1.72836 91.2828 2.6434 91.6618 3.59752 91.6618Z" fill="url(#paint3_linear_3333_18527)"/>
</g>
<g opacity="0.272">
<path d="M170.191 33.9499C175.598 29.8758 176.679 22.1896 172.605 16.7823C168.531 11.375 160.845 10.2942 155.437 14.3683C150.03 18.4424 148.949 26.1286 153.023 31.5359C157.097 36.9432 164.784 38.024 170.191 33.9499Z" fill="#2F4F4F"/>
<path d="M169.566 38.7014C169.516 38.9029 169.407 39.085 169.253 39.2246C169.1 39.3642 168.908 39.4551 168.703 39.4858C168.497 39.5165 168.287 39.4856 168.099 39.397C167.912 39.3084 167.754 39.1661 167.647 38.988C167.54 38.81 167.489 38.6043 167.499 38.3969C167.509 38.1894 167.58 37.9896 167.703 37.8227C167.827 37.6558 167.997 37.5292 168.193 37.4591C168.388 37.3889 168.6 37.3783 168.802 37.4285C169.072 37.4959 169.304 37.6679 169.447 37.9066C169.591 38.1453 169.634 38.4312 169.566 38.7014Z" fill="#2F4F4F"/>
<path d="M165.217 39.1998C165.183 39.3373 165.109 39.4615 165.004 39.5567C164.899 39.652 164.768 39.714 164.628 39.7349C164.488 39.7558 164.345 39.7348 164.217 39.6743C164.089 39.6139 163.981 39.5168 163.908 39.3954C163.835 39.2739 163.8 39.1336 163.807 38.9921C163.814 38.8506 163.862 38.7143 163.947 38.6004C164.031 38.4866 164.147 38.4002 164.28 38.3524C164.414 38.3045 164.558 38.2973 164.696 38.3316C164.88 38.3778 165.038 38.4952 165.136 38.6579C165.234 38.8207 165.263 39.0156 165.217 39.1998Z" fill="#2F4F4F"/>
<path d="M172.042 12.9387C171.832 13.0971 171.58 13.1896 171.317 13.2046C171.054 13.2195 170.792 13.1561 170.566 13.0224C170.339 12.8888 170.157 12.6909 170.042 12.4537C169.928 12.2165 169.886 11.9508 169.923 11.6901C169.96 11.4293 170.073 11.1853 170.248 10.9889C170.424 10.7925 170.653 10.6525 170.908 10.5866C171.163 10.5207 171.432 10.5318 171.68 10.6186C171.929 10.7055 172.146 10.864 172.305 11.0743C172.517 11.3563 172.609 11.7112 172.56 12.0608C172.51 12.4104 172.324 12.7262 172.042 12.9387Z" fill="#2F4F4F"/>
</g>
<path d="M100.988 129.143C136.65 129.143 165.559 100.233 165.559 64.5715C165.559 28.9097 136.65 0 100.988 0C65.3258 0 36.416 28.9097 36.416 64.5715C36.416 100.233 65.3258 129.143 100.988 129.143Z" fill="#F6F2ED"/>
<path d="M100.988 127.893C135.959 127.893 164.309 99.543 164.309 64.5715C164.309 29.6 135.959 1.25 100.988 1.25C66.0161 1.25 37.666 29.6 37.666 64.5715C37.666 99.543 66.0161 127.893 100.988 127.893Z" stroke="#272421" stroke-width="2"/>
<path d="M160.773 65.2075C160.785 73.1236 159.222 80.963 156.175 88.269C153.127 95.575 148.657 102.202 143.023 107.763C137.523 113.241 130.994 117.577 123.811 120.522C116.629 123.468 108.935 124.964 101.173 124.925C89.3563 124.948 77.7986 121.466 67.9624 114.918C58.1261 108.37 50.4535 99.0512 45.9155 88.141C41.3775 77.2307 40.1782 65.2195 42.4693 53.6274C44.7603 42.0353 50.4389 31.3834 58.7862 23.0198C67.1335 14.6563 77.7743 8.95693 89.362 6.64326C100.95 4.32959 112.963 5.50563 123.882 10.0223C134.801 14.539 144.135 22.1935 150.702 32.0169C157.269 41.8403 160.775 53.3912 160.774 65.2075H160.773Z" fill="url(#paint4_linear_3333_18527)"/>
<path d="M101.205 119.91C131.556 119.91 156.161 95.3062 156.161 64.9552C156.161 34.6043 131.556 10 101.205 10C70.8544 10 46.25 34.6043 46.25 64.9552C46.25 95.3062 70.8544 119.91 101.205 119.91Z" fill="#F6F2ED"/>
<path d="M101.205 118.66C130.866 118.66 154.911 94.6158 154.911 64.9552C154.911 35.2947 130.866 11.25 101.205 11.25C71.5447 11.25 47.5 35.2947 47.5 64.9552C47.5 94.6158 71.5447 118.66 101.205 118.66Z" stroke="#272421" stroke-width="2"/>
<path d="M101.32 18.726C75.8839 18.726 55.2637 39.3461 55.2637 64.7824C55.2637 90.2187 75.8839 110.839 101.32 110.839C126.757 110.839 147.377 90.2187 147.377 64.7824C147.377 39.3461 126.757 18.726 101.32 18.726Z" stroke="url(#paint5_linear_3333_18527)" stroke-width="1.5" stroke-dasharray="1.5 1.5"/>
<g clip-path="url(#clip0_3333_18527)">
<path d="M102 84C113.046 84 122 75.0457 122 64C122 52.9543 113.046 44 102 44C90.9543 44 82 52.9543 82 64C82 75.0457 90.9543 84 102 84Z" fill="#2F4F4F"/>
<path d="M104.075 61.538V59.176H109.449V55.45H94.5355V59.176H99.9235V61.538C95.4095 61.756 92.0215 62.662 92.0215 63.738C92.0215 64.814 95.4055 65.724 99.9235 65.938V73.738H104.075V65.938C108.589 65.722 111.977 64.816 111.977 63.738C111.977 62.66 108.599 61.756 104.075 61.538ZM101.999 65.25C97.1115 65.25 93.1495 64.494 93.1495 63.584C93.1495 62.802 96.0355 62.144 99.9195 61.968V64.636C100.587 64.666 101.281 64.684 101.995 64.684C102.709 64.684 103.407 64.666 104.071 64.636V61.968C107.955 62.144 110.841 62.802 110.841 63.584C110.849 64.504 106.887 65.25 101.999 65.25Z" fill="white"/>
</g>
<defs>
<linearGradient id="paint0_linear_3333_18527" x1="41.7488" y1="67.749" x2="41.7488" y2="133.977" gradientUnits="userSpaceOnUse">
<stop stop-color="#58A4A4"/>
<stop offset="1" stop-color="#073E39"/>
</linearGradient>
<linearGradient id="paint1_linear_3333_18527" x1="54.3936" y1="138.806" x2="50.8238" y2="143.215" gradientUnits="userSpaceOnUse">
<stop stop-color="#58A4A4"/>
<stop offset="1" stop-color="#073E39"/>
</linearGradient>
<linearGradient id="paint2_linear_3333_18527" x1="63.4569" y1="134.213" x2="61.0183" y2="137.225" gradientUnits="userSpaceOnUse">
<stop stop-color="#58A4A4"/>
<stop offset="1" stop-color="#073E39"/>
</linearGradient>
<linearGradient id="paint3_linear_3333_18527" x1="3.59753" y1="84.4668" x2="3.59753" y2="91.6618" gradientUnits="userSpaceOnUse">
<stop stop-color="#58A4A4"/>
<stop offset="1" stop-color="#073E39"/>
</linearGradient>
<linearGradient id="paint4_linear_3333_18527" x1="101.055" y1="5.4873" x2="101.055" y2="124.926" gradientUnits="userSpaceOnUse">
<stop stop-color="#58A4A4"/>
<stop offset="1" stop-color="#073E39"/>
</linearGradient>
<linearGradient id="paint5_linear_3333_18527" x1="55.2637" y1="64.7824" x2="147.377" y2="64.7824" gradientUnits="userSpaceOnUse">
<stop stop-color="#58A4A4"/>
<stop offset="1" stop-color="#073E39"/>
</linearGradient>
<clipPath id="clip0_3333_18527">
<rect width="40" height="40" fill="white" transform="translate(82 44)"/>
</clipPath>
</defs>
</svg>
