<svg xmlns="http://www.w3.org/2000/svg" width="205.248" height="165.145" viewBox="0 0 217.248 176.145">
  <g id="illustration" transform="translate(-68 -331)">
    <g id="Group_41695" data-name="Group 41695" transform="translate(1576 -226)">
      <g id="Group_39521" data-name="Group 39521" transform="translate(-1508 639.891)" opacity="0.272">
        <circle id="Ellipse_1999" data-name="Ellipse 1999" cx="39.974" cy="39.974" r="39.974" transform="translate(10.425)" fill="#073c37"/>
        <path id="Path_25533" data-name="Path 25533" d="M3.424,6.849A3.424,3.424,0,1,0,0,3.424,3.425,3.425,0,0,0,3.424,6.849Z" transform="translate(63.002 83.621) rotate(39)" fill="#073c37"/>
        <path id="Path_25534" data-name="Path 25534" d="M2.339,4.677A2.339,2.339,0,1,0,0,2.339,2.339,2.339,0,0,0,2.339,4.677Z" transform="translate(74.784 78.762) rotate(39)" fill="#073c37"/>
        <path id="Path_25535" data-name="Path 25535" d="M16.627,8.945A4.343,4.343,0,1,0,12.284,4.6,4.343,4.343,0,0,0,16.627,8.945Z" transform="translate(-12.284 19.922)" fill="#073c37"/>
      </g>
      <g id="Group_39533" data-name="Group 39533" transform="matrix(0.799, -0.602, 0.602, 0.799, -1332.182, 584.356)" opacity="0.272">
        <circle id="Ellipse_1999-2" data-name="Ellipse 1999" cx="14.792" cy="14.792" r="14.792" transform="translate(0)" fill="#083a35"/>
        <path id="Path_25533-2" data-name="Path 25533" d="M1.267,0A1.267,1.267,0,1,1,0,1.267,1.267,1.267,0,0,1,1.267,0Z" transform="translate(11.723 32.912) rotate(141)" fill="#083a35"/>
        <path id="Path_25534-2" data-name="Path 25534" d="M.865,0A.865.865,0,1,1,0,.865.865.865,0,0,1,.865,0Z" transform="translate(6.858 30.489) rotate(141)" fill="#083a35"/>
        <path id="Path_25535-2" data-name="Path 25535" d="M1.607,3.214A1.607,1.607,0,1,1,3.214,1.607,1.607,1.607,0,0,1,1.607,3.214Z" transform="translate(30.227 7.467)" fill="#083a35"/>
      </g>
      <g id="SECURE" transform="translate(-1453.025 559.266)">
        <g id="Group_39527" data-name="Group 39527" transform="translate(0 0)">
          <path id="Path_25552" data-name="Path 25552" d="M23.132,28.46v55.67a80.392,80.392,0,0,0,66.934,79.3A80.392,80.392,0,0,0,157,84.131V28.46L90.131,2.049Z" transform="translate(-23.132 -2.049)" fill="#045a4c"/>
        </g>
      </g>
      <g id="Group_39527-2" data-name="Group 39527" transform="translate(-1455.193 557)" opacity="0.5">
        <path id="Path_25552-2" data-name="Path 25552" d="M90.335,165.716h-.194A82.584,82.584,0,0,1,21.2,84.282V27.253L90.335,0,159.4,27.253V84.347a82.584,82.584,0,0,1-68.941,81.434Zm-67-137.04v55.67a80.392,80.392,0,0,0,66.934,79.3,80.392,80.392,0,0,0,66.934-79.3V28.677L90.335,2.266Z" transform="translate(-21.2)" fill="#fff"/>
      </g>
      <g id="Group_39528" data-name="Group 39528" transform="translate(-1447.814 564.833)">
        <path id="Path_25553" data-name="Path 25553" d="M94.355,162.539l-.194-.065A75.174,75.174,0,0,1,32.6,88.485V36.44L94.355,12.1,156.11,36.44V88.55a75.226,75.226,0,0,1-61.561,73.99ZM34.671,37.864V88.55A73.062,73.062,0,0,0,94.355,160.4,73.124,73.124,0,0,0,154.039,88.55V37.864l-59.684-23.5Z" transform="translate(-32.6 -12.1)" fill="#fff"/>
      </g>
      <g id="Group_39529" data-name="Group 39529" transform="translate(-1443.088 569.947)">
        <path id="Path_25554" data-name="Path 25554" d="M96.93,20,39.9,42.462V91.336a70.47,70.47,0,0,0,57.03,69.2,70.47,70.47,0,0,0,57.03-69.2V42.462Zm.518,99.106a32.561,32.561,0,1,1,32.561-32.561A32.544,32.544,0,0,1,97.448,119.106Z" transform="translate(-39.9 -20)" fill="#257266"/>
      </g>
      <g id="Group_39530" data-name="Group 39530" transform="translate(-1419.202 602.766)">
        <path id="Path_25555" data-name="Path 25555" d="M110.461,138.022a33.661,33.661,0,1,1,33.661-33.661A33.718,33.718,0,0,1,110.461,138.022Zm0-65.186a31.525,31.525,0,1,0,31.525,31.525A31.522,31.522,0,0,0,110.461,72.836Z" transform="translate(-76.8 -70.7)" fill="#81b1aa"/>
      </g>
      <g id="Group_39531" data-name="Group 39531" transform="translate(-1415.512 606.521)">
        <path id="Path_25556" data-name="Path 25556" d="M112.471,136.378c-.712,0-1.424,0-2.2-.065l.129-2.071c1.036.065,2.071.065,3.107.065l.065,2.071Zm3.366-.129-.259-2.071c.647-.065,1.359-.194,2.007-.324l.388,2.071C117.262,136.054,116.55,136.119,115.837,136.249Zm-7.7-.129L106,135.731l.453-2.071c.647.129,1.295.259,2.007.388Zm11.976-.712-.518-2.007,1.942-.583.712,2.007Q121.081,135.116,120.11,135.407Zm-16.248-.259c-.712-.194-1.359-.453-2.071-.712l.777-1.942c.647.259,1.295.453,1.942.647Zm20.326-1.165-.842-1.942c.647-.259,1.23-.583,1.813-.842l.971,1.877A17.807,17.807,0,0,1,124.188,133.983Zm-24.34-.388-1.942-.971,1.036-1.813a15.771,15.771,0,0,0,1.813.906Zm28.224-1.554-1.1-1.813a15.062,15.062,0,0,0,1.683-1.1l1.23,1.683C129.3,131.264,128.655,131.652,128.072,132.041Zm-32.043-.583c-.583-.388-1.23-.842-1.748-1.23l1.295-1.683c.518.388,1.1.777,1.618,1.165Zm35.538-1.942-1.359-1.618c.518-.453,1.036-.906,1.489-1.359l1.424,1.489A11.346,11.346,0,0,1,131.568,129.516ZM92.6,128.8c-.518-.453-1.036-.971-1.554-1.489l1.489-1.489c.453.453.971.971,1.489,1.424Zm42.141-2.33-1.554-1.424c.453-.518.906-1.036,1.295-1.554l1.683,1.295C135.71,125.373,135.193,125.956,134.74,126.474ZM89.556,125.7c-.453-.583-.906-1.1-1.359-1.683l1.683-1.23c.388.518.842,1.1,1.23,1.618Zm47.838-2.654-1.748-1.165c.388-.583.712-1.165,1.036-1.748l1.813,1.036A17.836,17.836,0,0,1,137.394,123.043ZM86.967,122.2c-.388-.583-.712-1.23-1.1-1.877l1.877-.971c.324.583.647,1.165,1.036,1.748Zm52.563-2.913-1.877-.906a16.289,16.289,0,0,0,.777-1.877l1.942.777A13.24,13.24,0,0,1,139.53,119.288Zm-54.57-.971c-.259-.647-.583-1.359-.777-2.007l2.007-.712a16.108,16.108,0,0,0,.712,1.877Zm56.188-3.107-2.007-.647c.194-.647.388-1.295.518-1.942l2.071.453Zm-57.612-.971c-.194-.712-.324-1.424-.518-2.136l2.071-.388c.129.647.259,1.295.453,1.942ZM142.119,111l-2.071-.324c.129-.647.194-1.359.259-2.007l2.071.194C142.313,109.514,142.184,110.291,142.119,111Zm-59.425-1.036-.194-2.136,2.071-.065a10.539,10.539,0,0,0,.194,2.007Zm59.749-3.3h-2.071v-.194a16.967,16.967,0,0,0-.065-1.813l2.071-.129c.065.647.065,1.295.065,1.942Zm-57.871-.971L82.5,105.63c0-.712.065-1.424.129-2.2l2.071.194C84.636,104.335,84.636,105.047,84.571,105.695Zm55.476-3.107c-.065-.647-.194-1.359-.324-2.007l2.071-.453.388,2.136Zm-55.023-.906-2.071-.388c.129-.712.259-1.424.453-2.136l2.007.518C85.284,100.322,85.089,101.034,85.025,101.681Zm54.182-3.042c-.194-.647-.388-1.295-.647-1.942l1.942-.712c.259.647.453,1.359.712,2.071ZM86,97.732l-2.007-.647a13.479,13.479,0,0,1,.777-2.071l1.942.777C86.449,96.438,86.19,97.085,86,97.732Zm51.851-2.913c-.259-.583-.583-1.23-.906-1.813l1.813-1.036.971,1.942Zm-50.3-.842-1.877-.971c.324-.647.647-1.295,1.036-1.942l1.813,1.1A16.849,16.849,0,0,0,87.549,93.978ZM135.9,91.324c-.388-.583-.777-1.1-1.165-1.683l1.683-1.295a17.8,17.8,0,0,1,1.23,1.813Zm-46.284-.777-1.748-1.23c.388-.583.842-1.165,1.295-1.748l1.618,1.295C90.4,89.447,89.944,89.964,89.621,90.547Zm43.824-2.46c-.453-.518-.906-.971-1.359-1.489l1.489-1.489c.518.518,1.036,1.036,1.489,1.554Zm-41.3-.712-1.554-1.424L92.145,84.4l1.424,1.554C93.051,86.4,92.6,86.922,92.145,87.375Zm38.387-2.136c-.518-.453-1.036-.842-1.554-1.23l1.23-1.683c.583.453,1.165.906,1.683,1.359Zm-35.409-.583-1.295-1.618c.583-.453,1.165-.906,1.748-1.295l1.165,1.748A9.3,9.3,0,0,0,95.123,84.656ZM127.3,82.844c-.583-.388-1.165-.712-1.748-1.036l.971-1.877a17.831,17.831,0,0,1,1.877,1.1Zm-28.871-.518-1.036-1.813c.647-.388,1.295-.712,1.942-1.036l.906,1.877C99.59,81.679,99.007,82,98.424,82.326ZM123.735,80.9c-.583-.259-1.23-.518-1.877-.777l.712-2.007a18.642,18.642,0,0,1,2.007.842Zm-21.686-.324-.777-1.942a19.455,19.455,0,0,1,2.071-.712l.647,2.007A11.394,11.394,0,0,0,102.049,80.578Zm17.866-1.036c-.647-.194-1.295-.324-1.942-.453l.388-2.071c.712.129,1.424.324,2.136.518Zm-13.982-.194-.518-2.071c.712-.194,1.424-.324,2.136-.453l.324,2.071C107.228,79.025,106.581,79.154,105.933,79.348Zm10.034-.583c-.647-.065-1.359-.129-2.007-.194l.129-2.071,2.136.194Zm-6.085-.065-.194-2.071c.712-.065,1.424-.129,2.2-.129l.065,2.071C111.241,78.571,110.594,78.636,109.882,78.7Z" transform="translate(-82.5 -76.5)" fill="#81b1aa"/>
        <g id="Group_41696" data-name="Group 41696" transform="translate(2 -3)">
          <g id="Group_40046" data-name="Group 40046" transform="translate(11.859 17.007)" opacity="0.869">
            <g id="Group_40045" data-name="Group 40045">
              <g id="Group_40044" data-name="Group 40044">
                <path id="Path_27892" data-name="Path 27892" d="M182.624,184.639l-4.7-1.632,2.168-4.478a.584.584,0,0,0-.113-.667l-3.725-3.725a.583.583,0,0,0-.668-.113l-4.478,2.17-1.632-4.7a.584.584,0,0,0-.552-.392h-5.268a.584.584,0,0,0-.552.392l-1.632,4.7-4.478-2.17a.584.584,0,0,0-.668.113l-3.725,3.725a.584.584,0,0,0-.113.667l2.168,4.478-4.7,1.632a.585.585,0,0,0-.392.552v5.269a.584.584,0,0,0,.392.552l4.7,1.632-2.168,4.478a.584.584,0,0,0,.113.667l3.725,3.725a.584.584,0,0,0,.667.113l4.479-2.168,1.632,4.7a.584.584,0,0,0,.552.392h5.268a.584.584,0,0,0,.552-.392l1.632-4.7,4.479,2.168a.584.584,0,0,0,.667-.113l3.725-3.725a.584.584,0,0,0,.113-.667l-2.168-4.478,4.7-1.632a.584.584,0,0,0,.393-.552V185.19A.584.584,0,0,0,182.624,184.639Zm-.776,5.4-4.927,1.711a.584.584,0,0,0-.334.806l2.273,4.7-3.137,3.138-4.7-2.273a.584.584,0,0,0-.806.334l-1.711,4.927h-4.438l-1.711-4.927a.584.584,0,0,0-.806-.334l-4.7,2.273-3.137-3.138,2.273-4.7a.584.584,0,0,0-.334-.806l-4.927-1.711v-4.437l4.927-1.711a.584.584,0,0,0,.334-.806l-2.273-4.7,3.137-3.137,4.7,2.275a.584.584,0,0,0,.806-.334l1.711-4.929h4.438l1.711,4.929a.584.584,0,0,0,.806.334l4.7-2.275,3.137,3.137-2.273,4.7a.584.584,0,0,0,.334.806l4.927,1.711Z" transform="translate(-149.565 -171.099)" fill="#fff"/>
              </g>
            </g>
          </g>
          <g id="Group_40049" data-name="Group 40049" transform="translate(23.144 28.294)">
            <g id="Group_40048" data-name="Group 40048">
              <g id="Group_40047" data-name="Group 40047">
                <path id="Path_27893" data-name="Path 27893" d="M212.354,228.458a5.439,5.439,0,1,0,5.439,5.439A5.446,5.446,0,0,0,212.354,228.458Zm0,9.709a4.27,4.27,0,1,1,4.27-4.27A4.276,4.276,0,0,1,212.354,238.167Z" transform="translate(-206.913 -228.458)" fill="#fff"/>
              </g>
            </g>
          </g>
          <g id="Group_40052" data-name="Group 40052" transform="translate(14.391 19.538)">
            <g id="Group_40051" data-name="Group 40051">
              <g id="Group_40050" data-name="Group 40050">
                <path id="Path_27894" data-name="Path 27894" d="M190.818,196.908l-6.078-2.111,2.8-5.793-1.766-1.766-5.793,2.807-2.111-6.082h-2.5l-2.111,6.082-5.794-2.807L165.7,189l2.8,5.793-6.079,2.111v2.5l6.079,2.111-2.8,5.793,1.767,1.766,5.793-2.8,2.111,6.079h2.5l2.111-6.079,5.793,2.8,1.767-1.767-2.8-5.793,6.078-2.111Zm-14.195,8.051a6.8,6.8,0,1,1,6.8-6.8A6.81,6.81,0,0,1,176.623,204.959Z" transform="translate(-162.429 -183.963)" fill="#257266"/>
              </g>
            </g>
          </g>
        </g>
      </g>
    </g>
  </g>
</svg>
