<svg xmlns="http://www.w3.org/2000/svg" width="44" height="38" viewBox="0 0 44 38">
  <g id="wallet_vault" transform="translate(-217.168 -622)">
    <!-- <path id="tile_hexagon" d="M30.117,0a5,5,0,0,1,4.327,2.495l8.105,14a5,5,0,0,1,0,5.01l-8.105,14A5,5,0,0,1,30.117,38H13.883a5,5,0,0,1-4.327-2.495l-8.105-14a5,5,0,0,1,0-5.01l8.105-14A5,5,0,0,1,13.883,0Z" transform="translate(217.168 622)" fill="#092c27" opacity="0.5"/> -->
    <path id="vault" d="M13.405,1.155a1.052,1.052,0,0,0-1.131,0L10.23,2.375a5.784,5.784,0,0,1-1.253.55L4.262,4.331a1.094,1.094,0,0,0-.78,1.187l1.4,11.188a5.493,5.493,0,0,0,2.4,3.891l4.913,3.275a1.1,1.1,0,0,0,1.209,0l4.913-3.286A5.529,5.529,0,0,0,20.7,16.7L22.1,5.5a1.107,1.107,0,0,0-.78-1.2L16.6,2.88a5.332,5.332,0,0,1-1.253-.561L13.307,1.089Z" transform="translate(226.377 628.479)" fill="#F9F4F0"/>
  </g>
</svg>
