<svg width="18" height="22" viewBox="0 0 18 22" fill="none" xmlns="http://www.w3.org/2000/svg">
<path d="M9.55066 0.830242C9.39951 0.733835 9.22395 0.682617 9.04467 0.682617C8.86538 0.682617 8.68983 0.733835 8.53867 0.830242L6.70967 1.92124C6.35741 2.12887 5.98179 2.29402 5.59067 2.41324L1.36967 3.67124C1.14563 3.73589 0.952029 3.87839 0.823703 4.07308C0.695377 4.26776 0.640755 4.50186 0.669666 4.73324L1.92067 14.7442C2.00729 15.4443 2.24361 16.1176 2.61356 16.7182C2.98351 17.3189 3.47842 17.8329 4.06467 18.2252L8.46467 21.1552C8.62524 21.2611 8.81334 21.3175 9.00566 21.3175C9.19799 21.3175 9.38609 21.2611 9.54667 21.1552L13.9467 18.2152C14.5315 17.8213 15.0253 17.3069 15.3951 16.7066C15.7649 16.1062 16.002 15.4337 16.0907 14.7342L17.3297 4.71424C17.3588 4.4816 17.3045 4.24617 17.1763 4.04986C17.0481 3.85355 16.8544 3.7091 16.6297 3.64224L12.4127 2.37324C12.019 2.25554 11.6422 2.08748 11.2917 1.87324L9.46267 0.773241L9.55066 0.830242Z" fill="#FDF7F0"/>
</svg>
