<svg width="11" height="13" viewBox="0 0 11 13" fill="none" xmlns="http://www.w3.org/2000/svg">
<g clip-path="url(#clip0_2974_15968)">
<path d="M5.48679 12.9993C4.25338 12.9993 3.02845 12.9993 1.79504 12.9993C1.55056 13.0022 1.30811 12.9516 1.08289 12.8507C0.857656 12.7498 0.654454 12.6007 0.48596 12.4127C0.317466 12.2247 0.187323 12.0018 0.103613 11.758C0.0199025 11.5143 -0.0155597 11.2548 -0.00055186 10.9959C0.0361809 10.214 0.296845 9.46258 0.746628 8.84207C1.19641 8.22157 1.8139 7.76148 2.51661 7.52325C2.82835 7.41303 3.15322 7.35006 3.48154 7.33624C4.8492 7.33624 6.20847 7.28282 7.57613 7.33624C8.25335 7.34731 8.91251 7.56925 9.47189 7.97449C10.0313 8.37973 10.4662 8.95042 10.7226 9.61569C10.9724 10.1694 11.0684 10.7871 10.9994 11.3965C10.9397 11.8254 10.7381 12.2178 10.4306 12.5033C10.1231 12.7888 9.72986 12.9488 9.32133 12.9547L5.48679 12.9993Z" fill="#FDF7F0"/>
<path d="M8.48969 3.17006C8.48965 3.79851 8.31355 4.41277 7.98382 4.9348C7.65409 5.45682 7.18564 5.86305 6.63787 6.10188C6.0901 6.34072 5.48775 6.4014 4.90742 6.27617C4.3271 6.15095 3.79492 5.84547 3.37855 5.39859C2.96217 4.9517 2.68043 4.38357 2.56899 3.76635C2.45755 3.14913 2.5215 2.51072 2.75274 1.93216C2.98398 1.3536 3.37201 0.861023 3.86762 0.517034C4.36323 0.173046 4.94404 -0.00686105 5.5362 0.000200165C6.32121 0.0141516 7.06984 0.353746 7.62186 0.946207C8.17387 1.53867 8.48541 2.3369 8.48969 3.17006Z" fill="#FDF7F0"/>
</g>
<defs>
<clipPath id="clip0_2974_15968">
<rect width="11" height="13" fill="white"/>
</clipPath>
</defs>
</svg>
