<svg xmlns="http://www.w3.org/2000/svg" width="29.656" height="25.612" viewBox="0 0 29.656 25.612">
  <g id="address" transform="translate(-49 -346)">
    <path id="tile_hexagon" d="M19.359,0a5,5,0,0,1,4.327,2.495L28.206,10.3a5,5,0,0,1,0,5.01l-4.519,7.806a5,5,0,0,1-4.327,2.495H10.3A5,5,0,0,1,5.97,23.117L1.45,15.311a5,5,0,0,1,0-5.01L5.97,2.495A5,5,0,0,1,10.3,0Z" transform="translate(49 346)" fill="#2d6759"/>
    <path id="Path_118865" data-name="Path 118865" d="M7.191-14.43a4.5,4.5,0,0,1,1.1.145,4.53,4.53,0,0,1,1.078.422v3.114A2.985,2.985,0,0,0,9.5-9.677a.466.466,0,0,0,.46.3.858.858,0,0,0,.769-.611,5.442,5.442,0,0,0,.277-2.061,3.47,3.47,0,0,0-.958-2.616,3.987,3.987,0,0,0-2.874-.927,4.4,4.4,0,0,0-2.276.561,3.671,3.671,0,0,0-1.45,1.563,5.164,5.164,0,0,0-.5,2.326A4.512,4.512,0,0,0,4.045-7.931,4.1,4.1,0,0,0,7.191-6.765a7.355,7.355,0,0,0,1.3-.12,7.118,7.118,0,0,0,1.185-.309l.466,1.374a7.8,7.8,0,0,1-1.406.385,8.59,8.59,0,0,1-1.557.145A6.711,6.711,0,0,1,4-6.009,5.084,5.084,0,0,1,1.9-8.051a6.2,6.2,0,0,1-.744-3.089,5.986,5.986,0,0,1,.775-3.038,5.479,5.479,0,0,1,2.15-2.105,6.349,6.349,0,0,1,3.114-.756,6.228,6.228,0,0,1,3,.687,4.876,4.876,0,0,1,1.942,1.822,4.76,4.76,0,0,1,.668,2.458,5.679,5.679,0,0,1-.34,2.03,3.222,3.222,0,0,1-.964,1.4,2.23,2.23,0,0,1-1.444.5,1.676,1.676,0,0,1-1.141-.378,1.635,1.635,0,0,1-.548-.908,2.11,2.11,0,0,1-.693.9,1.82,1.82,0,0,1-1.109.334,2.02,2.02,0,0,1-1.727-.775,3.359,3.359,0,0,1-.58-2.061,3.731,3.731,0,0,1,.775-2.484A2.673,2.673,0,0,1,7.191-14.43ZM6.825-9.438a.787.787,0,0,0,.517-.177,1.27,1.27,0,0,0,.34-.441v-3a1.521,1.521,0,0,0-.555-.113.868.868,0,0,0-.794.5,3.621,3.621,0,0,0-.277,1.658A2.9,2.9,0,0,0,6.239-9.8.613.613,0,0,0,6.825-9.438Z" transform="translate(57.173 369.497)" fill="#f2ede6"/>
  </g>
</svg>
