<svg width="25" height="22" viewBox="0 0 25 22" fill="none" xmlns="http://www.w3.org/2000/svg">
<path d="M22.4881 21.8601H2.49901C1.83716 21.8593 1.20258 21.5963 0.734214 21.1287C0.265844 20.6611 0.00183946 20.0269 0 19.3651L0 2.66097C0.000185984 2.00485 0.258399 1.37513 0.718891 0.907762C1.17938 0.440392 1.80521 0.172871 2.46125 0.162957L17.0668 0H17.1125C18.1036 0.000525071 19.054 0.39419 19.7551 1.09461C20.4563 1.79504 20.851 2.74501 20.8525 3.73609L20.8903 3.79869V3.96165H22.502C23.1641 3.96243 23.7989 4.22573 24.2671 4.69382C24.7354 5.1619 24.9989 5.79657 25 6.45866V16.567L24.9871 15.4928V19.368C24.9845 20.0294 24.7201 20.6628 24.2518 21.1297C23.7835 21.5967 23.1494 21.8593 22.4881 21.8601ZM19.9116 10.632C19.245 10.632 18.6057 10.8968 18.1343 11.3681C17.663 11.8395 17.3982 12.4788 17.3982 13.1454C17.3982 13.812 17.663 14.4513 18.1343 14.9226C18.6057 15.394 19.245 15.6588 19.9116 15.6588H21.1645C21.3866 15.6585 21.5995 15.5702 21.7566 15.4132C21.9136 15.2561 22.0019 15.0432 22.0022 14.8211V11.4686C22.0017 11.2467 21.9132 11.034 21.7562 10.8772C21.5992 10.7204 21.3864 10.6322 21.1645 10.632H19.9116ZM3.23529 2.5C3.03976 2.5 2.85222 2.57768 2.71396 2.71594C2.57569 2.85421 2.49801 3.04174 2.49801 3.23728V3.97456H18.1151C18.1145 3.58382 17.9592 3.20921 17.6829 2.93282C17.4067 2.65643 17.0322 2.50079 16.6415 2.5H3.23529Z" fill="#8E8E8E"/>
</svg>
