<svg xmlns="http://www.w3.org/2000/svg" width="39.368" height="34" viewBox="0 0 39.368 34">
  <g id="wallet_vault" transform="translate(-217.168 -622)">
    <path id="tile_hexagon" d="M26.644,0a5,5,0,0,1,4.327,2.495l6.947,12a5,5,0,0,1,0,5.01l-6.947,12A5,5,0,0,1,26.644,34H12.725A5,5,0,0,1,8.4,31.505l-6.947-12a5,5,0,0,1,0-5.01l6.947-12A5,5,0,0,1,12.725,0Z" transform="translate(217.168 622)" fill="#91785d"/>
    <path id="vault" d="M12.36,1.138a.941.941,0,0,0-1.012,0L9.519,2.229A5.176,5.176,0,0,1,8.4,2.721L4.179,3.979a.979.979,0,0,0-.7,1.062L4.73,15.052a4.915,4.915,0,0,0,2.144,3.481l4.4,2.93a.983.983,0,0,0,1.082,0l4.4-2.94a4.947,4.947,0,0,0,2.144-3.481L20.139,5.022a.99.99,0,0,0-.7-1.072L15.222,2.681a4.771,4.771,0,0,1-1.121-.5l-1.829-1.1Z" transform="translate(225.042 627.692)" fill="#F9F4F0"/>
  </g>
</svg>
