<svg width="26" height="23" viewBox="0 0 26 23" fill="none" xmlns="http://www.w3.org/2000/svg">
<path d="M22.632 22.5H2.515C1.84892 22.4992 1.21028 22.2345 0.738913 21.7639C0.267545 21.2933 0.00185124 20.6551 0 19.989L0 3.178C0.000187174 2.51769 0.260053 1.88393 0.723492 1.41357C1.18693 0.94321 1.81676 0.673977 2.477 0.664L17.176 0.5H17.222C18.2194 0.500528 19.1759 0.896712 19.8816 1.60162C20.5872 2.30653 20.9844 3.26258 20.986 4.26L21.024 4.323V4.487H22.646C23.3123 4.48779 23.9512 4.75278 24.4224 5.22386C24.8937 5.69493 25.1589 6.33366 25.16 7V17.173L25.147 16.092V19.992C25.1444 20.6576 24.8783 21.295 24.407 21.765C23.9357 22.2349 23.2976 22.4992 22.632 22.5ZM20.039 11.2C19.3681 11.2 18.7247 11.4665 18.2504 11.9409C17.776 12.4152 17.5095 13.0586 17.5095 13.7295C17.5095 14.4004 17.776 15.0438 18.2504 15.5181C18.7247 15.9925 19.3681 16.259 20.039 16.259H21.3C21.5235 16.2587 21.7378 16.1698 21.8958 16.0118C22.0538 15.8538 22.1427 15.6395 22.143 15.416V12.042C22.1425 11.8187 22.0535 11.6047 21.8954 11.4468C21.7374 11.289 21.5233 11.2003 21.3 11.2H20.039ZM3.256 3.016C3.05921 3.016 2.87048 3.09417 2.73133 3.23333C2.59217 3.37248 2.514 3.56121 2.514 3.758V4.5H18.231C18.2305 4.10675 18.0741 3.72975 17.7961 3.45159C17.5181 3.17343 17.1412 3.01679 16.748 3.016H3.256Z" fill="#2F4F4F"/>
</svg>
