<svg xmlns="http://www.w3.org/2000/svg" width="42.43" height="42.43" viewBox="0 0 42.43 42.43">
  <g id="file" transform="translate(-38.455 -381.002)">
    <g id="Group_54508" data-name="Group 54508" transform="translate(-10 119.516)">
      <g id="Group_54506" data-name="Group 54506" transform="translate(7.486 7.486)">
        <g id="Ellipse_2007" data-name="Ellipse 2007" transform="translate(40.969 254)" fill="#f7f2ec" stroke="#002c27" stroke-width="1">
          <circle cx="21.215" cy="21.215" r="21.215" stroke="none"/>
          <circle cx="21.215" cy="21.215" r="20.715" fill="none"/>
        </g>
        <g id="Group_39720" data-name="Group 39720" transform="translate(42.662 255.806)">
          <g id="Group_39719" data-name="Group 39719" transform="translate(0 0)">
            <path id="Path_27264" data-name="Path 27264" d="M434.087,1170.751a19.6,19.6,0,0,1-5.832,13.981,19.347,19.347,0,0,1-13.75,5.639,19.62,19.62,0,1,1,19.582-19.62Z" transform="translate(-394.923 -1151.13)" fill="#2d6759"/>
          </g>
        </g>
        <g id="Ellipse_2008" data-name="Ellipse 2008" transform="translate(44.2 257.286)" fill="#f7f2ec" stroke="#002c27" stroke-width="1">
          <circle cx="18.055" cy="18.055" r="18.055" stroke="none"/>
          <circle cx="18.055" cy="18.055" r="17.555" fill="none"/>
        </g>
        <g id="Rectangle_7600" data-name="Rectangle 7600" transform="translate(46.853 290.724) rotate(-90)" fill="none" stroke="#002c27" stroke-width="1" stroke-dasharray="1 1.5">
          <rect width="30.88" height="30.88" rx="15.44" stroke="none"/>
          <rect x="0.5" y="0.5" width="29.88" height="29.88" rx="14.94" fill="none"/>
        </g>
      </g>
    </g>
    <path id="file-2" data-name="file" d="M9.069.991H4.892A1.387,1.387,0,0,0,3.5,2.383V14.913A1.392,1.392,0,0,0,4.892,16.3h9.049a1.4,1.4,0,0,0,1.392-1.392V2.383A1.392,1.392,0,0,0,13.941.991h-.7V5.863a.7.7,0,0,1-.334.592.719.719,0,0,1-.682.028L11.143,5.94l-1.086.536a.72.72,0,0,1-.682-.035.706.706,0,0,1-.334-.6V.97Z" transform="translate(50.083 393.361)" fill="#2d6759" fill-rule="evenodd"/>
  </g>
</svg>
