<svg id="wallet" xmlns="http://www.w3.org/2000/svg" width="16.155" height="15.002" viewBox="0 0 16.155 15.002">
  <path id="Shape" d="M14.7,15H2.193A2.192,2.192,0,0,1,0,12.832V3.216A3.216,3.216,0,0,1,3.216,0h8.108A3.216,3.216,0,0,1,14.54,3.216a1.731,1.731,0,0,1,1.615,1.609v8.729A1.458,1.458,0,0,1,14.7,15Zm-3.064-7.59a1.595,1.595,0,0,0-.007,3.19v0h0a1.593,1.593,0,1,0,0-3.187Zm-8.671-5.8A1.346,1.346,0,0,0,1.616,2.954v.262H12.924V2.954a1.346,1.346,0,0,0-1.346-1.346Z" transform="translate(0 0)" fill="#f7f2ec"/>
</svg>
