<svg xmlns="http://www.w3.org/2000/svg" width="29.654" height="25.61" viewBox="0 0 29.654 25.61">
  <g id="wallet_vault" transform="translate(-217.168 -622)">
    <path id="tile_hexagon" d="M19.358,0a5,5,0,0,1,4.327,2.495L28.2,10.3a5,5,0,0,1,0,5.01l-4.519,7.805a5,5,0,0,1-4.327,2.495H10.3a5,5,0,0,1-4.327-2.495L1.45,15.31a5,5,0,0,1,0-5.01L5.969,2.495A5,5,0,0,1,10.3,0Z" transform="translate(217.168 622)" fill="#91785d"/>
    <path id="vault" d="M10.167,1.1a.709.709,0,0,0-.762,0l-1.378.822a3.9,3.9,0,0,1-.844.37L4,3.242a.738.738,0,0,0-.526.8l.941,7.54A3.7,3.7,0,0,0,6.034,14.2l3.311,2.207a.74.74,0,0,0,.815,0L13.471,14.2a3.726,3.726,0,0,0,1.615-2.622l.941-7.548A.746.746,0,0,0,15.5,3.22l-3.178-.956a3.593,3.593,0,0,1-.844-.378L10.1,1.057Z" transform="translate(222.242 626.043)" fill="#fdf7f0"/>
  </g>
</svg>
