<svg width="19" height="17" viewBox="0 0 19 17" fill="none" xmlns="http://www.w3.org/2000/svg">
<path d="M16.575 16.115H1.841C1.35273 16.1145 0.884617 15.9202 0.539448 15.5748C0.19428 15.2295 0.000264647 14.7613 0 14.273L0 1.961C0.000206642 1.47746 0.190542 1.01339 0.529923 0.668953C0.869305 0.324521 1.33051 0.12735 1.814 0.12L12.578 0H12.611C13.3414 0.00026364 14.0419 0.290268 14.5588 0.806384C15.0757 1.3225 15.3667 2.02257 15.368 2.753L15.4 2.8V2.92H16.588C17.0762 2.92079 17.5441 3.11515 17.8893 3.46045C18.2344 3.80575 18.4285 4.27381 18.429 4.762V12.21L18.42 11.418V14.273C18.4199 14.5151 18.372 14.7548 18.2792 14.9784C18.1864 15.2021 18.0505 15.4052 17.8791 15.5763C17.7078 15.7473 17.5044 15.8829 17.2807 15.9754C17.0569 16.0678 16.8171 16.1153 16.575 16.115ZM14.675 7.835C14.1911 7.84624 13.7309 8.04635 13.3926 8.39254C13.0544 8.73872 12.865 9.20351 12.865 9.6875C12.865 10.1715 13.0544 10.6363 13.3926 10.9825C13.7309 11.3286 14.1911 11.5288 14.675 11.54H15.6C15.7636 11.5397 15.9203 11.4746 16.036 11.359C16.1516 11.2433 16.2167 11.0866 16.217 10.923V8.453C16.2167 8.28935 16.1517 8.13246 16.0361 8.01665C15.9204 7.90084 15.7636 7.83553 15.6 7.835H14.675ZM2.385 1.842C2.24072 1.842 2.10235 1.89931 2.00033 2.00133C1.89831 2.10335 1.841 2.24172 1.841 2.386V2.929H13.351C13.3505 2.64114 13.2359 2.36522 13.0323 2.16167C12.8288 1.95812 12.5529 1.84353 12.265 1.843L2.385 1.842Z" fill="#2D6759"/>
</svg>
