<svg xmlns="http://www.w3.org/2000/svg" width="57.895" height="50" viewBox="0 0 57.895 50">
  <g id="wallet_vault" transform="translate(-217.168 -622)">
    <path id="tile_hexagon" d="M40.538,0a5,5,0,0,1,4.327,2.495l11.579,20a5,5,0,0,1,0,5.01l-11.579,20A5,5,0,0,1,40.538,50H17.356a5,5,0,0,1-4.327-2.495l-11.579-20a5,5,0,0,1,0-5.01l11.579-20A5,5,0,0,1,17.356,0Z" transform="translate(217.168 622)" fill="#092c27" opacity="0.5"/>
    <path id="vault" d="M16.541,1.207a1.384,1.384,0,0,0-1.488,0l-2.69,1.605a7.611,7.611,0,0,1-1.649.723l-6.2,1.851A1.44,1.44,0,0,0,3.484,6.948L5.321,21.67a7.228,7.228,0,0,0,3.153,5.119L14.938,31.1a1.445,1.445,0,0,0,1.591,0l6.464-4.324a7.275,7.275,0,0,0,3.153-5.119L27.982,6.919a1.457,1.457,0,0,0-1.027-1.576l-6.2-1.866A7.015,7.015,0,0,1,19.1,2.74l-2.69-1.62Z" transform="translate(230.382 630.837)" fill="#fdf7f0"/>
  </g>
</svg>
