<svg width="185" height="145" viewBox="0 0 185 145" fill="none" xmlns="http://www.w3.org/2000/svg">
<g opacity="0.272">
<path d="M41.7495 133.977C60.0378 133.977 74.8633 119.152 74.8633 100.863C74.8633 82.5751 60.0378 67.7495 41.7495 67.7495C23.4613 67.7495 8.63574 82.5751 8.63574 100.863C8.63574 119.152 23.4613 133.977 41.7495 133.977Z" fill="url(#paint0_linear_1306_7488)"/>
<path d="M50.8238 143.216C51.2597 143.569 51.7905 143.785 52.349 143.836C52.9076 143.887 53.4688 143.772 53.9618 143.504C54.4548 143.237 54.8573 142.829 55.1186 142.333C55.3798 141.836 55.488 141.274 55.4295 140.716C55.371 140.158 55.1484 139.63 54.7899 139.199C54.4313 138.767 53.9529 138.452 53.4152 138.292C52.8774 138.133 52.3044 138.136 51.7687 138.303C51.233 138.469 50.7585 138.79 50.4053 139.226C49.9319 139.81 49.71 140.559 49.7885 141.307C49.8669 142.056 50.2393 142.742 50.8238 143.216Z" fill="url(#paint1_linear_1306_7488)"/>
<path d="M61.0173 137.226C61.3151 137.467 61.6777 137.614 62.0593 137.65C62.4409 137.685 62.8243 137.606 63.1611 137.423C63.4979 137.24 63.7728 136.961 63.9513 136.622C64.1297 136.283 64.2036 135.899 64.1635 135.518C64.1234 135.137 63.9713 134.776 63.7262 134.481C63.4812 134.187 63.1543 133.971 62.7869 133.862C62.4195 133.754 62.028 133.756 61.6621 133.87C61.2961 133.983 60.972 134.203 60.7309 134.501C60.4075 134.9 60.256 135.412 60.3097 135.923C60.3634 136.434 60.618 136.902 61.0173 137.226Z" fill="url(#paint2_linear_1306_7488)"/>
<path d="M3.5975 91.6623C4.30902 91.6623 5.00456 91.4513 5.59617 91.056C6.18778 90.6607 6.64888 90.0989 6.92116 89.4415C7.19345 88.7841 7.26469 88.0608 7.12588 87.363C6.98707 86.6651 6.64444 86.0241 6.14132 85.521C5.6382 85.0179 4.99719 84.6752 4.29934 84.5364C3.60149 84.3976 2.87816 84.4688 2.2208 84.7411C1.56344 85.0134 1.00159 85.4745 0.606288 86.0661C0.21099 86.6577 0 87.3533 0 88.0648C0 89.0189 0.379021 89.934 1.05368 90.6086C1.72835 91.2833 2.64339 91.6623 3.5975 91.6623Z" fill="url(#paint3_linear_1306_7488)"/>
</g>
<g opacity="0.272">
<path d="M170.192 33.9499C175.599 29.8758 176.68 22.1896 172.606 16.7823C168.532 11.375 160.846 10.2943 155.438 14.3683C150.031 18.4424 148.95 26.1286 153.024 31.5359C157.098 36.9432 164.784 38.024 170.192 33.9499Z" fill="url(#paint4_linear_1306_7488)"/>
<path d="M169.565 38.7014C169.515 38.9029 169.406 39.085 169.252 39.2246C169.099 39.3642 168.907 39.4551 168.702 39.4858C168.496 39.5165 168.286 39.4856 168.098 39.397C167.911 39.3084 167.753 39.1661 167.646 38.988C167.539 38.81 167.488 38.6043 167.498 38.3969C167.508 38.1894 167.579 37.9896 167.702 37.8227C167.826 37.6558 167.996 37.5292 168.192 37.4591C168.387 37.3889 168.599 37.3783 168.801 37.4285C169.071 37.4959 169.303 37.6679 169.447 37.9066C169.59 38.1453 169.633 38.4312 169.565 38.7014Z" fill="url(#paint5_linear_1306_7488)"/>
<path d="M165.218 39.1994C165.184 39.3368 165.11 39.461 165.005 39.5562C164.9 39.6515 164.769 39.7135 164.629 39.7344C164.489 39.7554 164.346 39.7343 164.218 39.6738C164.09 39.6134 163.982 39.5163 163.909 39.3949C163.836 39.2735 163.801 39.1331 163.808 38.9916C163.815 38.8501 163.863 38.7138 163.948 38.5999C164.032 38.4861 164.148 38.3998 164.281 38.3519C164.415 38.304 164.559 38.2968 164.697 38.3311C164.881 38.3773 165.039 38.4947 165.137 38.6574C165.235 38.8202 165.264 39.0151 165.218 39.1994Z" fill="url(#paint6_linear_1306_7488)"/>
<path d="M172.043 12.9387C171.833 13.0971 171.581 13.1896 171.318 13.2045C171.055 13.2195 170.793 13.1561 170.567 13.0224C170.34 12.8888 170.158 12.6909 170.043 12.4537C169.929 12.2165 169.887 11.9508 169.924 11.6901C169.961 11.4293 170.074 11.1853 170.249 10.9889C170.424 10.7925 170.654 10.6525 170.909 10.5866C171.164 10.5207 171.433 10.5318 171.681 10.6186C171.93 10.7055 172.147 10.8641 172.306 11.0743C172.518 11.3563 172.61 11.7112 172.561 12.0608C172.511 12.4104 172.325 12.7262 172.043 12.9387Z" fill="url(#paint7_linear_1306_7488)"/>
</g>
<path d="M100.988 129.143C136.65 129.143 165.56 100.233 165.56 64.5714C165.56 28.9096 136.65 0 100.988 0C65.3266 0 36.417 28.9096 36.417 64.5714C36.417 100.233 65.3266 129.143 100.988 129.143Z" fill="#F6F2ED"/>
<path d="M100.987 127.893C135.959 127.893 164.309 99.5428 164.309 64.5714C164.309 29.5999 135.959 1.25 100.987 1.25C66.0159 1.25 37.666 29.5999 37.666 64.5714C37.666 99.5428 66.0159 127.893 100.987 127.893Z" stroke="#002C27" stroke-width="2"/>
<path d="M160.771 65.2079C160.784 73.1239 159.221 80.9633 156.173 88.2693C153.126 95.5753 148.655 102.202 143.021 107.763C137.521 113.241 130.992 117.577 123.81 120.523C116.628 123.468 108.934 124.964 101.171 124.925C89.355 124.949 77.7974 121.466 67.9612 114.918C58.1251 108.37 50.4524 99.0515 45.9145 88.1413C41.3765 77.231 40.1772 65.2199 42.4683 53.6278C44.7594 42.0357 50.4378 31.3838 58.7851 23.0203C67.1323 14.6567 77.7731 8.95741 89.3607 6.64375C100.948 4.33008 112.962 5.50612 123.881 10.0228C134.8 14.5395 144.134 22.1939 150.701 32.0173C157.268 41.8407 160.773 53.3915 160.773 65.2079H160.771Z" fill="url(#paint8_linear_1306_7488)"/>
<path d="M100.745 119.832C131.096 119.832 155.7 95.2274 155.7 64.8765C155.7 34.5256 131.096 9.92139 100.745 9.92139C70.3943 9.92139 45.79 34.5256 45.79 64.8765C45.79 95.2274 70.3943 119.832 100.745 119.832Z" fill="#F6F2ED"/>
<path d="M94.375 66.1953C94.3984 66.3594 94.5157 66.5 94.6797 66.5469C95.0938 66.6172 95.5469 67.1094 95.9688 66.8438L98.1953 65.1719L100.656 67.6406L99 69.875C98.9063 70.0156 98.8829 70.1875 98.9531 70.3359C99.1484 70.6484 99.1954 71.0781 99.4297 71.3672C99.5469 71.4844 99.8203 71.4766 99.9688 71.5156L102.406 71.875L102.422 75.3516L99.6406 75.7656C99.4766 75.7891 99.3438 75.9063 99.2891 76.0625C99.2109 76.5234 98.7267 76.9219 98.9844 77.3516L99.1016 77.5156L100.648 79.5859V79.5938L98.2031 82.0703L95.9453 80.3984C95.5235 80.1329 95.0703 80.625 94.6562 80.6953C94.5001 80.75 94.3829 80.8829 94.3594 81.0469L93.9688 83.8047L90.4766 83.8203L90.0625 81.0391C90.039 80.8751 89.9218 80.7344 89.7656 80.6875C89.3516 80.625 88.8984 80.1329 88.4766 80.3984L86.25 82.0703L83.7734 79.6094L85.4453 77.3516C85.5546 77.2109 85.5547 77.0078 85.4688 76.8516C85.2345 76.5234 85.2656 75.8672 84.7891 75.7656L82.0312 75.375L82.0156 71.8828L83.7578 71.625C83.7655 71.6173 83.7657 71.625 83.7734 71.6172L84.7969 71.4688C84.9687 71.4453 85.1016 71.3281 85.1484 71.1719C85.2033 70.7969 85.7187 70.2968 85.4531 69.8828C85.2653 69.6324 83.9453 67.8437 83.7969 67.6406L84.0234 67.4141L86.2344 65.1719L88.4922 66.8438C88.9141 67.1016 89.3672 66.6172 89.7812 66.5469C89.9375 66.4922 90.0547 66.3594 90.0781 66.1953L90.4688 63.4297L93.9609 63.4141L94.375 66.1953ZM84.1484 53.1094C84.7187 53.75 85.5313 54.1641 86.3828 54.2578C86.5078 54.2656 86.625 54.2656 86.75 54.2734H117.555C119.078 54.2734 120.328 55.5235 120.328 57.0469V62.5391H120.235V70.9766H120.32V76.2969C120.32 77.8281 119.07 79.0703 117.547 79.0703H101.367L99.8594 77.0391C99.9219 76.8985 99.9844 76.7578 100.039 76.6094L102.555 76.2344C102.969 76.1719 103.289 75.8047 103.289 75.375V71.8594C103.281 71.4454 102.969 71.0625 102.547 71L100.055 70.6406C99.9922 70.4922 99.9375 70.3515 99.875 70.2109L101.375 68.1797C101.641 67.8359 101.609 67.3437 101.297 67.0469L98.8125 64.5547V64.5469C98.5078 64.2501 98.0234 64.2188 97.6875 64.4688L95.6406 65.9844C95.4922 65.9141 95.3515 65.8594 95.2109 65.8047L94.8359 63.2812C94.7656 62.8673 94.4062 62.5469 93.9766 62.5469H90.4609C90.0391 62.5469 89.6798 62.8517 89.6016 63.2812L89.2266 65.8047C89.086 65.8594 88.9375 65.9141 88.7969 65.9844L86.7578 64.4688C86.4219 64.211 85.9375 64.2423 85.625 64.5469L84.1484 66.0312V53.1094ZM96.8438 73.6172C96.5858 67.4846 87.8283 67.4846 87.5781 73.6172C87.5781 76.1719 89.6562 78.2422 92.2109 78.25C94.7656 78.2422 96.8438 76.1719 96.8438 73.6172ZM92.2188 69.875C94.2656 69.875 95.953 71.547 95.9531 73.6094C95.9531 75.6719 94.2734 77.3516 92.2109 77.3516C87.2656 77.1641 87.2656 70.0625 92.2188 69.875ZM84.5703 70.1953C84.5 70.3437 84.4453 70.4844 84.3906 70.625L84.1406 70.6641V69.6172L84.5703 70.1953ZM113.258 48.1719C114.687 48.1719 115.906 49.0782 116.391 50.3359H95.0703C94.8204 50.3359 94.6251 50.5391 94.625 50.7812C94.625 51.0234 94.8203 51.2266 95.0703 51.2266H116.609C116.617 51.3281 116.625 51.4376 116.625 51.5391V53.3906H86.75C85.3438 53.4062 84.1328 52.2344 84.1328 50.7734C84.0939 49.3829 85.3438 48.1406 86.7422 48.1719H113.258Z" fill="url(#paint9_linear_1306_7488)"/>
<path d="M100.987 118.278C130.648 118.278 154.692 94.2333 154.692 64.5728C154.692 34.9123 130.648 10.8677 100.987 10.8677C71.3268 10.8677 47.2822 34.9123 47.2822 64.5728C47.2822 94.2333 71.3268 118.278 100.987 118.278Z" stroke="#002C27" stroke-width="2"/>
<path d="M101.321 18.7262C75.8848 18.7262 55.2646 39.3463 55.2646 64.7825C55.2646 90.2187 75.8848 110.839 101.321 110.839C126.757 110.839 147.377 90.2187 147.377 64.7825C147.377 39.3463 126.757 18.7262 101.321 18.7262Z" stroke="#002C27" stroke-width="1.5" stroke-dasharray="1.5 1.5"/>
<defs>
<linearGradient id="paint0_linear_1306_7488" x1="41.7495" y1="67.7495" x2="41.7495" y2="133.977" gradientUnits="userSpaceOnUse">
<stop stop-color="#58A4A4"/>
<stop offset="1" stop-color="#073E39"/>
</linearGradient>
<linearGradient id="paint1_linear_1306_7488" x1="54.3936" y1="138.807" x2="50.8238" y2="143.216" gradientUnits="userSpaceOnUse">
<stop stop-color="#58A4A4"/>
<stop offset="1" stop-color="#073E39"/>
</linearGradient>
<linearGradient id="paint2_linear_1306_7488" x1="63.4559" y1="134.214" x2="61.0173" y2="137.226" gradientUnits="userSpaceOnUse">
<stop stop-color="#58A4A4"/>
<stop offset="1" stop-color="#073E39"/>
</linearGradient>
<linearGradient id="paint3_linear_1306_7488" x1="3.5975" y1="84.4673" x2="3.5975" y2="91.6623" gradientUnits="userSpaceOnUse">
<stop stop-color="#58A4A4"/>
<stop offset="1" stop-color="#073E39"/>
</linearGradient>
<linearGradient id="paint4_linear_1306_7488" x1="155.438" y1="14.3683" x2="170.192" y2="33.9499" gradientUnits="userSpaceOnUse">
<stop stop-color="#58A4A4"/>
<stop offset="1" stop-color="#073E39"/>
</linearGradient>
<linearGradient id="paint5_linear_1306_7488" x1="169.565" y1="38.7014" x2="167.528" y2="38.1932" gradientUnits="userSpaceOnUse">
<stop stop-color="#58A4A4"/>
<stop offset="1" stop-color="#073E39"/>
</linearGradient>
<linearGradient id="paint6_linear_1306_7488" x1="165.218" y1="39.1994" x2="163.828" y2="38.8527" gradientUnits="userSpaceOnUse">
<stop stop-color="#58A4A4"/>
<stop offset="1" stop-color="#073E39"/>
</linearGradient>
<linearGradient id="paint7_linear_1306_7488" x1="170.441" y1="10.8122" x2="172.043" y2="12.9387" gradientUnits="userSpaceOnUse">
<stop stop-color="#58A4A4"/>
<stop offset="1" stop-color="#073E39"/>
</linearGradient>
<linearGradient id="paint8_linear_1306_7488" x1="101.054" y1="5.48779" x2="101.054" y2="124.926" gradientUnits="userSpaceOnUse">
<stop stop-color="#58A4A4"/>
<stop offset="1" stop-color="#073E39"/>
</linearGradient>
<linearGradient id="paint9_linear_1306_7488" x1="101.172" y1="48.1719" x2="101.172" y2="83.8209" gradientUnits="userSpaceOnUse">
<stop stop-color="#58A4A4"/>
<stop offset="1" stop-color="#073E39"/>
</linearGradient>
</defs>
</svg>
