<svg width="203" height="165" viewBox="0 0 203 165" fill="none" xmlns="http://www.w3.org/2000/svg">
<path opacity="0.26" d="M96.8665 164.522C142.298 164.522 179.127 127.692 179.127 82.261C179.127 36.8295 142.298 0 96.8665 0C51.435 0 14.6055 36.8295 14.6055 82.261C14.6055 127.692 51.435 164.522 96.8665 164.522Z" fill="#073B36"/>
<path opacity="0.2" d="M192.631 77.0264C193.583 77.0264 194.514 76.7441 195.305 76.2153C196.097 75.6864 196.714 74.9347 197.078 74.0552C197.442 73.1758 197.538 72.2081 197.352 71.2744C197.166 70.3408 196.708 69.4832 196.035 68.8101C195.362 68.137 194.504 67.6786 193.57 67.4929C192.637 67.3072 191.669 67.4025 190.79 67.7668C189.91 68.131 189.158 68.7479 188.629 69.5394C188.101 70.3309 187.818 71.2615 187.818 72.2134C187.818 73.4899 188.325 74.7141 189.228 75.6167C190.131 76.5193 191.355 77.0264 192.631 77.0264Z" fill="#073B36"/>
<path d="M5.28394 70.3472C6.91207 70.3472 8.23194 69.0273 8.23194 67.3992C8.23194 65.771 6.91207 64.4512 5.28394 64.4512C3.6558 64.4512 2.33594 65.771 2.33594 67.3992C2.33594 69.0273 3.6558 70.3472 5.28394 70.3472Z" fill="#508B82"/>
<path d="M2.339 84.5003C3.63079 84.5003 4.678 83.4531 4.678 82.1613C4.678 80.8695 3.63079 79.8223 2.339 79.8223C1.04721 79.8223 0 80.8695 0 82.1613C0 83.4531 1.04721 84.5003 2.339 84.5003Z" fill="#508B82"/>
<path d="M200.056 87.4877C201.499 87.4877 202.669 86.3178 202.669 84.8747C202.669 83.4316 201.499 82.2617 200.056 82.2617C198.613 82.2617 197.443 83.4316 197.443 84.8747C197.443 86.3178 198.613 87.4877 200.056 87.4877Z" fill="#508B82"/>
<path d="M159.937 20.2678C161.228 20.2678 162.276 19.2206 162.276 17.9288C162.276 16.637 161.228 15.5898 159.937 15.5898C158.645 15.5898 157.598 16.637 157.598 17.9288C157.598 19.2206 158.645 20.2678 159.937 20.2678Z" fill="#508B82"/>
<path d="M100.291 101.666H77.8722C77.5839 101.666 77.3074 101.781 77.1035 101.984C76.8997 102.188 76.7852 102.465 76.7852 102.753V108.52C76.7854 108.808 76.9001 109.084 77.1039 109.288C77.3077 109.492 77.584 109.606 77.8722 109.606H100.291C100.579 109.606 100.856 109.491 101.06 109.288C101.264 109.084 101.378 108.807 101.378 108.519V102.752C101.378 102.464 101.263 102.188 101.059 101.984C100.856 101.78 100.579 101.666 100.291 101.666ZM99.2042 107.433H78.9592V103.839H99.2052L99.2042 107.433Z" fill="#B2D0CB"/>
<path d="M100.291 111.896H77.8722C77.5839 111.896 77.3074 112.011 77.1035 112.215C76.8997 112.419 76.7852 112.695 76.7852 112.983V118.751C76.7854 119.04 76.9001 119.316 77.1039 119.519C77.3077 119.723 77.584 119.837 77.8722 119.837H100.291C100.579 119.837 100.856 119.723 101.06 119.519C101.264 119.315 101.378 119.039 101.378 118.75V112.982C101.378 112.694 101.263 112.418 101.059 112.215C100.856 112.011 100.579 111.896 100.291 111.896ZM99.2042 117.663H78.9592V114.069H99.2052L99.2042 117.663Z" fill="#508B82"/>
<path d="M100.291 122.129H77.8722C77.5839 122.129 77.3074 122.243 77.1035 122.447C76.8997 122.651 76.7852 122.928 76.7852 123.216V128.983C76.7854 129.271 76.9001 129.547 77.1039 129.751C77.3077 129.955 77.584 130.069 77.8722 130.069H100.291C100.579 130.069 100.856 129.954 101.06 129.751C101.264 129.547 101.378 129.27 101.378 128.982V123.215C101.378 122.927 101.263 122.651 101.059 122.447C100.856 122.243 100.579 122.129 100.291 122.129ZM99.2042 127.896H78.9592V124.302H99.2052L99.2042 127.896Z" fill="#B2D0CB"/>
<path d="M115.764 101.666H106.345C106.057 101.666 105.78 101.781 105.576 101.984C105.372 102.188 105.258 102.465 105.258 102.753V108.52C105.258 108.808 105.373 109.084 105.577 109.288C105.78 109.492 106.057 109.606 106.345 109.606H115.764C116.052 109.606 116.329 109.491 116.532 109.288C116.736 109.084 116.851 108.807 116.851 108.519V102.752C116.851 102.464 116.736 102.188 116.532 101.984C116.328 101.78 116.052 101.666 115.764 101.666ZM114.677 107.433H107.432V103.839H114.678L114.677 107.433Z" fill="#B2D0CB"/>
<path d="M115.766 111.896H106.347C106.058 111.896 105.782 112.011 105.578 112.215C105.374 112.419 105.26 112.695 105.26 112.983V118.751C105.26 119.04 105.375 119.316 105.578 119.519C105.782 119.723 106.059 119.837 106.347 119.837H115.766C116.054 119.837 116.331 119.723 116.534 119.519C116.738 119.315 116.853 119.039 116.853 118.75V112.982C116.852 112.694 116.738 112.418 116.534 112.215C116.33 112.011 116.054 111.896 115.766 111.896ZM114.679 117.663H107.434V114.069H114.68L114.679 117.663Z" fill="#508B82"/>
<path d="M115.764 122.129H106.345C106.057 122.129 105.78 122.243 105.576 122.447C105.372 122.651 105.258 122.928 105.258 123.216V128.983C105.258 129.271 105.373 129.547 105.577 129.751C105.78 129.955 106.057 130.069 106.345 130.069H115.764C116.052 130.069 116.329 129.954 116.532 129.751C116.736 129.547 116.851 129.27 116.851 128.982V123.215C116.851 122.927 116.736 122.651 116.532 122.447C116.328 122.243 116.052 122.129 115.764 122.129ZM114.677 127.896H107.432V124.302H114.678L114.677 127.896Z" fill="#B2D0CB"/>
<path d="M115.605 30H78.6055C75.2918 30 72.6055 32.6863 72.6055 36V129C72.6055 132.314 75.2918 135 78.6055 135H115.605C118.919 135 121.605 132.314 121.605 129V36C121.605 32.6863 118.919 30 115.605 30Z" stroke="#B2D0CB" stroke-width="2"/>
<path d="M117.605 26H76.6055C72.1872 26 68.6055 29.5817 68.6055 34V131C68.6055 135.418 72.1872 139 76.6055 139H117.605C122.024 139 125.605 135.418 125.605 131V34C125.605 29.5817 122.024 26 117.605 26Z" stroke="#F2EDE6" stroke-width="2"/>
<path d="M100.291 70.9727H77.8722C77.5839 70.9727 77.3074 71.0872 77.1035 71.291C76.8997 71.4949 76.7852 71.7714 76.7852 72.0597V77.8277C76.7854 78.1158 76.9001 78.392 77.1039 78.5956C77.3077 78.7993 77.584 78.9137 77.8722 78.9137H100.291C100.579 78.9137 100.856 78.7991 101.06 78.5953C101.264 78.3914 101.378 78.115 101.378 77.8267V72.0587C101.378 71.7705 101.263 71.4943 101.059 71.2907C100.856 71.087 100.579 70.9727 100.291 70.9727ZM99.2042 76.7397H78.9592V73.1457H99.2052L99.2042 76.7397Z" fill="#508B82"/>
<path d="M100.291 81.2031H77.8722C77.5839 81.2031 77.3074 81.3176 77.1035 81.5215C76.8997 81.7254 76.7852 82.0018 76.7852 82.2901V88.0571C76.7854 88.3452 76.9001 88.6215 77.1039 88.8251C77.3077 89.0287 77.584 89.1431 77.8722 89.1431H100.291C100.579 89.1431 100.856 89.0286 101.06 88.8248C101.264 88.6209 101.378 88.3444 101.378 88.0561V82.2891C101.378 82.001 101.263 81.7248 101.059 81.5211C100.856 81.3175 100.579 81.2031 100.291 81.2031ZM99.2042 86.9701H78.9592V83.3761H99.2052L99.2042 86.9701Z" fill="#B2D0CB"/>
<path d="M100.291 91.4355H77.8722C77.5839 91.4355 77.3074 91.5501 77.1035 91.7539C76.8997 91.9578 76.7852 92.2343 76.7852 92.5226V98.2905C76.7854 98.5787 76.9001 98.8549 77.1039 99.0585C77.3077 99.2622 77.584 99.3765 77.8722 99.3765H100.291C100.579 99.3765 100.856 99.262 101.06 99.0582C101.264 98.8543 101.378 98.5778 101.378 98.2896V92.5215C101.378 92.2334 101.263 91.9572 101.059 91.7536C100.856 91.5499 100.579 91.4355 100.291 91.4355ZM99.2042 97.2025H78.9592V93.6086H99.2052L99.2042 97.2025Z" fill="#508B82"/>
<path d="M115.766 70.9727H106.347C106.058 70.9727 105.782 71.0872 105.578 71.291C105.374 71.4949 105.26 71.7714 105.26 72.0597V77.8277C105.26 78.1158 105.375 78.392 105.578 78.5956C105.782 78.7993 106.059 78.9137 106.347 78.9137H115.766C116.054 78.9137 116.331 78.7991 116.534 78.5953C116.738 78.3914 116.853 78.115 116.853 77.8267V72.0587C116.852 71.7705 116.738 71.4943 116.534 71.2907C116.33 71.087 116.054 70.9727 115.766 70.9727ZM114.679 76.7397H107.434V73.1457H114.68L114.679 76.7397Z" fill="#508B82"/>
<path d="M115.673 81.2031H106.345C106.057 81.2031 105.78 81.3176 105.576 81.5215C105.372 81.7254 105.258 82.0018 105.258 82.2901V88.0571C105.258 88.3452 105.373 88.6215 105.577 88.8251C105.78 89.0287 106.057 89.1431 106.345 89.1431H115.673C115.961 89.1431 116.238 89.0286 116.441 88.8248C116.645 88.6209 116.76 88.3444 116.76 88.0561V82.2891C116.76 82.001 116.645 81.7248 116.441 81.5211C116.237 81.3175 115.961 81.2031 115.673 81.2031ZM114.586 86.9701H107.432V83.3761H114.586V86.9701Z" fill="#B2D0CB"/>
<path d="M115.766 91.4355H106.347C106.058 91.4355 105.782 91.5501 105.578 91.7539C105.374 91.9578 105.26 92.2343 105.26 92.5226V98.2905C105.26 98.5787 105.375 98.8549 105.578 99.0585C105.782 99.2622 106.059 99.3765 106.347 99.3765H115.766C116.054 99.3765 116.331 99.262 116.534 99.0582C116.738 98.8543 116.853 98.5778 116.853 98.2896V92.5215C116.852 92.2334 116.738 91.9572 116.534 91.7536C116.33 91.5499 116.054 91.4355 115.766 91.4355ZM114.679 97.2025H107.434V93.6086H114.68L114.679 97.2025Z" fill="#508B82"/>
<path d="M115.291 35.2031H77.8722C77.5839 35.2031 77.3074 35.3176 77.1035 35.5215C76.8997 35.7254 76.7852 36.0018 76.7852 36.2901V66.0571C76.7854 66.3452 76.9001 66.6215 77.1039 66.8251C77.3077 67.0287 77.584 67.1431 77.8722 67.1431H115.291C115.579 67.1431 115.856 67.0286 116.06 66.8248C116.264 66.6209 116.378 66.3444 116.378 66.0561V36.2901C116.378 36.0018 116.264 35.7254 116.06 35.5215C115.856 35.3176 115.579 35.2031 115.291 35.2031ZM114.204 64.9701H78.9592V37.3761H114.205L114.204 64.9701Z" fill="#B2D0CB"/>
<path d="M153.45 101.095C159.167 101.095 163.802 96.4599 163.802 90.7426C163.802 85.0254 159.167 80.3906 153.45 80.3906C147.732 80.3906 143.098 85.0254 143.098 90.7426C143.098 96.4599 147.732 101.095 153.45 101.095Z" fill="#508B82"/>
<path d="M153.747 72.2129C150.082 72.2129 146.5 73.2995 143.453 75.3354C140.406 77.3713 138.031 80.265 136.629 83.6505C135.227 87.0361 134.86 90.7614 135.575 94.3555C136.29 97.9496 138.054 101.251 140.645 103.842C143.237 106.433 146.538 108.198 150.132 108.913C153.726 109.628 157.452 109.261 160.837 107.859C164.223 106.456 167.116 104.081 169.152 101.034C171.188 97.9876 172.275 94.4054 172.275 90.7409C172.269 85.8287 170.315 81.1192 166.842 77.6458C163.368 74.1723 158.659 72.2184 153.747 72.2129ZM153.747 107.096C150.512 107.096 147.35 106.137 144.661 104.34C141.972 102.543 139.875 99.9886 138.638 97.0003C137.4 94.012 137.076 90.7238 137.707 87.5514C138.338 84.379 139.896 81.465 142.183 79.1779C144.47 76.8907 147.384 75.3331 150.556 74.7021C153.729 74.0711 157.017 74.395 160.005 75.6328C162.993 76.8705 165.548 78.9667 167.345 81.6561C169.142 84.3455 170.101 87.5074 170.101 90.7419C170.096 95.0777 168.371 99.2345 165.305 102.3C162.239 105.366 158.083 107.091 153.747 107.096Z" fill="#B2D0CB"/>
<path d="M141.961 86.9415L139.898 86.2595C139.651 87.0046 139.467 87.7689 139.348 88.5445L141.496 88.8755C141.597 88.2191 141.753 87.5722 141.961 86.9415ZM141.354 90.8645L139.18 90.8855C139.188 91.6693 139.259 92.4512 139.394 93.2235L141.535 92.8485C141.42 92.1932 141.36 91.5296 141.354 90.8645ZM143.813 83.4275L142.081 82.1125C141.607 82.738 141.185 83.4012 140.819 84.0955L142.742 85.1075C143.052 84.5189 143.41 83.957 143.813 83.4275ZM142.041 94.7755L139.992 95.5005C140.253 96.2394 140.575 96.9555 140.955 97.6415L142.855 96.5895C142.534 96.0081 142.262 95.4014 142.041 94.7755ZM146.7 80.7015L145.486 78.9015C144.835 79.3399 144.222 79.8309 143.652 80.3695L145.145 81.9485C145.628 81.4908 146.148 81.0737 146.7 80.7015ZM163.982 84.7865L165.873 83.7155C165.486 83.0336 165.043 82.3848 164.55 81.7755L162.861 83.1425C163.278 83.6593 163.653 84.2094 163.981 84.7875L163.982 84.7865ZM143.962 98.2455L142.262 99.5955C142.747 100.21 143.282 100.784 143.862 101.31L145.322 99.7015C144.83 99.2539 144.375 98.7669 143.962 98.2455ZM165.341 88.5145L167.478 88.1145C167.334 87.3431 167.126 86.5848 166.858 85.8475L164.816 86.5935C165.044 87.2182 165.219 87.8607 165.341 88.5145ZM150.309 79.0555L149.746 76.9555C148.988 77.1591 148.248 77.4247 147.534 77.7495L148.434 79.7285C149.039 79.4531 149.666 79.228 150.309 79.0555ZM154.509 102.791L154.696 104.956C155.478 104.889 156.253 104.758 157.013 104.562L156.471 102.458C155.827 102.622 155.171 102.734 154.509 102.791ZM161.666 99.6175L163.141 101.217C163.717 100.685 164.248 100.106 164.729 99.4855L163.011 98.1535C162.603 98.6777 162.153 99.1676 161.665 99.6185L161.666 99.6175ZM164.1 96.4825L166.013 97.5125C166.385 96.8218 166.7 96.1017 166.954 95.3595L164.898 94.6595C164.681 95.2881 164.415 95.8981 164.1 96.4835V96.4825ZM161.052 78.6625L159.892 80.5005C160.454 80.8565 160.987 81.2578 161.485 81.7005L162.928 80.0765C162.342 79.5551 161.714 79.0826 161.052 78.6635V78.6625ZM145.725 102.742C146.384 103.168 147.078 103.538 147.799 103.848L148.659 101.848C148.048 101.585 147.461 101.271 146.902 100.911L145.725 102.742ZM167.715 90.4565L165.541 90.4905V90.7405C165.541 91.4058 165.487 92.07 165.379 92.7265L167.524 93.0805C167.651 92.3043 167.715 91.519 167.715 90.7325V90.4565ZM150.029 104.6C150.79 104.786 151.566 104.91 152.348 104.971L152.514 102.803C151.85 102.752 151.193 102.647 150.547 102.488L150.029 104.6ZM158.351 101.799L159.231 103.787C159.948 103.469 160.637 103.092 161.292 102.66L160.092 100.846C159.539 101.213 158.956 101.533 158.351 101.803V101.799ZM152.059 76.5355L152.269 78.6995C152.931 78.6363 153.597 78.6283 154.26 78.6755L154.407 76.5065C153.624 76.4522 152.839 76.4633 152.059 76.5395V76.5355ZM156.729 76.8475L156.229 78.9635C156.876 79.1163 157.509 79.3223 158.123 79.5795L158.964 77.5795C158.24 77.2753 157.492 77.0315 156.729 76.8505V76.8475Z" fill="#F2EDE6"/>
<path fill-rule="evenodd" clip-rule="evenodd" d="M152.355 95.7649L152.347 84.2136H154.772L154.764 95.7649L152.322 95.7649H152.355Z" fill="#FDF7F0"/>
<path fill-rule="evenodd" clip-rule="evenodd" d="M153.568 94.6551L156.956 91.2666L158.677 92.987L154.419 97.2445C154.307 97.358 154.172 97.4481 154.025 97.5095C153.877 97.5709 153.718 97.6025 153.558 97.6023C153.398 97.6022 153.24 97.5704 153.092 97.5087C152.945 97.4471 152.811 97.3568 152.698 97.2431L148.441 92.9863L150.162 91.2659L153.55 94.6544L153.568 94.6551Z" fill="#FDF7F0"/>
<path d="M41.8364 101.095C47.5536 101.095 52.1884 96.46 52.1884 90.7427C52.1884 85.0255 47.5536 80.3907 41.8364 80.3907C36.1191 80.3907 31.4844 85.0255 31.4844 90.7427C31.4844 96.46 36.1191 101.095 41.8364 101.095Z" fill="#508B82"/>
<path d="M42.1335 72.213C38.469 72.213 34.8868 73.2997 31.8399 75.3355C28.793 77.3714 26.4182 80.2651 25.0158 83.6507C23.6135 87.0362 23.2466 90.7616 23.9615 94.3557C24.6764 97.9497 26.441 101.251 29.0322 103.842C31.6234 106.433 34.9248 108.198 38.5188 108.913C42.1129 109.628 45.8383 109.261 49.2238 107.859C52.6094 106.456 55.5031 104.082 57.5389 101.035C59.5748 97.9877 60.6615 94.4055 60.6615 90.741C60.6559 85.8288 58.7021 81.1193 55.2286 77.6459C51.7551 74.1724 47.0457 72.2186 42.1335 72.213ZM42.1335 107.096C38.899 107.096 35.7371 106.137 33.0477 104.34C30.3583 102.543 28.2621 99.9887 27.0244 97.0004C25.7866 94.0121 25.4627 90.7239 26.0937 87.5515C26.7247 84.3791 28.2823 81.4651 30.5695 79.178C32.8566 76.8908 35.7706 75.3333 38.943 74.7022C42.1153 74.0712 45.4036 74.3951 48.3919 75.6329C51.3802 76.8707 53.9343 78.9668 55.7313 81.6562C57.5283 84.3456 58.4875 87.5075 58.4875 90.742C58.4824 95.0778 56.7578 99.2346 53.6919 102.3C50.6261 105.366 46.4693 107.091 42.1335 107.096Z" fill="#B2D0CB"/>
<path d="M30.3474 86.9416L28.2844 86.2596C28.0381 87.0047 27.8541 87.769 27.7344 88.5446L29.8824 88.8756C29.9838 88.2192 30.1393 87.5723 30.3474 86.9416ZM29.7404 90.8646L27.5664 90.8856C27.5743 91.6694 27.6458 92.4514 27.7804 93.2236L29.9214 92.8486C29.8071 92.1933 29.7466 91.5298 29.7404 90.8646ZM32.1994 83.4276L30.4674 82.1126C29.9934 82.7381 29.5713 83.4013 29.2054 84.0956L31.1284 85.1076C31.4384 84.519 31.7966 83.9571 32.1994 83.4276ZM30.4274 94.7756L28.3784 95.5006C28.64 96.2395 28.9621 96.9556 29.3414 97.6416L31.2414 96.5896C30.921 96.0082 30.6488 95.4015 30.4274 94.7756ZM35.0864 80.7016L33.8724 78.9016C33.222 79.34 32.6086 79.831 32.0384 80.3696L33.5314 81.9486C34.0146 81.4909 34.5347 81.0738 35.0864 80.7016ZM52.3684 84.7866L54.2594 83.7156C53.8724 83.0338 53.4299 82.3849 52.9364 81.7756L51.2474 83.1426C51.6651 83.6594 52.0397 84.2096 52.3674 84.7876L52.3684 84.7866ZM32.3484 98.2456L30.6484 99.5956C31.1339 100.21 31.669 100.784 32.2484 101.311L33.7084 99.7016C33.2163 99.254 32.7615 98.7671 32.3484 98.2456ZM53.7274 88.5146L55.8644 88.1146C55.7204 87.3432 55.5131 86.5849 55.2444 85.8476L53.2024 86.5936C53.4303 87.2183 53.6059 87.8608 53.7274 88.5146ZM38.6954 79.0556L38.1324 76.9556C37.3746 77.1592 36.6347 77.4248 35.9204 77.7496L36.8204 79.7286C37.4259 79.4532 38.053 79.2281 38.6954 79.0556ZM42.8954 102.792L43.0824 104.957C43.8643 104.889 44.6393 104.758 45.3994 104.563L44.8574 102.458C44.2133 102.623 43.5578 102.734 42.8954 102.792ZM50.0524 99.6176L51.5274 101.218C52.1036 100.685 52.6347 100.106 53.1154 99.4856L51.3974 98.1536C50.9894 98.6778 50.5392 99.1677 50.0514 99.6186L50.0524 99.6176ZM52.4864 96.4826L54.3994 97.5126C54.7716 96.822 55.0863 96.1018 55.3404 95.3596L53.2844 94.6596C53.0682 95.2882 52.8013 95.8982 52.4864 96.4836V96.4826ZM49.4384 78.6626L48.2784 80.5006C48.8412 80.8566 49.3739 81.2579 49.8714 81.7006L51.3144 80.0766C50.7286 79.5553 50.1012 79.0827 49.4384 78.6636V78.6626ZM34.1114 102.743C34.7709 103.168 35.4646 103.538 36.1854 103.849L37.0454 101.849C36.4351 101.585 35.8474 101.272 35.2884 100.912L34.1114 102.743ZM56.1014 90.4566L53.9274 90.4906V90.7406C53.9275 91.4059 53.8733 92.0701 53.7654 92.7266L55.9104 93.0806C56.0376 92.3044 56.1014 91.5192 56.1014 90.7326V90.4566ZM38.4154 104.6C39.177 104.786 39.9526 104.91 40.7344 104.971L40.9004 102.803C40.2372 102.752 39.5793 102.647 38.9334 102.489L38.4154 104.6ZM46.7374 101.8L47.6174 103.788C48.3343 103.469 49.0237 103.092 49.6784 102.661L48.4784 100.847C47.9255 101.213 47.3432 101.533 46.7374 101.804V101.8ZM40.4454 76.5356L40.6554 78.6996C41.3173 78.6365 41.9832 78.6284 42.6464 78.6756L42.7934 76.5066C42.0112 76.4523 41.2258 76.4634 40.4454 76.5396V76.5356ZM45.1154 76.8476L44.6154 78.9636C45.2626 79.1164 45.8961 79.3224 46.5094 79.5796L47.3504 77.5796C46.6268 77.2755 45.8792 77.0316 45.1154 76.8506V76.8476Z" fill="#F2EDE6"/>
<path fill-rule="evenodd" clip-rule="evenodd" d="M40.7422 95.765L40.7337 84.2137H43.1591L43.1506 95.765L40.7082 95.765H40.7422Z" fill="#FDF7F0"/>
<path fill-rule="evenodd" clip-rule="evenodd" d="M41.9547 94.6552L45.3431 91.2668L47.0635 92.9871L42.806 97.2446C42.6933 97.3582 42.5591 97.4482 42.4114 97.5096C42.2636 97.571 42.1052 97.6026 41.9452 97.6025C41.7852 97.6023 41.6268 97.5705 41.4791 97.5089C41.3315 97.4472 41.1975 97.3569 41.0849 97.2432L36.8281 92.9864L38.5485 91.266L41.937 94.6545L41.9547 94.6552Z" fill="#FDF7F0"/>
</svg>
