<svg width="38" height="34" viewBox="0 0 38 34" fill="none" xmlns="http://www.w3.org/2000/svg">
<path d="M25.9604 0C26.8371 4.1452e-05 27.6984 0.230577 28.4578 0.668489C29.2173 1.1064 29.8482 1.73629 30.2874 2.495L37.2344 14.495C37.6751 15.2563 37.9072 16.1204 37.9072 17C37.9072 17.8796 37.6751 18.7437 37.2344 19.505L30.2874 31.505C29.8482 32.2637 29.2173 32.8936 28.4578 33.3315C27.6984 33.7694 26.8371 34 25.9604 34H12.0414C11.1651 33.9996 10.3043 33.7689 9.54521 33.331C8.78614 32.8931 8.15548 32.2634 7.71644 31.505L0.769443 19.505C0.328743 18.7437 0.0966797 17.8796 0.0966797 17C0.0966797 16.1204 0.328743 15.2563 0.769443 14.495L7.71644 2.495C8.15548 1.73659 8.78614 1.10688 9.54521 0.668988C10.3043 0.231094 11.1651 0.000392016 12.0414 0L25.9604 0Z" fill="#2D6759"/>
<path d="M25.2919 24H11.6993C11.2493 23.9995 10.8178 23.819 10.4993 23.4981C10.1808 23.1772 10.0013 22.7421 10 22.288V10.8259C10.0001 10.3757 10.1757 9.94359 10.4888 9.62289C10.802 9.30219 11.2275 9.11862 11.6736 9.11182L21.6054 9H21.6365C22.3104 9.00036 22.9567 9.27049 23.4335 9.7511C23.9103 10.2317 24.1787 10.8836 24.1797 11.5636L24.2054 11.6066V11.7184H25.3014C25.7516 11.719 26.1832 11.8996 26.5016 12.2208C26.8201 12.542 26.9993 12.9775 27 13.4318V20.368L26.9912 19.6309V22.29C26.9894 22.7438 26.8097 23.1784 26.4912 23.4988C26.1728 23.8193 25.7416 23.9995 25.2919 24ZM23.5399 16.2955C23.0866 16.2955 22.6519 16.4772 22.3313 16.8006C22.0108 17.124 21.8307 17.5627 21.8307 18.0201C21.8307 18.4775 22.0108 18.9162 22.3313 19.2396C22.6519 19.5631 23.0866 19.7448 23.5399 19.7448H24.3919C24.5429 19.7446 24.6877 19.684 24.7945 19.5762C24.9012 19.4685 24.9613 19.3224 24.9615 19.17V16.8695C24.9611 16.7173 24.901 16.5714 24.7942 16.4638C24.6875 16.3562 24.5428 16.2956 24.3919 16.2955H23.5399ZM12.2 10.7155C12.067 10.7155 11.9395 10.7688 11.8455 10.8636C11.7515 10.9585 11.6986 11.0872 11.6986 11.2214V11.7273H22.3182C22.3179 11.4592 22.2122 11.2021 22.0244 11.0124C21.8366 10.8228 21.5819 10.716 21.3162 10.7155H12.2Z" fill="#FDF7F0"/>
</svg>
