<svg xmlns="http://www.w3.org/2000/svg" xmlns:xlink="http://www.w3.org/1999/xlink" width="48" height="48" viewBox="0 0 48 48">
  <defs>
    <radialGradient id="radial-gradient" cx="0.5" cy="0.5" r="0.769" gradientUnits="objectBoundingBox">
      <stop offset="0" stop-color="#00836a"/>
      <stop offset="1" stop-color="#073e39"/>
    </radialGradient>
  </defs>
  <g id="wallet" transform="translate(-40 -167)">
    <g id="Group_44233" data-name="Group 44233" transform="translate(-8 57)">
      <circle id="Ellipse_2013" data-name="Ellipse 2013" cx="24" cy="24" r="24" transform="translate(48 110)" fill="url(#radial-gradient)"/>
    </g>
    <g id="wallet-2" data-name="wallet" transform="translate(55 183)" opacity="0.9">
      <path id="Shape" d="M16.019,16.352H2.39A2.39,2.39,0,0,1,0,13.987V3.506A3.506,3.506,0,0,1,3.505,0h8.837a3.506,3.506,0,0,1,3.505,3.506,1.886,1.886,0,0,1,1.761,1.753v9.515a1.589,1.589,0,0,1-1.59,1.578ZM12.68,8.079a1.738,1.738,0,0,0-.008,3.477v0h0a1.737,1.737,0,1,0,0-3.474ZM3.229,1.753A1.468,1.468,0,0,0,1.761,3.22v.286H14.087V3.22A1.467,1.467,0,0,0,12.62,1.753Z" transform="translate(0 0)" fill="#fff"/>
    </g>
  </g>
</svg>
