<svg xmlns="http://www.w3.org/2000/svg" xmlns:xlink="http://www.w3.org/1999/xlink" width="48" height="48" viewBox="0 0 48 48">
  <defs>
    <linearGradient id="linear-gradient" x1="0.5" x2="0.5" y2="1" gradientUnits="objectBoundingBox">
      <stop offset="0" stop-color="#00836a"/>
      <stop offset="1" stop-color="#073e39"/>
    </linearGradient>
  </defs>
  <g id="wallet" transform="translate(-30 -104)">
    <g id="Group_39735" data-name="Group 39735" transform="translate(-314 -147)">
      <circle id="Ellipse_2013" data-name="Ellipse 2013" cx="24" cy="24" r="24" transform="translate(344 251)" fill="url(#linear-gradient)"/>
    </g>
    <g id="wallet-2" data-name="wallet" transform="translate(44 119)">
      <path id="Shape" d="M17.842,18.212H2.662A2.662,2.662,0,0,1,0,15.578V3.9A3.9,3.9,0,0,1,3.9,0h9.843a3.9,3.9,0,0,1,3.9,3.9,2.1,2.1,0,0,1,1.961,1.953v10.6a1.77,1.77,0,0,1-1.77,1.757ZM14.122,9a1.936,1.936,0,0,0-.009,3.872v0h.005a1.934,1.934,0,1,0,0-3.869ZM3.6,1.953A1.635,1.635,0,0,0,1.961,3.586V3.9H15.69V3.586a1.633,1.633,0,0,0-1.634-1.633Z" transform="translate(0 0)" fill="#fcf7f1"/>
    </g>
  </g>
</svg>
