<svg xmlns="http://www.w3.org/2000/svg" width="173.296" height="137.496" viewBox="0 0 173.296 137.496">
  <g id="illustration" transform="translate(-61.704 -486)">
    <g id="Group_39521" data-name="Group 39521" transform="translate(-19149.816 12397.678)" opacity="0.272">
      <circle id="Ellipse_1999" data-name="Ellipse 1999" cx="26.997" cy="26.997" r="26.997" transform="translate(19218.561 -11837.161)" fill="#2F4F4F"/>
      <path id="Path_25533" data-name="Path 25533" d="M2.313,4.625A2.313,2.313,0,1,0,0,2.313,2.313,2.313,0,0,0,2.313,4.625Z" transform="translate(19254.068 -11780.688) rotate(39)" fill="#888"/>
      <path id="Path_25534" data-name="Path 25534" d="M1.579,3.159A1.579,1.579,0,1,0,0,1.579,1.58,1.58,0,0,0,1.579,3.159Z" transform="translate(19262.025 -11783.97) rotate(39)" fill="#888"/>
      <path id="Path_25535" data-name="Path 25535" d="M15.217,6.125a2.933,2.933,0,1,0-2.933-2.933A2.933,2.933,0,0,0,15.217,6.125Z" transform="translate(19199.236 -11823.791)" fill="#888"/>
    </g>
    <g id="Ellipse_2467" data-name="Ellipse 2467" transform="translate(106 488)" fill="#f6f2ed" stroke="#0e2b27" stroke-width="3">
      <circle cx="64.5" cy="64.5" r="64.5" stroke="none"/>
      <circle cx="64.5" cy="64.5" r="63" fill="none"/>
    </g>
    <path id="Path_25556" data-name="Path 25556" d="M147.785,193.761l-.508-4.067c1.271-.127,2.669-.381,3.94-.635l.762,4.067C150.58,193.379,149.182,193.507,147.785,193.761Zm8.387-1.652-1.017-3.939,3.812-1.144,1.4,3.939Q158.078,191.537,156.172,192.109Zm8.006-2.8-1.652-3.812c1.271-.508,2.415-1.144,3.558-1.652l1.906,3.685A34.951,34.951,0,0,1,164.178,189.313ZM171.8,185.5l-2.16-3.558a29.569,29.569,0,0,0,3.3-2.16l2.414,3.3C174.217,183.975,172.946,184.738,171.8,185.5Zm6.862-4.956L176,177.367c1.017-.89,2.033-1.779,2.923-2.669l2.8,2.923A22.272,22.272,0,0,1,178.665,180.544Zm6.227-5.973-3.05-2.8c.89-1.017,1.779-2.033,2.542-3.05l3.3,2.542C186.8,172.411,185.781,173.555,184.892,174.571Zm5.21-6.735-3.431-2.287c.762-1.144,1.4-2.287,2.033-3.431l3.558,2.033A35.009,35.009,0,0,1,190.1,167.836Zm4.194-7.371-3.685-1.779A31.982,31.982,0,0,0,192.135,155l3.812,1.525A26,26,0,0,1,194.3,160.466Zm3.177-8.006-3.939-1.271c.381-1.271.763-2.542,1.017-3.812l4.066.89Zm1.906-8.26-4.067-.635c.254-1.271.381-2.669.508-3.94l4.067.381C199.76,141.276,199.506,142.8,199.379,144.2Zm.635-8.514h-4.066V135.3a33.3,33.3,0,0,0-.127-3.558l4.067-.254c.127,1.271.127,2.542.127,3.812ZM89.2,118.148l-3.939-1.271a26.465,26.465,0,0,1,1.525-4.067l3.812,1.525C90.091,115.606,89.582,116.877,89.2,118.148Zm3.05-7.371-3.685-1.906c.635-1.271,1.271-2.542,2.033-3.812l3.558,2.16A33.093,33.093,0,0,0,92.251,110.777Zm4.067-6.735-3.431-2.415c.762-1.144,1.652-2.287,2.542-3.431l3.177,2.542C97.843,101.881,96.953,102.9,96.318,104.042Zm4.956-6.227-3.05-2.8,3.05-3.05,2.8,3.05C103.053,95.908,102.163,96.925,101.274,97.815Zm5.846-5.337L104.578,89.3c1.144-.89,2.287-1.779,3.431-2.542L110.3,90.19A18.263,18.263,0,0,0,107.119,92.477ZM113.6,87.9l-2.033-3.558c1.271-.762,2.542-1.4,3.812-2.033L117.159,86C115.888,86.631,114.744,87.267,113.6,87.9Zm7.116-3.431-1.525-3.812a38.191,38.191,0,0,1,4.067-1.4l1.271,3.939A22.366,22.366,0,0,0,120.717,84.471Zm7.625-2.415-1.017-4.067c1.4-.381,2.8-.635,4.194-.89l.635,4.067C130.883,81.421,129.612,81.675,128.341,82.057Z" transform="translate(28.957 417.004)" fill="#002c27" stroke="#f6f2ed" stroke-width="0.7"/>
    <g id="Group_44960" data-name="Group 44960" transform="translate(3.513 -8.535)">
      <path id="Path_118661" data-name="Path 118661" d="M-6.8,0H40.57a2.2,2.2,0,0,1,2.2,2.2v73.8a2.2,2.2,0,0,1-2.2,2.2H-6.8a2.2,2.2,0,0,1-2.2-2.2V2.2A2.2,2.2,0,0,1-6.8,0Z" transform="translate(150.1 522.095)" fill="#ddbf9b"/>
      <g id="mobile" transform="translate(140.012 521.061)">
        <path id="Path_118655" data-name="Path 118655" d="M50.5,78.285a1.446,1.446,0,0,0,1.446-1.446V6.338A4.338,4.338,0,0,0,47.684,2H2.338A4.338,4.338,0,0,0-2,6.338V79.756a4.338,4.338,0,0,0,4.338,4.193H47.757a4.338,4.338,0,0,0,4.193-4.265V76.72A1.446,1.446,0,0,0,50.5,75.274l-1.446-.042v4.452a1.446,1.446,0,0,1-1.374,1.374H2.338A1.446,1.446,0,0,1,.892,79.684V6.338A1.446,1.446,0,0,1,2.338,4.892H47.757a1.446,1.446,0,0,1,1.3,1.446v70.5A1.446,1.446,0,0,0,50.5,78.285Z" transform="translate(2 -2)" fill="#162a27"/>
        <path id="Path_118656" data-name="Path 118656" d="M20.229,7.892a1.446,1.446,0,1,0,0-2.892H14.446a1.446,1.446,0,1,0,0,2.892Z" transform="translate(9.637 4.845)" fill="#162a27"/>
        <g id="Rectangle_8526" data-name="Rectangle 8526" transform="translate(4.393 4.34)" fill="none" stroke="#1b2927" stroke-width="2" stroke-dasharray="2 2">
          <rect width="45.164" height="73.254" stroke="none"/>
          <rect x="1" y="1" width="43.164" height="71.254" fill="none"/>
        </g>
      </g>
    </g>
    <g id="Group_44961" data-name="Group 44961" transform="translate(4 -4)">
      <circle id="Ellipse_2469" data-name="Ellipse 2469" cx="22" cy="22" r="22" transform="translate(179 490)" fill="#f5f2ed"/>
      <g id="Group_44955" data-name="Group 44955" transform="translate(0.652 -14)">
        <g id="Ellipse_2466" data-name="Ellipse 2466" transform="translate(180.348 506)" fill="#ed835e" stroke="#1b2927" stroke-width="2.5">
          <circle cx="20" cy="20" r="20" stroke="none"/>
          <circle cx="20" cy="20" r="18.75" fill="none"/>
        </g>
        <path id="Path_118653" data-name="Path 118653" d="M1.6-14.78,2.171.372h4.89L7.636-14.78ZM7.061,8.282V3.3H2.171V8.282Z" transform="translate(195.309 529.371)" fill="#f6f2ed"/>
      </g>
    </g>
  </g>
</svg>
