<svg width="5" height="18" viewBox="0 0 5 18" fill="none" xmlns="http://www.w3.org/2000/svg">
<path fill-rule="evenodd" clip-rule="evenodd" d="M2.00141 1.35791C2.37497 1.36889 2.72892 1.52763 2.98557 1.79929C3.24223 2.07094 3.38063 2.43333 3.37041 2.80691V9.87891C3.3817 10.0657 3.35465 10.2529 3.29094 10.4288C3.22722 10.6048 3.12818 10.7659 2.9999 10.9021C2.87162 11.0384 2.71682 11.147 2.54502 11.2212C2.37322 11.2954 2.18805 11.3337 2.00091 11.3337C1.81376 11.3337 1.62859 11.2954 1.45679 11.2212C1.28499 11.147 1.13019 11.0384 1.00192 10.9021C0.873638 10.7659 0.774594 10.6048 0.710876 10.4288C0.647158 10.2529 0.620114 10.0657 0.631406 9.87891V2.80691C0.621183 2.43316 0.759721 2.07063 1.01659 1.79894C1.27347 1.52726 1.62767 1.36863 2.00141 1.35791ZM2.00141 16.6419C2.29167 16.6585 2.58025 16.5876 2.82976 16.4384C3.07927 16.2891 3.27823 16.0684 3.40088 15.8048C3.52353 15.5412 3.56422 15.2469 3.51768 14.9599C3.47114 14.6729 3.33952 14.4065 3.13985 14.1951C2.94018 13.9838 2.68166 13.8372 2.39777 13.7745C2.11388 13.7118 1.81769 13.7357 1.54755 13.8432C1.27741 13.9507 1.04576 14.1368 0.882603 14.3774C0.719442 14.6181 0.632281 14.9022 0.632407 15.1929C0.62218 15.5665 0.760582 15.9289 1.01724 16.2005C1.2739 16.4722 1.62784 16.6309 2.00141 16.6419Z" fill="#F9F4F0" stroke="#F9F4F0"/>
</svg>
