<svg xmlns="http://www.w3.org/2000/svg" width="42.43" height="42.43" viewBox="0 0 42.43 42.43">
  <g id="watch_only" data-name="watch only" transform="translate(-48.455 -261.486)">
    <g id="Group_54506" data-name="Group 54506" transform="translate(7.486 7.486)">
      <g id="Ellipse_2007" data-name="Ellipse 2007" transform="translate(40.969 254)" fill="#f7f2ec" stroke="#002c27" stroke-width="1">
        <circle cx="21.215" cy="21.215" r="21.215" stroke="none"/>
        <circle cx="21.215" cy="21.215" r="20.715" fill="none"/>
      </g>
      <g id="Group_39720" data-name="Group 39720" transform="translate(42.662 255.806)">
        <g id="Group_39719" data-name="Group 39719" transform="translate(0 0)">
          <path id="Path_27264" data-name="Path 27264" d="M434.087,1170.751a19.6,19.6,0,0,1-5.832,13.981,19.347,19.347,0,0,1-13.75,5.639,19.62,19.62,0,1,1,19.582-19.62Z" transform="translate(-394.923 -1151.13)" fill="#2d6759"/>
        </g>
      </g>
      <g id="Ellipse_2008" data-name="Ellipse 2008" transform="translate(44.2 257.286)" fill="#f7f2ec" stroke="#002c27" stroke-width="1">
        <circle cx="18.055" cy="18.055" r="18.055" stroke="none"/>
        <circle cx="18.055" cy="18.055" r="17.555" fill="none"/>
      </g>
      <g id="Rectangle_7600" data-name="Rectangle 7600" transform="translate(46.853 290.724) rotate(-90)" fill="none" stroke="#002c27" stroke-width="1" stroke-dasharray="1 1.5">
        <rect width="30.88" height="30.88" rx="15.44" stroke="none"/>
        <rect x="0.5" y="0.5" width="29.88" height="29.88" rx="14.94" fill="none"/>
      </g>
    </g>
    <g id="watch_only-2" data-name="watch only" transform="translate(-120.576 -459.119)">
      <g id="Group_46776" data-name="Group 46776" transform="translate(183.389 736.703)">
        <path id="Path_119795" data-name="Path 119795" d="M114.243,111a3.242,3.242,0,1,0,3.242,3.242A3.245,3.245,0,0,0,114.243,111Z" transform="translate(-107.114 -108.953)" fill="#2d6759"/>
        <path id="Path_119797" data-name="Path 119797" d="M12.245,74.321a10.581,10.581,0,0,0,1.988-2.913.278.278,0,0,0,0-.235,10.582,10.582,0,0,0-1.988-2.913A7.072,7.072,0,0,0,7.133,66H7.127a7.072,7.072,0,0,0-5.112,2.26A10.581,10.581,0,0,0,.028,71.174a.278.278,0,0,0,0,.235,10.581,10.581,0,0,0,1.988,2.913,7.072,7.072,0,0,0,5.112,2.26h.006A7.072,7.072,0,0,0,12.245,74.321Zm-5.115,1.7C3.3,75.983,1.311,72.792.588,71.291,1.311,69.79,3.3,66.6,7.13,66.557c3.833.042,5.82,3.233,6.542,4.734C12.95,72.792,10.963,75.983,7.13,76.025Z" transform="translate(-0.001 -66)" fill="#2d6759" stroke="#2d6759" stroke-width="1"/>
      </g>
    </g>
  </g>
</svg>
