<svg xmlns="http://www.w3.org/2000/svg" width="25.159" height="22.48" viewBox="0 0 25.159 22.48">
  <g id="Group_46070" data-name="Group 46070" transform="translate(-197 -259.52)">
    <path id="Wallet" d="M22.467,7.3h-.491a4.94,4.94,0,0,0-4.73-4.239H4.881A2.99,2.99,0,0,0,2,6.129a2.894,2.894,0,0,0,.038.327A.624.624,0,0,0,2,6.62V20.835a4.711,4.711,0,0,0,4.692,4.7H22.467a4.711,4.711,0,0,0,4.692-4.7V11.991A4.7,4.7,0,0,0,22.467,7.3ZM4.881,4.947H17.246A2.994,2.994,0,0,1,20.039,7.3H4.881a1.092,1.092,0,0,1-.994-1.17A1.1,1.1,0,0,1,4.881,4.947Z" transform="translate(195 256.46)" fill="#2d6759"/>
    <g id="view" transform="translate(203.665 268.376)">
      <path id="Shape" d="M5.915,8.872A5.269,5.269,0,0,1,2.768,7.763,10.134,10.134,0,0,1,0,4.436,10.134,10.134,0,0,1,2.768,1.109,5.269,5.269,0,0,1,5.915,0,5.269,5.269,0,0,1,9.062,1.109,10.133,10.133,0,0,1,11.83,4.436,10.134,10.134,0,0,1,9.062,7.763,5.269,5.269,0,0,1,5.915,8.872Zm0-6.253a1.817,1.817,0,1,0,.7.138A1.82,1.82,0,0,0,5.915,2.619Z" transform="translate(0 0)" fill="#fdf7f0"/>
    </g>
  </g>
</svg>
