<svg xmlns="http://www.w3.org/2000/svg" xmlns:xlink="http://www.w3.org/1999/xlink" width="30" height="30" viewBox="0 0 30 30">
  <defs>
    <linearGradient id="linear-gradient" x1="0.5" x2="0.5" y2="1" gradientUnits="objectBoundingBox">
      <stop offset="0" stop-color="#00836a"/>
      <stop offset="1" stop-color="#073e39"/>
    </linearGradient>
    <clipPath id="clip-path">
      <rect id="Rectangle_8356" data-name="Rectangle 8356" width="16.645" height="15.91" fill="url(#linear-gradient)"/>
    </clipPath>
  </defs>
  <g id="WP_Account" data-name="WP Account" transform="translate(-58 -209)">
    <circle id="Ellipse_1947" data-name="Ellipse 1947" cx="15" cy="15" r="15" transform="translate(58 209)" fill="#fff" opacity="0.704"/>
    <g id="Group_44270" data-name="Group 44270" transform="translate(64.677 216.045)">
      <g id="Group_44269" data-name="Group 44269" transform="translate(0 0)" clip-path="url(#clip-path)">
        <path id="Path_117618" data-name="Path 117618" d="M0,13.7c1.641.2,3.109.745,4.75,0a2.491,2.491,0,0,0-.364-.515C.942,10.472.914,5.02,5.127,2.039,8.082-.052,11.306-.713,14.722.9a7.9,7.9,0,0,1,1.923,1.5c-1.548-.287-3.038-.937-4.687-.159a1.779,1.779,0,0,0,.3.506c3.36,2.62,3.464,7.734-.286,10.869-2.74,2.291-7,2.991-9.881,1.5A20,20,0,0,1,0,13.7M8.288,5.284a2.707,2.707,0,0,0,.1,5.413,2.758,2.758,0,0,0,2.643-2.7,2.721,2.721,0,0,0-2.743-2.71" transform="translate(0 0)" fill="url(#linear-gradient)"/>
      </g>
    </g>
  </g>
</svg>
