<svg xmlns="http://www.w3.org/2000/svg" xmlns:xlink="http://www.w3.org/1999/xlink" width="18.832" height="18" viewBox="0 0 18.832 18">
  <defs>
    <clipPath id="clip-path">
      <rect id="Rectangle_8356" data-name="Rectangle 8356" width="18.832" height="18" fill="#f6f2ed"/>
    </clipPath>
  </defs>
  <g id="WP" transform="translate(0 0)">
    <g id="Group_44269" data-name="Group 44269" transform="translate(0 0)" clip-path="url(#clip-path)">
      <path id="Path_117618" data-name="Path 117618" d="M0,15.5c1.857.23,3.518.843,5.374.005a2.818,2.818,0,0,0-.412-.583c-3.9-3.075-3.927-9.244.839-12.616C9.144-.059,12.791-.807,16.656,1.022a8.935,8.935,0,0,1,2.176,1.7c-1.751-.325-3.437-1.061-5.3-.18a2.013,2.013,0,0,0,.341.572c3.8,2.964,3.919,8.75-.324,12.3C10.447,18,5.628,18.8,2.367,17.114A22.625,22.625,0,0,1,0,15.5M9.377,5.978A3.063,3.063,0,0,0,9.489,12.1,3.121,3.121,0,0,0,12.48,9.044a3.078,3.078,0,0,0-3.1-3.066" transform="translate(0 0)" fill="#f6f2ed"/>
    </g>
  </g>
</svg>
