<svg xmlns="http://www.w3.org/2000/svg" xmlns:xlink="http://www.w3.org/1999/xlink" width="41.174" height="39.355" viewBox="0 0 41.174 39.355">
  <defs>
    <clipPath id="clip-path">
      <rect id="Rectangle_8356" data-name="Rectangle 8356" width="41.174" height="39.355" fill="#f6f2ed"/>
    </clipPath>
  </defs>
  <g id="WP" transform="translate(0 0)">
    <g id="Group_44269" data-name="Group 44269" transform="translate(0 0)" clip-path="url(#clip-path)">
      <path id="Path_117618" data-name="Path 117618" d="M0,33.89c4.06.5,7.691,1.843,11.749.011a6.161,6.161,0,0,0-.9-1.274C2.33,25.9,2.262,12.417,12.681,5.044,19.993-.13,27.967-1.765,36.416,2.233a19.536,19.536,0,0,1,4.758,3.72c-3.828-.71-7.515-2.319-11.594-.394a4.4,4.4,0,0,0,.746,1.251c8.311,6.481,8.569,19.13-.708,26.887-6.777,5.667-17.314,7.4-24.443,3.72A49.469,49.469,0,0,1,0,33.89M20.5,13.069a6.7,6.7,0,0,0,.246,13.389,6.823,6.823,0,0,0,6.539-6.685,6.731,6.731,0,0,0-6.785-6.7" transform="translate(0 0)" fill="#f6f2ed"/>
    </g>
  </g>
</svg>
