<svg xmlns="http://www.w3.org/2000/svg" xmlns:xlink="http://www.w3.org/1999/xlink" width="98.678" height="98.669" viewBox="0 0 98.678 98.669">
  <defs>
    <linearGradient id="linear-gradient" x1="0.5" x2="0.5" y2="1" gradientUnits="objectBoundingBox">
      <stop offset="0" stop-color="#00836a"/>
      <stop offset="1" stop-color="#073e39"/>
    </linearGradient>
  </defs>
  <g id="_3" data-name="3" transform="translate(-138.384 -498.95)">
    <g id="Group_42470" data-name="Group 42470" transform="translate(138.384 498.95)">
      <g id="Group_42466" data-name="Group 42466" transform="translate(0 0)">
        <g id="Group_42465" data-name="Group 42465">
          <g id="Group_42464" data-name="Group 42464">
            <path id="Path_28701" data-name="Path 28701" d="M243.172,53.864s-4.232-1.677-8.722-3.432c1.932-4.411,3.737-8.592,3.737-8.592a1.357,1.357,0,0,0-.285-1.5L221.243,23.686a1.354,1.354,0,0,0-1.5-.285s-4.174,1.8-8.584,3.736c-1.755-4.484-3.431-8.714-3.431-8.714a1.355,1.355,0,0,0-1.26-.856H182.907a1.355,1.355,0,0,0-1.26.856s-1.677,4.231-3.431,8.714c-4.41-1.932-8.584-3.736-8.584-3.736a1.354,1.354,0,0,0-1.5.286L151.47,40.344a1.355,1.355,0,0,0-.286,1.5s1.81,4.18,3.743,8.591c-4.491,1.755-8.722,3.432-8.722,3.432a1.355,1.355,0,0,0-.856,1.26V78.679a1.355,1.355,0,0,0,.856,1.26s4.232,1.677,8.722,3.432c-1.933,4.41-3.743,8.59-3.743,8.59a1.356,1.356,0,0,0,.285,1.5l16.666,16.657a1.358,1.358,0,0,0,1.5.286s4.174-1.8,8.584-3.736c1.754,4.484,3.431,8.714,3.431,8.714a1.355,1.355,0,0,0,1.26.856h23.564a1.355,1.355,0,0,0,1.26-.856s1.677-4.231,3.431-8.714c4.41,1.932,8.584,3.736,8.584,3.736a1.36,1.36,0,0,0,1.5-.286L237.9,93.459a1.356,1.356,0,0,0,.285-1.5s-1.8-4.181-3.737-8.592c4.491-1.755,8.722-3.432,8.722-3.432a1.355,1.355,0,0,0,.856-1.26V55.124A1.356,1.356,0,0,0,243.172,53.864Zm-1.856,23.895c-1.654.654-5.455,2.154-9.169,3.6a1.356,1.356,0,0,0-.749,1.808c1.6,3.644,3.226,7.395,3.932,9.027l-15.355,15.354c-1.631-.707-5.375-2.331-9.018-3.931a1.355,1.355,0,0,0-1.808.749c-1.447,3.707-2.948,7.507-3.6,9.161H183.828c-.654-1.654-2.154-5.453-3.6-9.161a1.355,1.355,0,0,0-1.808-.749c-3.643,1.6-7.387,3.225-9.018,3.931L154.038,92.195c.709-1.633,2.339-5.383,3.94-9.027a1.356,1.356,0,0,0-.749-1.808c-3.714-1.447-7.514-2.948-9.169-3.6V56.046c1.654-.654,5.455-2.154,9.168-3.6a1.356,1.356,0,0,0,.75-1.808c-1.6-3.644-3.231-7.393-3.94-9.026L169.4,26.256c1.631.707,5.375,2.331,9.018,3.931a1.355,1.355,0,0,0,1.808-.749c1.447-3.707,2.948-7.507,3.6-9.161h21.721c.654,1.654,2.154,5.453,3.6,9.161a1.355,1.355,0,0,0,1.808.749c3.643-1.6,7.387-3.225,9.018-3.932L235.331,41.61c-.706,1.632-2.331,5.382-3.932,9.027a1.356,1.356,0,0,0,.75,1.808c3.714,1.447,7.514,2.948,9.168,3.6Z" transform="translate(-145.35 -17.567)" fill="#002c27"/>
          </g>
        </g>
      </g>
    </g>
    <g id="Group_42472" data-name="Group 42472" transform="translate(143.997 504.563)">
      <g id="Group_42471" data-name="Group 42471">
        <path id="Path_28703" data-name="Path 28703" d="M245.215,82.585V64.821c-1.928-.76-4.646-1.829-7.32-2.871l-4.139-1.613,1.787-4.067c1.153-2.624,2.318-5.3,3.142-7.2l-3.4-3.409-9.16-9.153c-1.9.825-4.573,1.989-7.2,3.141l-4.065,1.786L213.248,37.3c-1.042-2.669-2.112-5.386-2.872-7.314H192.6c-.761,1.928-1.83,4.644-2.872,7.314l-1.614,4.136-4.065-1.786c-2.622-1.152-5.3-2.316-7.194-3.141l-12.57,12.562c.827,1.9,2,4.58,3.147,7.2l1.787,4.067-4.139,1.613c-2.674,1.042-5.392,2.111-7.32,2.871V82.585c1.928.76,4.646,1.83,7.32,2.871l4.139,1.612-1.787,4.068c-1.153,2.623-2.321,5.3-3.148,7.2l12.57,12.561c1.9-.825,4.573-1.989,7.194-3.141l4.065-1.786,1.614,4.136c1.042,2.669,2.111,5.386,2.872,7.313h17.773c.761-1.928,1.83-4.644,2.872-7.314l1.615-4.136,4.065,1.786c2.622,1.152,5.3,2.316,7.194,3.141l9.157-9.149,3.407-3.413c-.824-1.9-1.99-4.58-3.142-7.2l-1.787-4.068,4.139-1.612C240.57,84.415,243.288,83.345,245.215,82.585Z" transform="translate(-157.764 -29.982)" fill="url(#linear-gradient)"/>
      </g>
    </g>
  </g>
</svg>
