<svg width="7" height="12" viewBox="0 0 7 12" fill="none" xmlns="http://www.w3.org/2000/svg">
<path d="M1.31767 0.725193L6.27858 5.62789C6.32828 5.67658 6.36776 5.7347 6.39471 5.79884C6.42166 5.86298 6.43555 5.93186 6.43555 6.00144C6.43555 6.07101 6.42166 6.13989 6.39471 6.20403C6.36776 6.26817 6.32828 6.32629 6.27858 6.37498L1.31767 11.2777C1.17176 11.4202 0.975875 11.5 0.771902 11.5C0.567928 11.5 0.372047 11.4202 0.226133 11.2777C0.154467 11.207 0.0975589 11.1228 0.0587167 11.0299C0.0198745 10.9371 -0.000126897 10.8374 -0.000126905 10.7368C-0.000126914 10.6361 0.0198745 10.5365 0.0587167 10.4436C0.0975589 10.3507 0.154467 10.2665 0.226133 10.1958L4.46712 6.00144L0.226132 1.80703C0.154437 1.73627 0.097509 1.65197 0.0586539 1.55903C0.0197993 1.46609 -0.00020831 1.36636 -0.000208319 1.26562C-0.000208328 1.16489 0.0197993 1.06516 0.0586539 0.972219C0.0975089 0.87928 0.154437 0.794984 0.226132 0.724224C0.372221 0.580529 0.568927 0.500001 0.773841 0.5C0.978755 0.5 1.17546 0.580529 1.32155 0.724224" fill="#F6F2ED"/>
</svg>
