<svg width="8" height="8" viewBox="0 0 8 8" fill="none" xmlns="http://www.w3.org/2000/svg">
<path d="M7.78675 1.21298C7.85342 1.14844 7.90661 1.07123 7.94322 0.985853C7.97983 0.900473 7.99912 0.808635 7.99997 0.715696C8.00082 0.622758 7.98321 0.53058 7.94816 0.444542C7.91312 0.358504 7.86135 0.280329 7.79586 0.214577C7.73038 0.148826 7.6525 0.0968159 7.56676 0.0615811C7.48103 0.0263463 7.38916 0.00859291 7.29651 0.00935641C7.20386 0.0101199 7.11229 0.0293851 7.02714 0.0660282C6.942 0.102671 6.86498 0.155958 6.80058 0.22278L4.00395 3.02726L1.20825 0.22278C1.14437 0.15401 1.06734 0.0988515 0.981748 0.0605949C0.896156 0.0223383 0.80376 0.00176715 0.710071 0.000108931C0.616382 -0.00154929 0.52332 0.0157394 0.436437 0.0509434C0.349553 0.0861473 0.270628 0.138545 0.20437 0.205012C0.138112 0.271478 0.0858776 0.350651 0.0507839 0.437807C0.0156902 0.524964 -0.00154444 0.618318 0.00010859 0.712302C0.00176162 0.806285 0.0222684 0.89897 0.0604052 0.984831C0.098542 1.07069 0.153528 1.14797 0.222082 1.21205L3.01592 4.01746L0.220222 6.82194C0.0969689 6.95463 0.029869 7.13013 0.0330584 7.31146C0.0362478 7.4928 0.109478 7.66581 0.23732 7.79405C0.365162 7.9223 0.537634 7.99576 0.718402 7.99896C0.89917 8.00216 1.07412 7.93485 1.20639 7.81121L4.00395 5.00673L6.79965 7.81214C6.93192 7.93578 7.10687 8.00309 7.28764 7.99989C7.46841 7.99669 7.64088 7.92323 7.76872 7.79499C7.89656 7.66675 7.96979 7.49373 7.97298 7.31239C7.97617 7.13106 7.90907 6.95556 7.78582 6.82287L4.99198 4.01746L7.78675 1.21298Z" fill="white"/>
</svg>
