<svg xmlns="http://www.w3.org/2000/svg" width="50.297" height="50.297" viewBox="0 0 50.297 50.297">
  <g id="backup" transform="translate(-43.518 -183.852)">
    <g id="Group_42891" data-name="Group 42891">
      <circle id="Ellipse_1947" data-name="Ellipse 1947" cx="20" cy="20" r="20" transform="translate(50 185)" fill="#00836a"/>
    </g>
    <g id="Group_42892" data-name="Group 42892">
      <path id="Repeat" d="M21.726,20.666a1.128,1.128,0,0,1,0-2.255,3.533,3.533,0,0,0,0-7.067H16.253l.872.872a1.108,1.108,0,0,1,0,1.594,1.067,1.067,0,0,1-.8.331,1.115,1.115,0,0,1-.8-.331l-2.8-2.8a1.134,1.134,0,0,1,0-1.594l2.8-2.8a1.127,1.127,0,0,1,1.594,1.594l-.872.872h5.473a5.789,5.789,0,0,1,0,11.577Z" transform="translate(55.108 189.126)" fill="#fbfbfb"/>
      <path id="Repeat-2" data-name="Repeat" d="M4.27,14.878a5.8,5.8,0,0,1,5.789-5.789,1.128,1.128,0,0,1,0,2.255,3.533,3.533,0,0,0,0,7.067H15.5l-.872-.872a1.127,1.127,0,0,1,1.594-1.594l2.8,2.8a1.134,1.134,0,0,1,0,1.594l-2.8,2.8a1.125,1.125,0,0,1-1.594,0,1.134,1.134,0,0,1,0-1.594l.872-.872H10.059A5.8,5.8,0,0,1,4.27,14.878Z" transform="translate(54.108 190.126)" fill="#fbfbfb"/>
    </g>
  </g>
</svg>
