<svg xmlns="http://www.w3.org/2000/svg" xmlns:xlink="http://www.w3.org/1999/xlink" width="39.176" height="36" viewBox="0 0 39.176 36">
  <defs>
    <linearGradient id="linear-gradient" x1="0.157" y1="0.247" x2="0.87" y2="0.724" gradientUnits="objectBoundingBox">
      <stop offset="0" stop-color="#00836a"/>
      <stop offset="1" stop-color="#073e39"/>
    </linearGradient>
    <clipPath id="clip-path">
      <rect id="Rectangle_7277" data-name="Rectangle 7277" width="15.417" height="15.279" fill="none"/>
    </clipPath>
  </defs>
  <g id="blockchain" transform="translate(-44 -680)">
    <path id="hexagontile3" d="M21.819,0a5,5,0,0,1,4.327,2.495l5.339,9.222a5,5,0,0,1,0,5.01L26.146,25.95a5,5,0,0,1-4.327,2.495h-10.7A5,5,0,0,1,6.79,25.95L1.45,16.728a5,5,0,0,1,0-5.01L6.79,2.495A5,5,0,0,1,11.117,0Z" transform="matrix(0.966, 0.259, -0.259, 0.966, 51.362, 680)" fill="url(#linear-gradient)"/>
    <g id="Group_38062" data-name="Group 38062" transform="translate(55.879 690.36)">
      <g id="Group_38061" data-name="Group 38061" clip-path="url(#clip-path)">
        <path id="Path_16090" data-name="Path 16090" d="M23.476,4.218c1.27-1.293,2.483-2.6,3.776-3.816a1.9,1.9,0,0,1,2.531.19c1.108,1.073,2.181,2.182,3.281,3.263.277.273.213.4-.105.556-1.439.7-2.872,1.417-4.3,2.132a.509.509,0,0,1-.507.012C26.593,5.771,25.035,5,23.476,4.218" transform="translate(-20.65 0)" fill="#fffcfa"/>
        <path id="Path_16091" data-name="Path 16091" d="M6.742,56.852a.719.719,0,0,1-.513-.312C4.42,54.729,2.623,52.906.805,51.1c-1.17-1.16-1.073-2.462.348-3.63.186-.153.319-.085.485,0q2.41,1.208,4.824,2.409a.41.41,0,0,1,.284.4c-.006,2.176,0,4.353,0,6.569" transform="translate(0 -41.678)" fill="#fffcfa"/>
        <path id="Path_16092" data-name="Path 16092" d="M71.831,56.965v-3.58c0-.962.011-1.924-.006-2.886a.646.646,0,0,1,.4-.7q2.323-1.126,4.618-2.31a.561.561,0,0,1,.772.15,2.52,2.52,0,0,1,.98,1.785,1.863,1.863,0,0,1-.514,1.37q-2.953,3-5.93,5.973a2.38,2.38,0,0,1-.32.2" transform="translate(-63.177 -41.685)" fill="#fffcfa"/>
      </g>
    </g>
  </g>
</svg>
