<svg xmlns="http://www.w3.org/2000/svg" width="5.25" height="7" viewBox="0 0 5.25 7">
  <path id="btc" d="M2.625,6.563V6.125H1.75v.437a.437.437,0,1,1-.875,0V6.125H.437a.438.438,0,0,1,0-.875V1.75a.437.437,0,0,1,0-.875H.875V.437a.437.437,0,1,1,.875,0V.875h.875V.437a.437.437,0,1,1,.875,0V.875a1.505,1.505,0,0,1,1.312,1.5v.053a1.467,1.467,0,0,1-.28.875A1.509,1.509,0,0,1,5.25,4.594,1.531,1.531,0,0,1,3.718,6.125H3.5v.437a.437.437,0,1,1-.875,0ZM3.718,5.25a.656.656,0,1,0,0-1.312H1.312V5.25ZM3.307,3.063a.634.634,0,0,0,.63-.63V2.38a.635.635,0,0,0-.63-.63h-2V3.063Z" fill="#fafcfc" opacity="0.767"/>
</svg>
