<svg xmlns="http://www.w3.org/2000/svg" width="9.407" height="12.544" viewBox="0 0 9.407 12.544">
  <path id="btc" d="M4.7,11.76v-.784H3.136v.784a.784.784,0,1,1-1.568,0v-.784H.784a.784.784,0,0,1,0-1.569V3.136a.784.784,0,0,1,0-1.568h.784V.784a.784.784,0,1,1,1.568,0v.784H4.7V.784a.784.784,0,1,1,1.568,0v.784A2.7,2.7,0,0,1,8.623,4.257v.095a2.628,2.628,0,0,1-.5,1.568A2.7,2.7,0,0,1,9.407,8.232a2.744,2.744,0,0,1-2.744,2.744H6.272v.784a.784.784,0,1,1-1.568,0ZM6.663,9.408a1.176,1.176,0,1,0,0-2.352H2.352V9.408Zm-.737-3.92A1.137,1.137,0,0,0,7.056,4.359V4.265A1.137,1.137,0,0,0,5.927,3.136H2.352V5.488Z" fill="#073e39" opacity="0.3"/>
</svg>
