<svg xmlns="http://www.w3.org/2000/svg" xmlns:xlink="http://www.w3.org/1999/xlink"  width="52.336" height="48.093" viewBox="0 0 39.176 36">
  <defs>
    <linearGradient id="linear-gradient" x1="0.157" y1="0.247" x2="0.87" y2="0.724" gradientUnits="objectBoundingBox">
      <stop offset="0" stop-color="#00836a"/>
      <stop offset="1" stop-color="#073e39"/>
    </linearGradient>
  </defs>
  <g id="cloud" transform="translate(-44 -220)">
    <path id="hexagontile3" d="M21.819,0a5,5,0,0,1,4.327,2.495l5.339,9.222a5,5,0,0,1,0,5.01L26.146,25.95a5,5,0,0,1-4.327,2.495h-10.7A5,5,0,0,1,6.79,25.95L1.45,16.728a5,5,0,0,1,0-5.01L6.79,2.495A5,5,0,0,1,11.117,0Z" transform="matrix(0.966, 0.259, -0.259, 0.966, 51.362, 220)" fill="#fac48b"/>
    <g id="cloud-2" data-name="cloud" transform="translate(55.999 231.249)">
      <path id="Path" d="M14.759,7.974A3.952,3.952,0,0,1,10.875,12H4.417a4.594,4.594,0,0,1-1.16-8.986A5.2,5.2,0,0,1,7.913,0a5.29,5.29,0,0,1,5.159,4.708,4.028,4.028,0,0,1,1.687,3.268Z" transform="translate(0.001 0.751)" fill="#073e39"/>
    </g>
  </g>
</svg>
