<svg xmlns="http://www.w3.org/2000/svg" width="52.336" height="48.093" viewBox="0 0 52.336 48.093">
  <g id="coldcardtile" transform="translate(-158 -354)">
    <g id="hexagontile1" transform="translate(113 -39)">
      <path id="Polygon_3" data-name="Polygon 3" d="M30.117,0a5,5,0,0,1,4.327,2.495l8.105,14a5,5,0,0,1,0,5.01l-8.105,14A5,5,0,0,1,30.117,38H13.883a5,5,0,0,1-4.327-2.495l-8.105-14a5,5,0,0,1,0-5.01l8.105-14A5,5,0,0,1,13.883,0Z" transform="matrix(0.966, 0.259, -0.259, 0.966, 54.835, 393)" fill="#fac48b"/>
    </g>
    <g id="coldcard" transform="translate(135.42 -217.746)">
      <path id="Path_16088" data-name="Path 16088" d="M740.083-1033.765,739-1035.144h-2.406l-.777.8v5.335l.777.692H739l1.267-1.428s.906-.129,1.3.275.288,1.338.288,1.338l-1.777,2.291h-4.267l-2.437-2.291v-7.159l2.437-2.189h4.267l1.488,1.872a1.4,1.4,0,0,1-.178,1.264A2.6,2.6,0,0,1,740.083-1033.765Z" transform="translate(-693.799 1628.23)" fill="#073e39"/>
      <path id="Path_16089" data-name="Path 16089" d="M740.083-1033.765,739-1035.144h-2.406l-.777.8v5.335l.777.692H739l1.267-1.428s.906-.129,1.3.275.288,1.338.288,1.338l-1.777,2.291h-4.267l-2.437-2.291v-7.159l2.437-2.189h4.267l1.488,1.872a1.4,1.4,0,0,1-.178,1.264A2.6,2.6,0,0,1,740.083-1033.765Z" transform="translate(-683.921 1628.23)" fill="#073e39"/>
    </g>
  </g>
</svg>
