<svg xmlns="http://www.w3.org/2000/svg" width="46" height="49" viewBox="0 0 46 49">
  <g id="elite" transform="translate(-165 -45)">
    <g id="Group_39534" data-name="Group 39534" transform="translate(5)">
      <g id="Path_24138" data-name="Path 24138" transform="translate(160 45)" fill="#cea85e">
        <path d="M 23 45.79999923706055 C 19.92193031311035 45.79999923706055 16.9360408782959 45.19720077514648 14.12526988983154 44.00835037231445 C 11.4102897644043 42.86000061035156 8.971940040588379 41.21601104736328 6.877970218658447 39.12202835083008 C 4.783989906311035 37.02806091308594 3.140000104904175 34.5897102355957 1.991649985313416 31.87472915649414 C 0.8027999997138977 29.0639591217041 0.2000000029802322 26.07806968688965 0.2000000029802322 23 C 0.2000000029802322 19.92193031311035 0.8027999997138977 16.9360408782959 1.991649985313416 14.12526988983154 C 3.140000104904175 11.4102897644043 4.783989906311035 8.971940040588379 6.877970218658447 6.877970218658447 C 8.971940040588379 4.783989906311035 11.4102897644043 3.140000104904175 14.12526988983154 1.991649985313416 C 16.9360408782959 0.8027999997138977 19.92193031311035 0.2000000029802322 23 0.2000000029802322 C 26.07806968688965 0.2000000029802322 29.0639591217041 0.8027999997138977 31.87472915649414 1.991649985313416 C 34.5897102355957 3.140000104904175 37.02806091308594 4.783989906311035 39.12202835083008 6.877970218658447 C 41.21601104736328 8.971940040588379 42.86000061035156 11.4102897644043 44.00835037231445 14.12526988983154 C 45.19720077514648 16.9360408782959 45.79999923706055 19.92193031311035 45.79999923706055 23 C 45.79999923706055 26.07806968688965 45.19720077514648 29.0639591217041 44.00835037231445 31.87472915649414 C 42.86000061035156 34.5897102355957 41.21601104736328 37.02806091308594 39.12202835083008 39.12202835083008 C 37.02806091308594 41.21601104736328 34.5897102355957 42.86000061035156 31.87472915649414 44.00835037231445 C 29.0639591217041 45.19720077514648 26.07806968688965 45.79999923706055 23 45.79999923706055 Z" stroke="none"/>
        <path d="M 23 0.4000015258789062 C 19.94883918762207 0.4000015258789062 16.98917007446289 0.9974784851074219 14.20318031311035 2.175861358642578 C 11.51203918457031 3.314109802246094 9.095058441162109 4.943710327148438 7.019390106201172 7.019390106201172 C 4.943710327148438 9.095058441162109 3.314109802246094 11.51203918457031 2.175861358642578 14.20318031311035 C 0.9974784851074219 16.98917007446289 0.4000015258789062 19.94883918762207 0.4000015258789062 23 C 0.4000015258789062 26.05116081237793 0.9974784851074219 29.01082992553711 2.175861358642578 31.79681968688965 C 3.314109802246094 34.48796081542969 4.943710327148438 36.90493774414062 7.019390106201172 38.98060989379883 C 9.095058441162109 41.05628967285156 11.51203918457031 42.68589019775391 14.20318031311035 43.82413864135742 C 16.98917007446289 45.00252151489258 19.94883918762207 45.59999847412109 23 45.59999847412109 C 26.05116081237793 45.59999847412109 29.01082992553711 45.00252151489258 31.79681968688965 43.82413864135742 C 34.48796081542969 42.68589019775391 36.90493774414062 41.05628967285156 38.98060989379883 38.98060989379883 C 41.05628967285156 36.90493774414062 42.68589019775391 34.48796081542969 43.82413864135742 31.79681968688965 C 45.00252151489258 29.01082992553711 45.59999847412109 26.05116081237793 45.59999847412109 23 C 45.59999847412109 19.94883918762207 45.00252151489258 16.98917007446289 43.82413864135742 14.20318031311035 C 42.68589019775391 11.51203918457031 41.05628967285156 9.095058441162109 38.98060989379883 7.019390106201172 C 36.90493774414062 4.943710327148438 34.48796081542969 3.314109802246094 31.79681968688965 2.175861358642578 C 29.01082992553711 0.9974784851074219 26.05116081237793 0.4000015258789062 23 0.4000015258789062 M 23 0 C 35.70254898071289 0 46 10.29745101928711 46 23 C 46 35.70254898071289 35.70254898071289 46 23 46 C 10.29745101928711 46 0 35.70254898071289 0 23 C 0 10.29745101928711 10.29745101928711 0 23 0 Z" stroke="none" fill="#fff"/>
      </g>
      <path id="User_4" data-name="User 4" d="M24,2A22,22,0,1,0,46,24,22.036,22.036,0,0,0,24,2Zm0,9.042a7.3,7.3,0,1,1-7.3,7.3A7.314,7.314,0,0,1,24,11.042ZM24,42.7A18.748,18.748,0,0,1,8.292,34.142,26.147,26.147,0,0,1,24,29.126a26.147,26.147,0,0,1,15.708,5.016A18.748,18.748,0,0,1,24,42.7Z" transform="translate(159 44)" fill="#fff"/>
    </g>
    <g id="Group_39536" data-name="Group 39536" transform="translate(1 -11)">
      <rect id="Rectangle_7316" data-name="Rectangle 7316" width="37" height="21" rx="10.5" transform="translate(169 84)" fill="#cea85e"/>
      <text id="ELITE-2" data-name="ELITE" transform="translate(188 98.5)" fill="#fff" font-size="10" font-family="RobotoCondensed-Bold, Roboto Condensed" font-weight="700" letter-spacing="0.06em"><tspan x="-12" y="0">ELITE</tspan></text>
    </g>
  </g>
</svg>
