<svg xmlns="http://www.w3.org/2000/svg" width="41.306" height="44" viewBox="0 0 41.306 44">
  <g id="elite" transform="translate(-165 -45)">
    <g id="Group_39534" data-name="Group 39534" transform="translate(165 45)">
      <g id="Path_24138" data-name="Path 24138" fill="#cea85e">
        <path d="M 20.65306091308594 41.10612106323242 C 17.89183044433594 41.10612106323242 15.21329116821289 40.56537246704102 12.69187068939209 39.4989013671875 C 10.25636100769043 38.4687614440918 8.069001197814941 36.99399948120117 6.190560817718506 35.11556243896484 C 4.312120914459229 33.23712158203125 2.837360858917236 31.04976081848145 1.807220935821533 28.61425018310547 C 0.7407509088516235 26.09283065795898 0.2000009119510651 23.41429138183594 0.2000009119510651 20.65306091308594 C 0.2000009119510651 17.89183044433594 0.7407509088516235 15.21329116821289 1.807220935821533 12.69187068939209 C 2.837360858917236 10.25636100769043 4.312120914459229 8.069001197814941 6.190560817718506 6.190560817718506 C 8.069001197814941 4.312120914459229 10.25636100769043 2.837360858917236 12.69187068939209 1.807220935821533 C 15.21329116821289 0.7407509088516235 17.89183044433594 0.2000009119510651 20.65306091308594 0.2000009119510651 C 23.41429138183594 0.2000009119510651 26.09283065795898 0.7407509088516235 28.61425018310547 1.807220935821533 C 31.04976081848145 2.837360858917236 33.23712158203125 4.312120914459229 35.11556243896484 6.190560817718506 C 36.99399948120117 8.069001197814941 38.4687614440918 10.25636100769043 39.4989013671875 12.69187068939209 C 40.56537246704102 15.21329116821289 41.10612106323242 17.89183044433594 41.10612106323242 20.65306091308594 C 41.10612106323242 23.41429138183594 40.56537246704102 26.09283065795898 39.4989013671875 28.61425018310547 C 38.4687614440918 31.04976081848145 36.99399948120117 33.23712158203125 35.11556243896484 35.11556243896484 C 33.23712158203125 36.99399948120117 31.04976081848145 38.4687614440918 28.61425018310547 39.4989013671875 C 26.09283065795898 40.56537246704102 23.41429138183594 41.10612106323242 20.65306091308594 41.10612106323242 Z" stroke="none"/>
        <path d="M 20.65306091308594 0.4000015258789062 C 17.91874122619629 0.4000015258789062 15.26642036437988 0.9354324340820312 12.7697811126709 1.991420745849609 C 10.35811042785645 3.011470794677734 8.192119598388672 4.471851348876953 6.331981658935547 6.331981658935547 C 4.471851348876953 8.192119598388672 3.011470794677734 10.35811042785645 1.991420745849609 12.7697811126709 C 0.9354324340820312 15.26642036437988 0.4000015258789062 17.91874122619629 0.4000015258789062 20.65306091308594 C 0.4000015258789062 23.38738059997559 0.9354324340820312 26.03969955444336 1.991420745849609 28.53634071350098 C 3.011470794677734 30.9480094909668 4.471851348876953 33.1140022277832 6.331981658935547 34.97414016723633 C 8.192119598388672 36.83427047729492 10.35811042785645 38.29465103149414 12.7697811126709 39.31470108032227 C 15.26642036437988 40.37068939208984 17.91874122619629 40.90612030029297 20.65306091308594 40.90612030029297 C 23.38738059997559 40.90612030029297 26.03969955444336 40.37068939208984 28.53634071350098 39.31470108032227 C 30.9480094909668 38.29465103149414 33.1140022277832 36.83427047729492 34.97414016723633 34.97414016723633 C 36.83427047729492 33.1140022277832 38.29465103149414 30.9480094909668 39.31470108032227 28.53634071350098 C 40.37068939208984 26.03969955444336 40.90612030029297 23.38738059997559 40.90612030029297 20.65306091308594 C 40.90612030029297 17.91874122619629 40.37068939208984 15.26642036437988 39.31470108032227 12.7697811126709 C 38.29465103149414 10.35811042785645 36.83427047729492 8.192119598388672 34.97414016723633 6.331981658935547 C 33.1140022277832 4.471851348876953 30.9480094909668 3.011470794677734 28.53634071350098 1.991420745849609 C 26.03969955444336 0.9354324340820312 23.38738059997559 0.4000015258789062 20.65306091308594 0.4000015258789062 M 20.65306091308594 0 C 32.05943298339844 0 41.30612182617188 9.246692657470703 41.30612182617188 20.65306091308594 C 41.30612182617188 32.05943298339844 32.05943298339844 41.30612182617188 20.65306091308594 41.30612182617188 C 9.246692657470703 41.30612182617188 0 32.05943298339844 0 20.65306091308594 C 0 9.246692657470703 9.246692657470703 0 20.65306091308594 0 Z" stroke="none" fill="#fff"/>
      </g>
      <path id="User_4" data-name="User 4" d="M21.755,2A19.755,19.755,0,1,0,41.51,21.755,19.788,19.788,0,0,0,21.755,2Zm0,8.119A6.559,6.559,0,1,1,15.2,16.678,6.568,6.568,0,0,1,21.755,10.119Zm0,28.428A16.835,16.835,0,0,1,7.65,30.862a23.479,23.479,0,0,1,14.105-4.5,23.479,23.479,0,0,1,14.105,4.5,16.835,16.835,0,0,1-14.105,7.685Z" transform="translate(-1.102 -1.102)" fill="#fff"/>
    </g>
    <g id="Group_39536" data-name="Group 39536" transform="translate(169.49 70.143)">
      <rect id="Rectangle_7316" data-name="Rectangle 7316" width="34" height="19" rx="9.5" transform="translate(-0.49 -0.143)" fill="#cea85e"/>
      <path id="Path_28499" data-name="Path 28499" d="M-8.628-3.488h-2.008V-1.8H-8.26v1.07h-3.665V-7.109h3.657v1.074h-2.368v1.508h2.008ZM-5.691-1.8h2.262v1.07H-6.98V-7.109h1.289ZM-.8-.725H-2.087V-7.109H-.8Zm5.629-5.31H3.253v5.31H1.959v-5.31H.407V-7.109H4.831ZM9.408-3.488H7.4V-1.8H9.776v1.07H6.111V-7.109H9.768v1.074H7.4v1.508H9.408Z" transform="translate(18.278 13.746)" fill="#fff"/>
    </g>
  </g>
</svg>
