<svg xmlns="http://www.w3.org/2000/svg" xmlns:xlink="http://www.w3.org/1999/xlink" width="52.336" height="48.093" viewBox="0 0 39.176 36">
  <defs>
    <linearGradient id="linear-gradient" x1="0.157" y1="0.247" x2="0.87" y2="0.724" gradientUnits="objectBoundingBox">
      <stop offset="0" stop-color="#00836a"/>
      <stop offset="1" stop-color="#073e39"/>
    </linearGradient>
    <linearGradient id="linear-gradient-2" y1="1.282" x2="-0.007" gradientUnits="objectBoundingBox">
      <stop offset="0.216" stop-color="#fff" stop-opacity="0"/>
      <stop offset="1"/>
    </linearGradient>
  </defs>
  <g id="foundationdevice" transform="translate(-44 -384)">
    <path id="hexagontile3" d="M21.819,0a5,5,0,0,1,4.327,2.495l5.339,9.222a5,5,0,0,1,0,5.01L26.146,25.95a5,5,0,0,1-4.327,2.495h-10.7A5,5,0,0,1,6.79,25.95L1.45,16.728a5,5,0,0,1,0-5.01L6.79,2.495A5,5,0,0,1,11.117,0Z" transform="matrix(0.966, 0.259, -0.259, 0.966, 51.362, 384)" fill="#fac48b"/>
    <g id="Group_38498" data-name="Group 38498" transform="translate(-691 -10105.879)">
      <g id="Group_38494" data-name="Group 38494" transform="translate(754.904 10501.23)" opacity="0.5" style="mix-blend-mode: multiply;isolation: isolate">
        <path id="Path_24046" data-name="Path 24046" d="M20.576,10.576h5.563L20.576.688Z" transform="translate(-20.576 -0.688)" fill="url(#linear-gradient-2)"/>
      </g>
      <path id="Path_24047" data-name="Path 24047" d="M14.575,31.29c.522-.005.633.243.312.641a6.842,6.842,0,0,1-10.763,0c-.321-.4-.208-.644.312-.641C6.973,31.3,14.575,31.29,14.575,31.29Z" transform="translate(745.379 10480.209)" fill="#073e39"/>
      <path id="Path_24048" data-name="Path 24048" d="M27.169,9.43c.259.454.525.428.71-.048A6.9,6.9,0,0,0,22.5.016c-.5-.079-.662.142-.4.593C22.1.609,25.913,7.219,27.169,9.43Z" transform="translate(733.4 10501)" fill="#073e39"/>
      <path id="Path_24049" data-name="Path 24049" d="M6.3.609c.263-.452.107-.672-.4-.593A6.9,6.9,0,0,0,.957,3.39,6.965,6.965,0,0,0,.522,9.382c.184.478.452.5.71.048C1.232,9.43,5.023,2.808,6.3.609Z" transform="translate(747.971 10501)" fill="#073e39"/>
      <g id="Group_38497" data-name="Group 38497" transform="translate(748 10501)">
        <g id="Group_38495" data-name="Group 38495" transform="translate(0)" opacity="0.25">
          <path id="Path_24050" data-name="Path 24050" d="M2.056,4.036A11.158,11.158,0,0,0,.479,9.365,6.963,6.963,0,0,1,.914,3.374,6.9,6.9,0,0,1,5.86,0,11.1,11.1,0,0,0,2.056,4.036Zm10.773-.663A6.9,6.9,0,0,0,7.882,0a11.1,11.1,0,0,1,3.8,4.036,11.155,11.155,0,0,1,1.577,5.328A6.962,6.962,0,0,0,12.828,3.374Zm-.889,7.109s-7.6.012-10.138,0a10.719,10.719,0,0,0,5.069,1.33A10.717,10.717,0,0,0,11.94,10.483Z" transform="translate(0)" fill="#fac48b"/>
        </g>
        <g id="Group_38496" data-name="Group 38496" transform="translate(1.188 0.593)" opacity="0.2">
          <path id="Path_24051" data-name="Path 24051" d="M9.223,13.589A11.024,11.024,0,0,0,14.6,12.3a6.842,6.842,0,0,1-10.763,0A11.023,11.023,0,0,0,9.223,13.589Zm-4.3-8.078A10.848,10.848,0,0,0,3.54,10.587S7.331,3.965,8.609,1.766A10.786,10.786,0,0,0,4.927,5.511Zm4.91-3.745s3.812,6.61,5.069,8.821a10.845,10.845,0,0,0-1.388-5.076A10.784,10.784,0,0,0,9.837,1.766Z" transform="translate(-3.54 -1.766)" fill="#073e39"/>
        </g>
      </g>
    </g>
  </g>
</svg>
