<svg xmlns="http://www.w3.org/2000/svg" width="40" height="40" viewBox="0 0 46 46">
  <g id="whale" transform="translate(650 1778)">
    <g id="Rectangle_7984" data-name="Rectangle 7984" transform="translate(-650 -1778)" fill="#5c5c5c" stroke="#fff" stroke-width="0.4">
      <rect width="46" height="46" rx="23" stroke="none"/>
      <rect x="0.2" y="0.2" width="45.6" height="45.6" rx="22.8" fill="none"/>
    </g>
    <g id="Diamond_Hands" data-name="Diamond Hands" transform="translate(-640.488 -1768.834)">
      <path id="Path_27554" data-name="Path 27554" d="M10.068,14.191a.618.618,0,0,0-.462-.2H5.27a.618.618,0,0,0-.462.2l-.723.794a.6.6,0,0,0,0,.817l3.424,3.874.32-.379L10.8,15.8a.629.629,0,0,0-.012-.817Z" transform="translate(0 2.202)" fill="#fff"/>
      <path id="Path_27555" data-name="Path 27555" d="M21.247,5.932h-.095a1.4,1.4,0,0,0-1.185.652,1.46,1.46,0,0,0-.2.6.577.577,0,0,0-.012.142v7.227a.872.872,0,0,1-.877.817.9.9,0,0,1-.889-.889V4.38A1.345,1.345,0,0,0,15.3,4.321v.012c0,.024-.012.036-.012.047v8.862a.889.889,0,0,1-1.777,0V3.432A1.36,1.36,0,0,0,12.16,2.07a1.019,1.019,0,0,0-.19.012,1.528,1.528,0,0,0-.332.095.041.041,0,0,0-.024.012,1.375,1.375,0,0,0-.806,1.244v8.08a.889.889,0,0,1-1.777,0V7.377A1.441,1.441,0,0,0,8.416,6.2a1.365,1.365,0,0,0-.829-.272H7.575A1.451,1.451,0,0,0,6.13,7.377v7.037H9.862a.864.864,0,0,1,.652.3l2.073,2.275a.885.885,0,0,1,.012,1.173L8.511,22.98A8,8,0,0,0,14.387,25.6a8.542,8.542,0,0,0,8.257-8.79V7.33A1.4,1.4,0,0,0,21.247,5.932Z" transform="translate(0.407 0)" fill="#fff"/>
    </g>
  </g>
</svg>

