<svg xmlns="http://www.w3.org/2000/svg" width="46" height="46" viewBox="0 0 46 46">
  <g id="hodler" transform="translate(1125 1778)">
    <g id="Rectangle_7984" data-name="Rectangle 7984" transform="translate(-1125 -1778)" fill="#015a53" stroke="#fff" stroke-width="0.4">
      <rect width="46" height="46" rx="23" stroke="none"/>
      <rect x="0.2" y="0.2" width="45.6" height="45.6" rx="22.8" fill="none"/>
    </g>
    <g id="Group_42706" data-name="Group 42706" transform="translate(-1111.726 -1767.816)">
      <g id="Group_42705" data-name="Group 42705" transform="translate(0 0)">
        <path id="Path_28765" data-name="Path 28765" d="M156.424,113.784a1.664,1.664,0,0,0-2.176.455l-2.093,2.853a.365.365,0,0,1-.659-.231l.452-11.089a1.564,1.564,0,1,0-3.125-.139l-.506,9.618a.152.152,0,0,1-.149.144h0a.152.152,0,0,1-.154-.152V104.435a1.6,1.6,0,0,0-1.537-1.617,1.565,1.565,0,0,0-1.595,1.565v10.909a.152.152,0,0,1-.3.006l-.376-8.624a1.565,1.565,0,0,0-3.127.113l.373,8.547a.152.152,0,0,1-.15.158h-.011a.152.152,0,0,1-.152-.128l-.466-4.185a1.562,1.562,0,1,0-3.119.2l1.193,10.775a7.361,7.361,0,0,0,2.176,4.147v2.149h9.619v-1.493a7.957,7.957,0,0,0,2.974-3.84c.089-.244,2.375-4.783,3.567-7.144A1.664,1.664,0,0,0,156.424,113.784Z" transform="translate(-137.542 -102.817)" fill="#fff"/>
      </g>
    </g>
  </g>
</svg>
