<svg xmlns="http://www.w3.org/2000/svg" width="40" height="40" viewBox="0 0 40 40">
  <g id="hodler" transform="translate(1125 1778)">
    <g id="Rectangle_7984" data-name="Rectangle 7984" transform="translate(-1125 -1778)" fill="#5c5c5c" stroke="#fff" stroke-width="0.4">
      <rect width="40" height="40" rx="20" stroke="none"/>
      <rect x="0.2" y="0.2" width="39.6" height="39.6" rx="19.8" fill="none"/>
    </g>
    <g id="Group_42706" data-name="Group 42706" transform="translate(-1113.458 -1769.144)">
      <g id="Group_42705" data-name="Group 42705" transform="translate(0 0)">
        <path id="Path_28765" data-name="Path 28765" d="M153.961,112.354a1.447,1.447,0,0,0-1.893.4l-1.82,2.481a.317.317,0,0,1-.573-.2l.393-9.642a1.36,1.36,0,1,0-2.717-.121l-.44,8.363a.132.132,0,0,1-.13.125h0a.132.132,0,0,1-.134-.132v-9.4a1.391,1.391,0,0,0-1.336-1.406,1.361,1.361,0,0,0-1.387,1.361v9.486a.132.132,0,0,1-.264.005l-.327-7.5a1.361,1.361,0,0,0-2.719.1l.324,7.432a.132.132,0,0,1-.13.138h-.01a.132.132,0,0,1-.132-.111l-.405-3.639a1.359,1.359,0,1,0-2.712.173l1.037,9.369a6.4,6.4,0,0,0,1.892,3.606v1.868h8.365v-1.3a6.919,6.919,0,0,0,2.586-3.339c.077-.212,2.065-4.159,3.1-6.212A1.447,1.447,0,0,0,153.961,112.354Z" transform="translate(-137.542 -102.817)" fill="#fff"/>
      </g>
    </g>
  </g>
</svg>
