<svg xmlns="http://www.w3.org/2000/svg" width="46" height="46" viewBox="0 0 46 46">
  <g id="pleb" transform="translate(1600 1778)">
    <g id="Rectangle_7984" data-name="Rectangle 7984" transform="translate(-1600 -1778)" fill="#015a53" stroke="#fff" stroke-width="0.8">
      <rect width="46" height="46" rx="23" stroke="none"/>
      <rect x="0.2" y="0.2" width="45.6" height="45.6" rx="22.8" fill="none"/>
    </g>
    <g id="Mortarboard" transform="translate(-1589.075 -1766.243)">
      <g id="Group_42209" data-name="Group 42209" transform="translate(0 0)">
        <path id="Path_27699" data-name="Path 27699" d="M21.388,12v4.185a2.233,2.233,0,0,1-.99,1.855,13.126,13.126,0,0,1-7.255,2.193,13.225,13.225,0,0,1-7.255-2.205,2.183,2.183,0,0,1-.977-1.842V12.013l1.88.827,5.075,2.268a2.154,2.154,0,0,0,.714.2,2.972,2.972,0,0,0,1.1.013,2.526,2.526,0,0,0,.739-.213l5.088-2.268Z" transform="translate(-1.264 -0.755)" fill="#fff"/>
        <path id="Path_27700" data-name="Path 27700" d="M27.062,20.712a2.221,2.221,0,0,1-1.291,2.017v1.842a.94.94,0,1,1-1.88,0V22.729a2.222,2.222,0,0,1,0-4.035V11.7l-1.767.789-1.88.84L15.157,15.6a2.525,2.525,0,0,1-.739.213,2.972,2.972,0,0,1-1.1-.013,2.153,2.153,0,0,1-.714-.2L7.526,13.331,5.646,12.5l-2.18-.977A2.307,2.307,0,0,1,2,9.447,2.324,2.324,0,0,1,3.466,7.354l9.147-4.073a3.309,3.309,0,0,1,2.519-.013L24.3,7.354a2.324,2.324,0,0,1,1.466,2.093v9.248A2.221,2.221,0,0,1,27.062,20.712Z" transform="translate(-2 -3.026)" fill="#fff"/>
      </g>
    </g>
  </g>
</svg>
