<svg xmlns="http://www.w3.org/2000/svg" width="50.297" height="50.297" viewBox="0 0 50.297 50.297">
  <g id="icon_received" transform="translate(-21.518 -453.852)">
    <circle id="Ellipse_1947" data-name="Ellipse 1947" cx="20" cy="20" r="20" transform="translate(28 455)" fill="#00836a"/>
    <path id="Path_24118" data-name="Path 24118" d="M1.678,17.116A1.648,1.648,0,0,1,0,15.438V1.678A1.648,1.648,0,0,1,1.678,0,1.648,1.648,0,0,1,3.356,1.678v13.76A1.683,1.683,0,0,1,1.678,17.116Z" transform="matrix(-0.866, -0.5, 0.5, -0.866, 45.436, 484.14)" fill="#fafcfc"/>
    <path id="Path_24121" data-name="Path 24121" d="M10.628,7.831a1.61,1.61,0,0,1-1.175-.5l-3.3-3.3-3.3,3.3a1.622,1.622,0,0,1-2.349,0,1.622,1.622,0,0,1,0-2.349L4.978.5A1.622,1.622,0,0,1,7.327.5L11.8,4.978a1.622,1.622,0,0,1,0,2.349A1.61,1.61,0,0,1,10.628,7.831Z" transform="matrix(-0.866, -0.5, 0.5, -0.866, 49.312, 486.377)" fill="#fafcfc"/>
  </g>
</svg>
