<svg xmlns="http://www.w3.org/2000/svg" width="7.157" height="13.119" viewBox="0 0 7.157 13.119">
  <path id="icon_dollar" d="M7.157-.119c0-1.55-.8-2.324-2.587-2.9-1.234-.394-1.563-.538-1.563-.985,0-.381.315-.617.932-.617a2.886,2.886,0,0,1,1.865.7L6.934-5.267A3.926,3.926,0,0,0,4.7-6.37V-8.34H2.929v1.957A2.682,2.682,0,0,0,.368-3.8c0,1.261.6,2.154,2.705,2.81C4.2-.631,4.478-.408,4.478.1c0,.446-.328.775-1.077.775A3.208,3.208,0,0,1,1.261.038L0,1.417A4.654,4.654,0,0,0,2.929,2.7V4.779H4.7V2.612A2.787,2.787,0,0,0,7.157-.119Z" transform="translate(0 8.34)" fill="#073e39" opacity="0.3"/>
</svg>
