<svg xmlns="http://www.w3.org/2000/svg" width="44.297" height="44.297" viewBox="0 0 44.297 44.297">
  <g id="icon_received" transform="translate(-19.852 -450.852)">
    <circle id="Ellipse_1947" data-name="Ellipse 1947" cx="15" cy="15" r="15" transform="translate(28 455)" fill="#00836a"/>
    <path id="Path_24118" data-name="Path 24118" d="M81.659,45.637A1.236,1.236,0,0,1,80.4,44.378V34.059a1.259,1.259,0,1,1,2.517,0v10.32A1.262,1.262,0,0,1,81.659,45.637Z" transform="matrix(-0.866, -0.5, 0.5, -0.866, 94.306, 545.461)" fill="#fafcfc"/>
    <path id="Path_24121" data-name="Path 24121" d="M56.371,38.673a1.207,1.207,0,0,1-.881-.378L53.015,35.82,50.539,38.3a1.246,1.246,0,0,1-1.762-1.762l3.356-3.356a1.216,1.216,0,0,1,1.762,0l3.356,3.356a1.259,1.259,0,0,1-.881,2.139Z" transform="matrix(-0.866, -0.5, 0.5, -0.866, 69.5, 531.139)" fill="#fafcfc"/>
  </g>
</svg>
