<svg xmlns="http://www.w3.org/2000/svg" width="195.49" height="232.946" viewBox="0 0 195.49 232.946">
  <g id="illustration_2" data-name="illustration 2" transform="translate(-83.335 -186.465)">
    <g id="Group_41679" data-name="Group 41679" transform="translate(-18.977 -19)">
      <g id="Group_41161" data-name="Group 41161" transform="translate(-21.19 -127.328)">
        <g id="Group_40355" data-name="Group 40355" transform="translate(199.553 379.621)">
          <g id="Group_40354" data-name="Group 40354">
            <g id="Group_40353" data-name="Group 40353">
              <path id="Path_27985" data-name="Path 27985" d="M187.961,164.283a26.8,26.8,0,1,0,26.805,26.8A26.835,26.835,0,0,0,187.961,164.283Zm0,51.631a24.826,24.826,0,1,1,24.826-24.826A24.854,24.854,0,0,1,187.961,215.914Z" transform="translate(-161.156 -164.283)" fill="#fff"/>
            </g>
          </g>
        </g>
        <g id="Group_40357" data-name="Group 40357" transform="translate(203.842 383.91)" opacity="0.1">
          <g id="Group_40356" data-name="Group 40356">
            <path id="Path_27986" data-name="Path 27986" d="M198.719,179.331a22.516,22.516,0,1,0,22.516,22.516A22.541,22.541,0,0,0,198.719,179.331Z" transform="translate(-176.203 -179.331)" fill="#fff"/>
          </g>
        </g>
        <g id="Group_40359" data-name="Group 40359" transform="translate(225.772 361.873)">
          <g id="Group_40358" data-name="Group 40358">
            <rect id="Rectangle_7655" data-name="Rectangle 7655" width="1.98" height="14.603" fill="#fff"/>
          </g>
        </g>
        <g id="Group_40361" data-name="Group 40361" transform="translate(254.185 420.875)">
          <g id="Group_40360" data-name="Group 40360" transform="translate(0 0)">
            <rect id="Rectangle_7656" data-name="Rectangle 7656" width="1.98" height="16.897" transform="matrix(0.496, -0.868, 0.868, 0.496, 0, 1.719)" fill="#fff"/>
          </g>
        </g>
        <g id="Group_40363" data-name="Group 40363" transform="translate(182.373 421.766)">
          <g id="Group_40362" data-name="Group 40362" transform="translate(0 0)">
            <rect id="Rectangle_7657" data-name="Rectangle 7657" width="16.93" height="1.98" transform="translate(0 8.276) rotate(-29.262)" fill="#fff"/>
          </g>
        </g>
        <g id="Group_40365" data-name="Group 40365" transform="translate(224.452 438.089)">
          <g id="Group_40364" data-name="Group 40364">
            <rect id="Rectangle_7658" data-name="Rectangle 7658" width="1.98" height="14.603" fill="#fff"/>
          </g>
        </g>
        <g id="Group_40367" data-name="Group 40367" transform="translate(182.362 383.592)">
          <g id="Group_40366" data-name="Group 40366" transform="translate(0 0)">
            <rect id="Rectangle_7659" data-name="Rectangle 7659" width="1.98" height="16.897" transform="matrix(0.496, -0.868, 0.868, 0.496, 0, 1.719)" fill="#fff"/>
          </g>
        </g>
        <g id="Group_40369" data-name="Group 40369" transform="translate(254.091 382.796)">
          <g id="Group_40368" data-name="Group 40368" transform="translate(0 0)">
            <rect id="Rectangle_7660" data-name="Rectangle 7660" width="16.93" height="1.98" transform="matrix(0.872, -0.489, 0.489, 0.872, 0, 8.274)" fill="#fff"/>
          </g>
        </g>
        <g id="Group_40372" data-name="Group 40372" transform="translate(215.971 390.652)">
          <g id="Group_40371" data-name="Group 40371">
            <g id="Group_40370" data-name="Group 40370">
              <path id="Path_27987" data-name="Path 27987" d="M235.546,217.607a4.971,4.971,0,0,0-.915-9.858h-2.067v-4.765H229.6v4.765h-1.874v-4.765h-2.962v4.765h-6.013v3.193h2.22a1.2,1.2,0,0,1,1.373,1.342v12.995a1.2,1.2,0,0,1-1.373,1.342h-2.22v3.193h6.013v4.719h2.962v-4.719h0v-.042H229.6v4.761h2.962v-4.761h2.913a6.082,6.082,0,0,0,.07-12.164ZM231,211.143A2.931,2.931,0,1,1,231,217H227.73v-5.862H231Zm3.58,14.3a3.163,3.163,0,0,1-2.244.93h-4.605v-6.349h4.605a3.175,3.175,0,0,1,2.244,5.42Z" transform="translate(-218.754 -202.984)" fill="#fff"/>
            </g>
          </g>
        </g>
        <g id="Group_40381" data-name="Group 40381" transform="translate(221.584 340.62)">
          <g id="Group_40380" data-name="Group 40380">
            <g id="Group_40379" data-name="Group 40379">
              <path id="Path_27988" data-name="Path 27988" d="M243.48,27.46a5.034,5.034,0,1,0,5.034,5.034A5.039,5.039,0,0,0,243.48,27.46Zm0,8.089a3.054,3.054,0,1,1,3.054-3.055A3.058,3.058,0,0,1,243.48,35.549Z" transform="translate(-238.446 -27.46)" fill="#fff"/>
            </g>
          </g>
        </g>
        <g id="Group_40383" data-name="Group 40383" transform="translate(213.761 337.908)">
          <g id="Group_40382" data-name="Group 40382">
            <path id="Path_27989" data-name="Path 27989" d="M228.795,31.911a.987.987,0,0,0-1.217-.144,7.071,7.071,0,0,1-2.052.851.99.99,0,0,0-.759.963v2.992h-1.82V33.581a.99.99,0,0,0-.759-.963,7.069,7.069,0,0,1-2.049-.849.99.99,0,0,0-1.217.144l-2.117,2.116-1.287-1.286,2.117-2.117a.99.99,0,0,0,.144-1.217,7.088,7.088,0,0,1-.85-2.048.989.989,0,0,0-.962-.758H212.98V24.784h2.986a.99.99,0,0,0,.963-.759,7.091,7.091,0,0,1,.85-2.051.989.989,0,0,0-.145-1.217l-2.814-2.813-1.4,1.4,2.287,2.286a9.027,9.027,0,0,0-.487,1.174h-3.23a.99.99,0,0,0-.99.989v3.8a.99.99,0,0,0,.99.99h3.233a9.072,9.072,0,0,0,.487,1.172l-2.289,2.289a.99.99,0,0,0,0,1.4l2.687,2.686a.989.989,0,0,0,1.4,0l2.289-2.289a9.093,9.093,0,0,0,1.173.487v3.237a.99.99,0,0,0,.99.99h3.8a.99.99,0,0,0,.99-.99V34.325a9.039,9.039,0,0,0,1.176-.488l2.285,2.284,1.4-1.4Z" transform="translate(-211 -17.944)" fill="#fff"/>
          </g>
        </g>
        <g id="Group_40385" data-name="Group 40385" transform="translate(218.869 332.793)">
          <g id="Group_40384" data-name="Group 40384">
            <path id="Path_27990" data-name="Path 27990" d="M249.236,10.259a.99.99,0,0,0-.7-.29H245.3a9.064,9.064,0,0,0-.486-1.172l2.289-2.289a.99.99,0,0,0,0-1.4L244.42,2.423a1.019,1.019,0,0,0-1.4,0l-2.289,2.289a9.15,9.15,0,0,0-1.173-.487V.99a.99.99,0,0,0-.99-.99h-3.8a.99.99,0,0,0-.99.99V4.226a9.014,9.014,0,0,0-1.176.488L230.319,2.43l-1.4,1.4,2.813,2.811a.988.988,0,0,0,1.217.144A7.074,7.074,0,0,1,235,5.934a.99.99,0,0,0,.759-.963V1.98h1.82V4.971a.99.99,0,0,0,.759.963,7.057,7.057,0,0,1,2.05.85A.99.99,0,0,0,241.6,6.64l2.116-2.117,1.287,1.287-2.116,2.117a.99.99,0,0,0-.144,1.217,7.084,7.084,0,0,1,.849,2.048.989.989,0,0,0,.962.758h2.988v1.819H244.56a.989.989,0,0,0-.963.76,7.062,7.062,0,0,1-.849,2.05.989.989,0,0,0,.144,1.217l2.814,2.813,1.4-1.4-2.287-2.286a9.007,9.007,0,0,0,.487-1.174h3.229a.989.989,0,0,0,.99-.989l0-3.8A.992.992,0,0,0,249.236,10.259Z" transform="translate(-228.919)" fill="#fff"/>
          </g>
        </g>
        <g id="Group_40388" data-name="Group 40388" transform="translate(163.823 431.625)">
          <g id="Group_40387" data-name="Group 40387">
            <g id="Group_40386" data-name="Group 40386">
              <path id="Path_27991" data-name="Path 27991" d="M40.839,346.729a5.034,5.034,0,1,0,5.034,5.034A5.04,5.04,0,0,0,40.839,346.729Zm0,8.088a3.054,3.054,0,1,1,3.054-3.054A3.058,3.058,0,0,1,40.839,354.817Z" transform="translate(-35.805 -346.729)" fill="#fff"/>
            </g>
          </g>
        </g>
        <g id="Group_40390" data-name="Group 40390" transform="translate(156 428.913)">
          <g id="Group_40389" data-name="Group 40389">
            <path id="Path_27992" data-name="Path 27992" d="M26.154,351.178a.987.987,0,0,0-1.217-.144,7.072,7.072,0,0,1-2.052.851.99.99,0,0,0-.759.963v2.992H20.307v-2.992a.99.99,0,0,0-.759-.963,7.053,7.053,0,0,1-2.049-.849.989.989,0,0,0-1.217.144L14.165,353.3l-1.286-1.287,2.116-2.117a.99.99,0,0,0,.144-1.217,7.046,7.046,0,0,1-.849-2.047.99.99,0,0,0-.963-.759H10.339v-1.819h2.987a.99.99,0,0,0,.963-.76,7.048,7.048,0,0,1,.849-2.049.988.988,0,0,0-.144-1.217l-2.814-2.813-1.4,1.4,2.287,2.286a9.009,9.009,0,0,0-.487,1.174H9.35a.99.99,0,0,0-.99.989v3.8a.99.99,0,0,0,.99.99h3.234a8.987,8.987,0,0,0,.486,1.172l-2.289,2.289a.99.99,0,0,0,0,1.4l2.686,2.686a.989.989,0,0,0,1.4,0l2.289-2.289a8.986,8.986,0,0,0,1.174.487v3.236a.99.99,0,0,0,.99.99h3.8a.99.99,0,0,0,.99-.99v-3.237a9.074,9.074,0,0,0,1.176-.488l2.285,2.284,1.4-1.4Z" transform="translate(-8.359 -337.212)" fill="#fff"/>
          </g>
        </g>
        <g id="Group_40392" data-name="Group 40392" transform="translate(161.108 423.798)">
          <g id="Group_40391" data-name="Group 40391">
            <path id="Path_27993" data-name="Path 27993" d="M46.594,329.526a.99.99,0,0,0-.7-.29H42.662a9.074,9.074,0,0,0-.487-1.172l2.289-2.289a.989.989,0,0,0,0-1.4l-2.686-2.686a.989.989,0,0,0-1.4,0l-2.289,2.289a9.107,9.107,0,0,0-1.174-.487v-3.237a.99.99,0,0,0-.99-.99h-3.8a.99.99,0,0,0-.99.99v3.237a8.95,8.95,0,0,0-1.177.489L27.677,321.7l-1.4,1.4,2.813,2.811a.99.99,0,0,0,1.218.144,7.063,7.063,0,0,1,2.051-.851.99.99,0,0,0,.759-.963v-2.992h1.819v2.992a.99.99,0,0,0,.759.963,7.064,7.064,0,0,1,2.05.85.993.993,0,0,0,1.217-.144l2.117-2.116,1.286,1.287-2.116,2.116a.989.989,0,0,0-.144,1.217,7.085,7.085,0,0,1,.85,2.048.989.989,0,0,0,.962.758H44.9v1.818H41.918a.99.99,0,0,0-.963.76,7.056,7.056,0,0,1-.849,2.05.988.988,0,0,0,.144,1.217l2.814,2.813,1.4-1.4-2.287-2.285a9.03,9.03,0,0,0,.487-1.175h3.23a.99.99,0,0,0,.99-.989v-3.8A.994.994,0,0,0,46.594,329.526Z" transform="translate(-26.277 -319.267)" fill="#fff"/>
          </g>
        </g>
        <g id="Group_40395" data-name="Group 40395" transform="translate(279.284 432.056)">
          <g id="Group_40394" data-name="Group 40394">
            <g id="Group_40393" data-name="Group 40393">
              <path id="Path_27994" data-name="Path 27994" d="M445.907,348.241a5.034,5.034,0,1,0,5.034,5.034A5.039,5.039,0,0,0,445.907,348.241Zm0,8.089a3.055,3.055,0,1,1,3.054-3.055A3.058,3.058,0,0,1,445.907,356.33Z" transform="translate(-440.873 -348.241)" fill="#fff"/>
            </g>
          </g>
        </g>
        <g id="Group_40397" data-name="Group 40397" transform="translate(271.461 429.344)">
          <g id="Group_40396" data-name="Group 40396">
            <path id="Path_27995" data-name="Path 27995" d="M431.223,352.694a.987.987,0,0,0-1.217-.144,7.084,7.084,0,0,1-2.052.851.99.99,0,0,0-.759.963v2.992h-1.82v-2.992a.99.99,0,0,0-.759-.963,7.058,7.058,0,0,1-2.05-.85.99.99,0,0,0-1.217.145l-2.116,2.116-1.287-1.286,2.117-2.117a.99.99,0,0,0,.144-1.217,7.086,7.086,0,0,1-.85-2.048.989.989,0,0,0-.962-.759h-2.987v-1.819h2.987a.99.99,0,0,0,.962-.759,7.089,7.089,0,0,1,.85-2.051.989.989,0,0,0-.145-1.217l-2.814-2.813-1.4,1.4,2.287,2.286a9.033,9.033,0,0,0-.486,1.174h-3.23a.99.99,0,0,0-.99.989v3.8a.99.99,0,0,0,.99.99h3.233a9.045,9.045,0,0,0,.487,1.172l-2.29,2.289a.99.99,0,0,0,0,1.4l2.687,2.686a.99.99,0,0,0,1.4,0l2.289-2.289a9.078,9.078,0,0,0,1.173.486v3.237a.99.99,0,0,0,.99.99h3.8a.99.99,0,0,0,.99-.99v-3.237a9.1,9.1,0,0,0,1.176-.488l2.285,2.284,1.4-1.4Z" transform="translate(-413.428 -338.727)" fill="#fff"/>
          </g>
        </g>
        <g id="Group_40399" data-name="Group 40399" transform="translate(276.568 424.229)">
          <g id="Group_40398" data-name="Group 40398">
            <path id="Path_27996" data-name="Path 27996" d="M451.663,331.039a.99.99,0,0,0-.7-.29h-3.233a9.245,9.245,0,0,0-.486-1.171l2.289-2.289a.989.989,0,0,0,0-1.4l-2.686-2.686a1.019,1.019,0,0,0-1.4,0l-2.289,2.289a9.013,9.013,0,0,0-1.174-.487V321.77a.99.99,0,0,0-.99-.99h-3.8a.99.99,0,0,0-.99.99v3.237a9.018,9.018,0,0,0-1.175.488l-2.285-2.284-1.4,1.4,2.813,2.811a.987.987,0,0,0,1.217.144,7.076,7.076,0,0,1,2.051-.851.99.99,0,0,0,.759-.963v-2.992H440v2.992a.989.989,0,0,0,.759.963,7.053,7.053,0,0,1,2.049.85.991.991,0,0,0,1.217-.144l2.116-2.117,1.287,1.287-2.116,2.117a.989.989,0,0,0-.145,1.216,7.092,7.092,0,0,1,.85,2.049.989.989,0,0,0,.962.758h2.988v1.818h-2.986a.99.99,0,0,0-.963.759,7.085,7.085,0,0,1-.85,2.051.989.989,0,0,0,.144,1.217l2.815,2.813,1.4-1.4-2.288-2.286a9.051,9.051,0,0,0,.487-1.174h3.231a.989.989,0,0,0,.989-.989l0-3.8A.994.994,0,0,0,451.663,331.039Z" transform="translate(-431.345 -320.78)" fill="#fff"/>
          </g>
        </g>
        <g id="Group_41670" data-name="Group 41670" transform="translate(138.19 127.328)">
          <g id="Group_41667" data-name="Group 41667" transform="translate(-20.69 -127.328)">
            <g id="Group_40374" data-name="Group 40374" transform="translate(159.19 367.328)">
              <g id="Group_40373" data-name="Group 40373">
                <circle id="Ellipse_2028" data-name="Ellipse 2028" cx="9.608" cy="9.608" r="9.608" fill="#508b82"/>
              </g>
            </g>
            <g id="Group_40015" data-name="Group 40015" transform="translate(163.17 372.646)">
              <g id="Group_40014" data-name="Group 40014">
                <path id="Path_27875" data-name="Path 27875" d="M406.176,432.462l-5.591,6.232-2.881-3.012-1.372,1.313,3.589,3.753a.95.95,0,0,0,.686.293h.015a.95.95,0,0,0,.692-.315l6.275-6.995Z" transform="translate(-396.332 -432.462)" fill="#fff"/>
              </g>
            </g>
          </g>
          <g id="Group_41666" data-name="Group 41666" transform="translate(134.81 236.562)" opacity="0.696">
            <path id="Path_28153" data-name="Path 28153" d="M18.667,181.477c-.467,0-.934-.042-1.4-.085l.127-1.359c.425.042.85.085,1.274.085h.127v1.359Zm1.572-.085-.17-1.359c.425-.042.85-.127,1.274-.212l.3,1.317Zm-4.417-.212a7.139,7.139,0,0,1-1.359-.382l.425-1.274c.425.127.807.255,1.232.34ZM23,180.755l-.467-1.274c.382-.127.807-.3,1.189-.467l.595,1.232C23.892,180.415,23.424,180.585,23,180.755Zm-9.854-.51c-.425-.212-.849-.425-1.274-.68l.68-1.147c.382.212.765.425,1.147.595Zm12.4-.722-.722-1.147a9.329,9.329,0,0,0,1.062-.722l.849,1.062C26.355,178.971,25.973,179.268,25.548,179.523ZM10.682,178.8c-.382-.3-.722-.595-1.1-.934l.934-.977a8.96,8.96,0,0,0,.977.807ZM27.8,177.782l-.934-.977a8.871,8.871,0,0,0,.85-.934l1.019.85A7.277,7.277,0,0,1,27.8,177.782Zm-19.156-.934a8.028,8.028,0,0,1-.849-1.147l1.1-.765.765,1.019Zm20.983-1.274-1.1-.765a5.732,5.732,0,0,0,.637-1.1l1.189.637A11.7,11.7,0,0,1,29.626,175.573Zm-22.6-1.062c-.212-.425-.425-.85-.595-1.274l1.274-.51c.17.382.34.765.552,1.147Zm23.913-1.444-1.274-.51a5.933,5.933,0,0,0,.382-1.232l1.317.34A13.507,13.507,0,0,1,30.943,173.067ZM5.967,171.878c-.127-.467-.212-.934-.3-1.4l1.317-.212a10.448,10.448,0,0,0,.3,1.232Zm25.7-1.572-1.317-.212c.085-.425.085-.85.127-1.274l1.359.042C31.792,169.372,31.75,169.839,31.665,170.306ZM5.5,169.074V167.63l1.359.085v1.274Zm24.933-1.529c-.042-.425-.085-.85-.17-1.274l1.317-.212c.085.467.127.934.17,1.4Zm-23.446-1.1-1.317-.212c.085-.467.17-.934.3-1.4l1.317.34A6.913,6.913,0,0,0,6.987,166.441Zm23.021-1.4a9.8,9.8,0,0,0-.425-1.189l1.232-.51a12.767,12.767,0,0,1,.467,1.359ZM7.666,163.977l-1.274-.51a11.685,11.685,0,0,1,.595-1.274l1.189.637A9.374,9.374,0,0,0,7.666,163.977ZM29.031,162.7c-.212-.382-.425-.722-.68-1.1l1.1-.765c.255.382.51.807.765,1.232Zm-20.176-.977-1.1-.765c.255-.382.552-.765.849-1.147l1.019.892A4.573,4.573,0,0,0,8.856,161.726Zm18.731-1.147c-.3-.34-.595-.637-.892-.934l.934-.977c.34.34.68.68.977,1.019Zm-17.117-.807-.934-.977c.34-.34.722-.637,1.062-.934l.807,1.062C11.107,159.178,10.809,159.475,10.47,159.772Zm15.249-.934a9.325,9.325,0,0,0-1.062-.722l.68-1.147a11.683,11.683,0,0,1,1.189.807Zm-13.21-.637-.722-1.147a11.44,11.44,0,0,1,1.232-.68l.595,1.232A9.123,9.123,0,0,0,12.508,158.2Zm11.043-.68a9.894,9.894,0,0,0-1.189-.467l.425-1.274c.467.17.892.34,1.317.51Zm-8.75-.382-.425-1.274a8.138,8.138,0,0,1,1.359-.382l.3,1.317A6.66,6.66,0,0,0,14.8,157.139Zm6.329-.382c-.425-.085-.849-.17-1.274-.212l.127-1.359c.467.042.934.127,1.4.212Zm-3.823-.212-.17-1.359c.467-.042.934-.085,1.4-.085v1.359C18.158,156.5,17.733,156.5,17.308,156.544Z" transform="translate(-5.5 -155.1)" fill="#fff"/>
          </g>
        </g>
      </g>
      <g id="Group_41668" data-name="Group 41668">
        <g id="Group_41667-2" data-name="Group 41667" transform="translate(-20.69 -127.328)">
          <g id="Group_40374-2" data-name="Group 40374" transform="translate(159.19 367.328)">
            <g id="Group_40373-2" data-name="Group 40373">
              <circle id="Ellipse_2028-2" data-name="Ellipse 2028" cx="9.608" cy="9.608" r="9.608" fill="#508b82"/>
            </g>
          </g>
          <g id="Group_40015-2" data-name="Group 40015" transform="translate(163.17 372.646)">
            <g id="Group_40014-2" data-name="Group 40014">
              <path id="Path_27875-2" data-name="Path 27875" d="M406.176,432.462l-5.591,6.232-2.881-3.012-1.372,1.313,3.589,3.753a.95.95,0,0,0,.686.293h.015a.95.95,0,0,0,.692-.315l6.275-6.995Z" transform="translate(-396.332 -432.462)" fill="#fff"/>
            </g>
          </g>
        </g>
        <g id="Group_41666-2" data-name="Group 41666" transform="translate(134.81 236.562)" opacity="0.696">
          <path id="Path_28153-2" data-name="Path 28153" d="M18.667,181.477c-.467,0-.934-.042-1.4-.085l.127-1.359c.425.042.85.085,1.274.085h.127v1.359Zm1.572-.085-.17-1.359c.425-.042.85-.127,1.274-.212l.3,1.317Zm-4.417-.212a7.139,7.139,0,0,1-1.359-.382l.425-1.274c.425.127.807.255,1.232.34ZM23,180.755l-.467-1.274c.382-.127.807-.3,1.189-.467l.595,1.232C23.892,180.415,23.424,180.585,23,180.755Zm-9.854-.51c-.425-.212-.849-.425-1.274-.68l.68-1.147c.382.212.765.425,1.147.595Zm12.4-.722-.722-1.147a9.329,9.329,0,0,0,1.062-.722l.849,1.062C26.355,178.971,25.973,179.268,25.548,179.523ZM10.682,178.8c-.382-.3-.722-.595-1.1-.934l.934-.977a8.96,8.96,0,0,0,.977.807ZM27.8,177.782l-.934-.977a8.871,8.871,0,0,0,.85-.934l1.019.85A7.277,7.277,0,0,1,27.8,177.782Zm-19.156-.934a8.028,8.028,0,0,1-.849-1.147l1.1-.765.765,1.019Zm20.983-1.274-1.1-.765a5.732,5.732,0,0,0,.637-1.1l1.189.637A11.7,11.7,0,0,1,29.626,175.573Zm-22.6-1.062c-.212-.425-.425-.85-.595-1.274l1.274-.51c.17.382.34.765.552,1.147Zm23.913-1.444-1.274-.51a5.933,5.933,0,0,0,.382-1.232l1.317.34A13.507,13.507,0,0,1,30.943,173.067ZM5.967,171.878c-.127-.467-.212-.934-.3-1.4l1.317-.212a10.448,10.448,0,0,0,.3,1.232Zm25.7-1.572-1.317-.212c.085-.425.085-.85.127-1.274l1.359.042C31.792,169.372,31.75,169.839,31.665,170.306ZM5.5,169.074V167.63l1.359.085v1.274Zm24.933-1.529c-.042-.425-.085-.85-.17-1.274l1.317-.212c.085.467.127.934.17,1.4Zm-23.446-1.1-1.317-.212c.085-.467.17-.934.3-1.4l1.317.34A6.913,6.913,0,0,0,6.987,166.441Zm23.021-1.4a9.8,9.8,0,0,0-.425-1.189l1.232-.51a12.767,12.767,0,0,1,.467,1.359ZM7.666,163.977l-1.274-.51a11.685,11.685,0,0,1,.595-1.274l1.189.637A9.374,9.374,0,0,0,7.666,163.977ZM29.031,162.7c-.212-.382-.425-.722-.68-1.1l1.1-.765c.255.382.51.807.765,1.232Zm-20.176-.977-1.1-.765c.255-.382.552-.765.849-1.147l1.019.892A4.573,4.573,0,0,0,8.856,161.726Zm18.731-1.147c-.3-.34-.595-.637-.892-.934l.934-.977c.34.34.68.68.977,1.019Zm-17.117-.807-.934-.977c.34-.34.722-.637,1.062-.934l.807,1.062C11.107,159.178,10.809,159.475,10.47,159.772Zm15.249-.934a9.325,9.325,0,0,0-1.062-.722l.68-1.147a11.683,11.683,0,0,1,1.189.807Zm-13.21-.637-.722-1.147a11.44,11.44,0,0,1,1.232-.68l.595,1.232A9.123,9.123,0,0,0,12.508,158.2Zm11.043-.68a9.894,9.894,0,0,0-1.189-.467l.425-1.274c.467.17.892.34,1.317.51Zm-8.75-.382-.425-1.274a8.138,8.138,0,0,1,1.359-.382l.3,1.317A6.66,6.66,0,0,0,14.8,157.139Zm6.329-.382c-.425-.085-.849-.17-1.274-.212l.127-1.359c.467.042.934.127,1.4.212Zm-3.823-.212-.17-1.359c.467-.042.934-.085,1.4-.085v1.359C18.158,156.5,17.733,156.5,17.308,156.544Z" transform="translate(-5.5 -155.1)" fill="#fff"/>
        </g>
      </g>
      <g id="Group_41669" data-name="Group 41669" transform="translate(57 94)">
        <g id="Group_41667-3" data-name="Group 41667" transform="translate(-20.69 -127.328)">
          <g id="Group_40374-3" data-name="Group 40374" transform="translate(159.19 367.328)">
            <g id="Group_40373-3" data-name="Group 40373">
              <circle id="Ellipse_2028-3" data-name="Ellipse 2028" cx="9.608" cy="9.608" r="9.608" fill="#508b82"/>
            </g>
          </g>
          <g id="Group_40015-3" data-name="Group 40015" transform="translate(163.17 372.646)">
            <g id="Group_40014-3" data-name="Group 40014">
              <path id="Path_27875-3" data-name="Path 27875" d="M406.176,432.462l-5.591,6.232-2.881-3.012-1.372,1.313,3.589,3.753a.95.95,0,0,0,.686.293h.015a.95.95,0,0,0,.692-.315l6.275-6.995Z" transform="translate(-396.332 -432.462)" fill="#fff"/>
            </g>
          </g>
        </g>
        <g id="Group_41666-3" data-name="Group 41666" transform="translate(134.81 236.562)" opacity="0.696">
          <path id="Path_28153-3" data-name="Path 28153" d="M18.667,181.477c-.467,0-.934-.042-1.4-.085l.127-1.359c.425.042.85.085,1.274.085h.127v1.359Zm1.572-.085-.17-1.359c.425-.042.85-.127,1.274-.212l.3,1.317Zm-4.417-.212a7.139,7.139,0,0,1-1.359-.382l.425-1.274c.425.127.807.255,1.232.34ZM23,180.755l-.467-1.274c.382-.127.807-.3,1.189-.467l.595,1.232C23.892,180.415,23.424,180.585,23,180.755Zm-9.854-.51c-.425-.212-.849-.425-1.274-.68l.68-1.147c.382.212.765.425,1.147.595Zm12.4-.722-.722-1.147a9.329,9.329,0,0,0,1.062-.722l.849,1.062C26.355,178.971,25.973,179.268,25.548,179.523ZM10.682,178.8c-.382-.3-.722-.595-1.1-.934l.934-.977a8.96,8.96,0,0,0,.977.807ZM27.8,177.782l-.934-.977a8.871,8.871,0,0,0,.85-.934l1.019.85A7.277,7.277,0,0,1,27.8,177.782Zm-19.156-.934a8.028,8.028,0,0,1-.849-1.147l1.1-.765.765,1.019Zm20.983-1.274-1.1-.765a5.732,5.732,0,0,0,.637-1.1l1.189.637A11.7,11.7,0,0,1,29.626,175.573Zm-22.6-1.062c-.212-.425-.425-.85-.595-1.274l1.274-.51c.17.382.34.765.552,1.147Zm23.913-1.444-1.274-.51a5.933,5.933,0,0,0,.382-1.232l1.317.34A13.507,13.507,0,0,1,30.943,173.067ZM5.967,171.878c-.127-.467-.212-.934-.3-1.4l1.317-.212a10.448,10.448,0,0,0,.3,1.232Zm25.7-1.572-1.317-.212c.085-.425.085-.85.127-1.274l1.359.042C31.792,169.372,31.75,169.839,31.665,170.306ZM5.5,169.074V167.63l1.359.085v1.274Zm24.933-1.529c-.042-.425-.085-.85-.17-1.274l1.317-.212c.085.467.127.934.17,1.4Zm-23.446-1.1-1.317-.212c.085-.467.17-.934.3-1.4l1.317.34A6.913,6.913,0,0,0,6.987,166.441Zm23.021-1.4a9.8,9.8,0,0,0-.425-1.189l1.232-.51a12.767,12.767,0,0,1,.467,1.359ZM7.666,163.977l-1.274-.51a11.685,11.685,0,0,1,.595-1.274l1.189.637A9.374,9.374,0,0,0,7.666,163.977ZM29.031,162.7c-.212-.382-.425-.722-.68-1.1l1.1-.765c.255.382.51.807.765,1.232Zm-20.176-.977-1.1-.765c.255-.382.552-.765.849-1.147l1.019.892A4.573,4.573,0,0,0,8.856,161.726Zm18.731-1.147c-.3-.34-.595-.637-.892-.934l.934-.977c.34.34.68.68.977,1.019Zm-17.117-.807-.934-.977c.34-.34.722-.637,1.062-.934l.807,1.062C11.107,159.178,10.809,159.475,10.47,159.772Zm15.249-.934a9.325,9.325,0,0,0-1.062-.722l.68-1.147a11.683,11.683,0,0,1,1.189.807Zm-13.21-.637-.722-1.147a11.44,11.44,0,0,1,1.232-.68l.595,1.232A9.123,9.123,0,0,0,12.508,158.2Zm11.043-.68a9.894,9.894,0,0,0-1.189-.467l.425-1.274c.467.17.892.34,1.317.51Zm-8.75-.382-.425-1.274a8.138,8.138,0,0,1,1.359-.382l.3,1.317A6.66,6.66,0,0,0,14.8,157.139Zm6.329-.382c-.425-.085-.849-.17-1.274-.212l.127-1.359c.467.042.934.127,1.4.212Zm-3.823-.212-.17-1.359c.467-.042.934-.085,1.4-.085v1.359C18.158,156.5,17.733,156.5,17.308,156.544Z" transform="translate(-5.5 -155.1)" fill="#fff"/>
        </g>
      </g>
    </g>
    <g id="Group_41680" data-name="Group 41680" transform="translate(-3 -33)">
      <g id="Group_41652" data-name="Group 41652" transform="translate(-158.202 -10)">
        <g id="Group_41651" data-name="Group 41651" transform="translate(3095.05 -6699.002)">
          <g id="Group_41597" data-name="Group 41597" transform="translate(-2828.076 7097.453)">
            <g id="Group_41596" data-name="Group 41596" transform="translate(0 0)">
              <path id="Path_28467" data-name="Path 28467" d="M167.711,226.941h-.562a11.667,11.667,0,0,0-8.639,3.263,9.848,9.848,0,0,0-2.637,6.467v17.84h15.835V233.343Z" transform="translate(-155.873 -226.941)" fill="#508b82"/>
            </g>
          </g>
          <g id="Group_41599" data-name="Group 41599" transform="translate(-2807.482 7097.453)">
            <g id="Group_41598" data-name="Group 41598" transform="translate(0 0)">
              <path id="Path_28468" data-name="Path 28468" d="M284.581,230.492a10.315,10.315,0,0,0-8.365-3.551h-.539l-3.992,6.4v21.169h15.584v-17.84A9.154,9.154,0,0,0,284.581,230.492Z" transform="translate(-271.685 -226.941)" fill="#508b82"/>
            </g>
          </g>
          <g id="Group_41602" data-name="Group 41602" transform="translate(-2820.859 7073.935)">
            <g id="Group_41601" data-name="Group 41601" transform="translate(0 0)">
              <g id="Group_41600" data-name="Group 41600">
                <path id="Path_28469" data-name="Path 28469" d="M207.444,94.684a10.983,10.983,0,1,0,10.983,10.983A11,11,0,0,0,207.444,94.684Zm0,20.573a9.59,9.59,0,1,1,9.59-9.59A9.6,9.6,0,0,1,207.444,115.257Z" transform="translate(-196.461 -94.684)" fill="#fff"/>
              </g>
            </g>
          </g>
          <g id="Group_41606" data-name="Group 41606" transform="translate(-2810.53 7102.381)">
            <g id="Group_41605" data-name="Group 41605" transform="translate(0 0)">
              <rect id="Rectangle_7868" data-name="Rectangle 7868" width="1.393" height="22.643" fill="#fff"/>
            </g>
          </g>
          <g id="Group_41608" data-name="Group 41608" transform="translate(-2795.279 7114.277)">
            <g id="Group_41607" data-name="Group 41607" transform="translate(0 0)">
              <rect id="Rectangle_7869" data-name="Rectangle 7869" width="1.393" height="10.745" fill="#fff"/>
            </g>
          </g>
          <g id="Group_41610" data-name="Group 41610" transform="translate(-2825.84 7114.277)">
            <g id="Group_41609" data-name="Group 41609" transform="translate(0 0)">
              <rect id="Rectangle_7870" data-name="Rectangle 7870" width="1.393" height="10.745" fill="#fff"/>
            </g>
          </g>
          <g id="Group_41612" data-name="Group 41612" transform="translate(-2815.021 7094.828)">
            <g id="Group_41611" data-name="Group 41611" transform="translate(0 0)">
              <path id="Path_28471" data-name="Path 28471" d="M238.441,212.188l-3.964,6.254-4.011-6.257-1.172.752,5.191,8.1,5.132-8.1Z" transform="translate(-229.294 -212.185)" fill="#fff"/>
            </g>
          </g>
          <g id="Group_41614" data-name="Group 41614" transform="translate(-2815.021 7094.828)">
            <g id="Group_41613" data-name="Group 41613" transform="translate(0 0)">
              <path id="Path_28472" data-name="Path 28472" d="M238.441,212.188l-3.964,6.254-4.011-6.257-1.172.752,5.191,8.1,5.132-8.1Z" transform="translate(-229.294 -212.185)" fill="#fff"/>
            </g>
          </g>
          <g id="Group_41616" data-name="Group 41616" transform="translate(-2817.415 7077.378)">
            <g id="Group_41615" data-name="Group 41615" transform="translate(0 0)">
              <path id="Path_28473" data-name="Path 28473" d="M223.366,114.051a7.539,7.539,0,1,0,7.539,7.539A7.548,7.548,0,0,0,223.366,114.051Z" transform="translate(-215.827 -114.051)" fill="#508b82"/>
            </g>
          </g>
          <g id="Group_41618" data-name="Group 41618" transform="translate(-2815.021 7094.828)">
            <g id="Group_41617" data-name="Group 41617" transform="translate(0 0)">
              <path id="Path_28474" data-name="Path 28474" d="M238.441,212.188l-3.459.749-4.516-.752-1.172.752,5.191,8.1,5.132-8.1Z" transform="translate(-229.294 -212.185)" fill="#04574a"/>
            </g>
          </g>
          <g id="Group_41604" data-name="Group 41604" transform="translate(-2831.309 7094.508)">
            <g id="Group_41603" data-name="Group 41603" transform="translate(0 0)">
              <path id="Path_28470" data-name="Path 28470" d="M167.125,210.383H150.694a13.018,13.018,0,0,0-13,13V240.9h1.393V223.386a11.624,11.624,0,0,1,11.61-11.611h16.431a11.624,11.624,0,0,1,11.611,11.611V240.9h1.393V223.386A13.018,13.018,0,0,0,167.125,210.383Z" transform="translate(-137.691 -210.383)" fill="#fff"/>
            </g>
          </g>
        </g>
        <g id="UNDERBANKED" transform="translate(244.537 324.136)">
          <g id="Group_40945" data-name="Group 40945" transform="translate(0 83.801)">
            <g id="Group_40942" data-name="Group 40942">
              <path id="Path_28487" data-name="Path 28487" d="M15.836,181.328a15.814,15.814,0,1,1,15.836-15.792A15.831,15.831,0,0,1,15.836,181.328Z" transform="translate(0 -149.7)" fill="#04564a"/>
              <path id="Path_28152" data-name="Path 28152" d="M15.836,181.328a15.814,15.814,0,1,1,15.836-15.792A15.831,15.831,0,0,1,15.836,181.328Zm0-30.24a14.447,14.447,0,1,0,14.447,14.447A14.47,14.47,0,0,0,15.836,151.088Z" transform="translate(0 -149.7)" fill="#fff"/>
            </g>
            <g id="Group_40943" data-name="Group 40943" transform="translate(2.668 2.626)" opacity="0.696">
              <path id="Path_28153-4" data-name="Path 28153" d="M18.667,181.477c-.467,0-.934-.042-1.4-.085l.127-1.359c.425.042.85.085,1.274.085h.127v1.359Zm1.572-.085-.17-1.359c.425-.042.85-.127,1.274-.212l.3,1.317Zm-4.417-.212a7.139,7.139,0,0,1-1.359-.382l.425-1.274c.425.127.807.255,1.232.34ZM23,180.755l-.467-1.274c.382-.127.807-.3,1.189-.467l.595,1.232C23.892,180.415,23.424,180.585,23,180.755Zm-9.854-.51c-.425-.212-.849-.425-1.274-.68l.68-1.147c.382.212.765.425,1.147.595Zm12.4-.722-.722-1.147a9.329,9.329,0,0,0,1.062-.722l.849,1.062C26.355,178.971,25.973,179.268,25.548,179.523ZM10.682,178.8c-.382-.3-.722-.595-1.1-.934l.934-.977a8.96,8.96,0,0,0,.977.807ZM27.8,177.782l-.934-.977a8.871,8.871,0,0,0,.85-.934l1.019.85A7.277,7.277,0,0,1,27.8,177.782Zm-19.156-.934a8.028,8.028,0,0,1-.849-1.147l1.1-.765.765,1.019Zm20.983-1.274-1.1-.765a5.732,5.732,0,0,0,.637-1.1l1.189.637A11.7,11.7,0,0,1,29.626,175.573Zm-22.6-1.062c-.212-.425-.425-.85-.595-1.274l1.274-.51c.17.382.34.765.552,1.147Zm23.913-1.444-1.274-.51a5.933,5.933,0,0,0,.382-1.232l1.317.34A13.507,13.507,0,0,1,30.943,173.067ZM5.967,171.878c-.127-.467-.212-.934-.3-1.4l1.317-.212a10.448,10.448,0,0,0,.3,1.232Zm25.7-1.572-1.317-.212c.085-.425.085-.85.127-1.274l1.359.042C31.792,169.372,31.75,169.839,31.665,170.306ZM5.5,169.074V167.63l1.359.085v1.274Zm24.933-1.529c-.042-.425-.085-.85-.17-1.274l1.317-.212c.085.467.127.934.17,1.4Zm-23.446-1.1-1.317-.212c.085-.467.17-.934.3-1.4l1.317.34A6.913,6.913,0,0,0,6.987,166.441Zm23.021-1.4a9.8,9.8,0,0,0-.425-1.189l1.232-.51a12.767,12.767,0,0,1,.467,1.359ZM7.666,163.977l-1.274-.51a11.685,11.685,0,0,1,.595-1.274l1.189.637A9.374,9.374,0,0,0,7.666,163.977ZM29.031,162.7c-.212-.382-.425-.722-.68-1.1l1.1-.765c.255.382.51.807.765,1.232Zm-20.176-.977-1.1-.765c.255-.382.552-.765.849-1.147l1.019.892A4.573,4.573,0,0,0,8.856,161.726Zm18.731-1.147c-.3-.34-.595-.637-.892-.934l.934-.977c.34.34.68.68.977,1.019Zm-17.117-.807-.934-.977c.34-.34.722-.637,1.062-.934l.807,1.062C11.107,159.178,10.809,159.475,10.47,159.772Zm15.249-.934a9.325,9.325,0,0,0-1.062-.722l.68-1.147a11.683,11.683,0,0,1,1.189.807Zm-13.21-.637-.722-1.147a11.44,11.44,0,0,1,1.232-.68l.595,1.232A9.123,9.123,0,0,0,12.508,158.2Zm11.043-.68a9.894,9.894,0,0,0-1.189-.467l.425-1.274c.467.17.892.34,1.317.51Zm-8.75-.382-.425-1.274a8.138,8.138,0,0,1,1.359-.382l.3,1.317A6.66,6.66,0,0,0,14.8,157.139Zm6.329-.382c-.425-.085-.849-.17-1.274-.212l.127-1.359c.467.042.934.127,1.4.212Zm-3.823-.212-.17-1.359c.467-.042.934-.085,1.4-.085v1.359C18.158,156.5,17.733,156.5,17.308,156.544Z" transform="translate(-5.5 -155.1)" fill="#fff"/>
            </g>
            <g id="Group_40944" data-name="Group 40944" transform="translate(5.423 5.423)">
              <path id="Path_28154" data-name="Path 28154" d="M22.913,183.025a10.413,10.413,0,1,1,10.413-10.413A10.443,10.443,0,0,1,22.913,183.025Z" transform="translate(-12.5 -162.2)" fill="#508b82"/>
            </g>
          </g>
          <g id="Group_40946" data-name="Group 40946" transform="translate(10.109 98.942)">
            <rect id="Rectangle_7728" data-name="Rectangle 7728" width="11.801" height="1.388" fill="#fff"/>
          </g>
        </g>
      </g>
      <g id="Group_41663" data-name="Group 41663" transform="translate(0.055 11.819)">
        <g id="important-email" transform="translate(204.922 379.508)">
          <g id="Group_41653" data-name="Group 41653" transform="translate(5.108 2.192)">
            <path id="Path_28488" data-name="Path 28488" d="M62.907,167.434,37.231,145.689H82.737a10.371,10.371,0,0,0,1.372,3.793Z" transform="translate(-37.231 -145.689)" fill="#fff"/>
          </g>
          <g id="Group_41654" data-name="Group 41654" transform="translate(2.192 4.144)">
            <path id="Path_28489" data-name="Path 28489" d="M36.6,177.38,15.974,194.957v-35.04Z" transform="translate(-15.974 -159.917)" fill="#508b82"/>
          </g>
          <g id="Group_41655" data-name="Group 41655" transform="translate(5.085 23.802)">
            <path id="Path_28490" data-name="Path 28490" d="M68.134,303.184l20.339,17.345H37.059L57.4,303.2l4.272,3.615,1.089.92,0,0,1.086-.917Z" transform="translate(-37.059 -303.184)" fill="#508b82"/>
          </g>
          <g id="Group_41656" data-name="Group 41656" transform="translate(38.766 8.558)">
            <path id="Path_28491" data-name="Path 28491" d="M303.142,194.479V222.7L282.53,205.124l15.4-13.039A10.4,10.4,0,0,0,303.142,194.479Z" transform="translate(-282.53 -192.085)" fill="#508b82"/>
          </g>
          <g id="Group_41657" data-name="Group 41657">
            <path id="Path_28492" data-name="Path 28492" d="M61.064,173.053H.506A.506.506,0,0,1,0,172.547V130.221a.506.506,0,0,1,.506-.506H52.182a.506.506,0,0,1,.5.56c0,.016,0,.031,0,.047a8.285,8.285,0,0,0,8.278,8.274c.017,0,.034,0,.052,0a.506.506,0,0,1,.555.5v33.448A.506.506,0,0,1,61.064,173.053ZM1.012,172.041H60.558V139.6a9.3,9.3,0,0,1-8.876-8.873H1.012Z" transform="translate(0 -129.715)" fill="#fff"/>
          </g>
          <g id="Group_41661" data-name="Group 41661" transform="translate(0.179 0.12)">
            <path id="Path_28495" data-name="Path 28495" d="M31.909,157.12a.5.5,0,0,1-.327-.12L1.3,131.361l.654-.772,29.952,25.362,23.144-19.6.654.772L32.236,157A.506.506,0,0,1,31.909,157.12Z" transform="translate(-1.303 -130.589)" fill="#fff"/>
          </g>
          <g id="Group_41662" data-name="Group 41662" transform="translate(0.002 21.084)">
            <path id="Path_28496" data-name="Path 28496" d="M61.085,305.631H.518a.506.506,0,0,1-.328-.891L25.1,283.511a.506.506,0,0,1,.655,0l5.043,4.265,5.046-4.277a.506.506,0,0,1,.655,0L61.414,304.74a.506.506,0,0,1-.328.891ZM1.891,304.62H59.713l-23.54-20.073-5.044,4.276a.506.506,0,0,1-.654,0l-5.042-4.264Z" transform="translate(-0.012 -283.377)" fill="#fff"/>
          </g>
        </g>
        <g id="UNDERBANKED-2" data-name="UNDERBANKED" transform="translate(251.235 365.515)">
          <g id="Group_40945-2" data-name="Group 40945" transform="translate(0 0)">
            <g id="Group_40942-2" data-name="Group 40942" transform="translate(0 0)">
              <path id="Path_28487-2" data-name="Path 28487" d="M15.268,180.193a15.247,15.247,0,1,1,15.268-15.226A15.263,15.263,0,0,1,15.268,180.193Z" transform="translate(0 -149.7)" fill="#04564a"/>
              <path id="Path_28152-2" data-name="Path 28152" d="M13.017,175.7a13,13,0,1,1,13.017-12.982A13.014,13.014,0,0,1,13.017,175.7Zm0-24.858a11.876,11.876,0,1,0,11.876,11.876A11.895,11.895,0,0,0,13.017,150.841Z" transform="translate(2.25 -147.453)" fill="#fff"/>
            </g>
            <g id="Group_40943-2" data-name="Group 40943" transform="translate(4.444 4.405)" opacity="0.696">
              <path id="Path_28153-5" data-name="Path 28153" d="M16.324,176.783c-.384,0-.768-.035-1.152-.07l.1-1.117c.349.035.7.07,1.047.07h.1v1.117Zm1.292-.07-.14-1.117c.349-.035.7-.1,1.047-.175l.244,1.082Zm-3.631-.175a5.868,5.868,0,0,1-1.117-.314l.349-1.047c.349.1.663.209,1.013.279Zm5.9-.349-.384-1.047c.314-.1.663-.244.978-.384l.489,1.013C20.619,175.91,20.234,176.049,19.885,176.189Zm-8.1-.419c-.349-.175-.7-.349-1.047-.559l.559-.943c.314.175.628.349.943.489Zm10.2-.594-.594-.943a7.662,7.662,0,0,0,.873-.594l.7.873C22.644,174.723,22.329,174.967,21.98,175.177ZM9.76,174.583c-.314-.244-.594-.489-.908-.768l.768-.8a7.364,7.364,0,0,0,.8.663Zm14.071-.838-.768-.8a7.293,7.293,0,0,0,.7-.768l.838.7A5.98,5.98,0,0,1,23.831,173.745Zm-15.747-.768a6.6,6.6,0,0,1-.7-.943l.908-.629.628.838Zm17.248-1.047-.908-.628a4.713,4.713,0,0,0,.524-.908l.978.524A9.619,9.619,0,0,1,25.332,171.929Zm-18.575-.873c-.175-.349-.349-.7-.489-1.047l1.047-.419c.14.314.279.629.454.943Zm19.658-1.187-1.047-.419a4.877,4.877,0,0,0,.314-1.013l1.082.279A11.1,11.1,0,0,1,26.415,169.869Zm-20.53-.978c-.1-.384-.175-.768-.244-1.152l1.082-.175a8.588,8.588,0,0,0,.244,1.013ZM27.008,167.6l-1.082-.175c.07-.349.07-.7.1-1.047l1.117.035C27.113,166.832,27.078,167.216,27.008,167.6ZM5.5,166.587V165.4l1.117.07v1.047ZM26,165.33c-.035-.349-.07-.7-.14-1.047l1.082-.175c.07.384.1.768.14,1.152Zm-19.273-.908-1.082-.175c.07-.384.14-.768.244-1.152l1.082.279A5.683,5.683,0,0,0,6.722,164.422Zm18.924-1.152a8.057,8.057,0,0,0-.349-.978l1.013-.419a10.491,10.491,0,0,1,.384,1.117ZM7.281,162.4l-1.047-.419a9.605,9.605,0,0,1,.489-1.047l.978.524A7.706,7.706,0,0,0,7.281,162.4Zm17.563-1.047c-.175-.314-.349-.594-.559-.908l.908-.628c.209.314.419.663.628,1.013Zm-16.585-.8-.908-.628c.209-.314.454-.628.7-.943l.838.733A3.759,3.759,0,0,0,8.258,160.547Zm15.4-.943c-.244-.279-.489-.524-.733-.768l.768-.8c.279.279.559.559.8.838Zm-14.071-.663-.768-.8c.279-.279.594-.524.873-.768l.663.873C10.109,158.452,9.864,158.7,9.585,158.941Zm12.535-.768a7.667,7.667,0,0,0-.873-.594l.559-.943a9.6,9.6,0,0,1,.978.663Zm-10.859-.524-.594-.943a9.406,9.406,0,0,1,1.013-.559l.489,1.013A7.5,7.5,0,0,0,11.261,157.649Zm9.078-.559a8.132,8.132,0,0,0-.978-.384l.349-1.047c.384.14.733.279,1.082.419Zm-7.193-.314-.349-1.047a6.689,6.689,0,0,1,1.117-.314l.244,1.082A5.475,5.475,0,0,0,13.147,156.776Zm5.2-.314c-.349-.07-.7-.14-1.047-.175l.1-1.117c.384.035.768.1,1.152.175Zm-3.142-.175-.14-1.117c.384-.035.768-.07,1.152-.07v1.117C15.9,156.252,15.556,156.252,15.207,156.287Z" transform="translate(-5.5 -155.1)" fill="#fff"/>
            </g>
            <g id="Group_40944-2" data-name="Group 40944" transform="translate(6.708 6.705)">
              <path id="Path_28154-2" data-name="Path 28154" d="M21.059,179.319a8.559,8.559,0,1,1,8.559-8.559A8.585,8.585,0,0,1,21.059,179.319Z" transform="translate(-12.5 -162.2)" fill="#508b82"/>
            </g>
          </g>
          <g id="Group_40946-2" data-name="Group 40946" transform="translate(10.56 14.694)">
            <rect id="Rectangle_7728-2" data-name="Rectangle 7728" width="9.701" height="1.141" fill="#fff"/>
          </g>
        </g>
      </g>
      <g id="Group_40716" data-name="Group 40716" transform="translate(137.943 419.972) rotate(16)">
        <g id="Group_40715" data-name="Group 40715" transform="translate(0 0)">
          <g id="Group_40714" data-name="Group 40714">
            <path id="Path_28074" data-name="Path 28074" d="M145.365,30.275l.663-1.658q.811.324,1.636.614l-.592,1.685Q146.211,30.613,145.365,30.275ZM155.928,33l.224-1.772q.864.11,1.738.183l-.15,1.779Q156.83,33.111,155.928,33Zm-7.122-1.515.519-1.709q.834.253,1.682.471l-.445,1.73Q149.677,31.745,148.806,31.482Zm3.53.908.372-1.747q.853.182,1.716.327l-.3,1.761Q153.225,32.579,152.335,32.389Zm7.221.914.077-1.784c.481.021.964.033,1.45.038l.3,0v1.786l-.316,0Q160.308,33.336,159.557,33.3Zm-17.518-4.527.8-1.6q.78.393,1.577.752l-.734,1.628Q142.854,29.187,142.039,28.777ZM133,22.656l1.181-1.339q.658.58,1.336,1.13l-1.125,1.387Q133.687,23.261,133,22.656Zm-2.63-2.528,1.29-1.234q.606.634,1.236,1.238l-1.237,1.288Q131,20.789,130.372,20.128ZM138.855,27l.938-1.52q.744.459,1.506.885l-.871,1.559Q139.631,27.477,138.855,27Zm-3.019-2.046,1.064-1.434q.7.522,1.425,1.012l-1,1.478Q136.569,25.5,135.835,24.952Zm34.236,5.734q.856-.178,1.7-.392l.438,1.731q-.882.224-1.778.409Zm18.564-9.241q.656-.574,1.291-1.178l1.23,1.294q-.662.63-1.346,1.228Zm-5.625,4.133q.745-.455,1.471-.942l1,1.483q-.758.509-1.536.984Zm2.9-1.946q.7-.516,1.384-1.064l1.12,1.392q-.712.572-1.446,1.111Zm6.54-3.356-1.285-1.24c.408-.422.806-.853,1.185-1.282l1.338,1.182C193.292,19.385,192.876,19.836,192.45,20.277ZM163.134,31.529q.876-.033,1.747-.1l.142,1.78q-.907.072-1.821.107Zm10.325-1.7q.838-.25,1.663-.535l.584,1.688q-.862.3-1.736.559Zm-6.839,1.421q.87-.105,1.731-.247l.289,1.762q-.9.148-1.805.258Zm13.333-3.983q.781-.389,1.545-.812l.866,1.562c-.524.29-1.068.576-1.615.848Zm-3.191,1.42q.813-.321,1.611-.676l.727,1.631q-.833.371-1.682.706Z" transform="translate(-130.372 -17.754)" fill="#fff"/>
          </g>
        </g>
      </g>
    </g>
  </g>
</svg>
