<svg xmlns="http://www.w3.org/2000/svg" width="163.26" height="162.955" viewBox="0 0 163.26 162.955">
  <g id="illustration_4" data-name="illustration 4" transform="translate(-105.689 -227.37)">
    <g id="Group_41166" data-name="Group 41166" transform="translate(7.689 19.675)">
      <g id="Group_41163" data-name="Group 41163" transform="translate(98 264.173)">
        <g id="Group_40537" data-name="Group 40537" transform="translate(103.369 64.773)">
          <g id="Group_40536" data-name="Group 40536">
            <path id="Path_28032" data-name="Path 28032" d="M316.966,314.205v4.646h19.49a22.236,22.236,0,0,1,5.134-4.646Z" transform="translate(-316.966 -314.205)" fill="#508b82"/>
          </g>
        </g>
        <g id="Group_40522" data-name="Group 40522" transform="translate(98.451 97.783)">
          <g id="Group_40521" data-name="Group 40521" transform="translate(0 0)">
            <path id="Path_28026" data-name="Path 28026" d="M329.878,393.858H307.31a8.921,8.921,0,0,1-2.213,1.58V398.5h30.24A22.489,22.489,0,0,1,329.878,393.858Z" transform="translate(-305.097 -393.858)" fill="#508b82"/>
          </g>
        </g>
        <g id="Group_40527" data-name="Group 40527" transform="translate(103.369 86.778)">
          <g id="Group_40526" data-name="Group 40526">
            <path id="Path_28028" data-name="Path 28028" d="M331.787,367.3H316.966v4.646H333.03A21.917,21.917,0,0,1,331.787,367.3Z" transform="translate(-316.966 -367.303)" fill="#508b82"/>
          </g>
        </g>
        <g id="Group_40532" data-name="Group 40532" transform="translate(103.369 75.779)">
          <g id="Group_40531" data-name="Group 40531">
            <path id="Path_28030" data-name="Path 28030" d="M316.966,340.761v4.64h14.757a22.015,22.015,0,0,1,1.133-4.64Z" transform="translate(-316.966 -340.761)" fill="#508b82"/>
          </g>
        </g>
        <g id="Group_40515" data-name="Group 40515" transform="translate(110.275 61.236)">
          <g id="Group_40514" data-name="Group 40514">
            <path id="Path_28024" data-name="Path 28024" d="M352.044,346.857a22.5,22.5,0,0,1-5.459-4.64,22.236,22.236,0,0,1-5.3-14.182v-.226a21.679,21.679,0,0,1,.2-2.956,22.021,22.021,0,0,1,1.133-4.64,22.546,22.546,0,0,1,1.458-3.182,21.578,21.578,0,0,1,2.143-3.177,22.235,22.235,0,0,1,5.134-4.646,21.979,21.979,0,0,1,7.747-3.182l.354-.07a22.354,22.354,0,0,0-7.521.07,22.107,22.107,0,0,0-8.078,3.182,22.552,22.552,0,0,0-5.2,4.646,22.889,22.889,0,0,0-2.166,3.177,22.3,22.3,0,0,0-2.851,10.912v.093a22.073,22.073,0,0,0,.244,3.177,21.534,21.534,0,0,0,1.208,4.646c.157.424.331.842.517,1.255a21.433,21.433,0,0,0,.987,1.922,21.961,21.961,0,0,0,2.218,3.182,22.371,22.371,0,0,0,2.12,2.213,21.78,21.78,0,0,0,3.212,2.428c.378.238.761.459,1.15.674a22.16,22.16,0,0,0,7.782,2.509,22.722,22.722,0,0,0,2.834.18c.383,0,.767-.012,1.144-.029s.761-.052,1.133-.087c.174-.017.343-.035.511-.064.517-.058,1.028-.145,1.533-.244A22.055,22.055,0,0,1,352.044,346.857Z" transform="translate(-333.629 -305.67)" fill="#004e42"/>
          </g>
        </g>
        <g id="Group_40517" data-name="Group 40517" transform="translate(19.134 100.309)">
          <g id="Group_40516" data-name="Group 40516">
            <rect id="Rectangle_7678" data-name="Rectangle 7678" width="16.486" height="5.296" fill="#92b8b2"/>
          </g>
        </g>
        <g id="Group_40520" data-name="Group 40520" transform="translate(94.396 93.73)">
          <g id="Group_40519" data-name="Group 40519" transform="translate(0 0)">
            <g id="Group_40518" data-name="Group 40518">
              <path id="Path_28025" data-name="Path 28025" d="M340.42,395.072a21.31,21.31,0,0,1-10.362-3.046,21.6,21.6,0,0,1-5.248-4.46,21.3,21.3,0,0,1-2.176-3.057.871.871,0,0,0-.752-.431h-18.2a.873.873,0,0,0-.814.56,7.891,7.891,0,0,1-1.9,2.869,8.033,8.033,0,0,1-2,1.426,7.86,7.86,0,0,1-2.867.817.871.871,0,0,0-.8.868v5.337a.871.871,0,0,0,.871.871H340.4a.872.872,0,0,0,.871-.871v-.011A.869.869,0,0,0,340.42,395.072Zm-43.364.011v-3.7a9.6,9.6,0,0,0,2.7-.894,9.818,9.818,0,0,0,2.427-1.732,9.648,9.648,0,0,0,2.081-2.937H321.39a23.092,23.092,0,0,0,2.1,2.877,23.125,23.125,0,0,0,8.769,6.386h-35.2Z" transform="translate(-295.312 -384.078)" fill="#fff"/>
            </g>
          </g>
        </g>
        <g id="Group_40525" data-name="Group 40525" transform="translate(101.9 82.73)">
          <g id="Group_40524" data-name="Group 40524">
            <g id="Group_40523" data-name="Group 40523">
              <path id="Path_28027" data-name="Path 28027" d="M333.238,368.966a21.466,21.466,0,0,1-1.472-3.052,21.481,21.481,0,0,1-1.445-7.517.871.871,0,0,0-.871-.862H314.89a.871.871,0,0,0-.871.871v7.818a8,8,0,0,1-.539,2.866.871.871,0,0,0,.812,1.186h18.2a.871.871,0,0,0,.751-1.311Zm-17.76-.431a9.827,9.827,0,0,0,.283-2.305v-6.952H328.6a23.218,23.218,0,0,0,1.539,7.268c.265.68.56,1.345.882,1.989H315.478Z" transform="translate(-313.421 -357.535)" fill="#fff"/>
            </g>
          </g>
        </g>
        <g id="Group_40530" data-name="Group 40530" transform="translate(102.498 71.725)">
          <g id="Group_40529" data-name="Group 40529">
            <g id="Group_40528" data-name="Group 40528">
              <path id="Path_28029" data-name="Path 28029" d="M333.833,331.41a.869.869,0,0,0-.751-.43H315.735a.872.872,0,0,0-.871.871v11a.872.872,0,0,0,.871.871h14.56a.871.871,0,0,0,.871-.871v-.226a20.874,20.874,0,0,1,.19-2.844,21.245,21.245,0,0,1,1.086-4.451,21.692,21.692,0,0,1,1.4-3.059A.873.873,0,0,0,333.833,331.41Zm-3.028,3.328a22.978,22.978,0,0,0-1.176,4.817,22.265,22.265,0,0,0-.2,2.43H316.606v-9.263h15.047Q331.189,333.7,330.805,334.738Z" transform="translate(-314.864 -330.98)" fill="#fff"/>
            </g>
          </g>
        </g>
        <g id="Group_40535" data-name="Group 40535" transform="translate(102.498 60.72)">
          <g id="Group_40534" data-name="Group 40534">
            <g id="Group_40533" data-name="Group 40533">
              <path id="Path_28031" data-name="Path 28031" d="M348.972,305.209a.87.87,0,0,0-.867-.785H315.734a.871.871,0,0,0-.871.871V316.3a.871.871,0,0,0,.871.871h17.347a.872.872,0,0,0,.763-.45,20.753,20.753,0,0,1,2.058-3.051,21.315,21.315,0,0,1,4.934-4.465,21.011,21.011,0,0,1,7.44-3.056A.871.871,0,0,0,348.972,305.209Zm-9.09,2.539a23.07,23.07,0,0,0-5.334,4.826,22.55,22.55,0,0,0-1.975,2.855H316.606v-9.263h26.1A22.9,22.9,0,0,0,339.882,307.748Z" transform="translate(-314.863 -304.424)" fill="#fff"/>
            </g>
          </g>
        </g>
        <g id="Group_40540" data-name="Group 40540" transform="translate(102.974 49.72)">
          <g id="Group_40539" data-name="Group 40539">
            <g id="Group_40538" data-name="Group 40538">
              <path id="Path_28033" data-name="Path 28033" d="M361.1,277.881H316.884a.871.871,0,0,0-.871.871v11a.871.871,0,0,0,.871.871h31.9a.878.878,0,0,0,.171-.017l.341-.068a21.63,21.63,0,0,1,8.153.067.843.843,0,0,0,.173.017H361.1a.871.871,0,0,0,.871-.871v-11A.871.871,0,0,0,361.1,277.881Zm-.871,11H357.7a23.337,23.337,0,0,0-8.744-.053l-.267.053H317.755v-9.257h42.471v9.257Z" transform="translate(-316.013 -277.881)" fill="#fff"/>
            </g>
          </g>
        </g>
        <g id="Group_40542" data-name="Group 40542" transform="translate(107.026 53.77)">
          <g id="Group_40541" data-name="Group 40541">
            <rect id="Rectangle_7679" data-name="Rectangle 7679" width="37.849" height="4.644" fill="#508b82"/>
          </g>
        </g>
        <g id="Group_40545" data-name="Group 40545" transform="translate(102.498 38.714)">
          <g id="Group_40544" data-name="Group 40544">
            <g id="Group_40543" data-name="Group 40543">
              <path id="Path_28034" data-name="Path 28034" d="M355.511,251.325H315.735a.871.871,0,0,0-.871.871V263.2a.872.872,0,0,0,.871.871h39.776a.871.871,0,0,0,.871-.871V252.2A.872.872,0,0,0,355.511,251.325Zm-.871,11.005H316.606v-9.263H354.64Z" transform="translate(-314.864 -251.325)" fill="#fff"/>
            </g>
          </g>
        </g>
        <g id="Group_40547" data-name="Group 40547" transform="translate(103.369 42.768)">
          <g id="Group_40546" data-name="Group 40546">
            <rect id="Rectangle_7680" data-name="Rectangle 7680" width="36.593" height="4.64" fill="#508b82"/>
          </g>
        </g>
        <g id="Group_40550" data-name="Group 40550" transform="translate(110.473 27.713)">
          <g id="Group_40549" data-name="Group 40549">
            <g id="Group_40548" data-name="Group 40548">
              <path id="Path_28035" data-name="Path 28035" d="M379.189,224.779h-44.21a.871.871,0,0,0-.871.871v11a.872.872,0,0,0,.871.871h44.21a.871.871,0,0,0,.871-.871v-11A.871.871,0,0,0,379.189,224.779Zm-.871,11H335.85v-9.261h42.467Z" transform="translate(-334.108 -224.779)" fill="#fff"/>
            </g>
          </g>
        </g>
        <g id="Group_40552" data-name="Group 40552" transform="translate(114.524 31.764)">
          <g id="Group_40551" data-name="Group 40551">
            <rect id="Rectangle_7681" data-name="Rectangle 7681" width="37.849" height="4.644" fill="#508b82"/>
          </g>
        </g>
        <g id="Group_40555" data-name="Group 40555" transform="translate(102.498 16.71)">
          <g id="Group_40554" data-name="Group 40554">
            <g id="Group_40553" data-name="Group 40553">
              <path id="Path_28036" data-name="Path 28036" d="M357.241,198.228H315.735a.872.872,0,0,0-.871.871V210.1a.871.871,0,0,0,.871.871h41.506a.871.871,0,0,0,.871-.871V199.1A.871.871,0,0,0,357.241,198.228Zm-.871,11.005H316.606V199.97H356.37Z" transform="translate(-314.864 -198.228)" fill="#fff"/>
            </g>
          </g>
        </g>
        <g id="Group_40557" data-name="Group 40557" transform="translate(103.846 20.761)">
          <g id="Group_40556" data-name="Group 40556">
            <rect id="Rectangle_7682" data-name="Rectangle 7682" width="37.849" height="4.644" fill="#508b82"/>
          </g>
        </g>
        <g id="Group_40560" data-name="Group 40560" transform="translate(109.876 5.707)">
          <g id="Group_40559" data-name="Group 40559" transform="translate(0 0)">
            <g id="Group_40558" data-name="Group 40558">
              <path id="Path_28037" data-name="Path 28037" d="M377.747,171.678h-44.21a.871.871,0,0,0-.871.871v11a.872.872,0,0,0,.871.871h44.21a.871.871,0,0,0,.871-.871v-11A.872.872,0,0,0,377.747,171.678Zm-.871,11H334.408v-9.26h42.468Z" transform="translate(-332.666 -171.678)" fill="#fff"/>
            </g>
          </g>
        </g>
        <g id="Group_40562" data-name="Group 40562" transform="translate(113.927 9.758)">
          <g id="Group_40561" data-name="Group 40561" transform="translate(0 0)">
            <rect id="Rectangle_7683" data-name="Rectangle 7683" width="37.849" height="4.644" fill="#508b82"/>
          </g>
        </g>
        <g id="Group_40565" data-name="Group 40565" transform="translate(0 0)">
          <g id="Group_40564" data-name="Group 40564">
            <g id="Group_40563" data-name="Group 40563">
              <path id="Path_28038" data-name="Path 28038" d="M161.984,157.907H77.326a9.8,9.8,0,0,0-9.791,9.791v81.6a9.8,9.8,0,0,0,9.791,9.791h84.658a9.8,9.8,0,0,0,9.791-9.791V167.7A9.8,9.8,0,0,0,161.984,157.907Zm8.048,91.39a8.057,8.057,0,0,1-8.048,8.048H77.326a8.057,8.057,0,0,1-8.048-8.048V167.7a8.058,8.058,0,0,1,8.048-8.048h84.658a8.057,8.057,0,0,1,8.048,8.048Z" transform="translate(-67.535 -157.907)" fill="#fff"/>
            </g>
          </g>
        </g>
        <g id="Group_40568" data-name="Group 40568" transform="translate(14.554 14.125)">
          <g id="Group_40567" data-name="Group 40567" transform="translate(0 0)">
            <g id="Group_40566" data-name="Group 40566">
              <path id="Path_28039" data-name="Path 28039" d="M171.736,191.991h-63.03a6.055,6.055,0,0,0-6.051,6.046v4.1a.872.872,0,0,0,.871.871h2.311v13.247h-2.311a.871.871,0,0,0-.871.871v22.661a.871.871,0,0,0,.871.871h2.311v13.247h-2.311a.872.872,0,0,0-.871.871v4.1a6.056,6.056,0,0,0,6.051,6.046h63.03a6.052,6.052,0,0,0,6.045-6.046v-60.84A6.053,6.053,0,0,0,171.736,191.991Zm4.3,66.886a4.308,4.308,0,0,1-4.3,4.3h-63.03a4.311,4.311,0,0,1-4.309-4.3v-3.229h2.311a.871.871,0,0,0,.871-.871v-14.99a.871.871,0,0,0-.871-.871H104.4V218h2.311a.871.871,0,0,0,.871-.871V202.137a.871.871,0,0,0-.871-.871H104.4v-3.229a4.311,4.311,0,0,1,4.309-4.3h63.03a4.308,4.308,0,0,1,4.3,4.3v60.84Z" transform="translate(-102.655 -191.991)" fill="#fff"/>
            </g>
          </g>
        </g>
        <g id="Group_40570" data-name="Group 40570" transform="translate(4.054 4.05)">
          <g id="Group_40569" data-name="Group 40569">
            <path id="Path_28040" data-name="Path 28040" d="M93.866,175.445h34.613V167.68H83.054a5.746,5.746,0,0,0-5.737,5.743v81.6a5.746,5.746,0,0,0,5.737,5.742h45.425V253H93.866a8.366,8.366,0,0,1-8.357-8.356V183.8A8.366,8.366,0,0,1,93.866,175.445Z" transform="translate(-77.317 -167.68)" fill="#508b82"/>
          </g>
        </g>
        <g id="Group_40573" data-name="Group 40573" transform="translate(17.737 17.303)">
          <g id="Group_40572" data-name="Group 40572">
            <g id="Group_40571" data-name="Group 40571">
              <path id="Path_28041" data-name="Path 28041" d="M176.233,199.659H113.2a2.87,2.87,0,0,0-2.867,2.867v60.842a2.871,2.871,0,0,0,2.867,2.867h63.032a2.871,2.871,0,0,0,2.867-2.867V202.526A2.87,2.87,0,0,0,176.233,199.659Zm1.125,63.708a1.126,1.126,0,0,1-1.125,1.125H113.2a1.126,1.126,0,0,1-1.125-1.125V202.526A1.126,1.126,0,0,1,113.2,201.4h63.032a1.126,1.126,0,0,1,1.125,1.124v60.842Z" transform="translate(-110.334 -199.659)" fill="#fff"/>
            </g>
          </g>
        </g>
        <g id="Group_40576" data-name="Group 40576" transform="translate(18.263 99.438)">
          <g id="Group_40575" data-name="Group 40575">
            <g id="Group_40574" data-name="Group 40574">
              <path id="Path_28042" data-name="Path 28042" d="M128.961,397.852H112.474a.872.872,0,0,0-.871.871v5.3a.871.871,0,0,0,.871.871h16.487a.871.871,0,0,0,.871-.871v-5.3A.871.871,0,0,0,128.961,397.852Zm-.872,5.3H113.345v-3.554h14.745Z" transform="translate(-111.603 -397.852)" fill="#fff"/>
            </g>
          </g>
        </g>
        <g id="Group_40578" data-name="Group 40578" transform="translate(69.116 100.309)">
          <g id="Group_40577" data-name="Group 40577">
            <rect id="Rectangle_7684" data-name="Rectangle 7684" width="16.486" height="5.296" fill="#92b8b2"/>
          </g>
        </g>
        <g id="Group_40581" data-name="Group 40581" transform="translate(68.245 99.438)">
          <g id="Group_40580" data-name="Group 40580">
            <g id="Group_40579" data-name="Group 40579">
              <path id="Path_28043" data-name="Path 28043" d="M249.568,397.852H233.081a.872.872,0,0,0-.871.871v5.3a.871.871,0,0,0,.871.871h16.487a.871.871,0,0,0,.871-.871v-5.3A.871.871,0,0,0,249.568,397.852Zm-.871,5.3H233.952v-3.554H248.7Z" transform="translate(-232.21 -397.852)" fill="#fff"/>
            </g>
          </g>
        </g>
        <g id="Group_40606" data-name="Group 40606" transform="translate(11.622 23.398)">
          <g id="Group_40605" data-name="Group 40605" transform="translate(0 0)">
            <g id="Group_40604" data-name="Group 40604">
              <path id="Path_28046" data-name="Path 28046" d="M102.565,214.367H96.451a.872.872,0,0,0-.871.871v14.99a.871.871,0,0,0,.871.871h6.114a.871.871,0,0,0,.871-.871v-14.99A.871.871,0,0,0,102.565,214.367Zm-.871,14.99H97.322V216.109h4.372Z" transform="translate(-95.58 -214.367)" fill="#fff"/>
            </g>
          </g>
        </g>
        <g id="Group_40609" data-name="Group 40609" transform="translate(11.622 61.051)">
          <g id="Group_40608" data-name="Group 40608">
            <g id="Group_40607" data-name="Group 40607">
              <path id="Path_28047" data-name="Path 28047" d="M102.565,305.223H96.451a.871.871,0,0,0-.871.871v14.99a.871.871,0,0,0,.871.871h6.114a.871.871,0,0,0,.871-.871v-14.99A.871.871,0,0,0,102.565,305.223Zm-.871,14.99H97.322V306.965h4.372Z" transform="translate(-95.58 -305.223)" fill="#fff"/>
            </g>
          </g>
        </g>
        <g id="Group_40615" data-name="Group 40615" transform="translate(117.06 60.276)" opacity="0.5">
          <g id="Group_40614" data-name="Group 40614">
            <g id="Group_40613" data-name="Group 40613">
              <path id="Path_28049" data-name="Path 28049" d="M373.1,303.354a23.1,23.1,0,1,0,23.1,23.1A23.126,23.126,0,0,0,373.1,303.354Zm0,44.458a21.358,21.358,0,1,1,21.358-21.358A21.383,21.383,0,0,1,373.1,347.812Z" transform="translate(-350.002 -303.354)" fill="#fff"/>
            </g>
          </g>
        </g>
        <g id="Group_40618" data-name="Group 40618" transform="translate(120.428 63.681)" opacity="0.3">
          <g id="Group_40617" data-name="Group 40617">
            <g id="Group_40616" data-name="Group 40616">
              <path id="Path_28050" data-name="Path 28050" d="M362.133,340.024l-1.523.846c.293.527.617,1.05.96,1.551l1.437-.986C362.694,340.979,362.4,340.5,362.133,340.024Zm-2.092-6.269-1.726.238c.083.6.194,1.2.332,1.791l1.7-.4C360.219,334.85,360.117,334.3,360.042,333.755Zm8.212,14.756c.528.294,1.077.567,1.633.811l.7-1.595c-.506-.222-1.007-.471-1.487-.738ZM360.8,336.987l-1.653.551c.192.576.413,1.148.656,1.7l1.595-.7C361.173,338.033,360.971,337.512,360.8,336.987Zm3.213,5.774-1.339,1.114c.385.463.8.916,1.228,1.346q.028.028.058.053l.562-.659.619-.619-.018-.018C364.731,343.589,364.358,343.18,364.009,342.761Zm3.672-26.332-.987-1.436c-.5.343-.987.712-1.453,1.1l1.114,1.339C366.78,317.079,367.226,316.742,367.681,316.429Zm2.9-1.612-.7-1.595c-.553.243-1.1.516-1.633.811l.848,1.522C369.575,315.287,370.075,315.038,370.578,314.817Zm-5.327,31.64c.468.388.957.758,1.453,1.1l.985-1.437c-.452-.31-.9-.646-1.325-1Zm8.474-32.69-.394-1.7c-.586.136-1.177.3-1.755.5l.551,1.653C372.656,314.042,373.193,313.89,373.726,313.766ZM394.9,325.547l1.653-.551c-.191-.572-.412-1.145-.656-1.7l-1.595.7C394.524,324.5,394.726,325.026,394.9,325.547Zm-35.029,5.722q0-.416.019-.832l-1.74-.078c-.014.3-.021.607-.021.912s.008.606.022.908l1.74-.078C359.877,331.824,359.871,331.545,359.871,331.269Zm5.258-12.716-1.232-1.232c-.429.428-.842.881-1.228,1.345l1.34,1.114C364.36,319.357,364.737,318.944,365.128,318.553Zm30.528,10.226,1.725-.24c-.083-.6-.194-1.2-.332-1.79l-1.7.4C395.478,327.683,395.58,328.232,395.656,328.779Zm-2.094-6.267,1.522-.847c-.293-.528-.617-1.049-.959-1.55l-1.437.985C393,321.556,393.294,322.03,393.562,322.512ZM363.007,321.1l-1.437-.985c-.343.5-.666,1.022-.959,1.549l1.522.847C362.4,322.036,362.694,321.561,363.007,321.1Zm-2.662,6.046-1.7-.4c-.137.589-.249,1.191-.332,1.791l1.726.238C360.117,328.237,360.219,327.688,360.345,327.151Zm1.05-3.149-1.595-.7c-.243.552-.463,1.124-.656,1.7l1.653.551C360.972,325.026,361.173,324.5,361.394,324Zm26.626,22.105.986,1.437c.5-.341.986-.712,1.453-1.1l-1.115-1.338C388.919,345.459,388.474,345.8,388.021,346.107Zm-16.434,3.87c.573.191,1.163.358,1.754.5l.4-1.7c-.539-.125-1.077-.277-1.6-.451Zm18.985-5.993,1.233,1.231c.431-.431.843-.884,1.227-1.345l-1.339-1.114C391.342,343.177,390.965,343.59,390.572,343.984Zm-.122-27.9c-.467-.389-.956-.758-1.453-1.1l-.984,1.437c.453.31.9.647,1.324,1Zm-5.328,31.634.7,1.593c.555-.245,1.1-.518,1.632-.811l-.848-1.522C386.128,347.25,385.628,347.5,385.122,347.722Zm7.571-6.29,1.438.983c.343-.5.666-1.023.959-1.549l-1.522-.847C393.3,340.5,393.007,340.974,392.693,341.432Zm4.855-11.078-1.74.082c.013.278.019.557.019.834s-.006.551-.019.828l1.74.078q.021-.453.021-.906C397.57,330.965,397.562,330.659,397.548,330.354Zm-3.243,8.178,1.595.7c.243-.552.463-1.124.656-1.7l-1.653-.551C394.728,337.508,394.527,338.029,394.305,338.532Zm1.049-3.149,1.7.4c.137-.585.249-1.187.333-1.792l-1.727-.238C395.58,334.3,395.479,334.851,395.355,335.383Zm-2.331-16.724c-.386-.464-.8-.915-1.225-1.341l0,0-1.228,1.235c.389.389.765.8,1.118,1.225Zm-12.454-6.924c-.6-.082-1.213-.138-1.812-.165l-.08,1.74c.548.026,1.1.077,1.657.152Zm6.878,2.295c-.527-.293-1.077-.567-1.633-.811l-.7,1.595c.507.223,1.007.471,1.486.738Zm-10.432-.72-.079-1.74c-.6.027-1.213.083-1.814.166l.238,1.726C375.91,313.387,376.467,313.336,377.016,313.31Zm-1.885,37.5c.6.082,1.209.138,1.814.165l.078-1.74c-.552-.025-1.108-.076-1.654-.151Zm6.844-2.033.395,1.7c.588-.137,1.179-.3,1.755-.5l-.551-1.653C383.048,348.5,382.511,348.647,381.975,348.772Zm-3.288.457.08,1.74c.6-.028,1.214-.084,1.813-.167l-.239-1.725C379.795,349.152,379.238,349.2,378.687,349.229Zm5.43-36.665c-.571-.191-1.161-.358-1.755-.5l-.4,1.7c.541.126,1.078.278,1.6.452Z" transform="translate(-358.128 -311.57)" fill="#fff"/>
            </g>
          </g>
        </g>
        <g id="Group_40621" data-name="Group 40621" transform="translate(123.573 66.788)" opacity="0.5">
          <g id="Group_40620" data-name="Group 40620">
            <g id="Group_40619" data-name="Group 40619">
              <path id="Path_28051" data-name="Path 28051" d="M382.3,319.067a16.588,16.588,0,1,0,16.588,16.588A16.607,16.607,0,0,0,382.3,319.067Zm0,31.433a14.846,14.846,0,1,1,14.846-14.845A14.863,14.863,0,0,1,382.3,350.5Z" transform="translate(-365.717 -319.067)" fill="#fff"/>
            </g>
          </g>
        </g>
        <g id="Group_40624" data-name="Group 40624" transform="translate(132.852 71.766)">
          <g id="Group_40623" data-name="Group 40623">
            <g id="Group_40622" data-name="Group 40622">
              <path id="Path_28052" data-name="Path 28052" d="M400.468,341.842a3.659,3.659,0,0,0-.674-7.256h-1.522v-3.508h-2.18v3.508h-1.379v-3.508h-2.18v3.508h-4.426v2.35h1.634a.88.88,0,0,1,1.01.988v9.566a.88.88,0,0,1-1.01.988h-1.634v2.35h4.426V354.3h2.18v-3.474h0V350.8h1.379v3.5h2.18v-3.5h2.145a4.477,4.477,0,0,0,.051-8.954Zm-3.348-4.758a2.158,2.158,0,1,1,0,4.316h-2.407v-4.315h2.407Zm2.636,10.53a2.327,2.327,0,0,1-1.652.684h-3.39v-4.674h3.39a2.337,2.337,0,0,1,1.652,3.99Z" transform="translate(-388.107 -331.078)" fill="#fff"/>
            </g>
          </g>
        </g>
        <g id="Group_41162" data-name="Group 41162" transform="translate(49.387 35.536)">
          <g id="Group_40584" data-name="Group 40584" transform="translate(4.872 4.872)" opacity="0.7">
            <g id="Group_40583" data-name="Group 40583">
              <g id="Group_40582" data-name="Group 40582">
                <path id="Path_28044" data-name="Path 28044" d="M215.271,255.412a9.115,9.115,0,1,0,9.115,9.114A9.125,9.125,0,0,0,215.271,255.412Zm0,16.487a7.372,7.372,0,1,1,7.373-7.373A7.38,7.38,0,0,1,215.271,271.9Z" transform="translate(-206.157 -255.412)" fill="#fff"/>
              </g>
            </g>
          </g>
          <g id="Group_41135" data-name="Group 41135" transform="translate(0.839 0.871)">
            <g id="Group_40589" data-name="Group 40589" transform="translate(12.276 0)">
              <g id="Group_40588" data-name="Group 40588">
                <rect id="Rectangle_7685" data-name="Rectangle 7685" width="1.742" height="2.219" fill="#92b7b1"/>
              </g>
            </g>
            <g id="Group_40591" data-name="Group 40591" transform="translate(12.276 24.076)">
              <g id="Group_40590" data-name="Group 40590">
                <rect id="Rectangle_7686" data-name="Rectangle 7686" width="1.742" height="2.219" fill="#92b7b1"/>
              </g>
            </g>
            <g id="Group_40593" data-name="Group 40593" transform="translate(24.076 12.277)">
              <g id="Group_40592" data-name="Group 40592">
                <rect id="Rectangle_7687" data-name="Rectangle 7687" width="2.218" height="1.742" fill="#92b7b1"/>
              </g>
            </g>
            <g id="Group_40595" data-name="Group 40595" transform="translate(0 12.277)">
              <g id="Group_40594" data-name="Group 40594">
                <rect id="Rectangle_7688" data-name="Rectangle 7688" width="2.218" height="1.742" fill="#92b7b1"/>
              </g>
            </g>
            <g id="Group_40597" data-name="Group 40597" transform="translate(20.257 20.26)">
              <g id="Group_40596" data-name="Group 40596" transform="translate(0 0)">
                <rect id="Rectangle_7689" data-name="Rectangle 7689" width="1.742" height="2.218" transform="translate(0 1.232) rotate(-45)" fill="#92b7b1"/>
              </g>
            </g>
            <g id="Group_40599" data-name="Group 40599" transform="translate(3.233 3.236)">
              <g id="Group_40598" data-name="Group 40598" transform="translate(0 0)">
                <rect id="Rectangle_7690" data-name="Rectangle 7690" width="1.742" height="2.218" transform="translate(0 1.232) rotate(-45)" fill="#92b7b1"/>
              </g>
            </g>
            <g id="Group_40601" data-name="Group 40601" transform="translate(3.234 20.257)">
              <g id="Group_40600" data-name="Group 40600" transform="translate(0 0)">
                <rect id="Rectangle_7691" data-name="Rectangle 7691" width="2.219" height="1.742" transform="matrix(0.707, -0.707, 0.707, 0.707, 0, 1.569)" fill="#92b7b1"/>
              </g>
            </g>
            <g id="Group_40603" data-name="Group 40603" transform="translate(20.259 3.231)">
              <g id="Group_40602" data-name="Group 40602" transform="translate(0 0)">
                <rect id="Rectangle_7692" data-name="Rectangle 7692" width="2.218" height="1.742" transform="translate(0 1.569) rotate(-45)" fill="#92b7b1"/>
              </g>
            </g>
          </g>
          <g id="Group_40587" data-name="Group 40587" transform="translate(0 0)">
            <g id="Group_40586" data-name="Group 40586">
              <g id="Group_40585" data-name="Group 40585">
                <path id="Path_28045" data-name="Path 28045" d="M208.387,243.656a13.986,13.986,0,1,0,13.986,13.986A14,14,0,0,0,208.387,243.656Zm0,26.23a12.244,12.244,0,1,1,12.244-12.244A12.258,12.258,0,0,1,208.387,269.886Z" transform="translate(-194.401 -243.656)" fill="#92b7b1"/>
              </g>
            </g>
          </g>
        </g>
      </g>
      <g id="Group_41164" data-name="Group 41164" transform="translate(139.583 207.695)" opacity="0.5">
        <g id="Group_40869" data-name="Group 40869" transform="translate(51.228 0)">
          <g id="Group_40868" data-name="Group 40868" transform="translate(0 0)">
            <g id="Group_40867" data-name="Group 40867">
              <path id="Path_28123" data-name="Path 28123" d="M294.916,15.664c.654.375,1.3.781,1.921,1.208l1.337-1.949c-.673-.462-1.374-.9-2.082-1.308Zm5.228.729-1.488,1.836c.586.475,1.16.979,1.7,1.5l1.631-1.71C301.4,17.454,300.78,16.908,300.144,16.393Zm-9.327-2.664c.7.265,1.405.563,2.087.884l1.008-2.138c-.739-.349-1.5-.671-2.263-.958Zm-18.262-1.782h2.363V9.584h-2.363Zm31.145,7.84-1.766,1.57c.5.565.984,1.154,1.432,1.753l1.892-1.417C304.77,21.042,304.246,20.4,303.7,19.787Zm-17.236-7.305c.737.147,1.477.327,2.2.535l.651-2.272c-.786-.225-1.589-.42-2.389-.58Zm-4.5-.52c.753.025,1.513.081,2.258.167l.272-2.348c-.809-.094-1.634-.155-2.452-.182Zm-4.687-.015h2.363V9.584h-2.363ZM308.172,44.91h2.363V42.547h-2.363Zm0-7.09v2.363h2.363V37.82Zm0,11.816h2.363V47.273h-2.363Zm.694-21.5-2.2.86c.273.7.513,1.416.713,2.129l2.276-.639C309.433,29.7,309.168,28.911,308.866,28.14Zm-.694,26.223h2.363V52h-2.363ZM306.65,23.728l-2.007,1.248c.4.643.772,1.3,1.1,1.967l2.112-1.061C307.494,25.156,307.087,24.431,306.65,23.728Zm3.553,9.185-2.33.4a20.754,20.754,0,0,1,.26,2.218l2.359-.148A23.349,23.349,0,0,0,310.2,32.913Z" transform="translate(-272.555 -9.584)" fill="#fff"/>
            </g>
          </g>
        </g>
        <g id="Group_40871" data-name="Group 40871" transform="translate(8.626 0)">
          <g id="Group_40870" data-name="Group 40870" transform="translate(0 0)">
            <path id="Path_28124" data-name="Path 28124" d="M170.234,9.584a29.513,29.513,0,0,0-29.479,29.479h2.363a27.146,27.146,0,0,1,27.116-27.116H180.74V9.584Z" transform="translate(-140.755 -9.584)" fill="#fff"/>
          </g>
        </g>
        <g id="Group_40885" data-name="Group 40885" transform="translate(86.845 48.117)">
          <g id="Group_40884" data-name="Group 40884">
            <rect id="Rectangle_7717" data-name="Rectangle 7717" width="2.363" height="10.409" fill="#fff"/>
          </g>
        </g>
        <g id="Group_41165" data-name="Group 41165" transform="translate(8.626 31.994)">
          <g id="Group_40884-2" data-name="Group 40884" transform="translate(0 0)">
            <rect id="Rectangle_7717-2" data-name="Rectangle 7717" width="2.363" height="9.167" fill="#fff"/>
          </g>
        </g>
        <g id="Group_40043" data-name="Group 40043" transform="translate(6.074 34.559) rotate(30)">
          <g id="Group_40042" data-name="Group 40042">
            <path id="Path_27891" data-name="Path 27891" d="M10.117,0,9.667,9.478.736,5.294,0,6.865l11.278,5.282L11.849.082Z" fill="#fff"/>
          </g>
        </g>
      </g>
    </g>
  </g>
</svg>
