<svg xmlns="http://www.w3.org/2000/svg" width="221.386" height="200.305" viewBox="0 0 221.386 200.305">
  <g id="illustration" transform="translate(-61.222 -272.271)">
    <path id="center" d="M37.332,67.735V63.219a25.964,25.964,0,0,0,0-51.928V6.775a30.48,30.48,0,0,1,0,60.96Zm0-15.807a14.673,14.673,0,0,0,0-29.346V18.067a19.188,19.188,0,0,1,0,38.376Zm0-22.572a7.9,7.9,0,0,1,0,15.8ZM0,37.254A37.255,37.255,0,1,0,37.255,0,37.255,37.255,0,0,0,0,37.254Z" transform="translate(136.267 335.267)" fill="#fff" fill-rule="evenodd" opacity="0.892"/>
    <g id="Group_43245" data-name="Group 43245" transform="translate(85.588 284.314)" opacity="0.3">
      <g id="Group_43089" data-name="Group 43089" transform="translate(0 100.272)">
        <g id="Group_43088" data-name="Group 43088">
          <g id="Group_43087" data-name="Group 43087">
            <path id="Path_117019" data-name="Path 117019" d="M68.218,316.969l-2.443.736q.375,1.242.784,2.469l2.42-.809Q68.582,318.175,68.218,316.969Zm-1.31-4.853-2.482.591q.3,1.262.637,2.509l2.464-.664Q67.2,313.341,66.908,312.116Zm-1.524-8.13-2.528.339c.034.253.07.507.107.759l2.523-.374Q65.433,304.349,65.384,303.986Zm.5,3.205-2.512.445q.225,1.277.488,2.542l2.5-.517Q66.108,308.433,65.889,307.191ZM71.679,326.4l-2.339,1.02q.518,1.188,1.07,2.358l2.307-1.088Q72.183,327.558,71.679,326.4Zm-1.87-4.666-2.4.88q.449,1.217.929,2.417l2.367-.95Q70.244,322.919,69.809,321.737Zm6.419,13.629-2.2,1.288q.653,1.117,1.336,2.215l2.166-1.349Q76.863,336.453,76.228,335.366Zm2.661,4.266-2.125,1.414q.718,1.079,1.465,2.134l2.083-1.473Q79.585,340.68,78.889,339.632Zm-5.067-8.681-2.276,1.155q.587,1.158,1.207,2.292l2.24-1.223Q74.392,332.074,73.822,330.951Z" transform="translate(-62.856 -303.986)" fill="#fff"/>
          </g>
        </g>
      </g>
      <g id="Group_43092" data-name="Group 43092" transform="translate(48.447 165.454)">
        <g id="Group_43091" data-name="Group 43091">
          <g id="Group_43090" data-name="Group 43090">
            <path id="Path_117020" data-name="Path 117020" d="M188.74,456.361q1.261.285,2.533.536l.492-2.5q-1.236-.243-2.46-.521Zm-19.473-6.92q1.16.576,2.339,1.115l1.063-2.319q-1.144-.525-2.268-1.081Zm14.46,5.625q1.241.36,2.5.685l.64-2.47q-1.22-.315-2.425-.665Zm10.094,2.293q1.274.213,2.561.387l.344-2.528q-1.248-.169-2.484-.375Zm-15.02-3.882q1.217.432,2.451.831l.784-2.428q-1.2-.387-2.381-.807Zm-4.827-1.878q1.191.5,2.4.974l.925-2.377q-1.174-.457-2.33-.946Zm24.977,6.459q1.283.137,2.578.237l.2-2.543q-1.257-.1-2.5-.23Zm15.336-2.248.174,2.545q1.3-.089,2.578-.212l-.244-2.54Q215.547,455.724,214.287,455.81Zm12.438-1.758q-1.224.266-2.463.5l.465,2.509q1.276-.237,2.539-.512Zm-7.431,1.273.321,2.532q1.287-.163,2.563-.362l-.4-2.522Q220.544,455.167,219.294,455.325Zm-10.03.677.025,2.551q1.3-.012,2.587-.062l-.1-2.55Q210.527,455.991,209.265,456Zm-5.152,2.453q1.289.062,2.586.087l.05-2.551q-1.261-.024-2.514-.084Z" transform="translate(-169.267 -447.155)" fill="#fff"/>
          </g>
        </g>
      </g>
      <g id="Group_43095" data-name="Group 43095" transform="translate(144.02 113.622)">
        <g id="Group_43094" data-name="Group 43094">
          <g id="Group_43093" data-name="Group 43093">
            <path id="Path_117021" data-name="Path 117021" d="M389.638,362l1.985,1.6q.813-1.007,1.6-2.038l-2.031-1.543Q390.427,361.021,389.638,362Zm-3.271,3.819,1.889,1.716q.871-.958,1.713-1.942l-1.939-1.659Q387.212,364.889,386.367,365.819Zm-3.487,3.623,1.787,1.823q.923-.907,1.822-1.839l-1.839-1.769Q383.779,368.562,382.88,369.442Zm9.8-11.447,2.075,1.485q.754-1.054,1.475-2.13l-2.118-1.422Q393.411,356.973,392.681,358Zm-13.491,14.86,1.676,1.924q.977-.851,1.927-1.729l-1.733-1.874Q380.137,372.028,379.19,372.855Zm25.7-39.547q-.37,1.2-.773,2.4l2.417.817q.415-1.224.795-2.464Zm-4.556,11.709,2.3,1.1q.556-1.167,1.079-2.353l-2.334-1.03Q400.873,343.881,400.332,345.017Zm-4.85,8.8,2.158,1.361q.69-1.1,1.349-2.21l-2.2-1.3Q396.152,352.757,395.483,353.821Zm6.88-13.406,2.364.96q.487-1.2.939-2.414l-2.39-.891Q402.834,339.25,402.362,340.414Zm-4.325,9.075,2.234,1.231q.626-1.134,1.217-2.287l-2.271-1.165Q398.643,348.388,398.037,349.49Z" transform="translate(-379.19 -333.308)" fill="#fff"/>
          </g>
        </g>
      </g>
      <g id="Group_43098" data-name="Group 43098" transform="translate(154.481 32.959)">
        <g id="Group_43097" data-name="Group 43097">
          <g id="Group_43096" data-name="Group 43096">
            <path id="Path_117022" data-name="Path 117022" d="M412.8,169.017l-2.236,1.229q.606,1.1,1.181,2.221l2.271-1.165Q413.421,170.149,412.8,169.017Zm2.362,4.606-2.3,1.1q.541,1.132,1.049,2.285l2.334-1.03Q415.716,174.79,415.16,173.623Zm-4.992-9.066-2.16,1.359q.669,1.064,1.309,2.148l2.2-1.3Q410.858,165.65,410.168,164.557Zm-6.016-8.422-1.985,1.6q.789.979,1.549,1.981l2.033-1.543Q404.964,157.142,404.152,156.135Zm3.131,4.123-2.077,1.483q.731,1.023,1.432,2.067l2.118-1.424Q408.036,161.311,407.283,160.258Zm9.964,18.1-2.364.96q.472,1.162.911,2.343l2.392-.891Q417.733,179.557,417.247,178.361Zm4.543,14.833-2.495.532q.091.426.176.852l2.5-.5C421.914,193.78,421.852,193.486,421.79,193.194Zm-1.221-5.029-2.46.674q.331,1.211.63,2.435l2.479-.6Q420.911,189.41,420.569,188.164Zm-1.517-4.951-2.417.819q.4,1.188.773,2.394l2.438-.749Q419.467,184.437,419.053,183.213Z" transform="translate(-402.167 -156.135)" fill="#fff"/>
          </g>
        </g>
      </g>
      <g id="Group_43101" data-name="Group 43101" transform="translate(65.496)">
        <g id="Group_43100" data-name="Group 43100">
          <g id="Group_43099" data-name="Group 43099">
            <path id="Path_117023" data-name="Path 117023" d="M216.873,84.542l.342,2.528q1.242-.168,2.5-.3l-.269-2.537Q218.154,84.369,216.873,84.542Zm10.365,1.767c.836-.016,1.677-.018,2.517-.01l.027-2.551q-1.3-.015-2.591.01Zm5.029.053q1.261.05,2.513.135l.174-2.545q-1.287-.089-2.586-.14Zm-25.552.164.636,2.47q1.215-.313,2.443-.59l-.561-2.489Q207.968,86.2,206.716,86.527Zm5.049-1.141.49,2.5q1.23-.24,2.473-.444l-.414-2.519Q213.035,85.137,211.766,85.386ZM222.022,84l.193,2.545q1.25-.095,2.51-.154l-.12-2.548Q223.308,83.9,222.022,84ZM252.1,89.487q1.214.341,2.41.716l.763-2.435q-1.232-.385-2.482-.738Zm4.8,1.5q1.19.411,2.364.856l.906-2.386q-1.209-.46-2.435-.883Zm5.676-.576-.975,2.359q.588.243,1.173.495l1.01-2.344Q263.176,90.665,262.57,90.414Zm-15.353-2.143q1.231.268,2.448.572l.62-2.475q-1.255-.314-2.523-.59Zm-4.942-.928q1.245.2,2.478.428l.472-2.509q-1.271-.238-2.552-.44Zm-4.988-.636q1.256.122,2.5.281l.322-2.532q-1.28-.163-2.572-.29Z" transform="translate(-206.716 -83.743)" fill="#fff"/>
          </g>
        </g>
      </g>
      <g id="Group_43104" data-name="Group 43104" transform="translate(4.524 23.09)">
        <g id="Group_43103" data-name="Group 43103">
          <g id="Group_43102" data-name="Group 43102">
            <path id="Path_117024" data-name="Path 117024" d="M79.389,155.373l2.2,1.284q.634-1.088,1.3-2.154l-2.166-1.349Q80.041,154.254,79.389,155.373Zm2.734-4.4,2.126,1.41q.7-1.049,1.42-2.075l-2.085-1.472Q82.839,149.9,82.123,150.978Zm-5.207,8.943,2.277,1.153q.568-1.124,1.168-2.228l-2.243-1.218Q77.5,158.765,76.916,159.921Zm-2.2,4.687,2.341,1.017q.5-1.155,1.036-2.292l-2.311-1.084Q75.231,163.421,74.715,164.608Zm-1.922,4.809,2.4.876q.431-1.181.9-2.347L73.719,167Q73.238,168.2,72.793,169.417Zm19-30.569,1.849,1.759q.867-.911,1.76-1.8L93.607,137Q92.689,137.912,91.8,138.849Zm4.484-4.391q-.4.369-.806.744l1.741,1.866q.391-.365.787-.726ZM88.338,142.7l1.947,1.648q.813-.96,1.653-1.9l-1.9-1.7Q89.174,141.713,88.338,142.7Zm-3.228,4.047,2.04,1.532q.755-1.005,1.539-1.988l-2-1.591Q85.888,145.713,85.11,146.749Z" transform="translate(-72.793 -134.458)" fill="#fff"/>
          </g>
        </g>
      </g>
      <g id="Group_43107" data-name="Group 43107" transform="translate(89.356 14.772)">
        <g id="Group_43106" data-name="Group 43106">
          <g id="Group_43105" data-name="Group 43105">
            <path id="Path_117025" data-name="Path 117025" d="M266.691,124.536l1.528,2.043c.656-.491,1.337-.967,2.024-1.417l-1.4-2.135C268.116,123.5,267.39,124.013,266.691,124.536Zm-7.569,7.269,1.979,1.611c.518-.636,1.064-1.266,1.62-1.871l-1.877-1.728C260.252,130.46,259.673,131.129,259.122,131.805Zm3.561-3.866,1.767,1.841c.6-.574,1.214-1.131,1.835-1.658l-1.651-1.945C263.973,126.736,263.317,127.329,262.683,127.939Zm8.411-6.282,1.259,2.219c.713-.4,1.449-.792,2.186-1.151l-1.116-2.294C272.636,120.814,271.853,121.226,271.094,121.657Zm17.412-5.468c-.87.092-1.743.208-2.594.343l.4,2.52c.806-.129,1.634-.238,2.461-.326Zm-7.719,1.457.684,2.458c.783-.218,1.592-.418,2.4-.595l-.541-2.494C282.473,117.2,281.616,117.415,280.786,117.646Zm-4.967,1.706.973,2.359c.765-.316,1.543-.61,2.312-.873l-.825-2.414C277.461,118.7,276.633,119.016,275.819,119.352Z" transform="translate(-259.122 -116.189)" fill="#fff"/>
          </g>
        </g>
      </g>
      <g id="Group_43110" data-name="Group 43110" transform="translate(32.13 29.108)">
        <g id="Group_43109" data-name="Group 43109">
          <g id="Group_43108" data-name="Group 43108">
            <path id="Path_117026" data-name="Path 117026" d="M136.139,156.893l-2.54-.249c-.086.877-.143,1.762-.171,2.63l2.55.081C136,158.544,136.058,157.715,136.139,156.893Zm-.156,4.927-2.55.092c.031.879.093,1.764.183,2.632l2.538-.264C136.07,163.469,136.012,162.642,135.983,161.82Zm1.937-13.355-2.427-.789q-.2.621-.38,1.232l2.448.718Q137.731,149.048,137.92,148.465Zm-.983,3.554-2.489-.568c-.2.861-.367,1.729-.507,2.581l2.518.413C136.591,153.646,136.752,152.829,136.937,152.019Zm2.568,24.04-2.292,1.12c.391.8.812,1.587,1.251,2.335l2.2-1.293C140.258,177.53,139.868,176.8,139.505,176.059Zm-3.012-9.341-2.514.437c.149.862.332,1.731.542,2.582l2.477-.61C136.8,168.332,136.634,167.522,136.493,166.718Zm1.178,4.779-2.428.781c.268.835.57,1.67.9,2.485l2.367-.952C138.2,173.054,137.921,172.275,137.671,171.5Z" transform="translate(-133.428 -147.676)" fill="#fff"/>
          </g>
        </g>
      </g>
      <g id="Group_43113" data-name="Group 43113" transform="translate(52.455 142.962)">
        <g id="Group_43112" data-name="Group 43112">
          <g id="Group_43111" data-name="Group 43111">
            <path id="Path_117027" data-name="Path 117027" d="M182.991,410.924l.47,2.509c.855-.16,1.718-.346,2.561-.553l-.608-2.479C184.616,410.6,183.8,410.773,182.991,410.924Zm4.811-1.185.751,2.438c.83-.255,1.667-.541,2.487-.849l-.9-2.389C189.371,409.23,188.583,409.5,187.8,409.74Zm-9.731,1.832.2,2.543c.863-.066,1.739-.159,2.6-.272l-.332-2.53C179.719,411.421,178.889,411.508,178.071,411.572ZM196.8,405.7l1.322,2.183c.746-.453,1.488-.936,2.207-1.437l-1.461-2.093C198.2,404.827,197.5,405.279,196.8,405.7Zm9.4-7.951c-.539.621-1.1,1.232-1.68,1.818l1.821,1.787c.612-.623,1.212-1.273,1.784-1.931Zm-5.353,5.128,1.588,2c.68-.541,1.355-1.112,2.007-1.7l-1.708-1.9C202.129,401.834,201.493,402.371,200.855,402.88ZM192.428,408l1.044,2.329c.8-.359,1.6-.746,2.367-1.149l-1.186-2.259C193.931,407.3,193.182,407.663,192.428,408Z" transform="translate(-178.071 -397.752)" fill="#fff"/>
          </g>
        </g>
      </g>
      <g id="Group_43116" data-name="Group 43116" transform="translate(135.843 57.492)">
        <g id="Group_43115" data-name="Group 43115">
          <g id="Group_43114" data-name="Group 43114">
            <path id="Path_117028" data-name="Path 117028" d="M366.1,213.417c.8.193,1.6.413,2.384.654l.751-2.438c-.832-.257-1.686-.491-2.538-.7Zm4.723,1.453c.766.289,1.534.606,2.283.943l1.049-2.326c-.8-.36-1.616-.7-2.431-1.005Zm-9.593-2.314c.82.094,1.644.214,2.448.356l.445-2.512c-.855-.152-1.73-.28-2.6-.38Zm23.888,8.093-1.7,1.9c.621.555,1.227,1.127,1.8,1.7l1.807-1.8C386.416,221.843,385.775,221.237,385.117,220.649Zm3.707,3.7-1.9,1.706q.565.628,1.121,1.293l1.957-1.636Q389.419,225.01,388.824,224.35Zm-13.5-7.448c.718.38,1.442.792,2.148,1.223l1.331-2.178c-.752-.458-1.521-.9-2.286-1.3Zm4.216,2.576c.668.467,1.335.963,1.983,1.478l1.587-2c-.689-.546-1.4-1.075-2.107-1.571Z" transform="translate(-361.229 -210.021)" fill="#fff"/>
          </g>
        </g>
      </g>
      <g id="Group_43119" data-name="Group 43119" transform="translate(6.708 97.437)">
        <g id="Group_43118" data-name="Group 43118">
          <g id="Group_43117" data-name="Group 43117">
            <path id="Path_117029" data-name="Path 117029" d="M79.643,301.835c.569.655,1.164,1.3,1.768,1.931l1.836-1.772c-.573-.594-1.137-1.21-1.677-1.832Zm3.64,3.766c.638.591,1.3,1.173,1.974,1.727l1.625-1.967c-.635-.524-1.262-1.073-1.865-1.632Zm-3.671-7.843-2.021,1.557.39.5,2.01-1.572Zm7.723,11.181c.712.518,1.441,1.016,2.169,1.482l1.375-2.149c-.686-.438-1.374-.908-2.043-1.4Zm14.174,6.736c.842.22,1.7.418,2.563.587l.493-2.5c-.807-.159-1.619-.345-2.41-.552Zm5.5-1.511-.341,2.528c.866.117,1.746.208,2.615.272l.186-2.545C108.649,314.36,107.821,314.275,107.006,314.165Zm-15.243-2.4c.77.427,1.557.831,2.338,1.2l1.1-2.3c-.735-.35-1.474-.73-2.2-1.13Zm4.75,2.26c.811.326,1.644.629,2.472.9l.8-2.423c-.778-.256-1.558-.541-2.321-.847Z" transform="translate(-77.59 -297.758)" fill="#fff"/>
          </g>
        </g>
      </g>
      <g id="Group_43122" data-name="Group 43122" transform="translate(135.416 115.395)">
        <g id="Group_43121" data-name="Group 43121">
          <g id="Group_43120" data-name="Group 43120">
            <path id="Path_117030" data-name="Path 117030" d="M362.781,345.256l2.472-.631c-.214-.84-.46-1.69-.73-2.527l-2.429.784C362.348,343.669,362.579,344.468,362.781,345.256Zm1.235,9.784h2.551c0-.877-.027-1.762-.082-2.629l-2.546.159C363.991,353.385,364.017,354.216,364.017,355.04ZM362.605,337.2l-2.314,1.073c.347.749.674,1.514.972,2.275l2.376-.93C363.323,338.814,362.975,338,362.605,337.2Zm1.1,12.906,2.532-.319c-.109-.861-.247-1.736-.411-2.6l-2.507.477C363.474,348.48,363.6,349.3,363.706,350.11Zm-2.131,18.942,2.41.837q.335-.963.622-1.911l-2.442-.741Q361.893,368.137,361.574,369.052Zm2.139-9.078,2.532.312c.107-.864.188-1.744.243-2.617l-2.547-.158C363.89,358.332,363.813,359.161,363.713,359.974Zm-.894,4.871,2.479.6c.207-.848.391-1.711.549-2.564l-2.51-.463C363.188,363.226,363.014,364.042,362.82,364.844Z" transform="translate(-360.291 -337.204)" fill="#fff"/>
          </g>
        </g>
      </g>
    </g>
    <g id="Group_43246" data-name="Group 43246" transform="translate(61.222 272.271)" opacity="0.5">
      <g id="Group_43125" data-name="Group 43125" transform="translate(47.271)">
        <g id="Group_43124" data-name="Group 43124">
          <g id="Group_43123" data-name="Group 43123">
            <path id="Path_117031" data-name="Path 117031" d="M158.536,78.984a22.7,22.7,0,1,0-22.7,23.705c.343,0,.688-.007,1.033-.023a22.694,22.694,0,0,0,21.667-23.682ZM150.725,93.59a20.146,20.146,0,1,1-15.759-33.725c.3-.013.6-.02.9-.02A20.146,20.146,0,0,1,150.725,93.59Z" transform="translate(-113.164 -57.292)" fill="#fff"/>
          </g>
        </g>
      </g>
      <g id="Group_43128" data-name="Group 43128" transform="translate(127.808 154.907)">
        <g id="Group_43127" data-name="Group 43127">
          <g id="Group_43126" data-name="Group 43126">
            <path id="Path_117032" data-name="Path 117032" d="M335.432,419.231a22.7,22.7,0,1,0-22.7,23.706q.514,0,1.033-.023a22.7,22.7,0,0,0,21.666-23.683Zm-7.81,14.606a20.146,20.146,0,1,1-15.759-33.725c.3-.013.6-.02.906-.02a20.146,20.146,0,0,1,14.853,33.745Z" transform="translate(-290.061 -397.539)" fill="#fff"/>
          </g>
        </g>
      </g>
      <g id="Group_43131" data-name="Group 43131" transform="translate(175.991 81.916)">
        <g id="Group_43130" data-name="Group 43130">
          <g id="Group_43129" data-name="Group 43129">
            <path id="Path_117033" data-name="Path 117033" d="M441.264,258.909a22.7,22.7,0,1,0-22.7,23.705c.343,0,.688-.007,1.033-.023a22.7,22.7,0,0,0,21.667-23.682Zm-7.811,14.606a20.146,20.146,0,1,1-15.759-33.725c.3-.013.6-.02.9-.02a20.146,20.146,0,0,1,14.854,33.745Z" transform="translate(-395.892 -237.217)" fill="#fff"/>
          </g>
        </g>
      </g>
      <g id="Group_43149" data-name="Group 43149" transform="translate(0 68.298)">
        <g id="Group_43148" data-name="Group 43148">
          <g id="Group_43147" data-name="Group 43147">
            <path id="Path_117039" data-name="Path 117039" d="M54.707,229a22.7,22.7,0,1,0-22.7,23.705c.343,0,.688-.007,1.033-.023A22.7,22.7,0,0,0,54.707,229ZM46.9,243.6a20.146,20.146,0,1,1-15.758-33.725c.3-.013.6-.02.9-.02A20.146,20.146,0,0,1,46.9,243.6Z" transform="translate(-9.335 -207.305)" fill="#fff"/>
          </g>
        </g>
      </g>
      <g id="Group_43152" data-name="Group 43152" transform="translate(143.017 7.004)">
        <g id="Group_43151" data-name="Group 43151">
          <g id="Group_43150" data-name="Group 43150">
            <path id="Path_117040" data-name="Path 117040" d="M368.839,94.367a22.7,22.7,0,1,0-22.7,23.705q.514,0,1.033-.023a22.7,22.7,0,0,0,21.667-23.682Zm-7.811,14.606A20.146,20.146,0,1,1,345.27,75.248c.3-.013.6-.02.9-.02a20.146,20.146,0,0,1,14.854,33.745Z" transform="translate(-323.467 -72.675)" fill="#fff"/>
          </g>
        </g>
      </g>
      <g id="Group_43155" data-name="Group 43155" transform="translate(32.236 144.148)">
        <g id="Group_43154" data-name="Group 43154">
          <g id="Group_43153" data-name="Group 43153">
            <path id="Path_117041" data-name="Path 117041" d="M125.513,395.6a22.726,22.726,0,0,0-22.663-21.69c-.338,0-.678.007-1.019.023a22.7,22.7,0,0,0,.982,45.373q.514,0,1.033-.023A22.7,22.7,0,0,0,125.513,395.6ZM117.7,410.2a20.146,20.146,0,1,1-15.758-33.725c.3-.013.6-.02.9-.02A20.146,20.146,0,0,1,117.7,410.2Z" transform="translate(-80.141 -373.906)" fill="#fff"/>
          </g>
        </g>
      </g>
    </g>
    <g id="Group_43244" data-name="Group 43244" transform="translate(66.46 277.54)" opacity="0.376">
      <g id="Group_43134" data-name="Group 43134" transform="translate(0 68.297)">
        <g id="Group_43133" data-name="Group 43133">
          <g id="Group_43132" data-name="Group 43132">
            <path id="Path_117034" data-name="Path 117034" d="M23.393,236.3a14.961,14.961,0,0,1,.118-1.872l-2.532-.322a17.533,17.533,0,0,0-.138,2.2c0,.181,0,.362.009.545l2.55-.075C23.4,236.612,23.394,236.451,23.393,236.3Zm1.853,7.206-2.233,1.236a17.463,17.463,0,0,0,1.519,2.292l2.008-1.573A14.854,14.854,0,0,1,25.246,243.5Zm1.146,5.553a17.6,17.6,0,0,0,2.15,1.71l1.427-2.117a15.16,15.16,0,0,1-1.84-1.461ZM23.657,239.1l-2.507.478a17.542,17.542,0,0,0,.726,2.652l2.4-.867A14.9,14.9,0,0,1,23.657,239.1Zm3.818-13.026-1.851-1.756a17.384,17.384,0,0,0-1.729,2.137L26,227.9A15.158,15.158,0,0,1,27.475,226.077Zm-2.65,3.859-2.3-1.1a17.382,17.382,0,0,0-.981,2.57l2.448.718A14.839,14.839,0,0,1,24.825,229.936Zm28.154,3.769,2.514-.443a17.454,17.454,0,0,0-.69-2.662l-2.412.834A14.808,14.808,0,0,1,52.979,233.705ZM31.188,223.225l-1.218-2.243a17.539,17.539,0,0,0-2.3,1.5l1.553,2.023A15.07,15.07,0,0,1,31.188,223.225Zm20.26,6.06,2.249-1.206a17.41,17.41,0,0,0-1.489-2.312l-2.03,1.547A14.771,14.771,0,0,1,51.448,229.285Zm-1.071-5.567a17.619,17.619,0,0,0-2.13-1.739l-1.454,2.1a14.9,14.9,0,0,1,1.819,1.484ZM49.26,246.39l1.872,1.733a17.357,17.357,0,0,0,1.7-2.16l-2.123-1.415A14.907,14.907,0,0,1,49.26,246.39Zm-3.675,2.9,1.247,2.226a17.432,17.432,0,0,0,2.284-1.529l-1.582-2A15.07,15.07,0,0,1,45.586,249.293Zm6.273-6.794,2.319,1.063a17.533,17.533,0,0,0,.946-2.583l-2.459-.684A15.039,15.039,0,0,1,51.859,242.5Zm3.883-6.967-2.549.113c.009.225.014.449.014.672a15.163,15.163,0,0,1-.094,1.675l2.535.286a17.649,17.649,0,0,0,.111-1.961C55.759,236.056,55.753,235.795,55.742,235.532ZM43.307,219.6l-.729,2.445a14.969,14.969,0,0,1,2.189.848l1.1-2.3A17.547,17.547,0,0,0,43.307,219.6Zm-2.112,31.3.49,2.5a17.252,17.252,0,0,0,2.651-.742l-.882-2.394A14.826,14.826,0,0,1,41.2,250.906Zm-4.681.178-.3,2.533a17.534,17.534,0,0,0,2.073.122c.222,0,.445,0,.669-.012l-.091-2.55A15.434,15.434,0,0,1,36.514,251.084Zm-4.031-31.218.849,2.405a14.851,14.851,0,0,1,2.267-.6l-.455-2.51A17.244,17.244,0,0,0,32.483,219.867Zm5.391-.987.061,2.551a14.907,14.907,0,0,1,2.346.126l.337-2.53A18.049,18.049,0,0,0,37.874,218.88Zm-6.936,33.239a17.417,17.417,0,0,0,2.577.958l.7-2.453a14.957,14.957,0,0,1-2.2-.819Z" transform="translate(-20.841 -218.875)" fill="#fff"/>
          </g>
        </g>
      </g>
      <g id="Group_43137" data-name="Group 43137" transform="translate(32.237 144.292)">
        <g id="Group_43136" data-name="Group 43136">
          <g id="Group_43135" data-name="Group 43135">
            <path id="Path_117035" data-name="Path 117035" d="M97.2,415.974a17.6,17.6,0,0,0,2.15,1.71l1.427-2.116a15.126,15.126,0,0,1-1.84-1.461Zm-1.567-19.118-2.3-1.1a17.328,17.328,0,0,0-.981,2.57l2.448.718A14.8,14.8,0,0,1,95.632,396.857Zm.422,13.566-2.233,1.236a17.437,17.437,0,0,0,1.519,2.293l2.008-1.573A14.751,14.751,0,0,1,96.054,410.423Zm-1.591-4.4-2.507.478a17.6,17.6,0,0,0,.726,2.652l2.4-.867A14.819,14.819,0,0,1,94.463,406.024ZM98.282,393l-1.851-1.756a17.387,17.387,0,0,0-1.729,2.137l2.1,1.444A15.194,15.194,0,0,1,98.282,393ZM102,390.145l-1.218-2.243a17.541,17.541,0,0,0-2.3,1.5l1.553,2.023A15.1,15.1,0,0,1,102,390.145Zm21.791,10.478,2.514-.443a17.268,17.268,0,0,0-.692-2.663l-2.41.835A14.722,14.722,0,0,1,123.786,400.623Zm-1.531-4.42L124.5,395a17.41,17.41,0,0,0-1.488-2.312l-2.03,1.547A14.829,14.829,0,0,1,122.255,396.2Zm-1.07-5.567a17.57,17.57,0,0,0-2.13-1.738L117.6,391a14.94,14.94,0,0,1,1.819,1.484ZM94.2,403.216a14.924,14.924,0,0,1,.118-1.871l-2.532-.322a17.588,17.588,0,0,0-.138,2.2c0,.181,0,.362.009.544l2.55-.074C94.2,403.531,94.2,403.37,94.2,403.216Zm22.193,12.995,1.247,2.226a17.474,17.474,0,0,0,2.284-1.529l-1.582-2A15.009,15.009,0,0,1,116.393,416.211Zm3.675-2.9,1.872,1.733a17.39,17.39,0,0,0,1.7-2.16l-2.123-1.415A14.952,14.952,0,0,1,120.067,413.31Zm6.481-10.859-2.549.113c.009.225.014.449.014.672a15.05,15.05,0,0,1-.094,1.675l2.535.286a17.539,17.539,0,0,0,.111-1.961C126.565,402.975,126.56,402.714,126.548,402.451Zm-3.883,6.967,2.319,1.063a17.532,17.532,0,0,0,.946-2.583l-2.459-.684A15.039,15.039,0,0,1,122.665,409.418Zm-20.92,9.619a17.531,17.531,0,0,0,2.578.959l.7-2.455a14.788,14.788,0,0,1-2.2-.818Zm12.368-32.516-.729,2.445a14.974,14.974,0,0,1,2.189.848l1.1-2.3A17.521,17.521,0,0,0,114.113,386.521ZM107.321,418l-.3,2.533a17.517,17.517,0,0,0,2.072.122c.222,0,.445,0,.67-.011l-.092-2.55A15.483,15.483,0,0,1,107.321,418Zm4.681-.178.49,2.5a17.243,17.243,0,0,0,2.651-.742l-.882-2.394A14.811,14.811,0,0,1,112,417.825Zm-8.712-31.039.849,2.405a14.81,14.81,0,0,1,2.266-.6l-.455-2.51A17.151,17.151,0,0,0,103.29,386.786Zm5.391-.988.061,2.551a14.679,14.679,0,0,1,2.346.125l.337-2.53A17.927,17.927,0,0,0,108.68,385.8Z" transform="translate(-91.648 -385.794)" fill="#fff"/>
          </g>
        </g>
      </g>
      <g id="Group_43140" data-name="Group 43140" transform="translate(127.808 154.907)">
        <g id="Group_43139" data-name="Group 43139">
          <g id="Group_43138" data-name="Group 43138">
            <path id="Path_117036" data-name="Path 117036" d="M308.2,416.311l-1.851-1.756a17.422,17.422,0,0,0-1.729,2.137l2.1,1.444A15.162,15.162,0,0,1,308.2,416.311Zm-2.651,3.86-2.3-1.1a17.384,17.384,0,0,0-.981,2.57l2.448.718A14.855,14.855,0,0,1,305.549,420.171Zm-1.432,6.361a14.968,14.968,0,0,1,.118-1.872l-2.532-.322a17.531,17.531,0,0,0-.138,2.2c0,.181,0,.362.009.545l2.55-.074C304.12,426.846,304.118,426.685,304.117,426.532Zm1.853,7.2-2.231,1.237a17.488,17.488,0,0,0,1.519,2.292l2.009-1.573A14.934,14.934,0,0,1,305.969,433.737Zm-1.59-4.4-2.507.475a17.288,17.288,0,0,0,.728,2.655l2.4-.869A14.759,14.759,0,0,1,304.38,429.34Zm7.532-15.879-1.216-2.243a17.375,17.375,0,0,0-2.3,1.5l1.553,2.023A15.048,15.048,0,0,1,311.912,413.461ZM333.7,423.939l2.514-.443a17.318,17.318,0,0,0-.692-2.663l-2.41.835A14.705,14.705,0,0,1,333.7,423.939Zm-2.6-9.987a17.573,17.573,0,0,0-2.13-1.738l-1.454,2.1a14.9,14.9,0,0,1,1.819,1.484Zm1.07,5.568,2.25-1.206A17.414,17.414,0,0,0,332.934,416l-2.03,1.547A14.845,14.845,0,0,1,332.173,419.52Zm-25.057,19.77a17.6,17.6,0,0,0,2.15,1.71l1.427-2.117a15.125,15.125,0,0,1-1.84-1.461Zm19.195.239,1.249,2.224a17.483,17.483,0,0,0,2.282-1.528l-1.582-2A15.039,15.039,0,0,1,326.311,439.528Zm6.273-6.795L334.9,433.8a17.53,17.53,0,0,0,.946-2.583l-2.458-.684A15.005,15.005,0,0,1,332.584,432.734Zm-2.6,3.892,1.872,1.733a17.353,17.353,0,0,0,1.7-2.16l-2.123-1.415A14.945,14.945,0,0,1,329.985,436.625Zm-5.954-26.789-.729,2.445a14.965,14.965,0,0,1,2.189.848l1.1-2.3A17.558,17.558,0,0,0,324.031,409.836Zm12.435,15.93-2.549.113q.015.338.015.672a14.943,14.943,0,0,1-.094,1.675l2.535.286a17.541,17.541,0,0,0,.111-1.961C336.484,426.291,336.478,426.03,336.466,425.766ZM318.6,409.115l.061,2.551a14.676,14.676,0,0,1,2.346.125l.337-2.53A17.925,17.925,0,0,0,318.6,409.115Zm-5.391.987.849,2.406a14.852,14.852,0,0,1,2.267-.6l-.455-2.51A17.206,17.206,0,0,0,313.208,410.1Zm4.031,31.216-.3,2.533a17.658,17.658,0,0,0,2.073.123c.222,0,.445,0,.669-.012l-.091-2.55A15.158,15.158,0,0,1,317.239,441.318Zm-5.576,1.035a17.417,17.417,0,0,0,2.577.958l.7-2.454a15.01,15.01,0,0,1-2.2-.819Zm10.257-1.212.49,2.5a17.254,17.254,0,0,0,2.651-.742l-.882-2.394A14.833,14.833,0,0,1,321.921,441.141Z" transform="translate(-301.565 -409.11)" fill="#fff"/>
          </g>
        </g>
      </g>
      <g id="Group_43143" data-name="Group 43143" transform="translate(175.99 81.995)">
        <g id="Group_43142" data-name="Group 43142">
          <g id="Group_43141" data-name="Group 43141">
            <path id="Path_117037" data-name="Path 117037" d="M412.946,279.14a17.561,17.561,0,0,0,2.151,1.71l1.427-2.117a15.165,15.165,0,0,1-1.84-1.461Zm-1.567-19.118-2.3-1.1a17.38,17.38,0,0,0-.981,2.57l2.448.717A14.994,14.994,0,0,1,411.38,260.022Zm-1.169,9.167-2.507.478a17.546,17.546,0,0,0,.726,2.652l2.4-.867A14.847,14.847,0,0,1,410.211,269.189Zm3.821-13.026-1.851-1.756a17.42,17.42,0,0,0-1.729,2.137l2.1,1.444A15.119,15.119,0,0,1,414.031,256.163ZM411.8,273.588l-2.233,1.236a17.433,17.433,0,0,0,1.519,2.293l2.009-1.573A14.726,14.726,0,0,1,411.8,273.588Zm-1.854-7.206a14.876,14.876,0,0,1,.118-1.872l-2.532-.322a17.513,17.513,0,0,0-.138,2.194c0,.183,0,.367.008.551l2.55-.075C409.951,266.7,409.948,266.541,409.948,266.383Zm29.586-2.593,2.514-.443a17.272,17.272,0,0,0-.692-2.663l-2.41.835A14.739,14.739,0,0,1,439.534,263.789ZM438,259.37l2.249-1.206a17.411,17.411,0,0,0-1.489-2.312l-2.03,1.547A14.81,14.81,0,0,1,438,259.37Zm-1.07-5.568a17.573,17.573,0,0,0-2.13-1.738l-1.453,2.1a14.937,14.937,0,0,1,1.819,1.484Zm-19.191-.492-1.218-2.243a17.572,17.572,0,0,0-2.3,1.5l1.553,2.023A15.053,15.053,0,0,1,417.744,253.311Zm12.118-3.624-.729,2.445a14.972,14.972,0,0,1,2.189.848l1.1-2.3A17.451,17.451,0,0,0,429.862,249.687Zm5.954,26.789,1.872,1.733a17.364,17.364,0,0,0,1.7-2.16l-2.123-1.415A14.909,14.909,0,0,1,435.815,276.476Zm2.6-3.891,2.319,1.063a17.542,17.542,0,0,0,.946-2.583l-2.459-.684A15.037,15.037,0,0,1,438.415,272.585Zm3.883-6.967-2.549.113q.014.338.014.672a15.045,15.045,0,0,1-.094,1.675l2.535.286a17.656,17.656,0,0,0,.11-1.961C442.314,266.142,442.31,265.881,442.3,265.618ZM432.14,279.379l1.249,2.224a17.536,17.536,0,0,0,2.283-1.527l-1.58-2A15.11,15.11,0,0,1,432.14,279.379Zm-9.071,1.79-.3,2.533a17.557,17.557,0,0,0,2.072.122c.223,0,.446,0,.669-.012l-.092-2.55A15.408,15.408,0,0,1,423.069,281.169Zm-4.03-31.217.849,2.405a14.851,14.851,0,0,1,2.267-.6l-.455-2.51A17.238,17.238,0,0,0,419.039,249.952ZM417.493,282.2a17.433,17.433,0,0,0,2.578.959l.7-2.455a14.807,14.807,0,0,1-2.2-.818Zm6.937-33.238.061,2.551a14.677,14.677,0,0,1,2.346.125l.337-2.53A18.041,18.041,0,0,0,424.43,248.965Zm3.321,32.026.49,2.5a17.252,17.252,0,0,0,2.651-.742l-.882-2.394A14.842,14.842,0,0,1,427.751,280.991Z" transform="translate(-407.396 -248.961)" fill="#fff"/>
          </g>
        </g>
      </g>
      <g id="Group_43146" data-name="Group 43146" transform="translate(47.271 0)">
        <g id="Group_43145" data-name="Group 43145">
          <g id="Group_43144" data-name="Group 43144">
            <path id="Path_117038" data-name="Path 117038" d="M127.221,86.286a14.877,14.877,0,0,1,.118-1.872l-2.532-.322a17.624,17.624,0,0,0-.138,2.2c0,.181,0,.362.009.545l2.55-.074C127.224,86.6,127.222,86.439,127.221,86.286Zm1.432-6.36-2.3-1.1a17.315,17.315,0,0,0-.981,2.571l2.448.718A14.873,14.873,0,0,1,128.653,79.925Zm-1.169,9.167-2.507.479a17.368,17.368,0,0,0,.728,2.653l2.4-.869A14.849,14.849,0,0,1,127.484,89.093Zm3.82-13.028-1.851-1.756a17.42,17.42,0,0,0-1.729,2.137l2.1,1.444A15.159,15.159,0,0,1,131.3,76.065Zm22.9-2.36a17.572,17.572,0,0,0-2.13-1.738l-1.454,2.1a14.9,14.9,0,0,1,1.819,1.484Zm2.6,9.986,2.514-.443a17.269,17.269,0,0,0-.692-2.663l-2.41.835A14.825,14.825,0,0,1,156.808,83.691Zm-1.531-4.419,2.249-1.206a17.413,17.413,0,0,0-1.489-2.312l-2.03,1.547A14.725,14.725,0,0,1,155.277,79.272Zm-20.261-6.058L133.8,70.971a17.54,17.54,0,0,0-2.3,1.5l1.553,2.023A15.135,15.135,0,0,1,135.016,73.214Zm-4.8,25.829a17.565,17.565,0,0,0,2.151,1.71l1.427-2.116a15.124,15.124,0,0,1-1.84-1.461Zm-1.146-5.553-2.233,1.236a17.434,17.434,0,0,0,1.519,2.292l2.008-1.573A14.749,14.749,0,0,1,129.074,93.491Zm20.341,5.79,1.249,2.224a17.516,17.516,0,0,0,2.283-1.528l-1.582-2A15.029,15.029,0,0,1,149.415,99.281Zm3.674-2.9,1.872,1.733a17.358,17.358,0,0,0,1.7-2.16l-2.123-1.415A14.9,14.9,0,0,1,153.088,96.378Zm2.6-3.891,2.319,1.063a17.535,17.535,0,0,0,.946-2.583l-2.459-.684A15.092,15.092,0,0,1,155.688,92.487Zm3.882-6.967-2.549.113c.01.225.015.449.015.672a15.052,15.052,0,0,1-.094,1.675l2.535.285a17.645,17.645,0,0,0,.111-1.961C159.587,86.044,159.582,85.783,159.57,85.52ZM147.134,69.59l-.729,2.445a14.922,14.922,0,0,1,2.189.847l1.106-2.3A17.372,17.372,0,0,0,147.134,69.59Zm-2.11,31.3.49,2.5a17.253,17.253,0,0,0,2.651-.742l-.882-2.394A14.84,14.84,0,0,1,145.024,100.894Zm-4.681.178-.3,2.533a17.52,17.52,0,0,0,2.072.122c.223,0,.447,0,.67-.011l-.091-2.55A15.633,15.633,0,0,1,140.343,101.072Zm-4.032-31.217.849,2.405a14.811,14.811,0,0,1,2.266-.6l-.455-2.51A17.2,17.2,0,0,0,136.311,69.855Zm5.391-.987.061,2.551a14.719,14.719,0,0,1,2.345.125l.337-2.53A17.862,17.862,0,0,0,141.7,68.867Zm-6.936,33.239a17.43,17.43,0,0,0,2.578.959l.7-2.455a14.808,14.808,0,0,1-2.2-.818Z" transform="translate(-124.669 -68.863)" fill="#fff"/>
          </g>
        </g>
      </g>
      <g id="Group_43242" data-name="Group 43242" transform="translate(143.018 7.004)">
        <g id="Group_43241" data-name="Group 43241">
          <g id="Group_43240" data-name="Group 43240">
            <path id="Path_117068" data-name="Path 117068" d="M339.379,108.875l-2.233,1.236a17.432,17.432,0,0,0,1.519,2.292l2.008-1.573A14.812,14.812,0,0,1,339.379,108.875Zm-1.853-7.206a14.962,14.962,0,0,1,.118-1.872l-2.532-.322a17.531,17.531,0,0,0-.138,2.2c0,.181,0,.362.009.545l2.55-.074C337.529,101.983,337.527,101.822,337.526,101.669Zm1.432-6.36-2.3-1.1a17.383,17.383,0,0,0-.981,2.571l2.448.718A14.856,14.856,0,0,1,338.958,95.309Zm1.567,19.118a17.6,17.6,0,0,0,2.15,1.71l1.427-2.117a15.122,15.122,0,0,1-1.84-1.461Zm-2.735-9.951-2.507.478a17.541,17.541,0,0,0,.726,2.652l2.4-.867A14.793,14.793,0,0,1,337.789,104.476Zm29.323-5.4,2.514-.443a17.255,17.255,0,0,0-.692-2.663l-2.41.835A14.723,14.723,0,0,1,367.112,99.076Zm-1.531-4.419,2.249-1.206a17.413,17.413,0,0,0-1.489-2.312l-2.03,1.547A14.768,14.768,0,0,1,365.581,94.656ZM345.321,88.6,344.1,86.354a17.54,17.54,0,0,0-2.3,1.5l1.553,2.023A15.012,15.012,0,0,1,345.321,88.6Zm-3.713,2.851-1.851-1.756a17.422,17.422,0,0,0-1.729,2.137l2.1,1.444A15.072,15.072,0,0,1,341.608,91.448Zm22.9-2.36a17.655,17.655,0,0,0-2.13-1.739l-1.454,2.1a14.944,14.944,0,0,1,1.819,1.484Zm-12.505-4.837.061,2.551a14.73,14.73,0,0,1,2.346.125l.337-2.53A17.819,17.819,0,0,0,352.006,84.251Zm13.985,23.619,2.319,1.063a17.539,17.539,0,0,0,.946-2.583l-2.459-.684A15.146,15.146,0,0,1,365.992,107.87Zm-6.273,6.794,1.247,2.226a17.477,17.477,0,0,0,2.284-1.529l-1.582-2A15.069,15.069,0,0,1,359.719,114.664Zm3.675-2.9,1.872,1.733a17.392,17.392,0,0,0,1.7-2.16l-2.123-1.415A14.948,14.948,0,0,1,363.393,111.761Zm6.481-10.858-2.549.113c.009.225.014.449.014.672a15.052,15.052,0,0,1-.094,1.675l2.535.285a17.539,17.539,0,0,0,.111-1.961C369.891,101.427,369.886,101.166,369.874,100.9Zm-12.436-15.93-.729,2.445a14.971,14.971,0,0,1,2.189.848l1.1-2.3A17.485,17.485,0,0,0,357.438,84.973Zm-6.791,31.483-.3,2.534a17.525,17.525,0,0,0,2.072.122c.223,0,.447,0,.671-.012l-.092-2.55A15.579,15.579,0,0,1,350.647,116.455ZM346.616,85.24l.849,2.405a14.813,14.813,0,0,1,2.266-.6l-.455-2.51A17.1,17.1,0,0,0,346.616,85.24Zm8.712,31.038.49,2.5a17.254,17.254,0,0,0,2.651-.742l-.882-2.394A14.838,14.838,0,0,1,355.328,116.277Zm-10.258,1.212a17.41,17.41,0,0,0,2.578.959l.7-2.455a14.807,14.807,0,0,1-2.2-.818Z" transform="translate(-334.974 -84.246)" fill="#fff"/>
          </g>
        </g>
      </g>
    </g>
  </g>
</svg>
