<svg xmlns="http://www.w3.org/2000/svg" width="183.757" height="166.674" viewBox="0 0 183.757 166.674">
  <g id="illustration_5" data-name="illustration 5" transform="translate(-104.156 -225.695)">
    <g id="Group_41558" data-name="Group 41558">
      <g id="Group_41136" data-name="Group 41136">
        <path id="Rectangle_7801" data-name="Rectangle 7801" d="M0,0H65a0,0,0,0,1,0,0V39a5,5,0,0,1-5,5H5a5,5,0,0,1-5-5V0A0,0,0,0,1,0,0Z" transform="translate(219 323)" fill="#257165"/>
      </g>
      <g id="Group_41167" data-name="Group 41167" transform="translate(0 10)">
        <g id="TIMED_DEALS" data-name="TIMED DEALS" transform="translate(104.156 206.111)">
          <g id="Group_40831" data-name="Group 40831" transform="translate(0 27.107)">
            <g id="Group_40830" data-name="Group 40830">
              <path id="Path_28108" data-name="Path 28108" d="M102.15,124.119V93.748L75.931,59.13H26.22L0,93.748V208.28H102.15V187.2H99.565v18.5H2.586V94.617L27.5,61.716H74.646l24.919,32.9v29.5Z" transform="translate(0 -59.13)" fill="#c1d6d3"/>
            </g>
          </g>
          <g id="Group_40833" data-name="Group 40833" transform="translate(28.504 87.872)">
            <g id="Group_40832" data-name="Group 40832">
              <path id="Path_28109" data-name="Path 28109" d="M86.15,230.937a5.562,5.562,0,1,0,5.567,5.567A5.572,5.572,0,0,0,86.15,230.937Z" transform="translate(-80.592 -230.937)" fill="#fff"/>
            </g>
          </g>
          <g id="Group_40835" data-name="Group 40835" transform="translate(65.055 125.155)">
            <g id="Group_40834" data-name="Group 40834">
              <path id="Path_28110" data-name="Path 28110" d="M189.506,336.352a5.563,5.563,0,1,0,5.558,5.567A5.574,5.574,0,0,0,189.506,336.352Z" transform="translate(-183.939 -336.352)" fill="#fff"/>
            </g>
          </g>
          <g id="Group_40837" data-name="Group 40837" transform="translate(65.055 125.155)">
            <g id="Group_40836" data-name="Group 40836">
              <path id="Path_28111" data-name="Path 28111" d="M189.506,336.352a5.563,5.563,0,1,0,5.558,5.567A5.574,5.574,0,0,0,189.506,336.352Z" transform="translate(-183.939 -336.352)" fill="#fff"/>
            </g>
          </g>
          <g id="Group_40839" data-name="Group 40839" transform="translate(65.055 125.155)">
            <g id="Group_40838" data-name="Group 40838">
              <path id="Path_28112" data-name="Path 28112" d="M189.506,336.352a5.563,5.563,0,1,0,5.558,5.567A5.574,5.574,0,0,0,189.506,336.352Z" transform="translate(-183.939 -336.352)" fill="#fff"/>
            </g>
          </g>
          <g id="Group_40842" data-name="Group 40842" transform="translate(5.754 32.861)">
            <g id="Group_40841" data-name="Group 40841" transform="translate(0 0)">
              <g id="Group_40840" data-name="Group 40840">
                <path id="Path_28113" data-name="Path 28113" d="M44.576,141.534a5.562,5.562,0,1,0-5.558-5.558A5.572,5.572,0,0,0,44.576,141.534ZM106.912,106.2,83.581,75.4H39.6l-23.33,30.8V213.041h90.644V106.2ZM61.59,84.373a6.379,6.379,0,1,1-6.379,6.379A6.378,6.378,0,0,1,61.59,84.373ZM44.576,122.558a13.414,13.414,0,1,1-13.409,13.418A13.437,13.437,0,0,1,44.576,122.558Zm-10.483,56.09L85.829,126.92l5.558,5.558L39.66,184.215Zm47.044,8.021a13.414,13.414,0,1,1,13.409-13.409A13.422,13.422,0,0,1,81.137,186.668Z" transform="translate(-16.268 -75.398)" fill="rgba(255,255,255,0.13)"/>
              </g>
            </g>
          </g>
          <g id="Group_40844" data-name="Group 40844" transform="translate(28.504 87.872)">
            <g id="Group_40843" data-name="Group 40843">
              <path id="Path_28114" data-name="Path 28114" d="M86.15,230.937a5.562,5.562,0,1,0,5.567,5.567A5.572,5.572,0,0,0,86.15,230.937Z" transform="translate(-80.592 -230.937)" fill="#045a4c"/>
            </g>
          </g>
          <g id="Group_40846" data-name="Group 40846" transform="translate(65.055 125.155)">
            <g id="Group_40845" data-name="Group 40845">
              <path id="Path_28115" data-name="Path 28115" d="M189.506,336.352a5.563,5.563,0,1,0,5.558,5.567A5.574,5.574,0,0,0,189.506,336.352Z" transform="translate(-183.939 -336.352)" fill="#fff"/>
            </g>
          </g>
          <g id="Group_40848" data-name="Group 40848" transform="translate(65.055 125.155)">
            <g id="Group_40847" data-name="Group 40847">
              <path id="Path_28116" data-name="Path 28116" d="M189.506,336.352a5.563,5.563,0,1,0,5.558,5.567A5.574,5.574,0,0,0,189.506,336.352Z" transform="translate(-183.939 -336.352)" fill="#045a4c"/>
            </g>
          </g>
          <g id="Group_40851" data-name="Group 40851" transform="translate(43.404 40.547)">
            <g id="Group_40850" data-name="Group 40850">
              <g id="Group_40849" data-name="Group 40849">
                <path id="Path_28117" data-name="Path 28117" d="M130.393,97.13a7.671,7.671,0,1,0,7.671,7.671A7.68,7.68,0,0,0,130.393,97.13Zm0,12.756a5.085,5.085,0,1,1,5.085-5.085A5.091,5.091,0,0,1,130.393,109.886Z" transform="translate(-122.722 -97.13)" fill="#fff"/>
              </g>
            </g>
          </g>
          <g id="Group_40854" data-name="Group 40854" transform="translate(55.916 116.015)">
            <g id="Group_40853" data-name="Group 40853">
              <g id="Group_40852" data-name="Group 40852">
                <path id="Path_28118" data-name="Path 28118" d="M172.8,310.509a14.7,14.7,0,1,0,14.7,14.7A14.721,14.721,0,0,0,172.8,310.509Zm0,26.823a12.118,12.118,0,1,1,12.118-12.118A12.133,12.133,0,0,1,172.8,337.332Z" transform="translate(-158.098 -310.509)" fill="#508b82"/>
              </g>
            </g>
          </g>
          <g id="Group_40857" data-name="Group 40857" transform="translate(63.767 123.866)">
            <g id="Group_40856" data-name="Group 40856">
              <g id="Group_40855" data-name="Group 40855">
                <path id="Path_28119" data-name="Path 28119" d="M187.149,332.706A6.854,6.854,0,1,0,194,339.561,6.861,6.861,0,0,0,187.149,332.706Zm0,11.122a4.268,4.268,0,1,1,4.268-4.267A4.273,4.273,0,0,1,187.149,343.828Z" transform="translate(-180.295 -332.706)" fill="#045c4e"/>
              </g>
            </g>
          </g>
          <g id="Group_40860" data-name="Group 40860" transform="translate(19.36 78.732)">
            <g id="Group_40859" data-name="Group 40859">
              <g id="Group_40858" data-name="Group 40858">
                <path id="Path_28120" data-name="Path 28120" d="M69.445,205.094a14.7,14.7,0,1,0,14.7,14.7A14.721,14.721,0,0,0,69.445,205.094Zm0,26.823A12.119,12.119,0,1,1,81.563,219.8,12.133,12.133,0,0,1,69.445,231.917Z" transform="translate(-54.74 -205.094)" fill="#508b82"/>
              </g>
            </g>
          </g>
          <g id="Group_40863" data-name="Group 40863" transform="translate(27.211 86.583)">
            <g id="Group_40862" data-name="Group 40862">
              <g id="Group_40861" data-name="Group 40861">
                <path id="Path_28121" data-name="Path 28121" d="M83.792,227.291a6.854,6.854,0,1,0,6.854,6.855A6.861,6.861,0,0,0,83.792,227.291Zm0,11.122a4.268,4.268,0,1,1,4.268-4.268A4.273,4.273,0,0,1,83.792,238.413Z" transform="translate(-76.938 -227.291)" fill="#045c4e"/>
              </g>
            </g>
          </g>
          <g id="Group_40866" data-name="Group 40866" transform="translate(21.753 82.552)">
            <g id="Group_40865" data-name="Group 40865">
              <g id="Group_40864" data-name="Group 40864">
                <path id="Path_28122" data-name="Path 28122" d="M115.067,215.9l-53.561,53.56,7.392,7.392,53.561-53.56Zm-49.9,53.56,49.9-49.9,3.735,3.735-49.9,49.9Z" transform="translate(-61.506 -215.896)" fill="#508b82"/>
              </g>
            </g>
          </g>
          <g id="Group_41164" data-name="Group 41164">
            <g id="Group_40869" data-name="Group 40869" transform="translate(96.397 9.584)">
              <g id="Group_40868" data-name="Group 40868" transform="translate(0 0)">
                <g id="Group_40867" data-name="Group 40867">
                  <path id="Path_28123" data-name="Path 28123" d="M297.023,16.237c.715.41,1.423.855,2.1,1.321l1.463-2.132c-.737-.505-1.5-.987-2.278-1.432Zm5.72.8-1.628,2.009c.641.52,1.269,1.072,1.864,1.64l1.785-1.871C304.118,18.2,303.438,17.6,302.743,17.034ZM292.537,14.12c.769.29,1.538.616,2.284.968l1.1-2.339c-.809-.382-1.642-.734-2.476-1.049Zm-19.982-1.95h2.586V9.584h-2.586Zm34.079,8.579L304.7,22.467c.549.618,1.077,1.263,1.567,1.918l2.07-1.55C307.8,22.122,307.231,21.42,306.634,20.749Zm-18.86-7.994c.806.161,1.616.358,2.409.585l.712-2.486c-.86-.246-1.739-.459-2.614-.635Zm-4.919-.569c.824.027,1.655.089,2.471.183l.3-2.569c-.886-.1-1.788-.17-2.683-.2Zm-5.129-.017h2.586V9.584h-2.586Zm33.8,36.068h2.586V45.652h-2.586Zm0-7.758v2.586h2.586V40.48Zm0,12.929h2.586V50.823h-2.586Zm.759-23.521-2.408.941c.3.765.561,1.549.781,2.33l2.49-.7C312.906,31.6,312.616,30.732,312.287,29.888Zm-.759,28.693h2.586V56h-2.586ZM309.861,25.06l-2.2,1.366c.438.7.845,1.428,1.209,2.152l2.311-1.161C310.785,26.623,310.34,25.83,309.861,25.06Zm3.888,10.051-2.549.438a22.713,22.713,0,0,1,.285,2.427l2.581-.162A25.552,25.552,0,0,0,313.749,35.11Z" transform="translate(-272.555 -9.584)" fill="#fff"/>
                </g>
              </g>
            </g>
            <g id="Group_40871" data-name="Group 40871" transform="translate(49.782 9.584)">
              <g id="Group_40870" data-name="Group 40870" transform="translate(0 0)">
                <path id="Path_28124" data-name="Path 28124" d="M173.011,9.584A32.293,32.293,0,0,0,140.755,41.84h2.586a29.7,29.7,0,0,1,29.67-29.67h11.495V9.584Z" transform="translate(-140.755 -9.584)" fill="#fff"/>
              </g>
            </g>
            <g id="Group_40885" data-name="Group 40885" transform="translate(135.369 62.233)">
              <g id="Group_40884" data-name="Group 40884">
                <rect id="Rectangle_7717" data-name="Rectangle 7717" width="2.586" height="11.39" fill="#fff"/>
              </g>
            </g>
          </g>
        </g>
        <g id="calendar" transform="translate(198.323 283.578)">
          <g id="Group_41071" data-name="Group 41071" transform="translate(13.403 50.392)" opacity="0.8">
            <path id="Path_28217" data-name="Path 28217" d="M25.021,350.925H23.753v-1.268h1.268Zm-2.536,0H22.4a9.07,9.07,0,0,1-1.271-.09l.178-1.255a7.79,7.79,0,0,0,1.093.077h.081Zm-2.683-.383a8.961,8.961,0,0,1-1.271-.493l.547-1.144a7.689,7.689,0,0,0,1.091.423Zm-2.453-1.173a9.1,9.1,0,0,1-1.065-.849l.862-.929a7.809,7.809,0,0,0,.916.73Zm-1.99-1.847a9.058,9.058,0,0,1-.765-1.126l1.1-.632a7.8,7.8,0,0,0,.658.968Zm-1.353-2.355a8.944,8.944,0,0,1-.394-1.3l1.238-.273a7.727,7.727,0,0,0,.338,1.12Zm-.585-2.654q-.019-.293-.019-.59v-.719h1.268v.719q0,.256.016.508Zm1.249-2.576H13.4V338.67h1.268Zm0-2.536H13.4v-1.268h1.268Zm0-2.535H13.4V333.6h1.268Zm0-2.536H13.4v-1.268h1.268Zm0-2.535H13.4v-1.268h1.268Zm0-2.536H13.4v-1.268h1.268Zm0-2.535H13.4v-1.268h1.268Zm0-2.536H13.4v-1.268h1.268Z" transform="translate(-13.403 -320.921)" fill="#fff"/>
          </g>
          <g id="Group_41072" data-name="Group 41072" transform="translate(16.784 25.273)">
            <path id="Path_28218" data-name="Path 28218" d="M101.7,212.694H40.979a6.05,6.05,0,0,1-6.043-6.043V161.587a.634.634,0,0,1,.634-.634h71.537a.634.634,0,0,1,.634.634v45.065A6.05,6.05,0,0,1,101.7,212.694ZM36.2,162.221v44.431a4.781,4.781,0,0,0,4.775,4.775H101.7a4.78,4.78,0,0,0,4.775-4.775V162.221Z" transform="translate(-34.936 -160.953)" fill="#c1d6d3"/>
          </g>
          <g id="Group_41073" data-name="Group 41073" transform="translate(16.785 10.415)">
            <path id="Path_28219" data-name="Path 28219" d="M107.11,82.456H35.573a.634.634,0,0,1-.634-.634V73.269a6.948,6.948,0,0,1,6.941-6.941h2.779a.634.634,0,0,1,.634.634v3.531a2.694,2.694,0,0,0,2.533,2.747,2.6,2.6,0,0,0,2.668-2.6V66.962a.634.634,0,0,1,.634-.634H68.107a.634.634,0,0,1,.634.634v3.531a2.694,2.694,0,0,0,2.533,2.747,2.6,2.6,0,0,0,2.668-2.6V66.962a.634.634,0,0,1,.634-.634H91.555a.634.634,0,0,1,.634.634v3.681a2.6,2.6,0,0,0,2.668,2.6,2.694,2.694,0,0,0,2.533-2.747V66.962a.634.634,0,0,1,.634-.634H100.8a6.949,6.949,0,0,1,6.941,6.941v8.554A.635.635,0,0,1,107.11,82.456Zm-70.9-1.268h70.269v-7.92A5.679,5.679,0,0,0,100.8,67.6H98.658v2.9a3.968,3.968,0,0,1-3.77,4.014,3.869,3.869,0,0,1-3.967-3.865V67.6H75.21v3.047a3.869,3.869,0,0,1-3.967,3.865,3.968,3.968,0,0,1-3.771-4.014V67.6H51.762v3.047A3.869,3.869,0,0,1,47.8,74.507a3.968,3.968,0,0,1-3.77-4.014V67.6H41.88a5.679,5.679,0,0,0-5.673,5.673Z" transform="translate(-34.939 -66.328)" fill="#c1d6d3"/>
          </g>
          <g id="Group_41074" data-name="Group 41074" transform="translate(19.532 13.162)">
            <path id="Path_28220" data-name="Path 28220" d="M52.433,94.458V88.018a4.2,4.2,0,0,1,4.194-4.194h.666v1.418a5.456,5.456,0,0,0,5.214,5.493l.131,0a5.354,5.354,0,0,0,5.35-5.345V83.824H80.741v1.418a5.456,5.456,0,0,0,5.214,5.493l.131,0a5.354,5.354,0,0,0,5.35-5.345V83.824H104.19v1.568a5.354,5.354,0,0,0,5.35,5.345l.131,0a5.456,5.456,0,0,0,5.213-5.493V83.824h.666a4.2,4.2,0,0,1,4.194,4.194v6.441Z" transform="translate(-52.433 -83.824)" fill="#257165"/>
          </g>
          <g id="Group_41075" data-name="Group 41075" transform="translate(26.505 4.015)" opacity="0.5">
            <path id="Path_28221" data-name="Path 28221" d="M100.074,39.516h0a3.234,3.234,0,0,1-3.234-3.234V28.8a3.234,3.234,0,0,1,3.234-3.234h0a3.234,3.234,0,0,1,3.234,3.234v7.48A3.234,3.234,0,0,1,100.074,39.516Z" transform="translate(-96.84 -25.569)" fill="#257165"/>
          </g>
          <g id="Group_41076" data-name="Group 41076" transform="translate(49.953 4.015)">
            <path id="Path_28222" data-name="Path 28222" d="M249.407,39.516h0a3.234,3.234,0,0,1-3.234-3.234V28.8a3.234,3.234,0,0,1,3.234-3.234h0A3.234,3.234,0,0,1,252.64,28.8v7.48A3.233,3.233,0,0,1,249.407,39.516Z" transform="translate(-246.173 -25.569)" fill="#257165"/>
          </g>
          <g id="Group_41077" data-name="Group 41077" transform="translate(73.402 4.015)" opacity="0.5">
            <path id="Path_28223" data-name="Path 28223" d="M398.74,39.516h0a3.234,3.234,0,0,1-3.234-3.234V28.8a3.234,3.234,0,0,1,3.234-3.234h0a3.234,3.234,0,0,1,3.234,3.234v7.48A3.233,3.233,0,0,1,398.74,39.516Z" transform="translate(-395.506 -25.569)" fill="#257165"/>
          </g>
          <g id="Group_41078" data-name="Group 41078" transform="translate(25.87 3.381)">
            <path id="Path_28224" data-name="Path 28224" d="M96.669,36.747A3.872,3.872,0,0,1,92.8,32.879V25.4a3.867,3.867,0,0,1,7.735,0v7.48A3.872,3.872,0,0,1,96.669,36.747Zm0-13.947a2.6,2.6,0,0,0-2.6,2.6v7.48a2.6,2.6,0,0,0,5.2,0V25.4A2.6,2.6,0,0,0,96.669,22.8Z" transform="translate(-92.802 -21.532)" fill="#c1d6d3"/>
          </g>
          <g id="Group_41079" data-name="Group 41079" transform="translate(49.319 3.381)">
            <path id="Path_28225" data-name="Path 28225" d="M246,36.747a3.872,3.872,0,0,1-3.867-3.867V25.4a3.867,3.867,0,1,1,7.735,0v7.48A3.872,3.872,0,0,1,246,36.747ZM246,22.8a2.6,2.6,0,0,0-2.6,2.6v7.48a2.6,2.6,0,0,0,5.2,0V25.4A2.6,2.6,0,0,0,246,22.8Z" transform="translate(-242.136 -21.532)" fill="#c1d6d3"/>
          </g>
          <g id="Group_41080" data-name="Group 41080" transform="translate(77.059)" opacity="0.7">
            <path id="Path_28226" data-name="Path 28226" d="M425.619,8.508h-1.268V7.24h1.268ZM424.3,6.062a5.524,5.524,0,0,0-.27-1.1l1.194-.426a6.819,6.819,0,0,1,.332,1.355Zm-.759-2.126a5.621,5.621,0,0,0-.689-.9l.926-.866a6.938,6.938,0,0,1,.844,1.109Zm-1.546-1.652A5.567,5.567,0,0,0,421,1.727L421.51.564a6.852,6.852,0,0,1,1.215.685Zm-2.071-.9a5.571,5.571,0,0,0-1.13-.115V0a6.846,6.846,0,0,1,1.387.142Z" transform="translate(-418.793)" fill="#fff"/>
          </g>
          <g id="Group_41081" data-name="Group 41081" transform="translate(72.768 3.381)">
            <path id="Path_28227" data-name="Path 28227" d="M395.337,36.747a3.872,3.872,0,0,1-3.867-3.867V25.4a3.867,3.867,0,0,1,7.735,0v7.48A3.872,3.872,0,0,1,395.337,36.747Zm0-13.947a2.6,2.6,0,0,0-2.6,2.6v7.48a2.6,2.6,0,0,0,5.2,0V25.4A2.6,2.6,0,0,0,395.337,22.8Z" transform="translate(-391.47 -21.532)" fill="#c1d6d3"/>
          </g>
          <g id="Group_41084" data-name="Group 41084" transform="translate(25.348 32.892)">
            <rect id="Rectangle_7773" data-name="Rectangle 7773" width="4.39" height="1.268" fill="#fff"/>
          </g>
          <g id="Group_41086" data-name="Group 41086" transform="translate(70.994 68.529)">
            <rect id="Rectangle_7774" data-name="Rectangle 7774" width="8.875" height="1.268" fill="#fff"/>
          </g>
        </g>
        <text id="MONTHS" transform="translate(252 347)" fill="#fff" font-size="11" font-family="RobotoCondensed-Bold, Roboto Condensed" font-weight="700" letter-spacing="0.06em"><tspan x="-21" y="0">MONTHS</tspan></text>
        <text id="_6" data-name="6" transform="translate(252 333)" fill="#fff" font-size="21" font-family="RobotoCondensed-Bold, Roboto Condensed" font-weight="700" letter-spacing="0.1em"><tspan x="-5" y="0">6</tspan></text>
      </g>
    </g>
  </g>
</svg>
