<svg xmlns="http://www.w3.org/2000/svg" width="155.92" height="146.287" viewBox="0 0 155.92 146.287">
  <g id="illustration_6" data-name="illustration 6" transform="translate(-110 -246.172)">
    <g id="intelligence-assistant" transform="translate(110 230.357)">
      <g id="Group_41499" data-name="Group 41499" transform="translate(18.452 59.174)">
        <g id="Group_41498" data-name="Group 41498">
          <path id="Path_28426" data-name="Path 28426" d="M175.639,158.2H155.364v6.793H173.3v70.26H66.893v-70.26H84.827V158.2H64.559a3.967,3.967,0,0,0-3.969,3.962v75.155a3.969,3.969,0,0,0,3.969,3.969H175.64a3.967,3.967,0,0,0,3.962-3.969V162.157A3.966,3.966,0,0,0,175.639,158.2Z" transform="translate(-60.59 -158.195)" fill="#508b82"/>
        </g>
      </g>
      <g id="Group_41502" data-name="Group 41502" transform="translate(0 144.894)">
        <g id="Group_41501" data-name="Group 41501">
          <g id="Group_41500" data-name="Group 41500">
            <path id="Path_28427" data-name="Path 28427" d="M0,439.678v5.1a12.119,12.119,0,0,0,12.105,12.105H143.814a12.119,12.119,0,0,0,12.106-12.105v-5.1Zm153.731,5.1a9.928,9.928,0,0,1-9.917,9.916H12.105a9.928,9.928,0,0,1-9.916-9.916v-2.914H153.731Z" transform="translate(0 -439.678)" fill="#fff"/>
          </g>
        </g>
      </g>
      <g id="Group_41504" data-name="Group 41504" transform="translate(4.818 149.713)">
        <g id="Group_41503" data-name="Group 41503">
          <path id="Path_28428" data-name="Path 28428" d="M15.822,455.5v.208a7.363,7.363,0,0,0,7.363,7.363H154.742a7.363,7.363,0,0,0,7.363-7.363V455.5Z" transform="translate(-15.822 -455.5)" fill="#256f64"/>
        </g>
      </g>
      <g id="Group_41507" data-name="Group 41507" transform="translate(64.096 144.894)">
        <g id="Group_41506" data-name="Group 41506">
          <g id="Group_41505" data-name="Group 41505">
            <path id="Path_28429" data-name="Path 28429" d="M210.474,439.678v3.012a6.37,6.37,0,0,0,6.363,6.363h15a6.371,6.371,0,0,0,6.363-6.363v-3.012Zm25.539,3.012a4.179,4.179,0,0,1-4.174,4.175h-15a4.179,4.179,0,0,1-4.174-4.175v-.824h23.35Z" transform="translate(-210.474 -439.678)" fill="#fff"/>
          </g>
        </g>
      </g>
      <g id="Group_41510" data-name="Group 41510" transform="translate(13.636 54.359)">
        <g id="Group_41509" data-name="Group 41509">
          <g id="Group_41508" data-name="Group 41508">
            <path id="Path_28430" data-name="Path 28430" d="M164.641,142.383h-21.37v12.7h17.941v68.071H57V155.085H74.923v-12.7H53.56a8.791,8.791,0,0,0-8.784,8.777v75.155A8.794,8.794,0,0,0,53.56,235.1H164.641a8.794,8.794,0,0,0,8.784-8.784V151.16A8.79,8.79,0,0,0,164.641,142.383Zm6.595,83.932a6.6,6.6,0,0,1-6.595,6.6H53.56a6.6,6.6,0,0,1-6.6-6.6V151.16a6.6,6.6,0,0,1,6.6-6.588H72.734V152.9H54.808v72.449H163.4V152.9H145.46v-8.324h19.182a6.6,6.6,0,0,1,6.595,6.588Z" transform="translate(-44.776 -142.383)" fill="#fff"/>
          </g>
        </g>
      </g>
      <g id="Group_41512" data-name="Group 41512" transform="translate(28.483 69.695)">
        <g id="Group_41511" data-name="Group 41511">
          <path id="Path_28431" data-name="Path 28431" d="M178.274,192.742v8.471l-35.269,20.363-35.268-20.363v-8.471H93.532v62.8h98.955v-62.8Z" transform="translate(-93.532 -192.742)" fill="#257266"/>
        </g>
      </g>
      <g id="Group_41515" data-name="Group 41515" transform="translate(41.596 15.815)">
        <g id="Group_41514" data-name="Group 41514" transform="translate(0 0)">
          <g id="Group_41513" data-name="Group 41513">
            <path id="Path_28432" data-name="Path 28432" d="M172.953,15.815,136.591,36.809V78.8l36.363,20.994L209.317,78.8V36.809Zm34.174,61.718L172.953,97.264,138.78,77.533V38.073l34.174-19.73,34.174,19.731Z" transform="translate(-136.591 -15.815)" fill="#508b82"/>
          </g>
        </g>
      </g>
      <g id="Group_41553" data-name="Group 41553" transform="translate(44.319 106.06)">
        <g id="Group_41552" data-name="Group 41552">
          <g id="Group_41551" data-name="Group 41551">
            <path id="Path_28436" data-name="Path 28436" d="M158.666,314.344h2.189v-2.189h-2.189Zm4.378,0h2.189v-2.189h-2.189Zm13.133,0h2.189v-2.189h-2.189Zm-4.378,0h2.189v-2.189H171.8Zm-4.378,0h2.189v-2.189h-2.189Zm-21.888,0h2.189v-2.189h-2.189Zm4.377,0H152.1v-2.189H149.91Zm4.378,0h2.189v-2.189h-2.189Zm56.908-2.189v2.189h2.189v-2.189Zm-13.133,2.189h2.189v-2.189h-2.189Zm4.378,0h2.189v-2.189h-2.189Zm4.377,0h2.189v-2.189h-2.189Zm-13.133,0h2.189v-2.189h-2.189Zm-8.755,0h2.189v-2.189h-2.189Zm4.377,0H191.5v-2.189h-2.189Zm-8.755,0h2.189v-2.189h-2.189Z" transform="translate(-145.533 -312.155)" fill="#fff"/>
          </g>
        </g>
      </g>
      <g id="Group_41555" data-name="Group 41555" transform="translate(44.319 114.385)">
        <g id="Group_41554" data-name="Group 41554">
          <rect id="Rectangle_7866" data-name="Rectangle 7866" width="67.796" height="2.189" fill="#fff"/>
        </g>
      </g>
      <g id="Group_41557" data-name="Group 41557" transform="translate(44.319 122.711)">
        <g id="Group_41556" data-name="Group 41556">
          <rect id="Rectangle_7867" data-name="Rectangle 7867" width="67.796" height="2.189" fill="#fff"/>
        </g>
      </g>
    </g>
    <g id="Group_40945" data-name="Group 40945" transform="translate(162.212 262.604)">
      <g id="Group_40942" data-name="Group 40942">
        <path id="Path_28152" data-name="Path 28152" d="M25.288,200.206a25.253,25.253,0,1,1,25.288-25.219A25.281,25.281,0,0,1,25.288,200.206Zm0-48.289a23.071,23.071,0,1,0,23.071,23.071A23.107,23.107,0,0,0,25.288,151.917Z" transform="translate(0 -149.7)" fill="#fff"/>
      </g>
      <g id="Group_40943" data-name="Group 40943" transform="translate(3.811 3.741)" opacity="0.47">
        <path id="Path_28153" data-name="Path 28153" d="M26.977,198.124c-.762,0-1.524-.069-2.286-.139l.208-2.217c.693.069,1.386.139,2.078.139h.208v2.217Zm2.563-.139-.277-2.217c.693-.069,1.386-.208,2.078-.346l.485,2.148Zm-7.205-.346a11.647,11.647,0,0,1-2.217-.624l.693-2.078c.693.208,1.316.416,2.009.554Zm11.709-.693-.762-2.078c.624-.208,1.316-.485,1.94-.762l.97,2.009C35.5,196.392,34.737,196.669,34.044,196.946Zm-16.073-.831c-.693-.346-1.386-.693-2.078-1.109L17,193.136c.624.346,1.247.693,1.871.97Zm20.23-1.178-1.178-1.871a15.214,15.214,0,0,0,1.732-1.178l1.386,1.732C39.517,194.036,38.894,194.521,38.2,194.937Zm-24.249-1.178c-.624-.485-1.178-.97-1.8-1.524l1.524-1.593a14.615,14.615,0,0,0,1.593,1.316ZM41.873,192.1,40.349,190.5a14.471,14.471,0,0,0,1.386-1.524l1.663,1.386A11.871,11.871,0,0,1,41.873,192.1Zm-31.246-1.524A13.094,13.094,0,0,1,9.241,188.7l1.8-1.247,1.247,1.663Zm34.225-2.078-1.8-1.247a9.35,9.35,0,0,0,1.039-1.8l1.94,1.039A19.088,19.088,0,0,1,44.852,188.494ZM7.994,186.762c-.346-.693-.693-1.386-.97-2.078l2.078-.831c.277.624.554,1.247.9,1.871ZM47,184.406l-2.078-.831a9.678,9.678,0,0,0,.624-2.009l2.148.554A22.03,22.03,0,0,1,47,184.406Zm-40.738-1.94c-.208-.762-.346-1.524-.485-2.286l2.148-.346a17.043,17.043,0,0,0,.485,2.009ZM48.178,179.9l-2.148-.346c.139-.693.139-1.386.208-2.078l2.217.069C48.386,178.379,48.316,179.141,48.178,179.9ZM5.5,177.894v-2.356l2.217.139v2.078ZM46.169,175.4c-.069-.693-.139-1.386-.277-2.078l2.148-.346c.139.762.208,1.524.277,2.286ZM7.925,173.6l-2.148-.346c.139-.762.277-1.524.485-2.286l2.148.554A11.276,11.276,0,0,0,7.925,173.6Zm37.551-2.286a15.985,15.985,0,0,0-.693-1.94l2.009-.831a20.82,20.82,0,0,1,.762,2.217ZM9.033,169.58l-2.078-.831a19.058,19.058,0,0,1,.97-2.078l1.94,1.039A15.29,15.29,0,0,0,9.033,169.58ZM43.882,167.5c-.346-.624-.693-1.178-1.109-1.8l1.8-1.247c.416.624.831,1.316,1.247,2.009Zm-32.909-1.593-1.8-1.247c.416-.624.9-1.247,1.386-1.871l1.663,1.455A7.458,7.458,0,0,0,10.973,165.908Zm30.553-1.871c-.485-.554-.97-1.039-1.455-1.524L41.6,160.92c.554.554,1.109,1.109,1.593,1.663Zm-27.921-1.316-1.524-1.594c.554-.554,1.178-1.039,1.732-1.524l1.316,1.732C14.645,161.751,14.16,162.236,13.606,162.721ZM38.478,161.2a15.208,15.208,0,0,0-1.732-1.178l1.109-1.871a19.06,19.06,0,0,1,1.94,1.316Zm-21.547-1.039-1.178-1.871a18.661,18.661,0,0,1,2.009-1.109l.97,2.009A14.88,14.88,0,0,0,16.932,160.158Zm18.013-1.109a16.137,16.137,0,0,0-1.94-.762l.693-2.078c.762.277,1.455.554,2.148.831Zm-14.272-.624-.693-2.078a13.277,13.277,0,0,1,2.217-.624l.485,2.148A10.862,10.862,0,0,0,20.673,158.426ZM31,157.8c-.693-.139-1.386-.277-2.078-.346l.208-2.217c.762.069,1.524.208,2.286.346Zm-6.235-.346-.277-2.217c.762-.069,1.524-.139,2.286-.139v2.217C26.146,157.386,25.453,157.386,24.76,157.456Z" transform="translate(-5.5 -155.1)" fill="#fff"/>
      </g>
      <g id="Group_40944" data-name="Group 40944" transform="translate(8.66 8.66)">
        <path id="Path_28154" data-name="Path 28154" d="M29.128,195.455a16.628,16.628,0,1,1,16.628-16.628A16.677,16.677,0,0,1,29.128,195.455Z" transform="translate(-12.5 -162.2)" fill="#257266"/>
      </g>
    </g>
    <g id="Group_40946" data-name="Group 40946" transform="translate(178.022 286.744)">
      <rect id="Rectangle_7728" data-name="Rectangle 7728" width="19.531" height="2.298" fill="#fff"/>
    </g>
  </g>
</svg>
