<svg xmlns="http://www.w3.org/2000/svg" width="262.313" height="189.406" viewBox="0 0 262.313 189.406">
  <g id="illustration_1" data-name="illustration 1" transform="translate(-57 -219.246)">
    <g id="PREMIUM_PRODUCT" data-name="PREMIUM PRODUCT" transform="translate(120.622 217.803)">
      <g id="Group_40659" data-name="Group 40659" transform="translate(31.195 27.032)">
        <g id="Group_40658" data-name="Group 40658">
          <g id="Group_40657" data-name="Group 40657">
            <path id="Path_28053" data-name="Path 28053" d="M181.147,116.342l-2.724-2.479-7.573,11.585a.657.657,0,0,1-.524.341c-.349,0-.674-.419-.723-.934l-1.349-14.07L164.93,112.6l-6.1-6.733-6.1,6.733-3.324-1.817-1.349,14.07c-.049.515-.374.934-.723.934a.657.657,0,0,1-.524-.341l-7.573-11.584-2.724,2.479-9.218-6.568,10.986,28.7h41.09l10.986-28.7Zm-3,20.348H139.517l-8.431-22.028,5.572,3.969,2.239-2.038,6.425,9.83a2.436,2.436,0,0,0,2.019,1.15,2.655,2.655,0,0,0,2.5-2.549l1.09-11.375,2.184,1.194,5.717-6.314,5.717,6.314,2.184-1.194,1.09,11.375a2.655,2.655,0,0,0,2.5,2.549,2.436,2.436,0,0,0,2.019-1.15l6.425-9.83,2.239,2.038,5.572-3.969Z" transform="translate(-127.303 -105.87)" fill="#fff"/>
          </g>
        </g>
      </g>
      <g id="Group_40661" data-name="Group 40661" transform="translate(41.017 34.31)">
        <g id="Group_40660" data-name="Group 40660">
          <path id="Path_28054" data-name="Path 28054" d="M209.507,143.741l-4.806,7.353a4.946,4.946,0,0,1-4.112,2.411c-2.663,0-4.9-2.42-5.213-5.631l-.647-6.751-.406.222-5.226-5.771-5.226,5.771-.407-.222-.647,6.75c-.307,3.211-2.548,5.632-5.213,5.632a4.946,4.946,0,0,1-4.112-2.411l-4.806-7.353-1.3,1.181,4.091,10.689h35.234l4.091-10.688Z" transform="translate(-167.388 -135.573)" fill="#367d71"/>
        </g>
      </g>
      <g id="Group_40664" data-name="Group 40664" transform="translate(41.902 57.853)">
        <g id="Group_40663" data-name="Group 40663">
          <g id="Group_40662" data-name="Group 40662">
            <path id="Path_28055" data-name="Path 28055" d="M171,231.647V238.9h41.647v-7.255Zm39.861,5.469H172.784v-3.683h38.075Z" transform="translate(-170.998 -231.647)" fill="#fff"/>
          </g>
        </g>
      </g>
      <g id="Group_40666" data-name="Group 40666" transform="translate(0 62.597)">
        <g id="Group_40665" data-name="Group 40665">
          <path id="Path_28056" data-name="Path 28056" d="M20.525,280.4l-.1-.983c-.08-.792-.127-1.61-.138-2.417l-.006-8.56H19.4v-.893H12.907V251.008H.052l6.624,15.311L0,280.4Zm-17.755-27.6h8.35v16.537H18.5l.005,7.68c.008.536.03,1.071.065,1.6H2.823l5.813-12.258Z" transform="translate(0 -251.008)" fill="#81aea7"/>
        </g>
      </g>
      <g id="Group_40670" data-name="Group 40670" transform="translate(6.203 66.639)">
        <g id="Group_40669" data-name="Group 40669">
          <g id="Group_40668" data-name="Group 40668">
            <path id="Path_28057" data-name="Path 28057" d="M27.977,267.5H25.316l2.661,6.155Zm-.194,16.513L25.5,288.809h9.965v-4.792Z" transform="translate(-25.316 -267.504)" fill="#367d71"/>
          </g>
        </g>
      </g>
      <g id="Group_40673" data-name="Group 40673" transform="translate(104.913 62.597)">
        <g id="Group_40672" data-name="Group 40672">
          <g id="Group_40671" data-name="Group 40671">
            <path id="Path_28058" data-name="Path 28058" d="M442.017,266.32l6.624-15.311H435.787v16.537H428.4l-.021.872c0,.132,0,.257,0,.382,0,.1,0,.209,0,.366l.006,7.779c-.012.836-.058,1.668-.138,2.471l-.1.982h20.548Zm-11.856,3.011h7.411V252.795h8.35l-5.866,13.559,5.813,12.258H430.1c.036-.543.058-1.1.066-1.655Z" transform="translate(-428.145 -251.009)" fill="#81aea7"/>
          </g>
        </g>
      </g>
      <g id="Group_40676" data-name="Group 40676" transform="translate(109.108 66.639)">
        <g id="Group_40675" data-name="Group 40675">
          <g id="Group_40674" data-name="Group 40674">
            <path id="Path_28059" data-name="Path 28059" d="M452.753,267.5v6.155l2.661-6.155Zm-7.489,16.513v4.792h9.965l-2.286-4.792Z" transform="translate(-445.264 -267.504)" fill="#367d71"/>
          </g>
        </g>
      </g>
      <g id="Group_40678" data-name="Group 40678" transform="translate(11.121 46.746)">
        <g id="Group_40677" data-name="Group 40677">
          <path id="Path_28060" data-name="Path 28060" d="M121.167,186.32v1.786h25.651v30.6H47.169v-30.6H72.807V186.32H45.383v34.174H148.6V186.32Z" transform="translate(-45.383 -186.32)" fill="#fff"/>
        </g>
      </g>
      <g id="Group_40680" data-name="Group 40680" transform="translate(14.99 50.615)">
        <g id="Group_40679" data-name="Group 40679">
          <path id="Path_28061" data-name="Path 28061" d="M135.443,202.109l-3.629,8.791v7.891H86V210.9l-3.63-8.791h-21.2v26.412h95.482V202.109Z" transform="translate(-61.173 -202.109)" fill="#689c94"/>
        </g>
      </g>
      <g id="Group_40682" data-name="Group 40682" transform="translate(52.102 92.178)">
        <g id="Group_40681" data-name="Group 40681">
          <path id="Path_28062" data-name="Path 28062" d="M233.879,379.447l-7.33-1.085-3.3-6.636-3.3,6.636-7.33,1.085,5.293,5.187-1.233,7.307,6.568-3.431,6.568,3.431-1.233-7.307Z" transform="translate(-212.624 -371.726)" fill="#689c94"/>
        </g>
      </g>
      <g id="Group_40684" data-name="Group 40684" transform="translate(79.182 87.23)">
        <g id="Group_40683" data-name="Group 40683">
          <path id="Path_28063" data-name="Path 28063" d="M335.207,355.921l-4.163-.616-1.872-3.769L327.3,355.3l-4.163.616,3.006,2.945-.7,4.15,3.73-1.948,3.73,1.948-.7-4.15Z" transform="translate(-323.136 -351.536)" fill="#367d71"/>
        </g>
      </g>
      <g id="Group_40686" data-name="Group 40686" transform="translate(34.206 87.23)">
        <g id="Group_40685" data-name="Group 40685">
          <path id="Path_28064" data-name="Path 28064" d="M151.663,355.921,147.5,355.3l-1.873-3.769-1.873,3.769-4.163.616,3.005,2.945-.7,4.15,3.73-1.948,3.73,1.948-.7-4.15Z" transform="translate(-139.592 -351.536)" fill="#367d71"/>
        </g>
      </g>
      <g id="Group_40689" data-name="Group 40689" transform="translate(50.194 90.171)">
        <g id="Group_40688" data-name="Group 40688">
          <g id="Group_40687" data-name="Group 40687">
            <path id="Path_28065" data-name="Path 28065" d="M229.91,372.644l-8.647-1.28-3.89-7.828-3.89,7.828-8.646,1.28,6.243,6.118-1.455,8.619,7.747-4.047,7.748,4.047-1.455-8.619Zm-12.536,8.676-5.388,2.815L213,378.139l-4.342-4.255,6.014-.89,2.705-5.444,2.7,5.444,6.014.89-4.342,4.255,1.012,5.995Z" transform="translate(-204.838 -363.536)" fill="#fff"/>
          </g>
        </g>
      </g>
      <g id="Group_40692" data-name="Group 40692" transform="translate(77.273 85.224)">
        <g id="Group_40691" data-name="Group 40691">
          <g id="Group_40690" data-name="Group 40690">
            <path id="Path_28066" data-name="Path 28066" d="M331.235,349.119l-5.48-.811-2.465-4.96-2.465,4.96-5.479.811L319.3,353l-.922,5.462,4.909-2.565,4.91,2.565L327.279,353Zm-7.944,4.759-2.55,1.332.479-2.837-2.056-2.014,2.847-.421,1.28-2.577,1.281,2.577,2.846.421-2.056,2.014.479,2.837Z" transform="translate(-315.347 -343.348)" fill="#fff"/>
          </g>
        </g>
      </g>
      <g id="Group_40695" data-name="Group 40695" transform="translate(32.297 85.224)">
        <g id="Group_40694" data-name="Group 40694">
          <g id="Group_40693" data-name="Group 40693">
            <path id="Path_28067" data-name="Path 28067" d="M147.69,349.119l-5.479-.811-2.465-4.96-2.465,4.96-5.48.811L135.758,353l-.922,5.462,4.91-2.565,4.909,2.565L143.734,353Zm-7.944,4.759-2.551,1.332.479-2.837-2.056-2.014,2.847-.421,1.28-2.577,1.28,2.577,2.847.421-2.055,2.014.478,2.837Z" transform="translate(-131.802 -343.348)" fill="#fff"/>
          </g>
        </g>
      </g>
      <g id="Group_40698" data-name="Group 40698" transform="translate(58.214 19.626)">
        <g id="Group_40697" data-name="Group 40697">
          <g id="Group_40696" data-name="Group 40696">
            <path id="Path_28068" data-name="Path 28068" d="M242.085,75.647a4.517,4.517,0,1,0,4.517,4.517A4.522,4.522,0,0,0,242.085,75.647Zm0,7.248a2.731,2.731,0,1,1,2.731-2.731A2.734,2.734,0,0,1,242.085,82.895Z" transform="translate(-237.568 -75.647)" fill="#fff"/>
          </g>
        </g>
      </g>
      <g id="Group_40701" data-name="Group 40701" transform="translate(26.725 23.678)">
        <g id="Group_40700" data-name="Group 40700">
          <g id="Group_40699" data-name="Group 40699">
            <path id="Path_28069" data-name="Path 28069" d="M113.581,92.181A4.517,4.517,0,1,0,118.1,96.7,4.522,4.522,0,0,0,113.581,92.181Zm0,7.248a2.731,2.731,0,1,1,2.731-2.731A2.734,2.734,0,0,1,113.581,99.429Z" transform="translate(-109.064 -92.181)" fill="#fff"/>
          </g>
        </g>
      </g>
      <g id="Group_40704" data-name="Group 40704" transform="translate(90.476 23.678)">
        <g id="Group_40703" data-name="Group 40703">
          <g id="Group_40702" data-name="Group 40702">
            <path id="Path_28070" data-name="Path 28070" d="M373.743,92.181A4.517,4.517,0,1,0,378.26,96.7,4.522,4.522,0,0,0,373.743,92.181Zm0,7.248a2.731,2.731,0,1,1,2.731-2.731A2.734,2.734,0,0,1,373.743,99.429Z" transform="translate(-369.226 -92.181)" fill="#fff"/>
          </g>
        </g>
      </g>
      <g id="Group_40707" data-name="Group 40707" transform="translate(18.508 1.443)">
        <g id="Group_40706" data-name="Group 40706" transform="translate(0 0)">
          <g id="Group_40705" data-name="Group 40705">
            <path id="Path_28071" data-name="Path 28071" d="M153.451,15.566a47.278,47.278,0,0,0-67.407,0c-6.842,7-10.38,14.907-10.517,23.506v9.459H96.863L92,35.826l5.569,3.968,2.24-2.036,6.429,9.829a2.727,2.727,0,0,0,.819.807l.217.136h1.951l.212-.127a2.878,2.878,0,0,0,1.317-2.216l1.091-11.373,2.186,1.194,5.716-6.315,5.716,6.315,2.186-1.195,1.092,11.373a3.023,3.023,0,0,0,.755,1.757,2.422,2.422,0,0,0,.574.464l.21.123h1.931l.212-.127a2.59,2.59,0,0,0,.835-.818l6.428-9.827,2.24,2.036,5.569-3.968L142.627,48.53h21.335V39.057C163.826,30.475,160.289,22.571,153.451,15.566Zm8.725,31.179H145.223l6.053-15.808L142.059,37.5l-2.725-2.476-7.578,11.586a.9.9,0,0,1-.1.131h-.839l0,0a1.259,1.259,0,0,1-.3-.723l-1.35-14.068-3.326,1.817-6.095-6.734-6.095,6.734-3.326-1.817-1.349,14.068a1.239,1.239,0,0,1-.3.728h-.834a1.019,1.019,0,0,1-.109-.137l-7.574-11.579L97.432,37.5l-9.217-6.568,6.053,15.808H77.314V39.086c.129-8.114,3.5-15.607,10.008-22.273a45.492,45.492,0,0,1,64.851,0c6.509,6.668,9.874,14.161,10,22.258v7.673Z" transform="translate(-75.528 -1.443)" fill="#fff"/>
          </g>
        </g>
      </g>
      <g id="Group_40710" data-name="Group 40710" transform="translate(18.498 79.134)">
        <g id="Group_40709" data-name="Group 40709">
          <g id="Group_40708" data-name="Group 40708">
            <path id="Path_28072" data-name="Path 28072" d="M163.921,318.494H75.49l0,9.468c.138,8.584,3.678,16.487,10.52,23.488A46.706,46.706,0,0,0,119.7,365.557h0a46.708,46.708,0,0,0,33.719-14.136c6.839-7.009,10.372-14.915,10.5-23.515Zm-11.775,31.68a45.5,45.5,0,0,1-64.853.028c-6.513-6.664-9.882-14.156-10.012-22.255l0-7.668h84.859l0,7.613C162.017,336.007,158.655,343.5,152.146,350.174Z" transform="translate(-75.49 -318.494)" fill="#fff"/>
          </g>
        </g>
      </g>
      <g id="Group_40713" data-name="Group 40713" transform="translate(22.479 82.896)" opacity="0.5">
        <g id="Group_40712" data-name="Group 40712">
          <g id="Group_40711" data-name="Group 40711">
            <path id="Path_28073" data-name="Path 28073" d="M101.754,360.777q.651.641,1.324,1.251l1.2-1.323q-.645-.585-1.27-1.2Zm2.7,2.447q.7.584,1.425,1.136l1.084-1.42q-.693-.529-1.366-1.089Zm-3.826-6.274-1.36,1.157c.391.459.8.918,1.216,1.363l1.306-1.218C101.392,357.827,101,357.388,100.627,356.95Zm13.038,12.122q.827.386,1.669.735l.685-1.649q-.808-.335-1.6-.7ZM98.5,354.192l-1.468,1.017c.344.5.708.994,1.081,1.478l1.415-1.09C99.176,355.136,98.83,354.664,98.5,354.192Zm18.53,16.278q.856.313,1.727.59l.541-1.7q-.834-.265-1.653-.565Zm-6.6-3.082c.523.3,1.061.6,1.6.877l.823-1.585q-.774-.4-1.531-.839Zm-3.078-1.954q.75.522,1.519,1.011l.957-1.507q-.736-.468-1.453-.968ZM94.222,344.8l-1.737.416c.143.6.308,1.2.489,1.779l1.705-.53C94.509,345.916,94.355,345.356,94.222,344.8Zm-.7-10.449H91.736v1.786h1.786Zm78.688,1.284v-1.786h-1.786v1.786Zm-1.784,3.573h1.786v-1.786h-1.786Zm-76.9.041v-1.325H91.738v1.342q0,.237.012.474l1.785-.061C93.53,339.528,93.527,339.379,93.524,339.246Zm1.722,8.846-1.666.643c.221.572.462,1.143.717,1.7l1.622-.746C95.68,349.166,95.454,348.629,95.246,348.092Zm1.445,3.143-1.573.845c.285.532.593,1.068.915,1.592l1.522-.934C97.251,352.243,96.96,351.738,96.69,351.235ZM93.65,341.4l-1.778.175c.061.608.143,1.224.245,1.829l1.761-.3C93.782,342.542,93.705,341.967,93.65,341.4Zm26.86,30.174q.878.239,1.771.44l.393-1.742q-.854-.193-1.7-.421Zm27.862-3.606.706,1.641q.837-.36,1.659-.755l-.774-1.609Q149.174,367.622,148.371,367.968Zm14.118-10.082,1.321,1.2c.409-.45.813-.914,1.2-1.379l-1.374-1.14C163.265,357.013,162.88,357.456,162.489,357.886Zm-38.422,14.492q.9.163,1.8.289l.247-1.769q-.869-.121-1.727-.277Zm35.962-12.008,1.214,1.31q.668-.62,1.311-1.269l-1.269-1.257Q160.668,359.777,160.028,360.37Zm6.615-8.054,1.537.909c.315-.533.615-1.074.889-1.607l-1.587-.818C167.224,351.3,166.942,351.814,166.644,352.317Zm-1.932,2.885,1.429,1.071c.367-.489.724-.992,1.06-1.495l-1.483-.994C165.4,354.26,165.06,354.737,164.712,355.2Zm5.439-12.571,1.766.264c.09-.6.161-1.22.21-1.835l-1.78-.142C170.3,341.492,170.234,342.068,170.15,342.631ZM169.411,346l1.715.5c.172-.589.325-1.19.456-1.787l-1.744-.383C169.715,344.884,169.571,345.446,169.411,346Zm-1.183,3.242,1.635.719c.248-.563.479-1.138.688-1.71l-1.678-.612C168.678,348.172,168.461,348.711,168.229,349.239Zm-10.86,13.4,1.1,1.408q.719-.561,1.414-1.154l-1.159-1.359Q158.055,362.1,157.368,362.638Zm-22.526,8.567.12,1.782q.911-.061,1.814-.16l-.193-1.775Q135.717,371.146,134.842,371.205Zm-3.5.091-.027,1.786c.217,0,.433,0,.652,0q.588,0,1.173-.015l-.047-1.785C132.513,371.3,131.928,371.306,131.345,371.3Zm6.971-.469.267,1.766q.9-.136,1.8-.31l-.341-1.753Q139.181,370.7,138.316,370.828Zm-10.638,2.053q.9.088,1.819.138l.1-1.783q-.876-.049-1.744-.133Zm26.848-8.209.977,1.5q.762-.5,1.506-1.029l-1.039-1.453Q155.257,364.195,154.525,364.672Zm-12.78,5.489.415,1.737q.888-.212,1.764-.461l-.488-1.718Q142.6,369.958,141.745,370.161Zm9.774-3.709.844,1.574q.8-.43,1.588-.9l-.91-1.536Q152.288,366.04,151.519,366.452Zm-6.414,2.754.562,1.7q.866-.287,1.718-.61l-.634-1.669Q145.935,368.931,145.105,369.206Z" transform="translate(-91.736 -333.847)" fill="#fff"/>
          </g>
        </g>
      </g>
      <g id="Group_41159" data-name="Group 41159" opacity="0.5">
        <g id="Group_40716" data-name="Group 40716" transform="translate(31.947 5.44)">
          <g id="Group_40715" data-name="Group 40715">
            <g id="Group_40714" data-name="Group 40714">
              <path id="Path_28074" data-name="Path 28074" d="M145.365,20.824l.663,1.658q.811-.324,1.636-.614l-.592-1.685Q146.211,20.486,145.365,20.824ZM155.928,18.1l.224,1.772q.864-.11,1.738-.183l-.15-1.779Q156.83,17.988,155.928,18.1Zm-7.122,1.515.519,1.709q.834-.253,1.682-.471l-.445-1.73Q149.677,19.354,148.806,19.618Zm3.53-.908.372,1.747q.853-.182,1.716-.327l-.3-1.761Q153.225,18.521,152.335,18.71Zm7.221-.914.077,1.784c.481-.021.964-.033,1.45-.038l.3,0V17.754l-.316,0Q160.308,17.763,159.557,17.8Zm-17.518,4.527.8,1.6q.78-.393,1.577-.752l-.734-1.628Q142.854,21.912,142.039,22.322ZM133,28.443l1.181,1.339q.658-.58,1.336-1.13l-1.125-1.387Q133.687,27.838,133,28.443Zm-2.63,2.528,1.29,1.234q.606-.634,1.236-1.238l-1.237-1.288Q131,30.31,130.372,30.971Zm8.483-6.87.938,1.52q.744-.459,1.506-.885l-.871-1.559Q139.631,23.622,138.855,24.1Zm-3.019,2.046,1.064,1.434q.7-.522,1.425-1.012l-1-1.478Q136.569,25.6,135.835,26.147Zm34.236-5.734q.856.178,1.7.392l.438-1.731q-.882-.224-1.778-.409Zm18.564,9.241q.656.574,1.291,1.178l1.23-1.294q-.662-.63-1.346-1.228Zm-5.625-4.133q.745.455,1.471.942l1-1.483q-.758-.509-1.536-.984Zm2.9,1.946q.7.516,1.384,1.064l1.12-1.392q-.712-.572-1.446-1.111Zm6.54,3.356-1.285,1.24c.408.422.806.853,1.185,1.282l1.338-1.182C193.292,31.714,192.876,31.263,192.45,30.823ZM163.134,19.57q.876.033,1.747.1l.142-1.78q-.907-.072-1.821-.107Zm10.325,1.7q.838.25,1.663.535l.584-1.688q-.862-.3-1.736-.559Zm-6.839-1.421q.87.105,1.731.247l.289-1.762q-.9-.148-1.805-.258Zm13.333,3.983q.781.389,1.545.812l.866-1.562c-.524-.29-1.068-.576-1.615-.848Zm-3.191-1.42q.813.321,1.611.676l.727-1.631q-.833-.371-1.682-.706Z" transform="translate(-130.372 -17.754)" fill="#fff"/>
            </g>
          </g>
        </g>
        <g id="Group_40719" data-name="Group 40719" transform="translate(22.479 32.02)">
          <g id="Group_40718" data-name="Group 40718">
            <g id="Group_40717" data-name="Group 40717">
              <path id="Path_28075" data-name="Path 28075" d="M91.738,137.089v1.786h1.786v-1.786Zm1.085-10.866c-.172.587-.325,1.189-.457,1.789l1.744.383c.123-.561.267-1.123.427-1.671Zm.7,7.293H91.736V135.3h1.786Zm-1.7-1.854,1.78.142c.047-.577.112-1.153.2-1.712l-1.766-.266C91.942,130.427,91.871,131.045,91.821,131.662Z" transform="translate(-91.736 -126.223)" fill="#fff"/>
            </g>
          </g>
        </g>
        <g id="Group_40722" data-name="Group 40722" transform="translate(99.571 32.02)">
          <g id="Group_40721" data-name="Group 40721">
            <g id="Group_40720" data-name="Group 40720">
              <path id="Path_28076" data-name="Path 28076" d="M408.057,126.223l-1.714.5c.16.548.3,1.11.427,1.671l1.744-.383C408.382,127.412,408.228,126.81,408.057,126.223Zm.791,3.6-1.766.266c.084.559.15,1.136.2,1.712l1.78-.142C409.009,131.045,408.938,130.427,408.848,129.827Zm-1.49,3.69V135.3h1.786v-1.786Zm0,5.358h1.786v-1.786h-1.786Z" transform="translate(-406.343 -126.223)" fill="#fff"/>
            </g>
          </g>
        </g>
      </g>
    </g>
    <g id="Group_41156" data-name="Group 41156" transform="translate(0 -10)">
      <g id="jade" transform="translate(264 394.301)">
        <path id="Path_24881" data-name="Path 24881" d="M9.822,214.912,6.494,211.6H0l9.822,9.79Z" transform="translate(0 -200.545)" fill="#fff"/>
        <path id="Path_24882" data-name="Path 24882" d="M211.3,221.443l9.817-9.843h-6.478l-3.338,3.344Z" transform="translate(-200.261 -200.545)" fill="#fff"/>
        <path id="Path_24883" data-name="Path 24883" d="M211.3.1V6.578l3.359,3.354h6.5Z" transform="translate(-200.261 -0.095)" fill="#fff"/>
        <path id="Path_24884" data-name="Path 24884" d="M9.811,0,0,9.837H6.478L9.811,6.494Z" fill="#fff"/>
      </g>
      <path id="trezor" d="M18.474,147.643c0,1.463-.08,2.932.017,4.388a9.738,9.738,0,0,1-2.6,7.666c-.3.316-.528.692-.81,1.022-.506.594-.674,1.662-1.456,1.784a25.281,25.281,0,0,1-4.018.079c-.4,0-.625-.344-.79-.648a20.416,20.416,0,0,0-2.558-3.409,7.909,7.909,0,0,1-1.826-5.263c-.036-3.914.007-7.83-.025-11.744-.008-1,.368-1.461,1.38-1.458q5.635.021,11.271,0c.987,0,1.446.389,1.428,1.415-.036,2.056-.011,4.112-.011,6.169m-7.055-4.517c-1.343,0-2.686.025-4.028-.01-.72-.019-.991.273-.987.974q.025,4.087,0,8.174c0,.66.284.93.919.928q4.088-.008,8.176,0c.688,0,.994-.262.987-.985q-.035-4.028,0-8.056c.007-.755-.266-1.065-1.043-1.041-1.341.042-2.685.012-4.028.012" transform="translate(52.594 253.409)" fill="#fff"/>
      <path id="ledger" d="M106.683,81.057c-.819,1.41-1.672,2.8-2.441,4.237-.379.707-.682.923-1.442.419a34.41,34.41,0,0,0-3.763-2.17c-.954-.473-1.136-.85-.536-1.855,2.767-4.632,5.433-9.324,8.122-14,.308-.536.755-1,.5-1.77-.4-1.214.324-1.486,1.342-1.293a10.428,10.428,0,0,0,3.666.013c.5-.081,1.284-.313,1.505.192a1.366,1.366,0,0,1-.252,1.735c-.465.408.546,3.245,1.168,3.648s.559,2.079-.139,2.185c-.8.122-.664.565-.666,1.034-.007,1.951,0,3.9,0,5.854,0,.5-.075.922.7,1.022.6.078.741,1.976.188,2.044-1.132.138-.883.855-.888,1.511-.024,3.092-.02,3.1-3.077,3.088-1.144,0-2.666.389-3.334-.187-.793-.684-.189-2.251-.258-3.433-.043-.736-.008-1.476-.008-2.214l-.393-.059M110.1,65.872c-1.04.022-1.626.874-2.166,1.809q-3.478,6.032-6.97,12.056c-1.578,2.735-1.557,2.712,1.233,4.323.8.46,1.184.5,1.7-.422,2.59-4.613,5.271-9.174,7.912-13.758a5.791,5.791,0,0,0,.559-1.219,2.2,2.2,0,0,0-2.268-2.79m1.7,6.942c-1.083,1.566-2.6,2.917-2.794,4.853-.168,1.629.042,3.293-.048,4.934-.063,1.149.632,1.043,1.323.982.636-.056,1.56.429,1.537-.923-.056-3.281-.018-6.564-.018-9.846" transform="translate(-2.155 328.956)" fill="#fff"/>
      <g id="coldcard" transform="translate(186 393.468)">
        <path id="Path_25656" data-name="Path 25656" d="M13.232,11.341c0,3.129,0,6.259,0,9.388,0,1.441-.4,1.831-1.83,1.833q-4.805.005-9.61,0c-1.348,0-1.758-.413-1.762-1.79Q.006,11.383,0,2C0,.36.378,0,2.024,0q4.695,0,9.389,0c1.416,0,1.835.4,1.842,1.841.016,3.166,0,6.332,0,9.5h-.027m-.661,3.8c0-1.95-.029-3.9.015-5.848.015-.685-.194-.875-.871-.869-3.384.032-6.769.038-10.152,0-.774-.01-.894.285-.889.962q.042,5.682,0,11.365c-.007.847.265,1.176,1.145,1.165q4.8-.057,9.6,0c.857.01,1.185-.275,1.165-1.145-.044-1.875-.013-3.751-.014-5.627M5.144,6.6H6.468c2.231,0,2.216,0,2.057-2.211-.033-.462-.151-.644-.637-.638-1.765.022-3.532.017-5.3,0-.441,0-.628.078-.661.593C1.787,6.6,1.765,6.6,4.04,6.6h1.1" transform="translate(0 0)" fill="#fff"/>
        <path id="Path_25657" data-name="Path 25657" d="M9.734,57.166c-.531-.123-.907-.379-.891-.965a.864.864,0,0,1,1-.921.861.861,0,0,1,.821.992c-.037.584-.422.812-.93.894" transform="translate(-6.887 -43.048)" fill="#fff"/>
        <path id="Path_25658" data-name="Path 25658" d="M44.675,56.56c-.012.263-.374.578-.9.581a.844.844,0,0,1-.908-.9.86.86,0,0,1,.963-.958c.516.027.873.369.845,1.279" transform="translate(-33.385 -43.05)" fill="#fff"/>
        <path id="Path_25659" data-name="Path 25659" d="M43.807,69.924c-.523-.06-.925-.275-.949-.864a.849.849,0,0,1,.92-.988.834.834,0,0,1,.9.9c.018.586-.329.854-.866.95" transform="translate(-33.376 -53.013)" fill="#fff"/>
        <path id="Path_25660" data-name="Path 25660" d="M10.688,43.544a.859.859,0,0,1-.894.917.831.831,0,0,1-.931-.868.841.841,0,0,1,.936-.97.856.856,0,0,1,.89.921" transform="translate(-6.901 -33.194)" fill="#fff"/>
        <path id="Path_25661" data-name="Path 25661" d="M27.69,69.037a.85.85,0,0,1-.928.863.828.828,0,0,1-.9-.9.843.843,0,0,1,.974-.934c.567.03.836.4.85.974" transform="translate(-20.145 -53.004)" fill="#fff"/>
        <path id="Path_25662" data-name="Path 25662" d="M9.688,67.963c.6.053.959.314.989.887a.844.844,0,0,1-.938.969.824.824,0,0,1-.88-.913.9.9,0,0,1,.828-.942" transform="translate(-6.9 -52.929)" fill="#fff"/>
        <path id="Path_25663" data-name="Path 25663" d="M26.8,44.5a.893.893,0,0,1-.949-.864.825.825,0,0,1,.807-.979.838.838,0,0,1,1.011.886.893.893,0,0,1-.87.957" transform="translate(-20.127 -33.217)" fill="#fff"/>
        <path id="Path_25664" data-name="Path 25664" d="M43.766,42.548a.881.881,0,0,1,.911.9.912.912,0,1,1-1.822.022c0-.574.353-.852.911-.918" transform="translate(-33.376 -33.136)" fill="#fff"/>
        <path id="Path_25665" data-name="Path 25665" d="M26.747,55.185c.519.1.9.339.915.92a.913.913,0,1,1-1.825.014c.013-.581.385-.832.91-.934" transform="translate(-20.121 -42.977)" fill="#fff"/>
        <path id="Path_25666" data-name="Path 25666" d="M26.765,80.858a.91.91,0,1,1-.041,1.818.818.818,0,0,1-.86-.925.839.839,0,0,1,.9-.893" transform="translate(-20.143 -62.971)" fill="#fff"/>
        <path id="Path_25667" data-name="Path 25667" d="M44.7,81.793c-.064.6-.36.923-.929.914a.83.83,0,0,1-.9-.991.817.817,0,0,1,.963-.813.851.851,0,0,1,.861.89" transform="translate(-33.387 -63.004)" fill="#fff"/>
        <path id="Path_25668" data-name="Path 25668" d="M9.8,80.868a.833.833,0,0,1,.895.881.817.817,0,0,1-.847.932.829.829,0,0,1-.962-.926c.006-.571.343-.852.914-.887" transform="translate(-6.916 -62.979)" fill="#fff"/>
      </g>
      <g id="keystone" transform="translate(224 393.468)">
        <path id="Path_28292" data-name="Path 28292" d="M0,12.422a3.294,3.294,0,0,1,.467-1.65q1.606-2.79,3.206-5.584Q5,2.882,6.317.576A.99.99,0,0,1,7.237,0a.885.885,0,0,1,.788.421A14.351,14.351,0,0,1,8.756,1.7a1.557,1.557,0,0,1-.082,1.535L6.48,7.024l-4.652,8.05c-.036.062-.069.125-.11.183a.488.488,0,0,1-.845,0,4.895,4.895,0,0,1-.413-.837A6.133,6.133,0,0,1,0,12.422" transform="translate(0 -0.001)" fill="#fff"/>
        <path id="Path_28294" data-name="Path 28294" d="M119.285,453.436a1.745,1.745,0,0,1-.472,1.215c-.157.17-.324.331-.491.492a1.605,1.605,0,0,1-1.939.323c-.975-.457-1.948-.919-2.921-1.379-.193-.091-.388-.178-.577-.277a1.609,1.609,0,0,1-.69-2.256q.644-1.154,1.322-2.289a1.286,1.286,0,0,1,2.073-.254c1.051,1.041,2.1,2.089,3.142,3.133a1.789,1.789,0,0,1,.551,1.291" transform="translate(-108.982 -436.595)" fill="#fff"/>
        <path id="Path_28300" data-name="Path 28300" d="M298.394,408.743c.714,0,1.427-.01,2.14,0a1.781,1.781,0,0,1,1.541.866,1.335,1.335,0,0,1-.162,1.677c-.509.525-1.026,1.043-1.556,1.546a1.452,1.452,0,0,1-2.09-.049c-.631-.618-1.251-1.247-1.876-1.871-.252-.252-.509-.5-.756-.758a.823.823,0,0,1,.618-1.416q1.07,0,2.141,0" transform="translate(-287.475 -397.803)" fill="#fff"/>
        <path id="Path_28303" data-name="Path 28303" d="M265.115,185.041c-.5,0-1,.005-1.5,0a1.137,1.137,0,0,1-1.148-1.019,1.155,1.155,0,0,1,.172-.741q.556-.959,1.109-1.92c.125-.216.245-.434.376-.647a1.3,1.3,0,0,1,2.267.006q.69,1.159,1.348,2.336a1.3,1.3,0,0,1-1.156,1.985c-.49,0-.98,0-1.471,0" transform="translate(-255.439 -175.232)" fill="#fff"/>
      </g>
      <g id="tapsigner" transform="translate(138 397.313)">
        <path id="Path_27307" data-name="Path 27307" d="M23.176,15.014H.691a.553.553,0,0,1-.551-.551V.691A.553.553,0,0,1,.691.14H23.176a.553.553,0,0,1,.551.551V14.463A.553.553,0,0,1,23.176,15.014Z" transform="translate(-0.14 -0.14)" fill="#fff"/>
        <path id="Path_28304" data-name="Path 28304" d="M0,0H23.587" transform="translate(0 3.16)" fill="none" stroke="#035f51" stroke-width="2"/>
      </g>
      <g id="Group_41155" data-name="Group 41155" transform="translate(310 391.348)">
        <path id="Path_28305" data-name="Path 28305" d="M1.5,2.147a.932.932,0,0,1,.592-.8A3.536,3.536,0,0,1,3.724,1H8.088a3.536,3.536,0,0,1,1.632.352.932.932,0,0,1,.592.8V26.2a1.371,1.371,0,0,1-.642,1.166,2.834,2.834,0,0,1-1.582.44H3.724a2.834,2.834,0,0,1-1.582-.44A1.371,1.371,0,0,1,1.5,26.2Z" transform="translate(-1.5 -1)" fill="#04594c" stroke="#fff" stroke-width="1"/>
        <rect id="Rectangle_7781" data-name="Rectangle 7781" width="6.601" height="6.885" rx="0.75" transform="translate(1.102 17.625)" fill="#fff"/>
        <rect id="Rectangle_7794" data-name="Rectangle 7794" width="3.574" height="3.574" rx="1.787" transform="translate(2.737 12.509)" fill="#fff"/>
        <rect id="Rectangle_7796" data-name="Rectangle 7796" width="5.957" height="8.339" rx="1.25" transform="translate(1.426 2.978)" fill="#fff"/>
        <line id="Line_828" data-name="Line 828" x2="0.459" transform="translate(4.223 1.469)" fill="none" stroke="#fff" stroke-linecap="round" stroke-linejoin="round" stroke-width="1"/>
      </g>
      <line id="Line_829" data-name="Line 829" y2="10" transform="translate(83.5 399.5)" fill="none" stroke="#fff" stroke-linecap="round" stroke-width="2" opacity="0.5"/>
      <line id="Line_830" data-name="Line 830" y2="10" transform="translate(125.5 399.5)" fill="none" stroke="#fff" stroke-linecap="round" stroke-width="2" opacity="0.5"/>
      <line id="Line_831" data-name="Line 831" y2="10" transform="translate(173.5 399.5)" fill="none" stroke="#fff" stroke-linecap="round" stroke-width="2" opacity="0.5"/>
      <line id="Line_832" data-name="Line 832" y2="10" transform="translate(211.5 399.5)" fill="none" stroke="#fff" stroke-linecap="round" stroke-width="2" opacity="0.5"/>
      <line id="Line_833" data-name="Line 833" y2="10" transform="translate(251.5 399.5)" fill="none" stroke="#fff" stroke-linecap="round" stroke-width="2" opacity="0.5"/>
      <line id="Line_834" data-name="Line 834" y2="10" transform="translate(297.5 399.5)" fill="none" stroke="#fff" stroke-linecap="round" stroke-width="2" opacity="0.5"/>
    </g>
  </g>
</svg>
