<svg xmlns="http://www.w3.org/2000/svg" width="38" height="38" viewBox="0 0 38 38">
  <g id="inheritance" transform="translate(-40 -615)">
    <circle id="Ellipse_1938" data-name="Ellipse 1938" cx="19" cy="19" r="19" transform="translate(40 615)" fill="#1f1b1e" opacity="0.47"/>
    <path id="inheritance-2" data-name="inheritance" d="M16.455,2H4.363A2.365,2.365,0,0,0,2,4.363V16.808a2.492,2.492,0,0,0,.605,1.606.643.643,0,0,0,.5.21.617.617,0,0,0,.488-.244l1.076-1.429,1.051,1.371a1.239,1.239,0,0,0,.992.5,1.267,1.267,0,0,0,1-.5l1.034-1.371,1.051,1.371a1.277,1.277,0,0,0,1.984,0l1.026-1.345.975,1.362a.642.642,0,0,0,.992.05,2.437,2.437,0,0,0,.589-1.581V11.039h1.093c1.3,0,1.522-1.06,1.522-2.363V4.354C17.977,3.051,17.758,2,16.455,2ZM4.59,13a.635.635,0,0,1,.631-.631h6.92a.631.631,0,1,1,0,1.261H5.221A.635.635,0,0,1,4.59,13Zm0-3.456a.63.63,0,0,1,.631-.631h6.92a.631.631,0,1,1,0,1.261H5.221A.635.635,0,0,1,4.59,9.543Zm7.551-2.792H5.221a.631.631,0,0,1,0-1.261h6.92a.631.631,0,1,1,0,1.261ZM16.91,8.677c0,.605.15,1.1-.455,1.1H15.362V3.261h1.093c.605,0,.455.488.455,1.093Z" transform="translate(49.012 623.591)" fill="#fff"/>
  </g>
</svg>
