<svg xmlns="http://www.w3.org/2000/svg" xmlns:xlink="http://www.w3.org/1999/xlink" width="52.336" height="48.093" viewBox="0 0 39.176 36">
  <defs>
    <linearGradient id="linear-gradient" x1="0.157" y1="0.247" x2="0.87" y2="0.724" gradientUnits="objectBoundingBox">
      <stop offset="0" stop-color="#00836a"/>
      <stop offset="1" stop-color="#073e39"/>
    </linearGradient>
  </defs>
  <g id="key" transform="translate(-44 -712)">
    <path id="hexagontile3" d="M21.819,0a5,5,0,0,1,4.327,2.495l5.339,9.222a5,5,0,0,1,0,5.01L26.146,25.95a5,5,0,0,1-4.327,2.495h-10.7A5,5,0,0,1,6.79,25.95L1.45,16.728a5,5,0,0,1,0-5.01L6.79,2.495A5,5,0,0,1,11.117,0Z" transform="matrix(0.966, 0.259, -0.259, 0.966, 51.362, 712)" fill="#fac48b"/>
    <g id="key-2" data-name="key" transform="translate(57.838 723.45)">
      <path id="Shape" d="M3.984,12.146H3.918A3.983,3.983,0,0,1,1.151,5.362a3.941,3.941,0,0,1,2.8-1.168c.078,0,.157,0,.235.007l4-4.006a.665.665,0,0,1,.6-.181l2.345.47A.663.663,0,0,1,11.654,1l.469,2.349a.664.664,0,0,1-.181.6l-.08.08a.664.664,0,0,1-.469.2H10.34V5.281a.664.664,0,0,1-.193.47l-.631.63a.654.654,0,0,1-.229.15.661.661,0,0,1-.24.045h-.03l-1.1-.05V7.712A4.474,4.474,0,0,1,6.78,11l-.048.047A3.968,3.968,0,0,1,3.984,12.146ZM3.91,6.48a1.787,1.787,0,0,0,0,3.573,1.8,1.8,0,0,0,.347-.034A1.787,1.787,0,0,0,3.91,6.48Z" transform="translate(0.162 0.55)" fill="#073e39"/>
    </g>
  </g>
</svg>
