<svg xmlns="http://www.w3.org/2000/svg" xmlns:xlink="http://www.w3.org/1999/xlink" width="52.336" height="48.093" viewBox="0 0 39.176 36">
  <defs>
    <linearGradient id="linear-gradient" x1="0.157" y1="0.247" x2="0.87" y2="0.724" gradientUnits="objectBoundingBox">
      <stop offset="0" stop-color="#00836a"/>
      <stop offset="1" stop-color="#073e39"/>
    </linearGradient>
  </defs>
  <g id="ledger" transform="translate(-44 -220)">
    <path id="hexagontile3" d="M21.819,0a5,5,0,0,1,4.327,2.495l5.339,9.222a5,5,0,0,1,0,5.01L26.146,25.95a5,5,0,0,1-4.327,2.495h-10.7A5,5,0,0,1,6.79,25.95L1.45,16.728a5,5,0,0,1,0-5.01L6.79,2.495A5,5,0,0,1,11.117,0Z" transform="matrix(0.966, 0.259, -0.259, 0.966, 51.362, 220)" fill="#fac48b"/>
    <path id="ledger-logo-short" d="M0,8.593V12H5.185v-.756H.756V8.593Zm13.03,0v2.652H8.6V12h5.185V8.593ZM5.193,3.407V8.593H8.6V7.911H5.948v-4.5ZM0,0V3.407H.756V.756h4.43V0ZM8.6,0V.756h4.43V3.407h.756V0Z" transform="translate(56.695 232)" fill="#073e39"/>
  </g>
</svg>
