<svg xmlns="http://www.w3.org/2000/svg" xmlns:xlink="http://www.w3.org/1999/xlink" width="39.176" height="36" viewBox="0 0 39.176 36">
  <defs>
    <linearGradient id="linear-gradient" x1="0.157" y1="0.247" x2="0.87" y2="0.724" gradientUnits="objectBoundingBox">
      <stop offset="0" stop-color="#00836a"/>
      <stop offset="1" stop-color="#073e39"/>
    </linearGradient>
  </defs>
  <g id="mobile" transform="translate(-44 -302)">
    <path id="hexagontile3" d="M21.819,0a5,5,0,0,1,4.327,2.495l5.339,9.222a5,5,0,0,1,0,5.01L26.146,25.95a5,5,0,0,1-4.327,2.495h-10.7A5,5,0,0,1,6.79,25.95L1.45,16.728a5,5,0,0,1,0-5.01L6.79,2.495A5,5,0,0,1,11.117,0Z" transform="matrix(0.966, 0.259, -0.259, 0.966, 51.362, 302)" fill="url(#linear-gradient)"/>
    <g id="mobile-2" data-name="mobile" transform="translate(58.315 312.557)">
      <path id="Shape" d="M6.635,13.9H1.58A1.58,1.58,0,0,1,0,12.323V1.58A1.58,1.58,0,0,1,1.58,0H6.635A1.591,1.591,0,0,1,7.752.463,1.57,1.57,0,0,1,8.215,1.58V12.323a1.57,1.57,0,0,1-.463,1.118A1.59,1.59,0,0,1,6.635,13.9Zm-2.5-3.476a1.192,1.192,0,0,0-1.192,1.192,1.2,1.2,0,0,0,.349.843,1.192,1.192,0,1,0,.843-2.034Z" transform="translate(0.685 0.443)" fill="#fffcfa"/>
    </g>
  </g>
</svg>
