
<svg xmlns="http://www.w3.org/2000/svg" width="52.336" height="48.093" viewBox="0 0 52.336 48.093">
  <g id="iphone_tile" data-name="iphone tile" transform="translate(-30 -353.907)">
    <g id="hexagontile1" transform="translate(-15 -39.093)">
      <path id="Polygon_3" data-name="Polygon 3" d="M30.117,0a5,5,0,0,1,4.327,2.495l8.105,14a5,5,0,0,1,0,5.01l-8.105,14A5,5,0,0,1,30.117,38H13.883a5,5,0,0,1-4.327-2.495l-8.105-14a5,5,0,0,1,0-5.01l8.105-14A5,5,0,0,1,13.883,0Z" transform="matrix(0.966, 0.259, -0.259, 0.966, 54.835, 393)" fill="#fac48b"/>
    </g>
    <g id="mobile" transform="translate(50.315 368.464)">
      <path id="Shape" d="M8.448,17.7H2.012A2.012,2.012,0,0,1,0,15.691V2.012A2.012,2.012,0,0,1,2.012,0H8.448A2.025,2.025,0,0,1,9.871.589a2,2,0,0,1,.589,1.423V15.691a2,2,0,0,1-.589,1.423A2.025,2.025,0,0,1,8.448,17.7ZM5.271,13.277a1.517,1.517,0,0,0-1.518,1.518A1.528,1.528,0,0,0,4.2,15.867a1.517,1.517,0,1,0,1.074-2.59Z" transform="translate(0.685 0.443)" fill="#073e39"/>
    </g>
  </g>
</svg>
