<svg xmlns="http://www.w3.org/2000/svg" xmlns:xlink="http://www.w3.org/1999/xlink" width="121.811" height="123.6" viewBox="-40 0 121.811 123.6">
  <defs>
    <linearGradient id="linear-gradient" x1="0.131" y1="0.725" x2="1.053" y2="0.122" gradientUnits="objectBoundingBox">
      <stop offset="0" stop-color="#00836a"/>
      <stop offset="1" stop-color="#073e39"/>
    </linearGradient>
    <filter id="Union_18" x="0" y="0" width="121.811" height="123.6" filterUnits="userSpaceOnUse">
      <feOffset dx="10" dy="10" input="SourceAlpha"/>
      <feGaussianBlur stdDeviation="10" result="blur"/>
      <feFlood flood-color="#c3c0bc" flood-opacity="0.62"/>
      <feComposite operator="in" in2="blur"/>
      <feComposite in="SourceGraphic"/>
    </filter>
  </defs>
  <g id="nav_wallet" transform="translate(-293.187 -208.199)">
    <g transform="matrix(1, 0, 0, 1, 293.19, 208.2)" filter="url(#Union_18)">
      <path id="Union_18-2" data-name="Union 18" d="M-3346.27-22656.037h-32.855v-.037a5.981,5.981,0,0,1-3.729-1.736l-18.879-18.873a5.983,5.983,0,0,1-1.551-5.793l6.911-25.783a5.994,5.994,0,0,1,4.242-4.242l25.8-6.912a5.915,5.915,0,0,1,1.4-.2v-.02h23.258v63.6Z" transform="translate(3423.49 22739.64)" fill="url(#linear-gradient)"/>
    </g>
    <g id="wallet" transform="translate(336.878 249.508)">
      <path id="Shape" d="M21.013,20.983H3.135a3.153,3.153,0,0,1-2.2-.882A3.016,3.016,0,0,1,0,17.949V4.5A4.424,4.424,0,0,1,1.347,1.318,4.62,4.62,0,0,1,4.6,0H16.191a4.62,4.62,0,0,1,3.251,1.318A4.421,4.421,0,0,1,20.789,4.5a2.5,2.5,0,0,1,1.587.7,2.4,2.4,0,0,1,.723,1.55v12.21a1.99,1.99,0,0,1-.164.779,2.015,2.015,0,0,1-.457.659,2.072,2.072,0,0,1-.68.437A2.124,2.124,0,0,1,21.013,20.983ZM16.633,10.367a2.329,2.329,0,0,0-.446.043,2.284,2.284,0,0,0-1.166.61,2.212,2.212,0,0,0-.624,1.14,2.179,2.179,0,0,0,.127,1.287,2.236,2.236,0,0,0,.836,1,2.308,2.308,0,0,0,1.263.38v0h.006a2.309,2.309,0,0,0,1.613-.653,2.226,2.226,0,0,0,.5-.726,2.174,2.174,0,0,0-.212-2.092,2.267,2.267,0,0,0-1.023-.818A2.316,2.316,0,0,0,16.633,10.367ZM4.236,2.25A1.948,1.948,0,0,0,2.874,2.8a1.873,1.873,0,0,0-.417.611,1.83,1.83,0,0,0-.147.72V4.5H18.479V4.132a1.847,1.847,0,0,0-.146-.72,1.874,1.874,0,0,0-.418-.611,1.922,1.922,0,0,0-.624-.408,1.953,1.953,0,0,0-.737-.143Z" fill="#fffcfa"/>
    </g>
  </g>
</svg>
