<svg xmlns="http://www.w3.org/2000/svg" width="80" height="40" viewBox="0 0 80 40">
  <g id="pleb" transform="translate(-40 -60)">
    <g id="Group_42727" data-name="Group 42727" transform="translate(0 11)">
      <g id="pleb_base">
        <g id="Rectangle_7983" data-name="Rectangle 7983" transform="translate(66 59)" fill="#015a53" stroke="#fff" stroke-width="0.4">
          <rect width="54" height="20" rx="10" stroke="none"/>
          <rect x="0.2" y="0.2" width="53.6" height="19.6" rx="9.8" fill="none"/>
        </g>
        <g id="Rectangle_7984" data-name="Rectangle 7984" transform="translate(40 49)" fill="#015a53" stroke="#fff" stroke-width="0.4">
          <rect width="40" height="40" rx="20" stroke="none"/>
          <rect x="0.2" y="0.2" width="39.6" height="39.6" rx="19.8" fill="none"/>
        </g>
      </g>
      <text id="PLEB-2" data-name="PLEB" transform="translate(83.814 73.5)" fill="#fff" font-size="11" font-family="RobotoCondensed-Bold, Roboto Condensed" font-weight="700" letter-spacing="0.15em"><tspan x="0" y="0">PLEB</tspan></text>
    </g>
    <g id="icon_pleb" transform="translate(47.5 68.806)">
      <g id="Group_42209" data-name="Group 42209" transform="translate(0 -1.608)">
        <path id="Path_27699" data-name="Path 27699" d="M19.239,12v3.639a1.942,1.942,0,0,1-.861,1.613,11.414,11.414,0,0,1-6.309,1.907A11.5,11.5,0,0,1,5.76,17.241a1.9,1.9,0,0,1-.85-1.6V12.011l1.634.719L10.957,14.7a1.873,1.873,0,0,0,.621.174,2.584,2.584,0,0,0,.959.011,2.2,2.2,0,0,0,.643-.185L17.6,12.73Z" transform="translate(0.261 0.804)" fill="#fff"/>
        <path id="Path_27700" data-name="Path 27700" d="M23.793,18.405a1.932,1.932,0,0,1-1.122,1.754v1.6a.817.817,0,0,1-1.634,0v-1.6a1.932,1.932,0,0,1,0-3.509v-6.08l-1.536.686-1.634.73-4.424,1.972a2.2,2.2,0,0,1-.643.185,2.584,2.584,0,0,1-.959-.011,1.872,1.872,0,0,1-.621-.174L6.805,11.987l-1.634-.719-1.9-.85A2.006,2.006,0,0,1,2,8.609,2.021,2.021,0,0,1,3.275,6.79l7.954-3.541a2.877,2.877,0,0,1,2.19-.011L21.4,6.79a2.021,2.021,0,0,1,1.275,1.82v8.042A1.932,1.932,0,0,1,23.793,18.405Z" fill="#fff"/>
      </g>
    </g>
  </g>
</svg>
