<svg xmlns="http://www.w3.org/2000/svg" xmlns:xlink="http://www.w3.org/1999/xlink" width="20" height="20" viewBox="0 0 20 20">
  <defs>
    <linearGradient id="linear-gradient" x1="0.5" x2="0.5" y2="1" gradientUnits="objectBoundingBox">
      <stop offset="0" stop-color="#00836a"/>
      <stop offset="1" stop-color="#073e39"/>
    </linearGradient>
  </defs>
  <path id="recover" d="M18.48,2H5.53A3.529,3.529,0,0,0,2,5.53V18.47A3.529,3.529,0,0,0,5.53,22H18.48A3.527,3.527,0,0,0,22,18.47V5.53A3.527,3.527,0,0,0,18.48,2Zm-2.6,13.85a.75.75,0,0,1,0-1.5,2.35,2.35,0,0,0,0-4.7H12.24l.58.58a.737.737,0,0,1,0,1.06.71.71,0,0,1-.53.22.742.742,0,0,1-.53-.22L9.9,9.43a.754.754,0,0,1,0-1.06l1.86-1.86a.75.75,0,1,1,1.06,1.06l-.58.58h3.64a3.85,3.85,0,0,1,0,7.7ZM4.27,12A3.858,3.858,0,0,1,8.12,8.15a.75.75,0,0,1,0,1.5,2.35,2.35,0,0,0,0,4.7h3.62l-.58-.58a.75.75,0,1,1,1.06-1.06l1.86,1.86a.754.754,0,0,1,0,1.06l-1.86,1.86a.748.748,0,0,1-1.06,0,.754.754,0,0,1,0-1.06l.58-.58H8.12A3.858,3.858,0,0,1,4.27,12Z" transform="translate(-2 -2)" fill="url(#linear-gradient)"/>
</svg>
