
<svg id="scanner" xmlns="http://www.w3.org/2000/svg" width="18.824" height="18.823" viewBox="0 0 18.824 18.823">
  <path id="Combined_Shape" data-name="Combined Shape" d="M12.569,18.823a.721.721,0,0,1-.722-.72V16.784a.722.722,0,0,1,.722-.722H15.8a.25.25,0,0,0,.25-.25V12.567a.72.72,0,0,1,.212-.51.719.719,0,0,1,.234-.156.709.709,0,0,1,.277-.054H18.1a.717.717,0,0,1,.278.053.72.72,0,0,1,.394.39.722.722,0,0,1,.056.277v5.719a.537.537,0,0,1-.538.537Zm-12.031,0A.537.537,0,0,1,0,18.286V12.569a.726.726,0,0,1,.054-.276.721.721,0,0,1,.666-.446H2.04a.722.722,0,0,1,.722.722V15.8a.249.249,0,0,0,.25.25H6.256a.72.72,0,0,1,.666.445.728.728,0,0,1,.055.276v1.329a.721.721,0,0,1-.721.728ZM16.784,6.977a.722.722,0,0,1-.722-.722V3.021a.25.25,0,0,0-.25-.25H12.568a.721.721,0,0,1-.721-.721V.722a.721.721,0,0,1,.444-.667A.719.719,0,0,1,12.568,0h5.718a.538.538,0,0,1,.538.538V6.255a.719.719,0,0,1-.211.51.715.715,0,0,1-.234.157.726.726,0,0,1-.276.055Zm-16.063,0A.721.721,0,0,1,0,6.256V.538A.538.538,0,0,1,.538,0H6.255a.722.722,0,0,1,.722.721V2.04a.724.724,0,0,1-.722.722H3.021a.249.249,0,0,0-.25.25V6.256a.722.722,0,0,1-.212.51.736.736,0,0,1-.234.156.728.728,0,0,1-.277.054Z" fill="#fafcfc"/>
</svg>
