<svg xmlns="http://www.w3.org/2000/svg" width="38" height="38" viewBox="0 0 38 38">
  <g id="icon_send" transform="translate(-55 -719.5)">
    <g id="Group_39001" data-name="Group 39001" transform="translate(13 361.5)">
      <circle id="Ellipse_1947" data-name="Ellipse 1947" cx="19" cy="19" r="19" transform="translate(42 358)" fill="#fac48b"/>
    </g>
    <path id="Union_20" data-name="Union 20" d="M-10329.654-14306.74v-8.363l-1.4,1.395a1.4,1.4,0,0,1-2.021,0,1.4,1.4,0,0,1,0-2.016l3.67-3.67a1.413,1.413,0,0,1,1.182-.607l.011,0a1.292,1.292,0,0,1,.323.035,1.411,1.411,0,0,1,.862.578l3.661,3.662a1.4,1.4,0,0,1,0,2.016,1.4,1.4,0,0,1-1.014.434,1.382,1.382,0,0,1-1.008-.434l-1.391-1.389v8.357a1.446,1.446,0,0,1-1.445,1.441A1.414,1.414,0,0,1-10329.654-14306.74Z" transform="matrix(0.866, 0.5, -0.5, 0.866, 1861.789, 18298.145)" fill="#453228"/>
  </g>
</svg>
