<svg id="settings" xmlns="http://www.w3.org/2000/svg" width="19.04" height="19.495" viewBox="0 0 19.04 19.495">
  <path id="Shape" d="M11.081,19.5H7.958a.886.886,0,0,1-.888-.881V17.068a1.551,1.551,0,0,0-.815-1.242c-.192-.1-.381-.209-.578-.336a1.571,1.571,0,0,0-.729-.242c-.038,0-.075,0-.112,0a1.551,1.551,0,0,0-.644.139l-1.383.745a.9.9,0,0,1-.677.073.891.891,0,0,1-.533-.425L.11,13.077a.87.87,0,0,1,.355-1.194L1.83,11.14a1.531,1.531,0,0,0,.716-1.293V9.515A1.521,1.521,0,0,0,1.86,8.2L.808,7.6a.869.869,0,0,1-.33-1.2L2.035,3.732A.9.9,0,0,1,3.25,3.41L4.3,4.005a1.591,1.591,0,0,0,.681.154l.077,0A1.6,1.6,0,0,0,5.8,3.933c.138-.087.287-.173.455-.263A1.539,1.539,0,0,0,7.07,2.431V.882A.88.88,0,0,1,7.331.257.894.894,0,0,1,7.957,0h3.126a.877.877,0,0,1,.335.066A.887.887,0,0,1,11.9.543a.879.879,0,0,1,.068.339V2.426a1.544,1.544,0,0,0,.816,1.242c.208.112.4.222.572.335a1.592,1.592,0,0,0,.732.24c.038,0,.076,0,.114,0a1.574,1.574,0,0,0,.645-.137l1.377-.745a.9.9,0,0,1,1.211.351l1.5,2.7a.872.872,0,0,1-.357,1.193L17.2,8.355a1.533,1.533,0,0,0-.716,1.289V9.98a1.549,1.549,0,0,0,.683,1.311l1.055.6a.871.871,0,0,1,.331,1.2L17,15.762a.892.892,0,0,1-1.214.322l-1.052-.593a1.6,1.6,0,0,0-.681-.153l-.077,0a1.591,1.591,0,0,0-.739.224c-.143.088-.3.176-.454.263a1.523,1.523,0,0,0-.815,1.237v1.551a.893.893,0,0,1-.262.624A.883.883,0,0,1,11.081,19.5ZM9.565,6.314a3.432,3.432,0,0,0-.049,6.865h.033a3.432,3.432,0,1,0,.016-6.865Z" transform="translate(0)" fill="#fafcfc"/>
</svg>

