<svg xmlns="http://www.w3.org/2000/svg" width="52.336" height="48.093" viewBox="0 0 52.336 48.093">
  <g id="single_sig" data-name="single sig" transform="translate(-45 -598)">
    <g id="Group_38308" data-name="Group 38308">
      <path id="hexagontile3" d="M30.117,0a5,5,0,0,1,4.327,2.495l8.105,14a5,5,0,0,1,0,5.01l-8.105,14A5,5,0,0,1,30.117,38H13.883a5,5,0,0,1-4.327-2.495l-8.105-14a5,5,0,0,1,0-5.01l8.105-14A5,5,0,0,1,13.883,0Z" transform="matrix(0.966, 0.259, -0.259, 0.966, 54.835, 598)" fill="#092c27" opacity="0.297"/>
    </g>
    <g id="wallet" transform="translate(61.482 612.588)">
      <path id="Shape" d="M17.623,17.988H2.629A2.629,2.629,0,0,1,0,15.387V3.857A3.857,3.857,0,0,1,3.856,0h9.722a3.857,3.857,0,0,1,3.856,3.857,2.075,2.075,0,0,1,1.937,1.929V16.253a1.748,1.748,0,0,1-1.749,1.736Zm-3.674-9.1a1.912,1.912,0,0,0-.009,3.825v0h.005a1.911,1.911,0,1,0,0-3.821ZM3.552,1.929A1.614,1.614,0,0,0,1.937,3.542v.314H15.5V3.542a1.613,1.613,0,0,0-1.614-1.613Z" transform="translate(0 0)" fill="#fffcfa"/>
    </g>
  </g>
</svg>
