<svg xmlns="http://www.w3.org/2000/svg" width="15.481" height="11.17" viewBox="0 0 15.481 11.17">
  <g id="skip" transform="translate(-4.269 -6.41)" opacity="0.7">
    <path id="Path_27794" data-name="Path 27794" d="M19,6.42a.76.76,0,0,0-.75.75v9.66a.75.75,0,0,0,1.5,0V7.17A.76.76,0,0,0,19,6.42Z" fill="#fff"/>
    <path id="Path_27795" data-name="Path 27795" d="M14.35,10.52,6.77,6.63a1.67,1.67,0,0,0-.84-.22,1.63,1.63,0,0,0-.84.23,1.61,1.61,0,0,0-.61.63,1.56,1.56,0,0,0-.21.83v7.83a1.67,1.67,0,0,0,.22.81,1.691,1.691,0,0,0,.59.6,1.621,1.621,0,0,0,.8.24h.06a1.671,1.671,0,0,0,.76-.18l7.67-3.92a1.66,1.66,0,0,0,.65-.61,1.679,1.679,0,0,0,0-1.73A1.66,1.66,0,0,0,14.35,10.52Z" fill="#fff"/>
  </g>
</svg>
