<svg xmlns="http://www.w3.org/2000/svg" width="113.805" height="14.006" viewBox="0 0 113.805 14.006">
  <g id="tapsigner" transform="translate(-12.11 -11.98)">
    <g id="Group_39357" data-name="Group 39357" transform="translate(12.11 11.98)">
      <g id="Group_39356" data-name="Group 39356">
        <path id="Path_24806" data-name="Path 24806" d="M17.2,26.491V15.538H12.11V12.8H25.8v2.738H20.718V26.491Z" transform="translate(-12.11 -12.641)" fill="#f89521"/>
        <path id="Path_24807" data-name="Path 24807" d="M76.826,13.593c.449-1.077,1.016-1.6,2.7-1.6a2.457,2.457,0,0,1,2.68,1.6l5.125,12.244h-3.7L82.4,22.709h-5.77L75.4,25.838H71.72Zm.664,6.455h4.049L79.8,15.706c-.077-.215-.137-.43-.273-.43s-.215.215-.294.43Z" transform="translate(-60.178 -11.988)" fill="#f89521"/>
        <path id="Path_24808" data-name="Path 24808" d="M155.87,26.491V14.912a1.87,1.87,0,0,1,2.074-2.112h7.276c3.032,0,3.7,1.9,3.7,4.635s-.664,4.676-3.7,4.676h-5.83v4.382h-3.52Zm7.532-7.119c1.468,0,1.917-.567,1.917-1.936s-.449-1.9-1.917-1.9h-3.09c-.685,0-.92.234-.92.92v2.914Z" transform="translate(-128.035 -12.641)" fill="#f89521"/>
        <path id="Path_24809" data-name="Path 24809" d="M234.074,25.006h7.648c1.036,0,1.448-.724,1.448-1.917,0-.724-.157-1.448-1.526-1.9l-5.417-1.8a3.063,3.063,0,0,1-2.347-3.384c0-1.956.939-3.208,3.11-3.208H244.4v1.487h-7.081c-1.036,0-1.545.49-1.545,1.76a1.66,1.66,0,0,0,1.291,1.878l5.164,1.721c1.82.606,2.837,1.291,2.837,3.443,0,1.859-.724,3.4-2.837,3.4h-8.157V25.006Z" transform="translate(-190.941 -12.641)" fill="#f89521"/>
        <path id="Path_24810" data-name="Path 24810" d="M302.26,26.491V12.8h1.82V26.493h-1.82Z" transform="translate(-246.082 -12.641)" fill="#f89521"/>
        <path id="Path_24811" data-name="Path 24811" d="M334.995,24.7c0,1.272-.625,1.779-1.8,1.779h-4.968c-4.44,0-5.458-3.032-5.458-6.846s1.017-6.846,5.712-6.846h6.2v1.487h-5.6c-3.423,0-4.42,1.644-4.42,5.359s1,5.359,4.147,5.359h3.462c.685,0,.9-.234.9-.92V19.989H335V24.7Z" transform="translate(-262.621 -12.633)" fill="#f89521"/>
        <path id="Path_24812" data-name="Path 24812" d="M409.371,24.265a1.535,1.535,0,0,1-1.644,1.721,1.9,1.9,0,0,1-1.8-1.077l-6.455-10.328c-.137-.234-.254-.333-.391-.333-.077,0-.273.077-.273.391V25.829H397.03V13.6a1.534,1.534,0,0,1,1.683-1.624,1.858,1.858,0,0,1,1.76,1l6.513,10.407c.1.157.176.333.372.333.234,0,.234-.215.234-.333V12.139h1.779Z" transform="translate(-322.503 -11.98)" fill="#f89521"/>
        <path id="Path_24813" data-name="Path 24813" d="M475.827,26.491a1.7,1.7,0,0,1-1.917-1.936V14.736c0-1.468.724-1.936,1.917-1.936H484.3v1.487h-7.667c-.763,0-.9.234-.9.92v3.541H484.1v1.487h-8.372v3.834c0,.685.137.939.9.939h7.747v1.487h-8.548Z" transform="translate(-384.497 -12.641)" fill="#f89521"/>
        <path id="Path_24814" data-name="Path 24814" d="M538.052,14.864c0-1.468.724-2.074,2.016-2.074H546.4c2.523,0,3.324,1.6,3.324,4.147,0,2.622-.743,4.362-3.109,4.362h-2.211v.1l5.613,5.086H547.6l-5.243-4.811a1.292,1.292,0,0,1-.509-.862V20.5c0-.41.294-.685.821-.685h3.346c1.663,0,1.82-1.212,1.82-2.875,0-1.7-.273-2.66-2.112-2.66h-4.87c-.625,0-.978.2-.978.939V26.483h-1.82V14.864Z" transform="translate(-436.218 -12.633)" fill="#f89521"/>
      </g>
    </g>
    <g id="Group_39358" data-name="Group 39358" transform="translate(123.452 21.822)">
      <path id="Path_24815" data-name="Path 24815" d="M587.542,63.027h-.372V62.81h1.007v.217h-.37v1.007h-.265Z" transform="translate(-587.17 -62.81)" fill="#f89521"/>
      <path id="Path_24816" data-name="Path 24816" d="M594.3,63.575c0-.209,0-.443.008-.581H594.3c-.058.25-.18.658-.3,1.04h-.225c-.089-.335-.215-.8-.269-1.044H593.5c.01.143.015.395.015.606v.438h-.242V62.81h.393c.095.319.2.72.24.9h0c.029-.161.165-.591.267-.9h.38v1.224H594.3Z" transform="translate(-592.089 -62.81)" fill="#f89521"/>
    </g>
  </g>
</svg>
