<svg xmlns="http://www.w3.org/2000/svg" xmlns:xlink="http://www.w3.org/1999/xlink" width="39.176" height="36" viewBox="0 0 39.176 36">
  <defs>
    <linearGradient id="linear-gradient" x1="0.157" y1="0.247" x2="0.87" y2="0.724" gradientUnits="objectBoundingBox">
      <stop offset="0" stop-color="#00836a"/>
      <stop offset="1" stop-color="#073e39"/>
    </linearGradient>
  </defs>
  <g id="trezor" transform="translate(-44 -302)">
    <path id="hexagontile3" d="M21.819,0a5,5,0,0,1,4.327,2.495l5.339,9.222a5,5,0,0,1,0,5.01L26.146,25.95a5,5,0,0,1-4.327,2.495h-10.7A5,5,0,0,1,6.79,25.95L1.45,16.728a5,5,0,0,1,0-5.01L6.79,2.495A5,5,0,0,1,11.117,0Z" transform="matrix(0.966, 0.259, -0.259, 0.966, 51.362, 302)" fill="url(#linear-gradient)"/>
    <path id="path7" d="M43.432,19.707a3.479,3.479,0,0,0-3.479,3.479v1.3c-.674.121-1.355.287-1.355.5V31.8a.312.312,0,0,0,.208.274c.769.306,3.787,1.376,4.479,1.62a.34.34,0,0,0,.142.031.33.33,0,0,0,.141-.031c.691-.244,3.72-1.317,4.484-1.619a.319.319,0,0,0,.2-.273V24.987c0-.213-.671-.38-1.345-.5v-1.3A3.479,3.479,0,0,0,43.432,19.707Zm0,1.663a1.677,1.677,0,0,1,1.818,1.816v1.133a23.746,23.746,0,0,0-3.637,0V23.186A1.678,1.678,0,0,1,43.432,21.37Zm0,4.623c1.581,0,2.91.12,2.91.345v4.247c0,.062-.01.072-.069.095s-2.7.978-2.7.978a.887.887,0,0,1-.138.036.818.818,0,0,1-.142-.038l-2.7-.977c-.059-.022-.067-.034-.067-.1V26.338C40.515,26.106,41.846,25.99,43.427,25.992Z" transform="translate(20.161 293.282)" fill="#fffcfa"/>
  </g>
</svg>
