<svg xmlns="http://www.w3.org/2000/svg" width="20.619" height="18.423" viewBox="0 0 20.619 18.423">
  <path id="Wallet" d="M18.774,6.534h-.4A4.048,4.048,0,0,0,14.5,3.06H4.361A2.45,2.45,0,0,0,2,5.576a2.372,2.372,0,0,0,.031.268A.511.511,0,0,0,2,5.978v11.65a3.861,3.861,0,0,0,3.845,3.856H18.774a3.861,3.861,0,0,0,3.845-3.856V10.38A3.852,3.852,0,0,0,18.774,6.534ZM18.2,15.308a1.3,1.3,0,1,1,1.309-1.3A1.3,1.3,0,0,1,18.2,15.308ZM4.361,4.606H14.5a2.454,2.454,0,0,1,2.289,1.928H4.361a.9.9,0,0,1-.814-.959A.9.9,0,0,1,4.361,4.606Z" transform="translate(-2 -3.06)" fill="#fff"/>
</svg>
