<svg width="285" height="220" viewBox="0 0 285 220" fill="none" xmlns="http://www.w3.org/2000/svg">
<path d="M135.297 206.402C192.293 206.402 238.497 160.197 238.497 103.201C238.497 46.2046 192.293 0 135.297 0C78.3003 0 32.0957 46.2046 32.0957 103.201C32.0957 160.197 78.3003 206.402 135.297 206.402Z" fill="#C3B075" fill-opacity="0.1"/>
<path opacity="0.2" d="M266.422 108.055C267.617 108.055 268.785 107.7 269.778 107.036C270.772 106.372 271.546 105.429 272.004 104.325C272.461 103.221 272.581 102.006 272.348 100.834C272.114 99.6619 271.539 98.5853 270.694 97.7403C269.849 96.8954 268.773 96.3199 267.601 96.0868C266.428 95.8537 265.214 95.9733 264.11 96.4306C263.006 96.8879 262.062 97.6623 261.398 98.6559C260.734 99.6495 260.38 100.818 260.38 102.013C260.38 103.615 261.016 105.152 262.15 106.285C263.283 107.418 264.819 108.055 266.422 108.055Z" fill="#272421"/>
<path d="M56.36 206.402H54.4941V210.023H56.36V206.402Z" fill="url(#paint0_linear_861_38546)"/>
<path d="M56.36 216.379H54.4941V220H56.36V216.379Z" fill="url(#paint1_linear_861_38546)"/>
<path d="M62.2275 212.268H58.6064V214.133H62.2275V212.268Z" fill="url(#paint2_linear_861_38546)"/>
<path d="M52.25 212.268H48.6289V214.133H52.25V212.268Z" fill="url(#paint3_linear_861_38546)"/>
<path d="M3.69887 51.5794C5.7417 51.5794 7.39775 49.9233 7.39775 47.8805C7.39775 45.8377 5.7417 44.1816 3.69887 44.1816C1.65604 44.1816 0 45.8377 0 47.8805C0 49.9233 1.65604 51.5794 3.69887 51.5794Z" fill="url(#paint4_linear_861_38546)"/>
<path d="M16.8499 106.118C18.4703 106.118 19.7838 104.804 19.7838 103.184C19.7838 101.564 18.4703 100.25 16.8499 100.25C15.2296 100.25 13.916 101.564 13.916 103.184C13.916 104.804 15.2296 106.118 16.8499 106.118Z" fill="url(#paint5_linear_861_38546)"/>
<path d="M281.436 117.224C283.247 117.224 284.714 115.756 284.714 113.946C284.714 112.136 283.247 110.668 281.436 110.668C279.626 110.668 278.158 112.136 278.158 113.946C278.158 115.756 279.626 117.224 281.436 117.224Z" fill="url(#paint6_linear_861_38546)"/>
<path d="M230.877 23.0241C232.498 23.0241 233.811 21.7105 233.811 20.0902C233.811 18.4698 232.498 17.1562 230.877 17.1562C229.257 17.1562 227.943 18.4698 227.943 20.0902C227.943 21.7105 229.257 23.0241 230.877 23.0241Z" fill="url(#paint7_linear_861_38546)"/>
<path d="M78.1842 44.5117H39.5272C36.7754 44.515 34.1371 45.6096 32.1912 47.5555C30.2453 49.5014 29.1507 52.1396 29.1475 54.8915V138.296C29.1475 138.474 29.19 138.649 29.2713 138.806C29.3526 138.964 29.4704 139.1 29.6149 139.203C29.7593 139.306 29.9263 139.372 30.1019 139.398C30.2774 139.423 30.4565 139.406 30.6241 139.348C31.7477 138.958 32.9114 138.694 34.0936 138.563C36.4421 138.282 38.8235 138.503 41.0803 139.211C43.3371 139.919 45.418 141.097 47.1855 142.669C48.9529 144.241 50.3668 146.17 51.3336 148.328C52.3004 150.487 52.7981 152.826 52.7938 155.191C52.7938 155.658 52.7774 156.072 52.7447 156.465C52.658 157.642 52.4441 158.807 52.1067 159.938C52.0567 160.104 52.0463 160.28 52.0763 160.451C52.1063 160.622 52.1758 160.783 52.2794 160.922C52.383 161.062 52.5177 161.175 52.6728 161.253C52.8279 161.331 52.9991 161.371 53.1727 161.371H78.1842C80.9383 161.368 83.5788 160.273 85.5263 158.325C87.4737 156.378 88.5692 153.738 88.5721 150.983V54.8925C88.5678 52.1395 87.4717 49.5005 85.5243 47.5544C83.577 45.6084 80.9372 44.5142 78.1842 44.5117ZM86.3459 150.984C86.3434 153.148 85.4827 155.223 83.9527 156.753C82.4226 158.283 80.348 159.144 78.1842 159.146H54.6044C54.78 158.32 54.9001 157.484 54.9638 156.642C55.0017 156.196 55.0201 155.721 55.0201 155.191C55.0158 150.16 53.0156 145.337 49.4586 141.779C45.9016 138.221 41.0784 136.22 36.0475 136.215C35.3099 136.216 34.573 136.26 33.8407 136.348C33.0085 136.44 32.1838 136.59 31.3727 136.797V54.8915C31.3754 52.7296 32.2354 50.6571 33.7641 49.1284C35.2928 47.5997 37.3654 46.7397 39.5272 46.737H78.1831C80.346 46.7386 82.4199 47.598 83.95 49.1267C85.4801 50.6555 86.3413 52.7286 86.3448 54.8915L86.3459 150.984Z" fill="#272421"/>
<path d="M78.1843 48.2246H39.5284C37.7589 48.2257 36.0621 48.9286 34.8102 50.1792C33.5583 51.4297 32.8536 53.1258 32.8506 54.8953V138.714L34.0948 138.565C36.4433 138.285 38.8246 138.506 41.0814 139.214C43.3382 139.921 45.4191 141.1 47.1866 142.672C48.9541 144.243 50.368 146.172 51.3348 148.331C52.3015 150.49 52.7993 152.829 52.795 155.194C52.795 155.661 52.7786 156.075 52.7459 156.459L52.6434 157.665H78.1833C79.9538 157.663 81.6512 156.959 82.9031 155.707C84.1551 154.455 84.8592 152.758 84.8611 150.987V54.8912C84.8571 53.1226 84.152 51.4277 82.9004 50.1781C81.6489 48.9284 79.9529 48.226 78.1843 48.2246ZM82.6359 150.987C82.6345 152.167 82.1651 153.299 81.3305 154.133C80.496 154.968 79.3645 155.437 78.1843 155.439H55.0182C55.0182 155.359 55.0182 155.277 55.0182 155.194C55.0139 150.163 53.014 145.34 49.4575 141.782C45.9009 138.225 41.0782 136.223 36.0477 136.217C35.7271 136.217 35.4025 136.225 35.0758 136.243V54.8912C35.0783 53.7118 35.5484 52.5815 36.3832 51.7483C37.2179 50.9151 38.349 50.4471 39.5284 50.4468H78.1843C79.3635 50.4474 80.4944 50.9155 81.3289 51.7487C82.1634 52.5819 82.6334 53.712 82.6359 54.8912V150.987Z" fill="url(#paint8_linear_861_38546)"/>
<path d="M168.15 63.5578C164.124 63.5625 160.232 62.1153 157.188 59.4818C154.144 56.8483 152.151 53.2051 151.577 49.221C151.577 49.2057 151.577 49.1893 151.57 49.1729C151.46 48.3927 151.404 47.6056 151.404 46.8176C151.404 46.4448 151.418 46.0803 151.445 45.7147C151.457 45.5619 151.437 45.4084 151.386 45.2638C151.335 45.1192 151.256 44.9865 151.151 44.8742C151.047 44.7618 150.921 44.6722 150.781 44.6108C150.64 44.5494 150.489 44.5177 150.335 44.5176H120.219C117.466 44.5197 114.826 45.6138 112.879 47.5596C110.931 49.5055 109.835 52.1444 109.831 54.8973V150.989C109.834 153.743 110.929 156.384 112.877 158.331C114.824 160.279 117.465 161.374 120.219 161.377H158.875C161.629 161.374 164.27 160.279 166.217 158.331C168.165 156.384 169.26 153.743 169.263 150.989V64.6709C169.263 64.3757 169.146 64.0925 168.937 63.8838C168.728 63.675 168.445 63.5578 168.15 63.5578ZM167.037 150.984C167.034 153.148 166.173 155.222 164.643 156.753C163.113 158.283 161.039 159.143 158.875 159.146H120.219C118.055 159.143 115.981 158.283 114.451 156.753C112.92 155.222 112.06 153.148 112.057 150.984V54.8922C112.061 52.7294 112.922 50.6562 114.452 49.1275C115.982 47.5988 118.056 46.7393 120.219 46.7377H149.178V46.8114C149.178 47.6922 149.239 48.572 149.36 49.4443C149.36 49.4596 149.36 49.476 149.366 49.4914C149.979 53.826 152.074 57.8146 155.295 60.779C158.516 63.7435 162.665 65.5008 167.036 65.7523L167.037 150.984Z" fill="#272421"/>
<path d="M164.664 63.1935C161.309 62.4773 158.254 60.7494 155.912 58.2429C153.57 55.7364 152.053 52.5719 151.565 49.1762L151.43 48.2188H120.22C118.45 48.2198 116.754 48.9228 115.502 50.1733C114.25 51.4239 113.545 53.1199 113.542 54.8894V150.981C113.544 152.752 114.248 154.449 115.5 155.701C116.752 156.953 118.449 157.657 120.22 157.659H158.876C160.646 157.657 162.344 156.953 163.596 155.701C164.847 154.449 165.552 152.752 165.554 150.981V63.3788L164.664 63.1935ZM163.321 150.982C163.32 152.163 162.85 153.294 162.016 154.129C161.181 154.963 160.05 155.432 158.87 155.434H120.22C119.039 155.433 117.908 154.963 117.073 154.129C116.238 153.294 115.769 152.163 115.767 150.982V54.8894C115.77 53.71 116.24 52.5798 117.075 51.7466C117.909 50.9134 119.04 50.4453 120.22 50.445H149.528C150.216 53.9459 151.875 57.1825 154.315 59.7851C156.756 62.3877 159.879 64.2512 163.328 65.1627V150.978L163.321 150.982Z" fill="#272421"/>
<path d="M248.953 63.4833C247.77 63.3628 246.603 63.118 245.471 62.7531L245.405 62.7337C242.441 61.7576 239.808 59.9763 237.799 57.589C235.791 55.2018 234.486 52.3027 234.03 49.2162C234.03 49.1998 234.03 49.1824 234.024 49.167C233.913 48.3869 233.857 47.5998 233.857 46.8117C233.857 46.439 233.871 46.0744 233.898 45.7088C233.91 45.556 233.89 45.4025 233.839 45.2579C233.788 45.1133 233.708 44.9807 233.604 44.8683C233.5 44.756 233.374 44.6663 233.233 44.6049C233.093 44.5436 232.941 44.5119 232.788 44.5117H200.906C198.154 44.5142 195.514 45.6083 193.567 47.5541C191.62 49.5 190.524 52.1387 190.52 54.8915V150.983C190.523 153.737 191.618 156.378 193.565 158.325C195.513 160.273 198.153 161.368 200.908 161.371H239.563C242.318 161.368 244.958 160.273 246.906 158.325C248.853 156.378 249.948 153.737 249.951 150.983V64.5893C249.951 64.3141 249.849 64.0486 249.665 63.8443C249.48 63.6401 249.227 63.5114 248.953 63.4833ZM247.724 150.985C247.722 153.149 246.861 155.224 245.331 156.754C243.801 158.284 241.726 159.145 239.562 159.147H200.906C198.743 159.145 196.668 158.284 195.138 156.754C193.608 155.224 192.747 153.149 192.745 150.985V54.8925C192.748 52.7296 193.61 50.6565 195.14 49.1278C196.67 47.5991 198.744 46.7396 200.906 46.738H231.628V46.8117C231.627 47.6926 231.689 48.5724 231.812 49.4446C231.812 49.4599 231.812 49.4753 231.817 49.4896C232.328 53.0065 233.812 56.3104 236.102 59.0281C238.392 61.7458 241.397 63.7689 244.776 64.8688C244.797 64.875 244.819 64.8821 244.84 64.8862C245.781 65.1872 246.745 65.4142 247.721 65.5652V150.983L247.724 150.985Z" fill="#272421"/>
<path d="M246.234 62.9968L245.462 62.748C242.479 61.7774 239.828 59.9922 237.807 57.5939C235.786 55.1956 234.476 52.2799 234.025 49.1762L233.89 48.2188H200.907C199.138 48.2198 197.441 48.9227 196.189 50.1733C194.937 51.4239 194.232 53.1199 194.229 54.8894V150.981C194.231 152.752 194.936 154.449 196.187 155.701C197.439 156.953 199.137 157.657 200.907 157.659H239.563C241.334 157.657 243.031 156.953 244.283 155.701C245.535 154.449 246.239 152.752 246.241 150.981L246.234 62.9968ZM239.563 155.434H200.907C199.727 155.433 198.596 154.963 197.761 154.129C196.927 153.294 196.457 152.162 196.456 150.982V54.8894C196.458 53.7102 196.928 52.5801 197.763 51.7469C198.597 50.9138 199.728 50.4456 200.907 50.445H231.982C232.614 53.6336 234.051 56.6077 236.155 59.085C238.26 61.5623 240.963 63.4605 244.008 64.5995L244.015 150.982C244.013 152.162 243.544 153.294 242.709 154.129C241.875 154.963 240.743 155.433 239.563 155.434Z" fill="url(#paint9_linear_861_38546)"/>
<path d="M54.9754 77.7988H42.2577C41.9624 77.7988 41.6793 77.9161 41.4706 78.1249C41.2618 78.3336 41.1445 78.6168 41.1445 78.912V85.8427C41.1448 86.1378 41.2622 86.4207 41.4709 86.6292C41.6796 86.8377 41.9626 86.9549 42.2577 86.9549H54.9754C55.2706 86.9549 55.5537 86.8376 55.7625 86.6288C55.9712 86.4201 56.0885 86.137 56.0885 85.8417V78.9109C56.0882 78.6159 55.9708 78.333 55.7621 78.1245C55.5534 77.916 55.2704 77.7988 54.9754 77.7988ZM53.8622 84.7286H43.3708V80.0241H53.8632L53.8622 84.7286Z" fill="url(#paint10_linear_861_38546)"/>
<path d="M54.9754 90.3262H42.2577C41.9624 90.3262 41.6793 90.4434 41.4706 90.6522C41.2618 90.861 41.1445 91.1441 41.1445 91.4393V98.3691C41.1448 98.6641 41.2622 98.947 41.4709 99.1555C41.6796 99.3641 41.9626 99.4812 42.2577 99.4812H54.9754C55.2706 99.4812 55.5537 99.3639 55.7625 99.1552C55.9712 98.9464 56.0885 98.6633 56.0885 98.368V91.4383C56.0882 91.1432 55.9708 90.8604 55.7621 90.6518C55.5534 90.4433 55.2704 90.3262 54.9754 90.3262ZM53.8622 97.2559H43.3708V92.5514H53.8632L53.8622 97.2559Z" fill="#272421"/>
<path d="M237.478 77.7988H204.28C203.985 77.7988 203.702 77.9161 203.493 78.1249C203.284 78.3336 203.167 78.6168 203.167 78.912V85.8427C203.167 86.138 203.284 86.4211 203.493 86.6299C203.702 86.8386 203.985 86.9559 204.28 86.9559H237.478C237.773 86.9559 238.056 86.8386 238.265 86.6299C238.474 86.4211 238.591 86.138 238.591 85.8427V78.912C238.591 78.6168 238.474 78.3336 238.265 78.1249C238.056 77.9161 237.773 77.7988 237.478 77.7988ZM236.365 84.7286H205.392V80.0241H236.366L236.365 84.7286Z" fill="url(#paint11_linear_861_38546)"/>
<path d="M237.478 90.3262H204.28C203.985 90.3262 203.702 90.4434 203.493 90.6522C203.284 90.861 203.167 91.1441 203.167 91.4393V98.3691C203.167 98.6643 203.284 98.9474 203.493 99.1562C203.702 99.3649 203.985 99.4822 204.28 99.4822H237.478C237.773 99.4822 238.056 99.3649 238.265 99.1562C238.474 98.9474 238.591 98.6643 238.591 98.3691V91.4393C238.591 91.1441 238.474 90.861 238.265 90.6522C238.056 90.4434 237.773 90.3262 237.478 90.3262ZM236.365 97.2559H205.392V92.5514H236.366L236.365 97.2559Z" fill="#272421"/>
<path d="M54.9754 102.627H42.2577C41.9624 102.627 41.6793 102.744 41.4706 102.953C41.2618 103.162 41.1445 103.445 41.1445 103.74V110.67C41.1448 110.965 41.2622 111.248 41.4709 111.456C41.6796 111.665 41.9626 111.782 42.2577 111.782H54.9754C55.2706 111.782 55.5537 111.665 55.7625 111.456C55.9712 111.247 56.0885 110.964 56.0885 110.669V103.739C56.0882 103.444 55.9708 103.161 55.7621 102.953C55.5534 102.744 55.2704 102.627 54.9754 102.627ZM53.8622 109.557H43.3708V104.852H53.8632L53.8622 109.557Z" fill="url(#paint12_linear_861_38546)"/>
<path d="M54.9754 115.15H42.2577C41.9624 115.15 41.6793 115.268 41.4706 115.476C41.2618 115.685 41.1445 115.968 41.1445 116.264V123.194C41.1448 123.489 41.2622 123.772 41.4709 123.981C41.6796 124.189 41.9626 124.306 42.2577 124.306H54.9754C55.2706 124.306 55.5537 124.189 55.7625 123.98C55.9712 123.772 56.0885 123.489 56.0885 123.193V116.263C56.0882 115.967 55.9708 115.685 55.7621 115.476C55.5534 115.268 55.2704 115.15 54.9754 115.15ZM53.8622 122.08H43.3708V117.376H53.8632L53.8622 122.08Z" fill="#272421"/>
<path d="M237.477 102.627H204.279C203.984 102.627 203.701 102.744 203.492 102.953C203.283 103.162 203.166 103.445 203.166 103.74V110.67C203.166 110.965 203.283 111.248 203.492 111.457C203.701 111.666 203.984 111.783 204.279 111.783H237.477C237.772 111.783 238.055 111.666 238.264 111.457C238.473 111.248 238.59 110.965 238.59 110.67V103.74C238.59 103.445 238.473 103.162 238.264 102.953C238.055 102.744 237.772 102.627 237.477 102.627ZM236.364 109.557H205.391V104.852H236.365L236.364 109.557Z" fill="url(#paint13_linear_861_38546)"/>
<path d="M237.478 115.15H204.28C203.985 115.15 203.702 115.268 203.493 115.476C203.284 115.685 203.167 115.968 203.167 116.264V123.194C203.167 123.49 203.284 123.773 203.493 123.981C203.702 124.19 203.985 124.307 204.28 124.307H237.478C237.773 124.307 238.056 124.19 238.265 123.981C238.474 123.773 238.591 123.49 238.591 123.194V116.264C238.591 115.968 238.474 115.685 238.265 115.476C238.056 115.268 237.773 115.15 237.478 115.15ZM236.365 122.08H205.392V117.376H236.366L236.365 122.08Z" fill="#272421"/>
<path d="M73.2308 35.7548L74.5621 37.5346C75.1407 37.1004 75.7346 36.6785 76.3286 36.2791L75.0864 34.4358C74.4668 34.8526 73.8411 35.2971 73.2308 35.7548ZM81.0689 31.0759L81.9977 33.0984C82.6592 32.7912 83.329 32.5086 83.9905 32.2454L83.1713 30.1758C82.4759 30.4533 81.7663 30.7554 81.0689 31.0759ZM77.0229 33.207L78.1647 35.1179C78.7791 34.7492 79.4171 34.3928 80.0541 34.0569L79.0167 32.0877C78.3449 32.442 77.6752 32.8189 77.0229 33.207ZM89.7211 28.1707L90.1993 30.3437C90.8957 30.1911 91.6105 30.0529 92.3263 29.9341L91.9638 27.7375C91.2131 27.8645 90.4635 28.0089 89.7242 28.1707H89.7211ZM85.3177 29.3903L86.0253 31.5009C86.7053 31.2726 87.4026 31.0595 88.1 30.866L87.504 28.7216C86.7769 28.9244 86.0366 29.1497 85.3197 29.3903H85.3177ZM61.3467 49.4618L63.2924 50.5329C63.6406 49.899 64.0092 49.2702 64.385 48.664L62.4936 47.4904C62.0973 48.1254 61.7153 48.7889 61.3477 49.4587L61.3467 49.4618ZM59.3672 53.5754L61.4225 54.4315C61.6969 53.771 61.9949 53.1063 62.3083 52.4581L60.3032 51.4924C59.9734 52.1734 59.659 52.8749 59.3682 53.5723L59.3672 53.5754ZM94.229 27.4324L94.4737 29.6453C95.1793 29.5675 95.9074 29.5061 96.6314 29.4641L96.5044 27.2419C95.7405 27.2818 94.9694 27.3463 94.23 27.4283L94.229 27.4324ZM66.5581 41.979L68.2396 43.4383C68.7147 42.8904 69.2073 42.3528 69.7019 41.8397L68.1003 40.2955C67.5791 40.8331 67.0599 41.3984 66.5591 41.9749L66.5581 41.979ZM63.7532 45.5816L65.5791 46.8555C65.9887 46.2626 66.4249 45.6768 66.8632 45.1146L65.107 43.7486C64.6452 44.3364 64.1894 44.9539 63.7542 45.5785L63.7532 45.5816ZM69.7275 38.6918L71.2441 40.32C71.7756 39.8254 72.3214 39.3421 72.8683 38.8864L71.4346 37.1803C70.8642 37.6585 70.2897 38.1706 69.7285 38.6887L69.7275 38.6918ZM131.132 41.6615L129.465 43.1372C129.939 43.6728 130.408 44.2319 130.856 44.7972L132.597 43.4137C132.129 42.8126 131.63 42.2227 131.134 41.6523L131.132 41.6615ZM133.973 45.2396L132.159 46.5299C132.576 47.1156 132.978 47.7198 133.367 48.3281L135.247 47.1372C134.843 46.491 134.415 45.8509 133.975 45.2365L133.973 45.2396ZM127.932 38.4051L126.43 40.0435C126.959 40.5259 127.483 41.0328 127.99 41.5469L129.577 39.9862C129.042 39.4445 128.489 38.9099 127.93 38.401L127.932 38.4051ZM136.423 49.0992L134.477 50.1888C134.83 50.8166 135.17 51.4607 135.488 52.1059L137.484 51.1207C137.151 50.4366 136.794 49.7567 136.422 49.0951L136.423 49.0992ZM138.445 53.1954L136.397 54.073C136.679 54.7284 136.947 55.4043 137.196 56.0863L139.287 55.3214C139.025 54.6025 138.741 53.8877 138.444 53.1944L138.445 53.1954ZM123.085 37.297C123.66 37.721 124.236 38.1685 124.793 38.6283L126.206 36.9079C125.618 36.4246 125.011 35.9525 124.404 35.506L123.085 37.297ZM103.126 29.6023C103.843 29.675 104.568 29.7682 105.276 29.8778L105.616 27.6781C104.872 27.5634 104.11 27.4651 103.351 27.3883L103.126 29.6023ZM107.403 30.2669C108.106 30.4154 108.815 30.5844 109.51 30.7697L110.084 28.6192C109.351 28.4236 108.603 28.2455 107.862 28.0888L107.403 30.2669ZM119.468 34.9192C120.082 35.2807 120.705 35.6637 121.311 36.06L122.534 34.2013C121.899 33.7835 121.247 33.3821 120.593 32.9971L119.468 34.9192ZM98.7819 27.1692L98.8065 29.3955H99.0277C99.6646 29.3955 100.316 29.4108 100.964 29.4426L101.067 27.2194C100.367 27.1856 99.6646 27.1507 98.9806 27.1692H98.7819ZM115.62 32.9387C116.271 33.2295 116.927 33.5459 117.566 33.8767L118.585 31.8972C117.907 31.549 117.214 31.2152 116.527 30.908L115.62 32.9387ZM111.585 31.3831C112.263 31.6033 112.949 31.847 113.622 32.1071L114.424 30.0304C113.707 29.7559 112.991 29.4989 112.274 29.2664L111.585 31.3831Z" fill="#272421"/>
<path d="M58.2113 54.3262C57.1393 54.3262 56.0913 54.6441 55.2 55.2397C54.3086 55.8352 53.6139 56.6818 53.2036 57.6722C52.7934 58.6626 52.686 59.7525 52.8952 60.8039C53.1043 61.8554 53.6206 62.8212 54.3786 63.5792C55.1366 64.3373 56.1024 64.8535 57.1539 65.0626C58.2053 65.2718 59.2952 65.1644 60.2856 64.7542C61.276 64.3439 62.1226 63.6492 62.7181 62.7578C63.3137 61.8665 63.6316 60.8185 63.6316 59.7465C63.6297 58.3095 63.0581 56.9319 62.042 55.9158C61.0259 54.8998 59.6483 54.3281 58.2113 54.3262ZM58.2113 62.9415C57.5794 62.9415 56.9617 62.7541 56.4363 62.4031C55.9108 62.052 55.5013 61.553 55.2595 60.9692C55.0177 60.3853 54.9544 59.7429 55.0777 59.1232C55.201 58.5034 55.5053 57.9341 55.9521 57.4872C56.3989 57.0404 56.9682 56.7361 57.588 56.6128C58.2078 56.4896 58.8502 56.5528 59.434 56.7946C60.0178 57.0365 60.5168 57.446 60.8679 57.9714C61.219 58.4968 61.4064 59.1146 61.4064 59.7465C61.4055 60.5936 61.0687 61.4058 60.4697 62.0048C59.8706 62.6038 59.0585 62.9407 58.2113 62.9415Z" fill="#272421"/>
<path d="M139.599 54.3262C138.527 54.3262 137.479 54.6441 136.588 55.2397C135.696 55.8352 135.002 56.6818 134.591 57.6722C134.181 58.6626 134.074 59.7525 134.283 60.8039C134.492 61.8554 135.008 62.8212 135.766 63.5792C136.524 64.3373 137.49 64.8535 138.542 65.0626C139.593 65.2718 140.683 65.1644 141.673 64.7542C142.664 64.3439 143.51 63.6492 144.106 62.7578C144.701 61.8665 145.019 60.8185 145.019 59.7465C145.017 58.3095 144.446 56.9319 143.43 55.9158C142.414 54.8998 141.036 54.3281 139.599 54.3262ZM139.599 62.9415C138.967 62.9415 138.349 62.7541 137.824 62.4031C137.299 62.052 136.889 61.553 136.647 60.9692C136.405 60.3853 136.342 59.7429 136.465 59.1232C136.589 58.5034 136.893 57.9341 137.34 57.4872C137.787 57.0404 138.356 56.7361 138.976 56.6128C139.595 56.4896 140.238 56.5528 140.822 56.7946C141.406 57.0365 141.905 57.446 142.256 57.9714C142.607 58.4968 142.794 59.1146 142.794 59.7465C142.793 60.5936 142.456 61.4058 141.857 62.0048C141.258 62.6038 140.446 62.9407 139.599 62.9415Z" fill="#272421"/>
<path d="M178.343 181.68C179.1 181.721 179.868 181.742 180.626 181.743V179.517C179.909 179.517 179.178 179.495 178.459 179.456L178.343 181.68ZM160.854 176.905C161.529 177.256 162.221 177.593 162.902 177.903L163.823 175.875C163.174 175.581 162.52 175.261 161.878 174.929L160.854 176.905ZM173.803 181.191C174.546 181.311 175.308 181.413 176.066 181.498L176.303 179.285C175.587 179.208 174.863 179.111 174.153 178.998L173.803 181.191ZM156.921 174.588C157.555 175.008 158.206 175.416 158.858 175.799L159.984 173.88C159.37 173.516 158.755 173.131 158.149 172.733L156.921 174.588ZM169.338 180.226C170.065 180.424 170.811 180.607 171.558 180.767L172.027 178.592C171.32 178.44 170.613 178.266 169.925 178.08L169.338 180.226ZM165.008 178.792C165.71 179.067 166.433 179.327 167.159 179.566L167.858 177.453C167.174 177.227 166.488 176.979 165.823 176.719L165.008 178.792ZM143.996 156.655L141.999 157.638C142.334 158.318 142.691 159 143.062 159.662L145.007 158.573C144.652 157.945 144.313 157.299 143.996 156.655ZM142.285 152.668L140.194 153.433C140.458 154.15 140.741 154.867 141.039 155.56L143.087 154.683C142.808 154.027 142.538 153.349 142.285 152.668ZM153.248 171.866C153.829 172.348 154.434 172.822 155.046 173.275L156.372 171.487C155.792 171.057 155.219 170.609 154.667 170.156L153.248 171.866ZM146.108 160.434L144.227 161.624C144.637 162.268 145.062 162.906 145.499 163.522L147.315 162.234C146.905 161.651 146.499 161.045 146.113 160.435L146.108 160.434ZM149.887 168.777C150.424 169.326 150.977 169.861 151.525 170.367L153.03 168.729C152.507 168.249 151.983 167.742 151.474 167.222L149.887 168.777ZM148.614 163.964L146.873 165.346C147.339 165.934 147.831 166.524 148.336 167.097L150.008 165.628C149.53 165.088 149.062 164.527 148.619 163.969L148.614 163.964ZM212.72 164.096L214.461 165.483C214.931 164.893 215.393 164.281 215.837 163.662L214.027 162.366C213.615 162.96 213.175 163.542 212.729 164.101L212.72 164.096ZM209.844 167.334L211.429 168.898C211.959 168.36 212.485 167.799 212.989 167.23L211.326 165.753C210.855 166.297 210.356 166.829 209.852 167.339L209.844 167.334ZM206.644 170.254L208.055 171.975C208.646 171.49 209.228 170.988 209.783 170.481L208.282 168.836C207.764 169.321 207.21 169.799 206.652 170.26L206.644 170.254ZM215.239 160.573L217.115 161.77C217.525 161.127 217.921 160.469 218.292 159.814L216.354 158.718C216.017 159.344 215.637 159.968 215.248 160.578L215.239 160.573ZM219.156 152.66L219.092 152.831L221.176 153.613L221.243 153.432L219.156 152.66ZM217.371 156.806L219.364 157.798C219.703 157.117 220.026 156.42 220.327 155.728L218.279 154.844C218.008 155.505 217.702 156.165 217.379 156.811L217.371 156.806ZM182.796 179.468L182.905 181.691C183.662 181.653 184.428 181.596 185.183 181.518L184.956 179.304C184.241 179.377 183.514 179.432 182.796 179.468ZM187.104 179.024L187.448 181.224C188.202 181.106 188.958 180.967 189.695 180.814L189.234 178.636C188.535 178.782 187.819 178.913 187.104 179.024ZM191.342 178.128L191.917 180.279C192.646 180.084 193.384 179.869 194.11 179.629L193.421 177.512C192.732 177.736 192.033 177.943 191.338 178.128H191.342ZM203.161 172.826L204.383 174.686C205.015 174.277 205.646 173.832 206.259 173.383L204.942 171.589C204.359 172.017 203.759 172.433 203.161 172.826ZM199.418 175.01L200.435 176.99C201.104 176.645 201.778 176.273 202.438 175.892L201.318 173.969C200.69 174.334 200.051 174.685 199.418 175.01ZM195.463 176.785L196.265 178.862C196.969 178.59 197.678 178.294 198.375 177.982L197.464 175.95C196.803 176.246 196.13 176.529 195.463 176.785Z" fill="#272421"/>
<path d="M221.733 143.549C220.656 143.549 219.603 143.868 218.708 144.466C217.813 145.065 217.115 145.915 216.703 146.91C216.29 147.905 216.183 149 216.393 150.056C216.603 151.112 217.121 152.082 217.883 152.844C218.644 153.605 219.615 154.124 220.671 154.334C221.727 154.544 222.822 154.436 223.817 154.024C224.812 153.612 225.662 152.914 226.26 152.019C226.858 151.123 227.178 150.071 227.178 148.994C227.176 147.55 226.602 146.166 225.581 145.145C224.561 144.125 223.177 143.55 221.733 143.549ZM221.733 152.213C221.096 152.213 220.474 152.025 219.945 151.671C219.415 151.317 219.003 150.814 218.759 150.226C218.516 149.638 218.452 148.991 218.576 148.366C218.701 147.742 219.007 147.169 219.457 146.718C219.908 146.268 220.481 145.962 221.106 145.838C221.73 145.714 222.377 145.778 222.965 146.021C223.553 146.265 224.056 146.678 224.41 147.207C224.763 147.737 224.952 148.359 224.952 148.996C224.95 149.849 224.611 150.667 224.007 151.27C223.404 151.873 222.586 152.212 221.733 152.213Z" fill="#272421"/>
<path d="M139.884 143.549C138.807 143.549 137.755 143.869 136.86 144.467C135.964 145.065 135.267 145.916 134.855 146.911C134.443 147.906 134.335 149 134.545 150.057C134.755 151.113 135.274 152.083 136.036 152.844C136.797 153.606 137.767 154.124 138.823 154.334C139.88 154.544 140.974 154.436 141.969 154.024C142.964 153.612 143.814 152.914 144.413 152.019C145.011 151.123 145.33 150.071 145.33 148.994C145.329 147.55 144.754 146.166 143.733 145.145C142.712 144.124 141.328 143.55 139.884 143.549ZM139.884 152.213C139.248 152.213 138.626 152.024 138.097 151.67C137.568 151.316 137.155 150.813 136.912 150.225C136.669 149.637 136.605 148.99 136.73 148.366C136.854 147.741 137.161 147.168 137.611 146.718C138.061 146.268 138.635 145.962 139.259 145.838C139.883 145.714 140.531 145.778 141.119 146.021C141.707 146.265 142.209 146.678 142.563 147.207C142.916 147.736 143.105 148.358 143.105 148.995C143.104 149.848 142.764 150.667 142.16 151.27C141.556 151.874 140.738 152.213 139.884 152.213Z" fill="#272421"/>
<path d="M103.878 27.6382L95.2242 20.5527L93.8141 22.2762L101.432 28.5117L93.8018 34.9448L95.2354 36.6457L103.89 29.3504C104.015 29.245 104.115 29.1134 104.183 28.965C104.252 28.8165 104.286 28.6548 104.285 28.4914C104.284 28.3279 104.247 28.1668 104.176 28.0193C104.106 27.8718 104.005 27.7417 103.878 27.6382Z" fill="#272421"/>
<path d="M186.017 179.89L177.362 172.594L175.929 174.295L183.558 180.729L175.941 186.963L177.351 188.687L186.005 181.602C186.132 181.499 186.234 181.369 186.304 181.221C186.375 181.074 186.412 180.913 186.413 180.749C186.414 180.586 186.38 180.424 186.311 180.276C186.243 180.127 186.143 179.995 186.018 179.89H186.017Z" fill="#272421"/>
<path d="M250.299 57.4129C256.154 57.4129 260.9 52.6667 260.9 46.8119C260.9 40.9572 256.154 36.2109 250.299 36.2109C244.444 36.2109 239.698 40.9572 239.698 46.8119C239.698 52.6667 244.444 57.4129 250.299 57.4129Z" fill="url(#paint14_linear_861_38546)"/>
<path d="M250.604 27.8359C246.852 27.8359 243.183 28.9487 240.063 31.0336C236.943 33.1184 234.511 36.0817 233.075 39.5487C231.639 43.0156 231.263 46.8306 231.995 50.5111C232.728 54.1917 234.535 57.5724 237.188 60.2259C239.842 62.8794 243.222 64.6865 246.903 65.4186C250.583 66.1507 254.398 65.775 257.865 64.3389C261.332 62.9028 264.296 60.4709 266.38 57.3507C268.465 54.2305 269.578 50.5622 269.578 46.8096C269.572 41.7792 267.572 36.9565 264.015 33.3995C260.458 29.8425 255.635 27.8416 250.604 27.8359ZM250.604 63.5579C247.292 63.5579 244.054 62.5757 241.3 60.7355C238.546 58.8953 236.4 56.2797 235.132 53.2195C233.864 50.1593 233.533 46.792 234.179 43.5433C234.825 40.2947 236.42 37.3106 238.762 34.9684C241.104 32.6263 244.089 31.0312 247.337 30.385C250.586 29.7388 253.953 30.0705 257.013 31.3381C260.074 32.6056 262.689 34.7522 264.529 37.5063C266.37 40.2603 267.352 43.4983 267.352 46.8106C267.347 51.2507 265.581 55.5074 262.441 58.647C259.301 61.7867 255.045 63.5528 250.604 63.5579Z" fill="#272421"/>
<path d="M256.459 41.5762L249.309 49.1255L246.527 46.0625L244.879 47.5597L248.463 51.5115C248.566 51.6248 248.691 51.7157 248.831 51.7784C248.971 51.8411 249.122 51.8744 249.275 51.8761H249.286C249.438 51.8763 249.588 51.8455 249.726 51.7856C249.865 51.7257 249.991 51.638 250.094 51.5279L258.07 43.1071L256.459 41.5762Z" fill="#272421"/>
<path d="M167.842 57.4129C173.697 57.4129 178.443 52.6667 178.443 46.8119C178.443 40.9572 173.697 36.2109 167.842 36.2109C161.987 36.2109 157.241 40.9572 157.241 46.8119C157.241 52.6667 161.987 57.4129 167.842 57.4129Z" fill="url(#paint15_linear_861_38546)"/>
<path d="M168.146 27.8359C164.394 27.8359 160.726 28.9487 157.605 31.0336C154.485 33.1184 152.053 36.0817 150.617 39.5487C149.181 43.0156 148.805 46.8306 149.537 50.5111C150.27 54.1917 152.077 57.5724 154.73 60.2259C157.384 62.8794 160.764 64.6865 164.445 65.4186C168.125 66.1507 171.94 65.775 175.407 64.3389C178.874 62.9028 181.838 60.4709 183.922 57.3507C186.007 54.2305 187.12 50.5622 187.12 46.8096C187.114 41.7792 185.114 36.9565 181.557 33.3995C178 29.8425 173.177 27.8416 168.146 27.8359ZM168.146 63.5579C164.834 63.5583 161.596 62.5765 158.842 60.7365C156.087 58.8966 153.94 56.2812 152.673 53.2212C151.405 50.1611 151.073 46.7937 151.719 43.545C152.364 40.2962 153.959 37.3119 156.301 34.9695C158.643 32.6271 161.627 31.0318 164.876 30.3853C168.124 29.7388 171.492 30.0702 174.552 31.3376C177.612 32.6049 180.228 34.7513 182.069 37.5053C183.909 40.2593 184.892 43.4972 184.892 46.8096C184.887 51.2495 183.121 55.5062 179.982 58.646C176.843 61.7857 172.586 63.5522 168.146 63.5579Z" fill="#272421"/>
<path d="M156.382 42.915L154.269 42.2166C154.017 42.9796 153.828 43.7623 153.705 44.5566L155.905 44.8955C156.009 44.2234 156.169 43.561 156.382 42.915ZM158.279 39.3165L156.505 37.9699C156.02 38.6105 155.587 39.2896 155.213 40.0006L157.182 41.0369C157.5 40.4356 157.866 39.8615 158.279 39.3206V39.3165ZM155.76 46.9324L153.534 46.9539C153.542 47.7566 153.615 48.5573 153.753 49.3481L155.946 48.9641C155.829 48.2944 155.767 47.6163 155.76 46.9365V46.9324ZM156.464 50.9354L154.366 51.6778C154.633 52.4349 154.963 53.1686 155.352 53.8713L157.298 52.7941C156.969 52.2002 156.69 51.5802 156.464 50.9405V50.9354ZM164.932 34.8394L164.355 32.6888C163.579 32.8974 162.822 33.1693 162.09 33.5019L163.012 35.5275C163.633 35.2474 164.276 35.019 164.935 34.8445L164.932 34.8394ZM178.932 40.7082L180.868 39.6114C180.472 38.9128 180.019 38.248 179.514 37.6237L177.785 39.0236C178.212 39.5547 178.596 40.1198 178.932 40.7133V40.7082ZM180.324 44.5259L182.513 44.1162C182.365 43.3262 182.152 42.5497 181.877 41.7947L179.786 42.5587C180.02 43.1996 180.2 43.859 180.324 44.53V44.5259ZM161.233 36.526L159.99 34.6827C159.324 35.1315 158.695 35.6343 158.112 36.186L159.641 37.803C160.136 37.3356 160.669 36.9098 161.234 36.5301L161.233 36.526ZM158.43 54.4909L156.689 55.8734C157.187 56.5025 157.735 57.0899 158.328 57.6296L159.823 55.9819C159.32 55.5245 158.854 55.0272 158.431 54.495L158.43 54.4909ZM182.755 46.5146L180.529 46.5494V46.8054C180.529 47.4867 180.474 48.1669 180.363 48.8392L182.56 49.2017C182.69 48.4068 182.755 47.6026 182.754 46.7972L182.755 46.5146ZM176.56 55.8959L178.07 57.5344C178.66 56.989 179.204 56.3957 179.697 55.7607L177.937 54.3967C177.52 54.9347 177.059 55.4379 176.56 55.901V55.8959ZM160.237 59.0961C160.912 59.5318 161.622 59.9106 162.36 60.2287L163.241 58.1806C162.616 57.9106 162.014 57.5896 161.442 57.221L160.237 59.0961ZM173.166 58.1334L174.067 60.1693C174.801 59.8432 175.507 59.4572 176.178 59.0152L174.949 57.1575C174.383 57.5335 173.787 57.8616 173.166 58.1386V58.1334ZM179.053 52.6855L181.012 53.7403C181.393 53.033 181.715 52.2956 181.975 51.5355L179.87 50.8187C179.649 51.4639 179.376 52.09 179.053 52.6906V52.6855ZM175.932 34.4369L174.744 36.3191C175.321 36.6836 175.866 37.0946 176.376 37.548L177.853 35.8849C177.253 35.3524 176.611 34.8699 175.932 34.442V34.4369ZM171.505 32.5803L170.993 34.7472C171.656 34.9036 172.305 35.1146 172.933 35.378L173.794 33.3299C173.053 33.0194 172.287 32.7704 171.505 32.5854V32.5803ZM166.723 32.2608L166.938 34.4768C167.616 34.4109 168.298 34.4006 168.978 34.4461L169.128 32.226C168.327 32.172 167.522 32.185 166.723 32.2649V32.2608ZM164.643 60.9967C165.423 61.1874 166.217 61.3142 167.018 61.3756L167.188 59.1554C166.509 59.104 165.835 58.9965 165.174 58.8339L164.643 60.9967ZM169.231 59.1452L169.422 61.3623C170.223 61.2936 171.017 61.1586 171.795 60.9588L171.24 58.8022C170.583 58.9733 169.912 59.0898 169.236 59.1503L169.231 59.1452Z" fill="#272421"/>
<path d="M238.841 42.9194L236.728 42.221C236.476 42.984 236.288 43.7667 236.165 44.5609L238.365 44.8999C238.469 44.2277 238.628 43.5652 238.841 42.9194ZM238.218 46.9377L235.992 46.9592C236 47.7619 236.074 48.5626 236.211 49.3535L238.404 48.9694C238.287 48.2981 238.225 47.6192 238.218 46.9377ZM240.738 39.3229L238.964 37.9763C238.479 38.6169 238.046 39.296 237.672 40.0069L239.641 41.0433C239.958 40.4403 240.325 39.8646 240.737 39.3219L240.738 39.3229ZM238.922 50.9418L236.824 51.6842C237.091 52.441 237.421 53.1743 237.81 53.8767L239.756 52.8004C239.428 52.2043 239.149 51.5823 238.922 50.9407V50.9418ZM261.39 40.7166L263.326 39.6199C262.93 38.9213 262.477 38.2565 261.972 37.6322L260.243 39.0321C260.671 39.5608 261.055 40.1239 261.392 40.7156L261.39 40.7166ZM262.782 44.5333L264.971 44.1236C264.823 43.334 264.611 42.5579 264.336 41.8031L262.245 42.565C262.478 43.2049 262.657 43.8629 262.782 44.5322V44.5333ZM243.693 36.5313L242.45 34.688C241.784 35.137 241.156 35.6398 240.572 36.1913L242.101 37.8083C242.596 37.3394 243.128 36.913 243.693 36.5313ZM240.888 54.4911L239.147 55.8736C239.645 56.5028 240.193 57.0901 240.786 57.6298L242.281 55.9822C241.777 55.5239 241.311 55.0252 240.888 54.4911ZM247.391 34.8406L246.814 32.6901C246.038 32.8986 245.281 33.1706 244.549 33.5032L245.471 35.5288C246.091 35.2485 246.733 35.0197 247.39 34.8447L247.391 34.8406ZM261.512 52.6868L263.471 53.7415C263.852 53.0342 264.174 52.2968 264.434 51.5367L262.329 50.8199C262.107 51.4647 261.834 52.0904 261.511 52.6908L261.512 52.6868ZM258.391 34.4382L257.203 36.3204C257.78 36.6849 258.326 37.0959 258.836 37.5492L260.313 35.8862C259.713 35.3536 259.07 34.871 258.39 34.4433L258.391 34.4382ZM242.695 59.0994C243.37 59.535 244.08 59.9138 244.818 60.232L245.7 58.1839C245.075 57.9139 244.473 57.5929 243.901 57.2243L242.695 59.0994ZM259.018 55.8992L260.528 57.5377C261.118 56.9923 261.662 56.3991 262.155 55.764L260.395 54.4C259.978 54.9371 259.517 55.4392 259.018 55.9013V55.8992ZM265.213 46.5179L262.987 46.5537V46.8077C262.987 47.489 262.932 48.1692 262.821 48.8414L265.018 49.204C265.148 48.4091 265.214 47.605 265.213 46.7995V46.5179ZM255.623 58.1368L256.524 60.1726C257.258 59.8465 257.964 59.4605 258.635 59.0185L257.406 57.1608C256.84 57.5358 256.244 57.8629 255.624 58.1388L255.623 58.1368ZM247.101 61.0041C247.881 61.1948 248.675 61.3215 249.476 61.383L249.646 59.1629C248.967 59.1114 248.293 59.0038 247.632 58.8413L247.101 61.0041ZM253.962 32.5877L253.45 34.7546C254.113 34.911 254.762 35.122 255.39 35.3854L256.251 33.3373C255.511 33.0248 254.746 32.7738 253.964 32.5867L253.962 32.5877ZM249.179 32.2672L249.395 34.4832C249.79 34.4443 250.189 34.4249 250.583 34.4249C250.862 34.4249 251.153 34.433 251.435 34.4525L251.585 32.2324C251.26 32.2098 250.934 32.1986 250.605 32.1986C250.13 32.1912 249.654 32.2148 249.181 32.2692L249.179 32.2672ZM251.687 59.1526L251.878 61.3697C252.679 61.301 253.473 61.166 254.251 60.9662L253.696 58.8096C253.038 58.9788 252.366 59.0932 251.689 59.1516L251.687 59.1526Z" fill="#272421"/>
<path d="M174.004 41.5762L166.854 49.1255L164.072 46.0625L162.424 47.5597L166.008 51.5115C166.111 51.6248 166.236 51.7156 166.376 51.7783C166.516 51.8411 166.667 51.8743 166.82 51.8761H166.831C166.983 51.8762 167.132 51.8453 167.271 51.7854C167.41 51.7256 167.535 51.6379 167.639 51.5279L175.615 43.1071L174.004 41.5762Z" fill="#272421"/>
<path d="M35.7397 165.794C41.5944 165.794 46.3406 161.048 46.3406 155.193C46.3406 149.338 41.5944 144.592 35.7397 144.592C29.8849 144.592 25.1387 149.338 25.1387 155.193C25.1387 161.048 29.8849 165.794 35.7397 165.794Z" fill="url(#paint16_linear_861_38546)"/>
<path d="M36.043 136.219C32.2903 136.219 28.622 137.332 25.5018 139.416C22.3816 141.501 19.9497 144.465 18.5136 147.931C17.0776 151.398 16.7018 155.213 17.4339 158.894C18.166 162.574 19.9731 165.955 22.6266 168.609C25.2801 171.262 28.6609 173.069 32.3414 173.801C36.0219 174.534 39.8369 174.158 43.3039 172.722C46.7708 171.286 49.7341 168.854 51.819 165.734C53.9038 162.613 55.0166 158.945 55.0166 155.192C55.0109 150.162 53.0101 145.339 49.4531 141.782C45.896 138.225 41.0733 136.224 36.043 136.219ZM36.043 171.941C32.7307 171.941 29.4927 170.959 26.7386 169.118C23.9846 167.278 21.838 164.663 20.5704 161.602C19.3029 158.542 18.9712 155.175 19.6174 151.926C20.2636 148.677 21.8587 145.693 24.2008 143.351C26.543 141.009 29.5271 139.414 32.7757 138.768C36.0244 138.122 39.3917 138.453 42.4519 139.721C45.5121 140.988 48.1276 143.135 49.9679 145.889C51.8081 148.643 52.7903 151.881 52.7903 155.193C52.7851 159.633 51.019 163.89 47.8794 167.03C44.7398 170.169 40.483 171.936 36.043 171.941Z" fill="#272421"/>
<path d="M41.9013 149.963L34.7513 157.513L31.969 154.449L30.3213 155.946L33.9055 159.898C34.0085 160.012 34.1338 160.102 34.2736 160.165C34.4133 160.228 34.5644 160.261 34.7175 160.263H34.7288C34.8801 160.263 35.0299 160.232 35.1688 160.172C35.3078 160.112 35.433 160.025 35.5368 159.915L43.5121 151.493L41.9013 149.963Z" fill="#272421"/>
<path d="M271.48 121.754H269.254V125.559H271.48V121.754Z" fill="#272421"/>
<path d="M271.48 132.238H269.254V136.044H271.48V132.238Z" fill="#272421"/>
<path d="M277.512 127.785H273.707V130.011H277.512V127.785Z" fill="#272421"/>
<path d="M267.028 127.785H263.223V130.011H267.028V127.785Z" fill="#272421"/>
<path d="M8.25754 60.5254H6.03125V64.3308H8.25754V60.5254Z" fill="#272421"/>
<path d="M8.25754 71.0117H6.03125V74.8171H8.25754V71.0117Z" fill="#272421"/>
<path d="M14.2917 66.5586H10.4863V68.7849H14.2917V66.5586Z" fill="#272421"/>
<path d="M3.80537 66.5586H0V68.7849H3.80537V66.5586Z" fill="#272421"/>
<path d="M195.342 21.416C197.296 21.416 198.88 19.832 198.88 17.8779C198.88 15.9239 197.296 14.3398 195.342 14.3398C193.388 14.3398 191.804 15.9239 191.804 17.8779C191.804 19.832 193.388 21.416 195.342 21.416Z" fill="#272421"/>
<path d="M76.561 212.548C80.6834 212.548 84.0253 209.206 84.0253 205.083C84.0253 200.961 80.6834 197.619 76.561 197.619C72.4386 197.619 69.0967 200.961 69.0967 205.083C69.0967 209.206 72.4386 212.548 76.561 212.548Z" fill="url(#paint17_linear_861_38546)"/>
<path d="M236.862 182.88C238.103 182.88 239.11 181.874 239.11 180.633C239.11 179.391 238.103 178.385 236.862 178.385C235.621 178.385 234.614 179.391 234.614 180.633C234.614 181.874 235.621 182.88 236.862 182.88Z" fill="url(#paint18_linear_861_38546)"/>
<path d="M23.9768 151.305L21.8642 150.606C21.6119 151.369 21.4235 152.152 21.3009 152.946L23.5006 153.285C23.6045 152.613 23.7637 151.951 23.9768 151.305ZM23.3552 155.322L21.1289 155.343C21.137 156.146 21.2102 156.947 21.3481 157.738L23.5405 157.354C23.4235 156.683 23.3615 156.003 23.3552 155.322ZM25.8733 147.706L24.0997 146.359C23.6142 147 23.182 147.679 22.8073 148.39L24.7766 149.427C25.094 148.824 25.4609 148.248 25.8733 147.706ZM24.0587 159.327L21.9604 160.069C22.2284 160.826 22.5582 161.559 22.9466 162.262L24.8923 161.185C24.5642 160.589 24.2854 159.968 24.0587 159.327ZM28.8298 144.915L27.5866 143.071C26.9205 143.52 26.2924 144.023 25.7085 144.575L27.2374 146.192C27.7322 145.723 28.2648 145.296 28.8298 144.915ZM46.5274 149.098L48.4639 148.001C48.0676 147.303 47.6144 146.638 47.1091 146.014L45.3795 147.414C45.8072 147.943 46.1908 148.507 46.5264 149.099L46.5274 149.098ZM26.0259 162.88L24.285 164.263C24.7822 164.892 25.3302 165.48 25.9235 166.019L27.4186 164.372C26.9147 163.913 26.4489 163.414 26.0259 162.88ZM47.9191 152.915L50.1075 152.506C49.9601 151.716 49.7477 150.939 49.4726 150.184L47.3815 150.948C47.6149 151.588 47.7947 152.246 47.9191 152.915ZM32.5256 143.229L31.949 141.078C31.173 141.287 30.4153 141.559 29.6838 141.892L30.6055 143.918C31.2255 143.636 31.8677 143.406 32.5256 143.229ZM36.8266 167.536L37.0181 169.753C37.8188 169.684 38.6124 169.549 39.3908 169.349L38.8358 167.194C38.1762 167.363 37.5049 167.477 36.8266 167.536ZM44.1557 164.285L45.6662 165.924C46.2562 165.379 46.8001 164.785 47.2924 164.15L45.5331 162.786C45.1152 163.323 44.6543 163.825 44.1547 164.286L44.1557 164.285ZM46.6483 161.075L48.6073 162.13C48.9884 161.423 49.3107 160.685 49.5709 159.925L47.4655 159.208C47.244 159.852 46.9707 160.477 46.6483 161.076V161.075ZM43.527 142.826L42.3391 144.709C42.9154 145.073 43.4609 145.484 43.9704 145.938L45.4481 144.274C44.8482 143.741 44.2057 143.257 43.527 142.828V142.826ZM27.8313 167.486C28.5067 167.921 29.2171 168.3 29.9552 168.618L30.8359 166.57C30.2109 166.3 29.6091 165.979 29.0366 165.611L27.8313 167.486ZM50.3502 154.904L48.1239 154.939V155.195C48.124 155.876 48.0685 156.556 47.958 157.229L50.1546 157.591C50.2848 156.796 50.3502 155.992 50.3502 155.187V154.904ZM32.2388 169.387C33.0187 169.579 33.813 169.706 34.6136 169.767L34.7836 167.547C34.1045 167.496 33.4307 167.388 32.7693 167.226L32.2388 169.387ZM40.761 166.52L41.6622 168.556C42.3963 168.23 43.1022 167.844 43.7727 167.402L42.5439 165.544C41.9777 165.919 41.3813 166.247 40.761 166.524V166.52ZM34.3177 140.648L34.5327 142.864C35.2105 142.8 35.8925 142.791 36.5716 142.84L36.7221 140.619C35.9211 140.563 35.1168 140.574 34.3177 140.652V140.648ZM39.1 140.968L38.588 143.135C39.2508 143.291 39.8995 143.502 40.5275 143.766L41.3887 141.717C40.6477 141.406 39.8822 141.156 39.1 140.971V140.968Z" fill="#272421"/>
<path d="M75.4558 77.7988H62.7381C62.4429 77.7988 62.1598 77.9161 61.951 78.1249C61.7423 78.3336 61.625 78.6168 61.625 78.912V85.8427C61.6253 86.1378 61.7427 86.4207 61.9514 86.6292C62.1601 86.8377 62.4431 86.9549 62.7381 86.9549H75.4558C75.7511 86.9549 76.0342 86.8376 76.2429 86.6288C76.4517 86.4201 76.569 86.137 76.569 85.8417V78.9109C76.5687 78.6159 76.4513 78.333 76.2426 78.1245C76.0339 77.916 75.7509 77.7988 75.4558 77.7988ZM74.3427 84.7286H63.8513V80.0241H74.3437L74.3427 84.7286Z" fill="#272421"/>
<path d="M75.4558 90.3262H62.7381C62.4429 90.3262 62.1598 90.4434 61.951 90.6522C61.7423 90.861 61.625 91.1441 61.625 91.4393V98.3691C61.6253 98.6641 61.7427 98.947 61.9514 99.1555C62.1601 99.3641 62.4431 99.4812 62.7381 99.4812H75.4558C75.7511 99.4812 76.0342 99.3639 76.2429 99.1552C76.4517 98.9464 76.569 98.6633 76.569 98.368V91.4383C76.5687 91.1432 76.4513 90.8604 76.2426 90.6518C76.0339 90.4433 75.7509 90.3262 75.4558 90.3262ZM74.3427 97.2559H63.8513V92.5514H74.3437L74.3427 97.2559Z" fill="url(#paint19_linear_861_38546)"/>
<path d="M75.4558 102.627H62.7381C62.4429 102.627 62.1598 102.744 61.951 102.953C61.7423 103.162 61.625 103.445 61.625 103.74V110.67C61.6253 110.965 61.7427 111.248 61.9514 111.456C62.1601 111.665 62.4431 111.782 62.7381 111.782H75.4558C75.7511 111.782 76.0342 111.665 76.2429 111.456C76.4517 111.247 76.569 110.964 76.569 110.669V103.739C76.5687 103.444 76.4513 103.161 76.2426 102.953C76.0339 102.744 75.7509 102.627 75.4558 102.627ZM74.3427 109.557H63.8513V104.852H74.3437L74.3427 109.557Z" fill="#272421"/>
<path d="M75.4558 115.15H62.7381C62.4429 115.15 62.1598 115.268 61.951 115.476C61.7423 115.685 61.625 115.968 61.625 116.264V123.194C61.6253 123.489 61.7427 123.772 61.9514 123.981C62.1601 124.189 62.4431 124.306 62.7381 124.306H75.4558C75.7511 124.306 76.0342 124.189 76.2429 123.98C76.4517 123.772 76.569 123.489 76.569 123.193V116.263C76.5687 115.967 76.4513 115.685 76.2426 115.476C76.0339 115.268 75.7509 115.15 75.4558 115.15ZM74.3427 122.08H63.8513V117.376H74.3437L74.3427 122.08Z" fill="url(#paint20_linear_861_38546)"/>
<path d="M151.733 93.4153C151.733 91.2151 151.081 89.0644 149.858 87.2351C148.636 85.4058 146.898 83.98 144.866 83.138C142.833 82.296 140.596 82.0756 138.439 82.5046C136.281 82.9337 134.298 83.9929 132.742 85.5485C131.186 87.104 130.127 89.0859 129.697 91.2437C129.267 93.4015 129.487 95.6383 130.329 97.6712C131.17 99.7041 132.595 101.442 134.424 102.665C136.253 103.888 138.404 104.541 140.604 104.542C143.555 104.539 146.384 103.367 148.47 101.281C150.557 99.1945 151.73 96.3658 151.733 93.4153ZM131.662 93.4153C131.662 91.6456 132.187 89.9156 133.17 88.4441C134.153 86.9726 135.551 85.8257 137.186 85.1484C138.821 84.4711 140.62 84.2938 142.355 84.639C144.091 84.9842 145.686 85.8363 146.937 87.0876C148.189 88.3389 149.041 89.9333 149.386 91.669C149.732 93.4047 149.555 95.2038 148.877 96.8389C148.2 98.474 147.054 99.8716 145.582 100.855C144.111 101.838 142.381 102.363 140.611 102.363C138.238 102.363 135.961 101.42 134.282 99.7421C132.603 98.0644 131.659 95.7889 131.656 93.4153H131.662Z" fill="url(#paint21_linear_861_38546)"/>
<path d="M144.296 90.2201C144.296 89.4897 144.079 88.7757 143.673 88.1684C143.268 87.5611 142.691 87.0878 142.016 86.8083C141.341 86.5289 140.599 86.4558 139.882 86.5984C139.166 86.7409 138.508 87.0927 137.992 87.6093C137.475 88.1258 137.124 88.7839 136.981 89.5003C136.839 90.2167 136.912 90.9592 137.192 91.6339C137.471 92.3087 137.945 92.8853 138.552 93.291C139.16 93.6966 139.874 93.913 140.604 93.9128C141.583 93.9114 142.521 93.5219 143.213 92.8297C143.906 92.1374 144.295 91.1989 144.296 90.2201ZM139.089 90.2201C139.089 89.9203 139.177 89.6273 139.344 89.3781C139.511 89.1288 139.747 88.9346 140.024 88.8198C140.301 88.7051 140.606 88.6751 140.9 88.7336C141.194 88.7921 141.464 88.9364 141.676 89.1484C141.888 89.3603 142.032 89.6304 142.091 89.9244C142.149 90.2184 142.119 90.5231 142.004 90.8001C141.89 91.077 141.695 91.3137 141.446 91.4802C141.197 91.6468 140.904 91.7357 140.604 91.7357C140.202 91.7351 139.817 91.5753 139.533 91.2912C139.249 91.0071 139.089 90.6219 139.089 90.2201Z" fill="#272421"/>
<path d="M144.296 90.2201C144.296 89.4897 144.079 88.7757 143.673 88.1684C143.268 87.5611 142.691 87.0878 142.016 86.8083C141.341 86.5289 140.599 86.4558 139.882 86.5984C139.166 86.7409 138.508 87.0927 137.992 87.6093C137.475 88.1258 137.124 88.7839 136.981 89.5003C136.839 90.2167 136.912 90.9592 137.192 91.6339C137.471 92.3087 137.945 92.8853 138.552 93.291C139.16 93.6966 139.874 93.913 140.604 93.9128C141.583 93.9114 142.521 93.5219 143.213 92.8297C143.906 92.1374 144.295 91.1989 144.296 90.2201ZM139.089 90.2201C139.089 89.9203 139.177 89.6273 139.344 89.3781C139.511 89.1288 139.747 88.9346 140.024 88.8198C140.301 88.7051 140.606 88.6751 140.9 88.7336C141.194 88.7921 141.464 88.9364 141.676 89.1484C141.888 89.3603 142.032 89.6304 142.091 89.9244C142.149 90.2184 142.119 90.5231 142.004 90.8001C141.89 91.077 141.695 91.3137 141.446 91.4802C141.197 91.6468 140.904 91.7357 140.604 91.7357C140.202 91.7351 139.817 91.5753 139.533 91.2912C139.249 91.0071 139.089 90.6219 139.089 90.2201Z" fill="url(#paint22_linear_861_38546)"/>
<path d="M139.569 132.877L144.677 128.678C144.792 128.583 144.886 128.466 144.954 128.334C145.022 128.201 145.063 128.056 145.072 127.908C145.081 127.759 145.06 127.609 145.009 127.468C144.959 127.327 144.881 127.198 144.779 127.089L143.112 125.315V121.607L144.757 119.956C144.96 119.752 145.074 119.476 145.074 119.188V111.584C145.074 111.407 145.031 111.233 144.948 111.076C144.865 110.919 144.745 110.785 144.599 110.685L143.381 109.855L144.638 108.914C144.773 108.812 144.883 108.681 144.959 108.529C145.034 108.378 145.073 108.211 145.073 108.042V102.863C145.073 102.688 145.031 102.517 144.951 102.362C144.87 102.208 144.754 102.075 144.612 101.974C144.469 101.874 144.305 101.809 144.132 101.786C143.96 101.762 143.784 101.78 143.62 101.839C142.651 102.184 141.631 102.36 140.602 102.36C139.215 102.363 137.847 102.039 136.608 101.415C136.442 101.331 136.258 101.292 136.072 101.3C135.887 101.308 135.706 101.363 135.548 101.461C135.39 101.558 135.26 101.695 135.169 101.857C135.079 102.019 135.031 102.202 135.031 102.387V132.033C135.031 132.321 135.146 132.598 135.35 132.802C135.554 133.007 135.831 133.121 136.12 133.121H138.885C139.134 133.12 139.376 133.034 139.569 132.877ZM137.203 130.947V104.006C138.302 104.359 139.449 104.538 140.602 104.535C141.373 104.535 142.142 104.455 142.896 104.297V107.497L140.857 109.024C140.717 109.127 140.604 109.262 140.528 109.418C140.452 109.574 140.415 109.747 140.421 109.92C140.425 110.094 140.47 110.263 140.553 110.415C140.635 110.568 140.753 110.698 140.896 110.796L142.896 112.16V118.739L141.251 120.39C141.048 120.594 140.934 120.87 140.934 121.158V125.746C140.934 126.023 141.04 126.289 141.229 126.491L142.396 127.735L138.488 130.948H137.203V130.947Z" fill="url(#paint23_linear_861_38546)"/>
<path d="M150.872 128.281L146.742 123.878V123.104L148.704 121.135V105.737C150.838 104.335 152.571 102.403 153.735 100.13C154.898 97.8571 155.451 95.3211 155.341 92.7702C155.23 90.2192 154.459 87.7407 153.103 85.577C151.747 83.4133 149.853 81.6386 147.606 80.4265C145.359 79.2143 142.835 78.6062 140.283 78.6617C137.73 78.7172 135.235 79.4343 133.043 80.7429C130.85 82.0515 129.035 83.9069 127.774 86.1274C126.514 88.3479 125.851 90.8576 125.852 93.411C125.837 95.6282 126.33 97.8194 127.292 99.8173C128.253 101.815 129.659 103.567 131.401 104.939V136.751H140.569L150.872 128.281ZM133.577 134.574V103.847L133.133 103.52C131.54 102.361 130.247 100.84 129.359 99.0817C128.472 97.3235 128.016 95.3794 128.029 93.4099C128.028 91.2102 128.604 89.0488 129.7 87.1413C130.795 85.2339 132.372 83.6472 134.273 82.5396C136.173 81.432 138.331 80.8423 140.531 80.8293C142.73 80.8163 144.895 81.3805 146.809 82.4656C148.722 83.5506 150.318 85.1186 151.436 87.0129C152.554 88.9073 153.155 91.0618 153.181 93.2614C153.206 95.461 152.654 97.6287 151.579 99.5482C150.505 101.468 148.946 103.072 147.058 104.2L146.527 104.517V120.235L144.565 122.204V124.738L147.695 128.076L139.79 134.574H133.577Z" fill="#272421"/>
<path d="M141.141 126.398V103.447H138.963V126.398H141.141Z" fill="url(#paint24_linear_861_38546)"/>
<defs>
<linearGradient id="paint0_linear_861_38546" x1="54.4657" y1="206.573" x2="57.832" y2="207.352" gradientUnits="userSpaceOnUse">
<stop stop-color="#846E55"/>
<stop offset="1" stop-color="#B3A55C"/>
</linearGradient>
<linearGradient id="paint1_linear_861_38546" x1="54.4657" y1="216.55" x2="57.832" y2="217.328" gradientUnits="userSpaceOnUse">
<stop stop-color="#846E55"/>
<stop offset="1" stop-color="#B3A55C"/>
</linearGradient>
<linearGradient id="paint2_linear_861_38546" x1="58.5512" y1="212.356" x2="62.4656" y2="215.764" gradientUnits="userSpaceOnUse">
<stop stop-color="#846E55"/>
<stop offset="1" stop-color="#B3A55C"/>
</linearGradient>
<linearGradient id="paint3_linear_861_38546" x1="48.5736" y1="212.356" x2="52.488" y2="215.764" gradientUnits="userSpaceOnUse">
<stop stop-color="#846E55"/>
<stop offset="1" stop-color="#B3A55C"/>
</linearGradient>
<linearGradient id="paint4_linear_861_38546" x1="-0.112943" y1="44.531" x2="11.5914" y2="49.7824" gradientUnits="userSpaceOnUse">
<stop stop-color="#846E55"/>
<stop offset="1" stop-color="#B3A55C"/>
</linearGradient>
<linearGradient id="paint5_linear_861_38546" x1="13.8264" y1="100.527" x2="23.1102" y2="104.692" gradientUnits="userSpaceOnUse">
<stop stop-color="#846E55"/>
<stop offset="1" stop-color="#B3A55C"/>
</linearGradient>
<linearGradient id="paint6_linear_861_38546" x1="278.058" y1="110.978" x2="288.431" y2="115.631" gradientUnits="userSpaceOnUse">
<stop stop-color="#846E55"/>
<stop offset="1" stop-color="#B3A55C"/>
</linearGradient>
<linearGradient id="paint7_linear_861_38546" x1="227.854" y1="17.4333" x2="237.138" y2="21.5987" gradientUnits="userSpaceOnUse">
<stop stop-color="#846E55"/>
<stop offset="1" stop-color="#B3A55C"/>
</linearGradient>
<linearGradient id="paint8_linear_861_38546" x1="32.0565" y1="53.3926" x2="126.611" y2="73.5545" gradientUnits="userSpaceOnUse">
<stop stop-color="#846E55"/>
<stop offset="1" stop-color="#B3A55C"/>
</linearGradient>
<linearGradient id="paint9_linear_861_38546" x1="193.435" y1="53.3868" x2="287.992" y2="73.5494" gradientUnits="userSpaceOnUse">
<stop stop-color="#846E55"/>
<stop offset="1" stop-color="#B3A55C"/>
</linearGradient>
<linearGradient id="paint10_linear_861_38546" x1="40.9164" y1="78.2312" x2="59.4049" y2="91.7704" gradientUnits="userSpaceOnUse">
<stop stop-color="#846E55"/>
<stop offset="1" stop-color="#B3A55C"/>
</linearGradient>
<linearGradient id="paint11_linear_861_38546" x1="202.626" y1="78.2312" x2="219.405" y2="107.355" gradientUnits="userSpaceOnUse">
<stop stop-color="#846E55"/>
<stop offset="1" stop-color="#B3A55C"/>
</linearGradient>
<linearGradient id="paint12_linear_861_38546" x1="40.9164" y1="103.059" x2="59.4034" y2="116.599" gradientUnits="userSpaceOnUse">
<stop stop-color="#846E55"/>
<stop offset="1" stop-color="#B3A55C"/>
</linearGradient>
<linearGradient id="paint13_linear_861_38546" x1="202.625" y1="103.059" x2="219.402" y2="132.181" gradientUnits="userSpaceOnUse">
<stop stop-color="#846E55"/>
<stop offset="1" stop-color="#B3A55C"/>
</linearGradient>
<linearGradient id="paint14_linear_861_38546" x1="239.375" y1="37.2121" x2="272.919" y2="52.2628" gradientUnits="userSpaceOnUse">
<stop stop-color="#846E55"/>
<stop offset="1" stop-color="#B3A55C"/>
</linearGradient>
<linearGradient id="paint15_linear_861_38546" x1="156.918" y1="37.2121" x2="190.462" y2="52.2628" gradientUnits="userSpaceOnUse">
<stop stop-color="#846E55"/>
<stop offset="1" stop-color="#B3A55C"/>
</linearGradient>
<linearGradient id="paint16_linear_861_38546" x1="24.815" y1="145.593" x2="58.3596" y2="160.644" gradientUnits="userSpaceOnUse">
<stop stop-color="#846E55"/>
<stop offset="1" stop-color="#B3A55C"/>
</linearGradient>
<linearGradient id="paint17_linear_861_38546" x1="68.8688" y1="198.324" x2="92.4881" y2="208.922" gradientUnits="userSpaceOnUse">
<stop stop-color="#846E55"/>
<stop offset="1" stop-color="#B3A55C"/>
</linearGradient>
<linearGradient id="paint18_linear_861_38546" x1="234.546" y1="178.597" x2="241.658" y2="181.788" gradientUnits="userSpaceOnUse">
<stop stop-color="#846E55"/>
<stop offset="1" stop-color="#B3A55C"/>
</linearGradient>
<linearGradient id="paint19_linear_861_38546" x1="61.3968" y1="90.7585" x2="79.8839" y2="104.298" gradientUnits="userSpaceOnUse">
<stop stop-color="#846E55"/>
<stop offset="1" stop-color="#B3A55C"/>
</linearGradient>
<linearGradient id="paint20_linear_861_38546" x1="61.3968" y1="115.583" x2="79.8854" y2="129.122" gradientUnits="userSpaceOnUse">
<stop stop-color="#846E55"/>
<stop offset="1" stop-color="#B3A55C"/>
</linearGradient>
<linearGradient id="paint21_linear_861_38546" x1="150.683" y1="81.9513" x2="134.888" y2="117.155" gradientUnits="userSpaceOnUse">
<stop stop-color="#846E55"/>
<stop offset="1" stop-color="#B3A55C"/>
</linearGradient>
<linearGradient id="paint22_linear_861_38546" x1="143.947" y1="86.4146" x2="138.704" y2="98.0995" gradientUnits="userSpaceOnUse">
<stop stop-color="#846E55"/>
<stop offset="1" stop-color="#B3A55C"/>
</linearGradient>
<linearGradient id="paint23_linear_861_38546" x1="144.6" y1="100.813" x2="116.138" y2="120.832" gradientUnits="userSpaceOnUse">
<stop stop-color="#846E55"/>
<stop offset="1" stop-color="#B3A55C"/>
</linearGradient>
<linearGradient id="paint24_linear_861_38546" x1="141.038" y1="103.097" x2="132.21" y2="104.963" gradientUnits="userSpaceOnUse">
<stop stop-color="#846E55"/>
<stop offset="1" stop-color="#B3A55C"/>
</linearGradient>
</defs>
</svg>
