<svg width="199" height="119" viewBox="0 0 199 119" fill="none" xmlns="http://www.w3.org/2000/svg">
<g clip-path="url(#clip0_439_5298)">
<g opacity="0.272">
<path d="M26.9273 111.457C38.723 111.457 48.2853 101.895 48.2853 90.099C48.2853 78.3033 38.723 68.741 26.9273 68.741C15.1316 68.741 5.56934 78.3033 5.56934 90.099C5.56934 101.895 15.1316 111.457 26.9273 111.457Z" fill="#F6F2ED"/>
<path d="M32.782 117.415C33.0633 117.643 33.4058 117.782 33.7663 117.815C34.1267 117.848 34.4889 117.773 34.807 117.601C35.1251 117.428 35.3848 117.165 35.5533 116.844C35.7218 116.524 35.7915 116.161 35.7535 115.801C35.7156 115.441 35.5717 115.1 35.3402 114.822C35.1086 114.544 34.7998 114.34 34.4526 114.238C34.1055 114.135 33.7357 114.138 33.3901 114.245C33.0445 114.353 32.7384 114.56 32.5108 114.842C32.2057 115.219 32.0628 115.702 32.1137 116.184C32.1645 116.667 32.4049 117.109 32.782 117.415Z" fill="#F6F2ED"/>
<path d="M39.3547 113.551C39.5466 113.707 39.7803 113.802 40.0262 113.824C40.2721 113.847 40.5192 113.796 40.7362 113.679C40.9533 113.561 41.1306 113.381 41.2457 113.163C41.3608 112.944 41.4086 112.697 41.3829 112.451C41.3573 112.205 41.2595 111.973 41.1018 111.783C40.9441 111.593 40.7336 111.454 40.4969 111.384C40.2602 111.313 40.0079 111.314 39.772 111.387C39.536 111.46 39.327 111.601 39.1713 111.793C39.0679 111.921 38.9906 112.067 38.9439 112.225C38.8971 112.382 38.8818 112.547 38.8988 112.71C38.9159 112.873 38.9649 113.032 39.0431 113.176C39.1213 113.32 39.2272 113.448 39.3547 113.551Z" fill="#F6F2ED"/>
<path d="M2.31512 84.1642C2.77397 84.1642 3.22252 84.0281 3.60404 83.7732C3.98556 83.5183 4.28292 83.1559 4.45852 82.732C4.63411 82.3081 4.68006 81.8416 4.59054 81.3916C4.50102 80.9415 4.28006 80.5281 3.95561 80.2037C3.63115 79.8792 3.21776 79.6583 2.76773 79.5687C2.31769 79.4792 1.85122 79.5252 1.42729 79.7008C1.00337 79.8764 0.641033 80.1737 0.386108 80.5552C0.131184 80.9368 -0.00488281 81.3853 -0.00488281 81.8442C-0.00488281 82.4595 0.239546 83.0496 0.67463 83.4847C1.10971 83.9197 1.69982 84.1642 2.31512 84.1642Z" fill="#F6F2ED"/>
</g>
<g opacity="0.272">
<path d="M182.57 24.6391C187.514 20.9147 188.502 13.8883 184.777 8.94512C181.053 4.00196 174.026 3.01394 169.083 6.73833C164.14 10.4627 163.152 17.4892 166.876 22.4323C170.601 27.3755 177.627 28.3635 182.57 24.6391Z" fill="#F6F2ED"/>
<path d="M181.998 28.9832C181.952 29.1675 181.853 29.3339 181.712 29.4616C181.572 29.5892 181.396 29.6723 181.209 29.7004C181.021 29.7284 180.829 29.7002 180.657 29.6192C180.485 29.5382 180.342 29.408 180.244 29.2453C180.146 29.0825 180.099 28.8944 180.108 28.7048C180.117 28.5151 180.182 28.3324 180.295 28.1798C180.408 28.0272 180.564 27.9115 180.742 27.8474C180.921 27.7832 181.115 27.7735 181.299 27.8194C181.546 27.8811 181.758 28.0383 181.89 28.2565C182.021 28.4748 182.06 28.7362 181.998 28.9832Z" fill="url(#paint0_linear_439_5298)"/>
<path d="M178.023 29.4395C177.992 29.5652 177.924 29.6788 177.828 29.7659C177.732 29.853 177.612 29.9097 177.484 29.9288C177.356 29.9479 177.225 29.9287 177.108 29.8734C176.991 29.8181 176.893 29.7293 176.826 29.6183C176.759 29.5072 176.727 29.3789 176.733 29.2495C176.74 29.1201 176.784 28.9955 176.861 28.8913C176.938 28.7872 177.044 28.7083 177.166 28.6645C177.288 28.6207 177.42 28.6141 177.546 28.6455C177.715 28.6875 177.86 28.7948 177.949 28.9437C178.039 29.0926 178.065 29.2709 178.023 29.4395Z" fill="url(#paint1_linear_439_5298)"/>
<path d="M184.263 5.4321C184.071 5.57695 183.84 5.66153 183.599 5.67516C183.359 5.68879 183.12 5.63085 182.913 5.50867C182.705 5.38649 182.539 5.20556 182.434 4.98875C182.33 4.77195 182.292 4.52901 182.325 4.29065C182.359 4.0523 182.462 3.82923 182.623 3.64967C182.783 3.4701 182.993 3.3421 183.226 3.28185C183.459 3.2216 183.705 3.23181 183.932 3.31118C184.159 3.39056 184.358 3.53553 184.502 3.72777C184.697 3.98556 184.781 4.30995 184.736 4.62957C184.691 4.9492 184.521 5.23788 184.263 5.4321Z" fill="#F6F2ED"/>
</g>
<path d="M70.961 94.0626C70.4934 94.0366 70.027 94.0024 69.5617 93.9599L69.3436 96.3528C69.8354 96.3977 70.3296 96.4335 70.8261 96.4602C71.1547 96.4787 71.4828 96.4935 71.8104 96.5046L71.8914 94.1035C71.5818 94.0936 71.2716 94.08 70.961 94.0626ZM74.2242 94.1173L74.2794 96.5193C75.0991 96.5002 75.9301 96.4575 76.7474 96.3906L76.5528 93.9952C75.7817 94.0575 74.9973 94.0987 74.2243 94.1163L74.2242 94.1173ZM79.2051 96.119C80.0147 96.0055 80.835 95.8674 81.6411 95.707L81.1736 93.35C80.4111 93.5013 79.6373 93.6329 78.873 93.7396L79.2051 96.119ZM52.8783 91.4092L54.0169 89.293C53.3373 88.9269 52.6562 88.5353 51.9945 88.1272L50.7357 90.1719C51.4367 90.6087 52.1579 91.0241 52.8779 91.4121L52.8783 91.4092ZM56.103 90.3436L55.0897 92.5238C55.8337 92.8707 56.5983 93.2003 57.3615 93.5035L58.2489 91.2703C57.5262 90.9808 56.8054 90.6705 56.103 90.3436ZM60.4418 92.0642L59.687 94.3453C60.4705 94.6049 61.2671 94.8431 62.0543 95.0547L62.6764 92.7337C61.9336 92.5364 61.1816 92.3115 60.4414 92.0671L60.4418 92.0642ZM64.9454 93.2727L64.4579 95.6278C65.2644 95.7957 66.0821 95.9409 66.8904 96.0605L67.2432 93.6865C66.479 93.57 65.7065 93.4332 64.946 93.2758L64.9454 93.2727ZM38.1885 78.4314L40.1463 77.0394C39.6979 76.4078 39.2614 75.7557 38.8486 75.0999L36.8142 76.3832C37.2515 77.0728 37.7128 77.7637 38.1885 78.4314ZM35.5609 74.25L37.6659 73.0897C37.2908 72.4099 36.9315 71.7121 36.5994 71.0212L34.434 72.0579C34.7833 72.7916 35.1638 73.5257 35.5608 74.251L35.5609 74.25ZM48.6666 88.8208L50.0413 86.8499C49.4085 86.4086 48.7774 85.9412 48.1665 85.4595L46.6822 87.3483C47.3295 87.8584 47.9967 88.3561 48.6666 88.8208ZM31.2275 62.7339C31.4021 63.5319 31.6074 64.3414 31.8249 65.1293L34.1377 64.4809C33.9285 63.7345 33.7385 62.9737 33.5746 62.2215L31.2275 62.7339ZM33.4299 69.7971L35.6534 68.8857C35.3587 68.1657 35.0821 67.4321 34.8328 66.7053L32.5601 67.4856C32.8245 68.2559 33.117 69.0342 33.4299 69.7971ZM41.277 82.2868L43.0641 80.6799C42.5474 80.1023 42.0393 79.5068 41.554 78.9004L39.6786 80.403C40.1923 81.0447 40.7292 81.6796 41.277 82.2868ZM44.7851 85.7649L46.3756 83.9687C45.7961 83.4571 45.2233 82.9202 44.6719 82.3741L42.9817 84.0754C43.5648 84.6542 44.1717 85.2222 44.7851 85.7649Z" fill="#F6F2ED"/>
<path d="M155.022 16.9525C155.489 16.9785 155.956 17.0128 156.421 17.0553L156.639 14.6624C156.147 14.6175 155.653 14.5817 155.157 14.555C154.828 14.5364 154.5 14.5216 154.172 14.5105L154.092 16.9117C154.401 16.9215 154.711 16.9351 155.022 16.9525ZM151.759 16.8979L151.703 14.4958C150.884 14.5149 150.053 14.5577 149.236 14.6246L149.43 17.02C150.201 16.9577 150.986 16.9164 151.759 16.8988L151.759 16.8979ZM146.778 14.8962C145.968 15.0096 145.148 15.1478 144.342 15.3081L144.809 17.6652C145.572 17.5138 146.346 17.3822 147.11 17.2755L146.778 14.8962ZM173.105 19.606L171.966 21.7221C172.646 22.0883 173.327 22.4799 173.988 22.8879L175.247 20.8432C174.546 20.4064 173.825 19.991 173.105 19.603L173.105 19.606ZM169.88 20.6716L170.893 18.4914C170.149 18.1444 169.385 17.8148 168.621 17.5117L167.734 19.7449C168.457 20.0343 169.178 20.3446 169.88 20.6716ZM165.541 18.951L166.296 16.6698C165.512 16.4103 164.716 16.1721 163.929 15.9605L163.307 18.2815C164.049 18.4788 164.801 18.7036 165.542 18.948L165.541 18.951ZM161.036 17.7423L161.524 15.3872C160.719 15.2195 159.901 15.0743 159.093 14.9546L158.74 17.3286C159.504 17.4451 160.276 17.5819 161.037 17.7393L161.036 17.7423ZM187.794 32.5837L185.837 33.9758C186.285 34.6073 186.722 35.2594 187.134 35.9153L189.169 34.6319C188.731 33.9423 188.27 33.2514 187.794 32.5837ZM190.422 36.7651L188.317 37.9254C188.692 38.6052 189.051 39.303 189.384 39.994L191.549 38.9573C191.199 38.2245 190.819 37.4894 190.422 36.7641L190.422 36.7651ZM177.316 22.1943L175.942 24.1652C176.574 24.6065 177.205 25.0739 177.816 25.5556L179.301 23.6668C178.653 23.1568 177.986 22.6591 177.316 22.1943ZM194.755 48.2813C194.581 47.4832 194.375 46.6737 194.158 45.8858L191.845 46.5342C192.054 47.2806 192.244 48.0415 192.408 48.7936L194.755 48.2813ZM192.553 41.218L190.33 42.1294C190.624 42.8494 190.901 43.5831 191.15 44.3098L193.423 43.5295C193.158 42.7593 192.866 41.981 192.553 41.218ZM184.706 28.7283L182.919 30.3353C183.435 30.9128 183.944 31.5083 184.429 32.1148L186.304 30.6121C185.791 29.9704 185.254 29.3355 184.706 28.7283ZM181.198 25.2503L179.607 27.0464C180.187 27.558 180.76 28.095 181.311 28.641L183.001 26.9397C182.418 26.3609 181.811 25.7929 181.198 25.2503Z" fill="#F6F2ED"/>
</g>
<defs>
<linearGradient id="paint0_linear_439_5298" x1="182.15" y1="28.0014" x2="180.092" y2="30.619" gradientUnits="userSpaceOnUse">
<stop stop-color="#A58969"/>
<stop offset="1" stop-color="#C7B664"/>
</linearGradient>
<linearGradient id="paint1_linear_439_5298" x1="178.126" y1="28.7696" x2="176.723" y2="30.5556" gradientUnits="userSpaceOnUse">
<stop stop-color="#A58969"/>
<stop offset="1" stop-color="#C7B664"/>
</linearGradient>
<clipPath id="clip0_439_5298">
<rect width="198.658" height="118.566" fill="white"/>
</clipPath>
</defs>
</svg>
