<svg width="285" height="220" viewBox="0 0 285 220" fill="none" xmlns="http://www.w3.org/2000/svg">
<path d="M135.297 206.402C192.293 206.402 238.497 160.197 238.497 103.201C238.497 46.2046 192.293 0 135.297 0C78.3003 0 32.0957 46.2046 32.0957 103.201C32.0957 160.197 78.3003 206.402 135.297 206.402Z" fill="#C3B075" fill-opacity="0.1"/>
<path opacity="0.2" d="M266.422 108.055C267.617 108.055 268.785 107.7 269.778 107.036C270.772 106.372 271.546 105.429 272.004 104.325C272.461 103.221 272.581 102.006 272.348 100.834C272.114 99.6619 271.539 98.5853 270.694 97.7403C269.849 96.8954 268.773 96.3199 267.601 96.0868C266.428 95.8537 265.214 95.9733 264.11 96.4306C263.006 96.8879 262.062 97.6623 261.398 98.6559C260.734 99.6495 260.38 100.818 260.38 102.013C260.38 103.615 261.016 105.152 262.15 106.285C263.283 107.418 264.819 108.055 266.422 108.055Z" fill="url(#paint0_linear_861_37556)"/>
<path d="M56.3614 206.402H54.4956V210.023H56.3614V206.402Z" fill="#272421"/>
<path d="M56.3614 216.379H54.4956V220H56.3614V216.379Z" fill="#272421"/>
<path d="M62.229 212.268H58.6079V214.133H62.229V212.268Z" fill="#272421"/>
<path d="M52.2514 212.268H48.6304V214.133H52.2514V212.268Z" fill="#272421"/>
<path d="M3.69887 51.5794C5.7417 51.5794 7.39775 49.9233 7.39775 47.8805C7.39775 45.8377 5.7417 44.1816 3.69887 44.1816C1.65604 44.1816 0 45.8377 0 47.8805C0 49.9233 1.65604 51.5794 3.69887 51.5794Z" fill="#272421"/>
<path d="M16.8509 106.118C18.4713 106.118 19.7848 104.804 19.7848 103.184C19.7848 101.564 18.4713 100.25 16.8509 100.25C15.2305 100.25 13.917 101.564 13.917 103.184C13.917 104.804 15.2305 106.118 16.8509 106.118Z" fill="#272421"/>
<path d="M281.437 117.224C283.247 117.224 284.715 115.756 284.715 113.946C284.715 112.136 283.247 110.668 281.437 110.668C279.626 110.668 278.159 112.136 278.159 113.946C278.159 115.756 279.626 117.224 281.437 117.224Z" fill="#272421"/>
<path d="M230.877 23.0241C232.498 23.0241 233.811 21.7105 233.811 20.0902C233.811 18.4698 232.498 17.1562 230.877 17.1562C229.257 17.1562 227.943 18.4698 227.943 20.0902C227.943 21.7105 229.257 23.0241 230.877 23.0241Z" fill="#272421"/>
<path d="M34.256 50.6426H31.874V54.7142H34.256V50.6426Z" fill="url(#paint1_linear_861_37556)"/>
<path d="M34.256 61.8594H31.874V65.931H34.256V61.8594Z" fill="url(#paint2_linear_861_37556)"/>
<path d="M40.7093 57.0957H36.6377V59.4776H40.7093V57.0957Z" fill="url(#paint3_linear_861_37556)"/>
<path d="M29.492 57.0957H25.4204V59.4776H29.492V57.0957Z" fill="url(#paint4_linear_861_37556)"/>
<path d="M250.553 114.932H248.171V119.003H250.553V114.932Z" fill="url(#paint5_linear_861_37556)"/>
<path d="M250.553 126.15H248.171V130.221H250.553V126.15Z" fill="url(#paint6_linear_861_37556)"/>
<path d="M257.007 121.385H252.935V123.767H257.007V121.385Z" fill="url(#paint7_linear_861_37556)"/>
<path d="M245.79 121.385H241.718V123.767H245.79V121.385Z" fill="url(#paint8_linear_861_37556)"/>
<path d="M126.577 159.271H124.196V163.343H126.577V159.271Z" fill="url(#paint9_linear_861_37556)"/>
<path d="M126.578 170.486H124.197V174.558H126.578V170.486Z" fill="url(#paint10_linear_861_37556)"/>
<path d="M133.032 165.721H128.96V168.102H133.032V165.721Z" fill="url(#paint11_linear_861_37556)"/>
<path d="M121.814 165.721H117.743V168.102H121.814V165.721Z" fill="url(#paint12_linear_861_37556)"/>
<path d="M242.245 68.6617C244.336 68.6617 246.031 66.9667 246.031 64.8758C246.031 62.7849 244.336 61.0898 242.245 61.0898C240.154 61.0898 238.459 62.7849 238.459 64.8758C238.459 66.9667 240.154 68.6617 242.245 68.6617Z" fill="#272421"/>
<path d="M29.4924 124.959C33.9033 124.959 37.479 121.384 37.479 116.973C37.479 112.562 33.9033 108.986 29.4924 108.986C25.0816 108.986 21.5059 112.562 21.5059 116.973C21.5059 121.384 25.0816 124.959 29.4924 124.959Z" fill="url(#paint13_linear_861_37556)"/>
<path d="M120.09 23.0669C121.418 23.0669 122.495 21.9899 122.495 20.6614C122.495 19.3328 121.418 18.2559 120.09 18.2559C118.761 18.2559 117.684 19.3328 117.684 20.6614C117.684 21.9899 118.761 23.0669 120.09 23.0669Z" fill="url(#paint14_linear_861_37556)"/>
<path d="M99.9415 91.5259H97.5596C97.5596 92.3379 97.5831 93.1644 97.6282 93.9713L100.006 93.8392C99.9651 93.0732 99.9415 92.2949 99.9415 91.5259ZM100.966 100.711L98.642 101.233C98.8202 102.025 99.0229 102.823 99.2462 103.605L101.536 102.952C101.323 102.213 101.13 101.459 100.961 100.711H100.966ZM100.201 96.1464L97.834 96.4096C97.9241 97.2206 98.0388 98.0347 98.1709 98.8325L100.52 98.4392C100.39 97.6855 100.283 96.9155 100.198 96.1474L100.201 96.1464ZM100.195 86.9043L97.8279 86.6453C97.7398 87.4522 97.6732 88.2725 97.6292 89.0825L100.008 89.2115C100.045 88.4455 100.108 87.6642 100.192 86.9043H100.195ZM100.953 82.3412L98.6287 81.8199C98.4515 82.6115 98.2938 83.4195 98.1617 84.2213L100.511 84.6115C100.634 83.8547 100.784 83.0897 100.95 82.3391L100.953 82.3412ZM102.215 77.8886L99.962 77.1134C99.6978 77.8814 99.45 78.6669 99.2298 79.4472L101.522 80.0964C101.728 79.3581 101.961 78.6167 102.211 77.8886H102.215ZM110.189 122.435C110.76 123.019 111.351 123.592 111.946 124.136L113.556 122.381C112.993 121.869 112.43 121.323 111.893 120.769L110.189 122.435ZM108.844 117.289L106.97 118.757C107.468 119.395 107.994 120.029 108.529 120.641L110.321 119.072C109.809 118.488 109.312 117.888 108.839 117.285L108.844 117.289ZM106.195 113.5L104.171 114.754C104.599 115.446 105.051 116.132 105.514 116.795L107.467 115.432C107.025 114.796 106.597 114.145 106.191 113.492L106.195 113.5ZM103.983 109.443L101.833 110.467C102.179 111.195 102.55 111.927 102.943 112.644L105.034 111.504C104.659 110.816 104.306 110.124 103.979 109.434L103.983 109.443ZM102.232 105.168L99.9794 105.947C100.244 106.709 100.533 107.483 100.842 108.231L103.045 107.329C102.753 106.609 102.478 105.882 102.228 105.16L102.232 105.168ZM127.26 52.2351L126.43 50.0027C125.67 50.2853 124.908 50.5935 124.165 50.9171L125.119 53.1004C125.818 52.785 126.538 52.4942 127.257 52.232L127.26 52.2351ZM131.68 50.8629L131.096 48.5454C130.305 48.7441 129.513 48.9663 128.741 49.2049L129.445 51.4793C130.175 51.253 130.927 51.0421 131.677 50.8546L131.68 50.8629ZM140.836 49.634L140.781 47.252C139.961 47.2715 139.142 47.3135 138.338 47.377L138.525 49.7507C139.282 49.6801 140.061 49.6401 140.833 49.6227L140.836 49.634ZM123.028 54.0876L121.956 51.9606C121.232 52.3262 120.508 52.7164 119.805 53.1219L120.995 55.1854C121.655 54.7921 122.34 54.4204 123.025 54.0753L123.028 54.0876ZM136.222 49.9975L135.907 47.6371C135.106 47.7395 134.293 47.8757 133.491 48.0293L133.94 50.3682C134.695 50.2116 135.463 50.0815 136.216 49.9863L136.222 49.9975ZM106.179 69.5282L104.152 68.2768C103.724 68.9701 103.311 69.6829 102.924 70.3935L105.015 71.5333C105.38 70.8605 105.772 70.1857 106.179 69.5282ZM108.828 65.7331L106.954 64.2626C106.455 64.8995 105.966 65.5611 105.498 66.2308L107.452 67.5938C107.893 66.9599 108.356 66.3342 108.828 65.7331ZM103.963 73.5978L101.812 72.5738C101.463 73.3111 101.13 74.0658 100.824 74.8144L103.029 75.7145C103.317 75.01 103.631 74.2962 103.959 73.5978H103.963ZM119.017 56.3815L117.714 54.3876C117.032 54.8331 116.357 55.3011 115.705 55.7773L117.112 57.6984C117.732 57.2499 118.372 56.8034 119.02 56.3815H119.017ZM111.874 62.2462L110.17 60.5821C109.601 61.1638 109.043 61.768 108.51 62.3783L110.302 63.9461C110.81 63.3696 111.339 62.7971 111.877 62.2462H111.874ZM115.285 59.1177L113.773 57.2744C113.145 57.7865 112.523 58.3302 111.93 58.8771L113.541 60.6323C114.105 60.1172 114.693 59.6052 115.289 59.1177H115.285ZM117.733 128.627C118.418 129.073 119.12 129.504 119.82 129.906L121.009 127.843C120.346 127.461 119.678 127.053 119.033 126.631L117.733 128.627ZM163.015 127.695L164.218 129.752C164.922 129.342 165.62 128.904 166.296 128.454L164.978 126.472C164.345 126.895 163.685 127.307 163.02 127.695H163.015ZM162.03 52.0784L160.942 54.1961C161.63 54.5494 162.312 54.9242 162.969 55.3113L164.176 53.2632C163.485 52.8464 162.763 52.4511 162.035 52.0774L162.03 52.0784ZM154.575 131.442L155.291 133.714C156.059 133.473 156.837 133.202 157.605 132.912L156.761 130.686C156.037 130.96 155.303 131.215 154.58 131.443L154.575 131.442ZM157.559 50.0876L156.715 52.3139C157.432 52.5853 158.149 52.8823 158.855 53.1946L159.823 51.0195C159.083 50.6877 158.321 50.3754 157.564 50.0887L157.559 50.0876ZM158.899 129.806L159.864 131.983C160.602 131.656 161.345 131.301 162.073 130.928L160.986 128.809C160.303 129.161 159.602 129.497 158.904 129.806H158.899ZM166.25 54.5515L164.933 56.5361C165.571 56.96 166.208 57.4086 166.824 57.8674L168.25 55.9606C167.603 55.4752 166.931 54.9969 166.255 54.5515H166.25ZM173.615 118.813L175.425 120.36C175.952 119.746 176.469 119.104 176.961 118.455L175.069 117.01C174.608 117.624 174.118 118.23 173.62 118.814L173.615 118.813ZM177.68 113.18C177.283 113.836 176.861 114.492 176.427 115.126L178.395 116.468C178.853 115.796 179.297 115.104 179.717 114.411L177.68 113.18ZM170.418 122.16L172.047 123.901C172.64 123.345 173.225 122.765 173.788 122.178L172.064 120.539C171.537 121.088 170.984 121.636 170.42 122.163L170.418 122.16ZM170.169 57.4762L168.64 59.3031C169.229 59.7956 169.813 60.3118 170.376 60.8391L172.001 59.0983C171.411 58.5443 170.795 57.9984 170.173 57.4782L170.169 57.4762ZM166.87 125.134L168.296 127.041C168.945 126.557 169.59 126.045 170.215 125.521L168.685 123.696C168.099 124.194 167.489 124.679 166.875 125.137L166.87 125.134ZM135.956 135.385C136.757 135.492 137.575 135.579 138.391 135.641L138.574 133.267C137.804 133.208 137.031 133.126 136.273 133.026L135.956 135.385ZM131.152 134.47C131.944 134.667 132.748 134.843 133.541 134.995L133.986 132.655C133.236 132.513 132.476 132.348 131.726 132.158L131.152 134.47ZM113.79 125.735C114.418 126.247 115.068 126.759 115.723 127.236L117.131 125.314C116.512 124.86 115.895 124.383 115.301 123.895L113.79 125.735ZM140.883 133.383L140.832 135.764C141.166 135.771 141.502 135.774 141.838 135.774C142.318 135.774 142.798 135.766 143.271 135.751L143.196 133.371C142.43 133.396 141.654 133.4 140.883 133.383ZM126.472 133.026C127.231 133.307 128.008 133.573 128.792 133.814L129.496 131.54C128.756 131.311 128.018 131.06 127.299 130.793L126.472 133.026ZM121.981 131.069C122.709 131.435 123.455 131.785 124.198 132.11L125.151 129.927C124.447 129.62 123.74 129.288 123.051 128.942L121.981 131.069ZM148.094 47.6637L147.763 50.019C148.523 50.1214 149.291 50.2556 150.046 50.4051L150.508 48.0682C149.712 47.9146 148.9 47.7774 148.094 47.6637ZM143.221 47.2541L143.148 49.634C143.919 49.6565 144.698 49.7016 145.461 49.7671L145.665 47.3954C144.862 47.3217 144.039 47.2746 143.225 47.25L143.221 47.2541ZM152.895 48.6151L152.305 50.9222C153.047 51.1127 153.795 51.3257 154.53 51.5592L155.246 49.2889C154.475 49.039 153.683 48.8127 152.898 48.612L152.895 48.6151ZM150.091 132.593L150.553 134.93C151.353 134.772 152.155 134.59 152.938 134.39L152.348 132.082C151.612 132.269 150.852 132.441 150.095 132.59L150.091 132.593ZM145.509 133.242L145.714 135.613C146.533 135.543 147.346 135.451 148.141 135.338L147.809 132.983C147.061 133.083 146.287 133.171 145.513 133.234L145.509 133.242Z" fill="url(#paint15_linear_861_37556)"/>
<path d="M140.029 79.7598H134.988V88.7929H140.029C141.215 88.7751 142.346 88.2914 143.179 87.4463C144.011 86.6012 144.478 85.4626 144.478 84.2764C144.478 83.0901 144.011 81.9515 143.179 81.1064C142.346 80.2613 141.215 79.7776 140.029 79.7598Z" fill="url(#paint16_linear_861_37556)"/>
<path d="M142.085 93.4512H134.988V103.239H142.085C143.383 103.239 144.628 102.723 145.546 101.806C146.463 100.888 146.979 99.6431 146.979 98.3451C146.979 97.0472 146.463 95.8024 145.546 94.8846C144.628 93.9668 143.383 93.4512 142.085 93.4512Z" fill="url(#paint17_linear_861_37556)"/>
<path d="M161.875 111.744V78.9422H166.162V70.7416C166.162 67.2803 169.607 63.9624 169.607 63.9624C163.871 58.1805 156.473 54.3334 148.446 52.9582C140.419 51.5829 132.162 52.748 124.829 56.2908C117.496 59.8337 111.452 65.5776 107.54 72.7209C103.628 79.8643 102.044 88.0506 103.009 96.1375C103.973 104.224 107.439 111.808 112.921 117.831C118.403 123.854 125.629 128.015 133.59 129.733C141.551 131.452 149.85 130.642 157.328 127.417C164.807 124.192 171.092 118.712 175.307 111.744H161.875ZM153.564 105.734C152.694 106.607 151.659 107.299 150.52 107.771C149.381 108.242 148.161 108.483 146.928 108.481H142.443V115.816H137.879V108.484H134.99V115.819H130.425V108.549H121.154V103.627H124.575C124.86 103.673 125.151 103.651 125.426 103.564C125.701 103.477 125.951 103.327 126.157 103.126C126.363 102.924 126.519 102.677 126.613 102.404C126.706 102.132 126.734 101.841 126.695 101.555V81.5228C126.734 81.2373 126.706 80.9465 126.613 80.6738C126.519 80.4011 126.363 80.1541 126.157 79.9526C125.951 79.7511 125.701 79.6008 125.426 79.5137C125.151 79.4267 124.86 79.4052 124.575 79.4512H121.154V74.5296H130.425V67.1871H134.99V74.5296H137.879V67.1871H142.444V74.5296H145.627C147.539 74.5263 149.383 75.2377 150.797 76.524C152.21 77.8103 153.093 79.5787 153.27 81.482C153.447 83.3853 152.906 85.286 151.753 86.811C150.601 88.336 148.92 89.3751 147.041 89.7244C148.886 89.7459 150.685 90.3114 152.21 91.3502C153.736 92.3889 154.922 93.8547 155.618 95.5639C156.315 97.2732 156.492 99.15 156.127 100.959C155.762 102.769 154.871 104.43 153.566 105.735L153.564 105.734Z" fill="url(#paint18_linear_861_37556)"/>
<path d="M195.39 83.582H166.513V107.098H195.39V83.582Z" fill="#272421"/>
<path d="M180.951 62.834C178.059 62.8375 175.285 63.9882 173.24 66.0338C171.195 68.0793 170.044 70.8526 170.041 73.7452V80.9853H172.422V73.7452C172.422 71.4833 173.321 69.3139 174.92 67.7145C176.519 66.115 178.689 65.2164 180.951 65.2164C183.213 65.2164 185.382 66.115 186.982 67.7145C188.581 69.3139 189.48 71.4833 189.48 73.7452V80.9853H191.862V73.7452C191.859 70.8525 190.708 68.0791 188.663 66.0335C186.617 63.9879 183.844 62.8372 180.951 62.834Z" fill="#272421"/>
<path d="M60.3433 100.656C60.0275 100.656 59.7245 100.782 59.5012 101.005C59.2778 101.228 59.1523 101.531 59.1523 101.847V143.307H61.5343V103.038H91.5861V100.657H60.3433V100.656Z" fill="url(#paint19_linear_861_37556)"/>
<path d="M61.5343 83.1223V42.8535H59.1523V84.3132C59.1523 84.6291 59.2778 84.932 59.5012 85.1554C59.7245 85.3787 60.0275 85.5042 60.3433 85.5042H91.5861V83.1223H61.5343Z" fill="url(#paint20_linear_861_37556)"/>
<path d="M48.0141 149.832C45.6069 149.832 43.2538 150.546 41.2523 151.883C39.2507 153.221 37.6908 155.122 36.7696 157.346C35.8485 159.57 35.6075 162.017 36.0772 164.378C36.5469 166.739 37.7062 168.907 39.4084 170.609C41.1106 172.311 43.2793 173.47 45.6403 173.94C48.0013 174.409 50.4485 174.168 52.6724 173.247C54.8963 172.326 56.7971 170.766 58.1343 168.764C59.4715 166.762 60.1852 164.409 60.185 162.002C60.1806 158.775 58.8969 155.682 56.6154 153.401C54.3338 151.12 51.2406 149.836 48.0141 149.832ZM48.0141 171.792C46.0781 171.792 44.1857 171.217 42.5761 170.142C40.9665 169.066 39.7119 167.537 38.9712 165.748C38.2304 163.96 38.0366 161.992 38.4144 160.093C38.7921 158.194 39.7244 156.45 41.0933 155.081C42.4623 153.712 44.2064 152.78 46.1052 152.402C48.0039 152.024 49.9721 152.218 51.7607 152.959C53.5494 153.7 55.0782 154.954 56.1539 156.564C57.2296 158.173 57.8038 160.066 57.804 162.002C57.8013 164.597 56.769 167.086 54.9336 168.921C53.0983 170.757 50.6097 171.789 48.0141 171.792Z" fill="#272421"/>
<path d="M44.5238 157.961C43.7247 157.961 42.9436 158.198 42.2792 158.642C41.6148 159.086 41.097 159.717 40.7913 160.455C40.4856 161.193 40.4056 162.006 40.5616 162.789C40.7176 163.573 41.1024 164.293 41.6675 164.858C42.2326 165.423 42.9525 165.807 43.7363 165.963C44.52 166.119 45.3323 166.039 46.0705 165.733C46.8087 165.427 47.4395 164.909 47.8833 164.245C48.3271 163.58 48.5639 162.799 48.5637 162C48.5623 160.929 48.1362 159.902 47.3788 159.145C46.6215 158.388 45.5947 157.962 44.5238 157.961ZM44.5238 163.658C44.1959 163.658 43.8753 163.561 43.6027 163.378C43.33 163.196 43.1175 162.937 42.992 162.634C42.8665 162.331 42.8337 161.998 42.8977 161.676C42.9617 161.355 43.1196 161.059 43.3514 160.827C43.5833 160.596 43.8787 160.438 44.2003 160.374C44.5219 160.31 44.8553 160.343 45.1582 160.468C45.4612 160.594 45.7201 160.806 45.9023 161.079C46.0845 161.351 46.1817 161.672 46.1817 162C46.1812 162.439 46.0063 162.861 45.6955 163.172C45.3847 163.482 44.9633 163.657 44.5238 163.658Z" fill="#272421"/>
<path d="M91.1886 163.137L86.5957 157.55C86.4923 157.424 86.3642 157.32 86.2192 157.246C86.0743 157.171 85.9156 157.127 85.7529 157.116C85.5905 157.107 85.4278 157.13 85.2747 157.185C85.1215 157.241 84.9812 157.326 84.862 157.437L82.9163 159.261H78.859L77.0526 157.461C76.8294 157.239 76.527 157.114 76.2118 157.114H67.8945C67.7006 157.114 67.5097 157.162 67.3382 157.252C67.1667 157.343 67.0199 157.474 66.9104 157.634L66.002 158.965L64.9729 157.59C64.8619 157.442 64.718 157.322 64.5525 157.239C64.3871 157.156 64.2045 157.113 64.0195 157.113H58.3534C58.1624 157.113 57.974 157.158 57.8042 157.245C57.6344 157.333 57.4881 157.46 57.3776 157.616C57.2672 157.771 57.1958 157.952 57.1696 158.141C57.1434 158.33 57.163 158.523 57.2269 158.703C57.6047 159.763 57.7976 160.88 57.7973 162.005C57.802 163.524 57.448 165.023 56.7641 166.379C56.6726 166.56 56.6291 166.762 56.6378 166.965C56.6465 167.169 56.7071 167.366 56.8138 167.539C56.9205 167.712 57.0697 167.855 57.2473 167.954C57.4248 168.053 57.6248 168.105 57.8281 168.104H90.2649C90.5807 168.104 90.8837 167.979 91.107 167.756C91.3304 167.532 91.4559 167.229 91.4559 166.913V163.892C91.4566 163.617 91.3622 163.35 91.1886 163.137ZM89.078 165.725H59.6038C59.9899 164.523 60.1851 163.268 60.1823 162.006C60.1824 161.163 60.0953 160.321 59.9222 159.495H63.4235L65.0937 161.726C65.2099 161.875 65.3586 161.995 65.5285 162.077C65.6984 162.16 65.8849 162.202 66.0737 162.202C66.263 162.197 66.4486 162.148 66.6151 162.058C66.7816 161.967 66.9242 161.839 67.0312 161.683L68.5232 159.495H75.7203L77.5267 161.294C77.7499 161.517 78.0523 161.642 78.3674 161.642H83.3853C83.6896 161.643 83.9827 161.527 84.2045 161.319L85.5665 160.042L89.0811 164.319L89.078 165.725Z" fill="#272421"/>
<path d="M86.1618 150.771L81.3487 155.29H80.5019L78.3513 153.14H61.4996C59.965 150.806 57.8511 148.911 55.3646 147.639C52.8781 146.368 50.1042 145.763 47.314 145.884C44.5238 146.006 41.8129 146.849 39.4463 148.332C37.0798 149.816 35.1386 151.887 33.8127 154.345C32.4867 156.803 31.8214 159.563 31.8817 162.356C31.942 165.148 32.7259 167.877 34.1567 170.275C35.5876 172.674 37.6164 174.66 40.0447 176.039C42.4731 177.419 45.2179 178.144 48.0108 178.145C50.4363 178.16 52.8333 177.621 55.0189 176.569C57.2044 175.517 59.1208 173.98 60.6219 172.075H95.4243V162.039L86.1618 150.771ZM93.0465 169.693H59.432L59.0756 170.179C57.8073 171.921 56.1429 173.335 54.2198 174.306C52.2967 175.277 50.1702 175.777 48.0159 175.763C45.6093 175.764 43.2445 175.134 41.1576 173.935C39.0707 172.737 37.3347 171.012 36.1228 168.933C34.9109 166.853 34.2656 164.493 34.2513 162.086C34.237 159.679 34.8541 157.311 36.0411 155.218C37.2282 153.124 38.9435 151.379 41.016 150.155C43.0885 148.932 45.4456 148.274 47.852 148.246C50.2585 148.218 52.6301 148.822 54.7302 149.998C56.8302 151.173 58.5853 152.879 59.8201 154.944L60.1662 155.525H77.3601L79.5106 157.675H82.2827L85.9334 154.251L93.0434 162.9L93.0465 169.693Z" fill="url(#paint21_linear_861_37556)"/>
<path d="M48.0141 13.1836C45.6071 13.1836 43.2542 13.8973 41.2528 15.2345C39.2514 16.5716 37.6914 18.4722 36.7701 20.6959C35.8488 22.9196 35.6075 25.3666 36.0768 27.7274C36.5461 30.0882 37.7049 32.2568 39.4066 33.9591C41.1083 35.6614 43.2765 36.8209 45.6372 37.2909C47.9978 37.761 50.4449 37.5206 52.6689 36.6C54.8929 35.6795 56.794 34.1201 58.1318 32.1192C59.4697 30.1182 60.1842 27.7655 60.185 25.3585C60.182 22.1312 58.8989 19.0368 56.6172 16.7543C54.3354 14.4718 51.2415 13.1877 48.0141 13.1836ZM48.0141 35.1444C46.0779 35.1444 44.1851 34.5702 42.5751 33.4945C40.9652 32.4187 39.7104 30.8898 38.9694 29.1009C38.2284 27.312 38.0345 25.3436 38.4123 23.4445C38.79 21.5455 39.7224 19.8011 41.0916 18.4319C42.4607 17.0628 44.2051 16.1304 46.1042 15.7526C48.0033 15.3749 49.9717 15.5688 51.7606 16.3097C53.5494 17.0507 55.0784 18.3055 56.1541 19.9154C57.2299 21.5254 57.804 23.4182 57.804 25.3544C57.8024 27.9508 56.7706 30.4404 54.9351 32.2766C53.0996 34.1129 50.6104 35.1458 48.0141 35.1485V35.1444Z" fill="#272421"/>
<path d="M44.5238 21.3262C43.7247 21.3262 42.9436 21.5631 42.2792 22.0071C41.6148 22.451 41.097 23.082 40.7913 23.8203C40.4856 24.5585 40.4056 25.3709 40.5616 26.1546C40.7176 26.9383 41.1024 27.6581 41.6675 28.223C42.2326 28.788 42.9525 29.1727 43.7363 29.3284C44.52 29.4842 45.3323 29.404 46.0705 29.0981C46.8087 28.7922 47.4395 28.2742 47.8833 27.6098C48.3271 26.9453 48.5639 26.1641 48.5637 25.365C48.5623 24.2941 48.1362 23.2674 47.3788 22.5103C46.6215 21.7531 45.5947 21.3273 44.5238 21.3262ZM44.5238 27.023C44.1959 27.023 43.8753 26.9257 43.6027 26.7436C43.33 26.5614 43.1175 26.3024 42.992 25.9995C42.8665 25.6966 42.8337 25.3632 42.8977 25.0416C42.9617 24.72 43.1196 24.4246 43.3514 24.1927C43.5833 23.9608 43.8787 23.8029 44.2003 23.7389C44.5219 23.675 44.8553 23.7078 45.1582 23.8333C45.4612 23.9588 45.7201 24.1713 45.9023 24.4439C46.0845 24.7166 46.1817 25.0371 46.1817 25.365C46.1812 25.8046 46.0063 26.226 45.6955 26.5368C45.3847 26.8476 44.9633 27.0224 44.5238 27.023Z" fill="url(#paint22_linear_861_37556)"/>
<path d="M44.5238 21.3262C43.7247 21.3262 42.9436 21.5631 42.2792 22.0071C41.6148 22.451 41.097 23.082 40.7913 23.8203C40.4856 24.5585 40.4056 25.3709 40.5616 26.1546C40.7176 26.9383 41.1024 27.6581 41.6675 28.223C42.2326 28.788 42.9525 29.1727 43.7363 29.3284C44.52 29.4842 45.3323 29.404 46.0705 29.0981C46.8087 28.7922 47.4395 28.2742 47.8833 27.6098C48.3271 26.9453 48.5639 26.1641 48.5637 25.365C48.5623 24.2941 48.1362 23.2674 47.3788 22.5103C46.6215 21.7531 45.5947 21.3273 44.5238 21.3262ZM44.5238 27.023C44.1959 27.023 43.8753 26.9257 43.6027 26.7436C43.33 26.5614 43.1175 26.3024 42.992 25.9995C42.8665 25.6966 42.8337 25.3632 42.8977 25.0416C42.9617 24.72 43.1196 24.4246 43.3514 24.1927C43.5833 23.9608 43.8787 23.8029 44.2003 23.7389C44.5219 23.675 44.8553 23.7078 45.1582 23.8333C45.4612 23.9588 45.7201 24.1713 45.9023 24.4439C46.0845 24.7166 46.1817 25.0371 46.1817 25.365C46.1812 25.8046 46.0063 26.226 45.6955 26.5368C45.3847 26.8476 44.9633 27.0224 44.5238 27.023Z" fill="#272421"/>
<path d="M91.1886 26.4951L86.5957 20.9069C86.4923 20.781 86.3641 20.6776 86.2191 20.6033C86.0742 20.529 85.9155 20.4852 85.7529 20.4747C85.5905 20.4657 85.4279 20.4894 85.2749 20.5445C85.1218 20.5996 84.9814 20.6848 84.862 20.7952L82.9163 22.6191H78.859L77.0536 20.8198C76.8304 20.5972 76.528 20.4724 76.2128 20.4727H67.8945C67.7006 20.4727 67.5097 20.52 67.3382 20.6105C67.1667 20.701 67.0199 20.8319 66.9104 20.9918L66.002 22.3231L64.9729 20.954C64.8618 20.806 64.7179 20.6859 64.5524 20.6033C64.3869 20.5206 64.2044 20.4777 64.0195 20.4778H58.3534C58.1623 20.4771 57.9738 20.5224 57.8039 20.6098C57.6339 20.6973 57.4875 20.8244 57.3771 20.9804C57.2666 21.1363 57.1953 21.3166 57.1692 21.5059C57.143 21.6952 57.1628 21.8881 57.2269 22.0681C57.6046 23.1279 57.7975 24.2446 57.7973 25.3697C57.8021 26.8889 57.448 28.3878 56.7641 29.7444C56.6726 29.9259 56.6291 30.1279 56.6378 30.331C56.6465 30.5341 56.7071 30.7315 56.8138 30.9045C56.9205 31.0776 57.0697 31.2204 57.2473 31.3194C57.4248 31.4183 57.6248 31.4702 57.828 31.4699H90.2649C90.5807 31.4699 90.8837 31.3445 91.107 31.1211C91.3304 30.8978 91.4558 30.5948 91.4558 30.279V27.256C91.4579 26.979 91.3634 26.71 91.1886 26.4951ZM89.078 29.0829H59.6038C59.9899 27.8813 60.1851 26.6266 60.1823 25.3646C60.1824 24.5212 60.0953 23.68 59.9222 22.8546H63.4235L65.0937 25.085C65.2058 25.2383 65.3537 25.3619 65.5245 25.4451C65.6953 25.5283 65.8838 25.5685 66.0737 25.5622C66.263 25.5578 66.4486 25.5084 66.6151 25.4181C66.7816 25.3279 66.9242 25.1993 67.0312 25.043L68.5232 22.8556H75.7203L77.5267 24.6549C77.7499 24.8774 78.0523 25.0022 78.3674 25.002H83.3853C83.6896 25.0031 83.9827 24.8877 84.2045 24.6795L85.5665 23.4025L89.0811 27.6789V29.0839L89.078 29.0829Z" fill="#272421"/>
<path d="M226.985 100.656H202.553V103.037H225.794V143.306H228.176V101.846C228.176 101.531 228.05 101.228 227.827 101.005C227.604 100.782 227.301 100.656 226.985 100.656Z" fill="url(#paint23_linear_861_37556)"/>
<path d="M225.794 42.8535V83.1223H202.553V85.5042H226.985C227.301 85.5042 227.604 85.3787 227.827 85.1554C228.051 84.932 228.176 84.6291 228.176 84.3132V42.8535H225.794Z" fill="url(#paint24_linear_861_37556)"/>
<path d="M207.109 149.832C204.702 149.832 202.348 150.546 200.347 151.883C198.345 153.221 196.785 155.122 195.864 157.346C194.943 159.57 194.702 162.017 195.172 164.378C195.642 166.739 196.801 168.907 198.503 170.609C200.205 172.311 202.374 173.47 204.735 173.94C207.096 174.409 209.543 174.168 211.767 173.247C213.991 172.326 215.892 170.766 217.229 168.764C218.566 166.762 219.28 164.409 219.28 162.002C219.275 158.775 217.992 155.682 215.71 153.401C213.429 151.12 210.335 149.836 207.109 149.832ZM207.109 171.792C205.173 171.792 203.28 171.217 201.671 170.142C200.061 169.066 198.807 167.537 198.066 165.748C197.325 163.96 197.131 161.992 197.509 160.093C197.887 158.194 198.819 156.45 200.188 155.081C201.557 153.712 203.301 152.78 205.2 152.402C207.099 152.024 209.067 152.218 210.855 152.959C212.644 153.7 214.173 154.954 215.249 156.564C216.324 158.173 216.899 160.066 216.899 162.002C216.896 164.597 215.864 167.086 214.028 168.921C212.193 170.757 209.704 171.789 207.109 171.792Z" fill="#272421"/>
<path d="M203.614 157.961C202.815 157.961 202.034 158.198 201.369 158.641C200.705 159.085 200.187 159.716 199.881 160.454C199.575 161.193 199.495 162.005 199.651 162.789C199.807 163.572 200.191 164.292 200.757 164.857C201.322 165.422 202.041 165.807 202.825 165.963C203.609 166.119 204.421 166.039 205.16 165.733C205.898 165.427 206.529 164.909 206.973 164.245C207.416 163.58 207.653 162.799 207.653 162C207.652 160.929 207.226 159.903 206.469 159.145C205.711 158.388 204.685 157.962 203.614 157.961ZM203.614 163.658C203.286 163.658 202.965 163.561 202.693 163.379C202.42 163.197 202.207 162.938 202.081 162.635C201.956 162.331 201.923 161.998 201.987 161.676C202.051 161.354 202.209 161.059 202.441 160.827C202.673 160.595 202.969 160.437 203.291 160.374C203.612 160.31 203.946 160.343 204.249 160.469C204.552 160.594 204.811 160.807 204.993 161.08C205.175 161.353 205.271 161.674 205.271 162.002C205.27 162.441 205.095 162.862 204.785 163.172C204.474 163.482 204.053 163.657 203.614 163.658Z" fill="#272421"/>
<path d="M250.282 163.136L245.689 157.549C245.586 157.423 245.457 157.319 245.312 157.245C245.167 157.17 245.009 157.126 244.846 157.115C244.684 157.106 244.521 157.129 244.368 157.184C244.215 157.239 244.074 157.325 243.955 157.436L242.009 159.264H237.953L236.147 157.465C235.924 157.242 235.621 157.117 235.306 157.117H226.988C226.794 157.117 226.603 157.165 226.431 157.255C226.26 157.346 226.113 157.477 226.004 157.637L225.095 158.968L224.065 157.594C223.954 157.446 223.81 157.326 223.645 157.243C223.48 157.16 223.297 157.117 223.113 157.116H217.446C217.254 157.116 217.066 157.161 216.896 157.248C216.726 157.336 216.58 157.463 216.469 157.619C216.359 157.775 216.287 157.955 216.261 158.145C216.235 158.334 216.255 158.527 216.319 158.707C216.697 159.766 216.89 160.883 216.889 162.008C216.894 163.527 216.54 165.026 215.856 166.382C215.765 166.564 215.722 166.765 215.731 166.968C215.739 167.171 215.8 167.369 215.907 167.542C216.013 167.715 216.162 167.857 216.34 167.956C216.517 168.055 216.717 168.107 216.92 168.108H249.357C249.673 168.108 249.976 167.982 250.199 167.759C250.423 167.535 250.548 167.232 250.548 166.917V163.895C250.549 163.619 250.455 163.35 250.282 163.136ZM248.171 165.724H218.697C219.083 164.522 219.278 163.267 219.276 162.005C219.276 161.161 219.189 160.32 219.015 159.494H222.517L224.188 161.725C224.302 161.876 224.45 161.998 224.62 162.081C224.79 162.164 224.978 162.205 225.167 162.201C225.357 162.197 225.542 162.147 225.709 162.057C225.875 161.967 226.018 161.838 226.124 161.682L227.617 159.494H234.81L236.617 161.293C236.84 161.516 237.142 161.641 237.458 161.641H242.475C242.78 161.642 243.073 161.526 243.295 161.318L244.656 160.041L248.171 164.318V165.724Z" fill="#272421"/>
<path d="M207.109 13.1836C204.702 13.1836 202.349 13.8974 200.347 15.2348C198.346 16.5721 196.786 18.4729 195.864 20.6969C194.943 22.9208 194.702 25.3679 195.172 27.7289C195.641 30.0898 196.801 32.2584 198.503 33.9605C200.205 35.6627 202.374 36.8218 204.734 37.2914C207.095 37.761 209.543 37.52 211.766 36.5988C213.99 35.6777 215.891 34.1177 217.229 32.1162C218.566 30.1147 219.28 27.7616 219.28 25.3544C219.276 22.1278 217.992 19.0344 215.71 16.7528C213.429 14.4712 210.336 13.1877 207.109 13.1836ZM207.109 35.1444C205.173 35.1446 203.28 34.5706 201.67 33.495C200.06 32.4194 198.805 30.8905 198.063 29.1016C197.322 27.3127 197.128 25.3443 197.506 23.4451C197.884 21.546 198.816 19.8015 200.185 18.4323C201.554 17.063 203.298 16.1305 205.198 15.7527C207.097 15.3749 209.065 15.5687 210.854 16.3096C212.643 17.0506 214.172 18.3054 215.248 19.9153C216.324 21.5253 216.898 23.4181 216.898 25.3544C216.896 27.9506 215.864 30.44 214.029 32.2763C212.194 34.1125 209.705 35.1455 207.109 35.1485V35.1444Z" fill="#272421"/>
<path d="M203.614 21.3262C202.815 21.326 202.034 21.5628 201.369 22.0066C200.705 22.4504 200.187 23.0814 199.881 23.8196C199.575 24.5578 199.495 25.3702 199.651 26.1539C199.807 26.9377 200.191 27.6576 200.757 28.2227C201.322 28.7877 202.041 29.1725 202.825 29.3284C203.609 29.4842 204.421 29.4041 205.16 29.0982C205.898 28.7923 206.529 28.2744 206.973 27.6099C207.416 26.9453 207.653 26.1641 207.653 25.365C207.652 24.2943 207.226 23.2678 206.469 22.5106C205.711 21.7535 204.685 21.3275 203.614 21.3262ZM203.614 27.023C203.286 27.023 202.966 26.9257 202.693 26.7436C202.42 26.5614 202.208 26.3024 202.082 25.9995C201.957 25.6966 201.924 25.3632 201.988 25.0416C202.052 24.72 202.21 24.4246 202.442 24.1927C202.674 23.9608 202.969 23.8029 203.291 23.7389C203.612 23.675 203.946 23.7078 204.249 23.8333C204.552 23.9588 204.811 24.1713 204.993 24.4439C205.175 24.7166 205.272 25.0371 205.272 25.365C205.272 25.8046 205.097 26.226 204.786 26.5368C204.475 26.8476 204.054 27.0224 203.614 27.023Z" fill="#272421"/>
<path d="M250.282 26.4951L245.689 20.9069C245.585 20.781 245.457 20.6776 245.312 20.6033C245.167 20.529 245.009 20.4852 244.846 20.4747C244.684 20.4656 244.521 20.4893 244.368 20.5443C244.215 20.5994 244.075 20.6847 243.955 20.7952L242.009 22.6191H237.953L236.147 20.8198C235.924 20.5972 235.621 20.4724 235.306 20.4727H226.988C226.794 20.4727 226.603 20.52 226.431 20.6105C226.26 20.701 226.113 20.8319 226.004 20.9918L225.095 22.3231L224.065 20.954C223.954 20.8061 223.81 20.6862 223.645 20.6035C223.48 20.5209 223.297 20.4778 223.113 20.4778H217.446C217.254 20.4771 217.066 20.5224 216.896 20.6098C216.726 20.6973 216.58 20.8244 216.469 20.9804C216.359 21.1363 216.287 21.3166 216.261 21.5059C216.235 21.6952 216.255 21.8881 216.319 22.0681C216.697 23.1277 216.89 24.2446 216.889 25.3697C216.894 26.8889 216.54 28.3877 215.856 29.7444C215.765 29.926 215.722 30.1278 215.731 30.3308C215.739 30.5338 215.8 30.7311 215.907 30.9041C216.013 31.077 216.162 31.2198 216.34 31.3188C216.517 31.4179 216.717 31.4699 216.92 31.4699H249.357C249.673 31.4699 249.976 31.3445 250.199 31.1211C250.423 30.8978 250.548 30.5948 250.548 30.279V27.256C250.55 26.9792 250.456 26.7103 250.282 26.4951ZM248.171 29.0829H218.697C219.34 27.0688 219.449 24.9226 219.015 22.8536H222.517L224.188 25.084C224.301 25.2355 224.449 25.3578 224.62 25.4407C224.79 25.5237 224.978 25.5648 225.167 25.5607C225.356 25.5565 225.542 25.5074 225.708 25.4171C225.875 25.3269 226.018 25.1983 226.124 25.042L227.617 22.8546H234.81L236.617 24.6539C236.84 24.8764 237.142 25.0013 237.458 25.001H242.475C242.78 25.0021 243.073 24.8867 243.295 24.6784L244.656 23.4014L248.171 27.6779V29.0829Z" fill="#272421"/>
<path d="M245.256 14.1295L240.443 18.6487H239.596L237.446 16.4982H220.594C219.059 14.1651 216.945 12.2704 214.458 10.9992C211.971 9.72801 209.197 9.12388 206.407 9.24588C203.617 9.36788 200.906 10.2118 198.54 11.6952C196.174 13.1786 194.233 15.2507 192.908 17.7088C191.582 20.1669 190.917 22.9269 190.978 25.719C191.039 28.5111 191.823 31.2396 193.254 33.6378C194.685 36.0361 196.714 38.0219 199.142 39.4011C201.571 40.7804 204.315 41.5058 207.108 41.5065C209.534 41.5214 211.931 40.9818 214.116 39.929C216.301 38.8762 218.217 37.338 219.717 35.4319H254.521V25.3961L245.256 14.1295ZM252.14 33.0509H218.525L218.168 33.5374C216.9 35.2793 215.236 36.6944 213.312 37.6654C211.389 38.6365 209.262 39.1356 207.108 39.1215C204.701 39.1225 202.337 38.4922 200.25 37.2936C198.163 36.095 196.427 34.37 195.215 32.2908C194.003 30.2116 193.358 27.8508 193.343 25.4443C193.329 23.0377 193.946 20.6695 195.133 18.5759C196.32 16.4824 198.036 14.7369 200.108 13.5135C202.181 12.2902 204.538 11.6318 206.944 11.6041C209.351 11.5764 211.722 12.1804 213.822 13.3558C215.922 14.5312 217.677 16.2369 218.912 18.3025L219.258 18.8832H236.454L238.605 21.0337H241.377L245.028 17.6093L252.137 26.2574V33.055L252.14 33.0509Z" fill="#272421"/>
<path d="M86.1617 14.1295L81.3487 18.6487H80.5028L78.3523 16.4982H61.4995C59.9645 14.1652 57.8504 12.2706 55.3639 10.9994C52.8774 9.72818 50.1036 9.12398 47.3137 9.24584C44.5237 9.36771 41.8132 10.2115 39.447 11.6946C37.0808 13.1778 35.1399 15.2496 33.8142 17.7074C32.4885 20.1653 31.8233 22.9251 31.8836 25.7171C31.944 28.509 32.7278 31.2375 34.1584 33.6359C35.589 36.0342 37.6175 38.0202 40.0456 39.3998C42.4736 40.7794 45.2181 41.5053 48.0107 41.5065C50.4363 41.5221 52.8334 40.9832 55.019 39.9312C57.2047 38.8791 59.121 37.3415 60.6219 35.4359H95.4243V25.4002L86.1617 14.1295ZM93.0464 33.0509H59.4309L59.0735 33.5373C57.8057 35.2793 56.1413 36.6943 54.2181 37.6653C52.2949 38.6364 50.1682 39.1355 48.0138 39.1215C45.6071 39.1225 43.2424 38.4922 41.1555 37.2936C39.0686 36.095 37.3325 34.37 36.1207 32.2908C34.9088 30.2116 34.2635 27.8508 34.2492 25.4443C34.2349 23.0377 34.852 20.6695 36.039 18.5759C37.226 16.4824 38.9414 14.7369 41.0139 13.5135C43.0864 12.2901 45.4435 11.6318 47.8499 11.6041C50.2564 11.5764 52.628 12.1804 54.7281 13.3558C56.8281 14.5312 58.5832 16.2369 59.818 18.3025L60.1641 18.8832H77.36L79.5105 21.0337H82.2826L85.9334 17.6093L93.0423 26.2574V33.055L93.0464 33.0509Z" fill="#272421"/>
<path d="M245.255 150.771L240.442 155.291H239.595L237.445 153.14H220.593C219.059 150.806 216.945 148.91 214.459 147.637C211.972 146.365 209.198 145.759 206.407 145.88C203.616 146.002 200.905 146.845 198.538 148.328C196.171 149.811 194.229 151.883 192.903 154.342C191.577 156.8 190.912 159.561 190.973 162.354C191.033 165.146 191.818 167.875 193.249 170.274C194.681 172.672 196.71 174.658 199.139 176.037C201.569 177.416 204.314 178.141 207.107 178.141C209.533 178.157 211.93 177.618 214.115 176.566C216.301 175.514 218.217 173.976 219.718 172.071H254.521V162.035L245.255 150.771ZM252.139 169.693H218.524L218.167 170.179C216.899 171.921 215.235 173.336 213.312 174.307C211.389 175.278 209.262 175.777 207.107 175.763C204.701 175.764 202.336 175.134 200.249 173.936C198.162 172.737 196.426 171.012 195.214 168.933C194.002 166.854 193.357 164.493 193.343 162.086C193.328 159.68 193.946 157.311 195.133 155.218C196.32 153.124 198.035 151.379 200.107 150.155C202.18 148.932 204.537 148.274 206.944 148.246C209.35 148.218 211.722 148.822 213.822 149.998C215.922 151.173 217.677 152.879 218.912 154.944L219.258 155.525H236.454L238.604 157.676H241.376L245.027 154.251L252.136 162.9V169.697L252.139 169.693Z" fill="#272421"/>
<path d="M84.1029 24.7754H58.9941V27.1573H84.1029V24.7754Z" fill="#272421"/>
<path d="M243.196 24.7754H218.088V27.1573H243.196V24.7754Z" fill="#272421"/>
<path d="M243.196 160.811H218.088V163.192H243.196V160.811Z" fill="#272421"/>
<path d="M84.1029 160.811H58.9941V163.192H84.1029V160.811Z" fill="#272421"/>
<path d="M185.515 101.545L183.953 95.579C184.597 94.9923 185.049 94.2245 185.249 93.3765C185.448 92.5285 185.387 91.6399 185.072 90.8274C184.758 90.015 184.205 89.3167 183.486 88.8243C182.767 88.3319 181.916 88.0684 181.045 88.0684C180.174 88.0684 179.323 88.3319 178.604 88.8243C177.886 89.3167 177.333 90.015 177.018 90.8274C176.703 91.6399 176.642 92.5285 176.842 93.3765C177.041 94.2245 177.493 94.9923 178.137 95.579L176.575 101.545C176.529 101.721 176.524 101.906 176.56 102.084C176.596 102.263 176.673 102.43 176.784 102.575C176.896 102.719 177.038 102.835 177.202 102.916C177.365 102.996 177.545 103.037 177.727 103.037H184.363C184.545 103.037 184.725 102.996 184.888 102.916C185.052 102.835 185.195 102.719 185.306 102.575C185.417 102.43 185.494 102.263 185.53 102.084C185.567 101.906 185.561 101.721 185.515 101.545Z" fill="#443D2F"/>
<defs>
<linearGradient id="paint0_linear_861_37556" x1="260.195" y1="96.5413" x2="279.314" y2="105.119" gradientUnits="userSpaceOnUse">
<stop stop-color="#846E55"/>
<stop offset="1" stop-color="#B3A55C"/>
</linearGradient>
<linearGradient id="paint1_linear_861_37556" x1="31.8377" y1="50.8348" x2="36.0731" y2="51.9466" gradientUnits="userSpaceOnUse">
<stop stop-color="#846E55"/>
<stop offset="1" stop-color="#B3A55C"/>
</linearGradient>
<linearGradient id="paint2_linear_861_37556" x1="31.8377" y1="62.0516" x2="36.0731" y2="63.1634" gradientUnits="userSpaceOnUse">
<stop stop-color="#846E55"/>
<stop offset="1" stop-color="#B3A55C"/>
</linearGradient>
<linearGradient id="paint3_linear_861_37556" x1="36.5755" y1="57.2082" x2="41.4481" y2="60.9452" gradientUnits="userSpaceOnUse">
<stop stop-color="#846E55"/>
<stop offset="1" stop-color="#B3A55C"/>
</linearGradient>
<linearGradient id="paint4_linear_861_37556" x1="25.3582" y1="57.2082" x2="30.2308" y2="60.9452" gradientUnits="userSpaceOnUse">
<stop stop-color="#846E55"/>
<stop offset="1" stop-color="#B3A55C"/>
</linearGradient>
<linearGradient id="paint5_linear_861_37556" x1="248.135" y1="115.124" x2="252.37" y2="116.236" gradientUnits="userSpaceOnUse">
<stop stop-color="#846E55"/>
<stop offset="1" stop-color="#B3A55C"/>
</linearGradient>
<linearGradient id="paint6_linear_861_37556" x1="248.135" y1="126.343" x2="252.37" y2="127.455" gradientUnits="userSpaceOnUse">
<stop stop-color="#846E55"/>
<stop offset="1" stop-color="#B3A55C"/>
</linearGradient>
<linearGradient id="paint7_linear_861_37556" x1="252.873" y1="121.497" x2="257.745" y2="125.234" gradientUnits="userSpaceOnUse">
<stop stop-color="#846E55"/>
<stop offset="1" stop-color="#B3A55C"/>
</linearGradient>
<linearGradient id="paint8_linear_861_37556" x1="241.656" y1="121.497" x2="246.529" y2="125.234" gradientUnits="userSpaceOnUse">
<stop stop-color="#846E55"/>
<stop offset="1" stop-color="#B3A55C"/>
</linearGradient>
<linearGradient id="paint9_linear_861_37556" x1="124.16" y1="159.464" x2="128.394" y2="160.575" gradientUnits="userSpaceOnUse">
<stop stop-color="#846E55"/>
<stop offset="1" stop-color="#B3A55C"/>
</linearGradient>
<linearGradient id="paint10_linear_861_37556" x1="124.16" y1="170.679" x2="128.394" y2="171.789" gradientUnits="userSpaceOnUse">
<stop stop-color="#846E55"/>
<stop offset="1" stop-color="#B3A55C"/>
</linearGradient>
<linearGradient id="paint11_linear_861_37556" x1="128.898" y1="165.833" x2="133.769" y2="169.571" gradientUnits="userSpaceOnUse">
<stop stop-color="#846E55"/>
<stop offset="1" stop-color="#B3A55C"/>
</linearGradient>
<linearGradient id="paint12_linear_861_37556" x1="117.681" y1="165.833" x2="122.552" y2="169.571" gradientUnits="userSpaceOnUse">
<stop stop-color="#846E55"/>
<stop offset="1" stop-color="#B3A55C"/>
</linearGradient>
<linearGradient id="paint13_linear_861_37556" x1="21.262" y1="109.741" x2="46.5339" y2="121.08" gradientUnits="userSpaceOnUse">
<stop stop-color="#846E55"/>
<stop offset="1" stop-color="#B3A55C"/>
</linearGradient>
<linearGradient id="paint14_linear_861_37556" x1="117.611" y1="18.483" x2="125.222" y2="21.8982" gradientUnits="userSpaceOnUse">
<stop stop-color="#846E55"/>
<stop offset="1" stop-color="#B3A55C"/>
</linearGradient>
<linearGradient id="paint15_linear_861_37556" x1="96.3053" y1="51.4303" x2="229.383" y2="106.845" gradientUnits="userSpaceOnUse">
<stop stop-color="#846E55"/>
<stop offset="1" stop-color="#B3A55C"/>
</linearGradient>
<linearGradient id="paint16_linear_861_37556" x1="134.843" y1="80.1863" x2="149.601" y2="87.1422" gradientUnits="userSpaceOnUse">
<stop stop-color="#846E55"/>
<stop offset="1" stop-color="#B3A55C"/>
</linearGradient>
<linearGradient id="paint17_linear_861_37556" x1="134.805" y1="93.9134" x2="152.308" y2="103.533" gradientUnits="userSpaceOnUse">
<stop stop-color="#846E55"/>
<stop offset="1" stop-color="#B3A55C"/>
</linearGradient>
<linearGradient id="paint18_linear_861_37556" x1="101.625" y1="56.0901" x2="219.187" y2="105.031" gradientUnits="userSpaceOnUse">
<stop stop-color="#846E55"/>
<stop offset="1" stop-color="#B3A55C"/>
</linearGradient>
<linearGradient id="paint19_linear_861_37556" x1="58.6572" y1="102.67" x2="113.874" y2="121.51" gradientUnits="userSpaceOnUse">
<stop stop-color="#846E55"/>
<stop offset="1" stop-color="#B3A55C"/>
</linearGradient>
<linearGradient id="paint20_linear_861_37556" x1="58.6572" y1="44.8676" x2="113.874" y2="63.7074" gradientUnits="userSpaceOnUse">
<stop stop-color="#846E55"/>
<stop offset="1" stop-color="#B3A55C"/>
</linearGradient>
<linearGradient id="paint21_linear_861_37556" x1="30.9078" y1="147.393" x2="98.7489" y2="207.322" gradientUnits="userSpaceOnUse">
<stop stop-color="#846E55"/>
<stop offset="1" stop-color="#B3A55C"/>
</linearGradient>
<linearGradient id="paint22_linear_861_37556" x1="40.3605" y1="21.7077" x2="53.1439" y2="27.4433" gradientUnits="userSpaceOnUse">
<stop stop-color="#846E55"/>
<stop offset="1" stop-color="#B3A55C"/>
</linearGradient>
<linearGradient id="paint23_linear_861_37556" x1="202.162" y1="102.67" x2="247.563" y2="114.908" gradientUnits="userSpaceOnUse">
<stop stop-color="#846E55"/>
<stop offset="1" stop-color="#B3A55C"/>
</linearGradient>
<linearGradient id="paint24_linear_861_37556" x1="202.162" y1="44.8676" x2="247.563" y2="57.1053" gradientUnits="userSpaceOnUse">
<stop stop-color="#846E55"/>
<stop offset="1" stop-color="#B3A55C"/>
</linearGradient>
</defs>
</svg>
