<svg width="185" height="145" viewBox="0 0 185 145" fill="none" xmlns="http://www.w3.org/2000/svg">
<g opacity="0.272">
<path d="M41.7488 133.977C60.0371 133.977 74.8627 119.151 74.8627 100.863C74.8627 82.5746 60.0371 67.749 41.7488 67.749C23.4604 67.749 8.63477 82.5746 8.63477 100.863C8.63477 119.151 23.4604 133.977 41.7488 133.977Z" fill="url(#paint0_linear_591_6104)"/>
<path d="M50.8238 143.215C51.2597 143.568 51.7905 143.784 52.349 143.835C52.9076 143.886 53.4688 143.771 53.9618 143.503C54.4548 143.236 54.8573 142.828 55.1186 142.332C55.3798 141.835 55.488 141.273 55.4295 140.715C55.371 140.157 55.1484 139.629 54.7899 139.198C54.4313 138.766 53.9529 138.451 53.4152 138.291C52.8774 138.132 52.3044 138.136 51.7687 138.302C51.233 138.468 50.7585 138.789 50.4053 139.225C49.9319 139.809 49.71 140.558 49.7884 141.306C49.8669 142.055 50.2393 142.741 50.8238 143.215Z" fill="url(#paint1_linear_591_6104)"/>
<path d="M61.0183 137.225C61.3161 137.466 61.6787 137.613 62.0603 137.649C62.4419 137.684 62.8253 137.605 63.1621 137.422C63.4989 137.239 63.7738 136.96 63.9523 136.621C64.1307 136.282 64.2045 135.898 64.1645 135.517C64.1244 135.136 63.9723 134.775 63.7272 134.48C63.4822 134.186 63.1553 133.97 62.7879 133.861C62.4204 133.753 62.029 133.755 61.663 133.869C61.2971 133.982 60.973 134.202 60.7319 134.5C60.4085 134.899 60.257 135.411 60.3107 135.922C60.3644 136.433 60.6189 136.902 61.0183 137.225Z" fill="url(#paint2_linear_591_6104)"/>
<path d="M3.59752 91.6617C4.30905 91.6617 5.00459 91.4507 5.5962 91.0554C6.18781 90.6601 6.64892 90.0983 6.92121 89.4409C7.19349 88.7835 7.26474 88.0602 7.12592 87.3624C6.98711 86.6645 6.64448 86.0235 6.14136 85.5204C5.63824 85.0172 4.99722 84.6746 4.29937 84.5358C3.60152 84.397 2.87817 84.4682 2.22081 84.7405C1.56345 85.0128 1.00159 85.4739 0.606292 86.0655C0.210991 86.6571 0 87.3527 0 88.0642C0 89.0183 0.379023 89.9334 1.05369 90.608C1.72836 91.2827 2.6434 91.6617 3.59752 91.6617Z" fill="url(#paint3_linear_591_6104)"/>
</g>
<g opacity="0.272">
<path d="M170.191 33.9509C175.598 29.8768 176.679 22.1906 172.605 16.7833C168.531 11.376 160.845 10.2952 155.437 14.3693C150.03 18.4434 148.949 26.1296 153.023 31.5369C157.097 36.9442 164.784 38.025 170.191 33.9509Z" fill="url(#paint4_linear_591_6104)"/>
<path d="M169.566 38.7024C169.516 38.9039 169.407 39.086 169.253 39.2256C169.1 39.3652 168.908 39.4561 168.703 39.4868C168.497 39.5175 168.287 39.4865 168.099 39.3979C167.912 39.3093 167.754 39.167 167.647 38.989C167.54 38.811 167.489 38.6053 167.499 38.3978C167.509 38.1904 167.58 37.9906 167.703 37.8237C167.827 37.6567 167.997 37.5302 168.193 37.46C168.388 37.3899 168.6 37.3792 168.802 37.4295C169.072 37.4969 169.304 37.6689 169.447 37.9076C169.591 38.1463 169.634 38.4322 169.566 38.7024Z" fill="url(#paint5_linear_591_6104)"/>
<path d="M165.217 39.2008C165.183 39.3383 165.109 39.4625 165.004 39.5577C164.899 39.653 164.768 39.715 164.628 39.7359C164.488 39.7568 164.345 39.7357 164.217 39.6753C164.089 39.6149 163.981 39.5178 163.908 39.3964C163.835 39.2749 163.8 39.1346 163.807 38.9931C163.814 38.8516 163.862 38.7153 163.947 38.6014C164.031 38.4875 164.147 38.4012 164.28 38.3534C164.414 38.3055 164.558 38.2983 164.696 38.3325C164.88 38.3788 165.038 38.4962 165.136 38.6589C165.234 38.8217 165.263 39.0165 165.217 39.2008Z" fill="url(#paint6_linear_591_6104)"/>
<path d="M172.042 12.9406C171.832 13.0991 171.58 13.1916 171.317 13.2065C171.054 13.2214 170.792 13.158 170.566 13.0244C170.339 12.8907 170.157 12.6928 170.042 12.4557C169.928 12.2185 169.886 11.9527 169.923 11.692C169.96 11.4313 170.073 11.1873 170.248 10.9909C170.424 10.7944 170.653 10.6544 170.908 10.5885C171.163 10.5226 171.432 10.5338 171.68 10.6206C171.929 10.7074 172.146 10.866 172.305 11.0763C172.517 11.3583 172.609 11.7131 172.56 12.0628C172.51 12.4124 172.324 12.7282 172.042 12.9406Z" fill="url(#paint7_linear_591_6104)"/>
</g>
<path d="M100.988 129.143C136.65 129.143 165.559 100.233 165.559 64.5715C165.559 28.9097 136.65 0 100.988 0C65.3258 0 36.416 28.9097 36.416 64.5715C36.416 100.233 65.3258 129.143 100.988 129.143Z" fill="#F6F2ED"/>
<path d="M100.988 127.893C135.959 127.893 164.309 99.543 164.309 64.5715C164.309 29.6 135.959 1.25 100.988 1.25C66.0161 1.25 37.666 29.6 37.666 64.5715C37.666 99.543 66.0161 127.893 100.988 127.893Z" stroke="#272421" stroke-width="2"/>
<path d="M160.773 65.2074C160.785 73.1235 159.222 80.9628 156.175 88.2689C153.127 95.5749 148.657 102.201 143.023 107.763C137.523 113.24 130.994 117.577 123.811 120.522C116.629 123.468 108.935 124.964 101.173 124.925C89.3563 124.948 77.7986 121.466 67.9624 114.918C58.1261 108.37 50.4535 99.0511 45.9155 88.1408C41.3775 77.2306 40.1782 65.2194 42.4693 53.6273C44.7603 42.0352 50.4389 31.3833 58.7862 23.0197C67.1335 14.6561 77.7743 8.95681 89.362 6.64314C100.95 4.32947 112.963 5.5055 123.882 10.0222C134.801 14.5389 144.135 22.1934 150.702 32.0168C157.269 41.8402 160.775 53.391 160.774 65.2074H160.773Z" fill="url(#paint8_linear_591_6104)"/>
<path d="M101.205 119.91C131.556 119.91 156.161 95.3062 156.161 64.9552C156.161 34.6043 131.556 10 101.205 10C70.8544 10 46.25 34.6043 46.25 64.9552C46.25 95.3062 70.8544 119.91 101.205 119.91Z" fill="#F6F2ED"/>
<path d="M101.205 118.66C130.866 118.66 154.911 94.6158 154.911 64.9552C154.911 35.2947 130.866 11.25 101.205 11.25C71.5447 11.25 47.5 35.2947 47.5 64.9552C47.5 94.6158 71.5447 118.66 101.205 118.66Z" stroke="#272421" stroke-width="2"/>
<path d="M101.32 18.726C75.8839 18.726 55.2637 39.3461 55.2637 64.7824C55.2637 90.2187 75.8839 110.839 101.32 110.839C126.757 110.839 147.377 90.2187 147.377 64.7824C147.377 39.3461 126.757 18.726 101.32 18.726Z" stroke="url(#paint9_linear_591_6104)" stroke-width="1.5" stroke-dasharray="1.5 1.5"/>
<path d="M102.804 54.4915C102.804 52.8093 103.293 51.2394 104.134 49.9102H85.8098C85.3299 49.9103 84.8696 50.1011 84.5303 50.4404C84.1909 50.7798 84.0002 51.24 84 51.7199V56.5864C84.0003 56.8236 84.0473 57.0585 84.1385 57.2775C84.2296 57.4966 84.3631 57.6955 84.5312 57.8629C84.6993 58.0303 84.8987 58.163 85.1181 58.2532C85.3375 58.3435 85.5726 58.3896 85.8098 58.3889H87.29V61.7161H85.8098C85.3299 61.7163 84.8696 61.907 84.5303 62.2464C84.1909 62.5857 84.0002 63.046 84 63.5259V68.3843C84 68.8644 84.1907 69.3248 84.53 69.6643C84.8694 70.0038 85.3297 70.1947 85.8098 70.1948H86.959V73.514H85.8098C85.3299 73.5142 84.8696 73.7049 84.5303 74.0443C84.1909 74.3837 84.0002 74.8439 84 75.3238V80.1903C84.0002 80.6702 84.1909 81.1304 84.5303 81.4698C84.8696 81.8091 85.3299 81.9999 85.8098 82.0001H108.242C108.722 81.9997 109.182 81.8089 109.521 81.4695C109.86 81.1302 110.051 80.6701 110.052 80.1903V75.3238C110.051 74.8439 109.861 74.3837 109.521 74.0443C109.182 73.7049 108.722 73.5142 108.242 73.514H106.426V70.1948H108.241C108.721 70.1947 109.182 70.0038 109.521 69.6643C109.86 69.3248 110.051 68.8644 110.051 68.3843V63.5259C110.051 63.3378 110.021 63.1577 109.969 62.9929C105.906 62.2943 102.804 58.7491 102.804 54.4908L102.804 54.4915ZM95.1672 78.748C95.1678 78.7965 95.1587 78.8446 95.1404 78.8896C95.1221 78.9345 95.095 78.9753 95.0606 79.0097C95.0263 79.044 94.9855 79.0711 94.9406 79.0894C94.8956 79.1077 94.8475 79.1168 94.799 79.1162H87.1172C87.0197 79.116 86.9262 79.0771 86.8573 79.0081C86.7884 78.9391 86.7497 78.8455 86.7497 78.748V76.7581C86.7497 76.5554 86.9145 76.3898 87.1172 76.3898H94.7997C95.0104 76.3898 95.1679 76.5554 95.1679 76.7581V78.7487L95.1672 78.748ZM95.1672 66.9501C95.1678 66.9986 95.1587 67.0467 95.1404 67.0917C95.1221 67.1366 95.095 67.1774 95.0606 67.2117C95.0263 67.246 94.9855 67.2732 94.9406 67.2914C94.8956 67.3097 94.8475 67.3189 94.799 67.3183H87.1172C87.0197 67.3181 86.9262 67.2792 86.8573 67.2102C86.7884 67.1411 86.7497 67.0476 86.7497 66.9501V64.9602C86.7497 64.7574 86.9145 64.5919 87.1172 64.5919H94.7997C95.0104 64.5919 95.1679 64.7574 95.1679 64.9602V66.9508L95.1672 66.9501ZM95.1672 55.1448C95.1677 55.1933 95.1585 55.2414 95.1401 55.2862C95.1218 55.3311 95.0947 55.3718 95.0604 55.4061C95.0261 55.4403 94.9853 55.4673 94.9404 55.4856C94.8955 55.5038 94.8474 55.5129 94.799 55.5123H87.1172C87.0198 55.5122 86.9264 55.4734 86.8575 55.4045C86.7887 55.3356 86.7499 55.2423 86.7497 55.1448V53.1542C86.7497 52.9515 86.9145 52.7867 87.1172 52.7867H94.7997C95.0104 52.7867 95.1679 52.9515 95.1679 53.1549L95.1672 55.1448ZM100.484 79.2292C99.6734 79.2292 99.0121 78.5679 99.0121 77.7563C99.0121 76.9447 99.6734 76.2848 100.484 76.2848C101.303 76.2848 101.964 76.9462 101.964 77.757C101.964 78.5679 101.303 79.2292 100.484 79.2292ZM100.484 67.4313C100.093 67.4303 99.7177 67.2739 99.4415 66.9964C99.1654 66.7188 99.0108 66.343 99.0117 65.9515C99.0127 65.5599 99.1691 65.1849 99.4467 64.9087C99.7242 64.6325 100.1 64.4779 100.492 64.4789C100.883 64.4799 101.258 64.6363 101.534 64.9137C101.81 65.1912 101.965 65.567 101.964 65.9584C101.963 66.3498 101.806 66.7248 101.529 67.0009C101.251 67.277 100.876 67.4323 100.484 67.4313ZM100.484 55.6254C100.094 55.6248 99.7199 55.4695 99.4439 55.1935C99.168 54.9176 99.0127 54.5434 99.0121 54.1532C99.0121 53.3351 99.6734 52.6817 100.484 52.6817C100.875 52.6817 101.249 52.8368 101.525 53.1128C101.801 53.3888 101.956 53.7632 101.956 54.1535C101.956 54.5439 101.801 54.9183 101.525 55.1943C101.249 55.4703 100.875 55.6254 100.484 55.6254ZM107.303 77.757C107.303 78.1473 107.148 78.5214 106.872 78.7974C106.596 79.0733 106.222 79.2286 105.831 79.2292C105.012 79.2292 104.359 78.5679 104.359 77.7563C104.359 76.9447 105.012 76.2848 105.832 76.2848C106.642 76.2848 107.303 76.9462 107.303 77.757ZM105.831 67.4306C105.637 67.4307 105.445 67.3924 105.266 67.318C105.087 67.2436 104.924 67.1345 104.787 66.997C104.651 66.8595 104.542 66.6963 104.469 66.5168C104.395 66.3373 104.358 66.1451 104.359 65.9511C104.359 65.1403 105.012 64.4796 105.832 64.4796C106.223 64.4796 106.599 64.6351 106.876 64.9119C107.152 65.1887 107.308 65.5641 107.308 65.9555C107.308 66.3469 107.152 66.7223 106.876 66.999C106.599 67.2758 106.223 67.4313 105.832 67.4313L105.831 67.4306Z" fill="url(#paint10_linear_591_6104)"/>
<path d="M111.425 47C107.287 47 103.932 50.3549 103.932 54.4936C103.932 58.6324 107.287 61.9873 111.425 61.9873C115.564 61.9873 118.919 58.6317 118.919 54.4936C118.919 50.3556 115.564 47 111.425 47ZM111.425 59.8917C110.169 59.8905 108.965 59.3911 108.077 58.5031C107.188 57.6151 106.689 56.411 106.687 55.155C106.687 54.5753 106.791 54.0088 106.997 53.4699C107.023 53.4008 107.063 53.3376 107.114 53.2838C107.165 53.2301 107.225 53.1869 107.293 53.1566C107.36 53.1264 107.433 53.1097 107.507 53.1076C107.581 53.1055 107.655 53.118 107.724 53.1443C107.793 53.1707 107.856 53.2103 107.91 53.2611C107.963 53.3119 108.007 53.3727 108.037 53.4402C108.067 53.5077 108.084 53.5804 108.086 53.6543C108.088 53.7283 108.076 53.8019 108.049 53.8709C107.842 54.4178 107.77 55.0067 107.841 55.5873C107.911 56.1678 108.122 56.7226 108.453 57.204C108.785 57.6855 109.229 58.0792 109.747 58.3513C110.265 58.6235 110.84 58.766 111.425 58.7666C113.417 58.7658 115.036 57.1464 115.036 55.155C115.036 53.1636 113.417 51.5442 111.425 51.5442L111.396 51.5464L111.984 52.0349C112.099 52.1303 112.171 52.2676 112.185 52.4164C112.199 52.5653 112.153 52.7135 112.058 52.8286C112.011 52.8856 111.953 52.9327 111.887 52.9672C111.822 53.0018 111.75 53.0231 111.676 53.03C111.527 53.0439 111.379 52.998 111.264 52.9026L109.735 51.6302C109.724 51.6207 109.719 51.6069 109.708 51.5967C109.683 51.5712 109.661 51.5434 109.641 51.5135C109.618 51.4826 109.599 51.4493 109.583 51.4144C109.578 51.4005 109.567 51.391 109.562 51.3765C109.555 51.3575 109.559 51.3385 109.554 51.3196C109.538 51.2488 109.536 51.1755 109.548 51.1039C109.56 51.0323 109.586 50.9638 109.625 50.9025C109.635 50.8865 109.638 50.8675 109.65 50.8522L110.76 49.4179C110.805 49.3594 110.861 49.3104 110.925 49.2736C110.99 49.2369 111.06 49.2132 111.134 49.2038C111.207 49.1944 111.282 49.1996 111.353 49.219C111.424 49.2384 111.491 49.2717 111.55 49.3169C111.608 49.3622 111.657 49.4185 111.694 49.4827C111.731 49.5469 111.754 49.6177 111.764 49.691C111.773 49.7644 111.768 49.8389 111.749 49.9103C111.729 49.9816 111.696 50.0485 111.651 50.107L111.41 50.4176L111.425 50.4169C114.038 50.4169 116.163 52.5417 116.163 55.1543C116.163 57.7669 114.038 59.8917 111.425 59.8917Z" fill="url(#paint11_linear_591_6104)"/>
<defs>
<linearGradient id="paint0_linear_591_6104" x1="7.62365" y1="70.8764" x2="112.406" y2="117.89" gradientUnits="userSpaceOnUse">
<stop stop-color="#A58969"/>
<stop offset="1" stop-color="#C7B664"/>
</linearGradient>
<linearGradient id="paint1_linear_591_6104" x1="51.9536" y1="137.175" x2="56.3942" y2="145.953" gradientUnits="userSpaceOnUse">
<stop stop-color="#A58969"/>
<stop offset="1" stop-color="#C7B664"/>
</linearGradient>
<linearGradient id="paint2_linear_591_6104" x1="61.79" y1="133.099" x2="64.8235" y2="139.095" gradientUnits="userSpaceOnUse">
<stop stop-color="#A58969"/>
<stop offset="1" stop-color="#C7B664"/>
</linearGradient>
<linearGradient id="paint3_linear_591_6104" x1="-0.109848" y1="84.8064" x2="11.2738" y2="89.914" gradientUnits="userSpaceOnUse">
<stop stop-color="#A58969"/>
<stop offset="1" stop-color="#C7B664"/>
</linearGradient>
<linearGradient id="paint4_linear_591_6104" x1="146.044" y1="22.896" x2="187.498" y2="13.454" gradientUnits="userSpaceOnUse">
<stop stop-color="#A58969"/>
<stop offset="1" stop-color="#C7B664"/>
</linearGradient>
<linearGradient id="paint5_linear_591_6104" x1="169.732" y1="37.6285" x2="167.481" y2="40.4915" gradientUnits="userSpaceOnUse">
<stop stop-color="#A58969"/>
<stop offset="1" stop-color="#C7B664"/>
</linearGradient>
<linearGradient id="paint6_linear_591_6104" x1="165.33" y1="38.4683" x2="163.795" y2="40.4213" gradientUnits="userSpaceOnUse">
<stop stop-color="#A58969"/>
<stop offset="1" stop-color="#C7B664"/>
</linearGradient>
<linearGradient id="paint7_linear_591_6104" x1="169.42" y1="11.7401" x2="173.922" y2="10.7147" gradientUnits="userSpaceOnUse">
<stop stop-color="#A58969"/>
<stop offset="1" stop-color="#C7B664"/>
</linearGradient>
<linearGradient id="paint8_linear_591_6104" x1="39.5125" y1="11.1273" x2="228.482" y2="95.9132" gradientUnits="userSpaceOnUse">
<stop stop-color="#A58969"/>
<stop offset="1" stop-color="#C7B664"/>
</linearGradient>
<linearGradient id="paint9_linear_591_6104" x1="59.6135" y1="112.245" x2="125.002" y2="-33.4913" gradientUnits="userSpaceOnUse">
<stop stop-color="#A58969"/>
<stop offset="1" stop-color="#C7B664"/>
</linearGradient>
<linearGradient id="paint10_linear_591_6104" x1="83.6023" y1="51.4255" x2="127.317" y2="67.3487" gradientUnits="userSpaceOnUse">
<stop stop-color="#A58969"/>
<stop offset="1" stop-color="#C7B664"/>
</linearGradient>
<linearGradient id="paint11_linear_591_6104" x1="103.703" y1="47.7077" x2="127.415" y2="58.3468" gradientUnits="userSpaceOnUse">
<stop stop-color="#A58969"/>
<stop offset="1" stop-color="#C7B664"/>
</linearGradient>
</defs>
</svg>
