<svg width="185" height="145" viewBox="0 0 185 145" fill="none" xmlns="http://www.w3.org/2000/svg">
<g opacity="0.272">
<path d="M41.7488 133.977C60.0371 133.977 74.8627 119.151 74.8627 100.863C74.8627 82.5746 60.0371 67.749 41.7488 67.749C23.4604 67.749 8.63477 82.5746 8.63477 100.863C8.63477 119.151 23.4604 133.977 41.7488 133.977Z" fill="url(#paint0_linear_2226_19485)"/>
<path d="M50.8238 143.215C51.2597 143.568 51.7905 143.784 52.349 143.835C52.9076 143.886 53.4688 143.771 53.9618 143.503C54.4548 143.236 54.8573 142.828 55.1186 142.332C55.3798 141.835 55.488 141.273 55.4295 140.715C55.371 140.157 55.1484 139.629 54.7899 139.198C54.4313 138.766 53.9529 138.451 53.4152 138.292C52.8774 138.132 52.3044 138.136 51.7687 138.302C51.233 138.468 50.7585 138.789 50.4053 139.225C49.9319 139.81 49.71 140.558 49.7884 141.307C49.8669 142.055 50.2393 142.741 50.8238 143.215Z" fill="url(#paint1_linear_2226_19485)"/>
<path d="M61.0183 137.225C61.3161 137.466 61.6787 137.613 62.0603 137.649C62.4419 137.684 62.8253 137.605 63.1621 137.422C63.4989 137.239 63.7738 136.96 63.9523 136.621C64.1307 136.282 64.2045 135.898 64.1645 135.517C64.1244 135.136 63.9723 134.775 63.7272 134.48C63.4822 134.186 63.1553 133.97 62.7879 133.861C62.4204 133.753 62.029 133.755 61.663 133.869C61.2971 133.982 60.973 134.202 60.7319 134.5C60.4085 134.899 60.257 135.411 60.3107 135.922C60.3644 136.433 60.6189 136.902 61.0183 137.225Z" fill="url(#paint2_linear_2226_19485)"/>
<path d="M3.59752 91.6617C4.30905 91.6617 5.00459 91.4507 5.5962 91.0554C6.18781 90.6601 6.64892 90.0983 6.92121 89.4409C7.19349 88.7835 7.26474 88.0602 7.12592 87.3624C6.98711 86.6645 6.64448 86.0235 6.14136 85.5204C5.63824 85.0172 4.99722 84.6746 4.29937 84.5358C3.60152 84.397 2.87817 84.4682 2.22081 84.7405C1.56345 85.0128 1.00159 85.4739 0.606292 86.0655C0.210991 86.6571 0 87.3527 0 88.0642C0 89.0183 0.379023 89.9334 1.05369 90.608C1.72836 91.2827 2.6434 91.6617 3.59752 91.6617Z" fill="url(#paint3_linear_2226_19485)"/>
</g>
<g opacity="0.272">
<path d="M170.191 33.9499C175.598 29.8758 176.679 22.1896 172.605 16.7823C168.531 11.375 160.845 10.2942 155.437 14.3683C150.03 18.4424 148.949 26.1286 153.023 31.5359C157.097 36.9432 164.784 38.024 170.191 33.9499Z" fill="url(#paint4_linear_2226_19485)"/>
<path d="M169.566 38.7014C169.516 38.9029 169.407 39.085 169.253 39.2246C169.1 39.3642 168.908 39.4551 168.703 39.4858C168.497 39.5165 168.287 39.4856 168.099 39.397C167.912 39.3084 167.754 39.1661 167.647 38.988C167.54 38.81 167.489 38.6043 167.499 38.3969C167.509 38.1894 167.58 37.9896 167.703 37.8227C167.827 37.6558 167.997 37.5292 168.193 37.4591C168.388 37.3889 168.6 37.3783 168.802 37.4285C169.072 37.4959 169.304 37.6679 169.447 37.9066C169.591 38.1453 169.634 38.4312 169.566 38.7014Z" fill="url(#paint5_linear_2226_19485)"/>
<path d="M165.217 39.1998C165.183 39.3373 165.109 39.4615 165.004 39.5567C164.899 39.652 164.768 39.714 164.628 39.7349C164.488 39.7558 164.345 39.7348 164.217 39.6743C164.089 39.6139 163.981 39.5168 163.908 39.3954C163.835 39.2739 163.8 39.1336 163.807 38.9921C163.814 38.8506 163.862 38.7143 163.947 38.6004C164.031 38.4866 164.147 38.4002 164.28 38.3524C164.414 38.3045 164.558 38.2973 164.696 38.3316C164.88 38.3778 165.038 38.4952 165.136 38.6579C165.234 38.8207 165.263 39.0156 165.217 39.1998Z" fill="url(#paint6_linear_2226_19485)"/>
<path d="M172.042 12.9387C171.832 13.0971 171.58 13.1896 171.317 13.2046C171.054 13.2195 170.792 13.1561 170.566 13.0224C170.339 12.8888 170.157 12.6909 170.042 12.4537C169.928 12.2165 169.886 11.9508 169.923 11.6901C169.96 11.4293 170.073 11.1853 170.248 10.9889C170.424 10.7925 170.653 10.6525 170.908 10.5866C171.163 10.5207 171.432 10.5318 171.68 10.6186C171.929 10.7055 172.146 10.864 172.305 11.0743C172.517 11.3563 172.609 11.7112 172.56 12.0608C172.51 12.4104 172.324 12.7262 172.042 12.9387Z" fill="url(#paint7_linear_2226_19485)"/>
</g>
<path d="M100.988 129.143C136.65 129.143 165.559 100.233 165.559 64.5715C165.559 28.9097 136.65 0 100.988 0C65.3258 0 36.416 28.9097 36.416 64.5715C36.416 100.233 65.3258 129.143 100.988 129.143Z" fill="#F6F2ED"/>
<path d="M100.988 127.893C135.959 127.893 164.309 99.543 164.309 64.5715C164.309 29.6 135.959 1.25 100.988 1.25C66.0161 1.25 37.666 29.6 37.666 64.5715C37.666 99.543 66.0161 127.893 100.988 127.893Z" stroke="#272421" stroke-width="2"/>
<path d="M160.773 65.2074C160.785 73.1235 159.222 80.9628 156.175 88.2689C153.127 95.5749 148.657 102.201 143.023 107.763C137.523 113.24 130.994 117.577 123.811 120.522C116.629 123.468 108.935 124.964 101.173 124.925C89.3563 124.948 77.7986 121.466 67.9624 114.918C58.1261 108.37 50.4535 99.0511 45.9155 88.1408C41.3775 77.2306 40.1782 65.2194 42.4693 53.6273C44.7603 42.0352 50.4389 31.3833 58.7862 23.0197C67.1335 14.6561 77.7743 8.95681 89.362 6.64314C100.95 4.32947 112.963 5.5055 123.882 10.0222C134.801 14.5389 144.135 22.1934 150.702 32.0168C157.269 41.8402 160.775 53.391 160.774 65.2074H160.773Z" fill="url(#paint8_linear_2226_19485)"/>
<path d="M101.205 119.91C131.556 119.91 156.161 95.3062 156.161 64.9552C156.161 34.6043 131.556 10 101.205 10C70.8544 10 46.25 34.6043 46.25 64.9552C46.25 95.3062 70.8544 119.91 101.205 119.91Z" fill="#F6F2ED"/>
<path d="M101.205 118.66C130.866 118.66 154.911 94.6158 154.911 64.9552C154.911 35.2947 130.866 11.25 101.205 11.25C71.5447 11.25 47.5 35.2947 47.5 64.9552C47.5 94.6158 71.5447 118.66 101.205 118.66Z" stroke="#272421" stroke-width="2"/>
<path d="M101.32 18.726C75.8839 18.726 55.2637 39.3461 55.2637 64.7824C55.2637 90.2187 75.8839 110.839 101.32 110.839C126.757 110.839 147.377 90.2187 147.377 64.7824C147.377 39.3461 126.757 18.726 101.32 18.726Z" stroke="url(#paint9_linear_2226_19485)" stroke-width="1.5" stroke-dasharray="1.5 1.5"/>
<path d="M112.521 65.5924C112.791 65.5924 113.062 65.5779 113.331 65.5924C113.97 65.6325 114.461 65.9448 114.826 66.4584C115.073 66.8066 115.271 67.1973 115.561 67.5019C115.784 67.7262 116.063 67.8865 116.368 67.9661C116.749 68.0625 117.158 68.0386 117.555 68.0736C118.251 68.1342 118.801 68.4465 119.166 69.0497C119.416 69.4661 119.662 69.8841 119.889 70.3108C120.039 70.5791 120.124 70.8788 120.137 71.1858C120.151 71.4929 120.093 71.7989 119.967 72.0795C119.814 72.4455 119.641 72.8047 119.461 73.1597C119.358 73.3463 119.304 73.5559 119.303 73.7691C119.302 73.9823 119.355 74.1923 119.456 74.3798C119.627 74.7211 119.786 75.0726 119.943 75.4216C120.079 75.7041 120.145 76.0148 120.136 76.3279C120.127 76.641 120.043 76.9475 119.892 77.2219C119.667 77.6485 119.423 78.0674 119.174 78.4804C119.023 78.7481 118.809 78.9753 118.551 79.1425C118.293 79.3096 117.998 79.4118 117.692 79.4403C117.24 79.4897 116.775 79.4769 116.338 79.5845C116.033 79.6698 115.757 79.8364 115.539 80.0665C115.258 80.3609 115.06 80.7346 114.829 81.0759C114.48 81.5878 113.99 81.8993 113.379 81.9436C112.782 81.9886 112.183 81.9886 111.587 81.9436C110.977 81.8967 110.49 81.5793 110.142 81.0657C109.919 80.7363 109.732 80.3711 109.46 80.0904C109.232 79.8525 108.945 79.6786 108.629 79.5862C108.194 79.4744 107.727 79.4906 107.276 79.4394C106.64 79.3686 106.166 79.0418 105.825 78.5077C105.81 78.4829 105.793 78.4599 105.778 78.4352C104.703 76.5538 104.475 76.4804 105.533 74.3158C105.678 74.018 105.619 73.5718 105.533 73.2245C105.436 72.8329 105.192 72.4788 105.021 72.1017C104.891 71.8233 104.828 71.5183 104.838 71.2111C104.848 70.904 104.929 70.6034 105.077 70.3338C105.307 69.8944 105.561 69.4652 105.819 69.0403C106.176 68.4533 106.714 68.1436 107.392 68.077C107.788 68.0386 108.2 68.0668 108.578 67.9678C108.896 67.8791 109.189 67.7172 109.433 67.4951C109.659 67.292 109.81 66.9977 109.97 66.7272C110.465 65.9073 111.171 65.5028 112.137 65.5822C112.264 65.5924 112.393 65.5822 112.521 65.5822V65.5924ZM112.504 67.7792C112.053 67.6342 111.81 67.8765 111.583 68.2349C111.241 68.7715 110.9 69.2937 110.326 69.6546C109.643 70.0872 108.902 70.1785 108.13 70.2118C107.448 70.2416 106.951 71.0735 107.247 71.6938C107.578 72.3841 107.909 73.059 107.888 73.8713C107.869 74.6238 107.527 75.2364 107.235 75.8738C106.979 76.4301 107.432 77.2287 108.027 77.3243C108.679 77.4275 109.341 77.5205 109.965 77.7219C110.803 77.9932 111.222 78.7457 111.678 79.4343C112.019 79.9462 112.958 79.9326 113.316 79.4283C113.713 78.8635 114.054 78.2705 114.681 77.8772C115.373 77.4429 116.118 77.3925 116.881 77.3234C117.583 77.2594 118.019 76.4651 117.727 75.8286C117.434 75.1921 117.102 74.5769 117.097 73.8175C117.091 73.0496 117.393 72.414 117.705 71.7612C117.789 71.5991 117.829 71.4182 117.823 71.236C117.816 71.0538 117.763 70.8762 117.668 70.7205C117.573 70.5647 117.44 70.4359 117.281 70.3464C117.122 70.2568 116.943 70.2096 116.761 70.2092C115.983 70.1819 115.201 70.1094 114.596 69.5804C114.149 69.1736 113.748 68.718 113.402 68.2221C113.162 67.8919 112.943 67.653 112.504 67.7792Z" fill="url(#paint10_linear_2226_19485)"/>
<path d="M90.6527 82.0001C90.2994 81.9753 89.9428 81.9711 89.593 81.9148C89.3391 81.876 89.0961 81.7845 88.8796 81.6463C88.6632 81.508 88.4781 81.326 88.3362 81.1119C88.1715 80.8798 87.9829 80.6588 87.8575 80.4063C87.5222 79.7348 86.9676 79.5078 86.2552 79.5053C85.8713 79.5111 85.4884 79.4667 85.1161 79.373C83.9574 79.0522 82.7407 76.8893 83.082 75.74C83.2219 75.2673 83.466 74.8245 83.6835 74.3748C83.7836 74.1867 83.8355 73.9767 83.8346 73.7637C83.8337 73.5506 83.78 73.3411 83.6784 73.1539C83.5078 72.8126 83.3465 72.4627 83.1904 72.1129C83.0555 71.8289 82.9906 71.5167 83.0011 71.2024C83.0116 70.8882 83.0973 70.581 83.251 70.3066C83.4779 69.88 83.7219 69.4628 83.9719 69.0498C84.3371 68.4466 84.8866 68.1335 85.5828 68.072C85.9787 68.0371 86.3891 68.061 86.7688 67.9645C87.0749 67.8859 87.3542 67.7265 87.5777 67.5029C87.8678 67.1983 88.064 66.805 88.3123 66.4586C88.7201 65.8921 89.267 65.5806 89.9769 65.5832C90.418 65.5832 90.8592 65.5832 91.2994 65.5832C92.0272 65.5781 92.5835 65.8955 92.9965 66.4799C93.2345 66.8161 93.4231 67.1992 93.7072 67.4884C93.9425 67.7179 94.2332 67.8825 94.5511 67.9662C94.9299 68.0644 95.3411 68.0362 95.737 68.0746C96.4154 68.1412 96.9546 68.4492 97.3121 69.037C97.5681 69.4637 97.824 69.8903 98.0544 70.3305C98.2014 70.6003 98.283 70.9008 98.2926 71.2079C98.3022 71.5149 98.2396 71.82 98.1099 72.0984C97.9392 72.4892 97.6943 72.8552 97.5843 73.2605C97.4981 73.5943 97.4981 73.9446 97.5843 74.2784C97.6943 74.6837 97.9367 75.0514 98.1082 75.4413C98.2386 75.7198 98.3016 76.025 98.2919 76.3323C98.2823 76.6397 98.2003 76.9404 98.0527 77.2101C97.8223 77.6503 97.5706 78.0795 97.3112 78.5036C97.1613 78.7645 96.9511 78.9857 96.6982 79.1487C96.4452 79.3117 96.1569 79.4117 95.8573 79.4404C95.406 79.4933 94.9384 79.4745 94.5041 79.5863C94.2004 79.664 93.9069 79.8738 93.6714 80.0906C93.4572 80.2877 93.3105 80.565 93.1595 80.8218C92.6714 81.6528 91.947 82.0274 90.9923 81.9745C90.8788 81.9685 90.7645 81.9745 90.651 81.9745L90.6527 82.0001ZM90.6271 79.757C91.0929 79.8926 91.3532 79.6597 91.5827 79.2783C91.918 78.7203 92.2951 78.2075 92.8881 77.8509C93.5195 77.472 94.1842 77.3969 94.883 77.3389C95.7985 77.2664 96.2089 76.5215 95.8215 75.6973C95.5442 75.1077 95.2729 74.5352 95.2533 73.8458C95.2311 73.0438 95.5655 72.3877 95.8864 71.7128C96.1952 71.06 95.7106 70.2478 94.9871 70.2128C94.2635 70.1778 93.5647 70.0967 92.9043 69.7102C92.2439 69.3237 91.8924 68.7316 91.4914 68.1497C91.0904 67.5678 90.2047 67.5814 89.8071 68.1497C89.4351 68.6804 89.1246 69.2478 88.5435 69.6232C87.8515 70.0712 87.1041 70.1872 86.3149 70.2205C85.5913 70.2478 85.1076 71.0643 85.4105 71.7153C85.7134 72.3663 86.0384 72.9952 86.0461 73.7631C86.0547 74.5975 85.6664 75.263 85.3524 75.9712C85.1536 76.4208 85.6315 77.251 86.1203 77.3167C86.8447 77.4123 87.5785 77.3756 88.2654 77.7655C88.9326 78.1444 89.3694 78.693 89.7423 79.3167C89.9488 79.6674 90.1928 79.8798 90.6262 79.7544L90.6271 79.757Z" fill="url(#paint11_linear_2226_19485)"/>
<path d="M101.869 47.0094C105.067 47.1553 107.934 49.3983 108.616 53.0192H110.088C112.208 53.0193 113.585 54.394 113.592 56.5113C113.596 58.7445 113.596 60.9784 113.592 63.2115C113.591 63.8809 113.305 64.3004 112.763 64.4498C112.054 64.6452 111.398 64.1037 111.398 63.2906V56.2926C111.385 55.6953 110.997 55.2452 110.409 55.2076C109.821 55.1701 109.211 55.1998 108.622 55.1998C107.92 58.9913 104.773 61.2006 101.59 61.2125C98.4891 61.2243 95.2387 59.0905 94.5135 55.2008C93.9247 55.2008 93.3273 55.1686 92.7351 55.2096C92.1141 55.2523 91.7487 55.7109 91.7478 56.3815C91.7439 58.5997 91.7439 60.8185 91.7478 63.0367C91.7529 63.1787 91.7502 63.3208 91.74 63.4625C91.6743 64.0658 91.2035 64.4931 90.6267 64.4821C90.0663 64.4708 89.6211 64.0481 89.5555 63.4586C89.55 63.4019 89.5482 63.3447 89.5496 63.2877C89.5496 60.9551 89.5308 58.6225 89.5564 56.2916C89.5761 54.4435 90.948 53.0828 92.7986 53.0231C93.3651 53.0043 93.9334 53.0231 94.534 53.0231C94.9299 50.9353 95.9637 49.2815 97.74 48.1305C98.9615 47.3262 100.408 46.9334 101.869 47.0094Z" fill="url(#paint12_linear_2226_19485)"/>
<path d="M103.052 54.1108C103.479 54.511 103.855 54.8522 104.213 55.2149C104.697 55.7055 104.71 56.3676 104.267 56.8087C103.823 57.2498 103.172 57.2464 102.675 56.7515C102.314 56.394 101.978 56.0118 101.573 55.5792C101.169 56.0058 100.839 56.3787 100.489 56.7276C99.9689 57.2473 99.3299 57.2694 98.8683 56.8027C98.4178 56.3497 98.4502 55.6884 98.9621 55.1816C99.312 54.8326 99.6805 54.499 100.088 54.1176C99.6609 53.7098 99.2838 53.3659 98.9254 53.0033C98.4451 52.517 98.4306 51.8489 98.8734 51.4078C99.3162 50.9667 99.9706 50.9761 100.464 51.4667C100.825 51.8242 101.163 52.2047 101.573 52.6347C101.971 52.2081 102.303 51.8446 102.652 51.4948C103.164 50.9829 103.815 50.9513 104.273 51.4095C104.732 51.8677 104.7 52.5264 104.188 53.0357C103.833 53.3847 103.466 53.7183 103.052 54.1108Z" fill="#F6F2ED"/>
<path d="M115.76 73.7671C115.763 74.1979 115.681 74.625 115.518 75.0237C115.354 75.4223 115.113 75.7845 114.809 76.0891C114.504 76.3937 114.142 76.6346 113.743 76.7979C113.345 76.9612 112.918 77.0435 112.487 77.0401C112.06 77.0425 111.636 76.9604 111.241 76.7985C110.845 76.6366 110.486 76.3981 110.183 76.0968C109.88 75.7955 109.639 75.4373 109.475 75.0428C109.311 74.6482 109.227 74.2251 109.227 73.7979C109.222 73.367 109.302 72.9395 109.463 72.5398C109.624 72.1402 109.862 71.7763 110.165 71.4692C110.467 71.162 110.827 70.9177 111.224 70.7502C111.621 70.5827 112.047 70.4954 112.478 70.4933C112.908 70.4914 113.335 70.5747 113.734 70.7385C114.132 70.9022 114.495 71.1431 114.8 71.4474C115.105 71.7517 115.347 72.1133 115.512 72.5114C115.676 72.9095 115.761 73.3363 115.76 73.7671ZM112.5 72.6818C112.213 72.6832 111.938 72.7956 111.732 72.9954C111.527 73.1952 111.406 73.4669 111.397 73.7535C111.397 74.0477 111.513 74.3298 111.721 74.5378C111.929 74.7458 112.212 74.8627 112.506 74.8627C112.793 74.8559 113.066 74.738 113.268 74.5338C113.47 74.3296 113.585 74.0551 113.588 73.768C113.583 73.4813 113.466 73.2081 113.263 73.0056C113.06 72.8031 112.786 72.6871 112.5 72.6818Z" fill="url(#paint13_linear_2226_19485)"/>
<path d="M93.9118 73.7867C93.9127 74.2175 93.8278 74.6442 93.6621 75.0418C93.4965 75.4395 93.2533 75.8002 92.9469 76.103C92.6405 76.4058 92.2769 76.6446 91.8773 76.8054C91.4776 76.9663 91.05 77.0461 90.6193 77.0401C90.1919 77.0394 89.7688 76.9544 89.3744 76.7899C88.9799 76.6254 88.6218 76.3846 88.3206 76.0814C88.0194 75.7782 87.781 75.4186 87.619 75.023C87.4571 74.6275 87.3749 74.2039 87.377 73.7765C87.3746 73.3453 87.4577 72.918 87.6214 72.5191C87.785 72.1202 88.0261 71.7576 88.3306 71.4524C88.6352 71.1471 88.9971 70.9052 89.3957 70.7406C89.7942 70.576 90.2214 70.4919 90.6525 70.4933C91.0831 70.4943 91.5093 70.5804 91.9065 70.7467C92.3038 70.913 92.6642 71.1562 92.9671 71.4622C93.27 71.7683 93.5094 72.1312 93.6715 72.5302C93.8337 72.9291 93.9153 73.3561 93.9118 73.7867ZM90.6594 72.6776C90.3723 72.6758 90.0958 72.7861 89.8887 72.9849C89.6816 73.1837 89.5602 73.4555 89.5502 73.7424C89.5485 73.8885 89.5757 74.0336 89.6303 74.1692C89.6848 74.3048 89.7656 74.4283 89.8681 74.5326C89.9705 74.6368 90.0926 74.7198 90.2272 74.7768C90.3618 74.8337 90.5064 74.8635 90.6525 74.8644C90.9393 74.8576 91.2125 74.7407 91.4152 74.5377C91.618 74.3348 91.7347 74.0616 91.7412 73.7748C91.7371 73.4881 91.6222 73.2141 91.4205 73.0104C91.2188 72.8066 90.946 72.6889 90.6594 72.6818V72.6776Z" fill="url(#paint14_linear_2226_19485)"/>
<defs>
<linearGradient id="paint0_linear_2226_19485" x1="7.62365" y1="70.8764" x2="112.406" y2="117.89" gradientUnits="userSpaceOnUse">
<stop stop-color="#846E55"/>
<stop offset="1" stop-color="#B3A55C"/>
</linearGradient>
<linearGradient id="paint1_linear_2226_19485" x1="51.9536" y1="137.175" x2="56.3942" y2="145.953" gradientUnits="userSpaceOnUse">
<stop stop-color="#846E55"/>
<stop offset="1" stop-color="#B3A55C"/>
</linearGradient>
<linearGradient id="paint2_linear_2226_19485" x1="61.79" y1="133.099" x2="64.8235" y2="139.095" gradientUnits="userSpaceOnUse">
<stop stop-color="#846E55"/>
<stop offset="1" stop-color="#B3A55C"/>
</linearGradient>
<linearGradient id="paint3_linear_2226_19485" x1="-0.109848" y1="84.8064" x2="11.2738" y2="89.914" gradientUnits="userSpaceOnUse">
<stop stop-color="#846E55"/>
<stop offset="1" stop-color="#B3A55C"/>
</linearGradient>
<linearGradient id="paint4_linear_2226_19485" x1="146.044" y1="22.895" x2="187.498" y2="13.453" gradientUnits="userSpaceOnUse">
<stop stop-color="#846E55"/>
<stop offset="1" stop-color="#B3A55C"/>
</linearGradient>
<linearGradient id="paint5_linear_2226_19485" x1="169.732" y1="37.6275" x2="167.481" y2="40.4905" gradientUnits="userSpaceOnUse">
<stop stop-color="#846E55"/>
<stop offset="1" stop-color="#B3A55C"/>
</linearGradient>
<linearGradient id="paint6_linear_2226_19485" x1="165.33" y1="38.4673" x2="163.795" y2="40.4203" gradientUnits="userSpaceOnUse">
<stop stop-color="#846E55"/>
<stop offset="1" stop-color="#B3A55C"/>
</linearGradient>
<linearGradient id="paint7_linear_2226_19485" x1="169.42" y1="11.7382" x2="173.922" y2="10.7128" gradientUnits="userSpaceOnUse">
<stop stop-color="#846E55"/>
<stop offset="1" stop-color="#B3A55C"/>
</linearGradient>
<linearGradient id="paint8_linear_2226_19485" x1="39.5125" y1="11.1273" x2="228.482" y2="95.9132" gradientUnits="userSpaceOnUse">
<stop stop-color="#846E55"/>
<stop offset="1" stop-color="#B3A55C"/>
</linearGradient>
<linearGradient id="paint9_linear_2226_19485" x1="59.6135" y1="112.245" x2="125.002" y2="-33.4913" gradientUnits="userSpaceOnUse">
<stop stop-color="#846E55"/>
<stop offset="1" stop-color="#B3A55C"/>
</linearGradient>
<linearGradient id="paint10_linear_2226_19485" x1="104.603" y1="66.3471" x2="129.353" y2="76.7051" gradientUnits="userSpaceOnUse">
<stop stop-color="#846E55"/>
<stop offset="1" stop-color="#B3A55C"/>
</linearGradient>
<linearGradient id="paint11_linear_2226_19485" x1="82.7665" y1="66.3584" x2="107.511" y2="76.701" gradientUnits="userSpaceOnUse">
<stop stop-color="#846E55"/>
<stop offset="1" stop-color="#B3A55C"/>
</linearGradient>
<linearGradient id="paint12_linear_2226_19485" x1="89.1758" y1="47.826" x2="122.285" y2="68.2547" gradientUnits="userSpaceOnUse">
<stop stop-color="#846E55"/>
<stop offset="1" stop-color="#B3A55C"/>
</linearGradient>
<linearGradient id="paint13_linear_2226_19485" x1="109.127" y1="70.8024" x2="119.471" y2="75.434" gradientUnits="userSpaceOnUse">
<stop stop-color="#846E55"/>
<stop offset="1" stop-color="#B3A55C"/>
</linearGradient>
<linearGradient id="paint14_linear_2226_19485" x1="87.2772" y1="70.8025" x2="97.6229" y2="75.4358" gradientUnits="userSpaceOnUse">
<stop stop-color="#846E55"/>
<stop offset="1" stop-color="#B3A55C"/>
</linearGradient>
</defs>
</svg>
