<svg width="104" height="117" viewBox="0 0 104 117" fill="none" xmlns="http://www.w3.org/2000/svg">
<path opacity="0.4" d="M100.701 20.9625C100.566 20.9288 100.448 20.8449 100.373 20.7278C100.297 20.6108 100.269 20.4694 100.295 20.3325C100.32 20.1955 100.397 20.0734 100.509 19.991C100.622 19.9085 100.761 19.872 100.9 19.8888C101.038 19.9055 101.165 19.9744 101.255 20.0813C101.344 20.1882 101.389 20.3251 101.381 20.4641C101.373 20.6031 101.312 20.7337 101.21 20.8293C101.109 20.9249 100.975 20.9784 100.835 20.9787C100.79 20.9788 100.745 20.9734 100.701 20.9625ZM102.392 18.9636C102.392 18.8048 102.439 18.6496 102.527 18.5176C102.615 18.3856 102.741 18.2827 102.888 18.2219C103.035 18.1612 103.197 18.1453 103.353 18.1762C103.509 18.2072 103.652 18.2837 103.765 18.3959C103.877 18.5082 103.954 18.6513 103.985 18.807C104.016 18.9627 104 19.1241 103.939 19.2708C103.878 19.4175 103.775 19.5429 103.643 19.6311C103.511 19.7193 103.355 19.7664 103.196 19.7664C103.09 19.7664 102.986 19.7456 102.888 19.7053C102.791 19.6649 102.702 19.6058 102.627 19.5313C102.476 19.3807 102.392 19.1765 102.392 18.9636ZM100.048 1.01662C100.048 0.815366 100.108 0.618683 100.22 0.451449C100.332 0.284214 100.492 0.153938 100.678 0.077094C100.865 0.000250433 101.07 -0.019709 101.267 0.0197396C101.465 0.0591883 101.647 0.156273 101.789 0.298717C101.932 0.441162 102.029 0.622567 102.068 0.819995C102.107 1.01742 102.087 1.222 102.009 1.40787C101.932 1.59374 101.801 1.75254 101.633 1.86419C101.466 1.97585 101.268 2.03534 101.067 2.03516C100.933 2.03516 100.8 2.0088 100.676 1.95759C100.553 1.90638 100.44 1.83132 100.346 1.73672C100.251 1.64211 100.176 1.52982 100.125 1.40625C100.074 1.28269 100.048 1.15029 100.048 1.01662Z" fill="url(#paint0_linear_516_8950)"/>
<path opacity="0.4" d="M94.6137 19.7656C99.7964 19.7656 103.998 15.5731 103.998 10.4013C103.998 5.22945 99.7964 1.03687 94.6137 1.03687C89.4309 1.03687 85.2295 5.22945 85.2295 10.4013C85.2295 15.5731 89.4309 19.7656 94.6137 19.7656Z" fill="url(#paint1_linear_516_8950)"/>
<path opacity="0.4" d="M25.3612 111.317C39.3678 111.317 50.7224 99.9862 50.7224 86.0091C50.7224 72.0321 39.3678 60.7014 25.3612 60.7014C11.3546 60.7014 0 72.0321 0 86.0091C0 99.9862 11.3546 111.317 25.3612 111.317Z" fill="url(#paint2_linear_516_8950)"/>
<path opacity="0.4" d="M18.3522 114.832C18.3522 114.404 18.4797 113.984 18.7184 113.628C18.9571 113.271 19.2964 112.994 19.6933 112.83C20.0903 112.665 20.5271 112.623 20.9485 112.706C21.3699 112.79 21.757 112.996 22.0608 113.299C22.3646 113.603 22.5715 113.989 22.6553 114.409C22.7392 114.83 22.6961 115.266 22.5317 115.662C22.3673 116.058 22.0889 116.397 21.7316 116.635C21.3743 116.873 20.9543 117 20.5247 117C19.9485 117 19.3959 116.772 18.9885 116.365C18.5811 115.959 18.3522 115.407 18.3522 114.832ZM25.9505 114.936C25.9505 114.644 26.0375 114.357 26.2006 114.114C26.3636 113.87 26.5954 113.68 26.8666 113.568C27.1377 113.456 27.4361 113.427 27.7239 113.484C28.0118 113.542 28.2761 113.683 28.4836 113.89C28.691 114.097 28.8323 114.361 28.8894 114.648C28.9466 114.935 28.917 115.233 28.8046 115.504C28.6922 115.774 28.5018 116.005 28.2577 116.168C28.0136 116.33 27.7267 116.417 27.4332 116.417C27.0399 116.417 26.6627 116.261 26.3847 115.983C26.1066 115.705 25.9505 115.329 25.9505 114.936ZM6.03516 61.3121C6.03516 60.7682 6.19679 60.2365 6.49962 59.7843C6.80244 59.332 7.23286 58.9795 7.73645 58.7714C8.24003 58.5632 8.79416 58.5087 9.32876 58.6149C9.86336 58.721 10.3544 58.9829 10.7398 59.3675C11.1253 59.7521 11.3878 60.2421 11.4941 60.7756C11.6004 61.3091 11.5459 61.8621 11.3373 62.3646C11.1287 62.8671 10.7754 63.2966 10.3222 63.5988C9.86901 63.901 9.33617 64.0623 8.7911 64.0623C8.06018 64.0623 7.35919 63.7725 6.84235 63.2568C6.32551 62.741 6.03516 62.0415 6.03516 61.3121Z" fill="url(#paint3_linear_516_8950)"/>
<path d="M30.4658 10.4996L30.4658 99.6741C30.4658 102.31 32.6072 104.447 35.2488 104.447H88.0996C90.7411 104.447 92.8825 102.31 92.8825 99.6741V10.4996C92.8825 7.86359 90.7411 5.72669 88.0996 5.72669H35.2488C32.6072 5.72669 30.4658 7.86359 30.4658 10.4996Z" fill="#F6F2ED"/>
<path d="M31.1836 10.4997L31.1836 99.6743C31.1836 101.915 33.0038 103.731 35.2491 103.731H88.0999C90.3452 103.731 92.1654 101.915 92.1654 99.6743V10.4997C92.1654 8.25909 90.3452 6.44273 88.0999 6.44273H35.2491C33.0038 6.44273 31.1836 8.25909 31.1836 10.4997Z" stroke="#272421" stroke-width="1.5"/>
<path d="M36.7109 15.7713L36.7109 94.3215C36.7109 96.5621 38.5311 98.3784 40.7765 98.3784H83.1038C85.3491 98.3784 87.1693 96.5621 87.1693 94.3215V15.7713C87.1693 13.5307 85.3491 11.7144 83.1038 11.7144H40.7765C38.5311 11.7144 36.7109 13.5307 36.7109 15.7713Z" stroke="#272421" stroke-width="1.5" stroke-dasharray="1.5 2"/>
<path d="M65.061 25.1008H58.0606C57.5573 25.102 57.0746 25.3041 56.7186 25.6618C56.3627 26.0195 56.1625 26.5036 56.1612 27.0094V32.4986H47.2559C46.7525 32.4998 46.2698 32.7019 45.9138 33.0596C45.5579 33.4173 45.3577 33.9014 45.3564 34.4072V82.3597C45.3582 82.8653 45.5589 83.3497 45.9148 83.7073C46.2706 84.0648 46.7526 84.2665 47.2559 84.2683H76.6968C77.2006 84.2683 77.6835 84.0671 78.0397 83.7091C78.396 83.3512 78.5962 82.8659 78.5962 82.3597V34.4091C78.5962 33.9029 78.396 33.4175 78.0397 33.0596C77.6835 32.7017 77.2006 32.5004 76.6968 32.5004H66.9623V27.0094C66.961 26.5032 66.7603 26.0176 66.404 25.6599C66.0476 25.3022 65.5647 25.1015 65.061 25.1008ZM61.9782 81.3532C61.3208 81.3532 60.6783 81.1573 60.1316 80.7903C59.585 80.4233 59.159 79.902 58.9074 79.2917C58.6558 78.6814 58.5899 78.0086 58.7182 77.3607C58.8465 76.7128 59.1632 76.1186 59.628 75.6515C60.0929 75.1844 60.6851 74.8652 61.3299 74.7363C61.9747 74.6075 62.6433 74.6737 63.2506 74.9265C63.858 75.1793 64.3767 75.6074 64.742 76.1566C65.1072 76.7059 65.3022 77.3525 65.3022 78.0131C65.3022 78.4519 65.2161 78.8863 65.049 79.2917C64.8818 79.6971 64.6372 80.0644 64.3283 80.3746C64.0195 80.6848 63.6523 80.9319 63.2488 81.0997C62.8453 81.2674 62.413 81.3534 61.9763 81.3532H61.9782Z" fill="#272421"/>
<path d="M45.3564 79.7864H78.5962V83.1652C78.5962 84.2698 77.7008 85.1652 76.5962 85.1652H47.3564C46.2519 85.1652 45.3564 84.2698 45.3564 83.1652V79.7864Z" fill="#272421"/>
<path d="M72.7126 81.5786H51.2406C49.9756 81.5786 48.9502 80.4145 48.9502 78.9784V38.4584C48.9502 37.0224 49.9756 35.8582 51.2406 35.8582H72.7126C73.9776 35.8582 75.003 37.0224 75.003 38.4584V78.9784C75.003 80.4145 73.9776 81.5786 72.7126 81.5786Z" fill="#F7F2EC"/>
<path d="M61.4564 68.3357C61.4564 70.1297 61.4573 71.9244 61.4591 73.7199C61.4591 73.7629 61.4628 73.8065 61.4644 73.8496C61.4644 73.8532 61.4596 73.8568 61.4607 73.8598C61.4629 73.8662 61.4658 73.8724 61.4692 73.8783C61.3081 73.9916 61.1288 74.0782 60.9384 74.1347C60.2988 74.3844 59.6746 74.6685 59.0398 74.9285C58.6348 75.0941 58.2335 75.2669 57.8291 75.4336C57.6629 75.5028 57.6523 75.4951 57.6523 75.3223C57.6523 74.6762 57.6523 74.0296 57.6523 73.3835C57.6455 73.3372 57.6569 73.2902 57.6842 73.2516C57.7115 73.2131 57.7528 73.1859 57.7999 73.1753C58.3636 72.9507 58.9193 72.7087 59.4809 72.48C59.587 72.4374 59.5647 72.3651 59.5653 72.2948C59.5653 71.2954 59.5806 70.295 59.5573 69.2971C59.5328 69.1768 59.5574 69.0519 59.6259 68.9486C59.6945 68.8453 59.8017 68.7716 59.9251 68.7428C60.4076 68.5731 60.8651 68.3398 61.346 68.1613C61.3991 68.1408 61.4522 68.0901 61.4564 68.1962" fill="#272421"/>
<path d="M62.4047 71.0288C62.4047 70.1212 62.4047 69.2136 62.4047 68.3059C62.4047 68.2393 62.3272 68.1049 62.5358 68.1931C62.9259 68.3583 63.3166 68.5229 63.7035 68.6905C63.8495 68.759 63.999 68.8203 64.1515 68.8741C64.1756 68.8774 64.1989 68.8853 64.2197 68.8976C64.2405 68.9098 64.2586 68.926 64.2727 68.9452C64.2868 68.9644 64.2967 68.9862 64.3018 69.0093C64.3069 69.0323 64.307 69.0561 64.3022 69.0792C64.3022 70.1499 64.3022 71.2206 64.2969 72.2913C64.2886 72.3422 64.2994 72.3944 64.3274 72.4383C64.3555 72.4823 64.3989 72.515 64.4498 72.5307C64.8569 72.6974 65.256 72.8804 65.6669 73.0404C65.8297 73.0915 65.9861 73.1603 66.1329 73.2455C66.1558 73.2573 66.1745 73.2754 66.1866 73.2975C66.1987 73.3196 66.2037 73.3447 66.2008 73.3696C66.2008 74.0362 66.1971 74.7064 66.2035 75.3751C66.2035 75.5289 66.1186 75.5176 66.0315 75.4735C65.5469 75.2259 65.0326 75.0408 64.5284 74.8377C64.2592 74.729 63.9976 74.6034 63.7242 74.5029C63.2996 74.3454 62.8845 74.1531 62.4663 73.9747C62.4132 73.9511 62.4105 73.9019 62.41 73.8511C62.41 73.4922 62.4021 73.1332 62.401 72.7743C62.401 72.1928 62.401 71.6113 62.401 71.0308" fill="#272421"/>
<path d="M65.6658 76.3064C65.6062 76.35 65.542 76.3873 65.4742 76.4177C64.9471 76.5935 64.4551 76.8469 63.9391 77.0474C63.325 77.2863 62.7242 77.556 62.1244 77.8268C62.0475 77.8573 61.9643 77.8702 61.8814 77.8642C61.7984 77.8582 61.7181 77.8336 61.6467 77.7924C61.3909 77.6868 61.1393 77.5729 60.8845 77.4647C60.4233 77.2689 59.9663 77.0632 59.4987 76.8822C59.1123 76.7325 58.7519 76.5259 58.3495 76.41C58.3018 76.3961 58.1781 76.3756 58.1903 76.29C58.1967 76.2433 58.3028 76.2479 58.3564 76.2218C58.7349 76.0382 59.134 75.9013 59.5151 75.7218C59.7614 75.6059 60.0231 75.5106 60.2789 75.408C60.7699 75.2101 61.263 75.0147 61.7401 74.7891C61.8166 74.7571 61.8999 74.7434 61.9831 74.749C62.0662 74.7547 62.1467 74.7795 62.2178 74.8214C62.5533 74.9578 62.8866 75.1014 63.2189 75.2429C63.8027 75.4911 64.3866 75.7346 64.962 75.9951C65.1674 76.0879 65.3829 76.1597 65.592 76.2454C65.6175 76.2556 65.6647 76.2536 65.6631 76.3069" fill="#272421"/>
<defs>
<linearGradient id="paint0_linear_516_8950" x1="99.9875" y1="0.990662" x2="107.447" y2="1.62124" gradientUnits="userSpaceOnUse">
<stop stop-color="#A58969"/>
<stop offset="1" stop-color="#C7B664"/>
</linearGradient>
<linearGradient id="paint1_linear_516_8950" x1="84.943" y1="1.92128" x2="114.616" y2="15.2631" gradientUnits="userSpaceOnUse">
<stop stop-color="#A58969"/>
<stop offset="1" stop-color="#C7B664"/>
</linearGradient>
<linearGradient id="paint2_linear_516_8950" x1="-0.774388" y1="63.0916" x2="79.4191" y2="99.1485" gradientUnits="userSpaceOnUse">
<stop stop-color="#A58969"/>
<stop offset="1" stop-color="#C7B664"/>
</linearGradient>
<linearGradient id="paint3_linear_516_8950" x1="5.6858" y1="61.3216" x2="47.8755" y2="68.7338" gradientUnits="userSpaceOnUse">
<stop stop-color="#A58969"/>
<stop offset="1" stop-color="#C7B664"/>
</linearGradient>
</defs>
</svg>
