<svg width="104" height="132" viewBox="0 0 104 132" fill="none" xmlns="http://www.w3.org/2000/svg">
<path opacity="0.4" d="M100.701 35.9625C100.566 35.9288 100.448 35.8449 100.373 35.7278C100.297 35.6108 100.269 35.4694 100.295 35.3325C100.32 35.1955 100.397 35.0734 100.509 34.991C100.622 34.9085 100.761 34.872 100.9 34.8888C101.038 34.9055 101.165 34.9744 101.255 35.0813C101.344 35.1882 101.389 35.3251 101.381 35.4641C101.373 35.6031 101.312 35.7337 101.21 35.8293C101.109 35.9249 100.975 35.9784 100.835 35.9787C100.79 35.9788 100.745 35.9734 100.701 35.9625ZM102.392 33.9636C102.392 33.8048 102.439 33.6496 102.527 33.5176C102.615 33.3856 102.741 33.2827 102.888 33.2219C103.035 33.1612 103.197 33.1453 103.353 33.1762C103.509 33.2072 103.652 33.2837 103.765 33.3959C103.877 33.5082 103.954 33.6513 103.985 33.807C104.016 33.9627 104 34.1241 103.939 34.2708C103.878 34.4175 103.775 34.5429 103.643 34.6311C103.511 34.7193 103.355 34.7664 103.196 34.7664C103.09 34.7664 102.986 34.7456 102.888 34.7053C102.791 34.6649 102.702 34.6058 102.627 34.5313C102.476 34.3807 102.392 34.1765 102.392 33.9636ZM100.048 16.0166C100.048 15.8154 100.108 15.6187 100.22 15.4514C100.332 15.2842 100.492 15.1539 100.678 15.0771C100.865 15.0003 101.07 14.9803 101.267 15.0197C101.465 15.0592 101.647 15.1563 101.789 15.2987C101.932 15.4412 102.029 15.6226 102.068 15.82C102.107 16.0174 102.087 16.222 102.009 16.4079C101.932 16.5937 101.801 16.7525 101.633 16.8642C101.466 16.9758 101.268 17.0353 101.067 17.0352C100.933 17.0352 100.8 17.0088 100.676 16.9576C100.553 16.9064 100.44 16.8313 100.346 16.7367C100.251 16.6421 100.176 16.5298 100.125 16.4063C100.074 16.2827 100.048 16.1503 100.048 16.0166Z" fill="url(#paint0_linear_1709_11761)"/>
<path opacity="0.4" d="M94.6137 34.7659C99.7964 34.7659 103.998 30.5733 103.998 25.4015C103.998 20.2297 99.7964 16.0371 94.6137 16.0371C89.4309 16.0371 85.2295 20.2297 85.2295 25.4015C85.2295 30.5733 89.4309 34.7659 94.6137 34.7659Z" fill="url(#paint1_linear_1709_11761)"/>
<path opacity="0.4" d="M25.3612 126.317C39.3678 126.317 50.7224 114.986 50.7224 101.009C50.7224 87.0318 39.3678 75.7012 25.3612 75.7012C11.3546 75.7012 0 87.0318 0 101.009C0 114.986 11.3546 126.317 25.3612 126.317Z" fill="url(#paint2_linear_1709_11761)"/>
<path opacity="0.4" d="M18.3522 129.833C18.3522 129.404 18.4797 128.985 18.7184 128.628C18.9571 128.272 19.2964 127.994 19.6933 127.83C20.0903 127.666 20.5271 127.623 20.9485 127.707C21.3699 127.79 21.757 127.997 22.0608 128.3C22.3646 128.603 22.5715 128.989 22.6553 129.41C22.7392 129.83 22.6961 130.266 22.5317 130.662C22.3673 131.059 22.0889 131.397 21.7316 131.635C21.3743 131.874 20.9543 132.001 20.5247 132.001C19.9485 132.001 19.3959 131.772 18.9885 131.366C18.5811 130.959 18.3522 130.408 18.3522 129.833ZM25.9505 129.937C25.9505 129.644 26.0375 129.358 26.2006 129.114C26.3636 128.871 26.5954 128.681 26.8666 128.569C27.1377 128.457 27.4361 128.428 27.7239 128.485C28.0118 128.542 28.2761 128.683 28.4836 128.89C28.691 129.097 28.8323 129.361 28.8894 129.649C28.9466 129.936 28.917 130.234 28.8046 130.504C28.6922 130.775 28.5018 131.006 28.2577 131.168C28.0136 131.331 27.7267 131.418 27.4332 131.417C27.0399 131.417 26.6627 131.261 26.3847 130.983C26.1066 130.706 25.9505 130.329 25.9505 129.937ZM6.03516 76.3126C6.03516 75.7687 6.19679 75.237 6.49962 74.7847C6.80244 74.3325 7.23286 73.98 7.73645 73.7718C8.24003 73.5637 8.79416 73.5092 9.32876 73.6153C9.86336 73.7215 10.3544 73.9834 10.7398 74.368C11.1253 74.7526 11.3878 75.2426 11.4941 75.7761C11.6004 76.3096 11.5459 76.8625 11.3373 77.3651C11.1287 77.8676 10.7754 78.2971 10.3222 78.5993C9.86901 78.9015 9.33617 79.0628 8.7911 79.0628C8.06018 79.0628 7.35919 78.773 6.84235 78.2573C6.32551 77.7415 6.03516 77.042 6.03516 76.3126Z" fill="url(#paint3_linear_1709_11761)"/>
<path d="M30.4658 25.4998L30.4658 114.674C30.4658 117.31 32.6072 119.447 35.2488 119.447H88.0996C90.7411 119.447 92.8825 117.31 92.8825 114.674V25.4998C92.8825 22.8638 90.7411 20.7269 88.0996 20.7269H35.2488C32.6072 20.7269 30.4658 22.8638 30.4658 25.4998Z" fill="#F6F2ED"/>
<path d="M31.1836 25.4999L31.1836 114.674C31.1836 116.915 33.0038 118.731 35.2491 118.731H88.0999C90.3452 118.731 92.1654 116.915 92.1654 114.674V25.4999C92.1654 23.2593 90.3452 21.443 88.0999 21.443H35.2491C33.0038 21.443 31.1836 23.2593 31.1836 25.4999Z" stroke="#272421" stroke-width="1.5"/>
<path d="M36.7109 30.7708L36.7109 109.321C36.7109 111.562 38.5311 113.378 40.7765 113.378H83.1038C85.3491 113.378 87.1693 111.562 87.1693 109.321V30.7708C87.1693 28.5303 85.3491 26.7139 83.1038 26.7139H40.7765C38.5311 26.7139 36.7109 28.5303 36.7109 30.7708Z" stroke="#272421" stroke-width="1.5" stroke-dasharray="1.5 2"/>
<path d="M65.061 40.1H58.0606C57.5573 40.1013 57.0746 40.3034 56.7186 40.6611C56.3627 41.0187 56.1625 41.5028 56.1612 42.0087V47.4978H47.2559C46.7525 47.4991 46.2698 47.7012 45.9138 48.0589C45.5579 48.4165 45.3577 48.9006 45.3564 49.4065V97.3589C45.3582 97.8646 45.5589 98.349 45.9148 98.7065C46.2706 99.0641 46.7526 99.2658 47.2559 99.2676H76.6968C77.2006 99.2676 77.6835 99.0663 78.0397 98.7084C78.396 98.3505 78.5962 97.8651 78.5962 97.3589V49.4083C78.5962 48.9021 78.396 48.4168 78.0397 48.0589C77.6835 47.7009 77.2006 47.4997 76.6968 47.4997H66.9623V42.0087C66.961 41.5025 66.7603 41.0169 66.404 40.6592C66.0476 40.3015 65.5647 40.1008 65.061 40.1ZM61.9782 96.3524C61.3208 96.3524 60.6783 96.1566 60.1316 95.7895C59.585 95.4225 59.159 94.9013 58.9074 94.291C58.6558 93.6806 58.5899 93.0079 58.7182 92.36C58.8465 91.7121 59.1632 91.1179 59.628 90.6508C60.0929 90.1837 60.6851 89.8645 61.3299 89.7356C61.9747 89.6067 62.6433 89.6729 63.2506 89.9257C63.858 90.1785 64.3767 90.6066 64.742 91.1559C65.1072 91.7052 65.3022 92.3517 65.3022 93.0123C65.3022 93.4511 65.2161 93.8856 65.049 94.291C64.8818 94.6963 64.6372 95.0637 64.3283 95.3739C64.0195 95.6841 63.6523 95.9312 63.2488 96.099C62.8453 96.2667 62.413 96.3527 61.9763 96.3524H61.9782Z" fill="#272421"/>
<path d="M45.3564 94.7861H78.5962V98.165C78.5962 99.2696 77.7008 100.165 76.5962 100.165H47.3564C46.2519 100.165 45.3564 99.2696 45.3564 98.165V94.7861Z" fill="#272421"/>
<path d="M72.7126 96.5781H51.2406C49.9756 96.5781 48.9502 95.414 48.9502 93.9779V53.4579C48.9502 52.0219 49.9756 50.8577 51.2406 50.8577H72.7126C73.9776 50.8577 75.003 52.0219 75.003 53.4579V93.9779C75.003 95.414 73.9776 96.5781 72.7126 96.5781Z" fill="#F7F2EC"/>
<path d="M61.4564 83.3354C61.4564 85.1295 61.4573 86.9242 61.4591 88.7196C61.4591 88.7627 61.4628 88.8063 61.4644 88.8493C61.4644 88.8529 61.4596 88.8565 61.4607 88.8596C61.4629 88.866 61.4658 88.8722 61.4692 88.8781C61.3081 88.9913 61.1288 89.078 60.9384 89.1344C60.2988 89.3842 59.6746 89.6682 59.0398 89.9282C58.6348 90.0938 58.2335 90.2667 57.8291 90.4333C57.6629 90.5025 57.6523 90.4948 57.6523 90.322C57.6523 89.6759 57.6523 89.0293 57.6523 88.3832C57.6455 88.337 57.6569 88.2899 57.6842 88.2514C57.7115 88.2129 57.7528 88.1856 57.7999 88.175C58.3636 87.9504 58.9193 87.7084 59.4809 87.4797C59.587 87.4372 59.5647 87.3649 59.5653 87.2946C59.5653 86.2952 59.5806 85.2948 59.5573 84.2969C59.5328 84.1765 59.5574 84.0517 59.6259 83.9484C59.6945 83.8451 59.8017 83.7714 59.9251 83.7426C60.4076 83.5729 60.8651 83.3395 61.346 83.1611C61.3991 83.1406 61.4522 83.0898 61.4564 83.196" fill="#272421"/>
<path d="M62.4047 86.0288C62.4047 85.1212 62.4047 84.2136 62.4047 83.3059C62.4047 83.2393 62.3272 83.1049 62.5358 83.1931C62.9259 83.3583 63.3166 83.5229 63.7035 83.6905C63.8495 83.759 63.999 83.8203 64.1515 83.8741C64.1756 83.8774 64.1989 83.8853 64.2197 83.8976C64.2405 83.9098 64.2586 83.926 64.2727 83.9452C64.2868 83.9644 64.2967 83.9862 64.3018 84.0093C64.3069 84.0323 64.307 84.0561 64.3022 84.0792C64.3022 85.1499 64.3022 86.2206 64.2969 87.2913C64.2886 87.3422 64.2994 87.3944 64.3274 87.4383C64.3555 87.4823 64.3989 87.515 64.4498 87.5307C64.8569 87.6974 65.256 87.8804 65.6669 88.0404C65.8297 88.0915 65.9861 88.1603 66.1329 88.2455C66.1558 88.2573 66.1745 88.2754 66.1866 88.2975C66.1987 88.3196 66.2037 88.3447 66.2008 88.3696C66.2008 89.0362 66.1971 89.7064 66.2035 90.3751C66.2035 90.5289 66.1186 90.5176 66.0315 90.4735C65.5469 90.2259 65.0326 90.0408 64.5284 89.8377C64.2592 89.729 63.9976 89.6034 63.7242 89.5029C63.2996 89.3454 62.8845 89.1531 62.4663 88.9747C62.4132 88.9511 62.4105 88.9019 62.41 88.8511C62.41 88.4922 62.4021 88.1332 62.401 87.7743C62.401 87.1928 62.401 86.6113 62.401 86.0308" fill="#272421"/>
<path d="M65.6658 91.3066C65.6062 91.3503 65.542 91.3876 65.4742 91.4179C64.9471 91.5938 64.4551 91.8471 63.9391 92.0476C63.325 92.2865 62.7242 92.5563 62.1244 92.827C62.0475 92.8576 61.9643 92.8704 61.8814 92.8644C61.7984 92.8585 61.7181 92.8339 61.6467 92.7927C61.3909 92.687 61.1393 92.5732 60.8845 92.465C60.4233 92.2691 59.9663 92.0635 59.4987 91.8825C59.1123 91.7327 58.7519 91.5261 58.3495 91.4102C58.3018 91.3964 58.1781 91.3759 58.1903 91.2902C58.1967 91.2436 58.3028 91.2482 58.3564 91.222C58.7349 91.0384 59.134 90.9015 59.5151 90.7221C59.7614 90.6062 60.0231 90.5108 60.2789 90.4082C60.7699 90.2103 61.263 90.0149 61.7401 89.7893C61.8166 89.7574 61.8999 89.7437 61.9831 89.7493C62.0662 89.7549 62.1467 89.7797 62.2178 89.8216C62.5533 89.958 62.8866 90.1016 63.2189 90.2431C63.8027 90.4913 64.3866 90.7349 64.962 90.9954C65.1674 91.0882 65.3829 91.16 65.592 91.2456C65.6175 91.2559 65.6647 91.2538 65.6631 91.3071" fill="#272421"/>
<rect x="19.5186" y="0.75" width="32.1559" height="32.1558" rx="16.0779" fill="url(#paint4_linear_1709_11761)"/>
<rect x="19.5186" y="0.75" width="32.1559" height="32.1558" rx="16.0779" stroke="#F9F4F0" stroke-width="1.5"/>
<path d="M40.7298 12L33.1069 19.323L29.6062 15.7232L27.7686 17.4202L32.1558 21.9331C32.2716 22.0522 32.4106 22.1476 32.5646 22.2137C32.7187 22.2798 32.8847 22.3154 33.053 22.3182H33.0741C33.4064 22.318 33.7253 22.1903 33.9619 21.9628L42.5089 13.7565L40.7298 12Z" fill="#F6F2ED"/>
<defs>
<linearGradient id="paint0_linear_1709_11761" x1="99.9875" y1="15.9907" x2="107.447" y2="16.6212" gradientUnits="userSpaceOnUse">
<stop stop-color="#846E55"/>
<stop offset="1" stop-color="#B3A55C"/>
</linearGradient>
<linearGradient id="paint1_linear_1709_11761" x1="84.943" y1="16.9215" x2="114.616" y2="30.2633" gradientUnits="userSpaceOnUse">
<stop stop-color="#846E55"/>
<stop offset="1" stop-color="#B3A55C"/>
</linearGradient>
<linearGradient id="paint2_linear_1709_11761" x1="-0.774388" y1="78.0913" x2="79.4191" y2="114.148" gradientUnits="userSpaceOnUse">
<stop stop-color="#846E55"/>
<stop offset="1" stop-color="#B3A55C"/>
</linearGradient>
<linearGradient id="paint3_linear_1709_11761" x1="5.6858" y1="76.3221" x2="47.8755" y2="83.7343" gradientUnits="userSpaceOnUse">
<stop stop-color="#846E55"/>
<stop offset="1" stop-color="#B3A55C"/>
</linearGradient>
<linearGradient id="paint4_linear_1709_11761" x1="18.2547" y1="1.5893" x2="71.5033" y2="25.4807" gradientUnits="userSpaceOnUse">
<stop stop-color="#846E55"/>
<stop offset="1" stop-color="#B3A55C"/>
</linearGradient>
</defs>
</svg>
