<svg width="199" height="185" viewBox="0 0 199 185" fill="none" xmlns="http://www.w3.org/2000/svg">
<g opacity="0.25">
<path d="M174.221 22.959H173.054V24.796H174.221V22.959Z" fill="#F2EDE6"/>
<path d="M174.221 28.0215H173.054V29.8585H174.221V28.0215Z" fill="#F2EDE6"/>
<path d="M177.087 25.8242H175.25V26.9912H177.087V25.8242Z" fill="#F2EDE6"/>
<path d="M172.025 25.8242H170.188V26.9912H172.025V25.8242Z" fill="#F2EDE6"/>
</g>
<g opacity="0.25">
<path d="M174.116 147.826H172.11V150.983H174.116V147.826Z" fill="#F2EDE6"/>
<path d="M174.116 156.523H172.11V159.68H174.116V156.523Z" fill="#F2EDE6"/>
<path d="M179.04 152.752H175.883V154.758H179.04V152.752Z" fill="#F2EDE6"/>
<path d="M170.342 152.752H167.185V154.758H170.342V152.752Z" fill="#F2EDE6"/>
</g>
<g opacity="0.5">
<path d="M6.9308 100.445H4.9248V103.602H6.9308V100.445Z" fill="#F2EDE6"/>
<path d="M6.9308 109.145H4.9248V112.302H6.9308V109.145Z" fill="#F2EDE6"/>
<path d="M11.8562 105.371H8.69922V107.377H11.8562V105.371Z" fill="#F2EDE6"/>
<path d="M3.157 105.371H0V107.377H3.157V105.371Z" fill="#F2EDE6"/>
</g>
<g opacity="0.5">
<path d="M195.031 139.835C196.742 139.835 198.128 138.448 198.128 136.738C198.128 135.027 196.742 133.641 195.031 133.641C193.321 133.641 191.934 135.027 191.934 136.738C191.934 138.448 193.321 139.835 195.031 139.835Z" fill="#F2EDE6"/>
</g>
<g opacity="0.5">
<path d="M32.7068 63.9946C35.2434 63.9946 37.2998 61.9382 37.2998 59.4016C37.2998 56.8649 35.2434 54.8086 32.7068 54.8086C30.1701 54.8086 28.1138 56.8649 28.1138 59.4016C28.1138 61.9382 30.1701 63.9946 32.7068 63.9946Z" fill="#F2EDE6"/>
</g>
<g opacity="0.25">
<path d="M32.7071 147.656C36.1501 147.656 38.9411 144.864 38.9411 141.422C38.9411 137.979 36.1501 135.188 32.7071 135.188C29.2642 135.188 26.4731 137.979 26.4731 141.422C26.4731 144.864 29.2642 147.656 32.7071 147.656Z" fill="#F2EDE6"/>
</g>
<path d="M114.283 74.7598H107.243V87.3888H114.283C115.113 87.3894 115.934 87.2261 116.701 86.9082C117.467 86.5904 118.163 86.1244 118.749 85.5368C118.993 85.2965 119.214 85.0348 119.411 84.7548C120.09 83.812 120.496 82.6998 120.583 81.5411C120.67 80.3824 120.436 79.2221 119.905 78.1883C119.375 77.1544 118.569 76.2872 117.577 75.6822C116.585 75.0772 115.445 74.758 114.283 74.7598Z" fill="url(#paint0_linear_533_5510)"/>
<path d="M123.936 99.8195C123.716 98.1797 122.908 96.6757 121.662 95.5864C120.417 94.4972 118.819 93.8967 117.164 93.8965H107.243V107.576H117.164C118.062 107.575 118.951 107.398 119.78 107.054C120.609 106.71 121.363 106.206 121.997 105.571C122.632 104.936 123.135 104.182 123.478 103.352C123.821 102.522 123.998 101.633 123.997 100.735C123.997 100.429 123.977 100.123 123.936 99.8195Z" fill="url(#paint1_linear_533_5510)"/>
<path d="M152.664 44.9676C152.316 44.6536 151.964 44.3396 151.615 44.0316C151.266 43.7236 150.906 43.4236 150.545 43.1226C142.177 36.1786 132.141 31.5402 121.43 29.6664C110.719 27.7927 99.7041 28.7486 89.4759 32.4396C83.5569 34.5262 78.0085 37.5434 73.0399 41.3776C71.5426 42.5076 70.1006 43.7043 68.7139 44.9676C62.2718 50.8206 57.1251 57.9562 53.6041 65.9162C50.0832 73.8762 48.2659 82.4845 48.269 91.1884C48.2722 99.8923 50.0956 108.499 53.6222 116.457C57.1488 124.414 62.3007 131.546 68.7469 137.395C69.4756 138.057 70.2222 138.703 70.9869 139.334C82.1324 148.542 96.132 153.589 110.589 153.612C125.046 153.636 139.062 148.633 150.237 139.461C151.053 138.799 151.851 138.112 152.63 137.402V137.395C159.078 131.547 164.231 124.416 167.759 116.458C171.287 108.501 173.111 99.8929 173.114 91.1884C173.117 82.4839 171.299 73.875 167.777 65.9149C164.255 57.9548 159.108 50.8196 152.664 44.9676ZM136.218 106.333C135.559 108.102 134.529 109.709 133.196 111.046C131.98 112.264 130.536 113.231 128.946 113.889C127.356 114.548 125.651 114.886 123.93 114.884H117.659V125.139H111.281V114.883H107.243V125.139H100.865V114.971H95.6569V114.978H87.9149V108.098H92.6949C93.0919 108.161 93.4983 108.132 93.8816 108.01C94.2649 107.889 94.6145 107.679 94.9024 107.399C95.1903 107.118 95.4085 106.774 95.5395 106.394C95.6705 106.014 95.7107 105.608 95.6569 105.21V77.2236C95.7109 76.8251 95.6709 76.4195 95.5399 76.0393C95.409 75.659 95.1908 75.3148 94.9029 75.034C94.6149 74.7533 94.2652 74.5439 93.8818 74.4226C93.4984 74.3013 93.0919 74.2715 92.6949 74.3356H87.9149V67.4556H100.865V57.1946H107.243V67.4566H111.281V57.1946H117.659V67.4566H122.105C124.944 67.4558 127.667 68.5826 129.675 70.5891C131.684 72.5956 132.813 75.3176 132.815 78.1566C132.814 78.5767 132.789 78.9964 132.741 79.4136C132.472 81.6797 131.486 83.8006 129.928 85.4673C128.369 87.134 126.319 88.2595 124.076 88.6796C126.176 88.7028 128.239 89.2304 130.093 90.2181C131.946 91.2058 133.534 92.6245 134.725 94.3547C135.915 96.0849 136.671 98.0758 136.931 100.16C137.19 102.244 136.945 104.359 136.216 106.329L136.218 106.333Z" fill="url(#paint2_linear_533_5510)"/>
<g opacity="0.75">
<path d="M49.3692 119.004L47.5442 119.836C47.8255 120.452 48.1152 121.063 48.4132 121.67L50.2132 120.784C49.9232 120.196 49.6419 119.602 49.3692 119.004ZM51.1042 122.545L49.3312 123.48C49.6479 124.08 49.9732 124.675 50.3072 125.263L52.0512 124.272C51.7299 123.7 51.4142 123.124 51.1042 122.545ZM47.8382 115.377L45.9672 116.099C46.2112 116.732 46.4645 117.359 46.7272 117.981L48.5752 117.203C48.3225 116.597 48.0779 115.988 47.8412 115.375L47.8382 115.377ZM46.5232 111.651L44.6132 112.263C44.8212 112.911 45.0375 113.554 45.2622 114.192L47.1542 113.524C46.9369 112.902 46.7275 112.275 46.5262 111.644L46.5232 111.651ZM55.1912 129.287L53.5402 130.424C53.9249 130.982 54.3175 131.534 54.7182 132.082L56.3352 130.894C55.9485 130.363 55.5685 129.826 55.1952 129.284L55.1912 129.287ZM53.0482 125.974L51.3332 127.013C51.6852 127.592 52.0445 128.166 52.4112 128.735L54.1042 127.644C53.7442 127.092 53.3935 126.534 53.0522 125.972L53.0482 125.974ZM44.5652 104L42.5962 104.381C42.7255 105.048 42.8642 105.712 43.0122 106.373L44.9692 105.933C44.8279 105.291 44.6945 104.646 44.5692 103.998L44.5652 104ZM43.4042 88.2725L41.4042 88.1875C41.3755 88.8628 41.3565 89.5405 41.3472 90.2205L43.3532 90.2475C43.3592 89.5875 43.3762 88.9292 43.4042 88.2725ZM43.3512 92.2245L41.3452 92.2555C41.3559 92.9348 41.3762 93.6115 41.4062 94.2855L43.4062 94.1955C43.3795 93.5415 43.3612 92.8848 43.3512 92.2255V92.2245ZM45.4342 107.851L43.4912 108.351C43.6599 109.01 43.8379 109.665 44.0252 110.315L45.9522 109.761C45.7709 109.128 45.5982 108.492 45.4342 107.853V107.851ZM43.9342 100.097L41.9462 100.362C42.0362 101.036 42.1362 101.707 42.2462 102.375L44.2252 102.052C44.1172 101.404 44.0195 100.753 43.9322 100.099L43.9342 100.097ZM57.5342 132.466L55.9502 133.698C56.3662 134.231 56.7902 134.76 57.2222 135.284L58.7682 134.006C58.3462 133.498 57.9332 132.986 57.5292 132.468L57.5342 132.466ZM77.4902 152.044C78.0862 152.371 78.6862 152.689 79.2902 152.997L80.2012 151.211C79.6132 150.911 79.0302 150.603 78.4522 150.286L77.4902 152.044ZM73.9752 149.984C74.5505 150.344 75.1312 150.697 75.7172 151.04L76.7322 149.31C76.1629 148.977 75.5989 148.635 75.0402 148.284L73.9752 149.984ZM76.6662 33.0615L75.6502 31.3325C75.0662 31.6752 74.4875 32.0265 73.9142 32.3865L74.9802 34.0865C75.5375 33.7358 76.0999 33.3935 76.6672 33.0595L76.6662 33.0615ZM80.1222 31.1615L79.2082 29.3765C78.6082 29.6845 78.0105 30.0015 77.4152 30.3275L78.3802 32.0855C78.9562 31.7702 79.5372 31.4622 80.1232 31.1615H80.1222ZM43.6852 84.3335L41.6852 84.1335C41.6185 84.8062 41.5599 85.4822 41.5092 86.1615L43.5092 86.3055C43.5612 85.6442 43.6192 84.9868 43.6852 84.3335ZM83.6852 29.4715L82.8792 27.6355C82.2592 27.9075 81.6439 28.1888 81.0332 28.4795L81.8942 30.2905C82.4842 30.0092 83.0802 29.7362 83.6822 29.4715H83.6852ZM70.5892 147.718C71.1419 148.112 71.7005 148.498 72.2652 148.875L73.3802 147.209C72.8316 146.842 72.2885 146.468 71.7512 146.086L70.5892 147.718ZM64.2432 142.625C64.7465 143.081 65.2565 143.528 65.7732 143.968L67.0732 142.442C66.5719 142.015 66.0769 141.582 65.5882 141.142L64.2432 142.625ZM67.0352 39.9245L65.7352 38.3995C65.2199 38.8388 64.7109 39.2862 64.2082 39.7415L65.5532 41.2295C66.0399 40.7855 66.5335 40.3495 67.0342 39.9215L67.0352 39.9245ZM60.0462 135.515L58.5372 136.836C58.9839 137.346 59.4382 137.849 59.9002 138.345L61.3692 136.979C60.9205 136.496 60.4792 136.007 60.0452 135.511L60.0462 135.515ZM73.3262 35.1575L72.2102 33.4915C71.6469 33.8682 71.0895 34.2528 70.5382 34.6455L71.7012 36.2785C72.2366 35.8978 72.7782 35.5242 73.3262 35.1575ZM61.3042 139.813C61.7795 140.297 62.2625 140.773 62.7532 141.241L64.1402 139.793C63.6649 139.338 63.1962 138.876 62.7342 138.407L61.3042 139.813ZM70.1132 37.4445L68.9042 35.8445C68.3642 36.2538 67.8309 36.6705 67.3042 37.0945L68.5612 38.6575C69.0706 38.2488 69.5879 37.8445 70.1132 37.4445ZM67.3422 145.263C67.8709 145.688 68.4062 146.105 68.9482 146.515L70.1582 144.914C69.6322 144.514 69.1122 144.109 68.5982 143.698L67.3422 145.263ZM162.523 48.2085L164.066 46.9275C163.634 46.4062 163.193 45.8912 162.745 45.3825L161.239 46.7075C161.675 47.2035 162.103 47.7045 162.523 48.2105V48.2085ZM172.745 64.9945L174.593 64.2135C174.327 63.5895 174.054 62.9705 173.775 62.3565L171.952 63.1915C172.225 63.7895 172.489 64.3912 172.745 64.9965V64.9945ZM167.204 54.5655L168.886 53.4725C168.517 52.9038 168.14 52.3412 167.754 51.7845L166.105 52.9255C166.477 53.4668 166.844 54.0135 167.204 54.5655ZM171.104 61.4155L172.904 60.5255C172.604 59.9182 172.296 59.3162 171.978 58.7195L170.207 59.6605C170.514 60.2412 170.813 60.8262 171.104 61.4155ZM161.379 43.8775C160.917 43.3815 160.447 42.8925 159.97 42.4105L158.544 43.8205C159.008 44.2872 159.464 44.7618 159.913 45.2445L161.379 43.8775ZM164.956 51.3205L166.571 50.1305C166.171 49.5852 165.762 49.0455 165.342 48.5115L163.763 49.7475C164.167 50.2662 164.566 50.7905 164.956 51.3205ZM81.1232 153.896C81.7372 154.186 82.3559 154.468 82.9792 154.741L83.7792 152.904C83.1739 152.637 82.5739 152.363 81.9792 152.082L81.1232 153.896ZM169.253 57.9335L170.996 56.9415C170.663 56.3528 170.319 55.7695 169.965 55.1915L168.252 56.2345C168.594 56.7952 168.928 57.3615 169.254 57.9335H169.253ZM177.134 80.1335L179.113 79.8055C179.002 79.1342 178.881 78.4675 178.751 77.8055L176.783 78.1925C176.91 78.8352 177.027 79.4822 177.134 80.1335ZM177.664 84.0485L179.658 83.8385C179.587 83.1612 179.506 82.4878 179.415 81.8185L177.428 82.0875C177.516 82.7382 177.595 83.3905 177.665 84.0445L177.664 84.0485ZM174.175 68.6725L176.065 67.9995C175.837 67.3602 175.601 66.7245 175.355 66.0925L173.486 66.8195C173.725 67.4362 173.955 68.0532 174.175 68.6725ZM177.963 87.9885L179.963 87.8945C179.931 87.2152 179.89 86.5382 179.838 85.8635L177.838 86.0165C177.891 86.6712 177.933 87.3278 177.963 87.9885ZM175.388 72.4325L177.314 71.8725C177.125 71.2198 176.925 70.5715 176.714 69.9275L174.805 70.5425C175.009 71.1685 175.204 71.7978 175.388 72.4325ZM176.375 76.2565L178.331 75.8125C178.181 75.1492 178.021 74.4902 177.851 73.8355L175.909 74.3355C176.074 74.9722 176.229 75.6125 176.375 76.2565ZM44.9432 76.5355L42.9852 76.0995C42.8379 76.7602 42.7005 77.4245 42.5732 78.0925L44.5432 78.4695C44.6672 77.8215 44.8005 77.1768 44.9432 76.5355ZM48.5342 65.2355L46.6842 64.4615C46.4222 65.0882 46.1689 65.7192 45.9242 66.3545L47.7972 67.0735C48.0332 66.4575 48.2789 65.8442 48.5342 65.2355ZM50.1702 61.6355L48.3702 60.7525C48.0715 61.3632 47.7815 61.9778 47.5002 62.5965L49.3262 63.4255C49.5989 62.8222 49.8802 62.2242 50.1702 61.6315V61.6355ZM52.0152 58.1355L50.2702 57.1475C49.9369 57.7395 49.6112 58.3362 49.2932 58.9375L51.0682 59.8725C51.3755 59.2845 51.6912 58.7038 52.0152 58.1305V58.1355ZM47.1152 68.9355L45.2222 68.2725C44.9975 68.9138 44.7819 69.5592 44.5752 70.2085L46.4872 70.8155C46.6852 70.1848 46.8935 69.5578 47.1122 68.9345L47.1152 68.9355ZM45.9152 72.7075L43.9862 72.1565C43.8002 72.8078 43.6235 73.4632 43.4562 74.1225L45.4002 74.6145C45.5622 73.9745 45.7335 73.3385 45.9142 72.7065L45.9152 72.7075ZM44.2012 80.4155L42.2212 80.0975C42.1139 80.7642 42.0159 81.4352 41.9272 82.1105L43.9162 82.3715C44.0009 81.7162 44.0969 81.0642 44.2042 80.4155H44.2012ZM58.7322 48.3625L57.1852 47.0865C56.7539 47.6092 56.3299 48.1388 55.9132 48.6755L57.4962 49.9065C57.9015 49.3852 58.3142 48.8705 58.7322 48.3625ZM61.3322 45.3895L59.8632 44.0235C59.4012 44.5208 58.9469 45.0252 58.5002 45.5365L60.0102 46.8565C60.4449 46.3612 60.8862 45.8722 61.3342 45.3895H61.3322ZM64.1042 42.5715L62.7152 41.1245C62.2259 41.5912 61.7435 42.0675 61.2682 42.5535L62.6982 43.9595C63.1615 43.4902 63.6302 43.0275 64.1042 42.5715ZM158.517 40.9875C158.027 40.5208 157.529 40.0598 157.024 39.6045L155.683 41.0955C156.173 41.5362 156.656 41.9838 157.133 42.4385L158.517 40.9875ZM56.3042 51.4855L54.6852 50.3005C54.2852 50.8478 53.8925 51.4015 53.5072 51.9615L55.1592 53.0975C55.5339 52.5542 55.9155 52.0168 56.3042 51.4855ZM54.0632 54.7445L52.3782 53.6565C52.0095 54.2272 51.6495 54.8028 51.2982 55.3835L53.0152 56.4215C53.3565 55.8568 53.7059 55.2978 54.0632 54.7445ZM43.5272 96.1695L41.5272 96.3165C41.5772 96.9952 41.6372 97.6708 41.7072 98.3435L43.7072 98.1375C43.6385 97.4842 43.5785 96.8278 43.5272 96.1685V96.1695ZM155.492 38.2635C154.976 37.8255 154.452 37.3945 153.921 36.9705L152.669 38.5375C153.185 38.9495 153.694 39.3685 154.196 39.7945L155.492 38.2635ZM152.934 143.58L154.196 145.14C154.724 144.713 155.244 144.28 155.758 143.84L154.458 142.317C153.956 142.745 153.448 143.166 152.935 143.58H152.934ZM152.313 35.7235C151.771 35.3148 151.223 34.9148 150.668 34.5235L149.509 36.1605C150.047 36.5412 150.581 36.9298 151.109 37.3265L152.313 35.7235ZM149.792 145.968L150.959 147.599C151.511 147.204 152.056 146.802 152.594 146.392L151.38 144.793C150.858 145.194 150.328 145.586 149.792 145.97V145.968ZM155.933 141.009L157.282 142.493C157.784 142.036 158.279 141.573 158.767 141.103L157.376 139.659C156.902 140.116 156.422 140.567 155.934 141.011L155.933 141.009ZM161.461 135.366L162.974 136.681C163.42 136.171 163.858 135.653 164.288 135.129L162.739 133.855C162.321 134.365 161.895 134.869 161.462 135.366L161.461 135.366ZM158.779 138.265L160.212 139.666C160.686 139.181 161.153 138.69 161.612 138.192L160.139 136.83C159.694 137.32 159.241 137.799 158.78 138.269L158.779 138.265ZM145.533 31.2165C144.947 30.8738 144.355 30.5405 143.758 30.2165L142.798 31.9775C143.378 32.2928 143.952 32.6168 144.521 32.9495L145.533 31.2165ZM139.617 151.978L140.48 153.789C141.092 153.497 141.698 153.197 142.3 152.888L141.382 151.104C140.797 151.404 140.209 151.695 139.617 151.978ZM141.953 29.2655C141.347 28.9582 140.737 28.6582 140.121 28.3655L139.267 30.1805C139.867 30.4612 140.46 30.7512 141.045 31.0505L141.953 29.2655ZM148.989 33.3655C148.425 32.9902 147.854 32.6235 147.277 32.2655L146.216 33.9655C146.776 34.3148 147.331 34.6722 147.88 35.0375L148.989 33.3655ZM143.121 150.172L144.091 151.927C144.685 151.599 145.272 151.264 145.854 150.921L144.834 149.194C144.269 149.532 143.698 149.859 143.122 150.177L143.121 150.172ZM146.521 148.166L147.591 149.866C148.165 149.504 148.731 149.135 149.291 148.757L148.172 147.093C147.626 147.461 147.075 147.82 146.518 148.172L146.521 148.166ZM172.121 118.776L173.949 119.601C174.229 118.982 174.499 118.358 174.76 117.728L172.908 116.959C172.65 117.572 172.385 118.179 172.113 118.78L172.121 118.776ZM174.946 111.375L176.859 111.976C177.063 111.33 177.258 110.68 177.443 110.026L175.513 109.48C175.328 110.123 175.137 110.756 174.939 111.379L174.946 111.375ZM176.871 103.718L178.841 104.09C178.968 103.424 179.084 102.757 179.19 102.09L177.209 101.776C177.101 102.427 176.986 103.076 176.864 103.722L176.871 103.718ZM87.3332 27.9935L86.6332 26.1135C85.9985 26.3488 85.3685 26.5932 84.7432 26.8465L85.4952 28.7055C86.1012 28.4595 86.7139 28.2222 87.3332 27.9935ZM177.485 99.8195L179.474 100.075C179.561 99.4042 179.638 98.7305 179.704 98.0545L177.704 97.8545C177.642 98.5145 177.568 99.1698 177.484 99.8205L177.485 99.8195ZM177.874 95.8875L179.874 96.0275C179.921 95.3522 179.958 94.6748 179.985 93.9955L177.985 93.9145C177.957 94.5745 177.92 95.2322 177.874 95.8875ZM180.032 89.9275L178.027 89.9625C178.035 90.3625 178.038 90.7625 178.038 91.1625C178.038 91.4212 178.038 91.6792 178.038 91.9365L180.044 91.9585C180.044 91.6918 180.044 91.4252 180.044 91.1585C180.044 90.7492 180.04 90.3388 180.032 89.9275ZM136.015 153.57L136.771 155.428C137.399 155.174 138.021 154.91 138.638 154.637L137.827 152.802C137.228 153.067 136.624 153.324 136.015 153.572V153.57ZM166.304 129.116L167.956 130.244C168.34 129.685 168.715 129.118 169.082 128.545L167.394 127.461C167.038 128.021 166.674 128.572 166.304 129.116ZM168.442 125.789L170.161 126.821C170.511 126.24 170.853 125.653 171.186 125.06L169.438 124.077C169.112 124.655 168.778 125.226 168.438 125.789H168.442ZM173.642 115.123L175.515 115.84C175.759 115.204 175.992 114.565 176.215 113.922L174.321 113.263C174.1 113.887 173.871 114.507 173.635 115.123H173.642ZM170.385 122.338L172.162 123.269C172.478 122.669 172.784 122.062 173.082 121.45L171.282 120.571C170.986 121.165 170.685 121.754 170.379 122.338L170.385 122.338ZM163.978 132.312L165.565 133.539C165.98 133.002 166.387 132.46 166.787 131.912L165.166 130.73C164.774 131.264 164.376 131.792 163.972 132.313L163.978 132.312ZM176.021 107.58L177.966 108.067C178.132 107.411 178.287 106.751 178.433 106.086L176.475 105.655C176.329 106.301 176.175 106.942 176.015 107.58H176.021ZM100.56 159.78C101.227 159.878 101.9 159.967 102.578 160.046L102.811 158.053C102.156 157.977 101.503 157.891 100.853 157.796L100.56 159.78ZM102.665 24.2925L102.427 22.3015C101.752 22.3822 101.08 22.4725 100.411 22.5725L100.711 24.5555C101.355 24.4582 102.004 24.3705 102.659 24.2925H102.665ZM110.696 158.513C110.036 158.513 109.377 158.503 108.721 158.483L108.662 160.483C109.338 160.503 110.016 160.513 110.689 160.513H110.995L110.981 158.508H110.696V158.513ZM110.546 21.8125C109.866 21.8125 109.188 21.8238 108.512 21.8465L108.575 23.8465C109.231 23.8265 109.89 23.8155 110.551 23.8135L110.546 21.8125ZM96.5472 159.069C97.2099 159.207 97.8765 159.335 98.5472 159.453L98.8972 157.479C98.2472 157.363 97.6009 157.238 96.9582 157.104L96.5472 159.069ZM104.595 160.254C105.269 160.312 105.946 160.361 106.624 160.401L106.742 158.401C106.082 158.361 105.425 158.313 104.771 158.257L104.595 160.254ZM106.595 23.9405L106.474 21.9405C105.795 21.9818 105.119 22.0325 104.445 22.0925L104.624 24.0925C105.278 24.0305 105.934 23.9812 106.594 23.9445L106.595 23.9405ZM91.0762 26.7295L90.4902 24.8115C89.8402 25.0115 89.1945 25.2192 88.5532 25.4345L89.1952 27.3345C89.8179 27.1238 90.4449 26.9222 91.0762 26.7295ZM88.6892 156.944C89.3332 157.16 89.9815 157.367 90.6342 157.565L91.2152 155.646C90.5819 155.454 89.9522 155.253 89.3262 155.046L88.6892 156.944ZM98.7522 24.8765L98.3962 22.9025C97.7295 23.0232 97.0629 23.1532 96.3962 23.2925L96.8082 25.2555C97.4542 25.1195 98.1022 24.9932 98.7522 24.8765ZM84.8602 155.53C85.4902 155.784 86.1235 156.029 86.7602 156.264L87.4552 154.384C86.8345 154.154 86.2182 153.917 85.6062 153.671L84.8602 155.53ZM138.26 27.5305C137.637 27.2598 137.009 26.9978 136.377 26.7445L135.631 28.6065C136.245 28.8518 136.855 29.1062 137.459 29.3695L138.26 27.5305ZM94.8832 25.6905L94.4122 23.7405C93.7515 23.9005 93.0949 24.0695 92.4422 24.2475L92.9702 26.1825C93.6062 26.0092 94.2449 25.8448 94.8862 25.6895L94.8832 25.6905ZM92.5832 158.125C93.2372 158.301 93.8945 158.468 94.5552 158.625L95.0212 156.673C94.3799 156.521 93.7419 156.358 93.1072 156.185L92.5832 158.125ZM130.604 24.7245C129.956 24.5298 129.303 24.3445 128.647 24.1685L128.127 26.1045C128.765 26.2765 129.398 26.4568 130.027 26.6455L130.604 24.7245ZM126.673 23.6695C126.015 23.5142 125.353 23.3678 124.687 23.2305L124.287 25.1945C124.934 25.3278 125.577 25.4702 126.217 25.6215L126.673 23.6695ZM114.604 21.9215C113.929 21.8835 113.251 21.8555 112.571 21.8375L112.516 23.8375C113.177 23.8555 113.835 23.8832 114.49 23.9205L114.604 21.9215ZM128.539 156.112L129.072 158.046C129.728 157.865 130.379 157.675 131.025 157.477L130.436 155.56C129.81 155.75 129.179 155.934 128.542 156.112H128.539ZM132.316 154.951L132.962 156.85C133.606 156.632 134.245 156.404 134.879 156.168L134.179 154.289C133.564 154.518 132.944 154.738 132.319 154.951H132.316ZM134.472 26.0135C133.834 25.7795 133.192 25.5548 132.545 25.3395L131.914 27.2445C132.542 27.4532 133.166 27.6712 133.785 27.8985L134.472 26.0135ZM124.704 157.044L125.118 159.008C125.785 158.867 126.447 158.716 127.104 158.556L126.629 156.608C125.993 156.766 125.351 156.911 124.704 157.044ZM112.951 158.474L113.018 160.474C113.698 160.452 114.376 160.419 115.051 160.375L114.925 158.375C114.271 158.421 113.613 158.455 112.953 158.475L112.951 158.474ZM118.658 22.2655C117.986 22.1875 117.311 22.1208 116.633 22.0655L116.463 24.0655C117.121 24.1215 117.776 24.1882 118.428 24.2655L118.658 22.2655ZM116.895 158.228L117.076 160.228C117.754 160.166 118.428 160.094 119.1 160.012L118.859 158.021C118.209 158.099 117.555 158.168 116.897 158.228L116.895 158.228ZM122.684 22.8485C122.018 22.7318 121.348 22.6248 120.675 22.5275L120.388 24.5125C121.042 24.6072 121.692 24.7112 122.339 24.8245L122.684 22.8485ZM120.816 157.749L121.116 159.733C121.788 159.63 122.457 159.518 123.123 159.397L122.764 157.424C122.12 157.545 121.471 157.654 120.818 157.753L120.816 157.749Z" fill="#F2EDE6"/>
</g>
<path d="M114.283 74.7598H107.243V85.5238C108.376 85.6171 109.527 85.6638 110.693 85.6638C113.623 85.6653 116.545 85.3607 119.411 84.7548C120.091 83.812 120.497 82.6999 120.584 81.541C120.671 80.3822 120.437 79.2217 119.906 78.1877C119.376 77.1538 118.57 76.2864 117.578 75.6815C116.585 75.0766 115.445 74.7576 114.283 74.7598Z" fill="#F6F2ED"/>
<path d="M151.614 44.0307C151.26 43.7227 150.905 43.4227 150.544 43.1217C144.007 37.6848 136.426 33.6444 128.268 31.2495C120.11 28.8546 111.547 28.156 103.109 29.1967C92.1704 30.4665 81.78 34.6748 73.0408 41.3747C71.5435 42.5047 70.1015 43.7014 68.7148 44.9647C68.9719 53.2378 71.6658 61.2508 76.4586 67.999C81.2515 74.7471 87.9301 79.93 95.6568 82.8977V77.2217C95.7109 76.8232 95.6708 76.4176 95.5399 76.0374C95.4089 75.6571 95.1907 75.3129 94.9028 75.0321C94.6149 74.7514 94.2652 74.542 93.8818 74.4207C93.4983 74.2994 93.0918 74.2696 92.6948 74.3337H87.9148V67.4537H100.865V57.1937H107.241V67.4557H111.279V57.1937H117.657V67.4557H122.103C124.942 67.4549 127.665 68.5817 129.673 70.5882C131.682 72.5947 132.811 75.3167 132.813 78.1557C132.812 78.5758 132.787 78.9955 132.739 79.4127C138.652 75.7685 143.568 70.7131 147.045 64.7003C150.522 58.6875 152.452 51.9054 152.662 44.9627C152.316 44.6527 151.969 44.3377 151.614 44.0307Z" fill="#F6F2ED"/>
<path d="M123.937 99.8205C119.666 98.4034 115.194 97.6832 110.693 97.6875C109.53 97.6875 108.38 97.7345 107.243 97.8285V107.576H117.164C118.139 107.573 119.101 107.363 119.988 106.958C120.875 106.554 121.665 105.965 122.306 105.231C122.947 104.497 123.424 103.635 123.706 102.702C123.987 101.769 124.066 100.787 123.937 99.8205Z" fill="#F6F2ED"/>
<path d="M136.218 106.334C135.559 108.103 134.529 109.71 133.196 111.047C131.981 112.265 130.536 113.232 128.946 113.89C127.356 114.549 125.651 114.886 123.93 114.884H117.659V125.139H111.281V114.884H107.243V125.139H100.865V114.971H95.658V114.978H87.916V108.098H92.696C93.093 108.162 93.4994 108.132 93.8827 108.01C94.266 107.889 94.6156 107.68 94.9035 107.399C95.1914 107.118 95.4096 106.774 95.5406 106.394C95.6716 106.014 95.7118 105.608 95.658 105.21V100.463C88.0875 103.366 81.5187 108.397 76.7439 114.95C71.9692 121.503 69.1926 129.297 68.749 137.393V137.4C69.478 138.062 70.226 138.71 70.989 139.332C82.1398 148.528 96.1372 153.568 110.591 153.591C125.044 153.614 139.058 148.619 150.238 139.459C151.054 138.797 151.852 138.111 152.631 137.4V137.393C152.303 131.337 150.666 125.424 147.833 120.062C144.999 114.7 141.037 110.016 136.218 106.334Z" fill="#F6F2ED"/>
<path d="M110.69 34.7773C99.5371 34.7768 88.6345 38.0834 79.361 44.2791C70.0875 50.4749 62.8595 59.2814 58.5911 69.5851C54.3227 79.8888 53.2056 91.2269 55.381 102.165C57.5565 113.104 62.9267 123.152 70.8128 131.038C78.6988 138.925 88.7464 144.296 99.6848 146.472C110.623 148.648 121.961 147.531 132.265 143.263C142.569 138.995 151.376 131.768 157.572 122.495C163.769 113.222 167.076 102.319 167.076 91.1664C167.059 76.2168 161.113 61.8843 150.542 51.3131C139.972 40.7418 125.639 34.7951 110.69 34.7773ZM110.69 145.549C99.9341 145.549 89.42 142.359 80.4771 136.383C71.5343 130.407 64.5643 121.913 60.4487 111.976C56.333 102.038 55.2565 91.104 57.3552 80.5549C59.4539 70.0058 64.6336 60.316 72.2393 52.7107C79.8451 45.1054 89.5352 39.9262 100.084 37.8281C110.634 35.7299 121.568 36.8071 131.505 40.9233C141.442 45.0395 149.935 52.0099 155.911 60.9531C161.886 69.8963 165.076 80.4105 165.076 91.1664C165.059 105.585 159.324 119.409 149.128 129.604C138.932 139.799 125.109 145.534 110.69 145.549Z" fill="#F2EDE6"/>
<g opacity="0.5">
<path d="M91.6649 4.444L92.5589 6.244C93.1509 5.95 93.7469 5.669 94.3319 5.412L93.5239 3.576C92.9109 3.842 92.2849 4.135 91.6649 4.444ZM88.0829 6.451L89.1429 8.151C89.7009 7.803 90.2689 7.468 90.8299 7.151L89.8489 5.402C89.2619 5.736 88.6679 6.088 88.0829 6.451ZM84.7039 8.782L85.9199 10.376C86.4369 9.982 86.9709 9.594 87.5049 9.224L86.3669 7.582C85.8039 7.967 85.2479 8.373 84.7039 8.782ZM95.4209 2.782L96.1399 4.655C96.7459 4.422 97.3659 4.201 97.9839 3.998L97.3569 2.093C96.7109 2.313 96.0599 2.545 95.4239 2.789L95.4209 2.782ZM99.3209 1.498L99.8539 3.432C100.479 3.259 101.118 3.1 101.754 2.958L101.317 1.001C100.655 1.157 99.9839 1.324 99.3269 1.505L99.3209 1.498ZM103.337 0.598L103.674 2.575C104.322 2.465 104.974 2.369 105.611 2.291L105.368 0.299999C104.704 0.390999 104.021 0.491 103.343 0.607L103.337 0.598ZM71.8369 24.527L73.6439 25.397C73.9279 24.808 74.2269 24.221 74.5329 23.654L72.7689 22.701C72.4569 23.304 72.1429 23.919 71.8469 24.537L71.8369 24.527ZM78.6719 14.335L80.1639 15.675C80.5929 15.198 81.0449 14.718 81.5069 14.25L80.0789 12.841C79.6039 13.342 79.1309 13.844 78.6809 14.345L78.6719 14.335ZM69.1079 31.913L71.0459 32.427C71.1866 31.8937 71.3382 31.367 71.5009 30.847L69.5859 30.247C69.4212 30.8037 69.2649 31.3623 69.1169 31.923L69.1079 31.913ZM107.408 0.1L107.554 2.1C108.199 2.053 108.854 2.021 109.507 2.006L109.46 0C108.786 0.028 108.096 0.0609987 107.418 0.109999L107.408 0.1ZM70.2519 28.317L72.1349 29.007C72.3589 28.395 72.5989 27.783 72.8509 27.188L71.0029 26.409C70.7399 27.033 70.4869 27.675 70.2519 28.317ZM73.7979 20.928L75.5149 21.965C75.8479 21.413 76.2019 20.858 76.5659 20.315L74.9039 19.198C74.5179 19.767 74.1469 20.35 73.7979 20.928ZM76.0849 17.519L77.6949 18.719C78.0839 18.195 78.4889 17.676 78.8949 17.174L77.3419 15.905C76.9159 16.427 76.4929 16.971 76.0849 17.519ZM81.5639 11.419L82.9239 12.893C83.4009 12.453 83.8959 12.018 84.3939 11.599L83.1039 10.069C82.5819 10.508 82.0639 10.963 81.5639 11.424V11.419ZM136.678 11.433C137.185 11.847 137.686 12.277 138.167 12.707L139.504 11.22C139.004 10.768 138.476 10.32 137.945 9.885L136.678 11.433ZM146.278 18.909L144.625 20.045C144.991 20.577 145.351 21.129 145.695 21.686L147.401 20.631C147.036 20.052 146.658 19.473 146.274 18.914L146.278 18.909ZM141.004 12.625L139.596 14.053C140.06 14.51 140.518 14.984 140.958 15.461L142.432 14.1C141.968 13.602 141.488 13.105 141.004 12.625ZM111.475 2.017C112.121 2.033 112.775 2.065 113.427 2.117L113.574 0.116999C112.893 0.0669987 112.203 0.0330002 111.525 0.0170002L111.475 2.017ZM151.687 29.95L149.777 30.56C149.977 31.175 150.157 31.806 150.325 32.437L152.263 31.923C152.086 31.26 151.893 30.597 151.686 29.951L151.687 29.95ZM148.437 22.411L146.681 23.38C146.999 23.955 147.304 24.54 147.587 25.119L149.387 24.235C149.089 23.628 148.769 23.015 148.437 22.411ZM150.249 26.104L148.407 26.898C148.665 27.498 148.907 28.106 149.137 28.712L151.015 28.012C150.777 27.374 150.518 26.733 150.248 26.105L150.249 26.104ZM143.787 15.642L142.251 16.932C142.668 17.432 143.079 17.943 143.473 18.461L145.073 17.248C144.656 16.705 144.224 16.163 143.787 15.642ZM133.533 9.105C134.067 9.463 134.605 9.843 135.133 10.234L136.328 8.623C135.776 8.214 135.212 7.815 134.651 7.439L133.533 9.105ZM115.371 2.305C116.012 2.383 116.662 2.479 117.304 2.589L117.643 0.612C116.969 0.496 116.286 0.396 115.613 0.312L115.371 2.305ZM122.999 3.99C123.615 4.19 124.237 4.405 124.847 4.634L125.547 2.756C124.907 2.516 124.256 2.289 123.61 2.081L122.999 3.99ZM119.224 2.966C119.85 3.104 120.489 3.261 121.124 3.433L121.649 1.498C120.985 1.317 120.314 1.152 119.656 1.008L119.224 2.966ZM130.185 7.076C130.75 7.384 131.321 7.712 131.885 8.052L132.925 6.338C132.337 5.981 131.739 5.638 131.146 5.315L130.185 7.076ZM126.662 5.364C127.257 5.62 127.856 5.893 128.442 6.179L129.318 4.379C128.703 4.079 128.076 3.794 127.453 3.526L126.662 5.364Z" fill="#F2EDE6"/>
</g>
<g opacity="0.5">
<path d="M90.7232 179.088C91.3292 179.405 91.9482 179.71 92.5632 179.995L93.4072 178.176C92.8212 177.904 92.2302 177.613 91.6522 177.31L90.7232 179.088ZM106.336 183.807C107.011 183.877 107.699 183.931 108.38 183.968L108.488 181.968C107.839 181.934 107.188 181.882 106.542 181.815L106.336 183.807ZM87.1792 177.022C87.7522 177.392 88.3402 177.754 88.9272 178.095L89.9362 176.362C89.3762 176.035 88.8153 175.691 88.2682 175.337L87.1792 177.022ZM102.279 183.191C102.944 183.325 103.624 183.445 104.298 183.548L104.598 181.565C103.955 181.465 103.307 181.353 102.674 181.225L102.279 183.191ZM94.4382 180.817C95.0712 181.075 95.7162 181.317 96.3552 181.548L97.0252 179.657C96.4162 179.441 95.8012 179.207 95.1982 178.957L94.4382 180.817ZM98.3032 182.189C98.9482 182.389 99.6132 182.568 100.278 182.737L100.769 180.793C100.133 180.632 99.4992 180.456 98.8832 180.27L98.3032 182.189ZM83.8382 174.635C84.3752 175.059 84.9272 175.473 85.4792 175.867L86.6452 174.235C86.1182 173.859 85.5912 173.463 85.0792 173.06L83.8382 174.635ZM71.6242 154.181L69.7242 154.827C69.9442 155.474 70.1832 156.127 70.4342 156.755L72.2982 156.016C72.0682 155.413 71.8402 154.796 71.6312 154.181H71.6242ZM73.0672 157.819L71.2412 158.649C71.5232 159.268 71.8242 159.891 72.1412 160.5L73.9242 159.582C73.6292 159.003 73.3422 158.409 73.0742 157.819H73.0672ZM80.7362 171.949C81.2252 172.414 81.7362 172.877 82.2552 173.328L83.5692 171.813C83.0692 171.382 82.5852 170.939 82.1182 170.495L80.7362 171.949ZM70.5472 150.422L68.5942 150.879C68.7502 151.545 68.9242 152.213 69.1112 152.867L71.0392 152.315C70.8672 151.692 70.7022 151.055 70.5542 150.422H70.5472ZM77.8982 168.984C78.3472 169.499 78.8122 170.009 79.2832 170.5L80.7322 169.113C80.2842 168.645 79.8402 168.158 79.4122 167.666L77.8982 168.984ZM76.9832 164.592L75.3522 165.759C75.7522 166.315 76.1652 166.867 76.5872 167.4L78.1602 166.157C77.7652 165.648 77.3692 165.122 76.9902 164.592H76.9832ZM74.8602 161.301L73.1242 162.301C73.4662 162.893 73.8242 163.483 74.1962 164.055L75.8822 162.968C75.5372 162.428 75.1932 161.865 74.8672 161.303L74.8602 161.301ZM122.026 180.376L122.597 182.299C123.249 182.105 123.907 181.892 124.553 181.665L123.889 179.773C123.28 179.989 122.654 180.192 122.033 180.376H122.026ZM143.906 164.684L145.537 165.85C145.937 165.296 146.321 164.725 146.69 164.15L145.005 163.062C144.661 163.611 144.291 164.156 143.913 164.685L143.906 164.684ZM141.484 167.76L142.999 169.074C143.446 168.559 143.886 168.027 144.307 167.492L142.732 166.251C142.337 166.761 141.918 167.268 141.491 167.761L141.484 167.76ZM146.027 161.396L147.762 162.403C148.104 161.815 148.435 161.21 148.749 160.603L146.968 159.681C146.677 160.26 146.36 160.836 146.035 161.397L146.027 161.396ZM138.784 170.596L140.171 172.044C140.663 171.573 141.15 171.085 141.62 170.591L140.167 169.208C139.723 169.681 139.261 170.147 138.791 170.597L138.784 170.596ZM149.869 152.434C149.687 153.058 149.488 153.684 149.277 154.296L151.177 154.95C151.399 154.308 151.608 153.65 151.798 152.995L149.869 152.434ZM110.669 182.024H110.442L110.425 184.03H110.669C111.269 184.03 111.874 184.017 112.482 183.992L112.396 181.992C111.824 182.014 111.251 182.025 110.676 182.025L110.669 182.024ZM147.824 157.924L149.647 158.76C149.931 158.14 150.203 157.505 150.456 156.874L148.594 156.128C148.362 156.729 148.102 157.333 147.832 157.924H147.824ZM125.724 179.079L126.479 180.937C127.104 180.683 127.737 180.408 128.363 180.119L127.521 178.299C126.923 178.575 126.323 178.838 125.723 179.079H125.724ZM118.224 181.305L118.605 183.274C119.277 183.144 119.953 182.997 120.614 182.835L120.137 180.887C119.513 181.041 118.869 181.182 118.229 181.303L118.224 181.305ZM114.349 181.856L114.534 183.856C115.205 183.794 115.891 183.714 116.573 183.618L116.294 181.632C115.648 181.721 114.994 181.797 114.354 181.857L114.349 181.856ZM135.833 173.169L137.079 174.741C137.607 174.322 138.138 173.882 138.657 173.43L137.341 171.917C136.85 172.349 136.343 172.77 135.839 173.17L135.833 173.169ZM129.274 177.432L130.203 179.209C130.809 178.893 131.414 178.557 132.003 178.215L130.99 176.484C130.434 176.811 129.857 177.131 129.279 177.433L129.274 177.432ZM132.655 175.455L133.747 177.137C134.32 176.765 134.89 176.375 135.447 175.978L134.276 174.35C133.749 174.729 133.205 175.103 132.66 175.456L132.655 175.455Z" fill="#F2EDE6"/>
</g>
<defs>
<linearGradient id="paint0_linear_533_5510" x1="107.039" y1="75.3561" x2="127.761" y2="85.1899" gradientUnits="userSpaceOnUse">
<stop stop-color="#A58969"/>
<stop offset="1" stop-color="#C7B664"/>
</linearGradient>
<linearGradient id="paint1_linear_533_5510" x1="106.987" y1="94.5424" x2="131.445" y2="107.983" gradientUnits="userSpaceOnUse">
<stop stop-color="#A58969"/>
<stop offset="1" stop-color="#C7B664"/>
</linearGradient>
<linearGradient id="paint2_linear_533_5510" x1="46.363" y1="34.6295" x2="243.905" y2="123.237" gradientUnits="userSpaceOnUse">
<stop stop-color="#A58969"/>
<stop offset="1" stop-color="#C7B664"/>
</linearGradient>
</defs>
</svg>
