<svg width="185" height="145" viewBox="0 0 185 145" fill="none" xmlns="http://www.w3.org/2000/svg">
<g opacity="0.272">
<path d="M41.7488 133.977C60.0371 133.977 74.8627 119.151 74.8627 100.863C74.8627 82.5746 60.0371 67.749 41.7488 67.749C23.4604 67.749 8.63477 82.5746 8.63477 100.863C8.63477 119.151 23.4604 133.977 41.7488 133.977Z" fill="url(#paint0_linear_3083_14426)"/>
<path d="M50.8238 143.215C51.2597 143.568 51.7905 143.784 52.349 143.835C52.9076 143.886 53.4688 143.771 53.9618 143.503C54.4548 143.236 54.8573 142.828 55.1186 142.332C55.3798 141.835 55.488 141.273 55.4295 140.715C55.371 140.157 55.1484 139.629 54.7899 139.198C54.4313 138.766 53.9529 138.451 53.4152 138.291C52.8774 138.132 52.3044 138.135 51.7687 138.302C51.233 138.468 50.7585 138.789 50.4053 139.225C49.9319 139.809 49.71 140.558 49.7884 141.306C49.8669 142.055 50.2393 142.741 50.8238 143.215Z" fill="url(#paint1_linear_3083_14426)"/>
<path d="M61.0183 137.225C61.3161 137.466 61.6787 137.613 62.0603 137.649C62.4419 137.684 62.8253 137.605 63.1621 137.422C63.4989 137.239 63.7738 136.96 63.9523 136.621C64.1307 136.282 64.2045 135.898 64.1645 135.517C64.1244 135.136 63.9723 134.775 63.7272 134.48C63.4822 134.186 63.1553 133.97 62.7879 133.861C62.4204 133.753 62.029 133.755 61.663 133.869C61.2971 133.982 60.973 134.202 60.7319 134.5C60.4085 134.899 60.257 135.411 60.3107 135.922C60.3644 136.433 60.6189 136.902 61.0183 137.225Z" fill="url(#paint2_linear_3083_14426)"/>
<path d="M3.59752 91.6618C4.30905 91.6618 5.00459 91.4508 5.5962 91.0555C6.18781 90.6602 6.64892 90.0984 6.92121 89.441C7.19349 88.7837 7.26474 88.0603 7.12592 87.3625C6.98711 86.6646 6.64448 86.0236 6.14136 85.5205C5.63824 85.0174 4.99722 84.6747 4.29937 84.5359C3.60152 84.3971 2.87817 84.4684 2.22081 84.7406C1.56345 85.0129 1.00159 85.474 0.606292 86.0656C0.210991 86.6572 0 87.3528 0 88.0643C0 89.0184 0.379023 89.9335 1.05369 90.6081C1.72836 91.2828 2.6434 91.6618 3.59752 91.6618Z" fill="url(#paint3_linear_3083_14426)"/>
</g>
<g opacity="0.272">
<path d="M170.191 33.9499C175.598 29.8758 176.679 22.1896 172.605 16.7823C168.531 11.375 160.845 10.2942 155.437 14.3683C150.03 18.4424 148.949 26.1286 153.023 31.5359C157.097 36.9432 164.784 38.024 170.191 33.9499Z" fill="url(#paint4_linear_3083_14426)"/>
<path d="M169.566 38.7014C169.516 38.9029 169.407 39.085 169.253 39.2246C169.1 39.3642 168.908 39.4551 168.703 39.4858C168.497 39.5165 168.287 39.4856 168.099 39.397C167.912 39.3084 167.754 39.1661 167.647 38.988C167.54 38.81 167.489 38.6043 167.499 38.3969C167.509 38.1894 167.58 37.9896 167.703 37.8227C167.827 37.6558 167.997 37.5292 168.193 37.4591C168.388 37.3889 168.6 37.3783 168.802 37.4285C169.072 37.4959 169.304 37.6679 169.447 37.9066C169.591 38.1453 169.634 38.4312 169.566 38.7014Z" fill="url(#paint5_linear_3083_14426)"/>
<path d="M165.217 39.1998C165.183 39.3373 165.109 39.4615 165.004 39.5567C164.899 39.652 164.768 39.714 164.628 39.7349C164.488 39.7558 164.345 39.7348 164.217 39.6743C164.089 39.6139 163.981 39.5168 163.908 39.3954C163.835 39.2739 163.8 39.1336 163.807 38.9921C163.814 38.8506 163.862 38.7143 163.947 38.6004C164.031 38.4866 164.147 38.4002 164.28 38.3524C164.414 38.3045 164.558 38.2973 164.696 38.3316C164.88 38.3778 165.038 38.4952 165.136 38.6579C165.234 38.8207 165.263 39.0156 165.217 39.1998Z" fill="url(#paint6_linear_3083_14426)"/>
<path d="M172.042 12.9387C171.832 13.0971 171.58 13.1896 171.317 13.2046C171.054 13.2195 170.792 13.1561 170.566 13.0224C170.339 12.8888 170.157 12.6909 170.042 12.4537C169.928 12.2165 169.886 11.9508 169.923 11.6901C169.96 11.4293 170.073 11.1853 170.248 10.9889C170.424 10.7925 170.653 10.6525 170.908 10.5866C171.163 10.5207 171.432 10.5318 171.68 10.6186C171.929 10.7055 172.146 10.864 172.305 11.0743C172.517 11.3563 172.609 11.7112 172.56 12.0608C172.51 12.4104 172.324 12.7262 172.042 12.9387Z" fill="url(#paint7_linear_3083_14426)"/>
</g>
<path d="M100.988 129.143C136.65 129.143 165.559 100.233 165.559 64.5715C165.559 28.9097 136.65 0 100.988 0C65.3258 0 36.416 28.9097 36.416 64.5715C36.416 100.233 65.3258 129.143 100.988 129.143Z" fill="#F6F2ED"/>
<path d="M100.988 127.893C135.959 127.893 164.309 99.543 164.309 64.5715C164.309 29.6 135.959 1.25 100.988 1.25C66.0161 1.25 37.666 29.6 37.666 64.5715C37.666 99.543 66.0161 127.893 100.988 127.893Z" stroke="#272421" stroke-width="2"/>
<path d="M160.773 65.2075C160.785 73.1236 159.222 80.963 156.175 88.269C153.127 95.575 148.657 102.202 143.023 107.763C137.523 113.241 130.994 117.577 123.811 120.522C116.629 123.468 108.935 124.964 101.173 124.925C89.3563 124.948 77.7986 121.466 67.9624 114.918C58.1261 108.37 50.4535 99.0512 45.9155 88.141C41.3775 77.2307 40.1782 65.2195 42.4693 53.6274C44.7603 42.0353 50.4389 31.3834 58.7862 23.0198C67.1335 14.6563 77.7743 8.95693 89.362 6.64326C100.95 4.32959 112.963 5.50563 123.882 10.0223C134.801 14.539 144.135 22.1935 150.702 32.0169C157.269 41.8403 160.775 53.3912 160.774 65.2075H160.773Z" fill="url(#paint8_linear_3083_14426)"/>
<path d="M101.205 119.91C131.556 119.91 156.161 95.3062 156.161 64.9552C156.161 34.6043 131.556 10 101.205 10C70.8544 10 46.25 34.6043 46.25 64.9552C46.25 95.3062 70.8544 119.91 101.205 119.91Z" fill="#F6F2ED"/>
<path d="M101.205 118.66C130.866 118.66 154.911 94.6158 154.911 64.9552C154.911 35.2947 130.866 11.25 101.205 11.25C71.5447 11.25 47.5 35.2947 47.5 64.9552C47.5 94.6158 71.5447 118.66 101.205 118.66Z" stroke="#272421" stroke-width="2"/>
<path d="M101.32 18.726C75.8839 18.726 55.2637 39.3461 55.2637 64.7824C55.2637 90.2187 75.8839 110.839 101.32 110.839C126.757 110.839 147.377 90.2187 147.377 64.7824C147.377 39.3461 126.757 18.726 101.32 18.726Z" stroke="url(#paint9_linear_3083_14426)" stroke-width="1.5" stroke-dasharray="1.5 1.5"/>
<path d="M106.024 82.5488C105.868 82.5497 105.714 82.5199 105.57 82.461C105.426 82.4022 105.295 82.3155 105.184 82.206L98.0923 75.1138C97.9827 75.0034 97.8961 74.8724 97.8373 74.7284C97.7784 74.5843 97.7486 74.4301 97.7495 74.2746C97.7476 74.1209 97.7757 73.9683 97.8323 73.8254C97.9217 73.6077 98.0741 73.4216 98.2699 73.291C98.4658 73.1605 98.6962 73.0914 98.9315 73.0925L102.478 73.0925L102.478 62.4543C102.478 62.1408 102.602 61.8401 102.824 61.6185C103.046 61.3968 103.346 61.2723 103.66 61.2723L108.388 61.2723C108.701 61.2723 109.002 61.3968 109.224 61.6185C109.445 61.8401 109.57 62.1408 109.57 62.4543L109.57 73.0925L113.116 73.0925C113.35 73.0935 113.578 73.1638 113.772 73.2945C113.966 73.4252 114.116 73.6104 114.205 73.8268C114.293 74.0431 114.316 74.2809 114.269 74.5099C114.223 74.739 114.109 74.9492 113.943 75.1138L106.851 82.206C106.631 82.4244 106.334 82.5475 106.024 82.5488ZM100.114 67.1824L100.114 56.5441L103.66 56.5441C103.893 56.543 104.121 56.4728 104.314 56.3423C104.508 56.2119 104.658 56.0271 104.747 55.8113C104.838 55.596 104.862 55.3588 104.818 55.1295C104.774 54.9002 104.663 54.6891 104.499 54.5229L97.4067 47.4307C97.2963 47.3211 97.1653 47.2345 97.0213 47.1757C96.8773 47.1168 96.723 47.087 96.5675 47.0879C96.4119 47.087 96.2577 47.1168 96.1137 47.1757C95.9697 47.2345 95.8387 47.3211 95.7282 47.4307L88.6361 54.5229C88.5265 54.6333 88.4398 54.7643 88.381 54.9083C88.3222 55.0523 88.2924 55.2065 88.2933 55.3621C88.2893 55.5172 88.3217 55.671 88.3878 55.8113C88.4765 56.0271 88.6271 56.2119 88.8206 56.3423C89.0142 56.4728 89.2419 56.543 89.4753 56.5441L93.0214 56.5441L93.0214 67.1824C93.0214 67.4959 93.1459 67.7965 93.3676 68.0182C93.5893 68.2399 93.8899 68.3644 94.2034 68.3644L98.9315 68.3644C99.245 68.3644 99.5457 68.2399 99.7674 68.0182C99.989 67.7965 100.114 67.4959 100.114 67.1824Z" fill="url(#paint10_linear_3083_14426)"/>
<defs>
<linearGradient id="paint0_linear_3083_14426" x1="7.62365" y1="70.8764" x2="112.406" y2="117.89" gradientUnits="userSpaceOnUse">
<stop stop-color="#846E55"/>
<stop offset="1" stop-color="#B3A55C"/>
</linearGradient>
<linearGradient id="paint1_linear_3083_14426" x1="51.9536" y1="137.175" x2="56.3942" y2="145.953" gradientUnits="userSpaceOnUse">
<stop stop-color="#846E55"/>
<stop offset="1" stop-color="#B3A55C"/>
</linearGradient>
<linearGradient id="paint2_linear_3083_14426" x1="61.79" y1="133.099" x2="64.8235" y2="139.095" gradientUnits="userSpaceOnUse">
<stop stop-color="#846E55"/>
<stop offset="1" stop-color="#B3A55C"/>
</linearGradient>
<linearGradient id="paint3_linear_3083_14426" x1="-0.109848" y1="84.8066" x2="11.2738" y2="89.9141" gradientUnits="userSpaceOnUse">
<stop stop-color="#846E55"/>
<stop offset="1" stop-color="#B3A55C"/>
</linearGradient>
<linearGradient id="paint4_linear_3083_14426" x1="146.044" y1="22.895" x2="187.498" y2="13.453" gradientUnits="userSpaceOnUse">
<stop stop-color="#846E55"/>
<stop offset="1" stop-color="#B3A55C"/>
</linearGradient>
<linearGradient id="paint5_linear_3083_14426" x1="169.732" y1="37.6275" x2="167.481" y2="40.4905" gradientUnits="userSpaceOnUse">
<stop stop-color="#846E55"/>
<stop offset="1" stop-color="#B3A55C"/>
</linearGradient>
<linearGradient id="paint6_linear_3083_14426" x1="165.33" y1="38.4673" x2="163.795" y2="40.4203" gradientUnits="userSpaceOnUse">
<stop stop-color="#846E55"/>
<stop offset="1" stop-color="#B3A55C"/>
</linearGradient>
<linearGradient id="paint7_linear_3083_14426" x1="169.42" y1="11.7382" x2="173.922" y2="10.7128" gradientUnits="userSpaceOnUse">
<stop stop-color="#846E55"/>
<stop offset="1" stop-color="#B3A55C"/>
</linearGradient>
<linearGradient id="paint8_linear_3083_14426" x1="39.5125" y1="11.1275" x2="228.482" y2="95.9133" gradientUnits="userSpaceOnUse">
<stop stop-color="#846E55"/>
<stop offset="1" stop-color="#B3A55C"/>
</linearGradient>
<linearGradient id="paint9_linear_3083_14426" x1="59.6135" y1="112.245" x2="125.002" y2="-33.4913" gradientUnits="userSpaceOnUse">
<stop stop-color="#846E55"/>
<stop offset="1" stop-color="#B3A55C"/>
</linearGradient>
<linearGradient id="paint10_linear_3083_14426" x1="113.065" y1="46.5465" x2="83.058" y2="95.5827" gradientUnits="userSpaceOnUse">
<stop stop-color="#846E55"/>
<stop offset="1" stop-color="#B3A55C"/>
</linearGradient>
</defs>
</svg>
