<svg width="17" height="16" viewBox="0 0 17 16" fill="none" xmlns="http://www.w3.org/2000/svg">
<path fill-rule="evenodd" clip-rule="evenodd" d="M11.7976 14.4882C11.9068 14.4882 12.0116 14.4448 12.0889 14.3676C12.1661 14.2903 12.2095 14.1855 12.2095 14.0763C12.2095 13.967 12.1661 13.8623 12.0889 13.785C12.0116 13.7077 11.9068 13.6643 11.7976 13.6643C11.6883 13.6643 11.5836 13.7077 11.5063 13.785C11.429 13.8623 11.3856 13.967 11.3856 14.0763C11.3856 14.1855 11.429 14.2903 11.5063 14.3676C11.5836 14.4448 11.6883 14.4882 11.7976 14.4882ZM11.7976 15.7241C12.2346 15.7241 12.6537 15.5505 12.9628 15.2415C13.2718 14.9324 13.4454 14.5133 13.4454 14.0763C13.4454 13.6393 13.2718 13.2201 12.9628 12.9111C12.6537 12.6021 12.2346 12.4285 11.7976 12.4285C11.3606 12.4285 10.9414 12.6021 10.6324 12.9111C10.3234 13.2201 10.1498 13.6393 10.1498 14.0763C10.1498 14.5133 10.3234 14.9324 10.6324 15.2415C10.9414 15.5505 11.3606 15.7241 11.7976 15.7241ZM6.85414 14.4882C6.9634 14.4882 7.06818 14.4448 7.14544 14.3676C7.2227 14.2903 7.2661 14.1855 7.2661 14.0763C7.2661 13.967 7.2227 13.8623 7.14544 13.785C7.06818 13.7077 6.9634 13.6643 6.85414 13.6643C6.74489 13.6643 6.6401 13.7077 6.56285 13.785C6.48559 13.8623 6.44219 13.967 6.44219 14.0763C6.44219 14.1855 6.48559 14.2903 6.56285 14.3676C6.6401 14.4448 6.74489 14.4882 6.85414 14.4882ZM6.85414 15.7241C7.29117 15.7241 7.7103 15.5505 8.01933 15.2415C8.32835 14.9324 8.50196 14.5133 8.50196 14.0763C8.50196 13.6393 8.32835 13.2201 8.01933 12.9111C7.7103 12.6021 7.29117 12.4285 6.85414 12.4285C6.41712 12.4285 5.99799 12.6021 5.68896 12.9111C5.37994 13.2201 5.20633 13.6393 5.20633 14.0763C5.20633 14.5133 5.37994 14.9324 5.68896 15.2415C5.99799 15.5505 6.41712 15.7241 6.85414 15.7241ZM0.984622 0.551015C1.07553 0.41467 1.21687 0.320019 1.37757 0.287881C1.53826 0.255743 1.70513 0.28875 1.84149 0.379642L2.80381 1.02105C3.11128 1.22596 3.32834 1.54109 3.41021 1.9014L5.1054 9.36106C5.15714 9.58875 5.28471 9.7921 5.4672 9.93775C5.64969 10.0834 5.87625 10.1627 6.10974 10.1627H12.542C12.7755 10.1627 13.002 10.0834 13.1845 9.93775C13.367 9.7921 13.4946 9.58875 13.5463 9.36106L14.8572 3.59371C14.8914 3.44291 14.8913 3.28633 14.8568 3.13559C14.8223 2.98485 14.7542 2.84381 14.6578 2.72296C14.5613 2.6021 14.4388 2.50452 14.2995 2.43746C14.1601 2.37041 14.0075 2.33559 13.8528 2.3356H7.47207C7.30819 2.3356 7.15102 2.2705 7.03513 2.15461C6.91925 2.03873 6.85414 1.88155 6.85414 1.71767C6.85414 1.55378 6.91925 1.39661 7.03513 1.28073C7.15102 1.16484 7.30819 1.09974 7.47207 1.09974H13.8528C15.307 1.09974 16.3843 2.44971 16.0621 3.86766L14.7513 9.63501C14.6374 10.1358 14.3567 10.583 13.9553 10.9034C13.5539 11.2237 13.0556 11.3982 12.542 11.3982H6.10974C5.59617 11.3982 5.09784 11.2237 4.69643 10.9034C4.29502 10.583 4.01435 10.1358 3.90043 9.63501L2.20483 2.17494C2.19314 2.12353 2.16217 2.07856 2.11832 2.04929L1.156 1.40788C1.01965 1.31697 0.925 1.17563 0.892862 1.01494C0.860724 0.854246 0.89373 0.687371 0.984622 0.551015Z" fill="url(#paint0_linear_3672_32128)"/>
<path d="M8.22529 14.0765C8.22529 13.7126 8.08065 13.364 7.82336 13.1067C7.56607 12.8494 7.21738 12.7048 6.85353 12.7048C6.48975 12.7048 6.14094 12.8495 5.88371 13.1067C5.62655 13.364 5.48177 13.7128 5.48177 14.0765C5.48182 14.4403 5.62648 14.7891 5.88371 15.0463C6.14094 15.3036 6.48975 15.4482 6.85353 15.4483C7.21729 15.4483 7.56608 15.3035 7.82336 15.0463C8.0806 14.7891 8.22524 14.4403 8.22529 14.0765ZM13.1692 14.0765C13.1692 13.7128 13.0245 13.364 12.7673 13.1067C12.5101 12.8495 12.1613 12.7048 11.7975 12.7048C11.4336 12.7048 11.0839 12.8494 10.8266 13.1067C10.5696 13.3639 10.4257 13.7129 10.4257 14.0765C10.4258 14.4402 10.5695 14.7891 10.8266 15.0463C11.0839 15.3036 11.4336 15.4483 11.7975 15.4483C12.1613 15.4482 12.5101 15.3036 12.7673 15.0463C13.0245 14.7891 13.1692 14.4403 13.1692 14.0765ZM6.99038 14.0765C6.99038 14.0407 6.97571 14.0061 6.95051 13.9806C6.92499 13.9551 6.88963 13.9407 6.85353 13.9407C6.81752 13.9408 6.78309 13.9551 6.75763 13.9806C6.73224 14.0061 6.71775 14.0405 6.71775 14.0765C6.71781 14.1125 6.73216 14.1469 6.75763 14.1724C6.78309 14.1979 6.81752 14.2122 6.85353 14.2123C6.88963 14.2123 6.92499 14.1979 6.95051 14.1724C6.97579 14.147 6.99033 14.1124 6.99038 14.0765ZM11.9333 14.0765C11.9333 14.0405 11.9188 14.0061 11.8934 13.9806C11.8679 13.9551 11.8335 13.9408 11.7975 13.9407C11.7614 13.9407 11.726 13.9551 11.7005 13.9806C11.6753 14.0061 11.6606 14.0407 11.6606 14.0765C11.6607 14.1124 11.6752 14.147 11.7005 14.1724C11.726 14.1979 11.7614 14.2123 11.7975 14.2123C11.8335 14.2122 11.8679 14.1979 11.8934 14.1724C11.9188 14.1469 11.9332 14.1125 11.9333 14.0765ZM1.32337 0.0172897C1.55552 -0.0290593 1.79657 0.0186607 1.99363 0.149832L2.95484 0.790994H2.95591C3.3222 1.03511 3.58144 1.41132 3.67897 1.84056L5.37401 9.29959C5.41189 9.46629 5.50549 9.61536 5.63909 9.722C5.77258 9.82855 5.93813 9.88678 6.10892 9.88687H12.5421C12.7129 9.88678 12.8784 9.82855 13.0119 9.722C13.1455 9.61536 13.2391 9.46629 13.277 9.29959L14.5873 3.53237C14.6124 3.422 14.6126 3.30756 14.5873 3.19724C14.5621 3.08699 14.5124 2.98393 14.4419 2.89551C14.3714 2.8072 14.2818 2.73555 14.18 2.68646C14.078 2.63737 13.9657 2.61102 13.8524 2.61103H7.47206C7.23501 2.61103 7.00714 2.5168 6.83952 2.34918C6.67213 2.1816 6.57767 1.95459 6.57767 1.71772C6.57767 1.48067 6.6719 1.25279 6.83952 1.08517C7.00712 0.917663 7.2351 0.824399 7.47206 0.824399H13.8524C15.4837 0.824399 16.6922 2.33841 16.3309 3.92892L15.0195 9.69614C14.8917 10.2577 14.5773 10.7592 14.1272 11.1185C13.6771 11.4778 13.118 11.6745 12.5421 11.6746H6.10892C5.53298 11.6745 4.97396 11.4778 4.5238 11.1185C4.0737 10.7592 3.75932 10.2577 3.63156 9.69614L1.94083 2.26297L1.00225 1.63797V1.6369C0.805299 1.50539 0.668316 1.30125 0.621868 1.06901C0.575409 0.836608 0.622957 0.594883 0.754411 0.397676C0.885905 0.200509 1.09098 0.0637684 1.32337 0.0172897ZM7.54211 14.0765C7.54206 14.2587 7.46934 14.4336 7.3406 14.5625C7.21161 14.6915 7.03595 14.764 6.85353 14.764C6.6712 14.7639 6.49647 14.6914 6.36754 14.5625C6.23861 14.4336 6.16608 14.2589 6.16603 14.0765C6.16603 13.8941 6.23855 13.7184 6.36754 13.5894C6.49644 13.4607 6.67135 13.3891 6.85353 13.389C7.03594 13.389 7.21161 13.4605 7.3406 13.5894C7.46959 13.7184 7.54211 13.8941 7.54211 14.0765ZM8.77702 14.0765C8.77697 14.5865 8.57503 15.0757 8.21452 15.4364C7.85376 15.7972 7.36372 16 6.85353 16C6.34343 15.9999 5.85432 15.7971 5.49362 15.4364C5.13292 15.0757 4.9301 14.5866 4.93004 14.0765C4.93004 13.5664 5.133 13.0773 5.49362 12.7166C5.85432 12.3559 6.34343 12.1531 6.85353 12.153C7.36372 12.153 7.85376 12.3558 8.21452 12.7166C8.57496 13.0773 8.77702 13.5666 8.77702 14.0765ZM12.485 14.0765C12.4849 14.2588 12.4124 14.4336 12.2835 14.5625C12.1545 14.6914 11.9798 14.7639 11.7975 14.764C11.6151 14.764 11.4394 14.6915 11.3104 14.5625C11.1817 14.4336 11.109 14.2587 11.1089 14.0765C11.1089 13.8941 11.1814 13.7184 11.3104 13.5894C11.4394 13.4605 11.6151 13.389 11.7975 13.389C11.9797 13.3891 12.1546 13.4607 12.2835 13.5894C12.4125 13.7184 12.485 13.8941 12.485 14.0765ZM13.721 14.0765C13.7209 14.5866 13.5181 15.0757 13.1574 15.4364C12.7967 15.7971 12.3076 15.9999 11.7975 16C11.2873 16 10.7973 15.7972 10.4365 15.4364C10.076 15.0757 9.87405 14.5865 9.874 14.0765C9.874 13.5666 10.0761 13.0773 10.4365 12.7166C10.7973 12.3558 11.2873 12.153 11.7975 12.153C12.3076 12.1531 12.7967 12.3559 13.1574 12.7166C13.518 13.0773 13.721 13.5664 13.721 14.0765ZM7.12939 1.71772C7.1294 1.80827 7.16568 1.89498 7.22961 1.95909C7.29376 2.02324 7.38134 2.05931 7.47206 2.05931H13.8524C14.0485 2.0593 14.2426 2.1036 14.4192 2.18862C14.5957 2.2736 14.7507 2.39762 14.8729 2.55069C14.9952 2.70392 15.0813 2.88328 15.1251 3.07439C15.1688 3.26543 15.1696 3.46411 15.1261 3.65521L13.8147 9.42243C13.7491 9.71081 13.5878 9.96844 13.3567 10.153C13.1255 10.3376 12.838 10.4385 12.5421 10.4386H6.10892C5.81305 10.4385 5.52551 10.3376 5.29427 10.153C5.06321 9.96844 4.90189 9.71081 4.8363 9.42243L3.14126 1.96233C3.07508 1.67123 2.89926 1.41681 2.65096 1.25112L1.6876 0.608883C1.61221 0.558823 1.51989 0.540485 1.43113 0.558236C1.34227 0.576042 1.26377 0.628328 1.21346 0.70371C1.16315 0.779193 1.14502 0.872298 1.16281 0.961252C1.18057 1.04958 1.2325 1.12756 1.30721 1.17785H1.30829L2.27057 1.82009C2.34762 1.8715 2.40843 1.9433 2.44514 2.02698L2.47316 2.11427L4.16927 9.57437C4.2694 10.014 4.51623 10.4063 4.86862 10.6875C5.22101 10.9687 5.65811 11.1228 6.10892 11.1229H12.5421C12.9929 11.1228 13.43 10.9687 13.7824 10.6875C14.1348 10.4063 14.3816 10.014 14.4817 9.57437L15.7932 3.80607C16.0757 2.56089 15.1294 1.37612 13.8524 1.37612H7.47206C7.38134 1.37612 7.29376 1.41219 7.22961 1.47634C7.16569 1.54045 7.12939 1.62717 7.12939 1.71772Z" fill="url(#paint1_linear_3672_32128)"/>
<path fill-rule="evenodd" clip-rule="evenodd" d="M6.84987 6.27368C6.96568 6.15791 7.1227 6.09284 7.28645 6.09276C7.45021 6.09268 7.60729 6.15761 7.72321 6.27327L8.45237 7.00119L10.9282 4.52535C10.9852 4.46636 11.0535 4.41932 11.1289 4.38697C11.2043 4.35462 11.2854 4.33761 11.3674 4.33693C11.4495 4.33626 11.5308 4.35193 11.6067 4.38304C11.6827 4.41415 11.7516 4.46006 11.8096 4.51811C11.8676 4.57615 11.9135 4.64517 11.9445 4.72112C11.9755 4.79708 11.9911 4.87846 11.9904 4.9605C11.9896 5.04255 11.9725 5.12363 11.9401 5.199C11.9077 5.27438 11.8606 5.34254 11.8016 5.39952L8.88904 8.31203C8.77318 8.42775 8.61612 8.49275 8.45237 8.49275C8.28862 8.49275 8.13156 8.42775 8.0157 8.31203L6.84987 7.14744C6.73402 7.03156 6.66895 6.87441 6.66895 6.71056C6.66895 6.54671 6.73402 6.38956 6.84987 6.27368Z" fill="url(#paint2_linear_3672_32128)"/>
<path d="M11.3645 4.06155C11.4831 4.06058 11.6007 4.08345 11.7105 4.12836C11.8203 4.17336 11.9207 4.23945 12.0046 4.32341C12.0885 4.40735 12.1548 4.50775 12.1997 4.61759C12.2445 4.72733 12.2665 4.84496 12.2654 4.96349C12.2643 5.08209 12.24 5.19936 12.1932 5.30832C12.147 5.41584 12.0787 5.51217 11.9949 5.59388L11.996 5.59495L9.0833 8.50766C8.91572 8.675 8.68867 8.76951 8.45184 8.76951C8.21501 8.76951 7.98795 8.67501 7.82038 8.50766L6.65443 7.34279C6.48694 7.17525 6.39265 6.94823 6.39258 6.71133C6.39258 6.47433 6.48687 6.2464 6.65443 6.07879C6.82192 5.91146 7.04913 5.81705 7.28589 5.81694C7.49308 5.81686 7.69261 5.88953 7.85163 6.01952L7.91736 6.07879L8.45076 6.61111L10.7331 4.33095C10.8149 4.24725 10.9121 4.1799 11.0197 4.13375C11.1287 4.08702 11.246 4.06254 11.3645 4.06155ZM6.9443 6.71133C6.94437 6.80191 6.98049 6.88863 7.04452 6.95271L8.21046 8.11758C8.27457 8.18145 8.36133 8.21778 8.45184 8.21779C8.54235 8.21779 8.62911 8.18145 8.69322 8.11758L11.6092 5.20164C11.6418 5.1701 11.6688 5.13237 11.6867 5.09064C11.7047 5.04894 11.7133 5.00349 11.7137 4.9581C11.714 4.91281 11.706 4.86749 11.6889 4.82556C11.6717 4.78361 11.6455 4.74556 11.6135 4.71349C11.5814 4.6815 11.5433 4.6563 11.5014 4.63914C11.4594 4.62195 11.4142 4.6129 11.3689 4.61328C11.3236 4.61369 11.279 4.62346 11.2374 4.64129C11.1957 4.65919 11.158 4.68518 11.1264 4.7178L8.45184 7.39128L8.2568 7.19732L7.52727 6.46887C7.46314 6.40508 7.37637 6.36862 7.28589 6.36866C7.19543 6.36875 7.10856 6.40499 7.04452 6.46887C6.98039 6.53302 6.9443 6.62063 6.9443 6.71133Z" fill="url(#paint3_linear_3672_32128)"/>
<defs>
<linearGradient id="paint0_linear_3672_32128" x1="0.648209" y1="1.00538" x2="24.8673" y2="11.7244" gradientUnits="userSpaceOnUse">
<stop stop-color="#846E55"/>
<stop offset="1" stop-color="#B3A55C"/>
</linearGradient>
<linearGradient id="paint1_linear_3672_32128" x1="0.363414" y1="0.755556" x2="25.4559" y2="11.8666" gradientUnits="userSpaceOnUse">
<stop stop-color="#846E55"/>
<stop offset="1" stop-color="#B3A55C"/>
</linearGradient>
<linearGradient id="paint2_linear_3672_32128" x1="6.5877" y1="4.53316" x2="14.192" y2="8.90198" gradientUnits="userSpaceOnUse">
<stop stop-color="#846E55"/>
<stop offset="1" stop-color="#B3A55C"/>
</linearGradient>
<linearGradient id="paint3_linear_3672_32128" x1="6.30292" y1="4.28385" x2="14.8026" y2="9.04105" gradientUnits="userSpaceOnUse">
<stop stop-color="#846E55"/>
<stop offset="1" stop-color="#B3A55C"/>
</linearGradient>
</defs>
</svg>
