<svg width="232" height="199" viewBox="0 0 232 199" fill="none" xmlns="http://www.w3.org/2000/svg">
<path d="M220.833 115.872C222.396 115.872 223.662 114.606 223.662 113.043C223.662 111.481 222.396 110.215 220.833 110.215C219.271 110.215 218.005 111.481 218.005 113.043C218.005 114.606 219.271 115.872 220.833 115.872Z" fill="#F6F2ED" fill-opacity="0.32"/>
<path opacity="0.2" d="M218.28 130.162C219.345 130.162 220.385 129.847 221.27 129.255C222.155 128.664 222.844 127.824 223.252 126.84C223.659 125.857 223.765 124.775 223.558 123.732C223.35 122.688 222.838 121.729 222.085 120.976C221.333 120.224 220.374 119.711 219.33 119.504C218.286 119.296 217.204 119.403 216.221 119.81C215.238 120.217 214.398 120.907 213.806 121.792C213.215 122.677 212.899 123.717 212.899 124.781C212.899 126.208 213.466 127.577 214.475 128.586C215.485 129.595 216.853 130.162 218.28 130.162Z" fill="#F6F2ED"/>
<path d="M32.2629 81.2368C34.0823 81.2368 35.5571 79.762 35.5571 77.9426C35.5571 76.1233 34.0823 74.6484 32.2629 74.6484C30.4436 74.6484 28.9688 76.1233 28.9688 77.9426C28.9688 79.762 30.4436 81.2368 32.2629 81.2368Z" fill="#F6F2ED" fill-opacity="0.32"/>
<path d="M195.051 149.288L186.12 152.36L187.925 143.089L195.051 149.288Z" fill="#F6F2ED"/>
<path d="M166.624 42.6829L170.911 50.5601L161.946 50.3347L166.624 42.6829Z" fill="#F6F2ED"/>
<circle opacity="0.6" cx="128.092" cy="109.98" r="73.1912" stroke="#F6F2ED" stroke-dasharray="4 4"/>
<path d="M171.14 70.3384H171.654C175.569 70.3384 179.479 70.3845 183.394 70.3384C184.009 70.3052 184.624 70.4023 185.198 70.6231C185.772 70.8439 186.293 71.1835 186.726 71.6195C187.159 72.0555 187.495 72.5779 187.711 73.1525C187.926 73.7271 188.018 74.3407 187.978 74.9529C187.906 76.2758 187.978 77.5986 187.978 78.9214C187.985 80.0279 187.551 81.092 186.772 81.8802C185.993 82.6684 184.932 83.1163 183.821 83.1258C179.706 83.1565 175.59 83.1258 171.474 83.1258C171.371 83.1258 171.273 83.1258 171.14 83.1258V70.3384Z" fill="#F6F2ED" fill-opacity="0.32"/>
<path d="M168.502 82.4656V70.6782H168.516C169.817 70.6782 171.12 70.6833 172.423 70.6885C175.034 70.6987 177.649 70.709 180.263 70.6782L180.273 70.6781L180.284 70.6775C180.828 70.6481 181.372 70.7341 181.881 70.9296C182.389 71.1252 182.851 71.4258 183.234 71.8117C183.617 72.1976 183.914 72.6599 184.105 73.1681C184.296 73.6764 184.376 74.2192 184.342 74.7606L184.342 74.7606L184.341 74.7656C184.292 75.6649 184.309 76.5796 184.325 77.4726C184.333 77.9088 184.341 78.3398 184.341 78.7613L184.341 78.7644C184.347 79.7379 183.965 80.6745 183.279 81.3685C182.593 82.0625 181.658 82.4573 180.679 82.4656C177.938 82.4861 175.199 82.4793 172.457 82.4725C171.139 82.4692 169.821 82.4659 168.502 82.4656Z" stroke="url(#paint0_linear_533_2559)"/>
<path d="M228.001 65.3693V96.3586C227.997 97.9103 227.377 99.3973 226.276 100.495C225.175 101.592 223.683 102.21 222.126 102.214H200.575C200.153 102.214 199.273 102.214 198.599 102.214H193.254C189.179 102.214 185.104 102.214 181.03 102.214C179.763 102.229 178.507 101.993 177.332 101.521C176.157 101.049 175.088 100.35 174.187 99.4637C173.285 98.5774 172.568 97.5217 172.078 96.3577C171.588 95.1938 171.335 93.9446 171.332 92.6823C171.301 91.0006 171.332 89.324 171.332 87.6422C171.332 87.4423 171.332 87.2423 171.368 86.9757H172.068C174.676 86.9757 177.29 86.9757 179.898 86.9757C180.13 86.9757 186.967 86.868 188.984 85.0222C189.743 84.3713 190.359 83.5714 190.793 82.6724C191.228 81.7734 191.472 80.7947 191.51 79.7975C191.616 77.6482 191.599 75.4947 191.458 73.3474C191.289 71.4999 190.438 69.7806 189.071 68.5219C187.703 67.2633 185.916 66.5547 184.055 66.5332C180.109 66.487 176.163 66.5332 172.222 66.5332H171.378C171.378 66.2819 171.337 66.0871 171.337 65.8923C171.337 64.19 171.337 62.4878 171.337 60.7907C171.352 58.2809 172.359 55.8781 174.14 54.1034C175.921 52.3287 178.331 51.3251 180.85 51.3103C193.386 51.2898 205.925 51.2898 218.468 51.3103C220.987 51.3116 223.402 52.3051 225.189 54.0742C226.976 55.8434 227.988 58.2447 228.006 60.7547C228.006 62.257 228.001 63.8157 228.001 65.3693Z" fill="#F6F2ED" fill-opacity="0.32"/>
<path d="M184.166 101.554L184.171 101.554L184.195 101.554H184.219H184.243H184.267H184.291H184.315H184.339H184.362H184.386H184.41H184.434H184.458H184.482H184.506H184.53H184.553H184.577H184.601H184.625H184.649H184.673H184.697H184.721H184.744H184.768H184.792H184.816H184.84H184.864H184.888H184.912H184.935H184.959H184.983H185.007H185.031H185.055H185.079H185.103H185.126H185.15H185.174H185.198H185.222H185.246H185.27H185.294H185.317H185.341H185.365H185.389H185.413H185.437H185.461H185.485H185.508H185.532H185.556H185.58H185.604H185.628H185.652H185.676H185.699H185.723H185.747H185.771H185.795H185.819H185.843H185.867H185.89H185.914H185.938H185.962H185.986H186.01H186.034H186.058H186.081H186.105H186.129H186.153H186.177H186.201H186.225H186.249H186.272H186.296H186.32H186.344H186.368H186.392H186.416H186.44H186.463H186.487H186.511H186.535H186.559H186.583H186.607H186.631H186.654H186.678H186.702H186.726H186.75H186.774H186.798H186.822H186.845H186.869H186.893H186.917H186.941H186.965H186.989H187.013H187.036H187.06H187.084H187.108H187.132H187.156H187.18H187.204H187.227H187.251H187.275H187.299H187.323H187.347H187.371H187.395H187.418H187.442H187.466H187.49H187.514H187.538H187.562H187.586H187.609H187.633H187.657H187.681H187.705H187.729H187.753H187.777H187.8H187.824H187.848H187.872H187.896H187.92H187.944H187.968H187.991H188.015H188.039H188.063H188.087H188.111H188.135H188.159H188.182H188.206H188.23H188.254H188.278H188.302H188.326H188.35H188.373H188.397H188.421H188.445H188.469H188.493H188.517H188.541H188.564H188.588H188.612H188.636H188.66H188.684H188.708H188.732H188.755H188.779H188.803H188.827H188.851H188.875H188.899H188.923H188.946H188.97H188.994H189.018H189.042H189.066H189.09H189.114H189.137H189.161H189.185H189.209H189.233H189.257H189.281H189.305H189.328H189.352H189.376H189.4H189.424H189.448H189.472H189.496H189.519H189.543H189.567H189.591H189.615H189.639H189.663H189.687H189.71H189.734H189.758H189.782H189.806H189.83H189.854H189.878H189.901H189.925H189.949H189.973H189.997H190.021H190.045H190.069H190.092H190.116H190.14H190.164H190.188H190.212H190.236H190.259H190.283H190.307H190.331H190.355H190.379H190.403H190.427H190.45H190.474H190.498H190.522H190.546H190.57H190.594H190.618H190.641H190.665H190.689H190.713H190.737H190.761H190.785H190.809H190.832H190.856H190.88H190.904H190.928H190.952H190.976H191H191.023H191.047H191.071H191.095H191.119H191.143H191.167H191.191H191.214H191.238H191.262H191.286H191.31H191.334H191.358H191.382H191.405H191.429H191.453H191.477H191.501H191.525H191.549H191.573H191.596H191.62H191.644H191.668H191.692H191.716H191.74H191.764H191.787H191.811H191.835H191.859H191.883H191.907H191.931H191.955H191.978H192.002H192.026H192.05H192.074H192.098H192.122H192.146H192.169H192.193H192.217H192.241H192.265H192.289H192.313H192.337H192.36H192.384H192.408H192.432H192.456H192.48H192.504H192.528H192.551H192.575H192.599H192.623H192.647H192.671H192.695H192.719H192.742H192.766H192.79H192.814H192.838H192.862H192.886H192.91H192.933H192.957H192.981H193.005H193.029H193.053H193.077H193.101H193.124H193.148H193.172H193.196H193.22H193.244H193.268H193.292H193.315H193.339H193.363H193.387H193.411H193.435H193.459H193.483H193.506H193.53H193.554H193.578H193.602H193.626H193.65H193.674H193.697H193.721H193.745H193.769H193.793H193.817H193.841H193.865H193.888H193.912H193.936H193.96H193.984H194.008H194.032H194.056H194.079H194.103H194.127H194.151H194.175H194.199H194.223H194.247H194.27H194.294H194.318H194.342H194.366H194.39H194.414H194.438H194.461H194.485H194.509H194.533H194.557H194.581H194.605H194.629H194.652H194.676H194.7H194.724H194.748H194.772H194.796H194.82H194.843H194.867H194.891H194.915H194.939H194.963H194.987H195.011H195.034H195.058H195.082H195.106H195.13H195.154H195.178H195.202H195.225H195.249H195.273H195.297H195.321H195.345H195.369H195.393H195.416H195.44H195.464H195.488H195.512H195.536H195.56H195.584H195.607H195.631H195.655H195.679H195.703H195.727H195.751H195.775H195.798H195.822H195.846H195.87H195.894H195.918H195.942H195.966H195.989H196.013H196.037H196.061H196.085H196.109H196.133H196.157H196.18H196.204H196.228H196.252H196.276H196.3H196.324H196.348H196.371H196.395H201.741H201.745H201.749H201.752H201.756H201.76H201.764H201.768H201.772H201.776H201.78H201.784H201.788H201.792H201.796H201.8H201.804H201.808H201.812H201.816H201.82H201.825H201.829H201.833H201.837H201.841H201.845H201.849H201.853H201.857H201.861H201.865H201.869H201.873H201.877H201.881H201.886H201.89H201.894H201.898H201.902H201.906H201.91H201.914H201.918H201.923H201.927H201.931H201.935H201.939H201.943H201.947H201.952H201.956H201.96H201.964H201.968H201.972H201.977H201.981H201.985H201.989H201.993H201.998H202.002H202.006H202.01H202.014H202.018H202.023H202.027H202.031H202.035H202.04H202.044H202.048H202.052H202.056H202.061H202.065H202.069H202.073H202.078H202.082H202.086H202.09H202.094H202.099H202.103H202.107H202.111H202.116H202.12H202.124H202.129H202.133H202.137H202.141H202.146H202.15H202.154H202.158H202.163H202.167H202.171H202.175H202.18H202.184H202.188H202.193H202.197H202.201H202.205H202.21H202.214H202.218H202.223H202.227H202.231H202.236H202.24H202.244H202.248H202.253H202.257H202.261H202.266H202.27H202.274H202.279H202.283H202.287H202.292H202.296H202.3H202.304H202.309H202.313H202.317H202.322H202.326H202.33H202.335H202.339H202.343H202.348H202.352H202.356H202.361H202.365H202.369H202.374H202.378H202.382H202.387H202.391H202.395H202.4H202.404H202.408H202.412H202.417H202.421H202.425H202.43H202.434H202.438H202.443H202.447H202.451H202.456H202.46H202.464H202.469H202.473H202.477H202.482H202.486H202.49H202.495H202.499H202.503H202.508H202.512H202.516H202.52H202.525H202.529H202.533H202.538H202.542H202.546H202.551H202.555H202.559H202.564H202.568H202.572H202.576H202.581H202.585H202.589H202.594H202.598H202.602H202.607H202.611H202.615H202.619H202.624H202.628H202.632H202.637H202.641H202.645H202.649H202.654H202.658H202.662H202.666H202.671H202.675H202.679H202.684H202.688H202.692H202.696H202.701H202.705H202.709H202.713H202.718H202.722H202.726H202.73H202.735H202.739H202.743H202.747H202.751H202.756H202.76H202.764H202.768H202.773H202.777H202.781H202.785H202.789H202.794H202.798H202.802H202.806H202.81H202.815H202.819H202.823H202.827H202.831H202.835H202.84H202.844H202.848H202.852H202.856H202.86H202.865H202.869H202.873H202.877H202.881H202.885H202.889H202.894H202.898H202.902H202.906H202.91H202.914H202.918H202.922H202.927H202.931H202.935H202.939H202.943H202.947H202.951H202.955H202.959H202.963H202.967H202.971H202.975H202.98H202.984H202.988H202.992H202.996H203H203.004H203.008H203.012H203.016H203.02H203.024H203.028H203.032H203.036H203.04H203.044H203.048H203.052H203.056H203.06H203.064H203.068H203.072H203.076H203.079H203.083H203.087H203.091H203.095H203.099H203.103H203.107H203.111H203.115H203.119H203.123H203.126H203.13H203.134H203.138H203.142H203.146H203.15H203.153H203.157H203.161H203.165H203.169H203.173H203.176H203.18H203.184H203.188H203.192H203.195H203.199H203.203H203.207H203.211H203.214H203.218H203.222H203.226H203.229H203.233H203.237H203.24H203.244H203.248H203.252H203.255H203.259H203.263H203.266H203.27H203.274H203.277H203.281H203.285H203.288H203.292H203.296H203.299H203.303H203.306H203.31H203.314H203.317H203.321H203.324H203.328H203.331H203.335H203.339H203.342H203.346H203.349H203.353H203.356H203.36H203.363H203.367H203.37H203.374H203.377H203.381H203.384H203.387H203.391H203.394H203.398H203.401H203.405H203.408H203.411H203.415H203.418H203.422H203.425H203.428H203.432H203.435H203.438H203.442H203.445H203.448H203.452H203.455H203.458H203.461H203.465H203.468H203.471H203.475H203.478H203.481H203.484H203.487H203.491H203.494H203.497H203.5H203.503H203.507H203.51H203.513H203.516H203.519H203.522H203.525H203.529H203.532H203.535H203.538H203.541H203.544H203.547H203.55H203.553H203.556H203.559H203.562H203.565H203.568H203.571H203.574H203.577H203.58H203.583H203.586H203.589H203.592H203.595H203.598H203.601H203.603H203.606H203.609H203.612H203.615H203.618H203.621H203.623H203.626H203.629H203.632H203.635H203.637H203.64H203.643H203.646H203.648H203.651H203.654H203.657H203.659H203.662H203.665H203.667H203.67H203.673H203.675H203.678H203.681H203.683H203.686H203.688H203.691H203.694H203.696H203.699H203.701H203.704H203.706H203.709H203.711H203.714H203.716H225.266C226.691 101.55 228.057 100.984 229.064 99.9802C230.072 98.9763 230.639 97.6161 230.643 96.1972V65.2091H231.143C231.143 64.4258 231.144 63.6412 231.145 62.8632C231.146 62.0981 231.148 61.3394 231.148 60.5946C231.13 58.0845 230.118 55.6832 228.331 53.9141C226.544 52.1449 224.128 51.1514 221.609 51.1501M184.166 101.554L194.6 73.1872C194.431 71.3398 193.58 69.6204 192.213 68.3618C190.845 67.1031 189.058 66.3945 187.197 66.373C184.566 66.3423 181.934 66.3525 179.305 66.3628C177.991 66.3679 176.677 66.373 175.364 66.373H175.02C175.02 66.2208 175.007 66.0882 174.997 65.9824L174.996 65.9742C174.992 65.9361 174.989 65.9029 174.987 65.873M184.166 101.554C182.965 101.568 181.774 101.345 180.66 100.897C179.547 100.45 178.533 99.7869 177.679 98.9469C176.824 98.1069 176.145 97.1065 175.681 96.0036C175.216 94.9007 174.976 93.7171 174.974 92.5211H174.974L174.974 92.513C174.953 91.3979 174.96 90.2901 174.967 89.1745C174.97 88.613 174.974 88.0495 174.974 87.4821C174.974 87.425 174.974 87.3702 174.974 87.3155L184.166 101.554ZM221.609 51.1501C209.067 51.1296 196.527 51.1296 183.991 51.1501C181.473 51.1649 179.062 52.1685 177.281 53.9432C175.501 55.718 174.494 58.1207 174.479 60.6305M221.609 51.1501L221.609 51.6501L221.609 51.6501L221.609 51.1501ZM174.479 60.6305V65.7321C174.479 65.8234 174.488 65.9146 174.497 66.0116C174.508 66.1218 174.52 66.2394 174.52 66.373V65.873H174.987M174.479 60.6305H174.979V60.632M174.479 60.6305L174.979 60.632M174.987 65.873H175.364C176.673 65.873 177.984 65.8679 179.298 65.8628C181.93 65.8525 184.568 65.8423 187.202 65.8731L174.979 60.632M174.987 65.873C174.982 65.8183 174.979 65.7747 174.979 65.7321V65.7221V65.7122V65.7022V65.6922V65.6822V65.6723V65.6623V65.6523V65.6424V65.6324V65.6224V65.6124V65.6025V65.5925V65.5825V65.5725V65.5626V65.5526V65.5426V65.5326V65.5227V65.5127V65.5027V65.4927V65.4828V65.4728V65.4628V65.4528V65.4429V65.4329V65.4229V65.4129V65.403V65.393V65.383V65.3731V65.3631V65.3531V65.3431V65.3332V65.3232V65.3132V65.3032V65.2933V65.2833V65.2733V65.2633V65.2534V65.2434V65.2334V65.2234V65.2135V65.2035V65.1935V65.1835V65.1736V65.1636V65.1536V65.1437V65.1337V65.1237V65.1137V65.1038V65.0938V65.0838V65.0738V65.0639V65.0539V65.0439V65.0339V65.024V65.014V65.004V64.994V64.9841V64.9741V64.9641V64.9542V64.9442V64.9342V64.9242V64.9143V64.9043V64.8943V64.8843V64.8744V64.8644V64.8544V64.8444V64.8345V64.8245V64.8145V64.8046V64.7946V64.7846V64.7746V64.7647V64.7547V64.7447V64.7347V64.7248V64.7148V64.7048V64.6948V64.6849V64.6749V64.6649V64.655V64.645V64.635V64.625V64.6151V64.6051V64.5951V64.5851V64.5752V64.5652V64.5552V64.5453V64.5353V64.5253V64.5153V64.5054V64.4954V64.4854V64.4755V64.4655V64.4555V64.4455V64.4356V64.4256V64.4156V64.4056V64.3957V64.3857V64.3757V64.3658V64.3558V64.3458V64.3358V64.3259V64.3159V64.3059V64.296V64.286V64.276V64.266V64.2561V64.2461V64.2361V64.2262V64.2162V64.2062V64.1962V64.1863V64.1763V64.1663V64.1564V64.1464V64.1364V64.1264V64.1165V64.1065V64.0965V64.0866V64.0766V64.0666V64.0566V64.0467V64.0367V64.0267V64.0168V64.0068V63.9968V63.9868V63.9769V63.9669V63.9569V63.947V63.937V63.927V63.9171V63.9071V63.8971V63.8871V63.8772V63.8672V63.8572V63.8473V63.8373V63.8273V63.8174V63.8074V63.7974V63.7874V63.7775V63.7675V63.7575V63.7476V63.7376V63.7276V63.7177V63.7077V63.6977V63.6878V63.6778V63.6678V63.6578V63.6479V63.6379V63.6279V63.618V63.608V63.598V63.5881V63.5781V63.5681V63.5582V63.5482V63.5382V63.5282V63.5183V63.5083V63.4983V63.4884V63.4784V63.4684V63.4585V63.4485V63.4385V63.4286V63.4186V63.4086V63.3987V63.3887V63.3787V63.3688V63.3588V63.3488V63.3389V63.3289V63.3189V63.309V63.299V63.289V63.2791V63.2691V63.2591V63.2492V63.2392V63.2292V63.2193V63.2093V63.1993V63.1894V63.1794V63.1694V63.1595V63.1495V63.1395V63.1296V63.1196V63.1096V63.0997V63.0897V63.0797V63.0698V63.0598V63.0498V63.0399V63.0299V63.0199V63.01V63V62.99V62.9801V62.9701V62.9601V62.9502V62.9402V62.9302V62.9203V62.9103V62.9003V62.8904V62.8804V62.8704V62.8605V62.8505V62.8406V62.8306V62.8206V62.8107V62.8007V62.7907V62.7808V62.7708V62.7608V62.7509V62.7409V62.7309V62.721V62.711V62.7011V62.6911V62.6811V62.6712V62.6612V62.6512V62.6413V62.6313V62.6214V62.6114V62.6014V62.5915V62.5815V62.5715V62.5616V62.5516V62.5417V62.5317V62.5217V62.5118V62.5018V62.4918V62.4819V62.4719V62.462V62.452V62.442V62.4321V62.4221V62.4121V62.4022V62.3922V62.3823V62.3723V62.3623V62.3524V62.3424V62.3325V62.3225V62.3125V62.3026V62.2926V62.2827V62.2727V62.2627V62.2528V62.2428V62.2329V62.2229V62.2129V62.203V62.193V62.1831V62.1731V62.1631V62.1532V62.1432V62.1333V62.1233V62.1133V62.1034V62.0934V62.0835V62.0735V62.0635V62.0536V62.0436V62.0337V62.0237V62.0138V62.0038V61.9938V61.9839V61.9739V61.964V61.954V61.944V61.9341V61.9241V61.9142V61.9042V61.8943V61.8843V61.8743V61.8644V61.8544V61.8445V61.8345V61.8246V61.8146V61.8047V61.7947V61.7847V61.7748V61.7648V61.7549V61.7449V61.735V61.725V61.715V61.7051V61.6951V61.6852V61.6752V61.6653V61.6553V61.6454V61.6354V61.6255V61.6155V61.6055V61.5956V61.5856V61.5757V61.5657V61.5558V61.5458V61.5359V61.5259V61.516V61.506V61.4961V61.4861V61.4761V61.4662V61.4562V61.4463V61.4363V61.4264V61.4164V61.4065V61.3965V61.3866V61.3766V61.3667V61.3567V61.3468V61.3368V61.3269V61.3169V61.307V61.297V61.2871V61.2771V61.2671V61.2572V61.2472V61.2373V61.2273V61.2174V61.2074V61.1975V61.1875V61.1776V61.1676V61.1577V61.1477V61.1378V61.1278V61.1179V61.1079V61.098V61.088V61.0781V61.0681V61.0582V61.0482V61.0383V61.0283V61.0184V61.0085V60.9985V60.9886V60.9786V60.9687V60.9587V60.9488V60.9388V60.9289V60.9189V60.909V60.899V60.8891V60.8791V60.8692V60.8592V60.8493V60.8393V60.8294V60.8195V60.8095V60.7996V60.7896V60.7797V60.7697V60.7598V60.7498V60.7399V60.7299V60.72V60.7101V60.7001V60.6902V60.6802V60.6703V60.6603V60.6504V60.6404V60.632" stroke="url(#paint1_linear_533_2559)"/>
<path d="M202.932 102.216H195.678C195.657 102.224 195.633 102.224 195.611 102.216H200.967C201.641 102.196 202.521 102.216 202.932 102.216Z" fill="#F6F2ED"/>
<g clip-path="url(#clip0_533_2559)">
<path d="M210.15 65.4701H209.171C204.285 65.4701 199.398 65.4483 194.512 65.4701C193.838 65.4701 193.429 65.2642 193.093 64.6932C190.778 60.7533 190.746 56.795 193.339 53.046C195.909 49.3304 199.641 47.7716 204.111 48.6239C208.581 49.4761 211.413 52.3075 212.547 56.7213C212.632 57.0478 212.596 57.5585 212.391 57.7779C210.463 59.8374 209.707 62.2318 210.141 65.0046C210.153 65.1595 210.156 65.3149 210.15 65.4701ZM201.419 56.6995H198.386C199.926 57.0579 199.926 57.0579 199.926 58.5414V60.5591H200.286V58.2149C200.288 56.9926 200.288 56.9926 201.419 56.6995ZM195.24 56.7565L194.878 56.7782C194.999 57.7929 194.598 58.8512 195.24 59.9596V56.7648V56.7565ZM208.399 60.2978C209.358 59.8173 209.363 58.9416 209.199 58.0994C209.114 57.664 208.726 57.2856 208.475 56.8821L208.268 57.0093C209.199 58.1529 209.22 59.0236 208.399 60.2978ZM206.558 57.0997C205.393 57.9486 205.432 59.6381 206.649 60.2342C205.85 59.1693 205.848 58.1429 206.558 57.0997Z" fill="url(#paint2_linear_533_2559)"/>
<path d="M218.137 65.4671C216.06 65.4671 213.982 65.4403 211.903 65.4822C211.229 65.4973 210.998 65.2511 210.892 64.6098C210.2 60.5912 213.251 56.6999 217.489 56.2662C221.517 55.8543 225.286 59.0575 225.468 63.0459C225.576 65.4269 225.546 65.4588 223.194 65.4588H218.139L218.137 65.4671ZM216.66 64.285H216.756V62.5486H216.66V64.285Z" fill="url(#paint3_linear_533_2559)"/>
<path d="M201.421 56.6998C200.29 56.9928 200.29 56.9928 200.288 58.2068V60.5509H199.928V58.5333C199.928 57.0514 199.928 57.0514 198.388 56.6914L201.421 56.6998Z" fill="url(#paint4_linear_533_2559)"/>
<path d="M195.239 56.7559V59.9506C194.597 58.8505 194.998 57.7923 194.877 56.7692L195.239 56.7559Z" fill="url(#paint5_linear_533_2559)"/>
<path d="M208.399 60.2966C209.22 59.0224 209.199 58.1517 208.268 57.0081L208.475 56.8809C208.726 57.2844 209.113 57.6628 209.199 58.0982C209.363 58.9404 209.358 59.8161 208.399 60.2966Z" fill="url(#paint6_linear_533_2559)"/>
<path d="M206.558 57.0996C205.849 58.1428 205.85 59.1659 206.649 60.2341C205.432 59.6381 205.394 57.9485 206.558 57.0996Z" fill="url(#paint7_linear_533_2559)"/>
<path d="M216.662 64.2852V62.5488H216.758V64.2852H216.662Z" fill="url(#paint8_linear_533_2559)"/>
<path d="M198.431 57.4525C198.799 57.4525 199.114 57.5059 199.375 57.6125C199.637 57.7139 199.89 57.8739 200.135 58.0925L199.719 58.5565C199.511 58.3912 199.306 58.2712 199.103 58.1965C198.906 58.1165 198.693 58.0765 198.463 58.0765C198.175 58.0765 197.938 58.1432 197.751 58.2765C197.565 58.4099 197.471 58.6045 197.471 58.8605C197.471 59.0205 197.503 59.1565 197.567 59.2685C197.631 59.3752 197.749 59.4739 197.919 59.5645C198.095 59.6552 198.349 59.7512 198.679 59.8525C199.026 59.9592 199.314 60.0739 199.543 60.1965C199.773 60.3192 199.957 60.4899 200.095 60.7085C200.239 60.9219 200.311 61.1939 200.311 61.5245C200.311 61.8445 200.231 62.1272 200.071 62.3725C199.917 62.6179 199.69 62.8099 199.391 62.9485C199.098 63.0872 198.749 63.1565 198.343 63.1565C197.581 63.1565 196.957 62.9192 196.471 62.4445L196.887 61.9805C197.111 62.1619 197.338 62.3005 197.567 62.3965C197.797 62.4872 198.053 62.5325 198.335 62.5325C198.677 62.5325 198.959 62.4499 199.183 62.2845C199.407 62.1139 199.519 61.8685 199.519 61.5485C199.519 61.3672 199.485 61.2179 199.415 61.1005C199.346 60.9779 199.226 60.8685 199.055 60.7725C198.89 60.6765 198.647 60.5805 198.327 60.4845C197.762 60.3139 197.349 60.1085 197.087 59.8685C196.826 59.6285 196.695 59.3032 196.695 58.8925C196.695 58.6152 196.767 58.3672 196.911 58.1485C197.061 57.9299 197.266 57.7592 197.527 57.6365C197.794 57.5139 198.095 57.4525 198.431 57.4525ZM204.231 62.0765C204.231 62.2472 204.26 62.3752 204.319 62.4605C204.378 62.5405 204.466 62.6019 204.583 62.6445L204.415 63.1565C204.196 63.1299 204.02 63.0685 203.887 62.9725C203.754 62.8765 203.655 62.7272 203.591 62.5245C203.308 62.9459 202.89 63.1565 202.335 63.1565C201.919 63.1565 201.591 63.0392 201.351 62.8045C201.111 62.5699 200.991 62.2632 200.991 61.8845C200.991 61.4365 201.151 61.0925 201.471 60.8525C201.796 60.6125 202.255 60.4925 202.847 60.4925H203.495V60.1805C203.495 59.8819 203.423 59.6685 203.279 59.5405C203.135 59.4125 202.914 59.3485 202.615 59.3485C202.306 59.3485 201.927 59.4232 201.479 59.5725L201.295 59.0365C201.818 58.8445 202.303 58.7485 202.751 58.7485C203.247 58.7485 203.618 58.8712 203.863 59.1165C204.108 59.3565 204.231 59.7005 204.231 60.1485V62.0765ZM202.503 62.6045C202.924 62.6045 203.255 62.3859 203.495 61.9485V60.9805H202.943C202.164 60.9805 201.775 61.2685 201.775 61.8445C201.775 62.0952 201.836 62.2845 201.959 62.4125C202.082 62.5405 202.263 62.6045 202.503 62.6045ZM207.87 62.8685C207.593 63.0605 207.278 63.1565 206.926 63.1565C206.569 63.1565 206.289 63.0552 206.086 62.8525C205.889 62.6445 205.79 62.3459 205.79 61.9565V59.4125H205.054V58.8445H205.79V57.8925L206.526 57.8045V58.8445H207.526L207.446 59.4125H206.526V61.9245C206.526 62.1432 206.564 62.3032 206.638 62.4045C206.718 62.5005 206.849 62.5485 207.03 62.5485C207.196 62.5485 207.382 62.4925 207.59 62.3805L207.87 62.8685ZM198.175 68.7485C198.463 68.7485 198.722 68.7885 198.951 68.8685C199.181 68.9485 199.399 69.0685 199.607 69.2285L199.295 69.6925C199.103 69.5699 198.919 69.4792 198.743 69.4205C198.573 69.3619 198.391 69.3325 198.199 69.3325C197.959 69.3325 197.77 69.3832 197.631 69.4845C197.493 69.5805 197.423 69.7139 197.423 69.8845C197.423 70.0552 197.487 70.1885 197.615 70.2845C197.749 70.3805 197.986 70.4739 198.327 70.5645C198.797 70.6819 199.146 70.8419 199.375 71.0445C199.61 71.2472 199.727 71.5245 199.727 71.8765C199.727 72.2925 199.565 72.6099 199.239 72.8285C198.919 73.0472 198.527 73.1565 198.063 73.1565C197.423 73.1565 196.893 72.9725 196.471 72.6045L196.863 72.1565C197.221 72.4285 197.615 72.5645 198.047 72.5645C198.325 72.5645 198.543 72.5085 198.703 72.3965C198.869 72.2792 198.951 72.1219 198.951 71.9245C198.951 71.7805 198.922 71.6659 198.863 71.5805C198.805 71.4899 198.703 71.4125 198.559 71.3485C198.415 71.2792 198.205 71.2072 197.927 71.1325C197.479 71.0152 197.154 70.8579 196.951 70.6605C196.754 70.4632 196.655 70.2125 196.655 69.9085C196.655 69.6899 196.719 69.4925 196.847 69.3165C196.981 69.1352 197.162 68.9965 197.391 68.9005C197.626 68.7992 197.887 68.7485 198.175 68.7485Z" fill="url(#paint9_linear_533_2559)"/>
<path d="M216.467 62.0536C216.697 62.0536 216.894 62.0869 217.057 62.1536C217.221 62.2169 217.379 62.3169 217.532 62.4536L217.272 62.7436C217.142 62.6403 217.014 62.5653 216.887 62.5186C216.764 62.4686 216.631 62.4436 216.487 62.4436C216.307 62.4436 216.159 62.4853 216.042 62.5686C215.926 62.6519 215.867 62.7736 215.867 62.9336C215.867 63.0336 215.887 63.1186 215.927 63.1886C215.967 63.2553 216.041 63.3169 216.147 63.3736C216.257 63.4303 216.416 63.4903 216.622 63.5536C216.839 63.6203 217.019 63.6919 217.162 63.7686C217.306 63.8453 217.421 63.9519 217.507 64.0886C217.597 64.2219 217.642 64.3919 217.642 64.5986C217.642 64.7986 217.592 64.9753 217.492 65.1286C217.396 65.2819 217.254 65.4019 217.067 65.4886C216.884 65.5753 216.666 65.6186 216.412 65.6186C215.936 65.6186 215.546 65.4703 215.242 65.1736L215.502 64.8836C215.642 64.9969 215.784 65.0836 215.927 65.1436C216.071 65.2003 216.231 65.2286 216.407 65.2286C216.621 65.2286 216.797 65.1769 216.937 65.0736C217.077 64.9669 217.147 64.8136 217.147 64.6136C217.147 64.5003 217.126 64.4069 217.082 64.3336C217.039 64.2569 216.964 64.1886 216.857 64.1286C216.754 64.0686 216.602 64.0086 216.402 63.9486C216.049 63.8419 215.791 63.7136 215.627 63.5636C215.464 63.4136 215.382 63.2103 215.382 62.9536C215.382 62.7803 215.427 62.6253 215.517 62.4886C215.611 62.3519 215.739 62.2453 215.902 62.1686C216.069 62.0919 216.257 62.0536 216.467 62.0536ZM220.092 64.9436C220.092 65.0503 220.11 65.1303 220.147 65.1836C220.183 65.2336 220.238 65.2719 220.312 65.2986L220.207 65.6186C220.07 65.6019 219.96 65.5636 219.877 65.5036C219.793 65.4436 219.732 65.3503 219.692 65.2236C219.515 65.4869 219.253 65.6186 218.907 65.6186C218.647 65.6186 218.442 65.5453 218.292 65.3986C218.142 65.2519 218.067 65.0603 218.067 64.8236C218.067 64.5436 218.167 64.3286 218.367 64.1786C218.57 64.0286 218.857 63.9536 219.227 63.9536H219.632V63.7586C219.632 63.5719 219.587 63.4386 219.497 63.3586C219.407 63.2786 219.268 63.2386 219.082 63.2386C218.888 63.2386 218.652 63.2853 218.372 63.3786L218.257 63.0436C218.583 62.9236 218.887 62.8636 219.167 62.8636C219.477 62.8636 219.708 62.9403 219.862 63.0936C220.015 63.2436 220.092 63.4586 220.092 63.7386V64.9436ZM219.012 65.2736C219.275 65.2736 219.482 65.1369 219.632 64.8636V64.2586H219.287C218.8 64.2586 218.557 64.4386 218.557 64.7986C218.557 64.9553 218.595 65.0736 218.672 65.1536C218.748 65.2336 218.862 65.2736 219.012 65.2736ZM222.367 65.4386C222.193 65.5586 221.997 65.6186 221.777 65.6186C221.553 65.6186 221.378 65.5553 221.252 65.4286C221.128 65.2986 221.067 65.1119 221.067 64.8686V63.2786H220.607V62.9236H221.067V62.3286L221.527 62.2736V62.9236H222.152L222.102 63.2786H221.527V64.8486C221.527 64.9853 221.55 65.0853 221.597 65.1486C221.647 65.2086 221.728 65.2386 221.842 65.2386C221.945 65.2386 222.062 65.2036 222.192 65.1336L222.367 65.4386ZM216.307 68.8636C216.487 68.8636 216.649 68.8886 216.792 68.9386C216.936 68.9886 217.072 69.0636 217.202 69.1636L217.007 69.4536C216.887 69.3769 216.772 69.3203 216.662 69.2836C216.556 69.2469 216.442 69.2286 216.322 69.2286C216.172 69.2286 216.054 69.2603 215.967 69.3236C215.881 69.3836 215.837 69.4669 215.837 69.5736C215.837 69.6803 215.877 69.7636 215.957 69.8236C216.041 69.8836 216.189 69.9419 216.402 69.9986C216.696 70.0719 216.914 70.1719 217.057 70.2986C217.204 70.4253 217.277 70.5986 217.277 70.8186C217.277 71.0786 217.176 71.2769 216.972 71.4136C216.772 71.5503 216.527 71.6186 216.237 71.6186C215.837 71.6186 215.506 71.5036 215.242 71.2736L215.487 70.9936C215.711 71.1636 215.957 71.2486 216.227 71.2486C216.401 71.2486 216.537 71.2136 216.637 71.1436C216.741 71.0703 216.792 70.9719 216.792 70.8486C216.792 70.7586 216.774 70.6869 216.737 70.6336C216.701 70.5769 216.637 70.5286 216.547 70.4886C216.457 70.4453 216.326 70.4003 216.152 70.3536C215.872 70.2803 215.669 70.1819 215.542 70.0586C215.419 69.9353 215.357 69.7786 215.357 69.5886C215.357 69.4519 215.397 69.3286 215.477 69.2186C215.561 69.1053 215.674 69.0186 215.817 68.9586C215.964 68.8953 216.127 68.8636 216.307 68.8636Z" fill="url(#paint10_linear_533_2559)"/>
</g>
<g clip-path="url(#clip1_533_2559)">
<path d="M208.761 65.4701H207.782C202.896 65.4701 198.01 65.4483 193.123 65.4701C192.449 65.4701 192.04 65.2642 191.705 64.6932C189.39 60.7533 189.358 56.795 191.951 53.046C194.52 49.3304 198.252 47.7716 202.722 48.6239C207.192 49.4761 210.025 52.3075 211.159 56.7213C211.243 57.0478 211.208 57.5585 211.002 57.7779C209.074 59.8374 208.318 62.2318 208.753 65.0046C208.765 65.1595 208.768 65.3149 208.761 65.4701ZM200.03 56.6995H196.997C198.537 57.0579 198.537 57.0579 198.537 58.5414V60.5591H198.898V58.2149C198.899 56.9926 198.899 56.9926 200.03 56.6995ZM193.851 56.7565L193.489 56.7782C193.61 57.7929 193.209 58.8512 193.851 59.9596V56.7648V56.7565ZM207.01 60.2978C207.969 59.8173 207.974 58.9416 207.811 58.0994C207.725 57.664 207.337 57.2856 207.086 56.8821L206.879 57.0093C207.811 58.1529 207.831 59.0236 207.01 60.2978ZM205.169 57.0997C204.005 57.9486 204.043 59.6381 205.26 60.2342C204.461 59.1693 204.459 58.1429 205.169 57.0997Z" fill="#F6F2ED"/>
<path d="M216.749 65.4671C214.671 65.4671 212.594 65.4403 210.514 65.4822C209.84 65.4973 209.61 65.2511 209.503 64.6098C208.811 60.5912 211.862 56.6999 216.1 56.2662C220.128 55.8543 223.898 59.0575 224.08 63.0459C224.187 65.4269 224.157 65.4588 221.805 65.4588H216.75L216.749 65.4671ZM215.271 64.285H215.367V62.5486H215.271V64.285Z" fill="#F6F2ED"/>
<path d="M200.032 56.6998C198.901 56.9928 198.901 56.9928 198.9 58.2068V60.5509H198.539V58.5333C198.539 57.0514 198.539 57.0514 196.999 56.6914L200.032 56.6998Z" fill="#F6F2ED"/>
<path d="M193.85 56.7559V59.9506C193.208 58.8505 193.609 57.7923 193.488 56.7692L193.85 56.7559Z" fill="#F6F2ED"/>
<path d="M207.01 60.2966C207.831 59.0224 207.811 58.1517 206.879 57.0081L207.086 56.8809C207.337 57.2844 207.725 57.6628 207.811 58.0982C207.974 58.9404 207.969 59.8161 207.01 60.2966Z" fill="#F6F2ED"/>
<path d="M205.169 57.0996C204.46 58.1428 204.462 59.1659 205.26 60.2341C204.044 59.6381 204.005 57.9485 205.169 57.0996Z" fill="#F6F2ED"/>
<path d="M215.273 64.2852V62.5488H215.369V64.2852H215.273Z" fill="#F6F2ED"/>
<path d="M196.579 56.9395C196.868 56.9395 197.115 56.9813 197.32 57.0651C197.526 57.1447 197.725 57.2703 197.917 57.442L197.591 57.8064C197.427 57.6765 197.266 57.5823 197.107 57.5237C196.952 57.4609 196.784 57.4295 196.604 57.4295C196.378 57.4295 196.192 57.4818 196.045 57.5865C195.899 57.6912 195.825 57.8441 195.825 58.0451C195.825 58.1707 195.85 58.2775 195.901 58.3655C195.951 58.4492 196.043 58.5267 196.177 58.5979C196.315 58.6691 196.514 58.7445 196.774 58.8241C197.046 58.9078 197.272 58.9979 197.452 59.0942C197.632 59.1905 197.777 59.3245 197.886 59.4963C197.999 59.6638 198.055 59.8774 198.055 60.137C198.055 60.3883 197.993 60.6103 197.867 60.8029C197.746 60.9956 197.568 61.1463 197.333 61.2552C197.103 61.3641 196.828 61.4186 196.51 61.4186C195.911 61.4186 195.421 61.2322 195.04 60.8595L195.367 60.4951C195.543 60.6375 195.721 60.7464 195.901 60.8218C196.081 60.893 196.282 60.9286 196.504 60.9286C196.772 60.9286 196.994 60.8636 197.17 60.7338C197.346 60.5998 197.434 60.4072 197.434 60.1559C197.434 60.0135 197.406 59.8962 197.352 59.8041C197.297 59.7077 197.203 59.6219 197.069 59.5465C196.939 59.4711 196.749 59.3957 196.497 59.3204C196.054 59.1863 195.729 59.0251 195.524 58.8366C195.319 58.6482 195.216 58.3927 195.216 58.0702C195.216 57.8524 195.272 57.6577 195.386 57.486C195.503 57.3143 195.664 57.1803 195.869 57.0839C196.079 56.9876 196.315 56.9395 196.579 56.9395Z" fill="url(#paint11_linear_533_2559)"/>
<path d="M201.133 60.5705C201.133 60.7045 201.156 60.805 201.202 60.872C201.248 60.9348 201.317 60.983 201.41 61.0165L201.278 61.4186C201.106 61.3976 200.968 61.3495 200.863 61.2741C200.758 61.1987 200.681 61.0814 200.631 60.9223C200.409 61.2531 200.08 61.4186 199.644 61.4186C199.318 61.4186 199.06 61.3264 198.872 61.1422C198.683 60.9579 198.589 60.7171 198.589 60.4197C198.589 60.0679 198.715 59.7978 198.966 59.6093C199.221 59.4209 199.581 59.3266 200.046 59.3266H200.555V59.0816C200.555 58.8471 200.499 58.6796 200.386 58.5791C200.273 58.4786 200.099 58.4283 199.864 58.4283C199.621 58.4283 199.324 58.4869 198.972 58.6042L198.828 58.1833C199.238 58.0325 199.619 57.9571 199.971 57.9571C200.36 57.9571 200.652 58.0535 200.844 58.2461C201.037 58.4346 201.133 58.7047 201.133 59.0565V60.5705ZM199.776 60.9851C200.107 60.9851 200.367 60.8134 200.555 60.47V59.7098H200.122C199.51 59.7098 199.205 59.936 199.205 60.3883C199.205 60.5851 199.253 60.7338 199.349 60.8343C199.445 60.9348 199.588 60.9851 199.776 60.9851Z" fill="url(#paint12_linear_533_2559)"/>
<path d="M203.991 61.1924C203.773 61.3432 203.526 61.4186 203.25 61.4186C202.969 61.4186 202.749 61.339 202.59 61.1798C202.435 61.0165 202.358 60.782 202.358 60.4763V58.4786H201.78V58.0325H202.358V57.285L202.936 57.2159V58.0325H203.721L203.658 58.4786H202.936V60.4511C202.936 60.6228 202.965 60.7485 203.024 60.828C203.087 60.9034 203.189 60.9411 203.332 60.9411C203.461 60.9411 203.608 60.8972 203.771 60.8092L203.991 61.1924Z" fill="url(#paint13_linear_533_2559)"/>
<path d="M205.488 57.9571C205.714 57.9571 205.918 57.9886 206.098 58.0514C206.278 58.1142 206.449 58.2084 206.613 58.3341L206.368 58.6984C206.217 58.6021 206.073 58.5309 205.934 58.4848C205.8 58.4388 205.658 58.4157 205.507 58.4157C205.319 58.4157 205.17 58.4555 205.061 58.5351C204.952 58.6105 204.898 58.7152 204.898 58.8492C204.898 58.9832 204.948 59.0879 205.049 59.1633C205.153 59.2387 205.34 59.312 205.608 59.3832C205.976 59.4753 206.251 59.601 206.431 59.7601C206.615 59.9192 206.707 60.137 206.707 60.4134C206.707 60.7401 206.579 60.9893 206.324 61.161C206.073 61.3327 205.765 61.4186 205.4 61.4186C204.898 61.4186 204.481 61.2741 204.15 60.9851L204.458 60.6333C204.739 60.8469 205.049 60.9537 205.388 60.9537C205.606 60.9537 205.777 60.9097 205.903 60.8218C206.033 60.7296 206.098 60.6061 206.098 60.4511C206.098 60.338 206.075 60.248 206.029 60.181C205.983 60.1098 205.903 60.0491 205.79 59.9988C205.677 59.9444 205.511 59.8878 205.294 59.8292C204.942 59.7371 204.686 59.6135 204.527 59.4586C204.372 59.3036 204.295 59.1068 204.295 58.868C204.295 58.6963 204.345 58.5414 204.446 58.4032C204.55 58.2608 204.693 58.1519 204.873 58.0765C205.057 57.9969 205.262 57.9571 205.488 57.9571Z" fill="url(#paint14_linear_533_2559)"/>
<path d="M214.787 61.7324C214.968 61.7324 215.122 61.7586 215.25 61.8109C215.379 61.8607 215.503 61.9392 215.623 62.0465L215.419 62.2742C215.317 62.1931 215.216 62.1342 215.117 62.0976C215.02 62.0583 214.915 62.0387 214.803 62.0387C214.661 62.0387 214.545 62.0714 214.453 62.1368C214.362 62.2023 214.316 62.2978 214.316 62.4234C214.316 62.502 214.332 62.5687 214.363 62.6237C214.395 62.676 214.452 62.7245 214.536 62.769C214.622 62.8135 214.747 62.8606 214.909 62.9103C215.079 62.9627 215.22 63.0189 215.333 63.0791C215.445 63.1393 215.536 63.2231 215.604 63.3304C215.674 63.4351 215.71 63.5686 215.71 63.7309C215.71 63.888 215.671 64.0267 215.592 64.1471C215.516 64.2675 215.405 64.3617 215.258 64.4298C215.114 64.4978 214.943 64.5319 214.744 64.5319C214.37 64.5319 214.063 64.4154 213.825 64.1824L214.029 63.9547C214.139 64.0437 214.251 64.1118 214.363 64.1589C214.476 64.2034 214.601 64.2256 214.74 64.2256C214.908 64.2256 215.046 64.185 215.156 64.1039C215.266 64.0201 215.321 63.8997 215.321 63.7427C215.321 63.6537 215.304 63.5804 215.27 63.5228C215.236 63.4626 215.177 63.4089 215.093 63.3618C215.012 63.3147 214.893 63.2676 214.736 63.2205C214.459 63.1367 214.256 63.0359 214.128 62.9182C213.999 62.8004 213.935 62.6407 213.935 62.4392C213.935 62.303 213.97 62.1813 214.041 62.074C214.114 61.9667 214.215 61.8829 214.343 61.8227C214.474 61.7625 214.622 61.7324 214.787 61.7324Z" fill="url(#paint15_linear_533_2559)"/>
<path d="M217.633 64.0018C217.633 64.0856 217.648 64.1484 217.677 64.1903C217.705 64.2295 217.749 64.2596 217.806 64.2806L217.724 64.5319C217.616 64.5188 217.53 64.4887 217.465 64.4416C217.399 64.3944 217.351 64.3212 217.319 64.2217C217.181 64.4285 216.975 64.5319 216.703 64.5319C216.499 64.5319 216.338 64.4743 216.22 64.3591C216.102 64.2439 216.043 64.0934 216.043 63.9076C216.043 63.6877 216.122 63.5189 216.279 63.4011C216.438 63.2833 216.664 63.2244 216.954 63.2244H217.272V63.0713C217.272 62.9247 217.237 62.82 217.166 62.7572C217.095 62.6944 216.987 62.663 216.84 62.663C216.688 62.663 216.503 62.6996 216.283 62.7729L216.192 62.5098C216.449 62.4156 216.687 62.3685 216.907 62.3685C217.15 62.3685 217.332 62.4287 217.453 62.5491C217.573 62.6669 217.633 62.8357 217.633 63.0556V64.0018ZM216.785 64.261C216.992 64.261 217.154 64.1536 217.272 63.939V63.4639H217.001C216.619 63.4639 216.428 63.6053 216.428 63.888C216.428 64.011 216.458 64.1039 216.518 64.1667C216.579 64.2295 216.668 64.261 216.785 64.261Z" fill="url(#paint16_linear_533_2559)"/>
<path d="M219.42 64.3905C219.284 64.4847 219.129 64.5319 218.956 64.5319C218.781 64.5319 218.644 64.4821 218.544 64.3827C218.447 64.2806 218.399 64.134 218.399 63.9429V62.6944H218.038V62.4156H218.399V61.9484L218.76 61.9052V62.4156H219.251L219.212 62.6944H218.76V63.9272C218.76 64.0345 218.778 64.1131 218.815 64.1628C218.854 64.2099 218.918 64.2335 219.007 64.2335C219.089 64.2335 219.18 64.206 219.282 64.151L219.42 64.3905Z" fill="url(#paint17_linear_533_2559)"/>
<path d="M220.355 62.3685C220.497 62.3685 220.624 62.3881 220.736 62.4274C220.849 62.4666 220.956 62.5255 221.058 62.6041L220.905 62.8318C220.811 62.7716 220.721 62.7271 220.634 62.6983C220.55 62.6695 220.461 62.6551 220.367 62.6551C220.249 62.6551 220.156 62.68 220.088 62.7297C220.02 62.7768 219.986 62.8423 219.986 62.926C219.986 63.0098 220.018 63.0752 220.081 63.1223C220.146 63.1694 220.262 63.2152 220.43 63.2597C220.66 63.3173 220.832 63.3959 220.944 63.4953C221.059 63.5948 221.117 63.7309 221.117 63.9037C221.117 64.1078 221.037 64.2636 220.878 64.3709C220.721 64.4782 220.528 64.5319 220.3 64.5319C219.986 64.5319 219.726 64.4416 219.519 64.261L219.711 64.0411C219.887 64.1746 220.081 64.2413 220.293 64.2413C220.429 64.2413 220.536 64.2138 220.615 64.1589C220.696 64.1013 220.736 64.0241 220.736 63.9272C220.736 63.8565 220.722 63.8003 220.693 63.7584C220.664 63.7139 220.615 63.6759 220.544 63.6445C220.473 63.6105 220.37 63.5752 220.234 63.5385C220.014 63.4809 219.854 63.4037 219.755 63.3069C219.658 63.21 219.609 63.087 219.609 62.9378C219.609 62.8305 219.641 62.7336 219.704 62.6472C219.769 62.5583 219.858 62.4902 219.971 62.4431C220.086 62.3933 220.214 62.3685 220.355 62.3685Z" fill="url(#paint18_linear_533_2559)"/>
</g>
<circle cx="16.4658" cy="153.253" r="15.747" fill="#F6F2ED" fill-opacity="0.32"/>
<circle cx="20.1298" cy="153.253" r="15.247" stroke="url(#paint19_linear_533_2559)"/>
<g clip-path="url(#clip2_533_2559)">
<path d="M17.2568 146.487C17.4072 145.654 16.9985 144.649 18.2112 144.354C18.9762 144.168 19.7623 144.112 20.3614 144.845C20.9438 144.061 21.8001 144.288 22.5818 144.34C23.0818 144.374 23.3557 144.795 23.3858 145.37C23.4036 145.712 23.2867 146.135 23.4637 146.371C23.6263 146.587 24.1063 146.594 24.4414 146.703C26.4859 147.37 27.3366 149.393 26.3345 151.236C26.2019 151.479 26.163 151.628 26.4079 151.849C27.4513 152.784 27.9023 153.89 27.4903 155.242C27.0449 156.712 25.9503 157.527 24.4114 157.901C24.1118 157.974 23.8 158.004 23.4492 158.056C23.4492 158.378 23.4492 158.699 23.4492 159.021C23.4597 159.338 23.3451 159.649 23.1267 159.894C22.9084 160.139 22.6011 160.303 22.2622 160.354C21.5072 160.496 20.9137 160.224 20.6287 159.662C20.2367 159.874 19.8614 160.201 19.4361 160.272C19.0107 160.344 18.4984 160.212 18.0519 160.089C17.6054 159.967 17.3838 159.641 17.4205 159.177C17.4484 158.841 17.4205 158.5 17.4205 158.134C16.5776 158.093 15.7881 158.051 14.9975 158.017C14.4685 157.994 14.1668 157.775 14.1801 157.254C14.1912 156.793 14.1668 156.327 14.2024 155.867C14.2514 155.231 14.4964 155.043 15.1968 155.022C16.199 154.995 16.199 154.995 16.1934 154.095C16.1934 152.723 16.1756 151.351 16.2068 149.981C16.2168 149.56 16.0631 149.419 15.64 149.46C15.5658 149.464 15.4914 149.464 15.4173 149.46C14.395 149.425 14.2035 149.244 14.1924 148.284C14.1924 147.959 14.1924 147.633 14.1924 147.308C14.2069 146.665 14.3371 146.521 15.0398 146.497C15.7614 146.467 16.4829 146.487 17.2568 146.487ZM22.2433 145.51C21.3636 145.387 21.3391 145.407 21.3235 146.054C21.3179 146.26 21.3235 146.466 21.3235 146.672C21.3235 147.656 21.3235 147.656 20.2901 147.618C20.1978 147.612 20.1052 147.612 20.0129 147.618C19.6009 147.66 19.4071 147.539 19.4127 147.111C19.4193 146.603 19.3347 146.095 19.288 145.566H18.563C18.5296 146.262 18.4985 146.918 18.4651 147.613C17.5386 147.613 16.7068 147.613 15.875 147.613C15.601 147.613 15.4028 147.646 15.4295 147.972C15.4485 148.266 15.5097 148.477 15.905 148.436C16.0901 148.419 16.2766 148.419 16.4618 148.436C17.2412 148.495 17.3882 148.642 17.3916 149.358C17.4005 151.227 17.415 153.094 17.4194 154.963C17.4336 155.219 17.4062 155.476 17.3381 155.724C17.3036 155.799 17.2502 155.866 17.1825 155.918C17.1147 155.971 17.0345 156.007 16.9484 156.025C16.4941 156.064 16.033 156.04 15.5709 156.04V156.981C16.4317 156.981 17.2413 156.981 18.0586 156.981C18.4517 156.981 18.6221 157.156 18.5964 157.522C18.5683 157.865 18.5598 158.209 18.5708 158.552C18.582 158.808 18.5107 159.125 18.9884 159.129C19.4661 159.133 19.4115 158.834 19.416 158.566C19.4249 158.045 19.416 157.524 19.416 156.981C20.0418 156.981 20.5039 156.981 20.965 156.981C21.3179 156.981 21.4505 157.141 21.4371 157.464C21.4084 157.876 21.4173 158.29 21.4638 158.7C21.4827 158.836 21.7021 159.016 21.8624 159.053C22.1397 159.116 22.3012 158.963 22.2956 158.674C22.289 158.28 22.319 157.885 22.309 157.491C22.299 157.097 22.4204 156.931 22.8869 156.955C23.3119 156.978 23.7381 156.947 24.1541 156.864C25.212 156.65 25.9447 156.068 26.2465 155.089C26.5338 154.152 26.3267 153.317 25.5082 152.672C25.2621 152.477 24.9436 152.353 24.6452 152.223C24.2967 152.071 24.2933 151.855 24.476 151.605C24.578 151.483 24.6928 151.371 24.8189 151.27C25.4536 150.684 25.6674 149.981 25.4024 149.197C25.1285 148.383 24.5249 147.858 23.5962 147.712C23.1787 147.646 22.7555 147.616 22.2444 147.56L22.2433 145.51Z" fill="url(#paint20_linear_533_2559)"/>
<path d="M18.9943 152.668C20.3461 152.668 21.6434 152.587 22.9218 152.694C23.9239 152.777 24.5921 153.648 24.5019 154.455C24.4128 155.314 23.6856 155.897 22.62 155.938C21.5543 155.979 20.5098 155.999 19.4553 156.041C19.1635 156.051 18.9921 155.981 18.9932 155.682C18.9965 154.689 18.9943 153.698 18.9943 152.668ZM20.2348 154.775C21.0142 154.775 21.7737 154.808 22.5209 154.754C22.7569 154.738 22.9741 154.488 23.2001 154.342C22.9908 154.15 22.8037 153.82 22.5687 153.787C21.8015 153.684 21.0176 153.684 20.2303 153.648L20.2348 154.775Z" fill="url(#paint21_linear_533_2559)"/>
<path d="M19.0137 148.602C20.1272 148.602 21.1929 148.523 22.2307 148.624C23.3342 148.732 23.6783 149.19 23.6783 150.154C23.6716 150.955 23.1215 151.62 22.2107 151.692C21.1695 151.775 20.1139 151.712 19.017 151.712L19.0137 148.602ZM20.1962 150.559C20.7998 150.559 21.3388 150.608 21.8599 150.537C22.0759 150.508 22.381 150.247 22.4167 150.055C22.4779 149.731 22.1483 149.614 21.8265 149.608C21.282 149.601 20.7374 149.608 20.1951 149.608L20.1962 150.559Z" fill="url(#paint22_linear_533_2559)"/>
</g>
<path d="M89.2064 122.815L78.3108 127.896C79.2855 123.028 78.5545 118.791 75.842 116.081L60.1445 131.78C60.5608 130.579 60.7806 129.318 60.7957 128.047C60.8143 126.291 60.4464 124.553 59.7181 122.955C58.9898 121.357 57.9189 119.939 56.5813 118.802C55.2438 117.664 53.6724 116.834 51.9784 116.372C50.2845 115.909 48.5095 115.825 46.7794 116.125C45.0493 116.425 43.4064 117.103 41.9672 118.109C40.528 119.115 39.3278 120.425 38.4515 121.946C37.5753 123.468 37.0446 125.164 36.8969 126.914C36.7493 128.663 36.9884 130.424 37.5973 132.071L40.0008 136.078C40.705 136.86 41.5093 137.545 42.3929 138.116C43.1764 144.782 46.2283 150.975 51.0366 155.658C55.845 160.34 62.1174 163.226 68.8015 163.832C72.2392 168.493 74.0926 174.134 74.0896 179.926C78.5985 175.416 81.3805 169.467 81.9502 163.115C82.5199 156.764 80.8409 150.414 77.2065 145.174C87.0238 138.326 92.2144 129.261 89.2064 122.815ZM58.9147 140.534L73.2083 126.243C73.0755 127.049 72.8916 127.845 72.6577 128.628C71.1511 133.754 67.5137 139.467 62.6776 144.304C62.4304 144.551 62.137 144.747 61.814 144.881C61.4911 145.015 61.1451 145.083 60.7956 145.083C60.4461 145.083 60.1001 145.014 59.7773 144.88C59.4545 144.746 59.1612 144.55 58.9142 144.303C58.6672 144.056 58.4713 143.762 58.3377 143.439C58.2041 143.116 58.1354 142.77 58.1356 142.421C58.1357 142.071 58.2047 141.725 58.3386 141.403C58.4724 141.08 58.6686 140.786 58.9158 140.539L58.9147 140.534ZM42.1742 128.052C42.1742 126.737 42.5642 125.451 43.295 124.357C44.0258 123.264 45.0645 122.411 46.2797 121.908C47.4949 121.404 48.8322 121.273 50.1222 121.529C51.4123 121.786 52.5974 122.419 53.5275 123.35C54.4576 124.28 55.091 125.465 55.3476 126.755C55.6042 128.045 55.4725 129.382 54.9691 130.597C54.4658 131.813 53.6133 132.851 52.5197 133.582C51.426 134.313 50.1401 134.703 48.8248 134.703C47.9514 134.703 47.0865 134.531 46.2795 134.197C45.4726 133.863 44.7394 133.373 44.1218 132.755C43.5042 132.138 43.0143 131.404 42.6801 130.597C42.346 129.791 42.174 128.926 42.1742 128.052ZM76.1634 165.763C75.2941 163.981 74.2662 162.28 73.0921 160.682L71.6716 158.743L69.2764 158.53C64.2233 158.1 59.4402 156.065 55.6271 152.721C51.8139 149.378 49.1708 144.902 48.0844 139.948C48.3343 139.964 48.5718 140.023 48.8248 140.023C50.4717 140.022 52.1005 139.679 53.6079 139.015C52.9288 140.431 52.6848 142.016 52.9068 143.57C53.1288 145.124 53.8069 146.577 54.8551 147.746C55.9034 148.914 57.2748 149.746 58.7957 150.135C60.3166 150.524 61.9187 150.453 63.3993 149.931C65.3686 150.635 67.5366 150.534 69.4319 149.65C70.5569 149.125 71.6353 148.559 72.6867 147.979C75.3392 151.678 76.7631 156.116 76.7575 160.668C76.7584 162.383 76.559 164.093 76.1634 165.763ZM81.9275 133.51C78.944 137.298 75.2389 140.455 71.0266 142.801C72.9303 140.34 74.5706 137.686 75.9208 134.882L83.2599 131.46C82.8577 132.17 82.4127 132.855 81.9275 133.51Z" stroke="url(#paint23_linear_533_2559)"/>
<path d="M91.2064 123.815L80.3108 128.896C81.2855 124.028 80.5545 119.791 77.842 117.081L62.1445 132.78C62.5608 131.579 62.7806 130.318 62.7957 129.047C62.8143 127.291 62.4464 125.553 61.7181 123.955C60.9898 122.357 59.9189 120.939 58.5813 119.802C57.2438 118.664 55.6724 117.834 53.9784 117.372C52.2845 116.909 50.5095 116.825 48.7794 117.125C47.0493 117.425 45.4064 118.103 43.9672 119.109C42.528 120.115 41.3278 121.425 40.4515 122.946C39.5753 124.468 39.0446 126.164 38.8969 127.914C38.7493 129.663 38.9884 131.424 39.5973 133.071L42.0008 137.078C42.705 137.86 43.5093 138.545 44.3929 139.116C45.1764 145.782 48.2283 151.975 53.0366 156.658C57.845 161.34 64.1174 164.226 70.8015 164.832C74.2392 169.493 76.0926 175.134 76.0896 180.926C80.5985 176.416 83.3805 170.467 83.9502 164.115C84.5199 157.764 82.841 151.414 79.2065 146.174C89.0238 139.326 94.2144 130.261 91.2064 123.815ZM60.9147 141.534L75.2083 127.243C75.0755 128.049 74.8916 128.845 74.6577 129.628C73.1511 134.754 69.5137 140.467 64.6776 145.304C64.4304 145.551 64.137 145.747 63.814 145.881C63.4911 146.015 63.1451 146.083 62.7956 146.083C62.4461 146.083 62.1001 146.014 61.7773 145.88C61.4545 145.746 61.1612 145.55 60.9142 145.303C60.6672 145.056 60.4713 144.762 60.3377 144.439C60.2041 144.116 60.1354 143.77 60.1356 143.421C60.1357 143.071 60.2047 142.725 60.3386 142.403C60.4724 142.08 60.6686 141.786 60.9158 141.539L60.9147 141.534ZM44.1742 129.052C44.1742 127.737 44.5642 126.451 45.295 125.357C46.0258 124.264 47.0645 123.411 48.2797 122.908C49.4949 122.404 50.8321 122.273 52.1222 122.529C53.4123 122.786 54.5974 123.419 55.5275 124.35C56.4576 125.28 57.091 126.465 57.3476 127.755C57.6042 129.045 57.4725 130.382 56.9691 131.597C56.4658 132.813 55.6133 133.851 54.5197 134.582C53.426 135.313 52.1401 135.703 50.8248 135.703C49.9514 135.703 49.0865 135.531 48.2795 135.197C47.4726 134.863 46.7394 134.373 46.1218 133.755C45.5042 133.138 45.0143 132.404 44.6801 131.597C44.346 130.791 44.174 129.926 44.1742 129.052ZM78.1634 166.763C77.2941 164.981 76.2662 163.28 75.0921 161.682L73.6716 159.743L71.2764 159.53C66.2233 159.1 61.4402 157.065 57.6271 153.721C53.8139 150.378 51.1708 145.902 50.0844 140.948C50.3343 140.964 50.5718 141.023 50.8248 141.023C52.4717 141.022 54.1005 140.679 55.6079 140.015C54.9288 141.431 54.6848 143.016 54.9068 144.57C55.1288 146.124 55.8069 147.577 56.8551 148.746C57.9034 149.914 59.2748 150.746 60.7957 151.135C62.3166 151.524 63.9187 151.453 65.3993 150.931C67.3686 151.635 69.5366 151.534 71.4319 150.65C72.5569 150.125 73.6353 149.559 74.6867 148.979C77.3392 152.678 78.7631 157.116 78.7575 161.668C78.7584 163.383 78.559 165.093 78.1634 166.763ZM83.9275 134.51C80.944 138.298 77.2389 141.455 73.0266 143.801C74.9303 141.34 76.5706 138.686 77.9208 135.882L85.2599 132.46C84.8577 133.17 84.4127 133.855 83.9275 134.51Z" fill="#F6F2ED"/>
<path d="M38.6784 130.716L28.8062 140.924L29.8431 142.479L30.3616 143.516L40.6533 134.424C41.2369 135.146 38.307 129.547 38.6784 130.716Z" fill="url(#paint24_linear_533_2559)"/>
<circle cx="49.5495" cy="127.962" r="1.55533" fill="#F6F2ED"/>
<g clip-path="url(#clip3_533_2559)">
<path d="M106.411 8.63234C101.783 17.1992 107.43 27.3267 116.031 28.1047C116.107 29.069 116.206 30.0403 116.251 31.0151C116.381 33.5735 116.462 36.1355 116.613 38.6917C116.804 41.9182 117.012 45.1481 118.033 48.238C118.665 50.1528 119.607 51.8523 121.284 52.9648C121.816 53.3021 122.378 53.5851 122.962 53.81C124.432 54.4143 125.339 55.8776 125.123 57.3663C124.867 59.1318 123.69 60.2537 121.997 60.3532C121.851 60.3625 121.704 60.3532 121.556 60.3532C105.124 60.3532 88.691 60.3532 72.2578 60.3532C71.4866 60.3532 70.7561 60.249 70.1082 59.7859C69.1166 59.0797 68.6219 58.0795 68.6759 56.8384C68.7365 55.5198 69.337 54.4073 70.5181 53.9894C74.1276 52.7159 75.6569 49.7615 76.3147 46.1727C76.7554 43.7624 77.0044 41.3023 77.1884 38.8526C77.4859 34.9165 77.595 30.9676 77.9035 27.0349C78.1481 23.9254 78.731 20.8679 79.7865 17.9309C81.8667 12.1482 85.7881 8.53858 91.4657 6.98959C93.1933 6.51725 93.9745 5.4626 93.9525 3.57673C93.9403 2.48387 94.1651 1.50097 94.9849 0.772787C95.9236 -0.061906 97.0001 -0.234392 98.1173 0.29004C99.2345 0.814472 99.7877 1.80083 99.8593 3.08008C99.8857 3.55936 99.8218 4.05719 99.9188 4.5191C100.191 5.8215 100.996 6.58326 102.212 6.97455C103.468 7.37859 104.693 7.88913 105.928 8.36378C106.095 8.44109 106.256 8.53082 106.411 8.63234Z" fill="#F6F2ED" fill-opacity="0.32"/>
<path d="M113.025 31.0382L113.025 31.0404C113.078 32.0829 113.123 33.1327 113.168 34.1847C113.233 35.6974 113.299 37.2146 113.388 38.7212C113.578 41.9392 113.787 45.2334 114.831 48.3947L114.831 48.3948C115.481 50.3613 116.472 52.1813 118.281 53.3815L118.281 53.3816L118.29 53.3872C118.848 53.7408 119.437 54.038 120.05 54.2743C121.329 54.8025 122.081 56.0589 121.901 57.2946L121.901 57.2947C121.787 58.0836 121.473 58.6975 121.027 59.1229C120.583 59.547 119.981 59.8106 119.241 59.8541L119.238 59.8542C119.161 59.8592 119.097 59.8577 119.016 59.8558C118.964 59.8546 118.904 59.8532 118.83 59.8532H118.733H118.637H118.541H118.444H118.348H118.252H118.156H118.059H117.963H117.867H117.77H117.674H117.578H117.482H117.385H117.289H117.193H117.096H117H116.904H116.808H116.711H116.615H116.519H116.422H116.326H116.23H116.134H116.037H115.941H115.845H115.748H115.652H115.556H115.46H115.363H115.267H115.171H115.074H114.978H114.882H114.786H114.689H114.593H114.497H114.4H114.304H114.208H114.112H114.015H113.919H113.823H113.726H113.63H113.534H113.438H113.341H113.245H113.149H113.053H112.956H112.86H112.764H112.667H112.571H112.475H112.379H112.282H112.186H112.09H111.993H111.897H111.801H111.705H111.608H111.512H111.416H111.319H111.223H111.127H111.031H110.934H110.838H110.742H110.645H110.549H110.453H110.357H110.26H110.164H110.068H109.971H109.875H109.779H109.683H109.586H109.49H109.394H109.297H109.201H109.105H109.009H108.912H108.816H108.72H108.623H108.527H108.431H108.335H108.238H108.142H108.046H107.949H107.853H107.757H107.661H107.564H107.468H107.372H107.275H107.179H107.083H106.987H106.89H106.794H106.698H106.601H106.505H106.409H106.313H106.216H106.12H106.024H105.927H105.831H105.735H105.639H105.542H105.446H105.35H105.253H105.157H105.061H104.965H104.868H104.772H104.676H104.579H104.483H104.387H104.291H104.194H104.098H104.002H103.905H103.809H103.713H103.617H103.52H103.424H103.328H103.231H103.135H103.039H102.943H102.846H102.75H102.654H102.558H102.461H102.365H102.269H102.172H102.076H101.98H101.884H101.787H101.691H101.595H101.498H101.402H101.306H101.21H101.113H101.017H100.921H100.824H100.728H100.632H100.536H100.439H100.343H100.247H100.15H100.054H99.9578H99.8615H99.7652H99.669H99.5727H99.4764H99.3801H99.2838H99.1875H99.0912H98.995H98.8987H98.8024H98.7061H98.6098H98.5135H98.4172H98.321H98.2247H98.1284H98.0321H97.9358H97.8395H97.7432H97.647H97.5507H97.4544H97.3581H97.2618H97.1655H97.0693H96.973H96.8767H96.7804H96.6841H96.5878H96.4915H96.3953H96.299H96.2027H96.1064H96.0101H95.9138H95.8175H95.7213H95.625H95.5287H95.4324H95.3361H95.2398H95.1435H95.0473H94.951H94.8547H94.7584H94.6621H94.5658H94.4695H94.3733H94.277H94.1807H94.0844H93.9881H93.8918H93.7955H93.6993H93.603H93.5067H93.4104H93.3141H93.2178H93.1215H93.0253H92.929H92.8327H92.7364H92.6401H92.5438H92.4475H92.3513H92.255H92.1587H92.0624H91.9661H91.8698H91.7735H91.6773H91.581H91.4847H91.3884H91.2921H91.1958H91.0995H91.0033H90.907H90.8107H90.7144H90.6181H90.5218H90.4255H90.3293H90.233H90.1367H90.0404H89.9441H89.8478H89.7515H89.6553H89.559H89.4627H89.3664H89.2701H89.1738H89.0775H88.9812H88.885H88.7887H88.6924H88.5961H88.4998H88.4035H88.3072H88.211H88.1147H88.0184H87.9221H87.8258H87.7295H87.6332H87.537H87.4407H87.3444H87.2481H87.1518H87.0555H86.9592H86.863H86.7667H86.6704H86.5741H86.4778H86.3815H86.2852H86.1889H86.0927H85.9964H85.9001H85.8038H85.7075H85.6112H85.5149H85.4187H85.3224H85.2261H85.1298H85.0335H84.9372H84.8409H84.7447H84.6484H84.5521H84.4558H84.3595H84.2632H84.1669H84.0706H83.9744H83.8781H83.7818H83.6855H83.5892H83.4929H83.3966H83.3004H83.2041H83.1078H83.0115H82.9152H82.8189H82.7226H82.6263H82.5301H82.4338H82.3375H82.2412H82.1449H82.0486H81.9523H81.8561H81.7598H81.6635H81.5672H81.4709H81.3746H81.2783H81.182H81.0858H80.9895H80.8932H80.7969H80.7006H80.6043H80.508H80.4118H80.3155H80.2192H80.1229H80.0266H79.9303H79.834H79.7377H79.6415H79.5452H79.4489H79.3526H79.2563H79.16H79.0637H78.9674H78.8712H78.7749H78.6786H78.5823H78.486H78.3897H78.2934H78.1972H78.1009H78.0046H77.9083H77.812H77.7157H77.6194H77.5231H77.4269H77.3306H77.2343H77.138H77.0417H76.9454H76.8491H76.7528H76.6566H76.5603H76.464H76.3677H76.2714H76.1751H76.0788H75.9825H75.8863H75.79H75.6937H75.5974H75.5011H75.4048H75.3085H75.2123H75.116H75.0197H74.9234H74.8271H74.7308H74.6345H74.5382H74.442H74.3457H74.2494H74.1531H74.0568H73.9605H73.8642H73.7679H73.6717H73.5754H73.4791H73.3828H73.2865H73.1902H73.0939H72.9976H72.9014H72.8051H72.7088H72.6125H72.5162H72.4199H72.3236H72.2273H72.1311H72.0348H71.9385H71.8422H71.7459H71.6496H71.5533H71.457H71.3608H71.2645H71.1682H71.0719H70.9756H70.8793H70.783H70.6867H70.5905H70.4942H70.3979H70.3016H70.2053H70.109H70.0127H69.9164H69.8201H69.7239H69.6276H69.5313C68.8003 59.8532 68.1951 59.7527 67.6724 59.3791L67.6717 59.3786C66.8183 58.7709 66.4023 57.9323 66.4488 56.8607C66.5036 55.6727 67.0297 54.7895 67.9579 54.4609C71.8081 53.1025 73.4064 49.9375 74.08 46.2628L74.08 46.2626C74.5253 43.8272 74.7759 41.3473 74.9605 38.8903C75.1054 36.973 75.2057 35.0534 75.3056 33.1409L75.3146 32.9686C75.4177 30.997 75.5218 29.0329 75.6754 27.074C75.9172 24.0007 76.4926 20.988 77.5305 18.1C79.5567 12.4674 83.3538 8.97711 88.8707 7.47196L88.871 7.47189C89.8071 7.21597 90.5474 6.78487 91.0422 6.10844C91.5351 5.43457 91.7376 4.58099 91.7259 3.57118C91.7145 2.54536 91.9259 1.73682 92.5904 1.1466L92.5905 1.14644C93.0009 0.781609 93.4188 0.580504 93.8345 0.515791C94.2491 0.451251 94.697 0.516755 95.1783 0.742656C96.0968 1.1738 96.5699 1.97354 96.6335 3.10762C96.642 3.2622 96.6401 3.41148 96.638 3.57869C96.6371 3.65023 96.6362 3.72505 96.636 3.80497C96.6354 4.05467 96.6432 4.33738 96.7028 4.62137C96.8559 5.35403 97.1652 5.95804 97.6248 6.43533C98.082 6.91006 98.665 7.23579 99.3318 7.45049L99.332 7.45054C100.256 7.74786 101.159 8.10196 102.078 8.46261C102.385 8.58304 102.694 8.70421 103.006 8.82424C103.01 8.82617 103.014 8.82811 103.018 8.83005C98.7161 17.4612 104.246 27.4791 112.839 28.5573C112.852 28.7082 112.865 28.8585 112.878 29.0083C112.936 29.6882 112.993 30.3597 113.025 31.0382Z" stroke="url(#paint25_linear_533_2559)"/>
<path d="M129.35 14.8889C129.352 17.1354 128.719 19.3318 127.531 21.1998C126.344 23.0679 124.655 24.5234 122.68 25.382C120.704 26.2406 118.53 26.4636 116.434 26.0228C114.337 25.5819 112.412 24.497 110.903 22.9056C109.394 21.3142 108.369 19.2879 107.957 17.0835C107.545 14.8792 107.766 12.5959 108.59 10.5232C109.414 8.4505 110.806 6.68161 112.588 5.4407C114.37 4.1998 116.463 3.54276 118.601 3.55285C121.457 3.55898 124.194 4.75659 126.21 6.88239C128.225 9.00818 129.355 11.8881 129.35 14.8889ZM119.739 10.5569C118.574 10.2524 117.587 10.7039 116.595 11.0836C116.54 11.1108 116.492 11.1511 116.455 11.2012C116.418 11.2512 116.393 11.3097 116.381 11.3719C116.359 11.8419 116.371 12.3154 116.371 12.871L117.982 12.2239V19.2499H119.739V10.5569Z" fill="#F95959"/>
<path d="M96.3059 62.2509H101.143C102.626 62.2509 103.718 62.9536 104.35 64.3486C104.983 65.7436 104.767 67.0298 103.849 68.2211C99.9583 73.2675 92.2798 73.1817 88.5083 68.0347C87.6743 66.8967 87.5575 65.6313 88.1448 64.3405C88.732 63.0497 89.7501 62.2949 91.1384 62.2625C92.8605 62.2231 94.5837 62.2532 96.3059 62.2532V62.2509Z" fill="#F6F2ED"/>
<path d="M85.8556 68.6022L85.8556 68.6022C89.4595 73.5137 96.7989 73.5959 100.517 68.7802L85.8556 68.6022ZM85.8556 68.6022C85.1249 67.6066 85.0223 66.5261 85.5411 65.3874M85.8556 68.6022L85.5411 65.3874M93.8108 63.5794H93.3108C92.7804 63.5794 92.2525 63.5766 91.7261 63.5739C90.5182 63.5675 89.3183 63.5612 88.1147 63.5886L93.8108 63.5794ZM93.8108 63.5794V63.5771M93.8108 63.5794V63.5771M93.8108 63.5771H98.1855C98.8518 63.5771 99.4023 63.7338 99.8505 64.0253C100.299 64.3171 100.676 64.7643 100.963 65.395C101.247 66.0218 101.332 66.6011 101.256 67.1449C101.18 67.6911 100.937 68.2349 100.517 68.7801L93.8108 63.5771ZM85.5411 65.3874C86.0637 64.2402 86.9308 63.6163 88.1145 63.5886L85.5411 65.3874Z" stroke="url(#paint26_linear_533_2559)"/>
<path d="M78.5766 5.42476C80.018 5.42476 81.1864 4.21039 81.1864 2.71238C81.1864 1.21437 80.018 0 78.5766 0C77.1352 0 75.9668 1.21437 75.9668 2.71238C75.9668 4.21039 77.1352 5.42476 78.5766 5.42476Z" fill="#F6F2ED" fill-opacity="0.32"/>
<ellipse cx="118.139" cy="15.5476" rx="5.77144" ry="5.89722" fill="#F95959"/>
<path d="M119.985 8.16406L119.622 16.2208H117.381L117.018 8.16406H119.985ZM118.501 17.8396C118.922 17.8396 119.28 18.0195 119.575 18.3792C119.88 18.7265 120.032 19.1483 120.032 19.6445C120.032 20.1407 119.88 20.5624 119.575 20.9097C119.28 21.2571 118.922 21.4307 118.501 21.4307C118.081 21.4307 117.718 21.2571 117.413 20.9097C117.118 20.5624 116.971 20.1407 116.971 19.6445C116.971 19.1483 117.118 18.7265 117.413 18.3792C117.718 18.0195 118.081 17.8396 118.501 17.8396Z" fill="#F6F2ED"/>
</g>
<path d="M69.6835 65.2295L68.5992 73.6659L61.8352 68.5087L69.6835 65.2295Z" fill="#F6F2ED"/>
<path d="M90.1225 178.177L86.8764 170.257L95.3583 171.405L90.1225 178.177Z" fill="#F6F2ED"/>
<ellipse cx="144.524" cy="181.651" rx="4.08205" ry="3.06154" fill="#433B2E"/>
<path d="M154.572 165.278C148.304 164.79 143.275 163.914 138.53 161.787C137.906 161.489 137.3 161.153 136.717 160.782C135.05 159.772 134.263 158.217 134.207 156.328C134.045 150.989 135.775 146.262 138.978 142.035C140.514 140.005 142.487 139.382 144.896 140.165C146.645 140.731 148.424 141.235 150.107 141.96C153.029 143.23 155.851 143.174 158.784 141.96C160.724 141.159 162.774 140.591 164.798 140.016C166.671 139.487 168.287 139.984 169.626 141.454C171.983 144.046 173.344 147.135 174.256 150.457C174.481 151.275 173.911 151.569 173.289 151.832C170.108 153.181 167.542 155.296 165.804 158.275C164.979 159.69 164.457 161.288 163.865 162.828C163.613 163.482 163.387 164.097 162.61 164.202C159.563 164.621 156.52 165.018 154.572 165.278Z" fill="#F6F2ED" fill-opacity="0.32"/>
<path d="M134.924 159.338L134.924 159.338L134.914 159.333C133.409 158.42 132.697 157.032 132.645 155.291L132.645 155.291C132.487 150.08 134.172 145.464 137.315 141.315L137.316 141.315C138.035 140.363 138.832 139.774 139.699 139.5C140.565 139.226 141.552 139.252 142.68 139.619L142.681 139.619C143.076 139.747 143.47 139.871 143.862 139.995C145.225 140.423 146.562 140.844 147.847 141.398C150.902 142.725 153.865 142.662 156.913 141.401C158.725 140.653 160.637 140.11 162.565 139.563C162.668 139.534 162.77 139.505 162.872 139.476C163.731 139.233 164.505 139.232 165.207 139.443C165.91 139.654 166.574 140.088 167.194 140.769C169.481 143.283 170.812 146.29 171.712 149.568L171.712 149.568C171.752 149.713 171.748 149.802 171.737 149.854C171.726 149.902 171.704 149.945 171.661 149.992C171.553 150.11 171.356 150.213 171.033 150.35L171.032 150.35C167.763 151.737 165.108 153.919 163.311 157.002C162.623 158.18 162.137 159.487 161.671 160.739C161.559 161.039 161.449 161.336 161.337 161.627C161.204 161.973 161.108 162.219 160.972 162.401C160.859 162.553 160.723 162.653 160.482 162.685L160.481 162.685C158.191 163 155.903 163.303 154.08 163.544C153.501 163.621 152.968 163.691 152.497 163.754C146.279 163.267 141.332 162.397 136.679 160.311C136.075 160.023 135.489 159.698 134.924 159.338Z" stroke="url(#paint27_linear_533_2559)"/>
<path d="M154.33 174.643C147.268 174.679 140.284 174.032 133.558 171.723C131.834 171.13 130.196 170.251 128.571 169.404C127.861 169.003 127.215 168.498 126.654 167.906C124.659 165.932 124.608 163.649 126.625 161.714C127.588 160.787 128.761 160.046 129.926 159.373C131.027 158.738 131.874 159.068 132.481 160.182C133.326 161.727 134.645 162.762 136.143 163.588C139.785 165.595 143.775 166.513 147.819 167.262C152.482 168.127 157.122 167.987 161.763 167.118C163.146 166.857 163.228 166.937 163.413 168.325C163.453 168.624 163.509 168.923 163.522 169.231C163.556 170.067 164.298 171.02 163.493 171.72C162.109 172.924 161.135 174.803 158.855 174.667C157.359 174.571 155.839 174.643 154.33 174.643Z" fill="#F6F2ED" fill-opacity="0.32"/>
<path d="M152.265 173.124L152.268 173.124C152.706 173.124 153.152 173.117 153.602 173.111C154.668 173.095 155.758 173.08 156.824 173.148C157.794 173.206 158.484 172.846 159.122 172.297C159.449 172.016 159.753 171.692 160.078 171.346L160.1 171.322C160.411 170.989 160.742 170.636 161.102 170.323L161.102 170.323C161.225 170.216 161.271 170.119 161.291 170.028C161.313 169.925 161.308 169.792 161.27 169.608C161.241 169.47 161.202 169.335 161.156 169.179C161.139 169.12 161.121 169.058 161.102 168.991C161.038 168.769 160.971 168.504 160.96 168.232C160.952 168.035 160.925 167.851 160.894 167.642C160.881 167.557 160.868 167.468 160.855 167.371C160.808 167.018 160.772 166.788 160.728 166.629C160.705 166.547 160.685 166.506 160.675 166.489C160.656 166.484 160.614 166.479 160.534 166.482C160.372 166.488 160.144 166.524 159.793 166.59L159.792 166.59C155.1 167.469 150.398 167.612 145.666 166.734C141.614 165.984 137.556 165.055 133.839 163.006L152.265 173.124ZM152.265 173.124C145.233 173.16 138.31 172.514 131.658 170.231C130.096 169.694 128.604 168.914 127.088 168.122C126.974 168.063 126.861 168.004 126.747 167.945C126.083 167.569 125.479 167.096 124.954 166.542L124.949 166.536M152.265 173.124L124.949 166.536M124.949 166.536L124.943 166.531M124.949 166.536L124.943 166.531M124.943 166.531C124.011 165.608 123.581 164.663 123.572 163.771C123.564 162.883 123.973 161.953 124.909 161.055L124.909 161.055M124.943 166.531L124.909 161.055M124.909 161.055C125.826 160.172 126.955 159.455 128.113 158.786C128.585 158.514 128.92 158.493 129.167 158.576C129.426 158.663 129.708 158.903 129.98 159.402L129.98 159.402M124.909 161.055L129.98 159.402M129.98 159.402C130.888 161.063 132.297 162.156 133.839 163.006L129.98 159.402ZM160.689 166.492C160.689 166.492 160.688 166.492 160.687 166.492L160.689 166.492Z" stroke="url(#paint28_linear_533_2559)"/>
<path d="M157.879 177.231C157.643 177.487 157.453 177.712 157.244 177.921C154.603 180.567 151.952 183.202 149.324 185.86C148.724 186.468 148.054 186.767 147.216 186.604C144.108 185.996 141.039 185.247 138.148 183.894C137.738 183.702 137.339 183.488 136.949 183.262C134.187 181.646 133.65 180.318 134.524 177.277C134.952 175.784 136.169 174.961 137.677 175.282C144.104 176.669 150.608 177.153 157.17 176.983C157.32 176.981 157.47 176.994 157.618 177.019C157.674 177.032 157.719 177.097 157.879 177.231ZM146.964 183.398C147.41 183.164 148.005 183.035 148.163 182.712C148.321 182.389 148.163 181.745 147.916 181.424C147.366 180.71 146.727 180.069 146.016 179.515C144.719 178.526 143.295 178.553 141.973 179.448C141.514 179.758 140.919 180.371 140.961 180.786C141.012 181.267 141.618 181.912 142.118 182.084C143.676 182.621 145.298 182.966 146.964 183.401L146.964 183.398Z" fill="#F6F2ED"/>
<path d="M156.03 177.567L156.03 177.567C156.056 177.541 156.082 177.514 156.107 177.488C149.585 177.643 143.113 177.152 136.711 175.771C136.075 175.635 135.532 175.745 135.106 176.019C134.678 176.296 134.331 176.766 134.145 177.415L134.145 177.415C133.715 178.909 133.671 179.863 133.976 180.616C134.282 181.37 134.983 182.035 136.341 182.83C136.721 183.05 137.106 183.257 137.5 183.442L156.03 177.567ZM156.03 177.567C155.198 178.401 154.364 179.234 153.531 180.067C151.72 181.877 149.908 183.688 148.108 185.509L148.108 185.509M156.03 177.567L148.108 185.509M148.108 185.509C147.592 186.031 147.084 186.236 146.452 186.113M148.108 185.509L146.452 186.113M139.603 180.839L139.603 180.836C139.58 180.607 139.647 180.396 139.725 180.232C139.805 180.062 139.916 179.902 140.033 179.76C140.267 179.476 140.567 179.213 140.833 179.033L139.603 180.839ZM139.603 180.839C139.645 181.234 139.891 181.612 140.14 181.887M139.603 180.839L140.14 181.887M146.452 186.113C143.355 185.508 140.334 184.768 137.5 183.442L146.452 186.113ZM140.14 181.887C140.396 182.169 140.74 182.435 141.095 182.557L140.14 181.887ZM143.147 178.275C142.345 178.269 141.561 178.541 140.833 179.033L141.095 182.557C142.245 182.954 143.438 183.249 144.633 183.546C145.082 183.657 145.531 183.768 145.978 183.885L146.604 184.049L146.604 183.718C146.618 183.712 146.633 183.705 146.648 183.699C146.673 183.689 146.699 183.678 146.725 183.668C146.819 183.629 146.923 183.587 147.018 183.543C147.234 183.445 147.586 183.272 147.752 182.932C147.904 182.62 147.879 182.243 147.82 181.965C147.759 181.67 147.633 181.354 147.453 181.12L147.452 181.119C146.876 180.372 146.207 179.7 145.463 179.12L145.463 179.12L145.458 179.117C144.735 178.566 143.952 178.281 143.147 178.275Z" stroke="#F6F2ED"/>
<path d="M165.911 166.425C165.912 163.793 166.695 161.221 168.159 159.035C169.623 156.849 171.704 155.146 174.137 154.143C176.57 153.141 179.246 152.883 181.826 153.402C184.406 153.922 186.773 155.196 188.628 157.062C190.483 158.929 191.743 161.304 192.246 163.887C192.75 166.469 192.476 169.144 191.458 171.57C190.44 173.997 188.725 176.067 186.529 177.518C184.334 178.969 181.757 179.735 179.125 179.72C171.847 179.7 165.902 173.721 165.911 166.425ZM179.2 177.917C185.493 177.917 190.682 172.731 190.684 166.448C190.675 163.395 189.456 160.469 187.294 158.313C185.132 156.156 182.203 154.945 179.149 154.943C172.863 154.965 167.698 160.164 167.71 166.456C167.723 172.747 172.912 177.923 179.2 177.917Z" fill="url(#paint29_linear_533_2559)"/>
<path d="M170.697 179.582C170.108 179.64 169.52 179.745 168.933 179.745C167.106 179.745 165.868 180.51 165.151 182.257C164.435 184.003 163.561 185.639 162.748 187.322C162.159 188.541 161.479 188.836 160.182 188.448C158.885 188.06 158.187 188.403 157.666 189.629C157.033 191.129 156.397 192.625 155.786 194.136C155.575 194.703 155.242 195.216 154.81 195.639C154.378 196.063 153.858 196.385 153.286 196.584C151.333 197.309 149.394 198.06 147.432 198.751C146.893 198.932 146.327 199.016 145.76 199C145.127 198.985 144.911 198.563 145.216 197.997C145.415 197.626 145.666 197.287 145.963 196.988C152.572 190.369 159.188 183.755 165.812 177.146C166.918 176.041 167.223 176.058 168.307 177.119C168.866 177.663 169.493 178.143 170.086 178.655C170.326 178.86 170.558 179.074 170.794 179.284C170.759 179.389 170.728 179.482 170.697 179.582Z" fill="url(#paint30_linear_533_2559)"/>
<path d="M166.195 174.038C165.631 174.811 165.312 175.393 164.862 175.852C160.824 179.924 156.773 183.983 152.711 188.028C150.107 190.632 147.502 193.232 144.894 195.827C144.573 196.143 144.206 196.409 143.806 196.615C143.613 196.712 143.218 196.688 143.091 196.554C142.964 196.42 142.962 196.033 143.057 195.828C143.223 195.476 143.45 195.156 143.728 194.882C150.57 188.023 157.42 181.172 164.278 174.328C164.517 174.059 164.817 173.85 165.152 173.719C165.375 173.654 165.68 173.868 166.195 174.038Z" fill="#F6F2ED" fill-opacity="0.32"/>
<path d="M166.195 174.839C165.631 175.612 165.312 176.194 164.862 176.653C160.824 180.725 156.773 184.783 152.711 188.829C150.107 191.433 147.502 194.033 144.894 196.627C144.573 196.944 144.206 197.21 143.806 197.416C143.613 197.512 143.218 197.489 143.091 197.355C142.964 197.22 142.962 196.834 143.057 196.629C143.223 196.277 143.45 195.956 143.728 195.682C150.57 188.824 157.42 181.972 164.278 175.129C164.517 174.86 164.817 174.651 165.152 174.52C165.375 174.455 165.68 174.669 166.195 174.839Z" fill="url(#paint31_linear_533_2559)"/>
<path d="M179.284 156.936C181.162 156.953 182.993 157.526 184.545 158.583C186.097 159.64 187.301 161.134 188.004 162.875C188.708 164.616 188.878 166.527 188.496 168.365C188.113 170.204 187.193 171.887 185.854 173.203C184.514 174.519 182.814 175.408 180.969 175.758C179.124 176.107 177.216 175.902 175.488 175.168C173.759 174.434 172.288 173.203 171.259 171.632C170.229 170.062 169.689 168.221 169.706 166.343C169.716 165.096 169.972 163.863 170.459 162.715C170.946 161.567 171.654 160.527 172.544 159.653C173.433 158.779 174.487 158.089 175.643 157.623C176.8 157.157 178.037 156.923 179.284 156.936ZM184.974 162.964C184.992 162.672 184.951 162.378 184.853 162.102C184.755 161.826 184.602 161.572 184.403 161.356C184.205 161.14 183.965 160.967 183.697 160.846C183.43 160.726 183.141 160.66 182.848 160.654C182.555 160.641 182.263 160.686 181.988 160.787C181.713 160.888 181.461 161.044 181.246 161.244C181.032 161.444 180.86 161.684 180.74 161.952C180.62 162.219 180.555 162.508 180.549 162.801C180.538 163.377 180.75 163.935 181.139 164.359C181.529 164.783 182.067 165.042 182.641 165.081C182.934 165.098 183.227 165.056 183.504 164.958C183.78 164.861 184.034 164.709 184.252 164.512C184.469 164.315 184.644 164.076 184.768 163.811C184.892 163.545 184.962 163.257 184.974 162.964Z" fill="#F6F2ED" fill-opacity="0.32"/>
<defs>
<linearGradient id="paint0_linear_533_2559" x1="167.745" y1="70.7767" x2="191.493" y2="84.7933" gradientUnits="userSpaceOnUse">
<stop stop-color="#A58969"/>
<stop offset="1" stop-color="#C7B664"/>
</linearGradient>
<linearGradient id="paint1_linear_533_2559" x1="173.594" y1="53.5393" x2="259.824" y2="96.6109" gradientUnits="userSpaceOnUse">
<stop stop-color="#A58969"/>
<stop offset="1" stop-color="#C7B664"/>
</linearGradient>
<linearGradient id="paint2_linear_533_2559" x1="191.051" y1="49.2027" x2="221.812" y2="66.3522" gradientUnits="userSpaceOnUse">
<stop stop-color="#A58969"/>
<stop offset="1" stop-color="#C7B664"/>
</linearGradient>
<linearGradient id="paint3_linear_533_2559" x1="210.569" y1="56.6674" x2="229.098" y2="69.8813" gradientUnits="userSpaceOnUse">
<stop stop-color="#A58969"/>
<stop offset="1" stop-color="#C7B664"/>
</linearGradient>
<linearGradient id="paint4_linear_533_2559" x1="198.341" y1="56.8737" x2="203.468" y2="58.6813" gradientUnits="userSpaceOnUse">
<stop stop-color="#A58969"/>
<stop offset="1" stop-color="#C7B664"/>
</linearGradient>
<linearGradient id="paint5_linear_533_2559" x1="194.857" y1="56.9067" x2="195.57" y2="56.9445" gradientUnits="userSpaceOnUse">
<stop stop-color="#A58969"/>
<stop offset="1" stop-color="#C7B664"/>
</linearGradient>
<linearGradient id="paint6_linear_533_2559" x1="208.252" y1="57.0422" x2="210.143" y2="57.2935" gradientUnits="userSpaceOnUse">
<stop stop-color="#A58969"/>
<stop offset="1" stop-color="#C7B664"/>
</linearGradient>
<linearGradient id="paint7_linear_533_2559" x1="205.696" y1="57.2476" x2="207.449" y2="57.4832" gradientUnits="userSpaceOnUse">
<stop stop-color="#A58969"/>
<stop offset="1" stop-color="#C7B664"/>
</linearGradient>
<linearGradient id="paint8_linear_533_2559" x1="216.661" y1="62.6308" x2="216.843" y2="62.6354" gradientUnits="userSpaceOnUse">
<stop stop-color="#A58969"/>
<stop offset="1" stop-color="#C7B664"/>
</linearGradient>
<linearGradient id="paint9_linear_533_2559" x1="196.08" y1="55.4314" x2="211.838" y2="66.7442" gradientUnits="userSpaceOnUse">
<stop stop-color="#A58969"/>
<stop offset="1" stop-color="#C7B664"/>
</linearGradient>
<linearGradient id="paint10_linear_533_2559" x1="214.997" y1="60.7811" x2="224.57" y2="67.9392" gradientUnits="userSpaceOnUse">
<stop stop-color="#A58969"/>
<stop offset="1" stop-color="#C7B664"/>
</linearGradient>
<linearGradient id="paint11_linear_533_2559" x1="194.862" y1="57.151" x2="204.235" y2="68.1051" gradientUnits="userSpaceOnUse">
<stop stop-color="#A58969"/>
<stop offset="1" stop-color="#C7B664"/>
</linearGradient>
<linearGradient id="paint12_linear_533_2559" x1="194.862" y1="57.151" x2="204.235" y2="68.1051" gradientUnits="userSpaceOnUse">
<stop stop-color="#A58969"/>
<stop offset="1" stop-color="#C7B664"/>
</linearGradient>
<linearGradient id="paint13_linear_533_2559" x1="194.862" y1="57.151" x2="204.235" y2="68.1051" gradientUnits="userSpaceOnUse">
<stop stop-color="#A58969"/>
<stop offset="1" stop-color="#C7B664"/>
</linearGradient>
<linearGradient id="paint14_linear_533_2559" x1="194.862" y1="57.151" x2="204.235" y2="68.1051" gradientUnits="userSpaceOnUse">
<stop stop-color="#A58969"/>
<stop offset="1" stop-color="#C7B664"/>
</linearGradient>
<linearGradient id="paint15_linear_533_2559" x1="213.714" y1="61.8646" x2="219.572" y2="68.7109" gradientUnits="userSpaceOnUse">
<stop stop-color="#A58969"/>
<stop offset="1" stop-color="#C7B664"/>
</linearGradient>
<linearGradient id="paint16_linear_533_2559" x1="213.714" y1="61.8646" x2="219.572" y2="68.7109" gradientUnits="userSpaceOnUse">
<stop stop-color="#A58969"/>
<stop offset="1" stop-color="#C7B664"/>
</linearGradient>
<linearGradient id="paint17_linear_533_2559" x1="213.714" y1="61.8646" x2="219.572" y2="68.7109" gradientUnits="userSpaceOnUse">
<stop stop-color="#A58969"/>
<stop offset="1" stop-color="#C7B664"/>
</linearGradient>
<linearGradient id="paint18_linear_533_2559" x1="213.714" y1="61.8646" x2="219.572" y2="68.7109" gradientUnits="userSpaceOnUse">
<stop stop-color="#A58969"/>
<stop offset="1" stop-color="#C7B664"/>
</linearGradient>
<linearGradient id="paint19_linear_533_2559" x1="3.90199" y1="138.993" x2="53.7302" y2="161.35" gradientUnits="userSpaceOnUse">
<stop stop-color="#A58969"/>
<stop offset="1" stop-color="#C7B664"/>
</linearGradient>
<linearGradient id="paint20_linear_533_2559" x1="13.9742" y1="144.997" x2="36.4233" y2="153.39" gradientUnits="userSpaceOnUse">
<stop stop-color="#A58969"/>
<stop offset="1" stop-color="#C7B664"/>
</linearGradient>
<linearGradient id="paint21_linear_533_2559" x1="18.9089" y1="152.799" x2="25.7668" y2="157.787" gradientUnits="userSpaceOnUse">
<stop stop-color="#A58969"/>
<stop offset="1" stop-color="#C7B664"/>
</linearGradient>
<linearGradient id="paint22_linear_533_2559" x1="18.9425" y1="148.722" x2="25.1082" y2="152.802" gradientUnits="userSpaceOnUse">
<stop stop-color="#A58969"/>
<stop offset="1" stop-color="#C7B664"/>
</linearGradient>
<linearGradient id="paint23_linear_533_2559" x1="90.8699" y1="118.97" x2="2.10686" y2="152.09" gradientUnits="userSpaceOnUse">
<stop stop-color="#A58969"/>
<stop offset="1" stop-color="#C7B664"/>
</linearGradient>
<linearGradient id="paint24_linear_533_2559" x1="40.9125" y1="131.167" x2="21.5482" y2="139.16" gradientUnits="userSpaceOnUse">
<stop stop-color="#A58969"/>
<stop offset="1" stop-color="#C7B664"/>
</linearGradient>
<linearGradient id="paint25_linear_533_2559" x1="65.083" y1="2.84276" x2="156.351" y2="41.1585" gradientUnits="userSpaceOnUse">
<stop stop-color="#A58969"/>
<stop offset="1" stop-color="#C7B664"/>
</linearGradient>
<linearGradient id="paint26_linear_533_2559" x1="84.4563" y1="63.5298" x2="104.552" y2="79.277" gradientUnits="userSpaceOnUse">
<stop stop-color="#A58969"/>
<stop offset="1" stop-color="#C7B664"/>
</linearGradient>
<linearGradient id="paint27_linear_533_2559" x1="131.522" y1="139.992" x2="182.368" y2="175.921" gradientUnits="userSpaceOnUse">
<stop stop-color="#A58969"/>
<stop offset="1" stop-color="#C7B664"/>
</linearGradient>
<linearGradient id="paint28_linear_533_2559" x1="122.481" y1="158.771" x2="155.38" y2="195.371" gradientUnits="userSpaceOnUse">
<stop stop-color="#A58969"/>
<stop offset="1" stop-color="#C7B664"/>
</linearGradient>
<linearGradient id="paint29_linear_533_2559" x1="165.505" y1="154.396" x2="207.56" y2="173.265" gradientUnits="userSpaceOnUse">
<stop stop-color="#A58969"/>
<stop offset="1" stop-color="#C7B664"/>
</linearGradient>
<linearGradient id="paint30_linear_533_2559" x1="144.687" y1="177.391" x2="183.514" y2="197.142" gradientUnits="userSpaceOnUse">
<stop stop-color="#A58969"/>
<stop offset="1" stop-color="#C7B664"/>
</linearGradient>
<linearGradient id="paint31_linear_533_2559" x1="142.636" y1="175.592" x2="179.222" y2="192.178" gradientUnits="userSpaceOnUse">
<stop stop-color="#A58969"/>
<stop offset="1" stop-color="#C7B664"/>
</linearGradient>
<clipPath id="clip0_533_2559">
<rect width="34.4799" height="28.4834" fill="white" transform="translate(191.382 37)"/>
</clipPath>
<clipPath id="clip1_533_2559">
<rect width="34.4799" height="28.4834" fill="white" transform="translate(189.993 37)"/>
</clipPath>
<clipPath id="clip2_533_2559">
<rect width="13.4583" height="16.1499" fill="white" transform="translate(14.1797 144.234)"/>
</clipPath>
<clipPath id="clip3_533_2559">
<rect width="67.4085" height="73.728" fill="white" transform="translate(65.9453)"/>
</clipPath>
</defs>
</svg>
