<svg width="124" height="117" viewBox="0 0 124 117" fill="none" xmlns="http://www.w3.org/2000/svg">
<path opacity="0.4" d="M120.575 30.9952C120.435 30.9601 120.313 30.8727 120.234 30.7507C120.156 30.6287 120.127 30.4813 120.153 30.3386C120.18 30.1959 120.259 30.0686 120.376 29.9827C120.493 29.8968 120.638 29.8587 120.781 29.8762C120.925 29.8937 121.057 29.9654 121.15 30.0768C121.242 30.1882 121.289 30.3309 121.281 30.4758C121.272 30.6206 121.209 30.7568 121.104 30.8564C120.998 30.9561 120.859 31.0118 120.714 31.0121C120.667 31.0123 120.621 31.0066 120.575 30.9952ZM122.33 28.9119C122.33 28.7464 122.379 28.5847 122.471 28.4471C122.562 28.3095 122.693 28.2022 122.845 28.1389C122.998 28.0756 123.166 28.059 123.328 28.0913C123.49 28.1236 123.639 28.2033 123.756 28.3203C123.872 28.4373 123.952 28.5864 123.984 28.7487C124.016 28.911 124 29.0792 123.937 29.2321C123.873 29.385 123.766 29.5157 123.629 29.6076C123.492 29.6996 123.33 29.7486 123.165 29.7486C123.055 29.7486 122.947 29.727 122.845 29.6849C122.744 29.6429 122.652 29.5813 122.574 29.5036C122.418 29.3467 122.33 29.1338 122.33 28.9119ZM119.897 10.207C119.897 9.99726 119.959 9.79227 120.076 9.61798C120.192 9.44368 120.358 9.3079 120.551 9.22781C120.745 9.14772 120.958 9.12692 121.163 9.16803C121.368 9.20915 121.557 9.31033 121.705 9.45879C121.853 9.60725 121.953 9.79632 121.994 10.0021C122.035 10.2079 122.013 10.4211 121.933 10.6148C121.853 10.8085 121.717 10.974 121.543 11.0904C121.369 11.2068 121.164 11.2688 120.955 11.2686C120.815 11.2686 120.678 11.2411 120.549 11.1877C120.421 11.1343 120.304 11.0561 120.206 10.9575C120.108 10.8589 120.03 10.7419 119.977 10.6131C119.924 10.4843 119.897 10.3463 119.897 10.207Z" fill="url(#paint0_linear_516_8724)"/>
<path opacity="0.4" d="M114.256 29.7475C119.636 29.7475 123.998 25.3779 123.998 19.9876C123.998 14.5974 119.636 10.2278 114.256 10.2278C108.876 10.2278 104.515 14.5974 104.515 19.9876C104.515 25.3779 108.876 29.7475 114.256 29.7475Z" fill="url(#paint1_linear_516_8724)"/>
<path opacity="0.4" d="M26.3271 111.076C40.8671 111.076 52.6541 99.2673 52.6541 84.7C52.6541 70.1326 40.8671 58.3235 26.3271 58.3235C11.787 58.3235 0 70.1326 0 84.7C0 99.2673 11.787 111.076 26.3271 111.076Z" fill="url(#paint2_linear_516_8724)"/>
<path opacity="0.4" d="M19.0508 114.741C19.0508 114.294 19.1831 113.857 19.4309 113.485C19.6787 113.114 20.0309 112.824 20.443 112.653C20.8551 112.482 21.3085 112.438 21.746 112.525C22.1834 112.612 22.5852 112.827 22.9006 113.143C23.216 113.459 23.4308 113.862 23.5178 114.3C23.6048 114.738 23.5602 115.193 23.3895 115.605C23.2188 116.018 22.9298 116.371 22.5589 116.619C22.188 116.868 21.752 117 21.306 117C20.7079 117 20.1343 116.762 19.7114 116.338C19.2884 115.915 19.0508 115.34 19.0508 114.741ZM26.9384 114.849C26.9384 114.544 27.0288 114.246 27.1981 113.992C27.3673 113.738 27.608 113.54 27.8894 113.423C28.1709 113.307 28.4807 113.276 28.7795 113.336C29.0782 113.395 29.3527 113.543 29.568 113.758C29.7834 113.974 29.93 114.249 29.9893 114.549C30.0486 114.848 30.018 115.158 29.9013 115.44C29.7845 115.722 29.587 115.963 29.3336 116.133C29.0802 116.302 28.7823 116.392 28.4776 116.392C28.0693 116.392 27.6778 116.229 27.3892 115.94C27.1006 115.651 26.9384 115.258 26.9384 114.849ZM6.26465 58.9603C6.26465 58.3934 6.43244 57.8392 6.7468 57.3679C7.06116 56.8965 7.50797 56.5291 8.03073 56.3122C8.55349 56.0952 9.12873 56.0385 9.68369 56.1491C10.2386 56.2597 10.7484 56.5327 11.1485 56.9335C11.5486 57.3344 11.8211 57.8451 11.9315 58.4011C12.0419 58.9571 11.9852 59.5334 11.7687 60.0571C11.5521 60.5809 11.1855 61.0285 10.715 61.3435C10.2445 61.6584 9.69139 61.8265 9.12555 61.8265C8.36679 61.8265 7.63911 61.5246 7.10259 60.987C6.56606 60.4495 6.26465 59.7205 6.26465 58.9603Z" fill="url(#paint3_linear_516_8724)"/>
<path d="M39.7764 4.97436L39.7764 106.863C39.7764 109.61 41.9993 111.837 44.7415 111.837H105.241C107.983 111.837 110.206 109.61 110.206 106.863V4.97436C110.206 2.22704 107.983 -9.15527e-05 105.241 -9.15527e-05H44.7415C41.9993 -9.15527e-05 39.7764 2.22704 39.7764 4.97436Z" fill="#F6F2ED"/>
<path d="M40.521 4.97443L40.521 106.863C40.521 109.198 42.4105 111.091 44.7414 111.091H105.24C107.571 111.091 109.461 109.198 109.461 106.863V4.97443C109.461 2.63921 107.571 0.746147 105.24 0.746147H44.7414C42.4105 0.746147 40.521 2.63921 40.521 4.97443Z" stroke="#272421" stroke-width="1.5"/>
<path d="M58.0006 46.2342H54.7892V47.7266H53.9858V43.7042H54.7892V45.1966H58.0006V46.2342Z" fill="#F6F2ED"/>
<path d="M54.4089 42.8357C54.0931 42.7043 53.9382 42.5372 53.9382 42.0467C53.9133 41.8811 53.9466 41.7119 54.0325 41.5682C54.1184 41.4244 54.2514 41.315 54.4089 41.2588L57.9997 39.7505V40.8369L57.0821 41.1991V42.8904L57.9997 43.2525V44.335L54.4089 42.8357ZM56.3016 42.6436V41.4498L55.0306 41.9622C54.965 41.986 54.9015 42.0029 54.9015 42.0467C54.9015 42.0905 54.964 42.1094 55.0276 42.1333L56.3016 42.6436Z" fill="#F6F2ED"/>
<path d="M58.0009 39.5487H54.6048C54.5219 39.56 54.4376 39.5522 54.3582 39.5258C54.2788 39.4995 54.2065 39.4553 54.1468 39.3966C54.087 39.3379 54.0415 39.2664 54.0137 39.1874C53.9858 39.1083 53.9764 39.024 53.9861 38.9408V36.8028C53.9861 35.9074 54.5432 35.7163 55.3456 35.7163C56.1479 35.7163 56.7169 35.9123 56.7169 36.8028V38.514H58.0019L58.0009 39.5487ZM55.9156 37.337C55.9156 36.9062 55.7487 36.7739 55.3476 36.7739C54.9464 36.7739 54.7875 36.9052 54.7875 37.337V38.2444C54.7875 38.4433 54.857 38.515 55.0576 38.515H55.9126L55.9156 37.337Z" fill="#F6F2ED"/>
<path d="M57.559 35.0553V32.8098C57.559 32.5054 57.3465 32.384 56.9969 32.384C56.7844 32.384 56.5719 32.4298 56.4398 32.8317L55.9116 34.4235C55.8623 34.6407 55.7339 34.8318 55.5516 34.9592C55.3692 35.0867 55.146 35.1415 54.9255 35.113C54.8002 35.1309 54.6725 35.1199 54.5521 35.0807C54.4317 35.0416 54.3219 34.9753 54.231 34.8871C54.1402 34.7988 54.0707 34.6909 54.0279 34.5716C53.9851 34.4523 53.9701 34.3247 53.9841 34.1987V32.0199H54.419V34.1012C54.419 34.4046 54.563 34.5548 54.9354 34.5548C55.0579 34.5739 55.1831 34.5454 55.2853 34.4751C55.3876 34.4049 55.4592 34.2982 55.4855 34.1768L55.99 32.6596C56.1688 32.1283 56.3674 31.8298 56.9979 31.8298C57.5431 31.8298 57.9969 32.0428 57.9969 32.6626V35.0553H57.559Z" fill="#F6F2ED"/>
<path d="M58.0006 31.2234H53.9858V30.6891H58.0006V31.2234Z" fill="#F6F2ED"/>
<path d="M57.4773 26.4658C57.8497 26.4658 57.9987 26.6499 57.9987 26.9951V28.4546C57.9987 29.7599 57.1099 30.0583 55.9908 30.0583C54.8717 30.0583 53.9839 29.7599 53.9839 28.38V26.5583H54.4188V28.2009C54.4188 29.2067 54.9014 29.4992 55.9908 29.4992C57.0801 29.4992 57.5588 29.2067 57.5588 28.2805V27.2637C57.5588 27.0647 57.4893 27.0001 57.2887 27.0001H56.0941V26.4658H57.4773Z" fill="#F6F2ED"/>
<path d="M57.5418 22.2076C57.6082 22.1993 57.6756 22.2058 57.7391 22.2269C57.8026 22.2479 57.8606 22.2828 57.9089 22.3291C57.9572 22.3754 57.9946 22.432 58.0184 22.4946C58.0422 22.5572 58.0517 22.6244 58.0463 22.6911C58.051 22.8006 58.0236 22.9091 57.9675 23.0031C57.9114 23.0972 57.829 23.1727 57.7305 23.2204L54.7028 25.1157C54.6353 25.1565 54.6045 25.1903 54.6045 25.2311C54.6045 25.254 54.6283 25.3117 54.7197 25.3117H57.9966V25.834H54.4158C54.3504 25.8383 54.2849 25.8282 54.2238 25.8044C54.1627 25.7807 54.1076 25.7438 54.0622 25.6964C54.0169 25.6489 53.9825 25.5922 53.9614 25.53C53.9403 25.4678 53.933 25.4018 53.9401 25.3365C53.9341 25.2313 53.9585 25.1266 54.0102 25.0349C54.062 24.9432 54.139 24.8683 54.2321 24.8192L57.2837 22.91C57.3293 22.8812 57.383 22.8573 57.383 22.8006C57.383 22.7439 57.3204 22.7309 57.2837 22.7309H53.9838V22.2086L57.5418 22.2076Z" fill="#F6F2ED"/>
<path d="M57.9997 20.898C58.0109 20.975 58.0038 21.0537 57.9792 21.1275C57.9545 21.2014 57.9128 21.2684 57.8576 21.3232C57.8023 21.378 57.735 21.419 57.661 21.4429C57.587 21.4669 57.5085 21.4731 57.4317 21.4611H54.5519C54.1219 21.4611 53.9839 21.2482 53.9839 20.898V18.4107H54.4188V20.6652C54.4188 20.888 54.4883 20.9268 54.6889 20.9268H55.7266V18.4684H56.1616V20.9268H57.2847C57.4833 20.9268 57.5598 20.886 57.5598 20.6632V18.3889H57.9947V20.898H57.9997Z" fill="#F6F2ED"/>
<path d="M54.5926 17.8108C54.1626 17.8108 53.9858 17.5979 53.9858 17.2198V15.3574C53.9858 14.6152 54.4565 14.3804 55.2023 14.3804C55.9719 14.3804 56.4813 14.5983 56.4813 15.2947V15.9434H56.5101L57.9996 14.2939V15.0072L56.5905 16.5463C56.5603 16.5866 56.5223 16.6205 56.4788 16.6459C56.4353 16.6714 56.3872 16.6879 56.3373 16.6945H56.246C56.1258 16.6945 56.0474 16.608 56.0474 16.4528V15.4708C56.0474 14.9823 55.6919 14.9366 55.2043 14.9366C54.7167 14.9366 54.4228 15.0191 54.4228 15.5584V16.989C54.4228 17.1741 54.4824 17.2765 54.6978 17.2765H58.0016V17.8108H54.5926Z" fill="#F6F2ED"/>
<path d="M46.7036 11.1688L46.7036 101.022C46.7036 103.357 48.5931 105.25 50.924 105.25H99.5494C101.88 105.25 103.77 103.357 103.77 101.022V11.1688C103.77 8.83357 101.88 6.94051 99.5494 6.94051H50.924C48.5931 6.94051 46.7036 8.83357 46.7036 11.1688Z" stroke="#272421" stroke-width="1.5" stroke-dasharray="1.5 2"/>
<path d="M97.5936 9.20679H52.543C50.8977 9.20679 49.564 10.5431 49.564 12.1915V98.3658C49.564 100.014 50.8977 101.35 52.543 101.35H97.5936C99.2389 101.35 100.573 100.014 100.573 98.3658V12.1915C100.573 10.5431 99.2389 9.20679 97.5936 9.20679Z" fill="#272421"/>
<path d="M72.9208 23.8638H58.2826C56.0889 23.8638 54.3105 25.6455 54.3105 27.8433V31.3891C54.3105 33.587 56.0889 35.3687 58.2826 35.3687H72.9208C75.1146 35.3687 76.8929 33.587 76.8929 31.3891V27.8433C76.8929 25.6455 75.1146 23.8638 72.9208 23.8638Z" fill="#F6F2ED"/>
<path d="M92.7367 42.2827H56.6274C54.4336 42.2827 52.6553 44.0644 52.6553 46.2623V93.4986C52.6553 95.6965 54.4336 97.4782 56.6274 97.4782H92.7367C94.9305 97.4782 96.7088 95.6965 96.7088 93.4986V46.2623C96.7088 44.0644 94.9305 42.2827 92.7367 42.2827Z" fill="#F6F2ED"/>
<path d="M74.4938 48.6418H74.4928C72.3588 48.6418 70.6289 50.375 70.6289 52.513V53.288C70.6289 55.4259 72.3588 57.1591 74.4928 57.1591H74.4938C76.6277 57.1591 78.3576 55.4259 78.3576 53.288V52.513C78.3576 50.375 76.6277 48.6418 74.4938 48.6418Z" fill="#272421"/>
<path d="M74.4938 71.8711H74.4928C72.3588 71.8711 70.6289 73.6043 70.6289 75.7422V76.5172C70.6289 78.6552 72.3588 80.3883 74.4928 80.3883H74.4938C76.6277 80.3883 78.3576 78.6552 78.3576 76.5172V75.7422C78.3576 73.6043 76.6277 71.8711 74.4938 71.8711Z" fill="#272421"/>
<path d="M74.4938 83.4863H74.4928C72.3588 83.4863 70.6289 85.2195 70.6289 87.3574V88.1325C70.6289 90.2704 72.3588 92.0036 74.4928 92.0036H74.4938C76.6277 92.0036 78.3576 90.2704 78.3576 88.1325V87.3574C78.3576 85.2195 76.6277 83.4863 74.4938 83.4863Z" fill="#272421"/>
<path d="M74.4938 60.2571H74.4928C72.3588 60.2571 70.6289 61.9902 70.6289 64.1282V64.9032C70.6289 67.0412 72.3588 68.7743 74.4928 68.7743H74.4938C76.6277 68.7743 78.3576 67.0412 78.3576 64.9032V64.1282C78.3576 61.9902 76.6277 60.2571 74.4938 60.2571Z" fill="#272421"/>
<path d="M86.087 48.6418H86.086C83.9521 48.6418 82.2222 50.375 82.2222 52.513V53.288C82.2222 55.4259 83.9521 57.1591 86.086 57.1591H86.087C88.221 57.1591 89.9509 55.4259 89.9509 53.288V52.513C89.9509 50.375 88.221 48.6418 86.087 48.6418Z" fill="#272421"/>
<path d="M86.087 71.8711H86.086C83.9521 71.8711 82.2222 73.6043 82.2222 75.7422V76.5172C82.2222 78.6552 83.9521 80.3883 86.086 80.3883H86.087C88.221 80.3883 89.9509 78.6552 89.9509 76.5172V75.7422C89.9509 73.6043 88.221 71.8711 86.087 71.8711Z" fill="#272421"/>
<path d="M86.087 83.4863H86.086C83.9521 83.4863 82.2222 85.2195 82.2222 87.3574V88.1325C82.2222 90.2704 83.9521 92.0036 86.086 92.0036H86.087C88.221 92.0036 89.9509 90.2704 89.9509 88.1325V87.3574C89.9509 85.2195 88.221 83.4863 86.087 83.4863Z" fill="#272421"/>
<path d="M86.087 60.2571H86.086C83.9521 60.2571 82.2222 61.9902 82.2222 64.1282V64.9032C82.2222 67.0412 83.9521 68.7743 86.086 68.7743H86.087C88.221 68.7743 89.9509 67.0412 89.9509 64.9032V64.1282C89.9509 61.9902 88.221 60.2571 86.087 60.2571Z" fill="#272421"/>
<path d="M62.901 48.6418H62.9C60.766 48.6418 59.0361 50.375 59.0361 52.513V53.288C59.0361 55.4259 60.766 57.1591 62.9 57.1591H62.901C65.0349 57.1591 66.7648 55.4259 66.7648 53.288V52.513C66.7648 50.375 65.0349 48.6418 62.901 48.6418Z" fill="#272421"/>
<path d="M62.901 71.8711H62.9C60.766 71.8711 59.0361 73.6043 59.0361 75.7422V76.5172C59.0361 78.6552 60.766 80.3883 62.9 80.3883H62.901C65.0349 80.3883 66.7648 78.6552 66.7648 76.5172V75.7422C66.7648 73.6043 65.0349 71.8711 62.901 71.8711Z" fill="#272421"/>
<path d="M62.901 83.4863H62.9C60.766 83.4863 59.0361 85.2195 59.0361 87.3574V88.1325C59.0361 90.2704 60.766 92.0036 62.9 92.0036H62.901C65.0349 92.0036 66.7648 90.2704 66.7648 88.1325V87.3574C66.7648 85.2195 65.0349 83.4863 62.901 83.4863Z" fill="#272421"/>
<path d="M62.901 60.2571H62.9C60.766 60.2571 59.0361 61.9902 59.0361 64.1282V64.9032C59.0361 67.0412 60.766 68.7743 62.9 68.7743H62.901C65.0349 68.7743 66.7648 67.0412 66.7648 64.9032V64.1282C66.7648 61.9902 65.0349 60.2571 62.901 60.2571Z" fill="#272421"/>
<defs>
<linearGradient id="paint0_linear_516_8724" x1="119.834" y1="10.18" x2="127.578" y2="10.832" gradientUnits="userSpaceOnUse">
<stop stop-color="#A58969"/>
<stop offset="1" stop-color="#C7B664"/>
</linearGradient>
<linearGradient id="paint1_linear_516_8724" x1="104.217" y1="11.1495" x2="135.062" y2="24.9628" gradientUnits="userSpaceOnUse">
<stop stop-color="#A58969"/>
<stop offset="1" stop-color="#C7B664"/>
</linearGradient>
<linearGradient id="paint2_linear_516_8724" x1="-0.80388" y1="60.8146" x2="82.5552" y2="98.1457" gradientUnits="userSpaceOnUse">
<stop stop-color="#A58969"/>
<stop offset="1" stop-color="#C7B664"/>
</linearGradient>
<linearGradient id="paint3_linear_516_8724" x1="5.90199" y1="58.9701" x2="49.7089" y2="66.6359" gradientUnits="userSpaceOnUse">
<stop stop-color="#A58969"/>
<stop offset="1" stop-color="#C7B664"/>
</linearGradient>
</defs>
</svg>
