<svg width="275" height="230" viewBox="0 0 275 230" fill="none" xmlns="http://www.w3.org/2000/svg">
<path d="M144.119 216.554C199.777 216.554 244.896 171.435 244.896 115.777C244.896 60.1194 199.777 15 144.119 15C88.4614 15 43.342 60.1194 43.342 115.777C43.342 171.435 88.4614 216.554 144.119 216.554Z" fill="#C3B075" fill-opacity="0.03"/>
<path d="M67.0381 216.555H65.2161V220.091H67.0381V216.555Z" fill="#F6F2ED"/>
<path d="M67.0381 226.297H65.2161V229.833H67.0381V226.297Z" fill="#F6F2ED"/>
<path d="M72.7677 222.283H69.2317V224.105H72.7677V222.283Z" fill="#F6F2ED"/>
<path d="M63.0245 222.283H59.4885V224.105H63.0245V222.283Z" fill="#F6F2ED"/>
<path d="M199.827 151.472C201.595 151.472 203.028 150.039 203.028 148.271C203.028 146.503 201.595 145.07 199.827 145.07C198.059 145.07 196.626 146.503 196.626 148.271C196.626 150.039 198.059 151.472 199.827 151.472Z" fill="#F6F2ED"/>
<path d="M260.753 34.7598H258.045V39.5088H260.753V34.7598Z" fill="#F6F2ED"/>
<path d="M260.753 47.8457H258.045V52.5947H260.753V47.8457Z" fill="#F6F2ED"/>
<path d="M268.317 42.3242H263.568V45.0322H268.317V42.3242Z" fill="#F6F2ED"/>
<path d="M255.231 42.3242H250.482V45.0322H255.231V42.3242Z" fill="#F6F2ED"/>
<path d="M6.91 96.8747C10.7263 96.8747 13.82 93.781 13.82 89.9647C13.82 86.1484 10.7263 83.0547 6.91 83.0547C3.09371 83.0547 0 86.1484 0 89.9647C0 93.781 3.09371 96.8747 6.91 96.8747Z" fill="#F6F2ED"/>
<path d="M34.4482 54.2518C36.3569 54.2518 37.9042 52.7045 37.9042 50.7958C37.9042 48.8871 36.3569 47.3398 34.4482 47.3398C32.5395 47.3398 30.9922 48.8871 30.9922 50.7958C30.9922 52.7045 32.5395 54.2518 34.4482 54.2518Z" fill="#F6F2ED"/>
<path d="M247.069 204.297C249.374 204.297 251.244 202.428 251.244 200.122C251.244 197.816 249.374 195.947 247.069 195.947C244.763 195.947 242.894 197.816 242.894 200.122C242.894 202.428 244.763 204.297 247.069 204.297Z" fill="#F6F2ED"/>
<path d="M222.678 123.937C223.145 124.837 223.72 125.677 224.39 126.437L226.421 124.646C225.896 124.052 225.446 123.395 225.08 122.691L222.678 123.937ZM225.597 96.5375C224.829 97.1998 224.145 97.9534 223.559 98.7815L225.771 100.343C226.229 99.6954 226.764 99.1057 227.365 98.5875L225.597 96.5375ZM226.654 128.442C227.489 129.02 228.392 129.493 229.342 129.85L230.294 127.314C229.552 127.035 228.846 126.666 228.194 126.214L226.654 128.442ZM228.112 94.8525L229.333 97.2695C230.04 96.9121 230.788 96.6434 231.56 96.4695L230.966 93.8265C229.976 94.0509 229.017 94.3968 228.112 94.8565V94.8525ZM233.951 96.2295H236.659V93.5215H233.951V96.2295ZM232.597 127.868L232.291 130.562C232.763 130.616 233.238 130.643 233.713 130.643H235.151V127.936H233.713C233.34 127.936 232.967 127.915 232.597 127.872V127.868ZM224.648 102.432L222.124 101.45C221.756 102.397 221.507 103.386 221.382 104.393L224.069 104.728C224.167 103.944 224.362 103.174 224.648 102.436V102.432ZM257.133 100.468C256.685 99.5596 256.127 98.7086 255.473 97.9345L253.405 99.6815C253.918 100.287 254.354 100.954 254.705 101.665L257.133 100.468ZM223.991 112.683H221.291V115.391H223.991V112.683ZM223.991 107.267H221.291V109.975H223.991V107.267ZM223.991 118.219V118.098H221.291V118.219C221.291 119.188 221.403 120.152 221.625 121.094L224.261 120.47C224.084 119.733 223.993 118.978 223.991 118.219ZM258.125 103.336L255.477 103.905C255.621 104.578 255.694 105.263 255.693 105.95V106.31H258.401V105.95C258.402 105.072 258.311 104.196 258.128 103.336H258.125ZM252.16 125.714L253.886 127.801C254.667 127.155 255.366 126.416 255.969 125.601L253.792 123.99C253.321 124.629 252.774 125.208 252.163 125.714H252.16ZM254.96 121.93L257.46 122.964C257.848 122.026 258.118 121.044 258.266 120.039L255.586 119.646C255.473 120.431 255.264 121.198 254.963 121.93H254.96ZM255.693 111.73H258.401V109.022H255.691L255.693 111.73ZM237.855 130.643H240.563V127.934H237.855V130.643ZM255.691 117.142H258.399V114.434H255.691V117.142ZM250.591 94.4145L249.584 96.9285C250.32 97.2235 251.017 97.6077 251.659 98.0725L253.246 95.8795C252.427 95.2845 251.538 94.7921 250.599 94.4135L250.591 94.4145ZM243.271 130.643H245.979V127.934H243.271V130.643ZM247.923 127.742L248.461 130.395C249.456 130.194 250.422 129.87 251.337 129.432L250.168 126.99C249.453 127.332 248.699 127.585 247.923 127.742ZM239.366 96.2335H242.074V93.5255H239.366V96.2335ZM244.781 93.5255V96.2335H245.981C246.424 96.2334 246.866 96.2632 247.304 96.3225L247.669 93.6395C247.11 93.5635 246.546 93.5254 245.981 93.5255H244.781Z" fill="url(#paint0_linear_526_6936)"/>
<path d="M253.38 105.996C253.38 104.021 252.595 102.127 251.198 100.73C249.802 99.3334 247.908 98.5488 245.933 98.5488H233.756C231.781 98.5488 229.886 99.3334 228.49 100.73C227.093 102.127 226.309 104.021 226.309 105.996V118.174C226.309 119.152 226.501 120.12 226.875 121.024C227.25 121.927 227.798 122.748 228.49 123.439C229.181 124.131 230.002 124.679 230.906 125.053C231.809 125.427 232.778 125.62 233.756 125.62H245.934C247.909 125.62 249.803 124.835 251.199 123.439C252.596 122.042 253.381 120.148 253.381 118.173L253.38 105.996Z" fill="url(#paint1_linear_526_6936)"/>
<path d="M261.965 88.6113H217.727C217.368 88.6113 217.024 88.754 216.77 89.0079C216.516 89.2618 216.373 89.6062 216.373 89.9653V134.205C216.373 134.564 216.516 134.909 216.77 135.163C217.024 135.417 217.368 135.559 217.727 135.559H261.967C262.326 135.559 262.67 135.416 262.924 135.162C263.178 134.909 263.321 134.564 263.321 134.205V89.9653C263.321 89.7874 263.286 89.6112 263.217 89.4469C263.149 89.2825 263.049 89.1332 262.923 89.0075C262.798 88.8818 262.648 88.7821 262.484 88.7141C262.319 88.6461 262.143 88.6112 261.965 88.6113ZM260.611 132.851H219.079V91.3193H260.611V132.851Z" fill="url(#paint2_linear_526_6936)"/>
<path d="M268.317 101.303H262.885V104.011H268.317V101.303Z" fill="url(#paint3_linear_526_6936)"/>
<path d="M268.317 111.086H262.885V113.794H268.317V111.086Z" fill="url(#paint4_linear_526_6936)"/>
<path d="M268.317 120.896H262.885V123.604H268.317V120.896Z" fill="url(#paint5_linear_526_6936)"/>
<path d="M270.981 98.6367C270.186 98.6369 269.409 98.8727 268.749 99.3143C268.088 99.756 267.573 100.384 267.269 101.118C266.965 101.852 266.886 102.66 267.041 103.439C267.196 104.219 267.579 104.934 268.141 105.496C268.703 106.058 269.419 106.441 270.198 106.596C270.978 106.751 271.786 106.671 272.52 106.367C273.254 106.063 273.881 105.548 274.323 104.887C274.764 104.226 275 103.449 275 102.655C274.999 101.589 274.575 100.568 273.821 99.8144C273.068 99.0611 272.046 98.6375 270.981 98.6367ZM270.981 103.966C270.722 103.966 270.468 103.889 270.253 103.745C270.037 103.601 269.869 103.396 269.77 103.156C269.67 102.917 269.644 102.653 269.695 102.399C269.746 102.145 269.871 101.911 270.054 101.728C270.237 101.544 270.471 101.419 270.725 101.369C270.979 101.318 271.243 101.344 271.483 101.444C271.722 101.543 271.927 101.711 272.071 101.926C272.215 102.142 272.292 102.395 272.292 102.655C272.292 103.002 272.154 103.336 271.908 103.582C271.662 103.828 271.329 103.965 270.981 103.966Z" fill="url(#paint6_linear_526_6936)"/>
<path d="M270.981 108.42C270.186 108.42 269.41 108.656 268.749 109.098C268.088 109.539 267.574 110.167 267.27 110.901C266.966 111.635 266.886 112.443 267.041 113.222C267.197 114.002 267.579 114.718 268.141 115.279C268.703 115.841 269.419 116.224 270.199 116.379C270.978 116.534 271.786 116.454 272.52 116.15C273.254 115.846 273.882 115.331 274.323 114.67C274.764 114.009 275 113.233 275 112.438C274.999 111.372 274.575 110.351 273.822 109.598C273.068 108.844 272.047 108.421 270.981 108.42ZM270.981 113.749C270.722 113.749 270.468 113.672 270.253 113.528C270.037 113.384 269.869 113.179 269.77 112.94C269.671 112.7 269.645 112.436 269.695 112.182C269.746 111.928 269.871 111.694 270.054 111.511C270.237 111.328 270.471 111.203 270.725 111.152C270.98 111.102 271.243 111.127 271.483 111.227C271.722 111.326 271.927 111.494 272.071 111.71C272.215 111.925 272.292 112.179 272.292 112.438C272.292 112.786 272.154 113.119 271.908 113.365C271.662 113.61 271.329 113.749 270.981 113.749Z" fill="url(#paint7_linear_526_6936)"/>
<path d="M270.981 118.232C270.186 118.233 269.409 118.468 268.749 118.91C268.088 119.352 267.573 119.979 267.269 120.714C266.965 121.448 266.886 122.256 267.041 123.035C267.196 123.814 267.579 124.53 268.141 125.092C268.703 125.654 269.419 126.036 270.198 126.191C270.978 126.346 271.786 126.267 272.52 125.962C273.254 125.658 273.881 125.143 274.323 124.483C274.764 123.822 275 123.045 275 122.25C274.999 121.185 274.575 120.163 273.821 119.41C273.068 118.657 272.046 118.233 270.981 118.232ZM270.981 123.561C270.722 123.561 270.468 123.485 270.253 123.34C270.037 123.196 269.869 122.992 269.77 122.752C269.67 122.513 269.644 122.249 269.695 121.995C269.746 121.74 269.871 121.507 270.054 121.323C270.237 121.14 270.471 121.015 270.725 120.965C270.979 120.914 271.243 120.94 271.483 121.039C271.722 121.138 271.927 121.306 272.071 121.522C272.215 121.738 272.292 121.991 272.292 122.25C272.292 122.598 272.153 122.931 271.908 123.177C271.662 123.423 271.328 123.561 270.981 123.561Z" fill="url(#paint8_linear_526_6936)"/>
<path d="M216.986 101.303H211.554V104.011H216.986V101.303Z" fill="url(#paint9_linear_526_6936)"/>
<path d="M216.986 111.086H211.554V113.794H216.986V111.086Z" fill="url(#paint10_linear_526_6936)"/>
<path d="M216.986 120.896H211.554V123.604H216.986V120.896Z" fill="url(#paint11_linear_526_6936)"/>
<path d="M208.891 98.6367C208.096 98.6367 207.32 98.8724 206.659 99.3139C205.998 99.7554 205.483 100.383 205.179 101.117C204.875 101.851 204.795 102.659 204.95 103.439C205.105 104.218 205.488 104.934 206.05 105.496C206.612 106.058 207.328 106.44 208.107 106.596C208.887 106.751 209.694 106.671 210.429 106.367C211.163 106.063 211.79 105.548 212.232 104.887C212.673 104.226 212.909 103.449 212.909 102.655C212.908 101.589 212.484 100.568 211.731 99.8147C210.978 99.0614 209.956 98.6378 208.891 98.6367ZM208.891 103.966C208.632 103.966 208.378 103.889 208.163 103.745C207.947 103.601 207.779 103.396 207.68 103.156C207.581 102.917 207.555 102.653 207.605 102.399C207.656 102.145 207.781 101.911 207.964 101.728C208.147 101.544 208.381 101.419 208.635 101.369C208.89 101.318 209.153 101.344 209.393 101.444C209.632 101.543 209.837 101.711 209.981 101.926C210.125 102.142 210.202 102.395 210.202 102.655C210.202 103.002 210.064 103.336 209.818 103.582C209.572 103.828 209.239 103.965 208.891 103.966Z" fill="url(#paint12_linear_526_6936)"/>
<path d="M208.891 108.42C208.096 108.42 207.32 108.656 206.659 109.097C205.998 109.539 205.483 110.166 205.179 110.9C204.875 111.634 204.795 112.442 204.95 113.222C205.105 114.001 205.488 114.717 206.05 115.279C206.612 115.841 207.328 116.224 208.107 116.379C208.887 116.534 209.694 116.454 210.429 116.15C211.163 115.846 211.79 115.331 212.232 114.67C212.673 114.009 212.909 113.233 212.909 112.438C212.908 111.373 212.484 110.351 211.731 109.598C210.978 108.845 209.956 108.421 208.891 108.42ZM208.891 113.749C208.632 113.749 208.378 113.672 208.163 113.528C207.947 113.384 207.779 113.179 207.68 112.94C207.581 112.7 207.555 112.436 207.605 112.182C207.656 111.928 207.781 111.694 207.964 111.511C208.147 111.328 208.381 111.203 208.635 111.152C208.89 111.102 209.153 111.127 209.393 111.227C209.632 111.326 209.837 111.494 209.981 111.71C210.125 111.925 210.202 112.179 210.202 112.438C210.202 112.786 210.064 113.119 209.818 113.365C209.572 113.61 209.239 113.749 208.891 113.749Z" fill="url(#paint13_linear_526_6936)"/>
<path d="M208.891 118.232C208.096 118.232 207.32 118.468 206.659 118.91C205.998 119.351 205.483 119.979 205.179 120.713C204.875 121.447 204.795 122.255 204.95 123.034C205.105 123.814 205.488 124.53 206.05 125.092C206.612 125.654 207.328 126.036 208.107 126.191C208.887 126.346 209.694 126.267 210.429 125.963C211.163 125.658 211.79 125.143 212.232 124.483C212.673 123.822 212.909 123.045 212.909 122.25C212.908 121.185 212.484 120.164 211.731 119.41C210.978 118.657 209.956 118.233 208.891 118.232ZM208.891 123.561C208.632 123.561 208.378 123.485 208.163 123.34C207.947 123.196 207.779 122.992 207.68 122.752C207.581 122.513 207.555 122.249 207.605 121.995C207.656 121.74 207.781 121.507 207.964 121.323C208.147 121.14 208.381 121.015 208.635 120.965C208.89 120.914 209.153 120.94 209.393 121.039C209.632 121.138 209.837 121.306 209.981 121.522C210.125 121.738 210.202 121.991 210.202 122.25C210.202 122.598 210.064 122.931 209.818 123.177C209.572 123.423 209.239 123.561 208.891 123.561Z" fill="url(#paint14_linear_526_6936)"/>
<path d="M231.493 84.0723H228.785V89.5043H231.493V84.0723Z" fill="url(#paint15_linear_526_6936)"/>
<path d="M241.276 84.0723H238.568V89.5043H241.276V84.0723Z" fill="url(#paint16_linear_526_6936)"/>
<path d="M251.088 84.0723H248.38V89.5043H251.088V84.0723Z" fill="url(#paint17_linear_526_6936)"/>
<path d="M230.139 77.3906C229.344 77.3906 228.568 77.6263 227.907 78.0678C227.246 78.5093 226.731 79.1368 226.427 79.871C226.123 80.6052 226.043 81.4131 226.198 82.1925C226.353 82.9719 226.736 83.6879 227.298 84.2498C227.86 84.8117 228.576 85.1944 229.355 85.3494C230.135 85.5045 230.943 85.4249 231.677 85.1208C232.411 84.8167 233.038 84.3017 233.48 83.6409C233.921 82.9801 234.157 82.2033 234.157 81.4086C234.156 80.3433 233.732 79.3219 232.979 78.5686C232.226 77.8153 231.204 77.3917 230.139 77.3906ZM230.139 82.7186C229.88 82.7188 229.627 82.6421 229.411 82.4983C229.195 82.3544 229.027 82.1498 228.928 81.9104C228.829 81.671 228.803 81.4075 228.853 81.1533C228.904 80.8991 229.029 80.6656 229.212 80.4823C229.395 80.299 229.629 80.1743 229.883 80.1237C230.137 80.0732 230.4 80.0993 230.64 80.1985C230.879 80.2978 231.084 80.4659 231.228 80.6815C231.372 80.897 231.448 81.1504 231.448 81.4096C231.447 81.7565 231.309 82.089 231.064 82.3344C230.818 82.5797 230.486 82.7178 230.139 82.7186Z" fill="url(#paint18_linear_526_6936)"/>
<path d="M240.018 77C239.223 77 238.446 77.2357 237.786 77.6772C237.125 78.1187 236.61 78.7462 236.306 79.4804C236.002 80.2146 235.922 81.0225 236.077 81.8019C236.232 82.5813 236.615 83.2972 237.177 83.8592C237.739 84.4211 238.455 84.8038 239.234 84.9588C240.014 85.1138 240.821 85.0343 241.556 84.7301C242.29 84.426 242.917 83.911 243.359 83.2503C243.8 82.5895 244.036 81.8127 244.036 81.018C244.035 79.9527 243.611 78.9313 242.858 78.178C242.105 77.4247 241.083 77.0011 240.018 77ZM240.018 82.328C239.759 82.328 239.506 82.2512 239.29 82.1072C239.075 81.9632 238.907 81.7585 238.808 81.5191C238.708 81.2797 238.683 81.0162 238.733 80.7621C238.784 80.5079 238.909 80.2745 239.092 80.0913C239.275 79.9082 239.509 79.7835 239.763 79.733C240.017 79.6826 240.281 79.7087 240.52 79.808C240.759 79.9073 240.964 80.0754 241.108 80.2909C241.252 80.5065 241.328 80.7599 241.328 81.019C241.327 81.3661 241.189 81.6987 240.943 81.9441C240.698 82.1894 240.365 82.3275 240.018 82.328Z" fill="url(#paint19_linear_526_6936)"/>
<path d="M249.738 77.3906C248.943 77.3906 248.166 77.6263 247.505 78.0678C246.845 78.5093 246.33 79.1368 246.026 79.871C245.721 80.6052 245.642 81.4131 245.797 82.1925C245.952 82.9719 246.335 83.6879 246.897 84.2498C247.459 84.8117 248.174 85.1944 248.954 85.3494C249.733 85.5045 250.541 85.4249 251.275 85.1208C252.01 84.8167 252.637 84.3017 253.079 83.6409C253.52 82.9801 253.756 82.2033 253.756 81.4086C253.755 80.3433 253.331 79.3219 252.578 78.5686C251.824 77.8153 250.803 77.3917 249.738 77.3906ZM249.738 82.7186C249.479 82.7186 249.225 82.6418 249.01 82.4978C248.794 82.3538 248.626 82.1491 248.527 81.9097C248.428 81.6703 248.402 81.4068 248.453 81.1527C248.504 80.8986 248.628 80.6651 248.812 80.482C248.995 80.2988 249.229 80.1741 249.483 80.1237C249.737 80.0732 250 80.0993 250.24 80.1986C250.479 80.2979 250.684 80.466 250.827 80.6815C250.971 80.8971 251.048 81.1505 251.048 81.4096C251.047 81.7567 250.909 82.0894 250.663 82.3347C250.418 82.58 250.085 82.7181 249.738 82.7186Z" fill="url(#paint20_linear_526_6936)"/>
<path d="M231.493 134.205H228.785V139.637H231.493V134.205Z" fill="url(#paint21_linear_526_6936)"/>
<path d="M241.276 134.205H238.568V139.637H241.276V134.205Z" fill="url(#paint22_linear_526_6936)"/>
<path d="M251.088 134.205H248.38V139.637H251.088V134.205Z" fill="url(#paint23_linear_526_6936)"/>
<path d="M230.139 138.283C229.344 138.283 228.568 138.519 227.907 138.96C227.246 139.402 226.731 140.029 226.427 140.764C226.123 141.498 226.043 142.306 226.198 143.085C226.353 143.864 226.736 144.58 227.298 145.142C227.86 145.704 228.576 146.087 229.355 146.242C230.135 146.397 230.943 146.317 231.677 146.013C232.411 145.709 233.038 145.194 233.48 144.533C233.921 143.873 234.157 143.096 234.157 142.301C234.156 141.236 233.732 140.215 232.979 139.461C232.226 138.708 231.204 138.284 230.139 138.283ZM230.139 143.612C229.88 143.613 229.626 143.536 229.41 143.392C229.194 143.248 229.026 143.044 228.926 142.804C228.827 142.565 228.801 142.301 228.851 142.047C228.901 141.792 229.026 141.558 229.209 141.375C229.393 141.191 229.626 141.066 229.881 141.016C230.135 140.965 230.399 140.991 230.638 141.09C230.878 141.189 231.083 141.357 231.227 141.573C231.371 141.788 231.448 142.042 231.448 142.301C231.448 142.648 231.31 142.981 231.065 143.227C230.819 143.473 230.486 143.611 230.139 143.612Z" fill="url(#paint24_linear_526_6936)"/>
<path d="M239.922 138.283C239.128 138.283 238.351 138.519 237.69 138.96C237.029 139.402 236.514 140.029 236.21 140.764C235.906 141.498 235.826 142.306 235.982 143.085C236.137 143.864 236.519 144.58 237.081 145.142C237.643 145.704 238.359 146.087 239.138 146.242C239.918 146.397 240.726 146.317 241.46 146.013C242.194 145.709 242.822 145.194 243.263 144.533C243.705 143.873 243.94 143.096 243.94 142.301C243.939 141.236 243.516 140.215 242.762 139.461C242.009 138.708 240.988 138.284 239.922 138.283ZM239.922 143.612C239.663 143.612 239.409 143.536 239.194 143.392C238.978 143.248 238.81 143.043 238.71 142.804C238.611 142.564 238.585 142.3 238.635 142.046C238.686 141.792 238.811 141.558 238.994 141.375C239.177 141.191 239.411 141.066 239.665 141.015C239.919 140.965 240.183 140.991 240.423 141.09C240.662 141.189 240.867 141.357 241.011 141.573C241.155 141.788 241.232 142.042 241.232 142.301C241.232 142.649 241.094 142.982 240.848 143.228C240.603 143.473 240.27 143.612 239.922 143.612Z" fill="url(#paint25_linear_526_6936)"/>
<path d="M249.738 138.283C248.943 138.283 248.166 138.519 247.505 138.96C246.845 139.402 246.33 140.029 246.026 140.764C245.721 141.498 245.642 142.306 245.797 143.085C245.952 143.864 246.335 144.58 246.897 145.142C247.459 145.704 248.174 146.087 248.954 146.242C249.733 146.397 250.541 146.317 251.275 146.013C252.01 145.709 252.637 145.194 253.079 144.533C253.52 143.873 253.756 143.096 253.756 142.301C253.755 141.236 253.331 140.215 252.578 139.461C251.824 138.708 250.803 138.284 249.738 138.283ZM249.738 143.612C249.478 143.612 249.225 143.536 249.009 143.392C248.793 143.248 248.625 143.043 248.526 142.804C248.426 142.564 248.4 142.3 248.451 142.046C248.501 141.792 248.626 141.558 248.809 141.375C248.993 141.191 249.226 141.066 249.481 141.015C249.735 140.965 249.999 140.991 250.238 141.09C250.478 141.189 250.683 141.357 250.827 141.573C250.971 141.788 251.048 142.042 251.048 142.301C251.047 142.649 250.909 142.982 250.664 143.228C250.418 143.473 250.085 143.612 249.738 143.612Z" fill="url(#paint26_linear_526_6936)"/>
<path d="M168.42 10.0293H146.509V12.7373H167.066V37.1373H169.774V11.3833C169.774 11.0242 169.631 10.6798 169.377 10.4259C169.123 10.1719 168.779 10.0293 168.42 10.0293Z" fill="#F6F2ED"/>
<path d="M146.508 37.1348H120.202V54.2508H146.508V37.1348Z" fill="#F6F2ED"/>
<path d="M173.014 37.1348H163.825C161.555 37.1348 159.378 38.0365 157.773 39.6415C156.168 41.2465 155.267 43.4234 155.267 45.6933C155.267 47.9631 156.168 50.14 157.773 51.745C159.378 53.3501 161.555 54.2518 163.825 54.2518H173.014C175.284 54.2518 177.461 53.3501 179.066 51.745C180.671 50.14 181.573 47.9631 181.573 45.6933C181.573 43.4234 180.671 41.2465 179.066 39.6415C177.461 38.0365 175.284 37.1348 173.014 37.1348Z" fill="#F6F2ED"/>
<path d="M133.915 0L117.558 11.479L133.914 22.958L150.27 11.48L133.915 0Z" fill="#F6F2ED"/>
<path d="M133.356 27.2227C132.997 27.2227 132.652 27.3653 132.399 27.6192C132.145 27.8732 132.002 28.2175 132.002 28.5767V37.1347H134.71V29.9347H168.42V27.2267L133.356 27.2227Z" fill="#F6F2ED"/>
<path d="M134.041 209.449H118.096C117.918 209.449 117.742 209.484 117.578 209.552C117.414 209.62 117.264 209.72 117.139 209.846C117.013 209.972 116.913 210.121 116.845 210.285C116.777 210.449 116.742 210.625 116.742 210.803C116.738 213.322 117.687 215.749 119.398 217.597C121.108 219.445 123.455 220.578 125.966 220.769C126 220.769 126.034 220.769 126.066 220.769C126.098 220.769 126.134 220.769 126.166 220.769C128.677 220.578 131.023 219.445 132.734 217.597C134.444 215.748 135.393 213.322 135.389 210.803C135.389 210.445 135.247 210.101 134.995 209.848C134.742 209.594 134.399 209.451 134.041 209.449ZM130.559 215.958C129.686 216.776 128.606 217.34 127.436 217.589C126.267 217.838 125.051 217.763 123.921 217.372C122.79 216.981 121.788 216.289 121.022 215.37C120.256 214.451 119.756 213.341 119.575 212.158H132.562C132.292 213.598 131.594 214.922 130.559 215.958Z" fill="#F6F2ED"/>
<path d="M126.069 213.246H122.619C122.627 213.671 122.729 214.089 122.919 214.469C123.108 214.849 123.379 215.183 123.713 215.446C124.361 216.025 125.2 216.345 126.069 216.345C126.938 216.345 127.777 216.025 128.425 215.446C128.759 215.183 129.03 214.85 129.219 214.469C129.408 214.089 129.511 213.671 129.519 213.246H126.069Z" fill="#F6F2ED"/>
<path d="M145.092 179.301C144.736 178.797 144.264 178.387 143.715 178.103C143.167 177.82 142.559 177.672 141.942 177.672C141.325 177.672 140.717 177.82 140.169 178.103C139.621 178.387 139.149 178.797 138.792 179.301C137.832 180.542 137.317 182.071 137.33 183.64V184.246H146.551V183.64C146.565 182.071 146.051 180.543 145.092 179.301Z" fill="#F6F2ED"/>
<path d="M180.876 175.733C179.948 174.804 178.845 174.068 177.631 173.566C176.418 173.065 175.117 172.808 173.804 172.811H142.015C141.672 172.821 141.345 172.961 141.102 173.203C140.858 173.445 140.716 173.771 140.703 174.114C140.69 174.457 140.808 174.792 141.033 175.051C141.258 175.311 141.574 175.475 141.915 175.511C143.746 175.663 145.452 176.497 146.697 177.848C147.942 179.199 148.634 180.968 148.636 182.805C148.636 183.164 148.779 183.508 149.033 183.762C149.287 184.016 149.631 184.159 149.99 184.159H182.447C182.806 184.159 183.151 184.016 183.404 183.762C183.658 183.508 183.801 183.164 183.801 182.805C183.803 181.491 183.546 180.191 183.044 178.977C182.542 177.763 181.805 176.661 180.876 175.733ZM151.256 181.456C150.963 179.288 149.966 177.277 148.418 175.732C148.345 175.659 148.271 175.588 148.197 175.519H173.805C175.505 175.515 177.152 176.107 178.461 177.191C179.77 178.276 180.658 179.785 180.971 181.456H151.256Z" fill="#F6F2ED"/>
<path d="M166.497 181.441H151.248C150.934 179.179 149.858 177.092 148.198 175.524C146.539 173.955 144.394 173 142.118 172.814C142.051 172.809 141.984 172.809 141.918 172.814C139.408 173.018 137.067 174.157 135.359 176.006C133.65 177.855 132.699 180.278 132.694 182.795V210.803C132.698 212.639 132.008 214.409 130.761 215.757C129.515 217.105 127.804 217.931 125.974 218.069C125.632 218.105 125.317 218.269 125.092 218.529C124.867 218.788 124.749 219.123 124.762 219.466C124.774 219.809 124.917 220.135 125.161 220.377C125.404 220.619 125.73 220.759 126.074 220.769L157.86 220.797C159.173 220.8 160.475 220.543 161.689 220.041C162.903 219.539 164.007 218.803 164.936 217.873C165.865 216.944 166.601 215.841 167.103 214.627C167.605 213.413 167.862 212.111 167.86 210.797V182.795C167.859 182.617 167.824 182.44 167.755 182.275C167.686 182.111 167.586 181.961 167.459 181.835C167.333 181.71 167.182 181.61 167.017 181.542C166.852 181.475 166.675 181.44 166.497 181.441ZM163.017 215.958C162.339 216.636 161.535 217.174 160.649 217.54C159.763 217.907 158.814 218.094 157.856 218.092L132.271 218.069C132.34 218.005 132.407 217.939 132.471 217.869C133.399 216.941 134.136 215.839 134.637 214.625C135.138 213.412 135.395 212.111 135.393 210.798V182.792C135.355 181.9 135.498 181.008 135.813 180.172C136.128 179.336 136.61 178.573 137.228 177.927C137.846 177.282 138.589 176.769 139.411 176.418C140.233 176.067 141.117 175.887 142.011 175.887C142.904 175.887 143.789 176.067 144.61 176.418C145.432 176.769 146.175 177.282 146.793 177.927C147.411 178.573 147.893 179.336 148.208 180.172C148.524 181.008 148.667 181.9 148.629 182.792C148.629 183.151 148.772 183.495 149.026 183.748C149.28 184.001 149.624 184.143 149.983 184.143H165.14V210.797C165.143 211.755 164.957 212.704 164.593 213.59C164.228 214.475 163.693 215.28 163.017 215.958Z" fill="#F6F2ED"/>
<path d="M157.117 195.921V193.213H137.105V195.921H157.117Z" fill="#F6F2ED"/>
<path d="M150.016 203.077V200.369H137.151V203.077H150.016Z" fill="#F6F2ED"/>
<path d="M163.25 210.233V207.525H137.191V210.233H163.25Z" fill="#F6F2ED"/>
<path d="M150.868 102.907H145.968V111.473H150.868C152.03 111.478 153.148 111.028 153.982 110.218C154.389 109.826 154.713 109.356 154.934 108.837C155.156 108.317 155.271 107.759 155.273 107.194C155.265 106.623 155.145 106.059 154.919 105.535C154.694 105.011 154.367 104.536 153.958 104.138C153.549 103.74 153.066 103.426 152.535 103.215C152.005 103.004 151.439 102.899 150.868 102.907Z" fill="#F6F2ED"/>
<path d="M152.872 115.885H145.972V125.164H152.872C154.129 125.168 155.338 124.679 156.239 123.801C156.681 123.378 157.033 122.869 157.273 122.306C157.514 121.743 157.638 121.137 157.639 120.525C157.621 119.278 157.109 118.089 156.215 117.219C155.321 116.349 154.119 115.869 152.872 115.885Z" fill="#F6F2ED"/>
<path d="M147.854 149.353C140.869 149.353 134.041 147.281 128.233 143.401C122.425 139.52 117.899 134.004 115.225 127.551C112.552 121.098 111.853 113.997 113.216 107.146C114.578 100.295 117.942 94.002 122.881 89.0629C127.82 84.1237 134.113 80.7601 140.964 79.3974C147.815 78.0347 154.916 78.734 161.369 81.4071C167.823 84.0802 173.338 88.6068 177.219 94.4147C181.1 100.223 183.171 107.051 183.171 114.036C183.16 123.399 179.436 132.376 172.815 138.996C166.194 145.617 157.217 149.342 147.854 149.353ZM147.854 81.4258C141.405 81.426 135.1 83.3386 129.738 86.9218C124.376 90.505 120.196 95.5978 117.728 101.556C115.26 107.515 114.614 114.071 115.873 120.397C117.131 126.722 120.237 132.532 124.797 137.093C129.357 141.653 135.168 144.759 141.493 146.017C147.819 147.275 154.375 146.63 160.334 144.162C166.292 141.694 171.385 137.514 174.968 132.152C178.551 126.79 180.464 120.485 180.464 114.036C180.454 105.39 177.014 97.1022 170.901 90.989C164.788 84.8759 156.499 81.4371 147.854 81.4268V81.4258ZM164.037 127.52C162.311 129.195 159.998 130.128 157.593 130.12H153.225V137.079H148.776V130.12H145.969V137.079H141.528V130.179H132.512V125.513H135.843C136.115 125.558 136.393 125.539 136.657 125.458C136.92 125.377 137.161 125.236 137.36 125.046C137.56 124.856 137.713 124.623 137.806 124.364C137.9 124.105 137.933 123.827 137.901 123.554V104.579C137.933 104.305 137.9 104.028 137.806 103.769C137.712 103.51 137.559 103.277 137.36 103.087C137.16 102.897 136.92 102.756 136.656 102.675C136.393 102.594 136.115 102.576 135.843 102.621H132.512V97.9548H141.528V90.9958H145.969V97.9548H148.776V90.9958H153.225V97.9548H156.325C158.277 97.931 160.158 98.6827 161.556 100.045C162.953 101.407 163.754 103.268 163.78 105.22C163.78 106.178 163.586 107.127 163.211 108.01C162.836 108.892 162.286 109.689 161.596 110.355C160.522 111.392 159.165 112.087 157.696 112.355C160.065 112.35 162.341 113.28 164.029 114.943C165.717 116.606 166.681 118.867 166.712 121.236C166.711 122.409 166.474 123.57 166.014 124.65C165.555 125.73 164.882 126.706 164.037 127.52Z" fill="#F6F2ED"/>
<path d="M150.868 102.907H145.968V111.473H150.868C152.03 111.478 153.148 111.028 153.982 110.218C154.389 109.826 154.713 109.356 154.934 108.837C155.156 108.317 155.271 107.759 155.273 107.194C155.265 106.623 155.145 106.059 154.919 105.535C154.694 105.011 154.367 104.536 153.958 104.138C153.549 103.74 153.066 103.426 152.535 103.215C152.005 103.004 151.439 102.899 150.868 102.907Z" fill="#433B2F"/>
<path d="M152.872 115.885H145.972V125.164H152.872C154.129 125.168 155.338 124.679 156.239 123.801C156.681 123.378 157.033 122.869 157.273 122.306C157.514 121.743 157.638 121.137 157.639 120.525C157.621 119.278 157.109 118.089 156.215 117.219C155.321 116.349 154.119 115.869 152.872 115.885Z" fill="#423B2E"/>
<path d="M83.366 47.3574L81.452 49.2724L83.366 51.1864L85.28 49.2714L83.366 47.3574ZM73.793 56.9304L75.707 58.8444L77.621 56.9304L75.707 55.0164L73.793 56.9304ZM77.622 53.1004L79.536 55.0144L81.45 53.1004L79.536 51.1864L77.622 53.1004Z" fill="#F6F2ED"/>
<path d="M97.535 34.6971L99.449 36.6111L101.364 34.6961L99.45 32.7821L97.535 34.6971ZM93.707 38.5261L95.621 40.4401L97.535 38.5261L95.621 36.6121L93.707 38.5261ZM103.28 28.9531L101.366 30.8671L103.28 32.7811L105.194 30.8671L103.28 28.9531Z" fill="#F6F2ED"/>
<path d="M90.1873 41.2773H80.3213V43.9854H88.8343V52.5714H91.5423V42.6313C91.542 42.2722 91.3991 41.9278 91.1451 41.6739C90.891 41.42 90.5465 41.2773 90.1873 41.2773Z" fill="#F6F2ED"/>
<path d="M199.619 26.8633L197.705 28.7773L199.619 30.6913L201.533 28.7773L199.619 26.8633ZM207.278 34.5223L205.364 36.4363L207.278 38.3503L209.192 36.4363L207.278 34.5223ZM203.448 30.6923L201.534 32.6063L203.449 34.5213L205.363 32.6073L203.448 30.6923Z" fill="#F6F2ED"/>
<path d="M219.938 52.5213L221.853 54.4313L223.767 52.5173L221.853 50.6033L219.938 52.5213ZM218.024 46.7773L216.11 48.6913L218.024 50.6053L219.938 48.6913L218.024 46.7773ZM225.683 54.4363L223.769 56.3503L225.683 58.2653L227.597 56.3513L225.683 54.4363Z" fill="#F6F2ED"/>
<path d="M212.565 33.3926V41.9056H203.979V44.6136H213.919C214.278 44.6136 214.622 44.4709 214.876 44.217C215.13 43.9631 215.273 43.6187 215.273 43.2596V33.3926H212.565Z" fill="#F6F2ED"/>
<path d="M217.443 171.745L219.357 173.659L221.271 171.745L219.357 169.831L217.443 171.745ZM227.016 162.172L225.103 164.082L227.017 165.996L228.931 164.082L227.016 162.172ZM221.272 167.916L223.186 169.83L225.101 167.915L223.187 166.001L221.272 167.916Z" fill="#F6F2ED"/>
<path d="M201.358 186.321L203.272 188.235L205.186 186.321L203.272 184.407L201.358 186.321ZM197.528 190.151L199.442 192.065L201.357 190.151L199.443 188.237L197.528 190.151ZM207.102 180.578L205.188 182.492L207.102 184.406L209.016 182.492L207.102 180.578Z" fill="#F6F2ED"/>
<path d="M213.89 177.033V168.447H211.182V178.387C211.182 178.746 211.324 179.091 211.578 179.345C211.832 179.599 212.177 179.741 212.536 179.741H222.4V177.033H213.89Z" fill="#F6F2ED"/>
<path d="M99.2742 186.497L97.3602 188.411L99.2753 190.326L101.189 188.412L99.2742 186.497ZM95.4453 182.668L93.5312 184.582L95.4453 186.496L97.3593 184.582L95.4453 182.668ZM103.104 190.327L101.19 192.241L103.104 194.155L105.018 192.241L103.104 190.327Z" fill="#F6F2ED"/>
<path d="M75.127 164.666L77.041 166.581L78.955 164.667L77.041 162.752L75.127 164.666ZM80.871 166.581L78.957 168.495L80.871 170.409L82.785 168.495L80.871 166.581ZM84.7 170.411L82.7859 172.325L84.7 174.239L86.614 172.325L84.7 170.411Z" fill="#F6F2ED"/>
<path d="M88.8052 176.406C88.6274 176.406 88.4513 176.441 88.287 176.509C88.1227 176.577 87.9735 176.677 87.8478 176.803C87.722 176.929 87.6223 177.078 87.5542 177.242C87.4862 177.406 87.4512 177.582 87.4512 177.76V187.627H90.1592V179.115H98.7452V176.407H88.8062L88.8052 176.406Z" fill="#F6F2ED"/>
<path d="M47.2541 123.981L36.4651 118.943C29.8651 122.319 28.2861 130.843 28.2861 138.259V143.993H43.1361L42.6861 143.293L47.2541 123.981Z" fill="url(#paint27_linear_526_6936)"/>
<path d="M64.6822 117.455H59.3662V119.465L65.6052 143.729L65.4262 143.993H79.6572V138.259C79.6562 128.774 77.0632 117.455 64.6822 117.455Z" fill="url(#paint28_linear_526_6936)"/>
<path d="M61.7552 143.292L56.5342 120.959C56.4645 120.661 56.2962 120.396 56.0568 120.207C55.8173 120.017 55.5207 119.914 55.2152 119.914H52.2712L44.6152 117.437V114.46H54.5902V111.752H43.2612C42.9021 111.752 42.5577 111.895 42.3038 112.149C42.0499 112.402 41.9072 112.747 41.9072 113.106V118.422C41.9073 118.708 41.9981 118.987 42.1664 119.218C42.3348 119.449 42.5721 119.621 42.8442 119.709L51.6442 122.554C51.7789 122.598 51.9196 122.62 52.0612 122.62H54.1462L58.9842 143.337L56.4162 147.163L58.6642 148.672L61.5642 144.356C61.6676 144.201 61.7379 144.027 61.7708 143.844C61.8036 143.661 61.7984 143.473 61.7552 143.292Z" fill="url(#paint29_linear_526_6936)"/>
<path d="M53.1745 123.923L50.5265 123.357L46.3595 142.836C46.2856 143.18 46.3476 143.538 46.5325 143.836L49.5255 148.655L51.8255 147.227L49.1255 142.871L53.1745 123.923Z" fill="url(#paint30_linear_526_6936)"/>
<path d="M61.7861 108.348H59.0781V113.111H61.7861V108.348Z" fill="url(#paint31_linear_526_6936)"/>
<path d="M47.8975 108.23H45.1895V113.109H47.8975V108.23Z" fill="url(#paint32_linear_526_6936)"/>
<path d="M66.7986 89.2353C63.8766 88.2103 59.0986 85.7353 58.7236 83.4353C58.6845 83.2015 58.5849 82.9821 58.4347 82.7989C58.2844 82.6157 58.0888 82.475 57.8672 82.3909C57.6457 82.3069 57.4059 82.2823 57.172 82.3198C56.938 82.3572 56.7179 82.4553 56.5336 82.6043C51.8927 85.8585 46.3994 87.6803 40.7336 87.8443C40.3842 87.8585 40.0538 88.0072 39.8115 88.2593C39.5692 88.5115 39.4338 88.8476 39.4336 89.1973V99.0233C39.4357 101.823 40.5488 104.508 42.5285 106.488C44.5082 108.468 47.1926 109.582 49.9926 109.584H57.1466C59.9452 109.581 62.6284 108.468 64.6073 106.489C66.5863 104.51 67.6994 101.827 67.7026 99.0283V90.5113C67.7025 90.2312 67.6155 89.958 67.4536 89.7294C67.2917 89.5009 67.0628 89.3282 66.7986 89.2353ZM64.9986 99.0283C64.9962 101.109 64.1685 103.104 62.697 104.576C61.2256 106.047 59.2306 106.875 57.1496 106.877H49.9936C47.9125 106.875 45.9173 106.047 44.4458 104.575C42.9743 103.104 42.1467 101.108 42.1446 99.0273V90.4753C47.3322 90.0952 52.3517 88.4699 56.7776 85.7373C58.5776 88.6373 63.0096 90.6583 64.9966 91.4503V99.0293L64.9986 99.0283Z" fill="url(#paint33_linear_526_6936)"/>
<path d="M56.0957 89.5645C52.6582 91.3347 48.9582 92.5404 45.1377 93.1355V99.0285C45.139 100.315 45.6507 101.549 46.5606 102.459C47.4704 103.368 48.704 103.88 49.9907 103.881H57.1447C58.4314 103.88 59.665 103.368 60.5748 102.459C61.4846 101.549 61.9964 100.315 61.9977 99.0285V93.4285C59.8401 92.4576 57.8485 91.1537 56.0957 89.5645Z" fill="url(#paint34_linear_526_6936)"/>
<path d="M61.3214 75.3129C61.0125 74.5413 60.5272 73.8528 59.9043 73.3027C59.2814 72.7525 58.5382 72.356 57.7344 72.1449C53.6736 71.3117 49.4655 71.5558 45.5284 72.8529C37.8764 75.3979 37.9394 81.5849 38.0014 87.5679C38.0074 88.1189 38.0124 88.6759 38.0124 89.2349C38.0126 89.5939 38.1554 89.9382 38.4092 90.192C38.6631 90.4459 39.0074 90.5886 39.3664 90.5889C50.8944 90.5889 57.9494 84.9479 58.2434 84.7079C58.3659 84.608 58.4701 84.4875 58.5514 84.3519L60.9364 80.3519C61.3837 79.5981 61.6511 78.7513 61.7178 77.8774C61.7846 77.0034 61.6489 76.1259 61.3214 75.3129ZM58.6114 78.9669L56.3614 82.7429C51.743 85.9094 46.3125 87.6834 40.7154 87.8539C40.7154 87.7539 40.7154 87.6449 40.7154 87.5409C40.6504 81.2189 40.8904 77.2529 46.3904 75.4229C48.6342 74.7113 50.9744 74.3497 53.3284 74.3509C54.581 74.3321 55.831 74.4702 57.0494 74.7619C57.4482 74.8652 57.8167 75.0618 58.1246 75.3354C58.4325 75.6091 58.671 75.952 58.8204 76.3359C58.9906 76.7611 59.0603 77.2199 59.0238 77.6765C58.9874 78.1331 58.8459 78.5751 58.6104 78.9679L58.6114 78.9669Z" fill="url(#paint35_linear_526_6936)"/>
<path d="M67.7985 75.5012C67.1543 75.0266 66.4142 74.6987 65.63 74.5403C64.8457 74.3819 64.0363 74.3969 63.2585 74.5842C60.7125 75.0642 59.0875 78.0192 58.8255 78.5282L56.2255 82.9732C56.0659 83.2443 56.0061 83.5627 56.0565 83.8732C56.8285 88.7732 66.4565 91.9992 67.5505 92.3512C67.6842 92.3945 67.8239 92.4164 67.9645 92.4162C68.3236 92.4162 68.668 92.2735 68.9219 92.0196C69.1758 91.7657 69.3185 91.4213 69.3185 91.0622V79.0762C69.355 78.4038 69.2369 77.732 68.9734 77.1123C68.71 76.4926 68.308 75.9414 67.7985 75.5012ZM66.6095 89.1342C63.3215 87.8392 59.5905 85.7512 58.8435 83.8572L61.1845 79.8632C61.1995 79.8372 61.2125 79.8122 61.2255 79.7862C61.5995 79.0422 62.7135 77.4432 63.7645 77.2432C64.1523 77.1392 64.5574 77.116 64.9546 77.175C65.3518 77.234 65.7326 77.374 66.0735 77.5862C66.2762 77.7721 66.4308 78.0045 66.524 78.2633C66.6172 78.5221 66.6462 78.7997 66.6085 79.0722L66.6095 89.1342Z" fill="url(#paint36_linear_526_6936)"/>
<path d="M64.6816 111.752H62.9816V114.46H64.6816C71.3926 114.46 82.6516 117.552 82.6516 138.26V146.479L25.2906 146.67V138.259C25.2208 134.26 25.7948 130.275 26.9906 126.459C28.7406 120.768 32.8296 116.541 37.9426 115.146C39.6758 114.673 41.4661 114.442 43.2626 114.459H44.9626V111.751H43.2626C41.2206 111.734 39.1861 111.999 37.2166 112.538C31.2166 114.175 26.4276 119.082 24.4166 125.63C23.1344 129.714 22.5172 133.978 22.5886 138.258V148.027C22.5886 148.386 22.7312 148.73 22.9851 148.984C23.2391 149.238 23.5835 149.381 23.9426 149.381L84.0116 149.181C84.3697 149.179 84.7127 149.036 84.9655 148.782C85.2183 148.528 85.3603 148.185 85.3606 147.827V138.258C85.3596 121.414 77.8226 111.752 64.6816 111.752Z" fill="url(#paint37_linear_526_6936)"/>
<defs>
<linearGradient id="paint0_linear_526_6936" x1="220.724" y1="95.2745" x2="279.444" y2="121.612" gradientUnits="userSpaceOnUse">
<stop stop-color="#A58969"/>
<stop offset="1" stop-color="#C7B664"/>
</linearGradient>
<linearGradient id="paint1_linear_526_6936" x1="225.895" y1="99.8272" x2="268.727" y2="119.045" gradientUnits="userSpaceOnUse">
<stop stop-color="#A58969"/>
<stop offset="1" stop-color="#C7B664"/>
</linearGradient>
<linearGradient id="paint2_linear_526_6936" x1="215.656" y1="90.8283" x2="289.935" y2="124.155" gradientUnits="userSpaceOnUse">
<stop stop-color="#A58969"/>
<stop offset="1" stop-color="#C7B664"/>
</linearGradient>
<linearGradient id="paint3_linear_526_6936" x1="262.802" y1="101.431" x2="268.506" y2="106.564" gradientUnits="userSpaceOnUse">
<stop stop-color="#A58969"/>
<stop offset="1" stop-color="#C7B664"/>
</linearGradient>
<linearGradient id="paint4_linear_526_6936" x1="262.802" y1="111.214" x2="268.506" y2="116.347" gradientUnits="userSpaceOnUse">
<stop stop-color="#A58969"/>
<stop offset="1" stop-color="#C7B664"/>
</linearGradient>
<linearGradient id="paint5_linear_526_6936" x1="262.802" y1="121.024" x2="268.506" y2="126.158" gradientUnits="userSpaceOnUse">
<stop stop-color="#A58969"/>
<stop offset="1" stop-color="#C7B664"/>
</linearGradient>
<linearGradient id="paint6_linear_526_6936" x1="266.841" y1="99.0162" x2="279.555" y2="104.721" gradientUnits="userSpaceOnUse">
<stop stop-color="#A58969"/>
<stop offset="1" stop-color="#C7B664"/>
</linearGradient>
<linearGradient id="paint7_linear_526_6936" x1="266.841" y1="108.799" x2="279.556" y2="114.504" gradientUnits="userSpaceOnUse">
<stop stop-color="#A58969"/>
<stop offset="1" stop-color="#C7B664"/>
</linearGradient>
<linearGradient id="paint8_linear_526_6936" x1="266.841" y1="118.612" x2="279.555" y2="124.316" gradientUnits="userSpaceOnUse">
<stop stop-color="#A58969"/>
<stop offset="1" stop-color="#C7B664"/>
</linearGradient>
<linearGradient id="paint9_linear_526_6936" x1="211.471" y1="101.431" x2="217.175" y2="106.564" gradientUnits="userSpaceOnUse">
<stop stop-color="#A58969"/>
<stop offset="1" stop-color="#C7B664"/>
</linearGradient>
<linearGradient id="paint10_linear_526_6936" x1="211.471" y1="111.214" x2="217.175" y2="116.347" gradientUnits="userSpaceOnUse">
<stop stop-color="#A58969"/>
<stop offset="1" stop-color="#C7B664"/>
</linearGradient>
<linearGradient id="paint11_linear_526_6936" x1="211.471" y1="121.024" x2="217.175" y2="126.158" gradientUnits="userSpaceOnUse">
<stop stop-color="#A58969"/>
<stop offset="1" stop-color="#C7B664"/>
</linearGradient>
<linearGradient id="paint12_linear_526_6936" x1="204.75" y1="99.0162" x2="217.465" y2="104.721" gradientUnits="userSpaceOnUse">
<stop stop-color="#A58969"/>
<stop offset="1" stop-color="#C7B664"/>
</linearGradient>
<linearGradient id="paint13_linear_526_6936" x1="204.75" y1="108.799" x2="217.465" y2="114.504" gradientUnits="userSpaceOnUse">
<stop stop-color="#A58969"/>
<stop offset="1" stop-color="#C7B664"/>
</linearGradient>
<linearGradient id="paint14_linear_526_6936" x1="204.75" y1="118.612" x2="217.465" y2="124.316" gradientUnits="userSpaceOnUse">
<stop stop-color="#A58969"/>
<stop offset="1" stop-color="#C7B664"/>
</linearGradient>
<linearGradient id="paint15_linear_526_6936" x1="228.744" y1="84.3288" x2="233.646" y2="85.4252" gradientUnits="userSpaceOnUse">
<stop stop-color="#A58969"/>
<stop offset="1" stop-color="#C7B664"/>
</linearGradient>
<linearGradient id="paint16_linear_526_6936" x1="238.527" y1="84.3288" x2="243.429" y2="85.4252" gradientUnits="userSpaceOnUse">
<stop stop-color="#A58969"/>
<stop offset="1" stop-color="#C7B664"/>
</linearGradient>
<linearGradient id="paint17_linear_526_6936" x1="248.339" y1="84.3288" x2="253.24" y2="85.4252" gradientUnits="userSpaceOnUse">
<stop stop-color="#A58969"/>
<stop offset="1" stop-color="#C7B664"/>
</linearGradient>
<linearGradient id="paint18_linear_526_6936" x1="225.998" y1="77.7701" x2="238.713" y2="83.4746" gradientUnits="userSpaceOnUse">
<stop stop-color="#A58969"/>
<stop offset="1" stop-color="#C7B664"/>
</linearGradient>
<linearGradient id="paint19_linear_526_6936" x1="235.877" y1="77.3795" x2="248.591" y2="83.084" gradientUnits="userSpaceOnUse">
<stop stop-color="#A58969"/>
<stop offset="1" stop-color="#C7B664"/>
</linearGradient>
<linearGradient id="paint20_linear_526_6936" x1="245.597" y1="77.7701" x2="258.311" y2="83.4746" gradientUnits="userSpaceOnUse">
<stop stop-color="#A58969"/>
<stop offset="1" stop-color="#C7B664"/>
</linearGradient>
<linearGradient id="paint21_linear_526_6936" x1="228.744" y1="134.462" x2="233.646" y2="135.558" gradientUnits="userSpaceOnUse">
<stop stop-color="#A58969"/>
<stop offset="1" stop-color="#C7B664"/>
</linearGradient>
<linearGradient id="paint22_linear_526_6936" x1="238.527" y1="134.462" x2="243.429" y2="135.558" gradientUnits="userSpaceOnUse">
<stop stop-color="#A58969"/>
<stop offset="1" stop-color="#C7B664"/>
</linearGradient>
<linearGradient id="paint23_linear_526_6936" x1="248.339" y1="134.462" x2="253.241" y2="135.558" gradientUnits="userSpaceOnUse">
<stop stop-color="#A58969"/>
<stop offset="1" stop-color="#C7B664"/>
</linearGradient>
<linearGradient id="paint24_linear_526_6936" x1="225.998" y1="138.663" x2="238.713" y2="144.367" gradientUnits="userSpaceOnUse">
<stop stop-color="#A58969"/>
<stop offset="1" stop-color="#C7B664"/>
</linearGradient>
<linearGradient id="paint25_linear_526_6936" x1="235.782" y1="138.663" x2="248.496" y2="144.367" gradientUnits="userSpaceOnUse">
<stop stop-color="#A58969"/>
<stop offset="1" stop-color="#C7B664"/>
</linearGradient>
<linearGradient id="paint26_linear_526_6936" x1="245.597" y1="138.663" x2="258.311" y2="144.367" gradientUnits="userSpaceOnUse">
<stop stop-color="#A58969"/>
<stop offset="1" stop-color="#C7B664"/>
</linearGradient>
<linearGradient id="paint27_linear_526_6936" x1="27.9965" y1="120.126" x2="60.3175" y2="131.107" gradientUnits="userSpaceOnUse">
<stop stop-color="#A58969"/>
<stop offset="1" stop-color="#C7B664"/>
</linearGradient>
<linearGradient id="paint28_linear_526_6936" x1="59.0564" y1="118.708" x2="93.5617" y2="130.546" gradientUnits="userSpaceOnUse">
<stop stop-color="#A58969"/>
<stop offset="1" stop-color="#C7B664"/>
</linearGradient>
<linearGradient id="paint29_linear_526_6936" x1="41.6036" y1="113.495" x2="77.3125" y2="122.125" gradientUnits="userSpaceOnUse">
<stop stop-color="#A58969"/>
<stop offset="1" stop-color="#C7B664"/>
</linearGradient>
<linearGradient id="paint30_linear_526_6936" x1="46.2246" y1="124.552" x2="59.0464" y2="126.109" gradientUnits="userSpaceOnUse">
<stop stop-color="#A58969"/>
<stop offset="1" stop-color="#C7B664"/>
</linearGradient>
<linearGradient id="paint31_linear_526_6936" x1="59.0368" y1="108.573" x2="63.8693" y2="109.805" gradientUnits="userSpaceOnUse">
<stop stop-color="#A58969"/>
<stop offset="1" stop-color="#C7B664"/>
</linearGradient>
<linearGradient id="paint32_linear_526_6936" x1="45.1481" y1="108.461" x2="49.9945" y2="109.668" gradientUnits="userSpaceOnUse">
<stop stop-color="#A58969"/>
<stop offset="1" stop-color="#C7B664"/>
</linearGradient>
<linearGradient id="paint33_linear_526_6936" x1="39.002" y1="83.591" x2="83.1821" y2="104.131" gradientUnits="userSpaceOnUse">
<stop stop-color="#A58969"/>
<stop offset="1" stop-color="#C7B664"/>
</linearGradient>
<linearGradient id="paint34_linear_526_6936" x1="44.8803" y1="90.2405" x2="69.9316" y2="103.477" gradientUnits="userSpaceOnUse">
<stop stop-color="#A58969"/>
<stop offset="1" stop-color="#C7B664"/>
</linearGradient>
<linearGradient id="paint35_linear_526_6936" x1="37.6277" y1="72.554" x2="71.9007" y2="91.8435" gradientUnits="userSpaceOnUse">
<stop stop-color="#A58969"/>
<stop offset="1" stop-color="#C7B664"/>
</linearGradient>
<linearGradient id="paint36_linear_526_6936" x1="55.8362" y1="75.2809" x2="78.5885" y2="82.8222" gradientUnits="userSpaceOnUse">
<stop stop-color="#A58969"/>
<stop offset="1" stop-color="#C7B664"/>
</linearGradient>
<linearGradient id="paint37_linear_526_6936" x1="21.6246" y1="113.527" x2="98.098" y2="170.768" gradientUnits="userSpaceOnUse">
<stop stop-color="#A58969"/>
<stop offset="1" stop-color="#C7B664"/>
</linearGradient>
</defs>
</svg>
