<svg width="20" height="20" viewBox="0 0 20 20" fill="none" xmlns="http://www.w3.org/2000/svg">
<path d="M19.0002 20H10.0023C8.02424 20.0009 6.09041 19.415 4.44545 18.3165C2.8005 17.218 1.51837 15.6563 0.76129 13.8288C0.00421236 12.0014 -0.193784 9.99053 0.192356 8.05056C0.578496 6.11059 1.53142 4.32876 2.93054 2.93054C4.32876 1.53142 6.11059 0.578496 8.05056 0.192356C9.99053 -0.193784 12.0014 0.00421236 13.8288 0.76129C15.6563 1.51837 17.218 2.8005 18.3165 4.44545C19.415 6.09041 20.0009 8.02424 20 10.0023V19.0002C20 19.2654 19.8947 19.5197 19.7072 19.7072C19.5197 19.8947 19.2654 20 19.0002 20ZM9.58681 13.0249C9.26079 13.0249 8.94211 13.1216 8.6711 13.3029C8.40009 13.4841 8.18894 13.7416 8.06438 14.0429C7.93983 14.3442 7.90746 14.6757 7.97139 14.9953C8.03532 15.315 8.19266 15.6086 8.4235 15.8388C8.65433 16.069 8.94829 16.2255 9.26815 16.2886C9.588 16.3517 9.91938 16.3184 10.2203 16.193C10.5213 16.0677 10.7783 15.8558 10.9587 15.5843C11.1392 15.3128 11.2351 14.9939 11.2342 14.6679C11.2324 14.2319 11.0582 13.8144 10.7495 13.5065C10.4408 13.1986 10.0228 13.0255 9.58681 13.0249ZM9.71456 7.01072C10.2411 7.01072 10.531 7.2329 10.531 7.63392C10.531 8.03494 10.1978 8.26266 9.76565 8.55037C9.25696 8.82002 8.83585 9.22934 8.55188 9.73018C8.26791 10.231 8.13288 10.8025 8.16269 11.3775V11.6819H10.9787V11.4742C10.9787 10.7632 11.523 10.3911 12.1529 9.95894C12.6485 9.71959 13.0684 9.34805 13.3664 8.88527C13.6643 8.42249 13.8287 7.88645 13.8414 7.33621C13.8435 6.96035 13.7599 6.58896 13.5971 6.2502C13.4343 5.91145 13.1964 5.61423 12.9016 5.38109C12.0781 4.7899 11.078 4.49612 10.0656 4.54795C9.30901 4.52018 8.5562 4.66708 7.86556 4.97724C7.17493 5.2874 6.56502 5.75249 6.08316 6.33643L8.05049 7.87497C8.25425 7.62503 8.50699 7.41942 8.79316 7.2708C9.07934 7.12217 9.3929 7.03366 9.71456 7.01072Z" fill="#F7F2EC"/>
</svg>
