<svg width="185" height="145" viewBox="0 0 185 145" fill="none" xmlns="http://www.w3.org/2000/svg">
<g opacity="0.272">
<path d="M41.7527 133.978C60.0421 133.978 74.8686 119.152 74.8686 100.864C74.8686 82.5756 60.0421 67.75 41.7527 67.75C23.4632 67.75 8.63672 82.5756 8.63672 100.864C8.63672 119.152 23.4632 133.978 41.7527 133.978Z" fill="url(#paint0_linear_1146_7852)"/>
<path d="M50.8257 143.216C51.2616 143.569 51.7924 143.785 52.351 143.836C52.9096 143.887 53.4709 143.772 53.9639 143.504C54.4569 143.237 54.8594 142.829 55.1207 142.333C55.382 141.836 55.4902 141.274 55.4317 140.716C55.3732 140.158 55.1505 139.63 54.792 139.199C54.4334 138.767 53.955 138.452 53.4172 138.292C52.8794 138.133 52.3064 138.136 51.7706 138.303C51.2349 138.469 50.7604 138.79 50.4072 139.226C49.9337 139.81 49.7118 140.559 49.7903 141.307C49.8687 142.056 50.2412 142.742 50.8257 143.216Z" fill="url(#paint1_linear_1146_7852)"/>
<path d="M61.0221 137.226C61.3199 137.467 61.6826 137.614 62.0642 137.65C62.4458 137.685 62.8293 137.606 63.1661 137.423C63.5029 137.24 63.7779 136.961 63.9563 136.622C64.1347 136.283 64.2086 135.899 64.1685 135.518C64.1285 135.137 63.9763 134.776 63.7312 134.481C63.4862 134.187 63.1593 133.971 62.7918 133.862C62.4244 133.754 62.0329 133.756 61.6669 133.87C61.3009 133.983 60.9769 134.203 60.7357 134.501C60.4123 134.9 60.2608 135.412 60.3145 135.923C60.3682 136.434 60.6228 136.903 61.0221 137.226Z" fill="url(#paint2_linear_1146_7852)"/>
<path d="M3.59774 91.6627C4.3093 91.6627 5.00489 91.4517 5.59653 91.0564C6.18818 90.6611 6.64931 90.0992 6.92161 89.4419C7.19392 88.7845 7.26517 88.0612 7.12635 87.3633C6.98753 86.6655 6.64488 86.0245 6.14172 85.5213C5.63857 85.0182 4.99751 84.6756 4.29962 84.5368C3.60173 84.398 2.87834 84.4692 2.22094 84.7415C1.56354 85.0138 1.00165 85.4749 0.606328 86.0665C0.211003 86.6581 0 87.3537 0 88.0652C0 89.0193 0.379046 89.9343 1.05375 90.609C1.72846 91.2837 2.64356 91.6627 3.59774 91.6627Z" fill="url(#paint3_linear_1146_7852)"/>
</g>
<g opacity="0.272">
<path d="M170.2 33.9501C175.608 29.8761 176.689 22.1899 172.614 16.7825C168.54 11.3752 160.853 10.2943 155.446 14.3684C150.038 18.4424 148.957 26.1286 153.032 31.536C157.106 36.9434 164.793 38.0242 170.2 33.9501Z" fill="url(#paint4_linear_1146_7852)"/>
<path d="M169.574 38.7015C169.524 38.903 169.415 39.0851 169.261 39.2247C169.107 39.3643 168.916 39.4552 168.71 39.4859C168.505 39.5166 168.295 39.4857 168.107 39.3971C167.919 39.3085 167.762 39.1662 167.655 38.9882C167.548 38.8101 167.496 38.6044 167.506 38.397C167.516 38.1895 167.588 37.9897 167.711 37.8228C167.835 37.6559 168.005 37.5293 168.2 37.4592C168.396 37.389 168.608 37.3784 168.809 37.4286C169.079 37.496 169.312 37.668 169.455 37.9067C169.599 38.1454 169.641 38.4313 169.574 38.7015Z" fill="url(#paint5_linear_1146_7852)"/>
<path d="M165.227 39.1998C165.193 39.3373 165.119 39.4615 165.014 39.5567C164.909 39.652 164.778 39.714 164.638 39.7349C164.498 39.7558 164.355 39.7347 164.226 39.6743C164.098 39.6139 163.991 39.5168 163.918 39.3954C163.845 39.2739 163.81 39.1336 163.817 38.9921C163.823 38.8506 163.872 38.7143 163.956 38.6004C164.041 38.4866 164.157 38.4002 164.29 38.3524C164.423 38.3045 164.568 38.2973 164.705 38.3316C164.89 38.3778 165.048 38.4952 165.146 38.6579C165.243 38.8207 165.273 39.0155 165.227 39.1998Z" fill="url(#paint6_linear_1146_7852)"/>
<path d="M172.052 12.9387C171.842 13.0971 171.589 13.1897 171.327 13.2046C171.064 13.2195 170.802 13.1561 170.575 13.0224C170.349 12.8888 170.166 12.6909 170.052 12.4537C169.938 12.2166 169.896 11.9508 169.933 11.6901C169.969 11.4293 170.083 11.1853 170.258 10.9889C170.433 10.7925 170.663 10.6525 170.918 10.5866C171.173 10.5207 171.442 10.5318 171.69 10.6187C171.939 10.7055 172.156 10.8641 172.314 11.0744C172.527 11.3564 172.619 11.7112 172.57 12.0608C172.52 12.4105 172.334 12.7262 172.052 12.9387Z" fill="url(#paint7_linear_1146_7852)"/>
</g>
<path d="M100.995 129.143C136.66 129.143 165.571 100.234 165.571 64.5716C165.571 28.9097 136.66 0 100.995 0C65.3314 0 36.4199 28.9097 36.4199 64.5716C36.4199 100.234 65.3314 129.143 100.995 129.143Z" fill="#F6F2ED"/>
<path d="M100.995 127.893C135.969 127.893 164.321 99.5432 164.321 64.5716C164.321 29.6001 135.969 1.25 100.995 1.25C66.0217 1.25 37.6699 29.6001 37.6699 64.5716C37.6699 99.5432 66.0217 127.893 100.995 127.893Z" stroke="#272421" stroke-width="2"/>
<path d="M160.782 65.2076C160.794 73.1237 159.231 80.9631 156.184 88.2691C153.136 95.5752 148.665 102.202 143.031 107.763C137.53 113.241 131.001 117.577 123.818 120.523C116.635 123.468 108.941 124.964 101.178 124.925C89.3611 124.949 77.8027 121.466 67.9659 114.918C58.1291 108.37 50.456 99.0513 45.9177 88.1411C41.3794 77.2309 40.18 65.2196 42.4713 53.6275C44.7625 42.0354 50.4414 31.3834 58.7892 23.0199C67.137 14.6563 77.7784 8.95694 89.3668 6.64326C100.955 4.32959 112.969 5.50563 123.889 10.0223C134.809 14.5391 144.143 22.1935 150.711 32.017C157.278 41.8404 160.784 53.3912 160.783 65.2076H160.782Z" fill="url(#paint8_linear_1146_7852)"/>
<path d="M101 113C128.062 113 150 91.2858 150 64.5C150 37.7142 128.062 16 101 16C73.938 16 52 37.7142 52 64.5C52 91.2858 73.938 113 101 113Z" fill="#F6F2ED"/>
<path d="M101.168 21.2217C77.1436 21.2217 57.668 40.9212 57.668 65.2217C57.668 89.5222 77.1436 109.222 101.168 109.222C125.192 109.222 144.668 89.5222 144.668 65.2217C144.668 40.9212 125.192 21.2217 101.168 21.2217Z" stroke="#272421" stroke-width="1.5" stroke-dasharray="1.5 1.5"/>
<path d="M101 80C109.284 80 116 73.2843 116 65C116 56.7157 109.284 50 101 50C92.7157 50 86 56.7157 86 65C86 73.2843 92.7157 80 101 80Z" fill="url(#paint9_linear_1146_7852)"/>
<path d="M99.8926 58.8929V59.2143H103.107V58.8929C103.107 58.4666 102.938 58.0578 102.636 57.7564C102.335 57.455 101.926 57.2857 101.5 57.2857C101.073 57.2857 100.665 57.455 100.363 57.7564C100.062 58.0578 99.8926 58.4666 99.8926 58.8929ZM98.6069 59.2143V58.8929C98.6069 58.1256 98.9116 57.3898 99.4542 56.8473C99.9967 56.3048 100.732 56 101.5 56C102.267 56 103.003 56.3048 103.545 56.8473C104.088 57.3898 104.393 58.1256 104.393 58.8929V59.2143H109.214C109.385 59.2143 109.548 59.282 109.669 59.4026C109.789 59.5231 109.857 59.6866 109.857 59.8571C109.857 60.0276 109.789 60.1912 109.669 60.3117C109.548 60.4323 109.385 60.5 109.214 60.5H108.245L107.028 71.1509C106.939 71.9353 106.563 72.6592 105.974 73.1847C105.385 73.7102 104.623 74.0004 103.833 74H99.1661C98.3766 74.0004 97.6146 73.7102 97.0253 73.1847C96.4361 72.6592 96.0608 71.9353 95.9711 71.1509L94.7549 60.5H93.7854C93.6149 60.5 93.4514 60.4323 93.3309 60.3117C93.2103 60.1912 93.1426 60.0276 93.1426 59.8571C93.1426 59.6866 93.2103 59.5231 93.3309 59.4026C93.4514 59.282 93.6149 59.2143 93.7854 59.2143H98.6069ZM100.214 63.3929C100.214 63.2224 100.146 63.0588 100.026 62.9383C99.9052 62.8177 99.7416 62.75 99.5711 62.75C99.4007 62.75 99.2371 62.8177 99.1166 62.9383C98.996 63.0588 98.9283 63.2224 98.9283 63.3929V69.8214C98.9283 69.9919 98.996 70.1554 99.1166 70.276C99.2371 70.3966 99.4007 70.4643 99.5711 70.4643C99.7416 70.4643 99.9052 70.3966 100.026 70.276C100.146 70.1554 100.214 69.9919 100.214 69.8214V63.3929ZM103.428 62.75C103.258 62.75 103.094 62.8177 102.974 62.9383C102.853 63.0588 102.785 63.2224 102.785 63.3929V69.8214C102.785 69.9919 102.853 70.1554 102.974 70.276C103.094 70.3966 103.258 70.4643 103.428 70.4643C103.599 70.4643 103.762 70.3966 103.883 70.276C104.003 70.1554 104.071 69.9919 104.071 69.8214V63.3929C104.071 63.2224 104.003 63.0588 103.883 62.9383C103.762 62.8177 103.599 62.75 103.428 62.75Z" fill="#F6F2ED"/>
<defs>
<linearGradient id="paint0_linear_1146_7852" x1="7.62554" y1="70.8774" x2="112.412" y2="117.895" gradientUnits="userSpaceOnUse">
<stop stop-color="#846E55"/>
<stop offset="1" stop-color="#B3A55C"/>
</linearGradient>
<linearGradient id="paint1_linear_1146_7852" x1="51.9555" y1="137.176" x2="56.396" y2="145.954" gradientUnits="userSpaceOnUse">
<stop stop-color="#846E55"/>
<stop offset="1" stop-color="#B3A55C"/>
</linearGradient>
<linearGradient id="paint2_linear_1146_7852" x1="61.7939" y1="133.1" x2="64.8273" y2="139.096" gradientUnits="userSpaceOnUse">
<stop stop-color="#846E55"/>
<stop offset="1" stop-color="#B3A55C"/>
</linearGradient>
<linearGradient id="paint3_linear_1146_7852" x1="-0.109855" y1="84.8074" x2="11.2742" y2="89.9155" gradientUnits="userSpaceOnUse">
<stop stop-color="#846E55"/>
<stop offset="1" stop-color="#B3A55C"/>
</linearGradient>
<linearGradient id="paint4_linear_1146_7852" x1="146.052" y1="22.8951" x2="187.508" y2="13.4518" gradientUnits="userSpaceOnUse">
<stop stop-color="#846E55"/>
<stop offset="1" stop-color="#B3A55C"/>
</linearGradient>
<linearGradient id="paint5_linear_1146_7852" x1="169.74" y1="37.6276" x2="167.489" y2="40.4908" gradientUnits="userSpaceOnUse">
<stop stop-color="#846E55"/>
<stop offset="1" stop-color="#B3A55C"/>
</linearGradient>
<linearGradient id="paint6_linear_1146_7852" x1="165.34" y1="38.4673" x2="163.805" y2="40.4204" gradientUnits="userSpaceOnUse">
<stop stop-color="#846E55"/>
<stop offset="1" stop-color="#B3A55C"/>
</linearGradient>
<linearGradient id="paint7_linear_1146_7852" x1="169.43" y1="11.7382" x2="173.932" y2="10.7127" gradientUnits="userSpaceOnUse">
<stop stop-color="#846E55"/>
<stop offset="1" stop-color="#B3A55C"/>
</linearGradient>
<linearGradient id="paint8_linear_1146_7852" x1="39.5143" y1="11.1275" x2="228.491" y2="95.9216" gradientUnits="userSpaceOnUse">
<stop stop-color="#846E55"/>
<stop offset="1" stop-color="#B3A55C"/>
</linearGradient>
<linearGradient id="paint9_linear_1146_7852" x1="85.542" y1="51.4167" x2="133.007" y2="72.7129" gradientUnits="userSpaceOnUse">
<stop stop-color="#846E55"/>
<stop offset="1" stop-color="#B3A55C"/>
</linearGradient>
</defs>
</svg>
