<svg width="22" height="19" viewBox="0 0 22 19" fill="none" xmlns="http://www.w3.org/2000/svg">
<path d="M0 10.366C0.0412252 10.1867 0.0775034 10.0065 0.123676 9.83008C0.59859 7.95309 2.17999 6.69696 4.11551 6.67388C5.03813 6.66192 5.96117 6.67181 6.8842 6.67181H7.16536C7.22266 7.74655 7.61883 8.66217 8.39098 9.4339C7.17154 9.83544 6.24026 10.5569 5.5819 11.6308C4.92353 12.7047 4.83283 13.8904 4.90786 15.1349C3.20773 15.0447 1.59047 14.6914 0.00206076 14.1905L0 10.366Z" fill="#F6F2ED"/>
<path d="M16.6575 15.5269C16.6575 16.0921 16.6476 16.6573 16.6633 17.222C16.6682 17.4125 16.5989 17.4995 16.4353 17.5733C15.6149 17.9443 14.7533 18.1678 13.8682 18.3083C11.2157 18.7288 8.62516 18.4143 6.07373 17.6458C5.66395 17.5222 5.66148 17.5222 5.66354 17.0959C5.66354 16.0653 5.6487 15.0346 5.67096 14.004C5.71754 11.8694 7.40448 10.1119 9.53665 10.0179C10.6642 9.96806 11.7974 9.97671 12.9254 10.0245C14.529 10.0938 16.0733 11.4142 16.4955 12.9866C16.6711 13.64 16.6571 14.3029 16.6575 14.9674C16.6579 15.1546 16.6575 15.3409 16.6575 15.5269Z" fill="#F6F2ED"/>
<path d="M17.4087 15.2182C17.4087 14.6995 17.4305 14.2634 17.405 13.8305C17.2883 11.8435 16.0033 10.1594 14.116 9.50186C14.0637 9.48372 14.0121 9.46063 13.9297 9.43013C14.6874 8.65921 15.0992 7.74937 15.1442 6.68246C15.206 6.67628 15.2477 6.66845 15.2889 6.66845C16.1905 6.66845 17.0925 6.65526 17.9937 6.67463C20.1007 6.71998 21.88 8.42959 21.9723 10.5366C22.0234 11.6934 21.9892 12.8543 21.9847 14.0135C21.9787 14.0516 21.9637 14.0876 21.941 14.1186C21.9182 14.1497 21.8884 14.1749 21.854 14.1921C21.2356 14.4122 20.6267 14.6764 19.9906 14.817C19.1636 15.0001 18.3144 15.0825 17.4087 15.2182Z" fill="#F6F2ED"/>
<path d="M7.93764 6.54845C7.93731 5.69473 8.27571 4.87576 8.87857 4.27128C9.48142 3.6668 10.2995 3.32619 11.1532 3.32423C12.9222 3.31969 14.3774 4.76711 14.384 6.5398C14.391 8.3199 12.9345 9.77433 11.1503 9.76856C10.7277 9.76883 10.3092 9.68567 9.91884 9.52385C9.52845 9.36203 9.17385 9.12473 8.87537 8.82557C8.5769 8.5264 8.34042 8.17126 8.1795 7.78049C8.01858 7.38973 7.93639 6.97105 7.93764 6.54845Z" fill="#F6F2ED"/>
<path d="M2.27466 3.22281C2.27466 1.57834 3.54233 0.159363 5.14517 0.0142502C6.84777 -0.139932 8.35662 0.972325 8.66374 2.60897C8.6823 2.70749 8.69466 2.80685 8.70827 2.90579C8.74949 3.20014 8.70044 3.42605 8.44154 3.65114C7.80544 4.20562 7.41503 4.92541 7.25425 5.7594C7.22746 5.89792 7.15944 5.97748 7.03494 6.0455C4.8904 7.21176 2.27878 5.66541 2.27466 3.22281Z" fill="#F6F2ED"/>
<path d="M19.7155 3.22129C19.7155 5.50599 17.3656 7.08533 15.287 6.19775C15.2459 6.17819 15.2093 6.15016 15.1798 6.11549C15.1502 6.08082 15.1283 6.04029 15.1155 5.99657C14.9218 4.83608 14.3504 3.91634 13.3787 3.25262C13.253 3.16646 13.2724 3.06587 13.2814 2.95497C13.3505 2.12646 13.737 1.35669 14.3604 0.806523C14.9837 0.256359 15.7955 -0.0316233 16.6262 0.00275961C17.4568 0.0371425 18.2421 0.391229 18.8178 0.991023C19.3935 1.59082 19.7151 2.3899 19.7155 3.22129Z" fill="#F6F2ED"/>
</svg>
