<svg width="40" height="40" viewBox="0 0 40 40" fill="none" xmlns="http://www.w3.org/2000/svg">
<g clip-path="url(#clip0_639_8090)">
<mask id="mask0_639_8090" style="mask-type:luminance" maskUnits="userSpaceOnUse" x="0" y="0" width="40" height="40">
<path d="M40 0H0V40H40V0Z" fill="white"/>
</mask>
<g mask="url(#mask0_639_8090)">
<path d="M19.9427 8.16153e-05C23.8975 -0.011216 27.7668 1.15062 31.0616 3.33904C34.3564 5.52746 36.9289 8.64418 38.4536 12.295C39.9784 15.9458 40.387 19.9667 39.628 23.8499C38.8689 27.733 36.9762 31.3039 34.1891 34.111C31.4019 36.9181 27.8455 38.8354 23.9694 39.6208C20.0933 40.4061 16.0715 40.0241 12.4123 38.523C8.75319 37.0219 5.62108 34.4693 3.41176 31.1876C1.20243 27.9059 0.0151932 24.0425 8.24051e-05 20.0858C-0.0151309 14.7772 2.07667 9.67983 5.81612 5.91353C9.55557 2.14723 14.6366 0.0203025 19.9427 8.16153e-05ZM19.9427 37.1742C23.9066 37.1976 27.7565 35.8484 30.8396 33.3556C30.9374 33.2963 31.0117 33.205 31.0499 33.0971C31.0882 32.9893 31.0881 32.8714 31.0495 32.7636C30.5685 31.0186 29.6764 29.4145 28.4478 28.0857C27.2192 26.7568 25.69 25.742 23.9885 25.1264C23.7922 25.0497 23.5743 25.0497 23.3779 25.1264C22.3183 25.5754 21.1794 25.8067 20.0287 25.8067C18.878 25.8067 17.739 25.5754 16.6794 25.1264C16.5058 25.0695 16.3186 25.0695 16.145 25.1264C14.4332 25.7312 12.8932 26.7419 11.6568 28.0719C10.4205 29.4019 9.52479 31.0117 9.04586 32.7636C8.98751 32.8816 8.97454 33.0169 9.00975 33.1438C9.04497 33.2706 9.12584 33.38 9.23666 33.4509C12.2712 35.8601 16.0306 37.1723 19.9045 37.1742H19.9427ZM20.0382 11.4368C18.9059 11.4368 17.7989 11.7726 16.8574 12.402C15.9159 13.0313 15.182 13.9261 14.7487 14.9727C14.3153 16.0194 14.2021 17.171 14.423 18.2821C14.6439 19.3932 15.1892 20.4137 15.9899 21.2148C16.7906 22.0159 17.8106 22.5614 18.9212 22.7824C20.0318 23.0034 21.1828 22.8901 22.229 22.4566C23.2751 22.023 24.1694 21.2888 24.7985 20.3468C25.4276 19.4049 25.7634 18.2976 25.7634 17.1647C25.7634 16.4093 25.6139 15.6613 25.3238 14.9639C25.0337 14.2664 24.6088 13.6333 24.0731 13.1009C23.5374 12.5685 22.9017 12.1473 22.2026 11.8617C21.5036 11.5761 20.7551 11.4318 20 11.4368H20.0382Z" fill="url(#paint0_linear_639_8090)"/>
<path d="M19.9044 37.1743C16.006 37.154 12.2304 35.8073 9.19833 33.3557C9.08752 33.2847 9.00688 33.1754 8.97166 33.0485C8.93645 32.9217 8.94919 32.7864 9.00754 32.6684C9.48647 30.9164 10.3824 29.3065 11.6188 27.9765C12.8551 26.6464 14.3949 25.636 16.1067 25.0312C16.2803 24.9743 16.4675 24.9743 16.6411 25.0312C17.7007 25.4801 18.8397 25.7115 19.9904 25.7115C21.1411 25.7115 22.28 25.4801 23.3396 25.0312C23.536 24.9545 23.7538 24.9545 23.9502 25.0312C25.6517 25.6467 27.1809 26.6614 28.4095 27.9902C29.6381 29.3191 30.5304 30.9234 31.0114 32.6684C31.05 32.7761 31.0501 32.8938 31.0119 33.0017C30.9736 33.1095 30.8991 33.2008 30.8013 33.2601C27.7312 35.7873 23.88 37.1707 19.9044 37.1743Z" fill="#F6F2ED"/>
<path d="M19.9996 11.4375C21.1319 11.4375 22.2387 11.7732 23.1802 12.4026C24.1217 13.032 24.8556 13.9268 25.2889 14.9734C25.7223 16.02 25.8355 17.1717 25.6146 18.2828C25.3937 19.3939 24.8486 20.4144 24.048 21.2155C23.2473 22.0165 22.227 22.5621 21.1164 22.7831C20.0058 23.0041 18.8548 22.8908 17.8086 22.4573C16.7625 22.0237 15.8684 21.2895 15.2393 20.3475C14.6102 19.4056 14.2744 18.2983 14.2744 17.1654C14.2744 15.6463 14.8776 14.1893 15.9513 13.1151C17.0249 12.0409 18.4812 11.4375 19.9996 11.4375Z" fill="#F6F2ED"/>
</g>
</g>
<defs>
<linearGradient id="paint0_linear_639_8090" x1="-0.610685" y1="1.88978" x2="62.6851" y2="30.2756" gradientUnits="userSpaceOnUse">
<stop stop-color="#A58969"/>
<stop offset="1" stop-color="#C7B664"/>
</linearGradient>
<clipPath id="clip0_639_8090">
<rect width="40" height="40" fill="white"/>
</clipPath>
</defs>
</svg>
