<svg width="284" height="250" viewBox="0 0 284 250" fill="none" xmlns="http://www.w3.org/2000/svg">
<path d="M137.709 211.399C195.72 211.399 242.747 164.371 242.747 106.36C242.747 48.3476 195.72 1.31958 137.709 1.31958C79.6972 1.31958 32.6698 48.3476 32.6698 106.36C32.6698 164.371 79.6972 211.399 137.709 211.399Z" fill="#C3B075" fill-opacity="0.1"/>
<path opacity="0.3" d="M257.999 146.415C259.778 146.415 261.518 145.888 262.998 144.899C264.477 143.91 265.631 142.505 266.312 140.861C266.993 139.216 267.171 137.407 266.824 135.662C266.477 133.916 265.62 132.313 264.361 131.054C263.103 129.796 261.5 128.939 259.754 128.592C258.009 128.245 256.199 128.423 254.555 129.104C252.911 129.785 251.506 130.938 250.517 132.418C249.528 133.898 249.001 135.637 249.001 137.417C249.001 139.804 249.949 142.092 251.636 143.78C253.324 145.467 255.612 146.415 257.999 146.415Z" fill="#D3D1CE" fill-opacity="0.3"/>
<path opacity="0.2" d="M271.17 111.299C272.386 111.299 273.575 110.938 274.586 110.263C275.597 109.587 276.386 108.627 276.851 107.503C277.316 106.379 277.438 105.143 277.201 103.95C276.964 102.757 276.378 101.661 275.518 100.801C274.658 99.9411 273.562 99.3554 272.369 99.1182C271.176 98.8809 269.94 99.0027 268.816 99.4681C267.693 99.9336 266.732 100.722 266.056 101.733C265.381 102.744 265.02 103.933 265.02 105.15C265.02 106.781 265.668 108.345 266.821 109.498C267.974 110.651 269.539 111.299 271.17 111.299Z" fill="#D3D1CE" fill-opacity="0.3"/>
<path opacity="0.3" d="M16.6895 77.171C18.9466 77.171 21.153 76.5017 23.0297 75.2477C24.9064 73.9937 26.3691 72.2114 27.2328 70.1261C28.0966 68.0408 28.3226 65.7462 27.8822 63.5324C27.4419 61.3187 26.355 59.2852 24.759 57.6892C23.163 56.0932 21.1296 55.0063 18.9159 54.566C16.7021 54.1256 14.4076 54.3516 12.3223 55.2154C10.237 56.0791 8.45469 57.5419 7.20072 59.4186C5.94675 61.2953 5.27745 63.5017 5.27745 65.7588C5.27745 68.7855 6.47978 71.6882 8.61996 73.8284C10.7601 75.9686 13.6628 77.171 16.6895 77.171Z" fill="#D3D1CE" fill-opacity="0.3"/>
<path d="M94.225 27.7074L92.9937 28.4182L94.3732 30.8076L95.6044 30.0967L94.225 27.7074Z" fill="url(#paint0_linear_848_6673)"/>
<path d="M98.0335 34.2913L96.8023 35.0022L98.1817 37.3915L99.413 36.6807L98.0335 34.2913Z" fill="url(#paint1_linear_848_6673)"/>
<path d="M100.328 29.3427L97.9389 30.7222L98.6498 31.9534L101.039 30.5739L100.328 29.3427Z" fill="url(#paint2_linear_848_6673)"/>
<path d="M93.7494 33.144L91.36 34.5234L92.0709 35.7547L94.4602 34.3752L93.7494 33.144Z" fill="url(#paint3_linear_848_6673)"/>
<path d="M58.4108 236.159H56.5117V239.845H58.4108V236.159Z" fill="url(#paint4_linear_848_6673)"/>
<path d="M58.4108 246.315H56.5117V250H58.4108V246.315Z" fill="url(#paint5_linear_848_6673)"/>
<path d="M64.3822 242.131H60.6967V244.03H64.3822V242.131Z" fill="url(#paint6_linear_848_6673)"/>
<path d="M54.2219 242.131H50.5363V244.03H54.2219V242.131Z" fill="url(#paint7_linear_848_6673)"/>
<path d="M3.76475 53.8162C5.84396 53.8162 7.5295 52.1306 7.5295 50.0514C7.5295 47.9722 5.84396 46.2866 3.76475 46.2866C1.68554 46.2866 0 47.9722 0 50.0514C0 52.1306 1.68554 53.8162 3.76475 53.8162Z" fill="url(#paint8_linear_848_6673)"/>
<path d="M17.1502 109.328C18.7994 109.328 20.1364 107.991 20.1364 106.342C20.1364 104.693 18.7994 103.356 17.1502 103.356C15.501 103.356 14.1641 104.693 14.1641 106.342C14.1641 107.991 15.501 109.328 17.1502 109.328Z" fill="url(#paint9_linear_848_6673)"/>
<path d="M280.2 130.016C282.043 130.016 283.536 128.522 283.536 126.679C283.536 124.837 282.043 123.343 280.2 123.343C278.357 123.343 276.864 124.837 276.864 126.679C276.864 128.522 278.357 130.016 280.2 130.016Z" fill="url(#paint10_linear_848_6673)"/>
<path d="M227.719 117.652L226.63 116.738L224.857 118.851L225.946 119.765L227.719 117.652Z" fill="url(#paint11_linear_848_6673)"/>
<path d="M222.828 123.475L221.739 122.562L219.965 124.675L221.054 125.589L222.828 123.475Z" fill="url(#paint12_linear_848_6673)"/>
<path d="M228.264 123.949L226.151 122.175L225.237 123.264L227.351 125.038L228.264 123.949Z" fill="url(#paint13_linear_848_6673)"/>
<path d="M222.441 119.062L220.328 117.288L219.414 118.377L221.527 120.151L222.441 119.062Z" fill="url(#paint14_linear_848_6673)"/>
<path d="M176.911 66.3163H156.099V68.3005H176.909C181.136 68.3049 185.189 69.986 188.178 72.975C191.167 75.9641 192.848 80.0168 192.852 84.2439V94.648C191.345 91.7183 189.059 89.2602 186.247 87.5432C183.435 85.8263 180.204 84.9167 176.909 84.9142H82.8999C82.8602 84.9117 82.8204 84.9117 82.7806 84.9142C82.5753 84.93 82.3691 84.93 82.1638 84.9142C82.0199 84.9142 81.8759 84.9039 81.7279 84.9039C79.5251 84.9039 77.4125 84.0289 75.8548 82.4712C74.2972 80.9136 73.4221 78.8009 73.4221 76.5981C73.4221 74.3953 74.2972 72.2826 75.8548 70.725C77.4125 69.1673 79.5251 68.2923 81.7279 68.2923H110.843V66.3081H81.7361C79.007 66.3081 76.3897 67.3922 74.46 69.322C72.5303 71.2517 71.4461 73.869 71.4461 76.5981C71.4461 79.3272 72.5303 81.9445 74.46 83.8743C76.3897 85.804 79.007 86.8881 81.7361 86.8881C81.8554 86.8881 81.9746 86.8881 82.0918 86.8881C82.3786 86.9087 82.6666 86.9087 82.9534 86.8881H176.909C181.136 86.893 185.188 88.5743 188.177 91.5632C191.166 94.5522 192.848 98.6046 192.852 102.832C192.846 102.966 192.867 103.1 192.915 103.225C192.962 103.351 193.034 103.466 193.126 103.563C193.219 103.66 193.331 103.737 193.454 103.79C193.577 103.843 193.71 103.87 193.844 103.87C193.979 103.87 194.112 103.843 194.235 103.79C194.358 103.737 194.47 103.66 194.563 103.563C194.655 103.466 194.727 103.351 194.774 103.225C194.822 103.1 194.843 102.966 194.837 102.832V84.2439C194.831 79.4912 192.941 74.9348 189.58 71.5739C186.22 68.2131 181.664 66.3223 176.911 66.3163Z" fill="url(#paint15_linear_848_6673)"/>
<path d="M110.131 72.5707C110.131 71.9086 110.158 71.2548 110.218 70.6133H81.7378C80.1493 70.6133 78.6258 71.2443 77.5025 72.3676C76.3793 73.4908 75.7482 75.0143 75.7482 76.6028C75.7482 78.1914 76.3793 79.7148 77.5025 80.8381C78.6258 81.9614 80.1493 82.5924 81.7378 82.5924C81.9167 82.5924 82.0956 82.5924 82.2662 82.6048C82.3526 82.6048 82.4307 82.6171 82.5047 82.6171L82.7104 82.5904H112.432C110.916 79.4678 110.13 76.0417 110.131 72.5707Z" fill="url(#paint16_linear_848_6673)"/>
<path d="M176.908 70.6135H156.03C156.089 71.255 156.116 71.9109 156.116 72.571C156.12 76.0422 155.336 79.469 153.822 82.5927H176.908C181.953 82.5886 186.816 84.4772 190.536 87.8852V84.2397C190.532 80.6266 189.095 77.1626 186.54 74.608C183.985 72.0534 180.521 70.6168 176.908 70.6135Z" fill="url(#paint17_linear_848_6673)"/>
<path d="M155.754 122.58C156.539 121.789 157.473 121.162 158.503 120.735C159.533 120.308 160.637 120.09 161.751 120.094H193.842C193.972 120.094 194.102 120.069 194.222 120.019C194.343 119.969 194.452 119.896 194.545 119.804C194.637 119.712 194.71 119.602 194.76 119.481C194.81 119.361 194.835 119.232 194.835 119.101V102.835C194.829 98.0819 192.939 93.525 189.578 90.1641C186.217 86.8032 181.66 84.9127 176.907 84.9073H82.9023C82.8626 84.9048 82.8228 84.9048 82.7831 84.9073C82.5778 84.9234 82.3715 84.9234 82.1662 84.9073C82.0223 84.9073 81.8784 84.897 81.7324 84.897C79.5303 84.9041 77.4153 84.0374 75.8514 82.487C74.2876 80.9366 73.4026 78.8292 73.3906 76.6271C73.379 76.3718 73.2694 76.1308 73.0846 75.9543C72.8998 75.7777 72.6541 75.6792 72.3985 75.6792C72.1429 75.6792 71.8972 75.7777 71.7124 75.9543C71.5276 76.1308 71.418 76.3718 71.4064 76.6271V162.393C71.4064 162.416 71.4064 162.441 71.4064 162.463C71.599 165.045 72.7582 167.458 74.6526 169.222C76.5469 170.986 79.037 171.971 81.6255 171.979H176.909C181.662 171.974 186.219 170.083 189.58 166.722C192.941 163.361 194.832 158.805 194.837 154.052V138.049C194.837 137.918 194.812 137.789 194.762 137.668C194.712 137.548 194.639 137.438 194.547 137.346C194.454 137.253 194.345 137.18 194.224 137.13C194.104 137.081 193.974 137.055 193.844 137.055H161.754C160.075 137.056 158.434 136.558 157.038 135.625C155.643 134.693 154.555 133.367 153.912 131.817C153.27 130.266 153.102 128.559 153.43 126.913C153.758 125.267 154.566 123.754 155.754 122.568V122.58ZM151.28 128.582C151.283 131.358 152.388 134.02 154.351 135.983C156.314 137.946 158.975 139.05 161.751 139.054H192.851V154.064C192.846 158.291 191.165 162.344 188.176 165.333C185.187 168.322 181.134 170.003 176.907 170.007H81.6275C79.5462 170.002 77.543 169.214 76.0167 167.799C74.4904 166.384 73.5528 164.446 73.3906 162.371V82.6764C74.3522 83.9849 75.6085 85.0486 77.0578 85.7813C78.507 86.514 80.1085 86.895 81.7324 86.8935C81.8516 86.8935 81.9709 86.8935 82.0881 86.8935C82.3749 86.9141 82.6628 86.9141 82.9496 86.8935H176.905C181.132 86.8979 185.185 88.579 188.174 91.568C191.163 94.5571 192.844 98.6098 192.849 102.837V118.112H161.754C158.977 118.116 156.316 119.22 154.353 121.183C152.39 123.147 151.285 125.808 151.282 128.584L151.28 128.582Z" fill="#141414" fill-opacity="0.6"/>
<path d="M161.757 119.101H190.543V102.835C190.538 99.2223 189.101 95.7588 186.546 93.204C183.991 90.6493 180.528 89.2119 176.915 89.207H83.0598C82.9064 89.2264 82.7518 89.2354 82.5972 89.2338V167.69H176.911C180.524 167.687 183.988 166.25 186.543 163.695C189.098 161.14 190.535 157.675 190.539 154.062V138.059H161.753C159.238 138.059 156.827 137.06 155.049 135.283C153.272 133.505 152.273 131.094 152.273 128.579C152.273 126.065 153.272 123.654 155.049 121.876C156.827 120.098 159.238 119.099 161.753 119.099L161.757 119.101Z" fill="#272421"/>
<path d="M161.757 138.065C160.59 138.067 159.433 137.851 158.344 137.43C158.309 137.695 158.292 137.962 158.291 138.23C158.291 139.866 158.94 141.435 160.097 142.592C161.254 143.748 162.823 144.398 164.459 144.398H190.537V138.061L161.757 138.065Z" fill="#D3D1CE" fill-opacity="0.3"/>
<path d="M134.431 66.4043H131.672V71.3391H134.431C135.086 71.3391 135.713 71.0791 136.176 70.6164C136.639 70.1536 136.899 69.5261 136.899 68.8717C136.899 68.2173 136.639 67.5897 136.176 67.127C135.713 66.6643 135.086 66.4043 134.431 66.4043Z" fill="#272421"/>
<path d="M135.554 73.9012H131.672V79.2472H135.556C135.907 79.2476 136.255 79.1788 136.58 79.0447C136.904 78.9107 137.199 78.714 137.448 78.4658C137.824 78.0923 138.081 77.6153 138.186 77.0953C138.29 76.5753 138.238 76.036 138.035 75.5459C137.832 75.0558 137.488 74.6371 137.047 74.3431C136.605 74.0492 136.086 73.8932 135.556 73.895L135.554 73.9012Z" fill="#272421"/>
<path d="M151.85 59.2345C149.912 54.7272 146.413 51.0701 141.996 48.9348C137.579 46.7995 132.54 46.3293 127.804 47.6106C123.068 48.8918 118.953 51.8385 116.215 55.9095C113.477 59.9806 112.299 64.9028 112.898 69.7723C112.931 70.056 112.97 70.3336 113.017 70.6133C113.775 75.2529 116.117 79.4865 119.646 82.5924H146.604C150.135 79.4869 152.48 75.2535 153.24 70.6133C153.285 70.3357 153.326 70.0581 153.359 69.7723C153.799 66.1882 153.279 62.5514 151.852 59.2345H151.85ZM142.186 80.2381H124.092V79.4568H125.971C126.126 79.4816 126.285 79.4698 126.435 79.4222C126.585 79.3746 126.722 79.2926 126.834 79.1826C126.947 79.0727 127.032 78.938 127.083 78.7892C127.134 78.6404 127.15 78.4818 127.129 78.3259V67.3645C127.15 67.2087 127.134 67.05 127.083 66.9012C127.032 66.7525 126.947 66.6177 126.834 66.5078C126.722 66.3979 126.585 66.3158 126.435 66.2682C126.285 66.2206 126.126 66.2088 125.971 66.2336H124.092V63.5421H129.166V59.5244H131.667V63.5463H133.248V59.5244H135.742V63.5463H137.487C138.531 63.5491 139.536 63.9406 140.306 64.6444C141.076 65.3482 141.556 66.3137 141.653 67.3525C141.749 68.3913 141.455 69.4288 140.828 70.2625C140.201 71.0962 139.285 71.6662 138.261 71.8613C139.225 71.8766 140.166 72.1631 140.976 72.6881C141.785 73.213 142.431 73.9552 142.838 74.8297C143.246 75.7043 143.399 76.6759 143.28 77.6334C143.162 78.5909 142.776 79.4957 142.167 80.2443L142.186 80.2381Z" fill="url(#paint18_linear_848_6673)"/>
<path d="M134.431 66.4043H131.672V71.3391H134.431C135.086 71.3391 135.713 71.0791 136.176 70.6164C136.639 70.1536 136.899 69.5261 136.899 68.8717C136.899 68.2173 136.639 67.5897 136.176 67.127C135.713 66.6643 135.086 66.4043 134.431 66.4043Z" fill="#141414" fill-opacity="0.6"/>
<path d="M135.554 73.9012H131.672V79.2472H135.556C135.907 79.2476 136.255 79.1788 136.58 79.0447C136.904 78.9107 137.199 78.714 137.448 78.4658C137.824 78.0923 138.081 77.6153 138.186 77.0953C138.29 76.5753 138.238 76.036 138.035 75.5459C137.832 75.0558 137.488 74.6371 137.047 74.3431C136.605 74.0492 136.086 73.8932 135.556 73.895L135.554 73.9012Z" fill="#141414" fill-opacity="0.6"/>
<path d="M153.434 70.611C153.413 70.3272 153.38 70.0497 153.347 69.77C152.739 64.8335 150.346 60.29 146.62 56.9951C142.894 53.7003 138.092 51.8816 133.118 51.8816C128.144 51.8816 123.342 53.7003 119.616 56.9951C115.89 60.29 113.497 64.8335 112.888 69.77C112.856 70.0476 112.823 70.3252 112.802 70.611C112.757 71.1538 112.736 71.7028 112.736 72.2559C112.734 75.8891 113.705 79.4566 115.547 82.5881H150.687C152.529 79.4566 153.499 75.8891 153.497 72.2559C153.499 71.7028 153.487 71.1538 153.434 70.611ZM142.174 80.2358H124.095V79.4545H125.974C126.129 79.4794 126.288 79.4676 126.438 79.4199C126.588 79.3723 126.725 79.2903 126.837 79.1804C126.95 79.0704 127.035 78.9357 127.086 78.7869C127.137 78.6382 127.153 78.4795 127.131 78.3236V67.3623C127.153 67.2064 127.137 67.0477 127.086 66.899C127.035 66.7502 126.95 66.6154 126.837 66.5055C126.725 66.3956 126.588 66.3135 126.438 66.2659C126.288 66.2183 126.129 66.2065 125.974 66.2314H124.095V63.5399H129.169V59.518H131.669V63.5399H133.251V59.518H135.745V63.5399H137.49C138.534 63.5427 139.538 63.9342 140.309 64.638C141.079 65.3418 141.559 66.3073 141.656 67.3461C141.752 68.3849 141.458 69.4224 140.831 70.2561C140.204 71.0898 139.288 71.6598 138.263 71.8549C139.228 71.8702 140.169 72.1568 140.979 72.6817C141.788 73.2066 142.434 73.9488 142.841 74.8233C143.249 75.6979 143.402 76.6695 143.283 77.627C143.165 78.5845 142.779 79.4893 142.17 80.2379L142.174 80.2358Z" fill="#141414" fill-opacity="0.6"/>
<path d="M154.426 70.5476C154.405 70.2536 154.372 69.9657 154.335 69.6573C153.681 64.4928 151.165 59.7443 147.259 56.3024C143.354 52.8604 138.327 50.9614 133.121 50.9614C127.915 50.9614 122.888 52.8604 118.982 56.3024C115.077 59.7443 112.561 64.4928 111.907 69.6573C111.872 69.9513 111.837 70.2453 111.816 70.5311C111.769 71.0822 111.746 71.6497 111.746 72.2624C111.745 76.0727 112.763 79.814 114.695 83.0983L116.405 82.0908C114.654 79.111 113.731 75.7169 113.732 72.2604C113.732 71.7031 113.753 71.1932 113.796 70.6833C113.815 70.4139 113.848 70.1528 113.878 69.8937C114.456 65.1951 116.733 60.8701 120.279 57.7343C123.826 54.5985 128.397 52.8685 133.131 52.8706C137.865 52.8726 142.435 54.6065 145.979 57.7453C149.523 60.8841 151.796 65.2111 152.37 69.9102C152.4 70.1652 152.431 70.4222 152.45 70.6997C152.493 71.1912 152.513 71.7011 152.513 72.2624C152.516 75.7191 151.593 79.1135 149.84 82.0929L151.551 83.1004C151.991 82.3532 152.385 81.58 152.731 80.7852C153.904 78.0979 154.506 75.1965 154.5 72.2645C154.494 71.6456 154.471 71.0802 154.426 70.5476Z" fill="url(#paint19_linear_848_6673)"/>
<path d="M107.602 96.8189H109.586V94.8348H107.602V96.8189ZM111.57 96.8189H113.554V94.8348H111.578L111.57 96.8189ZM103.631 96.8189H105.615V94.8348H103.631V96.8189ZM127.445 96.8189H129.43V94.8348H127.445V96.8189ZM123.477 96.8189H125.461V94.8348H123.477V96.8189ZM99.6628 96.8189H101.647V94.8348H99.6628V96.8189ZM131.416 96.8189H133.4V94.8348H131.416V96.8189ZM115.54 96.8189H117.525V94.8348H115.54V96.8189ZM119.509 96.8189H121.493V94.8348H119.509V96.8189ZM75.8485 96.8189H77.8327V94.8348H75.8485V96.8189ZM95.6944 96.8189H97.6786V94.8348H95.6944V96.8189ZM72.4353 96.8189H73.8746V94.8348H72.4353V96.8189ZM79.8189 96.8189H81.8031V94.8348H79.8189V96.8189ZM83.7873 96.8189H85.7714V94.8348H83.7873V96.8189ZM91.7261 96.8189H93.7102V94.8348H91.7261V96.8189ZM87.7577 96.8189H89.7419V94.8348H87.7577V96.8189ZM171.11 96.8189H173.094V94.8348H171.11V96.8189ZM182.922 115.797H184.907V113.813H182.926L182.922 115.797ZM178.713 97.0862C179.256 97.2584 179.771 97.5062 180.243 97.8224L181.347 96.1774C180.719 95.7567 180.035 95.4272 179.314 95.1987L178.713 97.0862ZM183.031 97.6805L181.514 98.9574C181.88 99.3923 182.184 99.8769 182.415 100.397L184.228 99.5927C183.919 98.9053 183.515 98.265 183.027 97.6907L183.031 97.6805ZM175.082 96.8087H177.044L177.091 94.8245H175.082V96.8087ZM182.926 107.85H184.911V105.866H182.926V107.85ZM182.926 111.819H184.911V109.834H182.926V111.819ZM184.841 101.768L182.873 102.029C182.908 102.294 182.926 102.562 182.926 102.829V103.882H184.911V102.829C184.909 102.48 184.884 102.132 184.837 101.787L184.841 101.768ZM167.144 96.8087H169.128V94.8245H167.144V96.8087ZM151.266 96.8087H153.25V94.8245H151.262L151.266 96.8087ZM143.327 96.8087H145.311V94.8245H143.327V96.8087ZM139.359 96.8087H141.343V94.8245H139.359V96.8087ZM147.298 96.8087H149.282V94.8245H147.298V96.8087ZM155.236 96.8087H157.221V94.8245H155.236V96.8087ZM135.39 96.8087H137.375V94.8245H135.39V96.8087ZM159.205 96.8087H161.189V94.8245H159.205V96.8087ZM163.173 96.8087H165.157V94.8245H163.173V96.8087Z" fill="#D3D1CE" fill-opacity="0.3"/>
<path d="M112.136 162.073H114.12V160.089H112.136V162.073ZM116.104 162.073H118.088V160.089H116.11L116.104 162.073ZM108.165 162.073H110.148V160.089H108.163L108.165 162.073ZM131.98 162.073H133.964V160.089H131.98V162.073ZM120.073 162.073H122.057V160.089H120.073V162.073ZM135.948 162.073H137.932V160.089H135.948V162.073ZM124.041 162.073H126.025V160.089H124.041V162.073ZM128.009 162.073H129.993V160.089H128.009V162.073ZM80.3786 162.073H82.3628V160.089H80.3786V162.073ZM100.225 162.073H102.209V160.089H100.225V162.073ZM84.347 162.073H86.3312V160.089H84.347V162.073ZM72.4398 162.073H74.424V160.089H72.4398V162.073ZM76.4082 162.073H78.3924V160.089H76.4082V162.073ZM96.2541 162.073H98.2383V160.089H96.2541V162.073ZM88.3154 162.073H90.2995V160.089H88.3154V162.073ZM92.2837 162.073H94.2679V160.089H92.2837V162.073ZM104.191 162.073H106.175V160.089H104.191V162.073ZM181.804 157.562L183.418 158.717C183.859 158.102 184.21 157.427 184.461 156.713L182.588 156.057C182.401 156.593 182.14 157.1 181.81 157.562H181.804ZM171.667 162.073H173.652V160.089H171.667V162.073ZM182.925 154.066C182.925 154.175 182.925 154.284 182.925 154.393L184.907 154.5C184.907 154.358 184.919 154.216 184.919 154.068V152.458H182.935L182.925 154.066ZM176.904 160.089H175.636V162.073H176.904C177.179 162.073 177.454 162.06 177.727 162.032L177.521 160.058C177.318 160.079 177.115 160.089 176.911 160.089H176.904ZM179.166 159.649L179.913 161.487C180.613 161.202 181.269 160.819 181.862 160.35L180.628 158.793C180.185 159.148 179.694 159.438 179.17 159.655L179.166 159.649ZM182.927 140.555V142.54H184.911V140.555H182.927ZM139.921 162.073H141.905V160.089H139.921V162.073ZM182.931 150.476H184.915V148.492H182.935L182.931 150.476ZM182.931 146.508H184.915V144.524H182.935L182.931 146.508ZM147.859 162.073H149.844V160.089H147.859V162.073ZM151.828 162.073H153.812V160.089H151.828V162.073ZM143.889 162.073H145.873V160.089H143.889V162.073ZM163.735 162.073H165.719V160.089H163.735V162.073ZM167.703 162.073H169.687V160.089H167.703V162.073ZM155.796 162.073H157.78V160.089H155.794L155.796 162.073ZM159.764 162.073H161.749V160.089H159.764V162.073Z" fill="#D3D1CE" fill-opacity="0.3"/>
<path d="M202.024 108.613C201.401 107.986 200.659 107.489 199.843 107.151C199.027 106.812 198.151 106.639 197.268 106.641H193.854C193.724 106.641 193.595 106.666 193.474 106.716C193.353 106.766 193.244 106.839 193.152 106.931C193.059 107.024 192.986 107.133 192.936 107.254C192.887 107.374 192.861 107.504 192.861 107.634V119.106C192.861 119.236 192.887 119.365 192.936 119.486C192.986 119.606 193.059 119.716 193.152 119.808C193.244 119.901 193.353 119.974 193.474 120.024C193.595 120.073 193.724 120.099 193.854 120.099H197.268C198.598 120.098 199.898 119.703 201.004 118.964C202.11 118.225 202.972 117.174 203.481 115.945C203.99 114.716 204.123 113.364 203.864 112.059C203.604 110.754 202.964 109.556 202.024 108.615V108.613ZM197.268 118.112H194.827V108.625H197.249C198.507 108.625 199.714 109.125 200.603 110.015C201.493 110.904 201.993 112.111 201.993 113.369C201.993 114.627 201.493 115.833 200.603 116.723C199.714 117.613 198.507 118.112 197.249 118.112H197.268Z" fill="url(#paint20_linear_848_6673)"/>
<path d="M198.986 111.654C198.761 111.428 198.494 111.249 198.2 111.127C197.906 111.005 197.59 110.942 197.271 110.943H197.166V115.798H197.271C197.752 115.798 198.221 115.656 198.621 115.389C199.021 115.122 199.332 114.743 199.516 114.299C199.699 113.855 199.747 113.366 199.653 112.895C199.559 112.424 199.326 111.991 198.986 111.652V111.654Z" fill="#141414" fill-opacity="0.6"/>
<path d="M197.264 122.412H161.761C160.125 122.412 158.556 123.062 157.399 124.219C156.242 125.375 155.592 126.944 155.592 128.58C155.592 130.216 156.242 131.785 157.399 132.942C158.556 134.099 160.125 134.749 161.761 134.749H197.273C197.915 134.749 198.531 134.494 198.985 134.039C199.44 133.585 199.695 132.969 199.695 132.327V122.085C198.903 122.303 198.086 122.413 197.264 122.412Z" fill="#141414" fill-opacity="0.6"/>
<path d="M202.994 112.378C202.863 112.378 202.734 112.403 202.613 112.453C202.493 112.503 202.383 112.576 202.291 112.668C202.199 112.76 202.125 112.87 202.076 112.991C202.026 113.111 202 113.241 202.001 113.371C202 114.629 201.5 115.835 200.611 116.725C199.721 117.614 198.515 118.114 197.257 118.115H161.754C158.976 118.115 156.313 119.218 154.349 121.182C152.385 123.146 151.282 125.809 151.282 128.587C151.282 131.364 152.385 134.028 154.349 135.991C156.313 137.955 158.976 139.059 161.754 139.059H197.257C199.04 139.058 200.75 138.349 202.011 137.089C203.272 135.829 203.982 134.12 203.985 132.337V113.371C203.985 113.108 203.88 112.856 203.695 112.67C203.509 112.483 203.257 112.378 202.994 112.378ZM202.001 132.337C201.996 133.592 201.495 134.795 200.606 135.681C199.717 136.568 198.512 137.066 197.257 137.066H161.754C159.502 137.066 157.344 136.172 155.752 134.58C154.16 132.988 153.266 130.829 153.266 128.578C153.266 126.327 154.16 124.168 155.752 122.577C157.344 120.985 159.502 120.091 161.754 120.091H197.257C198.138 120.093 199.01 119.921 199.824 119.585C200.638 119.249 201.378 118.756 202.001 118.133V132.321V132.337Z" fill="url(#paint21_linear_848_6673)"/>
<path d="M164.463 131.56C166.197 131.56 167.603 130.154 167.603 128.42C167.603 126.686 166.197 125.28 164.463 125.28C162.729 125.28 161.323 126.686 161.323 128.42C161.323 130.154 162.729 131.56 164.463 131.56Z" fill="#D3D1CE" fill-opacity="0.3"/>
<rect x="204.287" y="173.522" width="38.5736" height="39.6497" rx="19.2868" stroke="#272421"/>
<rect x="209" y="174.064" width="37.968" height="40.6497" rx="18.984" fill="url(#paint22_linear_848_6673)"/>
<path opacity="0.5" d="M236.247 194.99C235.583 194.2 234.662 193.662 233.641 193.469C234.346 193.136 234.921 192.582 235.274 191.892C235.628 191.202 235.741 190.416 235.596 189.657C235.553 189.058 235.366 188.479 235.051 187.966C234.744 187.486 234.32 187.09 233.819 186.815C233.289 186.519 232.721 186.295 232.131 186.149C231.445 185.983 230.746 185.872 230.042 185.816V182.095H227.743V185.713C227.345 185.713 226.738 185.723 225.921 185.743V182.095H223.622V185.818C223.294 185.828 222.811 185.832 222.175 185.832L219.009 185.818V188.24H220.668C220.978 188.2 221.293 188.282 221.542 188.471C221.791 188.659 221.955 188.937 221.997 189.244V193.483C222.076 193.481 222.155 193.486 222.234 193.497H221.997V199.445C221.992 199.552 221.966 199.656 221.919 199.752C221.873 199.848 221.807 199.934 221.727 200.004C221.646 200.074 221.551 200.128 221.449 200.161C221.347 200.194 221.239 200.207 221.132 200.198H219.473L219 202.901H221.985H222.805H223.611V206.667H225.909V202.962C226.328 202.971 226.935 202.976 227.731 202.976V206.683H230.03V202.908C230.758 202.879 231.483 202.805 232.203 202.688C232.823 202.583 233.431 202.412 234.015 202.179C234.545 201.976 235.035 201.683 235.463 201.314C235.87 200.944 236.197 200.496 236.425 199.999C236.689 199.414 236.849 198.789 236.899 198.151C237.096 197.054 236.863 195.923 236.247 194.99ZM225.961 188.402H226.551L227.357 188.388C227.57 188.388 227.858 188.401 228.222 188.426C228.529 188.448 228.836 188.487 229.139 188.543C229.418 188.598 229.692 188.677 229.959 188.777C230.219 188.87 230.461 189.01 230.669 189.19C230.859 189.367 231.014 189.578 231.124 189.811C231.253 190.082 231.317 190.378 231.312 190.676C231.314 190.933 231.269 191.189 231.177 191.429C231.092 191.649 230.954 191.845 230.774 191.999C230.601 192.147 230.417 192.28 230.222 192.397C229.996 192.525 229.751 192.618 229.497 192.672C229.203 192.74 228.947 192.794 228.729 192.833C228.458 192.879 228.184 192.906 227.909 192.916L227.163 192.946C226.994 192.946 226.762 192.946 226.468 192.946H225.954V188.402H225.961ZM232.238 198.46C232.15 198.676 232.027 198.876 231.873 199.051C231.705 199.233 231.505 199.383 231.283 199.494C231.055 199.615 230.817 199.719 230.572 199.804C230.301 199.893 230.024 199.962 229.743 200.01C229.419 200.07 229.136 200.112 228.892 200.137C228.649 200.162 228.358 200.181 228.018 200.195C227.68 200.21 227.416 200.217 227.227 200.217H226.516H225.964V195.211L226.674 195.197C227.068 195.187 227.388 195.183 227.636 195.183C227.884 195.183 228.228 195.198 228.667 195.227C229.038 195.249 229.407 195.293 229.771 195.361C230.104 195.43 230.431 195.521 230.75 195.635C231.06 195.736 231.35 195.888 231.608 196.085C231.836 196.274 232.023 196.505 232.16 196.765C232.292 197.027 232.368 197.314 232.382 197.607C232.396 197.899 232.349 198.192 232.243 198.465L232.238 198.46Z" fill="#272421"/>
<rect x="28.1375" y="0.5" width="38.5736" height="39.6497" rx="19.2868" stroke="#272421"/>
<rect x="26.5958" y="3.12695" width="34" height="34.3959" rx="17" fill="url(#paint23_linear_848_6673)"/>
<path opacity="0.5" d="M50.0347 20.7897C49.5171 20.1786 48.7992 19.7629 48.0038 19.6138C48.5534 19.3566 49.0009 18.9282 49.2764 18.3953C49.552 17.8624 49.64 17.2551 49.527 16.6679C49.4935 16.2055 49.3479 15.7576 49.1023 15.3616C48.8634 14.9907 48.5333 14.6848 48.1423 14.472C47.7296 14.2435 47.2874 14.0704 46.8277 13.9575C46.2928 13.8294 45.7482 13.7434 45.1993 13.7002V10.825H43.4085V13.6205C43.0983 13.6205 42.625 13.6284 41.9887 13.6441V10.825H40.1979V13.702C39.9418 13.7093 39.5658 13.7129 39.0698 13.7129L36.6032 13.702V15.5736H37.8956C38.1376 15.5422 38.3825 15.6061 38.5766 15.7514C38.7707 15.8968 38.8983 16.1116 38.9313 16.349V19.6247C38.9931 19.6236 39.0548 19.6272 39.1159 19.6356H38.9313V24.232C38.9276 24.3142 38.9071 24.3948 38.8709 24.469C38.8347 24.5431 38.7836 24.6094 38.7206 24.6637C38.6577 24.718 38.5842 24.7593 38.5046 24.785C38.425 24.8108 38.341 24.8205 38.2574 24.8136H36.9651L36.5958 26.9026H38.9221H39.5609H40.1886V29.8123H41.9795V26.9497C42.3057 26.9569 42.7789 26.9605 43.3992 26.9605V29.825H45.1901V26.908C45.7575 26.8852 46.3229 26.8283 46.8831 26.7377C47.3668 26.6564 47.8403 26.5246 48.2955 26.3445C48.7082 26.1876 49.0899 25.9614 49.4236 25.676C49.7403 25.3899 49.9953 25.0443 50.1732 24.6596C50.3786 24.208 50.5035 23.7251 50.5424 23.2319C50.6963 22.3841 50.5147 21.5106 50.0347 20.7897ZM42.0201 15.6986H42.4798L43.1075 15.6877C43.2737 15.6877 43.4983 15.6974 43.7814 15.7167C44.0211 15.7338 44.2597 15.764 44.4959 15.8073C44.7136 15.8501 44.9273 15.9107 45.1347 15.9885C45.338 16.06 45.5258 16.1681 45.6886 16.3074C45.8365 16.4441 45.9567 16.607 46.0431 16.7875C46.1436 16.9963 46.1935 17.2251 46.1889 17.456C46.1912 17.6546 46.1555 17.8519 46.0837 18.0376C46.0178 18.2076 45.91 18.3589 45.7698 18.4779C45.6355 18.5921 45.4916 18.6952 45.3397 18.7859C45.1636 18.8846 44.973 18.9561 44.7747 18.9978C44.5458 19.051 44.3464 19.0926 44.1765 19.1228C43.9652 19.1577 43.7518 19.1788 43.5377 19.1863L42.9561 19.2098C42.8244 19.2098 42.6441 19.2098 42.4152 19.2098H42.0146V15.6986H42.0201ZM46.9108 23.4711C46.8423 23.6376 46.7462 23.7919 46.6265 23.9276C46.4954 24.0679 46.3397 24.1839 46.1668 24.2701C45.9887 24.3636 45.8035 24.4436 45.6129 24.5092C45.4019 24.5782 45.1859 24.6314 44.9667 24.6687C44.7144 24.7146 44.4935 24.7472 44.3039 24.7665C44.1144 24.7858 43.8873 24.8009 43.6226 24.8118C43.3592 24.8227 43.1537 24.8281 43.006 24.8281H42.4521H42.0219V20.96L42.5758 20.9491C42.8823 20.9419 43.1322 20.9382 43.3254 20.9382C43.5186 20.9382 43.7863 20.9497 44.1285 20.9727C44.4172 20.9892 44.7046 21.0237 44.9889 21.0759C45.2478 21.129 45.5026 21.1999 45.7514 21.2879C45.9928 21.3654 46.2189 21.4831 46.4197 21.6358C46.5972 21.7812 46.7434 21.9598 46.8499 22.1612C46.953 22.3637 47.012 22.5851 47.0231 22.8113C47.0342 23.0374 46.9973 23.2634 46.9145 23.4747L46.9108 23.4711Z" fill="#272421"/>
<defs>
<linearGradient id="paint0_linear_848_6673" x1="93.0401" y1="28.5419" x2="95.558" y2="27.773" gradientUnits="userSpaceOnUse">
<stop stop-color="#846E55"/>
<stop offset="1" stop-color="#B3A55C"/>
</linearGradient>
<linearGradient id="paint1_linear_848_6673" x1="96.8486" y1="35.1259" x2="99.3665" y2="34.357" gradientUnits="userSpaceOnUse">
<stop stop-color="#846E55"/>
<stop offset="1" stop-color="#B3A55C"/>
</linearGradient>
<linearGradient id="paint2_linear_848_6673" x1="97.936" y1="30.8014" x2="101.818" y2="31.5591" gradientUnits="userSpaceOnUse">
<stop stop-color="#846E55"/>
<stop offset="1" stop-color="#B3A55C"/>
</linearGradient>
<linearGradient id="paint3_linear_848_6673" x1="91.3571" y1="34.6026" x2="95.2386" y2="35.3604" gradientUnits="userSpaceOnUse">
<stop stop-color="#846E55"/>
<stop offset="1" stop-color="#B3A55C"/>
</linearGradient>
<linearGradient id="paint4_linear_848_6673" x1="56.4827" y1="236.333" x2="59.909" y2="237.126" gradientUnits="userSpaceOnUse">
<stop stop-color="#846E55"/>
<stop offset="1" stop-color="#B3A55C"/>
</linearGradient>
<linearGradient id="paint5_linear_848_6673" x1="56.4827" y1="246.489" x2="59.909" y2="247.281" gradientUnits="userSpaceOnUse">
<stop stop-color="#846E55"/>
<stop offset="1" stop-color="#B3A55C"/>
</linearGradient>
<linearGradient id="paint6_linear_848_6673" x1="60.6404" y1="242.221" x2="64.6245" y2="245.69" gradientUnits="userSpaceOnUse">
<stop stop-color="#846E55"/>
<stop offset="1" stop-color="#B3A55C"/>
</linearGradient>
<linearGradient id="paint7_linear_848_6673" x1="50.4801" y1="242.221" x2="54.4642" y2="245.69" gradientUnits="userSpaceOnUse">
<stop stop-color="#846E55"/>
<stop offset="1" stop-color="#B3A55C"/>
</linearGradient>
<linearGradient id="paint8_linear_848_6673" x1="-0.114954" y1="46.6422" x2="11.7979" y2="51.9871" gradientUnits="userSpaceOnUse">
<stop stop-color="#846E55"/>
<stop offset="1" stop-color="#B3A55C"/>
</linearGradient>
<linearGradient id="paint9_linear_848_6673" x1="14.0729" y1="103.638" x2="23.522" y2="107.877" gradientUnits="userSpaceOnUse">
<stop stop-color="#846E55"/>
<stop offset="1" stop-color="#B3A55C"/>
</linearGradient>
<linearGradient id="paint10_linear_848_6673" x1="276.762" y1="123.658" x2="287.319" y2="128.395" gradientUnits="userSpaceOnUse">
<stop stop-color="#846E55"/>
<stop offset="1" stop-color="#B3A55C"/>
</linearGradient>
<linearGradient id="paint11_linear_848_6673" x1="226.53" y1="116.824" x2="228.114" y2="118.927" gradientUnits="userSpaceOnUse">
<stop stop-color="#846E55"/>
<stop offset="1" stop-color="#B3A55C"/>
</linearGradient>
<linearGradient id="paint12_linear_848_6673" x1="221.638" y1="122.647" x2="223.222" y2="124.75" gradientUnits="userSpaceOnUse">
<stop stop-color="#846E55"/>
<stop offset="1" stop-color="#B3A55C"/>
</linearGradient>
<linearGradient id="paint13_linear_848_6673" x1="226.075" y1="122.2" x2="226.691" y2="126.106" gradientUnits="userSpaceOnUse">
<stop stop-color="#846E55"/>
<stop offset="1" stop-color="#B3A55C"/>
</linearGradient>
<linearGradient id="paint14_linear_848_6673" x1="220.252" y1="117.313" x2="220.868" y2="121.219" gradientUnits="userSpaceOnUse">
<stop stop-color="#846E55"/>
<stop offset="1" stop-color="#B3A55C"/>
</linearGradient>
<linearGradient id="paint15_linear_848_6673" x1="69.5623" y1="68.0819" x2="143.488" y2="177.042" gradientUnits="userSpaceOnUse">
<stop stop-color="#846E55"/>
<stop offset="1" stop-color="#B3A55C"/>
</linearGradient>
<linearGradient id="paint16_linear_848_6673" x1="75.1882" y1="71.1801" x2="99.397" y2="104.374" gradientUnits="userSpaceOnUse">
<stop stop-color="#846E55"/>
<stop offset="1" stop-color="#B3A55C"/>
</linearGradient>
<linearGradient id="paint17_linear_848_6673" x1="153.261" y1="71.4291" x2="189.803" y2="106.281" gradientUnits="userSpaceOnUse">
<stop stop-color="#846E55"/>
<stop offset="1" stop-color="#B3A55C"/>
</linearGradient>
<linearGradient id="paint18_linear_848_6673" x1="112.123" y1="48.5886" x2="173.487" y2="80.0374" gradientUnits="userSpaceOnUse">
<stop stop-color="#846E55"/>
<stop offset="1" stop-color="#B3A55C"/>
</linearGradient>
<linearGradient id="paint19_linear_848_6673" x1="111.093" y1="52.4791" x2="171.009" y2="88.2402" gradientUnits="userSpaceOnUse">
<stop stop-color="#846E55"/>
<stop offset="1" stop-color="#B3A55C"/>
</linearGradient>
<linearGradient id="paint20_linear_848_6673" x1="192.691" y1="107.277" x2="211.287" y2="114.178" gradientUnits="userSpaceOnUse">
<stop stop-color="#846E55"/>
<stop offset="1" stop-color="#B3A55C"/>
</linearGradient>
<linearGradient id="paint21_linear_848_6673" x1="150.477" y1="113.638" x2="206.579" y2="163.36" gradientUnits="userSpaceOnUse">
<stop stop-color="#846E55"/>
<stop offset="1" stop-color="#B3A55C"/>
</linearGradient>
<linearGradient id="paint22_linear_848_6673" x1="208.42" y1="175.984" x2="269.803" y2="201.708" gradientUnits="userSpaceOnUse">
<stop stop-color="#846E55"/>
<stop offset="1" stop-color="#B3A55C"/>
</linearGradient>
<linearGradient id="paint23_linear_848_6673" x1="26.0767" y1="4.75121" x2="80.0769" y2="28.7009" gradientUnits="userSpaceOnUse">
<stop stop-color="#846E55"/>
<stop offset="1" stop-color="#B3A55C"/>
</linearGradient>
</defs>
</svg>
