<svg width="279" height="215" viewBox="0 0 279 215" fill="none" xmlns="http://www.w3.org/2000/svg">
<path d="M132.119 201.554C187.776 201.554 232.896 156.435 232.896 100.777C232.896 45.1194 187.776 0 132.119 0C76.4612 0 31.3418 45.1194 31.3418 100.777C31.3418 156.435 76.4612 201.554 132.119 201.554Z" fill="#C3B075" fill-opacity="0.03"/>
<path opacity="0.2" d="M260.165 105.517C261.332 105.517 262.472 105.171 263.443 104.522C264.413 103.874 265.169 102.953 265.616 101.875C266.062 100.797 266.179 99.6103 265.951 98.4658C265.724 97.3213 265.162 96.27 264.337 95.4449C263.511 94.6197 262.46 94.0578 261.316 93.8302C260.171 93.6025 258.985 93.7194 257.907 94.1659C256.829 94.6125 255.907 95.3687 255.259 96.3389C254.611 97.3092 254.265 98.4499 254.265 99.6168C254.265 101.182 254.886 102.682 255.993 103.789C257.099 104.895 258.6 105.517 260.165 105.517Z" fill="url(#paint0_linear_533_3191)"/>
<path d="M55.0378 201.555H53.2158V205.091H55.0378V201.555Z" fill="url(#paint1_linear_533_3191)"/>
<path d="M55.0378 211.297H53.2158V214.833H55.0378V211.297Z" fill="url(#paint2_linear_533_3191)"/>
<path d="M60.7674 207.283H57.2314V209.105H60.7674V207.283Z" fill="url(#paint3_linear_533_3191)"/>
<path d="M51.0243 207.283H47.4883V209.105H51.0243V207.283Z" fill="url(#paint4_linear_533_3191)"/>
<path d="M3.612 50.3666C5.60685 50.3666 7.224 48.7494 7.224 46.7546C7.224 44.7597 5.60685 43.1426 3.612 43.1426C1.61715 43.1426 0 44.7597 0 46.7546C0 48.7494 1.61715 50.3666 3.612 50.3666Z" fill="url(#paint5_linear_533_3191)"/>
<path d="M16.4548 103.625C18.0371 103.625 19.3198 102.342 19.3198 100.76C19.3198 99.1772 18.0371 97.8945 16.4548 97.8945C14.8725 97.8945 13.5898 99.1772 13.5898 100.76C13.5898 102.342 14.8725 103.625 16.4548 103.625Z" fill="url(#paint6_linear_533_3191)"/>
<path d="M274.827 114.472C276.595 114.472 278.028 113.039 278.028 111.271C278.028 109.503 276.595 108.07 274.827 108.07C273.059 108.07 271.626 109.503 271.626 111.271C271.626 113.039 273.059 114.472 274.827 114.472Z" fill="url(#paint7_linear_533_3191)"/>
<path d="M225.455 22.482C227.037 22.482 228.32 21.1992 228.32 19.617C228.32 18.0347 227.037 16.752 225.455 16.752C223.873 16.752 222.59 18.0347 222.59 19.617C222.59 21.1992 223.873 22.482 225.455 22.482Z" fill="url(#paint8_linear_533_3191)"/>
<path d="M155.652 136.157L151.109 146.169H151.103L149.198 150.369L146.431 156.469V156.475H152.594V156.469L154.415 152.438L154.836 151.518L157.259 146.172L161.814 136.159L180.014 118.086V111.975L155.652 136.157Z" fill="url(#paint9_linear_533_3191)"/>
<path d="M87.2363 56.7305V156.73H96.3003V65.2305H160.578V56.7305H87.2363Z" fill="url(#paint10_linear_533_3191)"/>
<path d="M70.9473 41.9004V141.9H80.0113V50.4004H144.289V41.9004H70.9473Z" fill="url(#paint11_linear_533_3191)"/>
<path d="M180.702 118.773C180.793 118.683 180.866 118.575 180.915 118.457C180.964 118.338 180.989 118.211 180.989 118.083V65.2298C180.989 64.972 180.887 64.7248 180.705 64.5425C180.522 64.3602 180.275 64.2578 180.017 64.2578H96.2972C96.0394 64.2578 95.7922 64.3602 95.6099 64.5425C95.4276 64.7248 95.3252 64.972 95.3252 65.2298V175.597C95.3252 175.855 95.4276 176.102 95.6099 176.284C95.7922 176.466 96.0394 176.569 96.2972 176.569H180.017C180.275 176.569 180.522 176.466 180.704 176.284C180.886 176.102 180.989 175.855 180.989 175.597V140.311C180.989 140.119 180.932 139.931 180.826 139.771C180.72 139.612 180.568 139.487 180.391 139.413C180.214 139.339 180.018 139.32 179.83 139.357C179.642 139.394 179.468 139.486 179.332 139.621L172.38 146.521L154.54 154.621L162.625 136.721L180.702 118.773ZM160.928 135.758L151.707 156.171C151.626 156.351 151.602 156.551 151.638 156.746C151.674 156.94 151.768 157.118 151.908 157.258C152.048 157.397 152.226 157.491 152.421 157.526C152.615 157.562 152.815 157.537 152.995 157.456L173.343 148.222C173.449 148.173 173.545 148.105 173.626 148.022L179.046 142.641V174.62H97.2692V66.1968H179.045V117.674L161.128 135.468C161.044 135.551 160.977 135.65 160.928 135.758Z" fill="#F6F2ED"/>
<path d="M163.817 48.627H80.1038C79.846 48.627 79.5988 48.7294 79.4165 48.9116C79.2342 49.0939 79.1318 49.3412 79.1318 49.599V159.967C79.1318 160.225 79.2342 160.472 79.4165 160.654C79.5988 160.837 79.846 160.939 80.1038 160.939H96.2978C96.4255 160.939 96.5519 160.914 96.6698 160.865C96.7877 160.816 96.8949 160.745 96.9851 160.654C97.0754 160.564 97.147 160.457 97.1958 160.339C97.2447 160.221 97.2698 160.095 97.2698 159.967V66.202H163.817C164.075 66.202 164.322 66.0995 164.504 65.9173C164.686 65.735 164.789 65.4877 164.789 65.2299V49.599C164.789 49.3412 164.686 49.0939 164.504 48.9116C164.322 48.7294 164.075 48.627 163.817 48.627ZM162.845 64.2579H96.2978C96.04 64.2579 95.7928 64.3604 95.6105 64.5426C95.4282 64.7249 95.3258 64.9722 95.3258 65.2299V158.995H81.0758V50.571H162.845V64.2579Z" fill="#F6F2ED"/>
<path d="M147.6 33H63.887C63.6292 33 63.382 33.1024 63.1997 33.2847C63.0174 33.467 62.915 33.7142 62.915 33.972V144.339C62.915 144.597 63.0174 144.844 63.1997 145.026C63.382 145.209 63.6292 145.311 63.887 145.311H80.081C80.3388 145.311 80.5861 145.209 80.7683 145.026C80.9506 144.844 81.053 144.597 81.053 144.339V50.574H147.6C147.858 50.574 148.105 50.4716 148.287 50.2893C148.47 50.107 148.572 49.8598 148.572 49.602V33.972C148.572 33.7142 148.47 33.467 148.287 33.2847C148.105 33.1024 147.858 33 147.6 33ZM146.628 48.63H80.081C79.8232 48.63 79.576 48.7324 79.3937 48.9147C79.2114 49.097 79.109 49.3442 79.109 49.602V143.367H64.864V34.944H146.633V48.63H146.628Z" fill="#F6F2ED"/>
<path d="M143.31 146.695C144.474 146.477 145.515 145.833 146.229 144.888C146.943 143.943 147.278 142.766 147.169 141.587C147.06 140.407 146.515 139.311 145.641 138.513C144.766 137.714 143.625 137.271 142.441 137.27H140.455V130.127H137.627V137.269H135.835V130.127H132.998V137.269H127.251V140.325H129.374C129.55 140.296 129.73 140.31 129.9 140.364C130.07 140.417 130.225 140.51 130.352 140.635C130.479 140.76 130.576 140.912 130.633 141.081C130.691 141.25 130.708 141.429 130.683 141.606V154.033C130.707 154.21 130.69 154.39 130.633 154.559C130.575 154.728 130.479 154.881 130.352 155.006C130.225 155.132 130.07 155.226 129.901 155.281C129.731 155.336 129.55 155.35 129.374 155.323H127.251V158.38H132.998V165.044H135.835V158.335H137.629V165.044H140.457V158.335H143.248C144.792 158.343 146.276 157.738 147.373 156.653C148.471 155.567 149.092 154.09 149.1 152.546C149.109 151.003 148.504 149.519 147.418 148.421C146.333 147.324 144.856 146.702 143.312 146.694L143.31 146.695ZM135.835 140.517H138.965C139.708 140.517 140.42 140.812 140.945 141.337C141.47 141.862 141.765 142.574 141.765 143.317C141.765 144.06 141.47 144.772 140.945 145.297C140.42 145.822 139.708 146.117 138.965 146.117H135.835V140.517ZM142.387 154.198C142.105 154.48 141.769 154.704 141.4 154.857C141.031 155.009 140.635 155.087 140.236 155.086H135.836V149.01H140.236C140.837 149.01 141.424 149.189 141.924 149.523C142.424 149.857 142.813 150.331 143.044 150.886C143.274 151.442 143.334 152.053 143.217 152.642C143.1 153.232 142.812 153.774 142.387 154.199V154.198Z" fill="#F6F2ED"/>
<path d="M161.182 148.636C160.08 147.526 158.74 146.682 157.263 146.168L152.594 156.468L163.273 151.668C162.765 150.539 162.057 149.511 161.182 148.636Z" fill="url(#paint12_linear_533_3191)"/>
<path d="M201.978 118.506L190.85 107.326C190.667 107.145 190.42 107.043 190.163 107.043C189.905 107.043 189.658 107.145 189.476 107.326L161.129 135.466C161.038 135.556 160.966 135.663 160.917 135.781C160.867 135.899 160.842 136.025 160.842 136.153C160.841 136.411 160.943 136.659 161.125 136.842L172.252 148.021C172.434 148.203 172.681 148.306 172.939 148.306C173.196 148.306 173.444 148.203 173.626 148.021L201.974 119.878C202.064 119.788 202.136 119.681 202.185 119.563C202.234 119.445 202.259 119.318 202.259 119.191C202.259 119.063 202.234 118.936 202.185 118.819C202.136 118.701 202.064 118.593 201.974 118.503L201.978 118.506ZM172.945 145.962L163.19 136.162L190.157 109.388L199.913 119.188L172.945 145.962Z" fill="#F6F2ED"/>
<path d="M190.148 114.447L168.248 136.171L172.956 140.901L194.856 119.177L190.148 114.447Z" fill="url(#paint13_linear_533_3191)"/>
<path d="M206.499 106.082L203.299 102.863C202.064 101.628 200.391 100.932 198.645 100.928C196.898 100.924 195.222 101.612 193.982 102.842L189.482 107.324C189.3 107.506 189.197 107.754 189.197 108.011C189.197 108.269 189.3 108.517 189.482 108.699L200.61 119.879C200.792 120.061 201.039 120.164 201.297 120.165C201.554 120.165 201.8 120.063 201.983 119.882L206.483 115.4C207.721 114.167 208.419 112.493 208.423 110.745C208.427 108.998 207.737 107.32 206.504 106.082H206.499ZM205.105 114.022L201.291 117.822L191.534 108.022L195.348 104.222C196.221 103.354 197.404 102.869 198.635 102.872C199.866 102.874 201.046 103.365 201.916 104.237L205.116 107.456C205.983 108.329 206.47 109.51 206.468 110.741C206.465 111.972 205.975 113.152 205.105 114.022Z" fill="#F6F2ED"/>
<path d="M174.262 50.9338L174.794 52.8028C175.387 52.6348 175.994 52.4938 176.594 52.3848L176.247 50.4718C175.584 50.5928 174.915 50.7478 174.262 50.9338ZM170.474 52.4258L171.359 54.1568C171.907 53.8768 172.473 53.6218 173.044 53.3968L172.331 51.5878C171.702 51.8358 171.077 52.1158 170.474 52.4258ZM182.335 50.2608L182.124 52.1938C182.736 52.2598 183.351 52.3578 183.949 52.4828L184.349 50.5828C183.686 50.4418 183.009 50.3338 182.337 50.2608H182.335ZM178.267 50.2068L178.428 52.1448C178.954 52.1008 179.488 52.0788 180.016 52.0788H180.278L180.304 50.1348H180.015C179.437 50.1348 178.846 50.1588 178.267 50.2068ZM195.908 60.5608L197.523 59.4788C197.147 58.9158 196.738 58.3668 196.308 57.8438L194.808 59.0778C195.195 59.5518 195.566 60.0508 195.908 60.5608ZM199.138 71.0138L201.082 70.9948C201.076 70.3148 201.036 69.6308 200.965 68.9618L199.032 69.1668C199.096 69.7738 199.133 70.3958 199.138 71.0138ZM198.749 67.3388L200.649 66.9488C200.513 66.2848 200.342 65.6208 200.142 64.9738L198.285 65.5488C198.47 66.1348 198.625 66.7378 198.749 67.3398V67.3388ZM197.659 63.8108L199.452 63.0598C199.191 62.4368 198.896 61.8178 198.573 61.2208L196.862 62.1438C197.154 62.6868 197.422 63.2478 197.659 63.8118V63.8108ZM194.937 56.3338C194.46 55.8548 193.953 55.3928 193.432 54.9618L192.193 56.4618C192.667 56.8528 193.126 57.2728 193.56 57.7068L194.937 56.3338ZM196.107 81.5258L197.742 82.5768C198.109 82.0068 198.45 81.4138 198.759 80.8138L197.037 79.9268C196.755 80.4698 196.444 81.0088 196.112 81.5268L196.107 81.5258ZM197.795 78.2418L199.603 78.9598C199.852 78.3308 200.074 77.6828 200.26 77.0308L198.392 76.4938C198.226 77.0848 198.026 77.6728 197.799 78.2418H197.795ZM193.819 84.4258L195.219 85.7708C195.686 85.2828 196.135 84.7708 196.556 84.2358L195.037 83.0268C194.657 83.5138 194.248 83.9828 193.823 84.4268L193.819 84.4258ZM198.819 74.6948L200.731 75.0468C200.853 74.3808 200.945 73.7018 201.003 73.0288L199.067 72.8618C199.014 73.4728 198.931 74.0898 198.819 74.6958V74.6948ZM186.319 51.0948L185.74 52.9498C186.324 53.1328 186.908 53.3498 187.473 53.5868L188.233 51.7968C187.606 51.5268 186.962 51.2948 186.317 51.0928L186.319 51.0948ZM187.813 88.6638L188.605 90.4378C189.223 90.1618 189.835 89.8528 190.423 89.5178L189.462 87.8278C188.927 88.1268 188.372 88.4118 187.812 88.6618L187.813 88.6638ZM184.313 89.8358L184.747 91.7308C185.408 91.5798 186.069 91.3938 186.71 91.1788L186.091 89.3358C185.506 89.5268 184.907 89.6968 184.308 89.8338L184.313 89.8358ZM190.07 52.6838L189.142 54.3928C189.678 54.6838 190.21 55.0078 190.722 55.3528L191.811 53.7428C191.242 53.3598 190.657 53.0038 190.065 52.6818L190.07 52.6838ZM191.026 86.8368L192.146 88.4248C192.701 88.0348 193.246 87.6128 193.752 87.1728L192.484 85.6998C192.015 86.0968 191.524 86.4798 191.021 86.8348L191.026 86.8368Z" fill="url(#paint14_linear_533_3191)"/>
<path d="M61.4877 163.308L59.5547 163.094C59.4797 163.769 59.4377 164.453 59.4297 165.128L61.3737 165.152C61.3817 164.541 61.4207 163.921 61.4877 163.308ZM63.8977 178.392C64.3147 178.926 64.7637 179.445 65.2307 179.935L66.6367 178.594C66.2137 178.15 65.8067 177.68 65.4287 177.194L63.8977 178.392ZM63.4477 174.077L61.7137 174.956C62.0137 175.556 62.3567 176.156 62.7217 176.727L64.3637 175.685C64.0317 175.163 63.7247 174.622 63.4477 174.077ZM61.4387 166.999L59.5027 167.163C59.5597 167.838 59.6507 168.517 59.7717 169.182L61.6837 168.832C61.5737 168.229 61.4907 167.613 61.4387 166.999ZM62.2477 159.699L60.3937 159.117C60.1937 159.762 60.0177 160.425 59.8777 161.087L61.7777 161.487C61.9057 160.883 62.0637 160.282 62.2477 159.699ZM68.3717 150.625L67.1377 149.125C66.6147 149.555 66.1067 150.015 65.6277 150.493L66.9997 151.863C67.4357 151.429 67.8997 151.011 68.3717 150.621V150.625ZM65.7567 153.235L64.2567 151.999C63.8247 152.522 63.4147 153.072 63.0377 153.632L64.6497 154.718C64.9927 154.205 65.3647 153.706 65.7567 153.231V153.235ZM63.6897 156.299L61.9807 155.371C61.6577 155.966 61.3607 156.583 61.0967 157.206L62.8867 157.964C63.1267 157.399 63.3997 156.835 63.6897 156.299ZM62.0997 170.636L60.2287 171.166C60.4137 171.819 60.6287 172.466 60.8777 173.096L62.6887 172.389C62.4707 171.818 62.2717 171.229 62.0997 170.636ZM88.7567 182.671L89.5957 184.425C90.2077 184.132 90.8117 183.806 91.3887 183.456L90.3827 181.793C89.8637 182.11 89.3157 182.406 88.7607 182.671H88.7567ZM85.5417 183.871L85.2847 183.939L85.7717 185.821L86.0557 185.746C86.6147 185.593 87.1737 185.416 87.7167 185.217L87.0527 183.39C86.5637 183.567 86.0557 183.728 85.5467 183.867L85.5417 183.871ZM81.6347 184.518L81.7517 186.458C82.4247 186.417 83.1067 186.343 83.7777 186.236L83.4777 184.316C82.8677 184.41 82.2487 184.478 81.6397 184.515L81.6347 184.518ZM93.3347 179.587C92.8847 179.998 92.4057 180.394 91.9107 180.765L93.0757 182.322C93.6217 181.913 94.1497 181.477 94.6467 181.022L93.3347 179.587ZM66.6947 181.345C67.2047 181.785 67.7437 182.209 68.2947 182.602L69.4197 181.016C68.9197 180.659 68.4267 180.275 67.9637 179.874L66.6947 181.345ZM70.5117 146.857C69.9177 147.176 69.3297 147.529 68.7657 147.907L69.8457 149.523C70.3597 149.18 70.8927 148.859 71.4317 148.569L70.5117 146.857ZM70.0117 183.699C70.6017 184.037 71.2117 184.349 71.8257 184.626L72.6257 182.854C72.0697 182.603 71.5157 182.319 70.9787 182.011L70.0117 183.699ZM77.6767 186.308C78.3457 186.399 79.0297 186.457 79.7067 186.483L79.7787 184.54C79.1647 184.517 78.5447 184.464 77.9377 184.382L77.6767 186.308ZM73.7177 185.375C74.3577 185.593 75.0177 185.782 75.6747 185.938L76.1217 184.046C75.5217 183.905 74.9217 183.733 74.3447 183.535L73.7177 185.375Z" fill="url(#paint15_linear_533_3191)"/>
<path d="M41.7477 112.789H39.8037V116.199H41.7477V112.789Z" fill="url(#paint16_linear_533_3191)"/>
<path d="M41.7477 122.186H39.8037V125.596H41.7477V122.186Z" fill="url(#paint17_linear_533_3191)"/>
<path d="M47.1805 118.221H43.7705V120.165H47.1805V118.221Z" fill="url(#paint18_linear_533_3191)"/>
<path d="M37.784 118.221H34.374V120.165H37.784V118.221Z" fill="url(#paint19_linear_533_3191)"/>
<path d="M226.129 83.0586H224.185V86.4686H226.129V83.0586Z" fill="url(#paint20_linear_533_3191)"/>
<path d="M226.129 92.4551H224.185V95.8651H226.129V92.4551Z" fill="url(#paint21_linear_533_3191)"/>
<path d="M231.56 88.4902H228.15V90.4342H231.56V88.4902Z" fill="url(#paint22_linear_533_3191)"/>
<path d="M222.164 88.4902H218.754V90.4342H222.164V88.4902Z" fill="url(#paint23_linear_533_3191)"/>
<path d="M231.664 128.184C234.404 128.184 236.625 125.963 236.625 123.223C236.625 120.483 234.404 118.262 231.664 118.262C228.924 118.262 226.703 120.483 226.703 123.223C226.703 125.963 228.924 128.184 231.664 128.184Z" fill="url(#paint24_linear_533_3191)"/>
<path d="M218.754 154.144C219.97 154.144 220.956 153.158 220.956 151.942C220.956 150.726 219.97 149.74 218.754 149.74C217.538 149.74 216.552 150.726 216.552 151.942C216.552 153.158 217.538 154.144 218.754 154.144Z" fill="url(#paint25_linear_533_3191)"/>
<path d="M53.83 84.6073C55.4852 84.6073 56.827 83.2655 56.827 81.6103C56.827 79.9551 55.4852 78.6133 53.83 78.6133C52.1748 78.6133 50.833 79.9551 50.833 81.6103C50.833 83.2655 52.1748 84.6073 53.83 84.6073Z" fill="url(#paint26_linear_533_3191)"/>
<path d="M180.702 118.773C180.793 118.683 180.866 118.575 180.915 118.457C180.964 118.338 180.989 118.211 180.989 118.083V65.2298C180.989 64.972 180.887 64.7248 180.705 64.5425C180.522 64.3602 180.275 64.2578 180.017 64.2578H96.2972C96.0394 64.2578 95.7922 64.3602 95.6099 64.5425C95.4276 64.7248 95.3252 64.972 95.3252 65.2298V175.597C95.3252 175.855 95.4276 176.102 95.6099 176.284C95.7922 176.466 96.0394 176.569 96.2972 176.569H180.017C180.275 176.569 180.522 176.466 180.704 176.284C180.886 176.102 180.989 175.855 180.989 175.597V140.311C180.989 140.119 180.932 139.931 180.826 139.771C180.72 139.612 180.568 139.487 180.391 139.413C180.214 139.339 180.018 139.32 179.83 139.357C179.642 139.394 179.468 139.486 179.332 139.621L172.38 146.521L154.54 154.621L162.625 136.721L180.702 118.773ZM160.928 135.758L151.707 156.171C151.626 156.351 151.602 156.551 151.638 156.746C151.674 156.94 151.768 157.118 151.908 157.258C152.048 157.397 152.226 157.491 152.421 157.526C152.615 157.562 152.815 157.537 152.995 157.456L173.343 148.222C173.449 148.173 173.545 148.105 173.626 148.022L179.046 142.641V174.62H97.2692V66.1968H179.045V117.674L161.128 135.468C161.044 135.551 160.977 135.65 160.928 135.758Z" fill="#F6F2ED"/>
<path d="M134.366 76.9727H111.947C111.659 76.9727 111.383 77.0872 111.179 77.291C110.975 77.4949 110.86 77.7714 110.86 78.0597V84.8277C110.861 85.1158 110.975 85.392 111.179 85.5956C111.383 85.7993 111.659 85.9137 111.947 85.9137H134.366C134.655 85.9137 134.931 85.7991 135.135 85.5953C135.339 85.3914 135.453 85.115 135.453 84.8267V78.0587C135.453 77.7705 135.338 77.4943 135.135 77.2907C134.931 77.087 134.654 76.9727 134.366 76.9727ZM133.279 83.7397H113.034V79.1457H133.28L133.279 83.7397Z" fill="url(#paint27_linear_533_3191)"/>
<path d="M134.366 89.2031H111.947C111.659 89.2031 111.383 89.3176 111.179 89.5215C110.975 89.7254 110.86 90.0018 110.86 90.2901V97.0571C110.861 97.3452 110.975 97.6215 111.179 97.8251C111.383 98.0287 111.659 98.1431 111.947 98.1431H134.366C134.655 98.1431 134.931 98.0286 135.135 97.8248C135.339 97.6209 135.453 97.3444 135.453 97.0561V90.2891C135.453 90.001 135.338 89.7248 135.135 89.5211C134.931 89.3175 134.654 89.2031 134.366 89.2031ZM133.279 95.9701H113.034V91.3761H133.28L133.279 95.9701Z" fill="url(#paint28_linear_533_3191)"/>
<path d="M134.366 101.215H111.947C111.659 101.215 111.383 101.329 111.179 101.533C110.975 101.737 110.86 102.014 110.86 102.302V109.069C110.861 109.357 110.975 109.633 111.179 109.837C111.383 110.04 111.659 110.155 111.947 110.155H134.366C134.655 110.155 134.931 110.04 135.135 109.836C135.339 109.633 135.453 109.356 135.453 109.068V102.301C135.453 102.013 135.338 101.737 135.135 101.533C134.931 101.329 134.654 101.215 134.366 101.215ZM133.279 107.982H113.034V103.388H133.28L133.279 107.982Z" fill="url(#paint29_linear_533_3191)"/>
<path d="M134.366 113.445H111.947C111.659 113.445 111.383 113.56 111.179 113.764C110.975 113.968 110.86 114.244 110.86 114.532V121.3C110.861 121.588 110.975 121.865 111.179 122.068C111.383 122.272 111.659 122.386 111.947 122.386H134.366C134.655 122.386 134.931 122.272 135.135 122.068C135.339 121.864 135.453 121.588 135.453 121.299V114.531C135.453 114.243 135.338 113.967 135.135 113.763C134.931 113.56 134.654 113.445 134.366 113.445ZM133.279 120.212H113.034V115.618H133.28L133.279 120.212Z" fill="url(#paint30_linear_533_3191)"/>
<path d="M164.365 76.9727H141.946C141.658 76.9727 141.382 77.0872 141.178 77.291C140.974 77.4949 140.859 77.7714 140.859 78.0597V84.8277C140.86 85.1158 140.974 85.392 141.178 85.5956C141.382 85.7993 141.658 85.9137 141.946 85.9137H164.365C164.654 85.9137 164.93 85.7991 165.134 85.5953C165.338 85.3914 165.452 85.115 165.452 84.8267V78.0587C165.452 77.7705 165.337 77.4943 165.134 77.2907C164.93 77.087 164.653 76.9727 164.365 76.9727ZM163.278 83.7397H143.033V79.1457H163.279L163.278 83.7397Z" fill="url(#paint31_linear_533_3191)"/>
<path d="M164.365 89.2031H141.946C141.658 89.2031 141.382 89.3176 141.178 89.5215C140.974 89.7254 140.859 90.0018 140.859 90.2901V97.0571C140.86 97.3452 140.974 97.6215 141.178 97.8251C141.382 98.0287 141.658 98.1431 141.946 98.1431H164.365C164.654 98.1431 164.93 98.0286 165.134 97.8248C165.338 97.6209 165.452 97.3444 165.452 97.0561V90.2891C165.452 90.001 165.337 89.7248 165.134 89.5211C164.93 89.3175 164.653 89.2031 164.365 89.2031ZM163.278 95.9701H143.033V91.3761H163.279L163.278 95.9701Z" fill="url(#paint32_linear_533_3191)"/>
<path d="M164.365 101.215H141.946C141.658 101.215 141.382 101.329 141.178 101.533C140.974 101.737 140.859 102.014 140.859 102.302V109.069C140.86 109.357 140.974 109.633 141.178 109.837C141.382 110.04 141.658 110.155 141.946 110.155H164.365C164.654 110.155 164.93 110.04 165.134 109.836C165.338 109.633 165.452 109.356 165.452 109.068V102.301C165.452 102.013 165.337 101.737 165.134 101.533C164.93 101.329 164.653 101.215 164.365 101.215ZM163.278 107.982H143.033V103.388H163.279L163.278 107.982Z" fill="url(#paint33_linear_533_3191)"/>
<path d="M164.365 113.445H141.946C141.658 113.445 141.382 113.56 141.178 113.764C140.974 113.968 140.859 114.244 140.859 114.532V121.3C140.86 121.588 140.974 121.865 141.178 122.068C141.382 122.272 141.658 122.386 141.946 122.386H164.365C164.654 122.386 164.93 122.272 165.134 122.068C165.338 121.864 165.452 121.588 165.452 121.299V114.531C165.452 114.243 165.337 113.967 165.134 113.763C164.93 113.56 164.653 113.445 164.365 113.445ZM163.278 120.212H143.033V115.618H163.279L163.278 120.212Z" fill="url(#paint34_linear_533_3191)"/>
<defs>
<linearGradient id="paint0_linear_533_3191" x1="254.084" y1="94.274" x2="272.754" y2="102.651" gradientUnits="userSpaceOnUse">
<stop stop-color="#A58969"/>
<stop offset="1" stop-color="#C7B664"/>
</linearGradient>
<linearGradient id="paint1_linear_533_3191" x1="53.188" y1="201.722" x2="56.4753" y2="202.482" gradientUnits="userSpaceOnUse">
<stop stop-color="#A58969"/>
<stop offset="1" stop-color="#C7B664"/>
</linearGradient>
<linearGradient id="paint2_linear_533_3191" x1="53.188" y1="211.464" x2="56.4753" y2="212.224" gradientUnits="userSpaceOnUse">
<stop stop-color="#A58969"/>
<stop offset="1" stop-color="#C7B664"/>
</linearGradient>
<linearGradient id="paint3_linear_533_3191" x1="57.1775" y1="207.369" x2="60.9999" y2="210.698" gradientUnits="userSpaceOnUse">
<stop stop-color="#A58969"/>
<stop offset="1" stop-color="#C7B664"/>
</linearGradient>
<linearGradient id="paint4_linear_533_3191" x1="47.4343" y1="207.369" x2="51.2568" y2="210.698" gradientUnits="userSpaceOnUse">
<stop stop-color="#A58969"/>
<stop offset="1" stop-color="#C7B664"/>
</linearGradient>
<linearGradient id="paint5_linear_533_3191" x1="-0.11029" y1="43.4837" x2="11.3192" y2="48.6118" gradientUnits="userSpaceOnUse">
<stop stop-color="#A58969"/>
<stop offset="1" stop-color="#C7B664"/>
</linearGradient>
<linearGradient id="paint6_linear_533_3191" x1="13.5024" y1="98.1651" x2="22.5681" y2="102.233" gradientUnits="userSpaceOnUse">
<stop stop-color="#A58969"/>
<stop offset="1" stop-color="#C7B664"/>
</linearGradient>
<linearGradient id="paint7_linear_533_3191" x1="271.528" y1="108.373" x2="281.657" y2="112.917" gradientUnits="userSpaceOnUse">
<stop stop-color="#A58969"/>
<stop offset="1" stop-color="#C7B664"/>
</linearGradient>
<linearGradient id="paint8_linear_533_3191" x1="222.502" y1="17.0225" x2="231.568" y2="21.0901" gradientUnits="userSpaceOnUse">
<stop stop-color="#A58969"/>
<stop offset="1" stop-color="#C7B664"/>
</linearGradient>
<linearGradient id="paint9_linear_533_3191" x1="145.918" y1="114.076" x2="203.182" y2="133.466" gradientUnits="userSpaceOnUse">
<stop stop-color="#A58969"/>
<stop offset="1" stop-color="#C7B664"/>
</linearGradient>
<linearGradient id="paint10_linear_533_3191" x1="86.1166" y1="61.4527" x2="211.894" y2="102.842" gradientUnits="userSpaceOnUse">
<stop stop-color="#A58969"/>
<stop offset="1" stop-color="#C7B664"/>
</linearGradient>
<linearGradient id="paint11_linear_533_3191" x1="69.8275" y1="46.6226" x2="195.605" y2="88.012" gradientUnits="userSpaceOnUse">
<stop stop-color="#A58969"/>
<stop offset="1" stop-color="#C7B664"/>
</linearGradient>
<linearGradient id="paint12_linear_533_3191" x1="152.431" y1="146.654" x2="169.117" y2="154.417" gradientUnits="userSpaceOnUse">
<stop stop-color="#A58969"/>
<stop offset="1" stop-color="#C7B664"/>
</linearGradient>
<linearGradient id="paint13_linear_533_3191" x1="167.842" y1="115.696" x2="209.857" y2="134.658" gradientUnits="userSpaceOnUse">
<stop stop-color="#A58969"/>
<stop offset="1" stop-color="#C7B664"/>
</linearGradient>
<linearGradient id="paint14_linear_533_3191" x1="170.006" y1="52.099" x2="222.464" y2="69.418" gradientUnits="userSpaceOnUse">
<stop stop-color="#A58969"/>
<stop offset="1" stop-color="#C7B664"/>
</linearGradient>
<linearGradient id="paint15_linear_533_3191" x1="58.892" y1="148.729" x2="116.644" y2="171.758" gradientUnits="userSpaceOnUse">
<stop stop-color="#A58969"/>
<stop offset="1" stop-color="#C7B664"/>
</linearGradient>
<linearGradient id="paint16_linear_533_3191" x1="39.774" y1="112.95" x2="43.242" y2="113.837" gradientUnits="userSpaceOnUse">
<stop stop-color="#A58969"/>
<stop offset="1" stop-color="#C7B664"/>
</linearGradient>
<linearGradient id="paint17_linear_533_3191" x1="39.774" y1="122.347" x2="43.242" y2="123.234" gradientUnits="userSpaceOnUse">
<stop stop-color="#A58969"/>
<stop offset="1" stop-color="#C7B664"/>
</linearGradient>
<linearGradient id="paint18_linear_533_3191" x1="43.7184" y1="118.313" x2="47.7206" y2="121.462" gradientUnits="userSpaceOnUse">
<stop stop-color="#A58969"/>
<stop offset="1" stop-color="#C7B664"/>
</linearGradient>
<linearGradient id="paint19_linear_533_3191" x1="34.322" y1="118.313" x2="38.3242" y2="121.462" gradientUnits="userSpaceOnUse">
<stop stop-color="#A58969"/>
<stop offset="1" stop-color="#C7B664"/>
</linearGradient>
<linearGradient id="paint20_linear_533_3191" x1="224.155" y1="83.2196" x2="227.623" y2="84.1067" gradientUnits="userSpaceOnUse">
<stop stop-color="#A58969"/>
<stop offset="1" stop-color="#C7B664"/>
</linearGradient>
<linearGradient id="paint21_linear_533_3191" x1="224.155" y1="92.6161" x2="227.623" y2="93.5032" gradientUnits="userSpaceOnUse">
<stop stop-color="#A58969"/>
<stop offset="1" stop-color="#C7B664"/>
</linearGradient>
<linearGradient id="paint22_linear_533_3191" x1="228.098" y1="88.582" x2="232.101" y2="91.7319" gradientUnits="userSpaceOnUse">
<stop stop-color="#A58969"/>
<stop offset="1" stop-color="#C7B664"/>
</linearGradient>
<linearGradient id="paint23_linear_533_3191" x1="218.702" y1="88.582" x2="222.704" y2="91.7319" gradientUnits="userSpaceOnUse">
<stop stop-color="#A58969"/>
<stop offset="1" stop-color="#C7B664"/>
</linearGradient>
<linearGradient id="paint24_linear_533_3191" x1="226.552" y1="118.73" x2="242.25" y2="125.774" gradientUnits="userSpaceOnUse">
<stop stop-color="#A58969"/>
<stop offset="1" stop-color="#C7B664"/>
</linearGradient>
<linearGradient id="paint25_linear_533_3191" x1="216.485" y1="149.948" x2="223.452" y2="153.074" gradientUnits="userSpaceOnUse">
<stop stop-color="#A58969"/>
<stop offset="1" stop-color="#C7B664"/>
</linearGradient>
<linearGradient id="paint26_linear_533_3191" x1="50.7415" y1="78.8963" x2="60.2249" y2="83.1513" gradientUnits="userSpaceOnUse">
<stop stop-color="#A58969"/>
<stop offset="1" stop-color="#C7B664"/>
</linearGradient>
<linearGradient id="paint27_linear_533_3191" x1="110.485" y1="77.3949" x2="129.011" y2="100.258" gradientUnits="userSpaceOnUse">
<stop stop-color="#A58969"/>
<stop offset="1" stop-color="#C7B664"/>
</linearGradient>
<linearGradient id="paint28_linear_533_3191" x1="110.485" y1="89.6253" x2="129.009" y2="112.488" gradientUnits="userSpaceOnUse">
<stop stop-color="#A58969"/>
<stop offset="1" stop-color="#C7B664"/>
</linearGradient>
<linearGradient id="paint29_linear_533_3191" x1="110.485" y1="101.637" x2="129.009" y2="124.5" gradientUnits="userSpaceOnUse">
<stop stop-color="#A58969"/>
<stop offset="1" stop-color="#C7B664"/>
</linearGradient>
<linearGradient id="paint30_linear_533_3191" x1="110.485" y1="113.868" x2="129.011" y2="136.731" gradientUnits="userSpaceOnUse">
<stop stop-color="#A58969"/>
<stop offset="1" stop-color="#C7B664"/>
</linearGradient>
<linearGradient id="paint31_linear_533_3191" x1="140.484" y1="77.3949" x2="159.01" y2="100.258" gradientUnits="userSpaceOnUse">
<stop stop-color="#A58969"/>
<stop offset="1" stop-color="#C7B664"/>
</linearGradient>
<linearGradient id="paint32_linear_533_3191" x1="140.484" y1="89.6253" x2="159.008" y2="112.488" gradientUnits="userSpaceOnUse">
<stop stop-color="#A58969"/>
<stop offset="1" stop-color="#C7B664"/>
</linearGradient>
<linearGradient id="paint33_linear_533_3191" x1="140.484" y1="101.637" x2="159.008" y2="124.5" gradientUnits="userSpaceOnUse">
<stop stop-color="#A58969"/>
<stop offset="1" stop-color="#C7B664"/>
</linearGradient>
<linearGradient id="paint34_linear_533_3191" x1="140.484" y1="113.868" x2="159.01" y2="136.731" gradientUnits="userSpaceOnUse">
<stop stop-color="#A58969"/>
<stop offset="1" stop-color="#C7B664"/>
</linearGradient>
</defs>
</svg>
