<svg width="288" height="250" viewBox="0 0 288 250" fill="none" xmlns="http://www.w3.org/2000/svg">
<path d="M153.748 234.547C218.517 234.547 271.022 182.042 271.022 117.274C271.022 52.5052 218.517 0 153.748 0C88.9798 0 36.4746 52.5052 36.4746 117.274C36.4746 182.042 88.9798 234.547 153.748 234.547Z" fill="#C3B075" fill-opacity="0.03"/>
<path d="M64.0524 234.549H61.9321V238.664H64.0524V234.549Z" fill="url(#paint0_linear_533_5002)"/>
<path d="M64.0463 245.887H61.926V250.002H64.0463V245.887Z" fill="url(#paint1_linear_533_5002)"/>
<path d="M70.7161 241.215H66.6013V243.335H70.7161V241.215Z" fill="url(#paint2_linear_533_5002)"/>
<path d="M59.377 241.215H55.2622V243.335H59.377V241.215Z" fill="url(#paint3_linear_533_5002)"/>
<path d="M4.20327 58.6116C6.52467 58.6116 8.40654 56.7297 8.40654 54.4083C8.40654 52.0869 6.52467 50.2051 4.20327 50.2051C1.88187 50.2051 0 52.0869 0 54.4083C0 56.7297 1.88187 58.6116 4.20327 58.6116Z" fill="url(#paint4_linear_533_5002)"/>
<path d="M283.736 137.866C285.793 137.866 287.461 136.198 287.461 134.141C287.461 132.084 285.793 130.416 283.736 130.416C281.679 130.416 280.011 132.084 280.011 134.141C280.011 136.198 281.679 137.866 283.736 137.866Z" fill="url(#paint5_linear_533_5002)"/>
<path d="M137.306 191.221H99.6283C99.4414 191.221 99.2563 191.257 99.0837 191.329C98.911 191.401 98.7541 191.505 98.6219 191.638C98.4898 191.77 98.385 191.927 98.3134 192.099C98.2419 192.272 98.2051 192.457 98.2051 192.644C98.1961 198.148 100.269 203.451 104.007 207.49C107.745 211.53 112.872 214.006 118.36 214.422C118.395 214.422 118.431 214.422 118.467 214.422C118.503 214.422 118.54 214.422 118.574 214.422C124.062 214.006 129.189 211.529 132.927 207.49C136.665 203.451 138.738 198.147 138.728 192.644C138.728 192.267 138.579 191.905 138.312 191.638C138.045 191.371 137.684 191.221 137.306 191.221ZM130.324 206.088C127.141 209.259 122.94 211.203 118.463 211.577C113.956 211.21 109.728 209.243 106.544 206.032C103.36 202.821 101.428 198.577 101.098 194.067H135.834C135.501 198.605 133.548 202.871 130.33 206.088H130.324Z" fill="url(#paint6_linear_533_5002)"/>
<path d="M105.403 197.611C106.163 199.857 107.428 201.898 109.102 203.576C110.133 204.602 111.303 205.478 112.576 206.181C114.378 207.18 116.404 207.704 118.464 207.704C120.524 207.704 122.55 207.18 124.352 206.181C127.737 204.326 130.3 201.265 131.529 197.605L105.403 197.611Z" fill="url(#paint7_linear_533_5002)"/>
<path d="M246.721 88.2626C244.692 86.2327 242.282 84.6235 239.629 83.5273C236.976 82.4312 234.133 81.8697 231.263 81.875H156.153C155.786 81.877 155.434 82.0206 155.17 82.2758C154.907 82.531 154.752 82.878 154.738 83.2446C154.724 83.6112 154.853 83.969 155.096 84.2433C155.34 84.5176 155.68 84.6872 156.046 84.7168C160.819 85.1087 165.27 87.2808 168.516 90.8022C171.762 94.3235 173.566 98.9365 173.568 103.726C173.568 103.913 173.605 104.098 173.677 104.27C173.748 104.443 173.853 104.6 173.985 104.732C174.117 104.864 174.274 104.969 174.447 105.041C174.62 105.112 174.805 105.149 174.992 105.149H251.692C252.069 105.149 252.431 104.999 252.698 104.732C252.965 104.465 253.115 104.103 253.115 103.726C253.12 100.854 252.558 98.0098 251.461 95.3561C250.363 92.7024 248.753 90.2917 246.721 88.2626ZM176.371 102.303C176.035 97.0057 173.778 92.0133 170.023 88.2626C168.639 86.8866 167.083 85.6958 165.393 84.7203H231.264C236.061 84.7113 240.684 86.5201 244.2 89.7824C247.717 93.0448 249.867 97.5184 250.218 102.303H176.371Z" fill="#F6F2ED"/>
<path d="M214.006 102.264H176.367C176.012 97.0219 173.788 92.081 170.098 88.3395C166.409 84.598 161.5 82.3043 156.263 81.8752C156.192 81.8697 156.12 81.8697 156.048 81.8752C150.565 82.3216 145.449 84.8114 141.715 88.8512C137.981 92.8911 135.9 98.1862 135.886 103.688V192.65C135.891 195.19 135.384 197.704 134.395 200.044C133.041 203.255 130.828 206.031 128 208.067C125.172 210.103 121.838 211.321 118.363 211.587C117.994 211.612 117.651 211.78 117.404 212.055C117.157 212.33 117.027 212.69 117.041 213.059C117.055 213.428 117.212 213.777 117.478 214.032C117.745 214.287 118.101 214.429 118.47 214.427L193.584 214.493C195.488 214.496 197.383 214.247 199.221 213.752C199.568 213.658 199.867 213.436 200.057 213.13C200.247 212.825 200.314 212.459 200.245 212.106C199.259 207.009 200.157 201.728 202.771 197.243C205.385 192.758 209.538 189.374 214.458 187.72C214.742 187.626 214.988 187.444 215.162 187.202C215.337 186.96 215.43 186.669 215.43 186.37V103.688C215.43 103.501 215.393 103.315 215.322 103.143C215.25 102.97 215.145 102.813 215.013 102.681C214.881 102.549 214.724 102.444 214.551 102.372C214.378 102.301 214.193 102.264 214.006 102.264ZM212.583 185.368C207.476 187.329 203.182 190.956 200.394 195.662C197.606 200.367 196.488 205.877 197.222 211.297C196.022 211.531 194.802 211.648 193.579 211.646L127.762 211.588C131.907 209.218 135.157 205.55 137.01 201.149C138.148 198.459 138.731 195.567 138.725 192.646V103.69C138.739 98.9243 140.535 94.3362 143.759 90.8266C146.982 87.317 151.402 85.1395 156.149 84.7216C160.895 85.1419 165.312 87.3205 168.534 90.8298C171.756 94.3391 173.55 98.9258 173.564 103.69C173.564 103.877 173.601 104.061 173.673 104.234C173.744 104.406 173.849 104.563 173.981 104.695C174.113 104.827 174.27 104.932 174.443 105.003C174.615 105.074 174.8 105.111 174.987 105.111H212.574L212.583 185.368Z" fill="#F6F2ED"/>
<path d="M170.031 108.655L170.023 103.698C170.025 99.6095 168.404 95.6875 165.517 92.7929C163.003 90.2621 159.698 88.6697 156.152 88.2812C152.349 88.6944 148.832 90.4944 146.272 93.337C143.713 96.1797 142.29 99.8658 142.277 103.691V125.004H209.039V108.655H170.032H170.031Z" fill="url(#paint8_linear_533_5002)"/>
<path d="M85.3649 129.947H56.4017C56.0243 129.947 55.6623 130.097 55.3954 130.364C55.1285 130.631 54.9785 130.993 54.9785 131.37C54.9717 135.684 56.5958 139.84 59.5252 143.006C62.4546 146.171 66.4726 148.112 70.7734 148.44C70.8083 148.44 70.8444 148.44 70.8804 148.44C70.9165 148.44 70.9526 148.44 70.9875 148.44C75.2886 148.113 79.3072 146.172 82.2371 143.006C85.167 139.841 86.7915 135.684 86.7847 131.37C86.7847 130.994 86.6352 130.632 86.369 130.365C86.1029 130.099 85.7418 129.948 85.3649 129.947ZM79.7711 141.468C77.3852 143.844 74.2388 145.304 70.8839 145.591C67.5633 145.314 64.4448 143.881 62.0714 141.543C59.6981 139.204 58.2201 136.106 57.8948 132.79H83.8731C83.5507 136.071 82.1006 139.139 79.7699 141.471L79.7711 141.468Z" fill="url(#paint9_linear_533_5002)"/>
<path d="M62.5791 136.334C63.3889 137.894 64.5707 139.23 66.0199 140.225C67.4691 141.219 69.141 141.842 70.8879 142.036C72.6349 141.843 74.3071 141.221 75.7562 140.227C77.2052 139.232 78.3862 137.895 79.1943 136.334H62.5791Z" fill="url(#paint10_linear_533_5002)"/>
<path d="M169.701 43.2676C168.111 41.6771 166.222 40.4163 164.143 39.5576C162.065 38.6989 159.837 38.2592 157.588 38.2637H99.8501C99.4832 38.2657 99.1313 38.4092 98.8678 38.6644C98.6042 38.9196 98.4494 39.2667 98.4356 39.6333C98.4218 39.9999 98.5501 40.3577 98.7937 40.6319C99.0373 40.9062 99.3774 41.0759 99.743 41.1054C103.328 41.4016 106.671 43.0337 109.109 45.6783C111.547 48.3228 112.903 51.7869 112.908 55.384C112.908 55.7614 113.058 56.1234 113.325 56.3903C113.592 56.6572 113.954 56.8072 114.331 56.8072H173.29C173.667 56.8072 174.029 56.6572 174.296 56.3903C174.563 56.1234 174.713 55.7614 174.713 55.384C174.716 53.1338 174.276 50.9052 173.415 48.8259C172.555 46.7466 171.293 44.8577 169.701 43.2676ZM115.696 53.9643C115.366 49.9236 113.61 46.132 110.741 43.2676C109.934 42.4645 109.051 41.7412 108.104 41.1078H157.588C161.131 41.1017 164.549 42.4153 167.176 44.7923C169.803 47.1694 171.451 50.4396 171.798 53.9654L115.696 53.9643Z" fill="#F6F2ED"/>
<path d="M144.316 53.9357H115.689C115.388 50.4172 114.012 47.0766 111.747 44.3672C109.482 41.6577 106.438 39.7107 103.029 38.7902C102.022 38.5141 100.99 38.3364 99.9488 38.2596C99.8803 38.2546 99.8114 38.2546 99.7429 38.2596C98.2574 38.3713 96.794 38.6845 95.393 39.1905C95.1961 39.2615 95.0174 39.3749 94.8694 39.5229C94.7215 39.6708 94.6081 39.8496 94.5371 40.0464C94.4662 40.2433 94.4396 40.4533 94.4592 40.6616C94.4788 40.8699 94.5441 41.0713 94.6505 41.2514C96.2139 43.9186 97.2006 46.8839 97.5469 49.9561C97.8931 53.0282 97.5913 56.1388 96.6608 59.087C95.7304 62.0352 94.1919 64.7556 92.1449 67.0724C90.0979 69.3891 87.5878 71.2509 84.7766 72.5374C84.5282 72.6504 84.3175 72.8325 84.1698 73.062C84.022 73.2914 83.9434 73.5585 83.9434 73.8314L83.9329 131.378C83.9376 133.282 83.5601 135.167 82.8227 136.921C82.1035 138.617 81.0693 140.162 79.775 141.474C77.3613 143.874 74.1716 145.337 70.7773 145.6C70.412 145.629 70.0721 145.799 69.8285 146.073C69.5848 146.346 69.4562 146.704 69.4694 147.07C69.4826 147.436 69.6366 147.783 69.8993 148.039C70.162 148.294 70.5132 148.439 70.8797 148.442L128.619 148.499C131.991 148.502 135.29 147.509 138.101 145.645C138.296 145.516 138.457 145.34 138.569 145.133C138.68 144.926 138.738 144.695 138.738 144.46V103.707C138.736 101.216 139.226 98.7498 140.178 96.4484C141.13 94.1469 142.526 92.0557 144.287 90.2942C144.596 89.9847 144.914 89.6949 145.248 89.4028C145.402 89.2693 145.525 89.1043 145.61 88.919C145.694 88.7337 145.738 88.5324 145.738 88.3287V55.3589C145.738 55.1721 145.701 54.987 145.63 54.8144C145.559 54.6417 145.454 54.4848 145.322 54.3526C145.19 54.2205 145.033 54.1156 144.86 54.0441C144.688 53.9725 144.503 53.9357 144.316 53.9357ZM142.893 87.691C142.683 87.883 142.476 88.0797 142.274 88.2822C140.249 90.307 138.643 92.7113 137.548 95.3575C136.453 98.0037 135.891 100.84 135.893 103.703V143.674C133.689 144.973 131.178 145.656 128.62 145.652L79.1885 145.603C81.9809 143.757 84.1591 141.119 85.4445 138.028C86.3296 135.923 86.7831 133.661 86.7781 131.377L86.7886 74.7251C92.6701 71.7658 97.1442 66.6026 99.2366 60.3599C101.329 54.1172 100.87 47.3006 97.9601 41.3946C98.5826 41.2517 99.2146 41.1533 99.8511 41.1002C100.673 41.1682 101.488 41.3124 102.283 41.5307C105.186 42.3147 107.769 43.9898 109.669 46.32C111.569 48.6502 112.689 51.5178 112.873 54.5187C112.889 54.7934 112.897 55.0773 112.897 55.3519C112.897 55.7294 113.047 56.0914 113.314 56.3583C113.581 56.6252 113.943 56.7751 114.32 56.7751H142.89V87.6864L142.893 87.691Z" fill="#F6F2ED"/>
<path d="M108.78 219.211C102.855 220.241 96.7769 219.964 90.9704 218.399C85.164 216.833 79.77 214.018 75.1659 210.149C70.5619 206.28 66.8592 201.451 64.3171 196.001C61.7751 190.551 60.455 184.612 60.4495 178.598C60.4358 172.763 61.6706 166.993 64.0709 161.675L61.477 160.506C58.4607 167.219 57.1726 174.58 57.7303 181.918C58.2879 189.256 60.6736 196.338 64.6696 202.518C68.6657 208.698 74.1452 213.779 80.6084 217.298C87.0716 220.818 94.3129 222.663 101.672 222.667C104.218 222.667 106.758 222.449 109.267 222.015L108.78 219.211Z" fill="#F6F2ED"/>
<path d="M175.444 25.6016C169.432 25.5915 163.482 26.8194 157.966 29.2091L159.096 31.8216C165.369 29.118 172.215 28.0146 179.02 28.6105C185.824 29.2065 192.375 31.483 198.082 35.2359C203.79 38.9887 208.476 44.1002 211.72 50.1116C214.964 56.1229 216.664 62.8458 216.668 69.6766H219.513C219.502 57.9918 214.855 46.7888 206.593 38.5259C198.331 30.2629 187.129 25.6149 175.444 25.6016Z" fill="#F6F2ED"/>
<path d="M64.0495 160.457C63.9632 160.283 63.8422 160.128 63.6938 160.003C63.5454 159.877 63.3729 159.783 63.1868 159.727C63.0008 159.671 62.8052 159.653 62.6121 159.675C62.419 159.698 62.2325 159.759 62.0642 159.856L48.3093 167.785L49.7302 170.249L62.1724 163.078L68.297 175.422L70.8466 174.158L64.0495 160.457Z" fill="#F6F2ED"/>
<path d="M226.324 56.832L218.024 67.7103L207.264 59.0186L205.477 61.2296L217.374 70.8406C217.627 71.045 217.943 71.1567 218.268 71.1571C218.325 71.1571 218.381 71.1536 218.438 71.1467C218.627 71.1238 218.809 71.0634 218.974 70.969C219.139 70.8747 219.283 70.7484 219.399 70.5974L228.592 58.5566L226.324 56.832Z" fill="#F6F2ED"/>
<path d="M75.5832 27.4902C70.6486 27.4902 65.8248 28.9535 61.7218 31.6951C57.6188 34.4366 54.421 38.3333 52.5326 42.8923C50.6443 47.4513 50.1503 52.4679 51.113 57.3077C52.0758 62.1475 54.4522 66.5931 57.9415 70.0823C61.4309 73.5715 65.8766 75.9477 70.7165 76.9102C75.5563 77.8728 80.5729 77.3785 85.1318 75.49C89.6907 73.6014 93.5872 70.4034 96.3286 66.3003C99.07 62.1972 100.533 57.3733 100.533 52.4387C100.525 45.8241 97.894 39.4827 93.2167 34.8056C88.5393 30.1285 82.1978 27.4976 75.5832 27.4902ZM75.5832 74.5431C71.2114 74.5431 66.9377 73.2467 63.3026 70.8178C59.6676 68.389 56.8344 64.9367 55.1614 60.8977C53.4884 56.8586 53.0506 52.4142 53.9035 48.1263C54.7564 43.8385 56.8617 39.8999 59.953 36.8085C63.0444 33.7172 66.983 31.6119 71.2708 30.759C75.5587 29.9061 80.0031 30.3439 84.0422 32.0169C88.0812 33.6899 91.5335 36.5231 93.9623 40.1582C96.3912 43.7932 97.6876 48.0669 97.6876 52.4387C97.6811 58.2992 95.3502 63.9177 91.2062 68.0617C87.0622 72.2057 81.4437 74.5366 75.5832 74.5431Z" fill="url(#paint11_linear_533_5002)"/>
<path d="M60.6998 59.7148L58.1396 60.9646C58.5904 61.8831 59.1126 62.7648 59.7013 63.6015L62.0287 61.9642C61.5271 61.2506 61.0828 60.4984 60.6998 59.7148ZM59.2824 49.5068L56.4814 49.0053C56.3016 50.0129 56.2012 51.0331 56.1812 52.0565L59.0264 52.1112C59.0424 51.2378 59.1268 50.367 59.2789 49.5068H59.2824ZM61.0012 44.5821L58.4981 43.2299C58.011 44.1318 57.5966 45.0712 57.2587 46.039L59.9445 46.9758C60.2318 46.1513 60.584 45.3509 60.9977 44.5821H61.0012ZM59.18 54.7272L56.3604 55.1147C56.5002 56.1294 56.7205 57.1314 57.019 58.1112L59.7409 57.2827C59.4852 56.4472 59.2964 55.5926 59.1765 54.7272H59.18ZM90.63 45.4618L93.2111 44.2621C92.7776 43.3343 92.2718 42.4421 91.6983 41.5937L89.3407 43.1857C89.8285 43.9094 90.2585 44.6705 90.6265 45.4618H90.63ZM64.1722 40.4347L62.2126 38.3738C61.471 39.0795 60.7862 39.8425 60.1645 40.6558L62.4244 42.3839C62.9542 41.6897 63.5375 41.038 64.1688 40.4347H64.1722ZM61.6587 65.965C62.3714 66.6991 63.1406 67.3761 63.9593 67.9898L65.6653 65.7136C64.966 65.1889 64.3088 64.6104 63.6998 63.9832L61.6587 65.965ZM92.0497 50.4797L94.8752 50.1445C94.7547 49.128 94.5543 48.1226 94.2759 47.1376L91.5377 47.9137C91.7761 48.7542 91.9465 49.6122 92.0497 50.4797ZM84.9675 35.4343C84.0713 34.9393 83.1375 34.516 82.1746 34.1682L81.2099 36.8447C82.0323 37.1413 82.83 37.5024 83.5955 37.9246L84.9675 35.4343ZM89.7887 39.1942C89.09 38.4466 88.3341 37.7548 87.5276 37.1251L85.7821 39.3687C86.4712 39.9074 87.1174 40.4988 87.715 41.1375L89.7887 39.1942ZM87.2495 64.2136L89.2522 66.235C89.9786 65.5146 90.6478 64.7388 91.2538 63.9146L88.9601 62.2307C88.4427 62.9365 87.8712 63.6011 87.2507 64.2183L87.2495 64.2136ZM67.2339 34.9025C66.3106 35.3436 65.4234 35.8568 64.5807 36.4374L66.1959 38.7799C66.9151 38.2841 67.6723 37.846 68.4605 37.4696L67.2339 34.9025ZM90.3391 60.0104L92.8701 61.3102C93.3381 60.399 93.7335 59.4523 94.0525 58.4789L91.348 57.5945C91.0756 58.425 90.7382 59.2328 90.3391 60.0104ZM92.1638 52.4463C92.1637 53.3207 92.0956 54.1938 91.9601 55.0577L94.7705 55.4999C94.9293 54.4898 95.009 53.4688 95.009 52.4463H92.1638ZM78.0388 68.8381L78.4578 71.6531C79.4701 71.5024 80.4689 71.2721 81.445 70.9642L80.5897 68.2516C79.7562 68.5143 78.9033 68.7104 78.0388 68.8381ZM83.0125 67.2683L84.2925 69.811C85.2069 69.3518 86.0836 68.821 86.9144 68.2237L85.2538 65.908C84.5435 66.4172 83.7945 66.8701 83.0136 67.2625L83.0125 67.2683ZM73.1071 33.1802C72.0912 33.3103 71.0873 33.5208 70.1048 33.8098L70.9066 36.5398C71.7445 36.2938 72.6005 36.1144 73.4667 36.0033L73.1071 33.1802ZM66.552 69.6295C67.4585 70.1066 68.4013 70.5113 69.3716 70.8397L70.2828 68.1446C69.4555 67.8643 68.6516 67.5192 67.8786 67.1124L66.552 69.6295ZM79.2142 33.3606C78.2084 33.1713 77.1894 33.0612 76.1665 33.0312L76.0827 35.8765C76.9564 35.902 77.8268 35.9962 78.6859 36.1581L79.2142 33.3606ZM72.3484 71.588C73.3573 71.7569 74.3778 71.8467 75.4007 71.8568L75.4287 69.0115C74.5539 69.002 73.6812 68.9242 72.8185 68.7788L72.3484 71.588Z" fill="#F6F2ED"/>
<path d="M75.5864 62.8763C81.3507 62.8763 86.0235 58.2034 86.0235 52.4391C86.0235 46.6748 81.3507 42.002 75.5864 42.002C69.8221 42.002 65.1492 46.6748 65.1492 52.4391C65.1492 58.2034 69.8221 62.8763 75.5864 62.8763Z" fill="url(#paint12_linear_533_5002)"/>
<path d="M109.436 60.1468C109.436 60.1468 110.856 50.7127 104.997 46.2441C105.2 47.7648 105.303 49.2972 105.305 50.8314C105.311 55.8632 104.206 60.8343 102.068 65.3893H140.219V60.1468H109.436Z" fill="url(#paint13_linear_533_5002)"/>
<path d="M220.875 221.571C228.359 221.571 234.426 215.504 234.426 208.02C234.426 200.536 228.359 194.469 220.875 194.469C213.391 194.469 207.324 200.536 207.324 208.02C207.324 215.504 213.391 221.571 220.875 221.571Z" fill="url(#paint14_linear_533_5002)"/>
<path d="M221.26 183.766C216.463 183.766 211.773 185.188 207.784 187.854C203.795 190.519 200.687 194.307 198.851 198.74C197.015 203.172 196.535 208.049 197.471 212.754C198.407 217.459 200.717 221.781 204.109 225.174C207.502 228.566 211.824 230.876 216.529 231.812C221.234 232.748 226.111 232.267 230.544 230.431C234.976 228.595 238.764 225.486 241.429 221.497C244.094 217.508 245.517 212.818 245.517 208.021C245.509 201.59 242.951 195.425 238.404 190.877C233.857 186.33 227.691 183.773 221.26 183.766ZM221.26 229.431C217.026 229.431 212.886 228.176 209.365 225.823C205.843 223.47 203.099 220.126 201.478 216.213C199.858 212.301 199.434 207.996 200.26 203.842C201.086 199.689 203.125 195.873 206.12 192.879C209.114 189.884 212.93 187.845 217.083 187.019C221.237 186.193 225.542 186.617 229.454 188.237C233.367 189.858 236.711 192.602 239.064 196.123C241.417 199.645 242.672 203.784 242.672 208.019C242.666 213.696 240.408 219.139 236.394 223.153C232.38 227.167 226.937 229.425 221.26 229.431Z" fill="url(#paint15_linear_533_5002)"/>
<path d="M204.499 208.022C204.499 207.222 204.555 206.424 204.668 205.632L201.85 205.231C201.719 206.156 201.653 207.089 201.654 208.024V208.287L204.499 208.254V208.022ZM209.211 196.368L207.165 194.39C206.454 195.125 205.802 195.915 205.213 196.751L207.541 198.389C208.043 197.674 208.6 196.998 209.206 196.369L209.211 196.368ZM206.206 200.643L203.646 199.389C203.195 200.308 202.817 201.261 202.515 202.239L205.234 203.077C205.494 202.241 205.819 201.427 206.207 200.643H206.206ZM207.537 222.028C208.268 222.743 209.053 223.401 209.886 223.996L211.538 221.679C210.826 221.17 210.154 220.607 209.529 219.995L207.537 222.028ZM204.737 210.856L201.933 211.335C202.105 212.344 202.357 213.338 202.685 214.308L205.38 213.396C205.1 212.568 204.885 211.721 204.737 210.86V210.856ZM206.411 215.801L203.891 217.125C204.367 218.03 204.911 218.896 205.521 219.717L207.803 218.018C207.283 217.317 206.818 216.577 206.413 215.804L206.411 215.801ZM213.38 193.218L212.041 190.708C211.139 191.19 210.276 191.742 209.46 192.358L211.175 194.629C211.872 194.103 212.61 193.633 213.38 193.222V193.218ZM237.747 204.955L240.545 204.441C240.36 203.434 240.096 202.443 239.754 201.478L237.072 202.427C237.363 203.252 237.589 204.098 237.747 204.959V204.955ZM236.009 200.036L238.51 198.678C238.022 197.781 237.465 196.922 236.844 196.11L234.584 197.838C235.115 198.534 235.592 199.27 236.009 200.04V200.036ZM234.799 193.829C234.059 193.123 233.266 192.476 232.425 191.893L230.804 194.232C231.523 194.731 232.203 195.285 232.836 195.889L234.799 193.829ZM240.865 207.484L238.021 207.564C238.021 207.714 238.021 207.867 238.021 208.018C238.022 208.893 237.954 209.767 237.819 210.632L240.632 211.072C240.788 210.061 240.865 209.04 240.864 208.018C240.874 207.842 240.871 207.664 240.865 207.487V207.484ZM233.157 219.833L235.175 221.838C235.894 221.113 236.556 220.332 237.153 219.504L234.849 217.835C234.338 218.545 233.772 219.214 233.157 219.837V219.833ZM228.946 222.923L230.253 225.451C231.161 224.982 232.031 224.442 232.856 223.837L231.172 221.544C230.467 222.062 229.723 222.524 228.946 222.926V222.923ZM236.221 215.6L238.757 216.888C239.221 215.975 239.612 215.027 239.928 214.053L237.218 213.178C236.95 214.011 236.616 214.823 236.22 215.604L236.221 215.6ZM226.919 189.236L226.104 191.961C226.942 192.213 227.759 192.53 228.548 192.91L229.785 190.35C228.86 189.905 227.902 189.534 226.919 189.24V189.236ZM214.851 189.482L215.782 192.171C216.608 191.885 217.456 191.665 218.317 191.512L217.82 188.71C216.811 188.89 215.819 189.149 214.851 189.485V189.482ZM223.99 224.562L224.447 227.37C225.458 227.205 226.454 226.961 227.426 226.64L226.531 223.939C225.7 224.215 224.849 224.424 223.985 224.566L223.99 224.562ZM212.512 225.572C213.428 226.03 214.379 226.415 215.356 226.723L216.211 224.01C215.378 223.747 214.566 223.418 213.784 223.027L212.512 225.572ZM221.264 224.782C220.427 224.782 219.591 224.72 218.763 224.597L218.343 227.411C219.311 227.555 220.287 227.628 221.265 227.627H221.405L221.374 224.782H221.264ZM220.867 188.413L220.921 191.259H221.263C222.025 191.259 222.785 191.31 223.54 191.411L223.922 188.591C223.041 188.472 222.152 188.412 221.263 188.412L220.867 188.413Z" fill="#F6F2ED"/>
<path d="M227.315 201.328L219.063 210.041L215.852 206.505L213.951 208.232L218.092 212.793C218.211 212.924 218.356 213.029 218.517 213.101C218.678 213.174 218.852 213.212 219.029 213.214H219.043C219.217 213.214 219.39 213.179 219.55 213.109C219.71 213.04 219.854 212.939 219.974 212.813L229.178 203.095L227.315 201.328Z" fill="#F6F2ED"/>
<path d="M198.434 117.729H154.92V120.574H198.434V117.729Z" fill="#F6F2ED"/>
<path d="M198.434 129.947H154.92V132.793H198.434V129.947Z" fill="#F6F2ED"/>
<path d="M198.434 142.166H154.92V145.011H198.434V142.166Z" fill="#F6F2ED"/>
<path d="M198.434 154.381H154.92V157.226H198.434V154.381Z" fill="#F6F2ED"/>
<path d="M198.434 166.6H154.92V169.445H198.434V166.6Z" fill="#F6F2ED"/>
<path d="M180.423 178.818H154.92V181.664H180.423V178.818Z" fill="#F6F2ED"/>
<path d="M132.021 77.9609H97.344V80.8062H132.021V77.9609Z" fill="#F6F2ED"/>
<path d="M132.021 87.6973H97.344V90.5425H132.021V87.6973Z" fill="#F6F2ED"/>
<path d="M132.021 97.4355H97.344V100.281H132.021V97.4355Z" fill="#F6F2ED"/>
<path d="M132.021 107.172H97.344V110.017H132.021V107.172Z" fill="#F6F2ED"/>
<path d="M132.021 116.908H97.344V119.753H132.021V116.908Z" fill="#F6F2ED"/>
<path d="M117.668 126.643H97.344V129.488H117.668V126.643Z" fill="#F6F2ED"/>
<path d="M80.1814 47.2969L73.5786 54.2686L71.0092 51.4396L69.4871 52.8209L72.8013 56.4703C72.8963 56.575 73.0119 56.659 73.1408 56.717C73.2698 56.7751 73.4093 56.806 73.5507 56.8078H73.5612C73.7009 56.8086 73.8394 56.7808 73.9681 56.7262C74.0967 56.6715 74.2129 56.5912 74.3094 56.4901L81.6744 48.7131L80.1814 47.2969Z" fill="#F6F2ED"/>
<path d="M31.8648 75.6602H29.9773V80.4139H31.8648V75.6602Z" fill="url(#paint16_linear_533_5002)"/>
<path d="M31.8648 88.7578H29.9773V93.5115H31.8648V88.7578Z" fill="url(#paint17_linear_533_5002)"/>
<path d="M26.7454 83.6406H21.9917V85.5281H26.7454V83.6406Z" fill="url(#paint18_linear_533_5002)"/>
<path d="M39.8382 83.6406H35.0845V85.5281H39.8382V83.6406Z" fill="url(#paint19_linear_533_5002)"/>
<path d="M262.191 151.877H260.103V157.137H262.191V151.877Z" fill="url(#paint20_linear_533_5002)"/>
<path d="M262.191 166.367H260.103V171.627H262.191V166.367Z" fill="url(#paint21_linear_533_5002)"/>
<path d="M256.53 160.709H251.27V162.797H256.53V160.709Z" fill="url(#paint22_linear_533_5002)"/>
<path d="M271.021 160.709H265.761V162.797H271.021V160.709Z" fill="url(#paint23_linear_533_5002)"/>
<path d="M35.451 191.821C37.1895 191.821 38.5988 190.412 38.5988 188.673C38.5988 186.935 37.1895 185.525 35.451 185.525C33.7125 185.525 32.3032 186.935 32.3032 188.673C32.3032 190.412 33.7125 191.821 35.451 191.821Z" fill="#F6F2ED"/>
<path d="M251.271 62.3097C255.093 62.3097 258.192 59.2113 258.192 55.3892C258.192 51.5672 255.093 48.4688 251.271 48.4688C247.449 48.4688 244.351 51.5672 244.351 55.3892C244.351 59.2113 247.449 62.3097 251.271 62.3097Z" fill="url(#paint24_linear_533_5002)"/>
<defs>
<linearGradient id="paint0_linear_533_5002" x1="61.8998" y1="234.743" x2="65.7252" y2="235.628" gradientUnits="userSpaceOnUse">
<stop stop-color="#A58969"/>
<stop offset="1" stop-color="#C7B664"/>
</linearGradient>
<linearGradient id="paint1_linear_533_5002" x1="61.8937" y1="246.081" x2="65.7191" y2="246.965" gradientUnits="userSpaceOnUse">
<stop stop-color="#A58969"/>
<stop offset="1" stop-color="#C7B664"/>
</linearGradient>
<linearGradient id="paint2_linear_533_5002" x1="66.5385" y1="241.315" x2="70.9867" y2="245.188" gradientUnits="userSpaceOnUse">
<stop stop-color="#A58969"/>
<stop offset="1" stop-color="#C7B664"/>
</linearGradient>
<linearGradient id="paint3_linear_533_5002" x1="55.1994" y1="241.315" x2="59.6476" y2="245.188" gradientUnits="userSpaceOnUse">
<stop stop-color="#A58969"/>
<stop offset="1" stop-color="#C7B664"/>
</linearGradient>
<linearGradient id="paint4_linear_533_5002" x1="-0.128344" y1="50.6021" x2="13.1721" y2="56.5696" gradientUnits="userSpaceOnUse">
<stop stop-color="#A58969"/>
<stop offset="1" stop-color="#C7B664"/>
</linearGradient>
<linearGradient id="paint5_linear_533_5002" x1="279.897" y1="130.768" x2="291.684" y2="136.056" gradientUnits="userSpaceOnUse">
<stop stop-color="#A58969"/>
<stop offset="1" stop-color="#C7B664"/>
</linearGradient>
<linearGradient id="paint6_linear_533_5002" x1="97.5864" y1="192.316" x2="145.304" y2="229.71" gradientUnits="userSpaceOnUse">
<stop stop-color="#A58969"/>
<stop offset="1" stop-color="#C7B664"/>
</linearGradient>
<linearGradient id="paint7_linear_533_5002" x1="105.004" y1="198.082" x2="126.158" y2="222.637" gradientUnits="userSpaceOnUse">
<stop stop-color="#A58969"/>
<stop offset="1" stop-color="#C7B664"/>
</linearGradient>
<linearGradient id="paint8_linear_533_5002" x1="141.258" y1="90.0154" x2="217.453" y2="152.167" gradientUnits="userSpaceOnUse">
<stop stop-color="#A58969"/>
<stop offset="1" stop-color="#C7B664"/>
</linearGradient>
<linearGradient id="paint9_linear_533_5002" x1="54.4929" y1="130.821" x2="92.3814" y2="160.059" gradientUnits="userSpaceOnUse">
<stop stop-color="#A58969"/>
<stop offset="1" stop-color="#C7B664"/>
</linearGradient>
<linearGradient id="paint10_linear_533_5002" x1="62.3254" y1="136.603" x2="73.9817" y2="151.842" gradientUnits="userSpaceOnUse">
<stop stop-color="#A58969"/>
<stop offset="1" stop-color="#C7B664"/>
</linearGradient>
<linearGradient id="paint11_linear_533_5002" x1="49.8717" y1="29.8466" x2="128.82" y2="65.2687" gradientUnits="userSpaceOnUse">
<stop stop-color="#A58969"/>
<stop offset="1" stop-color="#C7B664"/>
</linearGradient>
<linearGradient id="paint12_linear_533_5002" x1="64.8305" y1="42.9877" x2="97.8568" y2="57.8058" gradientUnits="userSpaceOnUse">
<stop stop-color="#A58969"/>
<stop offset="1" stop-color="#C7B664"/>
</linearGradient>
<linearGradient id="paint13_linear_533_5002" x1="101.485" y1="47.1482" x2="141.783" y2="83.1789" gradientUnits="userSpaceOnUse">
<stop stop-color="#A58969"/>
<stop offset="1" stop-color="#C7B664"/>
</linearGradient>
<linearGradient id="paint14_linear_533_5002" x1="206.91" y1="195.749" x2="249.79" y2="214.988" gradientUnits="userSpaceOnUse">
<stop stop-color="#A58969"/>
<stop offset="1" stop-color="#C7B664"/>
</linearGradient>
<linearGradient id="paint15_linear_533_5002" x1="196.264" y1="186.056" x2="273.017" y2="220.494" gradientUnits="userSpaceOnUse">
<stop stop-color="#A58969"/>
<stop offset="1" stop-color="#C7B664"/>
</linearGradient>
<linearGradient id="paint16_linear_533_5002" x1="29.9485" y1="75.8846" x2="33.4256" y2="76.5041" gradientUnits="userSpaceOnUse">
<stop stop-color="#A58969"/>
<stop offset="1" stop-color="#C7B664"/>
</linearGradient>
<linearGradient id="paint17_linear_533_5002" x1="29.9485" y1="88.9823" x2="33.4256" y2="89.6018" gradientUnits="userSpaceOnUse">
<stop stop-color="#A58969"/>
<stop offset="1" stop-color="#C7B664"/>
</linearGradient>
<linearGradient id="paint18_linear_533_5002" x1="21.9191" y1="83.7298" x2="25.8873" y2="88.2138" gradientUnits="userSpaceOnUse">
<stop stop-color="#A58969"/>
<stop offset="1" stop-color="#C7B664"/>
</linearGradient>
<linearGradient id="paint19_linear_533_5002" x1="35.0119" y1="83.7298" x2="38.9801" y2="88.2138" gradientUnits="userSpaceOnUse">
<stop stop-color="#A58969"/>
<stop offset="1" stop-color="#C7B664"/>
</linearGradient>
<linearGradient id="paint20_linear_533_5002" x1="260.071" y1="152.125" x2="263.917" y2="152.81" gradientUnits="userSpaceOnUse">
<stop stop-color="#A58969"/>
<stop offset="1" stop-color="#C7B664"/>
</linearGradient>
<linearGradient id="paint21_linear_533_5002" x1="260.071" y1="166.616" x2="263.917" y2="167.3" gradientUnits="userSpaceOnUse">
<stop stop-color="#A58969"/>
<stop offset="1" stop-color="#C7B664"/>
</linearGradient>
<linearGradient id="paint22_linear_533_5002" x1="251.19" y1="160.808" x2="255.579" y2="165.769" gradientUnits="userSpaceOnUse">
<stop stop-color="#A58969"/>
<stop offset="1" stop-color="#C7B664"/>
</linearGradient>
<linearGradient id="paint23_linear_533_5002" x1="265.68" y1="160.808" x2="270.069" y2="165.769" gradientUnits="userSpaceOnUse">
<stop stop-color="#A58969"/>
<stop offset="1" stop-color="#C7B664"/>
</linearGradient>
<linearGradient id="paint24_linear_533_5002" x1="244.139" y1="49.1224" x2="266.038" y2="58.9477" gradientUnits="userSpaceOnUse">
<stop stop-color="#A58969"/>
<stop offset="1" stop-color="#C7B664"/>
</linearGradient>
</defs>
</svg>
