<svg width="256" height="250" viewBox="0 0 256 250" fill="none" xmlns="http://www.w3.org/2000/svg">
<path d="M124.287 215.161C176.646 215.161 219.09 172.717 219.09 120.359C219.09 68.001 176.646 25.5566 124.287 25.5566C71.9291 25.5566 29.4844 68.001 29.4844 120.359C29.4844 172.717 71.9291 215.161 124.287 215.161Z" fill="#C3B075" fill-opacity="0.03"/>
<path opacity="0.3" d="M232.859 156.511C234.465 156.511 236.035 156.035 237.37 155.142C238.706 154.25 239.747 152.982 240.362 151.498C240.976 150.014 241.137 148.381 240.824 146.805C240.51 145.23 239.737 143.783 238.601 142.647C237.465 141.511 236.018 140.738 234.443 140.425C232.868 140.111 231.235 140.272 229.751 140.887C228.267 141.501 226.998 142.542 226.106 143.878C225.214 145.213 224.737 146.784 224.737 148.39C224.738 150.544 225.593 152.609 227.116 154.132C228.639 155.655 230.705 156.511 232.859 156.511Z" fill="url(#paint0_linear_657_5598)"/>
<path opacity="0.2" d="M244.746 124.818C245.843 124.818 246.916 124.492 247.829 123.882C248.742 123.272 249.453 122.406 249.873 121.391C250.293 120.377 250.403 119.261 250.189 118.185C249.975 117.108 249.446 116.119 248.67 115.343C247.894 114.567 246.905 114.038 245.828 113.824C244.752 113.61 243.636 113.72 242.622 114.14C241.607 114.56 240.741 115.271 240.131 116.184C239.521 117.097 239.195 118.17 239.195 119.267C239.195 120.739 239.78 122.151 240.821 123.192C241.862 124.233 243.274 124.818 244.746 124.818Z" fill="url(#paint1_linear_657_5598)"/>
<path opacity="0.3" d="M15.0607 94.0157C17.0978 94.0157 19.0892 93.4117 20.783 92.2799C22.4769 91.1481 23.797 89.5395 24.5766 87.6575C25.3562 85.7754 25.5602 83.7044 25.1627 81.7065C24.7653 79.7085 23.7843 77.8732 22.3439 76.4328C20.9034 74.9923 19.0681 74.0114 17.0701 73.6139C15.0721 73.2165 13.0011 73.4205 11.1191 74.2001C9.237 74.9796 7.62837 76.2998 6.4966 77.9936C5.36482 79.6874 4.76074 81.6788 4.76074 83.7159C4.76074 86.4476 5.84591 89.0674 7.77753 90.999C9.70915 92.9306 12.329 94.0157 15.0607 94.0157Z" fill="url(#paint2_linear_657_5598)"/>
<path opacity="0.2" d="M219.192 57.0872C220.29 57.0872 221.363 56.7617 222.275 56.1518C223.188 55.542 223.9 54.6752 224.32 53.661C224.74 52.6468 224.85 51.5309 224.635 50.4542C224.421 49.3776 223.893 48.3886 223.116 47.6124C222.34 46.8362 221.351 46.3076 220.275 46.0935C219.198 45.8793 218.082 45.9892 217.068 46.4093C216.054 46.8294 215.187 47.5408 214.577 48.4535C213.967 49.3662 213.642 50.4393 213.642 51.537C213.642 53.009 214.226 54.4207 215.267 55.4616C216.308 56.5025 217.72 57.0872 219.192 57.0872Z" fill="url(#paint3_linear_657_5598)"/>
<path d="M85.0399 49.3731L83.9287 50.0146L85.1738 52.1711L86.285 51.5295L85.0399 49.3731Z" fill="url(#paint4_linear_657_5598)"/>
<path d="M88.4716 55.3155L87.3604 55.957L88.6054 58.1135L89.7166 57.4719L88.4716 55.3155Z" fill="url(#paint5_linear_657_5598)"/>
<path d="M90.5549 50.8492L88.3984 52.0942L89.04 53.2055L91.1965 51.9604L90.5549 50.8492Z" fill="url(#paint6_linear_657_5598)"/>
<path d="M84.6116 54.2799L82.4551 55.5249L83.0966 56.6361L85.2531 55.3911L84.6116 54.2799Z" fill="url(#paint7_linear_657_5598)"/>
<path d="M52.7189 237.508H51.0049V240.835H52.7189V237.508Z" fill="url(#paint8_linear_657_5598)"/>
<path d="M52.7189 246.673H51.0049V250H52.7189V246.673Z" fill="url(#paint9_linear_657_5598)"/>
<path d="M58.1096 242.897H54.7832V244.611H58.1096V242.897Z" fill="url(#paint10_linear_657_5598)"/>
<path d="M48.9426 242.897H45.6162V244.611H48.9426V242.897Z" fill="url(#paint11_linear_657_5598)"/>
<path d="M3.39788 72.9368C5.27448 72.9368 6.79577 71.4155 6.79577 69.539C6.79577 67.6624 5.27448 66.1411 3.39788 66.1411C1.52128 66.1411 0 67.6624 0 69.539C0 71.4155 1.52128 72.9368 3.39788 72.9368Z" fill="url(#paint12_linear_657_5598)"/>
<path d="M15.4754 123.039C16.9639 123.039 18.1706 121.832 18.1706 120.344C18.1706 118.855 16.9639 117.648 15.4754 117.648C13.9869 117.648 12.7803 118.855 12.7803 120.344C12.7803 121.832 13.9869 123.039 15.4754 123.039Z" fill="url(#paint13_linear_657_5598)"/>
<path d="M252.889 141.71C254.552 141.71 255.9 140.362 255.9 138.699C255.9 137.036 254.552 135.688 252.889 135.688C251.226 135.688 249.878 137.036 249.878 138.699C249.878 140.362 251.226 141.71 252.889 141.71Z" fill="url(#paint14_linear_657_5598)"/>
<path d="M191.919 148.407L190.937 147.583L189.336 149.49L190.319 150.315L191.919 148.407Z" fill="url(#paint15_linear_657_5598)"/>
<path d="M187.506 153.664L186.523 152.839L184.923 154.746L185.906 155.571L187.506 153.664Z" fill="url(#paint16_linear_657_5598)"/>
<path d="M192.422 154.091L190.515 152.491L189.69 153.474L191.597 155.074L192.422 154.091Z" fill="url(#paint17_linear_657_5598)"/>
<path d="M187.166 149.681L185.259 148.08L184.434 149.063L186.342 150.664L187.166 149.681Z" fill="url(#paint18_linear_657_5598)"/>
<path d="M212.09 46.7062C213.578 46.7062 214.785 45.4995 214.785 44.0111C214.785 42.5226 213.578 41.3159 212.09 41.3159C210.601 41.3159 209.395 42.5226 209.395 44.0111C209.395 45.4995 210.601 46.7062 212.09 46.7062Z" fill="url(#paint19_linear_657_5598)"/>
<path d="M125.576 27.6063C132.042 27.6063 137.283 22.3652 137.283 15.9001C137.283 9.4349 132.042 4.19385 125.576 4.19385C119.111 4.19385 113.87 9.4349 113.87 15.9001C113.87 22.3652 119.111 27.6063 125.576 27.6063Z" fill="url(#paint20_linear_657_5598)"/>
<g opacity="0.696">
<path d="M125.411 32.1432C124.842 32.1432 124.273 32.0915 123.704 32.0397L123.859 30.3841C124.376 30.4358 124.894 30.4875 125.411 30.4875H125.566V32.1432H125.411ZM127.326 32.0397L127.12 30.3841C127.637 30.3323 128.154 30.2288 128.672 30.1254L129.034 31.7293L127.326 32.0397ZM121.944 31.781C121.378 31.6793 120.823 31.5218 120.288 31.3107L120.805 29.7585C121.323 29.9137 121.788 30.0689 122.311 30.1724L121.944 31.781ZM130.692 31.2636L130.123 29.7114C130.594 29.5562 131.106 29.3493 131.572 29.1423L132.296 30.6474C131.776 30.8497 131.207 31.0567 130.69 31.2636H130.692ZM118.686 30.6428C118.169 30.3841 117.651 30.1254 117.134 29.8149L117.962 28.418C118.432 28.6767 118.893 28.9354 119.359 29.1423L118.686 30.6428ZM133.798 29.7632L132.918 28.3662C133.369 28.1031 133.801 27.8092 134.212 27.4867L135.246 28.7801C134.778 29.0896 134.312 29.449 133.795 29.7632H133.798ZM115.681 28.8846C115.211 28.5224 114.802 28.1602 114.336 27.7463L115.474 26.5563C115.847 26.9116 116.245 27.2401 116.664 27.5393L115.681 28.8846ZM136.538 27.6428L135.4 26.4528C135.771 26.0985 136.117 25.7181 136.435 25.3146L137.676 26.3493C137.34 26.8158 136.958 27.2483 136.538 27.6409V27.6428ZM113.197 26.5046C112.811 26.0705 112.465 25.603 112.162 25.1076L113.507 24.1763L114.439 25.418L113.197 26.5046ZM138.763 24.9524L137.418 24.0211C137.726 23.6029 137.986 23.1517 138.194 22.6759L139.642 23.4519C139.38 23.9686 139.086 24.4687 138.763 24.9496V24.9524ZM111.231 23.6561C110.972 23.1387 110.713 22.6213 110.506 22.1039L112.059 21.483C112.266 21.9534 112.473 22.4143 112.731 22.88L111.231 23.6561ZM140.368 21.896L138.816 21.2751C139.027 20.7921 139.184 20.2874 139.286 19.77L140.89 20.1839C140.747 20.7637 140.573 21.3352 140.368 21.896ZM109.936 20.4473C109.781 19.8782 109.678 19.3091 109.574 18.7399L111.178 18.4812C111.268 18.9898 111.389 19.4925 111.54 19.9864L109.936 20.4473ZM141.247 18.5367L139.643 18.278C139.747 17.7606 139.747 17.2432 139.799 16.7259L141.454 16.7776C141.403 17.3938 141.352 17.9629 141.247 18.5367ZM109.367 17.0316V15.2715L111.023 15.375V16.9272L109.367 17.0316ZM139.747 15.168C139.695 14.6506 139.643 14.1333 139.54 13.6159L141.144 13.3572C141.247 13.9263 141.299 14.4954 141.351 15.0655L139.747 15.168ZM111.179 13.8228L109.575 13.5641C109.679 12.995 109.782 12.4259 109.937 11.8558L111.541 12.2697C111.372 12.7748 111.25 13.2948 111.179 13.8228ZM139.229 12.1154C139.088 11.6219 138.915 11.138 138.712 10.6667L140.217 10.0459C140.438 10.5866 140.628 11.1394 140.786 11.7015L139.229 12.1154ZM112.007 10.8229L110.455 10.202C110.665 9.67056 110.907 9.15222 111.179 8.64984L112.628 9.42594C112.39 9.8772 112.182 10.3439 112.007 10.8229ZM138.039 9.27071C137.781 8.80036 137.522 8.39115 137.212 7.9255L138.557 6.99419C138.867 7.46455 139.178 7.97724 139.488 8.49934L138.039 9.27071ZM113.456 8.0779L112.11 7.14659C112.421 6.67623 112.783 6.21528 113.145 5.74963L114.387 6.83615C114.02 7.20459 113.707 7.62256 113.456 8.0779ZM136.279 6.68375C135.917 6.26984 135.555 5.90767 135.193 5.5455L136.331 4.3555C136.745 4.76941 137.159 5.18332 137.521 5.59723L136.279 6.68375ZM115.423 5.70071L114.284 4.51071C114.698 4.0968 115.164 3.73462 115.578 3.37244L116.561 4.66592C116.199 4.9726 115.837 5.33571 115.423 5.69788V5.70071ZM134.002 4.56246C133.591 4.2399 133.159 3.94601 132.708 3.68288L133.536 2.28592C134.039 2.58357 134.523 2.91188 134.985 3.26898L134.002 4.56246ZM117.906 3.78636L117.027 2.3894C117.511 2.08277 118.013 1.80632 118.532 1.56159L119.256 3.06672C118.79 3.2741 118.339 3.51329 117.906 3.7826V3.78636ZM131.358 2.95854C130.888 2.73781 130.404 2.5477 129.91 2.3894L130.427 0.837233C130.996 1.04419 131.514 1.25115 132.031 1.45811L131.358 2.95854ZM120.697 2.48819L120.185 0.936004C120.723 0.731519 121.277 0.574141 121.841 0.465648L122.203 2.06956C121.69 2.16087 121.187 2.30137 120.701 2.48912L120.697 2.48819ZM128.411 2.01783C127.894 1.91435 127.376 1.81087 126.859 1.75913L127.014 0.103479C127.583 0.155218 128.152 0.258691 128.722 0.362169L128.411 2.01783ZM123.754 1.75913L123.547 0.103479C124.116 0.0517397 124.685 0 125.254 0V1.65565C124.789 1.71209 124.272 1.71209 123.755 1.76477L123.754 1.75913Z" fill="#F6F2ED"/>
</g>
<path d="M129.975 13.6706C129.975 14.6216 129.922 15.5764 129.985 16.5237C130.077 17.4276 129.974 18.3407 129.682 19.201C129.389 20.0613 128.915 20.8486 128.292 21.5095C128.104 21.7155 127.949 21.9592 127.765 22.1746C127.436 22.5612 127.327 23.2555 126.819 23.3345C125.952 23.4196 125.08 23.4356 124.21 23.3825C123.948 23.3825 123.804 23.1586 123.697 22.961C123.221 22.1663 122.664 21.4234 122.033 20.7447C121.236 19.786 120.814 18.57 120.846 17.3233C120.823 14.7787 120.851 12.2332 120.829 9.68853C120.824 9.03662 121.068 8.73841 121.727 8.74123C124.169 8.75001 126.611 8.75001 129.054 8.74123C129.695 8.74123 129.995 8.99428 129.982 9.66124C129.959 10.998 129.976 12.3338 129.975 13.6706ZM125.389 10.7355C124.516 10.7355 123.643 10.7525 122.77 10.729C122.3 10.7167 122.126 10.9067 122.128 11.362C122.139 13.1331 122.139 14.9045 122.128 16.6761C122.128 17.1051 122.316 17.2801 122.726 17.2801C124.497 17.2763 126.269 17.2763 128.041 17.2801C128.489 17.2801 128.687 17.1098 128.682 16.6404C128.667 14.8951 128.667 13.1494 128.682 11.4034C128.682 10.9124 128.509 10.7111 128.004 10.7271C127.132 10.7544 126.258 10.7346 125.385 10.7346" fill="#F6F2ED"/>
<path d="M204.781 63.619C211.246 63.619 216.487 58.3779 216.487 51.9128C216.487 45.4476 211.246 40.2065 204.781 40.2065C198.315 40.2065 193.074 45.4476 193.074 51.9128C193.074 58.3779 198.315 63.619 204.781 63.619Z" fill="url(#paint21_linear_657_5598)"/>
<g opacity="0.696">
<path d="M204.614 68.1559C204.045 68.1559 203.476 68.1041 202.907 68.0524L203.062 66.3967C203.58 66.4485 204.097 66.5002 204.614 66.5002H204.77V68.1559H204.614ZM206.53 68.0524L206.323 66.3967C206.84 66.345 207.357 66.2415 207.875 66.1381L208.237 67.742L206.53 68.0524ZM201.147 67.7937C200.581 67.692 200.026 67.5345 199.491 67.3233L200.009 65.7712C200.526 65.9264 200.992 66.0816 201.514 66.1851L201.147 67.7937ZM209.896 67.2763L209.326 65.7241C209.797 65.5689 210.309 65.362 210.775 65.155L211.499 66.6601C210.979 66.8624 210.41 67.0694 209.893 67.2763H209.896ZM197.889 66.6555C197.372 66.3968 196.854 66.1381 196.337 65.8276L197.165 64.4307C197.635 64.6894 198.096 64.9481 198.562 65.155L197.889 66.6555ZM213.001 65.7759L212.121 64.3789C212.572 64.1158 213.004 63.8219 213.415 63.4994L214.45 64.7928C213.981 65.1023 213.515 65.4617 212.998 65.7759H213.001ZM194.884 64.8973C194.414 64.5351 194.005 64.1729 193.539 63.759L194.677 62.569C195.05 62.9243 195.448 63.2528 195.867 63.552L194.884 64.8973ZM215.741 63.6555L214.603 62.4655C214.974 62.1111 215.32 61.7308 215.638 61.3273L216.879 62.362C216.543 62.8285 216.162 63.261 215.741 63.6536V63.6555ZM192.4 62.5173C192.014 62.0832 191.668 61.6157 191.365 61.1203L192.71 60.189L193.642 61.4307L192.4 62.5173ZM217.966 60.9651L216.621 60.0338C216.929 59.6156 217.189 59.1644 217.397 58.6886L218.846 59.4646C218.583 59.9812 218.289 60.4814 217.966 60.9623V60.9651ZM190.434 59.6688C190.175 59.1514 189.916 58.634 189.71 58.1166L191.262 57.4957C191.469 57.9661 191.676 58.427 191.934 58.8927L190.434 59.6688ZM219.571 57.9087L218.019 57.2878C218.23 56.8048 218.388 56.3001 218.489 55.7827L220.093 56.1966C219.95 56.7764 219.776 57.3479 219.571 57.9087ZM189.139 56.46C188.984 55.8909 188.881 55.3218 188.777 54.7526L190.381 54.4939C190.471 55.0025 190.592 55.5052 190.743 55.9991L189.139 56.46ZM220.45 54.5494L218.846 54.2907C218.95 53.7733 218.95 53.2559 219.002 52.7386L220.657 52.7903C220.606 53.4065 220.555 53.9756 220.45 54.5494ZM188.57 53.0443V51.2842L190.226 51.3877V52.9399L188.57 53.0443ZM218.95 51.1807C218.898 50.6633 218.846 50.146 218.743 49.6286L220.347 49.3699C220.45 49.939 220.502 50.5081 220.554 51.0782L218.95 51.1807ZM190.382 49.8355L188.778 49.5768C188.882 49.0077 188.985 48.4386 189.14 47.8685L190.744 48.2824C190.575 48.7875 190.453 49.3075 190.382 49.8355ZM218.433 48.1281C218.291 47.6346 218.119 47.1507 217.915 46.6794L219.42 46.0586C219.641 46.5993 219.831 47.1521 219.989 47.7142L218.433 48.1281ZM191.21 46.8356L189.658 46.2147C189.868 45.6833 190.11 45.1649 190.382 44.6625L191.831 45.4386C191.593 45.8899 191.386 46.3566 191.21 46.8356ZM217.243 45.2834C216.984 44.8131 216.725 44.4038 216.415 43.9382L217.76 43.0069C218.07 43.4772 218.381 43.9899 218.691 44.512L217.243 45.2834ZM192.659 44.0906L191.313 43.1593C191.624 42.6889 191.986 42.228 192.348 41.7623L193.59 42.8488C193.223 43.2173 192.91 43.6353 192.659 44.0906ZM215.482 42.6964C215.12 42.2825 214.758 41.9204 214.396 41.5582L215.534 40.3682C215.948 40.7821 216.362 41.196 216.724 41.6099L215.482 42.6964ZM194.626 41.7134L193.487 40.5234C193.901 40.1095 194.367 39.7473 194.781 39.3851L195.764 40.6786C195.402 40.9853 195.04 41.3484 194.626 41.7106V41.7134ZM213.205 40.5752C212.795 40.2526 212.362 39.9587 211.911 39.6956L212.739 38.2986C213.242 38.5963 213.726 38.9246 214.188 39.2817L213.205 40.5752ZM197.109 39.7991L196.23 38.4021C196.714 38.0955 197.217 37.819 197.735 37.5743L198.459 39.0794C197.993 39.2868 197.542 39.526 197.109 39.7953V39.7991ZM210.562 38.9712C210.091 38.7505 209.608 38.5604 209.113 38.4021L209.63 36.8499C210.199 37.0569 210.717 37.2638 211.234 37.4708L210.562 38.9712ZM199.9 38.5009L199.389 36.9487C199.926 36.7442 200.48 36.5868 201.044 36.4783L201.406 38.0823C200.893 38.1736 200.39 38.3141 199.904 38.5018L199.9 38.5009ZM207.614 38.0305C207.097 37.927 206.579 37.8236 206.062 37.7718L206.217 36.1162C206.786 36.1679 207.356 36.2714 207.925 36.3749L207.614 38.0305ZM202.957 37.7718L202.75 36.1162C203.319 36.0644 203.888 36.0127 204.457 36.0127V37.6683C203.992 37.7248 203.475 37.7248 202.958 37.7775L202.957 37.7718Z" fill="#F6F2ED"/>
</g>
<path d="M204.191 55.9231C203.595 56.9503 202.968 57.9644 202.411 59.0114C202.135 59.527 201.913 59.685 201.36 59.3172C200.48 58.7325 199.564 58.204 198.617 57.7349C197.922 57.3906 197.789 57.115 198.227 56.3831C200.244 53.0069 202.187 49.5865 204.148 46.1773C204.373 45.7869 204.698 45.4483 204.515 44.8867C204.224 44.0014 204.751 43.8039 205.493 43.9459C206.376 44.1069 207.281 44.1101 208.165 43.9554C208.527 43.8961 209.102 43.7268 209.262 44.0955C209.384 44.2949 209.432 44.5307 209.398 44.7618C209.363 44.9929 209.249 45.2046 209.074 45.3598C208.736 45.6571 209.472 47.7257 209.926 48.0192C210.379 48.3127 210.333 49.5347 209.825 49.6119C209.241 49.7012 209.34 50.0239 209.34 50.3644C209.335 51.7868 209.34 53.2091 209.34 54.6315C209.34 54.9946 209.285 55.3032 209.852 55.3765C210.292 55.433 210.392 56.8168 209.99 56.8666C209.165 56.9673 209.346 57.4903 209.342 57.9682C209.325 60.2259 209.327 60.2259 207.099 60.2193C206.264 60.2193 205.155 60.5015 204.669 60.0829C204.091 59.5843 204.531 58.4423 204.481 57.5806C204.449 57.0444 204.475 56.5044 204.475 55.9664L204.193 55.924M206.685 44.8556C205.927 44.8716 205.499 45.4925 205.106 46.1726C203.413 49.1039 201.72 52.0332 200.026 54.9607C198.876 56.9541 198.892 56.9362 200.926 58.1121C201.506 58.448 201.788 58.4734 202.165 57.8045C204.053 54.4424 206.007 51.1179 207.932 47.7756C208.102 47.496 208.239 47.1977 208.34 46.8866C208.408 46.6394 208.417 46.3793 208.364 46.1281C208.312 45.8769 208.2 45.6419 208.038 45.4428C207.877 45.2436 207.669 45.0862 207.434 44.9835C207.199 44.8809 206.943 44.8361 206.687 44.8528M207.926 49.9129C207.136 51.054 206.034 52.0398 205.889 53.45C205.767 54.6371 205.919 55.8497 205.854 57.0463C205.808 57.8835 206.314 57.8064 206.818 57.7622C207.282 57.7208 207.956 58.0754 207.939 57.0896C207.898 54.6983 207.926 52.3051 207.926 49.9129Z" fill="#F6F2ED"/>
<path d="M28.4563 149.975C34.9216 149.975 40.1627 144.734 40.1627 138.269C40.1627 131.804 34.9216 126.563 28.4563 126.563C21.9911 126.563 16.75 131.804 16.75 138.269C16.75 144.734 21.9911 149.975 28.4563 149.975Z" fill="url(#paint22_linear_657_5598)"/>
<g opacity="0.696">
<path d="M28.2989 154.513C27.7297 154.513 27.1606 154.461 26.5915 154.409L26.7467 152.754C27.2641 152.805 27.7815 152.857 28.2989 152.857H28.4541V154.513H28.2989ZM30.2142 154.409L30.0072 152.754C30.5246 152.702 31.042 152.598 31.5594 152.495L31.9216 154.099L30.2142 154.409ZM24.8314 154.151C24.2653 154.049 23.7107 153.891 23.1757 153.68L23.6931 152.128C24.2105 152.283 24.6762 152.439 25.1983 152.542L24.8314 154.151ZM33.5801 153.633L33.011 152.081C33.4813 151.926 33.994 151.719 34.4597 151.512L35.184 153.017C34.6638 153.219 34.0947 153.426 33.5773 153.633H33.5801ZM21.5737 153.012C21.0563 152.754 20.5389 152.495 20.0215 152.185L20.8493 150.788C21.3197 151.046 21.7806 151.305 22.2463 151.512L21.5737 153.012ZM36.6854 152.133L35.8058 150.736C36.2567 150.473 36.6889 150.179 37.0993 149.856L38.1341 151.15C37.6656 151.459 37.2 151.819 36.6826 152.133H36.6854ZM18.569 151.254C18.0986 150.892 17.6894 150.53 17.2238 150.116L18.362 148.926C18.735 149.281 19.1327 149.61 19.5521 149.909L18.569 151.254ZM39.4257 150.012L38.2875 148.822C38.659 148.468 39.0048 148.088 39.3222 147.684L40.564 148.719C40.2274 149.185 39.8462 149.618 39.4257 150.011V150.012ZM16.0846 148.874C15.6989 148.44 15.3526 147.973 15.0498 147.477L16.395 146.546L17.3263 147.788L16.0846 148.874ZM41.6505 147.322L40.3053 146.391C40.6132 145.973 40.8735 145.521 41.0814 145.045L42.5301 145.822C42.2676 146.338 41.9739 146.838 41.6505 147.319V147.322ZM14.1185 146.026C13.8598 145.508 13.6011 144.991 13.3941 144.474L14.9463 143.853C15.1532 144.323 15.3602 144.784 15.6189 145.25L14.1185 146.026ZM43.2554 144.266L41.7032 143.645C41.9144 143.162 42.0721 142.657 42.1736 142.14L43.7775 142.554C43.6347 143.133 43.4604 143.705 43.2554 144.266ZM12.824 142.817C12.6688 142.248 12.5653 141.679 12.4618 141.11L14.0658 140.851C14.1559 141.359 14.2768 141.862 14.4279 142.356L12.824 142.817ZM44.135 140.906L42.531 140.648C42.6345 140.13 42.6345 139.613 42.6863 139.095L44.3419 139.147C44.2902 139.763 44.2394 140.333 44.135 140.906ZM12.2549 139.401V137.641L13.9106 137.745V139.297L12.2549 139.401ZM42.6345 137.538C42.5828 137.02 42.531 136.503 42.4276 135.985L44.0315 135.727C44.135 136.296 44.1867 136.865 44.2385 137.435L42.6345 137.538ZM14.0667 136.192L12.4628 135.934C12.5663 135.365 12.6697 134.795 12.825 134.225L14.4289 134.639C14.2593 135.144 14.138 135.664 14.0667 136.192ZM42.1171 134.485C41.976 133.992 41.8031 133.508 41.5997 133.036L43.1049 132.415C43.3255 132.956 43.5155 133.509 43.674 134.071L42.1171 134.485ZM14.8945 133.193L13.3424 132.572C13.5524 132.04 13.7943 131.522 14.0667 131.019L15.5154 131.796C15.2775 132.247 15.0701 132.714 14.8945 133.193ZM40.9271 131.64C40.6684 131.17 40.4097 130.761 40.0993 130.295L41.4445 129.364C41.755 129.834 42.0654 130.347 42.3758 130.869L40.9271 131.64ZM16.3433 130.448L14.998 129.516C15.3085 129.046 15.6706 128.585 16.0328 128.119L17.2746 129.206C16.9077 129.574 16.5942 129.992 16.3433 130.448ZM39.167 129.053C38.8049 128.639 38.4427 128.277 38.0805 127.915L39.2188 126.725C39.6327 127.139 40.0466 127.553 40.4088 127.967L39.167 129.053ZM18.3103 128.07L17.172 126.88C17.5859 126.466 18.0516 126.104 18.4655 125.742L19.4486 127.036C19.0864 127.342 18.7242 127.705 18.3103 128.068V128.07ZM36.8895 126.932C36.4791 126.61 36.0469 126.316 35.5961 126.053L36.4239 124.656C36.9265 124.953 37.4103 125.282 37.8726 125.639L36.8895 126.932ZM20.7938 126.156L19.9142 124.759C20.3985 124.452 20.9011 124.176 21.4194 123.931L22.1437 125.436C21.6779 125.644 21.2268 125.883 20.7938 126.152V126.156ZM34.2461 125.328C33.776 125.107 33.2921 124.917 32.7974 124.759L33.3148 123.207C33.8839 123.414 34.4013 123.621 34.9187 123.828L34.2461 125.328ZM23.5849 124.858L23.0732 123.306C23.6104 123.101 24.1644 122.944 24.7288 122.835L25.091 124.439C24.5779 124.53 24.0748 124.671 23.5887 124.859L23.5849 124.858ZM31.2988 124.387C30.7814 124.284 30.264 124.18 29.7466 124.129L29.9019 122.473C30.471 122.525 31.0401 122.628 31.6093 122.732L31.2988 124.387ZM26.6413 124.129L26.4344 122.473C27.0035 122.421 27.5726 122.37 28.1418 122.37V124.025C27.6771 124.082 27.1597 124.082 26.6423 124.134L26.6413 124.129Z" fill="#F6F2ED"/>
</g>
<path d="M35.8659 143.457H20.7025C20.6027 143.457 20.507 143.417 20.4364 143.346C20.3658 143.276 20.3262 143.18 20.3262 143.08V133.8C20.3262 133.7 20.3658 133.605 20.4364 133.534C20.507 133.463 20.6027 133.424 20.7025 133.424H35.8659C35.9657 133.424 36.0615 133.463 36.132 133.534C36.2026 133.605 36.2422 133.7 36.2422 133.8V143.087C36.2405 143.185 36.2001 143.279 36.1297 143.349C36.0593 143.418 35.9646 143.457 35.8659 143.457Z" fill="#F6F2ED"/>
<path d="M20.334 135.559H36.2406" stroke="#2F4F4F" stroke-width="2"/>
<path d="M168.118 220.574C176.824 220.574 183.881 213.517 183.881 204.811C183.881 196.106 176.824 189.049 168.118 189.049C159.413 189.049 152.355 196.106 152.355 204.811C152.355 213.517 159.413 220.574 168.118 220.574Z" fill="url(#paint23_linear_657_5598)"/>
<g opacity="0.696">
<path d="M167.91 226.681C167.144 226.681 166.377 226.611 165.611 226.542L165.82 224.312C166.517 224.382 167.213 224.452 167.91 224.452H168.119V226.681H167.91ZM170.489 226.542L170.207 224.312C170.904 224.243 171.6 224.104 172.297 223.964L172.785 226.128L170.489 226.542ZM163.245 226.194C162.483 226.059 161.736 225.849 161.016 225.566L161.713 223.476C162.41 223.685 163.036 223.894 163.734 224.034L163.245 226.194ZM175.022 225.497L174.256 223.406C174.883 223.198 175.579 222.918 176.207 222.64L177.182 224.66C176.481 224.939 175.715 225.218 175.018 225.497H175.022ZM158.856 224.66C158.159 224.312 157.463 223.963 156.766 223.546L157.88 221.664C158.508 222.012 159.134 222.361 159.762 222.64L158.856 224.66ZM179.204 223.476L178.019 221.595C178.627 221.24 179.209 220.845 179.762 220.41L181.155 222.153C180.523 222.57 179.892 223.057 179.199 223.476H179.204ZM154.815 222.292C154.187 221.804 153.63 221.316 153.003 220.758L154.536 219.159C155.037 219.637 155.572 220.08 156.135 220.483L154.815 222.292ZM182.897 220.619L181.364 219.02C181.864 218.543 182.329 218.03 182.757 217.487L184.429 218.88C183.975 219.508 183.46 220.091 182.892 220.619H182.897ZM151.47 219.086C150.951 218.501 150.485 217.872 150.077 217.204L151.889 215.95L153.143 217.623L151.47 219.086ZM185.888 216.992L184.077 215.738C184.491 215.175 184.842 214.567 185.122 213.926L187.073 214.971C186.72 215.668 186.324 216.343 185.888 216.992ZM148.817 215.253C148.469 214.556 148.12 213.86 147.842 213.163L149.932 212.327C150.214 212.954 150.49 213.581 150.838 214.208L148.817 215.253ZM188.046 212.884L185.955 212.047C186.237 211.399 186.448 210.721 186.583 210.027L188.746 210.585C188.555 211.363 188.322 212.13 188.048 212.884H188.046ZM147.075 210.933C146.866 210.166 146.727 209.399 146.587 208.634L148.751 208.285C148.872 208.968 149.035 209.643 149.239 210.306L147.075 210.933ZM189.234 208.354L187.07 208.006C187.209 207.309 187.209 206.613 187.279 205.916L189.508 205.985C189.443 206.822 189.373 207.585 189.234 208.355V208.354ZM146.309 206.333V203.964L148.538 204.103V206.193L146.309 206.333ZM187.213 203.822C187.143 203.125 187.074 202.429 186.931 201.732L189.094 201.383C189.234 202.15 189.303 202.917 189.377 203.683L187.213 203.822ZM148.748 202.014L146.584 201.666C146.723 200.899 146.866 200.132 147.072 199.367L149.236 199.924C149.008 200.604 148.844 201.303 148.748 202.014ZM186.516 199.715C186.326 199.05 186.093 198.398 185.819 197.764L187.84 196.927C188.137 197.655 188.393 198.4 188.606 199.157L186.516 199.715ZM149.863 197.971L147.772 197.135C148.055 196.42 148.381 195.721 148.748 195.045L150.699 196.09C150.378 196.698 150.099 197.326 149.863 197.971ZM184.913 195.881C184.565 195.254 184.216 194.697 183.798 194.069L185.61 192.815C186.028 193.443 186.446 194.139 186.864 194.836L184.913 195.881ZM151.814 194.282L150.002 193.028C150.42 192.401 150.908 191.774 151.395 191.147L153.068 192.61C152.574 193.106 152.152 193.667 151.814 194.279V194.282ZM182.544 192.401C182.056 191.843 181.569 191.355 181.08 190.867L182.614 189.268C183.172 189.826 183.729 190.383 184.213 190.941L182.544 192.401ZM154.462 191.077L152.928 189.478C153.486 188.92 154.113 188.433 154.671 187.944L155.994 189.687C155.507 190.098 155.019 190.586 154.462 191.073V191.077ZM179.478 189.544C178.926 189.109 178.343 188.714 177.736 188.359L178.851 186.478C179.528 186.879 180.179 187.321 180.802 187.801L179.478 189.544ZM157.807 188.499L156.623 186.617C157.273 186.204 157.948 185.832 158.643 185.502L159.619 187.523C158.993 187.805 158.387 188.13 157.806 188.495L157.807 188.499ZM175.924 187.384C175.291 187.086 174.64 186.83 173.973 186.617L174.67 184.527C175.437 184.809 176.134 185.085 176.834 185.363L175.924 187.384ZM161.57 186.756L160.873 184.666C161.596 184.393 162.342 184.183 163.102 184.039L163.591 186.202C162.901 186.321 162.224 186.505 161.569 186.754L161.57 186.756ZM171.953 186.129C171.256 185.99 170.559 185.847 169.862 185.781L170.071 183.551C170.838 183.621 171.605 183.76 172.37 183.899L171.953 186.129ZM165.681 185.781L165.399 183.551C166.165 183.482 166.932 183.412 167.698 183.412V185.642C167.074 185.707 166.377 185.707 165.681 185.778V185.781Z" fill="#F6F2ED"/>
</g>
<path d="M174.119 205.1C174.119 208.044 174.119 210.988 174.119 213.932C174.119 215.287 173.742 215.654 172.397 215.656C169.384 215.659 166.37 215.659 163.357 215.656C162.089 215.656 161.703 215.267 161.699 213.972C161.684 208.084 161.675 202.198 161.671 196.313C161.671 194.77 162.026 194.432 163.575 194.432C166.519 194.432 169.464 194.432 172.407 194.432C173.739 194.432 174.134 194.808 174.14 196.163C174.155 199.142 174.14 202.12 174.14 205.1H174.115M173.493 208.675C173.493 206.841 173.466 205.006 173.507 203.174C173.521 202.529 173.325 202.351 172.688 202.356C169.504 202.386 166.32 202.392 163.137 202.356C162.409 202.347 162.296 202.624 162.301 203.261C162.328 206.825 162.328 210.388 162.301 213.952C162.295 214.749 162.55 215.059 163.378 215.048C166.389 215.013 169.399 215.013 172.409 215.048C173.215 215.058 173.524 214.79 173.505 213.971C173.464 212.207 173.493 210.443 173.492 208.678M166.51 200.64H167.755C169.854 200.64 169.84 200.64 169.691 198.56C169.66 198.126 169.548 197.955 169.091 197.96C167.431 197.981 165.769 197.976 164.105 197.96C163.691 197.96 163.515 198.034 163.484 198.518C163.352 200.64 163.331 200.64 165.471 200.64H166.506" fill="#F6F2ED"/>
<path d="M164.35 207.712C163.851 207.597 163.497 207.356 163.512 206.805C163.503 206.682 163.521 206.558 163.566 206.444C163.611 206.329 163.681 206.226 163.772 206.143C163.863 206.059 163.971 205.997 164.089 205.962C164.207 205.927 164.331 205.918 164.453 205.938C164.567 205.942 164.68 205.97 164.782 206.021C164.885 206.071 164.976 206.143 165.049 206.231C165.122 206.32 165.175 206.422 165.206 206.532C165.236 206.643 165.243 206.758 165.225 206.871C165.191 207.421 164.828 207.635 164.35 207.712Z" fill="#F6F2ED"/>
<path d="M172.289 207.14C172.278 207.388 171.937 207.684 171.442 207.687C171.328 207.696 171.214 207.68 171.107 207.641C171 207.602 170.902 207.54 170.821 207.459C170.74 207.379 170.677 207.282 170.637 207.175C170.597 207.069 170.58 206.954 170.588 206.84C170.573 206.718 170.586 206.594 170.626 206.477C170.667 206.361 170.733 206.255 170.82 206.168C170.908 206.081 171.014 206.015 171.131 205.976C171.247 205.936 171.372 205.924 171.494 205.939C171.979 205.965 172.315 206.286 172.289 207.142" fill="#F6F2ED"/>
<path d="M171.486 210.34C170.994 210.283 170.616 210.081 170.593 209.527C170.573 209.406 170.58 209.282 170.615 209.164C170.651 209.046 170.712 208.938 170.796 208.848C170.88 208.758 170.983 208.689 171.098 208.645C171.213 208.602 171.337 208.586 171.459 208.598C171.572 208.588 171.687 208.604 171.794 208.643C171.901 208.682 171.998 208.744 172.078 208.825C172.159 208.905 172.221 209.002 172.26 209.109C172.3 209.216 172.315 209.331 172.306 209.444C172.323 209.995 171.996 210.248 171.491 210.338" fill="#F6F2ED"/>
<path d="M165.233 204.168C165.241 204.282 165.225 204.395 165.185 204.502C165.146 204.609 165.085 204.706 165.005 204.788C164.926 204.869 164.83 204.933 164.725 204.975C164.619 205.017 164.506 205.036 164.392 205.031C164.279 205.045 164.164 205.034 164.055 204.998C163.947 204.963 163.847 204.904 163.764 204.827C163.68 204.749 163.615 204.654 163.572 204.548C163.529 204.442 163.51 204.328 163.516 204.214C163.496 204.093 163.505 203.968 163.542 203.851C163.579 203.733 163.642 203.626 163.728 203.537C163.813 203.449 163.918 203.381 164.034 203.34C164.151 203.299 164.275 203.286 164.397 203.302C164.51 203.297 164.624 203.316 164.73 203.358C164.835 203.401 164.931 203.465 165.01 203.547C165.089 203.629 165.15 203.726 165.189 203.833C165.227 203.941 165.243 204.055 165.234 204.168" fill="#F6F2ED"/>
<path d="M168.767 209.514C168.77 209.627 168.748 209.739 168.704 209.842C168.66 209.946 168.595 210.039 168.513 210.115C168.43 210.192 168.333 210.25 168.226 210.287C168.12 210.323 168.007 210.337 167.894 210.326C167.781 210.337 167.666 210.322 167.559 210.283C167.451 210.244 167.354 210.182 167.273 210.101C167.192 210.02 167.13 209.923 167.091 209.815C167.052 209.708 167.037 209.593 167.048 209.48C167.033 209.357 167.047 209.233 167.088 209.117C167.129 209.001 167.197 208.896 167.286 208.811C167.375 208.726 167.483 208.662 167.6 208.626C167.718 208.589 167.843 208.581 167.964 208.601C168.497 208.629 168.751 208.977 168.764 209.517" fill="#F6F2ED"/>
<path d="M164.294 208.574C164.859 208.624 165.197 208.87 165.225 209.409C165.244 209.53 165.235 209.654 165.197 209.772C165.16 209.889 165.097 209.996 165.011 210.085C164.925 210.173 164.82 210.24 164.704 210.281C164.588 210.322 164.464 210.335 164.342 210.32C164.229 210.329 164.115 210.312 164.008 210.271C163.902 210.231 163.806 210.167 163.727 210.085C163.648 210.003 163.588 209.905 163.551 209.797C163.514 209.689 163.502 209.574 163.515 209.461C163.504 209.241 163.579 209.026 163.724 208.86C163.87 208.695 164.074 208.593 164.293 208.575" fill="#F6F2ED"/>
<path d="M167.944 205.046C167.832 205.053 167.719 205.037 167.613 205C167.507 204.963 167.409 204.904 167.326 204.828C167.243 204.753 167.175 204.661 167.128 204.559C167.081 204.456 167.055 204.345 167.052 204.233C167.03 204.121 167.034 204.006 167.062 203.895C167.091 203.785 167.143 203.682 167.215 203.594C167.288 203.506 167.379 203.436 167.482 203.387C167.585 203.338 167.697 203.312 167.811 203.312C167.931 203.286 168.055 203.289 168.174 203.32C168.293 203.351 168.403 203.409 168.496 203.49C168.588 203.571 168.66 203.672 168.707 203.786C168.753 203.9 168.772 204.023 168.762 204.145C168.77 204.259 168.755 204.373 168.718 204.48C168.681 204.588 168.622 204.687 168.546 204.771C168.469 204.855 168.376 204.923 168.273 204.97C168.169 205.017 168.058 205.043 167.944 205.046Z" fill="#F6F2ED"/>
<path d="M171.443 203.286C171.556 203.282 171.668 203.301 171.773 203.342C171.879 203.383 171.974 203.445 172.054 203.524C172.135 203.604 172.198 203.698 172.24 203.803C172.282 203.907 172.303 204.02 172.3 204.132C172.307 204.248 172.29 204.364 172.251 204.473C172.211 204.582 172.15 204.682 172.071 204.767C171.992 204.851 171.897 204.919 171.791 204.966C171.685 205.013 171.57 205.038 171.454 205.039C171.338 205.041 171.223 205.019 171.116 204.974C171.009 204.93 170.912 204.864 170.831 204.782C170.75 204.699 170.686 204.6 170.644 204.492C170.602 204.384 170.583 204.269 170.586 204.153C170.586 203.613 170.918 203.351 171.443 203.289" fill="#F6F2ED"/>
<path d="M167.902 205.916C168.39 206.01 168.749 206.235 168.763 206.781C168.768 206.896 168.749 207.011 168.708 207.119C168.668 207.227 168.606 207.325 168.526 207.408C168.447 207.492 168.352 207.558 168.246 207.604C168.14 207.65 168.026 207.674 167.911 207.675C167.796 207.675 167.682 207.653 167.576 207.609C167.469 207.565 167.373 207.5 167.292 207.418C167.212 207.336 167.148 207.238 167.106 207.131C167.064 207.024 167.043 206.91 167.046 206.795C167.058 206.248 167.408 206.012 167.902 205.916Z" fill="#F6F2ED"/>
<path d="M167.9 211.258C168.016 211.256 168.13 211.277 168.237 211.32C168.344 211.364 168.441 211.428 168.523 211.51C168.604 211.592 168.668 211.689 168.711 211.796C168.754 211.903 168.775 212.018 168.772 212.133C168.769 212.249 168.744 212.362 168.696 212.467C168.648 212.572 168.58 212.667 168.495 212.745C168.41 212.823 168.31 212.883 168.201 212.921C168.092 212.96 167.977 212.976 167.862 212.968C167.748 212.975 167.635 212.957 167.529 212.915C167.424 212.872 167.329 212.807 167.252 212.724C167.175 212.641 167.117 212.542 167.082 212.433C167.048 212.325 167.038 212.211 167.053 212.098C167.045 211.985 167.062 211.872 167.102 211.766C167.142 211.661 167.204 211.565 167.284 211.485C167.365 211.405 167.461 211.344 167.567 211.305C167.673 211.265 167.787 211.25 167.9 211.258Z" fill="#F6F2ED"/>
<path d="M172.31 212.107C172.25 212.671 171.972 212.975 171.437 212.967C171.315 212.98 171.191 212.963 171.077 212.92C170.962 212.876 170.859 212.806 170.777 212.715C170.695 212.624 170.635 212.515 170.602 212.397C170.57 212.279 170.565 212.155 170.59 212.035C170.589 211.921 170.612 211.809 170.66 211.706C170.707 211.603 170.776 211.512 170.863 211.439C170.949 211.366 171.051 211.312 171.16 211.283C171.27 211.254 171.384 211.249 171.496 211.27C171.605 211.268 171.713 211.289 171.814 211.331C171.915 211.373 172.006 211.435 172.081 211.514C172.157 211.592 172.216 211.685 172.255 211.787C172.293 211.889 172.311 211.998 172.306 212.107" fill="#F6F2ED"/>
<path d="M164.381 211.26C164.493 211.252 164.605 211.267 164.71 211.305C164.815 211.344 164.911 211.404 164.991 211.483C165.07 211.562 165.133 211.656 165.173 211.761C165.213 211.865 165.23 211.977 165.223 212.089C165.239 212.201 165.23 212.315 165.197 212.423C165.164 212.531 165.107 212.631 165.031 212.715C164.955 212.799 164.861 212.864 164.757 212.908C164.652 212.951 164.539 212.971 164.426 212.966C164.306 212.986 164.182 212.978 164.065 212.942C163.949 212.907 163.842 212.844 163.754 212.759C163.666 212.674 163.599 212.57 163.558 212.454C163.518 212.339 163.505 212.216 163.521 212.095C163.527 211.557 163.844 211.293 164.381 211.26Z" fill="#F6F2ED"/>
<path d="M47.5383 70.983C57.0766 70.983 64.809 63.2507 64.809 53.7124C64.809 44.1742 57.0766 36.4419 47.5383 36.4419C37.9999 36.4419 30.2676 44.1742 30.2676 53.7124C30.2676 63.2507 37.9999 70.983 47.5383 70.983Z" fill="url(#paint24_linear_657_5598)"/>
<g opacity="0.696">
<path d="M47.3042 77.6737C46.4642 77.6737 45.6241 77.5975 44.785 77.5213L45.0136 75.0754C45.7775 75.1516 46.5404 75.2278 47.3042 75.2278H47.5291V77.6737H47.3042ZM50.1264 77.5213L49.8207 75.0754C50.5845 74.9992 51.3475 74.8468 52.1113 74.6935L52.6457 77.0603L50.1264 77.5213ZM42.1858 77.1393C41.3498 76.9919 40.5305 76.7619 39.7399 76.4526L40.5038 74.162C41.2676 74.3906 41.9544 74.6201 42.7182 74.7725L42.1858 77.1393ZM55.0897 76.3755L54.2496 74.0848C54.9363 73.8553 55.7002 73.5505 56.3879 73.2448L57.4565 75.4592C56.6955 75.7678 55.8554 76.0745 55.0915 76.3783L55.0897 76.3755ZM37.3759 75.4592C36.612 75.0773 35.8491 74.6954 35.0852 74.2363L36.3082 72.1752C36.9949 72.5571 37.6826 72.9391 38.3693 73.2439L37.3759 75.4592ZM59.671 74.1611L58.3728 72.0999C59.0381 71.7116 59.6758 71.2778 60.2815 70.8018L61.8083 72.7105C61.1234 73.1714 60.4367 73.7057 59.6728 74.1639L59.671 74.1611ZM32.9479 72.8657C32.2612 72.3314 31.6497 71.797 30.963 71.1856L32.6431 69.4293C33.1936 69.9536 33.7805 70.4384 34.3994 70.8798L32.9479 72.8657ZM63.7179 71.0332L62.0378 69.2769C62.586 68.7538 63.0962 68.1923 63.5646 67.5968L65.3971 69.1235C64.9013 69.813 64.3396 70.4526 63.7198 71.0332H63.7179ZM29.2876 69.3531C28.7185 68.7127 28.2075 68.023 27.7608 67.292L29.7429 65.9148L31.1173 67.7473L29.2876 69.3531ZM67.002 67.0634L65.0171 65.689C65.4713 65.072 65.8553 64.4062 66.1619 63.7041L68.3002 64.8489C67.9129 65.6128 67.4794 66.3523 67.002 67.0634ZM26.3836 65.1547C26.0016 64.3908 25.6197 63.6279 25.3149 62.864L27.6055 61.9478C27.9113 62.6345 28.2161 63.3222 28.598 64.0089L26.3836 65.1547ZM69.3745 62.5583L67.0838 61.642C67.3926 60.931 67.6228 60.1885 67.7706 59.4276L70.1374 60.0381C69.9274 60.8915 69.6711 61.7328 69.3698 62.5583H69.3745ZM24.4748 60.421C24.2462 59.581 24.0929 58.7409 23.9405 57.9018L26.3074 57.5199C26.4405 58.2681 26.6189 59.0076 26.8417 59.7343L24.4748 60.421ZM70.6642 57.5989L68.2974 57.2169C68.4498 56.4531 68.4498 55.6902 68.526 54.9263L70.9718 55.0025C70.8966 55.9159 70.8204 56.756 70.6708 57.596L70.6642 57.5989ZM23.6348 55.3788V52.7824L26.0806 52.9348V55.2255L23.6348 55.3788ZM68.4535 52.63C68.3773 51.8662 68.3011 51.1033 68.1478 50.3394L70.5147 49.9575C70.6671 50.7975 70.7433 51.6376 70.8204 52.4767L68.4535 52.63ZM26.3092 50.6451L23.9424 50.2632C24.0948 49.4231 24.2481 48.5831 24.4767 47.744L26.8436 48.3545C26.5926 49.1003 26.4131 49.8682 26.3074 50.6479L26.3092 50.6451ZM67.6925 48.1259C67.4841 47.3975 67.229 46.6832 66.9286 45.9877L69.1431 45.0714C69.4688 45.8703 69.7493 46.6868 69.9832 47.5173L67.6925 48.1259ZM27.5284 46.2191L25.234 45.3028C25.5439 44.5185 25.9008 43.7536 26.3027 43.0122L28.4409 44.157C28.091 44.8232 27.7862 45.5121 27.5284 46.2191ZM65.9333 43.9285C65.5514 43.2417 65.1695 42.6303 64.7104 41.9436L66.6953 40.5692C67.1535 41.2559 67.6116 42.0197 68.0697 42.7836L65.9333 43.9285ZM29.6657 42.1721L27.6799 40.7978C28.138 40.111 28.6723 39.4234 29.2067 38.7367L31.0392 40.3359C30.4981 40.8811 30.0361 41.4995 29.6667 42.1731L29.6657 42.1721ZM63.337 40.111C62.8026 39.5005 62.2683 38.9662 61.7377 38.4309L63.4179 36.6746C64.0284 37.2851 64.6408 37.8975 65.1742 38.5071L63.337 40.111ZM32.5716 38.6605L30.8915 36.9041C31.502 36.2936 32.1897 35.7593 32.8002 35.224L34.2508 37.1328C33.7137 37.5918 33.1784 38.1261 32.5716 38.6605ZM59.9823 36.9804C59.3767 36.5043 58.7389 36.0705 58.0736 35.6822L59.2966 33.6211C60.0384 34.0603 60.7525 34.5447 61.4348 35.0716L59.9823 36.9804ZM36.2367 35.8355L34.9385 33.7744C35.6508 33.3217 36.3904 32.9133 37.1529 32.5515L38.2159 34.7669C37.5312 35.0772 36.8686 35.4343 36.2329 35.8355H36.2367ZM56.0859 34.6126C55.392 34.2868 54.6777 34.0062 53.9476 33.7725L54.7115 31.4819C55.5515 31.7876 56.3107 32.0924 57.0783 32.3981L56.0859 34.6126ZM40.3561 33.9306L39.5922 31.6399C40.386 31.3405 41.2044 31.1108 42.0381 30.9532L42.5724 33.32C41.8158 33.452 41.0736 33.6565 40.3561 33.9306ZM51.7322 33.2438C50.9684 33.0915 50.2054 32.9381 49.4416 32.8619L49.6702 30.4161C50.5102 30.4923 51.3503 30.6447 52.1894 30.798L51.7322 33.2438ZM44.865 32.8619L44.5592 30.4161C45.3993 30.3399 46.2394 30.2637 47.0785 30.2637V32.7095C46.388 32.781 45.6241 32.781 44.8603 32.8582L44.865 32.8619Z" fill="#F6F2ED"/>
</g>
<path d="M43.1621 41.3875C43.1743 41.2222 43.2331 41.0638 43.3317 40.9307C43.4303 40.7975 43.5646 40.6949 43.719 40.6349C44.1974 40.4052 44.7238 40.2933 45.2543 40.3085H49.3596C49.8904 40.2947 50.4169 40.4083 50.8948 40.6396C51.0493 40.6996 51.1836 40.8022 51.2822 40.9354C51.3807 41.0686 51.4395 41.2269 51.4518 41.3922V64.0144C51.4525 64.2335 51.3975 64.4492 51.2918 64.6411C51.1862 64.833 51.0333 64.9948 50.8478 65.1113C50.4035 65.3931 49.8856 65.5371 49.3596 65.5252H45.2543C44.7282 65.5371 44.2104 65.3931 43.7661 65.1113C43.5805 64.9948 43.4277 64.833 43.322 64.6411C43.2164 64.4492 43.1613 64.2335 43.1621 64.0144V41.3875Z" fill="#2F4F4F" stroke="#F6F2ED"/>
<path d="M49.7044 56.8887H44.9057C44.5161 56.8887 44.2002 57.2046 44.2002 57.5942V62.6599C44.2002 63.0496 44.5161 63.3655 44.9057 63.3655H49.7044C50.094 63.3655 50.4099 63.0496 50.4099 62.6599V57.5942C50.4099 57.2046 50.094 56.8887 49.7044 56.8887Z" fill="#F6F2ED"/>
<path d="M49.1004 53.7567C49.1004 52.8283 48.3478 52.0757 47.4193 52.0757C46.4909 52.0757 45.7383 52.8283 45.7383 53.7567C45.7383 54.6852 46.4909 55.4378 47.4193 55.4378C48.3478 55.4378 49.1004 54.6852 49.1004 53.7567Z" fill="#F6F2ED"/>
<path d="M48.9329 43.1099H45.6808C45.0314 43.1099 44.5049 43.6363 44.5049 44.2858V49.7786C44.5049 50.428 45.0314 50.9545 45.6808 50.9545H48.9329C49.5823 50.9545 50.1088 50.428 50.1088 49.7786V44.2858C50.1088 43.6363 49.5823 43.1099 48.9329 43.1099Z" fill="#F6F2ED"/>
<path d="M47.1338 41.6904H47.5656" stroke="#F6F2ED" stroke-linecap="round" stroke-linejoin="round"/>
<path d="M225.652 150.248C233.071 150.248 239.085 144.234 239.085 136.815C239.085 129.397 233.071 123.383 225.652 123.383C218.234 123.383 212.22 129.397 212.22 136.815C212.22 144.234 218.234 150.248 225.652 150.248Z" fill="url(#paint25_linear_657_5598)"/>
<g opacity="0.696">
<path d="M225.472 155.452C224.82 155.452 224.166 155.393 223.513 155.334L223.691 153.433C224.284 153.493 224.879 153.552 225.472 153.552H225.65V155.452H225.472ZM227.67 155.334L227.432 153.433C228.026 153.374 228.62 153.256 229.214 153.136L229.629 154.977L227.67 155.334ZM221.494 155.036C220.845 154.922 220.208 154.743 219.594 154.502L220.187 152.72C220.781 152.898 221.316 153.077 221.91 153.195L221.494 155.036ZM231.53 154.443L230.877 152.661C231.411 152.483 232.006 152.245 232.54 152.008L233.372 153.731C232.776 153.969 232.123 154.205 231.53 154.443ZM217.753 153.73C217.159 153.433 216.565 153.136 215.971 152.78L216.921 151.18C217.456 151.478 217.99 151.774 218.521 152.012L217.753 153.73ZM235.097 152.724L234.088 151.125C234.604 150.821 235.098 150.481 235.567 150.109L236.755 151.593C236.221 151.95 235.687 152.366 235.097 152.724ZM214.307 151.712C213.773 151.296 213.298 150.88 212.763 150.405L214.07 149.039C214.498 149.447 214.955 149.825 215.436 150.168L214.307 151.712ZM238.239 150.287L236.932 148.921C237.359 148.514 237.756 148.077 238.12 147.614L239.546 148.802C239.16 149.338 238.721 149.836 238.239 150.287ZM211.457 148.98C211.014 148.483 210.616 147.948 210.269 147.381L211.812 146.312L212.881 147.737L211.457 148.98ZM240.792 147.198L239.248 146.13C239.602 145.65 239.901 145.132 240.139 144.586L241.802 145.477C241.501 146.071 241.164 146.646 240.793 147.199L240.792 147.198ZM209.202 145.714C208.904 145.12 208.608 144.526 208.37 143.932L210.152 143.219C210.39 143.754 210.627 144.288 210.924 144.818L209.202 145.714ZM242.635 143.695L240.853 142.983C241.093 142.43 241.273 141.853 241.388 141.261L243.229 141.736C243.066 142.398 242.867 143.052 242.634 143.693L242.635 143.695ZM207.716 142.033C207.539 141.38 207.419 140.726 207.301 140.073L209.142 139.776C209.245 140.358 209.384 140.933 209.557 141.499L207.716 142.033ZM243.643 139.836L241.802 139.539C241.921 138.946 241.921 138.351 241.98 137.757L243.88 137.817C243.822 138.529 243.763 139.178 243.643 139.836ZM207.063 138.113V136.094L208.964 136.213V137.994L207.063 138.113ZM241.922 135.979C241.863 135.386 241.803 134.791 241.685 134.198L243.526 133.901C243.644 134.553 243.704 135.207 243.764 135.86L241.922 135.979ZM209.142 134.432L207.301 134.135C207.419 133.482 207.539 132.828 207.716 132.175L209.557 132.65C209.363 133.23 209.223 133.826 209.142 134.432ZM241.327 132.473C241.165 131.906 240.967 131.35 240.734 130.809L242.456 130.096C242.709 130.717 242.927 131.351 243.109 131.997L241.327 132.473ZM210.095 130.988L208.314 130.275C208.555 129.665 208.833 129.07 209.145 128.493L210.808 129.384C210.534 129.902 210.294 130.437 210.092 130.987L210.095 130.988ZM239.962 129.206C239.665 128.672 239.369 128.197 239.012 127.663L240.556 126.594C240.913 127.128 241.269 127.723 241.625 128.316L239.962 129.206ZM211.755 127.84L210.211 126.772C210.568 126.237 210.983 125.703 211.399 125.173L212.824 126.42C212.404 126.841 212.044 127.319 211.755 127.84ZM237.943 126.241C237.527 125.766 237.111 125.35 236.695 124.935L238.002 123.569C238.477 124.044 238.952 124.519 239.368 124.994L237.943 126.241ZM214.011 125.112L212.708 123.743C213.183 123.272 213.717 122.852 214.192 122.436L215.321 123.921C214.903 124.277 214.487 124.691 214.012 125.109L214.011 125.112ZM235.329 123.806C234.858 123.436 234.362 123.098 233.845 122.796L234.795 121.197C235.372 121.539 235.927 121.916 236.458 122.326L235.329 123.806ZM216.861 122.915L215.853 121.304C216.407 120.953 216.982 120.635 217.575 120.354L218.407 122.077C217.873 122.319 217.357 122.598 216.862 122.911L216.861 122.915ZM232.301 121.965C231.762 121.709 231.207 121.488 230.639 121.304L231.232 119.523C231.885 119.76 232.48 119.998 233.073 120.236L232.301 121.965ZM220.072 121.43L219.478 119.649C220.095 119.416 220.731 119.237 221.378 119.114L221.794 120.955C221.205 121.057 220.628 121.215 220.069 121.427L220.072 121.43ZM228.92 120.896C228.327 120.778 227.732 120.658 227.138 120.599L227.316 118.699C227.969 118.758 228.623 118.876 229.276 118.996L228.92 120.896ZM223.576 120.599L223.338 118.699C223.991 118.639 224.645 118.58 225.297 118.58V120.48C224.759 120.536 224.166 120.536 223.572 120.595L223.576 120.599Z" fill="#F6F2ED"/>
</g>
<path d="M218.505 139.734C218.512 139.187 218.663 138.651 218.944 138.182C219.951 136.432 220.957 134.681 221.96 132.929C222.792 131.483 223.621 130.037 224.447 128.59C224.523 128.426 224.646 128.286 224.799 128.19C224.953 128.094 225.132 128.045 225.313 128.048C225.46 128.043 225.607 128.076 225.737 128.146C225.867 128.216 225.977 128.319 226.054 128.445C226.304 128.834 226.533 129.235 226.742 129.648C226.855 129.874 226.907 130.127 226.894 130.38C226.88 130.633 226.801 130.878 226.665 131.092L224.601 134.656L220.225 142.229C220.191 142.287 220.16 142.346 220.121 142.401C220.081 142.471 220.023 142.529 219.953 142.569C219.883 142.609 219.804 142.63 219.724 142.63C219.643 142.63 219.564 142.609 219.494 142.569C219.424 142.529 219.366 142.471 219.326 142.401C219.172 142.151 219.042 141.888 218.938 141.614C218.689 141.016 218.543 140.38 218.505 139.734Z" fill="#F6F2ED"/>
<path d="M228.199 143.892C228.204 144.316 228.045 144.726 227.755 145.035C227.607 145.195 227.45 145.346 227.293 145.498C227.065 145.743 226.763 145.907 226.433 145.962C226.102 146.017 225.763 145.96 225.469 145.802C224.551 145.372 223.636 144.937 222.721 144.504C222.539 144.419 222.356 144.337 222.178 144.244C221.99 144.153 221.824 144.024 221.688 143.866C221.553 143.708 221.451 143.523 221.39 143.324C221.329 143.125 221.31 142.915 221.334 142.708C221.358 142.502 221.424 142.302 221.529 142.122C221.933 141.398 222.347 140.68 222.773 139.968C222.865 139.8 222.996 139.656 223.155 139.548C223.314 139.441 223.496 139.372 223.686 139.349C223.877 139.325 224.07 139.348 224.25 139.414C224.431 139.48 224.592 139.588 224.723 139.729C225.711 140.709 226.698 141.694 227.678 142.677C227.842 142.834 227.973 143.022 228.062 143.231C228.151 143.44 228.197 143.664 228.197 143.891" fill="#F6F2ED"/>
<path d="M228.778 138.341C229.449 138.341 230.12 138.331 230.791 138.341C231.082 138.338 231.37 138.412 231.624 138.555C231.878 138.698 232.091 138.905 232.24 139.155C232.4 139.396 232.472 139.684 232.444 139.971C232.417 140.258 232.291 140.527 232.088 140.733C231.609 141.227 231.123 141.714 230.624 142.187C230.494 142.316 230.339 142.418 230.168 142.486C229.997 142.553 229.815 142.586 229.631 142.582C229.448 142.577 229.267 142.536 229.1 142.461C228.933 142.385 228.782 142.276 228.658 142.141C228.065 141.56 227.481 140.968 226.893 140.381C226.656 140.144 226.415 139.911 226.182 139.668C226.068 139.558 225.99 139.416 225.958 139.261C225.927 139.105 225.945 138.944 226.008 138.799C226.071 138.654 226.178 138.531 226.313 138.449C226.448 138.366 226.605 138.326 226.763 138.336C227.435 138.336 228.106 138.336 228.778 138.336" fill="#F6F2ED"/>
<path d="M227.606 137.277C227.135 137.277 226.665 137.281 226.195 137.277C225.927 137.281 225.668 137.185 225.468 137.007C225.269 136.83 225.142 136.584 225.115 136.318C225.088 136.074 225.145 135.829 225.276 135.621C225.625 135.02 225.973 134.418 226.32 133.815C226.437 133.612 226.55 133.407 226.673 133.206C226.78 133.017 226.935 132.86 227.123 132.751C227.311 132.642 227.524 132.584 227.741 132.585C227.959 132.586 228.172 132.644 228.359 132.754C228.546 132.864 228.7 133.022 228.806 133.212C229.239 133.939 229.661 134.671 230.074 135.409C230.191 135.598 230.255 135.815 230.258 136.037C230.261 136.259 230.204 136.478 230.092 136.67C229.98 136.862 229.818 137.02 229.624 137.127C229.429 137.234 229.209 137.286 228.987 137.277C228.526 137.277 228.065 137.277 227.603 137.277" fill="#F6F2ED"/>
<path d="M81.4329 218.458C87.8981 218.458 93.1392 213.217 93.1392 206.752C93.1392 200.287 87.8981 195.046 81.4329 195.046C74.9677 195.046 69.7266 200.287 69.7266 206.752C69.7266 213.217 74.9677 218.458 81.4329 218.458Z" fill="url(#paint26_linear_657_5598)"/>
<g opacity="0.696">
<path d="M81.2735 222.995C80.7044 222.995 80.1352 222.944 79.5661 222.892L79.7213 221.236C80.2387 221.288 80.7561 221.34 81.2735 221.34H81.4287V222.995H81.2735ZM83.1888 222.892L82.9818 221.236C83.4992 221.184 84.0166 221.081 84.534 220.977L84.8962 222.581L83.1888 222.892ZM77.806 222.633C77.2399 222.531 76.6853 222.374 76.1503 222.163L76.6677 220.611C77.1851 220.766 77.6508 220.921 78.1729 221.024L77.806 222.633ZM86.5547 222.116L85.9856 220.563C86.4559 220.408 86.9686 220.201 87.4343 219.994L88.1586 221.499C87.6384 221.702 87.0693 221.909 86.5519 222.116H86.5547ZM74.5483 221.495C74.0309 221.236 73.5135 220.977 72.9961 220.667L73.8239 219.27C74.2943 219.529 74.7552 219.787 75.2209 219.994L74.5483 221.495ZM89.66 220.615L88.7804 219.218C89.2313 218.955 89.6635 218.661 90.0739 218.339L91.1087 219.632C90.6402 219.942 90.1746 220.301 89.6572 220.615H89.66ZM71.5436 219.737C71.0733 219.374 70.664 219.012 70.1984 218.598L71.3367 217.408C71.7096 217.764 72.1073 218.092 72.5267 218.391L71.5436 219.737ZM92.4003 218.495L91.2621 217.305C91.6336 216.951 91.9794 216.57 92.2969 216.167L93.5386 217.201C93.202 217.668 92.8208 218.1 92.4003 218.493V218.495ZM69.0592 217.357C68.6735 216.923 68.3272 216.455 68.0244 215.96L69.3696 215.028L70.3009 216.27L69.0592 217.357ZM94.6251 215.804L93.2799 214.873C93.5878 214.455 93.8481 214.004 94.056 213.528L95.5047 214.304C95.2422 214.821 94.9485 215.321 94.6251 215.802V215.804ZM67.0931 214.508C66.8344 213.991 66.5757 213.473 66.3687 212.956L67.9209 212.335C68.1279 212.805 68.3348 213.266 68.5935 213.732L67.0931 214.508ZM96.23 212.748L94.6778 212.127C94.889 211.644 95.0468 211.139 95.1482 210.622L96.7521 211.036C96.6093 211.616 96.435 212.187 96.23 212.748ZM65.7986 211.299C65.6434 210.73 65.5399 210.161 65.4365 209.592L67.0404 209.333C67.1305 209.842 67.2514 210.345 67.4026 210.838L65.7986 211.299ZM97.1096 209.389L95.5057 209.13C95.6091 208.613 95.6091 208.095 95.6609 207.578L97.3165 207.63C97.2648 208.246 97.214 208.815 97.1096 209.389ZM65.2295 207.884V206.124L66.8852 206.227V207.779L65.2295 207.884ZM95.6091 206.02C95.5574 205.503 95.5057 204.985 95.4022 204.468L97.0061 204.209C97.1096 204.778 97.1613 205.347 97.2131 205.918L95.6091 206.02ZM67.0413 204.675L65.4374 204.416C65.5409 203.847 65.6444 203.278 65.7996 202.708L67.4035 203.122C67.2339 203.627 67.1127 204.147 67.0413 204.675ZM95.0917 202.967C94.9506 202.474 94.7778 201.99 94.5743 201.519L96.0795 200.898C96.3001 201.439 96.4902 201.991 96.6486 202.554L95.0917 202.967ZM67.8692 201.675L66.317 201.054C66.527 200.523 66.7689 200.004 67.0413 199.502L68.49 200.278C68.2521 200.729 68.0447 201.196 67.8692 201.675ZM93.9017 200.123C93.643 199.652 93.3843 199.243 93.0739 198.778L94.4191 197.846C94.7296 198.317 95.04 198.829 95.3504 199.351L93.9017 200.123ZM69.3179 198.93L67.9726 197.999C68.2831 197.528 68.6453 197.067 69.0074 196.602L70.2492 197.688C69.8823 198.057 69.5688 198.475 69.3179 198.93ZM92.1416 197.536C91.7795 197.122 91.4173 196.76 91.0551 196.398L92.1934 195.208C92.6073 195.621 93.0212 196.035 93.3834 196.449L92.1416 197.536ZM71.2849 196.553L70.1466 195.363C70.5606 194.949 71.0262 194.587 71.4401 194.224L72.4232 195.518C72.061 195.825 71.6988 196.188 71.2849 196.55V196.553ZM89.8642 195.415C89.4537 195.092 89.0215 194.798 88.5707 194.535L89.3985 193.138C89.9011 193.436 90.3849 193.764 90.8472 194.121L89.8642 195.415ZM73.7684 194.638L72.8888 193.241C73.3731 192.935 73.8757 192.658 74.394 192.414L75.1184 193.919C74.6525 194.126 74.2014 194.365 73.7684 194.635V194.638ZM87.2207 193.811C86.7506 193.59 86.2667 193.4 85.772 193.241L86.2894 191.689C86.8585 191.896 87.3759 192.103 87.8933 192.31L87.2207 193.811ZM76.5595 193.34L76.0478 191.788C76.585 191.584 77.139 191.426 77.7035 191.318L78.0656 192.922C77.5525 193.013 77.0494 193.153 76.5633 193.341L76.5595 193.34ZM84.2734 192.87C83.7561 192.766 83.2387 192.663 82.7213 192.611L82.8765 190.956C83.4456 191.007 84.0147 191.111 84.5839 191.214L84.2734 192.87ZM79.6159 192.611L79.409 190.956C79.9781 190.904 80.5473 190.852 81.1164 190.852V192.508C80.6517 192.564 80.1343 192.564 79.6169 192.617L79.6159 192.611Z" fill="#F6F2ED"/>
</g>
<path d="M80.7888 209.976L78.198 207.398H73.1436L80.7888 215.018V209.976Z" fill="#F6F2ED"/>
<path d="M81.7373 215.06L89.3788 207.398H84.3356L81.7373 210.001V215.06Z" fill="#F6F2ED"/>
<path d="M81.7373 198.797V203.841L84.3525 206.451H89.4117L81.7373 198.797Z" fill="#F6F2ED"/>
<path d="M80.7813 198.793L73.1436 206.451H78.1868L80.7813 203.848V198.793Z" fill="#F6F2ED"/>
<g opacity="0.4">
<path d="M125 38L125 84" stroke="#F6F2ED" stroke-width="2" stroke-dasharray="2 2"/>
<path d="M149 89.5L189.044 64.5977" stroke="#F6F2ED" stroke-width="2" stroke-dasharray="2 2"/>
<path d="M149.531 111.633L200.33 133.27" stroke="#F6F2ED" stroke-width="2" stroke-dasharray="2 2"/>
<path d="M139 144L157.06 180.305" stroke="#F6F2ED" stroke-width="2" stroke-dasharray="2 2"/>
<path d="M116.499 145L92.1494 188.772" stroke="#F6F2ED" stroke-width="2" stroke-dasharray="2 2"/>
<path d="M49.8154 131.388L97.7922 110.692" stroke="#F6F2ED" stroke-width="2" stroke-dasharray="2 2"/>
<path d="M70.5107 70.2417L100 90.4998" stroke="#F6F2ED" stroke-width="2" stroke-dasharray="2 2"/>
</g>
<path fill-rule="evenodd" clip-rule="evenodd" d="M145 114C145 129 125 139 125 139C125 139 105 129 105 114V96.5L125 89L145 96.5V114ZM124.596 112.528L116.187 106.593C116.083 106.52 116.021 106.4 116.021 106.273V103.325C116.021 103.005 116.385 102.82 116.644 103.009L124.813 108.971C124.95 109.072 125.136 109.072 125.274 108.972L133.462 103.021C133.721 102.833 134.084 103.018 134.084 103.338V106.206C134.084 106.332 134.022 106.451 133.919 106.525L125.492 112.528L125.252 112.679C125.125 112.758 124.963 112.758 124.836 112.679L124.596 112.528ZM116.414 119.314C116.198 119.314 116.023 119.49 116.023 119.706V122.055C116.023 122.271 116.198 122.446 116.414 122.446L133.674 122.446C133.891 122.446 134.066 122.271 134.066 122.055V119.692C134.066 119.475 133.891 119.3 133.674 119.3L126.898 119.3C126.521 119.3 126.362 118.819 126.664 118.594L133.925 113.184C134.024 113.111 134.083 112.994 134.083 112.87V109.997C134.083 109.677 133.72 109.492 133.461 109.68L125.273 115.631C125.135 115.731 124.949 115.731 124.812 115.631L116.643 109.668C116.384 109.479 116.021 109.664 116.021 109.984V112.938C116.021 113.062 116.08 113.179 116.18 113.253L123.417 118.595C123.721 118.819 123.563 119.301 123.185 119.302L116.414 119.314Z" fill="#F6F2ED"/>
<defs>
<linearGradient id="paint0_linear_657_5598" x1="224.489" y1="141.036" x2="250.187" y2="152.566" gradientUnits="userSpaceOnUse">
<stop stop-color="#A58969"/>
<stop offset="1" stop-color="#C7B664"/>
</linearGradient>
<linearGradient id="paint1_linear_657_5598" x1="239.026" y1="114.241" x2="256.588" y2="122.121" gradientUnits="userSpaceOnUse">
<stop stop-color="#A58969"/>
<stop offset="1" stop-color="#C7B664"/>
</linearGradient>
<linearGradient id="paint2_linear_657_5598" x1="4.44624" y1="74.3888" x2="37.0383" y2="89.0122" gradientUnits="userSpaceOnUse">
<stop stop-color="#A58969"/>
<stop offset="1" stop-color="#C7B664"/>
</linearGradient>
<linearGradient id="paint3_linear_657_5598" x1="213.472" y1="46.511" x2="231.035" y2="54.391" gradientUnits="userSpaceOnUse">
<stop stop-color="#A58969"/>
<stop offset="1" stop-color="#C7B664"/>
</linearGradient>
<linearGradient id="paint4_linear_657_5598" x1="83.9705" y1="50.1263" x2="86.2431" y2="49.4323" gradientUnits="userSpaceOnUse">
<stop stop-color="#A58969"/>
<stop offset="1" stop-color="#C7B664"/>
</linearGradient>
<linearGradient id="paint5_linear_657_5598" x1="87.4022" y1="56.0687" x2="89.6747" y2="55.3747" gradientUnits="userSpaceOnUse">
<stop stop-color="#A58969"/>
<stop offset="1" stop-color="#C7B664"/>
</linearGradient>
<linearGradient id="paint6_linear_657_5598" x1="88.3958" y1="52.1657" x2="91.899" y2="52.8496" gradientUnits="userSpaceOnUse">
<stop stop-color="#A58969"/>
<stop offset="1" stop-color="#C7B664"/>
</linearGradient>
<linearGradient id="paint7_linear_657_5598" x1="82.4525" y1="55.5964" x2="85.9557" y2="56.2803" gradientUnits="userSpaceOnUse">
<stop stop-color="#A58969"/>
<stop offset="1" stop-color="#C7B664"/>
</linearGradient>
<linearGradient id="paint8_linear_657_5598" x1="50.9787" y1="237.665" x2="54.0711" y2="238.38" gradientUnits="userSpaceOnUse">
<stop stop-color="#A58969"/>
<stop offset="1" stop-color="#C7B664"/>
</linearGradient>
<linearGradient id="paint9_linear_657_5598" x1="50.9787" y1="246.83" x2="54.0711" y2="247.545" gradientUnits="userSpaceOnUse">
<stop stop-color="#A58969"/>
<stop offset="1" stop-color="#C7B664"/>
</linearGradient>
<linearGradient id="paint10_linear_657_5598" x1="54.7324" y1="242.978" x2="58.3283" y2="246.11" gradientUnits="userSpaceOnUse">
<stop stop-color="#A58969"/>
<stop offset="1" stop-color="#C7B664"/>
</linearGradient>
<linearGradient id="paint11_linear_657_5598" x1="45.5654" y1="242.978" x2="49.1613" y2="246.11" gradientUnits="userSpaceOnUse">
<stop stop-color="#A58969"/>
<stop offset="1" stop-color="#C7B664"/>
</linearGradient>
<linearGradient id="paint12_linear_657_5598" x1="-0.103752" y1="66.462" x2="10.6481" y2="71.2862" gradientUnits="userSpaceOnUse">
<stop stop-color="#A58969"/>
<stop offset="1" stop-color="#C7B664"/>
</linearGradient>
<linearGradient id="paint13_linear_657_5598" x1="12.698" y1="117.903" x2="21.2263" y2="121.729" gradientUnits="userSpaceOnUse">
<stop stop-color="#A58969"/>
<stop offset="1" stop-color="#C7B664"/>
</linearGradient>
<linearGradient id="paint14_linear_657_5598" x1="249.786" y1="135.972" x2="259.314" y2="140.247" gradientUnits="userSpaceOnUse">
<stop stop-color="#A58969"/>
<stop offset="1" stop-color="#C7B664"/>
</linearGradient>
<linearGradient id="paint15_linear_657_5598" x1="190.846" y1="147.66" x2="192.275" y2="149.558" gradientUnits="userSpaceOnUse">
<stop stop-color="#A58969"/>
<stop offset="1" stop-color="#C7B664"/>
</linearGradient>
<linearGradient id="paint16_linear_657_5598" x1="186.433" y1="152.916" x2="187.862" y2="154.814" gradientUnits="userSpaceOnUse">
<stop stop-color="#A58969"/>
<stop offset="1" stop-color="#C7B664"/>
</linearGradient>
<linearGradient id="paint17_linear_657_5598" x1="190.447" y1="152.513" x2="191.002" y2="156.039" gradientUnits="userSpaceOnUse">
<stop stop-color="#A58969"/>
<stop offset="1" stop-color="#C7B664"/>
</linearGradient>
<linearGradient id="paint18_linear_657_5598" x1="185.191" y1="148.102" x2="185.746" y2="151.628" gradientUnits="userSpaceOnUse">
<stop stop-color="#A58969"/>
<stop offset="1" stop-color="#C7B664"/>
</linearGradient>
<linearGradient id="paint19_linear_657_5598" x1="209.312" y1="41.5705" x2="217.841" y2="45.3969" gradientUnits="userSpaceOnUse">
<stop stop-color="#A58969"/>
<stop offset="1" stop-color="#C7B664"/>
</linearGradient>
<linearGradient id="paint20_linear_657_5598" x1="113.513" y1="5.29944" x2="150.555" y2="21.9195" gradientUnits="userSpaceOnUse">
<stop stop-color="#A58969"/>
<stop offset="1" stop-color="#C7B664"/>
</linearGradient>
<linearGradient id="paint21_linear_657_5598" x1="192.717" y1="41.3121" x2="229.759" y2="57.9322" gradientUnits="userSpaceOnUse">
<stop stop-color="#A58969"/>
<stop offset="1" stop-color="#C7B664"/>
</linearGradient>
<linearGradient id="paint22_linear_657_5598" x1="16.3926" y1="127.669" x2="53.4348" y2="144.289" gradientUnits="userSpaceOnUse">
<stop stop-color="#A58969"/>
<stop offset="1" stop-color="#C7B664"/>
</linearGradient>
<linearGradient id="paint23_linear_657_5598" x1="151.874" y1="190.538" x2="201.752" y2="212.917" gradientUnits="userSpaceOnUse">
<stop stop-color="#A58969"/>
<stop offset="1" stop-color="#C7B664"/>
</linearGradient>
<linearGradient id="paint24_linear_657_5598" x1="29.7402" y1="38.073" x2="84.3897" y2="62.5931" gradientUnits="userSpaceOnUse">
<stop stop-color="#A58969"/>
<stop offset="1" stop-color="#C7B664"/>
</linearGradient>
<linearGradient id="paint25_linear_657_5598" x1="211.81" y1="124.651" x2="254.314" y2="143.722" gradientUnits="userSpaceOnUse">
<stop stop-color="#A58969"/>
<stop offset="1" stop-color="#C7B664"/>
</linearGradient>
<linearGradient id="paint26_linear_657_5598" x1="69.3691" y1="196.151" x2="106.411" y2="212.772" gradientUnits="userSpaceOnUse">
<stop stop-color="#A58969"/>
<stop offset="1" stop-color="#C7B664"/>
</linearGradient>
</defs>
</svg>
