<svg width="279" height="202" viewBox="0 0 279 202" fill="none" xmlns="http://www.w3.org/2000/svg">
<path d="M132.119 201.554C187.777 201.554 232.896 156.435 232.896 100.777C232.896 45.1194 187.777 0 132.119 0C76.4614 0 31.342 45.1194 31.342 100.777C31.342 156.435 76.4614 201.554 132.119 201.554Z" fill="#C3B075" fill-opacity="0.03"/>
<path opacity="0.2" d="M260.165 105.517C261.332 105.517 262.472 105.171 263.443 104.522C264.413 103.874 265.169 102.953 265.616 101.875C266.062 100.797 266.179 99.6103 265.951 98.4658C265.724 97.3213 265.162 96.27 264.337 95.4449C263.511 94.6197 262.46 94.0578 261.316 93.8302C260.171 93.6025 258.985 93.7194 257.907 94.1659C256.829 94.6125 255.907 95.3687 255.259 96.3389C254.611 97.3092 254.265 98.4499 254.265 99.6168C254.265 101.182 254.886 102.682 255.993 103.789C257.099 104.895 258.6 105.517 260.165 105.517Z" fill="url(#paint0_linear_526_6230)"/>
<path d="M59.0378 174.555H57.2158V178.091H59.0378V174.555Z" fill="#F6F2ED"/>
<path d="M59.0378 184.297H57.2158V187.833H59.0378V184.297Z" fill="#F6F2ED"/>
<path d="M64.7674 180.283H61.2314V182.105H64.7674V180.283Z" fill="#F6F2ED"/>
<path d="M55.0243 180.283H51.4883V182.105H55.0243V180.283Z" fill="#F6F2ED"/>
<path d="M3.612 50.3666C5.60685 50.3666 7.224 48.7494 7.224 46.7546C7.224 44.7597 5.60685 43.1426 3.612 43.1426C1.61715 43.1426 0 44.7597 0 46.7546C0 48.7494 1.61715 50.3666 3.612 50.3666Z" fill="#F6F2ED"/>
<path d="M16.4548 103.625C18.0371 103.625 19.3198 102.342 19.3198 100.76C19.3198 99.1772 18.0371 97.8945 16.4548 97.8945C14.8725 97.8945 13.5898 99.1772 13.5898 100.76C13.5898 102.342 14.8725 103.625 16.4548 103.625Z" fill="#F6F2ED"/>
<path d="M274.827 114.472C276.595 114.472 278.028 113.039 278.028 111.271C278.028 109.503 276.595 108.07 274.827 108.07C273.059 108.07 271.626 109.503 271.626 111.271C271.626 113.039 273.059 114.472 274.827 114.472Z" fill="#F6F2ED"/>
<path d="M225.455 22.482C227.037 22.482 228.32 21.1992 228.32 19.617C228.32 18.0347 227.037 16.752 225.455 16.752C223.873 16.752 222.59 18.0347 222.59 19.617C222.59 21.1992 223.873 22.482 225.455 22.482Z" fill="#F6F2ED"/>
<path d="M86.1761 69.6472C84.5246 69.6326 82.879 69.8463 81.2861 70.2822C80.9621 70.3672 80.6521 70.4662 80.3431 70.5752C80.3201 70.5842 80.2951 70.5932 80.2711 70.6042C79.9991 70.6952 79.7421 70.7942 79.5041 70.9042C78.3311 71.391 77.2326 72.0407 76.2411 72.8342C76.0681 72.9672 75.9031 73.1032 75.7411 73.2502C75.6611 73.3172 75.5841 73.3852 75.4911 73.4712C75.2911 73.6572 75.0911 73.8442 74.9311 74.0172C74.7781 74.1702 74.6311 74.3302 74.4901 74.4872C74.3961 74.5872 74.3091 74.6922 74.2281 74.7872C74.1471 74.8822 74.0411 75.0052 73.9551 75.1212C73.8241 75.2772 73.7001 75.4412 73.5651 75.6292L73.5251 75.6872C73.4991 75.7232 73.4741 75.7592 73.4521 75.7932C73.3131 75.9782 73.1831 76.1642 73.0791 76.3352C73.0181 76.4272 72.9631 76.5132 72.9151 76.5982C72.8068 76.7539 72.7067 76.9151 72.6151 77.0812C72.5421 77.1965 72.4753 77.3157 72.4151 77.4382C72.3041 77.6382 72.1991 77.8382 72.1001 78.0382C72.0721 78.0872 72.0471 78.1382 72.0241 78.1842C71.9131 78.4012 71.8091 78.6242 71.7341 78.8002C71.6851 78.9002 71.6411 79.0052 71.5971 79.1182C71.4907 79.3397 71.3969 79.5671 71.3161 79.7992C71.2861 79.864 71.2607 79.9308 71.2401 79.9992C71.1511 80.2162 71.0731 80.4392 71.0031 80.6622C70.9731 80.7352 70.9481 80.8082 70.9241 80.8812C69.8842 84.195 69.3838 87.6545 69.4421 91.1272V98.1472H71.4291V91.1212C71.3716 87.8627 71.8375 84.616 72.8091 81.5052C72.8211 81.4712 72.8301 81.4362 72.8461 81.4052C72.8615 81.3707 72.8749 81.3353 72.8861 81.2992C72.9471 81.0992 73.0141 80.9052 73.0941 80.7142C73.1031 80.6922 73.1151 80.6592 73.1241 80.6292C73.1448 80.5878 73.1625 80.5451 73.1771 80.5012C73.2408 80.3111 73.317 80.1253 73.4051 79.9452C73.4171 79.9212 73.4301 79.8882 73.4401 79.8642C73.4631 79.8042 73.4851 79.7442 73.5401 79.6392C73.6231 79.4482 73.7121 79.2562 73.8341 79.0192C73.8501 78.9932 73.8641 78.9672 73.8771 78.9402C73.9661 78.7552 74.0621 78.5692 74.1641 78.3912C74.1771 78.3682 74.1891 78.3452 74.2001 78.3212C74.2333 78.2521 74.2711 78.1853 74.3131 78.1212C74.3261 78.1012 74.3381 78.0802 74.3501 78.0602C74.4154 77.9363 74.4885 77.8167 74.5691 77.7022C74.5931 77.6685 74.6151 77.6334 74.6351 77.5972C74.6631 77.5452 74.6981 77.4972 74.7571 77.4042C74.8571 77.2462 74.9571 77.1042 75.0661 76.9562C75.0831 76.9342 75.1331 76.8632 75.1471 76.8392L75.2071 76.7522C75.2971 76.6262 75.3931 76.4992 75.4951 76.3792C75.5101 76.3622 75.5251 76.3432 75.5391 76.3242C75.6021 76.2382 75.6711 76.1602 75.746 76.0722C75.821 75.9842 75.8851 75.9082 75.9631 75.8222C76.0871 75.6852 76.2111 75.5492 76.3691 75.3892C76.5271 75.2292 76.6821 75.0762 76.8431 74.9282C76.9071 74.8702 76.9661 74.8172 77.0301 74.7642C77.0501 74.7482 77.0691 74.7312 77.0881 74.7132C77.2106 74.5991 77.3391 74.4917 77.4731 74.3912C78.3292 73.7056 79.2783 73.145 80.2921 72.7262C80.5031 72.6322 80.7151 72.5522 80.9441 72.4762C80.9661 72.4682 81.0011 72.4552 81.0361 72.4402C81.2831 72.3542 81.5361 72.2742 81.8111 72.2002C83.2337 71.8116 84.7033 71.6218 86.1781 71.6362H87.5521V69.6492H86.1771L86.1761 69.6472Z" fill="#F6F2ED"/>
<path d="M103.603 69.6465H102.222V71.6335H103.603C109.103 71.6335 118.341 74.1645 118.341 91.1175V97.9805H120.328V91.1175C120.333 77.4775 114.237 69.6465 103.603 69.6465Z" fill="#F6F2ED"/>
<path d="M94.1276 79.446L92.1916 79L88.8056 93.683C88.7468 93.9386 88.7913 94.2071 88.9296 94.43L91.5146 98.595L93.2026 97.547L90.8336 93.73L94.1276 79.446Z" fill="#F6F2ED"/>
<path d="M101.115 94.0564L96.8717 77.0474C96.818 76.8324 96.694 76.6415 96.5193 76.5051C96.3446 76.3686 96.1294 76.2945 95.9077 76.2944H93.4867L87.1697 74.2494V71.6374H95.3917V69.6504H86.1767C86.0462 69.6503 85.9168 69.6759 85.7962 69.7258C85.6755 69.7757 85.5659 69.8489 85.4736 69.9412C85.3813 70.0336 85.308 70.1432 85.2581 70.2639C85.2082 70.3845 85.1826 70.5138 85.1827 70.6444V74.9724C85.1827 75.1824 85.2493 75.3871 85.373 75.5569C85.4966 75.7267 85.6709 75.8529 85.8707 75.9174L93.0247 78.2334C93.1235 78.2659 93.2268 78.2824 93.3307 78.2824H95.1307L99.0787 94.1084L96.8027 97.5084L98.4537 98.6144L100.977 94.8474C101.053 94.7322 101.105 94.6025 101.129 94.4664C101.152 94.3302 101.148 94.1906 101.115 94.0564Z" fill="#F6F2ED"/>
<path d="M101.144 66.7715H99.1572V70.6485H101.144V66.7715Z" fill="#F6F2ED"/>
<path d="M89.8366 66.6777H87.8496V70.6487H89.8366V66.6777Z" fill="#F6F2ED"/>
<path d="M105.298 51.3164C102.898 50.4764 98.969 48.4304 98.652 46.5164C98.6239 46.3445 98.551 46.1829 98.4408 46.0481C98.3305 45.9132 98.1866 45.8097 98.0237 45.748C97.8608 45.6863 97.6845 45.6685 97.5125 45.6965C97.3405 45.7245 97.179 45.7972 97.044 45.9074C93.2524 48.5794 88.7558 50.0715 84.119 50.1964C83.8629 50.2072 83.6209 50.3166 83.4435 50.5016C83.2661 50.6867 83.167 50.9331 83.167 51.1894V59.1894C83.1707 61.4389 84.0659 63.5952 85.6566 65.1858C87.2472 66.7765 89.4035 67.6717 91.653 67.6754H97.477C99.7265 67.6717 101.883 66.7765 103.473 65.1858C105.064 63.5952 105.959 61.4389 105.963 59.1894V52.2584C105.964 52.0517 105.9 51.8499 105.781 51.681C105.662 51.5121 105.493 51.3847 105.298 51.3164ZM103.977 59.1854C103.975 60.9087 103.29 62.561 102.071 63.7795C100.853 64.9981 99.2003 65.6835 97.477 65.6854H91.653C89.9296 65.6838 88.2772 64.9985 87.0585 63.7798C85.8399 62.5612 85.1546 60.9088 85.153 59.1854V52.1224C89.4309 51.826 93.5707 50.4841 97.209 48.2144C98.634 50.6294 102.381 52.3144 103.975 52.9424V59.1854H103.977Z" fill="#F6F2ED"/>
<path d="M96.6232 51.4805C93.8247 52.9218 90.8125 53.9034 87.7021 54.3875V59.1875C87.7032 60.235 88.1198 61.2393 88.8605 61.9801C89.6013 62.7208 90.6056 63.1374 91.6532 63.1385H97.4771C98.5247 63.1374 99.529 62.7208 100.27 61.9801C101.01 61.2393 101.427 60.235 101.428 59.1875V54.6275C99.6715 53.8367 98.05 52.7748 96.6232 51.4805Z" fill="#F6F2ED"/>
<path d="M100.771 39.9224C100.527 39.3096 100.141 38.7627 99.647 38.3256C99.1526 37.8885 98.5626 37.5734 97.9244 37.4054C94.6388 36.734 91.2347 36.9325 88.0494 37.9814C81.8954 40.0284 81.9494 45.0244 81.9954 49.8564C81.9954 50.3054 82.0044 50.7564 82.0044 51.2144C82.0043 51.345 82.0299 51.4743 82.0798 51.595C82.1297 51.7156 82.2029 51.8253 82.2952 51.9176C82.3876 52.0099 82.4972 52.0831 82.6179 52.1331C82.7385 52.183 82.8678 52.2086 82.9984 52.2084C88.4777 52.3061 93.8427 50.6359 98.2984 47.4454C98.388 47.3722 98.4642 47.2839 98.5234 47.1844L100.464 43.9304C100.821 43.3312 101.034 42.6577 101.088 41.9624C101.141 41.2672 101.033 40.569 100.771 39.9224ZM98.7584 42.9114L96.9144 46.0014C93.0976 48.6141 88.609 50.0722 83.9854 50.2015C83.9854 50.0795 83.9854 49.9571 83.9854 49.8344C83.9374 45.1534 83.8994 41.4554 88.6794 39.8654C90.5084 39.2798 92.417 38.9809 94.3374 38.9795C95.3756 38.9651 96.4114 39.0816 97.4204 39.3265C97.7615 39.4147 98.0768 39.5827 98.3402 39.8168C98.6036 40.0508 98.8076 40.3441 98.9354 40.6724C99.0807 41.034 99.1403 41.4242 99.1098 41.8126C99.0793 42.201 98.9594 42.5771 98.7594 42.9114H98.7584Z" fill="#F6F2ED"/>
<path d="M106.077 40.1166C105.565 39.7402 104.977 39.4803 104.354 39.355C103.731 39.2298 103.088 39.2423 102.47 39.3916C100.441 39.7746 99.1415 42.1496 98.9365 42.5486L96.8145 46.1706C96.6992 46.3686 96.6554 46.6002 96.6905 46.8266C97.3085 50.7516 105.09 53.3586 105.974 53.6426C106.071 53.6741 106.173 53.6903 106.274 53.6906C106.405 53.6906 106.534 53.6649 106.655 53.6149C106.775 53.565 106.885 53.4917 106.977 53.3994C107.069 53.3071 107.142 53.1975 107.192 53.0769C107.242 52.9563 107.268 52.8271 107.267 52.6966V42.9386C107.297 42.4086 107.206 41.8788 107 41.3897C106.793 40.9005 106.478 40.4651 106.077 40.1166ZM105.284 51.2906C102.624 50.2616 99.3385 48.5076 98.7335 46.8266L100.665 43.5266C100.675 43.5096 100.686 43.4906 100.694 43.4736C100.946 42.9736 101.88 41.5246 102.839 41.3426C103.171 41.2528 103.517 41.233 103.856 41.2847C104.195 41.3363 104.52 41.4582 104.809 41.6426C104.981 41.8081 105.113 42.0105 105.196 42.2345C105.278 42.4585 105.308 42.6982 105.284 42.9356V51.2866V51.2906Z" fill="#F6F2ED"/>
<path d="M177.223 69.6465H175.842V71.6335H177.223C182.723 71.6335 191.961 74.1645 191.961 91.1175V97.7325H193.948V91.1175C193.948 77.4775 187.852 69.6465 177.223 69.6465Z" fill="#F6F2ED"/>
<path d="M159.784 69.6483C156.17 69.5696 152.638 70.7275 149.773 72.9303C145.318 76.4733 143.058 82.5933 143.058 91.1193V97.8983H145.043V91.1193C145.043 83.2293 147.049 77.6323 151.007 74.4853C153.514 72.5506 156.615 71.5436 159.781 71.6353H161.163V69.6483H159.784Z" fill="#F6F2ED"/>
<path d="M174.73 94.0555L170.48 77.0465C170.426 76.8315 170.302 76.6406 170.128 76.5041C169.953 76.3677 169.738 76.2936 169.516 76.2935H167.101L160.777 74.2475V71.6365H169.006V69.6465H159.784C159.521 69.6467 159.268 69.7516 159.082 69.938C158.896 70.1244 158.791 70.377 158.791 70.6405V74.9685C158.791 75.1785 158.858 75.3831 158.981 75.5529C159.105 75.7227 159.279 75.849 159.479 75.9135L166.641 78.2295C166.74 78.2619 166.843 78.2785 166.947 78.2785H168.747L172.701 94.1035L170.589 97.2505L172.238 98.3575L174.591 94.8465C174.668 94.7316 174.72 94.6019 174.744 94.4657C174.768 94.3295 174.763 94.1897 174.73 94.0555Z" fill="#F6F2ED"/>
<path d="M167.744 79.448L165.808 79L162.415 93.683C162.356 93.9389 162.401 94.2078 162.539 94.431L164.976 98.355L166.664 97.307L164.443 93.731L167.744 79.448Z" fill="#F6F2ED"/>
<path d="M174.756 66.7734H172.769V70.6494H174.756V66.7734Z" fill="#F6F2ED"/>
<path d="M163.449 66.6777H161.462V70.6487H163.449V66.6777Z" fill="#F6F2ED"/>
<path d="M178.909 51.3157C176.509 50.4757 172.58 48.4297 172.263 46.5157C172.235 46.3439 172.162 46.1826 172.052 46.0478C171.942 45.9131 171.798 45.8097 171.635 45.748C171.473 45.6863 171.296 45.6685 171.125 45.6964C170.953 45.7242 170.791 45.7967 170.656 45.9067C166.864 48.5786 162.367 50.0707 157.73 50.1957C157.474 50.2065 157.232 50.3159 157.055 50.5009C156.877 50.6859 156.778 50.9323 156.778 51.1887V59.1887C156.782 61.4382 157.677 63.5945 159.268 65.1851C160.859 66.7757 163.015 67.671 165.264 67.6747H171.088C173.338 67.671 175.494 66.7759 177.084 65.1855C178.675 63.595 179.57 61.439 179.574 59.1897V52.2577C179.575 52.051 179.512 51.8492 179.392 51.6804C179.273 51.5116 179.104 51.3841 178.909 51.3157ZM177.588 59.1857C177.587 60.9091 176.901 62.5615 175.683 63.7801C174.464 64.9988 172.812 65.6841 171.088 65.6857H165.264C163.541 65.6838 161.889 64.9984 160.67 63.7798C159.452 62.5612 158.766 60.909 158.764 59.1857V52.1227C163.042 51.8263 167.182 50.4843 170.82 48.2147C172.246 50.6297 175.992 52.3147 177.586 52.9427V59.1867L177.588 59.1857Z" fill="#F6F2ED"/>
<path d="M170.235 51.4805C167.437 52.9218 164.425 53.9034 161.314 54.3875V59.1875C161.316 60.235 161.732 61.2393 162.473 61.9801C163.214 62.7208 164.218 63.1374 165.265 63.1385H171.089C172.137 63.1374 173.141 62.7208 173.882 61.9801C174.623 61.2393 175.039 60.235 175.04 59.1875V54.6275C173.284 53.8368 171.662 52.7748 170.235 51.4805Z" fill="#F6F2ED"/>
<path d="M174.387 39.9204C174.142 39.3078 173.757 38.761 173.262 38.3241C172.768 37.8872 172.178 37.5722 171.54 37.4044C168.254 36.7318 164.85 36.9301 161.665 37.9794C155.51 40.0264 155.565 45.0234 155.612 49.8554C155.612 50.3044 155.621 50.7554 155.621 51.2134C155.621 51.4771 155.725 51.7299 155.912 51.9163C156.098 52.1027 156.351 52.2074 156.615 52.2074C162.094 52.3051 167.459 50.6349 171.915 47.4444C172.005 47.3712 172.081 47.2829 172.141 47.1834L174.083 43.9294C174.439 43.3297 174.651 42.6559 174.704 41.9605C174.757 41.2651 174.648 40.567 174.387 39.9204ZM172.374 42.9104L170.53 46.0004C166.713 48.613 162.224 50.0711 157.601 50.2004C157.601 50.0784 157.601 49.9564 157.601 49.8344C157.552 45.1524 157.515 41.4544 162.295 39.8634C164.123 39.2781 166.031 38.9796 167.951 38.9784C168.99 38.9641 170.026 39.0806 171.036 39.3254C171.377 39.4136 171.692 39.5815 171.955 39.8153C172.218 40.0492 172.422 40.3423 172.55 40.6704C172.695 41.0321 172.755 41.4226 172.724 41.8112C172.693 42.1998 172.573 42.576 172.373 42.9104H172.374Z" fill="#F6F2ED"/>
<path d="M100.758 141.473C101.371 141.874 102.025 142.209 102.709 142.473L103.423 140.619C102.87 140.406 102.341 140.135 101.844 139.811L100.758 141.473ZM105.136 141.073L104.826 143.035C105.364 143.119 105.908 143.162 106.452 143.162H106.962V141.175H106.452C106.011 141.176 105.571 141.143 105.136 141.075V141.073ZM108.736 140.996L109.142 142.942C109.859 142.792 110.559 142.566 111.229 142.269L110.423 140.453C109.88 140.695 109.313 140.878 108.731 140.999L108.736 140.996ZM97.6911 138.379C98.0877 138.994 98.5479 139.567 99.0641 140.086L100.473 138.686C100.055 138.265 99.6825 137.802 99.3611 137.304L97.6911 138.379ZM96.2531 126.004L94.5231 126.983C94.824 127.514 95.0828 128.068 95.2971 128.64L97.1581 127.94C96.9058 127.272 96.6015 126.626 96.2481 126.006L96.2531 126.004ZM97.7531 130.004L95.8051 130.404C95.9265 131.002 96.001 131.61 96.0281 132.22L98.0131 132.132C97.9784 131.417 97.8881 130.706 97.7431 130.005L97.7531 130.004ZM98.1211 134.004L96.1561 134.304C96.265 135.028 96.4504 135.739 96.7091 136.425L98.5681 135.725C98.3547 135.17 98.2011 134.594 98.1101 134.006L98.1211 134.004ZM114.321 136.939L116.043 137.93C116.409 137.294 116.706 136.622 116.93 135.924L115.038 135.317C114.855 135.883 114.612 136.427 114.313 136.942L114.321 136.939ZM120.241 122.326L121.532 123.837C121.997 123.44 122.492 123.08 123.012 122.76L121.971 121.068C121.36 121.441 120.779 121.861 120.233 122.324L120.241 122.326ZM111.962 139.566L113.132 141.171C113.724 140.74 114.269 140.248 114.758 139.704L113.28 138.375C112.881 138.818 112.436 139.218 111.953 139.569L111.962 139.566ZM123.878 120.091L124.64 121.927C125.204 121.693 125.786 121.503 126.38 121.36L125.915 119.428C125.217 119.596 124.533 119.818 123.87 120.094L123.878 120.091ZM117.468 125.562L119.159 126.606C119.48 126.086 119.841 125.592 120.238 125.128L118.73 123.835C118.262 124.378 117.837 124.956 117.459 125.566L117.468 125.562ZM115.824 129.5L117.755 129.968C117.899 129.375 118.09 128.795 118.325 128.232L116.491 127.466C116.213 128.126 115.987 128.807 115.816 129.503L115.824 129.5ZM93.6021 122.662L92.2481 124.124C92.6975 124.538 93.1144 124.987 93.4951 125.465L95.0511 124.228C94.6062 123.67 94.1191 123.148 93.5941 122.665L93.6021 122.662ZM115.438 132.739C115.438 133.021 115.424 133.304 115.396 133.579L117.373 133.779C117.407 133.438 117.424 133.089 117.424 132.742C117.424 132.418 117.437 132.097 117.463 131.778L115.483 131.616C115.446 131.988 115.43 132.367 115.43 132.743L115.438 132.739ZM60.4751 141.174C59.9559 141.174 59.4377 141.127 58.9271 141.033L58.5641 142.986C59.1944 143.103 59.8341 143.161 60.4751 143.161H60.7461L60.6991 141.174H60.4751ZM62.4551 140.941L62.9211 142.873C63.6333 142.701 64.3254 142.455 64.9861 142.138L64.1261 140.346C63.589 140.604 63.0262 140.805 62.4471 140.945L62.4551 140.941ZM67.9151 136.719L69.6661 137.658C70.0126 137.012 70.2895 136.331 70.4921 135.627L68.5831 135.077C68.4174 135.648 68.1911 136.2 67.9081 136.724L67.9151 136.719ZM128.026 119.091L128.185 121.071C128.496 121.046 128.811 121.033 129.129 121.034H130.091V119.047H129.129C128.752 119.051 128.38 119.066 128.019 119.095L128.026 119.091ZM65.6271 139.416L66.8431 140.988C67.4223 140.54 67.9528 140.032 68.4261 139.473L66.9091 138.19C66.5255 138.642 66.0958 139.053 65.6271 139.416ZM52.0941 133.773L50.1221 134.015C50.2108 134.742 50.3761 135.458 50.6151 136.15L52.4931 135.501C52.2997 134.941 52.166 134.361 52.0941 133.773ZM54.5311 141.31C55.1333 141.728 55.7779 142.081 56.4541 142.364L57.2191 140.529C56.672 140.301 56.1507 140.015 55.6641 139.677L54.5311 141.31ZM51.5481 138.135C51.9273 138.761 52.3714 139.346 52.8731 139.88L54.3211 138.519C53.9151 138.087 53.5555 137.613 53.2481 137.106L51.5481 138.135ZM85.7021 121.117C86.3084 121.189 86.9082 121.308 87.4961 121.473L88.0341 119.56C87.3459 119.367 86.6438 119.229 85.9341 119.145L85.7021 121.117ZM81.7921 119.074L81.9071 121.057C82.1337 121.044 82.3624 121.038 82.5931 121.038H83.8361V119.051H82.5931C82.3251 119.051 82.0587 119.059 81.7941 119.074H81.7921ZM89.2121 122.104C89.7678 122.359 90.3027 122.657 90.8121 122.996L91.9121 121.343C91.3179 120.947 90.6937 120.598 90.0451 120.3L89.2121 122.104ZM77.6221 119.98L78.3421 121.833C78.9118 121.612 79.4979 121.435 80.0951 121.305L79.6731 119.363C78.9751 119.515 78.29 119.722 77.6241 119.981L77.6221 119.98ZM71.0911 125.311L72.7591 126.391C73.0912 125.878 73.4627 125.392 73.8701 124.937L72.3901 123.611C71.9142 124.143 71.4806 124.712 71.0931 125.312L71.0911 125.311ZM73.9351 122.134L75.1931 123.672C75.6651 123.285 76.1666 122.936 76.6931 122.628L75.6931 120.913C75.077 121.274 74.4902 121.682 73.9381 122.135L73.9351 122.134ZM69.3601 129.211L71.2801 129.722C71.4373 129.132 71.6406 128.556 71.8881 127.998L70.0721 127.192C69.7834 127.846 69.5464 128.521 69.3631 129.212L69.3601 129.211ZM68.9011 132.742C68.9011 132.942 68.8941 133.14 68.8801 133.335L70.8631 133.469C70.8797 133.228 70.8881 132.986 70.8881 132.741C70.888 132.333 70.909 131.926 70.9511 131.52L68.9741 131.32C68.9259 131.793 68.9018 132.268 68.9021 132.743L68.9011 132.742ZM170.118 120.214L170.918 122.032C171.476 121.785 172.053 121.583 172.643 121.427L172.136 119.506C171.446 119.688 170.771 119.925 170.118 120.214ZM191.102 133.506L189.123 133.683C189.189 134.413 189.331 135.134 189.548 135.834L191.448 135.245C191.272 134.679 191.156 134.096 191.102 133.506ZM186.191 122.265L184.91 123.784C185.376 124.178 185.81 124.608 186.21 125.069L187.71 123.769C187.244 123.229 186.737 122.727 186.194 122.265H186.191ZM190.66 129.412L188.733 129.896C188.88 130.487 188.981 131.089 189.033 131.696L191.012 131.521C190.951 130.81 190.835 130.105 190.663 129.412H190.66ZM181.791 121.9C182.356 122.13 182.902 122.404 183.424 122.72L184.453 121.02C183.842 120.65 183.203 120.329 182.541 120.059L181.791 121.9ZM174.245 119.124L174.445 121.101C174.844 121.061 175.244 121.04 175.645 121.04H176.326V119.053H175.645C175.178 119.053 174.71 119.077 174.245 119.124ZM178.245 121.071C178.854 121.115 179.459 121.207 180.053 121.346L180.505 119.411C179.809 119.249 179.102 119.141 178.389 119.089L178.245 121.071ZM188.993 125.486L187.309 126.54C187.633 127.057 187.916 127.599 188.156 128.161L189.984 127.383C189.703 126.725 189.371 126.091 188.991 125.485L188.993 125.486ZM204.706 140.076L205.691 141.802C206.327 141.439 206.924 141.01 207.47 140.523L206.147 139.04C205.703 139.435 205.219 139.782 204.702 140.075L204.706 140.076ZM207.341 137.725L208.941 138.899C209.373 138.308 209.742 137.674 210.041 137.006L208.229 136.192C207.987 136.732 207.689 137.246 207.339 137.724L207.341 137.725ZM208.969 132.743C208.969 133.336 208.908 133.928 208.785 134.509L210.728 134.921C210.88 134.205 210.956 133.475 210.956 132.743H208.969ZM197.269 142.924C197.984 143.08 198.714 143.16 199.446 143.165L199.458 141.178C198.864 141.173 198.273 141.106 197.693 140.978L197.269 142.924ZM193.301 141.116C193.889 141.553 194.522 141.926 195.189 142.23L196.012 140.421C195.473 140.175 194.961 139.874 194.485 139.521L193.301 141.116ZM190.417 137.849C190.777 138.486 191.202 139.084 191.686 139.633L193.176 138.32C192.784 137.874 192.439 137.389 192.147 136.872L190.417 137.849ZM201.341 141.139L201.531 143.117C202.26 143.047 202.98 142.9 203.678 142.68L203.078 140.78C202.514 140.96 201.932 141.081 201.342 141.14L201.341 141.139ZM139.895 122.462L138.582 123.954C139.041 124.358 139.467 124.796 139.858 125.266L141.386 123.996C140.93 123.447 140.432 122.935 139.896 122.463L139.895 122.462ZM147.026 141.297C147.627 141.717 148.271 142.072 148.947 142.355L149.715 140.523C149.169 140.293 148.649 140.006 148.163 139.668L147.026 141.297ZM144.202 129.709L142.264 130.147C142.399 130.742 142.487 131.348 142.527 131.957L144.51 131.825C144.462 131.113 144.359 130.405 144.202 129.709ZM144.044 138.119C144.422 138.745 144.865 139.331 145.365 139.865L146.817 138.508C146.412 138.074 146.052 137.6 145.745 137.092L144.044 138.119ZM144.602 133.758L142.629 133.993C142.716 134.72 142.88 135.437 143.118 136.13L144.998 135.484C144.805 134.924 144.673 134.346 144.602 133.758ZM135.502 122C136.062 122.243 136.602 122.53 137.118 122.857L138.183 121.179C137.58 120.797 136.949 120.463 136.294 120.179L135.502 122ZM131.971 121.091C132.578 121.149 133.18 121.254 133.771 121.406L134.271 119.481C133.579 119.303 132.874 119.18 132.163 119.112L131.971 121.091ZM166.532 122.524L167.855 124.007C168.311 123.6 168.798 123.229 169.312 122.897L168.233 121.228C167.634 121.615 167.065 122.049 166.532 122.524ZM142.623 125.739L140.917 126.757C141.229 127.281 141.5 127.829 141.726 128.396L143.572 127.66C143.306 126.997 142.988 126.356 142.622 125.743L142.623 125.739ZM162.276 129.796L164.217 130.222C164.348 129.626 164.526 129.041 164.748 128.473L162.898 127.748C162.637 128.414 162.428 129.1 162.275 129.799L162.276 129.796ZM163.831 125.825L165.545 126.825C165.854 126.299 166.204 125.797 166.59 125.325L165.053 124.066C164.6 124.619 164.191 125.207 163.83 125.824L163.831 125.825ZM161.959 132.739C161.959 133.104 161.936 133.468 161.889 133.83L163.859 134.085C163.917 133.638 163.946 133.188 163.946 132.738C163.946 132.501 163.953 132.265 163.967 132.032L161.984 131.916C161.967 132.188 161.958 132.464 161.958 132.743L161.959 132.739ZM158.276 139.709L159.396 141.351C160.001 140.938 160.56 140.462 161.066 139.933L159.629 138.562C159.219 138.991 158.765 139.377 158.275 139.712L158.276 139.709ZM155.012 141.044L155.36 143C156.082 142.871 156.788 142.667 157.466 142.39L156.714 140.551C156.166 140.776 155.595 140.942 155.011 141.047L155.012 141.044ZM160.712 137.154L162.403 138.197C162.788 137.573 163.105 136.91 163.35 136.219L161.477 135.555C161.279 136.114 161.022 136.651 160.711 137.157L160.712 137.154ZM151.412 141.029L151.046 142.982C151.683 143.1 152.329 143.16 152.977 143.16H153.205V141.173H152.977C152.453 141.175 151.93 141.128 151.414 141.033L151.412 141.029Z" fill="url(#paint1_linear_526_6230)"/>
<path d="M179.69 40.1189C179.179 39.7422 178.591 39.4822 177.968 39.3569C177.345 39.2317 176.702 39.2443 176.084 39.3939C174.055 39.7769 172.755 42.1509 172.549 42.5509L170.427 46.1729C170.311 46.3705 170.267 46.6025 170.303 46.8289C170.921 50.7539 178.703 53.3609 179.587 53.6449C179.684 53.6764 179.785 53.6926 179.887 53.6929C180.018 53.6929 180.147 53.6672 180.268 53.6172C180.388 53.5672 180.498 53.494 180.59 53.4017C180.682 53.3094 180.755 53.1998 180.805 53.0792C180.855 52.9586 180.88 52.8294 180.88 52.6989V42.9419C180.911 42.4117 180.819 41.8817 180.613 41.3923C180.407 40.903 180.091 40.4674 179.69 40.1189ZM178.897 51.2929C176.237 50.2649 172.95 48.5099 172.345 46.8289L174.277 43.5289C174.287 43.5119 174.298 43.4929 174.307 43.4759C174.559 42.9759 175.493 41.5269 176.452 41.3449C176.784 41.2551 177.13 41.2354 177.469 41.287C177.808 41.3387 178.133 41.4606 178.422 41.6449C178.594 41.8105 178.727 42.013 178.809 42.2372C178.891 42.4614 178.921 42.7013 178.897 42.9389V51.2889V51.2929Z" fill="#F6F2ED"/>
<path d="M210.663 97.0012C210.573 96.9067 210.464 96.8321 210.343 96.7821C210.223 96.7322 210.093 96.708 209.963 96.7112L51.0408 97.2402C50.7778 97.2413 50.526 97.3465 50.3405 97.5327C50.155 97.719 50.0508 97.9713 50.0508 98.2342V151.39C50.0507 151.521 50.0763 151.65 50.1262 151.771C50.1761 151.891 50.2493 152.001 50.3416 152.093C50.434 152.186 50.5436 152.259 50.6642 152.309C50.7849 152.359 50.9142 152.384 51.0448 152.384L209.967 151.855C210.23 151.854 210.482 151.749 210.667 151.563C210.853 151.376 210.957 151.124 210.957 150.861V97.7052C210.957 97.5743 210.93 97.4447 210.88 97.3239C210.83 97.2031 210.756 97.0934 210.663 97.0012ZM208.968 149.871L52.0328 150.394V99.2252L208.968 98.7022V149.871Z" fill="#F6F2ED"/>
<path d="M81.7857 155.039V159.518H63.5417V155.106H61.5547V160.512C61.5546 160.643 61.5802 160.772 61.6301 160.893C61.68 161.013 61.7532 161.123 61.8455 161.215C61.9379 161.308 62.0475 161.381 62.1681 161.431C62.2888 161.481 62.4181 161.506 62.5487 161.506H82.7797C82.9103 161.506 83.0396 161.481 83.1602 161.431C83.2809 161.381 83.3905 161.308 83.4828 161.215C83.5752 161.123 83.6484 161.013 83.6983 160.893C83.7482 160.772 83.7738 160.643 83.7737 160.512V155.039H81.7857Z" fill="#F6F2ED"/>
<path d="M195.753 154.66V159.142H177.508V154.73H175.521V160.136C175.521 160.4 175.626 160.653 175.813 160.839C175.999 161.025 176.252 161.13 176.515 161.13H196.745C197.009 161.13 197.262 161.025 197.448 160.839C197.635 160.653 197.74 160.4 197.74 160.136V154.663H195.753V154.66Z" fill="#F6F2ED"/>
<path d="M54.5811 101.775V132.742C54.5811 133.516 54.7333 134.281 55.0292 134.995C55.3251 135.71 55.7588 136.359 56.3055 136.905C56.8522 137.452 57.5012 137.886 58.2155 138.182C58.9298 138.478 59.6954 138.63 60.4686 138.63C61.2417 138.63 62.0073 138.478 62.7216 138.182C63.4359 137.886 64.0849 137.452 64.6316 136.905C65.1784 136.359 65.612 135.71 65.9079 134.995C66.2038 134.281 66.3561 133.516 66.3561 132.742C66.3611 128.437 68.0737 124.309 71.1183 121.265C74.1628 118.221 78.2906 116.508 82.5961 116.503H84.3261C88.6317 116.508 92.7596 118.221 95.8042 121.265C98.8488 124.31 100.561 128.438 100.566 132.743C100.568 134.304 101.188 135.801 102.292 136.905C103.396 138.009 104.892 138.63 106.453 138.631H106.996C108.557 138.63 110.054 138.009 111.158 136.905C112.262 135.801 112.882 134.305 112.884 132.743C112.889 128.438 114.601 124.31 117.646 121.265C120.69 118.221 124.818 116.508 129.124 116.503H130.854C135.16 116.508 139.288 118.221 142.332 121.265C145.377 124.31 147.089 128.438 147.094 132.743C147.096 134.304 147.716 135.801 148.82 136.905C149.924 138.009 151.42 138.63 152.981 138.631H153.525C155.086 138.63 156.582 138.009 157.686 136.905C158.79 135.801 159.41 134.304 159.412 132.743C159.417 128.438 161.129 124.31 164.174 121.265C167.218 118.221 171.346 116.508 175.652 116.503H177.382C181.688 116.508 185.816 118.221 188.86 121.265C191.905 124.31 193.617 128.438 193.622 132.743C193.624 134.304 194.244 135.801 195.348 136.905C196.452 138.009 197.948 138.63 199.509 138.631H200.535C202.096 138.63 203.592 138.009 204.696 136.905C205.8 135.801 206.42 134.304 206.422 132.743V101.775H54.5811Z" fill="url(#paint2_linear_526_6230)"/>
<defs>
<linearGradient id="paint0_linear_526_6230" x1="254.084" y1="94.274" x2="272.754" y2="102.651" gradientUnits="userSpaceOnUse">
<stop stop-color="#A58969"/>
<stop offset="1" stop-color="#C7B664"/>
</linearGradient>
<linearGradient id="paint1_linear_526_6230" x1="47.6666" y1="120.186" x2="78.3818" y2="212.087" gradientUnits="userSpaceOnUse">
<stop stop-color="#A58969"/>
<stop offset="1" stop-color="#C7B664"/>
</linearGradient>
<linearGradient id="paint2_linear_526_6230" x1="52.2629" y1="103.516" x2="117.603" y2="224.295" gradientUnits="userSpaceOnUse">
<stop stop-color="#A58969"/>
<stop offset="1" stop-color="#C7B664"/>
</linearGradient>
</defs>
</svg>
