<svg width="279" height="215" viewBox="0 0 279 215" fill="none" xmlns="http://www.w3.org/2000/svg">
<path d="M132.119 201.554C187.776 201.554 232.896 156.435 232.896 100.777C232.896 45.1194 187.776 0 132.119 0C76.4612 0 31.3418 45.1194 31.3418 100.777C31.3418 156.435 76.4612 201.554 132.119 201.554Z" fill="#C3B075" fill-opacity="0.03"/>
<path opacity="0.2" d="M260.165 105.517C261.332 105.517 262.472 105.171 263.443 104.522C264.413 103.874 265.169 102.953 265.616 101.875C266.062 100.797 266.179 99.6103 265.951 98.4658C265.724 97.3213 265.162 96.27 264.337 95.4449C263.511 94.6197 262.46 94.0578 261.316 93.8302C260.171 93.6025 258.985 93.7194 257.907 94.1659C256.829 94.6125 255.907 95.3687 255.259 96.3389C254.611 97.3092 254.265 98.4499 254.265 99.6168C254.265 101.182 254.886 102.682 255.993 103.789C257.099 104.895 258.6 105.517 260.165 105.517Z" fill="#F6F2ED"/>
<path d="M55.0378 201.555H53.2158V205.091H55.0378V201.555Z" fill="url(#paint0_linear_533_2687)"/>
<path d="M55.0378 211.297H53.2158V214.833H55.0378V211.297Z" fill="url(#paint1_linear_533_2687)"/>
<path d="M60.7674 207.283H57.2314V209.105H60.7674V207.283Z" fill="url(#paint2_linear_533_2687)"/>
<path d="M51.0243 207.283H47.4883V209.105H51.0243V207.283Z" fill="url(#paint3_linear_533_2687)"/>
<path d="M3.612 50.3666C5.60685 50.3666 7.224 48.7494 7.224 46.7546C7.224 44.7597 5.60685 43.1426 3.612 43.1426C1.61715 43.1426 0 44.7597 0 46.7546C0 48.7494 1.61715 50.3666 3.612 50.3666Z" fill="url(#paint4_linear_533_2687)"/>
<path d="M16.4548 103.625C18.0371 103.625 19.3198 102.342 19.3198 100.76C19.3198 99.1772 18.0371 97.8945 16.4548 97.8945C14.8725 97.8945 13.5898 99.1772 13.5898 100.76C13.5898 102.342 14.8725 103.625 16.4548 103.625Z" fill="url(#paint5_linear_533_2687)"/>
<path d="M274.827 114.472C276.595 114.472 278.028 113.039 278.028 111.271C278.028 109.503 276.595 108.07 274.827 108.07C273.059 108.07 271.626 109.503 271.626 111.271C271.626 113.039 273.059 114.472 274.827 114.472Z" fill="url(#paint6_linear_533_2687)"/>
<path d="M225.455 22.482C227.037 22.482 228.32 21.1992 228.32 19.617C228.32 18.0347 227.037 16.752 225.455 16.752C223.873 16.752 222.59 18.0347 222.59 19.617C222.59 21.1992 223.873 22.482 225.455 22.482Z" fill="url(#paint7_linear_533_2687)"/>
<path d="M76.3479 43.4629H38.5989C35.9116 43.4661 33.3353 44.535 31.4352 46.4352C29.535 48.3353 28.4661 50.9116 28.4629 53.5989V135.045C28.463 135.218 28.5044 135.389 28.5838 135.543C28.6632 135.697 28.7782 135.829 28.9193 135.93C29.0604 136.03 29.2234 136.096 29.3949 136.12C29.5663 136.145 29.7412 136.128 29.9049 136.072C31.0021 135.691 32.1385 135.433 33.2929 135.305C35.5862 135.031 37.9116 135.247 40.1154 135.938C42.3192 136.629 44.3513 137.78 46.0772 139.315C47.8032 140.85 49.1839 142.733 50.1279 144.841C51.072 146.949 51.558 149.233 51.5539 151.543C51.5539 151.999 51.5379 152.403 51.5059 152.787C51.4213 153.936 51.2124 155.073 50.8829 156.178C50.8341 156.34 50.8239 156.512 50.8532 156.679C50.8825 156.846 50.9504 157.003 51.0516 157.139C51.1527 157.276 51.2843 157.386 51.4357 157.462C51.5872 157.538 51.7544 157.578 51.9239 157.578H76.3479C79.0374 157.575 81.6158 156.505 83.5176 154.604C85.4193 152.702 86.489 150.123 86.4919 147.434V53.5999C86.4877 50.9115 85.4173 48.3345 83.5157 46.4342C81.614 44.5338 79.0363 43.4653 76.3479 43.4629ZM84.3179 147.435C84.3155 149.548 83.4751 151.574 81.9809 153.068C80.4868 154.562 78.4609 155.403 76.3479 155.405H53.3219C53.4934 154.599 53.6107 153.782 53.6729 152.96C53.7099 152.524 53.7279 152.06 53.7279 151.543C53.7237 146.63 51.7705 141.92 48.297 138.446C44.8236 134.971 40.1136 133.017 35.2009 133.012C34.4806 133.013 33.761 133.056 33.0459 133.142C32.2333 133.232 31.428 133.378 30.6359 133.581V53.5989C30.6385 51.4878 31.4783 49.4639 32.9711 47.9711C34.4639 46.4784 36.4878 45.6385 38.5989 45.6359H76.3469C78.459 45.6375 80.4842 46.4767 81.9783 47.9695C83.4724 49.4623 84.3134 51.4868 84.3169 53.5989L84.3179 147.435Z" fill="#F6F2ED"/>
<path d="M76.3481 47.0898H38.6001C36.8722 47.0909 35.2152 47.7773 33.9927 48.9985C32.7702 50.2197 32.082 51.8759 32.0791 53.6039V135.454L33.2941 135.309C35.5874 135.035 37.9128 135.25 40.1166 135.942C42.3204 136.633 44.3525 137.784 46.0784 139.319C47.8044 140.854 49.1851 142.737 50.1292 144.845C51.0732 146.953 51.5592 149.237 51.5551 151.547C51.5551 152.003 51.5391 152.407 51.5071 152.782L51.4071 153.96H76.3471C78.076 153.958 79.7336 153.27 80.9561 152.048C82.1786 150.825 82.8662 149.168 82.8681 147.439V53.5999C82.8641 51.8728 82.1756 50.2177 80.9534 48.9974C79.7313 47.7771 78.0752 47.0912 76.3481 47.0898ZM80.6951 147.439C80.6938 148.591 80.2354 149.696 79.4204 150.511C78.6055 151.326 77.5006 151.785 76.3481 151.786H53.7261C53.7261 151.708 53.7261 151.628 53.7261 151.547C53.7219 146.634 51.769 141.924 48.2959 138.45C44.8229 134.976 40.1135 133.022 35.2011 133.016C34.8881 133.016 34.5711 133.024 34.2521 133.041V53.5999C34.2545 52.4482 34.7136 51.3444 35.5287 50.5308C36.3438 49.7172 37.4484 49.2601 38.6001 49.2599H76.3481C77.4996 49.2604 78.6039 49.7176 79.4188 50.5312C80.2337 51.3448 80.6927 52.4483 80.6951 53.5999V147.439Z" fill="url(#paint8_linear_533_2687)"/>
<path d="M164.199 62.0617C160.268 62.0664 156.468 60.6532 153.495 58.0815C150.522 55.5099 148.576 51.9523 148.015 48.0617C148.015 48.0467 148.015 48.0307 148.009 48.0147C147.901 47.2528 147.847 46.4843 147.847 45.7147C147.847 45.3507 147.86 44.9947 147.887 44.6377C147.898 44.4885 147.878 44.3386 147.829 44.1974C147.78 44.0562 147.702 43.9267 147.6 43.817C147.498 43.7072 147.375 43.6197 147.238 43.5598C147.101 43.4999 146.953 43.4689 146.803 43.4688H117.394C114.706 43.4709 112.128 44.5392 110.226 46.4394C108.325 48.3395 107.254 50.9164 107.25 53.6047V147.44C107.253 150.129 108.323 152.708 110.224 154.609C112.126 156.511 114.705 157.581 117.394 157.584H155.142C157.831 157.581 160.41 156.511 162.312 154.609C164.213 152.708 165.283 150.129 165.286 147.44V63.1487C165.286 62.8605 165.171 62.584 164.968 62.3801C164.764 62.1763 164.487 62.0617 164.199 62.0617ZM163.112 147.435C163.11 149.548 162.269 151.574 160.775 153.068C159.281 154.562 157.255 155.402 155.142 155.405H117.394C115.281 155.402 113.255 154.562 111.761 153.068C110.267 151.574 109.426 149.548 109.424 147.435V53.5997C109.427 51.4877 110.268 49.4632 111.763 47.9704C113.257 46.4776 115.282 45.6383 117.394 45.6367H145.673V45.7087C145.673 46.5688 145.732 47.4279 145.851 48.2797C145.851 48.2947 145.851 48.3107 145.856 48.3257C146.455 52.5586 148.501 56.4535 151.646 59.3483C154.792 62.2431 158.843 63.9592 163.111 64.2047L163.112 147.435Z" fill="#F6F2ED"/>
<path d="M160.797 61.7089C157.521 61.0096 154.538 59.3223 152.251 56.8747C149.964 54.4271 148.482 51.3369 148.006 48.0209L147.874 47.0859H117.397C115.669 47.087 114.012 47.7734 112.79 48.9946C111.567 50.2158 110.879 51.872 110.876 53.5999V147.435C110.878 149.164 111.565 150.821 112.788 152.044C114.011 153.266 115.668 153.954 117.397 153.956H155.145C156.874 153.954 158.531 153.266 159.754 152.044C160.976 150.821 161.664 149.164 161.666 147.435V61.8899L160.797 61.7089ZM159.486 147.436C159.485 148.588 159.026 149.693 158.211 150.508C157.396 151.323 156.291 151.782 155.139 151.783H117.397C116.244 151.782 115.139 151.324 114.324 150.509C113.509 149.694 113.05 148.589 113.049 147.436V53.5999C113.051 52.4483 113.51 51.3445 114.326 50.5309C115.141 49.7173 116.245 49.2602 117.397 49.2599H146.017C146.689 52.6785 148.309 55.8392 150.692 58.3806C153.075 60.9221 156.125 62.7419 159.493 63.6319V147.432L159.486 147.436Z" fill="#F6F2ED"/>
<path d="M243.106 61.9889C241.951 61.8712 240.811 61.6322 239.706 61.2759L239.641 61.2569C236.747 60.3037 234.176 58.5642 232.214 56.233C230.253 53.9019 228.978 51.0709 228.534 48.0569C228.534 48.0409 228.534 48.0239 228.528 48.0089C228.419 47.2471 228.364 46.4785 228.365 45.7089C228.365 45.3449 228.378 44.9889 228.405 44.6319C228.416 44.4827 228.396 44.3328 228.347 44.1916C228.297 44.0503 228.219 43.9208 228.118 43.8111C228.016 43.7014 227.893 43.6138 227.756 43.5539C227.619 43.494 227.471 43.463 227.321 43.4629H196.188C193.5 43.4653 190.922 44.5337 189.021 46.4339C187.119 48.334 186.049 50.9107 186.045 53.5989V147.434C186.048 150.123 187.118 152.702 189.019 154.604C190.921 156.505 193.499 157.575 196.189 157.578H233.937C236.626 157.575 239.205 156.505 241.107 154.604C243.008 152.702 244.078 150.123 244.081 147.434V63.0689C244.081 62.8001 243.981 62.5409 243.801 62.3415C243.621 62.142 243.373 62.0164 243.106 61.9889ZM241.906 147.436C241.904 149.549 241.063 151.575 239.569 153.069C238.075 154.563 236.049 155.404 233.936 155.406H196.188C194.075 155.404 192.049 154.563 190.555 153.069C189.061 151.575 188.22 149.549 188.218 147.436V53.5999C188.221 51.4878 189.062 49.4633 190.557 47.9705C192.051 46.4777 194.076 45.6385 196.188 45.6369H226.188V45.7089C226.187 46.5691 226.248 47.4282 226.368 48.2799C226.368 48.2949 226.368 48.3099 226.373 48.3239C226.872 51.7582 228.321 54.9845 230.557 57.6384C232.793 60.2922 235.727 62.2678 239.027 63.3419C239.048 63.3479 239.069 63.3549 239.09 63.3589C240.009 63.6528 240.949 63.8744 241.903 64.0219V147.434L241.906 147.436Z" fill="#F6F2ED"/>
<path d="M240.45 61.5169L239.696 61.2739C236.784 60.3262 234.195 58.5828 232.221 56.2409C230.248 53.8989 228.968 51.0517 228.528 48.0209L228.396 47.0859H196.188C194.46 47.087 192.803 47.7734 191.581 48.9946C190.358 50.2158 189.67 51.872 189.667 53.5999V147.435C189.669 149.164 190.356 150.821 191.579 152.044C192.802 153.266 194.459 153.954 196.188 153.956H233.936C235.665 153.954 237.322 153.266 238.545 152.044C239.768 150.821 240.455 149.164 240.457 147.435L240.45 61.5169ZM233.936 151.783H196.188C195.035 151.782 193.931 151.323 193.116 150.508C192.301 149.693 191.842 148.588 191.841 147.436V53.5999C191.843 52.4484 192.302 51.3448 193.117 50.5312C193.932 49.7177 195.036 49.2605 196.188 49.2599H226.533C227.15 52.3736 228.553 55.2779 230.608 57.697C232.664 60.1161 235.303 61.9697 238.276 63.0819L238.283 147.436C238.282 148.588 237.823 149.693 237.008 150.508C236.193 151.323 235.088 151.782 233.936 151.783Z" fill="url(#paint9_linear_533_2687)"/>
<path d="M53.6847 75.9727H41.2657C40.9774 75.9727 40.7009 76.0872 40.4971 76.291C40.2932 76.4949 40.1787 76.7714 40.1787 77.0597V83.8277C40.179 84.1158 40.2936 84.392 40.4974 84.5956C40.7013 84.7993 40.9776 84.9137 41.2657 84.9137H53.6847C53.973 84.9137 54.2495 84.7991 54.4533 84.5953C54.6572 84.3914 54.7717 84.115 54.7717 83.8267V77.0587C54.7714 76.7705 54.6568 76.4943 54.453 76.2907C54.2492 76.087 53.9728 75.9727 53.6847 75.9727ZM52.5977 82.7397H42.3527V78.1457H52.5987L52.5977 82.7397Z" fill="url(#paint10_linear_533_2687)"/>
<path d="M53.6847 88.2031H41.2657C40.9774 88.2031 40.7009 88.3176 40.4971 88.5215C40.2932 88.7254 40.1787 89.0018 40.1787 89.2901V96.0571C40.179 96.3452 40.2936 96.6215 40.4974 96.8251C40.7013 97.0287 40.9776 97.1431 41.2657 97.1431H53.6847C53.973 97.1431 54.2495 97.0286 54.4533 96.8248C54.6572 96.6209 54.7717 96.3444 54.7717 96.0561V89.2891C54.7714 89.001 54.6568 88.7248 54.453 88.5211C54.2492 88.3175 53.9728 88.2031 53.6847 88.2031ZM52.5977 94.9701H42.3527V90.3761H52.5987L52.5977 94.9701Z" fill="#F6F2ED"/>
<path d="M231.9 75.9727H199.482C199.193 75.9727 198.917 76.0872 198.713 76.291C198.509 76.4949 198.395 76.7714 198.395 77.0597V83.8277C198.395 84.1159 198.509 84.3924 198.713 84.5963C198.917 84.8001 199.193 84.9147 199.482 84.9147H231.9C232.188 84.9147 232.464 84.8001 232.668 84.5963C232.872 84.3924 232.987 84.1159 232.987 83.8277V77.0597C232.987 76.7714 232.872 76.4949 232.668 76.291C232.464 76.0872 232.188 75.9727 231.9 75.9727ZM230.813 82.7397H200.568V78.1457H230.814L230.813 82.7397Z" fill="url(#paint11_linear_533_2687)"/>
<path d="M231.9 88.2031H199.482C199.193 88.2031 198.917 88.3176 198.713 88.5215C198.509 88.7254 198.395 89.0018 198.395 89.2901V96.0571C198.395 96.3454 198.509 96.6219 198.713 96.8257C198.917 97.0296 199.193 97.1441 199.482 97.1441H231.9C232.188 97.1441 232.464 97.0296 232.668 96.8257C232.872 96.6219 232.987 96.3454 232.987 96.0571V89.2901C232.987 89.0018 232.872 88.7254 232.668 88.5215C232.464 88.3176 232.188 88.2031 231.9 88.2031ZM230.813 94.9701H200.568V90.3761H230.814L230.813 94.9701Z" fill="#F6F2ED"/>
<path d="M53.6847 100.215H41.2657C40.9774 100.215 40.7009 100.329 40.4971 100.533C40.2932 100.737 40.1787 101.014 40.1787 101.302V108.069C40.179 108.357 40.2936 108.633 40.4974 108.837C40.7013 109.04 40.9776 109.155 41.2657 109.155H53.6847C53.973 109.155 54.2495 109.04 54.4533 108.836C54.6572 108.633 54.7717 108.356 54.7717 108.068V101.301C54.7714 101.013 54.6568 100.737 54.453 100.533C54.2492 100.329 53.9728 100.215 53.6847 100.215ZM52.5977 106.982H42.3527V102.388H52.5987L52.5977 106.982Z" fill="url(#paint12_linear_533_2687)"/>
<path d="M53.6847 112.445H41.2657C40.9774 112.445 40.7009 112.56 40.4971 112.764C40.2932 112.968 40.1787 113.244 40.1787 113.532V120.3C40.179 120.588 40.2936 120.865 40.4974 121.068C40.7013 121.272 40.9776 121.386 41.2657 121.386H53.6847C53.973 121.386 54.2495 121.272 54.4533 121.068C54.6572 120.864 54.7717 120.588 54.7717 120.299V113.531C54.7714 113.243 54.6568 112.967 54.453 112.763C54.2492 112.56 53.9728 112.445 53.6847 112.445ZM52.5977 119.212H42.3527V114.618H52.5987L52.5977 119.212Z" fill="#F6F2ED"/>
<path d="M231.9 100.215H199.482C199.193 100.215 198.917 100.329 198.713 100.533C198.509 100.737 198.395 101.014 198.395 101.302V108.069C198.395 108.357 198.509 108.634 198.713 108.837C198.917 109.041 199.193 109.156 199.482 109.156H231.9C232.188 109.156 232.464 109.041 232.668 108.837C232.872 108.634 232.987 108.357 232.987 108.069V101.302C232.987 101.014 232.872 100.737 232.668 100.533C232.464 100.329 232.188 100.215 231.9 100.215ZM230.813 106.982H200.568V102.388H230.814L230.813 106.982Z" fill="url(#paint13_linear_533_2687)"/>
<path d="M231.9 112.445H199.482C199.193 112.445 198.917 112.56 198.713 112.764C198.509 112.968 198.395 113.244 198.395 113.532V120.3C198.395 120.589 198.509 120.865 198.713 121.069C198.917 121.273 199.193 121.387 199.482 121.387H231.9C232.188 121.387 232.464 121.273 232.668 121.069C232.872 120.865 232.987 120.589 232.987 120.3V113.532C232.987 113.244 232.872 112.968 232.668 112.764C232.464 112.56 232.188 112.445 231.9 112.445ZM230.813 119.212H200.568V114.618H230.814L230.813 119.212Z" fill="#F6F2ED"/>
<path d="M71.5116 34.9163L72.8116 36.6543C73.3766 36.2303 73.9566 35.8183 74.5366 35.4283L73.3236 33.6283C72.7186 34.0353 72.1076 34.4693 71.5116 34.9163ZM79.1656 30.3473L80.0726 32.3223C80.7186 32.0223 81.3726 31.7463 82.0186 31.4893L81.2186 29.4683C80.5396 29.7393 79.8466 30.0343 79.1656 30.3473ZM75.2146 32.4283L76.3296 34.2943C76.9296 33.9343 77.5526 33.5863 78.1746 33.2583L77.1616 31.3353C76.5056 31.6813 75.8516 32.0493 75.2146 32.4283ZM87.6146 27.5103L88.0816 29.6323C88.7616 29.4833 89.4596 29.3483 90.1586 29.2323L89.8046 27.0873C89.0716 27.2113 88.3396 27.3523 87.6176 27.5103H87.6146ZM83.3146 28.7013L84.0056 30.7623C84.6696 30.5393 85.3506 30.3313 86.0316 30.1423L85.4496 28.0483C84.7396 28.2463 84.0166 28.4663 83.3166 28.7013H83.3146ZM59.9066 48.3013L61.8066 49.3473C62.1466 48.7283 62.5066 48.1143 62.8736 47.5223L61.0266 46.3763C60.6396 46.9963 60.2666 47.6443 59.9076 48.2983L59.9066 48.3013ZM57.9736 52.3183L59.9806 53.1543C60.2486 52.5093 60.5396 51.8603 60.8456 51.2273L58.8876 50.2843C58.5656 50.9493 58.2586 51.6343 57.9746 52.3153L57.9736 52.3183ZM92.0166 26.7893L92.2556 28.9503C92.9446 28.8743 93.6556 28.8143 94.3626 28.7733L94.2386 26.6033C93.4926 26.6423 92.7396 26.7053 92.0176 26.7853L92.0166 26.7893ZM64.9956 40.9943L66.6376 42.4193C67.1016 41.8843 67.5826 41.3593 68.0656 40.8583L66.5016 39.3503C65.9926 39.8753 65.4856 40.4273 64.9966 40.9903L64.9956 40.9943ZM62.2566 44.5123L64.0396 45.7563C64.4396 45.1773 64.8656 44.6053 65.2936 44.0563L63.5786 42.7223C63.1276 43.2963 62.6826 43.8993 62.2576 44.5093L62.2566 44.5123ZM68.0906 37.7843L69.5716 39.3743C70.0906 38.8913 70.6236 38.4193 71.1576 37.9743L69.7576 36.3083C69.2006 36.7753 68.6396 37.2753 68.0916 37.7813L68.0906 37.7843ZM128.053 40.6843L126.425 42.1253C126.888 42.6483 127.346 43.1943 127.784 43.7463L129.484 42.3953C129.027 41.8083 128.54 41.2323 128.055 40.6753L128.053 40.6843ZM130.828 44.1783L129.056 45.4383C129.463 46.0103 129.856 46.6003 130.236 47.1943L132.072 46.0313C131.677 45.4003 131.259 44.7753 130.83 44.1753L130.828 44.1783ZM124.928 37.5043L123.462 39.1043C123.978 39.5753 124.49 40.0703 124.985 40.5723L126.535 39.0483C126.012 38.5193 125.472 37.9973 124.927 37.5003L124.928 37.5043ZM133.22 47.9473L131.32 49.0113C131.664 49.6243 131.996 50.2533 132.307 50.8833L134.256 49.9213C133.931 49.2533 133.582 48.5893 133.219 47.9433L133.22 47.9473ZM135.195 51.9473L133.195 52.8043C133.47 53.4443 133.732 54.1043 133.975 54.7703L136.017 54.0233C135.761 53.3213 135.484 52.6233 135.194 51.9463L135.195 51.9473ZM120.195 36.4223C120.757 36.8363 121.319 37.2733 121.863 37.7223L123.243 36.0423C122.669 35.5703 122.076 35.1093 121.483 34.6733L120.195 36.4223ZM100.705 28.9083C101.405 28.9793 102.113 29.0703 102.805 29.1773L103.137 27.0293C102.41 26.9173 101.666 26.8213 100.925 26.7463L100.705 28.9083ZM104.882 29.5573C105.568 29.7023 106.26 29.8673 106.939 30.0483L107.5 27.9483C106.784 27.7573 106.053 27.5833 105.33 27.4303L104.882 29.5573ZM116.663 34.1003C117.263 34.4533 117.871 34.8273 118.463 35.2143L119.657 33.3993C119.037 32.9913 118.4 32.5993 117.762 32.2233L116.663 34.1003ZM96.4626 26.5323L96.4866 28.7063H96.7026C97.3246 28.7063 97.9606 28.7213 98.5936 28.7523L98.6936 26.5813C98.0106 26.5483 97.3246 26.5143 96.6566 26.5323H96.4626ZM112.906 32.1663C113.541 32.4503 114.182 32.7593 114.806 33.0823L115.801 31.1493C115.139 30.8093 114.462 30.4833 113.791 30.1833L112.906 32.1663ZM108.965 30.6473C109.627 30.8623 110.297 31.1003 110.955 31.3543L111.738 29.3263C111.038 29.0583 110.338 28.8073 109.638 28.5803L108.965 30.6473Z" fill="#F6F2ED"/>
<path d="M56.8448 53.0469C55.7979 53.0469 54.7746 53.3573 53.9041 53.9389C53.0337 54.5205 52.3553 55.3472 51.9547 56.3143C51.5541 57.2815 51.4492 58.3457 51.6535 59.3725C51.8577 60.3992 52.3618 61.3424 53.102 62.0826C53.8423 62.8228 54.7854 63.3269 55.8121 63.5312C56.8389 63.7354 57.9031 63.6306 58.8703 63.23C59.8375 62.8294 60.6641 62.1509 61.2457 61.2805C61.8273 60.4101 62.1378 59.3867 62.1378 58.3399C62.1359 56.9367 61.5777 55.5914 60.5854 54.5992C59.5932 53.607 58.248 53.0487 56.8448 53.0469ZM56.8448 61.4599C56.2277 61.4599 55.6245 61.2769 55.1114 60.9341C54.5983 60.5912 54.1984 60.1039 53.9623 59.5338C53.7261 58.9637 53.6643 58.3364 53.7847 57.7312C53.9051 57.126 54.2022 56.57 54.6386 56.1337C55.0749 55.6974 55.6309 55.4002 56.2361 55.2798C56.8413 55.1594 57.4686 55.2212 58.0387 55.4574C58.6088 55.6935 59.0961 56.0934 59.4389 56.6065C59.7818 57.1196 59.9648 57.7228 59.9648 58.3399C59.964 59.1671 59.635 59.9602 59.0501 60.5452C58.4651 61.1301 57.672 61.4591 56.8448 61.4599Z" fill="#F6F2ED"/>
<path d="M136.32 53.0469C135.273 53.0469 134.25 53.3573 133.38 53.9389C132.509 54.5205 131.831 55.3472 131.43 56.3143C131.03 57.2815 130.925 58.3457 131.129 59.3725C131.333 60.3992 131.837 61.3424 132.578 62.0826C133.318 62.8228 134.261 63.3269 135.288 63.5312C136.314 63.7354 137.379 63.6306 138.346 63.23C139.313 62.8294 140.14 62.1509 140.721 61.2805C141.303 60.4101 141.613 59.3867 141.613 58.3399C141.611 56.9367 141.053 55.5914 140.061 54.5992C139.069 53.607 137.724 53.0487 136.32 53.0469ZM136.32 61.4599C135.703 61.4599 135.1 61.2769 134.587 60.9341C134.074 60.5912 133.674 60.1039 133.438 59.5338C133.202 58.9637 133.14 58.3364 133.26 57.7312C133.381 57.126 133.678 56.57 134.114 56.1337C134.551 55.6974 135.106 55.4002 135.712 55.2798C136.317 55.1594 136.944 55.2212 137.514 55.4574C138.084 55.6935 138.572 56.0934 138.915 56.6065C139.257 57.1196 139.44 57.7228 139.44 58.3399C139.44 59.1671 139.111 59.9602 138.526 60.5452C137.941 61.1301 137.148 61.4591 136.32 61.4599Z" fill="#F6F2ED"/>
<path d="M174.155 177.412C174.894 177.452 175.644 177.473 176.384 177.474V175.3C175.684 175.3 174.97 175.279 174.268 175.241L174.155 177.412ZM157.076 172.749C157.736 173.092 158.411 173.421 159.076 173.724L159.976 171.744C159.342 171.457 158.703 171.144 158.076 170.82L157.076 172.749ZM169.721 176.935C170.447 177.052 171.191 177.152 171.931 177.235L172.163 175.074C171.463 174.998 170.756 174.904 170.063 174.793L169.721 176.935ZM153.236 170.487C153.855 170.897 154.491 171.295 155.127 171.669L156.227 169.795C155.627 169.44 155.027 169.064 154.435 168.675L153.236 170.487ZM165.361 175.992C166.071 176.186 166.8 176.364 167.529 176.521L167.987 174.397C167.297 174.248 166.606 174.078 165.934 173.897L165.361 175.992ZM161.133 174.592C161.818 174.861 162.524 175.115 163.233 175.348L163.916 173.285C163.248 173.064 162.578 172.822 161.929 172.568L161.133 174.592ZM140.614 152.975L138.664 153.935C138.991 154.599 139.34 155.265 139.702 155.911L141.602 154.848C141.255 154.235 140.924 153.604 140.614 152.975ZM138.944 149.082L136.902 149.829C137.159 150.529 137.436 151.229 137.727 151.906L139.727 151.049C139.454 150.409 139.191 149.747 138.944 149.082ZM149.649 167.829C150.216 168.299 150.807 168.762 151.405 169.205L152.7 167.459C152.133 167.039 151.574 166.601 151.035 166.159L149.649 167.829ZM142.677 156.665L140.84 157.827C141.24 158.456 141.655 159.079 142.082 159.681L143.855 158.423C143.455 157.854 143.059 157.262 142.682 156.666L142.677 156.665ZM146.367 164.812C146.891 165.348 147.431 165.871 147.967 166.365L149.436 164.765C148.925 164.297 148.414 163.802 147.917 163.294L146.367 164.812ZM145.124 160.112L143.424 161.462C143.879 162.036 144.359 162.612 144.852 163.172L146.485 161.737C146.018 161.21 145.561 160.662 145.129 160.117L145.124 160.112ZM207.724 160.241L209.424 161.596C209.883 161.02 210.335 160.422 210.768 159.817L209.001 158.552C208.598 159.132 208.169 159.7 207.733 160.246L207.724 160.241ZM204.916 163.403L206.464 164.93C206.981 164.405 207.495 163.857 207.987 163.302L206.363 161.859C205.903 162.391 205.416 162.91 204.924 163.408L204.916 163.403ZM201.791 166.255L203.169 167.935C203.746 167.462 204.314 166.971 204.856 166.476L203.391 164.87C202.885 165.344 202.344 165.81 201.799 166.26L201.791 166.255ZM210.184 156.801L212.016 157.97C212.416 157.342 212.803 156.699 213.165 156.06L211.273 154.99C210.944 155.601 210.573 156.21 210.193 156.806L210.184 156.801ZM214.009 149.074L213.947 149.241L215.982 150.004L216.047 149.828L214.009 149.074ZM212.266 153.122L214.212 154.091C214.543 153.426 214.859 152.746 215.153 152.07L213.153 151.207C212.888 151.852 212.589 152.497 212.274 153.127L212.266 153.122ZM178.503 175.252L178.61 177.423C179.349 177.386 180.097 177.33 180.834 177.254L180.612 175.092C179.914 175.163 179.204 175.217 178.503 175.252ZM182.71 174.819L183.046 176.967C183.782 176.852 184.52 176.716 185.24 176.567L184.79 174.44C184.107 174.582 183.408 174.71 182.71 174.819ZM186.848 173.944L187.41 176.044C188.122 175.854 188.842 175.644 189.551 175.409L188.879 173.342C188.206 173.561 187.523 173.763 186.844 173.944H186.848ZM198.39 168.766L199.583 170.583C200.2 170.183 200.816 169.749 201.415 169.31L200.129 167.558C199.56 167.976 198.974 168.382 198.39 168.766ZM194.735 170.899L195.728 172.832C196.381 172.496 197.039 172.132 197.684 171.76L196.59 169.882C195.977 170.239 195.353 170.582 194.735 170.899ZM190.873 172.632L191.656 174.66C192.343 174.395 193.036 174.106 193.716 173.801L192.827 171.817C192.181 172.106 191.524 172.382 190.873 172.632Z" fill="#F6F2ED"/>
<path d="M216.526 140.176C215.474 140.176 214.446 140.488 213.572 141.072C212.698 141.656 212.016 142.486 211.614 143.458C211.211 144.43 211.106 145.499 211.311 146.53C211.516 147.561 212.023 148.509 212.766 149.252C213.51 149.996 214.457 150.502 215.489 150.708C216.52 150.913 217.589 150.807 218.561 150.405C219.532 150.003 220.363 149.321 220.947 148.447C221.531 147.572 221.843 146.544 221.843 145.493C221.841 144.083 221.281 142.732 220.284 141.735C219.287 140.738 217.936 140.177 216.526 140.176ZM216.526 148.637C215.904 148.637 215.297 148.452 214.78 148.107C214.263 147.762 213.86 147.271 213.622 146.696C213.384 146.122 213.322 145.49 213.443 144.88C213.565 144.271 213.864 143.71 214.304 143.271C214.744 142.831 215.304 142.532 215.913 142.411C216.523 142.29 217.155 142.352 217.729 142.59C218.304 142.828 218.795 143.231 219.14 143.748C219.485 144.265 219.669 144.873 219.669 145.495C219.668 146.328 219.336 147.126 218.747 147.715C218.158 148.304 217.359 148.636 216.526 148.637Z" fill="#F6F2ED"/>
<path d="M136.598 140.176C135.547 140.176 134.519 140.488 133.645 141.072C132.77 141.657 132.089 142.487 131.687 143.459C131.284 144.43 131.179 145.499 131.385 146.531C131.59 147.562 132.096 148.509 132.84 149.253C133.584 149.996 134.531 150.503 135.562 150.708C136.594 150.913 137.663 150.807 138.634 150.405C139.606 150.002 140.436 149.321 141.02 148.447C141.604 147.572 141.916 146.544 141.916 145.493C141.915 144.083 141.354 142.731 140.357 141.734C139.36 140.738 138.008 140.177 136.598 140.176ZM136.598 148.637C135.977 148.636 135.369 148.452 134.853 148.106C134.336 147.761 133.933 147.27 133.696 146.695C133.458 146.121 133.396 145.489 133.518 144.879C133.639 144.27 133.939 143.71 134.378 143.271C134.818 142.831 135.378 142.532 135.988 142.411C136.597 142.29 137.229 142.352 137.803 142.59C138.378 142.828 138.868 143.231 139.214 143.748C139.559 144.265 139.743 144.872 139.743 145.494C139.742 146.327 139.41 147.127 138.821 147.716C138.231 148.305 137.432 148.636 136.598 148.637Z" fill="#F6F2ED"/>
<path d="M101.439 26.9874L92.9876 20.0684L91.6106 21.7514L99.0496 27.8404L91.5986 34.1224L92.9986 35.7834L101.45 28.6594C101.572 28.5565 101.67 28.428 101.736 28.283C101.803 28.138 101.837 27.9801 101.836 27.8205C101.835 27.6609 101.798 27.5036 101.73 27.3596C101.661 27.2156 101.562 27.0885 101.439 26.9874Z" fill="#F6F2ED"/>
<path d="M181.648 175.662L173.197 168.537L171.797 170.198L179.247 176.481L171.809 182.569L173.186 184.252L181.637 177.334C181.76 177.233 181.86 177.106 181.929 176.962C181.998 176.818 182.034 176.661 182.035 176.501C182.036 176.341 182.002 176.183 181.936 176.038C181.869 175.893 181.771 175.765 181.649 175.662H181.648Z" fill="#F6F2ED"/>
<path d="M244.421 56.0614C250.139 56.0614 254.773 51.4267 254.773 45.7094C254.773 39.9922 250.139 35.3574 244.421 35.3574C238.704 35.3574 234.069 39.9922 234.069 45.7094C234.069 51.4267 238.704 56.0614 244.421 56.0614Z" fill="url(#paint14_linear_533_2687)"/>
<path d="M244.719 27.1816C241.055 27.1816 237.473 28.2683 234.426 30.3042C231.379 32.3401 229.004 35.2337 227.602 38.6193C226.199 42.0048 225.833 45.7302 226.547 49.3243C227.262 52.9184 229.027 56.2197 231.618 58.8109C234.209 61.4021 237.511 63.1667 241.105 63.8816C244.699 64.5965 248.424 64.2296 251.81 62.8273C255.195 61.4249 258.089 59.0502 260.125 56.0033C262.161 52.9563 263.247 49.3741 263.247 45.7096C263.242 40.7974 261.288 36.088 257.815 32.6145C254.341 29.141 249.632 27.1872 244.719 27.1816ZM244.719 62.0646C241.485 62.0646 238.323 61.1055 235.634 59.3085C232.944 57.5115 230.848 54.9573 229.61 51.969C228.372 48.9807 228.049 45.6925 228.68 42.5201C229.311 39.3478 230.868 36.4338 233.155 34.1466C235.443 31.8595 238.357 30.3019 241.529 29.6709C244.701 29.0399 247.99 29.3637 250.978 30.6015C253.966 31.8393 256.52 33.9354 258.317 36.6248C260.114 39.3142 261.073 42.4761 261.073 45.7106C261.068 50.0464 259.344 54.2032 256.278 57.2691C253.212 60.335 249.055 62.0596 244.719 62.0646Z" fill="#F6F2ED"/>
<path d="M250.435 40.5977L243.453 47.9697L240.736 44.9787L239.127 46.4407L242.627 50.2997C242.728 50.4103 242.85 50.499 242.986 50.5603C243.123 50.6215 243.27 50.654 243.42 50.6557H243.431C243.579 50.6559 243.725 50.6258 243.861 50.5673C243.996 50.5088 244.119 50.4232 244.22 50.3157L252.008 42.0927L250.435 40.5977Z" fill="#F6F2ED"/>
<path d="M163.901 56.0614C169.618 56.0614 174.253 51.4267 174.253 45.7094C174.253 39.9922 169.618 35.3574 163.901 35.3574C158.184 35.3574 153.549 39.9922 153.549 45.7094C153.549 51.4267 158.184 56.0614 163.901 56.0614Z" fill="url(#paint15_linear_533_2687)"/>
<path d="M164.198 27.1816C160.533 27.1816 156.951 28.2683 153.904 30.3042C150.857 32.3401 148.483 35.2337 147.08 38.6193C145.678 42.0048 145.311 45.7302 146.026 49.3243C146.741 52.9184 148.505 56.2197 151.097 58.8109C153.688 61.4021 156.989 63.1667 160.583 63.8816C164.177 64.5965 167.903 64.2296 171.288 62.8273C174.674 61.4249 177.568 59.0502 179.603 56.0033C181.639 52.9563 182.726 49.3741 182.726 45.7096C182.72 40.7974 180.767 36.088 177.293 32.6145C173.82 29.141 169.11 27.1872 164.198 27.1816ZM164.198 62.0646C160.963 62.065 157.801 61.1063 155.112 59.3095C152.422 57.5128 150.326 54.9589 149.087 51.9707C147.849 48.9824 147.525 45.6942 148.156 42.5217C148.787 39.3493 150.344 36.4351 152.631 34.1477C154.918 31.8603 157.832 30.3024 161.004 29.6711C164.176 29.0398 167.465 29.3635 170.453 30.601C173.442 31.8386 175.996 33.9346 177.793 36.6239C179.59 39.3132 180.55 42.4751 180.55 45.7096C180.545 50.0453 178.821 54.202 175.755 57.2681C172.69 60.3341 168.534 62.0591 164.198 62.0646Z" fill="#F6F2ED"/>
<path d="M152.711 41.9054L150.648 41.2234C150.401 41.9685 150.217 42.7328 150.097 43.5084L152.245 43.8394C152.347 43.183 152.503 42.5362 152.711 41.9054ZM154.563 38.3914L152.831 37.0764C152.357 37.7019 151.935 38.3651 151.569 39.0594L153.492 40.0714C153.802 39.4842 154.16 38.9236 154.563 38.3954V38.3914ZM152.104 45.8284L149.93 45.8494C149.938 46.6332 150.009 47.4152 150.144 48.1874L152.285 47.8124C152.171 47.1584 152.11 46.4962 152.104 45.8324V45.8284ZM152.791 49.7374L150.742 50.4624C151.003 51.2017 151.325 51.9181 151.705 52.6044L153.605 51.5524C153.284 50.9725 153.012 50.3671 152.791 49.7424V49.7374ZM161.06 34.0194L160.497 31.9194C159.739 32.123 158.999 32.3886 158.285 32.7134L159.185 34.6914C159.791 34.4179 160.419 34.1948 161.063 34.0244L161.06 34.0194ZM174.731 39.7504L176.622 38.6794C176.235 37.9972 175.793 37.348 175.3 36.7384L173.611 38.1054C174.028 38.624 174.403 39.1758 174.731 39.7554V39.7504ZM176.091 43.4784L178.228 43.0784C178.083 42.3069 177.876 41.5487 177.607 40.8114L175.565 41.5574C175.793 42.1833 175.969 42.8272 176.091 43.4824V43.4784ZM157.448 35.6664L156.234 33.8664C155.583 34.3046 154.97 34.7956 154.4 35.3344L155.893 36.9134C156.376 36.457 156.897 36.0412 157.449 35.6704L157.448 35.6664ZM154.711 53.2094L153.011 54.5594C153.496 55.1738 154.031 55.7474 154.611 56.2744L156.071 54.6654C155.579 54.2187 155.125 53.7331 154.712 53.2134L154.711 53.2094ZM178.465 45.4204L176.291 45.4544V45.7044C176.291 46.3697 176.237 47.0339 176.129 47.6904L178.274 48.0444C178.4 47.2682 178.464 46.4829 178.464 45.6964L178.465 45.4204ZM172.415 54.5814L173.89 56.1814C174.466 55.6488 174.997 55.0695 175.478 54.4494L173.76 53.1174C173.352 53.6428 172.902 54.1341 172.415 54.5864V54.5814ZM156.475 57.7064C157.134 58.1319 157.828 58.5018 158.549 58.8124L159.409 56.8124C158.798 56.5488 158.211 56.2354 157.652 55.8754L156.475 57.7064ZM169.101 56.7664L169.981 58.7544C170.697 58.436 171.387 58.0591 172.042 57.6274L170.842 55.8134C170.289 56.1805 169.707 56.501 169.101 56.7714V56.7664ZM174.849 51.4464L176.762 52.4764C177.134 51.7857 177.449 51.0656 177.703 50.3234L175.647 49.6234C175.431 50.2535 175.164 50.8648 174.849 51.4514V51.4464ZM171.802 33.6264L170.642 35.4644C171.204 35.8204 171.737 36.2217 172.235 36.6644L173.678 35.0404C173.092 34.5204 172.464 34.0492 171.802 33.6314V33.6264ZM167.479 31.8134L166.979 33.9294C167.626 34.0822 168.259 34.2882 168.873 34.5454L169.714 32.5454C168.99 32.2422 168.242 31.9991 167.479 31.8184V31.8134ZM162.809 31.5014L163.019 33.6654C163.681 33.601 164.347 33.5909 165.011 33.6354L165.158 31.4674C164.375 31.4147 163.589 31.4274 162.809 31.5054V31.5014ZM160.778 59.5624C161.539 59.7487 162.315 59.8724 163.097 59.9324L163.263 57.7644C162.599 57.7142 161.942 57.6092 161.296 57.4504L160.778 59.5624ZM165.258 57.7544L165.445 59.9194C166.227 59.8523 167.002 59.7205 167.762 59.5254L167.22 57.4194C166.578 57.5865 165.923 57.7003 165.263 57.7594L165.258 57.7544Z" fill="#F6F2ED"/>
<path d="M233.232 41.9097L231.169 41.2277C230.923 41.9728 230.739 42.7371 230.619 43.5127L232.767 43.8437C232.868 43.1873 233.024 42.5404 233.232 41.9097ZM232.624 45.8337L230.45 45.8547C230.458 46.6386 230.53 47.4205 230.664 48.1927L232.805 47.8177C232.691 47.1621 232.63 46.4992 232.624 45.8337ZM235.084 38.3977L233.352 37.0827C232.878 37.7083 232.456 38.3715 232.09 39.0657L234.013 40.0777C234.323 39.4889 234.681 38.9267 235.083 38.3967L235.084 38.3977ZM233.311 49.7437L231.262 50.4687C231.524 51.2077 231.846 51.9238 232.225 52.6097L234.125 51.5587C233.805 50.9766 233.533 50.3692 233.311 49.7427V49.7437ZM255.251 39.7587L257.142 38.6877C256.756 38.0055 256.313 37.3563 255.82 36.7467L254.131 38.1137C254.55 38.6301 254.925 39.1799 255.253 39.7577L255.251 39.7587ZM256.611 43.4857L258.748 43.0857C258.604 42.3147 258.397 41.5568 258.128 40.8197L256.086 41.5637C256.314 42.1886 256.489 42.8311 256.611 43.4847V43.4857ZM237.97 35.6717L236.756 33.8717C236.106 34.3101 235.492 34.8011 234.922 35.3397L236.415 36.9187C236.898 36.4608 237.419 36.0444 237.97 35.6717ZM235.231 53.2097L233.531 54.5597C234.017 55.1741 234.552 55.7477 235.131 56.2747L236.591 54.6657C236.099 54.2182 235.644 53.7313 235.231 53.2097ZM241.581 34.0207L241.018 31.9207C240.26 32.1243 239.521 32.3899 238.806 32.7147L239.706 34.6927C240.311 34.419 240.938 34.1956 241.58 34.0247L241.581 34.0207ZM255.37 51.4477L257.283 52.4777C257.655 51.7871 257.97 51.067 258.224 50.3247L256.168 49.6247C255.952 50.2544 255.685 50.8654 255.369 51.4517L255.37 51.4477ZM252.323 33.6277L251.163 35.4657C251.726 35.8217 252.259 36.223 252.757 36.6657L254.2 35.0417C253.614 34.5217 252.986 34.0504 252.322 33.6327L252.323 33.6277ZM236.995 57.7097C237.655 58.1351 238.348 58.505 239.069 58.8157L239.93 56.8157C239.32 56.5521 238.732 56.2387 238.173 55.8787L236.995 57.7097ZM252.935 54.5847L254.41 56.1847C254.986 55.6521 255.518 55.0728 255.998 54.4527L254.28 53.1207C253.873 53.6452 253.423 54.1355 252.935 54.5867V54.5847ZM258.985 45.4237L256.811 45.4587V45.7067C256.811 46.372 256.757 47.0362 256.649 47.6927L258.794 48.0467C258.921 47.2705 258.985 46.4853 258.985 45.6987V45.4237ZM249.62 56.7697L250.5 58.7577C251.217 58.4393 251.906 58.0624 252.561 57.6307L251.361 55.8167C250.809 56.1829 250.227 56.5023 249.621 56.7717L249.62 56.7697ZM241.298 59.5697C242.06 59.7559 242.835 59.8797 243.617 59.9397L243.783 57.7717C243.12 57.7215 242.462 57.6164 241.816 57.4577L241.298 59.5697ZM247.998 31.8207L247.498 33.9367C248.145 34.0895 248.779 34.2955 249.392 34.5527L250.233 32.5527C249.51 32.2476 248.763 32.0024 248 31.8197L247.998 31.8207ZM243.327 31.5077L243.538 33.6717C243.924 33.6337 244.313 33.6147 244.698 33.6147C244.971 33.6147 245.255 33.6227 245.53 33.6417L245.677 31.4737C245.36 31.4517 245.041 31.4407 244.72 31.4407C244.256 31.4336 243.791 31.4566 243.329 31.5097L243.327 31.5077ZM245.776 57.7617L245.963 59.9267C246.745 59.8596 247.52 59.7278 248.28 59.5327L247.738 57.4267C247.095 57.592 246.44 57.7037 245.778 57.7607L245.776 57.7617Z" fill="#F6F2ED"/>
<path d="M169.916 40.5977L162.934 47.9697L160.217 44.9787L158.608 46.4407L162.108 50.2997C162.209 50.4103 162.331 50.499 162.468 50.5602C162.604 50.6215 162.752 50.6539 162.901 50.6557H162.912C163.06 50.6557 163.206 50.6256 163.342 50.5672C163.478 50.5087 163.6 50.4231 163.701 50.3157L171.489 42.0927L169.916 40.5977Z" fill="#F6F2ED"/>
<path d="M34.9008 161.899C40.6181 161.899 45.2528 157.265 45.2528 151.547C45.2528 145.83 40.6181 141.195 34.9008 141.195C29.1836 141.195 24.5488 145.83 24.5488 151.547C24.5488 157.265 29.1836 161.899 34.9008 161.899Z" fill="url(#paint16_linear_533_2687)"/>
<path d="M35.1979 133.018C31.5334 133.018 27.9512 134.104 24.9043 136.14C21.8574 138.176 19.4826 141.07 18.0803 144.455C16.678 147.841 16.311 151.566 17.0259 155.16C17.7408 158.754 19.5055 162.056 22.0967 164.647C24.6878 167.238 27.9892 169.003 31.5833 169.718C35.1774 170.432 38.9027 170.066 42.2883 168.663C45.6738 167.261 48.5675 164.886 50.6034 161.839C52.6393 158.792 53.7259 155.21 53.7259 151.546C53.7204 146.633 51.7665 141.924 48.2931 138.45C44.8196 134.977 40.1102 133.023 35.1979 133.018ZM35.1979 167.901C31.9634 167.901 28.8015 166.941 26.1121 165.144C23.4227 163.347 21.3266 160.793 20.0888 157.805C18.851 154.817 18.5271 151.528 19.1582 148.356C19.7892 145.184 21.3468 142.27 23.6339 139.983C25.9211 137.695 28.8351 136.138 32.0074 135.507C35.1798 134.876 38.468 135.2 41.4563 136.437C44.4446 137.675 46.9988 139.771 48.7958 142.461C50.5928 145.15 51.5519 148.312 51.5519 151.547C51.5469 155.882 49.8223 160.039 46.7564 163.105C43.6905 166.171 39.5337 167.896 35.1979 167.901Z" fill="#F6F2ED"/>
<path d="M40.9164 146.438L33.9344 153.81L31.2174 150.818L29.6084 152.28L33.1084 156.139C33.2091 156.25 33.3314 156.339 33.4678 156.4C33.6043 156.461 33.7519 156.494 33.9014 156.495H33.9124C34.0602 156.496 34.2064 156.466 34.3421 156.407C34.4778 156.349 34.6001 156.263 34.7014 156.155L42.4894 147.931L40.9164 146.438Z" fill="#F6F2ED"/>
<path d="M265.105 118.893H262.931V122.609H265.105V118.893Z" fill="#F6F2ED"/>
<path d="M265.105 129.131H262.931V132.847H265.105V129.131Z" fill="#F6F2ED"/>
<path d="M270.995 124.783H267.279V126.957H270.995V124.783Z" fill="#F6F2ED"/>
<path d="M260.757 124.783H257.041V126.957H260.757V124.783Z" fill="#F6F2ED"/>
<path d="M8.06365 59.1035H5.88965V62.8195H8.06365V59.1035Z" fill="#F6F2ED"/>
<path d="M8.06365 69.3418H5.88965V73.0578H8.06365V69.3418Z" fill="#F6F2ED"/>
<path d="M13.9553 64.9922H10.2393V67.1662H13.9553V64.9922Z" fill="#F6F2ED"/>
<path d="M3.716 64.9922H0V67.1662H3.716V64.9922Z" fill="#F6F2ED"/>
<path d="M190.754 20.91C192.662 20.91 194.209 19.3631 194.209 17.455C194.209 15.5469 192.662 14 190.754 14C188.846 14 187.299 15.5469 187.299 17.455C187.299 19.3631 188.846 20.91 190.754 20.91Z" fill="#F6F2ED"/>
<path d="M74.7636 207.553C78.7892 207.553 82.0526 204.289 82.0526 200.264C82.0526 196.238 78.7892 192.975 74.7636 192.975C70.738 192.975 67.4746 196.238 67.4746 200.264C67.4746 204.289 70.738 207.553 74.7636 207.553Z" fill="url(#paint17_linear_533_2687)"/>
<path d="M231.299 178.583C232.511 178.583 233.494 177.601 233.494 176.388C233.494 175.176 232.511 174.193 231.299 174.193C230.086 174.193 229.104 175.176 229.104 176.388C229.104 177.601 230.086 178.583 231.299 178.583Z" fill="url(#paint18_linear_533_2687)"/>
<path d="M23.4128 147.746L21.3498 147.064C21.1035 147.809 20.9195 148.574 20.7998 149.349L22.9478 149.68C23.0492 149.024 23.2048 148.377 23.4128 147.746ZM22.8058 151.669L20.6318 151.69C20.6397 152.474 20.7113 153.256 20.8458 154.028L22.9868 153.653C22.8725 152.998 22.812 152.334 22.8058 151.669ZM25.2648 144.232L23.5328 142.917C23.0588 143.543 22.6367 144.206 22.2708 144.9L24.1938 145.912C24.5038 145.324 24.8621 144.762 25.2648 144.232ZM23.4928 155.58L21.4438 156.305C21.7055 157.044 22.0276 157.76 22.4068 158.446L24.3068 157.394C23.9864 156.813 23.7142 156.206 23.4928 155.58ZM28.1518 141.506L26.9378 139.706C26.2874 140.145 25.674 140.636 25.1038 141.174L26.5968 142.753C27.08 142.295 27.6001 141.878 28.1518 141.506ZM45.4338 145.591L47.3248 144.52C46.9378 143.838 46.4953 143.189 46.0018 142.58L44.3128 143.947C44.7305 144.464 45.1051 145.014 45.4328 145.592L45.4338 145.591ZM25.4138 159.05L23.7138 160.4C24.1993 161.015 24.7344 161.588 25.3138 162.115L26.7738 160.506C26.2817 160.059 25.8269 159.572 25.4138 159.05ZM46.7928 149.319L48.9298 148.919C48.7859 148.148 48.5785 147.39 48.3098 146.652L46.2678 147.398C46.4958 148.023 46.6714 148.665 46.7928 149.319ZM31.7608 139.86L31.1978 137.76C30.44 137.964 29.7002 138.229 28.9858 138.554L29.8858 140.533C30.4913 140.258 31.1184 140.033 31.7608 139.86ZM35.9608 163.596L36.1478 165.761C36.9297 165.694 37.7047 165.562 38.4648 165.367L37.9228 163.262C37.2788 163.427 36.6232 163.539 35.9608 163.596ZM43.1178 160.422L44.5928 162.022C45.169 161.49 45.7001 160.91 46.1808 160.29L44.4628 158.958C44.0548 159.482 43.6047 159.972 43.1168 160.423L43.1178 160.422ZM45.5518 157.287L47.4648 158.317C47.837 157.627 48.1517 156.906 48.4058 156.164L46.3498 155.464C46.1336 156.093 45.8667 156.703 45.5518 157.288V157.287ZM42.5038 139.467L41.3438 141.305C41.9066 141.661 42.4394 142.062 42.9368 142.505L44.3798 140.881C43.7941 140.36 43.1666 139.887 42.5038 139.468V139.467ZM27.1768 163.547C27.8363 163.973 28.5301 164.343 29.2508 164.653L30.1108 162.653C29.5005 162.39 28.9128 162.076 28.3538 161.716L27.1768 163.547ZM49.1668 151.261L46.9928 151.295V151.545C46.9929 152.21 46.9388 152.875 46.8308 153.531L48.9758 153.885C49.103 153.109 49.1669 152.324 49.1668 151.537V151.261ZM31.4808 165.404C32.2424 165.591 33.018 165.715 33.7998 165.775L33.9658 163.607C33.3026 163.557 32.6447 163.452 31.9988 163.293L31.4808 165.404ZM39.8028 162.604L40.6828 164.592C41.3997 164.274 42.0891 163.897 42.7438 163.465L41.5438 161.651C40.9909 162.018 40.4086 162.338 39.8028 162.608V162.604ZM33.5108 137.34L33.7208 139.504C34.3827 139.441 35.0487 139.433 35.7118 139.48L35.8588 137.311C35.0766 137.257 34.2912 137.268 33.5108 137.344V137.34ZM38.1808 137.652L37.6808 139.768C38.3281 139.921 38.9616 140.127 39.5748 140.384L40.4158 138.384C39.6922 138.08 38.9446 137.836 38.1808 137.655V137.652Z" fill="#F6F2ED"/>
<path d="M73.6837 75.9727H61.2647C60.9764 75.9727 60.7 76.0872 60.4961 76.291C60.2923 76.4949 60.1777 76.7714 60.1777 77.0597V83.8277C60.178 84.1158 60.2926 84.392 60.4965 84.5956C60.7003 84.7993 60.9766 84.9137 61.2647 84.9137H73.6837C73.972 84.9137 74.2485 84.7991 74.4524 84.5953C74.6562 84.3914 74.7707 84.115 74.7707 83.8267V77.0587C74.7705 76.7705 74.6558 76.4943 74.452 76.2907C74.2482 76.087 73.9718 75.9727 73.6837 75.9727ZM72.5967 82.7397H62.3517V78.1457H72.5977L72.5967 82.7397Z" fill="#F6F2ED"/>
<path d="M73.6837 88.2031H61.2647C60.9764 88.2031 60.7 88.3176 60.4961 88.5215C60.2923 88.7254 60.1777 89.0018 60.1777 89.2901V96.0571C60.178 96.3452 60.2926 96.6215 60.4965 96.8251C60.7003 97.0287 60.9766 97.1431 61.2647 97.1431H73.6837C73.972 97.1431 74.2485 97.0286 74.4524 96.8248C74.6562 96.6209 74.7707 96.3444 74.7707 96.0561V89.2891C74.7705 89.001 74.6558 88.7248 74.452 88.5211C74.2482 88.3175 73.9718 88.2031 73.6837 88.2031ZM72.5967 94.9701H62.3517V90.3761H72.5977L72.5967 94.9701Z" fill="url(#paint19_linear_533_2687)"/>
<path d="M73.6837 100.215H61.2647C60.9764 100.215 60.7 100.329 60.4961 100.533C60.2923 100.737 60.1777 101.014 60.1777 101.302V108.069C60.178 108.357 60.2926 108.633 60.4965 108.837C60.7003 109.04 60.9766 109.155 61.2647 109.155H73.6837C73.972 109.155 74.2485 109.04 74.4524 108.836C74.6562 108.633 74.7707 108.356 74.7707 108.068V101.301C74.7705 101.013 74.6558 100.737 74.452 100.533C74.2482 100.329 73.9718 100.215 73.6837 100.215ZM72.5967 106.982H62.3517V102.388H72.5977L72.5967 106.982Z" fill="#F6F2ED"/>
<path d="M73.6837 112.445H61.2647C60.9764 112.445 60.7 112.56 60.4961 112.764C60.2923 112.968 60.1777 113.244 60.1777 113.532V120.3C60.178 120.588 60.2926 120.865 60.4965 121.068C60.7003 121.272 60.9766 121.386 61.2647 121.386H73.6837C73.972 121.386 74.2485 121.272 74.4524 121.068C74.6562 120.864 74.7707 120.588 74.7707 120.299V113.531C74.7705 113.243 74.6558 112.967 74.452 112.763C74.2482 112.56 73.9718 112.445 73.6837 112.445ZM72.5967 119.212H62.3517V114.618H72.5977L72.5967 119.212Z" fill="url(#paint20_linear_533_2687)"/>
<path d="M148.169 91.2165C148.169 89.068 147.532 86.9679 146.338 85.1815C145.144 83.3951 143.448 82.0028 141.463 81.1806C139.478 80.3584 137.294 80.1431 135.186 80.5621C133.079 80.9811 131.143 82.0155 129.624 83.5345C128.105 85.0534 127.07 86.9889 126.65 89.096C126.231 91.2031 126.445 93.3873 127.267 95.3725C128.089 97.3576 129.48 99.0545 131.266 100.249C133.052 101.443 135.152 102.081 137.301 102.082C140.182 102.079 142.945 100.934 144.982 98.8971C147.02 96.86 148.166 94.0977 148.169 91.2165ZM128.569 91.2165C128.569 89.4883 129.081 87.799 130.041 86.3621C131.002 84.9251 132.366 83.8051 133.963 83.1438C135.559 82.4824 137.316 82.3093 139.011 82.6463C140.706 82.9834 142.263 83.8155 143.485 85.0375C144.707 86.2594 145.54 87.8163 145.877 89.5112C146.214 91.2061 146.041 92.963 145.38 94.5597C144.719 96.1564 143.599 97.5212 142.162 98.4814C140.725 99.4417 139.036 99.9543 137.308 99.9545C134.99 99.9537 132.767 99.0331 131.128 97.3948C129.488 95.7564 128.566 93.5344 128.563 91.2165H128.569Z" fill="url(#paint21_linear_533_2687)"/>
<path d="M140.906 88.0982C140.906 87.3849 140.695 86.6877 140.298 86.0947C139.902 85.5017 139.339 85.0395 138.68 84.7666C138.021 84.4937 137.296 84.4223 136.596 84.5616C135.897 84.7008 135.254 85.0443 134.75 85.5487C134.246 86.0531 133.902 86.6957 133.763 87.3953C133.624 88.0949 133.696 88.8199 133.969 89.4788C134.242 90.1377 134.704 90.7008 135.298 91.097C135.891 91.4931 136.588 91.7044 137.301 91.7042C138.257 91.7029 139.173 91.3225 139.849 90.6465C140.525 89.9705 140.905 89.0541 140.906 88.0982ZM135.821 88.0982C135.821 87.8055 135.908 87.5193 136.071 87.2759C136.233 87.0326 136.464 86.8429 136.735 86.7308C137.005 86.6188 137.303 86.5895 137.59 86.6466C137.877 86.7037 138.141 86.8447 138.348 87.0517C138.555 87.2587 138.696 87.5224 138.753 87.8095C138.81 88.0965 138.781 88.3941 138.669 88.6646C138.557 88.935 138.367 89.1661 138.123 89.3288C137.88 89.4914 137.594 89.5782 137.301 89.5782C136.909 89.5777 136.533 89.4216 136.255 89.1441C135.978 88.8667 135.822 88.4905 135.821 88.0982Z" fill="#F6F2ED"/>
<path d="M140.906 88.0982C140.906 87.3849 140.695 86.6877 140.298 86.0947C139.902 85.5017 139.339 85.0395 138.68 84.7666C138.021 84.4937 137.296 84.4223 136.596 84.5616C135.897 84.7008 135.254 85.0443 134.75 85.5487C134.246 86.0531 133.902 86.6957 133.763 87.3953C133.624 88.0949 133.696 88.8199 133.969 89.4788C134.242 90.1377 134.704 90.7008 135.298 91.097C135.891 91.4931 136.588 91.7044 137.301 91.7042C138.257 91.7029 139.173 91.3225 139.849 90.6465C140.525 89.9705 140.905 89.0541 140.906 88.0982ZM135.821 88.0982C135.821 87.8055 135.908 87.5193 136.071 87.2759C136.233 87.0326 136.464 86.8429 136.735 86.7308C137.005 86.6188 137.303 86.5895 137.59 86.6466C137.877 86.7037 138.141 86.8447 138.348 87.0517C138.555 87.2587 138.696 87.5224 138.753 87.8095C138.81 88.0965 138.781 88.3941 138.669 88.6646C138.557 88.935 138.367 89.1661 138.123 89.3288C137.88 89.4914 137.594 89.5782 137.301 89.5782C136.909 89.5777 136.533 89.4216 136.255 89.1441C135.978 88.8667 135.822 88.4905 135.821 88.0982Z" fill="url(#paint22_linear_533_2687)"/>
<path d="M136.291 129.754L141.279 125.654C141.391 125.562 141.484 125.447 141.55 125.318C141.616 125.189 141.656 125.047 141.665 124.902C141.674 124.756 141.653 124.61 141.604 124.473C141.555 124.335 141.478 124.209 141.379 124.102L139.751 122.37V118.749L141.357 117.137C141.556 116.938 141.667 116.668 141.667 116.387V108.962C141.667 108.789 141.624 108.619 141.544 108.466C141.463 108.313 141.346 108.182 141.203 108.084L140.014 107.273L141.241 106.354C141.373 106.255 141.48 106.126 141.554 105.979C141.628 105.831 141.666 105.668 141.666 105.503V100.445C141.666 100.275 141.625 100.107 141.546 99.9565C141.468 99.8056 141.354 99.6757 141.215 99.5777C141.076 99.4797 140.916 99.4165 140.747 99.3935C140.579 99.3704 140.407 99.388 140.247 99.445C139.301 99.7821 138.304 99.9543 137.3 99.954C135.946 99.9572 134.609 99.641 133.4 99.031C133.238 98.9496 133.058 98.9111 132.877 98.919C132.695 98.9269 132.519 98.9811 132.365 99.0763C132.211 99.1715 132.083 99.3046 131.995 99.463C131.906 99.6213 131.86 99.7996 131.86 99.981V128.93C131.86 129.212 131.972 129.482 132.171 129.682C132.371 129.881 132.641 129.993 132.923 129.993H135.623C135.866 129.992 136.102 129.908 136.291 129.754ZM133.981 127.87V101.562C135.054 101.907 136.173 102.081 137.3 102.078C138.053 102.078 138.803 102 139.54 101.846V104.971L137.549 106.462C137.412 106.562 137.302 106.694 137.228 106.847C137.153 106.999 137.117 107.167 137.123 107.337C137.127 107.506 137.171 107.672 137.252 107.821C137.332 107.969 137.447 108.097 137.587 108.192L139.54 109.524V115.949L137.934 117.561C137.735 117.76 137.624 118.03 137.624 118.311V122.791C137.624 123.061 137.727 123.321 137.912 123.518L139.052 124.733L135.235 127.871H133.981V127.87Z" fill="url(#paint23_linear_533_2687)"/>
<path d="M147.328 125.268L143.295 120.968V120.213L145.211 118.29V103.254C147.295 101.884 148.987 99.9978 150.123 97.7782C151.259 95.5586 151.8 93.0821 151.692 90.5911C151.583 88.1 150.831 85.6797 149.507 83.5669C148.183 81.454 146.333 79.721 144.139 78.5373C141.944 77.3536 139.48 76.7598 136.987 76.8139C134.494 76.8681 132.058 77.5684 129.917 78.8463C127.776 80.1242 126.004 81.9359 124.773 84.1043C123.542 86.2727 122.895 88.7234 122.895 91.2168C122.881 93.382 123.362 95.5217 124.301 97.4727C125.241 99.4236 126.613 101.134 128.314 102.474V133.539H137.267L147.328 125.268ZM130.439 131.413V101.408L130.005 101.089C128.45 99.957 127.187 98.4712 126.321 96.7543C125.454 95.0375 125.008 93.139 125.021 91.2158C125.02 89.0678 125.583 86.9571 126.653 85.0944C127.723 83.2318 129.263 81.6824 131.118 80.6008C132.974 79.5192 135.082 78.9434 137.23 78.9307C139.378 78.918 141.491 79.4689 143.36 80.5285C145.228 81.5881 146.786 83.1192 147.878 84.9691C148.97 86.8189 149.558 88.9228 149.582 91.0708C149.607 93.2187 149.068 95.3355 148.018 97.2099C146.969 99.0843 145.447 100.651 143.603 101.753L143.085 102.062V117.411L141.169 119.334V121.808L144.225 125.068L136.506 131.413H130.439Z" fill="#F6F2ED"/>
<path d="M137.825 123.43V101.018H135.699V123.43H137.825Z" fill="url(#paint24_linear_533_2687)"/>
<defs>
<linearGradient id="paint0_linear_533_2687" x1="53.188" y1="201.722" x2="56.4753" y2="202.482" gradientUnits="userSpaceOnUse">
<stop stop-color="#A58969"/>
<stop offset="1" stop-color="#C7B664"/>
</linearGradient>
<linearGradient id="paint1_linear_533_2687" x1="53.188" y1="211.464" x2="56.4753" y2="212.224" gradientUnits="userSpaceOnUse">
<stop stop-color="#A58969"/>
<stop offset="1" stop-color="#C7B664"/>
</linearGradient>
<linearGradient id="paint2_linear_533_2687" x1="57.1775" y1="207.369" x2="60.9999" y2="210.698" gradientUnits="userSpaceOnUse">
<stop stop-color="#A58969"/>
<stop offset="1" stop-color="#C7B664"/>
</linearGradient>
<linearGradient id="paint3_linear_533_2687" x1="47.4343" y1="207.369" x2="51.2568" y2="210.698" gradientUnits="userSpaceOnUse">
<stop stop-color="#A58969"/>
<stop offset="1" stop-color="#C7B664"/>
</linearGradient>
<linearGradient id="paint4_linear_533_2687" x1="-0.11029" y1="43.4837" x2="11.3192" y2="48.6118" gradientUnits="userSpaceOnUse">
<stop stop-color="#A58969"/>
<stop offset="1" stop-color="#C7B664"/>
</linearGradient>
<linearGradient id="paint5_linear_533_2687" x1="13.5024" y1="98.1651" x2="22.5681" y2="102.233" gradientUnits="userSpaceOnUse">
<stop stop-color="#A58969"/>
<stop offset="1" stop-color="#C7B664"/>
</linearGradient>
<linearGradient id="paint6_linear_533_2687" x1="271.528" y1="108.373" x2="281.657" y2="112.917" gradientUnits="userSpaceOnUse">
<stop stop-color="#A58969"/>
<stop offset="1" stop-color="#C7B664"/>
</linearGradient>
<linearGradient id="paint7_linear_533_2687" x1="222.502" y1="17.0225" x2="231.568" y2="21.0901" gradientUnits="userSpaceOnUse">
<stop stop-color="#A58969"/>
<stop offset="1" stop-color="#C7B664"/>
</linearGradient>
<linearGradient id="paint8_linear_533_2687" x1="31.3037" y1="52.1365" x2="123.638" y2="71.8248" gradientUnits="userSpaceOnUse">
<stop stop-color="#A58969"/>
<stop offset="1" stop-color="#C7B664"/>
</linearGradient>
<linearGradient id="paint9_linear_533_2687" x1="188.892" y1="52.1326" x2="281.227" y2="71.8216" gradientUnits="userSpaceOnUse">
<stop stop-color="#A58969"/>
<stop offset="1" stop-color="#C7B664"/>
</linearGradient>
<linearGradient id="paint10_linear_533_2687" x1="39.9559" y1="76.3949" x2="58.0102" y2="89.6161" gradientUnits="userSpaceOnUse">
<stop stop-color="#A58969"/>
<stop offset="1" stop-color="#C7B664"/>
</linearGradient>
<linearGradient id="paint11_linear_533_2687" x1="197.866" y1="76.3949" x2="214.251" y2="104.834" gradientUnits="userSpaceOnUse">
<stop stop-color="#A58969"/>
<stop offset="1" stop-color="#C7B664"/>
</linearGradient>
<linearGradient id="paint12_linear_533_2687" x1="39.9559" y1="100.637" x2="58.0088" y2="113.859" gradientUnits="userSpaceOnUse">
<stop stop-color="#A58969"/>
<stop offset="1" stop-color="#C7B664"/>
</linearGradient>
<linearGradient id="paint13_linear_533_2687" x1="197.866" y1="100.637" x2="214.249" y2="129.075" gradientUnits="userSpaceOnUse">
<stop stop-color="#A58969"/>
<stop offset="1" stop-color="#C7B664"/>
</linearGradient>
<linearGradient id="paint14_linear_533_2687" x1="233.753" y1="36.3351" x2="266.51" y2="51.0323" gradientUnits="userSpaceOnUse">
<stop stop-color="#A58969"/>
<stop offset="1" stop-color="#C7B664"/>
</linearGradient>
<linearGradient id="paint15_linear_533_2687" x1="153.233" y1="36.3351" x2="185.99" y2="51.0323" gradientUnits="userSpaceOnUse">
<stop stop-color="#A58969"/>
<stop offset="1" stop-color="#C7B664"/>
</linearGradient>
<linearGradient id="paint16_linear_533_2687" x1="24.2327" y1="142.173" x2="56.9896" y2="156.87" gradientUnits="userSpaceOnUse">
<stop stop-color="#A58969"/>
<stop offset="1" stop-color="#C7B664"/>
</linearGradient>
<linearGradient id="paint17_linear_533_2687" x1="67.252" y1="193.663" x2="90.3166" y2="204.012" gradientUnits="userSpaceOnUse">
<stop stop-color="#A58969"/>
<stop offset="1" stop-color="#C7B664"/>
</linearGradient>
<linearGradient id="paint18_linear_533_2687" x1="229.036" y1="174.401" x2="235.982" y2="177.517" gradientUnits="userSpaceOnUse">
<stop stop-color="#A58969"/>
<stop offset="1" stop-color="#C7B664"/>
</linearGradient>
<linearGradient id="paint19_linear_533_2687" x1="59.9549" y1="88.6253" x2="78.0078" y2="101.847" gradientUnits="userSpaceOnUse">
<stop stop-color="#A58969"/>
<stop offset="1" stop-color="#C7B664"/>
</linearGradient>
<linearGradient id="paint20_linear_533_2687" x1="59.9549" y1="112.868" x2="78.0092" y2="126.089" gradientUnits="userSpaceOnUse">
<stop stop-color="#A58969"/>
<stop offset="1" stop-color="#C7B664"/>
</linearGradient>
<linearGradient id="paint21_linear_533_2687" x1="147.143" y1="80.0218" x2="131.719" y2="114.399" gradientUnits="userSpaceOnUse">
<stop stop-color="#A58969"/>
<stop offset="1" stop-color="#C7B664"/>
</linearGradient>
<linearGradient id="paint22_linear_533_2687" x1="140.566" y1="84.3821" x2="135.446" y2="95.7925" gradientUnits="userSpaceOnUse">
<stop stop-color="#A58969"/>
<stop offset="1" stop-color="#C7B664"/>
</linearGradient>
<linearGradient id="paint23_linear_533_2687" x1="141.204" y1="98.4435" x2="113.411" y2="117.993" gradientUnits="userSpaceOnUse">
<stop stop-color="#A58969"/>
<stop offset="1" stop-color="#C7B664"/>
</linearGradient>
<linearGradient id="paint24_linear_533_2687" x1="137.725" y1="100.675" x2="129.104" y2="102.498" gradientUnits="userSpaceOnUse">
<stop stop-color="#A58969"/>
<stop offset="1" stop-color="#C7B664"/>
</linearGradient>
</defs>
</svg>
