<svg width="279" height="215" viewBox="0 0 279 215" fill="none" xmlns="http://www.w3.org/2000/svg">
<path d="M132.119 201.554C187.776 201.554 232.896 156.435 232.896 100.777C232.896 45.1194 187.776 0 132.119 0C76.4612 0 31.3418 45.1194 31.3418 100.777C31.3418 156.435 76.4612 201.554 132.119 201.554Z" fill="#C3B075" fill-opacity="0.03"/>
<path opacity="0.2" d="M260.165 105.517C261.332 105.517 262.472 105.171 263.443 104.522C264.413 103.874 265.169 102.953 265.616 101.875C266.062 100.797 266.179 99.6103 265.951 98.4658C265.724 97.3213 265.162 96.27 264.337 95.4449C263.511 94.6197 262.46 94.0578 261.316 93.8302C260.171 93.6025 258.985 93.7194 257.907 94.1659C256.829 94.6125 255.907 95.3687 255.259 96.3389C254.611 97.3092 254.265 98.4499 254.265 99.6168C254.265 101.182 254.886 102.682 255.993 103.789C257.099 104.895 258.6 105.517 260.165 105.517Z" fill="url(#paint0_linear_526_8452)"/>
<path d="M55.0378 201.555H53.2158V205.091H55.0378V201.555Z" fill="#F6F2ED"/>
<path d="M55.0378 211.297H53.2158V214.833H55.0378V211.297Z" fill="#F6F2ED"/>
<path d="M60.7674 207.283H57.2314V209.105H60.7674V207.283Z" fill="#F6F2ED"/>
<path d="M51.0243 207.283H47.4883V209.105H51.0243V207.283Z" fill="#F6F2ED"/>
<path d="M3.612 50.3666C5.60685 50.3666 7.224 48.7494 7.224 46.7546C7.224 44.7597 5.60685 43.1426 3.612 43.1426C1.61715 43.1426 0 44.7597 0 46.7546C0 48.7494 1.61715 50.3666 3.612 50.3666Z" fill="#F6F2ED"/>
<path d="M16.4548 103.625C18.0371 103.625 19.3198 102.342 19.3198 100.76C19.3198 99.1772 18.0371 97.8945 16.4548 97.8945C14.8725 97.8945 13.5898 99.1772 13.5898 100.76C13.5898 102.342 14.8725 103.625 16.4548 103.625Z" fill="#F6F2ED"/>
<path d="M274.827 114.472C276.595 114.472 278.028 113.039 278.028 111.271C278.028 109.503 276.595 108.07 274.827 108.07C273.059 108.07 271.626 109.503 271.626 111.271C271.626 113.039 273.059 114.472 274.827 114.472Z" fill="#F6F2ED"/>
<path d="M225.455 22.482C227.037 22.482 228.32 21.1992 228.32 19.617C228.32 18.0347 227.037 16.752 225.455 16.752C223.873 16.752 222.59 18.0347 222.59 19.617C222.59 21.1992 223.873 22.482 225.455 22.482Z" fill="#F6F2ED"/>
<path d="M33.451 49.4531H31.125V53.4291H33.451V49.4531Z" fill="url(#paint1_linear_526_8452)"/>
<path d="M33.451 60.4062H31.125V64.3823H33.451V60.4062Z" fill="url(#paint2_linear_526_8452)"/>
<path d="M39.7524 55.7559H35.7764V58.0819H39.7524V55.7559Z" fill="url(#paint3_linear_526_8452)"/>
<path d="M28.7992 55.7559H24.8232V58.0819H28.7992V55.7559Z" fill="url(#paint4_linear_526_8452)"/>
<path d="M244.668 112.232H242.342V116.208H244.668V112.232Z" fill="url(#paint5_linear_526_8452)"/>
<path d="M244.668 123.188H242.342V127.162H244.668V123.188Z" fill="url(#paint6_linear_526_8452)"/>
<path d="M250.97 118.535H246.994V120.861H250.97V118.535Z" fill="url(#paint7_linear_526_8452)"/>
<path d="M240.017 118.535H236.041V120.861H240.017V118.535Z" fill="url(#paint8_linear_526_8452)"/>
<path d="M123.604 155.529H121.279V159.505H123.604V155.529Z" fill="url(#paint9_linear_526_8452)"/>
<path d="M123.604 166.482H121.279V170.458H123.604V166.482Z" fill="url(#paint10_linear_526_8452)"/>
<path d="M129.907 161.83H125.931V164.155H129.907V161.83Z" fill="url(#paint11_linear_526_8452)"/>
<path d="M118.953 161.83H114.977V164.155H118.953V161.83Z" fill="url(#paint12_linear_526_8452)"/>
<path d="M236.555 67.0503C238.597 67.0503 240.252 65.395 240.252 63.3533C240.252 61.3115 238.597 59.6562 236.555 59.6562C234.514 59.6562 232.858 61.3115 232.858 63.3533C232.858 65.395 234.514 67.0503 236.555 67.0503Z" fill="#F6F2ED"/>
<path d="M28.799 122.026C33.1063 122.026 36.598 118.534 36.598 114.227C36.598 109.919 33.1063 106.428 28.799 106.428C24.4917 106.428 21 109.919 21 114.227C21 118.534 24.4917 122.026 28.799 122.026Z" fill="url(#paint13_linear_526_8452)"/>
<path d="M117.269 22.5261C118.566 22.5261 119.618 21.4744 119.618 20.1771C119.618 18.8798 118.566 17.8281 117.269 17.8281C115.972 17.8281 114.92 18.8798 114.92 20.1771C114.92 21.4744 115.972 22.5261 117.269 22.5261Z" fill="url(#paint14_linear_526_8452)"/>
<path d="M97.5946 89.3747H95.2686C95.2686 90.1677 95.2916 90.9747 95.3356 91.7627L97.6576 91.6337C97.6176 90.8857 97.5946 90.1257 97.5946 89.3747ZM98.5946 98.3437L96.3256 98.8537C96.4996 99.6277 96.6976 100.407 96.9156 101.17L99.1516 100.533C98.9436 99.8107 98.7556 99.0747 98.5906 98.3437H98.5946ZM97.8475 93.8867L95.5366 94.1437C95.6246 94.9357 95.7366 95.7307 95.8656 96.5097L98.1596 96.1257C98.0326 95.3897 97.9276 94.6377 97.8446 93.8877L97.8475 93.8867ZM97.8426 84.8617L95.5306 84.6087C95.4446 85.3967 95.3796 86.1977 95.3366 86.9887L97.6596 87.1147C97.6956 86.3667 97.7576 85.6037 97.8396 84.8617H97.8426ZM98.5826 80.4057L96.3126 79.8967C96.1396 80.6697 95.9856 81.4587 95.8566 82.2417L98.1506 82.6227C98.2706 81.8837 98.4176 81.1367 98.5796 80.4037L98.5826 80.4057ZM99.8146 76.0577L97.6146 75.3007C97.3566 76.0507 97.1146 76.8177 96.8996 77.5797L99.1376 78.2137C99.3396 77.4927 99.5666 76.7687 99.8106 76.0577H99.8146ZM107.602 119.558C108.159 120.128 108.737 120.688 109.318 121.219L110.89 119.505C110.34 119.005 109.79 118.472 109.266 117.931L107.602 119.558ZM106.288 114.533L104.458 115.967C104.945 116.59 105.458 117.209 105.981 117.806L107.731 116.274C107.231 115.704 106.745 115.118 106.284 114.529L106.288 114.533ZM103.702 110.833L101.725 112.058C102.143 112.733 102.584 113.403 103.037 114.051L104.944 112.72C104.512 112.099 104.094 111.463 103.698 110.825L103.702 110.833ZM101.542 106.871L99.4416 107.871C99.7796 108.582 100.142 109.297 100.526 109.997L102.568 108.884C102.202 108.212 101.857 107.536 101.538 106.863L101.542 106.871ZM99.8316 102.697L97.6316 103.457C97.8896 104.202 98.1726 104.957 98.4736 105.688L100.626 104.807C100.34 104.104 100.072 103.394 99.8276 102.689L99.8316 102.697ZM124.272 51.0067L123.461 48.8267C122.719 49.1027 121.975 49.4037 121.25 49.7197L122.181 51.8517C122.864 51.5437 123.567 51.2597 124.269 51.0037L124.272 51.0067ZM128.588 49.6667L128.018 47.4037C127.245 47.5977 126.472 47.8147 125.718 48.0477L126.406 50.2687C127.118 50.0477 127.853 49.8417 128.585 49.6587L128.588 49.6667ZM137.529 48.4667L137.475 46.1407C136.675 46.1597 135.875 46.2007 135.09 46.2627L135.272 48.5807C136.012 48.5117 136.772 48.4727 137.526 48.4557L137.529 48.4667ZM120.139 52.8157L119.092 50.7387C118.385 51.0957 117.678 51.4767 116.992 51.8727L118.154 53.8877C118.799 53.5037 119.467 53.1407 120.136 52.8037L120.139 52.8157ZM133.023 48.8217L132.716 46.5167C131.934 46.6167 131.14 46.7497 130.357 46.8997L130.795 49.1837C131.532 49.0307 132.282 48.9037 133.018 48.8107L133.023 48.8217ZM103.686 67.8937L101.707 66.6717C101.289 67.3487 100.885 68.0447 100.507 68.7387L102.549 69.8517C102.906 69.1947 103.289 68.5357 103.686 67.8937ZM106.273 64.1877L104.443 62.7517C103.956 63.3737 103.478 64.0197 103.021 64.6737L104.929 66.0047C105.36 65.3857 105.812 64.7747 106.273 64.1877ZM101.522 71.8677L99.4216 70.8677C99.0806 71.5877 98.7556 72.3247 98.4566 73.0557L100.61 73.9347C100.891 73.2467 101.198 72.5497 101.518 71.8677H101.522ZM116.222 55.0557L114.95 53.1087C114.284 53.5437 113.625 54.0007 112.988 54.4657L114.362 56.3417C114.968 55.9037 115.593 55.4677 116.225 55.0557H116.222ZM109.247 60.7827L107.583 59.1577C107.028 59.7257 106.483 60.3157 105.962 60.9117L107.712 62.4427C108.208 61.8797 108.725 61.3207 109.25 60.7827H109.247ZM112.578 57.7277L111.102 55.9277C110.488 56.4277 109.881 56.9587 109.302 57.4927L110.875 59.2067C111.426 58.7037 112 58.2037 112.582 57.7277H112.578ZM114.969 125.605C115.638 126.04 116.323 126.461 117.007 126.854L118.168 124.839C117.52 124.466 116.868 124.068 116.238 123.656L114.969 125.605ZM159.187 124.695L160.362 126.703C161.049 126.303 161.731 125.875 162.391 125.436L161.104 123.5C160.486 123.913 159.841 124.316 159.192 124.695H159.187ZM158.225 50.8537L157.163 52.9217C157.835 53.2667 158.501 53.6327 159.142 54.0107L160.321 52.0107C159.646 51.6037 158.941 51.2177 158.23 50.8527L158.225 50.8537ZM150.945 128.354L151.645 130.572C152.394 130.337 153.154 130.072 153.904 129.789L153.08 127.615C152.373 127.883 151.656 128.132 150.95 128.355L150.945 128.354ZM153.859 48.9097L153.035 51.0837C153.735 51.3487 154.435 51.6387 155.125 51.9437L156.07 49.8197C155.347 49.4957 154.603 49.1907 153.864 48.9107L153.859 48.9097ZM155.168 126.756L156.11 128.882C156.831 128.563 157.556 128.216 158.267 127.852L157.206 125.782C156.539 126.126 155.854 126.454 155.173 126.756H155.168ZM162.346 53.2687L161.06 55.2067C161.683 55.6207 162.305 56.0587 162.907 56.5067L164.299 54.6447C163.667 54.1707 163.011 53.7037 162.351 53.2687H162.346ZM169.538 116.021L171.306 117.532C171.82 116.932 172.325 116.305 172.806 115.672L170.958 114.261C170.508 114.86 170.029 115.452 169.543 116.022L169.538 116.021ZM173.508 110.521C173.12 111.161 172.708 111.802 172.284 112.421L174.206 113.731C174.653 113.075 175.087 112.399 175.497 111.723L173.508 110.521ZM166.416 119.29L168.007 120.99C168.586 120.447 169.157 119.88 169.707 119.307L168.024 117.707C167.509 118.243 166.969 118.778 166.418 119.293L166.416 119.29ZM166.173 56.1247L164.68 57.9087C165.255 58.3897 165.825 58.8937 166.375 59.4087L167.962 57.7087C167.386 57.1677 166.784 56.6347 166.177 56.1267L166.173 56.1247ZM162.952 122.194L164.344 124.056C164.978 123.583 165.608 123.083 166.218 122.572L164.724 120.79C164.152 121.276 163.556 121.749 162.956 122.197L162.952 122.194ZM132.764 132.204C133.546 132.309 134.345 132.393 135.141 132.454L135.32 130.136C134.568 130.078 133.813 129.998 133.073 129.9L132.764 132.204ZM128.072 131.311C128.846 131.503 129.631 131.675 130.405 131.823L130.84 129.538C130.108 129.399 129.365 129.238 128.633 129.053L128.072 131.311ZM111.118 122.781C111.731 123.281 112.366 123.781 113.006 124.246L114.381 122.37C113.776 121.926 113.174 121.46 112.594 120.984L111.118 122.781ZM137.575 130.249L137.525 132.574C137.851 132.58 138.179 132.584 138.507 132.584C138.976 132.584 139.445 132.576 139.907 132.561L139.834 130.237C139.086 130.262 138.328 130.266 137.575 130.249ZM123.502 129.9C124.244 130.175 125.002 130.435 125.768 130.67L126.455 128.449C125.733 128.226 125.012 127.981 124.31 127.72L123.502 129.9ZM119.117 127.989C119.828 128.347 120.556 128.689 121.282 129.006L122.212 126.874C121.525 126.574 120.835 126.25 120.162 125.912L119.117 127.989ZM144.617 46.5427L144.293 48.8427C145.035 48.9427 145.785 49.0737 146.523 49.2197L146.974 46.9377C146.197 46.7877 145.404 46.6537 144.617 46.5427ZM139.858 46.1427L139.787 48.4667C140.54 48.4887 141.3 48.5327 142.045 48.5967L142.245 46.2807C141.46 46.2087 140.657 46.1627 139.862 46.1387L139.858 46.1427ZM149.305 47.4717L148.729 49.7247C149.453 49.9107 150.184 50.1187 150.901 50.3467L151.601 48.1297C150.848 47.8857 150.074 47.6647 149.308 47.4687L149.305 47.4717ZM146.567 129.478L147.018 131.76C147.799 131.605 148.582 131.428 149.347 131.232L148.771 128.979C148.052 129.161 147.31 129.329 146.571 129.475L146.567 129.478ZM142.092 130.111L142.292 132.427C143.092 132.358 143.886 132.268 144.662 132.158L144.338 129.858C143.608 129.956 142.852 130.042 142.096 130.104L142.092 130.111Z" fill="url(#paint15_linear_526_8452)"/>
<path d="M136.739 77.8867H131.817V86.7077H136.739C137.898 86.6903 139.003 86.2179 139.815 85.3927C140.628 84.5675 141.084 83.4556 141.084 82.2972C141.084 81.1389 140.628 80.027 139.815 79.2018C139.003 78.3765 137.898 77.9042 136.739 77.8867Z" fill="url(#paint16_linear_526_8452)"/>
<path d="M138.747 91.2578H131.817V100.816H138.747C140.015 100.816 141.23 100.312 142.127 99.4161C143.023 98.5198 143.526 97.3043 143.526 96.0368C143.526 94.7693 143.023 93.5538 142.127 92.6576C141.23 91.7613 140.015 91.2578 138.747 91.2578Z" fill="url(#paint17_linear_526_8452)"/>
<path d="M158.073 109.119V77.0883H162.259V69.0803C162.259 65.7003 165.623 62.4603 165.623 62.4603C160.022 56.8142 152.798 53.0575 144.959 51.7145C137.121 50.3715 129.058 51.5092 121.897 54.9689C114.736 58.4286 108.834 64.0376 105.014 71.0131C101.194 77.9887 99.6472 85.9827 100.589 93.8797C101.531 101.777 104.915 109.183 110.269 115.064C115.622 120.945 122.678 125.008 130.452 126.686C138.226 128.364 146.33 127.574 153.633 124.424C160.936 121.275 167.073 115.924 171.189 109.119H158.073ZM149.957 103.251C149.107 104.104 148.097 104.779 146.985 105.24C145.873 105.7 144.681 105.936 143.477 105.933H139.097V113.096H134.641V105.936H131.819V113.099H127.362V105.999H118.308V101.193H121.649C121.927 101.238 122.211 101.217 122.48 101.132C122.748 101.047 122.993 100.9 123.194 100.704C123.395 100.507 123.548 100.266 123.639 99.9994C123.73 99.7331 123.757 99.4491 123.719 99.1703V79.6083C123.757 79.3294 123.73 79.0455 123.639 78.7792C123.548 78.5129 123.395 78.2717 123.194 78.0749C122.993 77.8782 122.748 77.7314 122.48 77.6464C122.211 77.5613 121.927 77.5404 121.649 77.5853H118.308V72.7793H127.362V65.6093H131.819V72.7793H134.641V65.6093H139.098V72.7793H142.207C144.074 72.7761 145.874 73.4708 147.255 74.7269C148.635 75.983 149.497 77.7098 149.67 79.5684C149.842 81.427 149.314 83.283 148.189 84.7722C147.064 86.2614 145.422 87.2762 143.587 87.6173C145.389 87.6382 147.145 88.1905 148.635 89.2048C150.125 90.2191 151.283 91.6505 151.963 93.3196C152.643 94.9887 152.816 96.8214 152.459 98.5883C152.103 100.355 151.233 101.977 149.959 103.252L149.957 103.251Z" fill="url(#paint18_linear_526_8452)"/>
<path d="M190.801 81.6191H162.602V104.583H190.801V81.6191Z" fill="#F6F2ED"/>
<path d="M176.701 61.3594C173.876 61.3628 171.168 62.4865 169.171 64.484C167.174 66.4815 166.05 69.1896 166.047 72.0144V79.0844H168.372V72.0144C168.372 69.8055 169.249 67.6871 170.811 66.1252C172.373 64.5633 174.492 63.6859 176.7 63.6859C178.909 63.6859 181.028 64.5633 182.59 66.1252C184.151 67.6871 185.029 69.8055 185.029 72.0144V79.0844H187.355V72.0144C187.352 69.1896 186.229 66.4813 184.231 64.4837C182.234 62.4862 179.526 61.3626 176.701 61.3594Z" fill="#F6F2ED"/>
<path d="M58.9257 98.291C58.6173 98.291 58.3214 98.4135 58.1033 98.6317C57.8852 98.8498 57.7627 99.1456 57.7627 99.454V139.94H60.0887V100.617H89.4347V98.292H58.9257V98.291Z" fill="url(#paint19_linear_526_8452)"/>
<path d="M60.0887 81.1687V41.8457H57.7627V82.3317C57.7627 82.6401 57.8852 82.936 58.1033 83.1541C58.3214 83.3722 58.6173 83.4947 58.9257 83.4947H89.4347V81.1687H60.0887Z" fill="url(#paint20_linear_526_8452)"/>
<path d="M46.886 146.314C44.5353 146.314 42.2374 147.012 40.2829 148.318C38.3284 149.623 36.8051 151.48 35.9056 153.651C35.0061 155.823 34.7708 158.213 35.2294 160.518C35.6881 162.824 36.8201 164.942 38.4824 166.604C40.1446 168.266 42.2624 169.398 44.5679 169.856C46.8735 170.315 49.2632 170.079 51.4349 169.179C53.6065 168.28 55.4627 166.756 56.7685 164.802C58.0743 162.847 58.7712 160.549 58.771 158.198C58.7667 155.048 57.5132 152.027 55.2852 149.799C53.0572 147.572 50.0367 146.318 46.886 146.314ZM46.886 167.758C44.9955 167.758 43.1475 167.197 41.5757 166.147C40.0038 165.097 38.7788 163.604 38.0554 161.857C37.3321 160.11 37.1428 158.188 37.5117 156.334C37.8806 154.48 38.791 152.777 40.1277 151.44C41.4645 150.103 43.1677 149.193 45.0219 148.824C46.876 148.455 48.798 148.645 50.5446 149.368C52.2912 150.091 53.7841 151.316 54.8346 152.888C55.885 154.46 56.4458 156.308 56.446 158.198C56.4433 160.733 55.4353 163.163 53.643 164.955C51.8507 166.748 49.4206 167.756 46.886 167.758Z" fill="#F6F2ED"/>
<path d="M43.4772 154.254C42.6969 154.254 41.9342 154.485 41.2854 154.919C40.6366 155.352 40.131 155.969 39.8324 156.689C39.5339 157.41 39.4558 158.204 39.6081 158.969C39.7604 159.734 40.1362 160.437 40.688 160.989C41.2399 161.54 41.9429 161.916 42.7082 162.068C43.4735 162.22 44.2668 162.142 44.9876 161.843C45.7084 161.545 46.3245 161.039 46.7579 160.39C47.1912 159.741 47.4224 158.978 47.4222 158.198C47.4209 157.152 47.0048 156.15 46.2652 155.41C45.5257 154.671 44.523 154.255 43.4772 154.254ZM43.4772 159.817C43.157 159.817 42.844 159.722 42.5778 159.544C42.3115 159.366 42.104 159.113 41.9815 158.817C41.8589 158.522 41.8269 158.196 41.8893 157.882C41.9518 157.568 42.106 157.28 42.3324 157.053C42.5588 156.827 42.8473 156.672 43.1614 156.61C43.4754 156.548 43.801 156.58 44.0968 156.702C44.3926 156.825 44.6455 157.032 44.8234 157.298C45.0013 157.565 45.0962 157.878 45.0962 158.198C45.0957 158.627 44.925 159.039 44.6215 159.342C44.3179 159.646 43.9065 159.816 43.4772 159.817Z" fill="#F6F2ED"/>
<path d="M89.046 159.304L84.561 153.848C84.4601 153.725 84.335 153.624 84.1934 153.551C84.0518 153.478 83.8968 153.435 83.738 153.425C83.5794 153.416 83.4205 153.439 83.271 153.492C83.1215 153.546 82.9844 153.63 82.868 153.738L80.968 155.519H77.006L75.242 153.762C75.0241 153.545 74.7288 153.423 74.421 153.423H66.299C66.1097 153.423 65.9232 153.469 65.7558 153.558C65.5883 153.646 65.4449 153.774 65.338 153.93L64.451 155.23L63.446 153.888C63.3377 153.743 63.1972 153.626 63.0356 153.545C62.874 153.464 62.6957 153.422 62.515 153.422H56.982C56.7955 153.421 56.6116 153.465 56.4457 153.551C56.2799 153.636 56.137 153.76 56.0292 153.912C55.9213 154.065 55.8517 154.24 55.826 154.425C55.8004 154.61 55.8196 154.798 55.882 154.974C56.2509 156.009 56.4393 157.1 56.439 158.199C56.4436 159.682 56.0979 161.145 55.43 162.47C55.3407 162.647 55.2982 162.844 55.3067 163.043C55.3152 163.241 55.3744 163.434 55.4786 163.603C55.5828 163.772 55.7285 163.911 55.9019 164.008C56.0753 164.105 56.2705 164.155 56.469 164.155H88.144C88.4525 164.155 88.7483 164.032 88.9664 163.814C89.1845 163.596 89.307 163.3 89.307 162.992V160.041C89.3078 159.772 89.2155 159.512 89.046 159.304ZM86.985 161.831H58.203C58.5801 160.658 58.7708 159.432 58.768 158.2C58.7681 157.376 58.683 156.554 58.514 155.748H61.933L63.564 157.926C63.6775 158.071 63.8227 158.189 63.9886 158.269C64.1545 158.35 64.3366 158.392 64.521 158.391C64.7059 158.387 64.8871 158.338 65.0497 158.25C65.2123 158.162 65.3515 158.036 65.456 157.884L66.913 155.748H73.941L75.705 157.505C75.923 157.722 76.2183 157.844 76.526 157.844H81.426C81.7231 157.845 82.0094 157.732 82.226 157.529L83.556 156.282L86.988 160.458L86.985 161.831Z" fill="#F6F2ED"/>
<path d="M84.1378 147.23L79.4378 151.643H78.6108L76.5108 149.543H60.0548C58.5563 147.265 56.4921 145.414 54.064 144.172C51.6359 142.93 48.9271 142.34 46.2024 142.458C43.4777 142.577 40.8305 143.401 38.5195 144.849C36.2086 146.297 34.313 148.32 33.0182 150.721C31.7234 153.121 31.0737 155.816 31.1326 158.543C31.1915 161.269 31.957 163.934 33.3542 166.276C34.7514 168.618 36.7326 170.558 39.1039 171.905C41.4752 173.252 44.1556 173.96 46.8828 173.961C49.2514 173.976 51.5921 173.45 53.7263 172.422C55.8606 171.395 57.732 169.894 59.1978 168.033H93.1828V158.233L84.1378 147.23ZM90.8608 165.707H58.0358L57.6878 166.182C56.4493 167.883 54.824 169.264 52.946 170.212C51.0681 171.161 48.9915 171.648 46.8878 171.635C44.5377 171.636 42.2285 171.021 40.1906 169.85C38.1527 168.68 36.4575 166.995 35.2741 164.965C34.0907 162.935 33.4605 160.629 33.4466 158.279C33.4326 155.929 34.0352 153.617 35.1943 151.572C36.3535 149.528 38.0285 147.823 40.0523 146.629C42.0762 145.434 44.3779 144.791 46.7278 144.764C49.0778 144.737 51.3937 145.327 53.4444 146.475C55.4952 147.623 57.209 149.288 58.4148 151.305L58.7528 151.872H75.5428L77.6428 153.972H80.3498L83.9148 150.628L90.8578 159.074L90.8608 165.707Z" fill="url(#paint21_linear_526_8452)"/>
<path d="M46.886 12.877C44.5355 12.877 42.2378 13.5739 40.2834 14.8797C38.3291 16.1854 36.8057 18.0414 35.9061 20.2128C35.0064 22.3843 34.7708 24.7738 35.2291 27.0791C35.6873 29.3845 36.8189 31.5022 38.4806 33.1645C40.1424 34.8268 42.2597 35.9591 44.5649 36.4181C46.8701 36.8771 49.2596 36.6423 51.4314 35.7434C53.6032 34.8445 55.4596 33.3218 56.7661 31.3678C58.0725 29.4139 58.7702 27.1164 58.771 24.766C58.7681 21.6144 57.5151 18.5927 55.287 16.3638C53.0588 14.1349 50.0376 12.8809 46.886 12.877ZM46.886 34.322C44.9952 34.322 43.1469 33.7613 41.5747 32.7108C40.0026 31.6603 38.7773 30.1673 38.0537 28.4204C37.3301 26.6735 37.1408 24.7513 37.5097 22.8969C37.8785 21.0424 38.7891 19.339 40.126 18.002C41.463 16.665 43.1665 15.7545 45.0209 15.3856C46.8754 15.0168 48.7976 15.2061 50.5444 15.9297C52.2913 16.6532 53.7844 17.8786 54.8348 19.4507C55.8853 21.0228 56.446 22.8712 56.446 24.762C56.4444 27.2973 55.4368 29.7284 53.6444 31.5216C51.852 33.3147 49.4213 34.3233 46.886 34.326V34.322Z" fill="#F6F2ED"/>
<path d="M43.4772 20.8223C42.6969 20.8223 41.9342 21.0537 41.2854 21.4872C40.6366 21.9207 40.131 22.5369 39.8324 23.2578C39.5339 23.9787 39.4558 24.772 39.6081 25.5373C39.7604 26.3026 40.1362 27.0055 40.688 27.5572C41.2399 28.1088 41.9429 28.4845 42.7082 28.6366C43.4735 28.7887 44.2668 28.7104 44.9876 28.4117C45.7084 28.1129 46.3245 27.6072 46.7579 26.9583C47.1912 26.3094 47.4224 25.5466 47.4222 24.7663C47.4209 23.7205 47.0048 22.7179 46.2652 21.9785C45.5257 21.2392 44.523 20.8233 43.4772 20.8223ZM43.4772 26.3853C43.157 26.3853 42.844 26.2903 42.5778 26.1124C42.3115 25.9345 42.104 25.6817 41.9815 25.3858C41.8589 25.09 41.8269 24.7645 41.8893 24.4504C41.9518 24.1364 42.106 23.8479 42.3324 23.6215C42.5588 23.395 42.8473 23.2408 43.1614 23.1784C43.4754 23.1159 43.801 23.148 44.0968 23.2705C44.3926 23.393 44.6455 23.6006 44.8234 23.8668C45.0013 24.133 45.0962 24.4461 45.0962 24.7663C45.0957 25.1955 44.925 25.607 44.6215 25.9105C44.3179 26.214 43.9065 26.3847 43.4772 26.3853Z" fill="url(#paint22_linear_526_8452)"/>
<path d="M43.4772 20.8223C42.6969 20.8223 41.9342 21.0537 41.2854 21.4872C40.6366 21.9207 40.131 22.5369 39.8324 23.2578C39.5339 23.9787 39.4558 24.772 39.6081 25.5373C39.7604 26.3026 40.1362 27.0055 40.688 27.5572C41.2399 28.1088 41.9429 28.4845 42.7082 28.6366C43.4735 28.7887 44.2668 28.7104 44.9876 28.4117C45.7084 28.1129 46.3245 27.6072 46.7579 26.9583C47.1912 26.3094 47.4224 25.5466 47.4222 24.7663C47.4209 23.7205 47.0048 22.7179 46.2652 21.9785C45.5257 21.2392 44.523 20.8233 43.4772 20.8223ZM43.4772 26.3853C43.157 26.3853 42.844 26.2903 42.5778 26.1124C42.3115 25.9345 42.104 25.6817 41.9815 25.3858C41.8589 25.09 41.8269 24.7645 41.8893 24.4504C41.9518 24.1364 42.106 23.8479 42.3324 23.6215C42.5588 23.395 42.8473 23.2408 43.1614 23.1784C43.4754 23.1159 43.801 23.148 44.0968 23.2705C44.3926 23.393 44.6455 23.6006 44.8234 23.8668C45.0013 24.133 45.0962 24.4461 45.0962 24.7663C45.0957 25.1955 44.925 25.607 44.6215 25.9105C44.3179 26.214 43.9065 26.3847 43.4772 26.3853Z" fill="#F6F2ED"/>
<path d="M89.046 25.8712L84.561 20.4142C84.46 20.2913 84.3349 20.1904 84.1933 20.1178C84.0517 20.0452 83.8968 20.0025 83.738 19.9922C83.5794 19.9834 83.4207 20.0066 83.2712 20.0604C83.1218 20.1141 82.9847 20.1974 82.868 20.3052L80.968 22.0862H77.006L75.243 20.3292C75.0251 20.1119 74.7298 19.9899 74.422 19.9902H66.299C66.1097 19.9903 65.9232 20.0365 65.7558 20.1248C65.5883 20.2132 65.4449 20.341 65.338 20.4972L64.451 21.7972L63.446 20.4602C63.3376 20.3158 63.197 20.1985 63.0354 20.1178C62.8738 20.0371 62.6957 19.9951 62.515 19.9952H56.982C56.7954 19.9945 56.6113 20.0388 56.4454 20.1242C56.2794 20.2096 56.1365 20.3337 56.0286 20.486C55.9207 20.6383 55.8511 20.8143 55.8256 20.9992C55.8001 21.1841 55.8194 21.3724 55.882 21.5482C56.2508 22.5831 56.4392 23.6736 56.439 24.7722C56.4436 26.2558 56.0979 27.7195 55.43 29.0442C55.3407 29.2215 55.2982 29.4187 55.3067 29.617C55.3152 29.8153 55.3744 30.0082 55.4786 30.1771C55.5828 30.3461 55.7285 30.4855 55.9019 30.5822C56.0753 30.6788 56.2705 30.7295 56.469 30.7292H88.144C88.4525 30.7292 88.7483 30.6067 88.9664 30.3886C89.1845 30.1705 89.307 29.8747 89.307 29.5662V26.6142C89.309 26.3438 89.2167 26.0811 89.046 25.8712ZM86.985 28.3982H58.203C58.5801 27.2249 58.7707 25.9997 58.768 24.7672C58.7681 23.9437 58.683 23.1223 58.514 22.3162H61.933L63.564 24.4942C63.6735 24.644 63.8179 24.7647 63.9847 24.8459C64.1515 24.9271 64.3356 24.9664 64.521 24.9602C64.7059 24.9559 64.8871 24.9077 65.0497 24.8196C65.2123 24.7314 65.3515 24.6058 65.456 24.4532L66.913 22.3172H73.941L75.705 24.0742C75.923 24.2915 76.2183 24.4134 76.526 24.4132H81.426C81.7231 24.4143 82.0094 24.3016 82.226 24.0982L83.556 22.8512L86.988 27.0272V28.3992L86.985 28.3982Z" fill="#F6F2ED"/>
<path d="M221.654 98.291H197.796V100.616H220.491V139.939H222.817V99.453C222.817 99.1448 222.694 98.8492 222.476 98.6313C222.258 98.4134 221.962 98.291 221.654 98.291Z" fill="url(#paint23_linear_526_8452)"/>
<path d="M220.491 41.8457V81.1687H197.796V83.4947H221.654C221.962 83.4947 222.258 83.3722 222.476 83.1541C222.694 82.936 222.817 82.6401 222.817 82.3317V41.8457H220.491Z" fill="url(#paint24_linear_526_8452)"/>
<path d="M202.243 146.314C199.893 146.314 197.595 147.012 195.64 148.318C193.686 149.623 192.163 151.48 191.263 153.651C190.363 155.823 190.128 158.213 190.587 160.518C191.046 162.824 192.178 164.942 193.84 166.604C195.502 168.266 197.62 169.398 199.925 169.856C202.231 170.315 204.621 170.079 206.792 169.179C208.964 168.28 210.82 166.756 212.126 164.802C213.432 162.847 214.129 160.549 214.128 158.198C214.124 155.048 212.871 152.027 210.643 149.799C208.415 147.572 205.394 146.318 202.243 146.314ZM202.243 167.758C200.353 167.758 198.505 167.197 196.933 166.147C195.361 165.097 194.136 163.604 193.413 161.857C192.689 160.11 192.5 158.188 192.869 156.334C193.238 154.48 194.148 152.777 195.485 151.44C196.822 150.103 198.525 149.193 200.379 148.824C202.233 148.455 204.155 148.645 205.902 149.368C207.649 150.091 209.142 151.316 210.192 152.888C211.242 154.46 211.803 156.308 211.803 158.198C211.801 160.733 210.793 163.163 209 164.955C207.208 166.748 204.778 167.756 202.243 167.758Z" fill="#F6F2ED"/>
<path d="M198.831 154.254C198.05 154.254 197.288 154.485 196.639 154.918C195.99 155.352 195.484 155.968 195.185 156.689C194.887 157.41 194.808 158.203 194.961 158.968C195.113 159.734 195.488 160.437 196.04 160.988C196.592 161.54 197.295 161.916 198.06 162.068C198.826 162.22 199.619 162.142 200.34 161.843C201.061 161.545 201.677 161.039 202.11 160.39C202.544 159.741 202.775 158.978 202.775 158.198C202.773 157.152 202.357 156.15 201.618 155.411C200.879 154.671 199.876 154.255 198.831 154.254ZM198.831 159.817C198.51 159.817 198.197 159.722 197.931 159.544C197.664 159.367 197.457 159.114 197.334 158.818C197.211 158.522 197.179 158.196 197.242 157.882C197.304 157.568 197.459 157.279 197.685 157.053C197.912 156.826 198.201 156.672 198.515 156.61C198.829 156.548 199.155 156.58 199.45 156.703C199.746 156.825 199.999 157.033 200.177 157.3C200.355 157.566 200.449 157.88 200.449 158.2C200.448 158.629 200.277 159.039 199.974 159.342C199.67 159.646 199.259 159.816 198.831 159.817Z" fill="#F6F2ED"/>
<path d="M244.404 159.303L239.919 153.847C239.818 153.724 239.693 153.623 239.551 153.55C239.41 153.477 239.255 153.434 239.096 153.424C238.937 153.415 238.778 153.437 238.629 153.491C238.479 153.545 238.342 153.629 238.226 153.737L236.326 155.522H232.365L230.601 153.765C230.383 153.548 230.088 153.426 229.78 153.426H221.657C221.467 153.426 221.281 153.472 221.114 153.561C220.946 153.649 220.803 153.777 220.696 153.933L219.809 155.233L218.803 153.891C218.695 153.746 218.554 153.629 218.393 153.548C218.231 153.467 218.053 153.425 217.873 153.425H212.339C212.152 153.424 211.968 153.468 211.802 153.554C211.636 153.639 211.493 153.763 211.385 153.916C211.278 154.068 211.208 154.244 211.182 154.429C211.157 154.614 211.176 154.802 211.239 154.978C211.608 156.013 211.797 157.103 211.796 158.202C211.8 159.685 211.454 161.148 210.787 162.473C210.698 162.65 210.656 162.847 210.664 163.046C210.673 163.244 210.732 163.436 210.836 163.605C210.94 163.774 211.086 163.914 211.259 164.01C211.432 164.107 211.627 164.158 211.826 164.158H243.501C243.809 164.158 244.105 164.035 244.323 163.817C244.541 163.599 244.664 163.303 244.664 162.995V160.044C244.665 159.774 244.573 159.513 244.404 159.303ZM242.343 161.83H213.561C213.938 160.657 214.128 159.431 214.126 158.199C214.126 157.375 214.041 156.553 213.872 155.747H217.291L218.923 157.925C219.034 158.073 219.178 158.192 219.345 158.273C219.511 158.354 219.694 158.394 219.879 158.39C220.064 158.386 220.245 158.338 220.408 158.25C220.57 158.161 220.71 158.036 220.814 157.883L222.272 155.747H229.296L231.06 157.504C231.278 157.721 231.573 157.843 231.881 157.843H236.781C237.078 157.844 237.364 157.731 237.581 157.528L238.91 156.281L242.343 160.457V161.83Z" fill="#F6F2ED"/>
<path d="M202.243 12.877C199.893 12.877 197.595 13.574 195.64 14.8799C193.686 16.1859 192.163 18.0421 191.263 20.2138C190.364 22.3855 190.128 24.7751 190.587 27.0806C191.045 29.3861 192.177 31.5038 193.839 33.1659C195.502 34.8281 197.619 35.96 199.925 36.4186C202.23 36.8772 204.62 36.6418 206.792 35.7423C208.963 34.8427 210.819 33.3194 212.125 31.3649C213.431 29.4104 214.128 27.1126 214.128 24.762C214.124 21.6111 212.871 18.5904 210.643 16.3624C208.415 14.1344 205.394 12.8809 202.243 12.877ZM202.243 34.322C200.353 34.3222 198.504 33.7616 196.932 32.7113C195.36 31.6609 194.134 30.1679 193.41 28.4211C192.687 26.6743 192.497 24.752 192.866 22.8975C193.235 21.043 194.145 19.3395 195.482 18.0024C196.819 16.6653 198.522 15.7547 200.377 15.3857C202.231 15.0168 204.154 15.206 205.901 15.9296C207.648 16.6531 209.141 17.8784 210.191 19.4506C211.242 21.0228 211.802 22.8711 211.802 24.762C211.801 27.2971 210.793 29.7281 209.001 31.5212C207.209 33.3143 204.779 34.323 202.243 34.326V34.322Z" fill="#F6F2ED"/>
<path d="M198.831 20.8223C198.05 20.8221 197.288 21.0533 196.639 21.4867C195.99 21.9201 195.484 22.5362 195.185 23.2571C194.887 23.978 194.808 24.7713 194.961 25.5367C195.113 26.302 195.488 27.005 196.04 27.5568C196.592 28.1086 197.295 28.4843 198.06 28.6365C198.826 28.7887 199.619 28.7105 200.34 28.4118C201.061 28.1131 201.677 27.6073 202.11 26.9584C202.544 26.3095 202.775 25.5466 202.775 24.7663C202.773 23.7207 202.357 22.7183 201.618 21.9789C200.879 21.2395 199.876 20.8236 198.831 20.8223ZM198.831 26.3853C198.511 26.3853 198.198 26.2903 197.931 26.1124C197.665 25.9345 197.458 25.6817 197.335 25.3858C197.212 25.09 197.18 24.7645 197.243 24.4504C197.305 24.1364 197.46 23.8479 197.686 23.6215C197.912 23.395 198.201 23.2408 198.515 23.1784C198.829 23.1159 199.154 23.148 199.45 23.2705C199.746 23.393 199.999 23.6006 200.177 23.8668C200.355 24.133 200.45 24.4461 200.45 24.7663C200.449 25.1955 200.278 25.607 199.975 25.9105C199.671 26.214 199.26 26.3847 198.831 26.3853Z" fill="#F6F2ED"/>
<path d="M244.404 25.8712L239.919 20.4142C239.818 20.2913 239.693 20.1904 239.551 20.1178C239.41 20.0452 239.255 20.0025 239.096 19.9922C238.937 19.9833 238.778 20.0064 238.629 20.0602C238.479 20.114 238.342 20.1973 238.226 20.3052L236.326 22.0862H232.365L230.601 20.3292C230.383 20.1119 230.088 19.9899 229.78 19.9902H221.657C221.467 19.9903 221.281 20.0365 221.114 20.1248C220.946 20.2132 220.803 20.341 220.696 20.4972L219.809 21.7972L218.803 20.4602C218.695 20.3159 218.554 20.1987 218.393 20.118C218.231 20.0373 218.053 19.9953 217.873 19.9952H212.339C212.152 19.9945 211.968 20.0388 211.802 20.1242C211.636 20.2096 211.493 20.3337 211.385 20.486C211.278 20.6383 211.208 20.8143 211.182 20.9992C211.157 21.1841 211.176 21.3724 211.239 21.5482C211.608 22.583 211.797 23.6736 211.796 24.7722C211.8 26.2558 211.454 27.7194 210.787 29.0442C210.698 29.2215 210.656 29.4186 210.664 29.6169C210.673 29.8151 210.732 30.0078 210.836 30.1766C210.94 30.3455 211.086 30.4849 211.259 30.5817C211.432 30.6784 211.627 30.7292 211.826 30.7292H243.501C243.809 30.7292 244.105 30.6067 244.323 30.3886C244.541 30.1705 244.664 29.8747 244.664 29.5662V26.6142C244.666 26.344 244.574 26.0814 244.404 25.8712ZM242.343 28.3982H213.561C214.188 26.4315 214.295 24.3357 213.872 22.3152H217.291L218.923 24.4932C219.034 24.6412 219.178 24.7607 219.345 24.8416C219.511 24.9226 219.694 24.9627 219.879 24.9587C220.064 24.9547 220.245 24.9067 220.408 24.8186C220.57 24.7305 220.709 24.6049 220.814 24.4522L222.272 22.3162H229.296L231.06 24.0732C231.278 24.2906 231.573 24.4125 231.881 24.4122H236.781C237.078 24.4133 237.364 24.3006 237.581 24.0972L238.91 22.8502L242.343 27.0262V28.3982Z" fill="#F6F2ED"/>
<path d="M239.495 13.7977L234.795 18.2107H233.968L231.868 16.1107H215.412C213.913 13.8324 211.849 11.9822 209.42 10.7409C206.992 9.49953 204.283 8.90958 201.559 9.02872C198.834 9.14785 196.187 9.97199 193.877 11.4205C191.566 12.8691 189.671 14.8925 188.377 17.2929C187.082 19.6933 186.433 22.3885 186.492 25.115C186.551 27.8415 187.317 30.5059 188.714 32.8478C190.112 35.1897 192.093 37.1289 194.464 38.4757C196.836 39.8226 199.516 40.531 202.243 40.5317C204.612 40.5462 206.953 40.0192 209.087 38.9912C211.22 37.9631 213.091 36.4611 214.556 34.5997H248.542V24.7997L239.495 13.7977ZM246.217 32.2747H213.392L213.043 32.7497C211.805 34.4507 210.18 35.8326 208.302 36.7808C206.424 37.7291 204.347 38.2165 202.243 38.2027C199.893 38.2036 197.584 37.5882 195.546 36.4177C193.508 35.2473 191.813 33.5628 190.629 31.5324C189.446 29.502 188.816 27.1967 188.802 24.8467C188.788 22.4966 189.391 20.184 190.55 18.1397C191.709 16.0953 193.384 14.3908 195.408 13.1961C197.432 12.0015 199.733 11.3586 202.083 11.3316C204.433 11.3045 206.749 11.8944 208.8 13.0421C210.851 14.1899 212.564 15.8555 213.77 17.8727L214.108 18.4397H230.9L233 20.5397H235.707L239.272 17.1957L246.214 25.6407V32.2787L246.217 32.2747Z" fill="#F6F2ED"/>
<path d="M84.1378 13.7977L79.4378 18.2107H78.6118L76.5118 16.1107H60.0548C58.5559 13.8325 56.4915 11.9824 54.0634 10.741C51.6353 9.4997 48.9266 8.90968 46.2022 9.02869C43.4778 9.14769 40.8308 9.97163 38.5202 11.42C36.2096 12.8683 34.3144 14.8914 33.0198 17.2915C31.7252 19.6917 31.0756 22.3867 31.1345 25.1131C31.1934 27.8395 31.9588 30.5039 33.3558 32.8459C34.7529 35.1879 36.7337 37.1273 39.1047 38.4744C41.4758 39.8216 44.1558 40.5305 46.8828 40.5317C49.2515 40.5469 51.5923 40.0207 53.7266 38.9933C55.8609 37.9659 57.7322 36.4645 59.1978 34.6037H93.1828V24.8037L84.1378 13.7977ZM90.8608 32.2747H58.0348L57.6858 32.7497C56.4478 34.4507 54.8225 35.8325 52.9445 36.7807C51.0664 37.7289 48.9896 38.2164 46.8858 38.2027C44.5357 38.2036 42.2265 37.5882 40.1886 36.4177C38.1507 35.2473 36.4554 33.5628 35.2721 31.5324C34.0887 29.502 33.4585 27.1967 33.4445 24.8467C33.4305 22.4966 34.0332 20.184 35.1923 18.1397C36.3515 16.0953 38.0265 14.3908 40.0503 13.1961C42.0741 12.0015 44.3759 11.3586 46.7258 11.3316C49.0758 11.3045 51.3917 11.8944 53.4424 13.0421C55.4932 14.1899 57.207 15.8555 58.4128 17.8727L58.7508 18.4397H75.5428L77.6428 20.5397H80.3498L83.9148 17.1957L90.8568 25.6407V32.2787L90.8608 32.2747Z" fill="#F6F2ED"/>
<path d="M239.495 147.23L234.795 151.643H233.968L231.868 149.543H215.412C213.914 147.264 211.85 145.412 209.422 144.17C206.993 142.927 204.284 142.336 201.559 142.454C198.834 142.573 196.186 143.396 193.875 144.844C191.563 146.293 189.667 148.316 188.373 150.717C187.078 153.118 186.428 155.813 186.487 158.54C186.546 161.268 187.312 163.933 188.71 166.275C190.108 168.617 192.09 170.556 194.462 171.903C196.834 173.25 199.515 173.958 202.243 173.957C204.611 173.973 206.952 173.446 209.086 172.419C211.22 171.392 213.092 169.89 214.557 168.029H248.543V158.229L239.495 147.23ZM246.217 165.707H213.392L213.043 166.182C211.805 167.883 210.18 169.265 208.302 170.213C206.424 171.162 204.347 171.649 202.243 171.635C199.893 171.636 197.584 171.021 195.546 169.851C193.508 168.68 191.813 166.996 190.629 164.965C189.446 162.935 188.816 160.63 188.802 158.279C188.788 155.929 189.39 153.617 190.549 151.572C191.709 149.528 193.384 147.824 195.407 146.629C197.431 145.434 199.733 144.791 202.083 144.764C204.433 144.737 206.749 145.327 208.8 146.475C210.85 147.623 212.564 149.288 213.77 151.305L214.108 151.872H230.9L233 153.972H235.707L239.272 150.628L246.214 159.074V165.711L246.217 165.707Z" fill="#F6F2ED"/>
<path d="M82.1274 24.1934H57.6084V26.5194H82.1274V24.1934Z" fill="#F6F2ED"/>
<path d="M237.484 24.1934H212.966V26.5194H237.484V24.1934Z" fill="#F6F2ED"/>
<path d="M237.484 157.035H212.966V159.361H237.484V157.035Z" fill="#F6F2ED"/>
<path d="M82.1274 157.035H57.6084V159.361H82.1274V157.035Z" fill="#F6F2ED"/>
<path d="M181.158 99.1603L179.633 93.3343C180.262 92.7613 180.703 92.0116 180.897 91.1835C181.092 90.3553 181.032 89.4876 180.725 88.6943C180.418 87.9009 179.878 87.219 179.176 86.7382C178.474 86.2573 177.643 86 176.793 86C175.942 86 175.111 86.2573 174.409 86.7382C173.707 87.219 173.167 87.9009 172.86 88.6943C172.553 89.4876 172.493 90.3553 172.688 91.1835C172.883 92.0116 173.324 92.7613 173.953 93.3343L172.428 99.1603C172.383 99.3323 172.377 99.5124 172.413 99.6866C172.448 99.8609 172.523 100.025 172.632 100.165C172.741 100.306 172.88 100.42 173.04 100.498C173.199 100.577 173.375 100.617 173.553 100.617H180.033C180.211 100.617 180.386 100.577 180.546 100.498C180.705 100.42 180.845 100.306 180.954 100.165C181.062 100.025 181.137 99.8609 181.173 99.6866C181.208 99.5124 181.203 99.3323 181.158 99.1603Z" fill="#443D2F"/>
<defs>
<linearGradient id="paint0_linear_526_8452" x1="254.084" y1="94.274" x2="272.754" y2="102.651" gradientUnits="userSpaceOnUse">
<stop stop-color="#A58969"/>
<stop offset="1" stop-color="#C7B664"/>
</linearGradient>
<linearGradient id="paint1_linear_526_8452" x1="31.0895" y1="49.6409" x2="35.2255" y2="50.7265" gradientUnits="userSpaceOnUse">
<stop stop-color="#A58969"/>
<stop offset="1" stop-color="#C7B664"/>
</linearGradient>
<linearGradient id="paint2_linear_526_8452" x1="31.0895" y1="60.594" x2="35.2255" y2="61.6796" gradientUnits="userSpaceOnUse">
<stop stop-color="#A58969"/>
<stop offset="1" stop-color="#C7B664"/>
</linearGradient>
<linearGradient id="paint3_linear_526_8452" x1="35.7157" y1="55.8657" x2="40.4738" y2="59.515" gradientUnits="userSpaceOnUse">
<stop stop-color="#A58969"/>
<stop offset="1" stop-color="#C7B664"/>
</linearGradient>
<linearGradient id="paint4_linear_526_8452" x1="24.7625" y1="55.8657" x2="29.5207" y2="59.515" gradientUnits="userSpaceOnUse">
<stop stop-color="#A58969"/>
<stop offset="1" stop-color="#C7B664"/>
</linearGradient>
<linearGradient id="paint5_linear_526_8452" x1="242.306" y1="112.42" x2="246.442" y2="113.506" gradientUnits="userSpaceOnUse">
<stop stop-color="#A58969"/>
<stop offset="1" stop-color="#C7B664"/>
</linearGradient>
<linearGradient id="paint6_linear_526_8452" x1="242.306" y1="123.375" x2="246.442" y2="124.461" gradientUnits="userSpaceOnUse">
<stop stop-color="#A58969"/>
<stop offset="1" stop-color="#C7B664"/>
</linearGradient>
<linearGradient id="paint7_linear_526_8452" x1="246.933" y1="118.645" x2="251.692" y2="122.294" gradientUnits="userSpaceOnUse">
<stop stop-color="#A58969"/>
<stop offset="1" stop-color="#C7B664"/>
</linearGradient>
<linearGradient id="paint8_linear_526_8452" x1="235.98" y1="118.645" x2="240.738" y2="122.294" gradientUnits="userSpaceOnUse">
<stop stop-color="#A58969"/>
<stop offset="1" stop-color="#C7B664"/>
</linearGradient>
<linearGradient id="paint9_linear_526_8452" x1="121.244" y1="155.717" x2="125.378" y2="156.802" gradientUnits="userSpaceOnUse">
<stop stop-color="#A58969"/>
<stop offset="1" stop-color="#C7B664"/>
</linearGradient>
<linearGradient id="paint10_linear_526_8452" x1="121.244" y1="166.67" x2="125.378" y2="167.755" gradientUnits="userSpaceOnUse">
<stop stop-color="#A58969"/>
<stop offset="1" stop-color="#C7B664"/>
</linearGradient>
<linearGradient id="paint11_linear_526_8452" x1="125.87" y1="161.94" x2="130.627" y2="165.59" gradientUnits="userSpaceOnUse">
<stop stop-color="#A58969"/>
<stop offset="1" stop-color="#C7B664"/>
</linearGradient>
<linearGradient id="paint12_linear_526_8452" x1="114.916" y1="161.94" x2="119.673" y2="165.59" gradientUnits="userSpaceOnUse">
<stop stop-color="#A58969"/>
<stop offset="1" stop-color="#C7B664"/>
</linearGradient>
<linearGradient id="paint13_linear_526_8452" x1="20.7619" y1="107.164" x2="45.4402" y2="118.237" gradientUnits="userSpaceOnUse">
<stop stop-color="#A58969"/>
<stop offset="1" stop-color="#C7B664"/>
</linearGradient>
<linearGradient id="paint14_linear_526_8452" x1="114.848" y1="18.05" x2="122.281" y2="21.385" gradientUnits="userSpaceOnUse">
<stop stop-color="#A58969"/>
<stop offset="1" stop-color="#C7B664"/>
</linearGradient>
<linearGradient id="paint15_linear_526_8452" x1="94.0437" y1="50.2208" x2="223.996" y2="104.334" gradientUnits="userSpaceOnUse">
<stop stop-color="#A58969"/>
<stop offset="1" stop-color="#C7B664"/>
</linearGradient>
<linearGradient id="paint16_linear_526_8452" x1="131.676" y1="78.3033" x2="146.087" y2="85.0957" gradientUnits="userSpaceOnUse">
<stop stop-color="#A58969"/>
<stop offset="1" stop-color="#C7B664"/>
</linearGradient>
<linearGradient id="paint17_linear_526_8452" x1="131.639" y1="91.7092" x2="148.73" y2="101.103" gradientUnits="userSpaceOnUse">
<stop stop-color="#A58969"/>
<stop offset="1" stop-color="#C7B664"/>
</linearGradient>
<linearGradient id="paint18_linear_526_8452" x1="99.2383" y1="54.7729" x2="214.039" y2="102.565" gradientUnits="userSpaceOnUse">
<stop stop-color="#A58969"/>
<stop offset="1" stop-color="#C7B664"/>
</linearGradient>
<linearGradient id="paint19_linear_526_8452" x1="57.2792" y1="100.258" x2="111.199" y2="118.655" gradientUnits="userSpaceOnUse">
<stop stop-color="#A58969"/>
<stop offset="1" stop-color="#C7B664"/>
</linearGradient>
<linearGradient id="paint20_linear_526_8452" x1="57.2792" y1="43.8125" x2="111.199" y2="62.2098" gradientUnits="userSpaceOnUse">
<stop stop-color="#A58969"/>
<stop offset="1" stop-color="#C7B664"/>
</linearGradient>
<linearGradient id="paint21_linear_526_8452" x1="30.1815" y1="143.932" x2="96.4293" y2="202.453" gradientUnits="userSpaceOnUse">
<stop stop-color="#A58969"/>
<stop offset="1" stop-color="#C7B664"/>
</linearGradient>
<linearGradient id="paint22_linear_526_8452" x1="39.4118" y1="21.1948" x2="51.8949" y2="26.7957" gradientUnits="userSpaceOnUse">
<stop stop-color="#A58969"/>
<stop offset="1" stop-color="#C7B664"/>
</linearGradient>
<linearGradient id="paint23_linear_526_8452" x1="197.414" y1="100.258" x2="241.749" y2="112.208" gradientUnits="userSpaceOnUse">
<stop stop-color="#A58969"/>
<stop offset="1" stop-color="#C7B664"/>
</linearGradient>
<linearGradient id="paint24_linear_526_8452" x1="197.414" y1="43.8125" x2="241.749" y2="55.7628" gradientUnits="userSpaceOnUse">
<stop stop-color="#A58969"/>
<stop offset="1" stop-color="#C7B664"/>
</linearGradient>
</defs>
</svg>
