<svg width="279" height="202" viewBox="0 0 279 202" fill="none" xmlns="http://www.w3.org/2000/svg">
<path d="M132.119 201.554C187.777 201.554 232.896 156.435 232.896 100.777C232.896 45.1194 187.777 0 132.119 0C76.4614 0 31.342 45.1194 31.342 100.777C31.342 156.435 76.4614 201.554 132.119 201.554Z" fill="#C3B075" fill-opacity="0.03"/>
<path opacity="0.2" d="M260.166 105.517C261.333 105.517 262.473 105.171 263.443 104.522C264.414 103.874 265.17 102.953 265.617 101.875C266.063 100.797 266.18 99.6103 265.952 98.4658C265.725 97.3213 265.163 96.27 264.338 95.4449C263.512 94.6197 262.461 94.0578 261.317 93.8302C260.172 93.6025 258.986 93.7194 257.908 94.1659C256.83 94.6125 255.908 95.3687 255.26 96.3389C254.612 97.3092 254.266 98.4499 254.266 99.6168C254.266 101.182 254.887 102.682 255.994 103.789C257.1 104.895 258.601 105.517 260.166 105.517Z" fill="url(#paint0_linear_526_7455)"/>
<path d="M59.0368 174.555H57.2148V178.091H59.0368V174.555Z" fill="#F6F2ED"/>
<path d="M59.0368 184.297H57.2148V187.833H59.0368V184.297Z" fill="#F6F2ED"/>
<path d="M64.7665 180.283H61.2305V182.105H64.7665V180.283Z" fill="#F6F2ED"/>
<path d="M55.0243 180.283H51.4883V182.105H55.0243V180.283Z" fill="#F6F2ED"/>
<path d="M3.612 50.3666C5.60685 50.3666 7.224 48.7494 7.224 46.7546C7.224 44.7597 5.60685 43.1426 3.612 43.1426C1.61715 43.1426 0 44.7597 0 46.7546C0 48.7494 1.61715 50.3666 3.612 50.3666Z" fill="#F6F2ED"/>
<path d="M16.4548 103.625C18.0371 103.625 19.3198 102.342 19.3198 100.76C19.3198 99.1772 18.0371 97.8945 16.4548 97.8945C14.8725 97.8945 13.5898 99.1772 13.5898 100.76C13.5898 102.342 14.8725 103.625 16.4548 103.625Z" fill="#F6F2ED"/>
<path d="M274.826 114.472C276.594 114.472 278.027 113.039 278.027 111.271C278.027 109.503 276.594 108.07 274.826 108.07C273.058 108.07 271.625 109.503 271.625 111.271C271.625 113.039 273.058 114.472 274.826 114.472Z" fill="#F6F2ED"/>
<path d="M225.455 22.482C227.037 22.482 228.32 21.1992 228.32 19.617C228.32 18.0347 227.037 16.752 225.455 16.752C223.873 16.752 222.59 18.0347 222.59 19.617C222.59 21.1992 223.873 22.482 225.455 22.482Z" fill="#F6F2ED"/>
<path d="M86.1761 69.6472C84.5246 69.6326 82.879 69.8463 81.2861 70.2822C80.9621 70.3672 80.6521 70.4662 80.3431 70.5752C80.3201 70.5842 80.2951 70.5932 80.2711 70.6042C79.9991 70.6952 79.7421 70.7942 79.5041 70.9042C78.3311 71.391 77.2326 72.0407 76.2411 72.8342C76.0681 72.9672 75.9031 73.1032 75.7411 73.2502C75.6611 73.3172 75.5841 73.3852 75.4911 73.4712C75.2911 73.6572 75.0911 73.8442 74.9311 74.0172C74.7781 74.1702 74.6311 74.3302 74.4901 74.4872C74.3961 74.5872 74.3091 74.6922 74.2281 74.7872C74.1471 74.8822 74.0411 75.0052 73.9551 75.1212C73.8241 75.2772 73.7001 75.4412 73.5651 75.6292L73.5251 75.6872C73.4991 75.7232 73.4741 75.7592 73.4521 75.7932C73.3131 75.9782 73.1831 76.1642 73.0791 76.3352C73.0181 76.4272 72.9631 76.5132 72.9151 76.5982C72.8068 76.7539 72.7067 76.9151 72.6151 77.0812C72.5421 77.1965 72.4753 77.3157 72.4151 77.4382C72.3041 77.6382 72.1991 77.8382 72.1001 78.0382C72.0721 78.0872 72.0471 78.1382 72.0241 78.1842C71.9131 78.4012 71.8091 78.6242 71.7341 78.8002C71.6851 78.9002 71.6411 79.0052 71.5971 79.1182C71.4907 79.3397 71.3969 79.5671 71.3161 79.7992C71.2861 79.864 71.2607 79.9308 71.2401 79.9992C71.1511 80.2162 71.0731 80.4392 71.0031 80.6622C70.9731 80.7352 70.9481 80.8082 70.9241 80.8812C69.8842 84.195 69.3838 87.6545 69.4421 91.1272V98.1472H71.4291V91.1212C71.3716 87.8627 71.8375 84.616 72.8091 81.5052C72.8211 81.4712 72.8301 81.4362 72.8461 81.4052C72.8615 81.3707 72.8749 81.3353 72.8861 81.2992C72.9471 81.0992 73.0141 80.9052 73.0941 80.7142C73.1031 80.6922 73.1151 80.6592 73.1241 80.6292C73.1448 80.5878 73.1625 80.5451 73.1771 80.5012C73.2408 80.3111 73.317 80.1253 73.4051 79.9452C73.4171 79.9212 73.4301 79.8882 73.4401 79.8642C73.4631 79.8042 73.4851 79.7442 73.5401 79.6392C73.6231 79.4482 73.7121 79.2562 73.8341 79.0192C73.8501 78.9932 73.8641 78.9672 73.8771 78.9402C73.9661 78.7552 74.0621 78.5692 74.1641 78.3912C74.1771 78.3682 74.1891 78.3452 74.2001 78.3212C74.2333 78.2521 74.2711 78.1853 74.3131 78.1212C74.3261 78.1012 74.3381 78.0802 74.3501 78.0602C74.4154 77.9363 74.4885 77.8167 74.5691 77.7022C74.5931 77.6685 74.6151 77.6334 74.6351 77.5972C74.6631 77.5452 74.6981 77.4972 74.7571 77.4042C74.8571 77.2462 74.9571 77.1042 75.0661 76.9562C75.0831 76.9342 75.1331 76.8632 75.1471 76.8392L75.2071 76.7522C75.2971 76.6262 75.3931 76.4992 75.4951 76.3792C75.5101 76.3622 75.5251 76.3432 75.5391 76.3242C75.6021 76.2382 75.6711 76.1602 75.746 76.0722C75.821 75.9842 75.8851 75.9082 75.9631 75.8222C76.0871 75.6852 76.2111 75.5492 76.3691 75.3892C76.5271 75.2292 76.6821 75.0762 76.8431 74.9282C76.9071 74.8702 76.9661 74.8172 77.0301 74.7642C77.0501 74.7482 77.0691 74.7312 77.0881 74.7132C77.2106 74.5991 77.3391 74.4917 77.4731 74.3912C78.3292 73.7056 79.2783 73.145 80.2921 72.7262C80.5031 72.6322 80.7151 72.5522 80.9441 72.4762C80.9661 72.4682 81.0011 72.4552 81.0361 72.4402C81.2831 72.3542 81.5361 72.2742 81.8111 72.2002C83.2337 71.8116 84.7033 71.6218 86.1781 71.6362H87.5521V69.6492H86.1771L86.1761 69.6472Z" fill="#F6F2ED"/>
<path d="M103.604 69.6465H102.223V71.6335H103.604C109.104 71.6335 118.342 74.1645 118.342 91.1175V97.9805H120.329V91.1175C120.334 77.4775 114.238 69.6465 103.604 69.6465Z" fill="#F6F2ED"/>
<path d="M94.1286 79.446L92.1926 79L88.8066 93.683C88.7477 93.9386 88.7923 94.2071 88.9306 94.43L91.5156 98.595L93.2036 97.547L90.8346 93.73L94.1286 79.446Z" fill="#F6F2ED"/>
<path d="M101.116 94.0564L96.8726 77.0474C96.8189 76.8324 96.6948 76.6415 96.5201 76.5051C96.3455 76.3686 96.1302 76.2945 95.9086 76.2944H93.4876L87.1706 74.2494V71.6374H95.3926V69.6504H86.1776C86.047 69.6503 85.9177 69.6759 85.797 69.7258C85.6764 69.7757 85.5668 69.8489 85.4744 69.9412C85.3821 70.0336 85.3089 70.1432 85.259 70.2639C85.2091 70.3845 85.1835 70.5138 85.1836 70.6444V74.9724C85.1836 75.1824 85.2502 75.3871 85.3738 75.5569C85.4974 75.7267 85.6717 75.8529 85.8716 75.9174L93.0256 78.2334C93.1243 78.2659 93.2276 78.2824 93.3316 78.2824H95.1316L99.0796 94.1084L96.8036 97.5084L98.4546 98.6144L100.978 94.8474C101.054 94.7322 101.106 94.6025 101.129 94.4664C101.153 94.3302 101.148 94.1906 101.116 94.0564Z" fill="#F6F2ED"/>
<path d="M101.143 66.7715H99.1562V70.6485H101.143V66.7715Z" fill="#F6F2ED"/>
<path d="M89.8366 66.6777H87.8496V70.6487H89.8366V66.6777Z" fill="#F6F2ED"/>
<path d="M105.299 51.3164C102.899 50.4764 98.97 48.4304 98.653 46.5164C98.6249 46.3445 98.552 46.1829 98.4417 46.0481C98.3314 45.9132 98.1876 45.8097 98.0247 45.748C97.8617 45.6863 97.6854 45.6685 97.5135 45.6965C97.3415 45.7245 97.1799 45.7972 97.045 45.9074C93.2534 48.5794 88.7568 50.0715 84.12 50.1964C83.8639 50.2072 83.6218 50.3166 83.4444 50.5016C83.267 50.6867 83.168 50.9331 83.168 51.1894V59.1894C83.1717 61.4389 84.0669 63.5952 85.6575 65.1858C87.2482 66.7765 89.4045 67.6717 91.654 67.6754H97.478C99.7275 67.6717 101.884 66.7765 103.474 65.1858C105.065 63.5952 105.96 61.4389 105.964 59.1894V52.2584C105.965 52.0517 105.901 51.8499 105.782 51.681C105.663 51.5121 105.494 51.3847 105.299 51.3164ZM103.978 59.1854C103.976 60.9087 103.291 62.561 102.072 63.7795C100.854 64.9981 99.2013 65.6835 97.478 65.6854H91.654C89.9305 65.6838 88.2782 64.9985 87.0595 63.7798C85.8409 62.5612 85.1555 60.9088 85.154 59.1854V52.1224C89.4319 51.826 93.5717 50.4841 97.21 48.2144C98.635 50.6294 102.382 52.3144 103.976 52.9424V59.1854H103.978Z" fill="#F6F2ED"/>
<path d="M96.6241 51.4805C93.8257 52.9218 90.8135 53.9034 87.7031 54.3875V59.1875C87.7042 60.235 88.1208 61.2393 88.8615 61.9801C89.6022 62.7208 90.6066 63.1374 91.6541 63.1385H97.4781C98.5257 63.1374 99.53 62.7208 100.271 61.9801C101.011 61.2393 101.428 60.235 101.429 59.1875V54.6275C99.6724 53.8367 98.051 52.7748 96.6241 51.4805Z" fill="#F6F2ED"/>
<path d="M100.772 39.9224C100.527 39.3096 100.142 38.7627 99.648 38.3256C99.1536 37.8885 98.5636 37.5734 97.9254 37.4054C94.6397 36.734 91.2357 36.9325 88.0504 37.9814C81.8964 40.0284 81.9504 45.0244 81.9964 49.8564C81.9964 50.3054 82.0054 50.7564 82.0054 51.2144C82.0052 51.345 82.0309 51.4743 82.0808 51.595C82.1307 51.7156 82.2039 51.8253 82.2962 51.9176C82.3886 52.0099 82.4982 52.0831 82.6188 52.1331C82.7395 52.183 82.8688 52.2086 82.9994 52.2084C88.4787 52.3061 93.8437 50.6359 98.2994 47.4454C98.389 47.3722 98.4652 47.2839 98.5244 47.1844L100.465 43.9304C100.822 43.3312 101.035 42.6577 101.088 41.9624C101.142 41.2672 101.034 40.569 100.772 39.9224ZM98.7594 42.9114L96.9154 46.0014C93.0985 48.6141 88.61 50.0722 83.9864 50.2015C83.9864 50.0795 83.9864 49.9571 83.9864 49.8344C83.9384 45.1534 83.9004 41.4554 88.6804 39.8654C90.5093 39.2798 92.4179 38.9809 94.3384 38.9795C95.3765 38.9651 96.4124 39.0816 97.4214 39.3265C97.7625 39.4147 98.0778 39.5827 98.3412 39.8168C98.6046 40.0508 98.8086 40.3441 98.9364 40.6724C99.0816 41.034 99.1413 41.4242 99.1108 41.8126C99.0803 42.201 98.9603 42.5771 98.7604 42.9114H98.7594Z" fill="#F6F2ED"/>
<path d="M106.078 40.1166C105.566 39.7402 104.978 39.4803 104.355 39.355C103.732 39.2298 103.089 39.2423 102.471 39.3916C100.442 39.7746 99.1425 42.1496 98.9375 42.5486L96.8154 46.1706C96.7002 46.3686 96.6564 46.6002 96.6915 46.8266C97.3095 50.7516 105.091 53.3586 105.975 53.6426C106.072 53.6741 106.174 53.6903 106.275 53.6906C106.406 53.6906 106.535 53.6649 106.656 53.6149C106.776 53.565 106.886 53.4917 106.978 53.3994C107.07 53.3071 107.143 53.1975 107.193 53.0769C107.243 52.9563 107.269 52.8271 107.268 52.6966V42.9386C107.298 42.4086 107.207 41.8788 107.001 41.3897C106.794 40.9005 106.479 40.4651 106.078 40.1166ZM105.285 51.2906C102.625 50.2616 99.3395 48.5076 98.7345 46.8266L100.666 43.5266C100.676 43.5096 100.687 43.4906 100.695 43.4736C100.947 42.9736 101.881 41.5246 102.84 41.3426C103.172 41.2528 103.518 41.233 103.857 41.2847C104.196 41.3363 104.521 41.4582 104.81 41.6426C104.982 41.8081 105.114 42.0105 105.197 42.2345C105.279 42.4585 105.309 42.6982 105.285 42.9356V51.2866V51.2906Z" fill="#F6F2ED"/>
<path d="M177.223 69.6465H175.842V71.6335H177.223C182.723 71.6335 191.961 74.1645 191.961 91.1175V97.7325H193.948V91.1175C193.948 77.4775 187.852 69.6465 177.223 69.6465Z" fill="#F6F2ED"/>
<path d="M159.785 69.6483C156.171 69.5696 152.639 70.7275 149.774 72.9303C145.319 76.4733 143.059 82.5933 143.059 91.1193V97.8983H145.044V91.1193C145.044 83.2293 147.05 77.6323 151.008 74.4853C153.515 72.5506 156.616 71.5436 159.782 71.6353H161.164V69.6483H159.785Z" fill="#F6F2ED"/>
<path d="M174.73 94.0555L170.48 77.0465C170.426 76.8315 170.302 76.6406 170.128 76.5041C169.953 76.3677 169.738 76.2936 169.516 76.2935H167.101L160.777 74.2475V71.6365H169.006V69.6465H159.784C159.521 69.6467 159.268 69.7516 159.082 69.938C158.896 70.1244 158.791 70.377 158.791 70.6405V74.9685C158.791 75.1785 158.858 75.3831 158.981 75.5529C159.105 75.7227 159.279 75.849 159.479 75.9135L166.641 78.2295C166.74 78.2619 166.843 78.2785 166.947 78.2785H168.747L172.701 94.1035L170.589 97.2505L172.238 98.3575L174.591 94.8465C174.668 94.7316 174.72 94.6019 174.744 94.4657C174.768 94.3295 174.763 94.1897 174.73 94.0555Z" fill="#F6F2ED"/>
<path d="M167.745 79.448L165.809 79L162.416 93.683C162.357 93.9389 162.402 94.2078 162.54 94.431L164.977 98.355L166.665 97.307L164.444 93.731L167.745 79.448Z" fill="#F6F2ED"/>
<path d="M174.757 66.7734H172.77V70.6494H174.757V66.7734Z" fill="#F6F2ED"/>
<path d="M163.448 66.6777H161.461V70.6487H163.448V66.6777Z" fill="#F6F2ED"/>
<path d="M178.908 51.3157C176.508 50.4757 172.579 48.4297 172.262 46.5157C172.234 46.3439 172.161 46.1826 172.051 46.0478C171.941 45.9131 171.797 45.8097 171.634 45.748C171.472 45.6863 171.295 45.6685 171.124 45.6964C170.952 45.7242 170.79 45.7967 170.655 45.9067C166.863 48.5786 162.366 50.0707 157.729 50.1957C157.473 50.2065 157.231 50.3159 157.054 50.5009C156.876 50.6859 156.777 50.9323 156.777 51.1887V59.1887C156.781 61.4382 157.676 63.5945 159.267 65.1851C160.858 66.7757 163.014 67.671 165.263 67.6747H171.087C173.337 67.671 175.493 66.7759 177.083 65.1855C178.674 63.595 179.569 61.439 179.573 59.1897V52.2577C179.574 52.051 179.511 51.8492 179.391 51.6804C179.272 51.5116 179.103 51.3841 178.908 51.3157ZM177.587 59.1857C177.586 60.9091 176.9 62.5615 175.682 63.7801C174.463 64.9988 172.811 65.6841 171.087 65.6857H165.263C163.54 65.6838 161.888 64.9984 160.669 63.7798C159.451 62.5612 158.765 60.909 158.763 59.1857V52.1227C163.041 51.8263 167.181 50.4843 170.819 48.2147C172.245 50.6297 175.991 52.3147 177.585 52.9427V59.1867L177.587 59.1857Z" fill="#F6F2ED"/>
<path d="M170.235 51.4805C167.437 52.9218 164.425 53.9034 161.314 54.3875V59.1875C161.316 60.235 161.732 61.2393 162.473 61.9801C163.214 62.7208 164.218 63.1374 165.265 63.1385H171.089C172.137 63.1374 173.141 62.7208 173.882 61.9801C174.623 61.2393 175.039 60.235 175.04 59.1875V54.6275C173.284 53.8368 171.662 52.7748 170.235 51.4805Z" fill="#F6F2ED"/>
<path d="M174.387 39.9204C174.142 39.3078 173.757 38.761 173.262 38.3241C172.768 37.8872 172.178 37.5722 171.54 37.4044C168.254 36.7318 164.85 36.9301 161.665 37.9794C155.51 40.0264 155.565 45.0234 155.612 49.8554C155.612 50.3044 155.621 50.7554 155.621 51.2134C155.621 51.4771 155.726 51.7299 155.912 51.9163C156.098 52.1027 156.351 52.2074 156.615 52.2074C162.094 52.3051 167.459 50.6349 171.915 47.4444C172.005 47.3712 172.081 47.2829 172.141 47.1834L174.083 43.9294C174.439 43.3297 174.652 42.6559 174.704 41.9605C174.757 41.2651 174.648 40.567 174.387 39.9204ZM172.374 42.9104L170.53 46.0004C166.713 48.613 162.224 50.0711 157.601 50.2004C157.601 50.0784 157.601 49.9564 157.601 49.8344C157.552 45.1524 157.515 41.4544 162.295 39.8634C164.123 39.2781 166.031 38.9796 167.951 38.9784C168.99 38.9641 170.026 39.0806 171.036 39.3254C171.377 39.4136 171.692 39.5815 171.955 39.8153C172.218 40.0492 172.422 40.3423 172.55 40.6704C172.695 41.0321 172.755 41.4226 172.724 41.8112C172.693 42.1998 172.573 42.576 172.373 42.9104H172.374Z" fill="#F6F2ED"/>
<path d="M100.757 141.473C101.37 141.874 102.024 142.209 102.708 142.473L103.422 140.619C102.869 140.406 102.34 140.135 101.843 139.811L100.757 141.473ZM105.135 141.073L104.825 143.035C105.363 143.119 105.907 143.162 106.451 143.162H106.961V141.175H106.451C106.01 141.176 105.57 141.143 105.135 141.075V141.073ZM108.735 140.996L109.141 142.942C109.858 142.792 110.558 142.566 111.228 142.269L110.422 140.453C109.879 140.695 109.312 140.878 108.73 140.999L108.735 140.996ZM97.6901 138.379C98.0867 138.994 98.5469 139.567 99.0631 140.086L100.472 138.686C100.054 138.265 99.6815 137.802 99.3601 137.304L97.6901 138.379ZM96.2521 126.004L94.5221 126.983C94.8231 127.514 95.0819 128.068 95.2961 128.64L97.1571 127.94C96.9048 127.272 96.6005 126.626 96.2471 126.006L96.2521 126.004ZM97.7521 130.004L95.8041 130.404C95.9255 131.002 96.0001 131.61 96.0271 132.22L98.0121 132.132C97.9774 131.417 97.8871 130.706 97.7421 130.005L97.7521 130.004ZM98.1201 134.004L96.1551 134.304C96.264 135.028 96.4494 135.739 96.7081 136.425L98.5671 135.725C98.3537 135.17 98.2002 134.594 98.1091 134.006L98.1201 134.004ZM114.32 136.939L116.042 137.93C116.408 137.294 116.705 136.622 116.929 135.924L115.037 135.317C114.854 135.883 114.611 136.427 114.312 136.942L114.32 136.939ZM120.24 122.326L121.531 123.837C121.996 123.44 122.491 123.08 123.011 122.76L121.97 121.068C121.359 121.441 120.778 121.861 120.232 122.324L120.24 122.326ZM111.961 139.566L113.131 141.171C113.723 140.74 114.268 140.248 114.757 139.704L113.279 138.375C112.88 138.818 112.435 139.218 111.952 139.569L111.961 139.566ZM123.877 120.091L124.639 121.927C125.203 121.693 125.785 121.503 126.379 121.36L125.914 119.428C125.216 119.596 124.532 119.818 123.869 120.094L123.877 120.091ZM117.467 125.562L119.158 126.606C119.479 126.086 119.84 125.592 120.237 125.128L118.729 123.835C118.261 124.378 117.836 124.956 117.458 125.566L117.467 125.562ZM115.823 129.5L117.754 129.968C117.898 129.375 118.089 128.795 118.324 128.232L116.49 127.466C116.212 128.126 115.986 128.807 115.815 129.503L115.823 129.5ZM93.6011 122.662L92.2471 124.124C92.6965 124.538 93.1134 124.987 93.4941 125.465L95.0501 124.228C94.6053 123.67 94.1181 123.148 93.5931 122.665L93.6011 122.662ZM115.437 132.739C115.437 133.021 115.423 133.304 115.395 133.579L117.372 133.779C117.406 133.438 117.423 133.089 117.423 132.742C117.423 132.418 117.436 132.097 117.462 131.778L115.482 131.616C115.445 131.988 115.429 132.367 115.429 132.743L115.437 132.739ZM60.4741 141.174C59.9549 141.174 59.4367 141.127 58.9261 141.033L58.5631 142.986C59.1934 143.103 59.8331 143.161 60.4741 143.161H60.7451L60.6981 141.174H60.4741ZM62.4541 140.941L62.9201 142.873C63.6323 142.701 64.3244 142.455 64.9851 142.138L64.1251 140.346C63.588 140.604 63.0253 140.805 62.4461 140.945L62.4541 140.941ZM67.9141 136.719L69.6651 137.658C70.0117 137.012 70.2886 136.331 70.4911 135.627L68.5821 135.077C68.4164 135.648 68.1901 136.2 67.9071 136.724L67.9141 136.719ZM128.025 119.091L128.184 121.071C128.495 121.046 128.81 121.033 129.128 121.034H130.09V119.047H129.128C128.751 119.051 128.379 119.066 128.018 119.095L128.025 119.091ZM65.6261 139.416L66.8421 140.988C67.4213 140.54 67.9519 140.032 68.4251 139.473L66.9081 138.19C66.5245 138.642 66.0949 139.053 65.6261 139.416ZM52.0931 133.773L50.1211 134.015C50.2098 134.742 50.3751 135.458 50.6141 136.15L52.4921 135.501C52.2987 134.941 52.165 134.361 52.0931 133.773ZM54.5301 141.31C55.1323 141.728 55.7769 142.081 56.4531 142.364L57.2181 140.529C56.671 140.301 56.1497 140.015 55.6631 139.677L54.5301 141.31ZM51.5471 138.135C51.9264 138.761 52.3705 139.346 52.8721 139.88L54.3201 138.519C53.9142 138.087 53.5545 137.613 53.2471 137.106L51.5471 138.135ZM85.7011 121.117C86.3074 121.189 86.9072 121.308 87.4951 121.473L88.0331 119.56C87.3449 119.367 86.6428 119.229 85.9331 119.145L85.7011 121.117ZM81.7911 119.074L81.9061 121.057C82.1328 121.044 82.3614 121.038 82.5921 121.038H83.8351V119.051H82.5921C82.3241 119.051 82.0578 119.059 81.7931 119.074H81.7911ZM89.2111 122.104C89.7668 122.359 90.3017 122.657 90.8111 122.996L91.9111 121.343C91.317 120.947 90.6927 120.598 90.0441 120.3L89.2111 122.104ZM77.6211 119.98L78.3411 121.833C78.9108 121.612 79.4969 121.435 80.0941 121.305L79.6721 119.363C78.9741 119.515 78.289 119.722 77.6231 119.981L77.6211 119.98ZM71.0901 125.311L72.7581 126.391C73.0903 125.878 73.4617 125.392 73.8691 124.937L72.3891 123.611C71.9132 124.143 71.4796 124.712 71.0921 125.312L71.0901 125.311ZM73.9341 122.134L75.1921 123.672C75.6641 123.285 76.1657 122.936 76.6921 122.628L75.6921 120.913C75.076 121.274 74.4892 121.682 73.9371 122.135L73.9341 122.134ZM69.3591 129.211L71.2791 129.722C71.4363 129.132 71.6396 128.556 71.8871 127.998L70.0711 127.192C69.7825 127.846 69.5454 128.521 69.3621 129.212L69.3591 129.211ZM68.9001 132.742C68.9001 132.942 68.8931 133.14 68.8791 133.335L70.8621 133.469C70.8788 133.228 70.8871 132.986 70.8871 132.741C70.887 132.333 70.9081 131.926 70.9501 131.52L68.9731 131.32C68.9249 131.793 68.9008 132.268 68.9011 132.743L68.9001 132.742ZM170.117 120.214L170.917 122.032C171.475 121.785 172.052 121.583 172.642 121.427L172.135 119.506C171.445 119.688 170.77 119.925 170.117 120.214ZM191.101 133.506L189.122 133.683C189.188 134.413 189.33 135.134 189.547 135.834L191.447 135.245C191.271 134.679 191.155 134.096 191.101 133.506ZM186.19 122.265L184.909 123.784C185.375 124.178 185.809 124.608 186.209 125.069L187.709 123.769C187.243 123.229 186.736 122.727 186.193 122.265H186.19ZM190.659 129.412L188.732 129.896C188.879 130.487 188.98 131.089 189.032 131.696L191.011 131.521C190.95 130.81 190.834 130.105 190.662 129.412H190.659ZM181.79 121.9C182.355 122.13 182.901 122.404 183.423 122.72L184.452 121.02C183.841 120.65 183.202 120.329 182.54 120.059L181.79 121.9ZM174.244 119.124L174.444 121.101C174.843 121.061 175.243 121.04 175.644 121.04H176.325V119.053H175.644C175.177 119.053 174.709 119.077 174.244 119.124ZM178.244 121.071C178.853 121.115 179.458 121.207 180.052 121.346L180.504 119.411C179.808 119.249 179.101 119.141 178.388 119.089L178.244 121.071ZM188.992 125.486L187.308 126.54C187.632 127.057 187.915 127.599 188.155 128.161L189.983 127.383C189.702 126.725 189.37 126.091 188.99 125.485L188.992 125.486ZM204.705 140.076L205.69 141.802C206.326 141.439 206.923 141.01 207.469 140.523L206.146 139.04C205.702 139.435 205.218 139.782 204.701 140.075L204.705 140.076ZM207.34 137.725L208.94 138.899C209.372 138.308 209.741 137.674 210.04 137.006L208.228 136.192C207.986 136.732 207.688 137.246 207.338 137.724L207.34 137.725ZM208.968 132.743C208.968 133.336 208.907 133.928 208.784 134.509L210.727 134.921C210.879 134.205 210.955 133.475 210.955 132.743H208.968ZM197.268 142.924C197.983 143.08 198.713 143.16 199.445 143.165L199.457 141.178C198.863 141.173 198.272 141.106 197.692 140.978L197.268 142.924ZM193.3 141.116C193.888 141.553 194.521 141.926 195.188 142.23L196.011 140.421C195.472 140.175 194.96 139.874 194.484 139.521L193.3 141.116ZM190.416 137.849C190.776 138.486 191.201 139.084 191.685 139.633L193.175 138.32C192.783 137.874 192.438 137.389 192.146 136.872L190.416 137.849ZM201.34 141.139L201.53 143.117C202.259 143.047 202.979 142.9 203.677 142.68L203.077 140.78C202.513 140.96 201.931 141.081 201.341 141.14L201.34 141.139ZM139.894 122.462L138.581 123.954C139.04 124.358 139.466 124.796 139.857 125.266L141.385 123.996C140.929 123.447 140.431 122.935 139.895 122.463L139.894 122.462ZM147.025 141.297C147.626 141.717 148.27 142.072 148.946 142.355L149.714 140.523C149.168 140.293 148.648 140.006 148.162 139.668L147.025 141.297ZM144.201 129.709L142.263 130.147C142.398 130.742 142.486 131.348 142.526 131.957L144.509 131.825C144.461 131.113 144.358 130.405 144.201 129.709ZM144.043 138.119C144.421 138.745 144.864 139.331 145.364 139.865L146.816 138.508C146.411 138.074 146.051 137.6 145.744 137.092L144.043 138.119ZM144.601 133.758L142.628 133.993C142.715 134.72 142.879 135.437 143.117 136.13L144.997 135.484C144.804 134.924 144.672 134.346 144.601 133.758ZM135.501 122C136.061 122.243 136.601 122.53 137.117 122.857L138.182 121.179C137.579 120.797 136.948 120.463 136.293 120.179L135.501 122ZM131.97 121.091C132.577 121.149 133.179 121.254 133.77 121.406L134.27 119.481C133.578 119.303 132.873 119.18 132.162 119.112L131.97 121.091ZM166.531 122.524L167.854 124.007C168.31 123.6 168.797 123.229 169.311 122.897L168.232 121.228C167.633 121.615 167.064 122.049 166.531 122.524ZM142.622 125.739L140.916 126.757C141.228 127.281 141.499 127.829 141.725 128.396L143.571 127.66C143.305 126.997 142.987 126.356 142.621 125.743L142.622 125.739ZM162.275 129.796L164.216 130.222C164.347 129.626 164.525 129.041 164.747 128.473L162.897 127.748C162.636 128.414 162.427 129.1 162.274 129.799L162.275 129.796ZM163.83 125.825L165.544 126.825C165.853 126.299 166.203 125.797 166.589 125.325L165.052 124.066C164.599 124.619 164.19 125.207 163.829 125.824L163.83 125.825ZM161.958 132.739C161.958 133.104 161.935 133.468 161.888 133.83L163.858 134.085C163.916 133.638 163.945 133.188 163.945 132.738C163.945 132.501 163.952 132.265 163.966 132.032L161.983 131.916C161.966 132.188 161.957 132.464 161.957 132.743L161.958 132.739ZM158.275 139.709L159.395 141.351C160 140.938 160.559 140.462 161.065 139.933L159.628 138.562C159.218 138.991 158.764 139.377 158.274 139.712L158.275 139.709ZM155.011 141.044L155.359 143C156.081 142.871 156.787 142.667 157.465 142.39L156.713 140.551C156.165 140.776 155.594 140.942 155.01 141.047L155.011 141.044ZM160.711 137.154L162.402 138.197C162.787 137.573 163.104 136.91 163.349 136.219L161.476 135.555C161.278 136.114 161.021 136.651 160.71 137.157L160.711 137.154ZM151.411 141.029L151.045 142.982C151.682 143.1 152.328 143.16 152.976 143.16H153.204V141.173H152.976C152.452 141.175 151.929 141.128 151.413 141.033L151.411 141.029Z" fill="url(#paint1_linear_526_7455)"/>
<path d="M179.69 40.1189C179.179 39.7422 178.591 39.4822 177.968 39.3569C177.345 39.2317 176.702 39.2443 176.084 39.3939C174.055 39.7769 172.755 42.1509 172.549 42.5509L170.427 46.1729C170.311 46.3705 170.267 46.6025 170.303 46.8289C170.921 50.7539 178.703 53.3609 179.587 53.6449C179.684 53.6764 179.785 53.6926 179.887 53.6929C180.018 53.6929 180.147 53.6672 180.268 53.6172C180.388 53.5672 180.498 53.494 180.59 53.4017C180.682 53.3094 180.755 53.1998 180.805 53.0792C180.855 52.9586 180.88 52.8294 180.88 52.6989V42.9419C180.911 42.4117 180.819 41.8817 180.613 41.3923C180.407 40.903 180.091 40.4674 179.69 40.1189ZM178.897 51.2929C176.237 50.2649 172.95 48.5099 172.345 46.8289L174.277 43.5289C174.287 43.5119 174.298 43.4929 174.307 43.4759C174.559 42.9759 175.493 41.5269 176.452 41.3449C176.784 41.2551 177.13 41.2354 177.469 41.287C177.808 41.3387 178.133 41.4606 178.422 41.6449C178.594 41.8105 178.727 42.013 178.809 42.2372C178.891 42.4614 178.921 42.7013 178.897 42.9389V51.2889V51.2929Z" fill="#F6F2ED"/>
<path d="M210.663 97.0012C210.573 96.9067 210.464 96.8321 210.343 96.7821C210.223 96.7322 210.093 96.708 209.963 96.7112L51.0408 97.2402C50.7778 97.2413 50.526 97.3465 50.3405 97.5327C50.155 97.719 50.0508 97.9713 50.0508 98.2342V151.39C50.0507 151.521 50.0763 151.65 50.1262 151.771C50.1761 151.891 50.2493 152.001 50.3416 152.093C50.434 152.186 50.5436 152.259 50.6642 152.309C50.7849 152.359 50.9142 152.384 51.0448 152.384L209.967 151.855C210.23 151.854 210.482 151.749 210.667 151.563C210.853 151.376 210.957 151.124 210.957 150.861V97.7052C210.957 97.5743 210.93 97.4447 210.88 97.3239C210.83 97.2031 210.756 97.0934 210.663 97.0012ZM208.968 149.871L52.0328 150.394V99.2252L208.968 98.7022V149.871Z" fill="#F6F2ED"/>
<path d="M81.7857 155.039V159.518H63.5417V155.106H61.5547V160.512C61.5546 160.643 61.5802 160.772 61.6301 160.893C61.68 161.013 61.7532 161.123 61.8455 161.215C61.9379 161.308 62.0475 161.381 62.1681 161.431C62.2888 161.481 62.4181 161.506 62.5487 161.506H82.7797C82.9103 161.506 83.0396 161.481 83.1602 161.431C83.2809 161.381 83.3905 161.308 83.4828 161.215C83.5752 161.123 83.6484 161.013 83.6983 160.893C83.7482 160.772 83.7738 160.643 83.7737 160.512V155.039H81.7857Z" fill="#F6F2ED"/>
<path d="M195.753 154.66V159.142H177.508V154.73H175.521V160.136C175.521 160.4 175.626 160.653 175.813 160.839C175.999 161.025 176.252 161.13 176.515 161.13H196.745C197.009 161.13 197.262 161.025 197.448 160.839C197.635 160.653 197.74 160.4 197.74 160.136V154.663H195.753V154.66Z" fill="#F6F2ED"/>
<path d="M54.582 101.775V132.742C54.582 133.516 54.7343 134.281 55.0302 134.995C55.3261 135.71 55.7597 136.359 56.3064 136.905C56.8531 137.452 57.5022 137.886 58.2165 138.182C58.9308 138.478 59.6964 138.63 60.4695 138.63C61.2427 138.63 62.0083 138.478 62.7226 138.182C63.4369 137.886 64.0859 137.452 64.6326 136.905C65.1793 136.359 65.613 135.71 65.9089 134.995C66.2047 134.281 66.357 133.516 66.357 132.742C66.3621 128.437 68.0747 124.309 71.1192 121.265C74.1638 118.221 78.2915 116.508 82.597 116.503H84.327C88.6327 116.508 92.7606 118.221 95.8052 121.265C98.8497 124.31 100.562 128.438 100.567 132.743C100.569 134.304 101.189 135.801 102.293 136.905C103.397 138.009 104.893 138.63 106.454 138.631H106.997C108.558 138.63 110.055 138.009 111.159 136.905C112.263 135.801 112.883 134.305 112.885 132.743C112.89 128.438 114.602 124.31 117.647 121.265C120.691 118.221 124.819 116.508 129.125 116.503H130.855C135.161 116.508 139.289 118.221 142.333 121.265C145.378 124.31 147.09 128.438 147.095 132.743C147.097 134.304 147.717 135.801 148.821 136.905C149.925 138.009 151.421 138.63 152.982 138.631H153.526C155.087 138.63 156.583 138.009 157.687 136.905C158.791 135.801 159.411 134.304 159.413 132.743C159.418 128.438 161.13 124.31 164.175 121.265C167.219 118.221 171.347 116.508 175.653 116.503H177.383C181.689 116.508 185.817 118.221 188.861 121.265C191.906 124.31 193.618 128.438 193.623 132.743C193.625 134.304 194.245 135.801 195.349 136.905C196.453 138.009 197.949 138.63 199.51 138.631H200.536C202.097 138.63 203.593 138.009 204.697 136.905C205.801 135.801 206.421 134.304 206.423 132.743V101.775H54.582Z" fill="url(#paint2_linear_526_7455)"/>
<defs>
<linearGradient id="paint0_linear_526_7455" x1="254.085" y1="94.274" x2="272.755" y2="102.651" gradientUnits="userSpaceOnUse">
<stop stop-color="#A58969"/>
<stop offset="1" stop-color="#C7B664"/>
</linearGradient>
<linearGradient id="paint1_linear_526_7455" x1="47.6656" y1="120.186" x2="78.3808" y2="212.087" gradientUnits="userSpaceOnUse">
<stop stop-color="#A58969"/>
<stop offset="1" stop-color="#C7B664"/>
</linearGradient>
<linearGradient id="paint2_linear_526_7455" x1="52.2638" y1="103.516" x2="117.604" y2="224.295" gradientUnits="userSpaceOnUse">
<stop stop-color="#A58969"/>
<stop offset="1" stop-color="#C7B664"/>
</linearGradient>
</defs>
</svg>
