<svg width="279" height="215" viewBox="0 0 279 215" fill="none" xmlns="http://www.w3.org/2000/svg">
<path d="M132.119 201.554C187.777 201.554 232.896 156.435 232.896 100.777C232.896 45.1194 187.777 0 132.119 0C76.4614 0 31.342 45.1194 31.342 100.777C31.342 156.435 76.4614 201.554 132.119 201.554Z" fill="#C3B075" fill-opacity="0.03"/>
<path opacity="0.2" d="M260.165 105.517C261.332 105.517 262.472 105.171 263.443 104.522C264.413 103.874 265.169 102.953 265.616 101.875C266.062 100.797 266.179 99.6103 265.951 98.4658C265.724 97.3213 265.162 96.27 264.337 95.4449C263.511 94.6197 262.46 94.0578 261.316 93.8302C260.171 93.6025 258.985 93.7194 257.907 94.1659C256.829 94.6125 255.907 95.3687 255.259 96.3389C254.611 97.3092 254.265 98.4499 254.265 99.6168C254.265 101.182 254.886 102.682 255.993 103.789C257.099 104.895 258.6 105.517 260.165 105.517Z" fill="url(#paint0_linear_526_6792)"/>
<path d="M55.0378 201.555H53.2158V205.091H55.0378V201.555Z" fill="#F6F2ED"/>
<path d="M55.0378 211.297H53.2158V214.833H55.0378V211.297Z" fill="#F6F2ED"/>
<path d="M60.7674 207.283H57.2314V209.105H60.7674V207.283Z" fill="#F6F2ED"/>
<path d="M51.0243 207.283H47.4883V209.105H51.0243V207.283Z" fill="#F6F2ED"/>
<path d="M3.612 50.3666C5.60685 50.3666 7.224 48.7494 7.224 46.7546C7.224 44.7597 5.60685 43.1426 3.612 43.1426C1.61715 43.1426 0 44.7597 0 46.7546C0 48.7494 1.61715 50.3666 3.612 50.3666Z" fill="#F6F2ED"/>
<path d="M16.4548 103.625C18.0371 103.625 19.3198 102.342 19.3198 100.76C19.3198 99.1772 18.0371 97.8945 16.4548 97.8945C14.8725 97.8945 13.5898 99.1772 13.5898 100.76C13.5898 102.342 14.8725 103.625 16.4548 103.625Z" fill="#F6F2ED"/>
<path d="M274.827 114.472C276.595 114.472 278.028 113.039 278.028 111.271C278.028 109.503 276.595 108.07 274.827 108.07C273.059 108.07 271.626 109.503 271.626 111.271C271.626 113.039 273.059 114.472 274.827 114.472Z" fill="#F6F2ED"/>
<path d="M225.455 22.482C227.037 22.482 228.32 21.1992 228.32 19.617C228.32 18.0347 227.037 16.752 225.455 16.752C223.873 16.752 222.59 18.0347 222.59 19.617C222.59 21.1992 223.873 22.482 225.455 22.482Z" fill="#F6F2ED"/>
<path d="M120.878 137.844H86.1314C85.9591 137.844 85.7885 137.878 85.6293 137.944C85.4701 138.01 85.3255 138.106 85.2036 138.228C85.0818 138.35 84.9852 138.494 84.9192 138.654C84.8533 138.813 84.8194 138.983 84.8194 139.156C84.8111 144.231 86.7224 149.122 90.1697 152.847C93.6171 156.572 98.3455 158.856 103.406 159.24C103.438 159.24 103.472 159.24 103.506 159.24C103.54 159.24 103.573 159.24 103.606 159.24C108.667 158.855 113.395 156.572 116.842 152.847C120.289 149.122 122.201 144.231 122.192 139.156C122.192 138.983 122.158 138.813 122.092 138.653C122.026 138.494 121.929 138.349 121.807 138.227C121.685 138.105 121.54 138.009 121.381 137.943C121.222 137.877 121.051 137.843 120.878 137.844ZM114.444 151.554C111.509 154.478 107.634 156.27 103.505 156.616C99.3488 156.277 95.4503 154.463 92.5137 151.502C89.5771 148.54 87.7958 144.627 87.4914 140.468H119.518C119.212 144.652 117.411 148.587 114.444 151.554Z" fill="#F6F2ED"/>
<path d="M91.458 143.733C92.1581 145.804 93.3248 147.686 94.868 149.233C95.8181 150.178 96.8951 150.986 98.068 151.633C99.7292 152.555 101.598 153.039 103.497 153.04C105.397 153.041 107.266 152.559 108.928 151.638C112.05 149.928 114.413 147.105 115.547 143.73L91.458 143.733Z" fill="#F6F2ED"/>
<path d="M221.776 42.893C219.905 41.0208 217.682 39.5367 215.236 38.5257C212.79 37.5148 210.168 36.997 207.521 37.002H138.256C137.914 36.9988 137.585 37.1289 137.338 37.3645C137.091 37.6001 136.946 37.9228 136.933 38.2639C136.92 38.6051 137.04 38.9379 137.268 39.1916C137.497 39.4454 137.815 39.6002 138.156 39.623C142.558 39.9844 146.663 41.9875 149.656 45.2349C152.65 48.4822 154.313 52.7364 154.316 57.153C154.316 57.501 154.454 57.8347 154.7 58.0807C154.946 58.3268 155.28 58.465 155.628 58.465H226.358C226.706 58.465 227.039 58.3268 227.285 58.0807C227.532 57.8347 227.67 57.501 227.67 57.153C227.675 54.505 227.157 51.8821 226.146 49.4349C225.134 46.9877 223.649 44.7645 221.776 42.893ZM156.899 55.841C156.589 50.9561 154.507 46.3521 151.044 42.893C149.768 41.6243 148.333 40.5265 146.775 39.627H207.521C211.944 39.6204 216.206 41.2889 219.448 44.2971C222.691 47.3052 224.675 51.4297 225 55.841H156.9H156.899Z" fill="#F6F2ED"/>
<path d="M191.608 55.8058H156.898C156.57 50.9718 154.518 46.4159 151.116 42.9661C147.714 39.5163 143.187 37.4014 138.358 37.0058C138.291 37.0007 138.225 37.0007 138.158 37.0058C133.101 37.4172 128.384 39.7132 124.94 43.4387C121.496 47.1642 119.577 52.0474 119.564 57.1208V139.162C119.569 141.504 119.102 143.823 118.19 145.981C116.942 148.942 114.901 151.503 112.293 153.381C109.685 155.258 106.61 156.381 103.405 156.626C103.067 156.652 102.753 156.808 102.527 157.062C102.302 157.315 102.183 157.645 102.196 157.984C102.209 158.322 102.353 158.643 102.597 158.878C102.841 159.113 103.166 159.245 103.505 159.246L172.776 159.307C174.532 159.31 176.28 159.08 177.976 158.623C178.296 158.536 178.572 158.331 178.747 158.049C178.922 157.767 178.984 157.429 178.92 157.104C178.01 152.404 178.837 147.533 181.247 143.397C183.657 139.26 187.486 136.139 192.024 134.613C192.286 134.526 192.513 134.36 192.675 134.136C192.836 133.913 192.924 133.644 192.924 133.369V57.1188C192.924 56.9461 192.89 56.7751 192.824 56.6156C192.758 56.4561 192.661 56.3113 192.538 56.1893C192.416 56.0673 192.271 55.9707 192.111 55.9049C191.952 55.8391 191.781 55.8054 191.608 55.8058ZM190.296 132.445C185.588 134.254 181.629 137.599 179.059 141.939C176.489 146.278 175.459 151.358 176.135 156.356C175.028 156.572 173.903 156.681 172.776 156.68L112.076 156.626C115.899 154.441 118.896 151.058 120.605 147C121.654 144.519 122.192 141.852 122.187 139.158V57.1208C122.2 52.7255 123.856 48.494 126.83 45.2572C129.803 42.0205 133.88 40.0126 138.258 39.6278C142.634 40.0154 146.708 42.0246 149.679 45.261C152.65 48.4974 154.304 52.7274 154.317 57.1208C154.317 57.4684 154.456 57.8016 154.702 58.0472C154.948 58.2928 155.281 58.4308 155.629 58.4308H190.295L190.296 132.445Z" fill="#F6F2ED"/>
<path d="M151.054 61.7021L151.047 57.1301C151.049 53.3597 149.555 49.7427 146.892 47.0731C144.574 44.739 141.525 43.2704 138.255 42.9121C134.748 43.2932 131.505 44.953 129.145 47.5743C126.784 50.1957 125.473 53.5947 125.46 57.1221V76.7771H187.028V61.7071H151.054V61.7021Z" fill="#F6F2ED"/>
<path d="M197.943 165.832C204.845 165.832 210.44 160.237 210.44 153.335C210.44 146.433 204.845 140.838 197.943 140.838C191.041 140.838 185.446 146.433 185.446 153.335C185.446 160.237 191.041 165.832 197.943 165.832Z" fill="url(#paint1_linear_526_6792)"/>
<path d="M202.484 148L195.393 155.487L192.634 152.449L191 153.933L194.559 157.852C194.661 157.964 194.785 158.055 194.924 158.117C195.062 158.179 195.212 158.212 195.364 158.214H195.376C195.526 158.214 195.674 158.183 195.812 158.124C195.949 158.065 196.073 157.978 196.176 157.869L204.085 149.518L202.484 148Z" fill="#F6F2ED"/>
<path d="M198.303 130.967C193.88 130.967 189.555 132.279 185.877 134.736C182.199 137.194 179.332 140.687 177.638 144.774C175.945 148.861 175.502 153.358 176.365 157.697C177.227 162.036 179.357 166.021 182.485 169.15C185.613 172.278 189.598 174.409 193.936 175.272C198.275 176.136 202.772 175.694 206.86 174.002C210.947 172.309 214.441 169.443 216.899 165.765C219.358 162.088 220.67 157.764 220.671 153.34C220.666 147.409 218.308 141.722 214.114 137.528C209.921 133.333 204.234 130.974 198.303 130.967ZM198.303 173.08C194.398 173.08 190.581 171.922 187.334 169.752C184.087 167.582 181.556 164.499 180.062 160.891C178.568 157.283 178.177 153.313 178.939 149.482C179.701 145.652 181.582 142.134 184.344 139.373C187.105 136.612 190.624 134.732 194.454 133.971C198.284 133.209 202.254 133.601 205.862 135.096C209.469 136.591 212.553 139.122 214.722 142.37C216.891 145.617 218.048 149.435 218.047 153.34C218.04 158.574 215.958 163.591 212.256 167.292C208.555 170.992 203.537 173.074 198.303 173.08Z" fill="url(#paint2_linear_526_6792)"/>
<path d="M182.843 153.334C182.843 152.598 182.894 151.863 182.998 151.134L180.398 150.764C180.278 151.615 180.218 152.474 180.219 153.334V153.577L182.843 153.547V153.334ZM187.188 142.588L185.302 140.764C184.646 141.442 184.044 142.17 183.502 142.941L185.648 144.451C186.112 143.791 186.628 143.168 187.189 142.588H187.188ZM184.417 146.529L182.061 145.373C181.645 146.22 181.297 147.099 181.018 148.001L183.526 148.774C183.764 148.005 184.062 147.256 184.418 146.534L184.417 146.529ZM185.644 166.25C186.318 166.909 187.041 167.516 187.809 168.064L189.333 165.928C188.676 165.459 188.056 164.94 187.48 164.375L185.644 166.25ZM183.062 155.95L180.476 156.391C180.635 157.321 180.867 158.238 181.169 159.132L183.655 158.291C183.396 157.528 183.199 156.745 183.063 155.951L183.062 155.95ZM184.606 160.51L182.282 161.731C182.719 162.565 183.221 163.364 183.782 164.121L185.882 162.554C185.405 161.907 184.98 161.224 184.609 160.511L184.606 160.51ZM191.033 139.684L189.798 137.369C188.966 137.813 188.17 138.322 187.417 138.891L188.999 140.985C189.642 140.499 190.322 140.065 191.033 139.685V139.684ZM213.509 150.51L216.09 150.036C215.919 149.107 215.675 148.194 215.36 147.304L212.886 148.178C213.154 148.938 213.363 149.717 213.509 150.51ZM211.909 145.974L214.215 144.722C213.764 143.894 213.25 143.102 212.678 142.353L210.594 143.947C211.081 144.587 211.519 145.265 211.902 145.973L211.909 145.974ZM210.792 140.25C210.11 139.599 209.378 139.001 208.603 138.464L207.108 140.621C207.771 141.081 208.397 141.592 208.981 142.149L210.792 140.25ZM216.387 152.842L213.765 152.916C213.765 153.055 213.77 153.195 213.77 153.334C213.77 154.141 213.707 154.947 213.583 155.744L216.176 156.15C216.321 155.218 216.394 154.277 216.394 153.334C216.387 153.169 216.385 153.005 216.38 152.841L216.387 152.842ZM209.271 164.234L211.132 166.083C211.797 165.414 212.409 164.695 212.962 163.931L210.837 162.392C210.363 163.045 209.839 163.661 209.271 164.234ZM205.387 167.083L206.587 169.415C207.424 168.982 208.227 168.484 208.987 167.926L207.434 165.811C206.785 166.286 206.101 166.71 205.387 167.079V167.083ZM212.096 160.33L214.435 161.518C214.863 160.676 215.224 159.801 215.515 158.903L213.015 158.096C212.767 158.862 212.46 159.608 212.097 160.326L212.096 160.33ZM203.517 136.017L202.762 138.53C203.533 138.762 204.286 139.055 205.012 139.405L206.153 137.042C205.303 136.63 204.422 136.286 203.518 136.013L203.517 136.017ZM192.388 136.243L193.245 138.723C194.007 138.46 194.788 138.257 195.582 138.116L195.124 135.532C194.195 135.695 193.28 135.932 192.389 136.24L192.388 136.243ZM200.816 168.594L201.238 171.184C202.17 171.032 203.088 170.806 203.985 170.51L203.16 168.019C202.395 168.271 201.612 168.462 200.817 168.591L200.816 168.594ZM190.231 169.525C191.076 169.947 191.952 170.301 192.853 170.586L193.642 168.086C192.873 167.843 192.125 167.54 191.404 167.18L190.231 169.525ZM198.302 168.797C197.53 168.797 196.759 168.74 195.995 168.626L195.607 171.226C196.499 171.359 197.399 171.426 198.301 171.426H198.429L198.4 168.802L198.302 168.797ZM197.936 135.257L197.986 137.88H198.302C199.004 137.88 199.706 137.927 200.402 138.021L200.754 135.421C199.941 135.311 199.122 135.256 198.302 135.256L197.936 135.257Z" fill="url(#paint3_linear_526_6792)"/>
<path d="M177.246 70.0684H137.118V72.6924H177.246V70.0684Z" fill="#F6F2ED"/>
<path d="M177.246 81.334H137.118V83.958H177.246V81.334Z" fill="#F6F2ED"/>
<path d="M177.246 92.6035H137.118V95.2275H177.246V92.6035Z" fill="#F6F2ED"/>
<path d="M177.246 103.869H137.118V106.493H177.246V103.869Z" fill="#F6F2ED"/>
<path d="M177.246 115.137H137.118V117.761H177.246V115.137Z" fill="#F6F2ED"/>
<path d="M160.637 126.404H137.118V129.028H160.637V126.404Z" fill="#F6F2ED"/>
<path d="M74.9993 89.3388L64.2103 84.3008C57.6103 87.6768 56.0312 96.2008 56.0312 103.617V109.351H70.8812L70.4313 108.651L74.9993 89.3388Z" fill="url(#paint4_linear_526_6792)"/>
<path d="M92.4273 82.8125H87.1113V84.8225L93.3503 109.087L93.1713 109.351H107.402V103.617C107.401 94.1315 104.808 82.8125 92.4273 82.8125Z" fill="url(#paint5_linear_526_6792)"/>
<path d="M89.5003 108.647L84.2793 86.3144C84.2096 86.0169 84.0414 85.7519 83.8019 85.5621C83.5624 85.3724 83.2659 85.2692 82.9603 85.2694H80.0163L72.3603 82.7924V79.8154H82.3353V77.1074H71.0063C70.6472 77.1074 70.3028 77.2501 70.0489 77.504C69.795 77.7579 69.6523 78.1023 69.6523 78.4614V83.7774C69.6524 84.0634 69.7432 84.3421 69.9115 84.5733C70.0799 84.8045 70.3172 84.9764 70.5893 85.0644L79.3893 87.9094C79.524 87.9532 79.6647 87.9755 79.8063 87.9754H81.8913L86.7293 108.692L84.1613 112.518L86.4093 114.027L89.3093 109.711C89.4127 109.557 89.483 109.382 89.5159 109.199C89.5488 109.016 89.5435 108.828 89.5003 108.647Z" fill="url(#paint6_linear_526_6792)"/>
<path d="M80.9206 89.2808L78.2726 88.7148L74.1056 108.194C74.0317 108.537 74.0937 108.895 74.2786 109.194L77.2716 114.013L79.5716 112.585L76.8716 108.229L80.9206 89.2808Z" fill="url(#paint7_linear_526_6792)"/>
<path d="M89.5312 73.7051H86.8232V78.4681H89.5312V73.7051Z" fill="url(#paint8_linear_526_6792)"/>
<path d="M75.6426 73.5879H72.9346V78.4669H75.6426V73.5879Z" fill="url(#paint9_linear_526_6792)"/>
<path d="M94.5447 54.5927C91.6227 53.5677 86.8447 51.0927 86.4697 48.7927C86.4306 48.559 86.331 48.3396 86.1808 48.1563C86.0305 47.9731 85.8348 47.8324 85.6133 47.7484C85.3917 47.6643 85.152 47.6397 84.918 47.6772C84.6841 47.7146 84.464 47.8127 84.2797 47.9617C79.6388 51.2159 74.1455 53.0378 68.4797 53.2017C68.1303 53.2159 67.7999 53.3646 67.5576 53.6168C67.3153 53.8689 67.1799 54.205 67.1797 54.5547V64.3807C67.1818 67.1806 68.2949 69.8653 70.2746 71.8454C72.2542 73.8254 74.9387 74.939 77.7387 74.9417H84.8927C87.6913 74.9385 90.3745 73.8253 92.3534 71.8464C94.3323 69.8675 95.4455 67.1843 95.4487 64.3857V55.8687C95.4486 55.5886 95.3616 55.3154 95.1997 55.0869C95.0378 54.8583 94.8089 54.6856 94.5447 54.5927ZM92.7447 64.3857C92.7423 66.4666 91.9146 68.4617 90.4431 69.9331C88.9717 71.4046 86.9766 72.2323 84.8957 72.2347H77.7397C75.6586 72.2323 73.6634 71.4045 72.1919 69.9328C70.7204 68.4611 69.8928 66.4658 69.8907 64.3847V55.8327C75.0783 55.4526 80.0978 53.8274 84.5237 51.0947C86.3237 53.9947 90.7557 56.0157 92.7427 56.8077V64.3867L92.7447 64.3857Z" fill="url(#paint10_linear_526_6792)"/>
<path d="M83.8418 54.9199C80.4043 56.6902 76.7043 57.8959 72.8838 58.4909V64.3839C72.8851 65.6706 73.3968 66.9042 74.3067 67.8141C75.2165 68.7239 76.4501 69.2356 77.7368 69.2369H84.8908C86.1775 69.2356 87.4111 68.7239 88.3209 67.8141C89.2307 66.9042 89.7425 65.6706 89.7438 64.3839V58.7839C87.5862 57.8131 85.5946 56.5092 83.8418 54.9199Z" fill="url(#paint11_linear_526_6792)"/>
<path d="M89.0667 40.6703C88.7579 39.8987 88.2726 39.2103 87.6497 38.6601C87.0267 38.11 86.2836 37.7134 85.4797 37.5023C81.419 36.6691 77.2109 36.9132 73.2737 38.2103C65.6217 40.7553 65.6847 46.9423 65.7467 52.9253C65.7527 53.4763 65.7577 54.0333 65.7577 54.5923C65.758 54.9513 65.9007 55.2956 66.1546 55.5495C66.4085 55.8033 66.7527 55.9461 67.1117 55.9463C78.6397 55.9463 85.6947 50.3053 85.9887 50.0653C86.1112 49.9654 86.2154 49.8449 86.2967 49.7093L88.6817 45.7093C89.129 44.9555 89.3964 44.1088 89.4632 43.2348C89.53 42.3609 89.3943 41.4833 89.0667 40.6703ZM86.3567 44.3243L84.1067 48.1003C79.4883 51.2669 74.0579 53.0408 68.4607 53.2113C68.4607 53.1113 68.4607 53.0023 68.4607 52.8983C68.3957 46.5763 68.6357 42.6103 74.1357 40.7803C76.3796 40.0687 78.7197 39.7071 81.0737 39.7083C82.3264 39.6895 83.5764 39.8276 84.7947 40.1193C85.1935 40.2226 85.562 40.4192 85.87 40.6929C86.1779 40.9665 86.4163 41.3094 86.5657 41.6933C86.736 42.1185 86.8056 42.5773 86.7692 43.0339C86.7328 43.4905 86.5913 43.9325 86.3557 44.3253L86.3567 44.3243Z" fill="url(#paint12_linear_526_6792)"/>
<path d="M95.5436 40.8586C94.8994 40.3841 94.1593 40.0561 93.3751 39.8977C92.5908 39.7393 91.7814 39.7543 91.0036 39.9416C88.4576 40.4216 86.8326 43.3766 86.5706 43.8856L83.9706 48.3306C83.811 48.6017 83.7512 48.9201 83.8016 49.2306C84.5736 54.1306 94.2016 57.3566 95.2956 57.7086C95.4293 57.7519 95.569 57.7738 95.7096 57.7736C96.0687 57.7736 96.4131 57.6309 96.667 57.377C96.921 57.1231 97.0636 56.7787 97.0636 56.4196V44.4336C97.1001 43.7612 96.982 43.0894 96.7186 42.4697C96.4551 41.85 96.0531 41.2989 95.5436 40.8586ZM94.3546 54.4916C91.0666 53.1966 87.3356 51.1086 86.5886 49.2146L88.9296 45.2206C88.9446 45.1946 88.9576 45.1696 88.9706 45.1436C89.3446 44.3996 90.4586 42.8006 91.5096 42.6006C91.8975 42.4966 92.3025 42.4734 92.6997 42.5324C93.0969 42.5914 93.4777 42.7314 93.8186 42.9436C94.0214 43.1295 94.176 43.3619 94.2691 43.6207C94.3623 43.8795 94.3913 44.1571 94.3536 44.4296L94.3546 54.4916Z" fill="url(#paint13_linear_526_6792)"/>
<path d="M92.4277 77.1092H90.7277V79.8172H92.4277C99.1386 79.8172 110.398 82.9092 110.398 103.617V111.836L53.0367 112.027V103.616C52.9669 99.6171 53.5409 95.6329 54.7367 91.8162C56.4867 86.1252 60.5757 81.8982 65.6887 80.5032C67.4219 80.0304 69.2121 79.7992 71.0087 79.8162H72.7087V77.1082H71.0087C68.9667 77.0911 66.9322 77.356 64.9627 77.8952C58.9627 79.5322 54.1737 84.4392 52.1627 90.9872C50.8805 95.0714 50.2633 99.3351 50.3347 103.615V113.384C50.3347 113.743 50.4773 114.088 50.7312 114.342C50.9852 114.596 51.3295 114.738 51.6887 114.738L111.758 114.538C112.116 114.537 112.459 114.393 112.712 114.14C112.964 113.886 113.106 113.542 113.107 113.184V103.615C113.106 86.7712 105.569 77.1092 92.4277 77.1092Z" fill="url(#paint14_linear_526_6792)"/>
<defs>
<linearGradient id="paint0_linear_526_6792" x1="254.084" y1="94.274" x2="272.754" y2="102.651" gradientUnits="userSpaceOnUse">
<stop stop-color="#A58969"/>
<stop offset="1" stop-color="#C7B664"/>
</linearGradient>
<linearGradient id="paint1_linear_526_6792" x1="185.065" y1="142.018" x2="224.609" y2="159.761" gradientUnits="userSpaceOnUse">
<stop stop-color="#A58969"/>
<stop offset="1" stop-color="#C7B664"/>
</linearGradient>
<linearGradient id="paint2_linear_526_6792" x1="175.252" y1="133.079" x2="246.031" y2="164.836" gradientUnits="userSpaceOnUse">
<stop stop-color="#A58969"/>
<stop offset="1" stop-color="#C7B664"/>
</linearGradient>
<linearGradient id="paint3_linear_526_6792" x1="179.666" y1="136.964" x2="236.898" y2="162.646" gradientUnits="userSpaceOnUse">
<stop stop-color="#A58969"/>
<stop offset="1" stop-color="#C7B664"/>
</linearGradient>
<linearGradient id="paint4_linear_526_6792" x1="55.7417" y1="85.4837" x2="88.0626" y2="96.4644" gradientUnits="userSpaceOnUse">
<stop stop-color="#A58969"/>
<stop offset="1" stop-color="#C7B664"/>
</linearGradient>
<linearGradient id="paint5_linear_526_6792" x1="86.8015" y1="84.0657" x2="121.307" y2="95.903" gradientUnits="userSpaceOnUse">
<stop stop-color="#A58969"/>
<stop offset="1" stop-color="#C7B664"/>
</linearGradient>
<linearGradient id="paint6_linear_526_6792" x1="69.3488" y1="78.8509" x2="105.058" y2="87.48" gradientUnits="userSpaceOnUse">
<stop stop-color="#A58969"/>
<stop offset="1" stop-color="#C7B664"/>
</linearGradient>
<linearGradient id="paint7_linear_526_6792" x1="73.9707" y1="89.9095" x2="86.7925" y2="91.4661" gradientUnits="userSpaceOnUse">
<stop stop-color="#A58969"/>
<stop offset="1" stop-color="#C7B664"/>
</linearGradient>
<linearGradient id="paint8_linear_526_6792" x1="86.7819" y1="73.93" x2="91.6144" y2="75.1627" gradientUnits="userSpaceOnUse">
<stop stop-color="#A58969"/>
<stop offset="1" stop-color="#C7B664"/>
</linearGradient>
<linearGradient id="paint9_linear_526_6792" x1="72.8932" y1="73.8183" x2="77.7396" y2="75.0252" gradientUnits="userSpaceOnUse">
<stop stop-color="#A58969"/>
<stop offset="1" stop-color="#C7B664"/>
</linearGradient>
<linearGradient id="paint10_linear_526_6792" x1="66.7481" y1="48.9485" x2="110.928" y2="69.4885" gradientUnits="userSpaceOnUse">
<stop stop-color="#A58969"/>
<stop offset="1" stop-color="#C7B664"/>
</linearGradient>
<linearGradient id="paint11_linear_526_6792" x1="72.6264" y1="55.596" x2="97.6777" y2="68.8324" gradientUnits="userSpaceOnUse">
<stop stop-color="#A58969"/>
<stop offset="1" stop-color="#C7B664"/>
</linearGradient>
<linearGradient id="paint12_linear_526_6792" x1="65.3731" y1="37.9114" x2="99.6461" y2="57.2009" gradientUnits="userSpaceOnUse">
<stop stop-color="#A58969"/>
<stop offset="1" stop-color="#C7B664"/>
</linearGradient>
<linearGradient id="paint13_linear_526_6792" x1="83.5813" y1="40.6383" x2="106.334" y2="48.1797" gradientUnits="userSpaceOnUse">
<stop stop-color="#A58969"/>
<stop offset="1" stop-color="#C7B664"/>
</linearGradient>
<linearGradient id="paint14_linear_526_6792" x1="49.3707" y1="78.8844" x2="125.844" y2="136.125" gradientUnits="userSpaceOnUse">
<stop stop-color="#A58969"/>
<stop offset="1" stop-color="#C7B664"/>
</linearGradient>
</defs>
</svg>
