<svg width="40" height="34" viewBox="0 0 40 34" fill="none" xmlns="http://www.w3.org/2000/svg">
<path d="M27.9668 5.83551e-09C28.6865 -3.75772e-05 29.3947 0.181463 30.0195 0.527344C30.6441 0.873168 31.1644 1.37135 31.5293 1.97168L39.4297 14.9717C39.8032 15.5864 40 16.2869 40 17C40 17.7131 39.8032 18.4136 39.4297 19.0283L31.5293 32.0283C31.1644 32.6287 30.6441 33.1268 30.0195 33.4727C29.3947 33.8185 28.6865 34 27.9668 34H12.0332C11.3135 34 10.6053 33.8185 9.98047 33.4727C9.35586 33.1268 8.83558 32.6287 8.4707 32.0283L0.570312 19.0283C0.196783 18.4136 0 17.7131 0 17C2.14897e-09 16.2869 0.196783 15.5864 0.570312 14.9717L8.4707 1.97168C8.83558 1.37135 9.35586 0.873168 9.98047 0.527344C10.6053 0.181463 11.3135 -3.75772e-05 12.0332 5.83551e-09H27.9668ZM18.2871 8.04004V21.4082L15.8867 19.0078L14 20.8896L18.6602 25.5498C18.7833 25.6732 18.9298 25.7711 19.0908 25.8379C19.2518 25.9046 19.4244 25.9395 19.5986 25.9395C19.7729 25.9394 19.9454 25.9047 20.1064 25.8379C20.2675 25.7711 20.4139 25.6732 20.5371 25.5498L25.1973 20.8896L23.3057 18.999L20.9062 21.3818V8L18.2871 8.04004Z" fill="#272421"/>
</svg>
