<svg width="260" height="220" viewBox="0 0 260 220" fill="none" xmlns="http://www.w3.org/2000/svg">
<path d="M128.979 196.763C183.314 196.763 227.361 152.716 227.361 98.3817C227.361 44.047 183.314 0 128.979 0C74.6442 0 30.5972 44.047 30.5972 98.3817C30.5972 152.716 74.6442 196.763 128.979 196.763Z" fill="#C3B075" fill-opacity="0.1"/>
<path opacity="0.2" d="M253.981 103.01C255.12 103.01 256.234 102.672 257.181 102.039C258.128 101.406 258.866 100.507 259.302 99.4542C259.738 98.4017 259.852 97.2436 259.63 96.1263C259.408 95.009 258.859 93.9828 258.054 93.1772C257.248 92.3717 256.222 91.8232 255.105 91.6009C253.987 91.3787 252.829 91.4927 251.777 91.9287C250.724 92.3646 249.825 93.1029 249.192 94.05C248.559 94.9972 248.221 96.1108 248.221 97.25C248.221 98.7776 248.828 100.243 249.908 101.323C250.988 102.403 252.453 103.01 253.981 103.01Z" fill="url(#paint0_linear_861_36668)"/>
<path d="M53.7296 196.766H51.9509V200.218H53.7296V196.766Z" fill="#272421"/>
<path d="M53.7296 206.273H51.9509V209.725H53.7296V206.273Z" fill="#272421"/>
<path d="M59.3231 202.355H55.8711V204.134H59.3231V202.355Z" fill="#272421"/>
<path d="M49.8113 202.355H46.3594V204.134H49.8113V202.355Z" fill="#272421"/>
<path d="M3.52615 49.1695C5.47359 49.1695 7.0523 47.5908 7.0523 45.6433C7.0523 43.6959 5.47359 42.1172 3.52615 42.1172C1.57871 42.1172 0 43.6959 0 45.6433C0 47.5908 1.57871 49.1695 3.52615 49.1695Z" fill="#272421"/>
<path d="M16.0638 101.16C17.6084 101.16 18.8607 99.908 18.8607 98.3633C18.8607 96.8186 17.6084 95.5664 16.0638 95.5664C14.5191 95.5664 13.2668 96.8186 13.2668 98.3633C13.2668 99.908 14.5191 101.16 16.0638 101.16Z" fill="#272421"/>
<path d="M220.096 21.9473C221.641 21.9473 222.893 20.6951 222.893 19.1504C222.893 17.6057 221.641 16.3535 220.096 16.3535C218.552 16.3535 217.3 17.6057 217.3 19.1504C217.3 20.6951 218.552 21.9473 220.096 21.9473Z" fill="#272421"/>
<path d="M44.5104 105.779H43.0041V107.332H44.5104C50.6363 107.332 60.9111 110.135 60.9111 128.914V151.532H9.07028V128.914C9.07028 110.135 19.348 107.332 25.471 107.332H26.9773V105.779H25.4739C14.0627 105.779 7.51807 114.212 7.51807 128.916V152.308C7.51807 152.516 7.60035 152.714 7.74681 152.861C7.89327 153.007 8.09192 153.089 8.29905 153.089H61.6989C61.9052 153.088 62.1026 153.005 62.248 152.859C62.3934 152.713 62.475 152.515 62.475 152.308V128.914C62.4663 114.212 55.9226 105.779 44.5104 105.779Z" fill="#272421"/>
<path d="M34.8562 120.93L32.1228 135.046L35.0759 140.393L37.9948 135.442L34.8562 120.93Z" fill="#272421"/>
<path d="M41.4975 135.839L36.8614 113.652C36.8242 113.477 36.7286 113.321 36.5905 113.209C36.4523 113.096 36.2799 113.035 36.1018 113.034H33.4143L26.2507 110.716V107.332H35.5405V105.779H25.4736C25.2665 105.779 25.0678 105.862 24.9214 106.008C24.7749 106.155 24.6926 106.353 24.6926 106.56V111.285C24.6934 111.449 24.7457 111.608 24.8421 111.741C24.9384 111.873 25.074 111.972 25.2296 112.023L33.0472 114.553C33.1244 114.578 33.2051 114.591 33.2864 114.591H35.4653L39.9179 135.869L35.0153 144.506L30.2152 135.452L33.8682 116.061L32.3424 115.774L28.6395 135.433C28.6075 135.606 28.6347 135.785 28.7166 135.94L34.3066 146.483C34.3721 146.606 34.4691 146.709 34.5877 146.781C34.7063 146.854 34.8421 146.894 34.9811 146.896H34.9909C35.1277 146.896 35.262 146.86 35.3804 146.791C35.4988 146.723 35.5971 146.624 35.6655 146.506L41.4106 136.382C41.5051 136.218 41.536 136.025 41.4975 135.839Z" fill="#272421"/>
<path d="M41.5117 101.686H39.9595V106.559H41.5117V101.686Z" fill="#272421"/>
<path d="M29.165 101.625H27.6128V106.557H29.165V101.625Z" fill="#272421"/>
<path d="M46.2534 85.7344C44.3195 85.0579 39.208 82.753 38.794 80.2489C38.7703 80.1162 38.7126 79.9919 38.6266 79.8881C38.5405 79.7843 38.4291 79.7045 38.3031 79.6566C38.1771 79.6086 38.0408 79.5941 37.9075 79.6144C37.7743 79.6347 37.6485 79.6892 37.5425 79.7725C33.3462 82.724 28.3748 84.3767 23.2466 84.5248C23.047 84.5343 22.8586 84.62 22.7202 84.7642C22.5818 84.9084 22.504 85.1001 22.5027 85.3V94.0343C22.5055 96.409 23.4501 98.6855 25.1292 100.365C26.8084 102.044 29.085 102.988 31.4596 102.991H37.8188C40.1934 102.988 42.47 102.044 44.1491 100.365C45.8283 98.6855 46.7729 96.409 46.7757 94.0343V86.4656C46.7754 86.3045 46.7249 86.1476 46.6313 86.0166C46.5377 85.8855 46.4057 85.7869 46.2534 85.7344ZM45.2206 94.0324C45.2183 95.9955 44.4374 97.8776 43.0492 99.2657C41.6611 100.654 39.779 101.435 37.8159 101.437H31.4577C29.4945 101.435 27.6125 100.654 26.2243 99.2657C24.8362 97.8776 24.0553 95.9955 24.0529 94.0324V86.0331C28.884 85.7536 33.5613 84.2331 37.6333 81.6186C39.0342 84.4233 43.5883 86.3807 45.2215 87.0093L45.2206 94.0324Z" fill="#272421"/>
<path d="M40.9578 86.9912C39.5271 86.2267 38.2324 85.2312 37.1261 84.0449C33.6453 85.9817 29.8191 87.2187 25.8633 87.6863V94.0376C25.8651 95.5207 26.455 96.9424 27.5037 97.9911C28.5523 99.0397 29.9741 99.6296 31.4571 99.6314H37.8163C39.2994 99.6299 40.7213 99.0401 41.77 97.9914C42.8187 96.9426 43.4085 95.5207 43.4101 94.0376V88.2134C42.6984 87.9001 41.8354 87.4871 40.9578 86.9912Z" fill="#272421"/>
<path d="M41.1304 73.1177C40.8809 72.4931 40.4885 71.9357 39.9846 71.4901C39.4808 71.0446 38.8795 70.7233 38.229 70.5522C34.6996 69.8318 31.0431 70.0466 27.6223 71.175C21.1176 73.3403 21.1694 78.6793 21.2231 83.8446C21.2279 84.3327 21.2338 84.8335 21.2338 85.3314C21.2338 85.5385 21.3161 85.7372 21.4625 85.8836C21.609 86.0301 21.8076 86.1124 22.0148 86.1124C27.927 86.221 33.7169 84.4213 38.5258 80.9803C38.5957 80.923 38.6552 80.854 38.7015 80.7763L40.8209 77.2238C41.1857 76.6096 41.4035 75.9194 41.4572 75.2071C41.5109 74.4947 41.399 73.7796 41.1304 73.1177ZM39.4844 76.4233L37.4402 79.8498C33.1245 82.8262 28.0249 84.4596 22.7831 84.5445C22.7831 84.305 22.7808 84.0662 22.7762 83.828C22.7225 78.5905 22.6786 74.4562 28.1123 72.6472C30.1414 71.9975 32.2589 71.6662 34.3895 71.6651C35.5491 71.6502 36.7059 71.7814 37.8327 72.0556C38.2502 72.1662 38.6361 72.3731 38.9592 72.6598C39.2824 72.9465 39.5338 73.305 39.6934 73.7064C39.8698 74.1449 39.9426 74.6182 39.9062 75.0894C39.8698 75.5606 39.7261 76.0171 39.4844 76.4233Z" fill="#272421"/>
<path d="M38.0167 74.39C37.9638 74.2478 37.8776 74.1205 37.7654 74.0185C37.6531 73.9166 37.518 73.8431 37.3714 73.8042C36.3963 73.5726 35.396 73.4638 34.3939 73.4801C32.4567 73.48 30.5311 73.7787 28.6849 74.3656C25.1363 75.5458 24.5935 77.6398 24.5847 82.6196C28.6881 82.2548 32.6363 80.8753 36.074 78.6053L37.9288 75.496C38.0277 75.3309 38.087 75.1451 38.1023 74.9533C38.1175 74.7614 38.0882 74.5686 38.0167 74.39Z" fill="#272421"/>
<path d="M47.0107 73.4534C46.4865 73.0715 45.8852 72.8088 45.2488 72.6835C44.6124 72.5582 43.9563 72.5734 43.3264 72.7281C41.2383 73.1186 39.8804 75.6304 39.6802 76.0199L37.3587 79.9815C37.2682 80.1364 37.2337 80.3177 37.2611 80.495C37.9074 84.5952 46.2425 87.3872 47.1874 87.6918C47.2641 87.7166 47.3441 87.7291 47.4247 87.7289C47.5266 87.729 47.6276 87.709 47.7218 87.6701C47.816 87.6311 47.9017 87.5739 47.9737 87.5018C48.0458 87.4298 48.103 87.3441 48.142 87.2499C48.1809 87.1557 48.2009 87.0547 48.2008 86.9528V76.2991C48.2328 75.7654 48.1421 75.2315 47.9359 74.7383C47.7296 74.245 47.4131 73.8055 47.0107 73.4534ZM46.6505 85.8574C44.0811 84.89 39.5074 82.7481 38.8534 80.5048L41.0323 76.7853L41.0548 76.7433C41.3672 76.1264 42.4371 74.4756 43.6144 74.254C44.0207 74.1471 44.445 74.1271 44.8595 74.1954C45.274 74.2637 45.6694 74.4187 46.0199 74.6503C46.2423 74.8601 46.4144 75.1175 46.5235 75.4032C46.6325 75.6888 46.6756 75.9955 46.6495 76.3001V85.8584L46.6505 85.8574Z" fill="#272421"/>
<path d="M44.8178 76.0326C44.6904 75.9991 44.559 75.9837 44.4273 75.9867C44.2761 75.9877 44.1252 76.0011 43.9763 76.0267C43.4206 76.4194 42.9724 76.9455 42.673 77.5565L42.6359 77.6297L40.9226 80.5584C42.0701 81.637 43.3951 82.5095 44.8393 83.1376V76.304C44.8411 76.213 44.8339 76.1221 44.8178 76.0326Z" fill="#272421"/>
<path d="M85.8968 109.605H70.239V111.739H85.8968V109.605Z" fill="#272421"/>
<path d="M85.8968 109.605H70.239V111.739H85.8968V109.605Z" fill="url(#paint1_linear_861_36668)"/>
<path d="M152.978 37.334L145.288 31.625L144.019 33.3373L150.535 38.1745L144.033 42.836L145.276 44.5689L152.967 39.0561C153.103 38.9583 153.215 38.8296 153.292 38.6806C153.37 38.5315 153.411 38.3662 153.412 38.1983C153.414 38.0303 153.375 37.8644 153.3 37.714C153.226 37.5636 153.116 37.4331 152.981 37.333L152.978 37.334Z" fill="url(#paint2_linear_861_36668)"/>
<path d="M152.978 182.499L145.288 176.789L144.019 178.501L150.535 183.34L144.033 188.001L145.276 189.734L152.967 184.221C153.103 184.123 153.215 183.995 153.292 183.846C153.37 183.697 153.411 183.531 153.412 183.363C153.414 183.195 153.375 183.029 153.3 182.879C153.226 182.729 153.116 182.598 152.981 182.498L152.978 182.499Z" fill="url(#paint3_linear_861_36668)"/>
<path d="M190.705 42.8679H189.218V45.001H190.702C196.611 45.001 206.526 47.7178 206.526 65.9197V71.9596L156.152 72.1275V65.9197C156.091 62.4128 156.593 58.9189 157.641 55.5716C159.184 50.5596 162.788 46.8353 167.294 45.6062C168.821 45.1891 170.398 44.9854 171.98 45.001H173.463V42.8679H171.98C170.205 42.8525 168.437 43.0825 166.726 43.5513C164.064 44.3528 161.649 45.8158 159.706 47.8036C157.763 49.7915 156.355 52.2393 155.614 54.9185C154.497 58.4765 153.96 62.191 154.022 65.9197V73.1975C154.022 73.4803 154.135 73.7515 154.335 73.9514C154.535 74.1513 154.806 74.2635 155.089 74.2635L207.593 74.0888C207.875 74.0878 208.146 73.9749 208.345 73.7749C208.544 73.5749 208.656 73.3041 208.656 73.0218V65.9197C208.662 51.2694 202.117 42.8679 190.705 42.8679Z" fill="#272421"/>
<path d="M188.029 69.0663L183.466 50.8108C183.408 50.58 183.275 50.3751 183.088 50.2286C182.9 50.0821 182.669 50.0026 182.431 50.0025H179.838L173.049 47.806V45.0022H181.883V42.8691H171.982C171.699 42.8694 171.428 42.9819 171.228 43.182C171.028 43.3821 170.916 43.6533 170.916 43.9362V48.583C170.916 48.8084 170.987 49.028 171.12 49.2102C171.252 49.3925 171.439 49.528 171.654 49.5973L179.341 52.0838C179.448 52.1181 179.559 52.1356 179.67 52.1355H181.598L185.844 69.122L183.576 72.5007L185.347 73.6898L187.879 69.9186C187.963 69.7949 188.019 69.6551 188.045 69.5083C188.07 69.3615 188.065 69.2109 188.029 69.0663Z" fill="#272421"/>
<path d="M180.528 53.3827L178.448 52.9023L174.806 68.6665C174.743 68.9411 174.791 69.2295 174.939 69.469L177.555 73.6824L179.368 72.5578L176.988 68.7183L180.528 53.3827Z" fill="#272421"/>
<path d="M188.056 39.7773H185.923V43.94H188.056V39.7773Z" fill="#272421"/>
<path d="M175.917 39.6777H173.784V43.9419H175.917V39.6777Z" fill="#272421"/>
<path d="M192.518 23.184C189.938 22.2801 185.721 20.0796 185.381 18.0266C185.351 17.8426 185.272 17.6697 185.154 17.5254C185.036 17.3811 184.882 17.2703 184.707 17.2041C184.533 17.138 184.344 17.1187 184.16 17.1482C183.976 17.1778 183.802 17.2551 183.657 17.3725C179.581 20.2335 174.756 21.8356 169.778 21.9804C169.503 21.9922 169.244 22.1097 169.054 22.3083C168.863 22.5069 168.757 22.7714 168.757 23.0464V31.6372C168.76 34.0527 169.72 36.3685 171.428 38.0766C173.136 39.7847 175.452 40.7456 177.867 40.7484H184.121C186.536 40.7456 188.852 39.7847 190.56 38.0766C192.268 36.3685 193.229 34.0527 193.231 31.6372V24.1954C193.232 23.9736 193.164 23.7569 193.036 23.5757C192.908 23.3944 192.727 23.2575 192.518 23.184ZM191.098 31.6324C191.096 33.4823 190.36 35.2558 189.052 36.564C187.744 37.8722 185.971 38.6081 184.121 38.6105H177.867C176.017 38.6081 174.244 37.8722 172.936 36.564C171.628 35.2558 170.892 33.4823 170.89 31.6324V24.049C175.483 23.7302 179.928 22.2888 183.834 19.8512C185.364 22.4431 189.387 24.2521 191.098 24.9276V31.6324Z" fill="#272421"/>
<path d="M183.204 23.3574C180.2 24.9058 176.966 25.9606 173.626 26.4814V31.632C173.628 32.7565 174.075 33.8347 174.87 34.6299C175.665 35.4251 176.743 35.8724 177.868 35.8737H184.122C185.246 35.8724 186.324 35.4251 187.12 34.6299C187.915 33.8347 188.362 32.7565 188.363 31.632V26.7342C186.477 25.886 184.736 24.7465 183.204 23.3574Z" fill="#272421"/>
<path d="M187.656 10.9505C187.393 10.2925 186.98 9.70523 186.449 9.23593C185.918 8.76663 185.284 8.42838 184.599 8.24834C181.071 7.52788 177.416 7.74089 173.996 8.8663C167.389 11.0648 167.444 16.4282 167.497 21.6149C167.502 22.0972 167.507 22.5853 167.507 23.0744C167.507 23.3572 167.62 23.6283 167.82 23.8282C168.02 24.0281 168.291 24.1404 168.574 24.1404C174.457 24.245 180.217 22.4516 185 19.0259C185.096 18.947 185.178 18.8523 185.242 18.7458L187.327 15.2518C187.709 14.6087 187.938 13.8858 187.995 13.1397C188.052 12.3936 187.936 11.6444 187.656 10.9505ZM185.495 14.1584L183.516 17.4776C179.418 20.2824 174.599 21.8478 169.635 21.9869C169.635 21.8551 169.635 21.7233 169.635 21.5964C169.585 16.5697 169.544 12.6004 174.675 10.893C176.638 10.2641 178.687 9.94303 180.749 9.94113C181.864 9.92563 182.976 10.0506 184.059 10.3131C184.425 10.4079 184.763 10.5884 185.046 10.8396C185.329 11.0908 185.548 11.4055 185.685 11.7579C185.84 12.1455 185.904 12.5637 185.872 12.9801C185.839 13.3964 185.711 13.7997 185.497 14.1584H185.495Z" fill="#272421"/>
<path d="M193.355 11.1579C192.805 10.753 192.174 10.4733 191.505 10.3384C190.836 10.2035 190.145 10.2166 189.482 10.3769C187.304 10.7879 185.908 13.3378 185.687 13.7654L183.41 17.6537C183.285 17.8661 183.238 18.1153 183.277 18.3585C183.941 22.572 192.294 25.3718 193.244 25.6803C193.35 25.7147 193.46 25.7322 193.571 25.732C193.854 25.7318 194.125 25.6192 194.325 25.4192C194.525 25.2191 194.637 24.9478 194.637 24.665V14.192C194.67 13.6219 194.571 13.052 194.348 12.526C194.126 12 193.786 11.532 193.355 11.1579ZM192.503 23.1548C189.648 22.0506 186.119 20.1665 185.474 18.3615L187.549 14.8207C187.56 14.8021 187.571 14.7826 187.581 14.7641C187.851 14.232 188.85 12.671 189.883 12.4767C190.239 12.38 190.611 12.3589 190.975 12.4149C191.34 12.4709 191.688 12.6027 191.999 12.8018C192.183 12.9796 192.325 13.1969 192.413 13.4373C192.501 13.6778 192.534 13.9352 192.508 14.19V23.1548H192.503Z" fill="#272421"/>
<path d="M188.753 174.712H187.266V176.845H188.75C194.659 176.845 204.574 179.563 204.574 197.763V203.803L154.2 203.971V197.763C154.139 194.257 154.641 190.763 155.689 187.415C157.232 182.403 160.836 178.679 165.342 177.45C166.869 177.033 168.446 176.83 170.028 176.845H171.511V174.712H170.028C168.254 174.696 166.486 174.926 164.774 175.395C162.112 176.197 159.697 177.66 157.754 179.647C155.811 181.635 154.403 184.083 153.663 186.762C152.546 190.32 152.008 194.035 152.07 197.763V205.041C152.071 205.324 152.183 205.595 152.383 205.795C152.583 205.995 152.854 206.108 153.137 206.108L205.641 205.933C205.923 205.931 206.194 205.819 206.393 205.619C206.592 205.419 206.704 205.148 206.704 204.865V197.763C206.71 183.114 200.165 174.712 188.753 174.712Z" fill="#272421"/>
<path d="M186.077 200.908L181.514 182.653C181.456 182.422 181.323 182.217 181.136 182.07C180.948 181.924 180.717 181.844 180.479 181.844H177.886L171.097 179.648V176.844H179.932V174.711H170.03C169.747 174.711 169.476 174.824 169.276 175.023C169.076 175.223 168.964 175.494 168.964 175.777V180.424C168.964 180.649 169.035 180.869 169.168 181.051C169.3 181.233 169.487 181.369 169.702 181.438L177.389 183.925C177.496 183.959 177.607 183.977 177.718 183.976H179.647L183.892 200.963L181.624 204.342L183.395 205.531L185.928 201.758C186.011 201.635 186.067 201.496 186.092 201.349C186.118 201.203 186.113 201.052 186.077 200.908Z" fill="#272421"/>
<path d="M178.575 185.226L176.496 184.746L172.854 200.51C172.79 200.785 172.838 201.073 172.987 201.313L175.603 205.525L177.416 204.401L175.036 200.561L178.575 185.226Z" fill="#272421"/>
<path d="M186.104 171.617H183.971V175.779H186.104V171.617Z" fill="#272421"/>
<path d="M173.965 171.516H171.832V175.78H173.965V171.516Z" fill="#272421"/>
<path d="M190.565 155.022C187.986 154.118 183.769 151.918 183.429 149.864C183.399 149.68 183.32 149.508 183.202 149.363C183.084 149.219 182.93 149.108 182.755 149.042C182.581 148.976 182.392 148.957 182.208 148.986C182.023 149.016 181.85 149.093 181.705 149.21C177.629 152.071 172.804 153.674 167.826 153.818C167.551 153.83 167.292 153.948 167.101 154.146C166.911 154.345 166.805 154.609 166.805 154.884V163.475C166.808 165.89 167.769 168.206 169.476 169.914C171.184 171.622 173.5 172.582 175.915 172.585H182.169C184.584 172.582 186.9 171.622 188.608 169.914C190.315 168.206 191.276 165.89 191.279 163.475V156.033C191.279 155.812 191.21 155.596 191.083 155.414C190.955 155.233 190.774 155.096 190.565 155.022ZM189.146 163.471C189.144 165.321 188.408 167.095 187.1 168.403C185.792 169.711 184.019 170.446 182.169 170.448H175.915C174.065 170.446 172.292 169.711 170.984 168.403C169.676 167.095 168.94 165.321 168.938 163.471V155.888C173.531 155.569 177.976 154.128 181.882 151.69C183.412 154.283 187.435 156.091 189.146 156.766V163.471Z" fill="#272421"/>
<path d="M181.252 155.201C178.247 156.75 175.013 157.804 171.674 158.325V163.476C171.675 164.6 172.122 165.678 172.918 166.474C173.713 167.269 174.791 167.716 175.916 167.717H182.169C183.294 167.716 184.372 167.269 185.167 166.474C185.962 165.678 186.41 164.6 186.411 163.476V158.58C184.525 157.731 182.784 156.591 181.252 155.201Z" fill="#272421"/>
<path d="M185.703 142.789C185.44 142.131 185.027 141.544 184.496 141.075C183.965 140.606 183.332 140.268 182.646 140.088C179.119 139.365 175.464 139.578 172.044 140.705C165.436 142.903 165.491 148.266 165.545 153.454C165.55 153.936 165.555 154.424 165.555 154.913C165.555 155.196 165.667 155.467 165.867 155.667C166.067 155.867 166.339 155.98 166.622 155.98C172.504 156.084 178.264 154.291 183.048 150.865C183.144 150.786 183.226 150.692 183.29 150.585L185.374 147.091C185.757 146.448 185.985 145.725 186.042 144.978C186.099 144.232 185.983 143.483 185.703 142.789ZM183.543 145.999L181.564 149.318C177.466 152.123 172.647 153.688 167.683 153.827C167.683 153.696 167.683 153.564 167.683 153.437C167.632 148.41 167.591 144.441 172.722 142.733C174.685 142.105 176.734 141.784 178.795 141.782C179.911 141.767 181.023 141.892 182.108 142.154C182.473 142.249 182.812 142.429 183.094 142.68C183.377 142.931 183.596 143.246 183.733 143.598C183.888 143.986 183.952 144.404 183.919 144.82C183.886 145.237 183.758 145.64 183.545 145.999H183.543Z" fill="#272421"/>
<path d="M191.402 142.998C190.853 142.593 190.221 142.313 189.552 142.178C188.883 142.043 188.193 142.056 187.529 142.217C185.351 142.628 183.955 145.178 183.735 145.605L181.457 149.493C181.332 149.706 181.285 149.955 181.324 150.198C181.988 154.412 190.342 157.212 191.292 157.52C191.397 157.555 191.508 157.572 191.619 157.572C191.902 157.572 192.173 157.459 192.373 157.259C192.572 157.059 192.685 156.788 192.685 156.505V146.03C192.717 145.46 192.617 144.891 192.395 144.365C192.173 143.839 191.833 143.372 191.402 142.998ZM190.551 154.995C187.695 153.89 184.166 152.006 183.522 150.201L185.596 146.66C185.607 146.642 185.619 146.622 185.629 146.604C185.898 146.072 186.898 144.511 187.931 144.317C188.286 144.22 188.658 144.2 189.023 144.256C189.387 144.312 189.735 144.443 190.046 144.642C190.231 144.819 190.372 145.037 190.461 145.278C190.549 145.518 190.581 145.776 190.556 146.031V154.996L190.551 154.995Z" fill="#272421"/>
<path d="M92.1433 86.0111C92.1434 86.1613 92.1333 86.3114 92.113 86.4602L94.2275 86.7403C94.2594 86.4986 94.2754 86.255 94.2754 86.0111V84.4687H92.1423L92.1433 86.0111ZM90.3314 89.0804L91.3896 90.9352C92.1497 90.5006 92.8018 89.8999 93.2972 89.178L91.5399 87.9753C91.2253 88.4298 90.8122 88.8076 90.3314 89.0804ZM92.1433 78.0685H94.2763V75.9344H92.1433V78.0685ZM92.1433 82.3346H94.2763V80.2015H92.1433V82.3346ZM83.2888 94.4194L84.9065 95.8095C85.3438 95.301 85.8099 94.818 86.3025 94.3628L84.8528 92.8008C84.3006 93.3107 83.7779 93.8514 83.2869 94.4204L83.2888 94.4194ZM86.5797 91.3618L87.8547 93.0722C88.3877 92.6749 88.9539 92.2912 89.5377 91.9446L88.4385 90.1171C87.7951 90.5037 87.1684 90.9225 86.5797 91.3589V91.3618ZM71.1025 104.091H73.2317V101.958H71.0986L71.1025 104.091ZM76.8057 101.957H75.3696V104.09H76.8057C77.092 104.09 77.3779 104.068 77.6609 104.025L77.3387 101.916C77.1623 101.943 76.9842 101.957 76.8057 101.958V101.957ZM80.776 98.1671L82.6787 99.1326C82.981 98.5369 83.3194 97.9602 83.692 97.4057L81.9211 96.2157C81.5005 96.8427 81.1184 97.4947 80.777 98.1681L80.776 98.1671ZM78.846 101.314L80.0751 103.057C80.7979 102.548 81.3889 101.873 81.7991 101.09L79.9072 100.104C79.655 100.587 79.2916 101.002 78.847 101.316L78.846 101.314ZM107.227 31.5159H109.36V29.3828H107.227V31.5159ZM102.961 31.5159H105.094V29.3828H102.961V31.5159ZM98.6938 31.5159H100.827V29.3828H98.6938V31.5159ZM111.494 29.3828V31.5159H113.627V29.3828H111.494ZM93.9698 30.606L95.3492 32.2324C95.7517 31.8909 96.2368 31.661 96.756 31.5657L96.3742 29.4668C95.4858 29.6297 94.6561 30.024 93.9688 30.6099L93.9698 30.606ZM92.1442 69.5313H94.2773V67.4022H92.1442V69.5313ZM92.1442 65.2642H94.2773V63.1312H92.1442V65.2642ZM92.1442 73.7975H94.2773V71.6683H92.1442V73.7975ZM92.1442 60.9971H94.2773V58.864H92.1442V60.9971ZM92.1442 34.5412V35.2519H94.2773V34.5412C94.2768 34.1894 94.3375 33.8403 94.4569 33.5093L92.4498 32.784C92.2458 33.3494 92.1421 33.946 92.1433 34.5471L92.1442 34.5412Z" fill="url(#paint4_linear_861_36668)"/>
<path d="M92.1428 56.5912H94.2759V54.4571H92.1428V56.5912ZM92.1428 48.0579H94.2759V45.9248H92.1428V48.0579ZM92.1428 43.7908H94.2759V41.6577H92.1428V43.7908ZM92.1428 52.324H94.2759V50.191H92.1428V52.324ZM92.1428 39.5237H94.2759V37.3906H92.1428V39.5237Z" fill="url(#paint5_linear_861_36668)"/>
<path d="M124.799 31.5159H126.932V29.3828H124.799V31.5159ZM120.533 31.5159H122.666V29.3828H120.533V31.5159ZM116.266 31.5159H118.399V29.3828H116.266V31.5159ZM129.066 29.3828V31.5159H131.199V29.3828H129.066Z" fill="url(#paint6_linear_861_36668)"/>
<path d="M101.528 37.0293C101.245 37.0296 100.974 37.1421 100.774 37.3422C100.574 37.5423 100.462 37.8135 100.462 38.0963V95.0468H102.595V39.1633H152.343V37.0303H101.528V37.0293Z" fill="url(#paint7_linear_861_36668)"/>
<path d="M102.594 182.185V126.303H100.46V183.252C100.46 183.535 100.572 183.806 100.772 184.006C100.972 184.206 101.243 184.319 101.526 184.319H152.34V182.186L102.594 182.185Z" fill="url(#paint8_linear_861_36668)"/>
<path d="M101.528 95.043C98.4367 95.043 95.4147 95.9597 92.8443 97.6772C90.2738 99.3948 88.2704 101.836 87.0874 104.692C85.9044 107.548 85.5949 110.691 86.1981 113.723C86.8013 116.755 88.2901 119.54 90.4761 121.726C92.6622 123.912 95.4473 125.401 98.4794 126.004C101.511 126.607 104.654 126.297 107.51 125.114C110.366 123.931 112.808 121.927 114.525 119.357C116.242 116.786 117.159 113.764 117.159 110.672C117.159 108.62 116.754 106.587 115.969 104.691C115.183 102.795 114.032 101.072 112.58 99.6204C111.129 98.1691 109.406 97.0178 107.51 96.2324C105.613 95.447 103.581 95.0428 101.528 95.043Z" fill="url(#paint9_linear_861_36668)"/>
<path d="M121.304 96.9019C120.861 96.3013 120.387 95.7233 119.886 95.1701L118.305 96.6022C118.758 97.102 119.19 97.6302 119.589 98.17L121.304 96.9019ZM114.715 90.9274C114.083 90.5486 113.422 90.1923 112.751 89.8691L111.827 91.7923C112.439 92.0852 113.042 92.4103 113.618 92.7549L114.715 90.9274ZM118.303 93.5876C117.752 93.0888 117.17 92.6114 116.574 92.1701L115.304 93.8844C115.844 94.2846 116.372 94.7171 116.871 95.1701L118.303 93.5876ZM123.062 105.467L125.125 104.926C124.936 104.205 124.712 103.488 124.46 102.795L122.455 103.526C122.686 104.156 122.89 104.809 123.062 105.467ZM123.736 109.479L125.863 109.317C125.807 108.581 125.716 107.837 125.594 107.105L123.489 107.457C123.602 108.126 123.685 108.806 123.736 109.479ZM121.672 101.65L123.599 100.735C123.28 100.065 122.926 99.4011 122.546 98.7646L120.714 99.8589C121.061 100.439 121.382 101.043 121.672 101.65ZM122.909 117.541L124.959 118.134C125.165 117.425 125.341 116.695 125.483 115.968L123.388 115.561C123.26 116.231 123.099 116.897 122.909 117.541ZM123.8 111.513C123.792 112.197 123.752 112.88 123.683 113.547L125.806 113.763C125.881 113.032 125.923 112.282 125.933 111.541L123.8 111.513ZM121.421 121.317L123.322 122.284C123.656 121.628 123.964 120.943 124.238 120.247L122.253 119.466C122.005 120.101 121.725 120.725 121.423 121.32L121.421 121.317ZM119.247 124.734L120.927 126.049C121.384 125.464 121.818 124.849 122.216 124.223L120.415 123.08C120.057 123.651 119.664 124.207 119.248 124.738L119.247 124.734ZM113.129 129.983L114.179 131.838C114.827 131.472 115.463 131.071 116.069 130.647L114.847 128.899C114.298 129.29 113.72 129.654 113.131 129.987L113.129 129.983ZM116.449 127.66L117.838 129.28C118.402 128.792 118.949 128.278 119.462 127.741L117.921 126.266C117.457 126.757 116.961 127.227 116.451 127.664L116.449 127.66Z" fill="url(#paint10_linear_861_36668)"/>
<path d="M92.1435 137.282C92.1437 137.132 92.1336 136.982 92.1132 136.833L94.2278 136.553C94.2596 136.794 94.2756 137.038 94.2756 137.282V138.824H92.1425L92.1435 137.282ZM90.3316 134.213L91.3898 132.358C92.1499 132.792 92.802 133.393 93.2974 134.115L91.5402 135.318C91.2251 134.865 90.812 134.488 90.3316 134.217V134.213ZM92.1435 145.225H94.2766V147.358H92.1435V145.225ZM92.1435 140.958H94.2766V143.092H92.1435V140.958ZM83.2871 128.873L84.9047 127.483C85.3421 127.991 85.8082 128.474 86.3008 128.929L84.851 130.491C84.2996 129.982 83.7775 129.441 83.2871 128.873ZM86.578 131.93L87.853 130.22C88.386 130.617 88.9522 131.001 89.536 131.347L88.4368 133.175C87.7944 132.789 87.1686 132.371 86.58 131.93H86.578ZM71.1008 119.201H73.2319V121.33H71.0989L71.1008 119.201ZM76.804 121.335H75.3699V119.202H76.8059C77.0922 119.202 77.3782 119.224 77.6611 119.268L77.339 121.376C77.1627 121.348 76.9845 121.332 76.8059 121.33L76.804 121.335ZM80.7743 125.125L82.677 124.159C82.9793 124.755 83.3177 125.332 83.6903 125.886L81.9194 127.076C81.4995 126.45 81.118 125.798 80.7772 125.125H80.7743ZM78.8443 121.979L80.0734 120.235C80.7962 120.744 81.3872 121.419 81.7974 122.202L79.9055 123.188C79.6534 122.707 79.2907 122.292 78.8472 121.979H78.8443ZM107.223 191.772H109.356V193.905H107.223V191.772ZM102.957 191.772H105.09V193.905H102.957V191.772ZM98.6901 191.772H100.823V193.905H98.6901V191.772ZM111.49 193.905V191.772H113.624V193.905H111.49ZM93.9661 192.682L95.3455 191.056C95.748 191.397 96.2331 191.627 96.7523 191.723L96.3706 193.821C95.4841 193.659 94.6558 193.267 93.9691 192.683L93.9661 192.682ZM92.1406 153.757H94.2736V155.889H92.1406V153.757ZM92.1406 158.024H94.2736V160.157H92.1406V158.024ZM92.1406 149.491H94.2736V151.624H92.1406V149.491ZM92.1406 162.291H94.2736V164.424H92.1406V162.291ZM92.1406 188.747V188.036H94.2736V188.747C94.2731 189.099 94.3339 189.448 94.4533 189.779L92.4461 190.504C92.2441 189.94 92.1417 189.345 92.1435 188.746L92.1406 188.747Z" fill="url(#paint11_linear_861_36668)"/>
<path d="M92.1431 166.701H94.2761V168.83H92.1431V166.701ZM92.1431 175.234H94.2761V177.367H92.1431V175.234ZM92.1431 179.502H94.2761V181.635H92.1431V179.502ZM92.1431 170.968H94.2761V173.101H92.1431V170.968ZM92.1431 183.769H94.2761V185.902H92.1431V183.769Z" fill="url(#paint12_linear_861_36668)"/>
<path d="M90.7416 108.384L88.6535 107.944C88.494 108.701 88.4012 109.47 88.3762 110.244L90.5083 110.313C90.53 109.664 90.6081 109.019 90.7416 108.384ZM92.1982 104.802L90.3941 103.663C89.9808 104.318 89.6261 105.008 89.3339 105.726L91.3098 106.528C91.5544 105.928 91.8517 105.35 92.1982 104.802ZM90.6167 112.254L88.5041 112.556C88.6144 113.323 88.7921 114.079 89.0352 114.814L91.0609 114.144C90.8568 113.528 90.7082 112.896 90.6167 112.254ZM91.8301 115.924L89.9548 116.943C90.324 117.623 90.7523 118.269 91.2346 118.874L92.903 117.544C92.4981 117.037 92.1387 116.495 91.8292 115.924H91.8301ZM111.397 105.755L113.305 104.8C112.959 104.108 112.552 103.448 112.09 102.827L110.379 104.096C110.765 104.619 111.107 105.174 111.397 105.755ZM112.487 109.465L114.608 109.232C114.523 108.463 114.371 107.702 114.154 106.959L112.104 107.56C112.287 108.182 112.416 108.82 112.487 109.465ZM94.8057 101.94L93.5044 100.25C92.8915 100.723 92.3212 101.248 91.7999 101.82L93.3775 103.256C93.8137 102.776 94.2917 102.335 94.8057 101.94ZM92.8318 120.552C93.4123 121.064 94.0365 121.523 94.6973 121.926L95.8073 120.104C95.2541 119.766 94.7315 119.38 94.2453 118.952L92.8318 120.552ZM110.548 101.099C109.985 100.568 109.376 100.087 108.728 99.6633L107.556 101.448C108.099 101.803 108.609 102.206 109.081 102.651L110.548 101.099ZM105.166 121.089L105.87 123.103C106.601 122.847 107.308 122.527 107.982 122.147L106.933 120.292C106.369 120.61 105.778 120.877 105.166 121.089ZM97.6026 98.1179C96.8619 98.3484 96.1431 98.6444 95.4549 99.0024L96.4409 100.894C97.0156 100.595 97.6157 100.347 98.2342 100.154L97.6026 98.1179ZM108.536 119.19L109.893 120.836C110.49 120.344 111.043 119.8 111.545 119.211L109.922 117.828C109.5 118.321 109.036 118.777 108.535 119.189L108.536 119.19ZM106.682 98.5699C105.968 98.2662 105.23 98.0264 104.474 97.8534L103.998 99.9328C104.63 100.078 105.248 100.279 105.845 100.533L106.682 98.5699ZM112.55 110.675C112.549 111.324 112.493 111.972 112.38 112.611L114.481 112.982C114.614 112.22 114.682 111.449 114.682 110.675H112.55ZM111.045 116.24L112.886 117.318C113.278 116.65 113.61 115.948 113.877 115.221L111.875 114.484C111.652 115.094 111.375 115.682 111.048 116.243L111.045 116.24ZM96.7767 122.948C97.5 123.229 98.2469 123.444 99.0084 123.592L99.4135 121.498C98.7772 121.374 98.1532 121.194 97.5489 120.96L96.7767 122.948ZM101.528 121.7H101.341L101.318 123.833H101.528C102.229 123.833 102.929 123.778 103.621 123.668L103.285 121.561C102.704 121.655 102.117 121.702 101.528 121.703V121.7ZM102.18 97.5332C101.408 97.496 100.634 97.5254 99.8665 97.621L100.133 99.7375C100.777 99.6562 101.427 99.6314 102.076 99.6633L102.18 97.5332Z" fill="#433C2F"/>
<path d="M123.824 193.903H125.957V191.77H123.824V193.903ZM119.558 193.903H121.691V191.77H119.558V193.903ZM115.291 193.903H117.424V191.77H115.291V193.903ZM128.091 191.77V193.903H130.224V191.77H128.091Z" fill="url(#paint13_linear_861_36668)"/>
<path d="M138.946 80.4763C140.773 80.4763 142.254 78.9955 142.254 77.1688C142.254 75.3421 140.773 73.8613 138.946 73.8613C137.119 73.8613 135.639 75.3421 135.639 77.1688C135.639 78.9955 137.119 80.4763 138.946 80.4763Z" fill="#272421"/>
<path d="M163.808 93.2656H161.354V97.4615H163.808V93.2656Z" fill="#272421"/>
<path d="M163.808 104.826H161.354V109.022H163.808V104.826Z" fill="#272421"/>
<path d="M170.458 99.9121H166.262V102.366H170.458V99.9121Z" fill="#272421"/>
<path d="M158.897 99.9121H154.701V102.366H158.897V99.9121Z" fill="#272421"/>
<path d="M110.173 220C111.509 220 112.592 218.918 112.592 217.582C112.592 216.247 111.509 215.164 110.173 215.164C108.838 215.164 107.755 216.247 107.755 217.582C107.755 218.918 108.838 220 110.173 220Z" fill="#272421"/>
<defs>
<linearGradient id="paint0_linear_861_36668" x1="248.045" y1="92.0342" x2="266.271" y2="100.212" gradientUnits="userSpaceOnUse">
<stop stop-color="#846E55"/>
<stop offset="1" stop-color="#B3A55C"/>
</linearGradient>
<linearGradient id="paint1_linear_861_36668" x1="70" y1="109.706" x2="72.512" y2="117.979" gradientUnits="userSpaceOnUse">
<stop stop-color="#846E55"/>
<stop offset="1" stop-color="#B3A55C"/>
</linearGradient>
<linearGradient id="paint2_linear_861_36668" x1="143.875" y1="32.2362" x2="160.018" y2="37.4925" gradientUnits="userSpaceOnUse">
<stop stop-color="#846E55"/>
<stop offset="1" stop-color="#B3A55C"/>
</linearGradient>
<linearGradient id="paint3_linear_861_36668" x1="143.875" y1="177.4" x2="160.018" y2="182.656" gradientUnits="userSpaceOnUse">
<stop stop-color="#846E55"/>
<stop offset="1" stop-color="#B3A55C"/>
</linearGradient>
<linearGradient id="paint4_linear_861_36668" x1="70.4493" y1="32.9107" x2="146.331" y2="52.292" gradientUnits="userSpaceOnUse">
<stop stop-color="#846E55"/>
<stop offset="1" stop-color="#B3A55C"/>
</linearGradient>
<linearGradient id="paint5_linear_861_36668" x1="92.1103" y1="38.2973" x2="96.1544" y2="38.4989" gradientUnits="userSpaceOnUse">
<stop stop-color="#846E55"/>
<stop offset="1" stop-color="#B3A55C"/>
</linearGradient>
<linearGradient id="paint6_linear_861_36668" x1="116.038" y1="29.4835" x2="118.65" y2="37.688" gradientUnits="userSpaceOnUse">
<stop stop-color="#846E55"/>
<stop offset="1" stop-color="#B3A55C"/>
</linearGradient>
<linearGradient id="paint7_linear_861_36668" x1="99.6698" y1="39.769" x2="184.605" y2="73.8465" gradientUnits="userSpaceOnUse">
<stop stop-color="#846E55"/>
<stop offset="1" stop-color="#B3A55C"/>
</linearGradient>
<linearGradient id="paint8_linear_861_36668" x1="99.6679" y1="129.042" x2="184.601" y2="163.119" gradientUnits="userSpaceOnUse">
<stop stop-color="#846E55"/>
<stop offset="1" stop-color="#B3A55C"/>
</linearGradient>
<linearGradient id="paint9_linear_861_36668" x1="85.4204" y1="96.5192" x2="134.88" y2="118.71" gradientUnits="userSpaceOnUse">
<stop stop-color="#846E55"/>
<stop offset="1" stop-color="#B3A55C"/>
</linearGradient>
<linearGradient id="paint10_linear_861_36668" x1="111.612" y1="91.851" x2="137.825" y2="95.804" gradientUnits="userSpaceOnUse">
<stop stop-color="#846E55"/>
<stop offset="1" stop-color="#B3A55C"/>
</linearGradient>
<linearGradient id="paint11_linear_861_36668" x1="70.4496" y1="122.729" x2="146.325" y2="142.108" gradientUnits="userSpaceOnUse">
<stop stop-color="#846E55"/>
<stop offset="1" stop-color="#B3A55C"/>
</linearGradient>
<linearGradient id="paint12_linear_861_36668" x1="92.1105" y1="167.608" x2="96.1547" y2="167.809" gradientUnits="userSpaceOnUse">
<stop stop-color="#846E55"/>
<stop offset="1" stop-color="#B3A55C"/>
</linearGradient>
<linearGradient id="paint13_linear_861_36668" x1="115.063" y1="191.87" x2="117.674" y2="200.075" gradientUnits="userSpaceOnUse">
<stop stop-color="#846E55"/>
<stop offset="1" stop-color="#B3A55C"/>
</linearGradient>
</defs>
</svg>
