<svg width="43" height="43" viewBox="0 0 43 43" fill="none" xmlns="http://www.w3.org/2000/svg">
<path d="M21.6701 42.43C33.3868 42.43 42.8851 32.9317 42.8851 21.215C42.8851 9.49828 33.3868 0 21.6701 0C9.95336 0 0.455078 9.49828 0.455078 21.215C0.455078 32.9317 9.95336 42.43 21.6701 42.43Z" fill="#F6F2ED"/>
<path d="M21.6701 41.93C33.1107 41.93 42.3851 32.6556 42.3851 21.215C42.3851 9.77442 33.1107 0.5 21.6701 0.5C10.2295 0.5 0.955078 9.77442 0.955078 21.215C0.955078 32.6556 10.2295 41.93 21.6701 41.93Z" stroke="#272421"/>
<path d="M41.3123 21.4266C41.3164 24.0273 40.8028 26.603 39.8016 29.0033C38.8003 31.4037 37.3314 33.5807 35.4803 35.4076C33.6732 37.2075 31.5281 38.6323 29.1683 39.6C26.8086 40.5678 24.2807 41.0593 21.7303 41.0466C17.8482 41.0541 14.0512 39.9098 10.8197 37.7585C7.58819 35.6072 5.06751 32.5456 3.57669 28.9612C2.08587 25.3768 1.6919 21.4306 2.44464 17.6222C3.19739 13.8138 5.063 10.3144 7.80539 7.5667C10.5478 4.81899 14.0437 2.94658 17.8506 2.18645C21.6576 1.42632 25.6044 1.81257 29.1917 3.29644C32.779 4.7803 35.8455 7.29508 38.0031 10.5224C40.1606 13.7497 41.3123 17.5445 41.3123 21.4266Z" fill="url(#paint0_linear_591_6293)"/>
<path d="M21.7415 39.3961C31.713 39.3961 39.7965 31.3126 39.7965 21.3411C39.7965 11.3696 31.713 3.28613 21.7415 3.28613C11.77 3.28613 3.68652 11.3696 3.68652 21.3411C3.68652 31.3126 11.77 39.3961 21.7415 39.3961Z" fill="#F6F2ED"/>
<path d="M21.7415 38.8961C31.4369 38.8961 39.2965 31.0365 39.2965 21.3411C39.2965 11.6458 31.4369 3.78613 21.7415 3.78613C12.0462 3.78613 4.18652 11.6458 4.18652 21.3411C4.18652 31.0365 12.0462 38.8961 21.7415 38.8961Z" stroke="#272421"/>
<path d="M21.7789 6.34363C13.5277 6.34363 6.83887 13.0325 6.83887 21.2836C6.83887 29.5348 13.5277 36.2236 21.7789 36.2236C30.03 36.2236 36.7189 29.5348 36.7189 21.2836C36.7189 13.0325 30.03 6.34363 21.7789 6.34363Z" stroke="#272421" stroke-dasharray="1 1.5"/>
<path fill-rule="evenodd" clip-rule="evenodd" d="M28.0443 12.4502C27.5716 12.4502 27.1095 12.5904 26.7165 12.853C26.3235 13.1156 26.0171 13.4889 25.8362 13.9256C25.6553 14.3623 25.608 14.8428 25.7002 15.3065C25.7924 15.7701 26.0201 16.1959 26.3543 16.5302C26.6886 16.8644 27.1144 17.0921 27.578 17.1843C28.0416 17.2765 28.5222 17.2292 28.9589 17.0483C29.3956 16.8674 29.7689 16.561 30.0315 16.168C30.2941 15.775 30.4343 15.3129 30.4343 14.8402C30.4347 14.5262 30.3731 14.2153 30.2532 13.9251C30.1332 13.635 29.9572 13.3713 29.7352 13.1493C29.5132 12.9273 29.2495 12.7513 28.9594 12.6313C28.6692 12.5114 28.3583 12.4498 28.0443 12.4502Z" fill="url(#paint1_linear_591_6293)"/>
<path fill-rule="evenodd" clip-rule="evenodd" d="M15.2953 12.4502C14.8226 12.4502 14.3605 12.5904 13.9675 12.853C13.5744 13.1156 13.2681 13.4889 13.0872 13.9256C12.9063 14.3623 12.859 14.8428 12.9512 15.3065C13.0434 15.7701 13.271 16.1959 13.6053 16.5302C13.9395 16.8644 14.3654 17.0921 14.829 17.1843C15.2926 17.2765 15.7732 17.2292 16.2099 17.0483C16.6466 16.8674 17.0199 16.561 17.2825 16.168C17.5451 15.775 17.6853 15.3129 17.6853 14.8402C17.6857 14.5262 17.6241 14.2153 17.5042 13.9251C17.3842 13.635 17.2082 13.3713 16.9861 13.1493C16.7641 12.9273 16.5005 12.7513 16.2104 12.6313C15.9202 12.5114 15.6092 12.4498 15.2953 12.4502Z" fill="url(#paint2_linear_591_6293)"/>
<path fill-rule="evenodd" clip-rule="evenodd" d="M15.2953 25.1992C14.8226 25.1992 14.3605 25.3394 13.9675 25.602C13.5744 25.8646 13.2681 26.2379 13.0872 26.6746C12.9063 27.1113 12.859 27.5919 12.9512 28.0555C13.0434 28.5191 13.271 28.945 13.6053 29.2792C13.9395 29.6135 14.3654 29.8411 14.829 29.9333C15.2926 30.0255 15.7732 29.9782 16.2099 29.7973C16.6466 29.6164 17.0199 29.3101 17.2825 28.917C17.5451 28.524 17.6853 28.0619 17.6853 27.5892C17.6857 27.2752 17.6241 26.9643 17.5042 26.6741C17.3842 26.384 17.2082 26.1204 16.9861 25.8984C16.7641 25.6763 16.5005 25.5003 16.2104 25.3803C15.9202 25.2604 15.6092 25.1988 15.2953 25.1992Z" fill="url(#paint3_linear_591_6293)"/>
<path fill-rule="evenodd" clip-rule="evenodd" d="M28.0443 25.1992C27.5716 25.1992 27.1095 25.3394 26.7165 25.602C26.3235 25.8646 26.0171 26.2379 25.8362 26.6746C25.6553 27.1113 25.608 27.5919 25.7002 28.0555C25.7924 28.5191 26.0201 28.945 26.3543 29.2792C26.6886 29.6135 27.1144 29.8411 27.578 29.9333C28.0416 30.0255 28.5222 29.9782 28.9589 29.7973C29.3956 29.6164 29.7689 29.3101 30.0315 28.917C30.2941 28.524 30.4343 28.0619 30.4343 27.5892C30.4347 27.2752 30.3731 26.9643 30.2532 26.6741C30.1332 26.384 29.9572 26.1204 29.7352 25.8984C29.5132 25.6763 29.2495 25.5003 28.9594 25.3803C28.6692 25.2604 28.3583 25.1988 28.0443 25.1992Z" fill="url(#paint4_linear_591_6293)"/>
<path fill-rule="evenodd" clip-rule="evenodd" d="M21.6707 16.4346C20.7251 16.4346 19.8007 16.715 19.0145 17.2403C18.2282 17.7657 17.6154 18.5124 17.2536 19.386C16.8917 20.2596 16.797 21.2209 16.9815 22.1483C17.166 23.0757 17.6213 23.9276 18.29 24.5963C18.9586 25.2649 19.8105 25.7202 20.7379 25.9047C21.6653 26.0892 22.6266 25.9945 23.5003 25.6326C24.3739 25.2708 25.1206 24.658 25.6459 23.8718C26.1712 23.0855 26.4517 22.1612 26.4517 21.2156C26.4526 20.5875 26.3295 19.9653 26.0896 19.3849C25.8497 18.8044 25.4975 18.277 25.0534 17.8328C24.6092 17.3887 24.0818 17.0366 23.5013 16.7966C22.9209 16.5567 22.2988 16.4337 21.6707 16.4346Z" fill="url(#paint5_linear_591_6293)"/>
<path fill-rule="evenodd" clip-rule="evenodd" d="M19.037 24.9591L17.048 26.9481L15.917 25.8201L17.909 23.8281L19.037 24.9481V24.9591Z" fill="url(#paint6_linear_591_6293)"/>
<path fill-rule="evenodd" clip-rule="evenodd" d="M25.4142 23.8361L27.4032 25.8281L26.2752 26.9481L24.2832 24.9591L25.4032 23.8281L25.4142 23.8361Z" fill="url(#paint7_linear_591_6293)"/>
<path fill-rule="evenodd" clip-rule="evenodd" d="M23.8957 17.8597L26.2857 15.4697L27.4047 16.5927L25.0187 18.9797L23.8877 17.8517L23.8957 17.8597Z" fill="url(#paint8_linear_591_6293)"/>
<path fill-rule="evenodd" clip-rule="evenodd" d="M18.3148 18.9819L15.9248 16.5929L17.0478 15.4619L19.4348 17.8519L18.3068 18.9759L18.3148 18.9819Z" fill="url(#paint9_linear_591_6293)"/>
<defs>
<linearGradient id="paint0_linear_591_6293" x1="1.47318" y1="3.65965" x2="63.5569" y2="31.515" gradientUnits="userSpaceOnUse">
<stop stop-color="#A58969"/>
<stop offset="1" stop-color="#C7B664"/>
</linearGradient>
<linearGradient id="paint1_linear_591_6293" x1="25.5813" y1="12.6759" x2="33.144" y2="16.0691" gradientUnits="userSpaceOnUse">
<stop stop-color="#A58969"/>
<stop offset="1" stop-color="#C7B664"/>
</linearGradient>
<linearGradient id="paint2_linear_591_6293" x1="12.8323" y1="12.6759" x2="20.395" y2="16.0691" gradientUnits="userSpaceOnUse">
<stop stop-color="#A58969"/>
<stop offset="1" stop-color="#C7B664"/>
</linearGradient>
<linearGradient id="paint3_linear_591_6293" x1="12.8323" y1="25.4249" x2="20.395" y2="28.8181" gradientUnits="userSpaceOnUse">
<stop stop-color="#A58969"/>
<stop offset="1" stop-color="#C7B664"/>
</linearGradient>
<linearGradient id="paint4_linear_591_6293" x1="25.5813" y1="25.4249" x2="33.144" y2="28.8181" gradientUnits="userSpaceOnUse">
<stop stop-color="#A58969"/>
<stop offset="1" stop-color="#C7B664"/>
</linearGradient>
<linearGradient id="paint5_linear_591_6293" x1="16.7437" y1="16.8861" x2="31.8722" y2="23.6739" gradientUnits="userSpaceOnUse">
<stop stop-color="#A58969"/>
<stop offset="1" stop-color="#C7B664"/>
</linearGradient>
<linearGradient id="paint6_linear_591_6293" x1="15.8694" y1="23.9755" x2="20.8057" y2="26.1903" gradientUnits="userSpaceOnUse">
<stop stop-color="#A58969"/>
<stop offset="1" stop-color="#C7B664"/>
</linearGradient>
<linearGradient id="paint7_linear_591_6293" x1="24.2356" y1="23.9755" x2="29.1719" y2="26.1903" gradientUnits="userSpaceOnUse">
<stop stop-color="#A58969"/>
<stop offset="1" stop-color="#C7B664"/>
</linearGradient>
<linearGradient id="paint8_linear_591_6293" x1="23.834" y1="15.6355" x2="29.3947" y2="18.1354" gradientUnits="userSpaceOnUse">
<stop stop-color="#A58969"/>
<stop offset="1" stop-color="#C7B664"/>
</linearGradient>
<linearGradient id="paint9_linear_591_6293" x1="15.8712" y1="15.6281" x2="21.4298" y2="18.1151" gradientUnits="userSpaceOnUse">
<stop stop-color="#A58969"/>
<stop offset="1" stop-color="#C7B664"/>
</linearGradient>
</defs>
</svg>
