<svg width="114" height="132" viewBox="0 0 114 132" fill="none" xmlns="http://www.w3.org/2000/svg">
<g opacity="0.272">
<path d="M103.459 37.48C107.312 34.5841 108.08 29.1188 105.176 25.2728C102.271 21.4268 96.7929 20.6566 92.94 23.5525C89.0872 26.4483 88.3186 31.9137 91.2234 35.7597C94.1281 39.6057 99.6062 40.3759 103.459 37.48Z" fill="url(#paint0_linear_1709_12793)"/>
<path d="M103.013 40.8575C102.977 41.0006 102.899 41.1299 102.79 41.2291C102.68 41.3282 102.544 41.3928 102.397 41.4145C102.251 41.4363 102.102 41.4143 101.968 41.3513C101.834 41.2883 101.722 41.1872 101.646 41.0607C101.569 40.9342 101.533 40.788 101.54 40.6407C101.547 40.4933 101.597 40.3514 101.685 40.2328C101.773 40.1143 101.895 40.0244 102.034 39.9746C102.173 39.9248 102.324 39.9173 102.468 39.9531C102.66 40.001 102.826 40.1232 102.928 40.2928C103.03 40.4624 103.061 40.6655 103.013 40.8575Z" fill="url(#paint1_linear_1709_12793)"/>
<path d="M99.9127 41.2108C99.8883 41.3085 99.8354 41.3968 99.7607 41.4644C99.6859 41.5321 99.5928 41.5762 99.4929 41.591C99.393 41.6058 99.2909 41.5908 99.1996 41.5478C99.1083 41.5048 99.0317 41.4358 98.9797 41.3495C98.9277 41.2631 98.9025 41.1634 98.9073 41.0628C98.9121 40.9622 98.9467 40.8653 99.0068 40.7844C99.0668 40.7035 99.1496 40.6421 99.2446 40.6081C99.3397 40.5741 99.4427 40.569 99.5407 40.5934C99.6721 40.6261 99.7851 40.7096 99.8549 40.8253C99.9246 40.9411 99.9455 41.0798 99.9127 41.2108Z" fill="url(#paint2_linear_1709_12793)"/>
<path d="M104.777 22.5411C104.627 22.6533 104.448 22.7188 104.262 22.7293C104.075 22.7398 103.889 22.6949 103.728 22.6001C103.567 22.5054 103.438 22.3651 103.356 22.1971C103.275 22.0291 103.246 21.8408 103.272 21.6561C103.298 21.4714 103.378 21.2985 103.502 21.1594C103.627 21.0203 103.79 20.9212 103.971 20.8745C104.152 20.8279 104.343 20.8359 104.519 20.8975C104.696 20.959 104.85 21.0714 104.962 21.2204C105.113 21.4202 105.179 21.6716 105.144 21.9193C105.109 22.167 104.977 22.3907 104.777 22.5411Z" fill="url(#paint3_linear_1709_12793)"/>
</g>
<g opacity="0.272">
<path d="M27.9692 124.635C40.2205 124.635 50.1522 114.727 50.1522 102.505C50.1522 90.2837 40.2205 80.376 27.9692 80.376C15.7178 80.376 5.78613 90.2837 5.78613 102.505C5.78613 114.727 15.7178 124.635 27.9692 124.635Z" fill="url(#paint4_linear_1709_12793)"/>
<path d="M34.048 130.807C34.34 131.043 34.6957 131.187 35.0699 131.222C35.4441 131.256 35.8202 131.179 36.1504 131C36.4807 130.821 36.7504 130.548 36.9254 130.217C37.1004 129.885 37.1728 129.509 37.1335 129.136C37.0942 128.763 36.945 128.41 36.7047 128.122C36.4644 127.834 36.1438 127.623 35.7834 127.517C35.4231 127.41 35.0392 127.413 34.6803 127.524C34.3214 127.635 34.0036 127.85 33.7671 128.141C33.4499 128.532 33.3014 129.032 33.354 129.532C33.4067 130.032 33.6563 130.491 34.048 130.807Z" fill="url(#paint5_linear_1709_12793)"/>
<path d="M40.8768 126.805C41.0764 126.966 41.3195 127.064 41.5752 127.088C41.831 127.111 42.0879 127.058 42.3136 126.936C42.5393 126.814 42.7235 126.628 42.843 126.401C42.9625 126.174 43.0119 125.917 42.985 125.662C42.958 125.407 42.8559 125.166 42.6916 124.969C42.5273 124.773 42.3081 124.629 42.0618 124.556C41.8156 124.483 41.5532 124.485 41.308 124.562C41.0628 124.638 40.8457 124.785 40.6843 124.984C40.4679 125.251 40.3667 125.593 40.4028 125.934C40.4389 126.275 40.6094 126.589 40.8768 126.805Z" fill="url(#paint6_linear_1709_12793)"/>
<path d="M2.41063 96.3565C2.8874 96.3565 3.35347 96.2154 3.7499 95.9512C4.14633 95.687 4.4553 95.3114 4.63776 94.872C4.82021 94.4325 4.86795 93.949 4.77493 93.4825C4.68192 93.016 4.45233 92.5875 4.1152 92.2512C3.77807 91.9149 3.34853 91.6859 2.88092 91.5931C2.4133 91.5003 1.9286 91.5479 1.48812 91.7299C1.04764 91.9119 0.671147 92.2202 0.406264 92.6156C0.14138 93.0111 0 93.4761 0 93.9517C0 94.5895 0.253976 95.2011 0.706056 95.6521C1.15814 96.1031 1.77129 96.3565 2.41063 96.3565Z" fill="url(#paint7_linear_1709_12793)"/>
</g>
<path d="M42.3457 20.2385L42.3457 120.737C42.3457 123.631 44.6971 125.977 47.5976 125.977H86.8409C89.7415 125.977 92.0928 123.631 92.0928 120.737V20.2385C92.0928 17.345 89.7415 14.9993 86.8409 14.9993H47.5976C44.6971 14.9993 42.3457 17.345 42.3457 20.2385Z" fill="#F6F2ED"/>
<path d="M43.1338 20.2392L43.1338 120.738C43.1338 123.198 45.1324 125.191 47.5979 125.191H86.8412C89.3067 125.191 91.3054 123.198 91.3054 120.738V20.2392C91.3054 17.7797 89.3067 15.7859 86.8412 15.7859H47.5979C45.1324 15.7859 43.1338 17.7797 43.1338 20.2392Z" stroke="#272421" stroke-width="1.5"/>
<path d="M48.7334 25.8254L48.7334 115.152C48.7334 117.612 50.7321 119.605 53.1975 119.605H80.8677C83.3332 119.605 85.3319 117.612 85.3319 115.152V25.8254C85.3319 23.3659 83.3332 21.3721 80.8677 21.3721H53.1975C50.7321 21.3721 48.7334 23.3659 48.7334 25.8254Z" stroke="#272421" stroke-width="1.5" stroke-dasharray="1.5 2"/>
<path d="M79.2316 24.3369H54.951C53.2106 24.3369 51.7998 25.7443 51.7998 27.4804V113.992C51.7998 115.728 53.2106 117.135 54.951 117.135H79.2316C80.9719 117.135 82.3827 115.728 82.3827 113.992V27.4804C82.3827 25.7443 80.9719 24.3369 79.2316 24.3369Z" fill="#272421"/>
<path d="M75.2909 85.3545H58.6844C56.944 85.3545 55.5332 86.7619 55.5332 88.498V106.046C55.5332 107.782 56.944 109.19 58.6844 109.19H75.2909C77.0312 109.19 78.442 107.782 78.442 106.046V88.498C78.442 86.7619 77.0312 85.3545 75.2909 85.3545Z" fill="#F6F2ED"/>
<path d="M73.356 73.83C73.356 70.4133 70.5796 67.6436 67.1546 67.6436C63.7296 67.6436 60.9531 70.4133 60.9531 73.83C60.9531 77.2467 63.7296 80.0165 67.1546 80.0165C70.5796 80.0165 73.356 77.2467 73.356 73.83Z" fill="#F6F2ED"/>
<path d="M74.5477 34.6484H60.1785C58.4382 34.6484 57.0273 36.0558 57.0273 37.792V60.3751C57.0273 62.1113 58.4382 63.5187 60.1785 63.5187H74.5477C76.288 63.5187 77.6989 62.1113 77.6989 60.3751V37.792C77.6989 36.0558 76.288 34.6484 74.5477 34.6484Z" fill="#F6F2ED"/>
<path d="M64.1191 29.4219H70.1893" stroke="#F6F2ED" stroke-width="3" stroke-linecap="round" stroke-linejoin="round"/>
<rect x="23.5186" y="0.75" width="32.1559" height="32.1558" rx="16.0779" fill="url(#paint8_linear_1709_12793)"/>
<rect x="23.5186" y="0.75" width="32.1559" height="32.1558" rx="16.0779" stroke="#F9F4F0" stroke-width="1.5"/>
<path d="M44.7298 12L37.1069 19.323L33.6062 15.7232L31.7686 17.4202L36.1558 21.9331C36.2716 22.0522 36.4106 22.1476 36.5646 22.2137C36.7187 22.2798 36.8847 22.3154 37.053 22.3182H37.0741C37.4064 22.318 37.7253 22.1903 37.9619 21.9628L46.5089 13.7565L44.7298 12Z" fill="#F6F2ED"/>
<defs>
<linearGradient id="paint0_linear_1709_12793" x1="86.2476" y1="29.6137" x2="115.779" y2="22.8636" gradientUnits="userSpaceOnUse">
<stop stop-color="#846E55"/>
<stop offset="1" stop-color="#B3A55C"/>
</linearGradient>
<linearGradient id="paint1_linear_1709_12793" x1="103.13" y1="40.0946" x2="101.533" y2="42.1321" gradientUnits="userSpaceOnUse">
<stop stop-color="#846E55"/>
<stop offset="1" stop-color="#B3A55C"/>
</linearGradient>
<linearGradient id="paint2_linear_1709_12793" x1="99.9931" y1="40.6901" x2="98.9028" y2="42.0808" gradientUnits="userSpaceOnUse">
<stop stop-color="#846E55"/>
<stop offset="1" stop-color="#B3A55C"/>
</linearGradient>
<linearGradient id="paint3_linear_1709_12793" x1="102.914" y1="21.69" x2="106.11" y2="20.9596" gradientUnits="userSpaceOnUse">
<stop stop-color="#846E55"/>
<stop offset="1" stop-color="#B3A55C"/>
</linearGradient>
<linearGradient id="paint4_linear_1709_12793" x1="5.10879" y1="82.466" x2="75.2455" y2="114.011" gradientUnits="userSpaceOnUse">
<stop stop-color="#846E55"/>
<stop offset="1" stop-color="#B3A55C"/>
</linearGradient>
<linearGradient id="paint5_linear_1709_12793" x1="34.8049" y1="126.771" x2="37.7684" y2="132.643" gradientUnits="userSpaceOnUse">
<stop stop-color="#846E55"/>
<stop offset="1" stop-color="#B3A55C"/>
</linearGradient>
<linearGradient id="paint6_linear_1709_12793" x1="41.394" y1="124.047" x2="43.4188" y2="128.059" gradientUnits="userSpaceOnUse">
<stop stop-color="#846E55"/>
<stop offset="1" stop-color="#B3A55C"/>
</linearGradient>
<linearGradient id="paint7_linear_1709_12793" x1="-0.073607" y1="91.774" x2="7.54815" y2="95.202" gradientUnits="userSpaceOnUse">
<stop stop-color="#846E55"/>
<stop offset="1" stop-color="#B3A55C"/>
</linearGradient>
<linearGradient id="paint8_linear_1709_12793" x1="22.2547" y1="1.5893" x2="75.5033" y2="25.4807" gradientUnits="userSpaceOnUse">
<stop stop-color="#846E55"/>
<stop offset="1" stop-color="#B3A55C"/>
</linearGradient>
</defs>
</svg>
