<svg width="42" height="42" viewBox="0 0 42 42" fill="none" xmlns="http://www.w3.org/2000/svg">
<g clip-path="url(#clip0_431_4959)">
<path d="M20.809 8.35426C22.0987 8.3529 23.3808 8.55264 24.609 8.94627C24.609 8.94627 23.264 5.51127 23.054 4.97527L18.561 4.97527C18.35 5.51227 17.008 8.94727 17.008 8.94727C18.2365 8.55324 19.5189 8.35317 20.809 8.35426Z" fill="url(#paint0_linear_431_4959)"/>
<path d="M31.876 15.1021C31.876 15.1021 33.359 11.7251 33.589 11.1961L30.417 8.02305C29.89 8.25305 26.517 9.73605 26.517 9.73605C28.8144 10.9286 30.6864 12.8031 31.876 15.1021Z" fill="url(#paint1_linear_431_4959)"/>
<path d="M9.73793 15.103C10.9303 12.8026 12.8059 10.9281 15.1069 9.73703C15.1069 9.73703 11.7289 8.25402 11.2009 8.02402L8.02493 11.197C8.25593 11.725 9.73793 15.103 9.73793 15.103Z" fill="url(#paint2_linear_431_4959)"/>
<path d="M8.94397 24.6001C8.15588 22.1325 8.15588 19.4807 8.94397 17.0131C8.94397 17.0131 5.50997 18.3521 4.97397 18.5621L4.97397 23.0511C5.50997 23.2611 8.94397 24.6001 8.94397 24.6001Z" fill="url(#paint3_linear_431_4959)"/>
<path d="M32.67 24.6001C32.67 24.6001 36.103 23.2611 36.64 23.0501V18.5621C36.103 18.3511 32.67 17.0121 32.67 17.0121C33.4576 19.4798 33.4576 22.1314 32.67 24.5991V24.6001Z" fill="url(#paint4_linear_431_4959)"/>
<path d="M11.1999 33.5881C11.7269 33.3581 15.1069 31.8751 15.1069 31.8751C12.806 30.6839 10.9304 28.8094 9.73793 26.5091C9.73793 26.5091 8.25493 29.8871 8.02493 30.4151L11.1999 33.5881Z" fill="url(#paint5_linear_431_4959)"/>
<path d="M30.413 33.5881L33.589 30.4141C33.358 29.8861 31.876 26.5141 31.876 26.5141C30.684 28.8144 28.8087 30.689 26.508 31.8801C26.508 31.8801 29.886 33.3581 30.413 33.5881Z" fill="url(#paint6_linear_431_4959)"/>
<path d="M18.56 36.6372H23.053C23.264 36.1002 24.606 32.6662 24.606 32.6662C22.1343 33.4565 19.4776 33.4565 17.006 32.6662C17.006 32.6662 18.353 36.1002 18.56 36.6372Z" fill="url(#paint7_linear_431_4959)"/>
<path d="M0.758001 26.7351C0.758001 26.7351 2.113 27.2721 3.698 27.8931C3.018 29.4511 2.44 30.7931 2.44 30.7931C2.34452 31.0139 2.31759 31.2583 2.3627 31.4945C2.40781 31.7308 2.52289 31.9481 2.693 32.1181L9.5 38.9221C9.67014 39.0924 9.88758 39.2076 10.1241 39.2528C10.3605 39.2979 10.6051 39.2708 10.826 39.1751C10.826 39.1751 12.162 38.5971 13.719 37.9171C14.34 39.4991 14.876 40.8531 14.876 40.8531C14.9645 41.0771 15.1184 41.2693 15.3176 41.4047C15.5168 41.54 15.7521 41.6123 15.993 41.6121H25.621C25.8619 41.6123 26.0972 41.54 26.2964 41.4047C26.4956 41.2693 26.6495 41.0771 26.738 40.8531C26.738 40.8531 27.275 39.4991 27.895 37.9171C29.452 38.5971 30.788 39.1751 30.788 39.1751C31.0089 39.2708 31.2535 39.2979 31.4899 39.2528C31.7264 39.2076 31.9439 39.0924 32.114 38.9221L38.924 32.1161C39.0945 31.9459 39.2098 31.7283 39.255 31.4916C39.3001 31.2549 39.2729 31.0101 39.177 30.7891C39.177 30.7891 38.598 29.4511 37.916 27.8891C39.5 27.2681 40.855 26.7311 40.855 26.7311C41.0792 26.6428 41.2716 26.489 41.4071 26.2897C41.5427 26.0905 41.6151 25.8551 41.615 25.6141V15.9931C41.6152 15.7523 41.5429 15.5169 41.4075 15.3177C41.2722 15.1185 41.08 14.9646 40.856 14.8761C40.856 14.8761 39.501 14.3391 37.917 13.7181C38.598 12.1611 39.178 10.8181 39.178 10.8181C39.2739 10.5971 39.3011 10.3523 39.256 10.1156C39.2108 9.87896 39.0955 9.66134 38.925 9.49112L32.115 2.68512C31.9449 2.5148 31.7274 2.3996 31.4909 2.35449C31.2545 2.30937 31.0099 2.33641 30.789 2.43212C30.789 2.43212 29.453 3.01012 27.896 3.69012C27.275 2.10812 26.739 0.754118 26.739 0.754118C26.6505 0.53012 26.4966 0.33794 26.2974 0.202574C26.0982 0.0672088 25.8629 -0.00507743 25.622 -0.00488242H15.994C15.7531 -0.00507743 15.5178 0.0672088 15.3186 0.202574C15.1194 0.33794 14.9655 0.53012 14.877 0.754118C14.877 0.754118 14.34 2.10812 13.72 3.69012C12.163 3.01012 10.827 2.43212 10.827 2.43212C10.606 2.33619 10.3612 2.30903 10.1245 2.35415C9.88784 2.39928 9.67023 2.5146 9.5 2.68512L2.693 9.49712C2.52289 9.66718 2.40781 9.88443 2.3627 10.1207C2.31759 10.357 2.34452 10.6013 2.44 10.8221C2.44 10.8221 3.018 12.1611 3.698 13.7221C2.113 14.3431 0.758001 14.8801 0.758001 14.8801C0.534823 14.9685 0.343294 15.1219 0.208167 15.3203C0.0730403 15.5187 0.00052764 15.7531 7.79152e-07 15.9931V25.6181C-0.000273487 25.8589 0.0718656 26.0941 0.207044 26.2933C0.342222 26.4925 0.53419 26.6464 0.758001 26.7351ZM2.4 16.8101C3.185 16.5001 4.472 15.9931 5.734 15.5011C5.88482 15.4424 6.02221 15.3539 6.13791 15.2407C6.25361 15.1276 6.34523 14.9922 6.40725 14.8427C6.46928 14.6933 6.50044 14.5328 6.49885 14.371C6.49726 14.2092 6.46295 14.0493 6.398 13.9011C5.853 12.6621 5.298 11.3931 4.967 10.6191L10.618 4.96812C11.392 5.30412 12.658 5.85512 13.896 6.39812C14.0442 6.4631 14.2039 6.49745 14.3657 6.49911C14.5275 6.50076 14.6879 6.46969 14.8374 6.40776C14.9868 6.34583 15.1222 6.25432 15.2354 6.13872C15.3486 6.02313 15.4372 5.88584 15.496 5.73512C15.988 4.47512 16.496 3.18912 16.805 2.40412H24.8C25.11 3.18912 25.617 4.47512 26.109 5.73512C26.1678 5.88584 26.2564 6.02313 26.3696 6.13872C26.4828 6.25432 26.6182 6.34583 26.7676 6.40776C26.9171 6.46969 27.0775 6.50076 27.2393 6.49911C27.4011 6.49745 27.5608 6.4631 27.709 6.39812C28.947 5.85412 30.209 5.30412 30.987 4.96812L36.642 10.6191C36.305 11.3941 35.753 12.6631 35.209 13.9011C35.144 14.0493 35.1097 14.2092 35.1082 14.371C35.1066 14.5328 35.1377 14.6933 35.1997 14.8427C35.2618 14.9922 35.3534 15.1276 35.4691 15.2407C35.5848 15.3539 35.7222 15.4424 35.873 15.5011C37.135 15.9931 38.421 16.5011 39.207 16.8101V24.8021C38.422 25.1121 37.135 25.6191 35.873 26.1111C35.7222 26.1698 35.5848 26.2584 35.4691 26.3715C35.3534 26.4847 35.2618 26.62 35.1997 26.7695C35.1377 26.919 35.1066 27.0794 35.1082 27.2413C35.1097 27.4031 35.144 27.5629 35.209 27.7111C35.753 28.9501 36.309 30.2181 36.642 30.9931L30.993 36.6451C30.219 36.3091 28.953 35.7581 27.715 35.2151C27.5668 35.1501 27.4071 35.1158 27.2453 35.1141C27.0835 35.1125 26.9231 35.1435 26.7736 35.2055C26.6242 35.2674 26.4888 35.3589 26.3756 35.4745C26.2624 35.5901 26.1738 35.7274 26.115 35.8781C25.623 37.1381 25.115 38.4241 24.806 39.2091H16.81C16.499 38.4241 15.993 37.1381 15.501 35.8781C15.4422 35.7274 15.3536 35.5901 15.2404 35.4745C15.1272 35.3589 14.9918 35.2674 14.8424 35.2055C14.6929 35.1435 14.5325 35.1125 14.3707 35.1141C14.2089 35.1158 14.0492 35.1501 13.901 35.2151C12.663 35.7591 11.401 36.3101 10.623 36.6451L4.969 30.9941C5.305 30.2201 5.856 28.9511 6.4 27.7121C6.46496 27.5639 6.49926 27.4041 6.50085 27.2423C6.50244 27.0804 6.47128 26.92 6.40925 26.7705C6.34723 26.621 6.25561 26.4857 6.13991 26.3725C6.02421 26.2594 5.88682 26.1708 5.736 26.1121C4.474 25.6201 3.188 25.1121 2.402 24.8031V16.8101H2.4Z" fill="#F6F2ED"/>
<path d="M20.809 30.6851C22.763 30.6845 24.6729 30.1045 26.2972 29.0185C27.9216 27.9325 29.1875 26.3893 29.9348 24.5839C30.6822 22.7785 30.8774 20.7921 30.4958 18.8757C30.1143 16.9594 29.173 15.1992 27.7912 13.8178C26.4093 12.4363 24.6489 11.4957 22.7324 11.1147C20.816 10.7337 18.8296 10.9295 17.0244 11.6774C15.2193 12.4253 13.6764 13.6916 12.5909 15.3163C11.5054 16.941 10.926 18.8511 10.926 20.8051C10.9289 23.425 11.9712 25.9368 13.8241 27.7891C15.677 29.6414 18.1891 30.6829 20.809 30.6851ZM20.809 13.3281C22.2877 13.3288 23.7329 13.768 24.9619 14.5901C26.191 15.4122 27.1487 16.5802 27.714 17.9465C28.2793 19.3128 28.4268 20.8161 28.1379 22.2662C27.8489 23.7163 27.1365 25.0482 26.0907 26.0935C25.0448 27.1388 23.7125 27.8505 22.2622 28.1387C20.812 28.4269 19.3088 28.2786 17.9428 27.7125C16.5768 27.1465 15.4093 26.1881 14.5879 24.9586C13.7664 23.7291 13.328 22.2837 13.328 20.8051C13.3307 18.8222 14.1199 16.9215 15.5224 15.5199C16.9249 14.1183 18.8262 13.3294 20.809 13.3281Z" fill="#F6F2ED"/>
</g>
<defs>
<linearGradient id="paint0_linear_431_4959" x1="24.7251" y1="8.7597" x2="16.4089" y2="1.6194" gradientUnits="userSpaceOnUse">
<stop stop-color="#A58969"/>
<stop offset="1" stop-color="#C7B664"/>
</linearGradient>
<linearGradient id="paint1_linear_431_4959" x1="33.697" y1="14.7678" x2="22.5043" y2="9.75085" gradientUnits="userSpaceOnUse">
<stop stop-color="#A58969"/>
<stop offset="1" stop-color="#C7B664"/>
</linearGradient>
<linearGradient id="paint2_linear_431_4959" x1="15.2151" y1="14.7687" x2="4.01186" y2="9.74001" gradientUnits="userSpaceOnUse">
<stop stop-color="#A58969"/>
<stop offset="1" stop-color="#C7B664"/>
</linearGradient>
<linearGradient id="paint3_linear_431_4959" x1="9.00458" y1="24.2418" x2="1.85317" y2="22.5628" gradientUnits="userSpaceOnUse">
<stop stop-color="#A58969"/>
<stop offset="1" stop-color="#C7B664"/>
</linearGradient>
<linearGradient id="paint4_linear_431_4959" x1="36.7006" y1="24.2418" x2="29.5491" y2="22.563" gradientUnits="userSpaceOnUse">
<stop stop-color="#A58969"/>
<stop offset="1" stop-color="#C7B664"/>
</linearGradient>
<linearGradient id="paint5_linear_431_4959" x1="15.2151" y1="33.2538" x2="4.01186" y2="28.2251" gradientUnits="userSpaceOnUse">
<stop stop-color="#A58969"/>
<stop offset="1" stop-color="#C7B664"/>
</linearGradient>
<linearGradient id="paint6_linear_431_4959" x1="33.6971" y1="33.2541" x2="22.4976" y2="28.2242" gradientUnits="userSpaceOnUse">
<stop stop-color="#A58969"/>
<stop offset="1" stop-color="#C7B664"/>
</linearGradient>
<linearGradient id="paint7_linear_431_4959" x1="24.722" y1="36.4497" x2="16.4078" y2="29.3102" gradientUnits="userSpaceOnUse">
<stop stop-color="#A58969"/>
<stop offset="1" stop-color="#C7B664"/>
</linearGradient>
<clipPath id="clip0_431_4959">
<rect width="41.615" height="41.612" fill="white"/>
</clipPath>
</defs>
</svg>
