<svg width="20" height="20" viewBox="0 0 20 20" fill="none" xmlns="http://www.w3.org/2000/svg">
<path d="M16.25 1.875V18.125C16.25 19.1605 15.4105 20 14.375 20H5.625C4.58945 20 3.75 19.1605 3.75 18.125V1.875C3.75 0.839453 4.58945 0 5.625 0H14.375C15.4105 0 16.25 0.839453 16.25 1.875ZM20 4.14062V4.60938C20 4.67154 19.9753 4.73115 19.9314 4.7751C19.8874 4.81906 19.8278 4.84375 19.7656 4.84375H19.0625V5.07812C19.0625 5.14029 19.0378 5.1999 18.9939 5.24385C18.9499 5.28781 18.8903 5.3125 18.8281 5.3125H17.1875V3.4375H18.8281C18.8903 3.4375 18.9499 3.46219 18.9939 3.50615C19.0378 3.5501 19.0625 3.60971 19.0625 3.67188V3.90625H19.7656C19.8278 3.90625 19.8874 3.93094 19.9314 3.9749C19.9753 4.01885 20 4.07846 20 4.14062ZM20 7.89062V8.35938C20 8.42154 19.9753 8.48115 19.9314 8.5251C19.8874 8.56906 19.8278 8.59375 19.7656 8.59375H19.0625V8.82812C19.0625 8.89029 19.0378 8.9499 18.9939 8.99385C18.9499 9.03781 18.8903 9.0625 18.8281 9.0625H17.1875V7.1875H18.8281C18.8903 7.1875 18.9499 7.21219 18.9939 7.25615C19.0378 7.3001 19.0625 7.35971 19.0625 7.42188V7.65625H19.7656C19.8278 7.65625 19.8874 7.68094 19.9314 7.7249C19.9753 7.76885 20 7.82846 20 7.89062ZM20 11.6406V12.1094C20 12.1715 19.9753 12.2311 19.9314 12.2751C19.8874 12.3191 19.8278 12.3438 19.7656 12.3438H19.0625V12.5781C19.0625 12.6403 19.0378 12.6999 18.9939 12.7439C18.9499 12.7878 18.8903 12.8125 18.8281 12.8125H17.1875V10.9375H18.8281C18.8903 10.9375 18.9499 10.9622 18.9939 11.0061C19.0378 11.0501 19.0625 11.1097 19.0625 11.1719V11.4062H19.7656C19.8278 11.4062 19.8874 11.4309 19.9314 11.4749C19.9753 11.5189 20 11.5785 20 11.6406ZM20 15.3906V15.8594C20 15.9215 19.9753 15.9811 19.9314 16.0251C19.8874 16.0691 19.8278 16.0938 19.7656 16.0938H19.0625V16.3281C19.0625 16.3903 19.0378 16.4499 18.9939 16.4939C18.9499 16.5378 18.8903 16.5625 18.8281 16.5625H17.1875V14.6875H18.8281C18.8903 14.6875 18.9499 14.7122 18.9939 14.7561C19.0378 14.8001 19.0625 14.8597 19.0625 14.9219V15.1562H19.7656C19.8278 15.1562 19.8874 15.1809 19.9314 15.2249C19.9753 15.2689 20 15.3285 20 15.3906ZM1.17188 14.6875H2.8125V16.5625H1.17188C1.10971 16.5625 1.0501 16.5378 1.00615 16.4939C0.962193 16.4499 0.9375 16.3903 0.9375 16.3281V16.0938H0.234375C0.172215 16.0938 0.112601 16.0691 0.0686468 16.0251C0.024693 15.9811 0 15.9215 0 15.8594L0 15.3906C0 15.3285 0.024693 15.2689 0.0686468 15.2249C0.112601 15.1809 0.172215 15.1562 0.234375 15.1562H0.9375V14.9219C0.9375 14.8597 0.962193 14.8001 1.00615 14.7561C1.0501 14.7122 1.10971 14.6875 1.17188 14.6875ZM1.17188 10.9375H2.8125V12.8125H1.17188C1.10971 12.8125 1.0501 12.7878 1.00615 12.7439C0.962193 12.6999 0.9375 12.6403 0.9375 12.5781V12.3438H0.234375C0.172215 12.3438 0.112601 12.3191 0.0686468 12.2751C0.024693 12.2311 0 12.1715 0 12.1094L0 11.6406C0 11.5785 0.024693 11.5189 0.0686468 11.4749C0.112601 11.4309 0.172215 11.4062 0.234375 11.4062H0.9375V11.1719C0.9375 11.1097 0.962193 11.0501 1.00615 11.0061C1.0501 10.9622 1.10971 10.9375 1.17188 10.9375ZM1.17188 7.1875H2.8125V9.0625H1.17188C1.10971 9.0625 1.0501 9.03781 1.00615 8.99385C0.962193 8.9499 0.9375 8.89029 0.9375 8.82812V8.59375H0.234375C0.172215 8.59375 0.112601 8.56906 0.0686468 8.5251C0.024693 8.48115 0 8.42154 0 8.35938L0 7.89062C0 7.82846 0.024693 7.76885 0.0686468 7.7249C0.112601 7.68094 0.172215 7.65625 0.234375 7.65625H0.9375V7.42188C0.9375 7.35971 0.962193 7.3001 1.00615 7.25615C1.0501 7.21219 1.10971 7.1875 1.17188 7.1875ZM1.17188 3.4375H2.8125V5.3125H1.17188C1.10971 5.3125 1.0501 5.28781 1.00615 5.24385C0.962193 5.1999 0.9375 5.14029 0.9375 5.07812V4.84375H0.234375C0.172215 4.84375 0.112601 4.81906 0.0686468 4.7751C0.024693 4.73115 0 4.67154 0 4.60938L0 4.14062C0 4.07846 0.024693 4.01885 0.0686468 3.9749C0.112601 3.93094 0.172215 3.90625 0.234375 3.90625H0.9375V3.67188C0.9375 3.60971 0.962193 3.5501 1.00615 3.50615C1.0501 3.46219 1.10971 3.4375 1.17188 3.4375Z" fill="url(#paint0_linear_182_7260)"/>
<path d="M12.5419 8.5153C12.4409 7.62793 11.6684 7.34338 10.6981 7.27545L10.6765 6.04252L9.92599 6.05572L9.94697 7.25616C9.74965 7.25961 9.54803 7.26704 9.34772 7.27454L9.32678 6.06617L8.57663 6.07926L8.59783 7.31185C8.43539 7.31803 8.27586 7.32381 8.12026 7.32664L8.12019 7.3229L7.08499 7.34063L7.09915 8.14217C7.09915 8.14217 7.65322 8.12191 7.64419 8.13227C7.9482 8.12705 8.05022 8.30181 8.08166 8.45359L8.10621 9.85816C8.12724 9.85806 8.15457 9.85833 8.18563 9.86201C8.16061 9.86248 8.13388 9.86277 8.10636 9.86353L8.14046 11.8312C8.12882 11.9271 8.07521 12.0806 7.86281 12.0847C7.87255 12.093 7.31721 12.0941 7.31721 12.0941L7.18369 12.9929L8.16044 12.9758C8.34221 12.9729 8.5211 12.9728 8.69669 12.9709L8.71875 14.2178L9.46849 14.2048L9.44697 12.9711C9.6529 12.9717 9.85215 12.9699 10.0466 12.9663L10.0677 14.1944L10.8183 14.1812L10.7968 12.9364C12.0574 12.842 12.935 12.5087 13.024 11.3219C13.0959 10.3663 12.6397 9.94851 11.9204 9.78905C12.3517 9.55988 12.6168 9.1646 12.5419 8.5153ZM11.5383 11.2C11.555 12.1319 9.95734 12.0538 9.44868 12.0631L9.42008 10.411C9.92889 10.4022 11.5214 10.228 11.5383 11.2ZM11.1486 8.87512C11.1631 9.72294 9.83057 9.64727 9.40688 9.65472L9.3808 8.15628C9.8045 8.14884 11.1331 7.99084 11.1486 8.87512Z" fill="#272421"/>
<defs>
<linearGradient id="paint0_linear_182_7260" x1="-0.305344" y1="0.944445" x2="31.3376" y2="15.1419" gradientUnits="userSpaceOnUse">
<stop stop-color="#A58969"/>
<stop offset="1" stop-color="#C7B664"/>
</linearGradient>
</defs>
</svg>
