<svg width="226" height="220" viewBox="0 0 226 220" fill="none" xmlns="http://www.w3.org/2000/svg">
<path d="M109.372 189.342C155.448 189.342 192.798 151.991 192.798 105.916C192.798 59.8413 155.448 22.4902 109.372 22.4902C63.2974 22.4902 25.9463 59.8413 25.9463 105.916C25.9463 151.991 63.2974 189.342 109.372 189.342Z" fill="#C3B075" fill-opacity="0.1"/>
<path opacity="0.3" d="M204.914 137.731C206.328 137.731 207.709 137.312 208.885 136.526C210.06 135.741 210.976 134.625 211.517 133.319C212.058 132.013 212.199 130.576 211.924 129.19C211.648 127.804 210.967 126.53 209.968 125.531C208.968 124.531 207.695 123.851 206.308 123.575C204.922 123.299 203.485 123.441 202.179 123.982C200.873 124.522 199.757 125.438 198.972 126.614C198.187 127.789 197.768 129.171 197.768 130.584C197.768 132.479 198.521 134.297 199.861 135.637C201.201 136.978 203.019 137.731 204.914 137.731Z" fill="url(#paint0_linear_865_41672)"/>
<path opacity="0.2" d="M215.374 109.839C216.34 109.839 217.285 109.552 218.088 109.016C218.891 108.479 219.517 107.716 219.887 106.824C220.257 105.931 220.353 104.949 220.165 104.002C219.976 103.054 219.511 102.184 218.828 101.501C218.145 100.818 217.275 100.353 216.327 100.164C215.38 99.9757 214.398 100.072 213.505 100.442C212.613 100.812 211.85 101.438 211.313 102.241C210.777 103.044 210.49 103.988 210.49 104.954C210.49 106.25 211.005 107.492 211.921 108.408C212.837 109.324 214.079 109.839 215.374 109.839Z" fill="url(#paint1_linear_865_41672)"/>
<path opacity="0.3" d="M13.2534 82.7352C15.046 82.7352 16.7984 82.2036 18.289 81.2076C19.7795 80.2117 20.9413 78.7961 21.6273 77.1399C22.3133 75.4837 22.4928 73.6612 22.1431 71.903C21.7934 70.1448 20.9301 68.5298 19.6625 67.2622C18.3949 65.9946 16.7799 65.1313 15.0216 64.7816C13.2634 64.4319 11.441 64.6113 9.78475 65.2974C8.12854 65.9834 6.71295 67.1451 5.717 68.6357C4.72104 70.1262 4.18945 71.8786 4.18945 73.6713C4.18945 76.0752 5.1444 78.3806 6.84421 80.0804C8.54402 81.7802 10.8495 82.7352 13.2534 82.7352Z" fill="url(#paint2_linear_865_41672)"/>
<path opacity="0.2" d="M192.888 50.2371C193.854 50.2371 194.798 49.9507 195.602 49.414C196.405 48.8773 197.031 48.1145 197.401 47.222C197.77 46.3296 197.867 45.3475 197.678 44.4001C197.49 43.4526 197.025 42.5824 196.342 41.8993C195.659 41.2162 194.788 40.7511 193.841 40.5626C192.894 40.3741 191.911 40.4709 191.019 40.8405C190.127 41.2102 189.364 41.8362 188.827 42.6394C188.29 43.4426 188.004 44.3869 188.004 45.3529C188.004 46.6483 188.518 47.8906 189.434 48.8066C190.35 49.7225 191.593 50.2371 192.888 50.2371Z" fill="url(#paint3_linear_865_41672)"/>
<path d="M74.8363 43.4491L73.8584 44.0137L74.954 45.9114L75.9319 45.3468L74.8363 43.4491Z" fill="url(#paint4_linear_865_41672)"/>
<path d="M77.8548 48.6776L76.877 49.2422L77.9726 51.1399L78.9505 50.5753L77.8548 48.6776Z" fill="url(#paint5_linear_865_41672)"/>
<path d="M79.6887 44.7501L77.791 45.8457L78.3556 46.8236L80.2533 45.728L79.6887 44.7501Z" fill="url(#paint6_linear_865_41672)"/>
<path d="M74.4592 47.7657L72.5615 48.8613L73.1261 49.8392L75.0238 48.7436L74.4592 47.7657Z" fill="url(#paint7_linear_865_41672)"/>
<path d="M46.3931 209.01H44.8848V211.937H46.3931V209.01Z" fill="url(#paint8_linear_865_41672)"/>
<path d="M46.3931 217.076H44.8848V220.003H46.3931V217.076Z" fill="url(#paint9_linear_865_41672)"/>
<path d="M51.1372 213.752H48.21V215.26H51.1372V213.752Z" fill="url(#paint10_linear_865_41672)"/>
<path d="M43.0708 213.752H40.1436V215.26H43.0708V213.752Z" fill="url(#paint11_linear_865_41672)"/>
<path d="M2.99012 64.1853C4.64152 64.1853 5.98024 62.8466 5.98024 61.1952C5.98024 59.5438 4.64152 58.2051 2.99012 58.2051C1.33872 58.2051 0 59.5438 0 61.1952C0 62.8466 1.33872 64.1853 2.99012 64.1853Z" fill="url(#paint12_linear_865_41672)"/>
<path d="M13.6188 108.273C14.9287 108.273 15.9905 107.211 15.9905 105.901C15.9905 104.591 14.9287 103.529 13.6188 103.529C12.3089 103.529 11.2471 104.591 11.2471 105.901C11.2471 107.211 12.3089 108.273 13.6188 108.273Z" fill="url(#paint13_linear_865_41672)"/>
<path d="M222.541 124.706C224.004 124.706 225.19 123.52 225.19 122.056C225.19 120.593 224.004 119.406 222.541 119.406C221.077 119.406 219.891 120.593 219.891 122.056C219.891 123.52 221.077 124.706 222.541 124.706Z" fill="url(#paint14_linear_865_41672)"/>
<path d="M168.887 130.595L168.022 129.869L166.614 131.548L167.479 132.274L168.887 130.595Z" fill="url(#paint15_linear_865_41672)"/>
<path d="M165.005 135.222L164.14 134.496L162.731 136.175L163.596 136.901L165.005 135.222Z" fill="url(#paint16_linear_865_41672)"/>
<path d="M169.331 135.6L167.652 134.191L166.927 135.056L168.605 136.465L169.331 135.6Z" fill="url(#paint17_linear_865_41672)"/>
<path d="M164.706 131.717L163.027 130.309L162.302 131.174L163.98 132.582L164.706 131.717Z" fill="url(#paint18_linear_865_41672)"/>
<path d="M186.639 41.1009C187.949 41.1009 189.011 40.039 189.011 38.7291C189.011 37.4193 187.949 36.3574 186.639 36.3574C185.329 36.3574 184.268 37.4193 184.268 38.7291C184.268 40.039 185.329 41.1009 186.639 41.1009Z" fill="url(#paint19_linear_865_41672)"/>
<path d="M110.507 24.2943C116.196 24.2943 120.808 19.6822 120.808 13.9929C120.808 8.30353 116.196 3.69141 110.507 3.69141C104.817 3.69141 100.205 8.30353 100.205 13.9929C100.205 19.6822 104.817 24.2943 110.507 24.2943Z" fill="url(#paint20_linear_865_41672)"/>
<g opacity="0.696">
<path d="M110.362 28.286C109.861 28.286 109.36 28.2405 108.859 28.1949L108.996 26.738C109.451 26.7835 109.906 26.829 110.362 26.829H110.498V28.286H110.362ZM112.047 28.1949L111.865 26.738C112.32 26.6924 112.776 26.6014 113.231 26.5103L113.55 27.9218L112.047 28.1949ZM107.31 27.9673C106.812 27.8778 106.324 27.7392 105.853 27.5534L106.309 26.1875C106.764 26.3241 107.174 26.4606 107.633 26.5517L107.31 27.9673ZM115.009 27.512L114.508 26.1461C114.922 26.0095 115.373 25.8274 115.783 25.6452L116.421 26.9697C115.963 27.1477 115.462 27.3299 115.007 27.512H115.009ZM104.444 26.9656C103.988 26.738 103.533 26.5103 103.078 26.2371L103.806 25.0078C104.22 25.2355 104.626 25.4631 105.036 25.6452L104.444 26.9656ZM117.742 26.1916L116.968 24.9623C117.365 24.7307 117.745 24.4721 118.106 24.1883L119.017 25.3265C118.604 25.5989 118.195 25.9151 117.739 26.1916H117.742ZM101.8 25.4184C101.386 25.0997 101.026 24.781 100.616 24.4167L101.617 23.3695C101.946 23.6822 102.296 23.9713 102.665 24.2346L101.8 25.4184ZM120.153 24.3257L119.152 23.2785C119.479 22.9666 119.783 22.6319 120.062 22.2768L121.155 23.1874C120.859 23.5979 120.523 23.9785 120.153 24.324V24.3257ZM99.6133 23.324C99.2738 22.9421 98.9691 22.5307 98.7026 22.0947L99.8864 21.2751L100.706 22.3679L99.6133 23.324ZM122.111 21.9581L120.927 21.1385C121.198 20.7706 121.427 20.3735 121.61 19.9548L122.885 20.6377C122.654 21.0923 122.396 21.5324 122.111 21.9556V21.9581ZM97.8831 20.8174C97.6554 20.362 97.4278 19.9067 97.2457 19.4514L98.6116 18.9051C98.7937 19.319 98.9758 19.7246 99.2035 20.1344L97.8831 20.8174ZM123.523 19.2685L122.158 18.7221C122.343 18.297 122.482 17.8529 122.571 17.3976L123.983 17.7618C123.857 18.272 123.704 18.775 123.523 19.2685ZM96.744 17.9936C96.6074 17.4928 96.5163 16.992 96.4253 16.4911L97.8367 16.2635C97.916 16.711 98.0224 17.1534 98.1554 17.588L96.744 17.9936ZM124.297 16.3123L122.886 16.0847C122.977 15.6294 122.977 15.1741 123.023 14.7188L124.48 14.7643C124.434 15.3065 124.389 15.8073 124.297 16.3123ZM96.2432 14.9878V13.4389L97.7001 13.53V14.8959L96.2432 14.9878ZM122.977 13.3479C122.932 12.8926 122.886 12.4373 122.795 11.982L124.206 11.7543C124.297 12.2551 124.343 12.756 124.389 13.2576L122.977 13.3479ZM97.8376 12.1641L96.4261 11.9364C96.5172 11.4356 96.6082 10.9348 96.7448 10.4331L98.1563 10.7973C98.0071 11.2418 97.9003 11.6994 97.8376 12.1641ZM122.522 10.6616C122.398 10.2273 122.245 9.80145 122.066 9.38673L123.391 8.84036C123.585 9.31623 123.752 9.80265 123.892 10.2973L122.522 10.6616ZM98.5661 9.52415L97.2001 8.97778C97.385 8.51009 97.5979 8.05395 97.8376 7.61186L99.1124 8.29482C98.903 8.69193 98.7205 9.10263 98.5661 9.52415ZM121.475 8.15823C121.247 7.74431 121.019 7.38421 120.746 6.97444L121.93 6.15489C122.203 6.5688 122.476 7.01997 122.749 7.47941L121.475 8.15823ZM99.8409 7.10855L98.6571 6.289C98.9303 5.87508 99.249 5.46945 99.5677 5.05967L100.66 6.01581C100.338 6.34003 100.062 6.70785 99.8409 7.10855ZM119.926 5.8817C119.607 5.51746 119.288 5.19875 118.97 4.88004L119.971 3.83284C120.335 4.19708 120.7 4.56132 121.018 4.92556L119.926 5.8817ZM101.572 5.01663L100.57 3.96943C100.934 3.60518 101.344 3.28646 101.708 2.96775L102.574 4.10601C102.255 4.37588 101.936 4.69542 101.572 5.01414V5.01663ZM117.922 4.01496C117.56 3.73111 117.18 3.47249 116.783 3.24093L117.512 2.01161C117.954 2.27354 118.38 2.56246 118.787 2.8767L117.922 4.01496ZM103.757 3.332L102.983 2.10267C103.409 1.83284 103.852 1.58956 104.308 1.37419L104.945 2.69871C104.535 2.88121 104.138 3.0917 103.757 3.32869V3.332ZM115.595 2.60352C115.182 2.40928 114.756 2.24197 114.32 2.10267L114.776 0.736765C115.277 0.918887 115.732 1.10101 116.187 1.28313L115.595 2.60352ZM106.214 2.1896L105.763 0.823683C106.236 0.643736 106.723 0.505244 107.22 0.40977L107.539 1.82122C107.087 1.90156 106.645 2.0252 106.217 2.19043L106.214 2.1896ZM113.002 1.77569C112.546 1.68463 112.091 1.59356 111.636 1.54803L111.772 0.0910614C112.273 0.136592 112.774 0.227648 113.275 0.318709L113.002 1.77569ZM108.903 1.54803L108.721 0.0910614C109.222 0.045531 109.723 0 110.224 0V1.45697C109.815 1.50664 109.359 1.50664 108.904 1.553L108.903 1.54803Z" fill="#272421"/>
</g>
<path d="M114.377 12.0292C114.377 12.8662 114.331 13.7064 114.386 14.54C114.467 15.3354 114.376 16.139 114.119 16.896C113.862 17.6531 113.445 18.3459 112.896 18.9275C112.731 19.1088 112.594 19.3232 112.433 19.5128C112.143 19.853 112.047 20.464 111.6 20.5335C110.837 20.6084 110.07 20.6225 109.304 20.5757C109.073 20.5757 108.947 20.3787 108.852 20.2048C108.434 19.5054 107.943 18.8518 107.389 18.2545C106.687 17.4108 106.316 16.3408 106.344 15.2437C106.323 13.0044 106.348 10.7643 106.329 8.52505C106.324 7.95136 106.539 7.68894 107.119 7.69142C109.268 7.69915 111.417 7.69915 113.567 7.69142C114.131 7.69142 114.395 7.91411 114.384 8.50104C114.363 9.67738 114.378 10.8529 114.377 12.0292ZM110.342 9.44641C109.573 9.44641 108.805 9.46132 108.037 9.44063C107.623 9.42986 107.47 9.59708 107.472 9.99774C107.482 11.5563 107.482 13.1151 107.472 14.6741C107.472 15.0516 107.638 15.2056 107.998 15.2056C109.557 15.2023 111.116 15.2023 112.675 15.2056C113.069 15.2056 113.244 15.0558 113.24 14.6427C113.227 13.1068 113.227 11.5706 113.24 10.0342C113.24 9.60205 113.088 9.4249 112.643 9.43897C111.876 9.46298 111.107 9.44559 110.338 9.44559" fill="#272421"/>
<path d="M180.207 55.9858C185.896 55.9858 190.508 51.3736 190.508 45.6843C190.508 39.9949 185.896 35.3828 180.207 35.3828C174.517 35.3828 169.905 39.9949 169.905 45.6843C169.905 51.3736 174.517 55.9858 180.207 55.9858Z" fill="url(#paint21_linear_865_41672)"/>
<g opacity="0.696">
<path d="M180.061 59.9813C179.56 59.9813 179.059 59.9358 178.559 59.8903L178.695 58.4333C179.15 58.4788 179.606 58.5243 180.061 58.5243H180.198V59.9813H180.061ZM181.746 59.8903L181.564 58.4333C182.02 58.3877 182.475 58.2967 182.93 58.2056L183.249 59.6171L181.746 59.8903ZM177.01 59.6626C176.511 59.5731 176.023 59.4345 175.553 59.2487L176.008 57.8828C176.463 58.0194 176.873 58.156 177.332 58.247L177.01 59.6626ZM184.708 59.2073L184.208 57.8414C184.622 57.7048 185.073 57.5227 185.482 57.3405L186.12 58.6651C185.662 58.843 185.161 59.0252 184.706 59.2073H184.708ZM174.143 58.6609C173.688 58.4333 173.232 58.2056 172.777 57.9324L173.505 56.7031C173.919 56.9308 174.325 57.1584 174.735 57.3405L174.143 58.6609ZM187.441 57.8869L186.667 56.6576C187.064 56.426 187.444 56.1674 187.805 55.8836L188.716 57.0218C188.304 57.2942 187.894 57.6104 187.439 57.8869H187.441ZM171.499 57.1137C171.085 56.795 170.725 56.4763 170.315 56.112L171.317 55.0648C171.645 55.3776 171.995 55.6666 172.364 55.9299L171.499 57.1137ZM189.853 56.021L188.851 54.9738C189.178 54.6619 189.482 54.3272 189.762 53.9721L190.854 54.8827C190.558 55.2932 190.223 55.6739 189.853 56.0193V56.021ZM169.312 55.0193C168.973 54.6374 168.668 54.226 168.402 53.79L169.586 52.9704L170.405 54.0632L169.312 55.0193ZM191.81 53.6534L190.627 52.8339C190.898 52.4659 191.127 52.0688 191.31 51.6501L192.584 52.333C192.353 52.7876 192.095 53.2278 191.81 53.6509V53.6534ZM167.582 52.5127C167.355 52.0574 167.127 51.602 166.945 51.1467L168.311 50.6004C168.493 51.0143 168.675 51.4199 168.903 51.8297L167.582 52.5127ZM193.223 50.9638L191.857 50.4174C192.043 49.9923 192.181 49.5482 192.271 49.0929L193.682 49.4571C193.556 49.9673 193.403 50.4703 193.223 50.9638ZM166.443 49.6889C166.307 49.1881 166.216 48.6873 166.125 48.1864L167.536 47.9588C167.615 48.4063 167.722 48.8487 167.855 49.2833L166.443 49.6889ZM193.997 48.0076L192.585 47.78C192.676 47.3247 192.676 46.8694 192.722 46.4141L194.179 46.4596C194.133 47.0018 194.089 47.5027 193.997 48.0076ZM165.942 46.6831V45.1342L167.399 45.2253V46.5912L165.942 46.6831ZM192.676 45.0432C192.631 44.5879 192.585 44.1326 192.494 43.6773L193.906 43.4496C193.997 43.9505 194.042 44.4513 194.088 44.953L192.676 45.0432ZM167.537 43.8594L166.125 43.6317C166.216 43.1309 166.307 42.6301 166.444 42.1284L167.855 42.4927C167.706 42.9371 167.6 43.3948 167.537 43.8594ZM192.221 42.3569C192.097 41.9226 191.945 41.4968 191.766 41.082L193.09 40.5357C193.284 41.0115 193.452 41.498 193.591 41.9926L192.221 42.3569ZM168.265 41.2195L166.899 40.6731C167.084 40.2054 167.297 39.7493 167.537 39.3072L168.812 39.9901C168.602 40.3872 168.42 40.7979 168.265 41.2195ZM191.174 39.8535C190.946 39.4396 190.718 39.0795 190.445 38.6698L191.629 37.8502C191.902 38.2641 192.175 38.7153 192.449 39.1747L191.174 39.8535ZM169.54 38.8039L168.356 37.9843C168.63 37.5704 168.948 37.1648 169.267 36.755L170.36 37.7111C170.037 38.0353 169.761 38.4032 169.54 38.8039ZM189.625 37.577C189.306 37.2128 188.987 36.8941 188.669 36.5754L189.67 35.5282C190.035 35.8924 190.399 36.2566 190.718 36.6209L189.625 37.577ZM171.271 36.7119L170.269 35.6647C170.634 35.3005 171.043 34.9818 171.408 34.6631L172.273 35.8013C171.954 36.0712 171.635 36.3907 171.271 36.7094V36.7119ZM187.621 35.7103C187.26 35.4264 186.879 35.1678 186.482 34.9362L187.211 33.7069C187.653 33.9689 188.079 34.2578 188.486 34.572L187.621 35.7103ZM173.457 35.0273L172.683 33.798C173.109 33.5282 173.551 33.2849 174.007 33.0695L174.645 34.394C174.235 34.5765 173.838 34.787 173.457 35.024V35.0273ZM185.295 34.2988C184.881 34.1046 184.455 33.9373 184.02 33.798L184.475 32.4321C184.976 32.6142 185.431 32.7963 185.886 32.9784L185.295 34.2988ZM175.913 33.8849L175.462 32.519C175.935 32.339 176.423 32.2006 176.919 32.1051L177.238 33.5165C176.787 33.5969 176.344 33.7205 175.916 33.8857L175.913 33.8849ZM182.701 33.471C182.246 33.3799 181.79 33.2889 181.335 33.2433L181.472 31.7864C181.972 31.8319 182.473 31.923 182.974 32.014L182.701 33.471ZM178.602 33.2433L178.42 31.7864C178.921 31.7408 179.422 31.6953 179.923 31.6953V33.1523C179.514 33.202 179.059 33.2019 178.603 33.2483L178.602 33.2433Z" fill="#272421"/>
</g>
<path d="M179.687 49.2149C179.162 50.1188 178.611 51.0112 178.121 51.9326C177.878 52.3863 177.683 52.5253 177.196 52.2017C176.422 51.6871 175.615 51.2221 174.782 50.8093C174.17 50.5063 174.054 50.2637 174.439 49.6197C176.214 46.6486 177.924 43.6386 179.649 40.6386C179.847 40.295 180.133 39.997 179.972 39.5028C179.716 38.7238 180.18 38.55 180.833 38.675C181.61 38.8166 182.406 38.8194 183.185 38.6833C183.503 38.6311 184.008 38.4821 184.15 38.8066C184.257 38.982 184.299 39.1896 184.269 39.393C184.239 39.5963 184.138 39.7826 183.984 39.9192C183.686 40.1808 184.335 42.0012 184.734 42.2595C185.133 42.5177 185.092 43.5931 184.645 43.661C184.131 43.7396 184.219 44.0236 184.218 44.3232C184.214 45.5749 184.218 46.8266 184.218 48.0782C184.218 48.3978 184.17 48.6693 184.669 48.7339C185.056 48.7836 185.144 50.0013 184.79 50.0452C184.064 50.1337 184.224 50.594 184.22 51.0145C184.205 53.0013 184.207 53.0013 182.246 52.9955C181.512 52.9955 180.536 53.2439 180.108 52.8755C179.599 52.4368 179.987 51.4318 179.942 50.6735C179.914 50.2016 179.937 49.7265 179.937 49.2529L179.689 49.2157M181.882 39.4755C181.214 39.4896 180.839 40.0359 180.493 40.6344C179.003 43.2139 177.512 45.7918 176.022 48.368C175.01 50.1222 175.024 50.1064 176.814 51.1412C177.325 51.4367 177.573 51.4591 177.904 50.8705C179.565 47.9119 181.286 44.9863 182.979 42.0451C183.129 41.799 183.249 41.5365 183.338 41.2628C183.398 41.0452 183.406 40.8163 183.36 40.5953C183.314 40.3742 183.215 40.1674 183.073 39.9922C182.931 39.8169 182.748 39.6784 182.541 39.588C182.334 39.4977 182.109 39.4583 181.883 39.473M182.974 43.9259C182.279 44.93 181.309 45.7976 181.181 47.0385C181.074 48.0832 181.208 49.1503 181.151 50.2033C181.11 50.94 181.556 50.8722 181.999 50.8333C182.407 50.7968 183 51.1089 182.985 50.2414C182.95 48.137 182.974 46.031 182.974 43.9259Z" fill="#272421"/>
<path d="M25.0408 131.974C30.7301 131.974 35.3423 127.362 35.3423 121.673C35.3423 115.983 30.7301 111.371 25.0408 111.371C19.3514 111.371 14.7393 115.983 14.7393 121.673C14.7393 127.362 19.3514 131.974 25.0408 131.974Z" fill="url(#paint22_linear_865_41672)"/>
<g opacity="0.696">
<path d="M24.9028 135.966C24.402 135.966 23.9011 135.92 23.4003 135.875L23.5369 134.418C23.9922 134.463 24.4475 134.509 24.9028 134.509H25.0394V135.966H24.9028ZM26.5883 135.875L26.4061 134.418C26.8615 134.372 27.3168 134.281 27.7721 134.19L28.0908 135.601L26.5883 135.875ZM21.8514 135.647C21.3533 135.558 20.8652 135.419 20.3945 135.233L20.8498 133.867C21.3051 134.004 21.7148 134.14 22.1743 134.231L21.8514 135.647ZM29.5502 135.192L29.0494 133.826C29.4633 133.689 29.9145 133.507 30.3243 133.325L30.9617 134.649C30.5039 134.827 30.0031 135.01 29.5478 135.192H29.5502ZM18.9847 134.645C18.5294 134.418 18.074 134.19 17.6187 133.917L18.3472 132.687C18.7611 132.915 19.1668 133.143 19.5766 133.325L18.9847 134.645ZM32.2829 133.871L31.5089 132.642C31.9056 132.41 32.286 132.152 32.6472 131.868L33.5578 133.006C33.1455 133.279 32.7357 133.595 32.2804 133.871H32.2829ZM16.3406 133.098C15.9267 132.779 15.5665 132.461 15.1568 132.096L16.1584 131.049C16.4867 131.362 16.8366 131.651 17.2057 131.914L16.3406 133.098ZM34.6944 132.005L33.6927 130.958C34.0196 130.646 34.324 130.312 34.6033 129.956L35.696 130.867C35.3998 131.278 35.0643 131.658 34.6944 132.004V132.005ZM14.1543 131.004C13.8149 130.622 13.5101 130.21 13.2437 129.774L14.4275 128.955L15.247 130.048L14.1543 131.004ZM36.6522 129.638L35.4684 128.818C35.7393 128.45 35.9684 128.053 36.1514 127.634L37.4262 128.317C37.1952 128.772 36.9367 129.212 36.6522 129.635V129.638ZM12.4241 128.497C12.1965 128.042 11.9688 127.586 11.7867 127.131L13.1526 126.585C13.3347 126.999 13.5168 127.404 13.7445 127.814L12.4241 128.497ZM38.0645 126.948L36.6986 126.402C36.8844 125.977 37.0232 125.533 37.1125 125.077L38.5239 125.442C38.3982 125.952 38.2448 126.455 38.0645 126.948ZM11.285 125.673C11.1484 125.172 11.0574 124.672 10.9663 124.171L12.3778 123.943C12.457 124.391 12.5635 124.833 12.6965 125.268L11.285 125.673ZM38.8385 123.992L37.427 123.764C37.5181 123.309 37.5181 122.854 37.5636 122.398L39.0206 122.444C38.9751 122.986 38.9304 123.487 38.8385 123.992ZM10.7842 122.667V121.119L12.2412 121.21V122.576L10.7842 122.667ZM37.5181 121.028C37.4726 120.572 37.427 120.117 37.336 119.662L38.7474 119.434C38.8385 119.935 38.884 120.436 38.9296 120.937L37.5181 121.028ZM12.3786 119.844L10.9671 119.616C11.0582 119.115 11.1493 118.614 11.2858 118.113L12.6973 118.477C12.5481 118.922 12.4414 119.379 12.3786 119.844ZM37.0628 118.341C36.9386 117.907 36.7865 117.481 36.6075 117.066L37.932 116.52C38.1262 116.996 38.2934 117.482 38.4329 117.977L37.0628 118.341ZM13.1071 117.204L11.7412 116.657C11.926 116.19 12.1389 115.734 12.3786 115.292L13.6534 115.975C13.4441 116.372 13.2615 116.782 13.1071 117.204ZM36.0156 115.838C35.7879 115.424 35.5603 115.064 35.2871 114.654L36.4709 113.835C36.7441 114.248 37.0173 114.7 37.2904 115.159L36.0156 115.838ZM14.3819 114.788L13.1981 113.969C13.4713 113.555 13.79 113.149 14.1087 112.739L15.2015 113.695C14.8786 114.02 14.6028 114.388 14.3819 114.788ZM34.4667 113.561C34.148 113.197 33.8293 112.878 33.5106 112.56L34.5123 111.513C34.8765 111.877 35.2407 112.241 35.5595 112.605L34.4667 113.561ZM16.1129 112.696L15.1112 111.649C15.4755 111.285 15.8853 110.966 16.2495 110.647L17.1146 111.786C16.7959 112.056 16.4772 112.375 16.1129 112.694V112.696ZM32.4625 111.695C32.1014 111.411 31.721 111.152 31.3243 110.921L32.0528 109.691C32.4951 109.953 32.9208 110.242 33.3276 110.556L32.4625 111.695ZM18.2984 111.012L17.5244 109.782C17.9505 109.513 18.3928 109.269 18.8489 109.054L19.4863 110.378C19.0764 110.561 18.6794 110.771 18.2984 111.008V111.012ZM30.1363 110.283C29.7226 110.089 29.2968 109.922 28.8615 109.782L29.3168 108.416C29.8176 108.599 30.2729 108.781 30.7282 108.963L30.1363 110.283ZM20.7546 109.869L20.3042 108.503C20.777 108.323 21.2645 108.185 21.7612 108.089L22.0799 109.501C21.6284 109.581 21.1857 109.705 20.7579 109.87L20.7546 109.869ZM27.5428 109.455C27.0875 109.364 26.6321 109.273 26.1768 109.228L26.3134 107.771C26.8143 107.816 27.3151 107.907 27.8159 107.998L27.5428 109.455ZM23.4442 109.228L23.2621 107.771C23.7629 107.725 24.2637 107.68 24.7646 107.68V109.137C24.3556 109.186 23.9003 109.186 23.445 109.233L23.4442 109.228Z" fill="#272421"/>
</g>
<path d="M31.5616 126.241H18.2179C18.13 126.241 18.0458 126.206 17.9837 126.144C17.9216 126.082 17.8867 125.998 17.8867 125.91V117.743C17.8867 117.655 17.9216 117.571 17.9837 117.509C18.0458 117.447 18.13 117.412 18.2179 117.412H31.5616C31.6495 117.412 31.7337 117.447 31.7958 117.509C31.8579 117.571 31.8928 117.655 31.8928 117.743V125.916C31.8912 126.002 31.8557 126.085 31.7938 126.146C31.7318 126.207 31.6485 126.241 31.5616 126.241Z" fill="#272421"/>
<path d="M17.8936 119.291H31.8913" stroke="url(#paint23_linear_865_41672)" stroke-width="2"/>
<path d="M147.94 194.105C155.601 194.105 161.812 187.895 161.812 180.234C161.812 172.574 155.601 166.363 147.94 166.363C140.28 166.363 134.069 172.574 134.069 180.234C134.069 187.895 140.28 194.105 147.94 194.105Z" fill="url(#paint24_linear_865_41672)"/>
<g opacity="0.696">
<path d="M147.758 199.481C147.084 199.481 146.409 199.42 145.735 199.358L145.919 197.397C146.532 197.458 147.145 197.519 147.758 197.519H147.942V199.481H147.758ZM150.028 199.358L149.779 197.397C150.393 197.335 151.005 197.213 151.619 197.09L152.048 198.994L150.028 199.358ZM143.653 199.052C142.983 198.933 142.325 198.748 141.691 198.5L142.305 196.661C142.918 196.844 143.469 197.028 144.083 197.151L143.653 199.052ZM154.017 198.439L153.342 196.599C153.894 196.416 154.507 196.17 155.059 195.925L155.918 197.703C155.301 197.948 154.626 198.194 154.014 198.439H154.017ZM139.791 197.703C139.177 197.397 138.565 197.089 137.951 196.722L138.932 195.066C139.484 195.372 140.036 195.68 140.588 195.925L139.791 197.703ZM157.697 196.661L156.654 195.005C157.189 194.693 157.701 194.345 158.187 193.963L159.413 195.496C158.857 195.863 158.303 196.292 157.692 196.661H157.697ZM136.234 195.618C135.682 195.189 135.192 194.76 134.64 194.269L135.989 192.862C136.43 193.283 136.901 193.672 137.397 194.026L136.234 195.618ZM160.947 194.146L159.597 192.739C160.037 192.319 160.447 191.868 160.823 191.39L162.295 192.616C161.895 193.169 161.442 193.681 160.942 194.146H160.947ZM133.291 192.797C132.834 192.283 132.424 191.729 132.065 191.141L133.66 190.038L134.763 191.51L133.291 192.797ZM163.579 190.954L161.985 189.851C162.35 189.355 162.658 188.82 162.904 188.256L164.621 189.176C164.31 189.79 163.962 190.383 163.579 190.954ZM130.957 189.425C130.651 188.811 130.343 188.199 130.098 187.585L131.938 186.849C132.186 187.401 132.429 187.953 132.735 188.505L130.957 189.425ZM165.477 187.339L163.638 186.603C163.886 186.032 164.071 185.436 164.19 184.825L166.094 185.316C165.926 186.001 165.721 186.676 165.48 187.339H165.477ZM129.424 185.622C129.24 184.948 129.117 184.273 128.994 183.599L130.898 183.293C131.005 183.894 131.149 184.488 131.328 185.071L129.424 185.622ZM166.523 183.353L164.619 183.047C164.741 182.434 164.741 181.821 164.803 181.208L166.765 181.269C166.707 182.005 166.645 182.676 166.523 183.354V183.353ZM128.749 181.575V179.49L130.711 179.612V181.452L128.749 181.575ZM164.745 179.365C164.683 178.751 164.622 178.139 164.496 177.525L166.4 177.219C166.523 177.894 166.584 178.568 166.649 179.242L164.745 179.365ZM130.896 177.774L128.992 177.467C129.114 176.793 129.24 176.118 129.421 175.444L131.325 175.935C131.124 176.533 130.98 177.149 130.896 177.774ZM164.131 175.751C163.964 175.166 163.759 174.592 163.518 174.034L165.296 173.298C165.558 173.938 165.783 174.593 165.971 175.26L164.131 175.751ZM131.877 174.217L130.037 173.481C130.286 172.851 130.573 172.237 130.896 171.641L132.613 172.561C132.33 173.096 132.085 173.649 131.877 174.217ZM162.721 172.377C162.414 171.825 162.107 171.335 161.74 170.783L163.334 169.679C163.702 170.231 164.07 170.844 164.438 171.457L162.721 172.377ZM133.593 170.97L131.999 169.866C132.367 169.314 132.796 168.763 133.225 168.211L134.697 169.499C134.263 169.934 133.891 170.429 133.593 170.967V170.97ZM160.636 169.314C160.207 168.823 159.778 168.394 159.348 167.965L160.697 166.558C161.188 167.048 161.678 167.538 162.105 168.029L160.636 169.314ZM135.924 168.149L134.574 166.742C135.065 166.251 135.617 165.822 136.108 165.393L137.272 166.926C136.844 167.288 136.414 167.717 135.924 168.146V168.149ZM157.938 166.8C157.452 166.418 156.94 166.07 156.405 165.758L157.386 164.102C157.982 164.455 158.555 164.844 159.103 165.267L157.938 166.8ZM138.868 165.88L137.825 164.225C138.397 163.862 138.991 163.534 139.604 163.244L140.462 165.022C139.911 165.27 139.378 165.556 138.867 165.877L138.868 165.88ZM154.811 164.899C154.254 164.638 153.68 164.412 153.094 164.225L153.707 162.385C154.382 162.634 154.995 162.876 155.611 163.121L154.811 164.899ZM142.179 164.347L141.565 162.508C142.202 162.267 142.859 162.082 143.527 161.956L143.957 163.86C143.35 163.964 142.754 164.126 142.178 164.345L142.179 164.347ZM151.316 163.795C150.702 163.673 150.09 163.547 149.476 163.489L149.66 161.527C150.335 161.588 151.009 161.711 151.683 161.833L151.316 163.795ZM145.797 163.489L145.548 161.527C146.223 161.466 146.898 161.404 147.571 161.404V163.366C147.023 163.424 146.409 163.424 145.797 163.486V163.489Z" fill="#272421"/>
</g>
<path d="M153.222 180.488C153.222 183.078 153.222 185.669 153.222 188.26C153.222 189.453 152.891 189.775 151.707 189.777C149.056 189.78 146.404 189.78 143.752 189.777C142.636 189.777 142.297 189.435 142.293 188.295C142.28 183.114 142.272 177.934 142.269 172.755C142.269 171.398 142.581 171.1 143.944 171.1C146.535 171.1 149.126 171.1 151.717 171.1C152.889 171.1 153.236 171.431 153.241 172.624C153.255 175.245 153.241 177.865 153.241 180.488H153.219M152.672 183.634C152.672 182.019 152.648 180.405 152.684 178.793C152.697 178.226 152.524 178.068 151.963 178.073C149.162 178.1 146.36 178.105 143.559 178.073C142.918 178.065 142.819 178.309 142.823 178.87C142.846 182.005 142.846 185.141 142.823 188.278C142.817 188.979 143.043 189.251 143.771 189.242C146.42 189.211 149.069 189.211 151.718 189.242C152.428 189.251 152.699 189.015 152.683 188.294C152.646 186.742 152.672 185.189 152.671 183.636M146.527 176.563H147.623C149.47 176.563 149.457 176.563 149.326 174.733C149.298 174.35 149.201 174.2 148.798 174.205C147.337 174.223 145.875 174.219 144.411 174.205C144.046 174.205 143.891 174.269 143.864 174.696C143.748 176.563 143.73 176.563 145.613 176.563H146.524" fill="#272421"/>
<path d="M144.627 182.787C144.187 182.686 143.876 182.474 143.889 181.989C143.88 181.88 143.897 181.772 143.936 181.671C143.976 181.57 144.038 181.479 144.117 181.406C144.197 181.332 144.293 181.278 144.396 181.247C144.5 181.216 144.61 181.209 144.717 181.226C144.817 181.23 144.916 181.254 145.007 181.299C145.097 181.343 145.177 181.406 145.241 181.484C145.305 181.562 145.352 181.652 145.379 181.749C145.406 181.846 145.412 181.948 145.396 182.047C145.366 182.531 145.047 182.719 144.627 182.787Z" fill="#272421"/>
<path d="M151.612 182.284C151.602 182.501 151.303 182.762 150.867 182.765C150.767 182.772 150.667 182.759 150.572 182.724C150.478 182.689 150.392 182.635 150.321 182.564C150.249 182.494 150.194 182.408 150.159 182.314C150.123 182.22 150.109 182.12 150.116 182.02C150.102 181.912 150.114 181.803 150.149 181.7C150.185 181.598 150.243 181.504 150.32 181.428C150.397 181.351 150.49 181.293 150.593 181.259C150.696 181.224 150.805 181.213 150.913 181.226C151.34 181.249 151.636 181.532 151.612 182.285" fill="#272421"/>
<path d="M150.906 185.099C150.473 185.049 150.14 184.871 150.12 184.384C150.102 184.277 150.109 184.168 150.14 184.064C150.171 183.961 150.225 183.866 150.299 183.786C150.373 183.707 150.463 183.646 150.565 183.608C150.666 183.57 150.774 183.555 150.882 183.566C150.982 183.558 151.082 183.571 151.177 183.606C151.271 183.64 151.356 183.695 151.427 183.766C151.498 183.837 151.553 183.922 151.587 184.016C151.622 184.11 151.635 184.211 151.627 184.311C151.642 184.796 151.355 185.018 150.91 185.097" fill="#272421"/>
<path d="M145.403 179.668C145.41 179.768 145.395 179.868 145.361 179.962C145.326 180.056 145.272 180.142 145.202 180.213C145.133 180.285 145.048 180.341 144.955 180.378C144.862 180.415 144.763 180.432 144.663 180.427C144.563 180.44 144.462 180.43 144.366 180.399C144.271 180.368 144.183 180.316 144.11 180.248C144.036 180.179 143.979 180.096 143.941 180.003C143.904 179.909 143.887 179.809 143.892 179.709C143.874 179.602 143.882 179.492 143.914 179.389C143.947 179.286 144.003 179.191 144.078 179.113C144.153 179.035 144.246 178.976 144.348 178.94C144.45 178.904 144.559 178.892 144.667 178.906C144.767 178.902 144.867 178.919 144.96 178.956C145.053 178.993 145.137 179.049 145.207 179.121C145.276 179.194 145.33 179.28 145.364 179.374C145.398 179.468 145.411 179.568 145.404 179.668" fill="#272421"/>
<path d="M148.514 184.372C148.515 184.471 148.496 184.569 148.458 184.66C148.419 184.751 148.362 184.833 148.289 184.901C148.217 184.968 148.131 185.02 148.037 185.051C147.943 185.083 147.844 185.095 147.745 185.086C147.645 185.095 147.544 185.082 147.45 185.048C147.355 185.014 147.269 184.959 147.198 184.888C147.127 184.817 147.072 184.731 147.038 184.637C147.004 184.542 146.991 184.441 147 184.341C146.987 184.233 146.999 184.124 147.036 184.022C147.072 183.92 147.132 183.828 147.21 183.753C147.288 183.678 147.383 183.622 147.486 183.59C147.59 183.558 147.7 183.55 147.807 183.568C148.276 183.593 148.499 183.899 148.51 184.374" fill="#272421"/>
<path d="M144.577 183.545C145.074 183.589 145.371 183.805 145.396 184.279C145.413 184.386 145.405 184.496 145.372 184.599C145.339 184.702 145.283 184.796 145.208 184.874C145.132 184.952 145.04 185.011 144.938 185.047C144.836 185.083 144.727 185.095 144.619 185.081C144.519 185.089 144.419 185.074 144.325 185.038C144.232 185.003 144.147 184.947 144.078 184.874C144.008 184.802 143.955 184.716 143.923 184.621C143.891 184.526 143.88 184.425 143.891 184.326C143.881 184.132 143.947 183.942 144.075 183.797C144.203 183.651 144.383 183.561 144.576 183.546" fill="#272421"/>
<path d="M147.789 180.441C147.69 180.448 147.591 180.434 147.497 180.401C147.404 180.368 147.318 180.317 147.244 180.25C147.171 180.184 147.112 180.103 147.071 180.013C147.029 179.923 147.006 179.825 147.003 179.726C146.985 179.628 146.988 179.526 147.013 179.429C147.037 179.332 147.083 179.242 147.147 179.164C147.211 179.087 147.291 179.025 147.382 178.982C147.472 178.939 147.571 178.916 147.671 178.916C147.777 178.893 147.887 178.895 147.991 178.923C148.096 178.95 148.193 179.001 148.274 179.072C148.355 179.144 148.419 179.233 148.459 179.333C148.5 179.433 148.517 179.541 148.508 179.649C148.515 179.749 148.502 179.849 148.47 179.944C148.437 180.039 148.385 180.126 148.318 180.2C148.251 180.274 148.169 180.333 148.078 180.375C147.987 180.417 147.889 180.439 147.789 180.441Z" fill="#272421"/>
<path d="M150.868 178.891C150.967 178.888 151.066 178.905 151.158 178.941C151.251 178.977 151.335 179.031 151.405 179.101C151.476 179.171 151.532 179.254 151.569 179.346C151.606 179.438 151.624 179.537 151.622 179.636C151.628 179.738 151.613 179.84 151.578 179.936C151.544 180.032 151.49 180.12 151.42 180.194C151.351 180.269 151.267 180.329 151.173 180.37C151.08 180.411 150.979 180.433 150.877 180.434C150.775 180.436 150.674 180.416 150.58 180.377C150.486 180.338 150.4 180.28 150.329 180.208C150.257 180.135 150.202 180.048 150.165 179.953C150.128 179.858 150.11 179.756 150.114 179.654C150.114 179.179 150.406 178.949 150.868 178.894" fill="#272421"/>
<path d="M147.752 181.205C148.181 181.288 148.497 181.486 148.509 181.967C148.513 182.068 148.497 182.169 148.461 182.264C148.425 182.358 148.371 182.445 148.301 182.518C148.231 182.592 148.147 182.65 148.054 182.69C147.961 182.731 147.861 182.752 147.76 182.753C147.658 182.753 147.558 182.734 147.464 182.695C147.371 182.656 147.286 182.599 147.215 182.527C147.144 182.454 147.088 182.369 147.051 182.274C147.014 182.18 146.996 182.08 146.998 181.978C147.009 181.497 147.317 181.29 147.752 181.205Z" fill="#272421"/>
<path d="M147.75 185.906C147.851 185.904 147.952 185.923 148.046 185.961C148.141 185.999 148.226 186.056 148.298 186.128C148.369 186.2 148.426 186.285 148.463 186.38C148.501 186.474 148.519 186.575 148.517 186.676C148.515 186.778 148.492 186.878 148.45 186.97C148.408 187.063 148.348 187.146 148.273 187.215C148.198 187.283 148.11 187.336 148.015 187.37C147.919 187.404 147.817 187.418 147.716 187.411C147.616 187.417 147.516 187.401 147.424 187.364C147.331 187.327 147.247 187.27 147.179 187.196C147.111 187.123 147.06 187.036 147.03 186.941C147 186.845 146.991 186.745 147.004 186.645C146.997 186.546 147.012 186.447 147.047 186.353C147.082 186.26 147.137 186.176 147.208 186.106C147.278 186.036 147.363 185.982 147.457 185.947C147.55 185.913 147.651 185.899 147.75 185.906Z" fill="#272421"/>
<path d="M151.631 186.654C151.578 187.151 151.333 187.418 150.862 187.411C150.755 187.422 150.647 187.408 150.546 187.369C150.445 187.331 150.355 187.269 150.282 187.189C150.209 187.109 150.157 187.013 150.128 186.909C150.099 186.805 150.096 186.696 150.117 186.59C150.116 186.49 150.137 186.392 150.179 186.301C150.22 186.21 150.281 186.13 150.357 186.066C150.433 186.001 150.523 185.955 150.619 185.929C150.716 185.903 150.816 185.899 150.915 185.917C151.011 185.916 151.106 185.934 151.194 185.971C151.283 186.008 151.363 186.063 151.43 186.132C151.497 186.201 151.549 186.283 151.583 186.372C151.616 186.462 151.632 186.558 151.627 186.654" fill="#272421"/>
<path d="M144.653 185.908C144.751 185.901 144.85 185.914 144.943 185.948C145.035 185.982 145.119 186.035 145.19 186.104C145.26 186.173 145.314 186.257 145.35 186.349C145.385 186.441 145.4 186.539 145.394 186.638C145.408 186.736 145.4 186.837 145.371 186.932C145.342 187.027 145.292 187.115 145.225 187.188C145.158 187.262 145.076 187.32 144.984 187.358C144.892 187.396 144.792 187.414 144.693 187.409C144.587 187.427 144.478 187.42 144.375 187.389C144.272 187.357 144.178 187.302 144.101 187.227C144.023 187.153 143.965 187.061 143.929 186.959C143.894 186.858 143.882 186.749 143.897 186.643C143.902 186.17 144.181 185.937 144.653 185.908Z" fill="#272421"/>
<path d="M41.83 62.4625C50.2236 62.4625 57.0281 55.6581 57.0281 47.2645C57.0281 38.8708 50.2236 32.0664 41.83 32.0664C33.4363 32.0664 26.6318 38.8708 26.6318 47.2645C26.6318 55.6581 33.4363 62.4625 41.83 62.4625Z" fill="url(#paint25_linear_865_41672)"/>
<g opacity="0.696">
<path d="M41.6249 68.3497C40.8857 68.3497 40.1464 68.2826 39.408 68.2156L39.6091 66.0632C40.2813 66.1303 40.9527 66.1973 41.6249 66.1973H41.8228V68.3497H41.6249ZM44.1084 68.2156L43.8394 66.0632C44.5116 65.9962 45.1829 65.8621 45.8551 65.7271L46.3253 67.81L44.1084 68.2156ZM37.1207 67.8795C36.385 67.7497 35.664 67.5473 34.9683 67.2752L35.6405 65.2594C36.3127 65.4606 36.917 65.6626 37.5892 65.7967L37.1207 67.8795ZM48.476 67.2073L47.7368 65.1915C48.3411 64.9895 49.0133 64.7213 49.6184 64.4523L50.5588 66.401C49.8891 66.6725 49.1499 66.9424 48.4777 67.2098L48.476 67.2073ZM32.888 66.401C32.2158 66.0649 31.5444 65.7288 30.8722 65.3248L31.9484 63.511C32.5527 63.8471 33.1579 64.1832 33.7622 64.4515L32.888 66.401ZM52.5076 65.2586L51.3652 63.4448C51.9506 63.1031 52.5118 62.7214 53.0448 62.3024L54.3884 63.9821C53.7857 64.3877 53.1814 64.8579 52.5092 65.2611L52.5076 65.2586ZM28.9914 64.1187C28.3871 63.6485 27.849 63.1783 27.2447 62.6402L28.7232 61.0946C29.2076 61.5561 29.7241 61.9826 30.2688 62.3711L28.9914 64.1187ZM56.0689 62.5061L54.5904 60.9605C55.0728 60.5002 55.5218 60.0061 55.9339 59.482L57.5466 60.8256C57.1103 61.4323 56.6159 61.9951 56.0705 62.5061H56.0689ZM25.7703 61.0276C25.2695 60.464 24.8199 59.8571 24.4268 59.2138L26.171 58.0019L27.3805 59.6145L25.7703 61.0276ZM58.9588 59.0126L57.2121 57.8032C57.6118 57.2602 57.9497 56.6743 58.2196 56.0565L60.1012 57.0639C59.7605 57.7362 59.3789 58.3869 58.9588 59.0126ZM23.2148 57.333C22.8787 56.6608 22.5426 55.9894 22.2744 55.3172L24.2902 54.5109C24.5592 55.1152 24.8274 55.7204 25.1635 56.3247L23.2148 57.333ZM61.0466 55.0482L59.0309 54.2419C59.3025 53.6162 59.5051 52.9628 59.6352 52.2932L61.718 52.8304C61.5331 53.5814 61.3076 54.3217 61.0425 55.0482H61.0466ZM21.5352 53.1674C21.334 52.4281 21.1991 51.6889 21.0649 50.9504L23.1478 50.6143C23.2649 51.2728 23.422 51.9236 23.618 52.563L21.5352 53.1674ZM62.1816 50.6839L60.0988 50.3478C60.2329 49.6756 60.2329 49.0042 60.2999 48.332L62.4523 48.3991C62.386 49.2029 62.319 49.9421 62.1874 50.6814L62.1816 50.6839ZM20.7959 48.7302V46.4454L22.9483 46.5795V48.5953L20.7959 48.7302ZM60.2362 46.3113C60.1691 45.6391 60.1021 44.9677 59.9671 44.2955L62.0499 43.9594C62.1841 44.6987 62.2511 45.4379 62.319 46.1764L60.2362 46.3113ZM23.1494 44.5646L21.0666 44.2285C21.2007 43.4892 21.3356 42.75 21.5368 42.0116L23.6196 42.5488C23.3988 43.2051 23.2408 43.8809 23.1478 44.5671L23.1494 44.5646ZM59.5665 42.3477C59.3831 41.7066 59.1586 41.0781 58.8943 40.466L60.843 39.6597C61.1296 40.3627 61.3764 41.0813 61.5822 41.8121L59.5665 42.3477ZM24.2223 40.6697L22.2032 39.8634C22.4759 39.1732 22.79 38.5 23.1436 37.8476L25.0253 38.8551C24.7174 39.4413 24.4491 40.0476 24.2223 40.6697ZM58.0184 38.6539C57.6823 38.0496 57.3462 37.5115 56.9422 36.9072L58.689 35.6977C59.0921 36.3021 59.4953 36.9742 59.8984 37.6464L58.0184 38.6539ZM26.1031 37.1084L24.3556 35.8989C24.7587 35.2946 25.2289 34.6894 25.6991 34.0851L27.3117 35.4924C26.8356 35.9723 26.429 36.5165 26.1039 37.1092L26.1031 37.1084ZM55.7336 35.2946C55.2634 34.7573 54.7932 34.2871 54.3263 33.8161L55.8048 32.2705C56.3421 32.8078 56.881 33.3467 57.3504 33.8831L55.7336 35.2946ZM28.6603 34.0181L27.1818 32.4725C27.719 31.9353 28.3242 31.4651 28.8614 30.994L30.138 32.6737C29.6653 33.0777 29.1942 33.5479 28.6603 34.0181ZM52.7816 32.5396C52.2486 32.1206 51.6874 31.7389 51.1019 31.3972L52.1781 29.5834C52.8309 29.9699 53.4593 30.3962 54.0597 30.8599L52.7816 32.5396ZM31.8855 31.5321L30.7431 29.7183C31.37 29.32 32.0208 28.9606 32.6918 28.6422L33.6273 30.5917C33.0247 30.8648 32.4416 31.179 31.8822 31.5321H31.8855ZM49.3527 30.4559C48.7421 30.1692 48.1135 29.9223 47.471 29.7167L48.1432 27.7009C48.8825 27.97 49.5506 28.2382 50.2261 28.5072L49.3527 30.4559ZM35.5106 29.8558L34.8384 27.84C35.5369 27.5765 36.2571 27.3743 36.9907 27.2357L37.4609 29.3185C36.7951 29.4346 36.142 29.6146 35.5106 29.8558ZM45.5215 29.2515C44.8493 29.1174 44.1779 28.9824 43.5057 28.9154L43.7069 26.763C44.4462 26.8301 45.1854 26.9642 45.9238 27.0991L45.5215 29.2515ZM39.4784 28.9154L39.2093 26.763C39.9486 26.696 40.6878 26.6289 41.4262 26.6289V28.7812C40.8186 28.8442 40.1464 28.8442 39.4742 28.912L39.4784 28.9154Z" fill="#272421"/>
</g>
<path d="M37.9815 36.4195C37.9922 36.2741 38.044 36.1347 38.1307 36.0175C38.2174 35.9002 38.3356 35.81 38.4715 35.7572C38.8925 35.5551 39.3557 35.4566 39.8225 35.47H43.4352C43.9023 35.4579 44.3656 35.5578 44.7862 35.7613C44.9221 35.8141 45.0403 35.9044 45.127 36.0216C45.2138 36.1388 45.2655 36.2782 45.2763 36.4236V56.3312C45.277 56.524 45.2285 56.7137 45.1356 56.8826C45.0426 57.0515 44.9081 57.1939 44.7448 57.2964C44.3538 57.5444 43.8981 57.6712 43.4352 57.6607H39.8225C39.3596 57.6712 38.904 57.5444 38.5129 57.2964C38.3496 57.1939 38.2152 57.0515 38.1222 56.8826C38.0292 56.7137 37.9808 56.524 37.9815 56.3312V36.4195Z" fill="url(#paint26_linear_865_41672)" stroke="#272421"/>
<path d="M43.7382 50.0605H39.5154C39.1725 50.0605 38.8945 50.3385 38.8945 50.6814V55.1393C38.8945 55.4822 39.1725 55.7601 39.5154 55.7601H43.7382C44.0811 55.7601 44.359 55.4822 44.359 55.1393V50.6814C44.359 50.3385 44.0811 50.0605 43.7382 50.0605Z" fill="#272421"/>
<path d="M43.2067 47.3035C43.2067 46.4865 42.5444 45.8242 41.7274 45.8242C40.9104 45.8242 40.248 46.4865 40.248 47.3035C40.248 48.1206 40.9104 48.7829 41.7274 48.7829C42.5444 48.7829 43.2067 48.1206 43.2067 47.3035Z" fill="#272421"/>
<path d="M43.0597 37.9355H40.1979C39.6264 37.9355 39.1631 38.3988 39.1631 38.9703V43.804C39.1631 44.3755 39.6264 44.8388 40.1979 44.8388H43.0597C43.6312 44.8388 44.0945 44.3755 44.0945 43.804V38.9703C44.0945 38.3988 43.6312 37.9355 43.0597 37.9355Z" fill="#272421"/>
<path d="M41.4766 36.6855H41.8565" stroke="#272421" stroke-linecap="round" stroke-linejoin="round"/>
<path d="M198.573 132.225C205.101 132.225 210.393 126.933 210.393 120.405C210.393 113.876 205.101 108.584 198.573 108.584C192.044 108.584 186.752 113.876 186.752 120.405C186.752 126.933 192.044 132.225 198.573 132.225Z" fill="url(#paint27_linear_865_41672)"/>
<g opacity="0.696">
<path d="M198.414 136.803C197.839 136.803 197.264 136.751 196.689 136.699L196.846 135.026C197.368 135.079 197.891 135.131 198.414 135.131H198.57V136.803H198.414ZM200.347 136.699L200.138 135.026C200.66 134.974 201.184 134.87 201.706 134.765L202.072 136.385L200.347 136.699ZM194.913 136.437C194.341 136.336 193.781 136.178 193.241 135.967L193.763 134.399C194.285 134.555 194.756 134.713 195.279 134.817L194.913 136.437ZM203.744 135.915L203.17 134.347C203.64 134.19 204.163 133.981 204.633 133.772L205.365 135.288C204.841 135.497 204.266 135.705 203.744 135.915ZM191.62 135.287C191.098 135.026 190.575 134.765 190.053 134.451L190.889 133.044C191.359 133.305 191.829 133.566 192.296 133.776L191.62 135.287ZM206.883 134.402L205.995 132.995C206.449 132.727 206.884 132.428 207.297 132.101L208.343 133.407C207.872 133.721 207.402 134.087 206.883 134.402ZM188.588 133.512C188.118 133.146 187.7 132.78 187.23 132.362L188.38 131.16C188.756 131.519 189.158 131.851 189.582 132.153L188.588 133.512ZM209.648 132.257L208.498 131.055C208.874 130.697 209.223 130.313 209.544 129.905L210.798 130.951C210.458 131.423 210.073 131.86 209.648 132.257ZM186.08 131.108C185.69 130.67 185.34 130.199 185.034 129.7L186.393 128.76L187.333 130.014L186.08 131.108ZM211.895 129.54L210.536 128.599C210.847 128.177 211.11 127.721 211.32 127.241L212.784 128.025C212.519 128.548 212.222 129.054 211.896 129.54L211.895 129.54ZM184.096 128.233C183.834 127.711 183.573 127.188 183.364 126.665L184.932 126.038C185.141 126.508 185.35 126.978 185.611 127.445L184.096 128.233ZM213.517 126.457L211.949 125.83C212.16 125.343 212.318 124.835 212.419 124.314L214.039 124.732C213.896 125.316 213.721 125.891 213.516 126.455L213.517 126.457ZM182.788 124.994C182.632 124.419 182.527 123.844 182.422 123.27L184.043 123.008C184.134 123.52 184.256 124.026 184.408 124.524L182.788 124.994ZM214.404 123.061L212.784 122.799C212.888 122.277 212.888 121.754 212.94 121.232L214.613 121.284C214.561 121.91 214.509 122.482 214.404 123.061ZM182.214 121.544V119.768L183.886 119.872V121.44L182.214 121.544ZM212.889 119.667C212.837 119.145 212.785 118.621 212.68 118.099L214.301 117.837C214.405 118.412 214.457 118.987 214.51 119.562L212.889 119.667ZM184.043 118.305L182.422 118.044C182.527 117.469 182.632 116.894 182.788 116.319L184.408 116.737C184.237 117.247 184.115 117.772 184.043 118.305ZM212.366 116.581C212.223 116.082 212.049 115.593 211.844 115.117L213.359 114.49C213.582 115.036 213.774 115.594 213.934 116.162L212.366 116.581ZM184.882 115.274L183.314 114.647C183.526 114.11 183.771 113.587 184.046 113.079L185.509 113.863C185.268 114.319 185.057 114.79 184.879 115.274L184.882 115.274ZM211.165 113.707C210.903 113.236 210.642 112.818 210.329 112.348L211.687 111.408C212.001 111.878 212.315 112.401 212.627 112.923L211.165 113.707ZM186.342 112.505L184.984 111.564C185.298 111.094 185.663 110.624 186.029 110.157L187.283 111.255C186.913 111.625 186.596 112.046 186.342 112.505ZM209.387 111.097C209.021 110.679 208.656 110.313 208.29 109.947L209.44 108.745C209.858 109.163 210.276 109.582 210.642 110L209.387 111.097ZM188.327 110.104L187.181 108.899C187.599 108.485 188.069 108.115 188.487 107.749L189.481 109.055C189.112 109.369 188.746 109.733 188.328 110.101L188.327 110.104ZM207.088 108.954C206.673 108.628 206.237 108.332 205.781 108.066L206.617 106.658C207.125 106.959 207.614 107.291 208.081 107.652L207.088 108.954ZM190.836 108.17L189.948 106.753C190.436 106.443 190.942 106.164 191.464 105.917L192.196 107.432C191.726 107.646 191.272 107.891 190.837 108.167L190.836 108.17ZM204.423 107.334C203.948 107.109 203.46 106.915 202.96 106.753L203.482 105.185C204.057 105.394 204.58 105.603 205.103 105.812L204.423 107.334ZM193.661 106.864L193.139 105.296C193.681 105.091 194.241 104.934 194.811 104.826L195.177 106.446C194.659 106.535 194.15 106.674 193.659 106.86L193.661 106.864ZM201.448 106.394C200.925 106.289 200.402 106.184 199.88 106.132L200.036 104.46C200.611 104.512 201.186 104.616 201.761 104.721L201.448 106.394ZM196.745 106.132L196.535 104.46C197.11 104.408 197.685 104.355 198.26 104.355V106.028C197.786 106.077 197.264 106.077 196.741 106.129L196.745 106.132Z" fill="#272421"/>
</g>
<path d="M192.282 122.967C192.288 122.486 192.422 122.015 192.669 121.601C193.555 120.062 194.44 118.521 195.323 116.979C196.055 115.706 196.785 114.434 197.512 113.161C197.578 113.016 197.686 112.894 197.821 112.809C197.957 112.724 198.114 112.681 198.273 112.684C198.403 112.679 198.532 112.709 198.647 112.77C198.761 112.831 198.858 112.922 198.926 113.033C199.145 113.375 199.347 113.728 199.531 114.091C199.63 114.291 199.676 114.513 199.665 114.736C199.653 114.958 199.583 115.174 199.463 115.362L197.647 118.499L193.795 125.163C193.766 125.214 193.738 125.266 193.704 125.314C193.669 125.376 193.618 125.427 193.557 125.462C193.495 125.497 193.426 125.516 193.355 125.516C193.284 125.516 193.214 125.497 193.153 125.462C193.091 125.427 193.04 125.376 193.005 125.314C192.869 125.095 192.755 124.863 192.663 124.621C192.444 124.095 192.315 123.536 192.282 122.967Z" fill="#272421"/>
<path d="M200.813 126.627C200.818 127 200.678 127.361 200.422 127.633C200.292 127.773 200.154 127.907 200.016 128.04C199.816 128.256 199.55 128.4 199.259 128.448C198.968 128.497 198.67 128.447 198.411 128.307C197.604 127.929 196.798 127.547 195.993 127.166C195.833 127.091 195.671 127.019 195.515 126.937C195.35 126.857 195.203 126.744 195.084 126.604C194.965 126.465 194.876 126.303 194.822 126.127C194.768 125.952 194.751 125.768 194.772 125.585C194.793 125.403 194.852 125.228 194.944 125.069C195.299 124.432 195.664 123.8 196.038 123.174C196.119 123.026 196.235 122.899 196.374 122.804C196.514 122.71 196.675 122.65 196.842 122.629C197.01 122.608 197.18 122.628 197.339 122.686C197.497 122.745 197.64 122.84 197.754 122.964C198.624 123.826 199.493 124.693 200.355 125.557C200.499 125.696 200.614 125.862 200.693 126.045C200.771 126.229 200.811 126.426 200.811 126.626" fill="#272421"/>
<path d="M201.322 121.742C201.913 121.742 202.504 121.733 203.094 121.742C203.35 121.74 203.603 121.805 203.827 121.931C204.051 122.056 204.238 122.238 204.369 122.459C204.51 122.67 204.574 122.924 204.549 123.177C204.525 123.429 204.414 123.666 204.235 123.847C203.814 124.281 203.386 124.71 202.947 125.127C202.832 125.24 202.696 125.33 202.546 125.389C202.396 125.449 202.235 125.478 202.074 125.474C201.912 125.47 201.753 125.434 201.606 125.367C201.459 125.301 201.326 125.205 201.217 125.086C200.695 124.574 200.181 124.054 199.664 123.537C199.455 123.329 199.243 123.123 199.038 122.91C198.938 122.813 198.869 122.688 198.841 122.552C198.814 122.415 198.829 122.273 198.885 122.145C198.941 122.017 199.034 121.91 199.153 121.837C199.272 121.764 199.411 121.729 199.55 121.738C200.14 121.738 200.731 121.738 201.322 121.738" fill="#272421"/>
<path d="M200.291 120.805C199.877 120.805 199.464 120.809 199.05 120.805C198.814 120.808 198.586 120.723 198.411 120.567C198.235 120.411 198.124 120.195 198.099 119.961C198.076 119.746 198.126 119.53 198.242 119.348C198.549 118.818 198.855 118.288 199.16 117.758C199.263 117.579 199.363 117.399 199.471 117.223C199.565 117.056 199.702 116.918 199.867 116.822C200.032 116.726 200.22 116.675 200.411 116.676C200.602 116.676 200.789 116.728 200.954 116.825C201.119 116.922 201.255 117.061 201.348 117.228C201.728 117.867 202.1 118.512 202.464 119.161C202.567 119.327 202.623 119.518 202.626 119.714C202.628 119.909 202.578 120.102 202.479 120.271C202.381 120.44 202.238 120.579 202.067 120.673C201.896 120.767 201.702 120.812 201.507 120.805C201.101 120.805 200.695 120.805 200.289 120.805" fill="#272421"/>
<path d="M71.6589 192.246C77.3483 192.246 81.9604 187.633 81.9604 181.944C81.9604 176.255 77.3483 171.643 71.6589 171.643C65.9696 171.643 61.3574 176.255 61.3574 181.944C61.3574 187.633 65.9696 192.246 71.6589 192.246Z" fill="url(#paint28_linear_865_41672)"/>
<g opacity="0.696">
<path d="M71.52 196.235C71.0192 196.235 70.5183 196.19 70.0175 196.144L70.1541 194.687C70.6094 194.733 71.0647 194.778 71.52 194.778H71.6566V196.235H71.52ZM73.2055 196.144L73.0233 194.687C73.4786 194.642 73.9339 194.551 74.3893 194.46L74.708 195.871L73.2055 196.144ZM68.4686 195.917C67.9705 195.827 67.4824 195.688 67.0116 195.503L67.4669 194.137C67.9223 194.273 68.332 194.41 68.7915 194.501L68.4686 195.917ZM76.1674 195.461L75.6666 194.095C76.0805 193.959 76.5317 193.777 76.9415 193.594L77.5789 194.919C77.1211 195.097 76.6203 195.279 76.1649 195.461H76.1674ZM65.6018 194.915C65.1465 194.687 64.6912 194.46 64.2359 194.186L64.9644 192.957C65.3783 193.185 65.784 193.412 66.1937 193.594L65.6018 194.915ZM78.9001 194.141L78.1261 192.911C78.5228 192.68 78.9031 192.421 79.2643 192.137L80.175 193.276C79.7627 193.548 79.3529 193.864 78.8976 194.141H78.9001ZM62.9578 193.368C62.5438 193.049 62.1837 192.73 61.774 192.366L62.7756 191.319C63.1039 191.631 63.4538 191.921 63.8228 192.184L62.9578 193.368ZM81.3116 192.275L80.3099 191.228C80.6368 190.916 80.9411 190.581 81.2205 190.226L82.3132 191.137C82.017 191.547 81.6815 191.928 81.3116 192.273V192.275ZM60.7715 191.273C60.432 190.891 60.1273 190.48 59.8608 190.044L61.0446 189.224L61.8642 190.317L60.7715 191.273ZM83.2694 189.907L82.0856 189.088C82.3565 188.72 82.5856 188.323 82.7685 187.904L84.0434 188.587C83.8124 189.042 83.5539 189.482 83.2694 189.905V189.907ZM59.0413 188.767C58.8136 188.311 58.586 187.856 58.4039 187.401L59.7698 186.854C59.9519 187.268 60.134 187.674 60.3617 188.084L59.0413 188.767ZM84.6817 187.218L83.3157 186.671C83.5016 186.246 83.6404 185.802 83.7297 185.347L85.1411 185.711C85.0154 186.221 84.862 186.724 84.6817 187.218ZM57.9022 185.943C57.7656 185.442 57.6746 184.941 57.5835 184.44L58.9949 184.213C59.0742 184.66 59.1806 185.103 59.3137 185.537L57.9022 185.943ZM85.4557 184.262L84.0442 184.034C84.1353 183.579 84.1353 183.123 84.1808 182.668L85.6378 182.713C85.5923 183.256 85.5476 183.757 85.4557 184.262ZM57.4014 182.937V181.388L58.8583 181.479V182.845L57.4014 182.937ZM84.1353 181.297C84.0898 180.842 84.0442 180.386 83.9532 179.931L85.3646 179.704C85.4557 180.204 85.5012 180.705 85.5467 181.207L84.1353 181.297ZM58.9958 180.113L57.5843 179.886C57.6754 179.385 57.7664 178.884 57.903 178.382L59.3145 178.747C59.1653 179.191 59.0585 179.649 58.9958 180.113ZM83.68 178.611C83.5558 178.177 83.4037 177.751 83.2247 177.336L84.5492 176.79C84.7434 177.265 84.9106 177.752 85.05 178.247L83.68 178.611ZM59.7243 177.473L58.3583 176.927C58.5432 176.459 58.7561 176.003 58.9958 175.561L60.2706 176.244C60.0612 176.641 59.8787 177.052 59.7243 177.473ZM82.6328 176.107C82.4051 175.694 82.1775 175.333 81.9043 174.924L83.0881 174.104C83.3613 174.518 83.6345 174.969 83.9076 175.429L82.6328 176.107ZM60.9991 175.058L59.8153 174.238C60.0885 173.824 60.4072 173.419 60.7259 173.009L61.8187 173.965C61.4958 174.289 61.22 174.657 60.9991 175.058ZM81.0839 173.831C80.7652 173.467 80.4465 173.148 80.1278 172.829L81.1294 171.782C81.4937 172.146 81.8579 172.511 82.1766 172.875L81.0839 173.831ZM62.7301 172.966L61.7284 171.919C62.0927 171.554 62.5025 171.236 62.8667 170.917L63.7318 172.055C63.4131 172.325 63.0943 172.645 62.7301 172.963V172.966ZM79.0797 171.964C78.7185 171.68 78.3382 171.422 77.9415 171.19L78.67 169.961C79.1123 170.223 79.538 170.512 79.9448 170.826L79.0797 171.964ZM64.9156 171.281L64.1416 170.052C64.5677 169.782 65.01 169.539 65.4661 169.323L66.1035 170.648C65.6936 170.83 65.2966 171.041 64.9156 171.278V171.281ZM76.7535 170.553C76.3398 170.358 75.914 170.191 75.4787 170.052L75.934 168.686C76.4348 168.868 76.8901 169.05 77.3454 169.232L76.7535 170.553ZM67.3717 170.139L66.9214 168.773C67.3941 168.593 67.8816 168.454 68.3784 168.359L68.6971 169.77C68.2456 169.851 67.8029 169.974 67.3751 170.14L67.3717 170.139ZM74.1599 169.725C73.7046 169.634 73.2493 169.543 72.794 169.497L72.9306 168.04C73.4315 168.086 73.9323 168.177 74.4331 168.268L74.1599 169.725ZM70.0614 169.497L69.8792 168.04C70.3801 167.995 70.8809 167.949 71.3818 167.949V169.406C70.9728 169.456 70.5175 169.456 70.0622 169.502L70.0614 169.497Z" fill="#272421"/>
</g>
<path d="M71.093 184.779L68.8132 182.51H64.3652L71.093 189.215V184.779Z" fill="#272421"/>
<path d="M71.9277 189.252L78.6522 182.51H74.2142L71.9277 184.8V189.252Z" fill="#272421"/>
<path d="M71.9277 174.941V179.379L74.2291 181.677H78.6812L71.9277 174.941Z" fill="#272421"/>
<path d="M71.0864 174.938L64.3652 181.676H68.8032L71.0864 179.385V174.938Z" fill="#272421"/>
<g opacity="0.4">
<path d="M109.999 33.4414L109.999 73.9214" stroke="#272421" stroke-width="2" stroke-dasharray="2 2"/>
<path d="M131.119 78.7617L166.358 56.8477" stroke="#272421" stroke-width="2" stroke-dasharray="2 2"/>
<path d="M131.587 98.2383L176.29 117.278" stroke="#272421" stroke-width="2" stroke-dasharray="2 2"/>
<path d="M122.319 126.721L138.212 158.669" stroke="#272421" stroke-width="2" stroke-dasharray="2 2"/>
<path d="M102.519 127.602L81.0908 166.121" stroke="#272421" stroke-width="2" stroke-dasharray="2 2"/>
<path d="M43.8369 115.624L86.0562 97.4121" stroke="#272421" stroke-width="2" stroke-dasharray="2 2"/>
<path d="M62.0488 61.8145L87.9992 79.6416" stroke="#272421" stroke-width="2" stroke-dasharray="2 2"/>
</g>
<path d="M127.6 84.9199V100.32C127.599 113.52 109.999 122.32 109.999 122.32C109.954 122.298 92.3997 113.503 92.3994 100.32V84.9199L109.999 78.3203L127.6 84.9199ZM102.646 96.5068C102.418 96.3406 102.098 96.5033 102.098 96.7852V99.3848C102.098 99.4941 102.149 99.5972 102.237 99.6621L108.606 104.363C108.873 104.561 108.734 104.985 108.402 104.985L102.443 104.995C102.253 104.996 102.1 105.15 102.1 105.34V107.407C102.1 107.598 102.254 107.752 102.444 107.752H117.633C117.823 107.752 117.978 107.598 117.978 107.407V105.328C117.978 105.138 117.823 104.984 117.633 104.983H111.67C111.338 104.983 111.198 104.561 111.464 104.362L117.854 99.6016C117.941 99.5365 117.992 99.434 117.992 99.3252V96.7969C117.992 96.5152 117.672 96.352 117.444 96.5176L110.239 101.755C110.118 101.843 109.955 101.842 109.834 101.754L102.646 96.5068ZM102.646 90.6465C102.419 90.4803 102.099 90.643 102.099 90.9248V93.5195C102.099 93.6314 102.153 93.7362 102.244 93.8008L109.644 99.0244L109.855 99.1562C109.967 99.2261 110.109 99.2261 110.221 99.1562L110.433 99.0244L117.849 93.7412C117.939 93.6765 117.993 93.5714 117.993 93.46V90.9365C117.993 90.6548 117.673 90.4916 117.445 90.6572L110.24 95.8945C110.119 95.9824 109.955 95.9827 109.834 95.8945L102.646 90.6465Z" fill="#272421"/>
<defs>
<linearGradient id="paint0_linear_865_41672" x1="197.549" y1="124.112" x2="220.163" y2="134.259" gradientUnits="userSpaceOnUse">
<stop stop-color="#846E55"/>
<stop offset="1" stop-color="#B3A55C"/>
</linearGradient>
<linearGradient id="paint1_linear_865_41672" x1="210.341" y1="100.532" x2="225.796" y2="107.466" gradientUnits="userSpaceOnUse">
<stop stop-color="#846E55"/>
<stop offset="1" stop-color="#B3A55C"/>
</linearGradient>
<linearGradient id="paint2_linear_865_41672" x1="3.91269" y1="65.4635" x2="32.5936" y2="78.3319" gradientUnits="userSpaceOnUse">
<stop stop-color="#846E55"/>
<stop offset="1" stop-color="#B3A55C"/>
</linearGradient>
<linearGradient id="paint3_linear_865_41672" x1="187.855" y1="40.93" x2="203.31" y2="47.8644" gradientUnits="userSpaceOnUse">
<stop stop-color="#846E55"/>
<stop offset="1" stop-color="#B3A55C"/>
</linearGradient>
<linearGradient id="paint4_linear_865_41672" x1="73.8952" y1="44.1119" x2="75.895" y2="43.5012" gradientUnits="userSpaceOnUse">
<stop stop-color="#846E55"/>
<stop offset="1" stop-color="#B3A55C"/>
</linearGradient>
<linearGradient id="paint5_linear_865_41672" x1="76.9138" y1="49.3404" x2="78.9136" y2="48.7297" gradientUnits="userSpaceOnUse">
<stop stop-color="#846E55"/>
<stop offset="1" stop-color="#B3A55C"/>
</linearGradient>
<linearGradient id="paint6_linear_865_41672" x1="77.7887" y1="45.9086" x2="80.8715" y2="46.5104" gradientUnits="userSpaceOnUse">
<stop stop-color="#846E55"/>
<stop offset="1" stop-color="#B3A55C"/>
</linearGradient>
<linearGradient id="paint7_linear_865_41672" x1="72.5592" y1="48.9242" x2="75.642" y2="49.5261" gradientUnits="userSpaceOnUse">
<stop stop-color="#846E55"/>
<stop offset="1" stop-color="#B3A55C"/>
</linearGradient>
<linearGradient id="paint8_linear_865_41672" x1="44.8617" y1="209.148" x2="47.583" y2="209.777" gradientUnits="userSpaceOnUse">
<stop stop-color="#846E55"/>
<stop offset="1" stop-color="#B3A55C"/>
</linearGradient>
<linearGradient id="paint9_linear_865_41672" x1="44.8617" y1="217.214" x2="47.583" y2="217.844" gradientUnits="userSpaceOnUse">
<stop stop-color="#846E55"/>
<stop offset="1" stop-color="#B3A55C"/>
</linearGradient>
<linearGradient id="paint10_linear_865_41672" x1="48.1653" y1="213.823" x2="51.3296" y2="216.579" gradientUnits="userSpaceOnUse">
<stop stop-color="#846E55"/>
<stop offset="1" stop-color="#B3A55C"/>
</linearGradient>
<linearGradient id="paint11_linear_865_41672" x1="40.0989" y1="213.823" x2="43.2632" y2="216.579" gradientUnits="userSpaceOnUse">
<stop stop-color="#846E55"/>
<stop offset="1" stop-color="#B3A55C"/>
</linearGradient>
<linearGradient id="paint12_linear_865_41672" x1="-0.0913014" y1="58.4875" x2="9.37032" y2="62.7327" gradientUnits="userSpaceOnUse">
<stop stop-color="#846E55"/>
<stop offset="1" stop-color="#B3A55C"/>
</linearGradient>
<linearGradient id="paint13_linear_865_41672" x1="11.1747" y1="103.753" x2="18.6795" y2="107.121" gradientUnits="userSpaceOnUse">
<stop stop-color="#846E55"/>
<stop offset="1" stop-color="#B3A55C"/>
</linearGradient>
<linearGradient id="paint14_linear_865_41672" x1="219.81" y1="119.657" x2="228.195" y2="123.419" gradientUnits="userSpaceOnUse">
<stop stop-color="#846E55"/>
<stop offset="1" stop-color="#B3A55C"/>
</linearGradient>
<linearGradient id="paint15_linear_865_41672" x1="167.943" y1="129.937" x2="169.201" y2="131.608" gradientUnits="userSpaceOnUse">
<stop stop-color="#846E55"/>
<stop offset="1" stop-color="#B3A55C"/>
</linearGradient>
<linearGradient id="paint16_linear_865_41672" x1="164.06" y1="134.564" x2="165.318" y2="136.235" gradientUnits="userSpaceOnUse">
<stop stop-color="#846E55"/>
<stop offset="1" stop-color="#B3A55C"/>
</linearGradient>
<linearGradient id="paint17_linear_865_41672" x1="167.592" y1="134.211" x2="168.081" y2="137.313" gradientUnits="userSpaceOnUse">
<stop stop-color="#846E55"/>
<stop offset="1" stop-color="#B3A55C"/>
</linearGradient>
<linearGradient id="paint18_linear_865_41672" x1="162.967" y1="130.328" x2="163.456" y2="133.431" gradientUnits="userSpaceOnUse">
<stop stop-color="#846E55"/>
<stop offset="1" stop-color="#B3A55C"/>
</linearGradient>
<linearGradient id="paint19_linear_865_41672" x1="184.195" y1="36.5814" x2="191.7" y2="39.9487" gradientUnits="userSpaceOnUse">
<stop stop-color="#846E55"/>
<stop offset="1" stop-color="#B3A55C"/>
</linearGradient>
<linearGradient id="paint20_linear_865_41672" x1="99.8905" y1="4.66432" x2="132.488" y2="19.2899" gradientUnits="userSpaceOnUse">
<stop stop-color="#846E55"/>
<stop offset="1" stop-color="#B3A55C"/>
</linearGradient>
<linearGradient id="paint21_linear_865_41672" x1="169.591" y1="36.3557" x2="202.188" y2="50.9813" gradientUnits="userSpaceOnUse">
<stop stop-color="#846E55"/>
<stop offset="1" stop-color="#B3A55C"/>
</linearGradient>
<linearGradient id="paint22_linear_865_41672" x1="14.4247" y1="112.344" x2="47.0217" y2="126.97" gradientUnits="userSpaceOnUse">
<stop stop-color="#846E55"/>
<stop offset="1" stop-color="#B3A55C"/>
</linearGradient>
<linearGradient id="paint23_linear_865_41672" x1="17.6798" y1="119.338" x2="18.3377" y2="123.47" gradientUnits="userSpaceOnUse">
<stop stop-color="#846E55"/>
<stop offset="1" stop-color="#B3A55C"/>
</linearGradient>
<linearGradient id="paint24_linear_865_41672" x1="133.646" y1="167.673" x2="177.538" y2="187.367" gradientUnits="userSpaceOnUse">
<stop stop-color="#846E55"/>
<stop offset="1" stop-color="#B3A55C"/>
</linearGradient>
<linearGradient id="paint25_linear_865_41672" x1="26.1678" y1="33.5018" x2="74.2591" y2="55.0793" gradientUnits="userSpaceOnUse">
<stop stop-color="#846E55"/>
<stop offset="1" stop-color="#B3A55C"/>
</linearGradient>
<linearGradient id="paint26_linear_865_41672" x1="37.8701" y1="36.5167" x2="51.4399" y2="38.518" gradientUnits="userSpaceOnUse">
<stop stop-color="#846E55"/>
<stop offset="1" stop-color="#B3A55C"/>
</linearGradient>
<linearGradient id="paint27_linear_865_41672" x1="186.391" y1="109.7" x2="223.795" y2="126.483" gradientUnits="userSpaceOnUse">
<stop stop-color="#846E55"/>
<stop offset="1" stop-color="#B3A55C"/>
</linearGradient>
<linearGradient id="paint28_linear_865_41672" x1="61.0429" y1="172.615" x2="93.6399" y2="187.241" gradientUnits="userSpaceOnUse">
<stop stop-color="#846E55"/>
<stop offset="1" stop-color="#B3A55C"/>
</linearGradient>
</defs>
</svg>
