<svg width="21" height="24" viewBox="0 0 21 24" fill="none" xmlns="http://www.w3.org/2000/svg">
<path fill-rule="evenodd" clip-rule="evenodd" d="M7.36309 2.58284L6.31717 1.7587L7.68655 0L10.7856 2.42692C10.9659 2.57131 11.0969 2.76826 11.1603 2.99044C11.2236 3.21262 11.2163 3.44902 11.1392 3.66683C11.0621 3.88464 10.9192 4.07306 10.7302 4.20594C10.5411 4.33882 10.3155 4.40956 10.0844 4.40836C9.07402 4.39337 8.07057 4.57764 7.13141 4.95062C6.19226 5.3236 5.33581 5.878 4.611 6.58212C3.8862 7.28624 3.30724 8.12628 2.90723 9.05425C2.50722 9.98221 2.29399 10.9799 2.27972 11.9903C2.28281 13.1777 2.56688 14.3475 3.1087 15.404C3.65052 16.4605 4.43471 17.3738 5.39714 18.0692C5.72575 18.3065 6.07182 18.5185 6.43241 18.7036L5.4078 20.6763C4.9338 20.4352 4.48034 20.1557 4.05197 19.8405L4.69793 18.9389L4.04132 19.8299C2.7935 18.9279 1.77683 17.7435 1.07444 16.3734C0.372049 15.0033 0.00386889 13.4864 0 11.9467C0.0127638 9.79323 0.730451 7.70315 2.04333 5.99607C3.35621 4.289 5.19204 3.05886 7.27012 2.49375L7.36309 2.58284ZM17.9065 12.0242C17.8981 10.6316 17.506 9.26816 16.7734 8.08371C16.0409 6.89926 14.9961 5.93957 13.7539 5.30998L14.7668 3.32854C16.5343 4.21963 17.9884 5.62792 18.9355 7.36593C19.8827 9.10395 20.278 11.0892 20.0689 13.0575C19.8597 15.0258 19.056 16.8837 17.7647 18.3838C16.4734 19.8839 14.7558 20.9552 12.8406 21.4549L13.8652 22.2568L12.491 24L9.38423 21.5731C9.20105 21.4291 9.06727 21.2316 9.00149 21.008C8.93571 20.7845 8.9412 20.546 9.01719 20.3257C9.08806 20.1043 9.22789 19.9114 9.41625 19.7751C9.60461 19.6389 9.83161 19.5664 10.0641 19.5684C12.1044 19.5943 14.0715 18.8089 15.533 17.385C16.9945 15.9611 17.8308 14.0151 17.8581 11.9748L17.9065 12.0242Z" fill="url(#paint0_linear_861_33480)"/>
<path fill-rule="evenodd" clip-rule="evenodd" d="M8.4439 6.46461C8.29725 6.46318 8.15179 6.49102 8.01603 6.54648C7.88026 6.60195 7.75692 6.68393 7.65322 6.78763C7.54952 6.89134 7.46753 7.01468 7.41207 7.15044C7.3566 7.28621 7.32877 7.43167 7.33019 7.57832V9.12783H5.66059C5.51466 9.12603 5.36982 9.15329 5.23452 9.20801C5.09922 9.26274 4.97616 9.34384 4.87251 9.44658C4.76886 9.54933 4.68669 9.67168 4.63078 9.8065C4.57488 9.94132 4.54636 10.0859 4.54688 10.2319V13.4374C4.54637 13.5838 4.57483 13.7289 4.63062 13.8642C4.6864 13.9996 4.76842 14.1225 4.87194 14.2261C4.97546 14.3296 5.09844 14.4116 5.23379 14.4674C5.36914 14.5232 5.5142 14.5516 5.66059 14.5511H7.33019V16.1006C7.32968 16.247 7.35814 16.3921 7.41393 16.5274C7.46971 16.6628 7.55173 16.7858 7.65525 16.8893C7.75877 16.9928 7.88175 17.0748 8.0171 17.1306C8.15245 17.1864 8.29751 17.2149 8.4439 17.2143H11.7841C12.0792 17.2136 12.362 17.096 12.5707 16.8873C12.7794 16.6786 12.897 16.3958 12.8978 16.1006V14.5414H14.5683C14.8635 14.5407 15.1463 14.4231 15.355 14.2144C15.5637 14.0057 15.6813 13.7229 15.6821 13.4277V10.2212C15.6826 10.0748 15.6541 9.92975 15.5983 9.7944C15.5425 9.65905 15.4605 9.53607 15.357 9.43255C15.2535 9.32903 15.1305 9.24701 14.9952 9.19123C14.8598 9.13544 14.7147 9.10698 14.5683 9.10749H12.8978V7.54927C12.8983 7.40287 12.8698 7.25781 12.814 7.12246C12.7583 6.98711 12.6762 6.86413 12.5727 6.76061C12.4692 6.65709 12.3462 6.57508 12.2109 6.51929C12.0755 6.4635 11.9305 6.43504 11.7841 6.43555H8.4439V6.46461Z" fill="url(#paint1_linear_861_33480)"/>
<defs>
<linearGradient id="paint0_linear_861_33480" x1="-0.307228" y1="1.13333" x2="33.1984" y2="13.7383" gradientUnits="userSpaceOnUse">
<stop stop-color="#846E55"/>
<stop offset="1" stop-color="#B3A55C"/>
</linearGradient>
<linearGradient id="paint1_linear_861_33480" x1="4.37687" y1="6.94455" x2="21.7982" y2="15.0195" gradientUnits="userSpaceOnUse">
<stop stop-color="#846E55"/>
<stop offset="1" stop-color="#B3A55C"/>
</linearGradient>
</defs>
</svg>
