<svg width="240" height="191" viewBox="0 0 240 191" fill="none" xmlns="http://www.w3.org/2000/svg">
<g opacity="0.272">
<path d="M54.0746 176.797C77.7604 176.797 96.9615 157.696 96.9615 134.133C96.9615 110.571 77.7604 91.4697 54.0746 91.4697C30.3889 91.4697 11.1877 110.571 11.1877 134.133C11.1877 157.696 30.3889 176.797 54.0746 176.797Z" fill="url(#paint0_linear_182_13754)"/>
<path d="M65.8264 188.701C66.3912 189.156 67.0791 189.434 67.8029 189.5C68.5266 189.566 69.2539 189.418 69.8926 189.072C70.5313 188.727 71.0528 188.202 71.3912 187.562C71.7295 186.922 71.8695 186.196 71.7933 185.477C71.7172 184.758 71.4285 184.078 70.9635 183.522C70.4986 182.966 69.8785 182.56 69.1815 182.355C68.4845 182.15 67.7421 182.155 67.048 182.369C66.3539 182.584 65.7394 182.999 65.2823 183.561C64.6694 184.314 64.3824 185.279 64.4845 186.243C64.5865 187.207 65.0692 188.091 65.8264 188.701Z" fill="url(#paint1_linear_182_13754)"/>
<path d="M79.028 180.982C79.4138 181.293 79.8835 181.483 80.3779 181.528C80.8722 181.573 81.3688 181.472 81.805 181.236C82.2412 181 82.5974 180.641 82.8284 180.204C83.0594 179.767 83.155 179.272 83.1029 178.781C83.0509 178.29 82.8537 177.825 82.5361 177.445C82.2186 177.066 81.795 176.788 81.319 176.648C80.843 176.508 80.3359 176.512 79.8619 176.659C79.3879 176.805 78.9683 177.089 78.6561 177.472C78.2378 177.987 78.0419 178.646 78.1116 179.304C78.1814 179.962 78.511 180.566 79.028 180.982Z" fill="url(#paint2_linear_182_13754)"/>
<path d="M4.66067 122.279C5.58246 122.279 6.48355 122.007 7.25 121.497C8.01644 120.988 8.61381 120.264 8.96657 119.417C9.31932 118.569 9.41162 117.637 9.23178 116.738C9.05195 115.838 8.60806 115.012 7.95626 114.364C7.30445 113.715 6.474 113.274 5.56992 113.095C4.66584 112.916 3.72873 113.008 2.87711 113.359C2.02548 113.71 1.29759 114.304 0.785464 115.066C0.273343 115.829 0 116.725 0 117.642C0 118.872 0.491034 120.051 1.36508 120.921C2.23912 121.79 3.42458 122.279 4.66067 122.279Z" fill="url(#paint3_linear_182_13754)"/>
</g>
<g opacity="0.272">
<path d="M220.429 47.9269C227.428 42.6824 228.821 32.7801 223.54 25.8093C218.259 18.8386 208.305 17.4392 201.307 22.6837C194.308 27.9282 192.916 37.8306 198.196 44.8013C203.477 51.772 213.431 53.1714 220.429 47.9269Z" fill="url(#paint4_linear_182_13754)"/>
<path d="M219.613 54.0423C219.548 54.3016 219.408 54.5358 219.209 54.7153C219.01 54.8949 218.762 55.0117 218.496 55.051C218.23 55.0903 217.958 55.0503 217.715 54.9361C217.472 54.8219 217.268 54.6386 217.129 54.4095C216.991 54.1803 216.923 53.9155 216.936 53.6485C216.949 53.3816 217.041 53.1245 217.201 52.9098C217.361 52.6951 217.581 52.5324 217.834 52.4423C218.087 52.3522 218.361 52.3387 218.622 52.4035C218.972 52.4905 219.273 52.712 219.459 53.0193C219.645 53.3267 219.7 53.6946 219.613 54.0423Z" fill="url(#paint5_linear_182_13754)"/>
<path d="M213.981 54.685C213.937 54.862 213.841 55.0219 213.705 55.1445C213.569 55.2671 213.4 55.3468 213.218 55.3737C213.037 55.4005 212.851 55.3732 212.685 55.2953C212.519 55.2173 212.38 55.0922 212.285 54.9357C212.19 54.7792 212.145 54.5984 212.153 54.4162C212.162 54.2339 212.225 54.0584 212.334 53.9118C212.443 53.7652 212.593 53.6542 212.766 53.5926C212.939 53.5311 213.126 53.5219 213.304 53.5662C213.543 53.6259 213.748 53.7772 213.875 53.9869C214.002 54.1966 214.04 54.4477 213.981 54.685Z" fill="url(#paint6_linear_182_13754)"/>
<path d="M222.823 20.8501C222.55 21.0541 222.223 21.1731 221.883 21.1921C221.542 21.2111 221.204 21.1292 220.91 20.9567C220.616 20.7843 220.38 20.5291 220.232 20.2233C220.083 19.9176 220.029 19.5751 220.076 19.2391C220.124 18.9031 220.27 18.5887 220.497 18.3358C220.724 18.0828 221.021 17.9025 221.351 17.8178C221.681 17.7331 222.03 17.7478 222.352 17.8599C222.674 17.972 222.955 18.1766 223.161 18.4477C223.436 18.8113 223.555 19.2687 223.492 19.7192C223.428 20.1698 223.188 20.5766 222.823 20.8501Z" fill="url(#paint7_linear_182_13754)"/>
</g>
<path d="M55.9998 31.2883V93.0434C55.9888 114.112 63.4646 134.505 77.1016 150.605C90.7386 166.705 109.656 177.473 130.5 181C151.344 177.473 170.261 166.705 183.898 150.605C197.535 134.505 205.011 114.112 205 93.0434V31.2883L130.572 2L55.9998 31.2883Z" fill="#F6F2ED"/>
<path d="M57.9998 32.6338V93.0089C57.9891 113.607 65.3143 133.544 78.6767 149.284C92.0392 165.025 110.576 175.552 131 179C151.424 175.552 169.96 165.025 183.323 149.284C196.685 133.544 204.01 113.607 204 93.0089V32.6338L131.071 4L57.9998 32.6338Z" fill="url(#paint8_linear_182_13754)"/>
<path d="M131.035 182.93H130.819C109.351 179.367 89.8522 168.381 75.7877 151.923C61.7232 135.464 54.0034 114.6 53.9998 93.036V30.0829L131.035 0L208 30.0829V93.1079C207.996 114.672 200.276 135.536 186.211 151.994C172.147 168.452 152.649 179.438 131.181 183L131.035 182.93ZM56.3807 31.6549V93.1079C56.3698 114.076 63.8539 134.37 77.5062 150.393C91.1585 166.416 110.097 177.133 130.964 180.643C151.831 177.133 170.77 166.416 184.422 150.393C198.075 134.37 205.559 114.076 205.548 93.1079V31.6549L131.035 2.50104L56.3807 31.6549Z" fill="url(#paint9_linear_182_13754)"/>
<path d="M67.4998 92.8367V92.8365V39.7012L131.062 14.5378L194.5 39.7009V92.8365V92.8367C194.509 110.963 188.128 128.507 176.489 142.359C164.868 156.188 148.756 165.444 131 168.493C113.244 165.444 97.1311 156.188 85.5103 142.359C73.8712 128.507 67.4904 110.963 67.4998 92.8367Z" stroke="#F6F2ED"/>
<path d="M131 22L74 44.3777V93.063C73.9947 109.362 79.6797 125.156 90.0798 137.734C100.48 150.312 114.947 158.891 131 162C147.053 158.891 161.52 150.312 171.92 137.734C182.32 125.156 188.005 109.362 188 93.063V44.3777L131 22ZM131.517 120.73C125.081 120.729 118.789 118.827 113.437 115.263C108.086 111.698 103.915 106.632 101.452 100.705C98.9889 94.7781 98.3446 88.2563 99.6005 81.9643C100.856 75.6723 103.956 69.8927 108.507 65.3565C113.058 60.8203 118.857 57.7312 125.17 56.4797C131.483 55.2283 138.026 55.8707 143.972 58.3258C149.919 60.7809 155.001 64.9384 158.577 70.2725C162.153 75.6066 164.062 81.8779 164.062 88.2932C164.064 92.5534 163.223 96.7723 161.589 100.709C159.954 104.645 157.557 108.222 154.535 111.234C151.512 114.246 147.924 116.636 143.975 118.265C140.025 119.894 135.791 120.732 131.517 120.73Z" fill="#F6F2ED"/>
<circle cx="132" cy="87" r="34" fill="#F6F2ED"/>
<circle cx="131" cy="92" r="38" stroke="url(#paint10_linear_182_13754)" stroke-width="2" stroke-dasharray="3 3"/>
<circle cx="131.139" cy="92.1392" r="28.1392" fill="url(#paint11_linear_182_13754)"/>
<path d="M133.298 100.914L133.194 100.941V103.495L133.36 103.46C136.033 102.879 138.401 101.338 140.015 99.1297C141.63 96.9209 142.378 94.1971 142.12 91.4735C141.862 88.75 140.614 86.2156 138.613 84.3499C136.612 82.4841 133.997 81.4164 131.262 81.3488V79L126.487 82.7025L131.262 86.4012V83.8287C133.362 83.862 135.38 84.6559 136.94 86.0632C138.5 87.4705 139.496 89.3957 139.745 91.4818C139.994 93.5679 139.477 95.6735 138.292 97.4079C137.106 99.1424 135.332 100.388 133.298 100.914ZM122.773 85.1285C121.213 86.8739 120.247 89.0699 120.015 91.3996V91.55H122.499V91.4305C122.711 89.744 123.417 88.1579 124.528 86.8717L124.613 86.7753L122.869 85.0166L122.773 85.1285ZM126.055 99.5606L124.289 101.327L124.416 101.42C126.349 102.894 128.715 103.69 131.146 103.684H131.281V101.2H131.146C129.365 101.202 127.627 100.652 126.171 99.6262L126.055 99.5606ZM120.012 93.6327C120.246 95.9624 121.213 98.1579 122.773 99.9038L122.869 100.016L124.624 98.2608L124.539 98.1644C123.43 96.8761 122.726 95.2889 122.515 93.6018V93.4784H120L120.012 93.6327Z" fill="#F6F2ED"/>
<path d="M135.518 90.8813H132.479V87.8682H129.689V90.8813H126.65V93.723H129.689V96.7362H132.479V93.723H135.518V90.8813Z" fill="#F6F2ED"/>
<defs>
<linearGradient id="paint0_linear_182_13754" x1="9.87822" y1="95.4991" x2="145.347" y2="156.599" gradientUnits="userSpaceOnUse">
<stop stop-color="#A58969"/>
<stop offset="1" stop-color="#C7B664"/>
</linearGradient>
<linearGradient id="paint1_linear_182_13754" x1="67.2901" y1="180.917" x2="72.9957" y2="192.254" gradientUnits="userSpaceOnUse">
<stop stop-color="#A58969"/>
<stop offset="1" stop-color="#C7B664"/>
</linearGradient>
<linearGradient id="paint2_linear_182_13754" x1="80.0276" y1="175.667" x2="83.924" y2="183.409" gradientUnits="userSpaceOnUse">
<stop stop-color="#A58969"/>
<stop offset="1" stop-color="#C7B664"/>
</linearGradient>
<linearGradient id="paint3_linear_182_13754" x1="-0.142311" y1="113.444" x2="14.5796" y2="120.084" gradientUnits="userSpaceOnUse">
<stop stop-color="#A58969"/>
<stop offset="1" stop-color="#C7B664"/>
</linearGradient>
<linearGradient id="paint4_linear_182_13754" x1="189.151" y1="33.6617" x2="242.781" y2="21.3495" gradientUnits="userSpaceOnUse">
<stop stop-color="#A58969"/>
<stop offset="1" stop-color="#C7B664"/>
</linearGradient>
<linearGradient id="paint5_linear_182_13754" x1="219.827" y1="52.6605" x2="216.936" y2="56.3589" gradientUnits="userSpaceOnUse">
<stop stop-color="#A58969"/>
<stop offset="1" stop-color="#C7B664"/>
</linearGradient>
<linearGradient id="paint6_linear_182_13754" x1="214.127" y1="53.7416" x2="212.153" y2="56.2667" gradientUnits="userSpaceOnUse">
<stop stop-color="#A58969"/>
<stop offset="1" stop-color="#C7B664"/>
</linearGradient>
<linearGradient id="paint7_linear_182_13754" x1="219.425" y1="19.3006" x2="225.251" y2="17.9633" gradientUnits="userSpaceOnUse">
<stop stop-color="#A58969"/>
<stop offset="1" stop-color="#C7B664"/>
</linearGradient>
<linearGradient id="paint8_linear_182_13754" x1="55.7707" y1="12.2639" x2="299.162" y2="103.371" gradientUnits="userSpaceOnUse">
<stop stop-color="#A58969"/>
<stop offset="1" stop-color="#C7B664"/>
</linearGradient>
<linearGradient id="paint9_linear_182_13754" x1="51.6486" y1="8.64167" x2="307.828" y2="105.368" gradientUnits="userSpaceOnUse">
<stop stop-color="#A58969"/>
<stop offset="1" stop-color="#C7B664"/>
</linearGradient>
<linearGradient id="paint10_linear_182_13754" x1="90.8092" y1="56.6833" x2="214.217" y2="112.053" gradientUnits="userSpaceOnUse">
<stop stop-color="#A58969"/>
<stop offset="1" stop-color="#C7B664"/>
</linearGradient>
<linearGradient id="paint11_linear_182_13754" x1="102.141" y1="66.6576" x2="191.182" y2="106.608" gradientUnits="userSpaceOnUse">
<stop stop-color="#A58969"/>
<stop offset="1" stop-color="#C7B664"/>
</linearGradient>
</defs>
</svg>
