<svg width="14" height="14" viewBox="0 0 14 14" fill="none" xmlns="http://www.w3.org/2000/svg">
<path d="M2.60282 1.05684e-05C2.28188 -0.000935006 1.96393 0.0615801 1.66724 0.18396C1.37056 0.30634 1.10099 0.48617 0.874056 0.713106C0.64712 0.940042 0.46729 1.20961 0.34491 1.50629C0.22253 1.80298 0.160015 2.12093 0.16096 2.44187V11.5581C0.160532 11.8789 0.2234 12.1967 0.345963 12.4931C0.468526 12.7896 0.648375 13.0589 0.875208 13.2858C1.10204 13.5126 1.3714 13.6924 1.66785 13.815C1.96431 13.9376 2.28203 14.0004 2.60282 14H9.11444C9.76201 13.9998 10.383 13.7425 10.8409 13.2846C11.2988 12.8267 11.5561 12.2057 11.5563 11.5581V2.44187C11.5567 2.12108 11.4939 1.80336 11.3713 1.5069C11.2487 1.21045 11.0689 0.941091 10.8421 0.714259C10.6152 0.487426 10.3459 0.307576 10.0494 0.185013C9.75295 0.06245 9.43523 -0.000418009 9.11444 1.05684e-05H2.60282Z" fill="#F6F2ED"/>
<path d="M12.0384 8.15228C11.9303 8.04395 11.802 7.95801 11.6606 7.89937C11.5193 7.84073 11.3677 7.81055 11.2147 7.81055C11.0617 7.81055 10.9102 7.84073 10.7688 7.89937C10.6275 7.95801 10.4991 8.04395 10.391 8.15228L9.43379 9.10297C9.38747 9.14773 9.35063 9.20135 9.32548 9.26064C9.30032 9.31993 9.28735 9.38368 9.28735 9.44809C9.28735 9.5125 9.30032 9.57625 9.32548 9.63554C9.35063 9.69483 9.38747 9.74845 9.43379 9.79321L10.8598 11.2193C10.9055 11.2637 10.9595 11.2987 11.0187 11.3222C11.0779 11.3457 11.1412 11.3572 11.2049 11.356C11.3339 11.3534 11.4572 11.3023 11.5501 11.2127L12.5008 10.2555C12.7175 10.0361 12.839 9.74019 12.839 9.43181C12.839 9.12343 12.7175 8.82748 12.5008 8.60809L12.0189 8.12623L12.0384 8.15228Z" fill="#F6F2ED" stroke="url(#paint0_linear_526_8031)"/>
<path fill-rule="evenodd" clip-rule="evenodd" d="M2.76638 3.74425C2.76577 3.67995 2.77799 3.61617 2.80231 3.55664C2.82664 3.49712 2.86259 3.44304 2.90806 3.39757C2.95353 3.35209 3.00761 3.31614 3.06714 3.29182C3.12667 3.26749 3.19045 3.25527 3.25475 3.25588H8.46405C8.59357 3.25588 8.71779 3.30733 8.80938 3.39892C8.90097 3.49051 8.95242 3.61473 8.95242 3.74425C8.95242 3.87378 8.90097 3.998 8.80938 4.08958C8.71779 4.18117 8.59357 4.23262 8.46405 4.23262H3.25475C3.19059 4.23271 3.12705 4.22014 3.06776 4.19562C3.00847 4.17111 2.9546 4.13514 2.90923 4.08977C2.86386 4.04441 2.82789 3.99054 2.80338 3.93125C2.77887 3.87195 2.76629 3.80841 2.76638 3.74425Z" fill="url(#paint1_linear_526_8031)"/>
<path fill-rule="evenodd" clip-rule="evenodd" d="M2.76638 7.00011C2.76577 6.93581 2.77799 6.87203 2.80231 6.8125C2.82664 6.75298 2.86259 6.6989 2.90806 6.65342C2.95353 6.60795 3.00761 6.572 3.06714 6.54768C3.12667 6.52335 3.19045 6.51113 3.25475 6.51174H8.46405C8.59357 6.51174 8.71779 6.56319 8.80938 6.65478C8.90097 6.74637 8.95242 6.87059 8.95242 7.00011C8.95242 7.12964 8.90097 7.25386 8.80938 7.34544C8.71779 7.43703 8.59357 7.48848 8.46405 7.48848H3.25475C3.19059 7.48857 3.12705 7.476 3.06776 7.45148C3.00847 7.42697 2.9546 7.391 2.90923 7.34563C2.86386 7.30027 2.82789 7.2464 2.80338 7.18711C2.77887 7.12781 2.76629 7.06427 2.76638 7.00011Z" fill="url(#paint2_linear_526_8031)"/>
<path fill-rule="evenodd" clip-rule="evenodd" d="M2.76638 10.256C2.76577 10.1917 2.77799 10.1279 2.80231 10.0684C2.82664 10.0088 2.86259 9.95476 2.90806 9.90928C2.95353 9.86381 3.00761 9.82786 3.06714 9.80353C3.12667 9.77921 3.19045 9.76699 3.25475 9.7676H5.8594C5.98892 9.7676 6.11314 9.81905 6.20473 9.91064C6.29632 10.0022 6.34777 10.1264 6.34777 10.256C6.34777 10.3855 6.29632 10.5097 6.20473 10.6013C6.11314 10.6929 5.98892 10.7443 5.8594 10.7443H3.25475C3.19059 10.7444 3.12705 10.7319 3.06776 10.7073C3.00847 10.6828 2.9546 10.6469 2.90923 10.6015C2.86386 10.5561 2.82789 10.5023 2.80338 10.443C2.77887 10.3837 2.76629 10.3201 2.76638 10.256Z" fill="url(#paint3_linear_526_8031)"/>
<path d="M10.13 9.10342C10.0846 9.05707 10.0304 9.02025 9.97056 8.99512C9.91074 8.96998 9.8465 8.95703 9.78162 8.95703C9.71673 8.95703 9.6525 8.96998 9.59268 8.99512C9.53286 9.02025 9.47866 9.05707 9.43325 9.10342L7.04348 11.4867C6.9673 11.5599 6.91701 11.6559 6.90023 11.7602L6.65929 13.4271C6.64721 13.5015 6.65333 13.5776 6.67715 13.6491C6.70097 13.7205 6.74176 13.7851 6.79604 13.8374C6.84972 13.8896 6.91449 13.929 6.98552 13.9526C7.05655 13.9763 7.13201 13.9837 7.20627 13.9741L8.87325 13.7332C8.97705 13.7149 9.07262 13.6649 9.14673 13.5899L11.53 11.2002C11.619 11.1048 11.6679 10.9789 11.6667 10.8485C11.6655 10.7174 11.6143 10.5916 11.5235 10.4969L10.0909 9.06435L10.13 9.10342Z" fill="url(#paint4_linear_526_8031)"/>
<defs>
<linearGradient id="paint0_linear_526_8031" x1="9.23313" y1="7.97797" x2="14.8491" y2="10.5021" gradientUnits="userSpaceOnUse">
<stop stop-color="#846E55"/>
<stop offset="1" stop-color="#B3A55C"/>
</linearGradient>
<linearGradient id="paint1_linear_526_8031" x1="2.67191" y1="3.30198" x2="3.96759" y2="6.98372" gradientUnits="userSpaceOnUse">
<stop stop-color="#846E55"/>
<stop offset="1" stop-color="#B3A55C"/>
</linearGradient>
<linearGradient id="paint2_linear_526_8031" x1="2.67191" y1="6.55784" x2="3.96759" y2="10.2396" gradientUnits="userSpaceOnUse">
<stop stop-color="#846E55"/>
<stop offset="1" stop-color="#B3A55C"/>
</linearGradient>
<linearGradient id="paint3_linear_526_8031" x1="2.71168" y1="9.8137" x2="4.54823" y2="12.835" gradientUnits="userSpaceOnUse">
<stop stop-color="#846E55"/>
<stop offset="1" stop-color="#B3A55C"/>
</linearGradient>
<linearGradient id="paint4_linear_526_8031" x1="6.57672" y1="9.19414" x2="14.5129" y2="12.7495" gradientUnits="userSpaceOnUse">
<stop stop-color="#846E55"/>
<stop offset="1" stop-color="#B3A55C"/>
</linearGradient>
</defs>
</svg>
