<svg width="288" height="250" viewBox="0 0 288 250" fill="none" xmlns="http://www.w3.org/2000/svg">
<path d="M153.748 234.547C218.517 234.547 271.022 182.042 271.022 117.274C271.022 52.5052 218.517 0 153.748 0C88.9798 0 36.4745 52.5052 36.4745 117.274C36.4745 182.042 88.9798 234.547 153.748 234.547Z" fill="#C3B075" fill-opacity="0.1"/>
<path d="M64.0523 234.548H61.932V238.663H64.0523V234.548Z" fill="url(#paint0_linear_848_6493)"/>
<path d="M64.0463 245.885H61.926V250H64.0463V245.885Z" fill="url(#paint1_linear_848_6493)"/>
<path d="M70.7162 241.214H66.6014V243.335H70.7162V241.214Z" fill="url(#paint2_linear_848_6493)"/>
<path d="M59.3769 241.214H55.2621V243.335H59.3769V241.214Z" fill="url(#paint3_linear_848_6493)"/>
<path d="M4.20327 58.6114C6.52467 58.6114 8.40654 56.7295 8.40654 54.4081C8.40654 52.0867 6.52467 50.2048 4.20327 50.2048C1.88187 50.2048 0 52.0867 0 54.4081C0 56.7295 1.88187 58.6114 4.20327 58.6114Z" fill="url(#paint4_linear_848_6493)"/>
<path d="M283.736 137.866C285.793 137.866 287.461 136.198 287.461 134.141C287.461 132.084 285.793 130.416 283.736 130.416C281.679 130.416 280.011 132.084 280.011 134.141C280.011 136.198 281.679 137.866 283.736 137.866Z" fill="url(#paint5_linear_848_6493)"/>
<path d="M137.306 191.221H99.6283C99.4414 191.221 99.2563 191.258 99.0837 191.329C98.911 191.401 98.7541 191.506 98.6219 191.638C98.4898 191.77 98.385 191.927 98.3134 192.1C98.2419 192.272 98.2051 192.457 98.2051 192.644C98.1961 198.148 100.269 203.451 104.007 207.491C107.745 211.53 112.872 214.006 118.36 214.423C118.395 214.423 118.431 214.423 118.467 214.423C118.503 214.423 118.54 214.423 118.574 214.423C124.062 214.006 129.189 211.53 132.927 207.49C136.665 203.451 138.738 198.148 138.728 192.644C138.728 192.267 138.579 191.905 138.312 191.638C138.045 191.371 137.684 191.221 137.306 191.221ZM130.324 206.088C127.141 209.259 122.94 211.203 118.463 211.577C113.956 211.21 109.728 209.243 106.544 206.032C103.36 202.821 101.428 198.577 101.098 194.067H135.834C135.501 198.605 133.548 202.872 130.33 206.088H130.324Z" fill="url(#paint6_linear_848_6493)"/>
<path d="M105.403 197.611C106.163 199.857 107.428 201.898 109.102 203.576C110.133 204.602 111.303 205.478 112.576 206.181C114.378 207.18 116.404 207.704 118.464 207.704C120.524 207.704 122.55 207.18 124.352 206.181C127.737 204.326 130.3 201.265 131.529 197.605L105.403 197.611Z" fill="url(#paint7_linear_848_6493)"/>
<path d="M246.721 88.2621C244.692 86.2322 242.282 84.623 239.629 83.5268C236.976 82.4307 234.133 81.8692 231.263 81.8745H156.153C155.786 81.8765 155.434 82.0201 155.17 82.2753C154.907 82.5305 154.752 82.8776 154.738 83.2442C154.724 83.6107 154.853 83.9685 155.096 84.2428C155.34 84.5171 155.68 84.6867 156.046 84.7163C160.819 85.1082 165.27 87.2803 168.516 90.8017C171.762 94.323 173.566 98.936 173.568 103.725C173.568 103.912 173.605 104.097 173.677 104.27C173.748 104.443 173.853 104.599 173.985 104.732C174.117 104.864 174.274 104.969 174.447 105.04C174.62 105.112 174.805 105.148 174.992 105.148H251.692C252.069 105.148 252.431 104.999 252.698 104.732C252.965 104.465 253.115 104.103 253.115 103.725C253.12 100.854 252.558 98.0093 251.461 95.3556C250.363 92.7019 248.753 90.2913 246.721 88.2621ZM176.371 102.302C176.035 97.0052 173.778 92.0128 170.023 88.2621C168.639 86.8861 167.083 85.6954 165.393 84.7198H231.264C236.061 84.7108 240.684 86.5196 244.2 89.7819C247.717 93.0443 249.867 97.518 250.218 102.302H176.371Z" fill="#272421"/>
<path d="M214.006 102.263H176.367C176.012 97.021 173.788 92.08 170.098 88.3385C166.409 84.597 161.5 82.3033 156.263 81.8743C156.192 81.8687 156.12 81.8687 156.048 81.8743C150.565 82.3206 145.449 84.8104 141.715 88.8502C137.981 92.8901 135.9 98.1852 135.886 103.687V192.649C135.891 195.189 135.384 197.703 134.395 200.043C133.041 203.254 130.828 206.03 128 208.066C125.172 210.102 121.838 211.32 118.363 211.586C117.994 211.611 117.651 211.779 117.404 212.054C117.157 212.329 117.027 212.689 117.041 213.058C117.055 213.427 117.212 213.776 117.478 214.031C117.745 214.286 118.101 214.428 118.47 214.426L193.584 214.492C195.488 214.495 197.383 214.246 199.221 213.751C199.568 213.657 199.867 213.435 200.057 213.129C200.247 212.824 200.314 212.458 200.245 212.105C199.259 207.008 200.157 201.727 202.771 197.242C205.385 192.757 209.538 189.373 214.458 187.719C214.742 187.625 214.988 187.444 215.162 187.201C215.337 186.959 215.43 186.668 215.43 186.369V103.687C215.43 103.5 215.393 103.314 215.322 103.142C215.25 102.969 215.145 102.812 215.013 102.68C214.881 102.548 214.724 102.443 214.551 102.371C214.378 102.3 214.193 102.263 214.006 102.263ZM212.583 185.367C207.476 187.328 203.182 190.955 200.394 195.661C197.606 200.366 196.488 205.876 197.222 211.296C196.022 211.53 194.802 211.647 193.579 211.645L127.762 211.587C131.907 209.217 135.157 205.549 137.01 201.148C138.148 198.458 138.731 195.566 138.725 192.645V103.689C138.739 98.9233 140.535 94.3352 143.759 90.8256C146.982 87.316 151.402 85.1385 156.149 84.7207C160.895 85.1409 165.312 87.3195 168.534 90.8288C171.756 94.3382 173.55 98.9249 173.564 103.689C173.564 103.876 173.601 104.061 173.673 104.233C173.744 104.405 173.849 104.562 173.981 104.694C174.113 104.826 174.27 104.931 174.443 105.002C174.615 105.073 174.8 105.11 174.987 105.11H212.574L212.583 185.367Z" fill="#272421"/>
<path d="M170.031 108.656L170.023 103.698C170.025 99.61 168.404 95.688 165.517 92.7934C163.003 90.2626 159.698 88.6701 156.152 88.2817C152.349 88.6949 148.832 90.4949 146.272 93.3375C143.713 96.1802 142.29 99.8663 142.277 103.691V125.004H209.039V108.656H170.032H170.031Z" fill="url(#paint8_linear_848_6493)"/>
<path d="M85.3651 129.948H56.4019C56.0244 129.948 55.6624 130.097 55.3955 130.364C55.1286 130.631 54.9787 130.993 54.9787 131.371C54.9718 135.684 56.596 139.84 59.5254 143.006C62.4548 146.172 66.4728 148.113 70.7735 148.44C70.8084 148.44 70.8445 148.44 70.8806 148.44C70.9166 148.44 70.9527 148.44 70.9876 148.44C75.2887 148.113 79.3073 146.172 82.2372 143.007C85.1671 139.841 86.7916 135.684 86.7848 131.371C86.7848 130.994 86.6353 130.632 86.3692 130.366C86.103 130.099 85.7419 129.948 85.3651 129.948ZM79.7712 141.468C77.3854 143.844 74.2389 145.304 70.884 145.591C67.5634 145.314 64.4449 143.882 62.0716 141.543C59.6982 139.204 58.2202 136.107 57.8949 132.79H83.8732C83.5508 136.072 82.1007 139.14 79.77 141.472L79.7712 141.468Z" fill="url(#paint9_linear_848_6493)"/>
<path d="M62.579 136.334C63.3888 137.894 64.5706 139.23 66.0198 140.225C67.469 141.219 69.141 141.842 70.8878 142.036C72.6348 141.843 74.3071 141.221 75.7561 140.227C77.2052 139.232 78.3862 137.895 79.1943 136.334H62.579Z" fill="url(#paint10_linear_848_6493)"/>
<path d="M169.701 43.2671C168.111 41.6766 166.222 40.4158 164.143 39.5571C162.065 38.6984 159.837 38.2587 157.588 38.2632H99.8501C99.4832 38.2652 99.1313 38.4088 98.8678 38.6639C98.6042 38.9191 98.4494 39.2662 98.4356 39.6328C98.4218 39.9994 98.5501 40.3572 98.7937 40.6315C99.0373 40.9057 99.3774 41.0754 99.743 41.105C103.328 41.4011 106.671 43.0332 109.109 45.6778C111.547 48.3223 112.903 51.7864 112.908 55.3835C112.908 55.761 113.058 56.123 113.325 56.3899C113.592 56.6568 113.954 56.8067 114.331 56.8067H173.29C173.667 56.8067 174.029 56.6568 174.296 56.3899C174.563 56.123 174.713 55.761 174.713 55.3835C174.716 53.1334 174.276 50.9047 173.415 48.8254C172.555 46.7461 171.293 44.8572 169.701 43.2671ZM115.696 53.9638C115.366 49.9231 113.61 46.1315 110.741 43.2671C109.934 42.464 109.051 41.7407 108.104 41.1073H157.588C161.131 41.1012 164.549 42.4148 167.176 44.7919C169.803 47.1689 171.451 50.4391 171.798 53.965L115.696 53.9638Z" fill="#272421"/>
<path d="M144.316 53.9365H115.689C115.388 50.418 114.012 47.0773 111.747 44.3679C109.482 41.6584 106.439 39.7114 103.029 38.791C102.022 38.5148 100.99 38.3371 99.949 38.2603C99.8804 38.2553 99.8116 38.2553 99.743 38.2603C98.2575 38.3721 96.7942 38.6853 95.3931 39.1913C95.1963 39.2622 95.0175 39.3757 94.8696 39.5236C94.7216 39.6716 94.6082 39.8503 94.5373 40.0472C94.4664 40.244 94.4398 40.454 94.4594 40.6623C94.479 40.8706 94.5443 41.072 94.6506 41.2522C96.214 43.9193 97.2007 46.8847 97.547 49.9568C97.8933 53.0289 97.5914 56.1395 96.661 59.0877C95.7305 62.036 94.1921 64.7563 92.145 67.0731C90.098 69.3899 87.5879 71.2516 84.7767 72.5381C84.5283 72.6511 84.3176 72.8332 84.1699 73.0627C84.0222 73.2921 83.9436 73.5593 83.9435 73.8322L83.933 131.379C83.9377 133.282 83.5602 135.167 82.8229 136.922C82.1036 138.618 81.0695 140.163 79.7751 141.474C77.3615 143.875 74.1717 145.338 70.7774 145.601C70.4121 145.63 70.0722 145.799 69.8286 146.073C69.585 146.347 69.4564 146.704 69.4696 147.071C69.4828 147.437 69.6367 147.784 69.8995 148.039C70.1622 148.295 70.5134 148.439 70.8799 148.442L128.619 148.499C131.991 148.502 135.29 147.51 138.101 145.646C138.297 145.516 138.457 145.34 138.569 145.133C138.68 144.926 138.738 144.695 138.738 144.46V103.708C138.737 101.217 139.226 98.7505 140.178 96.4491C141.13 94.1476 142.526 92.0564 144.287 90.295C144.596 89.9854 144.914 89.6957 145.248 89.4036C145.402 89.27 145.525 89.105 145.61 88.9197C145.694 88.7344 145.738 88.5331 145.738 88.3295V55.3597C145.738 55.1728 145.702 54.9878 145.63 54.8151C145.559 54.6425 145.454 54.4855 145.322 54.3534C145.19 54.2212 145.033 54.1164 144.86 54.0448C144.688 53.9733 144.503 53.9365 144.316 53.9365ZM142.893 87.6918C142.683 87.8838 142.476 88.0804 142.274 88.2829C140.249 90.3078 138.643 92.7121 137.548 95.3582C136.453 98.0044 135.891 100.84 135.893 103.704V143.675C133.69 144.973 131.178 145.656 128.62 145.653L79.1886 145.604C81.9811 143.757 84.1593 141.12 85.4447 138.029C86.3298 135.923 86.7833 133.662 86.7783 131.378L86.7887 74.7259C92.6702 71.7666 97.1444 66.6034 99.2367 60.3606C101.329 54.1179 100.87 47.3013 97.9602 41.3953C98.5828 41.2524 99.2147 41.154 99.8512 41.1009C100.673 41.169 101.488 41.3131 102.283 41.5315C105.186 42.3154 107.769 43.9906 109.669 46.3207C111.569 48.6509 112.689 51.5186 112.873 54.5195C112.889 54.7941 112.897 55.078 112.897 55.3527C112.897 55.7301 113.047 56.0921 113.314 56.359C113.581 56.6259 113.943 56.7759 114.321 56.7759H142.89V87.6871L142.893 87.6918Z" fill="#272421"/>
<path d="M108.78 219.211C102.855 220.241 96.7768 219.964 90.9704 218.399C85.164 216.833 79.7699 214.018 75.1659 210.149C70.5618 206.28 66.8592 201.451 64.3171 196.001C61.775 190.551 60.455 184.612 60.4494 178.598C60.4358 172.763 61.6705 166.993 64.0708 161.675L61.477 160.506C58.4606 167.219 57.1726 174.58 57.7302 181.918C58.2879 189.256 60.6735 196.338 64.6696 202.518C68.6657 208.698 74.1451 213.779 80.6083 217.298C87.0715 220.818 94.3129 222.663 101.672 222.667C104.218 222.667 106.758 222.449 109.266 222.015L108.78 219.211Z" fill="#272421"/>
<path d="M175.444 25.6014C169.432 25.5912 163.482 26.8192 157.966 29.2088L159.096 31.8213C165.369 29.1177 172.215 28.0144 179.02 28.6103C185.824 29.2062 192.375 31.4828 198.082 35.2356C203.79 38.9884 208.476 44.1 211.72 50.1113C214.964 56.1226 216.664 62.8455 216.668 69.6763H219.513C219.502 57.9915 214.855 46.7886 206.593 38.5256C198.331 30.2627 187.129 25.6146 175.444 25.6014Z" fill="#272421"/>
<path d="M64.0496 160.456C63.9633 160.282 63.8423 160.127 63.6939 160.001C63.5455 159.876 63.373 159.782 63.187 159.726C63.0009 159.669 62.8053 159.652 62.6122 159.674C62.4191 159.696 62.2327 159.758 62.0643 159.855L48.3094 167.784L49.7303 170.248L62.1726 163.076L68.2971 175.421L70.8467 174.157L64.0496 160.456Z" fill="#272421"/>
<path d="M226.324 56.8325L218.024 67.7107L207.264 59.0191L205.477 61.2301L217.374 70.8411C217.627 71.0455 217.943 71.1572 218.268 71.1576C218.325 71.1576 218.382 71.1541 218.438 71.1471C218.627 71.1242 218.809 71.0639 218.974 70.9695C219.139 70.8752 219.284 70.7489 219.399 70.5979L228.592 58.5571L226.324 56.8325Z" fill="#272421"/>
<path d="M75.5833 27.4902C70.6487 27.4902 65.8249 28.9535 61.7219 31.6951C57.619 34.4366 54.4211 38.3333 52.5327 42.8923C50.6444 47.4513 50.1504 52.4679 51.1132 57.3077C52.0759 62.1475 54.4523 66.5931 57.9417 70.0823C61.4311 73.5715 65.8768 75.9477 70.7166 76.9102C75.5564 77.8728 80.573 77.3785 85.1319 75.49C89.6908 73.6014 93.5874 70.4034 96.3287 66.3003C99.0701 62.1972 100.533 57.3733 100.533 52.4387C100.525 45.8241 97.8941 39.4827 93.2168 34.8056C88.5395 30.1285 82.1979 27.4976 75.5833 27.4902ZM75.5833 74.5431C71.2115 74.5431 66.9378 73.2467 63.3028 70.8178C59.6677 68.389 56.8345 64.9367 55.1615 60.8977C53.4885 56.8586 53.0507 52.4142 53.9036 48.1263C54.7565 43.8385 56.8618 39.8999 59.9531 36.8085C63.0445 33.7172 66.9831 31.6119 71.271 30.759C75.5588 29.9061 80.0032 30.3439 84.0423 32.0169C88.0813 33.6899 91.5336 36.5231 93.9624 40.1582C96.3913 43.7932 97.6877 48.0669 97.6877 52.4387C97.6812 58.2992 95.3503 63.9177 91.2063 68.0617C87.0624 72.2057 81.4438 74.5366 75.5833 74.5431Z" fill="url(#paint11_linear_848_6493)"/>
<path d="M60.6998 59.715L58.1397 60.9648C58.5905 61.8833 59.1126 62.765 59.7014 63.6018L62.0288 61.9644C61.5272 61.2508 61.0828 60.4987 60.6998 59.715ZM59.2825 49.5071L56.4815 49.0055C56.3017 50.0132 56.2013 51.0334 56.1812 52.0567L59.0264 52.1114C59.0425 51.2381 59.1269 50.3673 59.279 49.5071H59.2825ZM61.0012 44.5823L58.4981 43.2301C58.011 44.1321 57.5966 45.0714 57.2588 46.0393L59.9446 46.976C60.2319 46.1516 60.584 45.3512 60.9977 44.5823H61.0012ZM59.1801 54.7274L56.3604 55.1149C56.5003 56.1296 56.7205 57.1316 57.0191 58.1114L59.741 57.2829C59.4852 56.4474 59.2965 55.5929 59.1766 54.7274H59.1801ZM90.6301 45.4621L93.2112 44.2623C92.7777 43.3345 92.2719 42.4423 91.6984 41.594L89.3407 43.1859C89.8286 43.9096 90.2585 44.6707 90.6266 45.4621H90.6301ZM64.1723 40.4349L62.2126 38.374C61.4711 39.0797 60.7863 39.8428 60.1645 40.656L62.4244 42.3841C62.9543 41.69 63.5375 41.0383 64.1688 40.4349H64.1723ZM61.6587 65.9652C62.3715 66.6993 63.1407 67.3763 63.9594 67.9901L65.6653 65.7139C64.9661 65.1892 64.3089 64.6106 63.6998 63.9835L61.6587 65.9652ZM92.0498 50.4799L94.8752 50.1448C94.7547 49.1283 94.5543 48.1228 94.2759 47.1378L91.5378 47.914C91.7761 48.7545 91.9466 49.6124 92.0498 50.4799ZM84.9675 35.4345C84.0714 34.9396 83.1375 34.5162 82.1747 34.1684L81.21 36.8449C82.0324 37.1415 82.83 37.5026 83.5955 37.9248L84.9675 35.4345ZM89.7887 39.1944C89.0901 38.4469 88.3341 37.7551 87.5277 37.1254L85.7821 39.369C86.4713 39.9076 87.1175 40.499 87.715 41.1378L89.7887 39.1944ZM87.2495 64.2139L89.2523 66.2352C89.9787 65.5149 90.6479 64.739 91.2538 63.9148L88.9602 62.2309C88.4428 62.9368 87.8712 63.6013 87.2507 64.2185L87.2495 64.2139ZM67.234 34.9027C66.3106 35.3438 65.4235 35.8571 64.5808 36.4376L66.196 38.7801C66.9151 38.2844 67.6723 37.8462 68.4605 37.4698L67.234 34.9027ZM90.3392 60.0106L92.8702 61.3104C93.3382 60.3993 93.7335 59.4526 94.0525 58.4792L91.3481 57.5948C91.0756 58.4253 90.7383 59.233 90.3392 60.0106ZM92.1638 52.4466C92.1637 53.321 92.0956 54.1941 91.9602 55.0579L94.7705 55.5001C94.9293 54.49 95.0091 53.4691 95.0091 52.4466H92.1638ZM78.0389 68.8384L78.4578 71.6534C79.4701 71.5027 80.469 71.2723 81.445 70.9645L80.5897 68.2519C79.7563 68.5146 78.9034 68.7107 78.0389 68.8384ZM83.0125 67.2686L84.2926 69.8112C85.207 69.352 86.0836 68.8213 86.9144 68.224L85.2538 65.9082C84.5436 66.4174 83.7946 66.8703 83.0137 67.2628L83.0125 67.2686ZM73.1072 33.1804C72.0913 33.3105 71.0874 33.521 70.1048 33.81L70.9066 36.54C71.7445 36.294 72.6006 36.1147 73.4667 36.0036L73.1072 33.1804ZM66.5521 69.6297C67.4585 70.1069 68.4014 70.5116 69.3717 70.84L70.2829 68.1448C69.4556 67.8646 68.6517 67.5194 67.8787 67.1126L66.5521 69.6297ZM79.2142 33.3608C78.2085 33.1715 77.1895 33.0614 76.1665 33.0315L76.0827 35.8767C76.9565 35.9023 77.8269 35.9964 78.6859 36.1583L79.2142 33.3608ZM72.3484 71.5882C73.3573 71.7571 74.3779 71.847 75.4008 71.857L75.4287 69.0118C74.5539 69.0023 73.6812 68.9245 72.8186 68.779L72.3484 71.5882Z" fill="#272421"/>
<path d="M75.5864 62.8768C81.3507 62.8768 86.0236 58.2039 86.0236 52.4396C86.0236 46.6753 81.3507 42.0024 75.5864 42.0024C69.8221 42.0024 65.1492 46.6753 65.1492 52.4396C65.1492 58.2039 69.8221 62.8768 75.5864 62.8768Z" fill="url(#paint12_linear_848_6493)"/>
<path d="M109.436 60.1458C109.436 60.1458 110.856 50.7118 104.997 46.2432C105.2 47.7638 105.303 49.2962 105.305 50.8305C105.311 55.8623 104.206 60.8333 102.068 65.3883H140.219V60.1458H109.436Z" fill="url(#paint13_linear_848_6493)"/>
<path d="M220.875 221.571C228.359 221.571 234.426 215.504 234.426 208.02C234.426 200.536 228.359 194.469 220.875 194.469C213.391 194.469 207.324 200.536 207.324 208.02C207.324 215.504 213.391 221.571 220.875 221.571Z" fill="url(#paint14_linear_848_6493)"/>
<path d="M221.261 183.766C216.463 183.766 211.773 185.189 207.785 187.854C203.796 190.519 200.687 194.308 198.851 198.74C197.015 203.172 196.535 208.049 197.471 212.755C198.407 217.46 200.717 221.782 204.109 225.174C207.502 228.566 211.824 230.876 216.529 231.812C221.234 232.748 226.112 232.268 230.544 230.432C234.976 228.595 238.764 225.486 241.429 221.497C244.094 217.508 245.517 212.818 245.517 208.021C245.509 201.59 242.951 195.425 238.404 190.878C233.857 186.331 227.691 183.773 221.261 183.766ZM221.261 229.432C217.026 229.432 212.886 228.176 209.365 225.823C205.844 223.47 203.099 220.126 201.478 216.214C199.858 212.301 199.434 207.996 200.26 203.843C201.086 199.689 203.126 195.874 206.12 192.879C209.115 189.885 212.93 187.845 217.083 187.019C221.237 186.193 225.542 186.617 229.455 188.238C233.367 189.858 236.711 192.603 239.064 196.124C241.417 199.645 242.673 203.785 242.673 208.02C242.666 213.697 240.409 219.139 236.394 223.154C232.38 227.168 226.938 229.426 221.261 229.432Z" fill="url(#paint15_linear_848_6493)"/>
<path d="M204.499 208.021C204.499 207.222 204.555 206.423 204.668 205.632L201.85 205.231C201.719 206.156 201.654 207.089 201.654 208.023V208.286L204.499 208.254V208.021ZM209.211 196.368L207.165 194.39C206.454 195.125 205.802 195.914 205.213 196.751L207.541 198.388C208.043 197.673 208.6 196.998 209.206 196.369L209.211 196.368ZM206.206 200.642L203.646 199.389C203.195 200.308 202.817 201.261 202.515 202.239L205.234 203.077C205.494 202.241 205.819 201.427 206.207 200.642H206.206ZM207.537 222.027C208.268 222.743 209.053 223.401 209.886 223.995L211.538 221.678C210.826 221.17 210.155 220.607 209.53 219.994L207.537 222.027ZM204.737 210.856L201.933 211.334C202.105 212.343 202.357 213.337 202.685 214.307L205.38 213.395C205.1 212.568 204.885 211.72 204.737 210.859V210.856ZM206.411 215.8L203.891 217.125C204.367 218.029 204.911 218.896 205.521 219.716L207.803 218.017C207.283 217.316 206.818 216.576 206.413 215.804L206.411 215.8ZM213.38 193.218L212.041 190.708C211.139 191.19 210.276 191.741 209.46 192.358L211.175 194.628C211.872 194.103 212.61 193.632 213.38 193.221V193.218ZM237.747 204.955L240.546 204.44C240.36 203.433 240.096 202.443 239.754 201.478L237.072 202.426C237.363 203.251 237.589 204.098 237.747 204.958V204.955ZM236.009 200.036L238.51 198.678C238.022 197.78 237.465 196.921 236.844 196.109L234.584 197.838C235.115 198.534 235.592 199.27 236.009 200.039V200.036ZM234.799 193.829C234.059 193.123 233.266 192.475 232.425 191.892L230.804 194.231C231.523 194.73 232.203 195.284 232.836 195.888L234.799 193.829ZM240.866 207.483L238.022 207.564C238.022 207.714 238.022 207.866 238.022 208.018C238.022 208.893 237.954 209.767 237.819 210.631L240.632 211.071C240.788 210.061 240.865 209.04 240.864 208.018C240.874 207.842 240.871 207.664 240.866 207.487V207.483ZM233.157 219.833L235.175 221.838C235.894 221.112 236.556 220.332 237.153 219.503L234.849 217.835C234.338 218.544 233.772 219.213 233.157 219.836V219.833ZM228.946 222.922L230.253 225.451C231.161 224.981 232.031 224.442 232.856 223.837L231.172 221.543C230.467 222.061 229.723 222.524 228.946 222.926V222.922ZM236.221 215.599L238.757 216.887C239.221 215.974 239.612 215.027 239.928 214.053L237.219 213.177C236.95 214.011 236.616 214.822 236.22 215.604L236.221 215.599ZM226.919 189.236L226.104 191.961C226.942 192.213 227.759 192.53 228.548 192.909L229.785 190.349C228.86 189.905 227.902 189.533 226.919 189.239V189.236ZM214.851 189.481L215.782 192.17C216.608 191.885 217.456 191.664 218.317 191.512L217.82 188.71C216.811 188.889 215.819 189.148 214.851 189.485V189.481ZM223.99 224.562L224.447 227.37C225.458 227.205 226.454 226.961 227.426 226.639L226.531 223.938C225.7 224.214 224.849 224.424 223.985 224.565L223.99 224.562ZM212.512 225.572C213.429 226.029 214.379 226.414 215.356 226.723L216.212 224.009C215.378 223.746 214.566 223.418 213.784 223.027L212.512 225.572ZM221.264 224.782C220.427 224.782 219.591 224.72 218.764 224.597L218.343 227.411C219.311 227.555 220.287 227.627 221.265 227.627H221.405L221.374 224.782H221.264ZM220.867 188.413L220.921 191.258H221.263C222.025 191.258 222.786 191.309 223.54 191.41L223.922 188.591C223.041 188.472 222.152 188.412 221.263 188.412L220.867 188.413Z" fill="#272421"/>
<path d="M227.315 201.329L219.063 210.041L215.852 206.506L213.951 208.233L218.092 212.793C218.211 212.924 218.356 213.029 218.517 213.102C218.678 213.174 218.852 213.213 219.029 213.215H219.043C219.217 213.215 219.39 213.179 219.55 213.11C219.71 213.041 219.854 212.94 219.974 212.813L229.178 203.095L227.315 201.329Z" fill="#272421"/>
<path d="M198.435 117.729H154.921V120.574H198.435V117.729Z" fill="#272421"/>
<path d="M198.435 129.948H154.921V132.793H198.435V129.948Z" fill="#272421"/>
<path d="M198.435 142.166H154.921V145.011H198.435V142.166Z" fill="#272421"/>
<path d="M198.435 154.381H154.921V157.226H198.435V154.381Z" fill="#272421"/>
<path d="M198.435 166.599H154.921V169.445H198.435V166.599Z" fill="#272421"/>
<path d="M180.423 178.818H154.921V181.663H180.423V178.818Z" fill="#272421"/>
<path d="M132.021 77.9607H97.344V80.8059H132.021V77.9607Z" fill="#272421"/>
<path d="M132.021 87.6975H97.344V90.5427H132.021V87.6975Z" fill="#272421"/>
<path d="M132.021 97.4346H97.344V100.28H132.021V97.4346Z" fill="#272421"/>
<path d="M132.021 107.171H97.344V110.016H132.021V107.171Z" fill="#272421"/>
<path d="M132.021 116.908H97.344V119.753H132.021V116.908Z" fill="#272421"/>
<path d="M117.668 126.643H97.344V129.488H117.668V126.643Z" fill="#272421"/>
<path d="M80.1814 47.2957L73.5786 54.2674L71.0092 51.4384L69.4871 52.8197L72.8013 56.4691C72.8963 56.5738 73.0119 56.6577 73.1408 56.7158C73.2698 56.7739 73.4093 56.8048 73.5507 56.8065H73.5612C73.7009 56.8073 73.8394 56.7796 73.9681 56.7249C74.0967 56.6703 74.2129 56.59 74.3094 56.4888L81.6744 48.7119L80.1814 47.2957Z" fill="#272421"/>
<path d="M31.8647 75.6606H29.9772V80.4143H31.8647V75.6606Z" fill="url(#paint16_linear_848_6493)"/>
<path d="M31.8647 88.7568H29.9772V93.5105H31.8647V88.7568Z" fill="url(#paint17_linear_848_6493)"/>
<path d="M26.7455 83.6406H21.9918V85.5281H26.7455V83.6406Z" fill="url(#paint18_linear_848_6493)"/>
<path d="M39.8382 83.6406H35.0845V85.5281H39.8382V83.6406Z" fill="url(#paint19_linear_848_6493)"/>
<path d="M262.191 151.876H260.103V157.136H262.191V151.876Z" fill="url(#paint20_linear_848_6493)"/>
<path d="M262.191 166.368H260.103V171.628H262.191V166.368Z" fill="url(#paint21_linear_848_6493)"/>
<path d="M256.53 160.708H251.27V162.796H256.53V160.708Z" fill="url(#paint22_linear_848_6493)"/>
<path d="M271.021 160.708H265.761V162.796H271.021V160.708Z" fill="url(#paint23_linear_848_6493)"/>
<path d="M35.451 191.821C37.1894 191.821 38.5988 190.412 38.5988 188.673C38.5988 186.935 37.1894 185.525 35.451 185.525C33.7125 185.525 32.3032 186.935 32.3032 188.673C32.3032 190.412 33.7125 191.821 35.451 191.821Z" fill="#272421"/>
<path d="M251.271 62.3093C255.093 62.3093 258.192 59.2108 258.192 55.3888C258.192 51.5667 255.093 48.4683 251.271 48.4683C247.449 48.4683 244.351 51.5667 244.351 55.3888C244.351 59.2108 247.449 62.3093 251.271 62.3093Z" fill="url(#paint24_linear_848_6493)"/>
<defs>
<linearGradient id="paint0_linear_848_6493" x1="61.8996" y1="234.743" x2="65.725" y2="235.627" gradientUnits="userSpaceOnUse">
<stop stop-color="#846E55"/>
<stop offset="1" stop-color="#B3A55C"/>
</linearGradient>
<linearGradient id="paint1_linear_848_6493" x1="61.8937" y1="246.079" x2="65.7191" y2="246.964" gradientUnits="userSpaceOnUse">
<stop stop-color="#846E55"/>
<stop offset="1" stop-color="#B3A55C"/>
</linearGradient>
<linearGradient id="paint2_linear_848_6493" x1="66.5386" y1="241.315" x2="70.9867" y2="245.188" gradientUnits="userSpaceOnUse">
<stop stop-color="#846E55"/>
<stop offset="1" stop-color="#B3A55C"/>
</linearGradient>
<linearGradient id="paint3_linear_848_6493" x1="55.1993" y1="241.315" x2="59.6474" y2="245.188" gradientUnits="userSpaceOnUse">
<stop stop-color="#846E55"/>
<stop offset="1" stop-color="#B3A55C"/>
</linearGradient>
<linearGradient id="paint4_linear_848_6493" x1="-0.128344" y1="50.6018" x2="13.1721" y2="56.5694" gradientUnits="userSpaceOnUse">
<stop stop-color="#846E55"/>
<stop offset="1" stop-color="#B3A55C"/>
</linearGradient>
<linearGradient id="paint5_linear_848_6493" x1="279.897" y1="130.768" x2="291.684" y2="136.056" gradientUnits="userSpaceOnUse">
<stop stop-color="#846E55"/>
<stop offset="1" stop-color="#B3A55C"/>
</linearGradient>
<linearGradient id="paint6_linear_848_6493" x1="97.5864" y1="192.317" x2="145.304" y2="229.71" gradientUnits="userSpaceOnUse">
<stop stop-color="#846E55"/>
<stop offset="1" stop-color="#B3A55C"/>
</linearGradient>
<linearGradient id="paint7_linear_848_6493" x1="105.004" y1="198.082" x2="126.158" y2="222.637" gradientUnits="userSpaceOnUse">
<stop stop-color="#846E55"/>
<stop offset="1" stop-color="#B3A55C"/>
</linearGradient>
<linearGradient id="paint8_linear_848_6493" x1="141.258" y1="90.0159" x2="217.453" y2="152.168" gradientUnits="userSpaceOnUse">
<stop stop-color="#846E55"/>
<stop offset="1" stop-color="#B3A55C"/>
</linearGradient>
<linearGradient id="paint9_linear_848_6493" x1="54.493" y1="130.821" x2="92.3816" y2="160.06" gradientUnits="userSpaceOnUse">
<stop stop-color="#846E55"/>
<stop offset="1" stop-color="#B3A55C"/>
</linearGradient>
<linearGradient id="paint10_linear_848_6493" x1="62.3254" y1="136.603" x2="73.9816" y2="151.842" gradientUnits="userSpaceOnUse">
<stop stop-color="#846E55"/>
<stop offset="1" stop-color="#B3A55C"/>
</linearGradient>
<linearGradient id="paint11_linear_848_6493" x1="49.8718" y1="29.8466" x2="128.82" y2="65.2687" gradientUnits="userSpaceOnUse">
<stop stop-color="#846E55"/>
<stop offset="1" stop-color="#B3A55C"/>
</linearGradient>
<linearGradient id="paint12_linear_848_6493" x1="64.8305" y1="42.9882" x2="97.8569" y2="57.8063" gradientUnits="userSpaceOnUse">
<stop stop-color="#846E55"/>
<stop offset="1" stop-color="#B3A55C"/>
</linearGradient>
<linearGradient id="paint13_linear_848_6493" x1="101.485" y1="47.1472" x2="141.783" y2="83.1779" gradientUnits="userSpaceOnUse">
<stop stop-color="#846E55"/>
<stop offset="1" stop-color="#B3A55C"/>
</linearGradient>
<linearGradient id="paint14_linear_848_6493" x1="206.91" y1="195.749" x2="249.79" y2="214.988" gradientUnits="userSpaceOnUse">
<stop stop-color="#846E55"/>
<stop offset="1" stop-color="#B3A55C"/>
</linearGradient>
<linearGradient id="paint15_linear_848_6493" x1="196.264" y1="186.057" x2="273.017" y2="220.494" gradientUnits="userSpaceOnUse">
<stop stop-color="#846E55"/>
<stop offset="1" stop-color="#B3A55C"/>
</linearGradient>
<linearGradient id="paint16_linear_848_6493" x1="29.9484" y1="75.8851" x2="33.4256" y2="76.5046" gradientUnits="userSpaceOnUse">
<stop stop-color="#846E55"/>
<stop offset="1" stop-color="#B3A55C"/>
</linearGradient>
<linearGradient id="paint17_linear_848_6493" x1="29.9484" y1="88.9813" x2="33.4256" y2="89.6008" gradientUnits="userSpaceOnUse">
<stop stop-color="#846E55"/>
<stop offset="1" stop-color="#B3A55C"/>
</linearGradient>
<linearGradient id="paint18_linear_848_6493" x1="21.9192" y1="83.7298" x2="25.8875" y2="88.2138" gradientUnits="userSpaceOnUse">
<stop stop-color="#846E55"/>
<stop offset="1" stop-color="#B3A55C"/>
</linearGradient>
<linearGradient id="paint19_linear_848_6493" x1="35.012" y1="83.7298" x2="38.9802" y2="88.2138" gradientUnits="userSpaceOnUse">
<stop stop-color="#846E55"/>
<stop offset="1" stop-color="#B3A55C"/>
</linearGradient>
<linearGradient id="paint20_linear_848_6493" x1="260.071" y1="152.124" x2="263.917" y2="152.809" gradientUnits="userSpaceOnUse">
<stop stop-color="#846E55"/>
<stop offset="1" stop-color="#B3A55C"/>
</linearGradient>
<linearGradient id="paint21_linear_848_6493" x1="260.071" y1="166.616" x2="263.917" y2="167.301" gradientUnits="userSpaceOnUse">
<stop stop-color="#846E55"/>
<stop offset="1" stop-color="#B3A55C"/>
</linearGradient>
<linearGradient id="paint22_linear_848_6493" x1="251.19" y1="160.807" x2="255.579" y2="165.768" gradientUnits="userSpaceOnUse">
<stop stop-color="#846E55"/>
<stop offset="1" stop-color="#B3A55C"/>
</linearGradient>
<linearGradient id="paint23_linear_848_6493" x1="265.681" y1="160.807" x2="270.069" y2="165.768" gradientUnits="userSpaceOnUse">
<stop stop-color="#846E55"/>
<stop offset="1" stop-color="#B3A55C"/>
</linearGradient>
<linearGradient id="paint24_linear_848_6493" x1="244.139" y1="49.1219" x2="266.038" y2="58.9472" gradientUnits="userSpaceOnUse">
<stop stop-color="#846E55"/>
<stop offset="1" stop-color="#B3A55C"/>
</linearGradient>
</defs>
</svg>
