<svg width="216" height="143" viewBox="0 0 216 143" fill="none" xmlns="http://www.w3.org/2000/svg">
<g opacity="0.272">
<path d="M34.038 133.947C48.948 133.947 61.035 121.86 61.035 106.95C61.035 92.0401 48.948 79.9531 34.038 79.9531C19.128 79.9531 7.04102 92.0401 7.04102 106.95C7.04102 121.86 19.128 133.947 34.038 133.947Z" fill="url(#paint0_linear_594_6412)"/>
<path d="M41.4351 141.476C41.7907 141.764 42.2236 141.94 42.6792 141.982C43.1348 142.024 43.5926 141.93 43.9946 141.712C44.3967 141.493 44.7249 141.16 44.9379 140.756C45.1509 140.351 45.2389 139.892 45.191 139.437C45.1431 138.982 44.9613 138.551 44.6687 138.199C44.376 137.848 43.9857 137.591 43.547 137.461C43.1082 137.331 42.6409 137.334 42.204 137.47C41.7671 137.606 41.3803 137.868 41.0926 138.224C40.7068 138.701 40.5262 139.311 40.5905 139.921C40.6547 140.531 40.9585 141.091 41.4351 141.476Z" fill="#888888"/>
<path d="M49.7436 136.593C49.9863 136.79 50.2818 136.91 50.5927 136.939C50.9037 136.967 51.2161 136.903 51.4905 136.754C51.765 136.605 51.9891 136.378 52.1345 136.102C52.28 135.826 52.3403 135.512 52.3077 135.202C52.2752 134.891 52.1513 134.597 51.9517 134.357C51.7522 134.117 51.4859 133.941 51.1865 133.853C50.8871 133.764 50.5682 133.766 50.2699 133.858C49.9717 133.951 49.7075 134.129 49.5108 134.372C49.2472 134.697 49.1237 135.114 49.1673 135.531C49.211 135.947 49.4183 136.33 49.7436 136.593Z" fill="#888888"/>
<path d="M2.933 99.448C3.51309 99.448 4.08016 99.276 4.56249 98.9537C5.04482 98.6315 5.42075 98.1734 5.64274 97.6374C5.86473 97.1015 5.92281 96.5118 5.80964 95.9428C5.69647 95.3739 5.41713 94.8513 5.00694 94.4411C4.59676 94.0309 4.07415 93.7516 3.5052 93.6384C2.93625 93.5252 2.34652 93.5833 1.81059 93.8053C1.27465 94.0273 0.816581 94.4032 0.494299 94.8855C0.172017 95.3679 0 95.9349 0 96.515C0 97.2929 0.309011 98.0389 0.859056 98.589C1.4091 99.139 2.15512 99.448 2.933 99.448Z" fill="#888888"/>
</g>
<g opacity="0.272">
<path d="M199.186 31.532C205.09 27.0842 206.27 18.6928 201.822 12.7894C197.374 6.88604 188.983 5.70611 183.079 10.154C177.176 14.6018 175.996 22.9932 180.444 28.8965C184.892 34.7999 193.283 35.9799 199.186 31.532Z" fill="url(#paint1_linear_594_6412)"/>
<path d="M198.504 36.7203C198.45 36.9403 198.331 37.139 198.163 37.2914C197.995 37.4437 197.786 37.543 197.562 37.5764C197.338 37.6099 197.109 37.5762 196.904 37.4795C196.699 37.3828 196.527 37.2275 196.41 37.0332C196.293 36.8389 196.237 36.6143 196.248 36.388C196.259 36.1616 196.336 35.9435 196.471 35.7613C196.606 35.5791 196.792 35.441 197.005 35.3644C197.219 35.2878 197.45 35.2762 197.67 35.3311C197.965 35.4046 198.218 35.5923 198.375 35.8529C198.531 36.1134 198.578 36.4254 198.504 36.7203Z" fill="#888888"/>
<path d="M193.757 37.2668C193.719 37.4171 193.638 37.5528 193.524 37.657C193.409 37.7611 193.266 37.8289 193.113 37.8517C192.96 37.8746 192.803 37.8516 192.663 37.7855C192.523 37.7194 192.406 37.6133 192.326 37.4806C192.246 37.3478 192.208 37.1944 192.215 37.0397C192.222 36.885 192.276 36.736 192.368 36.6115C192.46 36.4871 192.587 36.3927 192.733 36.3404C192.878 36.288 193.036 36.2801 193.187 36.3176C193.388 36.3679 193.561 36.4961 193.668 36.6741C193.775 36.8521 193.807 37.0653 193.757 37.2668Z" fill="#888888"/>
<path d="M201.21 8.59442C200.98 8.76754 200.704 8.86864 200.417 8.88493C200.13 8.90122 199.844 8.83197 199.597 8.68594C199.349 8.53991 199.15 8.32365 199.025 8.06452C198.9 7.80539 198.854 7.51502 198.894 7.23014C198.935 6.94525 199.058 6.67864 199.25 6.46402C199.441 6.2494 199.692 6.09641 199.971 6.0244C200.249 5.95239 200.543 5.96459 200.815 6.05945C201.086 6.15432 201.324 6.3276 201.497 6.55737C201.729 6.86548 201.829 7.2532 201.775 7.63522C201.722 8.01724 201.518 8.36228 201.21 8.59442Z" fill="#888888"/>
</g>
<path d="M75.7461 22.4424H161.746C163.337 22.4424 164.864 23.0745 165.989 24.1997C167.114 25.325 167.746 26.8511 167.746 28.4424V111.442H69.7461V28.4424C69.7461 26.8511 70.3782 25.325 71.5035 24.1997C72.6287 23.0745 74.1548 22.4424 75.7461 22.4424Z" fill="url(#paint2_linear_594_6412)"/>
<path d="M171.277 112.322H169.669V26.8834C169.667 25.2866 169.031 23.756 167.902 22.6275C166.772 21.4989 165.241 20.8644 163.644 20.8634H74.2891C72.6931 20.8652 71.163 21.5001 70.0344 22.6286C68.9058 23.7572 68.271 25.2873 68.2691 26.8834V112.322H66.6611V26.8834C66.6635 24.861 67.4679 22.9222 68.898 21.4922C70.328 20.0622 72.2668 19.2578 74.2891 19.2554H163.643C165.666 19.2567 167.606 20.0606 169.038 21.4907C170.469 22.9207 171.274 24.8602 171.277 26.8834V112.322Z" fill="#F6F2ED"/>
<path d="M96.244 43.1325C92.3762 43.1325 88.5952 41.9856 85.3793 39.8367C82.1633 37.6879 79.6568 34.6337 78.1766 31.0603C76.6965 27.4869 76.3092 23.5548 77.0638 19.7613C77.8183 15.9678 79.6809 12.4833 82.4158 9.74834C85.1508 7.01338 88.6353 5.15085 92.4288 4.39628C96.2223 3.64171 100.154 4.02898 103.728 5.50913C107.301 6.98928 110.355 9.49582 112.504 12.7118C114.653 15.9278 115.8 19.7087 115.8 23.5765C115.794 28.7613 113.732 33.7321 110.066 37.3983C106.4 41.0645 101.429 43.1267 96.244 43.1325Z" fill="#272421"/>
<path d="M96.2439 24.3815C94.3238 24.3787 92.4477 23.8068 90.8526 22.7381C89.2574 21.6693 88.0149 20.1517 87.2821 18.377C86.5492 16.6023 86.3589 14.6502 86.7352 12.7674C87.1115 10.8846 88.0374 9.15553 89.3961 7.79882C90.7548 6.44211 92.4851 5.51862 94.3685 5.14505C96.2519 4.77148 98.2037 4.96461 99.9773 5.70002C101.751 6.43543 103.267 7.68012 104.333 9.27678C105.4 10.8734 105.969 12.7504 105.969 14.6705C105.964 17.2469 104.938 19.7163 103.114 21.5369C101.291 23.3574 98.8204 24.3804 96.2439 24.3815ZM96.2439 6.56747C94.6426 6.57083 93.0782 7.04874 91.7484 7.94082C90.4186 8.8329 89.383 10.0991 88.7726 11.5795C88.1621 13.0599 88.0041 14.688 88.3186 16.2581C88.6331 17.8282 89.4058 19.2699 90.5393 20.401C91.6728 21.5321 93.1161 22.3019 94.6869 22.613C96.2577 22.9242 97.8854 22.7628 99.3645 22.1493C100.844 21.5357 102.108 20.4975 102.997 19.1658C103.886 17.8341 104.361 16.2688 104.361 14.6675C104.356 12.5176 103.499 10.4575 101.977 8.93881C100.456 7.42015 98.3937 6.56799 96.2439 6.56747Z" fill="#F6F2ED"/>
<path d="M96.2438 21.0315C94.9804 21.0557 93.7383 20.7032 92.676 20.0189C91.6136 19.3345 90.7791 18.3494 90.2788 17.189C89.7785 16.0286 89.635 14.7455 89.8666 13.5032C90.0983 12.261 90.6946 11.1158 91.5795 10.2137C92.4644 9.31164 93.5979 8.69347 94.8355 8.43802C96.0731 8.18256 97.3587 8.30138 98.5285 8.77934C99.6983 9.25731 100.699 10.0728 101.404 11.1218C102.108 12.1708 102.485 13.4058 102.485 14.6695C102.499 16.3401 101.849 17.948 100.679 19.1406C99.5095 20.3333 97.9144 21.0133 96.2438 21.0315Z" fill="#F6F2ED"/>
<path d="M96.243 43.1315C92.8153 43.1255 89.449 42.2211 86.4799 40.5084C83.5107 38.7957 81.0424 36.3346 79.321 33.3705C79.2638 33.2712 79.2285 33.1609 79.2172 33.047C79.206 32.933 79.2192 32.8179 79.256 32.7095C80.1783 29.8565 81.9709 27.364 84.3821 25.5818C86.7932 23.7996 89.702 22.8172 92.7 22.7725H99.792C102.79 22.8161 105.699 23.7983 108.11 25.5809C110.52 27.3635 112.312 29.8569 113.232 32.7105C113.269 32.8189 113.282 32.934 113.271 33.048C113.26 33.1619 113.224 33.2722 113.167 33.3715C111.445 36.3357 108.977 38.7968 106.007 40.5093C103.038 42.2218 99.6709 43.1259 96.243 43.1315ZM80.901 32.8825C82.4998 35.5204 84.7517 37.7016 87.4393 39.2153C90.1269 40.7291 93.1594 41.5244 96.244 41.5244C99.3286 41.5244 102.361 40.7291 105.049 39.2153C107.736 37.7016 109.988 35.5204 111.587 32.8825C110.726 30.4296 109.134 28.2997 107.025 26.7798C104.916 25.26 102.391 24.4233 99.792 24.3825H92.7C90.1005 24.4243 87.5762 25.2613 85.4667 26.781C83.3572 28.3007 81.7639 30.43 80.901 32.8825Z" fill="#F6F2ED"/>
<path d="M96.244 43.1325C92.3762 43.1325 88.5952 41.9856 85.3793 39.8367C82.1633 37.6879 79.6568 34.6337 78.1766 31.0603C76.6965 27.4869 76.3092 23.5548 77.0638 19.7613C77.8183 15.9678 79.6809 12.4833 82.4158 9.74834C85.1508 7.01338 88.6353 5.15085 92.4288 4.39628C96.2223 3.64171 100.154 4.02898 103.728 5.50913C107.301 6.98928 110.355 9.49582 112.504 12.7118C114.653 15.9278 115.8 19.7087 115.8 23.5765C115.794 28.7613 113.732 33.7321 110.066 37.3983C106.4 41.0645 101.429 43.1267 96.244 43.1325ZM96.244 5.63252C92.694 5.63252 89.2238 6.68525 86.2722 8.65758C83.3206 10.6299 81.0201 13.4332 79.6618 16.713C78.3035 19.9928 77.9483 23.6018 78.6412 27.0835C79.334 30.5651 81.0438 33.7632 83.5543 36.2731C86.0647 38.783 89.2631 40.4921 92.745 41.1841C96.2268 41.8762 99.8357 41.5202 103.115 40.1612C106.395 38.8021 109.197 36.501 111.169 33.549C113.141 30.5969 114.193 27.1265 114.192 23.5765C114.187 18.818 112.294 14.256 108.929 10.8912C105.565 7.52645 101.002 5.63381 96.244 5.62852V5.63252Z" fill="#F6F2ED"/>
<path d="M158.503 37.2095H129.687V38.8175H158.503V37.2095Z" fill="#F2EDE6"/>
<path d="M158.503 49.1685H129.687V50.7765H158.503V49.1685Z" fill="#F2EDE6"/>
<path d="M158.503 61.1265H129.687V62.7345H158.503V61.1265Z" fill="#F2EDE6"/>
<path d="M158.504 72.5486H79.1812V74.1566H158.504V72.5486Z" fill="#F2EDE6"/>
<path d="M115.99 63.7134H79.1799C78.9677 63.7134 78.7642 63.6291 78.6142 63.4791C78.4642 63.329 78.3799 63.1255 78.3799 62.9134V50.5134C78.3799 50.3012 78.4642 50.0977 78.6142 49.9477C78.7642 49.7977 78.9677 49.7134 79.1799 49.7134H115.99C116.202 49.7134 116.406 49.7977 116.556 49.9477C116.706 50.0977 116.79 50.3012 116.79 50.5134V62.9134C116.79 63.1255 116.706 63.329 116.556 63.4791C116.406 63.6291 116.202 63.7134 115.99 63.7134ZM79.9839 62.1024H115.19V51.3124H79.9839V62.1024Z" fill="#F6F2ED"/>
<path d="M113.314 53.1895H81.8613V60.2295H113.314V53.1895Z" fill="#272421"/>
<path d="M101.259 112.323H99.651V100.14H79.984V112.319H78.376V99.3395C78.376 99.1274 78.4603 98.9239 78.6103 98.7739C78.7603 98.6238 78.9638 98.5396 79.176 98.5396H100.455C100.667 98.5396 100.871 98.6238 101.021 98.7739C101.171 98.9239 101.255 99.1274 101.255 99.3395L101.259 112.323Z" fill="#F6F2ED"/>
<path d="M97.7753 102.021H81.8613V112.323H97.7753V102.021Z" fill="#272421"/>
<path d="M100.455 105.322H79.1812V106.93H100.455V105.322Z" fill="#F6F2ED"/>
<path d="M130.283 112.323H128.675V100.14H109.008V112.319H107.4V99.3395C107.4 99.1274 107.484 98.9239 107.634 98.7739C107.784 98.6238 107.988 98.5396 108.2 98.5396H129.475C129.687 98.5396 129.891 98.6238 130.041 98.7739C130.191 98.9239 130.275 99.1274 130.275 99.3395V112.323H130.283Z" fill="#F6F2ED"/>
<path d="M126.799 102.021H110.885V112.323H126.799V102.021Z" fill="#272421"/>
<path d="M129.479 105.322H108.205V106.93H129.479V105.322Z" fill="#F6F2ED"/>
<path d="M159.308 112.323H157.7V100.14H138.033V112.319H136.425V99.3395C136.425 99.1274 136.51 98.9239 136.66 98.7739C136.81 98.6238 137.013 98.5396 137.225 98.5396H158.499C158.711 98.5396 158.915 98.6238 159.065 98.7739C159.215 98.9239 159.299 99.1274 159.299 99.3395V112.323H159.308Z" fill="#F6F2ED"/>
<path d="M155.823 102.021H139.909V112.323H155.823V102.021Z" fill="#272421"/>
<path d="M158.503 105.322H137.229V106.93H158.503V105.322Z" fill="#F6F2ED"/>
<path d="M158.503 90.4204H79.1799C78.9677 90.4204 78.7642 90.3362 78.6142 90.1861C78.4642 90.0361 78.3799 89.8326 78.3799 89.6205V83.5414C78.3799 83.3293 78.4642 83.1258 78.6142 82.9758C78.7642 82.8257 78.9677 82.7415 79.1799 82.7415H158.503C158.715 82.7415 158.919 82.8257 159.069 82.9758C159.219 83.1258 159.303 83.3293 159.303 83.5414V89.6205C159.303 89.8326 159.219 90.0361 159.069 90.1861C158.919 90.3362 158.715 90.4204 158.503 90.4204ZM79.9839 88.8124H157.699V84.3414H79.9839V88.8124Z" fill="#F2EDE6"/>
<defs>
<linearGradient id="paint0_linear_594_6412" x1="6.21668" y1="82.5028" x2="91.6433" y2="120.832" gradientUnits="userSpaceOnUse">
<stop stop-color="#A58969"/>
<stop offset="1" stop-color="#C7B664"/>
</linearGradient>
<linearGradient id="paint1_linear_594_6412" x1="172.824" y1="19.4629" x2="218.082" y2="9.15477" gradientUnits="userSpaceOnUse">
<stop stop-color="#A58969"/>
<stop offset="1" stop-color="#C7B664"/>
</linearGradient>
<linearGradient id="paint2_linear_594_6412" x1="68.2499" y1="26.6452" x2="217.97" y2="100.614" gradientUnits="userSpaceOnUse">
<stop stop-color="#A58969"/>
<stop offset="1" stop-color="#C7B664"/>
</linearGradient>
</defs>
</svg>
