<svg width="264" height="220" viewBox="0 0 264 220" fill="none" xmlns="http://www.w3.org/2000/svg">
<path d="M137.953 207.29C191.229 207.29 234.418 164.101 234.418 110.825C234.418 57.5484 191.229 14.3594 137.953 14.3594C84.6766 14.3594 41.4875 57.5484 41.4875 110.825C41.4875 164.101 84.6766 207.29 137.953 207.29Z" fill="#C3B075" fill-opacity="0.1"/>
<path d="M64.1696 207.293H62.4255V210.678H64.1696V207.293Z" fill="#272421"/>
<path d="M64.1698 216.617H62.4258V220.002H64.1698V216.617Z" fill="#272421"/>
<path d="M69.6545 212.775H66.2698V214.519H69.6545V212.775Z" fill="#272421"/>
<path d="M60.3281 212.775H56.9434V214.519H60.3281V212.775Z" fill="#272421"/>
<path d="M191.278 144.993C192.97 144.993 194.342 143.622 194.342 141.929C194.342 140.237 192.97 138.865 191.278 138.865C189.586 138.865 188.214 140.237 188.214 141.929C188.214 143.622 189.586 144.993 191.278 144.993Z" fill="#272421"/>
<path d="M249.597 33.2715H247.005V37.8173H249.597V33.2715Z" fill="#272421"/>
<path d="M249.597 45.7988H247.005V50.3447H249.597V45.7988Z" fill="#272421"/>
<path d="M256.838 40.5137H252.292V43.1058H256.838V40.5137Z" fill="#272421"/>
<path d="M244.312 40.5137H239.766V43.1058H244.312V40.5137Z" fill="#272421"/>
<path d="M6.61437 92.7287C10.2674 92.7287 13.2287 89.7674 13.2287 86.1144C13.2287 82.4614 10.2674 79.5 6.61437 79.5C2.96135 79.5 0 82.4614 0 86.1144C0 89.7674 2.96135 92.7287 6.61437 92.7287Z" fill="#272421"/>
<path d="M32.9744 51.9307C34.8014 51.9307 36.2825 50.4496 36.2825 48.6226C36.2825 46.7956 34.8014 45.3145 32.9744 45.3145C31.1474 45.3145 29.6663 46.7956 29.6663 48.6226C29.6663 50.4496 31.1474 51.9307 32.9744 51.9307Z" fill="#272421"/>
<path d="M236.498 195.555C238.705 195.555 240.495 193.766 240.495 191.559C240.495 189.352 238.705 187.562 236.498 187.562C234.291 187.562 232.502 189.352 232.502 191.559C232.502 193.766 234.291 195.555 236.498 195.555Z" fill="#272421"/>
<path d="M213.151 118.636C213.598 119.497 214.149 120.301 214.79 121.029L216.734 119.315C216.231 118.746 215.8 118.117 215.45 117.443L213.151 118.636ZM215.945 92.4085C215.21 93.0424 214.555 93.7637 213.994 94.5565L216.112 96.0516C216.55 95.4313 217.062 94.8668 217.638 94.3708L215.945 92.4085ZM216.957 122.948C217.756 123.501 218.62 123.954 219.53 124.295L220.441 121.869C219.731 121.601 219.056 121.248 218.431 120.816L216.957 122.948ZM218.353 90.7955L219.521 93.1091C220.198 92.7671 220.914 92.5099 221.653 92.3434L221.085 89.8134C220.137 90.0282 219.219 90.3594 218.353 90.7994V90.7955ZM223.942 92.1136H226.534V89.5215H223.942V92.1136ZM222.646 122.399L222.353 124.978C222.805 125.029 223.259 125.055 223.714 125.055H225.09V122.463H223.714C223.357 122.464 223 122.444 222.646 122.403V122.399ZM215.037 98.0513L212.621 97.1113C212.269 98.0174 212.03 98.9636 211.911 99.9284L214.483 100.249C214.577 99.4977 214.763 98.7609 215.037 98.0551V98.0513ZM246.132 96.1713C245.703 95.3012 245.169 94.4867 244.543 93.7457L242.564 95.4179C243.054 95.9979 243.472 96.6357 243.808 97.3171L246.132 96.1713ZM214.408 107.864H211.823V110.456H214.408V107.864ZM214.408 102.679H211.823V105.272H214.408V102.679ZM214.408 113.163V113.047H211.823V113.163C211.823 114.089 211.931 115.013 212.143 115.915L214.666 115.318C214.497 114.612 214.41 113.889 214.408 113.163ZM247.082 98.9166L244.547 99.4612C244.685 100.105 244.754 100.761 244.754 101.419V101.763H247.346V101.419C247.347 100.578 247.259 99.7391 247.084 98.9166H247.082ZM241.372 120.337L243.024 122.335C243.771 121.716 244.441 121.009 245.018 120.229L242.934 118.687C242.483 119.298 241.96 119.853 241.375 120.337H241.372ZM244.052 116.715L246.445 117.705C246.816 116.807 247.075 115.866 247.217 114.905L244.651 114.529C244.543 115.279 244.343 116.014 244.055 116.715H244.052ZM244.754 106.951H247.346V104.359H244.752L244.754 106.951ZM227.679 125.054H230.271V122.462H227.679V125.054ZM244.752 112.132H247.344V109.54H244.752V112.132ZM239.87 90.3763L238.906 92.7827C239.61 93.0651 240.277 93.4329 240.892 93.8778L242.411 91.7786C241.627 91.209 240.776 90.7377 239.878 90.3753L239.87 90.3763ZM232.863 125.054H235.455V122.462H232.863V125.054ZM237.316 122.278L237.831 124.818C238.783 124.625 239.708 124.315 240.584 123.895L239.465 121.559C238.781 121.886 238.059 122.127 237.316 122.278ZM229.125 92.1175H231.717V89.5253H229.125V92.1175ZM234.309 89.5253V92.1175H235.457C235.881 92.1174 236.304 92.1459 236.724 92.2027L237.073 89.6344C236.537 89.5617 235.998 89.5252 235.457 89.5253H234.309Z" fill="url(#paint0_linear_861_36429)"/>
<path d="M242.539 101.462C242.539 99.5718 241.788 97.7587 240.451 96.4218C239.115 95.085 237.301 94.334 235.411 94.334H223.755C221.864 94.334 220.051 95.085 218.714 96.4218C217.377 97.7587 216.626 99.5718 216.626 101.462V113.119C216.626 114.055 216.811 114.982 217.169 115.847C217.527 116.712 218.052 117.498 218.714 118.16C219.376 118.821 220.162 119.346 221.027 119.705C221.892 120.063 222.819 120.247 223.755 120.247H235.412C237.302 120.247 239.116 119.496 240.452 118.159C241.789 116.822 242.54 115.009 242.54 113.118L242.539 101.462Z" fill="url(#paint1_linear_861_36429)"/>
<path d="M250.757 84.8223H208.412C208.068 84.8223 207.739 84.9588 207.496 85.2019C207.253 85.4449 207.116 85.7746 207.116 86.1183V128.466C207.116 128.809 207.253 129.139 207.496 129.382C207.739 129.625 208.068 129.762 208.412 129.762H250.759C251.103 129.761 251.432 129.625 251.675 129.382C251.918 129.139 252.055 128.809 252.055 128.466V86.1183C252.055 85.948 252.022 85.7794 251.956 85.6221C251.891 85.4647 251.795 85.3218 251.675 85.2015C251.554 85.0811 251.411 84.9857 251.254 84.9206C251.096 84.8556 250.928 84.8221 250.757 84.8223ZM249.461 127.17H209.706V87.4144H249.461V127.17Z" fill="url(#paint2_linear_861_36429)"/>
<path d="M256.837 96.9707H251.638V99.5628H256.837V96.9707Z" fill="url(#paint3_linear_861_36429)"/>
<path d="M256.837 106.334H251.638V108.926H256.837V106.334Z" fill="url(#paint4_linear_861_36429)"/>
<path d="M256.837 115.725H251.638V118.317H256.837V115.725Z" fill="url(#paint5_linear_861_36429)"/>
<path d="M259.387 94.418C258.627 94.4182 257.883 94.6439 257.251 95.0666C256.619 95.4893 256.126 96.0901 255.835 96.7929C255.544 97.4957 255.468 98.269 255.616 99.015C255.765 99.761 256.131 100.446 256.669 100.984C257.207 101.522 257.892 101.888 258.638 102.036C259.384 102.185 260.158 102.108 260.86 101.817C261.563 101.526 262.164 101.033 262.586 100.401C263.009 99.7683 263.234 99.0247 263.234 98.2641C263.233 97.2442 262.828 96.2663 262.106 95.5452C261.385 94.8242 260.407 94.4187 259.387 94.418ZM259.387 99.519C259.139 99.519 258.897 99.4454 258.69 99.3075C258.484 99.1696 258.323 98.9736 258.228 98.7443C258.133 98.515 258.108 98.2627 258.157 98.0192C258.205 97.7758 258.325 97.5522 258.5 97.3767C258.676 97.2012 258.899 97.0817 259.143 97.0333C259.386 96.9848 259.638 97.0097 259.868 97.1047C260.097 97.1997 260.293 97.3605 260.431 97.5669C260.569 97.7732 260.642 98.0159 260.642 98.2641C260.642 98.597 260.51 98.9163 260.275 99.1517C260.039 99.3872 259.72 99.5187 259.387 99.519Z" fill="url(#paint6_linear_861_36429)"/>
<path d="M259.388 103.783C258.627 103.783 257.883 104.009 257.251 104.432C256.619 104.855 256.126 105.455 255.835 106.158C255.544 106.861 255.468 107.634 255.616 108.38C255.765 109.126 256.131 109.811 256.669 110.349C257.207 110.887 257.893 111.253 258.639 111.402C259.385 111.55 260.158 111.474 260.861 111.183C261.563 110.891 262.164 110.398 262.587 109.766C263.009 109.134 263.235 108.39 263.235 107.629C263.234 106.609 262.828 105.632 262.107 104.91C261.385 104.189 260.408 103.784 259.388 103.783ZM259.388 108.884C259.139 108.884 258.897 108.811 258.69 108.673C258.484 108.535 258.323 108.339 258.228 108.11C258.133 107.88 258.108 107.628 258.157 107.384C258.205 107.141 258.325 106.917 258.5 106.742C258.676 106.566 258.899 106.447 259.143 106.399C259.386 106.35 259.639 106.375 259.868 106.47C260.097 106.565 260.293 106.726 260.431 106.932C260.569 107.138 260.643 107.381 260.643 107.629C260.642 107.962 260.51 108.281 260.275 108.516C260.039 108.752 259.72 108.884 259.388 108.884Z" fill="url(#paint7_linear_861_36429)"/>
<path d="M259.387 113.176C258.627 113.176 257.883 113.402 257.251 113.824C256.619 114.247 256.126 114.848 255.835 115.551C255.544 116.254 255.468 117.027 255.616 117.773C255.765 118.519 256.131 119.204 256.669 119.742C257.207 120.28 257.892 120.646 258.638 120.794C259.384 120.942 260.158 120.866 260.86 120.575C261.563 120.284 262.164 119.791 262.586 119.159C263.009 118.526 263.234 117.783 263.234 117.022C263.233 116.002 262.828 115.024 262.106 114.303C261.385 113.582 260.407 113.177 259.387 113.176ZM259.387 118.277C259.139 118.277 258.897 118.203 258.69 118.065C258.484 117.927 258.323 117.731 258.228 117.502C258.133 117.273 258.108 117.02 258.157 116.777C258.205 116.534 258.325 116.31 258.5 116.135C258.676 115.959 258.899 115.839 259.143 115.791C259.386 115.743 259.638 115.768 259.868 115.862C260.097 115.957 260.293 116.118 260.431 116.325C260.569 116.531 260.642 116.774 260.642 117.022C260.642 117.355 260.51 117.674 260.274 117.909C260.039 118.144 259.72 118.277 259.387 118.277Z" fill="url(#paint8_linear_861_36429)"/>
<path d="M207.702 96.9707H202.503V99.5628H207.702V96.9707Z" fill="url(#paint9_linear_861_36429)"/>
<path d="M207.702 106.334H202.503V108.926H207.702V106.334Z" fill="url(#paint10_linear_861_36429)"/>
<path d="M207.702 115.725H202.503V118.317H207.702V115.725Z" fill="url(#paint11_linear_861_36429)"/>
<path d="M199.954 94.418C199.193 94.418 198.45 94.6435 197.817 95.0662C197.185 95.4888 196.692 96.0894 196.401 96.7922C196.11 97.495 196.033 98.2683 196.182 99.0144C196.33 99.7605 196.697 100.446 197.234 100.984C197.772 101.522 198.458 101.888 199.204 102.036C199.95 102.185 200.723 102.108 201.426 101.817C202.129 101.526 202.729 101.033 203.152 100.401C203.575 99.7683 203.8 99.0247 203.8 98.2641C203.799 97.2443 203.394 96.2666 202.673 95.5456C201.951 94.8245 200.974 94.419 199.954 94.418ZM199.954 99.519C199.706 99.519 199.463 99.4454 199.257 99.3075C199.05 99.1696 198.89 98.9736 198.795 98.7443C198.7 98.515 198.675 98.2627 198.723 98.0192C198.772 97.7758 198.891 97.5522 199.067 97.3767C199.242 97.2012 199.466 97.0817 199.709 97.0333C199.953 96.9848 200.205 97.0097 200.434 97.1047C200.664 97.1997 200.86 97.3605 200.997 97.5669C201.135 97.7732 201.209 98.0159 201.209 98.2641C201.209 98.597 201.077 98.9163 200.841 99.1517C200.606 99.3872 200.287 99.5187 199.954 99.519Z" fill="url(#paint12_linear_861_36429)"/>
<path d="M199.954 103.783C199.193 103.783 198.45 104.009 197.817 104.431C197.185 104.854 196.692 105.455 196.401 106.157C196.11 106.86 196.033 107.634 196.182 108.38C196.33 109.126 196.697 109.811 197.234 110.349C197.772 110.887 198.458 111.253 199.204 111.402C199.95 111.55 200.723 111.474 201.426 111.183C202.129 110.892 202.729 110.399 203.152 109.766C203.575 109.134 203.8 108.39 203.8 107.629C203.799 106.61 203.393 105.632 202.672 104.911C201.951 104.19 200.974 103.784 199.954 103.783ZM199.954 108.884C199.706 108.884 199.463 108.811 199.257 108.673C199.05 108.535 198.89 108.339 198.795 108.11C198.7 107.88 198.675 107.628 198.723 107.384C198.772 107.141 198.891 106.917 199.067 106.742C199.242 106.566 199.466 106.447 199.709 106.399C199.953 106.35 200.205 106.375 200.434 106.47C200.664 106.565 200.86 106.726 200.997 106.932C201.135 107.138 201.209 107.381 201.209 107.629C201.209 107.962 201.076 108.281 200.841 108.516C200.606 108.752 200.287 108.884 199.954 108.884Z" fill="url(#paint13_linear_861_36429)"/>
<path d="M199.954 113.176C199.193 113.176 198.45 113.401 197.817 113.824C197.185 114.247 196.692 114.847 196.401 115.55C196.11 116.253 196.033 117.026 196.182 117.772C196.33 118.518 196.697 119.204 197.234 119.741C197.772 120.279 198.458 120.646 199.204 120.794C199.95 120.942 200.723 120.866 201.426 120.575C202.129 120.284 202.729 119.791 203.152 119.159C203.575 118.526 203.8 117.783 203.8 117.022C203.799 116.002 203.394 115.024 202.673 114.303C201.951 113.582 200.974 113.177 199.954 113.176ZM199.954 118.277C199.706 118.277 199.463 118.203 199.257 118.065C199.05 117.927 198.89 117.731 198.795 117.502C198.7 117.273 198.675 117.02 198.723 116.777C198.772 116.534 198.891 116.31 199.067 116.135C199.242 115.959 199.466 115.839 199.709 115.791C199.953 115.743 200.205 115.768 200.434 115.862C200.664 115.957 200.86 116.118 200.997 116.325C201.135 116.531 201.209 116.774 201.209 117.022C201.209 117.355 201.076 117.674 200.841 117.909C200.606 118.144 200.287 118.277 199.954 118.277Z" fill="url(#paint14_linear_861_36429)"/>
<path d="M221.589 80.4766H218.997V85.6762H221.589V80.4766Z" fill="url(#paint15_linear_861_36429)"/>
<path d="M230.954 80.4766H228.362V85.6762H230.954V80.4766Z" fill="url(#paint16_linear_861_36429)"/>
<path d="M240.346 80.4766H237.753V85.6762H240.346V80.4766Z" fill="url(#paint17_linear_861_36429)"/>
<path d="M220.293 74.0801C219.532 74.0801 218.789 74.3056 218.156 74.7283C217.524 75.1509 217.031 75.7516 216.74 76.4543C216.448 77.1571 216.372 77.9304 216.521 78.6765C216.669 79.4226 217.035 80.1079 217.573 80.6458C218.111 81.1837 218.796 81.55 219.543 81.6984C220.289 81.8468 221.062 81.7706 221.765 81.4795C222.468 81.1884 223.068 80.6954 223.491 80.0629C223.913 79.4305 224.139 78.6869 224.139 77.9262C224.138 76.9064 223.732 75.9288 223.011 75.2077C222.29 74.4866 221.313 74.0811 220.293 74.0801ZM220.293 79.1801C220.045 79.1803 219.802 79.1069 219.596 78.9692C219.389 78.8315 219.229 78.6357 219.134 78.4065C219.039 78.1773 219.014 77.9251 219.062 77.6818C219.11 77.4384 219.23 77.2149 219.405 77.0395C219.581 76.8641 219.804 76.7446 220.048 76.6963C220.291 76.6479 220.543 76.6728 220.772 76.7679C221.001 76.8629 221.197 77.0238 221.335 77.2301C221.473 77.4365 221.546 77.679 221.546 77.9271C221.545 78.2592 221.413 78.5775 221.178 78.8123C220.943 79.0471 220.625 79.1794 220.293 79.1801Z" fill="url(#paint18_linear_861_36429)"/>
<path d="M229.749 73.707C228.988 73.707 228.245 73.9326 227.612 74.3552C226.98 74.7778 226.487 75.3785 226.196 76.0813C225.905 76.7841 225.829 77.5574 225.977 78.3035C226.125 79.0495 226.492 79.7348 227.03 80.2727C227.567 80.8106 228.253 81.1769 228.999 81.3253C229.745 81.4737 230.518 81.3976 231.221 81.1065C231.924 80.8154 232.524 80.3224 232.947 79.6899C233.37 79.0574 233.595 78.3138 233.595 77.5531C233.594 76.5334 233.189 75.5557 232.468 74.8346C231.747 74.1136 230.769 73.708 229.749 73.707ZM229.749 78.8071C229.501 78.8071 229.259 78.7335 229.052 78.5957C228.846 78.4579 228.685 78.262 228.591 78.0328C228.496 77.8036 228.471 77.5514 228.519 77.3081C228.568 77.0649 228.687 76.8414 228.863 76.6661C229.038 76.4908 229.262 76.3714 229.505 76.3232C229.748 76.2749 230.001 76.2998 230.23 76.3949C230.459 76.49 230.655 76.6508 230.792 76.8572C230.93 77.0635 231.003 77.306 231.003 77.5541C231.002 77.8863 230.87 78.2047 230.635 78.4396C230.4 78.6744 230.081 78.8066 229.749 78.8071Z" fill="url(#paint19_linear_861_36429)"/>
<path d="M239.053 74.0801C238.292 74.0801 237.549 74.3056 236.916 74.7283C236.284 75.1509 235.791 75.7516 235.5 76.4543C235.209 77.1571 235.133 77.9304 235.281 78.6765C235.429 79.4226 235.796 80.1079 236.334 80.6458C236.871 81.1837 237.557 81.55 238.303 81.6984C239.049 81.8468 239.822 81.7706 240.525 81.4795C241.228 81.1884 241.828 80.6954 242.251 80.0629C242.674 79.4305 242.899 78.6869 242.899 77.9262C242.898 76.9064 242.493 75.9288 241.772 75.2077C241.051 74.4866 240.073 74.0811 239.053 74.0801ZM239.053 79.1801C238.805 79.1801 238.563 79.1066 238.356 78.9687C238.15 78.8309 237.989 78.635 237.895 78.4058C237.8 78.1766 237.775 77.9245 237.823 77.6812C237.872 77.4379 237.991 77.2145 238.167 77.0392C238.342 76.8638 238.566 76.7445 238.809 76.6962C239.052 76.6479 239.305 76.6729 239.534 76.7679C239.763 76.863 239.959 77.0239 240.096 77.2302C240.234 77.4365 240.307 77.6791 240.307 77.9271C240.306 78.2594 240.174 78.5778 239.939 78.8126C239.704 79.0475 239.385 79.1796 239.053 79.1801Z" fill="url(#paint20_linear_861_36429)"/>
<path d="M221.589 128.465H218.997V133.664H221.589V128.465Z" fill="url(#paint21_linear_861_36429)"/>
<path d="M230.954 128.465H228.362V133.664H230.954V128.465Z" fill="url(#paint22_linear_861_36429)"/>
<path d="M240.346 128.465H237.754V133.664H240.346V128.465Z" fill="url(#paint23_linear_861_36429)"/>
<path d="M220.293 132.369C219.532 132.369 218.789 132.595 218.156 133.017C217.524 133.44 217.031 134.041 216.74 134.743C216.448 135.446 216.372 136.22 216.521 136.966C216.669 137.712 217.035 138.397 217.573 138.935C218.111 139.473 218.796 139.839 219.543 139.987C220.289 140.136 221.062 140.06 221.765 139.769C222.468 139.477 223.068 138.984 223.491 138.352C223.913 137.72 224.139 136.976 224.139 136.215C224.138 135.196 223.732 134.218 223.011 133.497C222.29 132.776 221.313 132.37 220.293 132.369ZM220.293 137.47C220.045 137.471 219.802 137.397 219.595 137.26C219.389 137.122 219.227 136.926 219.132 136.697C219.037 136.468 219.012 136.215 219.06 135.972C219.108 135.728 219.228 135.504 219.403 135.329C219.578 135.153 219.802 135.033 220.045 134.985C220.289 134.936 220.541 134.961 220.771 135.056C221 135.151 221.196 135.311 221.334 135.518C221.472 135.724 221.546 135.967 221.546 136.215C221.546 136.548 221.414 136.866 221.179 137.102C220.944 137.337 220.625 137.469 220.293 137.47Z" fill="url(#paint24_linear_861_36429)"/>
<path d="M229.658 132.369C228.897 132.369 228.153 132.595 227.521 133.017C226.888 133.44 226.395 134.041 226.104 134.743C225.813 135.446 225.737 136.22 225.885 136.966C226.034 137.712 226.4 138.397 226.938 138.935C227.476 139.473 228.161 139.839 228.907 139.987C229.653 140.136 230.427 140.06 231.129 139.769C231.832 139.477 232.433 138.984 232.856 138.352C233.278 137.72 233.504 136.976 233.504 136.215C233.503 135.196 233.097 134.218 232.376 133.497C231.655 132.776 230.677 132.37 229.658 132.369ZM229.658 137.47C229.409 137.47 229.167 137.397 228.96 137.259C228.754 137.121 228.593 136.925 228.498 136.696C228.402 136.467 228.377 136.214 228.426 135.971C228.474 135.728 228.594 135.504 228.769 135.328C228.944 135.153 229.168 135.033 229.411 134.985C229.655 134.936 229.907 134.961 230.137 135.056C230.366 135.151 230.562 135.312 230.7 135.518C230.838 135.724 230.912 135.967 230.912 136.215C230.911 136.548 230.779 136.867 230.544 137.102C230.309 137.337 229.99 137.47 229.658 137.47Z" fill="url(#paint25_linear_861_36429)"/>
<path d="M239.053 132.369C238.292 132.369 237.549 132.595 236.916 133.017C236.284 133.44 235.791 134.041 235.5 134.743C235.209 135.446 235.133 136.22 235.281 136.966C235.429 137.712 235.796 138.397 236.334 138.935C236.871 139.473 237.557 139.839 238.303 139.987C239.049 140.136 239.822 140.06 240.525 139.769C241.228 139.477 241.828 138.984 242.251 138.352C242.674 137.72 242.899 136.976 242.899 136.215C242.898 135.196 242.493 134.218 241.772 133.497C241.051 132.776 240.073 132.37 239.053 132.369ZM239.053 137.47C238.805 137.47 238.562 137.397 238.356 137.259C238.149 137.121 237.988 136.925 237.893 136.696C237.798 136.467 237.773 136.214 237.821 135.971C237.87 135.728 237.989 135.504 238.164 135.328C238.34 135.153 238.564 135.033 238.807 134.985C239.05 134.936 239.303 134.961 239.532 135.056C239.762 135.151 239.958 135.312 240.096 135.518C240.233 135.724 240.307 135.967 240.307 136.215C240.307 136.548 240.175 136.867 239.94 137.102C239.705 137.337 239.386 137.47 239.053 137.47Z" fill="url(#paint26_linear_861_36429)"/>
<path d="M161.214 9.60156H140.24V12.1937H159.918V35.5498H162.51V10.8976C162.51 10.5539 162.374 10.2242 162.131 9.98117C161.887 9.73811 161.558 9.60156 161.214 9.60156Z" fill="#272421"/>
<path d="M140.24 35.5449H115.059V51.9286H140.24V35.5449Z" fill="#272421"/>
<path d="M165.612 35.5449H156.816C154.643 35.5449 152.56 36.408 151.023 37.9444C149.487 39.4808 148.624 41.5645 148.624 43.7373C148.624 45.91 149.487 47.9938 151.023 49.5301C152.56 51.0665 154.643 51.9296 156.816 51.9296H165.612C167.785 51.9296 169.868 51.0665 171.405 49.5301C172.941 47.9938 173.804 45.91 173.804 43.7373C173.804 41.5645 172.941 39.4808 171.405 37.9444C169.868 36.408 167.785 35.5449 165.612 35.5449Z" fill="#272421"/>
<path d="M128.185 0L112.528 10.9879L128.184 21.9758L143.841 10.9888L128.185 0Z" fill="#272421"/>
<path d="M127.651 26.0566C127.307 26.0566 126.977 26.1932 126.734 26.4362C126.491 26.6793 126.354 27.009 126.354 27.3527V35.5446H128.947V28.6526H161.214V26.0605L127.651 26.0566Z" fill="#272421"/>
<path d="M128.306 200.488H113.043C112.873 200.488 112.705 200.522 112.547 200.587C112.39 200.652 112.247 200.748 112.127 200.868C112.007 200.988 111.911 201.131 111.846 201.288C111.781 201.446 111.747 201.614 111.747 201.784C111.744 204.195 112.652 206.518 114.289 208.287C115.927 210.057 118.173 211.141 120.577 211.324C120.609 211.324 120.642 211.324 120.672 211.324C120.703 211.324 120.738 211.324 120.768 211.324C123.172 211.141 125.418 210.056 127.055 208.287C128.692 206.518 129.6 204.195 129.597 201.784C129.597 201.442 129.461 201.113 129.219 200.87C128.977 200.627 128.649 200.49 128.306 200.488ZM124.973 206.719C124.138 207.502 123.104 208.041 121.984 208.28C120.864 208.518 119.701 208.446 118.619 208.072C117.537 207.698 116.578 207.035 115.844 206.156C115.111 205.276 114.632 204.213 114.459 203.081H126.891C126.632 204.459 125.964 205.727 124.973 206.719Z" fill="#272421"/>
<path d="M120.675 204.123H117.373C117.381 204.53 117.479 204.929 117.66 205.294C117.841 205.658 118.101 205.977 118.42 206.229C119.041 206.783 119.844 207.089 120.675 207.089C121.507 207.089 122.31 206.783 122.931 206.229C123.25 205.977 123.51 205.658 123.691 205.294C123.872 204.93 123.97 204.53 123.978 204.123H120.675Z" fill="#272421"/>
<path d="M138.885 171.63C138.543 171.148 138.091 170.755 137.567 170.483C137.042 170.212 136.46 170.07 135.87 170.07C135.279 170.07 134.697 170.212 134.172 170.483C133.648 170.755 133.196 171.148 132.854 171.63C131.935 172.818 131.443 174.281 131.455 175.783V176.363H140.281V175.783C140.294 174.281 139.803 172.818 138.885 171.63Z" fill="#272421"/>
<path d="M173.138 168.211C172.249 167.322 171.194 166.617 170.032 166.137C168.87 165.657 167.625 165.412 166.368 165.414H135.939C135.611 165.424 135.298 165.558 135.065 165.79C134.832 166.022 134.696 166.333 134.684 166.662C134.671 166.99 134.784 167.311 135 167.559C135.215 167.807 135.517 167.964 135.844 167.999C137.596 168.144 139.23 168.943 140.421 170.236C141.613 171.529 142.275 173.222 142.277 174.981C142.277 175.324 142.414 175.654 142.657 175.897C142.9 176.14 143.229 176.277 143.573 176.277H174.641C174.985 176.277 175.315 176.14 175.558 175.897C175.801 175.654 175.938 175.324 175.938 174.981C175.939 173.723 175.693 172.478 175.213 171.317C174.732 170.155 174.027 169.1 173.138 168.211ZM144.785 173.689C144.505 171.614 143.55 169.689 142.068 168.21C141.998 168.14 141.928 168.072 141.857 168.006H166.369C167.996 168.003 169.573 168.569 170.826 169.608C172.079 170.646 172.929 172.09 173.229 173.689H144.785Z" fill="#272421"/>
<path d="M159.373 173.676H144.777C144.476 171.511 143.447 169.512 141.858 168.011C140.269 166.51 138.216 165.595 136.037 165.418C135.974 165.413 135.91 165.413 135.846 165.418C133.444 165.612 131.203 166.703 129.568 168.473C127.932 170.242 127.022 172.562 127.017 174.972V201.781C127.021 203.539 126.36 205.233 125.167 206.523C123.974 207.813 122.336 208.604 120.584 208.737C120.257 208.771 119.956 208.928 119.74 209.176C119.525 209.424 119.412 209.745 119.424 210.074C119.436 210.402 119.573 210.714 119.806 210.945C120.039 211.177 120.351 211.311 120.68 211.321L151.106 211.348C152.364 211.35 153.609 211.104 154.772 210.624C155.934 210.143 156.99 209.438 157.879 208.549C158.769 207.66 159.474 206.604 159.954 205.441C160.434 204.279 160.68 203.033 160.678 201.776V174.972C160.678 174.801 160.644 174.632 160.578 174.474C160.512 174.316 160.416 174.173 160.295 174.053C160.174 173.932 160.03 173.837 159.872 173.772C159.714 173.708 159.544 173.675 159.373 173.676ZM156.042 206.716C155.394 207.365 154.624 207.88 153.776 208.23C152.928 208.581 152.019 208.76 151.102 208.759L126.612 208.737C126.678 208.675 126.742 208.612 126.803 208.545C127.692 207.657 128.397 206.601 128.877 205.44C129.357 204.278 129.603 203.033 129.6 201.777V174.969C129.564 174.114 129.701 173.261 130.003 172.461C130.304 171.661 130.765 170.93 131.357 170.312C131.949 169.694 132.66 169.203 133.446 168.867C134.233 168.532 135.08 168.358 135.935 168.358C136.79 168.358 137.637 168.532 138.424 168.867C139.21 169.203 139.921 169.694 140.513 170.312C141.105 170.93 141.565 171.661 141.867 172.461C142.169 173.261 142.306 174.114 142.27 174.969C142.271 175.312 142.407 175.641 142.65 175.883C142.893 176.126 143.223 176.262 143.566 176.262H158.074V201.776C158.078 202.692 157.9 203.601 157.551 204.448C157.202 205.296 156.69 206.067 156.042 206.716Z" fill="#272421"/>
<path d="M150.395 187.537V184.945H131.239V187.537H150.395Z" fill="#272421"/>
<path d="M143.597 194.389V191.797H131.283V194.389H143.597Z" fill="#272421"/>
<path d="M156.266 201.239V198.646H131.322V201.239H156.266Z" fill="#272421"/>
<path d="M144.413 98.5023H139.723V106.702H144.413C145.526 106.707 146.596 106.276 147.394 105.501C147.783 105.126 148.093 104.676 148.306 104.179C148.518 103.681 148.628 103.147 148.63 102.606C148.622 102.06 148.507 101.52 148.291 101.018C148.075 100.516 147.763 100.062 147.371 99.6808C146.98 99.2997 146.517 98.9995 146.009 98.7973C145.502 98.5951 144.959 98.4949 144.413 98.5023Z" fill="#272421"/>
<path d="M146.331 110.924H139.727V119.806H146.331C147.535 119.81 148.692 119.342 149.554 118.502C149.978 118.096 150.314 117.609 150.545 117.071C150.775 116.532 150.894 115.952 150.894 115.366C150.878 114.172 150.387 113.034 149.532 112.201C148.676 111.368 147.525 110.909 146.331 110.924Z" fill="#272421"/>
<path d="M141.528 142.96C134.842 142.96 128.306 140.977 122.747 137.262C117.187 133.548 112.854 128.268 110.296 122.091C107.737 115.913 107.068 109.116 108.372 102.558C109.676 96.0007 112.896 89.9771 117.624 85.2492C122.352 80.5214 128.375 77.3017 134.933 75.9972C141.491 74.6928 148.288 75.3623 154.465 77.921C160.643 80.4797 165.922 84.8127 169.637 90.3721C173.352 95.9314 175.334 102.467 175.334 109.154C175.324 118.116 171.759 126.709 165.421 133.046C159.084 139.384 150.491 142.949 141.528 142.96ZM141.528 77.9388C135.355 77.939 129.32 79.7698 124.187 83.1997C119.054 86.6296 115.054 91.5046 112.691 97.2081C110.329 102.912 109.711 109.188 110.915 115.242C112.12 121.297 115.093 126.859 119.458 131.224C123.823 135.59 129.385 138.562 135.44 139.767C141.494 140.971 147.77 140.353 153.474 137.991C159.178 135.628 164.052 131.628 167.482 126.495C170.912 121.362 172.743 115.327 172.743 109.154C172.733 100.878 169.441 92.9446 163.589 87.093C157.738 81.2414 149.804 77.9497 141.528 77.9398V77.9388ZM157.019 122.061C155.367 123.664 153.153 124.557 150.851 124.55H146.67V131.211H142.411V124.55H139.724V131.211H135.473V124.606H126.843V120.14H130.031C130.291 120.183 130.558 120.165 130.81 120.087C131.062 120.01 131.293 119.875 131.484 119.693C131.675 119.511 131.821 119.288 131.911 119.04C132 118.792 132.031 118.526 132.001 118.264V100.101C132.031 99.8394 132 99.5742 131.91 99.3264C131.82 99.0786 131.674 98.855 131.483 98.6733C131.292 98.4917 131.062 98.3568 130.81 98.2793C130.558 98.2019 130.291 98.184 130.031 98.2271H126.843V93.7607H135.473V87.0994H139.724V93.7607H142.411V87.0994H146.67V93.7607H149.637C151.505 93.7379 153.306 94.4575 154.644 95.7614C155.982 97.0653 156.748 98.8468 156.773 100.715C156.773 101.633 156.587 102.541 156.228 103.385C155.869 104.23 155.343 104.993 154.683 105.63C153.654 106.623 152.355 107.289 150.949 107.545C153.217 107.54 155.395 108.431 157.011 110.022C158.627 111.614 159.55 113.778 159.58 116.046C159.579 117.169 159.352 118.28 158.912 119.314C158.472 120.347 157.828 121.282 157.019 122.061Z" fill="#272421"/>
<path d="M144.413 98.5023H139.722V106.702H144.413C145.525 106.707 146.596 106.276 147.394 105.501C147.783 105.126 148.093 104.676 148.305 104.179C148.518 103.681 148.628 103.147 148.629 102.606C148.622 102.06 148.507 101.52 148.291 101.018C148.075 100.516 147.763 100.062 147.371 99.6808C146.979 99.2997 146.517 98.9995 146.009 98.7973C145.502 98.5951 144.959 98.4949 144.413 98.5023Z" fill="#F1EBE1"/>
<path d="M146.331 110.924H139.726V119.806H146.331C147.535 119.81 148.692 119.342 149.554 118.502C149.977 118.096 150.314 117.609 150.545 117.071C150.775 116.532 150.894 115.952 150.894 115.366C150.877 114.172 150.387 113.034 149.532 112.201C148.676 111.368 147.525 110.909 146.331 110.924Z" fill="#F1EBE1"/>
<path d="M79.7989 45.3301L77.9668 47.1631L79.7989 48.9953L81.631 47.1622L79.7989 45.3301ZM70.6355 54.4935L72.4676 56.3256L74.2997 54.4935L72.4676 52.6614L70.6355 54.4935ZM74.3007 50.8274L76.1328 52.6595L77.9649 50.8274L76.1328 48.9953L74.3007 50.8274Z" fill="#272421"/>
<path d="M93.362 33.2111L95.1941 35.0433L97.0272 33.2102L95.195 31.3781L93.362 33.2111ZM89.6978 36.8763L91.5299 38.7084L93.362 36.8763L91.5299 35.0442L89.6978 36.8763ZM98.8612 27.7129L97.0291 29.545L98.8612 31.3771L100.693 29.545L98.8612 27.7129Z" fill="#272421"/>
<path d="M86.3292 39.5098H76.8853V42.1019H85.034V50.3206H87.6262V40.8058C87.6259 40.462 87.4892 40.1323 87.246 39.8893C87.0027 39.6463 86.673 39.5098 86.3292 39.5098Z" fill="#272421"/>
<path d="M191.079 25.7109L189.247 27.5431L191.079 29.3752L192.911 27.5431L191.079 25.7109ZM198.41 33.0423L196.578 34.8744L198.41 36.7065L200.242 34.8744L198.41 33.0423ZM194.744 29.3761L192.912 31.2082L194.745 33.0413L196.577 31.2092L194.744 29.3761Z" fill="#272421"/>
<path d="M210.528 50.2756L212.362 52.1039L214.194 50.2718L212.362 48.4396L210.528 50.2756ZM208.696 44.7773L206.864 46.6095L208.696 48.4416L210.528 46.6095L208.696 44.7773ZM216.028 52.1087L214.196 53.9408L216.028 55.7738L217.86 53.9417L216.028 52.1087Z" fill="#272421"/>
<path d="M203.47 31.9629V40.1117H195.251V42.7038H204.766C205.11 42.7038 205.44 42.5673 205.683 42.3242C205.926 42.0812 206.062 41.7515 206.062 41.4077V31.9629H203.47Z" fill="#272421"/>
<path d="M208.141 164.394L209.973 166.226L211.805 164.394L209.973 162.562L208.141 164.394ZM217.304 155.23L215.473 157.059L217.305 158.891L219.137 157.059L217.304 155.23ZM211.806 160.729L213.638 162.561L215.471 160.728L213.639 158.896L211.806 160.729Z" fill="#272421"/>
<path d="M192.744 178.353L194.576 180.185L196.408 178.353L194.576 176.521L192.744 178.353ZM189.078 182.019L190.91 183.851L192.743 182.019L190.911 180.187L189.078 182.019ZM198.242 172.855L196.41 174.688L198.242 176.52L200.074 174.688L198.242 172.855Z" fill="#272421"/>
<path d="M204.739 169.459V161.24H202.147V170.755C202.147 171.099 202.283 171.428 202.526 171.671C202.769 171.914 203.099 172.051 203.443 172.051H212.885V169.459H204.739Z" fill="#272421"/>
<path d="M95.0266 178.517L93.1945 180.349L95.0276 182.182L96.8597 180.35L95.0266 178.517ZM91.3614 174.852L89.5293 176.684L91.3614 178.516L93.1935 176.684L91.3614 174.852ZM98.6927 182.183L96.8606 184.015L98.6927 185.847L100.525 184.015L98.6927 182.183Z" fill="#272421"/>
<path d="M71.9128 157.621L73.745 159.454L75.5771 157.622L73.745 155.789L71.9128 157.621ZM77.4111 159.454L75.579 161.286L77.4111 163.118L79.2432 161.286L77.4111 159.454ZM81.0763 163.12L79.2442 164.952L81.0763 166.785L82.9084 164.952L81.0763 163.12Z" fill="#272421"/>
<path d="M85.0058 168.857C84.8356 168.857 84.667 168.891 84.5098 168.956C84.3526 169.021 84.2097 169.117 84.0893 169.237C83.969 169.357 83.8735 169.5 83.8084 169.658C83.7432 169.815 83.7097 169.983 83.7097 170.153V179.598H86.3019V171.451H94.5205V168.858H85.0068L85.0058 168.857Z" fill="#272421"/>
<path d="M45.2324 118.674L34.905 113.852C28.5874 117.083 27.0759 125.242 27.0759 132.341V137.83H41.2906L40.8599 137.16L45.2324 118.674Z" fill="url(#paint27_linear_861_36429)"/>
<path d="M61.9145 112.43H56.8259V114.354L62.798 137.58L62.6267 137.832H76.2488V132.344C76.2479 123.264 73.7658 112.43 61.9145 112.43Z" fill="url(#paint28_linear_861_36429)"/>
<path d="M59.1131 137.161L54.1155 115.784C54.0487 115.499 53.8877 115.245 53.6584 115.064C53.4292 114.882 53.1453 114.783 52.8529 114.783H50.0349L42.7064 112.412V109.563H52.2546V106.971H41.4103C41.0666 106.971 40.7369 107.107 40.4939 107.35C40.2508 107.593 40.1143 107.923 40.1143 108.267V113.355C40.1144 113.629 40.2012 113.896 40.3623 114.117C40.5235 114.339 40.7506 114.503 41.0112 114.587L49.4347 117.311C49.5636 117.352 49.6983 117.374 49.8338 117.374H51.8296L56.4606 137.204L54.0025 140.867L56.1543 142.311L58.9303 138.18C59.0292 138.032 59.0965 137.865 59.128 137.69C59.1594 137.514 59.1544 137.335 59.1131 137.161Z" fill="url(#paint29_linear_861_36429)"/>
<path d="M50.8995 118.62L48.3648 118.078L44.3761 136.724C44.3053 137.052 44.3646 137.395 44.5416 137.681L47.4066 142.294L49.6082 140.927L47.0237 136.757L50.8995 118.62Z" fill="url(#paint30_linear_861_36429)"/>
<path d="M59.1427 103.711H56.5505V108.27H59.1427V103.711Z" fill="url(#paint31_linear_861_36429)"/>
<path d="M45.848 103.6H43.2559V108.27H45.848V103.6Z" fill="url(#paint32_linear_861_36429)"/>
<path d="M63.9403 85.4172C61.1433 84.436 56.5698 82.0669 56.2108 79.8653C56.1734 79.6416 56.0781 79.4316 55.9342 79.2562C55.7904 79.0808 55.6031 78.9462 55.3911 78.8657C55.179 78.7852 54.9495 78.7617 54.7255 78.7975C54.5016 78.8334 54.2909 78.9273 54.1145 79.0699C49.6722 82.1849 44.4139 83.9288 38.9905 84.0857C38.656 84.0993 38.3398 84.2416 38.1079 84.483C37.8759 84.7244 37.7463 85.0461 37.7461 85.3808V94.7864C37.7481 97.4666 38.8136 100.036 40.7086 101.932C42.6035 103.827 45.1732 104.893 47.8534 104.896H54.7013C57.3802 104.893 59.9485 103.827 61.8428 101.933C63.7371 100.038 64.8026 97.4701 64.8057 94.7912V86.6386C64.8056 86.3705 64.7223 86.109 64.5673 85.8902C64.4123 85.6714 64.1933 85.5061 63.9403 85.4172ZM62.2173 94.7912C62.2151 96.7831 61.4228 98.6928 60.0143 100.101C58.6058 101.51 56.6961 102.302 54.7041 102.304H47.8543C45.8622 102.302 43.9524 101.51 42.5439 100.101C41.1353 98.6923 40.3431 96.7823 40.3411 94.7902V86.6041C45.3068 86.2403 50.1115 84.6846 54.3481 82.0688C56.0711 84.8448 60.3134 86.7793 62.2154 87.5374V94.7922L62.2173 94.7912Z" fill="url(#paint33_linear_861_36429)"/>
<path d="M53.6957 85.7324C50.4053 87.4269 46.8636 88.5811 43.2065 89.1506V94.7915C43.2078 96.0232 43.6976 97.204 44.5685 98.0749C45.4394 98.9458 46.6203 99.4356 47.8519 99.4369H54.6998C55.9315 99.4356 57.1123 98.9458 57.9832 98.0749C58.8541 97.204 59.344 96.0232 59.3452 94.7915V89.4311C57.2799 88.5018 55.3735 87.2537 53.6957 85.7324Z" fill="url(#paint34_linear_861_36429)"/>
<path d="M58.6975 72.0922C58.4018 71.3536 57.9373 70.6946 57.341 70.168C56.7447 69.6413 56.0334 69.2618 55.2639 69.0597C51.3769 68.2621 47.3489 68.4958 43.5801 69.7374C36.2555 72.1735 36.3158 78.0958 36.3752 83.8229C36.3809 84.3503 36.3857 84.8835 36.3857 85.4185C36.3859 85.7622 36.5226 86.0917 36.7656 86.3347C37.0086 86.5777 37.3381 86.7144 37.6818 86.7146C48.7166 86.7146 55.4697 81.315 55.7512 81.0852C55.8684 80.9896 55.9682 80.8742 56.046 80.7445L58.3289 76.9156C58.7571 76.1941 59.0131 75.3835 59.077 74.5469C59.1409 73.7104 59.011 72.8704 58.6975 72.0922ZM56.1034 75.5898L53.9497 79.2043C49.5288 82.2354 44.3307 83.9334 38.9731 84.0966C38.9731 84.0009 38.9731 83.8966 38.9731 83.797C38.9108 77.7455 39.1406 73.9492 44.4053 72.1975C46.5531 71.5163 48.7931 71.1702 51.0464 71.1713C52.2455 71.1533 53.442 71.2855 54.6082 71.5647C54.99 71.6636 55.3427 71.8518 55.6375 72.1137C55.9322 72.3757 56.1605 72.7039 56.3035 73.0714C56.4664 73.4784 56.5331 73.9176 56.4982 74.3546C56.4633 74.7917 56.3279 75.2148 56.1024 75.5908L56.1034 75.5898Z" fill="url(#paint35_linear_861_36429)"/>
<path d="M64.8974 72.2679C64.2808 71.8137 63.5724 71.4998 62.8217 71.3481C62.071 71.1965 61.2962 71.2108 60.5517 71.3902C58.1146 71.8496 56.5591 74.6782 56.3083 75.1654L53.8196 79.4203C53.6668 79.6797 53.6095 79.9845 53.6578 80.2817C54.3968 84.9721 63.6128 88.0601 64.66 88.397C64.7881 88.4384 64.9218 88.4594 65.0563 88.4592C65.4001 88.4592 65.7297 88.3227 65.9728 88.0796C66.2159 87.8366 66.3524 87.5069 66.3524 87.1632V75.69C66.3873 75.0463 66.2743 74.4033 66.0221 73.8101C65.7699 73.2169 65.3852 72.6893 64.8974 72.2679ZM63.7593 85.3177C60.612 84.0781 57.0406 82.0794 56.3256 80.2664L58.5664 76.4433C58.5808 76.4184 58.5932 76.3945 58.6056 76.3696C58.9636 75.6574 60.03 74.1268 61.036 73.9354C61.4073 73.8359 61.795 73.8136 62.1752 73.8701C62.5554 73.9266 62.9199 74.0606 63.2462 74.2637C63.4403 74.4417 63.5883 74.6641 63.6775 74.9119C63.7667 75.1596 63.7944 75.4253 63.7583 75.6861L63.7593 85.3177Z" fill="url(#paint36_linear_861_36429)"/>
<path d="M61.9141 106.97H60.2869V109.563H61.9141C68.338 109.563 79.1153 112.522 79.1153 132.344V140.212L24.2084 140.395V132.343C24.1416 128.515 24.6911 124.702 25.8357 121.048C27.5108 115.601 31.4249 111.555 36.3191 110.219C37.9782 109.767 39.6919 109.545 41.4115 109.562H43.0388V106.969H41.4115C39.4569 106.953 37.5095 107.207 35.6242 107.723C29.8809 109.29 25.2968 113.987 23.3718 120.255C22.1445 124.164 21.5537 128.245 21.622 132.342V141.693C21.622 142.037 21.7586 142.367 22.0016 142.61C22.2447 142.853 22.5743 142.99 22.9181 142.99L80.4171 142.798C80.76 142.797 81.0883 142.659 81.3302 142.417C81.5722 142.174 81.7082 141.845 81.7084 141.502V132.342C81.7075 116.219 74.4929 106.97 61.9141 106.97Z" fill="url(#paint37_linear_861_36429)"/>
<defs>
<linearGradient id="paint0_linear_861_36429" x1="211.281" y1="91.1995" x2="267.489" y2="116.41" gradientUnits="userSpaceOnUse">
<stop stop-color="#846E55"/>
<stop offset="1" stop-color="#B3A55C"/>
</linearGradient>
<linearGradient id="paint1_linear_861_36429" x1="216.231" y1="95.5576" x2="257.23" y2="113.954" gradientUnits="userSpaceOnUse">
<stop stop-color="#846E55"/>
<stop offset="1" stop-color="#B3A55C"/>
</linearGradient>
<linearGradient id="paint2_linear_861_36429" x1="206.43" y1="86.9444" x2="277.531" y2="118.846" gradientUnits="userSpaceOnUse">
<stop stop-color="#846E55"/>
<stop offset="1" stop-color="#B3A55C"/>
</linearGradient>
<linearGradient id="paint3_linear_861_36429" x1="251.558" y1="97.0931" x2="257.018" y2="102.007" gradientUnits="userSpaceOnUse">
<stop stop-color="#846E55"/>
<stop offset="1" stop-color="#B3A55C"/>
</linearGradient>
<linearGradient id="paint4_linear_861_36429" x1="251.558" y1="106.456" x2="257.018" y2="111.37" gradientUnits="userSpaceOnUse">
<stop stop-color="#846E55"/>
<stop offset="1" stop-color="#B3A55C"/>
</linearGradient>
<linearGradient id="paint5_linear_861_36429" x1="251.558" y1="115.847" x2="257.018" y2="120.761" gradientUnits="userSpaceOnUse">
<stop stop-color="#846E55"/>
<stop offset="1" stop-color="#B3A55C"/>
</linearGradient>
<linearGradient id="paint6_linear_861_36429" x1="255.425" y1="94.7812" x2="267.595" y2="100.242" gradientUnits="userSpaceOnUse">
<stop stop-color="#846E55"/>
<stop offset="1" stop-color="#B3A55C"/>
</linearGradient>
<linearGradient id="paint7_linear_861_36429" x1="255.425" y1="104.146" x2="267.595" y2="109.607" gradientUnits="userSpaceOnUse">
<stop stop-color="#846E55"/>
<stop offset="1" stop-color="#B3A55C"/>
</linearGradient>
<linearGradient id="paint8_linear_861_36429" x1="255.425" y1="113.539" x2="267.595" y2="119" gradientUnits="userSpaceOnUse">
<stop stop-color="#846E55"/>
<stop offset="1" stop-color="#B3A55C"/>
</linearGradient>
<linearGradient id="paint9_linear_861_36429" x1="202.423" y1="97.0931" x2="207.883" y2="102.007" gradientUnits="userSpaceOnUse">
<stop stop-color="#846E55"/>
<stop offset="1" stop-color="#B3A55C"/>
</linearGradient>
<linearGradient id="paint10_linear_861_36429" x1="202.423" y1="106.456" x2="207.883" y2="111.37" gradientUnits="userSpaceOnUse">
<stop stop-color="#846E55"/>
<stop offset="1" stop-color="#B3A55C"/>
</linearGradient>
<linearGradient id="paint11_linear_861_36429" x1="202.423" y1="115.847" x2="207.883" y2="120.761" gradientUnits="userSpaceOnUse">
<stop stop-color="#846E55"/>
<stop offset="1" stop-color="#B3A55C"/>
</linearGradient>
<linearGradient id="paint12_linear_861_36429" x1="195.99" y1="94.7812" x2="208.161" y2="100.242" gradientUnits="userSpaceOnUse">
<stop stop-color="#846E55"/>
<stop offset="1" stop-color="#B3A55C"/>
</linearGradient>
<linearGradient id="paint13_linear_861_36429" x1="195.99" y1="104.146" x2="208.161" y2="109.607" gradientUnits="userSpaceOnUse">
<stop stop-color="#846E55"/>
<stop offset="1" stop-color="#B3A55C"/>
</linearGradient>
<linearGradient id="paint14_linear_861_36429" x1="195.99" y1="113.539" x2="208.161" y2="119" gradientUnits="userSpaceOnUse">
<stop stop-color="#846E55"/>
<stop offset="1" stop-color="#B3A55C"/>
</linearGradient>
<linearGradient id="paint15_linear_861_36429" x1="218.957" y1="80.7221" x2="223.65" y2="81.7716" gradientUnits="userSpaceOnUse">
<stop stop-color="#846E55"/>
<stop offset="1" stop-color="#B3A55C"/>
</linearGradient>
<linearGradient id="paint16_linear_861_36429" x1="228.322" y1="80.7221" x2="233.014" y2="81.7716" gradientUnits="userSpaceOnUse">
<stop stop-color="#846E55"/>
<stop offset="1" stop-color="#B3A55C"/>
</linearGradient>
<linearGradient id="paint17_linear_861_36429" x1="237.714" y1="80.7221" x2="242.406" y2="81.7716" gradientUnits="userSpaceOnUse">
<stop stop-color="#846E55"/>
<stop offset="1" stop-color="#B3A55C"/>
</linearGradient>
<linearGradient id="paint18_linear_861_36429" x1="216.329" y1="74.4433" x2="228.5" y2="79.9038" gradientUnits="userSpaceOnUse">
<stop stop-color="#846E55"/>
<stop offset="1" stop-color="#B3A55C"/>
</linearGradient>
<linearGradient id="paint19_linear_861_36429" x1="225.786" y1="74.0703" x2="237.956" y2="79.5308" gradientUnits="userSpaceOnUse">
<stop stop-color="#846E55"/>
<stop offset="1" stop-color="#B3A55C"/>
</linearGradient>
<linearGradient id="paint20_linear_861_36429" x1="235.09" y1="74.4433" x2="247.26" y2="79.9038" gradientUnits="userSpaceOnUse">
<stop stop-color="#846E55"/>
<stop offset="1" stop-color="#B3A55C"/>
</linearGradient>
<linearGradient id="paint21_linear_861_36429" x1="218.957" y1="128.71" x2="223.65" y2="129.76" gradientUnits="userSpaceOnUse">
<stop stop-color="#846E55"/>
<stop offset="1" stop-color="#B3A55C"/>
</linearGradient>
<linearGradient id="paint22_linear_861_36429" x1="228.322" y1="128.71" x2="233.014" y2="129.76" gradientUnits="userSpaceOnUse">
<stop stop-color="#846E55"/>
<stop offset="1" stop-color="#B3A55C"/>
</linearGradient>
<linearGradient id="paint23_linear_861_36429" x1="237.714" y1="128.71" x2="242.406" y2="129.76" gradientUnits="userSpaceOnUse">
<stop stop-color="#846E55"/>
<stop offset="1" stop-color="#B3A55C"/>
</linearGradient>
<linearGradient id="paint24_linear_861_36429" x1="216.329" y1="132.732" x2="228.5" y2="138.193" gradientUnits="userSpaceOnUse">
<stop stop-color="#846E55"/>
<stop offset="1" stop-color="#B3A55C"/>
</linearGradient>
<linearGradient id="paint25_linear_861_36429" x1="225.694" y1="132.732" x2="237.864" y2="138.193" gradientUnits="userSpaceOnUse">
<stop stop-color="#846E55"/>
<stop offset="1" stop-color="#B3A55C"/>
</linearGradient>
<linearGradient id="paint26_linear_861_36429" x1="235.09" y1="132.732" x2="247.26" y2="138.193" gradientUnits="userSpaceOnUse">
<stop stop-color="#846E55"/>
<stop offset="1" stop-color="#B3A55C"/>
</linearGradient>
<linearGradient id="paint27_linear_861_36429" x1="26.7987" y1="114.984" x2="57.7369" y2="125.495" gradientUnits="userSpaceOnUse">
<stop stop-color="#846E55"/>
<stop offset="1" stop-color="#B3A55C"/>
</linearGradient>
<linearGradient id="paint28_linear_861_36429" x1="56.5294" y1="113.629" x2="89.5584" y2="124.96" gradientUnits="userSpaceOnUse">
<stop stop-color="#846E55"/>
<stop offset="1" stop-color="#B3A55C"/>
</linearGradient>
<linearGradient id="paint29_linear_861_36429" x1="39.8237" y1="108.64" x2="74.0048" y2="116.9" gradientUnits="userSpaceOnUse">
<stop stop-color="#846E55"/>
<stop offset="1" stop-color="#B3A55C"/>
</linearGradient>
<linearGradient id="paint30_linear_861_36429" x1="44.2469" y1="119.222" x2="56.5201" y2="120.712" gradientUnits="userSpaceOnUse">
<stop stop-color="#846E55"/>
<stop offset="1" stop-color="#B3A55C"/>
</linearGradient>
<linearGradient id="paint31_linear_861_36429" x1="56.511" y1="103.926" x2="61.1367" y2="105.106" gradientUnits="userSpaceOnUse">
<stop stop-color="#846E55"/>
<stop offset="1" stop-color="#B3A55C"/>
</linearGradient>
<linearGradient id="paint32_linear_861_36429" x1="43.2163" y1="103.82" x2="47.8554" y2="104.975" gradientUnits="userSpaceOnUse">
<stop stop-color="#846E55"/>
<stop offset="1" stop-color="#B3A55C"/>
</linearGradient>
<linearGradient id="paint33_linear_861_36429" x1="37.333" y1="80.0144" x2="79.6229" y2="99.6757" gradientUnits="userSpaceOnUse">
<stop stop-color="#846E55"/>
<stop offset="1" stop-color="#B3A55C"/>
</linearGradient>
<linearGradient id="paint34_linear_861_36429" x1="42.9602" y1="86.3796" x2="66.9397" y2="99.0496" gradientUnits="userSpaceOnUse">
<stop stop-color="#846E55"/>
<stop offset="1" stop-color="#B3A55C"/>
</linearGradient>
<linearGradient id="paint35_linear_861_36429" x1="36.0175" y1="69.4513" x2="68.8242" y2="87.9155" gradientUnits="userSpaceOnUse">
<stop stop-color="#846E55"/>
<stop offset="1" stop-color="#B3A55C"/>
</linearGradient>
<linearGradient id="paint36_linear_861_36429" x1="53.447" y1="72.0571" x2="75.2258" y2="79.2758" gradientUnits="userSpaceOnUse">
<stop stop-color="#846E55"/>
<stop offset="1" stop-color="#B3A55C"/>
</linearGradient>
<linearGradient id="paint37_linear_861_36429" x1="20.6993" y1="108.67" x2="93.9009" y2="163.461" gradientUnits="userSpaceOnUse">
<stop stop-color="#846E55"/>
<stop offset="1" stop-color="#B3A55C"/>
</linearGradient>
</defs>
</svg>
