<svg width="94" height="132" viewBox="0 0 94 132" fill="none" xmlns="http://www.w3.org/2000/svg">
<path opacity="0.4" d="M91.2709 37.5144C91.159 37.4865 91.0619 37.417 90.9994 37.32C90.9369 37.2229 90.9138 37.1057 90.9346 36.9922C90.9555 36.8786 91.0188 36.7773 91.1117 36.7089C91.2046 36.6405 91.3201 36.6101 91.4346 36.624C91.5491 36.6378 91.6539 36.6949 91.7279 36.7835C91.8018 36.8721 91.8392 36.9856 91.8324 37.1009C91.8256 37.2161 91.7752 37.3245 91.6914 37.4038C91.6076 37.4831 91.4968 37.5275 91.3815 37.5278C91.3442 37.5279 91.3071 37.5234 91.2709 37.5144ZM92.6692 35.8565C92.6692 35.7247 92.7082 35.596 92.7813 35.4864C92.8544 35.3769 92.9583 35.2915 93.0799 35.2411C93.2014 35.1907 93.3352 35.1775 93.4642 35.2032C93.5933 35.2289 93.7118 35.2924 93.8049 35.3855C93.8979 35.4787 93.9613 35.5973 93.9869 35.7265C94.0126 35.8557 93.9994 35.9896 93.9491 36.1113C93.8987 36.233 93.8134 36.3371 93.704 36.4102C93.5946 36.4834 93.466 36.5225 93.3344 36.5225C93.158 36.5225 92.9888 36.4523 92.864 36.3274C92.7393 36.2025 92.6692 36.0331 92.6692 35.8565ZM90.7305 20.9637C90.7305 20.7966 90.78 20.6333 90.8727 20.4944C90.9654 20.3555 91.0973 20.2472 91.2515 20.1833C91.4057 20.1194 91.5753 20.1028 91.739 20.1354C91.9027 20.1681 92.053 20.2486 92.1709 20.3668C92.2889 20.485 92.3691 20.6356 92.4016 20.7995C92.434 20.9634 92.4172 21.1332 92.3532 21.2876C92.2892 21.4419 92.181 21.5737 92.0421 21.6664C91.9033 21.7591 91.7401 21.8085 91.5732 21.8083C91.4624 21.8083 91.3528 21.7865 91.2505 21.744C91.1482 21.7015 91.0552 21.6393 90.977 21.5609C90.8987 21.4824 90.8367 21.3893 90.7944 21.2869C90.7521 21.1844 90.7304 21.0746 90.7305 20.9637Z" fill="url(#paint0_linear_1709_12019)"/>
<path opacity="0.4" d="M86.2376 36.5232C90.5244 36.5232 93.9995 33.0441 93.9995 28.7523C93.9995 24.4606 90.5244 20.9814 86.2376 20.9814C81.9507 20.9814 78.4756 24.4606 78.4756 28.7523C78.4756 33.0441 81.9507 36.5232 86.2376 36.5232Z" fill="url(#paint1_linear_1709_12019)"/>
<path opacity="0.4" d="M20.9762 127.282C32.5611 127.282 41.9525 117.88 41.9525 106.282C41.9525 94.6834 32.5611 85.2812 20.9762 85.2812C9.39139 85.2812 0 94.6834 0 106.282C0 117.88 9.39139 127.282 20.9762 127.282Z" fill="url(#paint2_linear_1709_12019)"/>
<path opacity="0.4" d="M15.1798 130.201C15.1798 129.845 15.2852 129.497 15.4826 129.202C15.6801 128.906 15.9607 128.675 16.2891 128.539C16.6174 128.403 16.9787 128.367 17.3273 128.437C17.6758 128.506 17.996 128.677 18.2473 128.929C18.4986 129.181 18.6698 129.501 18.7391 129.85C18.8084 130.199 18.7728 130.561 18.6368 130.89C18.5008 131.218 18.2705 131.499 17.975 131.697C17.6795 131.895 17.3321 132 16.9767 132C16.5001 132 16.0431 131.811 15.7061 131.473C15.3691 131.136 15.1798 130.678 15.1798 130.201ZM21.465 130.29C21.465 130.047 21.537 129.81 21.6719 129.608C21.8067 129.406 21.9984 129.248 22.2227 129.155C22.447 129.062 22.6937 129.038 22.9318 129.086C23.1698 129.133 23.3885 129.25 23.5601 129.422C23.7316 129.594 23.8484 129.813 23.8957 130.051C23.9429 130.29 23.9185 130.537 23.8255 130.761C23.7325 130.986 23.5751 131.177 23.3731 131.312C23.1712 131.447 22.9339 131.519 22.6912 131.519C22.3657 131.519 22.0536 131.389 21.8235 131.159C21.5934 130.929 21.465 130.616 21.465 130.29ZM4.99219 85.7889C4.99236 85.3376 5.1262 84.8965 5.37676 84.5213C5.62733 84.1462 5.98338 83.8538 6.3999 83.6813C6.81641 83.5087 7.27469 83.4636 7.71678 83.5518C8.15888 83.6399 8.56494 83.8573 8.88363 84.1765C9.20231 84.4957 9.41931 84.9023 9.50719 85.3449C9.59507 85.7876 9.54988 86.2464 9.37733 86.6633C9.20478 87.0802 8.91263 87.4366 8.53781 87.6873C8.16299 87.938 7.72233 88.0718 7.27156 88.0718C6.97215 88.0718 6.67568 88.0127 6.39907 87.898C6.12247 87.7833 5.87115 87.6151 5.65948 87.4031C5.44781 87.1911 5.27993 86.9394 5.16544 86.6625C5.05094 86.3855 4.99207 86.0887 4.99219 85.7889Z" fill="url(#paint3_linear_1709_12019)"/>
<path d="M34.5684 20.7112V122.436C34.5684 125.59 35.8595 128.147 37.4522 128.147H77.3756C78.9683 128.147 80.2594 125.59 80.2594 122.436V20.7112C80.2594 17.557 78.9683 15 77.3756 15H37.4522C35.8595 15 34.5684 17.557 34.5684 20.7112Z" fill="#F6F2ED"/>
<path d="M35 20.7115V122.436C35 125.118 36.0975 127.291 37.4512 127.291H77.3747C78.7285 127.291 79.8259 125.118 79.8259 122.436V20.7115C79.8259 18.0304 78.7285 15.8569 77.3747 15.8569H37.4512C36.0975 15.8569 35 18.0304 35 20.7115Z" stroke="#272421" stroke-width="1.5"/>
<path d="M46.3898 61.3426H44.3042V62.8398H43.7852V58.8089H44.3042V60.3061H46.3898V61.3426Z" fill="#F6F2ED"/>
<path d="M44.0593 57.9379C43.8551 57.8057 43.7542 57.6379 43.7542 57.1433C43.7381 56.9774 43.7598 56.808 43.8154 56.664C43.8711 56.5201 43.9573 56.4105 44.0593 56.354L46.3889 54.8452V55.9344L45.7942 56.2969V57.9932L46.3894 58.3584V59.4404L44.0593 57.9379ZM45.2872 57.7441V56.5487L44.4613 57.062C44.4209 57.0861 44.3794 57.1022 44.3794 57.1433C44.3794 57.1843 44.4198 57.2058 44.4613 57.2325L45.2872 57.7441Z" fill="#F6F2ED"/>
<path d="M46.3894 54.6437H44.1885C44.1345 54.6558 44.0795 54.6486 44.0276 54.6224C43.9757 54.5963 43.9284 54.552 43.8894 54.4931C43.8504 54.4341 43.8206 54.362 43.8025 54.2824C43.7843 54.2028 43.7783 54.1178 43.7848 54.0339V51.8912C43.7848 50.9984 44.1458 50.802 44.6666 50.802C45.1874 50.802 45.556 50.9984 45.556 51.8912V53.6072H46.39V54.6437H46.3894ZM45.0346 52.426C45.0346 51.9939 44.9262 51.8618 44.666 51.8618C44.4059 51.8618 44.3038 51.9948 44.3038 52.426V53.3358C44.3038 53.5375 44.3488 53.6036 44.4769 53.6036H45.0317L45.0346 52.426Z" fill="#F6F2ED"/>
<path d="M46.1056 50.1395V47.8878C46.1056 47.5825 45.9678 47.4611 45.7411 47.4611C45.6033 47.4611 45.4654 47.5066 45.3801 47.9075L45.0375 49.5056C45.005 49.7239 44.9211 49.9157 44.8022 50.0435C44.6833 50.1713 44.5379 50.2258 44.3944 50.1966C44.3131 50.2147 44.2302 50.2037 44.1521 50.1646C44.074 50.1254 44.0027 50.059 43.9438 49.9706C43.8848 49.8822 43.8397 49.774 43.8119 49.6544C43.7842 49.5348 43.7745 49.4069 43.7836 49.2806V47.0968H44.0656V49.1824C44.0656 49.4877 44.1585 49.6377 44.4007 49.6377C44.4803 49.6569 44.5616 49.6283 44.6279 49.5578C44.6943 49.4872 44.7408 49.3801 44.7577 49.2583L45.0848 47.7405C45.2001 47.2048 45.3299 46.9057 45.7394 46.9057C46.093 46.9057 46.3871 47.1191 46.3871 47.7405V50.1395H46.1056Z" fill="#F6F2ED"/>
<path d="M46.3898 46.2969H43.7852V45.7612H46.3898V46.2969Z" fill="#F6F2ED"/>
<path d="M46.0483 41.5293C46.29 41.5293 46.3863 41.7141 46.3863 42.0596V43.5238C46.3863 44.8318 45.8095 45.1309 45.084 45.1309C44.3584 45.1309 43.7822 44.8309 43.7822 43.4488V41.6231H44.0643V43.2694C44.0643 44.2773 44.3774 44.5702 45.0846 44.5702C45.7917 44.5702 46.1043 44.2773 46.1043 43.3453V42.3293C46.1043 42.1275 46.0593 42.0614 45.9312 42.0614H45.1509V41.5257L46.0483 41.5293Z" fill="#F6F2ED"/>
<path d="M46.0921 37.2597C46.1352 37.2514 46.1789 37.258 46.22 37.2792C46.2612 37.3003 46.2988 37.3353 46.3301 37.3817C46.3615 37.4282 46.3857 37.4848 46.4011 37.5476C46.4165 37.6103 46.4227 37.6776 46.4192 37.7445C46.4222 37.8542 46.4044 37.9628 46.368 38.0571C46.3317 38.1513 46.2783 38.227 46.2144 38.2748L44.2505 40.1756C44.2056 40.2158 44.1871 40.2497 44.1871 40.2908C44.1871 40.314 44.2021 40.372 44.2615 40.372H46.3898V40.8952H44.0643C44.022 40.9002 43.9795 40.8907 43.9398 40.8673C43.9002 40.844 43.8643 40.8074 43.8348 40.7602C43.8054 40.7129 43.783 40.6562 43.7693 40.5941C43.7556 40.5319 43.751 40.4658 43.7557 40.4006C43.7518 40.2951 43.7675 40.1902 43.8011 40.0982C43.8346 40.0063 43.8845 39.9312 43.9449 39.8819L45.9243 37.965C45.9537 37.9365 45.9878 37.9124 45.9878 37.8552C45.9878 37.7981 45.9474 37.7856 45.9243 37.7856H43.7839V37.2615H46.091L46.0921 37.2597Z" fill="#F6F2ED"/>
<path d="M46.3875 35.9481C46.3941 36.0252 46.3892 36.1036 46.373 36.1772C46.3567 36.2508 46.3297 36.3176 46.294 36.3723C46.2582 36.427 46.2148 36.4681 46.1671 36.4924C46.1194 36.5167 46.0686 36.5235 46.0189 36.5123H44.1508C43.8722 36.5123 43.7822 36.299 43.7822 35.9481V33.4545H44.0643V35.7088C44.0643 35.9338 44.1093 35.9767 44.2373 35.9767H44.9127V33.5126H45.1947V35.9767H45.9237C46.0541 35.9767 46.102 35.9365 46.102 35.7088V33.4331H46.3846V35.9481H46.3875Z" fill="#F6F2ED"/>
<path d="M44.1791 32.8545C43.9005 32.8545 43.7852 32.6411 43.7852 32.2617V30.3948C43.7852 29.6511 44.0903 29.4128 44.5742 29.4128C45.0731 29.4128 45.4036 29.6315 45.4036 30.3288V30.9796H45.422L46.3898 29.3297V30.044L45.4745 31.5876C45.4549 31.6281 45.4302 31.6622 45.402 31.6878C45.3738 31.7134 45.3425 31.73 45.3101 31.7367H45.2524C45.1746 31.7367 45.1221 31.6474 45.1221 31.4948V30.5127C45.1221 30.0234 44.8914 29.977 44.5747 29.977C44.2581 29.977 44.0689 30.0583 44.0689 30.602V32.0313C44.0683 32.2161 44.1058 32.3188 44.2466 32.3188H46.3904V32.8545H44.1791Z" fill="#F6F2ED"/>
<mask id="path-16-inside-1_1709_12019" fill="white">
<rect x="42.8047" y="22.7988" width="31.212" height="97.3148" rx="4"/>
</mask>
<rect x="42.8047" y="22.7988" width="31.212" height="97.3148" rx="4" stroke="#272421" stroke-width="16" mask="url(#path-16-inside-1_1709_12019)"/>
<mask id="path-17-inside-2_1709_12019" fill="white">
<rect x="43.6963" y="68.3301" width="30.3202" height="24.9983" rx="4"/>
</mask>
<rect x="43.6963" y="68.3301" width="30.3202" height="24.9983" rx="4" stroke="#272421" stroke-width="16" mask="url(#path-17-inside-2_1709_12019)"/>
<rect x="19.5186" y="0.75" width="32.1559" height="32.1558" rx="16.0779" fill="url(#paint4_linear_1709_12019)"/>
<rect x="19.5186" y="0.75" width="32.1559" height="32.1558" rx="16.0779" stroke="#F9F4F0" stroke-width="1.5"/>
<path d="M40.7298 12L33.1069 19.323L29.6062 15.7232L27.7686 17.4202L32.1558 21.9331C32.2716 22.0522 32.4106 22.1476 32.5646 22.2137C32.7187 22.2798 32.8847 22.3154 33.053 22.3182H33.0741C33.4064 22.318 33.7253 22.1903 33.9619 21.9628L42.5089 13.7565L40.7298 12Z" fill="#F6F2ED"/>
<defs>
<linearGradient id="paint0_linear_1709_12019" x1="90.6806" y1="20.9412" x2="96.8504" y2="21.4611" gradientUnits="userSpaceOnUse">
<stop stop-color="#846E55"/>
<stop offset="1" stop-color="#B3A55C"/>
</linearGradient>
<linearGradient id="paint1_linear_1709_12019" x1="78.2386" y1="21.7154" x2="102.809" y2="32.727" gradientUnits="userSpaceOnUse">
<stop stop-color="#846E55"/>
<stop offset="1" stop-color="#B3A55C"/>
</linearGradient>
<linearGradient id="paint2_linear_1709_12019" x1="-0.640496" y1="87.2646" x2="65.7602" y2="117.023" gradientUnits="userSpaceOnUse">
<stop stop-color="#846E55"/>
<stop offset="1" stop-color="#B3A55C"/>
</linearGradient>
<linearGradient id="paint3_linear_1709_12019" x1="4.70323" y1="85.7977" x2="39.6064" y2="91.91" gradientUnits="userSpaceOnUse">
<stop stop-color="#846E55"/>
<stop offset="1" stop-color="#B3A55C"/>
</linearGradient>
<linearGradient id="paint4_linear_1709_12019" x1="18.2547" y1="1.5893" x2="71.5033" y2="25.4807" gradientUnits="userSpaceOnUse">
<stop stop-color="#846E55"/>
<stop offset="1" stop-color="#B3A55C"/>
</linearGradient>
</defs>
</svg>
