<svg width="94" height="117" viewBox="0 0 94 117" fill="none" xmlns="http://www.w3.org/2000/svg">
<path opacity="0.4" d="M91.2709 22.5141C91.159 22.4863 91.0619 22.4168 90.9994 22.3197C90.9369 22.2227 90.9138 22.1054 90.9346 21.9919C90.9555 21.8784 91.0188 21.7771 91.1117 21.7087C91.2046 21.6402 91.3201 21.6099 91.4346 21.6237C91.5491 21.6376 91.6539 21.6947 91.7279 21.7833C91.8018 21.8719 91.8392 21.9854 91.8324 22.1006C91.8256 22.2159 91.7752 22.3242 91.6914 22.4035C91.6076 22.4829 91.4968 22.5272 91.3815 22.5275C91.3442 22.5276 91.3071 22.5231 91.2709 22.5141ZM92.6692 20.8562C92.6692 20.7245 92.7082 20.5957 92.7813 20.4862C92.8544 20.3767 92.9583 20.2913 93.0799 20.2409C93.2014 20.1905 93.3352 20.1773 93.4642 20.203C93.5933 20.2287 93.7118 20.2921 93.8049 20.3853C93.8979 20.4784 93.9613 20.5971 93.9869 20.7263C94.0126 20.8555 93.9994 20.9894 93.9491 21.1111C93.8987 21.2328 93.8134 21.3368 93.704 21.41C93.5946 21.4832 93.466 21.5222 93.3344 21.5222C93.158 21.5222 92.9888 21.4521 92.864 21.3272C92.7393 21.2023 92.6692 21.0329 92.6692 20.8562ZM90.7305 5.96348C90.7305 5.7964 90.78 5.63307 90.8727 5.49416C90.9654 5.35525 91.0973 5.247 91.2515 5.1831C91.4057 5.1192 91.5753 5.10253 91.739 5.13519C91.9027 5.16785 92.053 5.24838 92.1709 5.36659C92.2889 5.48479 92.3691 5.63537 92.4016 5.79926C92.434 5.96315 92.4172 6.133 92.3532 6.28731C92.2892 6.44162 92.181 6.57347 92.0421 6.66616C91.9033 6.75886 91.7401 6.80824 91.5732 6.80807C91.4624 6.80807 91.3528 6.78622 91.2505 6.74376C91.1482 6.7013 91.0552 6.63908 90.977 6.56064C90.8987 6.4822 90.8367 6.38909 90.7944 6.28662C90.7521 6.18416 90.7304 6.07435 90.7305 5.96348Z" fill="url(#paint0_linear_516_8908)"/>
<path opacity="0.4" d="M86.2376 21.523C90.5244 21.523 93.9995 18.0439 93.9995 13.7521C93.9995 9.46035 90.5244 5.9812 86.2376 5.9812C81.9507 5.9812 78.4756 9.46035 78.4756 13.7521C78.4756 18.0439 81.9507 21.523 86.2376 21.523Z" fill="url(#paint1_linear_516_8908)"/>
<path opacity="0.4" d="M20.9762 112.281C32.5611 112.281 41.9525 102.879 41.9525 91.2811C41.9525 79.6829 32.5611 70.2808 20.9762 70.2808C9.39139 70.2808 0 79.6829 0 91.2811C0 102.879 9.39139 112.281 20.9762 112.281Z" fill="url(#paint2_linear_516_8908)"/>
<path opacity="0.4" d="M15.1798 115.201C15.1798 114.845 15.2852 114.497 15.4826 114.201C15.6801 113.906 15.9607 113.675 16.2891 113.539C16.6174 113.403 16.9787 113.367 17.3273 113.436C17.6758 113.506 17.996 113.677 18.2473 113.929C18.4986 114.18 18.6698 114.501 18.7391 114.85C18.8084 115.199 18.7728 115.561 18.6368 115.889C18.5008 116.218 18.2705 116.499 17.975 116.697C17.6795 116.894 17.3321 117 16.9767 117C16.5001 117 16.0431 116.81 15.7061 116.473C15.3691 116.136 15.1798 115.678 15.1798 115.201ZM21.465 115.29C21.465 115.047 21.537 114.81 21.6719 114.608C21.8067 114.405 21.9984 114.248 22.2227 114.155C22.447 114.062 22.6937 114.038 22.9318 114.085C23.1698 114.133 23.3885 114.25 23.5601 114.422C23.7316 114.594 23.8484 114.813 23.8957 115.051C23.9429 115.289 23.9185 115.536 23.8255 115.761C23.7325 115.985 23.5751 116.177 23.3731 116.312C23.1712 116.447 22.9339 116.519 22.6912 116.519C22.3657 116.519 22.0536 116.389 21.8235 116.159C21.5934 115.928 21.465 115.616 21.465 115.29ZM4.99219 70.7887C4.99236 70.3374 5.1262 69.8963 5.37676 69.5211C5.62733 69.1459 5.98338 68.8536 6.3999 68.681C6.81641 68.5084 7.27469 68.4634 7.71678 68.5515C8.15888 68.6397 8.56494 68.8571 8.88363 69.1763C9.20231 69.4954 9.41931 69.9021 9.50719 70.3447C9.59507 70.7873 9.54988 71.2461 9.37733 71.663C9.20478 72.08 8.91263 72.4363 8.53781 72.687C8.16299 72.9377 7.72233 73.0715 7.27156 73.0715C6.97215 73.0715 6.67568 73.0125 6.39907 72.8978C6.12247 72.783 5.87115 72.6148 5.65948 72.4029C5.44781 72.1909 5.27993 71.9392 5.16544 71.6622C5.05094 71.3853 4.99207 71.0884 4.99219 70.7887Z" fill="url(#paint3_linear_516_8908)"/>
<path d="M34.5684 5.71098V107.436C34.5684 110.59 35.8595 113.147 37.4522 113.147H77.3756C78.9683 113.147 80.2594 110.59 80.2594 107.436V5.71098C80.2594 2.55675 78.9683 -0.000259399 77.3756 -0.000259399H37.4522C35.8595 -0.000259399 34.5684 2.55675 34.5684 5.71098Z" fill="#F6F2ED"/>
<path d="M35 5.71098V107.436C35 110.117 36.0975 112.291 37.4512 112.291H77.3747C78.7285 112.291 79.8259 110.117 79.8259 107.436V5.71098C79.8259 3.02989 78.7285 0.856438 77.3747 0.856438H37.4512C36.0975 0.856438 35 3.02989 35 5.71098Z" stroke="#272421" stroke-width="1.5"/>
<path d="M46.3898 46.3429H44.3042V47.8401H43.7852V43.8091H44.3042V45.3063H46.3898V46.3429Z" fill="#F6F2ED"/>
<path d="M44.0593 42.9381C43.8551 42.806 43.7542 42.6381 43.7542 42.1435C43.7381 41.9776 43.7598 41.8082 43.8154 41.6643C43.8711 41.5203 43.9573 41.4108 44.0593 41.3543L46.3889 39.8454V40.9347L45.7942 41.2971V42.9935L46.3894 43.3586V44.4407L44.0593 42.9381ZM45.2872 42.7444V41.5489L44.4613 42.0623C44.4209 42.0864 44.3794 42.1024 44.3794 42.1435C44.3794 42.1846 44.4198 42.206 44.4613 42.2328L45.2872 42.7444Z" fill="#F6F2ED"/>
<path d="M46.3894 39.6435H44.1885C44.1345 39.6556 44.0795 39.6483 44.0276 39.6222C43.9757 39.5961 43.9284 39.5518 43.8894 39.4928C43.8504 39.4339 43.8206 39.3618 43.8025 39.2822C43.7843 39.2025 43.7783 39.1175 43.7848 39.0337V36.891C43.7848 35.9982 44.1458 35.8018 44.6666 35.8018C45.1874 35.8018 45.556 35.9982 45.556 36.891V38.6069H46.39V39.6435H46.3894ZM45.0346 37.4258C45.0346 36.9937 44.9262 36.8615 44.666 36.8615C44.4059 36.8615 44.3038 36.9946 44.3038 37.4258V38.3355C44.3038 38.5373 44.3488 38.6034 44.4769 38.6034H45.0317L45.0346 37.4258Z" fill="#F6F2ED"/>
<path d="M46.1056 35.1397V32.8881C46.1056 32.5827 45.9678 32.4613 45.7411 32.4613C45.6033 32.4613 45.4654 32.5068 45.3801 32.9077L45.0375 34.5058C45.005 34.7242 44.9211 34.916 44.8022 35.0437C44.6833 35.1715 44.5379 35.2261 44.3944 35.1968C44.3131 35.2149 44.2302 35.204 44.1521 35.1648C44.074 35.1256 44.0027 35.0593 43.9438 34.9708C43.8848 34.8824 43.8397 34.7742 43.8119 34.6546C43.7842 34.535 43.7745 34.4071 43.7836 34.2808V32.097H44.0656V34.1826C44.0656 34.488 44.1585 34.6379 44.4007 34.6379C44.4803 34.6572 44.5616 34.6286 44.6279 34.558C44.6943 34.4875 44.7408 34.3803 44.7577 34.2585L45.0848 32.7408C45.2001 32.2051 45.3299 31.906 45.7394 31.906C46.093 31.906 46.3871 32.1194 46.3871 32.7408V35.1397H46.1056Z" fill="#F6F2ED"/>
<path d="M46.3898 31.2976H43.7852V30.7619H46.3898V31.2976Z" fill="#F6F2ED"/>
<path d="M46.0483 26.5291C46.29 26.5291 46.3863 26.7139 46.3863 27.0594V28.5236C46.3863 29.8315 45.8095 30.1306 45.084 30.1306C44.3584 30.1306 43.7822 29.8306 43.7822 28.4486V26.6228H44.0643V28.2691C44.0643 29.2771 44.3774 29.5699 45.0846 29.5699C45.7917 29.5699 46.1043 29.2771 46.1043 28.345V27.329C46.1043 27.1272 46.0593 27.0612 45.9312 27.0612H45.1509V26.5255L46.0483 26.5291Z" fill="#F6F2ED"/>
<path d="M46.0921 22.2605C46.1352 22.2521 46.1789 22.2588 46.22 22.2799C46.2612 22.301 46.2988 22.336 46.3301 22.3825C46.3615 22.4289 46.3857 22.4855 46.4011 22.5483C46.4165 22.6111 46.4227 22.6783 46.4192 22.7452C46.4222 22.8549 46.4044 22.9636 46.368 23.0578C46.3317 23.152 46.2783 23.2277 46.2144 23.2756L44.2505 25.1763C44.2056 25.2165 44.1871 25.2504 44.1871 25.2915C44.1871 25.3147 44.2021 25.3727 44.2615 25.3727H46.3898V25.8959H44.0643C44.022 25.9009 43.9795 25.8914 43.9398 25.8681C43.9002 25.8447 43.8643 25.8082 43.8348 25.7609C43.8054 25.7137 43.783 25.657 43.7693 25.5948C43.7556 25.5326 43.751 25.4666 43.7557 25.4013C43.7518 25.2959 43.7675 25.1909 43.8011 25.099C43.8346 25.007 43.8845 24.9319 43.9449 24.8826L45.9243 22.9658C45.9537 22.9372 45.9878 22.9131 45.9878 22.8559C45.9878 22.7988 45.9474 22.7863 45.9243 22.7863H43.7839V22.2622H46.091L46.0921 22.2605Z" fill="#F6F2ED"/>
<path d="M46.3875 20.9483C46.3941 21.0254 46.3892 21.1039 46.373 21.1775C46.3567 21.2511 46.3297 21.3179 46.294 21.3726C46.2582 21.4272 46.2148 21.4684 46.1671 21.4927C46.1194 21.517 46.0686 21.5238 46.0189 21.5126H44.1508C43.8722 21.5126 43.7822 21.2992 43.7822 20.9483V18.4548H44.0643V20.7091C44.0643 20.9341 44.1093 20.9769 44.2373 20.9769H44.9127V18.5128H45.1947V20.9769H45.9237C46.0541 20.9769 46.102 20.9367 46.102 20.7091V18.4333H46.3846V20.9483H46.3875Z" fill="#F6F2ED"/>
<path d="M44.1791 17.855C43.9005 17.855 43.7852 17.6416 43.7852 17.2622V15.3953C43.7852 14.6516 44.0903 14.4132 44.5742 14.4132C45.0731 14.4132 45.4036 14.632 45.4036 15.3293V15.9801H45.422L46.3898 14.3302V15.0445L45.4745 16.5881C45.4549 16.6286 45.4302 16.6627 45.402 16.6883C45.3738 16.7139 45.3425 16.7305 45.3101 16.7372H45.2524C45.1746 16.7372 45.1221 16.6479 45.1221 16.4953V15.5132C45.1221 15.0239 44.8914 14.9775 44.5747 14.9775C44.2581 14.9775 44.0689 15.0587 44.0689 15.6025V17.0318C44.0683 17.2166 44.1058 17.3193 44.2466 17.3193H46.3904V17.855H44.1791Z" fill="#F6F2ED"/>
<mask id="path-16-inside-1_516_8908" fill="white">
<rect x="42.8047" y="7.79834" width="31.212" height="97.3148" rx="4"/>
</mask>
<rect x="42.8047" y="7.79834" width="31.212" height="97.3148" rx="4" stroke="#272421" stroke-width="16" mask="url(#path-16-inside-1_516_8908)"/>
<mask id="path-17-inside-2_516_8908" fill="white">
<rect x="43.6963" y="53.3303" width="30.3202" height="24.9983" rx="4"/>
</mask>
<rect x="43.6963" y="53.3303" width="30.3202" height="24.9983" rx="4" stroke="#272421" stroke-width="16" mask="url(#path-17-inside-2_516_8908)"/>
<defs>
<linearGradient id="paint0_linear_516_8908" x1="90.6806" y1="5.94097" x2="96.8504" y2="6.46084" gradientUnits="userSpaceOnUse">
<stop stop-color="#A58969"/>
<stop offset="1" stop-color="#C7B664"/>
</linearGradient>
<linearGradient id="paint1_linear_516_8908" x1="78.2386" y1="6.71512" x2="102.809" y2="17.7267" gradientUnits="userSpaceOnUse">
<stop stop-color="#A58969"/>
<stop offset="1" stop-color="#C7B664"/>
</linearGradient>
<linearGradient id="paint2_linear_516_8908" x1="-0.640496" y1="72.2641" x2="65.7602" y2="102.022" gradientUnits="userSpaceOnUse">
<stop stop-color="#A58969"/>
<stop offset="1" stop-color="#C7B664"/>
</linearGradient>
<linearGradient id="paint3_linear_516_8908" x1="4.70323" y1="70.7975" x2="39.6064" y2="76.9098" gradientUnits="userSpaceOnUse">
<stop stop-color="#A58969"/>
<stop offset="1" stop-color="#C7B664"/>
</linearGradient>
</defs>
</svg>
