<svg width="35" height="35" viewBox="0 0 35 35" fill="none" xmlns="http://www.w3.org/2000/svg">
<rect width="35" height="35" rx="6" fill="url(#paint0_linear_861_33846)"/>
<path d="M25.7998 10.1504V17.5C25.7998 23.7778 17.4592 27.9705 17.4004 28C17.4004 28 9 23.8 9 17.5V10.1504L17.4004 7L25.7998 10.1504ZM13.8906 15.6807C13.7819 15.6013 13.629 15.6789 13.6289 15.8135V17.0537C13.6289 17.1059 13.6534 17.1555 13.6953 17.1865L16.7354 19.4297C16.863 19.5239 16.7963 19.7263 16.6377 19.7266L13.7939 19.7324C13.7032 19.7326 13.6299 19.8058 13.6299 19.8965V20.8828C13.6299 20.9736 13.7032 21.0477 13.7939 21.0479H21.043C21.1338 21.0479 21.208 20.9737 21.208 20.8828V19.8906C21.208 19.7998 21.1338 19.7256 21.043 19.7256L18.1973 19.7266C18.039 19.7264 17.9727 19.5243 18.0996 19.4297L21.1484 17.1572C21.1901 17.1262 21.2148 17.0774 21.2148 17.0254V15.8193C21.2148 15.685 21.0628 15.6069 20.9541 15.6855L17.5146 18.1855C17.4569 18.2273 17.3789 18.2266 17.3213 18.1846L13.8906 15.6807ZM13.8906 12.8838C13.7819 12.8045 13.6289 12.882 13.6289 13.0166V14.2549C13.6289 14.3083 13.6556 14.3588 13.6992 14.3896L17.2305 16.8818L17.3311 16.9453C17.3844 16.9786 17.4525 16.9786 17.5059 16.9453L17.6074 16.8818L21.1465 14.3604C21.1897 14.3295 21.2158 14.2797 21.2158 14.2266V13.0215C21.2155 12.8873 21.0627 12.8098 20.9541 12.8887L17.5156 15.3887C17.4578 15.4307 17.379 15.4298 17.3213 15.3877L13.8906 12.8838Z" fill="#F6F2ED"/>
<defs>
<linearGradient id="paint0_linear_861_33846" x1="-0.534351" y1="1.65278" x2="54.8409" y2="26.4983" gradientUnits="userSpaceOnUse">
<stop stop-color="#846E55"/>
<stop offset="1" stop-color="#B3A55C"/>
</linearGradient>
</defs>
</svg>
