<svg width="182" height="60" viewBox="0 0 182 60" fill="none" xmlns="http://www.w3.org/2000/svg">
<path fill-rule="evenodd" clip-rule="evenodd" d="M47.2767 30C47.2767 48 23.6384 60 23.6384 60C23.6384 60 0 48 0 30V9L23.6384 0L47.2767 9V30ZM23.1623 28.2337L13.2242 21.1116C13.1013 21.0235 13.0282 20.8803 13.0282 20.7276L13.0282 17.1898C13.0282 16.8053 13.4583 16.5834 13.7642 16.8102L23.4187 23.9656C23.581 24.0859 23.8013 24.0861 23.9638 23.9662L33.6412 16.8249C33.9472 16.599 34.3764 16.821 34.3764 17.2051V20.6466C34.3764 20.7986 34.304 20.9412 34.182 21.0295L24.222 28.2337L23.9375 28.4142C23.7874 28.5094 23.5969 28.5094 23.4467 28.4142L23.1623 28.2337ZM13.4916 36.3767C13.2362 36.3772 13.0294 36.5875 13.0294 36.8468V39.6654C13.0294 39.925 13.2367 40.1354 13.4924 40.1354L33.892 40.1356C34.1477 40.1356 34.355 39.9251 34.355 39.6655V36.8297C34.355 36.5701 34.1477 36.3596 33.892 36.3596L25.8833 36.3599C25.4376 36.3599 25.2493 35.7832 25.6067 35.5129L34.1885 29.0212C34.3058 28.9325 34.3749 28.7927 34.3749 28.6442V25.1964C34.3749 24.8123 33.9458 24.5903 33.6397 24.8162L23.9624 31.9575C23.7998 32.0775 23.5795 32.0772 23.4172 31.9569L13.7628 24.8015C13.4568 24.5747 13.0268 24.7966 13.0268 25.1811V28.7252C13.0268 28.8744 13.0966 29.0148 13.2148 29.1034L21.7689 35.5141C22.128 35.7832 21.9411 36.3616 21.4948 36.3624L13.4916 36.3767Z" fill="#272421"/>
<path d="M64.7211 55.5696V47.2152H67.6949C68.344 47.2152 68.8817 47.3335 69.3081 47.5701C69.7345 47.8067 70.0536 48.1303 70.2654 48.541C70.4772 48.9489 70.5832 49.4085 70.5832 49.9198C70.5832 50.4338 70.4759 50.8961 70.2613 51.3067C70.0495 51.7147 69.729 52.0383 69.2999 52.2776C68.8736 52.5142 68.3372 52.6325 67.6908 52.6325H65.6458V51.5637H67.5768C67.9868 51.5637 68.3195 51.493 68.5748 51.3516C68.8301 51.2075 69.0175 51.0117 69.137 50.7642C69.2565 50.5167 69.3162 50.2352 69.3162 49.9198C69.3162 49.6043 69.2565 49.3242 69.137 49.0794C69.0175 48.8347 68.8287 48.6429 68.5707 48.5043C68.3155 48.3656 67.9787 48.2962 67.5605 48.2962H65.9799V55.5696H64.7211Z" fill="#272421"/>
<path d="M77.662 55.5696V47.2152H80.6358C81.2822 47.2152 81.8186 47.3267 82.2449 47.5497C82.674 47.7727 82.9945 48.0814 83.2063 48.4757C83.4182 48.8673 83.5241 49.3201 83.5241 49.8341C83.5241 50.3454 83.4168 50.7955 83.2023 51.1844C82.9904 51.5705 82.67 51.871 82.2409 52.0859C81.8145 52.3007 81.2781 52.4082 80.6318 52.4082H78.379V51.3231H80.5177C80.9251 51.3231 81.2564 51.2646 81.5117 51.1476C81.7697 51.0307 81.9584 50.8607 82.0779 50.6377C82.1974 50.4147 82.2572 50.1469 82.2572 49.8341C82.2572 49.5186 82.1961 49.2453 82.0738 49.0142C81.9543 48.783 81.7656 48.6062 81.5076 48.4839C81.2523 48.3588 80.9169 48.2962 80.5014 48.2962H78.9208V55.5696H77.662ZM81.7805 51.8003L83.8418 55.5696H82.4079L80.3873 51.8003H81.7805Z" fill="#272421"/>
<path d="M92.1795 47.2152V55.5696H90.9207V47.2152H92.1795Z" fill="#272421"/>
<path d="M100.619 47.2152L102.941 54.0195H103.035L105.357 47.2152H106.717L103.715 55.5696H102.261L99.2583 47.2152H100.619Z" fill="#272421"/>
<path d="M115.132 55.5696H113.796L116.798 47.2152H118.253L121.255 55.5696H119.919L117.56 48.7327H117.495L115.132 55.5696ZM115.356 52.298H119.691V53.3586H115.356V52.298Z" fill="#272421"/>
<path d="M128.334 48.3003V47.2152H134.791V48.3003H132.188V55.5696H130.933V48.3003H128.334Z" fill="#272421"/>
<path d="M141.87 55.5696V47.2152H147.1V48.3003H143.128V50.8458H146.827V51.9268H143.128V54.4845H147.149V55.5696H141.87Z" fill="#272421"/>
<path d="M167.34 28.2021C168.074 28.2021 168.589 28.0304 168.883 27.687C169.177 27.3436 169.348 26.8653 169.397 26.2521C169.471 25.6389 169.507 24.9275 169.507 24.1181V16.4651C169.507 16.0726 169.507 15.6556 169.507 15.2141C169.532 14.748 169.581 14.2942 169.654 13.8527C169.238 13.8773 168.797 13.9018 168.332 13.9263C167.866 13.9263 167.438 13.9386 167.046 13.9631V12.0131H168.295C169.324 12.0131 170.108 11.9027 170.646 11.6819C171.185 11.4612 171.577 11.2281 171.822 10.9829H173.145C173.194 11.3263 173.231 11.8046 173.255 12.4178C173.28 13.031 173.304 13.7178 173.329 14.4782C173.794 13.7914 174.333 13.1782 174.945 12.6385C175.558 12.0744 176.219 11.6206 176.93 11.2772C177.664 10.9338 178.424 10.7621 179.208 10.7621C179.967 10.7621 180.616 10.9706 181.155 11.3876C181.718 11.78 182 12.4301 182 13.3376C182 13.5829 181.927 13.865 181.78 14.1839C181.657 14.5027 181.437 14.7848 181.118 15.0301C180.824 15.2509 180.42 15.3613 179.906 15.3613C179.391 15.3367 178.938 15.1405 178.546 14.7726C178.179 14.4046 178.007 13.9018 178.032 13.264C177.444 13.264 176.856 13.448 176.268 13.8159C175.68 14.1593 175.129 14.6254 174.615 15.2141C174.125 15.8028 173.708 16.4405 173.365 17.1273V25.1851C173.365 25.6266 173.353 26.0804 173.329 26.5464C173.329 26.9879 173.292 27.4417 173.218 27.9078C173.61 27.8832 174.015 27.871 174.431 27.871C174.847 27.8465 175.227 27.8219 175.57 27.7974V29.7474H167.34V28.2021Z" fill="#272421"/>
<path d="M156.984 29.8012C155.316 29.8012 153.815 29.4195 152.481 28.656C151.17 27.8687 150.134 26.7712 149.371 25.3635C148.609 23.932 148.228 22.25 148.228 20.3174C148.228 18.6473 148.597 17.0846 149.336 15.6292C150.098 14.1739 151.158 13.0048 152.516 12.122C153.874 11.2154 155.447 10.7621 157.234 10.7621C158.234 10.7621 159.176 10.9172 160.057 11.2273C160.963 11.5375 161.761 12.0266 162.452 12.6946C163.166 13.3388 163.726 14.1858 164.131 15.2356C164.536 16.2615 164.739 17.5141 164.739 18.9933L152.445 19.208C152.445 20.8304 152.623 22.2738 152.981 23.5384C153.362 24.8029 153.97 25.7811 154.804 26.4729C155.637 27.1648 156.722 27.5108 158.056 27.5108C158.699 27.5108 159.378 27.4034 160.093 27.1887C160.831 26.9501 161.522 26.6161 162.166 26.1867C162.833 25.7572 163.393 25.2442 163.845 24.6478L164.953 25.614C164.239 26.6877 163.417 27.5347 162.487 28.155C161.558 28.7514 160.605 29.169 159.628 29.4076C158.675 29.67 157.794 29.8012 156.984 29.8012ZM152.588 17.3471H160.843C160.843 16.4404 160.712 15.6292 160.45 14.9135C160.212 14.1739 159.831 13.5893 159.307 13.1599C158.782 12.7304 158.115 12.5157 157.305 12.5157C156.042 12.5157 155.006 12.9213 154.196 13.7325C153.386 14.5198 152.85 15.7247 152.588 17.3471Z" fill="#272421"/>
<path d="M126.725 38.3545V36.8514C127.439 36.8514 127.94 36.6844 128.226 36.3504C128.512 36.0164 128.678 35.5511 128.726 34.9547C128.798 34.3582 128.833 33.6663 128.833 32.879L128.869 16.3092C128.869 15.9275 128.881 15.5219 128.905 15.0924C128.929 14.6391 128.964 14.1977 129.012 13.7683C128.607 13.7921 128.178 13.816 127.725 13.8398C127.273 13.8398 126.856 13.8518 126.475 13.8756V11.9789C127.547 11.9789 128.381 11.9312 128.976 11.8357C129.596 11.7164 130.06 11.5852 130.37 11.4421C130.704 11.2989 130.954 11.1438 131.121 10.9768H132.407C132.431 11.2154 132.455 11.5017 132.479 11.8357C132.502 12.1697 132.526 12.5038 132.55 12.8378C133.313 12.1697 134.158 11.6568 135.088 11.2989C136.017 10.941 136.946 10.7621 137.875 10.7621C139.257 10.7621 140.52 11.1319 141.663 11.8715C142.831 12.5873 143.76 13.6132 144.451 14.9493C145.166 16.2853 145.523 17.8719 145.523 19.7091C145.523 21.6893 145.118 23.4429 144.308 24.9699C143.498 26.4968 142.402 27.6897 141.02 28.5486C139.662 29.3837 138.149 29.8012 136.481 29.8012C135.719 29.8012 135.016 29.7058 134.373 29.5149C133.729 29.3479 133.122 29.1093 132.55 28.7992V33.9168C132.55 34.3463 132.538 34.7757 132.514 35.2052C132.514 35.6585 132.491 36.1118 132.443 36.5651C132.824 36.5413 133.205 36.5174 133.587 36.4935C133.992 36.4935 134.361 36.4816 134.694 36.4578V38.3545H126.725ZM136.231 27.9403C137.375 27.9403 138.316 27.6062 139.055 26.9382C139.817 26.2463 140.377 25.3277 140.734 24.1825C141.115 23.0135 141.306 21.7012 141.306 20.2459C141.306 19.0291 141.139 17.8719 140.806 16.7744C140.472 15.6531 139.936 14.7465 139.198 14.0546C138.483 13.3388 137.542 12.9929 136.374 13.0167C135.636 13.0167 134.933 13.1957 134.266 13.5535C133.598 13.9114 133.039 14.3528 132.586 14.8777C132.586 15.1879 132.586 15.5219 132.586 15.8798C132.61 16.2376 132.622 16.6909 132.622 17.2397C132.622 17.7646 132.622 18.4445 132.622 19.2796C132.622 20.0908 132.61 21.1167 132.586 22.3574C132.586 23.5741 132.586 25.0534 132.586 26.795C133.062 27.1529 133.61 27.4392 134.23 27.654C134.873 27.8687 135.54 27.9641 136.231 27.9403Z" fill="#272421"/>
<path d="M116.288 29.8012C114.62 29.8012 113.119 29.4195 111.785 28.656C110.475 27.8687 109.438 26.7712 108.676 25.3635C107.913 23.932 107.532 22.25 107.532 20.3174C107.532 18.6473 107.901 17.0846 108.64 15.6292C109.402 14.1739 110.463 13.0048 111.821 12.122C113.179 11.2154 114.751 10.7621 116.538 10.7621C117.539 10.7621 118.48 10.9172 119.362 11.2273C120.267 11.5375 121.065 12.0266 121.756 12.6946C122.471 13.3388 123.031 14.1858 123.436 15.2356C123.841 16.2615 124.043 17.5141 124.043 18.9933L111.749 19.208C111.749 20.8304 111.928 22.2738 112.285 23.5384C112.667 24.8029 113.274 25.7811 114.108 26.4729C114.942 27.1648 116.026 27.5108 117.36 27.5108C118.003 27.5108 118.683 27.4034 119.397 27.1887C120.136 26.9501 120.827 26.6161 121.47 26.1867C122.137 25.7572 122.697 25.2442 123.15 24.6478L124.258 25.614C123.543 26.6877 122.721 27.5347 121.792 28.155C120.863 28.7514 119.91 29.169 118.933 29.4076C117.98 29.67 117.098 29.8012 116.288 29.8012ZM111.892 17.3471H120.148C120.148 16.4404 120.017 15.6292 119.755 14.9135C119.516 14.1739 119.135 13.5893 118.611 13.1599C118.087 12.7304 117.42 12.5157 116.61 12.5157C115.347 12.5157 114.31 12.9213 113.5 13.7325C112.69 14.5198 112.154 15.7247 111.892 17.3471Z" fill="#272421"/>
<path d="M97.0582 29.8012C95.3903 29.8012 93.8893 29.4195 92.5551 28.656C91.2447 27.8687 90.2082 26.7712 89.4458 25.3635C88.6834 23.932 88.3022 22.25 88.3022 20.3174C88.3022 18.6473 88.6715 17.0846 89.4101 15.6292C90.1725 14.1739 91.2327 13.0048 92.5908 12.122C93.9489 11.2154 95.5214 10.7621 97.3083 10.7621C98.309 10.7621 99.2501 10.9172 100.132 11.2273C101.037 11.5375 101.835 12.0266 102.526 12.6946C103.241 13.3388 103.801 14.1858 104.206 15.2356C104.611 16.2615 104.813 17.5141 104.813 18.9933L92.5193 19.208C92.5193 20.8304 92.698 22.2738 93.0554 23.5384C93.4366 24.8029 94.0442 25.7811 94.8781 26.4729C95.712 27.1648 96.7961 27.5108 98.1303 27.5108C98.7736 27.5108 99.4526 27.4034 100.167 27.1887C100.906 26.9501 101.597 26.6161 102.24 26.1867C102.907 25.7572 103.467 25.2442 103.92 24.6478L105.028 25.614C104.313 26.6877 103.491 27.5347 102.562 28.155C101.633 28.7514 100.68 29.169 99.7028 29.4076C98.7498 29.67 97.8682 29.8012 97.0582 29.8012ZM92.6623 17.3471H100.918C100.918 16.4404 100.787 15.6292 100.525 14.9135C100.287 14.1739 99.9053 13.5893 99.3812 13.1599C98.857 12.7304 98.1899 12.5157 97.3798 12.5157C96.117 12.5157 95.0806 12.9213 94.2705 13.7325C93.4604 14.5198 92.9244 15.7247 92.6623 17.3471Z" fill="#272421"/>
<path d="M64.7211 29.7856V28.1759C65.5248 28.1272 66.0972 27.9564 66.4381 27.6638C66.8035 27.3711 67.0349 26.9321 67.1323 26.3468C67.2297 25.7614 67.2784 25.0176 67.2784 24.1152V8.89648C67.2784 8.35992 67.2906 7.84775 67.3149 7.35997C67.3393 6.84781 67.3636 6.4088 67.388 6.04297C66.974 6.06736 66.5234 6.09175 66.0363 6.11614C65.5492 6.14053 65.1108 6.16491 64.7211 6.1893V4.17722H73.7082V5.78689C72.9289 5.81128 72.3565 5.982 71.9912 6.29906C71.6259 6.59172 71.3945 7.03072 71.2971 7.61606C71.1996 8.177 71.1509 8.92087 71.1509 9.84765V15.701H73.8544L77.8365 9.2989C78.2018 8.73795 78.6159 8.14042 79.0786 7.50631C79.5414 6.87219 79.9798 6.37222 80.3938 6.00639C80.0285 6.03078 79.6388 6.05516 79.2248 6.07955C78.8351 6.07955 78.4819 6.09175 78.1653 6.11614V4.17722H86.3853V5.78689C85.5085 5.83566 84.6926 5.982 83.9375 6.22589C83.2069 6.46978 82.4884 6.89658 81.7821 7.50631C81.0758 8.11603 80.3329 9.05501 79.5536 10.3232L76.0098 15.9937C76.6431 16.3839 77.1667 16.8229 77.5808 17.3107C77.9948 17.7984 78.3967 18.2984 78.7864 18.8106L82.7685 24.1883C83.5478 25.2371 84.2176 26.0541 84.7778 26.6394C85.3623 27.2248 85.9103 27.6272 86.4218 27.8467C86.9333 28.0662 87.4447 28.1759 87.9562 28.1759V29.7856H83.0973C82.8781 29.7856 82.5615 29.6027 82.1474 29.2369C81.7334 28.871 81.2828 28.4076 80.7957 27.8467C80.3329 27.2857 79.8823 26.7248 79.4439 26.1639L75.3157 20.4568C74.9017 19.8959 74.4754 19.3471 74.037 18.8106C73.623 18.274 73.209 17.8838 72.7949 17.6399H71.1509V24.8834C71.1509 25.5419 71.1387 26.1395 71.1144 26.676C71.1144 27.1882 71.09 27.6028 71.0413 27.9199C71.4554 27.8711 71.9059 27.8467 72.3931 27.8467C72.9045 27.8223 73.3429 27.7979 73.7082 27.7735V29.7856H64.7211Z" fill="#272421"/>
</svg>
