<svg width="13" height="24" viewBox="0 0 13 24" fill="none" xmlns="http://www.w3.org/2000/svg">
<path d="M11.9869 8.26001C11.4759 9.62825 10.5564 10.6514 9.29757 11.3572C9.1726 11.4275 9.11884 11.5013 9.12024 11.6533C9.12582 12.2256 9.11116 12.7979 9.11256 13.3702C9.11256 13.5874 9.04553 13.7607 8.88775 13.9105C8.67201 14.1157 8.46884 14.3337 8.24473 14.5609C8.47164 14.7917 8.68877 15.0118 8.9052 15.2326C9.21938 15.5542 9.19215 15.9142 8.83678 16.1897C8.65037 16.3346 8.46814 16.4858 8.26847 16.6463C8.48211 16.9097 8.67899 17.1646 8.88844 17.4082C9.19425 17.7646 9.19425 18.0394 8.88495 18.4008C8.67899 18.6408 8.4835 18.8893 8.26917 19.152C8.44371 19.2947 8.60219 19.4353 8.77255 19.5596C9.01132 19.7335 9.14537 19.9473 9.12862 20.2597C9.11186 20.56 9.12373 20.8625 9.12513 21.1643C9.12652 21.3588 9.06229 21.5179 8.92335 21.6585C8.2182 22.3685 7.51793 23.0849 6.81557 23.7985C6.54887 24.069 6.24237 24.0669 5.97287 23.7935C5.28308 23.0934 4.59747 22.3884 3.90209 21.6932C3.73313 21.5243 3.66611 21.3375 3.66611 21.1018C3.6689 18.4235 3.6682 15.746 3.6682 13.0677C3.6682 12.6054 3.66332 12.1439 3.671 11.6824C3.67309 11.5631 3.63748 11.4978 3.53415 11.4389C1.81595 10.4583 0.779162 8.97573 0.476154 7.00111C0.222019 5.34671 0.606015 3.82794 1.58485 2.47247C1.66724 2.35887 1.74474 2.24242 1.82433 2.12739C2.04704 1.90089 2.26976 1.67439 2.49248 1.44788C2.65306 1.32931 2.81154 1.20647 2.97562 1.09144C3.99425 0.376435 5.12459 0.0079239 6.36106 0.00011346C7.44043 -0.0062769 8.45767 0.257148 9.38834 0.82234C9.70252 1.01334 9.99714 1.23842 10.3008 1.44788C10.5229 1.67439 10.7456 1.90089 10.9683 2.12739C11.1743 2.43626 11.4026 2.73235 11.5813 3.05612C12.5043 4.72472 12.6572 6.46716 11.9869 8.26001Z" fill="#F6F2ED"/>
<circle cx="6.7999" cy="6.4" r="2.4" fill="url(#paint0_linear_266_7160)"/>
<defs>
<linearGradient id="paint0_linear_266_7160" x1="4.32662" y1="4.22667" x2="11.9209" y2="7.63405" gradientUnits="userSpaceOnUse">
<stop stop-color="#A58969"/>
<stop offset="1" stop-color="#C7B664"/>
</linearGradient>
</defs>
</svg>
