<svg width="24" height="19" viewBox="0 0 24 19" fill="none" xmlns="http://www.w3.org/2000/svg">
<path d="M6.08733 2.49205C6.22633 2.35205 6.33033 2.24905 6.42733 2.15405C6.52433 2.05905 6.62733 1.96005 6.72733 1.85405C6.81433 1.76105 6.82733 1.75405 6.83933 1.73605C7.15012 1.42605 7.50826 1.16748 7.90033 0.970055C8.28925 0.774064 8.70512 0.636903 9.13433 0.563055C9.526 0.500614 9.92174 0.46719 10.3183 0.463055C10.5093 0.463055 10.6753 0.456055 10.8293 0.456055C10.9983 0.456055 11.1293 0.456055 11.4293 0.456055H18.1293C18.4293 0.456055 18.5643 0.456055 18.7293 0.456055C18.8943 0.456055 19.0573 0.456055 19.2383 0.463055C19.6404 0.468289 20.0415 0.503385 20.4383 0.568055C20.8633 0.640981 21.2751 0.776451 21.6603 0.970055C22.0515 1.16791 22.4083 1.4272 22.7173 1.73805C23.0264 2.04835 23.2852 2.40497 23.4843 2.79505C23.6777 3.18374 23.8125 3.5989 23.8843 4.02705C23.9471 4.41801 23.9806 4.81311 23.9843 5.20905C23.9843 5.26505 23.9843 5.32205 23.9843 5.38505C23.9843 5.44805 23.9843 5.50405 23.9843 5.62405V13.1321C23.9843 13.1931 23.9843 13.1931 23.9843 13.2561C23.9843 13.4501 23.9843 13.5381 23.9773 13.6371C23.9724 14.0421 23.937 14.4463 23.8713 14.8461C23.7972 15.278 23.6593 15.6966 23.4623 16.0881C23.262 16.4796 23.0018 16.8375 22.6913 17.1491C22.3793 17.4617 22.0195 17.7226 21.6253 17.9221C21.2346 18.1192 20.8167 18.257 20.3853 18.3311C19.9886 18.3964 19.5874 18.4318 19.1853 18.4371C18.9733 18.4371 18.8193 18.4441 18.6653 18.4441H10.8353C10.6673 18.4441 10.4973 18.4441 10.3273 18.4371C9.92523 18.432 9.52409 18.3966 9.12733 18.3311C8.69952 18.2572 8.28502 18.1204 7.89733 17.9251C7.51454 17.7305 7.16462 17.477 6.86033 17.1741C6.83533 17.1511 6.81733 17.1321 6.76833 17.0811C6.63933 16.9551 6.55633 16.8741 6.43133 16.7481C6.33133 16.6531 6.25833 16.5771 6.08733 16.4061L3.81133 14.1261C3.73733 14.0581 3.69733 14.0191 3.62933 13.9521C3.56133 13.8851 3.50133 13.8261 3.39833 13.7231L1.32333 11.6441L1.23233 11.5501L1.13233 11.4501C1.06033 11.3781 1.00633 11.3231 0.97033 11.2841C0.796681 11.1124 0.632442 10.9315 0.47833 10.7421C0.333834 10.5895 0.217083 10.4128 0.13333 10.2201L0.11233 10.1621C-0.0374434 9.69852 -0.0374434 9.19959 0.11233 8.73606L0.13433 8.67805C0.216975 8.48339 0.333061 8.30469 0.47733 8.15005C0.628152 7.96498 0.788712 7.78807 0.95833 7.62005C1.02933 7.54605 1.07933 7.49505 1.14233 7.43105L1.20033 7.37905L1.33233 7.24505L3.40033 5.17305L3.49433 5.08105L3.60033 4.97505C3.66133 4.91405 3.72033 4.85705 3.79133 4.78905C3.80033 4.78205 6.08733 2.49205 6.08733 2.49205Z" fill="#272421"/>
<path d="M17.2086 5.90002L10.9766 12.14L11.8226 12.986L18.0546 6.74602L17.2086 5.90002Z" fill="#F6F2ED"/>
<path d="M18.0518 12.1381L11.8138 5.90308L10.9688 6.75008L17.2077 12.9821L18.0518 12.1381Z" fill="#F6F2ED"/>
</svg>
