<svg width="128" height="132" viewBox="0 0 128 132" fill="none" xmlns="http://www.w3.org/2000/svg">
<path opacity="0.4" d="M114.76 34.3802C114.638 34.3504 114.532 34.2762 114.464 34.1727C114.395 34.0692 114.37 33.9441 114.393 33.8231C114.416 33.702 114.485 33.594 114.587 33.5211C114.688 33.4482 114.815 33.4158 114.94 33.4307C115.065 33.4455 115.18 33.5064 115.261 33.601C115.341 33.6955 115.382 33.8165 115.375 33.9394C115.367 34.0624 115.312 34.1779 115.22 34.2624C115.129 34.347 115.008 34.3942 114.881 34.3945C114.841 34.3946 114.8 34.3898 114.76 34.3802ZM116.288 32.6126C116.288 32.4721 116.331 32.3349 116.411 32.2181C116.491 32.1014 116.604 32.0104 116.737 31.9567C116.87 31.9029 117.016 31.8889 117.157 31.9163C117.298 31.9437 117.428 32.0113 117.529 32.1106C117.631 32.2098 117.7 32.3363 117.728 32.4741C117.756 32.6118 117.742 32.7545 117.687 32.8842C117.632 33.014 117.539 33.1248 117.419 33.2028C117.3 33.2808 117.159 33.3225 117.015 33.3225C116.92 33.3225 116.825 33.3041 116.737 33.2684C116.649 33.2328 116.569 33.1805 116.501 33.1145C116.365 32.9814 116.288 32.8008 116.288 32.6126ZM114.17 16.7418C114.17 16.5638 114.224 16.3899 114.326 16.242C114.427 16.0941 114.571 15.9789 114.74 15.9109C114.908 15.843 115.093 15.8253 115.272 15.8602C115.451 15.8951 115.615 15.981 115.744 16.1069C115.873 16.2329 115.96 16.3933 115.996 16.5679C116.031 16.7425 116.013 16.9234 115.943 17.0878C115.873 17.2521 115.755 17.3926 115.603 17.4913C115.451 17.59 115.273 17.6427 115.091 17.6425C114.97 17.6425 114.85 17.6192 114.738 17.5739C114.626 17.5286 114.525 17.4622 114.439 17.3786C114.353 17.2949 114.286 17.1956 114.24 17.0863C114.193 16.9771 114.17 16.86 114.17 16.7418Z" fill="url(#paint0_linear_1709_12277)"/>
<path opacity="0.4" d="M109.261 33.3219C113.945 33.3219 117.742 29.6143 117.742 25.0408C117.742 20.4673 113.945 16.7598 109.261 16.7598C104.577 16.7598 100.779 20.4673 100.779 25.0408C100.779 29.6143 104.577 33.3219 109.261 33.3219Z" fill="url(#paint1_linear_1709_12277)"/>
<path opacity="0.4" d="M32.9213 126.973C45.5805 126.973 55.8427 116.953 55.8427 104.593C55.8427 92.2327 45.5805 82.2129 32.9213 82.2129C20.2622 82.2129 10 92.2327 10 104.593C10 116.953 20.2622 126.973 32.9213 126.973Z" fill="url(#paint2_linear_1709_12277)"/>
<path opacity="0.4" d="M26.5872 130.083C26.5872 129.704 26.7024 129.333 26.9181 129.018C27.1339 128.703 27.4405 128.457 27.7993 128.312C28.158 128.167 28.5528 128.129 28.9337 128.203C29.3146 128.277 29.6644 128.459 29.939 128.727C30.2136 128.995 30.4006 129.337 30.4763 129.709C30.5521 130.081 30.5132 130.466 30.3646 130.817C30.216 131.167 29.9643 131.466 29.6415 131.677C29.3186 131.888 28.939 132 28.5506 132C28.0299 132 27.5305 131.798 27.1623 131.438C26.7941 131.079 26.5872 130.591 26.5872 130.083ZM33.4545 130.175C33.4545 129.916 33.5331 129.663 33.6805 129.447C33.8279 129.232 34.0374 129.064 34.2824 128.965C34.5275 128.866 34.7972 128.84 35.0573 128.891C35.3175 128.941 35.5564 129.066 35.7439 129.249C35.9314 129.433 36.059 129.666 36.1107 129.92C36.1623 130.174 36.1356 130.437 36.034 130.677C35.9324 130.916 35.7604 131.12 35.5398 131.264C35.3191 131.408 35.0598 131.484 34.7945 131.484C34.439 131.484 34.0982 131.346 33.8469 131.1C33.5956 130.855 33.4545 130.522 33.4545 130.175ZM15.4551 82.7542C15.4551 82.2732 15.6012 81.803 15.8749 81.4031C16.1485 81.0032 16.5376 80.6915 16.9927 80.5074C17.4478 80.3233 17.9487 80.2752 18.4318 80.369C18.915 80.4628 19.3588 80.6945 19.7072 81.0346C20.0555 81.3747 20.2927 81.808 20.3888 82.2798C20.485 82.7516 20.4356 83.2405 20.2471 83.6849C20.0586 84.1293 19.7393 84.5091 19.3297 84.7764C18.9201 85.0436 18.4385 85.1862 17.9459 85.1862C17.2853 85.1862 16.6517 84.93 16.1846 84.4739C15.7175 84.0178 15.4551 83.3992 15.4551 82.7542Z" fill="url(#paint3_linear_1709_12277)"/>
<path d="M44.6309 20.0092L44.6309 122.61C44.6309 125.376 46.5663 127.619 48.9537 127.619H101.626C104.014 127.619 105.949 125.376 105.949 122.61V20.0092C105.949 17.2427 104.014 15 101.626 15H48.9537C46.5663 15 44.6309 17.2427 44.6309 20.0092Z" fill="#F6F2ED"/>
<path d="M45.2793 20.0096L45.2793 122.61C45.2793 124.962 46.9244 126.868 48.9537 126.868H101.626C103.656 126.868 105.301 124.962 105.301 122.61V20.0096C105.301 17.6581 103.656 15.7518 101.626 15.7518H48.9537C46.9244 15.7518 45.2793 17.6581 45.2793 20.0096Z" stroke="#272421" stroke-width="1.5"/>
<path d="M50.6348 26.0743L50.6348 117.887C50.6348 120.273 52.2665 122.207 54.2793 122.207H96.2704C98.2832 122.207 99.915 120.273 99.915 117.887V26.0743C99.915 23.6881 98.2832 21.7538 96.2704 21.7538H54.2793C52.2665 21.7538 50.6348 23.6881 50.6348 26.0743Z" stroke="#272421" stroke-width="1.5" stroke-dasharray="1.5 2"/>
<rect x="56.5957" y="31.7578" width="36.7834" height="80.6083" rx="3" fill="#272421"/>
<rect x="59.8652" y="65.2783" width="30.2441" height="42.2994" rx="3" fill="#F6F2ED"/>
<ellipse cx="75.3966" cy="41.3355" rx="4.90445" ry="4.78861" fill="#F6F2ED"/>
<ellipse cx="75.3966" cy="54.105" rx="4.90445" ry="4.78861" fill="#F6F2ED"/>
<rect x="68.0391" y="67.6729" width="14.7134" height="4.78861" fill="#272421"/>
<rect x="31.5186" y="0.75" width="32.1559" height="32.1558" rx="16.0779" fill="url(#paint4_linear_1709_12277)"/>
<rect x="31.5186" y="0.75" width="32.1559" height="32.1558" rx="16.0779" stroke="#F9F4F0" stroke-width="1.5"/>
<path d="M52.7298 12L45.1069 19.323L41.6062 15.7232L39.7686 17.4202L44.1558 21.9331C44.2716 22.0522 44.4106 22.1476 44.5646 22.2137C44.7187 22.2798 44.8847 22.3154 45.053 22.3182H45.0741C45.4064 22.318 45.7253 22.1903 45.9619 21.9628L54.5089 13.7565L52.7298 12Z" fill="#F6F2ED"/>
<defs>
<linearGradient id="paint0_linear_1709_12277" x1="114.115" y1="16.7188" x2="120.855" y2="17.3011" gradientUnits="userSpaceOnUse">
<stop stop-color="#846E55"/>
<stop offset="1" stop-color="#B3A55C"/>
</linearGradient>
<linearGradient id="paint1_linear_1709_12277" x1="100.52" y1="17.5419" x2="127.14" y2="29.7742" gradientUnits="userSpaceOnUse">
<stop stop-color="#846E55"/>
<stop offset="1" stop-color="#B3A55C"/>
</linearGradient>
<linearGradient id="paint2_linear_1709_12277" x1="9.30011" y1="84.3266" x2="81.2398" y2="117.385" gradientUnits="userSpaceOnUse">
<stop stop-color="#846E55"/>
<stop offset="1" stop-color="#B3A55C"/>
</linearGradient>
<linearGradient id="paint3_linear_1709_12277" x1="15.1393" y1="82.7626" x2="53.2194" y2="89.6002" gradientUnits="userSpaceOnUse">
<stop stop-color="#846E55"/>
<stop offset="1" stop-color="#B3A55C"/>
</linearGradient>
<linearGradient id="paint4_linear_1709_12277" x1="30.2547" y1="1.5893" x2="83.5033" y2="25.4807" gradientUnits="userSpaceOnUse">
<stop stop-color="#846E55"/>
<stop offset="1" stop-color="#B3A55C"/>
</linearGradient>
</defs>
</svg>
