<svg width="304" height="220" viewBox="0 0 304 220" fill="none" xmlns="http://www.w3.org/2000/svg">
<path d="M144.21 220C204.962 220 254.21 170.751 254.21 110C254.21 49.2487 204.962 0 144.21 0C83.4591 0 34.2104 49.2487 34.2104 110C34.2104 170.751 83.4591 220 144.21 220Z" fill="#C3B075" fill-opacity="0.1"/>
<path opacity="0.2" d="M283.976 115.173C285.249 115.173 286.494 114.795 287.553 114.088C288.613 113.38 289.438 112.374 289.925 111.197C290.413 110.021 290.54 108.726 290.292 107.477C290.043 106.227 289.43 105.08 288.529 104.179C287.629 103.279 286.481 102.665 285.232 102.417C283.983 102.168 282.688 102.296 281.511 102.783C280.334 103.271 279.329 104.096 278.621 105.155C277.913 106.214 277.536 107.459 277.536 108.733C277.536 110.441 278.214 112.079 279.422 113.287C280.63 114.494 282.268 115.173 283.976 115.173Z" fill="url(#paint0_linear_861_36883)"/>
<path d="M64.4397 190.531H62.4509V194.391H64.4397V190.531Z" fill="#272421"/>
<path d="M64.4397 201.162H62.4509V205.022H64.4397V201.162Z" fill="#272421"/>
<path d="M70.6938 196.781H66.8342V198.77H70.6938V196.781Z" fill="#272421"/>
<path d="M60.0601 196.781H56.2004V198.77H60.0601V196.781Z" fill="#272421"/>
<path d="M3.94257 54.975C6.11999 54.975 7.88513 53.2098 7.88513 51.0324C7.88513 48.855 6.11999 47.0898 3.94257 47.0898C1.76515 47.0898 0 48.855 0 51.0324C0 53.2098 1.76515 54.975 3.94257 54.975Z" fill="#272421"/>
<path d="M17.9607 113.108C19.6878 113.108 21.0879 111.708 21.0879 109.981C21.0879 108.254 19.6878 106.854 17.9607 106.854C16.2336 106.854 14.8335 108.254 14.8335 109.981C14.8335 111.708 16.2336 113.108 17.9607 113.108Z" fill="#272421"/>
<path d="M299.978 124.949C301.907 124.949 303.472 123.385 303.472 121.455C303.472 119.525 301.907 117.961 299.978 117.961C298.048 117.961 296.484 119.525 296.484 121.455C296.484 123.385 298.048 124.949 299.978 124.949Z" fill="#272421"/>
<path d="M246.088 24.5396C247.815 24.5396 249.216 23.1395 249.216 21.4124C249.216 19.6853 247.815 18.2852 246.088 18.2852C244.361 18.2852 242.961 19.6853 242.961 21.4124C242.961 23.1395 244.361 24.5396 246.088 24.5396Z" fill="#272421"/>
<path d="M94.0632 76.0242C92.2606 76.0083 90.4644 76.2415 88.7256 76.7173C88.372 76.8101 88.0336 76.9181 87.6963 77.0371C87.6712 77.0469 87.644 77.0568 87.6178 77.0688C87.3209 77.1681 87.0403 77.2762 86.7806 77.3962C85.5003 77.9276 84.3013 78.6368 83.2189 79.5029C83.0301 79.648 82.85 79.7965 82.6732 79.9569C82.5859 80.0301 82.5018 80.1043 82.4003 80.1982C82.182 80.4012 81.9637 80.6053 81.7891 80.7941C81.622 80.9611 81.4616 81.1358 81.3077 81.3071C81.2051 81.4163 81.1101 81.5309 81.0217 81.6346C80.9333 81.7383 80.8176 81.8726 80.7237 81.9992C80.5807 82.1694 80.4454 82.3485 80.298 82.5537L80.2544 82.617C80.226 82.6563 80.1987 82.6956 80.1747 82.7327C80.023 82.9346 79.8811 83.1376 79.7676 83.3243C79.701 83.4247 79.6409 83.5186 79.5885 83.6114C79.4704 83.7813 79.3611 83.9573 79.2611 84.1385C79.1814 84.2644 79.1085 84.3945 79.0428 84.5282C78.9216 84.7465 78.807 84.9648 78.699 85.1831C78.6684 85.2366 78.6411 85.2923 78.616 85.3425C78.4948 85.5794 78.3813 85.8228 78.2995 86.0149C78.246 86.124 78.1979 86.2386 78.1499 86.362C78.0338 86.6038 77.9314 86.852 77.8432 87.1053C77.8105 87.176 77.7827 87.249 77.7603 87.3236C77.6631 87.5605 77.578 87.8039 77.5016 88.0473C77.4688 88.127 77.4415 88.2066 77.4153 88.2863C76.2803 91.9034 75.7341 95.6795 75.7977 99.47V107.132H77.9665V99.4635C77.9038 95.9067 78.4124 92.363 79.4728 88.9674C79.4859 88.9303 79.4958 88.8921 79.5132 88.8583C79.5301 88.8206 79.5447 88.782 79.5569 88.7426C79.6235 88.5243 79.6966 88.3125 79.7839 88.104C79.7937 88.08 79.8068 88.044 79.8167 88.0113C79.8393 87.9661 79.8586 87.9194 79.8745 87.8715C79.9441 87.664 80.0273 87.4613 80.1234 87.2647C80.1365 87.2385 80.1507 87.2024 80.1616 87.1762C80.1867 87.1108 80.2107 87.0453 80.2707 86.9307C80.3613 86.7222 80.4585 86.5126 80.5917 86.2539C80.6091 86.2255 80.6244 86.1972 80.6386 86.1677C80.7357 85.9658 80.8405 85.7627 80.9519 85.5684C80.966 85.5433 80.9791 85.5182 80.9911 85.492C81.0275 85.4166 81.0687 85.3437 81.1145 85.2737C81.1287 85.2519 81.1418 85.229 81.1549 85.2071C81.2262 85.0719 81.306 84.9414 81.3939 84.8164C81.4201 84.7796 81.4442 84.7413 81.466 84.7018C81.4965 84.645 81.5347 84.5926 81.5991 84.4911C81.7083 84.3187 81.8174 84.1636 81.9364 84.0021C81.955 83.9781 82.0095 83.9006 82.0248 83.8744L82.0903 83.7794C82.1885 83.6419 82.2933 83.5033 82.4047 83.3723C82.421 83.3537 82.4374 83.333 82.4527 83.3123C82.5215 83.2184 82.5968 83.1333 82.6786 83.0372C82.7605 82.9412 82.8304 82.8582 82.9155 82.7643C83.0508 82.6148 83.1862 82.4663 83.3586 82.2917C83.5311 82.1171 83.7003 81.95 83.876 81.7885C83.9459 81.7252 84.0103 81.6674 84.0801 81.6095C84.102 81.592 84.1227 81.5735 84.1435 81.5538C84.2773 81.4294 84.4175 81.312 84.5637 81.2024C85.4982 80.454 86.5342 79.8421 87.6407 79.385C87.871 79.2824 88.1024 79.1951 88.3524 79.1121C88.3764 79.1034 88.4146 79.0892 88.4528 79.0728C88.7224 78.9789 88.9985 78.8916 89.2987 78.8108C90.8516 78.3867 92.4557 78.1795 94.0654 78.1952H95.5651V76.0264H94.0643L94.0632 76.0242Z" fill="#272421"/>
<path d="M113.086 76.0234H111.578V78.1923H113.086C119.089 78.1923 129.173 80.9549 129.173 99.4594V106.951H131.341V99.4594C131.347 84.5711 124.693 76.0234 113.086 76.0234Z" fill="#272421"/>
<path d="M102.743 86.7173L100.63 86.2305L96.9342 102.257C96.8699 102.536 96.9186 102.829 97.0695 103.073L99.8911 107.619L101.734 106.475L99.1478 102.309L102.743 86.7173Z" fill="#272421"/>
<path d="M110.37 102.663L105.738 84.0974C105.68 83.8627 105.544 83.6543 105.354 83.5054C105.163 83.3565 104.928 83.2756 104.686 83.2755H102.044L95.1486 81.0433V78.1923H104.123V76.0234H94.0647C93.9222 76.0233 93.781 76.0513 93.6493 76.1057C93.5176 76.1602 93.398 76.2401 93.2972 76.3409C93.1964 76.4417 93.1165 76.5613 93.062 76.693C93.0076 76.8247 92.9796 76.9659 92.9797 77.1084V81.8325C92.9797 82.0618 93.0524 82.2851 93.1874 82.4705C93.3223 82.6558 93.5125 82.7936 93.7307 82.864L101.539 85.392C101.647 85.4274 101.76 85.4455 101.873 85.4454H103.838L108.147 102.72L105.663 106.431L107.465 107.638L110.219 103.526C110.303 103.401 110.359 103.259 110.385 103.111C110.411 102.962 110.406 102.81 110.37 102.663Z" fill="#272421"/>
<path d="M110.4 72.8828H108.231V77.1146H110.4V72.8828Z" fill="#272421"/>
<path d="M98.0587 72.7832H95.8899V77.1176H98.0587V72.7832Z" fill="#272421"/>
<path d="M114.936 56.0116C112.317 55.0947 108.028 52.8615 107.682 50.7723C107.651 50.5846 107.572 50.4083 107.451 50.2611C107.331 50.1139 107.174 50.0009 106.996 49.9335C106.818 49.8662 106.626 49.8468 106.438 49.8774C106.25 49.9079 106.074 49.9873 105.927 50.1076C101.788 53.0241 96.8801 54.6528 91.8189 54.7891C91.5394 54.8009 91.2752 54.9203 91.0816 55.1223C90.8879 55.3242 90.7798 55.5932 90.7798 55.873V64.6051C90.7838 67.0605 91.761 69.4141 93.4972 71.1503C95.2334 72.8865 97.587 73.8637 100.042 73.8678H106.399C108.855 73.8637 111.208 72.8865 112.945 71.1503C114.681 69.4141 115.658 67.0605 115.662 64.6051V57.0398C115.663 56.8142 115.594 56.5939 115.464 56.4096C115.334 56.2252 115.149 56.0861 114.936 56.0116ZM113.494 64.6008C113.492 66.4818 112.744 68.2852 111.414 69.6154C110.084 70.9455 108.28 71.6936 106.399 71.6956H100.042C98.1613 71.6939 96.3577 70.9458 95.0275 69.6157C93.6973 68.2855 92.9493 66.4819 92.9475 64.6008V56.8914C97.617 56.5678 102.136 55.1031 106.107 52.6257C107.662 55.2617 111.752 57.1009 113.492 57.7864V64.6008H113.494Z" fill="#272421"/>
<path d="M105.467 56.1934C102.412 57.7666 99.1245 58.838 95.7295 59.3664V64.6057C95.7306 65.7491 96.1854 66.8454 96.9939 67.6539C97.8024 68.4624 98.8987 68.9171 100.042 68.9183H106.399C107.542 68.9171 108.639 68.4624 109.447 67.6539C110.256 66.8454 110.711 65.7491 110.712 64.6057V59.6284C108.794 58.7653 107.024 57.6061 105.467 56.1934Z" fill="#272421"/>
<path d="M109.995 43.5791C109.728 42.9102 109.308 42.3132 108.768 41.8361C108.228 41.359 107.584 41.015 106.888 40.8317C103.301 40.0988 99.5859 40.3155 96.1091 41.4605C89.3919 43.6948 89.4508 49.148 89.501 54.4223C89.501 54.9123 89.5108 55.4046 89.5108 55.9045C89.5107 56.047 89.5387 56.1882 89.5931 56.3199C89.6476 56.4516 89.7275 56.5713 89.8283 56.672C89.9291 56.7728 90.0487 56.8527 90.1804 56.9072C90.3121 56.9617 90.4533 56.9896 90.5958 56.9895C96.5766 57.0961 102.433 55.2731 107.296 51.7906C107.394 51.7107 107.477 51.6143 107.542 51.5057L109.66 47.9539C110.05 47.2998 110.282 46.5647 110.34 45.8058C110.399 45.0469 110.28 44.2848 109.995 43.5791ZM107.798 46.8417L105.785 50.2144C101.619 53.0662 96.7199 54.6578 91.6732 54.7988C91.6732 54.6657 91.6732 54.5321 91.6732 54.3982C91.6208 49.2888 91.5793 45.2524 96.7967 43.5169C98.7931 42.8776 100.876 42.5514 102.973 42.5498C104.106 42.5341 105.236 42.6613 106.338 42.9286C106.71 43.0249 107.054 43.2083 107.342 43.4638C107.629 43.7192 107.852 44.0393 107.991 44.3977C108.15 44.7923 108.215 45.2183 108.182 45.6422C108.148 46.0662 108.018 46.4767 107.799 46.8417H107.798Z" fill="#272421"/>
<path d="M115.787 43.7898C115.228 43.379 114.586 43.0952 113.906 42.9586C113.226 42.8219 112.524 42.8355 111.85 42.9985C109.635 43.4165 108.216 46.0089 107.992 46.4444L105.676 50.3979C105.55 50.614 105.502 50.8668 105.541 51.1139C106.215 55.3982 114.709 58.2437 115.674 58.5537C115.78 58.5881 115.891 58.6058 116.002 58.6061C116.144 58.6061 116.285 58.5781 116.417 58.5235C116.548 58.469 116.668 58.389 116.769 58.2883C116.869 58.1875 116.949 58.0679 117.003 57.9363C117.058 57.8046 117.086 57.6636 117.086 57.5212V46.8701C117.118 46.2916 117.018 45.7133 116.793 45.1794C116.568 44.6455 116.224 44.1702 115.787 43.7898ZM114.921 55.9865C112.018 54.8633 108.431 52.9488 107.771 51.1139L109.879 47.5119C109.89 47.4934 109.902 47.4726 109.911 47.4541C110.186 46.9083 111.206 45.3267 112.252 45.128C112.614 45.03 112.992 45.0084 113.362 45.0648C113.732 45.1212 114.087 45.2543 114.403 45.4555C114.59 45.6361 114.734 45.857 114.824 46.1015C114.914 46.346 114.947 46.6077 114.921 46.8668V55.9821V55.9865Z" fill="#272421"/>
<path d="M193.442 76.0234H191.935V78.1923H193.442C199.446 78.1923 209.529 80.9549 209.529 99.4594V106.68H211.698V99.4594C211.698 84.5711 205.044 76.0234 193.442 76.0234Z" fill="#272421"/>
<path d="M174.408 76.0256C170.464 75.9396 166.609 77.2035 163.481 79.608C158.618 83.4752 156.151 90.1553 156.151 99.4616V106.861H158.318V99.4616C158.318 90.8495 160.508 84.7403 164.828 81.3053C167.565 79.1935 170.949 78.0943 174.405 78.1944H175.913V76.0256H174.408Z" fill="#272421"/>
<path d="M190.721 102.666L186.082 84.1007C186.023 83.866 185.888 83.6576 185.697 83.5087C185.507 83.3598 185.272 83.2789 185.03 83.2788H182.394L175.491 81.0455V78.1955H184.473V76.0234H174.407C174.12 76.0237 173.844 76.1382 173.641 76.3416C173.437 76.545 173.323 76.8208 173.323 77.1084V81.8325C173.323 82.0617 173.396 82.2851 173.531 82.4704C173.666 82.6558 173.856 82.7936 174.074 82.864L181.892 85.3919C181.999 85.4273 182.112 85.4454 182.226 85.4454H184.19L188.506 102.719L186.201 106.154L188.001 107.362L190.569 103.53C190.653 103.404 190.71 103.263 190.736 103.114C190.762 102.965 190.757 102.813 190.721 102.666Z" fill="#272421"/>
<path d="M183.097 86.7195L180.984 86.2305L177.28 102.257C177.216 102.537 177.264 102.83 177.416 103.074L180.076 107.357L181.918 106.213L179.494 102.31L183.097 86.7195Z" fill="#272421"/>
<path d="M190.75 72.8848H188.581V77.1155H190.75V72.8848Z" fill="#272421"/>
<path d="M178.407 72.7832H176.238V77.1176H178.407V72.7832Z" fill="#272421"/>
<path d="M195.282 56.0108C192.662 55.0939 188.374 52.8607 188.028 50.7715C187.997 50.584 187.917 50.4079 187.797 50.2609C187.677 50.1138 187.52 50.0009 187.342 49.9336C187.165 49.8663 186.972 49.8468 186.785 49.8772C186.597 49.9076 186.421 49.9868 186.274 50.1068C182.135 53.0232 177.226 54.6519 172.165 54.7883C171.885 54.8001 171.621 54.9195 171.427 55.1215C171.234 55.3234 171.126 55.5924 171.125 55.8722V64.6043C171.13 67.0597 172.107 69.4133 173.843 71.1495C175.579 72.8858 177.933 73.8629 180.388 73.867H186.745C189.2 73.8629 191.554 72.8859 193.29 71.1499C195.026 69.414 196.003 67.0606 196.008 64.6054V57.039C196.009 56.8134 195.939 56.5932 195.809 56.4089C195.679 56.2246 195.495 56.0855 195.282 56.0108ZM193.84 64.6011C193.838 66.4822 193.09 68.2858 191.76 69.616C190.43 70.9462 188.626 71.6942 186.745 71.6959H180.388C178.507 71.6939 176.704 70.9458 175.374 69.6157C174.043 68.2856 173.295 66.4821 173.293 64.6011V56.8917C177.963 56.5681 182.481 55.1034 186.453 52.626C188.009 55.262 192.098 57.1012 193.838 57.7867V64.6022L193.84 64.6011Z" fill="#272421"/>
<path d="M185.815 56.1934C182.761 57.7666 179.473 58.838 176.078 59.3664V64.6057C176.079 65.7491 176.534 66.8454 177.342 67.6539C178.151 68.4624 179.247 68.9171 180.39 68.9183H186.747C187.891 68.9171 188.987 68.4624 189.795 67.6539C190.604 66.8454 191.059 65.7491 191.06 64.6057V59.6284C189.142 58.7653 187.372 57.6062 185.815 56.1934Z" fill="#272421"/>
<path d="M190.347 43.5771C190.079 42.9083 189.659 42.3116 189.119 41.8346C188.58 41.3577 187.936 41.0139 187.239 40.8308C183.653 40.0967 179.937 40.313 176.46 41.4585C169.742 43.6928 169.802 49.1471 169.853 54.4213C169.853 54.9114 169.863 55.4037 169.863 55.9036C169.863 56.1914 169.977 56.4673 170.181 56.6708C170.384 56.8743 170.66 56.9886 170.948 56.9886C176.929 57.0951 182.785 55.2721 187.648 51.7897C187.747 51.7097 187.83 51.6133 187.895 51.5048L190.015 47.953C190.403 47.2984 190.635 46.5629 190.693 45.8039C190.751 45.0448 190.632 44.2828 190.347 43.5771ZM188.149 46.8407L186.137 50.2135C181.97 53.0652 177.071 54.6567 172.024 54.7979C172.024 54.6647 172.024 54.5316 172.024 54.3984C171.971 49.2879 171.931 45.2515 177.148 43.5149C179.144 42.876 181.226 42.5501 183.322 42.5489C184.456 42.5332 185.587 42.6604 186.689 42.9276C187.061 43.0238 187.405 43.2071 187.692 43.4624C187.98 43.7176 188.202 44.0375 188.342 44.3957C188.5 44.7905 188.565 45.2167 188.532 45.6409C188.498 46.0651 188.367 46.4757 188.148 46.8407H188.149Z" fill="#272421"/>
<path d="M109.978 154.422C110.648 154.86 111.362 155.226 112.108 155.513L112.887 153.49C112.284 153.257 111.706 152.961 111.164 152.608L109.978 154.422ZM114.757 153.985L114.419 156.127C115.006 156.219 115.599 156.265 116.194 156.265H116.75V154.096H116.194C115.713 154.098 115.232 154.061 114.757 153.987V153.985ZM118.687 153.901L119.13 156.025C119.913 155.861 120.676 155.615 121.408 155.291L120.528 153.308C119.935 153.572 119.316 153.772 118.681 153.904L118.687 153.901ZM106.631 151.045C107.064 151.716 107.566 152.341 108.129 152.908L109.667 151.38C109.211 150.921 108.804 150.415 108.454 149.871L106.631 151.045ZM105.061 137.537L103.173 138.606C103.501 139.185 103.784 139.79 104.018 140.414L106.049 139.65C105.774 138.922 105.441 138.216 105.056 137.539L105.061 137.537ZM106.698 141.903L104.572 142.34C104.705 142.993 104.786 143.656 104.816 144.322L106.982 144.226C106.944 143.446 106.846 142.669 106.687 141.904L106.698 141.903ZM107.1 146.269L104.955 146.597C105.074 147.387 105.276 148.164 105.559 148.912L107.588 148.148C107.355 147.542 107.187 146.913 107.088 146.271L107.1 146.269ZM124.783 149.473L126.662 150.555C127.061 149.861 127.386 149.127 127.63 148.365L125.565 147.702C125.365 148.32 125.1 148.914 124.774 149.476L124.783 149.473ZM131.244 133.522L132.654 135.172C133.161 134.739 133.701 134.346 134.269 133.996L133.133 132.149C132.466 132.556 131.831 133.015 131.236 133.52L131.244 133.522ZM122.208 152.34L123.485 154.092C124.131 153.622 124.725 153.085 125.26 152.491L123.646 151.04C123.21 151.524 122.725 151.961 122.198 152.344L122.208 152.34ZM135.214 131.083L136.046 133.087C136.662 132.831 137.297 132.624 137.945 132.468L137.438 130.359C136.676 130.542 135.929 130.786 135.206 131.086L135.214 131.083ZM128.218 137.055L130.063 138.194C130.414 137.627 130.808 137.088 131.241 136.581L129.595 135.17C129.084 135.762 128.62 136.394 128.208 137.059L128.218 137.055ZM126.423 141.353L128.531 141.864C128.688 141.217 128.896 140.583 129.153 139.969L127.151 139.133C126.847 139.853 126.601 140.597 126.414 141.356L126.423 141.353ZM102.167 133.889L100.69 135.485C101.18 135.937 101.635 136.427 102.051 136.949L103.749 135.599C103.264 134.99 102.732 134.419 102.159 133.892L102.167 133.889ZM126.002 144.888C126.002 145.196 125.987 145.505 125.956 145.805L128.114 146.024C128.151 145.651 128.17 145.27 128.17 144.892C128.17 144.538 128.184 144.187 128.212 143.839L126.051 143.663C126.011 144.069 125.993 144.482 125.993 144.893L126.002 144.888ZM66.0088 154.095C65.442 154.096 64.8764 154.044 64.3191 153.941L63.9229 156.073C64.6108 156.201 65.3091 156.265 66.0088 156.264H66.3045L66.2533 154.095H66.0088ZM68.17 153.841L68.6786 155.95C69.456 155.762 70.2114 155.493 70.9326 155.148L69.9939 153.192C69.4077 153.473 68.7934 153.693 68.1612 153.845L68.17 153.841ZM74.1296 149.233L76.0409 150.258C76.4192 149.553 76.7214 148.81 76.9425 148.041L74.8588 147.44C74.6779 148.064 74.431 148.667 74.122 149.238L74.1296 149.233ZM139.742 129.991L139.915 132.153C140.255 132.125 140.599 132.111 140.946 132.112H141.996V129.943H140.946C140.534 129.948 140.128 129.964 139.734 129.996L139.742 129.991ZM71.6323 152.176L72.9595 153.892C73.5918 153.403 74.1709 152.849 74.6874 152.239L73.0316 150.838C72.6129 151.332 72.1439 151.78 71.6323 152.176ZM56.8607 146.017L54.7083 146.281C54.8051 147.075 54.9855 147.856 55.2464 148.612L57.2962 147.903C57.0852 147.292 56.9392 146.659 56.8607 146.017ZM59.5208 154.244C60.1781 154.7 60.8817 155.086 61.6198 155.394L62.4548 153.391C61.8576 153.142 61.2886 152.831 60.7574 152.461L59.5208 154.244ZM56.2648 150.778C56.6787 151.462 57.1635 152.101 57.711 152.683L59.2915 151.197C58.8485 150.726 58.4559 150.209 58.1203 149.655L56.2648 150.778ZM93.5445 132.203C94.2063 132.281 94.861 132.411 95.5027 132.591L96.0899 130.503C95.3387 130.293 94.5724 130.142 93.7977 130.05L93.5445 132.203ZM89.2767 129.973L89.4022 132.137C89.6496 132.123 89.8992 132.117 90.151 132.117H91.5077V129.948H90.151C89.8584 129.948 89.5677 129.956 89.2788 129.973H89.2767ZM97.3757 133.28C97.9823 133.559 98.5662 133.884 99.1222 134.254L100.323 132.449C99.6743 132.017 98.9929 131.637 98.285 131.311L97.3757 133.28ZM84.725 130.962L85.5109 132.984C86.1328 132.743 86.7725 132.55 87.4243 132.408L86.9637 130.288C86.2018 130.455 85.4541 130.68 84.7272 130.963L84.725 130.962ZM77.5963 136.781L79.417 137.959C79.7795 137.4 80.185 136.869 80.6296 136.372L79.0142 134.925C78.4948 135.506 78.0215 136.127 77.5985 136.782L77.5963 136.781ZM80.7006 133.313L82.0737 134.992C82.589 134.57 83.1364 134.189 83.711 133.852L82.6195 131.98C81.947 132.374 81.3065 132.82 80.7039 133.314L80.7006 133.313ZM75.7069 141.038L77.8026 141.595C77.9742 140.952 78.1961 140.322 78.4663 139.714L76.4841 138.834C76.169 139.547 75.9103 140.285 75.7102 141.039L75.7069 141.038ZM75.2059 144.892C75.2059 145.11 75.1982 145.326 75.183 145.539L77.3475 145.685C77.3656 145.423 77.3747 145.158 77.3747 144.891C77.3747 144.445 77.3976 144.001 77.4435 143.558L75.2856 143.34C75.2329 143.856 75.2067 144.374 75.207 144.893L75.2059 144.892ZM185.686 131.217L186.559 133.202C187.169 132.932 187.798 132.711 188.442 132.541L187.889 130.444C187.135 130.644 186.399 130.902 185.686 131.217ZM208.591 145.726L206.43 145.919C206.502 146.716 206.658 147.503 206.894 148.267L208.968 147.624C208.776 147.006 208.649 146.37 208.591 145.726ZM203.23 133.456L201.832 135.114C202.34 135.544 202.815 136.013 203.251 136.516L204.888 135.097C204.379 134.509 203.826 133.96 203.233 133.456H203.23ZM208.108 141.257L206.005 141.785C206.165 142.431 206.275 143.087 206.332 143.75L208.492 143.559C208.426 142.783 208.299 142.013 208.111 141.257H208.108ZM198.427 133.057C199.044 133.309 199.64 133.608 200.21 133.953L201.333 132.097C200.666 131.693 199.968 131.343 199.246 131.048L198.427 133.057ZM190.191 130.027L190.409 132.185C190.844 132.141 191.282 132.119 191.719 132.119H192.462V129.95H191.719C191.209 129.95 190.699 129.976 190.191 130.027ZM194.557 132.153C195.222 132.201 195.881 132.301 196.53 132.453L197.024 130.341C196.264 130.164 195.492 130.046 194.714 129.989L194.557 132.153ZM206.289 136.972L204.45 138.122C204.804 138.687 205.113 139.279 205.375 139.891L207.37 139.042C207.063 138.325 206.701 137.632 206.286 136.971L206.289 136.972ZM223.44 152.897L224.515 154.781C225.209 154.385 225.86 153.917 226.457 153.385L225.012 151.766C224.528 152.197 223.999 152.576 223.435 152.896L223.44 152.897ZM226.316 150.331L228.062 151.612C228.534 150.968 228.936 150.275 229.263 149.546L227.285 148.657C227.021 149.247 226.695 149.808 226.314 150.33L226.316 150.331ZM228.093 144.893C228.093 145.541 228.026 146.187 227.892 146.82L230.013 147.27C230.178 146.489 230.262 145.692 230.262 144.893H228.093ZM215.322 156.006C216.103 156.176 216.899 156.264 217.698 156.269L217.711 154.1C217.063 154.095 216.418 154.021 215.785 153.881L215.322 156.006ZM210.991 154.032C211.633 154.509 212.324 154.916 213.052 155.248L213.95 153.273C213.361 153.005 212.803 152.676 212.283 152.291L210.991 154.032ZM207.843 150.466C208.236 151.161 208.7 151.814 209.228 152.413L210.854 150.98C210.426 150.494 210.05 149.964 209.731 149.4L207.843 150.466ZM219.767 154.057L219.974 156.216C220.77 156.14 221.555 155.98 222.318 155.739L221.663 153.665C221.047 153.862 220.411 153.994 219.768 154.058L219.767 154.057ZM152.697 133.671L151.264 135.299C151.765 135.74 152.23 136.219 152.657 136.732L154.325 135.345C153.827 134.746 153.283 134.187 152.698 133.672L152.697 133.671ZM160.481 154.23C161.137 154.688 161.84 155.075 162.578 155.384L163.416 153.385C162.82 153.134 162.252 152.821 161.722 152.452L160.481 154.23ZM157.398 141.581L155.283 142.059C155.43 142.709 155.526 143.37 155.57 144.035L157.735 143.891C157.682 143.113 157.57 142.341 157.398 141.581ZM157.226 150.761C157.639 151.445 158.122 152.083 158.668 152.667L160.253 151.185C159.81 150.712 159.418 150.194 159.083 149.64L157.226 150.761ZM157.835 146.001L155.681 146.257C155.777 147.051 155.955 147.833 156.215 148.59L158.267 147.885C158.057 147.274 157.912 146.642 157.835 146.001ZM147.902 133.167C148.513 133.432 149.103 133.745 149.666 134.102L150.828 132.27C150.17 131.854 149.481 131.489 148.767 131.179L147.902 133.167ZM144.048 132.174C144.711 132.237 145.368 132.352 146.013 132.518L146.558 130.417C145.803 130.223 145.034 130.089 144.258 130.014L144.048 132.174ZM181.772 133.739L183.216 135.357C183.714 134.913 184.246 134.508 184.806 134.146L183.629 132.324C182.974 132.747 182.354 133.22 181.772 133.739ZM155.675 137.248L153.813 138.359C154.154 138.931 154.449 139.529 154.696 140.148L156.711 139.345C156.42 138.621 156.073 137.922 155.674 137.252L155.675 137.248ZM177.126 141.676L179.245 142.141C179.388 141.491 179.582 140.852 179.825 140.232L177.805 139.441C177.52 140.168 177.292 140.916 177.125 141.679L177.126 141.676ZM178.824 137.342L180.695 138.433C181.032 137.859 181.413 137.311 181.835 136.796L180.158 135.422C179.663 136.025 179.217 136.667 178.823 137.341L178.824 137.342ZM176.78 144.888C176.781 145.287 176.755 145.684 176.704 146.079L178.854 146.358C178.918 145.87 178.949 145.379 178.949 144.887C178.949 144.628 178.957 144.371 178.972 144.117L176.808 143.99C176.789 144.287 176.779 144.588 176.779 144.893L176.78 144.888ZM172.76 152.496L173.983 154.289C174.643 153.838 175.254 153.319 175.806 152.741L174.237 151.244C173.79 151.713 173.294 152.134 172.759 152.5L172.76 152.496ZM169.198 153.954L169.578 156.089C170.365 155.948 171.136 155.725 171.876 155.423L171.055 153.415C170.457 153.661 169.834 153.842 169.197 153.957L169.198 153.954ZM175.419 149.707L177.265 150.846C177.685 150.165 178.031 149.441 178.299 148.687L176.254 147.962C176.038 148.573 175.758 149.159 175.418 149.711L175.419 149.707ZM165.268 153.937L164.869 156.069C165.564 156.198 166.269 156.263 166.976 156.263H167.225V154.094H166.976C166.404 154.096 165.833 154.045 165.27 153.941L165.268 153.937Z" fill="url(#paint1_linear_861_36883)"/>
<path d="M196.135 43.7921C195.577 43.381 194.935 43.0971 194.255 42.9604C193.575 42.8237 192.873 42.8375 192.199 43.0008C189.985 43.4188 188.566 46.0101 188.341 46.4467L186.025 50.4002C185.898 50.6159 185.85 50.8691 185.889 51.1162C186.564 55.4004 195.058 58.246 196.023 58.556C196.129 58.5904 196.239 58.6081 196.35 58.6084C196.493 58.6084 196.634 58.5803 196.765 58.5258C196.897 58.4713 197.016 58.3913 197.117 58.2906C197.218 58.1898 197.298 58.0702 197.352 57.9386C197.406 57.8069 197.434 57.6659 197.434 57.5234V46.8735C197.467 46.2948 197.367 45.7163 197.142 45.1821C196.917 44.648 196.573 44.1726 196.135 43.7921ZM195.27 55.9888C192.366 54.8667 188.778 52.9511 188.118 51.1162L190.227 47.5142C190.238 47.4957 190.25 47.4749 190.26 47.4564C190.535 46.9106 191.554 45.329 192.601 45.1303C192.962 45.0323 193.34 45.0108 193.711 45.0672C194.081 45.1236 194.435 45.2566 194.751 45.4578C194.939 45.6386 195.083 45.8596 195.173 46.1043C195.263 46.349 195.296 46.6109 195.27 46.8702V55.9844V55.9888Z" fill="#272421"/>
<path d="M229.943 105.877C229.844 105.774 229.726 105.693 229.594 105.638C229.463 105.584 229.321 105.557 229.179 105.561L55.7122 106.138C55.4252 106.139 55.1504 106.254 54.9478 106.458C54.7453 106.661 54.6316 106.936 54.6316 107.223V165.244C54.6314 165.387 54.6594 165.528 54.7139 165.659C54.7684 165.791 54.8483 165.911 54.9491 166.012C55.0498 166.112 55.1695 166.192 55.3012 166.247C55.4329 166.301 55.574 166.329 55.7166 166.329L229.183 165.752C229.47 165.75 229.745 165.636 229.947 165.432C230.15 165.229 230.264 164.954 230.264 164.667V106.646C230.263 106.503 230.235 106.361 230.18 106.23C230.125 106.098 230.044 105.978 229.943 105.877ZM228.092 163.586L56.795 164.157V108.305L228.092 107.734V163.586Z" fill="#272421"/>
<path d="M89.271 169.229V174.117H69.3573V169.302H67.1885V175.202C67.1883 175.345 67.2163 175.486 67.2708 175.618C67.3252 175.749 67.4052 175.869 67.5059 175.97C67.6067 176.071 67.7264 176.151 67.8581 176.205C67.9898 176.26 68.1309 176.287 68.2735 176.287H90.356C90.4985 176.287 90.6396 176.26 90.7713 176.205C90.903 176.151 91.0227 176.071 91.1235 175.97C91.2242 175.869 91.3042 175.749 91.3586 175.618C91.4131 175.486 91.4411 175.345 91.4409 175.202V169.229H89.271Z" fill="#272421"/>
<path d="M213.668 168.816V173.709H193.754V168.893H191.585V174.794C191.585 175.081 191.7 175.357 191.903 175.561C192.106 175.764 192.382 175.879 192.67 175.879H214.752C215.039 175.879 215.315 175.764 215.519 175.561C215.722 175.357 215.837 175.081 215.837 174.794V168.82H213.668V168.816Z" fill="#272421"/>
<path d="M59.5774 111.09V144.891C59.5774 145.735 59.7436 146.57 60.0666 147.35C60.3895 148.13 60.8629 148.838 61.4596 149.435C62.0564 150.032 62.7648 150.505 63.5445 150.828C64.3241 151.151 65.1598 151.317 66.0037 151.317C66.8476 151.317 67.6833 151.151 68.463 150.828C69.2426 150.505 69.9511 150.032 70.5478 149.435C71.1445 148.838 71.6179 148.13 71.9409 147.35C72.2638 146.57 72.43 145.735 72.43 144.891C72.4355 140.191 74.3049 135.686 77.6281 132.363C80.9512 129.04 85.4568 127.171 90.1563 127.166H92.0446C96.7443 127.171 101.25 129.04 104.573 132.363C107.896 135.687 109.766 140.192 109.771 144.892C109.773 146.596 110.45 148.229 111.655 149.434C112.859 150.639 114.493 151.317 116.197 151.319H116.789C118.493 151.317 120.127 150.639 121.332 149.435C122.537 148.23 123.214 146.596 123.216 144.892C123.221 140.192 125.091 135.687 128.414 132.363C131.737 129.04 136.243 127.171 140.942 127.166H142.831C147.531 127.171 152.036 129.04 155.359 132.363C158.683 135.687 160.552 140.192 160.557 144.892C160.559 146.596 161.236 148.229 162.441 149.434C163.646 150.639 165.279 151.317 166.983 151.319H167.577C169.28 151.317 170.914 150.639 172.118 149.434C173.323 148.229 174.001 146.596 174.002 144.892C174.008 140.192 175.877 135.687 179.2 132.363C182.523 129.04 187.029 127.171 191.729 127.166H193.617C198.317 127.171 202.822 129.04 206.146 132.363C209.469 135.687 211.338 140.192 211.343 144.892C211.345 146.596 212.023 148.229 213.227 149.434C214.432 150.639 216.065 151.317 217.769 151.319H218.889C220.593 151.317 222.226 150.639 223.431 149.434C224.635 148.229 225.313 146.596 225.315 144.892V111.09H59.5774Z" fill="url(#paint2_linear_861_36883)"/>
<defs>
<linearGradient id="paint0_linear_861_36883" x1="277.339" y1="102.901" x2="297.717" y2="112.044" gradientUnits="userSpaceOnUse">
<stop stop-color="#846E55"/>
<stop offset="1" stop-color="#B3A55C"/>
</linearGradient>
<linearGradient id="paint1_linear_861_36883" x1="52.028" y1="131.186" x2="85.5542" y2="231.499" gradientUnits="userSpaceOnUse">
<stop stop-color="#846E55"/>
<stop offset="1" stop-color="#B3A55C"/>
</linearGradient>
<linearGradient id="paint2_linear_861_36883" x1="57.0471" y1="112.99" x2="128.367" y2="244.822" gradientUnits="userSpaceOnUse">
<stop stop-color="#846E55"/>
<stop offset="1" stop-color="#B3A55C"/>
</linearGradient>
</defs>
</svg>
