<svg width="111" height="132" viewBox="0 0 111 132" fill="none" xmlns="http://www.w3.org/2000/svg">
<path opacity="0.4" d="M106.76 33.9993C106.638 33.9696 106.532 33.8954 106.464 33.7918C106.395 33.6883 106.37 33.5633 106.393 33.4422C106.416 33.3211 106.485 33.2131 106.587 33.1402C106.688 33.0673 106.815 33.035 106.94 33.0498C107.065 33.0647 107.18 33.1256 107.261 33.2201C107.341 33.3146 107.382 33.4357 107.375 33.5586C107.367 33.6815 107.312 33.797 107.22 33.8816C107.129 33.9661 107.008 34.0134 106.881 34.0137C106.841 34.0138 106.8 34.009 106.76 33.9993ZM108.288 32.2317C108.288 32.0913 108.331 31.954 108.411 31.8373C108.491 31.7205 108.604 31.6295 108.737 31.5758C108.87 31.5221 109.016 31.508 109.157 31.5354C109.298 31.5628 109.428 31.6304 109.529 31.7297C109.631 31.829 109.7 31.9555 109.728 32.0932C109.756 32.2309 109.742 32.3737 109.687 32.5034C109.632 32.6331 109.539 32.744 109.419 32.822C109.3 32.9 109.159 32.9416 109.015 32.9416C108.92 32.9416 108.825 32.9233 108.737 32.8876C108.649 32.8519 108.569 32.7996 108.501 32.7337C108.365 32.6006 108.288 32.42 108.288 32.2317ZM106.17 16.3609C106.17 16.183 106.224 16.009 106.326 15.8611C106.427 15.7132 106.571 15.598 106.74 15.5301C106.908 15.4621 107.093 15.4445 107.272 15.4794C107.451 15.5143 107.615 15.6001 107.744 15.7261C107.873 15.852 107.96 16.0125 107.996 16.187C108.031 16.3616 108.013 16.5425 107.943 16.7069C107.873 16.8713 107.755 17.0117 107.603 17.1104C107.451 17.2092 107.273 17.2618 107.091 17.2616C106.97 17.2616 106.85 17.2383 106.738 17.193C106.626 17.1478 106.525 17.0814 106.439 16.9977C106.353 16.9141 106.286 16.8148 106.24 16.7055C106.193 16.5962 106.17 16.4791 106.17 16.3609Z" fill="url(#paint0_linear_2478_13302)"/>
<path opacity="0.4" d="M101.261 32.941C105.945 32.941 109.742 29.2335 109.742 24.66C109.742 20.0865 105.945 16.3789 101.261 16.3789C96.5765 16.3789 92.7793 20.0865 92.7793 24.66C92.7793 29.2335 96.5765 32.941 101.261 32.941Z" fill="url(#paint1_linear_2478_13302)"/>
<path opacity="0.4" d="M24.9213 126.592C37.5805 126.592 47.8427 116.572 47.8427 104.212C47.8427 91.8519 37.5805 81.832 24.9213 81.832C12.2622 81.832 2 91.8519 2 104.212C2 116.572 12.2622 126.592 24.9213 126.592Z" fill="url(#paint2_linear_2478_13302)"/>
<path opacity="0.4" d="M18.5872 129.702C18.5872 129.323 18.7024 128.952 18.9181 128.637C19.1339 128.322 19.4405 128.076 19.7993 127.931C20.158 127.786 20.5528 127.748 20.9337 127.822C21.3146 127.896 21.6644 128.078 21.939 128.346C22.2136 128.615 22.4006 128.956 22.4763 129.328C22.5521 129.7 22.5132 130.085 22.3646 130.436C22.216 130.786 21.9643 131.085 21.6415 131.296C21.3186 131.507 20.939 131.619 20.5506 131.619C20.0299 131.619 19.5305 131.417 19.1623 131.058C18.7941 130.698 18.5872 130.21 18.5872 129.702ZM25.4545 129.794C25.4545 129.535 25.5331 129.282 25.6805 129.067C25.8279 128.851 26.0374 128.683 26.2824 128.584C26.5275 128.485 26.7972 128.459 27.0573 128.51C27.3175 128.561 27.5564 128.685 27.7439 128.869C27.9314 129.052 28.059 129.285 28.1107 129.539C28.1623 129.793 28.1356 130.056 28.034 130.296C27.9324 130.535 27.7604 130.739 27.5398 130.883C27.3191 131.027 27.0598 131.104 26.7945 131.103C26.439 131.103 26.0982 130.965 25.8469 130.72C25.5956 130.474 25.4545 130.141 25.4545 129.794ZM7.45508 82.3734C7.45508 81.8924 7.60116 81.4222 7.87486 81.0223C8.14855 80.6223 8.53756 80.3106 8.9927 80.1265C9.44783 79.9425 9.94865 79.8943 10.4318 79.9881C10.915 80.082 11.3588 80.3136 11.7072 80.6537C12.0555 80.9938 12.2927 81.4272 12.3888 81.8989C12.485 82.3707 12.4356 82.8597 12.2471 83.3041C12.0586 83.7485 11.7393 84.1283 11.3297 84.3955C10.9201 84.6627 10.4385 84.8054 9.94589 84.8054C9.28529 84.8054 8.65174 84.5491 8.18462 84.0931C7.7175 83.637 7.45508 83.0184 7.45508 82.3734Z" fill="url(#paint3_linear_2478_13302)"/>
<path d="M36.6309 20.0092L36.6309 122.61C36.6309 125.376 38.5663 127.619 40.9537 127.619H93.6264C96.0139 127.619 97.9493 125.376 97.9493 122.61V20.0092C97.9493 17.2427 96.0139 15 93.6264 15H40.9537C38.5663 15 36.6309 17.2427 36.6309 20.0092Z" fill="#F6F2ED"/>
<path d="M37.2793 20.0096L37.2793 122.61C37.2793 124.962 38.9244 126.868 40.9537 126.868H93.6264C95.6558 126.868 97.3008 124.962 97.3008 122.61V20.0096C97.3008 17.6581 95.6558 15.7518 93.6264 15.7518H40.9537C38.9244 15.7518 37.2793 17.6581 37.2793 20.0096Z" stroke="#372E26" stroke-width="1.5"/>
<path d="M42.6211 25.0293L42.6211 116.842C42.6211 119.228 44.2528 121.162 46.2656 121.162H88.2567C90.2696 121.162 91.9013 119.228 91.9013 116.842V25.0293C91.9013 22.6432 90.2696 20.7089 88.2567 20.7089H46.2656C44.2528 20.7089 42.6211 22.6432 42.6211 25.0293Z" stroke="#372E26" stroke-width="1.5" stroke-dasharray="1.5 2"/>
<path d="M83.1602 33.6191C85.2564 33.6191 86.9561 35.3188 86.9561 37.415V104.823C86.9561 106.919 85.2564 108.619 83.1602 108.619H52.7959C50.6997 108.619 49 106.919 49 104.823V37.415C49 35.3188 50.6997 33.6191 52.7959 33.6191H83.1602ZM55.5283 39.2363V80.5322H81.3389V39.2363H55.5283Z" fill="#372E26"/>
<path d="M77.6179 103.306V92.0708C77.6179 90.5196 76.3604 89.2621 74.8092 89.2621H61.1451C59.5938 89.2621 58.3363 90.5196 58.3363 92.0708V103.306C58.3363 103.431 58.2344 103.533 58.1086 103.533C57.9828 103.533 57.8809 103.431 57.8809 103.306V92.0708C57.8809 90.2681 59.3423 88.8066 61.1451 88.8066H74.8092C76.612 88.8066 78.0734 90.2681 78.0734 92.0708V103.306C78.0734 103.431 77.9714 103.533 77.8457 103.533C77.7199 103.533 77.6179 103.431 77.6179 103.306Z" fill="#F6F2ED"/>
<path d="M75.266 92.6777C75.3498 92.6777 75.4178 92.7457 75.4178 92.8296C75.4178 92.9134 75.3498 92.9814 75.266 92.9814H60.6909C60.607 92.9814 60.5391 92.9134 60.5391 92.8296C60.5391 92.7457 60.607 92.6777 60.6909 92.6777H75.266Z" fill="#F6F2ED"/>
<path d="M75.266 96.3223C75.3498 96.3223 75.4178 96.3902 75.4178 96.4741C75.4178 96.5579 75.3498 96.6259 75.266 96.6259H60.6909C60.607 96.6259 60.5391 96.5579 60.5391 96.4741C60.5391 96.3902 60.607 96.3223 60.6909 96.3223H75.266Z" fill="#F6F2ED"/>
<path d="M75.266 99.6621C75.3498 99.6621 75.4178 99.7301 75.4178 99.8139C75.4178 99.8978 75.3498 99.9658 75.266 99.9658H60.6909C60.607 99.9658 60.5391 99.8978 60.5391 99.8139C60.5391 99.7301 60.607 99.6621 60.6909 99.6621H75.266Z" fill="#F6F2ED"/>
<path d="M70.3912 62.4347H69.3753V64.1129L70.3623 64.1778V65.8254L71.4217 65.8829V67.5513H72.4376V69.2441H70.3991V67.6051L69.3385 67.5476V65.8792H68.3015V64.1863H67.2421V69.238H65.1365V57.3182H63.0625V55.5972H65.0957V50.4941H67.2092V55.5666H69.2779V57.2876H67.2552V62.3883H68.2646V60.7419H69.3016V59.049H71.3993V60.6917L70.3912 60.7468V62.4347Z" fill="#372E26"/>
<rect x="22.75" y="0.75" width="32.1559" height="32.1558" rx="16.0779" fill="url(#paint4_linear_2478_13302)"/>
<rect x="22.75" y="0.75" width="32.1559" height="32.1558" rx="16.0779" stroke="#F9F4F0" stroke-width="1.5"/>
<path d="M43.9613 12L36.3384 19.323L32.8377 15.7232L31 17.4202L35.3873 21.9331C35.503 22.0522 35.642 22.1476 35.7961 22.2137C35.9501 22.2798 36.1161 22.3154 36.2844 22.3182H36.3055C36.6379 22.318 36.9568 22.1903 37.1933 21.9628L45.7403 13.7565L43.9613 12Z" fill="#F6F2ED"/>
<defs>
<linearGradient id="paint0_linear_2478_13302" x1="106.115" y1="16.338" x2="112.855" y2="16.9203" gradientUnits="userSpaceOnUse">
<stop stop-color="#846E55"/>
<stop offset="1" stop-color="#B3A55C"/>
</linearGradient>
<linearGradient id="paint1_linear_2478_13302" x1="92.5203" y1="17.161" x2="119.14" y2="29.3933" gradientUnits="userSpaceOnUse">
<stop stop-color="#846E55"/>
<stop offset="1" stop-color="#B3A55C"/>
</linearGradient>
<linearGradient id="paint2_linear_2478_13302" x1="1.30011" y1="83.9457" x2="73.2398" y2="117.004" gradientUnits="userSpaceOnUse">
<stop stop-color="#846E55"/>
<stop offset="1" stop-color="#B3A55C"/>
</linearGradient>
<linearGradient id="paint3_linear_2478_13302" x1="7.13933" y1="82.3817" x2="45.2194" y2="89.2194" gradientUnits="userSpaceOnUse">
<stop stop-color="#846E55"/>
<stop offset="1" stop-color="#B3A55C"/>
</linearGradient>
<linearGradient id="paint4_linear_2478_13302" x1="21.4862" y1="1.5893" x2="74.7348" y2="25.4807" gradientUnits="userSpaceOnUse">
<stop stop-color="#846E55"/>
<stop offset="1" stop-color="#B3A55C"/>
</linearGradient>
</defs>
</svg>
