<svg width="111" height="117" viewBox="0 0 111 117" fill="none" xmlns="http://www.w3.org/2000/svg">
<path opacity="0.4" d="M106.76 18.9993C106.638 18.9696 106.532 18.8954 106.464 18.7918C106.395 18.6883 106.37 18.5633 106.393 18.4422C106.416 18.3211 106.485 18.2131 106.587 18.1402C106.688 18.0673 106.815 18.035 106.94 18.0498C107.065 18.0647 107.18 18.1256 107.261 18.2201C107.341 18.3146 107.382 18.4357 107.375 18.5586C107.367 18.6815 107.312 18.797 107.22 18.8816C107.129 18.9661 107.008 19.0134 106.881 19.0137C106.841 19.0138 106.8 19.009 106.76 18.9993ZM108.288 17.2317C108.288 17.0913 108.331 16.954 108.411 16.8373C108.491 16.7205 108.604 16.6295 108.737 16.5758C108.87 16.5221 109.016 16.508 109.157 16.5354C109.298 16.5628 109.428 16.6304 109.529 16.7297C109.631 16.829 109.7 16.9555 109.728 17.0932C109.756 17.2309 109.742 17.3737 109.687 17.5034C109.632 17.6331 109.539 17.744 109.419 17.822C109.3 17.9 109.159 17.9416 109.015 17.9416C108.92 17.9416 108.825 17.9233 108.737 17.8876C108.649 17.8519 108.569 17.7996 108.501 17.7337C108.365 17.6006 108.288 17.42 108.288 17.2317ZM106.17 1.36093C106.17 1.18295 106.224 1.00902 106.326 0.861136C106.427 0.713248 106.571 0.598043 106.74 0.530089C106.908 0.462136 107.093 0.444485 107.272 0.47937C107.451 0.514255 107.615 0.600109 107.744 0.726074C107.873 0.85204 107.96 1.01246 107.996 1.18705C108.031 1.36164 108.013 1.54255 107.943 1.70691C107.873 1.87128 107.755 2.01171 107.603 2.11045C107.451 2.20919 107.273 2.2618 107.091 2.26163C106.97 2.26163 106.85 2.23832 106.738 2.19304C106.626 2.14775 106.525 2.08138 106.439 1.99772C106.353 1.91406 106.286 1.81475 106.24 1.70548C106.193 1.59622 106.17 1.47913 106.17 1.36093Z" fill="url(#paint0_linear_2478_14271)"/>
<path opacity="0.4" d="M101.261 17.941C105.945 17.941 109.742 14.2335 109.742 9.65997C109.742 5.08646 105.945 1.37891 101.261 1.37891C96.5765 1.37891 92.7793 5.08646 92.7793 9.65997C92.7793 14.2335 96.5765 17.941 101.261 17.941Z" fill="url(#paint1_linear_2478_14271)"/>
<path opacity="0.4" d="M24.9213 111.592C37.5805 111.592 47.8427 101.572 47.8427 89.212C47.8427 76.8519 37.5805 66.832 24.9213 66.832C12.2622 66.832 2 76.8519 2 89.212C2 101.572 12.2622 111.592 24.9213 111.592Z" fill="url(#paint2_linear_2478_14271)"/>
<path opacity="0.4" d="M18.5872 114.702C18.5872 114.323 18.7024 113.952 18.9181 113.637C19.1339 113.322 19.4405 113.076 19.7993 112.931C20.158 112.786 20.5528 112.748 20.9337 112.822C21.3146 112.896 21.6644 113.078 21.939 113.346C22.2136 113.615 22.4006 113.956 22.4763 114.328C22.5521 114.7 22.5132 115.085 22.3646 115.436C22.216 115.786 21.9643 116.085 21.6415 116.296C21.3186 116.507 20.939 116.619 20.5506 116.619C20.0299 116.619 19.5305 116.417 19.1623 116.058C18.7941 115.698 18.5872 115.21 18.5872 114.702ZM25.4545 114.794C25.4545 114.535 25.5331 114.282 25.6805 114.067C25.8279 113.851 26.0374 113.683 26.2824 113.584C26.5275 113.485 26.7972 113.459 27.0573 113.51C27.3175 113.561 27.5564 113.685 27.7439 113.869C27.9314 114.052 28.059 114.285 28.1107 114.539C28.1623 114.793 28.1356 115.056 28.034 115.296C27.9324 115.535 27.7604 115.739 27.5398 115.883C27.3191 116.027 27.0598 116.104 26.7945 116.103C26.439 116.103 26.0982 115.965 25.8469 115.72C25.5956 115.474 25.4545 115.141 25.4545 114.794ZM7.45508 67.3734C7.45508 66.8924 7.60116 66.4222 7.87486 66.0223C8.14855 65.6223 8.53756 65.3106 8.9927 65.1265C9.44783 64.9425 9.94865 64.8943 10.4318 64.9881C10.915 65.082 11.3588 65.3136 11.7072 65.6537C12.0555 65.9938 12.2927 66.4272 12.3888 66.8989C12.485 67.3707 12.4356 67.8597 12.2471 68.3041C12.0586 68.7485 11.7393 69.1283 11.3297 69.3955C10.9201 69.6627 10.4385 69.8054 9.94589 69.8054C9.28529 69.8054 8.65174 69.5491 8.18462 69.0931C7.7175 68.637 7.45508 68.0184 7.45508 67.3734Z" fill="url(#paint3_linear_2478_14271)"/>
<path d="M36.6309 5.00921L36.6309 107.61C36.6309 110.376 38.5663 112.619 40.9537 112.619H93.6264C96.0139 112.619 97.9493 110.376 97.9493 107.61V5.00921C97.9493 2.24269 96.0139 -7.62939e-06 93.6264 -7.62939e-06H40.9537C38.5663 -7.62939e-06 36.6309 2.24269 36.6309 5.00921Z" fill="#F6F2ED"/>
<path d="M37.2793 5.00961L37.2793 107.61C37.2793 109.962 38.9244 111.868 40.9537 111.868H93.6264C95.6558 111.868 97.3008 109.962 97.3008 107.61V5.00961C97.3008 2.65807 95.6558 0.751778 93.6264 0.751778H40.9537C38.9244 0.751778 37.2793 2.65807 37.2793 5.00961Z" stroke="#372E26" stroke-width="1.5"/>
<path d="M42.6211 10.0293L42.6211 101.842C42.6211 104.228 44.2528 106.162 46.2656 106.162H88.2567C90.2696 106.162 91.9013 104.228 91.9013 101.842V10.0293C91.9013 7.64321 90.2696 5.70887 88.2567 5.70887H46.2656C44.2528 5.70887 42.6211 7.64321 42.6211 10.0293Z" stroke="#372E26" stroke-width="1.5" stroke-dasharray="1.5 2"/>
<path d="M83.1602 18.6191C85.2564 18.6191 86.9561 20.3188 86.9561 22.415V89.8232C86.9561 91.9195 85.2564 93.6191 83.1602 93.6191H52.7959C50.6997 93.6191 49 91.9195 49 89.8232V22.415C49 20.3188 50.6997 18.6191 52.7959 18.6191H83.1602ZM55.5283 24.2363V65.5322H81.3389V24.2363H55.5283Z" fill="#372E26"/>
<path d="M77.6179 88.3056V77.0708C77.6179 75.5196 76.3604 74.2621 74.8092 74.2621H61.1451C59.5938 74.2621 58.3363 75.5196 58.3363 77.0708V88.3056C58.3363 88.4314 58.2344 88.5334 58.1086 88.5334C57.9828 88.5334 57.8809 88.4314 57.8809 88.3056V77.0708C57.8809 75.2681 59.3423 73.8066 61.1451 73.8066H74.8092C76.612 73.8066 78.0734 75.2681 78.0734 77.0708V88.3056C78.0734 88.4314 77.9714 88.5334 77.8457 88.5334C77.7199 88.5334 77.6179 88.4314 77.6179 88.3056Z" fill="#F6F2ED"/>
<path d="M75.266 77.6777C75.3498 77.6777 75.4178 77.7457 75.4178 77.8296C75.4178 77.9134 75.3498 77.9814 75.266 77.9814H60.6909C60.607 77.9814 60.5391 77.9134 60.5391 77.8296C60.5391 77.7457 60.607 77.6777 60.6909 77.6777H75.266Z" fill="#F6F2ED"/>
<path d="M75.266 81.3223C75.3498 81.3223 75.4178 81.3902 75.4178 81.4741C75.4178 81.5579 75.3498 81.6259 75.266 81.6259H60.6909C60.607 81.6259 60.5391 81.5579 60.5391 81.4741C60.5391 81.3902 60.607 81.3223 60.6909 81.3223H75.266Z" fill="#F6F2ED"/>
<path d="M75.266 84.6621C75.3498 84.6621 75.4178 84.7301 75.4178 84.8139C75.4178 84.8978 75.3498 84.9658 75.266 84.9658H60.6909C60.607 84.9658 60.5391 84.8978 60.5391 84.8139C60.5391 84.7301 60.607 84.6621 60.6909 84.6621H75.266Z" fill="#F6F2ED"/>
<path d="M70.3912 47.4347H69.3753V49.1129L70.3623 49.1778V50.8254L71.4217 50.8829V52.5513H72.4376V54.2441H70.3991V52.6051L69.3385 52.5476V50.8792H68.3015V49.1863H67.2421V54.238H65.1365V42.3182H63.0625V40.5972H65.0957V35.4941H67.2092V40.5666H69.2779V42.2876H67.2552V47.3883H68.2646V45.7419H69.3016V44.049H71.3993V45.6917L70.3912 45.7468V47.4347Z" fill="#372E26"/>
<defs>
<linearGradient id="paint0_linear_2478_14271" x1="106.115" y1="1.33797" x2="112.855" y2="1.92026" gradientUnits="userSpaceOnUse">
<stop stop-color="#846E55"/>
<stop offset="1" stop-color="#B3A55C"/>
</linearGradient>
<linearGradient id="paint1_linear_2478_14271" x1="92.5203" y1="2.16101" x2="119.14" y2="14.3933" gradientUnits="userSpaceOnUse">
<stop stop-color="#846E55"/>
<stop offset="1" stop-color="#B3A55C"/>
</linearGradient>
<linearGradient id="paint2_linear_2478_14271" x1="1.30011" y1="68.9457" x2="73.2398" y2="102.004" gradientUnits="userSpaceOnUse">
<stop stop-color="#846E55"/>
<stop offset="1" stop-color="#B3A55C"/>
</linearGradient>
<linearGradient id="paint3_linear_2478_14271" x1="7.13933" y1="67.3817" x2="45.2194" y2="74.2194" gradientUnits="userSpaceOnUse">
<stop stop-color="#846E55"/>
<stop offset="1" stop-color="#B3A55C"/>
</linearGradient>
</defs>
</svg>
