<svg width="128" height="117" viewBox="0 0 128 117" fill="none" xmlns="http://www.w3.org/2000/svg">
<path opacity="0.4" d="M124.867 20.009C124.738 19.977 124.627 19.897 124.555 19.7854C124.483 19.6737 124.457 19.5389 124.481 19.4083C124.505 19.2777 124.577 19.1612 124.684 19.0825C124.791 19.0038 124.923 18.9689 125.055 18.9848C125.186 19.0007 125.307 19.0664 125.392 19.1683C125.476 19.2702 125.519 19.4008 125.512 19.5333C125.504 19.6659 125.446 19.7905 125.35 19.8818C125.253 19.973 125.126 20.024 124.994 20.0244C124.951 20.0245 124.908 20.0193 124.867 20.009ZM126.473 18.102C126.473 17.9504 126.517 17.8023 126.601 17.6763C126.685 17.5503 126.805 17.4522 126.944 17.3942C127.084 17.3362 127.237 17.321 127.386 17.3506C127.534 17.3801 127.67 17.4531 127.777 17.5602C127.884 17.6674 127.956 17.8039 127.986 17.9525C128.015 18.1011 128 18.2551 127.942 18.3951C127.885 18.5351 127.787 18.6548 127.661 18.7389C127.535 18.8231 127.388 18.8681 127.237 18.8681C127.034 18.8681 126.84 18.7873 126.696 18.6437C126.553 18.5 126.473 18.3051 126.473 18.102ZM124.246 0.97149C124.246 0.779303 124.303 0.591435 124.409 0.431652C124.516 0.271869 124.667 0.147352 124.844 0.0738523C125.021 0.000352834 125.216 -0.0188258 125.404 0.0187426C125.592 0.0563111 125.765 0.148939 125.9 0.284907C126.036 0.420875 126.128 0.594074 126.165 0.782592C126.203 0.97111 126.183 1.16648 126.11 1.34397C126.036 1.52147 125.912 1.67313 125.752 1.77975C125.593 1.88638 125.406 1.94318 125.214 1.94298C125.087 1.94298 124.961 1.91784 124.843 1.86901C124.726 1.82017 124.619 1.7486 124.529 1.65837C124.439 1.56815 124.368 1.46105 124.319 1.34319C124.271 1.22532 124.246 1.09902 124.246 0.97149Z" fill="url(#paint0_linear_516_8935)"/>
<path opacity="0.4" d="M119.085 18.8685C124.008 18.8685 127.999 14.8666 127.999 9.92998C127.999 4.99337 124.008 0.991455 119.085 0.991455C114.162 0.991455 110.171 4.99337 110.171 9.92998C110.171 14.8666 114.162 18.8685 119.085 18.8685Z" fill="url(#paint1_linear_516_8935)"/>
<path opacity="0.4" d="M24.0895 111.573C37.3938 111.573 48.179 100.758 48.179 87.4168C48.179 74.0759 37.3938 63.261 24.0895 63.261C10.7852 63.261 0 74.0759 0 87.4168C0 100.758 10.7852 111.573 24.0895 111.573Z" fill="url(#paint2_linear_516_8935)"/>
<path opacity="0.4" d="M17.432 114.931C17.432 114.522 17.5531 114.122 17.7798 113.782C18.0066 113.441 18.3289 113.176 18.7059 113.019C19.083 112.863 19.4979 112.822 19.8982 112.902C20.2985 112.981 20.6662 113.179 20.9549 113.468C21.2435 113.757 21.44 114.126 21.5196 114.527C21.5992 114.929 21.5584 115.345 21.4022 115.723C21.246 116.101 20.9815 116.424 20.6421 116.652C20.3028 116.879 19.9038 117 19.4957 117C18.9484 117 18.4235 116.782 18.0365 116.394C17.6495 116.006 17.432 115.48 17.432 114.931ZM24.6501 115.034C24.6501 114.754 24.7328 114.481 24.8876 114.249C25.0425 114.016 25.2627 113.835 25.5202 113.728C25.7778 113.621 26.0612 113.593 26.3346 113.648C26.608 113.703 26.8591 113.837 27.0561 114.035C27.2531 114.233 27.3873 114.485 27.4415 114.759C27.4958 115.033 27.4677 115.317 27.3609 115.575C27.2541 115.833 27.0733 116.054 26.8414 116.209C26.6096 116.364 26.337 116.447 26.0583 116.447C25.6845 116.447 25.3261 116.298 25.0618 116.033C24.7975 115.768 24.6501 115.409 24.6501 115.034ZM5.73242 63.8458C5.73262 63.3267 5.88632 62.8193 6.17408 62.3877C6.46183 61.9562 6.87073 61.6199 7.34906 61.4214C7.82739 61.2229 8.35369 61.1711 8.8614 61.2725C9.36911 61.3739 9.83544 61.624 10.2014 61.9911C10.5674 62.3582 10.8166 62.8259 10.9175 63.3351C11.0185 63.8442 10.9666 64.372 10.7684 64.8515C10.5702 65.3311 10.2347 65.741 9.80428 66.0294C9.37383 66.3177 8.86777 66.4717 8.35009 66.4717C8.00625 66.4717 7.66577 66.4037 7.34811 66.2718C7.03046 66.1398 6.74184 65.9463 6.49876 65.7025C6.25567 65.4586 6.06288 65.1692 5.93139 64.8506C5.7999 64.532 5.73229 64.1906 5.73242 63.8458Z" fill="url(#paint3_linear_516_8935)"/>
<path d="M34.5781 9.51656L34.5781 100.973C34.5781 103.809 36.8707 106.108 39.6988 106.108H110.589C113.417 106.108 115.709 103.809 115.709 100.973V9.51656C115.709 6.68073 113.417 4.38184 110.589 4.38184H39.6988C36.8707 4.38184 34.5781 6.68073 34.5781 9.51656Z" fill="#F6F2ED"/>
<path d="M75.7304 69.4049C73.5945 73.1141 71.3778 76.7764 69.36 80.5546C68.3713 82.4171 67.5785 82.9846 65.5981 81.6583C62.4519 79.5478 59.1767 77.6398 55.7922 75.9455C53.3049 74.6913 52.8293 73.7067 54.3931 71.0635C61.6154 58.8728 68.5703 46.5253 75.5905 34.2154C76.3957 32.8044 77.5616 31.5816 76.9025 29.5561C75.8641 26.361 77.7482 25.6462 80.4064 26.1541C83.5692 26.7356 86.8092 26.7472 89.976 26.1886C91.2694 25.9754 93.3244 25.364 93.9058 26.6934C94.3441 27.4115 94.5182 28.2622 94.3978 29.0967C94.2773 29.9311 93.8699 30.6964 93.2467 31.2587C92.0342 32.331 94.6707 39.7997 96.2967 40.8595C97.9227 41.9193 97.7548 46.3309 95.936 46.6099C93.8467 46.9235 94.2043 48.0962 94.1981 49.3315C94.1794 54.4674 94.1981 59.6034 94.1981 64.7393C94.1981 66.0499 94.0022 67.1661 96.0324 67.4295C97.6087 67.6333 97.9662 72.6313 96.5236 72.8068C93.5701 73.1706 94.2198 75.0581 94.2074 76.7826C94.1452 84.9349 94.1545 84.9349 86.1768 84.9098C83.1921 84.9098 79.2188 85.9351 77.4715 84.4175C75.404 82.6178 76.9802 78.4946 76.7968 75.3842C76.6849 73.4465 76.7751 71.4993 76.7751 69.5553L75.7491 69.4017M84.672 29.4369C81.9578 29.4934 80.4282 31.7384 79.0198 34.1997C72.9675 44.783 66.9039 55.36 60.8288 65.9307C56.7124 73.1423 56.7653 73.0671 64.0467 77.3094C66.1266 78.5197 67.137 78.6138 68.4802 76.1994C75.2392 64.0589 82.2376 52.0563 89.1273 39.9909C89.7296 38.9857 90.2147 37.9136 90.5729 36.7959C90.8181 35.9042 90.8484 34.9663 90.6611 34.0605C90.4739 33.1546 90.0746 32.307 89.4965 31.5884C88.9184 30.8698 88.1784 30.3011 87.3381 29.9295C86.4977 29.558 85.5815 29.3945 84.6658 29.4526M89.1024 47.723C86.2763 51.8431 82.3309 55.4018 81.8117 60.4938C81.3733 64.78 81.9205 69.1603 81.6873 73.4778C81.5225 76.5004 83.3351 76.2245 85.1415 76.0615C86.8017 75.9141 89.2143 77.1902 89.1521 73.6346C89.006 64.9995 89.1024 56.3581 89.1024 47.723Z" fill="#272421"/>
<path d="M35.3457 9.516L35.3457 100.973C35.3457 103.383 37.2944 105.337 39.6982 105.337H110.588C112.992 105.337 114.941 103.383 114.941 100.973V9.516C114.941 7.10555 112.992 5.15149 110.588 5.15149H39.6982C37.2944 5.15149 35.3457 7.10555 35.3457 9.516Z" stroke="#272421" stroke-width="1.5"/>
<path d="M42.4678 16.6579L42.4678 93.8318C42.4678 96.2422 44.4165 98.1963 46.8203 98.1963H104.032C106.436 98.1963 108.385 96.2422 108.385 93.8318V16.6579C108.385 14.2474 106.436 12.2934 104.032 12.2934H46.8203C44.4165 12.2934 42.4678 14.2474 42.4678 16.6579Z" stroke="#272421" stroke-width="1.5" stroke-dasharray="1.5 2"/>
<defs>
<linearGradient id="paint0_linear_516_8935" x1="124.189" y1="0.945597" x2="131.275" y2="1.54168" gradientUnits="userSpaceOnUse">
<stop stop-color="#A58969"/>
<stop offset="1" stop-color="#C7B664"/>
</linearGradient>
<linearGradient id="paint1_linear_516_8935" x1="109.899" y1="1.83565" x2="138.131" y2="14.4681" gradientUnits="userSpaceOnUse">
<stop stop-color="#A58969"/>
<stop offset="1" stop-color="#C7B664"/>
</linearGradient>
<linearGradient id="paint2_linear_516_8935" x1="-0.735557" y1="65.5424" x2="75.5609" y2="99.6808" gradientUnits="userSpaceOnUse">
<stop stop-color="#A58969"/>
<stop offset="1" stop-color="#C7B664"/>
</linearGradient>
<linearGradient id="paint3_linear_516_8935" x1="5.40057" y1="63.8559" x2="45.4878" y2="70.8648" gradientUnits="userSpaceOnUse">
<stop stop-color="#A58969"/>
<stop offset="1" stop-color="#C7B664"/>
</linearGradient>
</defs>
</svg>
