<svg width="15" height="19" viewBox="0 0 15 19" fill="none" xmlns="http://www.w3.org/2000/svg">
<path d="M7.15278 13.8872C6.46578 15.0702 5.75277 16.2382 5.10377 17.4432C4.78577 18.0372 4.53078 18.2182 3.89377 17.7952C2.88182 17.1221 1.8284 16.5136 0.739776 15.9732C-0.0602244 15.5732 -0.213229 15.2592 0.289771 14.4162C2.61277 10.5282 4.84977 6.59022 7.10777 2.66422C7.36677 2.21422 7.74178 1.82422 7.52978 1.17822C7.19578 0.15922 7.80178 -0.068779 8.65678 0.093221C9.67407 0.278673 10.7162 0.282391 11.7348 0.104215C12.1508 0.0362149 12.8118 -0.158782 12.9988 0.265218C13.1397 0.494258 13.1957 0.765551 13.157 1.03169C13.1182 1.29783 12.9872 1.54189 12.7868 1.72122C12.3968 2.06322 13.2448 4.44522 13.7678 4.78322C14.2908 5.12122 14.2368 6.52822 13.6518 6.61722C12.9798 6.71722 13.0948 7.09122 13.0928 7.48522C13.0868 9.12322 13.0928 10.7612 13.0928 12.3992C13.0928 12.8172 13.0298 13.1732 13.6828 13.2572C14.1898 13.3222 14.3048 14.9162 13.8408 14.9722C12.8908 15.0882 13.0998 15.6902 13.0958 16.2402C13.0758 18.8402 13.0788 18.8402 10.5128 18.8322C9.55277 18.8322 8.27478 19.1592 7.71278 18.6752C7.04778 18.1012 7.55477 16.7862 7.49577 15.7942C7.45977 15.1762 7.48878 14.5552 7.48878 13.9352L7.15877 13.8862M10.0288 1.14022C9.15578 1.15822 8.66378 1.87422 8.21078 2.65922C6.26411 6.03455 4.31377 9.40788 2.35977 12.7792C1.03577 15.0792 1.05277 15.0552 3.39477 16.4082C4.06377 16.7942 4.38878 16.8242 4.82078 16.0542C6.99478 12.1822 9.24578 8.35422 11.4618 4.50622C11.6555 4.18561 11.8116 3.84367 11.9268 3.48722C12.0056 3.20283 12.0154 2.90371 11.9551 2.6148C11.8949 2.3259 11.7665 2.05558 11.5805 1.8264C11.3946 1.59721 11.1566 1.41581 10.8863 1.29731C10.616 1.17882 10.3213 1.12667 10.0268 1.14522M11.4538 6.97222C10.5448 8.28622 9.27577 9.42122 9.10877 11.0452C8.96777 12.4122 9.14377 13.8092 9.06877 15.1862C9.01577 16.1502 9.59877 16.0622 10.1798 16.0102C10.7138 15.9632 11.4898 16.3702 11.4698 15.2362C11.4228 12.4822 11.4538 9.72622 11.4538 6.97222Z" fill="url(#paint0_linear_182_8060)"/>
<defs>
<linearGradient id="paint0_linear_182_8060" x1="-0.215772" y1="0.894399" x2="23.9387" y2="8.98128" gradientUnits="userSpaceOnUse">
<stop stop-color="#846E55"/>
<stop offset="1" stop-color="#B3A55C"/>
</linearGradient>
</defs>
</svg>
