<svg width="285" height="220" viewBox="0 0 285 220" fill="none" xmlns="http://www.w3.org/2000/svg">
<path d="M135.297 206.402C192.293 206.402 238.498 160.197 238.498 103.201C238.498 46.2046 192.293 0 135.297 0C78.3005 0 32.0959 46.2046 32.0959 103.201C32.0959 160.197 78.3005 206.402 135.297 206.402Z" fill="#C3B075" fill-opacity="0.1"/>
<path opacity="0.2" d="M266.422 108.055C267.617 108.055 268.785 107.7 269.779 107.036C270.772 106.372 271.547 105.429 272.004 104.325C272.461 103.221 272.581 102.006 272.348 100.834C272.115 99.6619 271.539 98.5853 270.694 97.7403C269.849 96.8954 268.773 96.3199 267.601 96.0868C266.429 95.8537 265.214 95.9733 264.11 96.4306C263.006 96.8879 262.062 97.6623 261.398 98.6559C260.734 99.6495 260.38 100.818 260.38 102.013C260.38 103.615 261.017 105.152 262.15 106.285C263.283 107.418 264.82 108.055 266.422 108.055Z" fill="url(#paint0_linear_861_36283)"/>
<path d="M56.3617 206.402H54.4958V210.023H56.3617V206.402Z" fill="#272421"/>
<path d="M56.3617 216.379H54.4958V220H56.3617V216.379Z" fill="#272421"/>
<path d="M62.229 212.268H58.6079V214.133H62.229V212.268Z" fill="#272421"/>
<path d="M52.2517 212.268H48.6306V214.133H52.2517V212.268Z" fill="#272421"/>
<path d="M3.69887 51.5794C5.7417 51.5794 7.39775 49.9233 7.39775 47.8805C7.39775 45.8377 5.7417 44.1816 3.69887 44.1816C1.65604 44.1816 0 45.8377 0 47.8805C0 49.9233 1.65604 51.5794 3.69887 51.5794Z" fill="#272421"/>
<path d="M16.8504 106.118C18.4708 106.118 19.7843 104.804 19.7843 103.184C19.7843 101.564 18.4708 100.25 16.8504 100.25C15.2301 100.25 13.9165 101.564 13.9165 103.184C13.9165 104.804 15.2301 106.118 16.8504 106.118Z" fill="#272421"/>
<path d="M281.437 117.224C283.247 117.224 284.715 115.756 284.715 113.946C284.715 112.136 283.247 110.668 281.437 110.668C279.627 110.668 278.159 112.136 278.159 113.946C278.159 115.756 279.627 117.224 281.437 117.224Z" fill="#272421"/>
<path d="M230.878 23.0241C232.498 23.0241 233.812 21.7105 233.812 20.0902C233.812 18.4698 232.498 17.1562 230.878 17.1562C229.257 17.1562 227.944 18.4698 227.944 20.0902C227.944 21.7105 229.257 23.0241 230.878 23.0241Z" fill="#272421"/>
<path d="M123.786 141.16H88.203C88.0265 141.16 87.8518 141.195 87.6888 141.262C87.5258 141.33 87.3777 141.429 87.2529 141.554C87.1282 141.678 87.0292 141.827 86.9617 141.99C86.8942 142.153 86.8594 142.327 86.8594 142.504C86.851 147.701 88.8082 152.71 92.3385 156.524C95.8687 160.339 100.711 162.677 105.893 163.071C105.926 163.071 105.961 163.071 105.996 163.071C106.031 163.071 106.064 163.071 106.098 163.071C111.281 162.677 116.123 160.338 119.653 156.524C123.183 152.709 125.14 147.701 125.131 142.504C125.131 142.327 125.096 142.152 125.029 141.989C124.961 141.826 124.862 141.678 124.737 141.553C124.612 141.428 124.464 141.329 124.3 141.262C124.137 141.194 123.962 141.16 123.786 141.16ZM117.197 155.2C114.191 158.194 110.223 160.03 105.995 160.384C101.738 160.036 97.746 158.179 94.7388 155.147C91.7315 152.114 89.9074 148.107 89.5957 143.847H122.393C122.079 148.132 120.235 152.162 117.197 155.2Z" fill="#272421"/>
<path d="M93.6577 147.189C94.3747 149.309 95.5695 151.236 97.1497 152.821C98.1227 153.788 99.2256 154.615 100.427 155.279C102.128 156.223 104.041 156.718 105.987 156.719C107.932 156.72 109.846 156.226 111.548 155.284C114.745 153.532 117.165 150.641 118.326 147.186L93.6577 147.189Z" fill="#272421"/>
<path d="M227.11 43.9214C225.193 42.0042 222.917 40.4843 220.412 39.4491C217.907 38.4138 215.222 37.8836 212.512 37.8887H141.581C141.231 37.8855 140.894 38.0186 140.641 38.2599C140.388 38.5012 140.239 38.8316 140.226 39.181C140.213 39.5304 140.336 39.8712 140.57 40.131C140.804 40.3909 141.13 40.5494 141.478 40.5728C145.986 40.9428 150.19 42.9941 153.256 46.3196C156.321 49.645 158.024 54.0015 158.027 58.5244C158.027 58.8807 158.169 59.2225 158.421 59.4744C158.673 59.7264 159.014 59.8679 159.371 59.8679H231.802C232.158 59.8679 232.5 59.7264 232.752 59.4744C233.004 59.2225 233.145 58.8807 233.145 58.5244C233.151 55.8127 232.62 53.1267 231.585 50.6206C230.549 48.1146 229.028 45.8379 227.11 43.9214ZM160.672 57.1808C160.355 52.1784 158.223 47.4637 154.676 43.9214C153.37 42.6222 151.9 41.4979 150.305 40.5769H212.512C217.041 40.5701 221.406 42.2787 224.726 45.3592C228.047 48.4397 230.078 52.6635 230.411 57.1808H160.673H160.672Z" fill="#272421"/>
<path d="M196.216 57.1448H160.671C160.335 52.1945 158.234 47.529 154.75 43.9963C151.266 40.4635 146.631 38.2977 141.685 37.8926C141.617 37.8874 141.549 37.8874 141.481 37.8926C136.302 38.3139 131.471 40.6651 127.945 44.4802C124.418 48.2953 122.453 53.296 122.439 58.4914V142.506C122.445 144.904 121.966 147.279 121.032 149.489C119.754 152.521 117.665 155.143 114.994 157.066C112.323 158.989 109.173 160.139 105.892 160.39C105.546 160.417 105.224 160.577 104.993 160.836C104.762 161.095 104.641 161.434 104.654 161.78C104.667 162.127 104.814 162.455 105.064 162.696C105.314 162.937 105.647 163.072 105.994 163.073L176.931 163.135C178.729 163.138 180.52 162.902 182.256 162.435C182.584 162.346 182.866 162.136 183.046 161.847C183.225 161.559 183.289 161.213 183.223 160.879C182.291 156.066 183.138 151.078 185.606 146.842C188.074 142.606 191.995 139.41 196.642 137.847C196.91 137.759 197.143 137.588 197.309 137.359C197.474 137.13 197.563 136.856 197.564 136.573V58.4894C197.564 58.3125 197.529 58.1374 197.461 57.9741C197.393 57.8108 197.294 57.6624 197.169 57.5375C197.044 57.4126 196.895 57.3136 196.732 57.2462C196.568 57.1789 196.393 57.1444 196.216 57.1448ZM194.873 135.627C190.052 137.48 185.998 140.906 183.366 145.349C180.734 149.793 179.679 154.995 180.371 160.113C179.238 160.335 178.086 160.446 176.931 160.445L114.771 160.39C118.686 158.152 121.756 154.688 123.505 150.532C124.58 147.991 125.131 145.26 125.126 142.502V58.4914C125.139 53.9904 126.835 49.6571 129.88 46.3425C132.925 43.0279 137.099 40.9717 141.583 40.5777C146.065 40.9746 150.236 43.0321 153.279 46.3464C156.321 49.6606 158.015 53.9923 158.028 58.4914C158.029 58.8474 158.171 59.1886 158.423 59.4401C158.674 59.6916 159.016 59.8329 159.372 59.8329H194.872L194.873 135.627Z" fill="#272421"/>
<path d="M154.687 63.1872L154.68 58.5053C154.682 54.6442 153.151 50.9401 150.425 48.2064C148.051 45.8162 144.929 44.3122 141.58 43.9453C137.989 44.3356 134.668 46.0353 132.251 48.7197C129.833 51.4041 128.49 54.8849 128.477 58.4971V78.6248H191.526V63.1924H154.687V63.1872Z" fill="#272421"/>
<path d="M202.704 169.82C209.772 169.82 215.502 164.09 215.502 157.022C215.502 149.954 209.772 144.225 202.704 144.225C195.636 144.225 189.907 149.954 189.907 157.022C189.907 164.09 195.636 169.82 202.704 169.82Z" fill="url(#paint1_linear_861_36283)"/>
<path d="M207.354 151.559L200.093 159.226L197.267 156.115L195.594 157.634L199.239 161.648C199.343 161.763 199.47 161.855 199.612 161.919C199.754 161.983 199.907 162.016 200.063 162.018H200.075C200.229 162.018 200.38 161.987 200.521 161.926C200.662 161.865 200.789 161.777 200.895 161.665L208.994 153.113L207.354 151.559Z" fill="#272421"/>
<path d="M203.073 134.113C198.543 134.113 194.114 135.457 190.348 137.973C186.581 140.49 183.645 144.067 181.911 148.252C180.177 152.438 179.723 157.043 180.607 161.486C181.49 165.929 183.671 170.011 186.874 173.214C190.077 176.418 194.158 178.6 198.601 179.484C203.044 180.369 207.65 179.916 211.835 178.183C216.021 176.45 219.599 173.515 222.116 169.749C224.634 165.983 225.978 161.555 225.979 157.024C225.973 150.951 223.558 145.127 219.264 140.832C214.97 136.537 209.147 134.12 203.073 134.113ZM203.073 177.239C199.074 177.239 195.165 176.053 191.84 173.831C188.514 171.61 185.923 168.452 184.393 164.757C182.863 161.062 182.462 156.996 183.243 153.074C184.023 149.152 185.949 145.549 188.778 142.722C191.606 139.894 195.209 137.969 199.131 137.189C203.053 136.41 207.119 136.811 210.813 138.342C214.508 139.873 217.665 142.465 219.886 145.79C222.108 149.116 223.293 153.025 223.292 157.024C223.285 162.384 221.152 167.522 217.362 171.312C213.571 175.101 208.433 177.233 203.073 177.239Z" fill="url(#paint2_linear_861_36283)"/>
<path d="M187.241 157.019C187.24 156.265 187.293 155.512 187.399 154.766L184.737 154.387C184.614 155.259 184.553 156.138 184.553 157.019V157.268L187.241 157.237V157.019ZM191.69 146.014L189.759 144.146C189.087 144.84 188.471 145.586 187.915 146.376L190.113 147.922C190.589 147.246 191.117 146.608 191.691 146.014H191.69ZM188.852 150.05L186.44 148.866C186.014 149.734 185.657 150.634 185.372 151.557L187.94 152.349C188.184 151.562 188.489 150.795 188.853 150.055L188.852 150.05ZM190.109 170.245C190.799 170.921 191.54 171.542 192.326 172.103L193.887 169.916C193.214 169.435 192.58 168.904 191.989 168.325L190.109 170.245ZM187.465 159.698L184.817 160.149C184.98 161.102 185.217 162.04 185.526 162.956L188.072 162.095C187.808 161.313 187.605 160.512 187.466 159.699L187.465 159.698ZM189.046 164.367L186.666 165.618C187.114 166.472 187.628 167.29 188.202 168.065L190.353 166.46C189.865 165.798 189.429 165.098 189.049 164.368L189.046 164.367ZM195.628 143.04L194.363 140.67C193.511 141.125 192.695 141.646 191.925 142.228L193.545 144.373C194.203 143.875 194.9 143.43 195.628 143.041V143.04ZM218.644 154.127L221.287 153.641C221.112 152.691 220.862 151.755 220.54 150.844L218.006 151.739C218.281 152.517 218.494 153.315 218.644 154.127ZM217.006 149.482L219.367 148.2C218.906 147.352 218.38 146.54 217.793 145.774L215.659 147.406C216.158 148.062 216.606 148.756 216.999 149.481L217.006 149.482ZM215.862 143.62C215.163 142.953 214.414 142.342 213.62 141.791L212.089 144C212.768 144.471 213.409 144.994 214.007 145.565L215.862 143.62ZM221.591 156.515L218.906 156.591C218.906 156.733 218.911 156.876 218.911 157.019C218.911 157.845 218.847 158.67 218.72 159.487L221.375 159.902C221.524 158.948 221.598 157.984 221.599 157.019C221.591 156.85 221.589 156.682 221.584 156.514L221.591 156.515ZM214.304 168.181L216.21 170.074C216.891 169.39 217.518 168.653 218.084 167.871L215.908 166.295C215.423 166.964 214.887 167.594 214.304 168.181ZM210.327 171.098L211.556 173.486C212.413 173.043 213.235 172.533 214.013 171.962L212.423 169.796C211.759 170.282 211.058 170.716 210.327 171.094V171.098ZM217.197 164.183L219.592 165.399C220.031 164.537 220.401 163.642 220.698 162.722L218.138 161.895C217.885 162.68 217.57 163.443 217.198 164.179L217.197 164.183ZM208.412 139.285L207.639 141.859C208.429 142.097 209.199 142.396 209.943 142.755L211.111 140.335C210.241 139.913 209.339 139.561 208.413 139.281L208.412 139.285ZM197.015 139.517L197.893 142.056C198.673 141.787 199.473 141.579 200.286 141.435L199.817 138.788C198.866 138.956 197.929 139.198 197.016 139.514L197.015 139.517ZM205.646 172.646L206.078 175.298C207.032 175.142 207.973 174.911 208.891 174.608L208.046 172.057C207.263 172.315 206.461 172.511 205.647 172.643L205.646 172.646ZM194.806 173.599C195.671 174.031 196.569 174.394 197.491 174.686L198.299 172.125C197.512 171.877 196.746 171.567 196.007 171.198L194.806 173.599ZM203.071 172.854C202.281 172.853 201.491 172.795 200.709 172.678L200.312 175.341C201.225 175.477 202.147 175.546 203.07 175.546H203.201L203.172 172.859L203.071 172.854ZM202.697 138.507L202.748 141.193H203.071C203.791 141.193 204.509 141.241 205.222 141.337L205.582 138.675C204.75 138.562 203.911 138.506 203.071 138.506L202.697 138.507Z" fill="url(#paint3_linear_861_36283)"/>
<path d="M181.509 71.752H140.416V74.4391H181.509V71.752Z" fill="#272421"/>
<path d="M181.509 83.2871H140.416V85.9742H181.509V83.2871Z" fill="#272421"/>
<path d="M181.509 94.8301H140.416V97.5172H181.509V94.8301Z" fill="#272421"/>
<path d="M181.509 106.365H140.416V109.052H181.509V106.365Z" fill="#272421"/>
<path d="M181.51 117.904H140.417V120.591H181.51V117.904Z" fill="#272421"/>
<path d="M164.501 129.441H140.416V132.129H164.501V129.441Z" fill="#272421"/>
<path d="M76.8031 91.4873L65.7546 86.3281C58.9959 89.7853 57.3789 98.5143 57.3789 106.109V111.981H72.5861L72.1252 111.264L76.8031 91.4873Z" fill="url(#paint4_linear_861_36283)"/>
<path d="M94.6504 84.8027H89.2065V86.8611L95.5956 111.709L95.4123 111.979H109.986V106.107C109.985 96.394 107.329 84.8027 94.6504 84.8027Z" fill="url(#paint5_linear_861_36283)"/>
<path d="M91.653 111.258L86.3064 88.3874C86.235 88.0828 86.0627 87.8113 85.8175 87.617C85.5723 87.4228 85.2686 87.3171 84.9557 87.3173H81.9409L74.1008 84.7807V81.7321H84.3157V78.959H72.7142C72.3465 78.959 71.9938 79.1051 71.7338 79.3651C71.4737 79.6251 71.3276 79.9778 71.3276 80.3455V85.7894C71.3277 86.0823 71.4207 86.3676 71.593 86.6044C71.7654 86.8412 72.0085 87.0173 72.2872 87.1073L81.2988 90.0208C81.4367 90.0656 81.5808 90.0884 81.7259 90.0884H83.861L88.8154 111.304L86.1856 115.222L88.4877 116.767L91.4574 112.347C91.5633 112.189 91.6353 112.01 91.6689 111.823C91.7026 111.635 91.6972 111.443 91.653 111.258Z" fill="url(#paint6_linear_861_36283)"/>
<path d="M82.8672 91.4292L80.1556 90.8496L75.8883 110.797C75.8126 111.149 75.8761 111.516 76.0655 111.821L79.1305 116.756L81.4858 115.294L78.7209 110.833L82.8672 91.4292Z" fill="url(#paint7_linear_861_36283)"/>
<path d="M91.685 75.4746H88.9119V80.3522H91.685V75.4746Z" fill="url(#paint8_linear_861_36283)"/>
<path d="M77.4621 75.3574H74.689V80.3538H77.4621V75.3574Z" fill="url(#paint9_linear_861_36283)"/>
<path d="M96.8188 55.9059C93.8265 54.8562 88.9336 52.3217 88.5496 49.9664C88.5096 49.7271 88.4076 49.5024 88.2537 49.3147C88.0999 49.1271 87.8995 48.9831 87.6726 48.897C87.4457 48.8109 87.2003 48.7857 86.9606 48.8241C86.721 48.8624 86.4956 48.9628 86.3069 49.1154C81.5544 52.4479 75.929 54.3136 70.1269 54.4815C69.7691 54.496 69.4308 54.6483 69.1827 54.9065C68.9346 55.1647 68.7959 55.5089 68.7957 55.867V65.9293C68.7978 68.7966 69.9377 71.5459 71.965 73.5736C73.9923 75.6012 76.7413 76.7416 79.6086 76.7443H86.9347C89.8006 76.7411 92.5483 75.6011 94.5748 73.5746C96.6014 71.5481 97.7413 68.8004 97.7446 65.9344V57.2126C97.7445 56.9257 97.6554 56.646 97.4896 56.412C97.3238 56.1779 97.0894 56.0011 96.8188 55.9059ZM94.9755 65.9344C94.9731 68.0654 94.1255 70.1085 92.6186 71.6153C91.1118 73.1222 89.0688 73.9698 86.9377 73.9722H79.6096C77.4785 73.9698 75.4353 73.122 73.9284 71.615C72.4215 70.1079 71.574 68.0646 71.5719 65.9334V57.1757C76.8843 56.7865 82.0245 55.1222 86.5568 52.3238C88.4001 55.2935 92.9387 57.3631 94.9735 58.1742V65.9355L94.9755 65.9344Z" fill="url(#paint10_linear_861_36283)"/>
<path d="M85.8585 56.2422C82.3383 58.055 78.5494 59.2898 74.637 59.8991V65.9338C74.6383 67.2514 75.1623 68.5147 76.0941 69.4464C77.0258 70.3782 78.289 70.9022 79.6067 70.9035H86.9328C88.2504 70.9022 89.5137 70.3782 90.4454 69.4464C91.3771 68.5147 91.9011 67.2514 91.9025 65.9338V60.1991C89.693 59.2049 87.6534 57.8696 85.8585 56.2422Z" fill="url(#paint11_linear_861_36283)"/>
<path d="M91.2089 41.6468C90.8927 40.8567 90.3957 40.1517 89.7578 39.5883C89.1199 39.0249 88.3588 38.6188 87.5357 38.4027C83.3773 37.5494 79.068 37.7993 75.0361 39.1277C67.2001 41.7339 67.2646 48.0697 67.3281 54.1966C67.3342 54.7609 67.3393 55.3312 67.3393 55.9037C67.3396 56.2713 67.4858 56.6239 67.7457 56.8838C68.0057 57.1438 68.3582 57.29 68.7259 57.2903C80.5312 57.2903 87.7558 51.5136 88.0569 51.2678C88.1823 51.1655 88.2891 51.0421 88.3723 50.9032L90.8147 46.807C91.2727 46.0351 91.5466 45.168 91.6149 44.273C91.6833 43.3781 91.5444 42.4794 91.2089 41.6468ZM88.4338 45.3887L86.1296 49.2555C81.4001 52.4982 75.8391 54.3149 70.1073 54.4895C70.1073 54.3871 70.1073 54.2754 70.1073 54.1689C70.0408 47.6949 70.2865 43.6335 75.9188 41.7595C78.2167 41.0308 80.6131 40.6605 83.0237 40.6617C84.3064 40.6425 85.5866 40.7839 86.8342 41.0826C87.2426 41.1884 87.62 41.3897 87.9353 41.6699C88.2506 41.9502 88.4948 42.3013 88.6478 42.6944C88.8221 43.1299 88.8934 43.5997 88.8561 44.0673C88.8188 44.5349 88.6739 44.9875 88.4327 45.3898L88.4338 45.3887Z" fill="url(#paint12_linear_861_36283)"/>
<path d="M97.8418 41.8414C97.1822 41.3554 96.4242 41.0196 95.6211 40.8573C94.818 40.6951 93.9892 40.7105 93.1926 40.9023C90.5854 41.3938 88.9213 44.4199 88.653 44.9412L85.9905 49.4931C85.827 49.7707 85.7658 50.0967 85.8174 50.4147C86.608 55.4326 96.4675 58.7362 97.5879 59.0966C97.7248 59.1409 97.8679 59.1634 98.0118 59.1632C98.3795 59.1632 98.7322 59.0171 98.9923 58.7571C99.2523 58.497 99.3984 58.1444 99.3984 57.7766V45.5023C99.4357 44.8138 99.3148 44.1258 99.045 43.4912C98.7752 42.8566 98.3636 42.2922 97.8418 41.8414ZM96.6242 55.8022C93.2571 54.4761 89.4364 52.3379 88.6714 50.3983L91.0687 46.3083C91.0841 46.2816 91.0974 46.2561 91.1107 46.2294C91.4937 45.4675 92.6345 43.8301 93.7108 43.6253C94.108 43.5188 94.5228 43.495 94.9295 43.5554C95.3363 43.6158 95.7263 43.7592 96.0753 43.9765C96.283 44.1669 96.4413 44.4048 96.5367 44.6699C96.6321 44.9349 96.6618 45.2192 96.6232 45.4982L96.6242 55.8022Z" fill="url(#paint13_linear_861_36283)"/>
<path d="M94.6509 78.9608H92.91V81.7339H94.6509C101.523 81.7339 113.053 84.9003 113.053 106.106V114.523L54.3125 114.719V106.105C54.241 102.01 54.8288 97.93 56.0534 94.0215C57.8454 88.1936 62.0328 83.865 67.2688 82.4364C69.0437 81.9522 70.877 81.7155 72.7167 81.7329H74.4576V78.9598H72.7167C70.6257 78.9423 68.5422 79.2135 66.5253 79.7657C60.381 81.4421 55.4768 86.4671 53.4174 93.1726C52.1045 97.355 51.4724 101.721 51.5455 106.104V116.108C51.5455 116.476 51.6916 116.829 51.9516 117.089C52.2116 117.349 52.5643 117.495 52.932 117.495L114.446 117.29C114.813 117.288 115.164 117.142 115.423 116.882C115.681 116.622 115.827 116.27 115.827 115.903V106.104C115.826 88.8552 108.108 78.9608 94.6509 78.9608Z" fill="url(#paint14_linear_861_36283)"/>
<defs>
<linearGradient id="paint0_linear_861_36283" x1="260.196" y1="96.5413" x2="279.314" y2="105.119" gradientUnits="userSpaceOnUse">
<stop stop-color="#846E55"/>
<stop offset="1" stop-color="#B3A55C"/>
</linearGradient>
<linearGradient id="paint1_linear_861_36283" x1="189.516" y1="145.433" x2="230.011" y2="163.603" gradientUnits="userSpaceOnUse">
<stop stop-color="#846E55"/>
<stop offset="1" stop-color="#B3A55C"/>
</linearGradient>
<linearGradient id="paint2_linear_861_36283" x1="179.468" y1="136.277" x2="251.949" y2="168.797" gradientUnits="userSpaceOnUse">
<stop stop-color="#846E55"/>
<stop offset="1" stop-color="#B3A55C"/>
</linearGradient>
<linearGradient id="paint3_linear_861_36283" x1="183.988" y1="140.255" x2="242.596" y2="166.555" gradientUnits="userSpaceOnUse">
<stop stop-color="#846E55"/>
<stop offset="1" stop-color="#B3A55C"/>
</linearGradient>
<linearGradient id="paint4_linear_861_36283" x1="57.0824" y1="87.5395" x2="90.1807" y2="98.7843" gradientUnits="userSpaceOnUse">
<stop stop-color="#846E55"/>
<stop offset="1" stop-color="#B3A55C"/>
</linearGradient>
<linearGradient id="paint5_linear_861_36283" x1="88.8893" y1="86.0861" x2="124.224" y2="98.2081" gradientUnits="userSpaceOnUse">
<stop stop-color="#846E55"/>
<stop offset="1" stop-color="#B3A55C"/>
</linearGradient>
<linearGradient id="paint6_linear_861_36283" x1="71.0168" y1="80.7444" x2="107.584" y2="89.5811" gradientUnits="userSpaceOnUse">
<stop stop-color="#846E55"/>
<stop offset="1" stop-color="#B3A55C"/>
</linearGradient>
<linearGradient id="paint7_linear_861_36283" x1="75.7502" y1="92.073" x2="88.8803" y2="93.6671" gradientUnits="userSpaceOnUse">
<stop stop-color="#846E55"/>
<stop offset="1" stop-color="#B3A55C"/>
</linearGradient>
<linearGradient id="paint8_linear_861_36283" x1="88.8695" y1="75.7049" x2="93.8183" y2="76.9673" gradientUnits="userSpaceOnUse">
<stop stop-color="#846E55"/>
<stop offset="1" stop-color="#B3A55C"/>
</linearGradient>
<linearGradient id="paint9_linear_861_36283" x1="74.6466" y1="75.5934" x2="79.6096" y2="76.8293" gradientUnits="userSpaceOnUse">
<stop stop-color="#846E55"/>
<stop offset="1" stop-color="#B3A55C"/>
</linearGradient>
<linearGradient id="paint10_linear_861_36283" x1="68.3537" y1="50.1259" x2="113.596" y2="71.16" gradientUnits="userSpaceOnUse">
<stop stop-color="#846E55"/>
<stop offset="1" stop-color="#B3A55C"/>
</linearGradient>
<linearGradient id="paint11_linear_861_36283" x1="74.3734" y1="56.9345" x2="100.027" y2="70.4892" gradientUnits="userSpaceOnUse">
<stop stop-color="#846E55"/>
<stop offset="1" stop-color="#B3A55C"/>
</linearGradient>
<linearGradient id="paint12_linear_861_36283" x1="66.9454" y1="38.8216" x2="102.043" y2="58.575" gradientUnits="userSpaceOnUse">
<stop stop-color="#846E55"/>
<stop offset="1" stop-color="#B3A55C"/>
</linearGradient>
<linearGradient id="paint13_linear_861_36283" x1="85.5918" y1="41.6158" x2="108.891" y2="49.3385" gradientUnits="userSpaceOnUse">
<stop stop-color="#846E55"/>
<stop offset="1" stop-color="#B3A55C"/>
</linearGradient>
<linearGradient id="paint14_linear_861_36283" x1="50.5583" y1="80.7787" x2="128.871" y2="139.396" gradientUnits="userSpaceOnUse">
<stop stop-color="#846E55"/>
<stop offset="1" stop-color="#B3A55C"/>
</linearGradient>
</defs>
</svg>
