<svg width="199" height="119" viewBox="0 0 199 119" fill="none" xmlns="http://www.w3.org/2000/svg">
<g clip-path="url(#clip0_1146_7152)">
<g opacity="0.272">
<path d="M26.9273 111.457C38.723 111.457 48.2853 101.895 48.2853 90.099C48.2853 78.3033 38.723 68.741 26.9273 68.741C15.1316 68.741 5.56934 78.3033 5.56934 90.099C5.56934 101.895 15.1316 111.457 26.9273 111.457Z" fill="#272421"/>
<path d="M32.782 117.415C33.0633 117.643 33.4058 117.782 33.7663 117.815C34.1267 117.848 34.4889 117.773 34.807 117.601C35.1251 117.428 35.3848 117.165 35.5533 116.844C35.7218 116.524 35.7915 116.161 35.7535 115.801C35.7156 115.441 35.5717 115.1 35.3402 114.822C35.1086 114.544 34.7998 114.34 34.4526 114.238C34.1055 114.135 33.7357 114.138 33.3901 114.245C33.0445 114.353 32.7384 114.56 32.5108 114.842C32.2057 115.219 32.0628 115.702 32.1137 116.184C32.1645 116.667 32.4049 117.109 32.782 117.415Z" fill="#272421"/>
<path d="M39.3547 113.551C39.5466 113.707 39.7803 113.802 40.0262 113.824C40.2721 113.847 40.5192 113.796 40.7362 113.679C40.9533 113.561 41.1306 113.381 41.2457 113.163C41.3608 112.944 41.4086 112.697 41.3829 112.451C41.3573 112.205 41.2595 111.973 41.1018 111.783C40.9441 111.593 40.7336 111.454 40.4969 111.384C40.2602 111.313 40.0079 111.314 39.772 111.387C39.536 111.46 39.327 111.601 39.1713 111.793C39.0679 111.921 38.9906 112.067 38.9439 112.225C38.8971 112.382 38.8818 112.547 38.8988 112.71C38.9159 112.873 38.9649 113.032 39.0431 113.176C39.1213 113.32 39.2272 113.448 39.3547 113.551Z" fill="#272421"/>
<path d="M2.31512 84.1642C2.77397 84.1642 3.22252 84.0281 3.60404 83.7732C3.98556 83.5183 4.28292 83.1559 4.45852 82.732C4.63411 82.3081 4.68006 81.8416 4.59054 81.3916C4.50102 80.9415 4.28006 80.5281 3.95561 80.2037C3.63115 79.8792 3.21776 79.6583 2.76773 79.5687C2.31769 79.4792 1.85122 79.5252 1.42729 79.7008C1.00337 79.8764 0.641033 80.1737 0.386108 80.5552C0.131184 80.9368 -0.00488281 81.3853 -0.00488281 81.8442C-0.00488281 82.4595 0.239546 83.0496 0.67463 83.4847C1.10971 83.9197 1.69982 84.1642 2.31512 84.1642Z" fill="#272421"/>
</g>
<g opacity="0.272">
<path d="M182.57 24.6391C187.514 20.9147 188.502 13.8883 184.777 8.94512C181.053 4.00196 174.026 3.01394 169.083 6.73833C164.14 10.4627 163.152 17.4892 166.876 22.4323C170.601 27.3755 177.627 28.3635 182.57 24.6391Z" fill="#272421"/>
<path d="M181.998 28.9832C181.952 29.1675 181.853 29.3339 181.712 29.4616C181.572 29.5892 181.396 29.6723 181.209 29.7004C181.021 29.7284 180.829 29.7002 180.657 29.6192C180.485 29.5382 180.342 29.408 180.244 29.2453C180.146 29.0825 180.099 28.8944 180.108 28.7048C180.117 28.5151 180.182 28.3324 180.295 28.1798C180.408 28.0272 180.564 27.9115 180.742 27.8474C180.921 27.7832 181.115 27.7735 181.299 27.8194C181.546 27.8811 181.758 28.0383 181.89 28.2565C182.021 28.4748 182.06 28.7362 181.998 28.9832Z" fill="url(#paint0_linear_1146_7152)"/>
<path d="M178.023 29.4395C177.992 29.5652 177.924 29.6788 177.828 29.7659C177.732 29.853 177.612 29.9097 177.484 29.9288C177.356 29.9479 177.225 29.9287 177.108 29.8734C176.991 29.8181 176.893 29.7293 176.826 29.6183C176.759 29.5072 176.727 29.3789 176.733 29.2495C176.74 29.1201 176.784 28.9955 176.861 28.8913C176.938 28.7872 177.044 28.7083 177.166 28.6645C177.288 28.6207 177.42 28.6141 177.546 28.6455C177.715 28.6875 177.86 28.7948 177.949 28.9437C178.039 29.0926 178.065 29.2709 178.023 29.4395Z" fill="url(#paint1_linear_1146_7152)"/>
<path d="M184.263 5.4321C184.071 5.57695 183.84 5.66153 183.599 5.67516C183.359 5.68879 183.12 5.63085 182.913 5.50867C182.705 5.38649 182.539 5.20556 182.434 4.98875C182.33 4.77195 182.292 4.52901 182.325 4.29065C182.359 4.0523 182.462 3.82923 182.623 3.64967C182.783 3.4701 182.993 3.3421 183.226 3.28185C183.459 3.2216 183.705 3.23181 183.932 3.31118C184.159 3.39056 184.358 3.53553 184.502 3.72777C184.697 3.98556 184.781 4.30995 184.736 4.62957C184.691 4.9492 184.521 5.23788 184.263 5.4321Z" fill="#272421"/>
</g>
<path d="M70.961 94.0629C70.4934 94.0369 70.027 94.0026 69.5617 93.9601L69.3436 96.353C69.8354 96.3979 70.3296 96.4337 70.8261 96.4604C71.1547 96.479 71.4828 96.4938 71.8104 96.5048L71.8914 94.1037C71.5818 94.0939 71.2716 94.0802 70.961 94.0629ZM74.2242 94.1175L74.2794 96.5196C75.0991 96.5005 75.9301 96.4577 76.7474 96.3908L76.5528 93.9954C75.7817 94.0577 74.9973 94.0989 74.2243 94.1165L74.2242 94.1175ZM79.2051 96.1192C80.0147 96.0058 80.835 95.8676 81.6411 95.7072L81.1736 93.3502C80.4111 93.5016 79.6373 93.6332 78.873 93.7398L79.2051 96.1192ZM52.8783 91.4094L54.0169 89.2933C53.3373 88.9271 52.6562 88.5355 51.9945 88.1275L50.7357 90.1722C51.4367 90.609 52.1579 91.0244 52.8779 91.4124L52.8783 91.4094ZM56.103 90.3438L55.0897 92.524C55.8337 92.8709 56.5983 93.2005 57.3615 93.5037L58.2489 91.2705C57.5262 90.9811 56.8054 90.6708 56.103 90.3438ZM60.4418 92.0644L59.687 94.3456C60.4705 94.6051 61.2671 94.8433 62.0543 95.0549L62.6764 92.7339C61.9336 92.5366 61.1816 92.3118 60.4414 92.0674L60.4418 92.0644ZM64.9454 93.273L64.4579 95.628C65.2644 95.7959 66.0821 95.9411 66.8904 96.0608L67.2432 93.6868C66.479 93.5703 65.7065 93.4334 64.946 93.2761L64.9454 93.273ZM38.1885 78.4317L40.1463 77.0396C39.6979 76.408 39.2614 75.7559 38.8486 75.1001L36.8142 76.3835C37.2515 77.073 37.7128 77.764 38.1885 78.4317ZM35.5609 74.2503L37.6659 73.09C37.2908 72.4101 36.9315 71.7123 36.5994 71.0214L34.434 72.0581C34.7833 72.7919 35.1638 73.526 35.5608 74.2513L35.5609 74.2503ZM48.6666 88.8211L50.0413 86.8502C49.4085 86.4088 48.7774 85.9415 48.1665 85.4597L46.6822 87.3485C47.3295 87.8586 47.9967 88.3563 48.6666 88.8211ZM31.2275 62.7341C31.4021 63.5322 31.6074 64.3416 31.8249 65.1296L34.1377 64.4811C33.9285 63.7348 33.7385 62.9739 33.5746 62.2218L31.2275 62.7341ZM33.4299 69.7974L35.6534 68.886C35.3587 68.1659 35.0821 67.4323 34.8328 66.7055L32.5601 67.4858C32.8245 68.2561 33.117 69.0344 33.4299 69.7974ZM41.277 82.287L43.0641 80.6801C42.5474 80.1026 42.0393 79.5071 41.554 78.9006L39.6786 80.4032C40.1923 81.045 40.7292 81.6799 41.277 82.287ZM44.7851 85.7651L46.3756 83.969C45.7961 83.4574 45.2233 82.9204 44.6719 82.3744L42.9817 84.0757C43.5648 84.6545 44.1717 85.2225 44.7851 85.7651Z" fill="#272421"/>
<path d="M155.022 16.9523C155.49 16.9783 155.956 17.0125 156.422 17.055L156.64 14.6621C156.148 14.6172 155.654 14.5814 155.157 14.5547C154.829 14.5362 154.501 14.5213 154.173 14.5103L154.092 16.9114C154.402 16.9213 154.712 16.9349 155.022 16.9523ZM151.759 16.8976L151.704 14.4955C150.884 14.5147 150.053 14.5574 149.236 14.6243L149.431 17.0197C150.202 16.9574 150.986 16.9162 151.759 16.8986L151.759 16.8976ZM146.778 14.8959C145.969 15.0093 145.148 15.1475 144.342 15.3079L144.81 17.6649C145.572 17.5136 146.346 17.382 147.11 17.2753L146.778 14.8959ZM173.105 19.6057L171.966 21.7219C172.646 22.088 173.327 22.4796 173.989 22.8877L175.248 20.843C174.547 20.4062 173.825 19.9907 173.105 19.6028L173.105 19.6057ZM169.88 20.6713L170.894 18.4911C170.15 18.1442 169.385 17.8146 168.622 17.5114L167.734 19.7446C168.457 20.034 169.178 20.3444 169.88 20.6713ZM165.542 18.9507L166.296 16.6696C165.513 16.41 164.716 16.1718 163.929 15.9602L163.307 18.2812C164.05 18.4785 164.802 18.7034 165.542 18.9478L165.542 18.9507ZM161.037 17.742L161.524 15.387C160.719 15.2192 159.901 15.074 159.093 14.9544L158.74 17.3284C159.504 17.4449 160.277 17.5817 161.037 17.7391L161.037 17.742ZM187.795 32.5835L185.837 33.9755C186.286 34.6071 186.722 35.2592 187.135 35.915L189.169 34.6317C188.732 33.9421 188.271 33.2512 187.795 32.5835ZM190.422 36.7648L188.318 37.9252C188.693 38.605 189.052 39.3028 189.384 39.9937L191.549 38.957C191.2 38.2243 190.82 37.4892 190.423 36.7639L190.422 36.7648ZM177.317 22.1941L175.942 24.1649C176.575 24.6063 177.206 25.0737 177.817 25.5554L179.301 23.6666C178.654 23.1565 177.987 22.6588 177.317 22.1941ZM194.756 48.281C194.581 47.4829 194.376 46.6735 194.158 45.8856L191.846 46.534C192.055 47.2804 192.245 48.0412 192.409 48.7933L194.756 48.281ZM192.554 41.2178L190.33 42.1292C190.625 42.8492 190.901 43.5828 191.151 44.3096L193.423 43.5293C193.159 42.759 192.866 41.9807 192.554 41.2178ZM184.706 28.7281L182.919 30.335C183.436 30.9126 183.944 31.5081 184.429 32.1145L186.305 30.6119C185.791 29.9702 185.254 29.3353 184.706 28.7281ZM181.198 25.25L179.608 27.0462C180.187 27.5578 180.76 28.0947 181.311 28.6408L183.002 26.9395C182.419 26.3607 181.812 25.7927 181.198 25.25Z" fill="#272421"/>
</g>
<defs>
<linearGradient id="paint0_linear_1146_7152" x1="182.15" y1="28.0014" x2="180.092" y2="30.619" gradientUnits="userSpaceOnUse">
<stop stop-color="#846E55"/>
<stop offset="1" stop-color="#B3A55C"/>
</linearGradient>
<linearGradient id="paint1_linear_1146_7152" x1="178.126" y1="28.7696" x2="176.723" y2="30.5556" gradientUnits="userSpaceOnUse">
<stop stop-color="#846E55"/>
<stop offset="1" stop-color="#B3A55C"/>
</linearGradient>
<clipPath id="clip0_1146_7152">
<rect width="198.658" height="118.566" fill="white"/>
</clipPath>
</defs>
</svg>
