<svg width="42" height="42" viewBox="0 0 42 42" fill="none" xmlns="http://www.w3.org/2000/svg">
<g clip-path="url(#clip0_1146_7207)">
<path d="M18.5616 36.6371C18.3506 36.1001 17.0086 32.6661 17.0086 32.6661C19.4803 33.4565 22.1369 33.4565 24.6086 32.6661C24.6086 32.6661 23.2666 36.1021 23.0566 36.6381L18.5616 36.6371ZM8.02561 30.4141C8.25561 29.8861 9.73861 26.5091 9.73861 26.5091C10.9308 28.809 12.8061 30.6832 15.1066 31.8741C15.1066 31.8741 11.7286 33.3571 11.2066 33.5871L8.02561 30.4141ZM26.5076 31.8741C28.8081 30.683 30.683 28.8084 31.8746 26.5081C31.8746 26.5081 33.3576 29.8861 33.5876 30.4141L30.4116 33.5871C29.8866 33.3571 26.5076 31.8741 26.5076 31.8741ZM33.2616 20.8051C33.2629 19.5178 33.0635 18.2381 32.6706 17.0121L36.6406 18.5611V23.0501L32.6746 24.5991C33.0662 23.3726 33.2642 22.0926 33.2616 20.8051ZM4.97461 23.0491V18.5611C5.51161 18.3501 8.94461 17.0121 8.94461 17.0121C8.15745 19.4799 8.15745 22.1314 8.94461 24.5991C8.94461 24.5991 5.51161 23.2601 4.97461 23.0491ZM26.5076 9.73712C26.5076 9.73712 29.8876 8.25312 30.4146 8.02312L33.5896 11.1961C33.3596 11.7241 31.8766 15.1021 31.8766 15.1021C30.684 12.8022 28.8084 10.928 26.5076 9.73712ZM8.02561 11.1981L11.2016 8.02412C11.7286 8.25312 15.1016 9.73612 15.1016 9.73612C12.8009 10.9273 10.9257 12.8019 9.73361 15.1021C9.73361 15.1021 8.25661 11.7261 8.02561 11.1981ZM20.8056 8.35312C19.5159 8.35175 18.2338 8.55148 17.0056 8.94512C17.0056 8.94512 18.3506 5.51012 18.5616 4.97412H23.0546C23.2656 5.51012 24.6076 8.94612 24.6066 8.94612C23.3781 8.55208 22.0957 8.35201 20.8056 8.35312Z" fill="url(#paint0_linear_1146_7207)"/>
<path d="M40.857 14.8761C40.857 14.8761 39.502 14.3391 37.917 13.7181C38.597 12.1601 39.175 10.8181 39.175 10.8181C39.2705 10.5973 39.2974 10.353 39.2523 10.1167C39.2072 9.88043 39.0921 9.66318 38.922 9.49312L32.115 2.68512C31.9449 2.5148 31.7274 2.3996 31.4909 2.35449C31.2545 2.30937 31.0099 2.33641 30.789 2.43212C30.789 2.43212 29.453 3.01012 27.896 3.69012C27.275 2.10812 26.739 0.754118 26.739 0.754118C26.6505 0.53012 26.4966 0.33794 26.2974 0.202574C26.0982 0.0672088 25.8629 -0.00507743 25.622 -0.00488242H15.994C15.7531 -0.00507743 15.5178 0.0672088 15.3186 0.202574C15.1194 0.33794 14.9655 0.53012 14.877 0.754118C14.877 0.754118 14.34 2.10812 13.72 3.69012C12.163 3.01012 10.827 2.43212 10.827 2.43212C10.606 2.33619 10.3612 2.30903 10.1245 2.35415C9.88784 2.39928 9.67023 2.5146 9.5 2.68512L2.69 9.49112C2.51948 9.66134 2.40416 9.87896 2.35903 10.1156C2.31391 10.3523 2.34108 10.5971 2.437 10.8181C2.437 10.8181 3.016 12.1561 3.698 13.7181C2.114 14.3391 0.76 14.8761 0.76 14.8761C0.535815 14.9645 0.343423 15.1183 0.20787 15.3175C0.0723177 15.5167 -0.000115489 15.7522 3.93543e-07 15.9931V25.6181C-0.00019462 25.859 0.0720915 26.0943 0.207457 26.2935C0.342822 26.4927 0.535002 26.6466 0.759 26.7351C0.759 26.7351 2.114 27.2721 3.698 27.8931C3.017 29.4501 2.437 30.7931 2.437 30.7931C2.34218 31.0135 2.3156 31.2573 2.3607 31.4929C2.4058 31.7286 2.5205 31.9453 2.69 32.1151L9.5 38.9221C9.67014 39.0924 9.88758 39.2076 10.1241 39.2528C10.3605 39.2979 10.6051 39.2708 10.826 39.1751C10.826 39.1751 12.162 38.5971 13.719 37.9171C14.34 39.4991 14.876 40.8531 14.876 40.8531C14.9645 41.0771 15.1184 41.2693 15.3176 41.4047C15.5168 41.54 15.7521 41.6123 15.993 41.6121H25.621C25.8619 41.6123 26.0972 41.54 26.2964 41.4047C26.4956 41.2693 26.6495 41.0771 26.738 40.8531C26.738 40.8531 27.275 39.4991 27.895 37.9171C29.452 38.5971 30.788 39.1751 30.788 39.1751C31.0089 39.2708 31.2535 39.2979 31.4899 39.2528C31.7264 39.2076 31.9439 39.0924 32.114 38.9221L38.921 32.1151C39.0911 31.9451 39.2062 31.7278 39.2513 31.4915C39.2964 31.2553 39.2695 31.0109 39.174 30.7901C39.174 30.7901 38.596 29.4511 37.916 27.8901C39.501 27.2691 40.856 26.7321 40.856 26.7321C41.08 26.6436 41.2722 26.4897 41.4075 26.2905C41.5429 26.0913 41.6152 25.856 41.615 25.6151V15.9931C41.6153 15.7524 41.5431 15.5171 41.408 15.3179C41.2728 15.1187 41.0808 14.9648 40.857 14.8761ZM39.213 24.8011C38.428 25.1111 37.141 25.6181 35.879 26.1101C35.7282 26.1688 35.5908 26.2574 35.4751 26.3705C35.3594 26.4837 35.2678 26.619 35.2057 26.7685C35.1437 26.918 35.1126 27.0784 35.1142 27.2403C35.1157 27.4021 35.15 27.5619 35.215 27.7101C35.76 28.9491 36.315 30.2181 36.646 30.9921L30.994 36.6451C30.22 36.3091 28.954 35.7581 27.716 35.2151C27.5678 35.1501 27.4081 35.1158 27.2463 35.1141C27.0845 35.1125 26.9241 35.1435 26.7746 35.2055C26.6252 35.2674 26.4898 35.3589 26.3766 35.4745C26.2634 35.5901 26.1748 35.7274 26.116 35.8781C25.624 37.1381 25.116 38.4241 24.807 39.2091H16.811C16.501 38.4241 15.994 37.1381 15.502 35.8781C15.4432 35.7274 15.3546 35.5901 15.2414 35.4745C15.1282 35.3589 14.9928 35.2674 14.8434 35.2055C14.6939 35.1435 14.5335 35.1125 14.3717 35.1141C14.2099 35.1158 14.0502 35.1501 13.902 35.2151C12.664 35.7591 11.402 36.3091 10.624 36.6451L4.967 30.9951C5.304 30.2201 5.856 28.9511 6.4 27.7131C6.46495 27.5649 6.49926 27.4051 6.50085 27.2433C6.50244 27.0814 6.47128 26.921 6.40925 26.7715C6.34722 26.622 6.2556 26.4867 6.1399 26.3735C6.02421 26.2604 5.88682 26.1718 5.736 26.1131C4.474 25.6211 3.188 25.1131 2.402 24.8041V16.8101C3.187 16.5001 4.474 15.9931 5.736 15.5011C5.88682 15.4424 6.02421 15.3539 6.1399 15.2407C6.2556 15.1276 6.34722 14.9922 6.40925 14.8427C6.47128 14.6933 6.50244 14.5328 6.50085 14.371C6.49926 14.2092 6.46495 14.0493 6.4 13.9011C5.856 12.6621 5.3 11.3941 4.967 10.6191L10.621 4.96812C11.395 5.30412 12.661 5.85512 13.899 6.39812C14.0472 6.4631 14.2069 6.49745 14.3687 6.49911C14.5305 6.50076 14.6909 6.46969 14.8404 6.40776C14.9898 6.34583 15.1252 6.25432 15.2384 6.13872C15.3516 6.02313 15.4402 5.88584 15.499 5.73512C15.991 4.47512 16.499 3.18912 16.808 2.40412H24.8C25.111 3.18912 25.617 4.47512 26.109 5.73512C26.1678 5.88584 26.2564 6.02313 26.3696 6.13872C26.4828 6.25432 26.6182 6.34583 26.7676 6.40776C26.9171 6.46969 27.0775 6.50076 27.2393 6.49911C27.4011 6.49745 27.5608 6.4631 27.709 6.39812C28.947 5.85412 30.209 5.30312 30.987 4.96812L36.638 10.6191C36.302 11.3931 35.751 12.6621 35.207 13.9011C35.142 14.0493 35.1077 14.2092 35.1062 14.371C35.1046 14.5328 35.1357 14.6933 35.1977 14.8427C35.2598 14.9922 35.3514 15.1276 35.4671 15.2407C35.5828 15.3539 35.7202 15.4424 35.871 15.5011C37.133 15.9931 38.419 16.5011 39.205 16.8101V24.8011H39.213Z" fill="#272421"/>
<path d="M20.8057 10.9263C18.8518 10.9269 16.9419 11.5068 15.3175 12.5928C13.6931 13.6788 12.4273 15.222 11.6799 17.0274C10.9326 18.8328 10.7374 20.8193 11.1189 22.7356C11.5005 24.6519 12.4417 26.4121 13.8236 27.7935C15.2054 29.175 16.9659 30.1157 18.8823 30.4967C20.7988 30.8776 22.7852 30.6818 24.5903 29.9339C26.3955 29.186 27.9383 27.9197 29.0238 26.295C30.1093 24.6703 30.6887 22.7602 30.6887 20.8063C30.6858 18.1863 29.6435 15.6745 27.7907 13.8222C25.9378 11.9699 23.4257 10.9284 20.8057 10.9263ZM20.8057 28.2833C19.3271 28.2825 17.8819 27.8433 16.6528 27.0212C15.4237 26.1992 14.466 25.0311 13.9007 23.6648C13.3354 22.2985 13.1879 20.7953 13.4769 19.3451C13.7658 17.895 14.4783 16.5631 15.5241 15.5178C16.5699 14.4725 17.9022 13.7608 19.3525 13.4726C20.8028 13.1845 22.306 13.3328 23.672 13.8988C25.038 14.4648 26.2055 15.4232 27.0269 16.6527C27.8483 17.8822 28.2867 19.3276 28.2867 20.8063C28.2843 22.7893 27.4953 24.6903 26.0927 26.0921C24.6901 27.4939 22.7887 28.2819 20.8057 28.2833Z" fill="#272421"/>
</g>
<defs>
<linearGradient id="paint0_linear_1146_7207" x1="4.49116" y1="6.46937" x2="54.5904" y2="28.9491" gradientUnits="userSpaceOnUse">
<stop stop-color="#846E55"/>
<stop offset="1" stop-color="#B3A55C"/>
</linearGradient>
<clipPath id="clip0_1146_7207">
<rect width="41.615" height="41.612" fill="white"/>
</clipPath>
</defs>
</svg>
