<svg width="257" height="250" viewBox="0 0 257 250" fill="none" xmlns="http://www.w3.org/2000/svg">
<path d="M124.824 215.161C177.183 215.161 219.627 172.717 219.627 120.359C219.627 68.001 177.183 25.5566 124.824 25.5566C72.4657 25.5566 30.021 68.001 30.021 120.359C30.021 172.717 72.4657 215.161 124.824 215.161Z" fill="#C3B075" fill-opacity="0.03"/>
<path opacity="0.3" d="M233.395 156.511C235.002 156.511 236.572 156.035 237.907 155.142C239.243 154.25 240.284 152.982 240.898 151.498C241.513 150.014 241.674 148.381 241.361 146.805C241.047 145.23 240.274 143.783 239.138 142.647C238.002 141.511 236.555 140.738 234.98 140.425C233.404 140.111 231.772 140.272 230.288 140.887C228.804 141.501 227.535 142.542 226.643 143.878C225.75 145.213 225.274 146.784 225.274 148.39C225.274 150.544 226.13 152.609 227.653 154.132C229.176 155.655 231.242 156.511 233.395 156.511Z" fill="url(#paint0_linear_848_5706)"/>
<path opacity="0.2" d="M245.282 124.817C246.379 124.817 247.453 124.492 248.365 123.882C249.278 123.272 249.989 122.405 250.409 121.391C250.83 120.377 250.939 119.261 250.725 118.184C250.511 117.108 249.983 116.119 249.206 115.343C248.43 114.566 247.441 114.038 246.365 113.824C245.288 113.61 244.172 113.719 243.158 114.14C242.144 114.56 241.277 115.271 240.667 116.184C240.057 117.096 239.731 118.17 239.731 119.267C239.731 120.739 240.316 122.151 241.357 123.192C242.398 124.233 243.81 124.817 245.282 124.817Z" fill="url(#paint1_linear_848_5706)"/>
<path opacity="0.3" d="M15.5974 94.0157C17.6345 94.0157 19.6259 93.4117 21.3197 92.2799C23.0135 91.1481 24.3337 89.5395 25.1133 87.6575C25.8929 85.7754 26.0968 83.7044 25.6994 81.7065C25.302 79.7085 24.321 77.8732 22.8805 76.4328C21.4401 74.9923 19.6048 74.0114 17.6068 73.6139C15.6088 73.2165 13.5378 73.4205 11.6558 74.2001C9.77369 74.9796 8.16505 76.2998 7.03328 77.9936C5.90151 79.6874 5.29742 81.6788 5.29742 83.7159C5.29742 86.4476 6.38259 89.0674 8.31421 90.999C10.2458 92.9306 12.8657 94.0157 15.5974 94.0157Z" fill="url(#paint2_linear_848_5706)"/>
<path opacity="0.2" d="M219.728 57.0871C220.826 57.0871 221.899 56.7616 222.812 56.1517C223.724 55.5419 224.436 54.675 224.856 53.6609C225.276 52.6467 225.386 51.5307 225.172 50.4541C224.958 49.3775 224.429 48.3885 223.653 47.6123C222.877 46.8361 221.888 46.3075 220.811 46.0933C219.734 45.8792 218.618 45.9891 217.604 46.4092C216.59 46.8293 215.723 47.5406 215.113 48.4534C214.503 49.3661 214.178 50.4392 214.178 51.5369C214.178 53.0089 214.763 54.4206 215.803 55.4615C216.844 56.5023 218.256 57.0871 219.728 57.0871Z" fill="url(#paint3_linear_848_5706)"/>
<path d="M85.5769 49.373L84.4657 50.0145L85.7107 52.171L86.822 51.5294L85.5769 49.373Z" fill="url(#paint4_linear_848_5706)"/>
<path d="M89.0081 55.3152L87.8969 55.9568L89.142 58.1132L90.2532 57.4717L89.0081 55.3152Z" fill="url(#paint5_linear_848_5706)"/>
<path d="M91.0915 50.8491L88.9351 52.0941L89.5766 53.2053L91.7331 51.9603L91.0915 50.8491Z" fill="url(#paint6_linear_848_5706)"/>
<path d="M85.1485 54.2796L82.992 55.5247L83.6336 56.6359L85.7901 55.3908L85.1485 54.2796Z" fill="url(#paint7_linear_848_5706)"/>
<path d="M53.2556 237.508H51.5416V240.835H53.2556V237.508Z" fill="url(#paint8_linear_848_5706)"/>
<path d="M53.2556 246.673H51.5416V250H53.2556V246.673Z" fill="url(#paint9_linear_848_5706)"/>
<path d="M58.6462 242.898H55.3198V244.612H58.6462V242.898Z" fill="url(#paint10_linear_848_5706)"/>
<path d="M49.4792 242.898H46.1528V244.612H49.4792V242.898Z" fill="url(#paint11_linear_848_5706)"/>
<path d="M3.93451 72.9371C5.81111 72.9371 7.33239 71.4158 7.33239 69.5392C7.33239 67.6626 5.81111 66.1414 3.93451 66.1414C2.05791 66.1414 0.536621 67.6626 0.536621 69.5392C0.536621 71.4158 2.05791 72.9371 3.93451 72.9371Z" fill="url(#paint12_linear_848_5706)"/>
<path d="M16.0119 123.039C17.5004 123.039 18.7071 121.832 18.7071 120.343C18.7071 118.855 17.5004 117.648 16.0119 117.648C14.5234 117.648 13.3168 118.855 13.3168 120.343C13.3168 121.832 14.5234 123.039 16.0119 123.039Z" fill="url(#paint13_linear_848_5706)"/>
<path d="M253.426 141.71C255.089 141.71 256.437 140.362 256.437 138.699C256.437 137.036 255.089 135.687 253.426 135.687C251.763 135.687 250.415 137.036 250.415 138.699C250.415 140.362 251.763 141.71 253.426 141.71Z" fill="url(#paint14_linear_848_5706)"/>
<path d="M192.457 148.408L191.474 147.583L189.873 149.491L190.856 150.315L192.457 148.408Z" fill="url(#paint15_linear_848_5706)"/>
<path d="M188.044 153.664L187.061 152.839L185.46 154.747L186.443 155.572L188.044 153.664Z" fill="url(#paint16_linear_848_5706)"/>
<path d="M192.959 154.091L191.051 152.491L190.227 153.474L192.134 155.074L192.959 154.091Z" fill="url(#paint17_linear_848_5706)"/>
<path d="M187.703 149.681L185.795 148.08L184.971 149.063L186.878 150.664L187.703 149.681Z" fill="url(#paint18_linear_848_5706)"/>
<path d="M212.627 46.7064C214.115 46.7064 215.322 45.4998 215.322 44.0113C215.322 42.5228 214.115 41.3162 212.627 41.3162C211.138 41.3162 209.932 42.5228 209.932 44.0113C209.932 45.4998 211.138 46.7064 212.627 46.7064Z" fill="url(#paint19_linear_848_5706)"/>
<path d="M126.112 27.6063C132.577 27.6063 137.819 22.3652 137.819 15.9001C137.819 9.4349 132.577 4.19385 126.112 4.19385C119.647 4.19385 114.406 9.4349 114.406 15.9001C114.406 22.3652 119.647 27.6063 126.112 27.6063Z" fill="url(#paint20_linear_848_5706)"/>
<g opacity="0.696">
<path d="M125.947 32.1432C125.378 32.1432 124.809 32.0915 124.24 32.0397L124.395 30.3841C124.913 30.4358 125.43 30.4875 125.947 30.4875H126.103V32.1432H125.947ZM127.863 32.0397L127.656 30.3841C128.173 30.3323 128.691 30.2288 129.208 30.1254L129.57 31.7293L127.863 32.0397ZM122.48 31.781C121.914 31.6793 121.359 31.5218 120.824 31.3107L121.342 29.7585C121.859 29.9137 122.325 30.0689 122.847 30.1724L122.48 31.781ZM131.229 31.2636L130.66 29.7114C131.13 29.5562 131.643 29.3493 132.108 29.1423L132.833 30.6474C132.312 30.8497 131.743 31.0567 131.226 31.2636H131.229ZM119.222 30.6428C118.705 30.3841 118.187 30.1254 117.67 29.8149L118.498 28.418C118.968 28.6767 119.429 28.9354 119.895 29.1423L119.222 30.6428ZM134.334 29.7632L133.454 28.3662C133.905 28.1031 134.337 27.8092 134.748 27.4867L135.783 28.7801C135.314 29.0896 134.849 29.449 134.331 29.7632H134.334ZM116.218 28.8846C115.747 28.5224 115.338 28.1602 114.872 27.7463L116.011 26.5563C116.384 26.9116 116.781 27.2401 117.201 27.5393L116.218 28.8846ZM137.074 27.6428L135.936 26.4528C136.308 26.0985 136.653 25.7181 136.971 25.3146L138.213 26.3493C137.876 26.8158 137.495 27.2483 137.074 27.6409V27.6428ZM113.733 26.5046C113.347 26.0705 113.001 25.603 112.698 25.1076L114.044 24.1763L114.975 25.418L113.733 26.5046ZM139.299 24.9524L137.954 24.0211C138.262 23.6029 138.522 23.1517 138.73 22.6759L140.179 23.4519C139.916 23.9686 139.622 24.4687 139.299 24.9496V24.9524ZM111.767 23.6561C111.508 23.1387 111.25 22.6213 111.043 22.1039L112.595 21.483C112.802 21.9534 113.009 22.4143 113.267 22.88L111.767 23.6561ZM140.904 21.896L139.352 21.2751C139.563 20.7921 139.721 20.2874 139.822 19.77L141.426 20.1839C141.283 20.7637 141.109 21.3352 140.904 21.896ZM110.473 20.4473C110.317 19.8782 110.214 19.3091 110.11 18.7399L111.714 18.4812C111.804 18.9898 111.925 19.4925 112.077 19.9864L110.473 20.4473ZM141.784 18.5367L140.18 18.278C140.283 17.7606 140.283 17.2432 140.335 16.7259L141.99 16.7776C141.939 17.3938 141.888 17.9629 141.784 18.5367ZM109.903 17.0316V15.2715L111.559 15.375V16.9272L109.903 17.0316ZM140.283 15.168C140.231 14.6506 140.18 14.1333 140.076 13.6159L141.68 13.3572C141.784 13.9263 141.835 14.4954 141.887 15.0655L140.283 15.168ZM111.715 13.8228L110.111 13.5641C110.215 12.995 110.318 12.4259 110.474 11.8558L112.077 12.2697C111.908 12.7748 111.787 13.2948 111.715 13.8228ZM139.766 12.1154C139.625 11.6219 139.452 11.138 139.248 10.6667L140.753 10.0459C140.974 10.5866 141.164 11.1394 141.323 11.7015L139.766 12.1154ZM112.543 10.8229L110.991 10.202C111.201 9.67056 111.443 9.15222 111.715 8.64984L113.164 9.42594C112.926 9.8772 112.719 10.3439 112.543 10.8229ZM138.576 9.27071C138.317 8.80036 138.058 8.39115 137.748 7.9255L139.093 6.99419C139.404 7.46455 139.714 7.97724 140.024 8.49934L138.576 9.27071ZM113.992 8.0779L112.647 7.14659C112.957 6.67623 113.319 6.21528 113.681 5.74963L114.923 6.83615C114.556 7.20459 114.243 7.62256 113.992 8.0779ZM136.816 6.68375C136.453 6.26984 136.091 5.90767 135.729 5.5455L136.867 4.3555C137.281 4.76941 137.695 5.18332 138.057 5.59723L136.816 6.68375ZM115.959 5.70071L114.821 4.51071C115.235 4.0968 115.7 3.73462 116.114 3.37244L117.097 4.66592C116.735 4.9726 116.373 5.33571 115.959 5.69788V5.70071ZM134.538 4.56246C134.128 4.2399 133.695 3.94601 133.245 3.68288L134.072 2.28592C134.575 2.58357 135.059 2.91188 135.521 3.26898L134.538 4.56246ZM118.442 3.78636L117.563 2.3894C118.047 2.08277 118.55 1.80632 119.068 1.56159L119.792 3.06672C119.326 3.2741 118.875 3.51329 118.442 3.7826V3.78636ZM131.895 2.95854C131.425 2.73781 130.941 2.5477 130.446 2.3894L130.963 0.837233C131.532 1.04419 132.05 1.25115 132.567 1.45811L131.895 2.95854ZM121.233 2.48819L120.722 0.936004C121.259 0.731519 121.813 0.574141 122.377 0.465648L122.74 2.06956C122.226 2.16087 121.723 2.30137 121.237 2.48912L121.233 2.48819ZM128.947 2.01783C128.43 1.91435 127.913 1.81087 127.395 1.75913L127.55 0.103479C128.12 0.155218 128.689 0.258691 129.258 0.362169L128.947 2.01783ZM124.29 1.75913L124.083 0.103479C124.652 0.0517397 125.221 0 125.79 0V1.65565C125.326 1.71209 124.808 1.71209 124.291 1.76477L124.29 1.75913Z" fill="#F6F2ED"/>
</g>
<path d="M130.511 13.6704C130.511 14.6215 130.458 15.5763 130.521 16.5236C130.613 17.4275 130.51 18.3406 130.217 19.2009C129.925 20.0612 129.451 20.8485 128.828 21.5094C128.64 21.7154 128.484 21.9591 128.301 22.1745C127.972 22.5611 127.863 23.2554 127.355 23.3344C126.488 23.4195 125.615 23.4355 124.746 23.3823C124.484 23.3823 124.34 23.1585 124.232 22.9609C123.757 22.1661 123.199 21.4233 122.569 20.7446C121.772 19.7859 121.35 18.5699 121.382 17.3232C121.358 14.7786 121.387 12.233 121.365 9.68841C121.359 9.0365 121.604 8.73829 122.262 8.74111C124.705 8.74989 127.147 8.74989 129.59 8.74111C130.231 8.74111 130.53 8.99416 130.518 9.66112C130.495 10.9979 130.512 12.3337 130.511 13.6704ZM125.925 10.7354C125.052 10.7354 124.179 10.7524 123.306 10.7288C122.835 10.7166 122.661 10.9066 122.664 11.3619C122.675 13.133 122.675 14.9043 122.664 16.676C122.664 17.105 122.852 17.2799 123.262 17.2799C125.033 17.2762 126.805 17.2762 128.577 17.2799C129.024 17.2799 129.223 17.1097 129.218 16.6403C129.203 14.8949 129.203 13.1493 129.218 11.4033C129.218 10.9123 129.045 10.711 128.54 10.727C127.668 10.7542 126.794 10.7345 125.921 10.7345" fill="#F6F2ED"/>
<path d="M205.317 63.6192C211.782 63.6192 217.023 58.3782 217.023 51.913C217.023 45.4478 211.782 40.2068 205.317 40.2068C198.852 40.2068 193.611 45.4478 193.611 51.913C193.611 58.3782 198.852 63.6192 205.317 63.6192Z" fill="url(#paint21_linear_848_5706)"/>
<g opacity="0.696">
<path d="M205.151 68.1561C204.582 68.1561 204.012 68.1044 203.443 68.0527L203.598 66.397C204.116 66.4487 204.633 66.5005 205.151 66.5005H205.306V68.1561H205.151ZM207.066 68.0527L206.859 66.397C207.376 66.3453 207.894 66.2418 208.411 66.1383L208.773 67.7422L207.066 68.0527ZM201.683 67.7939C201.117 67.6923 200.563 67.5347 200.028 67.3236L200.545 65.7714C201.062 65.9266 201.528 66.0819 202.05 66.1853L201.683 67.7939ZM210.432 67.2766L209.863 65.7244C210.333 65.5692 210.846 65.3622 211.311 65.1553L212.036 66.6604C211.516 66.8626 210.946 67.0696 210.429 67.2766H210.432ZM198.425 66.6557C197.908 66.397 197.391 66.1383 196.873 65.8279L197.701 64.4309C198.171 64.6896 198.632 64.9483 199.098 65.1553L198.425 66.6557ZM213.537 65.7761L212.658 64.3792C213.108 64.116 213.541 63.8221 213.951 63.4996L214.986 64.7931C214.517 65.1026 214.052 65.4619 213.534 65.7761H213.537ZM195.421 64.8975C194.95 64.5353 194.541 64.1731 194.076 63.7592L195.214 62.5692C195.587 62.9246 195.984 63.2531 196.404 63.5523L195.421 64.8975ZM216.278 63.6558L215.139 62.4658C215.511 62.1114 215.857 61.731 216.174 61.3275L217.416 62.3623C217.079 62.8287 216.698 63.2613 216.278 63.6539V63.6558ZM192.936 62.5175C192.551 62.0835 192.204 61.616 191.902 61.1205L193.247 60.1892L194.178 61.431L192.936 62.5175ZM218.502 60.9653L217.157 60.034C217.465 59.6159 217.725 59.1647 217.933 58.6888L219.382 59.4649C219.119 59.9815 218.826 60.4816 218.502 60.9625V60.9653ZM190.97 59.669C190.712 59.1516 190.453 58.6342 190.246 58.1168L191.798 57.496C192.005 57.9663 192.212 58.4273 192.471 58.8929L190.97 59.669ZM220.107 57.909L218.555 57.2881C218.766 56.805 218.924 56.3003 219.025 55.7829L220.629 56.1968C220.486 56.7766 220.312 57.3481 220.107 57.909ZM189.676 56.4602C189.521 55.8911 189.417 55.322 189.314 54.7529L190.918 54.4942C191.008 55.0028 191.129 55.5054 191.28 55.9993L189.676 56.4602ZM220.987 54.5497L219.383 54.291C219.486 53.7736 219.486 53.2562 219.538 52.7388L221.194 52.7905C221.142 53.4067 221.091 53.9758 220.987 54.5497ZM189.107 53.0445V51.2845L190.762 51.3879V52.9401L189.107 53.0445ZM219.486 51.181C219.435 50.6636 219.383 50.1462 219.279 49.6288L220.883 49.3701C220.987 49.9392 221.039 50.5084 221.09 51.0784L219.486 51.181ZM190.919 49.8358L189.315 49.5771C189.418 49.0079 189.522 48.4388 189.677 47.8687L191.281 48.2826C191.111 48.7877 190.99 49.3078 190.919 49.8358ZM218.969 48.1284C218.828 47.6349 218.655 47.151 218.452 46.6797L219.957 46.0588C220.177 46.5996 220.367 47.1523 220.526 47.7145L218.969 48.1284ZM191.746 46.8358L190.194 46.215C190.404 45.6835 190.646 45.1652 190.919 44.6628L192.367 45.4389C192.129 45.8901 191.922 46.3568 191.746 46.8358ZM217.779 45.2837C217.52 44.8133 217.262 44.4041 216.951 43.9384L218.296 43.0071C218.607 43.4775 218.917 43.9902 219.228 44.5123L217.779 45.2837ZM193.195 44.0908L191.85 43.1595C192.16 42.6892 192.522 42.2282 192.885 41.7626L194.126 42.8491C193.76 43.2175 193.446 43.6355 193.195 44.0908ZM216.019 42.6967C215.657 42.2828 215.294 41.9206 214.932 41.5584L216.071 40.3684C216.484 40.7824 216.898 41.1963 217.261 41.6102L216.019 42.6967ZM195.162 41.7137L194.024 40.5237C194.438 40.1097 194.903 39.7476 195.317 39.3854L196.3 40.6789C195.938 40.9855 195.576 41.3486 195.162 41.7108V41.7137ZM213.741 40.5754C213.331 40.2528 212.899 39.9589 212.448 39.6958L213.276 38.2989C213.778 38.5965 214.262 38.9248 214.724 39.2819L213.741 40.5754ZM197.646 39.7993L196.766 38.4023C197.25 38.0957 197.753 37.8193 198.271 37.5745L198.996 39.0797C198.53 39.287 198.079 39.5262 197.646 39.7955V39.7993ZM211.098 38.9715C210.628 38.7508 210.144 38.5606 209.649 38.4023L210.167 36.8502C210.736 37.0571 211.253 37.2641 211.771 37.471L211.098 38.9715ZM200.437 38.5011L199.925 36.9489C200.462 36.7445 201.016 36.5871 201.581 36.4786L201.943 38.0825C201.43 38.1738 200.927 38.3143 200.44 38.5021L200.437 38.5011ZM208.151 38.0308C207.633 37.9273 207.116 37.8238 206.598 37.7721L206.754 36.1164C207.323 36.1682 207.892 36.2716 208.461 36.3751L208.151 38.0308ZM203.493 37.7721L203.286 36.1164C203.855 36.0647 204.424 36.0129 204.994 36.0129V37.6686C204.529 37.725 204.011 37.725 203.494 37.7777L203.493 37.7721Z" fill="#F6F2ED"/>
</g>
<path d="M204.727 55.9233C204.131 56.9506 203.504 57.9647 202.947 59.0117C202.672 59.5272 202.45 59.6852 201.896 59.3174C201.016 58.7328 200.1 58.2043 199.153 57.7351C198.458 57.3908 198.325 57.1152 198.763 56.3833C200.78 53.0071 202.723 49.5867 204.684 46.1776C204.909 45.7872 205.234 45.4485 205.051 44.8869C204.76 44.0017 205.287 43.8041 206.029 43.9462C206.912 44.1071 207.817 44.1103 208.702 43.9556C209.063 43.8963 209.638 43.727 209.798 44.0958C209.92 44.2951 209.968 44.531 209.934 44.7621C209.899 44.9932 209.785 45.2049 209.61 45.3601C209.272 45.6573 210.008 47.726 210.462 48.0195C210.915 48.313 210.869 49.535 210.361 49.6121C209.777 49.7015 209.877 50.0241 209.876 50.3647C209.871 51.787 209.876 53.2094 209.876 54.6317C209.876 54.9949 209.821 55.3034 210.388 55.3768C210.829 55.4332 210.928 56.817 210.526 56.8669C209.701 56.9675 209.882 57.4906 209.878 57.9684C209.861 60.2261 209.863 60.2262 207.635 60.2196C206.8 60.2196 205.691 60.5018 205.205 60.0832C204.627 59.5846 205.068 58.4426 205.017 57.5809C204.985 57.0447 205.011 56.5047 205.011 55.9666L204.729 55.9243M207.221 44.8559C206.463 44.8719 206.036 45.4927 205.642 46.1729C203.949 49.1041 202.256 52.0335 200.562 54.961C199.412 56.9544 199.428 56.9365 201.462 58.1124C202.042 58.4482 202.324 58.4736 202.701 57.8048C204.589 54.4427 206.544 51.1182 208.468 47.7758C208.638 47.4963 208.775 47.198 208.876 46.8869C208.944 46.6396 208.953 46.3796 208.901 46.1284C208.848 45.8772 208.736 45.6422 208.575 45.443C208.413 45.2439 208.206 45.0864 207.97 44.9838C207.735 44.8811 207.479 44.8363 207.223 44.853M208.462 49.9131C207.672 51.0542 206.57 52.0401 206.425 53.4502C206.303 54.6374 206.455 55.85 206.39 57.0465C206.344 57.8838 206.85 57.8066 207.354 57.7624C207.818 57.721 208.492 58.0757 208.475 57.0898C208.434 54.6985 208.462 52.3054 208.462 49.9131Z" fill="#F6F2ED"/>
<path d="M28.9932 149.976C35.4584 149.976 40.6995 144.735 40.6995 138.27C40.6995 131.804 35.4584 126.563 28.9932 126.563C22.528 126.563 17.2869 131.804 17.2869 138.27C17.2869 144.735 22.528 149.976 28.9932 149.976Z" fill="url(#paint22_linear_848_5706)"/>
<g opacity="0.696">
<path d="M28.8354 154.513C28.2662 154.513 27.6971 154.461 27.128 154.409L27.2832 152.754C27.8006 152.806 28.318 152.857 28.8354 152.857H28.9906V154.513H28.8354ZM30.7507 154.409L30.5437 152.754C31.0611 152.702 31.5785 152.599 32.0959 152.495L32.4581 154.099L30.7507 154.409ZM25.3679 154.151C24.8018 154.049 24.2472 153.892 23.7122 153.68L24.2296 152.128C24.747 152.283 25.2127 152.439 25.7348 152.542L25.3679 154.151ZM34.1166 153.633L33.5474 152.081C34.0178 151.926 34.5305 151.719 34.9962 151.512L35.7205 153.017C35.2003 153.219 34.6312 153.426 34.1138 153.633H34.1166ZM22.1102 153.013C21.5928 152.754 21.0754 152.495 20.558 152.185L21.3858 150.788C21.8562 151.046 22.3171 151.305 22.7828 151.512L22.1102 153.013ZM37.2219 152.133L36.3423 150.736C36.7932 150.473 37.2254 150.179 37.6358 149.856L38.6706 151.15C38.2021 151.459 37.7365 151.819 37.2191 152.133H37.2219ZM19.1055 151.254C18.6351 150.892 18.2259 150.53 17.7603 150.116L18.8985 148.926C19.2715 149.281 19.6692 149.61 20.0886 149.909L19.1055 151.254ZM39.9622 150.013L38.824 148.823C39.1955 148.468 39.5413 148.088 39.8587 147.684L41.1005 148.719C40.7639 149.186 40.3827 149.618 39.9622 150.011V150.013ZM16.6211 148.874C16.2354 148.44 15.8891 147.973 15.5863 147.477L16.9315 146.546L17.8628 147.788L16.6211 148.874ZM42.187 147.322L40.8418 146.391C41.1497 145.973 41.41 145.521 41.6179 145.046L43.0666 145.822C42.8041 146.338 42.5104 146.838 42.187 147.319V147.322ZM14.655 146.026C14.3963 145.508 14.1376 144.991 13.9306 144.474L15.4828 143.853C15.6897 144.323 15.8967 144.784 16.1554 145.25L14.655 146.026ZM43.7919 144.266L42.2397 143.645C42.4509 143.162 42.6086 142.657 42.7101 142.14L44.314 142.554C44.1712 143.133 43.9969 143.705 43.7919 144.266ZM13.3605 142.817C13.2053 142.248 13.1018 141.679 12.9983 141.11L14.6023 140.851C14.6924 141.36 14.8133 141.862 14.9644 142.356L13.3605 142.817ZM44.6715 140.906L43.0675 140.648C43.171 140.13 43.171 139.613 43.2228 139.096L44.8784 139.147C44.8267 139.764 44.7759 140.333 44.6715 140.906ZM12.7914 139.401V137.641L14.4471 137.745V139.297L12.7914 139.401ZM43.171 137.538C43.1193 137.02 43.0675 136.503 42.9641 135.986L44.568 135.727C44.6715 136.296 44.7232 136.865 44.775 137.435L43.171 137.538ZM14.6032 136.193L12.9993 135.934C13.1028 135.365 13.2062 134.796 13.3615 134.226L14.9654 134.639C14.7958 135.145 14.6745 135.665 14.6032 136.193ZM42.6536 134.485C42.5125 133.992 42.3396 133.508 42.1362 133.036L43.6414 132.416C43.862 132.956 44.052 133.509 44.2105 134.071L42.6536 134.485ZM15.431 133.193L13.8789 132.572C14.0889 132.04 14.3308 131.522 14.6032 131.02L16.0519 131.796C15.814 132.247 15.6066 132.714 15.431 133.193ZM41.4636 131.64C41.2049 131.17 40.9462 130.761 40.6358 130.295L41.981 129.364C42.2915 129.834 42.6019 130.347 42.9123 130.869L41.4636 131.64ZM16.8798 130.448L15.5345 129.516C15.845 129.046 16.2071 128.585 16.5693 128.119L17.8111 129.206C17.4442 129.574 17.1307 129.992 16.8798 130.448ZM39.7035 129.054C39.3414 128.64 38.9792 128.277 38.617 127.915L39.7553 126.725C40.1692 127.139 40.5831 127.553 40.9453 127.967L39.7035 129.054ZM18.8468 128.07L17.7085 126.88C18.1224 126.467 18.5881 126.104 19.002 125.742L19.9851 127.036C19.6229 127.342 19.2607 127.705 18.8468 128.068V128.07ZM37.426 126.932C37.0156 126.61 36.5834 126.316 36.1326 126.053L36.9604 124.656C37.463 124.953 37.9468 125.282 38.4091 125.639L37.426 126.932ZM21.3303 126.156L20.4507 124.759C20.935 124.453 21.4376 124.176 21.9559 123.931L22.6802 125.436C22.2144 125.644 21.7633 125.883 21.3303 126.152V126.156ZM34.7826 125.328C34.3125 125.108 33.8286 124.917 33.3339 124.759L33.8513 123.207C34.4204 123.414 34.9378 123.621 35.4552 123.828L34.7826 125.328ZM24.1214 124.858L23.6097 123.306C24.1469 123.101 24.7009 122.944 25.2653 122.835L25.6275 124.439C25.1144 124.531 24.6113 124.671 24.1252 124.859L24.1214 124.858ZM31.8353 124.388C31.3179 124.284 30.8005 124.181 30.2831 124.129L30.4384 122.473C31.0075 122.525 31.5766 122.628 32.1458 122.732L31.8353 124.388ZM27.1778 124.129L26.9709 122.473C27.54 122.421 28.1091 122.37 28.6783 122.37V124.025C28.2136 124.082 27.6962 124.082 27.1788 124.135L27.1778 124.129Z" fill="#F6F2ED"/>
</g>
<path d="M36.4024 143.457H21.239C21.1392 143.457 21.0435 143.417 20.9729 143.347C20.9023 143.276 20.8627 143.18 20.8627 143.08V133.8C20.8627 133.701 20.9023 133.605 20.9729 133.534C21.0435 133.464 21.1392 133.424 21.239 133.424H36.4024C36.5022 133.424 36.5979 133.464 36.6685 133.534C36.7391 133.605 36.7787 133.701 36.7787 133.8V143.087C36.777 143.186 36.7366 143.28 36.6662 143.349C36.5958 143.418 36.5011 143.457 36.4024 143.457Z" fill="#F6F2ED"/>
<path d="M20.8708 135.56H36.7774" stroke="#2F4F4F" stroke-width="2"/>
<path d="M168.655 220.574C177.36 220.574 184.417 213.517 184.417 204.811C184.417 196.106 177.36 189.049 168.655 189.049C159.949 189.049 152.892 196.106 152.892 204.811C152.892 213.517 159.949 220.574 168.655 220.574Z" fill="url(#paint23_linear_848_5706)"/>
<g opacity="0.696">
<path d="M168.447 226.681C167.68 226.681 166.913 226.611 166.148 226.542L166.356 224.312C167.053 224.382 167.75 224.452 168.447 224.452H168.656V226.681H168.447ZM171.025 226.542L170.743 224.312C171.44 224.243 172.136 224.104 172.833 223.964L173.322 226.128L171.025 226.542ZM163.782 226.194C163.02 226.059 162.273 225.849 161.552 225.566L162.249 223.476C162.946 223.685 163.573 223.894 164.27 224.034L163.782 226.194ZM175.559 225.497L174.792 223.406C175.419 223.198 176.115 222.918 176.743 222.64L177.718 224.66C177.018 224.939 176.251 225.218 175.555 225.497H175.559ZM159.392 224.66C158.695 224.312 157.999 223.963 157.302 223.546L158.417 221.664C159.044 222.012 159.671 222.361 160.298 222.64L159.392 224.66ZM179.74 223.476L178.556 221.595C179.163 221.24 179.745 220.845 180.298 220.41L181.691 222.153C181.059 222.57 180.429 223.057 179.735 223.476H179.74ZM155.351 222.292C154.723 221.804 154.167 221.316 153.539 220.758L155.072 219.159C155.574 219.637 156.108 220.08 156.672 220.483L155.351 222.292ZM183.433 220.619L181.9 219.02C182.4 218.543 182.866 218.03 183.293 217.487L184.966 218.88C184.511 219.508 183.996 220.091 183.429 220.619H183.433ZM152.007 219.086C151.487 218.501 151.021 217.872 150.613 217.204L152.425 215.95L153.679 217.623L152.007 219.086ZM186.425 216.992L184.613 215.738C185.028 215.175 185.378 214.567 185.658 213.926L187.609 214.971C187.256 215.668 186.86 216.343 186.425 216.992ZM149.354 215.253C149.006 214.556 148.657 213.86 148.378 213.163L150.469 212.327C150.751 212.954 151.026 213.581 151.374 214.208L149.354 215.253ZM188.582 212.884L186.492 212.047C186.774 211.399 186.984 210.721 187.119 210.027L189.283 210.585C189.092 211.363 188.859 212.13 188.585 212.884H188.582ZM147.612 210.933C147.403 210.166 147.264 209.399 147.123 208.634L149.287 208.285C149.409 208.968 149.572 209.643 149.775 210.306L147.612 210.933ZM189.77 208.354L187.606 208.006C187.746 207.309 187.746 206.613 187.815 205.916L190.045 205.985C189.979 206.822 189.909 207.585 189.77 208.355V208.354ZM146.845 206.333V203.964L149.074 204.103V206.193L146.845 206.333ZM187.749 203.822C187.68 203.125 187.61 202.429 187.467 201.732L189.631 201.383C189.77 202.15 189.84 202.917 189.913 203.683L187.749 203.822ZM149.284 202.014L147.121 201.666C147.26 200.899 147.403 200.132 147.609 199.367L149.772 199.924C149.544 200.604 149.381 201.303 149.284 202.014ZM187.052 199.715C186.862 199.05 186.629 198.398 186.355 197.764L188.376 196.927C188.673 197.655 188.929 198.4 189.143 199.157L187.052 199.715ZM150.399 197.971L148.309 197.135C148.592 196.42 148.917 195.721 149.284 195.045L151.235 196.09C150.915 196.698 150.635 197.326 150.399 197.971ZM185.449 195.881C185.101 195.254 184.752 194.697 184.335 194.069L186.146 192.815C186.564 193.443 186.983 194.139 187.4 194.836L185.449 195.881ZM152.35 194.282L150.538 193.028C150.956 192.401 151.444 191.774 151.931 191.147L153.604 192.61C153.11 193.106 152.688 193.667 152.35 194.279V194.282ZM183.081 192.401C182.592 191.843 182.105 191.355 181.617 190.867L183.15 189.268C183.708 189.826 184.265 190.383 184.749 190.941L183.081 192.401ZM154.998 191.077L153.465 189.478C154.023 188.92 154.649 188.433 155.207 187.944L156.531 189.687C156.043 190.098 155.555 190.586 154.998 191.073V191.077ZM180.015 189.544C179.462 189.109 178.88 188.714 178.273 188.359L179.387 186.478C180.064 186.879 180.716 187.321 181.338 187.801L180.015 189.544ZM158.343 188.499L157.159 186.617C157.809 186.204 158.484 185.832 159.18 185.502L160.155 187.523C159.529 187.805 158.924 188.13 158.342 188.495L158.343 188.499ZM176.461 187.384C175.828 187.086 175.176 186.83 174.51 186.617L175.207 184.527C175.973 184.809 176.67 185.085 177.37 185.363L176.461 187.384ZM162.106 186.756L161.409 184.666C162.133 184.393 162.879 184.183 163.639 184.039L164.127 186.202C163.437 186.321 162.76 186.505 162.105 186.754L162.106 186.756ZM172.489 186.129C171.792 185.99 171.096 185.847 170.399 185.781L170.608 183.551C171.374 183.621 172.141 183.76 172.907 183.899L172.489 186.129ZM166.217 185.781L165.935 183.551C166.702 183.482 167.468 183.412 168.234 183.412V185.642C167.61 185.707 166.913 185.707 166.217 185.778V185.781Z" fill="#F6F2ED"/>
</g>
<path d="M174.655 205.1C174.655 208.044 174.655 210.988 174.655 213.932C174.655 215.287 174.279 215.654 172.934 215.656C169.92 215.659 166.907 215.659 163.893 215.656C162.625 215.656 162.239 215.268 162.236 213.972C162.221 208.084 162.211 202.198 162.207 196.313C162.207 194.771 162.563 194.432 164.111 194.432C167.056 194.432 170 194.432 172.944 194.432C174.276 194.432 174.67 194.808 174.677 196.164C174.692 199.142 174.677 202.12 174.677 205.1H174.651M174.03 208.675C174.03 206.841 174.002 205.006 174.044 203.174C174.058 202.53 173.861 202.351 173.224 202.356C170.041 202.387 166.857 202.392 163.674 202.356C162.946 202.347 162.833 202.625 162.838 203.261C162.864 206.825 162.864 210.389 162.838 213.953C162.831 214.749 163.087 215.059 163.915 215.049C166.925 215.013 169.935 215.013 172.946 215.049C173.752 215.058 174.061 214.79 174.042 213.971C174 212.208 174.03 210.443 174.029 208.678M167.047 200.641H168.292C170.391 200.641 170.377 200.641 170.227 198.561C170.196 198.126 170.085 197.955 169.628 197.96C167.967 197.981 166.305 197.976 164.642 197.96C164.227 197.96 164.051 198.034 164.02 198.518C163.889 200.641 163.868 200.641 166.008 200.641H167.043" fill="#F6F2ED"/>
<path d="M164.887 207.713C164.388 207.597 164.034 207.356 164.049 206.805C164.04 206.682 164.058 206.559 164.103 206.444C164.148 206.329 164.218 206.226 164.309 206.143C164.399 206.06 164.508 205.998 164.626 205.962C164.744 205.927 164.868 205.919 164.99 205.939C165.104 205.943 165.217 205.971 165.319 206.021C165.422 206.072 165.513 206.144 165.586 206.232C165.659 206.32 165.712 206.423 165.743 206.533C165.773 206.643 165.78 206.759 165.762 206.872C165.727 207.421 165.365 207.636 164.887 207.713Z" fill="#F6F2ED"/>
<path d="M172.826 207.141C172.814 207.388 172.474 207.685 171.979 207.687C171.865 207.696 171.751 207.681 171.644 207.641C171.536 207.602 171.439 207.54 171.358 207.46C171.277 207.379 171.214 207.283 171.174 207.176C171.134 207.069 171.117 206.955 171.125 206.841C171.11 206.718 171.123 206.594 171.163 206.478C171.203 206.361 171.27 206.255 171.357 206.168C171.445 206.082 171.551 206.016 171.667 205.976C171.784 205.936 171.908 205.924 172.031 205.94C172.516 205.965 172.852 206.287 172.826 207.143" fill="#F6F2ED"/>
<path d="M172.023 210.34C171.531 210.284 171.153 210.082 171.13 209.527C171.109 209.406 171.117 209.282 171.152 209.164C171.187 209.047 171.249 208.939 171.333 208.849C171.417 208.759 171.52 208.689 171.635 208.646C171.75 208.602 171.873 208.586 171.996 208.598C172.109 208.589 172.223 208.604 172.33 208.643C172.437 208.683 172.534 208.745 172.615 208.825C172.696 208.906 172.758 209.003 172.797 209.11C172.836 209.217 172.852 209.331 172.842 209.445C172.859 209.996 172.533 210.248 172.028 210.338" fill="#F6F2ED"/>
<path d="M165.77 204.168C165.778 204.282 165.761 204.395 165.722 204.502C165.683 204.609 165.622 204.706 165.542 204.788C165.463 204.869 165.367 204.933 165.261 204.975C165.156 205.017 165.042 205.036 164.929 205.031C164.816 205.045 164.701 205.034 164.592 204.998C164.484 204.963 164.384 204.904 164.301 204.827C164.217 204.749 164.152 204.654 164.109 204.548C164.066 204.442 164.047 204.328 164.053 204.214C164.033 204.093 164.042 203.968 164.079 203.851C164.115 203.733 164.179 203.626 164.264 203.537C164.35 203.449 164.455 203.381 164.571 203.34C164.687 203.299 164.811 203.286 164.933 203.302C165.047 203.297 165.161 203.316 165.266 203.358C165.372 203.401 165.468 203.465 165.547 203.547C165.626 203.629 165.687 203.726 165.725 203.833C165.764 203.941 165.779 204.055 165.771 204.168" fill="#F6F2ED"/>
<path d="M169.304 209.514C169.306 209.627 169.285 209.739 169.241 209.842C169.197 209.946 169.132 210.039 169.049 210.115C168.967 210.192 168.869 210.25 168.763 210.287C168.656 210.323 168.543 210.337 168.431 210.326C168.317 210.337 168.203 210.322 168.095 210.283C167.988 210.244 167.89 210.182 167.809 210.101C167.729 210.02 167.667 209.923 167.628 209.815C167.589 209.708 167.574 209.593 167.584 209.48C167.57 209.357 167.583 209.233 167.625 209.117C167.666 209.001 167.734 208.896 167.823 208.811C167.912 208.726 168.019 208.662 168.137 208.626C168.255 208.589 168.379 208.581 168.501 208.601C169.034 208.629 169.287 208.977 169.3 209.517" fill="#F6F2ED"/>
<path d="M164.831 208.575C165.396 208.624 165.733 208.87 165.762 209.409C165.781 209.531 165.772 209.655 165.734 209.772C165.697 209.889 165.633 209.996 165.548 210.085C165.462 210.173 165.357 210.241 165.241 210.281C165.125 210.322 165.001 210.336 164.879 210.321C164.766 210.329 164.652 210.312 164.545 210.272C164.439 210.231 164.343 210.167 164.264 210.085C164.185 210.003 164.125 209.905 164.088 209.797C164.051 209.689 164.039 209.575 164.051 209.462C164.04 209.242 164.116 209.026 164.261 208.861C164.407 208.695 164.611 208.593 164.83 208.576" fill="#F6F2ED"/>
<path d="M168.481 205.046C168.369 205.053 168.256 205.037 168.15 205C168.043 204.963 167.946 204.905 167.862 204.829C167.779 204.753 167.712 204.661 167.665 204.559C167.618 204.456 167.592 204.346 167.588 204.233C167.567 204.121 167.571 204.006 167.599 203.896C167.627 203.785 167.679 203.683 167.752 203.595C167.824 203.507 167.915 203.436 168.018 203.387C168.121 203.338 168.233 203.313 168.347 203.312C168.467 203.286 168.592 203.289 168.711 203.32C168.83 203.351 168.94 203.409 169.032 203.49C169.125 203.571 169.197 203.673 169.243 203.786C169.289 203.9 169.308 204.023 169.298 204.146C169.307 204.259 169.292 204.373 169.254 204.481C169.217 204.588 169.159 204.687 169.082 204.771C169.006 204.855 168.913 204.923 168.809 204.97C168.706 205.018 168.595 205.043 168.481 205.046Z" fill="#F6F2ED"/>
<path d="M171.98 203.286C172.093 203.282 172.205 203.301 172.31 203.342C172.415 203.383 172.511 203.445 172.591 203.525C172.671 203.604 172.735 203.699 172.777 203.803C172.819 203.908 172.84 204.02 172.837 204.133C172.844 204.248 172.827 204.364 172.788 204.473C172.748 204.582 172.687 204.682 172.608 204.767C172.529 204.852 172.433 204.92 172.327 204.966C172.221 205.013 172.107 205.038 171.991 205.04C171.875 205.041 171.76 205.019 171.653 204.975C171.546 204.93 171.449 204.865 171.368 204.782C171.287 204.699 171.223 204.601 171.181 204.493C171.139 204.385 171.119 204.269 171.123 204.153C171.123 203.613 171.455 203.352 171.98 203.29" fill="#F6F2ED"/>
<path d="M168.439 205.916C168.927 206.01 169.286 206.235 169.3 206.782C169.304 206.897 169.286 207.011 169.245 207.119C169.204 207.227 169.143 207.325 169.063 207.409C168.984 207.492 168.888 207.558 168.783 207.604C168.677 207.65 168.563 207.674 168.448 207.675C168.333 207.676 168.219 207.653 168.113 207.609C168.006 207.565 167.91 207.5 167.829 207.418C167.748 207.336 167.685 207.238 167.643 207.131C167.6 207.024 167.58 206.91 167.583 206.795C167.595 206.248 167.945 206.012 168.439 205.916Z" fill="#F6F2ED"/>
<path d="M168.437 211.258C168.552 211.256 168.667 211.278 168.774 211.321C168.881 211.364 168.978 211.428 169.059 211.51C169.141 211.592 169.205 211.689 169.248 211.796C169.291 211.904 169.311 212.018 169.309 212.134C169.306 212.249 169.28 212.363 169.233 212.468C169.185 212.573 169.117 212.667 169.032 212.745C168.947 212.823 168.847 212.883 168.738 212.922C168.629 212.96 168.514 212.976 168.398 212.969C168.285 212.975 168.172 212.957 168.066 212.915C167.961 212.873 167.866 212.808 167.789 212.725C167.711 212.641 167.653 212.542 167.619 212.434C167.584 212.326 167.574 212.211 167.589 212.099C167.582 211.986 167.599 211.872 167.639 211.767C167.678 211.661 167.741 211.565 167.821 211.485C167.901 211.406 167.998 211.344 168.104 211.305C168.21 211.266 168.324 211.25 168.437 211.258Z" fill="#F6F2ED"/>
<path d="M172.847 212.107C172.787 212.671 172.508 212.975 171.973 212.967C171.851 212.98 171.728 212.963 171.613 212.92C171.498 212.876 171.396 212.806 171.313 212.715C171.231 212.624 171.171 212.515 171.138 212.397C171.106 212.279 171.102 212.155 171.126 212.035C171.125 211.921 171.149 211.809 171.196 211.706C171.243 211.603 171.312 211.512 171.399 211.439C171.486 211.366 171.587 211.312 171.697 211.283C171.806 211.254 171.921 211.249 172.032 211.27C172.141 211.268 172.249 211.289 172.35 211.331C172.451 211.373 172.542 211.435 172.618 211.514C172.694 211.592 172.753 211.685 172.791 211.787C172.83 211.889 172.847 211.998 172.842 212.107" fill="#F6F2ED"/>
<path d="M164.917 211.26C165.029 211.252 165.141 211.267 165.246 211.306C165.351 211.344 165.447 211.405 165.527 211.483C165.607 211.562 165.669 211.656 165.709 211.761C165.749 211.865 165.766 211.977 165.759 212.089C165.775 212.201 165.766 212.315 165.733 212.423C165.7 212.532 165.643 212.631 165.567 212.715C165.491 212.799 165.397 212.865 165.293 212.908C165.188 212.951 165.076 212.971 164.962 212.966C164.842 212.986 164.718 212.978 164.601 212.943C164.485 212.907 164.378 212.844 164.29 212.759C164.202 212.674 164.135 212.57 164.094 212.454C164.054 212.339 164.041 212.216 164.057 212.095C164.063 211.557 164.38 211.293 164.917 211.26Z" fill="#F6F2ED"/>
<path d="M48.0747 70.9833C57.613 70.9833 65.3453 63.251 65.3453 53.7128C65.3453 44.1745 57.613 36.4423 48.0747 36.4423C38.5363 36.4423 30.804 44.1745 30.804 53.7128C30.804 63.251 38.5363 70.9833 48.0747 70.9833Z" fill="url(#paint24_linear_848_5706)"/>
<g opacity="0.696">
<path d="M47.8407 77.6739C47.0006 77.6739 46.1606 77.5977 45.3214 77.5215L45.55 75.0757C46.3139 75.1519 47.0768 75.2281 47.8407 75.2281H48.0655V77.6739H47.8407ZM50.6628 77.5215L50.3571 75.0757C51.121 74.9995 51.8839 74.8471 52.6478 74.6937L53.1821 77.0606L50.6628 77.5215ZM42.7222 77.1396C41.8862 76.9921 41.0669 76.7621 40.2763 76.4529L41.0402 74.1622C41.8041 74.3908 42.4908 74.6204 43.2547 74.7728L42.7222 77.1396ZM55.6261 76.3757L54.786 74.0851C55.4728 73.8556 56.2366 73.5508 56.9243 73.245L57.9929 75.4595C57.2319 75.768 56.3918 76.0747 55.628 76.3785L55.6261 76.3757ZM37.9123 75.4595C37.1485 75.0775 36.3855 74.6956 35.6217 74.2365L36.8446 72.1754C37.5313 72.5574 38.219 72.9393 38.9057 73.2441L37.9123 75.4595ZM60.2074 74.1613L58.9092 72.1002C59.5745 71.7118 60.2123 71.2781 60.8179 70.802L62.3447 72.7107C61.6599 73.1717 60.9731 73.706 60.2093 74.1641L60.2074 74.1613ZM33.4843 72.8659C32.7976 72.3316 32.1861 71.7973 31.4994 71.1858L33.1795 69.4295C33.73 69.9539 34.3169 70.4386 34.9359 70.8801L33.4843 72.8659ZM64.2544 71.0334L62.5743 69.2771C63.1225 68.7541 63.6327 68.1926 64.101 67.597L65.9336 69.1238C65.4378 69.8133 64.876 70.4528 64.2563 71.0334H64.2544ZM29.824 69.3533C29.2549 68.7129 28.744 68.0232 28.2972 67.2922L30.2793 65.915L31.6537 67.7475L29.824 69.3533ZM67.5384 67.0636L65.5535 65.6892C66.0077 65.0722 66.3917 64.4065 66.6984 63.7043L68.8366 64.8492C68.4494 65.6131 68.0158 66.3526 67.5384 67.0636ZM26.92 65.1549C26.5381 64.3911 26.1561 63.6281 25.8513 62.8643L28.142 61.948C28.4477 62.6348 28.7525 63.3224 29.1344 64.0091L26.92 65.1549ZM69.9109 62.5586L67.6203 61.6423C67.929 60.9313 68.1593 60.1888 68.307 59.4279L70.6739 60.0384C70.4638 60.8917 70.2076 61.733 69.9062 62.5586H69.9109ZM25.0113 60.4213C24.7827 59.5812 24.6293 58.7411 24.4769 57.902L26.8438 57.5201C26.9769 58.2684 27.1554 59.0079 27.3781 59.7345L25.0113 60.4213ZM71.2007 57.5991L68.8338 57.2172C68.9862 56.4533 68.9862 55.6904 69.0624 54.9266L71.5083 55.0027C71.433 55.9162 71.3568 56.7562 71.2073 57.5963L71.2007 57.5991ZM24.1712 55.379V52.7827L26.6171 52.9351V55.2257L24.1712 55.379ZM68.99 52.6303C68.9138 51.8664 68.8376 51.1035 68.6842 50.3396L71.0511 49.9577C71.2035 50.7978 71.2797 51.6378 71.3568 52.4769L68.99 52.6303ZM26.8457 50.6454L24.4788 50.2634C24.6312 49.4234 24.7846 48.5833 25.0131 47.7442L27.38 48.3547C27.1291 49.1005 26.9495 49.8685 26.8438 50.6482L26.8457 50.6454ZM68.2289 48.1261C68.0206 47.3977 67.7654 46.6835 67.4651 45.9879L69.6795 45.0717C70.0053 45.8705 70.2858 46.6871 70.5196 47.5175L68.2289 48.1261ZM28.0648 46.2193L25.7704 45.3031C26.0803 44.5188 26.4372 43.7538 26.8391 43.0124L28.9773 44.1573C28.6275 44.8235 28.3226 45.5124 28.0648 46.2193ZM66.4698 43.9287C66.0879 43.242 65.7059 42.6305 65.2468 41.9438L67.2318 40.5694C67.6899 41.2561 68.148 42.02 68.6062 42.7838L66.4698 43.9287ZM30.2022 42.1724L28.2163 40.798C28.6744 40.1113 29.2088 39.4236 29.7431 38.7369L31.5756 40.3361C31.0345 40.8814 30.5725 41.4998 30.2031 42.1733L30.2022 42.1724ZM63.8734 40.1113C63.3391 39.5008 62.8047 38.9664 62.2742 38.4312L63.9543 36.6749C64.5648 37.2854 65.1772 37.8978 65.7106 38.5074L63.8734 40.1113ZM33.1081 38.6607L31.4279 36.9044C32.0385 36.2939 32.7261 35.7596 33.3366 35.2243L34.7872 37.133C34.2501 37.5921 33.7148 38.1264 33.1081 38.6607ZM60.5188 36.9806C59.9131 36.5045 59.2754 36.0708 58.6101 35.6824L59.833 33.6213C60.5748 34.0605 61.289 34.5449 61.9713 35.0719L60.5188 36.9806ZM36.7731 35.8357L35.4749 33.7746C36.1873 33.3219 36.9268 32.9135 37.6894 32.5517L38.7524 34.7671C38.0677 35.0774 37.4051 35.4345 36.7693 35.8357H36.7731ZM56.6223 34.6128C55.9284 34.287 55.2142 34.0064 54.4841 33.7728L55.2479 31.4821C56.088 31.7879 56.8471 32.0927 57.6148 32.3984L56.6223 34.6128ZM40.8925 33.9308L40.1287 31.6402C40.9225 31.3408 41.7409 31.111 42.5745 30.9535L43.1089 33.3203C42.3522 33.4523 41.61 33.6567 40.8925 33.9308ZM52.2687 33.2441C51.5048 33.0917 50.7419 32.9384 49.978 32.8622L50.2066 30.4163C51.0467 30.4925 51.8867 30.6449 52.7258 30.7982L52.2687 33.2441ZM45.4014 32.8622L45.0957 30.4163C45.9357 30.3401 46.7758 30.2639 47.6149 30.2639V32.7098C46.9244 32.7813 46.1606 32.7813 45.3967 32.8584L45.4014 32.8622Z" fill="#F6F2ED"/>
</g>
<path d="M43.6988 41.3876C43.711 41.2224 43.7698 41.064 43.8684 40.9308C43.967 40.7976 44.1013 40.695 44.2557 40.635C44.7341 40.4053 45.2605 40.2934 45.791 40.3086H49.8963C50.4271 40.2949 50.9535 40.4084 51.4315 40.6397C51.586 40.6997 51.7203 40.8023 51.8188 40.9355C51.9174 41.0687 51.9762 41.2271 51.9884 41.3923V64.0146C51.9892 64.2336 51.9342 64.4493 51.8285 64.6412C51.7228 64.8331 51.57 64.9949 51.3845 65.1114C50.9401 65.3932 50.4223 65.5373 49.8963 65.5253H45.791C45.2649 65.5373 44.7471 65.3932 44.3027 65.1114C44.1172 64.9949 43.9644 64.8331 43.8587 64.6412C43.7531 64.4493 43.698 64.2336 43.6988 64.0146V41.3876Z" fill="#2F4F4F" stroke="#F6F2ED"/>
<path d="M50.2408 56.8887H45.4422C45.0525 56.8887 44.7366 57.2046 44.7366 57.5942V62.6599C44.7366 63.0496 45.0525 63.3655 45.4422 63.3655H50.2408C50.6305 63.3655 50.9463 63.0496 50.9463 62.6599V57.5942C50.9463 57.2046 50.6305 56.8887 50.2408 56.8887Z" fill="#F6F2ED"/>
<path d="M49.6372 53.7569C49.6372 52.8284 48.8845 52.0758 47.9561 52.0758C47.0277 52.0758 46.275 52.8284 46.275 53.7569C46.275 54.6853 47.0277 55.4379 47.9561 55.4379C48.8845 55.4379 49.6372 54.6853 49.6372 53.7569Z" fill="#F6F2ED"/>
<path d="M49.4698 43.11H46.2177C45.5683 43.11 45.0418 43.6364 45.0418 44.2859V49.7787C45.0418 50.4281 45.5683 50.9546 46.2177 50.9546H49.4698C50.1192 50.9546 50.6457 50.4281 50.6457 49.7787V44.2859C50.6457 43.6364 50.1192 43.11 49.4698 43.11Z" fill="#F6F2ED"/>
<path d="M47.6704 41.6906H48.1022" stroke="#F6F2ED" stroke-linecap="round" stroke-linejoin="round"/>
<path d="M226.189 150.248C233.608 150.248 239.621 144.234 239.621 136.815C239.621 129.397 233.608 123.383 226.189 123.383C218.77 123.383 212.756 129.397 212.756 136.815C212.756 144.234 218.77 150.248 226.189 150.248Z" fill="url(#paint25_linear_848_5706)"/>
<g opacity="0.696">
<path d="M226.009 155.452C225.356 155.452 224.702 155.393 224.05 155.334L224.227 153.434C224.821 153.493 225.415 153.552 226.009 153.552H226.187V155.452H226.009ZM228.207 155.334L227.969 153.434C228.562 153.374 229.157 153.256 229.75 153.136L230.166 154.977L228.207 155.334ZM222.031 155.037C221.381 154.922 220.745 154.743 220.131 154.502L220.724 152.721C221.318 152.898 221.853 153.077 222.447 153.196L222.031 155.037ZM232.066 154.443L231.414 152.661C231.948 152.484 232.542 152.246 233.077 152.009L233.908 153.731C233.313 153.969 232.66 154.205 232.066 154.443ZM218.29 153.73C217.696 153.433 217.101 153.136 216.508 152.78L217.458 151.181C217.992 151.478 218.527 151.774 219.057 152.012L218.29 153.73ZM235.634 152.724L234.624 151.125C235.14 150.821 235.635 150.481 236.104 150.109L237.292 151.594C236.758 151.95 236.223 152.366 235.634 152.724ZM214.844 151.712C214.309 151.296 213.834 150.881 213.3 150.406L214.607 149.04C215.035 149.448 215.491 149.825 215.973 150.168L214.844 151.712ZM238.776 150.287L237.469 148.921C237.896 148.514 238.293 148.078 238.657 147.614L240.082 148.803C239.696 149.339 239.258 149.836 238.776 150.287ZM211.993 148.98C211.551 148.484 211.153 147.948 210.805 147.381L212.349 146.313L213.418 147.738L211.993 148.98ZM241.329 147.199L239.785 146.13C240.138 145.65 240.437 145.132 240.676 144.586L242.339 145.477C242.038 146.071 241.701 146.647 241.33 147.2L241.329 147.199ZM209.738 145.714C209.441 145.121 209.145 144.526 208.907 143.933L210.688 143.219C210.926 143.754 211.164 144.288 211.461 144.819L209.738 145.714ZM243.172 143.695L241.39 142.983C241.63 142.43 241.809 141.853 241.924 141.261L243.765 141.736C243.603 142.399 243.404 143.052 243.171 143.694L243.172 143.695ZM208.253 142.033C208.075 141.38 207.956 140.727 207.837 140.074L209.678 139.776C209.782 140.358 209.921 140.934 210.094 141.499L208.253 142.033ZM244.18 139.837L242.339 139.539C242.458 138.946 242.458 138.351 242.517 137.758L244.417 137.817C244.359 138.529 244.3 139.178 244.18 139.837ZM207.6 138.113V136.094L209.5 136.213V137.995L207.6 138.113ZM242.459 135.98C242.399 135.386 242.34 134.792 242.221 134.198L244.062 133.901C244.181 134.554 244.24 135.207 244.3 135.86L242.459 135.98ZM209.678 134.432L207.837 134.135C207.956 133.482 208.075 132.828 208.253 132.175L210.094 132.651C209.899 133.23 209.76 133.827 209.678 134.432ZM241.864 132.473C241.702 131.906 241.504 131.351 241.27 130.81L242.993 130.097C243.246 130.717 243.464 131.352 243.646 131.997L241.864 132.473ZM210.632 130.988L208.85 130.275C209.091 129.665 209.369 129.07 209.682 128.494L211.345 129.384C211.071 129.902 210.831 130.438 210.628 130.987L210.632 130.988ZM240.499 129.207C240.202 128.672 239.905 128.197 239.549 127.663L241.093 126.594C241.449 127.129 241.806 127.723 242.161 128.317L240.499 129.207ZM212.291 127.841L210.748 126.772C211.104 126.238 211.52 125.703 211.936 125.173L213.361 126.42C212.94 126.842 212.58 127.32 212.291 127.841ZM238.479 126.241C238.063 125.766 237.648 125.351 237.232 124.935L238.539 123.569C239.014 124.044 239.489 124.519 239.904 124.994L238.479 126.241ZM214.547 125.113L213.244 123.743C213.719 123.273 214.254 122.852 214.729 122.436L215.858 123.921C215.439 124.277 215.023 124.691 214.548 125.109L214.547 125.113ZM235.866 123.806C235.395 123.436 234.899 123.099 234.381 122.797L235.332 121.197C235.909 121.539 236.464 121.916 236.995 122.326L235.866 123.806ZM217.398 122.915L216.389 121.305C216.943 120.953 217.519 120.636 218.112 120.355L218.943 122.077C218.41 122.319 217.894 122.598 217.399 122.911L217.398 122.915ZM232.838 121.965C232.299 121.709 231.743 121.489 231.176 121.305L231.769 119.523C232.422 119.76 233.016 119.998 233.61 120.236L232.838 121.965ZM220.608 121.431L220.015 119.649C220.632 119.416 221.267 119.237 221.915 119.115L222.331 120.956C221.742 121.057 221.164 121.215 220.606 121.427L220.608 121.431ZM229.457 120.896C228.863 120.778 228.269 120.658 227.675 120.599L227.853 118.699C228.506 118.758 229.16 118.877 229.812 118.996L229.457 120.896ZM224.113 120.599L223.875 118.699C224.527 118.64 225.181 118.58 225.834 118.58V120.481C225.296 120.536 224.702 120.536 224.109 120.595L224.113 120.599Z" fill="#F6F2ED"/>
</g>
<path d="M219.041 139.734C219.048 139.187 219.2 138.652 219.48 138.182C220.488 136.432 221.493 134.681 222.496 132.929C223.329 131.483 224.158 130.037 224.984 128.591C225.059 128.426 225.182 128.287 225.336 128.19C225.489 128.094 225.668 128.045 225.849 128.049C225.997 128.043 226.143 128.077 226.273 128.146C226.404 128.216 226.513 128.319 226.59 128.445C226.84 128.834 227.07 129.235 227.278 129.648C227.391 129.875 227.444 130.127 227.43 130.38C227.417 130.633 227.338 130.878 227.201 131.092L225.137 134.656L220.761 142.229C220.727 142.287 220.696 142.347 220.657 142.401C220.617 142.471 220.559 142.529 220.489 142.569C220.42 142.609 220.34 142.63 220.26 142.63C220.179 142.63 220.1 142.609 220.03 142.569C219.961 142.529 219.903 142.471 219.862 142.401C219.708 142.152 219.578 141.888 219.474 141.614C219.225 141.016 219.079 140.381 219.041 139.734Z" fill="#F6F2ED"/>
<path d="M228.735 143.892C228.74 144.316 228.581 144.726 228.291 145.035C228.144 145.195 227.986 145.347 227.829 145.498C227.602 145.744 227.299 145.907 226.969 145.962C226.639 146.017 226.3 145.961 226.005 145.802C225.088 145.372 224.173 144.937 223.257 144.505C223.076 144.419 222.892 144.337 222.715 144.244C222.527 144.153 222.36 144.025 222.225 143.866C222.089 143.708 221.988 143.524 221.927 143.325C221.866 143.125 221.847 142.916 221.871 142.709C221.895 142.502 221.961 142.302 222.066 142.122C222.469 141.398 222.884 140.68 223.309 139.969C223.401 139.8 223.532 139.656 223.691 139.548C223.85 139.441 224.032 139.372 224.223 139.349C224.413 139.326 224.607 139.348 224.787 139.414C224.967 139.48 225.129 139.588 225.259 139.73C226.248 140.709 227.235 141.695 228.215 142.677C228.379 142.834 228.509 143.022 228.598 143.231C228.687 143.44 228.733 143.664 228.733 143.891" fill="#F6F2ED"/>
<path d="M229.313 138.341C229.985 138.341 230.656 138.332 231.327 138.341C231.618 138.339 231.905 138.413 232.16 138.556C232.414 138.699 232.626 138.905 232.776 139.156C232.936 139.396 233.008 139.684 232.98 139.972C232.953 140.259 232.827 140.528 232.624 140.733C232.145 141.227 231.659 141.714 231.16 142.188C231.03 142.317 230.874 142.418 230.704 142.486C230.533 142.554 230.351 142.587 230.167 142.582C229.984 142.578 229.803 142.537 229.636 142.461C229.468 142.385 229.318 142.277 229.194 142.141C228.6 141.56 228.017 140.968 227.429 140.381C227.192 140.144 226.95 139.911 226.718 139.668C226.604 139.559 226.525 139.417 226.494 139.261C226.463 139.106 226.48 138.945 226.544 138.799C226.607 138.654 226.714 138.532 226.849 138.449C226.984 138.366 227.141 138.327 227.299 138.336C227.97 138.336 228.642 138.336 229.313 138.336" fill="#F6F2ED"/>
<path d="M228.142 137.277C227.672 137.277 227.202 137.282 226.731 137.277C226.464 137.281 226.205 137.185 226.005 137.008C225.805 136.83 225.679 136.584 225.651 136.319C225.625 136.075 225.682 135.829 225.813 135.621C226.162 135.02 226.51 134.418 226.856 133.815C226.974 133.612 227.087 133.407 227.21 133.207C227.317 133.018 227.472 132.86 227.66 132.751C227.847 132.642 228.061 132.585 228.278 132.585C228.495 132.586 228.708 132.644 228.895 132.754C229.082 132.865 229.237 133.023 229.343 133.212C229.775 133.939 230.198 134.672 230.611 135.41C230.728 135.598 230.792 135.816 230.795 136.038C230.798 136.26 230.741 136.479 230.629 136.671C230.517 136.863 230.355 137.02 230.16 137.127C229.965 137.234 229.745 137.286 229.523 137.277C229.062 137.277 228.601 137.277 228.139 137.277" fill="#F6F2ED"/>
<path d="M81.9701 218.458C88.4353 218.458 93.6764 213.217 93.6764 206.752C93.6764 200.287 88.4353 195.046 81.9701 195.046C75.5048 195.046 70.2637 200.287 70.2637 206.752C70.2637 213.217 75.5048 218.458 81.9701 218.458Z" fill="url(#paint26_linear_848_5706)"/>
<g opacity="0.696">
<path d="M81.8103 222.995C81.2412 222.995 80.672 222.944 80.1029 222.892L80.2581 221.236C80.7755 221.288 81.2929 221.34 81.8103 221.34H81.9655V222.995H81.8103ZM83.7256 222.892L83.5186 221.236C84.036 221.184 84.5534 221.081 85.0708 220.977L85.433 222.581L83.7256 222.892ZM78.3428 222.633C77.7767 222.531 77.2221 222.374 76.6871 222.163L77.2045 220.611C77.7219 220.766 78.1876 220.921 78.7097 221.024L78.3428 222.633ZM87.0915 222.116L86.5224 220.563C86.9927 220.408 87.5054 220.201 87.9711 219.994L88.6954 221.5C88.1752 221.702 87.6061 221.909 87.0887 222.116H87.0915ZM75.0851 221.495C74.5677 221.236 74.0503 220.977 73.5329 220.667L74.3607 219.27C74.8311 219.529 75.292 219.787 75.7577 219.994L75.0851 221.495ZM90.1968 220.615L89.3172 219.218C89.7681 218.955 90.2003 218.661 90.6107 218.339L91.6455 219.632C91.1771 219.942 90.7114 220.301 90.194 220.615H90.1968ZM72.0804 219.737C71.6101 219.374 71.2008 219.012 70.7352 218.598L71.8735 217.408C72.2464 217.764 72.6441 218.092 73.0635 218.391L72.0804 219.737ZM92.9371 218.495L91.7989 217.305C92.1704 216.951 92.5162 216.57 92.8337 216.167L94.0754 217.201C93.7388 217.668 93.3576 218.1 92.9371 218.493V218.495ZM69.596 217.357C69.2103 216.923 68.864 216.455 68.5612 215.96L69.9064 215.028L70.8377 216.27L69.596 217.357ZM95.1619 215.804L93.8167 214.873C94.1246 214.455 94.3849 214.004 94.5928 213.528L96.0415 214.304C95.779 214.821 95.4853 215.321 95.1619 215.802V215.804ZM67.6299 214.508C67.3712 213.991 67.1125 213.473 66.9055 212.956L68.4577 212.335C68.6647 212.805 68.8716 213.266 69.1303 213.732L67.6299 214.508ZM96.7668 212.748L95.2146 212.127C95.4258 211.644 95.5836 211.139 95.685 210.622L97.2889 211.036C97.1461 211.616 96.9718 212.187 96.7668 212.748ZM66.3354 211.299C66.1802 210.73 66.0767 210.161 65.9733 209.592L67.5772 209.333C67.6673 209.842 67.7882 210.345 67.9394 210.838L66.3354 211.299ZM97.6464 209.389L96.0425 209.13C96.1459 208.613 96.1459 208.095 96.1977 207.578L97.8534 207.63C97.8016 208.246 97.7508 208.815 97.6464 209.389ZM65.7663 207.884V206.124L67.422 206.227V207.779L65.7663 207.884ZM96.1459 206.02C96.0942 205.503 96.0425 204.985 95.939 204.468L97.5429 204.209C97.6464 204.778 97.6981 205.347 97.7499 205.918L96.1459 206.02ZM67.5781 204.675L65.9742 204.416C66.0777 203.847 66.1812 203.278 66.3364 202.708L67.9403 203.122C67.7707 203.627 67.6495 204.147 67.5781 204.675ZM95.6285 202.967C95.4874 202.474 95.3146 201.99 95.1111 201.519L96.6163 200.898C96.8369 201.439 97.027 201.991 97.1854 202.554L95.6285 202.967ZM68.406 201.675L66.8538 201.054C67.0638 200.523 67.3057 200.004 67.5781 199.502L69.0268 200.278C68.7889 200.729 68.5815 201.196 68.406 201.675ZM94.4385 200.123C94.1798 199.652 93.9211 199.243 93.6107 198.778L94.9559 197.846C95.2664 198.317 95.5768 198.829 95.8872 199.351L94.4385 200.123ZM69.8547 198.93L68.5094 197.999C68.8199 197.528 69.1821 197.067 69.5442 196.602L70.786 197.688C70.4191 198.057 70.1057 198.475 69.8547 198.93ZM92.6784 197.536C92.3163 197.122 91.9541 196.76 91.5919 196.398L92.7302 195.208C93.1441 195.621 93.558 196.035 93.9202 196.449L92.6784 197.536ZM71.8217 196.553L70.6834 195.363C71.0974 194.949 71.563 194.587 71.9769 194.224L72.96 195.518C72.5978 195.825 72.2356 196.188 71.8217 196.55V196.553ZM90.401 195.415C89.9905 195.092 89.5583 194.798 89.1075 194.535L89.9353 193.138C90.4379 193.436 90.9217 193.764 91.384 194.121L90.401 195.415ZM74.3052 194.638L73.4256 193.241C73.9099 192.935 74.4125 192.658 74.9308 192.414L75.6552 193.919C75.1893 194.126 74.7382 194.365 74.3052 194.635V194.638ZM87.7575 193.811C87.2874 193.59 86.8035 193.4 86.3088 193.241L86.8262 191.689C87.3954 191.896 87.9128 192.103 88.4301 192.31L87.7575 193.811ZM77.0963 193.34L76.5846 191.788C77.1218 191.584 77.6758 191.426 78.2403 191.318L78.6024 192.922C78.0894 193.013 77.5863 193.153 77.1001 193.341L77.0963 193.34ZM84.8103 192.87C84.2929 192.766 83.7755 192.663 83.2581 192.611L83.4133 190.956C83.9824 191.007 84.5516 191.111 85.1207 191.214L84.8103 192.87ZM80.1527 192.611L79.9458 190.956C80.5149 190.904 81.0841 190.852 81.6532 190.852V192.508C81.1885 192.564 80.6711 192.564 80.1537 192.617L80.1527 192.611Z" fill="#F6F2ED"/>
</g>
<path d="M81.3253 209.976L78.7345 207.398H73.6801L81.3253 215.018V209.976Z" fill="#F6F2ED"/>
<path d="M82.2739 215.06L89.9153 207.398H84.8721L82.2739 210.001V215.06Z" fill="#F6F2ED"/>
<path d="M82.2739 198.797V203.84L84.8891 206.451H89.9483L82.2739 198.797Z" fill="#F6F2ED"/>
<path d="M81.3178 198.793L73.6801 206.451H78.7233L81.3178 203.848V198.793Z" fill="#F6F2ED"/>
<g opacity="0.4">
<path d="M125.536 38L125.536 84" stroke="#F6F2ED" stroke-width="2" stroke-dasharray="2 2"/>
<path d="M149.537 89.5L189.581 64.5977" stroke="#F6F2ED" stroke-width="2" stroke-dasharray="2 2"/>
<path d="M150.069 111.633L200.868 133.27" stroke="#F6F2ED" stroke-width="2" stroke-dasharray="2 2"/>
<path d="M139.537 144L157.596 180.305" stroke="#F6F2ED" stroke-width="2" stroke-dasharray="2 2"/>
<path d="M117.036 145L92.6866 188.772" stroke="#F6F2ED" stroke-width="2" stroke-dasharray="2 2"/>
<path d="M50.3522 131.388L98.329 110.693" stroke="#F6F2ED" stroke-width="2" stroke-dasharray="2 2"/>
<path d="M71.0474 70.2419L100.537 90.5001" stroke="#F6F2ED" stroke-width="2" stroke-dasharray="2 2"/>
</g>
<path d="M145.536 96.5V114C145.536 128.993 125.556 138.99 125.536 139C125.536 139 105.536 129 105.536 114V96.5L125.536 89L145.536 96.5ZM117.18 109.668C116.921 109.479 116.557 109.664 116.557 109.984V112.938C116.557 113.062 116.616 113.179 116.716 113.253L123.953 118.596C124.257 118.82 124.099 119.301 123.722 119.302L116.951 119.314C116.734 119.315 116.559 119.49 116.559 119.706V122.055C116.559 122.271 116.734 122.446 116.951 122.446H134.21C134.427 122.446 134.603 122.271 134.603 122.055V119.691C134.603 119.475 134.427 119.3 134.21 119.3H127.435C127.058 119.3 126.898 118.819 127.201 118.594L134.461 113.185C134.561 113.111 134.62 112.994 134.62 112.87V109.997C134.619 109.677 134.256 109.492 133.997 109.681L125.809 115.632C125.671 115.731 125.485 115.731 125.348 115.631L117.18 109.668ZM117.181 103.009C116.922 102.82 116.558 103.005 116.558 103.325V106.273C116.558 106.401 116.62 106.519 116.724 106.593L125.132 112.528L125.372 112.679C125.499 112.758 125.661 112.758 125.788 112.679L126.029 112.528L134.455 106.524C134.559 106.451 134.62 106.333 134.62 106.206V103.338C134.62 103.018 134.257 102.833 133.998 103.021L125.81 108.972C125.672 109.072 125.486 109.072 125.349 108.972L117.181 103.009Z" fill="#F6F2ED"/>
<defs>
<linearGradient id="paint0_linear_848_5706" x1="225.026" y1="141.036" x2="250.724" y2="152.566" gradientUnits="userSpaceOnUse">
<stop stop-color="#846E55"/>
<stop offset="1" stop-color="#B3A55C"/>
</linearGradient>
<linearGradient id="paint1_linear_848_5706" x1="239.562" y1="114.241" x2="257.125" y2="122.121" gradientUnits="userSpaceOnUse">
<stop stop-color="#846E55"/>
<stop offset="1" stop-color="#B3A55C"/>
</linearGradient>
<linearGradient id="paint2_linear_848_5706" x1="4.98292" y1="74.3888" x2="37.575" y2="89.0122" gradientUnits="userSpaceOnUse">
<stop stop-color="#846E55"/>
<stop offset="1" stop-color="#B3A55C"/>
</linearGradient>
<linearGradient id="paint3_linear_848_5706" x1="214.008" y1="46.5109" x2="231.571" y2="54.3909" gradientUnits="userSpaceOnUse">
<stop stop-color="#846E55"/>
<stop offset="1" stop-color="#B3A55C"/>
</linearGradient>
<linearGradient id="paint4_linear_848_5706" x1="84.5075" y1="50.1262" x2="86.78" y2="49.4322" gradientUnits="userSpaceOnUse">
<stop stop-color="#846E55"/>
<stop offset="1" stop-color="#B3A55C"/>
</linearGradient>
<linearGradient id="paint5_linear_848_5706" x1="87.9387" y1="56.0684" x2="90.2113" y2="55.3744" gradientUnits="userSpaceOnUse">
<stop stop-color="#846E55"/>
<stop offset="1" stop-color="#B3A55C"/>
</linearGradient>
<linearGradient id="paint6_linear_848_5706" x1="88.9324" y1="52.1656" x2="92.4357" y2="52.8495" gradientUnits="userSpaceOnUse">
<stop stop-color="#846E55"/>
<stop offset="1" stop-color="#B3A55C"/>
</linearGradient>
<linearGradient id="paint7_linear_848_5706" x1="82.9894" y1="55.5961" x2="86.4926" y2="56.28" gradientUnits="userSpaceOnUse">
<stop stop-color="#846E55"/>
<stop offset="1" stop-color="#B3A55C"/>
</linearGradient>
<linearGradient id="paint8_linear_848_5706" x1="51.5155" y1="237.665" x2="54.6079" y2="238.38" gradientUnits="userSpaceOnUse">
<stop stop-color="#846E55"/>
<stop offset="1" stop-color="#B3A55C"/>
</linearGradient>
<linearGradient id="paint9_linear_848_5706" x1="51.5155" y1="246.831" x2="54.6079" y2="247.545" gradientUnits="userSpaceOnUse">
<stop stop-color="#846E55"/>
<stop offset="1" stop-color="#B3A55C"/>
</linearGradient>
<linearGradient id="paint10_linear_848_5706" x1="55.269" y1="242.979" x2="58.8649" y2="246.11" gradientUnits="userSpaceOnUse">
<stop stop-color="#846E55"/>
<stop offset="1" stop-color="#B3A55C"/>
</linearGradient>
<linearGradient id="paint11_linear_848_5706" x1="46.102" y1="242.979" x2="49.6979" y2="246.11" gradientUnits="userSpaceOnUse">
<stop stop-color="#846E55"/>
<stop offset="1" stop-color="#B3A55C"/>
</linearGradient>
<linearGradient id="paint12_linear_848_5706" x1="0.432869" y1="66.4623" x2="11.1848" y2="71.2864" gradientUnits="userSpaceOnUse">
<stop stop-color="#846E55"/>
<stop offset="1" stop-color="#B3A55C"/>
</linearGradient>
<linearGradient id="paint13_linear_848_5706" x1="13.2345" y1="117.903" x2="21.7628" y2="121.729" gradientUnits="userSpaceOnUse">
<stop stop-color="#846E55"/>
<stop offset="1" stop-color="#B3A55C"/>
</linearGradient>
<linearGradient id="paint14_linear_848_5706" x1="250.323" y1="135.972" x2="259.851" y2="140.247" gradientUnits="userSpaceOnUse">
<stop stop-color="#846E55"/>
<stop offset="1" stop-color="#B3A55C"/>
</linearGradient>
<linearGradient id="paint15_linear_848_5706" x1="191.383" y1="147.66" x2="192.813" y2="149.559" gradientUnits="userSpaceOnUse">
<stop stop-color="#846E55"/>
<stop offset="1" stop-color="#B3A55C"/>
</linearGradient>
<linearGradient id="paint16_linear_848_5706" x1="186.97" y1="152.917" x2="188.399" y2="154.815" gradientUnits="userSpaceOnUse">
<stop stop-color="#846E55"/>
<stop offset="1" stop-color="#B3A55C"/>
</linearGradient>
<linearGradient id="paint17_linear_848_5706" x1="190.983" y1="152.513" x2="191.539" y2="156.039" gradientUnits="userSpaceOnUse">
<stop stop-color="#846E55"/>
<stop offset="1" stop-color="#B3A55C"/>
</linearGradient>
<linearGradient id="paint18_linear_848_5706" x1="185.727" y1="148.102" x2="186.283" y2="151.628" gradientUnits="userSpaceOnUse">
<stop stop-color="#846E55"/>
<stop offset="1" stop-color="#B3A55C"/>
</linearGradient>
<linearGradient id="paint19_linear_848_5706" x1="209.849" y1="41.5707" x2="218.378" y2="45.3972" gradientUnits="userSpaceOnUse">
<stop stop-color="#846E55"/>
<stop offset="1" stop-color="#B3A55C"/>
</linearGradient>
<linearGradient id="paint20_linear_848_5706" x1="114.048" y1="5.29944" x2="151.091" y2="21.9195" gradientUnits="userSpaceOnUse">
<stop stop-color="#846E55"/>
<stop offset="1" stop-color="#B3A55C"/>
</linearGradient>
<linearGradient id="paint21_linear_848_5706" x1="193.253" y1="41.3124" x2="230.295" y2="57.9325" gradientUnits="userSpaceOnUse">
<stop stop-color="#846E55"/>
<stop offset="1" stop-color="#B3A55C"/>
</linearGradient>
<linearGradient id="paint22_linear_848_5706" x1="16.9294" y1="127.669" x2="53.9716" y2="144.289" gradientUnits="userSpaceOnUse">
<stop stop-color="#846E55"/>
<stop offset="1" stop-color="#B3A55C"/>
</linearGradient>
<linearGradient id="paint23_linear_848_5706" x1="152.41" y1="190.537" x2="202.288" y2="212.916" gradientUnits="userSpaceOnUse">
<stop stop-color="#846E55"/>
<stop offset="1" stop-color="#B3A55C"/>
</linearGradient>
<linearGradient id="paint24_linear_848_5706" x1="30.2766" y1="38.0734" x2="84.9261" y2="62.5935" gradientUnits="userSpaceOnUse">
<stop stop-color="#846E55"/>
<stop offset="1" stop-color="#B3A55C"/>
</linearGradient>
<linearGradient id="paint25_linear_848_5706" x1="212.346" y1="124.652" x2="254.851" y2="143.722" gradientUnits="userSpaceOnUse">
<stop stop-color="#846E55"/>
<stop offset="1" stop-color="#B3A55C"/>
</linearGradient>
<linearGradient id="paint26_linear_848_5706" x1="69.9063" y1="196.151" x2="106.949" y2="212.771" gradientUnits="userSpaceOnUse">
<stop stop-color="#846E55"/>
<stop offset="1" stop-color="#B3A55C"/>
</linearGradient>
</defs>
</svg>
