<svg width="125" height="117" viewBox="0 0 125 117" fill="none" xmlns="http://www.w3.org/2000/svg">
<path opacity="0.4" d="M120.986 30.9937C120.845 30.9586 120.723 30.8711 120.645 30.7491C120.566 30.6271 120.537 30.4797 120.563 30.337C120.59 30.1943 120.669 30.0671 120.786 29.9811C120.903 29.8952 121.049 29.8571 121.193 29.8746C121.337 29.8921 121.469 29.9639 121.562 30.0753C121.655 30.1867 121.702 30.3294 121.693 30.4742C121.684 30.6191 121.621 30.7552 121.516 30.8549C121.41 30.9545 121.271 31.0102 121.125 31.0106C121.078 31.0107 121.032 31.005 120.986 30.9937ZM122.744 28.9104C122.744 28.7449 122.793 28.5831 122.885 28.4455C122.977 28.3079 123.108 28.2007 123.261 28.1374C123.414 28.074 123.582 28.0575 123.744 28.0897C123.906 28.122 124.055 28.2017 124.172 28.3187C124.289 28.4357 124.369 28.5848 124.401 28.7471C124.434 28.9094 124.417 29.0777 124.354 29.2306C124.291 29.3835 124.183 29.5141 124.046 29.6061C123.908 29.698 123.746 29.7471 123.581 29.7471C123.471 29.7471 123.362 29.7254 123.261 29.6834C123.159 29.6413 123.067 29.5797 122.989 29.502C122.832 29.3451 122.744 29.1323 122.744 28.9104ZM120.307 10.2054C120.307 9.99568 120.369 9.79069 120.486 9.61639C120.603 9.44209 120.768 9.30631 120.962 9.22622C121.156 9.14614 121.369 9.12533 121.575 9.16645C121.781 9.20756 121.97 9.30875 122.118 9.45721C122.266 9.60567 122.367 9.79473 122.408 10.0005C122.448 10.2063 122.427 10.4195 122.347 10.6132C122.266 10.8069 122.13 10.9724 121.956 11.0888C121.781 11.2052 121.576 11.2672 121.366 11.267C121.227 11.267 121.089 11.2395 120.96 11.1861C120.832 11.1328 120.715 11.0545 120.616 10.9559C120.518 10.8573 120.44 10.7403 120.387 10.6115C120.334 10.4827 120.306 10.3447 120.307 10.2054Z" fill="url(#paint0_linear_591_5825)"/>
<path opacity="0.4" d="M114.655 29.746C120.046 29.746 124.415 25.3763 124.415 19.9861C124.415 14.5958 120.046 10.2262 114.655 10.2262C109.265 10.2262 104.896 14.5958 104.896 19.9861C104.896 25.3763 109.265 29.746 114.655 29.746Z" fill="url(#paint1_linear_591_5825)"/>
<path opacity="0.4" d="M26.5621 111.076C41.1295 111.076 52.9386 99.2673 52.9386 84.6999C52.9386 70.1325 41.1295 58.3234 26.5621 58.3234C11.9947 58.3234 0.185547 70.1325 0.185547 84.6999C0.185547 99.2673 11.9947 111.076 26.5621 111.076Z" fill="url(#paint2_linear_591_5825)"/>
<path opacity="0.4" d="M19.2721 114.742C19.2721 114.295 19.4046 113.858 19.6529 113.486C19.9012 113.115 20.254 112.825 20.6669 112.654C21.0797 112.483 21.534 112.438 21.9723 112.526C22.4106 112.613 22.8132 112.828 23.1292 113.144C23.4451 113.46 23.6603 113.862 23.7475 114.301C23.8347 114.739 23.7899 115.193 23.6189 115.606C23.4479 116.019 23.1583 116.372 22.7868 116.62C22.4152 116.868 21.9784 117.001 21.5315 117.001C20.9323 117.001 20.3576 116.763 19.9339 116.339C19.5102 115.915 19.2721 115.341 19.2721 114.742ZM27.1745 114.85C27.1745 114.545 27.2651 114.246 27.4347 113.993C27.6043 113.739 27.8453 113.541 28.1273 113.424C28.4094 113.308 28.7197 113.277 29.019 113.337C29.3184 113.396 29.5933 113.543 29.8091 113.759C30.0249 113.975 30.1717 114.25 30.2312 114.55C30.2906 114.849 30.2599 115.159 30.143 115.441C30.026 115.723 29.8281 115.964 29.5742 116.133C29.3203 116.303 29.0219 116.393 28.7166 116.393C28.3075 116.393 27.9153 116.23 27.6262 115.941C27.337 115.651 27.1745 115.259 27.1745 114.85ZM6.46191 58.961C6.46191 58.3941 6.63002 57.8399 6.94497 57.3686C7.25992 56.8972 7.70757 56.5299 8.23132 56.3129C8.75506 56.096 9.33137 56.0392 9.88738 56.1498C10.4434 56.2604 10.9541 56.5334 11.355 56.9342C11.7558 57.3351 12.0288 57.8458 12.1394 58.4018C12.25 58.9578 12.1932 59.5341 11.9763 60.0579C11.7593 60.5816 11.392 61.0293 10.9206 61.3442C10.4493 61.6592 9.89509 61.8273 9.32819 61.8273C8.56801 61.8273 7.83896 61.5253 7.30143 60.9878C6.7639 60.4502 6.46191 59.7212 6.46191 58.961Z" fill="url(#paint3_linear_591_5825)"/>
<path d="M40.0361 4.97481L40.0361 106.864C40.0361 109.611 42.2633 111.838 45.0106 111.838H105.623C108.371 111.838 110.598 109.611 110.598 106.864V4.97481C110.598 2.22749 108.371 0.000358582 105.623 0.000358582H45.0106C42.2633 0.000358582 40.0361 2.22749 40.0361 4.97481Z" fill="#F6F2ED"/>
<path fill-rule="evenodd" clip-rule="evenodd" d="M91.5026 56.3599C91.5026 68.488 75.3319 76.5733 75.3319 76.5733C75.3319 76.5733 59.1611 68.488 59.1611 56.3599V42.2105L75.3319 36.1465L91.5026 42.2105V56.3599ZM75.0047 55.1701L68.2062 50.3714C68.1221 50.312 68.0721 50.2156 68.0721 50.1126V47.729C68.0721 47.4699 68.3663 47.3204 68.5756 47.4732L75.1801 52.2943C75.2911 52.3754 75.4418 52.3756 75.553 52.2947L82.1732 47.4831C82.3825 47.3309 82.6761 47.4805 82.6761 47.7393V50.0581C82.6761 50.1605 82.6266 50.2566 82.5431 50.316L75.7296 55.1701L75.535 55.2917C75.4323 55.3559 75.302 55.3559 75.1993 55.2917L75.0047 55.1701ZM68.3892 60.6567C68.2145 60.657 68.0731 60.7987 68.0731 60.9734V62.8726C68.0731 63.0475 68.2149 63.1893 68.3898 63.1893L82.345 63.1894C82.5199 63.1894 82.6617 63.0476 82.6617 62.8726V60.9619C82.6617 60.787 82.5199 60.6452 82.345 60.6452L76.8663 60.6454C76.5614 60.6454 76.4326 60.2568 76.6771 60.0747L82.5478 55.7007C82.628 55.6409 82.6753 55.5468 82.6753 55.4467V53.1237C82.6753 52.8648 82.3817 52.7153 82.1724 52.8674L75.5522 57.6791C75.441 57.76 75.2903 57.7598 75.1793 57.6787L68.5748 52.8575C68.3655 52.7048 68.0713 52.8542 68.0713 53.1134V55.5013C68.0713 55.6018 68.119 55.6964 68.1999 55.7561L74.0517 60.0755C74.2973 60.2568 74.1695 60.6465 73.8642 60.6471L68.3892 60.6567Z" fill="#272421"/>
<path d="M40.7832 4.97488L40.7832 106.864C40.7832 109.199 42.6763 111.092 45.0115 111.092H105.624C107.959 111.092 109.853 109.199 109.853 106.864V4.97488C109.853 2.63967 107.959 0.746597 105.624 0.746597H45.0115C42.6763 0.746597 40.7832 2.63967 40.7832 4.97488Z" stroke="#272421" stroke-width="1.5"/>
<path d="M46.9775 11.1683L46.9775 101.022C46.9775 103.357 48.8706 105.25 51.2058 105.25H99.9226C102.258 105.25 104.151 103.357 104.151 101.022V11.1683C104.151 8.83305 102.258 6.93999 99.9226 6.93999H51.2058C48.8706 6.93999 46.9775 8.83305 46.9775 11.1683Z" stroke="#272421" stroke-width="1.5" stroke-dasharray="1.5 2"/>
<defs>
<linearGradient id="paint0_linear_591_5825" x1="120.244" y1="10.1784" x2="128.002" y2="10.8328" gradientUnits="userSpaceOnUse">
<stop stop-color="#A58969"/>
<stop offset="1" stop-color="#C7B664"/>
</linearGradient>
<linearGradient id="paint1_linear_591_5825" x1="104.597" y1="11.148" x2="135.481" y2="25.0045" gradientUnits="userSpaceOnUse">
<stop stop-color="#A58969"/>
<stop offset="1" stop-color="#C7B664"/>
</linearGradient>
<linearGradient id="paint2_linear_591_5825" x1="-0.619844" y1="60.8145" x2="82.8434" y2="98.2624" gradientUnits="userSpaceOnUse">
<stop stop-color="#A58969"/>
<stop offset="1" stop-color="#C7B664"/>
</linearGradient>
<linearGradient id="paint3_linear_591_5825" x1="6.09857" y1="58.9709" x2="49.9829" y2="66.6646" gradientUnits="userSpaceOnUse">
<stop stop-color="#A58969"/>
<stop offset="1" stop-color="#C7B664"/>
</linearGradient>
</defs>
</svg>
