<svg width="24" height="24" viewBox="0 0 24 24" fill="none" xmlns="http://www.w3.org/2000/svg">
<path fill-rule="evenodd" clip-rule="evenodd" d="M12 0C5.37242 0 0 5.37242 0 12C0 18.6276 5.37242 24 12 24C18.6276 24 24 18.6276 24 12C24 5.37242 18.6276 0 12 0ZM8.18182 11.9996C8.18182 12.9034 7.44919 13.636 6.54545 13.636C5.64171 13.636 4.90909 12.9034 4.90909 11.9996C4.90909 11.0959 5.64171 10.3633 6.54545 10.3633C7.44919 10.3633 8.18182 11.0959 8.18182 11.9996ZM11.9996 13.636C12.9034 13.636 13.636 12.9034 13.636 11.9996C13.636 11.0959 12.9034 10.3633 11.9996 10.3633C11.0959 10.3633 10.3633 11.0959 10.3633 11.9996C10.3633 12.9034 11.0959 13.636 11.9996 13.636ZM19.0909 11.9996C19.0909 12.9034 18.3583 13.636 17.4545 13.636C16.5508 13.636 15.8182 12.9034 15.8182 11.9996C15.8182 11.0959 16.5508 10.3633 17.4545 10.3633C18.3583 10.3633 19.0909 11.0959 19.0909 11.9996Z" fill="url(#paint0_linear_281_6188)"/>
<defs>
<linearGradient id="paint0_linear_281_6188" x1="-0.366412" y1="1.13333" x2="37.6052" y2="18.1703" gradientUnits="userSpaceOnUse">
<stop stop-color="#A58969"/>
<stop offset="1" stop-color="#C7B664"/>
</linearGradient>
</defs>
</svg>
