<svg width="175" height="174" viewBox="0 0 175 174" fill="none" xmlns="http://www.w3.org/2000/svg">
<path opacity="0.2" d="M88.2742 167.308C124.556 167.308 153.968 137.897 153.968 101.615C153.968 65.3338 124.556 35.9219 88.2742 35.9219C51.9926 35.9219 22.5806 65.3338 22.5806 101.615C22.5806 137.897 51.9926 167.308 88.2742 167.308Z" fill="url(#paint0_linear_2425_28429)"/>
<path d="M167.783 106.68C169.182 106.68 170.316 105.546 170.316 104.147C170.316 102.748 169.182 101.613 167.783 101.613C166.383 101.613 165.249 102.748 165.249 104.147C165.249 105.546 166.383 106.68 167.783 106.68Z" fill="url(#paint1_linear_2425_28429)"/>
<path d="M6.63903 106.68C8.03827 106.68 9.17258 105.546 9.17258 104.147C9.17258 102.748 8.03827 101.613 6.63903 101.613C5.23978 101.613 4.10547 102.748 4.10547 104.147C4.10547 105.546 5.23978 106.68 6.63903 106.68Z" fill="url(#paint2_linear_2425_28429)"/>
<path d="M6.71299 48.2422H5.4292V51.4754H6.71299V48.2422Z" fill="url(#paint3_linear_2425_28429)"/>
<path d="M6.71299 57.1484H5.4292V60.3817H6.71299V57.1484Z" fill="url(#paint4_linear_2425_28429)"/>
<path d="M3.23323 53.668H0V54.9518H3.23323V53.668Z" fill="url(#paint5_linear_2425_28429)"/>
<path d="M12.1405 53.668H8.90723V54.9518H12.1405V53.668Z" fill="url(#paint6_linear_2425_28429)"/>
<path d="M109.04 160.117H107.62V163.695H109.04V160.117Z" fill="url(#paint7_linear_2425_28429)"/>
<path d="M109.04 169.973H107.62V173.55H109.04V169.973Z" fill="url(#paint8_linear_2425_28429)"/>
<path d="M105.19 166.125H101.613V167.545H105.19V166.125Z" fill="url(#paint9_linear_2425_28429)"/>
<path d="M115.047 166.125H111.47V167.545H115.047V166.125Z" fill="url(#paint10_linear_2425_28429)"/>
<path d="M56.5399 173.637C57.7223 173.637 58.6809 172.679 58.6809 171.496C58.6809 170.314 57.7223 169.355 56.5399 169.355C55.3575 169.355 54.3989 170.314 54.3989 171.496C54.3989 172.679 55.3575 173.637 56.5399 173.637Z" fill="url(#paint11_linear_2425_28429)"/>
<path opacity="0.2" d="M50.4101 44.367C51.2452 44.367 52.0616 44.1193 52.756 43.6554C53.4504 43.1914 53.9916 42.5319 54.3112 41.7603C54.6308 40.9888 54.7144 40.1398 54.5515 39.3207C54.3886 38.5016 53.9864 37.7492 53.3959 37.1586C52.8054 36.5681 52.053 36.1659 51.2339 36.003C50.4148 35.8401 49.5657 35.9237 48.7942 36.2433C48.0226 36.5629 47.3631 37.1041 46.8991 37.7985C46.4351 38.4929 46.1875 39.3093 46.1875 40.1444C46.1875 41.2643 46.6324 42.3384 47.4243 43.1302C48.2161 43.9221 49.2902 44.367 50.4101 44.367Z" fill="url(#paint12_linear_2425_28429)"/>
<path d="M135.012 15.3945H133.728V18.6277H135.012V15.3945Z" fill="url(#paint13_linear_2425_28429)"/>
<path d="M135.012 24.3047H133.729V27.5379H135.012V24.3047Z" fill="url(#paint14_linear_2425_28429)"/>
<path d="M131.532 20.8242H128.299V22.108H131.532V20.8242Z" fill="url(#paint15_linear_2425_28429)"/>
<path d="M140.439 20.8242H137.206V22.108H140.439V20.8242Z" fill="url(#paint16_linear_2425_28429)"/>
<path d="M145.323 74.078C147.922 74.078 150.03 71.9706 150.03 69.371C150.03 66.7714 147.922 64.6641 145.323 64.6641C142.723 64.6641 140.616 66.7714 140.616 69.371C140.616 71.9706 142.723 74.078 145.323 74.078Z" fill="url(#paint17_linear_2425_28429)"/>
<path d="M108.797 83.6513V101.613C108.797 116.965 88.3875 127.214 88.27 127.272C88.27 127.272 67.742 117.009 67.7417 101.613V83.6513L88.27 75.9531L108.797 83.6513ZM79.6919 97.1669C79.4262 96.9733 79.0532 97.1633 79.0532 97.4921V100.523C79.0533 100.651 79.1137 100.771 79.2163 100.847L86.645 106.33C86.9566 106.56 86.7942 107.055 86.4067 107.056L79.4565 107.067C79.2348 107.068 79.0552 107.248 79.0552 107.47V109.881C79.0553 110.103 79.2355 110.282 79.4575 110.282L97.1724 110.283C97.3944 110.283 97.5746 110.103 97.5747 109.881V107.455C97.5746 107.233 97.3944 107.053 97.1724 107.053L90.2183 107.054C89.8312 107.054 89.6677 106.56 89.978 106.329L97.4302 100.776C97.532 100.7 97.5922 100.581 97.5923 100.454V97.5048C97.5922 97.1763 97.2194 96.9865 96.9536 97.1796L88.5493 103.288C88.4082 103.39 88.2175 103.39 88.0767 103.287L79.6919 97.1669ZM79.6929 90.332C79.4273 90.1383 79.0545 90.3276 79.0542 90.6562V93.6826C79.0542 93.8131 79.1175 93.9353 79.2241 94.0107L87.855 100.102L88.1021 100.257C88.2324 100.338 88.3975 100.338 88.5278 100.257L88.7749 100.102L97.4243 93.9404C97.5301 93.8649 97.5933 93.7431 97.5933 93.6132V90.6699C97.5933 90.3413 97.2204 90.1515 96.9546 90.3447L88.5503 96.4531C88.4092 96.5553 88.2184 96.5547 88.0776 96.4521L79.6929 90.332Z" fill="url(#paint18_linear_2425_28429)"/>
<circle cx="14.8826" cy="148.314" r="12.3299" stroke="url(#paint19_linear_2425_28429)"/>
<path d="M14.7971 148.159C15.6926 148.159 16.4681 147.838 17.1017 147.204C17.7354 146.571 18.0566 145.796 18.0566 144.9C18.0566 144.005 17.7354 143.229 17.1016 142.595C16.4679 141.962 15.6925 141.641 14.7971 141.641C13.9014 141.641 13.1261 141.962 12.4925 142.595C11.8589 143.229 11.5376 144.004 11.5376 144.9C11.5376 145.796 11.8589 146.571 12.4926 147.205C13.1264 147.838 13.9017 148.159 14.7971 148.159ZM20.5003 152.047C20.482 151.783 20.445 151.495 20.3906 151.191C20.3357 150.885 20.265 150.596 20.1803 150.332C20.0929 150.058 19.9739 149.789 19.8269 149.53C19.6743 149.261 19.4951 149.028 19.2939 148.835C19.0836 148.634 18.8261 148.472 18.5284 148.354C18.2317 148.237 17.9028 148.178 17.5511 148.178C17.4129 148.178 17.2793 148.234 17.0213 148.402C16.8379 148.522 16.6539 148.64 16.4695 148.758C16.2922 148.871 16.052 148.977 15.7554 149.073C15.466 149.166 15.1722 149.214 14.8822 149.214C14.5922 149.214 14.2984 149.166 14.0087 149.073C13.7124 148.977 13.4722 148.871 13.2952 148.758C13.0898 148.627 12.904 148.507 12.7428 148.402C12.4851 148.234 12.3514 148.177 12.2133 148.177C11.8614 148.177 11.5327 148.237 11.236 148.354C10.9385 148.472 10.6809 148.634 10.4704 148.836C10.2694 149.028 10.09 149.262 9.93762 149.53C9.79072 149.789 9.67178 150.058 9.58421 150.332C9.49963 150.596 9.42893 150.885 9.37401 151.191C9.31959 151.495 9.28264 151.783 9.26435 152.047C9.24615 152.313 9.23713 152.579 9.23731 152.846C9.23731 153.552 9.46186 154.124 9.90469 154.546C10.342 154.962 10.9207 155.173 11.6244 155.173H18.1405C18.8442 155.173 19.4227 154.962 19.8601 154.546C20.3031 154.125 20.5276 153.553 20.5276 152.846C20.5275 152.573 20.5183 152.304 20.5003 152.047Z" fill="url(#paint20_linear_2425_28429)"/>
<circle cx="161.657" cy="148.314" r="12.3299" stroke="url(#paint21_linear_2425_28429)"/>
<path d="M161.797 148.159C162.693 148.159 163.468 147.838 164.102 147.204C164.735 146.571 165.057 145.796 165.057 144.9C165.057 144.005 164.735 143.229 164.102 142.595C163.468 141.962 162.693 141.641 161.797 141.641C160.901 141.641 160.126 141.962 159.493 142.595C158.859 143.229 158.538 144.004 158.538 144.9C158.538 145.796 158.859 146.571 159.493 147.205C160.126 147.838 160.902 148.159 161.797 148.159ZM167.5 152.047C167.482 151.783 167.445 151.495 167.391 151.191C167.336 150.885 167.265 150.596 167.18 150.332C167.093 150.058 166.974 149.789 166.827 149.53C166.674 149.261 166.495 149.028 166.294 148.835C166.084 148.634 165.826 148.472 165.528 148.354C165.232 148.237 164.903 148.178 164.551 148.178C164.413 148.178 164.279 148.234 164.021 148.402C163.838 148.522 163.654 148.64 163.469 148.758C163.292 148.871 163.052 148.977 162.755 149.073C162.466 149.166 162.172 149.214 161.882 149.214C161.592 149.214 161.298 149.166 161.009 149.073C160.712 148.977 160.472 148.871 160.295 148.758C160.09 148.627 159.904 148.507 159.743 148.402C159.485 148.234 159.351 148.177 159.213 148.177C158.861 148.177 158.533 148.237 158.236 148.354C157.938 148.472 157.681 148.634 157.47 148.836C157.269 149.028 157.09 149.262 156.938 149.53C156.791 149.789 156.672 150.058 156.584 150.332C156.5 150.596 156.429 150.885 156.374 151.191C156.32 151.495 156.283 151.783 156.264 152.047C156.246 152.313 156.237 152.579 156.237 152.846C156.237 153.552 156.462 154.124 156.905 154.546C157.342 154.962 157.921 155.173 158.624 155.173H165.14C165.844 155.173 166.423 154.962 166.86 154.546C167.303 154.125 167.528 153.553 167.528 152.846C167.528 152.573 167.518 152.304 167.5 152.047Z" fill="url(#paint22_linear_2425_28429)"/>
<circle cx="88.783" cy="12.8299" r="12.3299" stroke="url(#paint23_linear_2425_28429)"/>
<path d="M88.7971 13.1594C89.6926 13.1594 90.4681 12.8381 91.1017 12.2044C91.7354 11.5708 92.0566 10.7955 92.0566 9.8999C92.0566 9.00452 91.7354 8.22917 91.1016 7.59533C90.4679 6.96181 89.6925 6.64062 88.7971 6.64062C87.9014 6.64062 87.1261 6.96181 86.4925 7.59544C85.8589 8.22907 85.5376 9.00444 85.5376 9.8999C85.5376 10.7955 85.8589 11.5709 86.4926 12.2045C87.1264 12.8381 87.9017 13.1594 88.7971 13.1594ZM94.5003 17.0465C94.482 16.7829 94.445 16.4952 94.3906 16.1915C94.3357 15.8854 94.265 15.5961 94.1803 15.3317C94.0929 15.0584 93.9739 14.7886 93.8269 14.5299C93.6743 14.2615 93.4951 14.0277 93.2939 13.8354C93.0836 13.6342 92.8261 13.4724 92.5284 13.3544C92.2317 13.237 91.9028 13.1775 91.5511 13.1775C91.4129 13.1775 91.2793 13.2342 91.0213 13.4022C90.8379 13.5216 90.6539 13.6402 90.4695 13.758C90.2922 13.8709 90.052 13.9768 89.7554 14.0726C89.466 14.1662 89.1722 14.2137 88.8822 14.2137C88.5922 14.2137 88.2984 14.1662 88.0087 14.0726C87.7124 13.9768 87.4722 13.871 87.2952 13.7581C87.0898 13.6268 86.904 13.5071 86.7428 13.4021C86.4851 13.2341 86.3514 13.1774 86.2133 13.1774C85.8614 13.1774 85.5327 13.237 85.236 13.3545C84.9385 13.4723 84.6809 13.6341 84.4704 13.8355C84.2694 14.0279 84.09 14.2616 83.9376 14.5299C83.7907 14.7886 83.6718 15.0583 83.5842 15.3318C83.4996 15.5963 83.4289 15.8854 83.374 16.1915C83.3196 16.4948 83.2826 16.7825 83.2643 17.0469C83.2462 17.3128 83.2371 17.5794 83.2373 17.846C83.2373 18.5524 83.4619 19.1242 83.9047 19.546C84.342 19.9622 84.9207 20.1733 85.6244 20.1733H92.1405C92.8442 20.1733 93.4227 19.9623 93.8601 19.546C94.3031 19.1246 94.5276 18.5526 94.5276 17.8459C94.5275 17.5732 94.5183 17.3042 94.5003 17.0465Z" fill="url(#paint24_linear_2425_28429)"/>
<path d="M88.5 28V70.5" stroke="url(#paint25_linear_2425_28429)" stroke-dasharray="2 2"/>
<path d="M61 117.5L26.5 137.5" stroke="url(#paint26_linear_2425_28429)" stroke-dasharray="2 2"/>
<path d="M116 117L151 137.5" stroke="url(#paint27_linear_2425_28429)" stroke-dasharray="2 2"/>
<defs>
<linearGradient id="paint0_linear_2425_28429" x1="20.5747" y1="42.1262" x2="228.449" y2="135.395" gradientUnits="userSpaceOnUse">
<stop stop-color="#846E55"/>
<stop offset="1" stop-color="#B3A55C"/>
</linearGradient>
<linearGradient id="paint1_linear_2425_28429" x1="165.172" y1="101.853" x2="173.189" y2="105.45" gradientUnits="userSpaceOnUse">
<stop stop-color="#846E55"/>
<stop offset="1" stop-color="#B3A55C"/>
</linearGradient>
<linearGradient id="paint2_linear_2425_28429" x1="4.02811" y1="101.853" x2="12.045" y2="105.45" gradientUnits="userSpaceOnUse">
<stop stop-color="#846E55"/>
<stop offset="1" stop-color="#B3A55C"/>
</linearGradient>
<linearGradient id="paint3_linear_2425_28429" x1="5.4096" y1="48.3949" x2="7.77459" y2="48.8162" gradientUnits="userSpaceOnUse">
<stop stop-color="#846E55"/>
<stop offset="1" stop-color="#B3A55C"/>
</linearGradient>
<linearGradient id="paint4_linear_2425_28429" x1="5.4096" y1="57.3011" x2="7.77459" y2="57.7224" gradientUnits="userSpaceOnUse">
<stop stop-color="#846E55"/>
<stop offset="1" stop-color="#B3A55C"/>
</linearGradient>
<linearGradient id="paint5_linear_2425_28429" x1="-0.0493624" y1="53.7286" x2="2.64961" y2="56.7784" gradientUnits="userSpaceOnUse">
<stop stop-color="#846E55"/>
<stop offset="1" stop-color="#B3A55C"/>
</linearGradient>
<linearGradient id="paint6_linear_2425_28429" x1="8.85786" y1="53.7286" x2="11.5568" y2="56.7784" gradientUnits="userSpaceOnUse">
<stop stop-color="#846E55"/>
<stop offset="1" stop-color="#B3A55C"/>
</linearGradient>
<linearGradient id="paint7_linear_2425_28429" x1="107.598" y1="160.286" x2="110.214" y2="160.752" gradientUnits="userSpaceOnUse">
<stop stop-color="#846E55"/>
<stop offset="1" stop-color="#B3A55C"/>
</linearGradient>
<linearGradient id="paint8_linear_2425_28429" x1="107.598" y1="170.142" x2="110.214" y2="170.608" gradientUnits="userSpaceOnUse">
<stop stop-color="#846E55"/>
<stop offset="1" stop-color="#B3A55C"/>
</linearGradient>
<linearGradient id="paint9_linear_2425_28429" x1="101.558" y1="166.192" x2="104.543" y2="169.567" gradientUnits="userSpaceOnUse">
<stop stop-color="#846E55"/>
<stop offset="1" stop-color="#B3A55C"/>
</linearGradient>
<linearGradient id="paint10_linear_2425_28429" x1="111.415" y1="166.192" x2="114.4" y2="169.567" gradientUnits="userSpaceOnUse">
<stop stop-color="#846E55"/>
<stop offset="1" stop-color="#B3A55C"/>
</linearGradient>
<linearGradient id="paint11_linear_2425_28429" x1="54.3336" y1="169.558" x2="61.1082" y2="172.597" gradientUnits="userSpaceOnUse">
<stop stop-color="#846E55"/>
<stop offset="1" stop-color="#B3A55C"/>
</linearGradient>
<linearGradient id="paint12_linear_2425_28429" x1="46.0586" y1="36.3207" x2="59.42" y2="42.3157" gradientUnits="userSpaceOnUse">
<stop stop-color="#846E55"/>
<stop offset="1" stop-color="#B3A55C"/>
</linearGradient>
<linearGradient id="paint13_linear_2425_28429" x1="133.708" y1="15.5472" x2="136.073" y2="15.9685" gradientUnits="userSpaceOnUse">
<stop stop-color="#846E55"/>
<stop offset="1" stop-color="#B3A55C"/>
</linearGradient>
<linearGradient id="paint14_linear_2425_28429" x1="133.709" y1="24.4573" x2="136.074" y2="24.8787" gradientUnits="userSpaceOnUse">
<stop stop-color="#846E55"/>
<stop offset="1" stop-color="#B3A55C"/>
</linearGradient>
<linearGradient id="paint15_linear_2425_28429" x1="128.249" y1="20.8848" x2="130.948" y2="23.9347" gradientUnits="userSpaceOnUse">
<stop stop-color="#846E55"/>
<stop offset="1" stop-color="#B3A55C"/>
</linearGradient>
<linearGradient id="paint16_linear_2425_28429" x1="137.157" y1="20.8848" x2="139.856" y2="23.9347" gradientUnits="userSpaceOnUse">
<stop stop-color="#846E55"/>
<stop offset="1" stop-color="#B3A55C"/>
</linearGradient>
<linearGradient id="paint17_linear_2425_28429" x1="140.472" y1="65.1086" x2="155.366" y2="71.7913" gradientUnits="userSpaceOnUse">
<stop stop-color="#846E55"/>
<stop offset="1" stop-color="#B3A55C"/>
</linearGradient>
<linearGradient id="paint18_linear_2425_28429" x1="67.1149" y1="78.3765" x2="136.241" y2="103.189" gradientUnits="userSpaceOnUse">
<stop stop-color="#846E55"/>
<stop offset="1" stop-color="#B3A55C"/>
</linearGradient>
<linearGradient id="paint19_linear_2425_28429" x1="1.66098" y1="136.696" x2="42.2587" y2="154.911" gradientUnits="userSpaceOnUse">
<stop stop-color="#846E55"/>
<stop offset="1" stop-color="#B3A55C"/>
</linearGradient>
<linearGradient id="paint20_linear_2425_28429" x1="9.06493" y1="142.28" x2="27.8866" y2="149.325" gradientUnits="userSpaceOnUse">
<stop stop-color="#846E55"/>
<stop offset="1" stop-color="#B3A55C"/>
</linearGradient>
<linearGradient id="paint21_linear_2425_28429" x1="148.435" y1="136.696" x2="189.033" y2="154.911" gradientUnits="userSpaceOnUse">
<stop stop-color="#846E55"/>
<stop offset="1" stop-color="#B3A55C"/>
</linearGradient>
<linearGradient id="paint22_linear_2425_28429" x1="156.065" y1="142.28" x2="174.887" y2="149.325" gradientUnits="userSpaceOnUse">
<stop stop-color="#846E55"/>
<stop offset="1" stop-color="#B3A55C"/>
</linearGradient>
<linearGradient id="paint23_linear_2425_28429" x1="75.5614" y1="1.21171" x2="116.159" y2="19.4269" gradientUnits="userSpaceOnUse">
<stop stop-color="#846E55"/>
<stop offset="1" stop-color="#B3A55C"/>
</linearGradient>
<linearGradient id="paint24_linear_2425_28429" x1="83.0649" y1="7.27967" x2="101.887" y2="14.3252" gradientUnits="userSpaceOnUse">
<stop stop-color="#846E55"/>
<stop offset="1" stop-color="#B3A55C"/>
</linearGradient>
<linearGradient id="paint25_linear_2425_28429" x1="88.4847" y1="30.0069" x2="90.3852" y2="30.027" gradientUnits="userSpaceOnUse">
<stop stop-color="#846E55"/>
<stop offset="1" stop-color="#B3A55C"/>
</linearGradient>
<linearGradient id="paint26_linear_2425_28429" x1="25.9733" y1="118.444" x2="66.9811" y2="150.183" gradientUnits="userSpaceOnUse">
<stop stop-color="#846E55"/>
<stop offset="1" stop-color="#B3A55C"/>
</linearGradient>
<linearGradient id="paint27_linear_2425_28429" x1="115.466" y1="117.968" x2="157.388" y2="150.082" gradientUnits="userSpaceOnUse">
<stop stop-color="#846E55"/>
<stop offset="1" stop-color="#B3A55C"/>
</linearGradient>
</defs>
</svg>
