<svg width="15" height="15" viewBox="0 0 15 15" fill="none" xmlns="http://www.w3.org/2000/svg">
<path d="M6.81884 0.497498C6.6712 0.467971 6.49404 0.497498 6.46451 0.497498C3.0984 0.556552 0.5 3.27303 0.5 6.521C0.5 7.64302 0.795273 8.3812 0.8248 8.52883C1.65156 10.891 3.86611 12.515 6.37593 12.5445H6.52357C6.46451 12.3378 6.49404 12.1311 6.58262 11.9244L6.6712 11.7473C6.58262 11.7177 6.49404 11.6882 6.40546 11.6292C6.31688 11.5701 6.22829 11.4815 6.16924 11.3929C5.57869 11.0977 4.95862 10.2119 4.63382 8.91268C5.25389 8.94221 5.96255 8.97174 6.75979 8.94221C6.75979 8.94221 6.73026 8.91268 6.73026 8.88315C6.61215 8.70599 6.52357 8.35167 6.75979 7.90876C5.93302 7.90876 5.13578 7.90876 4.42713 7.84971C4.33855 7.22964 4.30902 6.49147 4.33855 6.04857C4.33855 5.69424 4.36807 5.33992 4.42713 5.01512C4.81098 4.9856 5.16531 4.9856 5.57869 4.95607C6.55309 4.92654 7.61608 4.95607 8.70859 5.01512C8.76764 5.45803 8.79717 5.93046 8.79717 6.43242V6.49147C8.97433 6.22573 9.29913 6.04857 9.65346 5.98951H9.8011C9.8011 5.69424 9.77157 5.39897 9.74204 5.1037C10.3916 5.16276 10.9822 5.25134 11.5137 5.33992C11.5432 5.48755 11.5727 5.66472 11.6023 5.84188V5.95999C11.6023 6.10762 11.6318 6.22573 11.6318 6.37336C11.7499 6.31431 11.868 6.28478 12.0156 6.28478C12.2814 6.28478 12.4881 6.37336 12.6652 6.46194C12.7243 3.24351 10.0668 0.556552 6.81884 0.497498ZM1.65156 7.6135C1.4744 6.84579 1.50393 6.10762 1.65156 5.39897V5.36945C2.27164 5.28087 2.83266 5.19228 3.4232 5.13323C3.33462 5.93046 3.30509 6.90485 3.4232 7.82018C2.80313 7.79066 2.21258 7.7316 1.65156 7.6135ZM4.42713 11.0681C3.39367 10.5957 2.53738 9.76896 2.03542 8.73552C2.53738 8.79457 3.03935 8.88315 3.60037 8.91268C3.77753 9.73944 4.0728 10.4776 4.42713 11.0681ZM3.86611 3.21398C3.748 3.50925 3.65942 3.80452 3.60037 4.15884C3.12793 4.18837 2.53738 4.24742 2.03542 4.336C2.53738 3.30256 3.39367 2.50533 4.42713 2.00337C4.22044 2.3577 4.01375 2.77107 3.86611 3.21398ZM5.51964 4.04073C5.22437 4.04073 4.92909 4.07026 4.66335 4.07026C4.7224 3.83404 4.81098 3.59783 4.89957 3.36161C5.34248 2.18053 5.99208 1.50141 6.61215 1.50141C7.35033 1.50141 8.14757 2.4758 8.56095 4.07026C7.49797 4.01121 6.46451 4.01121 5.51964 4.04073ZM9.62393 4.15884C9.44677 3.33209 9.1515 2.59391 8.79717 2.00337C9.83062 2.4758 10.6869 3.30256 11.1889 4.336C10.6869 4.24742 10.185 4.18837 9.62393 4.15884Z" fill="#F6F2ED"/>
<path d="M14.3188 11.156C14.2302 11.0675 14.0826 11.0675 13.9645 11.0084C13.6987 10.8608 13.7282 10.4179 13.994 10.2997C14.1121 10.2407 14.2893 10.2407 14.4074 10.1521C14.555 10.0045 14.496 9.79779 14.4369 9.5911C14.3778 9.44347 14.3483 9.26631 14.2893 9.11867C14.2302 8.91198 14.1121 8.64624 13.8759 8.64624C13.7578 8.64624 13.6397 8.73482 13.5216 8.76435C13.2263 8.8234 12.931 8.49861 13.0491 8.20334C13.1082 8.0557 13.2558 7.93759 13.2558 7.78996C13.2558 7.64232 13.1377 7.52422 12.9901 7.43564C12.8424 7.31753 12.6653 7.22895 12.5176 7.11084C12.3109 6.99273 11.9861 6.87462 11.809 7.05179C11.7499 7.11084 11.7204 7.22895 11.6613 7.31753C11.5137 7.55374 11.1003 7.52422 10.9822 7.288C10.9232 7.16989 10.9232 7.02226 10.8936 6.87462C10.8346 6.69746 10.6869 6.60888 10.4802 6.63841C10.244 6.66793 10.0373 6.63841 9.80112 6.66793C9.53537 6.69746 9.26963 6.87462 9.26963 7.11084C9.26963 7.19942 9.29915 7.31753 9.29915 7.40611C9.29915 7.67185 8.94483 7.87854 8.70861 7.76043C8.56097 7.67185 8.44286 7.49469 8.2657 7.46516C8.08853 7.43564 7.9409 7.58327 7.82279 7.70138L7.46846 8.0557C7.32082 8.23286 7.14366 8.46908 7.26177 8.67577C7.32082 8.79388 7.43893 8.8234 7.52752 8.91198C7.64562 9.03009 7.67515 9.20725 7.58657 9.35489C7.52751 9.50252 7.35035 9.5911 7.20271 9.5911C7.11413 9.5911 7.02555 9.56158 6.93697 9.56158C6.67122 9.5911 6.58264 9.9159 6.58264 10.1521V10.7131C6.58264 10.8608 6.61217 11.0379 6.73028 11.1265C6.87791 11.2151 7.05508 11.156 7.20271 11.1856C7.46846 11.2446 7.6161 11.6285 7.43893 11.8352C7.35035 11.9533 7.17319 12.0123 7.11413 12.1599C7.02555 12.3371 7.14366 12.5438 7.2913 12.721C7.37988 12.8391 7.49799 12.9867 7.58657 13.1048C7.70468 13.2524 7.88184 13.4296 8.08853 13.4001C8.23617 13.3706 8.32475 13.2229 8.47239 13.1639C8.73813 13.0162 9.09246 13.2524 9.09246 13.5477C9.09246 13.6953 9.00388 13.843 9.03341 13.9611C9.09246 14.1383 9.29915 14.2268 9.50584 14.2564C9.65348 14.2859 9.83064 14.3154 9.97828 14.3449C10.2145 14.404 10.5098 14.4335 10.6279 14.2268C10.6869 14.1087 10.6869 13.9906 10.7165 13.8725C10.805 13.6068 11.2184 13.5182 11.4251 13.7544C11.5432 13.8725 11.5728 14.0792 11.7204 14.1678C11.868 14.2564 12.0452 14.1678 12.1928 14.1087C12.3405 14.0497 12.4881 13.9611 12.6357 13.902C12.7538 13.843 12.872 13.7839 12.9605 13.6953C13.0491 13.6068 13.1082 13.4591 13.0786 13.341C13.0491 13.2524 12.9901 13.1934 12.931 13.1048C12.872 12.9572 12.872 12.78 12.9901 12.6619C13.1082 12.5438 13.2558 12.4847 13.4034 12.5143C13.5511 12.5438 13.6692 12.6619 13.8168 12.6324C14.0235 12.6324 14.1416 12.3962 14.2007 12.219L14.3778 11.7761C14.4369 11.5989 14.496 11.3037 14.3188 11.156ZM10.7755 9.20725C10.9822 9.23678 11.1889 9.32536 11.3365 9.44347C11.4546 9.53205 11.5728 9.65016 11.6613 9.76826C12.1042 10.3883 11.9271 11.3037 11.248 11.6875C11.1003 11.7761 10.9527 11.8352 10.805 11.8352C10.6574 11.8647 10.5098 11.8647 10.3326 11.8352C9.68301 11.7466 9.18104 11.156 9.18104 10.5064C9.18104 10.4474 9.18104 10.3588 9.21057 10.2997C9.21057 10.2112 9.2401 10.1226 9.26963 10.0635C9.50584 9.50252 10.1259 9.11867 10.7755 9.20725Z" fill="#F6F2ED"/>
</svg>
