<svg width="200" height="162" viewBox="0 0 200 162" fill="none" xmlns="http://www.w3.org/2000/svg">
<path opacity="0.1" d="M97.5019 159.9C138.279 159.9 171.336 126.843 171.336 86.0646C171.336 45.2866 138.279 12.2295 97.5019 12.2295C56.7244 12.2295 23.6677 45.2866 23.6677 86.0646C23.6677 126.843 56.7244 159.9 97.5019 159.9Z" fill="url(#paint0_linear_2336_24299)"/>
<path opacity="0.3" d="M182.056 114.22C183.307 114.22 184.53 113.849 185.57 113.154C186.61 112.459 187.421 111.472 187.9 110.316C188.379 109.16 188.504 107.888 188.26 106.661C188.016 105.434 187.413 104.307 186.529 103.423C185.644 102.538 184.517 101.936 183.29 101.692C182.063 101.448 180.792 101.573 179.636 102.052C178.48 102.531 177.492 103.341 176.797 104.381C176.102 105.421 175.731 106.644 175.731 107.895C175.732 109.573 176.398 111.181 177.584 112.368C178.77 113.554 180.379 114.22 182.056 114.22Z" fill="#D3D1CE"/>
<path opacity="0.2" d="M191.315 89.5365C192.17 89.5365 193.005 89.283 193.716 88.808C194.427 88.333 194.981 87.6579 195.308 86.868C195.635 86.0782 195.721 85.209 195.554 84.3705C195.387 83.532 194.976 82.7617 194.371 82.1572C193.767 81.5527 192.996 81.141 192.158 80.9742C191.319 80.8074 190.45 80.893 189.66 81.2202C188.871 81.5473 188.195 82.1014 187.72 82.8122C187.245 83.5231 186.992 84.3589 186.992 85.2138C186.992 86.3602 187.447 87.4597 188.258 88.2704C189.069 89.0811 190.168 89.5365 191.315 89.5365Z" fill="#D3D1CE"/>
<path opacity="0.2" d="M156.491 26.2733C157.346 26.2733 158.182 26.0198 158.893 25.5448C159.603 25.0698 160.158 24.3947 160.485 23.6048C160.812 22.815 160.897 21.9458 160.731 21.1073C160.564 20.2688 160.152 19.4986 159.548 18.894C158.943 18.2895 158.173 17.8778 157.334 17.711C156.496 17.5442 155.627 17.6298 154.837 17.957C154.047 18.2841 153.372 18.8382 152.897 19.5491C152.422 20.2599 152.168 21.0957 152.168 21.9506C152.168 23.0971 152.624 24.1966 153.435 25.0072C154.245 25.8179 155.345 26.2733 156.491 26.2733Z" fill="#D3D1CE"/>
<path opacity="0.3" d="M11.7315 77.9986C13.318 77.9986 14.869 77.5281 16.1881 76.6467C17.5073 75.7652 18.5355 74.5124 19.1426 73.0465C19.7498 71.5807 19.9086 69.9678 19.5991 68.4117C19.2896 66.8556 18.5256 65.4263 17.4037 64.3044C16.2819 63.1825 14.8525 62.4185 13.2965 62.109C11.7404 61.7994 10.1275 61.9583 8.66169 62.5655C7.1959 63.1726 5.94307 64.2008 5.06163 65.52C4.18019 66.8392 3.70972 68.3901 3.70972 69.9767C3.70972 72.1042 4.55486 74.1446 6.05924 75.649C7.56361 77.1534 9.60398 77.9986 11.7315 77.9986Z" fill="#D3D1CE"/>
<path d="M66.9348 30.7782L66.0693 31.2778L67.039 32.9574L67.9044 32.4577L66.9348 30.7782Z" fill="url(#paint1_linear_2336_24299)"/>
<path d="M69.612 35.4056L68.7466 35.9053L69.7162 37.5848L70.5817 37.0851L69.612 35.4056Z" fill="url(#paint2_linear_2336_24299)"/>
<path d="M71.2249 31.9278L69.5454 32.8975L70.0451 33.7629L71.7246 32.7932L71.2249 31.9278Z" fill="url(#paint3_linear_2336_24299)"/>
<path d="M66.6011 34.5999L64.9216 35.5696L65.4213 36.435L67.1008 35.4654L66.6011 34.5999Z" fill="url(#paint4_linear_2336_24299)"/>
<path d="M39.2758 146.966H37.9409V149.557H39.2758V146.966Z" fill="url(#paint5_linear_2336_24299)"/>
<path d="M39.2758 154.104H37.9409V156.695H39.2758V154.104Z" fill="url(#paint6_linear_2336_24299)"/>
<path d="M43.471 151.164H40.8804V152.498H43.471V151.164Z" fill="url(#paint7_linear_2336_24299)"/>
<path d="M36.3292 151.164H33.7385V152.498H36.3292V151.164Z" fill="url(#paint8_linear_2336_24299)"/>
<path d="M2.64633 61.5815C4.10786 61.5815 5.29266 60.3967 5.29266 58.9352C5.29266 57.4736 4.10786 56.2888 2.64633 56.2888C1.1848 56.2888 0 57.4736 0 58.9352C0 60.3967 1.1848 61.5815 2.64633 61.5815Z" fill="url(#paint9_linear_2336_24299)"/>
<path d="M12.0558 100.602C13.2151 100.602 14.1549 99.6626 14.1549 98.5034C14.1549 97.3441 13.2151 96.4043 12.0558 96.4043C10.8966 96.4043 9.95679 97.3441 9.95679 98.5034C9.95679 99.6626 10.8966 100.602 12.0558 100.602Z" fill="url(#paint10_linear_2336_24299)"/>
<path d="M197.663 102.693C198.958 102.693 200.008 101.643 200.008 100.348C200.008 99.0527 198.958 98.0027 197.663 98.0027C196.368 98.0027 195.318 99.0527 195.318 100.348C195.318 101.643 196.368 102.693 197.663 102.693Z" fill="url(#paint11_linear_2336_24299)"/>
<path d="M160.77 94.0025L160.005 93.3601L158.758 94.8457L159.524 95.4881L160.77 94.0025Z" fill="url(#paint12_linear_2336_24299)"/>
<path d="M157.333 98.096L156.567 97.4536L155.321 98.9392L156.086 99.5816L157.333 98.096Z" fill="url(#paint13_linear_2336_24299)"/>
<path d="M161.155 98.4287L159.669 97.1821L159.027 97.9477L160.512 99.1943L161.155 98.4287Z" fill="url(#paint14_linear_2336_24299)"/>
<path d="M157.062 94.9937L155.576 93.7471L154.934 94.5126L156.419 95.7592L157.062 94.9937Z" fill="url(#paint15_linear_2336_24299)"/>
<path d="M125.949 30.7388L125.184 30.0964L123.937 31.5821L124.703 32.2244L125.949 30.7388Z" fill="url(#paint16_linear_2336_24299)"/>
<path d="M122.511 34.8323L121.745 34.1899L120.499 35.6756L121.264 36.3179L122.511 34.8323Z" fill="url(#paint17_linear_2336_24299)"/>
<path d="M126.332 35.1653L124.846 33.9187L124.204 34.6842L125.689 35.9308L126.332 35.1653Z" fill="url(#paint18_linear_2336_24299)"/>
<path d="M122.239 31.7297L120.753 30.4832L120.111 31.2487L121.597 32.4953L122.239 31.7297Z" fill="url(#paint19_linear_2336_24299)"/>
<path d="M89.5107 54.5818C92.1066 53.7883 94.8416 53.5556 97.5342 53.8992V53.8982C98.4887 54.0231 99.4277 54.2278 100.345 54.5066C95.251 59.6043 92.0889 66.6382 92.0889 74.4255C92.0889 88.5061 102.427 100.2 115.917 102.324C116.274 102.835 116.674 103.316 117.117 103.759V103.76L121.958 108.596H68.0957L72.9375 103.755C74.8961 101.796 76.0371 99.1273 76.0371 96.2888V72.7449C76.0391 70.0481 76.6148 67.3825 77.7266 64.9255C78.8368 62.472 80.456 60.282 82.4766 58.5017C84.3893 56.8233 86.6166 55.5443 89.0264 54.7371L89.5107 54.5818Z" fill="url(#paint20_linear_2336_24299)" stroke="url(#paint21_linear_2336_24299)" stroke-width="16"/>
<path d="M120.333 57.5564C111.031 57.5564 103.463 65.1241 103.463 74.4261C103.463 83.728 111.031 91.2957 120.333 91.2957C129.635 91.2957 137.202 83.728 137.202 74.4261C137.202 65.1241 129.631 57.5564 120.333 57.5564ZM126.584 72.9449L122.222 77.3074C121.237 78.2926 119.941 78.7852 118.642 78.7852C117.343 78.7852 116.051 78.2926 115.062 77.3074L114.074 76.3188C113.767 76.0007 113.597 75.5745 113.6 75.1322C113.604 74.6899 113.782 74.2668 114.094 73.954C114.407 73.6412 114.83 73.4638 115.273 73.46C115.715 73.4561 116.141 73.6262 116.459 73.9335L117.448 74.922C117.764 75.2383 118.193 75.4159 118.641 75.4159C119.088 75.4159 119.517 75.2383 119.833 74.922L124.196 70.5595C124.352 70.4027 124.538 70.2782 124.743 70.1933C124.948 70.1083 125.167 70.0645 125.389 70.0643C125.611 70.0642 125.83 70.1077 126.035 70.1923C126.24 70.277 126.426 70.4012 126.583 70.5578C126.74 70.7145 126.864 70.9005 126.949 71.1052C127.034 71.3099 127.078 71.5294 127.078 71.751C127.078 71.9727 127.035 72.1922 126.95 72.3971C126.865 72.6019 126.741 72.7881 126.584 72.9449Z" fill="#272421"/>
<rect x="144.45" y="133.423" width="26.8172" height="27.5737" rx="13.4086" stroke="url(#paint22_linear_2336_24299)"/>
<rect x="148.5" y="134.5" width="27" height="27" rx="13.5" fill="url(#paint23_linear_2336_24299)"/>
<rect x="148.5" y="134.5" width="27" height="27" rx="13.5" stroke="url(#paint24_linear_2336_24299)"/>
<path d="M167.599 148.342C167.229 147.892 166.717 147.586 166.149 147.476C166.541 147.287 166.861 146.971 167.058 146.578C167.254 146.186 167.317 145.738 167.237 145.305C167.213 144.965 167.109 144.635 166.933 144.343C166.763 144.07 166.527 143.844 166.247 143.687C165.953 143.519 165.637 143.391 165.309 143.308C164.926 143.214 164.537 143.15 164.145 143.119V141H162.866V143.06C162.645 143.06 162.307 143.066 161.852 143.077V141H160.573V143.12C160.39 143.125 160.121 143.128 159.767 143.128L158.005 143.12V144.499H158.928C159.101 144.476 159.276 144.523 159.415 144.63C159.554 144.737 159.645 144.895 159.668 145.07V147.484C159.712 147.483 159.756 147.486 159.8 147.492H159.668V150.879C159.666 150.939 159.651 150.999 159.625 151.053C159.599 151.108 159.563 151.157 159.518 151.197C159.473 151.237 159.42 151.267 159.363 151.286C159.307 151.305 159.247 151.313 159.187 151.307H158.264L158 152.847H159.662H160.118H160.566V154.991H161.845V152.881C162.078 152.887 162.416 152.889 162.86 152.889V155H164.139V152.851C164.544 152.834 164.948 152.792 165.348 152.725C165.694 152.665 166.032 152.568 166.357 152.435C166.652 152.32 166.924 152.153 167.163 151.943C167.389 151.732 167.571 151.477 167.698 151.194C167.845 150.861 167.934 150.505 167.962 150.142C168.072 149.517 167.942 148.874 167.599 148.342ZM161.874 144.591H162.203L162.651 144.583C162.77 144.583 162.93 144.59 163.133 144.604C163.304 144.617 163.474 144.639 163.643 144.671C163.798 144.703 163.951 144.747 164.099 144.805C164.244 144.857 164.379 144.937 164.495 145.04C164.6 145.14 164.686 145.26 164.748 145.393C164.82 145.547 164.856 145.716 164.852 145.886C164.854 146.032 164.828 146.178 164.777 146.315C164.73 146.44 164.653 146.551 164.553 146.639C164.457 146.723 164.354 146.799 164.246 146.866C164.12 146.939 163.984 146.991 163.842 147.022C163.679 147.061 163.536 147.092 163.415 147.114C163.264 147.14 163.111 147.155 162.959 147.161L162.543 147.178C162.449 147.178 162.32 147.178 162.157 147.178H161.871V144.591H161.874ZM165.368 150.318C165.319 150.441 165.25 150.555 165.165 150.655C165.071 150.758 164.96 150.843 164.836 150.907C164.709 150.976 164.577 151.035 164.441 151.083C164.29 151.134 164.136 151.173 163.979 151.201C163.799 151.234 163.641 151.258 163.506 151.273C163.37 151.287 163.208 151.298 163.019 151.306C162.831 151.314 162.684 151.318 162.579 151.318H162.183H161.876V148.468L162.271 148.46C162.49 148.455 162.669 148.452 162.807 148.452C162.945 148.452 163.136 148.46 163.381 148.477C163.587 148.489 163.792 148.515 163.995 148.553C164.18 148.592 164.362 148.645 164.54 148.71C164.712 148.767 164.874 148.853 165.017 148.966C165.144 149.073 165.248 149.205 165.324 149.353C165.398 149.502 165.44 149.665 165.448 149.832C165.456 149.999 165.43 150.165 165.371 150.321L165.368 150.318Z" fill="#F6F2ED"/>
<path d="M31.499 0.5C35.8655 0.504879 40.0576 2.18766 43.2129 5.19043L43.5146 5.48438C46.6022 8.57182 48.3813 12.7239 48.4941 17.0781L48.5 17.5C48.5 20.6518 47.624 23.7373 45.9756 26.4141L45.6357 26.9443C43.7679 29.7401 41.1122 31.9192 38.0059 33.2061C35.0938 34.4123 31.9077 34.7838 28.8037 34.2852L28.1836 34.1738C25.092 33.5589 22.2365 32.0972 19.9326 29.958L19.4795 29.5215C17.2505 27.2926 15.688 24.4905 14.9609 21.4316L14.8271 20.8164C14.2122 17.7248 14.4687 14.5273 15.5635 11.5801L15.7939 10.9941C17.0002 8.08214 18.9907 5.56679 21.5381 3.72461L22.0557 3.36523C24.851 1.49749 28.1371 0.500195 31.499 0.5ZM37.625 2.71289C34.8833 1.57726 31.8833 1.22768 28.9609 1.69727L28.3779 1.80273C25.2734 2.42026 22.4218 3.94441 20.1836 6.18262C18.0852 8.28097 16.6142 10.9183 15.9297 13.7979L15.8027 14.377C15.2238 17.2874 15.4664 20.2978 16.4971 23.0723L16.7139 23.624C17.8495 26.3656 19.7237 28.7335 22.1221 30.4678L22.6084 30.8066C25.0757 32.4552 27.9496 33.3826 30.9072 33.4922L31.5 33.5039H31.501C35.7439 33.4991 39.8113 31.8107 42.8115 28.8105C45.7179 25.9042 47.3928 21.9962 47.499 17.8975L47.5039 17.5V17.499C47.5039 14.5315 46.6791 11.6266 45.127 9.10645L44.8066 8.60742C43.158 6.14025 40.8584 4.18324 38.168 2.9502L37.625 2.71289Z" fill="url(#paint25_linear_2336_24299)" stroke="url(#paint26_linear_2336_24299)"/>
<path d="M29.9734 29.5264C30.2766 29.5649 30.5812 29.5917 30.8865 29.6074L30.8767 30.6045C30.5195 30.5875 30.1631 30.5565 29.8083 30.5107L29.9734 29.5264ZM34.9812 30.1572C34.6363 30.2517 34.2878 30.3324 33.9363 30.3984L33.7888 29.4121C34.0888 29.355 34.3866 29.2876 34.6814 29.208L34.9812 30.1572ZM26.3103 28.457C26.5859 28.5879 26.8665 28.7077 27.1511 28.8174L26.8328 29.7627C26.498 29.635 26.1686 29.4936 25.8455 29.3389L26.3103 28.457ZM38.7439 28.4482C38.4455 28.646 38.1395 28.8322 37.8259 29.0049L37.3757 28.1104C37.6435 27.9619 37.9059 27.8039 38.1619 27.6357L38.7439 28.4482ZM23.1619 26.2959C23.3834 26.5062 23.6127 26.7082 23.8494 26.9014L23.2517 27.6992C22.9739 27.474 22.7057 27.2372 22.447 26.9902L23.1619 26.2959ZM41.7839 25.6494C41.5614 25.9295 41.3281 26.2007 41.0837 26.4619L40.3835 25.7549C40.5912 25.5308 40.7907 25.2994 40.9812 25.0605L41.7839 25.6494ZM20.8396 23.2656C20.9846 23.5337 21.1396 23.7963 21.3044 24.0527L20.489 24.626C20.2946 24.3262 20.1126 24.0186 19.9431 23.7041L20.8396 23.2656ZM43.8142 22.0518C43.6897 22.388 43.5517 22.719 43.4001 23.0439L42.5134 22.5889C42.6419 22.3112 42.7598 22.0288 42.8669 21.7422L43.8142 22.0518ZM19.5759 19.666C19.6304 19.9669 19.6959 20.2657 19.7732 20.5615L18.821 20.8516C18.7298 20.505 18.6531 20.1547 18.5906 19.8018L19.5759 19.666ZM44.616 18.0049C44.6025 18.362 44.5742 18.7184 44.532 19.0732L43.5486 18.918C43.5836 18.6146 43.6075 18.31 43.6199 18.0049H44.616ZM19.4949 15.8486C19.454 16.1511 19.4241 16.4551 19.406 16.7598L18.4109 16.7402C18.4315 16.3832 18.4659 16.0271 18.5154 15.6729L19.4949 15.8486ZM44.2566 14.4004C44.3408 14.7483 44.4109 15.0995 44.4666 15.4531L43.4773 15.5703C43.4289 15.2691 43.3686 14.9698 43.2976 14.6729L44.2566 14.4004ZM20.6023 12.1953C20.4688 12.4699 20.3455 12.7493 20.2332 13.0332L19.2937 12.7061C19.4248 12.3723 19.5682 12.0435 19.7263 11.7217L20.6023 12.1953ZM42.6609 10.5918C42.8499 10.8957 43.0265 11.2071 43.1902 11.5254L42.2849 11.9463C42.1449 11.6751 41.9948 11.4093 41.8347 11.1494L42.6609 10.5918ZM22.7966 9.06836C22.5841 9.28857 22.3798 9.51648 22.1843 9.75195L21.3933 9.14746C21.6216 8.87121 21.861 8.60438 22.1111 8.34766L22.7966 9.06836ZM39.9587 7.46875C40.232 7.69927 40.496 7.94056 40.7498 8.19238L40.0251 8.87207C39.8073 8.65737 39.5816 8.45086 39.3484 8.25293L39.9587 7.46875ZM25.8416 6.77344C25.5719 6.91615 25.3077 7.0688 25.0496 7.23145L24.4832 6.41211C24.7854 6.22038 25.095 6.04048 25.4119 5.87402L25.8416 6.77344ZM36.4207 5.33301C36.7526 5.4674 37.0784 5.61628 37.3982 5.77734L36.9177 6.64844C36.6442 6.51201 36.3657 6.38593 36.0828 6.27051L36.4207 5.33301ZM29.4568 5.54883C29.156 5.60011 28.8574 5.66348 28.5613 5.7373L28.281 4.78125C28.6278 4.6935 28.978 4.61956 29.3308 4.56055L29.4568 5.54883ZM32.3933 4.41113C32.7505 4.4351 33.1066 4.47351 33.4607 4.52637L33.2751 5.50586C32.9728 5.46163 32.6689 5.42865 32.364 5.40723L32.3933 4.41113Z" fill="url(#paint27_linear_2336_24299)" stroke="url(#paint28_linear_2336_24299)"/>
<path d="M31.5017 10.679C35.2686 10.679 38.3227 13.7325 38.323 17.4993C38.323 21.2663 35.2687 24.3206 31.5017 24.3206C27.7349 24.3203 24.6814 21.2661 24.6814 17.4993C24.6816 13.7326 27.7351 10.6792 31.5017 10.679Z" fill="url(#paint29_linear_2336_24299)" stroke="url(#paint30_linear_2336_24299)"/>
<path d="M35.0659 14.9036L30.2446 19.9944C30.2342 20.0053 30.2228 20.0152 30.2104 20.0237L30.1714 20.0452C30.1578 20.0509 30.1438 20.0559 30.1294 20.0588L30.0845 20.0627H30.0806C30.0654 20.0625 30.0504 20.0611 30.0356 20.0579L29.9927 20.0432C29.9788 20.0369 29.9649 20.0297 29.9526 20.0208L29.9185 19.9905L27.9302 17.8L28.2573 17.5032L29.7241 19.1184L30.0864 19.5168L30.4565 19.1252L34.7437 14.5979L35.0659 14.9036Z" fill="#2F2E2D" stroke="#F6F2ED"/>
<defs>
<linearGradient id="paint0_linear_2336_24299" x1="21.4132" y1="19.2028" x2="255.048" y2="124.028" gradientUnits="userSpaceOnUse">
<stop stop-color="#846E55"/>
<stop offset="1" stop-color="#B3A55C"/>
</linearGradient>
<linearGradient id="paint1_linear_2336_24299" x1="66.1019" y1="31.3648" x2="67.8718" y2="30.8243" gradientUnits="userSpaceOnUse">
<stop stop-color="#846E55"/>
<stop offset="1" stop-color="#B3A55C"/>
</linearGradient>
<linearGradient id="paint2_linear_2336_24299" x1="68.7792" y1="35.9922" x2="70.549" y2="35.4517" gradientUnits="userSpaceOnUse">
<stop stop-color="#846E55"/>
<stop offset="1" stop-color="#B3A55C"/>
</linearGradient>
<linearGradient id="paint3_linear_2336_24299" x1="69.5434" y1="32.9531" x2="72.2717" y2="33.4858" gradientUnits="userSpaceOnUse">
<stop stop-color="#846E55"/>
<stop offset="1" stop-color="#B3A55C"/>
</linearGradient>
<linearGradient id="paint4_linear_2336_24299" x1="64.9196" y1="35.6253" x2="67.648" y2="36.1579" gradientUnits="userSpaceOnUse">
<stop stop-color="#846E55"/>
<stop offset="1" stop-color="#B3A55C"/>
</linearGradient>
<linearGradient id="paint5_linear_2336_24299" x1="37.9205" y1="147.088" x2="40.329" y2="147.645" gradientUnits="userSpaceOnUse">
<stop stop-color="#846E55"/>
<stop offset="1" stop-color="#B3A55C"/>
</linearGradient>
<linearGradient id="paint6_linear_2336_24299" x1="37.9205" y1="154.227" x2="40.329" y2="154.783" gradientUnits="userSpaceOnUse">
<stop stop-color="#846E55"/>
<stop offset="1" stop-color="#B3A55C"/>
</linearGradient>
<linearGradient id="paint7_linear_2336_24299" x1="40.8408" y1="151.227" x2="43.6414" y2="153.665" gradientUnits="userSpaceOnUse">
<stop stop-color="#846E55"/>
<stop offset="1" stop-color="#B3A55C"/>
</linearGradient>
<linearGradient id="paint8_linear_2336_24299" x1="33.699" y1="151.227" x2="36.4995" y2="153.665" gradientUnits="userSpaceOnUse">
<stop stop-color="#846E55"/>
<stop offset="1" stop-color="#B3A55C"/>
</linearGradient>
<linearGradient id="paint9_linear_2336_24299" x1="-0.0808039" y1="56.5388" x2="8.293" y2="60.2958" gradientUnits="userSpaceOnUse">
<stop stop-color="#846E55"/>
<stop offset="1" stop-color="#B3A55C"/>
</linearGradient>
<linearGradient id="paint10_linear_2336_24299" x1="9.89269" y1="96.6025" x2="16.5347" y2="99.5826" gradientUnits="userSpaceOnUse">
<stop stop-color="#846E55"/>
<stop offset="1" stop-color="#B3A55C"/>
</linearGradient>
<linearGradient id="paint11_linear_2336_24299" x1="195.246" y1="98.2242" x2="202.667" y2="101.554" gradientUnits="userSpaceOnUse">
<stop stop-color="#846E55"/>
<stop offset="1" stop-color="#B3A55C"/>
</linearGradient>
<linearGradient id="paint12_linear_2336_24299" x1="159.934" y1="93.4205" x2="161.048" y2="94.8987" gradientUnits="userSpaceOnUse">
<stop stop-color="#846E55"/>
<stop offset="1" stop-color="#B3A55C"/>
</linearGradient>
<linearGradient id="paint13_linear_2336_24299" x1="156.497" y1="97.514" x2="157.61" y2="98.9922" gradientUnits="userSpaceOnUse">
<stop stop-color="#846E55"/>
<stop offset="1" stop-color="#B3A55C"/>
</linearGradient>
<linearGradient id="paint14_linear_2336_24299" x1="159.616" y1="97.1992" x2="160.049" y2="99.9453" gradientUnits="userSpaceOnUse">
<stop stop-color="#846E55"/>
<stop offset="1" stop-color="#B3A55C"/>
</linearGradient>
<linearGradient id="paint15_linear_2336_24299" x1="155.523" y1="93.7642" x2="155.956" y2="96.5102" gradientUnits="userSpaceOnUse">
<stop stop-color="#846E55"/>
<stop offset="1" stop-color="#B3A55C"/>
</linearGradient>
<linearGradient id="paint16_linear_2336_24299" x1="125.113" y1="30.1568" x2="126.226" y2="31.6351" gradientUnits="userSpaceOnUse">
<stop stop-color="#846E55"/>
<stop offset="1" stop-color="#B3A55C"/>
</linearGradient>
<linearGradient id="paint17_linear_2336_24299" x1="121.675" y1="34.2503" x2="122.788" y2="35.7286" gradientUnits="userSpaceOnUse">
<stop stop-color="#846E55"/>
<stop offset="1" stop-color="#B3A55C"/>
</linearGradient>
<linearGradient id="paint18_linear_2336_24299" x1="124.793" y1="33.9358" x2="125.226" y2="36.6819" gradientUnits="userSpaceOnUse">
<stop stop-color="#846E55"/>
<stop offset="1" stop-color="#B3A55C"/>
</linearGradient>
<linearGradient id="paint19_linear_2336_24299" x1="120.7" y1="30.5003" x2="121.133" y2="33.2463" gradientUnits="userSpaceOnUse">
<stop stop-color="#846E55"/>
<stop offset="1" stop-color="#B3A55C"/>
</linearGradient>
<linearGradient id="paint20_linear_2336_24299" x1="55.9566" y1="49.7281" x2="179.913" y2="99.7244" gradientUnits="userSpaceOnUse">
<stop stop-color="#846E55"/>
<stop offset="1" stop-color="#B3A55C"/>
</linearGradient>
<linearGradient id="paint21_linear_2336_24299" x1="55.9566" y1="49.7281" x2="179.913" y2="99.7244" gradientUnits="userSpaceOnUse">
<stop stop-color="#846E55"/>
<stop offset="1" stop-color="#B3A55C"/>
</linearGradient>
<linearGradient id="paint22_linear_2336_24299" x1="143.525" y1="134.272" x2="187.925" y2="153.666" gradientUnits="userSpaceOnUse">
<stop stop-color="#846E55"/>
<stop offset="1" stop-color="#B3A55C"/>
</linearGradient>
<linearGradient id="paint23_linear_2336_24299" x1="147.573" y1="135.322" x2="191.873" y2="155.199" gradientUnits="userSpaceOnUse">
<stop stop-color="#846E55"/>
<stop offset="1" stop-color="#B3A55C"/>
</linearGradient>
<linearGradient id="paint24_linear_2336_24299" x1="147.573" y1="135.322" x2="191.873" y2="155.199" gradientUnits="userSpaceOnUse">
<stop stop-color="#846E55"/>
<stop offset="1" stop-color="#B3A55C"/>
</linearGradient>
<linearGradient id="paint25_linear_2336_24299" x1="13.4656" y1="1.65278" x2="68.8409" y2="26.4983" gradientUnits="userSpaceOnUse">
<stop stop-color="#846E55"/>
<stop offset="1" stop-color="#B3A55C"/>
</linearGradient>
<linearGradient id="paint26_linear_2336_24299" x1="13.4656" y1="1.65278" x2="68.8409" y2="26.4983" gradientUnits="userSpaceOnUse">
<stop stop-color="#846E55"/>
<stop offset="1" stop-color="#B3A55C"/>
</linearGradient>
<linearGradient id="paint27_linear_2336_24299" x1="17.4756" y1="5.17271" x2="60.5635" y2="24.5064" gradientUnits="userSpaceOnUse">
<stop stop-color="#846E55"/>
<stop offset="1" stop-color="#B3A55C"/>
</linearGradient>
<linearGradient id="paint28_linear_2336_24299" x1="17.4756" y1="5.17271" x2="60.5635" y2="24.5064" gradientUnits="userSpaceOnUse">
<stop stop-color="#846E55"/>
<stop offset="1" stop-color="#B3A55C"/>
</linearGradient>
<linearGradient id="paint29_linear_2336_24299" x1="23.9579" y1="10.8704" x2="47.123" y2="21.264" gradientUnits="userSpaceOnUse">
<stop stop-color="#846E55"/>
<stop offset="1" stop-color="#B3A55C"/>
</linearGradient>
<linearGradient id="paint30_linear_2336_24299" x1="23.9579" y1="10.8704" x2="47.123" y2="21.264" gradientUnits="userSpaceOnUse">
<stop stop-color="#846E55"/>
<stop offset="1" stop-color="#B3A55C"/>
</linearGradient>
</defs>
</svg>
