<svg width="200" height="162" viewBox="0 0 200 162" fill="none" xmlns="http://www.w3.org/2000/svg">
<path opacity="0.1" d="M97.5017 12.7292C138.003 12.7292 170.836 45.5624 170.836 86.0642C170.836 126.566 138.003 159.399 97.5017 159.399C57.0005 159.399 24.1677 126.566 24.1677 86.0642C24.1678 45.5625 57.0005 12.7293 97.5017 12.7292Z" fill="url(#paint0_linear_2336_24180)" stroke="#F6F2ED"/>
<path opacity="0.3" d="M179.827 102.514C180.825 102.1 181.917 101.974 182.98 102.145L183.192 102.183C184.252 102.393 185.23 102.894 186.02 103.627L186.175 103.776C186.938 104.54 187.474 105.5 187.724 106.548L187.77 106.759C187.98 107.818 187.892 108.914 187.517 109.924L187.438 110.124C187.024 111.122 186.343 111.984 185.47 112.615L185.293 112.738C184.335 113.378 183.209 113.721 182.057 113.721L181.768 113.713C180.328 113.641 178.962 113.038 177.938 112.014C176.845 110.921 176.232 109.44 176.231 107.896L176.235 107.68C176.273 106.675 176.569 105.697 177.097 104.841L177.213 104.659C177.813 103.761 178.65 103.048 179.63 102.6L179.827 102.514Z" fill="#D3D1CE" stroke="url(#paint1_linear_2336_24180)"/>
<path opacity="0.2" d="M189.851 81.682C190.462 81.4289 191.128 81.339 191.781 81.4193L192.06 81.4642C192.709 81.5933 193.312 81.888 193.81 82.3177L194.017 82.5111C194.485 82.9789 194.823 83.5583 194.999 84.1927L195.064 84.4681C195.193 85.1168 195.151 85.7864 194.945 86.4115L194.846 86.6761C194.593 87.2874 194.187 87.8217 193.668 88.2269L193.438 88.392C192.81 88.812 192.07 89.0365 191.314 89.0365C190.364 89.0364 189.45 88.6822 188.749 88.0472L188.611 87.9164C187.894 87.1995 187.492 86.2269 187.492 85.2133L187.503 84.931C187.544 84.3682 187.71 83.8216 187.988 83.3304L188.136 83.0902C188.504 82.5403 189.007 82.0964 189.594 81.8002L189.851 81.682Z" fill="#D3D1CE" stroke="url(#paint2_linear_2336_24180)"/>
<path opacity="0.2" d="M155.028 18.4188C155.639 18.1657 156.304 18.0758 156.958 18.1561L157.237 18.201C157.886 18.3301 158.488 18.6249 158.987 19.0546L159.194 19.2479C159.662 19.7157 160 20.2952 160.175 20.9296L160.241 21.205C160.37 21.8537 160.328 22.5233 160.122 23.1483L160.023 23.413C159.77 24.0242 159.363 24.5585 158.844 24.9637L158.615 25.1288C157.986 25.5488 157.247 25.7733 156.491 25.7733C155.54 25.7732 154.626 25.419 153.925 24.7841L153.788 24.6532C153.071 23.9363 152.668 22.9637 152.668 21.9501L152.679 21.6678C152.721 21.105 152.887 20.5584 153.165 20.0673L153.313 19.827C153.68 19.2771 154.183 18.8332 154.771 18.537L155.028 18.4188Z" fill="#D3D1CE" stroke="url(#paint3_linear_2336_24180)"/>
<path opacity="0.3" d="M8.85327 63.0269C10.2276 62.4576 11.74 62.3089 13.199 62.5991C14.5668 62.8712 15.83 63.5179 16.8494 64.4644L17.0505 64.6577C18.0366 65.6439 18.7279 66.8835 19.0496 68.2368L19.1091 68.5093C19.3811 69.8769 19.2671 71.2915 18.783 72.5952L18.6804 72.855C18.1467 74.1434 17.2665 75.2567 16.1394 76.0718L15.9099 76.231C14.6731 77.0573 13.2187 77.4985 11.7312 77.4985C9.86112 77.4985 8.06307 76.8015 6.68335 75.5522L6.41284 75.2954C5.00224 73.8848 4.20972 71.971 4.20972 69.9761C4.20979 68.5814 4.59743 67.2161 5.3269 66.0317L5.47729 65.7974C6.25211 64.6378 7.33292 63.7177 8.59741 63.1382L8.85327 63.0269Z" fill="#D3D1CE" stroke="url(#paint4_linear_2336_24180)"/>
<mask id="path-6-inside-1_2336_24180" fill="white">
<path d="M66.9348 30.7779L66.0693 31.2776L67.039 32.9571L67.9044 32.4574L66.9348 30.7779Z"/>
</mask>
<path d="M66.9348 30.7779L66.0693 31.2776L67.039 32.9571L67.9044 32.4574L66.9348 30.7779Z" fill="url(#paint5_linear_2336_24180)"/>
<path d="M66.0693 31.2776L65.5693 30.4116L64.7033 30.9116L65.2033 31.7776L66.0693 31.2776ZM66.9348 30.7779L67.8008 30.2779L67.3008 29.4119L66.4348 29.9119L66.9348 30.7779ZM67.9044 32.4574L68.4044 33.3235L69.2705 32.8235L68.7705 31.9574L67.9044 32.4574ZM67.039 32.9571L66.173 33.4571L66.673 34.3231L67.539 33.8231L67.039 32.9571ZM66.0693 31.2776L66.5693 32.1436L67.4348 31.6439L66.9348 30.7779L66.4348 29.9119L65.5693 30.4116L66.0693 31.2776ZM66.9348 30.7779L66.0688 31.2779L67.0384 32.9574L67.9044 32.4574L68.7705 31.9574L67.8008 30.2779L66.9348 30.7779ZM67.9044 32.4574L67.4044 31.5914L66.539 32.0911L67.039 32.9571L67.539 33.8231L68.4044 33.3235L67.9044 32.4574ZM67.039 32.9571L67.905 32.4571L66.9354 30.7776L66.0693 31.2776L65.2033 31.7776L66.173 33.4571L67.039 32.9571Z" fill="url(#paint6_linear_2336_24180)" mask="url(#path-6-inside-1_2336_24180)"/>
<mask id="path-8-inside-2_2336_24180" fill="white">
<path d="M69.612 35.4057L68.7466 35.9054L69.7162 37.5849L70.5817 37.0852L69.612 35.4057Z"/>
</mask>
<path d="M69.612 35.4057L68.7466 35.9054L69.7162 37.5849L70.5817 37.0852L69.612 35.4057Z" fill="url(#paint7_linear_2336_24180)"/>
<path d="M68.7466 35.9054L68.2466 35.0394L67.3806 35.5394L67.8806 36.4054L68.7466 35.9054ZM69.612 35.4057L70.4781 34.9057L69.9781 34.0397L69.112 34.5397L69.612 35.4057ZM70.5817 37.0852L71.0817 37.9513L71.9477 37.4513L71.4477 36.5852L70.5817 37.0852ZM69.7162 37.5849L68.8502 38.0849L69.3502 38.951L70.2162 38.4509L69.7162 37.5849ZM68.7466 35.9054L69.2466 36.7714L70.112 36.2718L69.612 35.4057L69.112 34.5397L68.2466 35.0394L68.7466 35.9054ZM69.612 35.4057L68.746 35.9057L69.7157 37.5853L70.5817 37.0852L71.4477 36.5852L70.4781 34.9057L69.612 35.4057ZM70.5817 37.0852L70.0817 36.2192L69.2162 36.7189L69.7162 37.5849L70.2162 38.4509L71.0817 37.9513L70.5817 37.0852ZM69.7162 37.5849L70.5823 37.0849L69.6126 35.4054L68.7466 35.9054L67.8806 36.4054L68.8502 38.0849L69.7162 37.5849Z" fill="url(#paint8_linear_2336_24180)" mask="url(#path-8-inside-2_2336_24180)"/>
<mask id="path-10-inside-3_2336_24180" fill="white">
<path d="M71.2249 31.9275L69.5454 32.8972L70.0451 33.7627L71.7246 32.793L71.2249 31.9275Z"/>
</mask>
<path d="M71.2249 31.9275L69.5454 32.8972L70.0451 33.7627L71.7246 32.793L71.2249 31.9275Z" fill="url(#paint9_linear_2336_24180)"/>
<path d="M69.5454 32.8972L69.0454 32.0312L68.1794 32.5312L68.6794 33.3972L69.5454 32.8972ZM71.2249 31.9275L72.0909 31.4275L71.5909 30.5615L70.7249 31.0615L71.2249 31.9275ZM71.7246 32.793L72.2246 33.659L73.0906 33.159L72.5906 32.293L71.7246 32.793ZM70.0451 33.7627L69.1791 34.2627L69.679 35.1287L70.5451 34.6287L70.0451 33.7627ZM69.5454 32.8972L70.0454 33.7632L71.7249 32.7936L71.2249 31.9275L70.7249 31.0615L69.0454 32.0312L69.5454 32.8972ZM71.2249 31.9275L70.3589 32.4275L70.8586 33.293L71.7246 32.793L72.5906 32.293L72.0909 31.4275L71.2249 31.9275ZM71.7246 32.793L71.2246 31.927L69.5451 32.8966L70.0451 33.7627L70.5451 34.6287L72.2246 33.659L71.7246 32.793ZM70.0451 33.7627L70.9111 33.2627L70.4114 32.3972L69.5454 32.8972L68.6794 33.3972L69.1791 34.2627L70.0451 33.7627Z" fill="url(#paint10_linear_2336_24180)" mask="url(#path-10-inside-3_2336_24180)"/>
<mask id="path-12-inside-4_2336_24180" fill="white">
<path d="M66.6011 34.5995L64.9216 35.5692L65.4213 36.4347L67.1008 35.465L66.6011 34.5995Z"/>
</mask>
<path d="M66.6011 34.5995L64.9216 35.5692L65.4213 36.4347L67.1008 35.465L66.6011 34.5995Z" fill="url(#paint11_linear_2336_24180)"/>
<path d="M64.9216 35.5692L64.4216 34.7032L63.5556 35.2032L64.0556 36.0692L64.9216 35.5692ZM66.6011 34.5995L67.4672 34.0995L66.9672 33.2335L66.1011 33.7335L66.6011 34.5995ZM67.1008 35.465L67.6008 36.331L68.4668 35.831L67.9668 34.965L67.1008 35.465ZM65.4213 36.4347L64.5553 36.9347L65.0553 37.8007L65.9213 37.3007L65.4213 36.4347ZM64.9216 35.5692L65.4216 36.4352L67.1011 35.4656L66.6011 34.5995L66.1011 33.7335L64.4216 34.7032L64.9216 35.5692ZM66.6011 34.5995L65.7351 35.0995L66.2348 35.965L67.1008 35.465L67.9668 34.965L67.4672 34.0995L66.6011 34.5995ZM67.1008 35.465L66.6008 34.599L64.9213 35.5686L65.4213 36.4347L65.9213 37.3007L67.6008 36.331L67.1008 35.465ZM65.4213 36.4347L66.2873 35.9347L65.7877 35.0692L64.9216 35.5692L64.0556 36.0692L64.5553 36.9347L65.4213 36.4347Z" fill="url(#paint12_linear_2336_24180)" mask="url(#path-12-inside-4_2336_24180)"/>
<path d="M38.7759 147.466V149.057H38.4409V147.466H38.7759Z" fill="url(#paint13_linear_2336_24180)" stroke="url(#paint14_linear_2336_24180)"/>
<path d="M38.7759 154.604V156.195H38.4409V154.604H38.7759Z" fill="url(#paint15_linear_2336_24180)" stroke="url(#paint16_linear_2336_24180)"/>
<path d="M42.9712 151.664V151.999H41.3804V151.664H42.9712Z" fill="url(#paint17_linear_2336_24180)" stroke="url(#paint18_linear_2336_24180)"/>
<path d="M35.8293 151.664V151.999H34.2385V151.664H35.8293Z" fill="url(#paint19_linear_2336_24180)" stroke="url(#paint20_linear_2336_24180)"/>
<path d="M2.64648 56.7887C3.83179 56.7888 4.79297 57.7498 4.79297 58.9352C4.7929 60.1205 3.83175 61.0816 2.64648 61.0817C1.46115 61.0817 0.500066 60.1205 0.5 58.9352C0.5 57.7498 1.46111 56.7887 2.64648 56.7887Z" fill="url(#paint21_linear_2336_24180)" stroke="url(#paint22_linear_2336_24180)"/>
<path d="M12.0554 96.9041C12.9384 96.9041 13.6548 97.6197 13.655 98.5027C13.655 99.3858 12.9385 100.102 12.0554 100.102C11.1725 100.102 10.4568 99.3857 10.4568 98.5027C10.457 97.6199 11.1726 96.9043 12.0554 96.9041Z" fill="url(#paint23_linear_2336_24180)" stroke="url(#paint24_linear_2336_24180)"/>
<path d="M197.662 98.5027C198.681 98.5027 199.508 99.3293 199.508 100.348C199.508 101.367 198.681 102.193 197.662 102.193C196.644 102.193 195.818 101.367 195.818 100.348C195.818 99.3294 196.644 98.5029 197.662 98.5027Z" fill="url(#paint25_linear_2336_24180)" stroke="url(#paint26_linear_2336_24180)"/>
<mask id="path-21-inside-5_2336_24180" fill="white">
<path d="M160.77 94.0024L160.005 93.36L158.758 94.8456L159.524 95.488L160.77 94.0024Z"/>
</mask>
<path d="M160.77 94.0024L160.005 93.36L158.758 94.8456L159.524 95.488L160.77 94.0024Z" fill="url(#paint27_linear_2336_24180)"/>
<path d="M160.005 93.36L160.648 92.5939L159.882 91.9511L159.239 92.7172L160.005 93.36ZM160.77 94.0024L161.536 94.6451L162.179 93.8791L161.413 93.2363L160.77 94.0024ZM159.524 95.488L158.881 96.254L159.647 96.8968L160.29 96.1308L159.524 95.488ZM158.758 94.8456L157.992 94.2028L157.349 94.9689L158.116 95.6117L158.758 94.8456ZM160.005 93.36L159.362 94.126L160.128 94.7684L160.77 94.0024L161.413 93.2363L160.648 92.5939L160.005 93.36ZM160.77 94.0024L160.004 93.3596L158.758 94.8452L159.524 95.488L160.29 96.1308L161.536 94.6451L160.77 94.0024ZM159.524 95.488L160.167 94.7219L159.401 94.0796L158.758 94.8456L158.116 95.6117L158.881 96.254L159.524 95.488ZM158.758 94.8456L159.524 95.4884L160.771 94.0028L160.005 93.36L159.239 92.7172L157.992 94.2028L158.758 94.8456Z" fill="url(#paint28_linear_2336_24180)" mask="url(#path-21-inside-5_2336_24180)"/>
<mask id="path-23-inside-6_2336_24180" fill="white">
<path d="M157.333 98.0957L156.567 97.4534L155.321 98.939L156.086 99.5814L157.333 98.0957Z"/>
</mask>
<path d="M157.333 98.0957L156.567 97.4534L155.321 98.939L156.086 99.5814L157.333 98.0957Z" fill="url(#paint29_linear_2336_24180)"/>
<path d="M156.567 97.4534L157.21 96.6873L156.444 96.0445L155.801 96.8106L156.567 97.4534ZM157.333 98.0957L158.099 98.7385L158.742 97.9725L157.976 97.3297L157.333 98.0957ZM156.086 99.5814L155.444 100.347L156.21 100.99L156.852 100.224L156.086 99.5814ZM155.321 98.939L154.555 98.2962L153.912 99.0623L154.678 99.705L155.321 98.939ZM156.567 97.4534L155.925 98.2194L156.69 98.8618L157.333 98.0957L157.976 97.3297L157.21 96.6873L156.567 97.4534ZM157.333 98.0957L156.567 97.4529L155.32 98.9386L156.086 99.5814L156.852 100.224L158.099 98.7385L157.333 98.0957ZM156.086 99.5814L156.729 98.8153L155.964 98.1729L155.321 98.939L154.678 99.705L155.444 100.347L156.086 99.5814ZM155.321 98.939L156.087 99.5818L157.333 98.0962L156.567 97.4534L155.801 96.8106L154.555 98.2962L155.321 98.939Z" fill="url(#paint30_linear_2336_24180)" mask="url(#path-23-inside-6_2336_24180)"/>
<mask id="path-25-inside-7_2336_24180" fill="white">
<path d="M161.155 98.4285L159.669 97.1819L159.027 97.9474L160.512 99.194L161.155 98.4285Z"/>
</mask>
<path d="M161.155 98.4285L159.669 97.1819L159.027 97.9474L160.512 99.194L161.155 98.4285Z" fill="url(#paint31_linear_2336_24180)"/>
<path d="M159.669 97.1819L160.312 96.4158L159.546 95.773L158.903 96.5391L159.669 97.1819ZM161.155 98.4285L161.921 99.0713L162.564 98.3052L161.798 97.6624L161.155 98.4285ZM160.512 99.194L159.87 99.9601L160.636 100.603L161.278 99.8368L160.512 99.194ZM159.027 97.9474L158.261 97.3046L157.618 98.0707L158.384 98.7135L159.027 97.9474ZM159.669 97.1819L159.026 97.9479L160.512 99.1945L161.155 98.4285L161.798 97.6624L160.312 96.4158L159.669 97.1819ZM161.155 98.4285L160.389 97.7857L159.746 98.5512L160.512 99.194L161.278 99.8368L161.921 99.0713L161.155 98.4285ZM160.512 99.194L161.155 98.428L159.67 97.1814L159.027 97.9474L158.384 98.7135L159.87 99.9601L160.512 99.194ZM159.027 97.9474L159.793 98.5902L160.435 97.8247L159.669 97.1819L158.903 96.5391L158.261 97.3046L159.027 97.9474Z" fill="url(#paint32_linear_2336_24180)" mask="url(#path-25-inside-7_2336_24180)"/>
<mask id="path-27-inside-8_2336_24180" fill="white">
<path d="M157.062 94.9935L155.576 93.7469L154.934 94.5125L156.419 95.7591L157.062 94.9935Z"/>
</mask>
<path d="M157.062 94.9935L155.576 93.7469L154.934 94.5125L156.419 95.7591L157.062 94.9935Z" fill="url(#paint33_linear_2336_24180)"/>
<path d="M155.576 93.7469L156.219 92.9809L155.453 92.3381L154.81 93.1042L155.576 93.7469ZM157.062 94.9935L157.828 95.6363L158.47 94.8703L157.704 94.2275L157.062 94.9935ZM156.419 95.7591L155.776 96.5251L156.542 97.1679L157.185 96.4019L156.419 95.7591ZM154.934 94.5125L154.168 93.8697L153.525 94.6357L154.291 95.2785L154.934 94.5125ZM155.576 93.7469L154.933 94.513L156.419 95.7596L157.062 94.9935L157.704 94.2275L156.219 92.9809L155.576 93.7469ZM157.062 94.9935L156.295 94.3507L155.653 95.1163L156.419 95.7591L157.185 96.4019L157.828 95.6363L157.062 94.9935ZM156.419 95.7591L157.062 94.993L155.576 93.7464L154.934 94.5125L154.291 95.2785L155.776 96.5251L156.419 95.7591ZM154.934 94.5125L155.7 95.1553L156.342 94.3897L155.576 93.7469L154.81 93.1042L154.168 93.8697L154.934 94.5125Z" fill="url(#paint34_linear_2336_24180)" mask="url(#path-27-inside-8_2336_24180)"/>
<mask id="path-29-inside-9_2336_24180" fill="white">
<path d="M125.949 30.7387L125.184 30.0963L123.937 31.5819L124.703 32.2243L125.949 30.7387Z"/>
</mask>
<path d="M125.949 30.7387L125.184 30.0963L123.937 31.5819L124.703 32.2243L125.949 30.7387Z" fill="url(#paint35_linear_2336_24180)"/>
<path d="M125.184 30.0963L125.826 29.3303L125.06 28.6875L124.418 29.4535L125.184 30.0963ZM125.949 30.7387L126.715 31.3815L127.358 30.6154L126.592 29.9726L125.949 30.7387ZM124.703 32.2243L124.06 32.9904L124.826 33.6331L125.469 32.8671L124.703 32.2243ZM123.937 31.5819L123.171 30.9391L122.528 31.7052L123.294 32.348L123.937 31.5819ZM125.184 30.0963L124.541 30.8624L125.306 31.5047L125.949 30.7387L126.592 29.9726L125.826 29.3303L125.184 30.0963ZM125.949 30.7387L125.183 30.0959L123.937 31.5815L124.703 32.2243L125.469 32.8671L126.715 31.3815L125.949 30.7387ZM124.703 32.2243L125.345 31.4583L124.58 30.8159L123.937 31.5819L123.294 32.348L124.06 32.9904L124.703 32.2243ZM123.937 31.5819L124.703 32.2247L125.95 30.7391L125.184 30.0963L124.418 29.4535L123.171 30.9391L123.937 31.5819Z" fill="url(#paint36_linear_2336_24180)" mask="url(#path-29-inside-9_2336_24180)"/>
<mask id="path-31-inside-10_2336_24180" fill="white">
<path d="M122.511 34.8323L121.745 34.1899L120.499 35.6756L121.264 36.3179L122.511 34.8323Z"/>
</mask>
<path d="M122.511 34.8323L121.745 34.1899L120.499 35.6756L121.264 36.3179L122.511 34.8323Z" fill="url(#paint37_linear_2336_24180)"/>
<path d="M121.745 34.1899L122.388 33.4239L121.622 32.7811L120.979 33.5471L121.745 34.1899ZM122.511 34.8323L123.277 35.4751L123.92 34.7091L123.154 34.0663L122.511 34.8323ZM121.264 36.3179L120.622 37.084L121.388 37.7268L122.03 36.9607L121.264 36.3179ZM120.499 35.6756L119.733 35.0328L119.09 35.7988L119.856 36.4416L120.499 35.6756ZM121.745 34.1899L121.103 34.956L121.868 35.5984L122.511 34.8323L123.154 34.0663L122.388 33.4239L121.745 34.1899ZM122.511 34.8323L121.745 34.1895L120.498 35.6751L121.264 36.3179L122.03 36.9607L123.277 35.4751L122.511 34.8323ZM121.264 36.3179L121.907 35.5519L121.142 34.9095L120.499 35.6756L119.856 36.4416L120.622 37.084L121.264 36.3179ZM120.499 35.6756L121.265 36.3184L122.511 34.8327L121.745 34.1899L120.979 33.5471L119.733 35.0328L120.499 35.6756Z" fill="url(#paint38_linear_2336_24180)" mask="url(#path-31-inside-10_2336_24180)"/>
<mask id="path-33-inside-11_2336_24180" fill="white">
<path d="M126.332 35.1652L124.846 33.9186L124.204 34.6841L125.689 35.9307L126.332 35.1652Z"/>
</mask>
<path d="M126.332 35.1652L124.846 33.9186L124.204 34.6841L125.689 35.9307L126.332 35.1652Z" fill="url(#paint39_linear_2336_24180)"/>
<path d="M124.846 33.9186L125.489 33.1525L124.723 32.5097L124.08 33.2758L124.846 33.9186ZM126.332 35.1652L127.098 35.808L127.74 35.0419L126.974 34.3991L126.332 35.1652ZM125.689 35.9307L125.046 36.6968L125.812 37.3396L126.455 36.5735L125.689 35.9307ZM124.204 34.6841L123.438 34.0413L122.795 34.8074L123.561 35.4502L124.204 34.6841ZM124.846 33.9186L124.203 34.6846L125.689 35.9312L126.332 35.1652L126.974 34.3991L125.489 33.1525L124.846 33.9186ZM126.332 35.1652L125.566 34.5224L124.923 35.2879L125.689 35.9307L126.455 36.5735L127.098 35.808L126.332 35.1652ZM125.689 35.9307L126.332 35.1647L124.846 33.9181L124.204 34.6841L123.561 35.4502L125.046 36.6968L125.689 35.9307ZM124.204 34.6841L124.97 35.3269L125.612 34.5614L124.846 33.9186L124.08 33.2758L123.438 34.0413L124.204 34.6841Z" fill="url(#paint40_linear_2336_24180)" mask="url(#path-33-inside-11_2336_24180)"/>
<mask id="path-35-inside-12_2336_24180" fill="white">
<path d="M122.239 31.7296L120.753 30.483L120.111 31.2486L121.597 32.4952L122.239 31.7296Z"/>
</mask>
<path d="M122.239 31.7296L120.753 30.483L120.111 31.2486L121.597 32.4952L122.239 31.7296Z" fill="url(#paint41_linear_2336_24180)"/>
<path d="M120.753 30.483L121.396 29.717L120.63 29.0742L119.987 29.8402L120.753 30.483ZM122.239 31.7296L123.005 32.3724L123.648 31.6064L122.882 30.9636L122.239 31.7296ZM121.597 32.4952L120.954 33.2612L121.72 33.904L122.363 33.138L121.597 32.4952ZM120.111 31.2486L119.345 30.6058L118.702 31.3718L119.468 32.0146L120.111 31.2486ZM120.753 30.483L120.111 31.2491L121.596 32.4957L122.239 31.7296L122.882 30.9636L121.396 29.717L120.753 30.483ZM122.239 31.7296L121.473 31.0868L120.831 31.8524L121.597 32.4952L122.363 33.138L123.005 32.3724L122.239 31.7296ZM121.597 32.4952L122.239 31.7291L120.754 30.4825L120.111 31.2486L119.468 32.0146L120.954 33.2612L121.597 32.4952ZM120.111 31.2486L120.877 31.8914L121.519 31.1258L120.753 30.483L119.987 29.8402L119.345 30.6058L120.111 31.2486Z" fill="url(#paint42_linear_2336_24180)" mask="url(#path-35-inside-12_2336_24180)"/>
<path d="M89.5107 54.5818C92.1066 53.7883 94.8416 53.5556 97.5342 53.8992V53.8982C98.4887 54.0231 99.4277 54.2278 100.345 54.5066C95.251 59.6043 92.0889 66.6382 92.0889 74.4255C92.0889 88.5061 102.427 100.2 115.917 102.324C116.274 102.835 116.674 103.316 117.117 103.759V103.76L121.958 108.596H68.0957L72.9375 103.755C74.8961 101.796 76.0371 99.1273 76.0371 96.2888V72.7449C76.0391 70.0481 76.6148 67.3825 77.7266 64.9255C78.8368 62.472 80.456 60.282 82.4766 58.5017C84.3893 56.8233 86.6166 55.5443 89.0264 54.7371L89.5107 54.5818Z" fill="url(#paint43_linear_2336_24180)" stroke="url(#paint44_linear_2336_24180)" stroke-width="16"/>
<path d="M120.333 57.5563C111.031 57.5563 103.463 65.124 103.463 74.4259C103.463 83.7279 111.031 91.2956 120.333 91.2956C129.635 91.2956 137.202 83.7279 137.202 74.4259C137.202 65.124 129.631 57.5563 120.333 57.5563ZM126.584 72.9448L122.222 77.3073C121.237 78.2925 119.941 78.7851 118.642 78.7851C117.343 78.7851 116.051 78.2925 115.062 77.3073L114.074 76.3187C113.767 76.0005 113.597 75.5744 113.6 75.1321C113.604 74.6898 113.782 74.2667 114.094 73.9539C114.407 73.6411 114.83 73.4637 115.273 73.4599C115.715 73.456 116.141 73.6261 116.459 73.9333L117.448 74.9219C117.764 75.2382 118.193 75.4158 118.641 75.4158C119.088 75.4158 119.517 75.2382 119.833 74.9219L124.196 70.5594C124.352 70.4026 124.538 70.2781 124.743 70.1931C124.948 70.1082 125.167 70.0643 125.389 70.0642C125.611 70.064 125.83 70.1075 126.035 70.1922C126.24 70.2769 126.426 70.4011 126.583 70.5577C126.74 70.7144 126.864 70.9003 126.949 71.1051C127.034 71.3098 127.078 71.5292 127.078 71.7509C127.078 71.9726 127.035 72.1921 126.95 72.3969C126.865 72.6018 126.741 72.7879 126.584 72.9448Z" fill="#F6F2ED"/>
<rect x="144.45" y="133.423" width="26.8172" height="27.5737" rx="13.4086" stroke="url(#paint45_linear_2336_24180)"/>
<rect x="148.5" y="134.5" width="27" height="27" rx="13.5" fill="url(#paint46_linear_2336_24180)"/>
<rect x="148.5" y="134.5" width="27" height="27" rx="13.5" stroke="url(#paint47_linear_2336_24180)"/>
<path d="M167.599 148.342C167.229 147.892 166.717 147.586 166.149 147.476C166.541 147.287 166.861 146.971 167.058 146.578C167.254 146.186 167.317 145.738 167.237 145.305C167.213 144.965 167.109 144.635 166.933 144.343C166.763 144.07 166.527 143.844 166.247 143.687C165.953 143.519 165.637 143.391 165.309 143.308C164.926 143.214 164.537 143.15 164.145 143.119V141H162.866V143.06C162.645 143.06 162.307 143.066 161.852 143.077V141H160.573V143.12C160.39 143.125 160.121 143.128 159.767 143.128L158.005 143.12V144.499H158.928C159.101 144.476 159.276 144.523 159.415 144.63C159.554 144.737 159.645 144.895 159.668 145.07V147.484C159.712 147.483 159.756 147.486 159.8 147.492H159.668V150.879C159.666 150.939 159.651 150.999 159.625 151.053C159.599 151.108 159.563 151.157 159.518 151.197C159.473 151.237 159.42 151.267 159.363 151.286C159.307 151.305 159.247 151.313 159.187 151.307H158.264L158 152.847H159.662H160.118H160.566V154.991H161.845V152.881C162.078 152.887 162.416 152.889 162.86 152.889V155H164.139V152.851C164.544 152.834 164.948 152.792 165.348 152.725C165.694 152.665 166.032 152.568 166.357 152.435C166.652 152.32 166.924 152.153 167.163 151.943C167.389 151.732 167.571 151.477 167.698 151.194C167.845 150.861 167.934 150.505 167.962 150.142C168.072 149.517 167.942 148.874 167.599 148.342ZM161.874 144.591H162.203L162.651 144.583C162.77 144.583 162.93 144.59 163.133 144.604C163.304 144.617 163.474 144.639 163.643 144.671C163.798 144.703 163.951 144.747 164.099 144.805C164.244 144.857 164.379 144.937 164.495 145.04C164.6 145.14 164.686 145.26 164.748 145.393C164.82 145.547 164.856 145.716 164.852 145.886C164.854 146.032 164.828 146.178 164.777 146.315C164.73 146.44 164.653 146.551 164.553 146.639C164.457 146.723 164.354 146.799 164.246 146.866C164.12 146.939 163.984 146.991 163.842 147.022C163.679 147.061 163.536 147.092 163.415 147.114C163.264 147.14 163.111 147.155 162.959 147.161L162.543 147.178C162.449 147.178 162.32 147.178 162.157 147.178H161.871V144.591H161.874ZM165.368 150.318C165.319 150.441 165.25 150.555 165.165 150.655C165.071 150.758 164.96 150.843 164.836 150.907C164.709 150.976 164.577 151.035 164.441 151.083C164.29 151.134 164.136 151.173 163.979 151.201C163.799 151.234 163.641 151.258 163.506 151.273C163.37 151.287 163.208 151.298 163.019 151.306C162.831 151.314 162.684 151.318 162.579 151.318H162.183H161.876V148.468L162.271 148.46C162.49 148.455 162.669 148.452 162.807 148.452C162.945 148.452 163.136 148.46 163.381 148.477C163.587 148.489 163.792 148.515 163.995 148.553C164.18 148.592 164.362 148.645 164.54 148.71C164.712 148.767 164.874 148.853 165.017 148.966C165.144 149.073 165.248 149.205 165.324 149.353C165.398 149.502 165.44 149.665 165.448 149.832C165.456 149.999 165.43 150.165 165.371 150.321L165.368 150.318Z" fill="#F6F2ED"/>
<path d="M31.499 0.5C35.8655 0.504879 40.0576 2.18766 43.2129 5.19043L43.5146 5.48438C46.6022 8.57182 48.3813 12.7239 48.4941 17.0781L48.5 17.5C48.5 20.6518 47.624 23.7373 45.9756 26.4141L45.6357 26.9443C43.7679 29.7401 41.1122 31.9192 38.0059 33.2061C35.0938 34.4123 31.9077 34.7838 28.8037 34.2852L28.1836 34.1738C25.092 33.5589 22.2365 32.0972 19.9326 29.958L19.4795 29.5215C17.2505 27.2926 15.688 24.4905 14.9609 21.4316L14.8271 20.8164C14.2122 17.7248 14.4687 14.5273 15.5635 11.5801L15.7939 10.9941C17.0002 8.08214 18.9907 5.56679 21.5381 3.72461L22.0557 3.36523C24.851 1.49749 28.1371 0.500195 31.499 0.5ZM37.625 2.71289C34.8833 1.57726 31.8833 1.22768 28.9609 1.69727L28.3779 1.80273C25.2734 2.42026 22.4218 3.94441 20.1836 6.18262C18.0852 8.28097 16.6142 10.9183 15.9297 13.7979L15.8027 14.377C15.2238 17.2874 15.4664 20.2978 16.4971 23.0723L16.7139 23.624C17.8495 26.3656 19.7237 28.7335 22.1221 30.4678L22.6084 30.8066C25.0757 32.4552 27.9496 33.3826 30.9072 33.4922L31.5 33.5039H31.501C35.7439 33.4991 39.8113 31.8107 42.8115 28.8105C45.7179 25.9042 47.3928 21.9962 47.499 17.8975L47.5039 17.5V17.499C47.5039 14.5315 46.6791 11.6266 45.127 9.10645L44.8066 8.60742C43.158 6.14025 40.8584 4.18324 38.168 2.9502L37.625 2.71289Z" fill="url(#paint48_linear_2336_24180)" stroke="url(#paint49_linear_2336_24180)"/>
<path d="M29.9734 29.5265C30.2766 29.565 30.5812 29.5918 30.8865 29.6075L30.8767 30.6046C30.5195 30.5876 30.1631 30.5566 29.8083 30.5109L29.9734 29.5265ZM34.9812 30.1573C34.6363 30.2519 34.2878 30.3325 33.9363 30.3986L33.7888 29.4122C34.0888 29.3551 34.3866 29.2878 34.6814 29.2081L34.9812 30.1573ZM26.3103 28.4572C26.5859 28.588 26.8665 28.7078 27.1511 28.8175L26.8328 29.7628C26.498 29.6351 26.1686 29.4937 25.8455 29.339L26.3103 28.4572ZM38.7439 28.4484C38.4455 28.6461 38.1395 28.8323 37.8259 29.005L37.3757 28.1105C37.6435 27.962 37.9059 27.804 38.1619 27.6359L38.7439 28.4484ZM23.1619 26.296C23.3834 26.5063 23.6127 26.7083 23.8494 26.9015L23.2517 27.6993C22.9739 27.4741 22.7057 27.2373 22.447 26.9904L23.1619 26.296ZM41.7839 25.6495C41.5614 25.9296 41.3281 26.2008 41.0837 26.462L40.3835 25.755C40.5912 25.5309 40.7907 25.2995 40.9812 25.0607L41.7839 25.6495ZM20.8396 23.2657C20.9846 23.5339 21.1396 23.7964 21.3044 24.0529L20.489 24.6261C20.2946 24.3263 20.1126 24.0188 19.9431 23.7042L20.8396 23.2657ZM43.8142 22.0519C43.6897 22.3881 43.5517 22.7191 43.4001 23.0441L42.5134 22.589C42.6419 22.3113 42.7598 22.0289 42.8669 21.7423L43.8142 22.0519ZM19.5759 19.6661C19.6304 19.967 19.6959 20.2658 19.7732 20.5616L18.821 20.8517C18.7298 20.5051 18.6531 20.1548 18.5906 19.8019L19.5759 19.6661ZM44.616 18.005C44.6025 18.3621 44.5742 18.7185 44.532 19.0734L43.5486 18.9181C43.5836 18.6147 43.6075 18.3101 43.6199 18.005H44.616ZM19.4949 15.8488C19.454 16.1513 19.4241 16.4552 19.406 16.7599L18.4109 16.7404C18.4315 16.3833 18.4659 16.0272 18.5154 15.673L19.4949 15.8488ZM44.2566 14.4005C44.3408 14.7484 44.4109 15.0996 44.4666 15.4532L43.4773 15.5704C43.4289 15.2692 43.3686 14.9699 43.2976 14.673L44.2566 14.4005ZM20.6023 12.1954C20.4688 12.47 20.3455 12.7494 20.2332 13.0333L19.2937 12.7062C19.4248 12.3724 19.5682 12.0436 19.7263 11.7218L20.6023 12.1954ZM42.6609 10.5919C42.8499 10.8958 43.0265 11.2073 43.1902 11.5255L42.2849 11.9464C42.1449 11.6752 41.9948 11.4094 41.8347 11.1495L42.6609 10.5919ZM22.7966 9.06848C22.5841 9.28869 22.3798 9.5166 22.1843 9.75208L21.3933 9.14758C21.6216 8.87134 21.861 8.6045 22.1111 8.34778L22.7966 9.06848ZM39.9587 7.46887C40.232 7.69939 40.496 7.94068 40.7498 8.1925L40.0251 8.87219C39.8073 8.65749 39.5816 8.45099 39.3484 8.25305L39.9587 7.46887ZM25.8416 6.77356C25.5719 6.91627 25.3077 7.06893 25.0496 7.23157L24.4832 6.41223C24.7854 6.2205 25.095 6.0406 25.4119 5.87415L25.8416 6.77356ZM36.4207 5.33313C36.7526 5.46752 37.0784 5.6164 37.3982 5.77747L36.9177 6.64856C36.6442 6.51213 36.3657 6.38605 36.0828 6.27063L36.4207 5.33313ZM29.4568 5.54895C29.156 5.60023 28.8574 5.6636 28.5613 5.73743L28.281 4.78137C28.6278 4.69363 28.978 4.61968 29.3308 4.56067L29.4568 5.54895ZM32.3933 4.41125C32.7505 4.43522 33.1066 4.47363 33.4607 4.52649L33.2751 5.50598C32.9728 5.46175 32.6689 5.42877 32.364 5.40735L32.3933 4.41125Z" fill="url(#paint50_linear_2336_24180)" stroke="url(#paint51_linear_2336_24180)"/>
<path d="M31.5017 10.6791C35.2686 10.6791 38.3227 13.7326 38.323 17.4994C38.323 21.2664 35.2687 24.3207 31.5017 24.3207C27.7349 24.3204 24.6814 21.2662 24.6814 17.4994C24.6816 13.7327 27.7351 10.6793 31.5017 10.6791Z" fill="url(#paint52_linear_2336_24180)" stroke="url(#paint53_linear_2336_24180)"/>
<path d="M35.0659 14.9036L30.2446 19.9944C30.2342 20.0053 30.2228 20.0152 30.2104 20.0237L30.1714 20.0452C30.1578 20.0509 30.1438 20.0559 30.1294 20.0588L30.0845 20.0627H30.0806C30.0654 20.0625 30.0504 20.0611 30.0356 20.0579L29.9927 20.0432C29.9788 20.0369 29.9649 20.0297 29.9526 20.0208L29.9185 19.9905L27.9302 17.8L28.2573 17.5032L29.7241 19.1184L30.0864 19.5168L30.4565 19.1252L34.7437 14.5979L35.0659 14.9036Z" fill="#2F2E2D" stroke="#F6F2ED"/>
<defs>
<linearGradient id="paint0_linear_2336_24180" x1="21.4132" y1="19.2026" x2="255.048" y2="124.027" gradientUnits="userSpaceOnUse">
<stop stop-color="#846E55"/>
<stop offset="1" stop-color="#B3A55C"/>
</linearGradient>
<linearGradient id="paint1_linear_2336_24180" x1="175.538" y1="102.168" x2="195.552" y2="111.147" gradientUnits="userSpaceOnUse">
<stop stop-color="#846E55"/>
<stop offset="1" stop-color="#B3A55C"/>
</linearGradient>
<linearGradient id="paint2_linear_2336_24180" x1="186.86" y1="81.2992" x2="200.538" y2="87.4362" gradientUnits="userSpaceOnUse">
<stop stop-color="#846E55"/>
<stop offset="1" stop-color="#B3A55C"/>
</linearGradient>
<linearGradient id="paint3_linear_2336_24180" x1="152.036" y1="18.0361" x2="165.715" y2="24.173" gradientUnits="userSpaceOnUse">
<stop stop-color="#846E55"/>
<stop offset="1" stop-color="#B3A55C"/>
</linearGradient>
<linearGradient id="paint4_linear_2336_24180" x1="3.46478" y1="62.7122" x2="28.8482" y2="74.101" gradientUnits="userSpaceOnUse">
<stop stop-color="#846E55"/>
<stop offset="1" stop-color="#B3A55C"/>
</linearGradient>
<linearGradient id="paint5_linear_2336_24180" x1="66.1019" y1="31.3645" x2="67.8718" y2="30.824" gradientUnits="userSpaceOnUse">
<stop stop-color="#846E55"/>
<stop offset="1" stop-color="#B3A55C"/>
</linearGradient>
<linearGradient id="paint6_linear_2336_24180" x1="66.1019" y1="31.3645" x2="67.8718" y2="30.824" gradientUnits="userSpaceOnUse">
<stop stop-color="#846E55"/>
<stop offset="1" stop-color="#B3A55C"/>
</linearGradient>
<linearGradient id="paint7_linear_2336_24180" x1="68.7792" y1="35.9923" x2="70.549" y2="35.4518" gradientUnits="userSpaceOnUse">
<stop stop-color="#846E55"/>
<stop offset="1" stop-color="#B3A55C"/>
</linearGradient>
<linearGradient id="paint8_linear_2336_24180" x1="68.7792" y1="35.9923" x2="70.549" y2="35.4518" gradientUnits="userSpaceOnUse">
<stop stop-color="#846E55"/>
<stop offset="1" stop-color="#B3A55C"/>
</linearGradient>
<linearGradient id="paint9_linear_2336_24180" x1="69.5434" y1="32.9529" x2="72.2717" y2="33.4855" gradientUnits="userSpaceOnUse">
<stop stop-color="#846E55"/>
<stop offset="1" stop-color="#B3A55C"/>
</linearGradient>
<linearGradient id="paint10_linear_2336_24180" x1="69.5434" y1="32.9529" x2="72.2717" y2="33.4855" gradientUnits="userSpaceOnUse">
<stop stop-color="#846E55"/>
<stop offset="1" stop-color="#B3A55C"/>
</linearGradient>
<linearGradient id="paint11_linear_2336_24180" x1="64.9196" y1="35.6249" x2="67.648" y2="36.1575" gradientUnits="userSpaceOnUse">
<stop stop-color="#846E55"/>
<stop offset="1" stop-color="#B3A55C"/>
</linearGradient>
<linearGradient id="paint12_linear_2336_24180" x1="64.9196" y1="35.6249" x2="67.648" y2="36.1575" gradientUnits="userSpaceOnUse">
<stop stop-color="#846E55"/>
<stop offset="1" stop-color="#B3A55C"/>
</linearGradient>
<linearGradient id="paint13_linear_2336_24180" x1="37.9205" y1="147.088" x2="40.329" y2="147.645" gradientUnits="userSpaceOnUse">
<stop stop-color="#846E55"/>
<stop offset="1" stop-color="#B3A55C"/>
</linearGradient>
<linearGradient id="paint14_linear_2336_24180" x1="37.9205" y1="147.088" x2="40.329" y2="147.645" gradientUnits="userSpaceOnUse">
<stop stop-color="#846E55"/>
<stop offset="1" stop-color="#B3A55C"/>
</linearGradient>
<linearGradient id="paint15_linear_2336_24180" x1="37.9205" y1="154.227" x2="40.329" y2="154.783" gradientUnits="userSpaceOnUse">
<stop stop-color="#846E55"/>
<stop offset="1" stop-color="#B3A55C"/>
</linearGradient>
<linearGradient id="paint16_linear_2336_24180" x1="37.9205" y1="154.227" x2="40.329" y2="154.783" gradientUnits="userSpaceOnUse">
<stop stop-color="#846E55"/>
<stop offset="1" stop-color="#B3A55C"/>
</linearGradient>
<linearGradient id="paint17_linear_2336_24180" x1="40.8408" y1="151.227" x2="43.6414" y2="153.665" gradientUnits="userSpaceOnUse">
<stop stop-color="#846E55"/>
<stop offset="1" stop-color="#B3A55C"/>
</linearGradient>
<linearGradient id="paint18_linear_2336_24180" x1="40.8408" y1="151.227" x2="43.6414" y2="153.665" gradientUnits="userSpaceOnUse">
<stop stop-color="#846E55"/>
<stop offset="1" stop-color="#B3A55C"/>
</linearGradient>
<linearGradient id="paint19_linear_2336_24180" x1="33.699" y1="151.227" x2="36.4995" y2="153.665" gradientUnits="userSpaceOnUse">
<stop stop-color="#846E55"/>
<stop offset="1" stop-color="#B3A55C"/>
</linearGradient>
<linearGradient id="paint20_linear_2336_24180" x1="33.699" y1="151.227" x2="36.4995" y2="153.665" gradientUnits="userSpaceOnUse">
<stop stop-color="#846E55"/>
<stop offset="1" stop-color="#B3A55C"/>
</linearGradient>
<linearGradient id="paint21_linear_2336_24180" x1="-0.0808039" y1="56.5386" x2="8.293" y2="60.2957" gradientUnits="userSpaceOnUse">
<stop stop-color="#846E55"/>
<stop offset="1" stop-color="#B3A55C"/>
</linearGradient>
<linearGradient id="paint22_linear_2336_24180" x1="-0.0808039" y1="56.5386" x2="8.293" y2="60.2957" gradientUnits="userSpaceOnUse">
<stop stop-color="#846E55"/>
<stop offset="1" stop-color="#B3A55C"/>
</linearGradient>
<linearGradient id="paint23_linear_2336_24180" x1="9.89269" y1="96.6023" x2="16.5347" y2="99.5824" gradientUnits="userSpaceOnUse">
<stop stop-color="#846E55"/>
<stop offset="1" stop-color="#B3A55C"/>
</linearGradient>
<linearGradient id="paint24_linear_2336_24180" x1="9.89269" y1="96.6023" x2="16.5347" y2="99.5824" gradientUnits="userSpaceOnUse">
<stop stop-color="#846E55"/>
<stop offset="1" stop-color="#B3A55C"/>
</linearGradient>
<linearGradient id="paint25_linear_2336_24180" x1="195.246" y1="98.2242" x2="202.667" y2="101.554" gradientUnits="userSpaceOnUse">
<stop stop-color="#846E55"/>
<stop offset="1" stop-color="#B3A55C"/>
</linearGradient>
<linearGradient id="paint26_linear_2336_24180" x1="195.246" y1="98.2242" x2="202.667" y2="101.554" gradientUnits="userSpaceOnUse">
<stop stop-color="#846E55"/>
<stop offset="1" stop-color="#B3A55C"/>
</linearGradient>
<linearGradient id="paint27_linear_2336_24180" x1="159.934" y1="93.4203" x2="161.048" y2="94.8986" gradientUnits="userSpaceOnUse">
<stop stop-color="#846E55"/>
<stop offset="1" stop-color="#B3A55C"/>
</linearGradient>
<linearGradient id="paint28_linear_2336_24180" x1="159.934" y1="93.4203" x2="161.048" y2="94.8986" gradientUnits="userSpaceOnUse">
<stop stop-color="#846E55"/>
<stop offset="1" stop-color="#B3A55C"/>
</linearGradient>
<linearGradient id="paint29_linear_2336_24180" x1="156.497" y1="97.5137" x2="157.61" y2="98.992" gradientUnits="userSpaceOnUse">
<stop stop-color="#846E55"/>
<stop offset="1" stop-color="#B3A55C"/>
</linearGradient>
<linearGradient id="paint30_linear_2336_24180" x1="156.497" y1="97.5137" x2="157.61" y2="98.992" gradientUnits="userSpaceOnUse">
<stop stop-color="#846E55"/>
<stop offset="1" stop-color="#B3A55C"/>
</linearGradient>
<linearGradient id="paint31_linear_2336_24180" x1="159.616" y1="97.199" x2="160.049" y2="99.945" gradientUnits="userSpaceOnUse">
<stop stop-color="#846E55"/>
<stop offset="1" stop-color="#B3A55C"/>
</linearGradient>
<linearGradient id="paint32_linear_2336_24180" x1="159.616" y1="97.199" x2="160.049" y2="99.945" gradientUnits="userSpaceOnUse">
<stop stop-color="#846E55"/>
<stop offset="1" stop-color="#B3A55C"/>
</linearGradient>
<linearGradient id="paint33_linear_2336_24180" x1="155.523" y1="93.7641" x2="155.956" y2="96.5101" gradientUnits="userSpaceOnUse">
<stop stop-color="#846E55"/>
<stop offset="1" stop-color="#B3A55C"/>
</linearGradient>
<linearGradient id="paint34_linear_2336_24180" x1="155.523" y1="93.7641" x2="155.956" y2="96.5101" gradientUnits="userSpaceOnUse">
<stop stop-color="#846E55"/>
<stop offset="1" stop-color="#B3A55C"/>
</linearGradient>
<linearGradient id="paint35_linear_2336_24180" x1="125.113" y1="30.1567" x2="126.226" y2="31.6349" gradientUnits="userSpaceOnUse">
<stop stop-color="#846E55"/>
<stop offset="1" stop-color="#B3A55C"/>
</linearGradient>
<linearGradient id="paint36_linear_2336_24180" x1="125.113" y1="30.1567" x2="126.226" y2="31.6349" gradientUnits="userSpaceOnUse">
<stop stop-color="#846E55"/>
<stop offset="1" stop-color="#B3A55C"/>
</linearGradient>
<linearGradient id="paint37_linear_2336_24180" x1="121.675" y1="34.2503" x2="122.788" y2="35.7286" gradientUnits="userSpaceOnUse">
<stop stop-color="#846E55"/>
<stop offset="1" stop-color="#B3A55C"/>
</linearGradient>
<linearGradient id="paint38_linear_2336_24180" x1="121.675" y1="34.2503" x2="122.788" y2="35.7286" gradientUnits="userSpaceOnUse">
<stop stop-color="#846E55"/>
<stop offset="1" stop-color="#B3A55C"/>
</linearGradient>
<linearGradient id="paint39_linear_2336_24180" x1="124.793" y1="33.9357" x2="125.226" y2="36.6817" gradientUnits="userSpaceOnUse">
<stop stop-color="#846E55"/>
<stop offset="1" stop-color="#B3A55C"/>
</linearGradient>
<linearGradient id="paint40_linear_2336_24180" x1="124.793" y1="33.9357" x2="125.226" y2="36.6817" gradientUnits="userSpaceOnUse">
<stop stop-color="#846E55"/>
<stop offset="1" stop-color="#B3A55C"/>
</linearGradient>
<linearGradient id="paint41_linear_2336_24180" x1="120.7" y1="30.5002" x2="121.133" y2="33.2462" gradientUnits="userSpaceOnUse">
<stop stop-color="#846E55"/>
<stop offset="1" stop-color="#B3A55C"/>
</linearGradient>
<linearGradient id="paint42_linear_2336_24180" x1="120.7" y1="30.5002" x2="121.133" y2="33.2462" gradientUnits="userSpaceOnUse">
<stop stop-color="#846E55"/>
<stop offset="1" stop-color="#B3A55C"/>
</linearGradient>
<linearGradient id="paint43_linear_2336_24180" x1="55.9566" y1="49.7281" x2="179.913" y2="99.7244" gradientUnits="userSpaceOnUse">
<stop stop-color="#846E55"/>
<stop offset="1" stop-color="#B3A55C"/>
</linearGradient>
<linearGradient id="paint44_linear_2336_24180" x1="55.9566" y1="49.7281" x2="179.913" y2="99.7244" gradientUnits="userSpaceOnUse">
<stop stop-color="#846E55"/>
<stop offset="1" stop-color="#B3A55C"/>
</linearGradient>
<linearGradient id="paint45_linear_2336_24180" x1="143.525" y1="134.272" x2="187.925" y2="153.666" gradientUnits="userSpaceOnUse">
<stop stop-color="#846E55"/>
<stop offset="1" stop-color="#B3A55C"/>
</linearGradient>
<linearGradient id="paint46_linear_2336_24180" x1="147.573" y1="135.322" x2="191.873" y2="155.199" gradientUnits="userSpaceOnUse">
<stop stop-color="#846E55"/>
<stop offset="1" stop-color="#B3A55C"/>
</linearGradient>
<linearGradient id="paint47_linear_2336_24180" x1="147.573" y1="135.322" x2="191.873" y2="155.199" gradientUnits="userSpaceOnUse">
<stop stop-color="#846E55"/>
<stop offset="1" stop-color="#B3A55C"/>
</linearGradient>
<linearGradient id="paint48_linear_2336_24180" x1="13.4656" y1="1.65278" x2="68.8409" y2="26.4983" gradientUnits="userSpaceOnUse">
<stop stop-color="#846E55"/>
<stop offset="1" stop-color="#B3A55C"/>
</linearGradient>
<linearGradient id="paint49_linear_2336_24180" x1="13.4656" y1="1.65278" x2="68.8409" y2="26.4983" gradientUnits="userSpaceOnUse">
<stop stop-color="#846E55"/>
<stop offset="1" stop-color="#B3A55C"/>
</linearGradient>
<linearGradient id="paint50_linear_2336_24180" x1="17.4756" y1="5.17283" x2="60.5635" y2="24.5065" gradientUnits="userSpaceOnUse">
<stop stop-color="#846E55"/>
<stop offset="1" stop-color="#B3A55C"/>
</linearGradient>
<linearGradient id="paint51_linear_2336_24180" x1="17.4756" y1="5.17283" x2="60.5635" y2="24.5065" gradientUnits="userSpaceOnUse">
<stop stop-color="#846E55"/>
<stop offset="1" stop-color="#B3A55C"/>
</linearGradient>
<linearGradient id="paint52_linear_2336_24180" x1="23.9579" y1="10.8705" x2="47.123" y2="21.2641" gradientUnits="userSpaceOnUse">
<stop stop-color="#846E55"/>
<stop offset="1" stop-color="#B3A55C"/>
</linearGradient>
<linearGradient id="paint53_linear_2336_24180" x1="23.9579" y1="10.8705" x2="47.123" y2="21.2641" gradientUnits="userSpaceOnUse">
<stop stop-color="#846E55"/>
<stop offset="1" stop-color="#B3A55C"/>
</linearGradient>
</defs>
</svg>
