<svg width="42" height="42" viewBox="0 0 42 42" fill="none" xmlns="http://www.w3.org/2000/svg">
<path d="M21 41C32.0457 41 41 32.0457 41 21C41 9.95431 32.0457 1 21 1C9.95431 1 1 9.95431 1 21C1 32.0457 9.95431 41 21 41Z" fill="#F6F2ED"/>
<path d="M21.0003 40.5289C31.7857 40.5289 40.5289 31.7857 40.5289 21.0003C40.5289 10.2149 31.7857 1.47168 21.0003 1.47168C10.2149 1.47168 1.47168 10.2149 1.47168 21.0003C1.47168 31.7857 10.2149 40.5289 21.0003 40.5289Z" stroke="url(#paint0_linear_1506_9126)"/>
<path d="M39.5171 21.2004C39.521 23.6522 39.0369 26.0804 38.0929 28.3432C37.149 30.6061 35.7642 32.6585 34.0191 34.3807C32.3155 36.0775 30.2933 37.4207 28.0687 38.333C25.8441 39.2454 23.461 39.7088 21.0566 39.6967C17.3969 39.7038 13.8173 38.625 10.7709 36.5969C7.72443 34.5689 5.34812 31.6827 3.94268 28.3035C2.53724 24.9244 2.16583 21.2042 2.87547 17.6139C3.5851 14.0236 5.34387 10.7246 7.9292 8.13428C10.5145 5.54393 13.8102 3.77875 17.3991 3.06216C20.988 2.34557 24.7089 2.70969 28.0907 4.10858C31.4726 5.50746 34.3634 7.87821 36.3974 10.9207C38.4314 13.9632 39.5171 17.5406 39.5171 21.2004Z" fill="url(#paint1_linear_1506_9126)"/>
<path d="M21.0669 38.1396C30.4673 38.1396 38.0878 30.5191 38.0878 21.1186C38.0878 11.7182 30.4673 4.09766 21.0669 4.09766C11.6664 4.09766 4.0459 11.7182 4.0459 21.1186C4.0459 30.5191 11.6664 38.1396 21.0669 38.1396Z" fill="#F6F2ED"/>
<path d="M21.0672 37.6676C30.2073 37.6676 37.6168 30.2581 37.6168 21.118C37.6168 11.9779 30.2073 4.56836 21.0672 4.56836C11.9271 4.56836 4.51758 11.9779 4.51758 21.118C4.51758 30.2581 11.9271 37.6676 21.0672 37.6676Z" stroke="url(#paint2_linear_1506_9126)"/>
<path d="M21.1029 6.98067C13.3243 6.98067 7.01855 13.2865 7.01855 21.065C7.01855 28.8436 13.3243 35.1494 21.1029 35.1494C28.8815 35.1494 35.1873 28.8436 35.1873 21.065C35.1873 13.2865 28.8815 6.98067 21.1029 6.98067Z" stroke="url(#paint3_linear_1506_9126)" stroke-dasharray="1 1.5"/>
<g clip-path="url(#clip0_1506_9126)">
<path d="M18.0145 13.8494C18.0145 12.8296 17.1848 12 16.1651 12C13.7116 12.1016 13.7123 15.5976 16.1651 15.6988C17.1849 15.6988 18.0145 14.8692 18.0145 13.8494Z" fill="url(#paint4_linear_1506_9126)"/>
<path d="M19.3307 19.4331V18.8642C19.1564 14.6639 13.1728 14.6671 13 18.8642V19.4331C13 19.7081 13.223 19.9311 13.498 19.9311H18.8327C19.1077 19.9311 19.3307 19.7081 19.3307 19.4331ZM28.6841 13.8494C28.6841 12.8296 27.8544 12 26.8346 12C24.3811 12.1016 24.3818 15.5976 26.8346 15.6988C27.8544 15.6988 28.6841 14.8692 28.6841 13.8494ZM26.8346 15.6988C25.0893 15.6988 23.6693 17.1188 23.6693 18.8642V19.4331C23.6693 19.7081 23.8923 19.9311 24.1673 19.9311H29.502C29.777 19.9311 30 19.7081 30 19.4331V18.8642C30 17.1188 28.58 15.6988 26.8346 15.6988ZM16.13 21.0335C16.13 20.9979 16.1306 20.9626 16.1313 20.9272H15.1352C15.0955 23.0622 16.1305 24.991 17.7331 26.1656C17.8757 25.8633 18.054 25.5791 18.2644 25.3193C16.9679 24.339 16.13 22.7842 16.13 21.0335ZM19.3021 16.1325C20.6268 15.5121 22.3732 15.5121 23.6979 16.1325C23.9345 15.8611 24.2051 15.6213 24.5029 15.419C22.74 14.4263 20.26 14.4263 18.4971 15.419C18.7949 15.6213 19.0655 15.8611 19.3021 16.1325ZM26.8687 20.9272C26.9074 22.7065 26.0586 24.3228 24.7356 25.3193C24.946 25.5791 25.1243 25.8633 25.2669 26.1656C26.8694 24.9911 27.9045 23.0621 27.8648 20.9272H26.8687ZM23.3494 22.9183C23.3494 21.8985 22.5198 21.0689 21.5 21.0689C19.0465 21.1705 19.0472 24.6665 21.5 24.7677C22.5198 24.7677 23.3494 23.9381 23.3494 22.9183ZM21.5 24.7677C19.7546 24.7677 18.3346 26.1877 18.3346 27.9331V28.502C18.3346 28.777 18.5576 29 18.8327 29H24.1673C24.4424 29 24.6654 28.777 24.6654 28.502V27.9331C24.6654 26.1877 23.2454 24.7677 21.5 24.7677Z" fill="url(#paint5_linear_1506_9126)"/>
</g>
<defs>
<linearGradient id="paint0_linear_1506_9126" x1="0.875385" y1="3.31605" x2="62.6698" y2="31.0417" gradientUnits="userSpaceOnUse">
<stop stop-color="#846E55"/>
<stop offset="1" stop-color="#B3A55C"/>
</linearGradient>
<linearGradient id="paint1_linear_1506_9126" x1="1.95964" y1="4.45099" x2="60.4877" y2="30.711" gradientUnits="userSpaceOnUse">
<stop stop-color="#846E55"/>
<stop offset="1" stop-color="#B3A55C"/>
</linearGradient>
<linearGradient id="paint2_linear_1506_9126" x1="4.01225" y1="6.13138" x2="56.3802" y2="29.6276" gradientUnits="userSpaceOnUse">
<stop stop-color="#846E55"/>
<stop offset="1" stop-color="#B3A55C"/>
</linearGradient>
<linearGradient id="paint3_linear_1506_9126" x1="8.34875" y1="35.5795" x2="28.345" y2="-8.98769" gradientUnits="userSpaceOnUse">
<stop stop-color="#846E55"/>
<stop offset="1" stop-color="#B3A55C"/>
</linearGradient>
<linearGradient id="paint4_linear_1506_9126" x1="14.2689" y1="12.1747" x2="20.1109" y2="14.7891" gradientUnits="userSpaceOnUse">
<stop stop-color="#846E55"/>
<stop offset="1" stop-color="#B3A55C"/>
</linearGradient>
<linearGradient id="paint5_linear_1506_9126" x1="12.7405" y1="12.8028" x2="39.637" y2="24.8706" gradientUnits="userSpaceOnUse">
<stop stop-color="#846E55"/>
<stop offset="1" stop-color="#B3A55C"/>
</linearGradient>
<clipPath id="clip0_1506_9126">
<rect width="17" height="17" fill="white" transform="translate(13 12)"/>
</clipPath>
</defs>
</svg>
