<svg width="111" height="117" viewBox="0 0 111 117" fill="none" xmlns="http://www.w3.org/2000/svg">
<path opacity="0.4" d="M20.1967 71.9248C24.1912 71.9248 28.096 73.1132 31.4173 75.3396C34.7386 77.566 37.3273 80.7305 38.8559 84.433C40.3846 88.1354 40.7845 92.2094 40.0052 96.1399C39.2259 100.07 37.3024 103.681 34.4778 106.514C31.6533 109.348 28.0546 111.278 24.1368 112.06C20.2191 112.842 16.1582 112.44 12.4677 110.907C8.77727 109.373 5.62299 106.776 3.40375 103.444C1.18451 100.112 0 96.1944 0 92.187C0 86.8131 2.12786 81.6593 5.91546 77.8595C9.70307 74.0596 14.8402 71.9248 20.1967 71.9248Z" fill="url(#paint0_linear_516_8763)"/>
<path opacity="0.4" d="M16.344 117C16.686 117 17.0204 116.898 17.3048 116.708C17.5892 116.517 17.8109 116.246 17.9419 115.929C18.0728 115.612 18.1072 115.263 18.0405 114.926C17.9739 114.59 17.8092 114.281 17.5674 114.038C17.3256 113.795 17.0175 113.63 16.6821 113.563C16.3466 113.496 15.9989 113.53 15.6828 113.661C15.3667 113.792 15.0965 114.014 14.9063 114.3C14.7161 114.585 14.6145 114.92 14.6143 115.264C14.6141 115.491 14.6587 115.717 14.7456 115.928C14.8325 116.139 14.9599 116.33 15.1205 116.491C15.2811 116.653 15.4719 116.78 15.6818 116.868C15.8917 116.955 16.1167 117 16.344 117Z" fill="#F9F4F0"/>
<path opacity="0.4" d="M21.848 116.532C22.0818 116.532 22.3104 116.462 22.5048 116.332C22.6992 116.202 22.8507 116.016 22.9401 115.8C23.0295 115.583 23.0529 115.344 23.0072 115.114C22.9615 114.884 22.8488 114.673 22.6834 114.507C22.518 114.341 22.3073 114.228 22.0779 114.183C21.8486 114.137 21.6109 114.161 21.3949 114.251C21.179 114.341 20.9944 114.493 20.8647 114.688C20.7349 114.883 20.6658 115.112 20.666 115.347C20.6663 115.661 20.791 115.963 21.0126 116.185C21.2342 116.407 21.5347 116.532 21.848 116.532Z" fill="#F9F4F0"/>
<path opacity="0.4" d="M7.00143 74.6162C7.43475 74.6162 7.85833 74.4873 8.21862 74.2458C8.57891 74.0042 8.85972 73.661 9.02554 73.2593C9.19137 72.8577 9.23475 72.4158 9.15022 71.9894C9.06568 71.563 8.85702 71.1714 8.55062 70.864C8.24422 70.5566 7.85384 70.3473 7.42885 70.2624C7.00386 70.1776 6.56335 70.2212 6.16302 70.3875C5.76268 70.5539 5.42051 70.8356 5.17978 71.1971C4.93904 71.5585 4.81055 71.9835 4.81055 72.4182C4.81055 73.0011 5.04137 73.5602 5.45224 73.9724C5.86311 74.3846 6.42037 74.6162 7.00143 74.6162Z" fill="#F9F4F0"/>
<path opacity="0.4" d="M100.132 23.0116C106.134 23.0116 110.999 18.1306 110.999 12.1095C110.999 6.08852 106.134 1.20752 100.132 1.20752C94.1308 1.20752 89.2656 6.08852 89.2656 12.1095C89.2656 18.1306 94.1308 23.0116 100.132 23.0116Z" fill="url(#paint1_linear_516_8763)"/>
<path opacity="0.4" d="M110.07 21.1458C110.254 21.1458 110.434 21.2005 110.587 21.3032C110.74 21.4058 110.86 21.5517 110.93 21.7224C111.001 21.8931 111.019 22.0809 110.983 22.2621C110.947 22.4433 110.858 22.6098 110.728 22.7404C110.598 22.8711 110.432 22.96 110.251 22.9961C110.071 23.0321 109.884 23.0136 109.713 22.9429C109.543 22.8722 109.398 22.7525 109.296 22.5989C109.193 22.4453 109.139 22.2647 109.139 22.0799C109.139 21.8321 109.237 21.5945 109.411 21.4194C109.586 21.2442 109.823 21.1458 110.07 21.1458Z" fill="#F9F4F0"/>
<path opacity="0.4" d="M107.95 23.9417C107.919 24.064 107.854 24.1746 107.761 24.2593C107.668 24.3441 107.552 24.3993 107.427 24.4179C107.303 24.4366 107.176 24.4178 107.062 24.364C106.949 24.3103 106.853 24.2239 106.789 24.1158C106.724 24.0078 106.693 23.8829 106.699 23.7569C106.705 23.631 106.748 23.5097 106.823 23.4084C106.897 23.307 107 23.2302 107.119 23.1876C107.237 23.145 107.365 23.1385 107.487 23.169C107.651 23.2099 107.791 23.3143 107.878 23.4592C107.965 23.6041 107.991 23.7777 107.95 23.9417Z" fill="#F9F4F0"/>
<path opacity="0.4" d="M107.605 2.36943C107.371 2.36943 107.143 2.29995 106.949 2.16977C106.754 2.03959 106.603 1.85457 106.514 1.63809C106.424 1.42161 106.401 1.1834 106.447 0.953589C106.492 0.723777 106.605 0.512681 106.77 0.346996C106.935 0.18131 107.145 0.068477 107.374 0.0227645C107.603 -0.022948 107.841 0.000513306 108.057 0.0901816C108.272 0.17985 108.457 0.331698 108.587 0.526523C108.716 0.721349 108.786 0.950401 108.786 1.18472C108.786 1.49892 108.661 1.80026 108.44 2.02244C108.218 2.24461 107.918 2.36943 107.605 2.36943Z" fill="#F9F4F0"/>
<path d="M25.1865 9.84477L25.1865 97.4621C25.1865 100.497 27.6388 102.957 30.6637 102.957H92.7424C95.7674 102.957 98.2196 100.497 98.2196 97.4621V9.84477C98.2196 6.80999 95.7674 4.34981 92.7424 4.34981H30.6637C27.6388 4.34981 25.1865 6.80999 25.1865 9.84477Z" fill="#F6F2ED"/>
<path d="M26.0078 9.84456L26.0078 97.4618C26.0078 100.041 28.0922 102.133 30.6634 102.133H92.7421C95.3134 102.133 97.3977 100.041 97.3977 97.4618V9.84456C97.3977 7.26498 95.3134 5.17384 92.7421 5.17384H30.6634C28.0922 5.17384 26.0078 7.26498 26.0078 9.84456Z" stroke="#272421" stroke-width="1.5"/>
<path d="M32.4199 16.2769L32.4199 90.9206C32.4199 93.5002 34.5043 95.5913 37.0755 95.5913H86.8415C89.4127 95.5913 91.4971 93.5002 91.4971 90.9206V16.2769C91.4971 13.6973 89.4127 11.6062 86.8415 11.6062H37.0755C34.5043 11.6062 32.4199 13.6973 32.4199 16.2769Z" stroke="#272421" stroke-width="1.5" stroke-dasharray="1.5 2"/>
<path d="M59.2933 29.1299H44.6396C42.2196 29.1299 40.2578 31.098 40.2578 33.5259V36.68C40.2578 39.1078 42.2196 41.0759 44.6396 41.0759H59.2933C61.7133 41.0759 63.6751 39.1078 63.6751 36.68V33.5259C63.6751 31.098 61.7133 29.1299 59.2933 29.1299Z" fill="#F6F2ED"/>
<path d="M81.72 89.3579H42.1943C41.0321 89.3579 39.9176 88.8948 39.0959 88.0703C38.2741 87.2459 37.8125 86.1278 37.8125 84.9619V22.4577C37.8125 21.2919 38.2741 20.1737 39.0959 19.3493C39.9176 18.5249 41.0321 18.0618 42.1943 18.0618H81.72C82.8821 18.0618 83.9966 18.5249 84.8184 19.3493C85.6401 20.1737 86.1018 21.2919 86.1018 22.4577V84.9619C86.1018 86.1278 85.6401 87.2459 84.8184 88.0703C83.9966 88.8948 82.8821 89.3579 81.72 89.3579ZM66.0048 59.3378C65.4237 59.3378 64.8665 59.5694 64.4556 59.9816C64.0447 60.3938 63.8139 60.9528 63.8139 61.5358V64.6448C63.8139 65.2278 64.0447 65.7868 64.4556 66.199C64.8665 66.6112 65.4237 66.8428 66.0048 66.8428H80.1962C80.7773 66.8428 81.3345 66.6112 81.7454 66.199C82.1563 65.7868 82.3871 65.2278 82.3871 64.6448V61.5369C82.3871 60.9539 82.1563 60.3949 81.7454 59.9827C81.3345 59.5705 80.7773 59.3389 80.1962 59.3389L66.0048 59.3378ZM43.718 59.3378C43.137 59.3378 42.5797 59.5694 42.1688 59.9816C41.758 60.3938 41.5271 60.9528 41.5271 61.5358V64.6448C41.5271 65.2278 41.758 65.7868 42.1688 66.199C42.5797 66.6112 43.137 66.8428 43.718 66.8428H57.9095C58.4905 66.8428 59.0478 66.6112 59.4587 66.199C59.8695 65.7868 60.1004 65.2278 60.1004 64.6448V61.5369C60.1004 60.9539 59.8695 60.3949 59.4587 59.9827C59.0478 59.5705 58.4905 59.3389 57.9095 59.3389L43.718 59.3378ZM44.8135 29.3188C43.9419 29.3188 43.106 29.6661 42.4897 30.2844C41.8734 30.9027 41.5271 31.7413 41.5271 32.6157V52.2877C41.5271 52.7207 41.6121 53.1494 41.7773 53.5494C41.9425 53.9494 42.1845 54.3129 42.4897 54.6191C42.7948 54.9252 43.1571 55.1681 43.5558 55.3337C43.9546 55.4994 44.3819 55.5847 44.8135 55.5847H79.1008C79.9724 55.5847 80.8083 55.2374 81.4246 54.6191C82.0409 54.0007 82.3871 53.1621 82.3871 52.2877V32.6157C82.3871 31.7413 82.0409 30.9027 81.4246 30.2844C80.8083 29.6661 79.9724 29.3188 79.1008 29.3188H44.8135Z" fill="#272421"/>
<defs>
<linearGradient id="paint0_linear_516_8763" x1="-0.616692" y1="73.8385" x2="63.3608" y2="102.451" gradientUnits="userSpaceOnUse">
<stop stop-color="#A58969"/>
<stop offset="1" stop-color="#C7B664"/>
</linearGradient>
<linearGradient id="paint1_linear_516_8763" x1="88.9338" y1="2.23715" x2="123.357" y2="17.632" gradientUnits="userSpaceOnUse">
<stop stop-color="#A58969"/>
<stop offset="1" stop-color="#C7B664"/>
</linearGradient>
</defs>
</svg>
