<svg width="285" height="220" viewBox="0 0 285 220" fill="none" xmlns="http://www.w3.org/2000/svg">
<path d="M135.297 206.402C192.293 206.402 238.497 160.197 238.497 103.201C238.497 46.2046 192.293 0 135.297 0C78.3003 0 32.0957 46.2046 32.0957 103.201C32.0957 160.197 78.3003 206.402 135.297 206.402Z" fill="#C3B075" fill-opacity="0.1"/>
<path opacity="0.2" d="M266.422 108.055C267.617 108.055 268.785 107.7 269.778 107.036C270.772 106.372 271.546 105.429 272.004 104.325C272.461 103.221 272.581 102.006 272.348 100.834C272.114 99.6619 271.539 98.5853 270.694 97.7403C269.849 96.8954 268.773 96.3199 267.601 96.0868C266.428 95.8537 265.214 95.9733 264.11 96.4306C263.006 96.8879 262.062 97.6623 261.398 98.6559C260.734 99.6495 260.38 100.818 260.38 102.013C260.38 103.615 261.016 105.152 262.15 106.285C263.283 107.418 264.819 108.055 266.422 108.055Z" fill="url(#paint0_linear_861_39011)"/>
<path d="M56.36 206.402H54.4941V210.023H56.36V206.402Z" fill="url(#paint1_linear_861_39011)"/>
<path d="M56.36 216.379H54.4941V220H56.36V216.379Z" fill="url(#paint2_linear_861_39011)"/>
<path d="M62.2275 212.268H58.6064V214.133H62.2275V212.268Z" fill="url(#paint3_linear_861_39011)"/>
<path d="M52.25 212.268H48.6289V214.133H52.25V212.268Z" fill="url(#paint4_linear_861_39011)"/>
<path d="M3.69887 51.5794C5.7417 51.5794 7.39775 49.9233 7.39775 47.8805C7.39775 45.8377 5.7417 44.1816 3.69887 44.1816C1.65604 44.1816 0 45.8377 0 47.8805C0 49.9233 1.65604 51.5794 3.69887 51.5794Z" fill="url(#paint5_linear_861_39011)"/>
<path d="M16.8499 106.118C18.4703 106.118 19.7838 104.804 19.7838 103.184C19.7838 101.564 18.4703 100.25 16.8499 100.25C15.2296 100.25 13.916 101.564 13.916 103.184C13.916 104.804 15.2296 106.118 16.8499 106.118Z" fill="url(#paint6_linear_861_39011)"/>
<path d="M281.436 117.224C283.247 117.224 284.714 115.756 284.714 113.946C284.714 112.136 283.247 110.668 281.436 110.668C279.626 110.668 278.158 112.136 278.158 113.946C278.158 115.756 279.626 117.224 281.436 117.224Z" fill="url(#paint7_linear_861_39011)"/>
<path d="M230.877 23.0241C232.498 23.0241 233.811 21.7105 233.811 20.0902C233.811 18.4698 232.498 17.1562 230.877 17.1562C229.257 17.1562 227.943 18.4698 227.943 20.0902C227.943 21.7105 229.257 23.0241 230.877 23.0241Z" fill="url(#paint8_linear_861_39011)"/>
<path d="M159.395 139.432L154.743 149.684H154.737L152.786 153.985L149.952 160.232V160.238H156.263V160.232L158.128 156.104L158.559 155.162L161.041 149.687L165.705 139.434L184.343 120.926V114.668L159.395 139.432Z" fill="url(#paint9_linear_861_39011)"/>
<path d="M89.334 58.0938V160.499H98.616V66.7982H164.44V58.0938H89.334Z" fill="url(#paint10_linear_861_39011)"/>
<path d="M72.6533 42.9082V145.313H81.9353V51.6126H147.759V42.9082H72.6533Z" fill="url(#paint11_linear_861_39011)"/>
<path d="M185.047 121.633C185.14 121.54 185.214 121.43 185.264 121.309C185.315 121.188 185.341 121.058 185.341 120.926V66.802C185.341 66.538 185.236 66.2849 185.049 66.0982C184.862 65.9115 184.609 65.8066 184.345 65.8066H98.6116C98.3476 65.8066 98.0944 65.9115 97.9078 66.0982C97.7211 66.2849 97.6162 66.538 97.6162 66.802V179.823C97.6162 180.087 97.7211 180.341 97.9078 180.527C98.0944 180.714 98.3476 180.819 98.6116 180.819H184.345C184.609 180.819 184.862 180.714 185.049 180.527C185.235 180.34 185.34 180.087 185.341 179.823V143.689C185.341 143.492 185.282 143.3 185.173 143.136C185.064 142.973 184.909 142.845 184.728 142.77C184.546 142.694 184.346 142.674 184.154 142.712C183.961 142.75 183.783 142.844 183.644 142.982L176.524 150.048L158.255 158.343L166.535 140.012L185.047 121.633ZM164.797 139.026L155.354 159.93C155.272 160.115 155.247 160.32 155.284 160.519C155.32 160.718 155.417 160.901 155.56 161.043C155.703 161.186 155.886 161.282 156.085 161.318C156.284 161.354 156.489 161.329 156.673 161.246L177.511 151.79C177.619 151.74 177.717 151.67 177.8 151.585L183.351 146.075V178.823H99.607V67.7923H183.35V120.507L165.002 138.729C164.916 138.815 164.847 138.916 164.797 139.026Z" fill="#272421"/>
<path d="M167.756 49.7969H82.0296C81.7656 49.7969 81.5124 49.9017 81.3257 50.0884C81.139 50.2751 81.0342 50.5283 81.0342 50.7923V163.815C81.0342 164.079 81.139 164.332 81.3257 164.519C81.5124 164.705 81.7656 164.81 82.0296 164.81H98.613C98.7437 164.81 98.8732 164.784 98.994 164.734C99.1147 164.684 99.2245 164.611 99.3169 164.519C99.4093 164.426 99.4826 164.316 99.5326 164.196C99.5827 164.075 99.6084 163.945 99.6084 163.815V67.7946H167.756C168.02 67.7946 168.273 67.6897 168.46 67.503C168.646 67.3164 168.751 67.0632 168.751 66.7992V50.7923C168.751 50.5283 168.646 50.2751 168.46 50.0884C168.273 49.9017 168.02 49.7969 167.756 49.7969ZM166.761 65.8038H98.613C98.349 65.8038 98.0959 65.9087 97.9092 66.0954C97.7225 66.282 97.6177 66.5352 97.6177 66.7992V162.819H83.0249V51.7876H166.761V65.8038Z" fill="#272421"/>
<path d="M151.148 33.7969H65.4212C65.1572 33.7969 64.904 33.9017 64.7173 34.0884C64.5306 34.2751 64.4258 34.5283 64.4258 34.7923V147.814C64.4258 148.078 64.5306 148.331 64.7173 148.518C64.904 148.704 65.1572 148.809 65.4212 148.809H82.0046C82.2686 148.809 82.5218 148.704 82.7085 148.518C82.8952 148.331 83 148.078 83 147.814V51.7936H151.148C151.412 51.7936 151.665 51.6887 151.851 51.502C152.038 51.3153 152.143 51.0622 152.143 50.7982V34.7923C152.143 34.5283 152.038 34.2751 151.851 34.0884C151.665 33.9017 151.412 33.7969 151.148 33.7969ZM150.152 49.8028H82.0046C81.7407 49.8028 81.4875 49.9077 81.3008 50.0943C81.1141 50.281 81.0093 50.5342 81.0093 50.7982V146.818H66.4217V35.7876H150.157V49.8028H150.152Z" fill="#272421"/>
<path d="M146.756 150.226C147.948 150.003 149.014 149.343 149.745 148.376C150.476 147.408 150.819 146.203 150.708 144.995C150.596 143.787 150.038 142.665 149.143 141.847C148.247 141.03 147.079 140.576 145.866 140.575H143.832V133.26H140.936V140.574H139.101V133.26H136.196V140.574H130.311V143.703H132.485C132.665 143.674 132.849 143.687 133.023 143.743C133.197 143.798 133.356 143.893 133.486 144.021C133.616 144.148 133.715 144.305 133.774 144.477C133.833 144.65 133.85 144.834 133.825 145.015V157.741C133.85 157.922 133.833 158.106 133.774 158.279C133.715 158.452 133.617 158.609 133.486 158.738C133.356 158.866 133.198 158.962 133.024 159.018C132.85 159.075 132.665 159.09 132.485 159.062H130.311V162.192H136.196V169.017H139.101V162.146H140.938V169.017H143.834V162.146H146.692C148.273 162.155 149.793 161.535 150.917 160.424C152.041 159.312 152.677 157.799 152.686 156.219C152.694 154.638 152.075 153.118 150.963 151.994C149.851 150.87 148.339 150.234 146.758 150.225L146.756 150.226ZM139.101 143.9H142.306C143.067 143.9 143.796 144.202 144.334 144.739C144.872 145.277 145.174 146.007 145.174 146.767C145.174 147.527 144.872 148.257 144.334 148.795C143.796 149.332 143.067 149.634 142.306 149.634H139.101V143.9ZM145.811 157.91C145.522 158.199 145.178 158.428 144.8 158.584C144.422 158.74 144.017 158.82 143.608 158.819H139.102V152.597H143.608C144.223 152.597 144.825 152.78 145.337 153.122C145.848 153.464 146.247 153.95 146.483 154.519C146.719 155.087 146.781 155.713 146.661 156.317C146.541 156.92 146.245 157.475 145.811 157.911V157.91Z" fill="#272421"/>
<path d="M165.057 152.211C163.929 151.074 162.556 150.21 161.044 149.684L156.263 160.231L167.199 155.316C166.679 154.16 165.953 153.107 165.057 152.211Z" fill="url(#paint12_linear_861_39011)"/>
<path d="M206.835 121.358L195.44 109.909C195.253 109.723 195 109.619 194.736 109.619C194.473 109.619 194.22 109.723 194.033 109.909L165.004 138.726C164.911 138.818 164.837 138.927 164.786 139.048C164.736 139.169 164.71 139.299 164.71 139.429C164.71 139.694 164.814 139.947 165 140.135L176.394 151.583C176.581 151.769 176.834 151.874 177.098 151.874C177.362 151.874 177.615 151.769 177.801 151.583L206.831 122.763C206.924 122.671 206.997 122.561 207.047 122.44C207.097 122.319 207.123 122.19 207.123 122.059C207.123 121.928 207.097 121.799 207.047 121.678C206.997 121.557 206.924 121.447 206.831 121.355L206.835 121.358ZM177.104 149.474L167.114 139.439L194.73 112.021L204.721 122.056L177.104 149.474Z" fill="#272421"/>
<path d="M194.72 117.203L172.293 139.45L177.114 144.293L199.541 122.047L194.72 117.203Z" fill="url(#paint13_linear_861_39011)"/>
<path d="M211.464 108.634L208.187 105.337C206.923 104.072 205.209 103.36 203.421 103.355C201.632 103.351 199.915 104.056 198.646 105.316L194.037 109.906C193.851 110.092 193.746 110.346 193.746 110.61C193.746 110.874 193.851 111.127 194.037 111.314L205.433 122.763C205.62 122.949 205.873 123.055 206.137 123.055C206.4 123.055 206.652 122.951 206.839 122.766L211.447 118.176C212.715 116.913 213.43 115.199 213.434 113.409C213.438 111.62 212.731 109.902 211.469 108.634H211.464ZM210.036 116.765L206.13 120.656L196.139 110.62L200.044 106.729C200.939 105.84 202.15 105.343 203.411 105.346C204.672 105.349 205.88 105.852 206.77 106.744L210.047 110.041C210.936 110.935 211.434 112.145 211.432 113.405C211.43 114.665 210.928 115.874 210.036 116.765Z" fill="#272421"/>
<path d="M178.45 52.162L178.995 54.0759C179.602 53.9039 180.224 53.7595 180.839 53.6479L180.483 51.6889C179.804 51.8128 179.119 51.9715 178.45 52.162ZM174.571 53.6899L175.478 55.4625C176.039 55.1757 176.618 54.9146 177.203 54.6842L176.473 52.8317C175.829 53.0857 175.189 53.3724 174.571 53.6899ZM186.718 51.4728L186.502 53.4523C187.128 53.5199 187.758 53.6202 188.37 53.7482L188.78 51.8025C188.101 51.6581 187.408 51.5475 186.72 51.4728H186.718ZM182.552 51.4175L182.717 53.4021C183.255 53.357 183.802 53.3345 184.343 53.3345H184.611L184.638 51.3438H184.342C183.75 51.3438 183.145 51.3683 182.552 51.4175ZM200.617 62.0205L202.271 60.9125C201.886 60.3359 201.467 59.7737 201.027 59.2382L199.491 60.5018C199.887 60.9872 200.267 61.4982 200.617 62.0205ZM203.925 72.7249L205.915 72.7055C205.909 72.0091 205.868 71.3086 205.796 70.6236L203.816 70.8335C203.882 71.4551 203.92 72.092 203.925 72.7249ZM203.526 68.9615L205.472 68.5621C205.333 67.8822 205.158 67.2022 204.953 66.5396L203.051 67.1285C203.241 67.7286 203.399 68.3461 203.526 68.9626V68.9615ZM202.41 65.3487L204.246 64.5796C203.979 63.9416 203.677 63.3077 203.346 62.6964L201.594 63.6416C201.893 64.1976 202.167 64.7721 202.41 65.3497V65.3487ZM199.623 57.6918C199.134 57.2013 198.615 56.7282 198.081 56.2868L196.813 57.8229C197.298 58.2233 197.768 58.6534 198.213 59.0979L199.623 57.6918ZM200.821 83.4897L202.495 84.566C202.871 83.9823 203.22 83.375 203.537 82.7606L201.773 81.8523C201.484 82.4083 201.166 82.9603 200.826 83.4908L200.821 83.4897ZM202.549 80.1268L204.401 80.862C204.656 80.2179 204.883 79.5543 205.074 78.8866L203.161 78.3367C202.991 78.9419 202.786 79.5441 202.554 80.1268H202.549ZM198.478 86.4595L199.911 87.8368C200.39 87.3371 200.849 86.8128 201.281 86.2649L199.725 85.0268C199.336 85.5256 198.917 86.0058 198.482 86.4605L198.478 86.4595ZM203.598 76.4944L205.556 76.8549C205.681 76.1729 205.775 75.4776 205.835 74.7884L203.852 74.6174C203.798 75.2431 203.713 75.8749 203.598 76.4955V76.4944ZM190.797 52.3268L190.204 54.2264C190.803 54.4139 191.401 54.6361 191.979 54.8788L192.757 53.0457C192.115 52.7692 191.456 52.5316 190.795 52.3248L190.797 52.3268ZM192.327 90.7994L193.138 92.6161C193.771 92.3334 194.398 92.017 195 91.674L194.016 89.9433C193.468 90.2495 192.9 90.5414 192.326 90.7974L192.327 90.7994ZM188.743 91.9996L189.188 93.9402C189.864 93.7855 190.541 93.5951 191.198 93.3749L190.564 91.4876C189.965 91.6832 189.351 91.8573 188.738 91.9976L188.743 91.9996ZM194.639 53.9541L193.688 55.7042C194.237 56.0022 194.782 56.3339 195.306 56.6872L196.421 55.0385C195.839 54.6463 195.24 54.2817 194.633 53.952L194.639 53.9541ZM195.618 88.9285L196.765 90.5547C197.333 90.1553 197.891 89.7231 198.409 89.2726L197.111 87.7641C196.63 88.1707 196.128 88.5629 195.612 88.9264L195.618 88.9285Z" fill="url(#paint14_linear_861_39011)"/>
<path d="M62.9649 167.239L60.9854 167.02C60.9086 167.711 60.8656 168.412 60.8574 169.103L62.8482 169.128C62.8564 168.502 62.8963 167.867 62.9649 167.239ZM65.4329 182.686C65.8599 183.233 66.3197 183.764 66.7979 184.266L68.2378 182.893C67.8046 182.438 67.3878 181.957 67.0007 181.459L65.4329 182.686ZM64.9721 178.267L63.1964 179.167C63.5036 179.782 63.8548 180.396 64.2286 180.981L65.9101 179.914C65.5701 179.379 65.2557 178.825 64.9721 178.267ZM62.9147 171.019L60.9322 171.187C60.9905 171.878 61.0837 172.574 61.2076 173.255L63.1656 172.896C63.053 172.279 62.968 171.648 62.9147 171.019ZM63.7432 163.543L61.8446 162.947C61.6398 163.608 61.4596 164.287 61.3162 164.965L63.2619 165.374C63.393 164.756 63.5548 164.14 63.7432 163.543ZM70.0145 154.251L68.7508 152.715C68.2152 153.155 67.695 153.627 67.2045 154.116L68.6095 155.519C69.056 155.075 69.5311 154.646 70.0145 154.247V154.251ZM67.3366 156.924L65.8005 155.658C65.3581 156.194 64.9383 156.757 64.5522 157.331L66.203 158.443C66.5542 157.917 66.9352 157.406 67.3366 156.92V156.924ZM65.2199 160.062L63.4698 159.111C63.139 159.721 62.8349 160.352 62.5645 160.99L64.3976 161.767C64.6433 161.188 64.9229 160.611 65.2199 160.062ZM63.5916 174.743L61.6756 175.286C61.8651 175.955 62.0853 176.617 62.3402 177.263L64.1948 176.539C63.9716 175.954 63.7678 175.351 63.5916 174.743ZM90.8898 187.068L91.749 188.864C92.3757 188.564 92.9942 188.23 93.5851 187.872L92.5549 186.169C92.0234 186.493 91.4622 186.797 90.8939 187.068H90.8898ZM87.5974 188.297L87.3343 188.366L87.833 190.294L88.1238 190.217C88.6963 190.06 89.2687 189.879 89.8248 189.675L89.1448 187.804C88.644 187.985 88.1238 188.15 87.6026 188.293L87.5974 188.297ZM83.5965 188.959L83.7163 190.946C84.4055 190.904 85.1039 190.828 85.791 190.719L85.4838 188.752C84.8591 188.849 84.2252 188.918 83.6016 188.956L83.5965 188.959ZM95.5779 183.91C95.1171 184.331 94.6265 184.736 94.1196 185.116L95.3126 186.711C95.8718 186.292 96.4125 185.845 96.9214 185.379L95.5779 183.91ZM68.2972 185.71C68.8194 186.161 69.3714 186.595 69.9356 186.997L71.0877 185.373C70.5757 185.008 70.0708 184.614 69.5967 184.204L68.2972 185.71ZM72.206 150.393C71.5977 150.719 70.9955 151.081 70.418 151.468L71.5239 153.123C72.0503 152.771 72.5961 152.443 73.1481 152.146L72.206 150.393ZM71.6939 188.121C72.2981 188.467 72.9228 188.786 73.5516 189.07L74.3708 187.255C73.8014 186.998 73.2341 186.707 72.6842 186.392L71.6939 188.121ZM79.5433 190.792C80.2284 190.886 80.9288 190.945 81.6221 190.972L81.6958 188.982C81.0671 188.958 80.4322 188.904 79.8106 188.82L79.5433 190.792ZM75.4891 189.837C76.1445 190.06 76.8203 190.254 77.4931 190.414L77.9509 188.476C77.3365 188.332 76.722 188.155 76.1311 187.953L75.4891 189.837Z" fill="url(#paint15_linear_861_39011)"/>
<path d="M42.7515 115.502H40.7607V118.994H42.7515V115.502Z" fill="url(#paint16_linear_861_39011)"/>
<path d="M42.7515 125.123H40.7607V128.615H42.7515V125.123Z" fill="url(#paint17_linear_861_39011)"/>
<path d="M48.3143 121.064H44.8223V123.055H48.3143V121.064Z" fill="url(#paint18_linear_861_39011)"/>
<path d="M38.6912 121.064H35.1992V123.055H38.6912V121.064Z" fill="url(#paint19_linear_861_39011)"/>
<path d="M231.567 85.0566H229.576V88.5487H231.567V85.0566Z" fill="url(#paint20_linear_861_39011)"/>
<path d="M231.567 94.6777H229.576V98.1697H231.567V94.6777Z" fill="url(#paint21_linear_861_39011)"/>
<path d="M237.129 90.6191H233.637V92.6099H237.129V90.6191Z" fill="url(#paint22_linear_861_39011)"/>
<path d="M227.506 90.6191H224.014V92.6099H227.506V90.6191Z" fill="url(#paint23_linear_861_39011)"/>
<path d="M237.236 131.268C240.041 131.268 242.316 128.994 242.316 126.188C242.316 123.382 240.041 121.107 237.236 121.107C234.43 121.107 232.155 123.382 232.155 126.188C232.155 128.994 234.43 131.268 237.236 131.268Z" fill="url(#paint24_linear_861_39011)"/>
<path d="M224.015 157.852C225.26 157.852 226.27 156.842 226.27 155.597C226.27 154.351 225.26 153.342 224.015 153.342C222.769 153.342 221.76 154.351 221.76 155.597C221.76 156.842 222.769 157.852 224.015 157.852Z" fill="url(#paint25_linear_861_39011)"/>
<path d="M55.1238 86.644C56.8188 86.644 58.1929 85.2699 58.1929 83.5749C58.1929 81.8799 56.8188 80.5059 55.1238 80.5059C53.4288 80.5059 52.0547 81.8799 52.0547 83.5749C52.0547 85.2699 53.4288 86.644 55.1238 86.644Z" fill="url(#paint26_linear_861_39011)"/>
<path d="M185.047 121.633C185.14 121.54 185.214 121.43 185.264 121.309C185.315 121.188 185.341 121.058 185.341 120.926V66.802C185.341 66.538 185.236 66.2849 185.049 66.0982C184.862 65.9115 184.609 65.8066 184.345 65.8066H98.6116C98.3476 65.8066 98.0944 65.9115 97.9078 66.0982C97.7211 66.2849 97.6162 66.538 97.6162 66.802V179.823C97.6162 180.087 97.7211 180.341 97.9078 180.527C98.0944 180.714 98.3476 180.819 98.6116 180.819H184.345C184.609 180.819 184.862 180.714 185.049 180.527C185.235 180.34 185.34 180.087 185.341 179.823V143.689C185.341 143.492 185.282 143.3 185.173 143.136C185.064 142.973 184.909 142.845 184.728 142.77C184.546 142.694 184.346 142.674 184.154 142.712C183.961 142.75 183.783 142.844 183.644 142.982L176.524 150.048L158.255 158.343L166.535 140.012L185.047 121.633ZM164.797 139.026L155.354 159.93C155.272 160.115 155.247 160.32 155.284 160.519C155.32 160.718 155.417 160.901 155.56 161.043C155.703 161.186 155.886 161.282 156.085 161.318C156.284 161.354 156.489 161.329 156.673 161.246L177.511 151.79C177.619 151.74 177.717 151.67 177.8 151.585L183.351 146.075V178.823H99.607V67.7923H183.35V120.507L165.002 138.729C164.916 138.815 164.847 138.916 164.797 139.026Z" fill="#272421"/>
<path d="M137.598 78.8242H114.64C114.344 78.8242 114.061 78.9415 113.852 79.1503C113.644 79.359 113.526 79.6421 113.526 79.9374V86.8681C113.527 87.1632 113.644 87.4461 113.853 87.6546C114.061 87.8631 114.344 87.9803 114.64 87.9803H137.598C137.893 87.9803 138.176 87.863 138.385 87.6542C138.594 87.4455 138.711 87.1623 138.711 86.8671V79.9363C138.711 79.6413 138.593 79.3584 138.384 79.1499C138.176 78.9414 137.893 78.8242 137.598 78.8242ZM136.485 85.754H115.753V81.0495H136.486L136.485 85.754Z" fill="url(#paint27_linear_861_39011)"/>
<path d="M137.598 91.3516H114.64C114.344 91.3516 114.061 91.4688 113.852 91.6776C113.644 91.8863 113.526 92.1695 113.526 92.4647V99.3945C113.527 99.6895 113.644 99.9724 113.853 100.181C114.061 100.389 114.344 100.507 114.64 100.507H137.598C137.893 100.507 138.176 100.389 138.385 100.181C138.594 99.9718 138.711 99.6887 138.711 99.3934V92.4637C138.711 92.1686 138.593 91.8858 138.384 91.6772C138.176 91.4687 137.893 91.3516 137.598 91.3516ZM136.485 98.2813H115.753V93.5768H136.486L136.485 98.2813Z" fill="url(#paint28_linear_861_39011)"/>
<path d="M137.598 103.652H114.64C114.344 103.652 114.061 103.77 113.852 103.978C113.644 104.187 113.526 104.47 113.526 104.765V111.695C113.527 111.99 113.644 112.273 113.853 112.482C114.061 112.69 114.344 112.807 114.64 112.807H137.598C137.893 112.807 138.176 112.69 138.385 112.481C138.594 112.273 138.711 111.989 138.711 111.694V104.764C138.711 104.469 138.593 104.187 138.384 103.978C138.176 103.769 137.893 103.652 137.598 103.652ZM136.485 110.582H115.753V105.878H136.486L136.485 110.582Z" fill="url(#paint29_linear_861_39011)"/>
<path d="M137.598 116.176H114.64C114.344 116.176 114.061 116.293 113.852 116.502C113.644 116.711 113.526 116.994 113.526 117.289V124.22C113.527 124.515 113.644 124.798 113.853 125.006C114.061 125.215 114.344 125.332 114.64 125.332H137.598C137.893 125.332 138.176 125.215 138.385 125.006C138.594 124.797 138.711 124.514 138.711 124.219V117.288C138.711 116.993 138.593 116.71 138.384 116.501C138.176 116.293 137.893 116.176 137.598 116.176ZM136.485 123.106H115.753V118.401H136.486L136.485 123.106Z" fill="url(#paint30_linear_861_39011)"/>
<path d="M168.318 78.8242H145.36C145.065 78.8242 144.782 78.9415 144.573 79.1503C144.364 79.359 144.247 79.6421 144.247 79.9374V86.8681C144.247 87.1632 144.365 87.4461 144.573 87.6546C144.782 87.8631 145.065 87.9803 145.36 87.9803H168.318C168.614 87.9803 168.897 87.863 169.106 87.6542C169.314 87.4455 169.432 87.1623 169.432 86.8671V79.9363C169.431 79.6413 169.314 79.3584 169.105 79.1499C168.896 78.9414 168.613 78.8242 168.318 78.8242ZM167.205 85.754H146.473V81.0495H167.206L167.205 85.754Z" fill="url(#paint31_linear_861_39011)"/>
<path d="M168.318 91.3516H145.36C145.065 91.3516 144.782 91.4688 144.573 91.6776C144.364 91.8863 144.247 92.1695 144.247 92.4647V99.3945C144.247 99.6895 144.365 99.9724 144.573 100.181C144.782 100.389 145.065 100.507 145.36 100.507H168.318C168.614 100.507 168.897 100.389 169.106 100.181C169.314 99.9718 169.432 99.6887 169.432 99.3934V92.4637C169.431 92.1686 169.314 91.8858 169.105 91.6772C168.896 91.4687 168.613 91.3516 168.318 91.3516ZM167.205 98.2813H146.473V93.5768H167.206L167.205 98.2813Z" fill="url(#paint32_linear_861_39011)"/>
<path d="M168.318 103.652H145.36C145.065 103.652 144.782 103.77 144.573 103.978C144.364 104.187 144.247 104.47 144.247 104.765V111.695C144.247 111.99 144.365 112.273 144.573 112.482C144.782 112.69 145.065 112.807 145.36 112.807H168.318C168.614 112.807 168.897 112.69 169.106 112.481C169.314 112.273 169.432 111.989 169.432 111.694V104.764C169.431 104.469 169.314 104.187 169.105 103.978C168.896 103.769 168.613 103.652 168.318 103.652ZM167.205 110.582H146.473V105.878H167.206L167.205 110.582Z" fill="url(#paint33_linear_861_39011)"/>
<path d="M168.317 116.176H145.359C145.064 116.176 144.781 116.293 144.572 116.502C144.363 116.711 144.246 116.994 144.246 117.289V124.22C144.246 124.515 144.364 124.798 144.572 125.006C144.781 125.215 145.064 125.332 145.359 125.332H168.317C168.613 125.332 168.896 125.215 169.105 125.006C169.313 124.797 169.431 124.514 169.431 124.219V117.288C169.43 116.993 169.313 116.71 169.104 116.501C168.895 116.293 168.612 116.176 168.317 116.176ZM167.204 123.106H146.472V118.401H167.205L167.204 123.106Z" fill="url(#paint34_linear_861_39011)"/>
<defs>
<linearGradient id="paint0_linear_861_39011" x1="260.195" y1="96.5413" x2="279.314" y2="105.119" gradientUnits="userSpaceOnUse">
<stop stop-color="#846E55"/>
<stop offset="1" stop-color="#B3A55C"/>
</linearGradient>
<linearGradient id="paint1_linear_861_39011" x1="54.4657" y1="206.573" x2="57.832" y2="207.352" gradientUnits="userSpaceOnUse">
<stop stop-color="#846E55"/>
<stop offset="1" stop-color="#B3A55C"/>
</linearGradient>
<linearGradient id="paint2_linear_861_39011" x1="54.4657" y1="216.55" x2="57.832" y2="217.328" gradientUnits="userSpaceOnUse">
<stop stop-color="#846E55"/>
<stop offset="1" stop-color="#B3A55C"/>
</linearGradient>
<linearGradient id="paint3_linear_861_39011" x1="58.5512" y1="212.356" x2="62.4656" y2="215.764" gradientUnits="userSpaceOnUse">
<stop stop-color="#846E55"/>
<stop offset="1" stop-color="#B3A55C"/>
</linearGradient>
<linearGradient id="paint4_linear_861_39011" x1="48.5736" y1="212.356" x2="52.488" y2="215.764" gradientUnits="userSpaceOnUse">
<stop stop-color="#846E55"/>
<stop offset="1" stop-color="#B3A55C"/>
</linearGradient>
<linearGradient id="paint5_linear_861_39011" x1="-0.112943" y1="44.531" x2="11.5914" y2="49.7824" gradientUnits="userSpaceOnUse">
<stop stop-color="#846E55"/>
<stop offset="1" stop-color="#B3A55C"/>
</linearGradient>
<linearGradient id="paint6_linear_861_39011" x1="13.8264" y1="100.527" x2="23.1102" y2="104.692" gradientUnits="userSpaceOnUse">
<stop stop-color="#846E55"/>
<stop offset="1" stop-color="#B3A55C"/>
</linearGradient>
<linearGradient id="paint7_linear_861_39011" x1="278.058" y1="110.978" x2="288.431" y2="115.631" gradientUnits="userSpaceOnUse">
<stop stop-color="#846E55"/>
<stop offset="1" stop-color="#B3A55C"/>
</linearGradient>
<linearGradient id="paint8_linear_861_39011" x1="227.854" y1="17.4333" x2="237.138" y2="21.5987" gradientUnits="userSpaceOnUse">
<stop stop-color="#846E55"/>
<stop offset="1" stop-color="#B3A55C"/>
</linearGradient>
<linearGradient id="paint9_linear_861_39011" x1="149.427" y1="116.82" x2="208.068" y2="136.676" gradientUnits="userSpaceOnUse">
<stop stop-color="#846E55"/>
<stop offset="1" stop-color="#B3A55C"/>
</linearGradient>
<linearGradient id="paint10_linear_861_39011" x1="88.1873" y1="62.9295" x2="216.99" y2="105.314" gradientUnits="userSpaceOnUse">
<stop stop-color="#846E55"/>
<stop offset="1" stop-color="#B3A55C"/>
</linearGradient>
<linearGradient id="paint11_linear_861_39011" x1="71.5067" y1="47.744" x2="200.309" y2="90.1289" gradientUnits="userSpaceOnUse">
<stop stop-color="#846E55"/>
<stop offset="1" stop-color="#B3A55C"/>
</linearGradient>
<linearGradient id="paint12_linear_861_39011" x1="156.096" y1="150.182" x2="173.183" y2="158.131" gradientUnits="userSpaceOnUse">
<stop stop-color="#846E55"/>
<stop offset="1" stop-color="#B3A55C"/>
</linearGradient>
<linearGradient id="paint13_linear_861_39011" x1="171.877" y1="118.482" x2="214.903" y2="137.9" gradientUnits="userSpaceOnUse">
<stop stop-color="#846E55"/>
<stop offset="1" stop-color="#B3A55C"/>
</linearGradient>
<linearGradient id="paint14_linear_861_39011" x1="174.093" y1="53.3552" x2="227.812" y2="71.0907" gradientUnits="userSpaceOnUse">
<stop stop-color="#846E55"/>
<stop offset="1" stop-color="#B3A55C"/>
</linearGradient>
<linearGradient id="paint15_linear_861_39011" x1="60.3068" y1="152.309" x2="119.448" y2="175.892" gradientUnits="userSpaceOnUse">
<stop stop-color="#846E55"/>
<stop offset="1" stop-color="#B3A55C"/>
</linearGradient>
<linearGradient id="paint16_linear_861_39011" x1="40.7303" y1="115.667" x2="44.2817" y2="116.575" gradientUnits="userSpaceOnUse">
<stop stop-color="#846E55"/>
<stop offset="1" stop-color="#B3A55C"/>
</linearGradient>
<linearGradient id="paint17_linear_861_39011" x1="40.7303" y1="125.288" x2="44.2817" y2="126.196" gradientUnits="userSpaceOnUse">
<stop stop-color="#846E55"/>
<stop offset="1" stop-color="#B3A55C"/>
</linearGradient>
<linearGradient id="paint18_linear_861_39011" x1="44.769" y1="121.158" x2="48.8674" y2="124.384" gradientUnits="userSpaceOnUse">
<stop stop-color="#846E55"/>
<stop offset="1" stop-color="#B3A55C"/>
</linearGradient>
<linearGradient id="paint19_linear_861_39011" x1="35.1459" y1="121.158" x2="39.2444" y2="124.384" gradientUnits="userSpaceOnUse">
<stop stop-color="#846E55"/>
<stop offset="1" stop-color="#B3A55C"/>
</linearGradient>
<linearGradient id="paint20_linear_861_39011" x1="229.546" y1="85.2215" x2="233.097" y2="86.1299" gradientUnits="userSpaceOnUse">
<stop stop-color="#846E55"/>
<stop offset="1" stop-color="#B3A55C"/>
</linearGradient>
<linearGradient id="paint21_linear_861_39011" x1="229.546" y1="94.8426" x2="233.097" y2="95.751" gradientUnits="userSpaceOnUse">
<stop stop-color="#846E55"/>
<stop offset="1" stop-color="#B3A55C"/>
</linearGradient>
<linearGradient id="paint22_linear_861_39011" x1="233.583" y1="90.7131" x2="237.682" y2="93.9388" gradientUnits="userSpaceOnUse">
<stop stop-color="#846E55"/>
<stop offset="1" stop-color="#B3A55C"/>
</linearGradient>
<linearGradient id="paint23_linear_861_39011" x1="223.96" y1="90.7131" x2="228.059" y2="93.9388" gradientUnits="userSpaceOnUse">
<stop stop-color="#846E55"/>
<stop offset="1" stop-color="#B3A55C"/>
</linearGradient>
<linearGradient id="paint24_linear_861_39011" x1="232" y1="121.587" x2="248.076" y2="128.8" gradientUnits="userSpaceOnUse">
<stop stop-color="#846E55"/>
<stop offset="1" stop-color="#B3A55C"/>
</linearGradient>
<linearGradient id="paint25_linear_861_39011" x1="221.691" y1="153.555" x2="228.826" y2="156.756" gradientUnits="userSpaceOnUse">
<stop stop-color="#846E55"/>
<stop offset="1" stop-color="#B3A55C"/>
</linearGradient>
<linearGradient id="paint26_linear_861_39011" x1="51.961" y1="80.7957" x2="61.6725" y2="85.153" gradientUnits="userSpaceOnUse">
<stop stop-color="#846E55"/>
<stop offset="1" stop-color="#B3A55C"/>
</linearGradient>
<linearGradient id="paint27_linear_861_39011" x1="113.142" y1="79.2566" x2="132.114" y2="102.67" gradientUnits="userSpaceOnUse">
<stop stop-color="#846E55"/>
<stop offset="1" stop-color="#B3A55C"/>
</linearGradient>
<linearGradient id="paint28_linear_861_39011" x1="113.142" y1="91.7839" x2="132.111" y2="115.197" gradientUnits="userSpaceOnUse">
<stop stop-color="#846E55"/>
<stop offset="1" stop-color="#B3A55C"/>
</linearGradient>
<linearGradient id="paint29_linear_861_39011" x1="113.142" y1="104.085" x2="132.111" y2="127.498" gradientUnits="userSpaceOnUse">
<stop stop-color="#846E55"/>
<stop offset="1" stop-color="#B3A55C"/>
</linearGradient>
<linearGradient id="paint30_linear_861_39011" x1="113.142" y1="116.608" x2="132.114" y2="140.022" gradientUnits="userSpaceOnUse">
<stop stop-color="#846E55"/>
<stop offset="1" stop-color="#B3A55C"/>
</linearGradient>
<linearGradient id="paint31_linear_861_39011" x1="143.863" y1="79.2566" x2="162.834" y2="102.67" gradientUnits="userSpaceOnUse">
<stop stop-color="#846E55"/>
<stop offset="1" stop-color="#B3A55C"/>
</linearGradient>
<linearGradient id="paint32_linear_861_39011" x1="143.863" y1="91.7839" x2="162.832" y2="115.197" gradientUnits="userSpaceOnUse">
<stop stop-color="#846E55"/>
<stop offset="1" stop-color="#B3A55C"/>
</linearGradient>
<linearGradient id="paint33_linear_861_39011" x1="143.863" y1="104.085" x2="162.832" y2="127.498" gradientUnits="userSpaceOnUse">
<stop stop-color="#846E55"/>
<stop offset="1" stop-color="#B3A55C"/>
</linearGradient>
<linearGradient id="paint34_linear_861_39011" x1="143.862" y1="116.608" x2="162.833" y2="140.022" gradientUnits="userSpaceOnUse">
<stop stop-color="#846E55"/>
<stop offset="1" stop-color="#B3A55C"/>
</linearGradient>
</defs>
</svg>
