<svg width="34" height="35" viewBox="0 0 34 35" fill="none" xmlns="http://www.w3.org/2000/svg">
<g clip-path="url(#clip0_591_5665)">
<path d="M16.908 0.880859C13.5639 0.880859 10.2949 1.87249 7.51442 3.73036C4.73391 5.58824 2.56678 8.22892 1.28705 11.3185C0.00732303 14.408 -0.327508 17.8076 0.324891 21.0874C0.97729 24.3673 2.58761 27.38 4.95224 29.7446C7.31687 32.1092 10.3296 33.7196 13.6094 34.372C16.8893 35.0244 20.2889 34.6895 23.3784 33.4098C26.468 32.1301 29.1086 29.9629 30.9665 27.1824C32.8244 24.4019 33.816 21.1329 33.816 17.7888C33.8107 13.3062 32.0276 9.00866 28.8579 5.83894C25.6882 2.66922 21.3907 0.886152 16.908 0.880859Z" fill="url(#paint0_linear_591_5665)"/>
<mask id="mask0_591_5665" style="mask-type:luminance" maskUnits="userSpaceOnUse" x="9" y="9" width="15" height="18">
<path d="M24 9H9V27H24V9Z" fill="white"/>
</mask>
<g mask="url(#mask0_591_5665)">
<path d="M9.01053 24.3014H10.7232C10.8456 24.307 10.9682 24.3011 11.0894 24.2837C11.317 24.2453 11.5196 24.1222 11.6533 23.9411C11.787 23.76 11.8409 23.5356 11.8034 23.3166C11.8028 23.1068 11.7167 22.9056 11.5635 22.756C11.4103 22.6065 11.2023 22.5205 10.984 22.5166C10.407 22.4988 9.82732 22.5166 9.25029 22.5166H9.01317V13.5064C9.07904 13.5064 9.14755 13.5064 9.21342 13.5064C9.76673 13.5064 10.32 13.5064 10.8707 13.5064C11.0016 13.516 11.1332 13.4973 11.2555 13.4516C11.3779 13.4058 11.488 13.3343 11.5778 13.2422C11.6676 13.1501 11.7347 13.0398 11.7742 12.9195C11.8137 12.7992 11.8246 12.6719 11.8061 12.547C11.8075 12.437 11.7859 12.3279 11.7424 12.2262C11.699 12.1244 11.6346 12.0321 11.5532 11.9549C11.4718 11.8776 11.375 11.8169 11.2686 11.7764C11.1622 11.7358 11.0484 11.7164 10.9339 11.7191C10.3675 11.7191 9.80361 11.7191 9.23712 11.7191H9.01053C9.01053 11.6432 9.01053 11.5849 9.01053 11.5242C9.01053 11.0178 9.01053 10.5115 9.01053 10.0052C8.99655 9.87187 9.01359 9.73723 9.06042 9.61103C9.10725 9.48483 9.1827 9.37019 9.2813 9.27545C9.3799 9.1807 9.4992 9.10822 9.63054 9.06323C9.76189 9.01823 9.902 9.00186 10.0407 9.0153H22.9882C23.1253 9.00323 23.2634 9.0203 23.3928 9.06527C23.5222 9.11024 23.6398 9.18201 23.7371 9.27551C23.8344 9.36901 23.9091 9.48195 23.9559 9.6063C24.0027 9.73065 24.0205 9.86336 24.0079 9.99504V26.0406C24.0079 26.6963 23.6654 27.0153 22.983 27.0153H10.0249C9.33988 27.0153 9.00527 26.6963 9 26.0432C9 25.5368 9 25.0305 9 24.5065C9 24.4356 9.00526 24.3824 9.01053 24.3014ZM16.8333 17.9925C17.8266 17.7393 18.4484 16.952 18.3641 16.0761C18.3408 15.8038 18.2534 15.5402 18.1084 15.3052C17.9635 15.0702 17.7649 14.8699 17.5276 14.7195C17.2903 14.569 17.0205 14.4724 16.7386 14.4369C16.4567 14.4013 16.1701 14.4278 15.9004 14.5143C15.6307 14.6008 15.3851 14.7451 15.1819 14.9362C14.9788 15.1273 14.8235 15.3603 14.7279 15.6175C14.6322 15.8748 14.5987 16.1495 14.6297 16.4211C14.6608 16.6926 14.7557 16.9538 14.9072 17.1849C15.0368 17.3926 15.2102 17.572 15.4162 17.7115C15.6222 17.8511 15.8563 17.9476 16.1035 17.995C15.1863 18.0986 14.3401 18.5202 13.7235 19.1807C13.1069 19.8412 12.7624 20.6952 12.7546 21.5824H20.2348C20.2297 20.6859 19.8792 19.8231 19.2511 19.1602C18.623 18.4973 17.7617 18.0813 16.8333 17.9925Z" fill="#F6F2ED"/>
</g>
</g>
<defs>
<linearGradient id="paint0_linear_591_5665" x1="-0.516275" y1="2.47773" x2="52.9857" y2="26.4828" gradientUnits="userSpaceOnUse">
<stop stop-color="#A58969"/>
<stop offset="1" stop-color="#C7B664"/>
</linearGradient>
<clipPath id="clip0_591_5665">
<rect width="34" height="35" fill="white"/>
</clipPath>
</defs>
</svg>
