<svg width="42" height="42" viewBox="0 0 42 42" fill="none" xmlns="http://www.w3.org/2000/svg">
<path d="M21 41C32.0457 41 41 32.0457 41 21C41 9.95431 32.0457 1 21 1C9.95431 1 1 9.95431 1 21C1 32.0457 9.95431 41 21 41Z" fill="#F6F2ED"/>
<path d="M20.9998 40.5285C31.7852 40.5285 40.5285 31.7852 40.5285 20.9998C40.5285 10.2145 31.7852 1.47119 20.9998 1.47119C10.2145 1.47119 1.47119 10.2145 1.47119 20.9998C1.47119 31.7852 10.2145 40.5285 20.9998 40.5285Z" stroke="#2F4F4F"/>
<path d="M39.5171 21.1999C39.521 23.6517 39.0369 26.0799 38.0929 28.3427C37.149 30.6056 35.7642 32.658 34.0191 34.3803C32.3155 36.077 30.2933 37.4202 28.0687 38.3325C25.8441 39.2449 23.461 39.7083 21.0566 39.6962C17.3969 39.7033 13.8173 38.6245 10.7709 36.5965C7.72443 34.5684 5.34812 31.6822 3.94268 28.303C2.53724 24.9239 2.16583 21.2037 2.87547 17.6134C3.5851 14.0231 5.34387 10.7241 7.9292 8.13379C10.5145 5.54344 13.8102 3.77827 17.3991 3.06167C20.988 2.34508 24.7089 2.7092 28.0907 4.10809C31.4726 5.50697 34.3634 7.87772 36.3974 10.9202C38.4314 13.9627 39.5171 17.5401 39.5171 21.1999Z" fill="#2F4F4F"/>
<path d="M21.0669 38.1401C30.4673 38.1401 38.0878 30.5195 38.0878 21.1191C38.0878 11.7187 30.4673 4.09814 21.0669 4.09814C11.6664 4.09814 4.0459 11.7187 4.0459 21.1191C4.0459 30.5195 11.6664 38.1401 21.0669 38.1401Z" fill="#F6F2ED"/>
<path d="M21.0667 37.6686C30.2068 37.6686 37.6163 30.259 37.6163 21.1189C37.6163 11.9788 30.2068 4.56934 21.0667 4.56934C11.9266 4.56934 4.51709 11.9788 4.51709 21.1189C4.51709 30.259 11.9266 37.6686 21.0667 37.6686Z" stroke="#2F4F4F"/>
<path d="M21.1024 6.98067C13.3239 6.98067 7.01807 13.2865 7.01807 21.065C7.01807 28.8436 13.3239 35.1494 21.1024 35.1494C28.881 35.1494 35.1868 28.8436 35.1868 21.065C35.1868 13.2865 28.881 6.98067 21.1024 6.98067Z" stroke="#2F4F4F" stroke-dasharray="1 1.5"/>
<path fill-rule="evenodd" clip-rule="evenodd" d="M19.866 12.4098C19.9307 12.2855 20.0284 12.1816 20.1484 12.1093C20.2683 12.037 20.4059 11.9992 20.546 12C22.5004 12.0003 24.395 12.6735 25.9114 13.9065C27.4278 15.1395 28.4733 16.857 28.8723 18.7702C29.2712 20.6834 28.9993 22.6756 28.1021 24.4119C27.2049 26.1482 25.7372 27.5225 23.9458 28.3039L23.3195 26.8805C24.6616 26.293 25.7845 25.2978 26.5289 24.036C27.2732 22.7743 27.6013 21.3101 27.4664 19.8513C27.3315 18.3926 26.7406 17.0134 25.7774 15.9095C24.8143 14.8056 23.528 14.0331 22.101 13.7017L22.7272 14.6376L21.4353 15.4884L19.8893 13.1721C19.8097 13.0559 19.764 12.92 19.7572 12.7794C19.7504 12.6388 19.7828 12.499 19.8508 12.3758L19.866 12.4098ZM17.7617 14.1267C16.4192 14.711 15.2951 15.7037 14.5494 16.9636C13.8036 18.2236 13.4741 19.6866 13.6078 21.1447C13.7415 22.6027 14.3315 23.9814 15.294 25.0847C16.2564 26.1881 17.5423 26.9598 18.9687 27.2902L18.3343 26.3472L19.6182 25.4883L21.1651 27.8083C21.242 27.9244 21.2856 28.0593 21.2911 28.1985C21.2966 28.3376 21.2639 28.4756 21.1964 28.5974C21.1277 28.7195 21.0278 28.8211 20.9069 28.8918C20.786 28.9626 20.6485 28.9999 20.5084 29C18.554 28.9987 16.6595 28.3251 15.143 27.0922C13.6265 25.8592 12.5804 24.1421 12.1803 22.229C11.7802 20.316 12.0505 18.3235 12.9458 16.5862C13.8411 14.8488 15.3068 13.4724 17.097 12.688L17.7161 14.1034L17.7617 14.1267Z" fill="#2F4F4F"/>
<path d="M20.5265 24.0769C22.503 24.0769 24.1053 22.4747 24.1053 20.4982C24.1053 18.5217 22.503 16.9194 20.5265 16.9194C18.55 16.9194 16.9478 18.5217 16.9478 20.4982C16.9478 22.4747 18.55 24.0769 20.5265 24.0769Z" fill="#2F4F4F"/>
</svg>
