<svg width="185" height="145" viewBox="0 0 185 145" fill="none" xmlns="http://www.w3.org/2000/svg">
<g opacity="0.272">
<path d="M41.7527 133.977C60.0421 133.977 74.8686 119.151 74.8686 100.863C74.8686 82.5748 60.0421 67.7491 41.7527 67.7491C23.4632 67.7491 8.63672 82.5748 8.63672 100.863C8.63672 119.151 23.4632 133.977 41.7527 133.977Z" fill="url(#paint0_linear_621_7226)"/>
<path d="M50.8257 143.215C51.2616 143.568 51.7924 143.784 52.351 143.835C52.9096 143.887 53.4709 143.771 53.9639 143.504C54.4569 143.236 54.8594 142.828 55.1207 142.332C55.382 141.836 55.4902 141.273 55.4317 140.715C55.3732 140.157 55.1505 139.629 54.792 139.198C54.4334 138.767 53.955 138.451 53.4172 138.292C52.8794 138.132 52.3064 138.136 51.7706 138.302C51.2349 138.468 50.7604 138.789 50.4072 139.225C49.9337 139.81 49.7118 140.559 49.7903 141.307C49.8687 142.055 50.2412 142.741 50.8257 143.215Z" fill="url(#paint1_linear_621_7226)"/>
<path d="M61.0221 137.225C61.3199 137.466 61.6826 137.614 62.0642 137.649C62.4458 137.684 62.8293 137.605 63.1661 137.422C63.5029 137.239 63.7779 136.961 63.9563 136.622C64.1347 136.283 64.2086 135.898 64.1685 135.517C64.1285 135.136 63.9763 134.775 63.7312 134.481C63.4862 134.186 63.1593 133.971 62.7918 133.862C62.4244 133.753 62.0329 133.756 61.6669 133.869C61.3009 133.983 60.9769 134.202 60.7357 134.5C60.4123 134.9 60.2608 135.411 60.3145 135.922C60.3682 136.433 60.6228 136.902 61.0221 137.225Z" fill="url(#paint2_linear_621_7226)"/>
<path d="M3.59774 91.6618C4.3093 91.6618 5.00489 91.4509 5.59653 91.0556C6.18818 90.6602 6.64931 90.0984 6.92161 89.441C7.19392 88.7837 7.26517 88.0603 7.12635 87.3625C6.98753 86.6646 6.64488 86.0236 6.14172 85.5205C5.63857 85.0174 4.99751 84.6747 4.29962 84.5359C3.60173 84.3971 2.87834 84.4684 2.22094 84.7406C1.56354 85.0129 1.00165 85.474 0.606328 86.0656C0.211003 86.6573 0 87.3528 0 88.0643C0 89.0184 0.379046 89.9335 1.05375 90.6082C1.72846 91.2828 2.64356 91.6618 3.59774 91.6618Z" fill="url(#paint3_linear_621_7226)"/>
</g>
<g opacity="0.272">
<path d="M170.2 33.9501C175.608 29.8761 176.689 22.1899 172.614 16.7825C168.54 11.3752 160.853 10.2943 155.446 14.3684C150.038 18.4424 148.957 26.1286 153.032 31.536C157.106 36.9434 164.793 38.0242 170.2 33.9501Z" fill="url(#paint4_linear_621_7226)"/>
<path d="M169.574 38.7015C169.524 38.903 169.415 39.0851 169.261 39.2247C169.107 39.3643 168.916 39.4552 168.71 39.4859C168.505 39.5166 168.295 39.4857 168.107 39.3971C167.919 39.3085 167.762 39.1662 167.655 38.9882C167.548 38.8101 167.496 38.6044 167.506 38.397C167.516 38.1895 167.588 37.9897 167.711 37.8228C167.835 37.6559 168.005 37.5293 168.2 37.4592C168.396 37.389 168.608 37.3784 168.809 37.4286C169.079 37.496 169.312 37.668 169.455 37.9067C169.599 38.1454 169.641 38.4313 169.574 38.7015Z" fill="url(#paint5_linear_621_7226)"/>
<path d="M165.227 39.1998C165.193 39.3373 165.119 39.4615 165.014 39.5567C164.909 39.652 164.778 39.714 164.638 39.7349C164.498 39.7558 164.355 39.7347 164.226 39.6743C164.098 39.6139 163.991 39.5168 163.918 39.3954C163.845 39.2739 163.81 39.1336 163.817 38.9921C163.823 38.8506 163.872 38.7143 163.956 38.6004C164.041 38.4866 164.157 38.4002 164.29 38.3524C164.423 38.3045 164.568 38.2973 164.705 38.3316C164.89 38.3778 165.048 38.4952 165.146 38.6579C165.243 38.8207 165.273 39.0155 165.227 39.1998Z" fill="url(#paint6_linear_621_7226)"/>
<path d="M172.052 12.9392C171.842 13.0976 171.589 13.1902 171.327 13.2051C171.064 13.22 170.802 13.1566 170.575 13.0229C170.349 12.8893 170.166 12.6914 170.052 12.4542C169.938 12.217 169.896 11.9513 169.933 11.6906C169.969 11.4298 170.083 11.1858 170.258 10.9894C170.433 10.793 170.663 10.653 170.918 10.5871C171.173 10.5212 171.442 10.5323 171.69 10.6191C171.939 10.706 172.156 10.8646 172.314 11.0748C172.527 11.3568 172.619 11.7117 172.57 12.0613C172.52 12.4109 172.334 12.7267 172.052 12.9392Z" fill="url(#paint7_linear_621_7226)"/>
</g>
<path d="M100.995 129.143C136.66 129.143 165.571 100.234 165.571 64.5716C165.571 28.9097 136.66 0 100.995 0C65.3314 0 36.4199 28.9097 36.4199 64.5716C36.4199 100.234 65.3314 129.143 100.995 129.143Z" fill="#F6F2ED"/>
<path d="M100.995 127.893C135.969 127.893 164.321 99.5432 164.321 64.5716C164.321 29.6001 135.969 1.25 100.995 1.25C66.0217 1.25 37.6699 29.6001 37.6699 64.5716C37.6699 99.5432 66.0217 127.893 100.995 127.893Z" stroke="#272421" stroke-width="2"/>
<path d="M160.782 65.2079C160.794 73.124 159.231 80.9633 156.184 88.2694C153.136 95.5754 148.665 102.202 143.031 107.763C137.53 113.241 131.001 117.577 123.818 120.523C116.635 123.468 108.941 124.965 101.178 124.926C89.3611 124.949 77.8027 121.466 67.9659 114.918C58.1291 108.37 50.456 99.0516 45.9177 88.1413C41.3794 77.2311 40.18 65.2199 42.4713 53.6277C44.7625 42.0356 50.4414 31.3837 58.7892 23.0201C67.137 14.6565 77.7784 8.95718 89.3668 6.64351C100.955 4.32983 112.969 5.50587 123.889 10.0226C134.809 14.5393 144.143 22.1937 150.711 32.0172C157.278 41.8407 160.784 53.3915 160.783 65.2079H160.782Z" fill="url(#paint8_linear_621_7226)"/>
<path d="M101 113C128.062 113 150 91.2858 150 64.5C150 37.7142 128.062 16 101 16C73.938 16 52 37.7142 52 64.5C52 91.2858 73.938 113 101 113Z" fill="#F6F2ED"/>
<path d="M101.5 21C77.4756 21 58 40.6995 58 65C58 89.3005 77.4756 109 101.5 109C125.524 109 145 89.3005 145 65C145 40.6995 125.524 21 101.5 21Z" stroke="#272421" stroke-width="1.5" stroke-dasharray="1.5 1.5"/>
<path fill-rule="evenodd" clip-rule="evenodd" d="M117.507 70.7744C117.504 70.8543 117.457 70.9206 117.383 70.9518L112.52 73.0085C112.458 73.0358 112.394 73.0319 112.337 72.9988C112.278 72.9656 112.243 72.9111 112.236 72.8448L111.584 67.6044C111.575 67.5245 111.61 67.4524 111.676 67.4075C111.742 67.3627 111.824 67.3607 111.892 67.4017L113.458 68.3043C114.786 62.9938 112.51 57.2017 107.55 54.3358C102.589 51.4719 96.4335 52.3999 92.4971 56.2035L90.1166 54.8291C94.8484 49.7758 102.643 48.4286 108.88 52.0314C115.119 55.6322 117.851 63.0542 115.84 69.6787L117.406 70.5833C117.474 70.6242 117.513 70.6944 117.507 70.7744ZM94.9654 76.1336C90.0035 73.2678 87.7302 67.4757 89.056 62.1652L90.6216 63.0678C90.6898 63.1087 90.7717 63.1068 90.838 63.0619C90.9042 63.0171 90.9394 62.9449 90.9296 62.865L90.2804 57.6247C90.2762 57.593 90.2649 57.5628 90.2473 57.5361C90.2297 57.5094 90.2064 57.4871 90.179 57.4707C90.1205 57.4375 90.0562 57.4336 89.9938 57.4609L85.1313 59.5177C85.0572 59.5489 85.0105 59.6152 85.0066 59.6952C85.0033 59.7336 85.0114 59.7722 85.0297 59.8061C85.0481 59.84 85.0759 59.8679 85.1099 59.8862L86.6735 60.7908C84.6634 67.4154 87.3949 74.8373 93.6338 78.4381C99.8708 82.0408 107.666 80.6936 112.397 75.6405L110.017 74.2661C106.081 78.0697 99.9273 78.9976 94.9655 76.1338L94.9654 76.1336ZM92.7741 66.2729C92.7409 66.4249 92.6103 66.5302 92.4562 66.5302H91.8129C91.7323 66.5301 91.6546 66.5597 91.5945 66.6133C91.5345 66.6669 91.4963 66.7407 91.4873 66.8207C91.4229 67.4012 91.4229 67.987 91.4873 68.5675C91.4963 68.6475 91.5345 68.7213 91.5945 68.7749C91.6546 68.8285 91.7323 68.8581 91.8129 68.858H92.4562C92.6102 68.858 92.7409 68.9633 92.7741 69.1153C92.9421 69.8848 93.2458 70.6182 93.6709 71.2813C93.7547 71.4119 93.7372 71.5777 93.628 71.6868L93.1717 72.143C93.1148 72.1998 93.081 72.2756 93.0766 72.3559C93.0723 72.4361 93.0979 72.5152 93.1484 72.5777C93.3305 72.8054 93.5251 73.0227 93.7313 73.2288C93.9377 73.4355 94.1558 73.6301 94.3845 73.8118C94.5131 73.9171 94.7003 73.9054 94.8173 73.7884L95.2735 73.3341C95.3827 73.223 95.5503 73.2054 95.681 73.2893C96.3536 73.7221 97.0887 74.0204 97.8451 74.1861C97.9972 74.2193 98.1025 74.3499 98.1025 74.5038V75.1472C98.1024 75.2277 98.1319 75.3054 98.1855 75.3655C98.2391 75.4256 98.313 75.4637 98.393 75.4728C98.974 75.5371 99.5608 75.5371 100.14 75.4728C100.22 75.4637 100.294 75.4256 100.347 75.3655C100.401 75.3054 100.431 75.2277 100.43 75.1472V74.5038C100.43 74.3499 100.536 74.2193 100.688 74.1861C101.457 74.0183 102.191 73.7146 102.854 73.2893C102.984 73.2054 103.15 73.223 103.261 73.3341L103.716 73.7884C103.772 73.8453 103.848 73.8791 103.928 73.8835C104.009 73.8878 104.088 73.8622 104.15 73.8118C104.606 73.4471 105.02 73.0332 105.384 72.5777C105.49 72.4471 105.48 72.2599 105.361 72.143L104.907 71.6868C104.833 71.6127 104.8 71.5152 104.813 71.4177L103.248 71.3944C102.926 71.3944 102.606 71.3768 102.286 71.3418C102.056 71.316 101.838 71.2193 101.665 71.0649C100.988 71.5464 100.161 71.8311 99.2665 71.8311C96.9815 71.8311 95.1293 69.979 95.1293 67.6942C95.1293 65.4093 96.9815 63.5573 99.2665 63.5573C100.994 63.5573 102.472 64.6139 103.092 66.117C103.144 66.1189 103.195 66.1209 103.248 66.1209C104.096 66.1209 104.872 65.8051 105.461 65.2826C105.301 64.8718 105.1 64.478 104.862 64.107C104.778 63.9764 104.796 63.8107 104.907 63.7015L105.361 63.2454C105.48 63.1284 105.49 62.9412 105.385 62.8106C105.02 62.355 104.606 61.9411 104.15 61.5765C104.02 61.4712 103.833 61.481 103.716 61.5999L103.261 62.0541C103.15 62.1652 102.985 62.1828 102.854 62.0989C102.191 61.6736 101.457 61.3699 100.688 61.2021C100.615 61.1867 100.549 61.1465 100.502 61.0882C100.455 61.0299 100.43 60.9572 100.43 60.8824V60.239C100.43 60.0733 100.306 59.9349 100.14 59.9154C99.5594 59.851 98.9736 59.851 98.3931 59.9154C98.2274 59.9348 98.1026 60.0733 98.1026 60.239V60.8843C98.1026 61.0384 97.9973 61.169 97.8452 61.2021C97.0887 61.3679 96.3537 61.6661 95.6811 62.0989C95.5505 62.1828 95.3828 62.1652 95.2736 62.0541L94.8174 61.5999C94.7612 61.5426 94.6856 61.5085 94.6055 61.5041C94.5254 61.4998 94.4466 61.5256 94.3845 61.5765C94.1584 61.7559 93.94 61.9509 93.7314 62.1595C93.5228 62.3681 93.3278 62.5864 93.1484 62.8106C93.0979 62.8732 93.0724 62.9522 93.0767 63.0325C93.081 63.1127 93.1149 63.1886 93.1718 63.2454L93.628 63.7015C93.7372 63.8107 93.7548 63.9764 93.6709 64.107C93.2459 64.7701 92.9422 65.5035 92.7741 66.273L92.7741 66.2729ZM104.121 54.9967C103.541 54.9323 102.955 54.9323 102.374 54.9967C102.294 55.0057 102.22 55.0439 102.167 55.104C102.113 55.1641 102.084 55.2418 102.084 55.3223V55.9656C102.084 56.1196 101.978 56.2503 101.826 56.2834C101.057 56.4515 100.323 56.7552 99.6602 57.1802C99.5296 57.2641 99.3638 57.2465 99.2547 57.1373L98.7985 56.6811C98.7417 56.6242 98.6658 56.5904 98.5856 56.5861C98.5053 56.5817 98.4263 56.6073 98.3637 56.6578C98.1395 56.8371 97.9211 57.0321 97.7125 57.2407C97.5039 57.4493 97.3089 57.6677 97.1295 57.8938C97.0242 58.0225 97.036 58.2096 97.1529 58.3266L97.6091 58.7828C97.6524 58.8261 97.6825 58.8807 97.696 58.9404C97.7094 59.0001 97.7057 59.0624 97.6851 59.1201C98.5333 59.0928 99.3832 59.0343 100.227 59.1278C100.467 59.1551 100.682 59.2546 100.849 59.4047C101.526 58.9231 102.353 58.6385 103.247 58.6385C105.532 58.6385 107.385 60.4906 107.385 62.7754C107.385 65.0603 105.532 66.9123 103.247 66.9123C101.522 66.9123 100.042 65.8557 99.4222 64.3526C99.3703 64.3503 99.3183 64.349 99.2662 64.3487C98.4181 64.3487 97.6441 64.6645 97.0534 65.187C97.2132 65.5978 97.4137 65.9916 97.652 66.3625C97.7358 66.4931 97.7183 66.6589 97.6071 66.77L97.1528 67.2242C97.0959 67.2809 97.0621 67.3568 97.0578 67.437C97.0534 67.5173 97.079 67.5963 97.1295 67.6589C97.4941 68.1145 97.908 68.5284 98.3636 68.893C98.4943 68.9983 98.6815 68.9885 98.7984 68.8696L99.2546 68.4154C99.3638 68.3042 99.5315 68.2867 99.6621 68.3705C100.335 68.8033 101.07 69.1016 101.826 69.2673C101.899 69.2827 101.965 69.323 102.012 69.3812C102.059 69.4395 102.084 69.5122 102.084 69.587V70.2303C102.084 70.3961 102.208 70.5345 102.374 70.554C102.955 70.6184 103.54 70.6184 104.121 70.554C104.201 70.5454 104.275 70.5076 104.328 70.4478C104.382 70.3881 104.411 70.3106 104.411 70.2303V69.587C104.411 69.5122 104.436 69.4395 104.483 69.3812C104.53 69.3229 104.596 69.2827 104.669 69.2673C105.438 69.0996 106.172 68.7959 106.835 68.3705C106.966 68.2867 107.131 68.3042 107.242 68.4154L107.697 68.8696C107.814 68.9885 108.001 68.9983 108.131 68.893C108.587 68.5284 109.001 68.1145 109.366 67.6589C109.471 67.5283 109.461 67.3411 109.342 67.2242L108.888 66.768C108.777 66.6588 108.759 66.4931 108.843 66.3625C109.268 65.6996 109.572 64.9661 109.74 64.1965C109.773 64.0445 109.904 63.9392 110.058 63.9392H110.703C110.869 63.9392 111.007 63.8144 111.027 63.6487C111.091 63.0696 111.091 62.4828 111.027 61.9019C111.007 61.7362 110.869 61.6114 110.703 61.6114H110.058C109.904 61.6114 109.773 61.5061 109.74 61.354C109.574 60.5976 109.276 59.8626 108.843 59.1901C108.759 59.0595 108.777 58.8918 108.888 58.7826L109.342 58.3265C109.399 58.2703 109.434 58.1947 109.438 58.1146C109.442 58.0345 109.416 57.9557 109.366 57.8937C109.186 57.6675 108.991 57.4492 108.783 57.2406C108.574 57.032 108.356 56.837 108.131 56.6576C108.069 56.6072 107.99 56.5816 107.91 56.5859C107.829 56.5903 107.753 56.6241 107.697 56.681L107.24 57.1372C107.131 57.2463 106.966 57.2639 106.835 57.1801C106.172 56.7551 105.438 56.4514 104.669 56.2833C104.517 56.2501 104.411 56.1195 104.411 55.9655V55.3221C104.412 55.2416 104.382 55.1639 104.328 55.1038C104.275 55.0438 104.201 55.0056 104.121 54.9966L104.121 54.9967Z" fill="url(#paint9_linear_621_7226)"/>
<defs>
<linearGradient id="paint0_linear_621_7226" x1="7.62554" y1="70.8766" x2="112.412" y2="117.895" gradientUnits="userSpaceOnUse">
<stop stop-color="#846E55"/>
<stop offset="1" stop-color="#B3A55C"/>
</linearGradient>
<linearGradient id="paint1_linear_621_7226" x1="51.9555" y1="137.176" x2="56.396" y2="145.953" gradientUnits="userSpaceOnUse">
<stop stop-color="#846E55"/>
<stop offset="1" stop-color="#B3A55C"/>
</linearGradient>
<linearGradient id="paint2_linear_621_7226" x1="61.7939" y1="133.099" x2="64.8273" y2="139.096" gradientUnits="userSpaceOnUse">
<stop stop-color="#846E55"/>
<stop offset="1" stop-color="#B3A55C"/>
</linearGradient>
<linearGradient id="paint3_linear_621_7226" x1="-0.109855" y1="84.8066" x2="11.2742" y2="89.9146" gradientUnits="userSpaceOnUse">
<stop stop-color="#846E55"/>
<stop offset="1" stop-color="#B3A55C"/>
</linearGradient>
<linearGradient id="paint4_linear_621_7226" x1="146.052" y1="22.8951" x2="187.508" y2="13.4518" gradientUnits="userSpaceOnUse">
<stop stop-color="#846E55"/>
<stop offset="1" stop-color="#B3A55C"/>
</linearGradient>
<linearGradient id="paint5_linear_621_7226" x1="169.74" y1="37.6276" x2="167.489" y2="40.4908" gradientUnits="userSpaceOnUse">
<stop stop-color="#846E55"/>
<stop offset="1" stop-color="#B3A55C"/>
</linearGradient>
<linearGradient id="paint6_linear_621_7226" x1="165.34" y1="38.4673" x2="163.805" y2="40.4204" gradientUnits="userSpaceOnUse">
<stop stop-color="#846E55"/>
<stop offset="1" stop-color="#B3A55C"/>
</linearGradient>
<linearGradient id="paint7_linear_621_7226" x1="169.43" y1="11.7386" x2="173.932" y2="10.7131" gradientUnits="userSpaceOnUse">
<stop stop-color="#846E55"/>
<stop offset="1" stop-color="#B3A55C"/>
</linearGradient>
<linearGradient id="paint8_linear_621_7226" x1="39.5143" y1="11.1277" x2="228.491" y2="95.9218" gradientUnits="userSpaceOnUse">
<stop stop-color="#846E55"/>
<stop offset="1" stop-color="#B3A55C"/>
</linearGradient>
<linearGradient id="paint9_linear_621_7226" x1="84.5096" y1="51.4391" x2="134.771" y2="75.4951" gradientUnits="userSpaceOnUse">
<stop stop-color="#846E55"/>
<stop offset="1" stop-color="#B3A55C"/>
</linearGradient>
</defs>
</svg>
