<svg width="185" height="145" viewBox="0 0 185 145" fill="none" xmlns="http://www.w3.org/2000/svg">
<g opacity="0.272">
<path d="M41.75 133.977C60.0383 133.977 74.8638 119.152 74.8638 100.864C74.8638 82.5753 60.0383 67.7498 41.75 67.7498C23.4618 67.7498 8.63623 82.5753 8.63623 100.864C8.63623 119.152 23.4618 133.977 41.75 133.977Z" fill="url(#paint0_linear_1342_7667)"/>
<path d="M50.8243 143.216C51.2602 143.569 51.791 143.784 52.3495 143.836C52.9081 143.887 53.4693 143.772 53.9623 143.504C54.4552 143.237 54.8578 142.829 55.119 142.332C55.3803 141.836 55.4885 141.273 55.43 140.716C55.3715 140.158 55.1489 139.63 54.7903 139.198C54.4318 138.767 53.9534 138.452 53.4156 138.292C52.8779 138.133 52.3049 138.136 51.7692 138.302C51.2334 138.469 50.759 138.79 50.4058 139.226C49.9324 139.81 49.7105 140.559 49.7889 141.307C49.8674 142.055 50.2398 142.742 50.8243 143.216Z" fill="url(#paint1_linear_1342_7667)"/>
<path d="M61.0168 137.226C61.3146 137.467 61.6772 137.615 62.0588 137.65C62.4404 137.685 62.8239 137.606 63.1606 137.423C63.4974 137.24 63.7724 136.962 63.9508 136.623C64.1292 136.283 64.2031 135.899 64.163 135.518C64.123 135.137 63.9708 134.776 63.7258 134.481C63.4807 134.187 63.1538 133.972 62.7864 133.863C62.419 133.754 62.0275 133.756 61.6616 133.87C61.2956 133.984 60.9716 134.203 60.7304 134.501C60.407 134.9 60.2555 135.412 60.3092 135.923C60.3629 136.434 60.6175 136.903 61.0168 137.226Z" fill="url(#paint2_linear_1342_7667)"/>
<path d="M3.5975 91.6623C4.30902 91.6623 5.00456 91.4513 5.59617 91.056C6.18778 90.6607 6.64888 90.0989 6.92116 89.4415C7.19345 88.7841 7.26469 88.0608 7.12588 87.363C6.98707 86.6651 6.64444 86.0241 6.14132 85.521C5.6382 85.0179 4.99719 84.6752 4.29934 84.5364C3.60149 84.3976 2.87816 84.4688 2.2208 84.7411C1.56344 85.0134 1.00159 85.4745 0.606288 86.0661C0.21099 86.6577 0 87.3533 0 88.0648C0 89.0189 0.379021 89.934 1.05368 90.6086C1.72835 91.2833 2.64339 91.6623 3.5975 91.6623Z" fill="url(#paint3_linear_1342_7667)"/>
</g>
<g opacity="0.272">
<path d="M170.192 33.9502C175.599 29.8762 176.68 22.19 172.606 16.7827C168.532 11.3754 160.846 10.2946 155.438 14.3687C150.031 18.4428 148.95 26.129 153.024 31.5362C157.098 36.9435 164.784 38.0243 170.192 33.9502Z" fill="url(#paint4_linear_1342_7667)"/>
<path d="M169.566 38.7019C169.515 38.9034 169.407 39.0855 169.253 39.2251C169.099 39.3647 168.907 39.4556 168.702 39.4863C168.497 39.517 168.287 39.4861 168.099 39.3975C167.911 39.3089 167.754 39.1666 167.647 38.9885C167.54 38.8105 167.488 38.6048 167.498 38.3974C167.508 38.1899 167.579 37.9901 167.703 37.8232C167.826 37.6563 167.997 37.5297 168.192 37.4595C168.388 37.3894 168.6 37.3788 168.801 37.429C169.071 37.4964 169.304 37.6684 169.447 37.9071C169.59 38.1458 169.633 38.4317 169.566 38.7019Z" fill="url(#paint5_linear_1342_7667)"/>
<path d="M165.218 39.1997C165.184 39.3372 165.109 39.4614 165.004 39.5566C164.9 39.6519 164.769 39.7139 164.629 39.7348C164.489 39.7557 164.345 39.7346 164.217 39.6742C164.089 39.6138 163.982 39.5167 163.909 39.3953C163.836 39.2738 163.801 39.1335 163.807 38.992C163.814 38.8505 163.863 38.7142 163.947 38.6003C164.031 38.4864 164.148 38.4001 164.281 38.3523C164.414 38.3044 164.559 38.2972 164.696 38.3314C164.88 38.3777 165.039 38.4951 165.136 38.6578C165.234 38.8206 165.263 39.0154 165.218 39.1997Z" fill="url(#paint6_linear_1342_7667)"/>
<path d="M172.044 12.9393C171.834 13.0977 171.581 13.1903 171.318 13.2052C171.055 13.2201 170.794 13.1567 170.567 13.023C170.34 12.8894 170.158 12.6915 170.044 12.4543C169.929 12.2172 169.888 11.9514 169.924 11.6907C169.961 11.4299 170.074 11.1859 170.25 10.9895C170.425 10.7931 170.655 10.6531 170.91 10.5872C171.164 10.5213 171.433 10.5324 171.682 10.6193C171.93 10.7061 172.148 10.8647 172.306 11.075C172.518 11.3569 172.61 11.7118 172.561 12.0614C172.512 12.411 172.326 12.7268 172.044 12.9393Z" fill="url(#paint7_linear_1342_7667)"/>
</g>
<path d="M100.988 129.143C136.65 129.143 165.56 100.233 165.56 64.5714C165.56 28.9096 136.65 0 100.988 0C65.3266 0 36.417 28.9096 36.417 64.5714C36.417 100.233 65.3266 129.143 100.988 129.143Z" fill="#F6F2ED"/>
<path d="M100.987 127.893C135.959 127.893 164.309 99.5426 164.309 64.5712C164.309 29.5998 135.959 1.24982 100.987 1.24982C66.0159 1.24982 37.666 29.5998 37.666 64.5712C37.666 99.5426 66.0159 127.893 100.987 127.893Z" stroke="#272421" stroke-width="2"/>
<path d="M160.771 65.2077C160.784 73.1238 159.221 80.9632 156.173 88.2691C153.126 95.5752 148.655 102.202 143.021 107.763C137.521 113.241 130.992 117.577 123.81 120.522C116.628 123.468 108.934 124.964 101.171 124.925C89.355 124.949 77.7974 121.466 67.9612 114.918C58.1251 108.37 50.4524 99.0513 45.9145 88.1411C41.3765 77.2309 40.1772 65.2198 42.4683 53.6277C44.7594 42.0356 50.4378 31.3837 58.7851 23.0202C67.1323 14.6566 77.7731 8.95729 89.3607 6.64363C100.948 4.32996 112.962 5.50599 123.881 10.0227C134.8 14.5394 144.134 22.1938 150.701 32.0172C157.268 41.8406 160.773 53.3914 160.773 65.2077H160.771Z" fill="url(#paint8_linear_1342_7667)"/>
<path d="M100.745 119.831C131.096 119.831 155.7 95.2272 155.7 64.8763C155.7 34.5254 131.096 9.9212 100.745 9.9212C70.3943 9.9212 45.79 34.5254 45.79 64.8763C45.79 95.2272 70.3943 119.831 100.745 119.831Z" fill="#F6F2ED"/>
<path d="M94.375 66.195C94.3984 66.3591 94.5157 66.4997 94.6797 66.5466C95.0938 66.6169 95.5469 67.1091 95.9688 66.8435L98.1953 65.1716L100.656 67.6403L99 69.8747C98.9063 70.0153 98.8829 70.1873 98.9531 70.3357C99.1484 70.6481 99.1954 71.0778 99.4297 71.3669C99.5469 71.4841 99.8203 71.4763 99.9688 71.5153L102.406 71.8747L102.422 75.3513L99.6406 75.7653C99.4766 75.7888 99.3438 75.9061 99.2891 76.0622C99.2109 76.5231 98.7267 76.9216 98.9844 77.3513L99.1016 77.5153L100.648 79.5857V79.5935L98.2031 82.07L95.9453 80.3982C95.5235 80.1327 95.0703 80.6247 94.6562 80.695C94.5001 80.7497 94.3829 80.8826 94.3594 81.0466L93.9688 83.8044L90.4766 83.82L90.0625 81.0388C90.039 80.8748 89.9218 80.7341 89.7656 80.6872C89.3516 80.6247 88.8984 80.1327 88.4766 80.3982L86.25 82.07L83.7734 79.6091L85.4453 77.3513C85.5546 77.2107 85.5547 77.0075 85.4688 76.8513C85.2345 76.5231 85.2656 75.8669 84.7891 75.7653L82.0312 75.3747L82.0156 71.8825L83.7578 71.6247C83.7655 71.6171 83.7657 71.6247 83.7734 71.6169L84.7969 71.4685C84.9687 71.445 85.1016 71.3278 85.1484 71.1716C85.2033 70.7966 85.7187 70.2965 85.4531 69.8825C85.2653 69.6321 83.9453 67.8434 83.7969 67.6403L84.0234 67.4138L86.2344 65.1716L88.4922 66.8435C88.9141 67.1013 89.3672 66.6169 89.7812 66.5466C89.9375 66.4919 90.0547 66.3591 90.0781 66.195L90.4688 63.4294L93.9609 63.4138L94.375 66.195ZM84.1484 53.1091C84.7187 53.7497 85.5313 54.1638 86.3828 54.2575C86.5078 54.2653 86.625 54.2653 86.75 54.2732H117.555C119.078 54.2732 120.328 55.5232 120.328 57.0466V62.5388H120.235V70.9763H120.32V76.2966C120.32 77.8278 119.07 79.07 117.547 79.07H101.367L99.8594 77.0388C99.9219 76.8982 99.9844 76.7575 100.039 76.6091L102.555 76.2341C102.969 76.1716 103.289 75.8044 103.289 75.3747V71.8591C103.281 71.4451 102.969 71.0622 102.547 70.9997L100.055 70.6403C99.9922 70.492 99.9375 70.3512 99.875 70.2107L101.375 68.1794C101.641 67.8357 101.609 67.3434 101.297 67.0466L98.8125 64.5544V64.5466C98.5078 64.2498 98.0234 64.2186 97.6875 64.4685L95.6406 65.9841C95.4922 65.9138 95.3515 65.8591 95.2109 65.8044L94.8359 63.281C94.7656 62.867 94.4062 62.5466 93.9766 62.5466H90.4609C90.0391 62.5466 89.6798 62.8514 89.6016 63.281L89.2266 65.8044C89.086 65.8591 88.9375 65.9138 88.7969 65.9841L86.7578 64.4685C86.4219 64.2108 85.9375 64.242 85.625 64.5466L84.1484 66.031V53.1091ZM96.8438 73.6169C96.5858 67.4843 87.8283 67.4843 87.5781 73.6169C87.5781 76.1716 89.6562 78.2419 92.2109 78.2497C94.7656 78.2419 96.8438 76.1716 96.8438 73.6169ZM92.2188 69.8747C94.2656 69.8747 95.953 71.5467 95.9531 73.6091C95.9531 75.6716 94.2734 77.3513 92.2109 77.3513C87.2656 77.1638 87.2656 70.0622 92.2188 69.8747ZM84.5703 70.195C84.5 70.3434 84.4453 70.4841 84.3906 70.6247L84.1406 70.6638V69.6169L84.5703 70.195ZM113.258 48.1716C114.687 48.1716 115.906 49.0779 116.391 50.3357H95.0703C94.8204 50.3357 94.6251 50.5389 94.625 50.781C94.625 51.0232 94.8203 51.2263 95.0703 51.2263H116.609C116.617 51.3278 116.625 51.4373 116.625 51.5388V53.3903H86.75C85.3438 53.406 84.1328 52.2341 84.1328 50.7732C84.0939 49.3826 85.3438 48.1404 86.7422 48.1716H113.258Z" fill="url(#paint9_linear_1342_7667)"/>
<path d="M100.987 118.278C130.648 118.278 154.692 94.2333 154.692 64.5728C154.692 34.9123 130.648 10.8677 100.987 10.8677C71.3268 10.8677 47.2822 34.9123 47.2822 64.5728C47.2822 94.2333 71.3268 118.278 100.987 118.278Z" stroke="#272421" stroke-width="2"/>
<path d="M101.321 18.7265C75.8848 18.7265 55.2646 39.3467 55.2646 64.7829C55.2646 90.2191 75.8848 110.839 101.321 110.839C126.757 110.839 147.377 90.2191 147.377 64.7829C147.377 39.3467 126.757 18.7265 101.321 18.7265Z" stroke="#272421" stroke-width="1.5" stroke-dasharray="1.5 1.5"/>
<defs>
<linearGradient id="paint0_linear_1342_7667" x1="7.62512" y1="70.8772" x2="112.407" y2="117.89" gradientUnits="userSpaceOnUse">
<stop stop-color="#846E55"/>
<stop offset="1" stop-color="#B3A55C"/>
</linearGradient>
<linearGradient id="paint1_linear_1342_7667" x1="51.9541" y1="137.176" x2="56.3946" y2="145.953" gradientUnits="userSpaceOnUse">
<stop stop-color="#846E55"/>
<stop offset="1" stop-color="#B3A55C"/>
</linearGradient>
<linearGradient id="paint2_linear_1342_7667" x1="61.7886" y1="133.1" x2="64.822" y2="139.096" gradientUnits="userSpaceOnUse">
<stop stop-color="#846E55"/>
<stop offset="1" stop-color="#B3A55C"/>
</linearGradient>
<linearGradient id="paint3_linear_1342_7667" x1="-0.109847" y1="84.807" x2="11.2737" y2="89.9146" gradientUnits="userSpaceOnUse">
<stop stop-color="#846E55"/>
<stop offset="1" stop-color="#B3A55C"/>
</linearGradient>
<linearGradient id="paint4_linear_1342_7667" x1="146.045" y1="22.8954" x2="187.499" y2="13.4535" gradientUnits="userSpaceOnUse">
<stop stop-color="#846E55"/>
<stop offset="1" stop-color="#B3A55C"/>
</linearGradient>
<linearGradient id="paint5_linear_1342_7667" x1="169.731" y1="37.628" x2="167.481" y2="40.491" gradientUnits="userSpaceOnUse">
<stop stop-color="#846E55"/>
<stop offset="1" stop-color="#B3A55C"/>
</linearGradient>
<linearGradient id="paint6_linear_1342_7667" x1="165.331" y1="38.4672" x2="163.796" y2="40.4202" gradientUnits="userSpaceOnUse">
<stop stop-color="#846E55"/>
<stop offset="1" stop-color="#B3A55C"/>
</linearGradient>
<linearGradient id="paint7_linear_1342_7667" x1="169.422" y1="11.7388" x2="173.923" y2="10.7134" gradientUnits="userSpaceOnUse">
<stop stop-color="#846E55"/>
<stop offset="1" stop-color="#B3A55C"/>
</linearGradient>
<linearGradient id="paint8_linear_1342_7667" x1="39.5115" y1="11.1278" x2="228.48" y2="95.9129" gradientUnits="userSpaceOnUse">
<stop stop-color="#846E55"/>
<stop offset="1" stop-color="#B3A55C"/>
</linearGradient>
<linearGradient id="paint9_linear_1342_7667" x1="81.4307" y1="49.8544" x2="140.512" y2="78.3434" gradientUnits="userSpaceOnUse">
<stop stop-color="#846E55"/>
<stop offset="1" stop-color="#B3A55C"/>
</linearGradient>
</defs>
</svg>
