<svg width="43" height="43" viewBox="0 0 43 43" fill="none" xmlns="http://www.w3.org/2000/svg">
<path d="M21.6701 42.43C33.3868 42.43 42.8851 32.9317 42.8851 21.215C42.8851 9.49828 33.3868 0 21.6701 0C9.95336 0 0.455078 9.49828 0.455078 21.215C0.455078 32.9317 9.95336 42.43 21.6701 42.43Z" fill="#F6F2ED"/>
<path d="M21.6701 41.93C33.1107 41.93 42.3851 32.6556 42.3851 21.215C42.3851 9.77442 33.1107 0.5 21.6701 0.5C10.2295 0.5 0.955078 9.77442 0.955078 21.215C0.955078 32.6556 10.2295 41.93 21.6701 41.93Z" stroke="#272421"/>
<path d="M41.3123 21.4266C41.3164 24.0273 40.8028 26.603 39.8016 29.0033C38.8003 31.4037 37.3314 33.5807 35.4803 35.4076C33.6732 37.2075 31.5281 38.6323 29.1683 39.6C26.8086 40.5678 24.2807 41.0593 21.7303 41.0466C17.8482 41.0541 14.0512 39.9098 10.8197 37.7585C7.58819 35.6072 5.06751 32.5456 3.57669 28.9612C2.08587 25.3768 1.6919 21.4306 2.44464 17.6222C3.19739 13.8138 5.063 10.3144 7.80539 7.5667C10.5478 4.81899 14.0437 2.94658 17.8506 2.18645C21.6576 1.42632 25.6044 1.81257 29.1917 3.29644C32.779 4.7803 35.8455 7.29508 38.0031 10.5224C40.1606 13.7497 41.3123 17.5445 41.3123 21.4266Z" fill="url(#paint0_linear_591_6259)"/>
<path d="M21.7415 39.3961C31.713 39.3961 39.7965 31.3126 39.7965 21.3411C39.7965 11.3696 31.713 3.28613 21.7415 3.28613C11.77 3.28613 3.68652 11.3696 3.68652 21.3411C3.68652 31.3126 11.77 39.3961 21.7415 39.3961Z" fill="#F6F2ED"/>
<path d="M21.7415 38.8961C31.4369 38.8961 39.2965 31.0365 39.2965 21.3411C39.2965 11.6458 31.4369 3.78613 21.7415 3.78613C12.0462 3.78613 4.18652 11.6458 4.18652 21.3411C4.18652 31.0365 12.0462 38.8961 21.7415 38.8961Z" stroke="#272421"/>
<path d="M21.7789 6.34363C13.5277 6.34363 6.83887 13.0325 6.83887 21.2836C6.83887 29.5348 13.5277 36.2236 21.7789 36.2236C30.03 36.2236 36.7189 29.5348 36.7189 21.2836C36.7189 13.0325 30.03 6.34363 21.7789 6.34363Z" stroke="#272421" stroke-dasharray="1 1.5"/>
<path d="M22.1887 11.6012C22.0459 11.5102 21.8801 11.4619 21.7107 11.4619C21.5414 11.4619 21.3756 11.5102 21.2327 11.6012L19.5037 12.6332C19.1701 12.8296 18.8142 12.9857 18.4437 13.0982L14.4557 14.2882C14.2451 14.3496 14.0631 14.4839 13.9422 14.667C13.8213 14.8502 13.7694 15.0703 13.7957 15.2882L14.9757 24.7502C15.0576 25.4118 15.2809 26.0481 15.6305 26.6158C15.9801 27.1835 16.4478 27.6693 17.0017 28.0402L21.1567 30.8102C21.3084 30.9101 21.4861 30.9633 21.6677 30.9633C21.8494 30.9633 22.0271 30.9101 22.1787 30.8102L26.3337 28.0312C26.8864 27.6588 27.353 27.1726 27.7025 26.6052C28.0519 26.0378 28.276 25.4023 28.3597 24.7412L29.5417 15.2722C29.5693 15.0525 29.5181 14.8303 29.3972 14.6448C29.2764 14.4594 29.0938 14.3227 28.8817 14.2592L24.8937 13.0592C24.5215 12.9475 24.1652 12.7882 23.8337 12.5852L22.1057 11.5462L22.1887 11.6012Z" fill="url(#paint1_linear_591_6259)"/>
<defs>
<linearGradient id="paint0_linear_591_6259" x1="1.47318" y1="3.65965" x2="63.5569" y2="31.515" gradientUnits="userSpaceOnUse">
<stop stop-color="#A58969"/>
<stop offset="1" stop-color="#C7B664"/>
</linearGradient>
<linearGradient id="paint1_linear_591_6259" x1="13.5485" y1="12.3828" x2="40.022" y2="21.982" gradientUnits="userSpaceOnUse">
<stop stop-color="#A58969"/>
<stop offset="1" stop-color="#C7B664"/>
</linearGradient>
</defs>
</svg>
