<svg width="185" height="145" viewBox="0 0 185 145" fill="none" xmlns="http://www.w3.org/2000/svg">
<g opacity="0.272">
<path d="M41.7488 133.977C60.0371 133.977 74.8627 119.151 74.8627 100.863C74.8627 82.5746 60.0371 67.749 41.7488 67.749C23.4604 67.749 8.63477 82.5746 8.63477 100.863C8.63477 119.151 23.4604 133.977 41.7488 133.977Z" fill="url(#paint0_linear_1785_19433)"/>
<path d="M50.8238 143.215C51.2597 143.568 51.7905 143.784 52.349 143.835C52.9076 143.886 53.4688 143.771 53.9618 143.503C54.4548 143.236 54.8573 142.828 55.1186 142.332C55.3798 141.835 55.488 141.273 55.4295 140.715C55.371 140.157 55.1484 139.629 54.7899 139.198C54.4313 138.766 53.9529 138.451 53.4152 138.291C52.8774 138.132 52.3044 138.135 51.7687 138.302C51.233 138.468 50.7585 138.789 50.4053 139.225C49.9319 139.809 49.71 140.558 49.7884 141.306C49.8669 142.055 50.2393 142.741 50.8238 143.215Z" fill="url(#paint1_linear_1785_19433)"/>
<path d="M61.0183 137.225C61.3161 137.466 61.6787 137.613 62.0603 137.649C62.4419 137.684 62.8253 137.605 63.1621 137.422C63.4989 137.239 63.7738 136.96 63.9523 136.621C64.1307 136.282 64.2045 135.898 64.1645 135.517C64.1244 135.136 63.9723 134.775 63.7272 134.48C63.4822 134.186 63.1553 133.97 62.7879 133.861C62.4204 133.753 62.029 133.755 61.663 133.869C61.2971 133.982 60.973 134.202 60.7319 134.5C60.4085 134.899 60.257 135.411 60.3107 135.922C60.3644 136.433 60.6189 136.902 61.0183 137.225Z" fill="url(#paint2_linear_1785_19433)"/>
<path d="M3.59752 91.6618C4.30905 91.6618 5.00459 91.4508 5.5962 91.0555C6.18781 90.6602 6.64892 90.0984 6.92121 89.441C7.19349 88.7837 7.26474 88.0603 7.12592 87.3625C6.98711 86.6646 6.64448 86.0236 6.14136 85.5205C5.63824 85.0174 4.99722 84.6747 4.29937 84.5359C3.60152 84.3971 2.87817 84.4684 2.22081 84.7406C1.56345 85.0129 1.00159 85.474 0.606292 86.0656C0.210991 86.6572 0 87.3528 0 88.0643C0 89.0184 0.379023 89.9335 1.05369 90.6081C1.72836 91.2828 2.6434 91.6618 3.59752 91.6618Z" fill="url(#paint3_linear_1785_19433)"/>
</g>
<g opacity="0.272">
<path d="M170.191 33.9499C175.598 29.8758 176.679 22.1896 172.605 16.7823C168.531 11.375 160.845 10.2942 155.437 14.3683C150.03 18.4424 148.949 26.1286 153.023 31.5359C157.097 36.9432 164.784 38.024 170.191 33.9499Z" fill="url(#paint4_linear_1785_19433)"/>
<path d="M169.566 38.7014C169.516 38.9029 169.407 39.085 169.253 39.2246C169.1 39.3642 168.908 39.4551 168.703 39.4858C168.497 39.5165 168.287 39.4856 168.099 39.397C167.912 39.3084 167.754 39.1661 167.647 38.988C167.54 38.81 167.489 38.6043 167.499 38.3969C167.509 38.1894 167.58 37.9896 167.703 37.8227C167.827 37.6558 167.997 37.5292 168.193 37.4591C168.388 37.3889 168.6 37.3783 168.802 37.4285C169.072 37.4959 169.304 37.6679 169.447 37.9066C169.591 38.1453 169.634 38.4312 169.566 38.7014Z" fill="url(#paint5_linear_1785_19433)"/>
<path d="M165.217 39.1998C165.183 39.3373 165.109 39.4615 165.004 39.5567C164.899 39.652 164.768 39.714 164.628 39.7349C164.488 39.7558 164.345 39.7348 164.217 39.6743C164.089 39.6139 163.981 39.5168 163.908 39.3954C163.835 39.2739 163.8 39.1336 163.807 38.9921C163.814 38.8506 163.862 38.7143 163.947 38.6004C164.031 38.4866 164.147 38.4002 164.28 38.3524C164.414 38.3045 164.558 38.2973 164.696 38.3316C164.88 38.3778 165.038 38.4952 165.136 38.6579C165.234 38.8207 165.263 39.0156 165.217 39.1998Z" fill="url(#paint6_linear_1785_19433)"/>
<path d="M172.042 12.9387C171.832 13.0971 171.58 13.1896 171.317 13.2046C171.054 13.2195 170.792 13.1561 170.566 13.0224C170.339 12.8888 170.157 12.6909 170.042 12.4537C169.928 12.2165 169.886 11.9508 169.923 11.6901C169.96 11.4293 170.073 11.1853 170.248 10.9889C170.424 10.7925 170.653 10.6525 170.908 10.5866C171.163 10.5207 171.432 10.5318 171.68 10.6186C171.929 10.7055 172.146 10.864 172.305 11.0743C172.517 11.3563 172.609 11.7112 172.56 12.0608C172.51 12.4104 172.324 12.7262 172.042 12.9387Z" fill="url(#paint7_linear_1785_19433)"/>
</g>
<path d="M100.988 129.143C136.65 129.143 165.559 100.233 165.559 64.5715C165.559 28.9097 136.65 0 100.988 0C65.3258 0 36.416 28.9097 36.416 64.5715C36.416 100.233 65.3258 129.143 100.988 129.143Z" fill="#F6F2ED"/>
<path d="M100.988 127.893C135.959 127.893 164.309 99.543 164.309 64.5715C164.309 29.6 135.959 1.25 100.988 1.25C66.0161 1.25 37.666 29.6 37.666 64.5715C37.666 99.543 66.0161 127.893 100.988 127.893Z" stroke="#272421" stroke-width="2"/>
<path d="M160.773 65.2075C160.785 73.1236 159.222 80.963 156.175 88.269C153.127 95.575 148.657 102.202 143.023 107.763C137.523 113.241 130.994 117.577 123.811 120.522C116.629 123.468 108.935 124.964 101.173 124.925C89.3563 124.948 77.7986 121.466 67.9624 114.918C58.1261 108.37 50.4535 99.0512 45.9155 88.141C41.3775 77.2307 40.1782 65.2195 42.4693 53.6274C44.7603 42.0353 50.4389 31.3834 58.7862 23.0198C67.1335 14.6563 77.7743 8.95693 89.362 6.64326C100.95 4.32959 112.963 5.50563 123.882 10.0223C134.801 14.539 144.135 22.1935 150.702 32.0169C157.269 41.8403 160.775 53.3912 160.774 65.2075H160.773Z" fill="url(#paint8_linear_1785_19433)"/>
<path d="M101.205 119.91C131.556 119.91 156.161 95.3062 156.161 64.9552C156.161 34.6043 131.556 10 101.205 10C70.8544 10 46.25 34.6043 46.25 64.9552C46.25 95.3062 70.8544 119.91 101.205 119.91Z" fill="#F6F2ED"/>
<path d="M101.205 118.66C130.866 118.66 154.911 94.6158 154.911 64.9552C154.911 35.2947 130.866 11.25 101.205 11.25C71.5447 11.25 47.5 35.2947 47.5 64.9552C47.5 94.6158 71.5447 118.66 101.205 118.66Z" stroke="#272421" stroke-width="2"/>
<path d="M101.32 18.726C75.8839 18.726 55.2637 39.3461 55.2637 64.7824C55.2637 90.2187 75.8839 110.839 101.32 110.839C126.757 110.839 147.377 90.2187 147.377 64.7824C147.377 39.3461 126.757 18.726 101.32 18.726Z" stroke="url(#paint9_linear_1785_19433)" stroke-width="1.5" stroke-dasharray="1.5 1.5"/>
<path d="M93.4208 52.833C90.9008 52.833 88.5383 53.813 86.7592 55.5922C84.98 57.3713 84 59.7338 84 62.2538C84 64.768 84.98 67.1305 86.7592 68.9097C88.5383 70.6888 90.9008 71.6688 93.4208 71.6688C94.7567 71.6688 96.0517 71.3947 97.2358 70.8638L108.202 81.8305C108.313 81.9413 108.459 81.9997 108.617 81.9997C108.64 81.9997 108.663 81.9997 108.681 81.9938L112.233 81.5738C112.496 81.5388 112.712 81.3288 112.741 81.0605L113.161 77.5138C113.184 77.3388 113.126 77.1638 112.997 77.0355L110.699 74.7372C110.645 74.6821 110.581 74.6382 110.51 74.6082C110.439 74.5781 110.362 74.5625 110.285 74.5622C110.127 74.5622 109.982 74.6263 109.871 74.7372L109.276 75.3322L107.934 73.9847L108.529 73.3897C108.583 73.3354 108.626 73.2708 108.655 73.1996C108.685 73.1285 108.699 73.0523 108.698 72.9755C108.698 72.8238 108.64 72.6722 108.529 72.5672L106.791 70.8288C106.737 70.7748 106.673 70.7319 106.602 70.7026C106.532 70.6733 106.456 70.6582 106.38 70.6582C106.303 70.6582 106.228 70.6733 106.157 70.7026C106.086 70.7319 106.022 70.7748 105.968 70.8288L105.373 71.4238L104.026 70.0822L104.621 69.4872C104.676 69.4331 104.72 69.3687 104.75 69.2976C104.78 69.2265 104.796 69.1502 104.796 69.073C104.796 68.9213 104.732 68.7697 104.621 68.6588L102.031 66.0688C102.566 64.8683 102.84 63.5681 102.836 62.2538C102.836 60.9938 102.591 59.7747 102.124 58.643C101.657 57.5172 100.963 56.4788 100.077 55.5922C98.2975 53.813 95.935 52.833 93.4208 52.833ZM94.4183 63.2513C93.8769 63.7929 93.1425 64.0971 92.3767 64.0972C91.9983 64.0977 91.6235 64.0232 91.2741 63.878C90.9247 63.7328 90.6075 63.5198 90.3408 63.2513C89.7925 62.703 89.495 61.9797 89.495 61.2097C89.495 60.4397 89.7925 59.7163 90.3408 59.1738C90.8833 58.6255 91.6067 58.328 92.3767 58.328C93.1467 58.328 93.87 58.6255 94.4183 59.1738C94.9608 59.7163 95.2642 60.4397 95.2642 61.2097C95.2642 61.9797 94.9608 62.703 94.4183 63.2513Z" fill="url(#paint10_linear_1785_19433)"/>
<path d="M112.712 47C112.255 47.052 111.723 47.0789 111.204 47.1782C109.989 47.4103 108.903 47.9271 108.009 48.7962C107.599 49.1925 107.358 49.7316 107.336 50.3013C107.314 50.8709 107.512 51.4271 107.89 51.8538C108.524 52.5742 109.465 52.5718 110.466 51.8471C110.535 51.7971 110.605 51.7487 110.673 51.6973C111.421 51.13 112.278 50.9077 113.193 50.9991C113.949 51.0747 114.596 51.399 114.866 52.1798C115.126 52.9333 114.762 53.5022 114.232 53.9836C113.966 54.2253 113.659 54.4233 113.37 54.6388C111.629 55.9324 110.873 57.9668 111.408 59.9188C111.663 60.8476 112.096 61.3351 112.665 61.3342C113.221 61.3336 113.645 60.8969 113.893 59.9732C114.151 59.0144 114.643 58.2115 115.4 57.5868C116.006 57.0871 116.669 56.6573 117.279 56.1634C119.187 54.6188 119.651 52.2295 118.439 50.1023C117.195 47.9181 115.17 47.1358 112.712 47ZM113.032 62.8751C111.626 62.8773 110.733 63.7419 110.736 65.0986C110.739 66.4399 111.695 67.4212 112.993 67.4167C114.356 67.4119 115.335 66.4422 115.328 65.1042C115.322 63.7419 114.426 62.8728 113.032 62.8751Z" fill="url(#paint11_linear_1785_19433)"/>
<defs>
<linearGradient id="paint0_linear_1785_19433" x1="7.62365" y1="70.8764" x2="112.406" y2="117.89" gradientUnits="userSpaceOnUse">
<stop stop-color="#846E55"/>
<stop offset="1" stop-color="#B3A55C"/>
</linearGradient>
<linearGradient id="paint1_linear_1785_19433" x1="51.9536" y1="137.175" x2="56.3942" y2="145.953" gradientUnits="userSpaceOnUse">
<stop stop-color="#846E55"/>
<stop offset="1" stop-color="#B3A55C"/>
</linearGradient>
<linearGradient id="paint2_linear_1785_19433" x1="61.79" y1="133.099" x2="64.8235" y2="139.095" gradientUnits="userSpaceOnUse">
<stop stop-color="#846E55"/>
<stop offset="1" stop-color="#B3A55C"/>
</linearGradient>
<linearGradient id="paint3_linear_1785_19433" x1="-0.109848" y1="84.8066" x2="11.2738" y2="89.9141" gradientUnits="userSpaceOnUse">
<stop stop-color="#846E55"/>
<stop offset="1" stop-color="#B3A55C"/>
</linearGradient>
<linearGradient id="paint4_linear_1785_19433" x1="146.044" y1="22.895" x2="187.498" y2="13.453" gradientUnits="userSpaceOnUse">
<stop stop-color="#846E55"/>
<stop offset="1" stop-color="#B3A55C"/>
</linearGradient>
<linearGradient id="paint5_linear_1785_19433" x1="169.732" y1="37.6275" x2="167.481" y2="40.4905" gradientUnits="userSpaceOnUse">
<stop stop-color="#846E55"/>
<stop offset="1" stop-color="#B3A55C"/>
</linearGradient>
<linearGradient id="paint6_linear_1785_19433" x1="165.33" y1="38.4673" x2="163.795" y2="40.4203" gradientUnits="userSpaceOnUse">
<stop stop-color="#846E55"/>
<stop offset="1" stop-color="#B3A55C"/>
</linearGradient>
<linearGradient id="paint7_linear_1785_19433" x1="169.42" y1="11.7382" x2="173.922" y2="10.7128" gradientUnits="userSpaceOnUse">
<stop stop-color="#846E55"/>
<stop offset="1" stop-color="#B3A55C"/>
</linearGradient>
<linearGradient id="paint8_linear_1785_19433" x1="39.5125" y1="11.1275" x2="228.482" y2="95.9133" gradientUnits="userSpaceOnUse">
<stop stop-color="#846E55"/>
<stop offset="1" stop-color="#B3A55C"/>
</linearGradient>
<linearGradient id="paint9_linear_1785_19433" x1="59.6135" y1="112.245" x2="125.002" y2="-33.4913" gradientUnits="userSpaceOnUse">
<stop stop-color="#846E55"/>
<stop offset="1" stop-color="#B3A55C"/>
</linearGradient>
<linearGradient id="paint10_linear_1785_19433" x1="83.5547" y1="54.2103" x2="129.7" y2="74.914" gradientUnits="userSpaceOnUse">
<stop stop-color="#846E55"/>
<stop offset="1" stop-color="#B3A55C"/>
</linearGradient>
<linearGradient id="paint11_linear_1785_19433" x1="107.154" y1="47.9641" x2="128.128" y2="53.3911" gradientUnits="userSpaceOnUse">
<stop stop-color="#846E55"/>
<stop offset="1" stop-color="#B3A55C"/>
</linearGradient>
</defs>
</svg>
