<svg width="185" height="145" viewBox="0 0 185 145" fill="none" xmlns="http://www.w3.org/2000/svg">
<g opacity="0.272">
<path d="M41.7488 133.977C60.0371 133.977 74.8627 119.151 74.8627 100.863C74.8627 82.5746 60.0371 67.749 41.7488 67.749C23.4604 67.749 8.63477 82.5746 8.63477 100.863C8.63477 119.151 23.4604 133.977 41.7488 133.977Z" fill="url(#paint0_linear_2271_12359)"/>
<path d="M50.8238 143.215C51.2597 143.568 51.7905 143.784 52.349 143.835C52.9076 143.886 53.4688 143.771 53.9618 143.503C54.4548 143.236 54.8573 142.828 55.1186 142.332C55.3798 141.835 55.488 141.273 55.4295 140.715C55.371 140.157 55.1484 139.629 54.7899 139.198C54.4313 138.766 53.9529 138.451 53.4152 138.292C52.8774 138.132 52.3044 138.136 51.7687 138.302C51.233 138.468 50.7585 138.789 50.4053 139.225C49.9319 139.81 49.71 140.558 49.7884 141.307C49.8669 142.055 50.2393 142.741 50.8238 143.215Z" fill="url(#paint1_linear_2271_12359)"/>
<path d="M61.0183 137.225C61.3161 137.466 61.6787 137.613 62.0603 137.649C62.4419 137.684 62.8253 137.605 63.1621 137.422C63.4989 137.239 63.7738 136.96 63.9523 136.621C64.1307 136.282 64.2045 135.898 64.1645 135.517C64.1244 135.136 63.9723 134.775 63.7272 134.48C63.4822 134.186 63.1553 133.97 62.7879 133.861C62.4204 133.753 62.029 133.755 61.663 133.869C61.2971 133.982 60.973 134.202 60.7319 134.5C60.4085 134.899 60.257 135.411 60.3107 135.922C60.3644 136.433 60.6189 136.902 61.0183 137.225Z" fill="url(#paint2_linear_2271_12359)"/>
<path d="M3.59752 91.6617C4.30905 91.6617 5.00459 91.4507 5.5962 91.0554C6.18781 90.6601 6.64892 90.0983 6.92121 89.4409C7.19349 88.7835 7.26474 88.0602 7.12592 87.3624C6.98711 86.6645 6.64448 86.0235 6.14136 85.5204C5.63824 85.0172 4.99722 84.6746 4.29937 84.5358C3.60152 84.397 2.87817 84.4682 2.22081 84.7405C1.56345 85.0128 1.00159 85.4739 0.606292 86.0655C0.210991 86.6571 0 87.3527 0 88.0642C0 89.0183 0.379023 89.9334 1.05369 90.608C1.72836 91.2827 2.6434 91.6617 3.59752 91.6617Z" fill="url(#paint3_linear_2271_12359)"/>
</g>
<g opacity="0.272">
<path d="M170.191 33.9499C175.598 29.8758 176.679 22.1896 172.605 16.7823C168.531 11.375 160.845 10.2942 155.437 14.3683C150.03 18.4424 148.949 26.1286 153.023 31.5359C157.097 36.9432 164.784 38.024 170.191 33.9499Z" fill="url(#paint4_linear_2271_12359)"/>
<path d="M169.566 38.7014C169.516 38.9029 169.407 39.085 169.253 39.2246C169.1 39.3642 168.908 39.4551 168.703 39.4858C168.497 39.5165 168.287 39.4856 168.099 39.397C167.912 39.3084 167.754 39.1661 167.647 38.988C167.54 38.81 167.489 38.6043 167.499 38.3969C167.509 38.1894 167.58 37.9896 167.703 37.8227C167.827 37.6558 167.997 37.5292 168.193 37.4591C168.388 37.3889 168.6 37.3783 168.802 37.4285C169.072 37.4959 169.304 37.6679 169.447 37.9066C169.591 38.1453 169.634 38.4312 169.566 38.7014Z" fill="url(#paint5_linear_2271_12359)"/>
<path d="M165.217 39.1998C165.183 39.3373 165.109 39.4615 165.004 39.5567C164.899 39.652 164.768 39.714 164.628 39.7349C164.488 39.7558 164.345 39.7348 164.217 39.6743C164.089 39.6139 163.981 39.5168 163.908 39.3954C163.835 39.2739 163.8 39.1336 163.807 38.9921C163.814 38.8506 163.862 38.7143 163.947 38.6004C164.031 38.4866 164.147 38.4002 164.28 38.3524C164.414 38.3045 164.558 38.2973 164.696 38.3316C164.88 38.3778 165.038 38.4952 165.136 38.6579C165.234 38.8207 165.263 39.0156 165.217 39.1998Z" fill="url(#paint6_linear_2271_12359)"/>
<path d="M172.042 12.9387C171.832 13.0971 171.58 13.1896 171.317 13.2046C171.054 13.2195 170.792 13.1561 170.566 13.0224C170.339 12.8888 170.157 12.6909 170.042 12.4537C169.928 12.2165 169.886 11.9508 169.923 11.6901C169.96 11.4293 170.073 11.1853 170.248 10.9889C170.424 10.7925 170.653 10.6525 170.908 10.5866C171.163 10.5207 171.432 10.5318 171.68 10.6186C171.929 10.7055 172.146 10.864 172.305 11.0743C172.517 11.3563 172.609 11.7112 172.56 12.0608C172.51 12.4104 172.324 12.7262 172.042 12.9387Z" fill="url(#paint7_linear_2271_12359)"/>
</g>
<path d="M100.988 129.143C136.65 129.143 165.559 100.233 165.559 64.5715C165.559 28.9097 136.65 0 100.988 0C65.3258 0 36.416 28.9097 36.416 64.5715C36.416 100.233 65.3258 129.143 100.988 129.143Z" fill="#F6F2ED"/>
<path d="M100.988 127.893C135.959 127.893 164.309 99.543 164.309 64.5715C164.309 29.6 135.959 1.25 100.988 1.25C66.0161 1.25 37.666 29.6 37.666 64.5715C37.666 99.543 66.0161 127.893 100.988 127.893Z" stroke="#272421" stroke-width="2"/>
<path d="M160.773 65.2074C160.785 73.1235 159.222 80.9628 156.175 88.2689C153.127 95.5749 148.657 102.201 143.023 107.763C137.523 113.24 130.994 117.577 123.811 120.522C116.629 123.468 108.935 124.964 101.173 124.925C89.3563 124.948 77.7986 121.466 67.9624 114.918C58.1261 108.37 50.4535 99.0511 45.9155 88.1408C41.3775 77.2306 40.1782 65.2194 42.4693 53.6273C44.7603 42.0352 50.4389 31.3833 58.7862 23.0197C67.1335 14.6561 77.7743 8.95681 89.362 6.64314C100.95 4.32947 112.963 5.5055 123.882 10.0222C134.801 14.5389 144.135 22.1934 150.702 32.0168C157.269 41.8402 160.775 53.391 160.774 65.2074H160.773Z" fill="url(#paint8_linear_2271_12359)"/>
<path d="M101.205 119.91C131.556 119.91 156.161 95.3062 156.161 64.9552C156.161 34.6043 131.556 10 101.205 10C70.8544 10 46.25 34.6043 46.25 64.9552C46.25 95.3062 70.8544 119.91 101.205 119.91Z" fill="#F6F2ED"/>
<path d="M101.205 118.66C130.866 118.66 154.911 94.6158 154.911 64.9552C154.911 35.2947 130.866 11.25 101.205 11.25C71.5447 11.25 47.5 35.2947 47.5 64.9552C47.5 94.6158 71.5447 118.66 101.205 118.66Z" stroke="#272421" stroke-width="2"/>
<path d="M101.32 18.726C75.8839 18.726 55.2637 39.3461 55.2637 64.7824C55.2637 90.2187 75.8839 110.839 101.32 110.839C126.757 110.839 147.377 90.2187 147.377 64.7824C147.377 39.3461 126.757 18.726 101.32 18.726Z" stroke="url(#paint9_linear_2271_12359)" stroke-width="1.5" stroke-dasharray="1.5 1.5"/>
<path d="M112.156 47.0015C112.9 47.0038 113.613 47.3008 114.139 47.8267C114.664 48.3527 114.961 49.0655 114.963 49.8091C114.967 52.2606 114.967 54.7124 114.963 57.1636C114.962 57.9103 114.666 58.6269 114.138 59.1548C113.61 59.6827 112.893 59.9793 112.147 59.98C109.854 59.9836 107.56 59.9828 105.268 59.9781C105.142 59.9781 105.066 60.0138 104.994 60.1177C104.75 60.4752 104.493 60.8241 104.239 61.1812C104.624 61.2821 105.006 61.3522 105.365 61.481C108.068 62.4512 109.767 64.3333 110.323 67.1539C111.075 70.97 108.531 74.7662 104.721 75.6089C103.48 75.8832 102.249 75.8507 101.03 75.4751C100.911 75.4399 100.841 75.4652 100.757 75.5494C98.6974 77.6135 96.6368 79.677 94.5752 81.7388C94.3988 81.9177 94.2045 82.0016 93.9502 81.9996C92.898 81.9907 91.8453 81.996 90.793 81.9956C90.347 81.9955 90.13 81.7804 90.1299 81.3404C90.1299 80.0825 90.1322 78.8242 90.128 77.566C90.1237 77.4666 90.1404 77.3671 90.1778 77.2749C90.2152 77.1827 90.2724 77.0992 90.3448 77.0308C90.6937 76.6901 91.0397 76.3446 91.3809 75.9956C91.4446 75.927 91.523 75.8725 91.6094 75.8365C91.6958 75.8006 91.7893 75.7835 91.8828 75.7867C92.2294 75.7909 92.5771 75.7867 92.9522 75.7867V74.6578C92.9563 74.5856 92.9726 74.5141 93 74.4468C93.0367 74.3573 93.0928 74.2769 93.1641 74.2115C93.326 74.058 93.4836 73.8984 93.6377 73.7369C93.7008 73.6673 93.7788 73.6122 93.8653 73.5757C93.952 73.5393 94.0466 73.5224 94.1407 73.5259C94.4867 73.5316 94.8337 73.5259 95.209 73.5259V72.4478C95.2167 72.0946 95.2892 72.0824 95.792 71.5992C95.919 71.4771 96.0449 71.3516 96.1768 71.2359C96.2569 71.1655 96.2778 71.1019 96.2373 70.9937C95.8339 69.9351 95.6885 68.7954 95.8135 67.6695C95.9816 66.1307 96.5739 64.7714 97.5948 63.605C98.2581 62.8457 99.075 62.2341 99.9903 61.8111C100.022 61.7964 100.054 61.7798 100.084 61.7622C100.093 61.7567 100.099 61.7444 100.114 61.7242C99.8001 61.2837 99.4589 60.8553 99.1758 60.3912C98.9729 60.0587 98.732 59.9672 98.3506 59.9703C96.1877 59.9911 94.0236 59.9818 91.8604 59.98C90.4694 59.98 89.3326 59.0548 89.0537 57.6949C89.0193 57.5222 89.0025 57.3465 89.003 57.1705C88.9997 54.7133 88.9997 52.2557 89.003 49.7984C89.0055 48.2663 90.2679 47.0024 91.8028 47.0015C98.5869 46.9987 105.372 46.9987 112.156 47.0015ZM108.635 71.2417C107.837 72.8107 106.379 74.0168 104.558 74.4576C103.369 74.7449 102.192 74.6838 101.043 74.2603C100.721 74.1416 100.473 74.2035 100.231 74.4449C98.1528 76.531 96.0717 78.6156 93.9883 80.6968C93.942 80.7476 93.8839 80.7877 93.8203 80.814C93.7568 80.8402 93.6878 80.8524 93.6192 80.8492C92.9081 80.8414 92.1965 80.8453 91.4854 80.8453L91.2715 80.8521V80.6617C91.2715 79.733 91.2687 78.8042 91.2754 77.8755C91.2774 77.833 91.2859 77.7907 91.3008 77.7515C91.2844 77.7925 91.2756 77.8367 91.2735 77.8814C91.2668 78.81 91.2696 79.7389 91.2696 80.6675L91.2705 80.8521H91.4825C92.1937 80.8521 92.906 80.8473 93.6172 80.855C93.6858 80.8582 93.7549 80.8471 93.8184 80.8208C93.882 80.7945 93.94 80.7536 93.9864 80.7027C96.0656 78.6178 98.147 76.534 100.23 74.4517C100.47 74.2102 100.718 74.1483 101.041 74.2671C102.19 74.6907 103.367 74.7517 104.556 74.4644C106.378 74.0231 107.837 72.8143 108.635 71.2427V71.2417ZM94.0928 75.0601C94.0928 75.46 94.0726 75.8611 94.0987 76.2603C94.1049 76.3548 94.0926 76.4457 94.0645 76.5279C94.094 76.4442 94.107 76.3515 94.1006 76.2544C94.0745 75.8566 94.095 75.4546 94.0957 75.0533C94.0952 75.0264 94.0975 74.9995 94.1026 74.9732C94.0965 75.0017 94.0922 75.0308 94.0928 75.0601ZM96.3799 72.6665C96.3544 72.7245 96.3438 72.7879 96.3477 72.8511C96.3565 73.2622 96.3518 73.6739 96.3496 74.0865C96.3496 74.1298 96.3451 74.1718 96.3379 74.2115C96.3461 74.1699 96.3523 74.1263 96.3526 74.0806C96.3547 73.669 96.3585 73.2566 96.3496 72.8443C96.3478 72.8135 96.3493 72.7827 96.3545 72.7525L96.3799 72.6665ZM97.1797 66.6646C97.0131 67.2261 96.9277 67.816 96.9219 68.4322C96.9144 69.2981 97.0948 70.1557 97.4512 70.9449C97.5312 71.1242 97.5606 71.2605 97.5352 71.3863C97.5633 71.2587 97.5356 71.1205 97.4541 70.938C97.0978 70.149 96.9164 69.2921 96.9239 68.4263C96.9296 67.8125 97.0145 67.2242 97.1797 66.6646ZM104.805 64.4869C103.567 64.4848 102.558 65.4892 102.529 66.7027C102.499 67.986 103.583 69.0384 104.787 69.0289C106.042 69.0182 107.052 68.0308 107.082 66.8101C107.11 65.5253 106.024 64.4554 104.805 64.4869ZM91.0694 48.3247C90.4964 48.6033 90.1369 49.1787 90.1367 49.9058C90.1353 52.2803 90.1353 54.6558 90.1367 57.0308C90.1342 57.2067 90.1517 57.3825 90.1895 57.5542C90.3773 58.3381 91.0466 58.8457 91.8838 58.8462C94.2823 58.8476 96.6817 58.8476 99.0801 58.8462C99.3402 58.8464 99.5257 58.9433 99.6739 59.1529C100.155 59.8345 100.643 60.5121 101.128 61.191C101.359 61.5088 101.588 61.8296 101.828 62.1636C101.589 61.8296 101.359 61.509 101.132 61.19C100.646 60.5111 100.159 59.8336 99.6778 59.1519C99.5295 58.9403 99.3444 58.8436 99.084 58.8443C96.6854 58.8485 94.2863 58.8485 91.8877 58.8443C91.0495 58.8441 90.3802 58.3371 90.1934 57.5533C90.1556 57.3814 90.138 57.2048 90.1407 57.0289C90.1376 54.6542 90.1376 52.2795 90.1407 49.9048C90.1407 49.1791 90.4987 48.6041 91.0694 48.3247ZM104.757 58.854C104.801 58.8475 104.847 58.8432 104.897 58.8433C107.283 58.849 109.67 58.85 112.057 58.8462C112.317 58.8462 112.558 58.7999 112.772 58.7154C112.559 58.7989 112.319 58.8451 112.061 58.8453C109.674 58.8467 107.287 58.8456 104.9 58.8423C104.85 58.8423 104.802 58.847 104.757 58.854ZM93.542 56.0259C93.1989 56.0261 92.9488 56.2639 92.9444 56.5845C92.9401 56.9199 93.1867 57.1673 93.5352 57.1705H95.7383C96.0914 57.1705 96.3453 56.9311 96.3467 56.6021C96.3481 56.2731 96.0967 56.027 95.7461 56.0259C95.0118 56.024 94.2768 56.024 93.542 56.0259ZM103.701 56.0269C103.348 56.0269 103.101 56.2713 103.105 56.606C103.108 56.9292 103.358 57.1705 103.698 57.1705H105.92C106.258 57.1678 106.506 56.9232 106.507 56.6001C106.508 56.2768 106.26 56.028 105.922 56.0269C105.182 56.0245 104.442 56.0245 103.701 56.0269ZM109.9 56.0259H108.772C108.431 56.0284 108.184 56.2666 108.182 56.5923C108.179 56.9182 108.428 57.1671 108.764 57.1685C109.51 57.1711 110.256 57.1711 111.002 57.1685C111.339 57.1685 111.585 56.9197 111.584 56.5933C111.583 56.2667 111.332 56.0278 110.993 56.0249C110.629 56.0232 110.265 56.0256 109.9 56.0259ZM99.7237 56.0259H98.6143C98.2722 56.028 98.0263 56.2663 98.0244 56.5904C98.0227 56.9145 98.2694 57.1661 98.6055 57.1675C99.3516 57.1699 100.098 57.1699 100.844 57.1675C101.18 57.1675 101.427 56.918 101.426 56.5923C101.425 56.2665 101.174 56.0274 100.835 56.0249C100.464 56.0242 100.094 56.0259 99.7237 56.0259ZM103.712 53.2066C103.357 53.2068 103.107 53.4439 103.105 53.7749C103.106 54.1125 103.357 54.349 103.723 54.3501C104.079 54.3491 104.437 54.3482 104.796 54.3482H105.907C106.257 54.345 106.508 54.1032 106.508 53.771C106.506 53.4484 106.255 53.2066 105.916 53.2066C105.181 53.2045 104.446 53.2045 103.712 53.2066ZM93.5518 53.2046C93.1965 53.2047 92.9455 53.4413 92.9444 53.7691C92.9433 54.097 93.1911 54.3436 93.544 54.3462C93.9058 54.3505 94.2705 54.3482 94.6348 54.3482L94.6358 54.3492H95.7285C96.0929 54.3492 96.3475 54.1088 96.3457 53.772C96.3455 53.4429 96.0921 53.2054 95.7383 53.2046C95.0087 53.2032 94.2795 53.2032 93.5518 53.2046ZM108.788 53.2056C108.433 53.2058 108.184 53.4432 108.183 53.7749C108.181 54.1068 108.433 54.3474 108.783 54.3492C109.148 54.3499 109.513 54.3482 109.877 54.3482H110.987C111.338 54.3464 111.588 54.1033 111.585 53.7701C111.582 53.4479 111.331 53.2056 110.992 53.2056C110.258 53.2037 109.523 53.2037 108.788 53.2056ZM99.7412 53.2037H98.5967C98.2677 53.2068 98.0252 53.4513 98.0235 53.7691C98.0218 54.0956 98.2685 54.3452 98.6045 54.3462C99.3508 54.3491 100.097 54.3491 100.844 54.3462C101.18 54.3461 101.426 54.0966 101.426 53.771C101.425 53.4452 101.174 53.2055 100.835 53.2027C100.47 53.2016 100.105 53.2037 99.7412 53.2037ZM98.6075 50.3843C98.2682 50.3843 98.0244 50.6316 98.0254 50.9585C98.0266 51.2854 98.2751 51.5258 98.6143 51.5279C98.9824 51.5289 99.3524 51.5273 99.7227 51.5269H100.853C100.929 51.5282 101.005 51.5139 101.076 51.4849C101.147 51.4559 101.212 51.4125 101.266 51.358C101.319 51.3035 101.361 51.2387 101.389 51.1675C101.416 51.0963 101.429 51.0203 101.427 50.9439C101.423 50.6305 101.174 50.3856 100.847 50.3843C100.1 50.3815 99.3537 50.3815 98.6075 50.3843ZM108.789 50.3843C108.434 50.3843 108.184 50.6222 108.183 50.9537C108.181 51.285 108.433 51.5261 108.783 51.5279C109.147 51.5279 109.512 51.5269 109.876 51.5269H110.987C111.338 51.5269 111.588 51.2817 111.585 50.9488C111.582 50.6267 111.332 50.3845 110.993 50.3843C110.259 50.3827 109.524 50.3827 108.789 50.3843ZM93.542 50.3833C93.1989 50.3834 92.9482 50.6207 92.9444 50.9419C92.9402 51.2768 93.1869 51.523 93.5352 51.5259C93.8984 51.5287 94.263 51.5265 94.628 51.5269H95.7383C96.0914 51.5269 96.3443 51.287 96.3457 50.9576C96.3469 50.6285 96.0961 50.3842 95.7461 50.3833C95.0118 50.3817 94.2768 50.3817 93.542 50.3833ZM103.686 50.3833C103.348 50.3833 103.103 50.6329 103.105 50.9605C103.106 51.2878 103.356 51.5248 103.695 51.5249C104.058 51.5285 104.423 51.5269 104.787 51.5269H105.917C106.257 51.5244 106.505 51.283 106.507 50.9585C106.509 50.6342 106.259 50.3844 105.924 50.3833C105.178 50.3812 104.432 50.3812 103.686 50.3833Z" fill="url(#paint10_linear_2271_12359)"/>
<path d="M105.932 66.7613C105.931 66.9847 105.864 67.2029 105.74 67.3882C105.615 67.5736 105.438 67.7179 105.232 67.8028C105.025 67.8877 104.798 67.9094 104.579 67.8653C104.36 67.8211 104.159 67.713 104.001 67.5547C103.844 67.3963 103.737 67.1948 103.694 66.9756C103.65 66.7564 103.673 66.5294 103.759 66.3232C103.845 66.117 103.99 65.9409 104.176 65.8172C104.362 65.6935 104.581 65.6276 104.804 65.6281C105.104 65.6291 105.391 65.749 105.602 65.9615C105.814 66.1739 105.932 66.4616 105.932 66.7613Z" fill="url(#paint11_linear_2271_12359)"/>
<defs>
<linearGradient id="paint0_linear_2271_12359" x1="7.62365" y1="70.8764" x2="112.406" y2="117.89" gradientUnits="userSpaceOnUse">
<stop stop-color="#846E55"/>
<stop offset="1" stop-color="#B3A55C"/>
</linearGradient>
<linearGradient id="paint1_linear_2271_12359" x1="51.9536" y1="137.175" x2="56.3942" y2="145.953" gradientUnits="userSpaceOnUse">
<stop stop-color="#846E55"/>
<stop offset="1" stop-color="#B3A55C"/>
</linearGradient>
<linearGradient id="paint2_linear_2271_12359" x1="61.79" y1="133.099" x2="64.8235" y2="139.095" gradientUnits="userSpaceOnUse">
<stop stop-color="#846E55"/>
<stop offset="1" stop-color="#B3A55C"/>
</linearGradient>
<linearGradient id="paint3_linear_2271_12359" x1="-0.109848" y1="84.8064" x2="11.2738" y2="89.914" gradientUnits="userSpaceOnUse">
<stop stop-color="#846E55"/>
<stop offset="1" stop-color="#B3A55C"/>
</linearGradient>
<linearGradient id="paint4_linear_2271_12359" x1="146.044" y1="22.895" x2="187.498" y2="13.453" gradientUnits="userSpaceOnUse">
<stop stop-color="#846E55"/>
<stop offset="1" stop-color="#B3A55C"/>
</linearGradient>
<linearGradient id="paint5_linear_2271_12359" x1="169.732" y1="37.6275" x2="167.481" y2="40.4905" gradientUnits="userSpaceOnUse">
<stop stop-color="#846E55"/>
<stop offset="1" stop-color="#B3A55C"/>
</linearGradient>
<linearGradient id="paint6_linear_2271_12359" x1="165.33" y1="38.4673" x2="163.795" y2="40.4203" gradientUnits="userSpaceOnUse">
<stop stop-color="#846E55"/>
<stop offset="1" stop-color="#B3A55C"/>
</linearGradient>
<linearGradient id="paint7_linear_2271_12359" x1="169.42" y1="11.7382" x2="173.922" y2="10.7128" gradientUnits="userSpaceOnUse">
<stop stop-color="#846E55"/>
<stop offset="1" stop-color="#B3A55C"/>
</linearGradient>
<linearGradient id="paint8_linear_2271_12359" x1="39.5125" y1="11.1273" x2="228.482" y2="95.9132" gradientUnits="userSpaceOnUse">
<stop stop-color="#846E55"/>
<stop offset="1" stop-color="#B3A55C"/>
</linearGradient>
<linearGradient id="paint9_linear_2271_12359" x1="59.6135" y1="112.245" x2="125.002" y2="-33.4913" gradientUnits="userSpaceOnUse">
<stop stop-color="#846E55"/>
<stop offset="1" stop-color="#B3A55C"/>
</linearGradient>
<linearGradient id="paint10_linear_2271_12359" x1="88.6041" y1="48.6522" x2="133.033" y2="63.4404" gradientUnits="userSpaceOnUse">
<stop stop-color="#846E55"/>
<stop offset="1" stop-color="#B3A55C"/>
</linearGradient>
<linearGradient id="paint11_linear_2271_12359" x1="103.638" y1="65.7348" x2="107.213" y2="67.3387" gradientUnits="userSpaceOnUse">
<stop stop-color="#846E55"/>
<stop offset="1" stop-color="#B3A55C"/>
</linearGradient>
</defs>
</svg>
