<svg width="287" height="220" viewBox="0 0 287 220" fill="none" xmlns="http://www.w3.org/2000/svg">
<path d="M137.608 206.465C194.34 206.465 240.331 160.474 240.331 103.742C240.331 47.0101 194.34 1.01953 137.608 1.01953C80.8758 1.01953 34.8853 47.0101 34.8853 103.742C34.8853 160.474 80.8758 206.465 137.608 206.465Z" fill="#C3B075" fill-opacity="0.1"/>
<path opacity="0.2" d="M268.127 108.573C269.317 108.573 270.479 108.22 271.468 107.559C272.457 106.898 273.228 105.959 273.683 104.86C274.139 103.761 274.258 102.552 274.026 101.386C273.794 100.219 273.221 99.1474 272.38 98.3064C271.539 97.4653 270.467 96.8925 269.3 96.6605C268.134 96.4284 266.925 96.5475 265.826 97.0027C264.727 97.4579 263.788 98.2287 263.127 99.2177C262.466 100.207 262.113 101.369 262.113 102.559C262.113 104.154 262.747 105.683 263.875 106.811C265.003 107.939 266.532 108.573 268.127 108.573Z" fill="#272421"/>
<path d="M59.0388 206.467H57.1816V210.071H59.0388V206.467Z" fill="#272421"/>
<path d="M59.0388 216.395H57.1816V219.999H59.0388V216.395Z" fill="#272421"/>
<path d="M64.8787 212.305H61.2744V214.162H64.8787V212.305Z" fill="#272421"/>
<path d="M54.9475 212.305H51.3433V214.162H54.9475V212.305Z" fill="#272421"/>
<path d="M6.62021 52.3596C8.65358 52.3596 10.302 50.7112 10.302 48.6778C10.302 46.6445 8.65358 44.9961 6.62021 44.9961C4.58685 44.9961 2.93848 46.6445 2.93848 48.6778C2.93848 50.7112 4.58685 52.3596 6.62021 52.3596Z" fill="#272421"/>
<path d="M283.071 117.703C284.873 117.703 286.334 116.243 286.334 114.441C286.334 112.639 284.873 111.178 283.071 111.178C281.269 111.178 279.808 112.639 279.808 114.441C279.808 116.243 281.269 117.703 283.071 117.703Z" fill="#272421"/>
<path d="M232.746 23.9363C234.359 23.9363 235.667 22.6289 235.667 21.016C235.667 19.4032 234.359 18.0957 232.746 18.0957C231.134 18.0957 229.826 19.4032 229.826 21.016C229.826 22.6289 231.134 23.9363 232.746 23.9363Z" fill="#272421"/>
<path d="M170.307 72.4324C166.301 72.4372 162.427 70.9967 159.396 68.3754C156.366 65.7541 154.383 62.1278 153.811 58.1621C153.811 58.1468 153.811 58.1305 153.805 58.1142C153.695 57.3376 153.639 56.5542 153.64 55.7698C153.64 55.3988 153.653 55.0359 153.68 54.672C153.692 54.5199 153.672 54.3672 153.621 54.2232C153.571 54.0793 153.491 53.9472 153.388 53.8354C153.284 53.7236 153.158 53.6343 153.019 53.5733C152.879 53.5122 152.728 53.4806 152.575 53.4805H122.599C119.858 53.4826 117.231 54.5716 115.293 56.5084C113.354 58.4453 112.263 61.0719 112.259 63.8122V159.459C112.262 162.2 113.352 164.828 115.291 166.767C117.229 168.705 119.857 169.796 122.599 169.799H161.075C163.817 169.796 166.445 168.705 168.384 166.767C170.322 164.828 171.412 162.2 171.415 159.459V73.5404C171.415 73.2466 171.299 72.9647 171.091 72.757C170.883 72.5492 170.601 72.4324 170.307 72.4324ZM169.199 159.454C169.197 161.608 168.34 163.673 166.817 165.196C165.294 166.719 163.229 167.575 161.075 167.578H122.599C120.445 167.575 118.38 166.719 116.857 165.196C115.334 163.673 114.477 161.608 114.475 159.454V63.8071C114.478 61.6542 115.336 59.5906 116.859 58.069C118.381 56.5474 120.446 55.6919 122.599 55.6903H151.424V55.7637C151.423 56.6404 151.484 57.5161 151.605 58.3843C151.605 58.3996 151.605 58.4159 151.61 58.4312C152.22 62.7458 154.306 66.7159 157.512 69.6666C160.719 72.6173 164.848 74.3665 169.198 74.6168L169.199 159.454Z" fill="#272421"/>
<path d="M166.84 72.0772C163.501 71.3643 160.461 69.6445 158.129 67.1496C155.798 64.6547 154.288 61.5049 153.802 58.1249L153.668 57.1719H122.602C120.841 57.173 119.152 57.8726 117.906 59.1174C116.66 60.3621 115.959 62.0504 115.956 63.8117V159.458C115.957 161.221 116.658 162.91 117.904 164.156C119.151 165.402 120.84 166.103 122.602 166.105H161.079C162.842 166.103 164.531 165.402 165.777 164.156C167.023 162.91 167.724 161.221 167.726 159.458V72.2617L166.84 72.0772ZM165.504 159.459C165.503 160.634 165.035 161.76 164.205 162.591C163.374 163.422 162.248 163.889 161.073 163.89H122.602C121.428 163.889 120.301 163.422 119.47 162.591C118.639 161.761 118.172 160.634 118.171 159.459V63.8117C118.173 62.6377 118.641 61.5127 119.472 60.6833C120.303 59.854 121.429 59.3881 122.602 59.3879H151.775C152.46 62.8725 154.111 66.0941 156.54 68.6847C158.969 71.2752 162.078 73.1301 165.511 74.0373V159.455L165.504 159.459Z" fill="url(#paint0_linear_861_37774)"/>
<path d="M250.739 72.3563C249.561 72.2364 248.4 71.9928 247.273 71.6296L247.207 71.6102C244.257 70.6386 241.636 68.8656 239.637 66.4894C237.638 64.1132 236.339 61.2276 235.886 58.1553C235.886 58.139 235.886 58.1217 235.879 58.1064C235.768 57.3299 235.713 56.5465 235.713 55.762C235.713 55.391 235.726 55.0281 235.754 54.6642C235.765 54.5121 235.745 54.3593 235.695 54.2154C235.645 54.0714 235.565 53.9394 235.461 53.8276C235.358 53.7158 235.232 53.6265 235.092 53.5654C234.952 53.5044 234.802 53.4728 234.649 53.4727H202.915C200.175 53.4751 197.548 54.5641 195.61 56.501C193.671 58.4378 192.58 61.0643 192.576 63.8044V159.451C192.579 162.192 193.669 164.821 195.608 166.759C197.546 168.698 200.175 169.788 202.916 169.791H241.393C244.134 169.788 246.762 168.698 248.701 166.759C250.639 164.821 251.73 162.192 251.733 159.451V73.4572C251.733 73.1833 251.631 72.9191 251.447 72.7157C251.264 72.5124 251.011 72.3843 250.739 72.3563ZM249.516 159.453C249.513 161.607 248.657 163.672 247.134 165.195C245.611 166.718 243.546 167.575 241.392 167.577H202.915C200.761 167.575 198.696 166.718 197.173 165.195C195.65 163.672 194.794 161.607 194.791 159.453V63.8054C194.795 61.6525 195.652 59.5889 197.175 58.0673C198.698 56.5457 200.762 55.6902 202.915 55.6886H233.494V55.762C233.494 56.6388 233.555 57.5145 233.678 58.3827C233.678 58.3979 233.678 58.4132 233.683 58.4275C234.191 61.9281 235.669 65.2167 237.948 67.9218C240.227 70.6269 243.217 72.6406 246.581 73.7355C246.603 73.7416 246.624 73.7487 246.645 73.7528C247.582 74.0523 248.541 74.2783 249.513 74.4286V159.451L249.516 159.453Z" fill="#272421"/>
<path d="M248.031 71.8815L247.262 71.6338C244.294 70.6677 241.654 68.8907 239.643 66.5036C237.631 64.1164 236.327 61.2142 235.878 58.1249L235.744 57.1719H202.914C201.153 57.173 199.464 57.8726 198.218 59.1174C196.972 60.3621 196.27 62.0503 196.267 63.8116V159.458C196.269 161.221 196.97 162.91 198.216 164.156C199.462 165.402 201.152 166.103 202.914 166.105H241.391C243.153 166.103 244.843 165.402 246.089 164.156C247.335 162.91 248.036 161.221 248.038 159.458L248.031 71.8815ZM241.391 163.89H202.914C201.739 163.889 200.613 163.422 199.782 162.591C198.952 161.76 198.484 160.634 198.483 159.459V63.8116C198.486 62.6379 198.953 61.513 199.784 60.6837C200.615 59.8544 201.74 59.3884 202.914 59.3878H233.845C234.474 62.5617 235.904 65.522 237.999 67.9878C240.094 70.4536 242.784 72.343 245.815 73.4767L245.822 159.459C245.82 160.634 245.353 161.76 244.522 162.591C243.692 163.422 242.566 163.889 241.391 163.89Z" fill="#272421"/>
<path d="M239.317 86.6133H206.274C205.98 86.6133 205.698 86.73 205.49 86.9378C205.282 87.1456 205.166 87.4274 205.166 87.7213V94.6199C205.166 94.9138 205.282 95.1956 205.49 95.4034C205.698 95.6112 205.98 95.7279 206.274 95.7279H239.317C239.611 95.7279 239.893 95.6112 240.101 95.4034C240.309 95.1956 240.425 94.9138 240.425 94.6199V87.7213C240.425 87.4274 240.309 87.1456 240.101 86.9378C239.893 86.73 239.611 86.6133 239.317 86.6133ZM238.209 93.5109H207.38V88.8282H238.21L238.209 93.5109Z" fill="#272421"/>
<path d="M239.317 99.0801H206.274C205.98 99.0801 205.698 99.1968 205.49 99.4046C205.282 99.6124 205.166 99.8942 205.166 100.188V107.086C205.166 107.38 205.282 107.661 205.49 107.869C205.698 108.077 205.98 108.194 206.274 108.194H239.317C239.611 108.194 239.893 108.077 240.101 107.869C240.309 107.661 240.425 107.38 240.425 107.086V100.188C240.425 99.8942 240.309 99.6124 240.101 99.4046C239.893 99.1968 239.611 99.0801 239.317 99.0801ZM238.209 105.978H207.38V101.295H238.21L238.209 105.978Z" fill="url(#paint1_linear_861_37774)"/>
<path d="M239.317 111.32H206.273C205.979 111.32 205.697 111.437 205.49 111.645C205.282 111.853 205.165 112.134 205.165 112.428V119.326C205.165 119.62 205.282 119.902 205.49 120.109C205.697 120.317 205.979 120.434 206.273 120.434H239.317C239.611 120.434 239.893 120.317 240.1 120.109C240.308 119.902 240.425 119.62 240.425 119.326V112.428C240.425 112.134 240.308 111.853 240.1 111.645C239.893 111.437 239.611 111.32 239.317 111.32ZM238.209 118.218H207.38V113.535H238.21L238.209 118.218Z" fill="#272421"/>
<path d="M239.317 123.787H206.273C205.979 123.787 205.697 123.904 205.49 124.112C205.282 124.319 205.165 124.601 205.165 124.895V131.794C205.165 132.088 205.282 132.369 205.49 132.577C205.697 132.785 205.979 132.902 206.273 132.902H239.317C239.611 132.902 239.893 132.785 240.1 132.577C240.308 132.369 240.425 132.088 240.425 131.794V124.895C240.425 124.601 240.308 124.319 240.1 124.112C239.893 123.904 239.611 123.787 239.317 123.787ZM238.209 130.685H207.38V126.002H238.21L238.209 130.685Z" fill="#272421"/>
<path d="M75.8321 44.7658L77.1572 46.5374C77.7331 46.1052 78.3243 45.6852 78.9155 45.2877L77.6791 43.4529C77.0624 43.8678 76.4396 44.3102 75.8321 44.7658ZM83.6339 40.1086L84.5584 42.1217C85.2169 41.8159 85.8835 41.5346 86.542 41.2726L85.7265 39.2126C85.0344 39.4888 84.328 39.7895 83.6339 40.1086ZM79.6066 42.2298L80.7431 44.1318C81.3547 43.7648 81.9897 43.4101 82.6237 43.0758L81.5912 41.1157C80.9225 41.4683 80.2559 41.8435 79.6066 42.2298ZM92.246 37.2168L92.722 39.3798C93.4151 39.2279 94.1266 39.0903 94.8391 38.9721L94.4783 36.7856C93.7311 36.912 92.985 37.0558 92.2491 37.2168H92.246ZM87.863 38.4308L88.5673 40.5316C89.2441 40.3043 89.9383 40.0923 90.6324 39.8996L90.0392 37.7652C89.3155 37.967 88.5785 38.1913 87.865 38.4308H87.863ZM64.003 58.4092L65.9397 59.4754C66.2863 58.8445 66.6532 58.2186 67.0273 57.6152L65.1447 56.4471C64.7502 57.079 64.37 57.7395 64.0041 58.4062L64.003 58.4092ZM62.0327 62.5038L64.0785 63.3559C64.3516 62.6985 64.6483 62.0369 64.9602 61.3917L62.9644 60.4305C62.6361 61.1084 62.3232 61.8066 62.0337 62.5007L62.0327 62.5038ZM96.733 36.4819L96.9766 38.6846C97.6789 38.6071 98.4036 38.546 99.1243 38.5042L98.9979 36.2923C98.2375 36.3321 97.47 36.3963 96.734 36.4778L96.733 36.4819ZM69.1903 50.9612L70.864 52.4137C71.337 51.8683 71.8272 51.3332 72.3196 50.8225L70.7254 49.2854C70.2065 49.8205 69.6898 50.3832 69.1913 50.9571L69.1903 50.9612ZM66.3984 54.5471L68.2158 55.8151C68.6236 55.2249 69.0578 54.6419 69.494 54.0823L67.7459 52.7225C67.2862 53.3076 66.8326 53.9222 66.3994 54.544L66.3984 54.5471ZM72.345 47.6892L73.8546 49.3099C74.3837 48.8176 74.927 48.3364 75.4713 47.8828L74.0442 46.1847C73.4765 46.6607 72.9046 47.1704 72.3461 47.6861L72.345 47.6892ZM133.465 50.6452L131.805 52.114C132.277 52.6471 132.744 53.2036 133.191 53.7663L134.923 52.3892C134.458 51.7909 133.961 51.2037 133.467 50.636L133.465 50.6452ZM136.293 54.2066L134.487 55.491C134.902 56.074 135.303 56.6754 135.69 57.2809L137.561 56.0954C137.159 55.4522 136.733 54.8152 136.295 54.2036L136.293 54.2066ZM130.279 47.4038L128.785 49.0347C129.311 49.5148 129.833 50.0193 130.338 50.531L131.917 48.9776C131.384 48.4384 130.834 47.9063 130.278 47.3997L130.279 47.4038ZM138.731 58.0484L136.795 59.1329C137.145 59.7578 137.484 60.3989 137.801 61.0411L139.787 60.0605C139.456 59.3796 139.101 58.7028 138.73 58.0443L138.731 58.0484ZM140.745 62.1256L138.706 62.9992C138.986 63.6515 139.253 64.3243 139.501 65.0031L141.583 64.2417C141.322 63.5262 141.039 62.8147 140.744 62.1246L140.745 62.1256ZM125.455 46.3009C126.028 46.7229 126.601 47.1683 127.155 47.626L128.562 45.9135C127.977 45.4324 127.372 44.9625 126.768 44.5181L125.455 46.3009ZM105.589 38.6418C106.302 38.7142 107.024 38.8069 107.729 38.916L108.068 36.7265C107.327 36.6124 106.568 36.5145 105.813 36.4381L105.589 38.6418ZM109.846 39.3033C110.546 39.4511 111.251 39.6193 111.943 39.8038L112.515 37.6633C111.785 37.4686 111.04 37.2912 110.303 37.1353L109.846 39.3033ZM121.855 43.9341C122.466 44.2939 123.086 44.6751 123.69 45.0696L124.907 43.2195C124.275 42.8036 123.625 42.4041 122.975 42.0208L121.855 43.9341ZM101.265 36.2199L101.289 38.4359H101.509C102.143 38.4359 102.792 38.4512 103.437 38.4828L103.539 36.2699C102.843 36.2362 102.143 36.2016 101.463 36.2199H101.265ZM118.025 41.9627C118.673 42.2522 119.326 42.5672 119.962 42.8964L120.976 40.9261C120.301 40.5795 119.611 40.2472 118.927 39.9414L118.025 41.9627ZM114.008 40.4144C114.683 40.6335 115.366 40.8761 116.037 41.135L116.835 39.0679C116.121 38.7947 115.408 38.5389 114.694 38.3075L114.008 40.4144Z" fill="#272421"/>
<path d="M60.8815 63.2461C59.8145 63.2461 58.7714 63.5625 57.8841 64.1553C56.9969 64.7482 56.3054 65.5908 55.897 66.5766C55.4887 67.5625 55.3818 68.6473 55.59 69.6938C55.7982 70.7404 56.312 71.7017 57.0666 72.4563C57.8211 73.2108 58.7824 73.7246 59.829 73.9328C60.8755 74.141 61.9603 74.0341 62.9462 73.6258C63.932 73.2174 64.7746 72.5259 65.3675 71.6387C65.9603 70.7515 66.2767 69.7084 66.2767 68.6413C66.2748 67.211 65.7058 65.8398 64.6944 64.8284C63.683 63.817 62.3118 63.248 60.8815 63.2461ZM60.8815 71.8215C60.2525 71.8215 59.6377 71.635 59.1147 71.2856C58.5917 70.9361 58.1841 70.4394 57.9434 69.8583C57.7027 69.2772 57.6397 68.6378 57.7624 68.0209C57.8851 67.404 58.188 66.8373 58.6328 66.3925C59.0775 65.9477 59.6442 65.6449 60.2611 65.5222C60.878 65.3995 61.5174 65.4624 62.0985 65.7031C62.6797 65.9438 63.1763 66.3514 63.5258 66.8744C63.8752 67.3974 64.0618 68.0123 64.0618 68.6413C64.061 69.4845 63.7256 70.2929 63.1294 70.8892C62.5332 71.4854 61.7247 71.8207 60.8815 71.8215Z" fill="#272421"/>
<path d="M141.89 63.2461C140.823 63.2461 139.78 63.5625 138.892 64.1553C138.005 64.7482 137.314 65.5908 136.905 66.5766C136.497 67.5625 136.39 68.6473 136.598 69.6938C136.806 70.7404 137.32 71.7017 138.075 72.4563C138.829 73.2108 139.791 73.7246 140.837 73.9328C141.884 74.141 142.969 74.0341 143.954 73.6258C144.94 73.2174 145.783 72.5259 146.376 71.6387C146.969 70.7515 147.285 69.7084 147.285 68.6413C147.283 67.211 146.714 65.8398 145.703 64.8284C144.691 63.817 143.32 63.248 141.89 63.2461ZM141.89 71.8215C141.261 71.8215 140.646 71.635 140.123 71.2856C139.6 70.9361 139.192 70.4394 138.952 69.8583C138.711 69.2772 138.648 68.6378 138.771 68.0209C138.893 67.404 139.196 66.8373 139.641 66.3925C140.086 65.9477 140.652 65.6449 141.269 65.5222C141.886 65.3995 142.526 65.4624 143.107 65.7031C143.688 65.9438 144.185 66.3514 144.534 66.8744C144.884 67.3974 145.07 68.0123 145.07 68.6413C145.069 69.4845 144.734 70.2929 144.138 70.8892C143.541 71.4854 142.733 71.8207 141.89 71.8215Z" fill="#272421"/>
<path d="M180.457 190.008C181.21 190.049 181.974 190.07 182.729 190.071V187.855C182.015 187.855 181.287 187.834 180.572 187.795L180.457 190.008ZM163.048 185.255C163.721 185.605 164.409 185.94 165.087 186.249L166.004 184.231C165.358 183.938 164.706 183.619 164.067 183.289L163.048 185.255ZM175.937 189.522C176.677 189.641 177.435 189.743 178.19 189.828L178.426 187.625C177.713 187.548 176.992 187.452 176.286 187.339L175.937 189.522ZM159.134 182.949C159.765 183.367 160.413 183.773 161.061 184.154L162.183 182.244C161.571 181.882 160.959 181.499 160.356 181.102L159.134 182.949ZM171.493 188.561C172.217 188.759 172.96 188.94 173.703 189.1L174.17 186.935C173.466 186.783 172.762 186.61 172.077 186.425L171.493 188.561ZM167.183 187.134C167.881 187.408 168.601 187.667 169.324 187.904L170.02 185.801C169.339 185.576 168.656 185.33 167.995 185.071L167.183 187.134ZM146.268 165.099L144.28 166.078C144.614 166.755 144.969 167.434 145.338 168.092L147.275 167.009C146.921 166.384 146.584 165.741 146.268 165.099ZM144.566 161.131L142.484 161.893C142.746 162.606 143.029 163.32 143.325 164.01L145.364 163.136C145.086 162.484 144.818 161.809 144.566 161.131ZM155.477 180.24C156.055 180.719 156.658 181.191 157.267 181.643L158.587 179.863C158.009 179.435 157.44 178.988 156.89 178.538L155.477 180.24ZM148.371 168.861L146.498 170.045C146.906 170.686 147.329 171.321 147.764 171.935L149.572 170.653C149.164 170.073 148.76 169.469 148.376 168.862L148.371 168.861ZM152.132 177.165C152.666 177.711 153.217 178.244 153.763 178.748L155.26 177.117C154.74 176.64 154.219 176.135 153.712 175.618L152.132 177.165ZM150.865 172.374L149.132 173.75C149.596 174.335 150.085 174.922 150.588 175.493L152.252 174.031C151.776 173.493 151.311 172.935 150.87 172.379L150.865 172.374ZM214.674 172.506L216.407 173.887C216.874 173.3 217.335 172.69 217.777 172.073L215.975 170.784C215.565 171.375 215.127 171.954 214.683 172.511L214.674 172.506ZM211.812 175.729L213.389 177.285C213.916 176.75 214.44 176.191 214.942 175.626L213.286 174.155C212.818 174.697 212.321 175.226 211.82 175.734L211.812 175.729ZM208.626 178.636L210.031 180.348C210.619 179.866 211.198 179.366 211.75 178.861L210.257 177.224C209.741 177.707 209.19 178.182 208.634 178.641L208.626 178.636ZM217.181 168.999L219.049 170.191C219.456 169.551 219.851 168.895 220.22 168.244L218.291 167.153C217.956 167.776 217.578 168.397 217.19 169.004L217.181 168.999ZM221.08 161.123L221.017 161.293L223.091 162.071L223.157 161.892L221.08 161.123ZM219.303 165.249L221.287 166.237C221.624 165.559 221.947 164.866 222.246 164.177L220.208 163.297C219.937 163.955 219.633 164.612 219.312 165.254L219.303 165.249ZM184.889 187.806L184.998 190.019C185.751 189.982 186.513 189.925 187.265 189.847L187.038 187.643C186.327 187.716 185.603 187.771 184.889 187.806ZM189.177 187.365L189.519 189.555C190.27 189.437 191.022 189.299 191.756 189.147L191.297 186.979C190.601 187.124 189.888 187.254 189.177 187.365ZM193.395 186.473L193.968 188.614C194.693 188.42 195.427 188.206 196.15 187.966L195.465 185.86C194.779 186.083 194.083 186.289 193.391 186.473H193.395ZM205.16 181.195L206.376 183.047C207.004 182.64 207.632 182.197 208.243 181.75L206.932 179.964C206.352 180.39 205.755 180.804 205.16 181.195ZM201.434 183.369L202.446 185.34C203.112 184.997 203.782 184.626 204.44 184.247L203.325 182.333C202.7 182.697 202.064 183.046 201.434 183.369ZM197.497 185.136L198.296 187.203C198.996 186.933 199.702 186.638 200.395 186.327L199.489 184.305C198.831 184.6 198.161 184.881 197.497 185.136Z" fill="#272421"/>
<path d="M223.646 152.055C222.574 152.055 221.526 152.373 220.635 152.968C219.743 153.564 219.049 154.41 218.639 155.4C218.228 156.391 218.121 157.48 218.33 158.532C218.539 159.583 219.055 160.549 219.813 161.307C220.571 162.065 221.537 162.581 222.588 162.79C223.64 162.999 224.729 162.892 225.72 162.481C226.71 162.071 227.556 161.377 228.152 160.485C228.748 159.594 229.065 158.546 229.065 157.474C229.064 156.037 228.492 154.66 227.476 153.644C226.46 152.628 225.083 152.056 223.646 152.055ZM223.646 160.679C223.012 160.679 222.393 160.491 221.866 160.139C221.339 159.787 220.928 159.287 220.686 158.701C220.443 158.116 220.38 157.471 220.504 156.85C220.627 156.229 220.933 155.658 221.381 155.21C221.829 154.762 222.4 154.457 223.021 154.333C223.643 154.21 224.287 154.273 224.872 154.516C225.458 154.758 225.958 155.169 226.31 155.696C226.662 156.223 226.85 156.843 226.849 157.476C226.848 158.326 226.51 159.14 225.91 159.74C225.309 160.34 224.495 160.678 223.646 160.679Z" fill="#272421"/>
<path d="M142.173 152.055C141.101 152.055 140.053 152.373 139.162 152.969C138.271 153.564 137.577 154.411 137.167 155.401C136.757 156.391 136.649 157.481 136.859 158.532C137.068 159.584 137.584 160.549 138.342 161.307C139.1 162.065 140.066 162.581 141.117 162.79C142.168 162.999 143.258 162.892 144.248 162.481C145.239 162.071 146.085 161.376 146.68 160.485C147.276 159.594 147.594 158.546 147.594 157.474C147.592 156.037 147.02 154.66 146.004 153.643C144.988 152.627 143.61 152.056 142.173 152.055ZM142.173 160.679C141.539 160.679 140.92 160.49 140.394 160.138C139.867 159.786 139.457 159.285 139.215 158.7C138.973 158.115 138.909 157.47 139.033 156.849C139.157 156.228 139.462 155.657 139.91 155.209C140.359 154.761 140.929 154.457 141.551 154.333C142.172 154.21 142.816 154.273 143.402 154.516C143.987 154.758 144.487 155.169 144.839 155.696C145.191 156.223 145.379 156.842 145.379 157.475C145.378 158.325 145.04 159.14 144.438 159.74C143.837 160.341 143.023 160.679 142.173 160.679Z" fill="#272421"/>
<path d="M106.337 36.6835L97.7225 29.6309L96.3189 31.3464L103.902 37.5529L96.3066 43.9562L97.7337 45.6493L106.348 38.3877C106.472 38.2829 106.572 38.1519 106.64 38.0041C106.708 37.8563 106.743 37.6954 106.742 37.5327C106.74 37.37 106.703 37.2096 106.633 37.0628C106.563 36.9161 106.462 36.7865 106.337 36.6835Z" fill="#272421"/>
<path d="M188.093 188.227L179.479 180.965L178.052 182.658L185.646 189.062L178.064 195.268L179.468 196.983L188.082 189.932C188.208 189.829 188.31 189.699 188.38 189.552C188.45 189.406 188.487 189.245 188.488 189.082C188.489 188.92 188.455 188.759 188.387 188.611C188.319 188.463 188.219 188.332 188.094 188.227H188.093Z" fill="#272421"/>
<path d="M252.08 66.3186C257.908 66.3186 262.632 61.5943 262.632 55.7667C262.632 49.9391 257.908 45.2148 252.08 45.2148C246.253 45.2148 241.528 49.9391 241.528 55.7667C241.528 61.5943 246.253 66.3186 252.08 66.3186Z" fill="url(#paint2_linear_861_37774)"/>
<path d="M252.382 36.8789C248.647 36.8789 244.996 37.9865 241.89 40.0617C238.784 42.1369 236.364 45.0865 234.934 48.5374C233.505 51.9883 233.131 55.7856 233.859 59.4491C234.588 63.1125 236.387 66.4776 239.028 69.1189C241.669 71.7601 245.034 73.5588 248.698 74.2875C252.361 75.0162 256.159 74.6422 259.61 73.2128C263.06 71.7834 266.01 69.3627 268.085 66.257C270.16 63.1512 271.268 59.4999 271.268 55.7646C271.262 50.7576 269.271 45.9572 265.73 42.4167C262.19 38.8761 257.389 36.8846 252.382 36.8789ZM252.382 72.4354C249.085 72.4354 245.862 71.4577 243.121 69.626C240.38 67.7943 238.243 65.1909 236.981 62.1449C235.72 59.0989 235.39 55.7471 236.033 52.5135C236.676 49.2799 238.264 46.3097 240.595 43.9784C242.926 41.647 245.897 40.0594 249.13 39.4162C252.364 38.773 255.716 39.1031 258.762 40.3648C261.808 41.6265 264.411 43.7631 266.243 46.5044C268.074 49.2458 269.052 52.4687 269.052 55.7656C269.047 60.1852 267.289 64.4222 264.164 67.5473C261.039 70.6723 256.802 72.4303 252.382 72.4354Z" fill="url(#paint3_linear_861_37774)"/>
<path d="M258.209 50.5566L251.092 58.071L248.323 55.0222L246.683 56.5125L250.25 60.446C250.353 60.5587 250.477 60.6492 250.617 60.7116C250.756 60.7741 250.906 60.8072 251.059 60.8088H251.07C251.22 60.809 251.369 60.7784 251.508 60.7188C251.646 60.6592 251.771 60.5719 251.874 60.4623L259.812 52.0805L258.209 50.5566Z" fill="#272421"/>
<path d="M170.004 66.3186C175.831 66.3186 180.555 61.5943 180.555 55.7667C180.555 49.9391 175.831 45.2148 170.004 45.2148C164.176 45.2148 159.452 49.9391 159.452 55.7667C159.452 61.5943 164.176 66.3186 170.004 66.3186Z" fill="url(#paint4_linear_861_37774)"/>
<path d="M170.308 36.8789C166.572 36.8789 162.921 37.9865 159.815 40.0617C156.71 42.1369 154.289 45.0865 152.859 48.5374C151.43 51.9883 151.056 55.7856 151.785 59.4491C152.513 63.1125 154.312 66.4776 156.953 69.1189C159.595 71.7601 162.96 73.5588 166.623 74.2875C170.287 75.0162 174.084 74.6422 177.535 73.2128C180.986 71.7834 183.935 69.3627 186.011 66.257C188.086 63.1512 189.193 59.4999 189.193 55.7646C189.188 50.7576 187.196 45.9572 183.656 42.4167C180.115 38.8761 175.315 36.8846 170.308 36.8789ZM170.308 72.4354C167.011 72.4358 163.788 71.4585 161.046 69.6271C158.304 67.7957 156.167 65.1924 154.905 62.1465C153.643 59.1006 153.313 55.7489 153.956 52.5152C154.599 49.2814 156.186 46.311 158.517 43.9794C160.848 41.6479 163.818 40.06 167.052 39.4165C170.286 38.773 173.637 39.1028 176.684 40.3643C179.73 41.6258 182.333 43.7622 184.165 46.5035C185.997 49.2447 186.975 52.4676 186.975 55.7646C186.97 60.184 185.213 64.421 182.088 67.5462C178.964 70.6714 174.727 72.4297 170.308 72.4354Z" fill="url(#paint5_linear_861_37774)"/>
<path d="M158.598 51.8868L156.496 51.1917C156.244 51.9511 156.056 52.7302 155.934 53.5208L158.123 53.8582C158.227 53.1891 158.386 52.5298 158.598 51.8868ZM160.486 48.305L158.721 46.9646C158.238 47.6022 157.807 48.2782 157.434 48.9859L159.394 50.0174C159.711 49.4189 160.076 48.8475 160.486 48.3091V48.305ZM157.98 55.8856L155.764 55.907C155.772 56.706 155.845 57.503 155.982 58.2901L158.164 57.9079C158.048 57.2413 157.986 56.5663 157.98 55.8897V55.8856ZM158.68 59.8701L156.591 60.609C156.858 61.3626 157.186 62.0929 157.573 62.7924L159.51 61.7201C159.183 61.129 158.905 60.5119 158.68 59.8751V59.8701ZM167.109 43.8486L166.535 41.708C165.762 41.9156 165.008 42.1863 164.28 42.5174L165.197 44.5336C165.816 44.2548 166.456 44.0274 167.112 43.8537L167.109 43.8486ZM181.044 49.6902L182.971 48.5986C182.577 47.9032 182.126 47.2415 181.623 46.6201L179.902 48.0135C180.328 48.5421 180.709 49.1046 181.044 49.6953V49.6902ZM182.43 53.4902L184.608 53.0825C184.461 52.2961 184.249 51.5232 183.975 50.7717L181.894 51.5321C182.127 52.1701 182.306 52.8265 182.43 53.4943V53.4902ZM163.427 45.5274L162.189 43.6926C161.526 44.1393 160.901 44.6398 160.32 45.189L161.842 46.7985C162.335 46.3332 162.865 45.9095 163.428 45.5315L163.427 45.5274ZM160.637 63.4091L158.904 64.7851C159.399 65.4114 159.945 65.9961 160.535 66.5333L162.023 64.8932C161.522 64.4379 161.059 63.9429 160.638 63.4132L160.637 63.4091ZM184.85 55.4697L182.634 55.5044V55.7592C182.634 56.4373 182.579 57.1144 182.469 57.7835L184.655 58.1444C184.784 57.3531 184.849 56.5527 184.849 55.751L184.85 55.4697ZM178.683 64.8076L180.186 66.4385C180.774 65.8956 181.315 65.3051 181.805 64.673L180.054 63.3153C179.638 63.8509 179.18 64.3517 178.683 64.8127V64.8076ZM162.435 67.9929C163.107 68.4266 163.814 68.8037 164.549 69.1203L165.426 67.0817C164.804 66.8129 164.205 66.4935 163.635 66.1266L162.435 67.9929ZM175.305 67.0348L176.202 69.0611C176.932 68.7366 177.635 68.3524 178.303 67.9124L177.079 66.0634C176.516 66.4376 175.922 66.7642 175.305 67.0399V67.0348ZM181.164 61.6121L183.114 62.6619C183.493 61.9579 183.814 61.2239 184.073 60.4674L181.977 59.7539C181.757 60.3961 181.485 61.0193 181.164 61.6171V61.6121ZM178.058 43.448L176.876 45.3215C177.449 45.6843 177.992 46.0934 178.499 46.5447L179.97 44.8893C179.373 44.3593 178.733 43.879 178.058 43.4531V43.448ZM173.652 41.6L173.142 43.7569C173.802 43.9126 174.447 44.1226 175.072 44.3847L175.93 42.3461C175.192 42.0371 174.43 41.7892 173.652 41.6051V41.6ZM168.891 41.282L169.105 43.4877C169.78 43.4221 170.459 43.4118 171.136 43.4572L171.286 41.2473C170.488 41.1936 169.687 41.2066 168.891 41.286V41.282ZM166.821 69.8847C167.597 70.0746 168.388 70.2007 169.185 70.2619L169.354 68.052C168.678 68.0009 168.007 67.8938 167.349 67.732L166.821 69.8847ZM171.388 68.0418L171.578 70.2486C172.375 70.1803 173.165 70.0459 173.94 69.847L173.388 67.7004C172.733 67.8707 172.066 67.9866 171.393 68.0469L171.388 68.0418Z" fill="url(#paint6_linear_861_37774)"/>
<path d="M240.673 51.8912L238.57 51.196C238.319 51.9555 238.132 52.7346 238.01 53.5251L240.199 53.8625C240.302 53.1934 240.461 52.5341 240.673 51.8912ZM240.053 55.8909L237.837 55.9123C237.845 56.7113 237.918 57.5083 238.056 58.2955L240.238 57.9132C240.121 57.2449 240.06 56.5693 240.053 55.8909ZM242.561 48.3114L240.795 46.971C240.312 47.6086 239.882 48.2846 239.509 48.9923L241.469 50.0238C241.785 49.4236 242.15 48.8505 242.56 48.3103L242.561 48.3114ZM240.754 59.8764L238.665 60.6154C238.932 61.3687 239.26 62.0986 239.647 62.7978L241.583 61.7265C241.257 61.1331 240.979 60.514 240.754 59.8754V59.8764ZM263.117 49.6986L265.045 48.607C264.651 47.9116 264.2 47.2499 263.697 46.6285L261.976 48.0219C262.402 48.5482 262.785 49.1087 263.119 49.6976L263.117 49.6986ZM264.504 53.4976L266.682 53.0899C266.535 52.3039 266.323 51.5314 266.05 50.7801L263.968 51.5385C264.2 52.1754 264.379 52.8303 264.504 53.4966V53.4976ZM245.503 45.5327L244.265 43.698C243.602 44.1449 242.977 44.6453 242.396 45.1943L243.918 46.8038C244.41 46.337 244.94 45.9126 245.503 45.5327ZM242.711 63.4093L240.978 64.7854C241.473 65.4117 242.018 65.9963 242.609 66.5335L244.097 64.8935C243.595 64.4373 243.132 63.941 242.711 63.4093ZM249.183 43.8499L248.609 41.7093C247.837 41.9169 247.083 42.1875 246.355 42.5186L247.272 44.5348C247.889 44.2558 248.528 44.0281 249.182 43.8539L249.183 43.8499ZM263.239 61.6133L265.188 62.6632C265.568 61.9592 265.889 61.2252 266.148 60.4686L264.052 59.7551C263.831 60.397 263.559 61.0198 263.238 61.6174L263.239 61.6133ZM260.133 43.4493L258.95 45.3228C259.524 45.6856 260.068 46.0947 260.575 46.5459L262.046 44.8906C261.448 44.3605 260.808 43.8801 260.132 43.4544L260.133 43.4493ZM244.509 67.9962C245.181 68.4298 245.888 68.8069 246.623 69.1236L247.5 67.085C246.878 66.8162 246.279 66.4968 245.71 66.1299L244.509 67.9962ZM260.757 64.8109L262.26 66.4418C262.847 65.8989 263.389 65.3084 263.879 64.6763L262.127 63.3186C261.712 63.8533 261.253 64.353 260.757 64.8129V64.8109ZM266.923 55.473L264.707 55.5087V55.7615C264.707 56.4396 264.652 57.1167 264.542 57.7858L266.729 58.1467C266.858 57.3555 266.923 56.5551 266.923 55.7533V55.473ZM257.378 67.0381L258.274 69.0645C259.005 68.7399 259.708 68.3557 260.375 67.9157L259.152 66.0667C258.589 66.4399 257.996 66.7655 257.379 67.0401L257.378 67.0381ZM248.895 69.8921C249.671 70.082 250.462 70.2081 251.259 70.2693L251.428 68.0594C250.752 68.0082 250.081 67.9011 249.423 67.7394L248.895 69.8921ZM255.724 41.6074L255.215 43.7642C255.874 43.9199 256.52 44.13 257.145 44.3921L258.002 42.3535C257.265 42.0425 256.504 41.7926 255.726 41.6064L255.724 41.6074ZM250.963 41.2883L251.178 43.4941C251.572 43.4554 251.968 43.436 252.36 43.436C252.639 43.436 252.928 43.4442 253.209 43.4635L253.358 41.2537C253.035 41.2313 252.71 41.22 252.383 41.22C251.909 41.2128 251.436 41.2363 250.965 41.2904L250.963 41.2883ZM253.459 68.0492L253.65 70.256C254.447 70.1876 255.237 70.0533 256.012 69.8544L255.459 67.7078C254.804 67.8762 254.136 67.9901 253.461 68.0482L253.459 68.0492Z" fill="url(#paint7_linear_861_37774)"/>
<path d="M176.134 50.5566L169.017 58.071L166.248 55.0222L164.608 56.5125L168.175 60.446C168.278 60.5587 168.403 60.6491 168.542 60.7115C168.681 60.774 168.831 60.8071 168.984 60.8088H168.995C169.146 60.8089 169.295 60.7782 169.433 60.7186C169.571 60.659 169.696 60.5718 169.799 60.4623L177.738 52.0805L176.134 50.5566Z" fill="#272421"/>
<path d="M273.16 130.363H270.944V134.151H273.16V130.363Z" fill="#272421"/>
<path d="M273.16 140.799H270.944V144.587H273.16V140.799Z" fill="#272421"/>
<path d="M268.73 136.367H264.942V138.583H268.73V136.367Z" fill="#272421"/>
<path d="M204.51 7.04341C206.455 7.04341 208.032 5.46669 208.032 3.52171C208.032 1.57672 206.455 0 204.51 0C202.565 0 200.989 1.57672 200.989 3.52171C200.989 5.46669 202.565 7.04341 204.51 7.04341Z" fill="url(#paint8_linear_861_37774)"/>
<path d="M238.705 191.205C239.94 191.205 240.942 190.204 240.942 188.968C240.942 187.732 239.94 186.73 238.705 186.73C237.469 186.73 236.467 187.732 236.467 188.968C236.467 190.204 237.469 191.205 238.705 191.205Z" fill="#272421"/>
<path d="M157.577 86.6133H124.533C124.239 86.6133 123.957 86.73 123.749 86.9378C123.542 87.1456 123.425 87.4274 123.425 87.7213V94.6199C123.425 94.9138 123.542 95.1956 123.749 95.4034C123.957 95.6112 124.239 95.7279 124.533 95.7279H157.577C157.871 95.7279 158.152 95.6112 158.36 95.4034C158.568 95.1956 158.685 94.9138 158.685 94.6199V87.7213C158.685 87.4274 158.568 87.1456 158.36 86.9378C158.152 86.73 157.871 86.6133 157.577 86.6133ZM156.469 93.5109H125.64V88.8282H156.47L156.469 93.5109Z" fill="#272421"/>
<path d="M157.577 99.0801H124.533C124.239 99.0801 123.957 99.1968 123.749 99.4046C123.542 99.6124 123.425 99.8942 123.425 100.188V107.086C123.425 107.38 123.542 107.661 123.749 107.869C123.957 108.077 124.239 108.194 124.533 108.194H157.577C157.871 108.194 158.152 108.077 158.36 107.869C158.568 107.661 158.685 107.38 158.685 107.086V100.188C158.685 99.8942 158.568 99.6124 158.36 99.4046C158.152 99.1968 157.871 99.0801 157.577 99.0801ZM156.469 105.978H125.64V101.295H156.47L156.469 105.978Z" fill="url(#paint9_linear_861_37774)"/>
<path d="M157.577 111.32H124.533C124.239 111.32 123.957 111.437 123.749 111.645C123.542 111.853 123.425 112.134 123.425 112.428V119.326C123.425 119.62 123.542 119.902 123.749 120.109C123.957 120.317 124.239 120.434 124.533 120.434H157.577C157.871 120.434 158.152 120.317 158.36 120.109C158.568 119.902 158.685 119.62 158.685 119.326V112.428C158.685 112.134 158.568 111.853 158.36 111.645C158.152 111.437 157.871 111.32 157.577 111.32ZM156.469 118.218H125.64V113.535H156.47L156.469 118.218Z" fill="#272421"/>
<path d="M157.577 123.787H124.533C124.239 123.787 123.957 123.904 123.749 124.112C123.542 124.319 123.425 124.601 123.425 124.895V131.794C123.425 132.088 123.542 132.369 123.749 132.577C123.957 132.785 124.239 132.902 124.533 132.902H157.577C157.871 132.902 158.152 132.785 158.36 132.577C158.568 132.369 158.685 132.088 158.685 131.794V124.895C158.685 124.601 158.568 124.319 158.36 124.112C158.152 123.904 157.871 123.787 157.577 123.787ZM156.469 130.685H125.64V126.002H156.47L156.469 130.685Z" fill="#272421"/>
<path d="M62.3927 94.1445C62.5365 93.7837 62.6639 93.4116 62.7719 93.0396L61.7006 92.7338C61.5987 93.0712 61.4876 93.4096 61.3571 93.7368L62.3927 94.1445ZM41.3135 82.7161C41.0913 83.031 40.8803 83.3623 40.6866 83.7017L41.6549 84.2542C41.8303 83.9484 42.0219 83.6426 42.2237 83.3592L41.3135 82.7161ZM40.1576 84.7475C39.9986 85.1022 39.8518 85.4682 39.7295 85.8351L40.7855 86.1929C40.8986 85.8596 41.0291 85.5273 41.1738 85.2062L40.1576 84.7475ZM63.042 91.9071C63.1134 91.5249 63.1664 91.1345 63.2 90.7492L62.09 90.6524C62.0594 91.002 62.0115 91.3557 61.9463 91.7022L63.042 91.9071ZM39.2473 91.6013C39.3095 91.9846 39.39 92.3689 39.4879 92.744L40.5663 92.4626C40.4776 92.1212 40.4042 91.7726 40.3482 91.425L39.2473 91.6013ZM49.1998 78.9161L48.996 77.8193C48.6148 77.8896 48.2325 77.9793 47.8584 78.0853L48.1642 79.1577C48.5067 79.0567 48.8543 78.9752 49.1998 78.912V78.9161ZM39.1005 89.2722C39.0869 89.6637 39.0924 90.053 39.1169 90.4404L40.2299 90.371C40.2075 90.0204 40.2024 89.6657 40.2146 89.311L39.1005 89.2722ZM42.8383 80.9547C42.557 81.2228 42.2859 81.5071 42.0331 81.8007L42.8771 82.5285C43.1064 82.2624 43.3521 82.0046 43.6069 81.762L42.8383 80.9547ZM47.1623 79.4981L46.7545 78.4604C46.3937 78.6021 46.0349 78.7662 45.6893 78.9395L46.199 79.9333C46.5089 79.7682 46.834 79.6214 47.1623 79.493V79.4981ZM45.2745 80.4583L44.6762 79.5175C44.3479 79.7213 44.0279 79.9527 43.7221 80.1922L44.4091 81.0698C44.6864 80.8487 44.9769 80.6428 45.2745 80.4532V80.4583ZM55.438 79.6031L55.8733 78.5766C55.5165 78.4258 55.1475 78.2892 54.7775 78.1689L54.4421 79.2321C54.7785 79.3381 55.1139 79.4614 55.438 79.599V79.6031ZM53.4167 78.9681L53.6461 77.8774C53.2659 77.7979 52.8775 77.7357 52.4922 77.6929L52.3709 78.8009C52.7195 78.8355 53.0712 78.8916 53.4157 78.964L53.4167 78.9681ZM62.1308 89.5923L63.2459 89.5811C63.2459 89.1937 63.2184 88.8013 63.1776 88.415L62.0696 88.5343C62.1063 88.8798 62.1267 89.2325 62.1308 89.5882V89.5923ZM57.3013 80.6112L57.9241 79.6867C57.603 79.4695 57.2666 79.2667 56.9241 79.0812L56.3941 80.0618C56.704 80.2259 57.0098 80.4104 57.3013 80.6071V80.6112ZM50.157 77.6644L50.2518 78.7744C50.5576 78.7479 50.8695 78.7357 51.1793 78.7357H51.3098L51.3271 77.6205H51.1793C50.8399 77.6124 50.4944 77.6307 50.157 77.6593V77.6644ZM58.9342 81.9587L59.7242 81.1718C59.451 80.8976 59.1605 80.6326 58.8598 80.3859L58.1463 81.2462C58.4235 81.4653 58.6886 81.7049 58.9342 81.9536V81.9587ZM61.9045 87.4864L62.9962 87.2611C62.9177 86.8809 62.8198 86.5007 62.7047 86.1307L61.6446 86.4538C61.7465 86.7861 61.8331 87.1358 61.9045 87.4813V87.4864ZM60.2736 83.5967L61.2001 82.977C60.984 82.6539 60.7506 82.3389 60.505 82.0392L59.6427 82.7456C59.8679 83.0147 60.0799 83.2991 60.2756 83.5916L60.2736 83.5967ZM39.4063 86.9604C39.3187 87.3376 39.2473 87.7239 39.1964 88.1102L40.3013 88.257C40.3482 87.9074 40.4124 87.5557 40.4919 87.2132L39.4063 86.9604ZM61.2776 85.461L62.3061 85.0309C62.1562 84.6731 61.9881 84.3174 61.8046 83.9769L60.822 84.5039C60.9881 84.8107 61.1421 85.1328 61.2776 85.461Z" fill="url(#paint10_linear_861_37774)"/>
<path d="M45.9927 75.1049C42.2564 76.4308 39.1713 79.1399 37.3737 82.6736C35.5761 86.2073 35.2032 90.296 36.3317 94.0966L37.3999 93.7796C36.7641 91.6363 36.6373 89.3741 37.0297 87.1731C37.422 84.9721 38.3227 82.8931 39.66 81.1014C40.9973 79.3098 42.7343 77.8551 44.7328 76.8529C46.7313 75.8508 48.9361 75.3289 51.1718 75.3289C53.4075 75.3289 55.6123 75.8508 57.6108 76.8529C59.6093 77.8551 61.3464 79.3098 62.6837 81.1014C64.021 82.8931 64.9216 84.9721 65.314 87.1731C65.7063 89.3741 65.5795 91.6363 64.9437 93.7796L66.0119 94.0977C66.4453 92.6494 66.6661 91.1458 66.6673 89.6341C66.6556 87.1602 66.0517 84.725 64.906 82.5323C63.7603 80.3396 62.1061 78.4531 60.082 77.0307C58.0578 75.6083 55.7224 74.6913 53.2712 74.3564C50.82 74.0216 48.3242 74.2776 45.9927 75.1049Z" fill="#272421"/>
<path d="M47.4939 85.1582L47.0689 86.0511L45.0089 85.0706L44.3973 86.3508L46.4573 87.3314L46.072 88.1407L44.012 87.1601L43.4004 88.4404L45.4604 89.421L44.964 90.4658L44.225 92.0192L45.6051 92.6766L46.0618 91.7175C46.0871 91.6319 46.1321 91.5534 46.1932 91.4883C46.2542 91.4232 46.3296 91.3733 46.4134 91.3425C46.4972 91.3117 46.587 91.3009 46.6756 91.311C46.7643 91.3211 46.8494 91.3517 46.9241 91.4005L52.2531 93.9375H57.5106L57.6462 93.6521L55.6076 92.6807L55.5893 92.6725L55.9746 91.8632L58.0326 92.8428L58.6441 91.5625L56.5862 90.583L57.1855 89.3241C57.5214 88.6288 57.5673 87.8286 57.3132 87.0994C57.059 86.3702 56.5256 85.7719 55.8303 85.436C55.135 85.1001 54.3348 85.0541 53.6056 85.3083C52.8764 85.5624 52.2781 86.0958 51.9422 86.7912C52.094 86.218 52.0264 85.6088 51.7524 85.0829C51.4785 84.557 51.0181 84.1523 50.4614 83.9482C49.9047 83.7441 49.2918 83.7553 48.7429 83.9795C48.194 84.2037 47.7486 84.6248 47.4939 85.1603V85.1582ZM54.3528 87.9582C54.5332 88.0439 54.6949 88.1642 54.8287 88.3124C54.9624 88.4605 55.0657 88.6336 55.1326 88.8217C55.1994 89.0099 55.2285 89.2093 55.2182 89.4087C55.2079 89.608 55.1583 89.8034 55.0725 89.9836L54.1245 91.9733L51.3806 90.6666L52.3285 88.6758C52.502 88.3127 52.8125 88.0332 53.1918 87.8987C53.5711 87.7642 53.9883 87.7856 54.3518 87.9582H54.3528ZM50.083 86.7626C50.4187 86.9227 50.6771 87.2095 50.8016 87.56C50.926 87.9105 50.9062 88.2961 50.7465 88.632L50.0738 90.0448L47.5398 88.8389L48.2125 87.4262C48.3728 87.0904 48.6599 86.8319 49.0106 86.7077C49.3613 86.5835 49.7471 86.6036 50.083 86.7636V86.7626Z" fill="#272421"/>
<path d="M73.107 82.0964C73.107 81.1411 72.3325 80.3666 71.3772 80.3666C70.4219 80.3666 69.6475 81.1411 69.6475 82.0964C69.6475 83.0517 70.4219 83.8262 71.3772 83.8262C72.3325 83.8262 73.107 83.0517 73.107 82.0964Z" fill="url(#paint11_linear_861_37774)"/>
<path d="M98.6788 154.639C98.6788 153.684 97.9043 152.91 96.949 152.91C95.9937 152.91 95.2192 153.684 95.2192 154.639C95.2192 155.595 95.9937 156.369 96.949 156.369C97.9043 156.369 98.6788 155.595 98.6788 154.639Z" fill="url(#paint12_linear_861_37774)"/>
<path d="M22.7393 95.927V117.191C22.7393 117.339 22.798 117.48 22.9026 117.585C23.0071 117.69 23.1489 117.748 23.2968 117.748H39.6475C41.2728 117.748 42.8315 118.394 43.9807 119.543C45.13 120.692 45.7756 122.251 45.7756 123.876C45.7756 125.502 45.13 127.06 43.9807 128.21C42.8315 129.359 41.2728 130.004 39.6475 130.004H23.2968C23.1489 130.004 23.0071 130.063 22.9026 130.168C22.798 130.272 22.7393 130.414 22.7393 130.562V151.72C22.7393 151.868 22.798 152.009 22.9026 152.114C23.0071 152.219 23.1489 152.277 23.2968 152.277H77.3996C78.8664 152.275 80.2726 151.692 81.3098 150.655C82.347 149.618 82.9305 148.211 82.9324 146.745V100.903C82.9305 99.4364 82.347 98.0302 81.3098 96.993C80.2726 95.9558 78.8664 95.3723 77.3996 95.3704H23.2968C23.1491 95.3704 23.0074 95.429 22.9029 95.5334C22.7984 95.6377 22.7395 95.7793 22.7393 95.927ZM77.3986 96.4845C78.5701 96.4859 79.6932 96.9519 80.5216 97.7802C81.35 98.6086 81.8159 99.7317 81.8173 100.903V146.745C81.8157 147.916 81.3496 149.039 80.5212 149.867C79.6929 150.695 78.5699 151.161 77.3986 151.162H23.8544V131.12H39.6475C41.5684 131.12 43.4106 130.357 44.7689 128.998C46.1271 127.64 46.8902 125.798 46.8902 123.877C46.8902 121.956 46.1271 120.114 44.7689 118.756C43.4106 117.397 41.5684 116.634 39.6475 116.634H23.8544V96.4856H77.3996L77.3986 96.4845Z" fill="#272421"/>
<path d="M13.8979 95.9266L13.8979 117.192C13.8979 117.34 13.9567 117.482 14.0613 117.587C14.1658 117.691 14.3076 117.75 14.4555 117.75H23.296C23.4438 117.75 23.5856 117.691 23.6902 117.587C23.7948 117.482 23.8535 117.34 23.8535 117.192V95.9266C23.8535 95.8534 23.8391 95.7809 23.8111 95.7133C23.7831 95.6456 23.742 95.5842 23.6902 95.5324C23.6384 95.4806 23.577 95.4395 23.5093 95.4115C23.4417 95.3835 23.3692 95.3691 23.296 95.3691H14.4555C14.3823 95.3691 14.3098 95.3835 14.2421 95.4115C14.1745 95.4395 14.113 95.4806 14.0613 95.5324C14.0095 95.5842 13.9684 95.6456 13.9404 95.7133C13.9124 95.7809 13.8979 95.8534 13.8979 95.9266ZM22.7384 96.4842V116.635H15.0131L15.0131 96.4872L22.7384 96.4842Z" fill="#272421"/>
<path d="M16.3105 137.713C18.0772 137.729 19.8255 138.075 21.4652 138.732V130.565H16.3105V137.713Z" fill="url(#paint13_linear_861_37774)"/>
<path d="M16.3105 97.7789V117.188H21.4652V97.7789H16.3105Z" fill="url(#paint14_linear_861_37774)"/>
<path d="M34.1143 138.325C34.1148 138.932 34.3384 139.517 34.7424 139.97C35.1465 140.422 35.7028 140.71 36.3055 140.779C36.9081 140.848 37.5151 140.693 38.0108 140.343C38.5065 139.993 38.8563 139.474 38.9937 138.883H37.9866C37.8569 139.209 37.6177 139.479 37.31 139.648C37.0024 139.817 36.6456 139.873 36.301 139.807C35.9564 139.741 35.6456 139.557 35.4221 139.286C35.1985 139.016 35.0763 138.676 35.0763 138.325C35.0763 137.974 35.1985 137.635 35.4221 137.364C35.6456 137.094 35.9564 136.91 36.301 136.844C36.6456 136.778 37.0024 136.834 37.31 137.002C37.6177 137.171 37.8569 137.442 37.9866 137.768H38.9937C38.8563 137.177 38.5065 136.657 38.0108 136.308C37.5151 135.958 36.9081 135.803 36.3055 135.872C35.7028 135.941 35.1465 136.229 34.7424 136.681C34.3384 137.133 34.1148 137.719 34.1143 138.325Z" fill="url(#paint15_linear_861_37774)"/>
<path d="M67.7822 111.951H69.0421C69.1781 111.409 69.5075 110.936 69.9682 110.62C70.4289 110.304 70.9891 110.168 71.5434 110.236C72.0977 110.305 72.6079 110.574 72.9778 110.992C73.3477 111.411 73.5519 111.95 73.5519 112.509C73.5519 113.067 73.3477 113.606 72.9778 114.025C72.6079 114.443 72.0977 114.712 71.5434 114.781C70.9891 114.849 70.4289 114.713 69.9682 114.397C69.5075 114.081 69.1781 113.608 69.0421 113.066H67.7822C67.9224 113.941 68.3871 114.731 69.0835 115.278C69.78 115.825 70.6571 116.09 71.5402 116.02C72.4233 115.95 73.2474 115.549 73.8485 114.899C74.4495 114.248 74.7833 113.394 74.7833 112.509C74.7833 111.623 74.4495 110.769 73.8485 110.118C73.2474 109.468 72.4233 109.067 71.5402 108.997C70.6571 108.927 69.78 109.192 69.0835 109.739C68.3871 110.286 67.9224 111.076 67.7822 111.951Z" fill="url(#paint16_linear_861_37774)"/>
<path d="M25.1489 109.268H38.2368L44.8552 103.334H53.6324L63.8255 111.951H66.6459C66.788 110.779 67.3721 109.706 68.2789 108.95C69.1857 108.194 70.3469 107.812 71.5253 107.883C72.7038 107.955 73.8107 108.473 74.6199 109.332C75.4292 110.192 75.8798 111.328 75.8798 112.509C75.8798 113.689 75.4292 114.825 74.6199 115.685C73.8107 116.545 72.7038 117.063 71.5253 117.134C70.3469 117.205 69.1857 116.824 68.2789 116.068C67.3721 115.312 66.788 114.238 66.6459 113.066H63.4168L53.2237 104.449H45.2823L38.6639 110.383H25.1489V117.191H39.6414C41.4001 117.213 43.0794 117.927 44.3154 119.178C45.5514 120.43 46.2445 122.118 46.2445 123.877C46.2445 125.635 45.5514 127.323 44.3154 128.575C43.0794 129.826 41.4001 130.54 39.6414 130.562H25.1489V149.863H77.3986C78.2252 149.862 79.0177 149.533 79.6022 148.949C80.1867 148.364 80.5156 147.572 80.5167 146.745V144.285H66.0721L59.6168 138.882H40.1256C39.9853 139.774 39.5138 140.58 38.8054 141.139C38.0969 141.699 37.2036 141.97 36.3037 141.9C35.4038 141.829 34.5635 141.422 33.9507 140.759C33.3378 140.097 32.9974 139.227 32.9974 138.325C32.9974 137.422 33.3378 136.553 33.9507 135.89C34.5635 135.227 35.4038 134.82 36.3037 134.75C37.2036 134.679 38.0969 134.951 38.8054 135.51C39.5138 136.07 39.9853 136.875 40.1256 137.767H60.0215L66.4767 143.169H80.5157V127.574H72.9422L66.3799 132.624H59.1703C59.0407 132.95 58.8014 133.22 58.4938 133.389C58.1861 133.558 57.8293 133.614 57.4847 133.548C57.1401 133.482 56.8294 133.298 56.6058 133.027C56.3823 132.757 56.26 132.417 56.26 132.066C56.26 131.715 56.3823 131.375 56.6058 131.105C56.8294 130.835 57.1401 130.651 57.4847 130.585C57.8293 130.519 58.1861 130.575 58.4938 130.743C58.8014 130.912 59.0407 131.183 59.1703 131.509H65.9997L72.562 126.459H80.5126V122.363H60.4486L56.0187 117.748H53.6487C53.519 118.075 53.2793 118.347 52.9708 118.516C52.6624 118.686 52.3045 118.742 51.9588 118.676C51.6131 118.61 51.3013 118.426 51.077 118.154C50.8527 117.883 50.73 117.542 50.73 117.19C50.73 116.838 50.8527 116.498 51.077 116.226C51.3013 115.955 51.6131 115.771 51.9588 115.705C52.3045 115.639 52.6624 115.695 52.9708 115.865C53.2793 116.034 53.519 116.306 53.6487 116.633H56.4957L60.9256 121.248H80.5167V100.899C80.5161 100.072 80.1876 99.2786 79.603 98.6935C79.0185 98.1084 78.2257 97.779 77.3986 97.7777H25.1489V109.268Z" fill="url(#paint17_linear_861_37774)"/>
<path d="M23.2964 128.703H39.64C40.92 128.703 42.1476 128.195 43.0528 127.29C43.9579 126.384 44.4664 125.157 44.4664 123.877C44.4664 122.597 43.9579 121.369 43.0528 120.464C42.1476 119.559 40.92 119.05 39.64 119.05H23.2964V128.703Z" fill="url(#paint18_linear_861_37774)"/>
<path d="M10.7495 117.189V130.558C10.7495 130.706 10.8083 130.847 10.9128 130.952C11.0174 131.056 11.1592 131.115 11.3071 131.115H39.6438C40.5948 131.115 41.5365 130.928 42.4151 130.564C43.2937 130.2 44.092 129.667 44.7645 128.994C45.4369 128.322 45.9703 127.523 46.3342 126.645C46.6982 125.766 46.8855 124.825 46.8855 123.874C46.8855 122.923 46.6982 121.981 46.3342 121.102C45.9703 120.224 45.4369 119.425 44.7645 118.753C44.092 118.08 43.2937 117.547 42.4151 117.183C41.5365 116.819 40.5948 116.632 39.6438 116.632H11.3071C11.1592 116.632 11.0174 116.691 10.9128 116.795C10.8083 116.9 10.7495 117.042 10.7495 117.189ZM39.6459 117.747C40.4571 117.737 41.2623 117.887 42.0147 118.19C42.7672 118.494 43.452 118.943 44.0293 119.513C44.6067 120.083 45.0651 120.762 45.378 121.511C45.6908 122.259 45.8519 123.062 45.8519 123.874C45.8519 124.685 45.6908 125.488 45.378 126.237C45.0651 126.985 44.6067 127.664 44.0293 128.234C43.452 128.804 42.7672 129.253 42.0147 129.557C41.2623 129.86 40.4571 130.011 39.6459 130H11.8646V117.747H39.6459Z" fill="#272421"/>
<path d="M41.3808 123.876C41.3808 122.465 40.2367 121.321 38.8254 121.321C37.4141 121.321 36.27 122.465 36.27 123.876C36.27 125.288 37.4141 126.432 38.8254 126.432C40.2367 126.432 41.3808 125.288 41.3808 123.876Z" fill="#272421"/>
<path d="M13.1549 137.475C10.5043 138.032 8.05774 139.306 6.0824 141.16C4.10706 143.013 2.6789 145.373 1.9539 147.983C1.22889 150.592 1.23492 153.351 1.97134 155.957C2.70775 158.564 4.14622 160.918 6.12965 162.762C8.11308 164.607 10.5652 165.871 13.2182 166.416C15.8712 166.961 18.6231 166.767 21.1733 165.855C23.7234 164.943 25.9739 163.347 27.6788 161.242C29.3837 159.138 30.4776 156.605 30.8409 153.921L29.736 153.772C29.354 156.592 28.1013 159.222 26.1528 161.296C24.2042 163.369 21.657 164.783 18.8666 165.339C16.0761 165.895 13.1815 165.567 10.5868 164.399C7.99206 163.231 5.82658 161.283 4.39249 158.825C2.95841 156.368 2.32725 153.524 2.5871 150.69C2.84695 147.857 3.98484 145.175 5.84199 143.019C7.69915 140.863 10.1829 139.341 12.9468 138.665C15.7106 137.988 18.6167 138.192 21.2594 139.246L21.6732 138.216C18.9701 137.13 16.005 136.872 13.1549 137.475Z" fill="#272421"/>
<path d="M13.7578 140.341C11.5791 140.799 9.57339 141.861 7.97031 143.406C6.36724 144.951 5.23159 146.916 4.6934 149.077C4.1552 151.237 4.23621 153.505 4.92715 155.621C5.61809 157.738 6.89103 159.617 8.60023 161.043C10.3094 162.47 12.3858 163.386 14.5916 163.688C16.7974 163.989 19.0435 163.663 21.0728 162.747C23.102 161.832 24.8323 160.363 26.0656 158.509C27.299 156.656 27.9854 154.493 28.0464 152.267H22.7654V142.081C21.4556 141.206 19.9841 140.601 18.4372 140.302C16.8904 140.003 15.2994 140.017 13.7578 140.341Z" fill="#272421"/>
<path d="M17.5044 81.5333V82.6484H19.6133V81.5333H17.5044Z" fill="#272421"/>
<path d="M23.3159 81.5333V82.6484H25.4249V81.5333H23.3159Z" fill="#272421"/>
<path d="M20.9067 78.1332V80.2422H22.0219V78.1332H20.9067Z" fill="#272421"/>
<path d="M20.9067 83.9418V86.0508H22.0219V83.9418H20.9067Z" fill="#272421"/>
<path d="M67.418 163.613V164.729H69.5269V163.613H67.418Z" fill="#272421"/>
<path d="M73.2285 163.613V164.729H75.3375V163.613H73.2285Z" fill="#272421"/>
<path d="M70.8203 160.213V162.322H71.9354V160.213H70.8203Z" fill="#272421"/>
<path d="M70.8203 166.022V168.131H71.9354V166.022H70.8203Z" fill="#272421"/>
<path d="M13.9219 130.56V137.82H15.037V130.56H13.9219Z" fill="#272421"/>
<path d="M15.1193 147.889L13.5762 148.779L15.1332 151.476L16.6763 150.585C17.0429 150.376 17.3129 150.031 17.4283 149.625C17.4852 149.428 17.5019 149.221 17.4773 149.017C17.4526 148.814 17.3872 148.617 17.285 148.439C17.1789 148.261 17.0388 148.105 16.8725 147.981C16.7063 147.857 16.5172 147.766 16.3161 147.715C16.115 147.664 15.9058 147.653 15.7005 147.683C15.4951 147.713 15.2976 147.782 15.1193 147.889Z" fill="url(#paint19_linear_861_37774)"/>
<path d="M18.108 151.611L15.9346 152.865L17.6211 155.786L19.7944 154.532C20.1907 154.304 20.4821 153.931 20.606 153.491C20.6684 153.277 20.6869 153.053 20.6605 152.832C20.634 152.611 20.5631 152.398 20.4521 152.205C20.22 151.816 19.8427 151.534 19.4031 151.423C18.9635 151.311 18.4977 151.379 18.108 151.611Z" fill="url(#paint20_linear_861_37774)"/>
<path d="M10.2663 141.678C8.23589 142.85 6.59859 144.598 5.56151 146.701C4.52443 148.803 4.13414 151.166 4.44 153.491C4.74587 155.815 5.73414 157.997 7.27985 159.759C8.82556 161.522 10.8593 162.787 13.1238 163.394C15.3883 164.001 17.782 163.922 20.002 163.169C22.2221 162.415 24.1688 161.02 25.5961 159.16C27.0233 157.3 27.867 155.059 28.0204 152.72C28.1737 150.38 27.6299 148.048 26.4577 146.017C24.8832 143.298 22.2944 141.314 19.2591 140.5C16.2238 139.687 12.9898 140.11 10.2663 141.678ZM23.7378 153.247C23.4987 154.088 22.9395 154.803 22.18 155.237L20.8064 156.03L22.0714 158.221L20.6705 159.03L19.4055 156.839L18.5228 157.349L19.7877 159.54L18.3895 160.347L17.1362 158.176L14.2973 159.815L13.4492 158.346L14.4979 157.741C14.5919 157.706 14.6764 157.649 14.7447 157.576C14.813 157.502 14.8632 157.414 14.8915 157.318C14.9197 157.221 14.9252 157.12 14.9074 157.021C14.8897 156.923 14.8492 156.829 14.7891 156.749L11.3403 150.775C11.3007 150.683 11.2402 150.602 11.1636 150.537C11.087 150.472 10.9964 150.426 10.8989 150.402C10.8014 150.379 10.6998 150.378 10.602 150.401C10.5042 150.423 10.413 150.468 10.3356 150.532L9.2869 151.137L8.43934 149.669L11.2783 148.03L10.0138 145.84L11.4121 145.033L12.6765 147.223L13.5593 146.713L12.2948 144.523L13.6957 143.714L14.9602 145.904L15.9312 145.344C16.5413 144.981 17.2702 144.876 17.9579 145.051C18.6456 145.225 19.2358 145.666 19.5989 146.276C19.773 146.578 19.8844 146.911 19.9266 147.257C19.9688 147.603 19.9409 147.954 19.8445 148.289C19.6953 148.811 19.3952 149.277 18.9818 149.629C19.7273 149.195 20.6138 149.073 21.4484 149.29C22.283 149.507 22.9981 150.045 23.4381 150.787C23.6505 151.156 23.7865 151.564 23.838 151.986C23.8894 152.409 23.8554 152.838 23.7378 153.247Z" fill="url(#paint21_linear_861_37774)"/>
<defs>
<linearGradient id="paint0_linear_861_37774" x1="115.165" y1="62.316" x2="209.284" y2="82.3851" gradientUnits="userSpaceOnUse">
<stop stop-color="#846E55"/>
<stop offset="1" stop-color="#B3A55C"/>
</linearGradient>
<linearGradient id="paint1_linear_861_37774" x1="204.627" y1="99.5104" x2="221.326" y2="128.497" gradientUnits="userSpaceOnUse">
<stop stop-color="#846E55"/>
<stop offset="1" stop-color="#B3A55C"/>
</linearGradient>
<linearGradient id="paint2_linear_861_37774" x1="241.206" y1="46.2114" x2="274.595" y2="61.1924" gradientUnits="userSpaceOnUse">
<stop stop-color="#846E55"/>
<stop offset="1" stop-color="#B3A55C"/>
</linearGradient>
<linearGradient id="paint3_linear_861_37774" x1="232.92" y1="38.6626" x2="292.68" y2="65.4755" gradientUnits="userSpaceOnUse">
<stop stop-color="#846E55"/>
<stop offset="1" stop-color="#B3A55C"/>
</linearGradient>
<linearGradient id="paint4_linear_861_37774" x1="159.129" y1="46.2114" x2="192.519" y2="61.1924" gradientUnits="userSpaceOnUse">
<stop stop-color="#846E55"/>
<stop offset="1" stop-color="#B3A55C"/>
</linearGradient>
<linearGradient id="paint5_linear_861_37774" x1="150.845" y1="38.6626" x2="210.605" y2="65.4754" gradientUnits="userSpaceOnUse">
<stop stop-color="#846E55"/>
<stop offset="1" stop-color="#B3A55C"/>
</linearGradient>
<linearGradient id="paint6_linear_861_37774" x1="155.32" y1="42.5865" x2="201.317" y2="63.2522" gradientUnits="userSpaceOnUse">
<stop stop-color="#846E55"/>
<stop offset="1" stop-color="#B3A55C"/>
</linearGradient>
<linearGradient id="paint7_linear_861_37774" x1="237.393" y1="42.5906" x2="283.393" y2="63.2546" gradientUnits="userSpaceOnUse">
<stop stop-color="#846E55"/>
<stop offset="1" stop-color="#B3A55C"/>
</linearGradient>
<linearGradient id="paint8_linear_861_37774" x1="200.881" y1="0.332606" x2="212.025" y2="5.33253" gradientUnits="userSpaceOnUse">
<stop stop-color="#846E55"/>
<stop offset="1" stop-color="#B3A55C"/>
</linearGradient>
<linearGradient id="paint9_linear_861_37774" x1="122.886" y1="99.5104" x2="139.585" y2="128.497" gradientUnits="userSpaceOnUse">
<stop stop-color="#846E55"/>
<stop offset="1" stop-color="#B3A55C"/>
</linearGradient>
<linearGradient id="paint10_linear_861_37774" x1="40.2338" y1="94.3968" x2="49.0461" y2="65.6921" gradientUnits="userSpaceOnUse">
<stop stop-color="#846E55"/>
<stop offset="1" stop-color="#B3A55C"/>
</linearGradient>
<linearGradient id="paint11_linear_861_37774" x1="69.8108" y1="83.879" x2="72.2667" y2="78.4055" gradientUnits="userSpaceOnUse">
<stop stop-color="#846E55"/>
<stop offset="1" stop-color="#B3A55C"/>
</linearGradient>
<linearGradient id="paint12_linear_861_37774" x1="95.3826" y1="156.422" x2="97.8384" y2="150.948" gradientUnits="userSpaceOnUse">
<stop stop-color="#846E55"/>
<stop offset="1" stop-color="#B3A55C"/>
</linearGradient>
<linearGradient id="paint13_linear_861_37774" x1="16.554" y1="138.857" x2="23.8851" y2="128.545" gradientUnits="userSpaceOnUse">
<stop stop-color="#846E55"/>
<stop offset="1" stop-color="#B3A55C"/>
</linearGradient>
<linearGradient id="paint14_linear_861_37774" x1="16.554" y1="117.484" x2="32.724" y2="107.912" gradientUnits="userSpaceOnUse">
<stop stop-color="#846E55"/>
<stop offset="1" stop-color="#B3A55C"/>
</linearGradient>
<linearGradient id="paint15_linear_861_37774" x1="34.3447" y1="140.87" x2="37.8793" y2="133.088" gradientUnits="userSpaceOnUse">
<stop stop-color="#846E55"/>
<stop offset="1" stop-color="#B3A55C"/>
</linearGradient>
<linearGradient id="paint16_linear_861_37774" x1="68.1128" y1="116.139" x2="73.1352" y2="105.016" gradientUnits="userSpaceOnUse">
<stop stop-color="#846E55"/>
<stop offset="1" stop-color="#B3A55C"/>
</linearGradient>
<linearGradient id="paint17_linear_861_37774" x1="27.7635" y1="150.658" x2="63.2295" y2="66.6314" gradientUnits="userSpaceOnUse">
<stop stop-color="#846E55"/>
<stop offset="1" stop-color="#B3A55C"/>
</linearGradient>
<linearGradient id="paint18_linear_861_37774" x1="24.2961" y1="128.85" x2="27.8987" y2="111.241" gradientUnits="userSpaceOnUse">
<stop stop-color="#846E55"/>
<stop offset="1" stop-color="#B3A55C"/>
</linearGradient>
<linearGradient id="paint19_linear_861_37774" x1="13.605" y1="148.932" x2="19.3694" y2="148.527" gradientUnits="userSpaceOnUse">
<stop stop-color="#846E55"/>
<stop offset="1" stop-color="#B3A55C"/>
</linearGradient>
<linearGradient id="paint20_linear_861_37774" x1="15.9581" y1="153.036" x2="22.9801" y2="152.966" gradientUnits="userSpaceOnUse">
<stop stop-color="#846E55"/>
<stop offset="1" stop-color="#B3A55C"/>
</linearGradient>
<linearGradient id="paint21_linear_861_37774" x1="0.246301" y1="148.756" x2="41.1438" y2="144.576" gradientUnits="userSpaceOnUse">
<stop stop-color="#846E55"/>
<stop offset="1" stop-color="#B3A55C"/>
</linearGradient>
</defs>
</svg>
