<svg width="14" height="15" viewBox="0 0 14 15" fill="none" xmlns="http://www.w3.org/2000/svg">
<g clip-path="url(#clip0_181_12199)">
<path d="M7 0.5C8.85652 0.5 10.637 1.2375 11.9497 2.55025C13.2625 3.86301 14 5.64348 14 7.5C14 9.35652 13.2625 11.137 11.9497 12.4497C10.637 13.7625 8.85652 14.5 7 14.5C5.14348 14.5 3.36301 13.7625 2.05025 12.4497C0.737498 11.137 0 9.35652 0 7.5C0 5.64348 0.737498 3.86301 2.05025 2.55025C3.36301 1.2375 5.14348 0.5 7 0.5ZM7.92925 4.273C7.92925 4.04094 7.83706 3.81838 7.67297 3.65428C7.50887 3.49019 7.28631 3.398 7.05425 3.398C6.82219 3.398 6.59963 3.49019 6.43553 3.65428C6.27144 3.81838 6.17925 4.04094 6.17925 4.273V6.67925H3.773C3.54094 6.67925 3.31838 6.77144 3.15428 6.93553C2.99019 7.09963 2.898 7.32219 2.898 7.55425C2.898 7.78631 2.99019 8.00887 3.15428 8.17297C3.31838 8.33706 3.54094 8.42925 3.773 8.42925H6.17925V10.8355C6.17925 11.0676 6.27144 11.2901 6.43553 11.4542C6.59963 11.6183 6.82219 11.7105 7.05425 11.7105C7.28631 11.7105 7.50887 11.6183 7.67297 11.4542C7.83706 11.2901 7.92925 11.0676 7.92925 10.8355V8.42925H10.3355C10.5676 8.42925 10.7901 8.33706 10.9542 8.17297C11.1183 8.00887 11.2105 7.78631 11.2105 7.55425C11.2105 7.32219 11.1183 7.09963 10.9542 6.93553C10.7901 6.77144 10.5676 6.67925 10.3355 6.67925H7.92925V4.273Z" fill="#F6F2ED"/>
</g>
<defs>
<clipPath id="clip0_181_12199">
<rect width="14" height="14" fill="white" transform="translate(0 0.5)"/>
</clipPath>
</defs>
</svg>
