<svg width="43" height="43" viewBox="0 0 43 43" fill="none" xmlns="http://www.w3.org/2000/svg">
<path d="M21.6701 42.43C33.3868 42.43 42.8851 32.9317 42.8851 21.215C42.8851 9.49828 33.3868 0 21.6701 0C9.95336 0 0.455078 9.49828 0.455078 21.215C0.455078 32.9317 9.95336 42.43 21.6701 42.43Z" fill="#F6F2ED"/>
<path d="M21.6701 41.93C33.1107 41.93 42.3851 32.6556 42.3851 21.215C42.3851 9.77442 33.1107 0.5 21.6701 0.5C10.2295 0.5 0.955078 9.77442 0.955078 21.215C0.955078 32.6556 10.2295 41.93 21.6701 41.93Z" stroke="#272421"/>
<path d="M41.3123 21.4266C41.3164 24.0273 40.8028 26.603 39.8016 29.0033C38.8003 31.4037 37.3314 33.5807 35.4803 35.4076C33.6732 37.2075 31.5281 38.6323 29.1683 39.6C26.8086 40.5678 24.2807 41.0593 21.7303 41.0466C17.8482 41.0541 14.0512 39.9098 10.8197 37.7585C7.58819 35.6072 5.06751 32.5456 3.57669 28.9612C2.08587 25.3768 1.6919 21.4306 2.44464 17.6222C3.19739 13.8138 5.063 10.3144 7.80539 7.5667C10.5478 4.81899 14.0437 2.94658 17.8506 2.18645C21.6576 1.42632 25.6044 1.81257 29.1917 3.29644C32.779 4.7803 35.8455 7.29508 38.0031 10.5224C40.1606 13.7497 41.3123 17.5445 41.3123 21.4266Z" fill="url(#paint0_linear_591_6318)"/>
<path d="M21.7415 39.3961C31.713 39.3961 39.7965 31.3126 39.7965 21.3411C39.7965 11.3696 31.713 3.28613 21.7415 3.28613C11.77 3.28613 3.68652 11.3696 3.68652 21.3411C3.68652 31.3126 11.77 39.3961 21.7415 39.3961Z" fill="#F6F2ED"/>
<path d="M21.7415 38.8961C31.4369 38.8961 39.2965 31.0365 39.2965 21.3411C39.2965 11.6458 31.4369 3.78613 21.7415 3.78613C12.0462 3.78613 4.18652 11.6458 4.18652 21.3411C4.18652 31.0365 12.0462 38.8961 21.7415 38.8961Z" stroke="#272421"/>
<path d="M21.7789 6.34363C13.5277 6.34363 6.83887 13.0325 6.83887 21.2836C6.83887 29.5348 13.5277 36.2236 21.7789 36.2236C30.03 36.2236 36.7189 29.5348 36.7189 21.2836C36.7189 13.0325 30.03 6.34363 21.7789 6.34363Z" stroke="#272421" stroke-dasharray="1 1.5"/>
<path fill-rule="evenodd" clip-rule="evenodd" d="M22.5078 11.7881V15.1381C22.5089 16.0262 22.8622 16.8777 23.4902 17.5057C24.1182 18.1337 24.9697 18.487 25.8578 18.4881H29.2078V26.8631C29.2052 27.7508 28.8514 28.6013 28.2237 29.229C27.596 29.8567 26.7455 30.2104 25.8578 30.2131H17.4828C16.5945 30.212 15.7429 29.8586 15.1148 29.2304C14.4868 28.6021 14.1336 27.7504 14.1328 26.8621V15.1381C14.1327 14.6981 14.2192 14.2624 14.3875 13.8559C14.5559 13.4494 14.8026 13.0801 15.1137 12.769C15.4248 12.4579 15.7942 12.2111 16.2007 12.0428C16.6072 11.8745 17.0428 11.788 17.4828 11.7881H22.5078ZM24.1828 12.2741V15.1291C24.1827 15.3491 24.2259 15.567 24.31 15.7702C24.3942 15.9735 24.5176 16.1582 24.6731 16.3138C24.8287 16.4693 25.0134 16.5927 25.2167 16.6769C25.4199 16.761 25.6378 16.8042 25.8578 16.8041H28.7128L24.1738 12.2651L24.1828 12.2741ZM21.6698 20.9881H18.3198C18.2096 20.987 18.1003 21.0079 17.9982 21.0496C17.8962 21.0913 17.8035 21.1529 17.7256 21.2309C17.6476 21.3088 17.586 21.4015 17.5443 21.5035C17.5027 21.6056 17.4817 21.7149 17.4828 21.8251V27.6881H21.6698V20.9881ZM22.5068 27.6881H25.8568V23.5041C25.8571 23.3941 25.8356 23.2851 25.7936 23.1835C25.7517 23.0818 25.69 22.9894 25.6122 22.9116C25.5345 22.8339 25.4421 22.7722 25.3404 22.7303C25.2388 22.6883 25.1298 22.6668 25.0198 22.6671H22.5078L22.5068 27.6881ZM17.4828 16.8041H20.8328V15.1291H17.4828V16.8041ZM21.6698 19.3161H17.4828V17.6421H21.6698V19.3161Z" fill="url(#paint1_linear_591_6318)"/>
<defs>
<linearGradient id="paint0_linear_591_6318" x1="1.47318" y1="3.65965" x2="63.5569" y2="31.515" gradientUnits="userSpaceOnUse">
<stop stop-color="#A58969"/>
<stop offset="1" stop-color="#C7B664"/>
</linearGradient>
<linearGradient id="paint1_linear_591_6318" x1="13.9027" y1="12.6582" x2="39.1523" y2="21.9273" gradientUnits="userSpaceOnUse">
<stop stop-color="#A58969"/>
<stop offset="1" stop-color="#C7B664"/>
</linearGradient>
</defs>
</svg>
