<svg id="SvgjsSvg1006" width="288" height="288" xmlns="http://www.w3.org/2000/svg" version="1.1" xmlns:xlink="http://www.w3.org/1999/xlink" xmlns:svgjs="http://svgjs.com/svgjs"><defs id="SvgjsDefs1007"></defs><g id="SvgjsG1008"><svg xmlns="http://www.w3.org/2000/svg" fill="none" viewBox="0 0 15 15" width="288" height="288"><path stroke="#f6f2ed" stroke-linecap="round" stroke-width="2" d="M14 14L11.0093 11.004L14 14ZM12.6667 7.00001C12.6667 8.5029 12.0696 9.94424 11.0069 11.0069C9.94423 12.0697 8.50289 12.6667 7 12.6667C5.4971 12.6667 4.05576 12.0697 2.99306 11.0069C1.93035 9.94424 1.33333 8.5029 1.33333 7.00001C1.33333 5.49712 1.93035 4.05578 2.99306 2.99307C4.05576 1.93037 5.4971 1.33334 7 1.33334C8.50289 1.33334 9.94423 1.93037 11.0069 2.99307C12.0696 4.05578 12.6667 5.49712 12.6667 7.00001V7.00001Z" class="colorStroke000 svgStroke"></path></svg></g></svg>