<svg width="43" height="43" viewBox="0 0 43 43" fill="none" xmlns="http://www.w3.org/2000/svg">
<path d="M21.6701 42.43C33.3868 42.43 42.8851 32.9317 42.8851 21.215C42.8851 9.49828 33.3868 0 21.6701 0C9.95336 0 0.455078 9.49828 0.455078 21.215C0.455078 32.9317 9.95336 42.43 21.6701 42.43Z" fill="#F6F2ED"/>
<path d="M21.6701 41.93C33.1107 41.93 42.3851 32.6556 42.3851 21.215C42.3851 9.77442 33.1107 0.5 21.6701 0.5C10.2295 0.5 0.955078 9.77442 0.955078 21.215C0.955078 32.6556 10.2295 41.93 21.6701 41.93Z" stroke="#272421"/>
<path d="M41.3123 21.4266C41.3164 24.0273 40.8028 26.603 39.8016 29.0033C38.8003 31.4037 37.3314 33.5807 35.4803 35.4076C33.6732 37.2075 31.5281 38.6323 29.1683 39.6C26.8086 40.5678 24.2807 41.0593 21.7303 41.0466C17.8482 41.0541 14.0512 39.9098 10.8197 37.7585C7.58819 35.6072 5.06751 32.5456 3.57669 28.9612C2.08587 25.3768 1.6919 21.4306 2.44464 17.6222C3.19739 13.8138 5.063 10.3144 7.80539 7.5667C10.5478 4.81899 14.0437 2.94658 17.8506 2.18645C21.6576 1.42632 25.6044 1.81257 29.1917 3.29644C32.779 4.7803 35.8455 7.29508 38.0031 10.5224C40.1606 13.7497 41.3123 17.5445 41.3123 21.4266Z" fill="url(#paint0_linear_591_6275)"/>
<path d="M21.7415 39.3961C31.713 39.3961 39.7965 31.3126 39.7965 21.3411C39.7965 11.3696 31.713 3.28613 21.7415 3.28613C11.77 3.28613 3.68652 11.3696 3.68652 21.3411C3.68652 31.3126 11.77 39.3961 21.7415 39.3961Z" fill="#F6F2ED"/>
<path d="M21.7415 38.8961C31.4369 38.8961 39.2965 31.0365 39.2965 21.3411C39.2965 11.6458 31.4369 3.78613 21.7415 3.78613C12.0462 3.78613 4.18652 11.6458 4.18652 21.3411C4.18652 31.0365 12.0462 38.8961 21.7415 38.8961Z" stroke="#272421"/>
<path d="M21.7789 6.34363C13.5277 6.34363 6.83887 13.0325 6.83887 21.2836C6.83887 29.5348 13.5277 36.2236 21.7789 36.2236C30.03 36.2236 36.7189 29.5348 36.7189 21.2836C36.7189 13.0325 30.03 6.34363 21.7789 6.34363Z" stroke="#272421" stroke-dasharray="1 1.5"/>
<path fill-rule="evenodd" clip-rule="evenodd" d="M16.4151 15.5997C16.4137 15.0243 16.5261 14.4543 16.7457 13.9224C16.9653 13.3905 17.2878 12.9072 17.6947 12.5004C18.1016 12.0935 18.5848 11.771 19.1167 11.5514C19.6486 11.3318 20.2186 11.2194 20.7941 11.2207H22.5461C23.1213 11.2202 23.6909 11.3331 24.2224 11.553C24.754 11.7729 25.2369 12.0954 25.6436 12.5021C26.0504 12.9089 26.3729 13.3918 26.5928 13.9233C26.8127 14.4548 26.9256 15.0245 26.9251 15.5997V19.5407H25.1731V15.5997C25.1723 14.9032 24.8952 14.2355 24.4027 13.743C23.9103 13.2505 23.2425 12.9735 22.5461 12.9727H20.7941C20.449 12.9723 20.1072 13.04 19.7883 13.1719C19.4694 13.3038 19.1796 13.4972 18.9356 13.7413C18.6916 13.9853 18.4981 14.275 18.3662 14.5939C18.2343 14.9128 18.1667 15.2546 18.1671 15.5997V19.5407H16.4151V15.5997Z" fill="url(#paint1_linear_591_6275)"/>
<path fill-rule="evenodd" clip-rule="evenodd" d="M13.7881 19.5411C13.7869 19.4257 13.8088 19.3113 13.8524 19.2044C13.896 19.0976 13.9604 19.0006 14.042 18.919C14.1236 18.8374 14.2207 18.7729 14.3275 18.7293C14.4343 18.6857 14.5488 18.6639 14.6641 18.6651H28.6771C28.7923 18.6647 28.9064 18.6871 29.0128 18.731C29.1193 18.7748 29.216 18.8394 29.2974 18.9208C29.3789 19.0022 29.4434 19.0989 29.4873 19.2054C29.5311 19.3118 29.5535 19.4259 29.5531 19.5411V28.7411C29.5526 28.9733 29.4601 29.1958 29.296 29.3599C29.1318 29.5241 28.9093 29.6166 28.6771 29.6171H14.6641C14.5486 29.6175 14.4342 29.595 14.3275 29.5508C14.2208 29.5067 14.1239 29.4418 14.0424 29.36C13.9609 29.2781 13.8965 29.1809 13.8528 29.074C13.8092 28.9671 13.7872 28.8526 13.7881 28.7371V19.5411ZM17.2881 23.4821H26.0461V21.7301H17.2881V23.4821ZM17.2881 26.5471H26.0461V24.7961H17.2881V26.5471Z" fill="url(#paint2_linear_591_6275)"/>
<defs>
<linearGradient id="paint0_linear_591_6275" x1="1.47318" y1="3.65965" x2="63.5569" y2="31.515" gradientUnits="userSpaceOnUse">
<stop stop-color="#A58969"/>
<stop offset="1" stop-color="#C7B664"/>
</linearGradient>
<linearGradient id="paint1_linear_591_6275" x1="16.2546" y1="11.6136" x2="31.3737" y2="20.1827" gradientUnits="userSpaceOnUse">
<stop stop-color="#A58969"/>
<stop offset="1" stop-color="#C7B664"/>
</linearGradient>
<linearGradient id="paint2_linear_591_6275" x1="13.5474" y1="19.1822" x2="34.6915" y2="32.8382" gradientUnits="userSpaceOnUse">
<stop stop-color="#A58969"/>
<stop offset="1" stop-color="#C7B664"/>
</linearGradient>
</defs>
</svg>
