<svg width="307" height="220" viewBox="0 0 307 220" fill="none" xmlns="http://www.w3.org/2000/svg">
<path d="M144.21 220C204.962 220 254.21 170.751 254.21 110C254.21 49.2487 204.962 0 144.21 0C83.4591 0 34.2104 49.2487 34.2104 110C34.2104 170.751 83.4591 220 144.21 220Z" fill="#C3B075" fill-opacity="0.1"/>
<path opacity="0.2" d="M300.34 92.251C301.614 92.251 302.859 91.8733 303.918 91.1657C304.977 90.4581 305.802 89.4523 306.29 88.2755C306.777 87.0988 306.905 85.8039 306.656 84.5547C306.408 83.3055 305.794 82.158 304.894 81.2573C303.993 80.3567 302.846 79.7433 301.596 79.4948C300.347 79.2464 299.052 79.3739 297.876 79.8613C296.699 80.3487 295.693 81.1742 294.985 82.2332C294.278 83.2923 293.9 84.5374 293.9 85.8111C293.9 87.519 294.579 89.1571 295.786 90.3648C296.994 91.5725 298.632 92.251 300.34 92.251Z" fill="url(#paint0_linear_861_35572)"/>
<path d="M68.807 199.262H66.8182V203.121H68.807V199.262Z" fill="#272421"/>
<path d="M68.8069 209.895H66.8182V213.754H68.8069V209.895Z" fill="#272421"/>
<path d="M75.061 205.514H71.2014V207.502H75.061V205.514Z" fill="#272421"/>
<path d="M64.4261 205.514H60.5665V207.502H64.4261V205.514Z" fill="#272421"/>
<path d="M3.94257 54.975C6.11999 54.975 7.88513 53.2098 7.88513 51.0324C7.88513 48.855 6.11999 47.0898 3.94257 47.0898C1.76515 47.0898 0 48.855 0 51.0324C0 53.2098 1.76515 54.975 3.94257 54.975Z" fill="#272421"/>
<path d="M17.9608 113.108C19.6879 113.108 21.088 111.708 21.088 109.981C21.088 108.254 19.6879 106.854 17.9608 106.854C16.2337 106.854 14.8336 108.254 14.8336 109.981C14.8336 111.708 16.2337 113.108 17.9608 113.108Z" fill="#272421"/>
<path d="M293.904 158.785C295.834 158.785 297.398 157.22 297.398 155.291C297.398 153.361 295.834 151.797 293.904 151.797C291.974 151.797 290.41 153.361 290.41 155.291C290.41 157.22 291.974 158.785 293.904 158.785Z" fill="#272421"/>
<path d="M246.088 24.5396C247.815 24.5396 249.216 23.1395 249.216 21.4124C249.216 19.6853 247.815 18.2852 246.088 18.2852C244.361 18.2852 242.961 19.6853 242.961 21.4124C242.961 23.1395 244.361 24.5396 246.088 24.5396Z" fill="#272421"/>
<path d="M67.1861 83.3711H11.3331V140.581H67.1861V83.3711Z" fill="url(#paint1_linear_861_35572)"/>
<path d="M282.663 50.6934H279.919V55.3847H282.663V50.6934Z" fill="#272421"/>
<path d="M282.663 63.6191H279.919V68.3105H282.663V63.6191Z" fill="#272421"/>
<path d="M290.099 58.1309H285.408V60.8749H290.099V58.1309Z" fill="#272421"/>
<path d="M277.172 58.1309H272.481V60.8749H277.172V58.1309Z" fill="#272421"/>
<path d="M222.695 192.403C224.188 192.403 225.398 191.193 225.398 189.7C225.398 188.207 224.188 186.996 222.695 186.996C221.201 186.996 219.991 188.207 219.991 189.7C219.991 191.193 221.201 192.403 222.695 192.403Z" fill="#272421"/>
<path d="M207.378 31.3125H93.0819C92.9017 31.3125 92.7233 31.348 92.5568 31.417C92.3904 31.4859 92.2391 31.587 92.1117 31.7144C91.9843 31.8418 91.8832 31.993 91.8143 32.1595C91.7453 32.326 91.7098 32.5044 91.7098 32.6846V183.987C91.7101 184.35 91.8548 184.699 92.112 184.956C92.3693 185.214 92.7181 185.358 93.0819 185.359H171.403C171.585 185.359 171.767 185.323 171.935 185.253C172.104 185.183 172.257 185.08 172.385 184.949L208.365 148.383C208.617 148.127 208.759 147.782 208.759 147.422V32.6856C208.759 32.5047 208.723 32.3255 208.654 32.1584C208.584 31.9913 208.482 31.8396 208.354 31.712C208.226 31.5844 208.073 31.4834 207.906 31.4148C207.738 31.3463 207.559 31.3115 207.378 31.3125ZM206.006 146.857L170.825 182.616H94.4517V34.0599H206.005V146.857H206.006Z" fill="#272421"/>
<path d="M131.749 64.6193V53.7041C131.748 53.3403 131.604 52.9915 131.346 52.7342C131.089 52.477 130.74 52.3323 130.377 52.332H112.197C111.833 52.332 111.484 52.4766 111.227 52.7339C110.97 52.9912 110.825 53.3402 110.825 53.7041V71.8888C110.825 72.2527 110.97 72.6016 111.227 72.859C111.484 73.1163 111.833 73.2608 112.197 73.2608H130.381V70.52H113.572V55.0794H129.012V64.6182H131.749V64.6193Z" fill="#272421"/>
<path d="M131.749 93.3888V82.4736C131.749 82.2934 131.713 82.115 131.644 81.9485C131.575 81.7821 131.474 81.6308 131.347 81.5034C131.219 81.376 131.068 81.275 130.902 81.206C130.735 81.1371 130.557 81.1016 130.377 81.1016H112.197C112.017 81.1016 111.839 81.1371 111.672 81.206C111.506 81.275 111.355 81.376 111.227 81.5034C111.1 81.6308 110.999 81.7821 110.93 81.9485C110.861 82.115 110.825 82.2934 110.825 82.4736V100.66C110.825 101.024 110.97 101.373 111.227 101.631C111.484 101.888 111.833 102.033 112.197 102.033H130.381V99.2885H113.572V83.8511H129.012V93.3899H131.749V93.3888Z" fill="#272421"/>
<path d="M131.749 122.15V111.235C131.749 110.871 131.604 110.522 131.347 110.265C131.09 110.008 130.741 109.863 130.377 109.863H112.198C111.834 109.863 111.485 110.008 111.227 110.265C110.97 110.522 110.826 110.871 110.826 111.235V129.42C110.826 129.784 110.97 130.133 111.228 130.39C111.485 130.647 111.834 130.792 112.198 130.792H130.381V128.048H113.572V112.612H129.012V122.15H131.749Z" fill="#272421"/>
<path d="M125.249 58.8848H117.372V66.7208H125.249V58.8848Z" fill="#272421"/>
<path d="M125.249 87.6465H117.372V95.4825H125.249V87.6465Z" fill="#272421"/>
<path d="M125.249 116.416H117.372V124.252H125.249V116.416Z" fill="#272421"/>
<path d="M131.749 151.424V140.509C131.748 140.145 131.604 139.796 131.347 139.539C131.089 139.282 130.741 139.137 130.377 139.137H112.197C111.834 139.137 111.485 139.281 111.227 139.539C110.97 139.796 110.825 140.145 110.825 140.509V158.692C110.825 159.056 110.97 159.405 111.227 159.663C111.485 159.92 111.834 160.064 112.197 160.064H130.381V157.32H113.572V141.885H129.012V151.423H131.749V151.424Z" fill="#272421"/>
<path d="M125.249 145.689H117.372V153.525H125.249V145.689Z" fill="#272421"/>
<path d="M208.647 146.885C208.542 146.635 208.366 146.423 208.141 146.273C207.916 146.123 207.652 146.043 207.382 146.043H171.396C171.033 146.043 170.684 146.188 170.426 146.445C170.169 146.702 170.024 147.051 170.024 147.415V183.981C170.024 184.253 170.106 184.519 170.257 184.745C170.409 184.971 170.625 185.147 170.877 185.25C171.042 185.318 171.218 185.353 171.396 185.353C171.579 185.354 171.76 185.318 171.929 185.247C172.098 185.177 172.251 185.073 172.379 184.943L208.363 148.377C208.552 148.184 208.68 147.939 208.73 147.673C208.781 147.408 208.752 147.134 208.647 146.885ZM172.768 180.634V148.788H204.106L172.768 180.634Z" fill="#272421"/>
<path d="M176.569 152.59V171.351L195.03 152.59H176.569Z" fill="#272421"/>
<path d="M257.841 52.3379H217.965V55.082H256.469V72.1184H259.213V53.711C259.213 53.5307 259.178 53.3521 259.109 53.1855C259.041 53.0188 258.939 52.8674 258.812 52.7398C258.685 52.6123 258.533 52.5111 258.367 52.4421C258.2 52.3732 258.021 52.3377 257.841 52.3379Z" fill="#272421"/>
<path d="M256.47 152.234V169.27H217.966V172.014H257.842C258.206 172.014 258.555 171.869 258.813 171.612C259.07 171.355 259.214 171.006 259.214 170.642V152.232H256.469L256.47 152.234Z" fill="#272421"/>
<path d="M37.7386 52.3379C37.5584 52.3379 37.38 52.3734 37.2135 52.4423C37.047 52.5113 36.8958 52.6123 36.7684 52.7397C36.641 52.8672 36.5399 53.0184 36.471 53.1849C36.402 53.3513 36.3665 53.5297 36.3665 53.7099V72.1184H39.1106V55.0841H77.6161V52.3379H37.7386Z" fill="#272421"/>
<path d="M39.1106 169.271V152.234H36.3665V170.643C36.3668 171.007 36.5115 171.355 36.7687 171.613C37.0259 171.87 37.3748 172.015 37.7386 172.015H77.615V169.271H39.1106Z" fill="#272421"/>
<path d="M231.355 94.3158L229.063 92.8007C228.54 93.591 228.042 94.4118 227.585 95.2447L229.986 96.5665C230.415 95.8013 230.873 95.0438 231.355 94.3158ZM226.186 114.318L223.449 114.529C223.523 115.479 223.636 116.432 223.786 117.366L226.496 116.93C226.353 116.071 226.248 115.192 226.186 114.318ZM228.829 98.9274L226.319 97.8108C225.931 98.6786 225.578 99.5725 225.266 100.469L227.857 101.372C228.142 100.544 228.468 99.721 228.824 98.922L228.829 98.9274ZM227.096 103.888L224.438 103.204C224.201 104.125 224.002 105.06 223.841 105.996L226.546 106.459C226.688 105.599 226.873 104.732 227.091 103.883L227.096 103.888ZM226.211 109.065L223.482 108.828C223.4 109.766 223.356 110.726 223.352 111.679L226.096 111.691C226.09 110.809 226.131 109.926 226.206 109.061L226.211 109.065ZM231.186 129.107L228.884 130.6C229.399 131.394 229.956 132.178 230.536 132.929L232.702 131.25C232.167 130.555 231.655 129.831 231.18 129.102L231.186 129.107ZM234.4 133.264L232.375 135.12C233.015 135.821 233.693 136.503 234.387 137.147L236.253 135.135C235.608 134.533 234.984 133.905 234.395 133.26L234.4 133.264ZM228.703 124.48L226.186 125.571C226.563 126.445 226.982 127.306 227.431 128.141L229.849 126.843C229.431 126.071 229.045 125.276 228.696 124.476L228.703 124.48ZM227.021 119.508L224.356 120.163C224.583 121.082 224.853 122.005 225.157 122.905L227.757 122.026C227.473 121.198 227.225 120.349 227.015 119.504L227.021 119.508ZM288.712 104.336L291.379 103.689C291.161 102.769 290.891 101.845 290.591 100.942L287.987 101.809C288.257 102.634 288.502 103.485 288.707 104.332L288.712 104.336ZM287.054 99.3542L289.577 98.2758C289.205 97.4026 288.79 96.5392 288.345 95.6998L285.921 96.9867C286.328 97.7519 286.705 98.5498 287.049 99.3488L287.054 99.3542ZM234.617 90.1964L232.609 88.3255C231.954 89.023 231.334 89.7511 230.754 90.4922L232.908 92.1928C233.437 91.5051 234.012 90.8327 234.611 90.1909L234.617 90.1964ZM281.4 90.5446L283.435 88.7021C282.795 87.9959 282.125 87.3115 281.433 86.6653L279.555 88.6683C280.185 89.2577 280.805 89.8897 281.395 90.5358L281.4 90.5446ZM289.522 109.527L292.26 109.329C292.191 108.379 292.083 107.425 291.932 106.491L289.221 106.914C289.353 107.768 289.453 108.647 289.517 109.522L289.522 109.527ZM236.832 84.4856C236.085 85.0597 235.349 85.6764 234.642 86.3182L236.487 88.3495C237.142 87.7579 237.816 87.1903 238.503 86.662L236.832 84.4856ZM269.301 79.2932C268.407 78.9788 267.489 78.6972 266.572 78.4582L265.879 81.1128C266.725 81.3311 267.569 81.5919 268.389 81.8768L269.301 79.2932ZM274.513 81.6312C273.685 81.1728 272.825 80.7427 271.957 80.3531L270.833 82.8559C271.632 83.215 272.425 83.6113 273.186 84.0315L274.513 81.6312ZM279.264 84.7966C278.521 84.2083 277.745 83.6429 276.955 83.1157L275.427 85.3992C276.154 85.8838 276.87 86.4045 277.555 86.9469L279.264 84.7966ZM284.588 94.7142L286.898 93.2308C286.386 92.434 285.834 91.6481 285.261 90.8939L283.078 92.5628C283.609 93.2548 284.117 93.9785 284.587 94.712L284.588 94.7142ZM277.309 136.939L278.993 139.104C279.745 138.519 280.479 137.903 281.176 137.261L279.321 135.24C278.677 135.825 278.002 136.396 277.308 136.936L277.309 136.939ZM272.91 139.807L274.214 142.223C275.045 141.774 275.87 141.283 276.667 140.763L275.169 138.463C274.431 138.94 273.673 139.392 272.909 139.805L272.91 139.807ZM281.181 133.383L283.198 135.246C283.839 134.55 284.462 133.818 285.047 133.069L282.885 131.378C282.343 132.066 281.771 132.739 281.18 133.38L281.181 133.383ZM268.1 141.907L268.984 144.505C269.878 144.2 270.774 143.85 271.646 143.472L270.547 140.962C269.745 141.308 268.921 141.628 268.1 141.907ZM284.416 129.238L286.708 130.744C287.23 129.948 287.723 129.124 288.175 128.291L285.764 126.982C285.346 127.747 284.895 128.505 284.416 129.238ZM288.633 119.653L291.294 120.326C291.526 119.402 291.723 118.463 291.878 117.529L289.17 117.08C289.028 117.938 288.846 118.806 288.633 119.653ZM289.603 111.842C289.603 112.716 289.567 113.605 289.494 114.468L292.229 114.693C292.306 113.755 292.346 112.795 292.346 111.841H289.603V111.842ZM286.928 124.62L289.438 125.725C289.82 124.852 290.17 123.96 290.479 123.062L287.885 122.17C287.598 122.997 287.276 123.822 286.924 124.62H286.928ZM236.555 138.993C237.297 139.577 238.077 140.138 238.872 140.664L240.384 138.372C239.652 137.888 238.934 137.37 238.251 136.834L236.555 138.993ZM263.006 143.182L263.448 145.891C264.389 145.737 265.33 145.544 266.245 145.314L265.58 142.652C264.735 142.861 263.869 143.038 263.004 143.181L263.006 143.182ZM241.322 142.139C242.155 142.593 243.017 143.019 243.886 143.404L244.997 140.893C244.198 140.539 243.405 140.148 242.639 139.728L241.322 142.139ZM246.546 144.454C247.442 144.764 248.362 145.04 249.281 145.274L249.961 142.615C249.116 142.397 248.269 142.145 247.443 141.859L246.546 144.454ZM246.862 79.1273C245.961 79.4296 245.063 79.7746 244.196 80.149L245.287 82.6682C246.086 82.3244 246.91 82.0133 247.74 81.7295L246.862 79.1273ZM241.623 81.3878C240.781 81.8375 239.954 82.3243 239.163 82.8363L240.652 85.1416C241.38 84.6722 242.143 84.2236 242.918 83.8077L241.623 81.3878ZM258.073 80.0878L258.104 77.3438H257.84C256.972 77.3438 256.093 77.3754 255.238 77.4398L255.442 80.1773C256.233 80.1184 257.04 80.0878 257.843 80.0878H258.073ZM257.765 143.601L257.845 146.345H257.879C258.785 146.345 259.705 146.308 260.615 146.236L260.397 143.501C259.546 143.566 258.686 143.577 257.762 143.6L257.765 143.601ZM263.781 77.8524C262.853 77.6909 261.9 77.5664 260.948 77.4813L260.704 80.2101C261.577 80.2887 262.457 80.4033 263.31 80.5517L263.781 77.8524ZM252.079 145.866C253.016 146.023 253.969 146.142 254.911 146.223L255.143 143.488C254.275 143.414 253.396 143.303 252.533 143.16L252.079 145.866ZM252.406 77.7694C251.474 77.9157 250.532 78.1056 249.605 78.3327L250.26 80.9982C251.114 80.7886 251.979 80.615 252.835 80.4808L252.406 77.7694Z" fill="#272421"/>
<path d="M15.3025 75.7184H12.5584V78.4624H15.3025V75.7184ZM13.8234 148.238H16.5675V145.494H13.8234V148.238ZM4.03471 141.767C4.32397 142.814 4.80512 143.798 5.45368 144.669L7.65527 143.031C7.20729 142.432 6.87422 141.755 6.67291 141.034L4.03471 141.767ZM20.7917 75.7184H18.0476V78.4624H20.7917V75.7184ZM7.82118 146.862C8.73806 147.445 9.75514 147.852 10.8207 148.063L11.3566 145.373C10.6228 145.227 9.92244 144.946 9.29146 144.544L7.82118 146.862ZM26.281 75.7151H23.5358V78.4592H26.2799L26.281 75.7151ZM30.289 148.238H33.0331V145.494H30.289V148.238ZM31.7691 75.7184H29.0239V78.4624H31.768L31.7691 75.7184ZM24.7998 148.238H27.5493V145.494H24.7998V148.238ZM19.3116 148.238H22.0557V145.494H19.3116V148.238ZM6.45679 135.936H3.71271V138.676H6.45679V135.936ZM7.1117 81.797L4.6656 80.5516C4.1706 81.5231 3.86149 82.5785 3.75419 83.6635L6.48298 83.9397C6.55852 83.1937 6.77287 82.4685 7.11497 81.8014L7.1117 81.797ZM6.45679 86.5342H3.71271V89.2783H6.45679V86.5342ZM6.45679 92.0224H3.71271V94.7665H6.45679V92.0224ZM37.2573 75.7129H34.5132V78.457H37.2573V75.7129ZM74.4846 82.1943C74.1956 81.1473 73.7144 80.1631 73.0656 79.292L70.863 80.9293C71.3115 81.5284 71.6446 82.2058 71.8453 82.9267L74.4846 82.1943ZM10.3666 78.8608L9.38424 76.299C8.37 76.6876 7.43662 77.2609 6.63143 77.9898L8.47064 80.0266C9.02512 79.5241 9.66798 79.1289 10.3666 78.8608ZM6.45679 103.005H3.71271V105.749H6.45679V103.005ZM6.45679 113.983H3.71271V116.727H6.45679V113.983ZM6.45679 119.471H3.71271V122.215H6.45679V119.471ZM6.45679 130.448H3.71271V133.192H6.45679V130.448ZM6.45679 108.494H3.71271V111.239H6.45679V108.494ZM6.45679 97.5171H3.71271V100.261H6.45679V97.5171ZM6.45679 124.96H3.71271V127.704H6.45679V124.96ZM72.0571 131.934H74.8011V129.19H72.0614L72.0571 131.934ZM72.0571 115.467H74.8011V112.723H72.0614L72.0571 115.467ZM72.0571 120.955H74.8011V118.211H72.0614L72.0571 120.955ZM35.7739 148.243H38.518V145.499H35.7772L35.7739 148.243ZM68.1418 145.097L69.1242 147.659C70.1378 147.271 71.0707 146.699 71.8759 145.971L70.0388 143.932C69.4848 144.432 68.8432 144.825 68.1462 145.092L68.1418 145.097ZM71.3967 142.163L73.8417 143.409C74.3356 142.441 74.645 141.389 74.7542 140.308L72.0254 140.03C71.9508 140.772 71.7391 141.493 71.4011 142.158L71.3967 142.163ZM72.0516 137.426H74.7957V134.682H72.0614L72.0516 137.426ZM72.0516 93.5167H74.7957V90.7726H72.0614L72.0516 93.5167ZM72.0516 85.2844V88.0285H74.7957V85.279L72.0516 85.2844ZM72.0516 104.495H74.7957V101.751H72.0614L72.0516 104.495ZM72.0516 99.007H74.7957V96.2629H72.0614L72.0516 99.007ZM72.0516 109.984H74.7957V107.24H72.0614L72.0516 109.984ZM72.0516 126.45H74.7957V123.706H72.0614L72.0516 126.45ZM70.6938 77.1002C69.7767 76.5173 68.7592 76.1102 67.6932 75.8995L67.1572 78.5901C67.8907 78.736 68.5906 79.0169 69.2213 79.4186L70.6938 77.1002ZM53.7141 75.7238H50.9788V78.4679H53.7228L53.7141 75.7238ZM46.76 148.238H49.5041V145.494H46.76V148.238ZM41.2708 148.238H44.0094V145.494H41.2653L41.2708 148.238ZM42.7509 75.7184H40.0013V78.4624H42.7454L42.7509 75.7184ZM48.2401 75.7184H45.4906V78.4624H48.2347L48.2401 75.7184ZM63.2201 148.238H65.9642V145.494H63.2201V148.238ZM64.7002 75.7184H61.9562V78.4624H64.7002V75.7184ZM59.2121 75.7184H56.4669V78.4624H59.211L59.2121 75.7184ZM52.2427 148.238H54.9868V145.494H52.2427V148.238ZM57.7309 148.238H60.475V145.494H57.732L57.7309 148.238Z" fill="#272421"/>
<path d="M259.88 104.307H256.562V110.106H259.88C260.667 110.11 261.424 109.805 261.988 109.257C262.263 108.992 262.483 108.674 262.633 108.322C262.783 107.971 262.86 107.593 262.861 107.21C262.85 106.43 262.53 105.687 261.971 105.143C261.412 104.598 260.66 104.298 259.88 104.307Z" fill="#272421"/>
<path d="M261.241 113.094H256.567V119.376H261.241C262.092 119.378 262.91 119.047 263.52 118.453C263.819 118.166 264.057 117.822 264.219 117.44C264.381 117.059 264.465 116.649 264.465 116.234C264.453 115.391 264.107 114.586 263.502 113.997C262.898 113.409 262.084 113.084 261.241 113.094Z" fill="#272421"/>
<path d="M257.844 89.7695C253.478 89.7697 249.21 91.0646 245.58 93.4903C241.95 95.916 239.121 99.3636 237.45 103.397C235.78 107.431 235.342 111.869 236.194 116.151C237.046 120.433 239.148 124.367 242.236 127.454C245.323 130.541 249.256 132.643 253.538 133.495C257.82 134.347 262.258 133.91 266.292 132.239C270.326 130.568 273.773 127.739 276.199 124.109C278.625 120.479 279.92 116.211 279.92 111.846C279.913 105.993 277.585 100.382 273.446 96.2431C269.308 92.1046 263.697 89.7765 257.844 89.7695ZM268.799 120.973C267.63 122.107 266.063 122.739 264.433 122.732H261.476V127.443H258.464V122.732H256.563V127.443H253.557V122.776H247.454V119.617H249.709C249.893 119.648 250.082 119.636 250.26 119.582C250.439 119.527 250.602 119.432 250.737 119.303C250.872 119.174 250.976 119.016 251.039 118.84C251.102 118.664 251.124 118.476 251.101 118.291V105.442C251.124 105.256 251.102 105.068 251.039 104.893C250.976 104.717 250.872 104.558 250.737 104.43C250.602 104.301 250.439 104.205 250.26 104.151C250.082 104.096 249.893 104.084 249.709 104.115H247.454V100.957H253.557V96.2455H256.563V100.957H258.464V96.2455H261.476V100.957H263.572C264.893 100.94 266.167 101.449 267.113 102.372C268.059 103.294 268.601 104.554 268.619 105.875C268.619 106.524 268.488 107.166 268.234 107.764C267.98 108.361 267.608 108.901 267.14 109.351C266.414 110.054 265.495 110.526 264.501 110.708C266.105 110.705 267.646 111.334 268.789 112.46C269.931 113.585 270.584 115.116 270.605 116.72C270.605 117.514 270.445 118.3 270.135 119.03C269.825 119.761 269.37 120.421 268.799 120.973Z" fill="url(#paint2_linear_861_35572)"/>
<path d="M181.944 52.3379H140.592C140.311 52.3382 140.042 52.4498 139.844 52.6483C139.645 52.8468 139.533 53.1159 139.533 53.3967V59.9949C139.533 60.2756 139.645 60.5448 139.844 60.7432C140.042 60.9417 140.311 61.0534 140.592 61.0537H181.944C182.225 61.0534 182.494 60.9417 182.693 60.7432C182.891 60.5448 183.003 60.2756 183.003 59.9949V53.3967C183.003 53.1159 182.891 52.8468 182.693 52.6483C182.494 52.4498 182.225 52.3382 181.944 52.3379ZM180.884 58.935H141.652V54.4598H180.885L180.884 58.935Z" fill="#272421"/>
<path d="M181.944 64.2598H140.592C140.311 64.2601 140.042 64.3717 139.844 64.5702C139.645 64.7687 139.533 65.0378 139.533 65.3185V71.9157C139.533 72.1964 139.645 72.4655 139.844 72.664C140.042 72.8625 140.311 72.9742 140.592 72.9744H181.944C182.225 72.9742 182.494 72.8625 182.693 72.664C182.891 72.4655 183.003 72.1964 183.003 71.9157V65.3185C183.003 65.0378 182.891 64.7687 182.693 64.5702C182.494 64.3717 182.225 64.2601 181.944 64.2598ZM180.884 70.8569H141.652V66.3817H180.885L180.884 70.8569Z" fill="#272421"/>
<path d="M181.944 81.7695H140.592C140.311 81.7698 140.042 81.8815 139.844 82.08C139.645 82.2784 139.533 82.5476 139.533 82.8283V89.4255C139.533 89.7062 139.645 89.9753 139.844 90.1738C140.042 90.3723 140.311 90.4839 140.592 90.4842H181.944C182.225 90.4839 182.494 90.3723 182.693 90.1738C182.891 89.9753 183.003 89.7062 183.003 89.4255V82.8283C183.003 82.5476 182.891 82.2784 182.693 82.08C182.494 81.8815 182.225 81.7698 181.944 81.7695ZM180.884 88.3667H141.652V83.8914H180.885L180.884 88.3667Z" fill="#272421"/>
<path d="M181.944 93.6934H140.592C140.311 93.6936 140.042 93.8053 139.844 94.0038C139.645 94.2023 139.533 94.4714 139.533 94.7521V101.356C139.533 101.637 139.645 101.906 139.844 102.104C140.042 102.303 140.311 102.414 140.592 102.415H181.944C182.225 102.414 182.494 102.303 182.693 102.104C182.891 101.906 183.003 101.637 183.003 101.356V94.7521C183.003 94.4714 182.891 94.2023 182.693 94.0038C182.494 93.8053 182.225 93.6936 181.944 93.6934ZM180.884 100.291H141.652V95.8153H180.885L180.884 100.291Z" fill="#272421"/>
<path d="M181.944 109.869H140.592C140.311 109.869 140.042 109.981 139.844 110.18C139.645 110.378 139.533 110.647 139.533 110.928V117.525C139.533 117.806 139.645 118.075 139.844 118.273C140.042 118.472 140.311 118.584 140.592 118.584H181.944C182.225 118.584 182.494 118.472 182.693 118.273C182.891 118.075 183.003 117.806 183.003 117.525V110.928C183.003 110.647 182.891 110.378 182.693 110.18C182.494 109.981 182.225 109.869 181.944 109.869ZM180.884 116.466H141.652V111.991H180.885L180.884 116.466Z" fill="#272421"/>
<path d="M181.944 121.791H140.592C140.311 121.791 140.042 121.903 139.844 122.101C139.645 122.3 139.533 122.569 139.533 122.85V129.453C139.533 129.734 139.645 130.003 139.844 130.202C140.042 130.4 140.311 130.512 140.592 130.512H181.944C182.225 130.512 182.494 130.4 182.693 130.202C182.891 130.003 183.003 129.734 183.003 129.453V122.85C183.003 122.569 182.891 122.3 182.693 122.101C182.494 121.903 182.225 121.791 181.944 121.791ZM180.884 128.388H141.652V123.913H180.885L180.884 128.388Z" fill="#272421"/>
<path d="M165.371 138.939H140.594C140.313 138.94 140.044 139.051 139.846 139.25C139.647 139.448 139.535 139.718 139.535 139.998V146.595C139.535 146.876 139.647 147.145 139.846 147.344C140.044 147.542 140.313 147.654 140.594 147.654H165.371C165.652 147.654 165.921 147.542 166.12 147.344C166.318 147.145 166.43 146.876 166.43 146.595V139.998C166.43 139.718 166.318 139.448 166.12 139.25C165.921 139.051 165.652 138.94 165.371 138.939ZM164.312 145.537H141.652V141.061H164.313L164.312 145.537Z" fill="#272421"/>
<path d="M165.372 150.867H140.594C140.313 150.867 140.044 150.979 139.846 151.178C139.647 151.376 139.536 151.645 139.535 151.926V158.53C139.536 158.81 139.647 159.079 139.846 159.278C140.044 159.476 140.313 159.588 140.594 159.588H165.372C165.652 159.588 165.921 159.476 166.12 159.278C166.318 159.079 166.43 158.81 166.43 158.53V151.926C166.43 151.645 166.318 151.376 166.12 151.178C165.921 150.979 165.652 150.867 165.372 150.867ZM164.312 157.464H141.652V152.989H164.313L164.312 157.464Z" fill="#272421"/>
<defs>
<linearGradient id="paint0_linear_861_35572" x1="293.703" y1="79.9793" x2="314.081" y2="89.1224" gradientUnits="userSpaceOnUse">
<stop stop-color="#846E55"/>
<stop offset="1" stop-color="#B3A55C"/>
</linearGradient>
<linearGradient id="paint1_linear_861_35572" x1="10.4804" y1="86.0727" x2="99.5477" y2="125.087" gradientUnits="userSpaceOnUse">
<stop stop-color="#846E55"/>
<stop offset="1" stop-color="#B3A55C"/>
</linearGradient>
<linearGradient id="paint2_linear_861_35572" x1="235.096" y1="91.8544" x2="304.947" y2="123.195" gradientUnits="userSpaceOnUse">
<stop stop-color="#846E55"/>
<stop offset="1" stop-color="#B3A55C"/>
</linearGradient>
</defs>
</svg>
