<svg width="10" height="24" viewBox="0 0 10 24" fill="none" xmlns="http://www.w3.org/2000/svg">
<path d="M4.8 24C3.52737 23.9987 2.30724 23.4925 1.40735 22.5927C0.507461 21.6928 0.00132359 20.4726 0 19.2L0 4.8C0 3.52696 0.505713 2.30606 1.40589 1.40589C2.30606 0.505713 3.52696 0 4.8 0C6.07304 0 7.29394 0.505713 8.19411 1.40589C9.09429 2.30606 9.6 3.52696 9.6 4.8V19.2C9.59868 20.4726 9.09254 21.6928 8.19265 22.5927C7.29276 23.4925 6.07263 23.9987 4.8 24ZM6.69 17.371C6.48295 17.3713 6.28445 17.4536 6.13804 17.6C5.99163 17.7465 5.90926 17.9449 5.909 18.152V18.932C5.909 19.1391 5.99128 19.3378 6.13775 19.4843C6.28422 19.6307 6.48287 19.713 6.69 19.713C6.89713 19.713 7.09578 19.6307 7.24225 19.4843C7.38872 19.3378 7.471 19.1391 7.471 18.932V18.152C7.471 18.0492 7.45074 17.9475 7.41138 17.8525C7.37202 17.7576 7.31433 17.6713 7.2416 17.5987C7.16888 17.5261 7.08256 17.4685 6.98757 17.4292C6.89257 17.39 6.79078 17.3699 6.688 17.37L6.69 17.371ZM4.801 17.371C4.59395 17.3713 4.39545 17.4536 4.24904 17.6C4.10263 17.7465 4.02026 17.9449 4.02 18.152V18.932C4.02 19.1391 4.10228 19.3378 4.24875 19.4843C4.39522 19.6307 4.59387 19.713 4.801 19.713C5.00813 19.713 5.20678 19.6307 5.35325 19.4843C5.49972 19.3378 5.582 19.1391 5.582 18.932V18.152C5.582 17.9446 5.49961 17.7457 5.35296 17.599C5.2063 17.4524 5.0074 17.37 4.8 17.37L4.801 17.371ZM2.912 17.371C2.70495 17.3713 2.50645 17.4536 2.36004 17.6C2.21363 17.7465 2.13126 17.9449 2.131 18.152V18.932C2.131 19.0346 2.1512 19.1361 2.19045 19.2309C2.2297 19.3256 2.28723 19.4117 2.35975 19.4843C2.43227 19.5568 2.51837 19.6143 2.61312 19.6535C2.70788 19.6928 2.80944 19.713 2.912 19.713C3.01456 19.713 3.11612 19.6928 3.21088 19.6535C3.30563 19.6143 3.39173 19.5568 3.46425 19.4843C3.53677 19.4117 3.5943 19.3256 3.63355 19.2309C3.6728 19.1361 3.693 19.0346 3.693 18.932V18.152C3.693 18.0492 3.67274 17.9475 3.63338 17.8525C3.59402 17.7576 3.53633 17.6713 3.4636 17.5987C3.39088 17.5261 3.30456 17.4685 3.20957 17.4292C3.11457 17.39 3.01278 17.3699 2.91 17.37L2.912 17.371ZM1.812 8.013C1.54678 8.013 1.29243 8.11836 1.10489 8.30589C0.917357 8.49343 0.812 8.74778 0.812 9.013V14.987C0.812 15.2522 0.917357 15.5066 1.10489 15.6941C1.29243 15.8816 1.54678 15.987 1.812 15.987H7.786C8.05122 15.987 8.30557 15.8816 8.49311 15.6941C8.68064 15.5066 8.786 15.2522 8.786 14.987V9.012C8.786 8.74678 8.68064 8.49243 8.49311 8.30489C8.30557 8.11736 8.05122 8.012 7.786 8.012L1.812 8.013ZM4.8 3.076C4.53018 3.0756 4.26631 3.15524 4.04176 3.30483C3.81721 3.45443 3.64207 3.66726 3.5385 3.9164C3.43493 4.16555 3.40757 4.43981 3.45989 4.70451C3.51222 4.9692 3.64187 5.21243 3.83245 5.40343C4.02303 5.59443 4.26597 5.72462 4.53055 5.77752C4.79513 5.83043 5.06945 5.80367 5.31882 5.70065C5.5682 5.59762 5.78141 5.42295 5.9315 5.19873C6.08159 4.97451 6.1618 4.71082 6.162 4.441C6.162 4.0795 6.0186 3.73276 5.76326 3.47686C5.50792 3.22096 5.1615 3.07679 4.8 3.076Z" fill="url(#paint0_linear_182_7978)"/>
<defs>
<linearGradient id="paint0_linear_182_7978" x1="-0.146565" y1="1.13333" x2="17.5303" y2="4.30581" gradientUnits="userSpaceOnUse">
<stop stop-color="#846E55"/>
<stop offset="1" stop-color="#B3A55C"/>
</linearGradient>
</defs>
</svg>
