<svg width="128" height="117" viewBox="0 0 128 117" fill="none" xmlns="http://www.w3.org/2000/svg">
<path opacity="0.4" d="M124.866 20.009C124.737 19.977 124.626 19.897 124.554 19.7854C124.482 19.6738 124.456 19.5389 124.48 19.4083C124.504 19.2777 124.576 19.1612 124.683 19.0825C124.79 19.0038 124.922 18.9689 125.054 18.9848C125.185 19.0008 125.306 19.0664 125.391 19.1683C125.475 19.2703 125.518 19.4008 125.511 19.5334C125.503 19.6659 125.445 19.7905 125.349 19.8818C125.252 19.973 125.125 20.024 124.993 20.0244C124.95 20.0245 124.907 20.0194 124.866 20.009ZM126.472 18.102C126.472 17.9505 126.516 17.8023 126.6 17.6764C126.684 17.5504 126.804 17.4522 126.943 17.3942C127.083 17.3362 127.236 17.321 127.385 17.3506C127.533 17.3802 127.669 17.4531 127.776 17.5603C127.883 17.6674 127.955 17.8039 127.985 17.9525C128.014 18.1011 127.999 18.2552 127.941 18.3952C127.884 18.5351 127.786 18.6548 127.66 18.739C127.534 18.8232 127.387 18.8681 127.236 18.8681C127.033 18.8681 126.839 18.7874 126.695 18.6437C126.552 18.5 126.472 18.3052 126.472 18.102ZM124.245 0.971491C124.245 0.779304 124.302 0.591436 124.408 0.431653C124.515 0.27187 124.666 0.147352 124.843 0.0738524C125.021 0.000352834 125.215 -0.0188259 125.403 0.0187426C125.591 0.0563111 125.764 0.148939 125.899 0.284907C126.035 0.420875 126.127 0.594074 126.164 0.782593C126.202 0.971111 126.182 1.16648 126.109 1.34398C126.035 1.52148 125.911 1.67313 125.751 1.77976C125.592 1.88638 125.405 1.94319 125.213 1.94298C125.086 1.94298 124.96 1.91785 124.842 1.86901C124.725 1.82018 124.618 1.7486 124.528 1.65838C124.438 1.56815 124.367 1.46105 124.318 1.34319C124.27 1.22533 124.245 1.09902 124.245 0.971491Z" fill="url(#paint0_linear_516_8812)"/>
<path opacity="0.4" d="M119.085 18.869C124.008 18.869 127.999 14.8671 127.999 9.93048C127.999 4.99386 124.008 0.991943 119.085 0.991943C114.162 0.991943 110.171 4.99386 110.171 9.93048C110.171 14.8671 114.162 18.869 119.085 18.869Z" fill="url(#paint1_linear_516_8812)"/>
<path opacity="0.4" d="M24.0896 111.573C37.3939 111.573 48.1792 100.758 48.1792 87.4171C48.1792 74.0762 37.3939 63.2612 24.0896 63.2612C10.7853 63.2612 0 74.0762 0 87.4171C0 100.758 10.7853 111.573 24.0896 111.573Z" fill="url(#paint2_linear_516_8812)"/>
<path opacity="0.4" d="M17.4331 114.931C17.4331 114.521 17.5541 114.121 17.7809 113.781C18.0076 113.441 18.3299 113.176 18.707 113.019C19.0841 112.862 19.499 112.821 19.8993 112.901C20.2996 112.981 20.6673 113.178 20.9559 113.468C21.2445 113.757 21.441 114.126 21.5207 114.527C21.6003 114.928 21.5594 115.344 21.4032 115.723C21.247 116.101 20.9825 116.424 20.6432 116.651C20.3038 116.879 19.9048 117 19.4967 117C18.9494 117 18.4245 116.782 18.0375 116.394C17.6505 116.006 17.4331 115.48 17.4331 114.931ZM24.6511 115.033C24.6511 114.754 24.7338 114.481 24.8887 114.248C25.0436 114.016 25.2638 113.835 25.5213 113.728C25.7789 113.621 26.0623 113.593 26.3357 113.648C26.609 113.702 26.8601 113.837 27.0572 114.035C27.2542 114.232 27.3883 114.484 27.4426 114.758C27.4969 115.033 27.4688 115.317 27.362 115.575C27.2552 115.833 27.0744 116.054 26.8425 116.209C26.6106 116.364 26.3381 116.447 26.0593 116.446C25.6856 116.446 25.3272 116.298 25.0629 116.033C24.7986 115.768 24.6511 115.408 24.6511 115.033ZM5.7334 63.8453C5.7336 63.3262 5.8873 62.8188 6.17505 62.3873C6.46281 61.9557 6.87171 61.6195 7.35004 61.4209C7.82838 61.2224 8.35468 61.1706 8.86239 61.272C9.3701 61.3734 9.83643 61.6235 10.2024 61.9906C10.5684 62.3577 10.8176 62.8255 10.9185 63.3346C11.0195 63.8437 10.9676 64.3715 10.7694 64.851C10.5712 65.3306 10.2357 65.7405 9.80528 66.0289C9.37482 66.3173 8.86876 66.4712 8.35108 66.4712C8.00723 66.4712 7.66676 66.4033 7.3491 66.2713C7.03144 66.1393 6.74282 65.9459 6.49974 65.702C6.25665 65.4582 6.06385 65.1687 5.93236 64.8501C5.80087 64.5315 5.73326 64.1901 5.7334 63.8453Z" fill="url(#paint3_linear_516_8812)"/>
<path d="M34.5791 9.51497L34.5791 100.972C34.5791 103.808 36.8717 106.106 39.6998 106.106H110.59C113.418 106.106 115.711 103.808 115.711 100.972V9.51497C115.711 6.67914 113.418 4.38024 110.59 4.38024H39.6998C36.8717 4.38024 34.5791 6.67914 34.5791 9.51497Z" fill="#F6F2ED"/>
<path d="M35.3477 9.51492L35.3477 100.972C35.3477 103.382 37.2964 105.336 39.7002 105.336H110.591C112.994 105.336 114.943 103.382 114.943 100.972V9.51492C114.943 7.10445 112.994 5.15039 110.591 5.15039H39.7002C37.2964 5.15039 35.3477 7.10445 35.3477 9.51492Z" stroke="#272421" stroke-width="1.5"/>
<path d="M55.5713 57.6863H51.868V59.4084H50.9463V54.7718H51.868V56.494H55.5713V57.6863Z" fill="#F6F2ED"/>
<path d="M51.4338 53.7699C51.0712 53.618 50.892 53.4249 50.892 52.856C50.8635 52.6651 50.9019 52.4703 51.0007 52.3047C51.0995 52.1391 51.2526 52.0131 51.4338 51.9481L55.5702 50.2126V51.4655L54.5144 51.8824V53.8336L55.5713 54.2536V55.4983L51.4338 53.7699ZM53.6141 53.5471V52.172L52.1476 52.7625C52.0759 52.7902 52.0022 52.8087 52.0022 52.856C52.0022 52.9032 52.0739 52.9278 52.1476 52.9587L53.6141 53.5471Z" fill="#F6F2ED"/>
<path d="M55.5709 49.98H51.6628C51.5669 49.994 51.4692 49.9856 51.3771 49.9555C51.285 49.9255 51.201 49.8746 51.1317 49.8068C51.0624 49.7389 51.0096 49.656 50.9773 49.5644C50.9451 49.4728 50.9344 49.375 50.9459 49.2786V46.814C50.9459 45.787 51.587 45.5611 52.5118 45.5611C53.4366 45.5611 54.091 45.787 54.091 46.814V48.7877H55.5719V49.98H55.5709ZM53.1652 47.4291C53.1652 46.9321 52.9727 46.7801 52.5108 46.7801C52.0489 46.7801 51.8676 46.9331 51.8676 47.4291V48.4756C51.8676 48.7076 51.9475 48.7836 52.1749 48.7836H53.1601L53.1652 47.4291Z" fill="#F6F2ED"/>
<path d="M55.0675 44.8002V42.2103C55.0675 41.8591 54.8228 41.7194 54.4203 41.7194C54.1755 41.7194 53.9307 41.7718 53.7792 42.2329L53.1708 44.0711C53.1132 44.3223 52.9642 44.5429 52.7531 44.6899C52.542 44.8368 52.2838 44.8996 52.0289 44.866C51.8846 44.8868 51.7375 44.8742 51.5988 44.8291C51.4601 44.7841 51.3335 44.7078 51.2288 44.606C51.1241 44.5043 51.044 44.3799 50.9947 44.2423C50.9454 44.1047 50.9282 43.9576 50.9444 43.8123V41.3004H51.4452V43.6994C51.4452 44.0506 51.6101 44.2231 52.0402 44.2231C52.1815 44.2452 52.3258 44.2123 52.4436 44.1312C52.5615 44.05 52.644 43.9268 52.6741 43.7867L53.2548 42.0408C53.4596 41.4247 53.6901 41.0806 54.4172 41.0806C55.045 41.0806 55.5673 41.3261 55.5673 42.0408V44.8002H55.0675Z" fill="#F6F2ED"/>
<path d="M55.5713 40.3799H50.9463V39.7637H55.5713V40.3799Z" fill="#F6F2ED"/>
<path d="M54.9681 34.8951C55.3973 34.8951 55.5683 35.1077 55.5683 35.5051V37.1893C55.5683 38.6938 54.5442 39.0378 53.2558 39.0378C51.9674 39.0378 50.9443 38.6928 50.9443 37.1031V35.003H51.4451V36.8967C51.4451 38.0561 52.0012 38.3929 53.2568 38.3929C54.5124 38.3929 55.0675 38.0561 55.0675 36.9839V35.8153C55.0675 35.5832 54.9876 35.5072 54.7602 35.5072H53.3746V34.891L54.9681 34.8951Z" fill="#F6F2ED"/>
<path d="M55.0425 29.9857C55.119 29.9762 55.1965 29.9838 55.2696 30.0081C55.3427 30.0324 55.4095 30.0727 55.4651 30.1261C55.5207 30.1795 55.5638 30.2446 55.5911 30.3168C55.6185 30.389 55.6294 30.4664 55.6232 30.5434C55.6286 30.6695 55.597 30.7945 55.5324 30.9029C55.4678 31.0113 55.373 31.0984 55.2597 31.1534L51.7725 33.3397C51.6926 33.3859 51.6598 33.425 51.6598 33.4722C51.6598 33.4989 51.6865 33.5657 51.7919 33.5657H55.571V34.1675H51.4417C51.3666 34.1732 51.2911 34.1623 51.2207 34.1354C51.1503 34.1086 51.0867 34.0665 51.0343 34.0122C50.982 33.9578 50.9423 33.8926 50.918 33.8211C50.8937 33.7496 50.8854 33.6736 50.8938 33.5985C50.8868 33.4772 50.9148 33.3565 50.9744 33.2507C51.0339 33.145 51.1226 33.0586 51.2297 33.0019L54.7445 30.797C54.7967 30.7642 54.8572 30.7364 54.8572 30.6707C54.8572 30.605 54.7855 30.5906 54.7445 30.5906H50.944V29.9878H55.0405L55.0425 29.9857Z" fill="#F6F2ED"/>
<path d="M55.5703 28.4756C55.5822 28.5642 55.5734 28.6545 55.5446 28.7391C55.5158 28.8238 55.4678 28.9006 55.4043 28.9635C55.3409 29.0264 55.2638 29.0737 55.179 29.1017C55.0943 29.1296 55.0042 29.1375 54.9159 29.1246H51.5988C51.1041 29.1246 50.9443 28.8792 50.9443 28.4756V25.6073H51.4451V28.2003C51.4451 28.4591 51.525 28.5084 51.7524 28.5084H52.9516V25.6741H53.4524V28.5084H54.7469C54.9784 28.5084 55.0634 28.4622 55.0634 28.2003V25.5827H55.5652V28.4756H55.5703Z" fill="#F6F2ED"/>
<path d="M51.6458 24.9175C51.1511 24.9175 50.9463 24.672 50.9463 24.2356V22.0882C50.9463 21.2328 51.4881 20.9586 52.3473 20.9586C53.2332 20.9586 53.82 21.2102 53.82 22.0122V22.7609H53.8528L55.5713 20.8631V21.6847L53.946 23.4602C53.9111 23.5068 53.8674 23.546 53.8172 23.5754C53.7671 23.6049 53.7117 23.624 53.6541 23.6317H53.5517C53.4134 23.6317 53.3202 23.529 53.3202 23.3534V22.2238C53.3202 21.661 52.9106 21.6076 52.3483 21.6076C51.7861 21.6076 51.4502 21.7011 51.4502 22.3265V23.9706C51.4491 24.1832 51.5157 24.3013 51.7656 24.3013H55.5723V24.9175H51.6458Z" fill="#F6F2ED"/>
<path d="M42.4697 16.6571L42.4697 93.831C42.4697 96.2415 44.4184 98.1956 46.8223 98.1956H104.034C106.438 98.1956 108.387 96.2415 108.387 93.831V16.6571C108.387 14.2466 106.438 12.2925 104.034 12.2925H46.8223C44.4184 12.2925 42.4697 14.2466 42.4697 16.6571Z" stroke="#272421" stroke-width="1.5" stroke-dasharray="1.5 2"/>
<path d="M87.0292 36.06H84.0449C83.9143 35.0979 83.4422 34.2152 82.7152 33.5739C81.9881 32.9326 81.0549 32.5756 80.0866 32.5684H70.767C69.7993 32.5765 68.8669 32.9339 68.1405 33.5751C67.4142 34.2163 66.9425 35.0985 66.8118 36.06H63.8039C62.9723 36.06 62.1488 36.2242 61.3805 36.5434C60.6121 36.8626 59.914 37.3304 59.326 37.9201C58.738 38.5098 58.2716 39.2099 57.9534 39.9804C57.6353 40.7509 57.4716 41.5767 57.4717 42.4106V71.5502C57.4688 72.386 57.6304 73.2141 57.9472 73.987C58.2641 74.76 58.7301 75.4627 59.3184 76.0547C59.9067 76.6467 60.6057 77.1164 61.3755 77.4369C62.1452 77.7574 62.9705 77.9224 63.8039 77.9224H87.0292C87.8639 77.9231 88.6905 77.7587 89.4618 77.4387C90.2331 77.1187 90.9339 76.6494 91.5241 76.0575C92.1144 75.4657 92.5824 74.763 92.9016 73.9895C93.2207 73.2161 93.3846 72.3872 93.3839 71.5502V42.4106C93.384 41.5748 93.2196 40.7471 92.9 39.9752C92.5805 39.2032 92.1121 38.5021 91.5217 37.9121C90.9312 37.3221 90.2305 36.8547 89.4596 36.5369C88.6886 36.2191 87.8627 36.057 87.0292 36.06ZM70.1587 48.2385C70.1528 48.6877 69.9723 49.1169 69.6555 49.4346C69.3387 49.7523 68.9107 49.9333 68.4627 49.9392H66.2014C65.7516 49.9392 65.3202 49.76 65.0022 49.4411C64.6841 49.1221 64.5055 48.6896 64.5055 48.2385C64.5055 47.7875 64.6841 47.3549 65.0022 47.036C65.3202 46.7171 65.7516 46.5379 66.2014 46.5379H68.4627C68.9107 46.5438 69.3387 46.7248 69.6555 47.0425C69.9723 47.3601 70.1528 47.7893 70.1587 48.2385ZM64.4143 66.9012C64.4202 66.4511 64.6014 66.0212 64.9193 65.7034C65.2372 65.3856 65.6665 65.2051 66.1154 65.2006H84.7228C85.1726 65.2006 85.604 65.3798 85.9221 65.6987C86.2401 66.0176 86.4188 66.4502 86.4188 66.9012C86.4188 67.3523 86.2401 67.7848 85.9221 68.1037C85.604 68.4227 85.1726 68.6018 84.7228 68.6018H66.1154C65.6674 68.596 65.2394 68.4149 64.9226 68.0973C64.6058 67.7796 64.4253 67.3504 64.4194 66.9012H64.4143ZM84.7679 59.2587H66.1154C65.6656 59.2587 65.2342 59.0795 64.9162 58.7606C64.5981 58.4417 64.4194 58.0091 64.4194 57.5581C64.4194 57.107 64.5981 56.6745 64.9162 56.3555C65.2342 56.0366 65.6656 55.8574 66.1154 55.8574H84.7228C85.1726 55.8574 85.604 56.0366 85.9221 56.3555C86.2401 56.6745 86.4188 57.107 86.4188 57.5581C86.4188 58.0091 86.2401 58.4417 85.9221 58.7606C85.604 59.0795 85.1726 59.2587 84.7228 59.2587H84.7679ZM70.2037 36.5827C70.2037 36.4193 70.2685 36.2625 70.3837 36.147C70.4989 36.0314 70.6552 35.9665 70.8182 35.9665H80.1378C80.2993 35.9712 80.4529 36.0376 80.5672 36.1521C80.6814 36.2667 80.7476 36.4207 80.7523 36.5827V38.8502C80.7523 39.0154 80.6882 39.174 80.5735 39.2925C80.4587 39.411 80.3024 39.48 80.1378 39.4848H70.769C70.6868 39.4849 70.6053 39.4684 70.5296 39.4362C70.4538 39.4041 70.3852 39.3571 70.3279 39.2979C70.2706 39.2387 70.2257 39.1686 70.1959 39.0917C70.1662 39.0148 70.1521 38.9326 70.1546 38.8502L70.2037 36.5827Z" fill="#272421"/>
<defs>
<linearGradient id="paint0_linear_516_8812" x1="124.188" y1="0.945598" x2="131.274" y2="1.54168" gradientUnits="userSpaceOnUse">
<stop stop-color="#A58969"/>
<stop offset="1" stop-color="#C7B664"/>
</linearGradient>
<linearGradient id="paint1_linear_516_8812" x1="109.899" y1="1.83614" x2="138.131" y2="14.4687" gradientUnits="userSpaceOnUse">
<stop stop-color="#A58969"/>
<stop offset="1" stop-color="#C7B664"/>
</linearGradient>
<linearGradient id="paint2_linear_516_8812" x1="-0.735561" y1="65.5426" x2="75.5612" y2="99.6813" gradientUnits="userSpaceOnUse">
<stop stop-color="#A58969"/>
<stop offset="1" stop-color="#C7B664"/>
</linearGradient>
<linearGradient id="paint3_linear_516_8812" x1="5.40155" y1="63.8554" x2="45.4889" y2="70.8644" gradientUnits="userSpaceOnUse">
<stop stop-color="#A58969"/>
<stop offset="1" stop-color="#C7B664"/>
</linearGradient>
</defs>
</svg>
