<svg width="125" height="117" viewBox="0 0 125 117" fill="none" xmlns="http://www.w3.org/2000/svg">
<path opacity="0.4" d="M105.651 101.243C105.679 101.13 105.749 101.032 105.847 100.969C105.945 100.906 106.064 100.882 106.178 100.904C106.293 100.925 106.395 100.989 106.464 101.083C106.533 101.177 106.564 101.293 106.55 101.409C106.536 101.525 106.478 101.631 106.388 101.706C106.299 101.78 106.184 101.818 106.068 101.811C105.952 101.804 105.842 101.753 105.762 101.668C105.682 101.584 105.637 101.472 105.637 101.355C105.637 101.317 105.642 101.28 105.651 101.243ZM107.324 102.655C107.457 102.655 107.587 102.695 107.698 102.769C107.808 102.843 107.894 102.948 107.945 103.07C107.996 103.193 108.009 103.328 107.983 103.459C107.957 103.589 107.893 103.709 107.799 103.803C107.705 103.897 107.586 103.961 107.455 103.987C107.325 104.013 107.19 103.999 107.067 103.949C106.944 103.898 106.839 103.812 106.765 103.701C106.692 103.59 106.652 103.46 106.652 103.328C106.652 103.239 106.669 103.152 106.703 103.07C106.737 102.989 106.787 102.915 106.849 102.852C106.975 102.726 107.146 102.655 107.324 102.655ZM122.35 100.697C122.519 100.698 122.683 100.748 122.823 100.841C122.963 100.935 123.072 101.068 123.137 101.224C123.201 101.38 123.218 101.551 123.185 101.716C123.152 101.882 123.07 102.033 122.951 102.152C122.832 102.271 122.68 102.352 122.515 102.385C122.349 102.418 122.178 102.401 122.022 102.336C121.867 102.272 121.734 102.162 121.64 102.022C121.547 101.882 121.497 101.717 121.497 101.549C121.497 101.437 121.519 101.326 121.562 101.222C121.605 101.119 121.668 101.025 121.747 100.946C121.826 100.867 121.92 100.804 122.024 100.762C122.127 100.719 122.238 100.697 122.35 100.697Z" fill="url(#paint0_linear_591_5843)"/>
<path opacity="0.4" d="M106.653 96.158C106.653 100.488 110.163 103.998 114.493 103.998C118.823 103.998 122.333 100.488 122.333 96.158C122.333 91.828 118.823 88.3179 114.493 88.3179C110.163 88.3179 106.653 91.828 106.653 96.158Z" fill="url(#paint1_linear_591_5843)"/>
<path opacity="0.4" d="M6.63968 35.1885C6.63968 46.8905 16.1261 56.3769 27.8281 56.3769C39.5302 56.3769 49.0166 46.8905 49.0166 35.1885C49.0166 23.4864 39.5302 14 27.8281 14C16.1261 14 6.63968 23.4864 6.63968 35.1885Z" fill="url(#paint2_linear_591_5843)"/>
<path opacity="0.4" d="M3.69525 29.3324C4.05422 29.3324 4.40512 29.4389 4.7036 29.6383C5.00207 29.8377 5.2347 30.1212 5.37208 30.4528C5.50945 30.7845 5.54539 31.1494 5.47536 31.5015C5.40533 31.8536 5.23247 32.177 4.97864 32.4308C4.72481 32.6846 4.40141 32.8575 4.04933 32.9275C3.69726 32.9975 3.33232 32.9616 3.00068 32.8242C2.66903 32.6869 2.38557 32.4542 2.18614 32.1557C1.98671 31.8573 1.88026 31.5064 1.88026 31.1474C1.88026 30.666 2.07148 30.2044 2.41185 29.864C2.75223 29.5236 3.21388 29.3324 3.69525 29.3324ZM3.60813 35.6805C3.85333 35.6805 4.09302 35.7532 4.29688 35.8894C4.50074 36.0257 4.65962 36.2193 4.75341 36.4459C4.84721 36.6724 4.87171 36.9217 4.82382 37.1622C4.77592 37.4026 4.65779 37.6235 4.48435 37.7968C4.31092 37.9701 4.08997 38.0881 3.84947 38.1359C3.60896 38.1836 3.3597 38.159 3.13322 38.065C2.90673 37.9711 2.71319 37.8121 2.57708 37.6081C2.44098 37.4042 2.36841 37.1644 2.36857 36.9192C2.36878 36.5906 2.49947 36.2755 2.73191 36.0432C2.96435 35.811 3.27952 35.6805 3.60813 35.6805ZM48.5041 19.0419C48.9595 19.0419 49.4047 19.1769 49.7833 19.4299C50.162 19.6829 50.4571 20.0425 50.6314 20.4632C50.8056 20.884 50.8512 21.3469 50.7624 21.7936C50.6736 22.2402 50.4543 22.6505 50.1323 22.9725C49.8102 23.2945 49.4 23.5138 48.9533 23.6026C48.5067 23.6915 48.0437 23.6459 47.623 23.4716C47.2023 23.2973 46.8427 23.0022 46.5897 22.6236C46.3367 22.2449 46.2016 21.7998 46.2016 21.3444C46.2016 20.7337 46.4442 20.1481 46.876 19.7163C47.3078 19.2845 47.8935 19.0419 48.5041 19.0419Z" fill="url(#paint3_linear_591_5843)"/>
<path d="M119.258 36.4136L22.1195 36.4136C19.5003 36.4136 17.377 38.2027 17.377 40.4096V89.1002C17.377 91.3071 19.5003 93.0962 22.1195 93.0962H119.258C121.877 93.0962 124 91.3071 124 89.1002V40.4096C124 38.2027 121.877 36.4136 119.258 36.4136Z" fill="#F6F2ED"/>
<path d="M119.258 37.0129L22.12 37.0129C19.8937 37.0129 18.0889 38.5337 18.0889 40.4096V89.1002C18.0889 90.9761 19.8937 92.4968 22.12 92.4968H119.258C121.485 92.4968 123.289 90.9761 123.289 89.1002V40.4096C123.289 38.5337 121.485 37.0129 119.258 37.0129Z" stroke="#272421" stroke-width="1.5"/>
<path d="M113.517 41.964L26.5924 41.964C24.3333 41.964 22.502 43.4723 22.502 45.333V84.1495C22.502 86.0102 24.3333 87.5185 26.5924 87.5185H113.517C115.776 87.5185 117.607 86.0102 117.607 84.1495V45.333C117.607 43.4723 115.776 41.964 113.517 41.964Z" stroke="#272421" stroke-width="1.5" stroke-dasharray="1.5 2"/>
<rect x="108.553" y="49.8579" width="30.2543" height="75.7605" rx="15.1272" transform="rotate(90 108.553 49.8579)" stroke="#272421" stroke-width="3"/>
<path d="M93.4256 48.3579C102.608 48.3579 110.053 55.8021 110.053 64.9851C110.053 74.168 102.608 81.6122 93.4256 81.6122H80.77V48.3579L93.4256 48.3579Z" fill="#272421"/>
<path d="M47.9201 48.3579C38.7372 48.3579 31.293 55.8021 31.293 64.9851C31.293 74.168 38.7372 81.6122 47.9201 81.6122H55.527V48.3579L47.9201 48.3579Z" fill="#272421"/>
<ellipse cx="94.9063" cy="64.5112" rx="4.75062" ry="5.04875" transform="rotate(90 94.9063 64.5112)" fill="#F6F2ED"/>
<rect x="50.4785" y="55.958" width="4.75062" height="10.0975" rx="2.37531" transform="rotate(90 50.4785 55.958)" fill="#F6F2ED"/>
<rect x="50.4785" y="62.6094" width="4.75062" height="10.0975" rx="2.37531" transform="rotate(90 50.4785 62.6094)" fill="#F6F2ED"/>
<rect x="50.4785" y="69.2603" width="4.75062" height="10.0975" rx="2.37531" transform="rotate(90 50.4785 69.2603)" fill="#F6F2ED"/>
<defs>
<linearGradient id="paint0_linear_591_5843" x1="122.372" y1="100.647" x2="121.846" y2="106.879" gradientUnits="userSpaceOnUse">
<stop stop-color="#A58969"/>
<stop offset="1" stop-color="#C7B664"/>
</linearGradient>
<linearGradient id="paint1_linear_591_5843" x1="121.593" y1="88.0785" x2="110.462" y2="112.887" gradientUnits="userSpaceOnUse">
<stop stop-color="#A58969"/>
<stop offset="1" stop-color="#C7B664"/>
</linearGradient>
<linearGradient id="paint2_linear_591_5843" x1="47.0155" y1="13.353" x2="16.9333" y2="80.3996" gradientUnits="userSpaceOnUse">
<stop stop-color="#A58969"/>
<stop offset="1" stop-color="#C7B664"/>
</linearGradient>
<linearGradient id="paint3_linear_591_5843" x1="48.4962" y1="18.75" x2="42.3158" y2="54.0026" gradientUnits="userSpaceOnUse">
<stop stop-color="#A58969"/>
<stop offset="1" stop-color="#C7B664"/>
</linearGradient>
</defs>
</svg>
