<svg width="185" height="145" viewBox="0 0 185 145" fill="none" xmlns="http://www.w3.org/2000/svg">
<g opacity="0.272">
<path d="M41.7488 133.977C60.0371 133.977 74.8627 119.151 74.8627 100.863C74.8627 82.5746 60.0371 67.749 41.7488 67.749C23.4604 67.749 8.63477 82.5746 8.63477 100.863C8.63477 119.151 23.4604 133.977 41.7488 133.977Z" fill="url(#paint0_linear_591_6131)"/>
<path d="M50.8238 143.215C51.2597 143.568 51.7905 143.784 52.349 143.835C52.9076 143.886 53.4688 143.771 53.9618 143.503C54.4548 143.236 54.8573 142.828 55.1186 142.332C55.3798 141.835 55.488 141.273 55.4295 140.715C55.371 140.157 55.1484 139.629 54.7899 139.198C54.4313 138.766 53.9529 138.451 53.4152 138.292C52.8774 138.132 52.3044 138.136 51.7687 138.302C51.233 138.468 50.7585 138.789 50.4053 139.225C49.9319 139.81 49.71 140.558 49.7884 141.307C49.8669 142.055 50.2393 142.741 50.8238 143.215Z" fill="url(#paint1_linear_591_6131)"/>
<path d="M61.0183 137.225C61.3161 137.466 61.6787 137.613 62.0603 137.649C62.4419 137.684 62.8253 137.605 63.1621 137.422C63.4989 137.239 63.7738 136.96 63.9523 136.621C64.1307 136.282 64.2045 135.898 64.1645 135.517C64.1244 135.136 63.9723 134.775 63.7272 134.48C63.4822 134.186 63.1553 133.97 62.7879 133.861C62.4204 133.753 62.029 133.755 61.663 133.869C61.2971 133.982 60.973 134.202 60.7319 134.5C60.4085 134.899 60.257 135.411 60.3107 135.922C60.3644 136.433 60.6189 136.902 61.0183 137.225Z" fill="url(#paint2_linear_591_6131)"/>
<path d="M3.59752 91.6617C4.30905 91.6617 5.00459 91.4507 5.5962 91.0554C6.18781 90.6601 6.64892 90.0983 6.92121 89.4409C7.19349 88.7835 7.26474 88.0602 7.12592 87.3624C6.98711 86.6645 6.64448 86.0235 6.14136 85.5204C5.63824 85.0172 4.99722 84.6746 4.29937 84.5358C3.60152 84.397 2.87817 84.4682 2.22081 84.7405C1.56345 85.0128 1.00159 85.4739 0.606292 86.0655C0.210991 86.6571 0 87.3527 0 88.0642C0 89.0183 0.379023 89.9334 1.05369 90.608C1.72836 91.2827 2.6434 91.6617 3.59752 91.6617Z" fill="url(#paint3_linear_591_6131)"/>
</g>
<g opacity="0.272">
<path d="M170.191 33.9499C175.598 29.8758 176.679 22.1896 172.605 16.7823C168.531 11.375 160.845 10.2942 155.437 14.3683C150.03 18.4424 148.949 26.1286 153.023 31.5359C157.097 36.9432 164.784 38.024 170.191 33.9499Z" fill="url(#paint4_linear_591_6131)"/>
<path d="M169.566 38.7014C169.516 38.9029 169.407 39.085 169.253 39.2246C169.1 39.3642 168.908 39.4551 168.703 39.4858C168.497 39.5165 168.287 39.4856 168.099 39.397C167.912 39.3084 167.754 39.1661 167.647 38.988C167.54 38.81 167.489 38.6043 167.499 38.3969C167.509 38.1894 167.58 37.9896 167.703 37.8227C167.827 37.6558 167.997 37.5292 168.193 37.4591C168.388 37.3889 168.6 37.3783 168.802 37.4285C169.072 37.4959 169.304 37.6679 169.447 37.9066C169.591 38.1453 169.634 38.4312 169.566 38.7014Z" fill="url(#paint5_linear_591_6131)"/>
<path d="M165.217 39.1998C165.183 39.3373 165.109 39.4615 165.004 39.5567C164.899 39.652 164.768 39.714 164.628 39.7349C164.488 39.7558 164.345 39.7348 164.217 39.6743C164.089 39.6139 163.981 39.5168 163.908 39.3954C163.835 39.2739 163.8 39.1336 163.807 38.9921C163.814 38.8506 163.862 38.7143 163.947 38.6004C164.031 38.4866 164.147 38.4002 164.28 38.3524C164.414 38.3045 164.558 38.2973 164.696 38.3316C164.88 38.3778 165.038 38.4952 165.136 38.6579C165.234 38.8207 165.263 39.0156 165.217 39.1998Z" fill="url(#paint6_linear_591_6131)"/>
<path d="M172.042 12.9387C171.832 13.0971 171.58 13.1896 171.317 13.2046C171.054 13.2195 170.792 13.1561 170.566 13.0224C170.339 12.8888 170.157 12.6909 170.042 12.4537C169.928 12.2165 169.886 11.9508 169.923 11.6901C169.96 11.4293 170.073 11.1853 170.248 10.9889C170.424 10.7925 170.653 10.6525 170.908 10.5866C171.163 10.5207 171.432 10.5318 171.68 10.6186C171.929 10.7055 172.146 10.864 172.305 11.0743C172.517 11.3563 172.609 11.7112 172.56 12.0608C172.51 12.4104 172.324 12.7262 172.042 12.9387Z" fill="url(#paint7_linear_591_6131)"/>
</g>
<path d="M100.988 129.143C136.65 129.143 165.559 100.233 165.559 64.5715C165.559 28.9097 136.65 0 100.988 0C65.3258 0 36.416 28.9097 36.416 64.5715C36.416 100.233 65.3258 129.143 100.988 129.143Z" fill="#F6F2ED"/>
<path d="M100.988 127.893C135.959 127.893 164.309 99.543 164.309 64.5715C164.309 29.6 135.959 1.25 100.988 1.25C66.0161 1.25 37.666 29.6 37.666 64.5715C37.666 99.543 66.0161 127.893 100.988 127.893Z" stroke="#272421" stroke-width="2"/>
<path d="M160.773 65.2074C160.785 73.1235 159.222 80.9628 156.175 88.2689C153.127 95.5749 148.657 102.201 143.023 107.763C137.523 113.24 130.994 117.577 123.811 120.522C116.629 123.468 108.935 124.964 101.173 124.925C89.3563 124.948 77.7986 121.466 67.9624 114.918C58.1261 108.37 50.4535 99.0511 45.9155 88.1408C41.3775 77.2306 40.1782 65.2194 42.4693 53.6273C44.7603 42.0352 50.4389 31.3833 58.7862 23.0197C67.1335 14.6561 77.7743 8.95681 89.362 6.64314C100.95 4.32947 112.963 5.5055 123.882 10.0222C134.801 14.5389 144.135 22.1934 150.702 32.0168C157.269 41.8402 160.775 53.391 160.774 65.2074H160.773Z" fill="url(#paint8_linear_591_6131)"/>
<path d="M101.205 119.91C131.556 119.91 156.161 95.3062 156.161 64.9552C156.161 34.6043 131.556 10 101.205 10C70.8544 10 46.25 34.6043 46.25 64.9552C46.25 95.3062 70.8544 119.91 101.205 119.91Z" fill="#F6F2ED"/>
<path d="M101.205 118.66C130.866 118.66 154.911 94.6158 154.911 64.9552C154.911 35.2947 130.866 11.25 101.205 11.25C71.5447 11.25 47.5 35.2947 47.5 64.9552C47.5 94.6158 71.5447 118.66 101.205 118.66Z" stroke="#272421" stroke-width="2"/>
<path d="M101.32 18.726C75.8839 18.726 55.2637 39.3461 55.2637 64.7824C55.2637 90.2187 75.8839 110.839 101.32 110.839C126.757 110.839 147.377 90.2187 147.377 64.7824C147.377 39.3461 126.757 18.726 101.32 18.726Z" stroke="url(#paint9_linear_591_6131)" stroke-width="1.5" stroke-dasharray="1.5 1.5"/>
<path d="M92.564 69.7945H109.799C110.477 69.8159 111.153 69.7007 111.786 69.4559C112.419 69.211 112.996 68.8416 113.483 68.3693C113.97 67.8971 114.358 67.3318 114.622 66.707C114.887 66.0822 115.023 65.4106 115.023 64.732C115.023 64.0535 114.887 63.3818 114.622 62.757C114.358 62.1322 113.97 61.5669 113.483 61.0947C112.996 60.6225 112.419 60.253 111.786 60.0082C111.153 59.7633 110.477 59.6482 109.799 59.6695H92.564C91.8858 59.6482 91.2102 59.7633 90.5774 60.0082C89.9445 60.253 89.3673 60.6225 88.8801 61.0947C88.3928 61.5669 88.0053 62.1322 87.7408 62.757C87.4762 63.3818 87.3398 64.0535 87.3398 64.732C87.3398 65.4106 87.4762 66.0822 87.7408 66.707C88.0053 67.3318 88.3928 67.8971 88.8801 68.3693C89.3673 68.8416 89.9445 69.211 90.5774 69.4559C91.2102 69.7007 91.8858 69.8159 92.564 69.7945ZM93.8565 63.1608C94.2192 63.1609 94.5705 63.2868 94.8507 63.517C95.131 63.7472 95.3227 64.0674 95.3933 64.4231C95.4639 64.7788 95.409 65.148 95.2379 65.4677C95.0668 65.7875 94.7902 66.038 94.4551 66.1767C94.12 66.3153 93.7472 66.3335 93.4002 66.2281C93.0532 66.1227 92.7535 65.9003 92.5521 65.5987C92.3508 65.2971 92.2602 64.935 92.2959 64.5741C92.3315 64.2132 92.4912 63.8759 92.7478 63.6195C92.8934 63.474 93.0663 63.3586 93.2565 63.2798C93.4467 63.2011 93.6506 63.1607 93.8565 63.1608ZM110.69 64.7283C110.69 65.03 110.571 65.3193 110.357 65.5326C110.144 65.7459 109.855 65.8658 109.553 65.8658H105.349C105.197 65.8708 105.045 65.8452 104.902 65.7903C104.76 65.7354 104.63 65.6525 104.52 65.5464C104.411 65.4404 104.324 65.3133 104.264 65.1729C104.205 65.0324 104.174 64.8814 104.174 64.7289C104.174 64.5763 104.205 64.4253 104.264 64.2849C104.324 64.1444 104.411 64.0174 104.52 63.9113C104.63 63.8053 104.76 63.7223 104.902 63.6675C105.045 63.6126 105.197 63.587 105.349 63.592H109.549C109.851 63.592 110.14 63.7119 110.353 63.9252C110.567 64.1385 110.687 64.4278 110.687 64.7295L110.69 64.7283Z" fill="url(#paint10_linear_591_6131)"/>
<path d="M92.564 57.6246H109.799C110.477 57.6459 111.153 57.5308 111.786 57.2859C112.419 57.0411 112.996 56.6716 113.483 56.1994C113.97 55.7272 114.358 55.1619 114.622 54.5371C114.887 53.9123 115.023 53.2406 115.023 52.5621C115.023 51.8836 114.887 51.2119 114.622 50.5871C114.358 49.9623 113.97 49.397 113.483 48.9248C112.996 48.4526 112.419 48.0831 111.786 47.8382C111.153 47.5934 110.477 47.4783 109.799 47.4996H92.564C91.8858 47.4783 91.2102 47.5934 90.5774 47.8382C89.9445 48.0831 89.3673 48.4526 88.8801 48.9248C88.3928 49.397 88.0053 49.9623 87.7408 50.5871C87.4762 51.2119 87.3398 51.8836 87.3398 52.5621C87.3398 53.2406 87.4762 53.9123 87.7408 54.5371C88.0053 55.1619 88.3928 55.7272 88.8801 56.1994C89.3673 56.6716 89.9445 57.0411 90.5774 57.2859C91.2102 57.5308 91.8858 57.6459 92.564 57.6246ZM93.8565 50.9458C94.2192 50.946 94.5705 51.0719 94.8507 51.3021C95.131 51.5323 95.3227 51.8525 95.3933 52.2082C95.4639 52.5639 95.409 52.9331 95.2379 53.2528C95.0668 53.5726 94.7902 53.8231 94.4551 53.9618C94.12 54.1004 93.7472 54.1186 93.4002 54.0132C93.0532 53.9078 92.7535 53.6853 92.5521 53.3837C92.3508 53.0821 92.2602 52.7201 92.2959 52.3592C92.3315 51.9983 92.4912 51.6609 92.7478 51.4046C92.8934 51.2591 93.0663 51.1436 93.2565 51.0649C93.4467 50.9862 93.6506 50.9457 93.8565 50.9458ZM110.69 52.5133C110.69 52.815 110.571 53.1044 110.357 53.3177C110.144 53.531 109.855 53.6508 109.553 53.6508H105.349C105.197 53.6559 105.045 53.6302 104.902 53.5754C104.76 53.5205 104.63 53.4376 104.52 53.3315C104.411 53.2255 104.324 53.0984 104.264 52.958C104.205 52.8175 104.174 52.6665 104.174 52.514C104.174 52.3614 104.205 52.2104 104.264 52.07C104.324 51.9295 104.411 51.8025 104.52 51.6964C104.63 51.5903 104.76 51.5074 104.902 51.4526C105.045 51.3977 105.197 51.372 105.349 51.3771H109.549C109.703 51.3769 109.855 51.408 109.997 51.4683C110.138 51.5286 110.266 51.617 110.372 51.7282C110.478 51.8393 110.561 51.9708 110.615 52.1148C110.669 52.2588 110.694 52.4122 110.687 52.5658L110.69 52.5133Z" fill="url(#paint11_linear_591_6131)"/>
<path d="M92.564 81.9596H109.799C111.114 81.9182 112.362 81.3668 113.277 80.4219C114.193 79.477 114.705 78.2128 114.705 76.8971C114.705 75.5813 114.193 74.3171 113.277 73.3722C112.362 72.4274 111.114 71.8759 109.799 71.8345H92.564C91.8858 71.8132 91.2102 71.9284 90.5774 72.1732C89.9445 72.418 89.3673 72.7875 88.8801 73.2597C88.3928 73.7319 88.0053 74.2972 87.7408 74.9221C87.4762 75.5469 87.3398 76.2185 87.3398 76.8971C87.3398 77.5756 87.4762 78.2472 87.7408 78.8721C88.0053 79.4969 88.3928 80.0622 88.8801 80.5344C89.3673 81.0066 89.9445 81.3761 90.5774 81.6209C91.2102 81.8657 91.8858 81.9809 92.564 81.9596ZM93.8565 75.3258C94.2192 75.326 94.5705 75.4519 94.8507 75.682C95.131 75.9122 95.3227 76.2325 95.3933 76.5882C95.4639 76.9439 95.409 77.313 95.2379 77.6328C95.0668 77.9525 94.7902 78.2031 94.4551 78.3417C94.12 78.4804 93.7472 78.4985 93.4002 78.3931C93.0532 78.2877 92.7535 78.0653 92.5521 77.7637C92.3508 77.4621 92.2602 77.1 92.2959 76.7391C92.3315 76.3782 92.4912 76.0409 92.7478 75.7845C92.8934 75.639 93.0663 75.5236 93.2565 75.4449C93.4467 75.3662 93.6506 75.3257 93.8565 75.3258ZM110.69 76.8933C110.69 77.195 110.571 77.4843 110.357 77.6976C110.144 77.911 109.855 78.0308 109.553 78.0308H105.349C105.197 78.0359 105.045 78.0102 104.902 77.9553C104.76 77.9005 104.63 77.8176 104.52 77.7115C104.411 77.6054 104.324 77.4784 104.264 77.3379C104.205 77.1975 104.174 77.0465 104.174 76.8939C104.174 76.7414 104.205 76.5904 104.264 76.4499C104.324 76.3095 104.411 76.1824 104.52 76.0764C104.63 75.9703 104.76 75.8874 104.902 75.8325C105.045 75.7777 105.197 75.752 105.349 75.757H109.549C109.851 75.757 110.14 75.8769 110.353 76.0902C110.567 76.3035 110.687 76.5929 110.687 76.8946L110.69 76.8933Z" fill="url(#paint12_linear_591_6131)"/>
<defs>
<linearGradient id="paint0_linear_591_6131" x1="7.62365" y1="70.8764" x2="112.406" y2="117.89" gradientUnits="userSpaceOnUse">
<stop stop-color="#A58969"/>
<stop offset="1" stop-color="#C7B664"/>
</linearGradient>
<linearGradient id="paint1_linear_591_6131" x1="51.9536" y1="137.175" x2="56.3942" y2="145.953" gradientUnits="userSpaceOnUse">
<stop stop-color="#A58969"/>
<stop offset="1" stop-color="#C7B664"/>
</linearGradient>
<linearGradient id="paint2_linear_591_6131" x1="61.79" y1="133.099" x2="64.8235" y2="139.095" gradientUnits="userSpaceOnUse">
<stop stop-color="#A58969"/>
<stop offset="1" stop-color="#C7B664"/>
</linearGradient>
<linearGradient id="paint3_linear_591_6131" x1="-0.109848" y1="84.8064" x2="11.2738" y2="89.914" gradientUnits="userSpaceOnUse">
<stop stop-color="#A58969"/>
<stop offset="1" stop-color="#C7B664"/>
</linearGradient>
<linearGradient id="paint4_linear_591_6131" x1="146.044" y1="22.895" x2="187.498" y2="13.453" gradientUnits="userSpaceOnUse">
<stop stop-color="#A58969"/>
<stop offset="1" stop-color="#C7B664"/>
</linearGradient>
<linearGradient id="paint5_linear_591_6131" x1="169.732" y1="37.6275" x2="167.481" y2="40.4905" gradientUnits="userSpaceOnUse">
<stop stop-color="#A58969"/>
<stop offset="1" stop-color="#C7B664"/>
</linearGradient>
<linearGradient id="paint6_linear_591_6131" x1="165.33" y1="38.4673" x2="163.795" y2="40.4203" gradientUnits="userSpaceOnUse">
<stop stop-color="#A58969"/>
<stop offset="1" stop-color="#C7B664"/>
</linearGradient>
<linearGradient id="paint7_linear_591_6131" x1="169.42" y1="11.7382" x2="173.922" y2="10.7128" gradientUnits="userSpaceOnUse">
<stop stop-color="#A58969"/>
<stop offset="1" stop-color="#C7B664"/>
</linearGradient>
<linearGradient id="paint8_linear_591_6131" x1="39.5125" y1="11.1273" x2="228.482" y2="95.9132" gradientUnits="userSpaceOnUse">
<stop stop-color="#A58969"/>
<stop offset="1" stop-color="#C7B664"/>
</linearGradient>
<linearGradient id="paint9_linear_591_6131" x1="59.6135" y1="112.245" x2="125.002" y2="-33.4913" gradientUnits="userSpaceOnUse">
<stop stop-color="#A58969"/>
<stop offset="1" stop-color="#C7B664"/>
</linearGradient>
<linearGradient id="paint10_linear_591_6131" x1="86.9172" y1="60.1454" x2="107.935" y2="85.9162" gradientUnits="userSpaceOnUse">
<stop stop-color="#A58969"/>
<stop offset="1" stop-color="#C7B664"/>
</linearGradient>
<linearGradient id="paint11_linear_591_6131" x1="86.9172" y1="47.9754" x2="107.935" y2="73.7463" gradientUnits="userSpaceOnUse">
<stop stop-color="#A58969"/>
<stop offset="1" stop-color="#C7B664"/>
</linearGradient>
<linearGradient id="paint12_linear_591_6131" x1="86.9221" y1="72.3104" x2="107.987" y2="97.8427" gradientUnits="userSpaceOnUse">
<stop stop-color="#A58969"/>
<stop offset="1" stop-color="#C7B664"/>
</linearGradient>
</defs>
</svg>
