<svg width="24" height="24" viewBox="0 0 24 24" fill="none" xmlns="http://www.w3.org/2000/svg">
<path d="M8.98245 3.0016C9.38927 3.02668 9.70872 3.18675 9.96195 3.48129C10.3994 3.98926 10.9515 4.30728 11.6377 4.39425C12.5871 4.51484 13.3696 4.2075 13.9974 3.52718C14.4704 3.01494 14.9279 2.90235 15.5946 3.14887C16.5797 3.51331 17.4796 4.01701 18.2961 4.65838C18.812 5.06337 18.9444 5.51104 18.7279 6.11346C18.1859 7.61817 19.1381 9.15489 20.7816 9.42861C21.3626 9.52519 21.7265 9.87096 21.8406 10.4344C22.0649 11.5389 22.046 12.6429 21.8256 13.7453C21.7265 14.241 21.3002 14.6199 20.7732 14.6924C19.0585 14.9283 18.069 16.5258 18.674 18.0801C18.9027 18.6681 18.7697 19.1409 18.2643 19.5384C17.4919 20.1462 16.6415 20.6275 15.7193 20.993C15.1544 21.2165 14.5973 21.0735 14.2133 20.6083C13.0997 19.2594 11.1067 19.2796 10.0293 20.6509C9.62747 21.1621 9.09153 21.3067 8.46431 21.0735C7.48704 20.7107 6.58879 20.2177 5.77179 19.587C5.21303 19.1553 5.08336 18.69 5.35717 18.0519C5.96269 16.64 5.17853 15.0803 3.65696 14.6748C3.53063 14.6412 3.39928 14.6241 3.26961 14.606C2.56337 14.5089 2.18492 14.1129 2.08697 13.3931C1.9484 12.3751 1.97511 11.3634 2.17101 10.3544C2.27898 9.79892 2.71308 9.4062 3.30356 9.34484C4.64815 9.20558 5.66661 8.10213 5.61875 6.80712C5.60817 6.52645 5.53415 6.24045 5.44232 5.97206C5.24086 5.38512 5.37554 4.89742 5.88143 4.51805C6.6795 3.9199 7.55382 3.45141 8.50327 3.11312C8.65687 3.05869 8.82272 3.03682 8.983 3L8.98245 3.0016ZM15.3331 12.112C15.3537 10.3827 13.8566 8.92118 12.0456 8.9025C10.2091 8.88329 8.68192 10.3122 8.66633 12.064C8.65075 13.8179 10.1328 15.2735 11.9538 15.2932C13.7993 15.3135 15.3114 13.8899 15.3325 12.1115L15.3331 12.112Z" fill="#272421"/>
</svg>
