<svg width="17" height="16" viewBox="0 0 17 16" fill="none" xmlns="http://www.w3.org/2000/svg">
<path fill-rule="evenodd" clip-rule="evenodd" d="M5.99521 0.80377C6.02083 0.578506 6.12995 0.371026 6.30106 0.222283C6.47216 0.0735399 6.6928 -0.00566005 6.91944 0.000315046H9.33053C9.43596 0.000219112 9.54038 0.0209514 9.63778 0.0613216C9.73518 0.101692 9.82365 0.160905 9.8981 0.23556C9.97256 0.310215 10.0315 0.398842 10.0716 0.496352C10.1117 0.593863 10.1322 0.698335 10.1318 0.80377V1.92109C10.436 2.01654 10.7317 2.1375 11.0155 2.28268L11.8031 1.48718C11.8764 1.4109 11.9644 1.35023 12.0618 1.30878C12.1592 1.26733 12.2639 1.24596 12.3697 1.24596C12.4755 1.24596 12.5802 1.26733 12.6776 1.30878C12.775 1.35023 12.863 1.4109 12.9363 1.48718L14.6401 3.19099C14.7879 3.34116 14.8714 3.54295 14.873 3.75363C14.872 3.85867 14.8502 3.96247 14.8089 4.05903C14.7675 4.1556 14.7075 4.24303 14.6322 4.31627L13.8367 5.10381C13.9785 5.38923 14.0993 5.68459 14.1983 5.98754H15.317C15.4226 5.98716 15.5273 6.00768 15.625 6.04792C15.7226 6.08816 15.8113 6.14733 15.886 6.22201C15.9607 6.2967 16.0199 6.38542 16.0601 6.48307C16.1003 6.58073 16.1209 6.68538 16.1205 6.79099V9.20208C16.1199 9.415 16.0351 9.61903 15.8845 9.76958C15.734 9.92013 15.5299 10.005 15.317 10.0055H14.1918C14.0894 10.3087 13.9652 10.6041 13.82 10.8893L14.6076 11.6768C14.6821 11.7512 14.7412 11.8395 14.7815 11.9367C14.8218 12.0339 14.8426 12.1382 14.8426 12.2434C14.8426 12.3487 14.8218 12.4529 14.7815 12.5501C14.7412 12.6474 14.6821 12.7357 14.6076 12.81L12.8958 14.5139C12.7441 14.6644 12.539 14.749 12.3252 14.749C12.1115 14.749 11.9064 14.6644 11.7546 14.5139L10.9591 13.7184C10.6704 13.8588 10.3725 13.9796 10.0675 14.0799V15.1973C10.0667 15.41 9.98177 15.6139 9.83124 15.7643C9.6807 15.9147 9.47678 15.9994 9.264 16H6.85508C6.74946 16.0004 6.64481 15.9799 6.54716 15.9396C6.4495 15.8994 6.36078 15.8402 6.28609 15.7655C6.21141 15.6908 6.15224 15.6021 6.112 15.5045C6.07176 15.4068 6.05124 15.3022 6.05162 15.1965V14.072C5.74538 13.9718 5.44727 13.8483 5.15994 13.7024L4.36444 14.49C4.21035 14.6367 4.00658 14.7199 3.79385 14.7229C3.68753 14.7225 3.58234 14.701 3.48439 14.6597C3.38644 14.6183 3.29768 14.558 3.22326 14.482L1.51076 12.7695C1.43444 12.6954 1.37377 12.6067 1.33234 12.5087C1.29091 12.4107 1.26956 12.3054 1.26956 12.1989C1.26956 12.0925 1.29091 11.9872 1.33234 11.8892C1.37377 11.7912 1.43444 11.7025 1.51076 11.6284L2.29831 10.8329C2.15192 10.5458 2.02835 10.2476 1.92876 9.94118H0.802765C0.697208 9.94146 0.592635 9.92087 0.495067 9.88059C0.397498 9.8403 0.30886 9.78112 0.234252 9.70644C0.159645 9.63177 0.100543 9.54308 0.0603456 9.44547C0.0201487 9.34787 -0.000348632 9.24328 3.31776e-05 9.13772V6.72591C-0.000932042 6.62022 0.0191722 6.51541 0.0591714 6.41758C0.0991707 6.31975 0.158263 6.23087 0.232997 6.15614C0.30773 6.08141 0.396607 6.02231 0.494435 5.98231C0.592263 5.94232 0.69708 5.92221 0.802765 5.92318H1.9208C2.01481 5.61587 2.13581 5.31748 2.2824 5.03149L1.4869 4.23599C1.41057 4.16185 1.3499 4.07315 1.30847 3.97514C1.26704 3.87713 1.24569 3.77181 1.24569 3.6654C1.24569 3.559 1.26704 3.45367 1.30847 3.35566C1.3499 3.25765 1.41057 3.16895 1.4869 3.09481L3.18927 1.38232C3.26261 1.30604 3.35061 1.24536 3.44797 1.20392C3.54533 1.16247 3.65006 1.1411 3.75588 1.1411C3.8617 1.1411 3.96643 1.16247 4.06379 1.20392C4.16115 1.24536 4.24914 1.30604 4.32249 1.38232L5.11076 2.16986C5.39445 2.0221 5.69007 1.89848 5.99449 1.80031L5.99521 0.80377ZM6.51735 8.03559C6.51735 7.71777 6.61159 7.40709 6.78816 7.14284C6.96473 6.87858 7.2157 6.67262 7.50932 6.551C7.80295 6.42938 8.12604 6.39755 8.43775 6.45956C8.74946 6.52156 9.03579 6.6746 9.26052 6.89933C9.48525 7.12406 9.63829 7.41039 9.70029 7.7221C9.7623 8.03381 9.73048 8.3569 9.60885 8.65053C9.48723 8.94415 9.28127 9.19512 9.01701 9.37169C8.75276 9.54826 8.44208 9.6425 8.12426 9.6425C7.91299 9.64336 7.70364 9.60242 7.50826 9.52203C7.31287 9.44164 7.13533 9.3234 6.98583 9.17411C6.83634 9.02482 6.71786 8.84743 6.63721 8.65216C6.55655 8.45688 6.51533 8.24759 6.5159 8.03631L6.51735 8.03559ZM8.12426 4.82105C7.48848 4.82105 6.86698 5.00958 6.33836 5.36279C5.80973 5.71601 5.39771 6.21806 5.15441 6.80544C4.91111 7.39282 4.84745 8.03916 4.97148 8.66272C5.09552 9.28628 5.40167 9.85905 5.85123 10.3086C6.3008 10.7582 6.87357 11.0643 7.49713 11.1884C8.12069 11.3124 8.76703 11.2487 9.35441 11.0054C9.94179 10.7621 10.4438 10.3501 10.7971 9.8215C11.1503 9.29287 11.3388 8.67137 11.3388 8.03559C11.3388 7.61348 11.2557 7.19551 11.0941 6.80555C10.9325 6.41558 10.6958 6.06126 10.3972 5.76282C10.0987 5.46438 9.74436 5.22767 9.35436 5.0662C8.96436 4.90473 8.54637 4.82095 8.12426 4.82105Z" fill="url(#paint0_linear_181_10701)"/>
<defs>
<linearGradient id="paint0_linear_181_10701" x1="-0.246114" y1="0.755556" x2="25.1945" y2="12.2561" gradientUnits="userSpaceOnUse">
<stop stop-color="#A58969"/>
<stop offset="1" stop-color="#C7B664"/>
</linearGradient>
</defs>
</svg>
