<svg width="17" height="21" viewBox="0 0 17 21" fill="none" xmlns="http://www.w3.org/2000/svg">
<path fill-rule="evenodd" clip-rule="evenodd" d="M10.303 3.83301C10.303 1.99301 11.803 0.500012 13.651 0.500012C14.0898 0.498829 14.5245 0.584116 14.9303 0.750999C15.3361 0.917882 15.7051 1.16309 16.0161 1.47262C16.3271 1.78214 16.5741 2.14991 16.7429 2.55492C16.9117 2.95992 16.9991 3.39423 17 3.83301C17 5.67401 15.5 7.16701 13.651 7.16701C13.2076 7.16734 12.7686 7.07964 12.3593 6.90901C11.9501 6.73838 11.5788 6.48822 11.267 6.17301L6.632 9.32901C6.76085 9.97202 6.69755 10.6387 6.45 11.246L11.532 14.586C12.1307 14.0981 12.8797 13.8321 13.652 13.833C14.0908 13.832 14.5255 13.9174 14.9312 14.0844C15.337 14.2514 15.7059 14.4967 16.0168 14.8063C16.3277 15.1159 16.5746 15.4838 16.7433 15.8888C16.912 16.2939 16.9992 16.7282 17 17.167C17 19.007 15.5 20.5 13.651 20.5C13.2123 20.5011 12.7777 20.4157 12.372 20.2487C11.9663 20.0818 11.5975 19.8366 11.2866 19.5271C10.9757 19.2175 10.7288 18.8498 10.56 18.4449C10.3913 18.0399 10.3039 17.6057 10.303 17.167C10.3022 16.6996 10.4007 16.2374 10.592 15.811L5.55 12.5C4.93922 13.0306 4.15706 13.3222 3.348 13.321C2.90922 13.3221 2.47453 13.2366 2.06877 13.0696C1.66301 12.9026 1.29413 12.6573 0.983212 12.3477C0.672295 12.0381 0.425431 11.6702 0.256728 11.2652C0.0880245 10.8601 0.000786975 10.4258 0 9.98701C0.000918172 9.54831 0.0882526 9.11409 0.257015 8.70915C0.425777 8.30421 0.67266 7.93648 0.983564 7.62697C1.29447 7.31746 1.6633 7.07223 2.069 6.90529C2.47469 6.73834 2.9093 6.65296 3.348 6.65401C4.412 6.65401 5.358 7.14701 5.971 7.91501L10.464 4.85601C10.3568 4.52561 10.3025 4.18036 10.303 3.83301Z" fill="url(#paint0_linear_4384_27335)"/>
<defs>
<linearGradient id="paint0_linear_4384_27335" x1="-0.259542" y1="1.44445" x2="27.9488" y2="12.2024" gradientUnits="userSpaceOnUse">
<stop stop-color="#846E55"/>
<stop offset="1" stop-color="#B3A55C"/>
</linearGradient>
</defs>
</svg>
