<svg width="19" height="19" viewBox="0 0 19 19" fill="none" xmlns="http://www.w3.org/2000/svg">
<g clip-path="url(#clip0_861_33470)">
<path d="M0 16.6787V16.0102C0.119601 15.7773 0.208842 15.5213 0.368003 15.315C0.606285 15.001 0.889648 14.7202 1.15645 14.4274C2.95723 12.4517 4.86677 10.5781 6.87614 8.81536C6.9194 8.78795 6.95054 8.74503 6.9632 8.69538C6.97586 8.64574 6.96907 8.59312 6.94422 8.54832C6.5115 7.46765 6.3944 6.28618 6.60658 5.14149C6.82471 3.92912 7.39599 2.80832 8.24864 1.91991C9.1013 1.03149 10.1973 0.415091 11.3989 0.148176C11.6685 0.0901676 11.9417 0.047824 12.2131 -0.000976562H13.2895C13.4652 0.0266464 13.641 0.0533414 13.8158 0.0837267C14.6487 0.22806 15.4438 0.539842 16.153 1.00027C16.8623 1.46069 17.4709 2.0602 17.9422 2.76258C18.4135 3.46496 18.7376 4.25565 18.8951 5.08691C19.0525 5.91816 19.04 6.77272 18.8583 7.599C18.046 11.3438 14.032 13.4919 10.4789 12.073C10.4318 12.0463 10.3763 12.0387 10.3237 12.0517C10.2712 12.0647 10.2257 12.0974 10.1964 12.143C9.82844 12.5665 9.44388 12.98 9.0722 13.4035C9.00566 13.4805 8.92424 13.5432 8.83285 13.5878C8.74146 13.6324 8.64199 13.658 8.54043 13.6632C8.26443 13.6862 7.98843 13.712 7.71243 13.7451C7.36466 13.7866 7.09602 13.956 6.99298 14.2976C6.94604 14.476 6.93664 14.6623 6.96538 14.8445C7.06842 15.5655 6.61302 16.2091 5.89725 16.3039C5.69494 16.318 5.49178 16.3146 5.29004 16.2938C4.78864 16.2717 4.44824 16.5479 4.3774 17.0405C4.3498 17.2302 4.33692 17.4227 4.30288 17.6105C4.2578 17.8545 4.29552 18.128 4.08668 18.3204C3.92752 18.4668 3.77848 18.6381 3.59356 18.7403C3.37275 18.8627 3.11791 18.9972 2.87779 18.999C2.18686 18.999 1.49777 18.953 0.805007 18.9014C0.627593 18.8834 0.461915 18.8044 0.336243 18.6778C0.210572 18.5512 0.132698 18.3848 0.115922 18.2072C0.0929217 18.0175 0.093846 17.8241 0.0800458 17.6335C0.0515256 17.3149 0.0257602 16.9954 0 16.6787ZM16.0486 4.67099C16.0472 4.33047 15.9448 3.99805 15.7545 3.71578C15.5642 3.43352 15.2944 3.21409 14.9795 3.0853C14.6645 2.95651 14.3185 2.92414 13.9851 2.99228C13.6517 3.06041 13.3461 3.22599 13.1068 3.46806C12.8675 3.71013 12.7053 4.01779 12.6408 4.35214C12.5763 4.68648 12.6124 5.03247 12.7444 5.3463C12.8765 5.66012 13.0986 5.92769 13.3826 6.11512C13.6667 6.30256 13.9999 6.40145 14.3402 6.39927C14.5661 6.39867 14.7898 6.35332 14.9982 6.26585C15.2065 6.17838 15.3956 6.05053 15.5544 5.88963C15.7132 5.72873 15.8386 5.53796 15.9234 5.32834C16.0083 5.11871 16.0508 4.89437 16.0486 4.66822V4.67099Z" fill="url(#paint0_linear_861_33470)"/>
</g>
<defs>
<linearGradient id="paint0_linear_861_33470" x1="-0.290146" y1="0.896245" x2="29.7755" y2="14.3892" gradientUnits="userSpaceOnUse">
<stop stop-color="#846E55"/>
<stop offset="1" stop-color="#B3A55C"/>
</linearGradient>
<clipPath id="clip0_861_33470">
<rect width="19" height="19" fill="white"/>
</clipPath>
</defs>
</svg>
