<svg width="16" height="12" viewBox="0 0 16 12" fill="none" xmlns="http://www.w3.org/2000/svg">
<g clip-path="url(#clip0_2425_27874)">
<g opacity="0.7">
<path d="M14.731 0.00976562C14.5329 0.0123556 14.3436 0.0922045 14.2036 0.232299C14.0635 0.372394 13.9836 0.561659 13.981 0.759766V10.4198C13.981 10.6187 14.06 10.8094 14.2007 10.9501C14.3413 11.0907 14.5321 11.1698 14.731 11.1698C14.9299 11.1698 15.1207 11.0907 15.2613 10.9501C15.402 10.8094 15.481 10.6187 15.481 10.4198V0.759766C15.4784 0.561659 15.3986 0.372394 15.2585 0.232299C15.1184 0.0922045 14.9291 0.0123556 14.731 0.00976562Z" fill="#2B2927"/>
<path d="M10.081 4.11004L2.50101 0.220039C2.24531 0.0739213 1.95552 -0.00197807 1.66101 3.91867e-05C1.36534 -0.000900608 1.07497 0.0786042 0.821015 0.230039C0.563306 0.379552 0.352139 0.597643 0.211015 0.860039C0.0649795 1.11171 -0.0077602 1.3992 0.00101495 1.69004V9.52004C0.00419473 9.80437 0.0799196 10.0832 0.221015 10.33C0.363982 10.5766 0.566932 10.7829 0.811015 10.93C1.05214 11.0785 1.32796 11.1613 1.61102 11.17H1.67102C1.93501 11.1709 2.19546 11.1092 2.43101 10.99L10.101 7.07004C10.3692 6.92977 10.594 6.71883 10.751 6.46004C10.908 6.19883 10.991 5.89981 10.991 5.59504C10.991 5.29027 10.908 4.99125 10.751 4.73004C10.59 4.46482 10.3579 4.25003 10.081 4.11004Z" fill="#2B2927"/>
</g>
</g>
<defs>
<clipPath id="clip0_2425_27874">
<rect width="15.481" height="11.17" fill="white"/>
</clipPath>
</defs>
</svg>
