<svg width="13" height="20" viewBox="0 0 13 20" fill="none" xmlns="http://www.w3.org/2000/svg">
<path fill-rule="evenodd" clip-rule="evenodd" d="M2.52459e-06 2.72744C-0.000485304 2.36913 0.0697292 2.01425 0.206623 1.68312C0.343517 1.35199 0.5444 1.05113 0.797764 0.797764C1.05113 0.5444 1.35199 0.343517 1.68312 0.206623C2.01425 0.0697291 2.36913 -0.000485304 2.72744 2.52459e-06H10.0009C10.7241 0.000493337 11.4176 0.288006 11.929 0.799394C12.4404 1.31078 12.7279 2.00423 12.7284 2.72744V17.2726C12.7262 17.9952 12.4381 18.6877 11.9271 19.1987C11.4161 19.7097 10.7236 19.9978 10.0009 20H2.72744C2.00455 19.9995 1.31138 19.7123 0.800048 19.2013C0.288713 18.6903 0.000983881 17.9973 2.52459e-06 17.2744V2.72744ZM5.00278 17.7284H7.73022V15.9107H5.00278V17.7284Z" fill="url(#paint0_linear_182_7268)"/>
<defs>
<linearGradient id="paint0_linear_182_7268" x1="-0.194326" y1="0.944445" x2="22.174" y2="7.33163" gradientUnits="userSpaceOnUse">
<stop stop-color="#A58969"/>
<stop offset="1" stop-color="#C7B664"/>
</linearGradient>
</defs>
</svg>
