<svg width="128" height="117" viewBox="0 0 128 117" fill="none" xmlns="http://www.w3.org/2000/svg">
<path opacity="0.4" d="M124.866 20.009C124.737 19.977 124.626 19.897 124.554 19.7854C124.482 19.6738 124.456 19.5389 124.48 19.4083C124.504 19.2777 124.576 19.1612 124.683 19.0825C124.79 19.0038 124.922 18.9689 125.054 18.9848C125.185 19.0008 125.306 19.0664 125.391 19.1683C125.475 19.2703 125.518 19.4008 125.511 19.5334C125.503 19.6659 125.445 19.7905 125.349 19.8818C125.252 19.973 125.125 20.024 124.993 20.0244C124.95 20.0245 124.907 20.0194 124.866 20.009ZM126.472 18.102C126.472 17.9505 126.516 17.8023 126.6 17.6764C126.684 17.5504 126.804 17.4522 126.943 17.3942C127.083 17.3362 127.236 17.321 127.385 17.3506C127.533 17.3802 127.669 17.4531 127.776 17.5603C127.883 17.6674 127.955 17.8039 127.985 17.9525C128.014 18.1011 127.999 18.2552 127.941 18.3952C127.884 18.5351 127.786 18.6548 127.66 18.739C127.534 18.8232 127.387 18.8681 127.236 18.8681C127.033 18.8681 126.839 18.7874 126.695 18.6437C126.552 18.5 126.472 18.3052 126.472 18.102ZM124.245 0.971491C124.245 0.779304 124.302 0.591436 124.408 0.431653C124.515 0.27187 124.666 0.147352 124.843 0.0738524C125.021 0.000352834 125.215 -0.0188259 125.403 0.0187426C125.591 0.0563111 125.764 0.148939 125.899 0.284907C126.035 0.420875 126.127 0.594074 126.164 0.782593C126.202 0.971111 126.182 1.16648 126.109 1.34398C126.035 1.52148 125.911 1.67313 125.751 1.77976C125.592 1.88638 125.405 1.94319 125.213 1.94298C125.086 1.94298 124.96 1.91785 124.842 1.86901C124.725 1.82018 124.618 1.7486 124.528 1.65838C124.438 1.56815 124.367 1.46105 124.318 1.34319C124.27 1.22533 124.245 1.09902 124.245 0.971491Z" fill="url(#paint0_linear_516_8863)"/>
<path opacity="0.4" d="M119.085 18.8688C124.008 18.8688 127.999 14.8669 127.999 9.93024C127.999 4.99362 124.008 0.991699 119.085 0.991699C114.162 0.991699 110.171 4.99362 110.171 9.93024C110.171 14.8669 114.162 18.8688 119.085 18.8688Z" fill="url(#paint1_linear_516_8863)"/>
<path opacity="0.4" d="M24.0896 111.573C37.3939 111.573 48.1792 100.758 48.1792 87.4171C48.1792 74.0762 37.3939 63.2612 24.0896 63.2612C10.7853 63.2612 0 74.0762 0 87.4171C0 100.758 10.7853 111.573 24.0896 111.573Z" fill="url(#paint2_linear_516_8863)"/>
<path opacity="0.4" d="M17.4331 114.931C17.4331 114.522 17.5541 114.122 17.7809 113.781C18.0076 113.441 18.3299 113.176 18.707 113.019C19.0841 112.863 19.499 112.822 19.8993 112.901C20.2996 112.981 20.6673 113.178 20.9559 113.468C21.2445 113.757 21.441 114.126 21.5207 114.527C21.6003 114.929 21.5594 115.345 21.4032 115.723C21.247 116.101 20.9825 116.424 20.6432 116.652C20.3038 116.879 19.9048 117 19.4967 117C18.9494 117 18.4245 116.782 18.0375 116.394C17.6505 116.006 17.4331 115.48 17.4331 114.931ZM24.6511 115.034C24.6511 114.754 24.7338 114.481 24.8887 114.248C25.0436 114.016 25.2638 113.835 25.5213 113.728C25.7789 113.621 26.0623 113.593 26.3357 113.648C26.609 113.702 26.8601 113.837 27.0572 114.035C27.2542 114.233 27.3883 114.484 27.4426 114.759C27.4969 115.033 27.4688 115.317 27.362 115.575C27.2552 115.833 27.0744 116.054 26.8425 116.209C26.6106 116.364 26.3381 116.447 26.0593 116.447C25.6856 116.447 25.3272 116.298 25.0629 116.033C24.7986 115.768 24.6511 115.408 24.6511 115.034ZM5.7334 63.8455C5.7336 63.3264 5.8873 62.819 6.17505 62.3875C6.46281 61.956 6.87171 61.6197 7.35004 61.4212C7.82838 61.2227 8.35468 61.1708 8.86239 61.2722C9.3701 61.3736 9.83643 61.6237 10.2024 61.9909C10.5684 62.358 10.8176 62.8257 10.9185 63.3348C11.0195 63.844 10.9676 64.3717 10.7694 64.8513C10.5712 65.3309 10.2357 65.7408 9.80528 66.0291C9.37482 66.3175 8.86876 66.4714 8.35108 66.4714C8.00723 66.4714 7.66676 66.4035 7.3491 66.2715C7.03144 66.1395 6.74282 65.9461 6.49974 65.7023C6.25665 65.4584 6.06385 65.1689 5.93236 64.8503C5.80087 64.5318 5.73326 64.1903 5.7334 63.8455Z" fill="url(#paint3_linear_516_8863)"/>
<path d="M34.5791 9.5157L34.5791 100.972C34.5791 103.808 36.8717 106.107 39.6998 106.107H110.59C113.418 106.107 115.711 103.808 115.711 100.972V9.5157C115.711 6.67987 113.418 4.38097 110.59 4.38097H39.6998C36.8717 4.38097 34.5791 6.67987 34.5791 9.5157Z" fill="#F6F2ED"/>
<path d="M35.3477 9.51589L35.3477 100.973C35.3477 103.383 37.2964 105.337 39.7002 105.337H110.591C112.994 105.337 114.943 103.383 114.943 100.973V9.51589C114.943 7.10543 112.994 5.15137 110.591 5.15137H39.7002C37.2964 5.15137 35.3477 7.10543 35.3477 9.51589Z" stroke="#272421" stroke-width="1.5"/>
<path d="M55.5713 57.6865H51.868V59.4087H50.9463V54.772H51.868V56.4942H55.5713V57.6865Z" fill="#F6F2ED"/>
<path d="M51.4338 53.7699C51.0712 53.618 50.892 53.4249 50.892 52.856C50.8635 52.6651 50.9019 52.4703 51.0007 52.3047C51.0995 52.1391 51.2526 52.0131 51.4338 51.9481L55.5702 50.2126V51.4655L54.5144 51.8824V53.8336L55.5713 54.2536V55.4983L51.4338 53.7699ZM53.6141 53.5471V52.172L52.1476 52.7625C52.0759 52.7902 52.0022 52.8087 52.0022 52.856C52.0022 52.9032 52.0739 52.9278 52.1476 52.9587L53.6141 53.5471Z" fill="#F6F2ED"/>
<path d="M55.5709 49.9803H51.6628C51.5669 49.9942 51.4692 49.9858 51.3771 49.9558C51.285 49.9257 51.201 49.8748 51.1317 49.807C51.0624 49.7392 51.0096 49.6563 50.9773 49.5647C50.9451 49.4731 50.9344 49.3753 50.9459 49.2789V46.8142C50.9459 45.7872 51.587 45.5613 52.5118 45.5613C53.4366 45.5613 54.091 45.7872 54.091 46.8142V48.788H55.5719V49.9803H55.5709ZM53.1652 47.4293C53.1652 46.9323 52.9727 46.7803 52.5108 46.7803C52.0489 46.7803 51.8676 46.9333 51.8676 47.4293V48.4758C51.8676 48.7079 51.9475 48.7839 52.1749 48.7839H53.1601L53.1652 47.4293Z" fill="#F6F2ED"/>
<path d="M55.0675 44.8005V42.2105C55.0675 41.8593 54.8228 41.7197 54.4203 41.7197C54.1755 41.7197 53.9307 41.772 53.7792 42.2331L53.1708 44.0714C53.1132 44.3225 52.9642 44.5431 52.7531 44.6901C52.542 44.8371 52.2838 44.8999 52.0289 44.8662C51.8846 44.887 51.7375 44.8744 51.5988 44.8294C51.4601 44.7843 51.3335 44.708 51.2288 44.6063C51.1241 44.5045 51.044 44.3801 50.9947 44.2425C50.9454 44.1049 50.9282 43.9579 50.9444 43.8126V41.3007H51.4452V43.6996C51.4452 44.0508 51.6101 44.2233 52.0402 44.2233C52.1815 44.2454 52.3258 44.2126 52.4436 44.1314C52.5615 44.0503 52.644 43.927 52.6741 43.7869L53.2548 42.0411C53.4596 41.4249 53.6901 41.0809 54.4172 41.0809C55.045 41.0809 55.5673 41.3263 55.5673 42.0411V44.8005H55.0675Z" fill="#F6F2ED"/>
<path d="M55.5713 40.3804H50.9463V39.7642H55.5713V40.3804Z" fill="#F6F2ED"/>
<path d="M54.9681 34.8956C55.3973 34.8956 55.5683 35.1082 55.5683 35.5056V37.1898C55.5683 38.6943 54.5442 39.0383 53.2558 39.0383C51.9674 39.0383 50.9443 38.6933 50.9443 37.1036V35.0035H51.4451V36.8971C51.4451 38.0566 52.0012 38.3934 53.2568 38.3934C54.5124 38.3934 55.0675 38.0566 55.0675 36.9844V35.8158C55.0675 35.5837 54.9876 35.5077 54.7602 35.5077H53.3746V34.8915L54.9681 34.8956Z" fill="#F6F2ED"/>
<path d="M55.0425 29.9857C55.119 29.9762 55.1965 29.9838 55.2696 30.0081C55.3427 30.0324 55.4095 30.0727 55.4651 30.1261C55.5207 30.1795 55.5638 30.2446 55.5911 30.3168C55.6185 30.389 55.6294 30.4664 55.6232 30.5434C55.6286 30.6695 55.597 30.7945 55.5324 30.9029C55.4678 31.0113 55.373 31.0984 55.2597 31.1534L51.7725 33.3397C51.6926 33.3859 51.6598 33.425 51.6598 33.4722C51.6598 33.4989 51.6865 33.5657 51.7919 33.5657H55.571V34.1675H51.4417C51.3666 34.1732 51.2911 34.1623 51.2207 34.1354C51.1503 34.1086 51.0867 34.0665 51.0343 34.0122C50.982 33.9578 50.9423 33.8926 50.918 33.8211C50.8937 33.7496 50.8854 33.6736 50.8938 33.5985C50.8868 33.4772 50.9148 33.3565 50.9744 33.2507C51.0339 33.145 51.1226 33.0586 51.2297 33.0019L54.7445 30.797C54.7967 30.7642 54.8572 30.7364 54.8572 30.6707C54.8572 30.605 54.7855 30.5906 54.7445 30.5906H50.944V29.9878H55.0405L55.0425 29.9857Z" fill="#F6F2ED"/>
<path d="M55.5703 28.4761C55.5822 28.5647 55.5734 28.6549 55.5446 28.7396C55.5158 28.8243 55.4678 28.9011 55.4043 28.964C55.3409 29.0269 55.2638 29.0742 55.179 29.1022C55.0943 29.1301 55.0042 29.138 54.9159 29.1251H51.5988C51.1041 29.1251 50.9443 28.8796 50.9443 28.4761V25.6078H51.4451V28.2008C51.4451 28.4596 51.525 28.5089 51.7524 28.5089H52.9516V25.6745H53.4524V28.5089H54.7469C54.9784 28.5089 55.0634 28.4627 55.0634 28.2008V25.5832H55.5652V28.4761H55.5703Z" fill="#F6F2ED"/>
<path d="M51.6458 24.9172C51.1511 24.9172 50.9463 24.6718 50.9463 24.2353V22.088C50.9463 21.2326 51.4881 20.9584 52.3473 20.9584C53.2332 20.9584 53.82 21.21 53.82 22.012V22.7606H53.8528L55.5713 20.8629V21.6844L53.946 23.46C53.9111 23.5066 53.8674 23.5458 53.8172 23.5752C53.7671 23.6046 53.7117 23.6238 53.6541 23.6315H53.5517C53.4134 23.6315 53.3202 23.5288 53.3202 23.3532V22.2236C53.3202 21.6608 52.9106 21.6074 52.3483 21.6074C51.7861 21.6074 51.4502 21.7008 51.4502 22.3263V23.9704C51.4491 24.183 51.5157 24.3011 51.7656 24.3011H55.5723V24.9172H51.6458Z" fill="#F6F2ED"/>
<path d="M42.4697 16.6583L42.4697 93.8323C42.4697 96.2427 44.4184 98.1968 46.8223 98.1968H104.034C106.438 98.1968 108.387 96.2427 108.387 93.8323V16.6583C108.387 14.2478 106.438 12.2938 104.034 12.2938H46.8223C44.4184 12.2938 42.4697 14.2478 42.4697 16.6583Z" stroke="#272421" stroke-width="1.5" stroke-dasharray="1.5 2"/>
<path d="M102.414 18.2888H50.183C49.0518 18.2888 48.1348 19.2084 48.1348 20.3427V90.175C48.1348 91.3094 49.0518 92.2289 50.183 92.2289H102.414C103.545 92.2289 104.462 91.3094 104.462 90.175V20.3427C104.462 19.2084 103.545 18.2888 102.414 18.2888Z" fill="#272421"/>
<path d="M94.1387 28.6155H58.3986C56.7017 28.6155 55.3262 29.9948 55.3262 31.6963V78.0075C55.3262 79.709 56.7017 81.0883 58.3986 81.0883H94.1387C95.8355 81.0883 97.2111 79.709 97.2111 78.0075V31.6963C97.2111 29.9948 95.8355 28.6155 94.1387 28.6155Z" fill="#F6F2ED"/>
<path d="M58.7139 24.5432H79.6563" stroke="#F6F2ED" stroke-width="4" stroke-linecap="round"/>
<defs>
<linearGradient id="paint0_linear_516_8863" x1="124.188" y1="0.945598" x2="131.274" y2="1.54168" gradientUnits="userSpaceOnUse">
<stop stop-color="#A58969"/>
<stop offset="1" stop-color="#C7B664"/>
</linearGradient>
<linearGradient id="paint1_linear_516_8863" x1="109.899" y1="1.83589" x2="138.131" y2="14.4684" gradientUnits="userSpaceOnUse">
<stop stop-color="#A58969"/>
<stop offset="1" stop-color="#C7B664"/>
</linearGradient>
<linearGradient id="paint2_linear_516_8863" x1="-0.735561" y1="65.5426" x2="75.5612" y2="99.6813" gradientUnits="userSpaceOnUse">
<stop stop-color="#A58969"/>
<stop offset="1" stop-color="#C7B664"/>
</linearGradient>
<linearGradient id="paint3_linear_516_8863" x1="5.40155" y1="63.8557" x2="45.4889" y2="70.8647" gradientUnits="userSpaceOnUse">
<stop stop-color="#A58969"/>
<stop offset="1" stop-color="#C7B664"/>
</linearGradient>
</defs>
</svg>
