<svg width="16" height="21" viewBox="0 0 16 21" fill="none" xmlns="http://www.w3.org/2000/svg">
<path d="M14 21H2C1.46957 21 0.96101 20.7891 0.585938 20.4141C0.210865 20.039 0 19.5304 0 19V2C0 1.46957 0.210865 0.96101 0.585938 0.585938C0.96101 0.210865 1.46957 0 2 0H14C14.5304 0 15.039 0.210865 15.4141 0.585938C15.7891 0.96101 16 1.46957 16 2V19C16 19.5304 15.7891 20.039 15.4141 20.4141C15.039 20.7891 14.5304 21 14 21ZM3 2.625C2.73478 2.625 2.48051 2.73043 2.29297 2.91797C2.10543 3.10551 2 3.35978 2 3.625V16.6172C2 16.8824 2.10543 17.1367 2.29297 17.3242C2.48051 17.5118 2.73478 17.6172 3 17.6172H13C13.2652 17.6172 13.5195 17.5118 13.707 17.3242C13.8946 17.1367 14 16.8824 14 16.6172V3.625C14 3.35978 13.8946 3.10551 13.707 2.91797C13.5195 2.73043 13.2652 2.625 13 2.625H3ZM2.5 1.00195C2.36739 1.00195 2.24025 1.05467 2.14648 1.14844C2.05272 1.24221 2 1.36934 2 1.50195C2 1.63456 2.05272 1.7617 2.14648 1.85547C2.24025 1.94924 2.36739 2.00195 2.5 2.00195H7.5C7.63261 2.00195 7.75975 1.94924 7.85352 1.85547C7.94728 1.7617 8 1.63456 8 1.50195C8 1.36934 7.94728 1.24221 7.85352 1.14844C7.75975 1.05467 7.63261 1.00195 7.5 1.00195H2.5Z" fill="url(#paint0_linear_182_8017)"/>
<defs>
<linearGradient id="paint0_linear_182_8017" x1="-0.244275" y1="0.991667" x2="26.9842" y2="10.2997" gradientUnits="userSpaceOnUse">
<stop stop-color="#846E55"/>
<stop offset="1" stop-color="#B3A55C"/>
</linearGradient>
</defs>
</svg>
