<svg width="128" height="132" viewBox="0 0 128 132" fill="none" xmlns="http://www.w3.org/2000/svg">
<path opacity="0.4" d="M124.866 35.009C124.737 34.977 124.626 34.897 124.554 34.7854C124.482 34.6738 124.456 34.5389 124.48 34.4083C124.504 34.2777 124.576 34.1612 124.683 34.0825C124.79 34.0038 124.922 33.9689 125.054 33.9848C125.185 34.0008 125.306 34.0664 125.391 34.1683C125.475 34.2703 125.518 34.4008 125.511 34.5334C125.503 34.6659 125.445 34.7905 125.349 34.8818C125.252 34.973 125.125 35.024 124.993 35.0244C124.95 35.0245 124.907 35.0194 124.866 35.009ZM126.472 33.102C126.472 32.9505 126.516 32.8023 126.6 32.6764C126.684 32.5504 126.804 32.4522 126.943 32.3942C127.083 32.3362 127.236 32.321 127.385 32.3506C127.533 32.3802 127.669 32.4531 127.776 32.5603C127.883 32.6674 127.955 32.8039 127.985 32.9525C128.014 33.1011 127.999 33.2552 127.941 33.3952C127.884 33.5351 127.786 33.6548 127.66 33.739C127.534 33.8232 127.387 33.8681 127.236 33.8681C127.033 33.8681 126.839 33.7874 126.695 33.6437C126.552 33.5 126.472 33.3052 126.472 33.102ZM124.245 15.9715C124.245 15.7793 124.302 15.5914 124.408 15.4317C124.515 15.2719 124.666 15.1474 124.843 15.0739C125.021 15.0004 125.215 14.9812 125.403 15.0187C125.591 15.0563 125.764 15.1489 125.899 15.2849C126.035 15.4209 126.127 15.5941 126.164 15.7826C126.202 15.9711 126.182 16.1665 126.109 16.344C126.035 16.5215 125.911 16.6731 125.751 16.7798C125.592 16.8864 125.405 16.9432 125.213 16.943C125.086 16.943 124.96 16.9178 124.842 16.869C124.725 16.8202 124.618 16.7486 124.528 16.6584C124.438 16.5682 124.367 16.461 124.318 16.3432C124.27 16.2253 124.245 16.099 124.245 15.9715Z" fill="url(#paint0_linear_1709_13567)"/>
<path opacity="0.4" d="M119.085 33.8683C124.008 33.8683 127.999 29.8664 127.999 24.9298C127.999 19.9931 124.008 15.9912 119.085 15.9912C114.162 15.9912 110.171 19.9931 110.171 24.9298C110.171 29.8664 114.162 33.8683 119.085 33.8683Z" fill="url(#paint1_linear_1709_13567)"/>
<path opacity="0.4" d="M24.0896 126.572C37.3939 126.572 48.1792 115.757 48.1792 102.417C48.1792 89.0757 37.3939 78.2607 24.0896 78.2607C10.7853 78.2607 0 89.0757 0 102.417C0 115.757 10.7853 126.572 24.0896 126.572Z" fill="url(#paint2_linear_1709_13567)"/>
<path opacity="0.4" d="M17.4331 129.931C17.4331 129.522 17.5541 129.122 17.7809 128.781C18.0076 128.441 18.3299 128.176 18.707 128.019C19.0841 127.863 19.499 127.822 19.8993 127.901C20.2996 127.981 20.6673 128.178 20.9559 128.468C21.2445 128.757 21.441 129.126 21.5207 129.527C21.6003 129.929 21.5594 130.345 21.4032 130.723C21.247 131.101 20.9825 131.424 20.6432 131.652C20.3038 131.879 19.9048 132 19.4967 132C18.9494 132 18.4245 131.782 18.0375 131.394C17.6505 131.006 17.4331 130.48 17.4331 129.931ZM24.6511 130.034C24.6511 129.754 24.7338 129.481 24.8887 129.248C25.0436 129.016 25.2638 128.835 25.5213 128.728C25.7789 128.621 26.0623 128.593 26.3357 128.648C26.609 128.702 26.8601 128.837 27.0572 129.035C27.2542 129.233 27.3883 129.484 27.4426 129.759C27.4969 130.033 27.4688 130.317 27.362 130.575C27.2552 130.833 27.0744 131.054 26.8425 131.209C26.6106 131.364 26.3381 131.447 26.0593 131.447C25.6856 131.447 25.3272 131.298 25.0629 131.033C24.7986 130.768 24.6511 130.408 24.6511 130.034ZM5.7334 78.8455C5.7336 78.3264 5.8873 77.819 6.17505 77.3875C6.46281 76.956 6.87171 76.6197 7.35004 76.4212C7.82838 76.2227 8.35468 76.1708 8.86239 76.2722C9.3701 76.3736 9.83643 76.6237 10.2024 76.9909C10.5684 77.358 10.8176 77.8257 10.9185 78.3348C11.0195 78.844 10.9676 79.3717 10.7694 79.8513C10.5712 80.3309 10.2357 80.7408 9.80528 81.0291C9.37482 81.3175 8.86876 81.4714 8.35108 81.4714C8.00723 81.4714 7.66676 81.4035 7.3491 81.2715C7.03144 81.1395 6.74282 80.9461 6.49974 80.7023C6.25665 80.4584 6.06385 80.1689 5.93236 79.8503C5.80087 79.5318 5.73326 79.1903 5.7334 78.8455Z" fill="url(#paint3_linear_1709_13567)"/>
<path d="M34.5791 24.515L34.5791 115.972C34.5791 118.808 36.8717 121.106 39.6998 121.106H110.59C113.418 121.106 115.711 118.808 115.711 115.972V24.515C115.711 21.6791 113.418 19.3802 110.59 19.3802H39.6998C36.8717 19.3802 34.5791 21.6791 34.5791 24.515Z" fill="#F6F2ED"/>
<path d="M35.3477 24.5147L35.3477 115.971C35.3477 118.382 37.2964 120.336 39.7002 120.336H110.591C112.994 120.336 114.943 118.382 114.943 115.971V24.5147C114.943 22.1042 112.994 20.1501 110.591 20.1501H39.7002C37.2964 20.1501 35.3477 22.1042 35.3477 24.5147Z" stroke="#272421" stroke-width="1.5"/>
<path d="M55.5713 72.686H51.868V74.4082H50.9463V69.7715H51.868V71.4937H55.5713V72.686Z" fill="#F6F2ED"/>
<path d="M51.4338 68.7697C51.0712 68.6177 50.892 68.4246 50.892 67.8557C50.8635 67.6649 50.9019 67.47 51.0007 67.3045C51.0995 67.1389 51.2526 67.0129 51.4338 66.9479L55.5702 65.2124V66.4652L54.5144 66.8822V68.8334L55.5713 69.2534V70.498L51.4338 68.7697ZM53.6141 68.5468V67.1718L52.1476 67.7623C52.0759 67.79 52.0022 67.8085 52.0022 67.8557C52.0022 67.903 52.0739 67.9276 52.1476 67.9584L53.6141 68.5468Z" fill="#F6F2ED"/>
<path d="M55.5709 64.9798H51.6628C51.5669 64.9937 51.4692 64.9853 51.3771 64.9553C51.285 64.9252 51.201 64.8743 51.1317 64.8065C51.0624 64.7387 51.0096 64.6558 50.9773 64.5642C50.9451 64.4726 50.9344 64.3748 50.9459 64.2784V61.8137C50.9459 60.7868 51.587 60.5608 52.5118 60.5608C53.4366 60.5608 54.091 60.7868 54.091 61.8137V63.7875H55.5719V64.9798H55.5709ZM53.1652 62.4288C53.1652 61.9318 52.9727 61.7798 52.5108 61.7798C52.0489 61.7798 51.8676 61.9328 51.8676 62.4288V63.4753C51.8676 63.7074 51.9475 63.7834 52.1749 63.7834H53.1601L53.1652 62.4288Z" fill="#F6F2ED"/>
<path d="M55.0675 59.7995V57.2096C55.0675 56.8583 54.8228 56.7187 54.4203 56.7187C54.1755 56.7187 53.9307 56.7711 53.7792 57.2321L53.1708 59.0704C53.1132 59.3215 52.9642 59.5421 52.7531 59.6891C52.542 59.8361 52.2838 59.8989 52.0289 59.8652C51.8846 59.8861 51.7375 59.8735 51.5988 59.8284C51.4601 59.7833 51.3335 59.707 51.2288 59.6053C51.1241 59.5036 51.044 59.3791 50.9947 59.2416C50.9454 59.104 50.9282 58.9569 50.9444 58.8116V56.2997H51.4452V58.6986C51.4452 59.0498 51.6101 59.2224 52.0402 59.2224C52.1815 59.2445 52.3258 59.2116 52.4436 59.1304C52.5615 59.0493 52.644 58.926 52.6741 58.7859L53.2548 57.0401C53.4596 56.4239 53.6901 56.0799 54.4172 56.0799C55.045 56.0799 55.5673 56.3254 55.5673 57.0401V59.7995H55.0675Z" fill="#F6F2ED"/>
<path d="M55.5713 55.3799H50.9463V54.7637H55.5713V55.3799Z" fill="#F6F2ED"/>
<path d="M54.9681 49.8954C55.3973 49.8954 55.5683 50.108 55.5683 50.5054V52.1896C55.5683 53.6941 54.5442 54.0381 53.2558 54.0381C51.9674 54.0381 50.9443 53.693 50.9443 52.1033V50.0032H51.4451V51.8969C51.4451 53.0563 52.0012 53.3932 53.2568 53.3932C54.5124 53.3932 55.0675 53.0563 55.0675 51.9842V50.8155C55.0675 50.5834 54.9876 50.5074 54.7602 50.5074H53.3746V49.8913L54.9681 49.8954Z" fill="#F6F2ED"/>
<path d="M55.0425 44.9848C55.119 44.9752 55.1965 44.9828 55.2696 45.0071C55.3427 45.0314 55.4095 45.0717 55.4651 45.1251C55.5207 45.1785 55.5638 45.2437 55.5911 45.3158C55.6185 45.388 55.6294 45.4654 55.6232 45.5424C55.6286 45.6685 55.597 45.7935 55.5324 45.9019C55.4678 46.0103 55.373 46.0974 55.2597 46.1524L51.7725 48.3388C51.6926 48.385 51.6598 48.424 51.6598 48.4712C51.6598 48.4979 51.6865 48.5647 51.7919 48.5647H55.571V49.1665H51.4417C51.3666 49.1722 51.2911 49.1613 51.2207 49.1345C51.1503 49.1076 51.0867 49.0655 51.0343 49.0112C50.982 48.9569 50.9423 48.8916 50.918 48.8201C50.8937 48.7486 50.8854 48.6726 50.8938 48.5975C50.8868 48.4763 50.9148 48.3555 50.9744 48.2498C51.0339 48.144 51.1226 48.0576 51.2297 48.0009L54.7445 45.796C54.7967 45.7632 54.8572 45.7354 54.8572 45.6697C54.8572 45.604 54.7855 45.5896 54.7445 45.5896H50.944V44.9868H55.0405L55.0425 44.9848Z" fill="#F6F2ED"/>
<path d="M55.5703 43.4758C55.5822 43.5645 55.5734 43.6547 55.5446 43.7394C55.5158 43.824 55.4678 43.9009 55.4043 43.9638C55.3409 44.0267 55.2638 44.074 55.179 44.1019C55.0943 44.1299 55.0042 44.1377 54.9159 44.1248H51.5988C51.1041 44.1248 50.9443 43.8794 50.9443 43.4758V40.6076H51.4451V43.2006C51.4451 43.4594 51.525 43.5087 51.7524 43.5087H52.9516V40.6743H53.4524V43.5087H54.7469C54.9784 43.5087 55.0634 43.4625 55.0634 43.2006V40.5829H55.5652V43.4758H55.5703Z" fill="#F6F2ED"/>
<path d="M51.6458 39.917C51.1511 39.917 50.9463 39.6716 50.9463 39.2351V37.0878C50.9463 36.2323 51.4881 35.9581 52.3473 35.9581C53.2332 35.9581 53.82 36.2097 53.82 37.0118V37.7604H53.8528L55.5713 35.8626V36.6842L53.946 38.4598C53.9111 38.5063 53.8674 38.5455 53.8172 38.575C53.7671 38.6044 53.7117 38.6235 53.6541 38.6313H53.5517C53.4134 38.6313 53.3202 38.5286 53.3202 38.353V37.2233C53.3202 36.6605 52.9106 36.6071 52.3483 36.6071C51.7861 36.6071 51.4502 36.7006 51.4502 37.326V38.9701C51.4491 39.1827 51.5157 39.3008 51.7656 39.3008H55.5723V39.917H51.6458Z" fill="#F6F2ED"/>
<path d="M42.4697 31.6588L42.4697 108.833C42.4697 111.243 44.4184 113.197 46.8223 113.197H104.034C106.438 113.197 108.387 111.243 108.387 108.833V31.6588C108.387 29.2483 106.438 27.2942 104.034 27.2942H46.8223C44.4184 27.2942 42.4697 29.2483 42.4697 31.6588Z" stroke="#272421" stroke-width="1.5" stroke-dasharray="1.5 2"/>
<path d="M102.414 33.2891H50.183C49.0518 33.2891 48.1348 34.2086 48.1348 35.343V105.175C48.1348 106.31 49.0518 107.229 50.183 107.229H102.414C103.545 107.229 104.462 106.31 104.462 105.175V35.343C104.462 34.2086 103.545 33.2891 102.414 33.2891Z" fill="#272421"/>
<path d="M94.1387 43.6152H58.3986C56.7017 43.6152 55.3262 44.9946 55.3262 46.6961V93.0072C55.3262 94.7087 56.7017 96.0881 58.3986 96.0881H94.1387C95.8355 96.0881 97.2111 94.7087 97.2111 93.0072V46.6961C97.2111 44.9946 95.8355 43.6152 94.1387 43.6152Z" fill="#F6F2ED"/>
<path d="M58.7139 39.543H79.6563" stroke="#F6F2ED" stroke-width="4" stroke-linecap="round"/>
<rect x="24.75" y="0.75" width="32.1559" height="32.1558" rx="16.0779" fill="url(#paint4_linear_1709_13567)"/>
<rect x="24.75" y="0.75" width="32.1559" height="32.1558" rx="16.0779" stroke="#F9F4F0" stroke-width="1.5"/>
<path d="M45.9613 12L38.3384 19.323L34.8377 15.7232L33 17.4202L37.3873 21.9331C37.503 22.0522 37.642 22.1476 37.7961 22.2137C37.9501 22.2798 38.1161 22.3154 38.2844 22.3182H38.3055C38.6379 22.318 38.9568 22.1903 39.1933 21.9628L47.7403 13.7565L45.9613 12Z" fill="#F6F2ED"/>
<defs>
<linearGradient id="paint0_linear_1709_13567" x1="124.188" y1="15.9456" x2="131.274" y2="16.5417" gradientUnits="userSpaceOnUse">
<stop stop-color="#846E55"/>
<stop offset="1" stop-color="#B3A55C"/>
</linearGradient>
<linearGradient id="paint1_linear_1709_13567" x1="109.899" y1="16.8354" x2="138.131" y2="29.468" gradientUnits="userSpaceOnUse">
<stop stop-color="#846E55"/>
<stop offset="1" stop-color="#B3A55C"/>
</linearGradient>
<linearGradient id="paint2_linear_1709_13567" x1="-0.735561" y1="80.5421" x2="75.5612" y2="114.681" gradientUnits="userSpaceOnUse">
<stop stop-color="#846E55"/>
<stop offset="1" stop-color="#B3A55C"/>
</linearGradient>
<linearGradient id="paint3_linear_1709_13567" x1="5.40155" y1="78.8557" x2="45.4889" y2="85.8647" gradientUnits="userSpaceOnUse">
<stop stop-color="#846E55"/>
<stop offset="1" stop-color="#B3A55C"/>
</linearGradient>
<linearGradient id="paint4_linear_1709_13567" x1="23.4862" y1="1.5893" x2="76.7348" y2="25.4807" gradientUnits="userSpaceOnUse">
<stop stop-color="#846E55"/>
<stop offset="1" stop-color="#B3A55C"/>
</linearGradient>
</defs>
</svg>
