<svg width="157" height="117" viewBox="0 0 157 117" fill="none" xmlns="http://www.w3.org/2000/svg">
<path opacity="0.4" d="M20.6135 71.2124C24.6905 71.2124 28.6759 72.4195 32.0658 74.6811C35.4556 76.9426 38.0977 80.1571 39.6579 83.9179C41.2181 87.6788 41.6263 91.8171 40.8309 95.8096C40.0355 99.8021 38.0723 103.469 35.1895 106.348C32.3066 109.226 28.6336 111.186 24.635 111.981C20.6364 112.775 16.4917 112.367 12.7251 110.809C8.95843 109.252 5.73904 106.614 3.474 103.229C1.20896 99.8442 0 95.865 0 91.7942C0 86.3356 2.17177 81.1005 6.03756 77.2407C9.90334 73.3808 15.1465 71.2124 20.6135 71.2124Z" fill="url(#paint0_linear_516_8651)"/>
<path opacity="0.4" d="M16.6838 117C17.0333 117 17.3749 116.896 17.6654 116.702C17.956 116.509 18.1825 116.233 18.3162 115.911C18.4499 115.588 18.4849 115.234 18.4167 114.891C18.3486 114.549 18.1803 114.235 17.9332 113.988C17.6861 113.741 17.3713 113.573 17.0285 113.505C16.6858 113.437 16.3305 113.472 16.0077 113.606C15.6848 113.739 15.4089 113.965 15.2148 114.255C15.0206 114.546 14.917 114.887 14.917 115.236C14.917 115.703 15.1031 116.152 15.4345 116.483C15.7658 116.814 16.2152 117 16.6838 117Z" fill="#F9F4F0"/>
<path opacity="0.4" d="M22.3017 116.524C22.541 116.524 22.775 116.453 22.9739 116.32C23.1728 116.187 23.3277 115.998 23.4191 115.777C23.5104 115.556 23.534 115.313 23.4869 115.079C23.4398 114.845 23.3241 114.63 23.1545 114.461C22.9849 114.293 22.769 114.178 22.5341 114.132C22.2992 114.086 22.056 114.111 21.8352 114.203C21.6144 114.295 21.426 114.451 21.2938 114.65C21.1616 114.849 21.0917 115.083 21.0928 115.322C21.0943 115.641 21.2223 115.947 21.4488 116.172C21.6754 116.397 21.982 116.524 22.3017 116.524Z" fill="#F9F4F0"/>
<path opacity="0.4" d="M7.14549 73.945C7.58837 73.945 8.02131 73.8139 8.38955 73.5682C8.75779 73.3225 9.0448 72.9733 9.21429 72.5648C9.38377 72.1563 9.42811 71.7067 9.34171 71.273C9.25531 70.8393 9.04204 70.4409 8.72888 70.1282C8.41571 69.8156 8.01672 69.6026 7.58235 69.5164C7.14798 69.4301 6.69774 69.4744 6.28857 69.6436C5.8794 69.8128 5.52968 70.0994 5.28363 70.467C5.03758 70.8347 4.90625 71.267 4.90625 71.7092C4.90625 72.3022 5.14217 72.8709 5.56211 73.2901C5.98205 73.7094 6.55161 73.945 7.14549 73.945Z" fill="#F9F4F0"/>
<path opacity="0.4" d="M145.907 23.3849C152.033 23.3849 157 18.4265 157 12.3099C157 6.19332 152.033 1.23486 145.907 1.23486C139.782 1.23486 134.815 6.19332 134.815 12.3099C134.815 18.4265 139.782 23.3849 145.907 23.3849Z" fill="url(#paint1_linear_516_8651)"/>
<path opacity="0.4" d="M156.049 21.4868C156.237 21.4868 156.421 21.5425 156.577 21.6467C156.733 21.751 156.855 21.8992 156.927 22.0726C156.999 22.246 157.018 22.4368 156.981 22.6209C156.944 22.8049 156.854 22.974 156.721 23.1067C156.588 23.2394 156.419 23.3298 156.234 23.3664C156.05 23.403 155.859 23.3842 155.685 23.3124C155.512 23.2406 155.363 23.119 155.259 22.9629C155.154 22.8069 155.099 22.6234 155.099 22.4357C155.099 22.1841 155.199 21.9427 155.377 21.7647C155.555 21.5868 155.797 21.4868 156.049 21.4868Z" fill="#F9F4F0"/>
<path opacity="0.4" d="M153.885 24.3289C153.854 24.4536 153.787 24.5663 153.692 24.6527C153.596 24.7392 153.477 24.7954 153.35 24.8144C153.223 24.8334 153.093 24.8143 152.976 24.7595C152.86 24.7047 152.762 24.6166 152.696 24.5064C152.63 24.3962 152.598 24.2689 152.604 24.1405C152.61 24.0121 152.654 23.8884 152.731 23.785C152.807 23.6817 152.913 23.6034 153.034 23.5599C153.155 23.5165 153.286 23.5099 153.411 23.541C153.579 23.5827 153.723 23.6891 153.812 23.8369C153.901 23.9847 153.927 24.1616 153.885 24.3289Z" fill="#F9F4F0"/>
<path opacity="0.4" d="M153.534 2.41408C153.295 2.41408 153.061 2.34328 152.862 2.21065C152.664 2.07802 152.509 1.88951 152.417 1.66895C152.326 1.44839 152.302 1.2057 152.348 0.971557C152.395 0.737414 152.51 0.522341 152.679 0.353534C152.848 0.184726 153.064 0.0697672 153.298 0.0231934C153.533 -0.0233804 153.776 0.000522985 153.997 0.0918808C154.218 0.183239 154.406 0.337948 154.539 0.536444C154.672 0.73494 154.743 0.968308 154.743 1.20704C154.743 1.52716 154.616 1.83418 154.389 2.06054C154.162 2.28691 153.855 2.41408 153.534 2.41408Z" fill="#F9F4F0"/>
<path d="M140.917 9.76904H19.1037C16.5358 9.76904 14.4541 11.8475 14.4541 14.4115V95.5179C14.4541 98.0819 16.5358 100.16 19.1037 100.16H140.917C143.485 100.16 145.567 98.0819 145.567 95.5179V14.4115C145.567 11.8475 143.485 9.76904 140.917 9.76904Z" fill="#F6F2ED"/>
<path d="M140.917 10.4653H19.1035C16.9208 10.4653 15.1514 12.2321 15.1514 14.4114V95.5178C15.1514 97.6972 16.9208 99.4639 19.1035 99.4639H140.917C143.1 99.4639 144.869 97.6972 144.869 95.5178V14.4114C144.869 12.2321 143.1 10.4653 140.917 10.4653Z" stroke="#272421" stroke-width="1.5"/>
<path d="M132.254 89.8254H27.7426C27.0637 89.8237 26.413 89.5536 25.9329 89.0743C25.4529 88.5949 25.1824 87.9453 25.1807 87.2674V23.3529C25.1824 22.675 25.4529 22.0254 25.9329 21.546C26.413 21.0667 27.0637 20.7966 27.7426 20.7949H132.254C132.933 20.7966 133.584 21.0667 134.064 21.546C134.544 22.0254 134.814 22.675 134.816 23.3529V87.2674C134.814 87.9453 134.544 88.5949 134.064 89.0743C133.584 89.5536 132.933 89.8237 132.254 89.8254Z" fill="#272421" stroke="#F6F2ED" stroke-width="0.283" stroke-miterlimit="10"/>
<mask id="mask0_516_8651" style="mask-type:luminance" maskUnits="userSpaceOnUse" x="25" y="20" width="110" height="70">
<path d="M132.254 89.8254H27.7426C27.0637 89.8237 26.413 89.5536 25.9329 89.0743C25.4529 88.5949 25.1824 87.9453 25.1807 87.2674V23.3529C25.1824 22.675 25.4529 22.0254 25.9329 21.546C26.413 21.0667 27.0637 20.7966 27.7426 20.7949H132.254C132.933 20.7966 133.584 21.0667 134.064 21.546C134.544 22.0254 134.814 22.675 134.816 23.3529V87.2674C134.814 87.9453 134.544 88.5949 134.064 89.0743C133.584 89.5536 132.933 89.8237 132.254 89.8254Z" fill="white"/>
</mask>
<g mask="url(#mask0_516_8651)">
<path d="M-1.51367 35.4604H143.67" stroke="#F6F2ED" stroke-width="0.283" stroke-miterlimit="10"/>
</g>
<mask id="mask1_516_8651" style="mask-type:luminance" maskUnits="userSpaceOnUse" x="25" y="20" width="110" height="70">
<path d="M132.254 89.8254H27.7426C27.0637 89.8237 26.413 89.5536 25.9329 89.0743C25.4529 88.5949 25.1824 87.9453 25.1807 87.2674V23.3529C25.1824 22.675 25.4529 22.0254 25.9329 21.546C26.413 21.0667 27.0637 20.7966 27.7426 20.7949H132.254C132.933 20.7966 133.584 21.0667 134.064 21.546C134.544 22.0254 134.814 22.675 134.816 23.3529V87.2674C134.814 87.9453 134.544 88.5949 134.064 89.0743C133.584 89.5536 132.933 89.8237 132.254 89.8254Z" fill="white"/>
</mask>
<g mask="url(#mask1_516_8651)">
<path d="M-1.51367 36.7952H143.67" stroke="#F6F2ED" stroke-width="0.992" stroke-miterlimit="10"/>
</g>
<mask id="mask2_516_8651" style="mask-type:luminance" maskUnits="userSpaceOnUse" x="25" y="20" width="110" height="70">
<path d="M132.254 89.8254H27.7426C27.0637 89.8237 26.413 89.5536 25.9329 89.0743C25.4529 88.5949 25.1824 87.9453 25.1807 87.2674V23.3529C25.1824 22.675 25.4529 22.0254 25.9329 21.546C26.413 21.0667 27.0637 20.7966 27.7426 20.7949H132.254C132.933 20.7966 133.584 21.0667 134.064 21.546C134.544 22.0254 134.814 22.675 134.816 23.3529V87.2674C134.814 87.9453 134.544 88.5949 134.064 89.0743C133.584 89.5536 132.933 89.8237 132.254 89.8254Z" fill="white"/>
</mask>
<g mask="url(#mask2_516_8651)">
<path d="M-1.51367 41.6633H143.67" stroke="#F6F2ED" stroke-width="2.835"/>
</g>
<mask id="mask3_516_8651" style="mask-type:luminance" maskUnits="userSpaceOnUse" x="25" y="20" width="110" height="70">
<path d="M132.254 89.8254H27.7426C27.0637 89.8237 26.413 89.5536 25.9329 89.0743C25.4529 88.5949 25.1824 87.9453 25.1807 87.2674V23.3529C25.1824 22.675 25.4529 22.0254 25.9329 21.546C26.413 21.0667 27.0637 20.7966 27.7426 20.7949H132.254C132.933 20.7966 133.584 21.0667 134.064 21.546C134.544 22.0254 134.814 22.675 134.816 23.3529V87.2674C134.814 87.9453 134.544 88.5949 134.064 89.0743C133.584 89.5536 132.933 89.8237 132.254 89.8254Z" fill="white"/>
</mask>
<g mask="url(#mask3_516_8651)">
<path d="M-1.51367 50.3953H143.67" stroke="#F6F2ED" stroke-width="8.504" stroke-miterlimit="10"/>
</g>
<path d="M93.3074 30.7906V27.1398H91.6094V26.2271H96.1799V27.1398H94.4828V30.7906H93.3074Z" fill="#F6F2ED"/>
<path d="M97.1675 26.7084C97.3172 26.35 97.5079 26.1736 98.0686 26.1736C98.2567 26.1455 98.4486 26.1835 98.6118 26.281C98.7749 26.3785 98.8991 26.5296 98.9632 26.7084L100.674 30.7937H99.4393L99.0283 29.751H97.1024L96.6914 30.7937H95.4639L97.1675 26.7084ZM97.3907 28.8597H98.7428L98.1607 27.4122C98.1337 27.3416 98.1142 27.2683 98.0677 27.2683C98.0212 27.2683 97.997 27.3388 97.97 27.4122L97.3907 28.8597Z" fill="#F6F2ED"/>
<path d="M100.903 30.7912V26.9314C100.89 26.8372 100.899 26.7412 100.929 26.6509C100.959 26.5605 101.009 26.4782 101.076 26.4103C101.143 26.3423 101.224 26.2906 101.314 26.2589C101.404 26.2272 101.5 26.2165 101.594 26.2276H104.023C105.035 26.2276 105.258 26.8609 105.258 27.7736C105.258 28.6863 105.035 29.3325 104.023 29.3325H102.078V30.794H100.903V30.7912ZM103.414 28.417C103.904 28.417 104.054 28.2313 104.054 27.7671C104.054 27.3028 103.904 27.1338 103.414 27.1338H102.383C102.154 27.1338 102.076 27.2128 102.076 27.4403V28.4124L103.414 28.417Z" fill="#F6F2ED"/>
<path d="M106.009 30.2947H108.562C108.908 30.2947 109.045 30.0533 109.045 29.6559C109.045 29.4145 108.993 29.1731 108.537 29.0227L106.728 28.4229C106.48 28.3657 106.263 28.2187 106.118 28.0103C105.973 27.802 105.911 27.5472 105.944 27.2957C105.924 27.1531 105.936 27.0077 105.981 26.8707C106.026 26.7337 106.101 26.6087 106.202 26.5055C106.302 26.4022 106.425 26.3233 106.561 26.2748C106.697 26.2264 106.842 26.2097 106.986 26.2261H109.461V26.7209H107.097C106.751 26.7209 106.58 26.8844 106.58 27.3078C106.56 27.4469 106.593 27.5887 106.672 27.7046C106.752 27.8206 106.873 27.902 107.011 27.9326L108.736 28.5055C109.343 28.707 109.682 28.9354 109.682 29.6522C109.682 30.2715 109.441 30.7877 108.736 30.7877H106.009V30.2947Z" fill="#F6F2ED"/>
<path d="M110.365 30.7906V26.2271H110.972V30.7906H110.365Z" fill="#F6F2ED"/>
<path d="M115.772 30.1964C115.772 30.6198 115.563 30.7888 115.171 30.7888H113.511C112.029 30.7888 111.688 29.7786 111.688 28.5066C111.688 27.2346 112.029 26.2244 113.596 26.2244H115.666V26.7193H113.799C112.657 26.7193 112.325 27.268 112.325 28.5066C112.325 29.7452 112.657 30.2939 113.709 30.2939H114.865C115.094 30.2939 115.165 30.215 115.165 29.9875V28.6245H115.772V30.1964Z" fill="#F6F2ED"/>
<path d="M120.611 30.2686C120.62 30.344 120.613 30.4205 120.589 30.4926C120.565 30.5647 120.525 30.6306 120.472 30.6854C120.42 30.7403 120.355 30.7828 120.284 30.8098C120.213 30.8368 120.137 30.8476 120.061 30.8415C119.937 30.8467 119.814 30.8156 119.707 30.7519C119.6 30.6882 119.515 30.5948 119.46 30.4831L117.306 27.0412C117.259 26.9623 117.221 26.9298 117.176 26.9298C117.149 26.9298 117.083 26.9567 117.083 27.0598V30.7895H116.489V26.7153C116.485 26.6416 116.496 26.5678 116.522 26.499C116.549 26.4301 116.59 26.3678 116.643 26.3165C116.696 26.2651 116.76 26.2258 116.83 26.2014C116.899 26.1769 116.974 26.1679 117.047 26.1749C117.167 26.1681 117.286 26.1957 117.39 26.2545C117.494 26.3132 117.579 26.4007 117.635 26.5064L119.809 29.9752C119.842 30.0272 119.869 30.0866 119.934 30.0866C119.999 30.0866 120.013 30.0161 120.013 29.9752V26.2241H120.606V30.2686H120.611Z" fill="#F6F2ED"/>
<path d="M122.098 30.791C122.011 30.8029 121.921 30.7941 121.838 30.7654C121.754 30.7368 121.678 30.689 121.616 30.6259C121.554 30.5629 121.507 30.4862 121.48 30.402C121.453 30.3179 121.445 30.2285 121.459 30.1411V26.8719C121.459 26.3826 121.7 26.2219 122.098 26.2219H124.925V26.7168H122.365C122.11 26.7168 122.066 26.7957 122.066 27.0232V28.2024H124.856V28.6973H122.066V29.9767C122.066 30.2051 122.111 30.2896 122.365 30.2896H124.951V30.7845H122.098V30.791Z" fill="#F6F2ED"/>
<path d="M125.605 26.9169C125.605 26.4276 125.847 26.2271 126.278 26.2271H128.394C129.238 26.2271 129.505 26.7619 129.505 27.6096C129.505 28.4842 129.257 29.0627 128.466 29.0627H127.728V29.0952L129.603 30.7906H128.792L127.038 29.188C126.992 29.1536 126.953 29.1105 126.924 29.0611C126.895 29.0117 126.876 28.957 126.868 28.9002V28.7962C126.868 28.6597 126.966 28.5678 127.147 28.5678H128.263C128.821 28.5678 128.87 28.163 128.87 27.6086C128.87 27.0543 128.777 26.7229 128.166 26.7229H126.539C126.33 26.7229 126.213 26.7879 126.213 27.0358V30.7924H125.605V26.9169Z" fill="#F6F2ED"/>
<path d="M133.877 17.4946H25.2627C23.08 17.4946 21.3105 19.2614 21.3105 21.4407V88.5938C21.3105 90.7731 23.08 92.5399 25.2627 92.5399H133.877C136.06 92.5399 137.829 90.7731 137.829 88.5938V21.4407C137.829 19.2614 136.06 17.4946 133.877 17.4946Z" stroke="#272421" stroke-width="1.5" stroke-dasharray="1.5 2"/>
<defs>
<linearGradient id="paint0_linear_516_8651" x1="-0.62942" y1="73.1562" x2="64.5642" y2="102.452" gradientUnits="userSpaceOnUse">
<stop stop-color="#A58969"/>
<stop offset="1" stop-color="#C7B664"/>
</linearGradient>
<linearGradient id="paint1_linear_516_8651" x1="134.477" y1="2.28084" x2="169.557" y2="18.0448" gradientUnits="userSpaceOnUse">
<stop stop-color="#A58969"/>
<stop offset="1" stop-color="#C7B664"/>
</linearGradient>
</defs>
</svg>
