<svg width="157" height="123" viewBox="0 0 157 123" fill="none" xmlns="http://www.w3.org/2000/svg">
<path opacity="0.4" d="M20.6135 77.2129C24.6905 77.2129 28.6759 78.42 32.0658 80.6816C35.4556 82.9431 38.0977 86.1576 39.6579 89.9184C41.2181 93.6792 41.6263 97.8176 40.8309 101.81C40.0355 105.803 38.0723 109.47 35.1895 112.348C32.3066 115.227 28.6336 117.187 24.635 117.981C20.6364 118.775 16.4917 118.368 12.7251 116.81C8.95843 115.252 5.73904 112.614 3.474 109.229C1.20896 105.845 0 101.865 0 97.7947C0 92.3361 2.17177 87.101 6.03756 83.2412C9.90334 79.3813 15.1465 77.2129 20.6135 77.2129Z" fill="url(#paint0_linear_1709_13825)"/>
<path opacity="0.4" d="M16.6838 123C17.0333 123 17.3749 122.896 17.6654 122.703C17.956 122.509 18.1825 122.233 18.3162 121.911C18.4499 121.589 18.4849 121.234 18.4167 120.892C18.3486 120.549 18.1803 120.235 17.9332 119.988C17.6861 119.742 17.3713 119.574 17.0285 119.506C16.6858 119.438 16.3305 119.472 16.0077 119.606C15.6848 119.739 15.4089 119.966 15.2148 120.256C15.0206 120.546 14.917 120.887 14.917 121.236C14.917 121.704 15.1031 122.152 15.4345 122.483C15.7658 122.814 16.2152 123 16.6838 123Z" fill="#F9F4F0"/>
<path opacity="0.4" d="M22.3017 122.523C22.541 122.523 22.775 122.453 22.9739 122.32C23.1728 122.187 23.3277 121.998 23.4191 121.777C23.5104 121.556 23.534 121.313 23.4869 121.079C23.4398 120.845 23.3241 120.63 23.1545 120.461C22.9849 120.292 22.769 120.178 22.5341 120.132C22.2992 120.086 22.056 120.111 21.8352 120.203C21.6144 120.295 21.426 120.451 21.2938 120.65C21.1616 120.849 21.0917 121.083 21.0928 121.322C21.0943 121.641 21.2223 121.947 21.4488 122.172C21.6754 122.397 21.982 122.523 22.3017 122.523Z" fill="#F9F4F0"/>
<path opacity="0.4" d="M7.14549 79.9452C7.58837 79.9452 8.02131 79.8141 8.38955 79.5684C8.75779 79.3228 9.0448 78.9736 9.21429 78.565C9.38377 78.1565 9.42811 77.707 9.34171 77.2733C9.25531 76.8396 9.04204 76.4412 8.72888 76.1285C8.41571 75.8158 8.01672 75.6029 7.58235 75.5166C7.14798 75.4303 6.69774 75.4746 6.28857 75.6438C5.8794 75.813 5.52968 76.0996 5.28363 76.4673C5.03758 76.835 4.90625 77.2672 4.90625 77.7094C4.90625 78.3024 5.14217 78.8711 5.56211 79.2904C5.98205 79.7097 6.55161 79.9452 7.14549 79.9452Z" fill="#F9F4F0"/>
<path opacity="0.4" d="M145.907 29.3854C152.033 29.3854 157 24.427 157 18.3104C157 12.1938 152.033 7.23535 145.907 7.23535C139.782 7.23535 134.815 12.1938 134.815 18.3104C134.815 24.427 139.782 29.3854 145.907 29.3854Z" fill="url(#paint1_linear_1709_13825)"/>
<path opacity="0.4" d="M156.049 27.4863C156.237 27.4863 156.421 27.542 156.577 27.6462C156.733 27.7505 156.855 27.8987 156.927 28.0721C156.999 28.2455 157.018 28.4363 156.981 28.6204C156.944 28.8044 156.854 28.9735 156.721 29.1062C156.588 29.2389 156.419 29.3293 156.234 29.3659C156.05 29.4025 155.859 29.3838 155.685 29.3119C155.512 29.2401 155.363 29.1185 155.259 28.9624C155.154 28.8064 155.099 28.6229 155.099 28.4352C155.099 28.1836 155.199 27.9422 155.377 27.7643C155.555 27.5863 155.797 27.4863 156.049 27.4863Z" fill="#F9F4F0"/>
<path opacity="0.4" d="M153.885 30.3289C153.854 30.4536 153.787 30.5663 153.692 30.6527C153.596 30.7392 153.477 30.7954 153.35 30.8144C153.223 30.8334 153.093 30.8143 152.976 30.7595C152.86 30.7047 152.762 30.6166 152.696 30.5064C152.63 30.3962 152.598 30.2689 152.604 30.1405C152.61 30.0121 152.654 29.8884 152.731 29.785C152.807 29.6817 152.913 29.6034 153.034 29.5599C153.155 29.5165 153.286 29.5099 153.411 29.541C153.579 29.5827 153.723 29.6891 153.812 29.8369C153.901 29.9847 153.927 30.1616 153.885 30.3289Z" fill="#F9F4F0"/>
<path opacity="0.4" d="M153.534 8.41408C153.295 8.41408 153.061 8.34328 152.862 8.21065C152.664 8.07802 152.509 7.88951 152.417 7.66895C152.326 7.44839 152.302 7.2057 152.348 6.97156C152.395 6.73741 152.51 6.52234 152.679 6.35353C152.848 6.18473 153.064 6.06977 153.298 6.02319C153.533 5.97662 153.776 6.00052 153.997 6.09188C154.218 6.18324 154.406 6.33795 154.539 6.53644C154.672 6.73494 154.743 6.96831 154.743 7.20704C154.743 7.52716 154.616 7.83418 154.389 8.06054C154.162 8.28691 153.855 8.41408 153.534 8.41408Z" fill="#F9F4F0"/>
<path d="M140.917 15.7695H19.1037C16.5358 15.7695 14.4541 17.848 14.4541 20.412V101.518C14.4541 104.082 16.5358 106.161 19.1037 106.161H140.917C143.485 106.161 145.567 104.082 145.567 101.518V20.412C145.567 17.848 143.485 15.7695 140.917 15.7695Z" fill="#F6F2ED"/>
<path d="M140.917 16.4658H19.1035C16.9208 16.4658 15.1514 18.2325 15.1514 20.4119V101.518C15.1514 103.698 16.9208 105.464 19.1035 105.464H140.917C143.1 105.464 144.869 103.698 144.869 101.518V20.4119C144.869 18.2325 143.1 16.4658 140.917 16.4658Z" stroke="#272421" stroke-width="1.5"/>
<path d="M132.254 95.8254H27.7426C27.0637 95.8237 26.413 95.5536 25.9329 95.0743C25.4529 94.5949 25.1824 93.9453 25.1807 93.2674V29.3529C25.1824 28.675 25.4529 28.0254 25.9329 27.546C26.413 27.0667 27.0637 26.7966 27.7426 26.7949H132.254C132.933 26.7966 133.584 27.0667 134.064 27.546C134.544 28.0254 134.814 28.675 134.816 29.3529V93.2674C134.814 93.9453 134.544 94.5949 134.064 95.0743C133.584 95.5536 132.933 95.8237 132.254 95.8254Z" fill="#272421" stroke="#F6F2ED" stroke-width="0.283" stroke-miterlimit="10"/>
<mask id="mask0_1709_13825" style="mask-type:luminance" maskUnits="userSpaceOnUse" x="25" y="26" width="110" height="70">
<path d="M132.254 95.8254H27.7426C27.0637 95.8237 26.413 95.5536 25.9329 95.0743C25.4529 94.5949 25.1824 93.9453 25.1807 93.2674V29.3529C25.1824 28.675 25.4529 28.0254 25.9329 27.546C26.413 27.0667 27.0637 26.7966 27.7426 26.7949H132.254C132.933 26.7966 133.584 27.0667 134.064 27.546C134.544 28.0254 134.814 28.675 134.816 29.3529V93.2674C134.814 93.9453 134.544 94.5949 134.064 95.0743C133.584 95.5536 132.933 95.8237 132.254 95.8254Z" fill="white"/>
</mask>
<g mask="url(#mask0_1709_13825)">
<path d="M-1.51367 41.4609H143.67" stroke="#F6F2ED" stroke-width="0.283" stroke-miterlimit="10"/>
</g>
<mask id="mask1_1709_13825" style="mask-type:luminance" maskUnits="userSpaceOnUse" x="25" y="26" width="110" height="70">
<path d="M132.254 95.8254H27.7426C27.0637 95.8237 26.413 95.5536 25.9329 95.0743C25.4529 94.5949 25.1824 93.9453 25.1807 93.2674V29.3529C25.1824 28.675 25.4529 28.0254 25.9329 27.546C26.413 27.0667 27.0637 26.7966 27.7426 26.7949H132.254C132.933 26.7966 133.584 27.0667 134.064 27.546C134.544 28.0254 134.814 28.675 134.816 29.3529V93.2674C134.814 93.9453 134.544 94.5949 134.064 95.0743C133.584 95.5536 132.933 95.8237 132.254 95.8254Z" fill="white"/>
</mask>
<g mask="url(#mask1_1709_13825)">
<path d="M-1.51367 42.7949H143.67" stroke="#F6F2ED" stroke-width="0.992" stroke-miterlimit="10"/>
</g>
<mask id="mask2_1709_13825" style="mask-type:luminance" maskUnits="userSpaceOnUse" x="25" y="26" width="110" height="70">
<path d="M132.254 95.8254H27.7426C27.0637 95.8237 26.413 95.5536 25.9329 95.0743C25.4529 94.5949 25.1824 93.9453 25.1807 93.2674V29.3529C25.1824 28.675 25.4529 28.0254 25.9329 27.546C26.413 27.0667 27.0637 26.7966 27.7426 26.7949H132.254C132.933 26.7966 133.584 27.0667 134.064 27.546C134.544 28.0254 134.814 28.675 134.816 29.3529V93.2674C134.814 93.9453 134.544 94.5949 134.064 95.0743C133.584 95.5536 132.933 95.8237 132.254 95.8254Z" fill="white"/>
</mask>
<g mask="url(#mask2_1709_13825)">
<path d="M-1.51367 47.6631H143.67" stroke="#F6F2ED" stroke-width="2.835"/>
</g>
<mask id="mask3_1709_13825" style="mask-type:luminance" maskUnits="userSpaceOnUse" x="25" y="26" width="110" height="70">
<path d="M132.254 95.8254H27.7426C27.0637 95.8237 26.413 95.5536 25.9329 95.0743C25.4529 94.5949 25.1824 93.9453 25.1807 93.2674V29.3529C25.1824 28.675 25.4529 28.0254 25.9329 27.546C26.413 27.0667 27.0637 26.7966 27.7426 26.7949H132.254C132.933 26.7966 133.584 27.0667 134.064 27.546C134.544 28.0254 134.814 28.675 134.816 29.3529V93.2674C134.814 93.9453 134.544 94.5949 134.064 95.0743C133.584 95.5536 132.933 95.8237 132.254 95.8254Z" fill="white"/>
</mask>
<g mask="url(#mask3_1709_13825)">
<path d="M-1.51367 56.3955H143.67" stroke="#F6F2ED" stroke-width="8.504" stroke-miterlimit="10"/>
</g>
<path d="M93.3074 36.7901V33.1393H91.6094V32.2266H96.1799V33.1393H94.4828V36.7901H93.3074Z" fill="#F6F2ED"/>
<path d="M97.1675 32.7079C97.3172 32.3495 97.5079 32.1731 98.0686 32.1731C98.2567 32.145 98.4486 32.183 98.6118 32.2805C98.7749 32.378 98.8991 32.5291 98.9632 32.7079L100.674 36.7932H99.4393L99.0283 35.7505H97.1024L96.6914 36.7932H95.4639L97.1675 32.7079ZM97.3907 34.8592H98.7428L98.1607 33.4117C98.1337 33.3411 98.1142 33.2678 98.0677 33.2678C98.0212 33.2678 97.997 33.3383 97.97 33.4117L97.3907 34.8592Z" fill="#F6F2ED"/>
<path d="M100.903 36.7904V32.9307C100.89 32.8365 100.899 32.7405 100.929 32.6501C100.959 32.5598 101.009 32.4775 101.076 32.4096C101.143 32.3416 101.224 32.2898 101.314 32.2582C101.404 32.2265 101.5 32.2158 101.594 32.2269H104.023C105.035 32.2269 105.258 32.8601 105.258 33.7728C105.258 34.6856 105.035 35.3318 104.023 35.3318H102.078V36.7932H100.903V36.7904ZM103.414 34.4163C103.904 34.4163 104.054 34.2306 104.054 33.7663C104.054 33.3021 103.904 33.1331 103.414 33.1331H102.383C102.154 33.1331 102.076 33.212 102.076 33.4395V34.4116L103.414 34.4163Z" fill="#F6F2ED"/>
<path d="M106.009 36.2935H108.562C108.908 36.2935 109.045 36.0521 109.045 35.6547C109.045 35.4133 108.993 35.1719 108.537 35.0215L106.728 34.4216C106.48 34.3645 106.263 34.2175 106.118 34.0091C105.973 33.8007 105.911 33.546 105.944 33.2945C105.924 33.1518 105.936 33.0065 105.981 32.8695C106.026 32.7325 106.101 32.6075 106.202 32.5042C106.302 32.4009 106.425 32.322 106.561 32.2736C106.697 32.2252 106.842 32.2085 106.986 32.2248H109.461V32.7197H107.097C106.751 32.7197 106.58 32.8831 106.58 33.3065C106.56 33.4457 106.593 33.5875 106.672 33.7034C106.752 33.8193 106.873 33.9008 107.011 33.9314L108.736 34.5043C109.343 34.7058 109.682 34.9342 109.682 35.651C109.682 36.2703 109.441 36.7865 108.736 36.7865H106.009V36.2935Z" fill="#F6F2ED"/>
<path d="M110.365 36.7901V32.2266H110.972V36.7901H110.365Z" fill="#F6F2ED"/>
<path d="M115.772 36.1967C115.772 36.6201 115.563 36.7891 115.171 36.7891H113.511C112.029 36.7891 111.688 35.7789 111.688 34.5068C111.688 33.2348 112.029 32.2246 113.596 32.2246H115.666V32.7195H113.799C112.657 32.7195 112.325 33.2682 112.325 34.5068C112.325 35.7454 112.657 36.2942 113.709 36.2942H114.865C115.094 36.2942 115.165 36.2153 115.165 35.9878V34.6248H115.772V36.1967Z" fill="#F6F2ED"/>
<path d="M120.611 36.2679C120.62 36.3433 120.613 36.4198 120.589 36.4919C120.565 36.564 120.525 36.6299 120.472 36.6847C120.42 36.7396 120.355 36.782 120.284 36.809C120.213 36.836 120.137 36.8469 120.061 36.8408C119.937 36.846 119.814 36.8148 119.707 36.7512C119.6 36.6875 119.515 36.5941 119.46 36.4824L117.306 33.0405C117.259 32.9615 117.221 32.929 117.176 32.929C117.149 32.929 117.083 32.956 117.083 33.059V36.7888H116.489V32.7146C116.485 32.6409 116.496 32.5671 116.522 32.4982C116.549 32.4294 116.59 32.3671 116.643 32.3157C116.696 32.2643 116.76 32.2251 116.83 32.2006C116.899 32.1762 116.974 32.1672 117.047 32.1742C117.167 32.1673 117.286 32.1949 117.39 32.2537C117.494 32.3125 117.579 32.3999 117.635 32.5056L119.809 35.9745C119.842 36.0265 119.869 36.0859 119.934 36.0859C119.999 36.0859 120.013 36.0153 120.013 35.9745V32.2234H120.606V36.2679H120.611Z" fill="#F6F2ED"/>
<path d="M122.098 36.7898C122.011 36.8016 121.921 36.7929 121.838 36.7642C121.754 36.7356 121.678 36.6878 121.616 36.6247C121.554 36.5616 121.507 36.485 121.48 36.4008C121.453 36.3166 121.445 36.2273 121.459 36.1399V32.8706C121.459 32.3813 121.7 32.2207 122.098 32.2207H124.925V32.7156H122.365C122.11 32.7156 122.066 32.7945 122.066 33.022V34.2012H124.856V34.6961H122.066V35.9755C122.066 36.2039 122.111 36.2884 122.365 36.2884H124.951V36.7833H122.098V36.7898Z" fill="#F6F2ED"/>
<path d="M125.605 32.9164C125.605 32.4271 125.847 32.2266 126.278 32.2266H128.394C129.238 32.2266 129.505 32.7614 129.505 33.6091C129.505 34.4837 129.257 35.0622 128.466 35.0622H127.728V35.0947L129.603 36.7901H128.792L127.038 35.1875C126.992 35.1532 126.953 35.11 126.924 35.0606C126.895 35.0112 126.876 34.9565 126.868 34.8997V34.7957C126.868 34.6592 126.966 34.5673 127.147 34.5673H128.263C128.821 34.5673 128.87 34.1625 128.87 33.6082C128.87 33.0538 128.777 32.7224 128.166 32.7224H126.539C126.33 32.7224 126.213 32.7874 126.213 33.0353V36.792H125.605V32.9164Z" fill="#F6F2ED"/>
<path d="M133.877 23.4951H25.2627C23.08 23.4951 21.3105 25.2618 21.3105 27.4412V94.5943C21.3105 96.7736 23.08 98.5403 25.2627 98.5403H133.877C136.06 98.5403 137.829 96.7736 137.829 94.5943V27.4412C137.829 25.2618 136.06 23.4951 133.877 23.4951Z" stroke="#272421" stroke-width="1.5" stroke-dasharray="1.5 2"/>
<rect x="3.75" y="0.75" width="32.1559" height="32.1558" rx="16.0779" fill="url(#paint2_linear_1709_13825)"/>
<rect x="3.75" y="0.75" width="32.1559" height="32.1558" rx="16.0779" stroke="#F9F4F0" stroke-width="1.5"/>
<path d="M24.9613 12L17.3384 19.323L13.8377 15.7232L12 17.4202L16.3873 21.9331C16.503 22.0522 16.642 22.1476 16.7961 22.2137C16.9501 22.2798 17.1161 22.3154 17.2844 22.3182H17.3055C17.6379 22.318 17.9568 22.1903 18.1933 21.9628L26.7403 13.7565L24.9613 12Z" fill="#F6F2ED"/>
<defs>
<linearGradient id="paint0_linear_1709_13825" x1="-0.62942" y1="79.1567" x2="64.5642" y2="108.453" gradientUnits="userSpaceOnUse">
<stop stop-color="#846E55"/>
<stop offset="1" stop-color="#B3A55C"/>
</linearGradient>
<linearGradient id="paint1_linear_1709_13825" x1="134.477" y1="8.28133" x2="169.557" y2="24.0453" gradientUnits="userSpaceOnUse">
<stop stop-color="#846E55"/>
<stop offset="1" stop-color="#B3A55C"/>
</linearGradient>
<linearGradient id="paint2_linear_1709_13825" x1="2.48617" y1="1.5893" x2="55.7348" y2="25.4807" gradientUnits="userSpaceOnUse">
<stop stop-color="#846E55"/>
<stop offset="1" stop-color="#B3A55C"/>
</linearGradient>
</defs>
</svg>
