<svg width="20" height="14" viewBox="0 0 20 14" fill="none" xmlns="http://www.w3.org/2000/svg">
<path d="M19.34 13.3766H0.463C0.340286 13.3763 0.222674 13.3275 0.135901 13.2407C0.0491292 13.1539 0.000264186 13.0363 0 12.9136V1.3516C0.00105315 1.22941 0.0502663 1.11256 0.136953 1.02644C0.22364 0.940313 0.340803 0.89186 0.463 0.891602H19.34C19.462 0.892123 19.5789 0.940692 19.6654 1.02679C19.7519 1.11289 19.8009 1.22958 19.802 1.3516V12.9116C19.8023 13.0345 19.7538 13.1525 19.6672 13.2396C19.5805 13.3268 19.4629 13.3761 19.34 13.3766Z" fill="url(#paint0_linear_182_7959)"/>
<path d="M0.00390625 3.54395H19.8039" stroke="#F7F2EC" stroke-width="2"/>
<defs>
<linearGradient id="paint0_linear_182_7959" x1="-0.302321" y1="1.48117" x2="24.682" y2="19.2607" gradientUnits="userSpaceOnUse">
<stop stop-color="#846E55"/>
<stop offset="1" stop-color="#B3A55C"/>
</linearGradient>
</defs>
</svg>
