<svg width="130" height="117" viewBox="0 0 130 117" fill="none" xmlns="http://www.w3.org/2000/svg">
<path opacity="0.4" d="M126.409 30.9938C126.262 30.9587 126.134 30.8713 126.052 30.7493C125.97 30.6273 125.939 30.4799 125.967 30.3372C125.994 30.1945 126.078 30.0672 126.2 29.9813C126.323 29.8954 126.475 29.8573 126.625 29.8748C126.776 29.8923 126.914 29.964 127.012 30.0754C127.109 30.1868 127.158 30.3295 127.149 30.4744C127.14 30.6192 127.074 30.7554 126.963 30.855C126.853 30.9547 126.707 31.0104 126.555 31.0107C126.506 31.0109 126.457 31.0052 126.409 30.9938ZM128.249 28.9105C128.249 28.745 128.3 28.5833 128.396 28.4457C128.493 28.3081 128.629 28.2008 128.789 28.1375C128.949 28.0742 129.125 28.0576 129.295 28.0899C129.465 28.1222 129.621 28.2019 129.744 28.3189C129.866 28.4359 129.949 28.585 129.983 28.7473C130.017 28.9096 130 29.0778 129.933 29.2307C129.867 29.3836 129.755 29.5143 129.611 29.6062C129.467 29.6982 129.298 29.7472 129.124 29.7472C129.009 29.7472 128.896 29.7256 128.789 29.6835C128.683 29.6415 128.587 29.5799 128.505 29.5022C128.341 29.3453 128.249 29.1324 128.249 28.9105ZM125.698 10.2056C125.698 9.9958 125.764 9.79081 125.886 9.61651C126.008 9.44221 126.181 9.30644 126.384 9.22635C126.587 9.14626 126.81 9.12545 127.026 9.16657C127.241 9.20768 127.438 9.30887 127.594 9.45733C127.749 9.60579 127.854 9.79486 127.897 10.0006C127.939 10.2064 127.917 10.4196 127.833 10.6133C127.749 10.807 127.606 10.9726 127.424 11.0889C127.241 11.2053 127.026 11.2673 126.807 11.2671C126.661 11.2671 126.517 11.2396 126.382 11.1863C126.248 11.1329 126.125 11.0547 126.022 10.9561C125.919 10.8575 125.838 10.7404 125.782 10.6116C125.726 10.4829 125.698 10.3449 125.698 10.2056Z" fill="url(#paint0_linear_516_8894)"/>
<path opacity="0.4" d="M119.785 29.7466C125.425 29.7466 129.998 25.3769 129.998 19.9867C129.998 14.5965 125.425 10.2268 119.785 10.2268C114.144 10.2268 109.572 14.5965 109.572 19.9867C109.572 25.3769 114.144 29.7466 119.785 29.7466Z" fill="url(#paint1_linear_516_8894)"/>
<path opacity="0.4" d="M27.6013 111.076C42.845 111.076 55.2025 99.2672 55.2025 84.6998C55.2025 70.1324 42.845 58.3232 27.6013 58.3232C12.3575 58.3232 0 70.1324 0 84.6998C0 99.2672 12.3575 111.076 27.6013 111.076Z" fill="url(#paint2_linear_516_8894)"/>
<path opacity="0.4" d="M19.9739 114.74C19.9739 114.294 20.1125 113.857 20.3723 113.485C20.6321 113.114 21.0014 112.824 21.4334 112.653C21.8654 112.482 22.3408 112.437 22.7994 112.524C23.258 112.612 23.6793 112.827 24.01 113.143C24.3406 113.459 24.5658 113.861 24.657 114.3C24.7483 114.738 24.7014 115.192 24.5225 115.605C24.3435 116.018 24.0405 116.371 23.6517 116.619C23.2629 116.867 22.8058 117 22.3382 117C21.7111 117 21.1097 116.762 20.6664 116.338C20.223 115.914 19.9739 115.34 19.9739 114.74ZM28.2432 114.849C28.2432 114.544 28.3379 114.245 28.5154 113.991C28.6929 113.738 28.9451 113.54 29.2402 113.423C29.5354 113.306 29.8601 113.276 30.1733 113.336C30.4866 113.395 30.7743 113.542 31.0001 113.758C31.2259 113.974 31.3796 114.249 31.4417 114.548C31.5039 114.848 31.4718 115.158 31.3494 115.44C31.2271 115.722 31.0199 115.963 30.7543 116.132C30.4886 116.302 30.1763 116.392 29.8569 116.392C29.4288 116.392 29.0184 116.229 28.7158 115.94C28.4132 115.65 28.2432 115.258 28.2432 114.849ZM6.56885 58.9598C6.56885 58.3929 6.74476 57.8387 7.07433 57.3674C7.40391 56.896 7.87234 56.5286 8.42041 56.3117C8.96847 56.0947 9.57154 56.038 10.1534 56.1486C10.7352 56.2592 11.2696 56.5322 11.6891 56.933C12.1086 57.3339 12.3942 57.8446 12.5099 58.4006C12.6257 58.9566 12.5663 59.5329 12.3393 60.0567C12.1123 60.5804 11.7278 61.0281 11.2346 61.343C10.7413 61.658 10.1614 61.8261 9.56821 61.8261C8.77273 61.8261 8.00983 61.5241 7.44734 60.9866C6.88485 60.449 6.56885 59.72 6.56885 58.9598Z" fill="url(#paint3_linear_516_8894)"/>
<path d="M41.7007 4.974L41.7007 106.863C41.7007 109.61 44.0312 111.837 46.9061 111.837H110.333C113.208 111.837 115.539 109.61 115.539 106.863V4.974C115.539 2.22668 113.208 -0.000465393 110.333 -0.000465393H46.9061C44.0312 -0.000465393 41.7007 2.22668 41.7007 4.974Z" fill="#F6F2ED"/>
<path d="M101.004 44.5866C101.004 49.2364 100.748 53.905 101.057 58.5321C101.503 62.9489 101.001 67.4109 99.5855 71.615C98.1699 75.8192 95.8736 79.6672 92.8523 82.8978C91.9207 83.9012 91.1882 85.0977 90.2979 86.1466C88.7014 88.0398 88.1717 91.4476 85.7075 91.8262C81.4972 92.2484 77.2603 92.3319 73.0368 92.0761C71.7634 92.0761 71.0684 90.9819 70.5463 90.0163C68.2404 86.1303 65.5372 82.4983 62.4811 79.1795C58.6119 74.4921 56.5652 68.5467 56.7224 62.4511C56.6097 50.0088 56.7449 37.5666 56.6435 25.1243C56.6172 21.9361 57.8042 20.4821 60.9935 20.4935C72.839 20.5364 84.6857 20.5364 96.5337 20.4935C99.6478 20.4935 101.094 21.7317 101.042 24.9918C100.929 31.5234 101.008 38.0625 101.008 44.5979M78.7617 30.2435C74.5282 30.2435 70.2908 30.3231 66.061 30.2095C63.8071 30.1489 62.9356 31.0766 62.9506 33.3068C63.0032 41.9677 63.0032 50.6273 62.9506 59.2856C62.9506 61.3833 63.8447 62.239 65.8469 62.2352C74.4393 62.2175 83.0329 62.2175 91.6277 62.2352C93.799 62.2352 94.7606 61.4022 94.7419 59.1038C94.6667 50.5692 94.6667 42.0345 94.7419 33.4999C94.7644 31.0993 93.9042 30.1148 91.4512 30.1906C87.2214 30.3231 82.984 30.2284 78.7505 30.2284" fill="#272421"/>
<path d="M42.4805 4.97432L42.4805 106.863C42.4805 109.198 44.4614 111.092 46.9051 111.092H110.332C112.776 111.092 114.757 109.198 114.757 106.863V4.97432C114.757 2.63909 112.776 0.746025 110.332 0.746025H46.9051C44.4614 0.746025 42.4805 2.63909 42.4805 4.97432Z" stroke="#272421" stroke-width="1.5"/>
<path d="M48.9624 11.1694L48.9624 101.023C48.9624 103.358 50.9434 105.251 53.387 105.251H104.366C106.809 105.251 108.79 103.358 108.79 101.023V11.1694C108.79 8.83421 106.809 6.94115 104.366 6.94115H53.387C50.9434 6.94115 48.9624 8.83421 48.9624 11.1694Z" stroke="#272421" stroke-width="1.5" stroke-dasharray="1.5 2"/>
<defs>
<linearGradient id="paint0_linear_516_8894" x1="125.633" y1="10.1785" x2="133.746" y2="10.8947" gradientUnits="userSpaceOnUse">
<stop stop-color="#A58969"/>
<stop offset="1" stop-color="#C7B664"/>
</linearGradient>
<linearGradient id="paint1_linear_516_8894" x1="109.26" y1="11.1486" x2="141.071" y2="26.0839" gradientUnits="userSpaceOnUse">
<stop stop-color="#A58969"/>
<stop offset="1" stop-color="#C7B664"/>
</linearGradient>
<linearGradient id="paint2_linear_516_8894" x1="-0.842787" y1="60.8144" x2="85.127" y2="101.178" gradientUnits="userSpaceOnUse">
<stop stop-color="#A58969"/>
<stop offset="1" stop-color="#C7B664"/>
</linearGradient>
<linearGradient id="paint3_linear_516_8894" x1="6.18864" y1="58.9696" x2="51.9809" y2="67.3706" gradientUnits="userSpaceOnUse">
<stop stop-color="#A58969"/>
<stop offset="1" stop-color="#C7B664"/>
</linearGradient>
</defs>
</svg>
