<svg width="12" height="19" viewBox="0 0 12 19" fill="none" xmlns="http://www.w3.org/2000/svg">
<path d="M11.8091 6.36302C11.8091 7.59102 11.7411 8.82402 11.8231 10.046C11.9419 11.2125 11.8084 12.3909 11.4315 13.5012C11.0547 14.6116 10.4434 15.6278 9.63911 16.481C9.39111 16.746 9.19611 17.062 8.95911 17.339C8.53411 17.839 8.39311 18.739 7.73711 18.839C6.61631 18.9505 5.48842 18.9726 4.36411 18.905C4.02511 18.905 3.84011 18.616 3.70111 18.361C3.08727 17.3347 2.36768 16.3755 1.55411 15.499C0.524117 14.2611 -0.0207184 12.6909 0.0211134 11.081C-0.00888658 7.79503 0.0271135 4.50902 0.000113511 1.22302C-0.00688649 0.381025 0.309114 -0.00298256 1.15811 1.74374e-05C4.31145 0.0113508 7.46511 0.0113508 10.6191 1.74374e-05C11.4481 1.74374e-05 11.8331 0.327021 11.8191 1.18802C11.7891 2.91302 11.8101 4.64002 11.8101 6.36601M5.88811 2.57501C4.76111 2.57501 3.63311 2.59603 2.50711 2.56603C1.90711 2.55003 1.67511 2.79502 1.67911 3.38402C1.69311 5.67135 1.69311 7.95836 1.67911 10.245C1.67911 10.799 1.91711 11.025 2.45011 11.024C4.73745 11.0194 7.02511 11.0194 9.31311 11.024C9.89111 11.024 10.1471 10.804 10.1421 10.197C10.1221 7.94302 10.1221 5.68901 10.1421 3.43501C10.1481 2.80101 9.91911 2.54102 9.26611 2.56102C8.14011 2.59602 7.01211 2.57102 5.88511 2.57102" fill="url(#paint0_linear_182_8073)"/>
<defs>
<linearGradient id="paint0_linear_182_8073" x1="-0.181148" y1="0.894541" x2="20.7197" y2="6.76832" gradientUnits="userSpaceOnUse">
<stop stop-color="#846E55"/>
<stop offset="1" stop-color="#B3A55C"/>
</linearGradient>
</defs>
</svg>
