<svg width="130" height="132" viewBox="0 0 130 132" fill="none" xmlns="http://www.w3.org/2000/svg">
<path opacity="0.4" d="M126.41 45.9943C126.263 45.9592 126.135 45.8718 126.053 45.7498C125.971 45.6278 125.94 45.4804 125.968 45.3377C125.995 45.195 126.079 45.0677 126.201 44.9818C126.324 44.8959 126.476 44.8578 126.626 44.8753C126.777 44.8927 126.915 44.9645 127.013 45.0759C127.11 45.1873 127.159 45.33 127.15 45.4749C127.141 45.6197 127.075 45.7559 126.964 45.8555C126.854 45.9552 126.708 46.0109 126.556 46.0112C126.507 46.0113 126.458 46.0057 126.41 45.9943ZM128.25 43.911C128.25 43.7455 128.301 43.5838 128.397 43.4462C128.494 43.3086 128.63 43.2013 128.79 43.138C128.95 43.0747 129.126 43.0581 129.296 43.0904C129.466 43.1227 129.622 43.2024 129.745 43.3194C129.867 43.4364 129.95 43.5855 129.984 43.7478C130.018 43.9101 130.001 44.0783 129.934 44.2312C129.868 44.3841 129.756 44.5148 129.612 44.6067C129.468 44.6987 129.299 44.7477 129.125 44.7477C129.01 44.7477 128.897 44.7261 128.79 44.684C128.684 44.642 128.588 44.5804 128.506 44.5027C128.342 44.3457 128.25 44.1329 128.25 43.911ZM125.699 25.206C125.699 24.9963 125.765 24.7913 125.887 24.617C126.009 24.4427 126.182 24.3069 126.385 24.2268C126.588 24.1467 126.811 24.1259 127.027 24.1671C127.242 24.2082 127.439 24.3094 127.594 24.4578C127.75 24.6063 127.855 24.7953 127.898 25.0011C127.94 25.2069 127.918 25.4201 127.834 25.6138C127.75 25.8075 127.607 25.973 127.425 26.0894C127.242 26.2058 127.027 26.2678 126.808 26.2676C126.662 26.2676 126.518 26.2401 126.383 26.1868C126.249 26.1334 126.126 26.0552 126.023 25.9566C125.92 25.858 125.839 25.7409 125.783 25.6121C125.727 25.4834 125.699 25.3454 125.699 25.206Z" fill="url(#paint0_linear_1709_14083)"/>
<path opacity="0.4" d="M119.785 44.7473C125.426 44.7473 129.998 40.3777 129.998 34.9874C129.998 29.5972 125.426 25.2275 119.785 25.2275C114.145 25.2275 109.572 29.5972 109.572 34.9874C109.572 40.3777 114.145 44.7473 119.785 44.7473Z" fill="url(#paint1_linear_1709_14083)"/>
<path opacity="0.4" d="M27.6013 126.076C42.845 126.076 55.2025 114.267 55.2025 99.6998C55.2025 85.1324 42.845 73.3232 27.6013 73.3232C12.3575 73.3232 0 85.1324 0 99.6998C0 114.267 12.3575 126.076 27.6013 126.076Z" fill="url(#paint2_linear_1709_14083)"/>
<path opacity="0.4" d="M19.9734 129.741C19.9734 129.294 20.112 128.857 20.3718 128.485C20.6316 128.114 21.0009 127.824 21.4329 127.653C21.8649 127.482 22.3403 127.438 22.7989 127.525C23.2576 127.612 23.6788 127.827 24.0095 128.143C24.3401 128.459 24.5653 128.862 24.6566 129.3C24.7478 129.738 24.701 130.192 24.522 130.605C24.3431 131.018 24.04 131.371 23.6512 131.619C23.2624 131.868 22.8053 132 22.3377 132C21.7106 132 21.1093 131.762 20.6659 131.338C20.2225 130.915 19.9734 130.34 19.9734 129.741ZM28.2427 129.849C28.2427 129.544 28.3374 129.246 28.5149 128.992C28.6924 128.738 28.9446 128.54 29.2397 128.423C29.5349 128.307 29.8596 128.276 30.1728 128.336C30.4861 128.395 30.7738 128.542 30.9996 128.758C31.2254 128.974 31.3791 129.249 31.4413 129.549C31.5034 129.848 31.4713 130.158 31.3489 130.44C31.2266 130.722 31.0194 130.963 30.7538 131.133C30.4881 131.302 30.1758 131.392 29.8564 131.392C29.4283 131.392 29.0179 131.229 28.7153 130.94C28.4127 130.651 28.2427 130.258 28.2427 129.849ZM6.56836 73.96C6.56836 73.3931 6.74427 72.839 7.07384 72.3676C7.40342 71.8963 7.87186 71.5289 8.41992 71.3119C8.96798 71.095 9.57105 71.0382 10.1529 71.1488C10.7347 71.2594 11.2691 71.5324 11.6886 71.9333C12.1081 72.3341 12.3937 72.8448 12.5095 73.4009C12.6252 73.9569 12.5658 74.5332 12.3388 75.0569C12.1118 75.5807 11.7273 76.0283 11.2341 76.3433C10.7408 76.6582 10.1609 76.8263 9.56773 76.8263C8.77224 76.8263 8.00934 76.5243 7.44685 75.9868C6.88436 75.4493 6.56836 74.7202 6.56836 73.96Z" fill="url(#paint3_linear_1709_14083)"/>
<path d="M41.7012 19.9745L41.7012 121.863C41.7012 124.611 44.0317 126.838 46.9066 126.838H110.334C113.209 126.838 115.539 124.611 115.539 121.863V19.9745C115.539 17.2272 113.209 15 110.334 15H46.9066C44.0317 15 41.7012 17.2272 41.7012 19.9745Z" fill="#F6F2ED"/>
<path d="M101.004 59.5874C101.004 64.2371 100.749 68.9058 101.057 73.5328C101.503 77.9497 101.002 82.4116 99.586 86.6158C98.1704 90.8199 95.8741 94.6679 92.8528 97.8985C91.9212 98.902 91.1887 100.098 90.2984 101.147C88.7019 103.041 88.1722 106.448 85.708 106.827C81.4977 107.249 77.2608 107.333 73.0373 107.077C71.7639 107.077 71.0689 105.983 70.5468 105.017C68.2409 101.131 65.5377 97.499 62.4816 94.1803C58.6124 89.4928 56.5657 83.5475 56.7229 77.4518C56.6102 65.0095 56.7454 52.5673 56.644 40.1251C56.6177 36.9369 57.8047 35.4828 60.994 35.4942C72.8395 35.5371 84.6862 35.5371 96.5342 35.4942C99.6483 35.4942 101.095 36.7324 101.042 39.9925C100.929 46.5241 101.008 53.0633 101.008 59.5987M78.7622 45.2443C74.5287 45.2443 70.2913 45.3238 66.0615 45.2102C63.8076 45.1497 62.9361 46.0773 62.9511 48.3075C63.0037 56.9684 63.0037 65.628 62.9511 74.2863C62.9511 76.384 63.8452 77.2397 65.8474 77.2359C74.4397 77.2183 83.0334 77.2183 91.6282 77.2359C93.7995 77.2359 94.7611 76.4029 94.7423 74.1046C94.6672 65.5699 94.6672 57.0353 94.7423 48.5006C94.7649 46.1 93.9046 45.1156 91.4517 45.1913C87.2218 45.3238 82.9845 45.2291 78.751 45.2291" fill="#272421"/>
<path d="M42.4805 19.9746L42.4805 121.864C42.4805 124.199 44.4614 126.092 46.9051 126.092H110.332C112.776 126.092 114.757 124.199 114.757 121.864V19.9746C114.757 17.6393 112.776 15.7463 110.332 15.7463H46.9051C44.4614 15.7463 42.4805 17.6393 42.4805 19.9746Z" stroke="#272421" stroke-width="1.5"/>
<path d="M48.9629 26.169L48.9629 116.023C48.9629 118.358 50.9439 120.251 53.3875 120.251H104.366C106.81 120.251 108.791 118.358 108.791 116.023V26.169C108.791 23.8337 106.81 21.9407 104.366 21.9407H53.3875C50.9439 21.9407 48.9629 23.8337 48.9629 26.169Z" stroke="#272421" stroke-width="1.5" stroke-dasharray="1.5 2"/>
<rect x="25.75" y="0.75" width="32.1559" height="32.1558" rx="16.0779" fill="url(#paint4_linear_1709_14083)"/>
<rect x="25.75" y="0.75" width="32.1559" height="32.1558" rx="16.0779" stroke="#F9F4F0" stroke-width="1.5"/>
<path d="M46.9613 12L39.3384 19.323L35.8377 15.7232L34 17.4202L38.3873 21.9331C38.503 22.0522 38.642 22.1476 38.7961 22.2137C38.9501 22.2798 39.1161 22.3154 39.2844 22.3182H39.3055C39.6379 22.318 39.9568 22.1903 40.1933 21.9628L48.7403 13.7565L46.9613 12Z" fill="#F6F2ED"/>
<defs>
<linearGradient id="paint0_linear_1709_14083" x1="125.634" y1="25.179" x2="133.746" y2="25.8952" gradientUnits="userSpaceOnUse">
<stop stop-color="#846E55"/>
<stop offset="1" stop-color="#B3A55C"/>
</linearGradient>
<linearGradient id="paint1_linear_1709_14083" x1="109.26" y1="26.1493" x2="141.071" y2="41.0846" gradientUnits="userSpaceOnUse">
<stop stop-color="#846E55"/>
<stop offset="1" stop-color="#B3A55C"/>
</linearGradient>
<linearGradient id="paint2_linear_1709_14083" x1="-0.842787" y1="75.8144" x2="85.127" y2="116.178" gradientUnits="userSpaceOnUse">
<stop stop-color="#846E55"/>
<stop offset="1" stop-color="#B3A55C"/>
</linearGradient>
<linearGradient id="paint3_linear_1709_14083" x1="6.18815" y1="73.9699" x2="51.9804" y2="82.3708" gradientUnits="userSpaceOnUse">
<stop stop-color="#846E55"/>
<stop offset="1" stop-color="#B3A55C"/>
</linearGradient>
<linearGradient id="paint4_linear_1709_14083" x1="24.4862" y1="1.5893" x2="77.7348" y2="25.4807" gradientUnits="userSpaceOnUse">
<stop stop-color="#846E55"/>
<stop offset="1" stop-color="#B3A55C"/>
</linearGradient>
</defs>
</svg>
