<svg width="304" height="220" viewBox="0 0 304 220" fill="none" xmlns="http://www.w3.org/2000/svg">
<path d="M144.21 220C204.962 220 254.21 170.751 254.21 110C254.21 49.2487 204.962 0 144.21 0C83.4591 0 34.2104 49.2487 34.2104 110C34.2104 170.751 83.4591 220 144.21 220Z" fill="#C3B075" fill-opacity="0.1"/>
<path opacity="0.2" d="M283.975 115.173C285.248 115.173 286.493 114.795 287.552 114.088C288.612 113.38 289.437 112.374 289.924 111.197C290.412 110.021 290.539 108.726 290.291 107.477C290.042 106.227 289.429 105.08 288.528 104.179C287.628 103.279 286.48 102.665 285.231 102.417C283.982 102.168 282.687 102.296 281.51 102.783C280.333 103.271 279.328 104.096 278.62 105.155C277.912 106.214 277.535 107.459 277.535 108.733C277.535 110.441 278.213 112.079 279.421 113.287C280.629 114.494 282.267 115.173 283.975 115.173Z" fill="url(#paint0_linear_861_35756)"/>
<path d="M64.4409 190.531H62.4521V194.391H64.4409V190.531Z" fill="#272421"/>
<path d="M64.4409 201.162H62.4521V205.022H64.4409V201.162Z" fill="#272421"/>
<path d="M70.6948 196.781H66.8352V198.77H70.6948V196.781Z" fill="#272421"/>
<path d="M60.0601 196.781H56.2004V198.77H60.0601V196.781Z" fill="#272421"/>
<path d="M3.94257 54.975C6.11999 54.975 7.88513 53.2098 7.88513 51.0324C7.88513 48.855 6.11999 47.0898 3.94257 47.0898C1.76515 47.0898 0 48.855 0 51.0324C0 53.2098 1.76515 54.975 3.94257 54.975Z" fill="#272421"/>
<path d="M17.9608 113.108C19.6879 113.108 21.088 111.708 21.088 109.981C21.088 108.254 19.6879 106.854 17.9608 106.854C16.2337 106.854 14.8336 108.254 14.8336 109.981C14.8336 111.708 16.2337 113.108 17.9608 113.108Z" fill="#272421"/>
<path d="M299.979 124.949C301.908 124.949 303.473 123.385 303.473 121.455C303.473 119.525 301.908 117.961 299.979 117.961C298.049 117.961 296.485 119.525 296.485 121.455C296.485 123.385 298.049 124.949 299.979 124.949Z" fill="#272421"/>
<path d="M246.088 24.5396C247.815 24.5396 249.216 23.1395 249.216 21.4124C249.216 19.6853 247.815 18.2852 246.088 18.2852C244.361 18.2852 242.961 19.6853 242.961 21.4124C242.961 23.1395 244.361 24.5396 246.088 24.5396Z" fill="#272421"/>
<path d="M94.0628 76.0242C92.2602 76.0083 90.464 76.2415 88.7253 76.7173C88.3716 76.8101 88.0333 76.9181 87.696 77.0371C87.6709 77.0469 87.6436 77.0568 87.6174 77.0688C87.3205 77.1681 87.04 77.2762 86.7802 77.3962C85.4999 77.9276 84.3009 78.6368 83.2186 79.5029C83.0297 79.648 82.8496 79.7965 82.6728 79.9569C82.5855 80.0301 82.5014 80.1043 82.3999 80.1982C82.1816 80.4012 81.9633 80.6053 81.7887 80.7941C81.6217 80.9611 81.4612 81.1358 81.3073 81.3071C81.2047 81.4163 81.1098 81.5309 81.0213 81.6346C80.9329 81.7383 80.8172 81.8726 80.7234 81.9992C80.5804 82.1694 80.445 82.3485 80.2977 82.5537L80.254 82.617C80.2256 82.6563 80.1983 82.6956 80.1743 82.7327C80.0226 82.9346 79.8807 83.1376 79.7672 83.3243C79.7006 83.4247 79.6406 83.5186 79.5882 83.6114C79.47 83.7813 79.3607 83.9573 79.2607 84.1385C79.1811 84.2644 79.1082 84.3945 79.0424 84.5282C78.9213 84.7465 78.8066 84.9648 78.6986 85.1831C78.668 85.2366 78.6407 85.2923 78.6156 85.3425C78.4945 85.5794 78.381 85.8228 78.2991 86.0149C78.2456 86.124 78.1976 86.2386 78.1496 86.362C78.0335 86.6038 77.9311 86.852 77.8428 87.1053C77.8101 87.176 77.7824 87.249 77.7599 87.3236C77.6627 87.5605 77.5776 87.8039 77.5012 88.0473C77.4684 88.127 77.4412 88.2066 77.415 88.2863C76.2799 91.9034 75.7338 95.6795 75.7973 99.47V107.132H77.9662V99.4635C77.9035 95.9067 78.412 92.363 79.4725 88.9674C79.4856 88.9303 79.4954 88.8921 79.5129 88.8583C79.5297 88.8206 79.5443 88.782 79.5565 88.7426C79.6231 88.5243 79.6962 88.3125 79.7836 88.104C79.7934 88.08 79.8065 88.044 79.8163 88.0113C79.8389 87.9661 79.8582 87.9194 79.8742 87.8715C79.9438 87.664 80.0269 87.4613 80.123 87.2647C80.1361 87.2385 80.1503 87.2024 80.1612 87.1762C80.1863 87.1108 80.2103 87.0453 80.2704 86.9307C80.361 86.7222 80.4581 86.5126 80.5913 86.2539C80.6088 86.2255 80.624 86.1972 80.6382 86.1677C80.7354 85.9658 80.8402 85.7627 80.9515 85.5684C80.9657 85.5433 80.9788 85.5182 80.9908 85.492C81.0271 85.4166 81.0683 85.3437 81.1141 85.2737C81.1283 85.2519 81.1414 85.229 81.1545 85.2071C81.2258 85.0719 81.3057 84.9414 81.3936 84.8164C81.4198 84.7796 81.4438 84.7413 81.4656 84.7018C81.4962 84.645 81.5343 84.5926 81.5987 84.4911C81.7079 84.3187 81.8171 84.1636 81.936 84.0021C81.9546 83.9781 82.0092 83.9006 82.0244 83.8744L82.0899 83.7794C82.1882 83.6419 82.293 83.5033 82.4043 83.3723C82.4207 83.3537 82.437 83.333 82.4523 83.3123C82.5211 83.2184 82.5964 83.1333 82.6783 83.0372C82.7601 82.9412 82.83 82.8582 82.9151 82.7643C83.0505 82.6148 83.1858 82.4663 83.3583 82.2917C83.5307 82.1171 83.6999 81.95 83.8757 81.7885C83.9455 81.7252 84.0099 81.6674 84.0798 81.6095C84.1016 81.592 84.1224 81.5735 84.1431 81.5538C84.2769 81.4294 84.4172 81.312 84.5633 81.2024C85.4978 80.454 86.5338 79.8421 87.6403 79.385C87.8706 79.2824 88.102 79.1951 88.352 79.1121C88.376 79.1034 88.4142 79.0892 88.4524 79.0728C88.722 78.9789 88.9982 78.8916 89.2983 78.8108C90.8512 78.3867 92.4553 78.1795 94.065 78.1952H95.5647V76.0264H94.0639L94.0628 76.0242Z" fill="#272421"/>
<path d="M113.084 76.0234H111.577V78.1923H113.084C119.088 78.1923 129.171 80.9549 129.171 99.4594V106.951H131.34V99.4594C131.345 84.5711 124.691 76.0234 113.084 76.0234Z" fill="#272421"/>
<path d="M102.742 86.7173L100.629 86.2305L96.9329 102.257C96.8687 102.536 96.9174 102.829 97.0683 103.073L99.8899 107.619L101.732 106.475L99.1465 102.309L102.742 86.7173Z" fill="#272421"/>
<path d="M110.369 102.663L105.737 84.0974C105.679 83.8627 105.543 83.6543 105.353 83.5054C105.162 83.3565 104.927 83.2756 104.685 83.2755H102.043L95.1475 81.0433V78.1923H104.122V76.0234H94.0636C93.9211 76.0233 93.7799 76.0513 93.6482 76.1057C93.5165 76.1602 93.3969 76.2401 93.2961 76.3409C93.1953 76.4417 93.1154 76.5613 93.0609 76.693C93.0065 76.8247 92.9785 76.9659 92.9786 77.1084V81.8325C92.9786 82.0618 93.0513 82.2851 93.1863 82.4705C93.3212 82.6558 93.5114 82.7936 93.7296 82.864L101.538 85.392C101.646 85.4274 101.759 85.4455 101.872 85.4454H103.837L108.146 102.72L105.662 106.431L107.464 107.638L110.218 103.526C110.302 103.401 110.358 103.259 110.384 103.111C110.41 102.962 110.405 102.81 110.369 102.663Z" fill="#272421"/>
<path d="M110.401 72.8828H108.232V77.1146H110.401V72.8828Z" fill="#272421"/>
<path d="M98.0584 72.7832H95.8895V77.1176H98.0584V72.7832Z" fill="#272421"/>
<path d="M114.935 56.0116C112.315 55.0947 108.027 52.8615 107.681 50.7723C107.65 50.5846 107.57 50.4083 107.45 50.2611C107.33 50.1139 107.173 50.0009 106.995 49.9335C106.817 49.8662 106.625 49.8468 106.437 49.8774C106.249 49.9079 106.073 49.9873 105.925 50.1076C101.787 53.0241 96.8787 54.6528 91.8176 54.7891C91.538 54.8009 91.2738 54.9203 91.0802 55.1223C90.8866 55.3242 90.7785 55.5932 90.7784 55.873V64.6051C90.7825 67.0605 91.7597 69.4141 93.4959 71.1503C95.2321 72.8865 97.5857 73.8637 100.041 73.8678H106.398C108.853 73.8637 111.207 72.8865 112.943 71.1503C114.679 69.4141 115.657 67.0605 115.661 64.6051V57.0398C115.662 56.8142 115.592 56.5939 115.462 56.4096C115.332 56.2252 115.148 56.0861 114.935 56.0116ZM113.493 64.6008C113.491 66.4818 112.743 68.2852 111.413 69.6154C110.083 70.9455 108.279 71.6936 106.398 71.6956H100.041C98.1599 71.6939 96.3563 70.9458 95.0261 69.6157C93.696 68.2855 92.9479 66.4819 92.9462 64.6008V56.8914C97.6156 56.5678 102.134 55.1031 106.106 52.6257C107.661 55.2617 111.751 57.1009 113.491 57.7864V64.6008H113.493Z" fill="#272421"/>
<path d="M105.466 56.1934C102.412 57.7666 99.1237 58.838 95.7286 59.3664V64.6057C95.7298 65.7491 96.1845 66.8454 96.993 67.6539C97.8016 68.4624 98.8978 68.9171 100.041 68.9183H106.398C107.542 68.9171 108.638 68.4624 109.446 67.6539C110.255 66.8454 110.71 65.7491 110.711 64.6057V59.6284C108.793 58.7653 107.024 57.6061 105.466 56.1934Z" fill="#272421"/>
<path d="M109.994 43.5791C109.727 42.9102 109.306 42.3132 108.767 41.8361C108.227 41.359 107.583 41.015 106.886 40.8317C103.3 40.0988 99.5843 40.3155 96.1075 41.4605C89.3903 43.6948 89.4492 49.148 89.4994 54.4223C89.4994 54.9123 89.5093 55.4046 89.5093 55.9045C89.5091 56.047 89.5371 56.1882 89.5916 56.3199C89.646 56.4516 89.726 56.5713 89.8267 56.672C89.9275 56.7728 90.0472 56.8527 90.1789 56.9072C90.3106 56.9617 90.4517 56.9896 90.5942 56.9895C96.575 57.0961 102.431 55.2731 107.294 51.7906C107.392 51.7107 107.475 51.6143 107.54 51.5057L109.659 47.9539C110.048 47.2998 110.281 46.5647 110.339 45.8058C110.397 45.0469 110.279 44.2848 109.994 43.5791ZM107.797 46.8417L105.784 50.2144C101.618 53.0662 96.7183 54.6578 91.6716 54.7988C91.6716 54.6657 91.6716 54.5321 91.6716 54.3982C91.6192 49.2888 91.5777 45.2524 96.7952 43.5169C98.7915 42.8776 100.875 42.5514 102.971 42.5498C104.104 42.5341 105.235 42.6613 106.336 42.9286C106.708 43.0249 107.053 43.2083 107.34 43.4638C107.628 43.7192 107.85 44.0393 107.99 44.3977C108.148 44.7923 108.213 45.2183 108.18 45.6422C108.147 46.0662 108.016 46.4767 107.798 46.8417H107.797Z" fill="#272421"/>
<path d="M115.786 43.7898C115.227 43.379 114.585 43.0952 113.905 42.9586C113.224 42.8219 112.523 42.8355 111.848 42.9985C109.634 43.4165 108.215 46.0089 107.991 46.4444L105.675 50.3979C105.549 50.614 105.501 50.8668 105.539 51.1139C106.214 55.3982 114.708 58.2437 115.673 58.5537C115.779 58.5881 115.889 58.6058 116.001 58.6061C116.143 58.6061 116.284 58.5781 116.416 58.5235C116.547 58.469 116.667 58.389 116.767 58.2883C116.868 58.1875 116.948 58.0679 117.002 57.9363C117.057 57.8046 117.085 57.6636 117.084 57.5212V46.8701C117.117 46.2916 117.017 45.7133 116.792 45.1794C116.567 44.6455 116.223 44.1702 115.786 43.7898ZM114.92 55.9865C112.017 54.8633 108.43 52.9488 107.769 51.1139L109.878 47.5119C109.889 47.4934 109.901 47.4726 109.91 47.4541C110.185 46.9083 111.204 45.3267 112.251 45.128C112.613 45.03 112.991 45.0084 113.361 45.0648C113.731 45.1212 114.086 45.2543 114.401 45.4555C114.589 45.6361 114.733 45.857 114.823 46.1015C114.913 46.346 114.946 46.6077 114.92 46.8668V55.9821V55.9865Z" fill="#272421"/>
<path d="M193.442 76.0234H191.935V78.1923H193.442C199.445 78.1923 209.529 80.9549 209.529 99.4594V106.68H211.698V99.4594C211.698 84.5711 205.044 76.0234 193.442 76.0234Z" fill="#272421"/>
<path d="M174.407 76.0256C170.463 75.9396 166.607 77.2035 163.48 79.608C158.617 83.4752 156.15 90.1553 156.15 99.4616V106.861H158.317V99.4616C158.317 90.8495 160.506 84.7403 164.827 81.3053C167.564 79.1935 170.948 78.0943 174.403 78.1944H175.912V76.0256H174.407Z" fill="#272421"/>
<path d="M190.721 102.666L186.082 84.1007C186.024 83.866 185.888 83.6576 185.698 83.5087C185.507 83.3598 185.272 83.2789 185.03 83.2788H182.394L175.491 81.0455V78.1955H184.473V76.0234H174.407C174.12 76.0237 173.844 76.1382 173.641 76.3416C173.438 76.545 173.323 76.8208 173.323 77.1084V81.8325C173.323 82.0617 173.396 82.2851 173.531 82.4704C173.666 82.6558 173.856 82.7936 174.074 82.864L181.892 85.3919C182 85.4273 182.112 85.4454 182.226 85.4454H184.191L188.507 102.719L186.201 106.154L188.001 107.362L190.57 103.53C190.654 103.404 190.71 103.263 190.737 103.114C190.763 102.965 190.757 102.813 190.721 102.666Z" fill="#272421"/>
<path d="M183.096 86.7195L180.983 86.2305L177.279 102.257C177.215 102.537 177.263 102.83 177.415 103.074L180.075 107.357L181.917 106.213L179.493 102.31L183.096 86.7195Z" fill="#272421"/>
<path d="M190.749 72.8848H188.58V77.1155H190.749V72.8848Z" fill="#272421"/>
<path d="M178.407 72.7832H176.239V77.1176H178.407V72.7832Z" fill="#272421"/>
<path d="M195.283 56.0108C192.663 55.0939 188.375 52.8607 188.029 50.7715C187.998 50.584 187.918 50.4079 187.798 50.2609C187.678 50.1138 187.521 50.0009 187.343 49.9336C187.166 49.8663 186.973 49.8468 186.786 49.8772C186.598 49.9076 186.422 49.9868 186.275 50.1068C182.136 53.0232 177.227 54.6519 172.166 54.7883C171.886 54.8001 171.622 54.9195 171.428 55.1215C171.235 55.3234 171.127 55.5924 171.127 55.8722V64.6043C171.131 67.0597 172.108 69.4133 173.844 71.1495C175.58 72.8858 177.934 73.8629 180.389 73.867H186.746C189.201 73.8629 191.555 72.8859 193.291 71.1499C195.027 69.414 196.005 67.0606 196.009 64.6054V57.039C196.01 56.8134 195.94 56.5932 195.81 56.4089C195.68 56.2246 195.496 56.0855 195.283 56.0108ZM193.841 64.6011C193.839 66.4822 193.091 68.2858 191.761 69.616C190.431 70.9462 188.627 71.6942 186.746 71.6959H180.389C178.508 71.6939 176.705 70.9458 175.375 69.6157C174.045 68.2856 173.296 66.4821 173.294 64.6011V56.8917C177.964 56.5681 182.482 55.1034 186.454 52.626C188.01 55.262 192.099 57.1012 193.839 57.7867V64.6022L193.841 64.6011Z" fill="#272421"/>
<path d="M185.815 56.1934C182.761 57.7666 179.473 58.838 176.078 59.3664V64.6057C176.079 65.7491 176.534 66.8454 177.342 67.6539C178.151 68.4624 179.247 68.9171 180.39 68.9183H186.747C187.891 68.9171 188.987 68.4624 189.796 67.6539C190.604 66.8454 191.059 65.7491 191.06 64.6057V59.6284C189.143 58.7653 187.373 57.6062 185.815 56.1934Z" fill="#272421"/>
<path d="M190.347 43.5771C190.079 42.9083 189.659 42.3116 189.119 41.8346C188.58 41.3577 187.936 41.0139 187.239 40.8308C183.653 40.0967 179.937 40.313 176.46 41.4585C169.742 43.6928 169.802 49.1471 169.853 54.4213C169.853 54.9114 169.863 55.4037 169.863 55.9036C169.863 56.1914 169.977 56.4673 170.181 56.6708C170.384 56.8743 170.66 56.9886 170.948 56.9886C176.929 57.0951 182.785 55.2721 187.648 51.7897C187.747 51.7097 187.83 51.6133 187.895 51.5048L190.015 47.953C190.403 47.2984 190.635 46.5629 190.693 45.8039C190.751 45.0448 190.632 44.2828 190.347 43.5771ZM188.149 46.8407L186.137 50.2135C181.97 53.0652 177.071 54.6567 172.024 54.7979C172.024 54.6647 172.024 54.5316 172.024 54.3984C171.971 49.2879 171.931 45.2515 177.148 43.5149C179.144 42.876 181.226 42.5501 183.322 42.5489C184.456 42.5332 185.587 42.6604 186.689 42.9276C187.061 43.0238 187.405 43.2071 187.692 43.4624C187.98 43.7176 188.202 44.0375 188.342 44.3957C188.5 44.7905 188.565 45.2167 188.532 45.6409C188.498 46.0651 188.367 46.4757 188.148 46.8407H188.149Z" fill="#272421"/>
<path d="M109.979 154.422C110.649 154.86 111.363 155.226 112.109 155.513L112.888 153.49C112.284 153.257 111.707 152.961 111.165 152.608L109.979 154.422ZM114.758 153.985L114.42 156.127C115.007 156.219 115.6 156.265 116.194 156.265H116.751V154.096H116.194C115.714 154.098 115.233 154.061 114.758 153.987V153.985ZM118.688 153.901L119.131 156.025C119.914 155.861 120.677 155.615 121.409 155.291L120.529 153.308C119.936 153.572 119.317 153.772 118.682 153.904L118.688 153.901ZM106.632 151.045C107.065 151.716 107.567 152.341 108.13 152.908L109.668 151.38C109.212 150.921 108.805 150.415 108.455 149.871L106.632 151.045ZM105.062 137.537L103.174 138.606C103.502 139.185 103.785 139.79 104.019 140.414L106.05 139.65C105.775 138.922 105.442 138.216 105.057 137.539L105.062 137.537ZM106.699 141.903L104.573 142.34C104.706 142.993 104.787 143.656 104.816 144.322L106.983 144.226C106.945 143.446 106.847 142.669 106.688 141.904L106.699 141.903ZM107.101 146.269L104.956 146.597C105.075 147.387 105.277 148.164 105.56 148.912L107.589 148.148C107.356 147.542 107.188 146.913 107.089 146.271L107.101 146.269ZM124.784 149.473L126.663 150.555C127.062 149.861 127.387 149.127 127.631 148.365L125.566 147.702C125.366 148.32 125.101 148.914 124.775 149.476L124.784 149.473ZM131.245 133.522L132.655 135.172C133.162 134.739 133.702 134.346 134.27 133.996L133.134 132.149C132.467 132.556 131.832 133.015 131.237 133.52L131.245 133.522ZM122.209 152.34L123.486 154.092C124.132 153.622 124.726 153.085 125.261 152.491L123.647 151.04C123.211 151.524 122.726 151.961 122.199 152.344L122.209 152.34ZM135.215 131.083L136.047 133.087C136.663 132.831 137.298 132.624 137.946 132.468L137.439 130.359C136.677 130.542 135.93 130.786 135.207 131.086L135.215 131.083ZM128.219 137.055L130.064 138.194C130.415 137.627 130.809 137.088 131.242 136.581L129.596 135.17C129.085 135.762 128.621 136.394 128.209 137.059L128.219 137.055ZM126.424 141.353L128.532 141.864C128.689 141.217 128.897 140.583 129.154 139.969L127.152 139.133C126.848 139.853 126.602 140.597 126.415 141.356L126.424 141.353ZM102.168 133.889L100.691 135.485C101.181 135.937 101.636 136.427 102.052 136.949L103.75 135.599C103.265 134.99 102.733 134.419 102.16 133.892L102.168 133.889ZM126.003 144.888C126.003 145.196 125.988 145.505 125.957 145.805L128.115 146.024C128.152 145.651 128.171 145.27 128.171 144.892C128.171 144.538 128.185 144.187 128.213 143.839L126.052 143.663C126.012 144.069 125.994 144.482 125.994 144.893L126.003 144.888ZM66.0097 154.095C65.443 154.096 64.8774 154.044 64.3201 153.941L63.9238 156.073C64.6118 156.201 65.3101 156.265 66.0097 156.264H66.3055L66.2542 154.095H66.0097ZM68.1709 153.841L68.6796 155.95C69.4569 155.762 70.2124 155.493 70.9336 155.148L69.9949 153.192C69.4087 153.473 68.7944 153.693 68.1622 153.845L68.1709 153.841ZM74.1306 149.233L76.0419 150.258C76.4202 149.553 76.7224 148.81 76.9435 148.041L74.8598 147.44C74.6789 148.064 74.4319 148.667 74.123 149.238L74.1306 149.233ZM139.743 129.991L139.916 132.153C140.256 132.125 140.6 132.111 140.947 132.112H141.997V129.943H140.947C140.535 129.948 140.129 129.964 139.735 129.996L139.743 129.991ZM71.6332 152.176L72.9605 153.892C73.5927 153.403 74.1719 152.849 74.6884 152.239L73.0326 150.838C72.6139 151.332 72.1449 151.78 71.6332 152.176ZM56.8617 146.017L54.7092 146.281C54.8061 147.075 54.9865 147.856 55.2474 148.612L57.2972 147.903C57.0862 147.292 56.9402 146.659 56.8617 146.017ZM59.5217 154.244C60.1791 154.7 60.8826 155.086 61.6207 155.394L62.4557 153.391C61.8586 153.142 61.2896 152.831 60.7584 152.461L59.5217 154.244ZM56.2657 150.778C56.6797 151.462 57.1645 152.101 57.712 152.683L59.2925 151.197C58.8494 150.726 58.4569 150.209 58.1213 149.655L56.2657 150.778ZM93.5455 132.203C94.2073 132.281 94.862 132.411 95.5037 132.591L96.0909 130.503C95.3397 130.293 94.5733 130.142 93.7987 130.05L93.5455 132.203ZM89.2776 129.973L89.4032 132.137C89.6506 132.123 89.9002 132.117 90.1519 132.117H91.5087V129.948H90.1519C89.8594 129.948 89.5687 129.956 89.2798 129.973H89.2776ZM97.3767 133.28C97.9832 133.559 98.5672 133.884 99.1231 134.254L100.324 132.449C99.6753 132.017 98.9939 131.637 98.2859 131.311L97.3767 133.28ZM84.726 130.962L85.5119 132.984C86.1338 132.743 86.7735 132.55 87.4253 132.408L86.9647 130.288C86.2028 130.455 85.455 130.68 84.7282 130.963L84.726 130.962ZM77.5973 136.781L79.4179 137.959C79.7805 137.4 80.1859 136.869 80.6306 136.372L79.0152 134.925C78.4958 135.506 78.0224 136.127 77.5995 136.782L77.5973 136.781ZM80.7016 133.313L82.0747 134.992C82.5899 134.57 83.1374 134.189 83.712 133.852L82.6205 131.98C81.948 132.374 81.3075 132.82 80.7048 133.314L80.7016 133.313ZM75.7079 141.038L77.8036 141.595C77.9752 140.952 78.1971 140.322 78.4672 139.714L76.485 138.834C76.17 139.547 75.9112 140.285 75.7111 141.039L75.7079 141.038ZM75.2069 144.892C75.2069 145.11 75.1992 145.326 75.1839 145.539L77.3484 145.685C77.3666 145.423 77.3757 145.158 77.3757 144.891C77.3756 144.445 77.3986 144.001 77.4445 143.558L75.2865 143.34C75.2339 143.856 75.2077 144.374 75.208 144.893L75.2069 144.892ZM185.687 131.217L186.56 133.202C187.17 132.932 187.799 132.711 188.443 132.541L187.89 130.444C187.136 130.644 186.4 130.902 185.687 131.217ZM208.592 145.726L206.431 145.919C206.503 146.716 206.659 147.503 206.895 148.267L208.969 147.624C208.777 147.006 208.65 146.37 208.592 145.726ZM203.231 133.456L201.833 135.114C202.341 135.544 202.816 136.013 203.252 136.516L204.889 135.097C204.38 134.509 203.827 133.96 203.234 133.456H203.231ZM208.109 141.257L206.006 141.785C206.166 142.431 206.276 143.087 206.333 143.75L208.493 143.559C208.427 142.783 208.3 142.013 208.112 141.257H208.109ZM198.428 133.057C199.045 133.309 199.641 133.608 200.211 133.953L201.334 132.097C200.667 131.693 199.969 131.343 199.247 131.048L198.428 133.057ZM190.192 130.027L190.41 132.185C190.845 132.141 191.283 132.119 191.72 132.119H192.463V129.95H191.72C191.21 129.95 190.7 129.976 190.192 130.027ZM194.558 132.153C195.223 132.201 195.882 132.301 196.531 132.453L197.025 130.341C196.265 130.164 195.493 130.046 194.715 129.989L194.558 132.153ZM206.29 136.972L204.451 138.122C204.805 138.687 205.114 139.279 205.376 139.891L207.371 139.042C207.064 138.325 206.702 137.632 206.287 136.971L206.29 136.972ZM223.441 152.897L224.516 154.781C225.21 154.385 225.861 153.917 226.458 153.385L225.013 151.766C224.529 152.197 224 152.576 223.436 152.896L223.441 152.897ZM226.317 150.331L228.063 151.612C228.535 150.968 228.937 150.275 229.264 149.546L227.286 148.657C227.022 149.247 226.696 149.808 226.315 150.33L226.317 150.331ZM228.094 144.893C228.094 145.541 228.027 146.187 227.893 146.82L230.014 147.27C230.179 146.489 230.263 145.692 230.263 144.893H228.094ZM215.323 156.006C216.104 156.176 216.9 156.264 217.699 156.269L217.712 154.1C217.064 154.095 216.419 154.021 215.786 153.881L215.323 156.006ZM210.992 154.032C211.634 154.509 212.325 154.916 213.053 155.248L213.951 153.273C213.362 153.005 212.804 152.676 212.284 152.291L210.992 154.032ZM207.844 150.466C208.237 151.161 208.701 151.814 209.229 152.413L210.855 150.98C210.427 150.494 210.051 149.964 209.732 149.4L207.844 150.466ZM219.768 154.057L219.975 156.216C220.771 156.14 221.556 155.98 222.318 155.739L221.664 153.665C221.048 153.862 220.412 153.994 219.769 154.058L219.768 154.057ZM152.698 133.671L151.265 135.299C151.766 135.74 152.231 136.219 152.658 136.732L154.326 135.345C153.828 134.746 153.284 134.187 152.699 133.672L152.698 133.671ZM160.482 154.23C161.138 154.688 161.841 155.075 162.579 155.384L163.417 153.385C162.821 153.134 162.253 152.821 161.723 152.452L160.482 154.23ZM157.399 141.581L155.284 142.059C155.431 142.709 155.527 143.37 155.571 144.035L157.736 143.891C157.683 143.113 157.571 142.341 157.399 141.581ZM157.227 150.761C157.64 151.445 158.123 152.083 158.669 152.667L160.254 151.185C159.811 150.712 159.419 150.194 159.084 149.64L157.227 150.761ZM157.836 146.001L155.682 146.257C155.778 147.051 155.956 147.833 156.216 148.59L158.268 147.885C158.058 147.274 157.913 146.642 157.836 146.001ZM147.903 133.167C148.514 133.432 149.104 133.745 149.667 134.102L150.829 132.27C150.171 131.854 149.482 131.489 148.768 131.179L147.903 133.167ZM144.049 132.174C144.712 132.237 145.369 132.352 146.014 132.518L146.559 130.417C145.804 130.223 145.035 130.089 144.259 130.014L144.049 132.174ZM181.773 133.739L183.217 135.357C183.715 134.913 184.247 134.508 184.807 134.146L183.63 132.324C182.975 132.747 182.355 133.22 181.773 133.739ZM155.676 137.248L153.814 138.359C154.155 138.931 154.45 139.529 154.697 140.148L156.712 139.345C156.421 138.621 156.074 137.922 155.675 137.252L155.676 137.248ZM177.127 141.676L179.246 142.141C179.389 141.491 179.583 140.852 179.826 140.232L177.806 139.441C177.521 140.168 177.293 140.916 177.126 141.679L177.127 141.676ZM178.825 137.342L180.696 138.433C181.033 137.859 181.414 137.311 181.836 136.796L180.159 135.422C179.664 136.025 179.218 136.667 178.824 137.341L178.825 137.342ZM176.781 144.888C176.781 145.287 176.756 145.684 176.705 146.079L178.855 146.358C178.919 145.87 178.95 145.379 178.95 144.887C178.95 144.628 178.958 144.371 178.973 144.117L176.809 143.99C176.79 144.287 176.78 144.588 176.78 144.893L176.781 144.888ZM172.761 152.496L173.984 154.289C174.644 153.838 175.255 153.319 175.807 152.741L174.238 151.244C173.791 151.713 173.295 152.134 172.76 152.5L172.761 152.496ZM169.199 153.954L169.578 156.089C170.366 155.948 171.137 155.725 171.877 155.423L171.056 153.415C170.458 153.661 169.835 153.842 169.198 153.957L169.199 153.954ZM175.42 149.707L177.266 150.846C177.686 150.165 178.032 149.441 178.3 148.687L176.255 147.962C176.039 148.573 175.759 149.159 175.419 149.711L175.42 149.707ZM165.269 153.937L164.87 156.069C165.565 156.198 166.27 156.263 166.977 156.263H167.226V154.094H166.977C166.405 154.096 165.834 154.045 165.271 153.941L165.269 153.937Z" fill="url(#paint1_linear_861_35756)"/>
<path d="M196.135 43.7921C195.577 43.381 194.935 43.0971 194.255 42.9604C193.575 42.8237 192.873 42.8375 192.199 43.0008C189.985 43.4188 188.566 46.0101 188.341 46.4467L186.025 50.4002C185.898 50.6159 185.85 50.8691 185.889 51.1162C186.564 55.4004 195.058 58.246 196.023 58.556C196.129 58.5904 196.239 58.6081 196.35 58.6084C196.493 58.6084 196.634 58.5803 196.765 58.5258C196.897 58.4713 197.017 58.3913 197.117 58.2906C197.218 58.1898 197.298 58.0702 197.352 57.9386C197.407 57.8069 197.434 57.6659 197.434 57.5234V46.8735C197.467 46.2948 197.367 45.7163 197.142 45.1821C196.917 44.648 196.573 44.1726 196.135 43.7921ZM195.27 55.9888C192.366 54.8667 188.779 52.9511 188.118 51.1162L190.227 47.5142C190.238 47.4957 190.25 47.4749 190.26 47.4564C190.535 46.9106 191.554 45.329 192.601 45.1303C192.963 45.0323 193.341 45.0108 193.711 45.0672C194.081 45.1236 194.435 45.2566 194.751 45.4578C194.939 45.6386 195.083 45.8596 195.173 46.1043C195.263 46.349 195.296 46.6109 195.27 46.8702V55.9844V55.9888Z" fill="#272421"/>
<path d="M229.943 105.877C229.844 105.774 229.726 105.693 229.594 105.638C229.462 105.584 229.321 105.557 229.178 105.561L55.7121 106.138C55.4251 106.139 55.1502 106.254 54.9477 106.458C54.7452 106.661 54.6315 106.936 54.6315 107.223V165.244C54.6313 165.387 54.6593 165.528 54.7138 165.659C54.7682 165.791 54.8482 165.911 54.9489 166.012C55.0497 166.112 55.1694 166.192 55.3011 166.247C55.4328 166.301 55.5739 166.329 55.7164 166.329L229.183 165.752C229.47 165.75 229.745 165.636 229.947 165.432C230.15 165.229 230.263 164.954 230.263 164.667V106.646C230.263 106.503 230.235 106.361 230.18 106.23C230.125 106.098 230.044 105.978 229.943 105.877ZM228.092 163.586L56.7949 164.157V108.305L228.092 107.734V163.586Z" fill="#272421"/>
<path d="M89.2706 169.229V174.117H69.357V169.302H67.1881V175.202C67.188 175.345 67.2159 175.486 67.2704 175.618C67.3249 175.749 67.4048 175.869 67.5056 175.97C67.6063 176.071 67.726 176.151 67.8577 176.205C67.9894 176.26 68.1306 176.287 68.2731 176.287H90.3556C90.4981 176.287 90.6393 176.26 90.771 176.205C90.9027 176.151 91.0223 176.071 91.1231 175.97C91.2239 175.869 91.3038 175.749 91.3583 175.618C91.4127 175.486 91.4407 175.345 91.4406 175.202V169.229H89.2706Z" fill="#272421"/>
<path d="M213.668 168.816V173.709H193.754V168.893H191.585V174.794C191.585 175.081 191.699 175.357 191.903 175.561C192.106 175.764 192.382 175.879 192.67 175.879H214.751C215.039 175.879 215.315 175.764 215.519 175.561C215.722 175.357 215.836 175.081 215.836 174.794V168.82H213.668V168.816Z" fill="#272421"/>
<path d="M59.5763 111.09V144.891C59.5763 145.735 59.7425 146.57 60.0655 147.35C60.3884 148.13 60.8618 148.838 61.4585 149.435C62.0553 150.032 62.7637 150.505 63.5434 150.828C64.323 151.151 65.1587 151.317 66.0026 151.317C66.8465 151.317 67.6822 151.151 68.4619 150.828C69.2415 150.505 69.95 150.032 70.5467 149.435C71.1434 148.838 71.6168 148.13 71.9398 147.35C72.2627 146.57 72.4289 145.735 72.4289 144.891C72.4344 140.191 74.3038 135.686 77.627 132.363C80.9501 129.04 85.4557 127.171 90.1552 127.166H92.0435C96.7432 127.171 101.249 129.04 104.572 132.363C107.895 135.687 109.765 140.192 109.77 144.892C109.772 146.596 110.449 148.229 111.654 149.434C112.858 150.639 114.492 151.317 116.196 151.319H116.788C118.492 151.317 120.126 150.639 121.331 149.435C122.536 148.23 123.213 146.596 123.215 144.892C123.22 140.192 125.09 135.687 128.413 132.363C131.736 129.04 136.242 127.171 140.941 127.166H142.83C147.529 127.171 152.035 129.04 155.358 132.363C158.682 135.687 160.551 140.192 160.556 144.892C160.558 146.596 161.235 148.229 162.44 149.434C163.645 150.639 165.278 151.317 166.982 151.319H167.576C169.279 151.317 170.913 150.639 172.117 149.434C173.322 148.229 174 146.596 174.001 144.892C174.007 140.192 175.876 135.687 179.199 132.363C182.522 129.04 187.028 127.171 191.728 127.166H193.616C198.316 127.171 202.821 129.04 206.145 132.363C209.468 135.687 211.337 140.192 211.342 144.892C211.344 146.596 212.021 148.229 213.226 149.434C214.431 150.639 216.064 151.317 217.768 151.319H218.888C220.592 151.317 222.225 150.639 223.43 149.434C224.634 148.229 225.312 146.596 225.314 144.892V111.09H59.5763Z" fill="url(#paint2_linear_861_35756)"/>
<defs>
<linearGradient id="paint0_linear_861_35756" x1="277.338" y1="102.901" x2="297.716" y2="112.044" gradientUnits="userSpaceOnUse">
<stop stop-color="#846E55"/>
<stop offset="1" stop-color="#B3A55C"/>
</linearGradient>
<linearGradient id="paint1_linear_861_35756" x1="52.029" y1="131.186" x2="85.5552" y2="231.499" gradientUnits="userSpaceOnUse">
<stop stop-color="#846E55"/>
<stop offset="1" stop-color="#B3A55C"/>
</linearGradient>
<linearGradient id="paint2_linear_861_35756" x1="57.046" y1="112.99" x2="128.366" y2="244.822" gradientUnits="userSpaceOnUse">
<stop stop-color="#846E55"/>
<stop offset="1" stop-color="#B3A55C"/>
</linearGradient>
</defs>
</svg>
