<svg width="185" height="145" viewBox="0 0 185 145" fill="none" xmlns="http://www.w3.org/2000/svg">
<g opacity="0.272">
<path d="M41.7527 133.978C60.0421 133.978 74.8686 119.152 74.8686 100.864C74.8686 82.5756 60.0421 67.75 41.7527 67.75C23.4632 67.75 8.63672 82.5756 8.63672 100.864C8.63672 119.152 23.4632 133.978 41.7527 133.978Z" fill="url(#paint0_linear_1055_6616)"/>
<path d="M50.8257 143.216C51.2616 143.569 51.7924 143.785 52.351 143.836C52.9096 143.887 53.4709 143.772 53.9639 143.504C54.4569 143.237 54.8594 142.829 55.1207 142.333C55.382 141.836 55.4902 141.274 55.4317 140.716C55.3732 140.158 55.1505 139.63 54.792 139.199C54.4334 138.767 53.955 138.452 53.4172 138.292C52.8794 138.133 52.3064 138.136 51.7706 138.303C51.2349 138.469 50.7604 138.79 50.4072 139.226C49.9337 139.81 49.7118 140.559 49.7903 141.307C49.8687 142.056 50.2412 142.742 50.8257 143.216Z" fill="url(#paint1_linear_1055_6616)"/>
<path d="M61.0221 137.226C61.3199 137.467 61.6826 137.614 62.0642 137.65C62.4458 137.685 62.8293 137.606 63.1661 137.423C63.5029 137.24 63.7779 136.961 63.9563 136.622C64.1347 136.283 64.2086 135.899 64.1685 135.518C64.1285 135.137 63.9763 134.776 63.7312 134.481C63.4862 134.187 63.1593 133.971 62.7918 133.862C62.4244 133.754 62.0329 133.756 61.6669 133.87C61.3009 133.983 60.9769 134.203 60.7357 134.501C60.4123 134.9 60.2608 135.412 60.3145 135.923C60.3682 136.434 60.6228 136.903 61.0221 137.226Z" fill="url(#paint2_linear_1055_6616)"/>
<path d="M3.59774 91.6626C4.3093 91.6626 5.00489 91.4516 5.59653 91.0563C6.18818 90.661 6.64931 90.0992 6.92161 89.4418C7.19392 88.7845 7.26517 88.0611 7.12635 87.3633C6.98753 86.6654 6.64488 86.0244 6.14172 85.5213C5.63857 85.0182 4.99751 84.6755 4.29962 84.5367C3.60173 84.3979 2.87834 84.4691 2.22094 84.7414C1.56354 85.0137 1.00165 85.4748 0.606328 86.0664C0.211003 86.658 0 87.3536 0 88.0651C0 89.0192 0.379046 89.9343 1.05375 90.6089C1.72846 91.2836 2.64356 91.6626 3.59774 91.6626Z" fill="url(#paint3_linear_1055_6616)"/>
</g>
<g opacity="0.272">
<path d="M170.2 33.9501C175.608 29.8761 176.689 22.1899 172.614 16.7825C168.54 11.3752 160.853 10.2943 155.446 14.3684C150.038 18.4424 148.957 26.1286 153.032 31.536C157.106 36.9434 164.793 38.0242 170.2 33.9501Z" fill="url(#paint4_linear_1055_6616)"/>
<path d="M169.574 38.7015C169.524 38.903 169.415 39.0851 169.261 39.2247C169.107 39.3643 168.916 39.4552 168.71 39.4859C168.505 39.5166 168.295 39.4857 168.107 39.3971C167.919 39.3085 167.762 39.1662 167.655 38.9882C167.548 38.8101 167.496 38.6044 167.506 38.397C167.516 38.1895 167.588 37.9897 167.711 37.8228C167.835 37.6559 168.005 37.5293 168.2 37.4592C168.396 37.389 168.608 37.3784 168.809 37.4286C169.079 37.496 169.312 37.668 169.455 37.9067C169.599 38.1454 169.641 38.4313 169.574 38.7015Z" fill="url(#paint5_linear_1055_6616)"/>
<path d="M165.227 39.1998C165.193 39.3373 165.119 39.4615 165.014 39.5567C164.909 39.652 164.778 39.714 164.638 39.7349C164.498 39.7558 164.355 39.7347 164.226 39.6743C164.098 39.6139 163.991 39.5168 163.918 39.3954C163.845 39.2739 163.81 39.1336 163.817 38.9921C163.823 38.8506 163.872 38.7143 163.956 38.6004C164.041 38.4866 164.157 38.4002 164.29 38.3524C164.423 38.3045 164.568 38.2973 164.705 38.3316C164.89 38.3778 165.048 38.4952 165.146 38.6579C165.243 38.8207 165.273 39.0155 165.227 39.1998Z" fill="url(#paint6_linear_1055_6616)"/>
<path d="M172.052 12.9387C171.842 13.0971 171.589 13.1897 171.327 13.2046C171.064 13.2195 170.802 13.1561 170.575 13.0224C170.349 12.8888 170.166 12.6909 170.052 12.4537C169.938 12.2166 169.896 11.9508 169.933 11.6901C169.969 11.4293 170.083 11.1853 170.258 10.9889C170.433 10.7925 170.663 10.6525 170.918 10.5866C171.173 10.5207 171.442 10.5318 171.69 10.6187C171.939 10.7055 172.156 10.8641 172.314 11.0744C172.527 11.3564 172.619 11.7112 172.57 12.0608C172.52 12.4105 172.334 12.7262 172.052 12.9387Z" fill="url(#paint7_linear_1055_6616)"/>
</g>
<path d="M100.995 129.143C136.66 129.143 165.571 100.234 165.571 64.5716C165.571 28.9097 136.66 0 100.995 0C65.3314 0 36.4199 28.9097 36.4199 64.5716C36.4199 100.234 65.3314 129.143 100.995 129.143Z" fill="#F6F2ED"/>
<path d="M100.995 127.893C135.969 127.893 164.321 99.5432 164.321 64.5716C164.321 29.6001 135.969 1.25 100.995 1.25C66.0217 1.25 37.6699 29.6001 37.6699 64.5716C37.6699 99.5432 66.0217 127.893 100.995 127.893Z" stroke="#272421" stroke-width="2"/>
<path d="M160.782 65.2076C160.794 73.1237 159.231 80.9631 156.184 88.2691C153.136 95.5752 148.665 102.202 143.031 107.763C137.53 113.241 131.001 117.577 123.818 120.523C116.635 123.468 108.941 124.964 101.178 124.925C89.3611 124.949 77.8027 121.466 67.9659 114.918C58.1291 108.37 50.456 99.0513 45.9177 88.1411C41.3794 77.2309 40.18 65.2196 42.4713 53.6275C44.7625 42.0354 50.4414 31.3834 58.7892 23.0199C67.137 14.6563 77.7784 8.95694 89.3668 6.64326C100.955 4.32959 112.969 5.50563 123.889 10.0223C134.809 14.5391 144.143 22.1935 150.711 32.017C157.278 41.8404 160.784 53.3912 160.783 65.2076H160.782Z" fill="url(#paint8_linear_1055_6616)"/>
<path d="M101 113C128.062 113 150 91.2858 150 64.5C150 37.7142 128.062 16 101 16C73.938 16 52 37.7142 52 64.5C52 91.2858 73.938 113 101 113Z" fill="#F6F2ED"/>
<path d="M101.168 21.2217C77.1436 21.2217 57.668 40.9212 57.668 65.2217C57.668 89.5222 77.1436 109.222 101.168 109.222C125.192 109.222 144.668 89.5222 144.668 65.2217C144.668 40.9212 125.192 21.2217 101.168 21.2217Z" stroke="#272421" stroke-width="1.5" stroke-dasharray="1.5 1.5"/>
<path d="M115.63 51.6207C115.382 51.3736 115.089 51.2497 114.751 51.2497C114.412 51.2497 114.12 51.3736 113.872 51.6207L111.333 54.1407C109.94 52.8254 108.344 51.8063 106.548 51.0838C104.751 50.3612 102.902 50 101 50C97.4194 50 94.2945 51.0838 91.6251 53.252C88.9556 55.4199 87.1978 58.2485 86.3514 61.7383V61.875C86.3514 62.0442 86.4132 62.1908 86.537 62.3144C86.6607 62.4381 86.8071 62.4999 86.9764 62.4999H90.8631C91.1497 62.4999 91.3449 62.3501 91.4491 62.0508C91.9959 60.7488 92.3409 59.9871 92.4843 59.7656C93.3956 58.2812 94.6066 57.1158 96.1171 56.2694C97.6278 55.4231 99.2554 54.9997 101 54.9997C103.618 54.9997 105.89 55.8917 107.817 57.6756L105.121 60.3709C104.874 60.6183 104.75 60.9114 104.75 61.25C104.75 61.5885 104.874 61.8815 105.121 62.1289C105.369 62.3763 105.662 62.5 106 62.5H114.751C115.089 62.5 115.382 62.3763 115.63 62.1289C115.877 61.8815 116 61.5886 116 61.25V52.4997C116 52.1611 115.878 51.8683 115.63 51.6207ZM114.887 67.5004H111.137C110.85 67.5004 110.655 67.65 110.551 67.9496C110.005 69.2517 109.659 70.0131 109.516 70.2345C108.605 71.7186 107.394 72.8844 105.883 73.7308C104.373 74.5774 102.745 75.0002 101 75.0002C99.7374 75.0002 98.5198 74.766 97.3481 74.2974C96.1762 73.8282 95.1278 73.164 94.2034 72.3046L96.8794 69.6289C97.1267 69.3817 97.2504 69.0883 97.2504 68.75C97.2504 68.4115 97.1267 68.1181 96.8794 67.8711C96.6319 67.6234 96.339 67.4996 96.0005 67.4996H87.2502C86.9114 67.4996 86.6184 67.6234 86.371 67.8711C86.1236 68.1182 86 68.4116 86 68.7501V77.5004C86 77.8387 86.1236 78.132 86.3711 78.3793C86.6186 78.6262 86.9117 78.7506 87.2502 78.7506C87.5887 78.7506 87.8816 78.6263 88.1291 78.3793L90.6486 75.8595C92.042 77.1873 93.6274 78.2097 95.4048 78.9259C97.1822 79.6423 99.0215 80 100.922 80C104.49 80 107.602 78.916 110.259 76.7481C112.915 74.5803 114.66 71.7512 115.493 68.2617C115.507 68.2357 115.513 68.19 115.513 68.1252C115.513 67.9557 115.451 67.8097 115.327 67.6855C115.203 67.5624 115.057 67.5004 114.887 67.5004Z" fill="url(#paint9_linear_1055_6616)"/>
<defs>
<linearGradient id="paint0_linear_1055_6616" x1="7.62554" y1="70.8774" x2="112.412" y2="117.895" gradientUnits="userSpaceOnUse">
<stop stop-color="#846E55"/>
<stop offset="1" stop-color="#B3A55C"/>
</linearGradient>
<linearGradient id="paint1_linear_1055_6616" x1="51.9555" y1="137.176" x2="56.396" y2="145.954" gradientUnits="userSpaceOnUse">
<stop stop-color="#846E55"/>
<stop offset="1" stop-color="#B3A55C"/>
</linearGradient>
<linearGradient id="paint2_linear_1055_6616" x1="61.7939" y1="133.1" x2="64.8273" y2="139.096" gradientUnits="userSpaceOnUse">
<stop stop-color="#846E55"/>
<stop offset="1" stop-color="#B3A55C"/>
</linearGradient>
<linearGradient id="paint3_linear_1055_6616" x1="-0.109855" y1="84.8074" x2="11.2742" y2="89.9154" gradientUnits="userSpaceOnUse">
<stop stop-color="#846E55"/>
<stop offset="1" stop-color="#B3A55C"/>
</linearGradient>
<linearGradient id="paint4_linear_1055_6616" x1="146.052" y1="22.8951" x2="187.508" y2="13.4518" gradientUnits="userSpaceOnUse">
<stop stop-color="#846E55"/>
<stop offset="1" stop-color="#B3A55C"/>
</linearGradient>
<linearGradient id="paint5_linear_1055_6616" x1="169.74" y1="37.6276" x2="167.489" y2="40.4908" gradientUnits="userSpaceOnUse">
<stop stop-color="#846E55"/>
<stop offset="1" stop-color="#B3A55C"/>
</linearGradient>
<linearGradient id="paint6_linear_1055_6616" x1="165.34" y1="38.4673" x2="163.805" y2="40.4204" gradientUnits="userSpaceOnUse">
<stop stop-color="#846E55"/>
<stop offset="1" stop-color="#B3A55C"/>
</linearGradient>
<linearGradient id="paint7_linear_1055_6616" x1="169.43" y1="11.7382" x2="173.932" y2="10.7127" gradientUnits="userSpaceOnUse">
<stop stop-color="#846E55"/>
<stop offset="1" stop-color="#B3A55C"/>
</linearGradient>
<linearGradient id="paint8_linear_1055_6616" x1="39.5143" y1="11.1275" x2="228.491" y2="95.9216" gradientUnits="userSpaceOnUse">
<stop stop-color="#846E55"/>
<stop offset="1" stop-color="#B3A55C"/>
</linearGradient>
<linearGradient id="paint9_linear_1055_6616" x1="85.542" y1="51.4167" x2="133.007" y2="72.7134" gradientUnits="userSpaceOnUse">
<stop stop-color="#846E55"/>
<stop offset="1" stop-color="#B3A55C"/>
</linearGradient>
</defs>
</svg>
