<svg width="200" height="160" viewBox="0 0 200 160" fill="none" xmlns="http://www.w3.org/2000/svg">
<g clip-path="url(#clip0_621_7186)">
<g opacity="0.272">
<path d="M46.8144 147.914C66.8826 147.914 83.1512 131.657 83.1512 111.604C83.1512 91.55 66.8826 75.2935 46.8144 75.2935C26.7461 75.2935 10.4775 91.55 10.4775 111.604C10.4775 131.657 26.7461 147.914 46.8144 147.914Z" fill="url(#paint0_linear_621_7186)"/>
<path d="M56.7714 158.042C57.2498 158.429 57.8322 158.666 58.4452 158.722C59.0582 158.778 59.6741 158.652 60.2151 158.358C60.756 158.065 61.1978 157.618 61.4844 157.073C61.7711 156.529 61.8898 155.912 61.8256 155.3C61.7613 154.689 61.517 154.11 61.1235 153.637C60.7299 153.164 60.2049 152.818 59.6148 152.643C59.0246 152.468 58.3958 152.472 57.8079 152.654C57.22 152.837 56.6994 153.189 56.3119 153.667C55.7923 154.308 55.5489 155.129 55.635 155.95C55.7212 156.77 56.13 157.523 56.7714 158.042Z" fill="url(#paint1_linear_621_7186)"/>
<path d="M67.9572 151.475C68.284 151.739 68.682 151.901 69.1008 151.94C69.5196 151.978 69.9404 151.891 70.31 151.691C70.6796 151.49 70.9813 151.185 71.1771 150.813C71.3728 150.441 71.4538 150.019 71.4097 149.601C71.3657 149.183 71.1986 148.788 70.9296 148.465C70.6606 148.142 70.3017 147.906 69.8985 147.786C69.4952 147.667 69.0656 147.67 68.664 147.795C68.2624 147.92 67.9069 148.161 67.6423 148.487C67.2878 148.925 67.1217 149.486 67.1808 150.046C67.2398 150.607 67.5191 151.12 67.9572 151.475Z" fill="url(#paint2_linear_621_7186)"/>
<path d="M4.94881 101.515C5.72954 101.515 6.49274 101.283 7.14192 100.85C7.7911 100.416 8.29711 99.8004 8.59596 99.0797C8.89482 98.359 8.9731 97.5659 8.82092 96.8007C8.66874 96.0355 8.29293 95.3326 7.741 94.7808C7.18906 94.229 6.4858 93.8531 5.72011 93.7007C4.95442 93.5483 4.16071 93.6262 3.4393 93.9245C2.7179 94.2228 2.1012 94.7281 1.66719 95.3766C1.23318 96.0251 1.00134 96.7877 1.00098 97.5678C1.00074 98.086 1.10267 98.5992 1.30097 99.078C1.49926 99.5569 1.79001 99.992 2.15663 100.358C2.52324 100.725 2.95853 101.016 3.43762 101.214C3.91671 101.412 4.43022 101.515 4.94881 101.515Z" fill="url(#paint3_linear_621_7186)"/>
</g>
<g opacity="0.272">
<path d="M187.755 38.2321C193.688 33.7654 194.873 25.3375 190.402 19.4079C185.931 13.4784 177.497 12.2925 171.564 16.7591C165.631 21.2258 164.446 29.6537 168.917 35.5833C173.388 41.5128 181.822 42.6988 187.755 38.2321Z" fill="url(#paint4_linear_621_7186)"/>
<path d="M187.067 43.4419C187.012 43.6628 186.893 43.8624 186.724 44.0155C186.556 44.1685 186.345 44.2682 186.12 44.3018C185.894 44.3354 185.664 44.3015 185.458 44.2043C185.252 44.1072 185.079 43.9511 184.962 43.7559C184.844 43.5607 184.788 43.3351 184.799 43.1077C184.809 42.8803 184.888 42.6612 185.023 42.4782C185.159 42.2952 185.346 42.1564 185.56 42.0795C185.775 42.0026 186.007 41.991 186.228 42.0461C186.525 42.12 186.78 42.3086 186.937 42.5704C187.094 42.8321 187.141 43.1456 187.067 43.4419Z" fill="url(#paint5_linear_621_7186)"/>
<path d="M182.297 43.9888C182.259 44.1396 182.177 44.2758 182.062 44.3803C181.947 44.4847 181.804 44.5527 181.65 44.5757C181.496 44.5986 181.339 44.5755 181.198 44.5091C181.058 44.4428 180.94 44.3363 180.86 44.2031C180.779 44.0699 180.741 43.916 180.748 43.7608C180.756 43.6056 180.809 43.4561 180.901 43.3312C180.994 43.2063 181.122 43.1116 181.268 43.0591C181.414 43.0066 181.573 42.9987 181.724 43.0363C181.926 43.0867 182.1 43.2154 182.208 43.3941C182.315 43.5727 182.347 43.7866 182.297 43.9888Z" fill="url(#paint6_linear_621_7186)"/>
<path d="M189.787 15.1931C189.557 15.3669 189.279 15.4684 188.991 15.4847C188.702 15.501 188.415 15.4315 188.166 15.2848C187.917 15.1382 187.717 14.9211 187.592 14.6609C187.466 14.4008 187.421 14.1092 187.461 13.8232C187.501 13.5372 187.625 13.2696 187.818 13.0541C188.01 12.8387 188.262 12.6851 188.542 12.6129C188.822 12.5406 189.117 12.5529 189.39 12.6481C189.663 12.7434 189.901 12.9174 190.075 13.1481C190.308 13.4574 190.409 13.8467 190.355 14.2302C190.301 14.6137 190.097 14.9601 189.787 15.1931Z" fill="url(#paint7_linear_621_7186)"/>
</g>
<path d="M50.9736 26.0486V76.616C50.9645 93.8702 57.0698 110.57 68.2071 123.755C79.3444 136.941 94.7942 145.759 111.817 148.648C128.84 145.759 144.29 136.941 155.427 123.756C166.565 110.571 172.67 93.8709 172.661 76.6169V26.0486L111.876 2.05835L50.9736 26.0486Z" fill="url(#paint8_linear_621_7186)"/>
<g opacity="0.5">
<path d="M111.847 150.527H111.671C94.1578 147.596 78.2513 138.555 66.7777 125.013C55.3041 111.47 49.0062 94.3012 49.0029 76.5569V24.7551L111.847 0L174.628 24.7551V76.616C174.625 94.3602 168.327 111.529 156.854 125.072C145.38 138.614 129.473 147.655 111.96 150.586L111.847 150.527ZM50.9437 26.0476V76.6151C50.9345 93.8692 57.0398 110.569 68.1771 123.754C79.3144 136.94 94.7642 145.758 111.787 148.647C128.811 145.758 144.26 136.94 155.398 123.754C166.535 110.569 172.64 93.8692 172.631 76.6151V26.0485L111.847 2.0583L50.9437 26.0476Z" fill="#272421"/>
</g>
<path d="M111.847 143.765L111.671 143.706C95.9491 140.813 81.74 132.505 71.5156 120.225C61.2912 107.946 55.6987 92.4728 55.711 76.4988V29.2241L111.847 7.11505L167.983 29.2241V76.5578C167.986 92.5296 162.39 107.998 152.168 120.276C141.945 132.553 127.741 140.865 112.023 143.766L111.847 143.765ZM57.5935 30.5176V76.5578C57.5886 92.0545 63.0109 107.064 72.9202 118.985C82.8295 130.905 96.601 138.985 111.847 141.822C127.088 138.975 140.853 130.892 150.761 118.974C160.668 107.056 166.094 92.0516 166.1 76.5578V30.5176L111.847 9.17154L57.5935 30.5176Z" fill="#272421"/>
<path d="M111.848 11.7603L60.0068 32.1635V76.5578C60.0019 91.4197 65.1723 105.82 74.6312 117.289C84.0901 128.758 97.2479 136.581 111.848 139.415C126.448 136.581 139.605 128.758 149.064 117.289C158.523 105.82 163.694 91.4197 163.689 76.5578V32.1635L111.848 11.7603ZM112.319 101.783C106.465 101.783 100.742 100.048 95.8747 96.798C91.0073 93.548 87.2136 88.9288 84.9733 83.5244C82.7331 78.12 82.147 72.1732 83.289 66.4359C84.4311 60.6986 87.25 55.4285 91.3894 51.2922C95.5288 47.1558 100.803 44.3389 106.544 43.1977C112.286 42.0565 118.237 42.6422 123.645 44.8808C129.054 47.1194 133.676 50.9103 136.929 55.7741C140.181 60.638 141.917 66.3563 141.917 72.206C141.919 76.0906 141.155 79.9375 139.668 83.5268C138.181 87.1161 136.001 90.3774 133.252 93.1243C130.503 95.8711 127.24 98.0496 123.648 99.5353C120.056 101.021 116.206 101.785 112.319 101.783Z" fill="#F6F2ED"/>
<path d="M112.317 102.723C106.266 102.723 100.35 100.929 95.318 97.5697C90.2862 94.21 86.3643 89.4347 84.0484 83.8477C81.7325 78.2607 81.1265 72.113 82.3072 66.1819C83.4878 60.2508 86.402 54.8027 90.6813 50.5266C94.9605 46.2505 100.413 43.3385 106.348 42.1587C112.284 40.9789 118.436 41.5844 124.027 43.8986C129.618 46.2128 134.397 50.1318 137.759 55.1599C141.121 60.1881 142.916 66.0996 142.916 72.1469C142.902 80.2519 139.674 88.021 133.939 93.7521C128.203 99.4832 120.428 102.709 112.317 102.723ZM112.317 43.5114C106.65 43.5114 101.109 45.1908 96.3967 48.3374C91.6842 51.4839 88.0112 55.9561 85.8423 61.1886C83.6733 66.421 83.1058 72.1787 84.2115 77.7334C85.3172 83.2882 88.0465 88.3905 92.0542 92.3953C96.0619 96.4 101.168 99.1273 106.727 100.232C112.286 101.337 118.048 100.77 123.284 98.6026C128.52 96.4353 132.996 92.765 136.145 88.0559C139.293 83.3468 140.974 77.8105 140.974 72.1469C140.974 68.3863 140.233 64.6625 138.793 61.1881C137.353 57.7138 135.243 54.5569 132.582 51.8977C129.92 49.2386 126.761 47.1294 123.284 45.6904C119.807 44.2515 116.081 43.511 112.317 43.5114Z" fill="#272421"/>
<path d="M112.318 99.3716C111.67 99.3716 111.023 99.3716 110.318 99.3125L110.435 97.4314C111.377 97.4904 112.318 97.4904 113.259 97.4904L113.319 99.3716H112.318ZM115.377 99.2544L115.142 97.3732C115.73 97.3142 116.377 97.197 116.966 97.0789L117.319 98.9601C116.673 99.0773 116.026 99.1363 115.377 99.2544ZM108.378 99.1372L106.435 98.7839L106.847 96.9027C107.435 97.0199 108.024 97.138 108.672 97.2552L108.378 99.1372ZM119.264 98.4905L118.794 96.6675L120.559 96.1379L121.206 97.9609C120.498 98.1371 119.85 98.3134 119.262 98.4896L119.264 98.4905ZM104.495 98.2552C103.848 98.079 103.259 97.8438 102.612 97.6085L103.318 95.8445C103.907 96.0798 104.496 96.256 105.084 96.4322L104.495 98.2552ZM122.971 97.197L122.206 95.433C122.794 95.1978 123.324 94.9034 123.854 94.6682L124.737 96.3731C124.164 96.6827 123.574 96.9576 122.969 97.1961L122.971 97.197ZM100.846 96.8446L99.0807 95.9626L100.022 94.3158C100.554 94.6251 101.104 94.9 101.67 95.1387L100.846 96.8446ZM126.502 95.433L125.502 93.7862C126.034 93.4876 126.545 93.1537 127.032 92.787L128.15 94.3158C127.615 94.7263 127.029 95.0788 126.499 95.4321L126.502 95.433ZM97.3745 94.9035C96.8445 94.551 96.2564 94.1386 95.7855 93.7862L96.9627 92.2575C97.4336 92.6099 97.9626 92.9632 98.4335 93.3157L97.3745 94.9035ZM129.679 93.1394L128.444 91.6698C128.914 91.2583 129.385 90.8468 129.797 90.4353L131.092 91.7878C130.664 92.2818 130.19 92.7341 129.677 93.1385L129.679 93.1394ZM94.2547 92.4882C93.7839 92.0767 93.313 91.6062 92.8421 91.1356L94.1957 89.7831C94.6074 90.1946 95.0783 90.6651 95.5492 91.0766L94.2547 92.4882ZM132.561 90.3717L131.149 89.0782C131.561 88.6077 131.972 88.1372 132.326 87.6667L133.856 88.843C133.442 89.3753 132.972 89.9048 132.56 90.3754L132.561 90.3717ZM91.4877 89.6723C91.0759 89.1427 90.6641 88.6731 90.2524 88.1436L91.7822 87.0263C92.1349 87.4968 92.5476 88.0255 92.9003 88.496L91.4877 89.6723ZM134.973 87.2616L133.384 86.2033C133.737 85.6738 134.031 85.1451 134.326 84.6156L135.974 85.5566C135.675 86.1438 135.341 86.7123 134.973 87.2588V87.2616ZM89.1343 86.4931C88.7816 85.9635 88.4871 85.3758 88.1344 84.7881L89.8406 83.9061C90.1351 84.4357 90.4287 84.9644 90.7823 85.4939L89.1343 86.4931ZM136.915 83.8471L135.208 83.0241C135.479 82.4711 135.715 81.9016 135.915 81.3192L137.68 82.025C137.475 82.6526 137.219 83.2614 136.915 83.8471ZM87.3099 82.9651C87.0745 82.3774 86.7799 81.7307 86.6036 81.1421L88.428 80.4953C88.608 81.0765 88.8242 81.646 89.0752 82.2003L87.3099 82.9651ZM138.385 80.1429L136.561 79.5552C136.737 78.9675 136.914 78.3789 137.032 77.7912L138.914 78.2027L138.385 80.1429ZM86.0155 79.2609C85.8391 78.6141 85.7209 77.9674 85.5446 77.3207L87.4272 76.9682C87.5444 77.5559 87.6626 78.1445 87.8389 78.7322L86.0155 79.2609ZM139.268 76.3197L137.386 76.0254C137.503 75.4377 137.562 74.7909 137.621 74.2023L139.504 74.3785C139.444 74.9699 139.327 75.6757 139.268 76.3197ZM85.2501 75.3786L85.0737 73.4384L86.9563 73.3794C86.9566 73.9913 87.0157 74.6018 87.1326 75.2024L85.2501 75.3786ZM139.563 72.3811H137.68V72.2049C137.69 71.6553 137.67 71.1056 137.621 70.5581L139.504 70.4409C139.563 71.0286 139.563 71.6172 139.563 72.2049V72.3811ZM86.9572 71.4991L85.0737 71.4419C85.0737 70.7951 85.1328 70.1484 85.191 69.4435L87.0736 69.6197C87.0154 70.2656 87.0154 70.9123 86.9563 71.5009L86.9572 71.4991ZM137.386 68.6769C137.326 68.0892 137.209 67.4424 137.091 66.8538L138.974 66.4424L139.326 68.3826L137.386 68.6769ZM87.369 67.8539L85.4864 67.5015C85.6037 66.8547 85.7219 66.208 85.8982 65.5613L87.7226 66.0318C87.6044 66.6204 87.4272 67.2662 87.369 67.8539ZM136.621 65.0907C136.445 64.503 136.268 63.9144 136.033 63.3267L137.798 62.68C138.034 63.2677 138.21 63.9144 138.445 64.5612L136.621 65.0907ZM88.2553 64.2678L86.4309 63.6801C86.6143 63.0347 86.8506 62.4056 87.1372 61.7989L88.9025 62.5047C88.6634 63.0924 88.428 63.6801 88.2553 64.2678ZM135.388 61.6218C135.153 61.0922 134.858 60.5045 134.565 59.975L136.213 59.0339L137.096 60.7979L135.388 61.6218ZM89.6651 60.857L87.9589 59.975C88.2535 59.3873 88.5471 58.7987 88.9007 58.211L90.5487 59.2101C90.2202 59.7408 89.9246 60.2911 89.6633 60.8579L89.6651 60.857ZM133.615 58.4471C133.262 57.9176 132.909 57.4479 132.556 56.9184L134.086 55.7421C134.492 56.2676 134.865 56.8175 135.204 57.3889L133.615 58.4471ZM91.5423 57.7413L89.9533 56.6241C90.306 56.0945 90.7187 55.5659 91.1305 55.0363L92.6013 56.2126C92.2549 56.7422 91.8404 57.2118 91.5468 57.7413H91.5423ZM131.379 55.5068C130.967 55.0363 130.555 54.6248 130.143 54.1543L131.497 52.8018C131.968 53.2723 132.439 53.7428 132.85 54.2133L131.379 55.5068ZM93.8366 54.8601L92.424 53.5666L93.8411 52.1578L95.1356 53.5693C94.6647 53.9744 94.2547 54.4486 93.8411 54.8601H93.8366ZM128.731 52.9199C128.26 52.5084 127.789 52.155 127.318 51.8026L128.436 50.2739C128.966 50.6853 129.495 51.0968 129.966 51.5083L128.731 52.9199ZM96.5436 52.3903L95.3665 50.9206C95.8964 50.5091 96.4255 50.0976 96.9554 49.7443L98.0144 51.3321C97.4892 51.6314 96.9976 51.9862 96.5482 52.3903H96.5436ZM125.797 50.7444C125.267 50.3919 124.738 50.0976 124.208 49.8033L125.091 48.0984C125.68 48.3964 126.249 48.7301 126.797 49.0976L125.797 50.7444ZM99.5534 50.2739L98.6116 48.627C99.1998 48.2746 99.7888 47.9803 100.377 47.686L101.2 49.3909C100.609 49.6862 100.079 49.9777 99.5488 50.2739H99.5534ZM122.557 48.9786C122.027 48.7433 121.439 48.508 120.851 48.2728L121.498 46.4497C122.12 46.669 122.729 46.9243 123.322 47.2146L122.557 48.9786ZM102.844 48.6843L102.138 46.9203C102.753 46.6695 103.381 46.4536 104.02 46.2735L104.608 48.0966C104.004 48.2398 103.413 48.4371 102.844 48.6861V48.6843ZM119.084 47.7432C118.496 47.567 117.907 47.4489 117.319 47.3317L117.672 45.4506C118.319 45.5677 118.966 45.7449 119.613 45.9211L119.084 47.7432ZM106.375 47.567L105.904 45.6858C106.551 45.5096 107.198 45.3915 107.845 45.2743L108.14 47.1555C107.552 47.2754 106.964 47.3926 106.375 47.5688V47.567ZM115.496 47.0374C114.907 46.9784 114.26 46.9203 113.671 46.8612L113.788 44.98L115.73 45.1563L115.496 47.0374ZM109.964 46.9784L109.788 45.0972C110.435 45.0382 111.082 44.98 111.788 44.98L111.847 46.8612C111.2 46.863 110.611 46.9221 109.964 46.9802V46.9784Z" fill="#272421"/>
<g opacity="0.869">
<path d="M127.723 70.0043L123.45 68.5219L125.421 64.4543C125.469 64.3552 125.485 64.2436 125.467 64.135C125.448 64.0265 125.396 63.9263 125.318 63.8485L121.932 60.4649C121.855 60.3867 121.754 60.3348 121.645 60.3164C121.536 60.298 121.424 60.314 121.325 60.3622L117.255 62.3333L115.771 58.0641C115.735 57.9601 115.667 57.8698 115.577 57.806C115.487 57.7422 115.38 57.708 115.269 57.7081H110.481C110.37 57.708 110.263 57.7422 110.173 57.806C110.083 57.8698 110.015 57.9601 109.979 58.0641L108.495 62.3333L104.425 60.3622C104.326 60.3141 104.214 60.2982 104.105 60.3166C103.996 60.335 103.896 60.3868 103.818 60.4649L100.432 63.8485C100.354 63.9263 100.302 64.0265 100.283 64.135C100.265 64.2436 100.281 64.3552 100.329 64.4543L102.3 68.5219L98.0272 70.0043C97.9231 70.0407 97.8329 70.1084 97.7691 70.1983C97.7053 70.2881 97.6709 70.3955 97.6709 70.5057V75.2918C97.6708 75.402 97.7051 75.5095 97.7689 75.5993C97.8328 75.6892 97.9231 75.7569 98.0272 75.7932L102.3 77.2756L100.329 81.3431C100.281 81.4423 100.265 81.5539 100.283 81.6624C100.302 81.771 100.354 81.8712 100.432 81.949L103.818 85.3326C103.896 85.4105 103.996 85.4622 104.104 85.4806C104.213 85.4989 104.325 85.4831 104.424 85.4352L108.495 83.4659L109.979 87.7351C110.015 87.8392 110.083 87.9294 110.173 87.9932C110.263 88.0571 110.37 88.0913 110.481 88.0912H115.269C115.38 88.0913 115.487 88.0571 115.577 87.9932C115.667 87.9294 115.735 87.8392 115.771 87.7351L117.255 83.4659L121.326 85.4352C121.425 85.4831 121.537 85.4989 121.646 85.4806C121.754 85.4622 121.855 85.4105 121.932 85.3326L125.318 81.949C125.396 81.8712 125.448 81.771 125.467 81.6624C125.485 81.5539 125.469 81.4423 125.421 81.3431L123.45 77.2756L127.723 75.7932C127.827 75.7571 127.918 75.6894 127.982 75.5995C128.046 75.5097 128.08 75.4021 128.08 75.2918V70.5048C128.08 70.3946 128.045 70.2872 127.981 70.1976C127.917 70.1079 127.827 70.0403 127.723 70.0043ZM127.017 74.9093L122.539 76.4635C122.468 76.4881 122.403 76.5274 122.349 76.5787C122.294 76.6301 122.251 76.6924 122.223 76.7615C122.194 76.8307 122.18 76.9051 122.182 76.9799C122.185 77.0547 122.202 77.1283 122.235 77.1956L124.301 81.4649L121.45 84.3152L117.177 82.2506C117.11 82.218 117.036 82.2 116.961 82.1978C116.887 82.1957 116.812 82.2094 116.743 82.238C116.674 82.2667 116.611 82.3097 116.56 82.3641C116.509 82.4186 116.469 82.4833 116.445 82.554L114.889 87.0294H110.855L109.3 82.554C109.275 82.4833 109.236 82.4186 109.185 82.3641C109.133 82.3097 109.071 82.2667 109.002 82.238C108.932 82.2094 108.858 82.1957 108.783 82.1978C108.708 82.2 108.635 82.218 108.567 82.2506L104.295 84.3152L101.443 81.4649L103.509 77.1956C103.542 77.1283 103.56 77.0547 103.562 76.9799C103.564 76.9051 103.551 76.8307 103.522 76.7615C103.493 76.6924 103.45 76.6301 103.396 76.5787C103.341 76.5274 103.277 76.4881 103.206 76.4635L98.7272 74.9093V70.879L103.206 69.3249C103.277 69.3003 103.341 69.261 103.396 69.2097C103.45 69.1583 103.493 69.096 103.522 69.0269C103.551 68.9577 103.564 68.8833 103.562 68.8084C103.56 68.7336 103.542 68.6601 103.509 68.5927L101.443 64.3235L104.295 61.4741L108.567 63.5405C108.635 63.5731 108.708 63.5911 108.783 63.5933C108.858 63.5954 108.932 63.5817 109.002 63.5531C109.071 63.5244 109.133 63.4815 109.185 63.427C109.236 63.3726 109.275 63.3078 109.3 63.2371L110.855 58.7599H114.889L116.445 63.2371C116.469 63.3078 116.509 63.3726 116.56 63.427C116.611 63.4815 116.674 63.5244 116.743 63.5531C116.812 63.5817 116.887 63.5954 116.961 63.5933C117.036 63.5911 117.11 63.5731 117.177 63.5405L121.45 61.4741L124.301 64.3235L122.235 68.5927C122.202 68.6601 122.185 68.7336 122.182 68.8084C122.18 68.8833 122.194 68.9577 122.223 69.0269C122.251 69.096 122.294 69.1583 122.349 69.2097C122.403 69.261 122.468 69.3003 122.539 69.3249L127.017 70.879V74.9093Z" fill="#F6F2ED"/>
</g>
<path d="M112.876 67.9576C111.898 67.9576 110.942 68.2473 110.129 68.7902C109.316 69.3331 108.683 70.1047 108.308 71.0074C107.934 71.9102 107.836 72.9035 108.027 73.8619C108.218 74.8203 108.689 75.7006 109.38 76.3915C110.072 77.0824 110.953 77.553 111.912 77.7436C112.871 77.9342 113.865 77.8364 114.768 77.4625C115.672 77.0885 116.444 76.4553 116.987 75.6428C117.53 74.8304 117.82 73.8752 117.82 72.8981C117.819 71.5883 117.297 70.3326 116.37 69.4065C115.444 68.4803 114.187 67.9593 112.876 67.9576ZM112.876 76.7767C112.109 76.7767 111.358 76.5492 110.72 76.123C110.082 75.6968 109.584 75.0911 109.29 74.3823C108.996 73.6736 108.92 72.8938 109.069 72.1414C109.219 71.389 109.589 70.6979 110.132 70.1555C110.674 69.613 111.366 69.2436 112.119 69.094C112.872 68.9443 113.652 69.0211 114.362 69.3147C115.071 69.6083 115.677 70.1054 116.104 70.7432C116.53 71.3811 116.758 72.1309 116.758 72.8981C116.756 73.9263 116.347 74.912 115.619 75.6391C114.892 76.3661 113.905 76.7752 112.876 76.7767Z" fill="#F6F2ED"/>
<path d="M125.779 71.7627L120.255 69.8451L122.8 64.5831L121.194 62.979L115.929 65.5287L114.01 60.0042H111.737L109.818 65.5287L104.551 62.979L102.947 64.5795L105.492 69.8415L99.9663 71.759V74.0299L105.492 75.9474L102.947 81.2094L104.553 82.8135L109.819 80.2702L111.738 85.792H114.011L115.929 80.2702L121.195 82.8135L122.802 81.2085L120.256 75.9465L125.781 74.029L125.779 71.7627ZM112.876 79.0757C111.654 79.0757 110.458 78.7134 109.442 78.0347C108.425 77.356 107.633 76.3914 107.165 75.2627C106.697 74.1341 106.575 72.8921 106.814 71.694C107.052 70.4958 107.641 69.3952 108.505 68.5314C109.37 67.6675 110.471 67.0793 111.67 66.8409C112.869 66.6026 114.112 66.7249 115.242 67.1924C116.371 67.6599 117.336 68.4516 118.016 69.4674C118.695 70.4831 119.057 71.6773 119.057 72.899C119.055 74.5364 118.403 76.1061 117.244 77.2639C116.086 78.4218 114.515 79.0733 112.876 79.0757Z" fill="#F6F2ED"/>
</g>
<defs>
<linearGradient id="paint0_linear_621_7186" x1="9.36802" y1="78.7227" x2="124.32" y2="130.337" gradientUnits="userSpaceOnUse">
<stop stop-color="#A58969"/>
<stop offset="1" stop-color="#C7B664"/>
</linearGradient>
<linearGradient id="paint1_linear_621_7186" x1="58.0112" y1="151.419" x2="62.8785" y2="161.047" gradientUnits="userSpaceOnUse">
<stop stop-color="#A58969"/>
<stop offset="1" stop-color="#C7B664"/>
</linearGradient>
<linearGradient id="paint2_linear_621_7186" x1="68.8041" y1="146.951" x2="72.1291" y2="153.528" gradientUnits="userSpaceOnUse">
<stop stop-color="#A58969"/>
<stop offset="1" stop-color="#C7B664"/>
</linearGradient>
<linearGradient id="paint3_linear_621_7186" x1="0.880432" y1="93.9973" x2="13.3695" y2="99.6049" gradientUnits="userSpaceOnUse">
<stop stop-color="#A58969"/>
<stop offset="1" stop-color="#C7B664"/>
</linearGradient>
<linearGradient id="paint4_linear_621_7186" x1="161.258" y1="26.1078" x2="206.739" y2="15.7371" gradientUnits="userSpaceOnUse">
<stop stop-color="#A58969"/>
<stop offset="1" stop-color="#C7B664"/>
</linearGradient>
<linearGradient id="paint5_linear_621_7186" x1="187.249" y1="42.2644" x2="184.782" y2="45.4052" gradientUnits="userSpaceOnUse">
<stop stop-color="#A58969"/>
<stop offset="1" stop-color="#C7B664"/>
</linearGradient>
<linearGradient id="paint6_linear_621_7186" x1="182.421" y1="43.1853" x2="180.737" y2="45.3287" gradientUnits="userSpaceOnUse">
<stop stop-color="#A58969"/>
<stop offset="1" stop-color="#C7B664"/>
</linearGradient>
<linearGradient id="paint7_linear_621_7186" x1="186.909" y1="13.8759" x2="191.85" y2="12.7493" gradientUnits="userSpaceOnUse">
<stop stop-color="#A58969"/>
<stop offset="1" stop-color="#C7B664"/>
</linearGradient>
<linearGradient id="paint8_linear_621_7186" x1="49.1158" y1="8.98062" x2="252.225" y2="84.6302" gradientUnits="userSpaceOnUse">
<stop stop-color="#A58969"/>
<stop offset="1" stop-color="#C7B664"/>
</linearGradient>
<clipPath id="clip0_621_7186">
<rect width="199" height="160" fill="white" transform="translate(0.241211)"/>
</clipPath>
</defs>
</svg>
