<svg width="203" height="165" viewBox="0 0 203 165" fill="none" xmlns="http://www.w3.org/2000/svg">
<path opacity="0.2" d="M96.866 164.522C142.297 164.522 179.127 127.692 179.127 82.261C179.127 36.8295 142.297 0 96.866 0C51.4345 0 14.605 36.8295 14.605 82.261C14.605 127.692 51.4345 164.522 96.866 164.522Z" fill="url(#paint0_linear_621_7508)"/>
<path opacity="0.2" d="M192.632 77.0264C193.584 77.0264 194.514 76.7441 195.306 76.2153C196.097 75.6864 196.714 74.9347 197.078 74.0552C197.443 73.1758 197.538 72.2081 197.352 71.2744C197.167 70.3408 196.708 69.4832 196.035 68.8101C195.362 68.137 194.504 67.6786 193.571 67.4929C192.637 67.3072 191.669 67.4025 190.79 67.7668C189.911 68.131 189.159 68.7479 188.63 69.5394C188.101 70.3309 187.819 71.2615 187.819 72.2134C187.819 73.4899 188.326 74.7141 189.229 75.6167C190.131 76.5193 191.355 77.0264 192.632 77.0264Z" fill="#F6F2ED"/>
<path d="M5.28491 70.3472C6.91305 70.3472 8.23291 69.0273 8.23291 67.3992C8.23291 65.771 6.91305 64.4512 5.28491 64.4512C3.65678 64.4512 2.33691 65.771 2.33691 67.3992C2.33691 69.0273 3.65678 70.3472 5.28491 70.3472Z" fill="url(#paint1_linear_621_7508)"/>
<path d="M2.339 84.5003C3.63079 84.5003 4.678 83.4531 4.678 82.1613C4.678 80.8695 3.63079 79.8223 2.339 79.8223C1.04721 79.8223 0 80.8695 0 82.1613C0 83.4531 1.04721 84.5003 2.339 84.5003Z" fill="url(#paint2_linear_621_7508)"/>
<path d="M200.057 87.4877C201.5 87.4877 202.67 86.3178 202.67 84.8747C202.67 83.4316 201.5 82.2617 200.057 82.2617C198.614 82.2617 197.444 83.4316 197.444 84.8747C197.444 86.3178 198.614 87.4877 200.057 87.4877Z" fill="url(#paint3_linear_621_7508)"/>
<path d="M159.937 20.2678C161.229 20.2678 162.276 19.2206 162.276 17.9288C162.276 16.637 161.229 15.5898 159.937 15.5898C158.645 15.5898 157.598 16.637 157.598 17.9288C157.598 19.2206 158.645 20.2678 159.937 20.2678Z" fill="url(#paint4_linear_621_7508)"/>
<path d="M100.29 101.666H77.8712C77.5829 101.666 77.3064 101.781 77.1026 101.984C76.8987 102.188 76.7842 102.465 76.7842 102.753V108.52C76.7844 108.808 76.8991 109.084 77.1029 109.288C77.3067 109.492 77.5831 109.606 77.8712 109.606H100.29C100.578 109.606 100.855 109.491 101.059 109.288C101.263 109.084 101.377 108.807 101.377 108.519V102.752C101.377 102.464 101.262 102.188 101.058 101.984C100.855 101.78 100.578 101.666 100.29 101.666ZM99.2032 107.433H78.9582V103.839H99.2042L99.2032 107.433Z" fill="#F6F2ED"/>
<path d="M100.291 111.896H77.8722C77.5839 111.896 77.3074 112.011 77.1035 112.215C76.8997 112.419 76.7852 112.695 76.7852 112.983V118.751C76.7854 119.04 76.9001 119.316 77.1039 119.519C77.3077 119.723 77.584 119.837 77.8722 119.837H100.291C100.579 119.837 100.856 119.723 101.06 119.519C101.264 119.315 101.378 119.039 101.378 118.75V112.982C101.378 112.694 101.263 112.418 101.059 112.215C100.856 112.011 100.579 111.896 100.291 111.896ZM99.2042 117.663H78.9592V114.069H99.2052L99.2042 117.663Z" fill="url(#paint5_linear_621_7508)"/>
<path d="M100.29 122.129H77.8712C77.5829 122.129 77.3064 122.243 77.1026 122.447C76.8987 122.651 76.7842 122.928 76.7842 123.216V128.983C76.7844 129.271 76.8991 129.547 77.1029 129.751C77.3067 129.955 77.5831 130.069 77.8712 130.069H100.29C100.578 130.069 100.855 129.954 101.059 129.751C101.263 129.547 101.377 129.27 101.377 128.982V123.215C101.377 122.927 101.262 122.651 101.058 122.447C100.855 122.243 100.578 122.129 100.29 122.129ZM99.2032 127.896H78.9582V124.302H99.2042L99.2032 127.896Z" fill="#F6F2ED"/>
<path d="M115.764 101.666H106.345C106.057 101.666 105.78 101.781 105.576 101.984C105.372 102.188 105.258 102.465 105.258 102.753V108.52C105.258 108.808 105.373 109.084 105.577 109.288C105.78 109.492 106.057 109.606 106.345 109.606H115.764C116.052 109.606 116.329 109.491 116.532 109.288C116.736 109.084 116.851 108.807 116.851 108.519V102.752C116.851 102.464 116.736 102.188 116.532 101.984C116.328 101.78 116.052 101.666 115.764 101.666ZM114.677 107.433H107.432V103.839H114.678L114.677 107.433Z" fill="#F6F2ED"/>
<path d="M115.765 111.896H106.346C106.057 111.896 105.781 112.011 105.577 112.215C105.373 112.419 105.259 112.695 105.259 112.983V118.751C105.259 119.04 105.374 119.316 105.578 119.519C105.781 119.723 106.058 119.837 106.346 119.837H115.765C116.053 119.837 116.33 119.723 116.533 119.519C116.737 119.315 116.852 119.039 116.852 118.75V112.982C116.852 112.694 116.737 112.418 116.533 112.215C116.329 112.011 116.053 111.896 115.765 111.896ZM114.678 117.663H107.433V114.069H114.679L114.678 117.663Z" fill="url(#paint6_linear_621_7508)"/>
<path d="M115.764 122.129H106.345C106.057 122.129 105.78 122.243 105.576 122.447C105.372 122.651 105.258 122.928 105.258 123.216V128.983C105.258 129.271 105.373 129.547 105.577 129.751C105.78 129.955 106.057 130.069 106.345 130.069H115.764C116.052 130.069 116.329 129.954 116.532 129.751C116.736 129.547 116.851 129.27 116.851 128.982V123.215C116.851 122.927 116.736 122.651 116.532 122.447C116.328 122.243 116.052 122.129 115.764 122.129ZM114.677 127.896H107.432V124.302H114.678L114.677 127.896Z" fill="#F6F2ED"/>
<path d="M115.605 30H78.605C75.2913 30 72.605 32.6863 72.605 36V129C72.605 132.314 75.2913 135 78.605 135H115.605C118.919 135 121.605 132.314 121.605 129V36C121.605 32.6863 118.919 30 115.605 30Z" stroke="#F6F2ED" stroke-width="2"/>
<path d="M117.605 26H76.605C72.1867 26 68.605 29.5817 68.605 34V131C68.605 135.418 72.1867 139 76.605 139H117.605C122.023 139 125.605 135.418 125.605 131V34C125.605 29.5817 122.023 26 117.605 26Z" stroke="#F6F2ED" stroke-width="2"/>
<path d="M100.291 70.9727H77.8722C77.5839 70.9727 77.3074 71.0872 77.1035 71.291C76.8997 71.4949 76.7852 71.7714 76.7852 72.0597V77.8277C76.7854 78.1158 76.9001 78.392 77.1039 78.5956C77.3077 78.7993 77.584 78.9137 77.8722 78.9137H100.291C100.579 78.9137 100.856 78.7991 101.06 78.5953C101.264 78.3914 101.378 78.115 101.378 77.8267V72.0587C101.378 71.7705 101.263 71.4943 101.059 71.2907C100.856 71.087 100.579 70.9727 100.291 70.9727ZM99.2042 76.7397H78.9592V73.1457H99.2052L99.2042 76.7397Z" fill="url(#paint7_linear_621_7508)"/>
<path d="M100.29 81.2031H77.8712C77.5829 81.2031 77.3064 81.3176 77.1026 81.5215C76.8987 81.7254 76.7842 82.0018 76.7842 82.2901V88.0571C76.7844 88.3452 76.8991 88.6215 77.1029 88.8251C77.3067 89.0287 77.5831 89.1431 77.8712 89.1431H100.29C100.578 89.1431 100.855 89.0286 101.059 88.8248C101.263 88.6209 101.377 88.3444 101.377 88.0561V82.2891C101.377 82.001 101.262 81.7248 101.058 81.5211C100.855 81.3175 100.578 81.2031 100.29 81.2031ZM99.2032 86.9701H78.9582V83.3761H99.2042L99.2032 86.9701Z" fill="#F6F2ED"/>
<path d="M100.291 91.4355H77.8722C77.5839 91.4355 77.3074 91.5501 77.1035 91.7539C76.8997 91.9578 76.7852 92.2343 76.7852 92.5226V98.2905C76.7854 98.5787 76.9001 98.8549 77.1039 99.0585C77.3077 99.2622 77.584 99.3765 77.8722 99.3765H100.291C100.579 99.3765 100.856 99.262 101.06 99.0582C101.264 98.8543 101.378 98.5778 101.378 98.2896V92.5215C101.378 92.2334 101.263 91.9572 101.059 91.7536C100.856 91.5499 100.579 91.4355 100.291 91.4355ZM99.2042 97.2025H78.9592V93.6086H99.2052L99.2042 97.2025Z" fill="url(#paint8_linear_621_7508)"/>
<path d="M115.765 70.9727H106.346C106.057 70.9727 105.781 71.0872 105.577 71.291C105.373 71.4949 105.259 71.7714 105.259 72.0597V77.8277C105.259 78.1158 105.374 78.392 105.578 78.5956C105.781 78.7993 106.058 78.9137 106.346 78.9137H115.765C116.053 78.9137 116.33 78.7991 116.533 78.5953C116.737 78.3914 116.852 78.115 116.852 77.8267V72.0587C116.852 71.7705 116.737 71.4943 116.533 71.2907C116.329 71.087 116.053 70.9727 115.765 70.9727ZM114.678 76.7397H107.433V73.1457H114.679L114.678 76.7397Z" fill="url(#paint9_linear_621_7508)"/>
<path d="M115.673 81.2031H106.345C106.057 81.2031 105.78 81.3176 105.576 81.5215C105.372 81.7254 105.258 82.0018 105.258 82.2901V88.0571C105.258 88.3452 105.373 88.6215 105.577 88.8251C105.78 89.0287 106.057 89.1431 106.345 89.1431H115.673C115.961 89.1431 116.238 89.0286 116.441 88.8248C116.645 88.6209 116.76 88.3444 116.76 88.0561V82.2891C116.76 82.001 116.645 81.7248 116.441 81.5211C116.237 81.3175 115.961 81.2031 115.673 81.2031ZM114.586 86.9701H107.432V83.3761H114.586V86.9701Z" fill="#F6F2ED"/>
<path d="M115.765 91.4355H106.346C106.057 91.4355 105.781 91.5501 105.577 91.7539C105.373 91.9578 105.259 92.2343 105.259 92.5226V98.2905C105.259 98.5787 105.374 98.8549 105.578 99.0585C105.781 99.2622 106.058 99.3765 106.346 99.3765H115.765C116.053 99.3765 116.33 99.262 116.533 99.0582C116.737 98.8543 116.852 98.5778 116.852 98.2896V92.5215C116.852 92.2334 116.737 91.9572 116.533 91.7536C116.329 91.5499 116.053 91.4355 115.765 91.4355ZM114.678 97.2025H107.433V93.6086H114.679L114.678 97.2025Z" fill="url(#paint10_linear_621_7508)"/>
<path d="M115.29 35.2031H77.8712C77.5829 35.2031 77.3064 35.3176 77.1026 35.5215C76.8987 35.7254 76.7842 36.0018 76.7842 36.2901V66.0571C76.7844 66.3452 76.8991 66.6215 77.1029 66.8251C77.3067 67.0287 77.5831 67.1431 77.8712 67.1431H115.29C115.578 67.1431 115.855 67.0286 116.059 66.8248C116.263 66.6209 116.377 66.3444 116.377 66.0561V36.2901C116.377 36.0018 116.263 35.7254 116.059 35.5215C115.855 35.3176 115.578 35.2031 115.29 35.2031ZM114.203 64.9701H78.9582V37.3761H114.204L114.203 64.9701Z" fill="#F6F2ED"/>
<path d="M153.45 101.095C159.167 101.095 163.802 96.4599 163.802 90.7426C163.802 85.0254 159.167 80.3906 153.45 80.3906C147.732 80.3906 143.098 85.0254 143.098 90.7426C143.098 96.4599 147.732 101.095 153.45 101.095Z" fill="url(#paint11_linear_621_7508)"/>
<path d="M153.747 72.2129C150.082 72.2129 146.5 73.2995 143.453 75.3354C140.406 77.3713 138.031 80.265 136.629 83.6505C135.227 87.0361 134.86 90.7614 135.575 94.3555C136.29 97.9496 138.054 101.251 140.645 103.842C143.237 106.433 146.538 108.198 150.132 108.913C153.726 109.628 157.452 109.261 160.837 107.859C164.223 106.456 167.116 104.081 169.152 101.034C171.188 97.9876 172.275 94.4054 172.275 90.7409C172.269 85.8287 170.315 81.1192 166.842 77.6458C163.368 74.1723 158.659 72.2184 153.747 72.2129ZM153.747 107.096C150.512 107.096 147.35 106.137 144.661 104.34C141.972 102.543 139.875 99.9886 138.638 97.0003C137.4 94.012 137.076 90.7238 137.707 87.5514C138.338 84.379 139.896 81.465 142.183 79.1779C144.47 76.8907 147.384 75.3331 150.556 74.7021C153.729 74.0711 157.017 74.395 160.005 75.6328C162.993 76.8705 165.548 78.9667 167.345 81.6561C169.142 84.3455 170.101 87.5074 170.101 90.7419C170.096 95.0777 168.371 99.2345 165.305 102.3C162.239 105.366 158.083 107.091 153.747 107.096Z" fill="#F6F2ED"/>
<path d="M141.962 86.9415L139.899 86.2595C139.652 87.0046 139.468 87.7689 139.349 88.5445L141.497 88.8755C141.598 88.2191 141.754 87.5722 141.962 86.9415ZM141.355 90.8645L139.181 90.8855C139.189 91.6693 139.26 92.4512 139.395 93.2235L141.536 92.8485C141.421 92.1932 141.361 91.5296 141.355 90.8645ZM143.814 83.4275L142.082 82.1125C141.608 82.738 141.186 83.4012 140.82 84.0955L142.743 85.1075C143.053 84.5189 143.411 83.957 143.814 83.4275ZM142.042 94.7755L139.993 95.5005C140.254 96.2394 140.576 96.9555 140.956 97.6415L142.856 96.5895C142.535 96.0081 142.263 95.4014 142.042 94.7755ZM146.701 80.7015L145.487 78.9015C144.836 79.3399 144.223 79.8309 143.653 80.3695L145.146 81.9485C145.629 81.4908 146.149 81.0737 146.701 80.7015ZM163.983 84.7865L165.874 83.7155C165.487 83.0336 165.044 82.3848 164.551 81.7755L162.862 83.1425C163.279 83.6593 163.654 84.2094 163.982 84.7875L163.983 84.7865ZM143.963 98.2455L142.263 99.5955C142.748 100.21 143.283 100.784 143.863 101.31L145.323 99.7015C144.831 99.2539 144.376 98.7669 143.963 98.2455ZM165.342 88.5145L167.479 88.1145C167.335 87.3431 167.127 86.5848 166.859 85.8475L164.817 86.5935C165.045 87.2182 165.22 87.8607 165.342 88.5145ZM150.31 79.0555L149.747 76.9555C148.989 77.1591 148.249 77.4247 147.535 77.7495L148.435 79.7285C149.04 79.4531 149.667 79.228 150.31 79.0555ZM154.51 102.791L154.697 104.956C155.479 104.889 156.254 104.758 157.014 104.562L156.472 102.458C155.828 102.622 155.172 102.734 154.51 102.791ZM161.667 99.6175L163.142 101.217C163.718 100.685 164.249 100.106 164.73 99.4855L163.012 98.1535C162.604 98.6777 162.153 99.1676 161.666 99.6185L161.667 99.6175ZM164.101 96.4825L166.014 97.5125C166.386 96.8218 166.701 96.1017 166.955 95.3595L164.899 94.6595C164.682 95.2881 164.416 95.8981 164.101 96.4835V96.4825ZM161.053 78.6625L159.893 80.5005C160.455 80.8565 160.988 81.2578 161.486 81.7005L162.929 80.0765C162.343 79.5551 161.715 79.0826 161.053 78.6635V78.6625ZM145.726 102.742C146.385 103.168 147.079 103.538 147.8 103.848L148.66 101.848C148.049 101.585 147.462 101.271 146.903 100.911L145.726 102.742ZM167.716 90.4565L165.542 90.4905V90.7405C165.542 91.4058 165.488 92.07 165.38 92.7265L167.525 93.0805C167.652 92.3043 167.716 91.519 167.716 90.7325V90.4565ZM150.03 104.6C150.791 104.786 151.567 104.91 152.349 104.971L152.515 102.803C151.851 102.752 151.194 102.647 150.548 102.488L150.03 104.6ZM158.352 101.799L159.232 103.787C159.949 103.469 160.638 103.092 161.293 102.66L160.093 100.846C159.54 101.213 158.957 101.533 158.352 101.803V101.799ZM152.06 76.5355L152.27 78.6995C152.932 78.6363 153.597 78.6283 154.261 78.6755L154.408 76.5065C153.625 76.4522 152.84 76.4633 152.06 76.5395V76.5355ZM156.73 76.8475L156.23 78.9635C156.877 79.1163 157.51 79.3223 158.124 79.5795L158.965 77.5795C158.241 77.2753 157.493 77.0315 156.73 76.8505V76.8475Z" fill="#F6F2ED"/>
<path fill-rule="evenodd" clip-rule="evenodd" d="M152.354 95.7649L152.346 84.2136H154.771L154.763 95.7649L152.321 95.7649H152.354Z" fill="#F6F2ED"/>
<path fill-rule="evenodd" clip-rule="evenodd" d="M153.567 94.6551L156.955 91.2666L158.676 92.987L154.418 97.2445C154.306 97.358 154.171 97.4481 154.024 97.5095C153.876 97.5709 153.717 97.6025 153.557 97.6023C153.397 97.6022 153.239 97.5704 153.091 97.5087C152.944 97.4471 152.81 97.3568 152.697 97.2431L148.44 92.9863L150.161 91.2659L153.549 94.6544L153.567 94.6551Z" fill="#F6F2ED"/>
<path d="M41.8359 101.095C47.5531 101.095 52.1879 96.4599 52.1879 90.7426C52.1879 85.0254 47.5531 80.3906 41.8359 80.3906C36.1186 80.3906 31.4839 85.0254 31.4839 90.7426C31.4839 96.4599 36.1186 101.095 41.8359 101.095Z" fill="url(#paint12_linear_621_7508)"/>
<path d="M42.133 72.2129C38.4685 72.2129 34.8863 73.2995 31.8394 75.3354C28.7925 77.3713 26.4177 80.265 25.0153 83.6505C23.613 87.0361 23.2461 90.7614 23.961 94.3555C24.6759 97.9496 26.4405 101.251 29.0317 103.842C31.6229 106.433 34.9243 108.198 38.5184 108.913C42.1124 109.628 45.8378 109.261 49.2233 107.859C52.6089 106.456 55.5026 104.081 57.5385 101.034C59.5743 97.9876 60.661 94.4054 60.661 90.7409C60.6554 85.8287 58.7016 81.1192 55.2281 77.6458C51.7547 74.1723 47.0452 72.2184 42.133 72.2129ZM42.133 107.096C38.8985 107.096 35.7366 106.137 33.0472 104.34C30.3578 102.543 28.2617 99.9886 27.0239 97.0003C25.7861 94.012 25.4622 90.7238 26.0932 87.5514C26.7242 84.379 28.2818 81.465 30.569 79.1779C32.8561 76.8907 35.7701 75.3331 38.9425 74.7021C42.1148 74.0711 45.4031 74.395 48.3914 75.6328C51.3797 76.8705 53.9338 78.9667 55.7308 81.6561C57.5278 84.3455 58.487 87.5074 58.487 90.7419C58.482 95.0777 56.7573 99.2345 53.6915 102.3C50.6256 105.366 46.4688 107.091 42.133 107.096Z" fill="#F6F2ED"/>
<path d="M30.3479 86.9415L28.2849 86.2595C28.0386 87.0046 27.8546 87.7689 27.7349 88.5445L29.8829 88.8755C29.9843 88.2191 30.1398 87.5722 30.3479 86.9415ZM29.7409 90.8645L27.5669 90.8855C27.5748 91.6693 27.6463 92.4512 27.7809 93.2235L29.9219 92.8485C29.8076 92.1932 29.747 91.5296 29.7409 90.8645ZM32.1999 83.4275L30.4679 82.1125C29.9938 82.738 29.5718 83.4012 29.2059 84.0955L31.1289 85.1075C31.4389 84.5189 31.7971 83.957 32.1999 83.4275ZM30.4279 94.7755L28.3789 95.5005C28.6405 96.2394 28.9626 96.9555 29.3419 97.6415L31.2419 96.5895C30.9215 96.0081 30.6493 95.4014 30.4279 94.7755ZM35.0869 80.7015L33.8729 78.9015C33.2225 79.3399 32.6091 79.8309 32.0389 80.3695L33.5319 81.9485C34.0151 81.4908 34.5352 81.0737 35.0869 80.7015ZM52.3689 84.7865L54.2599 83.7155C53.8729 83.0336 53.4304 82.3848 52.9369 81.7755L51.2479 83.1425C51.6656 83.6593 52.0402 84.2094 52.3679 84.7875L52.3689 84.7865ZM32.3489 98.2455L30.6489 99.5955C31.1344 100.21 31.6695 100.784 32.2489 101.31L33.7089 99.7015C33.2168 99.2539 32.762 98.7669 32.3489 98.2455ZM53.7279 88.5145L55.8649 88.1145C55.7209 87.3431 55.5136 86.5848 55.2449 85.8475L53.2029 86.5935C53.4308 87.2182 53.6064 87.8607 53.7279 88.5145ZM38.6959 79.0555L38.1329 76.9555C37.3751 77.1591 36.6352 77.4247 35.9209 77.7495L36.8209 79.7285C37.4264 79.4531 38.0535 79.228 38.6959 79.0555ZM42.8959 102.791L43.0829 104.956C43.8648 104.889 44.6398 104.758 45.3999 104.562L44.8579 102.458C44.2138 102.622 43.5583 102.734 42.8959 102.791ZM50.0529 99.6175L51.5279 101.217C52.104 100.685 52.6352 100.106 53.1159 99.4855L51.3979 98.1535C50.9899 98.6777 50.5397 99.1676 50.0519 99.6185L50.0529 99.6175ZM52.4869 96.4825L54.3999 97.5125C54.772 96.8218 55.0868 96.1017 55.3409 95.3595L53.2849 94.6595C53.0687 95.2881 52.8018 95.8981 52.4869 96.4835V96.4825ZM49.4389 78.6625L48.2789 80.5005C48.8417 80.8565 49.3744 81.2578 49.8719 81.7005L51.3149 80.0765C50.7291 79.5551 50.1017 79.0826 49.4389 78.6635V78.6625ZM34.1119 102.742C34.7714 103.168 35.4651 103.538 36.1859 103.848L37.0459 101.848C36.4355 101.585 35.8479 101.271 35.2889 100.911L34.1119 102.742ZM56.1019 90.4565L53.9279 90.4905V90.7405C53.928 91.4058 53.8738 92.07 53.7659 92.7265L55.9109 93.0805C56.038 92.3043 56.1019 91.519 56.1019 90.7325V90.4565ZM38.4159 104.6C39.1775 104.786 39.9531 104.91 40.7349 104.971L40.9009 102.803C40.2377 102.752 39.5798 102.647 38.9339 102.488L38.4159 104.6ZM46.7379 101.799L47.6179 103.787C48.3348 103.469 49.0241 103.092 49.6789 102.66L48.4789 100.846C47.926 101.213 47.3437 101.533 46.7379 101.803V101.799ZM40.4459 76.5355L40.6559 78.6995C41.3178 78.6363 41.9837 78.6283 42.6469 78.6755L42.7939 76.5065C42.0117 76.4522 41.2263 76.4633 40.4459 76.5395V76.5355ZM45.1159 76.8475L44.6159 78.9635C45.2631 79.1163 45.8966 79.3223 46.5099 79.5795L47.3509 77.5795C46.6272 77.2753 45.8797 77.0315 45.1159 76.8505V76.8475Z" fill="#F6F2ED"/>
<path fill-rule="evenodd" clip-rule="evenodd" d="M40.7412 95.7649L40.7327 84.2136H43.1581L43.1496 95.7649L40.7073 95.7649H40.7412Z" fill="#F6F2ED"/>
<path fill-rule="evenodd" clip-rule="evenodd" d="M41.9537 94.6551L45.3421 91.2666L47.0625 92.987L42.805 97.2445C42.6923 97.358 42.5581 97.4481 42.4104 97.5095C42.2626 97.5709 42.1042 97.6025 41.9442 97.6023C41.7842 97.6022 41.6258 97.5704 41.4781 97.5087C41.3305 97.4471 41.1965 97.3568 41.0839 97.2431L36.8272 92.9863L38.5476 91.2659L41.936 94.6544L41.9537 94.6551Z" fill="#F6F2ED"/>
<defs>
<linearGradient id="paint0_linear_621_7508" x1="12.0932" y1="7.7691" x2="272.392" y2="124.559" gradientUnits="userSpaceOnUse">
<stop stop-color="#A58969"/>
<stop offset="1" stop-color="#C7B664"/>
</linearGradient>
<linearGradient id="paint1_linear_621_7508" x1="2.2469" y1="64.7296" x2="11.5753" y2="68.915" gradientUnits="userSpaceOnUse">
<stop stop-color="#A58969"/>
<stop offset="1" stop-color="#C7B664"/>
</linearGradient>
<linearGradient id="paint2_linear_621_7508" x1="-0.0714199" y1="80.0432" x2="7.32987" y2="83.364" gradientUnits="userSpaceOnUse">
<stop stop-color="#A58969"/>
<stop offset="1" stop-color="#C7B664"/>
</linearGradient>
<linearGradient id="paint3_linear_621_7508" x1="197.364" y1="82.5085" x2="205.632" y2="86.2183" gradientUnits="userSpaceOnUse">
<stop stop-color="#A58969"/>
<stop offset="1" stop-color="#C7B664"/>
</linearGradient>
<linearGradient id="paint4_linear_621_7508" x1="157.527" y1="15.8107" x2="164.928" y2="19.1315" gradientUnits="userSpaceOnUse">
<stop stop-color="#A58969"/>
<stop offset="1" stop-color="#C7B664"/>
</linearGradient>
<linearGradient id="paint5_linear_621_7508" x1="76.4097" y1="112.271" x2="92.3585" y2="134.433" gradientUnits="userSpaceOnUse">
<stop stop-color="#A58969"/>
<stop offset="1" stop-color="#C7B664"/>
</linearGradient>
<linearGradient id="paint6_linear_621_7508" x1="105.082" y1="112.271" x2="120.501" y2="122.371" gradientUnits="userSpaceOnUse">
<stop stop-color="#A58969"/>
<stop offset="1" stop-color="#C7B664"/>
</linearGradient>
<linearGradient id="paint7_linear_621_7508" x1="76.4097" y1="71.3476" x2="92.3585" y2="93.509" gradientUnits="userSpaceOnUse">
<stop stop-color="#A58969"/>
<stop offset="1" stop-color="#C7B664"/>
</linearGradient>
<linearGradient id="paint8_linear_621_7508" x1="76.4097" y1="91.8105" x2="92.3585" y2="113.972" gradientUnits="userSpaceOnUse">
<stop stop-color="#A58969"/>
<stop offset="1" stop-color="#C7B664"/>
</linearGradient>
<linearGradient id="paint9_linear_621_7508" x1="105.082" y1="71.3476" x2="120.501" y2="81.4473" gradientUnits="userSpaceOnUse">
<stop stop-color="#A58969"/>
<stop offset="1" stop-color="#C7B664"/>
</linearGradient>
<linearGradient id="paint10_linear_621_7508" x1="105.082" y1="91.8105" x2="120.501" y2="101.91" gradientUnits="userSpaceOnUse">
<stop stop-color="#A58969"/>
<stop offset="1" stop-color="#C7B664"/>
</linearGradient>
<linearGradient id="paint11_linear_621_7508" x1="142.782" y1="81.3683" x2="175.538" y2="96.0655" gradientUnits="userSpaceOnUse">
<stop stop-color="#A58969"/>
<stop offset="1" stop-color="#C7B664"/>
</linearGradient>
<linearGradient id="paint12_linear_621_7508" x1="31.1678" y1="81.3683" x2="63.9246" y2="96.0655" gradientUnits="userSpaceOnUse">
<stop stop-color="#A58969"/>
<stop offset="1" stop-color="#C7B664"/>
</linearGradient>
</defs>
</svg>
