<svg width="42" height="42" viewBox="0 0 42 42" fill="none" xmlns="http://www.w3.org/2000/svg">
<path d="M21 41C32.0457 41 41 32.0457 41 21C41 9.95431 32.0457 1 21 1C9.95431 1 1 9.95431 1 21C1 32.0457 9.95431 41 21 41Z" fill="#F6F2ED"/>
<path d="M21.0003 40.5289C31.7857 40.5289 40.5289 31.7857 40.5289 21.0003C40.5289 10.2149 31.7857 1.47168 21.0003 1.47168C10.2149 1.47168 1.47168 10.2149 1.47168 21.0003C1.47168 31.7857 10.2149 40.5289 21.0003 40.5289Z" stroke="url(#paint0_linear_1506_9055)"/>
<path d="M39.5171 21.2004C39.521 23.6522 39.0369 26.0804 38.0929 28.3432C37.149 30.6061 35.7642 32.6585 34.0191 34.3807C32.3155 36.0775 30.2933 37.4207 28.0687 38.333C25.8441 39.2454 23.461 39.7088 21.0566 39.6967C17.3969 39.7038 13.8173 38.625 10.7709 36.5969C7.72443 34.5689 5.34812 31.6827 3.94268 28.3035C2.53724 24.9244 2.16583 21.2042 2.87547 17.6139C3.5851 14.0236 5.34387 10.7246 7.9292 8.13428C10.5145 5.54393 13.8102 3.77875 17.3991 3.06216C20.988 2.34557 24.7089 2.70969 28.0907 4.10858C31.4726 5.50746 34.3634 7.87821 36.3974 10.9207C38.4314 13.9632 39.5171 17.5406 39.5171 21.2004Z" fill="url(#paint1_linear_1506_9055)"/>
<path d="M21.0669 38.1396C30.4673 38.1396 38.0878 30.5191 38.0878 21.1186C38.0878 11.7182 30.4673 4.09766 21.0669 4.09766C11.6664 4.09766 4.0459 11.7182 4.0459 21.1186C4.0459 30.5191 11.6664 38.1396 21.0669 38.1396Z" fill="#F6F2ED"/>
<path d="M21.0672 37.6676C30.2073 37.6676 37.6168 30.2581 37.6168 21.118C37.6168 11.9779 30.2073 4.56836 21.0672 4.56836C11.9271 4.56836 4.51758 11.9779 4.51758 21.118C4.51758 30.2581 11.9271 37.6676 21.0672 37.6676Z" stroke="url(#paint2_linear_1506_9055)"/>
<path d="M21.1029 6.98067C13.3243 6.98067 7.01855 13.2865 7.01855 21.065C7.01855 28.8436 13.3243 35.1494 21.1029 35.1494C28.8815 35.1494 35.1873 28.8436 35.1873 21.065C35.1873 13.2865 28.8815 6.98067 21.1029 6.98067Z" stroke="url(#paint3_linear_1506_9055)" stroke-dasharray="1 1.5"/>
<path fill-rule="evenodd" clip-rule="evenodd" d="M19.866 12.4098C19.9307 12.2855 20.0284 12.1816 20.1484 12.1093C20.2683 12.037 20.4059 11.9992 20.546 12C22.5004 12.0003 24.395 12.6735 25.9114 13.9065C27.4278 15.1395 28.4733 16.857 28.8723 18.7702C29.2712 20.6834 28.9993 22.6756 28.1021 24.4119C27.2049 26.1482 25.7372 27.5225 23.9458 28.3039L23.3195 26.8805C24.6616 26.293 25.7845 25.2978 26.5289 24.036C27.2732 22.7743 27.6013 21.3101 27.4664 19.8513C27.3315 18.3926 26.7406 17.0134 25.7774 15.9095C24.8143 14.8056 23.528 14.0331 22.101 13.7017L22.7272 14.6376L21.4353 15.4884L19.8893 13.1721C19.8097 13.0559 19.764 12.92 19.7572 12.7794C19.7504 12.6388 19.7828 12.499 19.8508 12.3758L19.866 12.4098ZM17.7617 14.1267C16.4192 14.711 15.2951 15.7037 14.5494 16.9636C13.8036 18.2236 13.4741 19.6866 13.6078 21.1447C13.7415 22.6027 14.3315 23.9814 15.294 25.0847C16.2564 26.1881 17.5423 26.9598 18.9687 27.2902L18.3343 26.3472L19.6182 25.4883L21.1651 27.8083C21.242 27.9244 21.2856 28.0593 21.2911 28.1985C21.2966 28.3376 21.2639 28.4756 21.1964 28.5974C21.1277 28.7195 21.0278 28.8211 20.9069 28.8918C20.786 28.9626 20.6485 28.9999 20.5084 29C18.554 28.9987 16.6595 28.3251 15.143 27.0922C13.6265 25.8592 12.5804 24.1421 12.1803 22.229C11.7802 20.316 12.0505 18.3235 12.9458 16.5862C13.8411 14.8488 15.3068 13.4724 17.097 12.688L17.7161 14.1034L17.7617 14.1267Z" fill="url(#paint4_linear_1506_9055)"/>
<path d="M20.527 24.0765C22.5035 24.0765 24.1058 22.4742 24.1058 20.4977C24.1058 18.5212 22.5035 16.9189 20.527 16.9189C18.5505 16.9189 16.9482 18.5212 16.9482 20.4977C16.9482 22.4742 18.5505 24.0765 20.527 24.0765Z" fill="url(#paint5_linear_1506_9055)"/>
<defs>
<linearGradient id="paint0_linear_1506_9055" x1="0.875385" y1="3.31605" x2="62.6698" y2="31.0417" gradientUnits="userSpaceOnUse">
<stop stop-color="#846E55"/>
<stop offset="1" stop-color="#B3A55C"/>
</linearGradient>
<linearGradient id="paint1_linear_1506_9055" x1="1.95964" y1="4.45099" x2="60.4877" y2="30.711" gradientUnits="userSpaceOnUse">
<stop stop-color="#846E55"/>
<stop offset="1" stop-color="#B3A55C"/>
</linearGradient>
<linearGradient id="paint2_linear_1506_9055" x1="4.01225" y1="6.13138" x2="56.3802" y2="29.6276" gradientUnits="userSpaceOnUse">
<stop stop-color="#846E55"/>
<stop offset="1" stop-color="#B3A55C"/>
</linearGradient>
<linearGradient id="paint3_linear_1506_9055" x1="8.34875" y1="35.5795" x2="28.345" y2="-8.98769" gradientUnits="userSpaceOnUse">
<stop stop-color="#846E55"/>
<stop offset="1" stop-color="#B3A55C"/>
</linearGradient>
<linearGradient id="paint4_linear_1506_9055" x1="11.7397" y1="12.8028" x2="38.6902" y2="24.9314" gradientUnits="userSpaceOnUse">
<stop stop-color="#846E55"/>
<stop offset="1" stop-color="#B3A55C"/>
</linearGradient>
<linearGradient id="paint5_linear_1506_9055" x1="16.839" y1="17.2569" x2="28.1632" y2="22.3379" gradientUnits="userSpaceOnUse">
<stop stop-color="#846E55"/>
<stop offset="1" stop-color="#B3A55C"/>
</linearGradient>
</defs>
</svg>
