<svg width="52" height="35" viewBox="0 0 52 35" fill="none" xmlns="http://www.w3.org/2000/svg">
<path d="M35.4881 27.8601H15.499C14.8372 27.8593 14.2026 27.5963 13.7342 27.1287C13.2658 26.6611 13.0018 26.0269 13 25.3651V8.66097C13.0002 8.00485 13.2584 7.37513 13.7189 6.90776C14.1794 6.44039 14.8052 6.17287 15.4612 6.16296L30.0668 6H30.1125C31.1036 6.00053 32.054 6.39419 32.7551 7.09461C33.4563 7.79504 33.851 8.74501 33.8525 9.73609L33.8903 9.79869V9.96165H35.502C36.1641 9.96243 36.7989 10.2257 37.2671 10.6938C37.7354 11.1619 37.9989 11.7966 38 12.4587V22.567L37.9871 21.4928V25.368C37.9845 26.0294 37.7201 26.6628 37.2518 27.1297C36.7835 27.5967 36.1494 27.8593 35.4881 27.8601ZM32.9116 16.632C32.245 16.632 31.6057 16.8968 31.1343 17.3681C30.663 17.8395 30.3982 18.4788 30.3982 19.1454C30.3982 19.812 30.663 20.4513 31.1343 20.9226C31.6057 21.394 32.245 21.6588 32.9116 21.6588H34.1645C34.3866 21.6585 34.5995 21.5702 34.7566 21.4132C34.9136 21.2561 35.0019 21.0432 35.0022 20.8211V17.4686C35.0017 17.2467 34.9132 17.034 34.7562 16.8772C34.5992 16.7204 34.3864 16.6322 34.1645 16.632H32.9116ZM16.2353 8.5C16.0398 8.5 15.8522 8.57768 15.714 8.71594C15.5757 8.85421 15.498 9.04174 15.498 9.23728V9.97456H31.1151C31.1145 9.58382 30.9592 9.20921 30.6829 8.93282C30.4067 8.65643 30.0322 8.50079 29.6415 8.5H16.2353Z" fill="url(#paint0_linear_181_13979)"/>
<defs>
<linearGradient id="paint0_linear_181_13979" x1="12.6183" y1="7.03228" x2="50.2313" y2="26.3323" gradientUnits="userSpaceOnUse">
<stop stop-color="#A58969"/>
<stop offset="1" stop-color="#C7B664"/>
</linearGradient>
</defs>
</svg>
