<svg width="28" height="28" viewBox="0 0 28 28" fill="none" xmlns="http://www.w3.org/2000/svg">
<path d="M14 28C21.732 28 28 21.732 28 14C28 6.26801 21.732 0 14 0C6.26801 0 0 6.26801 0 14C0 21.732 6.26801 28 14 28Z" fill="#F6F2ED"/>
<path fill-rule="evenodd" clip-rule="evenodd" d="M9.42734 11.4731L11.9543 14.0011L9.42534 16.5311C9.29106 16.6655 9.18456 16.8249 9.11192 17.0004C9.03927 17.1759 9.00191 17.364 9.00195 17.554C9.002 17.7439 9.03946 17.932 9.11219 18.1074C9.18492 18.2829 9.2915 18.4423 9.42584 18.5766C9.56018 18.7109 9.71966 18.8174 9.89516 18.89C10.0707 18.9627 10.2588 19 10.4487 19C10.6386 19 10.8267 18.9625 11.0022 18.8898C11.1776 18.817 11.3371 18.7105 11.4713 18.5761L14.0003 16.0471L16.5273 18.5741C16.8003 18.8383 17.1662 18.9846 17.546 18.9816C17.9259 18.9785 18.2893 18.8263 18.558 18.5578C18.8267 18.2892 18.9791 17.9259 18.9823 17.546C18.9856 17.1661 18.8394 16.8002 18.5753 16.5271L16.0483 14.0011L18.5763 11.4711C18.7107 11.3368 18.8173 11.1774 18.89 11.0019C18.9627 10.8265 19.0002 10.6384 19.0002 10.4485C19.0003 10.2585 18.9629 10.0704 18.8903 9.89493C18.8176 9.71943 18.7111 9.55995 18.5768 9.42561C18.4426 9.29127 18.2831 9.18469 18.1077 9.11196C17.9322 9.03923 17.7441 9.00177 17.5542 9.00173C17.3643 9.00168 17.1762 9.03905 17.0007 9.11169C16.8252 9.18434 16.6657 9.29084 16.5313 9.42511L14.0003 11.9531L11.4743 9.42611C11.2004 9.16692 10.8362 9.02482 10.4591 9.03003C10.082 9.03524 9.72188 9.18735 9.45523 9.454C9.18857 9.72066 9.03647 10.0808 9.03126 10.4579C9.02605 10.835 9.16815 11.1992 9.42734 11.4731Z" fill="#272421"/>
</svg>
