<svg id="blueallet" xmlns="http://www.w3.org/2000/svg" xmlns:xlink="http://www.w3.org/1999/xlink" width="18.011" height="17.85" viewBox="0 0 18.011 17.85">
  <defs>
    <clipPath id="clip-path">
      <rect id="Rectangle_7277" data-name="Rectangle 7277" width="18.011" height="17.85" fill="#453228"/>
    </clipPath>
  </defs>
  <g id="Group_38061" data-name="Group 38061" clip-path="url(#clip-path)">
    <path id="Path_16090" data-name="Path 16090" d="M23.476,4.927c1.483-1.51,2.9-3.034,4.412-4.458a2.216,2.216,0,0,1,2.956.222C32.138,1.944,33.391,3.24,34.677,4.5c.324.318.249.468-.123.649-1.682.82-3.356,1.655-5.029,2.491a.6.6,0,0,1-.592.014c-1.815-.916-3.635-1.821-5.456-2.73" transform="translate(-20.174 0)" fill="#453228"/>
    <path id="Path_16091" data-name="Path 16091" d="M7.877,58.445a.84.84,0,0,1-.6-.364C5.164,55.965,3.065,53.835.941,51.729c-1.367-1.355-1.254-2.877.407-4.241.218-.179.373-.1.566,0Q4.73,48.9,7.549,50.3a.478.478,0,0,1,.332.47c-.007,2.543,0,5.085,0,7.674" transform="translate(0 -40.718)" fill="#453228"/>
    <path id="Path_16092" data-name="Path 16092" d="M71.832,58.575V54.393c0-1.124.013-2.248-.007-3.372a.755.755,0,0,1,.467-.821q2.714-1.315,5.4-2.7a.655.655,0,0,1,.9.175,2.944,2.944,0,0,1,1.145,2.086,2.176,2.176,0,0,1-.6,1.6q-3.45,3.5-6.928,6.978a2.781,2.781,0,0,1-.374.235" transform="translate(-61.722 -40.725)" fill="#453228"/>
  </g>
</svg>
