<svg xmlns="http://www.w3.org/2000/svg" width="24" height="17.995" viewBox="0 0 24 17.995">
  <g id="delete" transform="translate(-301 -748)">
    <path id="Path" d="M6.087,2.042c.139-.14.243-.243.34-.338s.2-.194.3-.3c.087-.093.1-.1.112-.118A4.137,4.137,0,0,1,7.9.52,4.4,4.4,0,0,1,9.134.113a8.054,8.054,0,0,1,1.184-.1c.191,0,.357-.007.511-.007.169,0,.3,0,.6,0h6.7c.3,0,.435,0,.6,0s.328,0,.509.007a8.118,8.118,0,0,1,1.2.105A4.366,4.366,0,0,1,21.66.52a4.1,4.1,0,0,1,1.057.768,4.21,4.21,0,0,1,.767,1.057,4.4,4.4,0,0,1,.4,1.232,7.93,7.93,0,0,1,.1,1.182c0,.056,0,.113,0,.176s0,.119,0,.239v7.508c0,.061,0,.061,0,.124,0,.194,0,.282-.007.381a8.071,8.071,0,0,1-.106,1.209,4.43,4.43,0,0,1-.409,1.242,4.237,4.237,0,0,1-.771,1.061,4.159,4.159,0,0,1-1.066.773,4.408,4.408,0,0,1-1.24.409,8.022,8.022,0,0,1-1.2.106c-.212,0-.366.007-.52.007H10.835c-.168,0-.338,0-.508-.007a7.976,7.976,0,0,1-1.2-.106,4.393,4.393,0,0,1-1.23-.406,4.108,4.108,0,0,1-1.037-.751c-.025-.023-.043-.042-.092-.093-.129-.126-.212-.207-.337-.333-.1-.095-.173-.171-.344-.342L3.811,13.676c-.074-.068-.114-.107-.182-.174s-.128-.126-.231-.229L1.323,11.194,1.232,11.1l-.1-.1c-.072-.072-.126-.127-.162-.166a6.774,6.774,0,0,1-.492-.542,1.806,1.806,0,0,1-.345-.522L.112,9.712a2.319,2.319,0,0,1,0-1.426l.022-.058A1.812,1.812,0,0,1,.477,7.7a6.732,6.732,0,0,1,.481-.53c.071-.074.121-.125.184-.189L1.2,6.929l.132-.134L3.4,4.723l.094-.092L3.6,4.525c.061-.061.12-.118.191-.186C3.8,4.332,6.087,2.042,6.087,2.042Z" transform="translate(301 748)" fill="#041513"/>
    <path id="path-2" data-name="path" d="M6.232,0,0,6.24l.846.846L7.078.846Z" transform="translate(311.978 753.45)" fill="#fff"/>
    <path id="path-3" data-name="path" d="M7.083,6.235.845,0,0,.847,6.239,7.079Z" transform="translate(311.969 753.453)" fill="#fff"/>
  </g>
</svg>
