<svg xmlns="http://www.w3.org/2000/svg" width="11.007" height="21.294" viewBox="0 0 11.007 21.294">
  <g id="Keeper" transform="translate(-1135.54 -1153.775)">
    <path id="Path_28898" data-name="Path 28898" d="M1146.235,1173.876c0-.012-.012-.012-.023-.023l-.52-.37-2.312-3.249,1.364-1.931.567-.4a.644.644,0,0,0-.347-1.191h-.867a.637.637,0,0,0-.462.185.645.645,0,0,0-.185.463.85.85,0,0,0,.035.22l-2.486,3.5v-7.539l.173-.243c.023-.035.081-.127.1-.173a.655.655,0,0,0-.069-.636l1.873-1.075a2.005,2.005,0,0,0,.994-1.723l-.012-2.625a1.981,1.981,0,0,0-.983-1.7l-2.3-1.33a1.986,1.986,0,0,0-1.965,0l-2.278,1.307a2,2,0,0,0-.994,1.723l.012,2.625a1.992,1.992,0,0,0,.994,1.7l2,1.156a.634.634,0,0,0-.046.555.7.7,0,0,0,.081.162l.208.289v10.2l-.22.3a.649.649,0,0,0-.1.485.64.64,0,0,0,.254.416.681.681,0,0,0,.382.116h1.584a.646.646,0,0,0,.648-.647.864.864,0,0,0-.116-.37l-.22-.3v-.15l1.029-1.457,1.457,2.07a.577.577,0,0,0-.023.312.653.653,0,0,0,.266.428.818.818,0,0,0,.37.116h1.792a.641.641,0,0,0,.347-1.191Zm-5.885-13.216h-1.041l-1.734-.983-.035-2.59,2.243-1.295,2.278,1.283.011,2.6Z" fill="#000"/>
  </g>
</svg>
