<svg xmlns="http://www.w3.org/2000/svg" xmlns:xlink="http://www.w3.org/1999/xlink" width="30" height="30" viewBox="0 0 30 30">
  <defs>
    <linearGradient id="linear-gradient" x1="0.215" y1="0.137" x2="0.815" y2="0.883" gradientUnits="objectBoundingBox">
      <stop offset="0" stop-color="#b17f44"/>
      <stop offset="1" stop-color="#6e4a35"/>
    </linearGradient>
  </defs>
  <g id="trezor" transform="translate(-40 -377)">
    <circle id="Ellipse_1941" data-name="Ellipse 1941" cx="15" cy="15" r="15" transform="translate(40 377)" fill="url(#linear-gradient)"/>
    <path id="Path_25670" data-name="Path 25670" d="M16.215,146.425c0,1.228-.068,2.461.014,3.683a8.174,8.174,0,0,1-2.184,6.435c-.248.265-.443.581-.68.858-.425.5-.566,1.4-1.222,1.5a21.221,21.221,0,0,1-3.373.066c-.339,0-.524-.289-.663-.544a17.137,17.137,0,0,0-2.147-2.862,6.638,6.638,0,0,1-1.533-4.418c-.03-3.286.006-6.572-.021-9.858-.007-.842.309-1.226,1.158-1.223q4.73.017,9.461,0c.829,0,1.214.327,1.2,1.188-.03,1.725-.009,3.452-.009,5.178m-5.922-3.791c-1.127,0-2.255.021-3.381-.009-.6-.016-.832.229-.828.818q.021,3.431,0,6.861c0,.554.238.78.771.779q3.431-.007,6.863,0c.578,0,.834-.22.829-.827q-.03-3.381,0-6.762c.006-.634-.223-.894-.876-.874-1.126.035-2.254.01-3.381.01" transform="translate(44.594 242.941)" fill="#fff"/>
  </g>
</svg>
