<svg id="icon_bitcoin" xmlns="http://www.w3.org/2000/svg" width="9.125" height="12.628" viewBox="0 0 9.125 12.628">
  <path id="Path_5548" data-name="Path 5548" d="M74.658,6.625a2.279,2.279,0,0,0-1.328-.782,1.8,1.8,0,0,0,.994-1.958,1.935,1.935,0,0,0-.277-.869,1.738,1.738,0,0,0-.626-.592,3.447,3.447,0,0,0-.858-.342A6.766,6.766,0,0,0,71.5,1.912V0H70.333V1.859q-.3,0-.926.015V0H68.238V1.912q-.251.008-.736.008l-1.609-.008V3.157h.842a.6.6,0,0,1,.675.516V5.851a.771.771,0,0,1,.121.008h-.121V8.91a.405.405,0,0,1-.44.387h-.842l-.235,1.389h1.518l.417,0,.41,0v1.935h1.169V10.716q.319.008.926.008v1.9H71.5V10.693a9.086,9.086,0,0,0,1.1-.114,4.494,4.494,0,0,0,.922-.262,2.488,2.488,0,0,0,.736-.444,2.1,2.1,0,0,0,.49-.675A2.871,2.871,0,0,0,75,8.249,2.248,2.248,0,0,0,74.658,6.625ZM69.429,3.24l.3,0,.41-.008q.163,0,.44.019a4.188,4.188,0,0,1,.467.061,2.6,2.6,0,0,1,.417.125,1.131,1.131,0,0,1,.364.212,1.054,1.054,0,0,1,.231.319,1,1,0,0,1,.095.444,1.056,1.056,0,0,1-.068.387.73.73,0,0,1-.2.292,2.076,2.076,0,0,1-.281.2,1.286,1.286,0,0,1-.368.14q-.224.053-.391.083a3.2,3.2,0,0,1-.417.042l-.38.015q-.129,0-.353,0l-.262,0V3.24h0Zm3.191,5.168a1.079,1.079,0,0,1-.186.3,1.054,1.054,0,0,1-.3.228,2.571,2.571,0,0,1-.36.159,2.9,2.9,0,0,1-.421.106q-.247.046-.433.064t-.444.03q-.258.011-.4.011t-.364,0l-.281,0V6.739l.36-.008q.3-.008.489-.007t.524.023a4.474,4.474,0,0,1,.562.068,3.693,3.693,0,0,1,.5.14,1.442,1.442,0,0,1,.436.231,1.139,1.139,0,0,1,.281.349,1.084,1.084,0,0,1,.042.873Z" transform="translate(-65.893)" fill="#073E39"/>
</svg>
