<svg xmlns="http://www.w3.org/2000/svg" width="7.052" height="12.925" viewBox="0 0 7.052 12.925">
  <path id="icon_dollar" d="M7.052-.241c0-1.527-.789-2.29-2.549-2.859-1.216-.388-1.54-.53-1.54-.97,0-.375.311-.608.919-.608a2.843,2.843,0,0,1,1.837.686l1.113-1.32A3.868,3.868,0,0,0,4.632-6.4V-8.34H2.885v1.928A2.642,2.642,0,0,0,.362-3.863c0,1.242.6,2.122,2.665,2.769C4.14-.745,4.412-.525,4.412-.021c0,.44-.323.763-1.061.763A3.161,3.161,0,0,1,1.242-.085L0,1.273A4.585,4.585,0,0,0,2.885,2.541V4.585H4.632V2.451A2.745,2.745,0,0,0,7.052-.241Z" transform="translate(0 8.34)" fill="#006cb4"/>
</svg>
