<svg xmlns="http://www.w3.org/2000/svg" xmlns:xlink="http://www.w3.org/1999/xlink" width="43.521" height="39.993" viewBox="0 0 43.521 39.993">
  <defs>
    <linearGradient id="linear-gradient" x1="0.157" y1="0.247" x2="0.87" y2="0.724" gradientUnits="objectBoundingBox">
      <stop offset="0" stop-color="#00836a"/>
      <stop offset="1" stop-color="#073e39"/>
    </linearGradient>
  </defs>
  <g id="Beneficiary" transform="translate(-46.444 -351)">
    <path id="hexagontile3" d="M24.559,0a5,5,0,0,1,4.327,2.495l6.253,10.8a5,5,0,0,1,0,5.01L28.886,29.1A5,5,0,0,1,24.559,31.6H12.03A5,5,0,0,1,7.7,29.1L1.45,18.3a5,5,0,0,1,0-5.01L7.7,2.495A5,5,0,0,1,12.03,0Z" transform="matrix(0.966, 0.259, -0.259, 0.966, 54.623, 351)" fill="url(#linear-gradient)"/>
    <g id="user" transform="translate(61.705 363)">
      <path id="Shape" d="M10.83,14.856H2.17a2.17,2.17,0,0,1-2-1.343A2.184,2.184,0,0,1,0,12.679V11.612A2.136,2.136,0,0,1,1.231,9.781a14.071,14.071,0,0,1,10.537,0A2.136,2.136,0,0,1,13,11.612v1.067a2.175,2.175,0,0,1-1.34,2.012,2.153,2.153,0,0,1-.827.165ZM5.794,7.188A3.62,3.62,0,0,1,2.956,4.337,3.637,3.637,0,0,1,4.493.611,3.607,3.607,0,0,1,9.836,2.24,3.633,3.633,0,0,1,7.881,6.982a3.593,3.593,0,0,1-2.087.206Z" transform="translate(0 0)" fill="#fafcfc"/>
    </g>
  </g>
</svg>
