<svg xmlns="http://www.w3.org/2000/svg" xmlns:xlink="http://www.w3.org/1999/xlink" width="52.336" height="48.093" viewBox="0 0 52.336 48.093">
  <defs>
    <clipPath id="clip-path">
      <rect id="Rectangle_7277" data-name="Rectangle 7277" width="20.664" height="20.479" fill="none"/>
    </clipPath>
  </defs>
  <g id="blockchain" transform="translate(-213 -598)">
    <path id="hexagontile3" d="M30.117,0a5,5,0,0,1,4.327,2.495l8.105,14a5,5,0,0,1,0,5.01l-8.105,14A5,5,0,0,1,30.117,38H13.883a5,5,0,0,1-4.327-2.495l-8.105-14a5,5,0,0,1,0-5.01l8.105-14A5,5,0,0,1,13.883,0Z" transform="matrix(0.966, 0.259, -0.259, 0.966, 222.835, 598)" fill="#092c27" opacity="0.297"/>
    <g id="icon" transform="translate(228.836 611.807)">
      <g id="Group_38061" data-name="Group 38061" clip-path="url(#clip-path)">
        <path id="Path_16090" data-name="Path 16090" d="M23.476,5.653C25.178,3.92,26.8,2.172,28.537.538a2.543,2.543,0,0,1,3.392.255c1.485,1.438,2.923,2.925,4.4,4.374.372.365.286.537-.141.745-1.929.94-3.85,1.9-5.77,2.858a.683.683,0,0,1-.679.016c-2.082-1.051-4.171-2.089-6.26-3.133" transform="translate(-19.688 0)" fill="#fffcfa"/>
        <path id="Path_16091" data-name="Path 16091" d="M9.037,60.074a.963.963,0,0,1-.687-.418c-2.425-2.427-4.833-4.871-7.27-7.287-1.569-1.555-1.438-3.3.467-4.866.25-.205.428-.114.65,0Q5.426,49.12,8.661,50.73a.549.549,0,0,1,.38.54c-.009,2.917-.005,5.834-.005,8.8" transform="translate(0 -39.736)" fill="#fffcfa"/>
        <path id="Path_16092" data-name="Path 16092" d="M71.833,60.223v-4.8c0-1.289.015-2.579-.008-3.869a.866.866,0,0,1,.536-.942q3.114-1.509,6.19-3.1a.752.752,0,0,1,1.034.2A3.377,3.377,0,0,1,80.9,50.11a2.5,2.5,0,0,1-.689,1.836q-3.958,4.018-7.948,8.006a3.191,3.191,0,0,1-.429.27" transform="translate(-60.234 -39.744)" fill="#fffcfa"/>
      </g>
    </g>
  </g>
</svg>
