<svg xmlns="http://www.w3.org/2000/svg" xmlns:xlink="http://www.w3.org/1999/xlink" width="39.176" height="36" viewBox="0 0 39.176 36">
  <defs>
    <linearGradient id="linear-gradient" x1="0.157" y1="0.247" x2="0.87" y2="0.724" gradientUnits="objectBoundingBox">
      <stop offset="0" stop-color="#00836a"/>
      <stop offset="1" stop-color="#073e39"/>
    </linearGradient>
  </defs>
  <g id="blue_wallet" data-name="blue wallet" transform="translate(-44 -404)">
    <path id="hexagontile3" d="M21.819,0a5,5,0,0,1,4.327,2.495l5.339,9.222a5,5,0,0,1,0,5.01L26.146,25.95a5,5,0,0,1-4.327,2.495h-10.7A5,5,0,0,1,6.79,25.95L1.45,16.728a5,5,0,0,1,0-5.01L6.79,2.495A5,5,0,0,1,11.117,0Z" transform="matrix(0.966, 0.259, -0.259, 0.966, 51.362, 404)" fill="url(#linear-gradient)"/>
    <g id="Group_38036" data-name="Group 38036" transform="translate(-603.45 -494.875)">
      <path id="Rectangle-Copy" d="M3.583,0H8.59a4.053,4.053,0,0,1,2.153.373A2.54,2.54,0,0,1,11.8,1.43a4.053,4.053,0,0,1,.373,2.153V8.59a4.053,4.053,0,0,1-.373,2.153A2.54,2.54,0,0,1,10.743,11.8a4.053,4.053,0,0,1-2.153.373H3.583A4.053,4.053,0,0,1,1.43,11.8,2.54,2.54,0,0,1,.373,10.743,4.053,4.053,0,0,1,0,8.59V3.583A4.053,4.053,0,0,1,.373,1.43,2.54,2.54,0,0,1,1.43.373,4.053,4.053,0,0,1,3.583,0Z" transform="translate(661 910.544)" fill="#fff"/>
      <g id="Rectangle-Copy-2" transform="translate(661 900.154)" fill="#00836a">
        <path d="M 8.589805603027344 21.90445327758789 L 3.583045244216919 21.90445327758789 C 2.351125240325928 21.90445327758789 1.998565316200256 21.76826286315918 1.66566526889801 21.59023475646973 C 1.297555327415466 21.39336395263672 1.011095285415649 21.10689353942871 0.8142253160476685 20.73878288269043 C 0.6361852884292603 20.4058837890625 0.500005304813385 20.05332374572754 0.500005304813385 18.82140350341797 L 0.500005304813385 16.81834411621094 C 0.500005304813385 15.58642387390137 0.6361852884292603 15.23386383056641 0.8142253160476685 14.90096378326416 C 1.011085271835327 14.53286361694336 1.297555327415466 14.24639415740967 1.66566526889801 14.0495138168335 C 1.998575329780579 13.87148380279541 2.351145267486572 13.7352933883667 3.583045244216919 13.7352933883667 L 8.589805603027344 13.7352933883667 C 9.821704864501953 13.7352933883667 10.17427539825439 13.87148380279541 10.5071849822998 14.04952335357666 C 10.87529563903809 14.24639415740967 11.16176509857178 14.53286361694336 11.3586254119873 14.90096378326416 C 11.53666496276855 15.23387336730957 11.67285537719727 15.58644390106201 11.67285537719727 16.81834411621094 L 11.67285537719727 18.82140350341797 C 11.67285537719727 20.05330467224121 11.53666496276855 20.40587425231934 11.3586254119873 20.73878288269043 C 11.16175556182861 21.10689353942871 10.87529563903809 21.39336395263672 10.5071849822998 21.59022331237793 C 10.17428493499756 21.76826286315918 9.821724891662598 21.90445327758789 8.589805603027344 21.90445327758789 Z" stroke="none"/>
        <path d="M 3.58304500579834 14.23529434204102 C 2.46491527557373 14.23529434204102 2.180795669555664 14.34103393554688 1.901474952697754 14.49042320251465 C 1.622035026550293 14.63987350463867 1.40456485748291 14.85733413696289 1.255135536193848 15.13675308227539 C 1.105745315551758 15.41609382629395 0.999995231628418 15.70023345947266 0.999995231628418 16.81834411621094 L 0.999995231628418 18.82140350341797 C 0.999995231628418 19.93951416015625 1.105745315551758 20.22365379333496 1.255125045776367 20.50298309326172 C 1.404575347900391 20.78242492675781 1.622035026550293 20.9998836517334 1.901474952697754 21.14932250976562 C 2.180795669555664 21.29871368408203 2.46491527557373 21.40445327758789 3.58304500579834 21.40445327758789 L 8.589805603027344 21.40445327758789 C 9.707935333251953 21.40445327758789 9.992055892944336 21.29871368408203 10.27139568328857 21.14931488037109 C 10.55081558227539 20.9998836517334 10.76827526092529 20.78242492675781 10.91771507263184 20.50299453735352 C 11.06710529327393 20.22366333007812 11.1728458404541 19.93953323364258 11.1728458404541 18.82140350341797 L 11.1728458404541 16.81834411621094 C 11.1728458404541 15.70021438598633 11.06710529327393 15.41608428955078 10.91772556304932 15.13676452636719 C 10.76828575134277 14.85733413696289 10.55081558227539 14.63987350463867 10.27137565612793 14.49042320251465 C 9.992055892944336 14.34103393554688 9.707935333251953 14.23529434204102 8.589805603027344 14.23529434204102 L 3.58304500579834 14.23529434204102 M 3.58304500579834 13.23529434204102 L 8.589805603027344 13.23529434204102 C 9.835704803466797 13.23529434204102 10.28750514984131 13.36501312255859 10.74298477172852 13.60861396789551 C 11.19846534729004 13.85221290588379 11.55593490600586 14.20967292785645 11.79953575134277 14.66516304016113 C 12.04312515258789 15.12064361572266 12.17284488677979 15.57243347167969 12.17284488677979 16.81834411621094 L 12.17284488677979 18.82140350341797 C 12.17284488677979 20.06731414794922 12.04312515258789 20.51910400390625 11.79953575134277 20.97458267211914 C 11.55593490600586 21.43007278442383 11.19846534729004 21.78754425048828 10.74298477172852 22.0311336517334 C 10.28750514984131 22.27473449707031 9.835704803466797 22.40445327758789 8.589805603027344 22.40445327758789 L 3.58304500579834 22.40445327758789 C 2.33714485168457 22.40445327758789 1.885345458984375 22.27473449707031 1.429864883422852 22.0311336517334 C 0.9743852615356445 21.78754425048828 0.6169157028198242 21.43007278442383 0.3733148574829102 20.97458267211914 C 0.129725456237793 20.51910400390625 -4.76837158203125e-06 20.06731414794922 -4.76837158203125e-06 18.82140350341797 L -4.76837158203125e-06 16.81834411621094 C -4.76837158203125e-06 15.57243347167969 0.129725456237793 15.12064361572266 0.3733148574829102 14.66516304016113 C 0.6169157028198242 14.20967292785645 0.9743852615356445 13.85221290588379 1.429864883422852 13.60861396789551 C 1.885345458984375 13.36501312255859 2.33714485168457 13.23529434204102 3.58304500579834 13.23529434204102 Z" stroke="none" fill="#fff"/>
      </g>
      <path id="Subtraction_71" data-name="Subtraction 71" d="M-1537.225-9942.644h-6.477a3.16,3.16,0,0,1-1.638-.314,2.173,2.173,0,0,1-.894-.9,3.133,3.133,0,0,1-.317-1.638v-.784a3.134,3.134,0,0,1,.317-1.639,2.14,2.14,0,0,1,.894-.894,3.121,3.121,0,0,1,1.638-.317h6.477a3.121,3.121,0,0,1,1.638.317,2.123,2.123,0,0,1,.894.894,3.134,3.134,0,0,1,.317,1.639v.784a3.133,3.133,0,0,1-.317,1.638,2.146,2.146,0,0,1-.894.9A3.16,3.16,0,0,1-1537.225-9942.644Zm.672-3.573a.731.731,0,0,0-.295.055.583.583,0,0,0-.22.155.686.686,0,0,0-.14.252,1.034,1.034,0,0,0-.047.33,1.124,1.124,0,0,0,.045.337.633.633,0,0,0,.137.239.568.568,0,0,0,.232.138.988.988,0,0,0,.322.047,1.6,1.6,0,0,0,.19-.012l.01,0,.15-.028a1.179,1.179,0,0,0,.115-.037.189.189,0,0,0,.055-.03l.006-.008a.037.037,0,0,0,.009-.015.092.092,0,0,0,.01-.027.2.2,0,0,0,0-.021c0-.008,0-.014,0-.02v-.122a.132.132,0,0,0-.01-.04.045.045,0,0,0-.015-.021l-.006,0H-1536l-.011,0a.156.156,0,0,0-.06.015.553.553,0,0,1-.066.023l-.029.01-.021.006c-.034.009-.071.019-.111.026a.984.984,0,0,1-.18.015.479.479,0,0,1-.172-.027.273.273,0,0,1-.117-.077.307.307,0,0,1-.068-.12.648.648,0,0,1-.02-.16h.839a.115.115,0,0,0,.087-.034.154.154,0,0,0,.03-.105v-.062a1,1,0,0,0-.035-.267.571.571,0,0,0-.117-.215.526.526,0,0,0-.2-.14A.753.753,0,0,0-1536.553-9946.217Zm-2.12.027a.846.846,0,0,0-.092,0,.309.309,0,0,0-.06.012.072.072,0,0,0-.032.021.046.046,0,0,0-.007.027v.842a1.1,1.1,0,0,0,.025.262.518.518,0,0,0,.085.188.408.408,0,0,0,.155.125.541.541,0,0,0,.24.047.536.536,0,0,0,.245-.06.856.856,0,0,0,.232-.187v.16a.058.058,0,0,0,.008.027.05.05,0,0,0,.027.018.186.186,0,0,0,.05.013h.011c.02,0,.044,0,.072,0a.651.651,0,0,0,.068,0h.012a.278.278,0,0,0,.05-.013.052.052,0,0,0,.027-.018.056.056,0,0,0,.008-.027v-1.376a.035.035,0,0,0-.01-.027.06.06,0,0,0-.03-.021.293.293,0,0,0-.06-.012.85.85,0,0,0-.092,0,.865.865,0,0,0-.095,0,.289.289,0,0,0-.06.012.061.061,0,0,0-.03.021.048.048,0,0,0-.01.027v.914a.787.787,0,0,1-.16.157.256.256,0,0,1-.147.055.212.212,0,0,1-.1-.022.179.179,0,0,1-.072-.062.265.265,0,0,1-.042-.1.682.682,0,0,1-.015-.165v-.776a.033.033,0,0,0-.01-.027.06.06,0,0,0-.03-.021.293.293,0,0,0-.06-.012A.9.9,0,0,0-1538.673-9946.189Zm-2.3,1.288,0,0a1.086,1.086,0,0,0,.108.105.539.539,0,0,0,.107.075.5.5,0,0,0,.115.043.768.768,0,0,0,.13.012.548.548,0,0,0,.252-.055.505.505,0,0,0,.185-.16.74.74,0,0,0,.115-.249,1.218,1.218,0,0,0,.04-.33,1.375,1.375,0,0,0-.03-.292.737.737,0,0,0-.1-.242.5.5,0,0,0-.175-.162.5.5,0,0,0-.26-.062.531.531,0,0,0-.117.013.431.431,0,0,0-.107.032.788.788,0,0,0-.1.063.872.872,0,0,0-.1.09v-.762a.04.04,0,0,0-.01-.027.055.055,0,0,0-.027-.021.277.277,0,0,0-.063-.015h-.008c-.022,0-.052,0-.087,0s-.065,0-.087,0h-.008a.39.39,0,0,0-.057.013l-.007,0a.049.049,0,0,0-.025.019.04.04,0,0,0-.01.027v2.03a.048.048,0,0,0,.007.027.046.046,0,0,0,.027.02.139.139,0,0,0,.052.013h.031l.047,0,.047,0h.033a.163.163,0,0,0,.052-.013.047.047,0,0,0,.028-.02.048.048,0,0,0,.007-.027v-.15Zm1.546-1.947c-.034,0-.064,0-.085,0a.284.284,0,0,0-.067.013.092.092,0,0,0-.032.022.053.053,0,0,0-.01.027v2.03a.05.05,0,0,0,.008.023.064.064,0,0,0,.035.021.281.281,0,0,0,.06.013h.01c.023,0,.051,0,.083,0s.066,0,.087,0h.008a.279.279,0,0,0,.06-.013.056.056,0,0,0,.03-.018.04.04,0,0,0,.01-.027v-2.03a.039.039,0,0,0-.01-.027.055.055,0,0,0-.026-.021.289.289,0,0,0-.064-.015h-.008C-1539.362-9946.847-1539.392-9946.849-1539.427-9946.849Zm-1.173,1.855a.262.262,0,0,1-.157-.055.868.868,0,0,1-.157-.16v-.457a.739.739,0,0,1,.088-.1.412.412,0,0,1,.082-.069.315.315,0,0,1,.075-.038.367.367,0,0,1,.077-.01.214.214,0,0,1,.13.037.3.3,0,0,1,.085.1.58.58,0,0,1,.045.146,1.226,1.226,0,0,1,.013.169.854.854,0,0,1-.015.158.467.467,0,0,1-.05.14.292.292,0,0,1-.087.1A.194.194,0,0,1-1540.6-9944.993Zm4.322-.6h-.582a.6.6,0,0,1,.022-.138.393.393,0,0,1,.055-.112.315.315,0,0,1,.092-.075.3.3,0,0,1,.127-.027.253.253,0,0,1,.217.095.4.4,0,0,1,.068.257Z" transform="translate(2207.55 10865.519)" fill="#fff"/>
    </g>
  </g>
</svg>
