<svg xmlns="http://www.w3.org/2000/svg" xmlns:xlink="http://www.w3.org/1999/xlink" width="43.521" height="39.993" viewBox="0 0 43.521 39.993">
  <defs>
    <linearGradient id="linear-gradient" x1="0.157" y1="0.247" x2="0.87" y2="0.724" gradientUnits="objectBoundingBox">
      <stop offset="0" stop-color="#00836a"/>
      <stop offset="1" stop-color="#073e39"/>
    </linearGradient>
  </defs>
  <g id="Transfer" transform="translate(-46 -591)">
    <path id="hexagontile3" d="M24.559,0a5,5,0,0,1,4.327,2.495l6.253,10.8a5,5,0,0,1,0,5.01L28.886,29.1A5,5,0,0,1,24.559,31.6H12.03A5,5,0,0,1,7.7,29.1L1.45,18.3a5,5,0,0,1,0-5.01L7.7,2.495A5,5,0,0,1,12.03,0Z" transform="matrix(0.966, 0.259, -0.259, 0.966, 54.179, 591)" fill="url(#linear-gradient)"/>
    <g id="sign-in" transform="translate(62 605)">
      <path id="Combined_Shape" data-name="Combined Shape" d="M7.826,11.547a1.061,1.061,0,1,1,0-2.123h1.6v-7.3h-1.6A1.061,1.061,0,0,1,7.057.3,1.063,1.063,0,0,1,7.826,0h2.66a1.061,1.061,0,0,1,1.061,1.061v9.423a1.061,1.061,0,0,1-1.061,1.061ZM4.549,9.093A.963.963,0,0,1,3.888,7.44l.618-.589H4.1A4.794,4.794,0,0,1,.187,4.818.973.973,0,0,1,.441,3.43.961.961,0,0,1,1.747,3.7,2.879,2.879,0,0,0,4.1,4.927h.429l-.591-.6A.964.964,0,0,1,5.3,2.969l2.24,2.248a.962.962,0,0,1-.009,1.371l-2.3,2.232a.963.963,0,0,1-.673.274Z" transform="translate(0 0)" fill="#fafcfc"/>
    </g>
  </g>
</svg>
